  0
SECTION
  2
HEADER
  9
$ACADVER
  1
AC1015
  9
$ACADMAINTVER
 70
     6
  9
$DWGCODEPAGE
  3
ANSI_932
  9
$INSBASE
 10
0.0
 20
0.0
 30
0.0
  9
$EXTMIN
 10
0.0
 20
1.654335
 30
1.000000E+20
  9
$EXTMAX
 10
181.335357
 20
190.948035
 30
-1.000000E+20
  9
$LIMMIN
 10
0.0
 20
1.654335
  9
$LIMMAX
 10
181.335357
 20
190.948035
  9
$ORTHOMODE
 70
     0
  9
$REGENMODE
 70
     1
  9
$FILLMODE
 70
     1
  9
$QTEXTMODE
 70
     0
  9
$MIRRTEXT
 70
     1
  9
$LTSCALE
 40
1.0
  9
$ATTMODE
 70
     1
  9
$TEXTSIZE
 40
0.2
  9
$TRACEWID
 40
0.05
  9
$TEXTSTYLE
  7
Standard
  9
$CLAYER
  8
0
  9
$CELTYPE
  6
Continuous
  9
$CECOLOR
 62
   256
  9
$CELTSCALE
 40
1.0
  9
$DISPSILH
 70
     0
  9
$DIMSCALE
 40
1.0
  9
$DIMASZ
 40
0.18
  9
$DIMEXO
 40
0.0625
  9
$DIMDLI
 40
0.38
  9
$DIMRND
 40
0.0
  9
$DIMDLE
 40
0.0
  9
$DIMEXE
 40
0.18
  9
$DIMTP
 40
0.0
  9
$DIMTM
 40
0.0
  9
$DIMTXT
 40
0.18
  9
$DIMCEN
 40
0.09
  9
$DIMTSZ
 40
0.0
  9
$DIMTOL
 70
     0
  9
$DIMLIM
 70
     0
  9
$DIMTIH
 70
     1
  9
$DIMTOH
 70
     1
  9
$DIMSE1
 70
     0
  9
$DIMSE2
 70
     0
  9
$DIMTAD
 70
     0
  9
$DIMZIN
 70
     0
  9
$DIMBLK
  1

  9
$DIMASO
 70
     1
  9
$DIMSHO
 70
     1
  9
$DIMPOST
  1

  9
$DIMAPOST
  1

  9
$DIMALT
 70
     0
  9
$DIMALTD
 70
     2
  9
$DIMALTF
 40
25.4
  9
$DIMLFAC
 40
1.0
  9
$DIMTOFL
 70
     0
  9
$DIMTVP
 40
0.0
  9
$DIMTIX
 70
     0
  9
$DIMSOXD
 70
     0
  9
$DIMSAH
 70
     0
  9
$DIMBLK1
  1

  9
$DIMBLK2
  1

  9
$DIMSTYLE
  2
Standard
  9
$DIMCLRD
 70
     0
  9
$DIMCLRE
 70
     0
  9
$DIMCLRT
 70
     0
  9
$DIMTFAC
 40
1.0
  9
$DIMGAP
 40
0.09
  9
$DIMJUST
 70
     0
  9
$DIMSD1
 70
     0
  9
$DIMSD2
 70
     0
  9
$DIMTOLJ
 70
     1
  9
$DIMTZIN
 70
     0
  9
$DIMALTZ
 70
     0
  9
$DIMALTTZ
 70
     0
  9
$DIMUPT
 70
     0
  9
$DIMDEC
 70
     4
  9
$DIMTDEC
 70
     4
  9
$DIMALTU
 70
     2
  9
$DIMALTTD
 70
     2
  9
$DIMTXSTY
  7
Standard
  9
$DIMAUNIT
 70
     0
  9
$DIMADEC
 70
     0
  9
$DIMALTRND
 40
0.0
  9
$DIMAZIN
 70
     0
  9
$DIMDSEP
 70
     0
  9
$DIMATFIT
 70
     3
  9
$DIMFRAC
 70
     0
  9
$DIMLDRBLK
  1

  9
$DIMLUNIT
 70
     2
  9
$DIMLWD
 70
     0
  9
$DIMLWE
 70
     0
  9
$DIMTMOVE
 70
     0
  9
$LUNITS
 70
     2
  9
$LUPREC
 70
     4
  9
$SKETCHINC
 40
0.1
  9
$FILLETRAD
 40
0.0
  9
$AUNITS
 70
     0
  9
$AUPREC
 70
     0
  9
$MENU
  1
acad
  9
$ELEVATION
 40
0.0
  9
$PELEVATION
 40
0.0
  9
$THICKNESS
 40
0.0
  9
$LIMCHECK
 70
     0
  9
$CHAMFERA
 40
0.0
  9
$CHAMFERB
 40
0.0
  9
$CHAMFERC
 40
0.0
  9
$CHAMFERD
 40
0.0
  9
$SKPOLY
 70
     0
  9
$TDCREATE
 40
0.000000000
  9
$TDUCREATE
 40
0.000000000
  9
$TDUPDATE
 40
0.000000000
  9
$TDUUPDATE
 40
0.000000000
  9
$TDINDWG
 40
0.0000000000
  9
$TDUSRTIMER
 40
0.0000000000
  9
$USRTIMER
 70
     1
  9
$ANGBASE
 50
0.0
  9
$ANGDIR
 70
     0
  9
$PDMODE
 70
     0
  9
$PDSIZE
 40
0.0
  9
$PLINEWID
 40
0.0
  9
$SPLFRAME
 70
     0
  9
$SPLINETYPE
 70
     6
  9
$SPLINESEGS
 70
     8
  9
$HANDSEED
  5
B9
  9
$SURFTAB1
 70
     6
  9
$SURFTAB2
 70
     6
  9
$SURFTYPE
 70
     6
  9
$SURFU
 70
     6
  9
$SURFV
 70
     6
  9
$UCSBASE
  2

  9
$UCSNAME
  2

  9
$UCSORG
 10
0.0
 20
0.0
 30
0.0
  9
$UCSXDIR
 10
1.0
 20
0.0
 30
0.0
  9
$UCSYDIR
 10
0.0
 20
1.0
 30
0.0
  9
$UCSORTHOREF
  2

  9
$UCSORTHOVIEW
 70
     0
  9
$UCSORGTOP
 10
0.0
 20
0.0
 30
0.0
  9
$UCSORGBOTTOM
 10
0.0
 20
0.0
 30
0.0
  9
$UCSORGLEFT
 10
0.0
 20
0.0
 30
0.0
  9
$UCSORGRIGHT
 10
0.0
 20
0.0
 30
0.0
  9
$UCSORGFRONT
 10
0.0
 20
0.0
 30
0.0
  9
$UCSORGBACK
 10
0.0
 20
0.0
 30
0.0
  9
$PUCSBASE
  2

  9
$PUCSNAME
  2

  9
$PUCSORG
 10
0.0
 20
0.0
 30
0.0
  9
$PUCSXDIR
 10
1.0
 20
0.0
 30
0.0
  9
$PUCSYDIR
 10
0.0
 20
1.0
 30
0.0
  9
$PUCSORTHOREF
  2

  9
$PUCSORTHOVIEW
 70
     0
  9
$PUCSORGTOP
 10
0.0
 20
0.0
 30
0.0
  9
$PUCSORGBOTTOM
 10
0.0
 20
0.0
 30
0.0
  9
$PUCSORGLEFT
 10
0.0
 20
0.0
 30
0.0
  9
$PUCSORGRIGHT
 10
0.0
 20
0.0
 30
0.0
  9
$PUCSORGFRONT
 10
0.0
 20
0.0
 30
0.0
  9
$PUCSORGBACK
 10
0.0
 20
0.0
 30
0.0
  9
$USERI1
 70
     0
  9
$USERI2
 70
     0
  9
$USERI3
 70
     0
  9
$USERI4
 70
     0
  9
$USERI5
 70
     0
  9
$USERR1
 40
0.0
  9
$USERR2
 40
0.0
  9
$USERR3
 40
0.0
  9
$USERR4
 40
0.0
  9
$USERR5
 40
0.0
  9
$WORLDVIEW
 70
     1
  9
$SHADEDGE
 70
     3
  9
$SHADEDIF
 70
    70
  9
$TILEMODE
 70
     1
  9
$MAXACTVP
 70
    16
  9
$PINSBASE
 10
0.0
 20
0.0
 30
0.0
  9
$PLIMCHECK
 70
     0
  9
$PEXTMIN
 10
1.000000E+20
 20
1.000000E+20
 30
1.000000E+20
  9
$PEXTMAX
 10
-1.000000E+20
 20
-1.000000E+20
 30
-1.000000E+20
  9
$PLIMMIN
 10
0.0
 20
0.0
  9
$PLIMMAX
 10
12.0
 20
9.0
  9
$UNITMODE
 70
     0
  9
$VISRETAIN
 70
     0
  9
$PLINEGEN
 70
     1
  9
$PSLTSCALE
 70
     0
  9
$TREEDEPTH
 70
  3020
  9
$CMLSTYLE
  2
Standard
  9
$CMLJUST
 70
     0
  9
$CMLSCALE
 40
1.0
  9
$PROXYGRAPHICS
 70
     0
  9
$MEASUREMENT
 70
     1
  9
$CELWEIGHT
370
     0
  9
$ENDCAPS
280
     0
  9
$JOINSTYLE
280
     0
  9
$LWDISPLAY
290
     0
  9
$INSUNITS
 70
     0
  9
$HYPERLINKBASE
  1

  9
$STYLESHEET
  1

  9
$XEDIT
290
     1
  9
$CEPSNTYPE
380
     0
  9
$PSTYLEMODE
290
     1
  9
$FINGERPRINTGUID
  2

  9
$VERSIONGUID
  2

  9
$EXTNAMES
290
     1
  9
$PSVPSCALE
 40
0.0
  0
ENDSEC
  0
SECTION
  2
CLASSES
  0
CLASS
  1
LWPOLYLINE
  2
AcDbPolyline
  3
AutoCAD 2000
 90
    32768
280
     0
281
     1
  0
CLASS
  1
IMAGE
  2
AcDbRasterImage
  3
ISM
 90
    32895
280
     0
281
     1
  0
CLASS
  1
OLE2FRAME
  2
AcDbOle2Frame
  3
AutoCAD 2000
 90
    32768
280
     0
281
     1
  0
CLASS
  1
HATCH
  2
AcDbHatch
  3
AutoCAD 2000
 90
    32768
280
     0
281
     1
  0
CLASS
  1
DICTIONARYVAR
  2
AcDbDictionaryVar
  3
AutoCAD 2000
 90
    32768
280
     0
281
     0
  0
CLASS
  1
RASTERVARIABLES
  2
AcDbRasterVariables
  3
ISM
 90
    32768
280
     0
281
     0
  0
CLASS
  1
IMAGEDEF
  2
AcDbRasterImageDef
  3
ISM
 90
    32768
280
     0
281
     0
  0
CLASS
  1
IMAGEDEF_REACTOR
  2
AcDbRasterImageDefReactor
  3
ISM
 90
    32769
280
     0
281
     0
  0
CLASS
  1
IDBUFFER
  2
AcDbIdBuffer
  3
AutoCAD 2000
 90
    32768
280
     0
281
     0
  0
CLASS
  1
SPATIAL_FILTER
  2
AcDbSpatialFilter
  3
AutoCAD 2000
 90
    32768
280
     0
281
     0
  0
CLASS
  1
XRECORD
  2
AcDbXrecord
  3
AutoCAD 2000
 90
    32768
280
     0
281
     0
  0
CLASS
  1
SORTENTSTABLE
  2
AcDbSortentsTable
  3
AutoCAD 2000
 90
    32768
280
     0
281
     0
  0
CLASS
  1
LAYER_INDEX
  2
AcDbLayerIndex
  3
AutoCAD 2000
 90
    32768
280
     0
281
     0
  0
CLASS
  1
SPATIAL_INDEX
  2
AcDbSpatialIndex
  3
AutoCAD 2000
 90
    32768
280
     0
281
     0
  0
CLASS
  1
OBJECT_PTR
  2
CAseDLPNTableRecord
  3
"ASE-LPNTableRecord"
 90
    32769
280
     0
281
     0
  0
CLASS
  1
LAYOUT
  2
AcDbLayout
  3
AutoCAD 2000
 90
        0
280
     0
281
     0
  0
CLASS
  1
PLOTSETTINGS
  2
AcDbPlotSettings
  3
AutoCAD 2000
 90
    32768
280
     0
281
     0
  0
CLASS
  1
ACDBDICTIONARYWDFLT
  2
AcDbDictionaryWithDefault
  3
AutoCAD 2000
 90
        0
280
     0
281
     0
  0
CLASS
  1
ACDBPLACEHOLDER
  2
AcDbPlaceHolder
  3
AutoCAD 2000
 90
        0
280
     0
281
     0
  0
CLASS
  1
VBA_PROJECT
  2
AcDbVbaProject
  3
acadvba
 90
    32768
280
     0
281
     0
  0
CLASS
  1
WIPEOUT
  2
AcDbWipeout
  3
WipeOut|AutoCAD Express Tool|expresstools@autodesk.com
 90
    32895
280
     0
281
     1
  0
CLASS
  1
WIPEOUTVARIABLES
  2
AcDbWipeoutVariables
  3
WipeOut|AutoCAD Express Tool|expresstools@autodesk.com
 90
        0
280
     0
281
     0
  0
CLASS
  1
RTEXT
  2
RText
  3
RText|AutoCAD Express Tool|expresstools@autodesk.com
 90
    32768
280
     0
281
     1
  0
CLASS
  1
ARCALIGNEDTEXT
  2
AcDbArcAlignedText
  3
ATEXT|AutoCAD Express Tool|expresstools@autodesk.com
 90
    32768
280
     0
281
     1
  0
ENDSEC
  0
SECTION
  2
TABLES
  0
TABLE
  2
VPORT
  5
7
100
AcDbSymbolTable
 70
     1
  0
VPORT
  5
15
100
AcDbSymbolTableRecord
100
AcDbViewportTableRecord
  2
*ACTIVE
 70
     0
 10
0.0
 20
0.0
 11
1.0
 21
1.0
 12
6.591288
 22
4.579184
 13
0.0
 23
0.0
 14
1.0
 24
1.0
 15
0.0
 25
0.0
 16
0.0
 26
0.0
 36
1.0
 17
0.0
 27
0.0
 37
0.0
 40
9.158369
 41
0.688564
 42
50.0
 43
0.0
 44
0.0
 50
0.0
 51
0.0
 71
     0
 72
   100
 73
     1
 74
     1
 75
     0
 76
     0
 77
     0
 78
     0
281
     0
 65
     0
110
0.0
120
0.0
130
0.0
111
1.0
121
0.0
131
0.0
112
0.0
122
1.0
132
0.0
345
0
346
0
 79
     0
146
0.0
  0
ENDTAB
  0
TABLE
  2
LTYPE
  5
4
100
AcDbSymbolTable
 70
     3
  0
LTYPE
  5
11
100
AcDbSymbolTableRecord
100
AcDbLinetypeTableRecord
  2
ByBlock
 70
    64
  3

 72
    65
 73
     0
 40
0.0
  0
LTYPE
  5
12
100
AcDbSymbolTableRecord
100
AcDbLinetypeTableRecord
  2
ByLayer
 70
    64
  3

 72
    65
 73
     0
 40
0.0
  0
LTYPE
  5
13
100
AcDbSymbolTableRecord
100
AcDbLinetypeTableRecord
  2
Continuous
 70
    64
  3
Solid line
 72
    65
 73
     0
 40
0.0
  0
ENDTAB
  0
TABLE
  2
LAYER
  5
2
100
AcDbSymbolTable
 70
     2
  0
LAYER
  5
14
100
AcDbSymbolTableRecord
100
AcDbLayerTableRecord
  2
0
 70
     0
 62
     7
  6
Continuous
290
     1
370
    -3
390
1D
  0
LAYER
  5
28
100
AcDbSymbolTableRecord
100
AcDbLayerTableRecord
  2
LIVELLO_1
 70
     0
 62
   160
  6
Continuous
290
     1
370
    -3
390
1D
  0
ENDTAB
  0
TABLE
  2
STYLE
  5
3
100
AcDbSymbolTable
 70
     5
  0
STYLE
  5
17
100
AcDbSymbolTableRecord
100
AcDbTextStyleTableRecord
  2
Standard
 70
     0
 40
0.0
 41
1.0
 50
0.0
 71
     0
 42
0.0
  3
txt
  4

  0
STYLE
  5
24
100
AcDbSymbolTableRecord
100
AcDbTextStyleTableRecord
  2
STD
 70
     0
 40
0.0
 41
1.0
 50
0.0
 71
     0
 42
0.0
  3
txt
  4

  0
STYLE
  5
25
100
AcDbSymbolTableRecord
100
AcDbTextStyleTableRecord
  2
TATESTD
 70
     4
 40
0.0
 41
1.0
 50
0.0
 71
     0
 42
0.0
  3
txt
  4

  0
STYLE
  5
26
100
AcDbSymbolTableRecord
100
AcDbTextStyleTableRecord
  2
KANJISTD
 70
     0
 40
0.0
 41
1.0
 50
0.0
 71
     0
 42
0.0
  3
txt
  4
extfont
  0
STYLE
  5
27
100
AcDbSymbolTableRecord
100
AcDbTextStyleTableRecord
  2
KANJITATE
 70
     4
 40
0.0
 41
1.0
 50
0.0
 71
     0
 42
0.0
  3
txt
  4
extfont
  0
ENDTAB
  0
TABLE
  2
VIEW
  5
5
100
AcDbSymbolTable
 70
     0
  0
ENDTAB
  0
TABLE
  2
UCS
  5
6
100
AcDbSymbolTable
 70
     0
  0
ENDTAB
  0
TABLE
  2
APPID
  5
8
100
AcDbSymbolTable
 70
     1
  0
APPID
  5
16
100
AcDbSymbolTableRecord
100
AcDbRegAppTableRecord
  2
ACAD
 70
     0
  0
ENDTAB
  0
TABLE
  2
DIMSTYLE
  5
9
100
AcDbSymbolTable
 70
     1
100
AcDbDimStyleTable
 71
     0
  0
DIMSTYLE
105
18
100
AcDbSymbolTableRecord
100
AcDbDimStyleTableRecord
  2
Standard
 70
     0
  3

  4

 40
1.0
 41
0.18
 42
0.0625
 43
0.38
 44
0.18
 45
0.0
 46
0.0
 47
0.0
 48
0.0
 71
     0
 72
     0
 73
     1
 74
     1
 75
     0
 76
     0
 77
     0
 78
     0
 79
     0
140
0.18
141
0.09
142
0.0
143
25.4
144
1.0
145
0.0
146
1.0
147
0.09
148
0.0
170
     0
171
     2
172
     0
173
     0
174
     0
175
     0
176
     0
177
     0
178
     0
179
     0
271
     4
272
     4
273
     2
274
     2
275
     0
276
     0
277
     2
278
    46
279
     0
280
     0
281
     0
282
     0
283
     1
284
     0
285
     0
286
     0
288
     0
340
17
341
0
342
0
343
0
344
0
371
    -2
372
    -2
  0
ENDTAB
  0
TABLE
  2
BLOCK_RECORD
  5
1
100
AcDbSymbolTable
 70
     1
  0
BLOCK_RECORD
  5
A
100
AcDbSymbolTableRecord
100
AcDbBlockTableRecord
  2
*MODEL_SPACE
340
20
  0
BLOCK_RECORD
  5
B
100
AcDbSymbolTableRecord
100
AcDbBlockTableRecord
  2
*PAPER_SPACE
340
21
  0
BLOCK_RECORD
  5
29
100
AcDbSymbolTableRecord
100
AcDbBlockTableRecord
  2
AI9-BLK1
340
0
102
{BLKREFS
331
2A
102
}
  0
ENDTAB
  0
ENDSEC
  0
SECTION
  2
BLOCKS
  0
BLOCK
  5
D
100
AcDbEntity
  8
0
100
AcDbBlockBegin
  2
*MODEL_SPACE
 70
     0
 10
0.0
 20
0.0
 30
0.0
  3
*MODEL_SPACE
  1

  0
ENDBLK
  5
E
100
AcDbEntity
  8
0
100
AcDbBlockEnd
  0
BLOCK
  5
F
100
AcDbEntity
 67
     1
  8
0
100
AcDbBlockBegin
  2
*PAPER_SPACE
 70
     0
 10
0.0
 20
0.0
 30
0.0
  3
*PAPER_SPACE
  1

  0
ENDBLK
  5
10
100
AcDbEntity
 67
     1
  8
0
100
AcDbBlockEnd
  0
BLOCK
  5
2B
100
AcDbEntity
  8
LIVELLO_1
 62
     7
100
AcDbBlockBegin
  2
AI9-BLK1
 70
     0
 10
0.0
 20
0.0
 30
0.0
  3
AI9-BLK1
  1

  0
LINE
  5
B7
100
AcDbEntity
  8
LIVELLO_1
 62
     7
100
AcDbLine
 10
-13.786928
 20
-22.03974
 30
0.0
 11
-13.79244
 21
-84.871391
 31
0.0
  0
LINE
  5
B6
100
AcDbEntity
  8
LIVELLO_1
 62
     7
100
AcDbLine
 10
-21.860164
 20
-84.845209
 30
0.0
 11
-5.714897
 21
-84.845209
 31
0.0
  0
LINE
  5
B5
100
AcDbEntity
  8
LIVELLO_1
 62
     7
100
AcDbLine
 10
-22.216904
 20
-84.665375
 30
0.0
 11
-6.063024
 21
-84.665375
 31
0.0
  0
SPLINE
  5
B4
100
AcDbEntity
  8
LIVELLO_1
 62
     7
100
AcDbSpline
210
0.0
220
0.0
230
1.0
 70
     8
 71
     3
 72
    17
 73
    13
 74
     0
 42
0.00000001
 43
0.00000001
 40
0.0
 40
0.0
 40
0.0
 40
0.0
 40
1.0
 40
1.0
 40
1.0
 40
2.0
 40
2.0
 40
2.0
 40
3.0
 40
3.0
 40
3.0
 40
4.0
 40
4.0
 40
4.0
 40
4.0
 10
-64.289443630642353
 20
-38.522799343532981
 30
0.0
 10
-64.289443630642353
 20
-62.508243136935761
 30
0.0
 10
-69.086050075954859
 20
-67.308983696831589
 30
0.0
 10
-69.086050075954859
 20
-67.308983696831589
 30
0.0
 10
-69.086050075954859
 20
-67.308983696831589
 30
0.0
 10
-52.29672173394097
 20
-67.308983696831589
 30
0.0
 10
-52.29672173394097
 20
-67.308983696831589
 30
0.0
 10
-52.29672173394097
 20
-67.308983696831589
 30
0.0
 10
-57.090744357638883
 20
-62.508243136935761
 30
0.0
 10
-57.090744357638883
 20
-38.522799343532981
 30
0.0
 10
-57.090744357638883
 20
-38.522799343532981
 30
0.0
 10
-64.289443630642353
 20
-38.522799343532981
 30
0.0
 10
-64.289443630642353
 20
-38.522799343532981
 30
0.0
  0
SPLINE
  5
B3
100
AcDbEntity
  8
LIVELLO_1
 62
     7
100
AcDbSpline
210
0.0
220
0.0
230
1.0
 70
     8
 71
     3
 72
    17
 73
    13
 74
     0
 42
0.00000001
 43
0.00000001
 40
0.0
 40
0.0
 40
0.0
 40
0.0
 40
1.0
 40
1.0
 40
1.0
 40
2.0
 40
2.0
 40
2.0
 40
3.0
 40
3.0
 40
3.0
 40
4.0
 40
4.0
 40
4.0
 40
4.0
 10
-42.699030219184024
 20
-76.908742268880204
 30
0.0
 10
-42.699030219184024
 20
-76.908742268880204
 30
0.0
 10
-45.09974500868055
 20
-69.710904269748255
 30
0.0
 10
-52.29672173394097
 20
-67.308983696831589
 30
0.0
 10
-52.29672173394097
 20
-67.308983696831589
 30
0.0
 10
-69.086050075954859
 20
-67.308983696831589
 30
0.0
 10
-69.086050075954859
 20
-67.308983696831589
 30
0.0
 10
-76.287677680121519
 20
-69.710904269748255
 30
0.0
 10
-78.686669921874994
 20
-76.908742268880204
 30
0.0
 10
-78.686669921874994
 20
-76.908742268880204
 30
0.0
 10
-78.686669921874994
 20
-76.908742268880204
 30
0.0
 10
-42.699030219184024
 20
-76.908742268880204
 30
0.0
 10
-42.699030219184024
 20
-76.908742268880204
 30
0.0
  0
POLYLINE
  5
AD
100
AcDbEntity
  8
LIVELLO_1
 62
     7
100
AcDb2dPolyline
 66
     1
 10
0.0
 20
0.0
 30
0.0
 70
     1
  0
VERTEX
  5
AE
100
AcDbEntity
  8
LIVELLO_1
 62
     7
100
AcDbVertex
100
AcDb2dVertex
 10
-78.68667
 20
-76.908742
 30
0.0
  0
VERTEX
  5
AF
100
AcDbEntity
  8
LIVELLO_1
 62
     7
100
AcDbVertex
100
AcDb2dVertex
 10
-42.69903
 20
-76.908742
 30
0.0
  0
VERTEX
  5
B0
100
AcDbEntity
  8
LIVELLO_1
 62
     7
100
AcDbVertex
100
AcDb2dVertex
 10
-40.301416
 20
-79.304462
 30
0.0
  0
VERTEX
  5
B1
100
AcDbEntity
  8
LIVELLO_1
 62
     7
100
AcDbVertex
100
AcDb2dVertex
 10
-81.0786
 20
-79.304462
 30
0.0
  0
SEQEND
  5
B2
100
AcDbEntity
  8
LIVELLO_1
 62
     7
  0
POLYLINE
  5
A7
100
AcDbEntity
  8
LIVELLO_1
 62
     7
100
AcDb2dPolyline
 66
     1
 10
0.0
 20
0.0
 30
0.0
 70
     1
  0
VERTEX
  5
A8
100
AcDbEntity
  8
LIVELLO_1
 62
     7
100
AcDbVertex
100
AcDb2dVertex
 10
-81.0786
 20
-79.304462
 30
0.0
  0
VERTEX
  5
A9
100
AcDbEntity
  8
LIVELLO_1
 62
     7
100
AcDbVertex
100
AcDb2dVertex
 10
-40.301416
 20
-79.304462
 30
0.0
  0
VERTEX
  5
AA
100
AcDbEntity
  8
LIVELLO_1
 62
     7
100
AcDbVertex
100
AcDb2dVertex
 10
-40.301416
 20
-84.102446
 30
0.0
  0
VERTEX
  5
AB
100
AcDbEntity
  8
LIVELLO_1
 62
     7
100
AcDbVertex
100
AcDb2dVertex
 10
-81.0786
 20
-84.102446
 30
0.0
  0
SEQEND
  5
AC
100
AcDbEntity
  8
LIVELLO_1
 62
     7
  0
LINE
  5
A6
100
AcDbEntity
  8
LIVELLO_1
 62
     7
100
AcDbLine
 10
-61.87736
 20
-38.569653
 30
0.0
 11
-60.976468
 21
-38.569653
 31
0.0
  0
LINE
  5
A5
100
AcDbEntity
  8
LIVELLO_1
 62
     7
100
AcDbLine
 10
-61.87736
 20
-38.569653
 30
0.0
 11
-63.751147
 21
-38.395331
 31
0.0
  0
POLYLINE
  5
A0
100
AcDbEntity
  8
LIVELLO_1
 62
     7
100
AcDb2dPolyline
 66
     1
 10
0.0
 20
0.0
 30
0.0
  0
VERTEX
  5
A1
100
AcDbEntity
  8
LIVELLO_1
 62
     7
100
AcDbVertex
100
AcDb2dVertex
 10
-60.338264
 20
-38.569653
 30
0.0
  0
VERTEX
  5
A2
100
AcDbEntity
  8
LIVELLO_1
 62
     7
100
AcDbVertex
100
AcDb2dVertex
 10
-59.437371
 20
-38.569653
 30
0.0
  0
VERTEX
  5
A3
100
AcDbEntity
  8
LIVELLO_1
 62
     7
100
AcDbVertex
100
AcDb2dVertex
 10
-57.566512
 20
-38.395331
 30
0.0
  0
SEQEND
  5
A4
100
AcDbEntity
  8
LIVELLO_1
 62
     7
  0
LINE
  5
9F
100
AcDbEntity
  8
LIVELLO_1
 62
     7
100
AcDbLine
 10
-60.976468
 20
-38.569653
 30
0.0
 11
-60.655901
 21
-38.569653
 31
0.0
  0
LINE
  5
9E
100
AcDbEntity
  8
LIVELLO_1
 62
     7
100
AcDbLine
 10
-60.655901
 20
-38.569653
 30
0.0
 11
-60.338264
 21
-38.569653
 31
0.0
  0
SPLINE
  5
9D
100
AcDbEntity
  8
LIVELLO_1
 62
     7
100
AcDbSpline
210
0.0
220
0.0
230
1.0
 70
     8
 71
     3
 72
     8
 73
     4
 74
     0
 42
0.00000001
 43
0.00000001
 40
0.0
 40
0.0
 40
0.0
 40
0.0
 40
1.0
 40
1.0
 40
1.0
 40
1.0
 10
-63.918062337239576
 20
-38.215496826171872
 30
0.0
 10
-63.906349012586801
 20
-38.311270480685764
 30
0.0
 10
-63.83382975260416
 20
-38.380861409505208
 30
0.0
 10
-63.751147460937496
 20
-38.395330810546874
 30
0.0
  0
SPLINE
  5
9C
100
AcDbEntity
  8
LIVELLO_1
 62
     7
100
AcDbSpline
210
0.0
220
0.0
230
1.0
 70
     8
 71
     3
 72
     8
 73
     4
 74
     0
 42
0.00000001
 43
0.00000001
 40
0.0
 40
0.0
 40
0.0
 40
0.0
 40
1.0
 40
1.0
 40
1.0
 40
1.0
 10
-57.56651204427083
 20
-38.395330810546874
 30
0.0
 10
-57.477973090277771
 20
-38.380861409505208
 30
0.0
 10
-57.409760199652773
 20
-38.311270480685764
 30
0.0
 10
-57.40252549913194
 20
-38.215496826171872
 30
0.0
  0
POLYLINE
  5
97
100
AcDbEntity
  8
LIVELLO_1
 62
     7
100
AcDb2dPolyline
 66
     1
 10
0.0
 20
0.0
 30
0.0
 70
     1
  0
VERTEX
  5
98
100
AcDbEntity
  8
LIVELLO_1
 62
     7
100
AcDbVertex
100
AcDb2dVertex
 10
-60.655901
 20
-38.569653
 30
0.0
  0
VERTEX
  5
99
100
AcDbEntity
  8
LIVELLO_1
 62
     7
100
AcDbVertex
100
AcDb2dVertex
 10
-60.655901
 20
-38.569653
 30
0.0
  0
VERTEX
  5
9A
100
AcDbEntity
  8
LIVELLO_1
 62
     7
100
AcDbVertex
100
AcDb2dVertex
 10
-60.655901
 20
-38.566208
 30
0.0
  0
SEQEND
  5
9B
100
AcDbEntity
  8
LIVELLO_1
 62
     7
  0
SPLINE
  5
96
100
AcDbEntity
  8
LIVELLO_1
 62
     7
100
AcDbSpline
210
0.0
220
0.0
230
1.0
 70
     8
 71
     3
 72
    17
 73
    13
 74
     0
 42
0.00000001
 43
0.00000001
 40
0.0
 40
0.0
 40
0.0
 40
0.0
 40
1.0
 40
1.0
 40
1.0
 40
2.0
 40
2.0
 40
2.0
 40
3.0
 40
3.0
 40
3.0
 40
4.0
 40
4.0
 40
4.0
 40
4.0
 10
-60.97061089409722
 20
-38.569652642144092
 30
0.0
 10
-60.97061089409722
 20
-38.569652642144092
 30
0.0
 10
-60.97061089409722
 20
-38.569652642144092
 30
0.0
 10
-60.976467556423607
 20
-38.569652642144092
 30
0.0
 10
-60.976467556423607
 20
-38.569652642144092
 30
0.0
 10
-60.976467556423607
 20
-38.569652642144092
 30
0.0
 10
-60.976467556423607
 20
-38.569652642144092
 30
0.0
 10
-60.976467556423607
 20
-38.569652642144092
 30
0.0
 10
-60.976467556423607
 20
-38.566207546657985
 30
0.0
 10
-60.976467556423607
 20
-38.566207546657985
 30
0.0
 10
-60.97061089409722
 20
-38.566207546657985
 30
0.0
 10
-60.97061089409722
 20
-38.566207546657985
 30
0.0
 10
-60.97061089409722
 20
-38.569652642144092
 30
0.0
  0
LINE
  5
95
100
AcDbEntity
  8
LIVELLO_1
 62
     7
100
AcDbLine
 10
-57.402525
 20
-38.215497
 30
0.0
 11
-63.918062
 21
-38.215497
 31
0.0
  0
LINE
  5
94
100
AcDbEntity
  8
LIVELLO_1
 62
     7
100
AcDbLine
 10
-57.566512
 20
-38.395331
 30
0.0
 11
-63.751147
 21
-38.395331
 31
0.0
  0
SPLINE
  5
93
100
AcDbEntity
  8
LIVELLO_1
 62
     7
100
AcDbSpline
210
0.0
220
0.0
230
1.0
 70
     8
 71
     3
 72
    23
 73
    19
 74
     0
 42
0.00000001
 43
0.00000001
 40
0.0
 40
0.0
 40
0.0
 40
0.0
 40
1.0
 40
1.0
 40
1.0
 40
2.0
 40
2.0
 40
2.0
 40
3.0
 40
3.0
 40
3.0
 40
4.0
 40
4.0
 40
4.0
 40
5.0
 40
5.0
 40
5.0
 40
6.0
 40
6.0
 40
6.0
 40
6.0
 10
-72.300496419270829
 20
-28.877221001519093
 30
0.0
 10
-72.300496419270829
 20
-30.893290879991316
 30
0.0
 10
-71.693987358940959
 20
-32.886623128255202
 30
0.0
 10
-68.941011555989576
 20
-33.919118245442704
 30
0.0
 10
-65.587555609809016
 20
-35.183812798394094
 30
0.0
 10
-64.324066840277766
 20
-38.114211018880205
 30
0.0
 10
-64.324066840277766
 20
-38.114211018880205
 30
0.0
 10
-64.324066840277766
 20
-38.114211018880205
 30
0.0
 10
-60.57046305338541
 20
-38.114211018880205
 30
0.0
 10
-60.57046305338541
 20
-38.114211018880205
 30
0.0
 10
-60.57046305338541
 20
-38.114211018880205
 30
0.0
 10
-56.815136718749997
 20
-38.114211018880205
 30
0.0
 10
-56.815136718749997
 20
-38.114211018880205
 30
0.0
 10
-56.815136718749997
 20
-38.114211018880205
 30
0.0
 10
-55.555954318576383
 20
-35.183812798394094
 30
0.0
 10
-52.201120334201384
 20
-33.919118245442704
 30
0.0
 10
-49.442287868923607
 20
-32.886623128255202
 30
0.0
 10
-48.844563802083329
 20
-30.893290879991316
 30
0.0
 10
-48.844563802083329
 20
-28.877221001519093
 30
0.0
  0
POLYLINE
  5
8E
100
AcDbEntity
  8
LIVELLO_1
 62
     7
100
AcDb2dPolyline
 66
     1
 10
0.0
 20
0.0
 30
0.0
  0
VERTEX
  5
8F
100
AcDbEntity
  8
LIVELLO_1
 62
     7
100
AcDbVertex
100
AcDb2dVertex
 10
-68.941012
 20
-33.919118
 30
0.0
  0
VERTEX
  5
90
100
AcDbEntity
  8
LIVELLO_1
 62
     7
100
AcDbVertex
100
AcDb2dVertex
 10
-60.570463
 20
-33.919118
 30
0.0
  0
VERTEX
  5
91
100
AcDbEntity
  8
LIVELLO_1
 62
     7
100
AcDbVertex
100
AcDb2dVertex
 10
-52.20112
 20
-33.919118
 30
0.0
  0
SEQEND
  5
92
100
AcDbEntity
  8
LIVELLO_1
 62
     7
  0
POLYLINE
  5
87
100
AcDbEntity
  8
LIVELLO_1
 62
     7
100
AcDb2dPolyline
 66
     1
 10
0.0
 20
0.0
 30
0.0
  0
VERTEX
  5
88
100
AcDbEntity
  8
LIVELLO_1
 62
     7
100
AcDbVertex
100
AcDb2dVertex
 10
-84.321985
 20
18.129729
 30
0.0
  0
VERTEX
  5
89
100
AcDbEntity
  8
LIVELLO_1
 62
     7
100
AcDbVertex
100
AcDb2dVertex
 10
-75.386957
 20
-28.871364
 30
0.0
  0
VERTEX
  5
8A
100
AcDbEntity
  8
LIVELLO_1
 62
     7
100
AcDbVertex
100
AcDb2dVertex
 10
-60.570463
 20
-28.871364
 30
0.0
  0
VERTEX
  5
8B
100
AcDbEntity
  8
LIVELLO_1
 62
     7
100
AcDbVertex
100
AcDb2dVertex
 10
-45.755174
 20
-28.871364
 30
0.0
  0
VERTEX
  5
8C
100
AcDbEntity
  8
LIVELLO_1
 62
     7
100
AcDbVertex
100
AcDb2dVertex
 10
-36.814463
 20
18.129729
 30
0.0
  0
SEQEND
  5
8D
100
AcDbEntity
  8
LIVELLO_1
 62
     7
  0
SPLINE
  5
86
100
AcDbEntity
  8
LIVELLO_1
 62
     7
100
AcDbSpline
210
0.0
220
0.0
230
1.0
 70
     8
 71
     3
 72
    47
 73
    43
 74
     0
 42
0.00000001
 43
0.00000001
 40
0.0
 40
0.0
 40
0.0
 40
0.0
 40
1.0
 40
1.0
 40
1.0
 40
2.0
 40
2.0
 40
2.0
 40
3.0
 40
3.0
 40
3.0
 40
4.0
 40
4.0
 40
4.0
 40
5.0
 40
5.0
 40
5.0
 40
6.0
 40
6.0
 40
6.0
 40
7.0
 40
7.0
 40
7.0
 40
8.0
 40
8.0
 40
8.0
 40
9.0
 40
9.0
 40
9.0
 40
10.0
 40
10.0
 40
10.0
 40
11.0
 40
11.0
 40
11.0
 40
12.0
 40
12.0
 40
12.0
 40
13.0
 40
13.0
 40
13.0
 40
14.0
 40
14.0
 40
14.0
 40
14.0
 10
-60.57046305338541
 20
12.565555148654513
 30
0.0
 10
-62.075797526041661
 20
12.565555148654513
 30
0.0
 10
-63.320510525173603
 20
15.214144558376734
 30
0.0
 10
-63.320510525173603
 20
15.214144558376734
 30
0.0
 10
-63.320510525173603
 20
15.214144558376734
 30
0.0
 10
-64.170587836371524
 20
13.696924506293401
 30
0.0
 10
-66.256248643663184
 20
13.696924506293401
 30
0.0
 10
-68.343459743923603
 20
13.696924506293401
 30
0.0
 10
-69.505318196614581
 20
15.300960964626734
 30
0.0
 10
-69.505318196614581
 20
15.300960964626734
 30
0.0
 10
-69.505318196614581
 20
15.300960964626734
 30
0.0
 10
-65.482996961805554
 20
-26.780191379123263
 30
0.0
 10
-65.482996961805554
 20
-26.780191379123263
 30
0.0
 10
-65.482996961805554
 20
-26.780191379123263
 30
0.0
 10
-64.527155219184024
 20
-25.494826253255205
 30
0.0
 10
-63.724964735243049
 20
-25.494826253255205
 30
0.0
 10
-62.920018174913189
 20
-25.494826253255205
 30
0.0
 10
-61.793127441406241
 20
-26.617582872178819
 30
0.0
 10
-61.793127441406241
 20
-26.617582872178819
 30
0.0
 10
-61.793127441406241
 20
-26.617582872178819
 30
0.0
 10
-61.75523139105902
 20
-24.691429985894096
 30
0.0
 10
-60.57046305338541
 20
-24.691429985894096
 30
0.0
 10
-59.385350206163189
 20
-24.691429985894096
 30
0.0
 10
-59.346076117621521
 20
-26.617582872178819
 30
0.0
 10
-59.346076117621521
 20
-26.617582872178819
 30
0.0
 10
-59.346076117621521
 20
-26.617582872178819
 30
0.0
 10
-58.22056342230902
 20
-25.494826253255205
 30
0.0
 10
-57.41268853081597
 20
-25.494826253255205
 30
0.0
 10
-56.613426378038191
 20
-25.494826253255205
 30
0.0
 10
-55.650349934895829
 20
-26.780191379123263
 30
0.0
 10
-55.650349934895829
 20
-26.780191379123263
 30
0.0
 10
-55.650349934895829
 20
-26.780191379123263
 30
0.0
 10
-51.630957031249999
 20
15.300960964626734
 30
0.0
 10
-51.630957031249999
 20
15.300960964626734
 30
0.0
 10
-51.630957031249999
 20
15.300960964626734
 30
0.0
 10
-52.801600477430554
 20
13.696924506293401
 30
0.0
 10
-54.88450520833333
 20
13.696924506293401
 30
0.0
 10
-56.968787977430551
 20
13.696924506293401
 30
0.0
 10
-57.81869303385416
 20
15.214144558376734
 30
0.0
 10
-57.81869303385416
 20
15.214144558376734
 30
0.0
 10
-57.81869303385416
 20
15.214144558376734
 30
0.0
 10
-59.057549370659714
 20
12.565555148654513
 30
0.0
 10
-60.57046305338541
 20
12.565555148654513
 30
0.0
  0
POLYLINE
  5
7F
100
AcDbEntity
  8
LIVELLO_1
 62
     7
100
AcDb2dPolyline
 66
     1
 10
0.0
 20
0.0
 30
0.0
  0
VERTEX
  5
80
100
AcDbEntity
  8
LIVELLO_1
 62
     7
100
AcDbVertex
100
AcDb2dVertex
 10
-37.00446
 20
16.971832
 30
0.0
  0
VERTEX
  5
81
100
AcDbEntity
  8
LIVELLO_1
 62
     7
100
AcDbVertex
100
AcDb2dVertex
 10
-49.100018
 20
16.971832
 30
0.0
  0
VERTEX
  5
82
100
AcDbEntity
  8
LIVELLO_1
 62
     7
100
AcDbVertex
100
AcDb2dVertex
 10
-60.570463
 20
16.971832
 30
0.0
  0
VERTEX
  5
83
100
AcDbEntity
  8
LIVELLO_1
 62
     7
100
AcDbVertex
100
AcDb2dVertex
 10
-72.045043
 20
16.971832
 30
0.0
  0
VERTEX
  5
84
100
AcDbEntity
  8
LIVELLO_1
 62
     7
100
AcDbVertex
100
AcDb2dVertex
 10
-84.141979
 20
16.971832
 30
0.0
  0
SEQEND
  5
85
100
AcDbEntity
  8
LIVELLO_1
 62
     7
  0
POLYLINE
  5
7A
100
AcDbEntity
  8
LIVELLO_1
 62
     7
100
AcDb2dPolyline
 66
     1
 10
0.0
 20
0.0
 30
0.0
  0
VERTEX
  5
7B
100
AcDbEntity
  8
LIVELLO_1
 62
     7
100
AcDbVertex
100
AcDb2dVertex
 10
-87.866816
 20
19.411993
 30
0.0
  0
VERTEX
  5
7C
100
AcDbEntity
  8
LIVELLO_1
 62
     7
100
AcDbVertex
100
AcDb2dVertex
 10
-60.570463
 20
19.411993
 30
0.0
  0
VERTEX
  5
7D
100
AcDbEntity
  8
LIVELLO_1
 62
     7
100
AcDbVertex
100
AcDb2dVertex
 10
-33.279622
 20
19.411993
 30
0.0
  0
SEQEND
  5
7E
100
AcDbEntity
  8
LIVELLO_1
 62
     7
  0
POLYLINE
  5
73
100
AcDbEntity
  8
LIVELLO_1
 62
     7
100
AcDb2dPolyline
 66
     1
 10
0.0
 20
0.0
 30
0.0
  0
VERTEX
  5
74
100
AcDbEntity
  8
LIVELLO_1
 62
     7
100
AcDbVertex
100
AcDb2dVertex
 10
-83.264341
 20
21.500755
 30
0.0
  0
VERTEX
  5
75
100
AcDbEntity
  8
LIVELLO_1
 62
     7
100
AcDbVertex
100
AcDb2dVertex
 10
-76.673528
 20
21.021887
 30
0.0
  0
VERTEX
  5
76
100
AcDbEntity
  8
LIVELLO_1
 62
     7
100
AcDbVertex
100
AcDb2dVertex
 10
-60.570463
 20
21.021887
 30
0.0
  0
VERTEX
  5
77
100
AcDbEntity
  8
LIVELLO_1
 62
     7
100
AcDbVertex
100
AcDb2dVertex
 10
-44.462747
 20
21.021887
 30
0.0
  0
VERTEX
  5
78
100
AcDbEntity
  8
LIVELLO_1
 62
     7
100
AcDbVertex
100
AcDb2dVertex
 10
-37.877791
 20
21.500755
 30
0.0
  0
SEQEND
  5
79
100
AcDbEntity
  8
LIVELLO_1
 62
     7
  0
POLYLINE
  5
6C
100
AcDbEntity
  8
LIVELLO_1
 62
     7
100
AcDb2dPolyline
 66
     1
 10
0.0
 20
0.0
 30
0.0
  0
VERTEX
  5
6D
100
AcDbEntity
  8
LIVELLO_1
 62
     7
100
AcDbVertex
100
AcDb2dVertex
 10
-75.707524
 20
29.219836
 30
0.0
  0
VERTEX
  5
6E
100
AcDbEntity
  8
LIVELLO_1
 62
     7
100
AcDbVertex
100
AcDb2dVertex
 10
-71.041142
 20
28.738556
 30
0.0
  0
VERTEX
  5
6F
100
AcDbEntity
  8
LIVELLO_1
 62
     7
100
AcDbVertex
100
AcDb2dVertex
 10
-60.570463
 20
28.738556
 30
0.0
  0
VERTEX
  5
70
100
AcDbEntity
  8
LIVELLO_1
 62
     7
100
AcDbVertex
100
AcDb2dVertex
 10
-50.095133
 20
28.738556
 30
0.0
  0
VERTEX
  5
71
100
AcDbEntity
  8
LIVELLO_1
 62
     7
100
AcDbVertex
100
AcDb2dVertex
 10
-45.428752
 20
29.219836
 30
0.0
  0
SEQEND
  5
72
100
AcDbEntity
  8
LIVELLO_1
 62
     7
  0
POLYLINE
  5
65
100
AcDbEntity
  8
LIVELLO_1
 62
     7
100
AcDb2dPolyline
 66
     1
 10
0.0
 20
0.0
 30
0.0
  0
VERTEX
  5
66
100
AcDbEntity
  8
LIVELLO_1
 62
     7
100
AcDbVertex
100
AcDb2dVertex
 10
-68.382734
 20
33.33638
 30
0.0
  0
VERTEX
  5
67
100
AcDbEntity
  8
LIVELLO_1
 62
     7
100
AcDbVertex
100
AcDb2dVertex
 10
-65.80942
 20
32.852
 30
0.0
  0
VERTEX
  5
68
100
AcDbEntity
  8
LIVELLO_1
 62
     7
100
AcDbVertex
100
AcDb2dVertex
 10
-60.570463
 20
32.852
 30
0.0
  0
VERTEX
  5
69
100
AcDbEntity
  8
LIVELLO_1
 62
     7
100
AcDbVertex
100
AcDb2dVertex
 10
-55.329784
 20
32.852
 30
0.0
  0
VERTEX
  5
6A
100
AcDbEntity
  8
LIVELLO_1
 62
     7
100
AcDbVertex
100
AcDb2dVertex
 10
-52.75957
 20
33.33638
 30
0.0
  0
SEQEND
  5
6B
100
AcDbEntity
  8
LIVELLO_1
 62
     7
  0
SPLINE
  5
64
100
AcDbEntity
  8
LIVELLO_1
 62
     7
100
AcDbSpline
210
0.0
220
0.0
230
1.0
 70
     8
 71
     3
 72
    65
 73
    61
 74
     0
 42
0.00000001
 43
0.00000001
 40
0.0
 40
0.0
 40
0.0
 40
0.0
 40
1.0
 40
1.0
 40
1.0
 40
2.0
 40
2.0
 40
2.0
 40
3.0
 40
3.0
 40
3.0
 40
4.0
 40
4.0
 40
4.0
 40
5.0
 40
5.0
 40
5.0
 40
6.0
 40
6.0
 40
6.0
 40
7.0
 40
7.0
 40
7.0
 40
8.0
 40
8.0
 40
8.0
 40
9.0
 40
9.0
 40
9.0
 40
10.0
 40
10.0
 40
10.0
 40
11.0
 40
11.0
 40
11.0
 40
12.0
 40
12.0
 40
12.0
 40
13.0
 40
13.0
 40
13.0
 40
14.0
 40
14.0
 40
14.0
 40
15.0
 40
15.0
 40
15.0
 40
16.0
 40
16.0
 40
16.0
 40
17.0
 40
17.0
 40
17.0
 40
18.0
 40
18.0
 40
18.0
 40
19.0
 40
19.0
 40
19.0
 40
20.0
 40
20.0
 40
20.0
 40
20.0
 10
-60.57046305338541
 20
42.494477674696178
 30
0.0
 10
-60.57046305338541
 20
42.494477674696178
 30
0.0
 10
-63.558222113715274
 20
42.494477674696178
 30
0.0
 10
-63.558222113715274
 20
42.494477674696178
 30
0.0
 10
-64.36041259765625
 20
42.494477674696178
 30
0.0
 10
-64.847721354166666
 20
41.209801567925346
 30
0.0
 10
-64.847721354166666
 20
41.209801567925346
 30
0.0
 10
-64.847721354166666
 20
41.209801567925346
 30
0.0
 10
-66.193720160590274
 20
35.425141737196178
 30
0.0
 10
-68.382733832465277
 20
33.336380343967008
 30
0.0
 10
-70.56261800130207
 20
31.244862874348957
 30
0.0
 10
-74.42525906032985
 20
29.704216172960066
 30
0.0
 10
-75.707523600260416
 20
29.219835747612844
 30
0.0
 10
-76.997022840711793
 20
28.738555908203121
 30
0.0
 10
-78.119607204861097
 20
27.131074354383678
 30
0.0
 10
-78.119607204861097
 20
27.131074354383678
 30
0.0
 10
-78.119607204861097
 20
27.131074354383678
 30
0.0
 10
-82.047532823350693
 20
22.309663221571178
 30
0.0
 10
-83.26434054904513
 20
21.50075480143229
 30
0.0
 10
-84.482870822482624
 20
20.702870686848957
 30
0.0
 10
-87.866815863715274
 20
19.411993408203124
 30
0.0
 10
-87.866815863715274
 20
19.411993408203124
 30
0.0
 10
-87.866815863715274
 20
19.411993408203124
 30
0.0
 10
-89.954026963975693
 20
19.411993408203124
 30
0.0
 10
-89.954026963975693
 20
19.411993408203124
 30
0.0
 10
-89.954026963975693
 20
19.411993408203124
 30
0.0
 10
-89.954026963975693
 20
18.129728868272569
 30
0.0
 10
-89.954026963975693
 20
18.129728868272569
 30
0.0
 10
-89.954026963975693
 20
18.129728868272569
 30
0.0
 10
-60.57046305338541
 20
18.129728868272569
 30
0.0
 10
-60.57046305338541
 20
18.129728868272569
 30
0.0
 10
-60.57046305338541
 20
18.129728868272569
 30
0.0
 10
-31.188104926215274
 20
18.129728868272569
 30
0.0
 10
-31.188104926215274
 20
18.129728868272569
 30
0.0
 10
-31.188104926215274
 20
18.129728868272569
 30
0.0
 10
-31.188104926215274
 20
19.411993408203124
 30
0.0
 10
-31.188104926215274
 20
19.411993408203124
 30
0.0
 10
-31.188104926215274
 20
19.411993408203124
 30
0.0
 10
-33.279622395833329
 20
19.411993408203124
 30
0.0
 10
-33.279622395833329
 20
19.411993408203124
 30
0.0
 10
-33.279622395833329
 20
19.411993408203124
 30
0.0
 10
-36.653404405381941
 20
20.702870686848957
 30
0.0
 10
-37.87779134114583
 20
21.50075480143229
 30
0.0
 10
-39.09890543619791
 20
22.309663221571178
 30
0.0
 10
-43.016668023003469
 20
27.131074354383678
 30
0.0
 10
-43.016668023003469
 20
27.131074354383678
 30
0.0
 10
-43.016668023003469
 20
27.131074354383678
 30
0.0
 10
-44.14510904947916
 20
28.738555908203121
 30
0.0
 10
-45.428751627604164
 20
29.219835747612844
 30
0.0
 10
-46.718423122829854
 20
29.704216172960066
 30
0.0
 10
-50.573657226562496
 20
31.244862874348957
 30
0.0
 10
-52.759570312499996
 20
33.336380343967008
 30
0.0
 10
-54.943933105468744
 20
35.425141737196178
 30
0.0
 10
-56.295788574218747
 20
41.209801567925346
 30
0.0
 10
-56.295788574218747
 20
41.209801567925346
 30
0.0
 10
-56.295788574218747
 20
41.209801567925346
 30
0.0
 10
-56.773106553819439
 20
42.494477674696178
 30
0.0
 10
-57.575124782986109
 20
42.494477674696178
 30
0.0
 10
-57.575124782986109
 20
42.494477674696178
 30
0.0
 10
-60.57046305338541
 20
42.494477674696178
 30
0.0
 10
-60.57046305338541
 20
42.494477674696178
 30
0.0
  0
SPLINE
  5
63
100
AcDbEntity
  8
LIVELLO_1
 62
     7
100
AcDbSpline
210
0.0
220
0.0
230
1.0
 70
     8
 71
     3
 72
    29
 73
    25
 74
     0
 42
0.00000001
 43
0.00000001
 40
0.0
 40
0.0
 40
0.0
 40
0.0
 40
1.0
 40
1.0
 40
1.0
 40
2.0
 40
2.0
 40
2.0
 40
3.0
 40
3.0
 40
3.0
 40
4.0
 40
4.0
 40
4.0
 40
5.0
 40
5.0
 40
5.0
 40
6.0
 40
6.0
 40
6.0
 40
7.0
 40
7.0
 40
7.0
 40
8.0
 40
8.0
 40
8.0
 40
8.0
 10
-60.57046305338541
 20
42.512047661675346
 30
0.0
 10
-60.57046305338541
 20
42.512047661675346
 30
0.0
 10
-62.910027398003464
 20
42.512047661675346
 30
0.0
 10
-62.910027398003464
 20
42.512047661675346
 30
0.0
 10
-63.442294650607636
 20
42.512047661675346
 30
0.0
 10
-63.861390516493053
 20
42.822450764973958
 30
0.0
 10
-63.861390516493053
 20
43.211057535807285
 30
0.0
 10
-63.861390516493053
 20
43.594152153862844
 30
0.0
 10
-63.442294650607636
 20
43.907655843098958
 30
0.0
 10
-62.910027398003464
 20
43.907655843098958
 30
0.0
 10
-62.910027398003464
 20
43.907655843098958
 30
0.0
 10
-60.57046305338541
 20
43.907655843098958
 30
0.0
 10
-60.57046305338541
 20
43.907655843098958
 30
0.0
 10
-60.57046305338541
 20
43.907655843098958
 30
0.0
 10
-58.229348415798604
 20
43.907655843098958
 30
0.0
 10
-58.229348415798604
 20
43.907655843098958
 30
0.0
 10
-57.696908908420134
 20
43.907655843098958
 30
0.0
 10
-57.272128634982636
 20
43.594152153862844
 30
0.0
 10
-57.272128634982636
 20
43.211057535807285
 30
0.0
 10
-57.272128634982636
 20
42.822450764973958
 30
0.0
 10
-57.696908908420134
 20
42.512047661675346
 30
0.0
 10
-58.229348415798604
 20
42.512047661675346
 30
0.0
 10
-58.229348415798604
 20
42.512047661675346
 30
0.0
 10
-60.57046305338541
 20
42.512047661675346
 30
0.0
 10
-60.57046305338541
 20
42.512047661675346
 30
0.0
  0
POLYLINE
  5
5B
100
AcDbEntity
  8
LIVELLO_1
 62
     7
100
AcDb2dPolyline
 66
     1
 10
0.0
 20
0.0
 30
0.0
 70
     1
  0
VERTEX
  5
5C
100
AcDbEntity
  8
LIVELLO_1
 62
     7
100
AcDbVertex
100
AcDb2dVertex
 10
-60.570463
 20
43.898699
 30
0.0
  0
VERTEX
  5
5D
100
AcDbEntity
  8
LIVELLO_1
 62
     7
100
AcDbVertex
100
AcDb2dVertex
 10
-62.486453
 20
43.898699
 30
0.0
  0
VERTEX
  5
5E
100
AcDbEntity
  8
LIVELLO_1
 62
     7
100
AcDbVertex
100
AcDb2dVertex
 10
-62.486453
 20
47.063708
 30
0.0
  0
VERTEX
  5
5F
100
AcDbEntity
  8
LIVELLO_1
 62
     7
100
AcDbVertex
100
AcDb2dVertex
 10
-60.570463
 20
47.063708
 30
0.0
  0
VERTEX
  5
60
100
AcDbEntity
  8
LIVELLO_1
 62
     7
100
AcDbVertex
100
AcDb2dVertex
 10
-58.657057
 20
47.063708
 30
0.0
  0
VERTEX
  5
61
100
AcDbEntity
  8
LIVELLO_1
 62
     7
100
AcDbVertex
100
AcDb2dVertex
 10
-58.657057
 20
43.898699
 30
0.0
  0
SEQEND
  5
62
100
AcDbEntity
  8
LIVELLO_1
 62
     7
  0
SPLINE
  5
5A
100
AcDbEntity
  8
LIVELLO_1
 62
     7
100
AcDbSpline
210
0.0
220
0.0
230
1.0
 70
     8
 71
     3
 72
    17
 73
    13
 74
     0
 42
0.00000001
 43
0.00000001
 40
0.0
 40
0.0
 40
0.0
 40
0.0
 40
1.0
 40
1.0
 40
1.0
 40
2.0
 40
2.0
 40
2.0
 40
3.0
 40
3.0
 40
3.0
 40
4.0
 40
4.0
 40
4.0
 40
4.0
 10
-60.57046305338541
 20
47.063707817925341
 30
0.0
 10
-62.138326009114579
 20
47.063707817925341
 30
0.0
 10
-64.749191623263883
 20
47.408906385633678
 30
0.0
 10
-63.558222113715274
 20
48.566113959418395
 30
0.0
 10
-62.101980251736109
 20
49.984804280598951
 30
0.0
 10
-61.546458604600687
 20
55.281983100043398
 30
0.0
 10
-60.57046305338541
 20
55.281983100043398
 30
0.0
 10
-59.587060546874994
 20
55.281983100043398
 30
0.0
 10
-59.037223307291661
 20
49.984804280598951
 30
0.0
 10
-57.575124782986109
 20
48.566113959418395
 30
0.0
 10
-56.390011935763887
 20
47.408906385633678
 30
0.0
 10
-59.000877549913191
 20
47.063707817925341
 30
0.0
 10
-60.57046305338541
 20
47.063707817925341
 30
0.0
  0
SPLINE
  5
59
100
AcDbEntity
  8
LIVELLO_1
 62
     7
100
AcDbSpline
210
0.0
220
0.0
230
1.0
 70
     8
 71
     3
 72
     8
 73
     4
 74
     0
 42
0.00000001
 43
0.00000001
 40
0.0
 40
0.0
 40
0.0
 40
0.0
 40
1.0
 40
1.0
 40
1.0
 40
1.0
 10
-54.21305609809027
 20
-28.961281331380206
 30
0.0
 10
-54.21305609809027
 20
-28.961281331380206
 30
0.0
 10
-54.46230875651041
 20
-32.576220024956591
 30
0.0
 10
-56.313186306423603
 20
-33.753753662109375
 30
0.0
  0
LINE
  5
58
100
AcDbEntity
  8
LIVELLO_1
 62
     7
100
AcDbLine
 10
-53.288909
 20
-28.793161
 30
0.0
 11
-49.008723
 21
18.147299
 31
0.0
  0
SPLINE
  5
57
100
AcDbEntity
  8
LIVELLO_1
 62
     7
100
AcDbSpline
210
0.0
220
0.0
230
1.0
 70
     8
 71
     3
 72
    47
 73
    43
 74
     0
 42
0.00000001
 43
0.00000001
 40
0.0
 40
0.0
 40
0.0
 40
0.0
 40
1.0
 40
1.0
 40
1.0
 40
2.0
 40
2.0
 40
2.0
 40
3.0
 40
3.0
 40
3.0
 40
4.0
 40
4.0
 40
4.0
 40
5.0
 40
5.0
 40
5.0
 40
6.0
 40
6.0
 40
6.0
 40
7.0
 40
7.0
 40
7.0
 40
8.0
 40
8.0
 40
8.0
 40
9.0
 40
9.0
 40
9.0
 40
10.0
 40
10.0
 40
10.0
 40
11.0
 40
11.0
 40
11.0
 40
12.0
 40
12.0
 40
12.0
 40
13.0
 40
13.0
 40
13.0
 40
14.0
 40
14.0
 40
14.0
 40
14.0
 10
-38.739065212673609
 20
15.802911376953123
 30
0.0
 10
-38.739065212673609
 20
15.802911376953123
 30
0.0
 10
-46.373052300347219
 20
-26.780191379123263
 30
0.0
 10
-46.373052300347219
 20
-26.780191379123263
 30
0.0
 10
-46.373052300347219
 20
-26.780191379123263
 30
0.0
 10
-47.151988389756937
 20
-26.298567030164929
 30
0.0
 10
-47.472554524739579
 20
-26.298567030164929
 30
0.0
 10
-47.775722927517357
 20
-26.298567030164929
 30
0.0
 10
-48.24563395182291
 20
-26.939699300130204
 30
0.0
 10
-48.24563395182291
 20
-26.939699300130204
 30
0.0
 10
-48.24563395182291
 20
-26.939699300130204
 30
0.0
 10
-48.24563395182291
 20
-25.013546413845482
 30
0.0
 10
-48.869540744357636
 20
-25.013546413845482
 30
0.0
 10
-49.490174696180553
 20
-25.013546413845482
 30
0.0
 10
-49.584570312499999
 20
-26.945211452907984
 30
0.0
 10
-49.584570312499999
 20
-26.945211452907984
 30
0.0
 10
-49.584570312499999
 20
-26.945211452907984
 30
0.0
 10
-50.170581054687496
 20
-26.443605550130204
 30
0.0
 10
-50.7970716688368
 20
-26.443605550130204
 30
0.0
 10
-51.42080620659722
 20
-26.443605550130204
 30
0.0
 10
-51.605118815104163
 20
-27.032372368706596
 30
0.0
 10
-51.605118815104163
 20
-27.032372368706596
 30
0.0
 10
-51.605118815104163
 20
-27.032372368706596
 30
0.0
 10
-47.611908637152773
 20
15.802911376953123
 30
0.0
 10
-47.611908637152773
 20
15.802911376953123
 30
0.0
 10
-47.611908637152773
 20
15.802911376953123
 30
0.0
 10
-46.058170572916666
 20
14.201975504557291
 30
0.0
 10
-45.2780287000868
 20
14.201975504557291
 30
0.0
 10
-44.504949273003469
 20
14.201975504557291
 30
0.0
 10
-44.032109917534719
 20
15.64340345594618
 30
0.0
 10
-44.032109917534719
 20
15.64340345594618
 30
0.0
 10
-44.032109917534719
 20
15.64340345594618
 30
0.0
 10
-43.878286404079859
 20
13.238382297092013
 30
0.0
 10
-42.633917914496521
 20
13.238382297092013
 30
0.0
 10
-41.38920491536458
 20
13.238382297092013
 30
0.0
 10
-41.234003363715274
 20
15.321631537543402
 30
0.0
 10
-41.234003363715274
 20
15.321631537543402
 30
0.0
 10
-41.234003363715274
 20
15.321631537543402
 30
0.0
 10
-41.077423773871523
 20
14.201975504557291
 30
0.0
 10
-40.298487684461804
 20
14.201975504557291
 30
0.0
 10
-39.516623263888889
 20
14.201975504557291
 30
0.0
 10
-38.739065212673609
 20
15.802911376953123
 30
0.0
 10
-38.739065212673609
 20
15.802911376953123
 30
0.0
  0
SPLINE
  5
56
100
AcDbEntity
  8
LIVELLO_1
 62
     7
100
AcDbSpline
210
0.0
220
0.0
230
1.0
 70
     8
 71
     3
 72
    17
 73
    13
 74
     0
 42
0.00000001
 43
0.00000001
 40
0.0
 40
0.0
 40
0.0
 40
0.0
 40
1.0
 40
1.0
 40
1.0
 40
2.0
 40
2.0
 40
2.0
 40
3.0
 40
3.0
 40
3.0
 40
4.0
 40
4.0
 40
4.0
 40
4.0
 10
-58.538201226128464
 20
42.494477674696178
 30
0.0
 10
-58.538201226128464
 20
42.494477674696178
 30
0.0
 10
-56.295788574218747
 20
34.137020534939232
 30
0.0
 10
-55.329783799913187
 20
32.851999918619789
 30
0.0
 10
-55.329783799913187
 20
32.851999918619789
 30
0.0
 10
-50.095133463541664
 20
28.738555908203121
 30
0.0
 10
-50.095133463541664
 20
28.738555908203121
 30
0.0
 10
-50.095133463541664
 20
28.738555908203121
 30
0.0
 10
-47.196946885850693
 20
23.11064792209201
 30
0.0
 10
-44.462746853298604
 20
21.021886528862844
 30
0.0
 10
-44.462746853298604
 20
21.021886528862844
 30
0.0
 10
-41.733025444878471
 20
19.411993408203124
 30
0.0
 10
-41.733025444878471
 20
19.411993408203124
 30
0.0
  0
CIRCLE
  5
55
100
AcDbEntity
  8
LIVELLO_1
 62
     7
100
AcDbCircle
 10
-60.569602
 20
56.500686
 30
0.0
 40
1.265556
  0
SPLINE
  5
54
100
AcDbEntity
  8
LIVELLO_1
 62
     7
100
AcDbSpline
210
0.0
220
0.0
230
1.0
 70
     8
 71
     3
 72
     8
 73
     4
 74
     0
 42
0.00000001
 43
0.00000001
 40
0.0
 40
0.0
 40
0.0
 40
0.0
 40
1.0
 40
1.0
 40
1.0
 40
1.0
 10
-66.9261474609375
 20
-28.961281331380206
 30
0.0
 10
-66.9261474609375
 20
-28.961281331380206
 30
0.0
 10
-66.671038140190973
 20
-32.576220024956591
 30
0.0
 10
-64.82601725260416
 20
-33.753753662109375
 30
0.0
  0
LINE
  5
53
100
AcDbEntity
  8
LIVELLO_1
 62
     7
100
AcDbLine
 10
-67.850294
 20
-28.793161
 30
0.0
 11
-72.127553
 21
18.147299
 31
0.0
  0
SPLINE
  5
52
100
AcDbEntity
  8
LIVELLO_1
 62
     7
100
AcDbSpline
210
0.0
220
0.0
230
1.0
 70
     8
 71
     3
 72
    47
 73
    43
 74
     0
 42
0.00000001
 43
0.00000001
 40
0.0
 40
0.0
 40
0.0
 40
0.0
 40
1.0
 40
1.0
 40
1.0
 40
2.0
 40
2.0
 40
2.0
 40
3.0
 40
3.0
 40
3.0
 40
4.0
 40
4.0
 40
4.0
 40
5.0
 40
5.0
 40
5.0
 40
6.0
 40
6.0
 40
6.0
 40
7.0
 40
7.0
 40
7.0
 40
8.0
 40
8.0
 40
8.0
 40
9.0
 40
9.0
 40
9.0
 40
10.0
 40
10.0
 40
10.0
 40
11.0
 40
11.0
 40
11.0
 40
12.0
 40
12.0
 40
12.0
 40
13.0
 40
13.0
 40
13.0
 40
14.0
 40
14.0
 40
14.0
 40
14.0
 10
-82.397210015190964
 20
15.802911376953123
 30
0.0
 10
-82.397210015190964
 20
15.802911376953123
 30
0.0
 10
-74.768907335069443
 20
-26.780191379123263
 30
0.0
 10
-74.768907335069443
 20
-26.780191379123263
 30
0.0
 10
-74.768907335069443
 20
-26.780191379123263
 30
0.0
 10
-73.984286838107636
 20
-26.298567030164929
 30
0.0
 10
-73.672505696614579
 20
-26.298567030164929
 30
0.0
 10
-73.366408962673603
 20
-26.298567030164929
 30
0.0
 10
-72.897875976562489
 20
-26.939699300130204
 30
0.0
 10
-72.897875976562489
 20
-26.939699300130204
 30
0.0
 10
-72.897875976562489
 20
-26.939699300130204
 30
0.0
 10
-72.897875976562489
 20
-25.013546413845482
 30
0.0
 10
-72.274313693576389
 20
-25.013546413845482
 30
0.0
 10
-71.653507486979166
 20
-25.013546413845482
 30
0.0
 10
-71.557733832465274
 20
-26.945211452907984
 30
0.0
 10
-71.557733832465274
 20
-26.945211452907984
 30
0.0
 10
-71.557733832465274
 20
-26.945211452907984
 30
0.0
 10
-70.967416720920127
 20
-26.443605550130204
 30
0.0
 10
-70.346610514322904
 20
-26.443605550130204
 30
0.0
 10
-69.722875976562491
 20
-26.443605550130204
 30
0.0
 10
-69.531328667534723
 20
-27.032372368706596
 30
0.0
 10
-69.531328667534723
 20
-27.032372368706596
 30
0.0
 10
-69.531328667534723
 20
-27.032372368706596
 30
0.0
 10
-73.524538845486106
 20
15.802911376953123
 30
0.0
 10
-73.524538845486106
 20
15.802911376953123
 30
0.0
 10
-73.524538845486106
 20
15.802911376953123
 30
0.0
 10
-75.08361680772569
 20
14.201975504557291
 30
0.0
 10
-75.862725151909714
 20
14.201975504557291
 30
0.0
 10
-76.640110948350681
 20
14.201975504557291
 30
0.0
 10
-77.104165310329847
 20
15.64340345594618
 30
0.0
 10
-77.104165310329847
 20
15.64340345594618
 30
0.0
 10
-77.104165310329847
 20
15.64340345594618
 30
0.0
 10
-77.263845486111109
 20
13.238382297092013
 30
0.0
 10
-78.50252956814235
 20
13.238382297092013
 30
0.0
 10
-79.754305013020826
 20
13.238382297092013
 30
0.0
 10
-79.908128526475693
 20
15.321631537543402
 30
0.0
 10
-79.908128526475693
 20
15.321631537543402
 30
0.0
 10
-79.908128526475693
 20
15.321631537543402
 30
0.0
 10
-80.063157823350693
 20
14.201975504557291
 30
0.0
 10
-80.837787543402769
 20
14.201975504557291
 30
0.0
 10
-81.625508626302079
 20
14.201975504557291
 30
0.0
 10
-82.397210015190964
 20
15.802911376953123
 30
0.0
 10
-82.397210015190964
 20
15.802911376953123
 30
0.0
  0
SPLINE
  5
51
100
AcDbEntity
  8
LIVELLO_1
 62
     7
100
AcDbSpline
210
0.0
220
0.0
230
1.0
 70
     8
 71
     3
 72
    17
 73
    13
 74
     0
 42
0.00000001
 43
0.00000001
 40
0.0
 40
0.0
 40
0.0
 40
0.0
 40
1.0
 40
1.0
 40
1.0
 40
2.0
 40
2.0
 40
2.0
 40
3.0
 40
3.0
 40
3.0
 40
4.0
 40
4.0
 40
4.0
 40
4.0
 10
-62.601002332899299
 20
42.494477674696178
 30
0.0
 10
-62.601002332899299
 20
42.494477674696178
 30
0.0
 10
-64.847721354166666
 20
34.137020534939232
 30
0.0
 10
-65.809419759114576
 20
32.851999918619789
 30
0.0
 10
-65.809419759114576
 20
32.851999918619789
 30
0.0
 10
-71.041141764322916
 20
28.738555908203121
 30
0.0
 10
-71.041141764322916
 20
28.738555908203121
 30
0.0
 10
-71.041141764322916
 20
28.738555908203121
 30
0.0
 10
-73.946735297309019
 20
23.11064792209201
 30
0.0
 10
-76.673528374565961
 20
21.021886528862844
 30
0.0
 10
-76.673528374565961
 20
21.021886528862844
 30
0.0
 10
-79.409106445312489
 20
19.411993408203124
 30
0.0
 10
-79.409106445312489
 20
19.411993408203124
 30
0.0
  0
LINE
  5
50
100
AcDbEntity
  8
LIVELLO_1
 62
     7
100
AcDbLine
 10
-30.465668
 20
62.978154
 30
0.0
 11
-30.465668
 21
79.127901
 31
0.0
  0
LINE
  5
4F
100
AcDbEntity
  8
LIVELLO_1
 62
     7
100
AcDbLine
 10
-30.287385
 20
63.326626
 30
0.0
 11
-30.287385
 21
79.478956
 31
0.0
  0
LINE
  5
4E
100
AcDbEntity
  8
LIVELLO_1
 62
     7
100
AcDbLine
 10
-72.29464
 20
71.408303
 30
0.0
 11
-30.258274
 21
71.402446
 31
0.0
  0
LINE
  5
4D
100
AcDbEntity
  8
LIVELLO_1
 62
     7
100
AcDbLine
 10
-90.245482
 20
71.408303
 30
0.0
 11
-53.915572
 21
71.402446
 31
0.0
  0
LINE
  5
4C
100
AcDbEntity
  8
LIVELLO_1
 62
     7
100
AcDbLine
 10
-90.245482
 20
63.326626
 30
0.0
 11
-90.245482
 21
79.478956
 31
0.0
  0
MTEXT
  5
4B
100
AcDbEntity
  8
LIVELLO_1
 62
     7
100
AcDbMText
 10
-75.459132
 20
92.211947
 30
0.0
 40
15.900067
 41
0.0
 71
     1
 72
     2
  1
\fArial Narrow|b0|i0;\H15.9001;\C7;\U+0032\U+0032\U+0035
  7
STD
210
0.0
220
0.0
230
1.0
 73
     1
 44
1.0
  0
LINE
  5
4A
100
AcDbEntity
  8
LIVELLO_1
 62
     7
100
AcDbLine
 10
-13.786928
 20
58.290068
 30
0.0
 11
-13.79244
 21
4.13265
 31
0.0
  0
LINE
  5
49
100
AcDbEntity
  8
LIVELLO_1
 62
     7
100
AcDbLine
 10
-21.860164
 20
58.290068
 30
0.0
 11
-5.714897
 21
58.290068
 31
0.0
  0
MTEXT
  5
48
100
AcDbEntity
  8
LIVELLO_1
 62
     7
100
AcDbMText
 10
-28.523151
 20
-0.229612
 30
0.0
 40
15.900067
 41
0.0
 71
     1
 72
     2
  1
\fArial Narrow|b0|i0;\H15.9001;\C7;\U+0035\U+0035\U+0030
  7
STD
210
0.0
220
0.0
230
1.0
 73
     1
 44
1.0
  0
MTEXT
  5
47
100
AcDbEntity
  8
LIVELLO_1
 62
     7
100
AcDbMText
 10
45.568278
 20
7.932223
 30
0.0
 40
14.871421
 41
0.0
 71
     1
 72
     2
  1
\fArial Narrow|b0|i0;\H14.8714;\C7;\U+0031\U+0037\U+0030
  7
STD
210
0.0
220
0.0
230
1.0
 73
     1
 44
1.0
  0
LINE
  5
46
100
AcDbEntity
  8
LIVELLO_1
 62
     7
100
AcDbLine
 10
90.358653
 20
-3.445182
 30
0.0
 11
72.802447
 21
-3.445182
 31
0.0
  0
LINE
  5
45
100
AcDbEntity
  8
LIVELLO_1
 62
     7
100
AcDbLine
 10
90.358653
 20
0.335122
 30
0.0
 11
90.358653
 21
-7.230308
 31
0.0
  0
LINE
  5
44
100
AcDbEntity
  8
LIVELLO_1
 62
     7
100
AcDbLine
 10
29.325686
 20
-3.445182
 30
0.0
 11
46.881893
 21
-3.445182
 31
0.0
  0
LINE
  5
43
100
AcDbEntity
  8
LIVELLO_1
 62
     7
100
AcDbLine
 10
29.325686
 20
-7.230308
 30
0.0
 11
29.325686
 21
0.335122
 31
0.0
  0
MTEXT
  5
42
100
AcDbEntity
  8
LIVELLO_1
 62
     7
100
AcDbMText
 10
46.614553
 20
-74.309332
 30
0.0
 40
14.401963
 41
0.0
 71
     1
 72
     2
  1
\fArial Narrow|b0|i0;\H14.4020;\C7;\U+0031\U+0035\U+0036
  7
STD
210
0.0
220
0.0
230
1.0
 73
     1
 44
1.0
  0
SPLINE
  5
41
100
AcDbEntity
  8
LIVELLO_1
 62
     7
100
AcDbSpline
210
0.0
220
0.0
230
1.0
 70
     8
 71
     3
 72
    41
 73
    37
 74
     0
 42
0.00000001
 43
0.00000001
 40
0.0
 40
0.0
 40
0.0
 40
0.0
 40
1.0
 40
1.0
 40
1.0
 40
2.0
 40
2.0
 40
2.0
 40
3.0
 40
3.0
 40
3.0
 40
4.0
 40
4.0
 40
4.0
 40
5.0
 40
5.0
 40
5.0
 40
6.0
 40
6.0
 40
6.0
 40
7.0
 40
7.0
 40
7.0
 40
8.0
 40
8.0
 40
8.0
 40
9.0
 40
9.0
 40
9.0
 40
10.0
 40
10.0
 40
10.0
 40
11.0
 40
11.0
 40
11.0
 40
12.0
 40
12.0
 40
12.0
 40
12.0
 10
30.896305338541662
 20
-38.789794243706595
 30
0.0
 10
31.959806315104164
 20
-23.728181287977428
 30
0.0
 10
44.51063368055555
 20
-11.842946370442707
 30
0.0
 10
59.842342122395827
 20
-11.842946370442707
 30
0.0
 10
75.170605468749997
 20
-11.842946370442707
 30
0.0
 10
87.720399305555546
 20
-23.728181287977428
 30
0.0
 10
88.784933810763874
 20
-38.789794243706595
 30
0.0
 10
88.784933810763874
 20
-38.789794243706595
 30
0.0
 10
87.370722113715274
 20
-38.789794243706595
 30
0.0
 10
87.370722113715274
 20
-38.789794243706595
 30
0.0
 10
86.229361979166654
 20
-38.789794243706595
 30
0.0
 10
85.302286783854157
 20
-39.715146891276035
 30
0.0
 10
85.302286783854157
 20
-40.861330159505208
 30
0.0
 10
85.302286783854157
 20
-42.004412841796871
 30
0.0
 10
86.229361979166654
 20
-42.929420979817706
 30
0.0
 10
87.370722113715274
 20
-42.929420979817706
 30
0.0
 10
87.370722113715274
 20
-42.929420979817706
 30
0.0
 10
88.784933810763874
 20
-42.929420979817706
 30
0.0
 10
88.784933810763874
 20
-42.929420979817706
 30
0.0
 10
87.720399305555546
 20
-57.988277859157982
 30
0.0
 10
75.170605468749997
 20
-69.873512776692706
 30
0.0
 10
59.842342122395827
 20
-69.873512776692706
 30
0.0
 10
44.51063368055555
 20
-69.873512776692706
 30
0.0
 10
31.959806315104164
 20
-57.988277859157982
 30
0.0
 10
30.896305338541662
 20
-42.929420979817706
 30
0.0
 10
30.896305338541662
 20
-42.929420979817706
 30
0.0
 10
32.310861545138884
 20
-42.929420979817706
 30
0.0
 10
32.310861545138884
 20
-42.929420979817706
 30
0.0
 10
33.455322265625
 20
-42.929420979817706
 30
0.0
 10
34.382052951388886
 20
-42.004412841796871
 30
0.0
 10
34.382052951388886
 20
-40.861330159505208
 30
0.0
 10
34.382052951388886
 20
-39.715146891276035
 30
0.0
 10
33.455322265625
 20
-38.789794243706595
 30
0.0
 10
32.310861545138884
 20
-38.789794243706595
 30
0.0
 10
32.310861545138884
 20
-38.789794243706595
 30
0.0
 10
30.896305338541662
 20
-38.789794243706595
 30
0.0
 10
30.896305338541662
 20
-38.789794243706595
 30
0.0
  0
SPLINE
  5
40
100
AcDbEntity
  8
LIVELLO_1
 62
     7
100
AcDbSpline
210
0.0
220
0.0
230
1.0
 70
     8
 71
     3
 72
    17
 73
    13
 74
     0
 42
0.00000001
 43
0.00000001
 40
0.0
 40
0.0
 40
0.0
 40
0.0
 40
1.0
 40
1.0
 40
1.0
 40
2.0
 40
2.0
 40
2.0
 40
3.0
 40
3.0
 40
3.0
 40
4.0
 40
4.0
 40
4.0
 40
4.0
 10
88.748760308159717
 20
-38.024294026692708
 30
0.0
 10
88.748760308159717
 20
-38.024294026692708
 30
0.0
 10
87.370722113715274
 20
-38.024294026692708
 30
0.0
 10
87.370722113715274
 20
-38.024294026692708
 30
0.0
 10
85.805959743923609
 20
-38.024294026692708
 30
0.0
 10
84.536786566840277
 20
-39.291744656032982
 30
0.0
 10
84.536786566840277
 20
-40.861330159505208
 30
0.0
 10
84.536786566840277
 20
-42.424714491102428
 30
0.0
 10
85.805959743923609
 20
-43.692854139539925
 30
0.0
 10
87.370722113715274
 20
-43.692854139539925
 30
0.0
 10
87.370722113715274
 20
-43.692854139539925
 30
0.0
 10
88.748760308159717
 20
-43.692854139539925
 30
0.0
 10
88.748760308159717
 20
-43.692854139539925
 30
0.0
  0
CIRCLE
  5
3F
100
AcDbEntity
  8
LIVELLO_1
 62
     7
100
AcDbCircle
 10
87.372272
 20
-40.86133
 30
0.0
 40
1.225593
  0
LINE
  5
3E
100
AcDbEntity
  8
LIVELLO_1
 62
     7
100
AcDbLine
 10
65.868848
 20
-41.281632
 30
0.0
 11
62.605653
 21
-41.281632
 31
0.0
  0
LINE
  5
3D
100
AcDbEntity
  8
LIVELLO_1
 62
     7
100
AcDbLine
 10
65.868848
 20
-40.437928
 30
0.0
 11
62.605653
 21
-40.437928
 31
0.0
  0
LINE
  5
3C
100
AcDbEntity
  8
LIVELLO_1
 62
     7
100
AcDbLine
 10
59.419973
 20
-46.886458
 30
0.0
 11
59.419973
 21
-43.622919
 31
0.0
  0
LINE
  5
3B
100
AcDbEntity
  8
LIVELLO_1
 62
     7
100
AcDbLine
 10
60.264366
 20
-46.886458
 30
0.0
 11
60.264366
 21
-43.622919
 31
0.0
  0
LINE
  5
3A
100
AcDbEntity
  8
LIVELLO_1
 62
     7
100
AcDbLine
 10
53.812736
 20
-40.437928
 30
0.0
 11
57.079031
 21
-40.437928
 31
0.0
  0
LINE
  5
39
100
AcDbEntity
  8
LIVELLO_1
 62
     7
100
AcDbLine
 10
53.812736
 20
-41.281632
 30
0.0
 11
57.079031
 21
-41.281632
 31
0.0
  0
LINE
  5
38
100
AcDbEntity
  8
LIVELLO_1
 62
     7
100
AcDbLine
 10
60.264366
 20
-34.830001
 30
0.0
 11
60.264366
 21
-38.096641
 31
0.0
  0
LINE
  5
37
100
AcDbEntity
  8
LIVELLO_1
 62
     7
100
AcDbLine
 10
59.419973
 20
-34.830001
 30
0.0
 11
59.419973
 21
-38.096641
 31
0.0
  0
CIRCLE
  5
36
100
AcDbEntity
  8
LIVELLO_1
 62
     7
100
AcDbCircle
 10
59.84217
 20
-40.86133
 30
0.0
 40
1.559422
  0
CIRCLE
  5
35
100
AcDbEntity
  8
LIVELLO_1
 62
     7
100
AcDbCircle
 10
59.84217
 20
-40.86133
 30
0.0
 40
2.741435
  0
SPLINE
  5
34
100
AcDbEntity
  8
LIVELLO_1
 62
     7
100
AcDbSpline
210
0.0
220
0.0
230
1.0
 70
     8
 71
     3
 72
    17
 73
    13
 74
     0
 42
0.00000001
 43
0.00000001
 40
0.0
 40
0.0
 40
0.0
 40
0.0
 40
1.0
 40
1.0
 40
1.0
 40
2.0
 40
2.0
 40
2.0
 40
3.0
 40
3.0
 40
3.0
 40
4.0
 40
4.0
 40
4.0
 40
4.0
 10
30.932823350694441
 20
-38.024294026692708
 30
0.0
 10
30.932823350694441
 20
-38.024294026692708
 30
0.0
 10
32.310861545138884
 20
-38.024294026692708
 30
0.0
 10
32.310861545138884
 20
-38.024294026692708
 30
0.0
 10
33.875968424479161
 20
-38.024294026692708
 30
0.0
 10
35.1451416015625
 20
-39.291744656032982
 30
0.0
 10
35.1451416015625
 20
-40.861330159505208
 30
0.0
 10
35.1451416015625
 20
-42.424714491102428
 30
0.0
 10
33.875968424479161
 20
-43.692854139539925
 30
0.0
 10
32.310861545138884
 20
-43.692854139539925
 30
0.0
 10
32.310861545138884
 20
-43.692854139539925
 30
0.0
 10
30.932823350694441
 20
-43.692854139539925
 30
0.0
 10
30.932823350694441
 20
-43.692854139539925
 30
0.0
  0
CIRCLE
  5
33
100
AcDbEntity
  8
LIVELLO_1
 62
     7
100
AcDbCircle
 10
32.310689
 20
-40.86133
 30
0.0
 40
1.224215
  0
CIRCLE
  5
32
100
AcDbEntity
  8
LIVELLO_1
 62
     7
100
AcDbCircle
 10
59.84062
 20
-40.86133
 30
0.0
 40
6.067158
  0
CIRCLE
  5
31
100
AcDbEntity
  8
LIVELLO_1
 62
     7
100
AcDbCircle
 10
59.840792
 20
-40.86133
 30
0.0
 40
13.579361
  0
CIRCLE
  5
30
100
AcDbEntity
  8
LIVELLO_1
 62
     7
100
AcDbCircle
 10
59.84217
 20
-40.86133
 30
0.0
 40
30.516484
  0
LINE
  5
2F
100
AcDbEntity
  8
LIVELLO_1
 62
     7
100
AcDbLine
 10
87.61429
 20
-83.754836
 30
0.0
 11
74.048193
 21
-83.754836
 31
0.0
  0
LINE
  5
2E
100
AcDbEntity
  8
LIVELLO_1
 62
     7
100
AcDbLine
 10
87.717299
 20
-88.033645
 30
0.0
 11
87.61429
 21
-45.018527
 31
0.0
  0
LINE
  5
2D
100
AcDbEntity
  8
LIVELLO_1
 62
     7
100
AcDbLine
 10
32.15411
 20
-83.136786
 30
0.0
 11
46.480539
 21
-83.133685
 31
0.0
  0
LINE
  5
2C
100
AcDbEntity
  8
LIVELLO_1
 62
     7
100
AcDbLine
 10
31.850941
 20
-88.033645
 30
0.0
 11
31.972898
 21
-45.018527
 31
0.0
  0
ENDBLK
  5
B8
100
AcDbEntity
  8
LIVELLO_1
100
AcDbBlockEnd
  0
ENDSEC
  0
SECTION
  2
ENTITIES
  0
INSERT
  5
2A
100
AcDbEntity
  8
LIVELLO_1
 62
     7
100
AcDbBlockReference
  2
AI9-BLK1
 10
90.667678
 20
96.301185
 30
0.0
  0
ENDSEC
  0
SECTION
  2
OBJECTS
  0
DICTIONARY
  5
19
100
AcDbDictionary
280
     0
281
     1
  3
ACAD_GROUP
350
1A
  3
ACAD_MLINESTYLE
350
1B
  3
ACAD_LAYOUT
350
1E
  3
ACAD_PLOTSETTINGS
350
22
  3
ACAD_PLOTSTYLENAME
350
1F
  3
ACAD_WIPEOUT_VARS
350
23
  0
DICTIONARY
  5
1A
102
{ACAD_REACTORS
330
19
102
}
100
AcDbDictionary
280
     0
281
     1
  0
DICTIONARY
  5
1B
102
{ACAD_REACTORS
330
19
102
}
100
AcDbDictionary
280
     0
281
     1
  3
Standard
350
1C
  0
MLINESTYLE
  5
1C
102
{ACAD_REACTORS
330
1B
102
}
100
AcDbMlineStyle
  2
Standard
 70
     0
  3

 62
     0
 51
90.0
 52
90.0
 71
     2
 49
0.5
 62
   256
  6
ByLayer
 49
-0.5
 62
   256
  6
ByLayer
  0
ACDBDICTIONARYWDFLT
  5
1F
102
{ACAD_REACTORS
330
19
102
}
100
AcDbDictionary
281
     1
  3
Normal
350
1D
100
AcDbDictionaryWithDefault
340
1D
  0
ACDBPLACEHOLDER
  5
1D
102
{ACAD_REACTORS
330
1F
102
}
  0
LAYOUT
  5
20
102
{ACAD_REACTORS
330
1E
102
}
100
AcDbPlotSettings
  1

  2

  4

  6

 40
0.0
 41
0.0
 42
0.0
 43
0.0
 44
0.0
 45
0.0
 46
0.0
 47
0.0
 48
0.0
 49
0.0
140
0.0
141
0.0
142
1.0
143
1.0
 70
  1024
 72
     0
 73
     0
 74
     0
  7

 75
     0
147
1.0
148
0.0
149
0.0
100
AcDbLayout
  1
Model
 70
     0
 71
     0
 10
0.0
 20
0.0
 11
0.0
 21
0.0
 12
0.0
 22
0.0
 32
0.0
 14
0.0
 24
0.0
 34
0.0
 15
0.0
 25
0.0
 35
0.0
146
0.0
 13
0.0
 23
0.0
 33
0.0
 16
0.0
 26
0.0
 36
0.0
 17
0.0
 27
0.0
 37
0.0
 76
     0
330
A
331
0
345
0
346
0
  0
LAYOUT
  5
21
102
{ACAD_REACTORS
330
1E
102
}
100
AcDbPlotSettings
  1

  2

  4

  6

 40
0.0
 41
0.0
 42
0.0
 43
0.0
 44
0.0
 45
0.0
 46
0.0
 47
0.0
 48
0.0
 49
0.0
140
0.0
141
0.0
142
1.0
143
1.0
 70
     0
 72
     0
 73
     0
 74
     0
  7

 75
     0
147
1.0
148
0.0
149
0.0
100
AcDbLayout
  1
Layout1
 70
     0
 71
     0
 10
0.0
 20
0.0
 11
0.0
 21
0.0
 12
0.0
 22
0.0
 32
0.0
 14
0.0
 24
0.0
 34
0.0
 15
0.0
 25
0.0
 35
0.0
146
0.0
 13
0.0
 23
0.0
 33
0.0
 16
0.0
 26
0.0
 36
0.0
 17
0.0
 27
0.0
 37
0.0
 76
     0
330
B
331
0
345
0
346
0
  0
DICTIONARY
  5
1E
102
{ACAD_REACTORS
330
19
102
}
100
AcDbDictionary
280
     0
281
     1
  3
Layout1
350
21
  3
Model
350
20
  0
DICTIONARY
  5
22
102
{ACAD_REACTORS
330
19
102
}
100
AcDbDictionary
280
     0
281
     1
  0
WIPEOUTVARIABLES
  5
23
100
AcDbWipeoutVariables
 70
     1
  0
ENDSEC
  0
EOF
