  0
SECTION
  2
HEADER
  9
$ACADVER
  1
AC1015
  9
$ACADMAINTVER
 70
     6
  9
$DWGCODEPAGE
  3
ANSI_932
  9
$INSBASE
 10
0.0
 20
0.0
 30
0.0
  9
$EXTMIN
 10
1.707562
 20
0.0
 30
1.000000E+20
  9
$EXTMAX
 10
60.067651
 20
193.450035
 30
-1.000000E+20
  9
$LIMMIN
 10
1.707562
 20
0.0
  9
$LIMMAX
 10
60.067651
 20
193.450035
  9
$ORTHOMODE
 70
     0
  9
$REGENMODE
 70
     1
  9
$FILLMODE
 70
     1
  9
$QTEXTMODE
 70
     0
  9
$MIRRTEXT
 70
     1
  9
$LTSCALE
 40
1.0
  9
$ATTMODE
 70
     1
  9
$TEXTSIZE
 40
0.2
  9
$TRACEWID
 40
0.05
  9
$TEXTSTYLE
  7
Standard
  9
$CLAYER
  8
0
  9
$CELTYPE
  6
Continuous
  9
$CECOLOR
 62
   256
  9
$CELTSCALE
 40
1.0
  9
$DISPSILH
 70
     0
  9
$DIMSCALE
 40
1.0
  9
$DIMASZ
 40
0.18
  9
$DIMEXO
 40
0.0625
  9
$DIMDLI
 40
0.38
  9
$DIMRND
 40
0.0
  9
$DIMDLE
 40
0.0
  9
$DIMEXE
 40
0.18
  9
$DIMTP
 40
0.0
  9
$DIMTM
 40
0.0
  9
$DIMTXT
 40
0.18
  9
$DIMCEN
 40
0.09
  9
$DIMTSZ
 40
0.0
  9
$DIMTOL
 70
     0
  9
$DIMLIM
 70
     0
  9
$DIMTIH
 70
     1
  9
$DIMTOH
 70
     1
  9
$DIMSE1
 70
     0
  9
$DIMSE2
 70
     0
  9
$DIMTAD
 70
     0
  9
$DIMZIN
 70
     0
  9
$DIMBLK
  1

  9
$DIMASO
 70
     1
  9
$DIMSHO
 70
     1
  9
$DIMPOST
  1

  9
$DIMAPOST
  1

  9
$DIMALT
 70
     0
  9
$DIMALTD
 70
     2
  9
$DIMALTF
 40
25.4
  9
$DIMLFAC
 40
1.0
  9
$DIMTOFL
 70
     0
  9
$DIMTVP
 40
0.0
  9
$DIMTIX
 70
     0
  9
$DIMSOXD
 70
     0
  9
$DIMSAH
 70
     0
  9
$DIMBLK1
  1

  9
$DIMBLK2
  1

  9
$DIMSTYLE
  2
Standard
  9
$DIMCLRD
 70
     0
  9
$DIMCLRE
 70
     0
  9
$DIMCLRT
 70
     0
  9
$DIMTFAC
 40
1.0
  9
$DIMGAP
 40
0.09
  9
$DIMJUST
 70
     0
  9
$DIMSD1
 70
     0
  9
$DIMSD2
 70
     0
  9
$DIMTOLJ
 70
     1
  9
$DIMTZIN
 70
     0
  9
$DIMALTZ
 70
     0
  9
$DIMALTTZ
 70
     0
  9
$DIMUPT
 70
     0
  9
$DIMDEC
 70
     4
  9
$DIMTDEC
 70
     4
  9
$DIMALTU
 70
     2
  9
$DIMALTTD
 70
     2
  9
$DIMTXSTY
  7
Standard
  9
$DIMAUNIT
 70
     0
  9
$DIMADEC
 70
     0
  9
$DIMALTRND
 40
0.0
  9
$DIMAZIN
 70
     0
  9
$DIMDSEP
 70
     0
  9
$DIMATFIT
 70
     3
  9
$DIMFRAC
 70
     0
  9
$DIMLDRBLK
  1

  9
$DIMLUNIT
 70
     2
  9
$DIMLWD
 70
     0
  9
$DIMLWE
 70
     0
  9
$DIMTMOVE
 70
     0
  9
$LUNITS
 70
     2
  9
$LUPREC
 70
     4
  9
$SKETCHINC
 40
0.1
  9
$FILLETRAD
 40
0.0
  9
$AUNITS
 70
     0
  9
$AUPREC
 70
     0
  9
$MENU
  1
acad
  9
$ELEVATION
 40
0.0
  9
$PELEVATION
 40
0.0
  9
$THICKNESS
 40
0.0
  9
$LIMCHECK
 70
     0
  9
$CHAMFERA
 40
0.0
  9
$CHAMFERB
 40
0.0
  9
$CHAMFERC
 40
0.0
  9
$CHAMFERD
 40
0.0
  9
$SKPOLY
 70
     0
  9
$TDCREATE
 40
0.000000000
  9
$TDUCREATE
 40
0.000000000
  9
$TDUPDATE
 40
0.000000000
  9
$TDUUPDATE
 40
0.000000000
  9
$TDINDWG
 40
0.0000000000
  9
$TDUSRTIMER
 40
0.0000000000
  9
$USRTIMER
 70
     1
  9
$ANGBASE
 50
0.0
  9
$ANGDIR
 70
     0
  9
$PDMODE
 70
     0
  9
$PDSIZE
 40
0.0
  9
$PLINEWID
 40
0.0
  9
$SPLFRAME
 70
     0
  9
$SPLINETYPE
 70
     6
  9
$SPLINESEGS
 70
     8
  9
$HANDSEED
  5
8E
  9
$SURFTAB1
 70
     6
  9
$SURFTAB2
 70
     6
  9
$SURFTYPE
 70
     6
  9
$SURFU
 70
     6
  9
$SURFV
 70
     6
  9
$UCSBASE
  2

  9
$UCSNAME
  2

  9
$UCSORG
 10
0.0
 20
0.0
 30
0.0
  9
$UCSXDIR
 10
1.0
 20
0.0
 30
0.0
  9
$UCSYDIR
 10
0.0
 20
1.0
 30
0.0
  9
$UCSORTHOREF
  2

  9
$UCSORTHOVIEW
 70
     0
  9
$UCSORGTOP
 10
0.0
 20
0.0
 30
0.0
  9
$UCSORGBOTTOM
 10
0.0
 20
0.0
 30
0.0
  9
$UCSORGLEFT
 10
0.0
 20
0.0
 30
0.0
  9
$UCSORGRIGHT
 10
0.0
 20
0.0
 30
0.0
  9
$UCSORGFRONT
 10
0.0
 20
0.0
 30
0.0
  9
$UCSORGBACK
 10
0.0
 20
0.0
 30
0.0
  9
$PUCSBASE
  2

  9
$PUCSNAME
  2

  9
$PUCSORG
 10
0.0
 20
0.0
 30
0.0
  9
$PUCSXDIR
 10
1.0
 20
0.0
 30
0.0
  9
$PUCSYDIR
 10
0.0
 20
1.0
 30
0.0
  9
$PUCSORTHOREF
  2

  9
$PUCSORTHOVIEW
 70
     0
  9
$PUCSORGTOP
 10
0.0
 20
0.0
 30
0.0
  9
$PUCSORGBOTTOM
 10
0.0
 20
0.0
 30
0.0
  9
$PUCSORGLEFT
 10
0.0
 20
0.0
 30
0.0
  9
$PUCSORGRIGHT
 10
0.0
 20
0.0
 30
0.0
  9
$PUCSORGFRONT
 10
0.0
 20
0.0
 30
0.0
  9
$PUCSORGBACK
 10
0.0
 20
0.0
 30
0.0
  9
$USERI1
 70
     0
  9
$USERI2
 70
     0
  9
$USERI3
 70
     0
  9
$USERI4
 70
     0
  9
$USERI5
 70
     0
  9
$USERR1
 40
0.0
  9
$USERR2
 40
0.0
  9
$USERR3
 40
0.0
  9
$USERR4
 40
0.0
  9
$USERR5
 40
0.0
  9
$WORLDVIEW
 70
     1
  9
$SHADEDGE
 70
     3
  9
$SHADEDIF
 70
    70
  9
$TILEMODE
 70
     1
  9
$MAXACTVP
 70
    16
  9
$PINSBASE
 10
0.0
 20
0.0
 30
0.0
  9
$PLIMCHECK
 70
     0
  9
$PEXTMIN
 10
1.000000E+20
 20
1.000000E+20
 30
1.000000E+20
  9
$PEXTMAX
 10
-1.000000E+20
 20
-1.000000E+20
 30
-1.000000E+20
  9
$PLIMMIN
 10
0.0
 20
0.0
  9
$PLIMMAX
 10
12.0
 20
9.0
  9
$UNITMODE
 70
     0
  9
$VISRETAIN
 70
     0
  9
$PLINEGEN
 70
     1
  9
$PSLTSCALE
 70
     0
  9
$TREEDEPTH
 70
  3020
  9
$CMLSTYLE
  2
Standard
  9
$CMLJUST
 70
     0
  9
$CMLSCALE
 40
1.0
  9
$PROXYGRAPHICS
 70
     0
  9
$MEASUREMENT
 70
     1
  9
$CELWEIGHT
370
     0
  9
$ENDCAPS
280
     0
  9
$JOINSTYLE
280
     0
  9
$LWDISPLAY
290
     0
  9
$INSUNITS
 70
     0
  9
$HYPERLINKBASE
  1

  9
$STYLESHEET
  1

  9
$XEDIT
290
     1
  9
$CEPSNTYPE
380
     0
  9
$PSTYLEMODE
290
     1
  9
$FINGERPRINTGUID
  2

  9
$VERSIONGUID
  2

  9
$EXTNAMES
290
     1
  9
$PSVPSCALE
 40
0.0
  0
ENDSEC
  0
SECTION
  2
CLASSES
  0
CLASS
  1
LWPOLYLINE
  2
AcDbPolyline
  3
AutoCAD 2000
 90
    32768
280
     0
281
     1
  0
CLASS
  1
IMAGE
  2
AcDbRasterImage
  3
ISM
 90
    32895
280
     0
281
     1
  0
CLASS
  1
OLE2FRAME
  2
AcDbOle2Frame
  3
AutoCAD 2000
 90
    32768
280
     0
281
     1
  0
CLASS
  1
HATCH
  2
AcDbHatch
  3
AutoCAD 2000
 90
        0
280
     0
281
     1
  0
CLASS
  1
DICTIONARYVAR
  2
AcDbDictionaryVar
  3
AutoCAD 2000
 90
    32768
280
     0
281
     0
  0
CLASS
  1
RASTERVARIABLES
  2
AcDbRasterVariables
  3
ISM
 90
    32768
280
     0
281
     0
  0
CLASS
  1
IMAGEDEF
  2
AcDbRasterImageDef
  3
ISM
 90
    32768
280
     0
281
     0
  0
CLASS
  1
IMAGEDEF_REACTOR
  2
AcDbRasterImageDefReactor
  3
ISM
 90
    32769
280
     0
281
     0
  0
CLASS
  1
IDBUFFER
  2
AcDbIdBuffer
  3
AutoCAD 2000
 90
    32768
280
     0
281
     0
  0
CLASS
  1
SPATIAL_FILTER
  2
AcDbSpatialFilter
  3
AutoCAD 2000
 90
    32768
280
     0
281
     0
  0
CLASS
  1
XRECORD
  2
AcDbXrecord
  3
AutoCAD 2000
 90
    32768
280
     0
281
     0
  0
CLASS
  1
SORTENTSTABLE
  2
AcDbSortentsTable
  3
AutoCAD 2000
 90
    32768
280
     0
281
     0
  0
CLASS
  1
LAYER_INDEX
  2
AcDbLayerIndex
  3
AutoCAD 2000
 90
    32768
280
     0
281
     0
  0
CLASS
  1
SPATIAL_INDEX
  2
AcDbSpatialIndex
  3
AutoCAD 2000
 90
    32768
280
     0
281
     0
  0
CLASS
  1
OBJECT_PTR
  2
CAseDLPNTableRecord
  3
"ASE-LPNTableRecord"
 90
    32769
280
     0
281
     0
  0
CLASS
  1
LAYOUT
  2
AcDbLayout
  3
AutoCAD 2000
 90
        0
280
     0
281
     0
  0
CLASS
  1
PLOTSETTINGS
  2
AcDbPlotSettings
  3
AutoCAD 2000
 90
    32768
280
     0
281
     0
  0
CLASS
  1
ACDBDICTIONARYWDFLT
  2
AcDbDictionaryWithDefault
  3
AutoCAD 2000
 90
        0
280
     0
281
     0
  0
CLASS
  1
ACDBPLACEHOLDER
  2
AcDbPlaceHolder
  3
AutoCAD 2000
 90
        0
280
     0
281
     0
  0
CLASS
  1
VBA_PROJECT
  2
AcDbVbaProject
  3
acadvba
 90
    32768
280
     0
281
     0
  0
CLASS
  1
WIPEOUT
  2
AcDbWipeout
  3
WipeOut|AutoCAD Express Tool|expresstools@autodesk.com
 90
    32895
280
     0
281
     1
  0
CLASS
  1
WIPEOUTVARIABLES
  2
AcDbWipeoutVariables
  3
WipeOut|AutoCAD Express Tool|expresstools@autodesk.com
 90
        0
280
     0
281
     0
  0
CLASS
  1
RTEXT
  2
RText
  3
RText|AutoCAD Express Tool|expresstools@autodesk.com
 90
    32768
280
     0
281
     1
  0
CLASS
  1
ARCALIGNEDTEXT
  2
AcDbArcAlignedText
  3
ATEXT|AutoCAD Express Tool|expresstools@autodesk.com
 90
    32768
280
     0
281
     1
  0
ENDSEC
  0
SECTION
  2
TABLES
  0
TABLE
  2
VPORT
  5
7
100
AcDbSymbolTable
 70
     1
  0
VPORT
  5
15
100
AcDbSymbolTableRecord
100
AcDbViewportTableRecord
  2
*ACTIVE
 70
     0
 10
0.0
 20
0.0
 11
1.0
 21
1.0
 12
6.591288
 22
4.579184
 13
0.0
 23
0.0
 14
1.0
 24
1.0
 15
0.0
 25
0.0
 16
0.0
 26
0.0
 36
1.0
 17
0.0
 27
0.0
 37
0.0
 40
9.158369
 41
0.688564
 42
50.0
 43
0.0
 44
0.0
 50
0.0
 51
0.0
 71
     0
 72
   100
 73
     1
 74
     1
 75
     0
 76
     0
 77
     0
 78
     0
281
     0
 65
     0
110
0.0
120
0.0
130
0.0
111
1.0
121
0.0
131
0.0
112
0.0
122
1.0
132
0.0
345
0
346
0
 79
     0
146
0.0
  0
ENDTAB
  0
TABLE
  2
LTYPE
  5
4
100
AcDbSymbolTable
 70
     3
  0
LTYPE
  5
11
100
AcDbSymbolTableRecord
100
AcDbLinetypeTableRecord
  2
ByBlock
 70
    64
  3

 72
    65
 73
     0
 40
0.0
  0
LTYPE
  5
12
100
AcDbSymbolTableRecord
100
AcDbLinetypeTableRecord
  2
ByLayer
 70
    64
  3

 72
    65
 73
     0
 40
0.0
  0
LTYPE
  5
13
100
AcDbSymbolTableRecord
100
AcDbLinetypeTableRecord
  2
Continuous
 70
    64
  3
Solid line
 72
    65
 73
     0
 40
0.0
  0
ENDTAB
  0
TABLE
  2
LAYER
  5
2
100
AcDbSymbolTable
 70
     2
  0
LAYER
  5
14
100
AcDbSymbolTableRecord
100
AcDbLayerTableRecord
  2
0
 70
     0
 62
     7
  6
Continuous
290
     1
370
    -3
390
1D
  0
LAYER
  5
28
100
AcDbSymbolTableRecord
100
AcDbLayerTableRecord
  2
LIVELLO_1
 70
     0
 62
   160
  6
Continuous
290
     1
370
    -3
390
1D
  0
ENDTAB
  0
TABLE
  2
STYLE
  5
3
100
AcDbSymbolTable
 70
     5
  0
STYLE
  5
17
100
AcDbSymbolTableRecord
100
AcDbTextStyleTableRecord
  2
Standard
 70
     0
 40
0.0
 41
1.0
 50
0.0
 71
     0
 42
0.0
  3
txt
  4

  0
STYLE
  5
24
100
AcDbSymbolTableRecord
100
AcDbTextStyleTableRecord
  2
STD
 70
     0
 40
0.0
 41
1.0
 50
0.0
 71
     0
 42
0.0
  3
txt
  4

  0
STYLE
  5
25
100
AcDbSymbolTableRecord
100
AcDbTextStyleTableRecord
  2
TATESTD
 70
     4
 40
0.0
 41
1.0
 50
0.0
 71
     0
 42
0.0
  3
txt
  4

  0
STYLE
  5
26
100
AcDbSymbolTableRecord
100
AcDbTextStyleTableRecord
  2
KANJISTD
 70
     0
 40
0.0
 41
1.0
 50
0.0
 71
     0
 42
0.0
  3
txt
  4
extfont
  0
STYLE
  5
27
100
AcDbSymbolTableRecord
100
AcDbTextStyleTableRecord
  2
KANJITATE
 70
     4
 40
0.0
 41
1.0
 50
0.0
 71
     0
 42
0.0
  3
txt
  4
extfont
  0
ENDTAB
  0
TABLE
  2
VIEW
  5
5
100
AcDbSymbolTable
 70
     0
  0
ENDTAB
  0
TABLE
  2
UCS
  5
6
100
AcDbSymbolTable
 70
     0
  0
ENDTAB
  0
TABLE
  2
APPID
  5
8
100
AcDbSymbolTable
 70
     1
  0
APPID
  5
16
100
AcDbSymbolTableRecord
100
AcDbRegAppTableRecord
  2
ACAD
 70
     0
  0
ENDTAB
  0
TABLE
  2
DIMSTYLE
  5
9
100
AcDbSymbolTable
 70
     1
100
AcDbDimStyleTable
 71
     0
  0
DIMSTYLE
105
18
100
AcDbSymbolTableRecord
100
AcDbDimStyleTableRecord
  2
Standard
 70
     0
  3

  4

 40
1.0
 41
0.18
 42
0.0625
 43
0.38
 44
0.18
 45
0.0
 46
0.0
 47
0.0
 48
0.0
 71
     0
 72
     0
 73
     1
 74
     1
 75
     0
 76
     0
 77
     0
 78
     0
 79
     0
140
0.18
141
0.09
142
0.0
143
25.4
144
1.0
145
0.0
146
1.0
147
0.09
148
0.0
170
     0
171
     2
172
     0
173
     0
174
     0
175
     0
176
     0
177
     0
178
     0
179
     0
271
     4
272
     4
273
     2
274
     2
275
     0
276
     0
277
     2
278
    46
279
     0
280
     0
281
     0
282
     0
283
     1
284
     0
285
     0
286
     0
288
     0
340
17
341
0
342
0
343
0
344
0
371
    -2
372
    -2
  0
ENDTAB
  0
TABLE
  2
BLOCK_RECORD
  5
1
100
AcDbSymbolTable
 70
     1
  0
BLOCK_RECORD
  5
A
100
AcDbSymbolTableRecord
100
AcDbBlockTableRecord
  2
*MODEL_SPACE
340
20
  0
BLOCK_RECORD
  5
B
100
AcDbSymbolTableRecord
100
AcDbBlockTableRecord
  2
*PAPER_SPACE
340
21
  0
BLOCK_RECORD
  5
29
100
AcDbSymbolTableRecord
100
AcDbBlockTableRecord
  2
AI9-BLK1
340
0
102
{BLKREFS
331
2A
102
}
  0
ENDTAB
  0
ENDSEC
  0
SECTION
  2
BLOCKS
  0
BLOCK
  5
D
100
AcDbEntity
  8
0
100
AcDbBlockBegin
  2
*MODEL_SPACE
 70
     0
 10
0.0
 20
0.0
 30
0.0
  3
*MODEL_SPACE
  1

  0
ENDBLK
  5
E
100
AcDbEntity
  8
0
100
AcDbBlockEnd
  0
BLOCK
  5
F
100
AcDbEntity
 67
     1
  8
0
100
AcDbBlockBegin
  2
*PAPER_SPACE
 70
     0
 10
0.0
 20
0.0
 30
0.0
  3
*PAPER_SPACE
  1

  0
ENDBLK
  5
10
100
AcDbEntity
 67
     1
  8
0
100
AcDbBlockEnd
  0
BLOCK
  5
2B
100
AcDbEntity
  8
LIVELLO_1
 62
     7
100
AcDbBlockBegin
  2
AI9-BLK1
 70
     0
 10
0.0
 20
0.0
 30
0.0
  3
AI9-BLK1
  1

  0
LINE
  5
8C
100
AcDbEntity
  8
LIVELLO_1
 62
     7
100
AcDbLine
 10
22.98783
 20
-51.936365
 30
0.0
 11
22.98628
 21
-83.83726
 31
0.0
  0
LINE
  5
8B
100
AcDbEntity
  8
LIVELLO_1
 62
     7
100
AcDbLine
 10
19.539634
 20
-83.824858
 30
0.0
 11
26.433615
 21
-83.824858
 31
0.0
  0
LINE
  5
8A
100
AcDbEntity
  8
LIVELLO_1
 62
     7
100
AcDbLine
 10
19.388739
 20
-83.747687
 30
0.0
 11
26.28582
 21
-83.747687
 31
0.0
  0
SPLINE
  5
89
100
AcDbEntity
  8
LIVELLO_1
 62
     7
100
AcDbSpline
210
0.0
220
0.0
230
1.0
 70
     8
 71
     3
 72
    26
 73
    22
 74
     0
 42
0.00000001
 43
0.00000001
 40
0.0
 40
0.0
 40
0.0
 40
0.0
 40
1.0
 40
1.0
 40
1.0
 40
2.0
 40
2.0
 40
2.0
 40
3.0
 40
3.0
 40
3.0
 40
4.0
 40
4.0
 40
4.0
 40
5.0
 40
5.0
 40
5.0
 40
6.0
 40
6.0
 40
6.0
 40
7.0
 40
7.0
 40
7.0
 40
7.0
 10
-1.166939968532986
 20
-60.962514919704859
 30
0.0
 10
-1.166939968532986
 20
-60.962514919704859
 30
0.0
 10
-1.166939968532986
 20
-60.962514919704859
 30
0.0
 10
-1.166939968532986
 20
-60.962514919704859
 30
0.0
 10
-0.8327657063802083
 20
-60.962514919704859
 30
0.0
 10
-0.5630147298177083
 20
-61.286698404947913
 30
0.0
 10
-0.5630147298177083
 20
-61.687018500434021
 30
0.0
 10
-0.5630147298177083
 20
-61.687018500434021
 30
0.0
 10
-0.5630147298177083
 20
-64.710778808593744
 30
0.0
 10
-0.5630147298177083
 20
-64.710778808593744
 30
0.0
 10
-0.5630147298177083
 20
-65.109376356336796
 30
0.0
 10
-0.8327657063802083
 20
-65.43355984157985
 30
0.0
 10
-1.166939968532986
 20
-65.43355984157985
 30
0.0
 10
-1.4988749186197916
 20
-65.43355984157985
 30
0.0
 10
-1.768798149956597
 20
-65.109376356336796
 30
0.0
 10
-1.768798149956597
 20
-64.710778808593744
 30
0.0
 10
-1.768798149956597
 20
-64.710778808593744
 30
0.0
 10
-1.768798149956597
 20
-61.687018500434021
 30
0.0
 10
-1.768798149956597
 20
-61.687018500434021
 30
0.0
 10
-1.768798149956597
 20
-61.286698404947913
 30
0.0
 10
-1.4988749186197916
 20
-60.962514919704859
 30
0.0
 10
-1.166939968532986
 20
-60.962514919704859
 30
0.0
  0
CIRCLE
  5
88
100
AcDbEntity
  8
LIVELLO_1
 62
     7
100
AcDbCircle
 10
-0.971086
 20
-6.78391
 30
0.0
 40
0.6196
  0
SPLINE
  5
87
100
AcDbEntity
  8
LIVELLO_1
 62
     7
100
AcDbSpline
210
0.0
220
0.0
230
1.0
 70
     8
 71
     3
 72
    20
 73
    16
 74
     0
 42
0.00000001
 43
0.00000001
 40
0.0
 40
0.0
 40
0.0
 40
0.0
 40
1.0
 40
1.0
 40
1.0
 40
2.0
 40
2.0
 40
2.0
 40
3.0
 40
3.0
 40
3.0
 40
4.0
 40
4.0
 40
4.0
 40
5.0
 40
5.0
 40
5.0
 40
5.0
 10
-2.4826219346788192
 20
-10.847744411892361
 30
0.0
 10
-1.7460605197482637
 20
-10.847744411892361
 30
0.0
 10
-1.4830274793836804
 20
-8.6573527018229157
 30
0.0
 10
-1.2678812662760415
 20
-7.3296129014756941
 30
0.0
 10
-1.1791700575086805
 20
-7.3750881618923607
 30
0.0
 10
-1.0784010145399305
 20
-7.4040269639756939
 30
0.0
 10
-0.9714307996961805
 20
-7.4040269639756939
 30
0.0
 10
-0.8358662923177083
 20
-7.4040269639756939
 30
0.0
 10
-0.710809326171875
 20
-7.3599297417534713
 30
0.0
 10
-0.6091790093315972
 20
-7.2872382269965268
 30
0.0
 10
-0.3826639811197916
 20
-8.6104994032118043
 30
0.0
 10
-0.2061028374565972
 20
-10.847744411892361
 30
0.0
 10
0.5388990614149305
 20
-10.847744411892361
 30
0.0
 10
0.5388990614149305
 20
-10.847744411892361
 30
0.0
 10
-2.4826219346788192
 20
-10.847744411892361
 30
0.0
 10
-2.4826219346788192
 20
-10.847744411892361
 30
0.0
  0
POLYLINE
  5
81
100
AcDbEntity
  8
LIVELLO_1
 62
     7
100
AcDb2dPolyline
 66
     1
 10
0.0
 20
0.0
 30
0.0
 70
     1
  0
VERTEX
  5
82
100
AcDbEntity
  8
LIVELLO_1
 62
     7
100
AcDbVertex
100
AcDb2dVertex
 10
-0.145469
 20
-12.463494
 30
0.0
  0
VERTEX
  5
83
100
AcDbEntity
  8
LIVELLO_1
 62
     7
100
AcDbVertex
100
AcDb2dVertex
 10
-1.798254
 20
-12.463494
 30
0.0
  0
VERTEX
  5
84
100
AcDbEntity
  8
LIVELLO_1
 62
     7
100
AcDbVertex
100
AcDb2dVertex
 10
-1.525402
 20
-10.847744
 30
0.0
  0
VERTEX
  5
85
100
AcDbEntity
  8
LIVELLO_1
 62
     7
100
AcDbVertex
100
AcDb2dVertex
 10
-0.417459
 20
-10.847744
 30
0.0
  0
SEQEND
  5
86
100
AcDbEntity
  8
LIVELLO_1
 62
     7
  0
POLYLINE
  5
7B
100
AcDbEntity
  8
LIVELLO_1
 62
     7
100
AcDb2dPolyline
 66
     1
 10
0.0
 20
0.0
 30
0.0
 70
     1
  0
VERTEX
  5
7C
100
AcDbEntity
  8
LIVELLO_1
 62
     7
100
AcDbVertex
100
AcDb2dVertex
 10
-12.055681
 20
-31.844568
 30
0.0
  0
VERTEX
  5
7D
100
AcDbEntity
  8
LIVELLO_1
 62
     7
100
AcDbVertex
100
AcDb2dVertex
 10
-8.046796
 20
-54.190146
 30
0.0
  0
VERTEX
  5
7E
100
AcDbEntity
  8
LIVELLO_1
 62
     7
100
AcDbVertex
100
AcDb2dVertex
 10
5.896884
 20
-54.190146
 30
0.0
  0
VERTEX
  5
7F
100
AcDbEntity
  8
LIVELLO_1
 62
     7
100
AcDbVertex
100
AcDb2dVertex
 10
9.90887
 20
-31.844568
 30
0.0
  0
SEQEND
  5
80
100
AcDbEntity
  8
LIVELLO_1
 62
     7
  0
POLYLINE
  5
75
100
AcDbEntity
  8
LIVELLO_1
 62
     7
100
AcDb2dPolyline
 66
     1
 10
0.0
 20
0.0
 30
0.0
 70
     1
  0
VERTEX
  5
76
100
AcDbEntity
  8
LIVELLO_1
 62
     7
100
AcDbVertex
100
AcDb2dVertex
 10
-11.236437
 20
-32.293119
 30
0.0
  0
VERTEX
  5
77
100
AcDbEntity
  8
LIVELLO_1
 62
     7
100
AcDbVertex
100
AcDb2dVertex
 10
-7.454067
 20
-53.338519
 30
0.0
  0
VERTEX
  5
78
100
AcDbEntity
  8
LIVELLO_1
 62
     7
100
AcDbVertex
100
AcDb2dVertex
 10
5.305016
 20
-53.338519
 30
0.0
  0
VERTEX
  5
79
100
AcDbEntity
  8
LIVELLO_1
 62
     7
100
AcDbVertex
100
AcDb2dVertex
 10
9.088937
 20
-32.293119
 30
0.0
  0
SEQEND
  5
7A
100
AcDbEntity
  8
LIVELLO_1
 62
     7
  0
LINE
  5
74
100
AcDbEntity
  8
LIVELLO_1
 62
     7
100
AcDbLine
 10
-8.413526
 20
-55.222297
 30
0.0
 11
6.262925
 21
-55.222297
 31
0.0
  0
LINE
  5
73
100
AcDbEntity
  8
LIVELLO_1
 62
     7
100
AcDbLine
 10
-7.820108
 20
-55.583343
 30
0.0
 11
5.670197
 21
-55.583343
 31
0.0
  0
LINE
  5
72
100
AcDbEntity
  8
LIVELLO_1
 62
     7
100
AcDbLine
 10
-5.770104
 20
-57.107798
 30
0.0
 11
3.619503
 21
-57.107798
 31
0.0
  0
LINE
  5
71
100
AcDbEntity
  8
LIVELLO_1
 62
     7
100
AcDbLine
 10
-5.451777
 20
-57.465743
 30
0.0
 11
3.299799
 21
-57.465743
 31
0.0
  0
LINE
  5
70
100
AcDbEntity
  8
LIVELLO_1
 62
     7
100
AcDbLine
 10
-3.674797
 20
-58.587122
 30
0.0
 11
1.524885
 21
-58.587122
 31
0.0
  0
LINE
  5
6F
100
AcDbEntity
  8
LIVELLO_1
 62
     7
100
AcDbLine
 10
-3.125304
 20
-58.993298
 30
0.0
 11
0.975393
 21
-58.993298
 31
0.0
  0
LINE
  5
6E
100
AcDbEntity
  8
LIVELLO_1
 62
     7
100
AcDbLine
 10
-2.625938
 20
-59.396719
 30
0.0
 11
0.475165
 21
-59.396719
 31
0.0
  0
SPLINE
  5
6D
100
AcDbEntity
  8
LIVELLO_1
 62
     7
100
AcDbSpline
210
0.0
220
0.0
230
1.0
 70
     8
 71
     3
 72
    98
 73
    94
 74
     0
 42
0.00000001
 43
0.00000001
 40
0.0
 40
0.0
 40
0.0
 40
0.0
 40
1.0
 40
1.0
 40
1.0
 40
2.0
 40
2.0
 40
2.0
 40
3.0
 40
3.0
 40
3.0
 40
4.0
 40
4.0
 40
4.0
 40
5.0
 40
5.0
 40
5.0
 40
6.0
 40
6.0
 40
6.0
 40
7.0
 40
7.0
 40
7.0
 40
8.0
 40
8.0
 40
8.0
 40
9.0
 40
9.0
 40
9.0
 40
10.0
 40
10.0
 40
10.0
 40
11.0
 40
11.0
 40
11.0
 40
12.0
 40
12.0
 40
12.0
 40
13.0
 40
13.0
 40
13.0
 40
14.0
 40
14.0
 40
14.0
 40
15.0
 40
15.0
 40
15.0
 40
16.0
 40
16.0
 40
16.0
 40
17.0
 40
17.0
 40
17.0
 40
18.0
 40
18.0
 40
18.0
 40
19.0
 40
19.0
 40
19.0
 40
20.0
 40
20.0
 40
20.0
 40
21.0
 40
21.0
 40
21.0
 40
22.0
 40
22.0
 40
22.0
 40
23.0
 40
23.0
 40
23.0
 40
24.0
 40
24.0
 40
24.0
 40
25.0
 40
25.0
 40
25.0
 40
26.0
 40
26.0
 40
26.0
 40
27.0
 40
27.0
 40
27.0
 40
28.0
 40
28.0
 40
28.0
 40
29.0
 40
29.0
 40
29.0
 40
30.0
 40
30.0
 40
30.0
 40
31.0
 40
31.0
 40
31.0
 40
31.0
 10
-13.973048909505208
 20
-30.85616997612847
 30
0.0
 10
-13.973048909505208
 20
-30.85616997612847
 30
0.0
 10
-13.973048909505208
 20
-32.024746365017357
 30
0.0
 10
-13.973048909505208
 20
-32.024746365017357
 30
0.0
 10
-13.973048909505208
 20
-32.024746365017357
 30
0.0
 10
-13.423556179470484
 20
-32.024746365017357
 30
0.0
 10
-13.423556179470484
 20
-32.024746365017357
 30
0.0
 10
-13.423556179470484
 20
-32.024746365017357
 30
0.0
 10
-9.2327697753906239
 20
-55.222296820746521
 30
0.0
 10
-9.2327697753906239
 20
-55.222296820746521
 30
0.0
 10
-9.2327697753906239
 20
-55.222296820746521
 30
0.0
 10
-8.4135260687934021
 20
-55.222296820746521
 30
0.0
 10
-8.4135260687934021
 20
-55.222296820746521
 30
0.0
 10
-8.4135260687934021
 20
-55.222296820746521
 30
0.0
 10
-8.4135260687934021
 20
-55.58334282769097
 30
0.0
 10
-8.4135260687934021
 20
-55.58334282769097
 30
0.0
 10
-8.4135260687934021
 20
-55.58334282769097
 30
0.0
 10
-7.8201083713107629
 20
-55.58334282769097
 30
0.0
 10
-7.8201083713107629
 20
-55.58334282769097
 30
0.0
 10
-7.8201083713107629
 20
-55.58334282769097
 30
0.0
 10
-7.8201083713107629
 20
-57.107797580295134
 30
0.0
 10
-7.8201083713107629
 20
-57.107797580295134
 30
0.0
 10
-7.8201083713107629
 20
-57.107797580295134
 30
0.0
 10
-5.7701043023003464
 20
-57.107797580295134
 30
0.0
 10
-5.7701043023003464
 20
-57.107797580295134
 30
0.0
 10
-5.7701043023003464
 20
-57.107797580295134
 30
0.0
 10
-5.7701043023003464
 20
-57.46574300130208
 30
0.0
 10
-5.7701043023003464
 20
-57.46574300130208
 30
0.0
 10
-5.7701043023003464
 20
-57.46574300130208
 30
0.0
 10
-5.4517774793836802
 20
-57.46574300130208
 30
0.0
 10
-5.4517774793836802
 20
-57.46574300130208
 30
0.0
 10
-5.4517774793836802
 20
-57.46574300130208
 30
0.0
 10
-5.3572096082899296
 20
-58.587121582031244
 30
0.0
 10
-4.3560648600260414
 20
-58.993298339843747
 30
0.0
 10
-4.3560648600260414
 20
-58.993298339843747
 30
0.0
 10
-3.1253044976128468
 20
-58.993298339843747
 30
0.0
 10
-3.1253044976128468
 20
-58.993298339843747
 30
0.0
 10
-3.1253044976128468
 20
-58.993298339843747
 30
0.0
 10
-3.1253044976128468
 20
-59.396719021267359
 30
0.0
 10
-3.1253044976128468
 20
-59.396719021267359
 30
0.0
 10
-3.1253044976128468
 20
-59.396719021267359
 30
0.0
 10
-2.6259379069010413
 20
-59.396719021267359
 30
0.0
 10
-2.6259379069010413
 20
-59.396719021267359
 30
0.0
 10
-2.6259379069010413
 20
-59.396719021267359
 30
0.0
 10
-2.3508470323350692
 20
-61.012468804253466
 30
0.0
 10
-2.3508470323350692
 20
-61.012468804253466
 30
0.0
 10
-2.3508470323350692
 20
-61.012468804253466
 30
0.0
 10
0.203863525390625
 20
-61.012468804253466
 30
0.0
 10
0.203863525390625
 20
-61.012468804253466
 30
0.0
 10
0.203863525390625
 20
-61.012468804253466
 30
0.0
 10
0.475164794921875
 20
-59.396719021267359
 30
0.0
 10
0.475164794921875
 20
-59.396719021267359
 30
0.0
 10
0.475164794921875
 20
-59.396719021267359
 30
0.0
 10
0.9753926595052083
 20
-59.396719021267359
 30
0.0
 10
0.9753926595052083
 20
-59.396719021267359
 30
0.0
 10
0.9753926595052083
 20
-59.396719021267359
 30
0.0
 10
0.9753926595052083
 20
-58.993298339843747
 30
0.0
 10
0.9753926595052083
 20
-58.993298339843747
 30
0.0
 10
0.9753926595052083
 20
-58.993298339843747
 30
0.0
 10
2.2061530219184027
 20
-58.993298339843747
 30
0.0
 10
2.2061530219184027
 20
-58.993298339843747
 30
0.0
 10
3.2102261013454858
 20
-58.587121582031244
 30
0.0
 10
3.2997985839843746
 20
-57.46574300130208
 30
0.0
 10
3.2997985839843746
 20
-57.46574300130208
 30
0.0
 10
3.2997985839843746
 20
-57.46574300130208
 30
0.0
 10
3.6195034450954857
 20
-57.46574300130208
 30
0.0
 10
3.6195034450954857
 20
-57.46574300130208
 30
0.0
 10
3.6195034450954857
 20
-57.46574300130208
 30
0.0
 10
3.6195034450954857
 20
-57.107797580295134
 30
0.0
 10
3.6195034450954857
 20
-57.107797580295134
 30
0.0
 10
3.6195034450954857
 20
-57.107797580295134
 30
0.0
 10
5.6701965332031241
 20
-57.107797580295134
 30
0.0
 10
5.6701965332031241
 20
-57.107797580295134
 30
0.0
 10
5.6701965332031241
 20
-57.107797580295134
 30
0.0
 10
5.6701965332031241
 20
-55.58334282769097
 30
0.0
 10
5.6701965332031241
 20
-55.58334282769097
 30
0.0
 10
5.6701965332031241
 20
-55.58334282769097
 30
0.0
 10
6.2629252115885414
 20
-55.58334282769097
 30
0.0
 10
6.2629252115885414
 20
-55.58334282769097
 30
0.0
 10
6.2629252115885414
 20
-55.58334282769097
 30
0.0
 10
6.2629252115885414
 20
-55.222296820746521
 30
0.0
 10
6.2629252115885414
 20
-55.222296820746521
 30
0.0
 10
6.2629252115885414
 20
-55.222296820746521
 30
0.0
 10
7.0821689181857632
 20
-55.222296820746521
 30
0.0
 10
7.0821689181857632
 20
-55.222296820746521
 30
0.0
 10
7.0821689181857632
 20
-55.222296820746521
 30
0.0
 10
11.272955322265624
 20
-32.024746365017357
 30
0.0
 10
11.272955322265624
 20
-32.024746365017357
 30
0.0
 10
11.272955322265624
 20
-32.024746365017357
 30
0.0
 10
11.822448052300347
 20
-32.024746365017357
 30
0.0
 10
11.822448052300347
 20
-32.024746365017357
 30
0.0
 10
11.822448052300347
 20
-32.024746365017357
 30
0.0
 10
11.822448052300347
 20
-30.85616997612847
 30
0.0
 10
11.822448052300347
 20
-30.85616997612847
 30
0.0
  0
SPLINE
  5
6C
100
AcDbEntity
  8
LIVELLO_1
 62
     7
100
AcDbSpline
210
0.0
220
0.0
230
1.0
 70
     8
 71
     3
 72
    53
 73
    49
 74
     0
 42
0.00000001
 43
0.00000001
 40
0.0
 40
0.0
 40
0.0
 40
0.0
 40
1.0
 40
1.0
 40
1.0
 40
2.0
 40
2.0
 40
2.0
 40
3.0
 40
3.0
 40
3.0
 40
4.0
 40
4.0
 40
4.0
 40
5.0
 40
5.0
 40
5.0
 40
6.0
 40
6.0
 40
6.0
 40
7.0
 40
7.0
 40
7.0
 40
8.0
 40
8.0
 40
8.0
 40
9.0
 40
9.0
 40
9.0
 40
10.0
 40
10.0
 40
10.0
 40
11.0
 40
11.0
 40
11.0
 40
12.0
 40
12.0
 40
12.0
 40
13.0
 40
13.0
 40
13.0
 40
14.0
 40
14.0
 40
14.0
 40
15.0
 40
15.0
 40
15.0
 40
16.0
 40
16.0
 40
16.0
 40
16.0
 10
-0.9714307996961805
 20
-30.784856499565969
 30
0.0
 10
-0.9714307996961805
 20
-30.784856499565969
 30
0.0
 10
-17.413665771484375
 20
-30.784856499565969
 30
0.0
 10
-17.413665771484375
 20
-30.784856499565969
 30
0.0
 10
-17.413665771484375
 20
-30.784856499565969
 30
0.0
 10
-16.516390652126734
 20
-28.712976074218748
 30
0.0
 10
-14.55819837782118
 20
-28.712976074218748
 30
0.0
 10
-13.943421088324651
 20
-28.712976074218748
 30
0.0
 10
-9.8647725423177075
 20
-27.370077853732635
 30
0.0
 10
-9.8647725423177075
 20
-19.934183756510414
 30
0.0
 10
-9.8647725423177075
 20
-19.934183756510414
 30
0.0
 10
-9.8087897406684021
 20
-18.195788574218749
 30
0.0
 10
-7.2895636664496521
 20
-18.195788574218749
 30
0.0
 10
-7.2895636664496521
 20
-18.195788574218749
 30
0.0
 10
-6.3369947645399298
 20
-16.919380696614581
 30
0.0
 10
-5.5527187771267359
 20
-16.919380696614581
 30
0.0
 10
-5.5527187771267359
 20
-16.919380696614581
 30
0.0
 10
-4.8797193739149298
 20
-15.909967719184026
 30
0.0
 10
-4.8797193739149298
 20
-14.847500271267359
 30
0.0
 10
-4.8797193739149298
 20
-14.064085557725694
 30
0.0
 10
-4.3097283257378471
 20
-13.727499728732637
 30
0.0
 10
-3.3707675509982638
 20
-13.727499728732637
 30
0.0
 10
-3.3707675509982638
 20
-13.727499728732637
 30
0.0
 10
-0.9714307996961805
 20
-13.727499728732637
 30
0.0
 10
-0.9714307996961805
 20
-13.727499728732637
 30
0.0
 10
-0.9714307996961805
 20
-13.727499728732637
 30
0.0
 10
1.4270446777343748
 20
-13.727499728732637
 30
0.0
 10
1.4270446777343748
 20
-13.727499728732637
 30
0.0
 10
2.3675557454427083
 20
-13.727499728732637
 30
0.0
 10
2.9366855197482638
 20
-14.064085557725694
 30
0.0
 10
2.9366855197482638
 20
-14.847500271267359
 30
0.0
 10
2.9366855197482638
 20
-15.909967719184026
 30
0.0
 10
3.608995903862847
 20
-16.919380696614581
 30
0.0
 10
3.608995903862847
 20
-16.919380696614581
 30
0.0
 10
4.3941331651475695
 20
-16.919380696614581
 30
0.0
 10
5.3458407931857632
 20
-18.195788574218749
 30
0.0
 10
5.3458407931857632
 20
-18.195788574218749
 30
0.0
 10
7.8648946126302075
 20
-18.195788574218749
 30
0.0
 10
7.9203606499565966
 20
-19.934183756510414
 30
0.0
 10
7.9203606499565966
 20
-19.934183756510414
 30
0.0
 10
7.9203606499565966
 20
-27.370077853732635
 30
0.0
 10
11.999009195963541
 20
-28.712976074218748
 30
0.0
 10
12.613614230685762
 20
-28.712976074218748
 30
0.0
 10
14.572667778862845
 20
-28.712976074218748
 30
0.0
 10
15.469942898220484
 20
-30.784856499565969
 30
0.0
 10
15.469942898220484
 20
-30.784856499565969
 30
0.0
 10
15.469942898220484
 20
-30.784856499565969
 30
0.0
 10
-0.9714307996961805
 20
-30.784856499565969
 30
0.0
 10
-0.9714307996961805
 20
-30.784856499565969
 30
0.0
  0
POLYLINE
  5
65
100
AcDbEntity
  8
LIVELLO_1
 62
     7
100
AcDb2dPolyline
 66
     1
 10
0.0
 20
0.0
 30
0.0
  0
VERTEX
  5
66
100
AcDbEntity
  8
LIVELLO_1
 62
     7
100
AcDbVertex
100
AcDb2dVertex
 10
-2.644025
 20
-13.7275
 30
0.0
  0
VERTEX
  5
67
100
AcDbEntity
  8
LIVELLO_1
 62
     7
100
AcDbVertex
100
AcDb2dVertex
 10
-2.644025
 20
-12.495189
 30
0.0
  0
VERTEX
  5
68
100
AcDbEntity
  8
LIVELLO_1
 62
     7
100
AcDbVertex
100
AcDb2dVertex
 10
-0.995719
 20
-12.495189
 30
0.0
  0
VERTEX
  5
69
100
AcDbEntity
  8
LIVELLO_1
 62
     7
100
AcDbVertex
100
AcDb2dVertex
 10
0.700302
 20
-12.495189
 30
0.0
  0
VERTEX
  5
6A
100
AcDbEntity
  8
LIVELLO_1
 62
     7
100
AcDbVertex
100
AcDb2dVertex
 10
0.700302
 20
-13.7275
 30
0.0
  0
SEQEND
  5
6B
100
AcDbEntity
  8
LIVELLO_1
 62
     7
  0
LINE
  5
64
100
AcDbEntity
  8
LIVELLO_1
 62
     7
100
AcDbLine
 10
-9.864773
 20
-19.934184
 30
0.0
 11
7.920361
 21
-19.934184
 31
0.0
  0
LINE
  5
63
100
AcDbEntity
  8
LIVELLO_1
 62
     7
100
AcDbLine
 10
-7.289564
 20
-18.195789
 30
0.0
 11
5.345841
 21
-18.195789
 31
0.0
  0
LINE
  5
62
100
AcDbEntity
  8
LIVELLO_1
 62
     7
100
AcDbLine
 10
-5.552719
 20
-16.919381
 30
0.0
 11
3.608996
 21
-16.919381
 31
0.0
  0
LINE
  5
61
100
AcDbEntity
  8
LIVELLO_1
 62
     7
100
AcDbLine
 10
-4.879719
 20
-14.8475
 30
0.0
 11
2.936686
 21
-14.8475
 31
0.0
  0
LINE
  5
60
100
AcDbEntity
  8
LIVELLO_1
 62
     7
100
AcDbLine
 10
-14.558198
 20
-28.712976
 30
0.0
 11
12.613614
 21
-28.712976
 31
0.0
  0
ELLIPSE
  5
5F
100
AcDbEntity
  8
LIVELLO_1
 62
     7
100
AcDbEllipse
 10
4.268215
 20
-62.293011
 30
0.0
 11
-1.7787027994791664
 21
0.0
 31
0.0
210
0.0
220
0.0
230
1.0
 40
0.617664
 41
0.0
 42
6.2831853071795862
  0
POLYLINE
  5
59
100
AcDbEntity
  8
LIVELLO_1
 62
     7
100
AcDb2dPolyline
 66
     1
 10
0.0
 20
0.0
 30
0.0
  0
VERTEX
  5
5A
100
AcDbEntity
  8
LIVELLO_1
 62
     7
100
AcDbVertex
100
AcDb2dVertex
 10
-20.711828
 20
-60.748574
 30
0.0
  0
VERTEX
  5
5B
100
AcDbEntity
  8
LIVELLO_1
 62
     7
100
AcDbVertex
100
AcDb2dVertex
 10
2.432668
 20
-61.473078
 30
0.0
  0
VERTEX
  5
5C
100
AcDbEntity
  8
LIVELLO_1
 62
     7
100
AcDbVertex
100
AcDb2dVertex
 10
2.432668
 20
-62.917607
 30
0.0
  0
VERTEX
  5
5D
100
AcDbEntity
  8
LIVELLO_1
 62
     7
100
AcDbVertex
100
AcDb2dVertex
 10
-20.711828
 20
-63.64211
 30
0.0
  0
SEQEND
  5
5E
100
AcDbEntity
  8
LIVELLO_1
 62
     7
  0
SPLINE
  5
58
100
AcDbEntity
  8
LIVELLO_1
 62
     7
100
AcDbSpline
210
0.0
220
0.0
230
1.0
 70
     8
 71
     3
 72
     8
 73
     4
 74
     0
 42
0.00000001
 43
0.00000001
 40
0.0
 40
0.0
 40
0.0
 40
0.0
 40
1.0
 40
1.0
 40
1.0
 40
1.0
 10
-25.776462809244791
 20
-55.684628634982637
 30
0.0
 10
-25.776462809244791
 20
-55.684628634982637
 30
0.0
 10
-23.605191379123262
 20
-55.684628634982637
 30
0.0
 10
-22.881549072265624
 20
-56.410854763454857
 30
0.0
  0
SPLINE
  5
57
100
AcDbEntity
  8
LIVELLO_1
 62
     7
100
AcDbSpline
210
0.0
220
0.0
230
1.0
 70
     8
 71
     3
 72
     8
 73
     4
 74
     0
 42
0.00000001
 43
0.00000001
 40
0.0
 40
0.0
 40
0.0
 40
0.0
 40
1.0
 40
1.0
 40
1.0
 40
1.0
 10
-25.776462809244791
 20
-74.491404893663187
 30
0.0
 10
-25.776462809244791
 20
-74.491404893663187
 30
0.0
 10
-23.605191379123262
 20
-74.491404893663187
 30
0.0
 10
-22.881549072265624
 20
-73.770001898871527
 30
0.0
  0
LINE
  5
56
100
AcDbEntity
  8
LIVELLO_1
 62
     7
100
AcDbLine
 10
-25.776463
 20
-70.151963
 30
0.0
 11
-22.881549
 21
-70.151963
 31
0.0
  0
LINE
  5
55
100
AcDbEntity
  8
LIVELLO_1
 62
     7
100
AcDbLine
 10
-25.776463
 20
-59.30129
 30
0.0
 11
-22.881549
 21
-59.30129
 31
0.0
  0
SPLINE
  5
54
100
AcDbEntity
  8
LIVELLO_1
 62
     7
100
AcDbSpline
210
0.0
220
0.0
230
1.0
 70
     8
 71
     3
 72
    23
 73
    19
 74
     0
 42
0.00000001
 43
0.00000001
 40
0.0
 40
0.0
 40
0.0
 40
0.0
 40
1.0
 40
1.0
 40
1.0
 40
2.0
 40
2.0
 40
2.0
 40
3.0
 40
3.0
 40
3.0
 40
4.0
 40
4.0
 40
4.0
 40
5.0
 40
5.0
 40
5.0
 40
6.0
 40
6.0
 40
6.0
 40
6.0
 10
-25.776462809244791
 20
-49.177876790364579
 30
0.0
 10
-25.776462809244791
 20
-49.177876790364579
 30
0.0
 10
-22.881549072265624
 20
-48.454751247829854
 30
0.0
 10
-22.159973822699651
 20
-50.62240532769097
 30
0.0
 10
-21.435470241970485
 20
-52.794193522135409
 30
0.0
 10
-21.435470241970485
 20
-55.684628634982637
 30
0.0
 10
-20.711827935112844
 20
-56.410854763454857
 30
0.0
 10
-20.711827935112844
 20
-56.410854763454857
 30
0.0
 10
-20.711827935112844
 20
-66.535645887586796
 30
0.0
 10
-20.711827935112844
 20
-66.535645887586796
 30
0.0
 10
-20.711827935112844
 20
-66.535645887586796
 30
0.0
 10
-20.711827935112844
 20
-74.491404893663187
 30
0.0
 10
-20.711827935112844
 20
-74.491404893663187
 30
0.0
 10
-21.435470241970485
 20
-75.214530436197904
 30
0.0
 10
-21.435470241970485
 20
-78.107721625434024
 30
0.0
 10
-22.159973822699651
 20
-80.278131781684024
 30
0.0
 10
-22.881549072265624
 20
-82.447163899739579
 30
0.0
 10
-25.776462809244791
 20
-81.724382866753459
 30
0.0
 10
-25.776462809244791
 20
-81.724382866753459
 30
0.0
  0
SPLINE
  5
53
100
AcDbEntity
  8
LIVELLO_1
 62
     7
100
AcDbSpline
210
0.0
220
0.0
230
1.0
 70
     8
 71
     3
 72
    23
 73
    19
 74
     0
 42
0.00000001
 43
0.00000001
 40
0.0
 40
0.0
 40
0.0
 40
0.0
 40
1.0
 40
1.0
 40
1.0
 40
2.0
 40
2.0
 40
2.0
 40
3.0
 40
3.0
 40
3.0
 40
4.0
 40
4.0
 40
4.0
 40
5.0
 40
5.0
 40
5.0
 40
6.0
 40
6.0
 40
6.0
 40
6.0
 10
-25.776462809244791
 20
-49.177876790364579
 30
0.0
 10
-25.776462809244791
 20
-49.177876790364579
 30
0.0
 10
-23.605191379123262
 20
-49.177876790364579
 30
0.0
 10
-23.605191379123262
 20
-50.62240532769097
 30
0.0
 10
-23.605191379123262
 20
-52.0683119032118
 30
0.0
 10
-23.605191379123262
 20
-55.684628634982637
 30
0.0
 10
-22.881549072265624
 20
-56.410854763454857
 30
0.0
 10
-22.881549072265624
 20
-56.410854763454857
 30
0.0
 10
-22.881549072265624
 20
-64.366613769531241
 30
0.0
 10
-22.881549072265624
 20
-64.366613769531241
 30
0.0
 10
-22.881549072265624
 20
-64.366613769531241
 30
0.0
 10
-22.881549072265624
 20
-74.491404893663187
 30
0.0
 10
-22.881549072265624
 20
-74.491404893663187
 30
0.0
 10
-23.605191379123262
 20
-75.214530436197904
 30
0.0
 10
-23.605191379123262
 20
-78.830847167968741
 30
0.0
 10
-23.605191379123262
 20
-80.278131781684024
 30
0.0
 10
-23.605191379123262
 20
-81.724382866753459
 30
0.0
 10
-25.776462809244791
 20
-81.724382866753459
 30
0.0
 10
-25.776462809244791
 20
-81.724382866753459
 30
0.0
  0
POLYLINE
  5
4D
100
AcDbEntity
  8
LIVELLO_1
 62
     7
100
AcDb2dPolyline
 66
     1
 10
0.0
 20
0.0
 30
0.0
 70
     1
  0
VERTEX
  5
4E
100
AcDbEntity
  8
LIVELLO_1
 62
     7
100
AcDbVertex
100
AcDb2dVertex
 10
-27.944634
 20
-49.177877
 30
0.0
  0
VERTEX
  5
4F
100
AcDbEntity
  8
LIVELLO_1
 62
     7
100
AcDbVertex
100
AcDb2dVertex
 10
-27.944634
 20
-81.724383
 30
0.0
  0
VERTEX
  5
50
100
AcDbEntity
  8
LIVELLO_1
 62
     7
100
AcDbVertex
100
AcDb2dVertex
 10
-25.776463
 20
-81.724383
 30
0.0
  0
VERTEX
  5
51
100
AcDbEntity
  8
LIVELLO_1
 62
     7
100
AcDbVertex
100
AcDb2dVertex
 10
-25.776463
 20
-49.177877
 30
0.0
  0
SEQEND
  5
52
100
AcDbEntity
  8
LIVELLO_1
 62
     7
  0
SPLINE
  5
4C
100
AcDbEntity
  8
LIVELLO_1
 62
     7
100
AcDbSpline
210
0.0
220
0.0
230
1.0
 70
     8
 71
     3
 72
    65
 73
    61
 74
     0
 42
0.00000001
 43
0.00000001
 40
0.0
 40
0.0
 40
0.0
 40
0.0
 40
1.0
 40
1.0
 40
1.0
 40
2.0
 40
2.0
 40
2.0
 40
3.0
 40
3.0
 40
3.0
 40
4.0
 40
4.0
 40
4.0
 40
5.0
 40
5.0
 40
5.0
 40
6.0
 40
6.0
 40
6.0
 40
7.0
 40
7.0
 40
7.0
 40
8.0
 40
8.0
 40
8.0
 40
9.0
 40
9.0
 40
9.0
 40
10.0
 40
10.0
 40
10.0
 40
11.0
 40
11.0
 40
11.0
 40
12.0
 40
12.0
 40
12.0
 40
13.0
 40
13.0
 40
13.0
 40
14.0
 40
14.0
 40
14.0
 40
15.0
 40
15.0
 40
15.0
 40
16.0
 40
16.0
 40
16.0
 40
17.0
 40
17.0
 40
17.0
 40
18.0
 40
18.0
 40
18.0
 40
19.0
 40
19.0
 40
19.0
 40
20.0
 40
20.0
 40
20.0
 40
20.0
 10
-0.7600741916232638
 20
-67.291844346788181
 30
0.0
 10
-0.4667243109809027
 20
-68.620962185329859
 30
0.0
 10
0.7965922037760416
 20
-67.734539116753467
 30
0.0
 10
0.6086622450086805
 20
-66.570441351996521
 30
0.0
 10
0.2918857150607639
 20
-64.812064615885404
 30
0.0
 10
-0.8358662923177083
 20
-64.684940592447916
 30
0.0
 10
-2.0998718261718747
 20
-65.406343587239576
 30
0.0
 10
-4.6507927788628471
 20
-68.72259250217013
 30
0.0
 10
-6.2620639377170138
 20
-70.667348904079859
 30
0.0
 10
-8.8772359212239582
 20
-74.048710123697916
 30
0.0
 10
-10.192228868272569
 20
-75.729572211371519
 30
0.0
 10
-12.079279920789929
 20
-76.40722249348957
 30
0.0
 10
-14.266398790147568
 20
-76.190525987413181
 30
0.0
 10
-15.239466010199651
 20
-76.119212510850687
 30
0.0
 10
-16.159478759765623
 20
-75.584189181857639
 30
0.0
 10
-16.717239718967011
 20
-75.376449924045133
 30
0.0
 10
-19.293137613932291
 20
-74.300546603732627
 30
0.0
 10
-20.933864339192706
 20
-71.460065375434027
 30
0.0
 10
-20.576952446831594
 20
-67.951235622829856
 30
0.0
 10
-20.194891357421874
 20
-64.289443630642353
 30
0.0
 10
-17.677387830946181
 20
-62.925185818142353
 30
0.0
 10
-14.550619167751735
 20
-63.918062337239576
 30
0.0
 10
-12.887843831380208
 20
-64.41518961588541
 30
0.0
 10
-12.136813015407984
 20
-66.12774658203125
 30
0.0
 10
-12.633251274956596
 20
-68.04046359592013
 30
0.0
 10
-13.278862169053818
 20
-70.24911431206597
 30
0.0
 10
-15.346263970269096
 20
-69.174244520399299
 30
0.0
 10
-16.267137993706594
 20
-68.713635253906247
 30
0.0
 10
-17.179571533203124
 20
-68.258882649739576
 30
0.0
 10
-16.493653021918401
 20
-66.888768174913181
 30
0.0
 10
-15.582769775390624
 20
-67.344898817274299
 30
0.0
 10
-15.208287896050345
 20
-67.533001030815967
 30
0.0
 10
-14.377675374348957
 20
-68.512097167968747
 30
0.0
 10
-14.111024983723958
 20
-67.63738742404513
 30
0.0
 10
-13.847302924262152
 20
-66.617294650607633
 30
0.0
 10
-14.111024983723958
 20
-65.645777723524304
 30
0.0
 10
-15.002271185980902
 20
-65.379127332899301
 30
0.0
 10
-17.105157470703123
 20
-64.715257432725693
 30
0.0
 10
-18.79669935438368
 20
-65.645777723524304
 30
0.0
 10
-19.054392496744789
 20
-68.110399034288193
 30
0.0
 10
-19.334134250217012
 20
-70.85372856987847
 30
0.0
 10
-18.161596001519097
 20
-73.104409450954861
 30
0.0
 10
-16.154827880859372
 20
-73.950180392795133
 30
0.0
 10
-15.691118028428818
 20
-74.127602810329861
 30
0.0
 10
-14.947666422526041
 20
-74.608193630642361
 30
0.0
 10
-14.137552218967013
 20
-74.667104763454859
 30
0.0
 10
-12.50130411783854
 20
-74.83074679904513
 30
0.0
 10
-11.065905083550346
 20
-74.362558322482627
 30
0.0
 10
-10.085258653428818
 20
-73.110610622829853
 30
0.0
 10
-7.4714647081163186
 20
-69.729249403211796
 30
0.0
 10
-5.6352288140190971
 20
-67.590534125434019
 30
0.0
 10
-3.0865471733940968
 20
-64.274285210503464
 30
0.0
 10
-0.7759216308593749
 20
-62.95550265842013
 30
0.0
 10
1.5400438096788194
 20
-63.088827853732631
 30
0.0
 10
2.1158915201822914
 20
-66.305168999565964
 30
0.0
 10
2.6903611924913191
 20
-69.74578586154513
 30
0.0
 10
-1.3951775444878471
 20
-71.538958062065959
 30
0.0
 10
-2.2545566134982638
 20
-67.619128417968739
 30
0.0
 10
-2.4734924316406248
 20
-66.623495822482639
 30
0.0
 10
-0.9805603027343749
 20
-66.294489203559024
 30
0.0
 10
-0.7600741916232638
 20
-67.291844346788181
 30
0.0
  0
HATCH
  5
4B
100
AcDbEntity
  8
LIVELLO_1
 62
   255
100
AcDbHatch
 10
0.0
 20
0.0
 30
0.0
210
0.0
220
0.0
230
1.0
  2
SOLID
 70
     1
 71
     0
 91
        1
 92
        1
 93
        1
 72
     4
 94
        3
 73
     0
 74
     0
 95
       26
 96
       22
 40
0.0
 40
0.0
 40
0.0
 40
0.0
 40
1.0
 40
1.0
 40
1.0
 40
2.0
 40
2.0
 40
2.0
 40
3.0
 40
3.0
 40
3.0
 40
4.0
 40
4.0
 40
4.0
 40
5.0
 40
5.0
 40
5.0
 40
6.0
 40
6.0
 40
6.0
 40
7.0
 40
7.0
 40
7.0
 40
7.0
 10
-15.650982666015624
 20
-60.378915744357634
 10
-15.650982666015624
 20
-60.378915744357634
 10
-15.650982666015624
 20
-60.378915744357634
 10
-15.650982666015624
 20
-60.378915744357634
 10
-15.262892659505207
 20
-60.378915744357634
 10
-14.94921671549479
 20
-60.703099229600689
 10
-14.94921671549479
 20
-61.101696777343747
 10
-14.94921671549479
 20
-61.101696777343747
 10
-14.94921671549479
 20
-65.001544867621519
 10
-14.94921671549479
 20
-65.001544867621519
 10
-14.94921671549479
 20
-65.401864963107627
 10
-15.262892659505207
 20
-65.726048448350681
 10
-15.650982666015624
 20
-65.726048448350681
 10
-16.03597208658854
 20
-65.726048448350681
 10
-16.348959011501734
 20
-65.401864963107627
 10
-16.348959011501734
 20
-65.001544867621519
 10
-16.348959011501734
 20
-65.001544867621519
 10
-16.348959011501734
 20
-61.101696777343747
 10
-16.348959011501734
 20
-61.101696777343747
 10
-16.348959011501734
 20
-60.703099229600689
 10
-16.03597208658854
 20
-60.378915744357634
 10
-15.650982666015624
 20
-60.378915744357634
 97
        0
 75
     2
 76
     1
 98
        1
 10
0.0
 20
0.0
  0
SPLINE
  5
4A
100
AcDbEntity
  8
LIVELLO_1
 62
     7
100
AcDbSpline
210
0.0
220
0.0
230
1.0
 70
     8
 71
     3
 72
    26
 73
    22
 74
     0
 42
0.00000001
 43
0.00000001
 40
0.0
 40
0.0
 40
0.0
 40
0.0
 40
1.0
 40
1.0
 40
1.0
 40
2.0
 40
2.0
 40
2.0
 40
3.0
 40
3.0
 40
3.0
 40
4.0
 40
4.0
 40
4.0
 40
5.0
 40
5.0
 40
5.0
 40
6.0
 40
6.0
 40
6.0
 40
7.0
 40
7.0
 40
7.0
 40
7.0
 10
-15.650982666015624
 20
-60.378915744357634
 30
0.0
 10
-15.650982666015624
 20
-60.378915744357634
 30
0.0
 10
-15.650982666015624
 20
-60.378915744357634
 30
0.0
 10
-15.650982666015624
 20
-60.378915744357634
 30
0.0
 10
-15.262892659505207
 20
-60.378915744357634
 30
0.0
 10
-14.94921671549479
 20
-60.703099229600689
 30
0.0
 10
-14.94921671549479
 20
-61.101696777343747
 30
0.0
 10
-14.94921671549479
 20
-61.101696777343747
 30
0.0
 10
-14.94921671549479
 20
-65.001544867621519
 30
0.0
 10
-14.94921671549479
 20
-65.001544867621519
 30
0.0
 10
-14.94921671549479
 20
-65.401864963107627
 30
0.0
 10
-15.262892659505207
 20
-65.726048448350681
 30
0.0
 10
-15.650982666015624
 20
-65.726048448350681
 30
0.0
 10
-16.03597208658854
 20
-65.726048448350681
 30
0.0
 10
-16.348959011501734
 20
-65.401864963107627
 30
0.0
 10
-16.348959011501734
 20
-65.001544867621519
 30
0.0
 10
-16.348959011501734
 20
-65.001544867621519
 30
0.0
 10
-16.348959011501734
 20
-61.101696777343747
 30
0.0
 10
-16.348959011501734
 20
-61.101696777343747
 30
0.0
 10
-16.348959011501734
 20
-60.703099229600689
 30
0.0
 10
-16.03597208658854
 20
-60.378915744357634
 30
0.0
 10
-15.650982666015624
 20
-60.378915744357634
 30
0.0
  0
HATCH
  5
49
100
AcDbEntity
  8
LIVELLO_1
 62
   255
100
AcDbHatch
 10
0.0
 20
0.0
 30
0.0
210
0.0
220
0.0
230
1.0
  2
SOLID
 70
     1
 71
     0
 91
        1
 92
        1
 93
        1
 72
     4
 94
        3
 73
     0
 74
     0
 95
       26
 96
       22
 40
0.0
 40
0.0
 40
0.0
 40
0.0
 40
1.0
 40
1.0
 40
1.0
 40
2.0
 40
2.0
 40
2.0
 40
3.0
 40
3.0
 40
3.0
 40
4.0
 40
4.0
 40
4.0
 40
5.0
 40
5.0
 40
5.0
 40
6.0
 40
6.0
 40
6.0
 40
7.0
 40
7.0
 40
7.0
 40
7.0
 10
-1.166939968532986
 20
-60.962514919704859
 10
-1.166939968532986
 20
-60.962514919704859
 10
-1.166939968532986
 20
-60.962514919704859
 10
-1.166939968532986
 20
-60.962514919704859
 10
-0.8327657063802083
 20
-60.962514919704859
 10
-0.5630147298177083
 20
-61.286698404947913
 10
-0.5630147298177083
 20
-61.687018500434021
 10
-0.5630147298177083
 20
-61.687018500434021
 10
-0.5630147298177083
 20
-64.710778808593744
 10
-0.5630147298177083
 20
-64.710778808593744
 10
-0.5630147298177083
 20
-65.109376356336796
 10
-0.8327657063802083
 20
-65.43355984157985
 10
-1.166939968532986
 20
-65.43355984157985
 10
-1.4988749186197916
 20
-65.43355984157985
 10
-1.768798149956597
 20
-65.109376356336796
 10
-1.768798149956597
 20
-64.710778808593744
 10
-1.768798149956597
 20
-64.710778808593744
 10
-1.768798149956597
 20
-61.687018500434021
 10
-1.768798149956597
 20
-61.687018500434021
 10
-1.768798149956597
 20
-61.286698404947913
 10
-1.4988749186197916
 20
-60.962514919704859
 10
-1.166939968532986
 20
-60.962514919704859
 97
        0
 75
     2
 76
     1
 98
        1
 10
0.0
 20
0.0
  0
LINE
  5
48
100
AcDbEntity
  8
LIVELLO_1
 62
     7
100
AcDbLine
 10
13.535866
 20
-96.725018
 30
0.0
 11
13.535866
 21
-89.828625
 31
0.0
  0
LINE
  5
47
100
AcDbEntity
  8
LIVELLO_1
 62
     7
100
AcDbLine
 10
13.611658
 20
-96.576534
 30
0.0
 11
13.611658
 21
-89.680142
 31
0.0
  0
LINE
  5
46
100
AcDbEntity
  8
LIVELLO_1
 62
     7
100
AcDbLine
 10
-23.34767
 20
-93.126615
 30
0.0
 11
13.624578
 21
-93.128338
 31
0.0
  0
LINE
  5
45
100
AcDbEntity
  8
LIVELLO_1
 62
     7
100
AcDbLine
 10
-28.475178
 20
-93.126615
 30
0.0
 11
-16.768055
 21
-93.128338
 31
0.0
  0
LINE
  5
44
100
AcDbEntity
  8
LIVELLO_1
 62
     7
100
AcDbLine
 10
-28.475178
 20
-96.576534
 30
0.0
 11
-28.475178
 21
-89.680142
 31
0.0
  0
MTEXT
  5
43
100
AcDbEntity
  8
LIVELLO_1
 62
     7
100
AcDbMText
 10
-13.464725
 20
-84.317973
 30
0.0
 40
6.788783
 41
0.0
 71
     1
 72
     2
  1
\fArial Narrow|b0|i0;\H6.7888;\C7;\U+0032\U+0037\U+0030
  7
STD
210
0.0
220
0.0
230
1.0
 73
     1
 44
1.0
  0
LINE
  5
42
100
AcDbEntity
  8
LIVELLO_1
 62
     7
100
AcDbLine
 10
22.98783
 20
-6.224771
 30
0.0
 11
22.98628
 21
-40.762887
 31
0.0
  0
LINE
  5
41
100
AcDbEntity
  8
LIVELLO_1
 62
     7
100
AcDbLine
 10
19.539634
 20
-6.224771
 30
0.0
 11
26.433615
 21
-6.224771
 31
0.0
  0
MTEXT
  5
40
100
AcDbEntity
  8
LIVELLO_1
 62
     7
100
AcDbMText
 10
16.696741
 20
-42.625772
 30
0.0
 40
6.788783
 41
0.0
 71
     1
 72
     2
  1
\fArial Narrow|b0|i0;\H6.7888;\C7;\U+0035\U+0033\U+0030
  7
STD
210
0.0
220
0.0
230
1.0
 73
     1
 44
1.0
  0
MTEXT
  5
3F
100
AcDbEntity
  8
LIVELLO_1
 62
     7
100
AcDbMText
 10
-6.364383
 20
95.809642
 30
0.0
 40
5.974987
 41
0.0
 71
     1
 72
     2
  1
\fArial Narrow|b0|i0;\H5.9750;\C7;\U+0031\U+0032\U+0034
  7
STD
210
0.0
220
0.0
230
1.0
 73
     1
 44
1.0
  0
LINE
  5
3E
100
AcDbEntity
  8
LIVELLO_1
 62
     7
100
AcDbLine
 10
14.008017
 20
91.62352
 30
0.0
 11
7.533821
 21
91.62352
 31
0.0
  0
LINE
  5
3D
100
AcDbEntity
  8
LIVELLO_1
 62
     7
100
AcDbLine
 10
14.008017
 20
93.936557
 30
0.0
 11
14.008017
 21
89.313584
 31
0.0
  0
LINE
  5
3C
100
AcDbEntity
  8
LIVELLO_1
 62
     7
100
AcDbLine
 10
-15.018808
 20
91.62352
 30
0.0
 11
-8.308106
 21
91.62352
 31
0.0
  0
LINE
  5
3B
100
AcDbEntity
  8
LIVELLO_1
 62
     7
100
AcDbLine
 10
-15.018808
 20
89.313584
 30
0.0
 11
-15.018808
 21
93.936557
 31
0.0
  0
MTEXT
  5
3A
100
AcDbEntity
  8
LIVELLO_1
 62
     7
100
AcDbMText
 10
-4.51385
 20
31.286621
 30
0.0
 40
5.974987
 41
0.0
 71
     1
 72
     2
  1
\fArial Narrow|b0|i0;\H5.9750;\C7;\U+0035\U+0030
  7
STD
210
0.0
220
0.0
230
1.0
 73
     1
 44
1.0
  0
LINE
  5
39
100
AcDbEntity
  8
LIVELLO_1
 62
     7
100
AcDbLine
 10
-22.074363
 20
56.465632
 30
0.0
 11
-22.074363
 21
36.425167
 31
0.0
  0
LINE
  5
38
100
AcDbEntity
  8
LIVELLO_1
 62
     7
100
AcDbLine
 10
-22.071435
 20
86.023001
 30
0.0
 11
-22.074363
 21
67.08755
 31
0.0
  0
LINE
  5
37
100
AcDbEntity
  8
LIVELLO_1
 62
     7
100
AcDbLine
 10
-25.108803
 20
36.425167
 30
0.0
 11
-19.038545
 21
36.425167
 31
0.0
  0
LINE
  5
36
100
AcDbEntity
  8
LIVELLO_1
 62
     7
100
AcDbLine
 10
-25.108803
 20
86.023001
 30
0.0
 11
-19.088499
 21
86.023001
 31
0.0
  0
MTEXT
  5
35
100
AcDbEntity
  8
LIVELLO_1
 62
     7
100
AcDbMText
 10
-29.180045
 20
65.753423
 30
0.0
 40
5.974987
 41
0.0
 71
     1
 72
     2
  1
\fArial Narrow|b0|i0;\H5.9750;\C7;\U+0032\U+0032\U+0030
  7
STD
210
0.0
220
0.0
230
1.0
 73
     1
 44
1.0
  0
LINE
  5
34
100
AcDbEntity
  8
LIVELLO_1
 62
     7
100
AcDbLine
 10
5.184438
 20
27.635695
 30
0.0
 11
5.184438
 21
57.13398
 31
0.0
  0
LINE
  5
33
100
AcDbEntity
  8
LIVELLO_1
 62
     7
100
AcDbLine
 10
-6.799327
 20
27.635695
 30
0.0
 11
-6.799327
 21
57.13398
 31
0.0
  0
CIRCLE
  5
32
100
AcDbEntity
  8
LIVELLO_1
 62
     7
100
AcDbCircle
 10
10.19576
 20
61.223309
 30
0.0
 40
0.6612
  0
SPLINE
  5
31
100
AcDbEntity
  8
LIVELLO_1
 62
     7
100
AcDbSpline
210
0.0
220
0.0
230
1.0
 70
     8
 71
     3
 72
   113
 73
   109
 74
     0
 42
0.00000001
 43
0.00000001
 40
0.0
 40
0.0
 40
0.0
 40
0.0
 40
1.0
 40
1.0
 40
1.0
 40
2.0
 40
2.0
 40
2.0
 40
3.0
 40
3.0
 40
3.0
 40
4.0
 40
4.0
 40
4.0
 40
5.0
 40
5.0
 40
5.0
 40
6.0
 40
6.0
 40
6.0
 40
7.0
 40
7.0
 40
7.0
 40
8.0
 40
8.0
 40
8.0
 40
9.0
 40
9.0
 40
9.0
 40
10.0
 40
10.0
 40
10.0
 40
11.0
 40
11.0
 40
11.0
 40
12.0
 40
12.0
 40
12.0
 40
13.0
 40
13.0
 40
13.0
 40
14.0
 40
14.0
 40
14.0
 40
15.0
 40
15.0
 40
15.0
 40
16.0
 40
16.0
 40
16.0
 40
17.0
 40
17.0
 40
17.0
 40
18.0
 40
18.0
 40
18.0
 40
19.0
 40
19.0
 40
19.0
 40
20.0
 40
20.0
 40
20.0
 40
21.0
 40
21.0
 40
21.0
 40
22.0
 40
22.0
 40
22.0
 40
23.0
 40
23.0
 40
23.0
 40
24.0
 40
24.0
 40
24.0
 40
25.0
 40
25.0
 40
25.0
 40
26.0
 40
26.0
 40
26.0
 40
27.0
 40
27.0
 40
27.0
 40
28.0
 40
28.0
 40
28.0
 40
29.0
 40
29.0
 40
29.0
 40
30.0
 40
30.0
 40
30.0
 40
31.0
 40
31.0
 40
31.0
 40
32.0
 40
32.0
 40
32.0
 40
33.0
 40
33.0
 40
33.0
 40
34.0
 40
34.0
 40
34.0
 40
35.0
 40
35.0
 40
35.0
 40
36.0
 40
36.0
 40
36.0
 40
36.0
 10
-0.5054816351996527
 20
50.81498616536458
 30
0.0
 10
-0.9032179090711805
 20
50.81498616536458
 30
0.0
 10
-1.2306742350260416
 20
50.525598144531244
 30
0.0
 10
-1.2913079155815972
 20
50.146637641059023
 30
0.0
 10
-1.3610710991753472
 20
49.866206868489577
 30
0.0
 10
-1.6141133626302082
 20
49.660190158420136
 30
0.0
 10
-1.9134921603732638
 20
49.660190158420136
 30
0.0
 10
-6.9714090983072907
 20
50.295121256510413
 30
0.0
 10
-10.97426554361979
 20
54.07835286458333
 30
0.0
 10
-11.93820326063368
 20
58.95281846788194
 30
0.0
 10
-11.945782470703124
 20
58.998293728298606
 30
0.0
 10
-11.950433349609375
 20
59.03929036458333
 30
0.0
 10
-11.950433349609375
 20
59.078736707899303
 30
0.0
 10
-11.950433349609375
 20
59.413599989149297
 30
0.0
 10
-11.679132080078125
 20
59.686451551649299
 30
0.0
 10
-11.343407524956596
 20
59.686451551649299
 30
0.0
 10
-11.343407524956596
 20
59.686451551649299
 30
0.0
 10
-11.206981743706596
 20
59.681972927517357
 30
0.0
 10
-11.206981743706596
 20
59.681972927517357
 30
0.0
 10
-10.355181884765624
 20
59.681972927517357
 30
0.0
 10
-9.6623731825086789
 20
60.371508789062496
 30
0.0
 10
-9.6623731825086789
 20
61.223308648003467
 30
0.0
 10
-9.6623731825086789
 20
62.07665879991319
 30
0.0
 10
-10.355181884765624
 20
62.766366916232634
 30
0.0
 10
-11.206981743706596
 20
62.766366916232634
 30
0.0
 10
-11.252457004123263
 20
62.766366916232634
 30
0.0
 10
-11.298621283637152
 20
62.766366916232634
 30
0.0
 10
-11.343407524956596
 20
62.76171603732638
 30
0.0
 10
-11.679132080078125
 20
62.76171603732638
 30
0.0
 10
-11.950433349609375
 20
63.03301730685763
 30
0.0
 10
-11.950433349609375
 20
63.369603135850689
 30
0.0
 10
-11.950433349609375
 20
63.409049479166661
 30
0.0
 10
-11.945782470703124
 20
63.44987386067708
 30
0.0
 10
-11.939753553602429
 20
63.487769911024301
 30
0.0
 10
-11.77387220594618
 20
64.324411349826377
 30
0.0
 10
-11.520657687717012
 20
65.129357910156244
 30
0.0
 10
-11.187172444661456
 20
65.891757541232636
 30
0.0
 10
-11.187172444661456
 20
65.891757541232636
 30
0.0
 10
-11.14324747721354
 20
65.972028266059027
 30
0.0
 10
-11.14324747721354
 20
65.972028266059027
 30
0.0
 10
-10.983395046657986
 20
66.237300618489584
 30
0.0
 10
-10.661967637803819
 20
66.346337890624994
 30
0.0
 10
-10.381709120008679
 20
66.247808159722211
 30
0.0
 10
-10.023246934678818
 20
66.12051188151041
 30
0.0
 10
-9.6237881130642347
 20
66.254009331597217
 30
0.0
 10
-9.4267286512586796
 20
66.584393988715277
 30
0.0
 10
-9.2220899793836804
 20
66.925458441840277
 30
0.0
 10
-9.3009826660156243
 20
67.35592312282985
 30
0.0
 10
-9.59571058485243
 20
67.602936469184016
 30
0.0
 10
-9.7996602376302082
 20
67.806024848090274
 30
0.0
 10
-9.8473748101128464
 20
68.128830295138883
 30
0.0
 10
-9.692001003689235
 20
68.388073730468747
 30
0.0
 10
-7.5178012424045129
 20
71.146561686197913
 30
0.0
 10
-4.2149881998697909
 20
72.877549913194443
 30
0.0
 10
-0.5054816351996527
 20
72.877549913194443
 30
0.0
 10
3.2019578721788191
 20
72.877549913194443
 30
0.0
 10
6.5068379720052079
 20
71.145011393229154
 30
0.0
 10
8.64107462565104
 20
68.447157118055543
 30
0.0
 10
8.8365837944878471
 20
68.128830295138883
 30
0.0
 10
8.7880079481336804
 20
67.806024848090274
 30
0.0
 10
8.5849195692274289
 20
67.602936469184016
 30
0.0
 10
8.290191650390625
 20
67.35592312282985
 30
0.0
 10
8.2106099446614582
 20
66.925458441840277
 30
0.0
 10
8.4159376356336804
 20
66.584393988715277
 30
0.0
 10
8.614547390407985
 20
66.254009331597217
 30
0.0
 10
9.0115946451822904
 20
66.12051188151041
 30
0.0
 10
9.3624776204427071
 20
66.244879828559021
 30
0.0
 10
9.6527269151475679
 20
66.346337890624994
 30
0.0
 10
9.9726040310329847
 20
66.237300618489584
 30
0.0
 10
10.132456461588541
 20
65.972028266059027
 30
0.0
 10
10.132456461588541
 20
65.972028266059027
 30
0.0
 10
10.175692409939236
 20
65.891757541232636
 30
0.0
 10
10.175692409939236
 20
65.891757541232636
 30
0.0
 10
10.50917765299479
 20
65.129357910156244
 30
0.0
 10
10.763770209418402
 20
64.324411349826377
 30
0.0
 10
10.928101264105901
 20
63.487769911024301
 30
0.0
 10
10.936541748046874
 20
63.44987386067708
 30
0.0
 10
10.941020372178819
 20
63.409049479166661
 30
0.0
 10
10.941020372178819
 20
63.369603135850689
 30
0.0
 10
10.941020372178819
 20
63.03301730685763
 30
0.0
 10
10.667479790581597
 20
62.76171603732638
 30
0.0
 10
10.333994547526041
 20
62.76171603732638
 30
0.0
 10
10.289380560980902
 20
62.766366916232634
 30
0.0
 10
10.242355007595485
 20
62.766366916232634
 30
0.0
 10
10.196190728081596
 20
62.766366916232634
 30
0.0
 10
9.3435295952690964
 20
62.766366916232634
 30
0.0
 10
8.6531324598524293
 20
62.07665879991319
 30
0.0
 10
8.6531324598524293
 20
61.223308648003467
 30
0.0
 10
8.6531324598524293
 20
60.371508789062496
 30
0.0
 10
9.3435295952690964
 20
59.681972927517357
 30
0.0
 10
10.196190728081596
 20
59.681972927517357
 30
0.0
 10
10.196190728081596
 20
59.681972927517357
 30
0.0
 10
10.333994547526041
 20
59.686451551649299
 30
0.0
 10
10.333994547526041
 20
59.686451551649299
 30
0.0
 10
10.667479790581597
 20
59.686451551649299
 30
0.0
 10
10.941020372178819
 20
59.413599989149297
 30
0.0
 10
10.941020372178819
 20
59.078736707899303
 30
0.0
 10
10.941020372178819
 20
59.03929036458333
 30
0.0
 10
10.936541748046874
 20
58.998293728298606
 30
0.0
 10
10.926723225911458
 20
58.95281846788194
 30
0.0
 10
9.9634745279947907
 20
54.07835286458333
 30
0.0
 10
5.9604458279079857
 20
50.295121256510413
 30
0.0
 10
0.9753926595052083
 20
49.664668782552077
 30
0.0
 10
0.6026333279079861
 20
49.660190158420136
 30
0.0
 10
0.3494188096788194
 20
49.867929416232634
 30
0.0
 10
0.2812059190538194
 20
50.146637641059023
 30
0.0
 10
0.2205722384982639
 20
50.525598144531244
 30
0.0
 10
-0.1082621256510417
 20
50.81498616536458
 30
0.0
 10
-0.5054816351996527
 20
50.81498616536458
 30
0.0
  0
CIRCLE
  5
30
100
AcDbEntity
  8
LIVELLO_1
 62
     7
100
AcDbCircle
 10
-11.207326
 20
61.223309
 30
0.0
 40
0.661286
  0
CIRCLE
  5
2F
100
AcDbEntity
  8
LIVELLO_1
 62
     7
100
AcDbCircle
 10
5.21441
 20
61.223309
 30
0.0
 40
0.685402
  0
CIRCLE
  5
2E
100
AcDbEntity
  8
LIVELLO_1
 62
     7
100
AcDbCircle
 10
-6.225632
 20
61.223309
 30
0.0
 40
0.685143
  0
CIRCLE
  5
2D
100
AcDbEntity
  8
LIVELLO_1
 62
     7
100
AcDbCircle
 10
-0.505396
 20
61.223309
 30
0.0
 40
3.228485
  0
SPLINE
  5
2C
100
AcDbEntity
  8
LIVELLO_1
 62
     7
100
AcDbSpline
210
0.0
220
0.0
230
1.0
 70
     8
 71
     3
 72
    59
 73
    55
 74
     0
 42
0.00000001
 43
0.00000001
 40
0.0
 40
0.0
 40
0.0
 40
0.0
 40
1.0
 40
1.0
 40
1.0
 40
2.0
 40
2.0
 40
2.0
 40
3.0
 40
3.0
 40
3.0
 40
4.0
 40
4.0
 40
4.0
 40
5.0
 40
5.0
 40
5.0
 40
6.0
 40
6.0
 40
6.0
 40
7.0
 40
7.0
 40
7.0
 40
8.0
 40
8.0
 40
8.0
 40
9.0
 40
9.0
 40
9.0
 40
10.0
 40
10.0
 40
10.0
 40
11.0
 40
11.0
 40
11.0
 40
12.0
 40
12.0
 40
12.0
 40
13.0
 40
13.0
 40
13.0
 40
14.0
 40
14.0
 40
14.0
 40
15.0
 40
15.0
 40
15.0
 40
16.0
 40
16.0
 40
16.0
 40
17.0
 40
17.0
 40
17.0
 40
18.0
 40
18.0
 40
18.0
 40
18.0
 10
14.008016628689235
 20
61.223308648003467
 30
0.0
 10
14.008016628689235
 20
65.891757541232636
 30
0.0
 10
12.733331298828125
 20
69.553549533420139
 30
0.0
 10
12.733331298828125
 20
69.553549533420139
 30
0.0
 10
7.9393086751302073
 20
71.807331000434019
 30
0.0
 10
7.1912061903211795
 20
76.950169542100681
 30
0.0
 10
7.1912061903211795
 20
76.950169542100681
 30
0.0
 10
3.7256123860677079
 20
80.186147732204859
 30
0.0
 10
3.4353630913628468
 20
84.001074218749991
 30
0.0
 10
3.2610412597656246
 20
84.693710666232633
 30
0.0
 10
3.0875807020399302
 20
85.386519368489573
 30
0.0
 10
2.4524773491753469
 20
86.023000759548609
 30
0.0
 10
1.4702806260850694
 20
86.023000759548609
 30
0.0
 10
1.4702806260850694
 20
86.023000759548609
 30
0.0
 10
-2.4810716417100691
 20
86.023000759548609
 30
0.0
 10
-2.4810716417100691
 20
86.023000759548609
 30
0.0
 10
-3.463957383897569
 20
86.023000759548609
 30
0.0
 10
-4.0983717176649304
 20
85.386519368489573
 30
0.0
 10
-4.2726935492621525
 20
84.693710666232633
 30
0.0
 10
-4.4446038140190964
 20
84.001074218749991
 30
0.0
 10
-4.7364034016927077
 20
80.186147732204859
 30
0.0
 10
-8.2019972059461796
 20
76.950169542100681
 30
0.0
 10
-8.2019972059461796
 20
76.950169542100681
 30
0.0
 10
-8.9485493977864579
 20
71.807331000434019
 30
0.0
 10
-13.744983588324651
 20
69.553549533420139
 30
0.0
 10
-13.744983588324651
 20
69.553549533420139
 30
0.0
 10
-15.018807644314235
 20
65.891757541232636
 30
0.0
 10
-15.018807644314235
 20
61.223308648003467
 30
0.0
 10
-15.018807644314235
 20
56.556582302517356
 30
0.0
 10
-13.744983588324651
 20
52.894618055555554
 30
0.0
 10
-13.744983588324651
 20
52.894618055555554
 30
0.0
 10
-8.9485493977864579
 20
50.640664333767354
 30
0.0
 10
-8.2019972059461796
 20
45.498170301649303
 30
0.0
 10
-8.2019972059461796
 20
45.498170301649303
 30
0.0
 10
-4.7364034016927077
 20
42.262192111545133
 30
0.0
 10
-4.4446038140190964
 20
38.447093370225694
 30
0.0
 10
-4.2726935492621525
 20
37.752906629774301
 30
0.0
 10
-4.0983717176649304
 20
37.060097927517354
 30
0.0
 10
-3.463957383897569
 20
36.425166829427077
 30
0.0
 10
-2.4810716417100691
 20
36.425166829427077
 30
0.0
 10
-2.4810716417100691
 20
36.425166829427077
 30
0.0
 10
1.4702806260850694
 20
36.425166829427077
 30
0.0
 10
1.4702806260850694
 20
36.425166829427077
 30
0.0
 10
2.4524773491753469
 20
36.425166829427077
 30
0.0
 10
3.0875807020399302
 20
37.060097927517354
 30
0.0
 10
3.2610412597656246
 20
37.752906629774301
 30
0.0
 10
3.4353630913628468
 20
38.447093370225694
 30
0.0
 10
3.7256123860677079
 20
42.262192111545133
 30
0.0
 10
7.1912061903211795
 20
45.498170301649303
 30
0.0
 10
7.1912061903211795
 20
45.498170301649303
 30
0.0
 10
7.9393086751302073
 20
50.640664333767354
 30
0.0
 10
12.733331298828125
 20
52.894618055555554
 30
0.0
 10
12.733331298828125
 20
52.894618055555554
 30
0.0
 10
14.008016628689235
 20
56.556582302517356
 30
0.0
 10
14.008016628689235
 20
61.223308648003467
 30
0.0
  0
ENDBLK
  5
8D
100
AcDbEntity
  8
LIVELLO_1
100
AcDbBlockEnd
  0
ENDSEC
  0
SECTION
  2
ENTITIES
  0
INSERT
  5
2A
100
AcDbEntity
  8
LIVELLO_1
 62
     7
100
AcDbBlockReference
  2
AI9-BLK1
 10
30.887606
 20
96.725018
 30
0.0
  0
ENDSEC
  0
SECTION
  2
OBJECTS
  0
DICTIONARY
  5
19
100
AcDbDictionary
280
     0
281
     1
  3
ACAD_GROUP
350
1A
  3
ACAD_MLINESTYLE
350
1B
  3
ACAD_LAYOUT
350
1E
  3
ACAD_PLOTSETTINGS
350
22
  3
ACAD_PLOTSTYLENAME
350
1F
  3
ACAD_WIPEOUT_VARS
350
23
  0
DICTIONARY
  5
1A
102
{ACAD_REACTORS
330
19
102
}
100
AcDbDictionary
280
     0
281
     1
  0
DICTIONARY
  5
1B
102
{ACAD_REACTORS
330
19
102
}
100
AcDbDictionary
280
     0
281
     1
  3
Standard
350
1C
  0
MLINESTYLE
  5
1C
102
{ACAD_REACTORS
330
1B
102
}
100
AcDbMlineStyle
  2
Standard
 70
     0
  3

 62
     0
 51
90.0
 52
90.0
 71
     2
 49
0.5
 62
   256
  6
ByLayer
 49
-0.5
 62
   256
  6
ByLayer
  0
ACDBDICTIONARYWDFLT
  5
1F
102
{ACAD_REACTORS
330
19
102
}
100
AcDbDictionary
281
     1
  3
Normal
350
1D
100
AcDbDictionaryWithDefault
340
1D
  0
ACDBPLACEHOLDER
  5
1D
102
{ACAD_REACTORS
330
1F
102
}
  0
LAYOUT
  5
20
102
{ACAD_REACTORS
330
1E
102
}
100
AcDbPlotSettings
  1

  2

  4

  6

 40
0.0
 41
0.0
 42
0.0
 43
0.0
 44
0.0
 45
0.0
 46
0.0
 47
0.0
 48
0.0
 49
0.0
140
0.0
141
0.0
142
1.0
143
1.0
 70
  1024
 72
     0
 73
     0
 74
     0
  7

 75
     0
147
1.0
148
0.0
149
0.0
100
AcDbLayout
  1
Model
 70
     0
 71
     0
 10
0.0
 20
0.0
 11
0.0
 21
0.0
 12
0.0
 22
0.0
 32
0.0
 14
0.0
 24
0.0
 34
0.0
 15
0.0
 25
0.0
 35
0.0
146
0.0
 13
0.0
 23
0.0
 33
0.0
 16
0.0
 26
0.0
 36
0.0
 17
0.0
 27
0.0
 37
0.0
 76
     0
330
A
331
0
345
0
346
0
  0
LAYOUT
  5
21
102
{ACAD_REACTORS
330
1E
102
}
100
AcDbPlotSettings
  1

  2

  4

  6

 40
0.0
 41
0.0
 42
0.0
 43
0.0
 44
0.0
 45
0.0
 46
0.0
 47
0.0
 48
0.0
 49
0.0
140
0.0
141
0.0
142
1.0
143
1.0
 70
     0
 72
     0
 73
     0
 74
     0
  7

 75
     0
147
1.0
148
0.0
149
0.0
100
AcDbLayout
  1
Layout1
 70
     0
 71
     0
 10
0.0
 20
0.0
 11
0.0
 21
0.0
 12
0.0
 22
0.0
 32
0.0
 14
0.0
 24
0.0
 34
0.0
 15
0.0
 25
0.0
 35
0.0
146
0.0
 13
0.0
 23
0.0
 33
0.0
 16
0.0
 26
0.0
 36
0.0
 17
0.0
 27
0.0
 37
0.0
 76
     0
330
B
331
0
345
0
346
0
  0
DICTIONARY
  5
1E
102
{ACAD_REACTORS
330
19
102
}
100
AcDbDictionary
280
     0
281
     1
  3
Layout1
350
21
  3
Model
350
20
  0
DICTIONARY
  5
22
102
{ACAD_REACTORS
330
19
102
}
100
AcDbDictionary
280
     0
281
     1
  0
WIPEOUTVARIABLES
  5
23
100
AcDbWipeoutVariables
 70
     1
  0
ENDSEC
  0
EOF
