  0
SECTION
  2
HEADER
  9
$ACADVER
  1
AC1015
  9
$ACADMAINTVER
 70
     6
  9
$DWGCODEPAGE
  3
ANSI_932
  9
$INSBASE
 10
0.0
 20
0.0
 30
0.0
  9
$EXTMIN
 10
2.510097
 20
0.0
 30
1.000000E+20
  9
$EXTMAX
 10
75.105321
 20
218.29193
 30
-1.000000E+20
  9
$LIMMIN
 10
2.510097
 20
0.0
  9
$LIMMAX
 10
75.105321
 20
218.29193
  9
$ORTHOMODE
 70
     0
  9
$REGENMODE
 70
     1
  9
$FILLMODE
 70
     1
  9
$QTEXTMODE
 70
     0
  9
$MIRRTEXT
 70
     1
  9
$LTSCALE
 40
1.0
  9
$ATTMODE
 70
     1
  9
$TEXTSIZE
 40
0.2
  9
$TRACEWID
 40
0.05
  9
$TEXTSTYLE
  7
Standard
  9
$CLAYER
  8
0
  9
$CELTYPE
  6
Continuous
  9
$CECOLOR
 62
   256
  9
$CELTSCALE
 40
1.0
  9
$DISPSILH
 70
     0
  9
$DIMSCALE
 40
1.0
  9
$DIMASZ
 40
0.18
  9
$DIMEXO
 40
0.0625
  9
$DIMDLI
 40
0.38
  9
$DIMRND
 40
0.0
  9
$DIMDLE
 40
0.0
  9
$DIMEXE
 40
0.18
  9
$DIMTP
 40
0.0
  9
$DIMTM
 40
0.0
  9
$DIMTXT
 40
0.18
  9
$DIMCEN
 40
0.09
  9
$DIMTSZ
 40
0.0
  9
$DIMTOL
 70
     0
  9
$DIMLIM
 70
     0
  9
$DIMTIH
 70
     1
  9
$DIMTOH
 70
     1
  9
$DIMSE1
 70
     0
  9
$DIMSE2
 70
     0
  9
$DIMTAD
 70
     0
  9
$DIMZIN
 70
     0
  9
$DIMBLK
  1

  9
$DIMASO
 70
     1
  9
$DIMSHO
 70
     1
  9
$DIMPOST
  1

  9
$DIMAPOST
  1

  9
$DIMALT
 70
     0
  9
$DIMALTD
 70
     2
  9
$DIMALTF
 40
25.4
  9
$DIMLFAC
 40
1.0
  9
$DIMTOFL
 70
     0
  9
$DIMTVP
 40
0.0
  9
$DIMTIX
 70
     0
  9
$DIMSOXD
 70
     0
  9
$DIMSAH
 70
     0
  9
$DIMBLK1
  1

  9
$DIMBLK2
  1

  9
$DIMSTYLE
  2
Standard
  9
$DIMCLRD
 70
     0
  9
$DIMCLRE
 70
     0
  9
$DIMCLRT
 70
     0
  9
$DIMTFAC
 40
1.0
  9
$DIMGAP
 40
0.09
  9
$DIMJUST
 70
     0
  9
$DIMSD1
 70
     0
  9
$DIMSD2
 70
     0
  9
$DIMTOLJ
 70
     1
  9
$DIMTZIN
 70
     0
  9
$DIMALTZ
 70
     0
  9
$DIMALTTZ
 70
     0
  9
$DIMUPT
 70
     0
  9
$DIMDEC
 70
     4
  9
$DIMTDEC
 70
     4
  9
$DIMALTU
 70
     2
  9
$DIMALTTD
 70
     2
  9
$DIMTXSTY
  7
Standard
  9
$DIMAUNIT
 70
     0
  9
$DIMADEC
 70
     0
  9
$DIMALTRND
 40
0.0
  9
$DIMAZIN
 70
     0
  9
$DIMDSEP
 70
     0
  9
$DIMATFIT
 70
     3
  9
$DIMFRAC
 70
     0
  9
$DIMLDRBLK
  1

  9
$DIMLUNIT
 70
     2
  9
$DIMLWD
 70
     0
  9
$DIMLWE
 70
     0
  9
$DIMTMOVE
 70
     0
  9
$LUNITS
 70
     2
  9
$LUPREC
 70
     4
  9
$SKETCHINC
 40
0.1
  9
$FILLETRAD
 40
0.0
  9
$AUNITS
 70
     0
  9
$AUPREC
 70
     0
  9
$MENU
  1
acad
  9
$ELEVATION
 40
0.0
  9
$PELEVATION
 40
0.0
  9
$THICKNESS
 40
0.0
  9
$LIMCHECK
 70
     0
  9
$CHAMFERA
 40
0.0
  9
$CHAMFERB
 40
0.0
  9
$CHAMFERC
 40
0.0
  9
$CHAMFERD
 40
0.0
  9
$SKPOLY
 70
     0
  9
$TDCREATE
 40
0.000000000
  9
$TDUCREATE
 40
0.000000000
  9
$TDUPDATE
 40
0.000000000
  9
$TDUUPDATE
 40
0.000000000
  9
$TDINDWG
 40
0.0000000000
  9
$TDUSRTIMER
 40
0.0000000000
  9
$USRTIMER
 70
     1
  9
$ANGBASE
 50
0.0
  9
$ANGDIR
 70
     0
  9
$PDMODE
 70
     0
  9
$PDSIZE
 40
0.0
  9
$PLINEWID
 40
0.0
  9
$SPLFRAME
 70
     0
  9
$SPLINETYPE
 70
     6
  9
$SPLINESEGS
 70
     8
  9
$HANDSEED
  5
8D
  9
$SURFTAB1
 70
     6
  9
$SURFTAB2
 70
     6
  9
$SURFTYPE
 70
     6
  9
$SURFU
 70
     6
  9
$SURFV
 70
     6
  9
$UCSBASE
  2

  9
$UCSNAME
  2

  9
$UCSORG
 10
0.0
 20
0.0
 30
0.0
  9
$UCSXDIR
 10
1.0
 20
0.0
 30
0.0
  9
$UCSYDIR
 10
0.0
 20
1.0
 30
0.0
  9
$UCSORTHOREF
  2

  9
$UCSORTHOVIEW
 70
     0
  9
$UCSORGTOP
 10
0.0
 20
0.0
 30
0.0
  9
$UCSORGBOTTOM
 10
0.0
 20
0.0
 30
0.0
  9
$UCSORGLEFT
 10
0.0
 20
0.0
 30
0.0
  9
$UCSORGRIGHT
 10
0.0
 20
0.0
 30
0.0
  9
$UCSORGFRONT
 10
0.0
 20
0.0
 30
0.0
  9
$UCSORGBACK
 10
0.0
 20
0.0
 30
0.0
  9
$PUCSBASE
  2

  9
$PUCSNAME
  2

  9
$PUCSORG
 10
0.0
 20
0.0
 30
0.0
  9
$PUCSXDIR
 10
1.0
 20
0.0
 30
0.0
  9
$PUCSYDIR
 10
0.0
 20
1.0
 30
0.0
  9
$PUCSORTHOREF
  2

  9
$PUCSORTHOVIEW
 70
     0
  9
$PUCSORGTOP
 10
0.0
 20
0.0
 30
0.0
  9
$PUCSORGBOTTOM
 10
0.0
 20
0.0
 30
0.0
  9
$PUCSORGLEFT
 10
0.0
 20
0.0
 30
0.0
  9
$PUCSORGRIGHT
 10
0.0
 20
0.0
 30
0.0
  9
$PUCSORGFRONT
 10
0.0
 20
0.0
 30
0.0
  9
$PUCSORGBACK
 10
0.0
 20
0.0
 30
0.0
  9
$USERI1
 70
     0
  9
$USERI2
 70
     0
  9
$USERI3
 70
     0
  9
$USERI4
 70
     0
  9
$USERI5
 70
     0
  9
$USERR1
 40
0.0
  9
$USERR2
 40
0.0
  9
$USERR3
 40
0.0
  9
$USERR4
 40
0.0
  9
$USERR5
 40
0.0
  9
$WORLDVIEW
 70
     1
  9
$SHADEDGE
 70
     3
  9
$SHADEDIF
 70
    70
  9
$TILEMODE
 70
     1
  9
$MAXACTVP
 70
    16
  9
$PINSBASE
 10
0.0
 20
0.0
 30
0.0
  9
$PLIMCHECK
 70
     0
  9
$PEXTMIN
 10
1.000000E+20
 20
1.000000E+20
 30
1.000000E+20
  9
$PEXTMAX
 10
-1.000000E+20
 20
-1.000000E+20
 30
-1.000000E+20
  9
$PLIMMIN
 10
0.0
 20
0.0
  9
$PLIMMAX
 10
12.0
 20
9.0
  9
$UNITMODE
 70
     0
  9
$VISRETAIN
 70
     0
  9
$PLINEGEN
 70
     1
  9
$PSLTSCALE
 70
     0
  9
$TREEDEPTH
 70
  3020
  9
$CMLSTYLE
  2
Standard
  9
$CMLJUST
 70
     0
  9
$CMLSCALE
 40
1.0
  9
$PROXYGRAPHICS
 70
     0
  9
$MEASUREMENT
 70
     1
  9
$CELWEIGHT
370
     0
  9
$ENDCAPS
280
     0
  9
$JOINSTYLE
280
     0
  9
$LWDISPLAY
290
     0
  9
$INSUNITS
 70
     0
  9
$HYPERLINKBASE
  1

  9
$STYLESHEET
  1

  9
$XEDIT
290
     1
  9
$CEPSNTYPE
380
     0
  9
$PSTYLEMODE
290
     1
  9
$FINGERPRINTGUID
  2

  9
$VERSIONGUID
  2

  9
$EXTNAMES
290
     1
  9
$PSVPSCALE
 40
0.0
  0
ENDSEC
  0
SECTION
  2
CLASSES
  0
CLASS
  1
LWPOLYLINE
  2
AcDbPolyline
  3
AutoCAD 2000
 90
    32768
280
     0
281
     1
  0
CLASS
  1
IMAGE
  2
AcDbRasterImage
  3
ISM
 90
    32895
280
     0
281
     1
  0
CLASS
  1
OLE2FRAME
  2
AcDbOle2Frame
  3
AutoCAD 2000
 90
    32768
280
     0
281
     1
  0
CLASS
  1
HATCH
  2
AcDbHatch
  3
AutoCAD 2000
 90
    32768
280
     0
281
     1
  0
CLASS
  1
DICTIONARYVAR
  2
AcDbDictionaryVar
  3
AutoCAD 2000
 90
    32768
280
     0
281
     0
  0
CLASS
  1
RASTERVARIABLES
  2
AcDbRasterVariables
  3
ISM
 90
    32768
280
     0
281
     0
  0
CLASS
  1
IMAGEDEF
  2
AcDbRasterImageDef
  3
ISM
 90
    32768
280
     0
281
     0
  0
CLASS
  1
IMAGEDEF_REACTOR
  2
AcDbRasterImageDefReactor
  3
ISM
 90
    32769
280
     0
281
     0
  0
CLASS
  1
IDBUFFER
  2
AcDbIdBuffer
  3
AutoCAD 2000
 90
    32768
280
     0
281
     0
  0
CLASS
  1
SPATIAL_FILTER
  2
AcDbSpatialFilter
  3
AutoCAD 2000
 90
    32768
280
     0
281
     0
  0
CLASS
  1
XRECORD
  2
AcDbXrecord
  3
AutoCAD 2000
 90
    32768
280
     0
281
     0
  0
CLASS
  1
SORTENTSTABLE
  2
AcDbSortentsTable
  3
AutoCAD 2000
 90
    32768
280
     0
281
     0
  0
CLASS
  1
LAYER_INDEX
  2
AcDbLayerIndex
  3
AutoCAD 2000
 90
    32768
280
     0
281
     0
  0
CLASS
  1
SPATIAL_INDEX
  2
AcDbSpatialIndex
  3
AutoCAD 2000
 90
    32768
280
     0
281
     0
  0
CLASS
  1
OBJECT_PTR
  2
CAseDLPNTableRecord
  3
"ASE-LPNTableRecord"
 90
    32769
280
     0
281
     0
  0
CLASS
  1
LAYOUT
  2
AcDbLayout
  3
AutoCAD 2000
 90
        0
280
     0
281
     0
  0
CLASS
  1
PLOTSETTINGS
  2
AcDbPlotSettings
  3
AutoCAD 2000
 90
    32768
280
     0
281
     0
  0
CLASS
  1
ACDBDICTIONARYWDFLT
  2
AcDbDictionaryWithDefault
  3
AutoCAD 2000
 90
        0
280
     0
281
     0
  0
CLASS
  1
ACDBPLACEHOLDER
  2
AcDbPlaceHolder
  3
AutoCAD 2000
 90
        0
280
     0
281
     0
  0
CLASS
  1
VBA_PROJECT
  2
AcDbVbaProject
  3
acadvba
 90
    32768
280
     0
281
     0
  0
CLASS
  1
WIPEOUT
  2
AcDbWipeout
  3
WipeOut|AutoCAD Express Tool|expresstools@autodesk.com
 90
    32895
280
     0
281
     1
  0
CLASS
  1
WIPEOUTVARIABLES
  2
AcDbWipeoutVariables
  3
WipeOut|AutoCAD Express Tool|expresstools@autodesk.com
 90
        0
280
     0
281
     0
  0
CLASS
  1
RTEXT
  2
RText
  3
RText|AutoCAD Express Tool|expresstools@autodesk.com
 90
    32768
280
     0
281
     1
  0
CLASS
  1
ARCALIGNEDTEXT
  2
AcDbArcAlignedText
  3
ATEXT|AutoCAD Express Tool|expresstools@autodesk.com
 90
    32768
280
     0
281
     1
  0
ENDSEC
  0
SECTION
  2
TABLES
  0
TABLE
  2
VPORT
  5
7
100
AcDbSymbolTable
 70
     1
  0
VPORT
  5
15
100
AcDbSymbolTableRecord
100
AcDbViewportTableRecord
  2
*ACTIVE
 70
     0
 10
0.0
 20
0.0
 11
1.0
 21
1.0
 12
6.591288
 22
4.579184
 13
0.0
 23
0.0
 14
1.0
 24
1.0
 15
0.0
 25
0.0
 16
0.0
 26
0.0
 36
1.0
 17
0.0
 27
0.0
 37
0.0
 40
9.158369
 41
0.688564
 42
50.0
 43
0.0
 44
0.0
 50
0.0
 51
0.0
 71
     0
 72
   100
 73
     1
 74
     1
 75
     0
 76
     0
 77
     0
 78
     0
281
     0
 65
     0
110
0.0
120
0.0
130
0.0
111
1.0
121
0.0
131
0.0
112
0.0
122
1.0
132
0.0
345
0
346
0
 79
     0
146
0.0
  0
ENDTAB
  0
TABLE
  2
LTYPE
  5
4
100
AcDbSymbolTable
 70
     3
  0
LTYPE
  5
11
100
AcDbSymbolTableRecord
100
AcDbLinetypeTableRecord
  2
ByBlock
 70
    64
  3

 72
    65
 73
     0
 40
0.0
  0
LTYPE
  5
12
100
AcDbSymbolTableRecord
100
AcDbLinetypeTableRecord
  2
ByLayer
 70
    64
  3

 72
    65
 73
     0
 40
0.0
  0
LTYPE
  5
13
100
AcDbSymbolTableRecord
100
AcDbLinetypeTableRecord
  2
Continuous
 70
    64
  3
Solid line
 72
    65
 73
     0
 40
0.0
  0
ENDTAB
  0
TABLE
  2
LAYER
  5
2
100
AcDbSymbolTable
 70
     2
  0
LAYER
  5
14
100
AcDbSymbolTableRecord
100
AcDbLayerTableRecord
  2
0
 70
     0
 62
     7
  6
Continuous
290
     1
370
    -3
390
1D
  0
LAYER
  5
28
100
AcDbSymbolTableRecord
100
AcDbLayerTableRecord
  2
LIVELLO_1
 70
     0
 62
   160
  6
Continuous
290
     1
370
    -3
390
1D
  0
ENDTAB
  0
TABLE
  2
STYLE
  5
3
100
AcDbSymbolTable
 70
     5
  0
STYLE
  5
17
100
AcDbSymbolTableRecord
100
AcDbTextStyleTableRecord
  2
Standard
 70
     0
 40
0.0
 41
1.0
 50
0.0
 71
     0
 42
0.0
  3
txt
  4

  0
STYLE
  5
24
100
AcDbSymbolTableRecord
100
AcDbTextStyleTableRecord
  2
STD
 70
     0
 40
0.0
 41
1.0
 50
0.0
 71
     0
 42
0.0
  3
txt
  4

  0
STYLE
  5
25
100
AcDbSymbolTableRecord
100
AcDbTextStyleTableRecord
  2
TATESTD
 70
     4
 40
0.0
 41
1.0
 50
0.0
 71
     0
 42
0.0
  3
txt
  4

  0
STYLE
  5
26
100
AcDbSymbolTableRecord
100
AcDbTextStyleTableRecord
  2
KANJISTD
 70
     0
 40
0.0
 41
1.0
 50
0.0
 71
     0
 42
0.0
  3
txt
  4
extfont
  0
STYLE
  5
27
100
AcDbSymbolTableRecord
100
AcDbTextStyleTableRecord
  2
KANJITATE
 70
     4
 40
0.0
 41
1.0
 50
0.0
 71
     0
 42
0.0
  3
txt
  4
extfont
  0
ENDTAB
  0
TABLE
  2
VIEW
  5
5
100
AcDbSymbolTable
 70
     0
  0
ENDTAB
  0
TABLE
  2
UCS
  5
6
100
AcDbSymbolTable
 70
     0
  0
ENDTAB
  0
TABLE
  2
APPID
  5
8
100
AcDbSymbolTable
 70
     1
  0
APPID
  5
16
100
AcDbSymbolTableRecord
100
AcDbRegAppTableRecord
  2
ACAD
 70
     0
  0
ENDTAB
  0
TABLE
  2
DIMSTYLE
  5
9
100
AcDbSymbolTable
 70
     1
100
AcDbDimStyleTable
 71
     0
  0
DIMSTYLE
105
18
100
AcDbSymbolTableRecord
100
AcDbDimStyleTableRecord
  2
Standard
 70
     0
  3

  4

 40
1.0
 41
0.18
 42
0.0625
 43
0.38
 44
0.18
 45
0.0
 46
0.0
 47
0.0
 48
0.0
 71
     0
 72
     0
 73
     1
 74
     1
 75
     0
 76
     0
 77
     0
 78
     0
 79
     0
140
0.18
141
0.09
142
0.0
143
25.4
144
1.0
145
0.0
146
1.0
147
0.09
148
0.0
170
     0
171
     2
172
     0
173
     0
174
     0
175
     0
176
     0
177
     0
178
     0
179
     0
271
     4
272
     4
273
     2
274
     2
275
     0
276
     0
277
     2
278
    46
279
     0
280
     0
281
     0
282
     0
283
     1
284
     0
285
     0
286
     0
288
     0
340
17
341
0
342
0
343
0
344
0
371
    -2
372
    -2
  0
ENDTAB
  0
TABLE
  2
BLOCK_RECORD
  5
1
100
AcDbSymbolTable
 70
     1
  0
BLOCK_RECORD
  5
A
100
AcDbSymbolTableRecord
100
AcDbBlockTableRecord
  2
*MODEL_SPACE
340
20
  0
BLOCK_RECORD
  5
B
100
AcDbSymbolTableRecord
100
AcDbBlockTableRecord
  2
*PAPER_SPACE
340
21
  0
BLOCK_RECORD
  5
29
100
AcDbSymbolTableRecord
100
AcDbBlockTableRecord
  2
AI9-BLK1
340
0
102
{BLKREFS
331
2A
102
}
  0
ENDTAB
  0
ENDSEC
  0
SECTION
  2
BLOCKS
  0
BLOCK
  5
D
100
AcDbEntity
  8
0
100
AcDbBlockBegin
  2
*MODEL_SPACE
 70
     0
 10
0.0
 20
0.0
 30
0.0
  3
*MODEL_SPACE
  1

  0
ENDBLK
  5
E
100
AcDbEntity
  8
0
100
AcDbBlockEnd
  0
BLOCK
  5
F
100
AcDbEntity
 67
     1
  8
0
100
AcDbBlockBegin
  2
*PAPER_SPACE
 70
     0
 10
0.0
 20
0.0
 30
0.0
  3
*PAPER_SPACE
  1

  0
ENDBLK
  5
10
100
AcDbEntity
 67
     1
  8
0
100
AcDbBlockEnd
  0
BLOCK
  5
2B
100
AcDbEntity
  8
LIVELLO_1
 62
     7
100
AcDbBlockBegin
  2
AI9-BLK1
 70
     0
 10
0.0
 20
0.0
 30
0.0
  3
AI9-BLK1
  1

  0
LINE
  5
8B
100
AcDbEntity
  8
LIVELLO_1
 62
     7
100
AcDbLine
 10
-36.089184
 20
-108.974055
 30
0.0
 11
-36.089184
 21
-100.967653
 31
0.0
  0
LINE
  5
8A
100
AcDbEntity
  8
LIVELLO_1
 62
     7
100
AcDbLine
 10
-36.089184
 20
-104.969131
 30
0.0
 11
-13.661268
 21
-104.970854
 31
0.0
  0
LINE
  5
89
100
AcDbEntity
  8
LIVELLO_1
 62
     7
100
AcDbLine
 10
-22.77234
 20
-104.969131
 30
0.0
 11
12.792415
 21
-104.970854
 31
0.0
  0
LINE
  5
88
100
AcDbEntity
  8
LIVELLO_1
 62
     7
100
AcDbLine
 10
12.778634
 20
-108.974055
 30
0.0
 11
12.778634
 21
-100.967653
 31
0.0
  0
LINE
  5
87
100
AcDbEntity
  8
LIVELLO_1
 62
     7
100
AcDbLine
 10
12.689923
 20
-109.145965
 30
0.0
 11
12.689923
 21
-101.139563
 31
0.0
  0
SPLINE
  5
86
100
AcDbEntity
  8
LIVELLO_1
 62
     7
100
AcDbSpline
210
0.0
220
0.0
230
1.0
 70
     8
 71
     3
 72
    26
 73
    22
 74
     0
 42
0.00000001
 43
0.00000001
 40
0.0
 40
0.0
 40
0.0
 40
0.0
 40
1.0
 40
1.0
 40
1.0
 40
2.0
 40
2.0
 40
2.0
 40
3.0
 40
3.0
 40
3.0
 40
4.0
 40
4.0
 40
4.0
 40
5.0
 40
5.0
 40
5.0
 40
6.0
 40
6.0
 40
6.0
 40
7.0
 40
7.0
 40
7.0
 40
7.0
 10
-4.5526075575086802
 20
-24.698406304253471
 30
0.0
 10
-4.5526075575086802
 20
-24.698406304253471
 30
0.0
 10
-4.5526075575086802
 20
-24.698406304253471
 30
0.0
 10
-4.5526075575086802
 20
-24.698406304253471
 30
0.0
 10
-4.1658955891927079
 20
-24.698406304253471
 30
0.0
 10
-3.8549757215711802
 20
-25.073921712239581
 30
0.0
 10
-3.8549757215711802
 20
-25.537631564670136
 30
0.0
 10
-3.8549757215711802
 20
-25.537631564670136
 30
0.0
 10
-3.8549757215711802
 20
-29.049217393663191
 30
0.0
 10
-3.8549757215711802
 20
-29.049217393663191
 30
0.0
 10
-3.8549757215711802
 20
-29.513271755642357
 30
0.0
 10
-4.1658955891927079
 20
-29.888098144531249
 30
0.0
 10
-4.5526075575086802
 20
-29.888098144531249
 30
0.0
 10
-4.9434536404079861
 20
-29.888098144531249
 30
0.0
 10
-5.2543735080295138
 20
-29.513271755642357
 30
0.0
 10
-5.2543735080295138
 20
-29.049217393663191
 30
0.0
 10
-5.2543735080295138
 20
-29.049217393663191
 30
0.0
 10
-5.2543735080295138
 20
-25.537631564670136
 30
0.0
 10
-5.2543735080295138
 20
-25.537631564670136
 30
0.0
 10
-5.2543735080295138
 20
-25.073921712239581
 30
0.0
 10
-4.9434536404079861
 20
-24.698406304253471
 30
0.0
 10
-4.5526075575086802
 20
-24.698406304253471
 30
0.0
  0
POLYLINE
  5
80
100
AcDbEntity
  8
LIVELLO_1
 62
     7
100
AcDb2dPolyline
 66
     1
 10
0.0
 20
0.0
 30
0.0
 70
     1
  0
VERTEX
  5
81
100
AcDbEntity
  8
LIVELLO_1
 62
     7
100
AcDbVertex
100
AcDb2dVertex
 10
-17.653789
 20
-53.057399
 30
0.0
  0
VERTEX
  5
82
100
AcDbEntity
  8
LIVELLO_1
 62
     7
100
AcDbVertex
100
AcDb2dVertex
 10
-12.99912
 20
-79.00448
 30
0.0
  0
VERTEX
  5
83
100
AcDbEntity
  8
LIVELLO_1
 62
     7
100
AcDbVertex
100
AcDb2dVertex
 10
3.190417
 20
-79.00448
 30
0.0
  0
VERTEX
  5
84
100
AcDbEntity
  8
LIVELLO_1
 62
     7
100
AcDbVertex
100
AcDb2dVertex
 10
7.84698
 20
-53.057399
 30
0.0
  0
SEQEND
  5
85
100
AcDbEntity
  8
LIVELLO_1
 62
     7
  0
POLYLINE
  5
7A
100
AcDbEntity
  8
LIVELLO_1
 62
     7
100
AcDb2dPolyline
 66
     1
 10
0.0
 20
0.0
 30
0.0
 70
     1
  0
VERTEX
  5
7B
100
AcDbEntity
  8
LIVELLO_1
 62
     7
100
AcDbVertex
100
AcDb2dVertex
 10
-16.705182
 20
-53.580364
 30
0.0
  0
VERTEX
  5
7C
100
AcDbEntity
  8
LIVELLO_1
 62
     7
100
AcDbVertex
100
AcDb2dVertex
 10
-12.312857
 20
-78.01436
 30
0.0
  0
VERTEX
  5
7D
100
AcDbEntity
  8
LIVELLO_1
 62
     7
100
AcDbVertex
100
AcDb2dVertex
 10
2.502431
 20
-78.01436
 30
0.0
  0
VERTEX
  5
7E
100
AcDbEntity
  8
LIVELLO_1
 62
     7
100
AcDbVertex
100
AcDb2dVertex
 10
6.893033
 20
-53.580364
 30
0.0
  0
SEQEND
  5
7F
100
AcDbEntity
  8
LIVELLO_1
 62
     7
  0
LINE
  5
79
100
AcDbEntity
  8
LIVELLO_1
 62
     7
100
AcDbLine
 10
-13.423039
 20
-80.205096
 30
0.0
 11
3.614508
 21
-80.205096
 31
0.0
  0
LINE
  5
78
100
AcDbEntity
  8
LIVELLO_1
 62
     7
100
AcDbLine
 10
-12.734193
 20
-80.618507
 30
0.0
 11
2.928934
 21
-80.618507
 31
0.0
  0
LINE
  5
77
100
AcDbEntity
  8
LIVELLO_1
 62
     7
100
AcDbLine
 10
-10.353976
 20
-82.391009
 30
0.0
 11
0.546995
 21
-82.391009
 31
0.0
  0
LINE
  5
76
100
AcDbEntity
  8
LIVELLO_1
 62
     7
100
AcDbLine
 10
-9.982078
 20
-82.807865
 30
0.0
 11
0.17682
 21
-82.807865
 31
0.0
  0
LINE
  5
75
100
AcDbEntity
  8
LIVELLO_1
 62
     7
100
AcDbLine
 10
-7.921394
 20
-84.109078
 30
0.0
 11
-1.887137
 21
-84.109078
 31
0.0
  0
LINE
  5
74
100
AcDbEntity
  8
LIVELLO_1
 62
     7
100
AcDbLine
 10
-7.284741
 20
-84.580023
 30
0.0
 11
-2.523963
 21
-84.580023
 31
0.0
  0
LINE
  5
73
100
AcDbEntity
  8
LIVELLO_1
 62
     7
100
AcDbLine
 10
-6.703553
 20
-85.047522
 30
0.0
 11
-3.106012
 21
-85.047522
 31
0.0
  0
SPLINE
  5
72
100
AcDbEntity
  8
LIVELLO_1
 62
     7
100
AcDbSpline
210
0.0
220
0.0
230
1.0
 70
     8
 71
     3
 72
    98
 73
    94
 74
     0
 42
0.00000001
 43
0.00000001
 40
0.0
 40
0.0
 40
0.0
 40
0.0
 40
1.0
 40
1.0
 40
1.0
 40
2.0
 40
2.0
 40
2.0
 40
3.0
 40
3.0
 40
3.0
 40
4.0
 40
4.0
 40
4.0
 40
5.0
 40
5.0
 40
5.0
 40
6.0
 40
6.0
 40
6.0
 40
7.0
 40
7.0
 40
7.0
 40
8.0
 40
8.0
 40
8.0
 40
9.0
 40
9.0
 40
9.0
 40
10.0
 40
10.0
 40
10.0
 40
11.0
 40
11.0
 40
11.0
 40
12.0
 40
12.0
 40
12.0
 40
13.0
 40
13.0
 40
13.0
 40
14.0
 40
14.0
 40
14.0
 40
15.0
 40
15.0
 40
15.0
 40
16.0
 40
16.0
 40
16.0
 40
17.0
 40
17.0
 40
17.0
 40
18.0
 40
18.0
 40
18.0
 40
19.0
 40
19.0
 40
19.0
 40
20.0
 40
20.0
 40
20.0
 40
21.0
 40
21.0
 40
21.0
 40
22.0
 40
22.0
 40
22.0
 40
23.0
 40
23.0
 40
23.0
 40
24.0
 40
24.0
 40
24.0
 40
25.0
 40
25.0
 40
25.0
 40
26.0
 40
26.0
 40
26.0
 40
27.0
 40
27.0
 40
27.0
 40
28.0
 40
28.0
 40
28.0
 40
29.0
 40
29.0
 40
29.0
 40
30.0
 40
30.0
 40
30.0
 40
31.0
 40
31.0
 40
31.0
 40
31.0
 10
-19.8794928656684
 20
-51.912593587239577
 30
0.0
 10
-19.8794928656684
 20
-51.912593587239577
 30
0.0
 10
-19.8794928656684
 20
-53.265827094184026
 30
0.0
 10
-19.8794928656684
 20
-53.265827094184026
 30
0.0
 10
-19.8794928656684
 20
-53.265827094184026
 30
0.0
 10
-19.242666965060764
 20
-53.265827094184026
 30
0.0
 10
-19.242666965060764
 20
-53.265827094184026
 30
0.0
 10
-19.242666965060764
 20
-53.265827094184026
 30
0.0
 10
-14.375263807508679
 20
-80.205095757378459
 30
0.0
 10
-14.375263807508679
 20
-80.205095757378459
 30
0.0
 10
-14.375263807508679
 20
-80.205095757378459
 30
0.0
 10
-13.423039415147569
 20
-80.205095757378459
 30
0.0
 10
-13.423039415147569
 20
-80.205095757378459
 30
0.0
 10
-13.423039415147569
 20
-80.205095757378459
 30
0.0
 10
-13.423039415147569
 20
-80.618507215711801
 30
0.0
 10
-13.423039415147569
 20
-80.618507215711801
 30
0.0
 10
-13.423039415147569
 20
-80.618507215711801
 30
0.0
 10
-12.734192572699651
 20
-80.618507215711801
 30
0.0
 10
-12.734192572699651
 20
-80.618507215711801
 30
0.0
 10
-12.734192572699651
 20
-80.618507215711801
 30
0.0
 10
-12.734192572699651
 20
-82.391008843315959
 30
0.0
 10
-12.734192572699651
 20
-82.391008843315959
 30
0.0
 10
-12.734192572699651
 20
-82.391008843315959
 30
0.0
 10
-10.353976101345484
 20
-82.391008843315959
 30
0.0
 10
-10.353976101345484
 20
-82.391008843315959
 30
0.0
 10
-10.353976101345484
 20
-82.391008843315959
 30
0.0
 10
-10.353976101345484
 20
-82.807865397135416
 30
0.0
 10
-10.353976101345484
 20
-82.807865397135416
 30
0.0
 10
-10.353976101345484
 20
-82.807865397135416
 30
0.0
 10
-9.98207804361979
 20
-82.807865397135416
 30
0.0
 10
-9.98207804361979
 20
-82.807865397135416
 30
0.0
 10
-9.98207804361979
 20
-82.807865397135416
 30
0.0
 10
-9.8804477267795132
 20
-84.109077962239581
 30
0.0
 10
-8.7154886881510407
 20
-84.580022515190961
 30
0.0
 10
-8.7154886881510407
 20
-84.580022515190961
 30
0.0
 10
-7.2847405327690966
 20
-84.580022515190961
 30
0.0
 10
-7.2847405327690966
 20
-84.580022515190961
 30
0.0
 10
-7.2847405327690966
 20
-84.580022515190961
 30
0.0
 10
-7.2847405327690966
 20
-85.047521972656241
 30
0.0
 10
-7.2847405327690966
 20
-85.047521972656241
 30
0.0
 10
-7.2847405327690966
 20
-85.047521972656241
 30
0.0
 10
-6.7035529242621523
 20
-85.047521972656241
 30
0.0
 10
-6.7035529242621523
 20
-85.047521972656241
 30
0.0
 10
-6.7035529242621523
 20
-85.047521972656241
 30
0.0
 10
-6.3864318847656243
 20
-86.921998426649296
 30
0.0
 10
-6.3864318847656243
 20
-86.921998426649296
 30
0.0
 10
-6.3864318847656243
 20
-86.921998426649296
 30
0.0
 10
-3.4222717285156246
 20
-86.921998426649296
 30
0.0
 10
-3.4222717285156246
 20
-86.921998426649296
 30
0.0
 10
-3.4222717285156246
 20
-86.921998426649296
 30
0.0
 10
-3.1060119628906246
 20
-85.047521972656241
 30
0.0
 10
-3.1060119628906246
 20
-85.047521972656241
 30
0.0
 10
-3.1060119628906246
 20
-85.047521972656241
 30
0.0
 10
-2.5239630805121527
 20
-85.047521972656241
 30
0.0
 10
-2.5239630805121527
 20
-85.047521972656241
 30
0.0
 10
-2.5239630805121527
 20
-85.047521972656241
 30
0.0
 10
-2.5239630805121527
 20
-84.580022515190961
 30
0.0
 10
-2.5239630805121527
 20
-84.580022515190961
 30
0.0
 10
-2.5239630805121527
 20
-84.580022515190961
 30
0.0
 10
-1.0949374728732637
 20
-84.580022515190961
 30
0.0
 10
-1.0949374728732637
 20
-84.580022515190961
 30
0.0
 10
0.0682990180121528
 20
-84.109077962239581
 30
0.0
 10
0.1768195258246528
 20
-82.807865397135416
 30
0.0
 10
0.1768195258246528
 20
-82.807865397135416
 30
0.0
 10
0.1768195258246528
 20
-82.807865397135416
 30
0.0
 10
0.5469950358072916
 20
-82.807865397135416
 30
0.0
 10
0.5469950358072916
 20
-82.807865397135416
 30
0.0
 10
0.5469950358072916
 20
-82.807865397135416
 30
0.0
 10
0.5469950358072916
 20
-82.391008843315959
 30
0.0
 10
0.5469950358072916
 20
-82.391008843315959
 30
0.0
 10
0.5469950358072916
 20
-82.391008843315959
 30
0.0
 10
2.9289340549045138
 20
-82.391008843315959
 30
0.0
 10
2.9289340549045138
 20
-82.391008843315959
 30
0.0
 10
2.9289340549045138
 20
-82.391008843315959
 30
0.0
 10
2.9289340549045138
 20
-80.618507215711801
 30
0.0
 10
2.9289340549045138
 20
-80.618507215711801
 30
0.0
 10
2.9289340549045138
 20
-80.618507215711801
 30
0.0
 10
3.6145080566406245
 20
-80.618507215711801
 30
0.0
 10
3.6145080566406245
 20
-80.618507215711801
 30
0.0
 10
3.6145080566406245
 20
-80.618507215711801
 30
0.0
 10
3.6145080566406245
 20
-80.205095757378459
 30
0.0
 10
3.6145080566406245
 20
-80.205095757378459
 30
0.0
 10
3.6145080566406245
 20
-80.205095757378459
 30
0.0
 10
4.5682827419704859
 20
-80.205095757378459
 30
0.0
 10
4.5682827419704859
 20
-80.205095757378459
 30
0.0
 10
4.5682827419704859
 20
-80.205095757378459
 30
0.0
 10
9.4341356065538182
 20
-53.265827094184026
 30
0.0
 10
9.4341356065538182
 20
-53.265827094184026
 30
0.0
 10
9.4341356065538182
 20
-53.265827094184026
 30
0.0
 10
10.070789252387153
 20
-53.265827094184026
 30
0.0
 10
10.070789252387153
 20
-53.265827094184026
 30
0.0
 10
10.070789252387153
 20
-53.265827094184026
 30
0.0
 10
10.070789252387153
 20
-51.912593587239577
 30
0.0
 10
10.070789252387153
 20
-51.912593587239577
 30
0.0
  0
SPLINE
  5
71
100
AcDbEntity
  8
LIVELLO_1
 62
     7
100
AcDbSpline
210
0.0
220
0.0
230
1.0
 70
     8
 71
     3
 72
    53
 73
    49
 74
     0
 42
0.00000001
 43
0.00000001
 40
0.0
 40
0.0
 40
0.0
 40
0.0
 40
1.0
 40
1.0
 40
1.0
 40
2.0
 40
2.0
 40
2.0
 40
3.0
 40
3.0
 40
3.0
 40
4.0
 40
4.0
 40
4.0
 40
5.0
 40
5.0
 40
5.0
 40
6.0
 40
6.0
 40
6.0
 40
7.0
 40
7.0
 40
7.0
 40
8.0
 40
8.0
 40
8.0
 40
9.0
 40
9.0
 40
9.0
 40
10.0
 40
10.0
 40
10.0
 40
11.0
 40
11.0
 40
11.0
 40
12.0
 40
12.0
 40
12.0
 40
13.0
 40
13.0
 40
13.0
 40
14.0
 40
14.0
 40
14.0
 40
15.0
 40
15.0
 40
15.0
 40
16.0
 40
16.0
 40
16.0
 40
16.0
 10
-4.7870463053385413
 20
-51.830600314670136
 30
0.0
 10
-4.7870463053385413
 20
-51.830600314670136
 30
0.0
 10
-23.875631374782984
 20
-51.830600314670136
 30
0.0
 10
-23.875631374782984
 20
-51.830600314670136
 30
0.0
 10
-23.875631374782984
 20
-51.830600314670136
 30
0.0
 10
-22.834868028428819
 20
-49.422478569878464
 30
0.0
 10
-20.556970893012149
 20
-49.422478569878464
 30
0.0
 10
-19.843836127387149
 20
-49.422478569878464
 30
0.0
 10
-15.110963948567706
 20
-47.862194824218747
 30
0.0
 10
-15.110963948567706
 20
-39.228785536024304
 30
0.0
 10
-15.110963948567706
 20
-39.228785536024304
 30
0.0
 10
-15.042406548394096
 20
-37.211682128906247
 30
0.0
 10
-12.117520480685762
 20
-37.211682128906247
 30
0.0
 10
-12.117520480685762
 20
-37.211682128906247
 30
0.0
 10
-11.014056396484374
 20
-35.729602050781246
 30
0.0
 10
-10.102828640407985
 20
-35.729602050781246
 30
0.0
 10
-10.102828640407985
 20
-35.729602050781246
 30
0.0
 10
-9.3252705891927068
 20
-34.560336642795136
 30
0.0
 10
-9.3252705891927068
 20
-33.323202853732639
 30
0.0
 10
-9.3252705891927068
 20
-32.414731174045137
 30
0.0
 10
-8.6632954915364575
 20
-32.023712836371523
 30
0.0
 10
-7.5694776746961798
 20
-32.023712836371523
 30
0.0
 10
-7.5694776746961798
 20
-32.023712836371523
 30
0.0
 10
-4.7870463053385413
 20
-32.023712836371523
 30
0.0
 10
-4.7870463053385413
 20
-32.023712836371523
 30
0.0
 10
-4.7870463053385413
 20
-32.023712836371523
 30
0.0
 10
-2.0028923882378469
 20
-32.023712836371523
 30
0.0
 10
-2.0028923882378469
 20
-32.023712836371523
 30
0.0
 10
-0.9082132975260416
 20
-32.023712836371523
 30
0.0
 10
-0.2462381998697917
 20
-32.414731174045137
 30
0.0
 10
-0.2462381998697917
 20
-33.323202853732639
 30
0.0
 10
-0.2462381998697917
 20
-34.560336642795136
 30
0.0
 10
0.5347649468315971
 20
-35.729602050781246
 30
0.0
 10
0.5347649468315971
 20
-35.729602050781246
 30
0.0
 10
1.4434088812934027
 20
-35.729602050781246
 30
0.0
 10
2.5503180609809024
 20
-37.211682128906247
 30
0.0
 10
2.5503180609809024
 20
-37.211682128906247
 30
0.0
 10
5.477098931206597
 20
-37.211682128906247
 30
0.0
 10
5.5411777072482638
 20
-39.228785536024304
 30
0.0
 10
5.5411777072482638
 20
-39.228785536024304
 30
0.0
 10
5.5411777072482638
 20
-47.862194824218747
 30
0.0
 10
10.27508341471354
 20
-49.422478569878464
 30
0.0
 10
10.989079454210069
 20
-49.422478569878464
 30
0.0
 10
13.265943060980902
 20
-49.422478569878464
 30
0.0
 10
14.304983859592012
 20
-51.830600314670136
 30
0.0
 10
14.304983859592012
 20
-51.830600314670136
 30
0.0
 10
14.304983859592012
 20
-51.830600314670136
 30
0.0
 10
-4.7870463053385413
 20
-51.830600314670136
 30
0.0
 10
-4.7870463053385413
 20
-51.830600314670136
 30
0.0
  0
POLYLINE
  5
6A
100
AcDbEntity
  8
LIVELLO_1
 62
     7
100
AcDb2dPolyline
 66
     1
 10
0.0
 20
0.0
 30
0.0
  0
VERTEX
  5
6B
100
AcDbEntity
  8
LIVELLO_1
 62
     7
100
AcDbVertex
100
AcDb2dVertex
 10
-6.729563
 20
-32.023713
 30
0.0
  0
VERTEX
  5
6C
100
AcDbEntity
  8
LIVELLO_1
 62
     7
100
AcDbVertex
100
AcDb2dVertex
 10
-6.729563
 20
-30.591931
 30
0.0
  0
VERTEX
  5
6D
100
AcDbEntity
  8
LIVELLO_1
 62
     7
100
AcDbVertex
100
AcDb2dVertex
 10
-4.809612
 20
-30.591931
 30
0.0
  0
VERTEX
  5
6E
100
AcDbEntity
  8
LIVELLO_1
 62
     7
100
AcDbVertex
100
AcDb2dVertex
 10
-2.840223
 20
-30.591931
 30
0.0
  0
VERTEX
  5
6F
100
AcDbEntity
  8
LIVELLO_1
 62
     7
100
AcDbVertex
100
AcDb2dVertex
 10
-2.840223
 20
-32.023713
 30
0.0
  0
SEQEND
  5
70
100
AcDbEntity
  8
LIVELLO_1
 62
     7
  0
LINE
  5
69
100
AcDbEntity
  8
LIVELLO_1
 62
     7
100
AcDbLine
 10
-15.110964
 20
-39.228786
 30
0.0
 11
5.541178
 21
-39.228786
 31
0.0
  0
LINE
  5
68
100
AcDbEntity
  8
LIVELLO_1
 62
     7
100
AcDbLine
 10
-12.11752
 20
-37.211682
 30
0.0
 11
2.550318
 21
-37.211682
 31
0.0
  0
LINE
  5
67
100
AcDbEntity
  8
LIVELLO_1
 62
     7
100
AcDbLine
 10
-10.102829
 20
-35.729602
 30
0.0
 11
0.534765
 21
-35.729602
 31
0.0
  0
LINE
  5
66
100
AcDbEntity
  8
LIVELLO_1
 62
     7
100
AcDbLine
 10
-9.325271
 20
-33.323203
 30
0.0
 11
-0.246238
 21
-33.323203
 31
0.0
  0
LINE
  5
65
100
AcDbEntity
  8
LIVELLO_1
 62
     7
100
AcDbLine
 10
-20.556971
 20
-49.422479
 30
0.0
 11
10.989079
 21
-49.422479
 31
0.0
  0
CIRCLE
  5
64
100
AcDbEntity
  8
LIVELLO_1
 62
     7
100
AcDbCircle
 10
-4.904352
 20
-91.64109
 30
0.0
 40
0.720197
  0
SPLINE
  5
63
100
AcDbEntity
  8
LIVELLO_1
 62
     7
100
AcDbSpline
210
0.0
220
0.0
230
1.0
 70
     8
 71
     3
 72
    20
 73
    16
 74
     0
 42
0.00000001
 43
0.00000001
 40
0.0
 40
0.0
 40
0.0
 40
0.0
 40
1.0
 40
1.0
 40
1.0
 40
2.0
 40
2.0
 40
2.0
 40
3.0
 40
3.0
 40
3.0
 40
4.0
 40
4.0
 40
4.0
 40
5.0
 40
5.0
 40
5.0
 40
5.0
 10
-3.1520039876302079
 20
-86.921998426649296
 30
0.0
 10
-4.0060431586371523
 20
-86.921998426649296
 30
0.0
 10
-4.306627739800347
 20
-89.465856933593741
 30
0.0
 10
-4.5629428439670132
 20
-91.008570692274304
 30
0.0
 10
-4.6645731608072909
 20
-90.956549750434021
 30
0.0
 10
-4.7784335666232636
 20
-90.921754286024296
 30
0.0
 10
-4.9043518066406246
 20
-90.921754286024296
 30
0.0
 10
-5.0607591417100686
 20
-90.921754286024296
 30
0.0
 10
-5.2066589355468746
 20
-90.972397189670133
 30
0.0
 10
-5.323964436848958
 20
-91.057146538628459
 30
0.0
 10
-5.5897535536024296
 20
-89.521322970920124
 30
0.0
 10
-5.7921529134114582
 20
-86.921998426649296
 30
0.0
 10
-6.6548048231336798
 20
-86.921998426649296
 30
0.0
 10
-6.6548048231336798
 20
-86.921998426649296
 30
0.0
 10
-3.1520039876302079
 20
-86.921998426649296
 30
0.0
 10
-3.1520039876302079
 20
-86.921998426649296
 30
0.0
  0
POLYLINE
  5
5D
100
AcDbEntity
  8
LIVELLO_1
 62
     7
100
AcDb2dPolyline
 66
     1
 10
0.0
 20
0.0
 30
0.0
 70
     1
  0
VERTEX
  5
5E
100
AcDbEntity
  8
LIVELLO_1
 62
     7
100
AcDbVertex
100
AcDb2dVertex
 10
-6.703553
 20
-85.047522
 30
0.0
  0
VERTEX
  5
5F
100
AcDbEntity
  8
LIVELLO_1
 62
     7
100
AcDbVertex
100
AcDb2dVertex
 10
-3.106012
 20
-85.047522
 30
0.0
  0
VERTEX
  5
60
100
AcDbEntity
  8
LIVELLO_1
 62
     7
100
AcDbVertex
100
AcDb2dVertex
 10
-3.422272
 20
-86.921998
 30
0.0
  0
VERTEX
  5
61
100
AcDbEntity
  8
LIVELLO_1
 62
     7
100
AcDbVertex
100
AcDb2dVertex
 10
-6.386432
 20
-86.921998
 30
0.0
  0
SEQEND
  5
62
100
AcDbEntity
  8
LIVELLO_1
 62
     7
  0
SPLINE
  5
5C
100
AcDbEntity
  8
LIVELLO_1
 62
     7
100
AcDbSpline
210
0.0
220
0.0
230
1.0
 70
     8
 71
     3
 72
    26
 73
    22
 74
     0
 42
0.00000001
 43
0.00000001
 40
0.0
 40
0.0
 40
0.0
 40
0.0
 40
1.0
 40
1.0
 40
1.0
 40
2.0
 40
2.0
 40
2.0
 40
3.0
 40
3.0
 40
3.0
 40
4.0
 40
4.0
 40
4.0
 40
5.0
 40
5.0
 40
5.0
 40
6.0
 40
6.0
 40
6.0
 40
7.0
 40
7.0
 40
7.0
 40
7.0
 10
-21.368463134765623
 20
-24.358030870225694
 30
0.0
 10
-21.368463134765623
 20
-24.358030870225694
 30
0.0
 10
-21.368463134765623
 20
-24.358030870225694
 30
0.0
 10
-21.368463134765623
 20
-24.358030870225694
 30
0.0
 10
-20.920256212022569
 20
-24.358030870225694
 30
0.0
 10
-20.556970893012149
 20
-24.735268825954858
 30
0.0
 10
-20.556970893012149
 20
-25.198978678385416
 30
0.0
 10
-20.556970893012149
 20
-25.198978678385416
 30
0.0
 10
-20.556970893012149
 20
-29.728590223524304
 30
0.0
 10
-20.556970893012149
 20
-29.728590223524304
 30
0.0
 10
-20.556970893012149
 20
-30.188854980468747
 30
0.0
 10
-20.920256212022569
 20
-30.566092936197915
 30
0.0
 10
-21.368463134765623
 20
-30.566092936197915
 30
0.0
 10
-21.820287407769094
 20
-30.566092936197915
 30
0.0
 10
-22.183400472005207
 20
-30.188854980468747
 30
0.0
 10
-22.183400472005207
 20
-29.728590223524304
 30
0.0
 10
-22.183400472005207
 20
-29.728590223524304
 30
0.0
 10
-22.183400472005207
 20
-25.198978678385416
 30
0.0
 10
-22.183400472005207
 20
-25.198978678385416
 30
0.0
 10
-22.183400472005207
 20
-24.735268825954858
 30
0.0
 10
-21.820287407769094
 20
-24.358030870225694
 30
0.0
 10
-21.368463134765623
 20
-24.358030870225694
 30
0.0
  0
ELLIPSE
  5
5B
100
AcDbEntity
  8
LIVELLO_1
 62
     7
100
AcDbEllipse
 10
1.754932
 20
-28.345384
 30
0.0
 11
-2.0654208713107636
 21
0.0
 31
0.0
210
0.0
220
0.0
230
1.0
 40
0.618156
 41
0.0
 42
6.2831853071795862
  0
POLYLINE
  5
55
100
AcDbEntity
  8
LIVELLO_1
 62
     7
100
AcDb2dPolyline
 66
     1
 10
0.0
 20
0.0
 30
0.0
  0
VERTEX
  5
56
100
AcDbEntity
  8
LIVELLO_1
 62
     7
100
AcDbVertex
100
AcDb2dVertex
 10
-27.248897
 20
-30.136834
 30
0.0
  0
VERTEX
  5
57
100
AcDbEntity
  8
LIVELLO_1
 62
     7
100
AcDbVertex
100
AcDb2dVertex
 10
-0.376463
 20
-29.297609
 30
0.0
  0
VERTEX
  5
58
100
AcDbEntity
  8
LIVELLO_1
 62
     7
100
AcDbVertex
100
AcDb2dVertex
 10
-0.376463
 20
-27.617436
 30
0.0
  0
VERTEX
  5
59
100
AcDbEntity
  8
LIVELLO_1
 62
     7
100
AcDbVertex
100
AcDb2dVertex
 10
-27.248897
 20
-26.77821
 30
0.0
  0
SEQEND
  5
5A
100
AcDbEntity
  8
LIVELLO_1
 62
     7
  0
SPLINE
  5
54
100
AcDbEntity
  8
LIVELLO_1
 62
     7
100
AcDbSpline
210
0.0
220
0.0
230
1.0
 70
     8
 71
     3
 72
     8
 73
     4
 74
     0
 42
0.00000001
 43
0.00000001
 40
0.0
 40
0.0
 40
0.0
 40
0.0
 40
1.0
 40
1.0
 40
1.0
 40
1.0
 10
-33.125023735894096
 20
-36.01623399522569
 30
0.0
 10
-33.125023735894096
 20
-36.01623399522569
 30
0.0
 10
-30.605797661675343
 20
-36.01623399522569
 30
0.0
 10
-29.766572401258678
 20
-35.175286187065971
 30
0.0
  0
SPLINE
  5
53
100
AcDbEntity
  8
LIVELLO_1
 62
     7
100
AcDbSpline
210
0.0
220
0.0
230
1.0
 70
     8
 71
     3
 72
     8
 73
     4
 74
     0
 42
0.00000001
 43
0.00000001
 40
0.0
 40
0.0
 40
0.0
 40
0.0
 40
1.0
 40
1.0
 40
1.0
 40
1.0
 10
-33.125023735894096
 20
-14.180185275607638
 30
0.0
 10
-33.125023735894096
 20
-14.180185275607638
 30
0.0
 10
-30.605797661675343
 20
-14.180185275607638
 30
0.0
 10
-29.766572401258678
 20
-15.02113308376736
 30
0.0
  0
LINE
  5
52
100
AcDbEntity
  8
LIVELLO_1
 62
     7
100
AcDbLine
 10
-33.125024
 20
-19.222083
 30
0.0
 11
-29.766572
 21
-19.222083
 31
0.0
  0
LINE
  5
51
100
AcDbEntity
  8
LIVELLO_1
 62
     7
100
AcDbLine
 10
-33.125024
 20
-31.817007
 30
0.0
 11
-29.766572
 21
-31.817007
 31
0.0
  0
SPLINE
  5
50
100
AcDbEntity
  8
LIVELLO_1
 62
     7
100
AcDbSpline
210
0.0
220
0.0
230
1.0
 70
     8
 71
     3
 72
    23
 73
    19
 74
     0
 42
0.00000001
 43
0.00000001
 40
0.0
 40
0.0
 40
0.0
 40
0.0
 40
1.0
 40
1.0
 40
1.0
 40
2.0
 40
2.0
 40
2.0
 40
3.0
 40
3.0
 40
3.0
 40
4.0
 40
4.0
 40
4.0
 40
5.0
 40
5.0
 40
5.0
 40
6.0
 40
6.0
 40
6.0
 40
6.0
 10
-33.125023735894096
 20
-43.5727064344618
 30
0.0
 10
-33.125023735894096
 20
-43.5727064344618
 30
0.0
 10
-29.766572401258678
 20
-44.413309733072914
 30
0.0
 10
-28.926485866970484
 20
-41.89425591362847
 30
0.0
 10
-28.088983154296873
 20
-39.374857584635414
 30
0.0
 10
-28.088983154296873
 20
-36.01623399522569
 30
0.0
 10
-27.248896620008679
 20
-35.175286187065971
 30
0.0
 10
-27.248896620008679
 20
-35.175286187065971
 30
0.0
 10
-27.248896620008679
 20
-23.419586859809026
 30
0.0
 10
-27.248896620008679
 20
-23.419586859809026
 30
0.0
 10
-27.248896620008679
 20
-23.419586859809026
 30
0.0
 10
-27.248896620008679
 20
-14.180185275607638
 30
0.0
 10
-27.248896620008679
 20
-14.180185275607638
 30
0.0
 10
-28.088983154296873
 20
-13.340960015190971
 30
0.0
 10
-28.088983154296873
 20
-9.9823364257812486
 30
0.0
 10
-28.926485866970484
 20
-7.4629380967881938
 30
0.0
 10
-29.766572401258678
 20
-4.943539767795138
 30
0.0
 10
-33.125023735894096
 20
-5.7844875759548602
 30
0.0
 10
-33.125023735894096
 20
-5.7844875759548602
 30
0.0
  0
SPLINE
  5
4F
100
AcDbEntity
  8
LIVELLO_1
 62
     7
100
AcDbSpline
210
0.0
220
0.0
230
1.0
 70
     8
 71
     3
 72
    23
 73
    19
 74
     0
 42
0.00000001
 43
0.00000001
 40
0.0
 40
0.0
 40
0.0
 40
0.0
 40
1.0
 40
1.0
 40
1.0
 40
2.0
 40
2.0
 40
2.0
 40
3.0
 40
3.0
 40
3.0
 40
4.0
 40
4.0
 40
4.0
 40
5.0
 40
5.0
 40
5.0
 40
6.0
 40
6.0
 40
6.0
 40
6.0
 10
-33.125023735894096
 20
-43.5727064344618
 30
0.0
 10
-33.125023735894096
 20
-43.5727064344618
 30
0.0
 10
-30.605797661675343
 20
-43.5727064344618
 30
0.0
 10
-30.605797661675343
 20
-41.89425591362847
 30
0.0
 10
-30.605797661675343
 20
-40.214082845052083
 30
0.0
 10
-30.605797661675343
 20
-36.01623399522569
 30
0.0
 10
-29.766572401258678
 20
-35.175286187065971
 30
0.0
 10
-29.766572401258678
 20
-35.175286187065971
 30
0.0
 10
-29.766572401258678
 20
-25.938985188802082
 30
0.0
 10
-29.766572401258678
 20
-25.938985188802082
 30
0.0
 10
-29.766572401258678
 20
-25.938985188802082
 30
0.0
 10
-29.766572401258678
 20
-14.180185275607638
 30
0.0
 10
-29.766572401258678
 20
-14.180185275607638
 30
0.0
 10
-30.605797661675343
 20
-13.340960015190971
 30
0.0
 10
-30.605797661675343
 20
-9.141044108072915
 30
0.0
 10
-30.605797661675343
 20
-7.4629380967881938
 30
0.0
 10
-30.605797661675343
 20
-5.7844875759548602
 30
0.0
 10
-33.125023735894096
 20
-5.7844875759548602
 30
0.0
 10
-33.125023735894096
 20
-5.7844875759548602
 30
0.0
  0
POLYLINE
  5
49
100
AcDbEntity
  8
LIVELLO_1
 62
     7
100
AcDb2dPolyline
 66
     1
 10
0.0
 20
0.0
 30
0.0
 70
     1
  0
VERTEX
  5
4A
100
AcDbEntity
  8
LIVELLO_1
 62
     7
100
AcDbVertex
100
AcDb2dVertex
 10
-35.644422
 20
-43.572706
 30
0.0
  0
VERTEX
  5
4B
100
AcDbEntity
  8
LIVELLO_1
 62
     7
100
AcDbVertex
100
AcDb2dVertex
 10
-35.644422
 20
-5.784488
 30
0.0
  0
VERTEX
  5
4C
100
AcDbEntity
  8
LIVELLO_1
 62
     7
100
AcDbVertex
100
AcDb2dVertex
 10
-33.125024
 20
-5.784488
 30
0.0
  0
VERTEX
  5
4D
100
AcDbEntity
  8
LIVELLO_1
 62
     7
100
AcDbVertex
100
AcDb2dVertex
 10
-33.125024
 20
-43.572706
 30
0.0
  0
SEQEND
  5
4E
100
AcDbEntity
  8
LIVELLO_1
 62
     7
  0
SPLINE
  5
48
100
AcDbEntity
  8
LIVELLO_1
 62
     7
100
AcDbSpline
210
0.0
220
0.0
230
1.0
 70
     8
 71
     3
 72
    65
 73
    61
 74
     0
 42
0.00000001
 43
0.00000001
 40
0.0
 40
0.0
 40
0.0
 40
0.0
 40
1.0
 40
1.0
 40
1.0
 40
2.0
 40
2.0
 40
2.0
 40
3.0
 40
3.0
 40
3.0
 40
4.0
 40
4.0
 40
4.0
 40
5.0
 40
5.0
 40
5.0
 40
6.0
 40
6.0
 40
6.0
 40
7.0
 40
7.0
 40
7.0
 40
8.0
 40
8.0
 40
8.0
 40
9.0
 40
9.0
 40
9.0
 40
10.0
 40
10.0
 40
10.0
 40
11.0
 40
11.0
 40
11.0
 40
12.0
 40
12.0
 40
12.0
 40
13.0
 40
13.0
 40
13.0
 40
14.0
 40
14.0
 40
14.0
 40
15.0
 40
15.0
 40
15.0
 40
16.0
 40
16.0
 40
16.0
 40
17.0
 40
17.0
 40
17.0
 40
18.0
 40
18.0
 40
18.0
 40
19.0
 40
19.0
 40
19.0
 40
20.0
 40
20.0
 40
20.0
 40
20.0
 10
-4.0825242784288189
 20
-22.540398491753471
 30
0.0
 10
-3.7445604112413191
 20
-20.995962185329859
 30
0.0
 10
-2.2728156195746525
 20
-22.028112792968749
 30
0.0
 10
-2.4936462402343746
 20
-23.379623752170136
 30
0.0
 10
-2.8584818522135413
 20
-25.42118733723958
 30
0.0
 10
-4.1693406846788195
 20
-25.568981933593747
 30
0.0
 10
-5.6376403808593745
 20
-24.729756673177082
 30
0.0
 10
-8.5999057345920136
 20
-20.877795410156249
 30
0.0
 10
-10.467664252387152
 20
-18.622635904947916
 30
0.0
 10
-13.506410725911458
 20
-14.694193522135416
 30
0.0
 10
-15.034655083550346
 20
-12.74495849609375
 30
0.0
 10
-17.222979736328124
 20
-11.95775417751736
 30
0.0
 10
-19.76563245985243
 20
-12.207868109809027
 30
0.0
 10
-20.891489664713539
 20
-12.291239420572916
 30
0.0
 10
-21.961019558376734
 20
-12.913079155815971
 30
0.0
 10
-22.610764567057288
 20
-13.154924858940971
 30
0.0
 10
-25.600935194227429
 20
-14.402393934461804
 30
0.0
 10
-27.508656819661457
 20
-17.701761881510414
 30
0.0
 10
-27.090766737196176
 20
-21.774553765190969
 30
0.0
 10
-26.64772745768229
 20
-26.02580159505208
 30
0.0
 10
-23.724391682942706
 20
-27.608822970920137
 30
0.0
 10
-20.093088785807289
 20
-26.460228135850691
 30
0.0
 10
-18.164696587456596
 20
-25.87972954644097
 30
0.0
 10
-17.288953314887152
 20
-23.890531412760414
 30
0.0
 10
-17.871002197265625
 20
-21.668100314670138
 30
0.0
 10
-18.616348605685761
 20
-19.10736083984375
 30
0.0
 10
-21.018441433376733
 20
-20.354829915364583
 30
0.0
 10
-22.086076524522568
 20
-20.888130696614581
 30
0.0
 10
-23.145960150824649
 20
-21.418330891927081
 30
0.0
 10
-22.351004367404514
 20
-23.009620496961805
 30
0.0
 10
-21.2902594672309
 20
-22.479764811197914
 30
0.0
 10
-20.855832926432289
 20
-22.262723795572914
 30
0.0
 10
-19.893273247612846
 20
-21.124464246961804
 30
0.0
 10
-19.582353379991318
 20
-22.139044867621525
 30
0.0
 10
-19.278323703342011
 20
-23.322435167100693
 30
0.0
 10
-19.585798475477429
 20
-24.452081976996524
 30
0.0
 10
-20.617949083116319
 20
-24.761107042100694
 30
0.0
 10
-23.060866292317705
 20
-25.534186469184025
 30
0.0
 10
-25.024915228949652
 20
-24.452081976996524
 30
0.0
 10
-25.322054714626734
 20
-21.59196370442708
 30
0.0
 10
-25.647960747612846
 20
-18.406972927517359
 30
0.0
 10
-24.286459011501734
 20
-15.790767415364583
 30
0.0
 10
-21.957574462890623
 20
-14.808915201822915
 30
0.0
 10
-21.417038981119791
 20
-14.605654568142359
 30
0.0
 10
-20.555420600043401
 20
-14.04444851345486
 30
0.0
 10
-19.612842475043401
 20
-13.976580132378471
 30
0.0
 10
-17.714594862196179
 20
-13.789166937934027
 30
0.0
 10
-16.049235704210069
 20
-14.331080457899304
 30
0.0
 10
-14.910287136501735
 20
-15.78697781032986
 30
0.0
 10
-11.874985758463541
 20
-19.712319607204858
 30
0.0
 10
-9.7440219455295125
 20
-22.193132866753469
 30
0.0
 10
-6.7833068847656248
 20
-26.043371582031249
 30
0.0
 10
-4.1016445583767354
 20
-27.577472601996526
 30
0.0
 10
-1.4120585123697915
 20
-27.42106526692708
 30
0.0
 10
-0.7414706759982638
 20
-23.68727077907986
 30
0.0
 10
-0.0758782280815972
 20
-19.691304524739582
 30
0.0
 10
-4.8209804958767357
 20
-17.609777832031249
 30
0.0
 10
-5.8191969129774304
 20
-22.160059950086804
 30
0.0
 10
-6.0736172146267355
 20
-23.315544976128471
 30
0.0
 10
-4.3371168348524298
 20
-23.697950575086804
 30
0.0
 10
-4.0825242784288189
 20
-22.540398491753471
 30
0.0
  0
SPLINE
  5
47
100
AcDbEntity
  8
LIVELLO_1
 62
     7
100
AcDbSpline
210
0.0
220
0.0
230
1.0
 70
     8
 71
     3
 72
    26
 73
    22
 74
     0
 42
0.00000001
 43
0.00000001
 40
0.0
 40
0.0
 40
0.0
 40
0.0
 40
1.0
 40
1.0
 40
1.0
 40
2.0
 40
2.0
 40
2.0
 40
3.0
 40
3.0
 40
3.0
 40
4.0
 40
4.0
 40
4.0
 40
5.0
 40
5.0
 40
5.0
 40
6.0
 40
6.0
 40
6.0
 40
7.0
 40
7.0
 40
7.0
 40
7.0
 10
-4.5526075575086802
 20
-24.698406304253471
 30
0.0
 10
-4.5526075575086802
 20
-24.698406304253471
 30
0.0
 10
-4.5526075575086802
 20
-24.698406304253471
 30
0.0
 10
-4.5526075575086802
 20
-24.698406304253471
 30
0.0
 10
-4.1658955891927079
 20
-24.698406304253471
 30
0.0
 10
-3.8549757215711802
 20
-25.073921712239581
 30
0.0
 10
-3.8549757215711802
 20
-25.537631564670136
 30
0.0
 10
-3.8549757215711802
 20
-25.537631564670136
 30
0.0
 10
-3.8549757215711802
 20
-29.049217393663191
 30
0.0
 10
-3.8549757215711802
 20
-29.049217393663191
 30
0.0
 10
-3.8549757215711802
 20
-29.513271755642357
 30
0.0
 10
-4.1658955891927079
 20
-29.888098144531249
 30
0.0
 10
-4.5526075575086802
 20
-29.888098144531249
 30
0.0
 10
-4.9434536404079861
 20
-29.888098144531249
 30
0.0
 10
-5.2543735080295138
 20
-29.513271755642357
 30
0.0
 10
-5.2543735080295138
 20
-29.049217393663191
 30
0.0
 10
-5.2543735080295138
 20
-29.049217393663191
 30
0.0
 10
-5.2543735080295138
 20
-25.537631564670136
 30
0.0
 10
-5.2543735080295138
 20
-25.537631564670136
 30
0.0
 10
-5.2543735080295138
 20
-25.073921712239581
 30
0.0
 10
-4.9434536404079861
 20
-24.698406304253471
 30
0.0
 10
-4.5526075575086802
 20
-24.698406304253471
 30
0.0
  0
MTEXT
  5
46
100
AcDbEntity
  8
LIVELLO_1
 62
     7
100
AcDbMText
 10
-20.584704
 20
-94.654855
 30
0.0
 40
7.882039
 41
0.0
 71
     1
 72
     2
  1
\fArial Narrow|b0|i0;\H7.8820;\C7;\U+0032\U+0037\U+0030
  7
STD
210
0.0
220
0.0
230
1.0
 73
     1
 44
1.0
  0
LINE
  5
45
100
AcDbEntity
  8
LIVELLO_1
 62
     7
100
AcDbLine
 10
29.109937
 20
-4.405071
 30
0.0
 11
29.106492
 21
-44.505638
 31
0.0
  0
LINE
  5
44
100
AcDbEntity
  8
LIVELLO_1
 62
     7
100
AcDbLine
 10
25.106736
 20
-4.405071
 30
0.0
 11
33.109521
 21
-4.405071
 31
0.0
  0
MTEXT
  5
43
100
AcDbEntity
  8
LIVELLO_1
 62
     7
100
AcDbMText
 10
21.804095
 20
-46.66812
 30
0.0
 40
7.882039
 41
0.0
 71
     1
 72
     2
  1
\fArial Narrow|b0|i0;\H7.8820;\C7;\U+0035\U+0033\U+0030
  7
STD
210
0.0
220
0.0
230
1.0
 73
     1
 44
1.0
  0
LINE
  5
42
100
AcDbEntity
  8
LIVELLO_1
 62
     7
100
AcDbLine
 10
24.930347
 20
-92.94058
 30
0.0
 11
32.9383
 21
-92.94058
 31
0.0
  0
LINE
  5
41
100
AcDbEntity
  8
LIVELLO_1
 62
     7
100
AcDbLine
 10
25.106736
 20
-93.031186
 30
0.0
 11
33.109521
 21
-93.031186
 31
0.0
  0
LINE
  5
40
100
AcDbEntity
  8
LIVELLO_1
 62
     7
100
AcDbLine
 10
29.109937
 20
-57.479179
 30
0.0
 11
29.106492
 21
-93.044967
 31
0.0
  0
MTEXT
  5
3F
100
AcDbEntity
  8
LIVELLO_1
 62
     7
100
AcDbMText
 10
-9.969676
 20
108.097139
 30
0.0
 40
6.849227
 41
0.0
 71
     1
 72
     2
  1
\fArial Narrow|b0|i0;\H6.8492;\C7;\U+0031\U+0032\U+0034
  7
STD
210
0.0
220
0.0
230
1.0
 73
     1
 44
1.0
  0
LINE
  5
3E
100
AcDbEntity
  8
LIVELLO_1
 62
     7
100
AcDbLine
 10
13.383249
 20
103.301705
 30
0.0
 11
5.962513
 21
103.301705
 31
0.0
  0
LINE
  5
3D
100
AcDbEntity
  8
LIVELLO_1
 62
     7
100
AcDbLine
 10
13.383249
 20
105.9515
 30
0.0
 11
13.383249
 21
100.650532
 31
0.0
  0
LINE
  5
3C
100
AcDbEntity
  8
LIVELLO_1
 62
     7
100
AcDbLine
 10
-19.89
 20
103.301705
 30
0.0
 11
-12.197274
 21
103.301705
 31
0.0
  0
LINE
  5
3B
100
AcDbEntity
  8
LIVELLO_1
 62
     7
100
AcDbLine
 10
-19.89
 20
100.650532
 30
0.0
 11
-19.89
 21
105.9515
 31
0.0
  0
MTEXT
  5
3A
100
AcDbEntity
  8
LIVELLO_1
 62
     7
100
AcDbMText
 10
-7.848358
 20
34.133522
 30
0.0
 40
6.849227
 41
0.0
 71
     1
 72
     2
  1
\fArial Narrow|b0|i0;\H6.8492;\C7;\U+0035\U+0030
  7
STD
210
0.0
220
0.0
230
1.0
 73
     1
 44
1.0
  0
LINE
  5
39
100
AcDbEntity
  8
LIVELLO_1
 62
     7
100
AcDbLine
 10
-27.97874
 20
62.996155
 30
0.0
 11
-27.97874
 21
40.023569
 31
0.0
  0
LINE
  5
38
100
AcDbEntity
  8
LIVELLO_1
 62
     7
100
AcDbLine
 10
-27.974261
 20
96.878497
 30
0.0
 11
-27.97874
 21
75.172328
 31
0.0
  0
LINE
  5
37
100
AcDbEntity
  8
LIVELLO_1
 62
     7
100
AcDbLine
 10
-31.456219
 20
40.023569
 30
0.0
 11
-24.498505
 21
40.023569
 31
0.0
  0
LINE
  5
36
100
AcDbEntity
  8
LIVELLO_1
 62
     7
100
AcDbLine
 10
-31.456219
 20
96.878497
 30
0.0
 11
-24.555004
 21
96.878497
 31
0.0
  0
MTEXT
  5
35
100
AcDbEntity
  8
LIVELLO_1
 62
     7
100
AcDbMText
 10
-36.123635
 20
73.643255
 30
0.0
 40
6.849227
 41
0.0
 71
     1
 72
     2
  1
\fArial Narrow|b0|i0;\H6.8492;\C7;\U+0032\U+0032\U+0030
  7
STD
210
0.0
220
0.0
230
1.0
 73
     1
 44
1.0
  0
LINE
  5
34
100
AcDbEntity
  8
LIVELLO_1
 62
     7
100
AcDbLine
 10
3.26862
 20
29.948043
 30
0.0
 11
3.26862
 21
63.762344
 31
0.0
  0
LINE
  5
33
100
AcDbEntity
  8
LIVELLO_1
 62
     7
100
AcDbLine
 10
-10.467664
 20
29.948043
 30
0.0
 11
-10.467664
 21
63.762344
 31
0.0
  0
CIRCLE
  5
32
100
AcDbEntity
  8
LIVELLO_1
 62
     7
100
AcDbCircle
 10
9.014867
 20
68.451808
 30
0.0
 40
0.758782
  0
SPLINE
  5
31
100
AcDbEntity
  8
LIVELLO_1
 62
     7
100
AcDbSpline
210
0.0
220
0.0
230
1.0
 70
     8
 71
     3
 72
   113
 73
   109
 74
     0
 42
0.00000001
 43
0.00000001
 40
0.0
 40
0.0
 40
0.0
 40
0.0
 40
1.0
 40
1.0
 40
1.0
 40
2.0
 40
2.0
 40
2.0
 40
3.0
 40
3.0
 40
3.0
 40
4.0
 40
4.0
 40
4.0
 40
5.0
 40
5.0
 40
5.0
 40
6.0
 40
6.0
 40
6.0
 40
7.0
 40
7.0
 40
7.0
 40
8.0
 40
8.0
 40
8.0
 40
9.0
 40
9.0
 40
9.0
 40
10.0
 40
10.0
 40
10.0
 40
11.0
 40
11.0
 40
11.0
 40
12.0
 40
12.0
 40
12.0
 40
13.0
 40
13.0
 40
13.0
 40
14.0
 40
14.0
 40
14.0
 40
15.0
 40
15.0
 40
15.0
 40
16.0
 40
16.0
 40
16.0
 40
17.0
 40
17.0
 40
17.0
 40
18.0
 40
18.0
 40
18.0
 40
19.0
 40
19.0
 40
19.0
 40
20.0
 40
20.0
 40
20.0
 40
21.0
 40
21.0
 40
21.0
 40
22.0
 40
22.0
 40
22.0
 40
23.0
 40
23.0
 40
23.0
 40
24.0
 40
24.0
 40
24.0
 40
25.0
 40
25.0
 40
25.0
 40
26.0
 40
26.0
 40
26.0
 40
27.0
 40
27.0
 40
27.0
 40
28.0
 40
28.0
 40
28.0
 40
29.0
 40
29.0
 40
29.0
 40
30.0
 40
30.0
 40
30.0
 40
31.0
 40
31.0
 40
31.0
 40
32.0
 40
32.0
 40
32.0
 40
33.0
 40
33.0
 40
33.0
 40
34.0
 40
34.0
 40
34.0
 40
35.0
 40
35.0
 40
35.0
 40
36.0
 40
36.0
 40
36.0
 40
36.0
 10
-3.2529452853732637
 20
56.522475857204853
 30
0.0
 10
-3.7071811252170135
 20
56.522475857204853
 30
0.0
 10
-4.0842468261718743
 20
56.188818359374991
 30
0.0
 10
-4.1536655002170138
 20
55.752841525607636
 30
0.0
 10
-4.2335917154947911
 20
55.433136664496523
 30
0.0
 10
-4.5238410101996527
 20
55.195080566406247
 30
0.0
 10
-4.8669725206163186
 20
55.195080566406247
 30
0.0
 10
-10.664895968967013
 20
55.924751790364581
 30
0.0
 10
-15.253590901692707
 20
60.259715440538187
 30
0.0
 10
-16.358605278862846
 20
65.849038357204861
 30
0.0
 10
-16.367218017578125
 20
65.899509006076386
 30
0.0
 10
-16.372385660807289
 20
65.946362304687497
 30
0.0
 10
-16.372385660807289
 20
65.993387858072907
 30
0.0
 10
-16.372385660807289
 20
66.377343749999994
 30
0.0
 10
-16.061465793185761
 20
66.688263617621516
 30
0.0
 10
-15.677509901258679
 20
66.688263617621516
 30
0.0
 10
-15.677509901258679
 20
66.688263617621516
 30
0.0
 10
-15.520241292317706
 20
66.683095974392359
 30
0.0
 10
-15.520241292317706
 20
66.683095974392359
 30
0.0
 10
-14.543728976779512
 20
66.683095974392359
 30
0.0
 10
-13.75049574110243
 20
67.475295681423603
 30
0.0
 10
-13.75049574110243
 20
68.451807996961804
 30
0.0
 10
-13.75049574110243
 20
69.428320312499991
 30
0.0
 10
-14.543728976779512
 20
70.222242567274293
 30
0.0
 10
-15.520241292317706
 20
70.222242567274293
 30
0.0
 10
-15.57243448893229
 20
70.222242567274293
 30
0.0
 10
-15.625316704644096
 20
70.22052001953125
 30
0.0
 10
-15.677509901258679
 20
70.213629828559021
 30
0.0
 10
-16.061465793185761
 20
70.213629828559021
 30
0.0
 10
-16.372385660807289
 20
70.526444498697913
 30
0.0
 10
-16.372385660807289
 20
70.910228135850687
 30
0.0
 10
-16.372385660807289
 20
70.955531141493054
 30
0.0
 10
-16.367218017578125
 20
71.002556694878464
 30
0.0
 10
-16.358605278862846
 20
71.04751519097222
 30
0.0
 10
-16.169986300998261
 20
72.006629774305551
 30
0.0
 10
-15.879909261067708
 20
72.927676052517356
 30
0.0
 10
-15.497675916883679
 20
73.801524522569437
 30
0.0
 10
-15.497675916883679
 20
73.801524522569437
 30
0.0
 10
-15.447205268012151
 20
73.893680826822916
 30
0.0
 10
-15.447205268012151
 20
73.893680826822916
 30
0.0
 10
-15.264787462022568
 20
74.199260796440967
 30
0.0
 10
-14.89650675455729
 20
74.3244900173611
 30
0.0
 10
-14.574218071831595
 20
74.209768337673609
 30
0.0
 10
-14.163218180338541
 20
74.063868543836804
 30
0.0
 10
-13.70553724500868
 20
74.216830783420136
 30
0.0
 10
-13.477816433376734
 20
74.597341579861109
 30
0.0
 10
-13.245100233289929
 20
74.986465115017353
 30
0.0
 10
-13.336223008897568
 20
75.481697591145831
 30
0.0
 10
-13.672292073567707
 20
75.762989637586799
 30
0.0
 10
-13.906903076171874
 20
75.99587809244791
 30
0.0
 10
-13.961680094401041
 20
76.366053602430554
 30
0.0
 10
-13.784429931640624
 20
76.66302083333332
 30
0.0
 10
-11.291214328342013
 20
79.825273980034709
 30
0.0
 10
-7.5036763509114577
 20
81.80947672526041
 30
0.0
 10
-3.2529452853732637
 20
81.80947672526041
 30
0.0
 10
0.9969245062934027
 20
81.80947672526041
 30
0.0
 10
4.784634738498263
 20
79.825273980034709
 30
0.0
 10
7.2309970431857629
 20
76.730889214409714
 30
0.0
 10
7.4551005045572909
 20
76.366053602430554
 30
0.0
 10
7.4003234863281246
 20
75.99587809244791
 30
0.0
 10
7.1676072862413189
 20
75.762989637586799
 30
0.0
 10
6.8311937120225688
 20
75.481697591145831
 30
0.0
 10
6.7383483886718745
 20
74.986465115017353
 30
0.0
 10
6.9727871365017355
 20
74.597341579861109
 30
0.0
 10
7.2015414767795134
 20
74.216830783420136
 30
0.0
 10
7.6566385904947909
 20
74.065591091579861
 30
0.0
 10
8.0588534884982632
 20
74.206323242187494
 30
0.0
 10
8.3914774576822904
 20
74.3244900173611
 30
0.0
 10
8.7582078721788186
 20
74.197710503472209
 30
0.0
 10
8.9406256781684021
 20
73.893680826822916
 30
0.0
 10
8.9406256781684021
 20
73.893680826822916
 30
0.0
 10
8.9909240722656243
 20
73.801524522569437
 30
0.0
 10
8.9909240722656243
 20
73.801524522569437
 30
0.0
 10
9.3731574164496525
 20
72.927676052517356
 30
0.0
 10
9.6651292588975686
 20
72.006629774305551
 30
0.0
 10
9.8535759819878468
 20
71.04751519097222
 30
0.0
 10
9.8623609754774293
 20
71.002556694878464
 30
0.0
 10
9.8683898925781239
 20
70.955531141493054
 30
0.0
 10
9.8683898925781239
 20
70.910228135850687
 30
0.0
 10
9.8683898925781239
 20
70.526444498697913
 30
0.0
 10
9.5547139485677075
 20
70.213629828559021
 30
0.0
 10
9.1724806043836793
 20
70.213629828559021
 30
0.0
 10
9.1204596625434018
 20
70.22052001953125
 30
0.0
 10
9.06740519205729
 20
70.222242567274293
 30
0.0
 10
9.0136617024739571
 20
70.222242567274293
 30
0.0
 10
8.0371493869357629
 20
70.222242567274293
 30
0.0
 10
7.2458109537760409
 20
69.428320312499991
 30
0.0
 10
7.2458109537760409
 20
68.451807996961804
 30
0.0
 10
7.2458109537760409
 20
67.475295681423603
 30
0.0
 10
8.0371493869357629
 20
66.683095974392359
 30
0.0
 10
9.0136617024739571
 20
66.683095974392359
 30
0.0
 10
9.0136617024739571
 20
66.683095974392359
 30
0.0
 10
9.1724806043836793
 20
66.688263617621516
 30
0.0
 10
9.1724806043836793
 20
66.688263617621516
 30
0.0
 10
9.5547139485677075
 20
66.688263617621516
 30
0.0
 10
9.8683898925781239
 20
66.377343749999994
 30
0.0
 10
9.8683898925781239
 20
65.993387858072907
 30
0.0
 10
9.8683898925781239
 20
65.946362304687497
 30
0.0
 10
9.8623609754774293
 20
65.899509006076386
 30
0.0
 10
9.8518534342447914
 20
65.849038357204861
 30
0.0
 10
8.7485616048177075
 20
60.259715440538187
 30
0.0
 10
4.1609002007378466
 20
55.924751790364581
 30
0.0
 10
-1.5562357584635416
 20
55.200248209635411
 30
0.0
 10
-1.9829108344184025
 20
55.195080566406247
 30
0.0
 10
-2.2728156195746525
 20
55.433136664496523
 30
0.0
 10
-2.3510192871093749
 20
55.752841525607636
 30
0.0
 10
-2.4206102159288192
 20
56.188818359374991
 30
0.0
 10
-2.7976759168836804
 20
56.522475857204853
 30
0.0
 10
-3.2529452853732637
 20
56.522475857204853
 30
0.0
  0
CIRCLE
  5
30
100
AcDbEntity
  8
LIVELLO_1
 62
     7
100
AcDbCircle
 10
-15.520672
 20
68.451808
 30
0.0
 40
0.758007
  0
CIRCLE
  5
2F
100
AcDbEntity
  8
LIVELLO_1
 62
     7
100
AcDbCircle
 10
3.303847
 20
68.451808
 30
0.0
 40
0.78574
  0
CIRCLE
  5
2E
100
AcDbEntity
  8
LIVELLO_1
 62
     7
100
AcDbCircle
 10
-9.810598
 20
68.451808
 30
0.0
 40
0.78574
  0
CIRCLE
  5
2D
100
AcDbEntity
  8
LIVELLO_1
 62
     7
100
AcDbCircle
 10
-3.25329
 20
68.451808
 30
0.0
 40
3.700377
  0
SPLINE
  5
2C
100
AcDbEntity
  8
LIVELLO_1
 62
     7
100
AcDbSpline
210
0.0
220
0.0
230
1.0
 70
     8
 71
     3
 72
    59
 73
    55
 74
     0
 42
0.00000001
 43
0.00000001
 40
0.0
 40
0.0
 40
0.0
 40
0.0
 40
1.0
 40
1.0
 40
1.0
 40
2.0
 40
2.0
 40
2.0
 40
3.0
 40
3.0
 40
3.0
 40
4.0
 40
4.0
 40
4.0
 40
5.0
 40
5.0
 40
5.0
 40
6.0
 40
6.0
 40
6.0
 40
7.0
 40
7.0
 40
7.0
 40
8.0
 40
8.0
 40
8.0
 40
9.0
 40
9.0
 40
9.0
 40
10.0
 40
10.0
 40
10.0
 40
11.0
 40
11.0
 40
11.0
 40
12.0
 40
12.0
 40
12.0
 40
13.0
 40
13.0
 40
13.0
 40
14.0
 40
14.0
 40
14.0
 40
15.0
 40
15.0
 40
15.0
 40
16.0
 40
16.0
 40
16.0
 40
17.0
 40
17.0
 40
17.0
 40
18.0
 40
18.0
 40
18.0
 40
18.0
 10
13.383248562282985
 20
68.451807996961804
 30
0.0
 10
13.383248562282985
 20
73.801524522569437
 30
0.0
 10
11.922872585720485
 20
78.000923665364581
 30
0.0
 10
11.922872585720485
 20
78.000923665364581
 30
0.0
 10
6.4274285210503468
 20
80.582850477430554
 30
0.0
 10
5.5699442545572913
 20
86.477925618489579
 30
0.0
 10
5.5699442545572913
 20
86.477925618489579
 30
0.0
 10
1.5963711208767359
 20
90.187432183159714
 30
0.0
 10
1.2637471516927081
 20
94.56063639322916
 30
0.0
 10
1.0647928873697916
 20
95.356281195746519
 30
0.0
 10
0.8675611707899305
 20
96.150547960069431
 30
0.0
 10
0.1377176920572917
 20
96.878496636284709
 30
0.0
 10
-0.9879672580295138
 20
96.878496636284709
 30
0.0
 10
-0.9879672580295138
 20
96.878496636284709
 30
0.0
 10
-5.51844007703993
 20
96.878496636284709
 30
0.0
 10
-5.51844007703993
 20
96.878496636284709
 30
0.0
 10
-6.6444695366753468
 20
96.878496636284709
 30
0.0
 10
-7.3724182128906239
 20
96.150547960069431
 30
0.0
 10
-7.5713724772135409
 20
95.356281195746519
 30
0.0
 10
-7.7686041937934025
 20
94.56063639322916
 30
0.0
 10
-8.1012281629774296
 20
90.187432183159714
 30
0.0
 10
-12.076523844401041
 20
86.477925618489579
 30
0.0
 10
-12.076523844401041
 20
86.477925618489579
 30
0.0
 10
-12.932285563151041
 20
80.582850477430554
 30
0.0
 10
-18.429624430338539
 20
78.000923665364581
 30
0.0
 10
-18.429624430338539
 20
78.000923665364581
 30
0.0
 10
-19.890000406901041
 20
73.801524522569437
 30
0.0
 10
-19.890000406901041
 20
68.451807996961804
 30
0.0
 10
-19.890000406901041
 20
63.10398627387152
 30
0.0
 10
-18.429624430338539
 20
58.902864583333326
 30
0.0
 10
-18.429624430338539
 20
58.902864583333326
 30
0.0
 10
-12.932285563151041
 20
56.320937771267353
 30
0.0
 10
-12.076523844401041
 20
50.425862630208329
 30
0.0
 10
-12.076523844401041
 20
50.425862630208329
 30
0.0
 10
-8.1012281629774296
 20
46.71446126302083
 30
0.0
 10
-7.7686041937934025
 20
42.343151855468747
 30
0.0
 10
-7.5713724772135409
 20
41.547334798177083
 30
0.0
 10
-7.3724182128906239
 20
40.753240288628469
 30
0.0
 10
-6.6444695366753468
 20
40.023569064670134
 30
0.0
 10
-5.51844007703993
 20
40.023569064670134
 30
0.0
 10
-5.51844007703993
 20
40.023569064670134
 30
0.0
 10
-0.9879672580295138
 20
40.023569064670134
 30
0.0
 10
-0.9879672580295138
 20
40.023569064670134
 30
0.0
 10
0.1377176920572917
 20
40.023569064670134
 30
0.0
 10
0.8675611707899305
 20
40.753240288628469
 30
0.0
 10
1.0647928873697916
 20
41.547334798177083
 30
0.0
 10
1.2637471516927081
 20
42.343151855468747
 30
0.0
 10
1.5963711208767359
 20
46.71446126302083
 30
0.0
 10
5.5699442545572913
 20
50.425862630208329
 30
0.0
 10
5.5699442545572913
 20
50.425862630208329
 30
0.0
 10
6.4274285210503468
 20
56.320937771267353
 30
0.0
 10
11.922872585720485
 20
58.902864583333326
 30
0.0
 10
11.922872585720485
 20
58.902864583333326
 30
0.0
 10
13.383248562282985
 20
63.10398627387152
 30
0.0
 10
13.383248562282985
 20
68.451807996961804
 30
0.0
  0
ENDBLK
  5
8C
100
AcDbEntity
  8
LIVELLO_1
100
AcDbBlockEnd
  0
ENDSEC
  0
SECTION
  2
ENTITIES
  0
INSERT
  5
2A
100
AcDbEntity
  8
LIVELLO_1
 62
     7
100
AcDbBlockReference
  2
AI9-BLK1
 10
38.807709
 20
109.145965
 30
0.0
  0
ENDSEC
  0
SECTION
  2
OBJECTS
  0
DICTIONARY
  5
19
100
AcDbDictionary
280
     0
281
     1
  3
ACAD_GROUP
350
1A
  3
ACAD_MLINESTYLE
350
1B
  3
ACAD_LAYOUT
350
1E
  3
ACAD_PLOTSETTINGS
350
22
  3
ACAD_PLOTSTYLENAME
350
1F
  3
ACAD_WIPEOUT_VARS
350
23
  0
DICTIONARY
  5
1A
102
{ACAD_REACTORS
330
19
102
}
100
AcDbDictionary
280
     0
281
     1
  0
DICTIONARY
  5
1B
102
{ACAD_REACTORS
330
19
102
}
100
AcDbDictionary
280
     0
281
     1
  3
Standard
350
1C
  0
MLINESTYLE
  5
1C
102
{ACAD_REACTORS
330
1B
102
}
100
AcDbMlineStyle
  2
Standard
 70
     0
  3

 62
     0
 51
90.0
 52
90.0
 71
     2
 49
0.5
 62
   256
  6
ByLayer
 49
-0.5
 62
   256
  6
ByLayer
  0
ACDBDICTIONARYWDFLT
  5
1F
102
{ACAD_REACTORS
330
19
102
}
100
AcDbDictionary
281
     1
  3
Normal
350
1D
100
AcDbDictionaryWithDefault
340
1D
  0
ACDBPLACEHOLDER
  5
1D
102
{ACAD_REACTORS
330
1F
102
}
  0
LAYOUT
  5
20
102
{ACAD_REACTORS
330
1E
102
}
100
AcDbPlotSettings
  1

  2

  4

  6

 40
0.0
 41
0.0
 42
0.0
 43
0.0
 44
0.0
 45
0.0
 46
0.0
 47
0.0
 48
0.0
 49
0.0
140
0.0
141
0.0
142
1.0
143
1.0
 70
  1024
 72
     0
 73
     0
 74
     0
  7

 75
     0
147
1.0
148
0.0
149
0.0
100
AcDbLayout
  1
Model
 70
     0
 71
     0
 10
0.0
 20
0.0
 11
0.0
 21
0.0
 12
0.0
 22
0.0
 32
0.0
 14
0.0
 24
0.0
 34
0.0
 15
0.0
 25
0.0
 35
0.0
146
0.0
 13
0.0
 23
0.0
 33
0.0
 16
0.0
 26
0.0
 36
0.0
 17
0.0
 27
0.0
 37
0.0
 76
     0
330
A
331
0
345
0
346
0
  0
LAYOUT
  5
21
102
{ACAD_REACTORS
330
1E
102
}
100
AcDbPlotSettings
  1

  2

  4

  6

 40
0.0
 41
0.0
 42
0.0
 43
0.0
 44
0.0
 45
0.0
 46
0.0
 47
0.0
 48
0.0
 49
0.0
140
0.0
141
0.0
142
1.0
143
1.0
 70
     0
 72
     0
 73
     0
 74
     0
  7

 75
     0
147
1.0
148
0.0
149
0.0
100
AcDbLayout
  1
Layout1
 70
     0
 71
     0
 10
0.0
 20
0.0
 11
0.0
 21
0.0
 12
0.0
 22
0.0
 32
0.0
 14
0.0
 24
0.0
 34
0.0
 15
0.0
 25
0.0
 35
0.0
146
0.0
 13
0.0
 23
0.0
 33
0.0
 16
0.0
 26
0.0
 36
0.0
 17
0.0
 27
0.0
 37
0.0
 76
     0
330
B
331
0
345
0
346
0
  0
DICTIONARY
  5
1E
102
{ACAD_REACTORS
330
19
102
}
100
AcDbDictionary
280
     0
281
     1
  3
Layout1
350
21
  3
Model
350
20
  0
DICTIONARY
  5
22
102
{ACAD_REACTORS
330
19
102
}
100
AcDbDictionary
280
     0
281
     1
  0
WIPEOUTVARIABLES
  5
23
100
AcDbWipeoutVariables
 70
     1
  0
ENDSEC
  0
EOF
