  0
SECTION
  2
HEADER
  9
$ACADVER
  1
AC1015
  9
$ACADMAINTVER
 70
     6
  9
$DWGCODEPAGE
  3
ANSI_932
  9
$INSBASE
 10
0.0
 20
0.0
 30
0.0
  9
$EXTMIN
 10
0.0
 20
0.0
 30
1.000000E+20
  9
$EXTMAX
 10
74.993355
 20
254.530372
 30
-1.000000E+20
  9
$LIMMIN
 10
0.0
 20
0.0
  9
$LIMMAX
 10
74.993355
 20
254.530372
  9
$ORTHOMODE
 70
     0
  9
$REGENMODE
 70
     1
  9
$FILLMODE
 70
     1
  9
$QTEXTMODE
 70
     0
  9
$MIRRTEXT
 70
     1
  9
$LTSCALE
 40
1.0
  9
$ATTMODE
 70
     1
  9
$TEXTSIZE
 40
0.2
  9
$TRACEWID
 40
0.05
  9
$TEXTSTYLE
  7
Standard
  9
$CLAYER
  8
0
  9
$CELTYPE
  6
Continuous
  9
$CECOLOR
 62
   256
  9
$CELTSCALE
 40
1.0
  9
$DISPSILH
 70
     0
  9
$DIMSCALE
 40
1.0
  9
$DIMASZ
 40
0.18
  9
$DIMEXO
 40
0.0625
  9
$DIMDLI
 40
0.38
  9
$DIMRND
 40
0.0
  9
$DIMDLE
 40
0.0
  9
$DIMEXE
 40
0.18
  9
$DIMTP
 40
0.0
  9
$DIMTM
 40
0.0
  9
$DIMTXT
 40
0.18
  9
$DIMCEN
 40
0.09
  9
$DIMTSZ
 40
0.0
  9
$DIMTOL
 70
     0
  9
$DIMLIM
 70
     0
  9
$DIMTIH
 70
     1
  9
$DIMTOH
 70
     1
  9
$DIMSE1
 70
     0
  9
$DIMSE2
 70
     0
  9
$DIMTAD
 70
     0
  9
$DIMZIN
 70
     0
  9
$DIMBLK
  1

  9
$DIMASO
 70
     1
  9
$DIMSHO
 70
     1
  9
$DIMPOST
  1

  9
$DIMAPOST
  1

  9
$DIMALT
 70
     0
  9
$DIMALTD
 70
     2
  9
$DIMALTF
 40
25.4
  9
$DIMLFAC
 40
1.0
  9
$DIMTOFL
 70
     0
  9
$DIMTVP
 40
0.0
  9
$DIMTIX
 70
     0
  9
$DIMSOXD
 70
     0
  9
$DIMSAH
 70
     0
  9
$DIMBLK1
  1

  9
$DIMBLK2
  1

  9
$DIMSTYLE
  2
Standard
  9
$DIMCLRD
 70
     0
  9
$DIMCLRE
 70
     0
  9
$DIMCLRT
 70
     0
  9
$DIMTFAC
 40
1.0
  9
$DIMGAP
 40
0.09
  9
$DIMJUST
 70
     0
  9
$DIMSD1
 70
     0
  9
$DIMSD2
 70
     0
  9
$DIMTOLJ
 70
     1
  9
$DIMTZIN
 70
     0
  9
$DIMALTZ
 70
     0
  9
$DIMALTTZ
 70
     0
  9
$DIMUPT
 70
     0
  9
$DIMDEC
 70
     4
  9
$DIMTDEC
 70
     4
  9
$DIMALTU
 70
     2
  9
$DIMALTTD
 70
     2
  9
$DIMTXSTY
  7
Standard
  9
$DIMAUNIT
 70
     0
  9
$DIMADEC
 70
     0
  9
$DIMALTRND
 40
0.0
  9
$DIMAZIN
 70
     0
  9
$DIMDSEP
 70
     0
  9
$DIMATFIT
 70
     3
  9
$DIMFRAC
 70
     0
  9
$DIMLDRBLK
  1

  9
$DIMLUNIT
 70
     2
  9
$DIMLWD
 70
     0
  9
$DIMLWE
 70
     0
  9
$DIMTMOVE
 70
     0
  9
$LUNITS
 70
     2
  9
$LUPREC
 70
     4
  9
$SKETCHINC
 40
0.1
  9
$FILLETRAD
 40
0.0
  9
$AUNITS
 70
     0
  9
$AUPREC
 70
     0
  9
$MENU
  1
acad
  9
$ELEVATION
 40
0.0
  9
$PELEVATION
 40
0.0
  9
$THICKNESS
 40
0.0
  9
$LIMCHECK
 70
     0
  9
$CHAMFERA
 40
0.0
  9
$CHAMFERB
 40
0.0
  9
$CHAMFERC
 40
0.0
  9
$CHAMFERD
 40
0.0
  9
$SKPOLY
 70
     0
  9
$TDCREATE
 40
0.000000000
  9
$TDUCREATE
 40
0.000000000
  9
$TDUPDATE
 40
0.000000000
  9
$TDUUPDATE
 40
0.000000000
  9
$TDINDWG
 40
0.0000000000
  9
$TDUSRTIMER
 40
0.0000000000
  9
$USRTIMER
 70
     1
  9
$ANGBASE
 50
0.0
  9
$ANGDIR
 70
     0
  9
$PDMODE
 70
     0
  9
$PDSIZE
 40
0.0
  9
$PLINEWID
 40
0.0
  9
$SPLFRAME
 70
     0
  9
$SPLINETYPE
 70
     6
  9
$SPLINESEGS
 70
     8
  9
$HANDSEED
  5
8C
  9
$SURFTAB1
 70
     6
  9
$SURFTAB2
 70
     6
  9
$SURFTYPE
 70
     6
  9
$SURFU
 70
     6
  9
$SURFV
 70
     6
  9
$UCSBASE
  2

  9
$UCSNAME
  2

  9
$UCSORG
 10
0.0
 20
0.0
 30
0.0
  9
$UCSXDIR
 10
1.0
 20
0.0
 30
0.0
  9
$UCSYDIR
 10
0.0
 20
1.0
 30
0.0
  9
$UCSORTHOREF
  2

  9
$UCSORTHOVIEW
 70
     0
  9
$UCSORGTOP
 10
0.0
 20
0.0
 30
0.0
  9
$UCSORGBOTTOM
 10
0.0
 20
0.0
 30
0.0
  9
$UCSORGLEFT
 10
0.0
 20
0.0
 30
0.0
  9
$UCSORGRIGHT
 10
0.0
 20
0.0
 30
0.0
  9
$UCSORGFRONT
 10
0.0
 20
0.0
 30
0.0
  9
$UCSORGBACK
 10
0.0
 20
0.0
 30
0.0
  9
$PUCSBASE
  2

  9
$PUCSNAME
  2

  9
$PUCSORG
 10
0.0
 20
0.0
 30
0.0
  9
$PUCSXDIR
 10
1.0
 20
0.0
 30
0.0
  9
$PUCSYDIR
 10
0.0
 20
1.0
 30
0.0
  9
$PUCSORTHOREF
  2

  9
$PUCSORTHOVIEW
 70
     0
  9
$PUCSORGTOP
 10
0.0
 20
0.0
 30
0.0
  9
$PUCSORGBOTTOM
 10
0.0
 20
0.0
 30
0.0
  9
$PUCSORGLEFT
 10
0.0
 20
0.0
 30
0.0
  9
$PUCSORGRIGHT
 10
0.0
 20
0.0
 30
0.0
  9
$PUCSORGFRONT
 10
0.0
 20
0.0
 30
0.0
  9
$PUCSORGBACK
 10
0.0
 20
0.0
 30
0.0
  9
$USERI1
 70
     0
  9
$USERI2
 70
     0
  9
$USERI3
 70
     0
  9
$USERI4
 70
     0
  9
$USERI5
 70
     0
  9
$USERR1
 40
0.0
  9
$USERR2
 40
0.0
  9
$USERR3
 40
0.0
  9
$USERR4
 40
0.0
  9
$USERR5
 40
0.0
  9
$WORLDVIEW
 70
     1
  9
$SHADEDGE
 70
     3
  9
$SHADEDIF
 70
    70
  9
$TILEMODE
 70
     1
  9
$MAXACTVP
 70
    16
  9
$PINSBASE
 10
0.0
 20
0.0
 30
0.0
  9
$PLIMCHECK
 70
     0
  9
$PEXTMIN
 10
1.000000E+20
 20
1.000000E+20
 30
1.000000E+20
  9
$PEXTMAX
 10
-1.000000E+20
 20
-1.000000E+20
 30
-1.000000E+20
  9
$PLIMMIN
 10
0.0
 20
0.0
  9
$PLIMMAX
 10
12.0
 20
9.0
  9
$UNITMODE
 70
     0
  9
$VISRETAIN
 70
     0
  9
$PLINEGEN
 70
     1
  9
$PSLTSCALE
 70
     0
  9
$TREEDEPTH
 70
  3020
  9
$CMLSTYLE
  2
Standard
  9
$CMLJUST
 70
     0
  9
$CMLSCALE
 40
1.0
  9
$PROXYGRAPHICS
 70
     0
  9
$MEASUREMENT
 70
     1
  9
$CELWEIGHT
370
     0
  9
$ENDCAPS
280
     0
  9
$JOINSTYLE
280
     0
  9
$LWDISPLAY
290
     0
  9
$INSUNITS
 70
     0
  9
$HYPERLINKBASE
  1

  9
$STYLESHEET
  1

  9
$XEDIT
290
     1
  9
$CEPSNTYPE
380
     0
  9
$PSTYLEMODE
290
     1
  9
$FINGERPRINTGUID
  2

  9
$VERSIONGUID
  2

  9
$EXTNAMES
290
     1
  9
$PSVPSCALE
 40
0.0
  0
ENDSEC
  0
SECTION
  2
CLASSES
  0
CLASS
  1
LWPOLYLINE
  2
AcDbPolyline
  3
AutoCAD 2000
 90
    32768
280
     0
281
     1
  0
CLASS
  1
IMAGE
  2
AcDbRasterImage
  3
ISM
 90
    32895
280
     0
281
     1
  0
CLASS
  1
OLE2FRAME
  2
AcDbOle2Frame
  3
AutoCAD 2000
 90
    32768
280
     0
281
     1
  0
CLASS
  1
HATCH
  2
AcDbHatch
  3
AutoCAD 2000
 90
    32768
280
     0
281
     1
  0
CLASS
  1
DICTIONARYVAR
  2
AcDbDictionaryVar
  3
AutoCAD 2000
 90
    32768
280
     0
281
     0
  0
CLASS
  1
RASTERVARIABLES
  2
AcDbRasterVariables
  3
ISM
 90
    32768
280
     0
281
     0
  0
CLASS
  1
IMAGEDEF
  2
AcDbRasterImageDef
  3
ISM
 90
    32768
280
     0
281
     0
  0
CLASS
  1
IMAGEDEF_REACTOR
  2
AcDbRasterImageDefReactor
  3
ISM
 90
    32769
280
     0
281
     0
  0
CLASS
  1
IDBUFFER
  2
AcDbIdBuffer
  3
AutoCAD 2000
 90
    32768
280
     0
281
     0
  0
CLASS
  1
SPATIAL_FILTER
  2
AcDbSpatialFilter
  3
AutoCAD 2000
 90
    32768
280
     0
281
     0
  0
CLASS
  1
XRECORD
  2
AcDbXrecord
  3
AutoCAD 2000
 90
    32768
280
     0
281
     0
  0
CLASS
  1
SORTENTSTABLE
  2
AcDbSortentsTable
  3
AutoCAD 2000
 90
    32768
280
     0
281
     0
  0
CLASS
  1
LAYER_INDEX
  2
AcDbLayerIndex
  3
AutoCAD 2000
 90
    32768
280
     0
281
     0
  0
CLASS
  1
SPATIAL_INDEX
  2
AcDbSpatialIndex
  3
AutoCAD 2000
 90
    32768
280
     0
281
     0
  0
CLASS
  1
OBJECT_PTR
  2
CAseDLPNTableRecord
  3
"ASE-LPNTableRecord"
 90
    32769
280
     0
281
     0
  0
CLASS
  1
LAYOUT
  2
AcDbLayout
  3
AutoCAD 2000
 90
        0
280
     0
281
     0
  0
CLASS
  1
PLOTSETTINGS
  2
AcDbPlotSettings
  3
AutoCAD 2000
 90
    32768
280
     0
281
     0
  0
CLASS
  1
ACDBDICTIONARYWDFLT
  2
AcDbDictionaryWithDefault
  3
AutoCAD 2000
 90
        0
280
     0
281
     0
  0
CLASS
  1
ACDBPLACEHOLDER
  2
AcDbPlaceHolder
  3
AutoCAD 2000
 90
        0
280
     0
281
     0
  0
CLASS
  1
VBA_PROJECT
  2
AcDbVbaProject
  3
acadvba
 90
    32768
280
     0
281
     0
  0
CLASS
  1
WIPEOUT
  2
AcDbWipeout
  3
WipeOut|AutoCAD Express Tool|expresstools@autodesk.com
 90
    32895
280
     0
281
     1
  0
CLASS
  1
WIPEOUTVARIABLES
  2
AcDbWipeoutVariables
  3
WipeOut|AutoCAD Express Tool|expresstools@autodesk.com
 90
        0
280
     0
281
     0
  0
CLASS
  1
RTEXT
  2
RText
  3
RText|AutoCAD Express Tool|expresstools@autodesk.com
 90
    32768
280
     0
281
     1
  0
CLASS
  1
ARCALIGNEDTEXT
  2
AcDbArcAlignedText
  3
ATEXT|AutoCAD Express Tool|expresstools@autodesk.com
 90
    32768
280
     0
281
     1
  0
ENDSEC
  0
SECTION
  2
TABLES
  0
TABLE
  2
VPORT
  5
7
100
AcDbSymbolTable
 70
     1
  0
VPORT
  5
15
100
AcDbSymbolTableRecord
100
AcDbViewportTableRecord
  2
*ACTIVE
 70
     0
 10
0.0
 20
0.0
 11
1.0
 21
1.0
 12
6.591288
 22
4.579184
 13
0.0
 23
0.0
 14
1.0
 24
1.0
 15
0.0
 25
0.0
 16
0.0
 26
0.0
 36
1.0
 17
0.0
 27
0.0
 37
0.0
 40
9.158369
 41
0.688564
 42
50.0
 43
0.0
 44
0.0
 50
0.0
 51
0.0
 71
     0
 72
   100
 73
     1
 74
     1
 75
     0
 76
     0
 77
     0
 78
     0
281
     0
 65
     0
110
0.0
120
0.0
130
0.0
111
1.0
121
0.0
131
0.0
112
0.0
122
1.0
132
0.0
345
0
346
0
 79
     0
146
0.0
  0
ENDTAB
  0
TABLE
  2
LTYPE
  5
4
100
AcDbSymbolTable
 70
     3
  0
LTYPE
  5
11
100
AcDbSymbolTableRecord
100
AcDbLinetypeTableRecord
  2
ByBlock
 70
    64
  3

 72
    65
 73
     0
 40
0.0
  0
LTYPE
  5
12
100
AcDbSymbolTableRecord
100
AcDbLinetypeTableRecord
  2
ByLayer
 70
    64
  3

 72
    65
 73
     0
 40
0.0
  0
LTYPE
  5
13
100
AcDbSymbolTableRecord
100
AcDbLinetypeTableRecord
  2
Continuous
 70
    64
  3
Solid line
 72
    65
 73
     0
 40
0.0
  0
ENDTAB
  0
TABLE
  2
LAYER
  5
2
100
AcDbSymbolTable
 70
     2
  0
LAYER
  5
14
100
AcDbSymbolTableRecord
100
AcDbLayerTableRecord
  2
0
 70
     0
 62
     7
  6
Continuous
290
     1
370
    -3
390
1D
  0
LAYER
  5
28
100
AcDbSymbolTableRecord
100
AcDbLayerTableRecord
  2
LIVELLO_1
 70
     0
 62
   160
  6
Continuous
290
     1
370
    -3
390
1D
  0
ENDTAB
  0
TABLE
  2
STYLE
  5
3
100
AcDbSymbolTable
 70
     5
  0
STYLE
  5
17
100
AcDbSymbolTableRecord
100
AcDbTextStyleTableRecord
  2
Standard
 70
     0
 40
0.0
 41
1.0
 50
0.0
 71
     0
 42
0.0
  3
txt
  4

  0
STYLE
  5
24
100
AcDbSymbolTableRecord
100
AcDbTextStyleTableRecord
  2
STD
 70
     0
 40
0.0
 41
1.0
 50
0.0
 71
     0
 42
0.0
  3
txt
  4

  0
STYLE
  5
25
100
AcDbSymbolTableRecord
100
AcDbTextStyleTableRecord
  2
TATESTD
 70
     4
 40
0.0
 41
1.0
 50
0.0
 71
     0
 42
0.0
  3
txt
  4

  0
STYLE
  5
26
100
AcDbSymbolTableRecord
100
AcDbTextStyleTableRecord
  2
KANJISTD
 70
     0
 40
0.0
 41
1.0
 50
0.0
 71
     0
 42
0.0
  3
txt
  4
extfont
  0
STYLE
  5
27
100
AcDbSymbolTableRecord
100
AcDbTextStyleTableRecord
  2
KANJITATE
 70
     4
 40
0.0
 41
1.0
 50
0.0
 71
     0
 42
0.0
  3
txt
  4
extfont
  0
ENDTAB
  0
TABLE
  2
VIEW
  5
5
100
AcDbSymbolTable
 70
     0
  0
ENDTAB
  0
TABLE
  2
UCS
  5
6
100
AcDbSymbolTable
 70
     0
  0
ENDTAB
  0
TABLE
  2
APPID
  5
8
100
AcDbSymbolTable
 70
     1
  0
APPID
  5
16
100
AcDbSymbolTableRecord
100
AcDbRegAppTableRecord
  2
ACAD
 70
     0
  0
ENDTAB
  0
TABLE
  2
DIMSTYLE
  5
9
100
AcDbSymbolTable
 70
     1
100
AcDbDimStyleTable
 71
     0
  0
DIMSTYLE
105
18
100
AcDbSymbolTableRecord
100
AcDbDimStyleTableRecord
  2
Standard
 70
     0
  3

  4

 40
1.0
 41
0.18
 42
0.0625
 43
0.38
 44
0.18
 45
0.0
 46
0.0
 47
0.0
 48
0.0
 71
     0
 72
     0
 73
     1
 74
     1
 75
     0
 76
     0
 77
     0
 78
     0
 79
     0
140
0.18
141
0.09
142
0.0
143
25.4
144
1.0
145
0.0
146
1.0
147
0.09
148
0.0
170
     0
171
     2
172
     0
173
     0
174
     0
175
     0
176
     0
177
     0
178
     0
179
     0
271
     4
272
     4
273
     2
274
     2
275
     0
276
     0
277
     2
278
    46
279
     0
280
     0
281
     0
282
     0
283
     1
284
     0
285
     0
286
     0
288
     0
340
17
341
0
342
0
343
0
344
0
371
    -2
372
    -2
  0
ENDTAB
  0
TABLE
  2
BLOCK_RECORD
  5
1
100
AcDbSymbolTable
 70
     1
  0
BLOCK_RECORD
  5
A
100
AcDbSymbolTableRecord
100
AcDbBlockTableRecord
  2
*MODEL_SPACE
340
20
  0
BLOCK_RECORD
  5
B
100
AcDbSymbolTableRecord
100
AcDbBlockTableRecord
  2
*PAPER_SPACE
340
21
  0
BLOCK_RECORD
  5
29
100
AcDbSymbolTableRecord
100
AcDbBlockTableRecord
  2
AI9-BLK1
340
0
102
{BLKREFS
331
2A
102
}
  0
ENDTAB
  0
ENDSEC
  0
SECTION
  2
BLOCKS
  0
BLOCK
  5
D
100
AcDbEntity
  8
0
100
AcDbBlockBegin
  2
*MODEL_SPACE
 70
     0
 10
0.0
 20
0.0
 30
0.0
  3
*MODEL_SPACE
  1

  0
ENDBLK
  5
E
100
AcDbEntity
  8
0
100
AcDbBlockEnd
  0
BLOCK
  5
F
100
AcDbEntity
 67
     1
  8
0
100
AcDbBlockBegin
  2
*PAPER_SPACE
 70
     0
 10
0.0
 20
0.0
 30
0.0
  3
*PAPER_SPACE
  1

  0
ENDBLK
  5
10
100
AcDbEntity
 67
     1
  8
0
100
AcDbBlockEnd
  0
BLOCK
  5
2B
100
AcDbEntity
  8
LIVELLO_1
 62
     7
100
AcDbBlockBegin
  2
AI9-BLK1
 70
     0
 10
0.0
 20
0.0
 30
0.0
  3
AI9-BLK1
  1

  0
LINE
  5
8A
100
AcDbEntity
  8
LIVELLO_1
 62
     7
100
AcDbLine
 10
-32.481135
 20
-8.696024
 30
0.0
 11
11.078824
 21
-8.696024
 31
0.0
  0
LINE
  5
89
100
AcDbEntity
  8
LIVELLO_1
 62
     7
100
AcDbLine
 10
-16.967009
 20
13.532421
 30
0.0
 11
-4.437197
 21
13.532421
 31
0.0
  0
LINE
  5
88
100
AcDbEntity
  8
LIVELLO_1
 62
     7
100
AcDbLine
 10
-18.045152
 20
10.212383
 30
0.0
 11
-3.357159
 21
10.212383
 31
0.0
  0
LINE
  5
87
100
AcDbEntity
  8
LIVELLO_1
 62
     7
100
AcDbLine
 10
-20.827928
 20
8.165307
 30
0.0
 11
-0.57335
 21
8.165307
 31
0.0
  0
LINE
  5
86
100
AcDbEntity
  8
LIVELLO_1
 62
     7
100
AcDbLine
 10
-24.955841
 20
5.38167
 30
0.0
 11
3.551635
 21
5.38167
 31
0.0
  0
POLYLINE
  5
7F
100
AcDbEntity
  8
LIVELLO_1
 62
     7
100
AcDb2dPolyline
 66
     1
 10
0.0
 20
0.0
 30
0.0
  0
VERTEX
  5
80
100
AcDbEntity
  8
LIVELLO_1
 62
     7
100
AcDbVertex
100
AcDb2dVertex
 10
-13.385143
 20
15.329383
 30
0.0
  0
VERTEX
  5
81
100
AcDbEntity
  8
LIVELLO_1
 62
     7
100
AcDbVertex
100
AcDb2dVertex
 10
-13.385143
 20
17.303078
 30
0.0
  0
VERTEX
  5
82
100
AcDbEntity
  8
LIVELLO_1
 62
     7
100
AcDbVertex
100
AcDb2dVertex
 10
-10.737415
 20
17.303078
 30
0.0
  0
VERTEX
  5
83
100
AcDbEntity
  8
LIVELLO_1
 62
     7
100
AcDbVertex
100
AcDb2dVertex
 10
-8.019235
 20
17.303078
 30
0.0
  0
VERTEX
  5
84
100
AcDbEntity
  8
LIVELLO_1
 62
     7
100
AcDbVertex
100
AcDb2dVertex
 10
-8.019235
 20
15.329383
 30
0.0
  0
SEQEND
  5
85
100
AcDbEntity
  8
LIVELLO_1
 62
     7
  0
SPLINE
  5
7E
100
AcDbEntity
  8
LIVELLO_1
 62
     7
100
AcDbSpline
210
0.0
220
0.0
230
1.0
 70
     8
 71
     3
 72
    53
 73
    49
 74
     0
 42
0.00000001
 43
0.00000001
 40
0.0
 40
0.0
 40
0.0
 40
0.0
 40
1.0
 40
1.0
 40
1.0
 40
2.0
 40
2.0
 40
2.0
 40
3.0
 40
3.0
 40
3.0
 40
4.0
 40
4.0
 40
4.0
 40
5.0
 40
5.0
 40
5.0
 40
6.0
 40
6.0
 40
6.0
 40
7.0
 40
7.0
 40
7.0
 40
8.0
 40
8.0
 40
8.0
 40
9.0
 40
9.0
 40
9.0
 40
10.0
 40
10.0
 40
10.0
 40
11.0
 40
11.0
 40
11.0
 40
12.0
 40
12.0
 40
12.0
 40
13.0
 40
13.0
 40
13.0
 40
14.0
 40
14.0
 40
14.0
 40
15.0
 40
15.0
 40
15.0
 40
16.0
 40
16.0
 40
16.0
 40
16.0
 10
-10.698657904730903
 20
-12.01571790907118
 30
0.0
 10
-10.698657904730903
 20
-12.01571790907118
 30
0.0
 10
-37.057944742838536
 20
-12.01571790907118
 30
0.0
 10
-37.057944742838536
 20
-12.01571790907118
 30
0.0
 10
-37.057944742838536
 20
-12.01571790907118
 30
0.0
 10
-35.622373453776035
 20
-8.6960238986545129
 30
0.0
 10
-32.481135389539929
 20
-8.6960238986545129
 30
0.0
 10
-31.494287787543399
 20
-8.6960238986545129
 30
0.0
 10
-24.955841064453121
 20
-6.5414611816406243
 30
0.0
 10
-24.955841064453121
 20
5.3816697862413188
 30
0.0
 10
-24.955841064453121
 20
5.3816697862413188
 30
0.0
 10
-24.866613091362844
 20
8.1653069390190964
 30
0.0
 10
-20.827927652994791
 20
8.1653069390190964
 30
0.0
 10
-20.827927652994791
 20
8.1653069390190964
 30
0.0
 10
-19.303128390842012
 20
10.212382676866319
 30
0.0
 10
-18.045151774088541
 20
10.212382676866319
 30
0.0
 10
-18.045151774088541
 20
10.212382676866319
 30
0.0
 10
-16.967009141710069
 20
11.826754421657984
 30
0.0
 10
-16.967009141710069
 20
13.532421196831596
 30
0.0
 10
-16.967009141710069
 20
14.78919203016493
 30
0.0
 10
-16.05268079969618
 20
15.329383002387152
 30
0.0
 10
-14.545623779296873
 20
15.329383002387152
 30
0.0
 10
-14.545623779296873
 20
15.329383002387152
 30
0.0
 10
-10.698657904730903
 20
15.329383002387152
 30
0.0
 10
-10.698657904730903
 20
15.329383002387152
 30
0.0
 10
-10.698657904730903
 20
15.329383002387152
 30
0.0
 10
-6.8566874186197913
 20
15.329383002387152
 30
0.0
 10
-6.8566874186197913
 20
15.329383002387152
 30
0.0
 10
-5.3515252007378464
 20
15.329383002387152
 30
0.0
 10
-4.4371968587239579
 20
14.78919203016493
 30
0.0
 10
-4.4371968587239579
 20
13.532421196831596
 30
0.0
 10
-4.4371968587239579
 20
11.826754421657984
 30
0.0
 10
-3.3571594238281248
 20
10.212382676866319
 30
0.0
 10
-3.3571594238281248
 20
10.212382676866319
 30
0.0
 10
-2.0981492784288194
 20
10.212382676866319
 30
0.0
 10
-0.5733500162760417
 20
8.1653069390190964
 30
0.0
 10
-0.5733500162760417
 20
8.1653069390190964
 30
0.0
 10
3.4643018934461804
 20
8.1653069390190964
 30
0.0
 10
3.5516350640190968
 20
5.3816697862413188
 30
0.0
 10
3.5516350640190968
 20
5.3816697862413188
 30
0.0
 10
3.5516350640190968
 20
-6.5414611816406243
 30
0.0
 10
10.092148844401041
 20
-8.6960238986545129
 30
0.0
 10
11.078824191623262
 20
-8.6960238986545129
 30
0.0
 10
14.216100396050345
 20
-8.6960238986545129
 30
0.0
 10
15.657528347439234
 20
-12.01571790907118
 30
0.0
 10
15.657528347439234
 20
-12.01571790907118
 30
0.0
 10
15.657528347439234
 20
-12.01571790907118
 30
0.0
 10
-10.698657904730903
 20
-12.01571790907118
 30
0.0
 10
-10.698657904730903
 20
-12.01571790907118
 30
0.0
  0
SPLINE
  5
7D
100
AcDbEntity
  8
LIVELLO_1
 62
     7
100
AcDbSpline
210
0.0
220
0.0
230
1.0
 70
     8
 71
     3
 72
    98
 73
    94
 74
     0
 42
0.00000001
 43
0.00000001
 40
0.0
 40
0.0
 40
0.0
 40
0.0
 40
1.0
 40
1.0
 40
1.0
 40
2.0
 40
2.0
 40
2.0
 40
3.0
 40
3.0
 40
3.0
 40
4.0
 40
4.0
 40
4.0
 40
5.0
 40
5.0
 40
5.0
 40
6.0
 40
6.0
 40
6.0
 40
7.0
 40
7.0
 40
7.0
 40
8.0
 40
8.0
 40
8.0
 40
9.0
 40
9.0
 40
9.0
 40
10.0
 40
10.0
 40
10.0
 40
11.0
 40
11.0
 40
11.0
 40
12.0
 40
12.0
 40
12.0
 40
13.0
 40
13.0
 40
13.0
 40
14.0
 40
14.0
 40
14.0
 40
15.0
 40
15.0
 40
15.0
 40
16.0
 40
16.0
 40
16.0
 40
17.0
 40
17.0
 40
17.0
 40
18.0
 40
18.0
 40
18.0
 40
19.0
 40
19.0
 40
19.0
 40
20.0
 40
20.0
 40
20.0
 40
21.0
 40
21.0
 40
21.0
 40
22.0
 40
22.0
 40
22.0
 40
23.0
 40
23.0
 40
23.0
 40
24.0
 40
24.0
 40
24.0
 40
25.0
 40
25.0
 40
25.0
 40
26.0
 40
26.0
 40
26.0
 40
27.0
 40
27.0
 40
27.0
 40
28.0
 40
28.0
 40
28.0
 40
29.0
 40
29.0
 40
29.0
 40
30.0
 40
30.0
 40
30.0
 40
31.0
 40
31.0
 40
31.0
 40
31.0
 10
-31.540968831380205
 20
-12.132851155598956
 30
0.0
 10
-31.540968831380205
 20
-12.132851155598956
 30
0.0
 10
-31.540968831380205
 20
-14.003193495008679
 30
0.0
 10
-31.540968831380205
 20
-14.003193495008679
 30
0.0
 10
-31.540968831380205
 20
-14.003193495008679
 30
0.0
 10
-30.663330756293401
 20
-14.003193495008679
 30
0.0
 10
-30.663330756293401
 20
-14.003193495008679
 30
0.0
 10
-30.663330756293401
 20
-14.003193495008679
 30
0.0
 10
-23.945222303602428
 20
-51.192654758029512
 30
0.0
 10
-23.945222303602428
 20
-51.192654758029512
 30
0.0
 10
-23.945222303602428
 20
-51.192654758029512
 30
0.0
 10
-22.629884847005208
 20
-51.192654758029512
 30
0.0
 10
-22.629884847005208
 20
-51.192654758029512
 30
0.0
 10
-22.629884847005208
 20
-51.192654758029512
 30
0.0
 10
-22.629884847005208
 20
-51.768330213758674
 30
0.0
 10
-22.629884847005208
 20
-51.768330213758674
 30
0.0
 10
-22.629884847005208
 20
-51.768330213758674
 30
0.0
 10
-21.680761040581594
 20
-51.768330213758674
 30
0.0
 10
-21.680761040581594
 20
-51.768330213758674
 30
0.0
 10
-21.680761040581594
 20
-51.768330213758674
 30
0.0
 10
-21.680761040581594
 20
-54.214692518446178
 30
0.0
 10
-21.680761040581594
 20
-54.214692518446178
 30
0.0
 10
-21.680761040581594
 20
-54.214692518446178
 30
0.0
 10
-18.392589653862846
 20
-54.214692518446178
 30
0.0
 10
-18.392589653862846
 20
-54.214692518446178
 30
0.0
 10
-18.392589653862846
 20
-54.214692518446178
 30
0.0
 10
-18.392589653862846
 20
-54.792435031467008
 30
0.0
 10
-18.392589653862846
 20
-54.792435031467008
 30
0.0
 10
-18.392589653862846
 20
-54.792435031467008
 30
0.0
 10
-17.882371012369791
 20
-54.792435031467008
 30
0.0
 10
-17.882371012369791
 20
-54.792435031467008
 30
0.0
 10
-17.882371012369791
 20
-54.792435031467008
 30
0.0
 10
-17.73354288736979
 20
-56.587329779730901
 30
0.0
 10
-16.128128390842011
 20
-57.232596164279506
 30
0.0
 10
-16.128128390842011
 20
-57.232596164279506
 30
0.0
 10
-14.155466715494791
 20
-57.232596164279506
 30
0.0
 10
-14.155466715494791
 20
-57.232596164279506
 30
0.0
 10
-14.155466715494791
 20
-57.232596164279506
 30
0.0
 10
-14.155466715494791
 20
-57.881996663411456
 30
0.0
 10
-14.155466715494791
 20
-57.881996663411456
 30
0.0
 10
-14.155466715494791
 20
-57.881996663411456
 30
0.0
 10
-13.35241495768229
 20
-57.881996663411456
 30
0.0
 10
-13.35241495768229
 20
-57.881996663411456
 30
0.0
 10
-13.35241495768229
 20
-57.881996663411456
 30
0.0
 10
-12.911614990234375
 20
-60.473052978515618
 30
0.0
 10
-12.911614990234375
 20
-60.473052978515618
 30
0.0
 10
-12.911614990234375
 20
-60.473052978515618
 30
0.0
 10
-8.8183247884114575
 20
-60.473052978515618
 30
0.0
 10
-8.8183247884114575
 20
-60.473052978515618
 30
0.0
 10
-8.8183247884114575
 20
-60.473052978515618
 30
0.0
 10
-8.3835537380642347
 20
-57.881996663411456
 30
0.0
 10
-8.3835537380642347
 20
-57.881996663411456
 30
0.0
 10
-8.3835537380642347
 20
-57.881996663411456
 30
0.0
 10
-7.58032972547743
 20
-57.881996663411456
 30
0.0
 10
-7.58032972547743
 20
-57.881996663411456
 30
0.0
 10
-7.58032972547743
 20
-57.881996663411456
 30
0.0
 10
-7.58032972547743
 20
-57.232596164279506
 30
0.0
 10
-7.58032972547743
 20
-57.232596164279506
 30
0.0
 10
-7.58032972547743
 20
-57.232596164279506
 30
0.0
 10
-5.6057732476128468
 20
-57.232596164279506
 30
0.0
 10
-5.6057732476128468
 20
-57.232596164279506
 30
0.0
 10
-3.9974304199218746
 20
-56.587329779730901
 30
0.0
 10
-3.8534254286024301
 20
-54.792435031467008
 30
0.0
 10
-3.8534254286024301
 20
-54.792435031467008
 30
0.0
 10
-3.8534254286024301
 20
-54.792435031467008
 30
0.0
 10
-3.3432067871093749
 20
-54.792435031467008
 30
0.0
 10
-3.3432067871093749
 20
-54.792435031467008
 30
0.0
 10
-3.3432067871093749
 20
-54.792435031467008
 30
0.0
 10
-3.3432067871093749
 20
-54.214692518446178
 30
0.0
 10
-3.3432067871093749
 20
-54.214692518446178
 30
0.0
 10
-3.3432067871093749
 20
-54.214692518446178
 30
0.0
 10
-0.055035400390625
 20
-54.214692518446178
 30
0.0
 10
-0.055035400390625
 20
-54.214692518446178
 30
0.0
 10
-0.055035400390625
 20
-54.214692518446178
 30
0.0
 10
-0.055035400390625
 20
-51.768330213758674
 30
0.0
 10
-0.055035400390625
 20
-51.768330213758674
 30
0.0
 10
-0.055035400390625
 20
-51.768330213758674
 30
0.0
 10
0.8959832085503472
 20
-51.768330213758674
 30
0.0
 10
0.8959832085503472
 20
-51.768330213758674
 30
0.0
 10
0.8959832085503472
 20
-51.768330213758674
 30
0.0
 10
0.8959832085503472
 20
-51.192654758029512
 30
0.0
 10
0.8959832085503472
 20
-51.192654758029512
 30
0.0
 10
0.8959832085503472
 20
-51.192654758029512
 30
0.0
 10
2.2094258626302081
 20
-51.192654758029512
 30
0.0
 10
2.2094258626302081
 20
-51.192654758029512
 30
0.0
 10
2.2094258626302081
 20
-51.192654758029512
 30
0.0
 10
8.9296013726128471
 20
-14.003193495008679
 30
0.0
 10
8.9296013726128471
 20
-14.003193495008679
 30
0.0
 10
8.9296013726128471
 20
-14.003193495008679
 30
0.0
 10
9.8081007215711793
 20
-14.003193495008679
 30
0.0
 10
9.8081007215711793
 20
-14.003193495008679
 30
0.0
 10
9.8081007215711793
 20
-14.003193495008679
 30
0.0
 10
9.8081007215711793
 20
-12.132851155598956
 30
0.0
 10
9.8081007215711793
 20
-12.132851155598956
 30
0.0
  0
LINE
  5
7C
100
AcDbEntity
  8
LIVELLO_1
 62
     7
100
AcDbLine
 10
-13.352415
 20
-57.881997
 30
0.0
 11
-8.383554
 21
-57.881997
 31
0.0
  0
LINE
  5
7B
100
AcDbEntity
  8
LIVELLO_1
 62
     7
100
AcDbLine
 10
-14.155467
 20
-57.232596
 30
0.0
 11
-7.58033
 21
-57.232596
 31
0.0
  0
LINE
  5
7A
100
AcDbEntity
  8
LIVELLO_1
 62
     7
100
AcDbLine
 10
-15.034138
 20
-56.58733
 30
0.0
 11
-6.701658
 21
-56.58733
 31
0.0
  0
LINE
  5
79
100
AcDbEntity
  8
LIVELLO_1
 62
     7
100
AcDbLine
 10
-17.882371
 20
-54.792435
 30
0.0
 11
-3.853425
 21
-54.792435
 31
0.0
  0
LINE
  5
78
100
AcDbEntity
  8
LIVELLO_1
 62
     7
100
AcDbLine
 10
-18.39259
 20
-54.214693
 30
0.0
 11
-3.343207
 21
-54.214693
 31
0.0
  0
LINE
  5
77
100
AcDbEntity
  8
LIVELLO_1
 62
     7
100
AcDbLine
 10
-21.680761
 20
-51.76833
 30
0.0
 11
-0.055035
 21
-51.76833
 31
0.0
  0
LINE
  5
76
100
AcDbEntity
  8
LIVELLO_1
 62
     7
100
AcDbLine
 10
-22.629885
 20
-51.192655
 30
0.0
 11
0.895983
 21
-51.192655
 31
0.0
  0
POLYLINE
  5
70
100
AcDbEntity
  8
LIVELLO_1
 62
     7
100
AcDb2dPolyline
 66
     1
 10
0.0
 20
0.0
 30
0.0
 70
     1
  0
VERTEX
  5
71
100
AcDbEntity
  8
LIVELLO_1
 62
     7
100
AcDbVertex
100
AcDb2dVertex
 10
-27.157946
 20
-14.432108
 30
0.0
  0
VERTEX
  5
72
100
AcDbEntity
  8
LIVELLO_1
 62
     7
100
AcDbVertex
100
AcDb2dVertex
 10
-21.093028
 20
-48.170617
 30
0.0
  0
VERTEX
  5
73
100
AcDbEntity
  8
LIVELLO_1
 62
     7
100
AcDbVertex
100
AcDb2dVertex
 10
-0.636912
 20
-48.170617
 30
0.0
  0
VERTEX
  5
74
100
AcDbEntity
  8
LIVELLO_1
 62
     7
100
AcDbVertex
100
AcDb2dVertex
 10
5.425939
 20
-14.432108
 30
0.0
  0
SEQEND
  5
75
100
AcDbEntity
  8
LIVELLO_1
 62
     7
  0
POLYLINE
  5
6A
100
AcDbEntity
  8
LIVELLO_1
 62
     7
100
AcDb2dPolyline
 66
     1
 10
0.0
 20
0.0
 30
0.0
 70
     1
  0
VERTEX
  5
6B
100
AcDbEntity
  8
LIVELLO_1
 62
     7
100
AcDbVertex
100
AcDb2dVertex
 10
-28.471389
 20
-13.715184
 30
0.0
  0
VERTEX
  5
6C
100
AcDbEntity
  8
LIVELLO_1
 62
     7
100
AcDbVertex
100
AcDb2dVertex
 10
-22.042152
 20
-49.540731
 30
0.0
  0
VERTEX
  5
6D
100
AcDbEntity
  8
LIVELLO_1
 62
     7
100
AcDbVertex
100
AcDb2dVertex
 10
0.309283
 20
-49.540731
 30
0.0
  0
VERTEX
  5
6E
100
AcDbEntity
  8
LIVELLO_1
 62
     7
100
AcDbVertex
100
AcDb2dVertex
 10
6.739382
 20
-13.715184
 30
0.0
  0
SEQEND
  5
6F
100
AcDbEntity
  8
LIVELLO_1
 62
     7
  0
POLYLINE
  5
64
100
AcDbEntity
  8
LIVELLO_1
 62
     7
100
AcDb2dPolyline
 66
     1
 10
0.0
 20
0.0
 30
0.0
 70
     1
  0
VERTEX
  5
65
100
AcDbEntity
  8
LIVELLO_1
 62
     7
100
AcDbVertex
100
AcDb2dVertex
 10
-9.377292
 20
17.354755
 30
0.0
  0
VERTEX
  5
66
100
AcDbEntity
  8
LIVELLO_1
 62
     7
100
AcDbVertex
100
AcDb2dVertex
 10
-12.02502
 20
17.354755
 30
0.0
  0
VERTEX
  5
67
100
AcDbEntity
  8
LIVELLO_1
 62
     7
100
AcDbVertex
100
AcDb2dVertex
 10
-11.589215
 20
19.945811
 30
0.0
  0
VERTEX
  5
68
100
AcDbEntity
  8
LIVELLO_1
 62
     7
100
AcDbVertex
100
AcDb2dVertex
 10
-9.812063
 20
19.945811
 30
0.0
  0
SEQEND
  5
69
100
AcDbEntity
  8
LIVELLO_1
 62
     7
  0
SPLINE
  5
63
100
AcDbEntity
  8
LIVELLO_1
 62
     7
100
AcDbSpline
210
0.0
220
0.0
230
1.0
 70
     8
 71
     3
 72
    20
 73
    16
 74
     0
 42
0.00000001
 43
0.00000001
 40
0.0
 40
0.0
 40
0.0
 40
0.0
 40
1.0
 40
1.0
 40
1.0
 40
2.0
 40
2.0
 40
2.0
 40
3.0
 40
3.0
 40
3.0
 40
4.0
 40
4.0
 40
4.0
 40
5.0
 40
5.0
 40
5.0
 40
5.0
 10
-13.125038655598956
 20
19.945810953776039
 30
0.0
 10
-11.94164835611979
 20
19.945810953776039
 30
0.0
 10
-11.522724745008679
 20
23.45412394205729
 30
0.0
 10
-11.175114610460069
 20
25.582676188151041
 30
0.0
 10
-11.034210205078123
 20
25.509295654296874
 30
0.0
 10
-10.869362386067708
 20
25.465542941623262
 30
0.0
 10
-10.698657904730903
 20
25.465542941623262
 30
0.0
 10
-10.483167182074652
 20
25.465542941623262
 30
0.0
 10
-10.284729682074651
 20
25.535133870442706
 30
0.0
 10
-10.121776665581596
 20
25.652267116970485
 30
0.0
 10
-9.7574578179253457
 20
23.527676730685762
 30
0.0
 10
-9.4725484212239568
 20
19.945810953776039
 30
0.0
 10
-8.2793395996093739
 20
19.945810953776039
 30
0.0
 10
-8.2793395996093739
 20
19.945810953776039
 30
0.0
 10
-13.125038655598956
 20
19.945810953776039
 30
0.0
 10
-13.125038655598956
 20
19.945810953776039
 30
0.0
  0
CIRCLE
  5
62
100
AcDbEntity
  8
LIVELLO_1
 62
     7
100
AcDbCircle
 10
-10.702103
 20
26.458419
 30
0.0
 40
0.993221
  0
SPLINE
  5
61
100
AcDbEntity
  8
LIVELLO_1
 62
     7
100
AcDbSpline
210
0.0
220
0.0
230
1.0
 70
     8
 71
     3
 72
    17
 73
    13
 74
     0
 42
0.00000001
 43
0.00000001
 40
0.0
 40
0.0
 40
0.0
 40
0.0
 40
1.0
 40
1.0
 40
1.0
 40
2.0
 40
2.0
 40
2.0
 40
3.0
 40
3.0
 40
3.0
 40
4.0
 40
4.0
 40
4.0
 40
4.0
 10
-14.184233262803819
 20
-61.027024332682288
 30
0.0
 10
-14.184233262803819
 20
-84.216306559244785
 30
0.0
 10
-18.819609239366319
 20
-88.856505669487845
 30
0.0
 10
-18.819609239366319
 20
-88.856505669487845
 30
0.0
 10
-18.819609239366319
 20
-88.856505669487845
 30
0.0
 10
-2.5906256781684025
 20
-88.856505669487845
 30
0.0
 10
-2.5906256781684025
 20
-88.856505669487845
 30
0.0
 10
-2.5906256781684025
 20
-88.856505669487845
 30
0.0
 10
-7.2260016547309025
 20
-84.216306559244785
 30
0.0
 10
-7.2260016547309025
 20
-61.027024332682288
 30
0.0
 10
-7.2260016547309025
 20
-61.027024332682288
 30
0.0
 10
-14.184233262803819
 20
-61.027024332682288
 30
0.0
 10
-14.184233262803819
 20
-61.027024332682288
 30
0.0
  0
SPLINE
  5
60
100
AcDbEntity
  8
LIVELLO_1
 62
     7
100
AcDbSpline
210
0.0
220
0.0
230
1.0
 70
     8
 71
     3
 72
    17
 73
    13
 74
     0
 42
0.00000001
 43
0.00000001
 40
0.0
 40
0.0
 40
0.0
 40
0.0
 40
1.0
 40
1.0
 40
1.0
 40
2.0
 40
2.0
 40
2.0
 40
3.0
 40
3.0
 40
3.0
 40
4.0
 40
4.0
 40
4.0
 40
4.0
 10
6.6849494086371521
 20
-98.129324679904499
 30
0.0
 10
6.6849494086371521
 20
-98.129324679904499
 30
0.0
 10
4.3667446560329859
 20
-91.175743950737839
 30
0.0
 10
-2.5906256781684025
 20
-88.856505669487845
 30
0.0
 10
-2.5906256781684025
 20
-88.856505669487845
 30
0.0
 10
-18.819609239366319
 20
-88.856505669487845
 30
0.0
 10
-18.819609239366319
 20
-88.856505669487845
 30
0.0
 10
-25.778874376085067
 20
-91.175743950737839
 30
0.0
 10
-28.097079128689234
 20
-98.129324679904499
 30
0.0
 10
-28.097079128689234
 20
-98.129324679904499
 30
0.0
 10
-28.097079128689234
 20
-98.129324679904499
 30
0.0
 10
6.6849494086371521
 20
-98.129324679904499
 30
0.0
 10
6.6849494086371521
 20
-98.129324679904499
 30
0.0
  0
POLYLINE
  5
5A
100
AcDbEntity
  8
LIVELLO_1
 62
     7
100
AcDb2dPolyline
 66
     1
 10
0.0
 20
0.0
 30
0.0
 70
     1
  0
VERTEX
  5
5B
100
AcDbEntity
  8
LIVELLO_1
 62
     7
100
AcDbVertex
100
AcDb2dVertex
 10
-28.097079
 20
-98.129325
 30
0.0
  0
VERTEX
  5
5C
100
AcDbEntity
  8
LIVELLO_1
 62
     7
100
AcDbVertex
100
AcDb2dVertex
 10
6.684949
 20
-98.129325
 30
0.0
  0
VERTEX
  5
5D
100
AcDbEntity
  8
LIVELLO_1
 62
     7
100
AcDbVertex
100
AcDb2dVertex
 10
9.005049
 20
-100.450286
 30
0.0
  0
VERTEX
  5
5E
100
AcDbEntity
  8
LIVELLO_1
 62
     7
100
AcDbVertex
100
AcDb2dVertex
 10
-30.415284
 20
-100.450286
 30
0.0
  0
SEQEND
  5
5F
100
AcDbEntity
  8
LIVELLO_1
 62
     7
  0
POLYLINE
  5
54
100
AcDbEntity
  8
LIVELLO_1
 62
     7
100
AcDb2dPolyline
 66
     1
 10
0.0
 20
0.0
 30
0.0
 70
     1
  0
VERTEX
  5
55
100
AcDbEntity
  8
LIVELLO_1
 62
     7
100
AcDbVertex
100
AcDb2dVertex
 10
-30.415284
 20
-100.450286
 30
0.0
  0
VERTEX
  5
56
100
AcDbEntity
  8
LIVELLO_1
 62
     7
100
AcDbVertex
100
AcDb2dVertex
 10
9.005049
 20
-100.450286
 30
0.0
  0
VERTEX
  5
57
100
AcDbEntity
  8
LIVELLO_1
 62
     7
100
AcDbVertex
100
AcDb2dVertex
 10
9.005049
 20
-105.086695
 30
0.0
  0
VERTEX
  5
58
100
AcDbEntity
  8
LIVELLO_1
 62
     7
100
AcDbVertex
100
AcDb2dVertex
 10
-30.415284
 20
-105.086695
 30
0.0
  0
SEQEND
  5
59
100
AcDbEntity
  8
LIVELLO_1
 62
     7
  0
LINE
  5
53
100
AcDbEntity
  8
LIVELLO_1
 62
     7
100
AcDbLine
 10
15.321976
 20
-127.265186
 30
0.0
 11
15.321976
 21
-116.211597
 31
0.0
  0
LINE
  5
52
100
AcDbEntity
  8
LIVELLO_1
 62
     7
100
AcDbLine
 10
15.444105
 20
-127.025063
 30
0.0
 11
15.444105
 21
-115.973197
 31
0.0
  0
LINE
  5
51
100
AcDbEntity
  8
LIVELLO_1
 62
     7
100
AcDbLine
 10
-35.670949
 20
-121.497063
 30
0.0
 11
15.463914
 21
-121.49913
 31
0.0
  0
LINE
  5
50
100
AcDbEntity
  8
LIVELLO_1
 62
     7
100
AcDbLine
 10
-35.758282
 20
-121.497063
 30
0.0
 11
-23.091528
 21
-121.49913
 31
0.0
  0
LINE
  5
4F
100
AcDbEntity
  8
LIVELLO_1
 62
     7
100
AcDbLine
 10
-35.758282
 20
-127.025063
 30
0.0
 11
-35.758282
 21
-115.973197
 31
0.0
  0
MTEXT
  5
4E
100
AcDbEntity
  8
LIVELLO_1
 62
     7
100
AcDbMText
 10
-20.192652
 20
-107.983589
 30
0.0
 40
10.882799
 41
0.0
 71
     1
 72
     2
  1
\fArial Narrow|b0|i0;\H10.8828;\C7;\U+0032\U+0030\U+0030
  7
STD
210
0.0
220
0.0
230
1.0
 73
     1
 44
1.0
  0
LINE
  5
4D
100
AcDbEntity
  8
LIVELLO_1
 62
     7
100
AcDbLine
 10
27.571874
 20
27.758943
 30
0.0
 11
27.567912
 21
-37.774352
 31
0.0
  0
LINE
  5
4C
100
AcDbEntity
  8
LIVELLO_1
 62
     7
100
AcDbLine
 10
22.044046
 20
27.758943
 30
0.0
 11
33.096774
 21
27.758943
 31
0.0
  0
MTEXT
  5
4B
100
AcDbEntity
  8
LIVELLO_1
 62
     7
100
AcDbMText
 10
17.48429
 20
-40.760819
 30
0.0
 40
10.882799
 41
0.0
 71
     1
 72
     2
  1
\fArial Narrow|b0|i0;\H10.8828;\C7;\U+0035\U+0038\U+0030
  7
STD
210
0.0
220
0.0
230
1.0
 73
     1
 44
1.0
  0
LINE
  5
4A
100
AcDbEntity
  8
LIVELLO_1
 62
     7
100
AcDbLine
 10
21.801856
 20
-106.684875
 30
0.0
 11
32.856479
 21
-106.684875
 31
0.0
  0
LINE
  5
49
100
AcDbEntity
  8
LIVELLO_1
 62
     7
100
AcDbLine
 10
22.044046
 20
-106.804075
 30
0.0
 11
33.096774
 21
-106.804075
 31
0.0
  0
LINE
  5
48
100
AcDbEntity
  8
LIVELLO_1
 62
     7
100
AcDbLine
 10
27.571874
 20
-55.687815
 30
0.0
 11
27.567912
 21
-106.825779
 31
0.0
  0
MTEXT
  5
47
100
AcDbEntity
  8
LIVELLO_1
 62
     7
100
AcDbMText
 10
-20.411071
 20
125.707003
 30
0.0
 40
10.178741
 41
0.0
 71
     1
 72
     2
  1
\fArial Narrow|b0|i0;\H10.1787;\C7;\U+0031\U+0037\U+0030
  7
STD
210
0.0
220
0.0
230
1.0
 73
     1
 44
1.0
  0
LINE
  5
46
100
AcDbEntity
  8
LIVELLO_1
 62
     7
100
AcDbLine
 10
10.244939
 20
117.920881
 30
0.0
 11
-1.771554
 21
117.920881
 31
0.0
  0
LINE
  5
45
100
AcDbEntity
  8
LIVELLO_1
 62
     7
100
AcDbLine
 10
10.244939
 20
120.510043
 30
0.0
 11
10.244939
 21
115.33172
 31
0.0
  0
LINE
  5
44
100
AcDbEntity
  8
LIVELLO_1
 62
     7
100
AcDbLine
 10
-31.529083
 20
117.920881
 30
0.0
 11
-19.51259
 21
117.920881
 31
0.0
  0
LINE
  5
43
100
AcDbEntity
  8
LIVELLO_1
 62
     7
100
AcDbLine
 10
-31.529083
 20
115.33172
 30
0.0
 11
-31.529083
 21
120.510043
 31
0.0
  0
MTEXT
  5
42
100
AcDbEntity
  8
LIVELLO_1
 62
     7
100
AcDbMText
 10
-19.69518
 20
69.418901
 30
0.0
 40
9.857421
 41
0.0
 71
     1
 72
     2
  1
\fArial Narrow|b0|i0;\H9.8574;\C7;\U+0031\U+0035\U+0036
  7
STD
210
0.0
220
0.0
230
1.0
 73
     1
 44
1.0
  0
SPLINE
  5
41
100
AcDbEntity
  8
LIVELLO_1
 62
     7
100
AcDbSpline
210
0.0
220
0.0
230
1.0
 70
     8
 71
     3
 72
    41
 73
    37
 74
     0
 42
0.00000001
 43
0.00000001
 40
0.0
 40
0.0
 40
0.0
 40
0.0
 40
1.0
 40
1.0
 40
1.0
 40
2.0
 40
2.0
 40
2.0
 40
3.0
 40
3.0
 40
3.0
 40
4.0
 40
4.0
 40
4.0
 40
5.0
 40
5.0
 40
5.0
 40
6.0
 40
6.0
 40
6.0
 40
7.0
 40
7.0
 40
7.0
 40
8.0
 40
8.0
 40
8.0
 40
9.0
 40
9.0
 40
9.0
 40
10.0
 40
10.0
 40
10.0
 40
11.0
 40
11.0
 40
11.0
 40
12.0
 40
12.0
 40
12.0
 40
12.0
 10
-30.453868950737846
 20
93.730799018012149
 30
0.0
 10
-29.726264784071176
 20
104.03783569335937
 30
0.0
 10
-21.135746934678817
 20
112.17273966471353
 30
0.0
 10
-10.641986083984374
 20
112.17273966471353
 30
0.0
 10
-0.1504645453559028
 20
112.17273966471353
 30
0.0
 10
8.4390197753906246
 20
104.03783569335937
 30
0.0
 10
9.1678297254774304
 20
93.730799018012149
 30
0.0
 10
9.1678297254774304
 20
93.730799018012149
 30
0.0
 10
8.1997578938802071
 20
93.730799018012149
 30
0.0
 10
8.1997578938802071
 20
93.730799018012149
 30
0.0
 10
7.4185824924045134
 20
93.730799018012149
 30
0.0
 10
6.7841681586371525
 20
93.095523410373261
 30
0.0
 10
6.7841681586371525
 20
92.315209282769089
 30
0.0
 10
6.7841681586371525
 20
91.532828097873249
 30
0.0
 10
7.4185824924045134
 20
90.897552490234361
 30
0.0
 10
8.1997578938802071
 20
90.897552490234361
 30
0.0
 10
8.1997578938802071
 20
90.897552490234361
 30
0.0
 10
9.1678297254774304
 20
90.897552490234361
 30
0.0
 10
9.1678297254774304
 20
90.897552490234361
 30
0.0
 10
8.4390197753906246
 20
80.590515814887141
 30
0.0
 10
-0.1504645453559028
 20
72.453717041015622
 30
0.0
 10
-10.641986083984374
 20
72.453717041015622
 30
0.0
 10
-21.135746934678817
 20
72.453717041015622
 30
0.0
 10
-29.726264784071176
 20
80.590515814887141
 30
0.0
 10
-30.453868950737846
 20
90.897552490234361
 30
0.0
 10
-30.453868950737846
 20
90.897552490234361
 30
0.0
 10
-29.485969373914926
 20
90.897552490234361
 30
0.0
 10
-29.485969373914926
 20
90.897552490234361
 30
0.0
 10
-28.702726915147569
 20
90.897552490234361
 30
0.0
 10
-28.068312581380205
 20
91.532828097873249
 30
0.0
 10
-28.068312581380205
 20
92.315209282769089
 30
0.0
 10
-28.068312581380205
 20
93.095523410373261
 30
0.0
 10
-28.702726915147569
 20
93.730799018012149
 30
0.0
 10
-29.485969373914926
 20
93.730799018012149
 30
0.0
 10
-29.485969373914926
 20
93.730799018012149
 30
0.0
 10
-30.453868950737846
 20
93.730799018012149
 30
0.0
 10
-30.453868950737846
 20
93.730799018012149
 30
0.0
  0
SPLINE
  5
40
100
AcDbEntity
  8
LIVELLO_1
 62
     7
100
AcDbSpline
210
0.0
220
0.0
230
1.0
 70
     8
 71
     3
 72
    17
 73
    13
 74
     0
 42
0.00000001
 43
0.00000001
 40
0.0
 40
0.0
 40
0.0
 40
0.0
 40
1.0
 40
1.0
 40
1.0
 40
2.0
 40
2.0
 40
2.0
 40
3.0
 40
3.0
 40
3.0
 40
4.0
 40
4.0
 40
4.0
 40
4.0
 10
9.1430250379774289
 20
94.255142550998258
 30
0.0
 10
9.1430250379774289
 20
94.255142550998258
 30
0.0
 10
8.1997578938802071
 20
94.255142550998258
 30
0.0
 10
8.1997578938802071
 20
94.255142550998258
 30
0.0
 10
7.1286777072482632
 20
94.255142550998258
 30
0.0
 10
6.259996880425347
 20
93.387322998046869
 30
0.0
 10
6.259996880425347
 20
92.315209282769089
 30
0.0
 10
6.259996880425347
 20
91.241028510199641
 30
0.0
 10
7.1286777072482632
 20
90.373381212022565
 30
0.0
 10
8.1997578938802071
 20
90.373381212022565
 30
0.0
 10
8.1997578938802071
 20
90.373381212022565
 30
0.0
 10
9.1430250379774289
 20
90.373381212022565
 30
0.0
 10
9.1430250379774289
 20
90.373381212022565
 30
0.0
  0
CIRCLE
  5
3F
100
AcDbEntity
  8
LIVELLO_1
 62
     7
100
AcDbCircle
 10
8.200791
 20
92.315209
 30
0.0
 40
0.838881
  0
LINE
  5
3E
100
AcDbEntity
  8
LIVELLO_1
 62
     7
100
AcDbLine
 10
-6.517001
 20
92.027199
 30
0.0
 11
-8.750801
 21
92.027199
 31
0.0
  0
LINE
  5
3D
100
AcDbEntity
  8
LIVELLO_1
 62
     7
100
AcDbLine
 10
-6.517001
 20
92.601152
 30
0.0
 11
-8.750801
 21
92.601152
 31
0.0
  0
LINE
  5
3C
100
AcDbEntity
  8
LIVELLO_1
 62
     7
100
AcDbLine
 10
-10.93103
 20
88.187296
 30
0.0
 11
-10.93103
 21
90.422991
 31
0.0
  0
LINE
  5
3B
100
AcDbEntity
  8
LIVELLO_1
 62
     7
100
AcDbLine
 10
-10.353115
 20
88.187296
 30
0.0
 11
-10.353115
 21
90.422991
 31
0.0
  0
LINE
  5
3A
100
AcDbEntity
  8
LIVELLO_1
 62
     7
100
AcDbLine
 10
-14.769038
 20
92.601152
 30
0.0
 11
-12.533344
 21
92.601152
 31
0.0
  0
LINE
  5
39
100
AcDbEntity
  8
LIVELLO_1
 62
     7
100
AcDbLine
 10
-14.769038
 20
92.027199
 30
0.0
 11
-12.533344
 21
92.027199
 31
0.0
  0
LINE
  5
38
100
AcDbEntity
  8
LIVELLO_1
 62
     7
100
AcDbLine
 10
-10.353115
 20
96.441228
 30
0.0
 11
-10.353115
 21
94.205361
 31
0.0
  0
LINE
  5
37
100
AcDbEntity
  8
LIVELLO_1
 62
     7
100
AcDbLine
 10
-10.93103
 20
96.441228
 30
0.0
 11
-10.93103
 21
94.205361
 31
0.0
  0
CIRCLE
  5
36
100
AcDbEntity
  8
LIVELLO_1
 62
     7
100
AcDbCircle
 10
-10.642072
 20
92.315209
 30
0.0
 40
1.067204
  0
CIRCLE
  5
35
100
AcDbEntity
  8
LIVELLO_1
 62
     7
100
AcDbCircle
 10
-10.642072
 20
92.315209
 30
0.0
 40
1.876285
  0
SPLINE
  5
34
100
AcDbEntity
  8
LIVELLO_1
 62
     7
100
AcDbSpline
210
0.0
220
0.0
230
1.0
 70
     8
 71
     3
 72
    17
 73
    13
 74
     0
 42
0.00000001
 43
0.00000001
 40
0.0
 40
0.0
 40
0.0
 40
0.0
 40
1.0
 40
1.0
 40
1.0
 40
2.0
 40
2.0
 40
2.0
 40
3.0
 40
3.0
 40
3.0
 40
4.0
 40
4.0
 40
4.0
 40
4.0
 10
-30.429064263237844
 20
94.255142550998258
 30
0.0
 10
-30.429064263237844
 20
94.255142550998258
 30
0.0
 10
-29.485969373914926
 20
94.255142550998258
 30
0.0
 10
-29.485969373914926
 20
94.255142550998258
 30
0.0
 10
-28.414716932508679
 20
94.255142550998258
 30
0.0
 10
-27.546036105685761
 20
93.387322998046869
 30
0.0
 10
-27.546036105685761
 20
92.315209282769089
 30
0.0
 10
-27.546036105685761
 20
91.241028510199641
 30
0.0
 10
-28.414716932508679
 20
90.373381212022565
 30
0.0
 10
-29.485969373914926
 20
90.373381212022565
 30
0.0
 10
-29.485969373914926
 20
90.373381212022565
 30
0.0
 10
-30.429064263237844
 20
90.373381212022565
 30
0.0
 10
-30.429064263237844
 20
90.373381212022565
 30
0.0
  0
CIRCLE
  5
33
100
AcDbEntity
  8
LIVELLO_1
 62
     7
100
AcDbCircle
 10
-29.485969
 20
92.315209
 30
0.0
 40
0.837847
  0
CIRCLE
  5
32
100
AcDbEntity
  8
LIVELLO_1
 62
     7
100
AcDbCircle
 10
-10.643106
 20
92.315209
 30
0.0
 40
4.152804
  0
CIRCLE
  5
31
100
AcDbEntity
  8
LIVELLO_1
 62
     7
100
AcDbCircle
 10
-10.64302
 20
92.315209
 30
0.0
 40
9.294351
  0
CIRCLE
  5
30
100
AcDbEntity
  8
LIVELLO_1
 62
     7
100
AcDbCircle
 10
-10.642072
 20
92.315209
 30
0.0
 40
20.887011
  0
LINE
  5
2F
100
AcDbEntity
  8
LIVELLO_1
 62
     7
100
AcDbLine
 10
8.366673
 20
62.954728
 30
0.0
 11
-0.918893
 21
62.954728
 31
0.0
  0
LINE
  5
2E
100
AcDbEntity
  8
LIVELLO_1
 62
     7
100
AcDbLine
 10
8.437125
 20
60.028119
 30
0.0
 11
8.366673
 21
89.465943
 31
0.0
  0
LINE
  5
2D
100
AcDbEntity
  8
LIVELLO_1
 62
     7
100
AcDbLine
 10
-29.593112
 20
63.375718
 30
0.0
 11
-19.787509
 21
63.37968
 31
0.0
  0
LINE
  5
2C
100
AcDbEntity
  8
LIVELLO_1
 62
     7
100
AcDbLine
 10
-29.800679
 20
60.028119
 30
0.0
 11
-29.717308
 21
89.465943
 31
0.0
  0
ENDBLK
  5
8B
100
AcDbEntity
  8
LIVELLO_1
100
AcDbBlockEnd
  0
ENDSEC
  0
SECTION
  2
ENTITIES
  0
INSERT
  5
2A
100
AcDbEntity
  8
LIVELLO_1
 62
     7
100
AcDbBlockReference
  2
AI9-BLK1
 10
37.496678
 20
127.265186
 30
0.0
  0
ENDSEC
  0
SECTION
  2
OBJECTS
  0
DICTIONARY
  5
19
100
AcDbDictionary
280
     0
281
     1
  3
ACAD_GROUP
350
1A
  3
ACAD_MLINESTYLE
350
1B
  3
ACAD_LAYOUT
350
1E
  3
ACAD_PLOTSETTINGS
350
22
  3
ACAD_PLOTSTYLENAME
350
1F
  3
ACAD_WIPEOUT_VARS
350
23
  0
DICTIONARY
  5
1A
102
{ACAD_REACTORS
330
19
102
}
100
AcDbDictionary
280
     0
281
     1
  0
DICTIONARY
  5
1B
102
{ACAD_REACTORS
330
19
102
}
100
AcDbDictionary
280
     0
281
     1
  3
Standard
350
1C
  0
MLINESTYLE
  5
1C
102
{ACAD_REACTORS
330
1B
102
}
100
AcDbMlineStyle
  2
Standard
 70
     0
  3

 62
     0
 51
90.0
 52
90.0
 71
     2
 49
0.5
 62
   256
  6
ByLayer
 49
-0.5
 62
   256
  6
ByLayer
  0
ACDBDICTIONARYWDFLT
  5
1F
102
{ACAD_REACTORS
330
19
102
}
100
AcDbDictionary
281
     1
  3
Normal
350
1D
100
AcDbDictionaryWithDefault
340
1D
  0
ACDBPLACEHOLDER
  5
1D
102
{ACAD_REACTORS
330
1F
102
}
  0
LAYOUT
  5
20
102
{ACAD_REACTORS
330
1E
102
}
100
AcDbPlotSettings
  1

  2

  4

  6

 40
0.0
 41
0.0
 42
0.0
 43
0.0
 44
0.0
 45
0.0
 46
0.0
 47
0.0
 48
0.0
 49
0.0
140
0.0
141
0.0
142
1.0
143
1.0
 70
  1024
 72
     0
 73
     0
 74
     0
  7

 75
     0
147
1.0
148
0.0
149
0.0
100
AcDbLayout
  1
Model
 70
     0
 71
     0
 10
0.0
 20
0.0
 11
0.0
 21
0.0
 12
0.0
 22
0.0
 32
0.0
 14
0.0
 24
0.0
 34
0.0
 15
0.0
 25
0.0
 35
0.0
146
0.0
 13
0.0
 23
0.0
 33
0.0
 16
0.0
 26
0.0
 36
0.0
 17
0.0
 27
0.0
 37
0.0
 76
     0
330
A
331
0
345
0
346
0
  0
LAYOUT
  5
21
102
{ACAD_REACTORS
330
1E
102
}
100
AcDbPlotSettings
  1

  2

  4

  6

 40
0.0
 41
0.0
 42
0.0
 43
0.0
 44
0.0
 45
0.0
 46
0.0
 47
0.0
 48
0.0
 49
0.0
140
0.0
141
0.0
142
1.0
143
1.0
 70
     0
 72
     0
 73
     0
 74
     0
  7

 75
     0
147
1.0
148
0.0
149
0.0
100
AcDbLayout
  1
Layout1
 70
     0
 71
     0
 10
0.0
 20
0.0
 11
0.0
 21
0.0
 12
0.0
 22
0.0
 32
0.0
 14
0.0
 24
0.0
 34
0.0
 15
0.0
 25
0.0
 35
0.0
146
0.0
 13
0.0
 23
0.0
 33
0.0
 16
0.0
 26
0.0
 36
0.0
 17
0.0
 27
0.0
 37
0.0
 76
     0
330
B
331
0
345
0
346
0
  0
DICTIONARY
  5
1E
102
{ACAD_REACTORS
330
19
102
}
100
AcDbDictionary
280
     0
281
     1
  3
Layout1
350
21
  3
Model
350
20
  0
DICTIONARY
  5
22
102
{ACAD_REACTORS
330
19
102
}
100
AcDbDictionary
280
     0
281
     1
  0
WIPEOUTVARIABLES
  5
23
100
AcDbWipeoutVariables
 70
     1
  0
ENDSEC
  0
EOF
