  0
SECTION
  2
HEADER
  9
$ACADVER
  1
AC1015
  9
$ACADMAINTVER
 70
     6
  9
$DWGCODEPAGE
  3
ANSI_932
  9
$INSBASE
 10
0.0
 20
0.0
 30
0.0
  9
$EXTMIN
 10
0.0
 20
1.419379
 30
1.000000E+20
  9
$EXTMAX
 10
85.997679
 20
232.44266
 30
-1.000000E+20
  9
$LIMMIN
 10
0.0
 20
1.419379
  9
$LIMMAX
 10
85.997679
 20
232.44266
  9
$ORTHOMODE
 70
     0
  9
$REGENMODE
 70
     1
  9
$FILLMODE
 70
     1
  9
$QTEXTMODE
 70
     0
  9
$MIRRTEXT
 70
     1
  9
$LTSCALE
 40
1.0
  9
$ATTMODE
 70
     1
  9
$TEXTSIZE
 40
0.2
  9
$TRACEWID
 40
0.05
  9
$TEXTSTYLE
  7
Standard
  9
$CLAYER
  8
0
  9
$CELTYPE
  6
Continuous
  9
$CECOLOR
 62
   256
  9
$CELTSCALE
 40
1.0
  9
$DISPSILH
 70
     0
  9
$DIMSCALE
 40
1.0
  9
$DIMASZ
 40
0.18
  9
$DIMEXO
 40
0.0625
  9
$DIMDLI
 40
0.38
  9
$DIMRND
 40
0.0
  9
$DIMDLE
 40
0.0
  9
$DIMEXE
 40
0.18
  9
$DIMTP
 40
0.0
  9
$DIMTM
 40
0.0
  9
$DIMTXT
 40
0.18
  9
$DIMCEN
 40
0.09
  9
$DIMTSZ
 40
0.0
  9
$DIMTOL
 70
     0
  9
$DIMLIM
 70
     0
  9
$DIMTIH
 70
     1
  9
$DIMTOH
 70
     1
  9
$DIMSE1
 70
     0
  9
$DIMSE2
 70
     0
  9
$DIMTAD
 70
     0
  9
$DIMZIN
 70
     0
  9
$DIMBLK
  1

  9
$DIMASO
 70
     1
  9
$DIMSHO
 70
     1
  9
$DIMPOST
  1

  9
$DIMAPOST
  1

  9
$DIMALT
 70
     0
  9
$DIMALTD
 70
     2
  9
$DIMALTF
 40
25.4
  9
$DIMLFAC
 40
1.0
  9
$DIMTOFL
 70
     0
  9
$DIMTVP
 40
0.0
  9
$DIMTIX
 70
     0
  9
$DIMSOXD
 70
     0
  9
$DIMSAH
 70
     0
  9
$DIMBLK1
  1

  9
$DIMBLK2
  1

  9
$DIMSTYLE
  2
Standard
  9
$DIMCLRD
 70
     0
  9
$DIMCLRE
 70
     0
  9
$DIMCLRT
 70
     0
  9
$DIMTFAC
 40
1.0
  9
$DIMGAP
 40
0.09
  9
$DIMJUST
 70
     0
  9
$DIMSD1
 70
     0
  9
$DIMSD2
 70
     0
  9
$DIMTOLJ
 70
     1
  9
$DIMTZIN
 70
     0
  9
$DIMALTZ
 70
     0
  9
$DIMALTTZ
 70
     0
  9
$DIMUPT
 70
     0
  9
$DIMDEC
 70
     4
  9
$DIMTDEC
 70
     4
  9
$DIMALTU
 70
     2
  9
$DIMALTTD
 70
     2
  9
$DIMTXSTY
  7
Standard
  9
$DIMAUNIT
 70
     0
  9
$DIMADEC
 70
     0
  9
$DIMALTRND
 40
0.0
  9
$DIMAZIN
 70
     0
  9
$DIMDSEP
 70
     0
  9
$DIMATFIT
 70
     3
  9
$DIMFRAC
 70
     0
  9
$DIMLDRBLK
  1

  9
$DIMLUNIT
 70
     2
  9
$DIMLWD
 70
     0
  9
$DIMLWE
 70
     0
  9
$DIMTMOVE
 70
     0
  9
$LUNITS
 70
     2
  9
$LUPREC
 70
     4
  9
$SKETCHINC
 40
0.1
  9
$FILLETRAD
 40
0.0
  9
$AUNITS
 70
     0
  9
$AUPREC
 70
     0
  9
$MENU
  1
acad
  9
$ELEVATION
 40
0.0
  9
$PELEVATION
 40
0.0
  9
$THICKNESS
 40
0.0
  9
$LIMCHECK
 70
     0
  9
$CHAMFERA
 40
0.0
  9
$CHAMFERB
 40
0.0
  9
$CHAMFERC
 40
0.0
  9
$CHAMFERD
 40
0.0
  9
$SKPOLY
 70
     0
  9
$TDCREATE
 40
0.000000000
  9
$TDUCREATE
 40
0.000000000
  9
$TDUPDATE
 40
0.000000000
  9
$TDUUPDATE
 40
0.000000000
  9
$TDINDWG
 40
0.0000000000
  9
$TDUSRTIMER
 40
0.0000000000
  9
$USRTIMER
 70
     1
  9
$ANGBASE
 50
0.0
  9
$ANGDIR
 70
     0
  9
$PDMODE
 70
     0
  9
$PDSIZE
 40
0.0
  9
$PLINEWID
 40
0.0
  9
$SPLFRAME
 70
     0
  9
$SPLINETYPE
 70
     6
  9
$SPLINESEGS
 70
     8
  9
$HANDSEED
  5
A1
  9
$SURFTAB1
 70
     6
  9
$SURFTAB2
 70
     6
  9
$SURFTYPE
 70
     6
  9
$SURFU
 70
     6
  9
$SURFV
 70
     6
  9
$UCSBASE
  2

  9
$UCSNAME
  2

  9
$UCSORG
 10
0.0
 20
0.0
 30
0.0
  9
$UCSXDIR
 10
1.0
 20
0.0
 30
0.0
  9
$UCSYDIR
 10
0.0
 20
1.0
 30
0.0
  9
$UCSORTHOREF
  2

  9
$UCSORTHOVIEW
 70
     0
  9
$UCSORGTOP
 10
0.0
 20
0.0
 30
0.0
  9
$UCSORGBOTTOM
 10
0.0
 20
0.0
 30
0.0
  9
$UCSORGLEFT
 10
0.0
 20
0.0
 30
0.0
  9
$UCSORGRIGHT
 10
0.0
 20
0.0
 30
0.0
  9
$UCSORGFRONT
 10
0.0
 20
0.0
 30
0.0
  9
$UCSORGBACK
 10
0.0
 20
0.0
 30
0.0
  9
$PUCSBASE
  2

  9
$PUCSNAME
  2

  9
$PUCSORG
 10
0.0
 20
0.0
 30
0.0
  9
$PUCSXDIR
 10
1.0
 20
0.0
 30
0.0
  9
$PUCSYDIR
 10
0.0
 20
1.0
 30
0.0
  9
$PUCSORTHOREF
  2

  9
$PUCSORTHOVIEW
 70
     0
  9
$PUCSORGTOP
 10
0.0
 20
0.0
 30
0.0
  9
$PUCSORGBOTTOM
 10
0.0
 20
0.0
 30
0.0
  9
$PUCSORGLEFT
 10
0.0
 20
0.0
 30
0.0
  9
$PUCSORGRIGHT
 10
0.0
 20
0.0
 30
0.0
  9
$PUCSORGFRONT
 10
0.0
 20
0.0
 30
0.0
  9
$PUCSORGBACK
 10
0.0
 20
0.0
 30
0.0
  9
$USERI1
 70
     0
  9
$USERI2
 70
     0
  9
$USERI3
 70
     0
  9
$USERI4
 70
     0
  9
$USERI5
 70
     0
  9
$USERR1
 40
0.0
  9
$USERR2
 40
0.0
  9
$USERR3
 40
0.0
  9
$USERR4
 40
0.0
  9
$USERR5
 40
0.0
  9
$WORLDVIEW
 70
     1
  9
$SHADEDGE
 70
     3
  9
$SHADEDIF
 70
    70
  9
$TILEMODE
 70
     1
  9
$MAXACTVP
 70
    16
  9
$PINSBASE
 10
0.0
 20
0.0
 30
0.0
  9
$PLIMCHECK
 70
     0
  9
$PEXTMIN
 10
1.000000E+20
 20
1.000000E+20
 30
1.000000E+20
  9
$PEXTMAX
 10
-1.000000E+20
 20
-1.000000E+20
 30
-1.000000E+20
  9
$PLIMMIN
 10
0.0
 20
0.0
  9
$PLIMMAX
 10
12.0
 20
9.0
  9
$UNITMODE
 70
     0
  9
$VISRETAIN
 70
     0
  9
$PLINEGEN
 70
     1
  9
$PSLTSCALE
 70
     0
  9
$TREEDEPTH
 70
  3020
  9
$CMLSTYLE
  2
Standard
  9
$CMLJUST
 70
     0
  9
$CMLSCALE
 40
1.0
  9
$PROXYGRAPHICS
 70
     0
  9
$MEASUREMENT
 70
     1
  9
$CELWEIGHT
370
     0
  9
$ENDCAPS
280
     0
  9
$JOINSTYLE
280
     0
  9
$LWDISPLAY
290
     0
  9
$INSUNITS
 70
     0
  9
$HYPERLINKBASE
  1

  9
$STYLESHEET
  1

  9
$XEDIT
290
     1
  9
$CEPSNTYPE
380
     0
  9
$PSTYLEMODE
290
     1
  9
$FINGERPRINTGUID
  2

  9
$VERSIONGUID
  2

  9
$EXTNAMES
290
     1
  9
$PSVPSCALE
 40
0.0
  0
ENDSEC
  0
SECTION
  2
CLASSES
  0
CLASS
  1
LWPOLYLINE
  2
AcDbPolyline
  3
AutoCAD 2000
 90
    32768
280
     0
281
     1
  0
CLASS
  1
IMAGE
  2
AcDbRasterImage
  3
ISM
 90
    32895
280
     0
281
     1
  0
CLASS
  1
OLE2FRAME
  2
AcDbOle2Frame
  3
AutoCAD 2000
 90
    32768
280
     0
281
     1
  0
CLASS
  1
HATCH
  2
AcDbHatch
  3
AutoCAD 2000
 90
    32768
280
     0
281
     1
  0
CLASS
  1
DICTIONARYVAR
  2
AcDbDictionaryVar
  3
AutoCAD 2000
 90
    32768
280
     0
281
     0
  0
CLASS
  1
RASTERVARIABLES
  2
AcDbRasterVariables
  3
ISM
 90
    32768
280
     0
281
     0
  0
CLASS
  1
IMAGEDEF
  2
AcDbRasterImageDef
  3
ISM
 90
    32768
280
     0
281
     0
  0
CLASS
  1
IMAGEDEF_REACTOR
  2
AcDbRasterImageDefReactor
  3
ISM
 90
    32769
280
     0
281
     0
  0
CLASS
  1
IDBUFFER
  2
AcDbIdBuffer
  3
AutoCAD 2000
 90
    32768
280
     0
281
     0
  0
CLASS
  1
SPATIAL_FILTER
  2
AcDbSpatialFilter
  3
AutoCAD 2000
 90
    32768
280
     0
281
     0
  0
CLASS
  1
XRECORD
  2
AcDbXrecord
  3
AutoCAD 2000
 90
    32768
280
     0
281
     0
  0
CLASS
  1
SORTENTSTABLE
  2
AcDbSortentsTable
  3
AutoCAD 2000
 90
    32768
280
     0
281
     0
  0
CLASS
  1
LAYER_INDEX
  2
AcDbLayerIndex
  3
AutoCAD 2000
 90
    32768
280
     0
281
     0
  0
CLASS
  1
SPATIAL_INDEX
  2
AcDbSpatialIndex
  3
AutoCAD 2000
 90
    32768
280
     0
281
     0
  0
CLASS
  1
OBJECT_PTR
  2
CAseDLPNTableRecord
  3
"ASE-LPNTableRecord"
 90
    32769
280
     0
281
     0
  0
CLASS
  1
LAYOUT
  2
AcDbLayout
  3
AutoCAD 2000
 90
        0
280
     0
281
     0
  0
CLASS
  1
PLOTSETTINGS
  2
AcDbPlotSettings
  3
AutoCAD 2000
 90
    32768
280
     0
281
     0
  0
CLASS
  1
ACDBDICTIONARYWDFLT
  2
AcDbDictionaryWithDefault
  3
AutoCAD 2000
 90
        0
280
     0
281
     0
  0
CLASS
  1
ACDBPLACEHOLDER
  2
AcDbPlaceHolder
  3
AutoCAD 2000
 90
        0
280
     0
281
     0
  0
CLASS
  1
VBA_PROJECT
  2
AcDbVbaProject
  3
acadvba
 90
    32768
280
     0
281
     0
  0
CLASS
  1
WIPEOUT
  2
AcDbWipeout
  3
WipeOut|AutoCAD Express Tool|expresstools@autodesk.com
 90
    32895
280
     0
281
     1
  0
CLASS
  1
WIPEOUTVARIABLES
  2
AcDbWipeoutVariables
  3
WipeOut|AutoCAD Express Tool|expresstools@autodesk.com
 90
        0
280
     0
281
     0
  0
CLASS
  1
RTEXT
  2
RText
  3
RText|AutoCAD Express Tool|expresstools@autodesk.com
 90
    32768
280
     0
281
     1
  0
CLASS
  1
ARCALIGNEDTEXT
  2
AcDbArcAlignedText
  3
ATEXT|AutoCAD Express Tool|expresstools@autodesk.com
 90
    32768
280
     0
281
     1
  0
ENDSEC
  0
SECTION
  2
TABLES
  0
TABLE
  2
VPORT
  5
7
100
AcDbSymbolTable
 70
     1
  0
VPORT
  5
15
100
AcDbSymbolTableRecord
100
AcDbViewportTableRecord
  2
*ACTIVE
 70
     0
 10
0.0
 20
0.0
 11
1.0
 21
1.0
 12
6.591288
 22
4.579184
 13
0.0
 23
0.0
 14
1.0
 24
1.0
 15
0.0
 25
0.0
 16
0.0
 26
0.0
 36
1.0
 17
0.0
 27
0.0
 37
0.0
 40
9.158369
 41
0.688564
 42
50.0
 43
0.0
 44
0.0
 50
0.0
 51
0.0
 71
     0
 72
   100
 73
     1
 74
     1
 75
     0
 76
     0
 77
     0
 78
     0
281
     0
 65
     0
110
0.0
120
0.0
130
0.0
111
1.0
121
0.0
131
0.0
112
0.0
122
1.0
132
0.0
345
0
346
0
 79
     0
146
0.0
  0
ENDTAB
  0
TABLE
  2
LTYPE
  5
4
100
AcDbSymbolTable
 70
     3
  0
LTYPE
  5
11
100
AcDbSymbolTableRecord
100
AcDbLinetypeTableRecord
  2
ByBlock
 70
    64
  3

 72
    65
 73
     0
 40
0.0
  0
LTYPE
  5
12
100
AcDbSymbolTableRecord
100
AcDbLinetypeTableRecord
  2
ByLayer
 70
    64
  3

 72
    65
 73
     0
 40
0.0
  0
LTYPE
  5
13
100
AcDbSymbolTableRecord
100
AcDbLinetypeTableRecord
  2
Continuous
 70
    64
  3
Solid line
 72
    65
 73
     0
 40
0.0
  0
ENDTAB
  0
TABLE
  2
LAYER
  5
2
100
AcDbSymbolTable
 70
     2
  0
LAYER
  5
14
100
AcDbSymbolTableRecord
100
AcDbLayerTableRecord
  2
0
 70
     0
 62
     7
  6
Continuous
290
     1
370
    -3
390
1D
  0
LAYER
  5
28
100
AcDbSymbolTableRecord
100
AcDbLayerTableRecord
  2
LIVELLO_1
 70
     0
 62
   160
  6
Continuous
290
     1
370
    -3
390
1D
  0
ENDTAB
  0
TABLE
  2
STYLE
  5
3
100
AcDbSymbolTable
 70
     5
  0
STYLE
  5
17
100
AcDbSymbolTableRecord
100
AcDbTextStyleTableRecord
  2
Standard
 70
     0
 40
0.0
 41
1.0
 50
0.0
 71
     0
 42
0.0
  3
txt
  4

  0
STYLE
  5
24
100
AcDbSymbolTableRecord
100
AcDbTextStyleTableRecord
  2
STD
 70
     0
 40
0.0
 41
1.0
 50
0.0
 71
     0
 42
0.0
  3
txt
  4

  0
STYLE
  5
25
100
AcDbSymbolTableRecord
100
AcDbTextStyleTableRecord
  2
TATESTD
 70
     4
 40
0.0
 41
1.0
 50
0.0
 71
     0
 42
0.0
  3
txt
  4

  0
STYLE
  5
26
100
AcDbSymbolTableRecord
100
AcDbTextStyleTableRecord
  2
KANJISTD
 70
     0
 40
0.0
 41
1.0
 50
0.0
 71
     0
 42
0.0
  3
txt
  4
extfont
  0
STYLE
  5
27
100
AcDbSymbolTableRecord
100
AcDbTextStyleTableRecord
  2
KANJITATE
 70
     4
 40
0.0
 41
1.0
 50
0.0
 71
     0
 42
0.0
  3
txt
  4
extfont
  0
ENDTAB
  0
TABLE
  2
VIEW
  5
5
100
AcDbSymbolTable
 70
     0
  0
ENDTAB
  0
TABLE
  2
UCS
  5
6
100
AcDbSymbolTable
 70
     0
  0
ENDTAB
  0
TABLE
  2
APPID
  5
8
100
AcDbSymbolTable
 70
     1
  0
APPID
  5
16
100
AcDbSymbolTableRecord
100
AcDbRegAppTableRecord
  2
ACAD
 70
     0
  0
ENDTAB
  0
TABLE
  2
DIMSTYLE
  5
9
100
AcDbSymbolTable
 70
     1
100
AcDbDimStyleTable
 71
     0
  0
DIMSTYLE
105
18
100
AcDbSymbolTableRecord
100
AcDbDimStyleTableRecord
  2
Standard
 70
     0
  3

  4

 40
1.0
 41
0.18
 42
0.0625
 43
0.38
 44
0.18
 45
0.0
 46
0.0
 47
0.0
 48
0.0
 71
     0
 72
     0
 73
     1
 74
     1
 75
     0
 76
     0
 77
     0
 78
     0
 79
     0
140
0.18
141
0.09
142
0.0
143
25.4
144
1.0
145
0.0
146
1.0
147
0.09
148
0.0
170
     0
171
     2
172
     0
173
     0
174
     0
175
     0
176
     0
177
     0
178
     0
179
     0
271
     4
272
     4
273
     2
274
     2
275
     0
276
     0
277
     2
278
    46
279
     0
280
     0
281
     0
282
     0
283
     1
284
     0
285
     0
286
     0
288
     0
340
17
341
0
342
0
343
0
344
0
371
    -2
372
    -2
  0
ENDTAB
  0
TABLE
  2
BLOCK_RECORD
  5
1
100
AcDbSymbolTable
 70
     1
  0
BLOCK_RECORD
  5
A
100
AcDbSymbolTableRecord
100
AcDbBlockTableRecord
  2
*MODEL_SPACE
340
20
  0
BLOCK_RECORD
  5
B
100
AcDbSymbolTableRecord
100
AcDbBlockTableRecord
  2
*PAPER_SPACE
340
21
  0
BLOCK_RECORD
  5
29
100
AcDbSymbolTableRecord
100
AcDbBlockTableRecord
  2
AI9-BLK1
340
0
102
{BLKREFS
331
2A
102
}
  0
ENDTAB
  0
ENDSEC
  0
SECTION
  2
BLOCKS
  0
BLOCK
  5
D
100
AcDbEntity
  8
0
100
AcDbBlockBegin
  2
*MODEL_SPACE
 70
     0
 10
0.0
 20
0.0
 30
0.0
  3
*MODEL_SPACE
  1

  0
ENDBLK
  5
E
100
AcDbEntity
  8
0
100
AcDbBlockEnd
  0
BLOCK
  5
F
100
AcDbEntity
 67
     1
  8
0
100
AcDbBlockBegin
  2
*PAPER_SPACE
 70
     0
 10
0.0
 20
0.0
 30
0.0
  3
*PAPER_SPACE
  1

  0
ENDBLK
  5
10
100
AcDbEntity
 67
     1
  8
0
100
AcDbBlockEnd
  0
BLOCK
  5
2B
100
AcDbEntity
  8
LIVELLO_1
 62
     7
100
AcDbBlockBegin
  2
AI9-BLK1
 70
     0
 10
0.0
 20
0.0
 30
0.0
  3
AI9-BLK1
  1

  0
MTEXT
  5
9F
100
AcDbEntity
  8
LIVELLO_1
 62
     7
100
AcDbMText
 10
-27.90157
 20
-43.295661
 30
0.0
 40
10.469533
 41
0.0
 71
     1
 72
     2
  1
\fArial Narrow|b0|i0;\H10.4695;\C7;\U+0031\U+0037\U+0030
  7
STD
210
0.0
220
0.0
230
1.0
 73
     1
 44
1.0
  0
LINE
  5
9E
100
AcDbEntity
  8
LIVELLO_1
 62
     7
100
AcDbLine
 10
3.630528
 20
-51.306429
 30
0.0
 11
-8.728408
 21
-51.306429
 31
0.0
  0
LINE
  5
9D
100
AcDbEntity
  8
LIVELLO_1
 62
     7
100
AcDbLine
 10
3.630528
 20
-48.64337
 30
0.0
 11
3.630528
 21
-53.969488
 31
0.0
  0
LINE
  5
9C
100
AcDbEntity
  8
LIVELLO_1
 62
     7
100
AcDbLine
 10
-39.337048
 20
-51.306429
 30
0.0
 11
-26.977251
 21
-51.306429
 31
0.0
  0
LINE
  5
9B
100
AcDbEntity
  8
LIVELLO_1
 62
     7
100
AcDbLine
 10
-39.337048
 20
-53.969488
 30
0.0
 11
-39.337048
 21
-48.64337
 31
0.0
  0
MTEXT
  5
9A
100
AcDbEntity
  8
LIVELLO_1
 62
     7
100
AcDbMText
 10
-27.165353
 20
-101.194051
 30
0.0
 40
10.139033
 41
0.0
 71
     1
 72
     2
  1
\fArial Narrow|b0|i0;\H10.1390;\C7;\U+0031\U+0035\U+0036
  7
STD
210
0.0
220
0.0
230
1.0
 73
     1
 44
1.0
  0
SPLINE
  5
99
100
AcDbEntity
  8
LIVELLO_1
 62
     7
100
AcDbSpline
210
0.0
220
0.0
230
1.0
 70
     8
 71
     3
 72
    41
 73
    37
 74
     0
 42
0.00000001
 43
0.00000001
 40
0.0
 40
0.0
 40
0.0
 40
0.0
 40
1.0
 40
1.0
 40
1.0
 40
2.0
 40
2.0
 40
2.0
 40
3.0
 40
3.0
 40
3.0
 40
4.0
 40
4.0
 40
4.0
 40
5.0
 40
5.0
 40
5.0
 40
6.0
 40
6.0
 40
6.0
 40
7.0
 40
7.0
 40
7.0
 40
8.0
 40
8.0
 40
8.0
 40
9.0
 40
9.0
 40
9.0
 40
10.0
 40
10.0
 40
10.0
 40
11.0
 40
11.0
 40
11.0
 40
12.0
 40
12.0
 40
12.0
 40
12.0
 10
-38.231172010633678
 20
-76.187597656249991
 30
0.0
 10
-37.481691487630208
 20
-65.583938259548603
 30
0.0
 10
-28.646744113498261
 20
-57.216834852430551
 30
0.0
 10
-17.853259955512151
 20
-57.216834852430551
 30
0.0
 10
-7.0618428548177077
 20
-57.216834852430551
 30
0.0
 10
1.7760328504774303
 20
-65.583938259548603
 30
0.0
 10
2.5225850423177083
 20
-76.187597656249991
 30
0.0
 10
2.5225850423177083
 20
-76.187597656249991
 30
0.0
 10
1.5290195041232637
 20
-76.187597656249991
 30
0.0
 10
1.5290195041232637
 20
-76.187597656249991
 30
0.0
 10
0.7242451985677083
 20
-76.187597656249991
 30
0.0
 10
0.0717441134982639
 20
-76.839065212673603
 30
0.0
 10
0.0717441134982639
 20
-77.645562065972214
 30
0.0
 10
0.0717441134982639
 20
-78.450336371527769
 30
0.0
 10
0.7242451985677083
 20
-79.10180392795138
 30
0.0
 10
1.5290195041232637
 20
-79.10180392795138
 30
0.0
 10
1.5290195041232637
 20
-79.10180392795138
 30
0.0
 10
2.5225850423177083
 20
-79.10180392795138
 30
0.0
 10
2.5225850423177083
 20
-79.10180392795138
 30
0.0
 10
1.7760328504774303
 20
-89.7033962673611
 30
0.0
 10
-7.0618428548177077
 20
-98.07256673177082
 30
0.0
 10
-17.853259955512151
 20
-98.07256673177082
 30
0.0
 10
-28.646744113498261
 20
-98.07256673177082
 30
0.0
 10
-37.481691487630208
 20
-89.7033962673611
 30
0.0
 10
-38.231172010633678
 20
-79.10180392795138
 30
0.0
 10
-38.231172010633678
 20
-79.10180392795138
 30
0.0
 10
-37.235539415147564
 20
-79.10180392795138
 30
0.0
 10
-37.235539415147564
 20
-79.10180392795138
 30
0.0
 10
-36.429903835720481
 20
-79.10180392795138
 30
0.0
 10
-35.777402750651035
 20
-78.450336371527769
 30
0.0
 10
-35.777402750651035
 20
-77.645562065972214
 30
0.0
 10
-35.777402750651035
 20
-76.839065212673603
 30
0.0
 10
-36.429903835720481
 20
-76.187597656249991
 30
0.0
 10
-37.235539415147564
 20
-76.187597656249991
 30
0.0
 10
-37.235539415147564
 20
-76.187597656249991
 30
0.0
 10
-38.231172010633678
 20
-76.187597656249991
 30
0.0
 10
-38.231172010633678
 20
-76.187597656249991
 30
0.0
  0
SPLINE
  5
98
100
AcDbEntity
  8
LIVELLO_1
 62
     7
100
AcDbSpline
210
0.0
220
0.0
230
1.0
 70
     8
 71
     3
 72
    17
 73
    13
 74
     0
 42
0.00000001
 43
0.00000001
 40
0.0
 40
0.0
 40
0.0
 40
0.0
 40
1.0
 40
1.0
 40
1.0
 40
2.0
 40
2.0
 40
2.0
 40
3.0
 40
3.0
 40
3.0
 40
4.0
 40
4.0
 40
4.0
 40
4.0
 10
2.4969190809461805
 20
-75.648440212673606
 30
0.0
 10
2.4969190809461805
 20
-75.648440212673606
 30
0.0
 10
1.5290195041232637
 20
-75.648440212673606
 30
0.0
 10
1.5290195041232637
 20
-75.648440212673606
 30
0.0
 10
0.4250386555989583
 20
-75.648440212673606
 30
0.0
 10
-0.4684468587239583
 20
-76.542787000868046
 30
0.0
 10
-0.4684468587239583
 20
-77.645562065972214
 30
0.0
 10
-0.4684468587239583
 20
-78.746614583333326
 30
0.0
 10
0.4250386555989583
 20
-79.638894314236097
 30
0.0
 10
1.5290195041232637
 20
-79.638894314236097
 30
0.0
 10
1.5290195041232637
 20
-79.638894314236097
 30
0.0
 10
2.4969190809461805
 20
-79.638894314236097
 30
0.0
 10
2.4969190809461805
 20
-79.638894314236097
 30
0.0
  0
CIRCLE
  5
97
100
AcDbEntity
  8
LIVELLO_1
 62
     7
100
AcDbCircle
 10
1.5279
 20
-77.645562
 30
0.0
 40
0.86291
  0
LINE
  5
96
100
AcDbEntity
  8
LIVELLO_1
 62
     7
100
AcDbLine
 10
-13.609419
 20
-77.94184
 30
0.0
 11
-15.907987
 21
-77.94184
 31
0.0
  0
LINE
  5
95
100
AcDbEntity
  8
LIVELLO_1
 62
     7
100
AcDbLine
 10
-13.609419
 20
-77.347561
 30
0.0
 11
-15.907987
 21
-77.347561
 31
0.0
  0
LINE
  5
94
100
AcDbEntity
  8
LIVELLO_1
 62
     7
100
AcDbLine
 10
-18.150399
 20
-81.887508
 30
0.0
 11
-18.150399
 21
-79.589974
 31
0.0
  0
LINE
  5
93
100
AcDbEntity
  8
LIVELLO_1
 62
     7
100
AcDbLine
 10
-17.55612
 20
-81.887508
 30
0.0
 11
-17.55612
 21
-79.589974
 31
0.0
  0
LINE
  5
92
100
AcDbEntity
  8
LIVELLO_1
 62
     7
100
AcDbLine
 10
-22.098134
 20
-77.347561
 30
0.0
 11
-19.7975
 21
-77.347561
 31
0.0
  0
LINE
  5
91
100
AcDbEntity
  8
LIVELLO_1
 62
     7
100
AcDbLine
 10
-22.098134
 20
-77.94184
 30
0.0
 11
-19.7975
 21
-77.94184
 31
0.0
  0
LINE
  5
90
100
AcDbEntity
  8
LIVELLO_1
 62
     7
100
AcDbLine
 10
-17.55612
 20
-73.399826
 30
0.0
 11
-17.55612
 21
-75.699428
 31
0.0
  0
LINE
  5
8F
100
AcDbEntity
  8
LIVELLO_1
 62
     7
100
AcDbLine
 10
-18.150399
 20
-73.399826
 30
0.0
 11
-18.150399
 21
-75.699428
 31
0.0
  0
CIRCLE
  5
8E
100
AcDbEntity
  8
LIVELLO_1
 62
     7
100
AcDbCircle
 10
-17.853346
 20
-77.645562
 30
0.0
 40
1.097694
  0
CIRCLE
  5
8D
100
AcDbEntity
  8
LIVELLO_1
 62
     7
100
AcDbCircle
 10
-17.85326
 20
-77.645562
 30
0.0
 40
1.929942
  0
SPLINE
  5
8C
100
AcDbEntity
  8
LIVELLO_1
 62
     7
100
AcDbSpline
210
0.0
220
0.0
230
1.0
 70
     8
 71
     3
 72
    17
 73
    13
 74
     0
 42
0.00000001
 43
0.00000001
 40
0.0
 40
0.0
 40
0.0
 40
0.0
 40
1.0
 40
1.0
 40
1.0
 40
2.0
 40
2.0
 40
2.0
 40
3.0
 40
3.0
 40
3.0
 40
4.0
 40
4.0
 40
4.0
 40
4.0
 10
-38.205678304036454
 20
-75.648440212673606
 30
0.0
 10
-38.205678304036454
 20
-75.648440212673606
 30
0.0
 10
-37.235539415147564
 20
-75.648440212673606
 30
0.0
 10
-37.235539415147564
 20
-75.648440212673606
 30
0.0
 10
-36.132764350043402
 20
-75.648440212673606
 30
0.0
 10
-35.238245307074649
 20
-76.542787000868046
 30
0.0
 10
-35.238245307074649
 20
-77.645562065972214
 30
0.0
 10
-35.238245307074649
 20
-78.746614583333326
 30
0.0
 10
-36.132764350043402
 20
-79.638894314236097
 30
0.0
 10
-37.235539415147564
 20
-79.638894314236097
 30
0.0
 10
-37.235539415147564
 20
-79.638894314236097
 30
0.0
 10
-38.205678304036454
 20
-79.638894314236097
 30
0.0
 10
-38.205678304036454
 20
-79.638894314236097
 30
0.0
  0
CIRCLE
  5
8B
100
AcDbEntity
  8
LIVELLO_1
 62
     7
100
AcDbCircle
 10
-37.235023
 20
-77.645562
 30
0.0
 40
0.861274
  0
CIRCLE
  5
8A
100
AcDbEntity
  8
LIVELLO_1
 62
     7
100
AcDbCircle
 10
-17.854293
 20
-77.645562
 30
0.0
 40
4.271402
  0
CIRCLE
  5
89
100
AcDbEntity
  8
LIVELLO_1
 62
     7
100
AcDbCircle
 10
-17.853863
 20
-77.645562
 30
0.0
 40
9.560398
  0
CIRCLE
  5
88
100
AcDbEntity
  8
LIVELLO_1
 62
     7
100
AcDbCircle
 10
-17.85326
 20
-77.645562
 30
0.0
 40
21.483788
  0
LINE
  5
87
100
AcDbEntity
  8
LIVELLO_1
 62
     7
100
AcDbLine
 10
1.698518
 20
-107.842858
 30
0.0
 11
-7.85232
 21
-107.842858
 31
0.0
  0
LINE
  5
86
100
AcDbEntity
  8
LIVELLO_1
 62
     7
100
AcDbLine
 10
1.771899
 20
-110.855249
 30
0.0
 11
1.698518
 21
-80.572171
 31
0.0
  0
LINE
  5
85
100
AcDbEntity
  8
LIVELLO_1
 62
     7
100
AcDbLine
 10
-37.345782
 20
-107.407742
 30
0.0
 11
-27.258026
 21
-107.405675
 31
0.0
  0
LINE
  5
84
100
AcDbEntity
  8
LIVELLO_1
 62
     7
100
AcDbLine
 10
-37.559206
 20
-110.855249
 30
0.0
 11
-37.471356
 21
-80.572171
 31
0.0
  0
SPLINE
  5
83
100
AcDbEntity
  8
LIVELLO_1
 62
     7
100
AcDbSpline
210
0.0
220
0.0
230
1.0
 70
     8
 71
     3
 72
    17
 73
    13
 74
     0
 42
0.00000001
 43
0.00000001
 40
0.0
 40
0.0
 40
0.0
 40
0.0
 40
1.0
 40
1.0
 40
1.0
 40
2.0
 40
2.0
 40
2.0
 40
3.0
 40
3.0
 40
3.0
 40
4.0
 40
4.0
 40
4.0
 40
4.0
 10
-20.787103271484373
 20
18.265896267361111
 30
0.0
 10
-20.787103271484373
 20
-5.5838107638888888
 30
0.0
 10
-25.555804443359374
 20
-10.356646050347221
 30
0.0
 10
-25.555804443359374
 20
-10.356646050347221
 30
0.0
 10
-25.555804443359374
 20
-10.356646050347221
 30
0.0
 10
-8.8622497558593736
 20
-10.356646050347221
 30
0.0
 10
-8.8622497558593736
 20
-10.356646050347221
 30
0.0
 10
-8.8622497558593736
 20
-10.356646050347221
 30
0.0
 10
-13.632845730251734
 20
-5.5838107638888888
 30
0.0
 10
-13.632845730251734
 20
18.265896267361111
 30
0.0
 10
-13.632845730251734
 20
18.265896267361111
 30
0.0
 10
-20.787103271484373
 20
18.265896267361111
 30
0.0
 10
-20.787103271484373
 20
18.265896267361111
 30
0.0
  0
SPLINE
  5
82
100
AcDbEntity
  8
LIVELLO_1
 62
     7
100
AcDbSpline
210
0.0
220
0.0
230
1.0
 70
     8
 71
     3
 72
    17
 73
    13
 74
     0
 42
0.00000001
 43
0.00000001
 40
0.0
 40
0.0
 40
0.0
 40
0.0
 40
1.0
 40
1.0
 40
1.0
 40
2.0
 40
2.0
 40
2.0
 40
3.0
 40
3.0
 40
3.0
 40
4.0
 40
4.0
 40
4.0
 40
4.0
 10
0.6773918999565972
 20
-19.896115451388887
 30
0.0
 10
0.6773918999565972
 20
-19.896115451388887
 30
0.0
 10
-1.7079922146267359
 20
-12.742030164930554
 30
0.0
 10
-8.8622497558593736
 20
-10.356646050347221
 30
0.0
 10
-8.8622497558593736
 20
-10.356646050347221
 30
0.0
 10
-25.555804443359374
 20
-10.356646050347221
 30
0.0
 10
-25.555804443359374
 20
-10.356646050347221
 30
0.0
 10
-32.713851589626735
 20
-12.742030164930554
 30
0.0
 10
-35.098202175564232
 20
-19.896115451388887
 30
0.0
 10
-35.098202175564232
 20
-19.896115451388887
 30
0.0
 10
-35.098202175564232
 20
-19.896115451388887
 30
0.0
 10
0.6773918999565972
 20
-19.896115451388887
 30
0.0
 10
0.6773918999565972
 20
-19.896115451388887
 30
0.0
  0
POLYLINE
  5
7C
100
AcDbEntity
  8
LIVELLO_1
 62
     7
100
AcDb2dPolyline
 66
     1
 10
0.0
 20
0.0
 30
0.0
 70
     1
  0
VERTEX
  5
7D
100
AcDbEntity
  8
LIVELLO_1
 62
     7
100
AcDbVertex
100
AcDb2dVertex
 10
-35.098202
 20
-19.896115
 30
0.0
  0
VERTEX
  5
7E
100
AcDbEntity
  8
LIVELLO_1
 62
     7
100
AcDbVertex
100
AcDb2dVertex
 10
0.677392
 20
-19.896115
 30
0.0
  0
VERTEX
  5
7F
100
AcDbEntity
  8
LIVELLO_1
 62
     7
100
AcDbVertex
100
AcDb2dVertex
 10
3.063637
 20
-22.2815
 30
0.0
  0
VERTEX
  5
80
100
AcDbEntity
  8
LIVELLO_1
 62
     7
100
AcDbVertex
100
AcDb2dVertex
 10
-37.481691
 20
-22.2815
 30
0.0
  0
SEQEND
  5
81
100
AcDbEntity
  8
LIVELLO_1
 62
     7
  0
POLYLINE
  5
76
100
AcDbEntity
  8
LIVELLO_1
 62
     7
100
AcDb2dPolyline
 66
     1
 10
0.0
 20
0.0
 30
0.0
 70
     1
  0
VERTEX
  5
77
100
AcDbEntity
  8
LIVELLO_1
 62
     7
100
AcDbVertex
100
AcDb2dVertex
 10
-37.481691
 20
-22.2815
 30
0.0
  0
VERTEX
  5
78
100
AcDbEntity
  8
LIVELLO_1
 62
     7
100
AcDbVertex
100
AcDb2dVertex
 10
3.063637
 20
-22.2815
 30
0.0
  0
VERTEX
  5
79
100
AcDbEntity
  8
LIVELLO_1
 62
     7
100
AcDbVertex
100
AcDb2dVertex
 10
3.063637
 20
-27.050201
 30
0.0
  0
VERTEX
  5
7A
100
AcDbEntity
  8
LIVELLO_1
 62
     7
100
AcDbVertex
100
AcDb2dVertex
 10
-37.481691
 20
-27.050201
 30
0.0
  0
SEQEND
  5
7B
100
AcDbEntity
  8
LIVELLO_1
 62
     7
  0
POLYLINE
  5
70
100
AcDbEntity
  8
LIVELLO_1
 62
     7
100
AcDb2dPolyline
 66
     1
 10
0.0
 20
0.0
 30
0.0
 70
     1
  0
VERTEX
  5
71
100
AcDbEntity
  8
LIVELLO_1
 62
     7
100
AcDbVertex
100
AcDb2dVertex
 10
-22.508617
 20
78.190232
 30
0.0
  0
VERTEX
  5
72
100
AcDbEntity
  8
LIVELLO_1
 62
     7
100
AcDbVertex
100
AcDb2dVertex
 10
-11.38027
 20
78.190232
 30
0.0
  0
VERTEX
  5
73
100
AcDbEntity
  8
LIVELLO_1
 62
     7
100
AcDbVertex
100
AcDb2dVertex
 10
-11.38027
 20
76.268557
 30
0.0
  0
VERTEX
  5
74
100
AcDbEntity
  8
LIVELLO_1
 62
     7
100
AcDbVertex
100
AcDb2dVertex
 10
-22.508617
 20
76.268557
 30
0.0
  0
SEQEND
  5
75
100
AcDbEntity
  8
LIVELLO_1
 62
     7
  0
LINE
  5
6F
100
AcDbEntity
  8
LIVELLO_1
 62
     7
100
AcDbLine
 10
-21.768266
 20
80.694127
 30
0.0
 11
-12.062399
 21
80.694127
 31
0.0
  0
LINE
  5
6E
100
AcDbEntity
  8
LIVELLO_1
 62
     7
100
AcDbLine
 10
-18.793771
 20
83.355119
 30
0.0
 11
-15.079958
 21
83.355119
 31
0.0
  0
SPLINE
  5
6D
100
AcDbEntity
  8
LIVELLO_1
 62
     7
100
AcDbSpline
210
0.0
220
0.0
230
1.0
 70
     8
 71
     3
 72
    47
 73
    43
 74
     0
 42
0.00000001
 43
0.00000001
 40
0.0
 40
0.0
 40
0.0
 40
0.0
 40
1.0
 40
1.0
 40
1.0
 40
2.0
 40
2.0
 40
2.0
 40
3.0
 40
3.0
 40
3.0
 40
4.0
 40
4.0
 40
4.0
 40
5.0
 40
5.0
 40
5.0
 40
6.0
 40
6.0
 40
6.0
 40
7.0
 40
7.0
 40
7.0
 40
8.0
 40
8.0
 40
8.0
 40
9.0
 40
9.0
 40
9.0
 40
10.0
 40
10.0
 40
10.0
 40
11.0
 40
11.0
 40
11.0
 40
12.0
 40
12.0
 40
12.0
 40
13.0
 40
13.0
 40
13.0
 40
14.0
 40
14.0
 40
14.0
 40
14.0
 10
-16.937381320529511
 20
78.190231662326383
 30
0.0
 10
-16.937381320529511
 20
78.190231662326383
 30
0.0
 10
-24.239433458116316
 20
78.190231662326383
 30
0.0
 10
-24.239433458116316
 20
78.190231662326383
 30
0.0
 10
-24.239433458116316
 20
78.190231662326383
 30
0.0
 10
-25.416794840494788
 20
78.29031168619791
 30
0.0
 10
-25.416794840494788
 20
78.978641764322916
 30
0.0
 10
-25.416794840494788
 20
79.670933702256931
 30
0.0
 10
-23.993453640407985
 20
80.694127061631931
 30
0.0
 10
-23.067239718967013
 20
80.694127061631931
 30
0.0
 10
-23.067239718967013
 20
80.694127061631931
 30
0.0
 10
-21.768266465928818
 20
80.694127061631931
 30
0.0
 10
-21.768266465928818
 20
80.694127061631931
 30
0.0
 10
-21.768266465928818
 20
80.694127061631931
 30
0.0
 10
-21.952062310112844
 20
81.531457519531244
 30
0.0
 10
-21.209816487630206
 20
82.123669433593747
 30
0.0
 10
-20.467398410373264
 20
82.716053602430549
 30
0.0
 10
-20.158028835720483
 20
83.355118815104163
 30
0.0
 10
-18.793771023220483
 20
83.355118815104163
 30
0.0
 10
-18.793771023220483
 20
83.355118815104163
 30
0.0
 10
-18.409815131293403
 20
84.835820855034711
 30
0.0
 10
-16.937381320529511
 20
84.835820855034711
 30
0.0
 10
-15.466842312282985
 20
84.835820855034711
 30
0.0
 10
-15.079958089192706
 20
83.355118815104163
 30
0.0
 10
-15.079958089192706
 20
83.355118815104163
 30
0.0
 10
-13.718628607855901
 20
83.355118815104163
 30
0.0
 10
-13.409259033203124
 20
82.716053602430549
 30
0.0
 10
-12.667013210720485
 20
82.123669433593747
 30
0.0
 10
-11.924595133463541
 20
81.531457519531244
 30
0.0
 10
-12.110458034939235
 20
80.694127061631931
 30
0.0
 10
-12.110458034939235
 20
80.694127061631931
 30
0.0
 10
-12.110458034939235
 20
80.694127061631931
 30
0.0
 10
-10.81148478190104
 20
80.694127061631931
 30
0.0
 10
-10.81148478190104
 20
80.694127061631931
 30
0.0
 10
-9.88130900065104
 20
80.694127061631931
 30
0.0
 10
-8.4567620171440971
 20
79.670933702256931
 30
0.0
 10
-8.4567620171440971
 20
78.978641764322916
 30
0.0
 10
-8.4567620171440971
 20
78.29031168619791
 30
0.0
 10
-9.6341233995225686
 20
78.190231662326383
 30
0.0
 10
-9.6341233995225686
 20
78.190231662326383
 30
0.0
 10
-9.6341233995225686
 20
78.190231662326383
 30
0.0
 10
-16.937381320529511
 20
78.190231662326383
 30
0.0
 10
-16.937381320529511
 20
78.190231662326383
 30
0.0
  0
POLYLINE
  5
67
100
AcDbEntity
  8
LIVELLO_1
 62
     7
100
AcDb2dPolyline
 66
     1
 10
0.0
 20
0.0
 30
0.0
 70
     1
  0
VERTEX
  5
68
100
AcDbEntity
  8
LIVELLO_1
 62
     7
100
AcDbVertex
100
AcDb2dVertex
 10
-19.298133
 20
62.168643
 30
0.0
  0
VERTEX
  5
69
100
AcDbEntity
  8
LIVELLO_1
 62
     7
100
AcDbVertex
100
AcDb2dVertex
 10
-15.228958
 20
62.168643
 30
0.0
  0
VERTEX
  5
6A
100
AcDbEntity
  8
LIVELLO_1
 62
     7
100
AcDbVertex
100
AcDb2dVertex
 10
-15.228958
 20
60.959587
 30
0.0
  0
VERTEX
  5
6B
100
AcDbEntity
  8
LIVELLO_1
 62
     7
100
AcDbVertex
100
AcDb2dVertex
 10
-19.298133
 20
60.959587
 30
0.0
  0
SEQEND
  5
6C
100
AcDbEntity
  8
LIVELLO_1
 62
     7
  0
LINE
  5
66
100
AcDbEntity
  8
LIVELLO_1
 62
     7
100
AcDbLine
 10
-1.622209
 20
56.135764
 30
0.0
 11
-8.08917
 21
26.106245
 31
0.0
  0
LINE
  5
65
100
AcDbEntity
  8
LIVELLO_1
 62
     7
100
AcDbLine
 10
-32.995833
 20
56.135764
 30
0.0
 11
-26.531972
 21
26.106245
 31
0.0
  0
POLYLINE
  5
5F
100
AcDbEntity
  8
LIVELLO_1
 62
     7
100
AcDb2dPolyline
 66
     1
 10
0.0
 20
0.0
 30
0.0
 70
     1
  0
VERTEX
  5
60
100
AcDbEntity
  8
LIVELLO_1
 62
     7
100
AcDbVertex
100
AcDb2dVertex
 10
-25.733399
 20
73.162115
 30
0.0
  0
VERTEX
  5
61
100
AcDbEntity
  8
LIVELLO_1
 62
     7
100
AcDbVertex
100
AcDb2dVertex
 10
-29.606548
 20
63.132581
 30
0.0
  0
VERTEX
  5
62
100
AcDbEntity
  8
LIVELLO_1
 62
     7
100
AcDbVertex
100
AcDb2dVertex
 10
-5.010461
 20
63.132581
 30
0.0
  0
VERTEX
  5
63
100
AcDbEntity
  8
LIVELLO_1
 62
     7
100
AcDbVertex
100
AcDb2dVertex
 10
-8.885676
 20
73.162115
 30
0.0
  0
SEQEND
  5
64
100
AcDbEntity
  8
LIVELLO_1
 62
     7
  0
LINE
  5
5E
100
AcDbEntity
  8
LIVELLO_1
 62
     7
100
AcDbLine
 10
-34.378349
 20
60.875871
 30
0.0
 11
-0.242793
 21
60.875871
 31
0.0
  0
LINE
  5
5D
100
AcDbEntity
  8
LIVELLO_1
 62
     7
100
AcDbLine
 10
-40.267223
 20
59.568802
 30
0.0
 11
5.647114
 21
59.568802
 31
0.0
  0
POLYLINE
  5
4F
100
AcDbEntity
  8
LIVELLO_1
 62
     7
100
AcDb2dPolyline
 66
     1
 10
0.0
 20
0.0
 30
0.0
 70
     1
  0
VERTEX
  5
50
100
AcDbEntity
  8
LIVELLO_1
 62
     7
100
AcDbVertex
100
AcDb2dVertex
 10
-28.114649
 20
76.25426
 30
0.0
  0
VERTEX
  5
51
100
AcDbEntity
  8
LIVELLO_1
 62
     7
100
AcDbVertex
100
AcDb2dVertex
 10
-34.378349
 20
60.875871
 30
0.0
  0
VERTEX
  5
52
100
AcDbEntity
  8
LIVELLO_1
 62
     7
100
AcDbVertex
100
AcDb2dVertex
 10
-39.21957
 20
60.875871
 30
0.0
  0
VERTEX
  5
53
100
AcDbEntity
  8
LIVELLO_1
 62
     7
100
AcDbVertex
100
AcDb2dVertex
 10
-40.267223
 20
59.568802
 30
0.0
  0
VERTEX
  5
54
100
AcDbEntity
  8
LIVELLO_1
 62
     7
100
AcDbVertex
100
AcDb2dVertex
 10
-41.903127
 20
59.568802
 30
0.0
  0
VERTEX
  5
55
100
AcDbEntity
  8
LIVELLO_1
 62
     7
100
AcDbVertex
100
AcDb2dVertex
 10
-42.649679
 20
58.441394
 30
0.0
  0
VERTEX
  5
56
100
AcDbEntity
  8
LIVELLO_1
 62
     7
100
AcDbVertex
100
AcDb2dVertex
 10
8.032499
 20
58.441394
 30
0.0
  0
VERTEX
  5
57
100
AcDbEntity
  8
LIVELLO_1
 62
     7
100
AcDbVertex
100
AcDb2dVertex
 10
7.286119
 20
59.568802
 30
0.0
  0
VERTEX
  5
58
100
AcDbEntity
  8
LIVELLO_1
 62
     7
100
AcDbVertex
100
AcDb2dVertex
 10
5.647114
 20
59.568802
 30
0.0
  0
VERTEX
  5
59
100
AcDbEntity
  8
LIVELLO_1
 62
     7
100
AcDbVertex
100
AcDb2dVertex
 10
4.605662
 20
60.875871
 30
0.0
  0
VERTEX
  5
5A
100
AcDbEntity
  8
LIVELLO_1
 62
     7
100
AcDbVertex
100
AcDb2dVertex
 10
-0.242793
 20
60.875871
 30
0.0
  0
VERTEX
  5
5B
100
AcDbEntity
  8
LIVELLO_1
 62
     7
100
AcDbVertex
100
AcDb2dVertex
 10
-6.499259
 20
76.25426
 30
0.0
  0
SEQEND
  5
5C
100
AcDbEntity
  8
LIVELLO_1
 62
     7
  0
POLYLINE
  5
41
100
AcDbEntity
  8
LIVELLO_1
 62
     7
100
AcDb2dPolyline
 66
     1
 10
0.0
 20
0.0
 30
0.0
  0
VERTEX
  5
42
100
AcDbEntity
  8
LIVELLO_1
 62
     7
100
AcDbVertex
100
AcDb2dVertex
 10
-37.844116
 20
58.280164
 30
0.0
  0
VERTEX
  5
43
100
AcDbEntity
  8
LIVELLO_1
 62
     7
100
AcDbVertex
100
AcDb2dVertex
 10
-37.844116
 20
56.30733
 30
0.0
  0
VERTEX
  5
44
100
AcDbEntity
  8
LIVELLO_1
 62
     7
100
AcDbVertex
100
AcDb2dVertex
 10
-36.440067
 20
56.30733
 30
0.0
  0
VERTEX
  5
45
100
AcDbEntity
  8
LIVELLO_1
 62
     7
100
AcDbVertex
100
AcDb2dVertex
 10
-29.439116
 20
23.361192
 30
0.0
  0
VERTEX
  5
46
100
AcDbEntity
  8
LIVELLO_1
 62
     7
100
AcDbVertex
100
AcDb2dVertex
 10
-27.393763
 20
23.361192
 30
0.0
  0
VERTEX
  5
47
100
AcDbEntity
  8
LIVELLO_1
 62
     7
100
AcDbVertex
100
AcDb2dVertex
 10
-34.395747
 20
56.135764
 30
0.0
  0
VERTEX
  5
48
100
AcDbEntity
  8
LIVELLO_1
 62
     7
100
AcDbVertex
100
AcDb2dVertex
 10
-0.221261
 20
56.135764
 30
0.0
  0
VERTEX
  5
49
100
AcDbEntity
  8
LIVELLO_1
 62
     7
100
AcDbVertex
100
AcDb2dVertex
 10
-7.223246
 20
23.361192
 30
0.0
  0
VERTEX
  5
4A
100
AcDbEntity
  8
LIVELLO_1
 62
     7
100
AcDbVertex
100
AcDb2dVertex
 10
-5.177892
 20
23.361192
 30
0.0
  0
VERTEX
  5
4B
100
AcDbEntity
  8
LIVELLO_1
 62
     7
100
AcDbVertex
100
AcDb2dVertex
 10
1.824092
 20
56.30733
 30
0.0
  0
VERTEX
  5
4C
100
AcDbEntity
  8
LIVELLO_1
 62
     7
100
AcDbVertex
100
AcDb2dVertex
 10
3.22504
 20
56.30733
 30
0.0
  0
VERTEX
  5
4D
100
AcDbEntity
  8
LIVELLO_1
 62
     7
100
AcDbVertex
100
AcDb2dVertex
 10
3.22504
 20
58.280164
 30
0.0
  0
SEQEND
  5
4E
100
AcDbEntity
  8
LIVELLO_1
 62
     7
  0
SPLINE
  5
40
100
AcDbEntity
  8
LIVELLO_1
 62
     7
100
AcDbSpline
210
0.0
220
0.0
230
1.0
 70
     8
 71
     3
 72
     8
 73
     4
 74
     0
 42
0.00000001
 43
0.00000001
 40
0.0
 40
0.0
 40
0.0
 40
0.0
 40
1.0
 40
1.0
 40
1.0
 40
1.0
 10
-9.4840894911024289
 20
20.984076605902775
 30
0.0
 10
-9.4840894911024289
 20
20.984076605902775
 30
0.0
 10
-7.2232455783420129
 20
20.788050672743054
 30
0.0
 10
-7.2232455783420129
 20
23.361192491319443
 30
0.0
  0
POLYLINE
  5
3A
100
AcDbEntity
  8
LIVELLO_1
 62
     7
100
AcDb2dPolyline
 66
     1
 10
0.0
 20
0.0
 30
0.0
 70
     1
  0
VERTEX
  5
3B
100
AcDbEntity
  8
LIVELLO_1
 62
     7
100
AcDbVertex
100
AcDb2dVertex
 10
-6.686155
 20
26.020462
 30
0.0
  0
VERTEX
  5
3C
100
AcDbEntity
  8
LIVELLO_1
 62
     7
100
AcDbVertex
100
AcDb2dVertex
 10
-7.223246
 20
23.361192
 30
0.0
  0
VERTEX
  5
3D
100
AcDbEntity
  8
LIVELLO_1
 62
     7
100
AcDbVertex
100
AcDb2dVertex
 10
-27.393763
 20
23.361192
 30
0.0
  0
VERTEX
  5
3E
100
AcDbEntity
  8
LIVELLO_1
 62
     7
100
AcDbVertex
100
AcDb2dVertex
 10
-27.930853
 20
26.020462
 30
0.0
  0
SEQEND
  5
3F
100
AcDbEntity
  8
LIVELLO_1
 62
     7
  0
SPLINE
  5
39
100
AcDbEntity
  8
LIVELLO_1
 62
     7
100
AcDbSpline
210
0.0
220
0.0
230
1.0
 70
     8
 71
     3
 72
     8
 73
     4
 74
     0
 42
0.00000001
 43
0.00000001
 40
0.0
 40
0.0
 40
0.0
 40
0.0
 40
1.0
 40
1.0
 40
1.0
 40
1.0
 10
-25.1349860297309
 20
20.984076605902775
 30
0.0
 10
-25.1349860297309
 20
20.984076605902775
 30
0.0
 10
-27.393762885199649
 20
20.788050672743054
 30
0.0
 10
-27.393762885199649
 20
23.361192491319443
 30
0.0
  0
SPLINE
  5
38
100
AcDbEntity
  8
LIVELLO_1
 62
     7
100
AcDbSpline
210
0.0
220
0.0
230
1.0
 70
     8
 71
     3
 72
    17
 73
    13
 74
     0
 42
0.00000001
 43
0.00000001
 40
0.0
 40
0.0
 40
0.0
 40
0.0
 40
1.0
 40
1.0
 40
1.0
 40
2.0
 40
2.0
 40
2.0
 40
3.0
 40
3.0
 40
3.0
 40
4.0
 40
4.0
 40
4.0
 40
4.0
 10
-12.986545817057291
 20
18.731328667534722
 30
0.0
 10
-10.452161322699652
 20
18.731328667534722
 30
0.0
 10
-9.4840894911024289
 20
20.984076605902775
 30
0.0
 10
-9.4840894911024289
 20
20.984076605902775
 30
0.0
 10
-9.4840894911024289
 20
20.984076605902775
 30
0.0
 10
-25.1349860297309
 20
20.984076605902775
 30
0.0
 10
-25.1349860297309
 20
20.984076605902775
 30
0.0
 10
-25.1349860297309
 20
20.984076605902775
 30
0.0
 10
-24.165019395616316
 20
18.731328667534722
 30
0.0
 10
-21.630462646484371
 20
18.731328667534722
 30
0.0
 10
-21.630462646484371
 20
18.731328667534722
 30
0.0
 10
-12.830310736762151
 20
18.747865125868053
 30
0.0
 10
-12.830310736762151
 20
18.747865125868053
 30
0.0
  0
LINE
  5
37
100
AcDbEntity
  8
LIVELLO_1
 62
     7
100
AcDbLine
 10
7.64148
 20
93.964807
 30
0.0
 11
7.64148
 21
105.332072
 31
0.0
  0
LINE
  5
36
100
AcDbEntity
  8
LIVELLO_1
 62
     7
100
AcDbLine
 10
7.767054
 20
94.209926
 30
0.0
 11
7.767054
 21
105.579258
 31
0.0
  0
LINE
  5
35
100
AcDbEntity
  8
LIVELLO_1
 62
     7
100
AcDbLine
 10
-40.625686
 20
99.897606
 30
0.0
 11
7.788586
 21
99.895711
 31
0.0
  0
LINE
  5
34
100
AcDbEntity
  8
LIVELLO_1
 62
     7
100
AcDbLine
 10
-40.715603
 20
99.897606
 30
0.0
 11
-29.778113
 21
99.895711
 31
0.0
  0
LINE
  5
33
100
AcDbEntity
  8
LIVELLO_1
 62
     7
100
AcDbLine
 10
-40.715603
 20
94.209926
 30
0.0
 11
-40.715603
 21
105.579258
 31
0.0
  0
MTEXT
  5
32
100
AcDbEntity
  8
LIVELLO_1
 62
     7
100
AcDbMText
 10
-26.796728
 20
113.797605
 30
0.0
 40
11.193704
 41
0.0
 71
     1
 72
     2
  1
\fArial Narrow|b0|i0;\H11.1937;\C7;\U+0032\U+0031\U+0030
  7
STD
210
0.0
220
0.0
230
1.0
 73
     1
 44
1.0
  0
LINE
  5
31
100
AcDbEntity
  8
LIVELLO_1
 62
     7
100
AcDbLine
 10
32.792055
 20
84.027085
 30
0.0
 11
32.78706
 21
41.717178
 31
0.0
  0
LINE
  5
30
100
AcDbEntity
  8
LIVELLO_1
 62
     7
100
AcDbLine
 10
27.105408
 20
84.027085
 30
0.0
 11
38.47164
 21
84.027085
 31
0.0
  0
MTEXT
  5
2F
100
AcDbEntity
  8
LIVELLO_1
 62
     7
100
AcDbMText
 10
22.416117
 20
38.64767
 30
0.0
 40
11.193704
 41
0.0
 71
     1
 72
     2
  1
\fArial Narrow|b0|i0;\H11.1937;\C7;\U+0035\U+0033\U+0030
  7
STD
210
0.0
220
0.0
230
1.0
 73
     1
 44
1.0
  0
LINE
  5
2E
100
AcDbEntity
  8
LIVELLO_1
 62
     7
100
AcDbLine
 10
26.856328
 20
-24.977287
 30
0.0
 11
38.226693
 21
-24.977287
 31
0.0
  0
LINE
  5
2D
100
AcDbEntity
  8
LIVELLO_1
 62
     7
100
AcDbLine
 10
27.105408
 20
-25.104066
 30
0.0
 11
38.47164
 21
-25.104066
 31
0.0
  0
LINE
  5
2C
100
AcDbEntity
  8
LIVELLO_1
 62
     7
100
AcDbLine
 10
32.792055
 20
23.291946
 30
0.0
 11
32.78706
 21
-25.124392
 31
0.0
  0
ENDBLK
  5
A0
100
AcDbEntity
  8
LIVELLO_1
100
AcDbBlockEnd
  0
ENDSEC
  0
SECTION
  2
ENTITIES
  0
INSERT
  5
2A
100
AcDbEntity
  8
LIVELLO_1
 62
     7
100
AcDbBlockReference
  2
AI9-BLK1
 10
42.99884
 20
116.931019
 30
0.0
  0
ENDSEC
  0
SECTION
  2
OBJECTS
  0
DICTIONARY
  5
19
100
AcDbDictionary
280
     0
281
     1
  3
ACAD_GROUP
350
1A
  3
ACAD_MLINESTYLE
350
1B
  3
ACAD_LAYOUT
350
1E
  3
ACAD_PLOTSETTINGS
350
22
  3
ACAD_PLOTSTYLENAME
350
1F
  3
ACAD_WIPEOUT_VARS
350
23
  0
DICTIONARY
  5
1A
102
{ACAD_REACTORS
330
19
102
}
100
AcDbDictionary
280
     0
281
     1
  0
DICTIONARY
  5
1B
102
{ACAD_REACTORS
330
19
102
}
100
AcDbDictionary
280
     0
281
     1
  3
Standard
350
1C
  0
MLINESTYLE
  5
1C
102
{ACAD_REACTORS
330
1B
102
}
100
AcDbMlineStyle
  2
Standard
 70
     0
  3

 62
     0
 51
90.0
 52
90.0
 71
     2
 49
0.5
 62
   256
  6
ByLayer
 49
-0.5
 62
   256
  6
ByLayer
  0
ACDBDICTIONARYWDFLT
  5
1F
102
{ACAD_REACTORS
330
19
102
}
100
AcDbDictionary
281
     1
  3
Normal
350
1D
100
AcDbDictionaryWithDefault
340
1D
  0
ACDBPLACEHOLDER
  5
1D
102
{ACAD_REACTORS
330
1F
102
}
  0
LAYOUT
  5
20
102
{ACAD_REACTORS
330
1E
102
}
100
AcDbPlotSettings
  1

  2

  4

  6

 40
0.0
 41
0.0
 42
0.0
 43
0.0
 44
0.0
 45
0.0
 46
0.0
 47
0.0
 48
0.0
 49
0.0
140
0.0
141
0.0
142
1.0
143
1.0
 70
  1024
 72
     0
 73
     0
 74
     0
  7

 75
     0
147
1.0
148
0.0
149
0.0
100
AcDbLayout
  1
Model
 70
     0
 71
     0
 10
0.0
 20
0.0
 11
0.0
 21
0.0
 12
0.0
 22
0.0
 32
0.0
 14
0.0
 24
0.0
 34
0.0
 15
0.0
 25
0.0
 35
0.0
146
0.0
 13
0.0
 23
0.0
 33
0.0
 16
0.0
 26
0.0
 36
0.0
 17
0.0
 27
0.0
 37
0.0
 76
     0
330
A
331
0
345
0
346
0
  0
LAYOUT
  5
21
102
{ACAD_REACTORS
330
1E
102
}
100
AcDbPlotSettings
  1

  2

  4

  6

 40
0.0
 41
0.0
 42
0.0
 43
0.0
 44
0.0
 45
0.0
 46
0.0
 47
0.0
 48
0.0
 49
0.0
140
0.0
141
0.0
142
1.0
143
1.0
 70
     0
 72
     0
 73
     0
 74
     0
  7

 75
     0
147
1.0
148
0.0
149
0.0
100
AcDbLayout
  1
Layout1
 70
     0
 71
     0
 10
0.0
 20
0.0
 11
0.0
 21
0.0
 12
0.0
 22
0.0
 32
0.0
 14
0.0
 24
0.0
 34
0.0
 15
0.0
 25
0.0
 35
0.0
146
0.0
 13
0.0
 23
0.0
 33
0.0
 16
0.0
 26
0.0
 36
0.0
 17
0.0
 27
0.0
 37
0.0
 76
     0
330
B
331
0
345
0
346
0
  0
DICTIONARY
  5
1E
102
{ACAD_REACTORS
330
19
102
}
100
AcDbDictionary
280
     0
281
     1
  3
Layout1
350
21
  3
Model
350
20
  0
DICTIONARY
  5
22
102
{ACAD_REACTORS
330
19
102
}
100
AcDbDictionary
280
     0
281
     1
  0
WIPEOUTVARIABLES
  5
23
100
AcDbWipeoutVariables
 70
     1
  0
ENDSEC
  0
EOF
