  0
SECTION
  2
HEADER
  9
$ACADVER
  1
AC1015
  9
$ACADMAINTVER
 70
     6
  9
$DWGCODEPAGE
  3
ANSI_932
  9
$INSBASE
 10
0.0
 20
0.0
 30
0.0
  9
$EXTMIN
 10
0.0
 20
0.0
 30
1.000000E+20
  9
$EXTMAX
 10
56.86199
 20
244.516169
 30
-1.000000E+20
  9
$LIMMIN
 10
0.0
 20
0.0
  9
$LIMMAX
 10
56.86199
 20
244.516169
  9
$ORTHOMODE
 70
     0
  9
$REGENMODE
 70
     1
  9
$FILLMODE
 70
     1
  9
$QTEXTMODE
 70
     0
  9
$MIRRTEXT
 70
     1
  9
$LTSCALE
 40
1.0
  9
$ATTMODE
 70
     1
  9
$TEXTSIZE
 40
0.2
  9
$TRACEWID
 40
0.05
  9
$TEXTSTYLE
  7
Standard
  9
$CLAYER
  8
0
  9
$CELTYPE
  6
Continuous
  9
$CECOLOR
 62
   256
  9
$CELTSCALE
 40
1.0
  9
$DISPSILH
 70
     0
  9
$DIMSCALE
 40
1.0
  9
$DIMASZ
 40
0.18
  9
$DIMEXO
 40
0.0625
  9
$DIMDLI
 40
0.38
  9
$DIMRND
 40
0.0
  9
$DIMDLE
 40
0.0
  9
$DIMEXE
 40
0.18
  9
$DIMTP
 40
0.0
  9
$DIMTM
 40
0.0
  9
$DIMTXT
 40
0.18
  9
$DIMCEN
 40
0.09
  9
$DIMTSZ
 40
0.0
  9
$DIMTOL
 70
     0
  9
$DIMLIM
 70
     0
  9
$DIMTIH
 70
     1
  9
$DIMTOH
 70
     1
  9
$DIMSE1
 70
     0
  9
$DIMSE2
 70
     0
  9
$DIMTAD
 70
     0
  9
$DIMZIN
 70
     0
  9
$DIMBLK
  1

  9
$DIMASO
 70
     1
  9
$DIMSHO
 70
     1
  9
$DIMPOST
  1

  9
$DIMAPOST
  1

  9
$DIMALT
 70
     0
  9
$DIMALTD
 70
     2
  9
$DIMALTF
 40
25.4
  9
$DIMLFAC
 40
1.0
  9
$DIMTOFL
 70
     0
  9
$DIMTVP
 40
0.0
  9
$DIMTIX
 70
     0
  9
$DIMSOXD
 70
     0
  9
$DIMSAH
 70
     0
  9
$DIMBLK1
  1

  9
$DIMBLK2
  1

  9
$DIMSTYLE
  2
Standard
  9
$DIMCLRD
 70
     0
  9
$DIMCLRE
 70
     0
  9
$DIMCLRT
 70
     0
  9
$DIMTFAC
 40
1.0
  9
$DIMGAP
 40
0.09
  9
$DIMJUST
 70
     0
  9
$DIMSD1
 70
     0
  9
$DIMSD2
 70
     0
  9
$DIMTOLJ
 70
     1
  9
$DIMTZIN
 70
     0
  9
$DIMALTZ
 70
     0
  9
$DIMALTTZ
 70
     0
  9
$DIMUPT
 70
     0
  9
$DIMDEC
 70
     4
  9
$DIMTDEC
 70
     4
  9
$DIMALTU
 70
     2
  9
$DIMALTTD
 70
     2
  9
$DIMTXSTY
  7
Standard
  9
$DIMAUNIT
 70
     0
  9
$DIMADEC
 70
     0
  9
$DIMALTRND
 40
0.0
  9
$DIMAZIN
 70
     0
  9
$DIMDSEP
 70
     0
  9
$DIMATFIT
 70
     3
  9
$DIMFRAC
 70
     0
  9
$DIMLDRBLK
  1

  9
$DIMLUNIT
 70
     2
  9
$DIMLWD
 70
     0
  9
$DIMLWE
 70
     0
  9
$DIMTMOVE
 70
     0
  9
$LUNITS
 70
     2
  9
$LUPREC
 70
     4
  9
$SKETCHINC
 40
0.1
  9
$FILLETRAD
 40
0.0
  9
$AUNITS
 70
     0
  9
$AUPREC
 70
     0
  9
$MENU
  1
acad
  9
$ELEVATION
 40
0.0
  9
$PELEVATION
 40
0.0
  9
$THICKNESS
 40
0.0
  9
$LIMCHECK
 70
     0
  9
$CHAMFERA
 40
0.0
  9
$CHAMFERB
 40
0.0
  9
$CHAMFERC
 40
0.0
  9
$CHAMFERD
 40
0.0
  9
$SKPOLY
 70
     0
  9
$TDCREATE
 40
0.000000000
  9
$TDUCREATE
 40
0.000000000
  9
$TDUPDATE
 40
0.000000000
  9
$TDUUPDATE
 40
0.000000000
  9
$TDINDWG
 40
0.0000000000
  9
$TDUSRTIMER
 40
0.0000000000
  9
$USRTIMER
 70
     1
  9
$ANGBASE
 50
0.0
  9
$ANGDIR
 70
     0
  9
$PDMODE
 70
     0
  9
$PDSIZE
 40
0.0
  9
$PLINEWID
 40
0.0
  9
$SPLFRAME
 70
     0
  9
$SPLINETYPE
 70
     6
  9
$SPLINESEGS
 70
     8
  9
$HANDSEED
  5
C9
  9
$SURFTAB1
 70
     6
  9
$SURFTAB2
 70
     6
  9
$SURFTYPE
 70
     6
  9
$SURFU
 70
     6
  9
$SURFV
 70
     6
  9
$UCSBASE
  2

  9
$UCSNAME
  2

  9
$UCSORG
 10
0.0
 20
0.0
 30
0.0
  9
$UCSXDIR
 10
1.0
 20
0.0
 30
0.0
  9
$UCSYDIR
 10
0.0
 20
1.0
 30
0.0
  9
$UCSORTHOREF
  2

  9
$UCSORTHOVIEW
 70
     0
  9
$UCSORGTOP
 10
0.0
 20
0.0
 30
0.0
  9
$UCSORGBOTTOM
 10
0.0
 20
0.0
 30
0.0
  9
$UCSORGLEFT
 10
0.0
 20
0.0
 30
0.0
  9
$UCSORGRIGHT
 10
0.0
 20
0.0
 30
0.0
  9
$UCSORGFRONT
 10
0.0
 20
0.0
 30
0.0
  9
$UCSORGBACK
 10
0.0
 20
0.0
 30
0.0
  9
$PUCSBASE
  2

  9
$PUCSNAME
  2

  9
$PUCSORG
 10
0.0
 20
0.0
 30
0.0
  9
$PUCSXDIR
 10
1.0
 20
0.0
 30
0.0
  9
$PUCSYDIR
 10
0.0
 20
1.0
 30
0.0
  9
$PUCSORTHOREF
  2

  9
$PUCSORTHOVIEW
 70
     0
  9
$PUCSORGTOP
 10
0.0
 20
0.0
 30
0.0
  9
$PUCSORGBOTTOM
 10
0.0
 20
0.0
 30
0.0
  9
$PUCSORGLEFT
 10
0.0
 20
0.0
 30
0.0
  9
$PUCSORGRIGHT
 10
0.0
 20
0.0
 30
0.0
  9
$PUCSORGFRONT
 10
0.0
 20
0.0
 30
0.0
  9
$PUCSORGBACK
 10
0.0
 20
0.0
 30
0.0
  9
$USERI1
 70
     0
  9
$USERI2
 70
     0
  9
$USERI3
 70
     0
  9
$USERI4
 70
     0
  9
$USERI5
 70
     0
  9
$USERR1
 40
0.0
  9
$USERR2
 40
0.0
  9
$USERR3
 40
0.0
  9
$USERR4
 40
0.0
  9
$USERR5
 40
0.0
  9
$WORLDVIEW
 70
     1
  9
$SHADEDGE
 70
     3
  9
$SHADEDIF
 70
    70
  9
$TILEMODE
 70
     1
  9
$MAXACTVP
 70
    16
  9
$PINSBASE
 10
0.0
 20
0.0
 30
0.0
  9
$PLIMCHECK
 70
     0
  9
$PEXTMIN
 10
1.000000E+20
 20
1.000000E+20
 30
1.000000E+20
  9
$PEXTMAX
 10
-1.000000E+20
 20
-1.000000E+20
 30
-1.000000E+20
  9
$PLIMMIN
 10
0.0
 20
0.0
  9
$PLIMMAX
 10
12.0
 20
9.0
  9
$UNITMODE
 70
     0
  9
$VISRETAIN
 70
     0
  9
$PLINEGEN
 70
     1
  9
$PSLTSCALE
 70
     0
  9
$TREEDEPTH
 70
  3020
  9
$CMLSTYLE
  2
Standard
  9
$CMLJUST
 70
     0
  9
$CMLSCALE
 40
1.0
  9
$PROXYGRAPHICS
 70
     0
  9
$MEASUREMENT
 70
     1
  9
$CELWEIGHT
370
     0
  9
$ENDCAPS
280
     0
  9
$JOINSTYLE
280
     0
  9
$LWDISPLAY
290
     0
  9
$INSUNITS
 70
     0
  9
$HYPERLINKBASE
  1

  9
$STYLESHEET
  1

  9
$XEDIT
290
     1
  9
$CEPSNTYPE
380
     0
  9
$PSTYLEMODE
290
     1
  9
$FINGERPRINTGUID
  2

  9
$VERSIONGUID
  2

  9
$EXTNAMES
290
     1
  9
$PSVPSCALE
 40
0.0
  0
ENDSEC
  0
SECTION
  2
CLASSES
  0
CLASS
  1
LWPOLYLINE
  2
AcDbPolyline
  3
AutoCAD 2000
 90
    32768
280
     0
281
     1
  0
CLASS
  1
IMAGE
  2
AcDbRasterImage
  3
ISM
 90
    32895
280
     0
281
     1
  0
CLASS
  1
OLE2FRAME
  2
AcDbOle2Frame
  3
AutoCAD 2000
 90
    32768
280
     0
281
     1
  0
CLASS
  1
HATCH
  2
AcDbHatch
  3
AutoCAD 2000
 90
    32768
280
     0
281
     1
  0
CLASS
  1
DICTIONARYVAR
  2
AcDbDictionaryVar
  3
AutoCAD 2000
 90
    32768
280
     0
281
     0
  0
CLASS
  1
RASTERVARIABLES
  2
AcDbRasterVariables
  3
ISM
 90
    32768
280
     0
281
     0
  0
CLASS
  1
IMAGEDEF
  2
AcDbRasterImageDef
  3
ISM
 90
    32768
280
     0
281
     0
  0
CLASS
  1
IMAGEDEF_REACTOR
  2
AcDbRasterImageDefReactor
  3
ISM
 90
    32769
280
     0
281
     0
  0
CLASS
  1
IDBUFFER
  2
AcDbIdBuffer
  3
AutoCAD 2000
 90
    32768
280
     0
281
     0
  0
CLASS
  1
SPATIAL_FILTER
  2
AcDbSpatialFilter
  3
AutoCAD 2000
 90
    32768
280
     0
281
     0
  0
CLASS
  1
XRECORD
  2
AcDbXrecord
  3
AutoCAD 2000
 90
    32768
280
     0
281
     0
  0
CLASS
  1
SORTENTSTABLE
  2
AcDbSortentsTable
  3
AutoCAD 2000
 90
    32768
280
     0
281
     0
  0
CLASS
  1
LAYER_INDEX
  2
AcDbLayerIndex
  3
AutoCAD 2000
 90
    32768
280
     0
281
     0
  0
CLASS
  1
SPATIAL_INDEX
  2
AcDbSpatialIndex
  3
AutoCAD 2000
 90
    32768
280
     0
281
     0
  0
CLASS
  1
OBJECT_PTR
  2
CAseDLPNTableRecord
  3
"ASE-LPNTableRecord"
 90
    32769
280
     0
281
     0
  0
CLASS
  1
LAYOUT
  2
AcDbLayout
  3
AutoCAD 2000
 90
        0
280
     0
281
     0
  0
CLASS
  1
PLOTSETTINGS
  2
AcDbPlotSettings
  3
AutoCAD 2000
 90
    32768
280
     0
281
     0
  0
CLASS
  1
ACDBDICTIONARYWDFLT
  2
AcDbDictionaryWithDefault
  3
AutoCAD 2000
 90
        0
280
     0
281
     0
  0
CLASS
  1
ACDBPLACEHOLDER
  2
AcDbPlaceHolder
  3
AutoCAD 2000
 90
        0
280
     0
281
     0
  0
CLASS
  1
VBA_PROJECT
  2
AcDbVbaProject
  3
acadvba
 90
    32768
280
     0
281
     0
  0
CLASS
  1
WIPEOUT
  2
AcDbWipeout
  3
WipeOut|AutoCAD Express Tool|expresstools@autodesk.com
 90
    32895
280
     0
281
     1
  0
CLASS
  1
WIPEOUTVARIABLES
  2
AcDbWipeoutVariables
  3
WipeOut|AutoCAD Express Tool|expresstools@autodesk.com
 90
        0
280
     0
281
     0
  0
CLASS
  1
RTEXT
  2
RText
  3
RText|AutoCAD Express Tool|expresstools@autodesk.com
 90
    32768
280
     0
281
     1
  0
CLASS
  1
ARCALIGNEDTEXT
  2
AcDbArcAlignedText
  3
ATEXT|AutoCAD Express Tool|expresstools@autodesk.com
 90
    32768
280
     0
281
     1
  0
ENDSEC
  0
SECTION
  2
TABLES
  0
TABLE
  2
VPORT
  5
7
100
AcDbSymbolTable
 70
     1
  0
VPORT
  5
15
100
AcDbSymbolTableRecord
100
AcDbViewportTableRecord
  2
*ACTIVE
 70
     0
 10
0.0
 20
0.0
 11
1.0
 21
1.0
 12
6.591288
 22
4.579184
 13
0.0
 23
0.0
 14
1.0
 24
1.0
 15
0.0
 25
0.0
 16
0.0
 26
0.0
 36
1.0
 17
0.0
 27
0.0
 37
0.0
 40
9.158369
 41
0.688564
 42
50.0
 43
0.0
 44
0.0
 50
0.0
 51
0.0
 71
     0
 72
   100
 73
     1
 74
     1
 75
     0
 76
     0
 77
     0
 78
     0
281
     0
 65
     0
110
0.0
120
0.0
130
0.0
111
1.0
121
0.0
131
0.0
112
0.0
122
1.0
132
0.0
345
0
346
0
 79
     0
146
0.0
  0
ENDTAB
  0
TABLE
  2
LTYPE
  5
4
100
AcDbSymbolTable
 70
     3
  0
LTYPE
  5
11
100
AcDbSymbolTableRecord
100
AcDbLinetypeTableRecord
  2
ByBlock
 70
    64
  3

 72
    65
 73
     0
 40
0.0
  0
LTYPE
  5
12
100
AcDbSymbolTableRecord
100
AcDbLinetypeTableRecord
  2
ByLayer
 70
    64
  3

 72
    65
 73
     0
 40
0.0
  0
LTYPE
  5
13
100
AcDbSymbolTableRecord
100
AcDbLinetypeTableRecord
  2
Continuous
 70
    64
  3
Solid line
 72
    65
 73
     0
 40
0.0
  0
ENDTAB
  0
TABLE
  2
LAYER
  5
2
100
AcDbSymbolTable
 70
     2
  0
LAYER
  5
14
100
AcDbSymbolTableRecord
100
AcDbLayerTableRecord
  2
0
 70
     0
 62
     7
  6
Continuous
290
     1
370
    -3
390
1D
  0
LAYER
  5
28
100
AcDbSymbolTableRecord
100
AcDbLayerTableRecord
  2
LIVELLO_1
 70
     0
 62
   160
  6
Continuous
290
     1
370
    -3
390
1D
  0
ENDTAB
  0
TABLE
  2
STYLE
  5
3
100
AcDbSymbolTable
 70
     5
  0
STYLE
  5
17
100
AcDbSymbolTableRecord
100
AcDbTextStyleTableRecord
  2
Standard
 70
     0
 40
0.0
 41
1.0
 50
0.0
 71
     0
 42
0.0
  3
txt
  4

  0
STYLE
  5
24
100
AcDbSymbolTableRecord
100
AcDbTextStyleTableRecord
  2
STD
 70
     0
 40
0.0
 41
1.0
 50
0.0
 71
     0
 42
0.0
  3
txt
  4

  0
STYLE
  5
25
100
AcDbSymbolTableRecord
100
AcDbTextStyleTableRecord
  2
TATESTD
 70
     4
 40
0.0
 41
1.0
 50
0.0
 71
     0
 42
0.0
  3
txt
  4

  0
STYLE
  5
26
100
AcDbSymbolTableRecord
100
AcDbTextStyleTableRecord
  2
KANJISTD
 70
     0
 40
0.0
 41
1.0
 50
0.0
 71
     0
 42
0.0
  3
txt
  4
extfont
  0
STYLE
  5
27
100
AcDbSymbolTableRecord
100
AcDbTextStyleTableRecord
  2
KANJITATE
 70
     4
 40
0.0
 41
1.0
 50
0.0
 71
     0
 42
0.0
  3
txt
  4
extfont
  0
ENDTAB
  0
TABLE
  2
VIEW
  5
5
100
AcDbSymbolTable
 70
     0
  0
ENDTAB
  0
TABLE
  2
UCS
  5
6
100
AcDbSymbolTable
 70
     0
  0
ENDTAB
  0
TABLE
  2
APPID
  5
8
100
AcDbSymbolTable
 70
     1
  0
APPID
  5
16
100
AcDbSymbolTableRecord
100
AcDbRegAppTableRecord
  2
ACAD
 70
     0
  0
ENDTAB
  0
TABLE
  2
DIMSTYLE
  5
9
100
AcDbSymbolTable
 70
     1
100
AcDbDimStyleTable
 71
     0
  0
DIMSTYLE
105
18
100
AcDbSymbolTableRecord
100
AcDbDimStyleTableRecord
  2
Standard
 70
     0
  3

  4

 40
1.0
 41
0.18
 42
0.0625
 43
0.38
 44
0.18
 45
0.0
 46
0.0
 47
0.0
 48
0.0
 71
     0
 72
     0
 73
     1
 74
     1
 75
     0
 76
     0
 77
     0
 78
     0
 79
     0
140
0.18
141
0.09
142
0.0
143
25.4
144
1.0
145
0.0
146
1.0
147
0.09
148
0.0
170
     0
171
     2
172
     0
173
     0
174
     0
175
     0
176
     0
177
     0
178
     0
179
     0
271
     4
272
     4
273
     2
274
     2
275
     0
276
     0
277
     2
278
    46
279
     0
280
     0
281
     0
282
     0
283
     1
284
     0
285
     0
286
     0
288
     0
340
17
341
0
342
0
343
0
344
0
371
    -2
372
    -2
  0
ENDTAB
  0
TABLE
  2
BLOCK_RECORD
  5
1
100
AcDbSymbolTable
 70
     1
  0
BLOCK_RECORD
  5
A
100
AcDbSymbolTableRecord
100
AcDbBlockTableRecord
  2
*MODEL_SPACE
340
20
  0
BLOCK_RECORD
  5
B
100
AcDbSymbolTableRecord
100
AcDbBlockTableRecord
  2
*PAPER_SPACE
340
21
  0
BLOCK_RECORD
  5
29
100
AcDbSymbolTableRecord
100
AcDbBlockTableRecord
  2
AI9-BLK1
340
0
102
{BLKREFS
331
2A
102
}
  0
ENDTAB
  0
ENDSEC
  0
SECTION
  2
BLOCKS
  0
BLOCK
  5
D
100
AcDbEntity
  8
0
100
AcDbBlockBegin
  2
*MODEL_SPACE
 70
     0
 10
0.0
 20
0.0
 30
0.0
  3
*MODEL_SPACE
  1

  0
ENDBLK
  5
E
100
AcDbEntity
  8
0
100
AcDbBlockEnd
  0
BLOCK
  5
F
100
AcDbEntity
 67
     1
  8
0
100
AcDbBlockBegin
  2
*PAPER_SPACE
 70
     0
 10
0.0
 20
0.0
 30
0.0
  3
*PAPER_SPACE
  1

  0
ENDBLK
  5
10
100
AcDbEntity
 67
     1
  8
0
100
AcDbBlockEnd
  0
BLOCK
  5
2B
100
AcDbEntity
  8
LIVELLO_1
 62
     7
100
AcDbBlockBegin
  2
AI9-BLK1
 70
     0
 10
0.0
 20
0.0
 30
0.0
  3
AI9-BLK1
  1

  0
MTEXT
  5
C7
100
AcDbEntity
  8
LIVELLO_1
 62
     7
100
AcDbMText
 10
-16.747298
 20
120.679841
 30
0.0
 40
10.306303
 41
0.0
 71
     1
 72
     2
  1
\fArial Narrow|b0|i0;\H10.3063;\C7;\U+0031\U+0032\U+0030
  7
STD
210
0.0
220
0.0
230
1.0
 73
     1
 44
1.0
  0
LINE
  5
C6
100
AcDbEntity
  8
LIVELLO_1
 62
     7
100
AcDbLine
 10
14.244781
 20
113.414697
 30
0.0
 11
4.912362
 21
113.414697
 31
0.0
  0
LINE
  5
C5
100
AcDbEntity
  8
LIVELLO_1
 62
     7
100
AcDbLine
 10
14.244781
 20
116.688054
 30
0.0
 11
14.244781
 21
110.143062
 31
0.0
  0
LINE
  5
C4
100
AcDbEntity
  8
LIVELLO_1
 62
     7
100
AcDbLine
 10
-26.851419
 20
113.414697
 30
0.0
 11
-17.518827
 21
113.414697
 31
0.0
  0
LINE
  5
C3
100
AcDbEntity
  8
LIVELLO_1
 62
     7
100
AcDbLine
 10
-26.851419
 20
110.143062
 30
0.0
 11
-26.851419
 21
116.688054
 31
0.0
  0
CIRCLE
  5
C2
100
AcDbEntity
  8
LIVELLO_1
 62
     7
100
AcDbCircle
 10
-20.072074
 20
89.40686
 30
0.0
 40
0.907869
  0
CIRCLE
  5
C1
100
AcDbEntity
  8
LIVELLO_1
 62
     7
100
AcDbCircle
 10
-6.303319
 20
89.40686
 30
0.0
 40
2.46376
  0
CIRCLE
  5
C0
100
AcDbEntity
  8
LIVELLO_1
 62
     7
100
AcDbCircle
 10
-6.303233
 20
89.40686
 30
0.0
 40
3.863416
  0
CIRCLE
  5
BF
100
AcDbEntity
  8
LIVELLO_1
 62
     7
100
AcDbCircle
 10
-6.302716
 20
89.40686
 30
0.0
 40
12.004866
  0
CIRCLE
  5
BE
100
AcDbEntity
  8
LIVELLO_1
 62
     7
100
AcDbCircle
 10
-6.302716
 20
89.40686
 30
0.0
 40
18.48888
  0
CIRCLE
  5
BD
100
AcDbEntity
  8
LIVELLO_1
 62
     7
100
AcDbCircle
 10
7.465608
 20
89.40686
 30
0.0
 40
0.907869
  0
SPLINE
  5
BC
100
AcDbEntity
  8
LIVELLO_1
 62
     7
100
AcDbSpline
210
0.0
220
0.0
230
1.0
 70
     8
 71
     3
 72
    23
 73
    19
 74
     0
 42
0.00000001
 43
0.00000001
 40
0.0
 40
0.0
 40
0.0
 40
0.0
 40
1.0
 40
1.0
 40
1.0
 40
2.0
 40
2.0
 40
2.0
 40
3.0
 40
3.0
 40
3.0
 40
4.0
 40
4.0
 40
4.0
 40
5.0
 40
5.0
 40
5.0
 40
6.0
 40
6.0
 40
6.0
 40
6.0
 10
-21.964378526475691
 20
89.406859673394095
 30
0.0
 10
-21.964378526475691
 20
90.450206841362842
 30
0.0
 10
-21.116540527343748
 20
91.299939643012138
 30
0.0
 10
-20.072159830729166
 20
91.299939643012138
 30
0.0
 10
-20.072159830729166
 20
91.299939643012138
 30
0.0
 10
-18.158581542968747
 20
91.299939643012138
 30
0.0
 10
-18.158581542968747
 20
91.299939643012138
 30
0.0
 10
-18.256422254774304
 20
90.682406277126731
 30
0.0
 10
-18.307581922743054
 20
90.049369981553809
 30
0.0
 10
-18.307581922743054
 20
89.406859673394095
 30
0.0
 10
-18.307581922743054
 20
88.762110053168399
 30
0.0
 10
-18.256422254774304
 20
88.129073757595478
 30
0.0
 10
-18.158581542968747
 20
87.513435194227426
 30
0.0
 10
-18.158581542968747
 20
87.513435194227426
 30
0.0
 10
-20.072159830729166
 20
87.513435194227426
 30
0.0
 10
-20.072159830729166
 20
87.513435194227426
 30
0.0
 10
-21.116540527343748
 20
87.513435194227426
 30
0.0
 10
-21.964378526475691
 20
88.359550645616309
 30
0.0
 10
-21.964378526475691
 20
89.406859673394095
 30
0.0
  0
SPLINE
  5
BB
100
AcDbEntity
  8
LIVELLO_1
 62
     7
100
AcDbSpline
210
0.0
220
0.0
230
1.0
 70
     8
 71
     3
 72
    23
 73
    19
 74
     0
 42
0.00000001
 43
0.00000001
 40
0.0
 40
0.0
 40
0.0
 40
0.0
 40
1.0
 40
1.0
 40
1.0
 40
2.0
 40
2.0
 40
2.0
 40
3.0
 40
3.0
 40
3.0
 40
4.0
 40
4.0
 40
4.0
 40
5.0
 40
5.0
 40
5.0
 40
6.0
 40
6.0
 40
6.0
 40
6.0
 10
9.3589463975694436
 20
89.406859673394095
 30
0.0
 10
9.3589463975694436
 20
88.359550645616309
 30
0.0
 10
8.5109361436631943
 20
87.513435194227426
 30
0.0
 10
7.4655219184027768
 20
87.513435194227426
 30
0.0
 10
7.4655219184027768
 20
87.513435194227426
 30
0.0
 10
5.5550442165798604
 20
87.513435194227426
 30
0.0
 10
5.5550442165798604
 20
87.513435194227426
 30
0.0
 10
5.6516791449652777
 20
88.129073757595478
 30
0.0
 10
5.7021497938368046
 20
88.762110053168399
 30
0.0
 10
5.7021497938368046
 20
89.406859673394095
 30
0.0
 10
5.7021497938368046
 20
90.049369981553809
 30
0.0
 10
5.6516791449652777
 20
90.682406277126731
 30
0.0
 10
5.5550442165798604
 20
91.299939643012138
 30
0.0
 10
5.5550442165798604
 20
91.299939643012138
 30
0.0
 10
7.4655219184027768
 20
91.299939643012138
 30
0.0
 10
7.4655219184027768
 20
91.299939643012138
 30
0.0
 10
8.5109361436631943
 20
91.299939643012138
 30
0.0
 10
9.3589463975694436
 20
90.450206841362842
 30
0.0
 10
9.3589463975694436
 20
89.406859673394095
 30
0.0
  0
LINE
  5
BA
100
AcDbEntity
  8
LIVELLO_1
 62
     7
100
AcDbLine
 10
7.448124
 20
84.604052
 30
0.0
 11
7.448124
 21
56.418692
 31
0.0
  0
LINE
  5
B9
100
AcDbEntity
  8
LIVELLO_1
 62
     7
100
AcDbLine
 10
-20.303498
 20
56.418692
 30
0.0
 11
-20.303498
 21
84.604052
 31
0.0
  0
MTEXT
  5
B8
100
AcDbEntity
  8
LIVELLO_1
 62
     7
100
AcDbMText
 10
-16.176101
 20
65.03551
 30
0.0
 40
9.251749
 41
0.0
 71
     1
 72
     2
  1
\fArial Narrow|b0|i0;\H9.2517;\C7;\U+0038\U+0039\U+002C
  7
STD
210
0.0
220
0.0
230
1.0
 73
     1
 44
1.0
  0
MTEXT
  5
B7
100
AcDbEntity
  8
LIVELLO_1
 62
     7
100
AcDbMText
 10
-2.007974
 20
65.03551
 30
0.0
 40
9.251749
 41
0.0
 71
     1
 72
     2
  1
\fArial Narrow|b0|i0;\H9.2517;\C7;\U+0035
  7
STD
210
0.0
220
0.0
230
1.0
 73
     1
 44
1.0
  0
LINE
  5
B6
100
AcDbEntity
  8
LIVELLO_1
 62
     7
100
AcDbLine
 10
-27.477565
 20
-122.066537
 30
0.0
 11
-27.477565
 21
-113.150286
 31
0.0
  0
LINE
  5
B5
100
AcDbEntity
  8
LIVELLO_1
 62
     7
100
AcDbLine
 10
-27.37025
 20
-117.151419
 30
0.0
 11
-12.374438
 21
-117.205852
 31
0.0
  0
LINE
  5
B4
100
AcDbEntity
  8
LIVELLO_1
 62
     7
100
AcDbLine
 10
-27.292735
 20
-117.151419
 30
0.0
 11
13.067764
 21
-117.205852
 31
0.0
  0
LINE
  5
B3
100
AcDbEntity
  8
LIVELLO_1
 62
     7
100
AcDbLine
 10
8.902988
 20
-122.066537
 30
0.0
 11
8.902988
 21
-113.150286
 31
0.0
  0
LINE
  5
B2
100
AcDbEntity
  8
LIVELLO_1
 62
     7
100
AcDbLine
 10
8.804114
 20
-122.258084
 30
0.0
 11
8.804114
 21
-113.341833
 31
0.0
  0
LINE
  5
B1
100
AcDbEntity
  8
LIVELLO_1
 62
     7
100
AcDbLine
 10
15.68018
 20
-35.731411
 30
0.0
 11
24.596431
 21
-35.731411
 31
0.0
  0
LINE
  5
B0
100
AcDbEntity
  8
LIVELLO_1
 62
     7
100
AcDbLine
 10
25.173485
 20
-26.253609
 30
0.0
 11
25.118191
 21
-52.185876
 31
0.0
  0
LINE
  5
AF
100
AcDbEntity
  8
LIVELLO_1
 62
     7
100
AcDbLine
 10
25.232396
 20
8.734092
 30
0.0
 11
25.177275
 21
-26.164725
 31
0.0
  0
LINE
  5
AE
100
AcDbEntity
  8
LIVELLO_1
 62
     7
100
AcDbLine
 10
16.227089
 20
-35.758627
 30
0.0
 11
25.14334
 21
-35.758627
 31
0.0
  0
LINE
  5
AD
100
AcDbEntity
  8
LIVELLO_1
 62
     7
100
AcDbLine
 10
16.033474
 20
-35.66182
 30
0.0
 11
24.951793
 21
-35.66182
 31
0.0
  0
LINE
  5
AC
100
AcDbEntity
  8
LIVELLO_1
 62
     7
100
AcDbLine
 10
16.092558
 20
-35.772063
 30
0.0
 11
25.008809
 21
-35.772063
 31
0.0
  0
POLYLINE
  5
A7
100
AcDbEntity
  8
LIVELLO_1
 62
     7
100
AcDb2dPolyline
 66
     1
 10
0.0
 20
0.0
 30
0.0
  0
VERTEX
  5
A8
100
AcDbEntity
  8
LIVELLO_1
 62
     7
100
AcDbVertex
100
AcDb2dVertex
 10
-11.480953
 20
-36.275391
 30
0.0
  0
VERTEX
  5
A9
100
AcDbEntity
  8
LIVELLO_1
 62
     7
100
AcDbVertex
100
AcDb2dVertex
 10
-9.56169
 20
-36.275391
 30
0.0
  0
VERTEX
  5
AA
100
AcDbEntity
  8
LIVELLO_1
 62
     7
100
AcDbVertex
100
AcDb2dVertex
 10
-7.645184
 20
-36.275391
 30
0.0
  0
SEQEND
  5
AB
100
AcDbEntity
  8
LIVELLO_1
 62
     7
  0
SPLINE
  5
A6
100
AcDbEntity
  8
LIVELLO_1
 62
     7
100
AcDbSpline
210
0.0
220
0.0
230
1.0
 70
     8
 71
     3
 72
    23
 73
    19
 74
     0
 42
0.00000001
 43
0.00000001
 40
0.0
 40
0.0
 40
0.0
 40
0.0
 40
1.0
 40
1.0
 40
1.0
 40
2.0
 40
2.0
 40
2.0
 40
3.0
 40
3.0
 40
3.0
 40
4.0
 40
4.0
 40
4.0
 40
5.0
 40
5.0
 40
5.0
 40
6.0
 40
6.0
 40
6.0
 40
6.0
 10
0.9477457682291666
 20
40.909044731987841
 30
0.0
 10
0.9477457682291666
 20
40.909044731987841
 30
0.0
 10
0.9477457682291666
 20
38.282159423828119
 30
0.0
 10
0.9477457682291666
 20
38.282159423828119
 30
0.0
 10
0.9477457682291666
 20
36.344293212890619
 30
0.0
 10
-0.6202894422743055
 20
34.776430257161458
 30
0.0
 10
-2.5541937934027774
 20
34.776430257161458
 30
0.0
 10
-2.5541937934027774
 20
34.776430257161458
 30
0.0
 10
-16.567464192708332
 20
34.776430257161458
 30
0.0
 10
-16.567464192708332
 20
34.776430257161458
 30
0.0
 10
-18.502229817708333
 20
34.776430257161458
 30
0.0
 10
-20.072159830729166
 20
36.344293212890619
 30
0.0
 10
-20.072159830729166
 20
38.282159423828119
 30
0.0
 10
-20.072159830729166
 20
38.282159423828119
 30
0.0
 10
-20.072159830729166
 20
40.909044731987841
 30
0.0
 10
-20.072159830729166
 20
40.909044731987841
 30
0.0
 10
-20.072159830729166
 20
40.909044731987841
 30
0.0
 10
0.9477457682291666
 20
40.909044731987841
 30
0.0
 10
0.9477457682291666
 20
40.909044731987841
 30
0.0
  0
SPLINE
  5
A5
100
AcDbEntity
  8
LIVELLO_1
 62
     7
100
AcDbSpline
210
0.0
220
0.0
230
1.0
 70
     8
 71
     3
 72
    14
 73
    10
 74
     0
 42
0.00000001
 43
0.00000001
 40
0.0
 40
0.0
 40
0.0
 40
0.0
 40
1.0
 40
1.0
 40
1.0
 40
2.0
 40
2.0
 40
2.0
 40
3.0
 40
3.0
 40
3.0
 40
3.0
 10
-16.567464192708332
 20
34.776430257161458
 30
0.0
 10
-13.064663357204861
 20
33.026494004991314
 30
0.0
 10
-11.314554850260416
 20
26.016758219401041
 30
0.0
 10
-11.314554850260416
 20
26.016758219401041
 30
0.0
 10
-11.314554850260416
 20
26.016758219401041
 30
0.0
 10
-7.8077921549479159
 20
26.016758219401041
 30
0.0
 10
-7.8077921549479159
 20
26.016758219401041
 30
0.0
 10
-7.8077921549479159
 20
26.016758219401041
 30
0.0
 10
-6.0588894314236104
 20
33.026494004991314
 30
0.0
 10
-2.5541937934027774
 20
34.776430257161458
 30
0.0
  0
POLYLINE
  5
9F
100
AcDbEntity
  8
LIVELLO_1
 62
     7
100
AcDb2dPolyline
 66
     1
 10
0.0
 20
0.0
 30
0.0
 70
     1
  0
VERTEX
  5
A0
100
AcDbEntity
  8
LIVELLO_1
 62
     7
100
AcDbVertex
100
AcDb2dVertex
 10
-10.435711
 20
26.018825
 30
0.0
  0
VERTEX
  5
A1
100
AcDbEntity
  8
LIVELLO_1
 62
     7
100
AcDbVertex
100
AcDb2dVertex
 10
-8.68388
 20
26.018825
 30
0.0
  0
VERTEX
  5
A2
100
AcDbEntity
  8
LIVELLO_1
 62
     7
100
AcDbVertex
100
AcDb2dVertex
 10
-8.68388
 20
10.253724
 30
0.0
  0
VERTEX
  5
A3
100
AcDbEntity
  8
LIVELLO_1
 62
     7
100
AcDbVertex
100
AcDb2dVertex
 10
-10.435711
 20
10.253724
 30
0.0
  0
SEQEND
  5
A4
100
AcDbEntity
  8
LIVELLO_1
 62
     7
  0
ELLIPSE
  5
9E
100
AcDbEntity
  8
LIVELLO_1
 62
     7
100
AcDbEllipse
 10
-9.56169
 20
7.626839
 30
0.0
 11
0.0
 21
2.6268853081597219
 31
0.0
210
0.0
220
0.0
230
1.0
 40
0.667672
 41
0.0
 42
6.2831853071795862
  0
LINE
  5
9D
100
AcDbEntity
  8
LIVELLO_1
 62
     7
100
AcDbLine
 10
-9.56169
 20
-11.402146
 30
0.0
 11
-9.56169
 21
-14.904086
 31
0.0
  0
ELLIPSE
  5
9C
100
AcDbEntity
  8
LIVELLO_1
 62
     7
100
AcDbEllipse
 10
-9.56169
 20
-17.532005
 30
0.0
 11
0.0
 21
2.6279188368055553
 31
0.0
210
0.0
220
0.0
230
1.0
 40
0.66741
 41
0.0
 42
6.2831853071795862
  0
LINE
  5
9B
100
AcDbEntity
  8
LIVELLO_1
 62
     7
100
AcDbLine
 10
-9.56169
 20
-20.159924
 30
0.0
 11
-9.56169
 21
-23.663586
 31
0.0
  0
ELLIPSE
  5
9A
100
AcDbEntity
  8
LIVELLO_1
 62
     7
100
AcDbEllipse
 10
-9.56169
 20
-26.291505
 30
0.0
 11
0.0
 21
2.6279188368055553
 31
0.0
210
0.0
220
0.0
230
1.0
 40
0.66741
 41
0.0
 42
6.2831853071795862
  0
LINE
  5
99
100
AcDbEntity
  8
LIVELLO_1
 62
     7
100
AcDbLine
 10
-9.56169
 20
-28.919423
 30
0.0
 11
-9.56169
 21
-32.421363
 31
0.0
  0
LINE
  5
98
100
AcDbEntity
  8
LIVELLO_1
 62
     7
100
AcDbLine
 10
-9.56169
 20
4.999953
 30
0.0
 11
-9.56169
 21
1.769143
 31
0.0
  0
ELLIPSE
  5
97
100
AcDbEntity
  8
LIVELLO_1
 62
     7
100
AcDbEllipse
 10
-9.56169
 20
-0.653621
 30
0.0
 11
0.0
 21
2.4227634006076388
 31
0.0
210
0.0
220
0.0
230
1.0
 40
0.723925
 41
0.0
 42
6.2831853071795862
  0
LINE
  5
96
100
AcDbEntity
  8
LIVELLO_1
 62
     7
100
AcDbLine
 10
-9.56169
 20
-3.076384
 30
0.0
 11
-9.56169
 21
-6.307195
 31
0.0
  0
ELLIPSE
  5
95
100
AcDbEntity
  8
LIVELLO_1
 62
     7
100
AcDbEllipse
 10
-9.56169
 20
-8.729786
 30
0.0
 11
0.0
 21
2.4225911458333331
 31
0.0
210
0.0
220
0.0
230
1.0
 40
0.723976
 41
0.0
 42
6.2831853071795862
  0
LINE
  5
94
100
AcDbEntity
  8
LIVELLO_1
 62
     7
100
AcDbLine
 10
-9.56169
 20
-11.152377
 30
0.0
 11
-9.56169
 21
-14.381465
 31
0.0
  0
CIRCLE
  5
93
100
AcDbEntity
  8
LIVELLO_1
 62
     7
100
AcDbCircle
 10
-9.56169
 20
-34.174228
 30
0.0
 40
1.752865
  0
LINE
  5
92
100
AcDbEntity
  8
LIVELLO_1
 62
     7
100
AcDbLine
 10
-20.07216
 20
38.282159
 30
0.0
 11
0.947746
 21
38.282159
 31
0.0
  0
LINE
  5
91
100
AcDbEntity
  8
LIVELLO_1
 62
     7
100
AcDbLine
 10
-25.807899
 20
-55.817351
 30
0.0
 11
-25.780855
 21
-55.500058
 31
0.0
  0
LINE
  5
90
100
AcDbEntity
  8
LIVELLO_1
 62
     7
100
AcDbLine
 10
-25.780855
 20
-55.500058
 30
0.0
 11
-24.969708
 21
-55.500058
 31
0.0
  0
LINE
  5
8F
100
AcDbEntity
  8
LIVELLO_1
 62
     7
100
AcDbLine
 10
-18.868099
 20
-47.485732
 30
0.0
 11
-18.309649
 21
-44.306942
 31
0.0
  0
LINE
  5
8E
100
AcDbEntity
  8
LIVELLO_1
 62
     7
100
AcDbLine
 10
-13.119785
 20
-38.68937
 30
0.0
 11
-12.992833
 21
-37.969
 31
0.0
  0
LINE
  5
8D
100
AcDbEntity
  8
LIVELLO_1
 62
     7
100
AcDbLine
 10
-15.591813
 20
-42.01871
 30
0.0
 11
-15.508442
 21
-41.550522
 31
0.0
  0
LINE
  5
8C
100
AcDbEntity
  8
LIVELLO_1
 62
     7
100
AcDbLine
 10
-25.568982
 20
-55.7264
 30
0.0
 11
6.436644
 21
-55.7264
 31
0.0
  0
LINE
  5
8B
100
AcDbEntity
  8
LIVELLO_1
 62
     7
100
AcDbLine
 10
6.676767
 20
-55.817351
 30
0.0
 11
6.64869
 21
-55.500058
 31
0.0
  0
LINE
  5
8A
100
AcDbEntity
  8
LIVELLO_1
 62
     7
100
AcDbLine
 10
6.64869
 20
-55.500058
 30
0.0
 11
5.838576
 21
-55.500058
 31
0.0
  0
LINE
  5
89
100
AcDbEntity
  8
LIVELLO_1
 62
     7
100
AcDbLine
 10
5.530756
 20
-59.584563
 30
0.0
 11
6.442501
 21
-59.584563
 31
0.0
  0
LINE
  5
88
100
AcDbEntity
  8
LIVELLO_1
 62
     7
100
AcDbLine
 10
5.679929
 20
-59.125676
 30
0.0
 11
6.480225
 21
-59.125676
 31
0.0
  0
LINE
  5
87
100
AcDbEntity
  8
LIVELLO_1
 62
     7
100
AcDbLine
 10
6.506407
 20
-59.524618
 30
0.0
 11
6.583922
 21
-58.664722
 31
0.0
  0
LINE
  5
86
100
AcDbEntity
  8
LIVELLO_1
 62
     7
100
AcDbLine
 10
6.583922
 20
-58.664722
 30
0.0
 11
-25.715054
 21
-58.664722
 31
0.0
  0
LINE
  5
85
100
AcDbEntity
  8
LIVELLO_1
 62
     7
100
AcDbLine
 10
-2.79225
 20
-90.301723
 30
0.0
 11
3.39652
 21
-60.550568
 31
0.0
  0
LINE
  5
84
100
AcDbEntity
  8
LIVELLO_1
 62
     7
100
AcDbLine
 10
-3.00619
 20
-90.301723
 30
0.0
 11
3.13607
 21
-60.773121
 31
0.0
  0
LINE
  5
83
100
AcDbEntity
  8
LIVELLO_1
 62
     7
100
AcDbLine
 10
-0.988053
 20
-90.301723
 30
0.0
 11
5.203644
 21
-60.550568
 31
0.0
  0
LINE
  5
82
100
AcDbEntity
  8
LIVELLO_1
 62
     7
100
AcDbLine
 10
5.203644
 20
-60.550568
 30
0.0
 11
5.279092
 21
-60.507848
 31
0.0
  0
LINE
  5
81
100
AcDbEntity
  8
LIVELLO_1
 62
     7
100
AcDbLine
 10
5.279092
 20
-60.507848
 30
0.0
 11
5.551082
 21
-59.22834
 31
0.0
  0
LINE
  5
80
100
AcDbEntity
  8
LIVELLO_1
 62
     7
100
AcDbLine
 10
3.39652
 20
-60.550568
 30
0.0
 11
5.203644
 21
-60.550568
 31
0.0
  0
LINE
  5
7F
100
AcDbEntity
  8
LIVELLO_1
 62
     7
100
AcDbLine
 10
3.39652
 20
-60.550568
 30
0.0
 11
3.13607
 21
-60.773121
 31
0.0
  0
LINE
  5
7E
100
AcDbEntity
  8
LIVELLO_1
 62
     7
100
AcDbLine
 10
-2.593812
 20
-88.325272
 30
0.0
 11
-16.535597
 21
-88.325272
 31
0.0
  0
LINE
  5
7D
100
AcDbEntity
  8
LIVELLO_1
 62
     7
100
AcDbLine
 10
-16.340949
 20
-90.301723
 30
0.0
 11
-22.529719
 21
-60.550568
 31
0.0
  0
LINE
  5
7C
100
AcDbEntity
  8
LIVELLO_1
 62
     7
100
AcDbLine
 10
-16.125114
 20
-90.301723
 30
0.0
 11
-22.268408
 21
-60.773121
 31
0.0
  0
LINE
  5
7B
100
AcDbEntity
  8
LIVELLO_1
 62
     7
100
AcDbLine
 10
-24.33581
 20
-60.550568
 30
0.0
 11
-24.411258
 21
-60.507848
 31
0.0
  0
LINE
  5
7A
100
AcDbEntity
  8
LIVELLO_1
 62
     7
100
AcDbLine
 10
5.279092
 20
-60.507848
 30
0.0
 11
-24.411258
 21
-60.507848
 31
0.0
  0
LINE
  5
79
100
AcDbEntity
  8
LIVELLO_1
 62
     7
100
AcDbLine
 10
-18.143079
 20
-90.301723
 30
0.0
 11
-24.33581
 21
-60.550568
 31
0.0
  0
LINE
  5
78
100
AcDbEntity
  8
LIVELLO_1
 62
     7
100
AcDbLine
 10
-2.841515
 20
-90.698598
 30
0.0
 11
-2.808614
 21
-90.301723
 31
0.0
  0
LINE
  5
77
100
AcDbEntity
  8
LIVELLO_1
 62
     7
100
AcDbLine
 10
-16.289617
 20
-90.698598
 30
0.0
 11
-16.325446
 21
-90.301723
 31
0.0
  0
LINE
  5
76
100
AcDbEntity
  8
LIVELLO_1
 62
     7
100
AcDbLine
 10
-5.585533
 20
-93.598335
 30
0.0
 11
-13.548527
 21
-93.598335
 31
0.0
  0
LINE
  5
75
100
AcDbEntity
  8
LIVELLO_1
 62
     7
100
AcDbLine
 10
-2.841515
 20
-90.698598
 30
0.0
 11
-16.289617
 21
-90.698598
 31
0.0
  0
LINE
  5
74
100
AcDbEntity
  8
LIVELLO_1
 62
     7
100
AcDbLine
 10
-24.411258
 20
-60.507848
 30
0.0
 11
-24.682387
 21
-59.22834
 31
0.0
  0
LINE
  5
73
100
AcDbEntity
  8
LIVELLO_1
 62
     7
100
AcDbLine
 10
-24.662922
 20
-59.584563
 30
0.0
 11
-25.574666
 21
-59.584563
 31
0.0
  0
LINE
  5
72
100
AcDbEntity
  8
LIVELLO_1
 62
     7
100
AcDbLine
 10
-24.812956
 20
-59.125676
 30
0.0
 11
-25.614457
 21
-59.125676
 31
0.0
  0
LINE
  5
71
100
AcDbEntity
  8
LIVELLO_1
 62
     7
100
AcDbLine
 10
-0.988053
 20
-90.301723
 30
0.0
 11
-9.565652
 21
-90.301723
 31
0.0
  0
LINE
  5
70
100
AcDbEntity
  8
LIVELLO_1
 62
     7
100
AcDbLine
 10
-22.529719
 20
-60.550568
 30
0.0
 11
-24.33581
 21
-60.550568
 31
0.0
  0
LINE
  5
6F
100
AcDbEntity
  8
LIVELLO_1
 62
     7
100
AcDbLine
 10
-22.529719
 20
-60.550568
 30
0.0
 11
-22.268408
 21
-60.773121
 31
0.0
  0
LINE
  5
6E
100
AcDbEntity
  8
LIVELLO_1
 62
     7
100
AcDbLine
 10
3.13607
 20
-60.773121
 30
0.0
 11
-22.268408
 21
-60.773121
 31
0.0
  0
LINE
  5
6D
100
AcDbEntity
  8
LIVELLO_1
 62
     7
100
AcDbLine
 10
-18.143079
 20
-90.301723
 30
0.0
 11
-9.565652
 21
-90.301723
 31
0.0
  0
LINE
  5
6C
100
AcDbEntity
  8
LIVELLO_1
 62
     7
100
AcDbLine
 10
-25.639434
 20
-59.524618
 30
0.0
 11
-25.715054
 21
-58.664722
 31
0.0
  0
SPLINE
  5
6B
100
AcDbEntity
  8
LIVELLO_1
 62
     7
100
AcDbSpline
210
0.0
220
0.0
230
1.0
 70
     8
 71
     3
 72
     8
 73
     4
 74
     0
 42
0.00000001
 43
0.00000001
 40
0.0
 40
0.0
 40
0.0
 40
0.0
 40
1.0
 40
1.0
 40
1.0
 40
1.0
 10
-25.568981933593747
 20
-55.726400417751734
 30
0.0
 10
-22.813250054253469
 20
-54.781755235460068
 30
0.0
 10
-20.613212076822915
 20
-52.667844645182285
 30
0.0
 10
-19.560218641493055
 20
-49.950008816189232
 30
0.0
  0
SPLINE
  5
6A
100
AcDbEntity
  8
LIVELLO_1
 62
     7
100
AcDbSpline
210
0.0
220
0.0
230
1.0
 70
     8
 71
     3
 72
     8
 73
     4
 74
     0
 42
0.00000001
 43
0.00000001
 40
0.0
 40
0.0
 40
0.0
 40
0.0
 40
1.0
 40
1.0
 40
1.0
 40
1.0
 10
-19.560218641493055
 20
-49.950008816189232
 30
0.0
 10
-19.249471028645832
 20
-49.152469211154511
 30
0.0
 10
-19.019166395399303
 20
-48.327713351779508
 30
0.0
 10
-18.868098958333331
 20
-47.485732014973955
 30
0.0
  0
SPLINE
  5
69
100
AcDbEntity
  8
LIVELLO_1
 62
     7
100
AcDbSpline
210
0.0
220
0.0
230
1.0
 70
     8
 71
     3
 72
     8
 73
     4
 74
     0
 42
0.00000001
 43
0.00000001
 40
0.0
 40
0.0
 40
0.0
 40
0.0
 40
1.0
 40
1.0
 40
1.0
 40
1.0
 10
-25.568981933593747
 20
-55.726400417751734
 30
0.0
 10
-26.910502115885414
 20
-56.185287136501728
 30
0.0
 10
-27.933523220486109
 20
-57.290473768446176
 30
0.0
 10
-28.285784233940969
 20
-58.664722357855901
 30
0.0
  0
SPLINE
  5
68
100
AcDbEntity
  8
LIVELLO_1
 62
     7
100
AcDbSpline
210
0.0
220
0.0
230
1.0
 70
     8
 71
     3
 72
     8
 73
     4
 74
     0
 42
0.00000001
 43
0.00000001
 40
0.0
 40
0.0
 40
0.0
 40
0.0
 40
1.0
 40
1.0
 40
1.0
 40
1.0
 10
-15.584061686197915
 20
-42.018709988064231
 30
0.0
 10
-16.925581868489584
 20
-42.018709988064231
 30
0.0
 10
-18.075382486979166
 20
-42.984714762369791
 30
0.0
 10
-18.309648980034719
 20
-44.306942409939232
 30
0.0
  0
SPLINE
  5
67
100
AcDbEntity
  8
LIVELLO_1
 62
     7
100
AcDbSpline
210
0.0
220
0.0
230
1.0
 70
     8
 71
     3
 72
     8
 73
     4
 74
     0
 42
0.00000001
 43
0.00000001
 40
0.0
 40
0.0
 40
0.0
 40
0.0
 40
1.0
 40
1.0
 40
1.0
 40
1.0
 10
-15.508441840277776
 20
-41.550521511501735
 30
0.0
 10
-14.25993923611111
 20
-41.087845187717008
 30
0.0
 10
-13.350089518229165
 20
-39.999884033203124
 30
0.0
 10
-13.119784884982638
 20
-38.689369710286456
 30
0.0
  0
SPLINE
  5
66
100
AcDbEntity
  8
LIVELLO_1
 62
     7
100
AcDbSpline
210
0.0
220
0.0
230
1.0
 70
     8
 71
     3
 72
     8
 73
     4
 74
     0
 42
0.00000001
 43
0.00000001
 40
0.0
 40
0.0
 40
0.0
 40
0.0
 40
1.0
 40
1.0
 40
1.0
 40
1.0
 10
-11.888680013020831
 20
-37.039857991536458
 30
0.0
 10
-12.432488335503471
 20
-37.039857991536458
 30
0.0
 10
-12.898092990451389
 20
-37.431220838758676
 30
0.0
 10
-12.992833116319444
 20
-37.969000244140624
 30
0.0
  0
SPLINE
  5
65
100
AcDbEntity
  8
LIVELLO_1
 62
     7
100
AcDbSpline
210
0.0
220
0.0
230
1.0
 70
     8
 71
     3
 72
    11
 73
     7
 74
     0
 42
0.00000001
 43
0.00000001
 40
0.0
 40
0.0
 40
0.0
 40
0.0
 40
1.0
 40
1.0
 40
1.0
 40
2.0
 40
2.0
 40
2.0
 40
2.0
 10
-0.2630330403645833
 20
-47.485732014973955
 30
0.0
 10
-0.1140326605902778
 20
-48.327713351779508
 30
0.0
 10
0.1173055013020833
 20
-49.152469211154511
 30
0.0
 10
0.4251247829861111
 20
-49.950008816189232
 30
0.0
 10
1.4810465494791665
 20
-52.667844645182285
 30
0.0
 10
3.6821180555555553
 20
-54.781755235460068
 30
0.0
 10
6.4366441514756936
 20
-55.726400417751734
 30
0.0
  0
SPLINE
  5
64
100
AcDbEntity
  8
LIVELLO_1
 62
     7
100
AcDbSpline
210
0.0
220
0.0
230
1.0
 70
     8
 71
     3
 72
     8
 73
     4
 74
     0
 42
0.00000001
 43
0.00000001
 40
0.0
 40
0.0
 40
0.0
 40
0.0
 40
1.0
 40
1.0
 40
1.0
 40
1.0
 10
6.4425008138020825
 20
-59.584562852647565
 30
0.0
 10
6.4743679470486102
 20
-59.584562852647565
 30
0.0
 10
6.5045125325520825
 20
-59.559413655598952
 30
0.0
 10
6.5064073350694436
 20
-59.524618191189234
 30
0.0
  0
SPLINE
  5
63
100
AcDbEntity
  8
LIVELLO_1
 62
     7
100
AcDbSpline
210
0.0
220
0.0
230
1.0
 70
     8
 71
     3
 72
     8
 73
     4
 74
     0
 42
0.00000001
 43
0.00000001
 40
0.0
 40
0.0
 40
0.0
 40
0.0
 40
1.0
 40
1.0
 40
1.0
 40
1.0
 10
6.4802246093749991
 20
-59.125676133897564
 30
0.0
 10
6.5162258572048604
 20
-59.125676133897564
 30
0.0
 10
6.546198187934027
 20
-59.096737331814232
 30
0.0
 10
6.548092990451388
 20
-59.065731472439232
 30
0.0
  0
SPLINE
  5
62
100
AcDbEntity
  8
LIVELLO_1
 62
     7
100
AcDbSpline
210
0.0
220
0.0
230
1.0
 70
     8
 71
     3
 72
    11
 73
     7
 74
     0
 42
0.00000001
 43
0.00000001
 40
0.0
 40
0.0
 40
0.0
 40
0.0
 40
1.0
 40
1.0
 40
1.0
 40
2.0
 40
2.0
 40
2.0
 40
2.0
 10
-5.5855333116319441
 20
-93.598335096571176
 30
0.0
 10
-5.4268866644965277
 20
-93.598335096571176
 30
0.0
 10
-5.2739244249131936
 20
-93.538390435112845
 30
0.0
 10
-5.1548963758680548
 20
-93.437793646918394
 30
0.0
 10
-4.3049913194444445
 20
-92.703988308376722
 30
0.0
 10
-3.6662706163194443
 20
-91.759343126085056
 30
0.0
 10
-3.3041910807291663
 20
-90.698598225911454
 30
0.0
  0
SPLINE
  5
61
100
AcDbEntity
  8
LIVELLO_1
 62
     7
100
AcDbSpline
210
0.0
220
0.0
230
1.0
 70
     8
 71
     3
 72
    11
 73
     7
 74
     0
 42
0.00000001
 43
0.00000001
 40
0.0
 40
0.0
 40
0.0
 40
0.0
 40
1.0
 40
1.0
 40
1.0
 40
2.0
 40
2.0
 40
2.0
 40
2.0
 10
-15.827802191840277
 20
-90.698598225911454
 30
0.0
 10
-15.466928439670138
 20
-91.759343126085056
 30
0.0
 10
-14.827001953124999
 20
-92.703988308376722
 30
0.0
 10
-13.97623562282986
 20
-93.437793646918394
 30
0.0
 10
-13.857379828559026
 20
-93.538390435112845
 30
0.0
 10
-13.704417588975693
 20
-93.598335096571176
 30
0.0
 10
-13.548527018229166
 20
-93.598335096571176
 30
0.0
  0
SPLINE
  5
60
100
AcDbEntity
  8
LIVELLO_1
 62
     7
100
AcDbSpline
210
0.0
220
0.0
230
1.0
 70
     8
 71
     3
 72
     8
 73
     4
 74
     0
 42
0.00000001
 43
0.00000001
 40
0.0
 40
0.0
 40
0.0
 40
0.0
 40
1.0
 40
1.0
 40
1.0
 40
1.0
 10
5.679928927951388
 20
-59.125676133897564
 30
0.0
 10
5.617917209201388
 20
-59.125676133897564
 30
0.0
 10
5.5627956814236104
 20
-59.166328260633676
 30
0.0
 10
5.5510823567708325
 20
-59.228339979383676
 30
0.0
  0
SPLINE
  5
5F
100
AcDbEntity
  8
LIVELLO_1
 62
     7
100
AcDbSpline
210
0.0
220
0.0
230
1.0
 70
     8
 71
     3
 72
     8
 73
     4
 74
     0
 42
0.00000001
 43
0.00000001
 40
0.0
 40
0.0
 40
0.0
 40
0.0
 40
1.0
 40
1.0
 40
1.0
 40
1.0
 10
5.530756293402777
 20
-59.584562852647565
 30
0.0
 10
5.4978556315104159
 20
-59.584562852647565
 30
0.0
 10
5.4697781032986104
 20
-59.605577935112841
 30
0.0
 10
5.4639214409722214
 20
-59.638650851779509
 30
0.0
  0
SPLINE
  5
5E
100
AcDbEntity
  8
LIVELLO_1
 62
     7
100
AcDbSpline
210
0.0
220
0.0
230
1.0
 70
     8
 71
     3
 72
     8
 73
     4
 74
     0
 42
0.00000001
 43
0.00000001
 40
0.0
 40
0.0
 40
0.0
 40
0.0
 40
1.0
 40
1.0
 40
1.0
 40
1.0
 10
-24.595225694444441
 20
-59.638650851779509
 30
0.0
 10
-24.601082356770831
 20
-59.605577935112841
 30
0.0
 10
-24.631054687499997
 20
-59.584562852647565
 30
0.0
 10
-24.662921820746526
 20
-59.584562852647565
 30
0.0
  0
SPLINE
  5
5D
100
AcDbEntity
  8
LIVELLO_1
 62
     7
100
AcDbSpline
210
0.0
220
0.0
230
1.0
 70
     8
 71
     3
 72
     8
 73
     4
 74
     0
 42
0.00000001
 43
0.00000001
 40
0.0
 40
0.0
 40
0.0
 40
0.0
 40
1.0
 40
1.0
 40
1.0
 40
1.0
 10
-24.682386610243054
 20
-59.228339979383676
 30
0.0
 10
-24.69496120876736
 20
-59.166328260633676
 30
0.0
 10
-24.750082736545135
 20
-59.125676133897564
 30
0.0
 10
-24.812955729166664
 20
-59.125676133897564
 30
0.0
  0
SPLINE
  5
5C
100
AcDbEntity
  8
LIVELLO_1
 62
     7
100
AcDbSpline
210
0.0
220
0.0
230
1.0
 70
     8
 71
     3
 72
     8
 73
     4
 74
     0
 42
0.00000001
 43
0.00000001
 40
0.0
 40
0.0
 40
0.0
 40
0.0
 40
1.0
 40
1.0
 40
1.0
 40
1.0
 10
-25.681119791666664
 20
-59.065731472439232
 30
0.0
 10
-25.677330186631941
 20
-59.096737331814232
 30
0.0
 10
-25.648219129774304
 20
-59.125676133897564
 30
0.0
 10
-25.614457194010413
 20
-59.125676133897564
 30
0.0
  0
SPLINE
  5
5B
100
AcDbEntity
  8
LIVELLO_1
 62
     7
100
AcDbSpline
210
0.0
220
0.0
230
1.0
 70
     8
 71
     3
 72
     8
 73
     4
 74
     0
 42
0.00000001
 43
0.00000001
 40
0.0
 40
0.0
 40
0.0
 40
0.0
 40
1.0
 40
1.0
 40
1.0
 40
1.0
 10
-25.63943413628472
 20
-59.524618191189234
 30
0.0
 10
-25.635644531249998
 20
-59.559413655598952
 30
0.0
 10
-25.606705729166663
 20
-59.584562852647565
 30
0.0
 10
-25.574666341145832
 20
-59.584562852647565
 30
0.0
  0
SPLINE
  5
5A
100
AcDbEntity
  8
LIVELLO_1
 62
     7
100
AcDbSpline
210
0.0
220
0.0
230
1.0
 70
     8
 71
     3
 72
     8
 73
     4
 74
     0
 42
0.00000001
 43
0.00000001
 40
0.0
 40
0.0
 40
0.0
 40
0.0
 40
1.0
 40
1.0
 40
1.0
 40
1.0
 10
9.1546522352430539
 20
-58.664722357855901
 30
0.0
 10
8.8003241644965264
 20
-57.290473768446176
 30
0.0
 10
7.7791978624131941
 20
-56.185287136501728
 30
0.0
 10
6.4366441514756936
 20
-55.726400417751734
 30
0.0
  0
LINE
  5
59
100
AcDbEntity
  8
LIVELLO_1
 62
     7
100
AcDbLine
 10
-3.547243
 20
-42.01871
 30
0.0
 11
-15.584062
 21
-42.01871
 31
0.0
  0
LINE
  5
58
100
AcDbEntity
  8
LIVELLO_1
 62
     7
100
AcDbLine
 10
-3.624585
 20
-41.550522
 30
0.0
 11
-15.508442
 21
-41.550522
 31
0.0
  0
LINE
  5
57
100
AcDbEntity
  8
LIVELLO_1
 62
     7
100
AcDbLine
 10
-7.244519
 20
-37.039858
 30
0.0
 11
-9.565652
 21
-37.039858
 31
0.0
  0
LINE
  5
56
100
AcDbEntity
  8
LIVELLO_1
 62
     7
100
AcDbLine
 10
-0.263033
 20
-47.485732
 30
0.0
 11
-0.821483
 21
-44.306942
 31
0.0
  0
LINE
  5
55
100
AcDbEntity
  8
LIVELLO_1
 62
     7
100
AcDbLine
 10
-6.011519
 20
-38.68937
 30
0.0
 11
-6.138127
 21
-37.969
 31
0.0
  0
LINE
  5
54
100
AcDbEntity
  8
LIVELLO_1
 62
     7
100
AcDbLine
 10
-3.541386
 20
-42.01871
 30
0.0
 11
-3.624585
 21
-41.550522
 31
0.0
  0
LINE
  5
53
100
AcDbEntity
  8
LIVELLO_1
 62
     7
100
AcDbLine
 10
-11.88868
 20
-37.039858
 30
0.0
 11
-9.565652
 21
-37.039858
 31
0.0
  0
LINE
  5
52
100
AcDbEntity
  8
LIVELLO_1
 62
     7
100
AcDbLine
 10
-28.285784
 20
-58.664722
 30
0.0
 11
9.154652
 21
-58.664722
 31
0.0
  0
SPLINE
  5
51
100
AcDbEntity
  8
LIVELLO_1
 62
     7
100
AcDbSpline
210
0.0
220
0.0
230
1.0
 70
     8
 71
     3
 72
     8
 73
     4
 74
     0
 42
0.00000001
 43
0.00000001
 40
0.0
 40
0.0
 40
0.0
 40
0.0
 40
1.0
 40
1.0
 40
1.0
 40
1.0
 10
-0.8214830186631944
 20
-44.306942409939232
 30
0.0
 10
-1.0559217664930554
 20
-42.984714762369791
 30
0.0
 10
-2.2057223849826388
 20
-42.018709988064231
 30
0.0
 10
-3.5472425672743051
 20
-42.018709988064231
 30
0.0
  0
SPLINE
  5
50
100
AcDbEntity
  8
LIVELLO_1
 62
     7
100
AcDbSpline
210
0.0
220
0.0
230
1.0
 70
     8
 71
     3
 72
     8
 73
     4
 74
     0
 42
0.00000001
 43
0.00000001
 40
0.0
 40
0.0
 40
0.0
 40
0.0
 40
1.0
 40
1.0
 40
1.0
 40
1.0
 10
-6.0115193684895827
 20
-38.689369710286456
 30
0.0
 10
-5.7820760091145829
 20
-39.999884033203124
 30
0.0
 10
-4.8722262912326384
 20
-41.087845187717008
 30
0.0
 10
-3.6245849609374998
 20
-41.550521511501735
 30
0.0
  0
SPLINE
  5
4F
100
AcDbEntity
  8
LIVELLO_1
 62
     7
100
AcDbSpline
210
0.0
220
0.0
230
1.0
 70
     8
 71
     3
 72
     8
 73
     4
 74
     0
 42
0.00000001
 43
0.00000001
 40
0.0
 40
0.0
 40
0.0
 40
0.0
 40
1.0
 40
1.0
 40
1.0
 40
1.0
 10
-6.1381266276041657
 20
-37.969000244140624
 30
0.0
 10
-6.2359673394097213
 20
-37.431220838758676
 30
0.0
 10
-6.6996771918402773
 20
-37.039857991536458
 30
0.0
 10
-7.2445190429687489
 20
-37.039857991536458
 30
0.0
  0
LINE
  5
4E
100
AcDbEntity
  8
LIVELLO_1
 62
     7
100
AcDbLine
 10
-6.794417
 20
-37.039858
 30
0.0
 11
-9.565652
 21
-37.039858
 31
0.0
  0
POLYLINE
  5
49
100
AcDbEntity
  8
LIVELLO_1
 62
     7
100
AcDb2dPolyline
 66
     1
 10
0.0
 20
0.0
 30
0.0
  0
VERTEX
  5
4A
100
AcDbEntity
  8
LIVELLO_1
 62
     7
100
AcDbVertex
100
AcDb2dVertex
 10
-12.447991
 20
-37.102214
 30
0.0
  0
VERTEX
  5
4B
100
AcDbEntity
  8
LIVELLO_1
 62
     7
100
AcDbVertex
100
AcDb2dVertex
 10
-9.565652
 20
-37.102214
 30
0.0
  0
VERTEX
  5
4C
100
AcDbEntity
  8
LIVELLO_1
 62
     7
100
AcDbVertex
100
AcDb2dVertex
 10
-6.683141
 20
-37.102214
 30
0.0
  0
SEQEND
  5
4D
100
AcDbEntity
  8
LIVELLO_1
 62
     7
  0
POLYLINE
  5
44
100
AcDbEntity
  8
LIVELLO_1
 62
     7
100
AcDb2dPolyline
 66
     1
 10
0.0
 20
0.0
 30
0.0
  0
VERTEX
  5
45
100
AcDbEntity
  8
LIVELLO_1
 62
     7
100
AcDbVertex
100
AcDb2dVertex
 10
-11.78016
 20
-37.039858
 30
0.0
  0
VERTEX
  5
46
100
AcDbEntity
  8
LIVELLO_1
 62
     7
100
AcDbVertex
100
AcDb2dVertex
 10
-9.565652
 20
-37.039858
 30
0.0
  0
VERTEX
  5
47
100
AcDbEntity
  8
LIVELLO_1
 62
     7
100
AcDbVertex
100
AcDb2dVertex
 10
-12.336715
 20
-37.039858
 30
0.0
  0
SEQEND
  5
48
100
AcDbEntity
  8
LIVELLO_1
 62
     7
  0
LINE
  5
43
100
AcDbEntity
  8
LIVELLO_1
 62
     7
100
AcDbLine
 10
-9.565652
 20
-37.039858
 30
0.0
 11
-7.355968
 21
-37.039858
 31
0.0
  0
SPLINE
  5
42
100
AcDbEntity
  8
LIVELLO_1
 62
     7
100
AcDbSpline
210
0.0
220
0.0
230
1.0
 70
     8
 71
     3
 72
     8
 73
     4
 74
     0
 42
0.00000001
 43
0.00000001
 40
0.0
 40
0.0
 40
0.0
 40
0.0
 40
1.0
 40
1.0
 40
1.0
 40
1.0
 10
-6.6831407335069439
 20
-37.102214219835069
 30
0.0
 10
-6.7093234592013884
 20
-37.063284640842014
 30
0.0
 10
-6.7510091145833329
 20
-37.039857991536458
 30
0.0
 10
-6.7944173177083327
 20
-37.039857991536458
 30
0.0
  0
SPLINE
  5
41
100
AcDbEntity
  8
LIVELLO_1
 62
     7
100
AcDbSpline
210
0.0
220
0.0
230
1.0
 70
     8
 71
     3
 72
     8
 73
     4
 74
     0
 42
0.00000001
 43
0.00000001
 40
0.0
 40
0.0
 40
0.0
 40
0.0
 40
1.0
 40
1.0
 40
1.0
 40
1.0
 10
-12.336714680989582
 20
-37.039857991536458
 30
0.0
 10
-12.380295138888888
 20
-37.039857991536458
 30
0.0
 10
-12.421808539496526
 20
-37.063284640842014
 30
0.0
 10
-12.447991265190971
 20
-37.102214219835069
 30
0.0
  0
LINE
  5
40
100
AcDbEntity
  8
LIVELLO_1
 62
     7
100
AcDbLine
 10
-11.30577
 20
-37.039858
 30
0.0
 11
-7.827257
 21
-37.039858
 31
0.0
  0
SPLINE
  5
3F
100
AcDbEntity
  8
LIVELLO_1
 62
     7
100
AcDbSpline
210
0.0
220
0.0
230
1.0
 70
     8
 71
     3
 72
    11
 73
     7
 74
     0
 42
0.00000001
 43
0.00000001
 40
0.0
 40
0.0
 40
0.0
 40
0.0
 40
1.0
 40
1.0
 40
1.0
 40
2.0
 40
2.0
 40
2.0
 40
2.0
 10
-7.8272569444444438
 20
-37.039857991536458
 30
0.0
 10
-7.6114217122395829
 20
-36.956831190321175
 30
0.0
 10
-7.5020399305555552
 20
-36.716708034939231
 30
0.0
 10
-7.5852389865451384
 20
-36.502078586154511
 30
0.0
 10
-7.6470784505208327
 20
-36.344982231987842
 30
0.0
 10
-7.7952175564236104
 20
-36.240595838758679
 30
0.0
 10
-7.9636827256944436
 20
-36.234739176432285
 30
0.0
  0
SPLINE
  5
3E
100
AcDbEntity
  8
LIVELLO_1
 62
     7
100
AcDbSpline
210
0.0
220
0.0
230
1.0
 70
     8
 71
     3
 72
    11
 73
     7
 74
     0
 42
0.00000001
 43
0.00000001
 40
0.0
 40
0.0
 40
0.0
 40
0.0
 40
1.0
 40
1.0
 40
1.0
 40
2.0
 40
2.0
 40
2.0
 40
2.0
 10
-11.167449273003472
 20
-36.234739176432285
 30
0.0
 10
-11.39499782986111
 20
-36.240595838758679
 30
0.0
 10
-11.57793240017361
 20
-36.428353542751729
 30
0.0
 10
-11.573970540364583
 20
-36.660552978515625
 30
0.0
 10
-11.572075737847221
 20
-36.829018147786456
 30
0.0
 10
-11.464588758680554
 20
-36.978190782335069
 30
0.0
 10
-11.305769856770832
 20
-37.039857991536458
 30
0.0
  0
LINE
  5
3D
100
AcDbEntity
  8
LIVELLO_1
 62
     7
100
AcDbLine
 10
-5.331974
 20
-93.770934
 30
0.0
 11
-13.431394
 21
-93.770934
 31
0.0
  0
SPLINE
  5
3C
100
AcDbEntity
  8
LIVELLO_1
 62
     7
100
AcDbSpline
210
0.0
220
0.0
230
1.0
 70
     8
 71
     3
 72
     8
 73
     4
 74
     0
 42
0.00000001
 43
0.00000001
 40
0.0
 40
0.0
 40
0.0
 40
0.0
 40
1.0
 40
1.0
 40
1.0
 40
1.0
 10
-13.870815700954861
 20
-93.606258816189225
 30
0.0
 10
-13.747998046874999
 20
-93.714434814453114
 30
0.0
 10
-13.595897081163193
 20
-93.770934380425345
 30
0.0
 10
-13.431393771701387
 20
-93.770934380425345
 30
0.0
  0
SPLINE
  5
3B
100
AcDbEntity
  8
LIVELLO_1
 62
     7
100
AcDbSpline
210
0.0
220
0.0
230
1.0
 70
     8
 71
     3
 72
     8
 73
     4
 74
     0
 42
0.00000001
 43
0.00000001
 40
0.0
 40
0.0
 40
0.0
 40
0.0
 40
1.0
 40
1.0
 40
1.0
 40
1.0
 10
-5.3319742838541666
 20
-93.770934380425345
 30
0.0
 10
-5.1712605794270825
 20
-93.770934380425345
 30
0.0
 10
-5.0145087348090271
 20
-93.714434814453114
 30
0.0
 10
-4.8916910807291663
 20
-93.606258816189225
 30
0.0
  0
LINE
  5
3A
100
AcDbEntity
  8
LIVELLO_1
 62
     7
100
AcDbLine
 10
-11.778265
 20
-93.817443
 30
0.0
 11
-9.563757
 21
-93.817443
 31
0.0
  0
LINE
  5
39
100
AcDbEntity
  8
LIVELLO_1
 62
     7
100
AcDbLine
 10
-9.563757
 20
-93.817443
 30
0.0
 11
-7.353901
 21
-93.817443
 31
0.0
  0
LINE
  5
38
100
AcDbEntity
  8
LIVELLO_1
 62
     7
100
AcDbLine
 10
-11.303875
 20
-93.817443
 30
0.0
 11
-7.82519
 21
-93.817443
 31
0.0
  0
LINE
  5
37
100
AcDbEntity
  8
LIVELLO_1
 62
     7
100
AcDbLine
 10
-10.849984
 20
-95.667804
 30
0.0
 11
-8.356768
 21
-95.667804
 31
0.0
  0
ELLIPSE
  5
36
100
AcDbEntity
  8
LIVELLO_1
 62
     7
100
AcDbEllipse
 10
-9.603807
 20
-100.708668
 30
0.0
 11
-1.1319722493489581
 21
0.0
 31
0.0
210
0.0
220
0.0
230
1.0
 40
0.796774
 41
0.0
 42
6.2831853071795862
  0
SPLINE
  5
35
100
AcDbEntity
  8
LIVELLO_1
 62
     7
100
AcDbSpline
210
0.0
220
0.0
230
1.0
 70
     8
 71
     3
 72
    23
 73
    19
 74
     0
 42
0.00000001
 43
0.00000001
 40
0.0
 40
0.0
 40
0.0
 40
0.0
 40
1.0
 40
1.0
 40
1.0
 40
2.0
 40
2.0
 40
2.0
 40
3.0
 40
3.0
 40
3.0
 40
4.0
 40
4.0
 40
4.0
 40
5.0
 40
5.0
 40
5.0
 40
6.0
 40
6.0
 40
6.0
 40
6.0
 10
-7.1496066623263879
 20
-93.761288113064225
 30
0.0
 10
-7.1496066623263879
 20
-93.761288113064225
 30
0.0
 10
-8.3567681206597211
 20
-94.788960096571174
 30
0.0
 10
-8.3567681206597211
 20
-95.667803955078114
 30
0.0
 10
-8.3567681206597211
 20
-95.944789632161445
 30
0.0
 10
-5.158685980902777
 20
-95.371525743272556
 30
0.0
 10
-7.6451836480034716
 20
-97.007257080078119
 30
0.0
 10
-9.4648830837673597
 20
-98.203738742404511
 30
0.0
 10
-8.6199734157986097
 20
-99.773668755425334
 30
0.0
 10
-9.6033759223090271
 20
-99.773668755425334
 30
0.0
 10
-10.586778428819443
 20
-99.773668755425334
 30
0.0
 10
-9.7416965060763872
 20
-98.203738742404511
 30
0.0
 10
-11.559501139322915
 20
-97.007257080078119
 30
0.0
 10
-14.04599880642361
 20
-95.371525743272556
 30
0.0
 10
-10.849983723958333
 20
-95.944789632161445
 30
0.0
 10
-10.849983723958333
 20
-95.667803955078114
 30
0.0
 10
-10.849983723958333
 20
-94.788960096571174
 30
0.0
 10
-12.058006456163193
 20
-93.761288113064225
 30
0.0
 10
-12.058006456163193
 20
-93.761288113064225
 30
0.0
  0
LINE
  5
34
100
AcDbEntity
  8
LIVELLO_1
 62
     7
100
AcDbLine
 10
20.687282
 20
41.62149
 30
0.0
 11
20.685215
 21
10.081125
 31
0.0
  0
LINE
  5
33
100
AcDbEntity
  8
LIVELLO_1
 62
     7
100
AcDbLine
 10
16.227089
 20
41.62149
 30
0.0
 11
25.14334
 21
41.62149
 31
0.0
  0
MTEXT
  5
32
100
AcDbEntity
  8
LIVELLO_1
 62
     7
100
AcDbMText
 10
12.289861
 20
8.285793
 30
0.0
 40
8.778011
 41
0.0
 71
     1
 72
     2
  1
\fArial Narrow|b0|i0;\H8.7780;\C7;\U+0036\U+0035\U+0030
  7
STD
210
0.0
220
0.0
230
1.0
 73
     1
 44
1.0
  0
MTEXT
  5
31
100
AcDbEntity
  8
LIVELLO_1
 62
     7
100
AcDbMText
 10
12.235601
 20
-60.990599
 30
0.0
 40
8.778011
 41
0.0
 71
     1
 72
     2
  1
\fArial Narrow|b0|i0;\H8.7780;\C7;\U+0034\U+0039\U+0030
  7
STD
210
0.0
220
0.0
230
1.0
 73
     1
 44
1.0
  0
LINE
  5
30
100
AcDbEntity
  8
LIVELLO_1
 62
     7
100
AcDbLine
 10
16.037436
 20
-100.129892
 30
0.0
 11
24.953688
 21
-100.129892
 31
0.0
  0
LINE
  5
2F
100
AcDbEntity
  8
LIVELLO_1
 62
     7
100
AcDbLine
 10
15.979214
 20
-100.017582
 30
0.0
 11
24.897533
 21
-100.017582
 31
0.0
  0
LINE
  5
2E
100
AcDbEntity
  8
LIVELLO_1
 62
     7
100
AcDbLine
 10
16.173862
 20
-100.114389
 30
0.0
 11
25.090114
 21
-100.114389
 31
0.0
  0
LINE
  5
2D
100
AcDbEntity
  8
LIVELLO_1
 62
     7
100
AcDbLine
 10
20.633883
 20
-73.642275
 30
0.0
 11
20.630093
 21
-100.129892
 31
0.0
  0
MTEXT
  5
2C
100
AcDbEntity
  8
LIVELLO_1
 62
     7
100
AcDbMText
 10
-17.310571
 20
-106.704604
 30
0.0
 40
8.778011
 41
0.0
 71
     1
 72
     2
  1
\fArial Narrow|b0|i0;\H8.7780;\C7;\U+0032\U+0038\U+0035
  7
STD
210
0.0
220
0.0
230
1.0
 73
     1
 44
1.0
  0
ENDBLK
  5
C8
100
AcDbEntity
  8
LIVELLO_1
100
AcDbBlockEnd
  0
ENDSEC
  0
SECTION
  2
ENTITIES
  0
INSERT
  5
2A
100
AcDbEntity
  8
LIVELLO_1
 62
     7
100
AcDbBlockReference
  2
AI9-BLK1
 10
28.430995
 20
122.258084
 30
0.0
  0
ENDSEC
  0
SECTION
  2
OBJECTS
  0
DICTIONARY
  5
19
100
AcDbDictionary
280
     0
281
     1
  3
ACAD_GROUP
350
1A
  3
ACAD_MLINESTYLE
350
1B
  3
ACAD_LAYOUT
350
1E
  3
ACAD_PLOTSETTINGS
350
22
  3
ACAD_PLOTSTYLENAME
350
1F
  3
ACAD_WIPEOUT_VARS
350
23
  0
DICTIONARY
  5
1A
102
{ACAD_REACTORS
330
19
102
}
100
AcDbDictionary
280
     0
281
     1
  0
DICTIONARY
  5
1B
102
{ACAD_REACTORS
330
19
102
}
100
AcDbDictionary
280
     0
281
     1
  3
Standard
350
1C
  0
MLINESTYLE
  5
1C
102
{ACAD_REACTORS
330
1B
102
}
100
AcDbMlineStyle
  2
Standard
 70
     0
  3

 62
     0
 51
90.0
 52
90.0
 71
     2
 49
0.5
 62
   256
  6
ByLayer
 49
-0.5
 62
   256
  6
ByLayer
  0
ACDBDICTIONARYWDFLT
  5
1F
102
{ACAD_REACTORS
330
19
102
}
100
AcDbDictionary
281
     1
  3
Normal
350
1D
100
AcDbDictionaryWithDefault
340
1D
  0
ACDBPLACEHOLDER
  5
1D
102
{ACAD_REACTORS
330
1F
102
}
  0
LAYOUT
  5
20
102
{ACAD_REACTORS
330
1E
102
}
100
AcDbPlotSettings
  1

  2

  4

  6

 40
0.0
 41
0.0
 42
0.0
 43
0.0
 44
0.0
 45
0.0
 46
0.0
 47
0.0
 48
0.0
 49
0.0
140
0.0
141
0.0
142
1.0
143
1.0
 70
  1024
 72
     0
 73
     0
 74
     0
  7

 75
     0
147
1.0
148
0.0
149
0.0
100
AcDbLayout
  1
Model
 70
     0
 71
     0
 10
0.0
 20
0.0
 11
0.0
 21
0.0
 12
0.0
 22
0.0
 32
0.0
 14
0.0
 24
0.0
 34
0.0
 15
0.0
 25
0.0
 35
0.0
146
0.0
 13
0.0
 23
0.0
 33
0.0
 16
0.0
 26
0.0
 36
0.0
 17
0.0
 27
0.0
 37
0.0
 76
     0
330
A
331
0
345
0
346
0
  0
LAYOUT
  5
21
102
{ACAD_REACTORS
330
1E
102
}
100
AcDbPlotSettings
  1

  2

  4

  6

 40
0.0
 41
0.0
 42
0.0
 43
0.0
 44
0.0
 45
0.0
 46
0.0
 47
0.0
 48
0.0
 49
0.0
140
0.0
141
0.0
142
1.0
143
1.0
 70
     0
 72
     0
 73
     0
 74
     0
  7

 75
     0
147
1.0
148
0.0
149
0.0
100
AcDbLayout
  1
Layout1
 70
     0
 71
     0
 10
0.0
 20
0.0
 11
0.0
 21
0.0
 12
0.0
 22
0.0
 32
0.0
 14
0.0
 24
0.0
 34
0.0
 15
0.0
 25
0.0
 35
0.0
146
0.0
 13
0.0
 23
0.0
 33
0.0
 16
0.0
 26
0.0
 36
0.0
 17
0.0
 27
0.0
 37
0.0
 76
     0
330
B
331
0
345
0
346
0
  0
DICTIONARY
  5
1E
102
{ACAD_REACTORS
330
19
102
}
100
AcDbDictionary
280
     0
281
     1
  3
Layout1
350
21
  3
Model
350
20
  0
DICTIONARY
  5
22
102
{ACAD_REACTORS
330
19
102
}
100
AcDbDictionary
280
     0
281
     1
  0
WIPEOUTVARIABLES
  5
23
100
AcDbWipeoutVariables
 70
     1
  0
ENDSEC
  0
EOF
