  0
SECTION
  2
HEADER
  9
$ACADVER
  1
AC1015
  9
$ACADMAINTVER
 70
     6
  9
$DWGCODEPAGE
  3
ANSI_932
  9
$INSBASE
 10
0.0
 20
0.0
 30
0.0
  9
$EXTMIN
 10
0.0
 20
0.0
 30
1.000000E+20
  9
$EXTMAX
 10
272.997635
 20
193.112933
 30
-1.000000E+20
  9
$LIMMIN
 10
0.0
 20
0.0
  9
$LIMMAX
 10
272.997635
 20
193.112933
  9
$ORTHOMODE
 70
     0
  9
$REGENMODE
 70
     1
  9
$FILLMODE
 70
     1
  9
$QTEXTMODE
 70
     0
  9
$MIRRTEXT
 70
     1
  9
$LTSCALE
 40
1.0
  9
$ATTMODE
 70
     1
  9
$TEXTSIZE
 40
0.2
  9
$TRACEWID
 40
0.05
  9
$TEXTSTYLE
  7
Standard
  9
$CLAYER
  8
0
  9
$CELTYPE
  6
Continuous
  9
$CECOLOR
 62
   256
  9
$CELTSCALE
 40
1.0
  9
$DISPSILH
 70
     0
  9
$DIMSCALE
 40
1.0
  9
$DIMASZ
 40
0.18
  9
$DIMEXO
 40
0.0625
  9
$DIMDLI
 40
0.38
  9
$DIMRND
 40
0.0
  9
$DIMDLE
 40
0.0
  9
$DIMEXE
 40
0.18
  9
$DIMTP
 40
0.0
  9
$DIMTM
 40
0.0
  9
$DIMTXT
 40
0.18
  9
$DIMCEN
 40
0.09
  9
$DIMTSZ
 40
0.0
  9
$DIMTOL
 70
     0
  9
$DIMLIM
 70
     0
  9
$DIMTIH
 70
     1
  9
$DIMTOH
 70
     1
  9
$DIMSE1
 70
     0
  9
$DIMSE2
 70
     0
  9
$DIMTAD
 70
     0
  9
$DIMZIN
 70
     0
  9
$DIMBLK
  1

  9
$DIMASO
 70
     1
  9
$DIMSHO
 70
     1
  9
$DIMPOST
  1

  9
$DIMAPOST
  1

  9
$DIMALT
 70
     0
  9
$DIMALTD
 70
     2
  9
$DIMALTF
 40
25.4
  9
$DIMLFAC
 40
1.0
  9
$DIMTOFL
 70
     0
  9
$DIMTVP
 40
0.0
  9
$DIMTIX
 70
     0
  9
$DIMSOXD
 70
     0
  9
$DIMSAH
 70
     0
  9
$DIMBLK1
  1

  9
$DIMBLK2
  1

  9
$DIMSTYLE
  2
Standard
  9
$DIMCLRD
 70
     0
  9
$DIMCLRE
 70
     0
  9
$DIMCLRT
 70
     0
  9
$DIMTFAC
 40
1.0
  9
$DIMGAP
 40
0.09
  9
$DIMJUST
 70
     0
  9
$DIMSD1
 70
     0
  9
$DIMSD2
 70
     0
  9
$DIMTOLJ
 70
     1
  9
$DIMTZIN
 70
     0
  9
$DIMALTZ
 70
     0
  9
$DIMALTTZ
 70
     0
  9
$DIMUPT
 70
     0
  9
$DIMDEC
 70
     4
  9
$DIMTDEC
 70
     4
  9
$DIMALTU
 70
     2
  9
$DIMALTTD
 70
     2
  9
$DIMTXSTY
  7
Standard
  9
$DIMAUNIT
 70
     0
  9
$DIMADEC
 70
     0
  9
$DIMALTRND
 40
0.0
  9
$DIMAZIN
 70
     0
  9
$DIMDSEP
 70
     0
  9
$DIMATFIT
 70
     3
  9
$DIMFRAC
 70
     0
  9
$DIMLDRBLK
  1

  9
$DIMLUNIT
 70
     2
  9
$DIMLWD
 70
     0
  9
$DIMLWE
 70
     0
  9
$DIMTMOVE
 70
     0
  9
$LUNITS
 70
     2
  9
$LUPREC
 70
     4
  9
$SKETCHINC
 40
0.1
  9
$FILLETRAD
 40
0.0
  9
$AUNITS
 70
     0
  9
$AUPREC
 70
     0
  9
$MENU
  1
acad
  9
$ELEVATION
 40
0.0
  9
$PELEVATION
 40
0.0
  9
$THICKNESS
 40
0.0
  9
$LIMCHECK
 70
     0
  9
$CHAMFERA
 40
0.0
  9
$CHAMFERB
 40
0.0
  9
$CHAMFERC
 40
0.0
  9
$CHAMFERD
 40
0.0
  9
$SKPOLY
 70
     0
  9
$TDCREATE
 40
0.000000000
  9
$TDUCREATE
 40
0.000000000
  9
$TDUPDATE
 40
0.000000000
  9
$TDUUPDATE
 40
0.000000000
  9
$TDINDWG
 40
0.0000000000
  9
$TDUSRTIMER
 40
0.0000000000
  9
$USRTIMER
 70
     1
  9
$ANGBASE
 50
0.0
  9
$ANGDIR
 70
     0
  9
$PDMODE
 70
     0
  9
$PDSIZE
 40
0.0
  9
$PLINEWID
 40
0.0
  9
$SPLFRAME
 70
     0
  9
$SPLINETYPE
 70
     6
  9
$SPLINESEGS
 70
     8
  9
$HANDSEED
  5
135
  9
$SURFTAB1
 70
     6
  9
$SURFTAB2
 70
     6
  9
$SURFTYPE
 70
     6
  9
$SURFU
 70
     6
  9
$SURFV
 70
     6
  9
$UCSBASE
  2

  9
$UCSNAME
  2

  9
$UCSORG
 10
0.0
 20
0.0
 30
0.0
  9
$UCSXDIR
 10
1.0
 20
0.0
 30
0.0
  9
$UCSYDIR
 10
0.0
 20
1.0
 30
0.0
  9
$UCSORTHOREF
  2

  9
$UCSORTHOVIEW
 70
     0
  9
$UCSORGTOP
 10
0.0
 20
0.0
 30
0.0
  9
$UCSORGBOTTOM
 10
0.0
 20
0.0
 30
0.0
  9
$UCSORGLEFT
 10
0.0
 20
0.0
 30
0.0
  9
$UCSORGRIGHT
 10
0.0
 20
0.0
 30
0.0
  9
$UCSORGFRONT
 10
0.0
 20
0.0
 30
0.0
  9
$UCSORGBACK
 10
0.0
 20
0.0
 30
0.0
  9
$PUCSBASE
  2

  9
$PUCSNAME
  2

  9
$PUCSORG
 10
0.0
 20
0.0
 30
0.0
  9
$PUCSXDIR
 10
1.0
 20
0.0
 30
0.0
  9
$PUCSYDIR
 10
0.0
 20
1.0
 30
0.0
  9
$PUCSORTHOREF
  2

  9
$PUCSORTHOVIEW
 70
     0
  9
$PUCSORGTOP
 10
0.0
 20
0.0
 30
0.0
  9
$PUCSORGBOTTOM
 10
0.0
 20
0.0
 30
0.0
  9
$PUCSORGLEFT
 10
0.0
 20
0.0
 30
0.0
  9
$PUCSORGRIGHT
 10
0.0
 20
0.0
 30
0.0
  9
$PUCSORGFRONT
 10
0.0
 20
0.0
 30
0.0
  9
$PUCSORGBACK
 10
0.0
 20
0.0
 30
0.0
  9
$USERI1
 70
     0
  9
$USERI2
 70
     0
  9
$USERI3
 70
     0
  9
$USERI4
 70
     0
  9
$USERI5
 70
     0
  9
$USERR1
 40
0.0
  9
$USERR2
 40
0.0
  9
$USERR3
 40
0.0
  9
$USERR4
 40
0.0
  9
$USERR5
 40
0.0
  9
$WORLDVIEW
 70
     1
  9
$SHADEDGE
 70
     3
  9
$SHADEDIF
 70
    70
  9
$TILEMODE
 70
     1
  9
$MAXACTVP
 70
    16
  9
$PINSBASE
 10
0.0
 20
0.0
 30
0.0
  9
$PLIMCHECK
 70
     0
  9
$PEXTMIN
 10
1.000000E+20
 20
1.000000E+20
 30
1.000000E+20
  9
$PEXTMAX
 10
-1.000000E+20
 20
-1.000000E+20
 30
-1.000000E+20
  9
$PLIMMIN
 10
0.0
 20
0.0
  9
$PLIMMAX
 10
12.0
 20
9.0
  9
$UNITMODE
 70
     0
  9
$VISRETAIN
 70
     0
  9
$PLINEGEN
 70
     1
  9
$PSLTSCALE
 70
     0
  9
$TREEDEPTH
 70
  3020
  9
$CMLSTYLE
  2
Standard
  9
$CMLJUST
 70
     0
  9
$CMLSCALE
 40
1.0
  9
$PROXYGRAPHICS
 70
     0
  9
$MEASUREMENT
 70
     1
  9
$CELWEIGHT
370
     0
  9
$ENDCAPS
280
     0
  9
$JOINSTYLE
280
     0
  9
$LWDISPLAY
290
     0
  9
$INSUNITS
 70
     0
  9
$HYPERLINKBASE
  1

  9
$STYLESHEET
  1

  9
$XEDIT
290
     1
  9
$CEPSNTYPE
380
     0
  9
$PSTYLEMODE
290
     1
  9
$FINGERPRINTGUID
  2

  9
$VERSIONGUID
  2

  9
$EXTNAMES
290
     1
  9
$PSVPSCALE
 40
0.0
  0
ENDSEC
  0
SECTION
  2
CLASSES
  0
CLASS
  1
LWPOLYLINE
  2
AcDbPolyline
  3
AutoCAD 2000
 90
    32768
280
     0
281
     1
  0
CLASS
  1
IMAGE
  2
AcDbRasterImage
  3
ISM
 90
    32895
280
     0
281
     1
  0
CLASS
  1
OLE2FRAME
  2
AcDbOle2Frame
  3
AutoCAD 2000
 90
    32768
280
     0
281
     1
  0
CLASS
  1
HATCH
  2
AcDbHatch
  3
AutoCAD 2000
 90
    32768
280
     0
281
     1
  0
CLASS
  1
DICTIONARYVAR
  2
AcDbDictionaryVar
  3
AutoCAD 2000
 90
    32768
280
     0
281
     0
  0
CLASS
  1
RASTERVARIABLES
  2
AcDbRasterVariables
  3
ISM
 90
    32768
280
     0
281
     0
  0
CLASS
  1
IMAGEDEF
  2
AcDbRasterImageDef
  3
ISM
 90
    32768
280
     0
281
     0
  0
CLASS
  1
IMAGEDEF_REACTOR
  2
AcDbRasterImageDefReactor
  3
ISM
 90
    32769
280
     0
281
     0
  0
CLASS
  1
IDBUFFER
  2
AcDbIdBuffer
  3
AutoCAD 2000
 90
    32768
280
     0
281
     0
  0
CLASS
  1
SPATIAL_FILTER
  2
AcDbSpatialFilter
  3
AutoCAD 2000
 90
    32768
280
     0
281
     0
  0
CLASS
  1
XRECORD
  2
AcDbXrecord
  3
AutoCAD 2000
 90
    32768
280
     0
281
     0
  0
CLASS
  1
SORTENTSTABLE
  2
AcDbSortentsTable
  3
AutoCAD 2000
 90
    32768
280
     0
281
     0
  0
CLASS
  1
LAYER_INDEX
  2
AcDbLayerIndex
  3
AutoCAD 2000
 90
    32768
280
     0
281
     0
  0
CLASS
  1
SPATIAL_INDEX
  2
AcDbSpatialIndex
  3
AutoCAD 2000
 90
    32768
280
     0
281
     0
  0
CLASS
  1
OBJECT_PTR
  2
CAseDLPNTableRecord
  3
"ASE-LPNTableRecord"
 90
    32769
280
     0
281
     0
  0
CLASS
  1
LAYOUT
  2
AcDbLayout
  3
AutoCAD 2000
 90
        0
280
     0
281
     0
  0
CLASS
  1
PLOTSETTINGS
  2
AcDbPlotSettings
  3
AutoCAD 2000
 90
    32768
280
     0
281
     0
  0
CLASS
  1
ACDBDICTIONARYWDFLT
  2
AcDbDictionaryWithDefault
  3
AutoCAD 2000
 90
        0
280
     0
281
     0
  0
CLASS
  1
ACDBPLACEHOLDER
  2
AcDbPlaceHolder
  3
AutoCAD 2000
 90
        0
280
     0
281
     0
  0
CLASS
  1
VBA_PROJECT
  2
AcDbVbaProject
  3
acadvba
 90
    32768
280
     0
281
     0
  0
CLASS
  1
WIPEOUT
  2
AcDbWipeout
  3
WipeOut|AutoCAD Express Tool|expresstools@autodesk.com
 90
    32895
280
     0
281
     1
  0
CLASS
  1
WIPEOUTVARIABLES
  2
AcDbWipeoutVariables
  3
WipeOut|AutoCAD Express Tool|expresstools@autodesk.com
 90
        0
280
     0
281
     0
  0
CLASS
  1
RTEXT
  2
RText
  3
RText|AutoCAD Express Tool|expresstools@autodesk.com
 90
    32768
280
     0
281
     1
  0
CLASS
  1
ARCALIGNEDTEXT
  2
AcDbArcAlignedText
  3
ATEXT|AutoCAD Express Tool|expresstools@autodesk.com
 90
    32768
280
     0
281
     1
  0
ENDSEC
  0
SECTION
  2
TABLES
  0
TABLE
  2
VPORT
  5
7
100
AcDbSymbolTable
 70
     1
  0
VPORT
  5
15
100
AcDbSymbolTableRecord
100
AcDbViewportTableRecord
  2
*ACTIVE
 70
     0
 10
0.0
 20
0.0
 11
1.0
 21
1.0
 12
6.591288
 22
4.579184
 13
0.0
 23
0.0
 14
1.0
 24
1.0
 15
0.0
 25
0.0
 16
0.0
 26
0.0
 36
1.0
 17
0.0
 27
0.0
 37
0.0
 40
9.158369
 41
0.688564
 42
50.0
 43
0.0
 44
0.0
 50
0.0
 51
0.0
 71
     0
 72
   100
 73
     1
 74
     1
 75
     0
 76
     0
 77
     0
 78
     0
281
     0
 65
     0
110
0.0
120
0.0
130
0.0
111
1.0
121
0.0
131
0.0
112
0.0
122
1.0
132
0.0
345
0
346
0
 79
     0
146
0.0
  0
ENDTAB
  0
TABLE
  2
LTYPE
  5
4
100
AcDbSymbolTable
 70
     3
  0
LTYPE
  5
11
100
AcDbSymbolTableRecord
100
AcDbLinetypeTableRecord
  2
ByBlock
 70
    64
  3

 72
    65
 73
     0
 40
0.0
  0
LTYPE
  5
12
100
AcDbSymbolTableRecord
100
AcDbLinetypeTableRecord
  2
ByLayer
 70
    64
  3

 72
    65
 73
     0
 40
0.0
  0
LTYPE
  5
13
100
AcDbSymbolTableRecord
100
AcDbLinetypeTableRecord
  2
Continuous
 70
    64
  3
Solid line
 72
    65
 73
     0
 40
0.0
  0
ENDTAB
  0
TABLE
  2
LAYER
  5
2
100
AcDbSymbolTable
 70
     2
  0
LAYER
  5
14
100
AcDbSymbolTableRecord
100
AcDbLayerTableRecord
  2
0
 70
     0
 62
     7
  6
Continuous
290
     1
370
    -3
390
1D
  0
LAYER
  5
28
100
AcDbSymbolTableRecord
100
AcDbLayerTableRecord
  2
LIVELLO_1
 70
     0
 62
   160
  6
Continuous
290
     1
370
    -3
390
1D
  0
ENDTAB
  0
TABLE
  2
STYLE
  5
3
100
AcDbSymbolTable
 70
     5
  0
STYLE
  5
17
100
AcDbSymbolTableRecord
100
AcDbTextStyleTableRecord
  2
Standard
 70
     0
 40
0.0
 41
1.0
 50
0.0
 71
     0
 42
0.0
  3
txt
  4

  0
STYLE
  5
24
100
AcDbSymbolTableRecord
100
AcDbTextStyleTableRecord
  2
STD
 70
     0
 40
0.0
 41
1.0
 50
0.0
 71
     0
 42
0.0
  3
txt
  4

  0
STYLE
  5
25
100
AcDbSymbolTableRecord
100
AcDbTextStyleTableRecord
  2
TATESTD
 70
     4
 40
0.0
 41
1.0
 50
0.0
 71
     0
 42
0.0
  3
txt
  4

  0
STYLE
  5
26
100
AcDbSymbolTableRecord
100
AcDbTextStyleTableRecord
  2
KANJISTD
 70
     0
 40
0.0
 41
1.0
 50
0.0
 71
     0
 42
0.0
  3
txt
  4
extfont
  0
STYLE
  5
27
100
AcDbSymbolTableRecord
100
AcDbTextStyleTableRecord
  2
KANJITATE
 70
     4
 40
0.0
 41
1.0
 50
0.0
 71
     0
 42
0.0
  3
txt
  4
extfont
  0
ENDTAB
  0
TABLE
  2
VIEW
  5
5
100
AcDbSymbolTable
 70
     0
  0
ENDTAB
  0
TABLE
  2
UCS
  5
6
100
AcDbSymbolTable
 70
     0
  0
ENDTAB
  0
TABLE
  2
APPID
  5
8
100
AcDbSymbolTable
 70
     1
  0
APPID
  5
16
100
AcDbSymbolTableRecord
100
AcDbRegAppTableRecord
  2
ACAD
 70
     0
  0
ENDTAB
  0
TABLE
  2
DIMSTYLE
  5
9
100
AcDbSymbolTable
 70
     1
100
AcDbDimStyleTable
 71
     0
  0
DIMSTYLE
105
18
100
AcDbSymbolTableRecord
100
AcDbDimStyleTableRecord
  2
Standard
 70
     0
  3

  4

 40
1.0
 41
0.18
 42
0.0625
 43
0.38
 44
0.18
 45
0.0
 46
0.0
 47
0.0
 48
0.0
 71
     0
 72
     0
 73
     1
 74
     1
 75
     0
 76
     0
 77
     0
 78
     0
 79
     0
140
0.18
141
0.09
142
0.0
143
25.4
144
1.0
145
0.0
146
1.0
147
0.09
148
0.0
170
     0
171
     2
172
     0
173
     0
174
     0
175
     0
176
     0
177
     0
178
     0
179
     0
271
     4
272
     4
273
     2
274
     2
275
     0
276
     0
277
     2
278
    46
279
     0
280
     0
281
     0
282
     0
283
     1
284
     0
285
     0
286
     0
288
     0
340
17
341
0
342
0
343
0
344
0
371
    -2
372
    -2
  0
ENDTAB
  0
TABLE
  2
BLOCK_RECORD
  5
1
100
AcDbSymbolTable
 70
     1
  0
BLOCK_RECORD
  5
A
100
AcDbSymbolTableRecord
100
AcDbBlockTableRecord
  2
*MODEL_SPACE
340
20
  0
BLOCK_RECORD
  5
B
100
AcDbSymbolTableRecord
100
AcDbBlockTableRecord
  2
*PAPER_SPACE
340
21
  0
BLOCK_RECORD
  5
29
100
AcDbSymbolTableRecord
100
AcDbBlockTableRecord
  2
AI9-BLK1
340
0
102
{BLKREFS
331
2A
102
}
  0
ENDTAB
  0
ENDSEC
  0
SECTION
  2
BLOCKS
  0
BLOCK
  5
D
100
AcDbEntity
  8
0
100
AcDbBlockBegin
  2
*MODEL_SPACE
 70
     0
 10
0.0
 20
0.0
 30
0.0
  3
*MODEL_SPACE
  1

  0
ENDBLK
  5
E
100
AcDbEntity
  8
0
100
AcDbBlockEnd
  0
BLOCK
  5
F
100
AcDbEntity
 67
     1
  8
0
100
AcDbBlockBegin
  2
*PAPER_SPACE
 70
     0
 10
0.0
 20
0.0
 30
0.0
  3
*PAPER_SPACE
  1

  0
ENDBLK
  5
10
100
AcDbEntity
 67
     1
  8
0
100
AcDbBlockEnd
  0
BLOCK
  5
2B
100
AcDbEntity
  8
LIVELLO_1
 62
     7
100
AcDbBlockBegin
  2
AI9-BLK1
 70
     0
 10
0.0
 20
0.0
 30
0.0
  3
AI9-BLK1
  1

  0
SPLINE
  5
133
100
AcDbEntity
  8
LIVELLO_1
 62
     7
100
AcDbSpline
210
0.0
220
0.0
230
1.0
 70
     8
 71
     3
 72
     8
 73
     4
 74
     0
 42
0.00000001
 43
0.00000001
 40
0.0
 40
0.0
 40
0.0
 40
0.0
 40
1.0
 40
1.0
 40
1.0
 40
1.0
 10
-131.77094048394096
 20
82.088787841796872
 30
0.0
 10
-131.77094048394096
 20
82.088787841796872
 30
0.0
 10
-127.29679497612847
 20
82.088787841796872
 30
0.0
 10
-125.79852294921874
 20
80.593444146050345
 30
0.0
  0
SPLINE
  5
132
100
AcDbEntity
  8
LIVELLO_1
 62
     7
100
AcDbSpline
210
0.0
220
0.0
230
1.0
 70
     8
 71
     3
 72
     8
 73
     4
 74
     0
 42
0.00000001
 43
0.00000001
 40
0.0
 40
0.0
 40
0.0
 40
0.0
 40
1.0
 40
1.0
 40
1.0
 40
1.0
 10
-131.77094048394096
 20
43.285816107855901
 30
0.0
 10
-131.77094048394096
 20
43.285816107855901
 30
0.0
 10
-127.29679497612847
 20
43.285816107855901
 30
0.0
 10
-125.79852294921874
 20
44.775819905598951
 30
0.0
  0
LINE
  5
131
100
AcDbEntity
  8
LIVELLO_1
 62
     7
100
AcDbLine
 10
-131.77094
 20
52.236863
 30
0.0
 11
-125.798523
 21
52.236863
 31
0.0
  0
LINE
  5
130
100
AcDbEntity
  8
LIVELLO_1
 62
     7
100
AcDbLine
 10
-131.77094
 20
74.625161
 30
0.0
 11
-125.798523
 21
74.625161
 31
0.0
  0
SPLINE
  5
12F
100
AcDbEntity
  8
LIVELLO_1
 62
     7
100
AcDbSpline
210
0.0
220
0.0
230
1.0
 70
     8
 71
     3
 72
    23
 73
    19
 74
     0
 42
0.00000001
 43
0.00000001
 40
0.0
 40
0.0
 40
0.0
 40
0.0
 40
1.0
 40
1.0
 40
1.0
 40
2.0
 40
2.0
 40
2.0
 40
3.0
 40
3.0
 40
3.0
 40
4.0
 40
4.0
 40
4.0
 40
5.0
 40
5.0
 40
5.0
 40
6.0
 40
6.0
 40
6.0
 40
6.0
 10
-131.77094048394096
 20
95.520698377821176
 30
0.0
 10
-131.77094048394096
 20
95.520698377821176
 30
0.0
 10
-125.79852294921874
 20
97.010702175564234
 30
0.0
 10
-124.30989718967012
 20
92.535350884331592
 30
0.0
 10
-122.8145534939236
 20
88.057071261935761
 30
0.0
 10
-122.8145534939236
 20
82.088787841796872
 30
0.0
 10
-121.32179361979165
 20
80.593444146050345
 30
0.0
 10
-121.32179361979165
 20
80.593444146050345
 30
0.0
 10
-121.32179361979165
 20
59.700490315755204
 30
0.0
 10
-121.32179361979165
 20
59.700490315755204
 30
0.0
 10
-121.32179361979165
 20
59.700490315755204
 30
0.0
 10
-121.32179361979165
 20
43.285816107855901
 30
0.0
 10
-121.32179361979165
 20
43.285816107855901
 30
0.0
 10
-122.8145534939236
 20
41.790300157335068
 30
0.0
 10
-122.8145534939236
 20
35.822361246744791
 30
0.0
 10
-124.30989718967012
 20
31.344081624348956
 30
0.0
 10
-125.79852294921874
 20
26.868558078342012
 30
0.0
 10
-131.77094048394096
 20
28.361317952473957
 30
0.0
 10
-131.77094048394096
 20
28.361317952473957
 30
0.0
  0
SPLINE
  5
12E
100
AcDbEntity
  8
LIVELLO_1
 62
     7
100
AcDbSpline
210
0.0
220
0.0
230
1.0
 70
     8
 71
     3
 72
    23
 73
    19
 74
     0
 42
0.00000001
 43
0.00000001
 40
0.0
 40
0.0
 40
0.0
 40
0.0
 40
1.0
 40
1.0
 40
1.0
 40
2.0
 40
2.0
 40
2.0
 40
3.0
 40
3.0
 40
3.0
 40
4.0
 40
4.0
 40
4.0
 40
5.0
 40
5.0
 40
5.0
 40
6.0
 40
6.0
 40
6.0
 40
6.0
 10
-131.77094048394096
 20
95.520698377821176
 30
0.0
 10
-131.77094048394096
 20
95.520698377821176
 30
0.0
 10
-127.29679497612847
 20
95.520698377821176
 30
0.0
 10
-127.29679497612847
 20
92.535350884331592
 30
0.0
 10
-127.29679497612847
 20
89.547075059678818
 30
0.0
 10
-127.29679497612847
 20
82.088787841796872
 30
0.0
 10
-125.79852294921874
 20
80.593444146050345
 30
0.0
 10
-125.79852294921874
 20
80.593444146050345
 30
0.0
 10
-125.79852294921874
 20
64.176013861762144
 30
0.0
 10
-125.79852294921874
 20
64.176013861762144
 30
0.0
 10
-125.79852294921874
 20
64.176013861762144
 30
0.0
 10
-125.79852294921874
 20
43.285816107855901
 30
0.0
 10
-125.79852294921874
 20
43.285816107855901
 30
0.0
 10
-127.29679497612847
 20
41.790300157335068
 30
0.0
 10
-127.29679497612847
 20
34.329601372612842
 30
0.0
 10
-127.29679497612847
 20
31.344081624348956
 30
0.0
 10
-127.29679497612847
 20
28.361317952473957
 30
0.0
 10
-131.77094048394096
 20
28.361317952473957
 30
0.0
 10
-131.77094048394096
 20
28.361317952473957
 30
0.0
  0
POLYLINE
  5
128
100
AcDbEntity
  8
LIVELLO_1
 62
     7
100
AcDb2dPolyline
 66
     1
 10
0.0
 20
0.0
 30
0.0
 70
     1
  0
VERTEX
  5
129
100
AcDbEntity
  8
LIVELLO_1
 62
     7
100
AcDbVertex
100
AcDb2dVertex
 10
-136.24767
 20
95.520698
 30
0.0
  0
VERTEX
  5
12A
100
AcDbEntity
  8
LIVELLO_1
 62
     7
100
AcDbVertex
100
AcDb2dVertex
 10
-136.24767
 20
28.361318
 30
0.0
  0
VERTEX
  5
12B
100
AcDbEntity
  8
LIVELLO_1
 62
     7
100
AcDbVertex
100
AcDb2dVertex
 10
-131.77094
 20
28.361318
 30
0.0
  0
VERTEX
  5
12C
100
AcDbEntity
  8
LIVELLO_1
 62
     7
100
AcDbVertex
100
AcDb2dVertex
 10
-131.77094
 20
95.520698
 30
0.0
  0
SEQEND
  5
12D
100
AcDbEntity
  8
LIVELLO_1
 62
     7
  0
LINE
  5
127
100
AcDbEntity
  8
LIVELLO_1
 62
     7
100
AcDbLine
 10
-27.252083
 20
6.835328
 30
0.0
 11
-26.789407
 21
9.021241
 31
0.0
  0
LINE
  5
126
100
AcDbEntity
  8
LIVELLO_1
 62
     7
100
AcDbLine
 10
-30.46119
 20
6.764359
 30
0.0
 11
-27.381619
 21
6.764359
 31
0.0
  0
LINE
  5
125
100
AcDbEntity
  8
LIVELLO_1
 62
     7
100
AcDbLine
 10
-30.46119
 20
6.764359
 30
0.0
 11
-30.904918
 21
6.38781
 31
0.0
  0
LINE
  5
124
100
AcDbEntity
  8
LIVELLO_1
 62
     7
100
AcDbLine
 10
-40.669008
 20
-40.561262
 30
0.0
 11
-64.424491
 21
-40.561262
 31
0.0
  0
LINE
  5
123
100
AcDbEntity
  8
LIVELLO_1
 62
     7
100
AcDbLine
 10
-64.091523
 20
-43.928499
 30
0.0
 11
-74.637649
 21
6.764359
 31
0.0
  0
LINE
  5
122
100
AcDbEntity
  8
LIVELLO_1
 62
     7
100
AcDbLine
 10
-63.725826
 20
-43.928499
 30
0.0
 11
-74.191337
 21
6.38781
 31
0.0
  0
LINE
  5
121
100
AcDbEntity
  8
LIVELLO_1
 62
     7
100
AcDbLine
 10
-77.714464
 20
6.764359
 30
0.0
 11
-77.842794
 21
6.835328
 31
0.0
  0
LINE
  5
120
100
AcDbEntity
  8
LIVELLO_1
 62
     7
100
AcDbLine
 10
-27.252083
 20
6.835328
 30
0.0
 11
-77.842794
 21
6.835328
 31
0.0
  0
LINE
  5
11F
100
AcDbEntity
  8
LIVELLO_1
 62
     7
100
AcDbLine
 10
-67.162998
 20
-43.928499
 30
0.0
 11
-77.714464
 21
6.764359
 31
0.0
  0
LINE
  5
11E
100
AcDbEntity
  8
LIVELLO_1
 62
     7
100
AcDbLine
 10
-41.090687
 20
-44.60546
 30
0.0
 11
-41.031949
 21
-43.928499
 31
0.0
  0
LINE
  5
11D
100
AcDbEntity
  8
LIVELLO_1
 62
     7
100
AcDbLine
 10
-64.005568
 20
-44.60546
 30
0.0
 11
-64.064307
 21
-43.928499
 31
0.0
  0
LINE
  5
11C
100
AcDbEntity
  8
LIVELLO_1
 62
     7
100
AcDbLine
 10
-45.762581
 20
-49.541937
 30
0.0
 11
-59.333674
 21
-49.541937
 31
0.0
  0
LINE
  5
11B
100
AcDbEntity
  8
LIVELLO_1
 62
     7
100
AcDbLine
 10
-41.090687
 20
-44.60546
 30
0.0
 11
-64.005568
 21
-44.60546
 31
0.0
  0
LINE
  5
11A
100
AcDbEntity
  8
LIVELLO_1
 62
     7
100
AcDbLine
 10
-77.842794
 20
6.835328
 30
0.0
 11
-78.306676
 21
9.021241
 31
0.0
  0
LINE
  5
119
100
AcDbEntity
  8
LIVELLO_1
 62
     7
100
AcDbLine
 10
-78.271191
 20
8.415249
 30
0.0
 11
-79.82803
 21
8.415249
 31
0.0
  0
LINE
  5
118
100
AcDbEntity
  8
LIVELLO_1
 62
     7
100
AcDbLine
 10
-78.527679
 20
9.193151
 30
0.0
 11
-79.892109
 21
9.193151
 31
0.0
  0
LINE
  5
117
100
AcDbEntity
  8
LIVELLO_1
 62
     7
100
AcDbLine
 10
-37.930501
 20
-43.928499
 30
0.0
 11
-52.548041
 21
-43.928499
 31
0.0
  0
LINE
  5
116
100
AcDbEntity
  8
LIVELLO_1
 62
     7
100
AcDbLine
 10
-74.637649
 20
6.764359
 30
0.0
 11
-77.714464
 21
6.764359
 31
0.0
  0
LINE
  5
115
100
AcDbEntity
  8
LIVELLO_1
 62
     7
100
AcDbLine
 10
-74.637649
 20
6.764359
 30
0.0
 11
-74.191337
 21
6.38781
 31
0.0
  0
LINE
  5
114
100
AcDbEntity
  8
LIVELLO_1
 62
     7
100
AcDbLine
 10
-30.904918
 20
6.38781
 30
0.0
 11
-74.191337
 21
6.38781
 31
0.0
  0
LINE
  5
113
100
AcDbEntity
  8
LIVELLO_1
 62
     7
100
AcDbLine
 10
-67.162998
 20
-43.928499
 30
0.0
 11
-52.548041
 21
-43.928499
 31
0.0
  0
LINE
  5
112
100
AcDbEntity
  8
LIVELLO_1
 62
     7
100
AcDbLine
 10
-79.935862
 20
8.511022
 30
0.0
 11
-80.068153
 21
9.978977
 31
0.0
  0
SPLINE
  5
111
100
AcDbEntity
  8
LIVELLO_1
 62
     7
100
AcDbSpline
210
0.0
220
0.0
230
1.0
 70
     8
 71
     3
 72
     8
 73
     4
 74
     0
 42
0.00000001
 43
0.00000001
 40
0.0
 40
0.0
 40
0.0
 40
0.0
 40
1.0
 40
1.0
 40
1.0
 40
1.0
 10
-79.815799967447916
 20
14.984012179904513
 30
0.0
 10
-75.122029622395829
 20
16.596661376953122
 30
0.0
 10
-71.371009657118051
 20
20.198853217230901
 30
0.0
 10
-69.576803927951389
 20
24.832851155598956
 30
0.0
  0
SPLINE
  5
110
100
AcDbEntity
  8
LIVELLO_1
 62
     7
100
AcDbSpline
210
0.0
220
0.0
230
1.0
 70
     8
 71
     3
 72
     8
 73
     4
 74
     0
 42
0.00000001
 43
0.00000001
 40
0.0
 40
0.0
 40
0.0
 40
0.0
 40
1.0
 40
1.0
 40
1.0
 40
1.0
 10
-69.576803927951389
 20
24.832851155598956
 30
0.0
 10
-69.045914713541663
 20
26.1891852484809
 30
0.0
 10
-68.65575764973957
 20
27.591683620876733
 30
0.0
 10
-68.400648328993043
 20
29.030010986328122
 30
0.0
  0
SPLINE
  5
10F
100
AcDbEntity
  8
LIVELLO_1
 62
     7
100
AcDbSpline
210
0.0
220
0.0
230
1.0
 70
     8
 71
     3
 72
     8
 73
     4
 74
     0
 42
0.00000001
 43
0.00000001
 40
0.0
 40
0.0
 40
0.0
 40
0.0
 40
1.0
 40
1.0
 40
1.0
 40
1.0
 10
-79.815799967447916
 20
14.984012179904513
 30
0.0
 10
-82.102654351128464
 20
14.203353542751735
 30
0.0
 10
-83.843633355034711
 20
12.320608859592014
 30
0.0
 10
-84.446869574652766
 20
9.9789774576822907
 30
0.0
  0
SPLINE
  5
10E
100
AcDbEntity
  8
LIVELLO_1
 62
     7
100
AcDbSpline
210
0.0
220
0.0
230
1.0
 70
     8
 71
     3
 72
     8
 73
     4
 74
     0
 42
0.00000001
 43
0.00000001
 40
0.0
 40
0.0
 40
0.0
 40
0.0
 40
1.0
 40
1.0
 40
1.0
 40
1.0
 10
-62.803573947482633
 20
38.346582709418399
 30
0.0
 10
-65.08905029296875
 20
38.346582709418399
 30
0.0
 10
-67.048448350694443
 20
36.695348442925344
 30
0.0
 10
-67.448251681857627
 20
34.441222466362845
 30
0.0
  0
SPLINE
  5
10D
100
AcDbEntity
  8
LIVELLO_1
 62
     7
100
AcDbSpline
210
0.0
220
0.0
230
1.0
 70
     8
 71
     3
 72
     8
 73
     4
 74
     0
 42
0.00000001
 43
0.00000001
 40
0.0
 40
0.0
 40
0.0
 40
0.0
 40
1.0
 40
1.0
 40
1.0
 40
1.0
 10
-62.672488064236106
 20
39.140677218967014
 30
0.0
 10
-60.545313856336797
 20
39.926503499348954
 30
0.0
 10
-58.997949218749994
 20
41.782376437717012
 30
0.0
 10
-58.603658040364579
 20
44.014453803168401
 30
0.0
  0
SPLINE
  5
10C
100
AcDbEntity
  8
LIVELLO_1
 62
     7
100
AcDbSpline
210
0.0
220
0.0
230
1.0
 70
     8
 71
     3
 72
     8
 73
     4
 74
     0
 42
0.00000001
 43
0.00000001
 40
0.0
 40
0.0
 40
0.0
 40
0.0
 40
1.0
 40
1.0
 40
1.0
 40
1.0
 10
-56.505078124999997
 20
46.825307210286454
 30
0.0
 10
-57.432842339409717
 20
46.825307210286454
 30
0.0
 10
-58.2229749891493
 20
46.162126329210068
 30
0.0
 10
-58.387995062934024
 20
45.245386420355899
 30
0.0
  0
SPLINE
  5
10B
100
AcDbEntity
  8
LIVELLO_1
 62
     7
100
AcDbSpline
210
0.0
220
0.0
230
1.0
 70
     8
 71
     3
 72
    11
 73
     7
 74
     0
 42
0.00000001
 43
0.00000001
 40
0.0
 40
0.0
 40
0.0
 40
0.0
 40
1.0
 40
1.0
 40
1.0
 40
2.0
 40
2.0
 40
2.0
 40
2.0
 10
-36.695606825086806
 20
29.030010986328122
 30
0.0
 10
-36.440497504340271
 20
27.591683620876733
 30
0.0
 10
-36.050168185763887
 20
26.1891852484809
 30
0.0
 10
-35.52496337890625
 20
24.832851155598956
 30
0.0
 10
-33.725073242187499
 20
20.198853217230901
 30
0.0
 10
-29.974053276909718
 20
16.596661376953122
 30
0.0
 10
-25.280455186631944
 20
14.984012179904513
 30
0.0
  0
SPLINE
  5
10A
100
AcDbEntity
  8
LIVELLO_1
 62
     7
100
AcDbSpline
210
0.0
220
0.0
230
1.0
 70
     8
 71
     3
 72
     8
 73
     4
 74
     0
 42
0.00000001
 43
0.00000001
 40
0.0
 40
0.0
 40
0.0
 40
0.0
 40
1.0
 40
1.0
 40
1.0
 40
1.0
 10
-25.268052842881943
 20
8.4152486165364575
 30
0.0
 10
-25.214998372395829
 20
8.4152486165364575
 30
0.0
 10
-25.165733506944441
 20
8.4590013292100679
 30
0.0
 10
-25.160221354166666
 20
8.5110222710503471
 30
0.0
  0
SPLINE
  5
109
100
AcDbEntity
  8
LIVELLO_1
 62
     7
100
AcDbSpline
210
0.0
220
0.0
230
1.0
 70
     8
 71
     3
 72
     8
 73
     4
 74
     0
 42
0.00000001
 43
0.00000001
 40
0.0
 40
0.0
 40
0.0
 40
0.0
 40
1.0
 40
1.0
 40
1.0
 40
1.0
 10
-25.203974066840274
 20
9.1931511773003471
 30
0.0
 10
-25.142651367187497
 20
9.1931511773003471
 30
0.0
 10
-25.094764539930555
 20
9.2448276095920132
 30
0.0
 10
-25.089252387152776
 20
9.2968485514322907
 30
0.0
  0
SPLINE
  5
108
100
AcDbEntity
  8
LIVELLO_1
 62
     7
100
AcDbSpline
210
0.0
220
0.0
230
1.0
 70
     8
 71
     3
 72
    11
 73
     7
 74
     0
 42
0.00000001
 43
0.00000001
 40
0.0
 40
0.0
 40
0.0
 40
0.0
 40
1.0
 40
1.0
 40
1.0
 40
2.0
 40
2.0
 40
2.0
 40
2.0
 10
-45.762581380208331
 20
-49.541937255859374
 30
0.0
 10
-45.4950697157118
 20
-49.541937255859374
 30
0.0
 10
-45.234448242187497
 20
-49.443752034505202
 30
0.0
 10
-45.03118760850694
 20
-49.271841769748256
 30
0.0
 10
-43.583558485243053
 20
-48.019205050998259
 30
0.0
 10
-42.495941840277773
 20
-46.409311930338539
 30
0.0
 10
-41.879269748263887
 20
-44.605459933810756
 30
0.0
  0
SPLINE
  5
107
100
AcDbEntity
  8
LIVELLO_1
 62
     7
100
AcDbSpline
210
0.0
220
0.0
230
1.0
 70
     8
 71
     3
 72
    11
 73
     7
 74
     0
 42
0.00000001
 43
0.00000001
 40
0.0
 40
0.0
 40
0.0
 40
0.0
 40
1.0
 40
1.0
 40
1.0
 40
2.0
 40
2.0
 40
2.0
 40
2.0
 10
-63.216985405815969
 20
-44.605459933810756
 30
0.0
 10
-62.602897135416661
 20
-46.409311930338539
 30
0.0
 10
-61.512696668836803
 20
-48.019205050998259
 30
0.0
 10
-60.062311469184024
 20
-49.271841769748256
 30
0.0
 10
-59.861634657118053
 20
-49.443752034505202
 30
0.0
 10
-59.598429361979164
 20
-49.541937255859374
 30
0.0
 10
-59.333673773871524
 20
-49.541937255859374
 30
0.0
  0
SPLINE
  5
106
100
AcDbEntity
  8
LIVELLO_1
 62
     7
100
AcDbSpline
210
0.0
220
0.0
230
1.0
 70
     8
 71
     3
 72
     8
 73
     4
 74
     0
 42
0.00000001
 43
0.00000001
 40
0.0
 40
0.0
 40
0.0
 40
0.0
 40
1.0
 40
1.0
 40
1.0
 40
1.0
 10
-26.568576388888886
 20
9.1931511773003471
 30
0.0
 10
-26.675029839409721
 20
9.1931511773003471
 30
0.0
 10
-26.769080946180551
 20
9.1249382866753468
 30
0.0
 10
-26.789407009548608
 20
9.0212409125434014
 30
0.0
  0
SPLINE
  5
105
100
AcDbEntity
  8
LIVELLO_1
 62
     7
100
AcDbSpline
210
0.0
220
0.0
230
1.0
 70
     8
 71
     3
 72
     8
 73
     4
 74
     0
 42
0.00000001
 43
0.00000001
 40
0.0
 40
0.0
 40
0.0
 40
0.0
 40
1.0
 40
1.0
 40
1.0
 40
1.0
 10
-26.824891493055553
 20
8.4152486165364575
 30
0.0
 10
-26.878290473090274
 20
8.4152486165364575
 30
0.0
 10
-26.928588867187496
 20
8.3745964898003464
 30
0.0
 10
-26.939613172743051
 20
8.3225755479600689
 30
0.0
  0
SPLINE
  5
104
100
AcDbEntity
  8
LIVELLO_1
 62
     7
100
AcDbSpline
210
0.0
220
0.0
230
1.0
 70
     8
 71
     3
 72
     8
 73
     4
 74
     0
 42
0.00000001
 43
0.00000001
 40
0.0
 40
0.0
 40
0.0
 40
0.0
 40
1.0
 40
1.0
 40
1.0
 40
1.0
 10
-78.156641981336804
 20
8.3225755479600689
 30
0.0
 10
-78.167494032118043
 20
8.3745964898003464
 30
0.0
 10
-78.21520860460069
 20
8.4152486165364575
 30
0.0
 10
-78.271191406249997
 20
8.4152486165364575
 30
0.0
  0
SPLINE
  5
103
100
AcDbEntity
  8
LIVELLO_1
 62
     7
100
AcDbSpline
210
0.0
220
0.0
230
1.0
 70
     8
 71
     3
 72
     8
 73
     4
 74
     0
 42
0.00000001
 43
0.00000001
 40
0.0
 40
0.0
 40
0.0
 40
0.0
 40
1.0
 40
1.0
 40
1.0
 40
1.0
 10
-78.306675889756931
 20
9.0212409125434014
 30
0.0
 10
-78.327174207899304
 20
9.1249382866753468
 30
0.0
 10
-78.421225314670139
 20
9.1931511773003471
 30
0.0
 10
-78.52767876519097
 20
9.1931511773003471
 30
0.0
  0
SPLINE
  5
102
100
AcDbEntity
  8
LIVELLO_1
 62
     7
100
AcDbSpline
210
0.0
220
0.0
230
1.0
 70
     8
 71
     3
 72
     8
 73
     4
 74
     0
 42
0.00000001
 43
0.00000001
 40
0.0
 40
0.0
 40
0.0
 40
0.0
 40
1.0
 40
1.0
 40
1.0
 40
1.0
 10
-80.006830512152774
 20
9.2968485514322907
 30
0.0
 10
-80.001318359374991
 20
9.2448276095920132
 30
0.0
 10
-79.953603786892359
 20
9.1931511773003471
 30
0.0
 10
-79.892108832465269
 20
9.1931511773003471
 30
0.0
  0
SPLINE
  5
101
100
AcDbEntity
  8
LIVELLO_1
 62
     7
100
AcDbSpline
210
0.0
220
0.0
230
1.0
 70
     8
 71
     3
 72
     8
 73
     4
 74
     0
 42
0.00000001
 43
0.00000001
 40
0.0
 40
0.0
 40
0.0
 40
0.0
 40
1.0
 40
1.0
 40
1.0
 40
1.0
 10
-79.935861545138877
 20
8.5110222710503471
 30
0.0
 10
-79.930349392361109
 20
8.4590013292100679
 30
0.0
 10
-79.87987874348957
 20
8.4152486165364575
 30
0.0
 10
-79.8280300564236
 20
8.4152486165364575
 30
0.0
  0
SPLINE
  5
100
100
AcDbEntity
  8
LIVELLO_1
 62
     7
100
AcDbSpline
210
0.0
220
0.0
230
1.0
 70
     8
 71
     3
 72
     8
 73
     4
 74
     0
 42
0.00000001
 43
0.00000001
 40
0.0
 40
0.0
 40
0.0
 40
0.0
 40
1.0
 40
1.0
 40
1.0
 40
1.0
 10
-20.649213324652777
 20
9.9789774576822907
 30
0.0
 10
-21.252449544270831
 20
12.320608859592014
 30
0.0
 10
-22.993600802951388
 20
14.203353542751735
 30
0.0
 10
-25.280455186631944
 20
14.984012179904513
 30
0.0
  0
LINE
  5
FF
100
AcDbEntity
  8
LIVELLO_1
 62
     7
100
AcDbLine
 10
-42.292681
 20
38.346583
 30
0.0
 11
-62.803574
 21
38.346583
 31
0.0
  0
LINE
  5
FE
100
AcDbEntity
  8
LIVELLO_1
 62
     7
100
AcDbLine
 10
-42.423767
 20
39.140677
 30
0.0
 11
-62.672488
 21
39.140677
 31
0.0
  0
LINE
  5
FD
100
AcDbEntity
  8
LIVELLO_1
 62
     7
100
AcDbLine
 10
-48.591177
 20
46.825307
 30
0.0
 11
-52.548041
 21
46.825307
 31
0.0
  0
LINE
  5
FC
100
AcDbEntity
  8
LIVELLO_1
 62
     7
100
AcDbLine
 10
-36.695607
 20
29.030011
 30
0.0
 11
-37.648003
 21
34.441222
 31
0.0
  0
LINE
  5
FB
100
AcDbEntity
  8
LIVELLO_1
 62
     7
100
AcDbLine
 10
-46.492597
 20
44.014454
 30
0.0
 11
-46.708088
 21
45.245386
 31
0.0
  0
LINE
  5
FA
100
AcDbEntity
  8
LIVELLO_1
 62
     7
100
AcDbLine
 10
-42.281829
 20
38.346583
 30
0.0
 11
-42.423767
 21
39.140677
 31
0.0
  0
LINE
  5
F9
100
AcDbEntity
  8
LIVELLO_1
 62
     7
100
AcDbLine
 10
-56.505078
 20
46.825307
 30
0.0
 11
-52.548041
 21
46.825307
 31
0.0
  0
LINE
  5
F8
100
AcDbEntity
  8
LIVELLO_1
 62
     7
100
AcDbLine
 10
-84.44687
 20
9.978977
 30
0.0
 11
-20.649213
 21
9.978977
 31
0.0
  0
SPLINE
  5
F7
100
AcDbEntity
  8
LIVELLO_1
 62
     7
100
AcDbSpline
210
0.0
220
0.0
230
1.0
 70
     8
 71
     3
 72
     8
 73
     4
 74
     0
 42
0.00000001
 43
0.00000001
 40
0.0
 40
0.0
 40
0.0
 40
0.0
 40
1.0
 40
1.0
 40
1.0
 40
1.0
 10
-37.648003472222221
 20
34.441222466362845
 30
0.0
 10
-38.045050726996521
 20
36.695348442925344
 30
0.0
 10
-40.007204861111106
 20
38.346582709418399
 30
0.0
 10
-42.292681206597216
 20
38.346582709418399
 30
0.0
  0
SPLINE
  5
F6
100
AcDbEntity
  8
LIVELLO_1
 62
     7
100
AcDbSpline
210
0.0
220
0.0
230
1.0
 70
     8
 71
     3
 72
     8
 73
     4
 74
     0
 42
0.00000001
 43
0.00000001
 40
0.0
 40
0.0
 40
0.0
 40
0.0
 40
1.0
 40
1.0
 40
1.0
 40
1.0
 10
-46.49259711371527
 20
44.014453803168401
 30
0.0
 10
-46.098133680555549
 20
41.782376437717012
 30
0.0
 10
-44.550941297743051
 20
39.926503499348954
 30
0.0
 10
-42.423767089843743
 20
39.140677218967014
 30
0.0
  0
SPLINE
  5
F5
100
AcDbEntity
  8
LIVELLO_1
 62
     7
100
AcDbSpline
210
0.0
220
0.0
230
1.0
 70
     8
 71
     3
 72
     8
 73
     4
 74
     0
 42
0.00000001
 43
0.00000001
 40
0.0
 40
0.0
 40
0.0
 40
0.0
 40
1.0
 40
1.0
 40
1.0
 40
1.0
 10
-46.708087836371526
 20
45.245386420355899
 30
0.0
 10
-46.87190212673611
 20
46.162126329210068
 30
0.0
 10
-47.663240559895826
 20
46.825307210286454
 30
0.0
 10
-48.591177029079859
 20
46.825307210286454
 30
0.0
  0
LINE
  5
F4
100
AcDbEntity
  8
LIVELLO_1
 62
     7
100
AcDbLine
 10
-47.825677
 20
46.825307
 30
0.0
 11
-52.548041
 21
46.825307
 31
0.0
  0
POLYLINE
  5
EF
100
AcDbEntity
  8
LIVELLO_1
 62
     7
100
AcDb2dPolyline
 66
     1
 10
0.0
 20
0.0
 30
0.0
  0
VERTEX
  5
F0
100
AcDbEntity
  8
LIVELLO_1
 62
     7
100
AcDbVertex
100
AcDb2dVertex
 10
-57.460231
 20
46.724366
 30
0.0
  0
VERTEX
  5
F1
100
AcDbEntity
  8
LIVELLO_1
 62
     7
100
AcDbVertex
100
AcDb2dVertex
 10
-52.548041
 20
46.724366
 30
0.0
  0
VERTEX
  5
F2
100
AcDbEntity
  8
LIVELLO_1
 62
     7
100
AcDbVertex
100
AcDb2dVertex
 10
-47.636024
 20
46.724366
 30
0.0
  0
SEQEND
  5
F3
100
AcDbEntity
  8
LIVELLO_1
 62
     7
  0
POLYLINE
  5
EA
100
AcDbEntity
  8
LIVELLO_1
 62
     7
100
AcDb2dPolyline
 66
     1
 10
0.0
 20
0.0
 30
0.0
  0
VERTEX
  5
EB
100
AcDbEntity
  8
LIVELLO_1
 62
     7
100
AcDbVertex
100
AcDb2dVertex
 10
-56.320938
 20
46.825307
 30
0.0
  0
VERTEX
  5
EC
100
AcDbEntity
  8
LIVELLO_1
 62
     7
100
AcDbVertex
100
AcDb2dVertex
 10
-52.548041
 20
46.825307
 30
0.0
  0
VERTEX
  5
ED
100
AcDbEntity
  8
LIVELLO_1
 62
     7
100
AcDbVertex
100
AcDb2dVertex
 10
-57.267822
 20
46.825307
 30
0.0
  0
SEQEND
  5
EE
100
AcDbEntity
  8
LIVELLO_1
 62
     7
  0
LINE
  5
E9
100
AcDbEntity
  8
LIVELLO_1
 62
     7
100
AcDbLine
 10
-52.548041
 20
46.825307
 30
0.0
 11
-48.78083
 21
46.825307
 31
0.0
  0
SPLINE
  5
E8
100
AcDbEntity
  8
LIVELLO_1
 62
     7
100
AcDbSpline
210
0.0
220
0.0
230
1.0
 70
     8
 71
     3
 72
     8
 73
     4
 74
     0
 42
0.00000001
 43
0.00000001
 40
0.0
 40
0.0
 40
0.0
 40
0.0
 40
1.0
 40
1.0
 40
1.0
 40
1.0
 10
-47.636024305555551
 20
46.724365912543398
 30
0.0
 10
-47.679604763454854
 20
46.787066650390621
 30
0.0
 10
-47.750573730468744
 20
46.825307210286454
 30
0.0
 10
-47.825676812065964
 20
46.825307210286454
 30
0.0
  0
SPLINE
  5
E7
100
AcDbEntity
  8
LIVELLO_1
 62
     7
100
AcDbSpline
210
0.0
220
0.0
230
1.0
 70
     8
 71
     3
 72
     8
 73
     4
 74
     0
 42
0.00000001
 43
0.00000001
 40
0.0
 40
0.0
 40
0.0
 40
0.0
 40
1.0
 40
1.0
 40
1.0
 40
1.0
 10
-57.267822265624993
 20
46.825307210286454
 30
0.0
 10
-57.345681423611104
 20
46.825307210286454
 30
0.0
 10
-57.416478135850689
 20
46.787066650390621
 30
0.0
 10
-57.460230848524297
 20
46.724365912543398
 30
0.0
  0
LINE
  5
E6
100
AcDbEntity
  8
LIVELLO_1
 62
     7
100
AcDbLine
 10
-119.363774
 20
51.84929
 30
0.0
 11
-106.592288
 21
51.84929
 31
0.0
  0
LINE
  5
E5
100
AcDbEntity
  8
LIVELLO_1
 62
     7
100
AcDbLine
 10
-103.397995
 20
51.84929
 30
0.0
 11
-54.145877
 21
51.84929
 31
0.0
  0
LINE
  5
E4
100
AcDbEntity
  8
LIVELLO_1
 62
     7
100
AcDbLine
 10
-120.956097
 20
55.724506
 30
0.0
 11
-120.956097
 21
47.965978
 31
0.0
  0
LINE
  5
E3
100
AcDbEntity
  8
LIVELLO_1
 62
     7
100
AcDbLine
 10
-50.955718
 20
51.84929
 30
0.0
 11
-34.309189
 21
51.84929
 31
0.0
  0
LINE
  5
E2
100
AcDbEntity
  8
LIVELLO_1
 62
     7
100
AcDbLine
 10
-104.200358
 20
59.910641
 30
0.0
 11
-104.200358
 21
47.158103
 31
0.0
  0
LINE
  5
E1
100
AcDbEntity
  8
LIVELLO_1
 62
     7
100
AcDbLine
 10
-50.955718
 20
52.998229
 30
0.0
 11
-51.751191
 21
52.998229
 31
0.0
  0
LINE
  5
E0
100
AcDbEntity
  8
LIVELLO_1
 62
     7
100
AcDbLine
 10
-53.344892
 20
52.998229
 30
0.0
 11
-54.145877
 21
52.998229
 31
0.0
  0
LINE
  5
DF
100
AcDbEntity
  8
LIVELLO_1
 62
     7
100
AcDbLine
 10
-103.397995
 20
53.96699
 30
0.0
 11
-104.200358
 21
53.96699
 31
0.0
  0
LINE
  5
DE
100
AcDbEntity
  8
LIVELLO_1
 62
     7
100
AcDbLine
 10
-105.796815
 20
53.96699
 30
0.0
 11
-106.592288
 21
53.96699
 31
0.0
  0
LINE
  5
DD
100
AcDbEntity
  8
LIVELLO_1
 62
     7
100
AcDbLine
 10
-51.40737
 20
58.175002
 30
0.0
 11
-51.751191
 21
58.175002
 31
0.0
  0
LINE
  5
DC
100
AcDbEntity
  8
LIVELLO_1
 62
     7
100
AcDbLine
 10
-53.344892
 20
58.175002
 30
0.0
 11
-53.688713
 21
58.175002
 31
0.0
  0
LINE
  5
DB
100
AcDbEntity
  8
LIVELLO_1
 62
     7
100
AcDbLine
 10
-116.906387
 20
73.607307
 30
0.0
 11
-120.956097
 21
73.607307
 31
0.0
  0
LINE
  5
DA
100
AcDbEntity
  8
LIVELLO_1
 62
     7
100
AcDbLine
 10
-116.286787
 20
72.807701
 30
0.0
 11
-120.956097
 21
72.807701
 31
0.0
  0
LINE
  5
D9
100
AcDbEntity
  8
LIVELLO_1
 62
     7
100
AcDbLine
 10
-116.286787
 20
71.213999
 30
0.0
 11
-120.956097
 21
71.213999
 31
0.0
  0
LINE
  5
D8
100
AcDbEntity
  8
LIVELLO_1
 62
     7
100
AcDbLine
 10
-116.906387
 20
70.414393
 30
0.0
 11
-120.956097
 21
70.414393
 31
0.0
  0
LINE
  5
D7
100
AcDbEntity
  8
LIVELLO_1
 62
     7
100
AcDbLine
 10
-116.449223
 20
70.867423
 30
0.0
 11
-116.449223
 21
71.213999
 31
0.0
  0
LINE
  5
D6
100
AcDbEntity
  8
LIVELLO_1
 62
     7
100
AcDbLine
 10
-116.449223
 20
72.807701
 30
0.0
 11
-116.449223
 21
73.151521
 31
0.0
  0
LINE
  5
D5
100
AcDbEntity
  8
LIVELLO_1
 62
     7
100
AcDbLine
 10
-120.956097
 20
73.607307
 30
0.0
 11
-120.956097
 21
70.414393
 31
0.0
  0
LINE
  5
D4
100
AcDbEntity
  8
LIVELLO_1
 62
     7
100
AcDbLine
 10
-41.60504
 20
54.024351
 30
0.0
 11
-41.60504
 21
49.666133
 31
0.0
  0
LINE
  5
D3
100
AcDbEntity
  8
LIVELLO_1
 62
     7
100
AcDbLine
 10
-37.613897
 20
49.936228
 30
0.0
 11
-34.309189
 21
51.84929
 31
0.0
  0
LINE
  5
D2
100
AcDbEntity
  8
LIVELLO_1
 62
     7
100
AcDbLine
 10
-37.613897
 20
53.751499
 30
0.0
 11
-34.309189
 21
51.84929
 31
0.0
  0
LINE
  5
D1
100
AcDbEntity
  8
LIVELLO_1
 62
     7
100
AcDbLine
 10
-37.952378
 20
53.554957
 30
0.0
 11
-37.952378
 21
50.135699
 31
0.0
  0
LINE
  5
D0
100
AcDbEntity
  8
LIVELLO_1
 62
     7
100
AcDbLine
 10
-103.856538
 20
60.003486
 30
0.0
 11
-104.200358
 21
60.003486
 31
0.0
  0
LINE
  5
CF
100
AcDbEntity
  8
LIVELLO_1
 62
     7
100
AcDbLine
 10
-105.796815
 20
60.003486
 30
0.0
 11
-106.140636
 21
60.003486
 31
0.0
  0
LINE
  5
CE
100
AcDbEntity
  8
LIVELLO_1
 62
     7
100
AcDbLine
 10
-103.856538
 20
47.330358
 30
0.0
 11
-104.200358
 21
47.330358
 31
0.0
  0
LINE
  5
CD
100
AcDbEntity
  8
LIVELLO_1
 62
     7
100
AcDbLine
 10
-105.796815
 20
47.330358
 30
0.0
 11
-106.140636
 21
47.330358
 31
0.0
  0
LINE
  5
CC
100
AcDbEntity
  8
LIVELLO_1
 62
     7
100
AcDbLine
 10
-103.397995
 20
59.544944
 30
0.0
 11
-103.397995
 21
47.788556
 31
0.0
  0
LINE
  5
CB
100
AcDbEntity
  8
LIVELLO_1
 62
     7
100
AcDbLine
 10
-105.796815
 20
59.910641
 30
0.0
 11
-105.796815
 21
47.158103
 31
0.0
  0
LINE
  5
CA
100
AcDbEntity
  8
LIVELLO_1
 62
     7
100
AcDbLine
 10
-106.592288
 20
59.544944
 30
0.0
 11
-106.592288
 21
47.788556
 31
0.0
  0
LINE
  5
C9
100
AcDbEntity
  8
LIVELLO_1
 62
     7
100
AcDbLine
 10
-119.363774
 20
55.724506
 30
0.0
 11
-119.363774
 21
47.965978
 31
0.0
  0
LINE
  5
C8
100
AcDbEntity
  8
LIVELLO_1
 62
     7
100
AcDbLine
 10
-120.273796
 20
55.724506
 30
0.0
 11
-120.273796
 21
47.965978
 31
0.0
  0
LINE
  5
C7
100
AcDbEntity
  8
LIVELLO_1
 62
     7
100
AcDbLine
 10
-51.751191
 20
58.341572
 30
0.0
 11
-51.751191
 21
48.195422
 31
0.0
  0
LINE
  5
C6
100
AcDbEntity
  8
LIVELLO_1
 62
     7
100
AcDbLine
 10
-50.955718
 20
57.719388
 30
0.0
 11
-50.955718
 21
48.195422
 31
0.0
  0
LINE
  5
C5
100
AcDbEntity
  8
LIVELLO_1
 62
     7
100
AcDbLine
 10
-55.29206
 20
49.603432
 30
0.0
 11
-54.145877
 21
49.633405
 31
0.0
  0
LINE
  5
C4
100
AcDbEntity
  8
LIVELLO_1
 62
     7
100
AcDbLine
 10
-50.955718
 20
49.696105
 30
0.0
 11
-49.817803
 21
49.718154
 31
0.0
  0
LINE
  5
C3
100
AcDbEntity
  8
LIVELLO_1
 62
     7
100
AcDbLine
 10
-54.145877
 20
57.719388
 30
0.0
 11
-54.145877
 21
48.195422
 31
0.0
  0
LINE
  5
C2
100
AcDbEntity
  8
LIVELLO_1
 62
     7
100
AcDbLine
 10
-53.344892
 20
58.341572
 30
0.0
 11
-53.344892
 21
48.195422
 31
0.0
  0
LINE
  5
C1
100
AcDbEntity
  8
LIVELLO_1
 62
     7
100
AcDbLine
 10
-50.268077
 20
49.265124
 30
0.0
 11
-50.268077
 21
48.653619
 31
0.0
  0
LINE
  5
C0
100
AcDbEntity
  8
LIVELLO_1
 62
     7
100
AcDbLine
 10
-54.828178
 20
49.150402
 30
0.0
 11
-54.828178
 21
48.653619
 31
0.0
  0
LINE
  5
BF
100
AcDbEntity
  8
LIVELLO_1
 62
     7
100
AcDbLine
 10
-55.262088
 20
48.195422
 30
0.0
 11
-49.780941
 21
48.195422
 31
0.0
  0
LINE
  5
BE
100
AcDbEntity
  8
LIVELLO_1
 62
     7
100
AcDbLine
 10
-55.510307
 20
46.825307
 30
0.0
 11
-49.58302
 21
46.825307
 31
0.0
  0
LINE
  5
BD
100
AcDbEntity
  8
LIVELLO_1
 62
     7
100
AcDbLine
 10
-114.570268
 20
55.552595
 30
0.0
 11
-106.592288
 21
55.388781
 31
0.0
  0
LINE
  5
BC
100
AcDbEntity
  8
LIVELLO_1
 62
     7
100
AcDbLine
 10
-103.397995
 20
55.317812
 30
0.0
 11
-54.145877
 21
54.289107
 31
0.0
  0
LINE
  5
BB
100
AcDbEntity
  8
LIVELLO_1
 62
     7
100
AcDbLine
 10
-50.955718
 20
54.220894
 30
0.0
 11
-41.60504
 21
54.024351
 31
0.0
  0
LINE
  5
BA
100
AcDbEntity
  8
LIVELLO_1
 62
     7
100
AcDbLine
 10
-114.570268
 20
55.724506
 30
0.0
 11
-114.570268
 21
47.965978
 31
0.0
  0
LINE
  5
B9
100
AcDbEntity
  8
LIVELLO_1
 62
     7
100
AcDbLine
 10
-114.570268
 20
48.137889
 30
0.0
 11
-106.592288
 21
48.304287
 31
0.0
  0
LINE
  5
B8
100
AcDbEntity
  8
LIVELLO_1
 62
     7
100
AcDbLine
 10
-103.397995
 20
48.3725
 30
0.0
 11
-54.895013
 21
49.385013
 31
0.0
  0
LINE
  5
B7
100
AcDbEntity
  8
LIVELLO_1
 62
     7
100
AcDbLine
 10
-50.212094
 20
49.483198
 30
0.0
 11
-41.60504
 21
49.666133
 31
0.0
  0
LINE
  5
B6
100
AcDbEntity
  8
LIVELLO_1
 62
     7
100
AcDbLine
 10
-120.956097
 20
55.724506
 30
0.0
 11
-114.570268
 21
55.724506
 31
0.0
  0
LINE
  5
B5
100
AcDbEntity
  8
LIVELLO_1
 62
     7
100
AcDbLine
 10
-120.956097
 20
47.965978
 30
0.0
 11
-114.570268
 21
47.965978
 31
0.0
  0
SPLINE
  5
B4
100
AcDbEntity
  8
LIVELLO_1
 62
     7
100
AcDbSpline
210
0.0
220
0.0
230
1.0
 70
     8
 71
     3
 72
    11
 73
     7
 74
     0
 42
0.00000001
 43
0.00000001
 40
0.0
 40
0.0
 40
0.0
 40
0.0
 40
1.0
 40
1.0
 40
1.0
 40
2.0
 40
2.0
 40
2.0
 40
2.0
 10
-104.20035807291666
 20
59.910641140407982
 30
0.0
 10
-104.20035807291666
 20
60.352819146050344
 30
0.0
 10
-104.5550306532118
 20
60.707491726345481
 30
0.0
 10
-104.99720865885416
 20
60.707491726345481
 30
0.0
 10
-105.43525254991319
 20
60.707491726345481
 30
0.0
 10
-105.79681532118055
 20
60.352819146050344
 30
0.0
 10
-105.79681532118055
 20
59.910641140407982
 30
0.0
  0
SPLINE
  5
B3
100
AcDbEntity
  8
LIVELLO_1
 62
     7
100
AcDbSpline
210
0.0
220
0.0
230
1.0
 70
     8
 71
     3
 72
    11
 73
     7
 74
     0
 42
0.00000001
 43
0.00000001
 40
0.0
 40
0.0
 40
0.0
 40
0.0
 40
1.0
 40
1.0
 40
1.0
 40
2.0
 40
2.0
 40
2.0
 40
2.0
 10
-51.751190863715273
 20
52.998229302300345
 30
0.0
 10
-52.084159342447911
 20
53.440235053168401
 30
0.0
 10
-52.713233778211801
 20
53.527740478515618
 30
0.0
 10
-53.153861490885411
 20
53.194771999782979
 30
0.0
 10
-53.224830457899301
 20
53.142923312717009
 30
0.0
 10
-53.291665310329854
 20
53.069198269314228
 30
0.0
 10
-53.34489203559027
 20
52.998229302300345
 30
0.0
  0
SPLINE
  5
B2
100
AcDbEntity
  8
LIVELLO_1
 62
     7
100
AcDbSpline
210
0.0
220
0.0
230
1.0
 70
     8
 71
     3
 72
    11
 73
     7
 74
     0
 42
0.00000001
 43
0.00000001
 40
0.0
 40
0.0
 40
0.0
 40
0.0
 40
1.0
 40
1.0
 40
1.0
 40
2.0
 40
2.0
 40
2.0
 40
2.0
 10
-104.20035807291666
 20
53.966990152994789
 30
0.0
 10
-104.5333265516493
 20
54.409168158637151
 30
0.0
 10
-105.16222873263888
 20
54.493745252821178
 30
0.0
 10
-105.59751654730901
 20
54.160776774088539
 30
0.0
 10
-105.67675374348957
 20
54.106172010633678
 30
0.0
 10
-105.74083251953124
 20
54.040715196397564
 30
0.0
 10
-105.79681532118055
 20
53.966990152994789
 30
0.0
  0
SPLINE
  5
B1
100
AcDbEntity
  8
LIVELLO_1
 62
     7
100
AcDbSpline
210
0.0
220
0.0
230
1.0
 70
     8
 71
     3
 72
    11
 73
     7
 74
     0
 42
0.00000001
 43
0.00000001
 40
0.0
 40
0.0
 40
0.0
 40
0.0
 40
1.0
 40
1.0
 40
1.0
 40
2.0
 40
2.0
 40
2.0
 40
2.0
 10
-51.751190863715273
 20
58.341572401258674
 30
0.0
 10
-51.751190863715273
 20
58.783578152126729
 30
0.0
 10
-52.106035698784716
 20
59.143762885199649
 30
0.0
 10
-52.548041449652771
 20
59.143762885199649
 30
0.0
 10
-52.990219455295133
 20
59.143762885199649
 30
0.0
 10
-53.34489203559027
 20
58.783578152126729
 30
0.0
 10
-53.34489203559027
 20
58.341572401258674
 30
0.0
  0
SPLINE
  5
B0
100
AcDbEntity
  8
LIVELLO_1
 62
     7
100
AcDbSpline
210
0.0
220
0.0
230
1.0
 70
     8
 71
     3
 72
     8
 73
     4
 74
     0
 42
0.00000001
 43
0.00000001
 40
0.0
 40
0.0
 40
0.0
 40
0.0
 40
1.0
 40
1.0
 40
1.0
 40
1.0
 10
-50.95571831597222
 20
57.719388156467012
 30
0.0
 10
-50.95571831597222
 20
57.970363362630202
 30
0.0
 10
-51.156395128038191
 20
58.175002034505205
 30
0.0
 10
-51.407370334201381
 20
58.175002034505205
 30
0.0
  0
SPLINE
  5
AF
100
AcDbEntity
  8
LIVELLO_1
 62
     7
100
AcDbSpline
210
0.0
220
0.0
230
1.0
 70
     8
 71
     3
 72
     8
 73
     4
 74
     0
 42
0.00000001
 43
0.00000001
 40
0.0
 40
0.0
 40
0.0
 40
0.0
 40
1.0
 40
1.0
 40
1.0
 40
1.0
 10
-53.688712565104161
 20
58.175002034505205
 30
0.0
 10
-53.939860026041664
 20
58.175002034505205
 30
0.0
 10
-54.145876736111106
 20
57.970363362630202
 30
0.0
 10
-54.145876736111106
 20
57.719388156467012
 30
0.0
  0
SPLINE
  5
AE
100
AcDbEntity
  8
LIVELLO_1
 62
     7
100
AcDbSpline
210
0.0
220
0.0
230
1.0
 70
     8
 71
     3
 72
    11
 73
     7
 74
     0
 42
0.00000001
 43
0.00000001
 40
0.0
 40
0.0
 40
0.0
 40
0.0
 40
1.0
 40
1.0
 40
1.0
 40
2.0
 40
2.0
 40
2.0
 40
2.0
 10
-116.28678656684026
 20
71.213999430338532
 30
0.0
 10
-115.84202473958332
 20
71.213999430338532
 30
0.0
 10
-115.48717990451388
 20
71.566088189019084
 30
0.0
 10
-115.48717990451388
 20
72.010850016276038
 30
0.0
 10
-115.48717990451388
 20
72.452855767144086
 30
0.0
 10
-115.84202473958332
 20
72.807700602213529
 30
0.0
 10
-116.28678656684026
 20
72.807700602213529
 30
0.0
  0
SPLINE
  5
AD
100
AcDbEntity
  8
LIVELLO_1
 62
     7
100
AcDbSpline
210
0.0
220
0.0
230
1.0
 70
     8
 71
     3
 72
     8
 73
     4
 74
     0
 42
0.00000001
 43
0.00000001
 40
0.0
 40
0.0
 40
0.0
 40
0.0
 40
1.0
 40
1.0
 40
1.0
 40
1.0
 10
-116.90638699001735
 20
70.414392768012149
 30
0.0
 10
-116.65523952907985
 20
70.414392768012149
 30
0.0
 10
-116.4492228190104
 20
70.619031439887152
 30
0.0
 10
-116.4492228190104
 20
70.867422824435764
 30
0.0
  0
SPLINE
  5
AC
100
AcDbEntity
  8
LIVELLO_1
 62
     7
100
AcDbSpline
210
0.0
220
0.0
230
1.0
 70
     8
 71
     3
 72
     8
 73
     4
 74
     0
 42
0.00000001
 43
0.00000001
 40
0.0
 40
0.0
 40
0.0
 40
0.0
 40
1.0
 40
1.0
 40
1.0
 40
1.0
 10
-116.4492228190104
 20
73.151521131727421
 30
0.0
 10
-116.4492228190104
 20
73.402668592664924
 30
0.0
 10
-116.65523952907985
 20
73.607307264539926
 30
0.0
 10
-116.90638699001735
 20
73.607307264539926
 30
0.0
  0
SPLINE
  5
AB
100
AcDbEntity
  8
LIVELLO_1
 62
     7
100
AcDbSpline
210
0.0
220
0.0
230
1.0
 70
     8
 71
     3
 72
    11
 73
     7
 74
     0
 42
0.00000001
 43
0.00000001
 40
0.0
 40
0.0
 40
0.0
 40
0.0
 40
1.0
 40
1.0
 40
1.0
 40
2.0
 40
2.0
 40
2.0
 40
2.0
 10
-100.39214952256944
 20
56.155659315321174
 30
0.0
 10
-100.63761257595485
 20
56.092786322699645
 30
0.0
 10
-100.78644070095486
 20
55.847323269314231
 30
0.0
 10
-100.73045789930555
 20
55.604444037543395
 30
0.0
 10
-100.6827433268229
 20
55.399633110894094
 30
0.0
 10
-100.50118679470485
 20
55.260623508029511
 30
0.0
 10
-100.29379204644097
 20
55.255111355251728
 30
0.0
  0
SPLINE
  5
AA
100
AcDbEntity
  8
LIVELLO_1
 62
     7
100
AcDbSpline
210
0.0
220
0.0
230
1.0
 70
     8
 71
     3
 72
    11
 73
     7
 74
     0
 42
0.00000001
 43
0.00000001
 40
0.0
 40
0.0
 40
0.0
 40
0.0
 40
1.0
 40
1.0
 40
1.0
 40
2.0
 40
2.0
 40
2.0
 40
2.0
 10
-103.39799533420138
 20
56.010965304904509
 30
0.0
 10
-97.443492296006937
 20
55.759990098741312
 30
0.0
 10
-92.41399739583332
 20
60.385547553168401
 30
0.0
 10
-92.156131998697902
 20
66.342806667751731
 30
0.0
 10
-92.014194064670136
 20
69.696607123480902
 30
0.0
 10
-93.444080946180549
 20
72.927762179904505
 30
0.0
 10
-96.016189236111103
 20
75.075434705946179
 30
0.0
  0
SPLINE
  5
A9
100
AcDbEntity
  8
LIVELLO_1
 62
     7
100
AcDbSpline
210
0.0
220
0.0
230
1.0
 70
     8
 71
     3
 72
     8
 73
     4
 74
     0
 42
0.00000001
 43
0.00000001
 40
0.0
 40
0.0
 40
0.0
 40
0.0
 40
1.0
 40
1.0
 40
1.0
 40
1.0
 10
-96.016189236111103
 20
75.075434705946179
 30
0.0
 10
-98.869245062934013
 20
77.468742540147559
 30
0.0
 10
-102.96270751953124
 20
77.657017008463541
 30
0.0
 10
-106.03142632378471
 20
75.550341118706584
 30
0.0
  0
SPLINE
  5
A8
100
AcDbEntity
  8
LIVELLO_1
 62
     7
100
AcDbSpline
210
0.0
220
0.0
230
1.0
 70
     8
 71
     3
 72
    11
 73
     7
 74
     0
 42
0.00000001
 43
0.00000001
 40
0.0
 40
0.0
 40
0.0
 40
0.0
 40
1.0
 40
1.0
 40
1.0
 40
2.0
 40
2.0
 40
2.0
 40
2.0
 10
-106.03142632378471
 20
75.550341118706584
 30
0.0
 10
-108.55702582465277
 20
73.814702012803806
 30
0.0
 10
-109.19436848958333
 20
70.362544080946179
 30
0.0
 10
-107.45872938368055
 20
67.835566541883679
 30
0.0
 10
-106.54853515625
 20
66.506620958116315
 30
0.0
 10
-105.11175808376736
 20
65.644141303168396
 30
0.0
 10
-103.51254475911458
 20
65.466891140407981
 30
0.0
  0
SPLINE
  5
A7
100
AcDbEntity
  8
LIVELLO_1
 62
     7
100
AcDbSpline
210
0.0
220
0.0
230
1.0
 70
     8
 71
     3
 72
    14
 73
    10
 74
     0
 42
0.00000001
 43
0.00000001
 40
0.0
 40
0.0
 40
0.0
 40
0.0
 40
1.0
 40
1.0
 40
1.0
 40
2.0
 40
2.0
 40
2.0
 40
3.0
 40
3.0
 40
3.0
 40
3.0
 10
-103.51254475911458
 20
65.466891140407981
 30
0.0
 10
-102.40598008897568
 20
65.333049180772562
 30
0.0
 10
-101.40586886935763
 20
66.129899766710068
 30
0.0
 10
-101.28029513888887
 20
67.240598551432285
 30
0.0
 10
-101.15489366319443
 20
68.340445285373264
 30
0.0
 10
-101.95432807074651
 20
69.341934543185758
 30
0.0
 10
-103.05555284288194
 20
69.470264350043394
 30
0.0
 10
-103.47172037760416
 20
69.513844807942704
 30
0.0
 10
-103.89064398871527
 20
69.434779866536445
 30
0.0
 10
-104.25634087456596
 20
69.232725016276035
 30
0.0
  0
SPLINE
  5
A6
100
AcDbEntity
  8
LIVELLO_1
 62
     7
100
AcDbSpline
210
0.0
220
0.0
230
1.0
 70
     8
 71
     3
 72
    23
 73
    19
 74
     0
 42
0.00000001
 43
0.00000001
 40
0.0
 40
0.0
 40
0.0
 40
0.0
 40
1.0
 40
1.0
 40
1.0
 40
2.0
 40
2.0
 40
2.0
 40
3.0
 40
3.0
 40
3.0
 40
4.0
 40
4.0
 40
4.0
 40
5.0
 40
5.0
 40
5.0
 40
6.0
 40
6.0
 40
6.0
 40
6.0
 10
-103.41022542317707
 20
58.450609673394091
 30
0.0
 10
-98.79827609592013
 20
58.194122314453118
 30
0.0
 10
-94.853641764322902
 20
61.725345187717011
 30
0.0
 10
-94.595776367187497
 20
66.331954616970478
 30
0.0
 10
-94.453838433159717
 20
68.970725504557279
 30
0.0
 10
-95.55764702690972
 20
71.519579399956584
 30
0.0
 10
-97.58129611545138
 20
73.208881971571174
 30
0.0
 10
-99.595298936631934
 20
74.898012288411451
 30
0.0
 10
-102.48797336154513
 20
75.034438069661448
 30
0.0
 10
-104.64787597656249
 20
73.544434271918391
 30
0.0
 10
-105.87725830078124
 20
72.704003228081589
 30
0.0
 10
-106.33580050998263
 20
71.107545979817701
 30
0.0
 10
-105.74634467230902
 20
69.743115912543402
 30
0.0
 10
-105.51156141493054
 20
69.205508761935761
 30
0.0
 10
-104.88248697916666
 20
68.959873453776041
 30
0.0
 10
-104.34901394314235
 20
69.186388481987848
 30
0.0
 10
-104.31490749782985
 20
69.205508761935761
 30
0.0
 10
-104.28493516710068
 20
69.216360812717014
 30
0.0
 10
-104.25634087456596
 20
69.232725016276035
 30
0.0
  0
SPLINE
  5
A5
100
AcDbEntity
  8
LIVELLO_1
 62
     7
100
AcDbSpline
210
0.0
220
0.0
230
1.0
 70
     8
 71
     3
 72
     8
 73
     4
 74
     0
 42
0.00000001
 43
0.00000001
 40
0.0
 40
0.0
 40
0.0
 40
0.0
 40
1.0
 40
1.0
 40
1.0
 40
1.0
 10
-113.84989827473957
 20
62.230223931206595
 30
0.0
 10
-111.8849880642361
 20
60.270825873480895
 30
0.0
 10
-109.35387641059027
 20
58.982876925998255
 30
0.0
 10
-106.62088216145833
 20
58.548967149522561
 30
0.0
  0
SPLINE
  5
A4
100
AcDbEntity
  8
LIVELLO_1
 62
     7
100
AcDbSpline
210
0.0
220
0.0
230
1.0
 70
     8
 71
     3
 72
     8
 73
     4
 74
     0
 42
0.00000001
 43
0.00000001
 40
0.0
 40
0.0
 40
0.0
 40
0.0
 40
1.0
 40
1.0
 40
1.0
 40
1.0
 10
-113.84989827473957
 20
81.791476101345481
 30
0.0
 10
-116.05493164062499
 20
79.586442735460068
 30
0.0
 10
-117.45209011501736
 20
76.701864284939234
 30
0.0
 10
-117.8069349500868
 20
73.607307264539926
 30
0.0
  0
SPLINE
  5
A3
100
AcDbEntity
  8
LIVELLO_1
 62
     7
100
AcDbSpline
210
0.0
220
0.0
230
1.0
 70
     8
 71
     3
 72
     8
 73
     4
 74
     0
 42
0.00000001
 43
0.00000001
 40
0.0
 40
0.0
 40
0.0
 40
0.0
 40
1.0
 40
1.0
 40
1.0
 40
1.0
 10
-117.8069349500868
 20
70.414392768012149
 30
0.0
 10
-117.45209011501736
 20
67.314323594835059
 30
0.0
 10
-116.05493164062499
 20
64.435257297092008
 30
0.0
 10
-113.84989827473957
 20
62.230223931206595
 30
0.0
  0
SPLINE
  5
A2
100
AcDbEntity
  8
LIVELLO_1
 62
     7
100
AcDbSpline
210
0.0
220
0.0
230
1.0
 70
     8
 71
     3
 72
    14
 73
    10
 74
     0
 42
0.00000001
 43
0.00000001
 40
0.0
 40
0.0
 40
0.0
 40
0.0
 40
1.0
 40
1.0
 40
1.0
 40
2.0
 40
2.0
 40
2.0
 40
3.0
 40
3.0
 40
3.0
 40
3.0
 10
-63.698609754774303
 20
59.514971923828121
 30
0.0
 10
-72.229355197482633
 20
70.206998019748255
 30
0.0
 10
-83.12188585069444
 20
78.784079996744779
 30
0.0
 10
-95.518200683593747
 20
84.563916693793402
 30
0.0
 10
-97.891010199652769
 20
85.669275580512149
 30
0.0
 10
-100.47810465494791
 20
86.242367214626725
 30
0.0
 10
-103.09913330078125
 20
86.242367214626725
 30
0.0
 10
-107.13265109592012
 20
86.242367214626725
 30
0.0
 10
-111.00218234592013
 20
84.643153889973945
 30
0.0
 10
-113.84989827473957
 20
81.791476101345481
 30
0.0
  0
SPLINE
  5
A1
100
AcDbEntity
  8
LIVELLO_1
 62
     7
100
AcDbSpline
210
0.0
220
0.0
230
1.0
 70
     8
 71
     3
 72
     8
 73
     4
 74
     0
 42
0.00000001
 43
0.00000001
 40
0.0
 40
0.0
 40
0.0
 40
0.0
 40
1.0
 40
1.0
 40
1.0
 40
1.0
 10
-63.698609754774303
 20
59.514971923828121
 30
0.0
 10
-61.35577256944444
 20
56.573204888237839
 30
0.0
 10
-57.891384548611107
 20
54.744720458984368
 30
0.0
 10
-54.145876736111106
 20
54.461016845703121
 30
0.0
  0
SPLINE
  5
A0
100
AcDbEntity
  8
LIVELLO_1
 62
     7
100
AcDbSpline
210
0.0
220
0.0
230
1.0
 70
     8
 71
     3
 72
     8
 73
     4
 74
     0
 42
0.00000001
 43
0.00000001
 40
0.0
 40
0.0
 40
0.0
 40
0.0
 40
1.0
 40
1.0
 40
1.0
 40
1.0
 10
-50.95571831597222
 20
54.597442626953118
 30
0.0
 10
-48.9677259657118
 20
54.919386800130205
 30
0.0
 10
-47.079296874999997
 20
55.677996826171871
 30
0.0
 10
-45.425478786892356
 20
56.824180094401036
 30
0.0
  0
SPLINE
  5
9F
100
AcDbEntity
  8
LIVELLO_1
 62
     7
100
AcDbSpline
210
0.0
220
0.0
230
1.0
 70
     8
 71
     3
 72
    11
 73
     7
 74
     0
 42
0.00000001
 43
0.00000001
 40
0.0
 40
0.0
 40
0.0
 40
0.0
 40
1.0
 40
1.0
 40
1.0
 40
2.0
 40
2.0
 40
2.0
 40
2.0
 10
-45.425478786892356
 20
56.824180094401036
 30
0.0
 10
-41.554569498697916
 20
59.498607720269092
 30
0.0
 10
-40.591148546006941
 20
64.806466335720486
 30
0.0
 10
-43.265576171874997
 20
68.673413764105902
 30
0.0
 10
-45.327293565538191
 20
71.650665283203125
 30
0.0
 10
-49.049546983506943
 20
73.001487223307279
 30
0.0
 10
-52.537189398871526
 20
72.032726372612842
 30
0.0
  0
SPLINE
  5
9E
100
AcDbEntity
  8
LIVELLO_1
 62
     7
100
AcDbSpline
210
0.0
220
0.0
230
1.0
 70
     8
 71
     3
 72
     8
 73
     4
 74
     0
 42
0.00000001
 43
0.00000001
 40
0.0
 40
0.0
 40
0.0
 40
0.0
 40
1.0
 40
1.0
 40
1.0
 40
1.0
 10
-52.537189398871526
 20
72.032726372612842
 30
0.0
 10
-53.917983669704853
 20
71.656005181206595
 30
0.0
 10
-55.073813205295131
 20
70.706364610460056
 30
0.0
 10
-55.725969780815966
 20
69.434779866536445
 30
0.0
  0
SPLINE
  5
9D
100
AcDbEntity
  8
LIVELLO_1
 62
     7
100
AcDbSpline
210
0.0
220
0.0
230
1.0
 70
     8
 71
     3
 72
    11
 73
     7
 74
     0
 42
0.00000001
 43
0.00000001
 40
0.0
 40
0.0
 40
0.0
 40
0.0
 40
1.0
 40
1.0
 40
1.0
 40
2.0
 40
2.0
 40
2.0
 40
2.0
 10
-55.725969780815966
 20
69.434779866536445
 30
0.0
 10
-56.368652343749993
 20
68.157510715060752
 30
0.0
 10
-55.859639485677079
 20
66.599294026692704
 30
0.0
 10
-54.588054741753467
 20
65.957989501953122
 30
0.0
 10
-54.124000379774301
 20
65.723378499348954
 30
0.0
 10
-53.612403700086801
 20
65.627777099609375
 30
0.0
 10
-53.09805094401041
 20
65.693233913845475
 30
0.0
  0
SPLINE
  5
9C
100
AcDbEntity
  8
LIVELLO_1
 62
     7
100
AcDbSpline
210
0.0
220
0.0
230
1.0
 70
     8
 71
     3
 72
    11
 73
     7
 74
     0
 42
0.00000001
 43
0.00000001
 40
0.0
 40
0.0
 40
0.0
 40
0.0
 40
1.0
 40
1.0
 40
1.0
 40
2.0
 40
2.0
 40
2.0
 40
2.0
 10
-53.09805094401041
 20
65.693233913845475
 30
0.0
 10
-51.998204210069439
 20
65.832415771484364
 30
0.0
 10
-51.209621853298607
 20
66.834077284071171
 30
0.0
 10
-51.346047634548604
 20
67.944776068793402
 30
0.0
 10
-51.391006130642353
 20
68.277572292751728
 30
0.0
 10
-51.511067708333329
 20
68.591420491536454
 30
0.0
 10
-51.70761040581597
 20
68.867028130425339
 30
0.0
  0
SPLINE
  5
9B
100
AcDbEntity
  8
LIVELLO_1
 62
     7
100
AcDbSpline
210
0.0
220
0.0
230
1.0
 70
     8
 71
     3
 72
    17
 73
    13
 74
     0
 42
0.00000001
 43
0.00000001
 40
0.0
 40
0.0
 40
0.0
 40
0.0
 40
1.0
 40
1.0
 40
1.0
 40
2.0
 40
2.0
 40
2.0
 40
3.0
 40
3.0
 40
3.0
 40
4.0
 40
4.0
 40
4.0
 40
4.0
 10
-46.81040717230902
 20
58.830086941189229
 30
0.0
 10
-44.044684516059021
 20
60.737464057074646
 30
0.0
 10
-43.357043457031246
 20
64.525346544053818
 30
0.0
 10
-45.265970865885414
 20
67.287107340494785
 30
0.0
 10
-46.620754665798607
 20
69.238237169053818
 30
0.0
 10
-48.979956054687499
 20
70.223362223307291
 30
0.0
 10
-51.315903049045133
 20
69.816840955946176
 30
0.0
 10
-51.648871527777771
 20
69.759480116102424
 30
0.0
 10
-51.865912543402771
 20
69.445631917317698
 30
0.0
 10
-51.809929741753464
 20
69.112663438585059
 30
0.0
 10
-51.793565538194443
 20
69.022574191623264
 30
0.0
 10
-51.762215169270831
 20
68.940753173828114
 30
0.0
 10
-51.70761040581597
 20
68.867028130425339
 30
0.0
  0
SPLINE
  5
9A
100
AcDbEntity
  8
LIVELLO_1
 62
     7
100
AcDbSpline
210
0.0
220
0.0
230
1.0
 70
     8
 71
     3
 72
     8
 73
     4
 74
     0
 42
0.00000001
 43
0.00000001
 40
0.0
 40
0.0
 40
0.0
 40
0.0
 40
1.0
 40
1.0
 40
1.0
 40
1.0
 10
-61.79519449869791
 20
61.032191975911452
 30
0.0
 10
-59.910727267795131
 20
58.669028727213536
 30
0.0
 10
-57.147760687934024
 20
57.179024929470479
 30
0.0
 10
-54.145876736111106
 20
56.900661214192702
 30
0.0
  0
SPLINE
  5
99
100
AcDbEntity
  8
LIVELLO_1
 62
     7
100
AcDbSpline
210
0.0
220
0.0
230
1.0
 70
     8
 71
     3
 72
     8
 73
     4
 74
     0
 42
0.00000001
 43
0.00000001
 40
0.0
 40
0.0
 40
0.0
 40
0.0
 40
1.0
 40
1.0
 40
1.0
 40
1.0
 10
-50.95571831597222
 20
57.069815402560756
 30
0.0
 10
-49.462958441840271
 20
57.364543321397562
 30
0.0
 10
-48.054947916666663
 20
57.964851209852426
 30
0.0
 10
-46.81040717230902
 20
58.830086941189229
 30
0.0
  0
SPLINE
  5
98
100
AcDbEntity
  8
LIVELLO_1
 62
     7
100
AcDbSpline
210
0.0
220
0.0
230
1.0
 70
     8
 71
     3
 72
     8
 73
     4
 74
     0
 42
0.00000001
 43
0.00000001
 40
0.0
 40
0.0
 40
0.0
 40
0.0
 40
1.0
 40
1.0
 40
1.0
 40
1.0
 10
-61.79519449869791
 20
61.032191975911452
 30
0.0
 10
-70.557794867621524
 20
72.021702067057291
 30
0.0
 10
-81.753321668836804
 20
80.828055148654514
 30
0.0
 10
-94.492078993055543
 20
86.774462212456584
 30
0.0
  0
SPLINE
  5
97
100
AcDbEntity
  8
LIVELLO_1
 62
     7
100
AcDbSpline
210
0.0
220
0.0
230
1.0
 70
     8
 71
     3
 72
     8
 73
     4
 74
     0
 42
0.00000001
 43
0.00000001
 40
0.0
 40
0.0
 40
0.0
 40
0.0
 40
1.0
 40
1.0
 40
1.0
 40
1.0
 10
-94.492078993055543
 20
86.774462212456584
 30
0.0
 10
-97.189588758680543
 20
88.027098931206595
 30
0.0
 10
-100.12325981987847
 20
88.679255506727429
 30
0.0
 10
-103.09913330078125
 20
88.679255506727429
 30
0.0
  0
SPLINE
  5
96
100
AcDbEntity
  8
LIVELLO_1
 62
     7
100
AcDbSpline
210
0.0
220
0.0
230
1.0
 70
     8
 71
     3
 72
     8
 73
     4
 74
     0
 42
0.00000001
 43
0.00000001
 40
0.0
 40
0.0
 40
0.0
 40
0.0
 40
1.0
 40
1.0
 40
1.0
 40
1.0
 10
-103.09913330078125
 20
88.679255506727429
 30
0.0
 10
-107.77791748046874
 20
88.679255506727429
 30
0.0
 10
-112.26308729383679
 20
86.820798746744785
 30
0.0
 10
-115.57192925347221
 20
83.516090901692706
 30
0.0
  0
SPLINE
  5
95
100
AcDbEntity
  8
LIVELLO_1
 62
     7
100
AcDbSpline
210
0.0
220
0.0
230
1.0
 70
     8
 71
     3
 72
     8
 73
     4
 74
     0
 42
0.00000001
 43
0.00000001
 40
0.0
 40
0.0
 40
0.0
 40
0.0
 40
1.0
 40
1.0
 40
1.0
 40
1.0
 10
-115.57192925347221
 20
83.516090901692706
 30
0.0
 10
-118.23395453559027
 20
80.852687581380195
 30
0.0
 10
-119.88897840711805
 20
77.354193115234366
 30
0.0
 10
-120.25743136935763
 20
73.607307264539926
 30
0.0
  0
SPLINE
  5
94
100
AcDbEntity
  8
LIVELLO_1
 62
     7
100
AcDbSpline
210
0.0
220
0.0
230
1.0
 70
     8
 71
     3
 72
     8
 73
     4
 74
     0
 42
0.00000001
 43
0.00000001
 40
0.0
 40
0.0
 40
0.0
 40
0.0
 40
1.0
 40
1.0
 40
1.0
 40
1.0
 10
-120.25743136935763
 20
70.414392768012149
 30
0.0
 10
-119.88897840711805
 20
66.673019070095478
 30
0.0
 10
-118.23395453559027
 20
63.169012451171866
 30
0.0
 10
-115.57192925347221
 20
60.508365207248261
 30
0.0
  0
SPLINE
  5
93
100
AcDbEntity
  8
LIVELLO_1
 62
     7
100
AcDbSpline
210
0.0
220
0.0
230
1.0
 70
     8
 71
     3
 72
     8
 73
     4
 74
     0
 42
0.00000001
 43
0.00000001
 40
0.0
 40
0.0
 40
0.0
 40
0.0
 40
1.0
 40
1.0
 40
1.0
 40
1.0
 10
-115.57192925347221
 20
60.508365207248261
 30
0.0
 10
-113.15123291015624
 20
58.084912787543395
 30
0.0
 10
-109.99380289713541
 20
56.532208251953122
 30
0.0
 10
-106.59228786892361
 20
56.087446424696175
 30
0.0
  0
SPLINE
  5
92
100
AcDbEntity
  8
LIVELLO_1
 62
     7
100
AcDbSpline
210
0.0
220
0.0
230
1.0
 70
     8
 71
     3
 72
     8
 73
     4
 74
     0
 42
0.00000001
 43
0.00000001
 40
0.0
 40
0.0
 40
0.0
 40
0.0
 40
1.0
 40
1.0
 40
1.0
 40
1.0
 10
-61.677888997395826
 20
61.125037299262146
 30
0.0
 10
-70.460987684461799
 20
72.130911593967014
 30
0.0
 10
-81.665988498263886
 20
80.956384955512149
 30
0.0
 10
-94.425244140624997
 20
86.910887993706595
 30
0.0
  0
SPLINE
  5
91
100
AcDbEntity
  8
LIVELLO_1
 62
     7
100
AcDbSpline
210
0.0
220
0.0
230
1.0
 70
     8
 71
     3
 72
     8
 73
     4
 74
     0
 42
0.00000001
 43
0.00000001
 40
0.0
 40
0.0
 40
0.0
 40
0.0
 40
1.0
 40
1.0
 40
1.0
 40
1.0
 10
-94.425244140624997
 20
86.910887993706595
 30
0.0
 10
-97.144630262586801
 20
88.177132839626722
 30
0.0
 10
-100.10138346354165
 20
88.829289415147556
 30
0.0
 10
-103.09913330078125
 20
88.829289415147556
 30
0.0
  0
SPLINE
  5
90
100
AcDbEntity
  8
LIVELLO_1
 62
     7
100
AcDbSpline
210
0.0
220
0.0
230
1.0
 70
     8
 71
     3
 72
     8
 73
     4
 74
     0
 42
0.00000001
 43
0.00000001
 40
0.0
 40
0.0
 40
0.0
 40
0.0
 40
1.0
 40
1.0
 40
1.0
 40
1.0
 10
-103.09913330078125
 20
88.829289415147556
 30
0.0
 10
-107.81891411675346
 20
88.829289415147556
 30
0.0
 10
-112.34353027343749
 20
86.957224527994782
 30
0.0
 10
-115.67958848741318
 20
83.617032199435755
 30
0.0
  0
SPLINE
  5
8F
100
AcDbEntity
  8
LIVELLO_1
 62
     7
100
AcDbSpline
210
0.0
220
0.0
230
1.0
 70
     8
 71
     3
 72
     8
 73
     4
 74
     0
 42
0.00000001
 43
0.00000001
 40
0.0
 40
0.0
 40
0.0
 40
0.0
 40
1.0
 40
1.0
 40
1.0
 40
1.0
 10
-115.67958848741318
 20
83.617032199435755
 30
0.0
 10
-118.37175835503471
 20
80.931752522786454
 30
0.0
 10
-120.03918457031249
 20
77.389677598741315
 30
0.0
 10
-120.4115993923611
 20
73.607307264539926
 30
0.0
  0
SPLINE
  5
8E
100
AcDbEntity
  8
LIVELLO_1
 62
     7
100
AcDbSpline
210
0.0
220
0.0
230
1.0
 70
     8
 71
     3
 72
     8
 73
     4
 74
     0
 42
0.00000001
 43
0.00000001
 40
0.0
 40
0.0
 40
0.0
 40
0.0
 40
1.0
 40
1.0
 40
1.0
 40
1.0
 10
-120.4115993923611
 20
70.414392768012149
 30
0.0
 10
-120.03918457031249
 20
66.629266357421869
 30
0.0
 10
-118.37175835503471
 20
63.089947509765622
 30
0.0
 10
-115.67958848741318
 20
60.399155680338538
 30
0.0
  0
SPLINE
  5
8D
100
AcDbEntity
  8
LIVELLO_1
 62
     7
100
AcDbSpline
210
0.0
220
0.0
230
1.0
 70
     8
 71
     3
 72
    11
 73
     7
 74
     0
 42
0.00000001
 43
0.00000001
 40
0.0
 40
0.0
 40
0.0
 40
0.0
 40
1.0
 40
1.0
 40
1.0
 40
2.0
 40
2.0
 40
2.0
 40
2.0
 10
-103.39799533420138
 20
58.606155734592008
 30
0.0
 10
-98.874757215711796
 20
58.346912299262151
 30
0.0
 10
-94.998335774739573
 20
61.812678358289922
 30
0.0
 10
-94.74718831380207
 20
66.342806667751731
 30
0.0
 10
-94.601288519965266
 20
68.929901123046875
 30
0.0
 10
-95.685976833767356
 20
71.432246229383679
 30
0.0
 10
-97.672591145833323
 20
73.094160291883668
 30
0.0
  0
SPLINE
  5
8C
100
AcDbEntity
  8
LIVELLO_1
 62
     7
100
AcDbSpline
210
0.0
220
0.0
230
1.0
 70
     8
 71
     3
 72
    11
 73
     7
 74
     0
 42
0.00000001
 43
0.00000001
 40
0.0
 40
0.0
 40
0.0
 40
0.0
 40
1.0
 40
1.0
 40
1.0
 40
2.0
 40
2.0
 40
2.0
 40
2.0
 10
-100.39214952256944
 20
56.155659315321174
 30
0.0
 10
-94.512577311197902
 20
57.563842095269095
 30
0.0
 10
-90.89126519097222
 20
63.472008599175339
 30
0.0
 10
-92.30203179253472
 20
69.352786593967011
 30
0.0
 10
-92.849285210503467
 20
71.639640977647559
 30
0.0
 10
-94.120869954427079
 20
73.683616129557279
 30
0.0
 10
-95.920760091145823
 20
75.189984130859372
 30
0.0
  0
SPLINE
  5
8B
100
AcDbEntity
  8
LIVELLO_1
 62
     7
100
AcDbSpline
210
0.0
220
0.0
230
1.0
 70
     8
 71
     3
 72
     8
 73
     4
 74
     0
 42
0.00000001
 43
0.00000001
 40
0.0
 40
0.0
 40
0.0
 40
0.0
 40
1.0
 40
1.0
 40
1.0
 40
1.0
 10
-95.920760091145823
 20
75.189984130859372
 30
0.0
 10
-98.824286566840271
 20
77.624288601345484
 30
0.0
 10
-102.99681396484374
 20
77.823587375217002
 30
0.0
 10
-106.1118693033854
 20
75.675742594401029
 30
0.0
  0
SPLINE
  5
8A
100
AcDbEntity
  8
LIVELLO_1
 62
     7
100
AcDbSpline
210
0.0
220
0.0
230
1.0
 70
     8
 71
     3
 72
     8
 73
     4
 74
     0
 42
0.00000001
 43
0.00000001
 40
0.0
 40
0.0
 40
0.0
 40
0.0
 40
1.0
 40
1.0
 40
1.0
 40
1.0
 10
-63.818671332465271
 20
59.419542778862841
 30
0.0
 10
-61.445861816406243
 20
56.442119004991312
 30
0.0
 10
-57.941855197482631
 20
54.591930474175342
 30
0.0
 10
-54.145876736111106
 20
54.310810682508674
 30
0.0
  0
SPLINE
  5
89
100
AcDbEntity
  8
LIVELLO_1
 62
     7
100
AcDbSpline
210
0.0
220
0.0
230
1.0
 70
     8
 71
     3
 72
     8
 73
     4
 74
     0
 42
0.00000001
 43
0.00000001
 40
0.0
 40
0.0
 40
0.0
 40
0.0
 40
1.0
 40
1.0
 40
1.0
 40
1.0
 10
-50.95571831597222
 20
54.447236463758678
 30
0.0
 10
-48.934997558593743
 20
54.769352891710064
 30
0.0
 10
-47.017801920572914
 20
55.536231146918396
 30
0.0
 10
-45.338145616319437
 20
56.698606363932285
 30
0.0
  0
SPLINE
  5
88
100
AcDbEntity
  8
LIVELLO_1
 62
     7
100
AcDbSpline
210
0.0
220
0.0
230
1.0
 70
     8
 71
     3
 72
    11
 73
     7
 74
     0
 42
0.00000001
 43
0.00000001
 40
0.0
 40
0.0
 40
0.0
 40
0.0
 40
1.0
 40
1.0
 40
1.0
 40
2.0
 40
2.0
 40
2.0
 40
2.0
 10
-45.338145616319437
 20
56.698606363932285
 30
0.0
 10
-41.404363335503469
 20
59.424882676866311
 30
0.0
 10
-40.420616319444441
 20
64.820074462890616
 30
0.0
 10
-43.144136555989583
 20
68.757990858289929
 30
0.0
 10
-45.239960394965273
 20
71.792603217230891
 30
0.0
 10
-49.027670627170131
 20
73.162373182508674
 30
0.0
 10
-52.582147894965274
 20
72.177248128255201
 30
0.0
  0
SPLINE
  5
87
100
AcDbEntity
  8
LIVELLO_1
 62
     7
100
AcDbSpline
210
0.0
220
0.0
230
1.0
 70
     8
 71
     3
 72
     8
 73
     4
 74
     0
 42
0.00000001
 43
0.00000001
 40
0.0
 40
0.0
 40
0.0
 40
0.0
 40
1.0
 40
1.0
 40
1.0
 40
1.0
 10
-41.60504014756944
 20
54.024350992838535
 30
0.0
 10
-40.655399576822916
 20
52.919164360894094
 30
0.0
 10
-38.9838392469618
 20
52.788078477647566
 30
0.0
 10
-37.871762424045137
 20
53.732379150390621
 30
0.0
  0
SPLINE
  5
86
100
AcDbEntity
  8
LIVELLO_1
 62
     7
100
AcDbSpline
210
0.0
220
0.0
230
1.0
 70
     8
 71
     3
 72
     8
 73
     4
 74
     0
 42
0.00000001
 43
0.00000001
 40
0.0
 40
0.0
 40
0.0
 40
0.0
 40
1.0
 40
1.0
 40
1.0
 40
1.0
 10
-37.871762424045137
 20
49.958277045355899
 30
0.0
 10
-38.9838392469618
 20
50.902233208550342
 30
0.0
 10
-40.655399576822916
 20
50.771319580078121
 30
0.0
 10
-41.60504014756944
 20
49.666132948133679
 30
0.0
  0
SPLINE
  5
85
100
AcDbEntity
  8
LIVELLO_1
 62
     7
100
AcDbSpline
210
0.0
220
0.0
230
1.0
 70
     8
 71
     3
 72
    11
 73
     7
 74
     0
 42
0.00000001
 43
0.00000001
 40
0.0
 40
0.0
 40
0.0
 40
0.0
 40
1.0
 40
1.0
 40
1.0
 40
2.0
 40
2.0
 40
2.0
 40
2.0
 10
-37.952377658420133
 20
50.135699462890621
 30
0.0
 10
-37.952377658420133
 20
50.009953477647564
 30
0.0
 10
-37.849886067708333
 20
49.906256103515624
 30
0.0
 10
-37.723106553819441
 20
49.906256103515624
 30
0.0
 10
-37.6876220703125
 20
49.906256103515624
 30
0.0
 10
-37.648003472222221
 20
49.914524332682284
 30
0.0
 10
-37.613897026909719
 20
49.936228434244789
 30
0.0
  0
SPLINE
  5
84
100
AcDbEntity
  8
LIVELLO_1
 62
     7
100
AcDbSpline
210
0.0
220
0.0
230
1.0
 70
     8
 71
     3
 72
    11
 73
     7
 74
     0
 42
0.00000001
 43
0.00000001
 40
0.0
 40
0.0
 40
0.0
 40
0.0
 40
1.0
 40
1.0
 40
1.0
 40
2.0
 40
2.0
 40
2.0
 40
2.0
 10
-37.613897026909719
 20
53.751499430338534
 30
0.0
 10
-37.717594401041666
 20
53.816956244574648
 30
0.0
 10
-37.860910373263884
 20
53.778715684678815
 30
0.0
 10
-37.922233072916661
 20
53.669506157769092
 30
0.0
 10
-37.941353352864581
 20
53.636777750651035
 30
0.0
 10
-37.952377658420133
 20
53.595953369140624
 30
0.0
 10
-37.952377658420133
 20
53.554956732855899
 30
0.0
  0
SPLINE
  5
83
100
AcDbEntity
  8
LIVELLO_1
 62
     7
100
AcDbSpline
210
0.0
220
0.0
230
1.0
 70
     8
 71
     3
 72
    11
 73
     7
 74
     0
 42
0.00000001
 43
0.00000001
 40
0.0
 40
0.0
 40
0.0
 40
0.0
 40
1.0
 40
1.0
 40
1.0
 40
2.0
 40
2.0
 40
2.0
 40
2.0
 10
-105.79681532118055
 20
47.158103434244786
 30
0.0
 10
-105.79681532118055
 20
46.724365912543398
 30
0.0
 10
-105.43525254991319
 20
46.361597357855899
 30
0.0
 10
-104.99720865885416
 20
46.361597357855899
 30
0.0
 10
-104.5550306532118
 20
46.361597357855899
 30
0.0
 10
-104.20035807291666
 20
46.724365912543398
 30
0.0
 10
-104.20035807291666
 20
47.158103434244786
 30
0.0
  0
SPLINE
  5
82
100
AcDbEntity
  8
LIVELLO_1
 62
     7
100
AcDbSpline
210
0.0
220
0.0
230
1.0
 70
     8
 71
     3
 72
     8
 73
     4
 74
     0
 42
0.00000001
 43
0.00000001
 40
0.0
 40
0.0
 40
0.0
 40
0.0
 40
1.0
 40
1.0
 40
1.0
 40
1.0
 10
-103.39799533420138
 20
59.544944254557286
 30
0.0
 10
-103.39799533420138
 20
59.796091715494789
 30
0.0
 10
-103.59987792968749
 20
60.003486463758676
 30
0.0
 10
-103.85653754340277
 20
60.003486463758676
 30
0.0
  0
SPLINE
  5
81
100
AcDbEntity
  8
LIVELLO_1
 62
     7
100
AcDbSpline
210
0.0
220
0.0
230
1.0
 70
     8
 71
     3
 72
     8
 73
     4
 74
     0
 42
0.00000001
 43
0.00000001
 40
0.0
 40
0.0
 40
0.0
 40
0.0
 40
1.0
 40
1.0
 40
1.0
 40
1.0
 10
-106.14063585069444
 20
60.003486463758676
 30
0.0
 10
-106.38885498046874
 20
60.003486463758676
 30
0.0
 10
-106.59228786892361
 20
59.796091715494789
 30
0.0
 10
-106.59228786892361
 20
59.544944254557286
 30
0.0
  0
SPLINE
  5
80
100
AcDbEntity
  8
LIVELLO_1
 62
     7
100
AcDbSpline
210
0.0
220
0.0
230
1.0
 70
     8
 71
     3
 72
     8
 73
     4
 74
     0
 42
0.00000001
 43
0.00000001
 40
0.0
 40
0.0
 40
0.0
 40
0.0
 40
1.0
 40
1.0
 40
1.0
 40
1.0
 10
-103.85653754340277
 20
47.330358208550344
 30
0.0
 10
-103.59987792968749
 20
47.330358208550344
 30
0.0
 10
-103.39799533420138
 20
47.537752956814231
 30
0.0
 10
-103.39799533420138
 20
47.788555908203122
 30
0.0
  0
SPLINE
  5
7F
100
AcDbEntity
  8
LIVELLO_1
 62
     7
100
AcDbSpline
210
0.0
220
0.0
230
1.0
 70
     8
 71
     3
 72
     8
 73
     4
 74
     0
 42
0.00000001
 43
0.00000001
 40
0.0
 40
0.0
 40
0.0
 40
0.0
 40
1.0
 40
1.0
 40
1.0
 40
1.0
 10
-106.59228786892361
 20
47.788555908203122
 30
0.0
 10
-106.59228786892361
 20
47.537752956814231
 30
0.0
 10
-106.38885498046874
 20
47.330358208550344
 30
0.0
 10
-106.14063585069444
 20
47.330358208550344
 30
0.0
  0
SPLINE
  5
7E
100
AcDbEntity
  8
LIVELLO_1
 62
     7
100
AcDbSpline
210
0.0
220
0.0
230
1.0
 70
     8
 71
     3
 72
    11
 73
     7
 74
     0
 42
0.00000001
 43
0.00000001
 40
0.0
 40
0.0
 40
0.0
 40
0.0
 40
1.0
 40
1.0
 40
1.0
 40
2.0
 40
2.0
 40
2.0
 40
2.0
 10
-108.73031412760416
 20
55.432533772786456
 30
0.0
 10
-108.48209499782985
 20
55.427021620008674
 30
0.0
 10
-108.26643202039929
 20
55.623564317491315
 30
0.0
 10
-108.26091986762152
 20
55.874539523654512
 30
0.0
 10
-108.26091986762152
 20
56.087446424696175
 30
0.0
 10
-108.39751790364582
 20
56.275720893012149
 30
0.0
 10
-108.60215657552082
 20
56.327569580078119
 30
0.0
  0
SPLINE
  5
7D
100
AcDbEntity
  8
LIVELLO_1
 62
     7
100
AcDbSpline
210
0.0
220
0.0
230
1.0
 70
     8
 71
     3
 72
     8
 73
     4
 74
     0
 42
0.00000001
 43
0.00000001
 40
0.0
 40
0.0
 40
0.0
 40
0.0
 40
1.0
 40
1.0
 40
1.0
 40
1.0
 10
-61.677888997395826
 20
61.125037299262146
 30
0.0
 10
-59.82218831380208
 20
58.799942355685758
 30
0.0
 10
-57.105386013454854
 20
57.334570990668396
 30
0.0
 10
-54.145876736111106
 20
57.053451199001728
 30
0.0
  0
SPLINE
  5
7C
100
AcDbEntity
  8
LIVELLO_1
 62
     7
100
AcDbSpline
210
0.0
220
0.0
230
1.0
 70
     8
 71
     3
 72
     8
 73
     4
 74
     0
 42
0.00000001
 43
0.00000001
 40
0.0
 40
0.0
 40
0.0
 40
0.0
 40
1.0
 40
1.0
 40
1.0
 40
1.0
 10
-50.95571831597222
 20
57.225361463758674
 30
0.0
 10
-49.497064887152774
 20
57.517333306206595
 30
0.0
 10
-48.11627061631944
 20
58.106789143880206
 30
0.0
 10
-46.892400444878469
 20
58.955488416883675
 30
0.0
  0
SPLINE
  5
7B
100
AcDbEntity
  8
LIVELLO_1
 62
     7
100
AcDbSpline
210
0.0
220
0.0
230
1.0
 70
     8
 71
     3
 72
    11
 73
     7
 74
     0
 42
0.00000001
 43
0.00000001
 40
0.0
 40
0.0
 40
0.0
 40
0.0
 40
1.0
 40
1.0
 40
1.0
 40
2.0
 40
2.0
 40
2.0
 40
2.0
 10
-46.892400444878469
 20
58.955488416883675
 30
0.0
 10
-44.204364691840276
 20
60.816701253255204
 30
0.0
 10
-43.530331759982637
 20
64.508982340494782
 30
0.0
 10
-45.39137234157986
 20
67.199774169921866
 30
0.0
 10
-46.708087836371526
 20
69.107151285807291
 30
0.0
 10
-49.009928385416664
 20
70.065060085720475
 30
0.0
 10
-51.292820909288189
 20
69.669390869140614
 30
0.0
  0
SPLINE
  5
7A
100
AcDbEntity
  8
LIVELLO_1
 62
     7
100
AcDbSpline
210
0.0
220
0.0
230
1.0
 70
     8
 71
     3
 72
    14
 73
    10
 74
     0
 42
0.00000001
 43
0.00000001
 40
0.0
 40
0.0
 40
0.0
 40
0.0
 40
1.0
 40
1.0
 40
1.0
 40
2.0
 40
2.0
 40
2.0
 40
3.0
 40
3.0
 40
3.0
 40
3.0
 10
-52.582147894965274
 20
72.177248128255201
 30
0.0
 10
-53.998598904079856
 20
71.787091064453122
 30
0.0
 10
-55.188362630208331
 20
70.812818060980902
 30
0.0
 10
-55.856883409288187
 20
69.497480604383668
 30
0.0
 10
-56.539184570312493
 20
68.152170817057282
 30
0.0
 10
-56.001577419704859
 20
66.501108805338532
 30
0.0
 10
-54.65488959418402
 20
65.821563720703125
 30
0.0
 10
-54.169131130642356
 20
65.573172336154514
 30
0.0
 10
-53.623255750868047
 20
65.477743191189234
 30
0.0
 10
-53.081686740451381
 20
65.545956081814225
 30
0.0
  0
SPLINE
  5
79
100
AcDbEntity
  8
LIVELLO_1
 62
     7
100
AcDbSpline
210
0.0
220
0.0
230
1.0
 70
     8
 71
     3
 72
    11
 73
     7
 74
     0
 42
0.00000001
 43
0.00000001
 40
0.0
 40
0.0
 40
0.0
 40
0.0
 40
1.0
 40
1.0
 40
1.0
 40
2.0
 40
2.0
 40
2.0
 40
2.0
 10
-51.292820909288189
 20
69.669390869140614
 30
0.0
 10
-51.539834255642354
 20
69.623054334852426
 30
0.0
 10
-51.70761040581597
 20
69.388271077473945
 30
0.0
 10
-51.6652357313368
 20
69.137295871310755
 30
0.0
 10
-51.648871527777771
 20
69.074422878689234
 30
0.0
 10
-51.625789388020827
 20
69.006209988064228
 30
0.0
 10
-51.580658637152773
 20
68.951605224609366
 30
0.0
  0
SPLINE
  5
78
100
AcDbEntity
  8
LIVELLO_1
 62
     7
100
AcDbSpline
210
0.0
220
0.0
230
1.0
 70
     8
 71
     3
 72
    11
 73
     7
 74
     0
 42
0.00000001
 43
0.00000001
 40
0.0
 40
0.0
 40
0.0
 40
0.0
 40
1.0
 40
1.0
 40
1.0
 40
2.0
 40
2.0
 40
2.0
 40
2.0
 10
-53.081686740451381
 20
65.545956081814225
 30
0.0
 10
-51.894506835937499
 20
65.687894015842005
 30
0.0
 10
-51.047185601128469
 20
66.776716444227418
 30
0.0
 10
-51.198597547743049
 20
67.958384195963532
 30
0.0
 10
-51.243728298611103
 20
68.318568929036445
 30
0.0
 10
-51.374641927083331
 20
68.656877305772568
 30
0.0
 10
-51.580658637152773
 20
68.951605224609366
 30
0.0
  0
SPLINE
  5
77
100
AcDbEntity
  8
LIVELLO_1
 62
     7
100
AcDbSpline
210
0.0
220
0.0
230
1.0
 70
     8
 71
     3
 72
    11
 73
     7
 74
     0
 42
0.00000001
 43
0.00000001
 40
0.0
 40
0.0
 40
0.0
 40
0.0
 40
1.0
 40
1.0
 40
1.0
 40
2.0
 40
2.0
 40
2.0
 40
2.0
 10
-106.1118693033854
 20
75.675742594401029
 30
0.0
 10
-108.71119384765625
 20
73.893766954210065
 30
0.0
 10
-109.36490071614583
 20
70.343423800998252
 30
0.0
 10
-107.58413085937499
 20
67.745477294921869
 30
0.0
 10
-106.64551459418402
 20
66.386387125651041
 30
0.0
 10
-105.17325303819443
 20
65.504959445529508
 30
0.0
 10
-103.53028700086804
 20
65.311345079210056
 30
0.0
  0
SPLINE
  5
76
100
AcDbEntity
  8
LIVELLO_1
 62
     7
100
AcDbSpline
210
0.0
220
0.0
230
1.0
 70
     8
 71
     3
 72
     8
 73
     4
 74
     0
 42
0.00000001
 43
0.00000001
 40
0.0
 40
0.0
 40
0.0
 40
0.0
 40
1.0
 40
1.0
 40
1.0
 40
1.0
 10
-97.672591145833323
 20
73.094160291883668
 30
0.0
 10
-99.637501356336799
 20
74.737126329210056
 30
0.0
 10
-102.45386691623263
 20
74.868039957682285
 30
0.0
 10
-104.5674329969618
 20
73.424372694227429
 30
0.0
  0
SPLINE
  5
75
100
AcDbEntity
  8
LIVELLO_1
 62
     7
100
AcDbSpline
210
0.0
220
0.0
230
1.0
 70
     8
 71
     3
 72
     8
 73
     4
 74
     0
 42
0.00000001
 43
0.00000001
 40
0.0
 40
0.0
 40
0.0
 40
0.0
 40
1.0
 40
1.0
 40
1.0
 40
1.0
 10
-115.67958848741318
 20
60.399155680338538
 30
0.0
 10
-113.72156846788194
 20
58.439757622612845
 30
0.0
 10
-111.27916802300346
 20
57.037086995442706
 30
0.0
 10
-108.60215657552082
 20
56.327569580078119
 30
0.0
  0
SPLINE
  5
74
100
AcDbEntity
  8
LIVELLO_1
 62
     7
100
AcDbSpline
210
0.0
220
0.0
230
1.0
 70
     8
 71
     3
 72
    11
 73
     7
 74
     0
 42
0.00000001
 43
0.00000001
 40
0.0
 40
0.0
 40
0.0
 40
0.0
 40
1.0
 40
1.0
 40
1.0
 40
2.0
 40
2.0
 40
2.0
 40
2.0
 10
-105.6030287000868
 20
69.805816650390625
 30
0.0
 10
-105.4078640407986
 20
69.341934543185758
 30
0.0
 10
-104.86887885199651
 20
69.126271565755204
 30
0.0
 10
-104.41050889756943
 20
69.331082492404505
 30
0.0
 10
-104.38174235026041
 20
69.341934543185758
 30
0.0
 10
-104.35452609592014
 20
69.352786593967011
 30
0.0
 10
-104.33127170138889
 20
69.361054823133671
 30
0.0
  0
SPLINE
  5
73
100
AcDbEntity
  8
LIVELLO_1
 62
     7
100
AcDbSpline
210
0.0
220
0.0
230
1.0
 70
     8
 71
     3
 72
    14
 73
    10
 74
     0
 42
0.00000001
 43
0.00000001
 40
0.0
 40
0.0
 40
0.0
 40
0.0
 40
1.0
 40
1.0
 40
1.0
 40
2.0
 40
2.0
 40
2.0
 40
3.0
 40
3.0
 40
3.0
 40
3.0
 10
-103.53028700086804
 20
65.311345079210056
 30
0.0
 10
-102.33914523654514
 20
65.174747043185761
 30
0.0
 10
-101.26944308810764
 20
66.031714545355896
 30
0.0
 10
-101.13577338324652
 20
67.218722195095481
 30
0.0
 10
-100.99796956380207
 20
68.408658175998255
 30
0.0
 10
-101.85338677300346
 20
69.481116400824646
 30
0.0
 10
-103.03781060112846
 20
69.617542182074644
 30
0.0
 10
-103.4853285047743
 20
69.669390869140614
 30
0.0
 10
-103.94111463758679
 20
69.582057698567695
 30
0.0
 10
-104.33127170138889
 20
69.361054823133671
 30
0.0
  0
SPLINE
  5
72
100
AcDbEntity
  8
LIVELLO_1
 62
     7
100
AcDbSpline
210
0.0
220
0.0
230
1.0
 70
     8
 71
     3
 72
     8
 73
     4
 74
     0
 42
0.00000001
 43
0.00000001
 40
0.0
 40
0.0
 40
0.0
 40
0.0
 40
1.0
 40
1.0
 40
1.0
 40
1.0
 10
-104.5674329969618
 20
73.424372694227429
 30
0.0
 10
-105.72860243055554
 20
72.613913981119779
 30
0.0
 10
-106.16509602864582
 20
71.102033827039918
 30
0.0
 10
-105.6030287000868
 20
69.805816650390625
 30
0.0
  0
SPLINE
  5
71
100
AcDbEntity
  8
LIVELLO_1
 62
     7
100
AcDbSpline
210
0.0
220
0.0
230
1.0
 70
     8
 71
     3
 72
     8
 73
     4
 74
     0
 42
0.00000001
 43
0.00000001
 40
0.0
 40
0.0
 40
0.0
 40
0.0
 40
1.0
 40
1.0
 40
1.0
 40
1.0
 10
-113.74068874782985
 20
62.339433458116311
 30
0.0
 10
-111.80454508463541
 20
60.399155680338538
 30
0.0
 10
-109.30064968532984
 20
59.122058783637151
 30
0.0
 10
-106.59228786892361
 20
58.696244981553811
 30
0.0
  0
SPLINE
  5
70
100
AcDbEntity
  8
LIVELLO_1
 62
     7
100
AcDbSpline
210
0.0
220
0.0
230
1.0
 70
     8
 71
     3
 72
     8
 73
     4
 74
     0
 42
0.00000001
 43
0.00000001
 40
0.0
 40
0.0
 40
0.0
 40
0.0
 40
1.0
 40
1.0
 40
1.0
 40
1.0
 10
-63.818671332465271
 20
59.419542778862841
 30
0.0
 10
-72.333052571614573
 20
70.092448594835062
 30
0.0
 10
-83.206462944878467
 20
78.658506266276035
 30
0.0
 10
-95.582279459635402
 20
84.424907090928812
 30
0.0
  0
SPLINE
  5
6F
100
AcDbEntity
  8
LIVELLO_1
 62
     7
100
AcDbSpline
210
0.0
220
0.0
230
1.0
 70
     8
 71
     3
 72
     8
 73
     4
 74
     0
 42
0.00000001
 43
0.00000001
 40
0.0
 40
0.0
 40
0.0
 40
0.0
 40
1.0
 40
1.0
 40
1.0
 40
1.0
 10
-95.582279459635402
 20
84.424907090928812
 30
0.0
 10
-97.935968695746524
 20
85.524581570095478
 30
0.0
 10
-100.50669894748263
 20
86.097673204210068
 30
0.0
 10
-103.09913330078125
 20
86.097673204210068
 30
0.0
  0
SPLINE
  5
6E
100
AcDbEntity
  8
LIVELLO_1
 62
     7
100
AcDbSpline
210
0.0
220
0.0
230
1.0
 70
     8
 71
     3
 72
     8
 73
     4
 74
     0
 42
0.00000001
 43
0.00000001
 40
0.0
 40
0.0
 40
0.0
 40
0.0
 40
1.0
 40
1.0
 40
1.0
 40
1.0
 10
-103.09913330078125
 20
86.097673204210068
 30
0.0
 10
-107.09303249782985
 20
86.097673204210068
 30
0.0
 10
-110.92725151909721
 20
84.506728108723948
 30
0.0
 10
-113.74068874782985
 20
81.687606472439228
 30
0.0
  0
SPLINE
  5
6D
100
AcDbEntity
  8
LIVELLO_1
 62
     7
100
AcDbSpline
210
0.0
220
0.0
230
1.0
 70
     8
 71
     3
 72
     8
 73
     4
 74
     0
 42
0.00000001
 43
0.00000001
 40
0.0
 40
0.0
 40
0.0
 40
0.0
 40
1.0
 40
1.0
 40
1.0
 40
1.0
 10
-113.74068874782985
 20
81.687606472439228
 30
0.0
 10
-115.92108968098957
 20
79.507205539279511
 30
0.0
 10
-117.30067816840277
 20
76.666379801432285
 30
0.0
 10
-117.66086290147568
 20
73.607307264539926
 30
0.0
  0
SPLINE
  5
6C
100
AcDbEntity
  8
LIVELLO_1
 62
     7
100
AcDbSpline
210
0.0
220
0.0
230
1.0
 70
     8
 71
     3
 72
     8
 73
     4
 74
     0
 42
0.00000001
 43
0.00000001
 40
0.0
 40
0.0
 40
0.0
 40
0.0
 40
1.0
 40
1.0
 40
1.0
 40
1.0
 10
-117.66086290147568
 20
70.414392768012149
 30
0.0
 10
-117.30067816840277
 20
67.360660129123261
 30
0.0
 10
-115.92108968098957
 20
64.508982340494782
 30
0.0
 10
-113.74068874782985
 20
62.339433458116311
 30
0.0
  0
SPLINE
  5
6B
100
AcDbEntity
  8
LIVELLO_1
 62
     7
100
AcDbSpline
210
0.0
220
0.0
230
1.0
 70
     8
 71
     3
 72
     8
 73
     4
 74
     0
 42
0.00000001
 43
0.00000001
 40
0.0
 40
0.0
 40
0.0
 40
0.0
 40
1.0
 40
1.0
 40
1.0
 40
1.0
 10
-50.268077256944437
 20
48.653619384765619
 30
0.0
 10
-50.268077256944437
 20
48.402816433376735
 30
0.0
 10
-50.068778483072911
 20
48.200589328342012
 30
0.0
 10
-49.817803276909714
 20
48.195421685112841
 30
0.0
  0
SPLINE
  5
6A
100
AcDbEntity
  8
LIVELLO_1
 62
     7
100
AcDbSpline
210
0.0
220
0.0
230
1.0
 70
     8
 71
     3
 72
    11
 73
     7
 74
     0
 42
0.00000001
 43
0.00000001
 40
0.0
 40
0.0
 40
0.0
 40
0.0
 40
1.0
 40
1.0
 40
1.0
 40
2.0
 40
2.0
 40
2.0
 40
2.0
 10
-49.583020019531247
 20
46.825307210286454
 30
0.0
 10
-49.220079210069443
 20
46.970001220703118
 30
0.0
 10
-49.033182779947914
 20
47.376522488064232
 30
0.0
 10
-49.175120713975687
 20
47.742391628689234
 30
0.0
 10
-49.278818088107634
 20
48.012487114800344
 30
0.0
 10
-49.529793294270831
 20
48.189909532335065
 30
0.0
 10
-49.817803276909714
 20
48.195421685112841
 30
0.0
  0
SPLINE
  5
69
100
AcDbEntity
  8
LIVELLO_1
 62
     7
100
AcDbSpline
210
0.0
220
0.0
230
1.0
 70
     8
 71
     3
 72
     8
 73
     4
 74
     0
 42
0.00000001
 43
0.00000001
 40
0.0
 40
0.0
 40
0.0
 40
0.0
 40
1.0
 40
1.0
 40
1.0
 40
1.0
 10
-49.817803276909714
 20
49.718153889973955
 30
0.0
 10
-50.068778483072911
 20
49.712641737196179
 30
0.0
 10
-50.268077256944437
 20
49.513515218098952
 30
0.0
 10
-50.268077256944437
 20
49.265123833550341
 30
0.0
  0
SPLINE
  5
68
100
AcDbEntity
  8
LIVELLO_1
 62
     7
100
AcDbSpline
210
0.0
220
0.0
230
1.0
 70
     8
 71
     3
 72
    11
 73
     7
 74
     0
 42
0.00000001
 43
0.00000001
 40
0.0
 40
0.0
 40
0.0
 40
0.0
 40
1.0
 40
1.0
 40
1.0
 40
2.0
 40
2.0
 40
2.0
 40
2.0
 10
-54.828177897135411
 20
49.150402153862842
 30
0.0
 10
-54.828177897135411
 20
49.404305691189229
 30
0.0
 10
-55.032816569010414
 20
49.603432210286456
 30
0.0
 10
-55.281207953559026
 20
49.603432210286456
 30
0.0
 10
-55.281207953559026
 20
49.603432210286456
 30
0.0
 10
-55.292060004340271
 20
49.603432210286456
 30
0.0
 10
-55.292060004340271
 20
49.603432210286456
 30
0.0
  0
SPLINE
  5
67
100
AcDbEntity
  8
LIVELLO_1
 62
     7
100
AcDbSpline
210
0.0
220
0.0
230
1.0
 70
     8
 71
     3
 72
    11
 73
     7
 74
     0
 42
0.00000001
 43
0.00000001
 40
0.0
 40
0.0
 40
0.0
 40
0.0
 40
1.0
 40
1.0
 40
1.0
 40
2.0
 40
2.0
 40
2.0
 40
2.0
 10
-55.275695800781243
 20
48.195421685112841
 30
0.0
 10
-55.664474826388883
 20
48.189909532335065
 30
0.0
 10
-55.974361165364577
 20
47.867793104383679
 30
0.0
 10
-55.971605088975693
 20
47.474707709418396
 30
0.0
 10
-55.96609293619791
 20
47.188420274522564
 30
0.0
 10
-55.784708658854164
 20
46.929004584418401
 30
0.0
 10
-55.510306803385411
 20
46.825307210286454
 30
0.0
  0
SPLINE
  5
66
100
AcDbEntity
  8
LIVELLO_1
 62
     7
100
AcDbSpline
210
0.0
220
0.0
230
1.0
 70
     8
 71
     3
 72
     8
 73
     4
 74
     0
 42
0.00000001
 43
0.00000001
 40
0.0
 40
0.0
 40
0.0
 40
0.0
 40
1.0
 40
1.0
 40
1.0
 40
1.0
 10
-55.275695800781243
 20
48.195421685112841
 30
0.0
 10
-55.027304416232631
 20
48.200589328342012
 30
0.0
 10
-54.828177897135411
 20
48.402816433376735
 30
0.0
 10
-54.828177897135411
 20
48.653619384765619
 30
0.0
  0
LINE
  5
65
100
AcDbEntity
  8
LIVELLO_1
 62
     7
100
AcDbLine
 10
-80.223699
 20
14.833806
 30
0.0
 11
-80.177363
 21
15.371585
 31
0.0
  0
LINE
  5
64
100
AcDbEntity
  8
LIVELLO_1
 62
     7
100
AcDbLine
 10
-80.177363
 20
15.371585
 30
0.0
 11
-78.793812
 21
15.371585
 31
0.0
  0
LINE
  5
63
100
AcDbEntity
  8
LIVELLO_1
 62
     7
100
AcDbLine
 10
-68.400648
 20
29.030011
 30
0.0
 11
-67.448252
 21
34.441222
 31
0.0
  0
LINE
  5
62
100
AcDbEntity
  8
LIVELLO_1
 62
     7
100
AcDbLine
 10
-58.603658
 20
44.014454
 30
0.0
 11
-58.387995
 21
45.245386
 31
0.0
  0
LINE
  5
61
100
AcDbEntity
  8
LIVELLO_1
 62
     7
100
AcDbLine
 10
-62.814426
 20
38.346583
 30
0.0
 11
-62.672488
 21
39.140677
 31
0.0
  0
LINE
  5
60
100
AcDbEntity
  8
LIVELLO_1
 62
     7
100
AcDbLine
 10
-79.8158
 20
14.984012
 30
0.0
 11
-25.280455
 21
14.984012
 31
0.0
  0
LINE
  5
5F
100
AcDbEntity
  8
LIVELLO_1
 62
     7
100
AcDbLine
 10
-24.872556
 20
14.833806
 30
0.0
 11
-24.91872
 21
15.371585
 31
0.0
  0
LINE
  5
5E
100
AcDbEntity
  8
LIVELLO_1
 62
     7
100
AcDbLine
 10
-24.91872
 20
15.371585
 30
0.0
 11
-26.299859
 21
15.371585
 31
0.0
  0
LINE
  5
5D
100
AcDbEntity
  8
LIVELLO_1
 62
     7
100
AcDbLine
 10
-26.824891
 20
8.415249
 30
0.0
 11
-25.268053
 21
8.415249
 31
0.0
  0
LINE
  5
5C
100
AcDbEntity
  8
LIVELLO_1
 62
     7
100
AcDbLine
 10
-26.568576
 20
9.193151
 30
0.0
 11
-25.203974
 21
9.193151
 31
0.0
  0
LINE
  5
5B
100
AcDbEntity
  8
LIVELLO_1
 62
     7
100
AcDbLine
 10
-25.160221
 20
8.511022
 30
0.0
 11
-25.02793
 21
9.978977
 31
0.0
  0
LINE
  5
5A
100
AcDbEntity
  8
LIVELLO_1
 62
     7
100
AcDbLine
 10
-25.02793
 20
9.978977
 30
0.0
 11
-80.068153
 21
9.978977
 31
0.0
  0
LINE
  5
59
100
AcDbEntity
  8
LIVELLO_1
 62
     7
100
AcDbLine
 10
-41.00456
 20
-43.928499
 30
0.0
 11
-30.46119
 21
6.764359
 31
0.0
  0
LINE
  5
58
100
AcDbEntity
  8
LIVELLO_1
 62
     7
100
AcDbLine
 10
-41.370257
 20
-43.928499
 30
0.0
 11
-30.904918
 21
6.38781
 31
0.0
  0
LINE
  5
57
100
AcDbEntity
  8
LIVELLO_1
 62
     7
100
AcDbLine
 10
-37.930501
 20
-43.928499
 30
0.0
 11
-27.381619
 21
6.764359
 31
0.0
  0
LINE
  5
56
100
AcDbEntity
  8
LIVELLO_1
 62
     7
100
AcDbLine
 10
-27.381619
 20
6.764359
 30
0.0
 11
-27.252083
 21
6.835328
 31
0.0
  0
LINE
  5
55
100
AcDbEntity
  8
LIVELLO_1
 62
     7
100
AcDbLine
 10
-45.332806
 20
-49.839594
 30
0.0
 11
-59.134375
 21
-49.839594
 31
0.0
  0
SPLINE
  5
54
100
AcDbEntity
  8
LIVELLO_1
 62
     7
100
AcDbSpline
210
0.0
220
0.0
230
1.0
 70
     8
 71
     3
 72
     8
 73
     4
 74
     0
 42
0.00000001
 43
0.00000001
 40
0.0
 40
0.0
 40
0.0
 40
0.0
 40
1.0
 40
1.0
 40
1.0
 40
1.0
 10
-59.883511013454857
 20
-49.558473714192701
 30
0.0
 10
-59.67611626519097
 20
-49.744164360894089
 30
0.0
 10
-59.414116753472214
 20
-49.839593505859369
 30
0.0
 10
-59.134374999999991
 20
-49.839593505859369
 30
0.0
  0
SPLINE
  5
53
100
AcDbEntity
  8
LIVELLO_1
 62
     7
100
AcDbSpline
210
0.0
220
0.0
230
1.0
 70
     8
 71
     3
 72
     8
 73
     4
 74
     0
 42
0.00000001
 43
0.00000001
 40
0.0
 40
0.0
 40
0.0
 40
0.0
 40
1.0
 40
1.0
 40
1.0
 40
1.0
 10
-45.332805718315967
 20
-49.839593505859369
 30
0.0
 10
-45.058403862847221
 20
-49.839593505859369
 30
0.0
 10
-44.793820529513887
 20
-49.744164360894089
 30
0.0
 10
-44.583669704861109
 20
-49.558473714192701
 30
0.0
  0
LINE
  5
52
100
AcDbEntity
  8
LIVELLO_1
 62
     7
100
AcDbLine
 10
-56.318182
 20
-49.916075
 30
0.0
 11
-52.545285
 21
-49.916075
 31
0.0
  0
LINE
  5
51
100
AcDbEntity
  8
LIVELLO_1
 62
     7
100
AcDbLine
 10
-52.545285
 20
-49.916075
 30
0.0
 11
-48.778073
 21
-49.916075
 31
0.0
  0
LINE
  5
50
100
AcDbEntity
  8
LIVELLO_1
 62
     7
100
AcDbLine
 10
-55.507723
 20
-49.916075
 30
0.0
 11
-49.580436
 21
-49.916075
 31
0.0
  0
LINE
  5
4F
100
AcDbEntity
  8
LIVELLO_1
 62
     7
100
AcDbLine
 10
-54.736711
 20
-53.073505
 30
0.0
 11
-50.48908
 21
-53.073505
 31
0.0
  0
ELLIPSE
  5
4E
100
AcDbEntity
  8
LIVELLO_1
 62
     7
100
AcDbEllipse
 10
-52.612206
 20
-61.661439
 30
0.0
 11
-1.9279615614149304
 21
0.0
 31
0.0
210
0.0
220
0.0
230
1.0
 40
0.796963
 41
0.0
 42
6.2831853071795862
  0
SPLINE
  5
4D
100
AcDbEntity
  8
LIVELLO_1
 62
     7
100
AcDbSpline
210
0.0
220
0.0
230
1.0
 70
     8
 71
     3
 72
    23
 73
    19
 74
     0
 42
0.00000001
 43
0.00000001
 40
0.0
 40
0.0
 40
0.0
 40
0.0
 40
1.0
 40
1.0
 40
1.0
 40
2.0
 40
2.0
 40
2.0
 40
3.0
 40
3.0
 40
3.0
 40
4.0
 40
4.0
 40
4.0
 40
5.0
 40
5.0
 40
5.0
 40
6.0
 40
6.0
 40
6.0
 40
6.0
 10
-48.42874077690972
 20
-49.823057047526035
 30
0.0
 10
-48.42874077690972
 20
-49.823057047526035
 30
0.0
 10
-50.489080132378469
 20
-51.575232611762146
 30
0.0
 10
-50.489080132378469
 20
-53.073504638671871
 30
0.0
 10
-50.489080132378469
 20
-53.545482720269092
 30
0.0
 10
-45.039455837673607
 20
-52.568453640407981
 30
0.0
 10
-49.276062011718743
 20
-55.354846869574651
 30
0.0
 10
-52.374753146701387
 20
-57.393309868706595
 30
0.0
 10
-50.937976074218746
 20
-60.067737494574651
 30
0.0
 10
-52.609536404079854
 20
-60.067737494574651
 30
0.0
 10
-54.28643663194444
 20
-60.067737494574651
 30
0.0
 10
-52.846903483072914
 20
-57.393309868706595
 30
0.0
 10
-55.945594618055551
 20
-55.354846869574651
 30
0.0
 10
-60.179616970486109
 20
-52.568453640407981
 30
0.0
 10
-54.736710611979163
 20
-53.545482720269092
 30
0.0
 10
-54.736710611979163
 20
-53.073504638671871
 30
0.0
 10
-54.736710611979163
 20
-51.575232611762146
 30
0.0
 10
-56.792915852864581
 20
-49.823057047526035
 30
0.0
 10
-56.792915852864581
 20
-49.823057047526035
 30
0.0
  0
LINE
  5
4C
100
AcDbEntity
  8
LIVELLO_1
 62
     7
100
AcDbLine
 10
-22.486138
 20
-96.556466
 30
0.0
 11
-22.486138
 21
-81.36704
 31
0.0
  0
LINE
  5
4B
100
AcDbEntity
  8
LIVELLO_1
 62
     7
100
AcDbLine
 10
-22.318018
 20
-96.226426
 30
0.0
 11
-22.318018
 21
-81.037
 31
0.0
  0
LINE
  5
4A
100
AcDbEntity
  8
LIVELLO_1
 62
     7
100
AcDbLine
 10
-89.77781
 20
-88.628957
 30
0.0
 11
-22.289423
 21
-88.631713
 31
0.0
  0
LINE
  5
49
100
AcDbEntity
  8
LIVELLO_1
 62
     7
100
AcDbLine
 10
-134.610388
 20
-88.628957
 30
0.0
 11
-72.489977
 21
-88.631713
 31
0.0
  0
LINE
  5
48
100
AcDbEntity
  8
LIVELLO_1
 62
     7
100
AcDbLine
 10
-134.610388
 20
-96.226426
 30
0.0
 11
-134.610388
 21
-81.037
 31
0.0
  0
MTEXT
  5
47
100
AcDbEntity
  8
LIVELLO_1
 62
     7
100
AcDbMText
 10
-92.75489
 20
-69.058277
 30
0.0
 40
14.957353
 41
0.0
 71
     1
 72
     2
  1
\fArial Narrow|b0|i0;\H14.9574;\C7;\U+0034\U+0037\U+0035
  7
STD
210
0.0
220
0.0
230
1.0
 73
     1
 44
1.0
  0
LINE
  5
46
100
AcDbEntity
  8
LIVELLO_1
 62
     7
100
AcDbLine
 10
3.084394
 20
94.985847
 30
0.0
 11
3.078882
 21
21.686101
 31
0.0
  0
LINE
  5
45
100
AcDbEntity
  8
LIVELLO_1
 62
     7
100
AcDbLine
 10
-4.511697
 20
94.985847
 30
0.0
 11
10.676351
 21
94.985847
 31
0.0
  0
MTEXT
  5
44
100
AcDbEntity
  8
LIVELLO_1
 62
     7
100
AcDbMText
 10
-10.780048
 20
17.580707
 30
0.0
 40
14.957353
 41
0.0
 71
     1
 72
     2
  1
\fArial Narrow|b0|i0;\H14.9574;\C7;\U+0036\U+0038\U+0030
  7
STD
210
0.0
220
0.0
230
1.0
 73
     1
 44
1.0
  0
LINE
  5
43
100
AcDbEntity
  8
LIVELLO_1
 62
     7
100
AcDbLine
 10
-4.847249
 20
-64.641446
 30
0.0
 11
10.348722
 21
-64.641446
 31
0.0
  0
LINE
  5
42
100
AcDbEntity
  8
LIVELLO_1
 62
     7
100
AcDbLine
 10
-4.511697
 20
-64.807844
 30
0.0
 11
10.676351
 21
-64.807844
 31
0.0
  0
LINE
  5
41
100
AcDbEntity
  8
LIVELLO_1
 62
     7
100
AcDbLine
 10
3.084394
 20
-2.93703
 30
0.0
 11
3.078882
 21
-64.835061
 31
0.0
  0
LINE
  5
40
100
AcDbEntity
  8
LIVELLO_1
 62
     7
100
AcDbLine
 10
38.369751
 20
16.823349
 30
0.0
 11
38.369751
 21
-25.213362
 31
0.0
  0
LINE
  5
3F
100
AcDbEntity
  8
LIVELLO_1
 62
     7
100
AcDbLine
 10
38.372507
 20
74.022097
 30
0.0
 11
38.369751
 21
35.404816
 31
0.0
  0
LINE
  5
3E
100
AcDbEntity
  8
LIVELLO_1
 62
     7
100
AcDbLine
 10
33.059136
 20
-25.213362
 30
0.0
 11
43.678643
 21
-25.213362
 31
0.0
  0
LINE
  5
3D
100
AcDbEntity
  8
LIVELLO_1
 62
     7
100
AcDbLine
 10
33.059136
 20
74.022097
 30
0.0
 11
43.591482
 21
74.022097
 31
0.0
  0
LINE
  5
3C
100
AcDbEntity
  8
LIVELLO_1
 62
     7
100
AcDbLine
 10
103.496181
 20
87.786976
 30
0.0
 11
94.128966
 21
87.786976
 31
0.0
  0
LINE
  5
3B
100
AcDbEntity
  8
LIVELLO_1
 62
     7
100
AcDbLine
 10
103.496181
 20
91.831173
 30
0.0
 11
103.496181
 21
83.745362
 31
0.0
  0
LINE
  5
3A
100
AcDbEntity
  8
LIVELLO_1
 62
     7
100
AcDbLine
 10
58.198343
 20
87.786976
 30
0.0
 11
66.413862
 21
87.786976
 31
0.0
  0
LINE
  5
39
100
AcDbEntity
  8
LIVELLO_1
 62
     7
100
AcDbLine
 10
58.198343
 20
83.745362
 30
0.0
 11
58.198343
 21
91.831173
 31
0.0
  0
MTEXT
  5
38
100
AcDbEntity
  8
LIVELLO_1
 62
     7
100
AcDbMText
 10
29.796631
 20
33.071109
 30
0.0
 40
10.452765
 41
0.0
 71
     1
 72
     2
  1
\fArial Narrow|b0|i0;\H10.4528;\C7;\U+0032\U+0034\U+0035
  7
STD
210
0.0
220
0.0
230
1.0
 73
     1
 44
1.0
  0
LINE
  5
37
100
AcDbEntity
  8
LIVELLO_1
 62
     7
100
AcDbLine
 10
125.782159
 20
11.185105
 30
0.0
 11
125.782159
 21
-11.778868
 31
0.0
  0
LINE
  5
36
100
AcDbEntity
  8
LIVELLO_1
 62
     7
100
AcDbLine
 10
125.784915
 20
56.079178
 30
0.0
 11
125.782159
 21
29.772085
 31
0.0
  0
LINE
  5
35
100
AcDbEntity
  8
LIVELLO_1
 62
     7
100
AcDbLine
 10
87.267025
 20
-11.778868
 30
0.0
 11
131.091051
 21
-11.778868
 31
0.0
  0
LINE
  5
34
100
AcDbEntity
  8
LIVELLO_1
 62
     7
100
AcDbLine
 10
87.267025
 20
56.079178
 30
0.0
 11
131.008024
 21
56.079178
 31
0.0
  0
MTEXT
  5
33
100
AcDbEntity
  8
LIVELLO_1
 62
     7
100
AcDbMText
 10
117.27863
 20
27.435621
 30
0.0
 40
10.452765
 41
0.0
 71
     1
 72
     2
  1
\fArial Narrow|b0|i0;\H10.4528;\C7;\U+0031\U+0036\U+0039
  7
STD
210
0.0
220
0.0
230
1.0
 73
     1
 44
1.0
  0
CIRCLE
  5
32
100
AcDbEntity
  8
LIVELLO_1
 62
     7
100
AcDbCircle
 10
81.130276
 20
-11.467775
 30
0.0
 40
2.249303
  0
CIRCLE
  5
31
100
AcDbEntity
  8
LIVELLO_1
 62
     7
100
AcDbCircle
 10
81.131654
 20
25.550465
 30
0.0
 40
4.500673
  0
CIRCLE
  5
30
100
AcDbEntity
  8
LIVELLO_1
 62
     7
100
AcDbCircle
 10
81.130276
 20
55.738114
 30
0.0
 40
2.249303
  0
SPLINE
  5
2F
100
AcDbEntity
  8
LIVELLO_1
 62
     7
100
AcDbSpline
210
0.0
220
0.0
230
1.0
 70
     8
 71
     3
 72
    59
 73
    55
 74
     0
 42
0.00000001
 43
0.00000001
 40
0.0
 40
0.0
 40
0.0
 40
0.0
 40
1.0
 40
1.0
 40
1.0
 40
2.0
 40
2.0
 40
2.0
 40
3.0
 40
3.0
 40
3.0
 40
4.0
 40
4.0
 40
4.0
 40
5.0
 40
5.0
 40
5.0
 40
6.0
 40
6.0
 40
6.0
 40
7.0
 40
7.0
 40
7.0
 40
8.0
 40
8.0
 40
8.0
 40
9.0
 40
9.0
 40
9.0
 40
10.0
 40
10.0
 40
10.0
 40
11.0
 40
11.0
 40
11.0
 40
12.0
 40
12.0
 40
12.0
 40
13.0
 40
13.0
 40
13.0
 40
14.0
 40
14.0
 40
14.0
 40
15.0
 40
15.0
 40
15.0
 40
16.0
 40
16.0
 40
16.0
 40
17.0
 40
17.0
 40
17.0
 40
18.0
 40
18.0
 40
18.0
 40
18.0
 10
70.044647894965266
 20
-13.659200710720485
 30
0.0
 10
70.044647894965266
 20
-13.659200710720485
 30
0.0
 10
69.100347222222211
 20
-13.309868028428818
 30
0.0
 10
69.100347222222211
 20
-13.309868028428818
 30
0.0
 10
69.100347222222211
 20
-13.309868028428818
 30
0.0
 10
65.498155381944443
 20
56.791451687282979
 30
0.0
 10
65.498155381944443
 20
56.791451687282979
 30
0.0
 10
65.498155381944443
 20
56.791451687282979
 30
0.0
 10
66.357706705729157
 20
57.247237820095478
 30
0.0
 10
66.357706705729157
 20
57.247237820095478
 30
0.0
 10
70.599997287326389
 20
59.506703694661454
 30
0.0
 10
74.5570339626736
 20
62.388526068793396
 30
0.0
 10
77.583205837673603
 20
64.814562310112848
 30
0.0
 10
78.508558485243043
 20
65.554224310980899
 30
0.0
 10
79.363975694444434
 20
66.266325547960065
 30
0.0
 10
80.134988064236097
 20
66.926750352647559
 30
0.0
 10
80.134988064236097
 20
66.926750352647559
 30
0.0
 10
81.129587131076377
 20
67.778205702039926
 30
0.0
 10
81.129587131076377
 20
67.778205702039926
 30
0.0
 10
81.129587131076377
 20
67.778205702039926
 30
0.0
 10
82.126942274305549
 20
66.926750352647559
 30
0.0
 10
82.126942274305549
 20
66.926750352647559
 30
0.0
 10
82.896576605902766
 20
66.266325547960065
 30
0.0
 10
83.750615776909711
 20
65.554224310980899
 30
0.0
 10
84.675968424479166
 20
64.814562310112848
 30
0.0
 10
87.702140299479154
 20
62.388526068793396
 30
0.0
 10
91.661933051215271
 20
59.504119873046868
 30
0.0
 10
95.904223632812489
 20
57.247237820095478
 30
0.0
 10
95.904223632812489
 20
57.247237820095478
 30
0.0
 10
96.765152994791663
 20
56.791451687282979
 30
0.0
 10
96.765152994791663
 20
56.791451687282979
 30
0.0
 10
96.765152994791663
 20
56.791451687282979
 30
0.0
 10
93.160205078124989
 20
-13.309868028428818
 30
0.0
 10
93.160205078124989
 20
-13.309868028428818
 30
0.0
 10
93.160205078124989
 20
-13.309868028428818
 30
0.0
 10
92.215904405381934
 20
-13.661956787109373
 30
0.0
 10
92.215904405381934
 20
-13.661956787109373
 30
0.0
 10
91.712575954861109
 20
-13.85005900065104
 30
0.0
 10
91.1761745876736
 20
-14.057453748914929
 30
0.0
 10
90.611178927951386
 20
-14.292064751519096
 30
0.0
 10
88.16619466145832
 20
-15.301822238498263
 30
0.0
 10
85.13967827690972
 20
-16.781146240234374
 30
0.0
 10
81.985004340277769
 20
-18.887822129991317
 30
0.0
 10
81.985004340277769
 20
-18.887822129991317
 30
0.0
 10
81.13509928385416
 20
-19.452817789713539
 30
0.0
 10
81.13509928385416
 20
-19.452817789713539
 30
0.0
 10
81.13509928385416
 20
-19.452817789713539
 30
0.0
 10
80.286227756076386
 20
-18.887822129991317
 30
0.0
 10
80.286227756076386
 20
-18.887822129991317
 30
0.0
 10
77.127419704861097
 20
-16.781146240234374
 30
0.0
 10
74.098491753472217
 20
-15.301822238498263
 30
0.0
 10
71.653162977430554
 20
-14.289653184678818
 30
0.0
 10
71.087133789062491
 20
-14.057453748914929
 30
0.0
 10
70.549354383680551
 20
-13.85005900065104
 30
0.0
 10
70.044647894965266
 20
-13.659200710720485
 30
0.0
  0
SPLINE
  5
2E
100
AcDbEntity
  8
LIVELLO_1
 62
     7
100
AcDbSpline
210
0.0
220
0.0
230
1.0
 70
     8
 71
     3
 72
    35
 73
    31
 74
     0
 42
0.00000001
 43
0.00000001
 40
0.0
 40
0.0
 40
0.0
 40
0.0
 40
1.0
 40
1.0
 40
1.0
 40
2.0
 40
2.0
 40
2.0
 40
3.0
 40
3.0
 40
3.0
 40
4.0
 40
4.0
 40
4.0
 40
5.0
 40
5.0
 40
5.0
 40
6.0
 40
6.0
 40
6.0
 40
7.0
 40
7.0
 40
7.0
 40
8.0
 40
8.0
 40
8.0
 40
9.0
 40
9.0
 40
9.0
 40
10.0
 40
10.0
 40
10.0
 40
10.0
 10
72.237451171874994
 20
-12.875785997178818
 30
0.0
 10
71.653162977430554
 20
-12.632906765407984
 30
0.0
 10
71.097813585069431
 20
-12.41758829752604
 30
0.0
 10
70.577948676215271
 20
-12.226385498046874
 30
0.0
 10
70.577948676215271
 20
-12.226385498046874
 30
0.0
 10
67.076698133680551
 20
55.896415879991316
 30
0.0
 10
67.076698133680551
 20
55.896415879991316
 30
0.0
 10
71.436466471354166
 20
58.215998670789922
 30
0.0
 10
75.47652994791666
 20
61.163277859157979
 30
0.0
 10
78.542664930555546
 20
63.619286431206589
 30
0.0
 10
79.48110894097222
 20
64.369800482855894
 30
0.0
 10
80.350306532118054
 20
65.092926025390625
 30
0.0
 10
81.129587131076377
 20
65.761619059244779
 30
0.0
 10
81.91265733506944
 20
65.092926025390625
 30
0.0
 10
82.781854926215274
 20
64.369800482855894
 30
0.0
 10
83.717887369791654
 20
63.619286431206589
 30
0.0
 10
86.782644314236109
 20
61.163277859157979
 30
0.0
 10
90.824085828993049
 20
58.215998670789922
 30
0.0
 10
95.183509657118051
 20
55.896415879991316
 30
0.0
 10
95.183509657118051
 20
55.896415879991316
 30
0.0
 10
91.680881076388886
 20
-12.226385498046874
 30
0.0
 10
91.680881076388886
 20
-12.226385498046874
 30
0.0
 10
91.162394205729157
 20
-12.41758829752604
 30
0.0
 10
90.608422851562494
 20
-12.635662841796874
 30
0.0
 10
90.024479166666652
 20
-12.875785997178818
 30
0.0
 10
87.507147894965271
 20
-13.91827189127604
 30
0.0
 10
84.39071451822916
 20
-15.441004096137151
 30
0.0
 10
81.13509928385416
 20
-17.61072523328993
 30
0.0
 10
77.876727973090269
 20
-15.438248019748263
 30
0.0
 10
74.758916558159711
 20
-13.915515814887151
 30
0.0
 10
72.237451171874994
 20
-12.875785997178818
 30
0.0
  0
SPLINE
  5
2D
100
AcDbEntity
  8
LIVELLO_1
 62
     7
100
AcDbSpline
210
0.0
220
0.0
230
1.0
 70
     8
 71
     3
 72
    41
 73
    37
 74
     0
 42
0.00000001
 43
0.00000001
 40
0.0
 40
0.0
 40
0.0
 40
0.0
 40
1.0
 40
1.0
 40
1.0
 40
2.0
 40
2.0
 40
2.0
 40
3.0
 40
3.0
 40
3.0
 40
4.0
 40
4.0
 40
4.0
 40
5.0
 40
5.0
 40
5.0
 40
6.0
 40
6.0
 40
6.0
 40
7.0
 40
7.0
 40
7.0
 40
8.0
 40
8.0
 40
8.0
 40
9.0
 40
9.0
 40
9.0
 40
10.0
 40
10.0
 40
10.0
 40
11.0
 40
11.0
 40
11.0
 40
12.0
 40
12.0
 40
12.0
 40
12.0
 10
80.620746527777769
 20
-25.710144721137151
 30
0.0
 10
87.657354058159711
 20
-24.793404812282983
 30
0.0
 10
89.400916883680551
 20
-25.581987169053818
 30
0.0
 10
91.449026150173609
 20
-22.656412082248263
 30
0.0
 10
94.373223198784714
 20
-18.481300862630206
 30
0.0
 10
97.572683376736109
 20
-16.78665839301215
 30
0.0
 10
97.572683376736109
 20
-16.78665839301215
 30
0.0
 10
97.572683376736109
 20
-16.78665839301215
 30
0.0
 10
101.5011257595486
 20
59.665005832248255
 30
0.0
 10
101.5011257595486
 20
59.665005832248255
 30
0.0
 10
98.970014105902763
 20
60.704735649956589
 30
0.0
 10
97.863449435763883
 20
62.702374267578122
 30
0.0
 10
96.988739691840266
 20
64.970108371310758
 30
0.0
 10
96.48541124131944
 20
66.271837700737848
 30
0.0
 10
96.927416992187489
 20
68.293936496310764
 30
0.0
 10
95.797770182291657
 20
69.246333143446179
 30
0.0
 10
90.856814236111106
 20
73.419032796223945
 30
0.0
 10
81.129587131076377
 20
74.022096761067701
 30
0.0
 10
81.129587131076377
 20
74.022096761067701
 30
0.0
 10
81.129587131076377
 20
74.022096761067701
 30
0.0
 10
70.474251302083331
 20
73.727368842230902
 30
0.0
 10
66.63744845920138
 20
69.396539306640619
 30
0.0
 10
66.05074869791666
 20
68.736114501953125
 30
0.0
 10
65.944295247395829
 20
69.006209988064228
 30
0.0
 10
65.821649848090274
 20
68.168535020616318
 30
0.0
 10
65.282492404513889
 20
64.503470187717014
 30
0.0
 10
64.3095974392361
 20
61.122281222873255
 30
0.0
 10
60.758048502604161
 20
59.665005832248255
 30
0.0
 10
60.758048502604161
 20
59.665005832248255
 30
0.0
 10
64.687524414062494
 20
-16.78665839301215
 30
0.0
 10
64.687524414062494
 20
-16.78665839301215
 30
0.0
 10
64.687524414062494
 20
-16.78665839301215
 30
0.0
 10
67.703016493055543
 20
-17.777123345269096
 30
0.0
 10
69.898575846354163
 20
-22.260915120442707
 30
0.0
 10
71.466438802083331
 20
-25.456241183810761
 30
0.0
 10
73.911423068576383
 20
-24.643198649088539
 30
0.0
 10
80.620746527777769
 20
-25.710144721137151
 30
0.0
  0
MTEXT
  5
2C
100
AcDbEntity
  8
LIVELLO_1
 62
     7
100
AcDbMText
 10
69.915112
 20
94.741044
 30
0.0
 40
11.851443
 41
0.0
 71
     1
 72
     2
  1
\fArial Narrow|b0|i0;\H11.8514;\C7;\U+0031\H11.8514;\U+0031\H11.8514;\U+0030
  7
STD
210
0.0
220
0.0
230
1.0
 73
     1
 44
1.0
  0
ENDBLK
  5
134
100
AcDbEntity
  8
LIVELLO_1
100
AcDbBlockEnd
  0
ENDSEC
  0
SECTION
  2
ENTITIES
  0
INSERT
  5
2A
100
AcDbEntity
  8
LIVELLO_1
 62
     7
100
AcDbBlockReference
  2
AI9-BLK1
 10
136.498817
 20
96.556466
 30
0.0
  0
ENDSEC
  0
SECTION
  2
OBJECTS
  0
DICTIONARY
  5
19
100
AcDbDictionary
280
     0
281
     1
  3
ACAD_GROUP
350
1A
  3
ACAD_MLINESTYLE
350
1B
  3
ACAD_LAYOUT
350
1E
  3
ACAD_PLOTSETTINGS
350
22
  3
ACAD_PLOTSTYLENAME
350
1F
  3
ACAD_WIPEOUT_VARS
350
23
  0
DICTIONARY
  5
1A
102
{ACAD_REACTORS
330
19
102
}
100
AcDbDictionary
280
     0
281
     1
  0
DICTIONARY
  5
1B
102
{ACAD_REACTORS
330
19
102
}
100
AcDbDictionary
280
     0
281
     1
  3
Standard
350
1C
  0
MLINESTYLE
  5
1C
102
{ACAD_REACTORS
330
1B
102
}
100
AcDbMlineStyle
  2
Standard
 70
     0
  3

 62
     0
 51
90.0
 52
90.0
 71
     2
 49
0.5
 62
   256
  6
ByLayer
 49
-0.5
 62
   256
  6
ByLayer
  0
ACDBDICTIONARYWDFLT
  5
1F
102
{ACAD_REACTORS
330
19
102
}
100
AcDbDictionary
281
     1
  3
Normal
350
1D
100
AcDbDictionaryWithDefault
340
1D
  0
ACDBPLACEHOLDER
  5
1D
102
{ACAD_REACTORS
330
1F
102
}
  0
LAYOUT
  5
20
102
{ACAD_REACTORS
330
1E
102
}
100
AcDbPlotSettings
  1

  2

  4

  6

 40
0.0
 41
0.0
 42
0.0
 43
0.0
 44
0.0
 45
0.0
 46
0.0
 47
0.0
 48
0.0
 49
0.0
140
0.0
141
0.0
142
1.0
143
1.0
 70
  1024
 72
     0
 73
     0
 74
     0
  7

 75
     0
147
1.0
148
0.0
149
0.0
100
AcDbLayout
  1
Model
 70
     0
 71
     0
 10
0.0
 20
0.0
 11
0.0
 21
0.0
 12
0.0
 22
0.0
 32
0.0
 14
0.0
 24
0.0
 34
0.0
 15
0.0
 25
0.0
 35
0.0
146
0.0
 13
0.0
 23
0.0
 33
0.0
 16
0.0
 26
0.0
 36
0.0
 17
0.0
 27
0.0
 37
0.0
 76
     0
330
A
331
0
345
0
346
0
  0
LAYOUT
  5
21
102
{ACAD_REACTORS
330
1E
102
}
100
AcDbPlotSettings
  1

  2

  4

  6

 40
0.0
 41
0.0
 42
0.0
 43
0.0
 44
0.0
 45
0.0
 46
0.0
 47
0.0
 48
0.0
 49
0.0
140
0.0
141
0.0
142
1.0
143
1.0
 70
     0
 72
     0
 73
     0
 74
     0
  7

 75
     0
147
1.0
148
0.0
149
0.0
100
AcDbLayout
  1
Layout1
 70
     0
 71
     0
 10
0.0
 20
0.0
 11
0.0
 21
0.0
 12
0.0
 22
0.0
 32
0.0
 14
0.0
 24
0.0
 34
0.0
 15
0.0
 25
0.0
 35
0.0
146
0.0
 13
0.0
 23
0.0
 33
0.0
 16
0.0
 26
0.0
 36
0.0
 17
0.0
 27
0.0
 37
0.0
 76
     0
330
B
331
0
345
0
346
0
  0
DICTIONARY
  5
1E
102
{ACAD_REACTORS
330
19
102
}
100
AcDbDictionary
280
     0
281
     1
  3
Layout1
350
21
  3
Model
350
20
  0
DICTIONARY
  5
22
102
{ACAD_REACTORS
330
19
102
}
100
AcDbDictionary
280
     0
281
     1
  0
WIPEOUTVARIABLES
  5
23
100
AcDbWipeoutVariables
 70
     1
  0
ENDSEC
  0
EOF
