  0
SECTION
  2
HEADER
  9
$ACADVER
  1
AC1015
  9
$ACADMAINTVER
 70
     6
  9
$DWGCODEPAGE
  3
ANSI_932
  9
$INSBASE
 10
0.0
 20
0.0
 30
0.0
  9
$EXTMIN
 10
0.0
 20
0.0
 30
1.000000E+20
  9
$EXTMAX
 10
168.314274
 20
144.983054
 30
-1.000000E+20
  9
$LIMMIN
 10
0.0
 20
0.0
  9
$LIMMAX
 10
168.314274
 20
144.983054
  9
$ORTHOMODE
 70
     0
  9
$REGENMODE
 70
     1
  9
$FILLMODE
 70
     1
  9
$QTEXTMODE
 70
     0
  9
$MIRRTEXT
 70
     1
  9
$LTSCALE
 40
1.0
  9
$ATTMODE
 70
     1
  9
$TEXTSIZE
 40
0.2
  9
$TRACEWID
 40
0.05
  9
$TEXTSTYLE
  7
Standard
  9
$CLAYER
  8
0
  9
$CELTYPE
  6
Continuous
  9
$CECOLOR
 62
   256
  9
$CELTSCALE
 40
1.0
  9
$DISPSILH
 70
     0
  9
$DIMSCALE
 40
1.0
  9
$DIMASZ
 40
0.18
  9
$DIMEXO
 40
0.0625
  9
$DIMDLI
 40
0.38
  9
$DIMRND
 40
0.0
  9
$DIMDLE
 40
0.0
  9
$DIMEXE
 40
0.18
  9
$DIMTP
 40
0.0
  9
$DIMTM
 40
0.0
  9
$DIMTXT
 40
0.18
  9
$DIMCEN
 40
0.09
  9
$DIMTSZ
 40
0.0
  9
$DIMTOL
 70
     0
  9
$DIMLIM
 70
     0
  9
$DIMTIH
 70
     1
  9
$DIMTOH
 70
     1
  9
$DIMSE1
 70
     0
  9
$DIMSE2
 70
     0
  9
$DIMTAD
 70
     0
  9
$DIMZIN
 70
     0
  9
$DIMBLK
  1

  9
$DIMASO
 70
     1
  9
$DIMSHO
 70
     1
  9
$DIMPOST
  1

  9
$DIMAPOST
  1

  9
$DIMALT
 70
     0
  9
$DIMALTD
 70
     2
  9
$DIMALTF
 40
25.4
  9
$DIMLFAC
 40
1.0
  9
$DIMTOFL
 70
     0
  9
$DIMTVP
 40
0.0
  9
$DIMTIX
 70
     0
  9
$DIMSOXD
 70
     0
  9
$DIMSAH
 70
     0
  9
$DIMBLK1
  1

  9
$DIMBLK2
  1

  9
$DIMSTYLE
  2
Standard
  9
$DIMCLRD
 70
     0
  9
$DIMCLRE
 70
     0
  9
$DIMCLRT
 70
     0
  9
$DIMTFAC
 40
1.0
  9
$DIMGAP
 40
0.09
  9
$DIMJUST
 70
     0
  9
$DIMSD1
 70
     0
  9
$DIMSD2
 70
     0
  9
$DIMTOLJ
 70
     1
  9
$DIMTZIN
 70
     0
  9
$DIMALTZ
 70
     0
  9
$DIMALTTZ
 70
     0
  9
$DIMUPT
 70
     0
  9
$DIMDEC
 70
     4
  9
$DIMTDEC
 70
     4
  9
$DIMALTU
 70
     2
  9
$DIMALTTD
 70
     2
  9
$DIMTXSTY
  7
Standard
  9
$DIMAUNIT
 70
     0
  9
$DIMADEC
 70
     0
  9
$DIMALTRND
 40
0.0
  9
$DIMAZIN
 70
     0
  9
$DIMDSEP
 70
     0
  9
$DIMATFIT
 70
     3
  9
$DIMFRAC
 70
     0
  9
$DIMLDRBLK
  1

  9
$DIMLUNIT
 70
     2
  9
$DIMLWD
 70
     0
  9
$DIMLWE
 70
     0
  9
$DIMTMOVE
 70
     0
  9
$LUNITS
 70
     2
  9
$LUPREC
 70
     4
  9
$SKETCHINC
 40
0.1
  9
$FILLETRAD
 40
0.0
  9
$AUNITS
 70
     0
  9
$AUPREC
 70
     0
  9
$MENU
  1
acad
  9
$ELEVATION
 40
0.0
  9
$PELEVATION
 40
0.0
  9
$THICKNESS
 40
0.0
  9
$LIMCHECK
 70
     0
  9
$CHAMFERA
 40
0.0
  9
$CHAMFERB
 40
0.0
  9
$CHAMFERC
 40
0.0
  9
$CHAMFERD
 40
0.0
  9
$SKPOLY
 70
     0
  9
$TDCREATE
 40
0.000000000
  9
$TDUCREATE
 40
0.000000000
  9
$TDUPDATE
 40
0.000000000
  9
$TDUUPDATE
 40
0.000000000
  9
$TDINDWG
 40
0.0000000000
  9
$TDUSRTIMER
 40
0.0000000000
  9
$USRTIMER
 70
     1
  9
$ANGBASE
 50
0.0
  9
$ANGDIR
 70
     0
  9
$PDMODE
 70
     0
  9
$PDSIZE
 40
0.0
  9
$PLINEWID
 40
0.0
  9
$SPLFRAME
 70
     0
  9
$SPLINETYPE
 70
     6
  9
$SPLINESEGS
 70
     8
  9
$HANDSEED
  5
8A
  9
$SURFTAB1
 70
     6
  9
$SURFTAB2
 70
     6
  9
$SURFTYPE
 70
     6
  9
$SURFU
 70
     6
  9
$SURFV
 70
     6
  9
$UCSBASE
  2

  9
$UCSNAME
  2

  9
$UCSORG
 10
0.0
 20
0.0
 30
0.0
  9
$UCSXDIR
 10
1.0
 20
0.0
 30
0.0
  9
$UCSYDIR
 10
0.0
 20
1.0
 30
0.0
  9
$UCSORTHOREF
  2

  9
$UCSORTHOVIEW
 70
     0
  9
$UCSORGTOP
 10
0.0
 20
0.0
 30
0.0
  9
$UCSORGBOTTOM
 10
0.0
 20
0.0
 30
0.0
  9
$UCSORGLEFT
 10
0.0
 20
0.0
 30
0.0
  9
$UCSORGRIGHT
 10
0.0
 20
0.0
 30
0.0
  9
$UCSORGFRONT
 10
0.0
 20
0.0
 30
0.0
  9
$UCSORGBACK
 10
0.0
 20
0.0
 30
0.0
  9
$PUCSBASE
  2

  9
$PUCSNAME
  2

  9
$PUCSORG
 10
0.0
 20
0.0
 30
0.0
  9
$PUCSXDIR
 10
1.0
 20
0.0
 30
0.0
  9
$PUCSYDIR
 10
0.0
 20
1.0
 30
0.0
  9
$PUCSORTHOREF
  2

  9
$PUCSORTHOVIEW
 70
     0
  9
$PUCSORGTOP
 10
0.0
 20
0.0
 30
0.0
  9
$PUCSORGBOTTOM
 10
0.0
 20
0.0
 30
0.0
  9
$PUCSORGLEFT
 10
0.0
 20
0.0
 30
0.0
  9
$PUCSORGRIGHT
 10
0.0
 20
0.0
 30
0.0
  9
$PUCSORGFRONT
 10
0.0
 20
0.0
 30
0.0
  9
$PUCSORGBACK
 10
0.0
 20
0.0
 30
0.0
  9
$USERI1
 70
     0
  9
$USERI2
 70
     0
  9
$USERI3
 70
     0
  9
$USERI4
 70
     0
  9
$USERI5
 70
     0
  9
$USERR1
 40
0.0
  9
$USERR2
 40
0.0
  9
$USERR3
 40
0.0
  9
$USERR4
 40
0.0
  9
$USERR5
 40
0.0
  9
$WORLDVIEW
 70
     1
  9
$SHADEDGE
 70
     3
  9
$SHADEDIF
 70
    70
  9
$TILEMODE
 70
     1
  9
$MAXACTVP
 70
    16
  9
$PINSBASE
 10
0.0
 20
0.0
 30
0.0
  9
$PLIMCHECK
 70
     0
  9
$PEXTMIN
 10
1.000000E+20
 20
1.000000E+20
 30
1.000000E+20
  9
$PEXTMAX
 10
-1.000000E+20
 20
-1.000000E+20
 30
-1.000000E+20
  9
$PLIMMIN
 10
0.0
 20
0.0
  9
$PLIMMAX
 10
12.0
 20
9.0
  9
$UNITMODE
 70
     0
  9
$VISRETAIN
 70
     0
  9
$PLINEGEN
 70
     1
  9
$PSLTSCALE
 70
     0
  9
$TREEDEPTH
 70
  3020
  9
$CMLSTYLE
  2
Standard
  9
$CMLJUST
 70
     0
  9
$CMLSCALE
 40
1.0
  9
$PROXYGRAPHICS
 70
     0
  9
$MEASUREMENT
 70
     1
  9
$CELWEIGHT
370
     0
  9
$ENDCAPS
280
     0
  9
$JOINSTYLE
280
     0
  9
$LWDISPLAY
290
     0
  9
$INSUNITS
 70
     0
  9
$HYPERLINKBASE
  1

  9
$STYLESHEET
  1

  9
$XEDIT
290
     1
  9
$CEPSNTYPE
380
     0
  9
$PSTYLEMODE
290
     1
  9
$FINGERPRINTGUID
  2

  9
$VERSIONGUID
  2

  9
$EXTNAMES
290
     1
  9
$PSVPSCALE
 40
0.0
  0
ENDSEC
  0
SECTION
  2
CLASSES
  0
CLASS
  1
LWPOLYLINE
  2
AcDbPolyline
  3
AutoCAD 2000
 90
    32768
280
     0
281
     1
  0
CLASS
  1
IMAGE
  2
AcDbRasterImage
  3
ISM
 90
    32895
280
     0
281
     1
  0
CLASS
  1
OLE2FRAME
  2
AcDbOle2Frame
  3
AutoCAD 2000
 90
    32768
280
     0
281
     1
  0
CLASS
  1
HATCH
  2
AcDbHatch
  3
AutoCAD 2000
 90
    32768
280
     0
281
     1
  0
CLASS
  1
DICTIONARYVAR
  2
AcDbDictionaryVar
  3
AutoCAD 2000
 90
    32768
280
     0
281
     0
  0
CLASS
  1
RASTERVARIABLES
  2
AcDbRasterVariables
  3
ISM
 90
    32768
280
     0
281
     0
  0
CLASS
  1
IMAGEDEF
  2
AcDbRasterImageDef
  3
ISM
 90
    32768
280
     0
281
     0
  0
CLASS
  1
IMAGEDEF_REACTOR
  2
AcDbRasterImageDefReactor
  3
ISM
 90
    32769
280
     0
281
     0
  0
CLASS
  1
IDBUFFER
  2
AcDbIdBuffer
  3
AutoCAD 2000
 90
    32768
280
     0
281
     0
  0
CLASS
  1
SPATIAL_FILTER
  2
AcDbSpatialFilter
  3
AutoCAD 2000
 90
    32768
280
     0
281
     0
  0
CLASS
  1
XRECORD
  2
AcDbXrecord
  3
AutoCAD 2000
 90
    32768
280
     0
281
     0
  0
CLASS
  1
SORTENTSTABLE
  2
AcDbSortentsTable
  3
AutoCAD 2000
 90
    32768
280
     0
281
     0
  0
CLASS
  1
LAYER_INDEX
  2
AcDbLayerIndex
  3
AutoCAD 2000
 90
    32768
280
     0
281
     0
  0
CLASS
  1
SPATIAL_INDEX
  2
AcDbSpatialIndex
  3
AutoCAD 2000
 90
    32768
280
     0
281
     0
  0
CLASS
  1
OBJECT_PTR
  2
CAseDLPNTableRecord
  3
"ASE-LPNTableRecord"
 90
    32769
280
     0
281
     0
  0
CLASS
  1
LAYOUT
  2
AcDbLayout
  3
AutoCAD 2000
 90
        0
280
     0
281
     0
  0
CLASS
  1
PLOTSETTINGS
  2
AcDbPlotSettings
  3
AutoCAD 2000
 90
    32768
280
     0
281
     0
  0
CLASS
  1
ACDBDICTIONARYWDFLT
  2
AcDbDictionaryWithDefault
  3
AutoCAD 2000
 90
        0
280
     0
281
     0
  0
CLASS
  1
ACDBPLACEHOLDER
  2
AcDbPlaceHolder
  3
AutoCAD 2000
 90
        0
280
     0
281
     0
  0
CLASS
  1
VBA_PROJECT
  2
AcDbVbaProject
  3
acadvba
 90
    32768
280
     0
281
     0
  0
CLASS
  1
WIPEOUT
  2
AcDbWipeout
  3
WipeOut|AutoCAD Express Tool|expresstools@autodesk.com
 90
    32895
280
     0
281
     1
  0
CLASS
  1
WIPEOUTVARIABLES
  2
AcDbWipeoutVariables
  3
WipeOut|AutoCAD Express Tool|expresstools@autodesk.com
 90
        0
280
     0
281
     0
  0
CLASS
  1
RTEXT
  2
RText
  3
RText|AutoCAD Express Tool|expresstools@autodesk.com
 90
    32768
280
     0
281
     1
  0
CLASS
  1
ARCALIGNEDTEXT
  2
AcDbArcAlignedText
  3
ATEXT|AutoCAD Express Tool|expresstools@autodesk.com
 90
    32768
280
     0
281
     1
  0
ENDSEC
  0
SECTION
  2
TABLES
  0
TABLE
  2
VPORT
  5
7
100
AcDbSymbolTable
 70
     1
  0
VPORT
  5
15
100
AcDbSymbolTableRecord
100
AcDbViewportTableRecord
  2
*ACTIVE
 70
     0
 10
0.0
 20
0.0
 11
1.0
 21
1.0
 12
6.591288
 22
4.579184
 13
0.0
 23
0.0
 14
1.0
 24
1.0
 15
0.0
 25
0.0
 16
0.0
 26
0.0
 36
1.0
 17
0.0
 27
0.0
 37
0.0
 40
9.158369
 41
0.688564
 42
50.0
 43
0.0
 44
0.0
 50
0.0
 51
0.0
 71
     0
 72
   100
 73
     1
 74
     1
 75
     0
 76
     0
 77
     0
 78
     0
281
     0
 65
     0
110
0.0
120
0.0
130
0.0
111
1.0
121
0.0
131
0.0
112
0.0
122
1.0
132
0.0
345
0
346
0
 79
     0
146
0.0
  0
ENDTAB
  0
TABLE
  2
LTYPE
  5
4
100
AcDbSymbolTable
 70
     3
  0
LTYPE
  5
11
100
AcDbSymbolTableRecord
100
AcDbLinetypeTableRecord
  2
ByBlock
 70
    64
  3

 72
    65
 73
     0
 40
0.0
  0
LTYPE
  5
12
100
AcDbSymbolTableRecord
100
AcDbLinetypeTableRecord
  2
ByLayer
 70
    64
  3

 72
    65
 73
     0
 40
0.0
  0
LTYPE
  5
13
100
AcDbSymbolTableRecord
100
AcDbLinetypeTableRecord
  2
Continuous
 70
    64
  3
Solid line
 72
    65
 73
     0
 40
0.0
  0
ENDTAB
  0
TABLE
  2
LAYER
  5
2
100
AcDbSymbolTable
 70
     2
  0
LAYER
  5
14
100
AcDbSymbolTableRecord
100
AcDbLayerTableRecord
  2
0
 70
     0
 62
     7
  6
Continuous
290
     1
370
    -3
390
1D
  0
LAYER
  5
28
100
AcDbSymbolTableRecord
100
AcDbLayerTableRecord
  2
LIVELLO_1
 70
     0
 62
   160
  6
Continuous
290
     1
370
    -3
390
1D
  0
ENDTAB
  0
TABLE
  2
STYLE
  5
3
100
AcDbSymbolTable
 70
     5
  0
STYLE
  5
17
100
AcDbSymbolTableRecord
100
AcDbTextStyleTableRecord
  2
Standard
 70
     0
 40
0.0
 41
1.0
 50
0.0
 71
     0
 42
0.0
  3
txt
  4

  0
STYLE
  5
24
100
AcDbSymbolTableRecord
100
AcDbTextStyleTableRecord
  2
STD
 70
     0
 40
0.0
 41
1.0
 50
0.0
 71
     0
 42
0.0
  3
txt
  4

  0
STYLE
  5
25
100
AcDbSymbolTableRecord
100
AcDbTextStyleTableRecord
  2
TATESTD
 70
     4
 40
0.0
 41
1.0
 50
0.0
 71
     0
 42
0.0
  3
txt
  4

  0
STYLE
  5
26
100
AcDbSymbolTableRecord
100
AcDbTextStyleTableRecord
  2
KANJISTD
 70
     0
 40
0.0
 41
1.0
 50
0.0
 71
     0
 42
0.0
  3
txt
  4
extfont
  0
STYLE
  5
27
100
AcDbSymbolTableRecord
100
AcDbTextStyleTableRecord
  2
KANJITATE
 70
     4
 40
0.0
 41
1.0
 50
0.0
 71
     0
 42
0.0
  3
txt
  4
extfont
  0
ENDTAB
  0
TABLE
  2
VIEW
  5
5
100
AcDbSymbolTable
 70
     0
  0
ENDTAB
  0
TABLE
  2
UCS
  5
6
100
AcDbSymbolTable
 70
     0
  0
ENDTAB
  0
TABLE
  2
APPID
  5
8
100
AcDbSymbolTable
 70
     1
  0
APPID
  5
16
100
AcDbSymbolTableRecord
100
AcDbRegAppTableRecord
  2
ACAD
 70
     0
  0
ENDTAB
  0
TABLE
  2
DIMSTYLE
  5
9
100
AcDbSymbolTable
 70
     1
100
AcDbDimStyleTable
 71
     0
  0
DIMSTYLE
105
18
100
AcDbSymbolTableRecord
100
AcDbDimStyleTableRecord
  2
Standard
 70
     0
  3

  4

 40
1.0
 41
0.18
 42
0.0625
 43
0.38
 44
0.18
 45
0.0
 46
0.0
 47
0.0
 48
0.0
 71
     0
 72
     0
 73
     1
 74
     1
 75
     0
 76
     0
 77
     0
 78
     0
 79
     0
140
0.18
141
0.09
142
0.0
143
25.4
144
1.0
145
0.0
146
1.0
147
0.09
148
0.0
170
     0
171
     2
172
     0
173
     0
174
     0
175
     0
176
     0
177
     0
178
     0
179
     0
271
     4
272
     4
273
     2
274
     2
275
     0
276
     0
277
     2
278
    46
279
     0
280
     0
281
     0
282
     0
283
     1
284
     0
285
     0
286
     0
288
     0
340
17
341
0
342
0
343
0
344
0
371
    -2
372
    -2
  0
ENDTAB
  0
TABLE
  2
BLOCK_RECORD
  5
1
100
AcDbSymbolTable
 70
     1
  0
BLOCK_RECORD
  5
A
100
AcDbSymbolTableRecord
100
AcDbBlockTableRecord
  2
*MODEL_SPACE
340
20
  0
BLOCK_RECORD
  5
B
100
AcDbSymbolTableRecord
100
AcDbBlockTableRecord
  2
*PAPER_SPACE
340
21
  0
BLOCK_RECORD
  5
29
100
AcDbSymbolTableRecord
100
AcDbBlockTableRecord
  2
AI9-BLK1
340
0
102
{BLKREFS
331
2A
102
}
  0
ENDTAB
  0
ENDSEC
  0
SECTION
  2
BLOCKS
  0
BLOCK
  5
D
100
AcDbEntity
  8
0
100
AcDbBlockBegin
  2
*MODEL_SPACE
 70
     0
 10
0.0
 20
0.0
 30
0.0
  3
*MODEL_SPACE
  1

  0
ENDBLK
  5
E
100
AcDbEntity
  8
0
100
AcDbBlockEnd
  0
BLOCK
  5
F
100
AcDbEntity
 67
     1
  8
0
100
AcDbBlockBegin
  2
*PAPER_SPACE
 70
     0
 10
0.0
 20
0.0
 30
0.0
  3
*PAPER_SPACE
  1

  0
ENDBLK
  5
10
100
AcDbEntity
 67
     1
  8
0
100
AcDbBlockEnd
  0
BLOCK
  5
2B
100
AcDbEntity
  8
LIVELLO_1
 62
     7
100
AcDbBlockBegin
  2
AI9-BLK1
 70
     0
 10
0.0
 20
0.0
 30
0.0
  3
AI9-BLK1
  1

  0
ELLIPSE
  5
88
100
AcDbEntity
  8
LIVELLO_1
 62
     7
100
AcDbEllipse
 10
-37.167671
 20
-12.643328
 30
0.0
 11
-2.5751227484809025
 21
0.0
 31
0.0
210
0.0
220
0.0
230
1.0
 40
0.618081
 41
0.0
 42
6.2831853071795862
  0
POLYLINE
  5
82
100
AcDbEntity
  8
LIVELLO_1
 62
     7
100
AcDb2dPolyline
 66
     1
 10
0.0
 20
0.0
 30
0.0
  0
VERTEX
  5
83
100
AcDbEntity
  8
LIVELLO_1
 62
     7
100
AcDbVertex
100
AcDb2dVertex
 10
-73.356074
 20
-10.409873
 30
0.0
  0
VERTEX
  5
84
100
AcDbEntity
  8
LIVELLO_1
 62
     7
100
AcDbVertex
100
AcDb2dVertex
 10
-39.825821
 20
-11.457871
 30
0.0
  0
VERTEX
  5
85
100
AcDbEntity
  8
LIVELLO_1
 62
     7
100
AcDbVertex
100
AcDb2dVertex
 10
-39.825821
 20
-13.552144
 30
0.0
  0
VERTEX
  5
86
100
AcDbEntity
  8
LIVELLO_1
 62
     7
100
AcDbVertex
100
AcDb2dVertex
 10
-73.356074
 20
-14.600487
 30
0.0
  0
SEQEND
  5
87
100
AcDbEntity
  8
LIVELLO_1
 62
     7
  0
SPLINE
  5
81
100
AcDbEntity
  8
LIVELLO_1
 62
     7
100
AcDbSpline
210
0.0
220
0.0
230
1.0
 70
     8
 71
     3
 72
     8
 73
     4
 74
     0
 42
0.00000001
 43
0.00000001
 40
0.0
 40
0.0
 40
0.0
 40
0.0
 40
1.0
 40
1.0
 40
1.0
 40
1.0
 10
-80.691370985243054
 20
-3.0742309570312498
 30
0.0
 10
-80.691370985243054
 20
-3.0742309570312498
 30
0.0
 10
-77.54668782552082
 20
-3.0742309570312498
 30
0.0
 10
-76.498517523871527
 20
-4.1225735134548609
 30
0.0
  0
SPLINE
  5
80
100
AcDbEntity
  8
LIVELLO_1
 62
     7
100
AcDbSpline
210
0.0
220
0.0
230
1.0
 70
     8
 71
     3
 72
     8
 73
     4
 74
     0
 42
0.00000001
 43
0.00000001
 40
0.0
 40
0.0
 40
0.0
 40
0.0
 40
1.0
 40
1.0
 40
1.0
 40
1.0
 10
-80.691370985243054
 20
-30.314945475260412
 30
0.0
 10
-80.691370985243054
 20
-30.314945475260412
 30
0.0
 10
-77.54668782552082
 20
-30.314945475260412
 30
0.0
 10
-76.498517523871527
 20
-29.271426052517359
 30
0.0
  0
LINE
  5
7F
100
AcDbEntity
  8
LIVELLO_1
 62
     7
100
AcDbLine
 10
-80.691371
 20
-24.030058
 30
0.0
 11
-76.498518
 21
-24.030058
 31
0.0
  0
LINE
  5
7E
100
AcDbEntity
  8
LIVELLO_1
 62
     7
100
AcDbLine
 10
-80.691371
 20
-8.313188
 30
0.0
 11
-76.498518
 21
-8.313188
 31
0.0
  0
SPLINE
  5
7D
100
AcDbEntity
  8
LIVELLO_1
 62
     7
100
AcDbSpline
210
0.0
220
0.0
230
1.0
 70
     8
 71
     3
 72
    23
 73
    19
 74
     0
 42
0.00000001
 43
0.00000001
 40
0.0
 40
0.0
 40
0.0
 40
0.0
 40
1.0
 40
1.0
 40
1.0
 40
2.0
 40
2.0
 40
2.0
 40
3.0
 40
3.0
 40
3.0
 40
4.0
 40
4.0
 40
4.0
 40
5.0
 40
5.0
 40
5.0
 40
6.0
 40
6.0
 40
6.0
 40
6.0
 10
-80.691370985243054
 20
6.3553398980034714
 30
0.0
 10
-80.691370985243054
 20
6.3553398980034714
 30
0.0
 10
-76.498517523871527
 20
7.4036824544270825
 30
0.0
 10
-75.450174967447907
 20
4.2589992947048607
 30
0.0
 10
-74.404243977864581
 20
1.1184502495659721
 30
0.0
 10
-74.404243977864581
 20
-3.0742309570312498
 30
0.0
 10
-73.356073676215274
 20
-4.1225735134548609
 30
0.0
 10
-73.356073676215274
 20
-4.1225735134548609
 30
0.0
 10
-73.356073676215274
 20
-18.789034016927083
 30
0.0
 10
-73.356073676215274
 20
-18.789034016927083
 30
0.0
 10
-73.356073676215274
 20
-18.789034016927083
 30
0.0
 10
-73.356073676215274
 20
-30.314945475260412
 30
0.0
 10
-73.356073676215274
 20
-30.314945475260412
 30
0.0
 10
-74.404243977864581
 20
-31.365699598524301
 30
0.0
 10
-74.404243977864581
 20
-35.553902180989581
 30
0.0
 10
-75.450174967447907
 20
-38.696518283420133
 30
0.0
 10
-76.498517523871527
 20
-41.84120144314236
 30
0.0
 10
-80.691370985243054
 20
-40.792858886718747
 30
0.0
 10
-80.691370985243054
 20
-40.792858886718747
 30
0.0
  0
SPLINE
  5
7C
100
AcDbEntity
  8
LIVELLO_1
 62
     7
100
AcDbSpline
210
0.0
220
0.0
230
1.0
 70
     8
 71
     3
 72
    23
 73
    19
 74
     0
 42
0.00000001
 43
0.00000001
 40
0.0
 40
0.0
 40
0.0
 40
0.0
 40
1.0
 40
1.0
 40
1.0
 40
2.0
 40
2.0
 40
2.0
 40
3.0
 40
3.0
 40
3.0
 40
4.0
 40
4.0
 40
4.0
 40
5.0
 40
5.0
 40
5.0
 40
6.0
 40
6.0
 40
6.0
 40
6.0
 10
-80.691370985243054
 20
6.3553398980034714
 30
0.0
 10
-80.691370985243054
 20
6.3553398980034714
 30
0.0
 10
-77.54668782552082
 20
6.3553398980034714
 30
0.0
 10
-77.54668782552082
 20
4.2589992947048607
 30
0.0
 10
-77.54668782552082
 20
2.1647257486979163
 30
0.0
 10
-77.54668782552082
 20
-3.0742309570312498
 30
0.0
 10
-76.498517523871527
 20
-4.1225735134548609
 30
0.0
 10
-76.498517523871527
 20
-4.1225735134548609
 30
0.0
 10
-76.498517523871527
 20
-15.646417914496526
 30
0.0
 10
-76.498517523871527
 20
-15.646417914496526
 30
0.0
 10
-76.498517523871527
 20
-15.646417914496526
 30
0.0
 10
-76.498517523871527
 20
-30.314945475260412
 30
0.0
 10
-76.498517523871527
 20
-30.314945475260412
 30
0.0
 10
-77.54668782552082
 20
-31.365699598524301
 30
0.0
 10
-77.54668782552082
 20
-36.602244737413194
 30
0.0
 10
-77.54668782552082
 20
-38.696518283420133
 30
0.0
 10
-77.54668782552082
 20
-40.792858886718747
 30
0.0
 10
-80.691370985243054
 20
-40.792858886718747
 30
0.0
 10
-80.691370985243054
 20
-40.792858886718747
 30
0.0
  0
POLYLINE
  5
76
100
AcDbEntity
  8
LIVELLO_1
 62
     7
100
AcDb2dPolyline
 66
     1
 10
0.0
 20
0.0
 30
0.0
 70
     1
  0
VERTEX
  5
77
100
AcDbEntity
  8
LIVELLO_1
 62
     7
100
AcDbVertex
100
AcDb2dVertex
 10
-83.830542
 20
6.35534
 30
0.0
  0
VERTEX
  5
78
100
AcDbEntity
  8
LIVELLO_1
 62
     7
100
AcDbVertex
100
AcDb2dVertex
 10
-83.830542
 20
-40.792859
 30
0.0
  0
VERTEX
  5
79
100
AcDbEntity
  8
LIVELLO_1
 62
     7
100
AcDbVertex
100
AcDb2dVertex
 10
-80.691371
 20
-40.792859
 30
0.0
  0
VERTEX
  5
7A
100
AcDbEntity
  8
LIVELLO_1
 62
     7
100
AcDbVertex
100
AcDb2dVertex
 10
-80.691371
 20
6.35534
 30
0.0
  0
SEQEND
  5
7B
100
AcDbEntity
  8
LIVELLO_1
 62
     7
  0
SPLINE
  5
75
100
AcDbEntity
  8
LIVELLO_1
 62
     7
100
AcDbSpline
210
0.0
220
0.0
230
1.0
 70
     8
 71
     3
 72
    65
 73
    61
 74
     0
 42
0.00000001
 43
0.00000001
 40
0.0
 40
0.0
 40
0.0
 40
0.0
 40
1.0
 40
1.0
 40
1.0
 40
2.0
 40
2.0
 40
2.0
 40
3.0
 40
3.0
 40
3.0
 40
4.0
 40
4.0
 40
4.0
 40
5.0
 40
5.0
 40
5.0
 40
6.0
 40
6.0
 40
6.0
 40
7.0
 40
7.0
 40
7.0
 40
8.0
 40
8.0
 40
8.0
 40
9.0
 40
9.0
 40
9.0
 40
10.0
 40
10.0
 40
10.0
 40
11.0
 40
11.0
 40
11.0
 40
12.0
 40
12.0
 40
12.0
 40
13.0
 40
13.0
 40
13.0
 40
14.0
 40
14.0
 40
14.0
 40
15.0
 40
15.0
 40
15.0
 40
16.0
 40
16.0
 40
16.0
 40
17.0
 40
17.0
 40
17.0
 40
18.0
 40
18.0
 40
18.0
 40
19.0
 40
19.0
 40
19.0
 40
20.0
 40
20.0
 40
20.0
 40
20.0
 10
-44.450861273871524
 20
-19.88664143880208
 30
0.0
 10
-44.027803548177083
 20
-21.814861382378471
 30
0.0
 10
-42.196218532986109
 20
-20.526395670572914
 30
0.0
 10
-42.468897840711804
 20
-18.840710449218747
 30
0.0
 10
-42.924511718749997
 20
-16.290650770399303
 30
0.0
 10
-44.563171386718743
 20
-16.108749728732636
 30
0.0
 10
-46.390277777777776
 20
-17.155025227864581
 30
0.0
 10
-50.089449055989576
 20
-21.960588921440969
 30
0.0
 10
-52.421606445312499
 20
-24.777643500434024
 30
0.0
 10
-56.209316677517357
 20
-29.677602810329859
 30
0.0
 10
-58.114971245659717
 20
-32.110873752170136
 30
0.0
 10
-60.847793240017353
 20
-33.091692437065966
 30
0.0
 10
-64.019520399305549
 20
-32.779566786024304
 30
0.0
 10
-65.426841905381934
 20
-32.6741468641493
 30
0.0
 10
-66.760266113281247
 20
-31.899689398871526
 30
0.0
 10
-67.563834635416654
 20
-31.596865505642359
 30
0.0
 10
-71.302107747395823
 20
-30.041404893663191
 30
0.0
 10
-73.67819010416666
 20
-25.924515787760413
 30
0.0
 10
-73.158497450086799
 20
-20.842655436197916
 30
0.0
 10
-72.607454427083326
 20
-15.538586425781249
 30
0.0
 10
-68.95995958116319
 20
-13.56110161675347
 30
0.0
 10
-64.429142252604166
 20
-15.000118001302083
 30
0.0
 10
-62.018436686197909
 20
-15.720487467447915
 30
0.0
 10
-60.933231608072909
 20
-18.200956217447914
 30
0.0
 10
-61.652567545572914
 20
-20.972880045572914
 30
0.0
 10
-62.588599989149301
 20
-24.171651204427082
 30
0.0
 10
-65.582904730902769
 20
-22.611711968315969
 30
0.0
 10
-66.911678059895834
 20
-21.944741482204858
 30
0.0
 10
-68.238212076822904
 20
-21.285005696614583
 30
0.0
 10
-67.242751736111103
 20
-19.303042263454859
 30
0.0
 10
-65.925174967447916
 20
-19.965189615885414
 30
0.0
 10
-65.380849880642359
 20
-20.234596082899305
 30
0.0
 10
-64.176616753472217
 20
-21.652941894531249
 30
0.0
 10
-63.79507242838541
 20
-20.387213812934025
 30
0.0
 10
-63.411288791232636
 20
-18.910301378038191
 30
0.0
 10
-63.79507242838541
 20
-17.505046929253471
 30
0.0
 10
-65.082332356770834
 20
-17.116784667968748
 30
0.0
 10
-68.127107747395826
 20
-16.151468912760414
 30
0.0
 10
-70.579498969184016
 20
-17.502635362413194
 30
0.0
 10
-70.95208604600694
 20
-21.069342719184025
 30
0.0
 10
-71.357229275173609
 20
-25.044638400607635
 30
0.0
 10
-69.657935926649301
 20
-28.310588921440971
 30
0.0
 10
-66.755787489149299
 20
-29.53187527126736
 30
0.0
 10
-66.082271321614584
 20
-29.789912923177081
 30
0.0
 10
-65.001544867621519
 20
-30.485822211371524
 30
0.0
 10
-63.832107204861103
 20
-30.570916069878468
 30
0.0
 10
-61.461709255642354
 20
-30.806560601128471
 30
0.0
 10
-59.38207736545138
 20
-30.130977376302081
 30
0.0
 10
-57.959080674913189
 20
-28.315067545572916
 30
0.0
 10
-54.171198187934024
 20
-23.419586859809026
 30
0.0
 10
-51.515890842013881
 20
-20.319689941406249
 30
0.0
 10
-47.822403971354163
 20
-15.516193305121526
 30
0.0
 10
-44.473426649305551
 20
-13.603820800781248
 30
0.0
 10
-41.119798448350693
 20
-13.794679090711805
 30
0.0
 10
-40.283673773871527
 20
-18.456582302517358
 30
0.0
 10
-39.453233506944443
 20
-23.441979980468748
 30
0.0
 10
-45.37225206163194
 20
-26.039237467447915
 30
0.0
 10
-46.615759277343749
 20
-20.362409125434027
 30
0.0
 10
-46.93563639322916
 20
-18.916847059461805
 30
0.0
 10
-44.769704861111109
 20
-18.443146430121526
 30
0.0
 10
-44.450861273871524
 20
-19.88664143880208
 30
0.0
  0
SPLINE
  5
74
100
AcDbEntity
  8
LIVELLO_1
 62
     7
100
AcDbSpline
210
0.0
220
0.0
230
1.0
 70
     8
 71
     3
 72
    26
 73
    22
 74
     0
 42
0.00000001
 43
0.00000001
 40
0.0
 40
0.0
 40
0.0
 40
0.0
 40
1.0
 40
1.0
 40
1.0
 40
2.0
 40
2.0
 40
2.0
 40
3.0
 40
3.0
 40
3.0
 40
4.0
 40
4.0
 40
4.0
 40
5.0
 40
5.0
 40
5.0
 40
6.0
 40
6.0
 40
6.0
 40
7.0
 40
7.0
 40
7.0
 40
7.0
 10
-66.019398328993049
 20
-9.8710598415798607
 30
0.0
 10
-66.019398328993049
 20
-9.8710598415798607
 30
0.0
 10
-66.019398328993049
 20
-9.8710598415798607
 30
0.0
 10
-66.019398328993049
 20
-9.8710598415798607
 30
0.0
 10
-65.46163736979166
 20
-9.8710598415798607
 30
0.0
 10
-65.006023491753467
 20
-10.340281846788194
 30
0.0
 10
-65.006023491753467
 20
-10.919402398003472
 30
0.0
 10
-65.006023491753467
 20
-10.919402398003472
 30
0.0
 10
-65.006023491753467
 20
-16.569014485677084
 30
0.0
 10
-65.006023491753467
 20
-16.569014485677084
 30
0.0
 10
-65.006023491753467
 20
-17.148135036892359
 30
0.0
 10
-65.46163736979166
 20
-17.617357042100693
 30
0.0
 10
-66.019398328993049
 20
-17.617357042100693
 30
0.0
 10
-66.582843695746519
 20
-17.617357042100693
 30
0.0
 10
-67.03518473307291
 20
-17.148135036892359
 30
0.0
 10
-67.03518473307291
 20
-16.569014485677084
 30
0.0
 10
-67.03518473307291
 20
-16.569014485677084
 30
0.0
 10
-67.03518473307291
 20
-10.919402398003472
 30
0.0
 10
-67.03518473307291
 20
-10.919402398003472
 30
0.0
 10
-67.03518473307291
 20
-10.340281846788194
 30
0.0
 10
-66.582843695746519
 20
-9.8710598415798607
 30
0.0
 10
-66.019398328993049
 20
-9.8710598415798607
 30
0.0
  0
SPLINE
  5
73
100
AcDbEntity
  8
LIVELLO_1
 62
     7
100
AcDbSpline
210
0.0
220
0.0
230
1.0
 70
     8
 71
     3
 72
    26
 73
    22
 74
     0
 42
0.00000001
 43
0.00000001
 40
0.0
 40
0.0
 40
0.0
 40
0.0
 40
1.0
 40
1.0
 40
1.0
 40
2.0
 40
2.0
 40
2.0
 40
3.0
 40
3.0
 40
3.0
 40
4.0
 40
4.0
 40
4.0
 40
5.0
 40
5.0
 40
5.0
 40
6.0
 40
6.0
 40
6.0
 40
7.0
 40
7.0
 40
7.0
 40
7.0
 10
-66.019398328993049
 20
-9.8710598415798607
 30
0.0
 10
-66.019398328993049
 20
-9.8710598415798607
 30
0.0
 10
-66.019398328993049
 20
-9.8710598415798607
 30
0.0
 10
-66.019398328993049
 20
-9.8710598415798607
 30
0.0
 10
-65.46163736979166
 20
-9.8710598415798607
 30
0.0
 10
-65.006023491753467
 20
-10.340281846788194
 30
0.0
 10
-65.006023491753467
 20
-10.919402398003472
 30
0.0
 10
-65.006023491753467
 20
-10.919402398003472
 30
0.0
 10
-65.006023491753467
 20
-16.569014485677084
 30
0.0
 10
-65.006023491753467
 20
-16.569014485677084
 30
0.0
 10
-65.006023491753467
 20
-17.148135036892359
 30
0.0
 10
-65.46163736979166
 20
-17.617357042100693
 30
0.0
 10
-66.019398328993049
 20
-17.617357042100693
 30
0.0
 10
-66.582843695746519
 20
-17.617357042100693
 30
0.0
 10
-67.03518473307291
 20
-17.148135036892359
 30
0.0
 10
-67.03518473307291
 20
-16.569014485677084
 30
0.0
 10
-67.03518473307291
 20
-16.569014485677084
 30
0.0
 10
-67.03518473307291
 20
-10.919402398003472
 30
0.0
 10
-67.03518473307291
 20
-10.919402398003472
 30
0.0
 10
-67.03518473307291
 20
-10.340281846788194
 30
0.0
 10
-66.582843695746519
 20
-9.8710598415798607
 30
0.0
 10
-66.019398328993049
 20
-9.8710598415798607
 30
0.0
  0
SPLINE
  5
72
100
AcDbEntity
  8
LIVELLO_1
 62
     7
100
AcDbSpline
210
0.0
220
0.0
230
1.0
 70
     8
 71
     3
 72
    26
 73
    22
 74
     0
 42
0.00000001
 43
0.00000001
 40
0.0
 40
0.0
 40
0.0
 40
0.0
 40
1.0
 40
1.0
 40
1.0
 40
2.0
 40
2.0
 40
2.0
 40
3.0
 40
3.0
 40
3.0
 40
4.0
 40
4.0
 40
4.0
 40
5.0
 40
5.0
 40
5.0
 40
6.0
 40
6.0
 40
6.0
 40
7.0
 40
7.0
 40
7.0
 40
7.0
 10
-45.03893907335069
 20
-10.717175292968749
 30
0.0
 10
-45.03893907335069
 20
-10.717175292968749
 30
0.0
 10
-45.03893907335069
 20
-10.717175292968749
 30
0.0
 10
-45.03893907335069
 20
-10.717175292968749
 30
0.0
 10
-44.558692762586801
 20
-10.717175292968749
 30
0.0
 10
-44.168018934461799
 20
-11.186397298177083
 30
0.0
 10
-44.168018934461799
 20
-11.76551784939236
 30
0.0
 10
-44.168018934461799
 20
-11.76551784939236
 30
0.0
 10
-44.168018934461799
 20
-16.149401855468749
 30
0.0
 10
-44.168018934461799
 20
-16.149401855468749
 30
0.0
 10
-44.168018934461799
 20
-16.728522406684025
 30
0.0
 10
-44.558692762586801
 20
-17.195332845052082
 30
0.0
 10
-45.03893907335069
 20
-17.195332845052082
 30
0.0
 10
-45.521596950954859
 20
-17.195332845052082
 30
0.0
 10
-45.912098524305549
 20
-16.728522406684025
 30
0.0
 10
-45.912098524305549
 20
-16.149401855468749
 30
0.0
 10
-45.912098524305549
 20
-16.149401855468749
 30
0.0
 10
-45.912098524305549
 20
-11.76551784939236
 30
0.0
 10
-45.912098524305549
 20
-11.76551784939236
 30
0.0
 10
-45.912098524305549
 20
-11.186397298177083
 30
0.0
 10
-45.521596950954859
 20
-10.717175292968749
 30
0.0
 10
-45.03893907335069
 20
-10.717175292968749
 30
0.0
  0
LINE
  5
71
100
AcDbEntity
  8
LIVELLO_1
 62
     7
100
AcDbLine
 10
-44.29721
 20
43.551002
 30
0.0
 11
-44.29721
 21
3.607876
 31
0.0
  0
LINE
  5
70
100
AcDbEntity
  8
LIVELLO_1
 62
     7
100
AcDbLine
 10
-45.218601
 20
43.551002
 30
0.0
 11
-45.218601
 21
3.607876
 31
0.0
  0
POLYLINE
  5
6A
100
AcDbEntity
  8
LIVELLO_1
 62
     7
100
AcDb2dPolyline
 66
     1
 10
0.0
 20
0.0
 30
0.0
 70
     1
  0
VERTEX
  5
6B
100
AcDbEntity
  8
LIVELLO_1
 62
     7
100
AcDbVertex
100
AcDb2dVertex
 10
-31.760852
 20
1.473295
 30
0.0
  0
VERTEX
  5
6C
100
AcDbEntity
  8
LIVELLO_1
 62
     7
100
AcDbVertex
100
AcDb2dVertex
 10
-30.096526
 20
1.473295
 30
0.0
  0
VERTEX
  5
6D
100
AcDbEntity
  8
LIVELLO_1
 62
     7
100
AcDbVertex
100
AcDb2dVertex
 10
-30.096526
 20
-0.560345
 30
0.0
  0
VERTEX
  5
6E
100
AcDbEntity
  8
LIVELLO_1
 62
     7
100
AcDbVertex
100
AcDb2dVertex
 10
-31.760852
 20
-0.560345
 30
0.0
  0
SEQEND
  5
6F
100
AcDbEntity
  8
LIVELLO_1
 62
     7
  0
POLYLINE
  5
64
100
AcDbEntity
  8
LIVELLO_1
 62
     7
100
AcDb2dPolyline
 66
     1
 10
0.0
 20
0.0
 30
0.0
 70
     1
  0
VERTEX
  5
65
100
AcDbEntity
  8
LIVELLO_1
 62
     7
100
AcDbVertex
100
AcDb2dVertex
 10
-59.294572
 20
1.473295
 30
0.0
  0
VERTEX
  5
66
100
AcDbEntity
  8
LIVELLO_1
 62
     7
100
AcDbVertex
100
AcDb2dVertex
 10
-57.634725
 20
1.473295
 30
0.0
  0
VERTEX
  5
67
100
AcDbEntity
  8
LIVELLO_1
 62
     7
100
AcDbVertex
100
AcDb2dVertex
 10
-57.634725
 20
-0.560345
 30
0.0
  0
VERTEX
  5
68
100
AcDbEntity
  8
LIVELLO_1
 62
     7
100
AcDbVertex
100
AcDb2dVertex
 10
-59.294572
 20
-0.560345
 30
0.0
  0
SEQEND
  5
69
100
AcDbEntity
  8
LIVELLO_1
 62
     7
  0
LINE
  5
63
100
AcDbEntity
  8
LIVELLO_1
 62
     7
100
AcDbLine
 10
-24.63984
 20
40.280573
 30
0.0
 11
-29.881036
 21
3.607876
 31
0.0
  0
LINE
  5
62
100
AcDbEntity
  8
LIVELLO_1
 62
     7
100
AcDbLine
 10
-59.639081
 20
3.607876
 30
0.0
 11
-64.879244
 21
40.280573
 31
0.0
  0
SPLINE
  5
61
100
AcDbEntity
  8
LIVELLO_1
 62
     7
100
AcDbSpline
210
0.0
220
0.0
230
1.0
 70
     8
 71
     3
 72
    29
 73
    25
 74
     0
 42
0.00000001
 43
0.00000001
 40
0.0
 40
0.0
 40
0.0
 40
0.0
 40
1.0
 40
1.0
 40
1.0
 40
2.0
 40
2.0
 40
2.0
 40
3.0
 40
3.0
 40
3.0
 40
4.0
 40
4.0
 40
4.0
 40
5.0
 40
5.0
 40
5.0
 40
6.0
 40
6.0
 40
6.0
 40
7.0
 40
7.0
 40
7.0
 40
8.0
 40
8.0
 40
8.0
 40
8.0
 10
-39.518345811631939
 20
61.233988444010414
 30
0.0
 10
-39.518345811631939
 20
61.233988444010414
 30
0.0
 10
-36.375901963975693
 20
60.800939941406241
 30
0.0
 10
-36.375901963975693
 20
62.28233100043402
 30
0.0
 10
-36.375901963975693
 20
62.28233100043402
 30
0.0
 10
-37.421832953559026
 20
64.376604546440973
 30
0.0
 10
-39.518345811631939
 20
65.427014160156247
 30
0.0
 10
-41.257946777343747
 20
66.672760687934016
 30
0.0
 10
-42.479060872395827
 20
66.845704481336796
 30
0.0
 10
-42.138857693142356
 20
67.523354763454861
 30
0.0
 10
-41.2007581922743
 20
69.397831217447916
 30
0.0
 10
-43.707926432291664
 20
70.665970865885413
 30
0.0
 10
-44.758336046006939
 20
70.665970865885413
 30
0.0
 10
-45.806678602430551
 20
70.665970865885413
 30
0.0
 10
-48.317291937934023
 20
69.397831217447916
 30
0.0
 10
-47.376780870225687
 20
67.523354763454861
 30
0.0
 10
-47.036749945746521
 20
66.845704481336796
 30
0.0
 10
-48.26113688151041
 20
66.672760687934016
 30
0.0
 10
-49.997292751736104
 20
65.427014160156247
 30
0.0
 10
-52.09277208116319
 20
64.376604546440973
 30
0.0
 10
-53.140942382812497
 20
62.28233100043402
 30
0.0
 10
-53.140942382812497
 20
62.28233100043402
 30
0.0
 10
-53.140942382812497
 20
60.800939941406241
 30
0.0
 10
-49.997292751736104
 20
61.233988444010414
 30
0.0
 10
-49.997292751736104
 20
61.233988444010414
 30
0.0
  0
SPLINE
  5
60
100
AcDbEntity
  8
LIVELLO_1
 62
     7
100
AcDbSpline
210
0.0
220
0.0
230
1.0
 70
     8
 71
     3
 72
    32
 73
    28
 74
     0
 42
0.00000001
 43
0.00000001
 40
0.0
 40
0.0
 40
0.0
 40
0.0
 40
1.0
 40
1.0
 40
1.0
 40
2.0
 40
2.0
 40
2.0
 40
3.0
 40
3.0
 40
3.0
 40
4.0
 40
4.0
 40
4.0
 40
5.0
 40
5.0
 40
5.0
 40
6.0
 40
6.0
 40
6.0
 40
7.0
 40
7.0
 40
7.0
 40
8.0
 40
8.0
 40
8.0
 40
9.0
 40
9.0
 40
9.0
 40
9.0
 10
-39.518345811631939
 20
59.139714898003469
 30
0.0
 10
-22.755544704861109
 20
59.139714898003469
 30
0.0
 10
-20.661271158854166
 20
45.51711832682291
 30
0.0
 10
-20.661271158854166
 20
45.51711832682291
 30
0.0
 10
-17.516587999131943
 20
45.51711832682291
 30
0.0
 10
-17.516587999131943
 20
42.37484673394097
 30
0.0
 10
-17.516587999131943
 20
42.37484673394097
 30
0.0
 10
-17.516587999131943
 20
42.37484673394097
 30
0.0
 10
-22.755544704861109
 20
42.37484673394097
 30
0.0
 10
-22.755544704861109
 20
42.37484673394097
 30
0.0
 10
-22.755544704861109
 20
41.21867268880208
 30
0.0
 10
-23.69261067708333
 20
40.280573187934024
 30
0.0
 10
-24.848612467447914
 20
40.280573187934024
 30
0.0
 10
-24.848612467447914
 20
40.280573187934024
 30
0.0
 10
-64.665992567274301
 20
40.280573187934024
 30
0.0
 10
-64.665992567274301
 20
40.280573187934024
 30
0.0
 10
-65.821994357638886
 20
40.280573187934024
 30
0.0
 10
-66.760266113281247
 20
41.21867268880208
 30
0.0
 10
-66.760266113281247
 20
42.37484673394097
 30
0.0
 10
-66.760266113281247
 20
42.37484673394097
 30
0.0
 10
-71.998017035590266
 20
42.37484673394097
 30
0.0
 10
-71.998017035590266
 20
42.37484673394097
 30
0.0
 10
-71.998017035590266
 20
42.37484673394097
 30
0.0
 10
-71.998017035590266
 20
45.51711832682291
 30
0.0
 10
-68.858846028645829
 20
45.51711832682291
 30
0.0
 10
-68.858846028645829
 20
45.51711832682291
 30
0.0
 10
-66.760266113281247
 20
59.139714898003469
 30
0.0
 10
-49.997292751736104
 20
59.139714898003469
 30
0.0
  0
LINE
  5
5F
100
AcDbEntity
  8
LIVELLO_1
 62
     7
100
AcDbLine
 10
-71.998017
 20
43.422845
 30
0.0
 11
-17.516588
 21
43.422845
 31
0.0
  0
LINE
  5
5E
100
AcDbEntity
  8
LIVELLO_1
 62
     7
100
AcDbLine
 10
-68.858846
 20
45.517118
 30
0.0
 11
-20.661271
 21
45.517118
 31
0.0
  0
LINE
  5
5D
100
AcDbEntity
  8
LIVELLO_1
 62
     7
100
AcDbLine
 10
-42.138858
 20
66.472945
 30
0.0
 11
-44.758336
 21
66.472945
 31
0.0
  0
LINE
  5
5C
100
AcDbEntity
  8
LIVELLO_1
 62
     7
100
AcDbLine
 10
-47.376781
 20
66.472945
 30
0.0
 11
-44.758336
 21
66.472945
 31
0.0
  0
POLYLINE
  5
56
100
AcDbEntity
  8
LIVELLO_1
 62
     7
100
AcDb2dPolyline
 66
     1
 10
0.0
 20
0.0
 30
0.0
 70
     1
  0
VERTEX
  5
57
100
AcDbEntity
  8
LIVELLO_1
 62
     7
100
AcDbVertex
100
AcDb2dVertex
 10
-49.997293
 20
61.233988
 30
0.0
  0
VERTEX
  5
58
100
AcDbEntity
  8
LIVELLO_1
 62
     7
100
AcDbVertex
100
AcDb2dVertex
 10
-39.518346
 20
61.233988
 30
0.0
  0
VERTEX
  5
59
100
AcDbEntity
  8
LIVELLO_1
 62
     7
100
AcDbVertex
100
AcDb2dVertex
 10
-39.518346
 20
59.139715
 30
0.0
  0
VERTEX
  5
5A
100
AcDbEntity
  8
LIVELLO_1
 62
     7
100
AcDbVertex
100
AcDb2dVertex
 10
-49.997293
 20
59.139715
 30
0.0
  0
SEQEND
  5
5B
100
AcDbEntity
  8
LIVELLO_1
 62
     7
  0
POLYLINE
  5
50
100
AcDbEntity
  8
LIVELLO_1
 62
     7
100
AcDb2dPolyline
 66
     1
 10
0.0
 20
0.0
 30
0.0
  0
VERTEX
  5
51
100
AcDbEntity
  8
LIVELLO_1
 62
     7
100
AcDbVertex
100
AcDb2dVertex
 10
-58.379899
 20
3.607876
 30
0.0
  0
VERTEX
  5
52
100
AcDbEntity
  8
LIVELLO_1
 62
     7
100
AcDbVertex
100
AcDb2dVertex
 10
-63.619889
 20
40.280573
 30
0.0
  0
VERTEX
  5
53
100
AcDbEntity
  8
LIVELLO_1
 62
     7
100
AcDbVertex
100
AcDb2dVertex
 10
-25.899022
 20
40.280573
 30
0.0
  0
VERTEX
  5
54
100
AcDbEntity
  8
LIVELLO_1
 62
     7
100
AcDbVertex
100
AcDb2dVertex
 10
-31.1335
 20
3.607876
 30
0.0
  0
SEQEND
  5
55
100
AcDbEntity
  8
LIVELLO_1
 62
     7
  0
SPLINE
  5
4F
100
AcDbEntity
  8
LIVELLO_1
 62
     7
100
AcDbSpline
210
0.0
220
0.0
230
1.0
 70
     8
 71
     3
 72
    29
 73
    25
 74
     0
 42
0.00000001
 43
0.00000001
 40
0.0
 40
0.0
 40
0.0
 40
0.0
 40
1.0
 40
1.0
 40
1.0
 40
2.0
 40
2.0
 40
2.0
 40
3.0
 40
3.0
 40
3.0
 40
4.0
 40
4.0
 40
4.0
 40
5.0
 40
5.0
 40
5.0
 40
6.0
 40
6.0
 40
6.0
 40
7.0
 40
7.0
 40
7.0
 40
8.0
 40
8.0
 40
8.0
 40
8.0
 10
-58.904070366753466
 20
3.6078762478298607
 30
0.0
 10
-58.904070366753466
 20
3.6078762478298607
 30
0.0
 10
-30.611740451388886
 20
3.6078762478298607
 30
0.0
 10
-30.611740451388886
 20
3.6078762478298607
 30
0.0
 10
-30.324419487847219
 20
3.6078762478298607
 30
0.0
 10
-30.08756917317708
 20
3.3742987738715273
 30
0.0
 10
-30.08756917317708
 20
3.0824991861979165
 30
0.0
 10
-30.08756917317708
 20
3.0824991861979165
 30
0.0
 10
-30.08756917317708
 20
2.0345011393229164
 30
0.0
 10
-30.08756917317708
 20
2.0345011393229164
 30
0.0
 10
-30.08756917317708
 20
1.7471801757812497
 30
0.0
 10
-30.324419487847219
 20
1.5136027018229166
 30
0.0
 10
-30.611740451388886
 20
1.5136027018229166
 30
0.0
 10
-30.611740451388886
 20
1.5136027018229166
 30
0.0
 10
-58.904070366753466
 20
1.5136027018229166
 30
0.0
 10
-58.904070366753466
 20
1.5136027018229166
 30
0.0
 10
-59.193630642361107
 20
1.5136027018229166
 30
0.0
 10
-59.42806939019097
 20
1.7471801757812497
 30
0.0
 10
-59.42806939019097
 20
2.0345011393229164
 30
0.0
 10
-59.42806939019097
 20
2.0345011393229164
 30
0.0
 10
-59.42806939019097
 20
3.0824991861979165
 30
0.0
 10
-59.42806939019097
 20
3.0824991861979165
 30
0.0
 10
-59.42806939019097
 20
3.3742987738715273
 30
0.0
 10
-59.193630642361107
 20
3.6078762478298607
 30
0.0
 10
-58.904070366753466
 20
3.6078762478298607
 30
0.0
  0
SPLINE
  5
4E
100
AcDbEntity
  8
LIVELLO_1
 62
     7
100
AcDbSpline
210
0.0
220
0.0
230
1.0
 70
     8
 71
     3
 72
    32
 73
    28
 74
     0
 42
0.00000001
 43
0.00000001
 40
0.0
 40
0.0
 40
0.0
 40
0.0
 40
1.0
 40
1.0
 40
1.0
 40
2.0
 40
2.0
 40
2.0
 40
3.0
 40
3.0
 40
3.0
 40
4.0
 40
4.0
 40
4.0
 40
5.0
 40
5.0
 40
5.0
 40
6.0
 40
6.0
 40
6.0
 40
7.0
 40
7.0
 40
7.0
 40
8.0
 40
8.0
 40
8.0
 40
9.0
 40
9.0
 40
9.0
 40
9.0
 10
-54.699848090277776
 20
1.1790839301215277
 30
0.0
 10
-54.699848090277776
 20
1.1790839301215277
 30
0.0
 10
-54.699848090277776
 20
-4.0305894639756943
 30
0.0
 10
-54.699848090277776
 20
-4.0305894639756943
 30
0.0
 10
-54.699848090277776
 20
-4.0305894639756943
 30
0.0
 10
-54.699848090277776
 20
-4.5938625759548604
 30
0.0
 10
-54.138642035590273
 20
-5.015886773003472
 30
0.0
 10
-53.575368923611109
 20
-5.4379109700520827
 30
0.0
 10
-49.916505262586803
 20
-10.225560167100694
 30
0.0
 10
-49.916505262586803
 20
-10.225560167100694
 30
0.0
 10
-49.916505262586803
 20
-10.225560167100694
 30
0.0
 10
-49.491208224826387
 20
-10.789177788628471
 30
0.0
 10
-49.070389811197913
 20
-10.789177788628471
 30
0.0
 10
-49.070389811197913
 20
-10.789177788628471
 30
0.0
 10
-39.635134548611106
 20
-10.789177788628471
 30
0.0
 10
-39.635134548611106
 20
-10.789177788628471
 30
0.0
 10
-39.635134548611106
 20
-10.789177788628471
 30
0.0
 10
-38.086219618055551
 20
-10.508402506510416
 30
0.0
 10
-37.520707194010413
 20
-9.9451293945312482
 30
0.0
 10
-36.957261827256943
 20
-9.3818562825520821
 30
0.0
 10
-33.861843532986107
 20
-5.015886773003472
 30
0.0
 10
-33.861843532986107
 20
-5.015886773003472
 30
0.0
 10
-33.861843532986107
 20
-5.015886773003472
 30
0.0
 10
-33.438785807291666
 20
-4.452613661024305
 30
0.0
 10
-33.438785807291666
 20
-3.7477471245659717
 30
0.0
 10
-33.438785807291666
 20
-3.7477471245659717
 30
0.0
 10
-33.438785807291666
 20
1.3206773546006942
 30
0.0
 10
-33.438785807291666
 20
1.3206773546006942
 30
0.0
  0
SPLINE
  5
4D
100
AcDbEntity
  8
LIVELLO_1
 62
     7
100
AcDbSpline
210
0.0
220
0.0
230
1.0
 70
     8
 71
     3
 72
    32
 73
    28
 74
     0
 42
0.00000001
 43
0.00000001
 40
0.0
 40
0.0
 40
0.0
 40
0.0
 40
1.0
 40
1.0
 40
1.0
 40
2.0
 40
2.0
 40
2.0
 40
3.0
 40
3.0
 40
3.0
 40
4.0
 40
4.0
 40
4.0
 40
5.0
 40
5.0
 40
5.0
 40
6.0
 40
6.0
 40
6.0
 40
7.0
 40
7.0
 40
7.0
 40
8.0
 40
8.0
 40
8.0
 40
9.0
 40
9.0
 40
9.0
 40
9.0
 10
-52.730114746093747
 20
1.1790839301215277
 30
0.0
 10
-52.730114746093747
 20
1.1790839301215277
 30
0.0
 10
-52.730114746093747
 20
-4.0305894639756943
 30
0.0
 10
-52.730114746093747
 20
-4.0305894639756943
 30
0.0
 10
-52.730114746093747
 20
-4.0305894639756943
 30
0.0
 10
-52.730114746093747
 20
-4.5938625759548604
 30
0.0
 10
-52.166841634114576
 20
-5.015886773003472
 30
0.0
 10
-51.603396267361106
 20
-5.4379109700520827
 30
0.0
 10
-47.944704861111106
 20
-10.225560167100694
 30
0.0
 10
-47.944704861111106
 20
-10.225560167100694
 30
0.0
 10
-47.944704861111106
 20
-10.225560167100694
 30
0.0
 10
-47.664101833767354
 20
-10.789177788628471
 30
0.0
 10
-47.100656467013884
 20
-10.789177788628471
 30
0.0
 10
-47.100656467013884
 20
-10.789177788628471
 30
0.0
 10
-39.635134548611106
 20
-10.789177788628471
 30
0.0
 10
-39.635134548611106
 20
-10.789177788628471
 30
0.0
 10
-39.635134548611106
 20
-10.789177788628471
 30
0.0
 10
-38.086219618055551
 20
-10.508402506510416
 30
0.0
 10
-37.520707194010413
 20
-9.9451293945312482
 30
0.0
 10
-36.957261827256943
 20
-9.3818562825520821
 30
0.0
 10
-33.861843532986107
 20
-5.015886773003472
 30
0.0
 10
-33.861843532986107
 20
-5.015886773003472
 30
0.0
 10
-33.861843532986107
 20
-5.015886773003472
 30
0.0
 10
-33.438785807291666
 20
-4.452613661024305
 30
0.0
 10
-33.438785807291666
 20
-3.7477471245659717
 30
0.0
 10
-33.438785807291666
 20
-3.7477471245659717
 30
0.0
 10
-33.438785807291666
 20
1.3206773546006942
 30
0.0
 10
-33.438785807291666
 20
1.3206773546006942
 30
0.0
  0
SPLINE
  5
4C
100
AcDbEntity
  8
LIVELLO_1
 62
     7
100
AcDbSpline
210
0.0
220
0.0
230
1.0
 70
     8
 71
     3
 72
    26
 73
    22
 74
     0
 42
0.00000001
 43
0.00000001
 40
0.0
 40
0.0
 40
0.0
 40
0.0
 40
1.0
 40
1.0
 40
1.0
 40
2.0
 40
2.0
 40
2.0
 40
3.0
 40
3.0
 40
3.0
 40
4.0
 40
4.0
 40
4.0
 40
5.0
 40
5.0
 40
5.0
 40
6.0
 40
6.0
 40
6.0
 40
7.0
 40
7.0
 40
7.0
 40
7.0
 10
-45.03893907335069
 20
-10.717175292968749
 30
0.0
 10
-45.03893907335069
 20
-10.717175292968749
 30
0.0
 10
-45.03893907335069
 20
-10.717175292968749
 30
0.0
 10
-45.03893907335069
 20
-10.717175292968749
 30
0.0
 10
-44.558692762586801
 20
-10.717175292968749
 30
0.0
 10
-44.168018934461799
 20
-11.186397298177083
 30
0.0
 10
-44.168018934461799
 20
-11.76551784939236
 30
0.0
 10
-44.168018934461799
 20
-11.76551784939236
 30
0.0
 10
-44.168018934461799
 20
-16.149401855468749
 30
0.0
 10
-44.168018934461799
 20
-16.149401855468749
 30
0.0
 10
-44.168018934461799
 20
-16.728522406684025
 30
0.0
 10
-44.558692762586801
 20
-17.195332845052082
 30
0.0
 10
-45.03893907335069
 20
-17.195332845052082
 30
0.0
 10
-45.521596950954859
 20
-17.195332845052082
 30
0.0
 10
-45.912098524305549
 20
-16.728522406684025
 30
0.0
 10
-45.912098524305549
 20
-16.149401855468749
 30
0.0
 10
-45.912098524305549
 20
-16.149401855468749
 30
0.0
 10
-45.912098524305549
 20
-11.76551784939236
 30
0.0
 10
-45.912098524305549
 20
-11.76551784939236
 30
0.0
 10
-45.912098524305549
 20
-11.186397298177083
 30
0.0
 10
-45.521596950954859
 20
-10.717175292968749
 30
0.0
 10
-45.03893907335069
 20
-10.717175292968749
 30
0.0
  0
LINE
  5
4B
100
AcDbEntity
  8
LIVELLO_1
 62
     7
100
AcDbLine
 10
-18.024912
 20
-72.491527
 30
0.0
 11
-18.024912
 21
-59.995821
 31
0.0
  0
LINE
  5
4A
100
AcDbEntity
  8
LIVELLO_1
 62
     7
100
AcDbLine
 10
-17.886936
 20
-72.220053
 30
0.0
 11
-17.886936
 21
-59.726415
 31
0.0
  0
LINE
  5
49
100
AcDbEntity
  8
LIVELLO_1
 62
     7
100
AcDbLine
 10
-73.375022
 20
-65.970995
 30
0.0
 11
-17.864543
 21
-65.973062
 31
0.0
  0
LINE
  5
48
100
AcDbEntity
  8
LIVELLO_1
 62
     7
100
AcDbLine
 10
-82.665583
 20
-65.970995
 30
0.0
 11
-59.152117
 21
-65.973062
 31
0.0
  0
LINE
  5
47
100
AcDbEntity
  8
LIVELLO_1
 62
     7
100
AcDbLine
 10
-82.665583
 20
-72.220053
 30
0.0
 11
-82.665583
 21
-59.726415
 31
0.0
  0
MTEXT
  5
46
100
AcDbEntity
  8
LIVELLO_1
 62
     7
100
AcDbMText
 10
-63.819016
 20
-50.695126
 30
0.0
 40
12.302751
 41
0.0
 71
     1
 72
     2
  1
\fArial Narrow|b0|i0;\H12.3028;\C7;\U+0033\U+0031\U+0030
  7
STD
210
0.0
220
0.0
230
1.0
 73
     1
 44
1.0
  0
LINE
  5
45
100
AcDbEntity
  8
LIVELLO_1
 62
     7
100
AcDbLine
 10
0.20929
 20
69.801941
 30
0.0
 11
0.204811
 21
16.404339
 31
0.0
  0
LINE
  5
44
100
AcDbEntity
  8
LIVELLO_1
 62
     7
100
AcDbLine
 10
-6.040975
 20
69.801941
 30
0.0
 11
6.453697
 21
69.801941
 31
0.0
  0
MTEXT
  5
43
100
AcDbEntity
  8
LIVELLO_1
 62
     7
100
AcDbMText
 10
-11.765001
 20
12.455196
 30
0.0
 40
12.302751
 41
0.0
 71
     1
 72
     2
  1
\fArial Narrow|b0|i0;\H12.3028;\C7;\U+0035\U+0033\U+0030
  7
STD
210
0.0
220
0.0
230
1.0
 73
     1
 44
1.0
  0
LINE
  5
42
100
AcDbEntity
  8
LIVELLO_1
 62
     7
100
AcDbLine
 10
-6.313654
 20
-43.107274
 30
0.0
 11
6.185497
 21
-43.107274
 31
0.0
  0
LINE
  5
41
100
AcDbEntity
  8
LIVELLO_1
 62
     7
100
AcDbLine
 10
-6.040975
 20
-43.246456
 30
0.0
 11
6.453697
 21
-43.246456
 31
0.0
  0
LINE
  5
40
100
AcDbEntity
  8
LIVELLO_1
 62
     7
100
AcDbLine
 10
0.20929
 20
-3.846621
 30
0.0
 11
0.204811
 21
-43.268849
 31
0.0
  0
MTEXT
  5
3F
100
AcDbEntity
  8
LIVELLO_1
 62
     7
100
AcDbMText
 10
56.493709
 20
71.260376
 30
0.0
 40
8.038568
 41
0.0
 71
     1
 72
     2
  1
\fArial Narrow|b0|i0;\H8.0386;\C7;\U+0031\U+0032\U+0034
  7
STD
210
0.0
220
0.0
230
1.0
 73
     1
 44
1.0
  0
LINE
  5
3E
100
AcDbEntity
  8
LIVELLO_1
 62
     7
100
AcDbLine
 10
83.9022
 20
65.631308
 30
0.0
 11
75.192999
 21
65.631308
 31
0.0
  0
LINE
  5
3D
100
AcDbEntity
  8
LIVELLO_1
 62
     7
100
AcDbLine
 10
83.9022
 20
68.74223
 30
0.0
 11
83.9022
 21
62.522454
 31
0.0
  0
LINE
  5
3C
100
AcDbEntity
  8
LIVELLO_1
 62
     7
100
AcDbLine
 10
44.85032
 20
65.631308
 30
0.0
 11
53.879226
 21
65.631308
 31
0.0
  0
LINE
  5
3B
100
AcDbEntity
  8
LIVELLO_1
 62
     7
100
AcDbLine
 10
44.85032
 20
62.522454
 30
0.0
 11
44.85032
 21
68.74223
 31
0.0
  0
MTEXT
  5
3A
100
AcDbEntity
  8
LIVELLO_1
 62
     7
100
AcDbMText
 10
58.984169
 20
-15.545695
 30
0.0
 40
8.038568
 41
0.0
 71
     1
 72
     2
  1
\fArial Narrow|b0|i0;\H8.0386;\C7;\U+0035\U+0030
  7
STD
210
0.0
220
0.0
230
1.0
 73
     1
 44
1.0
  0
LINE
  5
39
100
AcDbEntity
  8
LIVELLO_1
 62
     7
100
AcDbLine
 10
35.357704
 20
18.32808
 30
0.0
 11
35.357704
 21
-8.634271
 31
0.0
  0
LINE
  5
38
100
AcDbEntity
  8
LIVELLO_1
 62
     7
100
AcDbLine
 10
35.362183
 20
58.096195
 30
0.0
 11
35.357704
 21
32.621781
 31
0.0
  0
LINE
  5
37
100
AcDbEntity
  8
LIVELLO_1
 62
     7
100
AcDbLine
 10
31.275955
 20
-8.632204
 30
0.0
 11
39.441865
 21
-8.632204
 31
0.0
  0
LINE
  5
36
100
AcDbEntity
  8
LIVELLO_1
 62
     7
100
AcDbLine
 10
31.275955
 20
58.096195
 30
0.0
 11
39.375719
 21
58.096195
 31
0.0
  0
MTEXT
  5
35
100
AcDbEntity
  8
LIVELLO_1
 62
     7
100
AcDbMText
 10
25.798598
 20
30.823568
 30
0.0
 40
8.038568
 41
0.0
 71
     1
 72
     2
  1
\fArial Narrow|b0|i0;\H8.0386;\C7;\U+0032\U+0032\U+0030
  7
STD
210
0.0
220
0.0
230
1.0
 73
     1
 44
1.0
  0
LINE
  5
34
100
AcDbEntity
  8
LIVELLO_1
 62
     7
100
AcDbLine
 10
72.030401
 20
-20.458872
 30
0.0
 11
72.030401
 21
19.228284
 31
0.0
  0
LINE
  5
33
100
AcDbEntity
  8
LIVELLO_1
 62
     7
100
AcDbLine
 10
55.908388
 20
-20.458872
 30
0.0
 11
55.908388
 21
19.228284
 31
0.0
  0
CIRCLE
  5
32
100
AcDbEntity
  8
LIVELLO_1
 62
     7
100
AcDbCircle
 10
78.773831
 20
24.729757
 30
0.0
 40
0.889524
  0
SPLINE
  5
31
100
AcDbEntity
  8
LIVELLO_1
 62
     7
100
AcDbSpline
210
0.0
220
0.0
230
1.0
 70
     8
 71
     3
 72
   113
 73
   109
 74
     0
 42
0.00000001
 43
0.00000001
 40
0.0
 40
0.0
 40
0.0
 40
0.0
 40
1.0
 40
1.0
 40
1.0
 40
2.0
 40
2.0
 40
2.0
 40
3.0
 40
3.0
 40
3.0
 40
4.0
 40
4.0
 40
4.0
 40
5.0
 40
5.0
 40
5.0
 40
6.0
 40
6.0
 40
6.0
 40
7.0
 40
7.0
 40
7.0
 40
8.0
 40
8.0
 40
8.0
 40
9.0
 40
9.0
 40
9.0
 40
10.0
 40
10.0
 40
10.0
 40
11.0
 40
11.0
 40
11.0
 40
12.0
 40
12.0
 40
12.0
 40
13.0
 40
13.0
 40
13.0
 40
14.0
 40
14.0
 40
14.0
 40
15.0
 40
15.0
 40
15.0
 40
16.0
 40
16.0
 40
16.0
 40
17.0
 40
17.0
 40
17.0
 40
18.0
 40
18.0
 40
18.0
 40
19.0
 40
19.0
 40
19.0
 40
20.0
 40
20.0
 40
20.0
 40
21.0
 40
21.0
 40
21.0
 40
22.0
 40
22.0
 40
22.0
 40
23.0
 40
23.0
 40
23.0
 40
24.0
 40
24.0
 40
24.0
 40
25.0
 40
25.0
 40
25.0
 40
26.0
 40
26.0
 40
26.0
 40
27.0
 40
27.0
 40
27.0
 40
28.0
 40
28.0
 40
28.0
 40
29.0
 40
29.0
 40
29.0
 40
30.0
 40
30.0
 40
30.0
 40
31.0
 40
31.0
 40
31.0
 40
32.0
 40
32.0
 40
32.0
 40
33.0
 40
33.0
 40
33.0
 40
34.0
 40
34.0
 40
34.0
 40
35.0
 40
35.0
 40
35.0
 40
36.0
 40
36.0
 40
36.0
 40
36.0
 10
64.378499348958329
 20
10.727855088975694
 30
0.0
 10
63.843131510416661
 20
10.727855088975694
 30
0.0
 10
63.40215928819444
 20
10.337181260850693
 30
0.0
 10
63.319132486979164
 20
9.82765163845486
 30
0.0
 10
63.224736870659719
 20
9.4507581922743054
 30
0.0
 10
62.886773003472214
 20
9.1723944769965264
 30
0.0
 10
62.481629774305553
 20
9.1723944769965264
 30
0.0
 10
55.676188151041664
 20
10.029878743489583
 30
0.0
 10
50.293570963541661
 20
15.118284776475694
 30
0.0
 10
48.997181532118049
 20
21.674990505642359
 30
0.0
 10
48.984779188368051
 20
21.737691243489582
 30
0.0
 10
48.978233506944441
 20
21.789367675781246
 30
0.0
 10
48.978233506944441
 20
21.845522732204859
 30
0.0
 10
48.978233506944441
 20
22.296485731336805
 30
0.0
 10
49.344102647569443
 20
22.662354871961803
 30
0.0
 10
49.794032118055554
 20
22.662354871961803
 30
0.0
 10
49.794032118055554
 20
22.662354871961803
 30
0.0
 10
49.978000217013886
 20
22.653397623697913
 30
0.0
 10
49.978000217013886
 20
22.653397623697913
 30
0.0
 10
51.125217013888886
 20
22.653397623697913
 30
0.0
 10
52.056770833333331
 20
23.582884385850694
 30
0.0
 10
52.056770833333331
 20
24.729756673177082
 30
0.0
 10
52.056770833333331
 20
25.876628960503471
 30
0.0
 10
51.125217013888886
 20
26.808182779947913
 30
0.0
 10
49.978000217013886
 20
26.808182779947913
 30
0.0
 10
49.91874457465277
 20
26.808182779947913
 30
0.0
 10
49.854665798611109
 20
26.806115722656248
 30
0.0
 10
49.794032118055554
 20
26.799225531684026
 30
0.0
 10
49.344102647569443
 20
26.799225531684026
 30
0.0
 10
48.978233506944441
 20
27.165094672309024
 30
0.0
 10
48.978233506944441
 20
27.613990614149301
 30
0.0
 10
48.978233506944441
 20
27.670145670572914
 30
0.0
 10
48.984779188368051
 20
27.724233669704859
 30
0.0
 10
48.995114474826387
 20
27.775565592447915
 30
0.0
 10
49.214911566840271
 20
28.902456325954859
 30
0.0
 10
49.557354058159717
 20
29.984560818142359
 30
0.0
 10
50.006249999999994
 20
31.010165744357636
 30
0.0
 10
50.006249999999994
 20
31.010165744357636
 30
0.0
 10
50.06550564236111
 20
31.117997233072913
 30
0.0
 10
50.06550564236111
 20
31.117997233072913
 30
0.0
 10
50.278757052951384
 20
31.476976182725693
 30
0.0
 10
50.711116536458327
 20
31.620636664496526
 30
0.0
 10
51.09042154947916
 20
31.488344997829859
 30
0.0
 10
51.570667860243049
 20
31.317812771267359
 30
0.0
 10
52.10948079427083
 20
31.499713812934026
 30
0.0
 10
52.375442165798603
 20
31.941719563802081
 30
0.0
 10
52.649327256944439
 20
32.399572753906249
 30
0.0
 10
52.54356282552083
 20
32.978693305121524
 30
0.0
 10
52.147376844618051
 20
33.313212076822914
 30
0.0
 10
51.872458224826381
 20
33.58709716796875
 30
0.0
 10
51.807345920138886
 20
34.020145670572916
 30
0.0
 10
52.017496744791664
 20
34.368100314670137
 30
0.0
 10
54.943071831597216
 20
38.080879720052081
 30
0.0
 10
59.386555989583329
 20
40.408386230468743
 30
0.0
 10
64.378499348958329
 20
40.408386230468743
 30
0.0
 10
69.36596408420138
 20
40.408386230468743
 30
0.0
 10
73.811515299479154
 20
38.080879720052081
 30
0.0
 10
76.682313368055546
 20
34.449060058593744
 30
0.0
 10
76.943796115451377
 20
34.020145670572916
 30
0.0
 10
76.88006184895832
 20
33.58709716796875
 30
0.0
 10
76.606176757812491
 20
33.313212076822914
 30
0.0
 10
76.211024305555554
 20
32.978693305121524
 30
0.0
 10
76.103192816840277
 20
32.399572753906249
 30
0.0
 10
76.379489474826386
 20
31.941719563802081
 30
0.0
 10
76.645450846354166
 20
31.499713812934026
 30
0.0
 10
77.180818684895826
 20
31.319879828559024
 30
0.0
 10
77.652107747395831
 20
31.485933430989579
 30
0.0
 10
78.04278157552082
 20
31.620636664496526
 30
0.0
 10
78.474796549479166
 20
31.476976182725693
 30
0.0
 10
78.689081488715274
 20
31.117997233072913
 30
0.0
 10
78.689081488715274
 20
31.117997233072913
 30
0.0
 10
78.746270073784714
 20
31.010165744357636
 30
0.0
 10
78.746270073784714
 20
31.010165744357636
 30
0.0
 10
79.196199544270826
 20
29.984560818142359
 30
0.0
 10
79.536574978298603
 20
28.902456325954859
 30
0.0
 10
79.759817165798609
 20
27.775565592447915
 30
0.0
 10
79.768774414062491
 20
27.724233669704859
 30
0.0
 10
79.775320095486109
 20
27.670145670572914
 30
0.0
 10
79.775320095486109
 20
27.613990614149301
 30
0.0
 10
79.775320095486109
 20
27.165094672309024
 30
0.0
 10
79.410828993055546
 20
26.799225531684026
 30
0.0
 10
78.959521484374989
 20
26.799225531684026
 30
0.0
 10
78.8978542751736
 20
26.806115722656248
 30
0.0
 10
78.836187065972211
 20
26.808182779947913
 30
0.0
 10
78.774519856770823
 20
26.808182779947913
 30
0.0
 10
77.627303059895823
 20
26.808182779947913
 30
0.0
 10
76.698160807291657
 20
25.876628960503471
 30
0.0
 10
76.698160807291657
 20
24.729756673177082
 30
0.0
 10
76.698160807291657
 20
23.582884385850694
 30
0.0
 10
77.627303059895823
 20
22.653397623697913
 30
0.0
 10
78.774519856770823
 20
22.653397623697913
 30
0.0
 10
78.774519856770823
 20
22.653397623697913
 30
0.0
 10
78.959521484374989
 20
22.662354871961803
 30
0.0
 10
78.959521484374989
 20
22.662354871961803
 30
0.0
 10
79.410828993055546
 20
22.662354871961803
 30
0.0
 10
79.775320095486109
 20
22.296485731336805
 30
0.0
 10
79.775320095486109
 20
21.845522732204859
 30
0.0
 10
79.775320095486109
 20
21.789367675781246
 30
0.0
 10
79.768774414062491
 20
21.737691243489582
 30
0.0
 10
79.757405598958329
 20
21.674990505642359
 30
0.0
 10
78.46136067708332
 20
15.118284776475694
 30
0.0
 10
73.076331922743051
 20
10.029878743489583
 30
0.0
 10
66.368386501736111
 20
9.1789401584201382
 30
0.0
 10
65.867814127604163
 20
9.1723944769965264
 30
0.0
 10
65.527783203124997
 20
9.4528252495659721
 30
0.0
 10
65.433387586805551
 20
9.8300632052951382
 30
0.0
 10
65.352772352430549
 20
10.337181260850693
 30
0.0
 10
64.909388563368054
 20
10.727855088975694
 30
0.0
 10
64.378499348958329
 20
10.727855088975694
 30
0.0
  0
CIRCLE
  5
30
100
AcDbEntity
  8
LIVELLO_1
 62
     7
100
AcDbCircle
 10
49.978689
 20
24.729757
 30
0.0
 40
0.889524
  0
CIRCLE
  5
2F
100
AcDbEntity
  8
LIVELLO_1
 62
     7
100
AcDbCircle
 10
72.073637
 20
24.729757
 30
0.0
 40
0.92208
  0
CIRCLE
  5
2E
100
AcDbEntity
  8
LIVELLO_1
 62
     7
100
AcDbCircle
 10
56.680606
 20
24.729757
 30
0.0
 40
0.921391
  0
CIRCLE
  5
2D
100
AcDbEntity
  8
LIVELLO_1
 62
     7
100
AcDbCircle
 10
64.377294
 20
24.729757
 30
0.0
 40
4.343404
  0
SPLINE
  5
2C
100
AcDbEntity
  8
LIVELLO_1
 62
     7
100
AcDbSpline
210
0.0
220
0.0
230
1.0
 70
     8
 71
     3
 72
    59
 73
    55
 74
     0
 42
0.00000001
 43
0.00000001
 40
0.0
 40
0.0
 40
0.0
 40
0.0
 40
1.0
 40
1.0
 40
1.0
 40
2.0
 40
2.0
 40
2.0
 40
3.0
 40
3.0
 40
3.0
 40
4.0
 40
4.0
 40
4.0
 40
5.0
 40
5.0
 40
5.0
 40
6.0
 40
6.0
 40
6.0
 40
7.0
 40
7.0
 40
7.0
 40
8.0
 40
8.0
 40
8.0
 40
9.0
 40
9.0
 40
9.0
 40
10.0
 40
10.0
 40
10.0
 40
11.0
 40
11.0
 40
11.0
 40
12.0
 40
12.0
 40
12.0
 40
13.0
 40
13.0
 40
13.0
 40
14.0
 40
14.0
 40
14.0
 40
15.0
 40
15.0
 40
15.0
 40
16.0
 40
16.0
 40
16.0
 40
17.0
 40
17.0
 40
17.0
 40
18.0
 40
18.0
 40
18.0
 40
18.0
 10
83.902199978298597
 20
24.729756673177082
 30
0.0
 10
83.902199978298597
 20
31.010165744357636
 30
0.0
 10
82.189643012152771
 20
35.937341308593744
 30
0.0
 10
82.189643012152771
 20
35.937341308593744
 30
0.0
 10
75.737323676215269
 20
38.969714355468746
 30
0.0
 10
74.733078342013883
 20
45.88746609157986
 30
0.0
 10
74.733078342013883
 20
45.88746609157986
 30
0.0
 10
70.069797092013886
 20
50.242066786024303
 30
0.0
 10
69.677056206597214
 20
55.373536512586803
 30
0.0
 10
69.444512261284714
 20
56.30715738932291
 30
0.0
 10
69.212312825520826
 20
57.240778266059024
 30
0.0
 10
68.357240125868046
 20
58.096195475260409
 30
0.0
 10
67.035012478298611
 20
58.096195475260409
 30
0.0
 10
67.035012478298611
 20
58.096195475260409
 30
0.0
 10
61.718541124131939
 20
58.096195475260409
 30
0.0
 10
61.718541124131939
 20
58.096195475260409
 30
0.0
 10
60.397691514756936
 20
58.096195475260409
 30
0.0
 10
59.542274305555551
 20
57.240778266059024
 30
0.0
 10
59.310074869791663
 20
56.30715738932291
 30
0.0
 10
59.075463867187494
 20
55.373536512586803
 30
0.0
 10
58.685134548611103
 20
50.242066786024303
 30
0.0
 10
54.021853298611106
 20
45.88746609157986
 30
0.0
 10
54.021853298611106
 20
45.88746609157986
 30
0.0
 10
53.017263454861109
 20
38.969714355468746
 30
0.0
 10
46.565288628472217
 20
35.937341308593744
 30
0.0
 10
46.565288628472217
 20
35.937341308593744
 30
0.0
 10
44.850320095486104
 20
31.010165744357636
 30
0.0
 10
44.850320095486104
 20
24.729756673177082
 30
0.0
 10
44.850320095486104
 20
18.45382622612847
 30
0.0
 10
46.565288628472217
 20
13.522516547309026
 30
0.0
 10
46.565288628472217
 20
13.522516547309026
 30
0.0
 10
53.017263454861109
 20
10.492210557725693
 30
0.0
 10
54.021853298611106
 20
3.5720472547743052
 30
0.0
 10
54.021853298611106
 20
3.5720472547743052
 30
0.0
 10
58.685134548611103
 20
-0.7804863823784721
 30
0.0
 10
59.075463867187494
 20
-5.9136786566840271
 30
0.0
 10
59.310074869791663
 20
-6.8476440429687493
 30
0.0
 10
59.542274305555551
 20
-7.7767862955729159
 30
0.0
 10
60.397691514756936
 20
-8.6342705620659714
 30
0.0
 10
61.718541124131939
 20
-8.6342705620659714
 30
0.0
 10
61.718541124131939
 20
-8.6342705620659714
 30
0.0
 10
67.035012478298611
 20
-8.6342705620659714
 30
0.0
 10
67.035012478298611
 20
-8.6342705620659714
 30
0.0
 10
68.357240125868046
 20
-8.6342705620659714
 30
0.0
 10
69.212312825520826
 20
-7.7767862955729159
 30
0.0
 10
69.444512261284714
 20
-6.8476440429687493
 30
0.0
 10
69.677056206597214
 20
-5.9136786566840271
 30
0.0
 10
70.069797092013886
 20
-0.7804863823784721
 30
0.0
 10
74.733078342013883
 20
3.5720472547743052
 30
0.0
 10
74.733078342013883
 20
3.5720472547743052
 30
0.0
 10
75.737323676215269
 20
10.492210557725693
 30
0.0
 10
82.189643012152771
 20
13.522516547309026
 30
0.0
 10
82.189643012152771
 20
13.522516547309026
 30
0.0
 10
83.902199978298597
 20
18.45382622612847
 30
0.0
 10
83.902199978298597
 20
24.729756673177082
 30
0.0
  0
ENDBLK
  5
89
100
AcDbEntity
  8
LIVELLO_1
100
AcDbBlockEnd
  0
ENDSEC
  0
SECTION
  2
ENTITIES
  0
INSERT
  5
2A
100
AcDbEntity
  8
LIVELLO_1
 62
     7
100
AcDbBlockReference
  2
AI9-BLK1
 10
84.157137
 20
72.491527
 30
0.0
  0
ENDSEC
  0
SECTION
  2
OBJECTS
  0
DICTIONARY
  5
19
100
AcDbDictionary
280
     0
281
     1
  3
ACAD_GROUP
350
1A
  3
ACAD_MLINESTYLE
350
1B
  3
ACAD_LAYOUT
350
1E
  3
ACAD_PLOTSETTINGS
350
22
  3
ACAD_PLOTSTYLENAME
350
1F
  3
ACAD_WIPEOUT_VARS
350
23
  0
DICTIONARY
  5
1A
102
{ACAD_REACTORS
330
19
102
}
100
AcDbDictionary
280
     0
281
     1
  0
DICTIONARY
  5
1B
102
{ACAD_REACTORS
330
19
102
}
100
AcDbDictionary
280
     0
281
     1
  3
Standard
350
1C
  0
MLINESTYLE
  5
1C
102
{ACAD_REACTORS
330
1B
102
}
100
AcDbMlineStyle
  2
Standard
 70
     0
  3

 62
     0
 51
90.0
 52
90.0
 71
     2
 49
0.5
 62
   256
  6
ByLayer
 49
-0.5
 62
   256
  6
ByLayer
  0
ACDBDICTIONARYWDFLT
  5
1F
102
{ACAD_REACTORS
330
19
102
}
100
AcDbDictionary
281
     1
  3
Normal
350
1D
100
AcDbDictionaryWithDefault
340
1D
  0
ACDBPLACEHOLDER
  5
1D
102
{ACAD_REACTORS
330
1F
102
}
  0
LAYOUT
  5
20
102
{ACAD_REACTORS
330
1E
102
}
100
AcDbPlotSettings
  1

  2

  4

  6

 40
0.0
 41
0.0
 42
0.0
 43
0.0
 44
0.0
 45
0.0
 46
0.0
 47
0.0
 48
0.0
 49
0.0
140
0.0
141
0.0
142
1.0
143
1.0
 70
  1024
 72
     0
 73
     0
 74
     0
  7

 75
     0
147
1.0
148
0.0
149
0.0
100
AcDbLayout
  1
Model
 70
     0
 71
     0
 10
0.0
 20
0.0
 11
0.0
 21
0.0
 12
0.0
 22
0.0
 32
0.0
 14
0.0
 24
0.0
 34
0.0
 15
0.0
 25
0.0
 35
0.0
146
0.0
 13
0.0
 23
0.0
 33
0.0
 16
0.0
 26
0.0
 36
0.0
 17
0.0
 27
0.0
 37
0.0
 76
     0
330
A
331
0
345
0
346
0
  0
LAYOUT
  5
21
102
{ACAD_REACTORS
330
1E
102
}
100
AcDbPlotSettings
  1

  2

  4

  6

 40
0.0
 41
0.0
 42
0.0
 43
0.0
 44
0.0
 45
0.0
 46
0.0
 47
0.0
 48
0.0
 49
0.0
140
0.0
141
0.0
142
1.0
143
1.0
 70
     0
 72
     0
 73
     0
 74
     0
  7

 75
     0
147
1.0
148
0.0
149
0.0
100
AcDbLayout
  1
Layout1
 70
     0
 71
     0
 10
0.0
 20
0.0
 11
0.0
 21
0.0
 12
0.0
 22
0.0
 32
0.0
 14
0.0
 24
0.0
 34
0.0
 15
0.0
 25
0.0
 35
0.0
146
0.0
 13
0.0
 23
0.0
 33
0.0
 16
0.0
 26
0.0
 36
0.0
 17
0.0
 27
0.0
 37
0.0
 76
     0
330
B
331
0
345
0
346
0
  0
DICTIONARY
  5
1E
102
{ACAD_REACTORS
330
19
102
}
100
AcDbDictionary
280
     0
281
     1
  3
Layout1
350
21
  3
Model
350
20
  0
DICTIONARY
  5
22
102
{ACAD_REACTORS
330
19
102
}
100
AcDbDictionary
280
     0
281
     1
  0
WIPEOUTVARIABLES
  5
23
100
AcDbWipeoutVariables
 70
     1
  0
ENDSEC
  0
EOF
