  0
SECTION
  2
HEADER
  9
$ACADVER
  1
AC1015
  9
$ACADMAINTVER
 70
     6
  9
$DWGCODEPAGE
  3
ANSI_932
  9
$INSBASE
 10
0.0
 20
0.0
 30
0.0
  9
$EXTMIN
 10
0.11386
 20
0.0
 30
1.000000E+20
  9
$EXTMAX
 10
70.709724
 20
241.311541
 30
-1.000000E+20
  9
$LIMMIN
 10
0.11386
 20
0.0
  9
$LIMMAX
 10
70.709724
 20
241.311541
  9
$ORTHOMODE
 70
     0
  9
$REGENMODE
 70
     1
  9
$FILLMODE
 70
     1
  9
$QTEXTMODE
 70
     0
  9
$MIRRTEXT
 70
     1
  9
$LTSCALE
 40
1.0
  9
$ATTMODE
 70
     1
  9
$TEXTSIZE
 40
0.2
  9
$TRACEWID
 40
0.05
  9
$TEXTSTYLE
  7
Standard
  9
$CLAYER
  8
0
  9
$CELTYPE
  6
Continuous
  9
$CECOLOR
 62
   256
  9
$CELTSCALE
 40
1.0
  9
$DISPSILH
 70
     0
  9
$DIMSCALE
 40
1.0
  9
$DIMASZ
 40
0.18
  9
$DIMEXO
 40
0.0625
  9
$DIMDLI
 40
0.38
  9
$DIMRND
 40
0.0
  9
$DIMDLE
 40
0.0
  9
$DIMEXE
 40
0.18
  9
$DIMTP
 40
0.0
  9
$DIMTM
 40
0.0
  9
$DIMTXT
 40
0.18
  9
$DIMCEN
 40
0.09
  9
$DIMTSZ
 40
0.0
  9
$DIMTOL
 70
     0
  9
$DIMLIM
 70
     0
  9
$DIMTIH
 70
     1
  9
$DIMTOH
 70
     1
  9
$DIMSE1
 70
     0
  9
$DIMSE2
 70
     0
  9
$DIMTAD
 70
     0
  9
$DIMZIN
 70
     0
  9
$DIMBLK
  1

  9
$DIMASO
 70
     1
  9
$DIMSHO
 70
     1
  9
$DIMPOST
  1

  9
$DIMAPOST
  1

  9
$DIMALT
 70
     0
  9
$DIMALTD
 70
     2
  9
$DIMALTF
 40
25.4
  9
$DIMLFAC
 40
1.0
  9
$DIMTOFL
 70
     0
  9
$DIMTVP
 40
0.0
  9
$DIMTIX
 70
     0
  9
$DIMSOXD
 70
     0
  9
$DIMSAH
 70
     0
  9
$DIMBLK1
  1

  9
$DIMBLK2
  1

  9
$DIMSTYLE
  2
Standard
  9
$DIMCLRD
 70
     0
  9
$DIMCLRE
 70
     0
  9
$DIMCLRT
 70
     0
  9
$DIMTFAC
 40
1.0
  9
$DIMGAP
 40
0.09
  9
$DIMJUST
 70
     0
  9
$DIMSD1
 70
     0
  9
$DIMSD2
 70
     0
  9
$DIMTOLJ
 70
     1
  9
$DIMTZIN
 70
     0
  9
$DIMALTZ
 70
     0
  9
$DIMALTTZ
 70
     0
  9
$DIMUPT
 70
     0
  9
$DIMDEC
 70
     4
  9
$DIMTDEC
 70
     4
  9
$DIMALTU
 70
     2
  9
$DIMALTTD
 70
     2
  9
$DIMTXSTY
  7
Standard
  9
$DIMAUNIT
 70
     0
  9
$DIMADEC
 70
     0
  9
$DIMALTRND
 40
0.0
  9
$DIMAZIN
 70
     0
  9
$DIMDSEP
 70
     0
  9
$DIMATFIT
 70
     3
  9
$DIMFRAC
 70
     0
  9
$DIMLDRBLK
  1

  9
$DIMLUNIT
 70
     2
  9
$DIMLWD
 70
     0
  9
$DIMLWE
 70
     0
  9
$DIMTMOVE
 70
     0
  9
$LUNITS
 70
     2
  9
$LUPREC
 70
     4
  9
$SKETCHINC
 40
0.1
  9
$FILLETRAD
 40
0.0
  9
$AUNITS
 70
     0
  9
$AUPREC
 70
     0
  9
$MENU
  1
acad
  9
$ELEVATION
 40
0.0
  9
$PELEVATION
 40
0.0
  9
$THICKNESS
 40
0.0
  9
$LIMCHECK
 70
     0
  9
$CHAMFERA
 40
0.0
  9
$CHAMFERB
 40
0.0
  9
$CHAMFERC
 40
0.0
  9
$CHAMFERD
 40
0.0
  9
$SKPOLY
 70
     0
  9
$TDCREATE
 40
0.000000000
  9
$TDUCREATE
 40
0.000000000
  9
$TDUPDATE
 40
0.000000000
  9
$TDUUPDATE
 40
0.000000000
  9
$TDINDWG
 40
0.0000000000
  9
$TDUSRTIMER
 40
0.0000000000
  9
$USRTIMER
 70
     1
  9
$ANGBASE
 50
0.0
  9
$ANGDIR
 70
     0
  9
$PDMODE
 70
     0
  9
$PDSIZE
 40
0.0
  9
$PLINEWID
 40
0.0
  9
$SPLFRAME
 70
     0
  9
$SPLINETYPE
 70
     6
  9
$SPLINESEGS
 70
     8
  9
$HANDSEED
  5
62
  9
$SURFTAB1
 70
     6
  9
$SURFTAB2
 70
     6
  9
$SURFTYPE
 70
     6
  9
$SURFU
 70
     6
  9
$SURFV
 70
     6
  9
$UCSBASE
  2

  9
$UCSNAME
  2

  9
$UCSORG
 10
0.0
 20
0.0
 30
0.0
  9
$UCSXDIR
 10
1.0
 20
0.0
 30
0.0
  9
$UCSYDIR
 10
0.0
 20
1.0
 30
0.0
  9
$UCSORTHOREF
  2

  9
$UCSORTHOVIEW
 70
     0
  9
$UCSORGTOP
 10
0.0
 20
0.0
 30
0.0
  9
$UCSORGBOTTOM
 10
0.0
 20
0.0
 30
0.0
  9
$UCSORGLEFT
 10
0.0
 20
0.0
 30
0.0
  9
$UCSORGRIGHT
 10
0.0
 20
0.0
 30
0.0
  9
$UCSORGFRONT
 10
0.0
 20
0.0
 30
0.0
  9
$UCSORGBACK
 10
0.0
 20
0.0
 30
0.0
  9
$PUCSBASE
  2

  9
$PUCSNAME
  2

  9
$PUCSORG
 10
0.0
 20
0.0
 30
0.0
  9
$PUCSXDIR
 10
1.0
 20
0.0
 30
0.0
  9
$PUCSYDIR
 10
0.0
 20
1.0
 30
0.0
  9
$PUCSORTHOREF
  2

  9
$PUCSORTHOVIEW
 70
     0
  9
$PUCSORGTOP
 10
0.0
 20
0.0
 30
0.0
  9
$PUCSORGBOTTOM
 10
0.0
 20
0.0
 30
0.0
  9
$PUCSORGLEFT
 10
0.0
 20
0.0
 30
0.0
  9
$PUCSORGRIGHT
 10
0.0
 20
0.0
 30
0.0
  9
$PUCSORGFRONT
 10
0.0
 20
0.0
 30
0.0
  9
$PUCSORGBACK
 10
0.0
 20
0.0
 30
0.0
  9
$USERI1
 70
     0
  9
$USERI2
 70
     0
  9
$USERI3
 70
     0
  9
$USERI4
 70
     0
  9
$USERI5
 70
     0
  9
$USERR1
 40
0.0
  9
$USERR2
 40
0.0
  9
$USERR3
 40
0.0
  9
$USERR4
 40
0.0
  9
$USERR5
 40
0.0
  9
$WORLDVIEW
 70
     1
  9
$SHADEDGE
 70
     3
  9
$SHADEDIF
 70
    70
  9
$TILEMODE
 70
     1
  9
$MAXACTVP
 70
    16
  9
$PINSBASE
 10
0.0
 20
0.0
 30
0.0
  9
$PLIMCHECK
 70
     0
  9
$PEXTMIN
 10
1.000000E+20
 20
1.000000E+20
 30
1.000000E+20
  9
$PEXTMAX
 10
-1.000000E+20
 20
-1.000000E+20
 30
-1.000000E+20
  9
$PLIMMIN
 10
0.0
 20
0.0
  9
$PLIMMAX
 10
12.0
 20
9.0
  9
$UNITMODE
 70
     0
  9
$VISRETAIN
 70
     0
  9
$PLINEGEN
 70
     1
  9
$PSLTSCALE
 70
     0
  9
$TREEDEPTH
 70
  3020
  9
$CMLSTYLE
  2
Standard
  9
$CMLJUST
 70
     0
  9
$CMLSCALE
 40
1.0
  9
$PROXYGRAPHICS
 70
     0
  9
$MEASUREMENT
 70
     1
  9
$CELWEIGHT
370
     0
  9
$ENDCAPS
280
     0
  9
$JOINSTYLE
280
     0
  9
$LWDISPLAY
290
     0
  9
$INSUNITS
 70
     0
  9
$HYPERLINKBASE
  1

  9
$STYLESHEET
  1

  9
$XEDIT
290
     1
  9
$CEPSNTYPE
380
     0
  9
$PSTYLEMODE
290
     1
  9
$FINGERPRINTGUID
  2

  9
$VERSIONGUID
  2

  9
$EXTNAMES
290
     1
  9
$PSVPSCALE
 40
0.0
  0
ENDSEC
  0
SECTION
  2
CLASSES
  0
CLASS
  1
LWPOLYLINE
  2
AcDbPolyline
  3
AutoCAD 2000
 90
    32768
280
     0
281
     1
  0
CLASS
  1
IMAGE
  2
AcDbRasterImage
  3
ISM
 90
    32895
280
     0
281
     1
  0
CLASS
  1
OLE2FRAME
  2
AcDbOle2Frame
  3
AutoCAD 2000
 90
    32768
280
     0
281
     1
  0
CLASS
  1
HATCH
  2
AcDbHatch
  3
AutoCAD 2000
 90
    32768
280
     0
281
     1
  0
CLASS
  1
DICTIONARYVAR
  2
AcDbDictionaryVar
  3
AutoCAD 2000
 90
    32768
280
     0
281
     0
  0
CLASS
  1
RASTERVARIABLES
  2
AcDbRasterVariables
  3
ISM
 90
    32768
280
     0
281
     0
  0
CLASS
  1
IMAGEDEF
  2
AcDbRasterImageDef
  3
ISM
 90
    32768
280
     0
281
     0
  0
CLASS
  1
IMAGEDEF_REACTOR
  2
AcDbRasterImageDefReactor
  3
ISM
 90
    32769
280
     0
281
     0
  0
CLASS
  1
IDBUFFER
  2
AcDbIdBuffer
  3
AutoCAD 2000
 90
    32768
280
     0
281
     0
  0
CLASS
  1
SPATIAL_FILTER
  2
AcDbSpatialFilter
  3
AutoCAD 2000
 90
    32768
280
     0
281
     0
  0
CLASS
  1
XRECORD
  2
AcDbXrecord
  3
AutoCAD 2000
 90
    32768
280
     0
281
     0
  0
CLASS
  1
SORTENTSTABLE
  2
AcDbSortentsTable
  3
AutoCAD 2000
 90
    32768
280
     0
281
     0
  0
CLASS
  1
LAYER_INDEX
  2
AcDbLayerIndex
  3
AutoCAD 2000
 90
    32768
280
     0
281
     0
  0
CLASS
  1
SPATIAL_INDEX
  2
AcDbSpatialIndex
  3
AutoCAD 2000
 90
    32768
280
     0
281
     0
  0
CLASS
  1
OBJECT_PTR
  2
CAseDLPNTableRecord
  3
"ASE-LPNTableRecord"
 90
    32769
280
     0
281
     0
  0
CLASS
  1
LAYOUT
  2
AcDbLayout
  3
AutoCAD 2000
 90
        0
280
     0
281
     0
  0
CLASS
  1
PLOTSETTINGS
  2
AcDbPlotSettings
  3
AutoCAD 2000
 90
    32768
280
     0
281
     0
  0
CLASS
  1
ACDBDICTIONARYWDFLT
  2
AcDbDictionaryWithDefault
  3
AutoCAD 2000
 90
        0
280
     0
281
     0
  0
CLASS
  1
ACDBPLACEHOLDER
  2
AcDbPlaceHolder
  3
AutoCAD 2000
 90
        0
280
     0
281
     0
  0
CLASS
  1
VBA_PROJECT
  2
AcDbVbaProject
  3
acadvba
 90
    32768
280
     0
281
     0
  0
CLASS
  1
WIPEOUT
  2
AcDbWipeout
  3
WipeOut|AutoCAD Express Tool|expresstools@autodesk.com
 90
    32895
280
     0
281
     1
  0
CLASS
  1
WIPEOUTVARIABLES
  2
AcDbWipeoutVariables
  3
WipeOut|AutoCAD Express Tool|expresstools@autodesk.com
 90
        0
280
     0
281
     0
  0
CLASS
  1
RTEXT
  2
RText
  3
RText|AutoCAD Express Tool|expresstools@autodesk.com
 90
    32768
280
     0
281
     1
  0
CLASS
  1
ARCALIGNEDTEXT
  2
AcDbArcAlignedText
  3
ATEXT|AutoCAD Express Tool|expresstools@autodesk.com
 90
    32768
280
     0
281
     1
  0
ENDSEC
  0
SECTION
  2
TABLES
  0
TABLE
  2
VPORT
  5
7
100
AcDbSymbolTable
 70
     1
  0
VPORT
  5
15
100
AcDbSymbolTableRecord
100
AcDbViewportTableRecord
  2
*ACTIVE
 70
     0
 10
0.0
 20
0.0
 11
1.0
 21
1.0
 12
6.591288
 22
4.579184
 13
0.0
 23
0.0
 14
1.0
 24
1.0
 15
0.0
 25
0.0
 16
0.0
 26
0.0
 36
1.0
 17
0.0
 27
0.0
 37
0.0
 40
9.158369
 41
0.688564
 42
50.0
 43
0.0
 44
0.0
 50
0.0
 51
0.0
 71
     0
 72
   100
 73
     1
 74
     1
 75
     0
 76
     0
 77
     0
 78
     0
281
     0
 65
     0
110
0.0
120
0.0
130
0.0
111
1.0
121
0.0
131
0.0
112
0.0
122
1.0
132
0.0
345
0
346
0
 79
     0
146
0.0
  0
ENDTAB
  0
TABLE
  2
LTYPE
  5
4
100
AcDbSymbolTable
 70
     3
  0
LTYPE
  5
11
100
AcDbSymbolTableRecord
100
AcDbLinetypeTableRecord
  2
ByBlock
 70
    64
  3

 72
    65
 73
     0
 40
0.0
  0
LTYPE
  5
12
100
AcDbSymbolTableRecord
100
AcDbLinetypeTableRecord
  2
ByLayer
 70
    64
  3

 72
    65
 73
     0
 40
0.0
  0
LTYPE
  5
13
100
AcDbSymbolTableRecord
100
AcDbLinetypeTableRecord
  2
Continuous
 70
    64
  3
Solid line
 72
    65
 73
     0
 40
0.0
  0
ENDTAB
  0
TABLE
  2
LAYER
  5
2
100
AcDbSymbolTable
 70
     2
  0
LAYER
  5
14
100
AcDbSymbolTableRecord
100
AcDbLayerTableRecord
  2
0
 70
     0
 62
     7
  6
Continuous
290
     1
370
    -3
390
1D
  0
LAYER
  5
28
100
AcDbSymbolTableRecord
100
AcDbLayerTableRecord
  2
LIVELLO_1
 70
     0
 62
   160
  6
Continuous
290
     1
370
    -3
390
1D
  0
ENDTAB
  0
TABLE
  2
STYLE
  5
3
100
AcDbSymbolTable
 70
     5
  0
STYLE
  5
17
100
AcDbSymbolTableRecord
100
AcDbTextStyleTableRecord
  2
Standard
 70
     0
 40
0.0
 41
1.0
 50
0.0
 71
     0
 42
0.0
  3
txt
  4

  0
STYLE
  5
24
100
AcDbSymbolTableRecord
100
AcDbTextStyleTableRecord
  2
STD
 70
     0
 40
0.0
 41
1.0
 50
0.0
 71
     0
 42
0.0
  3
txt
  4

  0
STYLE
  5
25
100
AcDbSymbolTableRecord
100
AcDbTextStyleTableRecord
  2
TATESTD
 70
     4
 40
0.0
 41
1.0
 50
0.0
 71
     0
 42
0.0
  3
txt
  4

  0
STYLE
  5
26
100
AcDbSymbolTableRecord
100
AcDbTextStyleTableRecord
  2
KANJISTD
 70
     0
 40
0.0
 41
1.0
 50
0.0
 71
     0
 42
0.0
  3
txt
  4
extfont
  0
STYLE
  5
27
100
AcDbSymbolTableRecord
100
AcDbTextStyleTableRecord
  2
KANJITATE
 70
     4
 40
0.0
 41
1.0
 50
0.0
 71
     0
 42
0.0
  3
txt
  4
extfont
  0
ENDTAB
  0
TABLE
  2
VIEW
  5
5
100
AcDbSymbolTable
 70
     0
  0
ENDTAB
  0
TABLE
  2
UCS
  5
6
100
AcDbSymbolTable
 70
     0
  0
ENDTAB
  0
TABLE
  2
APPID
  5
8
100
AcDbSymbolTable
 70
     1
  0
APPID
  5
16
100
AcDbSymbolTableRecord
100
AcDbRegAppTableRecord
  2
ACAD
 70
     0
  0
ENDTAB
  0
TABLE
  2
DIMSTYLE
  5
9
100
AcDbSymbolTable
 70
     1
100
AcDbDimStyleTable
 71
     0
  0
DIMSTYLE
105
18
100
AcDbSymbolTableRecord
100
AcDbDimStyleTableRecord
  2
Standard
 70
     0
  3

  4

 40
1.0
 41
0.18
 42
0.0625
 43
0.38
 44
0.18
 45
0.0
 46
0.0
 47
0.0
 48
0.0
 71
     0
 72
     0
 73
     1
 74
     1
 75
     0
 76
     0
 77
     0
 78
     0
 79
     0
140
0.18
141
0.09
142
0.0
143
25.4
144
1.0
145
0.0
146
1.0
147
0.09
148
0.0
170
     0
171
     2
172
     0
173
     0
174
     0
175
     0
176
     0
177
     0
178
     0
179
     0
271
     4
272
     4
273
     2
274
     2
275
     0
276
     0
277
     2
278
    46
279
     0
280
     0
281
     0
282
     0
283
     1
284
     0
285
     0
286
     0
288
     0
340
17
341
0
342
0
343
0
344
0
371
    -2
372
    -2
  0
ENDTAB
  0
TABLE
  2
BLOCK_RECORD
  5
1
100
AcDbSymbolTable
 70
     1
  0
BLOCK_RECORD
  5
A
100
AcDbSymbolTableRecord
100
AcDbBlockTableRecord
  2
*MODEL_SPACE
340
20
  0
BLOCK_RECORD
  5
B
100
AcDbSymbolTableRecord
100
AcDbBlockTableRecord
  2
*PAPER_SPACE
340
21
  0
BLOCK_RECORD
  5
29
100
AcDbSymbolTableRecord
100
AcDbBlockTableRecord
  2
AI9-BLK1
340
0
102
{BLKREFS
331
2A
102
}
  0
ENDTAB
  0
ENDSEC
  0
SECTION
  2
BLOCKS
  0
BLOCK
  5
D
100
AcDbEntity
  8
0
100
AcDbBlockBegin
  2
*MODEL_SPACE
 70
     0
 10
0.0
 20
0.0
 30
0.0
  3
*MODEL_SPACE
  1

  0
ENDBLK
  5
E
100
AcDbEntity
  8
0
100
AcDbBlockEnd
  0
BLOCK
  5
F
100
AcDbEntity
 67
     1
  8
0
100
AcDbBlockBegin
  2
*PAPER_SPACE
 70
     0
 10
0.0
 20
0.0
 30
0.0
  3
*PAPER_SPACE
  1

  0
ENDBLK
  5
10
100
AcDbEntity
 67
     1
  8
0
100
AcDbBlockEnd
  0
BLOCK
  5
2B
100
AcDbEntity
  8
LIVELLO_1
 62
     7
100
AcDbBlockBegin
  2
AI9-BLK1
 70
     0
 10
0.0
 20
0.0
 30
0.0
  3
AI9-BLK1
  1

  0
LINE
  5
60
100
AcDbEntity
  8
LIVELLO_1
 62
     7
100
AcDbLine
 10
-25.893165
 20
-70.28124
 30
0.0
 11
-25.896783
 21
-90.758887
 31
0.0
  0
LINE
  5
5F
100
AcDbEntity
  8
LIVELLO_1
 62
     7
100
AcDbLine
 10
-30.888037
 20
-90.740973
 30
0.0
 11
-20.902945
 21
-90.740973
 31
0.0
  0
LINE
  5
5E
100
AcDbEntity
  8
LIVELLO_1
 62
     7
100
AcDbLine
 10
-31.105078
 20
-90.633141
 30
0.0
 11
-21.119986
 21
-90.633141
 31
0.0
  0
LINE
  5
5D
100
AcDbEntity
  8
LIVELLO_1
 62
     7
100
AcDbLine
 10
-31.038588
 20
-90.757165
 30
0.0
 11
-21.05539
 21
-90.757165
 31
0.0
  0
LINE
  5
5C
100
AcDbEntity
  8
LIVELLO_1
 62
     7
100
AcDbLine
 10
-31.439425
 20
-38.845433
 30
0.0
 11
-21.456227
 21
-38.845433
 31
0.0
  0
LINE
  5
5B
100
AcDbEntity
  8
LIVELLO_1
 62
     7
100
AcDbLine
 10
-25.893165
 20
-38.983581
 30
0.0
 11
-25.896783
 21
-54.098937
 31
0.0
  0
LINE
  5
5A
100
AcDbEntity
  8
LIVELLO_1
 62
     7
100
AcDbLine
 10
-30.97761
 20
-38.890219
 30
0.0
 11
-20.995273
 21
-38.890219
 31
0.0
  0
LINE
  5
59
100
AcDbEntity
  8
LIVELLO_1
 62
     7
100
AcDbLine
 10
12.739619
 20
-115.445753
 30
0.0
 11
35.054708
 21
-115.447475
 31
0.0
  0
LINE
  5
58
100
AcDbEntity
  8
LIVELLO_1
 62
     7
100
AcDbLine
 10
35.038688
 20
-120.43873
 30
0.0
 11
35.038688
 21
-110.456565
 31
0.0
  0
LINE
  5
57
100
AcDbEntity
  8
LIVELLO_1
 62
     7
100
AcDbLine
 10
34.92655
 20
-120.655771
 30
0.0
 11
34.92655
 21
-110.671539
 31
0.0
  0
LINE
  5
56
100
AcDbEntity
  8
LIVELLO_1
 62
     7
100
AcDbLine
 10
-30.82792
 20
33.084888
 30
0.0
 11
-20.842828
 21
33.084888
 31
0.0
  0
LINE
  5
55
100
AcDbEntity
  8
LIVELLO_1
 62
     7
100
AcDbLine
 10
-25.832187
 20
33.084888
 30
0.0
 11
-25.835805
 21
8.787147
 31
0.0
  0
SPLINE
  5
54
100
AcDbEntity
  8
LIVELLO_1
 62
     7
100
AcDbSpline
210
0.0
220
0.0
230
1.0
 70
     8
 71
     3
 72
    20
 73
    16
 74
     0
 42
0.00000001
 43
0.00000001
 40
0.0
 40
0.0
 40
0.0
 40
0.0
 40
1.0
 40
1.0
 40
1.0
 40
2.0
 40
2.0
 40
2.0
 40
3.0
 40
3.0
 40
3.0
 40
4.0
 40
4.0
 40
4.0
 40
5.0
 40
5.0
 40
5.0
 40
5.0
 10
23.276270887586804
 20
-71.936608208550339
 30
0.0
 10
23.276270887586804
 20
-71.936608208550339
 30
0.0
 10
23.276270887586804
 20
-78.712077501085062
 30
0.0
 10
23.276270887586804
 20
-78.712077501085062
 30
0.0
 10
23.276270887586804
 20
-86.192757839626722
 30
0.0
 10
17.209802246093748
 20
-92.258192952473948
 30
0.0
 10
9.7292941623263882
 20
-92.258192952473948
 30
0.0
 10
2.2496473524305554
 20
-92.258192952473948
 30
0.0
 10
-3.8183715820312498
 20
-86.192757839626722
 30
0.0
 10
-3.8183715820312498
 20
-78.712077501085062
 30
0.0
 10
-3.8183715820312498
 20
-78.712077501085062
 30
0.0
 10
-3.8183715820312498
 20
-71.936608208550339
 30
0.0
 10
-3.8183715820312498
 20
-71.936608208550339
 30
0.0
 10
-3.8183715820312498
 20
-71.936608208550339
 30
0.0
 10
23.276270887586804
 20
-71.936608208550339
 30
0.0
 10
23.276270887586804
 20
-71.936608208550339
 30
0.0
  0
SPLINE
  5
53
100
AcDbEntity
  8
LIVELLO_1
 62
     7
100
AcDbSpline
210
0.0
220
0.0
230
1.0
 70
     8
 71
     3
 72
    29
 73
    25
 74
     0
 42
0.00000001
 43
0.00000001
 40
0.0
 40
0.0
 40
0.0
 40
0.0
 40
1.0
 40
1.0
 40
1.0
 40
2.0
 40
2.0
 40
2.0
 40
3.0
 40
3.0
 40
3.0
 40
4.0
 40
4.0
 40
4.0
 40
5.0
 40
5.0
 40
5.0
 40
6.0
 40
6.0
 40
6.0
 40
7.0
 40
7.0
 40
7.0
 40
8.0
 40
8.0
 40
8.0
 40
8.0
 10
-12.580282931857639
 20
-69.787902153862845
 30
0.0
 10
-12.580282931857639
 20
-69.787902153862845
 30
0.0
 10
32.039904785156246
 20
-69.787902153862845
 30
0.0
 10
32.039904785156246
 20
-69.787902153862845
 30
0.0
 10
32.039904785156246
 20
-69.787902153862845
 30
0.0
 10
16.815338812934026
 20
-62.854647488064231
 30
0.0
 10
13.361975097656249
 20
-42.810737440321176
 30
0.0
 10
13.361975097656249
 20
-39.697404649522568
 30
0.0
 10
6.0976467556423604
 20
-39.697404649522568
 30
0.0
 10
6.0976467556423604
 20
-42.810737440321176
 30
0.0
 10
2.6263685438368052
 20
-62.815028889973952
 30
0.0
 10
-12.580282931857639
 20
-69.787902153862845
 30
0.0
 10
-12.580282931857639
 20
-69.787902153862845
 30
0.0
 10
-12.580282931857639
 20
-69.787902153862845
 30
0.0
 10
-13.617945692274304
 20
-71.862883165147565
 30
0.0
 10
-13.617945692274304
 20
-71.862883165147565
 30
0.0
 10
-13.617945692274304
 20
-71.862883165147565
 30
0.0
 10
33.077395290798606
 20
-71.862883165147565
 30
0.0
 10
33.077395290798606
 20
-71.862883165147565
 30
0.0
 10
33.077395290798606
 20
-71.862883165147565
 30
0.0
 10
32.039904785156246
 20
-69.787902153862845
 30
0.0
 10
32.039904785156246
 20
-69.787902153862845
 30
0.0
 10
32.039904785156246
 20
-69.787902153862845
 30
0.0
 10
-12.580282931857639
 20
-69.787902153862845
 30
0.0
 10
-12.580282931857639
 20
-69.787902153862845
 30
0.0
  0
LINE
  5
52
100
AcDbEntity
  8
LIVELLO_1
 62
     7
100
AcDbLine
 10
-1.21164
 20
30.615272
 30
0.0
 11
20.65507
 21
30.615272
 31
0.0
  0
SPLINE
  5
51
100
AcDbEntity
  8
LIVELLO_1
 62
     7
100
AcDbSpline
210
0.0
220
0.0
230
1.0
 70
     8
 71
     3
 72
    23
 73
    19
 74
     0
 42
0.00000001
 43
0.00000001
 40
0.0
 40
0.0
 40
0.0
 40
0.0
 40
1.0
 40
1.0
 40
1.0
 40
2.0
 40
2.0
 40
2.0
 40
3.0
 40
3.0
 40
3.0
 40
4.0
 40
4.0
 40
4.0
 40
5.0
 40
5.0
 40
5.0
 40
6.0
 40
6.0
 40
6.0
 40
6.0
 10
9.7203369140625
 20
-33.253353542751732
 30
0.0
 10
9.7203369140625
 20
-33.253353542751732
 30
0.0
 10
9.7203369140625
 20
-36.897575547960066
 30
0.0
 10
9.7203369140625
 20
-36.897575547960066
 30
0.0
 10
10.729233127170138
 20
-36.897575547960066
 30
0.0
 10
11.546237521701388
 20
-37.711996120876734
 30
0.0
 10
11.546237521701388
 20
-38.717964002821176
 30
0.0
 10
11.546237521701388
 20
-39.725998942057288
 30
0.0
 10
10.729233127170138
 20
-40.541797553168401
 30
0.0
 10
9.7203369140625
 20
-40.541797553168401
 30
0.0
 10
8.7143690321180554
 20
-40.541797553168401
 30
0.0
 10
7.9009819878472216
 20
-39.725998942057288
 30
0.0
 10
7.9009819878472216
 20
-38.717964002821176
 30
0.0
 10
7.9009819878472216
 20
-37.711996120876734
 30
0.0
 10
8.7143690321180554
 20
-36.897575547960066
 30
0.0
 10
9.7203369140625
 20
-36.897575547960066
 30
0.0
 10
9.7203369140625
 20
-36.897575547960066
 30
0.0
 10
9.7203369140625
 20
-33.253353542751732
 30
0.0
 10
9.7203369140625
 20
-33.253353542751732
 30
0.0
  0
SPLINE
  5
50
100
AcDbEntity
  8
LIVELLO_1
 62
     7
100
AcDbSpline
210
0.0
220
0.0
230
1.0
 70
     8
 71
     3
 72
    23
 73
    19
 74
     0
 42
0.00000001
 43
0.00000001
 40
0.0
 40
0.0
 40
0.0
 40
0.0
 40
1.0
 40
1.0
 40
1.0
 40
2.0
 40
2.0
 40
2.0
 40
3.0
 40
3.0
 40
3.0
 40
4.0
 40
4.0
 40
4.0
 40
5.0
 40
5.0
 40
5.0
 40
6.0
 40
6.0
 40
6.0
 40
6.0
 10
9.7203369140625
 20
-24.140731472439235
 30
0.0
 10
9.7203369140625
 20
-24.140731472439235
 30
0.0
 10
9.7203369140625
 20
-27.784953477647566
 30
0.0
 10
9.7203369140625
 20
-27.784953477647566
 30
0.0
 10
10.729233127170138
 20
-27.784953477647566
 30
0.0
 10
11.546237521701388
 20
-29.008306884765624
 30
0.0
 10
11.546237521701388
 20
-30.518292236328122
 30
0.0
 10
11.546237521701388
 20
-32.028622097439232
 30
0.0
 10
10.729233127170138
 20
-33.253353542751732
 30
0.0
 10
9.7203369140625
 20
-33.253353542751732
 30
0.0
 10
8.7143690321180554
 20
-33.253353542751732
 30
0.0
 10
7.9009819878472216
 20
-32.028622097439232
 30
0.0
 10
7.9009819878472216
 20
-30.518292236328122
 30
0.0
 10
7.9009819878472216
 20
-29.008306884765624
 30
0.0
 10
8.7143690321180554
 20
-27.784953477647566
 30
0.0
 10
9.7203369140625
 20
-27.784953477647566
 30
0.0
 10
9.7203369140625
 20
-27.784953477647566
 30
0.0
 10
9.7203369140625
 20
-24.140731472439235
 30
0.0
 10
9.7203369140625
 20
-24.140731472439235
 30
0.0
  0
SPLINE
  5
4F
100
AcDbEntity
  8
LIVELLO_1
 62
     7
100
AcDbSpline
210
0.0
220
0.0
230
1.0
 70
     8
 71
     3
 72
    23
 73
    19
 74
     0
 42
0.00000001
 43
0.00000001
 40
0.0
 40
0.0
 40
0.0
 40
0.0
 40
1.0
 40
1.0
 40
1.0
 40
2.0
 40
2.0
 40
2.0
 40
3.0
 40
3.0
 40
3.0
 40
4.0
 40
4.0
 40
4.0
 40
5.0
 40
5.0
 40
5.0
 40
6.0
 40
6.0
 40
6.0
 40
6.0
 10
9.7203369140625
 20
-15.028453911675346
 30
0.0
 10
9.7203369140625
 20
-15.028453911675346
 30
0.0
 10
9.7203369140625
 20
-18.67267591688368
 30
0.0
 10
9.7203369140625
 20
-18.67267591688368
 30
0.0
 10
10.729233127170138
 20
-18.67267591688368
 30
0.0
 10
11.546237521701388
 20
-19.89740736219618
 30
0.0
 10
11.546237521701388
 20
-21.405670166015621
 30
0.0
 10
11.546237521701388
 20
-22.916000027126735
 30
0.0
 10
10.729233127170138
 20
-24.140731472439235
 30
0.0
 10
9.7203369140625
 20
-24.140731472439235
 30
0.0
 10
8.7143690321180554
 20
-24.140731472439235
 30
0.0
 10
7.9009819878472216
 20
-22.916000027126735
 30
0.0
 10
7.9009819878472216
 20
-21.405670166015621
 30
0.0
 10
7.9009819878472216
 20
-19.89740736219618
 30
0.0
 10
8.7143690321180554
 20
-18.67267591688368
 30
0.0
 10
9.7203369140625
 20
-18.67267591688368
 30
0.0
 10
9.7203369140625
 20
-18.67267591688368
 30
0.0
 10
9.7203369140625
 20
-15.028453911675346
 30
0.0
 10
9.7203369140625
 20
-15.028453911675346
 30
0.0
  0
ELLIPSE
  5
4E
100
AcDbEntity
  8
LIVELLO_1
 62
     7
100
AcDbEllipse
 10
9.720337
 20
-12.295115
 30
0.0
 11
0.0
 21
2.7333387586805551
 31
0.0
210
0.0
220
0.0
230
1.0
 40
0.668011
 41
0.0
 42
6.2831853071795862
  0
POLYLINE
  5
48
100
AcDbEntity
  8
LIVELLO_1
 62
     7
100
AcDb2dPolyline
 66
     1
 10
0.0
 20
0.0
 30
0.0
 70
     1
  0
VERTEX
  5
49
100
AcDbEntity
  8
LIVELLO_1
 62
     7
100
AcDbVertex
100
AcDb2dVertex
 10
8.811176
 20
17.858428
 30
0.0
  0
VERTEX
  5
4A
100
AcDbEntity
  8
LIVELLO_1
 62
     7
100
AcDbVertex
100
AcDb2dVertex
 10
10.633287
 20
17.858428
 30
0.0
  0
VERTEX
  5
4B
100
AcDbEntity
  8
LIVELLO_1
 62
     7
100
AcDbVertex
100
AcDb2dVertex
 10
10.633287
 20
-9.561776
 30
0.0
  0
VERTEX
  5
4C
100
AcDbEntity
  8
LIVELLO_1
 62
     7
100
AcDbVertex
100
AcDb2dVertex
 10
8.811176
 20
-9.561776
 30
0.0
  0
SEQEND
  5
4D
100
AcDbEntity
  8
LIVELLO_1
 62
     7
  0
SPLINE
  5
47
100
AcDbEntity
  8
LIVELLO_1
 62
     7
100
AcDbSpline
210
0.0
220
0.0
230
1.0
 70
     8
 71
     3
 72
    14
 73
    10
 74
     0
 42
0.00000001
 43
0.00000001
 40
0.0
 40
0.0
 40
0.0
 40
0.0
 40
1.0
 40
1.0
 40
1.0
 40
2.0
 40
2.0
 40
2.0
 40
3.0
 40
3.0
 40
3.0
 40
3.0
 10
2.4317206488715275
 20
26.971049669053816
 30
0.0
 10
6.0750813802083332
 20
25.146871609157984
 30
0.0
 10
7.9009819878472216
 20
17.856705050998261
 30
0.0
 10
7.9009819878472216
 20
17.856705050998261
 30
0.0
 10
7.9009819878472216
 20
17.856705050998261
 30
0.0
 10
11.546237521701388
 20
17.856705050998261
 30
0.0
 10
11.546237521701388
 20
17.856705050998261
 30
0.0
 10
11.546237521701388
 20
17.856705050998261
 30
0.0
 10
13.366453721788194
 20
25.146871609157984
 30
0.0
 10
17.013431803385416
 20
26.971049669053816
 30
0.0
  0
SPLINE
  5
46
100
AcDbEntity
  8
LIVELLO_1
 62
     7
100
AcDbSpline
210
0.0
220
0.0
230
1.0
 70
     8
 71
     3
 72
    23
 73
    19
 74
     0
 42
0.00000001
 43
0.00000001
 40
0.0
 40
0.0
 40
0.0
 40
0.0
 40
1.0
 40
1.0
 40
1.0
 40
2.0
 40
2.0
 40
2.0
 40
3.0
 40
3.0
 40
3.0
 40
4.0
 40
4.0
 40
4.0
 40
5.0
 40
5.0
 40
5.0
 40
6.0
 40
6.0
 40
6.0
 40
6.0
 10
20.655069986979164
 20
33.348438178168401
 30
0.0
 10
20.655069986979164
 20
33.348438178168401
 30
0.0
 10
20.655069986979164
 20
30.61527167426215
 30
0.0
 10
20.655069986979164
 20
30.61527167426215
 30
0.0
 10
20.655069986979164
 20
28.602991400824649
 30
0.0
 10
19.0220947265625
 20
26.971049669053816
 30
0.0
 10
17.013431803385416
 20
26.971049669053816
 30
0.0
 10
17.013431803385416
 20
26.971049669053816
 30
0.0
 10
2.4317206488715275
 20
26.971049669053816
 30
0.0
 10
2.4317206488715275
 20
26.971049669053816
 30
0.0
 10
0.4185791015624999
 20
26.971049669053816
 30
0.0
 10
-1.2116400824652778
 20
28.602991400824649
 30
0.0
 10
-1.2116400824652778
 20
30.61527167426215
 30
0.0
 10
-1.2116400824652778
 20
30.61527167426215
 30
0.0
 10
-1.2116400824652778
 20
33.348438178168401
 30
0.0
 10
-1.2116400824652778
 20
33.348438178168401
 30
0.0
 10
-1.2116400824652778
 20
33.348438178168401
 30
0.0
 10
20.655069986979164
 20
33.348438178168401
 30
0.0
 10
20.655069986979164
 20
33.348438178168401
 30
0.0
  0
LINE
  5
45
100
AcDbEntity
  8
LIVELLO_1
 62
     7
100
AcDbLine
 10
-9.10556
 20
-14.172692
 30
0.0
 11
28.374151
 21
-39.955442
 31
0.0
  0
MTEXT
  5
44
100
AcDbEntity
  8
LIVELLO_1
 62
     7
100
AcDbMText
 10
-35.236953
 20
6.77249
 30
0.0
 40
9.829927
 41
0.0
 71
     1
 72
     2
  1
\fArial Narrow|b0|i0;\H9.8299;\C7;\U+0036\U+0035\U+0030
  7
STD
210
0.0
220
0.0
230
1.0
 73
     1
 44
1.0
  0
LINE
  5
43
100
AcDbEntity
  8
LIVELLO_1
 62
     7
100
AcDbLine
 10
-14.88488
 20
-115.445753
 30
0.0
 11
13.084817
 21
-115.447475
 31
0.0
  0
LINE
  5
42
100
AcDbEntity
  8
LIVELLO_1
 62
     7
100
AcDbLine
 10
-14.88488
 20
-120.43873
 30
0.0
 11
-14.88488
 21
-110.456565
 31
0.0
  0
LINE
  5
41
100
AcDbEntity
  8
LIVELLO_1
 62
     7
100
AcDbLine
 10
-31.043928
 20
-38.76654
 30
0.0
 11
-21.057113
 21
-38.76654
 31
0.0
  0
LINE
  5
40
100
AcDbEntity
  8
LIVELLO_1
 62
     7
100
AcDbLine
 10
-30.82792
 20
-38.874027
 30
0.0
 11
-20.842828
 21
-38.874027
 31
0.0
  0
LINE
  5
3F
100
AcDbEntity
  8
LIVELLO_1
 62
     7
100
AcDbLine
 10
-25.832187
 20
-7.395156
 30
0.0
 11
-25.835805
 21
-38.891941
 31
0.0
  0
MTEXT
  5
3E
100
AcDbEntity
  8
LIVELLO_1
 62
     7
100
AcDbMText
 10
1.653474
 20
-101.450361
 30
0.0
 40
9.829927
 41
0.0
 71
     1
 72
     2
  1
\fArial Narrow|b0|i0;\H9.8299;\C7;\U+0032\U+0034\U+0037
  7
STD
210
0.0
220
0.0
230
1.0
 73
     1
 44
1.0
  0
MTEXT
  5
3D
100
AcDbEntity
  8
LIVELLO_1
 62
     7
100
AcDbMText
 10
-35.297932
 20
-56.111871
 30
0.0
 40
9.829927
 41
0.0
 71
     1
 72
     2
  1
\fArial Narrow|b0|i0;\H9.8299;\C7;\U+0033\U+0035\U+0030
  7
STD
210
0.0
220
0.0
230
1.0
 73
     1
 44
1.0
  0
MTEXT
  5
3C
100
AcDbEntity
  8
LIVELLO_1
 62
     7
100
AcDbMText
 10
0.816832
 20
119.284612
 30
0.0
 40
8.954309
 41
0.0
 71
     1
 72
     2
  1
\fArial Narrow|b0|i0;\H8.9543;\C7;\U+0031\U+0032\U+0030
  7
STD
210
0.0
220
0.0
230
1.0
 73
     1
 44
1.0
  0
LINE
  5
3B
100
AcDbEntity
  8
LIVELLO_1
 62
     7
100
AcDbLine
 10
31.579123
 20
113.01386
 30
0.0
 11
21.699795
 21
113.01386
 31
0.0
  0
LINE
  5
3A
100
AcDbEntity
  8
LIVELLO_1
 62
     7
100
AcDbLine
 10
31.579123
 20
116.477042
 30
0.0
 11
31.579123
 21
109.548955
 31
0.0
  0
LINE
  5
39
100
AcDbEntity
  8
LIVELLO_1
 62
     7
100
AcDbLine
 10
-11.920375
 20
113.01386
 30
0.0
 11
-2.041908
 21
113.01386
 31
0.0
  0
LINE
  5
38
100
AcDbEntity
  8
LIVELLO_1
 62
     7
100
AcDbLine
 10
-11.920375
 20
109.548955
 30
0.0
 11
-11.920375
 21
116.477042
 31
0.0
  0
MTEXT
  5
37
100
AcDbEntity
  8
LIVELLO_1
 62
     7
100
AcDbMText
 10
-0.679717
 20
52.209292
 30
0.0
 40
8.954309
 41
0.0
 71
     1
 72
     2
  1
\fArial Narrow|b0|i0;\H8.9543;\C7;\U+0038\U+0039\U+002C
  7
STD
210
0.0
220
0.0
230
1.0
 73
     1
 44
1.0
  0
MTEXT
  5
36
100
AcDbEntity
  8
LIVELLO_1
 62
     7
100
AcDbMText
 10
13.032107
 20
52.209292
 30
0.0
 40
8.954309
 41
0.0
 71
     1
 72
     2
  1
\fArial Narrow|b0|i0;\H8.9543;\C7;\U+0035
  7
STD
210
0.0
220
0.0
230
1.0
 73
     1
 44
1.0
  0
CIRCLE
  5
35
100
AcDbEntity
  8
LIVELLO_1
 62
     7
100
AcDbCircle
 10
-4.744758
 20
83.138508
 30
0.0
 40
0.961354
  0
CIRCLE
  5
34
100
AcDbEntity
  8
LIVELLO_1
 62
     7
100
AcDbCircle
 10
9.828857
 20
83.138508
 30
0.0
 40
2.607593
  0
CIRCLE
  5
33
100
AcDbEntity
  8
LIVELLO_1
 62
     7
100
AcDbCircle
 10
9.827996
 20
83.138508
 30
0.0
 40
4.089156
  0
CIRCLE
  5
32
100
AcDbEntity
  8
LIVELLO_1
 62
     7
100
AcDbCircle
 10
9.828944
 20
83.138508
 30
0.0
 40
12.706632
  0
CIRCLE
  5
31
100
AcDbEntity
  8
LIVELLO_1
 62
     7
100
AcDbCircle
 10
9.829374
 20
83.138508
 30
0.0
 40
19.56797
  0
CIRCLE
  5
30
100
AcDbEntity
  8
LIVELLO_1
 62
     7
100
AcDbCircle
 10
24.402559
 20
83.138508
 30
0.0
 40
0.961268
  0
SPLINE
  5
2F
100
AcDbEntity
  8
LIVELLO_1
 62
     7
100
AcDbSpline
210
0.0
220
0.0
230
1.0
 70
     8
 71
     3
 72
    23
 73
    19
 74
     0
 42
0.00000001
 43
0.00000001
 40
0.0
 40
0.0
 40
0.0
 40
0.0
 40
1.0
 40
1.0
 40
1.0
 40
2.0
 40
2.0
 40
2.0
 40
3.0
 40
3.0
 40
3.0
 40
4.0
 40
4.0
 40
4.0
 40
5.0
 40
5.0
 40
5.0
 40
6.0
 40
6.0
 40
6.0
 40
6.0
 10
-6.7489420572916661
 20
83.138508436414924
 30
0.0
 10
-6.7489420572916661
 20
84.246795654296861
 30
0.0
 10
-5.8513224283854157
 20
85.141659206814225
 30
0.0
 10
-4.7456190321180554
 20
85.141659206814225
 30
0.0
 10
-4.7456190321180554
 20
85.141659206814225
 30
0.0
 10
-2.7216254340277777
 20
85.141659206814225
 30
0.0
 10
-2.7216254340277777
 20
85.141659206814225
 30
0.0
 10
-2.8248060438368054
 20
84.490708414713538
 30
0.0
 10
-2.8776882595486106
 20
83.819948323567701
 30
0.0
 10
-2.8776882595486106
 20
83.138508436414924
 30
0.0
 10
-2.8776882595486106
 20
82.457068549262146
 30
0.0
 10
-2.8248060438368054
 20
81.787858751085068
 30
0.0
 10
-2.7216254340277777
 20
81.135185411241309
 30
0.0
 10
-2.7216254340277777
 20
81.135185411241309
 30
0.0
 10
-4.7456190321180554
 20
81.135185411241309
 30
0.0
 10
-4.7456190321180554
 20
81.135185411241309
 30
0.0
 10
-5.8513224283854157
 20
81.135185411241309
 30
0.0
 10
-6.7489420572916661
 20
82.031943766276029
 30
0.0
 10
-6.7489420572916661
 20
83.138508436414924
 30
0.0
  0
SPLINE
  5
2E
100
AcDbEntity
  8
LIVELLO_1
 62
     7
100
AcDbSpline
210
0.0
220
0.0
230
1.0
 70
     8
 71
     3
 72
    23
 73
    19
 74
     0
 42
0.00000001
 43
0.00000001
 40
0.0
 40
0.0
 40
0.0
 40
0.0
 40
1.0
 40
1.0
 40
1.0
 40
2.0
 40
2.0
 40
2.0
 40
3.0
 40
3.0
 40
3.0
 40
4.0
 40
4.0
 40
4.0
 40
5.0
 40
5.0
 40
5.0
 40
6.0
 40
6.0
 40
6.0
 40
6.0
 10
26.404934353298607
 20
83.138508436414924
 30
0.0
 10
26.404934353298607
 20
82.031943766276029
 30
0.0
 10
25.509209526909721
 20
81.135185411241309
 30
0.0
 10
24.401611328124996
 20
81.135185411241309
 30
0.0
 10
24.401611328124996
 20
81.135185411241309
 30
0.0
 10
22.379512532552081
 20
81.135185411241309
 30
0.0
 10
22.379512532552081
 20
81.135185411241309
 30
0.0
 10
22.482693142361111
 20
81.787858751085068
 30
0.0
 10
22.535575358072915
 20
82.457068549262146
 30
0.0
 10
22.535575358072915
 20
83.138508436414924
 30
0.0
 10
22.535575358072915
 20
83.819948323567701
 30
0.0
 10
22.482693142361111
 20
84.490708414713538
 30
0.0
 10
22.379512532552081
 20
85.141659206814225
 30
0.0
 10
22.379512532552081
 20
85.141659206814225
 30
0.0
 10
24.401611328124996
 20
85.141659206814225
 30
0.0
 10
24.401611328124996
 20
85.141659206814225
 30
0.0
 10
25.509209526909721
 20
85.141659206814225
 30
0.0
 10
26.404934353298607
 20
84.246795654296861
 30
0.0
 10
26.404934353298607
 20
83.138508436414924
 30
0.0
  0
LINE
  5
2D
100
AcDbEntity
  8
LIVELLO_1
 62
     7
100
AcDbLine
 10
24.382836
 20
78.057509
 30
0.0
 11
24.382836
 21
46.738491
 31
0.0
  0
LINE
  5
2C
100
AcDbEntity
  8
LIVELLO_1
 62
     7
100
AcDbLine
 10
-4.989532
 20
46.738491
 30
0.0
 11
-4.989532
 21
78.057509
 31
0.0
  0
ENDBLK
  5
61
100
AcDbEntity
  8
LIVELLO_1
100
AcDbBlockEnd
  0
ENDSEC
  0
SECTION
  2
ENTITIES
  0
INSERT
  5
2A
100
AcDbEntity
  8
LIVELLO_1
 62
     7
100
AcDbBlockReference
  2
AI9-BLK1
 10
35.411792
 20
120.655771
 30
0.0
  0
ENDSEC
  0
SECTION
  2
OBJECTS
  0
DICTIONARY
  5
19
100
AcDbDictionary
280
     0
281
     1
  3
ACAD_GROUP
350
1A
  3
ACAD_MLINESTYLE
350
1B
  3
ACAD_LAYOUT
350
1E
  3
ACAD_PLOTSETTINGS
350
22
  3
ACAD_PLOTSTYLENAME
350
1F
  3
ACAD_WIPEOUT_VARS
350
23
  0
DICTIONARY
  5
1A
102
{ACAD_REACTORS
330
19
102
}
100
AcDbDictionary
280
     0
281
     1
  0
DICTIONARY
  5
1B
102
{ACAD_REACTORS
330
19
102
}
100
AcDbDictionary
280
     0
281
     1
  3
Standard
350
1C
  0
MLINESTYLE
  5
1C
102
{ACAD_REACTORS
330
1B
102
}
100
AcDbMlineStyle
  2
Standard
 70
     0
  3

 62
     0
 51
90.0
 52
90.0
 71
     2
 49
0.5
 62
   256
  6
ByLayer
 49
-0.5
 62
   256
  6
ByLayer
  0
ACDBDICTIONARYWDFLT
  5
1F
102
{ACAD_REACTORS
330
19
102
}
100
AcDbDictionary
281
     1
  3
Normal
350
1D
100
AcDbDictionaryWithDefault
340
1D
  0
ACDBPLACEHOLDER
  5
1D
102
{ACAD_REACTORS
330
1F
102
}
  0
LAYOUT
  5
20
102
{ACAD_REACTORS
330
1E
102
}
100
AcDbPlotSettings
  1

  2

  4

  6

 40
0.0
 41
0.0
 42
0.0
 43
0.0
 44
0.0
 45
0.0
 46
0.0
 47
0.0
 48
0.0
 49
0.0
140
0.0
141
0.0
142
1.0
143
1.0
 70
  1024
 72
     0
 73
     0
 74
     0
  7

 75
     0
147
1.0
148
0.0
149
0.0
100
AcDbLayout
  1
Model
 70
     0
 71
     0
 10
0.0
 20
0.0
 11
0.0
 21
0.0
 12
0.0
 22
0.0
 32
0.0
 14
0.0
 24
0.0
 34
0.0
 15
0.0
 25
0.0
 35
0.0
146
0.0
 13
0.0
 23
0.0
 33
0.0
 16
0.0
 26
0.0
 36
0.0
 17
0.0
 27
0.0
 37
0.0
 76
     0
330
A
331
0
345
0
346
0
  0
LAYOUT
  5
21
102
{ACAD_REACTORS
330
1E
102
}
100
AcDbPlotSettings
  1

  2

  4

  6

 40
0.0
 41
0.0
 42
0.0
 43
0.0
 44
0.0
 45
0.0
 46
0.0
 47
0.0
 48
0.0
 49
0.0
140
0.0
141
0.0
142
1.0
143
1.0
 70
     0
 72
     0
 73
     0
 74
     0
  7

 75
     0
147
1.0
148
0.0
149
0.0
100
AcDbLayout
  1
Layout1
 70
     0
 71
     0
 10
0.0
 20
0.0
 11
0.0
 21
0.0
 12
0.0
 22
0.0
 32
0.0
 14
0.0
 24
0.0
 34
0.0
 15
0.0
 25
0.0
 35
0.0
146
0.0
 13
0.0
 23
0.0
 33
0.0
 16
0.0
 26
0.0
 36
0.0
 17
0.0
 27
0.0
 37
0.0
 76
     0
330
B
331
0
345
0
346
0
  0
DICTIONARY
  5
1E
102
{ACAD_REACTORS
330
19
102
}
100
AcDbDictionary
280
     0
281
     1
  3
Layout1
350
21
  3
Model
350
20
  0
DICTIONARY
  5
22
102
{ACAD_REACTORS
330
19
102
}
100
AcDbDictionary
280
     0
281
     1
  0
WIPEOUTVARIABLES
  5
23
100
AcDbWipeoutVariables
 70
     1
  0
ENDSEC
  0
EOF
