  0
SECTION
  2
HEADER
  9
$ACADVER
  1
AC1015
  9
$ACADMAINTVER
 70
     6
  9
$DWGCODEPAGE
  3
ANSI_932
  9
$INSBASE
 10
0.0
 20
0.0
 30
0.0
  9
$EXTMIN
 10
0.0
 20
0.0
 30
1.000000E+20
  9
$EXTMAX
 10
112.577797
 20
456.108938
 30
-1.000000E+20
  9
$LIMMIN
 10
0.0
 20
0.0
  9
$LIMMAX
 10
112.577797
 20
456.108938
  9
$ORTHOMODE
 70
     0
  9
$REGENMODE
 70
     1
  9
$FILLMODE
 70
     1
  9
$QTEXTMODE
 70
     0
  9
$MIRRTEXT
 70
     1
  9
$LTSCALE
 40
1.0
  9
$ATTMODE
 70
     1
  9
$TEXTSIZE
 40
0.2
  9
$TRACEWID
 40
0.05
  9
$TEXTSTYLE
  7
Standard
  9
$CLAYER
  8
0
  9
$CELTYPE
  6
Continuous
  9
$CECOLOR
 62
   256
  9
$CELTSCALE
 40
1.0
  9
$DISPSILH
 70
     0
  9
$DIMSCALE
 40
1.0
  9
$DIMASZ
 40
0.18
  9
$DIMEXO
 40
0.0625
  9
$DIMDLI
 40
0.38
  9
$DIMRND
 40
0.0
  9
$DIMDLE
 40
0.0
  9
$DIMEXE
 40
0.18
  9
$DIMTP
 40
0.0
  9
$DIMTM
 40
0.0
  9
$DIMTXT
 40
0.18
  9
$DIMCEN
 40
0.09
  9
$DIMTSZ
 40
0.0
  9
$DIMTOL
 70
     0
  9
$DIMLIM
 70
     0
  9
$DIMTIH
 70
     1
  9
$DIMTOH
 70
     1
  9
$DIMSE1
 70
     0
  9
$DIMSE2
 70
     0
  9
$DIMTAD
 70
     0
  9
$DIMZIN
 70
     0
  9
$DIMBLK
  1

  9
$DIMASO
 70
     1
  9
$DIMSHO
 70
     1
  9
$DIMPOST
  1

  9
$DIMAPOST
  1

  9
$DIMALT
 70
     0
  9
$DIMALTD
 70
     2
  9
$DIMALTF
 40
25.4
  9
$DIMLFAC
 40
1.0
  9
$DIMTOFL
 70
     0
  9
$DIMTVP
 40
0.0
  9
$DIMTIX
 70
     0
  9
$DIMSOXD
 70
     0
  9
$DIMSAH
 70
     0
  9
$DIMBLK1
  1

  9
$DIMBLK2
  1

  9
$DIMSTYLE
  2
Standard
  9
$DIMCLRD
 70
     0
  9
$DIMCLRE
 70
     0
  9
$DIMCLRT
 70
     0
  9
$DIMTFAC
 40
1.0
  9
$DIMGAP
 40
0.09
  9
$DIMJUST
 70
     0
  9
$DIMSD1
 70
     0
  9
$DIMSD2
 70
     0
  9
$DIMTOLJ
 70
     1
  9
$DIMTZIN
 70
     0
  9
$DIMALTZ
 70
     0
  9
$DIMALTTZ
 70
     0
  9
$DIMUPT
 70
     0
  9
$DIMDEC
 70
     4
  9
$DIMTDEC
 70
     4
  9
$DIMALTU
 70
     2
  9
$DIMALTTD
 70
     2
  9
$DIMTXSTY
  7
Standard
  9
$DIMAUNIT
 70
     0
  9
$DIMADEC
 70
     0
  9
$DIMALTRND
 40
0.0
  9
$DIMAZIN
 70
     0
  9
$DIMDSEP
 70
     0
  9
$DIMATFIT
 70
     3
  9
$DIMFRAC
 70
     0
  9
$DIMLDRBLK
  1

  9
$DIMLUNIT
 70
     2
  9
$DIMLWD
 70
     0
  9
$DIMLWE
 70
     0
  9
$DIMTMOVE
 70
     0
  9
$LUNITS
 70
     2
  9
$LUPREC
 70
     4
  9
$SKETCHINC
 40
0.1
  9
$FILLETRAD
 40
0.0
  9
$AUNITS
 70
     0
  9
$AUPREC
 70
     0
  9
$MENU
  1
acad
  9
$ELEVATION
 40
0.0
  9
$PELEVATION
 40
0.0
  9
$THICKNESS
 40
0.0
  9
$LIMCHECK
 70
     0
  9
$CHAMFERA
 40
0.0
  9
$CHAMFERB
 40
0.0
  9
$CHAMFERC
 40
0.0
  9
$CHAMFERD
 40
0.0
  9
$SKPOLY
 70
     0
  9
$TDCREATE
 40
0.000000000
  9
$TDUCREATE
 40
0.000000000
  9
$TDUPDATE
 40
0.000000000
  9
$TDUUPDATE
 40
0.000000000
  9
$TDINDWG
 40
0.0000000000
  9
$TDUSRTIMER
 40
0.0000000000
  9
$USRTIMER
 70
     1
  9
$ANGBASE
 50
0.0
  9
$ANGDIR
 70
     0
  9
$PDMODE
 70
     0
  9
$PDSIZE
 40
0.0
  9
$PLINEWID
 40
0.0
  9
$SPLFRAME
 70
     0
  9
$SPLINETYPE
 70
     6
  9
$SPLINESEGS
 70
     8
  9
$HANDSEED
  5
4C7
  9
$SURFTAB1
 70
     6
  9
$SURFTAB2
 70
     6
  9
$SURFTYPE
 70
     6
  9
$SURFU
 70
     6
  9
$SURFV
 70
     6
  9
$UCSBASE
  2

  9
$UCSNAME
  2

  9
$UCSORG
 10
0.0
 20
0.0
 30
0.0
  9
$UCSXDIR
 10
1.0
 20
0.0
 30
0.0
  9
$UCSYDIR
 10
0.0
 20
1.0
 30
0.0
  9
$UCSORTHOREF
  2

  9
$UCSORTHOVIEW
 70
     0
  9
$UCSORGTOP
 10
0.0
 20
0.0
 30
0.0
  9
$UCSORGBOTTOM
 10
0.0
 20
0.0
 30
0.0
  9
$UCSORGLEFT
 10
0.0
 20
0.0
 30
0.0
  9
$UCSORGRIGHT
 10
0.0
 20
0.0
 30
0.0
  9
$UCSORGFRONT
 10
0.0
 20
0.0
 30
0.0
  9
$UCSORGBACK
 10
0.0
 20
0.0
 30
0.0
  9
$PUCSBASE
  2

  9
$PUCSNAME
  2

  9
$PUCSORG
 10
0.0
 20
0.0
 30
0.0
  9
$PUCSXDIR
 10
1.0
 20
0.0
 30
0.0
  9
$PUCSYDIR
 10
0.0
 20
1.0
 30
0.0
  9
$PUCSORTHOREF
  2

  9
$PUCSORTHOVIEW
 70
     0
  9
$PUCSORGTOP
 10
0.0
 20
0.0
 30
0.0
  9
$PUCSORGBOTTOM
 10
0.0
 20
0.0
 30
0.0
  9
$PUCSORGLEFT
 10
0.0
 20
0.0
 30
0.0
  9
$PUCSORGRIGHT
 10
0.0
 20
0.0
 30
0.0
  9
$PUCSORGFRONT
 10
0.0
 20
0.0
 30
0.0
  9
$PUCSORGBACK
 10
0.0
 20
0.0
 30
0.0
  9
$USERI1
 70
     0
  9
$USERI2
 70
     0
  9
$USERI3
 70
     0
  9
$USERI4
 70
     0
  9
$USERI5
 70
     0
  9
$USERR1
 40
0.0
  9
$USERR2
 40
0.0
  9
$USERR3
 40
0.0
  9
$USERR4
 40
0.0
  9
$USERR5
 40
0.0
  9
$WORLDVIEW
 70
     1
  9
$SHADEDGE
 70
     3
  9
$SHADEDIF
 70
    70
  9
$TILEMODE
 70
     1
  9
$MAXACTVP
 70
    16
  9
$PINSBASE
 10
0.0
 20
0.0
 30
0.0
  9
$PLIMCHECK
 70
     0
  9
$PEXTMIN
 10
1.000000E+20
 20
1.000000E+20
 30
1.000000E+20
  9
$PEXTMAX
 10
-1.000000E+20
 20
-1.000000E+20
 30
-1.000000E+20
  9
$PLIMMIN
 10
0.0
 20
0.0
  9
$PLIMMAX
 10
12.0
 20
9.0
  9
$UNITMODE
 70
     0
  9
$VISRETAIN
 70
     0
  9
$PLINEGEN
 70
     1
  9
$PSLTSCALE
 70
     0
  9
$TREEDEPTH
 70
  3020
  9
$CMLSTYLE
  2
Standard
  9
$CMLJUST
 70
     0
  9
$CMLSCALE
 40
1.0
  9
$PROXYGRAPHICS
 70
     0
  9
$MEASUREMENT
 70
     1
  9
$CELWEIGHT
370
     0
  9
$ENDCAPS
280
     0
  9
$JOINSTYLE
280
     0
  9
$LWDISPLAY
290
     0
  9
$INSUNITS
 70
     0
  9
$HYPERLINKBASE
  1

  9
$STYLESHEET
  1

  9
$XEDIT
290
     1
  9
$CEPSNTYPE
380
     0
  9
$PSTYLEMODE
290
     1
  9
$FINGERPRINTGUID
  2

  9
$VERSIONGUID
  2

  9
$EXTNAMES
290
     1
  9
$PSVPSCALE
 40
0.0
  0
ENDSEC
  0
SECTION
  2
CLASSES
  0
CLASS
  1
LWPOLYLINE
  2
AcDbPolyline
  3
AutoCAD 2000
 90
    32768
280
     0
281
     1
  0
CLASS
  1
IMAGE
  2
AcDbRasterImage
  3
ISM
 90
    32895
280
     0
281
     1
  0
CLASS
  1
OLE2FRAME
  2
AcDbOle2Frame
  3
AutoCAD 2000
 90
    32768
280
     0
281
     1
  0
CLASS
  1
HATCH
  2
AcDbHatch
  3
AutoCAD 2000
 90
    32768
280
     0
281
     1
  0
CLASS
  1
DICTIONARYVAR
  2
AcDbDictionaryVar
  3
AutoCAD 2000
 90
    32768
280
     0
281
     0
  0
CLASS
  1
RASTERVARIABLES
  2
AcDbRasterVariables
  3
ISM
 90
    32768
280
     0
281
     0
  0
CLASS
  1
IMAGEDEF
  2
AcDbRasterImageDef
  3
ISM
 90
    32768
280
     0
281
     0
  0
CLASS
  1
IMAGEDEF_REACTOR
  2
AcDbRasterImageDefReactor
  3
ISM
 90
    32769
280
     0
281
     0
  0
CLASS
  1
IDBUFFER
  2
AcDbIdBuffer
  3
AutoCAD 2000
 90
    32768
280
     0
281
     0
  0
CLASS
  1
SPATIAL_FILTER
  2
AcDbSpatialFilter
  3
AutoCAD 2000
 90
    32768
280
     0
281
     0
  0
CLASS
  1
XRECORD
  2
AcDbXrecord
  3
AutoCAD 2000
 90
    32768
280
     0
281
     0
  0
CLASS
  1
SORTENTSTABLE
  2
AcDbSortentsTable
  3
AutoCAD 2000
 90
    32768
280
     0
281
     0
  0
CLASS
  1
LAYER_INDEX
  2
AcDbLayerIndex
  3
AutoCAD 2000
 90
    32768
280
     0
281
     0
  0
CLASS
  1
SPATIAL_INDEX
  2
AcDbSpatialIndex
  3
AutoCAD 2000
 90
    32768
280
     0
281
     0
  0
CLASS
  1
OBJECT_PTR
  2
CAseDLPNTableRecord
  3
"ASE-LPNTableRecord"
 90
    32769
280
     0
281
     0
  0
CLASS
  1
LAYOUT
  2
AcDbLayout
  3
AutoCAD 2000
 90
        0
280
     0
281
     0
  0
CLASS
  1
PLOTSETTINGS
  2
AcDbPlotSettings
  3
AutoCAD 2000
 90
    32768
280
     0
281
     0
  0
CLASS
  1
ACDBDICTIONARYWDFLT
  2
AcDbDictionaryWithDefault
  3
AutoCAD 2000
 90
        0
280
     0
281
     0
  0
CLASS
  1
ACDBPLACEHOLDER
  2
AcDbPlaceHolder
  3
AutoCAD 2000
 90
        0
280
     0
281
     0
  0
CLASS
  1
VBA_PROJECT
  2
AcDbVbaProject
  3
acadvba
 90
    32768
280
     0
281
     0
  0
CLASS
  1
WIPEOUT
  2
AcDbWipeout
  3
WipeOut|AutoCAD Express Tool|expresstools@autodesk.com
 90
    32895
280
     0
281
     1
  0
CLASS
  1
WIPEOUTVARIABLES
  2
AcDbWipeoutVariables
  3
WipeOut|AutoCAD Express Tool|expresstools@autodesk.com
 90
        0
280
     0
281
     0
  0
CLASS
  1
RTEXT
  2
RText
  3
RText|AutoCAD Express Tool|expresstools@autodesk.com
 90
    32768
280
     0
281
     1
  0
CLASS
  1
ARCALIGNEDTEXT
  2
AcDbArcAlignedText
  3
ATEXT|AutoCAD Express Tool|expresstools@autodesk.com
 90
    32768
280
     0
281
     1
  0
ENDSEC
  0
SECTION
  2
TABLES
  0
TABLE
  2
VPORT
  5
7
100
AcDbSymbolTable
 70
     1
  0
VPORT
  5
15
100
AcDbSymbolTableRecord
100
AcDbViewportTableRecord
  2
*ACTIVE
 70
     0
 10
0.0
 20
0.0
 11
1.0
 21
1.0
 12
6.591288
 22
4.579184
 13
0.0
 23
0.0
 14
1.0
 24
1.0
 15
0.0
 25
0.0
 16
0.0
 26
0.0
 36
1.0
 17
0.0
 27
0.0
 37
0.0
 40
9.158369
 41
0.688564
 42
50.0
 43
0.0
 44
0.0
 50
0.0
 51
0.0
 71
     0
 72
   100
 73
     1
 74
     1
 75
     0
 76
     0
 77
     0
 78
     0
281
     0
 65
     0
110
0.0
120
0.0
130
0.0
111
1.0
121
0.0
131
0.0
112
0.0
122
1.0
132
0.0
345
0
346
0
 79
     0
146
0.0
  0
ENDTAB
  0
TABLE
  2
LTYPE
  5
4
100
AcDbSymbolTable
 70
     3
  0
LTYPE
  5
11
100
AcDbSymbolTableRecord
100
AcDbLinetypeTableRecord
  2
ByBlock
 70
    64
  3

 72
    65
 73
     0
 40
0.0
  0
LTYPE
  5
12
100
AcDbSymbolTableRecord
100
AcDbLinetypeTableRecord
  2
ByLayer
 70
    64
  3

 72
    65
 73
     0
 40
0.0
  0
LTYPE
  5
13
100
AcDbSymbolTableRecord
100
AcDbLinetypeTableRecord
  2
Continuous
 70
    64
  3
Solid line
 72
    65
 73
     0
 40
0.0
  0
ENDTAB
  0
TABLE
  2
LAYER
  5
2
100
AcDbSymbolTable
 70
     2
  0
LAYER
  5
14
100
AcDbSymbolTableRecord
100
AcDbLayerTableRecord
  2
0
 70
     0
 62
     7
  6
Continuous
290
     1
370
    -3
390
1D
  0
LAYER
  5
28
100
AcDbSymbolTableRecord
100
AcDbLayerTableRecord
  2
LIVELLO_1
 70
     0
 62
   160
  6
Continuous
290
     1
370
    -3
390
1D
  0
ENDTAB
  0
TABLE
  2
STYLE
  5
3
100
AcDbSymbolTable
 70
     5
  0
STYLE
  5
17
100
AcDbSymbolTableRecord
100
AcDbTextStyleTableRecord
  2
Standard
 70
     0
 40
0.0
 41
1.0
 50
0.0
 71
     0
 42
0.0
  3
txt
  4

  0
STYLE
  5
24
100
AcDbSymbolTableRecord
100
AcDbTextStyleTableRecord
  2
STD
 70
     0
 40
0.0
 41
1.0
 50
0.0
 71
     0
 42
0.0
  3
txt
  4

  0
STYLE
  5
25
100
AcDbSymbolTableRecord
100
AcDbTextStyleTableRecord
  2
TATESTD
 70
     4
 40
0.0
 41
1.0
 50
0.0
 71
     0
 42
0.0
  3
txt
  4

  0
STYLE
  5
26
100
AcDbSymbolTableRecord
100
AcDbTextStyleTableRecord
  2
KANJISTD
 70
     0
 40
0.0
 41
1.0
 50
0.0
 71
     0
 42
0.0
  3
txt
  4
extfont
  0
STYLE
  5
27
100
AcDbSymbolTableRecord
100
AcDbTextStyleTableRecord
  2
KANJITATE
 70
     4
 40
0.0
 41
1.0
 50
0.0
 71
     0
 42
0.0
  3
txt
  4
extfont
  0
ENDTAB
  0
TABLE
  2
VIEW
  5
5
100
AcDbSymbolTable
 70
     0
  0
ENDTAB
  0
TABLE
  2
UCS
  5
6
100
AcDbSymbolTable
 70
     0
  0
ENDTAB
  0
TABLE
  2
APPID
  5
8
100
AcDbSymbolTable
 70
     1
  0
APPID
  5
16
100
AcDbSymbolTableRecord
100
AcDbRegAppTableRecord
  2
ACAD
 70
     0
  0
ENDTAB
  0
TABLE
  2
DIMSTYLE
  5
9
100
AcDbSymbolTable
 70
     1
100
AcDbDimStyleTable
 71
     0
  0
DIMSTYLE
105
18
100
AcDbSymbolTableRecord
100
AcDbDimStyleTableRecord
  2
Standard
 70
     0
  3

  4

 40
1.0
 41
0.18
 42
0.0625
 43
0.38
 44
0.18
 45
0.0
 46
0.0
 47
0.0
 48
0.0
 71
     0
 72
     0
 73
     1
 74
     1
 75
     0
 76
     0
 77
     0
 78
     0
 79
     0
140
0.18
141
0.09
142
0.0
143
25.4
144
1.0
145
0.0
146
1.0
147
0.09
148
0.0
170
     0
171
     2
172
     0
173
     0
174
     0
175
     0
176
     0
177
     0
178
     0
179
     0
271
     4
272
     4
273
     2
274
     2
275
     0
276
     0
277
     2
278
    46
279
     0
280
     0
281
     0
282
     0
283
     1
284
     0
285
     0
286
     0
288
     0
340
17
341
0
342
0
343
0
344
0
371
    -2
372
    -2
  0
ENDTAB
  0
TABLE
  2
BLOCK_RECORD
  5
1
100
AcDbSymbolTable
 70
     1
  0
BLOCK_RECORD
  5
A
100
AcDbSymbolTableRecord
100
AcDbBlockTableRecord
  2
*MODEL_SPACE
340
20
  0
BLOCK_RECORD
  5
B
100
AcDbSymbolTableRecord
100
AcDbBlockTableRecord
  2
*PAPER_SPACE
340
21
  0
BLOCK_RECORD
  5
29
100
AcDbSymbolTableRecord
100
AcDbBlockTableRecord
  2
AI9-BLK1
340
0
102
{BLKREFS
331
2A
102
}
  0
ENDTAB
  0
ENDSEC
  0
SECTION
  2
BLOCKS
  0
BLOCK
  5
D
100
AcDbEntity
  8
0
100
AcDbBlockBegin
  2
*MODEL_SPACE
 70
     0
 10
0.0
 20
0.0
 30
0.0
  3
*MODEL_SPACE
  1

  0
ENDBLK
  5
E
100
AcDbEntity
  8
0
100
AcDbBlockEnd
  0
BLOCK
  5
F
100
AcDbEntity
 67
     1
  8
0
100
AcDbBlockBegin
  2
*PAPER_SPACE
 70
     0
 10
0.0
 20
0.0
 30
0.0
  3
*PAPER_SPACE
  1

  0
ENDBLK
  5
10
100
AcDbEntity
 67
     1
  8
0
100
AcDbBlockEnd
  0
BLOCK
  5
2B
100
AcDbEntity
  8
LIVELLO_1
 62
     7
100
AcDbBlockBegin
  2
AI9-BLK1
 70
     0
 10
0.0
 20
0.0
 30
0.0
  3
AI9-BLK1
  1

  0
LINE
  5
4C5
100
AcDbEntity
  8
LIVELLO_1
 62
     7
100
AcDbLine
 10
-33.422594
 20
188.09584
 30
0.0
 11
-37.619581
 21
188.09584
 31
0.0
  0
LINE
  5
4C4
100
AcDbEntity
  8
LIVELLO_1
 62
     7
100
AcDbLine
 10
-37.691239
 20
188.006268
 30
0.0
 11
-33.350419
 21
188.006268
 31
0.0
  0
LINE
  5
4C3
100
AcDbEntity
  8
LIVELLO_1
 62
     7
100
AcDbLine
 10
-37.93498
 20
175.825444
 30
0.0
 11
-36.54609
 21
175.825444
 31
0.0
  0
POLYLINE
  5
4BC
100
AcDbEntity
  8
LIVELLO_1
 62
     7
100
AcDb2dPolyline
 66
     1
 10
0.0
 20
0.0
 30
0.0
  0
VERTEX
  5
4BD
100
AcDbEntity
  8
LIVELLO_1
 62
     7
100
AcDbVertex
100
AcDb2dVertex
 10
-34.5705
 20
175.825444
 30
0.0
  0
VERTEX
  5
4BE
100
AcDbEntity
  8
LIVELLO_1
 62
     7
100
AcDbVertex
100
AcDb2dVertex
 10
-33.937119
 20
175.825444
 30
0.0
  0
VERTEX
  5
4BF
100
AcDbEntity
  8
LIVELLO_1
 62
     7
100
AcDbVertex
100
AcDb2dVertex
 10
-33.554886
 20
175.825444
 30
0.0
  0
VERTEX
  5
4C0
100
AcDbEntity
  8
LIVELLO_1
 62
     7
100
AcDbVertex
100
AcDb2dVertex
 10
-33.276005
 20
175.825444
 30
0.0
  0
VERTEX
  5
4C1
100
AcDbEntity
  8
LIVELLO_1
 62
     7
100
AcDbVertex
100
AcDb2dVertex
 10
-33.116325
 20
175.825444
 30
0.0
  0
SEQEND
  5
4C2
100
AcDbEntity
  8
LIVELLO_1
 62
     7
  0
LINE
  5
4BB
100
AcDbEntity
  8
LIVELLO_1
 62
     7
100
AcDbLine
 10
-36.54609
 20
175.825444
 30
0.0
 11
-36.017268
 21
175.825444
 31
0.0
  0
POLYLINE
  5
4B6
100
AcDbEntity
  8
LIVELLO_1
 62
     7
100
AcDb2dPolyline
 66
     1
 10
0.0
 20
0.0
 30
0.0
  0
VERTEX
  5
4B7
100
AcDbEntity
  8
LIVELLO_1
 62
     7
100
AcDbVertex
100
AcDb2dVertex
 10
-36.017268
 20
175.825444
 30
0.0
  0
VERTEX
  5
4B8
100
AcDbEntity
  8
LIVELLO_1
 62
     7
100
AcDbVertex
100
AcDb2dVertex
 10
-35.099322
 20
175.825444
 30
0.0
  0
VERTEX
  5
4B9
100
AcDbEntity
  8
LIVELLO_1
 62
     7
100
AcDbVertex
100
AcDb2dVertex
 10
-34.5705
 20
175.825444
 30
0.0
  0
SEQEND
  5
4BA
100
AcDbEntity
  8
LIVELLO_1
 62
     7
  0
LINE
  5
4B5
100
AcDbEntity
  8
LIVELLO_1
 62
     7
100
AcDbLine
 10
14.035319
 20
179.580942
 30
0.0
 11
17.719849
 21
179.580942
 31
0.0
  0
LINE
  5
4B4
100
AcDbEntity
  8
LIVELLO_1
 62
     7
100
AcDbLine
 10
13.782621
 20
179.328933
 30
0.0
 11
17.971168
 21
179.328933
 31
0.0
  0
LINE
  5
4B3
100
AcDbEntity
  8
LIVELLO_1
 62
     7
100
AcDbLine
 10
-30.820513
 20
178.742234
 30
0.0
 11
-27.888565
 21
178.742234
 31
0.0
  0
LINE
  5
4B2
100
AcDbEntity
  8
LIVELLO_1
 62
     7
100
AcDbLine
 10
17.267508
 20
176.650372
 30
0.0
 11
16.539731
 21
176.650372
 31
0.0
  0
LINE
  5
4B1
100
AcDbEntity
  8
LIVELLO_1
 62
     7
100
AcDbLine
 10
18.982132
 20
175.811663
 30
0.0
 11
12.773208
 21
175.811663
 31
0.0
  0
LINE
  5
4B0
100
AcDbEntity
  8
LIVELLO_1
 62
     7
100
AcDbLine
 10
38.492224
 20
144.821651
 30
0.0
 11
38.492224
 21
145.825552
 31
0.0
  0
LINE
  5
4AF
100
AcDbEntity
  8
LIVELLO_1
 62
     7
100
AcDbLine
 10
-38.361138
 20
175.140903
 30
0.0
 11
-32.67897
 21
175.140903
 31
0.0
  0
LINE
  5
4AE
100
AcDbEntity
  8
LIVELLO_1
 62
     7
100
AcDbLine
 10
-38.501009
 20
174.875286
 30
0.0
 11
-32.541338
 21
174.875286
 31
0.0
  0
LINE
  5
4AD
100
AcDbEntity
  8
LIVELLO_1
 62
     7
100
AcDbLine
 10
20.221505
 20
174.755397
 30
0.0
 11
11.530218
 21
174.755397
 31
0.0
  0
LINE
  5
4AC
100
AcDbEntity
  8
LIVELLO_1
 62
     7
100
AcDbLine
 10
-32.508955
 20
173.042151
 30
0.0
 11
-38.533221
 21
173.042151
 31
0.0
  0
LINE
  5
4AB
100
AcDbEntity
  8
LIVELLO_1
 62
     7
100
AcDbLine
 10
-32.433851
 20
172.959641
 30
0.0
 11
-38.606257
 21
172.959641
 31
0.0
  0
LINE
  5
4AA
100
AcDbEntity
  8
LIVELLO_1
 62
     7
100
AcDbLine
 10
-38.544245
 20
171.706487
 30
0.0
 11
-32.497241
 21
171.706487
 31
0.0
  0
LINE
  5
4A9
100
AcDbEntity
  8
LIVELLO_1
 62
     7
100
AcDbLine
 10
-38.544245
 20
170.451784
 30
0.0
 11
-32.497241
 21
170.451784
 31
0.0
  0
LINE
  5
4A8
100
AcDbEntity
  8
LIVELLO_1
 62
     7
100
AcDbLine
 10
-29.521884
 20
170.367723
 30
0.0
 11
-33.12666
 21
170.367723
 31
0.0
  0
LINE
  5
4A7
100
AcDbEntity
  8
LIVELLO_1
 62
     7
100
AcDbLine
 10
-28.427722
 20
170.249384
 30
0.0
 11
-28.265286
 21
170.249384
 31
0.0
  0
LINE
  5
4A6
100
AcDbEntity
  8
LIVELLO_1
 62
     7
100
AcDbLine
 10
-29.521884
 20
170.45454
 30
0.0
 11
-27.169746
 21
170.373235
 31
0.0
  0
LINE
  5
4A5
100
AcDbEntity
  8
LIVELLO_1
 62
     7
100
AcDbLine
 10
-28.265286
 20
170.24525
 30
0.0
 11
-27.631044
 21
170.221823
 31
0.0
  0
LINE
  5
4A4
100
AcDbEntity
  8
LIVELLO_1
 62
     7
100
AcDbLine
 10
-29.521884
 20
170.286591
 30
0.0
 11
-28.427722
 21
170.249384
 31
0.0
  0
LINE
  5
4A3
100
AcDbEntity
  8
LIVELLO_1
 62
     7
100
AcDbLine
 10
-27.631044
 20
170.221823
 30
0.0
 11
-27.007137
 21
170.205287
 31
0.0
  0
LINE
  5
4A2
100
AcDbEntity
  8
LIVELLO_1
 62
     7
100
AcDbLine
 10
-28.427722
 20
168.808818
 30
0.0
 11
-28.265286
 21
168.808818
 31
0.0
  0
LINE
  5
4A1
100
AcDbEntity
  8
LIVELLO_1
 62
     7
100
AcDbLine
 10
-27.007137
 20
168.852915
 30
0.0
 11
-27.631044
 21
168.836378
 31
0.0
  0
LINE
  5
4A0
100
AcDbEntity
  8
LIVELLO_1
 62
     7
100
AcDbLine
 10
-28.427722
 20
168.808818
 30
0.0
 11
-29.521884
 21
168.772989
 31
0.0
  0
LINE
  5
49F
100
AcDbEntity
  8
LIVELLO_1
 62
     7
100
AcDbLine
 10
-27.631044
 20
168.836378
 30
0.0
 11
-28.265286
 21
168.812952
 31
0.0
  0
LINE
  5
49E
100
AcDbEntity
  8
LIVELLO_1
 62
     7
100
AcDbLine
 10
-27.169746
 20
168.686344
 30
0.0
 11
-29.521884
 21
168.60504
 31
0.0
  0
LINE
  5
49D
100
AcDbEntity
  8
LIVELLO_1
 62
     7
100
AcDbLine
 10
-27.169746
 20
162.918738
 30
0.0
 11
-29.521884
 21
163.000042
 31
0.0
  0
LINE
  5
49C
100
AcDbEntity
  8
LIVELLO_1
 62
     7
100
AcDbLine
 10
-28.265286
 20
162.790752
 30
0.0
 11
-27.631044
 21
162.767326
 31
0.0
  0
LINE
  5
49B
100
AcDbEntity
  8
LIVELLO_1
 62
     7
100
AcDbLine
 10
-29.521884
 20
162.831921
 30
0.0
 11
-28.427722
 21
162.794887
 31
0.0
  0
LINE
  5
49A
100
AcDbEntity
  8
LIVELLO_1
 62
     7
100
AcDbLine
 10
-27.631044
 20
162.767326
 30
0.0
 11
-27.007137
 21
162.749411
 31
0.0
  0
LINE
  5
499
100
AcDbEntity
  8
LIVELLO_1
 62
     7
100
AcDbLine
 10
-28.427722
 20
161.355698
 30
0.0
 11
-28.265286
 21
161.355698
 31
0.0
  0
LINE
  5
498
100
AcDbEntity
  8
LIVELLO_1
 62
     7
100
AcDbLine
 10
-27.007137
 20
161.398417
 30
0.0
 11
-27.631044
 21
161.381881
 31
0.0
  0
LINE
  5
497
100
AcDbEntity
  8
LIVELLO_1
 62
     7
100
AcDbLine
 10
-28.427722
 20
161.355698
 30
0.0
 11
-29.521884
 21
161.317113
 31
0.0
  0
LINE
  5
496
100
AcDbEntity
  8
LIVELLO_1
 62
     7
100
AcDbLine
 10
-27.631044
 20
161.381881
 30
0.0
 11
-28.265286
 21
161.358454
 31
0.0
  0
LINE
  5
495
100
AcDbEntity
  8
LIVELLO_1
 62
     7
100
AcDbLine
 10
-27.169746
 20
161.231675
 30
0.0
 11
-29.521884
 21
161.149164
 31
0.0
  0
LINE
  5
494
100
AcDbEntity
  8
LIVELLO_1
 62
     7
100
AcDbLine
 10
17.971168
 20
179.328933
 30
0.0
 11
17.971168
 21
175.811663
 31
0.0
  0
LINE
  5
493
100
AcDbEntity
  8
LIVELLO_1
 62
     7
100
AcDbLine
 10
17.267508
 20
176.650372
 30
0.0
 11
17.267508
 21
175.811663
 31
0.0
  0
LINE
  5
492
100
AcDbEntity
  8
LIVELLO_1
 62
     7
100
AcDbLine
 10
16.539731
 20
176.650372
 30
0.0
 11
16.539731
 21
175.811663
 31
0.0
  0
LINE
  5
491
100
AcDbEntity
  8
LIVELLO_1
 62
     7
100
AcDbLine
 10
-29.521884
 20
155.544166
 30
0.0
 11
-27.169746
 21
155.46424
 31
0.0
  0
LINE
  5
490
100
AcDbEntity
  8
LIVELLO_1
 62
     7
100
AcDbLine
 10
-28.265286
 20
155.334705
 30
0.0
 11
-27.631044
 21
155.315584
 31
0.0
  0
LINE
  5
48F
100
AcDbEntity
  8
LIVELLO_1
 62
     7
100
AcDbLine
 10
-29.521884
 20
155.378802
 30
0.0
 11
-28.427722
 21
155.340217
 31
0.0
  0
LINE
  5
48E
100
AcDbEntity
  8
LIVELLO_1
 62
     7
100
AcDbLine
 10
-27.631044
 20
155.315584
 30
0.0
 11
-27.007137
 21
155.296292
 31
0.0
  0
LINE
  5
48D
100
AcDbEntity
  8
LIVELLO_1
 62
     7
100
AcDbLine
 10
-28.427722
 20
153.899822
 30
0.0
 11
-28.265286
 21
153.899822
 31
0.0
  0
LINE
  5
48C
100
AcDbEntity
  8
LIVELLO_1
 62
     7
100
AcDbLine
 10
-28.427722
 20
155.340217
 30
0.0
 11
-28.265286
 21
155.340217
 31
0.0
  0
LINE
  5
48B
100
AcDbEntity
  8
LIVELLO_1
 62
     7
100
AcDbLine
 10
-29.521884
 20
153.782689
 30
0.0
 11
-33.12666
 21
153.782689
 31
0.0
  0
LINE
  5
48A
100
AcDbEntity
  8
LIVELLO_1
 62
     7
100
AcDbLine
 10
-38.544245
 20
153.697423
 30
0.0
 11
-32.497241
 21
153.697423
 31
0.0
  0
LINE
  5
489
100
AcDbEntity
  8
LIVELLO_1
 62
     7
100
AcDbLine
 10
-38.544245
 20
152.442891
 30
0.0
 11
-32.497241
 21
152.442891
 31
0.0
  0
LINE
  5
488
100
AcDbEntity
  8
LIVELLO_1
 62
     7
100
AcDbLine
 10
-27.007137
 20
153.94392
 30
0.0
 11
-27.631044
 21
153.927383
 31
0.0
  0
LINE
  5
487
100
AcDbEntity
  8
LIVELLO_1
 62
     7
100
AcDbLine
 10
-28.427722
 20
153.899822
 30
0.0
 11
-29.521884
 21
153.862615
 31
0.0
  0
LINE
  5
486
100
AcDbEntity
  8
LIVELLO_1
 62
     7
100
AcDbLine
 10
-27.631044
 20
153.927383
 30
0.0
 11
-28.265286
 21
153.906713
 31
0.0
  0
LINE
  5
485
100
AcDbEntity
  8
LIVELLO_1
 62
     7
100
AcDbLine
 10
-27.169746
 20
153.777177
 30
0.0
 11
-29.521884
 21
153.696045
 31
0.0
  0
LINE
  5
484
100
AcDbEntity
  8
LIVELLO_1
 62
     7
100
AcDbLine
 10
13.782621
 20
179.328933
 30
0.0
 11
13.782621
 21
175.811663
 31
0.0
  0
LINE
  5
483
100
AcDbEntity
  8
LIVELLO_1
 62
     7
100
AcDbLine
 10
37.94342
 20
146.863904
 30
0.0
 11
-6.190148
 21
146.863904
 31
0.0
  0
LINE
  5
482
100
AcDbEntity
  8
LIVELLO_1
 62
     7
100
AcDbLine
 10
38.492224
 20
145.825552
 30
0.0
 11
-6.738262
 21
145.825552
 31
0.0
  0
LINE
  5
481
100
AcDbEntity
  8
LIVELLO_1
 62
     7
100
AcDbLine
 10
-6.738262
 20
144.821651
 30
0.0
 11
38.492224
 21
144.821651
 31
0.0
  0
LINE
  5
480
100
AcDbEntity
  8
LIVELLO_1
 62
     7
100
AcDbLine
 10
-6.738262
 20
144.821651
 30
0.0
 11
-6.738262
 21
145.825552
 31
0.0
  0
LINE
  5
47F
100
AcDbEntity
  8
LIVELLO_1
 62
     7
100
AcDbLine
 10
-30.820513
 20
128.48587
 30
0.0
 11
-27.888565
 21
128.48587
 31
0.0
  0
LINE
  5
47E
100
AcDbEntity
  8
LIVELLO_1
 62
     7
100
AcDbLine
 10
-27.888565
 20
128.401809
 30
0.0
 11
-30.820513
 21
128.401809
 31
0.0
  0
LINE
  5
47D
100
AcDbEntity
  8
LIVELLO_1
 62
     7
100
AcDbLine
 10
-27.007137
 20
155.296292
 30
0.0
 11
-27.007137
 21
153.94392
 31
0.0
  0
LINE
  5
47C
100
AcDbEntity
  8
LIVELLO_1
 62
     7
100
AcDbLine
 10
-27.007137
 20
162.749411
 30
0.0
 11
-27.007137
 21
161.398417
 31
0.0
  0
LINE
  5
47B
100
AcDbEntity
  8
LIVELLO_1
 62
     7
100
AcDbLine
 10
-27.007137
 20
170.205287
 30
0.0
 11
-27.007137
 21
168.852915
 31
0.0
  0
LINE
  5
47A
100
AcDbEntity
  8
LIVELLO_1
 62
     7
100
AcDbLine
 10
-27.631044
 20
154.062259
 30
0.0
 11
-27.631044
 21
153.927383
 31
0.0
  0
LINE
  5
479
100
AcDbEntity
  8
LIVELLO_1
 62
     7
100
AcDbLine
 10
-27.631044
 20
155.315584
 30
0.0
 11
-27.631044
 21
155.17778
 31
0.0
  0
LINE
  5
478
100
AcDbEntity
  8
LIVELLO_1
 62
     7
100
AcDbLine
 10
-27.631044
 20
161.516928
 30
0.0
 11
-27.631044
 21
161.381881
 31
0.0
  0
LINE
  5
477
100
AcDbEntity
  8
LIVELLO_1
 62
     7
100
AcDbLine
 10
-27.631044
 20
162.767326
 30
0.0
 11
-27.631044
 21
162.632278
 31
0.0
  0
LINE
  5
476
100
AcDbEntity
  8
LIVELLO_1
 62
     7
100
AcDbLine
 10
-27.631044
 20
168.971426
 30
0.0
 11
-27.631044
 21
168.836378
 31
0.0
  0
LINE
  5
475
100
AcDbEntity
  8
LIVELLO_1
 62
     7
100
AcDbLine
 10
-27.631044
 20
170.221823
 30
0.0
 11
-27.631044
 21
170.086948
 31
0.0
  0
LINE
  5
474
100
AcDbEntity
  8
LIVELLO_1
 62
     7
100
AcDbLine
 10
-27.888565
 20
170.39804
 30
0.0
 11
-27.888565
 21
178.742234
 31
0.0
  0
LINE
  5
473
100
AcDbEntity
  8
LIVELLO_1
 62
     7
100
AcDbLine
 10
-27.888565
 20
162.943542
 30
0.0
 11
-27.888565
 21
168.66154
 31
0.0
  0
LINE
  5
472
100
AcDbEntity
  8
LIVELLO_1
 62
     7
100
AcDbLine
 10
-27.888565
 20
155.487667
 30
0.0
 11
-27.888565
 21
161.205664
 31
0.0
  0
LINE
  5
471
100
AcDbEntity
  8
LIVELLO_1
 62
     7
100
AcDbLine
 10
-27.888565
 20
128.401809
 30
0.0
 11
-27.888565
 21
153.750994
 31
0.0
  0
LINE
  5
470
100
AcDbEntity
  8
LIVELLO_1
 62
     7
100
AcDbLine
 10
-28.265286
 20
168.808818
 30
0.0
 11
-28.265286
 21
170.249384
 31
0.0
  0
LINE
  5
46F
100
AcDbEntity
  8
LIVELLO_1
 62
     7
100
AcDbLine
 10
-28.265286
 20
161.355698
 30
0.0
 11
-28.265286
 21
162.794887
 31
0.0
  0
LINE
  5
46E
100
AcDbEntity
  8
LIVELLO_1
 62
     7
100
AcDbLine
 10
-28.265286
 20
153.899822
 30
0.0
 11
-28.265286
 21
155.340217
 31
0.0
  0
LINE
  5
46D
100
AcDbEntity
  8
LIVELLO_1
 62
     7
100
AcDbLine
 10
-28.427722
 20
168.808818
 30
0.0
 11
-28.427722
 21
170.249384
 31
0.0
  0
LINE
  5
46C
100
AcDbEntity
  8
LIVELLO_1
 62
     7
100
AcDbLine
 10
-28.427722
 20
161.355698
 30
0.0
 11
-28.427722
 21
162.794887
 31
0.0
  0
LINE
  5
46B
100
AcDbEntity
  8
LIVELLO_1
 62
     7
100
AcDbLine
 10
-28.427722
 20
153.899822
 30
0.0
 11
-28.427722
 21
155.340217
 31
0.0
  0
LINE
  5
46A
100
AcDbEntity
  8
LIVELLO_1
 62
     7
100
AcDbLine
 10
-29.521884
 20
153.696045
 30
0.0
 11
-29.521884
 21
170.45454
 31
0.0
  0
LINE
  5
469
100
AcDbEntity
  8
LIVELLO_1
 62
     7
100
AcDbLine
 10
-30.820513
 20
170.367723
 30
0.0
 11
-30.820513
 21
178.742234
 31
0.0
  0
LINE
  5
468
100
AcDbEntity
  8
LIVELLO_1
 62
     7
100
AcDbLine
 10
-30.820513
 20
128.401809
 30
0.0
 11
-30.820513
 21
153.782689
 31
0.0
  0
LINE
  5
467
100
AcDbEntity
  8
LIVELLO_1
 62
     7
100
AcDbLine
 10
-31.036004
 20
170.367723
 30
0.0
 11
-31.036004
 21
153.782689
 31
0.0
  0
LINE
  5
466
100
AcDbEntity
  8
LIVELLO_1
 62
     7
100
AcDbLine
 10
-32.026297
 20
170.367723
 30
0.0
 11
-32.026297
 21
153.782689
 31
0.0
  0
LINE
  5
465
100
AcDbEntity
  8
LIVELLO_1
 62
     7
100
AcDbLine
 10
-32.202513
 20
170.367723
 30
0.0
 11
-32.202513
 21
153.782689
 31
0.0
  0
LINE
  5
464
100
AcDbEntity
  8
LIVELLO_1
 62
     7
100
AcDbLine
 10
-32.497241
 20
153.782689
 30
0.0
 11
-32.497241
 21
153.697423
 31
0.0
  0
LINE
  5
463
100
AcDbEntity
  8
LIVELLO_1
 62
     7
100
AcDbLine
 10
-32.497241
 20
170.451784
 30
0.0
 11
-32.497241
 21
170.367723
 31
0.0
  0
LINE
  5
462
100
AcDbEntity
  8
LIVELLO_1
 62
     7
100
AcDbLine
 10
-33.006771
 20
170.367723
 30
0.0
 11
-33.006771
 21
153.782689
 31
0.0
  0
LINE
  5
461
100
AcDbEntity
  8
LIVELLO_1
 62
     7
100
AcDbLine
 10
-33.12666
 20
170.367723
 30
0.0
 11
-33.12666
 21
153.782689
 31
0.0
  0
LINE
  5
460
100
AcDbEntity
  8
LIVELLO_1
 62
     7
100
AcDbLine
 10
-32.541338
 20
174.875286
 30
0.0
 11
-32.508955
 21
173.042151
 31
0.0
  0
LINE
  5
45F
100
AcDbEntity
  8
LIVELLO_1
 62
     7
100
AcDbLine
 10
-33.338017
 20
188.177144
 30
0.0
 11
-33.307011
 21
188.783137
 31
0.0
  0
LINE
  5
45E
100
AcDbEntity
  8
LIVELLO_1
 62
     7
100
AcDbLine
 10
-38.501009
 20
174.875286
 30
0.0
 11
-38.533221
 21
173.042151
 31
0.0
  0
LINE
  5
45D
100
AcDbEntity
  8
LIVELLO_1
 62
     7
100
AcDbLine
 10
-38.544245
 20
170.451784
 30
0.0
 11
-38.544245
 21
153.697423
 31
0.0
  0
LINE
  5
45C
100
AcDbEntity
  8
LIVELLO_1
 62
     7
100
AcDbLine
 10
-37.702091
 20
188.177144
 30
0.0
 11
-37.733097
 21
188.783137
 31
0.0
  0
POLYLINE
  5
449
100
AcDbEntity
  8
LIVELLO_1
 62
     7
100
AcDb2dPolyline
 66
     1
 10
0.0
 20
0.0
 30
0.0
  0
VERTEX
  5
44A
100
AcDbEntity
  8
LIVELLO_1
 62
     7
100
AcDbVertex
100
AcDb2dVertex
 10
-27.631044
 20
168.971426
 30
0.0
  0
VERTEX
  5
44B
100
AcDbEntity
  8
LIVELLO_1
 62
     7
100
AcDbVertex
100
AcDb2dVertex
 10
-27.489967
 20
168.990719
 30
0.0
  0
VERTEX
  5
44C
100
AcDbEntity
  8
LIVELLO_1
 62
     7
100
AcDbVertex
100
AcDb2dVertex
 10
-27.372834
 20
169.023792
 30
0.0
  0
VERTEX
  5
44D
100
AcDbEntity
  8
LIVELLO_1
 62
     7
100
AcDbVertex
100
AcDb2dVertex
 10
-27.282572
 20
169.071851
 30
0.0
  0
VERTEX
  5
44E
100
AcDbEntity
  8
LIVELLO_1
 62
     7
100
AcDbVertex
100
AcDb2dVertex
 10
-27.217288
 20
169.133862
 30
0.0
  0
VERTEX
  5
44F
100
AcDbEntity
  8
LIVELLO_1
 62
     7
100
AcDbVertex
100
AcDb2dVertex
 10
-27.166989
 20
169.21241
 30
0.0
  0
VERTEX
  5
450
100
AcDbEntity
  8
LIVELLO_1
 62
     7
100
AcDbVertex
100
AcDb2dVertex
 10
-27.134606
 20
169.308701
 30
0.0
  0
VERTEX
  5
451
100
AcDbEntity
  8
LIVELLO_1
 62
     7
100
AcDbVertex
100
AcDb2dVertex
 10
-27.114624
 20
169.417566
 30
0.0
  0
VERTEX
  5
452
100
AcDbEntity
  8
LIVELLO_1
 62
     7
100
AcDbVertex
100
AcDb2dVertex
 10
-27.11049
 20
169.527809
 30
0.0
  0
VERTEX
  5
453
100
AcDbEntity
  8
LIVELLO_1
 62
     7
100
AcDbVertex
100
AcDb2dVertex
 10
-27.114624
 20
169.642014
 30
0.0
  0
VERTEX
  5
454
100
AcDbEntity
  8
LIVELLO_1
 62
     7
100
AcDbVertex
100
AcDb2dVertex
 10
-27.134606
 20
169.750879
 30
0.0
  0
VERTEX
  5
455
100
AcDbEntity
  8
LIVELLO_1
 62
     7
100
AcDbVertex
100
AcDb2dVertex
 10
-27.166989
 20
169.845791
 30
0.0
  0
VERTEX
  5
456
100
AcDbEntity
  8
LIVELLO_1
 62
     7
100
AcDbVertex
100
AcDb2dVertex
 10
-27.217288
 20
169.924339
 30
0.0
  0
VERTEX
  5
457
100
AcDbEntity
  8
LIVELLO_1
 62
     7
100
AcDbVertex
100
AcDb2dVertex
 10
-27.282572
 20
169.986351
 30
0.0
  0
VERTEX
  5
458
100
AcDbEntity
  8
LIVELLO_1
 62
     7
100
AcDbVertex
100
AcDb2dVertex
 10
-27.372834
 20
170.034583
 30
0.0
  0
VERTEX
  5
459
100
AcDbEntity
  8
LIVELLO_1
 62
     7
100
AcDbVertex
100
AcDb2dVertex
 10
-27.489967
 20
170.070412
 30
0.0
  0
VERTEX
  5
45A
100
AcDbEntity
  8
LIVELLO_1
 62
     7
100
AcDbVertex
100
AcDb2dVertex
 10
-27.631044
 20
170.086948
 30
0.0
  0
SEQEND
  5
45B
100
AcDbEntity
  8
LIVELLO_1
 62
     7
  0
POLYLINE
  5
444
100
AcDbEntity
  8
LIVELLO_1
 62
     7
100
AcDb2dPolyline
 66
     1
 10
0.0
 20
0.0
 30
0.0
  0
VERTEX
  5
445
100
AcDbEntity
  8
LIVELLO_1
 62
     7
100
AcDbVertex
100
AcDb2dVertex
 10
-28.265286
 20
170.11158
 30
0.0
  0
VERTEX
  5
446
100
AcDbEntity
  8
LIVELLO_1
 62
     7
100
AcDbVertex
100
AcDb2dVertex
 10
-27.936796
 20
170.10469
 30
0.0
  0
VERTEX
  5
447
100
AcDbEntity
  8
LIVELLO_1
 62
     7
100
AcDbVertex
100
AcDb2dVertex
 10
-27.631044
 20
170.086948
 30
0.0
  0
SEQEND
  5
448
100
AcDbEntity
  8
LIVELLO_1
 62
     7
  0
POLYLINE
  5
43F
100
AcDbEntity
  8
LIVELLO_1
 62
     7
100
AcDb2dPolyline
 66
     1
 10
0.0
 20
0.0
 30
0.0
  0
VERTEX
  5
440
100
AcDbEntity
  8
LIVELLO_1
 62
     7
100
AcDbVertex
100
AcDb2dVertex
 10
-28.265286
 20
168.946621
 30
0.0
  0
VERTEX
  5
441
100
AcDbEntity
  8
LIVELLO_1
 62
     7
100
AcDbVertex
100
AcDb2dVertex
 10
-27.936796
 20
168.953512
 30
0.0
  0
VERTEX
  5
442
100
AcDbEntity
  8
LIVELLO_1
 62
     7
100
AcDbVertex
100
AcDb2dVertex
 10
-27.631044
 20
168.971426
 30
0.0
  0
SEQEND
  5
443
100
AcDbEntity
  8
LIVELLO_1
 62
     7
  0
POLYLINE
  5
43A
100
AcDbEntity
  8
LIVELLO_1
 62
     7
100
AcDb2dPolyline
 66
     1
 10
0.0
 20
0.0
 30
0.0
  0
VERTEX
  5
43B
100
AcDbEntity
  8
LIVELLO_1
 62
     7
100
AcDbVertex
100
AcDb2dVertex
 10
-27.631044
 20
162.632278
 30
0.0
  0
VERTEX
  5
43C
100
AcDbEntity
  8
LIVELLO_1
 62
     7
100
AcDbVertex
100
AcDb2dVertex
 10
-27.936796
 20
162.648815
 30
0.0
  0
VERTEX
  5
43D
100
AcDbEntity
  8
LIVELLO_1
 62
     7
100
AcDbVertex
100
AcDb2dVertex
 10
-28.265286
 20
162.657083
 30
0.0
  0
SEQEND
  5
43E
100
AcDbEntity
  8
LIVELLO_1
 62
     7
  0
LINE
  5
439
100
AcDbEntity
  8
LIVELLO_1
 62
     7
100
AcDbLine
 10
-28.427722
 20
162.794887
 30
0.0
 11
-28.26942
 21
162.794887
 31
0.0
  0
POLYLINE
  5
434
100
AcDbEntity
  8
LIVELLO_1
 62
     7
100
AcDb2dPolyline
 66
     1
 10
0.0
 20
0.0
 30
0.0
  0
VERTEX
  5
435
100
AcDbEntity
  8
LIVELLO_1
 62
     7
100
AcDbVertex
100
AcDb2dVertex
 10
-27.631044
 20
161.516928
 30
0.0
  0
VERTEX
  5
436
100
AcDbEntity
  8
LIVELLO_1
 62
     7
100
AcDbVertex
100
AcDb2dVertex
 10
-27.936796
 20
161.499014
 30
0.0
  0
VERTEX
  5
437
100
AcDbEntity
  8
LIVELLO_1
 62
     7
100
AcDbVertex
100
AcDb2dVertex
 10
-28.265286
 20
161.492124
 30
0.0
  0
SEQEND
  5
438
100
AcDbEntity
  8
LIVELLO_1
 62
     7
  0
POLYLINE
  5
421
100
AcDbEntity
  8
LIVELLO_1
 62
     7
100
AcDb2dPolyline
 66
     1
 10
0.0
 20
0.0
 30
0.0
  0
VERTEX
  5
422
100
AcDbEntity
  8
LIVELLO_1
 62
     7
100
AcDbVertex
100
AcDb2dVertex
 10
-27.631044
 20
161.516928
 30
0.0
  0
VERTEX
  5
423
100
AcDbEntity
  8
LIVELLO_1
 62
     7
100
AcDbVertex
100
AcDb2dVertex
 10
-27.489967
 20
161.534843
 30
0.0
  0
VERTEX
  5
424
100
AcDbEntity
  8
LIVELLO_1
 62
     7
100
AcDbVertex
100
AcDb2dVertex
 10
-27.372834
 20
161.567744
 30
0.0
  0
VERTEX
  5
425
100
AcDbEntity
  8
LIVELLO_1
 62
     7
100
AcDbVertex
100
AcDb2dVertex
 10
-27.282572
 20
161.615975
 30
0.0
  0
VERTEX
  5
426
100
AcDbEntity
  8
LIVELLO_1
 62
     7
100
AcDbVertex
100
AcDb2dVertex
 10
-27.217288
 20
161.677987
 30
0.0
  0
VERTEX
  5
427
100
AcDbEntity
  8
LIVELLO_1
 62
     7
100
AcDbVertex
100
AcDb2dVertex
 10
-27.166989
 20
161.756363
 30
0.0
  0
VERTEX
  5
428
100
AcDbEntity
  8
LIVELLO_1
 62
     7
100
AcDbVertex
100
AcDb2dVertex
 10
-27.134606
 20
161.854203
 30
0.0
  0
VERTEX
  5
429
100
AcDbEntity
  8
LIVELLO_1
 62
     7
100
AcDbVertex
100
AcDb2dVertex
 10
-27.114624
 20
161.96169
 30
0.0
  0
VERTEX
  5
42A
100
AcDbEntity
  8
LIVELLO_1
 62
     7
100
AcDbVertex
100
AcDb2dVertex
 10
-27.11049
 20
162.076067
 30
0.0
  0
VERTEX
  5
42B
100
AcDbEntity
  8
LIVELLO_1
 62
     7
100
AcDbVertex
100
AcDb2dVertex
 10
-27.114624
 20
162.187516
 30
0.0
  0
VERTEX
  5
42C
100
AcDbEntity
  8
LIVELLO_1
 62
     7
100
AcDbVertex
100
AcDb2dVertex
 10
-27.134606
 20
162.294831
 30
0.0
  0
VERTEX
  5
42D
100
AcDbEntity
  8
LIVELLO_1
 62
     7
100
AcDbVertex
100
AcDb2dVertex
 10
-27.166989
 20
162.391294
 30
0.0
  0
VERTEX
  5
42E
100
AcDbEntity
  8
LIVELLO_1
 62
     7
100
AcDbVertex
100
AcDb2dVertex
 10
-27.217288
 20
162.47122
 30
0.0
  0
VERTEX
  5
42F
100
AcDbEntity
  8
LIVELLO_1
 62
     7
100
AcDbVertex
100
AcDb2dVertex
 10
-27.282572
 20
162.533232
 30
0.0
  0
VERTEX
  5
430
100
AcDbEntity
  8
LIVELLO_1
 62
     7
100
AcDbVertex
100
AcDb2dVertex
 10
-27.372834
 20
162.581463
 30
0.0
  0
VERTEX
  5
431
100
AcDbEntity
  8
LIVELLO_1
 62
     7
100
AcDbVertex
100
AcDb2dVertex
 10
-27.489967
 20
162.614364
 30
0.0
  0
VERTEX
  5
432
100
AcDbEntity
  8
LIVELLO_1
 62
     7
100
AcDbVertex
100
AcDb2dVertex
 10
-27.631044
 20
162.632278
 30
0.0
  0
SEQEND
  5
433
100
AcDbEntity
  8
LIVELLO_1
 62
     7
  0
POLYLINE
  5
40E
100
AcDbEntity
  8
LIVELLO_1
 62
     7
100
AcDb2dPolyline
 66
     1
 10
0.0
 20
0.0
 30
0.0
  0
VERTEX
  5
40F
100
AcDbEntity
  8
LIVELLO_1
 62
     7
100
AcDbVertex
100
AcDb2dVertex
 10
-27.631044
 20
154.062259
 30
0.0
  0
VERTEX
  5
410
100
AcDbEntity
  8
LIVELLO_1
 62
     7
100
AcDbVertex
100
AcDb2dVertex
 10
-27.489967
 20
154.081551
 30
0.0
  0
VERTEX
  5
411
100
AcDbEntity
  8
LIVELLO_1
 62
     7
100
AcDbVertex
100
AcDb2dVertex
 10
-27.372834
 20
154.114624
 30
0.0
  0
VERTEX
  5
412
100
AcDbEntity
  8
LIVELLO_1
 62
     7
100
AcDbVertex
100
AcDb2dVertex
 10
-27.282572
 20
154.161477
 30
0.0
  0
VERTEX
  5
413
100
AcDbEntity
  8
LIVELLO_1
 62
     7
100
AcDbVertex
100
AcDb2dVertex
 10
-27.217288
 20
154.223489
 30
0.0
  0
VERTEX
  5
414
100
AcDbEntity
  8
LIVELLO_1
 62
     7
100
AcDbVertex
100
AcDb2dVertex
 10
-27.166989
 20
154.301865
 30
0.0
  0
VERTEX
  5
415
100
AcDbEntity
  8
LIVELLO_1
 62
     7
100
AcDbVertex
100
AcDb2dVertex
 10
-27.134606
 20
154.398328
 30
0.0
  0
VERTEX
  5
416
100
AcDbEntity
  8
LIVELLO_1
 62
     7
100
AcDbVertex
100
AcDb2dVertex
 10
-27.114624
 20
154.508571
 30
0.0
  0
VERTEX
  5
417
100
AcDbEntity
  8
LIVELLO_1
 62
     7
100
AcDbVertex
100
AcDb2dVertex
 10
-27.11049
 20
154.62002
 30
0.0
  0
VERTEX
  5
418
100
AcDbEntity
  8
LIVELLO_1
 62
     7
100
AcDbVertex
100
AcDb2dVertex
 10
-27.114624
 20
154.733019
 30
0.0
  0
VERTEX
  5
419
100
AcDbEntity
  8
LIVELLO_1
 62
     7
100
AcDbVertex
100
AcDb2dVertex
 10
-27.134606
 20
154.840333
 30
0.0
  0
VERTEX
  5
41A
100
AcDbEntity
  8
LIVELLO_1
 62
     7
100
AcDbVertex
100
AcDb2dVertex
 10
-27.166989
 20
154.938174
 30
0.0
  0
VERTEX
  5
41B
100
AcDbEntity
  8
LIVELLO_1
 62
     7
100
AcDbVertex
100
AcDb2dVertex
 10
-27.217288
 20
155.016722
 30
0.0
  0
VERTEX
  5
41C
100
AcDbEntity
  8
LIVELLO_1
 62
     7
100
AcDbVertex
100
AcDb2dVertex
 10
-27.282572
 20
155.078734
 30
0.0
  0
VERTEX
  5
41D
100
AcDbEntity
  8
LIVELLO_1
 62
     7
100
AcDbVertex
100
AcDb2dVertex
 10
-27.372834
 20
155.125415
 30
0.0
  0
VERTEX
  5
41E
100
AcDbEntity
  8
LIVELLO_1
 62
     7
100
AcDbVertex
100
AcDb2dVertex
 10
-27.489967
 20
155.15711
 30
0.0
  0
VERTEX
  5
41F
100
AcDbEntity
  8
LIVELLO_1
 62
     7
100
AcDbVertex
100
AcDb2dVertex
 10
-27.631044
 20
155.17778
 30
0.0
  0
SEQEND
  5
420
100
AcDbEntity
  8
LIVELLO_1
 62
     7
  0
POLYLINE
  5
408
100
AcDbEntity
  8
LIVELLO_1
 62
     7
100
AcDb2dPolyline
 66
     1
 10
0.0
 20
0.0
 30
0.0
  0
VERTEX
  5
409
100
AcDbEntity
  8
LIVELLO_1
 62
     7
100
AcDbVertex
100
AcDb2dVertex
 10
-27.642068
 20
170.356699
 30
0.0
  0
VERTEX
  5
40A
100
AcDbEntity
  8
LIVELLO_1
 62
     7
100
AcDbVertex
100
AcDb2dVertex
 10
-27.6338
 20
170.32087
 30
0.0
  0
VERTEX
  5
40B
100
AcDbEntity
  8
LIVELLO_1
 62
     7
100
AcDbVertex
100
AcDb2dVertex
 10
-27.631044
 20
170.275567
 30
0.0
  0
VERTEX
  5
40C
100
AcDbEntity
  8
LIVELLO_1
 62
     7
100
AcDbVertex
100
AcDb2dVertex
 10
-27.631044
 20
170.221823
 30
0.0
  0
SEQEND
  5
40D
100
AcDbEntity
  8
LIVELLO_1
 62
     7
  0
POLYLINE
  5
403
100
AcDbEntity
  8
LIVELLO_1
 62
     7
100
AcDb2dPolyline
 66
     1
 10
0.0
 20
0.0
 30
0.0
  0
VERTEX
  5
404
100
AcDbEntity
  8
LIVELLO_1
 62
     7
100
AcDbVertex
100
AcDb2dVertex
 10
-28.265286
 20
155.203963
 30
0.0
  0
VERTEX
  5
405
100
AcDbEntity
  8
LIVELLO_1
 62
     7
100
AcDbVertex
100
AcDb2dVertex
 10
-27.936796
 20
155.195695
 30
0.0
  0
VERTEX
  5
406
100
AcDbEntity
  8
LIVELLO_1
 62
     7
100
AcDbVertex
100
AcDb2dVertex
 10
-27.631044
 20
155.17778
 30
0.0
  0
SEQEND
  5
407
100
AcDbEntity
  8
LIVELLO_1
 62
     7
  0
POLYLINE
  5
3FE
100
AcDbEntity
  8
LIVELLO_1
 62
     7
100
AcDb2dPolyline
 66
     1
 10
0.0
 20
0.0
 30
0.0
  0
VERTEX
  5
3FF
100
AcDbEntity
  8
LIVELLO_1
 62
     7
100
AcDbVertex
100
AcDb2dVertex
 10
-28.265286
 20
154.039004
 30
0.0
  0
VERTEX
  5
400
100
AcDbEntity
  8
LIVELLO_1
 62
     7
100
AcDbVertex
100
AcDb2dVertex
 10
-27.936796
 20
154.043138
 30
0.0
  0
VERTEX
  5
401
100
AcDbEntity
  8
LIVELLO_1
 62
     7
100
AcDbVertex
100
AcDb2dVertex
 10
-27.631044
 20
154.062259
 30
0.0
  0
SEQEND
  5
402
100
AcDbEntity
  8
LIVELLO_1
 62
     7
  0
POLYLINE
  5
3F8
100
AcDbEntity
  8
LIVELLO_1
 62
     7
100
AcDb2dPolyline
 66
     1
 10
0.0
 20
0.0
 30
0.0
  0
VERTEX
  5
3F9
100
AcDbEntity
  8
LIVELLO_1
 62
     7
100
AcDbVertex
100
AcDb2dVertex
 10
-27.642068
 20
162.903579
 30
0.0
  0
VERTEX
  5
3FA
100
AcDbEntity
  8
LIVELLO_1
 62
     7
100
AcDbVertex
100
AcDb2dVertex
 10
-27.6338
 20
162.866372
 30
0.0
  0
VERTEX
  5
3FB
100
AcDbEntity
  8
LIVELLO_1
 62
     7
100
AcDbVertex
100
AcDb2dVertex
 10
-27.631044
 20
162.818141
 30
0.0
  0
VERTEX
  5
3FC
100
AcDbEntity
  8
LIVELLO_1
 62
     7
100
AcDbVertex
100
AcDb2dVertex
 10
-27.631044
 20
162.767326
 30
0.0
  0
SEQEND
  5
3FD
100
AcDbEntity
  8
LIVELLO_1
 62
     7
  0
POLYLINE
  5
3F2
100
AcDbEntity
  8
LIVELLO_1
 62
     7
100
AcDb2dPolyline
 66
     1
 10
0.0
 20
0.0
 30
0.0
  0
VERTEX
  5
3F3
100
AcDbEntity
  8
LIVELLO_1
 62
     7
100
AcDbVertex
100
AcDb2dVertex
 10
-27.642068
 20
155.449082
 30
0.0
  0
VERTEX
  5
3F4
100
AcDbEntity
  8
LIVELLO_1
 62
     7
100
AcDbVertex
100
AcDb2dVertex
 10
-27.6338
 20
155.411875
 30
0.0
  0
VERTEX
  5
3F5
100
AcDbEntity
  8
LIVELLO_1
 62
     7
100
AcDbVertex
100
AcDb2dVertex
 10
-27.631044
 20
155.366399
 30
0.0
  0
VERTEX
  5
3F6
100
AcDbEntity
  8
LIVELLO_1
 62
     7
100
AcDbVertex
100
AcDb2dVertex
 10
-27.631044
 20
155.315584
 30
0.0
  0
SEQEND
  5
3F7
100
AcDbEntity
  8
LIVELLO_1
 62
     7
  0
POLYLINE
  5
3EB
100
AcDbEntity
  8
LIVELLO_1
 62
     7
100
AcDb2dPolyline
 66
     1
 10
0.0
 20
0.0
 30
0.0
  0
VERTEX
  5
3EC
100
AcDbEntity
  8
LIVELLO_1
 62
     7
100
AcDbVertex
100
AcDb2dVertex
 10
-28.424966
 20
170.393906
 30
0.0
  0
VERTEX
  5
3ED
100
AcDbEntity
  8
LIVELLO_1
 62
     7
100
AcDbVertex
100
AcDb2dVertex
 10
-28.424966
 20
170.367723
 30
0.0
  0
VERTEX
  5
3EE
100
AcDbEntity
  8
LIVELLO_1
 62
     7
100
AcDbVertex
100
AcDb2dVertex
 10
-28.424966
 20
170.333272
 30
0.0
  0
VERTEX
  5
3EF
100
AcDbEntity
  8
LIVELLO_1
 62
     7
100
AcDbVertex
100
AcDb2dVertex
 10
-28.426344
 20
170.290725
 30
0.0
  0
VERTEX
  5
3F0
100
AcDbEntity
  8
LIVELLO_1
 62
     7
100
AcDbVertex
100
AcDb2dVertex
 10
-28.427722
 20
170.249384
 30
0.0
  0
SEQEND
  5
3F1
100
AcDbEntity
  8
LIVELLO_1
 62
     7
  0
POLYLINE
  5
3E4
100
AcDbEntity
  8
LIVELLO_1
 62
     7
100
AcDb2dPolyline
 66
     1
 10
0.0
 20
0.0
 30
0.0
  0
VERTEX
  5
3E5
100
AcDbEntity
  8
LIVELLO_1
 62
     7
100
AcDbVertex
100
AcDb2dVertex
 10
-28.424966
 20
155.483533
 30
0.0
  0
VERTEX
  5
3E6
100
AcDbEntity
  8
LIVELLO_1
 62
     7
100
AcDbVertex
100
AcDb2dVertex
 10
-28.424966
 20
155.458728
 30
0.0
  0
VERTEX
  5
3E7
100
AcDbEntity
  8
LIVELLO_1
 62
     7
100
AcDbVertex
100
AcDb2dVertex
 10
-28.424966
 20
155.421521
 30
0.0
  0
VERTEX
  5
3E8
100
AcDbEntity
  8
LIVELLO_1
 62
     7
100
AcDbVertex
100
AcDb2dVertex
 10
-28.426344
 20
155.384314
 30
0.0
  0
VERTEX
  5
3E9
100
AcDbEntity
  8
LIVELLO_1
 62
     7
100
AcDbVertex
100
AcDb2dVertex
 10
-28.427722
 20
155.340217
 30
0.0
  0
SEQEND
  5
3EA
100
AcDbEntity
  8
LIVELLO_1
 62
     7
  0
POLYLINE
  5
3DE
100
AcDbEntity
  8
LIVELLO_1
 62
     7
100
AcDb2dPolyline
 66
     1
 10
0.0
 20
0.0
 30
0.0
  0
VERTEX
  5
3DF
100
AcDbEntity
  8
LIVELLO_1
 62
     7
100
AcDbVertex
100
AcDb2dVertex
 10
-28.424966
 20
162.911848
 30
0.0
  0
VERTEX
  5
3E0
100
AcDbEntity
  8
LIVELLO_1
 62
     7
100
AcDbVertex
100
AcDb2dVertex
 10
-28.424966
 20
162.877397
 30
0.0
  0
VERTEX
  5
3E1
100
AcDbEntity
  8
LIVELLO_1
 62
     7
100
AcDbVertex
100
AcDb2dVertex
 10
-28.426344
 20
162.838812
 30
0.0
  0
VERTEX
  5
3E2
100
AcDbEntity
  8
LIVELLO_1
 62
     7
100
AcDbVertex
100
AcDb2dVertex
 10
-28.427722
 20
162.794887
 30
0.0
  0
SEQEND
  5
3E3
100
AcDbEntity
  8
LIVELLO_1
 62
     7
  0
POLYLINE
  5
3D8
100
AcDbEntity
  8
LIVELLO_1
 62
     7
100
AcDb2dPolyline
 66
     1
 10
0.0
 20
0.0
 30
0.0
  0
VERTEX
  5
3D9
100
AcDbEntity
  8
LIVELLO_1
 62
     7
100
AcDbVertex
100
AcDb2dVertex
 10
-27.642068
 20
153.792335
 30
0.0
  0
VERTEX
  5
3DA
100
AcDbEntity
  8
LIVELLO_1
 62
     7
100
AcDbVertex
100
AcDb2dVertex
 10
-27.6338
 20
153.828164
 30
0.0
  0
VERTEX
  5
3DB
100
AcDbEntity
  8
LIVELLO_1
 62
     7
100
AcDbVertex
100
AcDb2dVertex
 10
-27.631044
 20
153.875018
 30
0.0
  0
VERTEX
  5
3DC
100
AcDbEntity
  8
LIVELLO_1
 62
     7
100
AcDbVertex
100
AcDb2dVertex
 10
-27.631044
 20
153.927383
 30
0.0
  0
SEQEND
  5
3DD
100
AcDbEntity
  8
LIVELLO_1
 62
     7
  0
POLYLINE
  5
3D2
100
AcDbEntity
  8
LIVELLO_1
 62
     7
100
AcDb2dPolyline
 66
     1
 10
0.0
 20
0.0
 30
0.0
  0
VERTEX
  5
3D3
100
AcDbEntity
  8
LIVELLO_1
 62
     7
100
AcDbVertex
100
AcDb2dVertex
 10
-27.642068
 20
161.245455
 30
0.0
  0
VERTEX
  5
3D4
100
AcDbEntity
  8
LIVELLO_1
 62
     7
100
AcDbVertex
100
AcDb2dVertex
 10
-27.6338
 20
161.28404
 30
0.0
  0
VERTEX
  5
3D5
100
AcDbEntity
  8
LIVELLO_1
 62
     7
100
AcDbVertex
100
AcDb2dVertex
 10
-27.631044
 20
161.329515
 30
0.0
  0
VERTEX
  5
3D6
100
AcDbEntity
  8
LIVELLO_1
 62
     7
100
AcDbVertex
100
AcDb2dVertex
 10
-27.631044
 20
161.381881
 30
0.0
  0
SEQEND
  5
3D7
100
AcDbEntity
  8
LIVELLO_1
 62
     7
  0
POLYLINE
  5
3CC
100
AcDbEntity
  8
LIVELLO_1
 62
     7
100
AcDb2dPolyline
 66
     1
 10
0.0
 20
0.0
 30
0.0
  0
VERTEX
  5
3CD
100
AcDbEntity
  8
LIVELLO_1
 62
     7
100
AcDbVertex
100
AcDb2dVertex
 10
-28.424966
 20
153.782689
 30
0.0
  0
VERTEX
  5
3CE
100
AcDbEntity
  8
LIVELLO_1
 62
     7
100
AcDbVertex
100
AcDb2dVertex
 10
-28.424966
 20
153.81714
 30
0.0
  0
VERTEX
  5
3CF
100
AcDbEntity
  8
LIVELLO_1
 62
     7
100
AcDbVertex
100
AcDb2dVertex
 10
-28.426344
 20
153.857103
 30
0.0
  0
VERTEX
  5
3D0
100
AcDbEntity
  8
LIVELLO_1
 62
     7
100
AcDbVertex
100
AcDb2dVertex
 10
-28.427722
 20
153.899822
 30
0.0
  0
SEQEND
  5
3D1
100
AcDbEntity
  8
LIVELLO_1
 62
     7
  0
POLYLINE
  5
3C6
100
AcDbEntity
  8
LIVELLO_1
 62
     7
100
AcDb2dPolyline
 66
     1
 10
0.0
 20
0.0
 30
0.0
  0
VERTEX
  5
3C7
100
AcDbEntity
  8
LIVELLO_1
 62
     7
100
AcDbVertex
100
AcDb2dVertex
 10
-28.424966
 20
168.691857
 30
0.0
  0
VERTEX
  5
3C8
100
AcDbEntity
  8
LIVELLO_1
 62
     7
100
AcDbVertex
100
AcDb2dVertex
 10
-28.424966
 20
168.726135
 30
0.0
  0
VERTEX
  5
3C9
100
AcDbEntity
  8
LIVELLO_1
 62
     7
100
AcDbVertex
100
AcDb2dVertex
 10
-28.426344
 20
168.766098
 30
0.0
  0
VERTEX
  5
3CA
100
AcDbEntity
  8
LIVELLO_1
 62
     7
100
AcDbVertex
100
AcDb2dVertex
 10
-28.427722
 20
168.808818
 30
0.0
  0
SEQEND
  5
3CB
100
AcDbEntity
  8
LIVELLO_1
 62
     7
  0
POLYLINE
  5
3BF
100
AcDbEntity
  8
LIVELLO_1
 62
     7
100
AcDb2dPolyline
 66
     1
 10
0.0
 20
0.0
 30
0.0
  0
VERTEX
  5
3C0
100
AcDbEntity
  8
LIVELLO_1
 62
     7
100
AcDbVertex
100
AcDb2dVertex
 10
-28.424966
 20
161.209626
 30
0.0
  0
VERTEX
  5
3C1
100
AcDbEntity
  8
LIVELLO_1
 62
     7
100
AcDbVertex
100
AcDb2dVertex
 10
-28.424966
 20
161.237187
 30
0.0
  0
VERTEX
  5
3C2
100
AcDbEntity
  8
LIVELLO_1
 62
     7
100
AcDbVertex
100
AcDb2dVertex
 10
-28.424966
 20
161.271638
 30
0.0
  0
VERTEX
  5
3C3
100
AcDbEntity
  8
LIVELLO_1
 62
     7
100
AcDbVertex
100
AcDb2dVertex
 10
-28.426344
 20
161.312979
 30
0.0
  0
VERTEX
  5
3C4
100
AcDbEntity
  8
LIVELLO_1
 62
     7
100
AcDbVertex
100
AcDb2dVertex
 10
-28.427722
 20
161.355698
 30
0.0
  0
SEQEND
  5
3C5
100
AcDbEntity
  8
LIVELLO_1
 62
     7
  0
POLYLINE
  5
3B9
100
AcDbEntity
  8
LIVELLO_1
 62
     7
100
AcDb2dPolyline
 66
     1
 10
0.0
 20
0.0
 30
0.0
  0
VERTEX
  5
3BA
100
AcDbEntity
  8
LIVELLO_1
 62
     7
100
AcDbVertex
100
AcDb2dVertex
 10
-27.642068
 20
168.699953
 30
0.0
  0
VERTEX
  5
3BB
100
AcDbEntity
  8
LIVELLO_1
 62
     7
100
AcDbVertex
100
AcDb2dVertex
 10
-27.6338
 20
168.73716
 30
0.0
  0
VERTEX
  5
3BC
100
AcDbEntity
  8
LIVELLO_1
 62
     7
100
AcDbVertex
100
AcDb2dVertex
 10
-27.631044
 20
168.785391
 30
0.0
  0
VERTEX
  5
3BD
100
AcDbEntity
  8
LIVELLO_1
 62
     7
100
AcDbVertex
100
AcDb2dVertex
 10
-27.631044
 20
168.836378
 30
0.0
  0
SEQEND
  5
3BE
100
AcDbEntity
  8
LIVELLO_1
 62
     7
  0
SPLINE
  5
3B8
100
AcDbEntity
  8
LIVELLO_1
 62
     7
100
AcDbSpline
210
0.0
220
0.0
230
1.0
 70
     8
 71
     3
 72
    11
 73
     7
 74
     0
 42
0.00000001
 43
0.00000001
 40
0.0
 40
0.0
 40
0.0
 40
0.0
 40
1.0
 40
1.0
 40
1.0
 40
2.0
 40
2.0
 40
2.0
 40
2.0
 10
17.328141276041666
 20
179.583698187934
 30
0.0
 10
16.865292697482637
 20
192.87453206380206
 30
0.0
 10
5.7145521375868054
 20
203.2747585720486
 30
0.0
 10
-7.579037814670138
 20
202.81070421006942
 30
0.0
 10
-20.542932128906248
 20
202.3576741536458
 30
0.0
 10
-30.820513237847219
 20
191.7162909613715
 30
0.0
 10
-30.820513237847219
 20
178.74223361545137
 30
0.0
  0
SPLINE
  5
3B7
100
AcDbEntity
  8
LIVELLO_1
 62
     7
100
AcDbSpline
210
0.0
220
0.0
230
1.0
 70
     8
 71
     3
 72
    11
 73
     7
 74
     0
 42
0.00000001
 43
0.00000001
 40
0.0
 40
0.0
 40
0.0
 40
0.0
 40
1.0
 40
1.0
 40
1.0
 40
2.0
 40
2.0
 40
2.0
 40
2.0
 10
14.393436686197916
 20
179.58921034071179
 30
0.0
 10
13.926453993055555
 20
191.25912679036458
 30
0.0
 10
4.0860555013020834
 20
200.34281005859373
 30
0.0
 10
-7.5845499674479155
 20
199.87737765842013
 30
0.0
 10
-18.926837836371526
 20
199.42021348741318
 30
0.0
 10
-27.88856472439236
 20
190.09416775173608
 30
0.0
 10
-27.88856472439236
 20
178.74223361545137
 30
0.0
  0
SPLINE
  5
3B6
100
AcDbEntity
  8
LIVELLO_1
 62
     7
100
AcDbSpline
210
0.0
220
0.0
230
1.0
 70
     8
 71
     3
 72
     8
 73
     4
 74
     0
 42
0.00000001
 43
0.00000001
 40
0.0
 40
0.0
 40
0.0
 40
0.0
 40
1.0
 40
1.0
 40
1.0
 40
1.0
 10
20.221504720052081
 20
174.75539686414928
 30
0.0
 10
20.124353027343748
 20
175.36552327473956
 30
0.0
 10
19.598286946614582
 20
175.81166314019094
 30
0.0
 10
18.98213161892361
 20
175.81166314019094
 30
0.0
  0
SPLINE
  5
3B5
100
AcDbEntity
  8
LIVELLO_1
 62
     7
100
AcDbSpline
210
0.0
220
0.0
230
1.0
 70
     8
 71
     3
 72
     8
 73
     4
 74
     0
 42
0.00000001
 43
0.00000001
 40
0.0
 40
0.0
 40
0.0
 40
0.0
 40
1.0
 40
1.0
 40
1.0
 40
1.0
 10
-6.1901475694444441
 20
146.86390380859373
 30
0.0
 10
3.2921332465277775
 20
153.33930528428817
 30
0.0
 10
9.69587673611111
 20
163.41999918619791
 30
0.0
 10
11.53021782769097
 20
174.75539686414928
 30
0.0
  0
SPLINE
  5
3B4
100
AcDbEntity
  8
LIVELLO_1
 62
     7
100
AcDbSpline
210
0.0
220
0.0
230
1.0
 70
     8
 71
     3
 72
     8
 73
     4
 74
     0
 42
0.00000001
 43
0.00000001
 40
0.0
 40
0.0
 40
0.0
 40
0.0
 40
1.0
 40
1.0
 40
1.0
 40
1.0
 10
12.77320827907986
 20
175.81166314019094
 30
0.0
 10
12.155502658420138
 20
175.81166314019094
 30
0.0
 10
11.630814615885416
 20
175.36552327473956
 30
0.0
 10
11.53021782769097
 20
174.75539686414928
 30
0.0
  0
SPLINE
  5
3B3
100
AcDbEntity
  8
LIVELLO_1
 62
     7
100
AcDbSpline
210
0.0
220
0.0
230
1.0
 70
     8
 71
     3
 72
     8
 73
     4
 74
     0
 42
0.00000001
 43
0.00000001
 40
0.0
 40
0.0
 40
0.0
 40
0.0
 40
1.0
 40
1.0
 40
1.0
 40
1.0
 10
20.221504720052081
 20
174.75539686414928
 30
0.0
 10
22.056534830729166
 20
163.41999918619791
 30
0.0
 10
28.465790473090276
 20
153.33930528428817
 30
0.0
 10
37.94342041015625
 20
146.86390380859373
 30
0.0
  0
SPLINE
  5
3B2
100
AcDbEntity
  8
LIVELLO_1
 62
     7
100
AcDbSpline
210
0.0
220
0.0
230
1.0
 70
     8
 71
     3
 72
     8
 73
     4
 74
     0
 42
0.00000001
 43
0.00000001
 40
0.0
 40
0.0
 40
0.0
 40
0.0
 40
1.0
 40
1.0
 40
1.0
 40
1.0
 10
38.492224121093749
 20
145.82555202907986
 30
0.0
 10
38.492224121093749
 20
146.24137505425347
 30
0.0
 10
38.288963487413191
 20
146.62843153211804
 30
0.0
 10
37.94342041015625
 20
146.86390380859373
 30
0.0
  0
SPLINE
  5
3B1
100
AcDbEntity
  8
LIVELLO_1
 62
     7
100
AcDbSpline
210
0.0
220
0.0
230
1.0
 70
     8
 71
     3
 72
     8
 73
     4
 74
     0
 42
0.00000001
 43
0.00000001
 40
0.0
 40
0.0
 40
0.0
 40
0.0
 40
1.0
 40
1.0
 40
1.0
 40
1.0
 10
-6.1901475694444441
 20
146.86390380859373
 30
0.0
 10
-6.5324178059895823
 20
146.62843153211804
 30
0.0
 10
-6.7382622612847216
 20
146.24137505425347
 30
0.0
 10
-6.7382622612847216
 20
145.82555202907986
 30
0.0
  0
SPLINE
  5
3B0
100
AcDbEntity
  8
LIVELLO_1
 62
     7
100
AcDbSpline
210
0.0
220
0.0
230
1.0
 70
     8
 71
     3
 72
    11
 73
     7
 74
     0
 42
0.00000001
 43
0.00000001
 40
0.0
 40
0.0
 40
0.0
 40
0.0
 40
1.0
 40
1.0
 40
1.0
 40
2.0
 40
2.0
 40
2.0
 40
2.0
 10
-32.497241210937496
 20
152.44289143880206
 30
0.0
 10
-32.150147840711803
 20
152.44289143880206
 30
0.0
 10
-31.868511284722221
 20
152.72366672092014
 30
0.0
 10
-31.868511284722221
 20
153.06938205295137
 30
0.0
 10
-31.868511284722221
 20
153.41647542317708
 30
0.0
 10
-32.150147840711803
 20
153.69742296006942
 30
0.0
 10
-32.497241210937496
 20
153.69742296006942
 30
0.0
  0
SPLINE
  5
3AF
100
AcDbEntity
  8
LIVELLO_1
 62
     7
100
AcDbSpline
210
0.0
220
0.0
230
1.0
 70
     8
 71
     3
 72
    11
 73
     7
 74
     0
 42
0.00000001
 43
0.00000001
 40
0.0
 40
0.0
 40
0.0
 40
0.0
 40
1.0
 40
1.0
 40
1.0
 40
2.0
 40
2.0
 40
2.0
 40
2.0
 10
-32.497241210937496
 20
170.45178358289928
 30
0.0
 10
-32.150147840711803
 20
170.45178358289928
 30
0.0
 10
-31.868511284722221
 20
170.73135308159721
 30
0.0
 10
-31.868511284722221
 20
171.07982449001736
 30
0.0
 10
-31.868511284722221
 20
171.42536756727429
 30
0.0
 10
-32.150147840711803
 20
171.70648735894096
 30
0.0
 10
-32.497241210937496
 20
171.70648735894096
 30
0.0
  0
SPLINE
  5
3AE
100
AcDbEntity
  8
LIVELLO_1
 62
     7
100
AcDbSpline
210
0.0
220
0.0
230
1.0
 70
     8
 71
     3
 72
    11
 73
     7
 74
     0
 42
0.00000001
 43
0.00000001
 40
0.0
 40
0.0
 40
0.0
 40
0.0
 40
1.0
 40
1.0
 40
1.0
 40
2.0
 40
2.0
 40
2.0
 40
2.0
 10
-38.544245062934024
 20
153.69742296006942
 30
0.0
 10
-38.891338433159717
 20
153.69742296006942
 30
0.0
 10
-39.172974989149303
 20
153.41647542317708
 30
0.0
 10
-39.172974989149303
 20
153.06938205295137
 30
0.0
 10
-39.172974989149303
 20
152.72366672092014
 30
0.0
 10
-38.891338433159717
 20
152.44289143880206
 30
0.0
 10
-38.544245062934024
 20
152.44289143880206
 30
0.0
  0
SPLINE
  5
3AD
100
AcDbEntity
  8
LIVELLO_1
 62
     7
100
AcDbSpline
210
0.0
220
0.0
230
1.0
 70
     8
 71
     3
 72
    11
 73
     7
 74
     0
 42
0.00000001
 43
0.00000001
 40
0.0
 40
0.0
 40
0.0
 40
0.0
 40
1.0
 40
1.0
 40
1.0
 40
2.0
 40
2.0
 40
2.0
 40
2.0
 10
-38.544245062934024
 20
171.70648735894096
 30
0.0
 10
-38.891338433159717
 20
171.70648735894096
 30
0.0
 10
-39.172974989149303
 20
171.42536756727429
 30
0.0
 10
-39.172974989149303
 20
171.07982449001736
 30
0.0
 10
-39.172974989149303
 20
170.73135308159721
 30
0.0
 10
-38.891338433159717
 20
170.45178358289928
 30
0.0
 10
-38.544245062934024
 20
170.45178358289928
 30
0.0
  0
SPLINE
  5
3AC
100
AcDbEntity
  8
LIVELLO_1
 62
     7
100
AcDbSpline
210
0.0
220
0.0
230
1.0
 70
     8
 71
     3
 72
     8
 73
     4
 74
     0
 42
0.00000001
 43
0.00000001
 40
0.0
 40
0.0
 40
0.0
 40
0.0
 40
1.0
 40
1.0
 40
1.0
 40
1.0
 10
-37.959095594618049
 20
175.8254435221354
 30
0.0
 10
-37.44732666015625
 20
179.86464572482637
 30
0.0
 10
-37.35723741319444
 20
183.94656711154514
 30
0.0
 10
-37.691239420572913
 20
188.00626763237847
 30
0.0
  0
SPLINE
  5
3AB
100
AcDbEntity
  8
LIVELLO_1
 62
     7
100
AcDbSpline
210
0.0
220
0.0
230
1.0
 70
     8
 71
     3
 72
     8
 73
     4
 74
     0
 42
0.00000001
 43
0.00000001
 40
0.0
 40
0.0
 40
0.0
 40
0.0
 40
1.0
 40
1.0
 40
1.0
 40
1.0
 10
-33.082562934027777
 20
175.8254435221354
 30
0.0
 10
-33.046044921874994
 20
175.55138617621526
 30
0.0
 10
-32.900661892361107
 20
175.30351155598956
 30
0.0
 10
-32.67896999782986
 20
175.14090304904514
 30
0.0
  0
SPLINE
  5
3AA
100
AcDbEntity
  8
LIVELLO_1
 62
     7
100
AcDbSpline
210
0.0
220
0.0
230
1.0
 70
     8
 71
     3
 72
     8
 73
     4
 74
     0
 42
0.00000001
 43
0.00000001
 40
0.0
 40
0.0
 40
0.0
 40
0.0
 40
1.0
 40
1.0
 40
1.0
 40
1.0
 10
-38.361138237847221
 20
175.14090304904514
 30
0.0
 10
-38.140824381510413
 20
175.30351155598956
 30
0.0
 10
-37.99406331380208
 20
175.55138617621526
 30
0.0
 10
-37.959095594618049
 20
175.8254435221354
 30
0.0
  0
SPLINE
  5
3A9
100
AcDbEntity
  8
LIVELLO_1
 62
     7
100
AcDbSpline
210
0.0
220
0.0
230
1.0
 70
     8
 71
     3
 72
    11
 73
     7
 74
     0
 42
0.00000001
 43
0.00000001
 40
0.0
 40
0.0
 40
0.0
 40
0.0
 40
1.0
 40
1.0
 40
1.0
 40
2.0
 40
2.0
 40
2.0
 40
2.0
 10
-38.606256781684024
 20
172.95964084201387
 30
0.0
 10
-38.953350151909717
 20
172.92518988715275
 30
0.0
 10
-39.203980848524303
 20
172.6166815863715
 30
0.0
 10
-39.170218912760411
 20
172.27372233072916
 30
0.0
 10
-39.137835015190966
 20
171.95143364800344
 30
0.0
 10
-38.8658447265625
 20
171.70648735894096
 30
0.0
 10
-38.544245062934024
 20
171.70648735894096
 30
0.0
  0
SPLINE
  5
3A8
100
AcDbEntity
  8
LIVELLO_1
 62
     7
100
AcDbSpline
210
0.0
220
0.0
230
1.0
 70
     8
 71
     3
 72
    11
 73
     7
 74
     0
 42
0.00000001
 43
0.00000001
 40
0.0
 40
0.0
 40
0.0
 40
0.0
 40
1.0
 40
1.0
 40
1.0
 40
2.0
 40
2.0
 40
2.0
 40
2.0
 10
-33.350419108072913
 20
188.00626763237847
 30
0.0
 10
-33.347663031684021
 20
188.05312093098956
 30
0.0
 10
-33.380046929253467
 20
188.09308403862846
 30
0.0
 10
-33.426727973090273
 20
188.09584011501735
 30
0.0
 10
-33.426727973090273
 20
188.09584011501735
 30
0.0
 10
-33.433618164062494
 20
188.09584011501735
 30
0.0
 10
-33.433618164062494
 20
188.09584011501735
 30
0.0
  0
SPLINE
  5
3A7
100
AcDbEntity
  8
LIVELLO_1
 62
     7
100
AcDbSpline
210
0.0
220
0.0
230
1.0
 70
     8
 71
     3
 72
     8
 73
     4
 74
     0
 42
0.00000001
 43
0.00000001
 40
0.0
 40
0.0
 40
0.0
 40
0.0
 40
1.0
 40
1.0
 40
1.0
 40
1.0
 10
-33.350419108072913
 20
188.00626763237847
 30
0.0
 10
-33.685110134548609
 20
183.94656711154514
 30
0.0
 10
-33.592781575520831
 20
179.86464572482637
 30
0.0
 10
-33.082562934027777
 20
175.8254435221354
 30
0.0
  0
SPLINE
  5
3A6
100
AcDbEntity
  8
LIVELLO_1
 62
     7
100
AcDbSpline
210
0.0
220
0.0
230
1.0
 70
     8
 71
     3
 72
    11
 73
     7
 74
     0
 42
0.00000001
 43
0.00000001
 40
0.0
 40
0.0
 40
0.0
 40
0.0
 40
1.0
 40
1.0
 40
1.0
 40
2.0
 40
2.0
 40
2.0
 40
2.0
 10
-32.497241210937496
 20
171.70648735894096
 30
0.0
 10
-32.150147840711803
 20
171.70648735894096
 30
0.0
 10
-31.868511284722221
 20
171.987262641059
 30
0.0
 10
-31.868511284722221
 20
172.33435601128471
 30
0.0
 10
-31.868511284722221
 20
172.65802273220484
 30
0.0
 10
-32.113629828559027
 20
172.92794596354165
 30
0.0
 10
-32.43385145399305
 20
172.95964084201387
 30
0.0
  0
SPLINE
  5
3A5
100
AcDbEntity
  8
LIVELLO_1
 62
     7
100
AcDbSpline
210
0.0
220
0.0
230
1.0
 70
     8
 71
     3
 72
    11
 73
     7
 74
     0
 42
0.00000001
 43
0.00000001
 40
0.0
 40
0.0
 40
0.0
 40
0.0
 40
1.0
 40
1.0
 40
1.0
 40
2.0
 40
2.0
 40
2.0
 40
2.0
 10
-37.607868109809026
 20
188.09584011501735
 30
0.0
 10
-37.653343370225691
 20
188.09584011501735
 30
0.0
 10
-37.691239420572913
 20
188.06001112196179
 30
0.0
 10
-37.691239420572913
 20
188.01315782335067
 30
0.0
 10
-37.691239420572913
 20
188.01315782335067
 30
0.0
 10
-37.691239420572913
 20
188.00626763237847
 30
0.0
 10
-37.691239420572913
 20
188.00626763237847
 30
0.0
  0
SPLINE
  5
3A4
100
AcDbEntity
  8
LIVELLO_1
 62
     7
100
AcDbSpline
210
0.0
220
0.0
230
1.0
 70
     8
 71
     3
 72
     8
 73
     4
 74
     0
 42
0.00000001
 43
0.00000001
 40
0.0
 40
0.0
 40
0.0
 40
0.0
 40
1.0
 40
1.0
 40
1.0
 40
1.0
 10
-32.508954535590277
 20
173.04215087890623
 30
0.0
 10
-32.508954535590277
 20
172.99943169487847
 30
0.0
 10
-32.475881618923609
 20
172.96515299479165
 30
0.0
 10
-32.43385145399305
 20
172.95964084201387
 30
0.0
  0
SPLINE
  5
3A3
100
AcDbEntity
  8
LIVELLO_1
 62
     7
100
AcDbSpline
210
0.0
220
0.0
230
1.0
 70
     8
 71
     3
 72
     8
 73
     4
 74
     0
 42
0.00000001
 43
0.00000001
 40
0.0
 40
0.0
 40
0.0
 40
0.0
 40
1.0
 40
1.0
 40
1.0
 40
1.0
 10
-38.606256781684024
 20
172.95964084201387
 30
0.0
 10
-38.564226616753466
 20
172.96515299479165
 30
0.0
 10
-38.533220757378466
 20
172.99943169487847
 30
0.0
 10
-38.533220757378466
 20
173.04215087890623
 30
0.0
  0
SPLINE
  5
3A2
100
AcDbEntity
  8
LIVELLO_1
 62
     7
100
AcDbSpline
210
0.0
220
0.0
230
1.0
 70
     8
 71
     3
 72
     8
 73
     4
 74
     0
 42
0.00000001
 43
0.00000001
 40
0.0
 40
0.0
 40
0.0
 40
0.0
 40
1.0
 40
1.0
 40
1.0
 40
1.0
 10
-32.541338433159716
 20
174.87528618706597
 30
0.0
 10
-32.544094509548607
 20
174.97984483506943
 30
0.0
 10
-32.593014865451387
 20
175.07906358506943
 30
0.0
 10
-32.67896999782986
 20
175.14090304904514
 30
0.0
  0
SPLINE
  5
3A1
100
AcDbEntity
  8
LIVELLO_1
 62
     7
100
AcDbSpline
210
0.0
220
0.0
230
1.0
 70
     8
 71
     3
 72
     8
 73
     4
 74
     0
 42
0.00000001
 43
0.00000001
 40
0.0
 40
0.0
 40
0.0
 40
0.0
 40
1.0
 40
1.0
 40
1.0
 40
1.0
 10
-38.361138237847221
 20
175.14090304904514
 30
0.0
 10
-38.448643663194439
 20
175.07906358506943
 30
0.0
 10
-38.497564019097219
 20
174.97984483506943
 30
0.0
 10
-38.501009114583333
 20
174.87528618706597
 30
0.0
  0
SPLINE
  5
3A0
100
AcDbEntity
  8
LIVELLO_1
 62
     7
100
AcDbSpline
210
0.0
220
0.0
230
1.0
 70
     8
 71
     3
 72
     8
 73
     4
 74
     0
 42
0.00000001
 43
0.00000001
 40
0.0
 40
0.0
 40
0.0
 40
0.0
 40
1.0
 40
1.0
 40
1.0
 40
1.0
 10
-33.251889377170137
 20
188.89596354166665
 30
0.0
 10
-33.285651312934021
 20
188.86840277777776
 30
0.0
 10
-33.304254828559024
 20
188.82568359374997
 30
0.0
 10
-33.307010904947916
 20
188.78313666449651
 30
0.0
  0
SPLINE
  5
39F
100
AcDbEntity
  8
LIVELLO_1
 62
     7
100
AcDbSpline
210
0.0
220
0.0
230
1.0
 70
     8
 71
     3
 72
     8
 73
     4
 74
     0
 42
0.00000001
 43
0.00000001
 40
0.0
 40
0.0
 40
0.0
 40
0.0
 40
1.0
 40
1.0
 40
1.0
 40
1.0
 10
-37.733097330729166
 20
188.78313666449651
 30
0.0
 10
-37.736542426215273
 20
188.82568359374997
 30
0.0
 10
-37.757212999131944
 20
188.86840277777776
 30
0.0
 10
-37.786840820312499
 20
188.89596354166665
 30
0.0
  0
SPLINE
  5
39E
100
AcDbEntity
  8
LIVELLO_1
 62
     7
100
AcDbSpline
210
0.0
220
0.0
230
1.0
 70
     8
 71
     3
 72
     8
 73
     4
 74
     0
 42
0.00000001
 43
0.00000001
 40
0.0
 40
0.0
 40
0.0
 40
0.0
 40
1.0
 40
1.0
 40
1.0
 40
1.0
 10
-33.422593858506943
 20
188.09584011501735
 30
0.0
 10
-33.377290852864583
 20
188.09584011501735
 30
0.0
 10
-33.3407728407118
 20
188.13166910807291
 30
0.0
 10
-33.338016764322916
 20
188.17714436848956
 30
0.0
  0
SPLINE
  5
39D
100
AcDbEntity
  8
LIVELLO_1
 62
     7
100
AcDbSpline
210
0.0
220
0.0
230
1.0
 70
     8
 71
     3
 72
    17
 73
    13
 74
     0
 42
0.00000001
 43
0.00000001
 40
0.0
 40
0.0
 40
0.0
 40
0.0
 40
1.0
 40
1.0
 40
1.0
 40
2.0
 40
2.0
 40
2.0
 40
3.0
 40
3.0
 40
3.0
 40
4.0
 40
4.0
 40
4.0
 40
4.0
 10
-33.251889377170137
 20
188.89596354166665
 30
0.0
 10
-31.889870876736108
 20
190.14773898654514
 30
0.0
 10
-31.802537706163193
 20
192.26853976779512
 30
0.0
 10
-33.054313151041661
 20
193.63073052300345
 30
0.0
 10
-34.30677761501736
 20
194.99395480685763
 30
0.0
 10
-36.426200358072911
 20
195.08214925130207
 30
0.0
 10
-37.786840820312499
 20
193.83037380642358
 30
0.0
 10
-39.149548339843747
 20
192.57704806857637
 30
0.0
 10
-39.23843180338541
 20
190.45900336371525
 30
0.0
 10
-37.987173122829859
 20
189.09560682508678
 30
0.0
 10
-37.923955620659719
 20
189.02670491536458
 30
0.0
 10
-37.857809787326389
 20
188.96210937499998
 30
0.0
 10
-37.786840820312499
 20
188.89596354166665
 30
0.0
  0
SPLINE
  5
39C
100
AcDbEntity
  8
LIVELLO_1
 62
     7
100
AcDbSpline
210
0.0
220
0.0
230
1.0
 70
     8
 71
     3
 72
     8
 73
     4
 74
     0
 42
0.00000001
 43
0.00000001
 40
0.0
 40
0.0
 40
0.0
 40
0.0
 40
1.0
 40
1.0
 40
1.0
 40
1.0
 10
-37.702091471354166
 20
188.17714436848956
 30
0.0
 10
-37.700885687934026
 20
188.13166910807291
 30
0.0
 10
-37.662989637586804
 20
188.09584011501735
 30
0.0
 10
-37.6195814344618
 20
188.09584011501735
 30
0.0
  0
SPLINE
  5
39B
100
AcDbEntity
  8
LIVELLO_1
 62
     7
100
AcDbSpline
210
0.0
220
0.0
230
1.0
 70
     8
 71
     3
 72
     8
 73
     4
 74
     0
 42
0.00000001
 43
0.00000001
 40
0.0
 40
0.0
 40
0.0
 40
0.0
 40
1.0
 40
1.0
 40
1.0
 40
1.0
 10
14.035319010416666
 20
179.58094211154511
 30
0.0
 10
13.89562038845486
 20
179.58094211154511
 30
0.0
 10
13.782621256510415
 20
179.46794297960068
 30
0.0
 10
13.782621256510415
 20
179.3289333767361
 30
0.0
  0
SPLINE
  5
39A
100
AcDbEntity
  8
LIVELLO_1
 62
     7
100
AcDbSpline
210
0.0
220
0.0
230
1.0
 70
     8
 71
     3
 72
     8
 73
     4
 74
     0
 42
0.00000001
 43
0.00000001
 40
0.0
 40
0.0
 40
0.0
 40
0.0
 40
1.0
 40
1.0
 40
1.0
 40
1.0
 10
17.971168348524305
 20
179.3289333767361
 30
0.0
 10
17.971168348524305
 20
179.46794297960068
 30
0.0
 10
17.858341471354166
 20
179.58094211154511
 30
0.0
 10
17.7198486328125
 20
179.58094211154511
 30
0.0
  0
SPLINE
  5
399
100
AcDbEntity
  8
LIVELLO_1
 62
     7
100
AcDbSpline
210
0.0
220
0.0
230
1.0
 70
     8
 71
     3
 72
    11
 73
     7
 74
     0
 42
0.00000001
 43
0.00000001
 40
0.0
 40
0.0
 40
0.0
 40
0.0
 40
1.0
 40
1.0
 40
1.0
 40
2.0
 40
2.0
 40
2.0
 40
2.0
 10
-30.820513237847219
 20
128.4018093532986
 30
0.0
 10
-30.820513237847219
 20
127.59341769748262
 30
0.0
 10
-30.163705783420138
 20
126.93661024305554
 30
0.0
 10
-29.355314127604164
 20
126.93661024305554
 30
0.0
 10
-28.544855414496524
 20
126.93661024305554
 30
0.0
 10
-27.88856472439236
 20
127.59341769748262
 30
0.0
 10
-27.88856472439236
 20
128.4018093532986
 30
0.0
  0
SPLINE
  5
398
100
AcDbEntity
  8
LIVELLO_1
 62
     7
100
AcDbSpline
210
0.0
220
0.0
230
1.0
 70
     8
 71
     3
 72
     8
 73
     4
 74
     0
 42
0.00000001
 43
0.00000001
 40
0.0
 40
0.0
 40
0.0
 40
0.0
 40
1.0
 40
1.0
 40
1.0
 40
1.0
 10
-28.427722167968746
 20
168.64224717881942
 30
0.0
 10
-28.337460666232637
 20
168.64500325520831
 30
0.0
 10
-28.265285915798607
 20
168.71924506293402
 30
0.0
 10
-28.265285915798607
 20
168.80881754557291
 30
0.0
  0
SPLINE
  5
397
100
AcDbEntity
  8
LIVELLO_1
 62
     7
100
AcDbSpline
210
0.0
220
0.0
230
1.0
 70
     8
 71
     3
 72
     8
 73
     4
 74
     0
 42
0.00000001
 43
0.00000001
 40
0.0
 40
0.0
 40
0.0
 40
0.0
 40
1.0
 40
1.0
 40
1.0
 40
1.0
 10
-28.265285915798607
 20
170.24938422309026
 30
0.0
 10
-28.265285915798607
 20
170.33878445095485
 30
0.0
 10
-28.337460666232637
 20
170.41319851345486
 30
0.0
 10
-28.427722167968746
 20
170.41457655164928
 30
0.0
  0
SPLINE
  5
396
100
AcDbEntity
  8
LIVELLO_1
 62
     7
100
AcDbSpline
210
0.0
220
0.0
230
1.0
 70
     8
 71
     3
 72
     8
 73
     4
 74
     0
 42
0.00000001
 43
0.00000001
 40
0.0
 40
0.0
 40
0.0
 40
0.0
 40
1.0
 40
1.0
 40
1.0
 40
1.0
 10
-27.169745551215275
 20
168.68634440104165
 30
0.0
 10
-27.080862087673609
 20
168.68910047743054
 30
0.0
 10
-27.007137044270831
 20
168.76196424696178
 30
0.0
 10
-27.007137044270831
 20
168.85291476779511
 30
0.0
  0
SPLINE
  5
395
100
AcDbEntity
  8
LIVELLO_1
 62
     7
100
AcDbSpline
210
0.0
220
0.0
230
1.0
 70
     8
 71
     3
 72
     8
 73
     4
 74
     0
 42
0.00000001
 43
0.00000001
 40
0.0
 40
0.0
 40
0.0
 40
0.0
 40
1.0
 40
1.0
 40
1.0
 40
1.0
 10
-27.007137044270831
 20
170.20528700086803
 30
0.0
 10
-27.007137044270831
 20
170.29485948350694
 30
0.0
 10
-27.080862087673609
 20
170.37047932942707
 30
0.0
 10
-27.169745551215275
 20
170.37323540581596
 30
0.0
  0
SPLINE
  5
394
100
AcDbEntity
  8
LIVELLO_1
 62
     7
100
AcDbSpline
210
0.0
220
0.0
230
1.0
 70
     8
 71
     3
 72
     8
 73
     4
 74
     0
 42
0.00000001
 43
0.00000001
 40
0.0
 40
0.0
 40
0.0
 40
0.0
 40
1.0
 40
1.0
 40
1.0
 40
1.0
 10
-28.427722167968746
 20
153.73445773654512
 30
0.0
 10
-28.337460666232637
 20
153.73721381293402
 30
0.0
 10
-28.265285915798607
 20
153.81024983723958
 30
0.0
 10
-28.265285915798607
 20
153.89982231987847
 30
0.0
  0
SPLINE
  5
393
100
AcDbEntity
  8
LIVELLO_1
 62
     7
100
AcDbSpline
210
0.0
220
0.0
230
1.0
 70
     8
 71
     3
 72
     8
 73
     4
 74
     0
 42
0.00000001
 43
0.00000001
 40
0.0
 40
0.0
 40
0.0
 40
0.0
 40
1.0
 40
1.0
 40
1.0
 40
1.0
 10
-28.265285915798607
 20
155.34021674262152
 30
0.0
 10
-28.265285915798607
 20
155.42841118706596
 30
0.0
 10
-28.337460666232637
 20
155.50282524956594
 30
0.0
 10
-28.427722167968746
 20
155.50695936414928
 30
0.0
  0
SPLINE
  5
392
100
AcDbEntity
  8
LIVELLO_1
 62
     7
100
AcDbSpline
210
0.0
220
0.0
230
1.0
 70
     8
 71
     3
 72
     8
 73
     4
 74
     0
 42
0.00000001
 43
0.00000001
 40
0.0
 40
0.0
 40
0.0
 40
0.0
 40
1.0
 40
1.0
 40
1.0
 40
1.0
 10
-27.169745551215275
 20
153.77717692057291
 30
0.0
 10
-27.080862087673609
 20
153.7799329969618
 30
0.0
 10
-27.007137044270831
 20
153.85434705946179
 30
0.0
 10
-27.007137044270831
 20
153.94391954210067
 30
0.0
  0
SPLINE
  5
391
100
AcDbEntity
  8
LIVELLO_1
 62
     7
100
AcDbSpline
210
0.0
220
0.0
230
1.0
 70
     8
 71
     3
 72
     8
 73
     4
 74
     0
 42
0.00000001
 43
0.00000001
 40
0.0
 40
0.0
 40
0.0
 40
0.0
 40
1.0
 40
1.0
 40
1.0
 40
1.0
 10
-27.007137044270831
 20
155.29629177517359
 30
0.0
 10
-27.007137044270831
 20
155.38707004123262
 30
0.0
 10
-27.080862087673609
 20
155.46010606553818
 30
0.0
 10
-27.169745551215275
 20
155.46424018012152
 30
0.0
  0
SPLINE
  5
390
100
AcDbEntity
  8
LIVELLO_1
 62
     7
100
AcDbSpline
210
0.0
220
0.0
230
1.0
 70
     8
 71
     3
 72
     8
 73
     4
 74
     0
 42
0.00000001
 43
0.00000001
 40
0.0
 40
0.0
 40
0.0
 40
0.0
 40
1.0
 40
1.0
 40
1.0
 40
1.0
 10
-27.007137044270831
 20
162.74941134982637
 30
0.0
 10
-27.007137044270831
 20
162.84156765407985
 30
0.0
 10
-27.080862087673609
 20
162.91598171657984
 30
0.0
 10
-27.169745551215275
 20
162.91873779296873
 30
0.0
  0
SPLINE
  5
38F
100
AcDbEntity
  8
LIVELLO_1
 62
     7
100
AcDbSpline
210
0.0
220
0.0
230
1.0
 70
     8
 71
     3
 72
     8
 73
     4
 74
     0
 42
0.00000001
 43
0.00000001
 40
0.0
 40
0.0
 40
0.0
 40
0.0
 40
1.0
 40
1.0
 40
1.0
 40
1.0
 10
-28.427722167968746
 20
161.18637152777777
 30
0.0
 10
-28.337460666232637
 20
161.1905056423611
 30
0.0
 10
-28.265285915798607
 20
161.26474745008679
 30
0.0
 10
-28.265285915798607
 20
161.35569797092012
 30
0.0
  0
SPLINE
  5
38E
100
AcDbEntity
  8
LIVELLO_1
 62
     7
100
AcDbSpline
210
0.0
220
0.0
230
1.0
 70
     8
 71
     3
 72
     8
 73
     4
 74
     0
 42
0.00000001
 43
0.00000001
 40
0.0
 40
0.0
 40
0.0
 40
0.0
 40
1.0
 40
1.0
 40
1.0
 40
1.0
 10
-27.169745551215275
 20
161.23167453342012
 30
0.0
 10
-27.080862087673609
 20
161.23443060980901
 30
0.0
 10
-27.007137044270831
 20
161.30884467230902
 30
0.0
 10
-27.007137044270831
 20
161.39841715494791
 30
0.0
  0
SPLINE
  5
38D
100
AcDbEntity
  8
LIVELLO_1
 62
     7
100
AcDbSpline
210
0.0
220
0.0
230
1.0
 70
     8
 71
     3
 72
     8
 73
     4
 74
     0
 42
0.00000001
 43
0.00000001
 40
0.0
 40
0.0
 40
0.0
 40
0.0
 40
1.0
 40
1.0
 40
1.0
 40
1.0
 10
-28.265285915798607
 20
162.79488661024305
 30
0.0
 10
-28.265285915798607
 20
162.88428683810761
 30
0.0
 10
-28.337460666232637
 20
162.96007893880207
 30
0.0
 10
-28.427722167968746
 20
162.96283501519096
 30
0.0
  0
LINE
  5
38C
100
AcDbEntity
  8
LIVELLO_1
 62
     7
100
AcDbLine
 10
-32.168751
 20
191.36248
 30
0.0
 11
-38.871357
 21
191.36248
 31
0.0
  0
LINE
  5
38B
100
AcDbEntity
  8
LIVELLO_1
 62
     7
100
AcDbLine
 10
-33.251889
 20
188.895964
 30
0.0
 11
-37.786841
 21
188.895964
 31
0.0
  0
LINE
  5
38A
100
AcDbEntity
  8
LIVELLO_1
 62
     7
100
AcDbLine
 10
-33.307011
 20
188.783137
 30
0.0
 11
-37.733097
 21
188.783137
 31
0.0
  0
LINE
  5
389
100
AcDbEntity
  8
LIVELLO_1
 62
     7
100
AcDbLine
 10
-33.338017
 20
188.177144
 30
0.0
 11
-37.702091
 21
188.177144
 31
0.0
  0
POLYLINE
  5
37D
100
AcDbEntity
  8
LIVELLO_1
 62
     7
100
AcDb2dPolyline
 66
     1
 10
0.0
 20
0.0
 30
0.0
  0
VERTEX
  5
37E
100
AcDbEntity
  8
LIVELLO_1
 62
     7
100
AcDbVertex
100
AcDb2dVertex
 10
-34.503665
 20
-62.038935
 30
0.0
  0
VERTEX
  5
37F
100
AcDbEntity
  8
LIVELLO_1
 62
     7
100
AcDbVertex
100
AcDb2dVertex
 10
-34.450783
 20
-62.409283
 30
0.0
  0
VERTEX
  5
380
100
AcDbEntity
  8
LIVELLO_1
 62
     7
100
AcDbVertex
100
AcDb2dVertex
 10
-34.306778
 20
-62.721925
 30
0.0
  0
VERTEX
  5
381
100
AcDbEntity
  8
LIVELLO_1
 62
     7
100
AcDbVertex
100
AcDb2dVertex
 10
-34.103689
 20
-62.947751
 30
0.0
  0
VERTEX
  5
382
100
AcDbEntity
  8
LIVELLO_1
 62
     7
100
AcDbVertex
100
AcDb2dVertex
 10
-33.876485
 20
-63.080043
 30
0.0
  0
VERTEX
  5
383
100
AcDbEntity
  8
LIVELLO_1
 62
     7
100
AcDbVertex
100
AcDb2dVertex
 10
-33.643769
 20
-63.122762
 30
0.0
  0
VERTEX
  5
384
100
AcDbEntity
  8
LIVELLO_1
 62
     7
100
AcDbVertex
100
AcDb2dVertex
 10
-33.415187
 20
-63.080043
 30
0.0
  0
VERTEX
  5
385
100
AcDbEntity
  8
LIVELLO_1
 62
     7
100
AcDbVertex
100
AcDb2dVertex
 10
-33.203658
 20
-62.947751
 30
0.0
  0
VERTEX
  5
386
100
AcDbEntity
  8
LIVELLO_1
 62
     7
100
AcDbVertex
100
AcDb2dVertex
 10
-33.021929
 20
-62.721925
 30
0.0
  0
VERTEX
  5
387
100
AcDbEntity
  8
LIVELLO_1
 62
     7
100
AcDbVertex
100
AcDb2dVertex
 10
-32.897906
 20
-62.409283
 30
0.0
  0
SEQEND
  5
388
100
AcDbEntity
  8
LIVELLO_1
 62
     7
  0
POLYLINE
  5
370
100
AcDbEntity
  8
LIVELLO_1
 62
     7
100
AcDb2dPolyline
 66
     1
 10
0.0
 20
0.0
 30
0.0
  0
VERTEX
  5
371
100
AcDbEntity
  8
LIVELLO_1
 62
     7
100
AcDbVertex
100
AcDb2dVertex
 10
-33.494252
 20
87.266336
 30
0.0
  0
VERTEX
  5
372
100
AcDbEntity
  8
LIVELLO_1
 62
     7
100
AcDbVertex
100
AcDb2dVertex
 10
-33.526636
 20
86.978498
 30
0.0
  0
VERTEX
  5
373
100
AcDbEntity
  8
LIVELLO_1
 62
     7
100
AcDbVertex
100
AcDb2dVertex
 10
-33.621031
 20
86.736136
 30
0.0
  0
VERTEX
  5
374
100
AcDbEntity
  8
LIVELLO_1
 62
     7
100
AcDbVertex
100
AcDb2dVertex
 10
-33.757974
 20
86.553029
 30
0.0
  0
VERTEX
  5
375
100
AcDbEntity
  8
LIVELLO_1
 62
     7
100
AcDbVertex
100
AcDb2dVertex
 10
-33.935741
 20
86.434517
 30
0.0
  0
VERTEX
  5
376
100
AcDbEntity
  8
LIVELLO_1
 62
     7
100
AcDbVertex
100
AcDb2dVertex
 10
-34.134695
 20
86.393176
 30
0.0
  0
VERTEX
  5
377
100
AcDbEntity
  8
LIVELLO_1
 62
     7
100
AcDbVertex
100
AcDb2dVertex
 10
-34.34054
 20
86.427627
 30
0.0
  0
VERTEX
  5
378
100
AcDbEntity
  8
LIVELLO_1
 62
     7
100
AcDbVertex
100
AcDb2dVertex
 10
-34.536738
 20
86.542004
 30
0.0
  0
VERTEX
  5
379
100
AcDbEntity
  8
LIVELLO_1
 62
     7
100
AcDbVertex
100
AcDb2dVertex
 10
-34.700035
 20
86.732001
 30
0.0
  0
VERTEX
  5
37A
100
AcDbEntity
  8
LIVELLO_1
 62
     7
100
AcDbVertex
100
AcDb2dVertex
 10
-34.81424
 20
86.978498
 30
0.0
  0
VERTEX
  5
37B
100
AcDbEntity
  8
LIVELLO_1
 62
     7
100
AcDbVertex
100
AcDb2dVertex
 10
-34.854892
 20
87.266336
 30
0.0
  0
SEQEND
  5
37C
100
AcDbEntity
  8
LIVELLO_1
 62
     7
  0
POLYLINE
  5
36B
100
AcDbEntity
  8
LIVELLO_1
 62
     7
100
AcDb2dPolyline
 66
     1
 10
0.0
 20
0.0
 30
0.0
  0
VERTEX
  5
36C
100
AcDbEntity
  8
LIVELLO_1
 62
     7
100
AcDbVertex
100
AcDb2dVertex
 10
-33.015039
 20
143.668922
 30
0.0
  0
VERTEX
  5
36D
100
AcDbEntity
  8
LIVELLO_1
 62
     7
100
AcDbVertex
100
AcDb2dVertex
 10
-32.993679
 20
143.954004
 30
0.0
  0
VERTEX
  5
36E
100
AcDbEntity
  8
LIVELLO_1
 62
     7
100
AcDbVertex
100
AcDb2dVertex
 10
-32.957161
 20
144.131599
 30
0.0
  0
SEQEND
  5
36F
100
AcDbEntity
  8
LIVELLO_1
 62
     7
  0
POLYLINE
  5
362
100
AcDbEntity
  8
LIVELLO_1
 62
     7
100
AcDb2dPolyline
 66
     1
 10
0.0
 20
0.0
 30
0.0
  0
VERTEX
  5
363
100
AcDbEntity
  8
LIVELLO_1
 62
     7
100
AcDbVertex
100
AcDb2dVertex
 10
-32.491729
 20
70.675789
 30
0.0
  0
VERTEX
  5
364
100
AcDbEntity
  8
LIVELLO_1
 62
     7
100
AcDbVertex
100
AcDb2dVertex
 10
-32.471748
 20
70.991188
 30
0.0
  0
VERTEX
  5
365
100
AcDbEntity
  8
LIVELLO_1
 62
     7
100
AcDbVertex
100
AcDb2dVertex
 10
-32.418693
 20
71.262489
 30
0.0
  0
VERTEX
  5
366
100
AcDbEntity
  8
LIVELLO_1
 62
     7
100
AcDbVertex
100
AcDb2dVertex
 10
-32.342384
 20
71.481425
 30
0.0
  0
VERTEX
  5
367
100
AcDbEntity
  8
LIVELLO_1
 62
     7
100
AcDbVertex
100
AcDb2dVertex
 10
-32.252123
 20
71.639899
 30
0.0
  0
VERTEX
  5
368
100
AcDbEntity
  8
LIVELLO_1
 62
     7
100
AcDbVertex
100
AcDb2dVertex
 10
-32.164617
 20
71.732056
 30
0.0
  0
VERTEX
  5
369
100
AcDbEntity
  8
LIVELLO_1
 62
     7
100
AcDbVertex
100
AcDb2dVertex
 10
-32.082624
 20
71.763751
 30
0.0
  0
SEQEND
  5
36A
100
AcDbEntity
  8
LIVELLO_1
 62
     7
  0
POLYLINE
  5
35A
100
AcDbEntity
  8
LIVELLO_1
 62
     7
100
AcDb2dPolyline
 66
     1
 10
0.0
 20
0.0
 30
0.0
  0
VERTEX
  5
35B
100
AcDbEntity
  8
LIVELLO_1
 62
     7
100
AcDbVertex
100
AcDb2dVertex
 10
-45.117487
 20
-170.28573
 30
0.0
  0
VERTEX
  5
35C
100
AcDbEntity
  8
LIVELLO_1
 62
     7
100
AcDbVertex
100
AcDb2dVertex
 10
-45.085103
 20
-169.284585
 30
0.0
  0
VERTEX
  5
35D
100
AcDbEntity
  8
LIVELLO_1
 62
     7
100
AcDbVertex
100
AcDb2dVertex
 10
-44.988641
 20
-168.282062
 30
0.0
  0
VERTEX
  5
35E
100
AcDbEntity
  8
LIVELLO_1
 62
     7
100
AcDbVertex
100
AcDb2dVertex
 10
-44.828271
 20
-167.325015
 30
0.0
  0
VERTEX
  5
35F
100
AcDbEntity
  8
LIVELLO_1
 62
     7
100
AcDbVertex
100
AcDb2dVertex
 10
-44.605202
 20
-166.429635
 30
0.0
  0
VERTEX
  5
360
100
AcDbEntity
  8
LIVELLO_1
 62
     7
100
AcDbVertex
100
AcDb2dVertex
 10
-44.327699
 20
-165.628305
 30
0.0
  0
SEQEND
  5
361
100
AcDbEntity
  8
LIVELLO_1
 62
     7
  0
POLYLINE
  5
34E
100
AcDbEntity
  8
LIVELLO_1
 62
     7
100
AcDb2dPolyline
 66
     1
 10
0.0
 20
0.0
 30
0.0
  0
VERTEX
  5
34F
100
AcDbEntity
  8
LIVELLO_1
 62
     7
100
AcDbVertex
100
AcDb2dVertex
 10
-38.566983
 20
143.668922
 30
0.0
  0
VERTEX
  5
350
100
AcDbEntity
  8
LIVELLO_1
 62
     7
100
AcDbVertex
100
AcDb2dVertex
 10
-38.560093
 20
143.95676
 30
0.0
  0
VERTEX
  5
351
100
AcDbEntity
  8
LIVELLO_1
 62
     7
100
AcDbVertex
100
AcDb2dVertex
 10
-38.535977
 20
144.199122
 30
0.0
  0
VERTEX
  5
352
100
AcDbEntity
  8
LIVELLO_1
 62
     7
100
AcDbVertex
100
AcDb2dVertex
 10
-38.497564
 20
144.382402
 30
0.0
  0
VERTEX
  5
353
100
AcDbEntity
  8
LIVELLO_1
 62
     7
100
AcDbVertex
100
AcDb2dVertex
 10
-38.443132
 20
144.500741
 30
0.0
  0
VERTEX
  5
354
100
AcDbEntity
  8
LIVELLO_1
 62
     7
100
AcDbVertex
100
AcDb2dVertex
 10
-38.368028
 20
144.54346
 30
0.0
  0
VERTEX
  5
355
100
AcDbEntity
  8
LIVELLO_1
 62
     7
100
AcDbVertex
100
AcDb2dVertex
 10
-38.279145
 20
144.509009
 30
0.0
  0
VERTEX
  5
356
100
AcDbEntity
  8
LIVELLO_1
 62
     7
100
AcDbVertex
100
AcDb2dVertex
 10
-38.187678
 20
144.39756
 30
0.0
  0
VERTEX
  5
357
100
AcDbEntity
  8
LIVELLO_1
 62
     7
100
AcDbVertex
100
AcDb2dVertex
 10
-38.10155
 20
144.211525
 30
0.0
  0
VERTEX
  5
358
100
AcDbEntity
  8
LIVELLO_1
 62
     7
100
AcDbVertex
100
AcDb2dVertex
 10
-38.078813
 20
144.134355
 30
0.0
  0
SEQEND
  5
359
100
AcDbEntity
  8
LIVELLO_1
 62
     7
  0
POLYLINE
  5
349
100
AcDbEntity
  8
LIVELLO_1
 62
     7
100
AcDb2dPolyline
 66
     1
 10
0.0
 20
0.0
 30
0.0
  0
VERTEX
  5
34A
100
AcDbEntity
  8
LIVELLO_1
 62
     7
100
AcDbVertex
100
AcDb2dVertex
 10
-44.860655
 20
-185.218152
 30
0.0
  0
VERTEX
  5
34B
100
AcDbEntity
  8
LIVELLO_1
 62
     7
100
AcDbVertex
100
AcDb2dVertex
 10
-44.78004
 20
-180.340241
 30
0.0
  0
VERTEX
  5
34C
100
AcDbEntity
  8
LIVELLO_1
 62
     7
100
AcDbVertex
100
AcDb2dVertex
 10
-44.621049
 20
-170.526887
 30
0.0
  0
SEQEND
  5
34D
100
AcDbEntity
  8
LIVELLO_1
 62
     7
  0
POLYLINE
  5
33C
100
AcDbEntity
  8
LIVELLO_1
 62
     7
100
AcDb2dPolyline
 66
     1
 10
0.0
 20
0.0
 30
0.0
  0
VERTEX
  5
33D
100
AcDbEntity
  8
LIVELLO_1
 62
     7
100
AcDbVertex
100
AcDb2dVertex
 10
-39.676992
 20
12.615078
 30
0.0
  0
VERTEX
  5
33E
100
AcDbEntity
  8
LIVELLO_1
 62
     7
100
AcDbVertex
100
AcDb2dVertex
 10
-39.669413
 20
12.23784
 30
0.0
  0
VERTEX
  5
33F
100
AcDbEntity
  8
LIVELLO_1
 62
     7
100
AcDbVertex
100
AcDb2dVertex
 10
-39.641163
 20
11.92382
 30
0.0
  0
VERTEX
  5
340
100
AcDbEntity
  8
LIVELLO_1
 62
     7
100
AcDbVertex
100
AcDb2dVertex
 10
-39.592243
 20
11.70075
 30
0.0
  0
VERTEX
  5
341
100
AcDbEntity
  8
LIVELLO_1
 62
     7
100
AcDbVertex
100
AcDb2dVertex
 10
-39.521446
 20
11.571214
 30
0.0
  0
VERTEX
  5
342
100
AcDbEntity
  8
LIVELLO_1
 62
     7
100
AcDbVertex
100
AcDb2dVertex
 10
-39.436697
 20
11.528495
 30
0.0
  0
VERTEX
  5
343
100
AcDbEntity
  8
LIVELLO_1
 62
     7
100
AcDbVertex
100
AcDb2dVertex
 10
-39.336789
 20
11.571214
 30
0.0
  0
VERTEX
  5
344
100
AcDbEntity
  8
LIVELLO_1
 62
     7
100
AcDbVertex
100
AcDb2dVertex
 10
-39.229475
 20
11.70075
 30
0.0
  0
VERTEX
  5
345
100
AcDbEntity
  8
LIVELLO_1
 62
     7
100
AcDbVertex
100
AcDb2dVertex
 10
-39.125433
 20
11.92382
 30
0.0
  0
VERTEX
  5
346
100
AcDbEntity
  8
LIVELLO_1
 62
     7
100
AcDbVertex
100
AcDb2dVertex
 10
-39.043439
 20
12.23784
 30
0.0
  0
VERTEX
  5
347
100
AcDbEntity
  8
LIVELLO_1
 62
     7
100
AcDbVertex
100
AcDb2dVertex
 10
-39.00985
 20
12.615078
 30
0.0
  0
SEQEND
  5
348
100
AcDbEntity
  8
LIVELLO_1
 62
     7
  0
POLYLINE
  5
32F
100
AcDbEntity
  8
LIVELLO_1
 62
     7
100
AcDb2dPolyline
 66
     1
 10
0.0
 20
0.0
 30
0.0
  0
VERTEX
  5
330
100
AcDbEntity
  8
LIVELLO_1
 62
     7
100
AcDbVertex
100
AcDb2dVertex
 10
-40.296076
 20
-62.038935
 30
0.0
  0
VERTEX
  5
331
100
AcDbEntity
  8
LIVELLO_1
 62
     7
100
AcDbVertex
100
AcDb2dVertex
 10
-40.287119
 20
-62.409283
 30
0.0
  0
VERTEX
  5
332
100
AcDbEntity
  8
LIVELLO_1
 62
     7
100
AcDbVertex
100
AcDb2dVertex
 10
-40.257491
 20
-62.721925
 30
0.0
  0
VERTEX
  5
333
100
AcDbEntity
  8
LIVELLO_1
 62
     7
100
AcDbVertex
100
AcDb2dVertex
 10
-40.200991
 20
-62.947751
 30
0.0
  0
VERTEX
  5
334
100
AcDbEntity
  8
LIVELLO_1
 62
     7
100
AcDbVertex
100
AcDb2dVertex
 10
-40.127955
 20
-63.080043
 30
0.0
  0
VERTEX
  5
335
100
AcDbEntity
  8
LIVELLO_1
 62
     7
100
AcDbVertex
100
AcDb2dVertex
 10
-40.039244
 20
-63.122762
 30
0.0
  0
VERTEX
  5
336
100
AcDbEntity
  8
LIVELLO_1
 62
     7
100
AcDbVertex
100
AcDb2dVertex
 10
-39.935891
 20
-63.080043
 30
0.0
  0
VERTEX
  5
337
100
AcDbEntity
  8
LIVELLO_1
 62
     7
100
AcDbVertex
100
AcDb2dVertex
 10
-39.827888
 20
-62.947751
 30
0.0
  0
VERTEX
  5
338
100
AcDbEntity
  8
LIVELLO_1
 62
     7
100
AcDbVertex
100
AcDb2dVertex
 10
-39.723157
 20
-62.721925
 30
0.0
  0
VERTEX
  5
339
100
AcDbEntity
  8
LIVELLO_1
 62
     7
100
AcDbVertex
100
AcDb2dVertex
 10
-39.642542
 20
-62.409283
 30
0.0
  0
VERTEX
  5
33A
100
AcDbEntity
  8
LIVELLO_1
 62
     7
100
AcDbVertex
100
AcDb2dVertex
 10
-39.610158
 20
-62.038935
 30
0.0
  0
SEQEND
  5
33B
100
AcDbEntity
  8
LIVELLO_1
 62
     7
  0
POLYLINE
  5
322
100
AcDbEntity
  8
LIVELLO_1
 62
     7
100
AcDb2dPolyline
 66
     1
 10
0.0
 20
0.0
 30
0.0
  0
VERTEX
  5
323
100
AcDbEntity
  8
LIVELLO_1
 62
     7
100
AcDbVertex
100
AcDb2dVertex
 10
-39.143347
 20
-3.976846
 30
0.0
  0
VERTEX
  5
324
100
AcDbEntity
  8
LIVELLO_1
 62
     7
100
AcDbVertex
100
AcDb2dVertex
 10
-39.171597
 20
-3.599436
 30
0.0
  0
VERTEX
  5
325
100
AcDbEntity
  8
LIVELLO_1
 62
     7
100
AcDbVertex
100
AcDb2dVertex
 10
-39.2467
 20
-3.285415
 30
0.0
  0
VERTEX
  5
326
100
AcDbEntity
  8
LIVELLO_1
 62
     7
100
AcDbVertex
100
AcDb2dVertex
 10
-39.347814
 20
-3.060967
 30
0.0
  0
VERTEX
  5
327
100
AcDbEntity
  8
LIVELLO_1
 62
     7
100
AcDbVertex
100
AcDb2dVertex
 10
-39.453923
 20
-2.931604
 30
0.0
  0
VERTEX
  5
328
100
AcDbEntity
  8
LIVELLO_1
 62
     7
100
AcDbVertex
100
AcDb2dVertex
 10
-39.552452
 20
-2.891641
 30
0.0
  0
VERTEX
  5
329
100
AcDbEntity
  8
LIVELLO_1
 62
     7
100
AcDbVertex
100
AcDb2dVertex
 10
-39.639785
 20
-2.931604
 30
0.0
  0
VERTEX
  5
32A
100
AcDbEntity
  8
LIVELLO_1
 62
     7
100
AcDbVertex
100
AcDb2dVertex
 10
-39.712132
 20
-3.060967
 30
0.0
  0
VERTEX
  5
32B
100
AcDbEntity
  8
LIVELLO_1
 62
     7
100
AcDbVertex
100
AcDb2dVertex
 10
-39.768632
 20
-3.285415
 30
0.0
  0
VERTEX
  5
32C
100
AcDbEntity
  8
LIVELLO_1
 62
     7
100
AcDbVertex
100
AcDb2dVertex
 10
-39.801016
 20
-3.599436
 30
0.0
  0
VERTEX
  5
32D
100
AcDbEntity
  8
LIVELLO_1
 62
     7
100
AcDbVertex
100
AcDb2dVertex
 10
-39.814796
 20
-3.976846
 30
0.0
  0
SEQEND
  5
32E
100
AcDbEntity
  8
LIVELLO_1
 62
     7
  0
POLYLINE
  5
31C
100
AcDbEntity
  8
LIVELLO_1
 62
     7
100
AcDb2dPolyline
 66
     1
 10
0.0
 20
0.0
 30
0.0
  0
VERTEX
  5
31D
100
AcDbEntity
  8
LIVELLO_1
 62
     7
100
AcDbVertex
100
AcDb2dVertex
 10
-27.276371
 20
-157.581596
 30
0.0
  0
VERTEX
  5
31E
100
AcDbEntity
  8
LIVELLO_1
 62
     7
100
AcDbVertex
100
AcDb2dVertex
 10
-27.288085
 20
-157.50167
 30
0.0
  0
VERTEX
  5
31F
100
AcDbEntity
  8
LIVELLO_1
 62
     7
100
AcDbVertex
100
AcDb2dVertex
 10
-27.313578
 20
-157.446548
 30
0.0
  0
VERTEX
  5
320
100
AcDbEntity
  8
LIVELLO_1
 62
     7
100
AcDbVertex
100
AcDb2dVertex
 10
-27.345962
 20
-157.428634
 30
0.0
  0
SEQEND
  5
321
100
AcDbEntity
  8
LIVELLO_1
 62
     7
  0
POLYLINE
  5
30F
100
AcDbEntity
  8
LIVELLO_1
 62
     7
100
AcDb2dPolyline
 66
     1
 10
0.0
 20
0.0
 30
0.0
  0
VERTEX
  5
310
100
AcDbEntity
  8
LIVELLO_1
 62
     7
100
AcDbVertex
100
AcDb2dVertex
 10
-36.177637
 20
87.266336
 30
0.0
  0
VERTEX
  5
311
100
AcDbEntity
  8
LIVELLO_1
 62
     7
100
AcDbVertex
100
AcDb2dVertex
 10
-36.220356
 20
86.978498
 30
0.0
  0
VERTEX
  5
312
100
AcDbEntity
  8
LIVELLO_1
 62
     7
100
AcDbVertex
100
AcDb2dVertex
 10
-36.329221
 20
86.736136
 30
0.0
  0
VERTEX
  5
313
100
AcDbEntity
  8
LIVELLO_1
 62
     7
100
AcDbVertex
100
AcDb2dVertex
 10
-36.485456
 20
86.553029
 30
0.0
  0
VERTEX
  5
314
100
AcDbEntity
  8
LIVELLO_1
 62
     7
100
AcDbVertex
100
AcDb2dVertex
 10
-36.683032
 20
86.433139
 30
0.0
  0
VERTEX
  5
315
100
AcDbEntity
  8
LIVELLO_1
 62
     7
100
AcDbVertex
100
AcDb2dVertex
 10
-36.887671
 20
86.393176
 30
0.0
  0
VERTEX
  5
316
100
AcDbEntity
  8
LIVELLO_1
 62
     7
100
AcDbVertex
100
AcDb2dVertex
 10
-37.085936
 20
86.429005
 30
0.0
  0
VERTEX
  5
317
100
AcDbEntity
  8
LIVELLO_1
 62
     7
100
AcDbVertex
100
AcDb2dVertex
 10
-37.263531
 20
86.542004
 30
0.0
  0
VERTEX
  5
318
100
AcDbEntity
  8
LIVELLO_1
 62
     7
100
AcDbVertex
100
AcDb2dVertex
 10
-37.408914
 20
86.727867
 30
0.0
  0
VERTEX
  5
319
100
AcDbEntity
  8
LIVELLO_1
 62
     7
100
AcDbVertex
100
AcDb2dVertex
 10
-37.505204
 20
86.978498
 30
0.0
  0
VERTEX
  5
31A
100
AcDbEntity
  8
LIVELLO_1
 62
     7
100
AcDbVertex
100
AcDb2dVertex
 10
-37.538966
 20
87.266336
 30
0.0
  0
SEQEND
  5
31B
100
AcDbEntity
  8
LIVELLO_1
 62
     7
  0
POLYLINE
  5
302
100
AcDbEntity
  8
LIVELLO_1
 62
     7
100
AcDb2dPolyline
 66
     1
 10
0.0
 20
0.0
 30
0.0
  0
VERTEX
  5
303
100
AcDbEntity
  8
LIVELLO_1
 62
     7
100
AcDbVertex
100
AcDb2dVertex
 10
-35.031109
 20
143.668922
 30
0.0
  0
VERTEX
  5
304
100
AcDbEntity
  8
LIVELLO_1
 62
     7
100
AcDbVertex
100
AcDb2dVertex
 10
-34.990629
 20
143.960894
 30
0.0
  0
VERTEX
  5
305
100
AcDbEntity
  8
LIVELLO_1
 62
     7
100
AcDbVertex
100
AcDb2dVertex
 10
-34.880386
 20
144.210147
 30
0.0
  0
VERTEX
  5
306
100
AcDbEntity
  8
LIVELLO_1
 62
     7
100
AcDbVertex
100
AcDb2dVertex
 10
-34.721395
 20
144.396182
 30
0.0
  0
VERTEX
  5
307
100
AcDbEntity
  8
LIVELLO_1
 62
     7
100
AcDbVertex
100
AcDb2dVertex
 10
-34.536738
 20
144.507631
 30
0.0
  0
VERTEX
  5
308
100
AcDbEntity
  8
LIVELLO_1
 62
     7
100
AcDbVertex
100
AcDb2dVertex
 10
-34.343296
 20
144.54346
 30
0.0
  0
VERTEX
  5
309
100
AcDbEntity
  8
LIVELLO_1
 62
     7
100
AcDbVertex
100
AcDb2dVertex
 10
-34.156055
 20
144.510387
 30
0.0
  0
VERTEX
  5
30A
100
AcDbEntity
  8
LIVELLO_1
 62
     7
100
AcDbVertex
100
AcDb2dVertex
 10
-33.982422
 20
144.401694
 30
0.0
  0
VERTEX
  5
30B
100
AcDbEntity
  8
LIVELLO_1
 62
     7
100
AcDbVertex
100
AcDb2dVertex
 10
-33.835833
 20
144.215659
 30
0.0
  0
VERTEX
  5
30C
100
AcDbEntity
  8
LIVELLO_1
 62
     7
100
AcDbVertex
100
AcDb2dVertex
 10
-33.737992
 20
143.962272
 30
0.0
  0
VERTEX
  5
30D
100
AcDbEntity
  8
LIVELLO_1
 62
     7
100
AcDbVertex
100
AcDb2dVertex
 10
-33.701474
 20
143.668922
 30
0.0
  0
SEQEND
  5
30E
100
AcDbEntity
  8
LIVELLO_1
 62
     7
  0
POLYLINE
  5
2F5
100
AcDbEntity
  8
LIVELLO_1
 62
     7
100
AcDb2dPolyline
 66
     1
 10
0.0
 20
0.0
 30
0.0
  0
VERTEX
  5
2F6
100
AcDbEntity
  8
LIVELLO_1
 62
     7
100
AcDbVertex
100
AcDb2dVertex
 10
-37.330366
 20
143.668922
 30
0.0
  0
VERTEX
  5
2F7
100
AcDbEntity
  8
LIVELLO_1
 62
     7
100
AcDbVertex
100
AcDb2dVertex
 10
-37.296604
 20
143.95676
 30
0.0
  0
VERTEX
  5
2F8
100
AcDbEntity
  8
LIVELLO_1
 62
     7
100
AcDbVertex
100
AcDb2dVertex
 10
-37.205653
 20
144.199122
 30
0.0
  0
VERTEX
  5
2F9
100
AcDbEntity
  8
LIVELLO_1
 62
     7
100
AcDbVertex
100
AcDb2dVertex
 10
-37.070778
 20
144.38378
 30
0.0
  0
VERTEX
  5
2FA
100
AcDbEntity
  8
LIVELLO_1
 62
     7
100
AcDbVertex
100
AcDb2dVertex
 10
-36.893183
 20
144.504875
 30
0.0
  0
VERTEX
  5
2FB
100
AcDbEntity
  8
LIVELLO_1
 62
     7
100
AcDbVertex
100
AcDb2dVertex
 10
-36.699569
 20
144.54346
 30
0.0
  0
VERTEX
  5
2FC
100
AcDbEntity
  8
LIVELLO_1
 62
     7
100
AcDbVertex
100
AcDb2dVertex
 10
-36.502681
 20
144.507631
 30
0.0
  0
VERTEX
  5
2FD
100
AcDbEntity
  8
LIVELLO_1
 62
     7
100
AcDbVertex
100
AcDb2dVertex
 10
-36.314752
 20
144.39756
 30
0.0
  0
VERTEX
  5
2FE
100
AcDbEntity
  8
LIVELLO_1
 62
     7
100
AcDbVertex
100
AcDb2dVertex
 10
-36.155588
 20
144.211525
 30
0.0
  0
VERTEX
  5
2FF
100
AcDbEntity
  8
LIVELLO_1
 62
     7
100
AcDbVertex
100
AcDb2dVertex
 10
-36.042761
 20
143.960894
 30
0.0
  0
VERTEX
  5
300
100
AcDbEntity
  8
LIVELLO_1
 62
     7
100
AcDbVertex
100
AcDb2dVertex
 10
-36.003487
 20
143.668922
 30
0.0
  0
SEQEND
  5
301
100
AcDbEntity
  8
LIVELLO_1
 62
     7
  0
POLYLINE
  5
2F0
100
AcDbEntity
  8
LIVELLO_1
 62
     7
100
AcDb2dPolyline
 66
     1
 10
0.0
 20
0.0
 30
0.0
  0
VERTEX
  5
2F1
100
AcDbEntity
  8
LIVELLO_1
 62
     7
100
AcDbVertex
100
AcDb2dVertex
 10
-38.472759
 20
87.266336
 30
0.0
  0
VERTEX
  5
2F2
100
AcDbEntity
  8
LIVELLO_1
 62
     7
100
AcDbVertex
100
AcDb2dVertex
 10
-38.497564
 20
86.981254
 30
0.0
  0
VERTEX
  5
2F3
100
AcDbEntity
  8
LIVELLO_1
 62
     7
100
AcDbVertex
100
AcDb2dVertex
 10
-38.551135
 20
86.763696
 30
0.0
  0
SEQEND
  5
2F4
100
AcDbEntity
  8
LIVELLO_1
 62
     7
  0
POLYLINE
  5
2E8
100
AcDbEntity
  8
LIVELLO_1
 62
     7
100
AcDb2dPolyline
 66
     1
 10
0.0
 20
0.0
 30
0.0
  0
VERTEX
  5
2E9
100
AcDbEntity
  8
LIVELLO_1
 62
     7
100
AcDbVertex
100
AcDb2dVertex
 10
-44.621049
 20
-170.526887
 30
0.0
  0
VERTEX
  5
2EA
100
AcDbEntity
  8
LIVELLO_1
 62
     7
100
AcDbVertex
100
AcDb2dVertex
 10
-44.630695
 20
-170.455229
 30
0.0
  0
VERTEX
  5
2EB
100
AcDbEntity
  8
LIVELLO_1
 62
     7
100
AcDbVertex
100
AcDb2dVertex
 10
-44.664285
 20
-170.387705
 30
0.0
  0
VERTEX
  5
2EC
100
AcDbEntity
  8
LIVELLO_1
 62
     7
100
AcDbVertex
100
AcDb2dVertex
 10
-44.71665
 20
-170.333961
 30
0.0
  0
VERTEX
  5
2ED
100
AcDbEntity
  8
LIVELLO_1
 62
     7
100
AcDbVertex
100
AcDb2dVertex
 10
-44.785552
 20
-170.298132
 30
0.0
  0
VERTEX
  5
2EE
100
AcDbEntity
  8
LIVELLO_1
 62
     7
100
AcDbVertex
100
AcDb2dVertex
 10
-44.870302
 20
-170.28573
 30
0.0
  0
SEQEND
  5
2EF
100
AcDbEntity
  8
LIVELLO_1
 62
     7
  0
POLYLINE
  5
2E1
100
AcDbEntity
  8
LIVELLO_1
 62
     7
100
AcDb2dPolyline
 66
     1
 10
0.0
 20
0.0
 30
0.0
  0
VERTEX
  5
2E2
100
AcDbEntity
  8
LIVELLO_1
 62
     7
100
AcDbVertex
100
AcDb2dVertex
 10
-26.722917
 20
-164.478333
 30
0.0
  0
VERTEX
  5
2E3
100
AcDbEntity
  8
LIVELLO_1
 62
     7
100
AcDbVertex
100
AcDb2dVertex
 10
-26.923938
 20
-163.551602
 30
0.0
  0
VERTEX
  5
2E4
100
AcDbEntity
  8
LIVELLO_1
 62
     7
100
AcDbVertex
100
AcDb2dVertex
 10
-27.07535
 20
-162.584564
 30
0.0
  0
VERTEX
  5
2E5
100
AcDbEntity
  8
LIVELLO_1
 62
     7
100
AcDbVertex
100
AcDb2dVertex
 10
-27.172502
 20
-161.586175
 30
0.0
  0
VERTEX
  5
2E6
100
AcDbEntity
  8
LIVELLO_1
 62
     7
100
AcDbVertex
100
AcDb2dVertex
 10
-27.210398
 20
-160.737992
 30
0.0
  0
SEQEND
  5
2E7
100
AcDbEntity
  8
LIVELLO_1
 62
     7
  0
POLYLINE
  5
2D9
100
AcDbEntity
  8
LIVELLO_1
 62
     7
100
AcDb2dPolyline
 66
     1
 10
0.0
 20
0.0
 30
0.0
  0
VERTEX
  5
2DA
100
AcDbEntity
  8
LIVELLO_1
 62
     7
100
AcDbVertex
100
AcDb2dVertex
 10
-25.243076
 20
-170.526887
 30
0.0
  0
VERTEX
  5
2DB
100
AcDbEntity
  8
LIVELLO_1
 62
     7
100
AcDbVertex
100
AcDb2dVertex
 10
-25.257545
 20
-170.455229
 30
0.0
  0
VERTEX
  5
2DC
100
AcDbEntity
  8
LIVELLO_1
 62
     7
100
AcDbVertex
100
AcDb2dVertex
 10
-25.305088
 20
-170.387705
 30
0.0
  0
VERTEX
  5
2DD
100
AcDbEntity
  8
LIVELLO_1
 62
     7
100
AcDbVertex
100
AcDb2dVertex
 10
-25.378813
 20
-170.335339
 30
0.0
  0
VERTEX
  5
2DE
100
AcDbEntity
  8
LIVELLO_1
 62
     7
100
AcDbVertex
100
AcDb2dVertex
 10
-25.473036
 20
-170.298132
 30
0.0
  0
VERTEX
  5
2DF
100
AcDbEntity
  8
LIVELLO_1
 62
     7
100
AcDbVertex
100
AcDb2dVertex
 10
-25.586035
 20
-170.28573
 30
0.0
  0
SEQEND
  5
2E0
100
AcDbEntity
  8
LIVELLO_1
 62
     7
  0
POLYLINE
  5
2CD
100
AcDbEntity
  8
LIVELLO_1
 62
     7
100
AcDb2dPolyline
 66
     1
 10
0.0
 20
0.0
 30
0.0
  0
VERTEX
  5
2CE
100
AcDbEntity
  8
LIVELLO_1
 62
     7
100
AcDbVertex
100
AcDb2dVertex
 10
-38.551135
 20
86.763696
 30
0.0
  0
VERTEX
  5
2CF
100
AcDbEntity
  8
LIVELLO_1
 62
     7
100
AcDbVertex
100
AcDb2dVertex
 10
-38.560093
 20
86.737514
 30
0.0
  0
VERTEX
  5
2D0
100
AcDbEntity
  8
LIVELLO_1
 62
     7
100
AcDbVertex
100
AcDb2dVertex
 10
-38.642775
 20
86.553029
 30
0.0
  0
VERTEX
  5
2D1
100
AcDbEntity
  8
LIVELLO_1
 62
     7
100
AcDbVertex
100
AcDb2dVertex
 10
-38.740616
 20
86.433139
 30
0.0
  0
VERTEX
  5
2D2
100
AcDbEntity
  8
LIVELLO_1
 62
     7
100
AcDbVertex
100
AcDb2dVertex
 10
-38.834839
 20
86.393176
 30
0.0
  0
VERTEX
  5
2D3
100
AcDbEntity
  8
LIVELLO_1
 62
     7
100
AcDbVertex
100
AcDb2dVertex
 10
-38.910631
 20
86.433139
 30
0.0
  0
VERTEX
  5
2D4
100
AcDbEntity
  8
LIVELLO_1
 62
     7
100
AcDbVertex
100
AcDb2dVertex
 10
-38.968509
 20
86.54476
 30
0.0
  0
VERTEX
  5
2D5
100
AcDbEntity
  8
LIVELLO_1
 62
     7
100
AcDbVertex
100
AcDb2dVertex
 10
-39.00985
 20
86.732001
 30
0.0
  0
VERTEX
  5
2D6
100
AcDbEntity
  8
LIVELLO_1
 62
     7
100
AcDbVertex
100
AcDb2dVertex
 10
-39.032587
 20
86.978498
 30
0.0
  0
VERTEX
  5
2D7
100
AcDbEntity
  8
LIVELLO_1
 62
     7
100
AcDbVertex
100
AcDb2dVertex
 10
-39.037927
 20
87.266336
 30
0.0
  0
SEQEND
  5
2D8
100
AcDbEntity
  8
LIVELLO_1
 62
     7
  0
POLYLINE
  5
2C4
100
AcDbEntity
  8
LIVELLO_1
 62
     7
100
AcDb2dPolyline
 66
     1
 10
0.0
 20
0.0
 30
0.0
  0
VERTEX
  5
2C5
100
AcDbEntity
  8
LIVELLO_1
 62
     7
100
AcDbVertex
100
AcDb2dVertex
 10
-30.996902
 20
-63.122762
 30
0.0
  0
VERTEX
  5
2C6
100
AcDbEntity
  8
LIVELLO_1
 62
     7
100
AcDbVertex
100
AcDb2dVertex
 10
-31.080101
 20
-63.092445
 30
0.0
  0
VERTEX
  5
2C7
100
AcDbEntity
  8
LIVELLO_1
 62
     7
100
AcDbVertex
100
AcDb2dVertex
 10
-31.173119
 20
-62.995983
 30
0.0
  0
VERTEX
  5
2C8
100
AcDbEntity
  8
LIVELLO_1
 62
     7
100
AcDbVertex
100
AcDb2dVertex
 10
-31.26338
 20
-62.839058
 30
0.0
  0
VERTEX
  5
2C9
100
AcDbEntity
  8
LIVELLO_1
 62
     7
100
AcDbVertex
100
AcDb2dVertex
 10
-31.343823
 20
-62.617367
 30
0.0
  0
VERTEX
  5
2CA
100
AcDbEntity
  8
LIVELLO_1
 62
     7
100
AcDbVertex
100
AcDb2dVertex
 10
-31.401701
 20
-62.344687
 30
0.0
  0
VERTEX
  5
2CB
100
AcDbEntity
  8
LIVELLO_1
 62
     7
100
AcDbVertex
100
AcDb2dVertex
 10
-31.42306
 20
-62.038935
 30
0.0
  0
SEQEND
  5
2CC
100
AcDbEntity
  8
LIVELLO_1
 62
     7
  0
POLYLINE
  5
2BE
100
AcDbEntity
  8
LIVELLO_1
 62
     7
100
AcDb2dPolyline
 66
     1
 10
0.0
 20
0.0
 30
0.0
  0
VERTEX
  5
2BF
100
AcDbEntity
  8
LIVELLO_1
 62
     7
100
AcDbVertex
100
AcDb2dVertex
 10
-31.233752
 20
-62.041691
 30
0.0
  0
VERTEX
  5
2C0
100
AcDbEntity
  8
LIVELLO_1
 62
     7
100
AcDbVertex
100
AcDb2dVertex
 10
-31.334177
 20
-62.041691
 30
0.0
  0
VERTEX
  5
2C1
100
AcDbEntity
  8
LIVELLO_1
 62
     7
100
AcDbVertex
100
AcDb2dVertex
 10
-31.396189
 20
-62.041691
 30
0.0
  0
VERTEX
  5
2C2
100
AcDbEntity
  8
LIVELLO_1
 62
     7
100
AcDbVertex
100
AcDb2dVertex
 10
-31.42306
 20
-62.038935
 30
0.0
  0
SEQEND
  5
2C3
100
AcDbEntity
  8
LIVELLO_1
 62
     7
  0
POLYLINE
  5
2B9
100
AcDbEntity
  8
LIVELLO_1
 62
     7
100
AcDb2dPolyline
 66
     1
 10
0.0
 20
0.0
 30
0.0
  0
VERTEX
  5
2BA
100
AcDbEntity
  8
LIVELLO_1
 62
     7
100
AcDbVertex
100
AcDb2dVertex
 10
-39.701797
 20
-62.041691
 30
0.0
  0
VERTEX
  5
2BB
100
AcDbEntity
  8
LIVELLO_1
 62
     7
100
AcDbVertex
100
AcDb2dVertex
 10
-39.637029
 20
-62.041691
 30
0.0
  0
VERTEX
  5
2BC
100
AcDbEntity
  8
LIVELLO_1
 62
     7
100
AcDbVertex
100
AcDb2dVertex
 10
-39.610158
 20
-62.038935
 30
0.0
  0
SEQEND
  5
2BD
100
AcDbEntity
  8
LIVELLO_1
 62
     7
  0
POLYLINE
  5
2B2
100
AcDbEntity
  8
LIVELLO_1
 62
     7
100
AcDb2dPolyline
 66
     1
 10
0.0
 20
0.0
 30
0.0
  0
VERTEX
  5
2B3
100
AcDbEntity
  8
LIVELLO_1
 62
     7
100
AcDbVertex
100
AcDb2dVertex
 10
-32.957161
 20
144.131599
 30
0.0
  0
VERTEX
  5
2B4
100
AcDbEntity
  8
LIVELLO_1
 62
     7
100
AcDbVertex
100
AcDb2dVertex
 10
-32.935802
 20
144.2005
 30
0.0
  0
VERTEX
  5
2B5
100
AcDbEntity
  8
LIVELLO_1
 62
     7
100
AcDbVertex
100
AcDb2dVertex
 10
-32.852603
 20
144.387914
 30
0.0
  0
VERTEX
  5
2B6
100
AcDbEntity
  8
LIVELLO_1
 62
     7
100
AcDbVertex
100
AcDb2dVertex
 10
-32.759585
 20
144.506253
 30
0.0
  0
VERTEX
  5
2B7
100
AcDbEntity
  8
LIVELLO_1
 62
     7
100
AcDbVertex
100
AcDb2dVertex
 10
-32.669324
 20
144.54346
 30
0.0
  0
SEQEND
  5
2B8
100
AcDbEntity
  8
LIVELLO_1
 62
     7
  0
POLYLINE
  5
2AC
100
AcDbEntity
  8
LIVELLO_1
 62
     7
100
AcDb2dPolyline
 66
     1
 10
0.0
 20
0.0
 30
0.0
  0
VERTEX
  5
2AD
100
AcDbEntity
  8
LIVELLO_1
 62
     7
100
AcDbVertex
100
AcDb2dVertex
 10
-30.531297
 20
-93.975142
 30
0.0
  0
VERTEX
  5
2AE
100
AcDbEntity
  8
LIVELLO_1
 62
     7
100
AcDbVertex
100
AcDb2dVertex
 10
-30.500292
 20
-93.991679
 30
0.0
  0
VERTEX
  5
2AF
100
AcDbEntity
  8
LIVELLO_1
 62
     7
100
AcDbVertex
100
AcDb2dVertex
 10
-30.47497
 20
-94.049556
 30
0.0
  0
VERTEX
  5
2B0
100
AcDbEntity
  8
LIVELLO_1
 62
     7
100
AcDbVertex
100
AcDb2dVertex
 10
-30.463946
 20
-94.13465
 30
0.0
  0
SEQEND
  5
2B1
100
AcDbEntity
  8
LIVELLO_1
 62
     7
  0
POLYLINE
  5
2A4
100
AcDbEntity
  8
LIVELLO_1
 62
     7
100
AcDb2dPolyline
 66
     1
 10
0.0
 20
0.0
 30
0.0
  0
VERTEX
  5
2A5
100
AcDbEntity
  8
LIVELLO_1
 62
     7
100
AcDbVertex
100
AcDb2dVertex
 10
-31.273716
 20
-109.693735
 30
0.0
  0
VERTEX
  5
2A6
100
AcDbEntity
  8
LIVELLO_1
 62
     7
100
AcDbVertex
100
AcDb2dVertex
 10
-31.615814
 20
-109.573846
 30
0.0
  0
VERTEX
  5
2A7
100
AcDbEntity
  8
LIVELLO_1
 62
     7
100
AcDbVertex
100
AcDb2dVertex
 10
-31.925011
 20
-109.379887
 30
0.0
  0
VERTEX
  5
2A8
100
AcDbEntity
  8
LIVELLO_1
 62
     7
100
AcDbVertex
100
AcDb2dVertex
 10
-32.181154
 20
-109.130462
 30
0.0
  0
VERTEX
  5
2A9
100
AcDbEntity
  8
LIVELLO_1
 62
     7
100
AcDbVertex
100
AcDb2dVertex
 10
-32.381486
 20
-108.827638
 30
0.0
  0
VERTEX
  5
2AA
100
AcDbEntity
  8
LIVELLO_1
 62
     7
100
AcDbVertex
100
AcDb2dVertex
 10
-32.508955
 20
-108.490019
 30
0.0
  0
SEQEND
  5
2AB
100
AcDbEntity
  8
LIVELLO_1
 62
     7
  0
POLYLINE
  5
29A
100
AcDbEntity
  8
LIVELLO_1
 62
     7
100
AcDb2dPolyline
 66
     1
 10
0.0
 20
0.0
 30
0.0
  0
VERTEX
  5
29B
100
AcDbEntity
  8
LIVELLO_1
 62
     7
100
AcDbVertex
100
AcDb2dVertex
 10
-30.868745
 20
-109.319253
 30
0.0
  0
VERTEX
  5
29C
100
AcDbEntity
  8
LIVELLO_1
 62
     7
100
AcDbVertex
100
AcDb2dVertex
 10
-31.149003
 20
-109.29307
 30
0.0
  0
VERTEX
  5
29D
100
AcDbEntity
  8
LIVELLO_1
 62
     7
100
AcDbVertex
100
AcDb2dVertex
 10
-31.424438
 20
-109.204876
 30
0.0
  0
VERTEX
  5
29E
100
AcDbEntity
  8
LIVELLO_1
 62
     7
100
AcDbVertex
100
AcDb2dVertex
 10
-31.668179
 20
-109.05467
 30
0.0
  0
VERTEX
  5
29F
100
AcDbEntity
  8
LIVELLO_1
 62
     7
100
AcDbVertex
100
AcDb2dVertex
 10
-31.865755
 20
-108.862089
 30
0.0
  0
VERTEX
  5
2A0
100
AcDbEntity
  8
LIVELLO_1
 62
     7
100
AcDbVertex
100
AcDb2dVertex
 10
-32.01665
 20
-108.623688
 30
0.0
  0
VERTEX
  5
2A1
100
AcDbEntity
  8
LIVELLO_1
 62
     7
100
AcDbVertex
100
AcDb2dVertex
 10
-32.11363
 20
-108.355315
 30
0.0
  0
VERTEX
  5
2A2
100
AcDbEntity
  8
LIVELLO_1
 62
     7
100
AcDbVertex
100
AcDb2dVertex
 10
-32.146014
 20
-108.074196
 30
0.0
  0
SEQEND
  5
2A3
100
AcDbEntity
  8
LIVELLO_1
 62
     7
  0
POLYLINE
  5
28D
100
AcDbEntity
  8
LIVELLO_1
 62
     7
100
AcDb2dPolyline
 66
     1
 10
0.0
 20
0.0
 30
0.0
  0
VERTEX
  5
28E
100
AcDbEntity
  8
LIVELLO_1
 62
     7
100
AcDbVertex
100
AcDb2dVertex
 10
-43.860716
 20
-160.737992
 30
0.0
  0
VERTEX
  5
28F
100
AcDbEntity
  8
LIVELLO_1
 62
     7
100
AcDbVertex
100
AcDb2dVertex
 10
-43.960624
 20
-160.663578
 30
0.0
  0
VERTEX
  5
290
100
AcDbEntity
  8
LIVELLO_1
 62
     7
100
AcDbVertex
100
AcDb2dVertex
 10
-44.046752
 20
-160.52164
 30
0.0
  0
VERTEX
  5
291
100
AcDbEntity
  8
LIVELLO_1
 62
     7
100
AcDbVertex
100
AcDb2dVertex
 10
-44.110141
 20
-160.327681
 30
0.0
  0
VERTEX
  5
292
100
AcDbEntity
  8
LIVELLO_1
 62
     7
100
AcDbVertex
100
AcDb2dVertex
 10
-44.145798
 20
-160.104439
 30
0.0
  0
VERTEX
  5
293
100
AcDbEntity
  8
LIVELLO_1
 62
     7
100
AcDbVertex
100
AcDb2dVertex
 10
-44.154066
 20
-159.859148
 30
0.0
  0
VERTEX
  5
294
100
AcDbEntity
  8
LIVELLO_1
 62
     7
100
AcDbVertex
100
AcDb2dVertex
 10
-44.132707
 20
-159.623848
 30
0.0
  0
VERTEX
  5
295
100
AcDbEntity
  8
LIVELLO_1
 62
     7
100
AcDbVertex
100
AcDb2dVertex
 10
-44.085337
 20
-159.413009
 30
0.0
  0
VERTEX
  5
296
100
AcDbEntity
  8
LIVELLO_1
 62
     7
100
AcDbVertex
100
AcDb2dVertex
 10
-44.008856
 20
-159.23972
 30
0.0
  0
VERTEX
  5
297
100
AcDbEntity
  8
LIVELLO_1
 62
     7
100
AcDbVertex
100
AcDb2dVertex
 10
-43.917216
 20
-159.126721
 30
0.0
  0
VERTEX
  5
298
100
AcDbEntity
  8
LIVELLO_1
 62
     7
100
AcDbVertex
100
AcDb2dVertex
 10
-43.811279
 20
-159.086758
 30
0.0
  0
SEQEND
  5
299
100
AcDbEntity
  8
LIVELLO_1
 62
     7
  0
POLYLINE
  5
283
100
AcDbEntity
  8
LIVELLO_1
 62
     7
100
AcDb2dPolyline
 66
     1
 10
0.0
 20
0.0
 30
0.0
  0
VERTEX
  5
284
100
AcDbEntity
  8
LIVELLO_1
 62
     7
100
AcDbVertex
100
AcDb2dVertex
 10
-27.35423
 20
-157.428634
 30
0.0
  0
VERTEX
  5
285
100
AcDbEntity
  8
LIVELLO_1
 62
     7
100
AcDbVertex
100
AcDb2dVertex
 10
-27.663428
 20
-157.307366
 30
0.0
  0
VERTEX
  5
286
100
AcDbEntity
  8
LIVELLO_1
 62
     7
100
AcDbVertex
100
AcDb2dVertex
 10
-27.966424
 20
-157.095493
 30
0.0
  0
VERTEX
  5
287
100
AcDbEntity
  8
LIVELLO_1
 62
     7
100
AcDbVertex
100
AcDb2dVertex
 10
-28.235658
 20
-156.789568
 30
0.0
  0
VERTEX
  5
288
100
AcDbEntity
  8
LIVELLO_1
 62
     7
100
AcDbVertex
100
AcDb2dVertex
 10
-28.461484
 20
-156.380636
 30
0.0
  0
VERTEX
  5
289
100
AcDbEntity
  8
LIVELLO_1
 62
     7
100
AcDbVertex
100
AcDb2dVertex
 10
-28.639079
 20
-155.871106
 30
0.0
  0
VERTEX
  5
28A
100
AcDbEntity
  8
LIVELLO_1
 62
     7
100
AcDbVertex
100
AcDb2dVertex
 10
-28.75759
 20
-155.280272
 30
0.0
  0
VERTEX
  5
28B
100
AcDbEntity
  8
LIVELLO_1
 62
     7
100
AcDbVertex
100
AcDb2dVertex
 10
-28.809956
 20
-154.641207
 30
0.0
  0
SEQEND
  5
28C
100
AcDbEntity
  8
LIVELLO_1
 62
     7
  0
POLYLINE
  5
27B
100
AcDbEntity
  8
LIVELLO_1
 62
     7
100
AcDb2dPolyline
 66
     1
 10
0.0
 20
0.0
 30
0.0
  0
VERTEX
  5
27C
100
AcDbEntity
  8
LIVELLO_1
 62
     7
100
AcDbVertex
100
AcDb2dVertex
 10
-40.740149
 20
-145.870338
 30
0.0
  0
VERTEX
  5
27D
100
AcDbEntity
  8
LIVELLO_1
 62
     7
100
AcDbVertex
100
AcDb2dVertex
 10
-40.296076
 20
-146.02709
 30
0.0
  0
VERTEX
  5
27E
100
AcDbEntity
  8
LIVELLO_1
 62
     7
100
AcDbVertex
100
AcDb2dVertex
 10
-39.895239
 20
-146.284783
 30
0.0
  0
VERTEX
  5
27F
100
AcDbEntity
  8
LIVELLO_1
 62
     7
100
AcDbVertex
100
AcDb2dVertex
 10
-39.569678
 20
-146.623436
 30
0.0
  0
VERTEX
  5
280
100
AcDbEntity
  8
LIVELLO_1
 62
     7
100
AcDbVertex
100
AcDb2dVertex
 10
-39.320942
 20
-147.026857
 30
0.0
  0
VERTEX
  5
281
100
AcDbEntity
  8
LIVELLO_1
 62
     7
100
AcDbVertex
100
AcDb2dVertex
 10
-39.17642
 20
-147.477475
 30
0.0
  0
SEQEND
  5
282
100
AcDbEntity
  8
LIVELLO_1
 62
     7
  0
POLYLINE
  5
271
100
AcDbEntity
  8
LIVELLO_1
 62
     7
100
AcDb2dPolyline
 66
     1
 10
0.0
 20
0.0
 30
0.0
  0
VERTEX
  5
272
100
AcDbEntity
  8
LIVELLO_1
 62
     7
100
AcDbVertex
100
AcDb2dVertex
 10
-41.164412
 20
-146.23104
 30
0.0
  0
VERTEX
  5
273
100
AcDbEntity
  8
LIVELLO_1
 62
     7
100
AcDbVertex
100
AcDb2dVertex
 10
-40.803539
 20
-146.280649
 30
0.0
  0
VERTEX
  5
274
100
AcDbEntity
  8
LIVELLO_1
 62
     7
100
AcDbVertex
100
AcDb2dVertex
 10
-40.456445
 20
-146.408807
 30
0.0
  0
VERTEX
  5
275
100
AcDbEntity
  8
LIVELLO_1
 62
     7
100
AcDbVertex
100
AcDb2dVertex
 10
-40.149315
 20
-146.61379
 30
0.0
  0
VERTEX
  5
276
100
AcDbEntity
  8
LIVELLO_1
 62
     7
100
AcDbVertex
100
AcDb2dVertex
 10
-39.900751
 20
-146.870105
 30
0.0
  0
VERTEX
  5
277
100
AcDbEntity
  8
LIVELLO_1
 62
     7
100
AcDbVertex
100
AcDb2dVertex
 10
-39.709376
 20
-147.181197
 30
0.0
  0
VERTEX
  5
278
100
AcDbEntity
  8
LIVELLO_1
 62
     7
100
AcDbVertex
100
AcDb2dVertex
 10
-39.590865
 20
-147.531219
 30
0.0
  0
VERTEX
  5
279
100
AcDbEntity
  8
LIVELLO_1
 62
     7
100
AcDbVertex
100
AcDb2dVertex
 10
-39.551074
 20
-147.89192
 30
0.0
  0
SEQEND
  5
27A
100
AcDbEntity
  8
LIVELLO_1
 62
     7
  0
POLYLINE
  5
269
100
AcDbEntity
  8
LIVELLO_1
 62
     7
100
AcDb2dPolyline
 66
     1
 10
0.0
 20
0.0
 30
0.0
  0
VERTEX
  5
26A
100
AcDbEntity
  8
LIVELLO_1
 62
     7
100
AcDbVertex
100
AcDb2dVertex
 10
-45.447355
 20
-170.28573
 30
0.0
  0
VERTEX
  5
26B
100
AcDbEntity
  8
LIVELLO_1
 62
     7
100
AcDbVertex
100
AcDb2dVertex
 10
-45.560182
 20
-170.298132
 30
0.0
  0
VERTEX
  5
26C
100
AcDbEntity
  8
LIVELLO_1
 62
     7
100
AcDbVertex
100
AcDb2dVertex
 10
-45.655956
 20
-170.335339
 30
0.0
  0
VERTEX
  5
26D
100
AcDbEntity
  8
LIVELLO_1
 62
     7
100
AcDbVertex
100
AcDb2dVertex
 10
-45.729508
 20
-170.387705
 30
0.0
  0
VERTEX
  5
26E
100
AcDbEntity
  8
LIVELLO_1
 62
     7
100
AcDbVertex
100
AcDb2dVertex
 10
-45.774295
 20
-170.455229
 30
0.0
  0
VERTEX
  5
26F
100
AcDbEntity
  8
LIVELLO_1
 62
     7
100
AcDbVertex
100
AcDb2dVertex
 10
-45.79152
 20
-170.526887
 30
0.0
  0
SEQEND
  5
270
100
AcDbEntity
  8
LIVELLO_1
 62
     7
  0
POLYLINE
  5
261
100
AcDbEntity
  8
LIVELLO_1
 62
     7
100
AcDb2dPolyline
 66
     1
 10
0.0
 20
0.0
 30
0.0
  0
VERTEX
  5
262
100
AcDbEntity
  8
LIVELLO_1
 62
     7
100
AcDbVertex
100
AcDb2dVertex
 10
-26.163089
 20
-170.28573
 30
0.0
  0
VERTEX
  5
263
100
AcDbEntity
  8
LIVELLO_1
 62
     7
100
AcDbVertex
100
AcDb2dVertex
 10
-26.245599
 20
-170.298132
 30
0.0
  0
VERTEX
  5
264
100
AcDbEntity
  8
LIVELLO_1
 62
     7
100
AcDbVertex
100
AcDb2dVertex
 10
-26.31519
 20
-170.333961
 30
0.0
  0
VERTEX
  5
265
100
AcDbEntity
  8
LIVELLO_1
 62
     7
100
AcDbVertex
100
AcDb2dVertex
 10
-26.368933
 20
-170.387705
 30
0.0
  0
VERTEX
  5
266
100
AcDbEntity
  8
LIVELLO_1
 62
     7
100
AcDbVertex
100
AcDb2dVertex
 10
-26.402695
 20
-170.455229
 30
0.0
  0
VERTEX
  5
267
100
AcDbEntity
  8
LIVELLO_1
 62
     7
100
AcDbVertex
100
AcDb2dVertex
 10
-26.412341
 20
-170.526887
 30
0.0
  0
SEQEND
  5
268
100
AcDbEntity
  8
LIVELLO_1
 62
     7
  0
LINE
  5
260
100
AcDbEntity
  8
LIVELLO_1
 62
     7
100
AcDbLine
 10
-27.172502
 20
-160.737992
 30
0.0
 11
-27.072594
 21
-160.663578
 31
0.0
  0
POLYLINE
  5
25A
100
AcDbEntity
  8
LIVELLO_1
 62
     7
100
AcDb2dPolyline
 66
     1
 10
0.0
 20
0.0
 30
0.0
  0
VERTEX
  5
25B
100
AcDbEntity
  8
LIVELLO_1
 62
     7
100
AcDbVertex
100
AcDb2dVertex
 10
-32.201135
 20
86.393176
 30
0.0
  0
VERTEX
  5
25C
100
AcDbEntity
  8
LIVELLO_1
 62
     7
100
AcDbVertex
100
AcDb2dVertex
 10
-32.292775
 20
86.433139
 30
0.0
  0
VERTEX
  5
25D
100
AcDbEntity
  8
LIVELLO_1
 62
     7
100
AcDbVertex
100
AcDb2dVertex
 10
-32.388376
 20
86.551651
 30
0.0
  0
VERTEX
  5
25E
100
AcDbEntity
  8
LIVELLO_1
 62
     7
100
AcDbVertex
100
AcDb2dVertex
 10
-32.480705
 20
86.758184
 30
0.0
  0
SEQEND
  5
25F
100
AcDbEntity
  8
LIVELLO_1
 62
     7
  0
POLYLINE
  5
255
100
AcDbEntity
  8
LIVELLO_1
 62
     7
100
AcDb2dPolyline
 66
     1
 10
0.0
 20
0.0
 30
0.0
  0
VERTEX
  5
256
100
AcDbEntity
  8
LIVELLO_1
 62
     7
100
AcDbVertex
100
AcDb2dVertex
 10
-32.436608
 20
87.262202
 30
0.0
  0
VERTEX
  5
257
100
AcDbEntity
  8
LIVELLO_1
 62
     7
100
AcDbVertex
100
AcDb2dVertex
 10
-32.517223
 20
87.262202
 30
0.0
  0
VERTEX
  5
258
100
AcDbEntity
  8
LIVELLO_1
 62
     7
100
AcDbVertex
100
AcDb2dVertex
 10
-32.557875
 20
87.266336
 30
0.0
  0
SEQEND
  5
259
100
AcDbEntity
  8
LIVELLO_1
 62
     7
  0
LINE
  5
254
100
AcDbEntity
  8
LIVELLO_1
 62
     7
100
AcDbLine
 10
-38.517373
 20
87.262202
 30
0.0
 11
-38.476893
 21
87.266336
 31
0.0
  0
POLYLINE
  5
24F
100
AcDbEntity
  8
LIVELLO_1
 62
     7
100
AcDb2dPolyline
 66
     1
 10
0.0
 20
0.0
 30
0.0
  0
VERTEX
  5
250
100
AcDbEntity
  8
LIVELLO_1
 62
     7
100
AcDbVertex
100
AcDb2dVertex
 10
-32.491729
 20
70.675789
 30
0.0
  0
VERTEX
  5
251
100
AcDbEntity
  8
LIVELLO_1
 62
     7
100
AcDbVertex
100
AcDb2dVertex
 10
-32.435229
 20
70.675789
 30
0.0
  0
VERTEX
  5
252
100
AcDbEntity
  8
LIVELLO_1
 62
     7
100
AcDbVertex
100
AcDb2dVertex
 10
-32.304488
 20
70.675789
 30
0.0
  0
SEQEND
  5
253
100
AcDbEntity
  8
LIVELLO_1
 62
     7
  0
POLYLINE
  5
24A
100
AcDbEntity
  8
LIVELLO_1
 62
     7
100
AcDb2dPolyline
 66
     1
 10
0.0
 20
0.0
 30
0.0
  0
VERTEX
  5
24B
100
AcDbEntity
  8
LIVELLO_1
 62
     7
100
AcDbVertex
100
AcDb2dVertex
 10
-39.192957
 20
70.675789
 30
0.0
  0
VERTEX
  5
24C
100
AcDbEntity
  8
LIVELLO_1
 62
     7
100
AcDbVertex
100
AcDb2dVertex
 10
-38.927856
 20
70.675789
 30
0.0
  0
VERTEX
  5
24D
100
AcDbEntity
  8
LIVELLO_1
 62
     7
100
AcDbVertex
100
AcDb2dVertex
 10
-38.599367
 20
70.675789
 30
0.0
  0
SEQEND
  5
24E
100
AcDbEntity
  8
LIVELLO_1
 62
     7
  0
POLYLINE
  5
245
100
AcDbEntity
  8
LIVELLO_1
 62
     7
100
AcDb2dPolyline
 66
     1
 10
0.0
 20
0.0
 30
0.0
  0
VERTEX
  5
246
100
AcDbEntity
  8
LIVELLO_1
 62
     7
100
AcDbVertex
100
AcDb2dVertex
 10
-34.914148
 20
70.675789
 30
0.0
  0
VERTEX
  5
247
100
AcDbEntity
  8
LIVELLO_1
 62
     7
100
AcDbVertex
100
AcDb2dVertex
 10
-34.5705
 20
70.675789
 30
0.0
  0
VERTEX
  5
248
100
AcDbEntity
  8
LIVELLO_1
 62
     7
100
AcDbVertex
100
AcDb2dVertex
 10
-33.342151
 20
70.675789
 30
0.0
  0
SEQEND
  5
249
100
AcDbEntity
  8
LIVELLO_1
 62
     7
  0
POLYLINE
  5
240
100
AcDbEntity
  8
LIVELLO_1
 62
     7
100
AcDb2dPolyline
 66
     1
 10
0.0
 20
0.0
 30
0.0
  0
VERTEX
  5
241
100
AcDbEntity
  8
LIVELLO_1
 62
     7
100
AcDbVertex
100
AcDb2dVertex
 10
-37.692617
 20
70.675789
 30
0.0
  0
VERTEX
  5
242
100
AcDbEntity
  8
LIVELLO_1
 62
     7
100
AcDbVertex
100
AcDb2dVertex
 10
-37.259397
 20
70.675789
 30
0.0
  0
VERTEX
  5
243
100
AcDbEntity
  8
LIVELLO_1
 62
     7
100
AcDbVertex
100
AcDb2dVertex
 10
-36.117003
 20
70.675789
 30
0.0
  0
SEQEND
  5
244
100
AcDbEntity
  8
LIVELLO_1
 62
     7
  0
POLYLINE
  5
237
100
AcDbEntity
  8
LIVELLO_1
 62
     7
100
AcDb2dPolyline
 66
     1
 10
0.0
 20
0.0
 30
0.0
  0
VERTEX
  5
238
100
AcDbEntity
  8
LIVELLO_1
 62
     7
100
AcDbVertex
100
AcDb2dVertex
 10
-32.082624
 20
71.763751
 30
0.0
  0
VERTEX
  5
239
100
AcDbEntity
  8
LIVELLO_1
 62
     7
100
AcDbVertex
100
AcDb2dVertex
 10
-32.012516
 20
71.732056
 30
0.0
  0
VERTEX
  5
23A
100
AcDbEntity
  8
LIVELLO_1
 62
     7
100
AcDbVertex
100
AcDb2dVertex
 10
-31.950505
 20
71.639899
 30
0.0
  0
VERTEX
  5
23B
100
AcDbEntity
  8
LIVELLO_1
 62
     7
100
AcDbVertex
100
AcDb2dVertex
 10
-31.902273
 20
71.481425
 30
0.0
  0
VERTEX
  5
23C
100
AcDbEntity
  8
LIVELLO_1
 62
     7
100
AcDbVertex
100
AcDb2dVertex
 10
-31.868511
 20
71.259733
 30
0.0
  0
VERTEX
  5
23D
100
AcDbEntity
  8
LIVELLO_1
 62
     7
100
AcDbVertex
100
AcDb2dVertex
 10
-31.847152
 20
70.987054
 30
0.0
  0
VERTEX
  5
23E
100
AcDbEntity
  8
LIVELLO_1
 62
     7
100
AcDbVertex
100
AcDb2dVertex
 10
-31.840262
 20
70.675789
 30
0.0
  0
SEQEND
  5
23F
100
AcDbEntity
  8
LIVELLO_1
 62
     7
  0
POLYLINE
  5
231
100
AcDbEntity
  8
LIVELLO_1
 62
     7
100
AcDb2dPolyline
 66
     1
 10
0.0
 20
0.0
 30
0.0
  0
VERTEX
  5
232
100
AcDbEntity
  8
LIVELLO_1
 62
     7
100
AcDbVertex
100
AcDb2dVertex
 10
-40.501921
 20
-93.975142
 30
0.0
  0
VERTEX
  5
233
100
AcDbEntity
  8
LIVELLO_1
 62
     7
100
AcDbVertex
100
AcDb2dVertex
 10
-40.534304
 20
-93.991679
 30
0.0
  0
VERTEX
  5
234
100
AcDbEntity
  8
LIVELLO_1
 62
     7
100
AcDbVertex
100
AcDb2dVertex
 10
-40.55842
 20
-94.049556
 30
0.0
  0
VERTEX
  5
235
100
AcDbEntity
  8
LIVELLO_1
 62
     7
100
AcDbVertex
100
AcDb2dVertex
 10
-40.569444
 20
-94.13465
 30
0.0
  0
SEQEND
  5
236
100
AcDbEntity
  8
LIVELLO_1
 62
     7
  0
POLYLINE
  5
229
100
AcDbEntity
  8
LIVELLO_1
 62
     7
100
AcDb2dPolyline
 66
     1
 10
0.0
 20
0.0
 30
0.0
  0
VERTEX
  5
22A
100
AcDbEntity
  8
LIVELLO_1
 62
     7
100
AcDbVertex
100
AcDb2dVertex
 10
-31.85542
 20
-147.477475
 30
0.0
  0
VERTEX
  5
22B
100
AcDbEntity
  8
LIVELLO_1
 62
     7
100
AcDbVertex
100
AcDb2dVertex
 10
-31.710209
 20
-147.026857
 30
0.0
  0
VERTEX
  5
22C
100
AcDbEntity
  8
LIVELLO_1
 62
     7
100
AcDbVertex
100
AcDb2dVertex
 10
-31.463713
 20
-146.617924
 30
0.0
  0
VERTEX
  5
22D
100
AcDbEntity
  8
LIVELLO_1
 62
     7
100
AcDbVertex
100
AcDb2dVertex
 10
-31.135223
 20
-146.283405
 30
0.0
  0
VERTEX
  5
22E
100
AcDbEntity
  8
LIVELLO_1
 62
     7
100
AcDbVertex
100
AcDb2dVertex
 10
-30.738692
 20
-146.02709
 30
0.0
  0
VERTEX
  5
22F
100
AcDbEntity
  8
LIVELLO_1
 62
     7
100
AcDbVertex
100
AcDb2dVertex
 10
-30.293069
 20
-145.870338
 30
0.0
  0
SEQEND
  5
230
100
AcDbEntity
  8
LIVELLO_1
 62
     7
  0
POLYLINE
  5
224
100
AcDbEntity
  8
LIVELLO_1
 62
     7
100
AcDb2dPolyline
 66
     1
 10
0.0
 20
0.0
 30
0.0
  0
VERTEX
  5
225
100
AcDbEntity
  8
LIVELLO_1
 62
     7
100
AcDbVertex
100
AcDb2dVertex
 10
-38.078813
 20
144.134355
 30
0.0
  0
VERTEX
  5
226
100
AcDbEntity
  8
LIVELLO_1
 62
     7
100
AcDbVertex
100
AcDb2dVertex
 10
-38.039539
 20
143.958138
 30
0.0
  0
VERTEX
  5
227
100
AcDbEntity
  8
LIVELLO_1
 62
     7
100
AcDbVertex
100
AcDb2dVertex
 10
-38.018179
 20
143.668922
 30
0.0
  0
SEQEND
  5
228
100
AcDbEntity
  8
LIVELLO_1
 62
     7
  0
POLYLINE
  5
21B
100
AcDbEntity
  8
LIVELLO_1
 62
     7
100
AcDb2dPolyline
 66
     1
 10
0.0
 20
0.0
 30
0.0
  0
VERTEX
  5
21C
100
AcDbEntity
  8
LIVELLO_1
 62
     7
100
AcDbVertex
100
AcDb2dVertex
 10
-31.597899
 20
11.528495
 30
0.0
  0
VERTEX
  5
21D
100
AcDbEntity
  8
LIVELLO_1
 62
     7
100
AcDbVertex
100
AcDb2dVertex
 10
-31.679203
 20
11.56019
 30
0.0
  0
VERTEX
  5
21E
100
AcDbEntity
  8
LIVELLO_1
 62
     7
100
AcDbVertex
100
AcDb2dVertex
 10
-31.77291
 20
11.655275
 30
0.0
  0
VERTEX
  5
21F
100
AcDbEntity
  8
LIVELLO_1
 62
     7
100
AcDbVertex
100
AcDb2dVertex
 10
-31.864377
 20
11.813577
 30
0.0
  0
VERTEX
  5
220
100
AcDbEntity
  8
LIVELLO_1
 62
     7
100
AcDbVertex
100
AcDb2dVertex
 10
-31.944303
 20
12.032513
 30
0.0
  0
VERTEX
  5
221
100
AcDbEntity
  8
LIVELLO_1
 62
     7
100
AcDbVertex
100
AcDb2dVertex
 10
-32.000803
 20
12.305192
 30
0.0
  0
VERTEX
  5
222
100
AcDbEntity
  8
LIVELLO_1
 62
     7
100
AcDbVertex
100
AcDb2dVertex
 10
-32.024919
 20
12.615078
 30
0.0
  0
SEQEND
  5
223
100
AcDbEntity
  8
LIVELLO_1
 62
     7
  0
POLYLINE
  5
216
100
AcDbEntity
  8
LIVELLO_1
 62
     7
100
AcDb2dPolyline
 66
     1
 10
0.0
 20
0.0
 30
0.0
  0
VERTEX
  5
217
100
AcDbEntity
  8
LIVELLO_1
 62
     7
100
AcDbVertex
100
AcDb2dVertex
 10
-32.024919
 20
12.615078
 30
0.0
  0
VERTEX
  5
218
100
AcDbEntity
  8
LIVELLO_1
 62
     7
100
AcDbVertex
100
AcDb2dVertex
 10
-31.968419
 20
12.615078
 30
0.0
  0
VERTEX
  5
219
100
AcDbEntity
  8
LIVELLO_1
 62
     7
100
AcDbVertex
100
AcDb2dVertex
 10
-31.836127
 20
12.612322
 30
0.0
  0
SEQEND
  5
21A
100
AcDbEntity
  8
LIVELLO_1
 62
     7
  0
POLYLINE
  5
211
100
AcDbEntity
  8
LIVELLO_1
 62
     7
100
AcDb2dPolyline
 66
     1
 10
0.0
 20
0.0
 30
0.0
  0
VERTEX
  5
212
100
AcDbEntity
  8
LIVELLO_1
 62
     7
100
AcDbVertex
100
AcDb2dVertex
 10
-39.676992
 20
12.615078
 30
0.0
  0
VERTEX
  5
213
100
AcDbEntity
  8
LIVELLO_1
 62
     7
100
AcDbVertex
100
AcDb2dVertex
 10
-39.402935
 20
12.615078
 30
0.0
  0
VERTEX
  5
214
100
AcDbEntity
  8
LIVELLO_1
 62
     7
100
AcDbVertex
100
AcDb2dVertex
 10
-39.064799
 20
12.615078
 30
0.0
  0
SEQEND
  5
215
100
AcDbEntity
  8
LIVELLO_1
 62
     7
  0
POLYLINE
  5
20C
100
AcDbEntity
  8
LIVELLO_1
 62
     7
100
AcDb2dPolyline
 66
     1
 10
0.0
 20
0.0
 30
0.0
  0
VERTEX
  5
20D
100
AcDbEntity
  8
LIVELLO_1
 62
     7
100
AcDbVertex
100
AcDb2dVertex
 10
-34.737931
 20
12.615078
 30
0.0
  0
VERTEX
  5
20E
100
AcDbEntity
  8
LIVELLO_1
 62
     7
100
AcDbVertex
100
AcDb2dVertex
 10
-34.385326
 20
12.615078
 30
0.0
  0
VERTEX
  5
20F
100
AcDbEntity
  8
LIVELLO_1
 62
     7
100
AcDbVertex
100
AcDb2dVertex
 10
-33.12666
 20
12.615078
 30
0.0
  0
SEQEND
  5
210
100
AcDbEntity
  8
LIVELLO_1
 62
     7
  0
POLYLINE
  5
207
100
AcDbEntity
  8
LIVELLO_1
 62
     7
100
AcDb2dPolyline
 66
     1
 10
0.0
 20
0.0
 30
0.0
  0
VERTEX
  5
208
100
AcDbEntity
  8
LIVELLO_1
 62
     7
100
AcDbVertex
100
AcDb2dVertex
 10
-37.908108
 20
12.615078
 30
0.0
  0
VERTEX
  5
209
100
AcDbEntity
  8
LIVELLO_1
 62
     7
100
AcDbVertex
100
AcDb2dVertex
 10
-37.465241
 20
12.615078
 30
0.0
  0
VERTEX
  5
20A
100
AcDbEntity
  8
LIVELLO_1
 62
     7
100
AcDbVertex
100
AcDb2dVertex
 10
-36.29477
 20
12.615078
 30
0.0
  0
SEQEND
  5
20B
100
AcDbEntity
  8
LIVELLO_1
 62
     7
  0
POLYLINE
  5
1FF
100
AcDbEntity
  8
LIVELLO_1
 62
     7
100
AcDb2dPolyline
 66
     1
 10
0.0
 20
0.0
 30
0.0
  0
VERTEX
  5
200
100
AcDbEntity
  8
LIVELLO_1
 62
     7
100
AcDbVertex
100
AcDb2dVertex
 10
-38.524264
 20
-108.490019
 30
0.0
  0
VERTEX
  5
201
100
AcDbEntity
  8
LIVELLO_1
 62
     7
100
AcDbVertex
100
AcDb2dVertex
 10
-38.654488
 20
-108.827638
 30
0.0
  0
VERTEX
  5
202
100
AcDbEntity
  8
LIVELLO_1
 62
     7
100
AcDbVertex
100
AcDb2dVertex
 10
-38.85482
 20
-109.130462
 30
0.0
  0
VERTEX
  5
203
100
AcDbEntity
  8
LIVELLO_1
 62
     7
100
AcDbVertex
100
AcDb2dVertex
 10
-39.110963
 20
-109.384021
 30
0.0
  0
VERTEX
  5
204
100
AcDbEntity
  8
LIVELLO_1
 62
     7
100
AcDbVertex
100
AcDb2dVertex
 10
-39.420161
 20
-109.573846
 30
0.0
  0
VERTEX
  5
205
100
AcDbEntity
  8
LIVELLO_1
 62
     7
100
AcDbVertex
100
AcDb2dVertex
 10
-39.761053
 20
-109.693735
 30
0.0
  0
SEQEND
  5
206
100
AcDbEntity
  8
LIVELLO_1
 62
     7
  0
POLYLINE
  5
1F8
100
AcDbEntity
  8
LIVELLO_1
 62
     7
100
AcDb2dPolyline
 66
     1
 10
0.0
 20
0.0
 30
0.0
  0
VERTEX
  5
1F9
100
AcDbEntity
  8
LIVELLO_1
 62
     7
100
AcDbVertex
100
AcDb2dVertex
 10
-44.309096
 20
-164.478333
 30
0.0
  0
VERTEX
  5
1FA
100
AcDbEntity
  8
LIVELLO_1
 62
     7
100
AcDbVertex
100
AcDb2dVertex
 10
-44.108763
 20
-163.551602
 30
0.0
  0
VERTEX
  5
1FB
100
AcDbEntity
  8
LIVELLO_1
 62
     7
100
AcDbVertex
100
AcDb2dVertex
 10
-43.959246
 20
-162.584564
 30
0.0
  0
VERTEX
  5
1FC
100
AcDbEntity
  8
LIVELLO_1
 62
     7
100
AcDbVertex
100
AcDb2dVertex
 10
-43.860716
 20
-161.586175
 30
0.0
  0
VERTEX
  5
1FD
100
AcDbEntity
  8
LIVELLO_1
 62
     7
100
AcDbVertex
100
AcDb2dVertex
 10
-43.822993
 20
-160.737992
 30
0.0
  0
SEQEND
  5
1FE
100
AcDbEntity
  8
LIVELLO_1
 62
     7
  0
POLYLINE
  5
1EE
100
AcDbEntity
  8
LIVELLO_1
 62
     7
100
AcDb2dPolyline
 66
     1
 10
0.0
 20
0.0
 30
0.0
  0
VERTEX
  5
1EF
100
AcDbEntity
  8
LIVELLO_1
 62
     7
100
AcDbVertex
100
AcDb2dVertex
 10
-31.483694
 20
-147.89192
 30
0.0
  0
VERTEX
  5
1F0
100
AcDbEntity
  8
LIVELLO_1
 62
     7
100
AcDbVertex
100
AcDb2dVertex
 10
-31.443731
 20
-147.529841
 30
0.0
  0
VERTEX
  5
1F1
100
AcDbEntity
  8
LIVELLO_1
 62
     7
100
AcDbVertex
100
AcDb2dVertex
 10
-31.322464
 20
-147.178441
 30
0.0
  0
VERTEX
  5
1F2
100
AcDbEntity
  8
LIVELLO_1
 62
     7
100
AcDbVertex
100
AcDb2dVertex
 10
-31.129711
 20
-146.864593
 30
0.0
  0
VERTEX
  5
1F3
100
AcDbEntity
  8
LIVELLO_1
 62
     7
100
AcDbVertex
100
AcDb2dVertex
 10
-30.878391
 20
-146.608278
 30
0.0
  0
VERTEX
  5
1F4
100
AcDbEntity
  8
LIVELLO_1
 62
     7
100
AcDbVertex
100
AcDb2dVertex
 10
-30.574017
 20
-146.408807
 30
0.0
  0
VERTEX
  5
1F5
100
AcDbEntity
  8
LIVELLO_1
 62
     7
100
AcDbVertex
100
AcDb2dVertex
 10
-30.226923
 20
-146.280649
 30
0.0
  0
VERTEX
  5
1F6
100
AcDbEntity
  8
LIVELLO_1
 62
     7
100
AcDbVertex
100
AcDb2dVertex
 10
-29.868978
 20
-146.23104
 30
0.0
  0
SEQEND
  5
1F7
100
AcDbEntity
  8
LIVELLO_1
 62
     7
  0
POLYLINE
  5
1E1
100
AcDbEntity
  8
LIVELLO_1
 62
     7
100
AcDb2dPolyline
 66
     1
 10
0.0
 20
0.0
 30
0.0
  0
VERTEX
  5
1E2
100
AcDbEntity
  8
LIVELLO_1
 62
     7
100
AcDbVertex
100
AcDb2dVertex
 10
-33.342151
 20
70.675789
 30
0.0
  0
VERTEX
  5
1E3
100
AcDbEntity
  8
LIVELLO_1
 62
     7
100
AcDbVertex
100
AcDb2dVertex
 10
-33.389004
 20
71.057334
 30
0.0
  0
VERTEX
  5
1E4
100
AcDbEntity
  8
LIVELLO_1
 62
     7
100
AcDbVertex
100
AcDb2dVertex
 10
-33.508721
 20
71.368426
 30
0.0
  0
VERTEX
  5
1E5
100
AcDbEntity
  8
LIVELLO_1
 62
     7
100
AcDbVertex
100
AcDb2dVertex
 10
-33.680287
 20
71.591668
 30
0.0
  0
VERTEX
  5
1E6
100
AcDbEntity
  8
LIVELLO_1
 62
     7
100
AcDbVertex
100
AcDb2dVertex
 10
-33.879241
 20
71.721031
 30
0.0
  0
VERTEX
  5
1E7
100
AcDbEntity
  8
LIVELLO_1
 62
     7
100
AcDbVertex
100
AcDb2dVertex
 10
-34.095421
 20
71.763751
 30
0.0
  0
VERTEX
  5
1E8
100
AcDbEntity
  8
LIVELLO_1
 62
     7
100
AcDbVertex
100
AcDb2dVertex
 10
-34.313668
 20
71.721031
 30
0.0
  0
VERTEX
  5
1E9
100
AcDbEntity
  8
LIVELLO_1
 62
     7
100
AcDbVertex
100
AcDb2dVertex
 10
-34.529159
 20
71.593046
 30
0.0
  0
VERTEX
  5
1EA
100
AcDbEntity
  8
LIVELLO_1
 62
     7
100
AcDbVertex
100
AcDb2dVertex
 10
-34.722773
 20
71.369804
 30
0.0
  0
VERTEX
  5
1EB
100
AcDbEntity
  8
LIVELLO_1
 62
     7
100
AcDbVertex
100
AcDb2dVertex
 10
-34.862472
 20
71.057334
 30
0.0
  0
VERTEX
  5
1EC
100
AcDbEntity
  8
LIVELLO_1
 62
     7
100
AcDbVertex
100
AcDb2dVertex
 10
-34.914148
 20
70.675789
 30
0.0
  0
SEQEND
  5
1ED
100
AcDbEntity
  8
LIVELLO_1
 62
     7
  0
POLYLINE
  5
1D4
100
AcDbEntity
  8
LIVELLO_1
 62
     7
100
AcDb2dPolyline
 66
     1
 10
0.0
 20
0.0
 30
0.0
  0
VERTEX
  5
1D5
100
AcDbEntity
  8
LIVELLO_1
 62
     7
100
AcDbVertex
100
AcDb2dVertex
 10
-33.063959
 20
-3.976846
 30
0.0
  0
VERTEX
  5
1D6
100
AcDbEntity
  8
LIVELLO_1
 62
     7
100
AcDbVertex
100
AcDb2dVertex
 10
-33.110813
 20
-3.599436
 30
0.0
  0
VERTEX
  5
1D7
100
AcDbEntity
  8
LIVELLO_1
 62
     7
100
AcDbVertex
100
AcDb2dVertex
 10
-33.236042
 20
-3.285415
 30
0.0
  0
VERTEX
  5
1D8
100
AcDbEntity
  8
LIVELLO_1
 62
     7
100
AcDbVertex
100
AcDb2dVertex
 10
-33.415187
 20
-3.060967
 30
0.0
  0
VERTEX
  5
1D9
100
AcDbEntity
  8
LIVELLO_1
 62
     7
100
AcDbVertex
100
AcDb2dVertex
 10
-33.624476
 20
-2.931604
 30
0.0
  0
VERTEX
  5
1DA
100
AcDbEntity
  8
LIVELLO_1
 62
     7
100
AcDbVertex
100
AcDb2dVertex
 10
-33.845479
 20
-2.891641
 30
0.0
  0
VERTEX
  5
1DB
100
AcDbEntity
  8
LIVELLO_1
 62
     7
100
AcDbVertex
100
AcDb2dVertex
 10
-34.069927
 20
-2.931604
 30
0.0
  0
VERTEX
  5
1DC
100
AcDbEntity
  8
LIVELLO_1
 62
     7
100
AcDbVertex
100
AcDb2dVertex
 10
-34.292308
 20
-3.060967
 30
0.0
  0
VERTEX
  5
1DD
100
AcDbEntity
  8
LIVELLO_1
 62
     7
100
AcDbVertex
100
AcDb2dVertex
 10
-34.491435
 20
-3.285415
 30
0.0
  0
VERTEX
  5
1DE
100
AcDbEntity
  8
LIVELLO_1
 62
     7
100
AcDbVertex
100
AcDb2dVertex
 10
-34.633889
 20
-3.599436
 30
0.0
  0
VERTEX
  5
1DF
100
AcDbEntity
  8
LIVELLO_1
 62
     7
100
AcDbVertex
100
AcDb2dVertex
 10
-34.686255
 20
-3.976846
 30
0.0
  0
SEQEND
  5
1E0
100
AcDbEntity
  8
LIVELLO_1
 62
     7
  0
POLYLINE
  5
1C7
100
AcDbEntity
  8
LIVELLO_1
 62
     7
100
AcDb2dPolyline
 66
     1
 10
0.0
 20
0.0
 30
0.0
  0
VERTEX
  5
1C8
100
AcDbEntity
  8
LIVELLO_1
 62
     7
100
AcDbVertex
100
AcDb2dVertex
 10
-36.117003
 20
70.675789
 30
0.0
  0
VERTEX
  5
1C9
100
AcDbEntity
  8
LIVELLO_1
 62
     7
100
AcDbVertex
100
AcDb2dVertex
 10
-36.170747
 20
71.057334
 30
0.0
  0
VERTEX
  5
1CA
100
AcDbEntity
  8
LIVELLO_1
 62
     7
100
AcDbVertex
100
AcDb2dVertex
 10
-36.310617
 20
71.369804
 30
0.0
  0
VERTEX
  5
1CB
100
AcDbEntity
  8
LIVELLO_1
 62
     7
100
AcDbVertex
100
AcDb2dVertex
 10
-36.50406
 20
71.593046
 30
0.0
  0
VERTEX
  5
1CC
100
AcDbEntity
  8
LIVELLO_1
 62
     7
100
AcDbVertex
100
AcDb2dVertex
 10
-36.71955
 20
71.721031
 30
0.0
  0
VERTEX
  5
1CD
100
AcDbEntity
  8
LIVELLO_1
 62
     7
100
AcDbVertex
100
AcDb2dVertex
 10
-36.939175
 20
71.763751
 30
0.0
  0
VERTEX
  5
1CE
100
AcDbEntity
  8
LIVELLO_1
 62
     7
100
AcDbVertex
100
AcDb2dVertex
 10
-37.152771
 20
71.721031
 30
0.0
  0
VERTEX
  5
1CF
100
AcDbEntity
  8
LIVELLO_1
 62
     7
100
AcDbVertex
100
AcDb2dVertex
 10
-37.352414
 20
71.591668
 30
0.0
  0
VERTEX
  5
1D0
100
AcDbEntity
  8
LIVELLO_1
 62
     7
100
AcDbVertex
100
AcDb2dVertex
 10
-37.524497
 20
71.368426
 30
0.0
  0
VERTEX
  5
1D1
100
AcDbEntity
  8
LIVELLO_1
 62
     7
100
AcDbVertex
100
AcDb2dVertex
 10
-37.644386
 20
71.057334
 30
0.0
  0
VERTEX
  5
1D2
100
AcDbEntity
  8
LIVELLO_1
 62
     7
100
AcDbVertex
100
AcDb2dVertex
 10
-37.692617
 20
70.675789
 30
0.0
  0
SEQEND
  5
1D3
100
AcDbEntity
  8
LIVELLO_1
 62
     7
  0
POLYLINE
  5
1BA
100
AcDbEntity
  8
LIVELLO_1
 62
     7
100
AcDb2dPolyline
 66
     1
 10
0.0
 20
0.0
 30
0.0
  0
VERTEX
  5
1BB
100
AcDbEntity
  8
LIVELLO_1
 62
     7
100
AcDbVertex
100
AcDb2dVertex
 10
-34.737931
 20
12.615078
 30
0.0
  0
VERTEX
  5
1BC
100
AcDbEntity
  8
LIVELLO_1
 62
     7
100
AcDbVertex
100
AcDb2dVertex
 10
-34.683499
 20
12.23784
 30
0.0
  0
VERTEX
  5
1BD
100
AcDbEntity
  8
LIVELLO_1
 62
     7
100
AcDbVertex
100
AcDb2dVertex
 10
-34.538116
 20
11.92382
 30
0.0
  0
VERTEX
  5
1BE
100
AcDbEntity
  8
LIVELLO_1
 62
     7
100
AcDbVertex
100
AcDb2dVertex
 10
-34.34054
 20
11.70075
 30
0.0
  0
VERTEX
  5
1BF
100
AcDbEntity
  8
LIVELLO_1
 62
     7
100
AcDbVertex
100
AcDb2dVertex
 10
-34.118848
 20
11.571214
 30
0.0
  0
VERTEX
  5
1C0
100
AcDbEntity
  8
LIVELLO_1
 62
     7
100
AcDbVertex
100
AcDb2dVertex
 10
-33.892333
 20
11.528495
 30
0.0
  0
VERTEX
  5
1C1
100
AcDbEntity
  8
LIVELLO_1
 62
     7
100
AcDbVertex
100
AcDb2dVertex
 10
-33.673397
 20
11.571214
 30
0.0
  0
VERTEX
  5
1C2
100
AcDbEntity
  8
LIVELLO_1
 62
     7
100
AcDbVertex
100
AcDb2dVertex
 10
-33.46738
 20
11.70075
 30
0.0
  0
VERTEX
  5
1C3
100
AcDbEntity
  8
LIVELLO_1
 62
     7
100
AcDbVertex
100
AcDb2dVertex
 10
-33.292542
 20
11.92382
 30
0.0
  0
VERTEX
  5
1C4
100
AcDbEntity
  8
LIVELLO_1
 62
     7
100
AcDbVertex
100
AcDb2dVertex
 10
-33.168518
 20
12.23784
 30
0.0
  0
VERTEX
  5
1C5
100
AcDbEntity
  8
LIVELLO_1
 62
     7
100
AcDbVertex
100
AcDb2dVertex
 10
-33.12666
 20
12.615078
 30
0.0
  0
SEQEND
  5
1C6
100
AcDbEntity
  8
LIVELLO_1
 62
     7
  0
POLYLINE
  5
1B1
100
AcDbEntity
  8
LIVELLO_1
 62
     7
100
AcDb2dPolyline
 66
     1
 10
0.0
 20
0.0
 30
0.0
  0
VERTEX
  5
1B2
100
AcDbEntity
  8
LIVELLO_1
 62
     7
100
AcDbVertex
100
AcDb2dVertex
 10
-31.480938
 20
-2.891641
 30
0.0
  0
VERTEX
  5
1B3
100
AcDbEntity
  8
LIVELLO_1
 62
     7
100
AcDbVertex
100
AcDb2dVertex
 10
-31.407213
 20
-2.919202
 30
0.0
  0
VERTEX
  5
1B4
100
AcDbEntity
  8
LIVELLO_1
 62
     7
100
AcDbVertex
100
AcDb2dVertex
 10
-31.341067
 20
-3.011358
 30
0.0
  0
VERTEX
  5
1B5
100
AcDbEntity
  8
LIVELLO_1
 62
     7
100
AcDbVertex
100
AcDb2dVertex
 10
-31.288702
 20
-3.173966
 30
0.0
  0
VERTEX
  5
1B6
100
AcDbEntity
  8
LIVELLO_1
 62
     7
100
AcDbVertex
100
AcDb2dVertex
 10
-31.250978
 20
-3.39428
 30
0.0
  0
VERTEX
  5
1B7
100
AcDbEntity
  8
LIVELLO_1
 62
     7
100
AcDbVertex
100
AcDb2dVertex
 10
-31.226862
 20
-3.66696
 30
0.0
  0
VERTEX
  5
1B8
100
AcDbEntity
  8
LIVELLO_1
 62
     7
100
AcDbVertex
100
AcDb2dVertex
 10
-31.219972
 20
-3.976846
 30
0.0
  0
SEQEND
  5
1B9
100
AcDbEntity
  8
LIVELLO_1
 62
     7
  0
POLYLINE
  5
1AC
100
AcDbEntity
  8
LIVELLO_1
 62
     7
100
AcDb2dPolyline
 66
     1
 10
0.0
 20
0.0
 30
0.0
  0
VERTEX
  5
1AD
100
AcDbEntity
  8
LIVELLO_1
 62
     7
100
AcDbVertex
100
AcDb2dVertex
 10
-31.889871
 20
-3.976846
 30
0.0
  0
VERTEX
  5
1AE
100
AcDbEntity
  8
LIVELLO_1
 62
     7
100
AcDbVertex
100
AcDb2dVertex
 10
-31.836127
 20
-3.976846
 30
0.0
  0
VERTEX
  5
1AF
100
AcDbEntity
  8
LIVELLO_1
 62
     7
100
AcDbVertex
100
AcDb2dVertex
 10
-31.701941
 20
-3.976846
 30
0.0
  0
SEQEND
  5
1B0
100
AcDbEntity
  8
LIVELLO_1
 62
     7
  0
POLYLINE
  5
1A7
100
AcDbEntity
  8
LIVELLO_1
 62
     7
100
AcDb2dPolyline
 66
     1
 10
0.0
 20
0.0
 30
0.0
  0
VERTEX
  5
1A8
100
AcDbEntity
  8
LIVELLO_1
 62
     7
100
AcDbVertex
100
AcDb2dVertex
 10
-39.814796
 20
-3.976846
 30
0.0
  0
VERTEX
  5
1A9
100
AcDbEntity
  8
LIVELLO_1
 62
     7
100
AcDbVertex
100
AcDb2dVertex
 10
-39.54005
 20
-3.976846
 30
0.0
  0
VERTEX
  5
1AA
100
AcDbEntity
  8
LIVELLO_1
 62
     7
100
AcDbVertex
100
AcDb2dVertex
 10
-39.197091
 20
-3.976846
 30
0.0
  0
SEQEND
  5
1AB
100
AcDbEntity
  8
LIVELLO_1
 62
     7
  0
POLYLINE
  5
1A1
100
AcDbEntity
  8
LIVELLO_1
 62
     7
100
AcDb2dPolyline
 66
     1
 10
0.0
 20
0.0
 30
0.0
  0
VERTEX
  5
1A2
100
AcDbEntity
  8
LIVELLO_1
 62
     7
100
AcDbVertex
100
AcDb2dVertex
 10
-43.757536
 20
-157.581596
 30
0.0
  0
VERTEX
  5
1A3
100
AcDbEntity
  8
LIVELLO_1
 62
     7
100
AcDbVertex
100
AcDb2dVertex
 10
-43.745133
 20
-157.50167
 30
0.0
  0
VERTEX
  5
1A4
100
AcDbEntity
  8
LIVELLO_1
 62
     7
100
AcDbVertex
100
AcDb2dVertex
 10
-43.71964
 20
-157.446548
 30
0.0
  0
VERTEX
  5
1A5
100
AcDbEntity
  8
LIVELLO_1
 62
     7
100
AcDbVertex
100
AcDb2dVertex
 10
-43.688634
 20
-157.428634
 30
0.0
  0
SEQEND
  5
1A6
100
AcDbEntity
  8
LIVELLO_1
 62
     7
  0
POLYLINE
  5
197
100
AcDbEntity
  8
LIVELLO_1
 62
     7
100
AcDb2dPolyline
 66
     1
 10
0.0
 20
0.0
 30
0.0
  0
VERTEX
  5
198
100
AcDbEntity
  8
LIVELLO_1
 62
     7
100
AcDbVertex
100
AcDb2dVertex
 10
-38.887204
 20
-108.074196
 30
0.0
  0
VERTEX
  5
199
100
AcDbEntity
  8
LIVELLO_1
 62
     7
100
AcDbVertex
100
AcDb2dVertex
 10
-38.919588
 20
-108.358072
 30
0.0
  0
VERTEX
  5
19A
100
AcDbEntity
  8
LIVELLO_1
 62
     7
100
AcDbVertex
100
AcDb2dVertex
 10
-39.01674
 20
-108.629201
 30
0.0
  0
VERTEX
  5
19B
100
AcDbEntity
  8
LIVELLO_1
 62
     7
100
AcDbVertex
100
AcDb2dVertex
 10
-39.171597
 20
-108.867601
 30
0.0
  0
VERTEX
  5
19C
100
AcDbEntity
  8
LIVELLO_1
 62
     7
100
AcDbVertex
100
AcDb2dVertex
 10
-39.371929
 20
-109.058804
 30
0.0
  0
VERTEX
  5
19D
100
AcDbEntity
  8
LIVELLO_1
 62
     7
100
AcDbVertex
100
AcDb2dVertex
 10
-39.612914
 20
-109.204876
 30
0.0
  0
VERTEX
  5
19E
100
AcDbEntity
  8
LIVELLO_1
 62
     7
100
AcDbVertex
100
AcDb2dVertex
 10
-39.884215
 20
-109.29307
 30
0.0
  0
VERTEX
  5
19F
100
AcDbEntity
  8
LIVELLO_1
 62
     7
100
AcDbVertex
100
AcDb2dVertex
 10
-40.164473
 20
-109.319253
 30
0.0
  0
SEQEND
  5
1A0
100
AcDbEntity
  8
LIVELLO_1
 62
     7
  0
POLYLINE
  5
18D
100
AcDbEntity
  8
LIVELLO_1
 62
     7
100
AcDb2dPolyline
 66
     1
 10
0.0
 20
0.0
 30
0.0
  0
VERTEX
  5
18E
100
AcDbEntity
  8
LIVELLO_1
 62
     7
100
AcDbVertex
100
AcDb2dVertex
 10
-42.223435
 20
-154.641207
 30
0.0
  0
VERTEX
  5
18F
100
AcDbEntity
  8
LIVELLO_1
 62
     7
100
AcDbVertex
100
AcDb2dVertex
 10
-42.271494
 20
-155.256845
 30
0.0
  0
VERTEX
  5
190
100
AcDbEntity
  8
LIVELLO_1
 62
     7
100
AcDbVertex
100
AcDb2dVertex
 10
-42.388627
 20
-155.843545
 30
0.0
  0
VERTEX
  5
191
100
AcDbEntity
  8
LIVELLO_1
 62
     7
100
AcDbVertex
100
AcDb2dVertex
 10
-42.570356
 20
-156.375123
 30
0.0
  0
VERTEX
  5
192
100
AcDbEntity
  8
LIVELLO_1
 62
     7
100
AcDbVertex
100
AcDb2dVertex
 10
-42.798938
 20
-156.789568
 30
0.0
  0
VERTEX
  5
193
100
AcDbEntity
  8
LIVELLO_1
 62
     7
100
AcDbVertex
100
AcDb2dVertex
 10
-43.061282
 20
-157.091359
 30
0.0
  0
VERTEX
  5
194
100
AcDbEntity
  8
LIVELLO_1
 62
     7
100
AcDbVertex
100
AcDb2dVertex
 10
-43.35601
 20
-157.300476
 30
0.0
  0
VERTEX
  5
195
100
AcDbEntity
  8
LIVELLO_1
 62
     7
100
AcDbVertex
100
AcDb2dVertex
 10
-43.678988
 20
-157.428634
 30
0.0
  0
SEQEND
  5
196
100
AcDbEntity
  8
LIVELLO_1
 62
     7
  0
POLYLINE
  5
184
100
AcDbEntity
  8
LIVELLO_1
 62
     7
100
AcDb2dPolyline
 66
     1
 10
0.0
 20
0.0
 30
0.0
  0
VERTEX
  5
185
100
AcDbEntity
  8
LIVELLO_1
 62
     7
100
AcDbVertex
100
AcDb2dVertex
 10
-31.889871
 20
-3.976846
 30
0.0
  0
VERTEX
  5
186
100
AcDbEntity
  8
LIVELLO_1
 62
     7
100
AcDbVertex
100
AcDb2dVertex
 10
-31.872645
 20
-3.662826
 30
0.0
  0
VERTEX
  5
187
100
AcDbEntity
  8
LIVELLO_1
 62
     7
100
AcDbVertex
100
AcDb2dVertex
 10
-31.818902
 20
-3.390146
 30
0.0
  0
VERTEX
  5
188
100
AcDbEntity
  8
LIVELLO_1
 62
     7
100
AcDbVertex
100
AcDb2dVertex
 10
-31.741215
 20
-3.172588
 30
0.0
  0
VERTEX
  5
189
100
AcDbEntity
  8
LIVELLO_1
 62
     7
100
AcDbVertex
100
AcDb2dVertex
 10
-31.65371
 20
-3.011358
 30
0.0
  0
VERTEX
  5
18A
100
AcDbEntity
  8
LIVELLO_1
 62
     7
100
AcDbVertex
100
AcDb2dVertex
 10
-31.56207
 20
-2.919202
 30
0.0
  0
VERTEX
  5
18B
100
AcDbEntity
  8
LIVELLO_1
 62
     7
100
AcDbVertex
100
AcDb2dVertex
 10
-31.480938
 20
-2.891641
 30
0.0
  0
SEQEND
  5
18C
100
AcDbEntity
  8
LIVELLO_1
 62
     7
  0
POLYLINE
  5
17C
100
AcDbEntity
  8
LIVELLO_1
 62
     7
100
AcDb2dPolyline
 66
     1
 10
0.0
 20
0.0
 30
0.0
  0
VERTEX
  5
17D
100
AcDbEntity
  8
LIVELLO_1
 62
     7
100
AcDbVertex
100
AcDb2dVertex
 10
-31.996669
 20
87.266336
 30
0.0
  0
VERTEX
  5
17E
100
AcDbEntity
  8
LIVELLO_1
 62
     7
100
AcDbVertex
100
AcDb2dVertex
 10
-32.002181
 20
86.985388
 30
0.0
  0
VERTEX
  5
17F
100
AcDbEntity
  8
LIVELLO_1
 62
     7
100
AcDbVertex
100
AcDb2dVertex
 10
-32.022163
 20
86.737514
 30
0.0
  0
VERTEX
  5
180
100
AcDbEntity
  8
LIVELLO_1
 62
     7
100
AcDbVertex
100
AcDb2dVertex
 10
-32.062815
 20
86.551651
 30
0.0
  0
VERTEX
  5
181
100
AcDbEntity
  8
LIVELLO_1
 62
     7
100
AcDbVertex
100
AcDb2dVertex
 10
-32.121898
 20
86.433139
 30
0.0
  0
VERTEX
  5
182
100
AcDbEntity
  8
LIVELLO_1
 62
     7
100
AcDbVertex
100
AcDb2dVertex
 10
-32.201135
 20
86.393176
 30
0.0
  0
SEQEND
  5
183
100
AcDbEntity
  8
LIVELLO_1
 62
     7
  0
POLYLINE
  5
173
100
AcDbEntity
  8
LIVELLO_1
 62
     7
100
AcDb2dPolyline
 66
     1
 10
0.0
 20
0.0
 30
0.0
  0
VERTEX
  5
174
100
AcDbEntity
  8
LIVELLO_1
 62
     7
100
AcDbVertex
100
AcDb2dVertex
 10
-30.738692
 20
-62.038935
 30
0.0
  0
VERTEX
  5
175
100
AcDbEntity
  8
LIVELLO_1
 62
     7
100
AcDbVertex
100
AcDb2dVertex
 10
-30.741448
 20
-62.341931
 30
0.0
  0
VERTEX
  5
176
100
AcDbEntity
  8
LIVELLO_1
 62
     7
100
AcDbVertex
100
AcDb2dVertex
 10
-30.762636
 20
-62.61461
 30
0.0
  0
VERTEX
  5
177
100
AcDbEntity
  8
LIVELLO_1
 62
     7
100
AcDbVertex
100
AcDb2dVertex
 10
-30.800532
 20
-62.839058
 30
0.0
  0
VERTEX
  5
178
100
AcDbEntity
  8
LIVELLO_1
 62
     7
100
AcDbVertex
100
AcDb2dVertex
 10
-30.851519
 20
-62.995983
 30
0.0
  0
VERTEX
  5
179
100
AcDbEntity
  8
LIVELLO_1
 62
     7
100
AcDbVertex
100
AcDb2dVertex
 10
-30.919043
 20
-63.092445
 30
0.0
  0
VERTEX
  5
17A
100
AcDbEntity
  8
LIVELLO_1
 62
     7
100
AcDbVertex
100
AcDb2dVertex
 10
-30.996902
 20
-63.122762
 30
0.0
  0
SEQEND
  5
17B
100
AcDbEntity
  8
LIVELLO_1
 62
     7
  0
POLYLINE
  5
16A
100
AcDbEntity
  8
LIVELLO_1
 62
     7
100
AcDb2dPolyline
 66
     1
 10
0.0
 20
0.0
 30
0.0
  0
VERTEX
  5
16B
100
AcDbEntity
  8
LIVELLO_1
 62
     7
100
AcDbVertex
100
AcDb2dVertex
 10
-31.354848
 20
12.615078
 30
0.0
  0
VERTEX
  5
16C
100
AcDbEntity
  8
LIVELLO_1
 62
     7
100
AcDbVertex
100
AcDb2dVertex
 10
-31.358982
 20
12.310704
 30
0.0
  0
VERTEX
  5
16D
100
AcDbEntity
  8
LIVELLO_1
 62
     7
100
AcDbVertex
100
AcDb2dVertex
 10
-31.378963
 20
12.033891
 30
0.0
  0
VERTEX
  5
16E
100
AcDbEntity
  8
LIVELLO_1
 62
     7
100
AcDbVertex
100
AcDb2dVertex
 10
-31.411347
 20
11.810821
 30
0.0
  0
VERTEX
  5
16F
100
AcDbEntity
  8
LIVELLO_1
 62
     7
100
AcDbVertex
100
AcDb2dVertex
 10
-31.462335
 20
11.653897
 30
0.0
  0
VERTEX
  5
170
100
AcDbEntity
  8
LIVELLO_1
 62
     7
100
AcDbVertex
100
AcDb2dVertex
 10
-31.524346
 20
11.558812
 30
0.0
  0
VERTEX
  5
171
100
AcDbEntity
  8
LIVELLO_1
 62
     7
100
AcDbVertex
100
AcDb2dVertex
 10
-31.597899
 20
11.528495
 30
0.0
  0
SEQEND
  5
172
100
AcDbEntity
  8
LIVELLO_1
 62
     7
  0
POLYLINE
  5
164
100
AcDbEntity
  8
LIVELLO_1
 62
     7
100
AcDb2dPolyline
 66
     1
 10
0.0
 20
0.0
 30
0.0
  0
VERTEX
  5
165
100
AcDbEntity
  8
LIVELLO_1
 62
     7
100
AcDbVertex
100
AcDb2dVertex
 10
-26.174113
 20
-185.218152
 30
0.0
  0
VERTEX
  5
166
100
AcDbEntity
  8
LIVELLO_1
 62
     7
100
AcDbVertex
100
AcDb2dVertex
 10
-26.254556
 20
-180.340241
 30
0.0
  0
VERTEX
  5
167
100
AcDbEntity
  8
LIVELLO_1
 62
     7
100
AcDbVertex
100
AcDb2dVertex
 10
-26.333104
 20
-175.445794
 30
0.0
  0
VERTEX
  5
168
100
AcDbEntity
  8
LIVELLO_1
 62
     7
100
AcDbVertex
100
AcDb2dVertex
 10
-26.412341
 20
-170.526887
 30
0.0
  0
SEQEND
  5
169
100
AcDbEntity
  8
LIVELLO_1
 62
     7
  0
POLYLINE
  5
15C
100
AcDbEntity
  8
LIVELLO_1
 62
     7
100
AcDb2dPolyline
 66
     1
 10
0.0
 20
0.0
 30
0.0
  0
VERTEX
  5
15D
100
AcDbEntity
  8
LIVELLO_1
 62
     7
100
AcDbVertex
100
AcDb2dVertex
 10
-25.917281
 20
-170.28573
 30
0.0
  0
VERTEX
  5
15E
100
AcDbEntity
  8
LIVELLO_1
 62
     7
100
AcDbVertex
100
AcDb2dVertex
 10
-25.946737
 20
-169.284585
 30
0.0
  0
VERTEX
  5
15F
100
AcDbEntity
  8
LIVELLO_1
 62
     7
100
AcDbVertex
100
AcDb2dVertex
 10
-26.045955
 20
-168.282062
 30
0.0
  0
VERTEX
  5
160
100
AcDbEntity
  8
LIVELLO_1
 62
     7
100
AcDbVertex
100
AcDb2dVertex
 10
-26.204947
 20
-167.325015
 30
0.0
  0
VERTEX
  5
161
100
AcDbEntity
  8
LIVELLO_1
 62
     7
100
AcDbVertex
100
AcDb2dVertex
 10
-26.428189
 20
-166.429635
 30
0.0
  0
VERTEX
  5
162
100
AcDbEntity
  8
LIVELLO_1
 62
     7
100
AcDbVertex
100
AcDb2dVertex
 10
-26.707069
 20
-165.628305
 30
0.0
  0
SEQEND
  5
163
100
AcDbEntity
  8
LIVELLO_1
 62
     7
  0
POLYLINE
  5
14F
100
AcDbEntity
  8
LIVELLO_1
 62
     7
100
AcDb2dPolyline
 66
     1
 10
0.0
 20
0.0
 30
0.0
  0
VERTEX
  5
150
100
AcDbEntity
  8
LIVELLO_1
 62
     7
100
AcDbVertex
100
AcDb2dVertex
 10
-38.542867
 20
70.675789
 30
0.0
  0
VERTEX
  5
151
100
AcDbEntity
  8
LIVELLO_1
 62
     7
100
AcDbVertex
100
AcDb2dVertex
 10
-38.571117
 20
71.057334
 30
0.0
  0
VERTEX
  5
152
100
AcDbEntity
  8
LIVELLO_1
 62
     7
100
AcDbVertex
100
AcDb2dVertex
 10
-38.648976
 20
71.369804
 30
0.0
  0
VERTEX
  5
153
100
AcDbEntity
  8
LIVELLO_1
 62
     7
100
AcDbVertex
100
AcDb2dVertex
 10
-38.750262
 20
71.591668
 30
0.0
  0
VERTEX
  5
154
100
AcDbEntity
  8
LIVELLO_1
 62
     7
100
AcDbVertex
100
AcDb2dVertex
 10
-38.85482
 20
71.721031
 30
0.0
  0
VERTEX
  5
155
100
AcDbEntity
  8
LIVELLO_1
 62
     7
100
AcDbVertex
100
AcDb2dVertex
 10
-38.950594
 20
71.763751
 30
0.0
  0
VERTEX
  5
156
100
AcDbEntity
  8
LIVELLO_1
 62
     7
100
AcDbVertex
100
AcDb2dVertex
 10
-39.033965
 20
71.721031
 30
0.0
  0
VERTEX
  5
157
100
AcDbEntity
  8
LIVELLO_1
 62
     7
100
AcDbVertex
100
AcDb2dVertex
 10
-39.102695
 20
71.591668
 30
0.0
  0
VERTEX
  5
158
100
AcDbEntity
  8
LIVELLO_1
 62
     7
100
AcDbVertex
100
AcDb2dVertex
 10
-39.152304
 20
71.369804
 30
0.0
  0
VERTEX
  5
159
100
AcDbEntity
  8
LIVELLO_1
 62
     7
100
AcDbVertex
100
AcDb2dVertex
 10
-39.181932
 20
71.057334
 30
0.0
  0
VERTEX
  5
15A
100
AcDbEntity
  8
LIVELLO_1
 62
     7
100
AcDbVertex
100
AcDb2dVertex
 10
-39.192957
 20
70.675789
 30
0.0
  0
SEQEND
  5
15B
100
AcDbEntity
  8
LIVELLO_1
 62
     7
  0
POLYLINE
  5
142
100
AcDbEntity
  8
LIVELLO_1
 62
     7
100
AcDb2dPolyline
 66
     1
 10
0.0
 20
0.0
 30
0.0
  0
VERTEX
  5
143
100
AcDbEntity
  8
LIVELLO_1
 62
     7
100
AcDbVertex
100
AcDb2dVertex
 10
-37.908108
 20
12.615078
 30
0.0
  0
VERTEX
  5
144
100
AcDbEntity
  8
LIVELLO_1
 62
     7
100
AcDbVertex
100
AcDb2dVertex
 10
-37.8647
 20
12.23784
 30
0.0
  0
VERTEX
  5
145
100
AcDbEntity
  8
LIVELLO_1
 62
     7
100
AcDbVertex
100
AcDb2dVertex
 10
-37.742055
 20
11.92382
 30
0.0
  0
VERTEX
  5
146
100
AcDbEntity
  8
LIVELLO_1
 62
     7
100
AcDbVertex
100
AcDb2dVertex
 10
-37.565838
 20
11.70075
 30
0.0
  0
VERTEX
  5
147
100
AcDbEntity
  8
LIVELLO_1
 62
     7
100
AcDbVertex
100
AcDb2dVertex
 10
-37.358615
 20
11.571214
 30
0.0
  0
VERTEX
  5
148
100
AcDbEntity
  8
LIVELLO_1
 62
     7
100
AcDbVertex
100
AcDb2dVertex
 10
-37.138302
 20
11.528495
 30
0.0
  0
VERTEX
  5
149
100
AcDbEntity
  8
LIVELLO_1
 62
     7
100
AcDbVertex
100
AcDb2dVertex
 10
-36.915748
 20
11.571214
 30
0.0
  0
VERTEX
  5
14A
100
AcDbEntity
  8
LIVELLO_1
 62
     7
100
AcDbVertex
100
AcDb2dVertex
 10
-36.694057
 20
11.70075
 30
0.0
  0
VERTEX
  5
14B
100
AcDbEntity
  8
LIVELLO_1
 62
     7
100
AcDbVertex
100
AcDb2dVertex
 10
-36.495102
 20
11.92382
 30
0.0
  0
VERTEX
  5
14C
100
AcDbEntity
  8
LIVELLO_1
 62
     7
100
AcDbVertex
100
AcDb2dVertex
 10
-36.349891
 20
12.23784
 30
0.0
  0
VERTEX
  5
14D
100
AcDbEntity
  8
LIVELLO_1
 62
     7
100
AcDbVertex
100
AcDb2dVertex
 10
-36.29477
 20
12.615078
 30
0.0
  0
SEQEND
  5
14E
100
AcDbEntity
  8
LIVELLO_1
 62
     7
  0
POLYLINE
  5
135
100
AcDbEntity
  8
LIVELLO_1
 62
     7
100
AcDb2dPolyline
 66
     1
 10
0.0
 20
0.0
 30
0.0
  0
VERTEX
  5
136
100
AcDbEntity
  8
LIVELLO_1
 62
     7
100
AcDbVertex
100
AcDb2dVertex
 10
-38.182166
 20
-62.038935
 30
0.0
  0
VERTEX
  5
137
100
AcDbEntity
  8
LIVELLO_1
 62
     7
100
AcDbVertex
100
AcDb2dVertex
 10
-38.13669
 20
-62.409283
 30
0.0
  0
VERTEX
  5
138
100
AcDbEntity
  8
LIVELLO_1
 62
     7
100
AcDbVertex
100
AcDb2dVertex
 10
-38.012667
 20
-62.721925
 30
0.0
  0
VERTEX
  5
139
100
AcDbEntity
  8
LIVELLO_1
 62
     7
100
AcDbVertex
100
AcDb2dVertex
 10
-37.82956
 20
-62.947751
 30
0.0
  0
VERTEX
  5
13A
100
AcDbEntity
  8
LIVELLO_1
 62
     7
100
AcDbVertex
100
AcDb2dVertex
 10
-37.616136
 20
-63.080043
 30
0.0
  0
VERTEX
  5
13B
100
AcDbEntity
  8
LIVELLO_1
 62
     7
100
AcDbVertex
100
AcDb2dVertex
 10
-37.390999
 20
-63.122762
 30
0.0
  0
VERTEX
  5
13C
100
AcDbEntity
  8
LIVELLO_1
 62
     7
100
AcDbVertex
100
AcDb2dVertex
 10
-37.156905
 20
-63.080043
 30
0.0
  0
VERTEX
  5
13D
100
AcDbEntity
  8
LIVELLO_1
 62
     7
100
AcDbVertex
100
AcDb2dVertex
 10
-36.929529
 20
-62.947751
 30
0.0
  0
VERTEX
  5
13E
100
AcDbEntity
  8
LIVELLO_1
 62
     7
100
AcDbVertex
100
AcDb2dVertex
 10
-36.727818
 20
-62.721925
 30
0.0
  0
VERTEX
  5
13F
100
AcDbEntity
  8
LIVELLO_1
 62
     7
100
AcDbVertex
100
AcDb2dVertex
 10
-36.582608
 20
-62.409283
 30
0.0
  0
VERTEX
  5
140
100
AcDbEntity
  8
LIVELLO_1
 62
     7
100
AcDbVertex
100
AcDb2dVertex
 10
-36.527486
 20
-62.038935
 30
0.0
  0
SEQEND
  5
141
100
AcDbEntity
  8
LIVELLO_1
 62
     7
  0
POLYLINE
  5
128
100
AcDbEntity
  8
LIVELLO_1
 62
     7
100
AcDb2dPolyline
 66
     1
 10
0.0
 20
0.0
 30
0.0
  0
VERTEX
  5
129
100
AcDbEntity
  8
LIVELLO_1
 62
     7
100
AcDbVertex
100
AcDb2dVertex
 10
-36.347135
 20
-3.976846
 30
0.0
  0
VERTEX
  5
12A
100
AcDbEntity
  8
LIVELLO_1
 62
     7
100
AcDbVertex
100
AcDb2dVertex
 10
-36.400707
 20
-3.599436
 30
0.0
  0
VERTEX
  5
12B
100
AcDbEntity
  8
LIVELLO_1
 62
     7
100
AcDbVertex
100
AcDb2dVertex
 10
-36.541956
 20
-3.285415
 30
0.0
  0
VERTEX
  5
12C
100
AcDbEntity
  8
LIVELLO_1
 62
     7
100
AcDbVertex
100
AcDb2dVertex
 10
-36.739532
 20
-3.060967
 30
0.0
  0
VERTEX
  5
12D
100
AcDbEntity
  8
LIVELLO_1
 62
     7
100
AcDbVertex
100
AcDb2dVertex
 10
-36.961913
 20
-2.931604
 30
0.0
  0
VERTEX
  5
12E
100
AcDbEntity
  8
LIVELLO_1
 62
     7
100
AcDbVertex
100
AcDb2dVertex
 10
-37.187739
 20
-2.891641
 30
0.0
  0
VERTEX
  5
12F
100
AcDbEntity
  8
LIVELLO_1
 62
     7
100
AcDbVertex
100
AcDb2dVertex
 10
-37.410292
 20
-2.931604
 30
0.0
  0
VERTEX
  5
130
100
AcDbEntity
  8
LIVELLO_1
 62
     7
100
AcDbVertex
100
AcDb2dVertex
 10
-37.619581
 20
-3.060967
 30
0.0
  0
VERTEX
  5
131
100
AcDbEntity
  8
LIVELLO_1
 62
     7
100
AcDbVertex
100
AcDb2dVertex
 10
-37.797176
 20
-3.285415
 30
0.0
  0
VERTEX
  5
132
100
AcDbEntity
  8
LIVELLO_1
 62
     7
100
AcDbVertex
100
AcDb2dVertex
 10
-37.923956
 20
-3.599436
 30
0.0
  0
VERTEX
  5
133
100
AcDbEntity
  8
LIVELLO_1
 62
     7
100
AcDbVertex
100
AcDb2dVertex
 10
-37.96857
 20
-3.976846
 30
0.0
  0
SEQEND
  5
134
100
AcDbEntity
  8
LIVELLO_1
 62
     7
  0
LINE
  5
127
100
AcDbEntity
  8
LIVELLO_1
 62
     7
100
AcDbLine
 10
-32.897906
 20
-62.409283
 30
0.0
 11
-32.853981
 21
-62.038935
 31
0.0
  0
LINE
  5
126
100
AcDbEntity
  8
LIVELLO_1
 62
     7
100
AcDbLine
 10
-47.088771
 20
-164.478333
 30
0.0
 11
-23.944447
 21
-164.478333
 31
0.0
  0
LINE
  5
125
100
AcDbEntity
  8
LIVELLO_1
 62
     7
100
AcDbLine
 10
-46.002877
 20
-160.737992
 30
0.0
 11
-25.033097
 21
-160.737992
 31
0.0
  0
LINE
  5
124
100
AcDbEntity
  8
LIVELLO_1
 62
     7
100
AcDbLine
 10
-45.884538
 20
-159.086758
 30
0.0
 11
-25.14868
 21
-159.086758
 31
0.0
  0
LINE
  5
123
100
AcDbEntity
  8
LIVELLO_1
 62
     7
100
AcDbLine
 10
-25.281661
 20
-157.581596
 30
0.0
 11
-45.752935
 21
-157.581596
 31
0.0
  0
LINE
  5
122
100
AcDbEntity
  8
LIVELLO_1
 62
     7
100
AcDbLine
 10
-25.444786
 20
-157.428634
 30
0.0
 11
-45.587054
 21
-157.428634
 31
0.0
  0
LINE
  5
121
100
AcDbEntity
  8
LIVELLO_1
 62
     7
100
AcDbLine
 10
-43.855204
 20
-154.641207
 30
0.0
 11
-27.178014
 21
-154.641207
 31
0.0
  0
LINE
  5
120
100
AcDbEntity
  8
LIVELLO_1
 62
     7
100
AcDbLine
 10
-39.551074
 20
-147.89192
 30
0.0
 11
-31.483694
 21
-147.89192
 31
0.0
  0
LINE
  5
11F
100
AcDbEntity
  8
LIVELLO_1
 62
     7
100
AcDbLine
 10
-39.17642
 20
-147.477475
 30
0.0
 11
-31.85542
 21
-147.477475
 31
0.0
  0
LINE
  5
11E
100
AcDbEntity
  8
LIVELLO_1
 62
     7
100
AcDbLine
 10
-43.562027
 20
-146.23104
 30
0.0
 11
-43.965447
 21
-145.870338
 31
0.0
  0
LINE
  5
11D
100
AcDbEntity
  8
LIVELLO_1
 62
     7
100
AcDbLine
 10
-32.508955
 20
-108.490019
 30
0.0
 11
-38.524264
 21
-108.490019
 31
0.0
  0
LINE
  5
11C
100
AcDbEntity
  8
LIVELLO_1
 62
     7
100
AcDbLine
 10
-32.146014
 20
-108.074196
 30
0.0
 11
-38.887204
 21
-108.074196
 31
0.0
  0
LINE
  5
11B
100
AcDbEntity
  8
LIVELLO_1
 62
     7
100
AcDbLine
 10
-29.868978
 20
-146.23104
 30
0.0
 11
-30.293069
 21
-145.870338
 31
0.0
  0
LINE
  5
11A
100
AcDbEntity
  8
LIVELLO_1
 62
     7
100
AcDbLine
 10
-43.62111
 20
-147.89192
 30
0.0
 11
-44.01988
 21
-147.477475
 31
0.0
  0
LINE
  5
119
100
AcDbEntity
  8
LIVELLO_1
 62
     7
100
AcDbLine
 10
-41.74405
 20
-94.13465
 30
0.0
 11
-29.290546
 21
-94.13465
 31
0.0
  0
LINE
  5
118
100
AcDbEntity
  8
LIVELLO_1
 62
     7
100
AcDbLine
 10
-41.577479
 20
-93.975142
 30
0.0
 11
-29.457117
 21
-93.975142
 31
0.0
  0
LINE
  5
117
100
AcDbEntity
  8
LIVELLO_1
 62
     7
100
AcDbLine
 10
-31.483694
 20
-147.89192
 30
0.0
 11
-31.85542
 21
-147.477475
 31
0.0
  0
LINE
  5
116
100
AcDbEntity
  8
LIVELLO_1
 62
     7
100
AcDbLine
 10
-30.540255
 20
-92.730085
 30
0.0
 11
-40.492963
 21
-92.730085
 31
0.0
  0
LINE
  5
115
100
AcDbEntity
  8
LIVELLO_1
 62
     7
100
AcDbLine
 10
-40.456445
 20
-91.902573
 30
0.0
 11
-30.576773
 21
-91.902573
 31
0.0
  0
LINE
  5
114
100
AcDbEntity
  8
LIVELLO_1
 62
     7
100
AcDbLine
 10
-40.456445
 20
-89.245715
 30
0.0
 11
-30.576773
 21
-89.245715
 31
0.0
  0
LINE
  5
113
100
AcDbEntity
  8
LIVELLO_1
 62
     7
100
AcDbLine
 10
-30.333032
 20
-88.623531
 30
0.0
 11
-40.700186
 21
-88.623531
 31
0.0
  0
LINE
  5
112
100
AcDbEntity
  8
LIVELLO_1
 62
     7
100
AcDbLine
 10
-30.333032
 20
-87.378474
 30
0.0
 11
-40.700186
 21
-87.378474
 31
0.0
  0
LINE
  5
111
100
AcDbEntity
  8
LIVELLO_1
 62
     7
100
AcDbLine
 10
-40.455067
 20
-86.755945
 30
0.0
 11
-30.578151
 21
-86.755945
 31
0.0
  0
LINE
  5
110
100
AcDbEntity
  8
LIVELLO_1
 62
     7
100
AcDbLine
 10
-28.758968
 20
-109.319253
 30
0.0
 11
-28.330054
 21
-109.693735
 31
0.0
  0
LINE
  5
10F
100
AcDbEntity
  8
LIVELLO_1
 62
     7
100
AcDbLine
 10
-40.164473
 20
-109.319253
 30
0.0
 11
-39.761053
 21
-109.693735
 31
0.0
  0
LINE
  5
10E
100
AcDbEntity
  8
LIVELLO_1
 62
     7
100
AcDbLine
 10
-41.71046
 20
-80.66915
 30
0.0
 11
-29.32293
 21
-80.66915
 31
0.0
  0
LINE
  5
10D
100
AcDbEntity
  8
LIVELLO_1
 62
     7
100
AcDbLine
 10
-39.386399
 20
-73.732278
 30
0.0
 11
-31.648197
 21
-73.732278
 31
0.0
  0
LINE
  5
10C
100
AcDbEntity
  8
LIVELLO_1
 62
     7
100
AcDbLine
 10
-30.540255
 20
-72.382662
 30
0.0
 11
-40.492963
 21
-72.382662
 31
0.0
  0
LINE
  5
10B
100
AcDbEntity
  8
LIVELLO_1
 62
     7
100
AcDbLine
 10
-30.540255
 20
-71.578404
 30
0.0
 11
-40.492963
 21
-71.578404
 31
0.0
  0
LINE
  5
10A
100
AcDbEntity
  8
LIVELLO_1
 62
     7
100
AcDbLine
 10
-30.540255
 20
-70.336275
 30
0.0
 11
-40.492963
 21
-70.336275
 31
0.0
  0
LINE
  5
109
100
AcDbEntity
  8
LIVELLO_1
 62
     7
100
AcDbLine
 10
-28.803754
 20
-108.074196
 30
0.0
 11
-28.375357
 21
-108.490019
 31
0.0
  0
LINE
  5
108
100
AcDbEntity
  8
LIVELLO_1
 62
     7
100
AcDbLine
 10
-38.887204
 20
-108.074196
 30
0.0
 11
-38.524264
 21
-108.490019
 31
0.0
  0
LINE
  5
107
100
AcDbEntity
  8
LIVELLO_1
 62
     7
100
AcDbLine
 10
-31.233752
 20
-62.041691
 30
0.0
 11
-30.738692
 21
-62.038935
 31
0.0
  0
LINE
  5
106
100
AcDbEntity
  8
LIVELLO_1
 62
     7
100
AcDbLine
 10
-30.540255
 20
-69.091218
 30
0.0
 11
-40.492963
 21
-69.091218
 31
0.0
  0
LINE
  5
105
100
AcDbEntity
  8
LIVELLO_1
 62
     7
100
AcDbLine
 10
-36.527486
 20
-62.038935
 30
0.0
 11
-37.579618
 21
-62.041691
 31
0.0
  0
LINE
  5
104
100
AcDbEntity
  8
LIVELLO_1
 62
     7
100
AcDbLine
 10
-32.853981
 20
-62.038935
 30
0.0
 11
-34.016184
 21
-62.041691
 31
0.0
  0
LINE
  5
103
100
AcDbEntity
  8
LIVELLO_1
 62
     7
100
AcDbLine
 10
-39.701797
 20
-62.041691
 30
0.0
 11
-39.933135
 21
-62.041691
 31
0.0
  0
LINE
  5
102
100
AcDbEntity
  8
LIVELLO_1
 62
     7
100
AcDbLine
 10
-37.579618
 20
-62.041691
 30
0.0
 11
-38.182166
 21
-62.038935
 31
0.0
  0
LINE
  5
101
100
AcDbEntity
  8
LIVELLO_1
 62
     7
100
AcDbLine
 10
-34.016184
 20
-62.041691
 30
0.0
 11
-34.503665
 21
-62.038935
 31
0.0
  0
LINE
  5
100
100
AcDbEntity
  8
LIVELLO_1
 62
     7
100
AcDbLine
 10
-39.933135
 20
-62.041691
 30
0.0
 11
-40.296076
 21
-62.038935
 31
0.0
  0
LINE
  5
FF
100
AcDbEntity
  8
LIVELLO_1
 62
     7
100
AcDbLine
 10
-25.14868
 20
-159.086758
 30
0.0
 11
-25.281661
 21
-157.581596
 31
0.0
  0
LINE
  5
FE
100
AcDbEntity
  8
LIVELLO_1
 62
     7
100
AcDbLine
 10
-34.503665
 20
-62.038935
 30
0.0
 11
-34.686255
 21
-3.976846
 31
0.0
  0
LINE
  5
FD
100
AcDbEntity
  8
LIVELLO_1
 62
     7
100
AcDbLine
 10
-34.854892
 20
87.266336
 30
0.0
 11
-35.031109
 21
143.668922
 31
0.0
  0
LINE
  5
FC
100
AcDbEntity
  8
LIVELLO_1
 62
     7
100
AcDbLine
 10
-34.737931
 20
12.615078
 30
0.0
 11
-34.914148
 21
70.675789
 31
0.0
  0
LINE
  5
FB
100
AcDbEntity
  8
LIVELLO_1
 62
     7
100
AcDbLine
 10
-40.492963
 20
-71.578404
 30
0.0
 11
-40.492963
 21
-72.382662
 31
0.0
  0
LINE
  5
FA
100
AcDbEntity
  8
LIVELLO_1
 62
     7
100
AcDbLine
 10
-40.456445
 20
-88.623531
 30
0.0
 11
-40.456445
 21
-89.245715
 31
0.0
  0
LINE
  5
F9
100
AcDbEntity
  8
LIVELLO_1
 62
     7
100
AcDbLine
 10
-40.456445
 20
-91.902573
 30
0.0
 11
-40.456445
 21
-92.730085
 31
0.0
  0
LINE
  5
F8
100
AcDbEntity
  8
LIVELLO_1
 62
     7
100
AcDbLine
 10
-40.455067
 20
-86.755945
 30
0.0
 11
-40.455067
 21
-87.378474
 31
0.0
  0
LINE
  5
F7
100
AcDbEntity
  8
LIVELLO_1
 62
     7
100
AcDbLine
 10
-36.003487
 20
143.668922
 30
0.0
 11
-36.177637
 21
87.266336
 31
0.0
  0
LINE
  5
F6
100
AcDbEntity
  8
LIVELLO_1
 62
     7
100
AcDbLine
 10
-36.347135
 20
-3.976846
 30
0.0
 11
-36.527486
 21
-62.038935
 31
0.0
  0
LINE
  5
F5
100
AcDbEntity
  8
LIVELLO_1
 62
     7
100
AcDbLine
 10
-36.117003
 20
70.675789
 30
0.0
 11
-36.29477
 21
12.615078
 31
0.0
  0
LINE
  5
F4
100
AcDbEntity
  8
LIVELLO_1
 62
     7
100
AcDbLine
 10
-38.182166
 20
-62.038935
 30
0.0
 11
-37.96857
 21
-3.976846
 31
0.0
  0
LINE
  5
F3
100
AcDbEntity
  8
LIVELLO_1
 62
     7
100
AcDbLine
 10
-37.538966
 20
87.266336
 30
0.0
 11
-37.330366
 21
143.668922
 31
0.0
  0
LINE
  5
F2
100
AcDbEntity
  8
LIVELLO_1
 62
     7
100
AcDbLine
 10
-37.908108
 20
12.615078
 30
0.0
 11
-37.692617
 21
70.675789
 31
0.0
  0
LINE
  5
F1
100
AcDbEntity
  8
LIVELLO_1
 62
     7
100
AcDbLine
 10
-39.143347
 20
-3.976846
 30
0.0
 11
-39.610158
 21
-62.038935
 31
0.0
  0
LINE
  5
F0
100
AcDbEntity
  8
LIVELLO_1
 62
     7
100
AcDbLine
 10
-38.542867
 20
70.675789
 30
0.0
 11
-39.00985
 21
12.615078
 31
0.0
  0
LINE
  5
EF
100
AcDbEntity
  8
LIVELLO_1
 62
     7
100
AcDbLine
 10
-38.018179
 20
143.668922
 30
0.0
 11
-38.472759
 21
87.266336
 31
0.0
  0
LINE
  5
EE
100
AcDbEntity
  8
LIVELLO_1
 62
     7
100
AcDbLine
 10
-39.676992
 20
12.615078
 30
0.0
 11
-39.192957
 21
70.675789
 31
0.0
  0
LINE
  5
ED
100
AcDbEntity
  8
LIVELLO_1
 62
     7
100
AcDbLine
 10
-40.296076
 20
-62.038935
 30
0.0
 11
-39.814796
 21
-3.976846
 31
0.0
  0
LINE
  5
EC
100
AcDbEntity
  8
LIVELLO_1
 62
     7
100
AcDbLine
 10
-39.037927
 20
87.266336
 30
0.0
 11
-38.566983
 21
143.668922
 31
0.0
  0
LINE
  5
EB
100
AcDbEntity
  8
LIVELLO_1
 62
     7
100
AcDbLine
 10
-39.8334
 20
3.074231
 30
0.0
 11
-40.463336
 21
-69.091218
 31
0.0
  0
LINE
  5
EA
100
AcDbEntity
  8
LIVELLO_1
 62
     7
100
AcDbLine
 10
-38.530465
 20
152.376746
 30
0.0
 11
-39.159195
 21
80.214053
 31
0.0
  0
LINE
  5
E9
100
AcDbEntity
  8
LIVELLO_1
 62
     7
100
AcDbLine
 10
-39.181932
 20
77.726866
 30
0.0
 11
-39.810662
 21
5.56004
 31
0.0
  0
LINE
  5
E8
100
AcDbEntity
  8
LIVELLO_1
 62
     7
100
AcDbLine
 10
-46.002877
 20
-185.218152
 30
0.0
 11
-45.79152
 21
-170.526887
 31
0.0
  0
LINE
  5
E7
100
AcDbEntity
  8
LIVELLO_1
 62
     7
100
AcDbLine
 10
-45.334356
 20
-185.218152
 30
0.0
 11
-45.117487
 21
-170.28573
 31
0.0
  0
LINE
  5
E6
100
AcDbEntity
  8
LIVELLO_1
 62
     7
100
AcDbLine
 10
-44.327699
 20
-165.628305
 30
0.0
 11
-44.309096
 21
-164.478333
 31
0.0
  0
LINE
  5
E5
100
AcDbEntity
  8
LIVELLO_1
 62
     7
100
AcDbLine
 10
-40.164473
 20
-109.319253
 30
0.0
 11
-41.164412
 21
-146.23104
 31
0.0
  0
LINE
  5
E4
100
AcDbEntity
  8
LIVELLO_1
 62
     7
100
AcDbLine
 10
-39.761053
 20
-109.693735
 30
0.0
 11
-40.740149
 21
-145.870338
 31
0.0
  0
LINE
  5
E3
100
AcDbEntity
  8
LIVELLO_1
 62
     7
100
AcDbLine
 10
-42.223435
 20
-154.641207
 30
0.0
 11
-40.569444
 21
-94.13465
 31
0.0
  0
LINE
  5
E2
100
AcDbEntity
  8
LIVELLO_1
 62
     7
100
AcDbLine
 10
-50.033122
 20
-185.218152
 30
0.0
 11
-49.520147
 21
-170.526887
 31
0.0
  0
LINE
  5
E1
100
AcDbEntity
  8
LIVELLO_1
 62
     7
100
AcDbLine
 10
-47.129423
 20
-165.628305
 30
0.0
 11
-47.088771
 21
-164.478333
 31
0.0
  0
LINE
  5
E0
100
AcDbEntity
  8
LIVELLO_1
 62
     7
100
AcDbLine
 10
-44.01988
 20
-147.477475
 30
0.0
 11
-42.660617
 21
-108.490019
 31
0.0
  0
LINE
  5
DF
100
AcDbEntity
  8
LIVELLO_1
 62
     7
100
AcDbLine
 10
-43.855204
 20
-154.641207
 30
0.0
 11
-41.74405
 21
-94.13465
 31
0.0
  0
LINE
  5
DE
100
AcDbEntity
  8
LIVELLO_1
 62
     7
100
AcDbLine
 10
-49.560799
 20
-185.218152
 30
0.0
 11
-49.036111
 21
-170.28573
 31
0.0
  0
LINE
  5
DD
100
AcDbEntity
  8
LIVELLO_1
 62
     7
100
AcDbLine
 10
-43.811279
 20
-159.086758
 30
0.0
 11
-43.757536
 21
-157.581596
 31
0.0
  0
LINE
  5
DC
100
AcDbEntity
  8
LIVELLO_1
 62
     7
100
AcDbLine
 10
-32.535137
 20
86.989522
 30
0.0
 11
-32.559253
 21
87.266336
 31
0.0
  0
LINE
  5
DB
100
AcDbEntity
  8
LIVELLO_1
 62
     7
100
AcDbLine
 10
-27.222111
 20
-159.086758
 30
0.0
 11
-27.276371
 21
-157.581596
 31
0.0
  0
LINE
  5
DA
100
AcDbEntity
  8
LIVELLO_1
 62
     7
100
AcDbLine
 10
-21.472419
 20
-185.218152
 30
0.0
 11
-21.995729
 21
-170.28573
 31
0.0
  0
LINE
  5
D9
100
AcDbEntity
  8
LIVELLO_1
 62
     7
100
AcDbLine
 10
-27.178014
 20
-154.641207
 30
0.0
 11
-29.290546
 21
-94.13465
 31
0.0
  0
LINE
  5
D8
100
AcDbEntity
  8
LIVELLO_1
 62
     7
100
AcDbLine
 10
-28.375357
 20
-108.490019
 30
0.0
 11
-27.013338
 21
-147.477475
 31
0.0
  0
LINE
  5
D7
100
AcDbEntity
  8
LIVELLO_1
 62
     7
100
AcDbLine
 10
-23.903795
 20
-165.628305
 30
0.0
 11
-23.944447
 21
-164.478333
 31
0.0
  0
LINE
  5
D6
100
AcDbEntity
  8
LIVELLO_1
 62
     7
100
AcDbLine
 10
-21.001474
 20
-185.218152
 30
0.0
 11
-21.514449
 21
-170.526887
 31
0.0
  0
LINE
  5
D5
100
AcDbEntity
  8
LIVELLO_1
 62
     7
100
AcDbLine
 10
-28.809956
 20
-154.641207
 30
0.0
 11
-30.463946
 21
-94.13465
 31
0.0
  0
LINE
  5
D4
100
AcDbEntity
  8
LIVELLO_1
 62
     7
100
AcDbLine
 10
-30.293069
 20
-145.870338
 30
0.0
 11
-31.273716
 21
-109.693735
 31
0.0
  0
LINE
  5
D3
100
AcDbEntity
  8
LIVELLO_1
 62
     7
100
AcDbLine
 10
-29.868978
 20
-146.23104
 30
0.0
 11
-30.868745
 21
-109.319253
 31
0.0
  0
LINE
  5
D2
100
AcDbEntity
  8
LIVELLO_1
 62
     7
100
AcDbLine
 10
-26.707069
 20
-165.628305
 30
0.0
 11
-26.722917
 21
-164.478333
 31
0.0
  0
LINE
  5
D1
100
AcDbEntity
  8
LIVELLO_1
 62
     7
100
AcDbLine
 10
-25.70024
 20
-185.218152
 30
0.0
 11
-25.917281
 21
-170.28573
 31
0.0
  0
LINE
  5
D0
100
AcDbEntity
  8
LIVELLO_1
 62
     7
100
AcDbLine
 10
-25.031719
 20
-185.218152
 30
0.0
 11
-25.243076
 21
-170.526887
 31
0.0
  0
LINE
  5
CF
100
AcDbEntity
  8
LIVELLO_1
 62
     7
100
AcDbLine
 10
-31.851286
 20
77.726866
 30
0.0
 11
-31.22135
 21
5.56004
 31
0.0
  0
LINE
  5
CE
100
AcDbEntity
  8
LIVELLO_1
 62
     7
100
AcDbLine
 10
-32.502753
 20
152.376746
 30
0.0
 11
-31.874023
 21
80.214053
 31
0.0
  0
LINE
  5
CD
100
AcDbEntity
  8
LIVELLO_1
 62
     7
100
AcDbLine
 10
-31.199991
 20
3.074231
 30
0.0
 11
-30.569883
 21
-69.091218
 31
0.0
  0
LINE
  5
CC
100
AcDbEntity
  8
LIVELLO_1
 62
     7
100
AcDbLine
 10
-32.464857
 20
143.668922
 30
0.0
 11
-31.996669
 21
87.266336
 31
0.0
  0
LINE
  5
CB
100
AcDbEntity
  8
LIVELLO_1
 62
     7
100
AcDbLine
 10
-31.219972
 20
-3.976846
 30
0.0
 11
-30.738692
 21
-62.038935
 31
0.0
  0
LINE
  5
CA
100
AcDbEntity
  8
LIVELLO_1
 62
     7
100
AcDbLine
 10
-31.840262
 20
70.675789
 30
0.0
 11
-31.354848
 21
12.615078
 31
0.0
  0
LINE
  5
C9
100
AcDbEntity
  8
LIVELLO_1
 62
     7
100
AcDbLine
 10
-32.024919
 20
12.615078
 30
0.0
 11
-32.491729
 21
70.675789
 31
0.0
  0
LINE
  5
C8
100
AcDbEntity
  8
LIVELLO_1
 62
     7
100
AcDbLine
 10
-31.42306
 20
-62.038935
 30
0.0
 11
-31.889871
 21
-3.976846
 31
0.0
  0
LINE
  5
C7
100
AcDbEntity
  8
LIVELLO_1
 62
     7
100
AcDbLine
 10
-32.559253
 20
87.266336
 30
0.0
 11
-33.015039
 21
143.668922
 31
0.0
  0
LINE
  5
C6
100
AcDbEntity
  8
LIVELLO_1
 62
     7
100
AcDbLine
 10
-33.701474
 20
143.668922
 30
0.0
 11
-33.494252
 21
87.266336
 31
0.0
  0
LINE
  5
C5
100
AcDbEntity
  8
LIVELLO_1
 62
     7
100
AcDbLine
 10
-33.063959
 20
-3.976846
 30
0.0
 11
-32.853981
 21
-62.038935
 31
0.0
  0
LINE
  5
C4
100
AcDbEntity
  8
LIVELLO_1
 62
     7
100
AcDbLine
 10
-33.342151
 20
70.675789
 30
0.0
 11
-33.12666
 21
12.615078
 31
0.0
  0
LINE
  5
C3
100
AcDbEntity
  8
LIVELLO_1
 62
     7
100
AcDbLine
 10
-30.578151
 20
-86.755945
 30
0.0
 11
-30.578151
 21
-87.378474
 31
0.0
  0
LINE
  5
C2
100
AcDbEntity
  8
LIVELLO_1
 62
     7
100
AcDbLine
 10
-30.576773
 20
-88.623531
 30
0.0
 11
-30.576773
 21
-89.245715
 31
0.0
  0
LINE
  5
C1
100
AcDbEntity
  8
LIVELLO_1
 62
     7
100
AcDbLine
 10
-30.576773
 20
-91.902573
 30
0.0
 11
-30.576773
 21
-92.730085
 31
0.0
  0
LINE
  5
C0
100
AcDbEntity
  8
LIVELLO_1
 62
     7
100
AcDbLine
 10
-30.540255
 20
-71.578404
 30
0.0
 11
-30.540255
 21
-72.382662
 31
0.0
  0
LINE
  5
BF
100
AcDbEntity
  8
LIVELLO_1
 62
     7
100
AcDbLine
 10
-45.884538
 20
-159.086758
 30
0.0
 11
-45.752935
 21
-157.581596
 31
0.0
  0
LINE
  5
BE
100
AcDbEntity
  8
LIVELLO_1
 62
     7
100
AcDbLine
 10
-39.143347
 20
-3.976846
 30
0.0
 11
-39.197091
 21
-3.976846
 31
0.0
  0
LINE
  5
BD
100
AcDbEntity
  8
LIVELLO_1
 62
     7
100
AcDbLine
 10
-31.219972
 20
-3.976846
 30
0.0
 11
-31.701941
 21
-3.976846
 31
0.0
  0
LINE
  5
BC
100
AcDbEntity
  8
LIVELLO_1
 62
     7
100
AcDbLine
 10
-36.347135
 20
-3.976846
 30
0.0
 11
-37.096271
 21
-3.976846
 31
0.0
  0
LINE
  5
BB
100
AcDbEntity
  8
LIVELLO_1
 62
     7
100
AcDbLine
 10
-33.063959
 20
-3.976846
 30
0.0
 11
-33.935741
 21
-3.976846
 31
0.0
  0
LINE
  5
BA
100
AcDbEntity
  8
LIVELLO_1
 62
     7
100
AcDbLine
 10
-37.96857
 20
-3.976846
 30
0.0
 11
-37.096271
 21
-3.976846
 31
0.0
  0
LINE
  5
B9
100
AcDbEntity
  8
LIVELLO_1
 62
     7
100
AcDbLine
 10
-34.686255
 20
-3.976846
 30
0.0
 11
-33.935741
 21
-3.976846
 31
0.0
  0
LINE
  5
B8
100
AcDbEntity
  8
LIVELLO_1
 62
     7
100
AcDbLine
 10
-31.162094
 20
3.074231
 30
0.0
 11
-39.871124
 21
3.074231
 31
0.0
  0
LINE
  5
B7
100
AcDbEntity
  8
LIVELLO_1
 62
     7
100
AcDbLine
 10
-31.162094
 20
4.319116
 30
0.0
 11
-39.871124
 21
4.319116
 31
0.0
  0
LINE
  5
B6
100
AcDbEntity
  8
LIVELLO_1
 62
     7
100
AcDbLine
 10
-31.162094
 20
5.56004
 30
0.0
 11
-39.871124
 21
5.56004
 31
0.0
  0
LINE
  5
B5
100
AcDbEntity
  8
LIVELLO_1
 62
     7
100
AcDbLine
 10
-39.064799
 20
12.615078
 30
0.0
 11
-39.00985
 21
12.615078
 31
0.0
  0
LINE
  5
B4
100
AcDbEntity
  8
LIVELLO_1
 62
     7
100
AcDbLine
 10
-31.836127
 20
12.612322
 30
0.0
 11
-31.354848
 21
12.615078
 31
0.0
  0
LINE
  5
B3
100
AcDbEntity
  8
LIVELLO_1
 62
     7
100
AcDbLine
 10
-32.480705
 20
86.758184
 30
0.0
 11
-32.535137
 21
86.989522
 31
0.0
  0
LINE
  5
B2
100
AcDbEntity
  8
LIVELLO_1
 62
     7
100
AcDbLine
 10
-32.146014
 20
-108.074196
 30
0.0
 11
-32.508955
 21
-108.490019
 31
0.0
  0
LINE
  5
B1
100
AcDbEntity
  8
LIVELLO_1
 62
     7
100
AcDbLine
 10
-42.230325
 20
-108.074196
 30
0.0
 11
-42.660617
 21
-108.490019
 31
0.0
  0
LINE
  5
B0
100
AcDbEntity
  8
LIVELLO_1
 62
     7
100
AcDbLine
 10
-42.272872
 20
-109.319253
 30
0.0
 11
-42.701959
 21
-109.693735
 31
0.0
  0
LINE
  5
AF
100
AcDbEntity
  8
LIVELLO_1
 62
     7
100
AcDbLine
 10
-30.868745
 20
-109.319253
 30
0.0
 11
-31.273716
 21
-109.693735
 31
0.0
  0
LINE
  5
AE
100
AcDbEntity
  8
LIVELLO_1
 62
     7
100
AcDbLine
 10
-39.551074
 20
-147.89192
 30
0.0
 11
-39.17642
 21
-147.477475
 31
0.0
  0
LINE
  5
AD
100
AcDbEntity
  8
LIVELLO_1
 62
     7
100
AcDbLine
 10
-38.599367
 20
70.675789
 30
0.0
 11
-38.542867
 21
70.675789
 31
0.0
  0
LINE
  5
AC
100
AcDbEntity
  8
LIVELLO_1
 62
     7
100
AcDbLine
 10
-32.304488
 20
70.675789
 30
0.0
 11
-31.840262
 21
70.675789
 31
0.0
  0
LINE
  5
AB
100
AcDbEntity
  8
LIVELLO_1
 62
     7
100
AcDbLine
 10
-31.851286
 20
77.726866
 30
0.0
 11
-39.181932
 21
77.726866
 31
0.0
  0
LINE
  5
AA
100
AcDbEntity
  8
LIVELLO_1
 62
     7
100
AcDbLine
 10
-27.413486
 20
-147.89192
 30
0.0
 11
-27.013338
 21
-147.477475
 31
0.0
  0
LINE
  5
A9
100
AcDbEntity
  8
LIVELLO_1
 62
     7
100
AcDbLine
 10
-27.471364
 20
-146.23104
 30
0.0
 11
-27.069149
 21
-145.870338
 31
0.0
  0
LINE
  5
A8
100
AcDbEntity
  8
LIVELLO_1
 62
     7
100
AcDbLine
 10
-41.164412
 20
-146.23104
 30
0.0
 11
-40.740149
 21
-145.870338
 31
0.0
  0
LINE
  5
A7
100
AcDbEntity
  8
LIVELLO_1
 62
     7
100
AcDbLine
 10
-32.436608
 20
87.262202
 30
0.0
 11
-31.996669
 21
87.266336
 31
0.0
  0
LINE
  5
A6
100
AcDbEntity
  8
LIVELLO_1
 62
     7
100
AcDbLine
 10
-36.791208
 20
87.262202
 30
0.0
 11
-36.177637
 21
87.266336
 31
0.0
  0
LINE
  5
A5
100
AcDbEntity
  8
LIVELLO_1
 62
     7
100
AcDbLine
 10
-31.862999
 20
78.968995
 30
0.0
 11
-39.170219
 21
78.968995
 31
0.0
  0
LINE
  5
A4
100
AcDbEntity
  8
LIVELLO_1
 62
     7
100
AcDbLine
 10
-39.170219
 20
80.214053
 30
0.0
 11
-31.862999
 21
80.214053
 31
0.0
  0
LINE
  5
A3
100
AcDbEntity
  8
LIVELLO_1
 62
     7
100
AcDbLine
 10
-33.494252
 20
87.266336
 30
0.0
 11
-34.465941
 21
87.262202
 31
0.0
  0
LINE
  5
A2
100
AcDbEntity
  8
LIVELLO_1
 62
     7
100
AcDbLine
 10
-38.517373
 20
87.262202
 30
0.0
 11
-38.710988
 21
87.262202
 31
0.0
  0
LINE
  5
A1
100
AcDbEntity
  8
LIVELLO_1
 62
     7
100
AcDbLine
 10
-36.791208
 20
87.262202
 30
0.0
 11
-37.538966
 21
87.266336
 31
0.0
  0
LINE
  5
A0
100
AcDbEntity
  8
LIVELLO_1
 62
     7
100
AcDbLine
 10
-34.465941
 20
87.262202
 30
0.0
 11
-34.854892
 21
87.266336
 31
0.0
  0
LINE
  5
9F
100
AcDbEntity
  8
LIVELLO_1
 62
     7
100
AcDbLine
 10
-38.710988
 20
87.262202
 30
0.0
 11
-39.037927
 21
87.266336
 31
0.0
  0
LINE
  5
9E
100
AcDbEntity
  8
LIVELLO_1
 62
     7
100
AcDbLine
 10
-32.892394
 20
143.667544
 30
0.0
 11
-32.464857
 21
143.668922
 31
0.0
  0
LINE
  5
9D
100
AcDbEntity
  8
LIVELLO_1
 62
     7
100
AcDbLine
 10
-36.603967
 20
143.667544
 30
0.0
 11
-36.003487
 21
143.668922
 31
0.0
  0
LINE
  5
9C
100
AcDbEntity
  8
LIVELLO_1
 62
     7
100
AcDbLine
 10
-38.530465
 20
152.376746
 30
0.0
 11
-32.502753
 21
152.376746
 31
0.0
  0
LINE
  5
9B
100
AcDbEntity
  8
LIVELLO_1
 62
     7
100
AcDbLine
 10
-33.701474
 20
143.668922
 30
0.0
 11
-34.650426
 21
143.667544
 31
0.0
  0
LINE
  5
9A
100
AcDbEntity
  8
LIVELLO_1
 62
     7
100
AcDbLine
 10
-38.063654
 20
143.667544
 30
0.0
 11
-38.252273
 21
143.667544
 31
0.0
  0
LINE
  5
99
100
AcDbEntity
  8
LIVELLO_1
 62
     7
100
AcDbLine
 10
-36.603967
 20
143.667544
 30
0.0
 11
-37.330366
 21
143.668922
 31
0.0
  0
LINE
  5
98
100
AcDbEntity
  8
LIVELLO_1
 62
     7
100
AcDbLine
 10
-34.650426
 20
143.667544
 30
0.0
 11
-35.031109
 21
143.668922
 31
0.0
  0
LINE
  5
97
100
AcDbEntity
  8
LIVELLO_1
 62
     7
100
AcDbLine
 10
-38.252273
 20
143.667544
 30
0.0
 11
-38.566983
 21
143.668922
 31
0.0
  0
SPLINE
  5
96
100
AcDbEntity
  8
LIVELLO_1
 62
     7
100
AcDbSpline
210
0.0
220
0.0
230
1.0
 70
     8
 71
     3
 72
    11
 73
     7
 74
     0
 42
0.00000001
 43
0.00000001
 40
0.0
 40
0.0
 40
0.0
 40
0.0
 40
1.0
 40
1.0
 40
1.0
 40
2.0
 40
2.0
 40
2.0
 40
2.0
 10
-30.532675509982635
 20
-93.975142415364573
 30
0.0
 10
-30.190577528211804
 20
-93.971008300781236
 30
0.0
 10
-29.913764105902775
 20
-93.68713243272569
 30
0.0
 10
-29.917898220486109
 20
-93.345723470052079
 30
0.0
 10
-29.922721354166665
 20
-93.003969997829856
 30
0.0
 10
-30.198845757378468
 20
-92.730084906684013
 30
0.0
 10
-30.540254720052079
 20
-92.730084906684013
 30
0.0
  0
SPLINE
  5
95
100
AcDbEntity
  8
LIVELLO_1
 62
     7
100
AcDbSpline
210
0.0
220
0.0
230
1.0
 70
     8
 71
     3
 72
    11
 73
     7
 74
     0
 42
0.00000001
 43
0.00000001
 40
0.0
 40
0.0
 40
0.0
 40
0.0
 40
1.0
 40
1.0
 40
1.0
 40
2.0
 40
2.0
 40
2.0
 40
2.0
 10
-40.492963324652777
 20
-92.730084906684013
 30
0.0
 10
-40.835922580295133
 20
-92.730084906684013
 30
0.0
 10
-41.116870117187496
 20
-93.008104112413193
 30
0.0
 10
-41.116870117187496
 20
-93.352613661024293
 30
0.0
 10
-41.116870117187496
 20
-93.694022623697904
 30
0.0
 10
-40.84005669487847
 20
-93.971008300781236
 30
0.0
 10
-40.50192057291666
 20
-93.975142415364573
 30
0.0
  0
SPLINE
  5
94
100
AcDbEntity
  8
LIVELLO_1
 62
     7
100
AcDbSpline
210
0.0
220
0.0
230
1.0
 70
     8
 71
     3
 72
    11
 73
     7
 74
     0
 42
0.00000001
 43
0.00000001
 40
0.0
 40
0.0
 40
0.0
 40
0.0
 40
1.0
 40
1.0
 40
1.0
 40
2.0
 40
2.0
 40
2.0
 40
2.0
 10
-30.333032226562498
 20
-88.62353108723957
 30
0.0
 10
-29.988694932725693
 20
-88.62353108723957
 30
0.0
 10
-29.710503472222218
 20
-88.345167371961793
 30
0.0
 10
-29.710503472222218
 20
-88.001002332899304
 30
0.0
 10
-29.710503472222218
 20
-87.65649278428819
 30
0.0
 10
-29.988694932725693
 20
-87.378473578559024
 30
0.0
 10
-30.333032226562498
 20
-87.378473578559024
 30
0.0
  0
SPLINE
  5
93
100
AcDbEntity
  8
LIVELLO_1
 62
     7
100
AcDbSpline
210
0.0
220
0.0
230
1.0
 70
     8
 71
     3
 72
    11
 73
     7
 74
     0
 42
0.00000001
 43
0.00000001
 40
0.0
 40
0.0
 40
0.0
 40
0.0
 40
1.0
 40
1.0
 40
1.0
 40
2.0
 40
2.0
 40
2.0
 40
2.0
 10
-40.700185818142359
 20
-87.378473578559024
 30
0.0
 10
-41.04452311197916
 20
-87.378473578559024
 30
0.0
 10
-41.322714572482639
 20
-87.65649278428819
 30
0.0
 10
-41.322714572482639
 20
-88.001002332899304
 30
0.0
 10
-41.322714572482639
 20
-88.345167371961793
 30
0.0
 10
-41.04452311197916
 20
-88.62353108723957
 30
0.0
 10
-40.700185818142359
 20
-88.62353108723957
 30
0.0
  0
SPLINE
  5
92
100
AcDbEntity
  8
LIVELLO_1
 62
     7
100
AcDbSpline
210
0.0
220
0.0
230
1.0
 70
     8
 71
     3
 72
    11
 73
     7
 74
     0
 42
0.00000001
 43
0.00000001
 40
0.0
 40
0.0
 40
0.0
 40
0.0
 40
1.0
 40
1.0
 40
1.0
 40
2.0
 40
2.0
 40
2.0
 40
2.0
 10
-30.540254720052079
 20
-71.578404405381931
 30
0.0
 10
-30.197467719184026
 20
-71.578404405381931
 30
0.0
 10
-29.917898220486109
 20
-71.300212944878467
 30
0.0
 10
-29.917898220486109
 20
-70.957253689236111
 30
0.0
 10
-29.917898220486109
 20
-70.614466688368054
 30
0.0
 10
-30.197467719184026
 20
-70.336275227864576
 30
0.0
 10
-30.540254720052079
 20
-70.336275227864576
 30
0.0
  0
SPLINE
  5
91
100
AcDbEntity
  8
LIVELLO_1
 62
     7
100
AcDbSpline
210
0.0
220
0.0
230
1.0
 70
     8
 71
     3
 72
    11
 73
     7
 74
     0
 42
0.00000001
 43
0.00000001
 40
0.0
 40
0.0
 40
0.0
 40
0.0
 40
1.0
 40
1.0
 40
1.0
 40
2.0
 40
2.0
 40
2.0
 40
2.0
 10
-40.456445312499994
 20
-91.902572970920133
 30
0.0
 10
-39.723156738281247
 20
-91.51672227647569
 30
0.0
 10
-39.439453124999993
 20
-90.609284125434016
 30
0.0
 10
-39.823753526475691
 20
-89.876512315538193
 30
0.0
 10
-39.96414116753472
 20
-89.605383300781241
 30
0.0
 10
-40.185833062065967
 20
-89.386275227864573
 30
0.0
 10
-40.456445312499994
 20
-89.245715332031239
 30
0.0
  0
SPLINE
  5
90
100
AcDbEntity
  8
LIVELLO_1
 62
     7
100
AcDbSpline
210
0.0
220
0.0
230
1.0
 70
     8
 71
     3
 72
    11
 73
     7
 74
     0
 42
0.00000001
 43
0.00000001
 40
0.0
 40
0.0
 40
0.0
 40
0.0
 40
1.0
 40
1.0
 40
1.0
 40
2.0
 40
2.0
 40
2.0
 40
2.0
 10
-40.492963324652777
 20
-70.336275227864576
 30
0.0
 10
-40.835922580295133
 20
-70.336275227864576
 30
0.0
 10
-41.116870117187496
 20
-70.614466688368054
 30
0.0
 10
-41.116870117187496
 20
-70.957253689236111
 30
0.0
 10
-41.116870117187496
 20
-71.300212944878467
 30
0.0
 10
-40.835922580295133
 20
-71.578404405381931
 30
0.0
 10
-40.492963324652777
 20
-71.578404405381931
 30
0.0
  0
SPLINE
  5
8F
100
AcDbEntity
  8
LIVELLO_1
 62
     7
100
AcDbSpline
210
0.0
220
0.0
230
1.0
 70
     8
 71
     3
 72
    11
 73
     7
 74
     0
 42
0.00000001
 43
0.00000001
 40
0.0
 40
0.0
 40
0.0
 40
0.0
 40
1.0
 40
1.0
 40
1.0
 40
2.0
 40
2.0
 40
2.0
 40
2.0
 10
-41.710460069444437
 20
-80.669150119357639
 30
0.0
 10
-43.158433702256943
 20
-82.135727267795133
 30
0.0
 10
-43.146031358506939
 20
-84.500096299913181
 30
0.0
 10
-41.682210286458329
 20
-85.949103461371521
 30
0.0
 10
-41.32960476345486
 20
-86.296024576822916
 30
0.0
 10
-40.913609483506939
 20
-86.573010253906247
 30
0.0
 10
-40.455067274305549
 20
-86.755944824218744
 30
0.0
  0
SPLINE
  5
8E
100
AcDbEntity
  8
LIVELLO_1
 62
     7
100
AcDbSpline
210
0.0
220
0.0
230
1.0
 70
     8
 71
     3
 72
     8
 73
     4
 74
     0
 42
0.00000001
 43
0.00000001
 40
0.0
 40
0.0
 40
0.0
 40
0.0
 40
1.0
 40
1.0
 40
1.0
 40
1.0
 10
-41.710460069444437
 20
-80.669150119357639
 30
0.0
 10
-39.900751410590274
 20
-78.842905002170127
 30
0.0
 10
-39.043439398871527
 20
-76.279926215277769
 30
0.0
 10
-39.386398654513883
 20
-73.732278103298611
 30
0.0
  0
SPLINE
  5
8D
100
AcDbEntity
  8
LIVELLO_1
 62
     7
100
AcDbSpline
210
0.0
220
0.0
230
1.0
 70
     8
 71
     3
 72
     8
 73
     4
 74
     0
 42
0.00000001
 43
0.00000001
 40
0.0
 40
0.0
 40
0.0
 40
0.0
 40
1.0
 40
1.0
 40
1.0
 40
1.0
 10
-39.386398654513883
 20
-73.732278103298611
 30
0.0
 10
-39.471148003472216
 20
-73.10699327256944
 30
0.0
 10
-39.897995334201383
 20
-72.585061306423611
 30
0.0
 10
-40.492963324652777
 20
-72.382661946614576
 30
0.0
  0
SPLINE
  5
8C
100
AcDbEntity
  8
LIVELLO_1
 62
     7
100
AcDbSpline
210
0.0
220
0.0
230
1.0
 70
     8
 71
     3
 72
    11
 73
     7
 74
     0
 42
0.00000001
 43
0.00000001
 40
0.0
 40
0.0
 40
0.0
 40
0.0
 40
1.0
 40
1.0
 40
1.0
 40
2.0
 40
2.0
 40
2.0
 40
2.0
 10
-30.576772732204859
 20
-89.245715332031239
 30
0.0
 10
-31.311439344618051
 20
-89.627431911892359
 30
0.0
 10
-31.593075900607637
 20
-90.536248101128464
 30
0.0
 10
-31.209636773003471
 20
-91.269019911024301
 30
0.0
 10
-31.067698838975691
 20
-91.540148925781239
 30
0.0
 10
-30.848763020833331
 20
-91.757878960503461
 30
0.0
 10
-30.576772732204859
 20
-91.902572970920133
 30
0.0
  0
SPLINE
  5
8B
100
AcDbEntity
  8
LIVELLO_1
 62
     7
100
AcDbSpline
210
0.0
220
0.0
230
1.0
 70
     8
 71
     3
 72
     8
 73
     4
 74
     0
 42
0.00000001
 43
0.00000001
 40
0.0
 40
0.0
 40
0.0
 40
0.0
 40
1.0
 40
1.0
 40
1.0
 40
1.0
 10
-30.540254720052079
 20
-72.382661946614576
 30
0.0
 10
-31.13522271050347
 20
-72.585061306423611
 30
0.0
 10
-31.563448079427079
 20
-73.10699327256944
 30
0.0
 10
-31.648197428385412
 20
-73.732278103298611
 30
0.0
  0
SPLINE
  5
8A
100
AcDbEntity
  8
LIVELLO_1
 62
     7
100
AcDbSpline
210
0.0
220
0.0
230
1.0
 70
     8
 71
     3
 72
     8
 73
     4
 74
     0
 42
0.00000001
 43
0.00000001
 40
0.0
 40
0.0
 40
0.0
 40
0.0
 40
1.0
 40
1.0
 40
1.0
 40
1.0
 10
-31.648197428385412
 20
-73.732278103298611
 30
0.0
 10
-31.991156684027775
 20
-76.279926215277769
 30
0.0
 10
-31.132466634114582
 20
-78.842905002170127
 30
0.0
 10
-29.322930230034718
 20
-80.669150119357639
 30
0.0
  0
SPLINE
  5
89
100
AcDbEntity
  8
LIVELLO_1
 62
     7
100
AcDbSpline
210
0.0
220
0.0
230
1.0
 70
     8
 71
     3
 72
    11
 73
     7
 74
     0
 42
0.00000001
 43
0.00000001
 40
0.0
 40
0.0
 40
0.0
 40
0.0
 40
1.0
 40
1.0
 40
1.0
 40
2.0
 40
2.0
 40
2.0
 40
2.0
 10
-30.578150770399304
 20
-86.755944824218744
 30
0.0
 10
-28.667328559027776
 20
-85.983554416232636
 30
0.0
 10
-27.743353949652775
 20
-83.809010145399299
 30
0.0
 10
-28.516605631510416
 20
-81.897326660156239
 30
0.0
 10
-28.701090494791664
 20
-81.440162489149301
 30
0.0
 10
-28.975836859809025
 20
-81.022961425781247
 30
0.0
 10
-29.322930230034718
 20
-80.669150119357639
 30
0.0
  0
SPLINE
  5
88
100
AcDbEntity
  8
LIVELLO_1
 62
     7
100
AcDbSpline
210
0.0
220
0.0
230
1.0
 70
     8
 71
     3
 72
    11
 73
     7
 74
     0
 42
0.00000001
 43
0.00000001
 40
0.0
 40
0.0
 40
0.0
 40
0.0
 40
1.0
 40
1.0
 40
1.0
 40
2.0
 40
2.0
 40
2.0
 40
2.0
 10
-31.862999131944441
 20
78.968995496961796
 30
0.0
 10
-31.520212131076384
 20
78.968995496961796
 30
0.0
 10
-31.240642632378471
 20
79.24856499565972
 30
0.0
 10
-31.240642632378471
 20
79.591524251302076
 30
0.0
 10
-31.240642632378471
 20
79.937067328559024
 30
0.0
 10
-31.520212131076384
 20
80.214053005642356
 30
0.0
 10
-31.862999131944441
 20
80.214053005642356
 30
0.0
  0
SPLINE
  5
87
100
AcDbEntity
  8
LIVELLO_1
 62
     7
100
AcDbSpline
210
0.0
220
0.0
230
1.0
 70
     8
 71
     3
 72
    11
 73
     7
 74
     0
 42
0.00000001
 43
0.00000001
 40
0.0
 40
0.0
 40
0.0
 40
0.0
 40
1.0
 40
1.0
 40
1.0
 40
2.0
 40
2.0
 40
2.0
 40
2.0
 10
-39.170218912760411
 20
80.214053005642356
 30
0.0
 10
-39.51455620659722
 20
80.214053005642356
 30
0.0
 10
-39.792058648003469
 20
79.937067328559024
 30
0.0
 10
-39.792058648003469
 20
79.591524251302076
 30
0.0
 10
-39.792058648003469
 20
79.24856499565972
 30
0.0
 10
-39.51455620659722
 20
78.968995496961796
 30
0.0
 10
-39.170218912760411
 20
78.968995496961796
 30
0.0
  0
SPLINE
  5
86
100
AcDbEntity
  8
LIVELLO_1
 62
     7
100
AcDbSpline
210
0.0
220
0.0
230
1.0
 70
     8
 71
     3
 72
    11
 73
     7
 74
     0
 42
0.00000001
 43
0.00000001
 40
0.0
 40
0.0
 40
0.0
 40
0.0
 40
1.0
 40
1.0
 40
1.0
 40
2.0
 40
2.0
 40
2.0
 40
2.0
 10
-31.162094455295136
 20
4.3191162109374996
 30
0.0
 10
-30.819135199652774
 20
4.3191162109374996
 30
0.0
 10
-30.540254720052079
 20
4.5959296332465271
 30
0.0
 10
-30.540254720052079
 20
4.9388888888888882
 30
0.0
 10
-30.540254720052079
 20
5.2818481445312493
 30
0.0
 10
-30.819135199652774
 20
5.5600396050347216
 30
0.0
 10
-31.162094455295136
 20
5.5600396050347216
 30
0.0
  0
SPLINE
  5
85
100
AcDbEntity
  8
LIVELLO_1
 62
     7
100
AcDbSpline
210
0.0
220
0.0
230
1.0
 70
     8
 71
     3
 72
    11
 73
     7
 74
     0
 42
0.00000001
 43
0.00000001
 40
0.0
 40
0.0
 40
0.0
 40
0.0
 40
1.0
 40
1.0
 40
1.0
 40
2.0
 40
2.0
 40
2.0
 40
2.0
 10
-39.87112358940972
 20
5.5600396050347216
 30
0.0
 10
-40.216838921440967
 20
5.5600396050347216
 30
0.0
 10
-40.492963324652777
 20
5.2818481445312493
 30
0.0
 10
-40.492963324652777
 20
4.9388888888888882
 30
0.0
 10
-40.492963324652777
 20
4.5959296332465271
 30
0.0
 10
-40.216838921440967
 20
4.3191162109374996
 30
0.0
 10
-39.87112358940972
 20
4.3191162109374996
 30
0.0
  0
SPLINE
  5
84
100
AcDbEntity
  8
LIVELLO_1
 62
     7
100
AcDbSpline
210
0.0
220
0.0
230
1.0
 70
     8
 71
     3
 72
    11
 73
     7
 74
     0
 42
0.00000001
 43
0.00000001
 40
0.0
 40
0.0
 40
0.0
 40
0.0
 40
1.0
 40
1.0
 40
1.0
 40
2.0
 40
2.0
 40
2.0
 40
2.0
 10
-39.170218912760411
 20
78.968995496961796
 30
0.0
 10
-39.51455620659722
 20
78.968995496961796
 30
0.0
 10
-39.792058648003469
 20
78.690804036458331
 30
0.0
 10
-39.792058648003469
 20
78.347844780815961
 30
0.0
 10
-39.792058648003469
 20
78.009191894531241
 30
0.0
 10
-39.521446397569441
 20
77.731000434027777
 30
0.0
 10
-39.181932237413193
 20
77.72686631944444
 30
0.0
  0
SPLINE
  5
83
100
AcDbEntity
  8
LIVELLO_1
 62
     7
100
AcDbSpline
210
0.0
220
0.0
230
1.0
 70
     8
 71
     3
 72
    11
 73
     7
 74
     0
 42
0.00000001
 43
0.00000001
 40
0.0
 40
0.0
 40
0.0
 40
0.0
 40
1.0
 40
1.0
 40
1.0
 40
2.0
 40
2.0
 40
2.0
 40
2.0
 10
-31.851285807291664
 20
77.72686631944444
 30
0.0
 10
-31.507120768229164
 20
77.731000434027777
 30
0.0
 10
-31.235130479600691
 20
78.014704047309024
 30
0.0
 10
-31.240642632378471
 20
78.358869086371527
 30
0.0
 10
-31.248221842447915
 20
78.699072265624991
 30
0.0
 10
-31.524346245659718
 20
78.968995496961796
 30
0.0
 10
-31.862999131944441
 20
78.968995496961796
 30
0.0
  0
SPLINE
  5
82
100
AcDbEntity
  8
LIVELLO_1
 62
     7
100
AcDbSpline
210
0.0
220
0.0
230
1.0
 70
     8
 71
     3
 72
    11
 73
     7
 74
     0
 42
0.00000001
 43
0.00000001
 40
0.0
 40
0.0
 40
0.0
 40
0.0
 40
1.0
 40
1.0
 40
1.0
 40
2.0
 40
2.0
 40
2.0
 40
2.0
 10
-30.540254720052079
 20
-70.336275227864576
 30
0.0
 10
-30.197467719184026
 20
-70.336275227864576
 30
0.0
 10
-29.917898220486109
 20
-70.05532769097222
 30
0.0
 10
-29.917898220486109
 20
-69.710990397135404
 30
0.0
 10
-29.917898220486109
 20
-69.368031141493049
 30
0.0
 10
-30.197467719184026
 20
-69.091217719184016
 30
0.0
 10
-30.540254720052079
 20
-69.091217719184016
 30
0.0
  0
SPLINE
  5
81
100
AcDbEntity
  8
LIVELLO_1
 62
     7
100
AcDbSpline
210
0.0
220
0.0
230
1.0
 70
     8
 71
     3
 72
    11
 73
     7
 74
     0
 42
0.00000001
 43
0.00000001
 40
0.0
 40
0.0
 40
0.0
 40
0.0
 40
1.0
 40
1.0
 40
1.0
 40
2.0
 40
2.0
 40
2.0
 40
2.0
 10
-40.492963324652777
 20
-69.091217719184016
 30
0.0
 10
-40.835922580295133
 20
-69.091217719184016
 30
0.0
 10
-41.116870117187496
 20
-69.368031141493049
 30
0.0
 10
-41.116870117187496
 20
-69.710990397135404
 30
0.0
 10
-41.116870117187496
 20
-70.05532769097222
 30
0.0
 10
-40.835922580295133
 20
-70.336275227864576
 30
0.0
 10
-40.492963324652777
 20
-70.336275227864576
 30
0.0
  0
SPLINE
  5
80
100
AcDbEntity
  8
LIVELLO_1
 62
     7
100
AcDbSpline
210
0.0
220
0.0
230
1.0
 70
     8
 71
     3
 72
    11
 73
     7
 74
     0
 42
0.00000001
 43
0.00000001
 40
0.0
 40
0.0
 40
0.0
 40
0.0
 40
1.0
 40
1.0
 40
1.0
 40
2.0
 40
2.0
 40
2.0
 40
2.0
 10
-39.87112358940972
 20
4.3191162109374996
 30
0.0
 10
-40.216838921440967
 20
4.3191162109374996
 30
0.0
 10
-40.492963324652777
 20
4.0381686740451386
 30
0.0
 10
-40.492963324652777
 20
3.6953816731770832
 30
0.0
 10
-40.492963324652777
 20
3.3524224175347217
 30
0.0
 10
-40.216838921440967
 20
3.0742309570312498
 30
0.0
 10
-39.87112358940972
 20
3.0742309570312498
 30
0.0
  0
SPLINE
  5
7F
100
AcDbEntity
  8
LIVELLO_1
 62
     7
100
AcDbSpline
210
0.0
220
0.0
230
1.0
 70
     8
 71
     3
 72
    11
 73
     7
 74
     0
 42
0.00000001
 43
0.00000001
 40
0.0
 40
0.0
 40
0.0
 40
0.0
 40
1.0
 40
1.0
 40
1.0
 40
2.0
 40
2.0
 40
2.0
 40
2.0
 10
-31.162094455295136
 20
3.0742309570312498
 30
0.0
 10
-30.819135199652774
 20
3.0742309570312498
 30
0.0
 10
-30.540254720052079
 20
3.3524224175347217
 30
0.0
 10
-30.540254720052079
 20
3.6953816731770832
 30
0.0
 10
-30.540254720052079
 20
4.0381686740451386
 30
0.0
 10
-30.819135199652774
 20
4.3191162109374996
 30
0.0
 10
-31.162094455295136
 20
4.3191162109374996
 30
0.0
  0
SPLINE
  5
7E
100
AcDbEntity
  8
LIVELLO_1
 62
     7
100
AcDbSpline
210
0.0
220
0.0
230
1.0
 70
     8
 71
     3
 72
     8
 73
     4
 74
     0
 42
0.00000001
 43
0.00000001
 40
0.0
 40
0.0
 40
0.0
 40
0.0
 40
1.0
 40
1.0
 40
1.0
 40
1.0
 10
-47.12942301432291
 20
-165.62830539279511
 30
0.0
 10
-48.35243191189236
 20
-166.87026231553818
 30
0.0
 10
-49.036111111111104
 20
-168.54216715494789
 30
0.0
 10
-49.036111111111104
 20
-170.28572998046874
 30
0.0
  0
SPLINE
  5
7D
100
AcDbEntity
  8
LIVELLO_1
 62
     7
100
AcDbSpline
210
0.0
220
0.0
230
1.0
 70
     8
 71
     3
 72
     8
 73
     4
 74
     0
 42
0.00000001
 43
0.00000001
 40
0.0
 40
0.0
 40
0.0
 40
0.0
 40
1.0
 40
1.0
 40
1.0
 40
1.0
 10
-47.088770887586804
 20
-164.47833251953122
 30
0.0
 10
-46.398890516493054
 20
-163.34627414279512
 30
0.0
 10
-45.994608561197914
 20
-162.06263156467011
 30
0.0
 10
-45.902452256944443
 20
-160.73799235026041
 30
0.0
  0
SPLINE
  5
7C
100
AcDbEntity
  8
LIVELLO_1
 62
     7
100
AcDbSpline
210
0.0
220
0.0
230
1.0
 70
     8
 71
     3
 72
     8
 73
     4
 74
     0
 42
0.00000001
 43
0.00000001
 40
0.0
 40
0.0
 40
0.0
 40
0.0
 40
1.0
 40
1.0
 40
1.0
 40
1.0
 10
-21.995728895399303
 20
-170.28572998046874
 30
0.0
 10
-21.995728895399303
 20
-168.54216715494789
 30
0.0
 10
-22.682336425781248
 20
-166.87026231553818
 30
0.0
 10
-23.903795030381943
 20
-165.62830539279511
 30
0.0
  0
SPLINE
  5
7B
100
AcDbEntity
  8
LIVELLO_1
 62
     7
100
AcDbSpline
210
0.0
220
0.0
230
1.0
 70
     8
 71
     3
 72
     8
 73
     4
 74
     0
 42
0.00000001
 43
0.00000001
 40
0.0
 40
0.0
 40
0.0
 40
0.0
 40
1.0
 40
1.0
 40
1.0
 40
1.0
 10
-25.130076768663191
 20
-160.73799235026041
 30
0.0
 10
-25.039987521701388
 20
-162.06263156467011
 30
0.0
 10
-24.632260470920137
 20
-163.34627414279512
 30
0.0
 10
-23.944447157118052
 20
-164.47833251953122
 30
0.0
  0
SPLINE
  5
7A
100
AcDbEntity
  8
LIVELLO_1
 62
     7
100
AcDbSpline
210
0.0
220
0.0
230
1.0
 70
     8
 71
     3
 72
     8
 73
     4
 74
     0
 42
0.00000001
 43
0.00000001
 40
0.0
 40
0.0
 40
0.0
 40
0.0
 40
1.0
 40
1.0
 40
1.0
 40
1.0
 10
-49.270205349392356
 20
-170.28572998046874
 30
0.0
 10
-49.404564073350691
 20
-170.28572998046874
 30
0.0
 10
-49.51394585503472
 20
-170.3904608832465
 30
0.0
 10
-49.520147026909719
 20
-170.52688666449652
 30
0.0
  0
SPLINE
  5
79
100
AcDbEntity
  8
LIVELLO_1
 62
     7
100
AcDbSpline
210
0.0
220
0.0
230
1.0
 70
     8
 71
     3
 72
     8
 73
     4
 74
     0
 42
0.00000001
 43
0.00000001
 40
0.0
 40
0.0
 40
0.0
 40
0.0
 40
1.0
 40
1.0
 40
1.0
 40
1.0
 10
-21.51444905598958
 20
-170.52688666449652
 30
0.0
 10
-21.519272189670136
 20
-170.3904608832465
 30
0.0
 10
-21.628826226128471
 20
-170.28572998046874
 30
0.0
 10
-21.763012695312497
 20
-170.28572998046874
 30
0.0
  0
SPLINE
  5
78
100
AcDbEntity
  8
LIVELLO_1
 62
     7
100
AcDbSpline
210
0.0
220
0.0
230
1.0
 70
     8
 71
     3
 72
     8
 73
     4
 74
     0
 42
0.00000001
 43
0.00000001
 40
0.0
 40
0.0
 40
0.0
 40
0.0
 40
1.0
 40
1.0
 40
1.0
 40
1.0
 10
-45.565694173177079
 20
-157.42863362630206
 30
0.0
 10
-44.544567871093747
 20
-156.86398247612846
 30
0.0
 10
-43.897234429253466
 20
-155.80771620008679
 30
0.0
 10
-43.855204264322914
 20
-154.64120686848958
 30
0.0
  0
SPLINE
  5
77
100
AcDbEntity
  8
LIVELLO_1
 62
     7
100
AcDbSpline
210
0.0
220
0.0
230
1.0
 70
     8
 71
     3
 72
     8
 73
     4
 74
     0
 42
0.00000001
 43
0.00000001
 40
0.0
 40
0.0
 40
0.0
 40
0.0
 40
1.0
 40
1.0
 40
1.0
 40
1.0
 10
-27.178013780381942
 20
-154.64120686848958
 30
0.0
 10
-27.137361653645829
 20
-155.80771620008679
 30
0.0
 10
-26.488650173611109
 20
-156.86398247612846
 30
0.0
 10
-25.467523871527774
 20
-157.42863362630206
 30
0.0
  0
SPLINE
  5
76
100
AcDbEntity
  8
LIVELLO_1
 62
     7
100
AcDbSpline
210
0.0
220
0.0
230
1.0
 70
     8
 71
     3
 72
    11
 73
     7
 74
     0
 42
0.00000001
 43
0.00000001
 40
0.0
 40
0.0
 40
0.0
 40
0.0
 40
1.0
 40
1.0
 40
1.0
 40
2.0
 40
2.0
 40
2.0
 40
2.0
 10
-45.884537760416663
 20
-159.08675808376734
 30
0.0
 10
-46.34239095052083
 20
-159.08675808376734
 30
0.0
 10
-46.714978027343747
 20
-159.45848388671874
 30
0.0
 10
-46.714978027343747
 20
-159.91702609592014
 30
0.0
 10
-46.714978027343747
 20
-160.33043755425345
 30
0.0
 10
-46.410603841145829
 20
-160.67735866970486
 30
0.0
 10
-46.002876790364581
 20
-160.73799235026041
 30
0.0
  0
SPLINE
  5
75
100
AcDbEntity
  8
LIVELLO_1
 62
     7
100
AcDbSpline
210
0.0
220
0.0
230
1.0
 70
     8
 71
     3
 72
    11
 73
     7
 74
     0
 42
0.00000001
 43
0.00000001
 40
0.0
 40
0.0
 40
0.0
 40
0.0
 40
1.0
 40
1.0
 40
1.0
 40
2.0
 40
2.0
 40
2.0
 40
2.0
 10
-25.033097330729163
 20
-160.73799235026041
 30
0.0
 10
-24.578000217013887
 20
-160.67322455512152
 30
0.0
 10
-24.263290744357636
 20
-160.25326741536458
 30
0.0
 10
-24.326680501302082
 20
-159.79748128255207
 30
0.0
 10
-24.385763888888885
 20
-159.3923380533854
 30
0.0
 10
-24.735613335503469
 20
-159.08675808376734
 30
0.0
 10
-25.148680284288194
 20
-159.08675808376734
 30
0.0
  0
SPLINE
  5
74
100
AcDbEntity
  8
LIVELLO_1
 62
     7
100
AcDbSpline
210
0.0
220
0.0
230
1.0
 70
     8
 71
     3
 72
     8
 73
     4
 74
     0
 42
0.00000001
 43
0.00000001
 40
0.0
 40
0.0
 40
0.0
 40
0.0
 40
1.0
 40
1.0
 40
1.0
 40
1.0
 10
-25.28166097005208
 20
-157.58159586588539
 30
0.0
 10
-25.288551161024305
 20
-157.49615749782984
 30
0.0
 10
-25.358831108940969
 20
-157.42863362630206
 30
0.0
 10
-25.444786241319441
 20
-157.42863362630206
 30
0.0
  0
SPLINE
  5
73
100
AcDbEntity
  8
LIVELLO_1
 62
     7
100
AcDbSpline
210
0.0
220
0.0
230
1.0
 70
     8
 71
     3
 72
     8
 73
     4
 74
     0
 42
0.00000001
 43
0.00000001
 40
0.0
 40
0.0
 40
0.0
 40
0.0
 40
1.0
 40
1.0
 40
1.0
 40
1.0
 10
-45.587053765190966
 20
-157.42863362630206
 30
0.0
 10
-45.67455919053819
 20
-157.42863362630206
 30
0.0
 10
-45.746044921874997
 20
-157.49615749782984
 30
0.0
 10
-45.752935112847219
 20
-157.58159586588539
 30
0.0
  0
SPLINE
  5
72
100
AcDbEntity
  8
LIVELLO_1
 62
     7
100
AcDbSpline
210
0.0
220
0.0
230
1.0
 70
     8
 71
     3
 72
     8
 73
     4
 74
     0
 42
0.00000001
 43
0.00000001
 40
0.0
 40
0.0
 40
0.0
 40
0.0
 40
1.0
 40
1.0
 40
1.0
 40
1.0
 10
-29.290546332465276
 20
-94.134650336371521
 30
0.0
 10
-29.293302408854164
 20
-94.045422363281247
 30
0.0
 10
-29.367027452256941
 20
-93.975142415364573
 30
0.0
 10
-29.457116699218748
 20
-93.975142415364573
 30
0.0
  0
SPLINE
  5
71
100
AcDbEntity
  8
LIVELLO_1
 62
     7
100
AcDbSpline
210
0.0
220
0.0
230
1.0
 70
     8
 71
     3
 72
     8
 73
     4
 74
     0
 42
0.00000001
 43
0.00000001
 40
0.0
 40
0.0
 40
0.0
 40
0.0
 40
1.0
 40
1.0
 40
1.0
 40
1.0
 10
-41.577479383680554
 20
-93.975142415364573
 30
0.0
 10
-41.667740885416663
 20
-93.975142415364573
 30
0.0
 10
-41.741293674045139
 20
-94.045422363281247
 30
0.0
 10
-41.744049750434023
 20
-94.134650336371521
 30
0.0
  0
POLYLINE
  5
6C
100
AcDbEntity
  8
LIVELLO_1
 62
     7
100
AcDb2dPolyline
 66
     1
 10
0.0
 20
0.0
 30
0.0
  0
VERTEX
  5
6D
100
AcDbEntity
  8
LIVELLO_1
 62
     7
100
AcDbVertex
100
AcDb2dVertex
 10
-32.892394
 20
143.667544
 30
0.0
  0
VERTEX
  5
6E
100
AcDbEntity
  8
LIVELLO_1
 62
     7
100
AcDbVertex
100
AcDb2dVertex
 10
-32.969564
 20
143.667544
 30
0.0
  0
VERTEX
  5
6F
100
AcDbEntity
  8
LIVELLO_1
 62
     7
100
AcDbVertex
100
AcDb2dVertex
 10
-33.010905
 20
143.667544
 30
0.0
  0
SEQEND
  5
70
100
AcDbEntity
  8
LIVELLO_1
 62
     7
  0
LINE
  5
6B
100
AcDbEntity
  8
LIVELLO_1
 62
     7
100
AcDbLine
 10
-38.063654
 20
143.667544
 30
0.0
 11
-38.020935
 21
143.667544
 31
0.0
  0
POLYLINE
  5
62
100
AcDbEntity
  8
LIVELLO_1
 62
     7
100
AcDb2dPolyline
 66
     1
 10
0.0
 20
0.0
 30
0.0
  0
VERTEX
  5
63
100
AcDbEntity
  8
LIVELLO_1
 62
     7
100
AcDbVertex
100
AcDb2dVertex
 10
-32.669324
 20
144.54346
 30
0.0
  0
VERTEX
  5
64
100
AcDbEntity
  8
LIVELLO_1
 62
     7
100
AcDbVertex
100
AcDb2dVertex
 10
-32.606106
 20
144.517277
 30
0.0
  0
VERTEX
  5
65
100
AcDbEntity
  8
LIVELLO_1
 62
     7
100
AcDbVertex
100
AcDb2dVertex
 10
-32.552363
 20
144.434595
 30
0.0
  0
VERTEX
  5
66
100
AcDbEntity
  8
LIVELLO_1
 62
     7
100
AcDbVertex
100
AcDb2dVertex
 10
-32.515845
 20
144.305231
 30
0.0
  0
VERTEX
  5
67
100
AcDbEntity
  8
LIVELLO_1
 62
     7
100
AcDbVertex
100
AcDb2dVertex
 10
-32.488973
 20
144.126086
 30
0.0
  0
VERTEX
  5
68
100
AcDbEntity
  8
LIVELLO_1
 62
     7
100
AcDbVertex
100
AcDb2dVertex
 10
-32.471748
 20
143.908529
 30
0.0
  0
VERTEX
  5
69
100
AcDbEntity
  8
LIVELLO_1
 62
     7
100
AcDbVertex
100
AcDb2dVertex
 10
-32.464857
 20
143.668922
 30
0.0
  0
SEQEND
  5
6A
100
AcDbEntity
  8
LIVELLO_1
 62
     7
  0
POLYLINE
  5
56
100
AcDbEntity
  8
LIVELLO_1
 62
     7
100
AcDb2dPolyline
 66
     1
 10
0.0
 20
0.0
 30
0.0
  0
VERTEX
  5
57
100
AcDbEntity
  8
LIVELLO_1
 62
     7
100
AcDbVertex
100
AcDb2dVertex
 10
-27.072594
 20
-160.663578
 30
0.0
  0
VERTEX
  5
58
100
AcDbEntity
  8
LIVELLO_1
 62
     7
100
AcDbVertex
100
AcDb2dVertex
 10
-26.986639
 20
-160.52164
 30
0.0
  0
VERTEX
  5
59
100
AcDbEntity
  8
LIVELLO_1
 62
     7
100
AcDbVertex
100
AcDb2dVertex
 10
-26.92256
 20
-160.327681
 30
0.0
  0
VERTEX
  5
5A
100
AcDbEntity
  8
LIVELLO_1
 62
     7
100
AcDbVertex
100
AcDb2dVertex
 10
-26.88742
 20
-160.104439
 30
0.0
  0
VERTEX
  5
5B
100
AcDbEntity
  8
LIVELLO_1
 62
     7
100
AcDbVertex
100
AcDb2dVertex
 10
-26.879152
 20
-159.859148
 30
0.0
  0
VERTEX
  5
5C
100
AcDbEntity
  8
LIVELLO_1
 62
     7
100
AcDbVertex
100
AcDb2dVertex
 10
-26.900511
 20
-159.623848
 30
0.0
  0
VERTEX
  5
5D
100
AcDbEntity
  8
LIVELLO_1
 62
     7
100
AcDbVertex
100
AcDb2dVertex
 10
-26.95081
 20
-159.413009
 30
0.0
  0
VERTEX
  5
5E
100
AcDbEntity
  8
LIVELLO_1
 62
     7
100
AcDbVertex
100
AcDb2dVertex
 10
-27.022984
 20
-159.23972
 30
0.0
  0
VERTEX
  5
5F
100
AcDbEntity
  8
LIVELLO_1
 62
     7
100
AcDbVertex
100
AcDb2dVertex
 10
-27.11738
 20
-159.126721
 30
0.0
  0
VERTEX
  5
60
100
AcDbEntity
  8
LIVELLO_1
 62
     7
100
AcDbVertex
100
AcDb2dVertex
 10
-27.222111
 20
-159.086758
 30
0.0
  0
SEQEND
  5
61
100
AcDbEntity
  8
LIVELLO_1
 62
     7
  0
LINE
  5
55
100
AcDbEntity
  8
LIVELLO_1
 62
     7
100
AcDbLine
 10
-49.044379
 20
-170.526887
 30
0.0
 11
-45.79152
 21
-170.526887
 31
0.0
  0
LINE
  5
54
100
AcDbEntity
  8
LIVELLO_1
 62
     7
100
AcDbLine
 10
-44.621049
 20
-170.526887
 30
0.0
 11
-26.412341
 21
-170.526887
 31
0.0
  0
LINE
  5
53
100
AcDbEntity
  8
LIVELLO_1
 62
     7
100
AcDbLine
 10
-25.243076
 20
-170.526887
 30
0.0
 11
-21.98815
 21
-170.526887
 31
0.0
  0
LINE
  5
52
100
AcDbEntity
  8
LIVELLO_1
 62
     7
100
AcDbLine
 10
-49.270205
 20
-170.28573
 30
0.0
 11
-21.763013
 21
-170.28573
 31
0.0
  0
LINE
  5
51
100
AcDbEntity
  8
LIVELLO_1
 62
     7
100
AcDbLine
 10
-47.129423
 20
-165.628305
 30
0.0
 11
-23.903795
 21
-165.628305
 31
0.0
  0
LINE
  5
50
100
AcDbEntity
  8
LIVELLO_1
 62
     7
100
AcDbLine
 10
-50.033122
 20
-185.218152
 30
0.0
 11
-21.001474
 21
-185.218152
 31
0.0
  0
LINE
  5
4F
100
AcDbEntity
  8
LIVELLO_1
 62
     7
100
AcDbLine
 10
49.469332
 20
202.798302
 30
0.0
 11
49.467954
 21
25.260129
 31
0.0
  0
LINE
  5
4E
100
AcDbEntity
  8
LIVELLO_1
 62
     7
100
AcDbLine
 10
47.53181
 20
202.798302
 30
0.0
 11
51.403064
 21
202.798302
 31
0.0
  0
MTEXT
  5
4D
100
AcDbEntity
  8
LIVELLO_1
 62
     7
100
AcDbMText
 10
42.275111
 20
22.571547
 30
0.0
 40
5.715728
 41
0.0
 71
     1
 72
     2
  1
\fArial Narrow|b0|i0;\H5.7157;\C7;\U+0034\U+0036\U+0031\U+0035
  7
STD
210
0.0
220
0.0
230
1.0
 73
     1
 44
1.0
  0
LINE
  5
4C
100
AcDbEntity
  8
LIVELLO_1
 62
     7
100
AcDbLine
 10
41.230558
 20
218.234913
 30
0.0
 11
41.230558
 21
222.105995
 31
0.0
  0
LINE
  5
4B
100
AcDbEntity
  8
LIVELLO_1
 62
     7
100
AcDbLine
 10
41.273277
 20
218.32018
 30
0.0
 11
41.273277
 21
222.190055
 31
0.0
  0
LINE
  5
4A
100
AcDbEntity
  8
LIVELLO_1
 62
     7
100
AcDbLine
 10
11.272697
 20
220.256495
 30
0.0
 11
41.27879
 21
220.255117
 31
0.0
  0
LINE
  5
49
100
AcDbEntity
  8
LIVELLO_1
 62
     7
100
AcDbLine
 10
-37.877102
 20
220.256495
 30
0.0
 11
17.102315
 21
220.255117
 31
0.0
  0
LINE
  5
48
100
AcDbEntity
  8
LIVELLO_1
 62
     7
100
AcDbLine
 10
-37.877102
 20
218.32018
 30
0.0
 11
-37.877102
 21
222.190055
 31
0.0
  0
LINE
  5
47
100
AcDbEntity
  8
LIVELLO_1
 62
     7
100
AcDbLine
 10
47.448439
 20
-184.675549
 30
0.0
 11
51.321071
 21
-184.675549
 31
0.0
  0
LINE
  5
46
100
AcDbEntity
  8
LIVELLO_1
 62
     7
100
AcDbLine
 10
47.53181
 20
-184.71689
 30
0.0
 11
51.403064
 21
-184.71689
 31
0.0
  0
LINE
  5
45
100
AcDbEntity
  8
LIVELLO_1
 62
     7
100
AcDbLine
 10
49.469332
 20
13.292729
 30
0.0
 11
49.467954
 21
-184.726537
 31
0.0
  0
MTEXT
  5
44
100
AcDbEntity
  8
LIVELLO_1
 62
     7
100
AcDbMText
 10
-4.485342
 20
227.179041
 30
0.0
 40
5.715728
 41
0.0
 71
     1
 72
     2
  1
\fArial Narrow|b0|i0;\H5.7157;\C7;\U+0038\U+0038\U+0034
  7
STD
210
0.0
220
0.0
230
1.0
 73
     1
 44
1.0
  0
POLYLINE
  5
3F
100
AcDbEntity
  8
LIVELLO_1
 62
     7
100
AcDb2dPolyline
 66
     1
 10
0.0
 20
0.0
 30
0.0
  0
VERTEX
  5
40
100
AcDbEntity
  8
LIVELLO_1
 62
     7
100
AcDbVertex
100
AcDb2dVertex
 10
-37.434235
 20
-185.401431
 30
0.0
  0
VERTEX
  5
41
100
AcDbEntity
  8
LIVELLO_1
 62
     7
100
AcDbVertex
100
AcDb2dVertex
 10
-37.434235
 20
-227.8643
 30
0.0
  0
VERTEX
  5
42
100
AcDbEntity
  8
LIVELLO_1
 62
     7
100
AcDbVertex
100
AcDb2dVertex
 10
-33.288407
 20
-227.8643
 30
0.0
  0
SEQEND
  5
43
100
AcDbEntity
  8
LIVELLO_1
 62
     7
  0
LINE
  5
3E
100
AcDbEntity
  8
LIVELLO_1
 62
     7
100
AcDbLine
 10
-33.288407
 20
-185.401431
 30
0.0
 11
-33.288407
 21
-227.8643
 31
0.0
  0
LINE
  5
3D
100
AcDbEntity
  8
LIVELLO_1
 62
     7
100
AcDbLine
 10
-14.623225
 20
-203.479225
 30
0.0
 11
-14.623225
 21
-202.48497
 31
0.0
  0
LINE
  5
3C
100
AcDbEntity
  8
LIVELLO_1
 62
     7
100
AcDbLine
 10
-56.098901
 20
-203.479225
 30
0.0
 11
-56.098901
 21
-202.48497
 31
0.0
  0
LINE
  5
3B
100
AcDbEntity
  8
LIVELLO_1
 62
     7
100
AcDbLine
 10
-56.098901
 20
-202.48497
 30
0.0
 11
-37.434235
 21
-202.48497
 31
0.0
  0
LINE
  5
3A
100
AcDbEntity
  8
LIVELLO_1
 62
     7
100
AcDbLine
 10
-33.288407
 20
-202.48497
 30
0.0
 11
-14.623225
 21
-202.48497
 31
0.0
  0
LINE
  5
39
100
AcDbEntity
  8
LIVELLO_1
 62
     7
100
AcDbLine
 10
-14.623225
 20
-203.479225
 30
0.0
 11
-33.288407
 21
-203.479225
 31
0.0
  0
LINE
  5
38
100
AcDbEntity
  8
LIVELLO_1
 62
     7
100
AcDbLine
 10
-37.434235
 20
-203.479225
 30
0.0
 11
-56.098901
 21
-203.479225
 31
0.0
  0
LINE
  5
37
100
AcDbEntity
  8
LIVELLO_1
 62
     7
100
AcDbLine
 10
-14.623225
 20
-211.773637
 30
0.0
 11
-14.623225
 21
-210.776626
 31
0.0
  0
LINE
  5
36
100
AcDbEntity
  8
LIVELLO_1
 62
     7
100
AcDbLine
 10
-56.098901
 20
-211.773637
 30
0.0
 11
-56.098901
 21
-210.776626
 31
0.0
  0
LINE
  5
35
100
AcDbEntity
  8
LIVELLO_1
 62
     7
100
AcDbLine
 10
-56.098901
 20
-210.776626
 30
0.0
 11
-37.434235
 21
-210.776626
 31
0.0
  0
LINE
  5
34
100
AcDbEntity
  8
LIVELLO_1
 62
     7
100
AcDbLine
 10
-33.288407
 20
-210.776626
 30
0.0
 11
-14.623225
 21
-210.776626
 31
0.0
  0
LINE
  5
33
100
AcDbEntity
  8
LIVELLO_1
 62
     7
100
AcDbLine
 10
-14.623225
 20
-211.773637
 30
0.0
 11
-33.288407
 21
-211.773637
 31
0.0
  0
LINE
  5
32
100
AcDbEntity
  8
LIVELLO_1
 62
     7
100
AcDbLine
 10
-37.434235
 20
-211.773637
 30
0.0
 11
-56.098901
 21
-211.773637
 31
0.0
  0
LINE
  5
31
100
AcDbEntity
  8
LIVELLO_1
 62
     7
100
AcDbLine
 10
-14.623225
 20
-220.068393
 30
0.0
 11
-14.623225
 21
-219.074139
 31
0.0
  0
LINE
  5
30
100
AcDbEntity
  8
LIVELLO_1
 62
     7
100
AcDbLine
 10
-56.098901
 20
-220.068393
 30
0.0
 11
-56.098901
 21
-219.074139
 31
0.0
  0
LINE
  5
2F
100
AcDbEntity
  8
LIVELLO_1
 62
     7
100
AcDbLine
 10
-56.098901
 20
-219.074139
 30
0.0
 11
-37.434235
 21
-219.074139
 31
0.0
  0
LINE
  5
2E
100
AcDbEntity
  8
LIVELLO_1
 62
     7
100
AcDbLine
 10
-33.288407
 20
-219.074139
 30
0.0
 11
-14.623225
 21
-219.074139
 31
0.0
  0
LINE
  5
2D
100
AcDbEntity
  8
LIVELLO_1
 62
     7
100
AcDbLine
 10
-14.623225
 20
-220.068393
 30
0.0
 11
-33.288407
 21
-220.068393
 31
0.0
  0
LINE
  5
2C
100
AcDbEntity
  8
LIVELLO_1
 62
     7
100
AcDbLine
 10
-37.434235
 20
-220.068393
 30
0.0
 11
-56.098901
 21
-220.068393
 31
0.0
  0
ENDBLK
  5
4C6
100
AcDbEntity
  8
LIVELLO_1
100
AcDbBlockEnd
  0
ENDSEC
  0
SECTION
  2
ENTITIES
  0
INSERT
  5
2A
100
AcDbEntity
  8
LIVELLO_1
 62
     7
100
AcDbBlockReference
  2
AI9-BLK1
 10
56.288898
 20
228.054469
 30
0.0
  0
ENDSEC
  0
SECTION
  2
OBJECTS
  0
DICTIONARY
  5
19
100
AcDbDictionary
280
     0
281
     1
  3
ACAD_GROUP
350
1A
  3
ACAD_MLINESTYLE
350
1B
  3
ACAD_LAYOUT
350
1E
  3
ACAD_PLOTSETTINGS
350
22
  3
ACAD_PLOTSTYLENAME
350
1F
  3
ACAD_WIPEOUT_VARS
350
23
  0
DICTIONARY
  5
1A
102
{ACAD_REACTORS
330
19
102
}
100
AcDbDictionary
280
     0
281
     1
  0
DICTIONARY
  5
1B
102
{ACAD_REACTORS
330
19
102
}
100
AcDbDictionary
280
     0
281
     1
  3
Standard
350
1C
  0
MLINESTYLE
  5
1C
102
{ACAD_REACTORS
330
1B
102
}
100
AcDbMlineStyle
  2
Standard
 70
     0
  3

 62
     0
 51
90.0
 52
90.0
 71
     2
 49
0.5
 62
   256
  6
ByLayer
 49
-0.5
 62
   256
  6
ByLayer
  0
ACDBDICTIONARYWDFLT
  5
1F
102
{ACAD_REACTORS
330
19
102
}
100
AcDbDictionary
281
     1
  3
Normal
350
1D
100
AcDbDictionaryWithDefault
340
1D
  0
ACDBPLACEHOLDER
  5
1D
102
{ACAD_REACTORS
330
1F
102
}
  0
LAYOUT
  5
20
102
{ACAD_REACTORS
330
1E
102
}
100
AcDbPlotSettings
  1

  2

  4

  6

 40
0.0
 41
0.0
 42
0.0
 43
0.0
 44
0.0
 45
0.0
 46
0.0
 47
0.0
 48
0.0
 49
0.0
140
0.0
141
0.0
142
1.0
143
1.0
 70
  1024
 72
     0
 73
     0
 74
     0
  7

 75
     0
147
1.0
148
0.0
149
0.0
100
AcDbLayout
  1
Model
 70
     0
 71
     0
 10
0.0
 20
0.0
 11
0.0
 21
0.0
 12
0.0
 22
0.0
 32
0.0
 14
0.0
 24
0.0
 34
0.0
 15
0.0
 25
0.0
 35
0.0
146
0.0
 13
0.0
 23
0.0
 33
0.0
 16
0.0
 26
0.0
 36
0.0
 17
0.0
 27
0.0
 37
0.0
 76
     0
330
A
331
0
345
0
346
0
  0
LAYOUT
  5
21
102
{ACAD_REACTORS
330
1E
102
}
100
AcDbPlotSettings
  1

  2

  4

  6

 40
0.0
 41
0.0
 42
0.0
 43
0.0
 44
0.0
 45
0.0
 46
0.0
 47
0.0
 48
0.0
 49
0.0
140
0.0
141
0.0
142
1.0
143
1.0
 70
     0
 72
     0
 73
     0
 74
     0
  7

 75
     0
147
1.0
148
0.0
149
0.0
100
AcDbLayout
  1
Layout1
 70
     0
 71
     0
 10
0.0
 20
0.0
 11
0.0
 21
0.0
 12
0.0
 22
0.0
 32
0.0
 14
0.0
 24
0.0
 34
0.0
 15
0.0
 25
0.0
 35
0.0
146
0.0
 13
0.0
 23
0.0
 33
0.0
 16
0.0
 26
0.0
 36
0.0
 17
0.0
 27
0.0
 37
0.0
 76
     0
330
B
331
0
345
0
346
0
  0
DICTIONARY
  5
1E
102
{ACAD_REACTORS
330
19
102
}
100
AcDbDictionary
280
     0
281
     1
  3
Layout1
350
21
  3
Model
350
20
  0
DICTIONARY
  5
22
102
{ACAD_REACTORS
330
19
102
}
100
AcDbDictionary
280
     0
281
     1
  0
WIPEOUTVARIABLES
  5
23
100
AcDbWipeoutVariables
 70
     1
  0
ENDSEC
  0
EOF
