  0
SECTION
  2
HEADER
  9
$ACADVER
  1
AC1015
  9
$ACADMAINTVER
 70
     6
  9
$DWGCODEPAGE
  3
ANSI_932
  9
$INSBASE
 10
0.0
 20
0.0
 30
0.0
  9
$EXTMIN
 10
0.0
 20
1.534446
 30
1.000000E+20
  9
$EXTMAX
 10
84.591391
 20
265.256677
 30
-1.000000E+20
  9
$LIMMIN
 10
0.0
 20
1.534446
  9
$LIMMAX
 10
84.591391
 20
265.256677
  9
$ORTHOMODE
 70
     0
  9
$REGENMODE
 70
     1
  9
$FILLMODE
 70
     1
  9
$QTEXTMODE
 70
     0
  9
$MIRRTEXT
 70
     1
  9
$LTSCALE
 40
1.0
  9
$ATTMODE
 70
     1
  9
$TEXTSIZE
 40
0.2
  9
$TRACEWID
 40
0.05
  9
$TEXTSTYLE
  7
Standard
  9
$CLAYER
  8
0
  9
$CELTYPE
  6
Continuous
  9
$CECOLOR
 62
   256
  9
$CELTSCALE
 40
1.0
  9
$DISPSILH
 70
     0
  9
$DIMSCALE
 40
1.0
  9
$DIMASZ
 40
0.18
  9
$DIMEXO
 40
0.0625
  9
$DIMDLI
 40
0.38
  9
$DIMRND
 40
0.0
  9
$DIMDLE
 40
0.0
  9
$DIMEXE
 40
0.18
  9
$DIMTP
 40
0.0
  9
$DIMTM
 40
0.0
  9
$DIMTXT
 40
0.18
  9
$DIMCEN
 40
0.09
  9
$DIMTSZ
 40
0.0
  9
$DIMTOL
 70
     0
  9
$DIMLIM
 70
     0
  9
$DIMTIH
 70
     1
  9
$DIMTOH
 70
     1
  9
$DIMSE1
 70
     0
  9
$DIMSE2
 70
     0
  9
$DIMTAD
 70
     0
  9
$DIMZIN
 70
     0
  9
$DIMBLK
  1

  9
$DIMASO
 70
     1
  9
$DIMSHO
 70
     1
  9
$DIMPOST
  1

  9
$DIMAPOST
  1

  9
$DIMALT
 70
     0
  9
$DIMALTD
 70
     2
  9
$DIMALTF
 40
25.4
  9
$DIMLFAC
 40
1.0
  9
$DIMTOFL
 70
     0
  9
$DIMTVP
 40
0.0
  9
$DIMTIX
 70
     0
  9
$DIMSOXD
 70
     0
  9
$DIMSAH
 70
     0
  9
$DIMBLK1
  1

  9
$DIMBLK2
  1

  9
$DIMSTYLE
  2
Standard
  9
$DIMCLRD
 70
     0
  9
$DIMCLRE
 70
     0
  9
$DIMCLRT
 70
     0
  9
$DIMTFAC
 40
1.0
  9
$DIMGAP
 40
0.09
  9
$DIMJUST
 70
     0
  9
$DIMSD1
 70
     0
  9
$DIMSD2
 70
     0
  9
$DIMTOLJ
 70
     1
  9
$DIMTZIN
 70
     0
  9
$DIMALTZ
 70
     0
  9
$DIMALTTZ
 70
     0
  9
$DIMUPT
 70
     0
  9
$DIMDEC
 70
     4
  9
$DIMTDEC
 70
     4
  9
$DIMALTU
 70
     2
  9
$DIMALTTD
 70
     2
  9
$DIMTXSTY
  7
Standard
  9
$DIMAUNIT
 70
     0
  9
$DIMADEC
 70
     0
  9
$DIMALTRND
 40
0.0
  9
$DIMAZIN
 70
     0
  9
$DIMDSEP
 70
     0
  9
$DIMATFIT
 70
     3
  9
$DIMFRAC
 70
     0
  9
$DIMLDRBLK
  1

  9
$DIMLUNIT
 70
     2
  9
$DIMLWD
 70
     0
  9
$DIMLWE
 70
     0
  9
$DIMTMOVE
 70
     0
  9
$LUNITS
 70
     2
  9
$LUPREC
 70
     4
  9
$SKETCHINC
 40
0.1
  9
$FILLETRAD
 40
0.0
  9
$AUNITS
 70
     0
  9
$AUPREC
 70
     0
  9
$MENU
  1
acad
  9
$ELEVATION
 40
0.0
  9
$PELEVATION
 40
0.0
  9
$THICKNESS
 40
0.0
  9
$LIMCHECK
 70
     0
  9
$CHAMFERA
 40
0.0
  9
$CHAMFERB
 40
0.0
  9
$CHAMFERC
 40
0.0
  9
$CHAMFERD
 40
0.0
  9
$SKPOLY
 70
     0
  9
$TDCREATE
 40
0.000000000
  9
$TDUCREATE
 40
0.000000000
  9
$TDUPDATE
 40
0.000000000
  9
$TDUUPDATE
 40
0.000000000
  9
$TDINDWG
 40
0.0000000000
  9
$TDUSRTIMER
 40
0.0000000000
  9
$USRTIMER
 70
     1
  9
$ANGBASE
 50
0.0
  9
$ANGDIR
 70
     0
  9
$PDMODE
 70
     0
  9
$PDSIZE
 40
0.0
  9
$PLINEWID
 40
0.0
  9
$SPLFRAME
 70
     0
  9
$SPLINETYPE
 70
     6
  9
$SPLINESEGS
 70
     8
  9
$HANDSEED
  5
C0
  9
$SURFTAB1
 70
     6
  9
$SURFTAB2
 70
     6
  9
$SURFTYPE
 70
     6
  9
$SURFU
 70
     6
  9
$SURFV
 70
     6
  9
$UCSBASE
  2

  9
$UCSNAME
  2

  9
$UCSORG
 10
0.0
 20
0.0
 30
0.0
  9
$UCSXDIR
 10
1.0
 20
0.0
 30
0.0
  9
$UCSYDIR
 10
0.0
 20
1.0
 30
0.0
  9
$UCSORTHOREF
  2

  9
$UCSORTHOVIEW
 70
     0
  9
$UCSORGTOP
 10
0.0
 20
0.0
 30
0.0
  9
$UCSORGBOTTOM
 10
0.0
 20
0.0
 30
0.0
  9
$UCSORGLEFT
 10
0.0
 20
0.0
 30
0.0
  9
$UCSORGRIGHT
 10
0.0
 20
0.0
 30
0.0
  9
$UCSORGFRONT
 10
0.0
 20
0.0
 30
0.0
  9
$UCSORGBACK
 10
0.0
 20
0.0
 30
0.0
  9
$PUCSBASE
  2

  9
$PUCSNAME
  2

  9
$PUCSORG
 10
0.0
 20
0.0
 30
0.0
  9
$PUCSXDIR
 10
1.0
 20
0.0
 30
0.0
  9
$PUCSYDIR
 10
0.0
 20
1.0
 30
0.0
  9
$PUCSORTHOREF
  2

  9
$PUCSORTHOVIEW
 70
     0
  9
$PUCSORGTOP
 10
0.0
 20
0.0
 30
0.0
  9
$PUCSORGBOTTOM
 10
0.0
 20
0.0
 30
0.0
  9
$PUCSORGLEFT
 10
0.0
 20
0.0
 30
0.0
  9
$PUCSORGRIGHT
 10
0.0
 20
0.0
 30
0.0
  9
$PUCSORGFRONT
 10
0.0
 20
0.0
 30
0.0
  9
$PUCSORGBACK
 10
0.0
 20
0.0
 30
0.0
  9
$USERI1
 70
     0
  9
$USERI2
 70
     0
  9
$USERI3
 70
     0
  9
$USERI4
 70
     0
  9
$USERI5
 70
     0
  9
$USERR1
 40
0.0
  9
$USERR2
 40
0.0
  9
$USERR3
 40
0.0
  9
$USERR4
 40
0.0
  9
$USERR5
 40
0.0
  9
$WORLDVIEW
 70
     1
  9
$SHADEDGE
 70
     3
  9
$SHADEDIF
 70
    70
  9
$TILEMODE
 70
     1
  9
$MAXACTVP
 70
    16
  9
$PINSBASE
 10
0.0
 20
0.0
 30
0.0
  9
$PLIMCHECK
 70
     0
  9
$PEXTMIN
 10
1.000000E+20
 20
1.000000E+20
 30
1.000000E+20
  9
$PEXTMAX
 10
-1.000000E+20
 20
-1.000000E+20
 30
-1.000000E+20
  9
$PLIMMIN
 10
0.0
 20
0.0
  9
$PLIMMAX
 10
12.0
 20
9.0
  9
$UNITMODE
 70
     0
  9
$VISRETAIN
 70
     0
  9
$PLINEGEN
 70
     1
  9
$PSLTSCALE
 70
     0
  9
$TREEDEPTH
 70
  3020
  9
$CMLSTYLE
  2
Standard
  9
$CMLJUST
 70
     0
  9
$CMLSCALE
 40
1.0
  9
$PROXYGRAPHICS
 70
     0
  9
$MEASUREMENT
 70
     1
  9
$CELWEIGHT
370
     0
  9
$ENDCAPS
280
     0
  9
$JOINSTYLE
280
     0
  9
$LWDISPLAY
290
     0
  9
$INSUNITS
 70
     0
  9
$HYPERLINKBASE
  1

  9
$STYLESHEET
  1

  9
$XEDIT
290
     1
  9
$CEPSNTYPE
380
     0
  9
$PSTYLEMODE
290
     1
  9
$FINGERPRINTGUID
  2

  9
$VERSIONGUID
  2

  9
$EXTNAMES
290
     1
  9
$PSVPSCALE
 40
0.0
  0
ENDSEC
  0
SECTION
  2
CLASSES
  0
CLASS
  1
LWPOLYLINE
  2
AcDbPolyline
  3
AutoCAD 2000
 90
    32768
280
     0
281
     1
  0
CLASS
  1
IMAGE
  2
AcDbRasterImage
  3
ISM
 90
    32895
280
     0
281
     1
  0
CLASS
  1
OLE2FRAME
  2
AcDbOle2Frame
  3
AutoCAD 2000
 90
    32768
280
     0
281
     1
  0
CLASS
  1
HATCH
  2
AcDbHatch
  3
AutoCAD 2000
 90
    32768
280
     0
281
     1
  0
CLASS
  1
DICTIONARYVAR
  2
AcDbDictionaryVar
  3
AutoCAD 2000
 90
    32768
280
     0
281
     0
  0
CLASS
  1
RASTERVARIABLES
  2
AcDbRasterVariables
  3
ISM
 90
    32768
280
     0
281
     0
  0
CLASS
  1
IMAGEDEF
  2
AcDbRasterImageDef
  3
ISM
 90
    32768
280
     0
281
     0
  0
CLASS
  1
IMAGEDEF_REACTOR
  2
AcDbRasterImageDefReactor
  3
ISM
 90
    32769
280
     0
281
     0
  0
CLASS
  1
IDBUFFER
  2
AcDbIdBuffer
  3
AutoCAD 2000
 90
    32768
280
     0
281
     0
  0
CLASS
  1
SPATIAL_FILTER
  2
AcDbSpatialFilter
  3
AutoCAD 2000
 90
    32768
280
     0
281
     0
  0
CLASS
  1
XRECORD
  2
AcDbXrecord
  3
AutoCAD 2000
 90
    32768
280
     0
281
     0
  0
CLASS
  1
SORTENTSTABLE
  2
AcDbSortentsTable
  3
AutoCAD 2000
 90
    32768
280
     0
281
     0
  0
CLASS
  1
LAYER_INDEX
  2
AcDbLayerIndex
  3
AutoCAD 2000
 90
    32768
280
     0
281
     0
  0
CLASS
  1
SPATIAL_INDEX
  2
AcDbSpatialIndex
  3
AutoCAD 2000
 90
    32768
280
     0
281
     0
  0
CLASS
  1
OBJECT_PTR
  2
CAseDLPNTableRecord
  3
"ASE-LPNTableRecord"
 90
    32769
280
     0
281
     0
  0
CLASS
  1
LAYOUT
  2
AcDbLayout
  3
AutoCAD 2000
 90
        0
280
     0
281
     0
  0
CLASS
  1
PLOTSETTINGS
  2
AcDbPlotSettings
  3
AutoCAD 2000
 90
    32768
280
     0
281
     0
  0
CLASS
  1
ACDBDICTIONARYWDFLT
  2
AcDbDictionaryWithDefault
  3
AutoCAD 2000
 90
        0
280
     0
281
     0
  0
CLASS
  1
ACDBPLACEHOLDER
  2
AcDbPlaceHolder
  3
AutoCAD 2000
 90
        0
280
     0
281
     0
  0
CLASS
  1
VBA_PROJECT
  2
AcDbVbaProject
  3
acadvba
 90
    32768
280
     0
281
     0
  0
CLASS
  1
WIPEOUT
  2
AcDbWipeout
  3
WipeOut|AutoCAD Express Tool|expresstools@autodesk.com
 90
    32895
280
     0
281
     1
  0
CLASS
  1
WIPEOUTVARIABLES
  2
AcDbWipeoutVariables
  3
WipeOut|AutoCAD Express Tool|expresstools@autodesk.com
 90
        0
280
     0
281
     0
  0
CLASS
  1
RTEXT
  2
RText
  3
RText|AutoCAD Express Tool|expresstools@autodesk.com
 90
    32768
280
     0
281
     1
  0
CLASS
  1
ARCALIGNEDTEXT
  2
AcDbArcAlignedText
  3
ATEXT|AutoCAD Express Tool|expresstools@autodesk.com
 90
    32768
280
     0
281
     1
  0
ENDSEC
  0
SECTION
  2
TABLES
  0
TABLE
  2
VPORT
  5
7
100
AcDbSymbolTable
 70
     1
  0
VPORT
  5
15
100
AcDbSymbolTableRecord
100
AcDbViewportTableRecord
  2
*ACTIVE
 70
     0
 10
0.0
 20
0.0
 11
1.0
 21
1.0
 12
6.591288
 22
4.579184
 13
0.0
 23
0.0
 14
1.0
 24
1.0
 15
0.0
 25
0.0
 16
0.0
 26
0.0
 36
1.0
 17
0.0
 27
0.0
 37
0.0
 40
9.158369
 41
0.688564
 42
50.0
 43
0.0
 44
0.0
 50
0.0
 51
0.0
 71
     0
 72
   100
 73
     1
 74
     1
 75
     0
 76
     0
 77
     0
 78
     0
281
     0
 65
     0
110
0.0
120
0.0
130
0.0
111
1.0
121
0.0
131
0.0
112
0.0
122
1.0
132
0.0
345
0
346
0
 79
     0
146
0.0
  0
ENDTAB
  0
TABLE
  2
LTYPE
  5
4
100
AcDbSymbolTable
 70
     3
  0
LTYPE
  5
11
100
AcDbSymbolTableRecord
100
AcDbLinetypeTableRecord
  2
ByBlock
 70
    64
  3

 72
    65
 73
     0
 40
0.0
  0
LTYPE
  5
12
100
AcDbSymbolTableRecord
100
AcDbLinetypeTableRecord
  2
ByLayer
 70
    64
  3

 72
    65
 73
     0
 40
0.0
  0
LTYPE
  5
13
100
AcDbSymbolTableRecord
100
AcDbLinetypeTableRecord
  2
Continuous
 70
    64
  3
Solid line
 72
    65
 73
     0
 40
0.0
  0
ENDTAB
  0
TABLE
  2
LAYER
  5
2
100
AcDbSymbolTable
 70
     2
  0
LAYER
  5
14
100
AcDbSymbolTableRecord
100
AcDbLayerTableRecord
  2
0
 70
     0
 62
     7
  6
Continuous
290
     1
370
    -3
390
1D
  0
LAYER
  5
28
100
AcDbSymbolTableRecord
100
AcDbLayerTableRecord
  2
LIVELLO_1
 70
     0
 62
   160
  6
Continuous
290
     1
370
    -3
390
1D
  0
ENDTAB
  0
TABLE
  2
STYLE
  5
3
100
AcDbSymbolTable
 70
     5
  0
STYLE
  5
17
100
AcDbSymbolTableRecord
100
AcDbTextStyleTableRecord
  2
Standard
 70
     0
 40
0.0
 41
1.0
 50
0.0
 71
     0
 42
0.0
  3
txt
  4

  0
STYLE
  5
24
100
AcDbSymbolTableRecord
100
AcDbTextStyleTableRecord
  2
STD
 70
     0
 40
0.0
 41
1.0
 50
0.0
 71
     0
 42
0.0
  3
txt
  4

  0
STYLE
  5
25
100
AcDbSymbolTableRecord
100
AcDbTextStyleTableRecord
  2
TATESTD
 70
     4
 40
0.0
 41
1.0
 50
0.0
 71
     0
 42
0.0
  3
txt
  4

  0
STYLE
  5
26
100
AcDbSymbolTableRecord
100
AcDbTextStyleTableRecord
  2
KANJISTD
 70
     0
 40
0.0
 41
1.0
 50
0.0
 71
     0
 42
0.0
  3
txt
  4
extfont
  0
STYLE
  5
27
100
AcDbSymbolTableRecord
100
AcDbTextStyleTableRecord
  2
KANJITATE
 70
     4
 40
0.0
 41
1.0
 50
0.0
 71
     0
 42
0.0
  3
txt
  4
extfont
  0
ENDTAB
  0
TABLE
  2
VIEW
  5
5
100
AcDbSymbolTable
 70
     0
  0
ENDTAB
  0
TABLE
  2
UCS
  5
6
100
AcDbSymbolTable
 70
     0
  0
ENDTAB
  0
TABLE
  2
APPID
  5
8
100
AcDbSymbolTable
 70
     1
  0
APPID
  5
16
100
AcDbSymbolTableRecord
100
AcDbRegAppTableRecord
  2
ACAD
 70
     0
  0
ENDTAB
  0
TABLE
  2
DIMSTYLE
  5
9
100
AcDbSymbolTable
 70
     1
100
AcDbDimStyleTable
 71
     0
  0
DIMSTYLE
105
18
100
AcDbSymbolTableRecord
100
AcDbDimStyleTableRecord
  2
Standard
 70
     0
  3

  4

 40
1.0
 41
0.18
 42
0.0625
 43
0.38
 44
0.18
 45
0.0
 46
0.0
 47
0.0
 48
0.0
 71
     0
 72
     0
 73
     1
 74
     1
 75
     0
 76
     0
 77
     0
 78
     0
 79
     0
140
0.18
141
0.09
142
0.0
143
25.4
144
1.0
145
0.0
146
1.0
147
0.09
148
0.0
170
     0
171
     2
172
     0
173
     0
174
     0
175
     0
176
     0
177
     0
178
     0
179
     0
271
     4
272
     4
273
     2
274
     2
275
     0
276
     0
277
     2
278
    46
279
     0
280
     0
281
     0
282
     0
283
     1
284
     0
285
     0
286
     0
288
     0
340
17
341
0
342
0
343
0
344
0
371
    -2
372
    -2
  0
ENDTAB
  0
TABLE
  2
BLOCK_RECORD
  5
1
100
AcDbSymbolTable
 70
     1
  0
BLOCK_RECORD
  5
A
100
AcDbSymbolTableRecord
100
AcDbBlockTableRecord
  2
*MODEL_SPACE
340
20
  0
BLOCK_RECORD
  5
B
100
AcDbSymbolTableRecord
100
AcDbBlockTableRecord
  2
*PAPER_SPACE
340
21
  0
BLOCK_RECORD
  5
29
100
AcDbSymbolTableRecord
100
AcDbBlockTableRecord
  2
AI9-BLK1
340
0
102
{BLKREFS
331
2A
102
}
  0
ENDTAB
  0
ENDSEC
  0
SECTION
  2
BLOCKS
  0
BLOCK
  5
D
100
AcDbEntity
  8
0
100
AcDbBlockBegin
  2
*MODEL_SPACE
 70
     0
 10
0.0
 20
0.0
 30
0.0
  3
*MODEL_SPACE
  1

  0
ENDBLK
  5
E
100
AcDbEntity
  8
0
100
AcDbBlockEnd
  0
BLOCK
  5
F
100
AcDbEntity
 67
     1
  8
0
100
AcDbBlockBegin
  2
*PAPER_SPACE
 70
     0
 10
0.0
 20
0.0
 30
0.0
  3
*PAPER_SPACE
  1

  0
ENDBLK
  5
10
100
AcDbEntity
 67
     1
  8
0
100
AcDbBlockEnd
  0
BLOCK
  5
2B
100
AcDbEntity
  8
LIVELLO_1
 62
     7
100
AcDbBlockBegin
  2
AI9-BLK1
 70
     0
 10
0.0
 20
0.0
 30
0.0
  3
AI9-BLK1
  1

  0
SPLINE
  5
BE
100
AcDbEntity
  8
LIVELLO_1
 62
     7
100
AcDbSpline
210
0.0
220
0.0
230
1.0
 70
     8
 71
     3
 72
    17
 73
    13
 74
     0
 42
0.00000001
 43
0.00000001
 40
0.0
 40
0.0
 40
0.0
 40
0.0
 40
1.0
 40
1.0
 40
1.0
 40
2.0
 40
2.0
 40
2.0
 40
3.0
 40
3.0
 40
3.0
 40
4.0
 40
4.0
 40
4.0
 40
4.0
 10
-4.190355767144097
 20
83.508167182074644
 30
0.0
 10
-4.190355767144097
 20
83.508167182074644
 30
0.0
 10
-4.190355767144097
 20
71.435519070095481
 30
0.0
 10
-4.190355767144097
 20
71.435519070095481
 30
0.0
 10
-4.190355767144097
 20
64.278849962022562
 30
0.0
 10
-10.02049085828993
 20
58.477653672960066
 30
0.0
 10
-17.173714870876733
 20
58.477653672960066
 30
0.0
 10
-24.33003946940104
 20
58.477653672960066
 30
0.0
 10
-30.135542127821179
 20
64.278849962022562
 30
0.0
 10
-30.135542127821179
 20
71.435519070095481
 30
0.0
 10
-30.135542127821179
 20
71.435519070095481
 30
0.0
 10
-30.135542127821179
 20
83.508167182074644
 30
0.0
 10
-30.135542127821179
 20
83.508167182074644
 30
0.0
  0
LINE
  5
BD
100
AcDbEntity
  8
LIVELLO_1
 62
     7
100
AcDbLine
 10
-36.505007
 20
85.346126
 30
0.0
 11
2.159644
 21
85.346126
 31
0.0
  0
SPLINE
  5
BC
100
AcDbEntity
  8
LIVELLO_1
 62
     7
100
AcDbSpline
210
0.0
220
0.0
230
1.0
 70
     8
 71
     3
 72
    29
 73
    25
 74
     0
 42
0.00000001
 43
0.00000001
 40
0.0
 40
0.0
 40
0.0
 40
0.0
 40
1.0
 40
1.0
 40
1.0
 40
2.0
 40
2.0
 40
2.0
 40
3.0
 40
3.0
 40
3.0
 40
4.0
 40
4.0
 40
4.0
 40
5.0
 40
5.0
 40
5.0
 40
6.0
 40
6.0
 40
6.0
 40
7.0
 40
7.0
 40
7.0
 40
8.0
 40
8.0
 40
8.0
 40
8.0
 10
-12.573478868272568
 20
101.92030775282117
 30
0.0
 10
-12.573478868272568
 20
101.92030775282117
 30
0.0
 10
-9.8110290527343746
 20
101.5399692111545
 30
0.0
 10
-9.8110290527343746
 20
102.83963148328992
 30
0.0
 10
-9.8110290527343746
 20
102.83963148328992
 30
0.0
 10
-10.727768961588541
 20
103.76291707356769
 30
0.0
 10
-12.573478868272568
 20
104.68155178493923
 30
0.0
 10
-14.10086195203993
 20
105.7751973470052
 30
0.0
 10
-15.167635769314234
 20
105.92626478407117
 30
0.0
 10
-14.871874321831596
 20
106.52192179361978
 30
0.0
 10
-14.050908067491319
 20
108.17074449327257
 30
0.0
 10
-16.252496337890623
 20
109.28764444986979
 30
0.0
 10
-17.173714870876733
 20
109.28764444986979
 30
0.0
 10
-18.093899875217012
 20
109.28764444986979
 30
0.0
 10
-20.299794514973957
 20
108.17074449327257
 30
0.0
 10
-19.4764166937934
 20
106.52192179361978
 30
0.0
 10
-19.174454074435761
 20
105.92626478407117
 30
0.0
 10
-20.249840630425346
 20
105.7751973470052
 30
0.0
 10
-21.779463026258679
 20
104.68155178493923
 30
0.0
 10
-23.613287353515624
 20
103.76291707356769
 30
0.0
 10
-24.537606472439233
 20
102.83963148328992
 30
0.0
 10
-24.537606472439233
 20
102.83963148328992
 30
0.0
 10
-24.537606472439233
 20
101.5399692111545
 30
0.0
 10
-21.779463026258679
 20
101.92030775282117
 30
0.0
 10
-21.779463026258679
 20
101.92030775282117
 30
0.0
  0
SPLINE
  5
BB
100
AcDbEntity
  8
LIVELLO_1
 62
     7
100
AcDbSpline
210
0.0
220
0.0
230
1.0
 70
     8
 71
     3
 72
    32
 73
    28
 74
     0
 42
0.00000001
 43
0.00000001
 40
0.0
 40
0.0
 40
0.0
 40
0.0
 40
1.0
 40
1.0
 40
1.0
 40
2.0
 40
2.0
 40
2.0
 40
3.0
 40
3.0
 40
3.0
 40
4.0
 40
4.0
 40
4.0
 40
5.0
 40
5.0
 40
5.0
 40
6.0
 40
6.0
 40
6.0
 40
7.0
 40
7.0
 40
7.0
 40
8.0
 40
8.0
 40
8.0
 40
9.0
 40
9.0
 40
9.0
 40
9.0
 10
-12.573478868272568
 20
100.07838745117186
 30
0.0
 10
2.1596442328559027
 20
100.07838745117186
 30
0.0
 10
4.0019090440538188
 20
88.112020534939234
 30
0.0
 10
4.0019090440538188
 20
88.112020534939234
 30
0.0
 10
6.757985432942708
 20
88.112020534939234
 30
0.0
 10
6.757985432942708
 20
85.346125623914929
 30
0.0
 10
6.757985432942708
 20
85.346125623914929
 30
0.0
 10
6.757985432942708
 20
85.346125623914929
 30
0.0
 10
2.1596442328559027
 20
85.346125623914929
 30
0.0
 10
2.1596442328559027
 20
85.346125623914929
 30
0.0
 10
2.1596442328559027
 20
84.333784315321168
 30
0.0
 10
1.3333380805121526
 20
83.508167182074644
 30
0.0
 10
0.3163458930121528
 20
83.508167182074644
 30
0.0
 10
0.3163458930121528
 20
83.508167182074644
 30
0.0
 10
-34.666876220703124
 20
83.508167182074644
 30
0.0
 10
-34.666876220703124
 20
83.508167182074644
 30
0.0
 10
-35.683868408203125
 20
83.508167182074644
 30
0.0
 10
-36.505006917317708
 20
84.333784315321168
 30
0.0
 10
-36.505006917317708
 20
85.346125623914929
 30
0.0
 10
-36.505006917317708
 20
85.346125623914929
 30
0.0
 10
-41.112994384765621
 20
85.346125623914929
 30
0.0
 10
-41.112994384765621
 20
85.346125623914929
 30
0.0
 10
-41.112994384765621
 20
85.346125623914929
 30
0.0
 10
-41.112994384765621
 20
88.112020534939234
 30
0.0
 10
-38.346410454644094
 20
88.112020534939234
 30
0.0
 10
-38.346410454644094
 20
88.112020534939234
 30
0.0
 10
-36.505006917317708
 20
100.07838745117186
 30
0.0
 10
-21.779463026258679
 20
100.07838745117186
 30
0.0
  0
LINE
  5
BA
100
AcDbEntity
  8
LIVELLO_1
 62
     7
100
AcDbLine
 10
-41.112994
 20
86.271651
 30
0.0
 11
6.757985
 21
86.271651
 31
0.0
  0
LINE
  5
B9
100
AcDbEntity
  8
LIVELLO_1
 62
     7
100
AcDbLine
 10
-38.34641
 20
88.112021
 30
0.0
 11
4.001909
 21
88.112021
 31
0.0
  0
LINE
  5
B8
100
AcDbEntity
  8
LIVELLO_1
 62
     7
100
AcDbLine
 10
-14.871874
 20
105.603115
 30
0.0
 11
-17.173715
 21
105.603115
 31
0.0
  0
LINE
  5
B7
100
AcDbEntity
  8
LIVELLO_1
 62
     7
100
AcDbLine
 10
-19.476417
 20
105.603115
 30
0.0
 11
-17.173715
 21
105.603115
 31
0.0
  0
POLYLINE
  5
B1
100
AcDbEntity
  8
LIVELLO_1
 62
     7
100
AcDb2dPolyline
 66
     1
 10
0.0
 20
0.0
 30
0.0
 70
     1
  0
VERTEX
  5
B2
100
AcDbEntity
  8
LIVELLO_1
 62
     7
100
AcDbVertex
100
AcDb2dVertex
 10
-21.779463
 20
101.920308
 30
0.0
  0
VERTEX
  5
B3
100
AcDbEntity
  8
LIVELLO_1
 62
     7
100
AcDbVertex
100
AcDb2dVertex
 10
-12.573479
 20
101.920308
 30
0.0
  0
VERTEX
  5
B4
100
AcDbEntity
  8
LIVELLO_1
 62
     7
100
AcDbVertex
100
AcDb2dVertex
 10
-12.573479
 20
100.078387
 30
0.0
  0
VERTEX
  5
B5
100
AcDbEntity
  8
LIVELLO_1
 62
     7
100
AcDbVertex
100
AcDb2dVertex
 10
-21.779463
 20
100.078387
 30
0.0
  0
SEQEND
  5
B6
100
AcDbEntity
  8
LIVELLO_1
 62
     7
  0
SPLINE
  5
B0
100
AcDbEntity
  8
LIVELLO_1
 62
     7
100
AcDbSpline
210
0.0
220
0.0
230
1.0
 70
     8
 71
     3
 72
    17
 73
    13
 74
     0
 42
0.00000001
 43
0.00000001
 40
0.0
 40
0.0
 40
0.0
 40
0.0
 40
1.0
 40
1.0
 40
1.0
 40
2.0
 40
2.0
 40
2.0
 40
3.0
 40
3.0
 40
3.0
 40
4.0
 40
4.0
 40
4.0
 40
4.0
 10
-20.805190022786455
 20
45.843454996744789
 30
0.0
 10
-20.805190022786455
 20
22.755458577473956
 30
0.0
 10
-25.425579833984372
 20
18.134552001953125
 30
0.0
 10
-25.425579833984372
 20
18.134552001953125
 30
0.0
 10
-25.425579833984372
 20
18.134552001953125
 30
0.0
 10
-9.2642923990885411
 20
18.134552001953125
 30
0.0
 10
-9.2642923990885411
 20
18.134552001953125
 30
0.0
 10
-9.2642923990885411
 20
18.134552001953125
 30
0.0
 10
-13.882787407769095
 20
22.755458577473956
 30
0.0
 10
-13.882787407769095
 20
45.843454996744789
 30
0.0
 10
-13.882787407769095
 20
45.843454996744789
 30
0.0
 10
-20.805190022786455
 20
45.843454996744789
 30
0.0
 10
-20.805190022786455
 20
45.843454996744789
 30
0.0
  0
SPLINE
  5
AF
100
AcDbEntity
  8
LIVELLO_1
 62
     7
100
AcDbSpline
210
0.0
220
0.0
230
1.0
 70
     8
 71
     3
 72
    17
 73
    13
 74
     0
 42
0.00000001
 43
0.00000001
 40
0.0
 40
0.0
 40
0.0
 40
0.0
 40
1.0
 40
1.0
 40
1.0
 40
2.0
 40
2.0
 40
2.0
 40
3.0
 40
3.0
 40
3.0
 40
4.0
 40
4.0
 40
4.0
 40
4.0
 10
-0.0304029676649306
 20
8.8975619845920129
 30
0.0
 10
-0.0304029676649306
 20
8.8975619845920129
 30
0.0
 10
-2.3418897840711805
 20
15.824270968967012
 30
0.0
 10
-9.2642923990885411
 20
18.134552001953125
 30
0.0
 10
-9.2642923990885411
 20
18.134552001953125
 30
0.0
 10
-25.425579833984372
 20
18.134552001953125
 30
0.0
 10
-25.425579833984372
 20
18.134552001953125
 30
0.0
 10
-32.355733913845484
 20
15.824270968967012
 30
0.0
 10
-34.666876220703124
 20
8.8975619845920129
 30
0.0
 10
-34.666876220703124
 20
8.8975619845920129
 30
0.0
 10
-34.666876220703124
 20
8.8975619845920129
 30
0.0
 10
-0.0304029676649306
 20
8.8975619845920129
 30
0.0
 10
-0.0304029676649306
 20
8.8975619845920129
 30
0.0
  0
POLYLINE
  5
A9
100
AcDbEntity
  8
LIVELLO_1
 62
     7
100
AcDb2dPolyline
 66
     1
 10
0.0
 20
0.0
 30
0.0
 70
     1
  0
VERTEX
  5
AA
100
AcDbEntity
  8
LIVELLO_1
 62
     7
100
AcDbVertex
100
AcDb2dVertex
 10
-34.666876
 20
8.897562
 30
0.0
  0
VERTEX
  5
AB
100
AcDbEntity
  8
LIVELLO_1
 62
     7
100
AcDbVertex
100
AcDb2dVertex
 10
-0.030403
 20
8.897562
 30
0.0
  0
VERTEX
  5
AC
100
AcDbEntity
  8
LIVELLO_1
 62
     7
100
AcDbVertex
100
AcDb2dVertex
 10
2.280912
 20
6.587281
 30
0.0
  0
VERTEX
  5
AD
100
AcDbEntity
  8
LIVELLO_1
 62
     7
100
AcDbVertex
100
AcDb2dVertex
 10
-36.97199
 20
6.587281
 30
0.0
  0
SEQEND
  5
AE
100
AcDbEntity
  8
LIVELLO_1
 62
     7
  0
POLYLINE
  5
A3
100
AcDbEntity
  8
LIVELLO_1
 62
     7
100
AcDb2dPolyline
 66
     1
 10
0.0
 20
0.0
 30
0.0
 70
     1
  0
VERTEX
  5
A4
100
AcDbEntity
  8
LIVELLO_1
 62
     7
100
AcDbVertex
100
AcDb2dVertex
 10
-36.97199
 20
6.587281
 30
0.0
  0
VERTEX
  5
A5
100
AcDbEntity
  8
LIVELLO_1
 62
     7
100
AcDbVertex
100
AcDb2dVertex
 10
2.280912
 20
6.587281
 30
0.0
  0
VERTEX
  5
A6
100
AcDbEntity
  8
LIVELLO_1
 62
     7
100
AcDbVertex
100
AcDb2dVertex
 10
2.280912
 20
1.973265
 30
0.0
  0
VERTEX
  5
A7
100
AcDbEntity
  8
LIVELLO_1
 62
     7
100
AcDbVertex
100
AcDb2dVertex
 10
-36.97199
 20
1.973265
 30
0.0
  0
SEQEND
  5
A8
100
AcDbEntity
  8
LIVELLO_1
 62
     7
  0
POLYLINE
  5
9E
100
AcDbEntity
  8
LIVELLO_1
 62
     7
100
AcDb2dPolyline
 66
     1
 10
0.0
 20
0.0
 30
0.0
  0
VERTEX
  5
9F
100
AcDbEntity
  8
LIVELLO_1
 62
     7
100
AcDbVertex
100
AcDb2dVertex
 10
-34.702188
 20
61.562564
 30
0.0
  0
VERTEX
  5
A0
100
AcDbEntity
  8
LIVELLO_1
 62
     7
100
AcDbVertex
100
AcDb2dVertex
 10
-34.87651
 20
83.591022
 30
0.0
  0
VERTEX
  5
A1
100
AcDbEntity
  8
LIVELLO_1
 62
     7
100
AcDbVertex
100
AcDb2dVertex
 10
-32.61515
 20
83.591022
 30
0.0
  0
SEQEND
  5
A2
100
AcDbEntity
  8
LIVELLO_1
 62
     7
  0
LINE
  5
9D
100
AcDbEntity
  8
LIVELLO_1
 62
     7
100
AcDbLine
 10
-32.442895
 20
61.58134
 30
0.0
 11
-32.61515
 21
83.591022
 31
0.0
  0
LINE
  5
9C
100
AcDbEntity
  8
LIVELLO_1
 62
     7
100
AcDbLine
 10
-2.009955
 20
83.591022
 30
0.0
 11
-2.186516
 21
61.58134
 31
0.0
  0
POLYLINE
  5
97
100
AcDbEntity
  8
LIVELLO_1
 62
     7
100
AcDb2dPolyline
 66
     1
 10
0.0
 20
0.0
 30
0.0
  0
VERTEX
  5
98
100
AcDbEntity
  8
LIVELLO_1
 62
     7
100
AcDbVertex
100
AcDb2dVertex
 10
-2.009955
 20
83.591022
 30
0.0
  0
VERTEX
  5
99
100
AcDbEntity
  8
LIVELLO_1
 62
     7
100
AcDbVertex
100
AcDb2dVertex
 10
0.248133
 20
83.591022
 30
0.0
  0
VERTEX
  5
9A
100
AcDbEntity
  8
LIVELLO_1
 62
     7
100
AcDbVertex
100
AcDb2dVertex
 10
0.075017
 20
61.562564
 30
0.0
  0
SEQEND
  5
9B
100
AcDbEntity
  8
LIVELLO_1
 62
     7
  0
LINE
  5
96
100
AcDbEntity
  8
LIVELLO_1
 62
     7
100
AcDbLine
 10
-13.163624
 20
50.715165
 30
0.0
 11
-21.461481
 21
50.715165
 31
0.0
  0
LINE
  5
95
100
AcDbEntity
  8
LIVELLO_1
 62
     7
100
AcDbLine
 10
-21.858183
 20
48.183364
 30
0.0
 11
-21.858183
 21
50.604577
 31
0.0
  0
SPLINE
  5
94
100
AcDbEntity
  8
LIVELLO_1
 62
     7
100
AcDbSpline
210
0.0
220
0.0
230
1.0
 70
     8
 71
     3
 72
     8
 73
     4
 74
     0
 42
0.00000001
 43
0.00000001
 40
0.0
 40
0.0
 40
0.0
 40
0.0
 40
1.0
 40
1.0
 40
1.0
 40
1.0
 10
-34.702188449435759
 20
61.562564425998261
 30
0.0
 10
-34.642588297526039
 20
54.150441487630204
 30
0.0
 10
-29.017953152126733
 20
48.181124538845481
 30
0.0
 10
-22.093138970269095
 20
48.181124538845481
 30
0.0
  0
SPLINE
  5
93
100
AcDbEntity
  8
LIVELLO_1
 62
     7
100
AcDbSpline
210
0.0
220
0.0
230
1.0
 70
     8
 71
     3
 72
     8
 73
     4
 74
     0
 42
0.00000001
 43
0.00000001
 40
0.0
 40
0.0
 40
0.0
 40
0.0
 40
1.0
 40
1.0
 40
1.0
 40
1.0
 10
-32.442894829644096
 20
61.581340196397562
 30
0.0
 10
-32.390701633029508
 20
55.501780192057289
 30
0.0
 10
-27.774445936414928
 20
50.602165391710066
 30
0.0
 10
-22.093138970269095
 20
50.602165391710066
 30
0.0
  0
SPLINE
  5
92
100
AcDbEntity
  8
LIVELLO_1
 62
     7
100
AcDbSpline
210
0.0
220
0.0
230
1.0
 70
     8
 71
     3
 72
     8
 73
     4
 74
     0
 42
0.00000001
 43
0.00000001
 40
0.0
 40
0.0
 40
0.0
 40
0.0
 40
1.0
 40
1.0
 40
1.0
 40
1.0
 10
-12.527659098307291
 20
50.602165391710066
 30
0.0
 10
-6.8527255588107634
 20
50.602165391710066
 30
0.0
 10
-2.2342305501302082
 20
55.501780192057289
 30
0.0
 10
-2.1865159776475691
 20
61.581340196397562
 30
0.0
  0
SPLINE
  5
91
100
AcDbEntity
  8
LIVELLO_1
 62
     7
100
AcDbSpline
210
0.0
220
0.0
230
1.0
 70
     8
 71
     3
 72
     8
 73
     4
 74
     0
 42
0.00000001
 43
0.00000001
 40
0.0
 40
0.0
 40
0.0
 40
0.0
 40
1.0
 40
1.0
 40
1.0
 40
1.0
 10
-12.527659098307291
 20
48.181124538845481
 30
0.0
 10
-5.6116299099392357
 20
48.181124538845481
 30
0.0
 10
0.0154168023003472
 20
54.150441487630204
 30
0.0
 10
0.0750169542100694
 20
61.562564425998261
 30
0.0
  0
SPLINE
  5
90
100
AcDbEntity
  8
LIVELLO_1
 62
     7
100
AcDbSpline
210
0.0
220
0.0
230
1.0
 70
     8
 71
     3
 72
    11
 73
     7
 74
     0
 42
0.00000001
 43
0.00000001
 40
0.0
 40
0.0
 40
0.0
 40
0.0
 40
1.0
 40
1.0
 40
1.0
 40
2.0
 40
2.0
 40
2.0
 40
2.0
 10
-12.968114556206595
 20
50.878806559244786
 30
0.0
 10
-13.739126925998262
 20
50.331897650824651
 30
0.0
 10
-13.938942464192706
 20
49.219648573133675
 30
0.0
 10
-13.429585096571179
 20
48.398682318793398
 30
0.0
 10
-13.307284206814234
 20
48.200417073567706
 30
0.0
 10
-13.15087687174479
 20
48.032296413845479
 30
0.0
 10
-12.968114556206595
 20
47.900693766276035
 30
0.0
  0
SPLINE
  5
8F
100
AcDbEntity
  8
LIVELLO_1
 62
     7
100
AcDbSpline
210
0.0
220
0.0
230
1.0
 70
     8
 71
     3
 72
    11
 73
     7
 74
     0
 42
0.00000001
 43
0.00000001
 40
0.0
 40
0.0
 40
0.0
 40
0.0
 40
1.0
 40
1.0
 40
1.0
 40
2.0
 40
2.0
 40
2.0
 40
2.0
 10
-21.659056939019095
 20
47.900693766276035
 30
0.0
 10
-20.890283881293399
 20
48.449152967664929
 30
0.0
 10
-20.683922661675346
 20
49.559679497612841
 30
0.0
 10
-21.197586398654511
 20
50.383057318793398
 30
0.0
 10
-21.322126600477429
 20
50.578910997178816
 30
0.0
 10
-21.478361680772569
 20
50.749270968967011
 30
0.0
 10
-21.659056939019095
 20
50.878806559244786
 30
0.0
  0
SPLINE
  5
8E
100
AcDbEntity
  8
LIVELLO_1
 62
     7
100
AcDbSpline
210
0.0
220
0.0
230
1.0
 70
     8
 71
     3
 72
     8
 73
     4
 74
     0
 42
0.00000001
 43
0.00000001
 40
0.0
 40
0.0
 40
0.0
 40
0.0
 40
1.0
 40
1.0
 40
1.0
 40
1.0
 10
-22.093138970269095
 20
50.602165391710066
 30
0.0
 10
-22.016485595703124
 20
50.602165391710066
 30
0.0
 10
-21.93363104926215
 20
50.602165391710066
 30
0.0
 10
-21.858183458116319
 20
50.604576958550339
 30
0.0
  0
SPLINE
  5
8D
100
AcDbEntity
  8
LIVELLO_1
 62
     7
100
AcDbSpline
210
0.0
220
0.0
230
1.0
 70
     8
 71
     3
 72
     8
 73
     4
 74
     0
 42
0.00000001
 43
0.00000001
 40
0.0
 40
0.0
 40
0.0
 40
0.0
 40
1.0
 40
1.0
 40
1.0
 40
1.0
 10
-22.093138970269095
 20
48.181124538845481
 30
0.0
 10
-22.016485595703124
 20
48.181124538845481
 30
0.0
 10
-21.93363104926215
 20
48.181124538845481
 30
0.0
 10
-21.858183458116319
 20
48.183363850911455
 30
0.0
  0
LINE
  5
8C
100
AcDbEntity
  8
LIVELLO_1
 62
     7
100
AcDbLine
 10
-13.186017
 20
48.087935
 30
0.0
 11
-21.444427
 21
48.087935
 31
0.0
  0
LINE
  5
8B
100
AcDbEntity
  8
LIVELLO_1
 62
     7
100
AcDbLine
 10
-21.343486
 20
51.644651
 30
0.0
 11
-20.355088
 21
51.738358
 31
0.0
  0
LINE
  5
8A
100
AcDbEntity
  8
LIVELLO_1
 62
     7
100
AcDbLine
 10
-21.858183
 20
50.647124
 30
0.0
 11
-21.858183
 21
50.602165
 31
0.0
  0
LINE
  5
89
100
AcDbEntity
  8
LIVELLO_1
 62
     7
100
AcDbLine
 10
-21.858183
 20
48.134616
 30
0.0
 11
-21.848537
 21
48.066403
 31
0.0
  0
LINE
  5
88
100
AcDbEntity
  8
LIVELLO_1
 62
     7
100
AcDbLine
 10
-21.67301
 20
47.900694
 30
0.0
 11
-21.659057
 21
47.900694
 31
0.0
  0
LINE
  5
87
100
AcDbEntity
  8
LIVELLO_1
 62
     7
100
AcDbLine
 10
-21.659057
 20
47.900694
 30
0.0
 11
-21.659057
 21
47.511053
 31
0.0
  0
LINE
  5
86
100
AcDbEntity
  8
LIVELLO_1
 62
     7
100
AcDbLine
 10
-21.858183
 20
50.647124
 30
0.0
 11
-21.848537
 21
50.708447
 31
0.0
  0
LINE
  5
85
100
AcDbEntity
  8
LIVELLO_1
 62
     7
100
AcDbLine
 10
-21.67301
 20
50.878807
 30
0.0
 11
-21.659057
 21
50.878807
 31
0.0
  0
LINE
  5
84
100
AcDbEntity
  8
LIVELLO_1
 62
     7
100
AcDbLine
 10
-21.659057
 20
51.274476
 30
0.0
 11
-21.659057
 21
50.878807
 31
0.0
  0
LINE
  5
83
100
AcDbEntity
  8
LIVELLO_1
 62
     7
100
AcDbLine
 10
-12.768988
 20
48.134616
 30
0.0
 11
-12.768988
 21
48.181125
 31
0.0
  0
LINE
  5
82
100
AcDbEntity
  8
LIVELLO_1
 62
     7
100
AcDbLine
 10
-18.48733
 20
45.796257
 30
0.0
 11
-17.620372
 21
45.796257
 31
0.0
  0
LINE
  5
81
100
AcDbEntity
  8
LIVELLO_1
 62
     7
100
AcDbLine
 10
-18.48733
 20
45.796257
 30
0.0
 11
-20.291354
 21
45.964378
 31
0.0
  0
LINE
  5
80
100
AcDbEntity
  8
LIVELLO_1
 62
     7
100
AcDbLine
 10
-16.137775
 20
45.796257
 30
0.0
 11
-14.340124
 21
45.964378
 31
0.0
  0
LINE
  5
7F
100
AcDbEntity
  8
LIVELLO_1
 62
     7
100
AcDbLine
 10
-12.968115
 20
47.900694
 30
0.0
 11
-12.949856
 21
47.900694
 31
0.0
  0
LINE
  5
7E
100
AcDbEntity
  8
LIVELLO_1
 62
     7
100
AcDbLine
 10
-12.968115
 20
47.900694
 30
0.0
 11
-12.968115
 21
47.511053
 31
0.0
  0
LINE
  5
7D
100
AcDbEntity
  8
LIVELLO_1
 62
     7
100
AcDbLine
 10
-12.780701
 20
48.066403
 30
0.0
 11
-12.768988
 21
48.134616
 31
0.0
  0
POLYLINE
  5
78
100
AcDbEntity
  8
LIVELLO_1
 62
     7
100
AcDb2dPolyline
 66
     1
 10
0.0
 20
0.0
 30
0.0
  0
VERTEX
  5
79
100
AcDbEntity
  8
LIVELLO_1
 62
     7
100
AcDbVertex
100
AcDb2dVertex
 10
-20.034005
 20
52.108706
 30
0.0
  0
VERTEX
  5
7A
100
AcDbEntity
  8
LIVELLO_1
 62
     7
100
AcDbVertex
100
AcDb2dVertex
 10
-19.833845
 20
52.127309
 30
0.0
  0
VERTEX
  5
7B
100
AcDbEntity
  8
LIVELLO_1
 62
     7
100
AcDbVertex
100
AcDb2dVertex
 10
-14.78902
 20
52.127309
 30
0.0
  0
SEQEND
  5
7C
100
AcDbEntity
  8
LIVELLO_1
 62
     7
  0
LINE
  5
77
100
AcDbEntity
  8
LIVELLO_1
 62
     7
100
AcDbLine
 10
-12.968115
 20
51.274476
 30
0.0
 11
-12.968115
 21
50.878807
 31
0.0
  0
LINE
  5
76
100
AcDbEntity
  8
LIVELLO_1
 62
     7
100
AcDbLine
 10
-12.968115
 20
50.878807
 30
0.0
 11
-12.949856
 21
50.878807
 31
0.0
  0
LINE
  5
75
100
AcDbEntity
  8
LIVELLO_1
 62
     7
100
AcDbLine
 10
-12.780701
 20
50.708447
 30
0.0
 11
-12.768988
 21
50.647124
 31
0.0
  0
LINE
  5
74
100
AcDbEntity
  8
LIVELLO_1
 62
     7
100
AcDbLine
 10
-14.585759
 20
52.108706
 30
0.0
 11
-14.78902
 21
52.127309
 31
0.0
  0
LINE
  5
73
100
AcDbEntity
  8
LIVELLO_1
 62
     7
100
AcDbLine
 10
-21.858183
 20
48.181125
 30
0.0
 11
-21.858183
 21
48.134616
 31
0.0
  0
LINE
  5
72
100
AcDbEntity
  8
LIVELLO_1
 62
     7
100
AcDbLine
 10
-14.267777
 20
51.738358
 30
0.0
 11
-20.355088
 21
51.738358
 31
0.0
  0
LINE
  5
71
100
AcDbEntity
  8
LIVELLO_1
 62
     7
100
AcDbLine
 10
-12.768988
 20
48.181125
 30
0.0
 11
-12.768988
 21
50.602165
 31
0.0
  0
LINE
  5
70
100
AcDbEntity
  8
LIVELLO_1
 62
     7
100
AcDbLine
 10
-12.768988
 20
50.602165
 30
0.0
 11
-12.768988
 21
50.647124
 31
0.0
  0
LINE
  5
6F
100
AcDbEntity
  8
LIVELLO_1
 62
     7
100
AcDbLine
 10
-17.008867
 20
45.796257
 30
0.0
 11
-16.137775
 21
45.796257
 31
0.0
  0
LINE
  5
6E
100
AcDbEntity
  8
LIVELLO_1
 62
     7
100
AcDbLine
 10
-17.620372
 20
45.796257
 30
0.0
 11
-17.316342
 21
45.796257
 31
0.0
  0
LINE
  5
6D
100
AcDbEntity
  8
LIVELLO_1
 62
     7
100
AcDbLine
 10
-17.316342
 20
45.796257
 30
0.0
 11
-17.008867
 21
45.796257
 31
0.0
  0
LINE
  5
6C
100
AcDbEntity
  8
LIVELLO_1
 62
     7
100
AcDbLine
 10
-13.283685
 20
51.644651
 30
0.0
 11
-14.267777
 21
51.738358
 31
0.0
  0
SPLINE
  5
6B
100
AcDbEntity
  8
LIVELLO_1
 62
     7
100
AcDbSpline
210
0.0
220
0.0
230
1.0
 70
     8
 71
     3
 72
     8
 73
     4
 74
     0
 42
0.00000001
 43
0.00000001
 40
0.0
 40
0.0
 40
0.0
 40
0.0
 40
1.0
 40
1.0
 40
1.0
 40
1.0
 10
-20.450861952039929
 20
46.134737820095481
 30
0.0
 10
-20.524414740668401
 20
46.655980767144094
 30
0.0
 10
-20.901997205946177
 20
47.066463894314232
 30
0.0
 10
-21.384827338324651
 20
47.149490695529508
 30
0.0
  0
SPLINE
  5
6A
100
AcDbEntity
  8
LIVELLO_1
 62
     7
100
AcDbSpline
210
0.0
220
0.0
230
1.0
 70
     8
 71
     3
 72
     8
 73
     4
 74
     0
 42
0.00000001
 43
0.00000001
 40
0.0
 40
0.0
 40
0.0
 40
0.0
 40
1.0
 40
1.0
 40
1.0
 40
1.0
 10
-21.848537190755206
 20
48.066402859157982
 30
0.0
 10
-21.842163764105901
 20
47.972696261935759
 30
0.0
 10
-21.768783230251735
 20
47.900693766276035
 30
0.0
 10
-21.673009575737844
 20
47.900693766276035
 30
0.0
  0
SPLINE
  5
69
100
AcDbEntity
  8
LIVELLO_1
 62
     7
100
AcDbSpline
210
0.0
220
0.0
230
1.0
 70
     8
 71
     3
 72
     8
 73
     4
 74
     0
 42
0.00000001
 43
0.00000001
 40
0.0
 40
0.0
 40
0.0
 40
0.0
 40
1.0
 40
1.0
 40
1.0
 40
1.0
 10
-21.659056939019095
 20
47.511053466796874
 30
0.0
 10
-21.659056939019095
 20
47.339143202039928
 30
0.0
 10
-21.546402316623261
 20
47.189798312717009
 30
0.0
 10
-21.384827338324651
 20
47.149490695529508
 30
0.0
  0
SPLINE
  5
68
100
AcDbEntity
  8
LIVELLO_1
 62
     7
100
AcDbSpline
210
0.0
220
0.0
230
1.0
 70
     8
 71
     3
 72
     8
 73
     4
 74
     0
 42
0.00000001
 43
0.00000001
 40
0.0
 40
0.0
 40
0.0
 40
0.0
 40
1.0
 40
1.0
 40
1.0
 40
1.0
 10
-21.343486192491316
 20
51.644651285807285
 30
0.0
 10
-21.524353705512151
 20
51.630009629991314
 30
0.0
 10
-21.659056939019095
 20
51.468090142144092
 30
0.0
 10
-21.659056939019095
 20
51.274475775824648
 30
0.0
  0
SPLINE
  5
67
100
AcDbEntity
  8
LIVELLO_1
 62
     7
100
AcDbSpline
210
0.0
220
0.0
230
1.0
 70
     8
 71
     3
 72
     8
 73
     4
 74
     0
 42
0.00000001
 43
0.00000001
 40
0.0
 40
0.0
 40
0.0
 40
0.0
 40
1.0
 40
1.0
 40
1.0
 40
1.0
 10
-21.673009575737844
 20
50.878806559244786
 30
0.0
 10
-21.768783230251735
 20
50.878806559244786
 30
0.0
 10
-21.842163764105901
 20
50.808871120876731
 30
0.0
 10
-21.848537190755206
 20
50.708446587456592
 30
0.0
  0
SPLINE
  5
66
100
AcDbEntity
  8
LIVELLO_1
 62
     7
100
AcDbSpline
210
0.0
220
0.0
230
1.0
 70
     8
 71
     3
 72
     8
 73
     4
 74
     0
 42
0.00000001
 43
0.00000001
 40
0.0
 40
0.0
 40
0.0
 40
0.0
 40
1.0
 40
1.0
 40
1.0
 40
1.0
 10
-20.450861952039929
 20
46.134737820095481
 30
0.0
 10
-20.439148627387151
 20
46.047404649522562
 30
0.0
 10
-20.372141520182289
 20
45.975229899088539
 30
0.0
 10
-20.291354031032984
 20
45.964377848307286
 30
0.0
  0
SPLINE
  5
65
100
AcDbEntity
  8
LIVELLO_1
 62
     7
100
AcDbSpline
210
0.0
220
0.0
230
1.0
 70
     8
 71
     3
 72
     8
 73
     4
 74
     0
 42
0.00000001
 43
0.00000001
 40
0.0
 40
0.0
 40
0.0
 40
0.0
 40
1.0
 40
1.0
 40
1.0
 40
1.0
 10
-14.340123833550345
 20
45.964377848307286
 30
0.0
 10
-14.250723605685762
 20
45.975229899088539
 30
0.0
 10
-14.188022867838541
 20
46.047404649522562
 30
0.0
 10
-14.17837660047743
 20
46.134737820095481
 30
0.0
  0
SPLINE
  5
64
100
AcDbEntity
  8
LIVELLO_1
 62
     7
100
AcDbSpline
210
0.0
220
0.0
230
1.0
 70
     8
 71
     3
 72
     8
 73
     4
 74
     0
 42
0.00000001
 43
0.00000001
 40
0.0
 40
0.0
 40
0.0
 40
0.0
 40
1.0
 40
1.0
 40
1.0
 40
1.0
 10
-13.235970730251735
 20
47.149490695529508
 30
0.0
 10
-13.720867919921874
 20
47.066463894314232
 30
0.0
 10
-14.104996066623263
 20
46.655980767144094
 30
0.0
 10
-14.17837660047743
 20
46.134737820095481
 30
0.0
  0
SPLINE
  5
63
100
AcDbEntity
  8
LIVELLO_1
 62
     7
100
AcDbSpline
210
0.0
220
0.0
230
1.0
 70
     8
 71
     3
 72
     8
 73
     4
 74
     0
 42
0.00000001
 43
0.00000001
 40
0.0
 40
0.0
 40
0.0
 40
0.0
 40
1.0
 40
1.0
 40
1.0
 40
1.0
 10
-12.949855550130208
 20
47.900693766276035
 30
0.0
 10
-12.860455322265624
 20
47.900693766276035
 30
0.0
 10
-12.787247043185763
 20
47.972696261935759
 30
0.0
 10
-12.780701361762151
 20
48.066402859157982
 30
0.0
  0
SPLINE
  5
62
100
AcDbEntity
  8
LIVELLO_1
 62
     7
100
AcDbSpline
210
0.0
220
0.0
230
1.0
 70
     8
 71
     3
 72
     8
 73
     4
 74
     0
 42
0.00000001
 43
0.00000001
 40
0.0
 40
0.0
 40
0.0
 40
0.0
 40
1.0
 40
1.0
 40
1.0
 40
1.0
 10
-13.235970730251735
 20
47.149490695529508
 30
0.0
 10
-13.078529866536456
 20
47.189798312717009
 30
0.0
 10
-12.968114556206595
 20
47.339143202039928
 30
0.0
 10
-12.968114556206595
 20
47.511053466796874
 30
0.0
  0
SPLINE
  5
61
100
AcDbEntity
  8
LIVELLO_1
 62
     7
100
AcDbSpline
210
0.0
220
0.0
230
1.0
 70
     8
 71
     3
 72
     8
 73
     4
 74
     0
 42
0.00000001
 43
0.00000001
 40
0.0
 40
0.0
 40
0.0
 40
0.0
 40
1.0
 40
1.0
 40
1.0
 40
1.0
 10
-20.034005398220483
 20
52.108705647786451
 30
0.0
 10
-20.222279866536457
 20
52.091652425130206
 30
0.0
 10
-20.355088297526041
 20
51.933694797092009
 30
0.0
 10
-20.355088297526041
 20
51.738357883029508
 30
0.0
  0
SPLINE
  5
60
100
AcDbEntity
  8
LIVELLO_1
 62
     7
100
AcDbSpline
210
0.0
220
0.0
230
1.0
 70
     8
 71
     3
 72
     8
 73
     4
 74
     0
 42
0.00000001
 43
0.00000001
 40
0.0
 40
0.0
 40
0.0
 40
0.0
 40
1.0
 40
1.0
 40
1.0
 40
1.0
 10
-12.968114556206595
 20
51.274475775824648
 30
0.0
 10
-12.968114556206595
 20
51.468090142144092
 30
0.0
 10
-13.105229356553819
 20
51.630009629991314
 30
0.0
 10
-13.283685302734375
 20
51.644651285807285
 30
0.0
  0
SPLINE
  5
5F
100
AcDbEntity
  8
LIVELLO_1
 62
     7
100
AcDbSpline
210
0.0
220
0.0
230
1.0
 70
     8
 71
     3
 72
     8
 73
     4
 74
     0
 42
0.00000001
 43
0.00000001
 40
0.0
 40
0.0
 40
0.0
 40
0.0
 40
1.0
 40
1.0
 40
1.0
 40
1.0
 10
-12.780701361762151
 20
50.708446587456592
 30
0.0
 10
-12.787247043185763
 20
50.808871120876731
 30
0.0
 10
-12.860455322265624
 20
50.878806559244786
 30
0.0
 10
-12.949855550130208
 20
50.878806559244786
 30
0.0
  0
SPLINE
  5
5E
100
AcDbEntity
  8
LIVELLO_1
 62
     7
100
AcDbSpline
210
0.0
220
0.0
230
1.0
 70
     8
 71
     3
 72
     8
 73
     4
 74
     0
 42
0.00000001
 43
0.00000001
 40
0.0
 40
0.0
 40
0.0
 40
0.0
 40
1.0
 40
1.0
 40
1.0
 40
1.0
 10
-14.267776828342013
 20
51.738357883029508
 30
0.0
 10
-14.267776828342013
 20
51.933694797092009
 30
0.0
 10
-14.408336724175346
 20
52.091652425130206
 30
0.0
 10
-14.585759141710069
 20
52.108705647786451
 30
0.0
  0
LINE
  5
5D
100
AcDbEntity
  8
LIVELLO_1
 62
     7
100
AcDbLine
 10
-12.527659
 20
48.181125
 30
0.0
 11
-12.768988
 21
48.181125
 31
0.0
  0
LINE
  5
5C
100
AcDbEntity
  8
LIVELLO_1
 62
     7
100
AcDbLine
 10
-12.527659
 20
50.602165
 30
0.0
 11
-12.768988
 21
50.602165
 31
0.0
  0
SPLINE
  5
5B
100
AcDbEntity
  8
LIVELLO_1
 62
     7
100
AcDbSpline
210
0.0
220
0.0
230
1.0
 70
     8
 71
     3
 72
    17
 73
    13
 74
     0
 42
0.00000001
 43
0.00000001
 40
0.0
 40
0.0
 40
0.0
 40
0.0
 40
1.0
 40
1.0
 40
1.0
 40
2.0
 40
2.0
 40
2.0
 40
3.0
 40
3.0
 40
3.0
 40
4.0
 40
4.0
 40
4.0
 40
4.0
 10
-17.310829671223956
 20
45.796257188585066
 30
0.0
 10
-17.310829671223956
 20
45.794706895616315
 30
0.0
 10
-17.310829671223956
 20
45.794706895616315
 30
0.0
 10
-17.316341824001736
 20
45.794706895616315
 30
0.0
 10
-17.316341824001736
 20
45.794706895616315
 30
0.0
 10
-17.316341824001736
 20
45.796257188585066
 30
0.0
 10
-17.316341824001736
 20
45.796257188585066
 30
0.0
 10
-17.316341824001736
 20
45.796257188585066
 30
0.0
 10
-17.316341824001736
 20
45.800908067491314
 30
0.0
 10
-17.316341824001736
 20
45.800908067491314
 30
0.0
 10
-17.310829671223956
 20
45.800908067491314
 30
0.0
 10
-17.310829671223956
 20
45.800908067491314
 30
0.0
 10
-17.310829671223956
 20
45.796257188585066
 30
0.0
  0
SPLINE
  5
5A
100
AcDbEntity
  8
LIVELLO_1
 62
     7
100
AcDbSpline
210
0.0
220
0.0
230
1.0
 70
     8
 71
     3
 72
    17
 73
    13
 74
     0
 42
0.00000001
 43
0.00000001
 40
0.0
 40
0.0
 40
0.0
 40
0.0
 40
1.0
 40
1.0
 40
1.0
 40
2.0
 40
2.0
 40
2.0
 40
3.0
 40
3.0
 40
3.0
 40
4.0
 40
4.0
 40
4.0
 40
4.0
 10
-17.614170328776041
 20
45.796257188585066
 30
0.0
 10
-17.614170328776041
 20
45.794706895616315
 30
0.0
 10
-17.614170328776041
 20
45.794706895616315
 30
0.0
 10
-17.620371500651039
 20
45.794706895616315
 30
0.0
 10
-17.620371500651039
 20
45.794706895616315
 30
0.0
 10
-17.620371500651039
 20
45.796257188585066
 30
0.0
 10
-17.620371500651039
 20
45.796257188585066
 30
0.0
 10
-17.620371500651039
 20
45.796257188585066
 30
0.0
 10
-17.620371500651039
 20
45.800908067491314
 30
0.0
 10
-17.620371500651039
 20
45.800908067491314
 30
0.0
 10
-17.614170328776041
 20
45.800908067491314
 30
0.0
 10
-17.614170328776041
 20
45.800908067491314
 30
0.0
 10
-17.614170328776041
 20
45.796257188585066
 30
0.0
  0
LINE
  5
59
100
AcDbEntity
  8
LIVELLO_1
 62
     7
100
AcDbLine
 10
-12.968115
 20
51.274476
 30
0.0
 11
-21.659057
 21
51.274476
 31
0.0
  0
LINE
  5
58
100
AcDbEntity
  8
LIVELLO_1
 62
     7
100
AcDbLine
 10
-12.968115
 20
47.511053
 30
0.0
 11
-21.659057
 21
47.511053
 31
0.0
  0
LINE
  5
57
100
AcDbEntity
  8
LIVELLO_1
 62
     7
100
AcDbLine
 10
-13.235971
 20
47.149491
 30
0.0
 11
-21.384827
 21
47.149491
 31
0.0
  0
LINE
  5
56
100
AcDbEntity
  8
LIVELLO_1
 62
     7
100
AcDbLine
 10
-14.178377
 20
46.134738
 30
0.0
 11
-20.450862
 21
46.134738
 31
0.0
  0
LINE
  5
55
100
AcDbEntity
  8
LIVELLO_1
 62
     7
100
AcDbLine
 10
-14.340124
 20
45.964378
 30
0.0
 11
-20.291354
 21
45.964378
 31
0.0
  0
LINE
  5
54
100
AcDbEntity
  8
LIVELLO_1
 62
     7
100
AcDbLine
 10
-13.283685
 20
51.644651
 30
0.0
 11
-21.343486
 21
51.644651
 31
0.0
  0
LINE
  5
53
100
AcDbEntity
  8
LIVELLO_1
 62
     7
100
AcDbLine
 10
29.439805
 20
108.734707
 30
0.0
 11
29.432398
 21
72.705726
 31
0.0
  0
LINE
  5
52
100
AcDbEntity
  8
LIVELLO_1
 62
     7
100
AcDbLine
 10
22.034572
 20
108.734707
 30
0.0
 11
36.837803
 21
108.734707
 31
0.0
  0
MTEXT
  5
51
100
AcDbEntity
  8
LIVELLO_1
 62
     7
100
AcDbMText
 10
15.495092
 20
69.720689
 30
0.0
 40
14.57496
 41
0.0
 71
     1
 72
     2
  1
\fArial Narrow|b0|i0;\H14.5750;\C7;\U+0035\U+0033\U+0030
  7
STD
210
0.0
220
0.0
230
1.0
 73
     1
 44
1.0
  0
LINE
  5
50
100
AcDbEntity
  8
LIVELLO_1
 62
     7
100
AcDbLine
 10
-41.910706
 20
122.032603
 30
0.0
 11
-33.113999
 21
122.028297
 31
0.0
  0
LINE
  5
4F
100
AcDbEntity
  8
LIVELLO_1
 62
     7
100
AcDbLine
 10
-41.910706
 20
114.627198
 30
0.0
 11
-41.910706
 21
129.431635
 31
0.0
  0
LINE
  5
4E
100
AcDbEntity
  8
LIVELLO_1
 62
     7
100
AcDbLine
 10
21.710044
 20
2.198574
 30
0.0
 11
36.517582
 21
2.198574
 31
0.0
  0
LINE
  5
4D
100
AcDbEntity
  8
LIVELLO_1
 62
     7
100
AcDbLine
 10
22.034572
 20
2.036654
 30
0.0
 11
36.837803
 21
2.036654
 31
0.0
  0
LINE
  5
4C
100
AcDbEntity
  8
LIVELLO_1
 62
     7
100
AcDbLine
 10
29.439805
 20
48.71322
 30
0.0
 11
29.432398
 21
2.011161
 31
0.0
  0
MTEXT
  5
4B
100
AcDbEntity
  8
LIVELLO_1
 62
     7
100
AcDbMText
 10
-31.822605
 20
129.629177
 30
0.0
 40
14.57496
 41
0.0
 71
     1
 72
     2
  1
\fArial Narrow|b0|i0;\H14.5750;\C7;\U+0032\U+0035\U+0034
  7
STD
210
0.0
220
0.0
230
1.0
 73
     1
 44
1.0
  0
LINE
  5
4A
100
AcDbEntity
  8
LIVELLO_1
 62
     7
100
AcDbLine
 10
4.716766
 20
114.305943
 30
0.0
 11
4.716766
 21
129.110207
 31
0.0
  0
LINE
  5
49
100
AcDbEntity
  8
LIVELLO_1
 62
     7
100
AcDbLine
 10
4.882648
 20
114.627198
 30
0.0
 11
4.882648
 21
129.431635
 31
0.0
  0
LINE
  5
48
100
AcDbEntity
  8
LIVELLO_1
 62
     7
100
AcDbLine
 10
-3.670319
 20
122.032603
 30
0.0
 11
4.908141
 21
122.028297
 31
0.0
  0
MTEXT
  5
47
100
AcDbEntity
  8
LIVELLO_1
 62
     7
100
AcDbMText
 10
-19.575635
 20
-39.781112
 30
0.0
 40
8.205364
 41
0.0
 71
     1
 72
     2
  1
\fArial Narrow|b0|i0;\H8.2054;\C7;\U+0031\U+0037\U+0030
  7
STD
210
0.0
220
0.0
230
1.0
 73
     1
 44
1.0
  0
LINE
  5
46
100
AcDbEntity
  8
LIVELLO_1
 62
     7
100
AcDbLine
 10
14.247451
 20
-45.526334
 30
0.0
 11
-0.487739
 21
-45.526334
 31
0.0
  0
LINE
  5
45
100
AcDbEntity
  8
LIVELLO_1
 62
     7
100
AcDbLine
 10
14.247451
 20
-42.352367
 30
0.0
 11
14.247451
 21
-48.700645
 31
0.0
  0
LINE
  5
44
100
AcDbEntity
  8
LIVELLO_1
 62
     7
100
AcDbLine
 10
-36.98043
 20
-45.526334
 30
0.0
 11
-22.245412
 21
-45.526334
 31
0.0
  0
LINE
  5
43
100
AcDbEntity
  8
LIVELLO_1
 62
     7
100
AcDbLine
 10
-36.98043
 20
-48.700645
 30
0.0
 11
-36.98043
 21
-42.352367
 31
0.0
  0
MTEXT
  5
42
100
AcDbEntity
  8
LIVELLO_1
 62
     7
100
AcDbMText
 10
-17.545957
 20
-120.274046
 30
0.0
 40
8.205364
 41
0.0
 71
     1
 72
     2
  1
\fArial Narrow|b0|i0;\H8.2054;\C7;\U+0031\U+0035\U+0036
  7
STD
210
0.0
220
0.0
230
1.0
 73
     1
 44
1.0
  0
SPLINE
  5
41
100
AcDbEntity
  8
LIVELLO_1
 62
     7
100
AcDbSpline
210
0.0
220
0.0
230
1.0
 70
     8
 71
     3
 72
    41
 73
    37
 74
     0
 42
0.00000001
 43
0.00000001
 40
0.0
 40
0.0
 40
0.0
 40
0.0
 40
1.0
 40
1.0
 40
1.0
 40
2.0
 40
2.0
 40
2.0
 40
3.0
 40
3.0
 40
3.0
 40
4.0
 40
4.0
 40
4.0
 40
5.0
 40
5.0
 40
5.0
 40
6.0
 40
6.0
 40
6.0
 40
7.0
 40
7.0
 40
7.0
 40
8.0
 40
8.0
 40
8.0
 40
9.0
 40
9.0
 40
9.0
 40
10.0
 40
10.0
 40
10.0
 40
11.0
 40
11.0
 40
11.0
 40
12.0
 40
12.0
 40
12.0
 40
12.0
 10
-35.660269504123264
 20
-80.400346544053818
 30
0.0
 10
-34.769195556640625
 20
-67.761669243706592
 30
0.0
 10
-24.232371012369789
 20
-57.784672715928814
 30
0.0
 10
-11.365972900390624
 20
-57.784672715928814
 30
0.0
 10
1.4990471733940971
 20
-57.784672715928814
 30
0.0
 10
12.036043972439234
 20
-67.761669243706592
 30
0.0
 10
12.927290174696179
 20
-80.400346544053818
 30
0.0
 10
12.927290174696179
 20
-80.400346544053818
 30
0.0
 10
11.740282524956596
 20
-80.400346544053818
 30
0.0
 10
11.740282524956596
 20
-80.400346544053818
 30
0.0
 10
10.781856960720486
 20
-80.400346544053818
 30
0.0
 10
10.003265380859373
 20
-81.177215576171861
 30
0.0
 10
10.003265380859373
 20
-82.136330159505206
 30
0.0
 10
10.003265380859373
 20
-83.098200819227429
 30
0.0
 10
10.781856960720486
 20
-83.874380832248249
 30
0.0
 10
11.740282524956596
 20
-83.874380832248249
 30
0.0
 10
11.740282524956596
 20
-83.874380832248249
 30
0.0
 10
12.927290174696179
 20
-83.874380832248249
 30
0.0
 10
12.927290174696179
 20
-83.874380832248249
 30
0.0
 10
12.036043972439234
 20
-96.515125189887144
 30
0.0
 10
1.4990471733940971
 20
-106.49039916992187
 30
0.0
 10
-11.365972900390624
 20
-106.49039916992187
 30
0.0
 10
-24.232371012369789
 20
-106.49039916992187
 30
0.0
 10
-34.769195556640625
 20
-96.515125189887144
 30
0.0
 10
-35.660269504123264
 20
-83.874380832248249
 30
0.0
 10
-35.660269504123264
 20
-83.874380832248249
 30
0.0
 10
-34.475673421223952
 20
-83.874380832248249
 30
0.0
 10
-34.475673421223952
 20
-83.874380832248249
 30
0.0
 10
-33.514836290147564
 20
-83.874380832248249
 30
0.0
 10
-32.736416965060762
 20
-83.098200819227429
 30
0.0
 10
-32.736416965060762
 20
-82.136330159505206
 30
0.0
 10
-32.736416965060762
 20
-81.177215576171861
 30
0.0
 10
-33.514836290147564
 20
-80.400346544053818
 30
0.0
 10
-34.475673421223952
 20
-80.400346544053818
 30
0.0
 10
-34.475673421223952
 20
-80.400346544053818
 30
0.0
 10
-35.660269504123264
 20
-80.400346544053818
 30
0.0
 10
-35.660269504123264
 20
-80.400346544053818
 30
0.0
  0
SPLINE
  5
40
100
AcDbEntity
  8
LIVELLO_1
 62
     7
100
AcDbSpline
210
0.0
220
0.0
230
1.0
 70
     8
 71
     3
 72
    17
 73
    13
 74
     0
 42
0.00000001
 43
0.00000001
 40
0.0
 40
0.0
 40
0.0
 40
0.0
 40
1.0
 40
1.0
 40
1.0
 40
2.0
 40
2.0
 40
2.0
 40
3.0
 40
3.0
 40
3.0
 40
4.0
 40
4.0
 40
4.0
 40
4.0
 10
12.89662882486979
 20
-79.758180745442701
 30
0.0
 10
12.89662882486979
 20
-79.758180745442701
 30
0.0
 10
11.740282524956596
 20
-79.758180745442701
 30
0.0
 10
11.740282524956596
 20
-79.758180745442701
 30
0.0
 10
10.42666761610243
 20
-79.758180745442701
 30
0.0
 10
9.3609273274739575
 20
-80.824093288845475
 30
0.0
 10
9.3609273274739575
 20
-82.136330159505206
 30
0.0
 10
9.3609273274739575
 20
-83.453045654296872
 30
0.0
 10
10.42666761610243
 20
-84.516891140407978
 30
0.0
 10
11.740282524956596
 20
-84.516891140407978
 30
0.0
 10
11.740282524956596
 20
-84.516891140407978
 30
0.0
 10
12.89662882486979
 20
-84.516891140407978
 30
0.0
 10
12.89662882486979
 20
-84.516891140407978
 30
0.0
  0
CIRCLE
  5
3F
100
AcDbEntity
  8
LIVELLO_1
 62
     7
100
AcDbCircle
 10
11.740799
 20
-82.13633
 30
0.0
 40
1.026811
  0
LINE
  5
3E
100
AcDbEntity
  8
LIVELLO_1
 62
     7
100
AcDbLine
 10
-6.305989
 20
-82.49152
 30
0.0
 11
-9.048113
 21
-82.49152
 31
0.0
  0
LINE
  5
3D
100
AcDbEntity
  8
LIVELLO_1
 62
     7
100
AcDbLine
 10
-6.305989
 20
-81.783208
 30
0.0
 11
-9.048113
 21
-81.783208
 31
0.0
  0
LINE
  5
3C
100
AcDbEntity
  8
LIVELLO_1
 62
     7
100
AcDbLine
 10
-11.719095
 20
-87.19752
 30
0.0
 11
-11.719095
 21
-84.457291
 31
0.0
  0
LINE
  5
3B
100
AcDbEntity
  8
LIVELLO_1
 62
     7
100
AcDbLine
 10
-11.013884
 20
-87.19752
 30
0.0
 11
-11.013884
 21
-84.457291
 31
0.0
  0
LINE
  5
3A
100
AcDbEntity
  8
LIVELLO_1
 62
     7
100
AcDbLine
 10
-16.427163
 20
-81.783208
 30
0.0
 11
-13.686934
 21
-81.783208
 31
0.0
  0
LINE
  5
39
100
AcDbEntity
  8
LIVELLO_1
 62
     7
100
AcDbLine
 10
-16.427163
 20
-82.49152
 30
0.0
 11
-13.686934
 21
-82.49152
 31
0.0
  0
LINE
  5
38
100
AcDbEntity
  8
LIVELLO_1
 62
     7
100
AcDbLine
 10
-11.013884
 20
-77.077552
 30
0.0
 11
-11.013884
 21
-79.819503
 31
0.0
  0
LINE
  5
37
100
AcDbEntity
  8
LIVELLO_1
 62
     7
100
AcDbLine
 10
-11.719095
 20
-77.077552
 30
0.0
 11
-11.719095
 21
-79.819503
 31
0.0
  0
CIRCLE
  5
36
100
AcDbEntity
  8
LIVELLO_1
 62
     7
100
AcDbCircle
 10
-11.36649
 20
-82.13633
 30
0.0
 40
1.308792
  0
CIRCLE
  5
35
100
AcDbEntity
  8
LIVELLO_1
 62
     7
100
AcDbCircle
 10
-11.367695
 20
-82.13633
 30
0.0
 40
2.301324
  0
SPLINE
  5
34
100
AcDbEntity
  8
LIVELLO_1
 62
     7
100
AcDbSpline
210
0.0
220
0.0
230
1.0
 70
     8
 71
     3
 72
    17
 73
    13
 74
     0
 42
0.00000001
 43
0.00000001
 40
0.0
 40
0.0
 40
0.0
 40
0.0
 40
1.0
 40
1.0
 40
1.0
 40
2.0
 40
2.0
 40
2.0
 40
3.0
 40
3.0
 40
3.0
 40
4.0
 40
4.0
 40
4.0
 40
4.0
 10
-35.631675211588536
 20
-79.758180745442701
 30
0.0
 10
-35.631675211588536
 20
-79.758180745442701
 30
0.0
 10
-34.475673421223952
 20
-79.758180745442701
 30
0.0
 10
-34.475673421223952
 20
-79.758180745442701
 30
0.0
 10
-33.159646945529509
 20
-79.758180745442701
 30
0.0
 10
-32.093906656901041
 20
-80.824093288845475
 30
0.0
 10
-32.093906656901041
 20
-82.136330159505206
 30
0.0
 10
-32.093906656901041
 20
-83.453045654296872
 30
0.0
 10
-33.159646945529509
 20
-84.516891140407978
 30
0.0
 10
-34.475673421223952
 20
-84.516891140407978
 30
0.0
 10
-34.475673421223952
 20
-84.516891140407978
 30
0.0
 10
-35.631675211588536
 20
-84.516891140407978
 30
0.0
 10
-35.631675211588536
 20
-84.516891140407978
 30
0.0
  0
CIRCLE
  5
33
100
AcDbEntity
  8
LIVELLO_1
 62
     7
100
AcDbCircle
 10
-34.473865
 20
-82.13633
 30
0.0
 40
1.026897
  0
CIRCLE
  5
32
100
AcDbEntity
  8
LIVELLO_1
 62
     7
100
AcDbCircle
 10
-11.367695
 20
-82.13633
 30
0.0
 40
5.092368
  0
CIRCLE
  5
31
100
AcDbEntity
  8
LIVELLO_1
 62
     7
100
AcDbCircle
 10
-11.366576
 20
-82.13633
 30
0.0
 40
11.39784
  0
CIRCLE
  5
30
100
AcDbEntity
  8
LIVELLO_1
 62
     7
100
AcDbCircle
 10
-11.36649
 20
-82.13633
 30
0.0
 40
25.61394
  0
LINE
  5
2F
100
AcDbEntity
  8
LIVELLO_1
 62
     7
100
AcDbLine
 10
11.944404
 20
-125.885598
 30
0.0
 11
0.555608
 21
-125.885598
 31
0.0
  0
LINE
  5
2E
100
AcDbEntity
  8
LIVELLO_1
 62
     7
100
AcDbLine
 10
11.944404
 20
-129.059564
 30
0.0
 11
11.944404
 21
-85.629312
 31
0.0
  0
LINE
  5
2D
100
AcDbEntity
  8
LIVELLO_1
 62
     7
100
AcDbLine
 10
-34.756449
 20
-125.885598
 30
0.0
 11
-23.288759
 21
-125.885598
 31
0.0
  0
LINE
  5
2C
100
AcDbEntity
  8
LIVELLO_1
 62
     7
100
AcDbLine
 10
-34.756449
 20
-129.059564
 30
0.0
 11
-34.756449
 21
-85.629312
 31
0.0
  0
ENDBLK
  5
BF
100
AcDbEntity
  8
LIVELLO_1
100
AcDbBlockEnd
  0
ENDSEC
  0
SECTION
  2
ENTITIES
  0
INSERT
  5
2A
100
AcDbEntity
  8
LIVELLO_1
 62
     7
100
AcDbBlockReference
  2
AI9-BLK1
 10
42.295696
 20
133.395561
 30
0.0
  0
ENDSEC
  0
SECTION
  2
OBJECTS
  0
DICTIONARY
  5
19
100
AcDbDictionary
280
     0
281
     1
  3
ACAD_GROUP
350
1A
  3
ACAD_MLINESTYLE
350
1B
  3
ACAD_LAYOUT
350
1E
  3
ACAD_PLOTSETTINGS
350
22
  3
ACAD_PLOTSTYLENAME
350
1F
  3
ACAD_WIPEOUT_VARS
350
23
  0
DICTIONARY
  5
1A
102
{ACAD_REACTORS
330
19
102
}
100
AcDbDictionary
280
     0
281
     1
  0
DICTIONARY
  5
1B
102
{ACAD_REACTORS
330
19
102
}
100
AcDbDictionary
280
     0
281
     1
  3
Standard
350
1C
  0
MLINESTYLE
  5
1C
102
{ACAD_REACTORS
330
1B
102
}
100
AcDbMlineStyle
  2
Standard
 70
     0
  3

 62
     0
 51
90.0
 52
90.0
 71
     2
 49
0.5
 62
   256
  6
ByLayer
 49
-0.5
 62
   256
  6
ByLayer
  0
ACDBDICTIONARYWDFLT
  5
1F
102
{ACAD_REACTORS
330
19
102
}
100
AcDbDictionary
281
     1
  3
Normal
350
1D
100
AcDbDictionaryWithDefault
340
1D
  0
ACDBPLACEHOLDER
  5
1D
102
{ACAD_REACTORS
330
1F
102
}
  0
LAYOUT
  5
20
102
{ACAD_REACTORS
330
1E
102
}
100
AcDbPlotSettings
  1

  2

  4

  6

 40
0.0
 41
0.0
 42
0.0
 43
0.0
 44
0.0
 45
0.0
 46
0.0
 47
0.0
 48
0.0
 49
0.0
140
0.0
141
0.0
142
1.0
143
1.0
 70
  1024
 72
     0
 73
     0
 74
     0
  7

 75
     0
147
1.0
148
0.0
149
0.0
100
AcDbLayout
  1
Model
 70
     0
 71
     0
 10
0.0
 20
0.0
 11
0.0
 21
0.0
 12
0.0
 22
0.0
 32
0.0
 14
0.0
 24
0.0
 34
0.0
 15
0.0
 25
0.0
 35
0.0
146
0.0
 13
0.0
 23
0.0
 33
0.0
 16
0.0
 26
0.0
 36
0.0
 17
0.0
 27
0.0
 37
0.0
 76
     0
330
A
331
0
345
0
346
0
  0
LAYOUT
  5
21
102
{ACAD_REACTORS
330
1E
102
}
100
AcDbPlotSettings
  1

  2

  4

  6

 40
0.0
 41
0.0
 42
0.0
 43
0.0
 44
0.0
 45
0.0
 46
0.0
 47
0.0
 48
0.0
 49
0.0
140
0.0
141
0.0
142
1.0
143
1.0
 70
     0
 72
     0
 73
     0
 74
     0
  7

 75
     0
147
1.0
148
0.0
149
0.0
100
AcDbLayout
  1
Layout1
 70
     0
 71
     0
 10
0.0
 20
0.0
 11
0.0
 21
0.0
 12
0.0
 22
0.0
 32
0.0
 14
0.0
 24
0.0
 34
0.0
 15
0.0
 25
0.0
 35
0.0
146
0.0
 13
0.0
 23
0.0
 33
0.0
 16
0.0
 26
0.0
 36
0.0
 17
0.0
 27
0.0
 37
0.0
 76
     0
330
B
331
0
345
0
346
0
  0
DICTIONARY
  5
1E
102
{ACAD_REACTORS
330
19
102
}
100
AcDbDictionary
280
     0
281
     1
  3
Layout1
350
21
  3
Model
350
20
  0
DICTIONARY
  5
22
102
{ACAD_REACTORS
330
19
102
}
100
AcDbDictionary
280
     0
281
     1
  0
WIPEOUTVARIABLES
  5
23
100
AcDbWipeoutVariables
 70
     1
  0
ENDSEC
  0
EOF
