  0
SECTION
  2
HEADER
  9
$ACADVER
  1
AC1015
  9
$ACADMAINTVER
 70
     6
  9
$DWGCODEPAGE
  3
ANSI_932
  9
$INSBASE
 10
0.0
 20
0.0
 30
0.0
  9
$EXTMIN
 10
39.863372
 20
71.250776
 30
1.000000E+20
  9
$EXTMAX
 10
298.933347
 20
257.18344
 30
-1.000000E+20
  9
$LIMMIN
 10
39.863372
 20
71.250776
  9
$LIMMAX
 10
298.933347
 20
257.18344
  9
$ORTHOMODE
 70
     0
  9
$REGENMODE
 70
     1
  9
$FILLMODE
 70
     1
  9
$QTEXTMODE
 70
     0
  9
$MIRRTEXT
 70
     1
  9
$LTSCALE
 40
1.0
  9
$ATTMODE
 70
     1
  9
$TEXTSIZE
 40
0.2
  9
$TRACEWID
 40
0.05
  9
$TEXTSTYLE
  7
Standard
  9
$CLAYER
  8
0
  9
$CELTYPE
  6
Continuous
  9
$CECOLOR
 62
   256
  9
$CELTSCALE
 40
1.0
  9
$DISPSILH
 70
     0
  9
$DIMSCALE
 40
1.0
  9
$DIMASZ
 40
0.18
  9
$DIMEXO
 40
0.0625
  9
$DIMDLI
 40
0.38
  9
$DIMRND
 40
0.0
  9
$DIMDLE
 40
0.0
  9
$DIMEXE
 40
0.18
  9
$DIMTP
 40
0.0
  9
$DIMTM
 40
0.0
  9
$DIMTXT
 40
0.18
  9
$DIMCEN
 40
0.09
  9
$DIMTSZ
 40
0.0
  9
$DIMTOL
 70
     0
  9
$DIMLIM
 70
     0
  9
$DIMTIH
 70
     1
  9
$DIMTOH
 70
     1
  9
$DIMSE1
 70
     0
  9
$DIMSE2
 70
     0
  9
$DIMTAD
 70
     0
  9
$DIMZIN
 70
     0
  9
$DIMBLK
  1

  9
$DIMASO
 70
     1
  9
$DIMSHO
 70
     1
  9
$DIMPOST
  1

  9
$DIMAPOST
  1

  9
$DIMALT
 70
     0
  9
$DIMALTD
 70
     2
  9
$DIMALTF
 40
25.4
  9
$DIMLFAC
 40
1.0
  9
$DIMTOFL
 70
     0
  9
$DIMTVP
 40
0.0
  9
$DIMTIX
 70
     0
  9
$DIMSOXD
 70
     0
  9
$DIMSAH
 70
     0
  9
$DIMBLK1
  1

  9
$DIMBLK2
  1

  9
$DIMSTYLE
  2
Standard
  9
$DIMCLRD
 70
     0
  9
$DIMCLRE
 70
     0
  9
$DIMCLRT
 70
     0
  9
$DIMTFAC
 40
1.0
  9
$DIMGAP
 40
0.09
  9
$DIMJUST
 70
     0
  9
$DIMSD1
 70
     0
  9
$DIMSD2
 70
     0
  9
$DIMTOLJ
 70
     1
  9
$DIMTZIN
 70
     0
  9
$DIMALTZ
 70
     0
  9
$DIMALTTZ
 70
     0
  9
$DIMUPT
 70
     0
  9
$DIMDEC
 70
     4
  9
$DIMTDEC
 70
     4
  9
$DIMALTU
 70
     2
  9
$DIMALTTD
 70
     2
  9
$DIMTXSTY
  7
Standard
  9
$DIMAUNIT
 70
     0
  9
$DIMADEC
 70
     0
  9
$DIMALTRND
 40
0.0
  9
$DIMAZIN
 70
     0
  9
$DIMDSEP
 70
     0
  9
$DIMATFIT
 70
     3
  9
$DIMFRAC
 70
     0
  9
$DIMLDRBLK
  1

  9
$DIMLUNIT
 70
     2
  9
$DIMLWD
 70
     0
  9
$DIMLWE
 70
     0
  9
$DIMTMOVE
 70
     0
  9
$LUNITS
 70
     2
  9
$LUPREC
 70
     4
  9
$SKETCHINC
 40
0.1
  9
$FILLETRAD
 40
0.0
  9
$AUNITS
 70
     0
  9
$AUPREC
 70
     0
  9
$MENU
  1
acad
  9
$ELEVATION
 40
0.0
  9
$PELEVATION
 40
0.0
  9
$THICKNESS
 40
0.0
  9
$LIMCHECK
 70
     0
  9
$CHAMFERA
 40
0.0
  9
$CHAMFERB
 40
0.0
  9
$CHAMFERC
 40
0.0
  9
$CHAMFERD
 40
0.0
  9
$SKPOLY
 70
     0
  9
$TDCREATE
 40
0.000000000
  9
$TDUCREATE
 40
0.000000000
  9
$TDUPDATE
 40
0.000000000
  9
$TDUUPDATE
 40
0.000000000
  9
$TDINDWG
 40
0.0000000000
  9
$TDUSRTIMER
 40
0.0000000000
  9
$USRTIMER
 70
     1
  9
$ANGBASE
 50
0.0
  9
$ANGDIR
 70
     0
  9
$PDMODE
 70
     0
  9
$PDSIZE
 40
0.0
  9
$PLINEWID
 40
0.0
  9
$SPLFRAME
 70
     0
  9
$SPLINETYPE
 70
     6
  9
$SPLINESEGS
 70
     8
  9
$HANDSEED
  5
77
  9
$SURFTAB1
 70
     6
  9
$SURFTAB2
 70
     6
  9
$SURFTYPE
 70
     6
  9
$SURFU
 70
     6
  9
$SURFV
 70
     6
  9
$UCSBASE
  2

  9
$UCSNAME
  2

  9
$UCSORG
 10
0.0
 20
0.0
 30
0.0
  9
$UCSXDIR
 10
1.0
 20
0.0
 30
0.0
  9
$UCSYDIR
 10
0.0
 20
1.0
 30
0.0
  9
$UCSORTHOREF
  2

  9
$UCSORTHOVIEW
 70
     0
  9
$UCSORGTOP
 10
0.0
 20
0.0
 30
0.0
  9
$UCSORGBOTTOM
 10
0.0
 20
0.0
 30
0.0
  9
$UCSORGLEFT
 10
0.0
 20
0.0
 30
0.0
  9
$UCSORGRIGHT
 10
0.0
 20
0.0
 30
0.0
  9
$UCSORGFRONT
 10
0.0
 20
0.0
 30
0.0
  9
$UCSORGBACK
 10
0.0
 20
0.0
 30
0.0
  9
$PUCSBASE
  2

  9
$PUCSNAME
  2

  9
$PUCSORG
 10
0.0
 20
0.0
 30
0.0
  9
$PUCSXDIR
 10
1.0
 20
0.0
 30
0.0
  9
$PUCSYDIR
 10
0.0
 20
1.0
 30
0.0
  9
$PUCSORTHOREF
  2

  9
$PUCSORTHOVIEW
 70
     0
  9
$PUCSORGTOP
 10
0.0
 20
0.0
 30
0.0
  9
$PUCSORGBOTTOM
 10
0.0
 20
0.0
 30
0.0
  9
$PUCSORGLEFT
 10
0.0
 20
0.0
 30
0.0
  9
$PUCSORGRIGHT
 10
0.0
 20
0.0
 30
0.0
  9
$PUCSORGFRONT
 10
0.0
 20
0.0
 30
0.0
  9
$PUCSORGBACK
 10
0.0
 20
0.0
 30
0.0
  9
$USERI1
 70
     0
  9
$USERI2
 70
     0
  9
$USERI3
 70
     0
  9
$USERI4
 70
     0
  9
$USERI5
 70
     0
  9
$USERR1
 40
0.0
  9
$USERR2
 40
0.0
  9
$USERR3
 40
0.0
  9
$USERR4
 40
0.0
  9
$USERR5
 40
0.0
  9
$WORLDVIEW
 70
     1
  9
$SHADEDGE
 70
     3
  9
$SHADEDIF
 70
    70
  9
$TILEMODE
 70
     1
  9
$MAXACTVP
 70
    16
  9
$PINSBASE
 10
0.0
 20
0.0
 30
0.0
  9
$PLIMCHECK
 70
     0
  9
$PEXTMIN
 10
1.000000E+20
 20
1.000000E+20
 30
1.000000E+20
  9
$PEXTMAX
 10
-1.000000E+20
 20
-1.000000E+20
 30
-1.000000E+20
  9
$PLIMMIN
 10
0.0
 20
0.0
  9
$PLIMMAX
 10
12.0
 20
9.0
  9
$UNITMODE
 70
     0
  9
$VISRETAIN
 70
     0
  9
$PLINEGEN
 70
     1
  9
$PSLTSCALE
 70
     0
  9
$TREEDEPTH
 70
  3020
  9
$CMLSTYLE
  2
Standard
  9
$CMLJUST
 70
     0
  9
$CMLSCALE
 40
1.0
  9
$PROXYGRAPHICS
 70
     0
  9
$MEASUREMENT
 70
     1
  9
$CELWEIGHT
370
     0
  9
$ENDCAPS
280
     0
  9
$JOINSTYLE
280
     0
  9
$LWDISPLAY
290
     0
  9
$INSUNITS
 70
     0
  9
$HYPERLINKBASE
  1

  9
$STYLESHEET
  1

  9
$XEDIT
290
     1
  9
$CEPSNTYPE
380
     0
  9
$PSTYLEMODE
290
     1
  9
$FINGERPRINTGUID
  2

  9
$VERSIONGUID
  2

  9
$EXTNAMES
290
     1
  9
$PSVPSCALE
 40
0.0
  0
ENDSEC
  0
SECTION
  2
CLASSES
  0
CLASS
  1
LWPOLYLINE
  2
AcDbPolyline
  3
AutoCAD 2000
 90
    32768
280
     0
281
     1
  0
CLASS
  1
IMAGE
  2
AcDbRasterImage
  3
ISM
 90
    32895
280
     0
281
     1
  0
CLASS
  1
OLE2FRAME
  2
AcDbOle2Frame
  3
AutoCAD 2000
 90
    32768
280
     0
281
     1
  0
CLASS
  1
HATCH
  2
AcDbHatch
  3
AutoCAD 2000
 90
    32768
280
     0
281
     1
  0
CLASS
  1
DICTIONARYVAR
  2
AcDbDictionaryVar
  3
AutoCAD 2000
 90
    32768
280
     0
281
     0
  0
CLASS
  1
RASTERVARIABLES
  2
AcDbRasterVariables
  3
ISM
 90
    32768
280
     0
281
     0
  0
CLASS
  1
IMAGEDEF
  2
AcDbRasterImageDef
  3
ISM
 90
    32768
280
     0
281
     0
  0
CLASS
  1
IMAGEDEF_REACTOR
  2
AcDbRasterImageDefReactor
  3
ISM
 90
    32769
280
     0
281
     0
  0
CLASS
  1
IDBUFFER
  2
AcDbIdBuffer
  3
AutoCAD 2000
 90
    32768
280
     0
281
     0
  0
CLASS
  1
SPATIAL_FILTER
  2
AcDbSpatialFilter
  3
AutoCAD 2000
 90
    32768
280
     0
281
     0
  0
CLASS
  1
XRECORD
  2
AcDbXrecord
  3
AutoCAD 2000
 90
    32768
280
     0
281
     0
  0
CLASS
  1
SORTENTSTABLE
  2
AcDbSortentsTable
  3
AutoCAD 2000
 90
    32768
280
     0
281
     0
  0
CLASS
  1
LAYER_INDEX
  2
AcDbLayerIndex
  3
AutoCAD 2000
 90
    32768
280
     0
281
     0
  0
CLASS
  1
SPATIAL_INDEX
  2
AcDbSpatialIndex
  3
AutoCAD 2000
 90
    32768
280
     0
281
     0
  0
CLASS
  1
OBJECT_PTR
  2
CAseDLPNTableRecord
  3
"ASE-LPNTableRecord"
 90
    32769
280
     0
281
     0
  0
CLASS
  1
LAYOUT
  2
AcDbLayout
  3
AutoCAD 2000
 90
        0
280
     0
281
     0
  0
CLASS
  1
PLOTSETTINGS
  2
AcDbPlotSettings
  3
AutoCAD 2000
 90
    32768
280
     0
281
     0
  0
CLASS
  1
ACDBDICTIONARYWDFLT
  2
AcDbDictionaryWithDefault
  3
AutoCAD 2000
 90
        0
280
     0
281
     0
  0
CLASS
  1
ACDBPLACEHOLDER
  2
AcDbPlaceHolder
  3
AutoCAD 2000
 90
        0
280
     0
281
     0
  0
CLASS
  1
VBA_PROJECT
  2
AcDbVbaProject
  3
acadvba
 90
    32768
280
     0
281
     0
  0
CLASS
  1
WIPEOUT
  2
AcDbWipeout
  3
WipeOut|AutoCAD Express Tool|expresstools@autodesk.com
 90
    32895
280
     0
281
     1
  0
CLASS
  1
WIPEOUTVARIABLES
  2
AcDbWipeoutVariables
  3
WipeOut|AutoCAD Express Tool|expresstools@autodesk.com
 90
        0
280
     0
281
     0
  0
CLASS
  1
RTEXT
  2
RText
  3
RText|AutoCAD Express Tool|expresstools@autodesk.com
 90
    32768
280
     0
281
     1
  0
CLASS
  1
ARCALIGNEDTEXT
  2
AcDbArcAlignedText
  3
ATEXT|AutoCAD Express Tool|expresstools@autodesk.com
 90
    32768
280
     0
281
     1
  0
ENDSEC
  0
SECTION
  2
TABLES
  0
TABLE
  2
VPORT
  5
7
100
AcDbSymbolTable
 70
     1
  0
VPORT
  5
15
100
AcDbSymbolTableRecord
100
AcDbViewportTableRecord
  2
*ACTIVE
 70
     0
 10
0.0
 20
0.0
 11
1.0
 21
1.0
 12
6.591288
 22
4.579184
 13
0.0
 23
0.0
 14
1.0
 24
1.0
 15
0.0
 25
0.0
 16
0.0
 26
0.0
 36
1.0
 17
0.0
 27
0.0
 37
0.0
 40
9.158369
 41
0.688564
 42
50.0
 43
0.0
 44
0.0
 50
0.0
 51
0.0
 71
     0
 72
   100
 73
     1
 74
     1
 75
     0
 76
     0
 77
     0
 78
     0
281
     0
 65
     0
110
0.0
120
0.0
130
0.0
111
1.0
121
0.0
131
0.0
112
0.0
122
1.0
132
0.0
345
0
346
0
 79
     0
146
0.0
  0
ENDTAB
  0
TABLE
  2
LTYPE
  5
4
100
AcDbSymbolTable
 70
     3
  0
LTYPE
  5
11
100
AcDbSymbolTableRecord
100
AcDbLinetypeTableRecord
  2
ByBlock
 70
    64
  3

 72
    65
 73
     0
 40
0.0
  0
LTYPE
  5
12
100
AcDbSymbolTableRecord
100
AcDbLinetypeTableRecord
  2
ByLayer
 70
    64
  3

 72
    65
 73
     0
 40
0.0
  0
LTYPE
  5
13
100
AcDbSymbolTableRecord
100
AcDbLinetypeTableRecord
  2
Continuous
 70
    64
  3
Solid line
 72
    65
 73
     0
 40
0.0
  0
ENDTAB
  0
TABLE
  2
LAYER
  5
2
100
AcDbSymbolTable
 70
     2
  0
LAYER
  5
14
100
AcDbSymbolTableRecord
100
AcDbLayerTableRecord
  2
0
 70
     0
 62
     7
  6
Continuous
290
     1
370
    -3
390
1D
  0
LAYER
  5
28
100
AcDbSymbolTableRecord
100
AcDbLayerTableRecord
  2
LIVELLO_1
 70
     0
 62
   160
  6
Continuous
290
     1
370
    -3
390
1D
  0
ENDTAB
  0
TABLE
  2
STYLE
  5
3
100
AcDbSymbolTable
 70
     5
  0
STYLE
  5
17
100
AcDbSymbolTableRecord
100
AcDbTextStyleTableRecord
  2
Standard
 70
     0
 40
0.0
 41
1.0
 50
0.0
 71
     0
 42
0.0
  3
txt
  4

  0
STYLE
  5
24
100
AcDbSymbolTableRecord
100
AcDbTextStyleTableRecord
  2
STD
 70
     0
 40
0.0
 41
1.0
 50
0.0
 71
     0
 42
0.0
  3
txt
  4

  0
STYLE
  5
25
100
AcDbSymbolTableRecord
100
AcDbTextStyleTableRecord
  2
TATESTD
 70
     4
 40
0.0
 41
1.0
 50
0.0
 71
     0
 42
0.0
  3
txt
  4

  0
STYLE
  5
26
100
AcDbSymbolTableRecord
100
AcDbTextStyleTableRecord
  2
KANJISTD
 70
     0
 40
0.0
 41
1.0
 50
0.0
 71
     0
 42
0.0
  3
txt
  4
extfont
  0
STYLE
  5
27
100
AcDbSymbolTableRecord
100
AcDbTextStyleTableRecord
  2
KANJITATE
 70
     4
 40
0.0
 41
1.0
 50
0.0
 71
     0
 42
0.0
  3
txt
  4
extfont
  0
ENDTAB
  0
TABLE
  2
VIEW
  5
5
100
AcDbSymbolTable
 70
     0
  0
ENDTAB
  0
TABLE
  2
UCS
  5
6
100
AcDbSymbolTable
 70
     0
  0
ENDTAB
  0
TABLE
  2
APPID
  5
8
100
AcDbSymbolTable
 70
     1
  0
APPID
  5
16
100
AcDbSymbolTableRecord
100
AcDbRegAppTableRecord
  2
ACAD
 70
     0
  0
ENDTAB
  0
TABLE
  2
DIMSTYLE
  5
9
100
AcDbSymbolTable
 70
     1
100
AcDbDimStyleTable
 71
     0
  0
DIMSTYLE
105
18
100
AcDbSymbolTableRecord
100
AcDbDimStyleTableRecord
  2
Standard
 70
     0
  3

  4

 40
1.0
 41
0.18
 42
0.0625
 43
0.38
 44
0.18
 45
0.0
 46
0.0
 47
0.0
 48
0.0
 71
     0
 72
     0
 73
     1
 74
     1
 75
     0
 76
     0
 77
     0
 78
     0
 79
     0
140
0.18
141
0.09
142
0.0
143
25.4
144
1.0
145
0.0
146
1.0
147
0.09
148
0.0
170
     0
171
     2
172
     0
173
     0
174
     0
175
     0
176
     0
177
     0
178
     0
179
     0
271
     4
272
     4
273
     2
274
     2
275
     0
276
     0
277
     2
278
    46
279
     0
280
     0
281
     0
282
     0
283
     1
284
     0
285
     0
286
     0
288
     0
340
17
341
0
342
0
343
0
344
0
371
    -2
372
    -2
  0
ENDTAB
  0
TABLE
  2
BLOCK_RECORD
  5
1
100
AcDbSymbolTable
 70
     4
  0
BLOCK_RECORD
  5
A
100
AcDbSymbolTableRecord
100
AcDbBlockTableRecord
  2
*MODEL_SPACE
340
20
  0
BLOCK_RECORD
  5
B
100
AcDbSymbolTableRecord
100
AcDbBlockTableRecord
  2
*PAPER_SPACE
340
21
  0
BLOCK_RECORD
  5
29
100
AcDbSymbolTableRecord
100
AcDbBlockTableRecord
  2
AI9-BLK1
340
0
102
{BLKREFS
331
2A
102
}
  0
BLOCK_RECORD
  5
4F
100
AcDbSymbolTableRecord
100
AcDbBlockTableRecord
  2
AI9-BLK2
340
0
102
{BLKREFS
331
50
102
}
  0
BLOCK_RECORD
  5
52
100
AcDbSymbolTableRecord
100
AcDbBlockTableRecord
  2
AI9-BLK3
340
0
102
{BLKREFS
331
53
102
}
  0
BLOCK_RECORD
  5
55
100
AcDbSymbolTableRecord
100
AcDbBlockTableRecord
  2
AI9-BLK4
340
0
102
{BLKREFS
331
56
102
}
  0
ENDTAB
  0
ENDSEC
  0
SECTION
  2
BLOCKS
  0
BLOCK
  5
D
100
AcDbEntity
  8
0
100
AcDbBlockBegin
  2
*MODEL_SPACE
 70
     0
 10
0.0
 20
0.0
 30
0.0
  3
*MODEL_SPACE
  1

  0
ENDBLK
  5
E
100
AcDbEntity
  8
0
100
AcDbBlockEnd
  0
BLOCK
  5
F
100
AcDbEntity
 67
     1
  8
0
100
AcDbBlockBegin
  2
*PAPER_SPACE
 70
     0
 10
0.0
 20
0.0
 30
0.0
  3
*PAPER_SPACE
  1

  0
ENDBLK
  5
10
100
AcDbEntity
 67
     1
  8
0
100
AcDbBlockEnd
  0
BLOCK
  5
2B
100
AcDbEntity
  8
LIVELLO_1
 62
     7
100
AcDbBlockBegin
  2
AI9-BLK1
 70
     0
 10
0.0
 20
0.0
 30
0.0
  3
AI9-BLK1
  1

  0
LINE
  5
75
100
AcDbEntity
  8
LIVELLO_1
 62
     7
100
AcDbLine
 10
-7.614264
 20
-74.150599
 30
0.0
 11
7.387749
 21
-74.150599
 31
0.0
  0
LINE
  5
74
100
AcDbEntity
  8
LIVELLO_1
 62
     7
100
AcDbLine
 10
-0.113947
 20
-15.42998
 30
0.0
 11
-0.110846
 21
-74.150599
 31
0.0
  0
LINE
  5
73
100
AcDbEntity
  8
LIVELLO_1
 62
     7
100
AcDbLine
 10
-0.110846
 20
60.557113
 30
0.0
 11
-0.110846
 21
10.401691
 31
0.0
  0
LINE
  5
72
100
AcDbEntity
  8
LIVELLO_1
 62
     7
100
AcDbLine
 10
-7.614264
 20
60.557113
 30
0.0
 11
7.387749
 21
60.557113
 31
0.0
  0
MTEXT
  5
71
100
AcDbEntity
  8
LIVELLO_1
 62
     7
100
AcDbMText
 10
-20.892006
 20
8.776095
 30
0.0
 40
18.214365
 41
0.0
 71
     1
 72
     2
  1
\fCourier|b0|i0;\H18.2144;\C7;\U+0032\U+0039\U+0030
  7
STD
210
0.0
220
0.0
230
1.0
 73
     1
 44
1.0
  0
LINE
  5
70
100
AcDbEntity
  8
LIVELLO_1
 62
     7
100
AcDbLine
 10
-29.110626
 20
71.397795
 30
0.0
 11
-29.110626
 21
86.162441
 31
0.0
  0
LINE
  5
6F
100
AcDbEntity
  8
LIVELLO_1
 62
     7
100
AcDbLine
 10
-90.997977
 20
71.394695
 30
0.0
 11
-90.997977
 21
86.156068
 31
0.0
  0
MTEXT
  5
6E
100
AcDbEntity
  8
LIVELLO_1
 62
     7
100
AcDbMText
 10
-84.160668
 20
90.895803
 30
0.0
 40
18.214365
 41
0.0
 71
     1
 72
     2
  1
\fCourier|b0|i0;\H18.2144;\C7;\U+0031\U+0033\U+0030
  7
STD
210
0.0
220
0.0
230
1.0
 73
     1
 44
1.0
  0
LINE
  5
6D
100
AcDbEntity
  8
LIVELLO_1
 62
     7
100
AcDbLine
 10
-29.641515
 20
78.977694
 30
0.0
 11
-40.920414
 21
78.977694
 31
0.0
  0
LINE
  5
6C
100
AcDbEntity
  8
LIVELLO_1
 62
     7
100
AcDbLine
 10
-79.970743
 20
78.977694
 30
0.0
 11
-90.714273
 21
78.977694
 31
0.0
  0
LINE
  5
6B
100
AcDbEntity
  8
LIVELLO_1
 62
     7
100
AcDbLine
 10
-90.994704
 20
-68.22469
 30
0.0
 11
-71.305467
 21
-68.22469
 31
0.0
  0
LINE
  5
6A
100
AcDbEntity
  8
LIVELLO_1
 62
     7
100
AcDbLine
 10
-36.6764
 20
35.01552
 30
0.0
 11
-30.949963
 21
34.878405
 31
0.0
  0
LINE
  5
69
100
AcDbEntity
  8
LIVELLO_1
 62
     7
100
AcDbLine
 10
-37.43501
 20
40.11874
 30
0.0
 11
-33.436288
 21
40.11874
 31
0.0
  0
LINE
  5
68
100
AcDbEntity
  8
LIVELLO_1
 62
     7
100
AcDbLine
 10
-38.95223
 20
42.697394
 30
0.0
 11
-36.263333
 21
43.175573
 31
0.0
  0
SPLINE
  5
67
100
AcDbEntity
  8
LIVELLO_1
 62
     7
100
AcDbSpline
210
0.0
220
0.0
230
1.0
 70
     8
 71
     3
 72
    11
 73
     7
 74
     0
 42
0.00000001
 43
0.00000001
 40
0.0
 40
0.0
 40
0.0
 40
0.0
 40
1.0
 40
1.0
 40
1.0
 40
2.0
 40
2.0
 40
2.0
 40
2.0
 10
-59.006475830078116
 20
19.103312852647569
 30
0.0
 10
-59.006475830078116
 20
19.103312852647569
 30
0.0
 10
-56.018200005425342
 20
33.316743299696178
 30
0.0
 10
-38.952230495876734
 20
42.789722357855901
 30
0.0
 10
-38.952230495876734
 20
42.789722357855901
 30
0.0
 10
-37.503567843967012
 20
44.326234944661451
 30
0.0
 10
-37.503567843967012
 20
44.326234944661451
 30
0.0
  0
SPLINE
  5
66
100
AcDbEntity
  8
LIVELLO_1
 62
     7
100
AcDbSpline
210
0.0
220
0.0
230
1.0
 70
     8
 71
     3
 72
    11
 73
     7
 74
     0
 42
0.00000001
 43
0.00000001
 40
0.0
 40
0.0
 40
0.0
 40
0.0
 40
1.0
 40
1.0
 40
1.0
 40
2.0
 40
2.0
 40
2.0
 40
2.0
 10
-56.251088460286454
 20
15.590693495008679
 30
0.0
 10
-56.251088460286454
 20
15.590693495008679
 30
0.0
 10
-55.536920166015619
 20
29.858211941189232
 30
0.0
 10
-37.498744710286452
 20
40.035713026258676
 30
0.0
 10
-37.498744710286452
 20
40.035713026258676
 30
0.0
 10
-34.950063069661454
 20
41.884695773654514
 30
0.0
 10
-34.950063069661454
 20
41.884695773654514
 30
0.0
  0
SPLINE
  5
65
100
AcDbEntity
  8
LIVELLO_1
 62
     7
100
AcDbSpline
210
0.0
220
0.0
230
1.0
 70
     8
 71
     3
 72
    11
 73
     7
 74
     0
 42
0.00000001
 43
0.00000001
 40
0.0
 40
0.0
 40
0.0
 40
0.0
 40
1.0
 40
1.0
 40
1.0
 40
2.0
 40
2.0
 40
2.0
 40
2.0
 10
-53.497079128689229
 20
12.07497355143229
 30
0.0
 10
-53.497079128689229
 20
12.07497355143229
 30
0.0
 10
-52.276137288411455
 20
25.309652370876734
 30
0.0
 10
-36.676400417751729
 20
35.015519883897568
 30
0.0
 10
-36.676400417751729
 20
35.015519883897568
 30
0.0
 10
-32.121295166015621
 20
37.932137722439229
 30
0.0
 10
-32.121295166015621
 20
37.932137722439229
 30
0.0
  0
SPLINE
  5
64
100
AcDbEntity
  8
LIVELLO_1
 62
     7
100
AcDbSpline
210
0.0
220
0.0
230
1.0
 70
     8
 71
     3
 72
    29
 73
    25
 74
     0
 42
0.00000001
 43
0.00000001
 40
0.0
 40
0.0
 40
0.0
 40
0.0
 40
1.0
 40
1.0
 40
1.0
 40
2.0
 40
2.0
 40
2.0
 40
3.0
 40
3.0
 40
3.0
 40
4.0
 40
4.0
 40
4.0
 40
5.0
 40
5.0
 40
5.0
 40
6.0
 40
6.0
 40
6.0
 40
7.0
 40
7.0
 40
7.0
 40
8.0
 40
8.0
 40
8.0
 40
8.0
 10
-36.305019124348952
 20
29.603274875217011
 30
0.0
 10
-35.321444363064231
 20
24.582737223307291
 30
0.0
 10
-34.738534206814236
 20
16.649026828342013
 30
0.0
 10
-34.738534206814236
 20
12.049479844835068
 30
0.0
 10
-34.738534206814236
 20
12.049479844835068
 30
0.0
 10
-34.738534206814236
 20
-4.5607035319010416
 30
0.0
 10
-34.738534206814236
 20
-4.5607035319010416
 30
0.0
 10
-34.738534206814236
 20
-4.5607035319010416
 30
0.0
 10
-34.738534206814236
 20
-26.704399278428816
 30
0.0
 10
-34.738534206814236
 20
-26.704399278428816
 30
0.0
 10
-34.738534206814236
 20
-48.848095024956592
 30
0.0
 10
-45.985392930772562
 20
-62.688077121310755
 30
0.0
 10
-65.676352945963529
 20
-62.688077121310755
 30
0.0
 10
-65.676352945963529
 20
-62.688077121310755
 30
0.0
 10
-65.676352945963529
 20
-0.6239929199218749
 30
0.0
 10
-65.676352945963529
 20
-0.6239929199218749
 30
0.0
 10
-65.676352945963529
 20
3.959706624348958
 30
0.0
 10
-61.897599962022561
 20
7.6762756347656245
 30
0.0
 10
-57.237419297960066
 20
7.6762756347656245
 30
0.0
 10
-57.237419297960066
 20
7.6762756347656245
 30
0.0
 10
-52.130754258897568
 20
7.6762756347656245
 30
0.0
 10
-52.130754258897568
 20
7.6762756347656245
 30
0.0
 10
-52.130754258897568
 20
16.327254909939235
 30
0.0
 10
-43.280992974175341
 20
24.90485365125868
 30
0.0
 10
-36.305019124348952
 20
29.603274875217011
 30
0.0
  0
SPLINE
  5
63
100
AcDbEntity
  8
LIVELLO_1
 62
     7
100
AcDbSpline
210
0.0
220
0.0
230
1.0
 70
     8
 71
     3
 72
    29
 73
    25
 74
     0
 42
0.00000001
 43
0.00000001
 40
0.0
 40
0.0
 40
0.0
 40
0.0
 40
1.0
 40
1.0
 40
1.0
 40
2.0
 40
2.0
 40
2.0
 40
3.0
 40
3.0
 40
3.0
 40
4.0
 40
4.0
 40
4.0
 40
5.0
 40
5.0
 40
5.0
 40
6.0
 40
6.0
 40
6.0
 40
7.0
 40
7.0
 40
7.0
 40
8.0
 40
8.0
 40
8.0
 40
8.0
 10
-71.305466715494788
 20
53.570115152994788
 30
0.0
 10
-45.985392930772562
 20
53.570115152994788
 30
0.0
 10
-31.920446099175344
 20
43.880095079210065
 30
0.0
 10
-30.514847140842011
 20
32.806524658203124
 30
0.0
 10
-36.692247856987841
 20
30.406326633029511
 30
0.0
 10
-52.130754258897568
 20
19.103312852647569
 30
0.0
 10
-52.130754258897568
 20
7.6762756347656245
 30
0.0
 10
-52.130754258897568
 20
7.6762756347656245
 30
0.0
 10
-57.237419297960066
 20
7.6762756347656245
 30
0.0
 10
-57.237419297960066
 20
7.6762756347656245
 30
0.0
 10
-61.897599962022561
 20
7.6762756347656245
 30
0.0
 10
-65.676352945963529
 20
3.959706624348958
 30
0.0
 10
-65.676352945963529
 20
-0.6239929199218749
 30
0.0
 10
-65.676352945963529
 20
-0.6239929199218749
 30
0.0
 10
-65.676352945963529
 20
-64.071627468532981
 30
0.0
 10
-65.676352945963529
 20
-64.071627468532981
 30
0.0
 10
-65.676352945963529
 20
-65.601594373914921
 30
0.0
 10
-66.940186225043391
 20
-66.838383653428806
 30
0.0
 10
-68.495646837022562
 20
-66.838383653428806
 30
0.0
 10
-68.495646837022562
 20
-66.838383653428806
 30
0.0
 10
-71.305466715494788
 20
-66.838383653428806
 30
0.0
 10
-71.305466715494788
 20
-66.838383653428806
 30
0.0
 10
-71.305466715494788
 20
-66.838383653428806
 30
0.0
 10
-71.305466715494788
 20
53.570115152994788
 30
0.0
 10
-71.305466715494788
 20
53.570115152994788
 30
0.0
  0
LINE
  5
62
100
AcDbEntity
  8
LIVELLO_1
 62
     7
100
AcDbLine
 10
-90.994704
 20
54.953321
 30
0.0
 11
-71.305467
 21
54.953321
 31
0.0
  0
LINE
  5
61
100
AcDbEntity
  8
LIVELLO_1
 62
     7
100
AcDbLine
 10
-75.524158
 20
60.487006
 30
0.0
 11
-75.524158
 21
-73.761648
 31
0.0
  0
POLYLINE
  5
5B
100
AcDbEntity
  8
LIVELLO_1
 62
     7
100
AcDb2dPolyline
 66
     1
 10
0.0
 20
0.0
 30
0.0
 70
     1
  0
VERTEX
  5
5C
100
AcDbEntity
  8
LIVELLO_1
 62
     7
100
AcDbVertex
100
AcDb2dVertex
 10
-90.994704
 20
60.487006
 30
0.0
  0
VERTEX
  5
5D
100
AcDbEntity
  8
LIVELLO_1
 62
     7
100
AcDbVertex
100
AcDb2dVertex
 10
-71.305467
 20
60.487006
 30
0.0
  0
VERTEX
  5
5E
100
AcDbEntity
  8
LIVELLO_1
 62
     7
100
AcDbVertex
100
AcDb2dVertex
 10
-71.305467
 20
-73.761648
 30
0.0
  0
VERTEX
  5
5F
100
AcDbEntity
  8
LIVELLO_1
 62
     7
100
AcDbVertex
100
AcDb2dVertex
 10
-90.994704
 20
-73.761648
 30
0.0
  0
SEQEND
  5
60
100
AcDbEntity
  8
LIVELLO_1
 62
     7
  0
INSERT
  5
50
100
AcDbEntity
  8
LIVELLO_1
 62
     7
100
AcDbBlockReference
  2
AI9-BLK2
 10
-110.263295
 20
-7.109041
 30
0.0
  0
LINE
  5
4E
100
AcDbEntity
  8
LIVELLO_1
 62
     7
100
AcDbLine
 10
-91.023471
 20
78.748251
 30
0.0
 11
-91.023471
 21
-92.870559
 31
0.0
  0
LINE
  5
4D
100
AcDbEntity
  8
LIVELLO_1
 62
     7
100
AcDbLine
 10
71.408992
 20
80.099762
 30
0.0
 11
52.027574
 21
80.099762
 31
0.0
  0
LINE
  5
4C
100
AcDbEntity
  8
LIVELLO_1
 62
     7
100
AcDbLine
 10
128.631339
 20
80.099762
 30
0.0
 11
111.385191
 21
80.099762
 31
0.0
  0
SPLINE
  5
4B
100
AcDbEntity
  8
LIVELLO_1
 62
     7
100
AcDbSpline
210
0.0
220
0.0
230
1.0
 70
     8
 71
     3
 72
    26
 73
    22
 74
     0
 42
0.00000001
 43
0.00000001
 40
0.0
 40
0.0
 40
0.0
 40
0.0
 40
1.0
 40
1.0
 40
1.0
 40
2.0
 40
2.0
 40
2.0
 40
3.0
 40
3.0
 40
3.0
 40
4.0
 40
4.0
 40
4.0
 40
5.0
 40
5.0
 40
5.0
 40
6.0
 40
6.0
 40
6.0
 40
7.0
 40
7.0
 40
7.0
 40
7.0
 10
89.944294569227424
 20
53.618001980251734
 30
0.0
 10
89.944294569227424
 20
53.618001980251734
 30
0.0
 10
89.944294569227424
 20
53.618001980251734
 30
0.0
 10
89.944294569227424
 20
53.618001980251734
 30
0.0
 10
109.7501485188802
 20
53.618001980251734
 30
0.0
 10
125.81049465603297
 20
36.886551242404508
 30
0.0
 10
125.81049465603297
 20
16.250773790147569
 30
0.0
 10
125.81049465603297
 20
16.250773790147569
 30
0.0
 10
125.81049465603297
 20
-29.423268636067707
 30
0.0
 10
125.81049465603297
 20
-29.423268636067707
 30
0.0
 10
125.81049465603297
 20
-50.059046088324649
 30
0.0
 10
109.7501485188802
 20
-66.790496826171875
 30
0.0
 10
89.944294569227424
 20
-66.790496826171875
 30
0.0
 10
70.133961995442704
 20
-66.790496826171875
 30
0.0
 10
54.073960367838538
 20
-50.059046088324649
 30
0.0
 10
54.073960367838538
 20
-29.423268636067707
 30
0.0
 10
54.073960367838538
 20
-29.423268636067707
 30
0.0
 10
54.073960367838538
 20
16.250773790147569
 30
0.0
 10
54.073960367838538
 20
16.250773790147569
 30
0.0
 10
54.073960367838538
 20
36.886551242404508
 30
0.0
 10
70.133961995442704
 20
53.618001980251734
 30
0.0
 10
89.944294569227424
 20
53.618001980251734
 30
0.0
  0
LINE
  5
4A
100
AcDbEntity
  8
LIVELLO_1
 62
     7
100
AcDbLine
 10
60.818424
 20
7.599795
 30
0.0
 11
56.523423
 21
8.638835
 31
0.0
  0
SPLINE
  5
49
100
AcDbEntity
  8
LIVELLO_1
 62
     7
100
AcDbSpline
210
0.0
220
0.0
230
1.0
 70
     8
 71
     3
 72
     8
 73
     4
 74
     0
 42
0.00000001
 43
0.00000001
 40
0.0
 40
0.0
 40
0.0
 40
0.0
 40
1.0
 40
1.0
 40
1.0
 40
1.0
 10
56.539270697699649
 20
11.233336724175347
 30
0.0
 10
56.539270697699649
 20
29.227070448133677
 30
0.0
 10
70.736509195963535
 20
43.876994493272562
 30
0.0
 10
88.870113796657975
 20
44.434755452473951
 30
0.0
  0
SPLINE
  5
48
100
AcDbEntity
  8
LIVELLO_1
 62
     7
100
AcDbSpline
210
0.0
220
0.0
230
1.0
 70
     8
 71
     3
 72
     8
 73
     4
 74
     0
 42
0.00000001
 43
0.00000001
 40
0.0
 40
0.0
 40
0.0
 40
0.0
 40
1.0
 40
1.0
 40
1.0
 40
1.0
 10
56.539270697699649
 20
9.1869500054253468
 30
0.0
 10
56.539270697699649
 20
27.177583143446178
 30
0.0
 10
70.736509195963535
 20
41.830607774522562
 30
0.0
 10
88.870113796657975
 20
42.388368733723958
 30
0.0
  0
SPLINE
  5
47
100
AcDbEntity
  8
LIVELLO_1
 62
     7
100
AcDbSpline
210
0.0
220
0.0
230
1.0
 70
     8
 71
     3
 72
     8
 73
     4
 74
     0
 42
0.00000001
 43
0.00000001
 40
0.0
 40
0.0
 40
0.0
 40
0.0
 40
1.0
 40
1.0
 40
1.0
 40
1.0
 10
56.606105550130202
 20
8.6229878743489579
 30
0.0
 10
57.360236952039926
 20
25.928047010633676
 30
0.0
 10
71.240182156032986
 20
39.796967909071178
 30
0.0
 10
88.870113796657975
 20
40.338536919487844
 30
0.0
  0
SPLINE
  5
46
100
AcDbEntity
  8
LIVELLO_1
 62
     7
100
AcDbSpline
210
0.0
220
0.0
230
1.0
 70
     8
 71
     3
 72
     8
 73
     4
 74
     0
 42
0.00000001
 43
0.00000001
 40
0.0
 40
0.0
 40
0.0
 40
0.0
 40
1.0
 40
1.0
 40
1.0
 40
1.0
 10
56.755967203776038
 20
8.6036953396267357
 30
0.0
 10
58.466112603081591
 20
24.952395968967011
 30
0.0
 10
71.936780463324652
 20
37.769529215494785
 30
0.0
 10
88.874936930338535
 20
38.289049614800341
 30
0.0
  0
SPLINE
  5
45
100
AcDbEntity
  8
LIVELLO_1
 62
     7
100
AcDbSpline
210
0.0
220
0.0
230
1.0
 70
     8
 71
     3
 72
     8
 73
     4
 74
     0
 42
0.00000001
 43
0.00000001
 40
0.0
 40
0.0
 40
0.0
 40
0.0
 40
1.0
 40
1.0
 40
1.0
 40
1.0
 10
57.020550537109372
 20
8.5144673665364579
 30
0.0
 10
59.564409044053811
 20
23.919900851779513
 30
0.0
 10
72.618909369574652
 20
35.742435031467011
 30
0.0
 10
88.874936930338535
 20
36.242662896050341
 30
0.0
  0
SPLINE
  5
44
100
AcDbEntity
  8
LIVELLO_1
 62
     7
100
AcDbSpline
210
0.0
220
0.0
230
1.0
 70
     8
 71
     3
 72
     8
 73
     4
 74
     0
 42
0.00000001
 43
0.00000001
 40
0.0
 40
0.0
 40
0.0
 40
0.0
 40
1.0
 40
1.0
 40
1.0
 40
1.0
 10
91.007451036241306
 20
44.434755452473951
 30
0.0
 10
109.16207071940103
 20
43.899043104383679
 30
0.0
 10
123.37515665690103
 20
29.239817301432289
 30
0.0
 10
123.37515665690103
 20
11.233336724175347
 30
0.0
  0
SPLINE
  5
43
100
AcDbEntity
  8
LIVELLO_1
 62
     7
100
AcDbSpline
210
0.0
220
0.0
230
1.0
 70
     8
 71
     3
 72
     8
 73
     4
 74
     0
 42
0.00000001
 43
0.00000001
 40
0.0
 40
0.0
 40
0.0
 40
0.0
 40
1.0
 40
1.0
 40
1.0
 40
1.0
 10
91.007451036241306
 20
42.388368733723958
 30
0.0
 10
109.16207071940103
 20
41.852656385633679
 30
0.0
 10
123.37515665690103
 20
27.19032999674479
 30
0.0
 10
123.37515665690103
 20
9.1869500054253468
 30
0.0
  0
SPLINE
  5
42
100
AcDbEntity
  8
LIVELLO_1
 62
     7
100
AcDbSpline
210
0.0
220
0.0
230
1.0
 70
     8
 71
     3
 72
     8
 73
     4
 74
     0
 42
0.00000001
 43
0.00000001
 40
0.0
 40
0.0
 40
0.0
 40
0.0
 40
1.0
 40
1.0
 40
1.0
 40
1.0
 10
91.002627902560761
 20
40.338536919487844
 30
0.0
 10
108.65839775933159
 20
39.815915934244785
 30
0.0
 10
122.5528123643663
 20
25.943894449869788
 30
0.0
 10
123.31142239040797
 20
8.6229878743489579
 30
0.0
  0
SPLINE
  5
41
100
AcDbEntity
  8
LIVELLO_1
 62
     7
100
AcDbSpline
210
0.0
220
0.0
230
1.0
 70
     8
 71
     3
 72
     8
 73
     4
 74
     0
 42
0.00000001
 43
0.00000001
 40
0.0
 40
0.0
 40
0.0
 40
0.0
 40
1.0
 40
1.0
 40
1.0
 40
1.0
 10
91.002627902560761
 20
38.292150200737844
 30
0.0
 10
107.96352199978297
 20
37.788821750217011
 30
0.0
 10
121.44659220377604
 20
24.968587917751734
 30
0.0
 10
123.15846015082464
 20
8.6036953396267357
 30
0.0
  0
SPLINE
  5
40
100
AcDbEntity
  8
LIVELLO_1
 62
     7
100
AcDbSpline
210
0.0
220
0.0
230
1.0
 70
     8
 71
     3
 72
     8
 73
     4
 74
     0
 42
0.00000001
 43
0.00000001
 40
0.0
 40
0.0
 40
0.0
 40
0.0
 40
1.0
 40
1.0
 40
1.0
 40
1.0
 10
91.002627902560761
 20
36.242662896050341
 30
0.0
 10
107.27967054578993
 20
35.764483642578121
 30
0.0
 10
120.35001831054686
 20
23.929202609592011
 30
0.0
 10
122.8938768174913
 20
8.5144673665364579
 30
0.0
  0
SPLINE
  5
3F
100
AcDbEntity
  8
LIVELLO_1
 62
     7
100
AcDbSpline
210
0.0
220
0.0
230
1.0
 70
     8
 71
     3
 72
    11
 73
     7
 74
     0
 42
0.00000001
 43
0.00000001
 40
0.0
 40
0.0
 40
0.0
 40
0.0
 40
1.0
 40
1.0
 40
1.0
 40
2.0
 40
2.0
 40
2.0
 40
2.0
 10
56.539270697699649
 20
13.283168538411458
 30
0.0
 10
56.539270697699649
 20
31.276557752821176
 30
0.0
 10
70.736509195963535
 20
45.926481797960065
 30
0.0
 10
88.870113796657975
 20
46.484242757161454
 30
0.0
 10
88.870113796657975
 20
46.484242757161454
 30
0.0
 10
88.874936930338535
 20
36.242662896050341
 30
0.0
 10
88.874936930338535
 20
36.242662896050341
 30
0.0
  0
SPLINE
  5
3E
100
AcDbEntity
  8
LIVELLO_1
 62
     7
100
AcDbSpline
210
0.0
220
0.0
230
1.0
 70
     8
 71
     3
 72
    11
 73
     7
 74
     0
 42
0.00000001
 43
0.00000001
 40
0.0
 40
0.0
 40
0.0
 40
0.0
 40
1.0
 40
1.0
 40
1.0
 40
2.0
 40
2.0
 40
2.0
 40
2.0
 10
91.002627902560761
 20
36.242662896050341
 30
0.0
 10
91.002627902560761
 20
36.242662896050341
 30
0.0
 10
91.002627902560761
 20
46.484242757161454
 30
0.0
 10
91.002627902560761
 20
46.484242757161454
 30
0.0
 10
109.15724758572047
 20
45.948874918619786
 30
0.0
 10
123.37515665690103
 20
31.289304606119789
 30
0.0
 10
123.37515665690103
 20
13.283168538411458
 30
0.0
  0
LINE
  5
3D
100
AcDbEntity
  8
LIVELLO_1
 62
     7
100
AcDbLine
 10
88.874937
 20
36.242663
 30
0.0
 11
91.002628
 21
36.242663
 31
0.0
  0
SPLINE
  5
3C
100
AcDbEntity
  8
LIVELLO_1
 62
     7
100
AcDbSpline
210
0.0
220
0.0
230
1.0
 70
     8
 71
     3
 72
    29
 73
    25
 74
     0
 42
0.00000001
 43
0.00000001
 40
0.0
 40
0.0
 40
0.0
 40
0.0
 40
1.0
 40
1.0
 40
1.0
 40
2.0
 40
2.0
 40
2.0
 40
3.0
 40
3.0
 40
3.0
 40
4.0
 40
4.0
 40
4.0
 40
5.0
 40
5.0
 40
5.0
 40
6.0
 40
6.0
 40
6.0
 40
7.0
 40
7.0
 40
7.0
 40
8.0
 40
8.0
 40
8.0
 40
8.0
 10
89.944294569227424
 20
32.166081407335064
 30
0.0
 10
104.70101657443576
 20
32.166081407335064
 30
0.0
 10
116.86771579318575
 20
21.51625773111979
 30
0.0
 10
119.06396416558158
 20
7.5997945149739579
 30
0.0
 10
121.90100029839408
 20
6.3437127007378464
 30
0.0
 10
123.70037367078992
 20
3.9307678222656248
 30
0.0
 10
123.70037367078992
 20
0.2365919325086806
 30
0.0
 10
123.70037367078992
 20
0.2365919325086806
 30
0.0
 10
123.70037367078992
 20
-30.695197889539926
 30
0.0
 10
123.70037367078992
 20
-30.695197889539926
 30
0.0
 10
123.70037367078992
 20
-49.042398410373259
 30
0.0
 10
108.58811781141492
 20
-63.912119547526039
 30
0.0
 10
89.944294569227424
 20
-63.912119547526039
 30
0.0
 10
71.300815836588541
 20
-63.912119547526039
 30
0.0
 10
56.187181939019091
 20
-49.042398410373259
 30
0.0
 10
56.187181939019091
 20
-30.695197889539926
 30
0.0
 10
56.187181939019091
 20
-30.695197889539926
 30
0.0
 10
56.187181939019091
 20
0.2365919325086806
 30
0.0
 10
56.187181939019091
 20
0.2365919325086806
 30
0.0
 10
56.187181939019091
 20
3.9307678222656248
 30
0.0
 10
57.981732177734372
 20
6.3437127007378464
 30
0.0
 10
60.818423800998261
 20
7.5997945149739579
 30
0.0
 10
63.014672173394089
 20
21.51625773111979
 30
0.0
 10
75.183093939887144
 20
32.166081407335064
 30
0.0
 10
89.944294569227424
 20
32.166081407335064
 30
0.0
  0
SPLINE
  5
3B
100
AcDbEntity
  8
LIVELLO_1
 62
     7
100
AcDbSpline
210
0.0
220
0.0
230
1.0
 70
     8
 71
     3
 72
    17
 73
    13
 74
     0
 42
0.00000001
 43
0.00000001
 40
0.0
 40
0.0
 40
0.0
 40
0.0
 40
1.0
 40
1.0
 40
1.0
 40
2.0
 40
2.0
 40
2.0
 40
3.0
 40
3.0
 40
3.0
 40
4.0
 40
4.0
 40
4.0
 40
4.0
 10
120.44889255099825
 20
6.7647033691406246
 30
0.0
 10
120.44889255099825
 20
6.7647033691406246
 30
0.0
 10
120.44889255099825
 20
-29.445661756727429
 30
0.0
 10
120.44889255099825
 20
-29.445661756727429
 30
0.0
 10
120.44889255099825
 20
-46.999112277560762
 30
0.0
 10
106.78736640082464
 20
-61.228390163845482
 30
0.0
 10
89.944294569227424
 20
-61.228390163845482
 30
0.0
 10
73.095366075303815
 20
-61.228390163845482
 30
0.0
 10
59.435217963324646
 20
-46.999112277560762
 30
0.0
 10
59.435217963324646
 20
-29.445661756727429
 30
0.0
 10
59.435217963324646
 20
-29.445661756727429
 30
0.0
 10
59.435217963324646
 20
6.7647033691406246
 30
0.0
 10
59.435217963324646
 20
6.7647033691406246
 30
0.0
  0
ELLIPSE
  5
3A
100
AcDbEntity
  8
LIVELLO_1
 62
     7
100
AcDbEllipse
 10
90.02491
 20
-70.656927
 30
0.0
 11
1.5117078993055555
 21
0.0
 31
0.0
210
0.0
220
0.0
230
1.0
 40
0.984734
 41
0.0
 42
6.2831853071795862
  0
SPLINE
  5
39
100
AcDbEntity
  8
LIVELLO_1
 62
     7
100
AcDbSpline
210
0.0
220
0.0
230
1.0
 70
     8
 71
     3
 72
    47
 73
    43
 74
     0
 42
0.00000001
 43
0.00000001
 40
0.0
 40
0.0
 40
0.0
 40
0.0
 40
1.0
 40
1.0
 40
1.0
 40
2.0
 40
2.0
 40
2.0
 40
3.0
 40
3.0
 40
3.0
 40
4.0
 40
4.0
 40
4.0
 40
5.0
 40
5.0
 40
5.0
 40
6.0
 40
6.0
 40
6.0
 40
7.0
 40
7.0
 40
7.0
 40
8.0
 40
8.0
 40
8.0
 40
9.0
 40
9.0
 40
9.0
 40
10.0
 40
10.0
 40
10.0
 40
11.0
 40
11.0
 40
11.0
 40
12.0
 40
12.0
 40
12.0
 40
13.0
 40
13.0
 40
13.0
 40
14.0
 40
14.0
 40
14.0
 40
14.0
 10
89.888828531901027
 20
61.114874267578116
 30
0.0
 10
92.016519504123252
 20
61.114874267578116
 30
0.0
 10
93.648461235894089
 20
59.505153401692702
 30
0.0
 10
93.648461235894089
 20
57.516127522786455
 30
0.0
 10
93.648461235894089
 20
57.516127522786455
 30
0.0
 10
93.648461235894089
 20
55.520900472005202
 30
0.0
 10
93.648461235894089
 20
55.520900472005202
 30
0.0
 10
112.88828599717881
 20
53.684836832682286
 30
0.0
 10
127.91889309353297
 20
37.734389241536455
 30
0.0
 10
127.91889309353297
 20
18.325754801432289
 30
0.0
 10
127.91889309353297
 20
18.325754801432289
 30
0.0
 10
127.91889309353297
 20
-31.495149061414928
 30
0.0
 10
127.91889309353297
 20
-31.495149061414928
 30
0.0
 10
127.91889309353297
 20
-50.903783501519094
 30
0.0
 10
112.88346286349825
 20
-66.854231092664918
 30
0.0
 10
93.648461235894089
 20
-68.690122477213535
 30
0.0
 10
93.648461235894089
 20
-68.690122477213535
 30
0.0
 10
93.648461235894089
 20
-70.685521782769086
 30
0.0
 10
93.648461235894089
 20
-70.685521782769086
 30
0.0
 10
93.648461235894089
 20
-72.671274820963532
 30
0.0
 10
92.016519504123252
 20
-74.284268527560755
 30
0.0
 10
89.997004530164929
 20
-74.284268527560755
 30
0.0
 10
87.866212972005201
 20
-74.284268527560755
 30
0.0
 10
86.234271240234364
 20
-72.671274820963532
 30
0.0
 10
86.234271240234364
 20
-70.685521782769086
 30
0.0
 10
86.234271240234364
 20
-70.685521782769086
 30
0.0
 10
86.234271240234364
 20
-68.690122477213535
 30
0.0
 10
86.234271240234364
 20
-68.690122477213535
 30
0.0
 10
67.000647650824646
 20
-66.854231092664918
 30
0.0
 10
51.963494873046869
 20
-50.903783501519094
 30
0.0
 10
51.963494873046869
 20
-31.495149061414928
 30
0.0
 10
51.963494873046869
 20
-31.495149061414928
 30
0.0
 10
51.963494873046869
 20
18.325754801432289
 30
0.0
 10
51.963494873046869
 20
18.325754801432289
 30
0.0
 10
51.963494873046869
 20
37.734389241536455
 30
0.0
 10
67.000647650824646
 20
53.684836832682286
 30
0.0
 10
86.234271240234364
 20
55.520900472005202
 30
0.0
 10
86.234271240234364
 20
55.520900472005202
 30
0.0
 10
86.234271240234364
 20
57.516127522786455
 30
0.0
 10
86.234271240234364
 20
57.516127522786455
 30
0.0
 10
86.234271240234364
 20
59.505153401692702
 30
0.0
 10
87.866212972005201
 20
61.114874267578116
 30
0.0
 10
89.888828531901027
 20
61.114874267578116
 30
0.0
  0
ELLIPSE
  5
38
100
AcDbEntity
  8
LIVELLO_1
 62
     7
100
AcDbEllipse
 10
89.860751
 20
57.48426
 30
0.0
 11
-1.5149807400173609
 21
0.0
 31
0.0
210
0.0
220
0.0
230
1.0
 40
0.98249
 41
0.0
 42
6.2831853071795862
  0
LINE
  5
37
100
AcDbEntity
  8
LIVELLO_1
 62
     7
100
AcDbLine
 10
119.063964
 20
7.599795
 30
0.0
 11
123.36551
 21
8.638835
 31
0.0
  0
LINE
  5
36
100
AcDbEntity
  8
LIVELLO_1
 62
     7
100
AcDbLine
 10
51.735774
 20
72.510217
 30
0.0
 11
51.735774
 21
87.274862
 31
0.0
  0
LINE
  5
35
100
AcDbEntity
  8
LIVELLO_1
 62
     7
100
AcDbLine
 10
129.157405
 20
72.51659
 30
0.0
 11
129.157405
 21
87.281236
 31
0.0
  0
MTEXT
  5
34
100
AcDbEntity
  8
LIVELLO_1
 62
     7
100
AcDbMText
 10
66.293025
 20
91.669117
 30
0.0
 40
17.636168
 41
0.0
 71
     1
 72
     2
  1
\fCourier|b0|i0;\H17.6362;\W1.02;\C7;\U+0031\U+0036\U+0030
  7
STD
210
0.0
220
0.0
230
1.0
 73
     1
 44
1.0
  0
LINE
  5
33
100
AcDbEntity
  8
LIVELLO_1
 62
     7
100
AcDbLine
 10
85.026076
 20
46.280293
 30
0.0
 11
88.887684
 21
35.879205
 31
0.0
  0
LINE
  5
32
100
AcDbEntity
  8
LIVELLO_1
 62
     7
100
AcDbLine
 10
95.769607
 20
46.280293
 30
0.0
 11
91.15249
 21
35.879205
 31
0.0
  0
POLYLINE
  5
2C
100
AcDbEntity
  8
LIVELLO_1
 62
     7
100
AcDb2dPolyline
 66
     1
 10
0.0
 20
0.0
 30
0.0
 70
     1
  0
VERTEX
  5
2D
100
AcDbEntity
  8
LIVELLO_1
 62
     7
100
AcDbVertex
100
AcDb2dVertex
 10
84.84762
 20
47.49779
 30
0.0
  0
VERTEX
  5
2E
100
AcDbEntity
  8
LIVELLO_1
 62
     7
100
AcDbVertex
100
AcDb2dVertex
 10
89.053393
 20
35.923992
 30
0.0
  0
VERTEX
  5
2F
100
AcDbEntity
  8
LIVELLO_1
 62
     7
100
AcDbVertex
100
AcDb2dVertex
 10
90.51997
 20
35.923992
 30
0.0
  0
VERTEX
  5
30
100
AcDbEntity
  8
LIVELLO_1
 62
     7
100
AcDbVertex
100
AcDb2dVertex
 10
96.006974
 20
47.430955
 30
0.0
  0
SEQEND
  5
31
100
AcDbEntity
  8
LIVELLO_1
 62
     7
  0
ENDBLK
  5
76
100
AcDbEntity
  8
LIVELLO_1
100
AcDbBlockEnd
  0
BLOCK
  5
51
100
AcDbEntity
  8
LIVELLO_1
 62
     7
100
AcDbBlockBegin
  2
AI9-BLK2
 70
     0
 10
0.0
 20
0.0
 30
0.0
  3
AI9-BLK2
  1

  0
INSERT
  5
53
100
AcDbEntity
  8
LIVELLO_1
 62
     7
100
AcDbBlockReference
  2
AI9-BLK3
 10
-0.337878
 20
-0.012747
 30
0.0
  0
ENDBLK
  5
5A
100
AcDbEntity
  8
LIVELLO_1
100
AcDbBlockEnd
  0
BLOCK
  5
54
100
AcDbEntity
  8
LIVELLO_1
 62
     7
100
AcDbBlockBegin
  2
AI9-BLK3
 70
     0
 10
0.0
 20
0.0
 30
0.0
  3
AI9-BLK3
  1

  0
INSERT
  5
56
100
AcDbEntity
  8
LIVELLO_1
 62
     7
100
AcDbBlockReference
  2
AI9-BLK4
 10
0.0
 20
0.0
 30
0.0
  0
ENDBLK
  5
59
100
AcDbEntity
  8
LIVELLO_1
100
AcDbBlockEnd
  0
BLOCK
  5
57
100
AcDbEntity
  8
LIVELLO_1
 62
     7
100
AcDbBlockBegin
  2
AI9-BLK4
 70
     0
 10
0.0
 20
0.0
 30
0.0
  3
AI9-BLK4
  1

  0
ENDBLK
  5
58
100
AcDbEntity
  8
LIVELLO_1
100
AcDbBlockEnd
  0
ENDSEC
  0
SECTION
  2
ENTITIES
  0
INSERT
  5
2A
100
AcDbEntity
  8
LIVELLO_1
 62
     7
100
AcDbBlockReference
  2
AI9-BLK1
 10
169.39836
 20
164.217108
 30
0.0
  0
ENDSEC
  0
SECTION
  2
OBJECTS
  0
DICTIONARY
  5
19
100
AcDbDictionary
280
     0
281
     1
  3
ACAD_GROUP
350
1A
  3
ACAD_MLINESTYLE
350
1B
  3
ACAD_LAYOUT
350
1E
  3
ACAD_PLOTSETTINGS
350
22
  3
ACAD_PLOTSTYLENAME
350
1F
  3
ACAD_WIPEOUT_VARS
350
23
  0
DICTIONARY
  5
1A
102
{ACAD_REACTORS
330
19
102
}
100
AcDbDictionary
280
     0
281
     1
  0
DICTIONARY
  5
1B
102
{ACAD_REACTORS
330
19
102
}
100
AcDbDictionary
280
     0
281
     1
  3
Standard
350
1C
  0
MLINESTYLE
  5
1C
102
{ACAD_REACTORS
330
1B
102
}
100
AcDbMlineStyle
  2
Standard
 70
     0
  3

 62
     0
 51
90.0
 52
90.0
 71
     2
 49
0.5
 62
   256
  6
ByLayer
 49
-0.5
 62
   256
  6
ByLayer
  0
ACDBDICTIONARYWDFLT
  5
1F
102
{ACAD_REACTORS
330
19
102
}
100
AcDbDictionary
281
     1
  3
Normal
350
1D
100
AcDbDictionaryWithDefault
340
1D
  0
ACDBPLACEHOLDER
  5
1D
102
{ACAD_REACTORS
330
1F
102
}
  0
LAYOUT
  5
20
102
{ACAD_REACTORS
330
1E
102
}
100
AcDbPlotSettings
  1

  2

  4

  6

 40
0.0
 41
0.0
 42
0.0
 43
0.0
 44
0.0
 45
0.0
 46
0.0
 47
0.0
 48
0.0
 49
0.0
140
0.0
141
0.0
142
1.0
143
1.0
 70
  1024
 72
     0
 73
     0
 74
     0
  7

 75
     0
147
1.0
148
0.0
149
0.0
100
AcDbLayout
  1
Model
 70
     0
 71
     0
 10
0.0
 20
0.0
 11
0.0
 21
0.0
 12
0.0
 22
0.0
 32
0.0
 14
0.0
 24
0.0
 34
0.0
 15
0.0
 25
0.0
 35
0.0
146
0.0
 13
0.0
 23
0.0
 33
0.0
 16
0.0
 26
0.0
 36
0.0
 17
0.0
 27
0.0
 37
0.0
 76
     0
330
A
331
0
345
0
346
0
  0
LAYOUT
  5
21
102
{ACAD_REACTORS
330
1E
102
}
100
AcDbPlotSettings
  1

  2

  4

  6

 40
0.0
 41
0.0
 42
0.0
 43
0.0
 44
0.0
 45
0.0
 46
0.0
 47
0.0
 48
0.0
 49
0.0
140
0.0
141
0.0
142
1.0
143
1.0
 70
     0
 72
     0
 73
     0
 74
     0
  7

 75
     0
147
1.0
148
0.0
149
0.0
100
AcDbLayout
  1
Layout1
 70
     0
 71
     0
 10
0.0
 20
0.0
 11
0.0
 21
0.0
 12
0.0
 22
0.0
 32
0.0
 14
0.0
 24
0.0
 34
0.0
 15
0.0
 25
0.0
 35
0.0
146
0.0
 13
0.0
 23
0.0
 33
0.0
 16
0.0
 26
0.0
 36
0.0
 17
0.0
 27
0.0
 37
0.0
 76
     0
330
B
331
0
345
0
346
0
  0
DICTIONARY
  5
1E
102
{ACAD_REACTORS
330
19
102
}
100
AcDbDictionary
280
     0
281
     1
  3
Layout1
350
21
  3
Model
350
20
  0
DICTIONARY
  5
22
102
{ACAD_REACTORS
330
19
102
}
100
AcDbDictionary
280
     0
281
     1
  0
WIPEOUTVARIABLES
  5
23
100
AcDbWipeoutVariables
 70
     1
  0
ENDSEC
  0
EOF
