  0
SECTION
  2
HEADER
  9
$ACADVER
  1
AC1015
  9
$ACADMAINTVER
 70
     6
  9
$DWGCODEPAGE
  3
ANSI_932
  9
$INSBASE
 10
0.0
 20
0.0
 30
0.0
  9
$EXTMIN
 10
-0.002067
 20
0.0
 30
1.000000E+20
  9
$EXTMAX
 10
281.491862
 20
175.576363
 30
-1.000000E+20
  9
$LIMMIN
 10
-0.002067
 20
0.0
  9
$LIMMAX
 10
281.491862
 20
175.576363
  9
$ORTHOMODE
 70
     0
  9
$REGENMODE
 70
     1
  9
$FILLMODE
 70
     1
  9
$QTEXTMODE
 70
     0
  9
$MIRRTEXT
 70
     1
  9
$LTSCALE
 40
1.0
  9
$ATTMODE
 70
     1
  9
$TEXTSIZE
 40
0.2
  9
$TRACEWID
 40
0.05
  9
$TEXTSTYLE
  7
Standard
  9
$CLAYER
  8
0
  9
$CELTYPE
  6
Continuous
  9
$CECOLOR
 62
   256
  9
$CELTSCALE
 40
1.0
  9
$DISPSILH
 70
     0
  9
$DIMSCALE
 40
1.0
  9
$DIMASZ
 40
0.18
  9
$DIMEXO
 40
0.0625
  9
$DIMDLI
 40
0.38
  9
$DIMRND
 40
0.0
  9
$DIMDLE
 40
0.0
  9
$DIMEXE
 40
0.18
  9
$DIMTP
 40
0.0
  9
$DIMTM
 40
0.0
  9
$DIMTXT
 40
0.18
  9
$DIMCEN
 40
0.09
  9
$DIMTSZ
 40
0.0
  9
$DIMTOL
 70
     0
  9
$DIMLIM
 70
     0
  9
$DIMTIH
 70
     1
  9
$DIMTOH
 70
     1
  9
$DIMSE1
 70
     0
  9
$DIMSE2
 70
     0
  9
$DIMTAD
 70
     0
  9
$DIMZIN
 70
     0
  9
$DIMBLK
  1

  9
$DIMASO
 70
     1
  9
$DIMSHO
 70
     1
  9
$DIMPOST
  1

  9
$DIMAPOST
  1

  9
$DIMALT
 70
     0
  9
$DIMALTD
 70
     2
  9
$DIMALTF
 40
25.4
  9
$DIMLFAC
 40
1.0
  9
$DIMTOFL
 70
     0
  9
$DIMTVP
 40
0.0
  9
$DIMTIX
 70
     0
  9
$DIMSOXD
 70
     0
  9
$DIMSAH
 70
     0
  9
$DIMBLK1
  1

  9
$DIMBLK2
  1

  9
$DIMSTYLE
  2
Standard
  9
$DIMCLRD
 70
     0
  9
$DIMCLRE
 70
     0
  9
$DIMCLRT
 70
     0
  9
$DIMTFAC
 40
1.0
  9
$DIMGAP
 40
0.09
  9
$DIMJUST
 70
     0
  9
$DIMSD1
 70
     0
  9
$DIMSD2
 70
     0
  9
$DIMTOLJ
 70
     1
  9
$DIMTZIN
 70
     0
  9
$DIMALTZ
 70
     0
  9
$DIMALTTZ
 70
     0
  9
$DIMUPT
 70
     0
  9
$DIMDEC
 70
     4
  9
$DIMTDEC
 70
     4
  9
$DIMALTU
 70
     2
  9
$DIMALTTD
 70
     2
  9
$DIMTXSTY
  7
Standard
  9
$DIMAUNIT
 70
     0
  9
$DIMADEC
 70
     0
  9
$DIMALTRND
 40
0.0
  9
$DIMAZIN
 70
     0
  9
$DIMDSEP
 70
     0
  9
$DIMATFIT
 70
     3
  9
$DIMFRAC
 70
     0
  9
$DIMLDRBLK
  1

  9
$DIMLUNIT
 70
     2
  9
$DIMLWD
 70
     0
  9
$DIMLWE
 70
     0
  9
$DIMTMOVE
 70
     0
  9
$LUNITS
 70
     2
  9
$LUPREC
 70
     4
  9
$SKETCHINC
 40
0.1
  9
$FILLETRAD
 40
0.0
  9
$AUNITS
 70
     0
  9
$AUPREC
 70
     0
  9
$MENU
  1
acad
  9
$ELEVATION
 40
0.0
  9
$PELEVATION
 40
0.0
  9
$THICKNESS
 40
0.0
  9
$LIMCHECK
 70
     0
  9
$CHAMFERA
 40
0.0
  9
$CHAMFERB
 40
0.0
  9
$CHAMFERC
 40
0.0
  9
$CHAMFERD
 40
0.0
  9
$SKPOLY
 70
     0
  9
$TDCREATE
 40
0.000000000
  9
$TDUCREATE
 40
0.000000000
  9
$TDUPDATE
 40
0.000000000
  9
$TDUUPDATE
 40
0.000000000
  9
$TDINDWG
 40
0.0000000000
  9
$TDUSRTIMER
 40
0.0000000000
  9
$USRTIMER
 70
     1
  9
$ANGBASE
 50
0.0
  9
$ANGDIR
 70
     0
  9
$PDMODE
 70
     0
  9
$PDSIZE
 40
0.0
  9
$PLINEWID
 40
0.0
  9
$SPLFRAME
 70
     0
  9
$SPLINETYPE
 70
     6
  9
$SPLINESEGS
 70
     8
  9
$HANDSEED
  5
9F
  9
$SURFTAB1
 70
     6
  9
$SURFTAB2
 70
     6
  9
$SURFTYPE
 70
     6
  9
$SURFU
 70
     6
  9
$SURFV
 70
     6
  9
$UCSBASE
  2

  9
$UCSNAME
  2

  9
$UCSORG
 10
0.0
 20
0.0
 30
0.0
  9
$UCSXDIR
 10
1.0
 20
0.0
 30
0.0
  9
$UCSYDIR
 10
0.0
 20
1.0
 30
0.0
  9
$UCSORTHOREF
  2

  9
$UCSORTHOVIEW
 70
     0
  9
$UCSORGTOP
 10
0.0
 20
0.0
 30
0.0
  9
$UCSORGBOTTOM
 10
0.0
 20
0.0
 30
0.0
  9
$UCSORGLEFT
 10
0.0
 20
0.0
 30
0.0
  9
$UCSORGRIGHT
 10
0.0
 20
0.0
 30
0.0
  9
$UCSORGFRONT
 10
0.0
 20
0.0
 30
0.0
  9
$UCSORGBACK
 10
0.0
 20
0.0
 30
0.0
  9
$PUCSBASE
  2

  9
$PUCSNAME
  2

  9
$PUCSORG
 10
0.0
 20
0.0
 30
0.0
  9
$PUCSXDIR
 10
1.0
 20
0.0
 30
0.0
  9
$PUCSYDIR
 10
0.0
 20
1.0
 30
0.0
  9
$PUCSORTHOREF
  2

  9
$PUCSORTHOVIEW
 70
     0
  9
$PUCSORGTOP
 10
0.0
 20
0.0
 30
0.0
  9
$PUCSORGBOTTOM
 10
0.0
 20
0.0
 30
0.0
  9
$PUCSORGLEFT
 10
0.0
 20
0.0
 30
0.0
  9
$PUCSORGRIGHT
 10
0.0
 20
0.0
 30
0.0
  9
$PUCSORGFRONT
 10
0.0
 20
0.0
 30
0.0
  9
$PUCSORGBACK
 10
0.0
 20
0.0
 30
0.0
  9
$USERI1
 70
     0
  9
$USERI2
 70
     0
  9
$USERI3
 70
     0
  9
$USERI4
 70
     0
  9
$USERI5
 70
     0
  9
$USERR1
 40
0.0
  9
$USERR2
 40
0.0
  9
$USERR3
 40
0.0
  9
$USERR4
 40
0.0
  9
$USERR5
 40
0.0
  9
$WORLDVIEW
 70
     1
  9
$SHADEDGE
 70
     3
  9
$SHADEDIF
 70
    70
  9
$TILEMODE
 70
     1
  9
$MAXACTVP
 70
    16
  9
$PINSBASE
 10
0.0
 20
0.0
 30
0.0
  9
$PLIMCHECK
 70
     0
  9
$PEXTMIN
 10
1.000000E+20
 20
1.000000E+20
 30
1.000000E+20
  9
$PEXTMAX
 10
-1.000000E+20
 20
-1.000000E+20
 30
-1.000000E+20
  9
$PLIMMIN
 10
0.0
 20
0.0
  9
$PLIMMAX
 10
12.0
 20
9.0
  9
$UNITMODE
 70
     0
  9
$VISRETAIN
 70
     0
  9
$PLINEGEN
 70
     1
  9
$PSLTSCALE
 70
     0
  9
$TREEDEPTH
 70
  3020
  9
$CMLSTYLE
  2
Standard
  9
$CMLJUST
 70
     0
  9
$CMLSCALE
 40
1.0
  9
$PROXYGRAPHICS
 70
     0
  9
$MEASUREMENT
 70
     1
  9
$CELWEIGHT
370
     0
  9
$ENDCAPS
280
     0
  9
$JOINSTYLE
280
     0
  9
$LWDISPLAY
290
     0
  9
$INSUNITS
 70
     0
  9
$HYPERLINKBASE
  1

  9
$STYLESHEET
  1

  9
$XEDIT
290
     1
  9
$CEPSNTYPE
380
     0
  9
$PSTYLEMODE
290
     1
  9
$FINGERPRINTGUID
  2

  9
$VERSIONGUID
  2

  9
$EXTNAMES
290
     1
  9
$PSVPSCALE
 40
0.0
  0
ENDSEC
  0
SECTION
  2
CLASSES
  0
CLASS
  1
LWPOLYLINE
  2
AcDbPolyline
  3
AutoCAD 2000
 90
    32768
280
     0
281
     1
  0
CLASS
  1
IMAGE
  2
AcDbRasterImage
  3
ISM
 90
    32895
280
     0
281
     1
  0
CLASS
  1
OLE2FRAME
  2
AcDbOle2Frame
  3
AutoCAD 2000
 90
    32768
280
     0
281
     1
  0
CLASS
  1
HATCH
  2
AcDbHatch
  3
AutoCAD 2000
 90
    32768
280
     0
281
     1
  0
CLASS
  1
DICTIONARYVAR
  2
AcDbDictionaryVar
  3
AutoCAD 2000
 90
    32768
280
     0
281
     0
  0
CLASS
  1
RASTERVARIABLES
  2
AcDbRasterVariables
  3
ISM
 90
    32768
280
     0
281
     0
  0
CLASS
  1
IMAGEDEF
  2
AcDbRasterImageDef
  3
ISM
 90
    32768
280
     0
281
     0
  0
CLASS
  1
IMAGEDEF_REACTOR
  2
AcDbRasterImageDefReactor
  3
ISM
 90
    32769
280
     0
281
     0
  0
CLASS
  1
IDBUFFER
  2
AcDbIdBuffer
  3
AutoCAD 2000
 90
    32768
280
     0
281
     0
  0
CLASS
  1
SPATIAL_FILTER
  2
AcDbSpatialFilter
  3
AutoCAD 2000
 90
    32768
280
     0
281
     0
  0
CLASS
  1
XRECORD
  2
AcDbXrecord
  3
AutoCAD 2000
 90
    32768
280
     0
281
     0
  0
CLASS
  1
SORTENTSTABLE
  2
AcDbSortentsTable
  3
AutoCAD 2000
 90
    32768
280
     0
281
     0
  0
CLASS
  1
LAYER_INDEX
  2
AcDbLayerIndex
  3
AutoCAD 2000
 90
    32768
280
     0
281
     0
  0
CLASS
  1
SPATIAL_INDEX
  2
AcDbSpatialIndex
  3
AutoCAD 2000
 90
    32768
280
     0
281
     0
  0
CLASS
  1
OBJECT_PTR
  2
CAseDLPNTableRecord
  3
"ASE-LPNTableRecord"
 90
    32769
280
     0
281
     0
  0
CLASS
  1
LAYOUT
  2
AcDbLayout
  3
AutoCAD 2000
 90
        0
280
     0
281
     0
  0
CLASS
  1
PLOTSETTINGS
  2
AcDbPlotSettings
  3
AutoCAD 2000
 90
    32768
280
     0
281
     0
  0
CLASS
  1
ACDBDICTIONARYWDFLT
  2
AcDbDictionaryWithDefault
  3
AutoCAD 2000
 90
        0
280
     0
281
     0
  0
CLASS
  1
ACDBPLACEHOLDER
  2
AcDbPlaceHolder
  3
AutoCAD 2000
 90
        0
280
     0
281
     0
  0
CLASS
  1
VBA_PROJECT
  2
AcDbVbaProject
  3
acadvba
 90
    32768
280
     0
281
     0
  0
CLASS
  1
WIPEOUT
  2
AcDbWipeout
  3
WipeOut|AutoCAD Express Tool|expresstools@autodesk.com
 90
    32895
280
     0
281
     1
  0
CLASS
  1
WIPEOUTVARIABLES
  2
AcDbWipeoutVariables
  3
WipeOut|AutoCAD Express Tool|expresstools@autodesk.com
 90
        0
280
     0
281
     0
  0
CLASS
  1
RTEXT
  2
RText
  3
RText|AutoCAD Express Tool|expresstools@autodesk.com
 90
    32768
280
     0
281
     1
  0
CLASS
  1
ARCALIGNEDTEXT
  2
AcDbArcAlignedText
  3
ATEXT|AutoCAD Express Tool|expresstools@autodesk.com
 90
    32768
280
     0
281
     1
  0
ENDSEC
  0
SECTION
  2
TABLES
  0
TABLE
  2
VPORT
  5
7
100
AcDbSymbolTable
 70
     1
  0
VPORT
  5
15
100
AcDbSymbolTableRecord
100
AcDbViewportTableRecord
  2
*ACTIVE
 70
     0
 10
0.0
 20
0.0
 11
1.0
 21
1.0
 12
6.591288
 22
4.579184
 13
0.0
 23
0.0
 14
1.0
 24
1.0
 15
0.0
 25
0.0
 16
0.0
 26
0.0
 36
1.0
 17
0.0
 27
0.0
 37
0.0
 40
9.158369
 41
0.688564
 42
50.0
 43
0.0
 44
0.0
 50
0.0
 51
0.0
 71
     0
 72
   100
 73
     1
 74
     1
 75
     0
 76
     0
 77
     0
 78
     0
281
     0
 65
     0
110
0.0
120
0.0
130
0.0
111
1.0
121
0.0
131
0.0
112
0.0
122
1.0
132
0.0
345
0
346
0
 79
     0
146
0.0
  0
ENDTAB
  0
TABLE
  2
LTYPE
  5
4
100
AcDbSymbolTable
 70
     3
  0
LTYPE
  5
11
100
AcDbSymbolTableRecord
100
AcDbLinetypeTableRecord
  2
ByBlock
 70
    64
  3

 72
    65
 73
     0
 40
0.0
  0
LTYPE
  5
12
100
AcDbSymbolTableRecord
100
AcDbLinetypeTableRecord
  2
ByLayer
 70
    64
  3

 72
    65
 73
     0
 40
0.0
  0
LTYPE
  5
13
100
AcDbSymbolTableRecord
100
AcDbLinetypeTableRecord
  2
Continuous
 70
    64
  3
Solid line
 72
    65
 73
     0
 40
0.0
  0
ENDTAB
  0
TABLE
  2
LAYER
  5
2
100
AcDbSymbolTable
 70
     2
  0
LAYER
  5
14
100
AcDbSymbolTableRecord
100
AcDbLayerTableRecord
  2
0
 70
     0
 62
     7
  6
Continuous
290
     1
370
    -3
390
1D
  0
LAYER
  5
28
100
AcDbSymbolTableRecord
100
AcDbLayerTableRecord
  2
LIVELLO_1
 70
     0
 62
   160
  6
Continuous
290
     1
370
    -3
390
1D
  0
ENDTAB
  0
TABLE
  2
STYLE
  5
3
100
AcDbSymbolTable
 70
     5
  0
STYLE
  5
17
100
AcDbSymbolTableRecord
100
AcDbTextStyleTableRecord
  2
Standard
 70
     0
 40
0.0
 41
1.0
 50
0.0
 71
     0
 42
0.0
  3
txt
  4

  0
STYLE
  5
24
100
AcDbSymbolTableRecord
100
AcDbTextStyleTableRecord
  2
STD
 70
     0
 40
0.0
 41
1.0
 50
0.0
 71
     0
 42
0.0
  3
txt
  4

  0
STYLE
  5
25
100
AcDbSymbolTableRecord
100
AcDbTextStyleTableRecord
  2
TATESTD
 70
     4
 40
0.0
 41
1.0
 50
0.0
 71
     0
 42
0.0
  3
txt
  4

  0
STYLE
  5
26
100
AcDbSymbolTableRecord
100
AcDbTextStyleTableRecord
  2
KANJISTD
 70
     0
 40
0.0
 41
1.0
 50
0.0
 71
     0
 42
0.0
  3
txt
  4
extfont
  0
STYLE
  5
27
100
AcDbSymbolTableRecord
100
AcDbTextStyleTableRecord
  2
KANJITATE
 70
     4
 40
0.0
 41
1.0
 50
0.0
 71
     0
 42
0.0
  3
txt
  4
extfont
  0
ENDTAB
  0
TABLE
  2
VIEW
  5
5
100
AcDbSymbolTable
 70
     0
  0
ENDTAB
  0
TABLE
  2
UCS
  5
6
100
AcDbSymbolTable
 70
     0
  0
ENDTAB
  0
TABLE
  2
APPID
  5
8
100
AcDbSymbolTable
 70
     1
  0
APPID
  5
16
100
AcDbSymbolTableRecord
100
AcDbRegAppTableRecord
  2
ACAD
 70
     0
  0
ENDTAB
  0
TABLE
  2
DIMSTYLE
  5
9
100
AcDbSymbolTable
 70
     1
100
AcDbDimStyleTable
 71
     0
  0
DIMSTYLE
105
18
100
AcDbSymbolTableRecord
100
AcDbDimStyleTableRecord
  2
Standard
 70
     0
  3

  4

 40
1.0
 41
0.18
 42
0.0625
 43
0.38
 44
0.18
 45
0.0
 46
0.0
 47
0.0
 48
0.0
 71
     0
 72
     0
 73
     1
 74
     1
 75
     0
 76
     0
 77
     0
 78
     0
 79
     0
140
0.18
141
0.09
142
0.0
143
25.4
144
1.0
145
0.0
146
1.0
147
0.09
148
0.0
170
     0
171
     2
172
     0
173
     0
174
     0
175
     0
176
     0
177
     0
178
     0
179
     0
271
     4
272
     4
273
     2
274
     2
275
     0
276
     0
277
     2
278
    46
279
     0
280
     0
281
     0
282
     0
283
     1
284
     0
285
     0
286
     0
288
     0
340
17
341
0
342
0
343
0
344
0
371
    -2
372
    -2
  0
ENDTAB
  0
TABLE
  2
BLOCK_RECORD
  5
1
100
AcDbSymbolTable
 70
     4
  0
BLOCK_RECORD
  5
A
100
AcDbSymbolTableRecord
100
AcDbBlockTableRecord
  2
*MODEL_SPACE
340
20
  0
BLOCK_RECORD
  5
B
100
AcDbSymbolTableRecord
100
AcDbBlockTableRecord
  2
*PAPER_SPACE
340
21
  0
BLOCK_RECORD
  5
29
100
AcDbSymbolTableRecord
100
AcDbBlockTableRecord
  2
AI9-BLK1
340
0
102
{BLKREFS
331
2A
102
}
  0
BLOCK_RECORD
  5
92
100
AcDbSymbolTableRecord
100
AcDbBlockTableRecord
  2
AI9-BLK2
340
0
102
{BLKREFS
331
93
102
}
  0
BLOCK_RECORD
  5
95
100
AcDbSymbolTableRecord
100
AcDbBlockTableRecord
  2
AI9-BLK3
340
0
102
{BLKREFS
331
96
102
}
  0
BLOCK_RECORD
  5
98
100
AcDbSymbolTableRecord
100
AcDbBlockTableRecord
  2
AI9-BLK4
340
0
102
{BLKREFS
331
99
102
}
  0
ENDTAB
  0
ENDSEC
  0
SECTION
  2
BLOCKS
  0
BLOCK
  5
D
100
AcDbEntity
  8
0
100
AcDbBlockBegin
  2
*MODEL_SPACE
 70
     0
 10
0.0
 20
0.0
 30
0.0
  3
*MODEL_SPACE
  1

  0
ENDBLK
  5
E
100
AcDbEntity
  8
0
100
AcDbBlockEnd
  0
BLOCK
  5
F
100
AcDbEntity
 67
     1
  8
0
100
AcDbBlockBegin
  2
*PAPER_SPACE
 70
     0
 10
0.0
 20
0.0
 30
0.0
  3
*PAPER_SPACE
  1

  0
ENDBLK
  5
10
100
AcDbEntity
 67
     1
  8
0
100
AcDbBlockEnd
  0
BLOCK
  5
2B
100
AcDbEntity
  8
LIVELLO_1
 62
     7
100
AcDbBlockBegin
  2
AI9-BLK1
 70
     0
 10
0.0
 20
0.0
 30
0.0
  3
AI9-BLK1
  1

  0
INSERT
  5
93
100
AcDbEntity
  8
LIVELLO_1
 62
     7
100
AcDbBlockReference
  2
AI9-BLK2
 10
-122.519137
 20
-3.659897
 30
0.0
  0
LINE
  5
91
100
AcDbEntity
  8
LIVELLO_1
 62
     7
100
AcDbLine
 10
-104.437208
 20
79.081909
 30
0.0
 11
-104.437208
 21
-87.788182
 31
0.0
  0
SPLINE
  5
90
100
AcDbEntity
  8
LIVELLO_1
 62
     7
100
AcDbSpline
210
0.0
220
0.0
230
1.0
 70
     8
 71
     3
 72
    17
 73
    13
 74
     0
 42
0.00000001
 43
0.00000001
 40
0.0
 40
0.0
 40
0.0
 40
0.0
 40
1.0
 40
1.0
 40
1.0
 40
2.0
 40
2.0
 40
2.0
 40
3.0
 40
3.0
 40
3.0
 40
4.0
 40
4.0
 40
4.0
 40
4.0
 10
124.27045084635415
 20
-31.645182969835066
 30
0.0
 10
119.74566243489582
 20
-39.152735053168399
 30
0.0
 10
113.31056857638887
 20
-45.654663764105898
 30
0.0
 10
105.18186577690972
 20
-50.347572835286456
 30
0.0
 10
97.11861979166666
 20
-55.001552327473952
 30
0.0
 10
88.352574327256931
 20
-57.324235704210061
 30
0.0
 10
79.65990939670138
 20
-57.524395751953122
 30
0.0
 10
79.65990939670138
 20
-57.524395751953122
 30
0.0
 10
79.65990939670138
 20
-5.8772467719184025
 30
0.0
 10
79.65990939670138
 20
-5.8772467719184025
 30
0.0
 10
79.65990939670138
 20
-5.8772467719184025
 30
0.0
 10
124.27045084635415
 20
-31.645182969835066
 30
0.0
 10
124.27045084635415
 20
-31.645182969835066
 30
0.0
  0
SPLINE
  5
8F
100
AcDbEntity
  8
LIVELLO_1
 62
     7
100
AcDbSpline
210
0.0
220
0.0
230
1.0
 70
     8
 71
     3
 72
    29
 73
    25
 74
     0
 42
0.00000001
 43
0.00000001
 40
0.0
 40
0.0
 40
0.0
 40
0.0
 40
1.0
 40
1.0
 40
1.0
 40
2.0
 40
2.0
 40
2.0
 40
3.0
 40
3.0
 40
3.0
 40
4.0
 40
4.0
 40
4.0
 40
5.0
 40
5.0
 40
5.0
 40
6.0
 40
6.0
 40
6.0
 40
7.0
 40
7.0
 40
7.0
 40
8.0
 40
8.0
 40
8.0
 40
8.0
 10
77.807826063368054
 20
-57.535420057508674
 30
0.0
 10
59.941905381944437
 20
-57.327336290147564
 30
0.0
 10
42.631678602430554
 20
-48.188531494140619
 30
0.0
 10
32.683276367187496
 20
-31.942494710286457
 30
0.0
 10
32.683276367187496
 20
-31.942494710286457
 30
0.0
 10
31.959461805555552
 20
-30.728443060980901
 30
0.0
 10
31.959461805555552
 20
-30.728443060980901
 30
0.0
 10
22.234646267361111
 20
-13.579102240668401
 30
0.0
 10
22.755544704861109
 20
6.1816209581163193
 30
0.0
 10
31.427194552951384
 20
21.95809122721354
 30
0.0
 10
31.427194552951384
 20
21.95809122721354
 30
0.0
 10
76.888330078124994
 20
-4.2876797146267354
 30
0.0
 10
76.888330078124994
 20
-4.2876797146267354
 30
0.0
 10
76.888330078124994
 20
-4.2876797146267354
 30
0.0
 10
31.744143337673609
 20
-30.347760009765622
 30
0.0
 10
31.744143337673609
 20
-30.347760009765622
 30
0.0
 10
31.744143337673609
 20
-30.347760009765622
 30
0.0
 10
32.683276367187496
 20
-31.942494710286457
 30
0.0
 10
32.683276367187496
 20
-31.942494710286457
 30
0.0
 10
32.683276367187496
 20
-31.942494710286457
 30
0.0
 10
77.807826063368054
 20
-5.8910271538628463
 30
0.0
 10
77.807826063368054
 20
-5.8910271538628463
 30
0.0
 10
77.807826063368054
 20
-5.8910271538628463
 30
0.0
 10
77.807826063368054
 20
-57.535420057508674
 30
0.0
 10
77.807826063368054
 20
-57.535420057508674
 30
0.0
  0
SPLINE
  5
8E
100
AcDbEntity
  8
LIVELLO_1
 62
     7
100
AcDbSpline
210
0.0
220
0.0
230
1.0
 70
     8
 71
     3
 72
    14
 73
    10
 74
     0
 42
0.00000001
 43
0.00000001
 40
0.0
 40
0.0
 40
0.0
 40
0.0
 40
1.0
 40
1.0
 40
1.0
 40
2.0
 40
2.0
 40
2.0
 40
3.0
 40
3.0
 40
3.0
 40
3.0
 10
125.49035915798611
 20
21.644243028428818
 30
0.0
 10
134.55233832465277
 20
4.9703253851996525
 30
0.0
 10
133.852294921875
 20
-14.501698811848957
 30
0.0
 10
125.19993760850693
 20
-30.044936116536455
 30
0.0
 10
125.19993760850693
 20
-30.044936116536455
 30
0.0
 10
80.599042426215277
 20
-4.2794114854600691
 30
0.0
 10
80.599042426215277
 20
-4.2794114854600691
 30
0.0
 10
80.599042426215277
 20
-4.2794114854600691
 30
0.0
 10
125.49035915798611
 20
21.644243028428818
 30
0.0
 10
125.49035915798611
 20
21.644243028428818
 30
0.0
  0
SPLINE
  5
8D
100
AcDbEntity
  8
LIVELLO_1
 62
     7
100
AcDbSpline
210
0.0
220
0.0
230
1.0
 70
     8
 71
     3
 72
    14
 73
    10
 74
     0
 42
0.00000001
 43
0.00000001
 40
0.0
 40
0.0
 40
0.0
 40
0.0
 40
1.0
 40
1.0
 40
1.0
 40
2.0
 40
2.0
 40
2.0
 40
3.0
 40
3.0
 40
3.0
 40
3.0
 10
79.65990939670138
 20
49.673884412977429
 30
0.0
 10
97.575783962673597
 20
49.226711018880202
 30
0.0
 10
114.84983723958332
 20
39.801963297526036
 30
0.0
 10
124.58016493055554
 20
23.253102620442707
 30
0.0
 10
124.58016493055554
 20
23.253102620442707
 30
0.0
 10
79.65990939670138
 20
-2.6736524793836804
 30
0.0
 10
79.65990939670138
 20
-2.6736524793836804
 30
0.0
 10
79.65990939670138
 20
-2.6736524793836804
 30
0.0
 10
79.65990939670138
 20
49.673884412977429
 30
0.0
 10
79.65990939670138
 20
49.673884412977429
 30
0.0
  0
SPLINE
  5
8C
100
AcDbEntity
  8
LIVELLO_1
 62
     7
100
AcDbSpline
210
0.0
220
0.0
230
1.0
 70
     8
 71
     3
 72
    17
 73
    13
 74
     0
 42
0.00000001
 43
0.00000001
 40
0.0
 40
0.0
 40
0.0
 40
0.0
 40
1.0
 40
1.0
 40
1.0
 40
2.0
 40
2.0
 40
2.0
 40
3.0
 40
3.0
 40
3.0
 40
4.0
 40
4.0
 40
4.0
 40
4.0
 10
51.57996961805555
 20
42.497061496310764
 30
0.0
 10
59.859912109374996
 20
47.276097954644094
 30
0.0
 10
68.884684244791657
 20
49.596025254991318
 30
0.0
 10
77.807826063368054
 20
49.684908718532981
 30
0.0
 10
77.807826063368054
 20
49.684908718532981
 30
0.0
 10
77.796801757812489
 20
-2.6791646321614579
 30
0.0
 10
77.796801757812489
 20
-2.6791646321614579
 30
0.0
 10
77.796801757812489
 20
-2.6791646321614579
 30
0.0
 10
32.34979112413194
 20
23.558682590060762
 30
0.0
 10
32.34979112413194
 20
23.558682590060762
 30
0.0
 10
36.878713650173609
 20
31.166142442491317
 30
0.0
 10
43.363761393229161
 20
37.754198540581591
 30
0.0
 10
51.57996961805555
 20
42.497061496310764
 30
0.0
  0
CIRCLE
  5
8B
100
AcDbEntity
  8
LIVELLO_1
 62
     7
100
AcDbCircle
 10
121.021726
 20
37.959698
 30
0.0
 40
1.307064
  0
CIRCLE
  5
8A
100
AcDbEntity
  8
LIVELLO_1
 62
     7
100
AcDbCircle
 10
121.034817
 20
-46.603443
 30
0.0
 40
1.307672
  0
CIRCLE
  5
89
100
AcDbEntity
  8
LIVELLO_1
 62
     7
100
AcDbCircle
 10
36.446699
 20
-46.640995
 30
0.0
 40
1.308646
  0
CIRCLE
  5
88
100
AcDbEntity
  8
LIVELLO_1
 62
     7
100
AcDbCircle
 10
36.405702
 20
38.008274
 30
0.0
 40
1.308038
  0
SPLINE
  5
87
100
AcDbEntity
  8
LIVELLO_1
 62
     7
100
AcDbSpline
210
0.0
220
0.0
230
1.0
 70
     8
 71
     3
 72
    77
 73
    73
 74
     0
 42
0.00000001
 43
0.00000001
 40
0.0
 40
0.0
 40
0.0
 40
0.0
 40
1.0
 40
1.0
 40
1.0
 40
2.0
 40
2.0
 40
2.0
 40
3.0
 40
3.0
 40
3.0
 40
4.0
 40
4.0
 40
4.0
 40
5.0
 40
5.0
 40
5.0
 40
6.0
 40
6.0
 40
6.0
 40
7.0
 40
7.0
 40
7.0
 40
8.0
 40
8.0
 40
8.0
 40
9.0
 40
9.0
 40
9.0
 40
10.0
 40
10.0
 40
10.0
 40
11.0
 40
11.0
 40
11.0
 40
12.0
 40
12.0
 40
12.0
 40
13.0
 40
13.0
 40
13.0
 40
14.0
 40
14.0
 40
14.0
 40
15.0
 40
15.0
 40
15.0
 40
16.0
 40
16.0
 40
16.0
 40
17.0
 40
17.0
 40
17.0
 40
18.0
 40
18.0
 40
18.0
 40
19.0
 40
19.0
 40
19.0
 40
20.0
 40
20.0
 40
20.0
 40
21.0
 40
21.0
 40
21.0
 40
22.0
 40
22.0
 40
22.0
 40
23.0
 40
23.0
 40
23.0
 40
24.0
 40
24.0
 40
24.0
 40
24.0
 10
17.034619140624997
 20
-4.22394544813368
 30
0.0
 10
17.027728949652776
 20
11.944232177734374
 30
0.0
 10
23.247504340277775
 20
26.659268527560762
 30
0.0
 10
33.430517578124999
 20
37.653946261935758
 30
0.0
 10
33.430517578124999
 20
37.653946261935758
 30
0.0
 10
34.523990885416666
 20
36.562195502387148
 30
0.0
 10
34.523990885416666
 20
36.562195502387148
 30
0.0
 10
35.450721571180551
 20
35.631330702039925
 30
0.0
 10
36.959328884548604
 20
35.631330702039925
 30
0.0
 10
37.888815646701389
 20
36.562195502387148
 30
0.0
 10
38.81692437065972
 20
37.493060302734371
 30
0.0
 10
38.81692437065972
 20
38.996155463324648
 30
0.0
 10
37.888815646701389
 20
39.927020263671871
 30
0.0
 10
37.888815646701389
 20
39.927020263671871
 30
0.0
 10
36.799476453993051
 20
41.021527099609372
 30
0.0
 10
36.799476453993051
 20
41.021527099609372
 30
0.0
 10
47.792776150173609
 20
51.193860541449645
 30
0.0
 10
62.506434461805547
 20
57.409501817491311
 30
0.0
 10
78.679090711805543
 20
57.400889078776039
 30
0.0
 10
94.850024414062489
 20
57.395376925998256
 30
0.0
 10
109.57195095486109
 20
51.163199191623256
 30
0.0
 10
120.57351888020833
 20
40.977085367838541
 30
0.0
 10
120.57351888020833
 20
40.977085367838541
 30
0.0
 10
119.52758789062499
 20
39.927020263671871
 30
0.0
 10
119.52758789062499
 20
39.927020263671871
 30
0.0
 10
118.59947916666665
 20
38.996155463324648
 30
0.0
 10
118.59947916666665
 20
37.493060302734371
 30
0.0
 10
119.52758789062499
 20
36.562195502387148
 30
0.0
 10
120.45707465277776
 20
35.634086778428816
 30
0.0
 10
121.96568196614582
 20
35.631330702039925
 30
0.0
 10
122.89241265190971
 20
36.562195502387148
 30
0.0
 10
122.89241265190971
 20
36.562195502387148
 30
0.0
 10
123.94247775607637
 20
37.612260606553818
 30
0.0
 10
123.94247775607637
 20
37.612260606553818
 30
0.0
 10
134.13996039496527
 20
26.609314643012151
 30
0.0
 10
140.37351616753472
 20
11.888766140407984
 30
0.0
 10
140.3790283203125
 20
-4.2876797146267354
 30
0.0
 10
140.38867458767359
 20
-20.458957926432291
 30
0.0
 10
134.1688991970486
 20
-35.173994276258675
 30
0.0
 10
123.98278537326388
 20
-46.165915934244786
 30
0.0
 10
123.98278537326388
 20
-46.165915934244786
 30
0.0
 10
122.89241265190971
 20
-45.076576741536456
 30
0.0
 10
122.89241265190971
 20
-45.076576741536456
 30
0.0
 10
121.96568196614582
 20
-44.145711941189234
 30
0.0
 10
120.45707465277776
 20
-44.145711941189234
 30
0.0
 10
119.52758789062499
 20
-45.076576741536456
 30
0.0
 10
118.59947916666665
 20
-46.007441541883679
 30
0.0
 10
118.59947916666665
 20
-47.510536702473956
 30
0.0
 10
119.52758789062499
 20
-48.441401502821179
 30
0.0
 10
119.52758789062499
 20
-48.441401502821179
 30
0.0
 10
120.61658257378471
 20
-49.530740695529509
 30
0.0
 10
120.61658257378471
 20
-49.530740695529509
 30
0.0
 10
109.62638346354166
 20
-59.708241780598954
 30
0.0
 10
94.906868489583331
 20
-65.923883056640619
 30
0.0
 10
78.738690863715277
 20
-65.912858751085068
 30
0.0
 10
62.566379123263886
 20
-65.907346598307285
 30
0.0
 10
47.84135199652777
 20
-59.677924940321176
 30
0.0
 10
36.839784071180553
 20
-49.491811116536454
 30
0.0
 10
36.839784071180553
 20
-49.491811116536454
 30
0.0
 10
37.888815646701389
 20
-48.441401502821179
 30
0.0
 10
37.888815646701389
 20
-48.441401502821179
 30
0.0
 10
38.81692437065972
 20
-47.510536702473956
 30
0.0
 10
38.81692437065972
 20
-46.007441541883679
 30
0.0
 10
37.888815646701389
 20
-45.076576741536456
 30
0.0
 10
36.959328884548604
 20
-44.145711941189234
 30
0.0
 10
35.450721571180551
 20
-44.145711941189234
 30
0.0
 10
34.523990885416666
 20
-45.076576741536456
 30
0.0
 10
34.523990885416666
 20
-45.076576741536456
 30
0.0
 10
33.473581271701384
 20
-46.126986355251731
 30
0.0
 10
33.473581271701384
 20
-46.126986355251731
 30
0.0
 10
23.27644314236111
 20
-35.121284315321176
 30
0.0
 10
17.042887369791664
 20
-20.400391303168401
 30
0.0
 10
17.034619140624997
 20
-4.22394544813368
 30
0.0
  0
CIRCLE
  5
86
100
AcDbEntity
  8
LIVELLO_1
 62
     7
100
AcDbCircle
 10
78.708202
 20
-4.257191
 30
0.0
 40
61.67359
  0
POLYLINE
  5
80
100
AcDbEntity
  8
LIVELLO_1
 62
     7
100
AcDb2dPolyline
 66
     1
 10
0.0
 20
0.0
 30
0.0
 70
     1
  0
VERTEX
  5
81
100
AcDbEntity
  8
LIVELLO_1
 62
     7
100
AcDbVertex
100
AcDb2dVertex
 10
-104.437208
 20
57.306493
 30
0.0
  0
VERTEX
  5
82
100
AcDbEntity
  8
LIVELLO_1
 62
     7
100
AcDbVertex
100
AcDb2dVertex
 10
-89.016272
 20
57.306493
 30
0.0
  0
VERTEX
  5
83
100
AcDbEntity
  8
LIVELLO_1
 62
     7
100
AcDbVertex
100
AcDb2dVertex
 10
-89.016272
 20
-66.01001
 30
0.0
  0
VERTEX
  5
84
100
AcDbEntity
  8
LIVELLO_1
 62
     7
100
AcDbVertex
100
AcDb2dVertex
 10
-104.437208
 20
-66.01001
 30
0.0
  0
SEQEND
  5
85
100
AcDbEntity
  8
LIVELLO_1
 62
     7
  0
SPLINE
  5
7F
100
AcDbEntity
  8
LIVELLO_1
 62
     7
100
AcDbSpline
210
0.0
220
0.0
230
1.0
 70
     8
 71
     3
 72
    17
 73
    13
 74
     0
 42
0.00000001
 43
0.00000001
 40
0.0
 40
0.0
 40
0.0
 40
0.0
 40
1.0
 40
1.0
 40
1.0
 40
2.0
 40
2.0
 40
2.0
 40
3.0
 40
3.0
 40
3.0
 40
4.0
 40
4.0
 40
4.0
 40
4.0
 10
-86.687904188368051
 20
57.326130506727424
 30
0.0
 10
-86.687904188368051
 20
57.326130506727424
 30
0.0
 10
-72.42296956380207
 20
59.854486083984369
 30
0.0
 10
-63.869314236111109
 20
51.793996175130204
 30
0.0
 10
-55.803139919704854
 20
44.186191813151041
 30
0.0
 10
-51.19360215928819
 20
27.362412516276038
 30
0.0
 10
-50.964331054687499
 20
-4.2156772189670138
 30
0.0
 10
-51.19360215928819
 20
-35.790666368272568
 30
0.0
 10
-55.803139919704854
 20
-52.614790174696175
 30
0.0
 10
-63.869314236111109
 20
-60.222250027126734
 30
0.0
 10
-72.42296956380207
 20
-68.282739935980899
 30
0.0
 10
-86.687904188368051
 20
-65.754384358723954
 30
0.0
 10
-86.687904188368051
 20
-65.754384358723954
 30
0.0
  0
SPLINE
  5
7E
100
AcDbEntity
  8
LIVELLO_1
 62
     7
100
AcDbSpline
210
0.0
220
0.0
230
1.0
 70
     8
 71
     3
 72
    11
 73
     7
 74
     0
 42
0.00000001
 43
0.00000001
 40
0.0
 40
0.0
 40
0.0
 40
0.0
 40
1.0
 40
1.0
 40
1.0
 40
2.0
 40
2.0
 40
2.0
 40
2.0
 10
-82.075610351562489
 20
49.260128445095482
 30
0.0
 10
-82.075610351562489
 20
49.260128445095482
 30
0.0
 10
-70.455820041232627
 20
49.307326253255205
 30
0.0
 10
-64.330440266927084
 20
41.652324083116312
 30
0.0
 10
-60.034922960069437
 20
36.284176296657982
 30
0.0
 10
-56.758981662326384
 20
26.314758978949651
 30
0.0
 10
-55.05021430121527
 20
14.544934760199652
 30
0.0
  0
LINE
  5
7D
100
AcDbEntity
  8
LIVELLO_1
 62
     7
100
AcDbLine
 10
-53.72902
 20
-4.215677
 30
0.0
 11
-50.964331
 21
-4.215677
 31
0.0
  0
SPLINE
  5
7C
100
AcDbEntity
  8
LIVELLO_1
 62
     7
100
AcDbSpline
210
0.0
220
0.0
230
1.0
 70
     8
 71
     3
 72
    14
 73
    10
 74
     0
 42
0.00000001
 43
0.00000001
 40
0.0
 40
0.0
 40
0.0
 40
0.0
 40
1.0
 40
1.0
 40
1.0
 40
2.0
 40
2.0
 40
2.0
 40
3.0
 40
3.0
 40
3.0
 40
3.0
 10
-86.687904188368051
 20
-37.405038113064229
 30
0.0
 10
-86.687904188368051
 20
-37.405038113064229
 30
0.0
 10
-71.241990831163193
 20
-37.410550265842012
 30
0.0
 10
-64.561089409722214
 20
-33.026321750217008
 30
0.0
 10
-57.186862521701386
 20
-28.183206515842013
 30
0.0
 10
-51.19360215928819
 20
-20.350437418619791
 30
0.0
 10
-50.964331054687499
 20
-5.8300489637586796
 30
0.0
 10
-50.964331054687499
 20
-5.8300489637586796
 30
0.0
 10
-50.964331054687499
 20
-4.2156772189670138
 30
0.0
 10
-50.964331054687499
 20
-4.2156772189670138
 30
0.0
  0
SPLINE
  5
7B
100
AcDbEntity
  8
LIVELLO_1
 62
     7
100
AcDbSpline
210
0.0
220
0.0
230
1.0
 70
     8
 71
     3
 72
    11
 73
     7
 74
     0
 42
0.00000001
 43
0.00000001
 40
0.0
 40
0.0
 40
0.0
 40
0.0
 40
1.0
 40
1.0
 40
1.0
 40
2.0
 40
2.0
 40
2.0
 40
2.0
 10
-82.075610351562489
 20
-29.800334337022566
 30
0.0
 10
-82.075610351562489
 20
-29.800334337022566
 30
0.0
 10
-71.241990831163193
 20
-29.805846489800345
 30
0.0
 10
-64.561089409722214
 20
-25.418517388237845
 30
0.0
 10
-57.186862521701386
 20
-20.578502739800346
 30
0.0
 10
-53.729020182291663
 20
-13.437508816189235
 30
0.0
 10
-53.729020182291663
 20
-4.2156772189670138
 30
0.0
  0
LINE
  5
7A
100
AcDbEntity
  8
LIVELLO_1
 62
     7
100
AcDbLine
 10
-86.687904
 20
-35.790666
 30
0.0
 11
-82.07561
 21
-29.566757
 31
0.0
  0
SPLINE
  5
79
100
AcDbEntity
  8
LIVELLO_1
 62
     7
100
AcDbSpline
210
0.0
220
0.0
230
1.0
 70
     8
 71
     3
 72
    11
 73
     7
 74
     0
 42
0.00000001
 43
0.00000001
 40
0.0
 40
0.0
 40
0.0
 40
0.0
 40
1.0
 40
1.0
 40
1.0
 40
2.0
 40
2.0
 40
2.0
 40
2.0
 10
-86.687904188368051
 20
-35.790666368272568
 30
0.0
 10
-86.687904188368051
 20
-35.790666368272568
 30
0.0
 10
-71.241990831163193
 20
-35.796523030598955
 30
0.0
 10
-64.561089409722214
 20
-31.411950005425343
 30
0.0
 10
-57.186862521701386
 20
-26.571590847439232
 30
0.0
 10
-51.19360215928819
 20
-18.736065673828122
 30
0.0
 10
-50.964331054687499
 20
-4.2156772189670138
 30
0.0
  0
SPLINE
  5
78
100
AcDbEntity
  8
LIVELLO_1
 62
     7
100
AcDbSpline
210
0.0
220
0.0
230
1.0
 70
     8
 71
     3
 72
    14
 73
    10
 74
     0
 42
0.00000001
 43
0.00000001
 40
0.0
 40
0.0
 40
0.0
 40
0.0
 40
1.0
 40
1.0
 40
1.0
 40
2.0
 40
2.0
 40
2.0
 40
3.0
 40
3.0
 40
3.0
 40
3.0
 10
-86.687904188368051
 20
28.976784261067706
 30
0.0
 10
-86.687904188368051
 20
28.976784261067706
 30
0.0
 10
-71.241990831163193
 20
28.979540337456594
 30
0.0
 10
-64.561089409722214
 20
24.597723388671874
 30
0.0
 10
-57.186862521701386
 20
19.754608154296871
 30
0.0
 10
-51.19360215928819
 20
11.919427490234375
 30
0.0
 10
-50.964331054687499
 20
-2.601305474175347
 30
0.0
 10
-50.964331054687499
 20
-2.601305474175347
 30
0.0
 10
-50.964331054687499
 20
-4.2156772189670138
 30
0.0
 10
-50.964331054687499
 20
-4.2156772189670138
 30
0.0
  0
SPLINE
  5
77
100
AcDbEntity
  8
LIVELLO_1
 62
     7
100
AcDbSpline
210
0.0
220
0.0
230
1.0
 70
     8
 71
     3
 72
    11
 73
     7
 74
     0
 42
0.00000001
 43
0.00000001
 40
0.0
 40
0.0
 40
0.0
 40
0.0
 40
1.0
 40
1.0
 40
1.0
 40
2.0
 40
2.0
 40
2.0
 40
2.0
 10
-82.075610351562489
 20
21.36897989908854
 30
0.0
 10
-82.075610351562489
 20
21.36897989908854
 30
0.0
 10
-71.241990831163193
 20
21.374492051866316
 30
0.0
 10
-64.561089409722214
 20
16.990263536241319
 30
0.0
 10
-57.186862521701386
 20
12.149904378255208
 30
0.0
 10
-53.729020182291663
 20
5.0064988878038186
 30
0.0
 10
-53.729020182291663
 20
-4.2156772189670138
 30
0.0
  0
LINE
  5
76
100
AcDbEntity
  8
LIVELLO_1
 62
     7
100
AcDbLine
 10
-86.687904
 20
27.362413
 30
0.0
 11
-82.07561
 21
21.138503
 31
0.0
  0
SPLINE
  5
75
100
AcDbEntity
  8
LIVELLO_1
 62
     7
100
AcDbSpline
210
0.0
220
0.0
230
1.0
 70
     8
 71
     3
 72
    11
 73
     7
 74
     0
 42
0.00000001
 43
0.00000001
 40
0.0
 40
0.0
 40
0.0
 40
0.0
 40
1.0
 40
1.0
 40
1.0
 40
2.0
 40
2.0
 40
2.0
 40
2.0
 10
-86.687904188368051
 20
27.362412516276038
 30
0.0
 10
-86.687904188368051
 20
27.362412516276038
 30
0.0
 10
-71.241990831163193
 20
27.367924669053817
 30
0.0
 10
-64.561089409722214
 20
22.980595567491317
 30
0.0
 10
-57.186862521701386
 20
18.143336995442706
 30
0.0
 10
-51.19360215928819
 20
10.305055745442708
 30
0.0
 10
-50.964331054687499
 20
-4.2156772189670138
 30
0.0
  0
SPLINE
  5
74
100
AcDbEntity
  8
LIVELLO_1
 62
     7
100
AcDbSpline
210
0.0
220
0.0
230
1.0
 70
     8
 71
     3
 72
    11
 73
     7
 74
     0
 42
0.00000001
 43
0.00000001
 40
0.0
 40
0.0
 40
0.0
 40
0.0
 40
1.0
 40
1.0
 40
1.0
 40
2.0
 40
2.0
 40
2.0
 40
2.0
 10
-55.089143880208326
 20
-23.240183512369789
 30
0.0
 10
-56.810313585069437
 20
-34.895975070529509
 30
0.0
 10
-60.06541205512152
 20
-44.751704237196179
 30
0.0
 10
-64.330440266927084
 20
-50.083678521050345
 30
0.0
 10
-70.455820041232627
 20
-57.738336181640619
 30
0.0
 10
-82.075610351562489
 20
-57.688382297092012
 30
0.0
 10
-82.075610351562489
 20
-57.688382297092012
 30
0.0
  0
SPLINE
  5
73
100
AcDbEntity
  8
LIVELLO_1
 62
     7
100
AcDbSpline
210
0.0
220
0.0
230
1.0
 70
     8
 71
     3
 72
    11
 73
     7
 74
     0
 42
0.00000001
 43
0.00000001
 40
0.0
 40
0.0
 40
0.0
 40
0.0
 40
1.0
 40
1.0
 40
1.0
 40
2.0
 40
2.0
 40
2.0
 40
2.0
 10
-82.075610351562489
 20
49.260128445095482
 30
0.0
 10
-82.075610351562489
 20
49.260128445095482
 30
0.0
 10
-70.455820041232627
 20
49.307326253255205
 30
0.0
 10
-64.330440266927084
 20
41.652324083116312
 30
0.0
 10
-60.10296359592013
 20
36.367547607421869
 30
0.0
 10
-56.864573838975687
 20
26.637219916449649
 30
0.0
 10
-55.134963650173603
 20
15.11199747721354
 30
0.0
  0
LINE
  5
72
100
AcDbEntity
  8
LIVELLO_1
 62
     7
100
AcDbLine
 10
-82.07561
 20
-37.260689
 30
0.0
 11
-82.07561
 21
-41.092324
 31
0.0
  0
LINE
  5
71
100
AcDbEntity
  8
LIVELLO_1
 62
     7
100
AcDbLine
 10
-82.07561
 20
-5.365995
 30
0.0
 11
-82.07561
 21
-29.941928
 31
0.0
  0
LINE
  5
70
100
AcDbEntity
  8
LIVELLO_1
 62
     7
100
AcDbLine
 10
-82.07561
 20
-37.096702
 30
0.0
 11
-82.07561
 21
-57.688382
 31
0.0
  0
LINE
  5
6F
100
AcDbEntity
  8
LIVELLO_1
 62
     7
100
AcDbLine
 10
-82.07561
 20
21.118866
 30
0.0
 11
-82.07561
 21
-29.780697
 31
0.0
  0
LINE
  5
6E
100
AcDbEntity
  8
LIVELLO_1
 62
     7
100
AcDbLine
 10
-82.07561
 20
49.260128
 30
0.0
 11
-82.07561
 21
29.087716
 31
0.0
  0
POLYLINE
  5
66
100
AcDbEntity
  8
LIVELLO_1
 62
     7
100
AcDb2dPolyline
 66
     1
 10
0.0
 20
0.0
 30
0.0
  0
VERTEX
  5
67
100
AcDbEntity
  8
LIVELLO_1
 62
     7
100
AcDbVertex
100
AcDb2dVertex
 10
-82.07561
 20
-48.697028
 30
0.0
  0
VERTEX
  5
68
100
AcDbEntity
  8
LIVELLO_1
 62
     7
100
AcDbVertex
100
AcDb2dVertex
 10
-82.07561
 20
-57.916103
 30
0.0
  0
VERTEX
  5
69
100
AcDbEntity
  8
LIVELLO_1
 62
     7
100
AcDbVertex
100
AcDb2dVertex
 10
-86.687904
 20
-65.754384
 30
0.0
  0
VERTEX
  5
6A
100
AcDbEntity
  8
LIVELLO_1
 62
     7
100
AcDbVertex
100
AcDb2dVertex
 10
-86.687904
 20
57.326131
 30
0.0
  0
VERTEX
  5
6B
100
AcDbEntity
  8
LIVELLO_1
 62
     7
100
AcDbVertex
100
AcDb2dVertex
 10
-82.07561
 20
49.260128
 30
0.0
  0
VERTEX
  5
6C
100
AcDbEntity
  8
LIVELLO_1
 62
     7
100
AcDbVertex
100
AcDb2dVertex
 10
-82.07561
 20
40.037952
 30
0.0
  0
SEQEND
  5
6D
100
AcDbEntity
  8
LIVELLO_1
 62
     7
  0
POLYLINE
  5
60
100
AcDbEntity
  8
LIVELLO_1
 62
     7
100
AcDb2dPolyline
 66
     1
 10
0.0
 20
0.0
 30
0.0
 70
     1
  0
VERTEX
  5
61
100
AcDbEntity
  8
LIVELLO_1
 62
     7
100
AcDbVertex
100
AcDb2dVertex
 10
-89.013516
 20
57.303737
 30
0.0
  0
VERTEX
  5
62
100
AcDbEntity
  8
LIVELLO_1
 62
     7
100
AcDbVertex
100
AcDb2dVertex
 10
-86.708747
 20
57.303737
 30
0.0
  0
VERTEX
  5
63
100
AcDbEntity
  8
LIVELLO_1
 62
     7
100
AcDbVertex
100
AcDb2dVertex
 10
-86.703235
 20
-65.771265
 30
0.0
  0
VERTEX
  5
64
100
AcDbEntity
  8
LIVELLO_1
 62
     7
100
AcDbVertex
100
AcDb2dVertex
 10
-89.009382
 20
-65.771265
 30
0.0
  0
SEQEND
  5
65
100
AcDbEntity
  8
LIVELLO_1
 62
     7
  0
POLYLINE
  5
4B
100
AcDbEntity
  8
LIVELLO_1
 62
     7
100
AcDb2dPolyline
 66
     1
 10
0.0
 20
0.0
 30
0.0
 70
     1
  0
VERTEX
  5
4C
100
AcDbEntity
  8
LIVELLO_1
 62
     7
100
AcDbVertex
100
AcDb2dVertex
 10
76.871449
 20
-4.282168
 30
0.0
  0
VERTEX
  5
4D
100
AcDbEntity
  8
LIVELLO_1
 62
     7
100
AcDbVertex
100
AcDb2dVertex
 10
24.846373
 20
25.756309
 30
0.0
  0
VERTEX
  5
4E
100
AcDbEntity
  8
LIVELLO_1
 62
     7
100
AcDbVertex
100
AcDb2dVertex
 10
25.76897
 20
27.3569
 30
0.0
  0
VERTEX
  5
4F
100
AcDbEntity
  8
LIVELLO_1
 62
     7
100
AcDbVertex
100
AcDb2dVertex
 10
77.796802
 20
-2.679165
 30
0.0
  0
VERTEX
  5
50
100
AcDbEntity
  8
LIVELLO_1
 62
     7
100
AcDbVertex
100
AcDb2dVertex
 10
77.807826
 20
57.400889
 30
0.0
  0
VERTEX
  5
51
100
AcDbEntity
  8
LIVELLO_1
 62
     7
100
AcDbVertex
100
AcDb2dVertex
 10
79.659909
 20
57.400889
 30
0.0
  0
VERTEX
  5
52
100
AcDbEntity
  8
LIVELLO_1
 62
     7
100
AcDbVertex
100
AcDb2dVertex
 10
79.659909
 20
-2.673652
 30
0.0
  0
VERTEX
  5
53
100
AcDbEntity
  8
LIVELLO_1
 62
     7
100
AcDbVertex
100
AcDb2dVertex
 10
131.69601
 20
27.3569
 30
0.0
  0
VERTEX
  5
54
100
AcDbEntity
  8
LIVELLO_1
 62
     7
100
AcDbVertex
100
AcDb2dVertex
 10
132.621362
 20
25.759065
 30
0.0
  0
VERTEX
  5
55
100
AcDbEntity
  8
LIVELLO_1
 62
     7
100
AcDbVertex
100
AcDb2dVertex
 10
80.599042
 20
-4.279411
 30
0.0
  0
VERTEX
  5
56
100
AcDbEntity
  8
LIVELLO_1
 62
     7
100
AcDbVertex
100
AcDb2dVertex
 10
132.621362
 20
-34.332013
 30
0.0
  0
VERTEX
  5
57
100
AcDbEntity
  8
LIVELLO_1
 62
     7
100
AcDbVertex
100
AcDb2dVertex
 10
131.698766
 20
-35.93536
 30
0.0
  0
VERTEX
  5
58
100
AcDbEntity
  8
LIVELLO_1
 62
     7
100
AcDbVertex
100
AcDb2dVertex
 10
79.659909
 20
-5.877247
 30
0.0
  0
VERTEX
  5
59
100
AcDbEntity
  8
LIVELLO_1
 62
     7
100
AcDbVertex
100
AcDb2dVertex
 10
79.659909
 20
-65.976593
 30
0.0
  0
VERTEX
  5
5A
100
AcDbEntity
  8
LIVELLO_1
 62
     7
100
AcDbVertex
100
AcDb2dVertex
 10
77.807826
 20
-65.976593
 30
0.0
  0
VERTEX
  5
5B
100
AcDbEntity
  8
LIVELLO_1
 62
     7
100
AcDbVertex
100
AcDb2dVertex
 10
77.807826
 20
-5.891027
 30
0.0
  0
VERTEX
  5
5C
100
AcDbEntity
  8
LIVELLO_1
 62
     7
100
AcDbVertex
100
AcDb2dVertex
 10
25.76897
 20
-35.93536
 30
0.0
  0
VERTEX
  5
5D
100
AcDbEntity
  8
LIVELLO_1
 62
     7
100
AcDbVertex
100
AcDb2dVertex
 10
24.846373
 20
-34.332013
 30
0.0
  0
VERTEX
  5
5E
100
AcDbEntity
  8
LIVELLO_1
 62
     7
100
AcDbVertex
100
AcDb2dVertex
 10
76.88833
 20
-4.28768
 30
0.0
  0
SEQEND
  5
5F
100
AcDbEntity
  8
LIVELLO_1
 62
     7
  0
POLYLINE
  5
36
100
AcDbEntity
  8
LIVELLO_1
 62
     7
100
AcDb2dPolyline
 66
     1
 10
0.0
 20
0.0
 30
0.0
 70
     1
  0
VERTEX
  5
37
100
AcDbEntity
  8
LIVELLO_1
 62
     7
100
AcDbVertex
100
AcDb2dVertex
 10
76.871449
 20
-4.282168
 30
0.0
  0
VERTEX
  5
38
100
AcDbEntity
  8
LIVELLO_1
 62
     7
100
AcDbVertex
100
AcDb2dVertex
 10
24.846373
 20
25.756309
 30
0.0
  0
VERTEX
  5
39
100
AcDbEntity
  8
LIVELLO_1
 62
     7
100
AcDbVertex
100
AcDb2dVertex
 10
25.76897
 20
27.3569
 30
0.0
  0
VERTEX
  5
3A
100
AcDbEntity
  8
LIVELLO_1
 62
     7
100
AcDbVertex
100
AcDb2dVertex
 10
77.796802
 20
-2.679165
 30
0.0
  0
VERTEX
  5
3B
100
AcDbEntity
  8
LIVELLO_1
 62
     7
100
AcDbVertex
100
AcDb2dVertex
 10
77.807826
 20
57.400889
 30
0.0
  0
VERTEX
  5
3C
100
AcDbEntity
  8
LIVELLO_1
 62
     7
100
AcDbVertex
100
AcDb2dVertex
 10
79.659909
 20
57.400889
 30
0.0
  0
VERTEX
  5
3D
100
AcDbEntity
  8
LIVELLO_1
 62
     7
100
AcDbVertex
100
AcDb2dVertex
 10
79.659909
 20
-2.673652
 30
0.0
  0
VERTEX
  5
3E
100
AcDbEntity
  8
LIVELLO_1
 62
     7
100
AcDbVertex
100
AcDb2dVertex
 10
131.69601
 20
27.3569
 30
0.0
  0
VERTEX
  5
3F
100
AcDbEntity
  8
LIVELLO_1
 62
     7
100
AcDbVertex
100
AcDb2dVertex
 10
132.621362
 20
25.759065
 30
0.0
  0
VERTEX
  5
40
100
AcDbEntity
  8
LIVELLO_1
 62
     7
100
AcDbVertex
100
AcDb2dVertex
 10
80.599042
 20
-4.279411
 30
0.0
  0
VERTEX
  5
41
100
AcDbEntity
  8
LIVELLO_1
 62
     7
100
AcDbVertex
100
AcDb2dVertex
 10
132.621362
 20
-34.332013
 30
0.0
  0
VERTEX
  5
42
100
AcDbEntity
  8
LIVELLO_1
 62
     7
100
AcDbVertex
100
AcDb2dVertex
 10
131.698766
 20
-35.93536
 30
0.0
  0
VERTEX
  5
43
100
AcDbEntity
  8
LIVELLO_1
 62
     7
100
AcDbVertex
100
AcDb2dVertex
 10
79.659909
 20
-5.877247
 30
0.0
  0
VERTEX
  5
44
100
AcDbEntity
  8
LIVELLO_1
 62
     7
100
AcDbVertex
100
AcDb2dVertex
 10
79.659909
 20
-65.976593
 30
0.0
  0
VERTEX
  5
45
100
AcDbEntity
  8
LIVELLO_1
 62
     7
100
AcDbVertex
100
AcDb2dVertex
 10
77.807826
 20
-65.976593
 30
0.0
  0
VERTEX
  5
46
100
AcDbEntity
  8
LIVELLO_1
 62
     7
100
AcDbVertex
100
AcDb2dVertex
 10
77.807826
 20
-5.891027
 30
0.0
  0
VERTEX
  5
47
100
AcDbEntity
  8
LIVELLO_1
 62
     7
100
AcDbVertex
100
AcDb2dVertex
 10
25.76897
 20
-35.93536
 30
0.0
  0
VERTEX
  5
48
100
AcDbEntity
  8
LIVELLO_1
 62
     7
100
AcDbVertex
100
AcDb2dVertex
 10
24.846373
 20
-34.332013
 30
0.0
  0
VERTEX
  5
49
100
AcDbEntity
  8
LIVELLO_1
 62
     7
100
AcDbVertex
100
AcDb2dVertex
 10
76.88833
 20
-4.28768
 30
0.0
  0
SEQEND
  5
4A
100
AcDbEntity
  8
LIVELLO_1
 62
     7
  0
LINE
  5
35
100
AcDbEntity
  8
LIVELLO_1
 62
     7
100
AcDbLine
 10
-53.510946
 20
72.141075
 30
0.0
 11
-53.510946
 21
86.656123
 31
0.0
  0
LINE
  5
34
100
AcDbEntity
  8
LIVELLO_1
 62
     7
100
AcDbLine
 10
-104.437208
 20
72.135562
 30
0.0
 11
-104.437208
 21
86.650611
 31
0.0
  0
MTEXT
  5
33
100
AcDbEntity
  8
LIVELLO_1
 62
     7
100
AcDbMText
 10
-91.33551
 20
87.144265
 30
0.0
 40
11.43166
 41
0.0
 71
     1
 72
     2
  1
\fCourier|b0|i0;\H11.4317;\C7;\U+0031\U+0032\U+0030
  7
STD
210
0.0
220
0.0
230
1.0
 73
     1
 44
1.0
  0
LINE
  5
32
100
AcDbEntity
  8
LIVELLO_1
 62
     7
100
AcDbLine
 10
-53.709555
 20
79.834834
 30
0.0
 11
-63.312242
 21
79.834834
 31
0.0
  0
LINE
  5
31
100
AcDbEntity
  8
LIVELLO_1
 62
     7
100
AcDbLine
 10
-92.97572
 20
79.834834
 30
0.0
 11
-103.932846
 21
79.834834
 31
0.0
  0
MTEXT
  5
30
100
AcDbEntity
  8
LIVELLO_1
 62
     7
100
AcDbMText
 10
-36.340073
 20
5.411097
 30
0.0
 40
11.43166
 41
0.0
 71
     1
 72
     2
  1
\fCourier|b0|i0;\H11.4317;\C7;\U+00F8\U+0020\U+0032\U+0037\U+0030
  7
STD
210
0.0
220
0.0
230
1.0
 73
     1
 44
1.0
  0
LINE
  5
2F
100
AcDbEntity
  8
LIVELLO_1
 62
     7
100
AcDbLine
 10
-20.72156
 20
-64.943064
 30
0.0
 11
-6.20634
 21
-64.943064
 31
0.0
  0
LINE
  5
2E
100
AcDbEntity
  8
LIVELLO_1
 62
     7
100
AcDbLine
 10
-13.466878
 20
-14.437965
 30
0.0
 11
-13.466878
 21
-64.943064
 31
0.0
  0
LINE
  5
2D
100
AcDbEntity
  8
LIVELLO_1
 62
     7
100
AcDbLine
 10
-13.464122
 20
58.451299
 30
0.0
 11
-13.464122
 21
9.75763
 31
0.0
  0
LINE
  5
2C
100
AcDbEntity
  8
LIVELLO_1
 62
     7
100
AcDbLine
 10
-20.72156
 20
58.451299
 30
0.0
 11
-6.20634
 21
58.451299
 31
0.0
  0
ENDBLK
  5
9E
100
AcDbEntity
  8
LIVELLO_1
100
AcDbBlockEnd
  0
BLOCK
  5
94
100
AcDbEntity
  8
LIVELLO_1
 62
     7
100
AcDbBlockBegin
  2
AI9-BLK2
 70
     0
 10
0.0
 20
0.0
 30
0.0
  3
AI9-BLK2
  1

  0
INSERT
  5
96
100
AcDbEntity
  8
LIVELLO_1
 62
     7
100
AcDbBlockReference
  2
AI9-BLK3
 10
0.0
 20
-0.089831
 30
0.0
  0
ENDBLK
  5
9D
100
AcDbEntity
  8
LIVELLO_1
100
AcDbBlockEnd
  0
BLOCK
  5
97
100
AcDbEntity
  8
LIVELLO_1
 62
     7
100
AcDbBlockBegin
  2
AI9-BLK3
 70
     0
 10
0.0
 20
0.0
 30
0.0
  3
AI9-BLK3
  1

  0
INSERT
  5
99
100
AcDbEntity
  8
LIVELLO_1
 62
     7
100
AcDbBlockReference
  2
AI9-BLK4
 10
0.0
 20
0.000947
 30
0.0
  0
ENDBLK
  5
9C
100
AcDbEntity
  8
LIVELLO_1
100
AcDbBlockEnd
  0
BLOCK
  5
9A
100
AcDbEntity
  8
LIVELLO_1
 62
     7
100
AcDbBlockBegin
  2
AI9-BLK4
 70
     0
 10
0.0
 20
0.0
 30
0.0
  3
AI9-BLK4
  1

  0
ENDBLK
  5
9B
100
AcDbEntity
  8
LIVELLO_1
100
AcDbBlockEnd
  0
ENDSEC
  0
SECTION
  2
ENTITIES
  0
INSERT
  5
2A
100
AcDbEntity
  8
LIVELLO_1
 62
     7
100
AcDbBlockReference
  2
AI9-BLK1
 10
140.744897
 20
87.788182
 30
0.0
  0
ENDSEC
  0
SECTION
  2
OBJECTS
  0
DICTIONARY
  5
19
100
AcDbDictionary
280
     0
281
     1
  3
ACAD_GROUP
350
1A
  3
ACAD_MLINESTYLE
350
1B
  3
ACAD_LAYOUT
350
1E
  3
ACAD_PLOTSETTINGS
350
22
  3
ACAD_PLOTSTYLENAME
350
1F
  3
ACAD_WIPEOUT_VARS
350
23
  0
DICTIONARY
  5
1A
102
{ACAD_REACTORS
330
19
102
}
100
AcDbDictionary
280
     0
281
     1
  0
DICTIONARY
  5
1B
102
{ACAD_REACTORS
330
19
102
}
100
AcDbDictionary
280
     0
281
     1
  3
Standard
350
1C
  0
MLINESTYLE
  5
1C
102
{ACAD_REACTORS
330
1B
102
}
100
AcDbMlineStyle
  2
Standard
 70
     0
  3

 62
     0
 51
90.0
 52
90.0
 71
     2
 49
0.5
 62
   256
  6
ByLayer
 49
-0.5
 62
   256
  6
ByLayer
  0
ACDBDICTIONARYWDFLT
  5
1F
102
{ACAD_REACTORS
330
19
102
}
100
AcDbDictionary
281
     1
  3
Normal
350
1D
100
AcDbDictionaryWithDefault
340
1D
  0
ACDBPLACEHOLDER
  5
1D
102
{ACAD_REACTORS
330
1F
102
}
  0
LAYOUT
  5
20
102
{ACAD_REACTORS
330
1E
102
}
100
AcDbPlotSettings
  1

  2

  4

  6

 40
0.0
 41
0.0
 42
0.0
 43
0.0
 44
0.0
 45
0.0
 46
0.0
 47
0.0
 48
0.0
 49
0.0
140
0.0
141
0.0
142
1.0
143
1.0
 70
  1024
 72
     0
 73
     0
 74
     0
  7

 75
     0
147
1.0
148
0.0
149
0.0
100
AcDbLayout
  1
Model
 70
     0
 71
     0
 10
0.0
 20
0.0
 11
0.0
 21
0.0
 12
0.0
 22
0.0
 32
0.0
 14
0.0
 24
0.0
 34
0.0
 15
0.0
 25
0.0
 35
0.0
146
0.0
 13
0.0
 23
0.0
 33
0.0
 16
0.0
 26
0.0
 36
0.0
 17
0.0
 27
0.0
 37
0.0
 76
     0
330
A
331
0
345
0
346
0
  0
LAYOUT
  5
21
102
{ACAD_REACTORS
330
1E
102
}
100
AcDbPlotSettings
  1

  2

  4

  6

 40
0.0
 41
0.0
 42
0.0
 43
0.0
 44
0.0
 45
0.0
 46
0.0
 47
0.0
 48
0.0
 49
0.0
140
0.0
141
0.0
142
1.0
143
1.0
 70
     0
 72
     0
 73
     0
 74
     0
  7

 75
     0
147
1.0
148
0.0
149
0.0
100
AcDbLayout
  1
Layout1
 70
     0
 71
     0
 10
0.0
 20
0.0
 11
0.0
 21
0.0
 12
0.0
 22
0.0
 32
0.0
 14
0.0
 24
0.0
 34
0.0
 15
0.0
 25
0.0
 35
0.0
146
0.0
 13
0.0
 23
0.0
 33
0.0
 16
0.0
 26
0.0
 36
0.0
 17
0.0
 27
0.0
 37
0.0
 76
     0
330
B
331
0
345
0
346
0
  0
DICTIONARY
  5
1E
102
{ACAD_REACTORS
330
19
102
}
100
AcDbDictionary
280
     0
281
     1
  3
Layout1
350
21
  3
Model
350
20
  0
DICTIONARY
  5
22
102
{ACAD_REACTORS
330
19
102
}
100
AcDbDictionary
280
     0
281
     1
  0
WIPEOUTVARIABLES
  5
23
100
AcDbWipeoutVariables
 70
     1
  0
ENDSEC
  0
EOF
