  0
SECTION
  2
HEADER
  9
$ACADVER
  1
AC1015
  9
$ACADMAINTVER
 70
     6
  9
$DWGCODEPAGE
  3
ANSI_932
  9
$INSBASE
 10
0.0
 20
0.0
 30
0.0
  9
$EXTMIN
 10
0.0
 20
0.0
 30
1.000000E+20
  9
$EXTMAX
 10
153.527235
 20
285.272165
 30
-1.000000E+20
  9
$LIMMIN
 10
0.0
 20
0.0
  9
$LIMMAX
 10
153.527235
 20
285.272165
  9
$ORTHOMODE
 70
     0
  9
$REGENMODE
 70
     1
  9
$FILLMODE
 70
     1
  9
$QTEXTMODE
 70
     0
  9
$MIRRTEXT
 70
     1
  9
$LTSCALE
 40
1.0
  9
$ATTMODE
 70
     1
  9
$TEXTSIZE
 40
0.2
  9
$TRACEWID
 40
0.05
  9
$TEXTSTYLE
  7
Standard
  9
$CLAYER
  8
0
  9
$CELTYPE
  6
Continuous
  9
$CECOLOR
 62
   256
  9
$CELTSCALE
 40
1.0
  9
$DISPSILH
 70
     0
  9
$DIMSCALE
 40
1.0
  9
$DIMASZ
 40
0.18
  9
$DIMEXO
 40
0.0625
  9
$DIMDLI
 40
0.38
  9
$DIMRND
 40
0.0
  9
$DIMDLE
 40
0.0
  9
$DIMEXE
 40
0.18
  9
$DIMTP
 40
0.0
  9
$DIMTM
 40
0.0
  9
$DIMTXT
 40
0.18
  9
$DIMCEN
 40
0.09
  9
$DIMTSZ
 40
0.0
  9
$DIMTOL
 70
     0
  9
$DIMLIM
 70
     0
  9
$DIMTIH
 70
     1
  9
$DIMTOH
 70
     1
  9
$DIMSE1
 70
     0
  9
$DIMSE2
 70
     0
  9
$DIMTAD
 70
     0
  9
$DIMZIN
 70
     0
  9
$DIMBLK
  1

  9
$DIMASO
 70
     1
  9
$DIMSHO
 70
     1
  9
$DIMPOST
  1

  9
$DIMAPOST
  1

  9
$DIMALT
 70
     0
  9
$DIMALTD
 70
     2
  9
$DIMALTF
 40
25.4
  9
$DIMLFAC
 40
1.0
  9
$DIMTOFL
 70
     0
  9
$DIMTVP
 40
0.0
  9
$DIMTIX
 70
     0
  9
$DIMSOXD
 70
     0
  9
$DIMSAH
 70
     0
  9
$DIMBLK1
  1

  9
$DIMBLK2
  1

  9
$DIMSTYLE
  2
Standard
  9
$DIMCLRD
 70
     0
  9
$DIMCLRE
 70
     0
  9
$DIMCLRT
 70
     0
  9
$DIMTFAC
 40
1.0
  9
$DIMGAP
 40
0.09
  9
$DIMJUST
 70
     0
  9
$DIMSD1
 70
     0
  9
$DIMSD2
 70
     0
  9
$DIMTOLJ
 70
     1
  9
$DIMTZIN
 70
     0
  9
$DIMALTZ
 70
     0
  9
$DIMALTTZ
 70
     0
  9
$DIMUPT
 70
     0
  9
$DIMDEC
 70
     4
  9
$DIMTDEC
 70
     4
  9
$DIMALTU
 70
     2
  9
$DIMALTTD
 70
     2
  9
$DIMTXSTY
  7
Standard
  9
$DIMAUNIT
 70
     0
  9
$DIMADEC
 70
     0
  9
$DIMALTRND
 40
0.0
  9
$DIMAZIN
 70
     0
  9
$DIMDSEP
 70
     0
  9
$DIMATFIT
 70
     3
  9
$DIMFRAC
 70
     0
  9
$DIMLDRBLK
  1

  9
$DIMLUNIT
 70
     2
  9
$DIMLWD
 70
     0
  9
$DIMLWE
 70
     0
  9
$DIMTMOVE
 70
     0
  9
$LUNITS
 70
     2
  9
$LUPREC
 70
     4
  9
$SKETCHINC
 40
0.1
  9
$FILLETRAD
 40
0.0
  9
$AUNITS
 70
     0
  9
$AUPREC
 70
     0
  9
$MENU
  1
acad
  9
$ELEVATION
 40
0.0
  9
$PELEVATION
 40
0.0
  9
$THICKNESS
 40
0.0
  9
$LIMCHECK
 70
     0
  9
$CHAMFERA
 40
0.0
  9
$CHAMFERB
 40
0.0
  9
$CHAMFERC
 40
0.0
  9
$CHAMFERD
 40
0.0
  9
$SKPOLY
 70
     0
  9
$TDCREATE
 40
0.000000000
  9
$TDUCREATE
 40
0.000000000
  9
$TDUPDATE
 40
0.000000000
  9
$TDUUPDATE
 40
0.000000000
  9
$TDINDWG
 40
0.0000000000
  9
$TDUSRTIMER
 40
0.0000000000
  9
$USRTIMER
 70
     1
  9
$ANGBASE
 50
0.0
  9
$ANGDIR
 70
     0
  9
$PDMODE
 70
     0
  9
$PDSIZE
 40
0.0
  9
$PLINEWID
 40
0.0
  9
$SPLFRAME
 70
     0
  9
$SPLINETYPE
 70
     6
  9
$SPLINESEGS
 70
     8
  9
$HANDSEED
  5
2E3
  9
$SURFTAB1
 70
     6
  9
$SURFTAB2
 70
     6
  9
$SURFTYPE
 70
     6
  9
$SURFU
 70
     6
  9
$SURFV
 70
     6
  9
$UCSBASE
  2

  9
$UCSNAME
  2

  9
$UCSORG
 10
0.0
 20
0.0
 30
0.0
  9
$UCSXDIR
 10
1.0
 20
0.0
 30
0.0
  9
$UCSYDIR
 10
0.0
 20
1.0
 30
0.0
  9
$UCSORTHOREF
  2

  9
$UCSORTHOVIEW
 70
     0
  9
$UCSORGTOP
 10
0.0
 20
0.0
 30
0.0
  9
$UCSORGBOTTOM
 10
0.0
 20
0.0
 30
0.0
  9
$UCSORGLEFT
 10
0.0
 20
0.0
 30
0.0
  9
$UCSORGRIGHT
 10
0.0
 20
0.0
 30
0.0
  9
$UCSORGFRONT
 10
0.0
 20
0.0
 30
0.0
  9
$UCSORGBACK
 10
0.0
 20
0.0
 30
0.0
  9
$PUCSBASE
  2

  9
$PUCSNAME
  2

  9
$PUCSORG
 10
0.0
 20
0.0
 30
0.0
  9
$PUCSXDIR
 10
1.0
 20
0.0
 30
0.0
  9
$PUCSYDIR
 10
0.0
 20
1.0
 30
0.0
  9
$PUCSORTHOREF
  2

  9
$PUCSORTHOVIEW
 70
     0
  9
$PUCSORGTOP
 10
0.0
 20
0.0
 30
0.0
  9
$PUCSORGBOTTOM
 10
0.0
 20
0.0
 30
0.0
  9
$PUCSORGLEFT
 10
0.0
 20
0.0
 30
0.0
  9
$PUCSORGRIGHT
 10
0.0
 20
0.0
 30
0.0
  9
$PUCSORGFRONT
 10
0.0
 20
0.0
 30
0.0
  9
$PUCSORGBACK
 10
0.0
 20
0.0
 30
0.0
  9
$USERI1
 70
     0
  9
$USERI2
 70
     0
  9
$USERI3
 70
     0
  9
$USERI4
 70
     0
  9
$USERI5
 70
     0
  9
$USERR1
 40
0.0
  9
$USERR2
 40
0.0
  9
$USERR3
 40
0.0
  9
$USERR4
 40
0.0
  9
$USERR5
 40
0.0
  9
$WORLDVIEW
 70
     1
  9
$SHADEDGE
 70
     3
  9
$SHADEDIF
 70
    70
  9
$TILEMODE
 70
     1
  9
$MAXACTVP
 70
    16
  9
$PINSBASE
 10
0.0
 20
0.0
 30
0.0
  9
$PLIMCHECK
 70
     0
  9
$PEXTMIN
 10
1.000000E+20
 20
1.000000E+20
 30
1.000000E+20
  9
$PEXTMAX
 10
-1.000000E+20
 20
-1.000000E+20
 30
-1.000000E+20
  9
$PLIMMIN
 10
0.0
 20
0.0
  9
$PLIMMAX
 10
12.0
 20
9.0
  9
$UNITMODE
 70
     0
  9
$VISRETAIN
 70
     0
  9
$PLINEGEN
 70
     1
  9
$PSLTSCALE
 70
     0
  9
$TREEDEPTH
 70
  3020
  9
$CMLSTYLE
  2
Standard
  9
$CMLJUST
 70
     0
  9
$CMLSCALE
 40
1.0
  9
$PROXYGRAPHICS
 70
     0
  9
$MEASUREMENT
 70
     1
  9
$CELWEIGHT
370
     0
  9
$ENDCAPS
280
     0
  9
$JOINSTYLE
280
     0
  9
$LWDISPLAY
290
     0
  9
$INSUNITS
 70
     0
  9
$HYPERLINKBASE
  1

  9
$STYLESHEET
  1

  9
$XEDIT
290
     1
  9
$CEPSNTYPE
380
     0
  9
$PSTYLEMODE
290
     1
  9
$FINGERPRINTGUID
  2

  9
$VERSIONGUID
  2

  9
$EXTNAMES
290
     1
  9
$PSVPSCALE
 40
0.0
  0
ENDSEC
  0
SECTION
  2
CLASSES
  0
CLASS
  1
LWPOLYLINE
  2
AcDbPolyline
  3
AutoCAD 2000
 90
    32768
280
     0
281
     1
  0
CLASS
  1
IMAGE
  2
AcDbRasterImage
  3
ISM
 90
    32895
280
     0
281
     1
  0
CLASS
  1
OLE2FRAME
  2
AcDbOle2Frame
  3
AutoCAD 2000
 90
    32768
280
     0
281
     1
  0
CLASS
  1
HATCH
  2
AcDbHatch
  3
AutoCAD 2000
 90
    32768
280
     0
281
     1
  0
CLASS
  1
DICTIONARYVAR
  2
AcDbDictionaryVar
  3
AutoCAD 2000
 90
    32768
280
     0
281
     0
  0
CLASS
  1
RASTERVARIABLES
  2
AcDbRasterVariables
  3
ISM
 90
    32768
280
     0
281
     0
  0
CLASS
  1
IMAGEDEF
  2
AcDbRasterImageDef
  3
ISM
 90
    32768
280
     0
281
     0
  0
CLASS
  1
IMAGEDEF_REACTOR
  2
AcDbRasterImageDefReactor
  3
ISM
 90
    32769
280
     0
281
     0
  0
CLASS
  1
IDBUFFER
  2
AcDbIdBuffer
  3
AutoCAD 2000
 90
    32768
280
     0
281
     0
  0
CLASS
  1
SPATIAL_FILTER
  2
AcDbSpatialFilter
  3
AutoCAD 2000
 90
    32768
280
     0
281
     0
  0
CLASS
  1
XRECORD
  2
AcDbXrecord
  3
AutoCAD 2000
 90
    32768
280
     0
281
     0
  0
CLASS
  1
SORTENTSTABLE
  2
AcDbSortentsTable
  3
AutoCAD 2000
 90
    32768
280
     0
281
     0
  0
CLASS
  1
LAYER_INDEX
  2
AcDbLayerIndex
  3
AutoCAD 2000
 90
    32768
280
     0
281
     0
  0
CLASS
  1
SPATIAL_INDEX
  2
AcDbSpatialIndex
  3
AutoCAD 2000
 90
    32768
280
     0
281
     0
  0
CLASS
  1
OBJECT_PTR
  2
CAseDLPNTableRecord
  3
"ASE-LPNTableRecord"
 90
    32769
280
     0
281
     0
  0
CLASS
  1
LAYOUT
  2
AcDbLayout
  3
AutoCAD 2000
 90
        0
280
     0
281
     0
  0
CLASS
  1
PLOTSETTINGS
  2
AcDbPlotSettings
  3
AutoCAD 2000
 90
    32768
280
     0
281
     0
  0
CLASS
  1
ACDBDICTIONARYWDFLT
  2
AcDbDictionaryWithDefault
  3
AutoCAD 2000
 90
        0
280
     0
281
     0
  0
CLASS
  1
ACDBPLACEHOLDER
  2
AcDbPlaceHolder
  3
AutoCAD 2000
 90
        0
280
     0
281
     0
  0
CLASS
  1
VBA_PROJECT
  2
AcDbVbaProject
  3
acadvba
 90
    32768
280
     0
281
     0
  0
CLASS
  1
WIPEOUT
  2
AcDbWipeout
  3
WipeOut|AutoCAD Express Tool|expresstools@autodesk.com
 90
    32895
280
     0
281
     1
  0
CLASS
  1
WIPEOUTVARIABLES
  2
AcDbWipeoutVariables
  3
WipeOut|AutoCAD Express Tool|expresstools@autodesk.com
 90
        0
280
     0
281
     0
  0
CLASS
  1
RTEXT
  2
RText
  3
RText|AutoCAD Express Tool|expresstools@autodesk.com
 90
    32768
280
     0
281
     1
  0
CLASS
  1
ARCALIGNEDTEXT
  2
AcDbArcAlignedText
  3
ATEXT|AutoCAD Express Tool|expresstools@autodesk.com
 90
    32768
280
     0
281
     1
  0
ENDSEC
  0
SECTION
  2
TABLES
  0
TABLE
  2
VPORT
  5
7
100
AcDbSymbolTable
 70
     1
  0
VPORT
  5
15
100
AcDbSymbolTableRecord
100
AcDbViewportTableRecord
  2
*ACTIVE
 70
     0
 10
0.0
 20
0.0
 11
1.0
 21
1.0
 12
6.591288
 22
4.579184
 13
0.0
 23
0.0
 14
1.0
 24
1.0
 15
0.0
 25
0.0
 16
0.0
 26
0.0
 36
1.0
 17
0.0
 27
0.0
 37
0.0
 40
9.158369
 41
0.688564
 42
50.0
 43
0.0
 44
0.0
 50
0.0
 51
0.0
 71
     0
 72
   100
 73
     1
 74
     1
 75
     0
 76
     0
 77
     0
 78
     0
281
     0
 65
     0
110
0.0
120
0.0
130
0.0
111
1.0
121
0.0
131
0.0
112
0.0
122
1.0
132
0.0
345
0
346
0
 79
     0
146
0.0
  0
ENDTAB
  0
TABLE
  2
LTYPE
  5
4
100
AcDbSymbolTable
 70
     3
  0
LTYPE
  5
11
100
AcDbSymbolTableRecord
100
AcDbLinetypeTableRecord
  2
ByBlock
 70
    64
  3

 72
    65
 73
     0
 40
0.0
  0
LTYPE
  5
12
100
AcDbSymbolTableRecord
100
AcDbLinetypeTableRecord
  2
ByLayer
 70
    64
  3

 72
    65
 73
     0
 40
0.0
  0
LTYPE
  5
13
100
AcDbSymbolTableRecord
100
AcDbLinetypeTableRecord
  2
Continuous
 70
    64
  3
Solid line
 72
    65
 73
     0
 40
0.0
  0
ENDTAB
  0
TABLE
  2
LAYER
  5
2
100
AcDbSymbolTable
 70
     2
  0
LAYER
  5
14
100
AcDbSymbolTableRecord
100
AcDbLayerTableRecord
  2
0
 70
     0
 62
     7
  6
Continuous
290
     1
370
    -3
390
1D
  0
LAYER
  5
28
100
AcDbSymbolTableRecord
100
AcDbLayerTableRecord
  2
LIVELLO_1
 70
     0
 62
   160
  6
Continuous
290
     1
370
    -3
390
1D
  0
ENDTAB
  0
TABLE
  2
STYLE
  5
3
100
AcDbSymbolTable
 70
     5
  0
STYLE
  5
17
100
AcDbSymbolTableRecord
100
AcDbTextStyleTableRecord
  2
Standard
 70
     0
 40
0.0
 41
1.0
 50
0.0
 71
     0
 42
0.0
  3
txt
  4

  0
STYLE
  5
24
100
AcDbSymbolTableRecord
100
AcDbTextStyleTableRecord
  2
STD
 70
     0
 40
0.0
 41
1.0
 50
0.0
 71
     0
 42
0.0
  3
txt
  4

  0
STYLE
  5
25
100
AcDbSymbolTableRecord
100
AcDbTextStyleTableRecord
  2
TATESTD
 70
     4
 40
0.0
 41
1.0
 50
0.0
 71
     0
 42
0.0
  3
txt
  4

  0
STYLE
  5
26
100
AcDbSymbolTableRecord
100
AcDbTextStyleTableRecord
  2
KANJISTD
 70
     0
 40
0.0
 41
1.0
 50
0.0
 71
     0
 42
0.0
  3
txt
  4
extfont
  0
STYLE
  5
27
100
AcDbSymbolTableRecord
100
AcDbTextStyleTableRecord
  2
KANJITATE
 70
     4
 40
0.0
 41
1.0
 50
0.0
 71
     0
 42
0.0
  3
txt
  4
extfont
  0
ENDTAB
  0
TABLE
  2
VIEW
  5
5
100
AcDbSymbolTable
 70
     0
  0
ENDTAB
  0
TABLE
  2
UCS
  5
6
100
AcDbSymbolTable
 70
     0
  0
ENDTAB
  0
TABLE
  2
APPID
  5
8
100
AcDbSymbolTable
 70
     1
  0
APPID
  5
16
100
AcDbSymbolTableRecord
100
AcDbRegAppTableRecord
  2
ACAD
 70
     0
  0
ENDTAB
  0
TABLE
  2
DIMSTYLE
  5
9
100
AcDbSymbolTable
 70
     1
100
AcDbDimStyleTable
 71
     0
  0
DIMSTYLE
105
18
100
AcDbSymbolTableRecord
100
AcDbDimStyleTableRecord
  2
Standard
 70
     0
  3

  4

 40
1.0
 41
0.18
 42
0.0625
 43
0.38
 44
0.18
 45
0.0
 46
0.0
 47
0.0
 48
0.0
 71
     0
 72
     0
 73
     1
 74
     1
 75
     0
 76
     0
 77
     0
 78
     0
 79
     0
140
0.18
141
0.09
142
0.0
143
25.4
144
1.0
145
0.0
146
1.0
147
0.09
148
0.0
170
     0
171
     2
172
     0
173
     0
174
     0
175
     0
176
     0
177
     0
178
     0
179
     0
271
     4
272
     4
273
     2
274
     2
275
     0
276
     0
277
     2
278
    46
279
     0
280
     0
281
     0
282
     0
283
     1
284
     0
285
     0
286
     0
288
     0
340
17
341
0
342
0
343
0
344
0
371
    -2
372
    -2
  0
ENDTAB
  0
TABLE
  2
BLOCK_RECORD
  5
1
100
AcDbSymbolTable
 70
     1
  0
BLOCK_RECORD
  5
A
100
AcDbSymbolTableRecord
100
AcDbBlockTableRecord
  2
*MODEL_SPACE
340
20
  0
BLOCK_RECORD
  5
B
100
AcDbSymbolTableRecord
100
AcDbBlockTableRecord
  2
*PAPER_SPACE
340
21
  0
BLOCK_RECORD
  5
29
100
AcDbSymbolTableRecord
100
AcDbBlockTableRecord
  2
AI9-BLK1
340
0
102
{BLKREFS
331
2A
102
}
  0
ENDTAB
  0
ENDSEC
  0
SECTION
  2
BLOCKS
  0
BLOCK
  5
D
100
AcDbEntity
  8
0
100
AcDbBlockBegin
  2
*MODEL_SPACE
 70
     0
 10
0.0
 20
0.0
 30
0.0
  3
*MODEL_SPACE
  1

  0
ENDBLK
  5
E
100
AcDbEntity
  8
0
100
AcDbBlockEnd
  0
BLOCK
  5
F
100
AcDbEntity
 67
     1
  8
0
100
AcDbBlockBegin
  2
*PAPER_SPACE
 70
     0
 10
0.0
 20
0.0
 30
0.0
  3
*PAPER_SPACE
  1

  0
ENDBLK
  5
10
100
AcDbEntity
 67
     1
  8
0
100
AcDbBlockEnd
  0
BLOCK
  5
2B
100
AcDbEntity
  8
LIVELLO_1
 62
     7
100
AcDbBlockBegin
  2
AI9-BLK1
 70
     0
 10
0.0
 20
0.0
 30
0.0
  3
AI9-BLK1
  1

  0
LINE
  5
2E1
100
AcDbEntity
  8
LIVELLO_1
 62
     7
100
AcDbLine
 10
-1.64021
 20
132.628425
 30
0.0
 11
35.159956
 21
132.542814
 31
0.0
  0
LINE
  5
2E0
100
AcDbEntity
  8
LIVELLO_1
 62
     7
100
AcDbLine
 10
63.611277
 20
60.065757
 30
0.0
 11
63.468994
 21
19.709219
 31
0.0
  0
LINE
  5
2DF
100
AcDbEntity
  8
LIVELLO_1
 62
     7
100
AcDbLine
 10
58.363018
 20
120.358889
 30
0.0
 11
68.674533
 21
120.358889
 31
0.0
  0
LINE
  5
2DE
100
AcDbEntity
  8
LIVELLO_1
 62
     7
100
AcDbLine
 10
68.875727
 20
19.652203
 30
0.0
 11
58.564212
 21
19.652203
 31
0.0
  0
LINE
  5
2DD
100
AcDbEntity
  8
LIVELLO_1
 62
     7
100
AcDbLine
 10
-75.910612
 20
66.786104
 30
0.0
 11
32.020095
 21
66.786104
 31
0.0
  0
LINE
  5
2DC
100
AcDbEntity
  8
LIVELLO_1
 62
     7
100
AcDbLine
 10
-75.910612
 20
66.786104
 30
0.0
 11
32.020095
 21
66.786104
 31
0.0
  0
SPLINE
  5
2DB
100
AcDbEntity
  8
LIVELLO_1
 62
     7
100
AcDbSpline
210
0.0
220
0.0
230
1.0
 70
     8
 71
     3
 72
     8
 73
     4
 74
     0
 42
0.00000001
 43
0.00000001
 40
0.0
 40
0.0
 40
0.0
 40
0.0
 40
1.0
 40
1.0
 40
1.0
 40
1.0
 10
-20.501935492621527
 20
73.762767198350687
 30
0.0
 10
-20.14243977864583
 20
73.762767198350687
 30
0.0
 10
-19.840304904513886
 20
74.047504340277769
 30
0.0
 10
-19.827730305989583
 20
74.41165093315972
 30
0.0
  0
SPLINE
  5
2DA
100
AcDbEntity
  8
LIVELLO_1
 62
     7
100
AcDbSpline
210
0.0
220
0.0
230
1.0
 70
     8
 71
     3
 72
     8
 73
     4
 74
     0
 42
0.00000001
 43
0.00000001
 40
0.0
 40
0.0
 40
0.0
 40
0.0
 40
1.0
 40
1.0
 40
1.0
 40
1.0
 10
-24.251405164930553
 20
74.41165093315972
 30
0.0
 10
-24.238830566406246
 20
74.047504340277769
 30
0.0
 10
-23.941174316406247
 20
73.762767198350687
 30
0.0
 10
-23.577199978298609
 20
73.762767198350687
 30
0.0
  0
SPLINE
  5
2D9
100
AcDbEntity
  8
LIVELLO_1
 62
     7
100
AcDbSpline
210
0.0
220
0.0
230
1.0
 70
     8
 71
     3
 72
    11
 73
     7
 74
     0
 42
0.00000001
 43
0.00000001
 40
0.0
 40
0.0
 40
0.0
 40
0.0
 40
1.0
 40
1.0
 40
1.0
 40
2.0
 40
2.0
 40
2.0
 40
2.0
 10
-21.081056043836803
 20
89.647068956163181
 30
0.0
 10
-21.302920193142359
 20
89.954026963975693
 30
0.0
 10
-21.658798556857636
 20
90.138339572482636
 30
0.0
 10
-22.041720920138886
 20
90.138339572482636
 30
0.0
 10
-22.423265245225693
 20
90.138339572482636
 30
0.0
 10
-22.777765570746524
 20
89.954026963975693
 30
0.0
 10
-22.997734917534721
 20
89.647068956163181
 30
0.0
  0
LINE
  5
2D8
100
AcDbEntity
  8
LIVELLO_1
 62
     7
100
AcDbLine
 10
-19.438262
 20
84.180391
 30
0.0
 11
-19.82773
 21
74.411651
 31
0.0
  0
SPLINE
  5
2D7
100
AcDbEntity
  8
LIVELLO_1
 62
     7
100
AcDbSpline
210
0.0
220
0.0
230
1.0
 70
     8
 71
     3
 72
     8
 73
     4
 74
     0
 42
0.00000001
 43
0.00000001
 40
0.0
 40
0.0
 40
0.0
 40
0.0
 40
1.0
 40
1.0
 40
1.0
 40
1.0
 10
-19.43826226128472
 20
84.180391438802076
 30
0.0
 10
-19.360575358072914
 20
86.14013400607638
 30
0.0
 10
-19.938317871093748
 20
88.061636013454859
 30
0.0
 10
-21.081056043836803
 20
89.647068956163181
 30
0.0
  0
SPLINE
  5
2D6
100
AcDbEntity
  8
LIVELLO_1
 62
     7
100
AcDbSpline
210
0.0
220
0.0
230
1.0
 70
     8
 71
     3
 72
    11
 73
     7
 74
     0
 42
0.00000001
 43
0.00000001
 40
0.0
 40
0.0
 40
0.0
 40
0.0
 40
1.0
 40
1.0
 40
1.0
 40
2.0
 40
2.0
 40
2.0
 40
2.0
 10
-22.997734917534721
 20
89.647068956163181
 30
0.0
 10
-24.142023383246524
 20
88.061636013454859
 30
0.0
 10
-24.721488444010415
 20
86.14013400607638
 30
0.0
 10
-24.640528700086804
 20
84.180391438802076
 30
0.0
 10
-24.640528700086804
 20
84.180391438802076
 30
0.0
 10
-24.251405164930553
 20
74.41165093315972
 30
0.0
 10
-24.251405164930553
 20
74.41165093315972
 30
0.0
  0
SPLINE
  5
2D5
100
AcDbEntity
  8
LIVELLO_1
 62
     7
100
AcDbSpline
210
0.0
220
0.0
230
1.0
 70
     8
 71
     3
 72
    11
 73
     7
 74
     0
 42
0.00000001
 43
0.00000001
 40
0.0
 40
0.0
 40
0.0
 40
0.0
 40
1.0
 40
1.0
 40
1.0
 40
2.0
 40
2.0
 40
2.0
 40
2.0
 10
32.026296657986109
 20
67.118383789062491
 30
0.0
 10
31.562586805555554
 20
96.659044053819429
 30
0.0
 10
7.4985948350694436
 20
120.3525160047743
 30
0.0
 10
-22.041720920138886
 20
120.3525160047743
 30
0.0
 10
-51.580658637152773
 20
120.3525160047743
 30
0.0
 10
-75.64465060763888
 20
96.659044053819429
 30
0.0
 10
-76.105259874131931
 20
67.118383789062491
 30
0.0
  0
LINE
  5
2D4
100
AcDbEntity
  8
LIVELLO_1
 62
     7
100
AcDbLine
 10
-22.018294
 20
120.352516
 30
0.0
 11
-22.064114
 21
120.352516
 31
0.0
  0
LINE
  5
2D3
100
AcDbEntity
  8
LIVELLO_1
 62
     7
100
AcDbLine
 10
-20.501935
 20
73.762767
 30
0.0
 11
-23.5772
 21
73.762767
 31
0.0
  0
POLYLINE
  5
2CE
100
AcDbEntity
  8
LIVELLO_1
 62
     7
100
AcDb2dPolyline
 66
     1
 10
0.0
 20
0.0
 30
0.0
  0
VERTEX
  5
2CF
100
AcDbEntity
  8
LIVELLO_1
 62
     7
100
AcDbVertex
100
AcDb2dVertex
 10
-76.10526
 20
67.118384
 30
0.0
  0
VERTEX
  5
2D0
100
AcDbEntity
  8
LIVELLO_1
 62
     7
100
AcDbVertex
100
AcDb2dVertex
 10
32.026297
 20
67.118384
 30
0.0
  0
VERTEX
  5
2D1
100
AcDbEntity
  8
LIVELLO_1
 62
     7
100
AcDbVertex
100
AcDb2dVertex
 10
-76.10526
 20
67.118384
 30
0.0
  0
SEQEND
  5
2D2
100
AcDbEntity
  8
LIVELLO_1
 62
     7
  0
LINE
  5
2CD
100
AcDbEntity
  8
LIVELLO_1
 62
     7
100
AcDbLine
 10
4.260205
 20
20.766347
 30
0.0
 11
4.288799
 21
20.766347
 31
0.0
  0
POLYLINE
  5
2C8
100
AcDbEntity
  8
LIVELLO_1
 62
     7
100
AcDb2dPolyline
 66
     1
 10
0.0
 20
0.0
 30
0.0
  0
VERTEX
  5
2C9
100
AcDbEntity
  8
LIVELLO_1
 62
     7
100
AcDbVertex
100
AcDb2dVertex
 10
4.223687
 20
20.766347
 30
0.0
  0
VERTEX
  5
2CA
100
AcDbEntity
  8
LIVELLO_1
 62
     7
100
AcDbVertex
100
AcDb2dVertex
 10
4.260205
 20
20.766347
 30
0.0
  0
VERTEX
  5
2CB
100
AcDbEntity
  8
LIVELLO_1
 62
     7
100
AcDbVertex
100
AcDb2dVertex
 10
4.510319
 20
20.940496
 30
0.0
  0
SEQEND
  5
2CC
100
AcDbEntity
  8
LIVELLO_1
 62
     7
  0
POLYLINE
  5
2C2
100
AcDbEntity
  8
LIVELLO_1
 62
     7
100
AcDb2dPolyline
 66
     1
 10
0.0
 20
0.0
 30
0.0
  0
VERTEX
  5
2C3
100
AcDbEntity
  8
LIVELLO_1
 62
     7
100
AcDbVertex
100
AcDb2dVertex
 10
-33.236559
 20
20.028752
 30
0.0
  0
VERTEX
  5
2C4
100
AcDbEntity
  8
LIVELLO_1
 62
     7
100
AcDbVertex
100
AcDb2dVertex
 10
-39.532643
 20
20.028752
 30
0.0
  0
VERTEX
  5
2C5
100
AcDbEntity
  8
LIVELLO_1
 62
     7
100
AcDbVertex
100
AcDb2dVertex
 10
-44.105318
 20
20.028752
 30
0.0
  0
VERTEX
  5
2C6
100
AcDbEntity
  8
LIVELLO_1
 62
     7
100
AcDbVertex
100
AcDb2dVertex
 10
-46.511201
 20
20.028752
 30
0.0
  0
SEQEND
  5
2C7
100
AcDbEntity
  8
LIVELLO_1
 62
     7
  0
LINE
  5
2C1
100
AcDbEntity
  8
LIVELLO_1
 62
     7
100
AcDbLine
 10
-33.236559
 20
20.028752
 30
0.0
 11
-25.837183
 21
20.028752
 31
0.0
  0
LINE
  5
2C0
100
AcDbEntity
  8
LIVELLO_1
 62
     7
100
AcDbLine
 10
-25.837183
 20
20.028752
 30
0.0
 11
-18.054884
 21
20.028752
 31
0.0
  0
LINE
  5
2BF
100
AcDbEntity
  8
LIVELLO_1
 62
     7
100
AcDbLine
 10
-18.054884
 20
20.028752
 30
0.0
 11
-10.653958
 21
20.028752
 31
0.0
  0
LINE
  5
2BE
100
AcDbEntity
  8
LIVELLO_1
 62
     7
100
AcDbLine
 10
-10.653958
 20
20.028752
 30
0.0
 11
-4.359424
 21
20.028752
 31
0.0
  0
LINE
  5
2BD
100
AcDbEntity
  8
LIVELLO_1
 62
     7
100
AcDbLine
 10
-4.359424
 20
20.028752
 30
0.0
 11
0.214629
 21
20.028752
 31
0.0
  0
LINE
  5
2BC
100
AcDbEntity
  8
LIVELLO_1
 62
     7
100
AcDbLine
 10
0.214629
 20
20.028752
 30
0.0
 11
2.620512
 21
20.028752
 31
0.0
  0
LINE
  5
2BB
100
AcDbEntity
  8
LIVELLO_1
 62
     7
100
AcDbLine
 10
2.620512
 20
20.028752
 30
0.0
 11
2.924542
 21
20.028752
 31
0.0
  0
POLYLINE
  5
2AE
100
AcDbEntity
  8
LIVELLO_1
 62
     7
100
AcDb2dPolyline
 66
     1
 10
0.0
 20
0.0
 30
0.0
  0
VERTEX
  5
2AF
100
AcDbEntity
  8
LIVELLO_1
 62
     7
100
AcDbVertex
100
AcDb2dVertex
 10
-74.053878
 20
63.174438
 30
0.0
  0
VERTEX
  5
2B0
100
AcDbEntity
  8
LIVELLO_1
 62
     7
100
AcDbVertex
100
AcDb2dVertex
 10
-74.076271
 20
63.177367
 30
0.0
  0
VERTEX
  5
2B1
100
AcDbEntity
  8
LIVELLO_1
 62
     7
100
AcDbVertex
100
AcDb2dVertex
 10
-74.10297
 20
63.177367
 30
0.0
  0
VERTEX
  5
2B2
100
AcDbEntity
  8
LIVELLO_1
 62
     7
100
AcDbVertex
100
AcDb2dVertex
 10
-74.122091
 20
63.186841
 30
0.0
  0
VERTEX
  5
2B3
100
AcDbEntity
  8
LIVELLO_1
 62
     7
100
AcDbVertex
100
AcDb2dVertex
 10
-74.144139
 20
63.196143
 30
0.0
  0
VERTEX
  5
2B4
100
AcDbEntity
  8
LIVELLO_1
 62
     7
100
AcDbVertex
100
AcDb2dVertex
 10
-74.168083
 20
63.19976
 30
0.0
  0
VERTEX
  5
2B5
100
AcDbEntity
  8
LIVELLO_1
 62
     7
100
AcDbVertex
100
AcDb2dVertex
 10
-74.190131
 20
63.212162
 30
0.0
  0
VERTEX
  5
2B6
100
AcDbEntity
  8
LIVELLO_1
 62
     7
100
AcDbVertex
100
AcDb2dVertex
 10
-74.209252
 20
63.222153
 30
0.0
  0
VERTEX
  5
2B7
100
AcDbEntity
  8
LIVELLO_1
 62
     7
100
AcDbVertex
100
AcDb2dVertex
 10
-74.228027
 20
63.237311
 30
0.0
  0
VERTEX
  5
2B8
100
AcDbEntity
  8
LIVELLO_1
 62
     7
100
AcDbVertex
100
AcDb2dVertex
 10
-74.248526
 20
63.250403
 30
0.0
  0
VERTEX
  5
2B9
100
AcDbEntity
  8
LIVELLO_1
 62
     7
100
AcDbVertex
100
AcDb2dVertex
 10
-74.264545
 20
63.272624
 30
0.0
  0
SEQEND
  5
2BA
100
AcDbEntity
  8
LIVELLO_1
 62
     7
  0
POLYLINE
  5
2A1
100
AcDbEntity
  8
LIVELLO_1
 62
     7
100
AcDb2dPolyline
 66
     1
 10
0.0
 20
0.0
 30
0.0
  0
VERTEX
  5
2A2
100
AcDbEntity
  8
LIVELLO_1
 62
     7
100
AcDbVertex
100
AcDb2dVertex
 10
-74.264545
 20
63.272624
 30
0.0
  0
VERTEX
  5
2A3
100
AcDbEntity
  8
LIVELLO_1
 62
     7
100
AcDbVertex
100
AcDb2dVertex
 10
-74.283321
 20
63.288643
 30
0.0
  0
VERTEX
  5
2A4
100
AcDbEntity
  8
LIVELLO_1
 62
     7
100
AcDbVertex
100
AcDb2dVertex
 10
-74.29624
 20
63.303802
 30
0.0
  0
VERTEX
  5
2A5
100
AcDbEntity
  8
LIVELLO_1
 62
     7
100
AcDbVertex
100
AcDb2dVertex
 10
-74.310365
 20
63.326195
 30
0.0
  0
VERTEX
  5
2A6
100
AcDbEntity
  8
LIVELLO_1
 62
     7
100
AcDbVertex
100
AcDb2dVertex
 10
-74.323112
 20
63.348588
 30
0.0
  0
VERTEX
  5
2A7
100
AcDbEntity
  8
LIVELLO_1
 62
     7
100
AcDbVertex
100
AcDb2dVertex
 10
-74.335687
 20
63.367364
 30
0.0
  0
VERTEX
  5
2A8
100
AcDbEntity
  8
LIVELLO_1
 62
     7
100
AcDbVertex
100
AcDb2dVertex
 10
-74.342232
 20
63.38614
 30
0.0
  0
VERTEX
  5
2A9
100
AcDbEntity
  8
LIVELLO_1
 62
     7
100
AcDbVertex
100
AcDb2dVertex
 10
-74.351534
 20
63.415078
 30
0.0
  0
VERTEX
  5
2AA
100
AcDbEntity
  8
LIVELLO_1
 62
     7
100
AcDbVertex
100
AcDb2dVertex
 10
-74.354807
 20
63.433854
 30
0.0
  0
VERTEX
  5
2AB
100
AcDbEntity
  8
LIVELLO_1
 62
     7
100
AcDbVertex
100
AcDb2dVertex
 10
-74.361008
 20
63.459176
 30
0.0
  0
VERTEX
  5
2AC
100
AcDbEntity
  8
LIVELLO_1
 62
     7
100
AcDbVertex
100
AcDb2dVertex
 10
-74.364281
 20
63.481569
 30
0.0
  0
SEQEND
  5
2AD
100
AcDbEntity
  8
LIVELLO_1
 62
     7
  0
LINE
  5
2A0
100
AcDbEntity
  8
LIVELLO_1
 62
     7
100
AcDbLine
 10
-71.133815
 20
62.911405
 30
0.0
 11
-71.146389
 21
63.048003
 31
0.0
  0
LINE
  5
29F
100
AcDbEntity
  8
LIVELLO_1
 62
     7
100
AcDbLine
 10
-71.146389
 20
63.048003
 30
0.0
 11
-71.159136
 21
63.193214
 31
0.0
  0
SPLINE
  5
29E
100
AcDbEntity
  8
LIVELLO_1
 62
     7
100
AcDbSpline
210
0.0
220
0.0
230
1.0
 70
     8
 71
     3
 72
    11
 73
     7
 74
     0
 42
0.00000001
 43
0.00000001
 40
0.0
 40
0.0
 40
0.0
 40
0.0
 40
1.0
 40
1.0
 40
1.0
 40
2.0
 40
2.0
 40
2.0
 40
2.0
 10
-71.444217936197916
 20
63.481568739149303
 30
0.0
 10
-71.372732204861109
 20
63.481568739149303
 30
0.0
 10
-71.304691569010416
 20
63.452629937065964
 30
0.0
 10
-71.255598958333323
 20
63.40215928819444
 30
0.0
 10
-71.201855468749997
 20
63.342042371961803
 30
0.0
 10
-71.165509711371527
 20
63.272623697916664
 30
0.0
 10
-71.159136284722223
 20
63.193214246961801
 30
0.0
  0
LINE
  5
29D
100
AcDbEntity
  8
LIVELLO_1
 62
     7
100
AcDbLine
 10
-71.444218
 20
63.481569
 30
0.0
 11
-74.364281
 21
63.481569
 31
0.0
  0
SPLINE
  5
29C
100
AcDbEntity
  8
LIVELLO_1
 62
     7
100
AcDbSpline
210
0.0
220
0.0
230
1.0
 70
     8
 71
     3
 72
     8
 73
     4
 74
     0
 42
0.00000001
 43
0.00000001
 40
0.0
 40
0.0
 40
0.0
 40
0.0
 40
1.0
 40
1.0
 40
1.0
 40
1.0
 10
-74.455920410156239
 20
63.40215928819444
 30
0.0
 10
-74.446618652343744
 20
63.446773274739577
 30
0.0
 10
-74.40682779947916
 20
63.481568739149303
 30
0.0
 10
-74.364280870225684
 20
63.484497070312493
 30
0.0
  0
SPLINE
  5
29B
100
AcDbEntity
  8
LIVELLO_1
 62
     7
100
AcDbSpline
210
0.0
220
0.0
230
1.0
 70
     8
 71
     3
 72
     8
 73
     4
 74
     0
 42
0.00000001
 43
0.00000001
 40
0.0
 40
0.0
 40
0.0
 40
0.0
 40
1.0
 40
1.0
 40
1.0
 40
1.0
 10
-74.484514702690959
 20
63.237311469184021
 30
0.0
 10
-74.484514702690959
 20
63.291571723090271
 30
0.0
 10
-74.477969021267356
 20
63.348588053385413
 30
0.0
 10
-74.459193250868054
 20
63.40215928819444
 30
0.0
  0
LINE
  5
29A
100
AcDbEntity
  8
LIVELLO_1
 62
     7
100
AcDbLine
 10
-71.159136
 20
63.174438
 30
0.0
 11
-74.053878
 21
63.174438
 31
0.0
  0
LINE
  5
299
100
AcDbEntity
  8
LIVELLO_1
 62
     7
100
AcDbLine
 10
-74.053878
 20
63.174438
 30
0.0
 11
-74.001857
 21
63.170821
 31
0.0
  0
LINE
  5
298
100
AcDbEntity
  8
LIVELLO_1
 62
     7
100
AcDbLine
 10
-74.001857
 20
63.170821
 30
0.0
 11
-71.143289
 21
63.022682
 31
0.0
  0
POLYLINE
  5
291
100
AcDbEntity
  8
LIVELLO_1
 62
     7
100
AcDb2dPolyline
 66
     1
 10
0.0
 20
0.0
 30
0.0
  0
VERTEX
  5
292
100
AcDbEntity
  8
LIVELLO_1
 62
     7
100
AcDbVertex
100
AcDb2dVertex
 10
-47.386255
 20
20.759973
 30
0.0
  0
VERTEX
  5
293
100
AcDbEntity
  8
LIVELLO_1
 62
     7
100
AcDbVertex
100
AcDb2dVertex
 10
-47.392801
 20
20.759973
 30
0.0
  0
VERTEX
  5
294
100
AcDbEntity
  8
LIVELLO_1
 62
     7
100
AcDbVertex
100
AcDb2dVertex
 10
-47.395729
 20
20.759973
 30
0.0
  0
VERTEX
  5
295
100
AcDbEntity
  8
LIVELLO_1
 62
     7
100
AcDbVertex
100
AcDb2dVertex
 10
-47.405375
 20
20.766347
 30
0.0
  0
VERTEX
  5
296
100
AcDbEntity
  8
LIVELLO_1
 62
     7
100
AcDbVertex
100
AcDb2dVertex
 10
-47.408303
 20
20.766347
 30
0.0
  0
SEQEND
  5
297
100
AcDbEntity
  8
LIVELLO_1
 62
     7
  0
LINE
  5
290
100
AcDbEntity
  8
LIVELLO_1
 62
     7
100
AcDbLine
 10
-46.235593
 20
20.759973
 30
0.0
 11
-47.382982
 21
20.759973
 31
0.0
  0
POLYLINE
  5
289
100
AcDbEntity
  8
LIVELLO_1
 62
     7
100
AcDb2dPolyline
 66
     1
 10
0.0
 20
0.0
 30
0.0
  0
VERTEX
  5
28A
100
AcDbEntity
  8
LIVELLO_1
 62
     7
100
AcDbVertex
100
AcDb2dVertex
 10
-46.235593
 20
20.759973
 30
0.0
  0
VERTEX
  5
28B
100
AcDbEntity
  8
LIVELLO_1
 62
     7
100
AcDbVertex
100
AcDb2dVertex
 10
-46.241966
 20
20.759973
 30
0.0
  0
VERTEX
  5
28C
100
AcDbEntity
  8
LIVELLO_1
 62
     7
100
AcDbVertex
100
AcDb2dVertex
 10
-46.248168
 20
20.759973
 30
0.0
  0
VERTEX
  5
28D
100
AcDbEntity
  8
LIVELLO_1
 62
     7
100
AcDbVertex
100
AcDb2dVertex
 10
-46.25144
 20
20.766347
 30
0.0
  0
VERTEX
  5
28E
100
AcDbEntity
  8
LIVELLO_1
 62
     7
100
AcDbVertex
100
AcDb2dVertex
 10
-46.257986
 20
20.766347
 30
0.0
  0
SEQEND
  5
28F
100
AcDbEntity
  8
LIVELLO_1
 62
     7
  0
POLYLINE
  5
27C
100
AcDbEntity
  8
LIVELLO_1
 62
     7
100
AcDb2dPolyline
 66
     1
 10
0.0
 20
0.0
 30
0.0
  0
VERTEX
  5
27D
100
AcDbEntity
  8
LIVELLO_1
 62
     7
100
AcDbVertex
100
AcDb2dVertex
 10
-67.79724
 20
63.174438
 30
0.0
  0
VERTEX
  5
27E
100
AcDbEntity
  8
LIVELLO_1
 62
     7
100
AcDbVertex
100
AcDb2dVertex
 10
-67.81791
 20
63.177367
 30
0.0
  0
VERTEX
  5
27F
100
AcDbEntity
  8
LIVELLO_1
 62
     7
100
AcDbVertex
100
AcDb2dVertex
 10
-67.837031
 20
63.177367
 30
0.0
  0
VERTEX
  5
280
100
AcDbEntity
  8
LIVELLO_1
 62
     7
100
AcDbVertex
100
AcDb2dVertex
 10
-67.856151
 20
63.186841
 30
0.0
  0
VERTEX
  5
281
100
AcDbEntity
  8
LIVELLO_1
 62
     7
100
AcDbVertex
100
AcDb2dVertex
 10
-67.874927
 20
63.196143
 30
0.0
  0
VERTEX
  5
282
100
AcDbEntity
  8
LIVELLO_1
 62
     7
100
AcDbVertex
100
AcDb2dVertex
 10
-67.895425
 20
63.19976
 30
0.0
  0
VERTEX
  5
283
100
AcDbEntity
  8
LIVELLO_1
 62
     7
100
AcDbVertex
100
AcDb2dVertex
 10
-67.914545
 20
63.212162
 30
0.0
  0
VERTEX
  5
284
100
AcDbEntity
  8
LIVELLO_1
 62
     7
100
AcDbVertex
100
AcDb2dVertex
 10
-67.933493
 20
63.222153
 30
0.0
  0
VERTEX
  5
285
100
AcDbEntity
  8
LIVELLO_1
 62
     7
100
AcDbVertex
100
AcDb2dVertex
 10
-67.949341
 20
63.237311
 30
0.0
  0
VERTEX
  5
286
100
AcDbEntity
  8
LIVELLO_1
 62
     7
100
AcDbVertex
100
AcDb2dVertex
 10
-67.966739
 20
63.250403
 30
0.0
  0
VERTEX
  5
287
100
AcDbEntity
  8
LIVELLO_1
 62
     7
100
AcDbVertex
100
AcDb2dVertex
 10
-67.982586
 20
63.272624
 30
0.0
  0
SEQEND
  5
288
100
AcDbEntity
  8
LIVELLO_1
 62
     7
  0
POLYLINE
  5
26F
100
AcDbEntity
  8
LIVELLO_1
 62
     7
100
AcDb2dPolyline
 66
     1
 10
0.0
 20
0.0
 30
0.0
  0
VERTEX
  5
270
100
AcDbEntity
  8
LIVELLO_1
 62
     7
100
AcDbVertex
100
AcDb2dVertex
 10
-67.982586
 20
63.272624
 30
0.0
  0
VERTEX
  5
271
100
AcDbEntity
  8
LIVELLO_1
 62
     7
100
AcDbVertex
100
AcDb2dVertex
 10
-67.995161
 20
63.288643
 30
0.0
  0
VERTEX
  5
272
100
AcDbEntity
  8
LIVELLO_1
 62
     7
100
AcDbVertex
100
AcDb2dVertex
 10
-68.01118
 20
63.303802
 30
0.0
  0
VERTEX
  5
273
100
AcDbEntity
  8
LIVELLO_1
 62
     7
100
AcDbVertex
100
AcDb2dVertex
 10
-68.022032
 20
63.326195
 30
0.0
  0
VERTEX
  5
274
100
AcDbEntity
  8
LIVELLO_1
 62
     7
100
AcDbVertex
100
AcDb2dVertex
 10
-68.031679
 20
63.348588
 30
0.0
  0
VERTEX
  5
275
100
AcDbEntity
  8
LIVELLO_1
 62
     7
100
AcDbVertex
100
AcDb2dVertex
 10
-68.041153
 20
63.367364
 30
0.0
  0
VERTEX
  5
276
100
AcDbEntity
  8
LIVELLO_1
 62
     7
100
AcDbVertex
100
AcDb2dVertex
 10
-68.050454
 20
63.38614
 30
0.0
  0
VERTEX
  5
277
100
AcDbEntity
  8
LIVELLO_1
 62
     7
100
AcDbVertex
100
AcDb2dVertex
 10
-68.057
 20
63.415078
 30
0.0
  0
VERTEX
  5
278
100
AcDbEntity
  8
LIVELLO_1
 62
     7
100
AcDbVertex
100
AcDb2dVertex
 10
-68.063201
 20
63.433854
 30
0.0
  0
VERTEX
  5
279
100
AcDbEntity
  8
LIVELLO_1
 62
     7
100
AcDbVertex
100
AcDb2dVertex
 10
-68.066474
 20
63.459176
 30
0.0
  0
VERTEX
  5
27A
100
AcDbEntity
  8
LIVELLO_1
 62
     7
100
AcDbVertex
100
AcDb2dVertex
 10
-68.066474
 20
63.481569
 30
0.0
  0
SEQEND
  5
27B
100
AcDbEntity
  8
LIVELLO_1
 62
     7
  0
POLYLINE
  5
258
100
AcDbEntity
  8
LIVELLO_1
 62
     7
100
AcDb2dPolyline
 66
     1
 10
0.0
 20
0.0
 30
0.0
  0
VERTEX
  5
259
100
AcDbEntity
  8
LIVELLO_1
 62
     7
100
AcDbVertex
100
AcDb2dVertex
 10
-64.206245
 20
62.629597
 30
0.0
  0
VERTEX
  5
25A
100
AcDbEntity
  8
LIVELLO_1
 62
     7
100
AcDbVertex
100
AcDb2dVertex
 10
-64.202972
 20
62.68024
 30
0.0
  0
VERTEX
  5
25B
100
AcDbEntity
  8
LIVELLO_1
 62
     7
100
AcDbVertex
100
AcDb2dVertex
 10
-64.196598
 20
62.734328
 30
0.0
  0
VERTEX
  5
25C
100
AcDbEntity
  8
LIVELLO_1
 62
     7
100
AcDbVertex
100
AcDb2dVertex
 10
-64.183851
 20
62.782042
 30
0.0
  0
VERTEX
  5
25D
100
AcDbEntity
  8
LIVELLO_1
 62
     7
100
AcDbVertex
100
AcDb2dVertex
 10
-64.171277
 20
62.823211
 30
0.0
  0
VERTEX
  5
25E
100
AcDbEntity
  8
LIVELLO_1
 62
     7
100
AcDbVertex
100
AcDb2dVertex
 10
-64.150606
 20
62.860935
 30
0.0
  0
VERTEX
  5
25F
100
AcDbEntity
  8
LIVELLO_1
 62
     7
100
AcDbVertex
100
AcDb2dVertex
 10
-64.141305
 20
62.879711
 30
0.0
  0
VERTEX
  5
260
100
AcDbEntity
  8
LIVELLO_1
 62
     7
100
AcDbVertex
100
AcDb2dVertex
 10
-64.131831
 20
62.89263
 30
0.0
  0
VERTEX
  5
261
100
AcDbEntity
  8
LIVELLO_1
 62
     7
100
AcDbVertex
100
AcDb2dVertex
 10
-64.122184
 20
62.911405
 30
0.0
  0
VERTEX
  5
262
100
AcDbEntity
  8
LIVELLO_1
 62
     7
100
AcDbVertex
100
AcDb2dVertex
 10
-64.11271
 20
62.917951
 30
0.0
  0
VERTEX
  5
263
100
AcDbEntity
  8
LIVELLO_1
 62
     7
100
AcDbVertex
100
AcDb2dVertex
 10
-64.098585
 20
62.93087
 30
0.0
  0
VERTEX
  5
264
100
AcDbEntity
  8
LIVELLO_1
 62
     7
100
AcDbVertex
100
AcDb2dVertex
 10
-64.09204
 20
62.936727
 30
0.0
  0
VERTEX
  5
265
100
AcDbEntity
  8
LIVELLO_1
 62
     7
100
AcDbVertex
100
AcDb2dVertex
 10
-64.085838
 20
62.940344
 30
0.0
  0
VERTEX
  5
266
100
AcDbEntity
  8
LIVELLO_1
 62
     7
100
AcDbVertex
100
AcDb2dVertex
 10
-64.082738
 20
62.943273
 30
0.0
  0
VERTEX
  5
267
100
AcDbEntity
  8
LIVELLO_1
 62
     7
100
AcDbVertex
100
AcDb2dVertex
 10
-64.076192
 20
62.943273
 30
0.0
  0
VERTEX
  5
268
100
AcDbEntity
  8
LIVELLO_1
 62
     7
100
AcDbVertex
100
AcDb2dVertex
 10
-64.073264
 20
62.949646
 30
0.0
  0
VERTEX
  5
269
100
AcDbEntity
  8
LIVELLO_1
 62
     7
100
AcDbVertex
100
AcDb2dVertex
 10
-64.063618
 20
62.952747
 30
0.0
  0
VERTEX
  5
26A
100
AcDbEntity
  8
LIVELLO_1
 62
     7
100
AcDbVertex
100
AcDb2dVertex
 10
-64.060689
 20
62.952747
 30
0.0
  0
VERTEX
  5
26B
100
AcDbEntity
  8
LIVELLO_1
 62
     7
100
AcDbVertex
100
AcDb2dVertex
 10
-64.050871
 20
62.952747
 30
0.0
  0
VERTEX
  5
26C
100
AcDbEntity
  8
LIVELLO_1
 62
     7
100
AcDbVertex
100
AcDb2dVertex
 10
-64.047942
 20
62.956192
 30
0.0
  0
VERTEX
  5
26D
100
AcDbEntity
  8
LIVELLO_1
 62
     7
100
AcDbVertex
100
AcDb2dVertex
 10
-64.041569
 20
62.956192
 30
0.0
  0
SEQEND
  5
26E
100
AcDbEntity
  8
LIVELLO_1
 62
     7
  0
LINE
  5
257
100
AcDbEntity
  8
LIVELLO_1
 62
     7
100
AcDbLine
 10
-62.037729
 20
62.911405
 30
0.0
 11
-62.050304
 21
63.048003
 31
0.0
  0
LINE
  5
256
100
AcDbEntity
  8
LIVELLO_1
 62
     7
100
AcDbLine
 10
-62.050304
 20
63.048003
 30
0.0
 11
-62.059778
 21
63.193214
 31
0.0
  0
SPLINE
  5
255
100
AcDbEntity
  8
LIVELLO_1
 62
     7
100
AcDbSpline
210
0.0
220
0.0
230
1.0
 70
     8
 71
     3
 72
     8
 73
     4
 74
     0
 42
0.00000001
 43
0.00000001
 40
0.0
 40
0.0
 40
0.0
 40
0.0
 40
1.0
 40
1.0
 40
1.0
 40
1.0
 10
-62.208605957031246
 20
63.40215928819444
 30
0.0
 10
-62.127990722656243
 20
63.355133734809023
 30
0.0
 10
-62.072696940104159
 20
63.278652615017357
 30
0.0
 10
-62.059777832031244
 20
63.193214246961801
 30
0.0
  0
SPLINE
  5
254
100
AcDbEntity
  8
LIVELLO_1
 62
     7
100
AcDbSpline
210
0.0
220
0.0
230
1.0
 70
     8
 71
     3
 72
     8
 73
     4
 74
     0
 42
0.00000001
 43
0.00000001
 40
0.0
 40
0.0
 40
0.0
 40
0.0
 40
1.0
 40
1.0
 40
1.0
 40
1.0
 10
-62.5172865125868
 20
63.481568739149303
 30
0.0
 10
-62.409799533420134
 20
63.484497070312493
 30
0.0
 10
-62.300417751736106
 20
63.456247287326384
 30
0.0
 10
-62.205333116319437
 20
63.40215928819444
 30
0.0
  0
LINE
  5
253
100
AcDbEntity
  8
LIVELLO_1
 62
     7
100
AcDbLine
 10
-62.517287
 20
63.481569
 30
0.0
 11
-68.066474
 21
63.481569
 31
0.0
  0
SPLINE
  5
252
100
AcDbEntity
  8
LIVELLO_1
 62
     7
100
AcDbSpline
210
0.0
220
0.0
230
1.0
 70
     8
 71
     3
 72
    11
 73
     7
 74
     0
 42
0.00000001
 43
0.00000001
 40
0.0
 40
0.0
 40
0.0
 40
0.0
 40
1.0
 40
1.0
 40
1.0
 40
2.0
 40
2.0
 40
2.0
 40
2.0
 10
-68.384628634982633
 20
63.250402832031241
 30
0.0
 10
-68.372054036458323
 20
63.31034749348958
 30
0.0
 10
-68.345010036892361
 20
63.36099039713541
 30
0.0
 10
-68.300568305121516
 20
63.40215928819444
 30
0.0
 10
-68.235800509982639
 20
63.456247287326384
 30
0.0
 10
-68.155013020833323
 20
63.484497070312493
 30
0.0
 10
-68.066474066840271
 20
63.481568739149303
 30
0.0
  0
LINE
  5
251
100
AcDbEntity
  8
LIVELLO_1
 62
     7
100
AcDbLine
 10
-62.041002
 20
62.956192
 30
0.0
 11
-64.041569
 21
62.956192
 31
0.0
  0
LINE
  5
250
100
AcDbEntity
  8
LIVELLO_1
 62
     7
100
AcDbLine
 10
-62.059778
 20
63.174438
 30
0.0
 11
-67.79724
 21
63.174438
 31
0.0
  0
LINE
  5
24F
100
AcDbEntity
  8
LIVELLO_1
 62
     7
100
AcDbLine
 10
-67.79724
 20
63.174438
 30
0.0
 11
-67.753143
 21
63.170821
 31
0.0
  0
LINE
  5
24E
100
AcDbEntity
  8
LIVELLO_1
 62
     7
100
AcDbLine
 10
-67.753143
 20
63.170821
 30
0.0
 11
-64.041569
 21
62.956192
 31
0.0
  0
LINE
  5
24D
100
AcDbEntity
  8
LIVELLO_1
 62
     7
100
AcDbLine
 10
-42.001743
 20
20.759973
 30
0.0
 11
-44.190929
 21
20.759973
 31
0.0
  0
POLYLINE
  5
23F
100
AcDbEntity
  8
LIVELLO_1
 62
     7
100
AcDb2dPolyline
 66
     1
 10
0.0
 20
0.0
 30
0.0
  0
VERTEX
  5
240
100
AcDbEntity
  8
LIVELLO_1
 62
     7
100
AcDbVertex
100
AcDb2dVertex
 10
-57.052159
 20
63.174438
 30
0.0
  0
VERTEX
  5
241
100
AcDbEntity
  8
LIVELLO_1
 62
     7
100
AcDbVertex
100
AcDb2dVertex
 10
-57.05836
 20
63.174438
 30
0.0
  0
VERTEX
  5
242
100
AcDbEntity
  8
LIVELLO_1
 62
     7
100
AcDbVertex
100
AcDb2dVertex
 10
-57.068007
 20
63.177367
 30
0.0
  0
VERTEX
  5
243
100
AcDbEntity
  8
LIVELLO_1
 62
     7
100
AcDbVertex
100
AcDb2dVertex
 10
-57.085404
 20
63.177367
 30
0.0
  0
VERTEX
  5
244
100
AcDbEntity
  8
LIVELLO_1
 62
     7
100
AcDbVertex
100
AcDb2dVertex
 10
-57.097979
 20
63.186841
 30
0.0
  0
VERTEX
  5
245
100
AcDbEntity
  8
LIVELLO_1
 62
     7
100
AcDbVertex
100
AcDb2dVertex
 10
-57.113826
 20
63.196143
 30
0.0
  0
VERTEX
  5
246
100
AcDbEntity
  8
LIVELLO_1
 62
     7
100
AcDbVertex
100
AcDb2dVertex
 10
-57.126573
 20
63.19976
 30
0.0
  0
VERTEX
  5
247
100
AcDbEntity
  8
LIVELLO_1
 62
     7
100
AcDbVertex
100
AcDb2dVertex
 10
-57.142421
 20
63.212162
 30
0.0
  0
VERTEX
  5
248
100
AcDbEntity
  8
LIVELLO_1
 62
     7
100
AcDbVertex
100
AcDb2dVertex
 10
-57.156546
 20
63.222153
 30
0.0
  0
VERTEX
  5
249
100
AcDbEntity
  8
LIVELLO_1
 62
     7
100
AcDbVertex
100
AcDb2dVertex
 10
-57.172393
 20
63.237311
 30
0.0
  0
VERTEX
  5
24A
100
AcDbEntity
  8
LIVELLO_1
 62
     7
100
AcDbVertex
100
AcDb2dVertex
 10
-57.181867
 20
63.250403
 30
0.0
  0
VERTEX
  5
24B
100
AcDbEntity
  8
LIVELLO_1
 62
     7
100
AcDbVertex
100
AcDb2dVertex
 10
-57.191341
 20
63.272624
 30
0.0
  0
SEQEND
  5
24C
100
AcDbEntity
  8
LIVELLO_1
 62
     7
  0
POLYLINE
  5
233
100
AcDbEntity
  8
LIVELLO_1
 62
     7
100
AcDb2dPolyline
 66
     1
 10
0.0
 20
0.0
 30
0.0
  0
VERTEX
  5
234
100
AcDbEntity
  8
LIVELLO_1
 62
     7
100
AcDbVertex
100
AcDb2dVertex
 10
-57.191341
 20
63.272624
 30
0.0
  0
VERTEX
  5
235
100
AcDbEntity
  8
LIVELLO_1
 62
     7
100
AcDbVertex
100
AcDb2dVertex
 10
-57.20426
 20
63.288643
 30
0.0
  0
VERTEX
  5
236
100
AcDbEntity
  8
LIVELLO_1
 62
     7
100
AcDbVertex
100
AcDb2dVertex
 10
-57.215112
 20
63.303802
 30
0.0
  0
VERTEX
  5
237
100
AcDbEntity
  8
LIVELLO_1
 62
     7
100
AcDbVertex
100
AcDb2dVertex
 10
-57.224586
 20
63.326195
 30
0.0
  0
VERTEX
  5
238
100
AcDbEntity
  8
LIVELLO_1
 62
     7
100
AcDbVertex
100
AcDb2dVertex
 10
-57.234233
 20
63.348588
 30
0.0
  0
VERTEX
  5
239
100
AcDbEntity
  8
LIVELLO_1
 62
     7
100
AcDbVertex
100
AcDb2dVertex
 10
-57.240434
 20
63.37391
 30
0.0
  0
VERTEX
  5
23A
100
AcDbEntity
  8
LIVELLO_1
 62
     7
100
AcDbVertex
100
AcDb2dVertex
 10
-57.25008
 20
63.405604
 30
0.0
  0
VERTEX
  5
23B
100
AcDbEntity
  8
LIVELLO_1
 62
     7
100
AcDbVertex
100
AcDb2dVertex
 10
-57.253008
 20
63.430926
 30
0.0
  0
VERTEX
  5
23C
100
AcDbEntity
  8
LIVELLO_1
 62
     7
100
AcDbVertex
100
AcDb2dVertex
 10
-57.259554
 20
63.456247
 30
0.0
  0
VERTEX
  5
23D
100
AcDbEntity
  8
LIVELLO_1
 62
     7
100
AcDbVertex
100
AcDb2dVertex
 10
-57.259554
 20
63.481569
 30
0.0
  0
SEQEND
  5
23E
100
AcDbEntity
  8
LIVELLO_1
 62
     7
  0
POLYLINE
  5
21B
100
AcDbEntity
  8
LIVELLO_1
 62
     7
100
AcDb2dPolyline
 66
     1
 10
0.0
 20
0.0
 30
0.0
  0
VERTEX
  5
21C
100
AcDbEntity
  8
LIVELLO_1
 62
     7
100
AcDbVertex
100
AcDb2dVertex
 10
-54.320371
 20
62.629597
 30
0.0
  0
VERTEX
  5
21D
100
AcDbEntity
  8
LIVELLO_1
 62
     7
100
AcDbVertex
100
AcDb2dVertex
 10
-54.320371
 20
62.654918
 30
0.0
  0
VERTEX
  5
21E
100
AcDbEntity
  8
LIVELLO_1
 62
     7
100
AcDbVertex
100
AcDb2dVertex
 10
-54.313825
 20
62.68024
 30
0.0
  0
VERTEX
  5
21F
100
AcDbEntity
  8
LIVELLO_1
 62
     7
100
AcDbVertex
100
AcDb2dVertex
 10
-54.306246
 20
62.705561
 30
0.0
  0
VERTEX
  5
220
100
AcDbEntity
  8
LIVELLO_1
 62
     7
100
AcDbVertex
100
AcDb2dVertex
 10
-54.302973
 20
62.734328
 30
0.0
  0
VERTEX
  5
221
100
AcDbEntity
  8
LIVELLO_1
 62
     7
100
AcDbVertex
100
AcDb2dVertex
 10
-54.293327
 20
62.756721
 30
0.0
  0
VERTEX
  5
222
100
AcDbEntity
  8
LIVELLO_1
 62
     7
100
AcDbVertex
100
AcDb2dVertex
 10
-54.287126
 20
62.782042
 30
0.0
  0
VERTEX
  5
223
100
AcDbEntity
  8
LIVELLO_1
 62
     7
100
AcDbVertex
100
AcDb2dVertex
 10
-54.277652
 20
62.800818
 30
0.0
  0
VERTEX
  5
224
100
AcDbEntity
  8
LIVELLO_1
 62
     7
100
AcDbVertex
100
AcDb2dVertex
 10
-54.265077
 20
62.823211
 30
0.0
  0
VERTEX
  5
225
100
AcDbEntity
  8
LIVELLO_1
 62
     7
100
AcDbVertex
100
AcDb2dVertex
 10
-54.25233
 20
62.838542
 30
0.0
  0
VERTEX
  5
226
100
AcDbEntity
  8
LIVELLO_1
 62
     7
100
AcDbVertex
100
AcDb2dVertex
 10
-54.241134
 20
62.860935
 30
0.0
  0
VERTEX
  5
227
100
AcDbEntity
  8
LIVELLO_1
 62
     7
100
AcDbVertex
100
AcDb2dVertex
 10
-54.225286
 20
62.879711
 30
0.0
  0
VERTEX
  5
228
100
AcDbEntity
  8
LIVELLO_1
 62
     7
100
AcDbVertex
100
AcDb2dVertex
 10
-54.209439
 20
62.89263
 30
0.0
  0
VERTEX
  5
229
100
AcDbEntity
  8
LIVELLO_1
 62
     7
100
AcDbVertex
100
AcDb2dVertex
 10
-54.193591
 20
62.911405
 30
0.0
  0
VERTEX
  5
22A
100
AcDbEntity
  8
LIVELLO_1
 62
     7
100
AcDbVertex
100
AcDb2dVertex
 10
-54.177916
 20
62.917951
 30
0.0
  0
VERTEX
  5
22B
100
AcDbEntity
  8
LIVELLO_1
 62
     7
100
AcDbVertex
100
AcDb2dVertex
 10
-54.160346
 20
62.93087
 30
0.0
  0
VERTEX
  5
22C
100
AcDbEntity
  8
LIVELLO_1
 62
     7
100
AcDbVertex
100
AcDb2dVertex
 10
-54.14157
 20
62.940344
 30
0.0
  0
VERTEX
  5
22D
100
AcDbEntity
  8
LIVELLO_1
 62
     7
100
AcDbVertex
100
AcDb2dVertex
 10
-54.125551
 20
62.943273
 30
0.0
  0
VERTEX
  5
22E
100
AcDbEntity
  8
LIVELLO_1
 62
     7
100
AcDbVertex
100
AcDb2dVertex
 10
-54.105052
 20
62.952747
 30
0.0
  0
VERTEX
  5
22F
100
AcDbEntity
  8
LIVELLO_1
 62
     7
100
AcDbVertex
100
AcDb2dVertex
 10
-54.089205
 20
62.952747
 30
0.0
  0
VERTEX
  5
230
100
AcDbEntity
  8
LIVELLO_1
 62
     7
100
AcDbVertex
100
AcDb2dVertex
 10
-54.079731
 20
62.956192
 30
0.0
  0
VERTEX
  5
231
100
AcDbEntity
  8
LIVELLO_1
 62
     7
100
AcDbVertex
100
AcDb2dVertex
 10
-54.070257
 20
62.956192
 30
0.0
  0
SEQEND
  5
232
100
AcDbEntity
  8
LIVELLO_1
 62
     7
  0
LINE
  5
21A
100
AcDbEntity
  8
LIVELLO_1
 62
     7
100
AcDbLine
 10
-49.016474
 20
62.911405
 30
0.0
 11
-49.029049
 21
63.048003
 31
0.0
  0
LINE
  5
219
100
AcDbEntity
  8
LIVELLO_1
 62
     7
100
AcDbLine
 10
-49.029049
 20
63.048003
 30
0.0
 11
-49.038867
 21
63.193214
 31
0.0
  0
SPLINE
  5
218
100
AcDbEntity
  8
LIVELLO_1
 62
     7
100
AcDbSpline
210
0.0
220
0.0
230
1.0
 70
     8
 71
     3
 72
     8
 73
     4
 74
     0
 42
0.00000001
 43
0.00000001
 40
0.0
 40
0.0
 40
0.0
 40
0.0
 40
1.0
 40
1.0
 40
1.0
 40
1.0
 10
-49.22059597439236
 20
63.40215928819444
 30
0.0
 10
-49.127406141493054
 20
63.364435492621524
 30
0.0
 10
-49.056264919704859
 20
63.288643391927074
 30
0.0
 10
-49.032321506076386
 20
63.193214246961801
 30
0.0
  0
SPLINE
  5
217
100
AcDbEntity
  8
LIVELLO_1
 62
     7
100
AcDbSpline
210
0.0
220
0.0
230
1.0
 70
     8
 71
     3
 72
     8
 73
     4
 74
     0
 42
0.00000001
 43
0.00000001
 40
0.0
 40
0.0
 40
0.0
 40
0.0
 40
1.0
 40
1.0
 40
1.0
 40
1.0
 10
-49.619538031684023
 20
63.481568739149303
 30
0.0
 10
-49.480356174045134
 20
63.484497070312493
 30
0.0
 10
-49.344102647569443
 20
63.456247287326384
 30
0.0
 10
-49.217667643229163
 20
63.405604383680547
 30
0.0
  0
LINE
  5
216
100
AcDbEntity
  8
LIVELLO_1
 62
     7
100
AcDbLine
 10
-49.619538
 20
63.481569
 30
0.0
 11
-57.259554
 21
63.481569
 31
0.0
  0
SPLINE
  5
215
100
AcDbEntity
  8
LIVELLO_1
 62
     7
100
AcDbSpline
210
0.0
220
0.0
230
1.0
 70
     8
 71
     3
 72
     8
 73
     4
 74
     0
 42
0.00000001
 43
0.00000001
 40
0.0
 40
0.0
 40
0.0
 40
0.0
 40
1.0
 40
1.0
 40
1.0
 40
1.0
 10
-57.6028578016493
 20
63.405604383680547
 30
0.0
 10
-57.500193956163187
 20
63.456247287326384
 30
0.0
 10
-57.379787868923607
 20
63.484497070312493
 30
0.0
 10
-57.259554036458326
 20
63.481568739149303
 30
0.0
  0
SPLINE
  5
214
100
AcDbEntity
  8
LIVELLO_1
 62
     7
100
AcDbSpline
210
0.0
220
0.0
230
1.0
 70
     8
 71
     3
 72
     8
 73
     4
 74
     0
 42
0.00000001
 43
0.00000001
 40
0.0
 40
0.0
 40
0.0
 40
0.0
 40
1.0
 40
1.0
 40
1.0
 40
1.0
 10
-57.742211914062494
 20
63.193214246961801
 30
0.0
 10
-57.735666232638884
 20
63.278652615017357
 30
0.0
 10
-57.683645290798609
 20
63.36099039713541
 30
0.0
 10
-57.6028578016493
 20
63.40215928819444
 30
0.0
  0
LINE
  5
213
100
AcDbEntity
  8
LIVELLO_1
 62
     7
100
AcDbLine
 10
-57.738939
 20
63.193214
 30
0.0
 11
-57.735666
 21
63.048003
 31
0.0
  0
LINE
  5
212
100
AcDbEntity
  8
LIVELLO_1
 62
     7
100
AcDbLine
 10
-57.729637
 20
62.911405
 30
0.0
 11
-57.735666
 21
63.048003
 31
0.0
  0
LINE
  5
211
100
AcDbEntity
  8
LIVELLO_1
 62
     7
100
AcDbLine
 10
-49.019747
 20
62.956192
 30
0.0
 11
-54.070257
 21
62.956192
 31
0.0
  0
LINE
  5
210
100
AcDbEntity
  8
LIVELLO_1
 62
     7
100
AcDbLine
 10
-49.038867
 20
63.174438
 30
0.0
 11
-57.052159
 21
63.174438
 31
0.0
  0
LINE
  5
20F
100
AcDbEntity
  8
LIVELLO_1
 62
     7
100
AcDbLine
 10
-57.052159
 20
63.174438
 30
0.0
 11
-57.017364
 21
63.170821
 31
0.0
  0
LINE
  5
20E
100
AcDbEntity
  8
LIVELLO_1
 62
     7
100
AcDbLine
 10
-57.017364
 20
63.170821
 30
0.0
 11
-54.070257
 21
62.956192
 31
0.0
  0
POLYLINE
  5
206
100
AcDbEntity
  8
LIVELLO_1
 62
     7
100
AcDb2dPolyline
 66
     1
 10
0.0
 20
0.0
 30
0.0
  0
VERTEX
  5
207
100
AcDbEntity
  8
LIVELLO_1
 62
     7
100
AcDbVertex
100
AcDb2dVertex
 10
-35.808495
 20
20.759973
 30
0.0
  0
VERTEX
  5
208
100
AcDbEntity
  8
LIVELLO_1
 62
     7
100
AcDbVertex
100
AcDb2dVertex
 10
-38.818991
 20
20.759973
 30
0.0
  0
VERTEX
  5
209
100
AcDbEntity
  8
LIVELLO_1
 62
     7
100
AcDbVertex
100
AcDb2dVertex
 10
-38.822092
 20
20.759973
 30
0.0
  0
VERTEX
  5
20A
100
AcDbEntity
  8
LIVELLO_1
 62
     7
100
AcDbVertex
100
AcDb2dVertex
 10
-38.828465
 20
20.759973
 30
0.0
  0
VERTEX
  5
20B
100
AcDbEntity
  8
LIVELLO_1
 62
     7
100
AcDbVertex
100
AcDb2dVertex
 10
-38.831738
 20
20.766347
 30
0.0
  0
VERTEX
  5
20C
100
AcDbEntity
  8
LIVELLO_1
 62
     7
100
AcDbVertex
100
AcDb2dVertex
 10
-38.834667
 20
20.766347
 30
0.0
  0
SEQEND
  5
20D
100
AcDbEntity
  8
LIVELLO_1
 62
     7
  0
POLYLINE
  5
200
100
AcDbEntity
  8
LIVELLO_1
 62
     7
100
AcDb2dPolyline
 66
     1
 10
0.0
 20
0.0
 30
0.0
  0
VERTEX
  5
201
100
AcDbEntity
  8
LIVELLO_1
 62
     7
100
AcDbVertex
100
AcDb2dVertex
 10
-35.808495
 20
20.759973
 30
0.0
  0
VERTEX
  5
202
100
AcDbEntity
  8
LIVELLO_1
 62
     7
100
AcDbVertex
100
AcDb2dVertex
 10
-35.808495
 20
20.759973
 30
0.0
  0
VERTEX
  5
203
100
AcDbEntity
  8
LIVELLO_1
 62
     7
100
AcDbVertex
100
AcDb2dVertex
 10
-35.814868
 20
20.759973
 30
0.0
  0
VERTEX
  5
204
100
AcDbEntity
  8
LIVELLO_1
 62
     7
100
AcDbVertex
100
AcDb2dVertex
 10
-35.818141
 20
20.766347
 30
0.0
  0
SEQEND
  5
205
100
AcDbEntity
  8
LIVELLO_1
 62
     7
  0
POLYLINE
  5
1EF
100
AcDbEntity
  8
LIVELLO_1
 62
     7
100
AcDb2dPolyline
 66
     1
 10
0.0
 20
0.0
 30
0.0
  0
VERTEX
  5
1F0
100
AcDbEntity
  8
LIVELLO_1
 62
     7
100
AcDbVertex
100
AcDb2dVertex
 10
-42.870768
 20
63.174438
 30
0.0
  0
VERTEX
  5
1F1
100
AcDbEntity
  8
LIVELLO_1
 62
     7
100
AcDbVertex
100
AcDb2dVertex
 10
-42.874041
 20
63.174438
 30
0.0
  0
VERTEX
  5
1F2
100
AcDbEntity
  8
LIVELLO_1
 62
     7
100
AcDbVertex
100
AcDb2dVertex
 10
-42.877142
 20
63.177367
 30
0.0
  0
VERTEX
  5
1F3
100
AcDbEntity
  8
LIVELLO_1
 62
     7
100
AcDbVertex
100
AcDb2dVertex
 10
-42.883343
 20
63.177367
 30
0.0
  0
VERTEX
  5
1F4
100
AcDbEntity
  8
LIVELLO_1
 62
     7
100
AcDbVertex
100
AcDb2dVertex
 10
-42.886616
 20
63.177367
 30
0.0
  0
VERTEX
  5
1F5
100
AcDbEntity
  8
LIVELLO_1
 62
     7
100
AcDbVertex
100
AcDb2dVertex
 10
-42.889889
 20
63.183912
 30
0.0
  0
VERTEX
  5
1F6
100
AcDbEntity
  8
LIVELLO_1
 62
     7
100
AcDbVertex
100
AcDb2dVertex
 10
-42.89609
 20
63.186841
 30
0.0
  0
VERTEX
  5
1F7
100
AcDbEntity
  8
LIVELLO_1
 62
     7
100
AcDbVertex
100
AcDb2dVertex
 10
-42.900741
 20
63.193214
 30
0.0
  0
VERTEX
  5
1F8
100
AcDbEntity
  8
LIVELLO_1
 62
     7
100
AcDbVertex
100
AcDb2dVertex
 10
-42.907286
 20
63.196143
 30
0.0
  0
VERTEX
  5
1F9
100
AcDbEntity
  8
LIVELLO_1
 62
     7
100
AcDbVertex
100
AcDb2dVertex
 10
-42.913315
 20
63.19976
 30
0.0
  0
VERTEX
  5
1FA
100
AcDbEntity
  8
LIVELLO_1
 62
     7
100
AcDbVertex
100
AcDb2dVertex
 10
-42.923134
 20
63.212162
 30
0.0
  0
VERTEX
  5
1FB
100
AcDbEntity
  8
LIVELLO_1
 62
     7
100
AcDbVertex
100
AcDb2dVertex
 10
-42.932435
 20
63.222153
 30
0.0
  0
VERTEX
  5
1FC
100
AcDbEntity
  8
LIVELLO_1
 62
     7
100
AcDbVertex
100
AcDb2dVertex
 10
-42.938637
 20
63.237311
 30
0.0
  0
VERTEX
  5
1FD
100
AcDbEntity
  8
LIVELLO_1
 62
     7
100
AcDbVertex
100
AcDb2dVertex
 10
-42.948455
 20
63.250403
 30
0.0
  0
VERTEX
  5
1FE
100
AcDbEntity
  8
LIVELLO_1
 62
     7
100
AcDbVertex
100
AcDb2dVertex
 10
-42.951383
 20
63.272624
 30
0.0
  0
SEQEND
  5
1FF
100
AcDbEntity
  8
LIVELLO_1
 62
     7
  0
POLYLINE
  5
1E7
100
AcDbEntity
  8
LIVELLO_1
 62
     7
100
AcDb2dPolyline
 66
     1
 10
0.0
 20
0.0
 30
0.0
  0
VERTEX
  5
1E8
100
AcDbEntity
  8
LIVELLO_1
 62
     7
100
AcDbVertex
100
AcDb2dVertex
 10
-42.951383
 20
63.272624
 30
0.0
  0
VERTEX
  5
1E9
100
AcDbEntity
  8
LIVELLO_1
 62
     7
100
AcDbVertex
100
AcDb2dVertex
 10
-42.965681
 20
63.291572
 30
0.0
  0
VERTEX
  5
1EA
100
AcDbEntity
  8
LIVELLO_1
 62
     7
100
AcDbVertex
100
AcDb2dVertex
 10
-42.978427
 20
63.342042
 30
0.0
  0
VERTEX
  5
1EB
100
AcDbEntity
  8
LIVELLO_1
 62
     7
100
AcDbVertex
100
AcDb2dVertex
 10
-42.984629
 20
63.392685
 30
0.0
  0
VERTEX
  5
1EC
100
AcDbEntity
  8
LIVELLO_1
 62
     7
100
AcDbVertex
100
AcDb2dVertex
 10
-42.991002
 20
63.456247
 30
0.0
  0
VERTEX
  5
1ED
100
AcDbEntity
  8
LIVELLO_1
 62
     7
100
AcDbVertex
100
AcDb2dVertex
 10
-42.994275
 20
63.481569
 30
0.0
  0
SEQEND
  5
1EE
100
AcDbEntity
  8
LIVELLO_1
 62
     7
  0
POLYLINE
  5
1D0
100
AcDbEntity
  8
LIVELLO_1
 62
     7
100
AcDb2dPolyline
 66
     1
 10
0.0
 20
0.0
 30
0.0
  0
VERTEX
  5
1D1
100
AcDbEntity
  8
LIVELLO_1
 62
     7
100
AcDbVertex
100
AcDb2dVertex
 10
-41.262598
 20
62.629597
 30
0.0
  0
VERTEX
  5
1D2
100
AcDbEntity
  8
LIVELLO_1
 62
     7
100
AcDbVertex
100
AcDb2dVertex
 10
-41.259669
 20
62.654918
 30
0.0
  0
VERTEX
  5
1D3
100
AcDbEntity
  8
LIVELLO_1
 62
     7
100
AcDbVertex
100
AcDb2dVertex
 10
-41.253124
 20
62.68024
 30
0.0
  0
VERTEX
  5
1D4
100
AcDbEntity
  8
LIVELLO_1
 62
     7
100
AcDbVertex
100
AcDb2dVertex
 10
-41.250023
 20
62.705561
 30
0.0
  0
VERTEX
  5
1D5
100
AcDbEntity
  8
LIVELLO_1
 62
     7
100
AcDbVertex
100
AcDb2dVertex
 10
-41.243822
 20
62.734328
 30
0.0
  0
VERTEX
  5
1D6
100
AcDbEntity
  8
LIVELLO_1
 62
     7
100
AcDbVertex
100
AcDb2dVertex
 10
-41.234003
 20
62.756721
 30
0.0
  0
VERTEX
  5
1D7
100
AcDbEntity
  8
LIVELLO_1
 62
     7
100
AcDbVertex
100
AcDb2dVertex
 10
-41.224702
 20
62.782042
 30
0.0
  0
VERTEX
  5
1D8
100
AcDbEntity
  8
LIVELLO_1
 62
     7
100
AcDbVertex
100
AcDb2dVertex
 10
-41.211955
 20
62.800818
 30
0.0
  0
VERTEX
  5
1D9
100
AcDbEntity
  8
LIVELLO_1
 62
     7
100
AcDbVertex
100
AcDb2dVertex
 10
-41.19783
 20
62.823211
 30
0.0
  0
VERTEX
  5
1DA
100
AcDbEntity
  8
LIVELLO_1
 62
     7
100
AcDbVertex
100
AcDb2dVertex
 10
-41.181982
 20
62.838542
 30
0.0
  0
VERTEX
  5
1DB
100
AcDbEntity
  8
LIVELLO_1
 62
     7
100
AcDbVertex
100
AcDb2dVertex
 10
-41.166135
 20
62.860935
 30
0.0
  0
VERTEX
  5
1DC
100
AcDbEntity
  8
LIVELLO_1
 62
     7
100
AcDbVertex
100
AcDb2dVertex
 10
-41.147015
 20
62.879711
 30
0.0
  0
VERTEX
  5
1DD
100
AcDbEntity
  8
LIVELLO_1
 62
     7
100
AcDbVertex
100
AcDb2dVertex
 10
-41.129617
 20
62.89263
 30
0.0
  0
VERTEX
  5
1DE
100
AcDbEntity
  8
LIVELLO_1
 62
     7
100
AcDbVertex
100
AcDb2dVertex
 10
-41.107568
 20
62.911405
 30
0.0
  0
VERTEX
  5
1DF
100
AcDbEntity
  8
LIVELLO_1
 62
     7
100
AcDbVertex
100
AcDb2dVertex
 10
-41.088448
 20
62.917951
 30
0.0
  0
VERTEX
  5
1E0
100
AcDbEntity
  8
LIVELLO_1
 62
     7
100
AcDbVertex
100
AcDb2dVertex
 10
-41.06795
 20
62.93087
 30
0.0
  0
VERTEX
  5
1E1
100
AcDbEntity
  8
LIVELLO_1
 62
     7
100
AcDbVertex
100
AcDb2dVertex
 10
-41.045729
 20
62.940344
 30
0.0
  0
VERTEX
  5
1E2
100
AcDbEntity
  8
LIVELLO_1
 62
     7
100
AcDbVertex
100
AcDb2dVertex
 10
-41.02368
 20
62.943273
 30
0.0
  0
VERTEX
  5
1E3
100
AcDbEntity
  8
LIVELLO_1
 62
     7
100
AcDbVertex
100
AcDb2dVertex
 10
-40.999909
 20
62.952747
 30
0.0
  0
VERTEX
  5
1E4
100
AcDbEntity
  8
LIVELLO_1
 62
     7
100
AcDbVertex
100
AcDb2dVertex
 10
-40.977861
 20
62.952747
 30
0.0
  0
VERTEX
  5
1E5
100
AcDbEntity
  8
LIVELLO_1
 62
     7
100
AcDbVertex
100
AcDb2dVertex
 10
-40.955467
 20
62.956192
 30
0.0
  0
SEQEND
  5
1E6
100
AcDbEntity
  8
LIVELLO_1
 62
     7
  0
LINE
  5
1CF
100
AcDbEntity
  8
LIVELLO_1
 62
     7
100
AcDbLine
 10
-33.347319
 20
62.911405
 30
0.0
 11
-33.353692
 21
63.048003
 31
0.0
  0
LINE
  5
1CE
100
AcDbEntity
  8
LIVELLO_1
 62
     7
100
AcDbLine
 10
-33.353692
 20
63.048003
 30
0.0
 11
-33.360238
 21
63.193214
 31
0.0
  0
SPLINE
  5
1CD
100
AcDbEntity
  8
LIVELLO_1
 62
     7
100
AcDbSpline
210
0.0
220
0.0
230
1.0
 70
     8
 71
     3
 72
     8
 73
     4
 74
     0
 42
0.00000001
 43
0.00000001
 40
0.0
 40
0.0
 40
0.0
 40
0.0
 40
1.0
 40
1.0
 40
1.0
 40
1.0
 10
-33.561086697048609
 20
63.392685275607633
 30
0.0
 10
-33.458078342013884
 20
63.367363823784714
 30
0.0
 10
-33.38073594835069
 20
63.291571723090271
 30
0.0
 10
-33.353691948784721
 20
63.193214246961801
 30
0.0
  0
SPLINE
  5
1CC
100
AcDbEntity
  8
LIVELLO_1
 62
     7
100
AcDbSpline
210
0.0
220
0.0
230
1.0
 70
     8
 71
     3
 72
    14
 73
    10
 74
     0
 42
0.00000001
 43
0.00000001
 40
0.0
 40
0.0
 40
0.0
 40
0.0
 40
1.0
 40
1.0
 40
1.0
 40
2.0
 40
2.0
 40
2.0
 40
3.0
 40
3.0
 40
3.0
 40
3.0
 10
-43.415265570746527
 20
63.405604383680547
 30
0.0
 10
-43.285557725694439
 20
63.456247287326384
 30
0.0
 10
-43.13983018663194
 20
63.484497070312493
 30
0.0
 10
-42.994274902343747
 20
63.481568739149303
 30
0.0
 10
-42.994274902343747
 20
63.481568739149303
 30
0.0
 10
-34.012049696180554
 20
63.481568739149303
 30
0.0
 10
-34.012049696180554
 20
63.481568739149303
 30
0.0
 10
-33.857020399305554
 20
63.484497070312493
 30
0.0
 10
-33.703541395399306
 20
63.456247287326384
 30
0.0
 10
-33.5578138563368
 20
63.405604383680547
 30
0.0
  0
SPLINE
  5
1CB
100
AcDbEntity
  8
LIVELLO_1
 62
     7
100
AcDbSpline
210
0.0
220
0.0
230
1.0
 70
     8
 71
     3
 72
     8
 73
     4
 74
     0
 42
0.00000001
 43
0.00000001
 40
0.0
 40
0.0
 40
0.0
 40
0.0
 40
1.0
 40
1.0
 40
1.0
 40
1.0
 10
-43.590793185763886
 20
63.193214246961801
 30
0.0
 10
-43.578218587239583
 20
63.291571723090271
 30
0.0
 10
-43.510177951388883
 20
63.367363823784714
 30
0.0
 10
-43.415265570746527
 20
63.392685275607633
 30
0.0
  0
LINE
  5
1CA
100
AcDbEntity
  8
LIVELLO_1
 62
     7
100
AcDbLine
 10
-43.590793
 20
63.193214
 30
0.0
 11
-43.590793
 21
63.048003
 31
0.0
  0
LINE
  5
1C9
100
AcDbEntity
  8
LIVELLO_1
 62
     7
100
AcDbLine
 10
-43.587865
 20
62.911405
 30
0.0
 11
-43.590793
 21
63.048003
 31
0.0
  0
LINE
  5
1C8
100
AcDbEntity
  8
LIVELLO_1
 62
     7
100
AcDbLine
 10
-40.955467
 20
62.956192
 30
0.0
 11
-33.350419
 21
62.956192
 31
0.0
  0
LINE
  5
1C7
100
AcDbEntity
  8
LIVELLO_1
 62
     7
100
AcDbLine
 10
-33.940908
 20
63.174438
 30
0.0
 11
-33.934707
 21
63.170821
 31
0.0
  0
LINE
  5
1C6
100
AcDbEntity
  8
LIVELLO_1
 62
     7
100
AcDbLine
 10
-42.870768
 20
63.174438
 30
0.0
 11
-33.360238
 21
63.174438
 31
0.0
  0
LINE
  5
1C5
100
AcDbEntity
  8
LIVELLO_1
 62
     7
100
AcDbLine
 10
-42.870768
 20
63.174438
 30
0.0
 11
-42.845447
 21
63.170821
 31
0.0
  0
LINE
  5
1C4
100
AcDbEntity
  8
LIVELLO_1
 62
     7
100
AcDbLine
 10
-42.845447
 20
63.170821
 30
0.0
 11
-40.955467
 21
62.956192
 31
0.0
  0
POLYLINE
  5
1BD
100
AcDbEntity
  8
LIVELLO_1
 62
     7
100
AcDb2dPolyline
 66
     1
 10
0.0
 20
0.0
 30
0.0
  0
VERTEX
  5
1BE
100
AcDbEntity
  8
LIVELLO_1
 62
     7
100
AcDbVertex
100
AcDb2dVertex
 10
-31.794786
 20
20.759973
 30
0.0
  0
VERTEX
  5
1BF
100
AcDbEntity
  8
LIVELLO_1
 62
     7
100
AcDbVertex
100
AcDb2dVertex
 10
-31.794786
 20
20.759973
 30
0.0
  0
VERTEX
  5
1C0
100
AcDbEntity
  8
LIVELLO_1
 62
     7
100
AcDbVertex
100
AcDb2dVertex
 10
-31.80116
 20
20.759973
 30
0.0
  0
VERTEX
  5
1C1
100
AcDbEntity
  8
LIVELLO_1
 62
     7
100
AcDbVertex
100
AcDb2dVertex
 10
-31.80116
 20
20.766347
 30
0.0
  0
VERTEX
  5
1C2
100
AcDbEntity
  8
LIVELLO_1
 62
     7
100
AcDbVertex
100
AcDb2dVertex
 10
-31.804088
 20
20.766347
 30
0.0
  0
SEQEND
  5
1C3
100
AcDbEntity
  8
LIVELLO_1
 62
     7
  0
LINE
  5
1BC
100
AcDbEntity
  8
LIVELLO_1
 62
     7
100
AcDbLine
 10
-31.794786
 20
20.759973
 30
0.0
 11
-28.255812
 21
20.759973
 31
0.0
  0
POLYLINE
  5
1B6
100
AcDbEntity
  8
LIVELLO_1
 62
     7
100
AcDb2dPolyline
 66
     1
 10
0.0
 20
0.0
 30
0.0
  0
VERTEX
  5
1B7
100
AcDbEntity
  8
LIVELLO_1
 62
     7
100
AcDbVertex
100
AcDb2dVertex
 10
-28.255812
 20
20.759973
 30
0.0
  0
VERTEX
  5
1B8
100
AcDbEntity
  8
LIVELLO_1
 62
     7
100
AcDbVertex
100
AcDb2dVertex
 10
-28.255812
 20
20.759973
 30
0.0
  0
VERTEX
  5
1B9
100
AcDbEntity
  8
LIVELLO_1
 62
     7
100
AcDbVertex
100
AcDb2dVertex
 10
-28.258912
 20
20.759973
 30
0.0
  0
VERTEX
  5
1BA
100
AcDbEntity
  8
LIVELLO_1
 62
     7
100
AcDbVertex
100
AcDb2dVertex
 10
-28.258912
 20
20.766347
 30
0.0
  0
SEQEND
  5
1BB
100
AcDbEntity
  8
LIVELLO_1
 62
     7
  0
POLYLINE
  5
1AA
100
AcDbEntity
  8
LIVELLO_1
 62
     7
100
AcDb2dPolyline
 66
     1
 10
0.0
 20
0.0
 30
0.0
  0
VERTEX
  5
1AB
100
AcDbEntity
  8
LIVELLO_1
 62
     7
100
AcDbVertex
100
AcDb2dVertex
 10
-26.638167
 20
63.174438
 30
0.0
  0
VERTEX
  5
1AC
100
AcDbEntity
  8
LIVELLO_1
 62
     7
100
AcDbVertex
100
AcDb2dVertex
 10
-26.638167
 20
63.174438
 30
0.0
  0
VERTEX
  5
1AD
100
AcDbEntity
  8
LIVELLO_1
 62
     7
100
AcDbVertex
100
AcDb2dVertex
 10
-26.64144
 20
63.174438
 30
0.0
  0
VERTEX
  5
1AE
100
AcDbEntity
  8
LIVELLO_1
 62
     7
100
AcDbVertex
100
AcDb2dVertex
 10
-26.64144
 20
63.177367
 30
0.0
  0
VERTEX
  5
1AF
100
AcDbEntity
  8
LIVELLO_1
 62
     7
100
AcDbVertex
100
AcDb2dVertex
 10
-26.644368
 20
63.177367
 30
0.0
  0
VERTEX
  5
1B0
100
AcDbEntity
  8
LIVELLO_1
 62
     7
100
AcDbVertex
100
AcDb2dVertex
 10
-26.647641
 20
63.186841
 30
0.0
  0
VERTEX
  5
1B1
100
AcDbEntity
  8
LIVELLO_1
 62
     7
100
AcDbVertex
100
AcDb2dVertex
 10
-26.647641
 20
63.196143
 30
0.0
  0
VERTEX
  5
1B2
100
AcDbEntity
  8
LIVELLO_1
 62
     7
100
AcDbVertex
100
AcDb2dVertex
 10
-26.650914
 20
63.222153
 30
0.0
  0
VERTEX
  5
1B3
100
AcDbEntity
  8
LIVELLO_1
 62
     7
100
AcDbVertex
100
AcDb2dVertex
 10
-26.657115
 20
63.253331
 30
0.0
  0
VERTEX
  5
1B4
100
AcDbEntity
  8
LIVELLO_1
 62
     7
100
AcDbVertex
100
AcDb2dVertex
 10
-26.657115
 20
63.272624
 30
0.0
  0
SEQEND
  5
1B5
100
AcDbEntity
  8
LIVELLO_1
 62
     7
  0
POLYLINE
  5
1A3
100
AcDbEntity
  8
LIVELLO_1
 62
     7
100
AcDb2dPolyline
 66
     1
 10
0.0
 20
0.0
 30
0.0
  0
VERTEX
  5
1A4
100
AcDbEntity
  8
LIVELLO_1
 62
     7
100
AcDbVertex
100
AcDb2dVertex
 10
-26.657115
 20
63.272624
 30
0.0
  0
VERTEX
  5
1A5
100
AcDbEntity
  8
LIVELLO_1
 62
     7
100
AcDbVertex
100
AcDb2dVertex
 10
-26.663489
 20
63.316893
 30
0.0
  0
VERTEX
  5
1A6
100
AcDbEntity
  8
LIVELLO_1
 62
     7
100
AcDbVertex
100
AcDb2dVertex
 10
-26.663489
 20
63.367364
 30
0.0
  0
VERTEX
  5
1A7
100
AcDbEntity
  8
LIVELLO_1
 62
     7
100
AcDbVertex
100
AcDb2dVertex
 10
-26.66969
 20
63.427481
 30
0.0
  0
VERTEX
  5
1A8
100
AcDbEntity
  8
LIVELLO_1
 62
     7
100
AcDbVertex
100
AcDb2dVertex
 10
-26.66969
 20
63.481569
 30
0.0
  0
SEQEND
  5
1A9
100
AcDbEntity
  8
LIVELLO_1
 62
     7
  0
POLYLINE
  5
19C
100
AcDbEntity
  8
LIVELLO_1
 62
     7
100
AcDb2dPolyline
 66
     1
 10
0.0
 20
0.0
 30
0.0
  0
VERTEX
  5
19D
100
AcDbEntity
  8
LIVELLO_1
 62
     7
100
AcDbVertex
100
AcDb2dVertex
 10
-17.223755
 20
63.481569
 30
0.0
  0
VERTEX
  5
19E
100
AcDbEntity
  8
LIVELLO_1
 62
     7
100
AcDbVertex
100
AcDb2dVertex
 10
-17.227028
 20
63.427481
 30
0.0
  0
VERTEX
  5
19F
100
AcDbEntity
  8
LIVELLO_1
 62
     7
100
AcDbVertex
100
AcDb2dVertex
 10
-17.227028
 20
63.367364
 30
0.0
  0
VERTEX
  5
1A0
100
AcDbEntity
  8
LIVELLO_1
 62
     7
100
AcDbVertex
100
AcDb2dVertex
 10
-17.227028
 20
63.316893
 30
0.0
  0
VERTEX
  5
1A1
100
AcDbEntity
  8
LIVELLO_1
 62
     7
100
AcDbVertex
100
AcDb2dVertex
 10
-17.230301
 20
63.272624
 30
0.0
  0
SEQEND
  5
1A2
100
AcDbEntity
  8
LIVELLO_1
 62
     7
  0
POLYLINE
  5
192
100
AcDbEntity
  8
LIVELLO_1
 62
     7
100
AcDb2dPolyline
 66
     1
 10
0.0
 20
0.0
 30
0.0
  0
VERTEX
  5
193
100
AcDbEntity
  8
LIVELLO_1
 62
     7
100
AcDbVertex
100
AcDb2dVertex
 10
-17.230301
 20
63.272624
 30
0.0
  0
VERTEX
  5
194
100
AcDbEntity
  8
LIVELLO_1
 62
     7
100
AcDbVertex
100
AcDb2dVertex
 10
-17.238224
 20
63.231455
 30
0.0
  0
VERTEX
  5
195
100
AcDbEntity
  8
LIVELLO_1
 62
     7
100
AcDbVertex
100
AcDb2dVertex
 10
-17.241497
 20
63.19976
 30
0.0
  0
VERTEX
  5
196
100
AcDbEntity
  8
LIVELLO_1
 62
     7
100
AcDbVertex
100
AcDb2dVertex
 10
-17.244425
 20
63.193214
 30
0.0
  0
VERTEX
  5
197
100
AcDbEntity
  8
LIVELLO_1
 62
     7
100
AcDbVertex
100
AcDb2dVertex
 10
-17.247698
 20
63.183912
 30
0.0
  0
VERTEX
  5
198
100
AcDbEntity
  8
LIVELLO_1
 62
     7
100
AcDbVertex
100
AcDb2dVertex
 10
-17.247698
 20
63.177367
 30
0.0
  0
VERTEX
  5
199
100
AcDbEntity
  8
LIVELLO_1
 62
     7
100
AcDbVertex
100
AcDb2dVertex
 10
-17.250971
 20
63.174438
 30
0.0
  0
VERTEX
  5
19A
100
AcDbEntity
  8
LIVELLO_1
 62
     7
100
AcDbVertex
100
AcDb2dVertex
 10
-17.254072
 20
63.174438
 30
0.0
  0
SEQEND
  5
19B
100
AcDbEntity
  8
LIVELLO_1
 62
     7
  0
SPLINE
  5
191
100
AcDbEntity
  8
LIVELLO_1
 62
     7
100
AcDbSpline
210
0.0
220
0.0
230
1.0
 70
     8
 71
     3
 72
     8
 73
     4
 74
     0
 42
0.00000001
 43
0.00000001
 40
0.0
 40
0.0
 40
0.0
 40
0.0
 40
1.0
 40
1.0
 40
1.0
 40
1.0
 10
-17.91242947048611
 20
62.956191677517353
 30
0.0
 10
-17.730356174045138
 20
62.956191677517353
 30
0.0
 10
-17.578599717881943
 20
62.813220214843746
 30
0.0
 10
-17.575326877170138
 20
62.629596625434019
 30
0.0
  0
SPLINE
  5
190
100
AcDbEntity
  8
LIVELLO_1
 62
     7
100
AcDbSpline
210
0.0
220
0.0
230
1.0
 70
     8
 71
     3
 72
     8
 73
     4
 74
     0
 42
0.00000001
 43
0.00000001
 40
0.0
 40
0.0
 40
0.0
 40
0.0
 40
1.0
 40
1.0
 40
1.0
 40
1.0
 10
-26.316912163628469
 20
62.629596625434019
 30
0.0
 10
-26.310538736979165
 20
62.813220214843746
 30
0.0
 10
-26.161710611979164
 20
62.956191677517353
 30
0.0
 10
-25.979637315538191
 20
62.956191677517353
 30
0.0
  0
LINE
  5
18F
100
AcDbEntity
  8
LIVELLO_1
 62
     7
100
AcDbLine
 10
-16.564019
 20
62.911405
 30
0.0
 11
-16.566947
 21
63.048003
 31
0.0
  0
LINE
  5
18E
100
AcDbEntity
  8
LIVELLO_1
 62
     7
100
AcDbLine
 10
-16.566947
 20
63.048003
 30
0.0
 11
-16.566947
 21
63.193214
 31
0.0
  0
SPLINE
  5
18D
100
AcDbEntity
  8
LIVELLO_1
 62
     7
100
AcDbSpline
210
0.0
220
0.0
230
1.0
 70
     8
 71
     3
 72
     8
 73
     4
 74
     0
 42
0.00000001
 43
0.00000001
 40
0.0
 40
0.0
 40
0.0
 40
0.0
 40
1.0
 40
1.0
 40
1.0
 40
1.0
 10
-16.765040418836804
 20
63.392685275607633
 30
0.0
 10
-16.663754611545137
 20
63.367363823784714
 30
0.0
 10
-16.589340549045136
 20
63.291571723090271
 30
0.0
 10
-16.564019097222221
 20
63.193214246961801
 30
0.0
  0
SPLINE
  5
18C
100
AcDbEntity
  8
LIVELLO_1
 62
     7
100
AcDbSpline
210
0.0
220
0.0
230
1.0
 70
     8
 71
     3
 72
    14
 73
    10
 74
     0
 42
0.00000001
 43
0.00000001
 40
0.0
 40
0.0
 40
0.0
 40
0.0
 40
1.0
 40
1.0
 40
1.0
 40
2.0
 40
2.0
 40
2.0
 40
3.0
 40
3.0
 40
3.0
 40
3.0
 10
-27.127026367187497
 20
63.405604383680547
 30
0.0
 10
-26.981471082899304
 20
63.456247287326384
 30
0.0
 10
-26.826441786024304
 20
63.484497070312493
 30
0.0
 10
-26.669689941406247
 20
63.481568739149303
 30
0.0
 10
-26.669689941406247
 20
63.481568739149303
 30
0.0
 10
-17.2237548828125
 20
63.481568739149303
 30
0.0
 10
-17.2237548828125
 20
63.481568739149303
 30
0.0
 10
-17.062696668836804
 20
63.484497070312493
 30
0.0
 10
-16.907322862413192
 20
63.456247287326384
 30
0.0
 10
-16.765040418836804
 20
63.405604383680547
 30
0.0
  0
SPLINE
  5
18B
100
AcDbEntity
  8
LIVELLO_1
 62
     7
100
AcDbSpline
210
0.0
220
0.0
230
1.0
 70
     8
 71
     3
 72
     8
 73
     4
 74
     0
 42
0.00000001
 43
0.00000001
 40
0.0
 40
0.0
 40
0.0
 40
0.0
 40
1.0
 40
1.0
 40
1.0
 40
1.0
 10
-27.328219943576386
 20
63.193214246961801
 30
0.0
 10
-27.30599907769097
 20
63.291571723090271
 30
0.0
 10
-27.226761881510413
 20
63.367363823784714
 30
0.0
 10
-27.124098036024304
 20
63.392685275607633
 30
0.0
  0
LINE
  5
18A
100
AcDbEntity
  8
LIVELLO_1
 62
     7
100
AcDbLine
 10
-27.321847
 20
63.193214
 30
0.0
 11
-27.32822
 21
63.048003
 31
0.0
  0
LINE
  5
189
100
AcDbEntity
  8
LIVELLO_1
 62
     7
100
AcDbLine
 10
-27.32822
 20
62.911405
 30
0.0
 11
-27.32822
 21
63.048003
 31
0.0
  0
POLYLINE
  5
183
100
AcDbEntity
  8
LIVELLO_1
 62
     7
100
AcDb2dPolyline
 66
     1
 10
0.0
 20
0.0
 30
0.0
  0
VERTEX
  5
184
100
AcDbEntity
  8
LIVELLO_1
 62
     7
100
AcDbVertex
100
AcDb2dVertex
 10
-26.638167
 20
63.174438
 30
0.0
  0
VERTEX
  5
185
100
AcDbEntity
  8
LIVELLO_1
 62
     7
100
AcDbVertex
100
AcDb2dVertex
 10
-17.254072
 20
63.174438
 30
0.0
  0
VERTEX
  5
186
100
AcDbEntity
  8
LIVELLO_1
 62
     7
100
AcDbVertex
100
AcDb2dVertex
 10
-17.263546
 20
63.170821
 30
0.0
  0
VERTEX
  5
187
100
AcDbEntity
  8
LIVELLO_1
 62
     7
100
AcDbVertex
100
AcDb2dVertex
 10
-17.912429
 20
62.956192
 30
0.0
  0
SEQEND
  5
188
100
AcDbEntity
  8
LIVELLO_1
 62
     7
  0
LINE
  5
182
100
AcDbEntity
  8
LIVELLO_1
 62
     7
100
AcDbLine
 10
-26.638167
 20
63.174438
 30
0.0
 11
-26.631794
 21
63.170821
 31
0.0
  0
LINE
  5
181
100
AcDbEntity
  8
LIVELLO_1
 62
     7
100
AcDbLine
 10
-26.631794
 20
63.170821
 30
0.0
 11
-25.979637
 21
62.956192
 31
0.0
  0
POLYLINE
  5
17C
100
AcDbEntity
  8
LIVELLO_1
 62
     7
100
AcDb2dPolyline
 66
     1
 10
0.0
 20
0.0
 30
0.0
  0
VERTEX
  5
17D
100
AcDbEntity
  8
LIVELLO_1
 62
     7
100
AcDbVertex
100
AcDb2dVertex
 10
-23.811466
 20
20.759973
 30
0.0
  0
VERTEX
  5
17E
100
AcDbEntity
  8
LIVELLO_1
 62
     7
100
AcDbVertex
100
AcDb2dVertex
 10
-23.811466
 20
20.759973
 30
0.0
  0
VERTEX
  5
17F
100
AcDbEntity
  8
LIVELLO_1
 62
     7
100
AcDbVertex
100
AcDb2dVertex
 10
-23.811466
 20
20.766347
 30
0.0
  0
SEQEND
  5
180
100
AcDbEntity
  8
LIVELLO_1
 62
     7
  0
LINE
  5
17B
100
AcDbEntity
  8
LIVELLO_1
 62
     7
100
AcDbLine
 10
-23.811466
 20
20.759973
 30
0.0
 11
-20.083873
 21
20.759973
 31
0.0
  0
POLYLINE
  5
176
100
AcDbEntity
  8
LIVELLO_1
 62
     7
100
AcDb2dPolyline
 66
     1
 10
0.0
 20
0.0
 30
0.0
  0
VERTEX
  5
177
100
AcDbEntity
  8
LIVELLO_1
 62
     7
100
AcDbVertex
100
AcDb2dVertex
 10
-20.083873
 20
20.766347
 30
0.0
  0
VERTEX
  5
178
100
AcDbEntity
  8
LIVELLO_1
 62
     7
100
AcDbVertex
100
AcDb2dVertex
 10
-20.083873
 20
20.766347
 30
0.0
  0
VERTEX
  5
179
100
AcDbEntity
  8
LIVELLO_1
 62
     7
100
AcDbVertex
100
AcDb2dVertex
 10
-20.083873
 20
20.759973
 30
0.0
  0
SEQEND
  5
17A
100
AcDbEntity
  8
LIVELLO_1
 62
     7
  0
SPLINE
  5
175
100
AcDbEntity
  8
LIVELLO_1
 62
     7
100
AcDbSpline
210
0.0
220
0.0
230
1.0
 70
     8
 71
     3
 72
     8
 73
     4
 74
     0
 42
0.00000001
 43
0.00000001
 40
0.0
 40
0.0
 40
0.0
 40
0.0
 40
1.0
 40
1.0
 40
1.0
 40
1.0
 10
31.587736002604164
 20
63.40215928819444
 30
0.0
 10
31.581534830729165
 20
63.36099039713541
 30
0.0
 10
31.578089735243054
 20
63.326194932725691
 30
0.0
 10
31.568787977430553
 20
63.291571723090271
 30
0.0
  0
SPLINE
  5
174
100
AcDbEntity
  8
LIVELLO_1
 62
     7
100
AcDbSpline
210
0.0
220
0.0
230
1.0
 70
     8
 71
     3
 72
     8
 73
     4
 74
     0
 42
0.00000001
 43
0.00000001
 40
0.0
 40
0.0
 40
0.0
 40
0.0
 40
1.0
 40
1.0
 40
1.0
 40
1.0
 10
31.633900282118052
 20
63.481568739149303
 30
0.0
 10
31.630455186631941
 20
63.427480740017359
 30
0.0
 10
31.61460774739583
 20
63.367363823784714
 30
0.0
 10
31.578089735243054
 20
63.323266601562494
 30
0.0
  0
LINE
  5
173
100
AcDbEntity
  8
LIVELLO_1
 62
     7
100
AcDbLine
 10
31.6339
 20
63.481569
 30
0.0
 11
31.844051
 21
63.481569
 31
0.0
  0
SPLINE
  5
172
100
AcDbEntity
  8
LIVELLO_1
 62
     7
100
AcDbSpline
210
0.0
220
0.0
230
1.0
 70
     8
 71
     3
 72
     8
 73
     4
 74
     0
 42
0.00000001
 43
0.00000001
 40
0.0
 40
0.0
 40
0.0
 40
0.0
 40
1.0
 40
1.0
 40
1.0
 40
1.0
 10
31.587736002604164
 20
63.40215928819444
 30
0.0
 10
31.59255913628472
 20
63.433854166666663
 30
0.0
 10
31.611507161458331
 20
63.465721299913191
 30
0.0
 10
31.633900282118052
 20
63.484497070312493
 30
0.0
  0
SPLINE
  5
171
100
AcDbEntity
  8
LIVELLO_1
 62
     7
100
AcDbSpline
210
0.0
220
0.0
230
1.0
 70
     8
 71
     3
 72
     8
 73
     4
 74
     0
 42
0.00000001
 43
0.00000001
 40
0.0
 40
0.0
 40
0.0
 40
0.0
 40
1.0
 40
1.0
 40
1.0
 40
1.0
 10
31.549839952256942
 20
63.193214246961801
 30
0.0
 10
31.552940538194441
 20
63.266250271267353
 30
0.0
 10
31.568787977430553
 20
63.329123263888881
 30
0.0
 10
31.587736002604164
 20
63.40215928819444
 30
0.0
  0
LINE
  5
170
100
AcDbEntity
  8
LIVELLO_1
 62
     7
100
AcDbLine
 10
31.54984
 20
63.193214
 30
0.0
 11
31.537438
 21
63.048003
 31
0.0
  0
LINE
  5
16F
100
AcDbEntity
  8
LIVELLO_1
 62
     7
100
AcDbLine
 10
31.524691
 20
62.911405
 30
0.0
 11
31.537438
 21
63.048003
 31
0.0
  0
SPLINE
  5
16E
100
AcDbEntity
  8
LIVELLO_1
 62
     7
100
AcDbSpline
210
0.0
220
0.0
230
1.0
 70
     8
 71
     3
 72
     8
 73
     4
 74
     0
 42
0.00000001
 43
0.00000001
 40
0.0
 40
0.0
 40
0.0
 40
0.0
 40
1.0
 40
1.0
 40
1.0
 40
1.0
 10
31.516767035590274
 20
62.91140543619791
 30
0.0
 10
30.087396918402774
 20
47.806039767795134
 30
0.0
 10
22.418786621093748
 20
34.001025390624996
 30
0.0
 10
10.344243706597222
 20
24.811577690972221
 30
0.0
  0
SPLINE
  5
16D
100
AcDbEntity
  8
LIVELLO_1
 62
     7
100
AcDbSpline
210
0.0
220
0.0
230
1.0
 70
     8
 71
     3
 72
     8
 73
     4
 74
     0
 42
0.00000001
 43
0.00000001
 40
0.0
 40
0.0
 40
0.0
 40
0.0
 40
1.0
 40
1.0
 40
1.0
 40
1.0
 10
4.2236870659722214
 20
20.766346571180552
 30
0.0
 10
4.2143853081597218
 20
20.759973144531248
 30
0.0
 10
4.2078396267361109
 20
20.759973144531248
 30
0.0
 10
4.1983656141493055
 20
20.759973144531248
 30
0.0
  0
LINE
  5
16C
100
AcDbEntity
  8
LIVELLO_1
 62
     7
100
AcDbLine
 10
4.198366
 20
20.759973
 30
0.0
 11
4.266406
 21
20.759973
 31
0.0
  0
LINE
  5
16B
100
AcDbEntity
  8
LIVELLO_1
 62
     7
100
AcDbLine
 10
-75.415207
 20
62.911405
 30
0.0
 11
-75.427954
 21
63.048003
 31
0.0
  0
SPLINE
  5
16A
100
AcDbEntity
  8
LIVELLO_1
 62
     7
100
AcDbSpline
210
0.0
220
0.0
230
1.0
 70
     8
 71
     3
 72
     8
 73
     4
 74
     0
 42
0.00000001
 43
0.00000001
 40
0.0
 40
0.0
 40
0.0
 40
0.0
 40
1.0
 40
1.0
 40
1.0
 40
1.0
 10
-75.473773871527769
 20
63.323266601562494
 30
0.0
 10
-75.505296495225693
 20
63.367363823784714
 30
0.0
 10
-75.525794813368051
 20
63.427480740017359
 30
0.0
 10
-75.529067654079853
 20
63.481568739149303
 30
0.0
  0
SPLINE
  5
169
100
AcDbEntity
  8
LIVELLO_1
 62
     7
100
AcDbSpline
210
0.0
220
0.0
230
1.0
 70
     8
 71
     3
 72
     8
 73
     4
 74
     0
 42
0.00000001
 43
0.00000001
 40
0.0
 40
0.0
 40
0.0
 40
0.0
 40
1.0
 40
1.0
 40
1.0
 40
1.0
 10
-75.525794813368051
 20
63.484497070312493
 30
0.0
 10
-75.499095323350687
 20
63.465721299913191
 30
0.0
 10
-75.483247884114576
 20
63.433854166666663
 30
0.0
 10
-75.479975043402774
 20
63.40215928819444
 30
0.0
  0
SPLINE
  5
168
100
AcDbEntity
  8
LIVELLO_1
 62
     7
100
AcDbSpline
210
0.0
220
0.0
230
1.0
 70
     8
 71
     3
 72
     8
 73
     4
 74
     0
 42
0.00000001
 43
0.00000001
 40
0.0
 40
0.0
 40
0.0
 40
0.0
 40
1.0
 40
1.0
 40
1.0
 40
1.0
 10
-75.464127604166663
 20
63.291571723090271
 30
0.0
 10
-75.473773871527769
 20
63.326194932725691
 30
0.0
 10
-75.47704671223957
 20
63.36099039713541
 30
0.0
 10
-75.479975043402774
 20
63.40215928819444
 30
0.0
  0
SPLINE
  5
167
100
AcDbEntity
  8
LIVELLO_1
 62
     7
100
AcDbSpline
210
0.0
220
0.0
230
1.0
 70
     8
 71
     3
 72
     8
 73
     4
 74
     0
 42
0.00000001
 43
0.00000001
 40
0.0
 40
0.0
 40
0.0
 40
0.0
 40
1.0
 40
1.0
 40
1.0
 40
1.0
 10
-75.479975043402774
 20
63.40215928819444
 30
0.0
 10
-75.457926432291657
 20
63.329123263888881
 30
0.0
 10
-75.44845241970485
 20
63.266250271267353
 30
0.0
 10
-75.440528700086801
 20
63.193214246961801
 30
0.0
  0
LINE
  5
166
100
AcDbEntity
  8
LIVELLO_1
 62
     7
100
AcDbLine
 10
-75.427954
 20
63.048003
 30
0.0
 11
-75.440529
 21
63.193214
 31
0.0
  0
LINE
  5
165
100
AcDbEntity
  8
LIVELLO_1
 62
     7
100
AcDbLine
 10
-75.479975
 20
63.351516
 30
0.0
 11
-75.464128
 21
63.291572
 31
0.0
  0
LINE
  5
164
100
AcDbEntity
  8
LIVELLO_1
 62
     7
100
AcDbLine
 10
-75.910612
 20
67.067913
 30
0.0
 11
32.020095
 21
67.067913
 31
0.0
  0
LINE
  5
163
100
AcDbEntity
  8
LIVELLO_1
 62
     7
100
AcDbLine
 10
-24.776782
 20
51.053559
 30
0.0
 11
-19.110461
 21
51.053559
 31
0.0
  0
SPLINE
  5
162
100
AcDbEntity
  8
LIVELLO_1
 62
     7
100
AcDbSpline
210
0.0
220
0.0
230
1.0
 70
     8
 71
     3
 72
     8
 73
     4
 74
     0
 42
0.00000001
 43
0.00000001
 40
0.0
 40
0.0
 40
0.0
 40
0.0
 40
1.0
 40
1.0
 40
1.0
 40
1.0
 10
-46.238865831163189
 20
20.759973144531248
 30
0.0
 10
-60.572185601128467
 20
30.313395182291664
 30
0.0
 10
-69.739584689670139
 20
45.884710015190969
 30
0.0
 10
-71.1463894314236
 20
63.04800347222222
 30
0.0
  0
SPLINE
  5
161
100
AcDbEntity
  8
LIVELLO_1
 62
     7
100
AcDbSpline
210
0.0
220
0.0
230
1.0
 70
     8
 71
     3
 72
     8
 73
     4
 74
     0
 42
0.00000001
 43
0.00000001
 40
0.0
 40
0.0
 40
0.0
 40
0.0
 40
1.0
 40
1.0
 40
1.0
 40
1.0
 10
-47.382982042100693
 20
20.759973144531248
 30
0.0
 10
-62.938449435763886
 20
29.487433539496525
 30
0.0
 10
-73.104409450954861
 20
45.397056749131941
 30
0.0
 10
-74.481241861979157
 20
63.17736680772569
 30
0.0
  0
LINE
  5
160
100
AcDbEntity
  8
LIVELLO_1
 62
     7
100
AcDbLine
 10
-75.910612
 20
67.067913
 30
0.0
 11
32.020095
 21
67.067913
 31
0.0
  0
LINE
  5
15F
100
AcDbEntity
  8
LIVELLO_1
 62
     7
100
AcDbLine
 10
-46.511201
 20
20.028752
 30
0.0
 11
-46.811785
 21
20.028752
 31
0.0
  0
LINE
  5
15E
100
AcDbEntity
  8
LIVELLO_1
 62
     7
100
AcDbLine
 10
-75.525795
 20
63.481569
 30
0.0
 11
-75.73319
 21
63.481569
 31
0.0
  0
SPLINE
  5
15D
100
AcDbEntity
  8
LIVELLO_1
 62
     7
100
AcDbSpline
210
0.0
220
0.0
230
1.0
 70
     8
 71
     3
 72
     8
 73
     4
 74
     0
 42
0.00000001
 43
0.00000001
 40
0.0
 40
0.0
 40
0.0
 40
0.0
 40
1.0
 40
1.0
 40
1.0
 40
1.0
 10
31.540193684895829
 20
63.060233561197911
 30
0.0
 10
31.543294270833332
 20
63.13981526692708
 30
0.0
 10
31.552940538194441
 20
63.215607367621523
 30
0.0
 10
31.568787977430553
 20
63.291571723090271
 30
0.0
  0
LINE
  5
15C
100
AcDbEntity
  8
LIVELLO_1
 62
     7
100
AcDbLine
 10
31.568788
 20
63.291572
 30
0.0
 11
31.587736
 21
63.351516
 31
0.0
  0
LINE
  5
15B
100
AcDbEntity
  8
LIVELLO_1
 62
     7
100
AcDbLine
 10
31.524691
 20
62.911405
 30
0.0
 11
31.540194
 21
63.060234
 31
0.0
  0
SPLINE
  5
15A
100
AcDbEntity
  8
LIVELLO_1
 62
     7
100
AcDbSpline
210
0.0
220
0.0
230
1.0
 70
     8
 71
     3
 72
    11
 73
     7
 74
     0
 42
0.00000001
 43
0.00000001
 40
0.0
 40
0.0
 40
0.0
 40
0.0
 40
1.0
 40
1.0
 40
1.0
 40
2.0
 40
2.0
 40
2.0
 40
2.0
 10
32.02009548611111
 20
67.067913140190967
 30
0.0
 10
32.000802951388884
 20
65.811142306857633
 30
0.0
 10
31.948782009548609
 20
64.731621636284714
 30
0.0
 10
31.844051106770831
 20
63.481568739149303
 30
0.0
 10
31.831304253472219
 20
63.326194932725691
 30
0.0
 10
31.708314344618053
 20
63.196142578124991
 30
0.0
 10
31.549839952256942
 20
63.17736680772569
 30
0.0
  0
SPLINE
  5
159
100
AcDbEntity
  8
LIVELLO_1
 62
     7
100
AcDbSpline
210
0.0
220
0.0
230
1.0
 70
     8
 71
     3
 72
    14
 73
    10
 74
     0
 42
0.00000001
 43
0.00000001
 40
0.0
 40
0.0
 40
0.0
 40
0.0
 40
1.0
 40
1.0
 40
1.0
 40
2.0
 40
2.0
 40
2.0
 40
3.0
 40
3.0
 40
3.0
 40
3.0
 10
4.7364895290798605
 20
21.070031738281248
 30
0.0
 10
4.0781317816840277
 20
20.620446777343748
 30
0.0
 10
4.9469848632812496
 20
21.209385850694442
 30
0.0
 10
4.2887993706597216
 20
20.766346571180552
 30
0.0
 10
4.2822536892361107
 20
20.759973144531248
 30
0.0
 10
4.2727796766493054
 20
20.759973144531248
 30
0.0
 10
4.2664062499999993
 20
20.759973144531248
 30
0.0
 10
3.653868272569444
 20
20.411673990885415
 30
0.0
 10
3.5463812934027774
 20
20.361031087239581
 30
0.0
 10
2.9245415581597221
 20
20.028751627604166
 30
0.0
  0
LINE
  5
158
100
AcDbEntity
  8
LIVELLO_1
 62
     7
100
AcDbLine
 10
-75.415207
 20
62.911405
 30
0.0
 11
-75.430882
 21
63.060234
 31
0.0
  0
SPLINE
  5
157
100
AcDbEntity
  8
LIVELLO_1
 62
     7
100
AcDbSpline
210
0.0
220
0.0
230
1.0
 70
     8
 71
     3
 72
     8
 73
     4
 74
     0
 42
0.00000001
 43
0.00000001
 40
0.0
 40
0.0
 40
0.0
 40
0.0
 40
1.0
 40
1.0
 40
1.0
 40
1.0
 10
-75.464127604166663
 20
63.291571723090271
 30
0.0
 10
-75.443801540798603
 20
63.215607367621523
 30
0.0
 10
-75.433983018663184
 20
63.13981526692708
 30
0.0
 10
-75.430882432725681
 20
63.060233561197911
 30
0.0
  0
SPLINE
  5
156
100
AcDbEntity
  8
LIVELLO_1
 62
     7
100
AcDbSpline
210
0.0
220
0.0
230
1.0
 70
     8
 71
     3
 72
     8
 73
     4
 74
     0
 42
0.00000001
 43
0.00000001
 40
0.0
 40
0.0
 40
0.0
 40
0.0
 40
1.0
 40
1.0
 40
1.0
 40
1.0
 10
-75.440528700086801
 20
63.17736680772569
 30
0.0
 10
-75.596936035156247
 20
63.196142578124991
 30
0.0
 10
-75.723715549045139
 20
63.326194932725691
 30
0.0
 10
-75.733189561631931
 20
63.481568739149303
 30
0.0
  0
SPLINE
  5
155
100
AcDbEntity
  8
LIVELLO_1
 62
     7
100
AcDbSpline
210
0.0
220
0.0
230
1.0
 70
     8
 71
     3
 72
     8
 73
     4
 74
     0
 42
0.00000001
 43
0.00000001
 40
0.0
 40
0.0
 40
0.0
 40
0.0
 40
1.0
 40
1.0
 40
1.0
 40
1.0
 10
-75.733189561631931
 20
63.481568739149303
 30
0.0
 10
-75.836197916666663
 20
64.731621636284714
 30
0.0
 10
-75.888218858506931
 20
65.811142306857633
 30
0.0
 10
-75.91061197916666
 20
67.067913140190967
 30
0.0
  0
SPLINE
  5
154
100
AcDbEntity
  8
LIVELLO_1
 62
     7
100
AcDbSpline
210
0.0
220
0.0
230
1.0
 70
     8
 71
     3
 72
     8
 73
     4
 74
     0
 42
0.00000001
 43
0.00000001
 40
0.0
 40
0.0
 40
0.0
 40
0.0
 40
1.0
 40
1.0
 40
1.0
 40
1.0
 10
-46.811785210503466
 20
20.028751627604166
 30
0.0
 10
-47.438620334201381
 20
20.361031087239581
 30
0.0
 10
-47.544557020399303
 20
20.411673990885415
 30
0.0
 10
-48.157267252604164
 20
20.759973144531248
 30
0.0
  0
SPLINE
  5
153
100
AcDbEntity
  8
LIVELLO_1
 62
     7
100
AcDbSpline
210
0.0
220
0.0
230
1.0
 70
     8
 71
     3
 72
     8
 73
     4
 74
     0
 42
0.00000001
 43
0.00000001
 40
0.0
 40
0.0
 40
0.0
 40
0.0
 40
1.0
 40
1.0
 40
1.0
 40
1.0
 10
-48.157267252604164
 20
20.759973144531248
 30
0.0
 10
-48.163468424479163
 20
20.759973144531248
 30
0.0
 10
-48.171392144097219
 20
20.759973144531248
 30
0.0
 10
-48.183966742621521
 20
20.766346571180552
 30
0.0
  0
SPLINE
  5
152
100
AcDbEntity
  8
LIVELLO_1
 62
     7
100
AcDbSpline
210
0.0
220
0.0
230
1.0
 70
     8
 71
     3
 72
     8
 73
     4
 74
     0
 42
0.00000001
 43
0.00000001
 40
0.0
 40
0.0
 40
0.0
 40
0.0
 40
1.0
 40
1.0
 40
1.0
 40
1.0
 10
-48.183966742621521
 20
20.766346571180552
 30
0.0
 10
-48.842324490017354
 20
21.209385850694442
 30
0.0
 10
-47.967270236545133
 20
20.620446777343748
 30
0.0
 10
-48.624077690972214
 20
21.070031738281248
 30
0.0
  0
LINE
  5
151
100
AcDbEntity
  8
LIVELLO_1
 62
     7
100
AcDbLine
 10
-20.997168
 20
62.956192
 30
0.0
 11
-17.912429
 21
62.956192
 31
0.0
  0
LINE
  5
150
100
AcDbEntity
  8
LIVELLO_1
 62
     7
100
AcDbLine
 10
-25.979637
 20
62.956192
 30
0.0
 11
-22.893349
 21
62.956192
 31
0.0
  0
SPLINE
  5
14F
100
AcDbEntity
  8
LIVELLO_1
 62
     7
100
AcDbSpline
210
0.0
220
0.0
230
1.0
 70
     8
 71
     3
 72
     8
 73
     4
 74
     0
 42
0.00000001
 43
0.00000001
 40
0.0
 40
0.0
 40
0.0
 40
0.0
 40
1.0
 40
1.0
 40
1.0
 40
1.0
 10
-47.386254882812494
 20
20.759973144531248
 30
0.0
 10
-57.197714572482631
 20
26.967690700954858
 30
0.0
 10
-64.394519042968739
 20
36.51766764322916
 30
0.0
 10
-67.67080485026041
 20
47.657211642795133
 30
0.0
  0
SPLINE
  5
14E
100
AcDbEntity
  8
LIVELLO_1
 62
     7
100
AcDbSpline
210
0.0
220
0.0
230
1.0
 70
     8
 71
     3
 72
     8
 73
     4
 74
     0
 42
0.00000001
 43
0.00000001
 40
0.0
 40
0.0
 40
0.0
 40
0.0
 40
1.0
 40
1.0
 40
1.0
 40
1.0
 10
-42.001742892795136
 20
20.759973144531248
 30
0.0
 10
-53.891456434461801
 20
31.680581325954858
 30
0.0
 10
-61.0755140516493
 20
46.793009440104164
 30
0.0
 10
-62.037729220920134
 20
62.91140543619791
 30
0.0
  0
SPLINE
  5
14D
100
AcDbEntity
  8
LIVELLO_1
 62
     7
100
AcDbSpline
210
0.0
220
0.0
230
1.0
 70
     8
 71
     3
 72
     8
 73
     4
 74
     0
 42
0.00000001
 43
0.00000001
 40
0.0
 40
0.0
 40
0.0
 40
0.0
 40
1.0
 40
1.0
 40
1.0
 40
1.0
 10
-44.190928819444437
 20
20.759973144531248
 30
0.0
 10
-58.712350802951384
 20
30.085846625434026
 30
0.0
 10
-67.738673231336804
 20
45.903485785590277
 30
0.0
 10
-68.378255208333329
 20
63.145671929253467
 30
0.0
  0
SPLINE
  5
14C
100
AcDbEntity
  8
LIVELLO_1
 62
     7
100
AcDbSpline
210
0.0
220
0.0
230
1.0
 70
     8
 71
     3
 72
     8
 73
     4
 74
     0
 42
0.00000001
 43
0.00000001
 40
0.0
 40
0.0
 40
0.0
 40
0.0
 40
1.0
 40
1.0
 40
1.0
 40
1.0
 10
-48.527615017361107
 20
23.859181043836802
 30
0.0
 10
-58.809157986111103
 20
34.121603732638889
 30
0.0
 10
-64.465660264756934
 20
48.106796603732633
 30
0.0
 10
-64.206244574652771
 20
62.629596625434019
 30
0.0
  0
SPLINE
  5
14B
100
AcDbEntity
  8
LIVELLO_1
 62
     7
100
AcDbSpline
210
0.0
220
0.0
230
1.0
 70
     8
 71
     3
 72
     8
 73
     4
 74
     0
 42
0.00000001
 43
0.00000001
 40
0.0
 40
0.0
 40
0.0
 40
0.0
 40
1.0
 40
1.0
 40
1.0
 40
1.0
 10
-38.818991427951389
 20
20.759973144531248
 30
0.0
 10
-50.945899793836801
 20
31.41186387803819
 30
0.0
 10
-57.840397135416659
 20
46.774233669704856
 30
0.0
 10
-57.729637315538191
 20
62.91140543619791
 30
0.0
  0
SPLINE
  5
14A
100
AcDbEntity
  8
LIVELLO_1
 62
     7
100
AcDbSpline
210
0.0
220
0.0
230
1.0
 70
     8
 71
     3
 72
     8
 73
     4
 74
     0
 42
0.00000001
 43
0.00000001
 40
0.0
 40
0.0
 40
0.0
 40
0.0
 40
1.0
 40
1.0
 40
1.0
 40
1.0
 10
-43.370823838975689
 20
25.245831976996527
 30
0.0
 10
-50.996370442708326
 20
36.191761610243056
 30
0.0
 10
-54.837824164496524
 20
49.293976508246523
 30
0.0
 10
-54.320370822482637
 20
62.629596625434019
 30
0.0
  0
SPLINE
  5
149
100
AcDbEntity
  8
LIVELLO_1
 62
     7
100
AcDbSpline
210
0.0
220
0.0
230
1.0
 70
     8
 71
     3
 72
     8
 73
     4
 74
     0
 42
0.00000001
 43
0.00000001
 40
0.0
 40
0.0
 40
0.0
 40
0.0
 40
1.0
 40
1.0
 40
1.0
 40
1.0
 10
-31.794786241319443
 20
20.759973144531248
 30
0.0
 10
-40.148281521267357
 20
33.193839518229161
 30
0.0
 10
-44.277745225694439
 20
47.944877115885411
 30
0.0
 10
-43.587864854600689
 20
62.91140543619791
 30
0.0
  0
SPLINE
  5
148
100
AcDbEntity
  8
LIVELLO_1
 62
     7
100
AcDbSpline
210
0.0
220
0.0
230
1.0
 70
     8
 71
     3
 72
     8
 73
     4
 74
     0
 42
0.00000001
 43
0.00000001
 40
0.0
 40
0.0
 40
0.0
 40
0.0
 40
1.0
 40
1.0
 40
1.0
 40
1.0
 10
-35.808494737413191
 20
20.759973144531248
 30
0.0
 10
-43.84400770399305
 20
33.403301323784717
 30
0.0
 10
-48.394634331597217
 20
47.939020453559024
 30
0.0
 10
-49.016474066840274
 20
62.91140543619791
 30
0.0
  0
SPLINE
  5
147
100
AcDbEntity
  8
LIVELLO_1
 62
     7
100
AcDbSpline
210
0.0
220
0.0
230
1.0
 70
     8
 71
     3
 72
     8
 73
     4
 74
     0
 42
0.00000001
 43
0.00000001
 40
0.0
 40
0.0
 40
0.0
 40
0.0
 40
1.0
 40
1.0
 40
1.0
 40
1.0
 10
-31.794786241319443
 20
20.759973144531248
 30
0.0
 10
-39.056530761718747
 20
33.472719997829856
 30
0.0
 10
-42.348319498697911
 20
48.049608018663193
 30
0.0
 10
-41.259669325086804
 20
62.645616319444436
 30
0.0
  0
SPLINE
  5
146
100
AcDbEntity
  8
LIVELLO_1
 62
     7
100
AcDbSpline
210
0.0
220
0.0
230
1.0
 70
     8
 71
     3
 72
     8
 73
     4
 74
     0
 42
0.00000001
 43
0.00000001
 40
0.0
 40
0.0
 40
0.0
 40
0.0
 40
1.0
 40
1.0
 40
1.0
 40
1.0
 10
-23.804920789930552
 20
20.759973144531248
 30
0.0
 10
-26.929450141059025
 20
34.596337890624994
 30
0.0
 10
-28.105433485243054
 20
48.739832899305554
 30
0.0
 10
-27.328219943576386
 20
62.91140543619791
 30
0.0
  0
SPLINE
  5
145
100
AcDbEntity
  8
LIVELLO_1
 62
     7
100
AcDbSpline
210
0.0
220
0.0
230
1.0
 70
     8
 71
     3
 72
     8
 73
     4
 74
     0
 42
0.00000001
 43
0.00000001
 40
0.0
 40
0.0
 40
0.0
 40
0.0
 40
1.0
 40
1.0
 40
1.0
 40
1.0
 10
-28.255811903211804
 20
20.750499131944444
 30
0.0
 10
-31.065287272135414
 20
34.849207899305554
 30
0.0
 10
-32.722205946180551
 20
48.55276421440972
 30
0.0
 10
-33.347318522135417
 20
62.91140543619791
 30
0.0
  0
SPLINE
  5
144
100
AcDbEntity
  8
LIVELLO_1
 62
     7
100
AcDbSpline
210
0.0
220
0.0
230
1.0
 70
     8
 71
     3
 72
     8
 73
     4
 74
     0
 42
0.00000001
 43
0.00000001
 40
0.0
 40
0.0
 40
0.0
 40
0.0
 40
1.0
 40
1.0
 40
1.0
 40
1.0
 10
-23.205129665798609
 20
20.759973144531248
 30
0.0
 10
-24.433306206597219
 20
30.924038357204857
 30
0.0
 10
-24.946280924479165
 20
40.806983778211801
 30
0.0
 10
-24.776782226562499
 20
51.053559027777773
 30
0.0
  0
SPLINE
  5
143
100
AcDbEntity
  8
LIVELLO_1
 62
     7
100
AcDbSpline
210
0.0
220
0.0
230
1.0
 70
     8
 71
     3
 72
     8
 73
     4
 74
     0
 42
0.00000001
 43
0.00000001
 40
0.0
 40
0.0
 40
0.0
 40
0.0
 40
1.0
 40
1.0
 40
1.0
 40
1.0
 10
-23.804920789930552
 20
20.750499131944444
 30
0.0
 10
-26.280566406249999
 20
34.520373535156246
 30
0.0
 10
-27.111523437499997
 20
48.384988064236104
 30
0.0
 10
-26.297791883680553
 20
62.357778591579859
 30
0.0
  0
SPLINE
  5
142
100
AcDbEntity
  8
LIVELLO_1
 62
     7
100
AcDbSpline
210
0.0
220
0.0
230
1.0
 70
     8
 71
     3
 72
     8
 73
     4
 74
     0
 42
0.00000001
 43
0.00000001
 40
0.0
 40
0.0
 40
0.0
 40
0.0
 40
1.0
 40
1.0
 40
1.0
 40
1.0
 10
27.254150390624996
 20
63.04800347222222
 30
0.0
 10
25.851824273003469
 20
45.884710015190969
 30
0.0
 10
16.681669108072914
 20
30.313395182291664
 30
0.0
 10
2.343526204427083
 20
20.759973144531248
 30
0.0
  0
SPLINE
  5
141
100
AcDbEntity
  8
LIVELLO_1
 62
     7
100
AcDbSpline
210
0.0
220
0.0
230
1.0
 70
     8
 71
     3
 72
     8
 73
     4
 74
     0
 42
0.00000001
 43
0.00000001
 40
0.0
 40
0.0
 40
0.0
 40
0.0
 40
1.0
 40
1.0
 40
1.0
 40
1.0
 10
30.59382595486111
 20
63.17736680772569
 30
0.0
 10
29.211998155381941
 20
45.397056749131941
 30
0.0
 10
19.050861273871526
 20
29.487433539496525
 30
0.0
 10
3.4909152560763888
 20
20.759973144531248
 30
0.0
  0
SPLINE
  5
140
100
AcDbEntity
  8
LIVELLO_1
 62
     7
100
AcDbSpline
210
0.0
220
0.0
230
1.0
 70
     8
 71
     3
 72
     8
 73
     4
 74
     0
 42
0.00000001
 43
0.00000001
 40
0.0
 40
0.0
 40
0.0
 40
0.0
 40
1.0
 40
1.0
 40
1.0
 40
1.0
 10
4.2887993706597216
 20
20.766346571180552
 30
0.0
 10
4.2822536892361107
 20
20.759973144531248
 30
0.0
 10
4.2727796766493054
 20
20.759973144531248
 30
0.0
 10
4.2664062499999993
 20
20.759973144531248
 30
0.0
  0
SPLINE
  5
13F
100
AcDbEntity
  8
LIVELLO_1
 62
     7
100
AcDbSpline
210
0.0
220
0.0
230
1.0
 70
     8
 71
     3
 72
     8
 73
     4
 74
     0
 42
0.00000001
 43
0.00000001
 40
0.0
 40
0.0
 40
0.0
 40
0.0
 40
1.0
 40
1.0
 40
1.0
 40
1.0
 10
3.5177870008680552
 20
20.766346571180552
 30
0.0
 10
3.5148586697048607
 20
20.759973144531248
 30
0.0
 10
3.5050401475694439
 20
20.759973144531248
 30
0.0
 10
3.4990112304687497
 20
20.750499131944444
 30
0.0
  0
POLYLINE
  5
137
100
AcDbEntity
  8
LIVELLO_1
 62
     7
100
AcDb2dPolyline
 66
     1
 10
0.0
 20
0.0
 30
0.0
  0
VERTEX
  5
138
100
AcDbEntity
  8
LIVELLO_1
 62
     7
100
AcDbVertex
100
AcDb2dVertex
 10
2.364025
 20
20.766347
 30
0.0
  0
VERTEX
  5
139
100
AcDbEntity
  8
LIVELLO_1
 62
     7
100
AcDbVertex
100
AcDb2dVertex
 10
2.360924
 20
20.766347
 30
0.0
  0
VERTEX
  5
13A
100
AcDbEntity
  8
LIVELLO_1
 62
     7
100
AcDbVertex
100
AcDb2dVertex
 10
2.354723
 20
20.759973
 30
0.0
  0
VERTEX
  5
13B
100
AcDbEntity
  8
LIVELLO_1
 62
     7
100
AcDbVertex
100
AcDb2dVertex
 10
2.346799
 20
20.759973
 30
0.0
  0
VERTEX
  5
13C
100
AcDbEntity
  8
LIVELLO_1
 62
     7
100
AcDbVertex
100
AcDb2dVertex
 10
2.343526
 20
20.759973
 30
0.0
  0
VERTEX
  5
13D
100
AcDbEntity
  8
LIVELLO_1
 62
     7
100
AcDbVertex
100
AcDb2dVertex
 10
3.490915
 20
20.759973
 30
0.0
  0
SEQEND
  5
13E
100
AcDbEntity
  8
LIVELLO_1
 62
     7
  0
LINE
  5
136
100
AcDbEntity
  8
LIVELLO_1
 62
     7
100
AcDbLine
 10
-1.888774
 20
20.759973
 30
0.0
 11
0.298518
 21
20.759973
 31
0.0
  0
POLYLINE
  5
130
100
AcDbEntity
  8
LIVELLO_1
 62
     7
100
AcDb2dPolyline
 66
     1
 10
0.0
 20
0.0
 30
0.0
  0
VERTEX
  5
131
100
AcDbEntity
  8
LIVELLO_1
 62
     7
100
AcDbVertex
100
AcDb2dVertex
 10
-5.05585
 20
20.766347
 30
0.0
  0
VERTEX
  5
132
100
AcDbEntity
  8
LIVELLO_1
 62
     7
100
AcDbVertex
100
AcDb2dVertex
 10
-5.059123
 20
20.766347
 30
0.0
  0
VERTEX
  5
133
100
AcDbEntity
  8
LIVELLO_1
 62
     7
100
AcDbVertex
100
AcDb2dVertex
 10
-5.065324
 20
20.759973
 30
0.0
  0
VERTEX
  5
134
100
AcDbEntity
  8
LIVELLO_1
 62
     7
100
AcDbVertex
100
AcDb2dVertex
 10
-5.07187
 20
20.759973
 30
0.0
  0
SEQEND
  5
135
100
AcDbEntity
  8
LIVELLO_1
 62
     7
  0
POLYLINE
  5
128
100
AcDbEntity
  8
LIVELLO_1
 62
     7
100
AcDb2dPolyline
 66
     1
 10
0.0
 20
0.0
 30
0.0
  0
VERTEX
  5
129
100
AcDbEntity
  8
LIVELLO_1
 62
     7
100
AcDbVertex
100
AcDb2dVertex
 10
-8.070997
 20
20.766347
 30
0.0
  0
VERTEX
  5
12A
100
AcDbEntity
  8
LIVELLO_1
 62
     7
100
AcDbVertex
100
AcDb2dVertex
 10
-8.07427
 20
20.766347
 30
0.0
  0
VERTEX
  5
12B
100
AcDbEntity
  8
LIVELLO_1
 62
     7
100
AcDbVertex
100
AcDb2dVertex
 10
-8.077371
 20
20.759973
 30
0.0
  0
VERTEX
  5
12C
100
AcDbEntity
  8
LIVELLO_1
 62
     7
100
AcDbVertex
100
AcDb2dVertex
 10
-8.080471
 20
20.759973
 30
0.0
  0
VERTEX
  5
12D
100
AcDbEntity
  8
LIVELLO_1
 62
     7
100
AcDbVertex
100
AcDb2dVertex
 10
-8.083572
 20
20.759973
 30
0.0
  0
VERTEX
  5
12E
100
AcDbEntity
  8
LIVELLO_1
 62
     7
100
AcDbVertex
100
AcDb2dVertex
 10
-5.07187
 20
20.759973
 30
0.0
  0
SEQEND
  5
12F
100
AcDbEntity
  8
LIVELLO_1
 62
     7
  0
POLYLINE
  5
123
100
AcDbEntity
  8
LIVELLO_1
 62
     7
100
AcDb2dPolyline
 66
     1
 10
0.0
 20
0.0
 30
0.0
  0
VERTEX
  5
124
100
AcDbEntity
  8
LIVELLO_1
 62
     7
100
AcDbVertex
100
AcDb2dVertex
 10
-12.086428
 20
20.766347
 30
0.0
  0
VERTEX
  5
125
100
AcDbEntity
  8
LIVELLO_1
 62
     7
100
AcDbVertex
100
AcDb2dVertex
 10
-12.086428
 20
20.766347
 30
0.0
  0
VERTEX
  5
126
100
AcDbEntity
  8
LIVELLO_1
 62
     7
100
AcDbVertex
100
AcDb2dVertex
 10
-12.09263
 20
20.759973
 30
0.0
  0
SEQEND
  5
127
100
AcDbEntity
  8
LIVELLO_1
 62
     7
  0
LINE
  5
122
100
AcDbEntity
  8
LIVELLO_1
 62
     7
100
AcDbLine
 10
-12.09263
 20
20.759973
 30
0.0
 11
-15.636599
 21
20.759973
 31
0.0
  0
SPLINE
  5
121
100
AcDbEntity
  8
LIVELLO_1
 62
     7
100
AcDbSpline
210
0.0
220
0.0
230
1.0
 70
     8
 71
     3
 72
     8
 73
     4
 74
     0
 42
0.00000001
 43
0.00000001
 40
0.0
 40
0.0
 40
0.0
 40
0.0
 40
1.0
 40
1.0
 40
1.0
 40
1.0
 10
23.780116102430554
 20
47.657211642795133
 30
0.0
 10
20.505380588107638
 20
36.51766764322916
 30
0.0
 10
13.303925238715276
 20
26.967690700954858
 30
0.0
 10
3.4990112304687497
 20
20.759973144531248
 30
0.0
  0
SPLINE
  5
120
100
AcDbEntity
  8
LIVELLO_1
 62
     7
100
AcDbSpline
210
0.0
220
0.0
230
1.0
 70
     8
 71
     3
 72
     8
 73
     4
 74
     0
 42
0.00000001
 43
0.00000001
 40
0.0
 40
0.0
 40
0.0
 40
0.0
 40
1.0
 40
1.0
 40
1.0
 40
1.0
 10
18.145662434895833
 20
62.91140543619791
 30
0.0
 10
17.183275010850693
 20
46.793009440104164
 30
0.0
 10
10.003868272569443
 20
31.680581325954858
 30
0.0
 10
-1.8887736002604165
 20
20.759973144531248
 30
0.0
  0
SPLINE
  5
11F
100
AcDbEntity
  8
LIVELLO_1
 62
     7
100
AcDbSpline
210
0.0
220
0.0
230
1.0
 70
     8
 71
     3
 72
     8
 73
     4
 74
     0
 42
0.00000001
 43
0.00000001
 40
0.0
 40
0.0
 40
0.0
 40
0.0
 40
1.0
 40
1.0
 40
1.0
 40
1.0
 10
24.486188422309027
 20
63.145671929253467
 30
0.0
 10
23.848156738281247
 20
45.903485785590277
 30
0.0
 10
14.820284016927083
 20
30.085846625434026
 30
0.0
 10
0.2985175238715278
 20
20.759973144531248
 30
0.0
  0
SPLINE
  5
11E
100
AcDbEntity
  8
LIVELLO_1
 62
     7
100
AcDbSpline
210
0.0
220
0.0
230
1.0
 70
     8
 71
     3
 72
     8
 73
     4
 74
     0
 42
0.00000001
 43
0.00000001
 40
0.0
 40
0.0
 40
0.0
 40
0.0
 40
1.0
 40
1.0
 40
1.0
 40
1.0
 10
20.318656412760415
 20
62.629596625434019
 30
0.0
 10
20.573593478732636
 20
48.106796603732633
 30
0.0
 10
14.915368652343748
 20
34.121603732638889
 30
0.0
 10
4.6352037217881943
 20
23.859181043836802
 30
0.0
  0
SPLINE
  5
11D
100
AcDbEntity
  8
LIVELLO_1
 62
     7
100
AcDbSpline
210
0.0
220
0.0
230
1.0
 70
     8
 71
     3
 72
     8
 73
     4
 74
     0
 42
0.00000001
 43
0.00000001
 40
0.0
 40
0.0
 40
0.0
 40
0.0
 40
1.0
 40
1.0
 40
1.0
 40
1.0
 10
13.838948567708332
 20
62.91140543619791
 30
0.0
 10
13.948158094618055
 20
46.774233669704856
 30
0.0
 10
7.0538330078124991
 20
31.41186387803819
 30
0.0
 10
-5.0718695746527773
 20
20.759973144531248
 30
0.0
  0
SPLINE
  5
11C
100
AcDbEntity
  8
LIVELLO_1
 62
     7
100
AcDbSpline
210
0.0
220
0.0
230
1.0
 70
     8
 71
     3
 72
     8
 73
     4
 74
     0
 42
0.00000001
 43
0.00000001
 40
0.0
 40
0.0
 40
0.0
 40
0.0
 40
1.0
 40
1.0
 40
1.0
 40
1.0
 10
10.427959526909721
 20
62.629596625434019
 30
0.0
 10
10.944207085503471
 20
49.293976508246523
 30
0.0
 10
7.1058539496527775
 20
36.191761610243056
 30
0.0
 10
-0.5179701063368055
 20
25.245831976996527
 30
0.0
  0
SPLINE
  5
11B
100
AcDbEntity
  8
LIVELLO_1
 62
     7
100
AcDbSpline
210
0.0
220
0.0
230
1.0
 70
     8
 71
     3
 72
     8
 73
     4
 74
     0
 42
0.00000001
 43
0.00000001
 40
0.0
 40
0.0
 40
0.0
 40
0.0
 40
1.0
 40
1.0
 40
1.0
 40
1.0
 10
-0.3012736002604167
 20
62.91140543619791
 30
0.0
 10
0.3856784396701389
 20
47.944877115885411
 30
0.0
 10
-3.7405124240451384
 20
33.193839518229161
 30
0.0
 10
-12.095902506510416
 20
20.759973144531248
 30
0.0
  0
SPLINE
  5
11A
100
AcDbEntity
  8
LIVELLO_1
 62
     7
100
AcDbSpline
210
0.0
220
0.0
230
1.0
 70
     8
 71
     3
 72
     8
 73
     4
 74
     0
 42
0.00000001
 43
0.00000001
 40
0.0
 40
0.0
 40
0.0
 40
0.0
 40
1.0
 40
1.0
 40
1.0
 40
1.0
 10
5.1290581597222218
 20
62.91140543619791
 30
0.0
 10
4.5054958767361111
 20
47.939020453559024
 30
0.0
 10
-0.05115966796875
 20
33.409157986111111
 30
0.0
 10
-8.0804714626736107
 20
20.759973144531248
 30
0.0
  0
SPLINE
  5
119
100
AcDbEntity
  8
LIVELLO_1
 62
     7
100
AcDbSpline
210
0.0
220
0.0
230
1.0
 70
     8
 71
     3
 72
     8
 73
     4
 74
     0
 42
0.00000001
 43
0.00000001
 40
0.0
 40
0.0
 40
0.0
 40
0.0
 40
1.0
 40
1.0
 40
1.0
 40
1.0
 10
-2.6279188368055553
 20
62.645616319444436
 30
0.0
 10
-1.5421969943576388
 20
48.049608018663193
 30
0.0
 10
-4.8391533745659716
 20
33.472719997829856
 30
0.0
 10
-12.095902506510416
 20
20.759973144531248
 30
0.0
  0
SPLINE
  5
118
100
AcDbEntity
  8
LIVELLO_1
 62
     7
100
AcDbSpline
210
0.0
220
0.0
230
1.0
 70
     8
 71
     3
 72
     8
 73
     4
 74
     0
 42
0.00000001
 43
0.00000001
 40
0.0
 40
0.0
 40
0.0
 40
0.0
 40
1.0
 40
1.0
 40
1.0
 40
1.0
 10
-17.594447157118054
 20
62.357778591579859
 30
0.0
 10
-16.777615017361111
 20
48.384988064236104
 30
0.0
 10
-17.61012234157986
 20
34.520373535156246
 30
0.0
 10
-20.083873155381944
 20
20.750499131944444
 30
0.0
  0
SPLINE
  5
117
100
AcDbEntity
  8
LIVELLO_1
 62
     7
100
AcDbSpline
210
0.0
220
0.0
230
1.0
 70
     8
 71
     3
 72
     8
 73
     4
 74
     0
 42
0.00000001
 43
0.00000001
 40
0.0
 40
0.0
 40
0.0
 40
0.0
 40
1.0
 40
1.0
 40
1.0
 40
1.0
 10
-16.564019097222221
 20
62.91140543619791
 30
0.0
 10
-15.782154676649304
 20
48.739832899305554
 30
0.0
 10
-16.96433919270833
 20
34.596337890624994
 30
0.0
 10
-20.083873155381944
 20
20.759973144531248
 30
0.0
  0
SPLINE
  5
116
100
AcDbEntity
  8
LIVELLO_1
 62
     7
100
AcDbSpline
210
0.0
220
0.0
230
1.0
 70
     8
 71
     3
 72
     8
 73
     4
 74
     0
 42
0.00000001
 43
0.00000001
 40
0.0
 40
0.0
 40
0.0
 40
0.0
 40
1.0
 40
1.0
 40
1.0
 40
1.0
 10
-10.543370225694444
 20
62.91140543619791
 30
0.0
 10
-11.169860839843748
 20
48.55276421440972
 30
0.0
 10
-12.825745985243055
 20
34.849207899305554
 30
0.0
 10
-15.636599392361109
 20
20.750499131944444
 30
0.0
  0
SPLINE
  5
115
100
AcDbEntity
  8
LIVELLO_1
 62
     7
100
AcDbSpline
210
0.0
220
0.0
230
1.0
 70
     8
 71
     3
 72
     8
 73
     4
 74
     0
 42
0.00000001
 43
0.00000001
 40
0.0
 40
0.0
 40
0.0
 40
0.0
 40
1.0
 40
1.0
 40
1.0
 40
1.0
 10
-19.110461425781249
 20
51.053559027777773
 30
0.0
 10
-18.946130371093748
 20
40.806983778211801
 30
0.0
 10
-19.457382541232636
 20
30.924038357204857
 30
0.0
 10
-20.686937120225693
 20
20.759973144531248
 30
0.0
  0
SPLINE
  5
114
100
AcDbEntity
  8
LIVELLO_1
 62
     7
100
AcDbSpline
210
0.0
220
0.0
230
1.0
 70
     8
 71
     3
 72
    11
 73
     7
 74
     0
 42
0.00000001
 43
0.00000001
 40
0.0
 40
0.0
 40
0.0
 40
0.0
 40
1.0
 40
1.0
 40
1.0
 40
2.0
 40
2.0
 40
2.0
 40
2.0
 10
30.48289388020833
 20
63.481568739149303
 30
0.0
 10
30.473592122395832
 20
63.405604383680547
 30
0.0
 10
30.433973524305554
 20
63.326194932725691
 30
0.0
 10
30.380230034722221
 20
63.266250271267353
 30
0.0
 10
30.318218315972221
 20
63.212162272135409
 30
0.0
 10
30.244148763020831
 20
63.17736680772569
 30
0.0
 10
30.161810980902775
 20
63.174438476562493
 30
0.0
  0
LINE
  5
113
100
AcDbEntity
  8
LIVELLO_1
 62
     7
100
AcDbLine
 10
27.241404
 20
62.911405
 30
0.0
 11
27.25415
 21
63.048003
 31
0.0
  0
LINE
  5
112
100
AcDbEntity
  8
LIVELLO_1
 62
     7
100
AcDbLine
 10
27.25415
 20
63.048003
 30
0.0
 11
27.26862
 21
63.193214
 31
0.0
  0
SPLINE
  5
111
100
AcDbEntity
  8
LIVELLO_1
 62
     7
100
AcDbSpline
210
0.0
220
0.0
230
1.0
 70
     8
 71
     3
 72
     8
 73
     4
 74
     0
 42
0.00000001
 43
0.00000001
 40
0.0
 40
0.0
 40
0.0
 40
0.0
 40
1.0
 40
1.0
 40
1.0
 40
1.0
 10
27.268619791666666
 20
63.193214246961801
 30
0.0
 10
27.277921549479164
 20
63.272623697916664
 30
0.0
 10
27.309788682725692
 20
63.342042371961803
 30
0.0
 10
27.365082465277776
 20
63.40215928819444
 30
0.0
  0
SPLINE
  5
110
100
AcDbEntity
  8
LIVELLO_1
 62
     7
100
AcDbSpline
210
0.0
220
0.0
230
1.0
 70
     8
 71
     3
 72
     8
 73
     4
 74
     0
 42
0.00000001
 43
0.00000001
 40
0.0
 40
0.0
 40
0.0
 40
0.0
 40
1.0
 40
1.0
 40
1.0
 40
1.0
 10
27.365082465277776
 20
63.40215928819444
 30
0.0
 10
27.414175075954859
 20
63.452629937065964
 30
0.0
 10
27.485316297743054
 20
63.481568739149303
 30
0.0
 10
27.553356933593747
 20
63.481568739149303
 30
0.0
  0
LINE
  5
10F
100
AcDbEntity
  8
LIVELLO_1
 62
     7
100
AcDbLine
 10
27.553357
 20
63.481569
 30
0.0
 11
30.473592
 21
63.481569
 31
0.0
  0
SPLINE
  5
10E
100
AcDbEntity
  8
LIVELLO_1
 62
     7
100
AcDbSpline
210
0.0
220
0.0
230
1.0
 70
     8
 71
     3
 72
     8
 73
     4
 74
     0
 42
0.00000001
 43
0.00000001
 40
0.0
 40
0.0
 40
0.0
 40
0.0
 40
1.0
 40
1.0
 40
1.0
 40
1.0
 10
30.473592122395832
 20
63.484497070312493
 30
0.0
 10
30.519411892361109
 20
63.481568739149303
 30
0.0
 10
30.554207356770831
 20
63.446773274739577
 30
0.0
 10
30.563509114583329
 20
63.40215928819444
 30
0.0
  0
SPLINE
  5
10D
100
AcDbEntity
  8
LIVELLO_1
 62
     7
100
AcDbSpline
210
0.0
220
0.0
230
1.0
 70
     8
 71
     3
 72
     8
 73
     4
 74
     0
 42
0.00000001
 43
0.00000001
 40
0.0
 40
0.0
 40
0.0
 40
0.0
 40
1.0
 40
1.0
 40
1.0
 40
1.0
 10
30.56695421006944
 20
63.40215928819444
 30
0.0
 10
30.587624782986108
 20
63.348588053385413
 30
0.0
 10
30.596926540798609
 20
63.291571723090271
 30
0.0
 10
30.596926540798609
 20
63.237311469184021
 30
0.0
  0
LINE
  5
10C
100
AcDbEntity
  8
LIVELLO_1
 62
     7
100
AcDbLine
 10
27.26862
 20
63.174438
 30
0.0
 11
30.161811
 21
63.174438
 31
0.0
  0
LINE
  5
10B
100
AcDbEntity
  8
LIVELLO_1
 62
     7
100
AcDbLine
 10
30.161811
 20
63.174438
 30
0.0
 11
30.114269
 21
63.170821
 31
0.0
  0
LINE
  5
10A
100
AcDbEntity
  8
LIVELLO_1
 62
     7
100
AcDbLine
 10
30.114269
 20
63.170821
 30
0.0
 11
27.25415
 21
63.022682
 31
0.0
  0
POLYLINE
  5
F3
100
AcDbEntity
  8
LIVELLO_1
 62
     7
100
AcDb2dPolyline
 66
     1
 10
0.0
 20
0.0
 30
0.0
  0
VERTEX
  5
F4
100
AcDbEntity
  8
LIVELLO_1
 62
     7
100
AcDbVertex
100
AcDb2dVertex
 10
24.179058
 20
63.481569
 30
0.0
  0
VERTEX
  5
F5
100
AcDbEntity
  8
LIVELLO_1
 62
     7
100
AcDbVertex
100
AcDb2dVertex
 10
24.175785
 20
63.459176
 30
0.0
  0
VERTEX
  5
F6
100
AcDbEntity
  8
LIVELLO_1
 62
     7
100
AcDbVertex
100
AcDb2dVertex
 10
24.172512
 20
63.433854
 30
0.0
  0
VERTEX
  5
F7
100
AcDbEntity
  8
LIVELLO_1
 62
     7
100
AcDbVertex
100
AcDb2dVertex
 10
24.166484
 20
63.415078
 30
0.0
  0
VERTEX
  5
F8
100
AcDbEntity
  8
LIVELLO_1
 62
     7
100
AcDbVertex
100
AcDb2dVertex
 10
24.158388
 20
63.38614
 30
0.0
  0
VERTEX
  5
F9
100
AcDbEntity
  8
LIVELLO_1
 62
     7
100
AcDbVertex
100
AcDb2dVertex
 10
24.152014
 20
63.367364
 30
0.0
  0
VERTEX
  5
FA
100
AcDbEntity
  8
LIVELLO_1
 62
     7
100
AcDbVertex
100
AcDb2dVertex
 10
24.14254
 20
63.348588
 30
0.0
  0
VERTEX
  5
FB
100
AcDbEntity
  8
LIVELLO_1
 62
     7
100
AcDbVertex
100
AcDb2dVertex
 10
24.133238
 20
63.326195
 30
0.0
  0
VERTEX
  5
FC
100
AcDbEntity
  8
LIVELLO_1
 62
     7
100
AcDbVertex
100
AcDb2dVertex
 10
24.120492
 20
63.303802
 30
0.0
  0
VERTEX
  5
FD
100
AcDbEntity
  8
LIVELLO_1
 62
     7
100
AcDbVertex
100
AcDb2dVertex
 10
24.107917
 20
63.288643
 30
0.0
  0
VERTEX
  5
FE
100
AcDbEntity
  8
LIVELLO_1
 62
     7
100
AcDbVertex
100
AcDb2dVertex
 10
24.090175
 20
63.272624
 30
0.0
  0
VERTEX
  5
FF
100
AcDbEntity
  8
LIVELLO_1
 62
     7
100
AcDbVertex
100
AcDb2dVertex
 10
24.074672
 20
63.250403
 30
0.0
  0
VERTEX
  5
100
100
AcDbEntity
  8
LIVELLO_1
 62
     7
100
AcDbVertex
100
AcDb2dVertex
 10
24.058824
 20
63.237311
 30
0.0
  0
VERTEX
  5
101
100
AcDbEntity
  8
LIVELLO_1
 62
     7
100
AcDbVertex
100
AcDb2dVertex
 10
24.046077
 20
63.222153
 30
0.0
  0
VERTEX
  5
102
100
AcDbEntity
  8
LIVELLO_1
 62
     7
100
AcDbVertex
100
AcDb2dVertex
 10
24.022306
 20
63.212162
 30
0.0
  0
VERTEX
  5
103
100
AcDbEntity
  8
LIVELLO_1
 62
     7
100
AcDbVertex
100
AcDb2dVertex
 10
24.006459
 20
63.19976
 30
0.0
  0
VERTEX
  5
104
100
AcDbEntity
  8
LIVELLO_1
 62
     7
100
AcDbVertex
100
AcDb2dVertex
 10
23.987511
 20
63.196143
 30
0.0
  0
VERTEX
  5
105
100
AcDbEntity
  8
LIVELLO_1
 62
     7
100
AcDbVertex
100
AcDb2dVertex
 10
23.965118
 20
63.186841
 30
0.0
  0
VERTEX
  5
106
100
AcDbEntity
  8
LIVELLO_1
 62
     7
100
AcDbVertex
100
AcDb2dVertex
 10
23.944619
 20
63.177367
 30
0.0
  0
VERTEX
  5
107
100
AcDbEntity
  8
LIVELLO_1
 62
     7
100
AcDbVertex
100
AcDb2dVertex
 10
23.925844
 20
63.177367
 30
0.0
  0
VERTEX
  5
108
100
AcDbEntity
  8
LIVELLO_1
 62
     7
100
AcDbVertex
100
AcDb2dVertex
 10
23.903795
 20
63.174438
 30
0.0
  0
SEQEND
  5
109
100
AcDbEntity
  8
LIVELLO_1
 62
     7
  0
POLYLINE
  5
DC
100
AcDbEntity
  8
LIVELLO_1
 62
     7
100
AcDb2dPolyline
 66
     1
 10
0.0
 20
0.0
 30
0.0
  0
VERTEX
  5
DD
100
AcDbEntity
  8
LIVELLO_1
 62
     7
100
AcDbVertex
100
AcDb2dVertex
 10
20.152431
 20
62.956192
 30
0.0
  0
VERTEX
  5
DE
100
AcDbEntity
  8
LIVELLO_1
 62
     7
100
AcDbVertex
100
AcDb2dVertex
 10
20.158804
 20
62.956192
 30
0.0
  0
VERTEX
  5
DF
100
AcDbEntity
  8
LIVELLO_1
 62
     7
100
AcDbVertex
100
AcDb2dVertex
 10
20.162077
 20
62.952747
 30
0.0
  0
VERTEX
  5
E0
100
AcDbEntity
  8
LIVELLO_1
 62
     7
100
AcDbVertex
100
AcDb2dVertex
 10
20.168278
 20
62.952747
 30
0.0
  0
VERTEX
  5
E1
100
AcDbEntity
  8
LIVELLO_1
 62
     7
100
AcDbVertex
100
AcDb2dVertex
 10
20.171551
 20
62.952747
 30
0.0
  0
VERTEX
  5
E2
100
AcDbEntity
  8
LIVELLO_1
 62
     7
100
AcDbVertex
100
AcDb2dVertex
 10
20.179475
 20
62.949646
 30
0.0
  0
VERTEX
  5
E3
100
AcDbEntity
  8
LIVELLO_1
 62
     7
100
AcDbVertex
100
AcDb2dVertex
 10
20.185676
 20
62.943273
 30
0.0
  0
VERTEX
  5
E4
100
AcDbEntity
  8
LIVELLO_1
 62
     7
100
AcDbVertex
100
AcDb2dVertex
 10
20.192049
 20
62.943273
 30
0.0
  0
VERTEX
  5
E5
100
AcDbEntity
  8
LIVELLO_1
 62
     7
100
AcDbVertex
100
AcDb2dVertex
 10
20.19825
 20
62.940344
 30
0.0
  0
VERTEX
  5
E6
100
AcDbEntity
  8
LIVELLO_1
 62
     7
100
AcDbVertex
100
AcDb2dVertex
 10
20.204796
 20
62.936727
 30
0.0
  0
VERTEX
  5
E7
100
AcDbEntity
  8
LIVELLO_1
 62
     7
100
AcDbVertex
100
AcDb2dVertex
 10
20.214098
 20
62.927425
 30
0.0
  0
VERTEX
  5
E8
100
AcDbEntity
  8
LIVELLO_1
 62
     7
100
AcDbVertex
100
AcDb2dVertex
 10
20.223572
 20
62.915023
 30
0.0
  0
VERTEX
  5
E9
100
AcDbEntity
  8
LIVELLO_1
 62
     7
100
AcDbVertex
100
AcDb2dVertex
 10
20.236146
 20
62.902104
 30
0.0
  0
VERTEX
  5
EA
100
AcDbEntity
  8
LIVELLO_1
 62
     7
100
AcDbVertex
100
AcDb2dVertex
 10
20.247343
 20
62.886256
 30
0.0
  0
VERTEX
  5
EB
100
AcDbEntity
  8
LIVELLO_1
 62
     7
100
AcDbVertex
100
AcDb2dVertex
 10
20.256817
 20
62.867308
 30
0.0
  0
VERTEX
  5
EC
100
AcDbEntity
  8
LIVELLO_1
 62
     7
100
AcDbVertex
100
AcDb2dVertex
 10
20.266463
 20
62.851461
 30
0.0
  0
VERTEX
  5
ED
100
AcDbEntity
  8
LIVELLO_1
 62
     7
100
AcDbVertex
100
AcDb2dVertex
 10
20.282483
 20
62.810292
 30
0.0
  0
VERTEX
  5
EE
100
AcDbEntity
  8
LIVELLO_1
 62
     7
100
AcDbVertex
100
AcDb2dVertex
 10
20.297986
 20
62.769123
 30
0.0
  0
VERTEX
  5
EF
100
AcDbEntity
  8
LIVELLO_1
 62
     7
100
AcDbVertex
100
AcDb2dVertex
 10
20.307632
 20
62.71848
 30
0.0
  0
VERTEX
  5
F0
100
AcDbEntity
  8
LIVELLO_1
 62
     7
100
AcDbVertex
100
AcDb2dVertex
 10
20.315728
 20
62.677311
 30
0.0
  0
VERTEX
  5
F1
100
AcDbEntity
  8
LIVELLO_1
 62
     7
100
AcDbVertex
100
AcDb2dVertex
 10
20.318656
 20
62.629597
 30
0.0
  0
SEQEND
  5
F2
100
AcDbEntity
  8
LIVELLO_1
 62
     7
  0
LINE
  5
DB
100
AcDbEntity
  8
LIVELLO_1
 62
     7
100
AcDbLine
 10
18.145662
 20
62.911405
 30
0.0
 11
18.159787
 21
63.048003
 31
0.0
  0
LINE
  5
DA
100
AcDbEntity
  8
LIVELLO_1
 62
     7
100
AcDbLine
 10
18.159787
 20
63.048003
 30
0.0
 11
18.172534
 21
63.193214
 31
0.0
  0
SPLINE
  5
D9
100
AcDbEntity
  8
LIVELLO_1
 62
     7
100
AcDbSpline
210
0.0
220
0.0
230
1.0
 70
     8
 71
     3
 72
     8
 73
     4
 74
     0
 42
0.00000001
 43
0.00000001
 40
0.0
 40
0.0
 40
0.0
 40
0.0
 40
1.0
 40
1.0
 40
1.0
 40
1.0
 10
18.169261338975694
 20
63.193214246961801
 30
0.0
 10
18.181835937499997
 20
63.278652615017357
 30
0.0
 10
18.240402560763886
 20
63.355133734809023
 30
0.0
 10
18.318089463975692
 20
63.40215928819444
 30
0.0
  0
SPLINE
  5
D8
100
AcDbEntity
  8
LIVELLO_1
 62
     7
100
AcDbSpline
210
0.0
220
0.0
230
1.0
 70
     8
 71
     3
 72
     8
 73
     4
 74
     0
 42
0.00000001
 43
0.00000001
 40
0.0
 40
0.0
 40
0.0
 40
0.0
 40
1.0
 40
1.0
 40
1.0
 40
1.0
 10
18.318089463975692
 20
63.40215928819444
 30
0.0
 10
18.411623806423609
 20
63.456247287326384
 30
0.0
 10
18.518938530815969
 20
63.484497070312493
 30
0.0
 10
18.626597764756944
 20
63.481568739149303
 30
0.0
  0
LINE
  5
D7
100
AcDbEntity
  8
LIVELLO_1
 62
     7
100
AcDbLine
 10
18.626598
 20
63.481569
 30
0.0
 11
24.179058
 21
63.481569
 31
0.0
  0
SPLINE
  5
D6
100
AcDbEntity
  8
LIVELLO_1
 62
     7
100
AcDbSpline
210
0.0
220
0.0
230
1.0
 70
     8
 71
     3
 72
     8
 73
     4
 74
     0
 42
0.00000001
 43
0.00000001
 40
0.0
 40
0.0
 40
0.0
 40
0.0
 40
1.0
 40
1.0
 40
1.0
 40
1.0
 10
24.179058159722221
 20
63.481568739149303
 30
0.0
 10
24.262946234809025
 20
63.484497070312493
 30
0.0
 10
24.343561469184024
 20
63.456247287326384
 30
0.0
 10
24.408501519097221
 20
63.40215928819444
 30
0.0
  0
SPLINE
  5
D5
100
AcDbEntity
  8
LIVELLO_1
 62
     7
100
AcDbSpline
210
0.0
220
0.0
230
1.0
 70
     8
 71
     3
 72
     8
 73
     4
 74
     0
 42
0.00000001
 43
0.00000001
 40
0.0
 40
0.0
 40
0.0
 40
0.0
 40
1.0
 40
1.0
 40
1.0
 40
1.0
 10
24.408501519097221
 20
63.40215928819444
 30
0.0
 10
24.451220703124999
 20
63.36099039713541
 30
0.0
 10
24.482915581597219
 20
63.31034749348958
 30
0.0
 10
24.489116753472221
 20
63.250402832031241
 30
0.0
  0
LINE
  5
D4
100
AcDbEntity
  8
LIVELLO_1
 62
     7
100
AcDbLine
 10
18.148591
 20
62.956192
 30
0.0
 11
20.152431
 21
62.956192
 31
0.0
  0
LINE
  5
D3
100
AcDbEntity
  8
LIVELLO_1
 62
     7
100
AcDbLine
 10
18.169261
 20
63.174438
 30
0.0
 11
23.903795
 21
63.174438
 31
0.0
  0
LINE
  5
D2
100
AcDbEntity
  8
LIVELLO_1
 62
     7
100
AcDbLine
 10
23.903795
 20
63.174438
 30
0.0
 11
23.860731
 21
63.170821
 31
0.0
  0
LINE
  5
D1
100
AcDbEntity
  8
LIVELLO_1
 62
     7
100
AcDbLine
 10
23.860731
 20
63.170821
 30
0.0
 11
20.152431
 21
62.956192
 31
0.0
  0
POLYLINE
  5
BB
100
AcDbEntity
  8
LIVELLO_1
 62
     7
100
AcDb2dPolyline
 66
     1
 10
0.0
 20
0.0
 30
0.0
  0
VERTEX
  5
BC
100
AcDbEntity
  8
LIVELLO_1
 62
     7
100
AcDbVertex
100
AcDb2dVertex
 10
13.368865
 20
63.481569
 30
0.0
  0
VERTEX
  5
BD
100
AcDbEntity
  8
LIVELLO_1
 62
     7
100
AcDbVertex
100
AcDb2dVertex
 10
13.365765
 20
63.456247
 30
0.0
  0
VERTEX
  5
BE
100
AcDbEntity
  8
LIVELLO_1
 62
     7
100
AcDbVertex
100
AcDb2dVertex
 10
13.362492
 20
63.427481
 30
0.0
  0
VERTEX
  5
BF
100
AcDbEntity
  8
LIVELLO_1
 62
     7
100
AcDbVertex
100
AcDb2dVertex
 10
13.354568
 20
63.392685
 30
0.0
  0
VERTEX
  5
C0
100
AcDbEntity
  8
LIVELLO_1
 62
     7
100
AcDbVertex
100
AcDb2dVertex
 10
13.348367
 20
63.367364
 30
0.0
  0
VERTEX
  5
C1
100
AcDbEntity
  8
LIVELLO_1
 62
     7
100
AcDbVertex
100
AcDb2dVertex
 10
13.338893
 20
63.342042
 30
0.0
  0
VERTEX
  5
C2
100
AcDbEntity
  8
LIVELLO_1
 62
     7
100
AcDbVertex
100
AcDb2dVertex
 10
13.329247
 20
63.316893
 30
0.0
  0
VERTEX
  5
C3
100
AcDbEntity
  8
LIVELLO_1
 62
     7
100
AcDbVertex
100
AcDb2dVertex
 10
13.3165
 20
63.291572
 30
0.0
  0
VERTEX
  5
C4
100
AcDbEntity
  8
LIVELLO_1
 62
     7
100
AcDbVertex
100
AcDb2dVertex
 10
13.303925
 20
63.272624
 30
0.0
  0
VERTEX
  5
C5
100
AcDbEntity
  8
LIVELLO_1
 62
     7
100
AcDbVertex
100
AcDb2dVertex
 10
13.291351
 20
63.250403
 30
0.0
  0
VERTEX
  5
C6
100
AcDbEntity
  8
LIVELLO_1
 62
     7
100
AcDbVertex
100
AcDb2dVertex
 10
13.277226
 20
63.237311
 30
0.0
  0
VERTEX
  5
C7
100
AcDbEntity
  8
LIVELLO_1
 62
     7
100
AcDbVertex
100
AcDb2dVertex
 10
13.264479
 20
63.222153
 30
0.0
  0
VERTEX
  5
C8
100
AcDbEntity
  8
LIVELLO_1
 62
     7
100
AcDbVertex
100
AcDb2dVertex
 10
13.251904
 20
63.212162
 30
0.0
  0
VERTEX
  5
C9
100
AcDbEntity
  8
LIVELLO_1
 62
     7
100
AcDbVertex
100
AcDb2dVertex
 10
13.236057
 20
63.19976
 30
0.0
  0
VERTEX
  5
CA
100
AcDbEntity
  8
LIVELLO_1
 62
     7
100
AcDbVertex
100
AcDb2dVertex
 10
13.22331
 20
63.196143
 30
0.0
  0
VERTEX
  5
CB
100
AcDbEntity
  8
LIVELLO_1
 62
     7
100
AcDbVertex
100
AcDb2dVertex
 10
13.205912
 20
63.186841
 30
0.0
  0
VERTEX
  5
CC
100
AcDbEntity
  8
LIVELLO_1
 62
     7
100
AcDbVertex
100
AcDb2dVertex
 10
13.192993
 20
63.177367
 30
0.0
  0
VERTEX
  5
CD
100
AcDbEntity
  8
LIVELLO_1
 62
     7
100
AcDbVertex
100
AcDb2dVertex
 10
13.174217
 20
63.177367
 30
0.0
  0
VERTEX
  5
CE
100
AcDbEntity
  8
LIVELLO_1
 62
     7
100
AcDbVertex
100
AcDb2dVertex
 10
13.167672
 20
63.174438
 30
0.0
  0
VERTEX
  5
CF
100
AcDbEntity
  8
LIVELLO_1
 62
     7
100
AcDbVertex
100
AcDb2dVertex
 10
13.161643
 20
63.174438
 30
0.0
  0
SEQEND
  5
D0
100
AcDbEntity
  8
LIVELLO_1
 62
     7
  0
POLYLINE
  5
A4
100
AcDbEntity
  8
LIVELLO_1
 62
     7
100
AcDb2dPolyline
 66
     1
 10
0.0
 20
0.0
 30
0.0
  0
VERTEX
  5
A5
100
AcDbEntity
  8
LIVELLO_1
 62
     7
100
AcDbVertex
100
AcDb2dVertex
 10
10.182669
 20
62.956192
 30
0.0
  0
VERTEX
  5
A6
100
AcDbEntity
  8
LIVELLO_1
 62
     7
100
AcDbVertex
100
AcDb2dVertex
 10
10.192315
 20
62.956192
 30
0.0
  0
VERTEX
  5
A7
100
AcDbEntity
  8
LIVELLO_1
 62
     7
100
AcDbVertex
100
AcDb2dVertex
 10
10.20799
 20
62.952747
 30
0.0
  0
VERTEX
  5
A8
100
AcDbEntity
  8
LIVELLO_1
 62
     7
100
AcDbVertex
100
AcDb2dVertex
 10
10.22711
 20
62.949646
 30
0.0
  0
VERTEX
  5
A9
100
AcDbEntity
  8
LIVELLO_1
 62
     7
100
AcDbVertex
100
AcDb2dVertex
 10
10.242958
 20
62.943273
 30
0.0
  0
VERTEX
  5
AA
100
AcDbEntity
  8
LIVELLO_1
 62
     7
100
AcDbVertex
100
AcDb2dVertex
 10
10.260356
 20
62.936727
 30
0.0
  0
VERTEX
  5
AB
100
AcDbEntity
  8
LIVELLO_1
 62
     7
100
AcDbVertex
100
AcDb2dVertex
 10
10.279476
 20
62.927425
 30
0.0
  0
VERTEX
  5
AC
100
AcDbEntity
  8
LIVELLO_1
 62
     7
100
AcDbVertex
100
AcDb2dVertex
 10
10.294979
 20
62.915023
 30
0.0
  0
VERTEX
  5
AD
100
AcDbEntity
  8
LIVELLO_1
 62
     7
100
AcDbVertex
100
AcDb2dVertex
 10
10.310999
 20
62.902104
 30
0.0
  0
VERTEX
  5
AE
100
AcDbEntity
  8
LIVELLO_1
 62
     7
100
AcDbVertex
100
AcDb2dVertex
 10
10.325296
 20
62.886256
 30
0.0
  0
VERTEX
  5
AF
100
AcDbEntity
  8
LIVELLO_1
 62
     7
100
AcDbVertex
100
AcDb2dVertex
 10
10.340971
 20
62.867308
 30
0.0
  0
VERTEX
  5
B0
100
AcDbEntity
  8
LIVELLO_1
 62
     7
100
AcDbVertex
100
AcDb2dVertex
 10
10.356818
 20
62.851461
 30
0.0
  0
VERTEX
  5
B1
100
AcDbEntity
  8
LIVELLO_1
 62
     7
100
AcDbVertex
100
AcDb2dVertex
 10
10.366465
 20
62.832685
 30
0.0
  0
VERTEX
  5
B2
100
AcDbEntity
  8
LIVELLO_1
 62
     7
100
AcDbVertex
100
AcDb2dVertex
 10
10.379211
 20
62.810292
 30
0.0
  0
VERTEX
  5
B3
100
AcDbEntity
  8
LIVELLO_1
 62
     7
100
AcDbVertex
100
AcDb2dVertex
 10
10.390063
 20
62.787899
 30
0.0
  0
VERTEX
  5
B4
100
AcDbEntity
  8
LIVELLO_1
 62
     7
100
AcDbVertex
100
AcDb2dVertex
 10
10.39971
 20
62.769123
 30
0.0
  0
VERTEX
  5
B5
100
AcDbEntity
  8
LIVELLO_1
 62
     7
100
AcDbVertex
100
AcDb2dVertex
 10
10.409184
 20
62.74673
 30
0.0
  0
VERTEX
  5
B6
100
AcDbEntity
  8
LIVELLO_1
 62
     7
100
AcDbVertex
100
AcDb2dVertex
 10
10.415385
 20
62.71848
 30
0.0
  0
VERTEX
  5
B7
100
AcDbEntity
  8
LIVELLO_1
 62
     7
100
AcDbVertex
100
AcDb2dVertex
 10
10.418658
 20
62.693159
 30
0.0
  0
VERTEX
  5
B8
100
AcDbEntity
  8
LIVELLO_1
 62
     7
100
AcDbVertex
100
AcDb2dVertex
 10
10.425031
 20
62.670938
 30
0.0
  0
VERTEX
  5
B9
100
AcDbEntity
  8
LIVELLO_1
 62
     7
100
AcDbVertex
100
AcDb2dVertex
 10
10.42796
 20
62.629597
 30
0.0
  0
SEQEND
  5
BA
100
AcDbEntity
  8
LIVELLO_1
 62
     7
  0
LINE
  5
A3
100
AcDbEntity
  8
LIVELLO_1
 62
     7
100
AcDbLine
 10
5.129058
 20
62.911405
 30
0.0
 11
5.138532
 21
63.048003
 31
0.0
  0
LINE
  5
A2
100
AcDbEntity
  8
LIVELLO_1
 62
     7
100
AcDbLine
 10
5.138532
 20
63.048003
 30
0.0
 11
5.148006
 21
63.193214
 31
0.0
  0
SPLINE
  5
A1
100
AcDbEntity
  8
LIVELLO_1
 62
     7
100
AcDbSpline
210
0.0
220
0.0
230
1.0
 70
     8
 71
     3
 72
     8
 73
     4
 74
     0
 42
0.00000001
 43
0.00000001
 40
0.0
 40
0.0
 40
0.0
 40
0.0
 40
1.0
 40
1.0
 40
1.0
 40
1.0
 10
5.145077853732638
 20
63.193214246961801
 30
0.0
 10
5.1671264648437498
 20
63.288643391927074
 30
0.0
 10
5.2349948459201388
 20
63.364435492621524
 30
0.0
 10
5.3300794813368046
 20
63.40215928819444
 30
0.0
  0
SPLINE
  5
A0
100
AcDbEntity
  8
LIVELLO_1
 62
     7
100
AcDbSpline
210
0.0
220
0.0
230
1.0
 70
     8
 71
     3
 72
     8
 73
     4
 74
     0
 42
0.00000001
 43
0.00000001
 40
0.0
 40
0.0
 40
0.0
 40
0.0
 40
1.0
 40
1.0
 40
1.0
 40
1.0
 10
5.3268066406249996
 20
63.405604383680547
 30
0.0
 10
5.4520358615451388
 20
63.456247287326384
 30
0.0
 10
5.592768012152777
 20
63.484497070312493
 30
0.0
 10
5.7288492838541663
 20
63.481568739149303
 30
0.0
  0
LINE
  5
9F
100
AcDbEntity
  8
LIVELLO_1
 62
     7
100
AcDbLine
 10
5.728849
 20
63.481569
 30
0.0
 11
13.368865
 21
63.481569
 31
0.0
  0
SPLINE
  5
9E
100
AcDbEntity
  8
LIVELLO_1
 62
     7
100
AcDbSpline
210
0.0
220
0.0
230
1.0
 70
     8
 71
     3
 72
     8
 73
     4
 74
     0
 42
0.00000001
 43
0.00000001
 40
0.0
 40
0.0
 40
0.0
 40
0.0
 40
1.0
 40
1.0
 40
1.0
 40
1.0
 10
13.368865288628472
 20
63.481568739149303
 30
0.0
 10
13.492199707031249
 20
63.484497070312493
 30
0.0
 10
13.607782660590276
 20
63.456247287326384
 30
0.0
 10
13.715441894531249
 20
63.405604383680547
 30
0.0
  0
SPLINE
  5
9D
100
AcDbEntity
  8
LIVELLO_1
 62
     7
100
AcDbSpline
210
0.0
220
0.0
230
1.0
 70
     8
 71
     3
 72
     8
 73
     4
 74
     0
 42
0.00000001
 43
0.00000001
 40
0.0
 40
0.0
 40
0.0
 40
0.0
 40
1.0
 40
1.0
 40
1.0
 40
1.0
 10
13.712169053819443
 20
63.40215928819444
 30
0.0
 10
13.793128797743055
 20
63.36099039713541
 30
0.0
 10
13.845149739583333
 20
63.278652615017357
 30
0.0
 10
13.848422580295138
 20
63.193214246961801
 30
0.0
  0
LINE
  5
9C
100
AcDbEntity
  8
LIVELLO_1
 62
     7
100
AcDbLine
 10
13.848423
 20
63.193214
 30
0.0
 11
13.84515
 21
63.048003
 31
0.0
  0
LINE
  5
9B
100
AcDbEntity
  8
LIVELLO_1
 62
     7
100
AcDbLine
 10
13.838949
 20
62.911405
 30
0.0
 11
13.84515
 21
63.048003
 31
0.0
  0
LINE
  5
9A
100
AcDbEntity
  8
LIVELLO_1
 62
     7
100
AcDbLine
 10
5.129058
 20
62.956192
 30
0.0
 11
10.182669
 21
62.956192
 31
0.0
  0
LINE
  5
99
100
AcDbEntity
  8
LIVELLO_1
 62
     7
100
AcDbLine
 10
5.145078
 20
63.174438
 30
0.0
 11
13.161643
 21
63.174438
 31
0.0
  0
LINE
  5
98
100
AcDbEntity
  8
LIVELLO_1
 62
     7
100
AcDbLine
 10
13.161643
 20
63.174438
 30
0.0
 11
13.121852
 21
63.170821
 31
0.0
  0
LINE
  5
97
100
AcDbEntity
  8
LIVELLO_1
 62
     7
100
AcDbLine
 10
13.121852
 20
63.170821
 30
0.0
 11
10.182669
 21
62.956192
 31
0.0
  0
POLYLINE
  5
81
100
AcDbEntity
  8
LIVELLO_1
 62
     7
100
AcDb2dPolyline
 66
     1
 10
0.0
 20
0.0
 30
0.0
  0
VERTEX
  5
82
100
AcDbEntity
  8
LIVELLO_1
 62
     7
100
AcDbVertex
100
AcDb2dVertex
 10
-0.898136
 20
63.481569
 30
0.0
  0
VERTEX
  5
83
100
AcDbEntity
  8
LIVELLO_1
 62
     7
100
AcDbVertex
100
AcDb2dVertex
 10
-0.901237
 20
63.427481
 30
0.0
  0
VERTEX
  5
84
100
AcDbEntity
  8
LIVELLO_1
 62
     7
100
AcDbVertex
100
AcDb2dVertex
 10
-0.910711
 20
63.367364
 30
0.0
  0
VERTEX
  5
85
100
AcDbEntity
  8
LIVELLO_1
 62
     7
100
AcDbVertex
100
AcDb2dVertex
 10
-0.920185
 20
63.316893
 30
0.0
  0
VERTEX
  5
86
100
AcDbEntity
  8
LIVELLO_1
 62
     7
100
AcDbVertex
100
AcDb2dVertex
 10
-0.929487
 20
63.291572
 30
0.0
  0
VERTEX
  5
87
100
AcDbEntity
  8
LIVELLO_1
 62
     7
100
AcDbVertex
100
AcDb2dVertex
 10
-0.936032
 20
63.272624
 30
0.0
  0
VERTEX
  5
88
100
AcDbEntity
  8
LIVELLO_1
 62
     7
100
AcDbVertex
100
AcDb2dVertex
 10
-0.942234
 20
63.250403
 30
0.0
  0
VERTEX
  5
89
100
AcDbEntity
  8
LIVELLO_1
 62
     7
100
AcDbVertex
100
AcDb2dVertex
 10
-0.948607
 20
63.237311
 30
0.0
  0
VERTEX
  5
8A
100
AcDbEntity
  8
LIVELLO_1
 62
     7
100
AcDbVertex
100
AcDb2dVertex
 10
-0.958081
 20
63.222153
 30
0.0
  0
VERTEX
  5
8B
100
AcDbEntity
  8
LIVELLO_1
 62
     7
100
AcDbVertex
100
AcDb2dVertex
 10
-0.966005
 20
63.212162
 30
0.0
  0
VERTEX
  5
8C
100
AcDbEntity
  8
LIVELLO_1
 62
     7
100
AcDbVertex
100
AcDb2dVertex
 10
-0.978579
 20
63.19976
 30
0.0
  0
VERTEX
  5
8D
100
AcDbEntity
  8
LIVELLO_1
 62
     7
100
AcDbVertex
100
AcDb2dVertex
 10
-0.985125
 20
63.196143
 30
0.0
  0
VERTEX
  5
8E
100
AcDbEntity
  8
LIVELLO_1
 62
     7
100
AcDbVertex
100
AcDb2dVertex
 10
-0.988053
 20
63.193214
 30
0.0
  0
VERTEX
  5
8F
100
AcDbEntity
  8
LIVELLO_1
 62
     7
100
AcDbVertex
100
AcDb2dVertex
 10
-0.991326
 20
63.186841
 30
0.0
  0
VERTEX
  5
90
100
AcDbEntity
  8
LIVELLO_1
 62
     7
100
AcDbVertex
100
AcDb2dVertex
 10
-0.9977
 20
63.183912
 30
0.0
  0
VERTEX
  5
91
100
AcDbEntity
  8
LIVELLO_1
 62
     7
100
AcDbVertex
100
AcDb2dVertex
 10
-1.0008
 20
63.177367
 30
0.0
  0
VERTEX
  5
92
100
AcDbEntity
  8
LIVELLO_1
 62
     7
100
AcDbVertex
100
AcDb2dVertex
 10
-1.007174
 20
63.177367
 30
0.0
  0
VERTEX
  5
93
100
AcDbEntity
  8
LIVELLO_1
 62
     7
100
AcDbVertex
100
AcDb2dVertex
 10
-1.013719
 20
63.177367
 30
0.0
  0
VERTEX
  5
94
100
AcDbEntity
  8
LIVELLO_1
 62
     7
100
AcDbVertex
100
AcDb2dVertex
 10
-1.016648
 20
63.174438
 30
0.0
  0
VERTEX
  5
95
100
AcDbEntity
  8
LIVELLO_1
 62
     7
100
AcDbVertex
100
AcDb2dVertex
 10
-1.019921
 20
63.174438
 30
0.0
  0
SEQEND
  5
96
100
AcDbEntity
  8
LIVELLO_1
 62
     7
  0
POLYLINE
  5
6A
100
AcDbEntity
  8
LIVELLO_1
 62
     7
100
AcDb2dPolyline
 66
     1
 10
0.0
 20
0.0
 30
0.0
  0
VERTEX
  5
6B
100
AcDbEntity
  8
LIVELLO_1
 62
     7
100
AcDbVertex
100
AcDb2dVertex
 10
-2.936599
 20
62.956192
 30
0.0
  0
VERTEX
  5
6C
100
AcDbEntity
  8
LIVELLO_1
 62
     7
100
AcDbVertex
100
AcDb2dVertex
 10
-2.912656
 20
62.952747
 30
0.0
  0
VERTEX
  5
6D
100
AcDbEntity
  8
LIVELLO_1
 62
     7
100
AcDbVertex
100
AcDb2dVertex
 10
-2.887335
 20
62.952747
 30
0.0
  0
VERTEX
  5
6E
100
AcDbEntity
  8
LIVELLO_1
 62
     7
100
AcDbVertex
100
AcDb2dVertex
 10
-2.868559
 20
62.943273
 30
0.0
  0
VERTEX
  5
6F
100
AcDbEntity
  8
LIVELLO_1
 62
     7
100
AcDbVertex
100
AcDb2dVertex
 10
-2.844788
 20
62.940344
 30
0.0
  0
VERTEX
  5
70
100
AcDbEntity
  8
LIVELLO_1
 62
     7
100
AcDbVertex
100
AcDb2dVertex
 10
-2.822739
 20
62.93087
 30
0.0
  0
VERTEX
  5
71
100
AcDbEntity
  8
LIVELLO_1
 62
     7
100
AcDbVertex
100
AcDb2dVertex
 10
-2.800346
 20
62.917951
 30
0.0
  0
VERTEX
  5
72
100
AcDbEntity
  8
LIVELLO_1
 62
     7
100
AcDbVertex
100
AcDb2dVertex
 10
-2.779848
 20
62.911405
 30
0.0
  0
VERTEX
  5
73
100
AcDbEntity
  8
LIVELLO_1
 62
     7
100
AcDbVertex
100
AcDb2dVertex
 10
-2.7609
 20
62.89263
 30
0.0
  0
VERTEX
  5
74
100
AcDbEntity
  8
LIVELLO_1
 62
     7
100
AcDbVertex
100
AcDb2dVertex
 10
-2.745052
 20
62.879711
 30
0.0
  0
VERTEX
  5
75
100
AcDbEntity
  8
LIVELLO_1
 62
     7
100
AcDbVertex
100
AcDb2dVertex
 10
-2.725932
 20
62.860935
 30
0.0
  0
VERTEX
  5
76
100
AcDbEntity
  8
LIVELLO_1
 62
     7
100
AcDbVertex
100
AcDb2dVertex
 10
-2.708534
 20
62.838542
 30
0.0
  0
VERTEX
  5
77
100
AcDbEntity
  8
LIVELLO_1
 62
     7
100
AcDbVertex
100
AcDb2dVertex
 10
-2.692687
 20
62.823211
 30
0.0
  0
VERTEX
  5
78
100
AcDbEntity
  8
LIVELLO_1
 62
     7
100
AcDbVertex
100
AcDb2dVertex
 10
-2.680112
 20
62.800818
 30
0.0
  0
VERTEX
  5
79
100
AcDbEntity
  8
LIVELLO_1
 62
     7
100
AcDbVertex
100
AcDb2dVertex
 10
-2.667365
 20
62.782042
 30
0.0
  0
VERTEX
  5
7A
100
AcDbEntity
  8
LIVELLO_1
 62
     7
100
AcDbVertex
100
AcDb2dVertex
 10
-2.657891
 20
62.756721
 30
0.0
  0
VERTEX
  5
7B
100
AcDbEntity
  8
LIVELLO_1
 62
     7
100
AcDbVertex
100
AcDb2dVertex
 10
-2.651862
 20
62.734328
 30
0.0
  0
VERTEX
  5
7C
100
AcDbEntity
  8
LIVELLO_1
 62
     7
100
AcDbVertex
100
AcDb2dVertex
 10
-2.640666
 20
62.705561
 30
0.0
  0
VERTEX
  5
7D
100
AcDbEntity
  8
LIVELLO_1
 62
     7
100
AcDbVertex
100
AcDb2dVertex
 10
-2.63412
 20
62.68024
 30
0.0
  0
VERTEX
  5
7E
100
AcDbEntity
  8
LIVELLO_1
 62
     7
100
AcDbVertex
100
AcDb2dVertex
 10
-2.631192
 20
62.654918
 30
0.0
  0
VERTEX
  5
7F
100
AcDbEntity
  8
LIVELLO_1
 62
     7
100
AcDbVertex
100
AcDb2dVertex
 10
-2.627919
 20
62.629597
 30
0.0
  0
SEQEND
  5
80
100
AcDbEntity
  8
LIVELLO_1
 62
     7
  0
LINE
  5
69
100
AcDbEntity
  8
LIVELLO_1
 62
     7
100
AcDbLine
 10
-10.54337
 20
62.911405
 30
0.0
 11
-10.536825
 21
63.048003
 31
0.0
  0
LINE
  5
68
100
AcDbEntity
  8
LIVELLO_1
 62
     7
100
AcDbLine
 10
-10.536825
 20
63.048003
 30
0.0
 11
-10.527523
 21
63.193214
 31
0.0
  0
SPLINE
  5
67
100
AcDbEntity
  8
LIVELLO_1
 62
     7
100
AcDbSpline
210
0.0
220
0.0
230
1.0
 70
     8
 71
     3
 72
     8
 73
     4
 74
     0
 42
0.00000001
 43
0.00000001
 40
0.0
 40
0.0
 40
0.0
 40
0.0
 40
1.0
 40
1.0
 40
1.0
 40
1.0
 10
-10.533551703559027
 20
63.193214246961801
 30
0.0
 10
-10.508402506510416
 20
63.291571723090271
 30
0.0
 10
-10.430887858072916
 20
63.367363823784714
 30
0.0
 10
-10.329429796006943
 20
63.392685275607633
 30
0.0
  0
SPLINE
  5
66
100
AcDbEntity
  8
LIVELLO_1
 62
     7
100
AcDbSpline
210
0.0
220
0.0
230
1.0
 70
     8
 71
     3
 72
     8
 73
     4
 74
     0
 42
0.00000001
 43
0.00000001
 40
0.0
 40
0.0
 40
0.0
 40
0.0
 40
1.0
 40
1.0
 40
1.0
 40
1.0
 10
-10.329429796006943
 20
63.405604383680547
 30
0.0
 10
-10.187147352430555
 20
63.456247287326384
 30
0.0
 10
-10.035046386718749
 20
63.484497070312493
 30
0.0
 10
-9.8767442491319439
 20
63.481568739149303
 30
0.0
  0
LINE
  5
65
100
AcDbEntity
  8
LIVELLO_1
 62
     7
100
AcDbLine
 10
-0.898136
 20
63.481569
 30
0.0
 11
-9.876744
 21
63.481569
 31
0.0
  0
SPLINE
  5
64
100
AcDbEntity
  8
LIVELLO_1
 62
     7
100
AcDbSpline
210
0.0
220
0.0
230
1.0
 70
     8
 71
     3
 72
     8
 73
     4
 74
     0
 42
0.00000001
 43
0.00000001
 40
0.0
 40
0.0
 40
0.0
 40
0.0
 40
1.0
 40
1.0
 40
1.0
 40
1.0
 10
-0.8981363932291666
 20
63.481568739149303
 30
0.0
 10
-0.7539591471354166
 20
63.484497070312493
 30
0.0
 10
-0.6084038628472221
 20
63.456247287326384
 30
0.0
 10
-0.4721503363715278
 20
63.405604383680547
 30
0.0
  0
SPLINE
  5
63
100
AcDbEntity
  8
LIVELLO_1
 62
     7
100
AcDbSpline
210
0.0
220
0.0
230
1.0
 70
     8
 71
     3
 72
     8
 73
     4
 74
     0
 42
0.00000001
 43
0.00000001
 40
0.0
 40
0.0
 40
0.0
 40
0.0
 40
1.0
 40
1.0
 40
1.0
 40
1.0
 10
-0.4754231770833333
 20
63.392685275607633
 30
0.0
 10
-0.3820610894097222
 20
63.367363823784714
 30
0.0
 10
-0.3109198676215277
 20
63.291571723090271
 30
0.0
 10
-0.2980007595486111
 20
63.193214246961801
 30
0.0
  0
LINE
  5
62
100
AcDbEntity
  8
LIVELLO_1
 62
     7
100
AcDbLine
 10
-0.301274
 20
63.193214
 30
0.0
 11
-0.301274
 21
63.048003
 31
0.0
  0
LINE
  5
61
100
AcDbEntity
  8
LIVELLO_1
 62
     7
100
AcDbLine
 10
-0.301274
 20
62.911405
 30
0.0
 11
-0.301274
 21
63.048003
 31
0.0
  0
LINE
  5
60
100
AcDbEntity
  8
LIVELLO_1
 62
     7
100
AcDbLine
 10
-2.936599
 20
62.956192
 30
0.0
 11
-10.540097
 21
62.956192
 31
0.0
  0
LINE
  5
5F
100
AcDbEntity
  8
LIVELLO_1
 62
     7
100
AcDbLine
 10
-9.951158
 20
63.174438
 30
0.0
 11
-9.957704
 21
63.170821
 31
0.0
  0
LINE
  5
5E
100
AcDbEntity
  8
LIVELLO_1
 62
     7
100
AcDbLine
 10
-1.019921
 20
63.174438
 30
0.0
 11
-10.527523
 21
63.174438
 31
0.0
  0
LINE
  5
5D
100
AcDbEntity
  8
LIVELLO_1
 62
     7
100
AcDbLine
 10
-1.019921
 20
63.174438
 30
0.0
 11
-1.043692
 21
63.170821
 31
0.0
  0
LINE
  5
5C
100
AcDbEntity
  8
LIVELLO_1
 62
     7
100
AcDbLine
 10
-1.043692
 20
63.170821
 30
0.0
 11
-2.936599
 21
62.956192
 31
0.0
  0
LINE
  5
5B
100
AcDbEntity
  8
LIVELLO_1
 62
     7
100
AcDbLine
 10
4.457954
 20
7.452431
 30
0.0
 11
4.457954
 21
-2.227426
 31
0.0
  0
LINE
  5
5A
100
AcDbEntity
  8
LIVELLO_1
 62
     7
100
AcDbLine
 10
-48.916739
 20
8.145412
 30
0.0
 11
-48.916739
 21
-1.534618
 31
0.0
  0
LINE
  5
59
100
AcDbEntity
  8
LIVELLO_1
 62
     7
100
AcDbLine
 10
-48.821826
 20
2.995338
 30
0.0
 11
-42.900741
 21
3.049082
 31
0.0
  0
MTEXT
  5
58
100
AcDbEntity
  8
LIVELLO_1
 62
     7
100
AcDbMText
 10
-41.812435
 20
11.038574
 30
0.0
 40
11.877627
 41
0.0
 71
     1
 72
     2
  1
\fArial|b0|i0;\H11.8776;\C7;\U+00D8
  7
STD
210
0.0
220
0.0
230
1.0
 73
     1
 44
1.0
  0
MTEXT
  5
57
100
AcDbEntity
  8
LIVELLO_1
 62
     7
100
AcDbMText
 10
-29.389593
 20
11.038574
 30
0.0
 40
11.877627
 41
0.0
 71
     1
 72
     2
  1
\fArial|b0|i0;\H11.8776;\C7;\U+002E
  7
STD
210
0.0
220
0.0
230
1.0
 73
     1
 44
1.0
  0
MTEXT
  5
56
100
AcDbEntity
  8
LIVELLO_1
 62
     7
100
AcDbMText
 10
-29.093659
 20
11.25975
 30
0.0
 40
11.877627
 41
0.0
 71
     1
 72
     2
  1
\fArial|b0|i0;\H11.8776;\C7;\U+0031\U+0035\U+0030
  7
STD
210
0.0
220
0.0
230
1.0
 73
     1
 44
1.0
  0
MTEXT
  5
55
100
AcDbEntity
  8
LIVELLO_1
 62
     7
100
AcDbMText
 10
50.12924
 20
76.323651
 30
0.0
 40
11.877627
 41
0.0
 71
     1
 72
     2
  1
\fArial|b0|i0;\H11.8776;\C7;\U+0033\U+0030\U+0030
  7
STD
210
0.0
220
0.0
230
1.0
 73
     1
 44
1.0
  0
LINE
  5
54
100
AcDbEntity
  8
LIVELLO_1
 62
     7
100
AcDbLine
 10
35.128261
 20
137.515637
 30
0.0
 11
35.128261
 21
127.83578
 31
0.0
  0
LINE
  5
53
100
AcDbEntity
  8
LIVELLO_1
 62
     7
100
AcDbLine
 10
-75.421408
 20
137.765751
 30
0.0
 11
-75.421408
 21
128.082449
 31
0.0
  0
LINE
  5
52
100
AcDbEntity
  8
LIVELLO_1
 62
     7
100
AcDbLine
 10
-75.79813
 20
132.700944
 30
0.0
 11
-43.269538
 21
132.751587
 31
0.0
  0
LINE
  5
51
100
AcDbEntity
  8
LIVELLO_1
 62
     7
100
AcDbLine
 10
-1.269862
 20
2.925403
 30
0.0
 11
4.489648
 21
2.837208
 31
0.0
  0
LINE
  5
50
100
AcDbEntity
  8
LIVELLO_1
 62
     7
100
AcDbLine
 10
63.47864
 20
120.11825
 30
0.0
 11
63.336013
 21
79.76464
 31
0.0
  0
MTEXT
  5
4F
100
AcDbEntity
  8
LIVELLO_1
 62
     7
100
AcDbMText
 10
-42.182783
 20
140.741252
 30
0.0
 40
11.877627
 41
0.0
 71
     1
 72
     2
  1
\fArial|b0|i0;\H11.8776;\C7;\U+00D8
  7
STD
210
0.0
220
0.0
230
1.0
 73
     1
 44
1.0
  0
MTEXT
  5
4E
100
AcDbEntity
  8
LIVELLO_1
 62
     7
100
AcDbMText
 10
-29.759941
 20
140.741252
 30
0.0
 40
11.877627
 41
0.0
 71
     1
 72
     2
  1
\fArial|b0|i0;\H11.8776;\C7;\U+002E
  7
STD
210
0.0
220
0.0
230
1.0
 73
     1
 44
1.0
  0
MTEXT
  5
4D
100
AcDbEntity
  8
LIVELLO_1
 62
     7
100
AcDbMText
 10
-28.400334
 20
140.817216
 30
0.0
 40
11.877627
 41
0.0
 71
     1
 72
     2
  1
\fArial|b0|i0;\H11.8776;\C7;\U+0033\U+0032\U+0030
  7
STD
210
0.0
220
0.0
230
1.0
 73
     1
 44
1.0
  0
CIRCLE
  5
4C
100
AcDbEntity
  8
LIVELLO_1
 62
     7
100
AcDbCircle
 10
-21.737863
 20
-89.46379
 30
0.0
 40
52.523059
  0
SPLINE
  5
4B
100
AcDbEntity
  8
LIVELLO_1
 62
     7
100
AcDbSpline
210
0.0
220
0.0
230
1.0
 70
     8
 71
     3
 72
     8
 73
     4
 74
     0
 42
0.00000001
 43
0.00000001
 40
0.0
 40
0.0
 40
0.0
 40
0.0
 40
1.0
 40
1.0
 40
1.0
 40
1.0
 10
-73.450813802083331
 20
-90.772926161024301
 30
0.0
 10
-73.450813802083331
 20
-91.016494411892353
 30
0.0
 10
-73.281487358940964
 20
-91.215965440538184
 30
0.0
 10
-73.049115668402777
 20
-91.260407172309016
 30
0.0
  0
SPLINE
  5
4A
100
AcDbEntity
  8
LIVELLO_1
 62
     7
100
AcDbSpline
210
0.0
220
0.0
230
1.0
 70
     8
 71
     3
 72
     8
 73
     4
 74
     0
 42
0.00000001
 43
0.00000001
 40
0.0
 40
0.0
 40
0.0
 40
0.0
 40
1.0
 40
1.0
 40
1.0
 40
1.0
 10
-73.049115668402777
 20
-87.673718261718747
 30
0.0
 10
-73.281487358940964
 20
-87.714714898003464
 30
0.0
 10
-73.450813802083331
 20
-87.923487684461804
 30
0.0
 10
-73.450813802083331
 20
-88.157754177517347
 30
0.0
  0
LINE
  5
49
100
AcDbEntity
  8
LIVELLO_1
 62
     7
100
AcDbLine
 10
-71.363258
 20
-91.554618
 30
0.0
 11
-73.049116
 21
-91.260407
 31
0.0
  0
LINE
  5
48
100
AcDbEntity
  8
LIVELLO_1
 62
     7
100
AcDbLine
 10
-71.363258
 20
-87.379507
 30
0.0
 11
-73.049116
 21
-87.673718
 31
0.0
  0
LINE
  5
47
100
AcDbEntity
  8
LIVELLO_1
 62
     7
100
AcDbLine
 10
-73.450814
 20
-90.772926
 30
0.0
 11
-73.450814
 21
-88.157754
 31
0.0
  0
SPLINE
  5
46
100
AcDbEntity
  8
LIVELLO_1
 62
     7
100
AcDbSpline
210
0.0
220
0.0
230
1.0
 70
     8
 71
     3
 72
    14
 73
    10
 74
     0
 42
0.00000001
 43
0.00000001
 40
0.0
 40
0.0
 40
0.0
 40
0.0
 40
1.0
 40
1.0
 40
1.0
 40
2.0
 40
2.0
 40
2.0
 40
3.0
 40
3.0
 40
3.0
 40
3.0
 10
-71.363258192274301
 20
-91.554618326822904
 30
0.0
 10
-70.527650282118046
 20
-91.700001356336799
 30
0.0
 10
-69.687219238281244
 20
-91.33654378255207
 30
0.0
 10
-69.220408799913187
 20
-90.636844889322902
 30
0.0
 10
-68.75652669270832
 20
-89.924399142795124
 30
0.0
 10
-68.75652669270832
 20
-89.006281195746524
 30
0.0
 10
-69.220408799913187
 20
-88.297280544704847
 30
0.0
 10
-69.687219238281244
 20
-87.594825575086801
 30
0.0
 10
-70.527650282118046
 20
-87.23067898220485
 30
0.0
 10
-71.363258192274301
 20
-87.379507107204859
 30
0.0
  0
CIRCLE
  5
45
100
AcDbEntity
  8
LIVELLO_1
 62
     7
100
AcDbCircle
 10
-71.247072
 20
-89.465512
 30
0.0
 40
1.066918
  0
CIRCLE
  5
44
100
AcDbEntity
  8
LIVELLO_1
 62
     7
100
AcDbCircle
 10
-71.245264
 20
-89.470336
 30
0.0
 40
1.724518
  0
SPLINE
  5
43
100
AcDbEntity
  8
LIVELLO_1
 62
     7
100
AcDbSpline
210
0.0
220
0.0
230
1.0
 70
     8
 71
     3
 72
     8
 73
     4
 74
     0
 42
0.00000001
 43
0.00000001
 40
0.0
 40
0.0
 40
0.0
 40
0.0
 40
1.0
 40
1.0
 40
1.0
 40
1.0
 10
29.978187391493051
 20
-88.157754177517347
 30
0.0
 10
29.978187391493051
 20
-87.923487684461804
 30
0.0
 10
29.802487521701387
 20
-87.714714898003464
 30
0.0
 10
29.566842990451388
 20
-87.673718261718747
 30
0.0
  0
SPLINE
  5
42
100
AcDbEntity
  8
LIVELLO_1
 62
     7
100
AcDbSpline
210
0.0
220
0.0
230
1.0
 70
     8
 71
     3
 72
     8
 73
     4
 74
     0
 42
0.00000001
 43
0.00000001
 40
0.0
 40
0.0
 40
0.0
 40
0.0
 40
1.0
 40
1.0
 40
1.0
 40
1.0
 10
29.566842990451388
 20
-91.260407172309016
 30
0.0
 10
29.802487521701387
 20
-91.215965440538184
 30
0.0
 10
29.978187391493051
 20
-91.016494411892353
 30
0.0
 10
29.978187391493051
 20
-90.772926161024301
 30
0.0
  0
LINE
  5
41
100
AcDbEntity
  8
LIVELLO_1
 62
     7
100
AcDbLine
 10
27.884258
 20
-87.379507
 30
0.0
 11
29.566843
 21
-87.673718
 31
0.0
  0
LINE
  5
40
100
AcDbEntity
  8
LIVELLO_1
 62
     7
100
AcDbLine
 10
27.884258
 20
-91.554618
 30
0.0
 11
29.566843
 21
-91.260407
 31
0.0
  0
LINE
  5
3F
100
AcDbEntity
  8
LIVELLO_1
 62
     7
100
AcDbLine
 10
29.978187
 20
-88.157754
 30
0.0
 11
29.978187
 21
-90.772926
 31
0.0
  0
SPLINE
  5
3E
100
AcDbEntity
  8
LIVELLO_1
 62
     7
100
AcDbSpline
210
0.0
220
0.0
230
1.0
 70
     8
 71
     3
 72
    14
 73
    10
 74
     0
 42
0.00000001
 43
0.00000001
 40
0.0
 40
0.0
 40
0.0
 40
0.0
 40
1.0
 40
1.0
 40
1.0
 40
2.0
 40
2.0
 40
2.0
 40
3.0
 40
3.0
 40
3.0
 40
3.0
 10
27.884258355034721
 20
-87.379507107204859
 30
0.0
 10
27.053301323784719
 20
-87.23067898220485
 30
0.0
 10
26.211319986979163
 20
-87.594825575086801
 30
0.0
 10
25.747437879774303
 20
-88.297280544704847
 30
0.0
 10
25.280627441406249
 20
-89.006281195746524
 30
0.0
 10
25.280627441406249
 20
-89.924399142795124
 30
0.0
 10
25.747437879774303
 20
-90.636844889322902
 30
0.0
 10
26.211319986979163
 20
-91.33654378255207
 30
0.0
 10
27.053301323784719
 20
-91.700001356336799
 30
0.0
 10
27.884258355034721
 20
-91.554618326822904
 30
0.0
  0
CIRCLE
  5
3D
100
AcDbEntity
  8
LIVELLO_1
 62
     7
100
AcDbCircle
 10
27.770226
 20
-89.463962
 30
0.0
 40
1.066093
  0
CIRCLE
  5
3C
100
AcDbEntity
  8
LIVELLO_1
 62
     7
100
AcDbCircle
 10
27.767211
 20
-89.470336
 30
0.0
 40
1.72383
  0
SPLINE
  5
3B
100
AcDbEntity
  8
LIVELLO_1
 62
     7
100
AcDbSpline
210
0.0
220
0.0
230
1.0
 70
     8
 71
     3
 72
     8
 73
     4
 74
     0
 42
0.00000001
 43
0.00000001
 40
0.0
 40
0.0
 40
0.0
 40
0.0
 40
1.0
 40
1.0
 40
1.0
 40
1.0
 10
-20.433894856770831
 20
-141.18018527560761
 30
0.0
 10
-20.193254937065969
 20
-141.18018527560761
 30
0.0
 10
-19.985860188802082
 20
-141.0058634440104
 30
0.0
 10
-19.947964138454861
 20
-140.77159695095486
 30
0.0
  0
SPLINE
  5
3A
100
AcDbEntity
  8
LIVELLO_1
 62
     7
100
AcDbSpline
210
0.0
220
0.0
230
1.0
 70
     8
 71
     3
 72
     8
 73
     4
 74
     0
 42
0.00000001
 43
0.00000001
 40
0.0
 40
0.0
 40
0.0
 40
0.0
 40
1.0
 40
1.0
 40
1.0
 40
1.0
 10
-23.529657660590274
 20
-140.77159695095486
 30
0.0
 10
-23.486938476562496
 20
-141.0058634440104
 30
0.0
 10
-23.282816569010414
 20
-141.18018527560761
 30
0.0
 10
-23.042176649305553
 20
-141.18018527560761
 30
0.0
  0
LINE
  5
39
100
AcDbEntity
  8
LIVELLO_1
 62
     7
100
AcDbLine
 10
-19.648758
 20
-139.093835
 30
0.0
 11
-19.947964
 21
-140.771597
 31
0.0
  0
LINE
  5
38
100
AcDbEntity
  8
LIVELLO_1
 62
     7
100
AcDbLine
 10
-23.827314
 20
-138.938462
 30
0.0
 11
-23.529658
 21
-140.616568
 31
0.0
  0
LINE
  5
37
100
AcDbEntity
  8
LIVELLO_1
 62
     7
100
AcDbLine
 10
-20.433895
 20
-141.180185
 30
0.0
 11
-23.042177
 21
-141.180185
 31
0.0
  0
SPLINE
  5
36
100
AcDbEntity
  8
LIVELLO_1
 62
     7
100
AcDbSpline
210
0.0
220
0.0
230
1.0
 70
     8
 71
     3
 72
    14
 73
    10
 74
     0
 42
0.00000001
 43
0.00000001
 40
0.0
 40
0.0
 40
0.0
 40
0.0
 40
1.0
 40
1.0
 40
1.0
 40
2.0
 40
2.0
 40
2.0
 40
3.0
 40
3.0
 40
3.0
 40
3.0
 10
-19.64875759548611
 20
-139.09383544921874
 30
0.0
 10
-19.503202311197914
 20
-138.2615003797743
 30
0.0
 10
-19.865626356336804
 20
-137.41951904296874
 30
0.0
 10
-20.573076714409719
 20
-136.95408664279512
 30
0.0
 10
-21.278976779513886
 20
-136.48245307074652
 30
0.0
 10
-22.193821885850692
 20
-136.48245307074652
 30
0.0
 10
-22.902822536892359
 20
-136.95408664279512
 30
0.0
 10
-23.610445149739583
 20
-137.41951904296874
 30
0.0
 10
-23.969596354166665
 20
-138.2615003797743
 30
0.0
 10
-23.827313910590277
 20
-139.09383544921874
 30
0.0
  0
CIRCLE
  5
35
100
AcDbEntity
  8
LIVELLO_1
 62
     7
100
AcDbCircle
 10
-21.740275
 20
-138.820467
 30
0.0
 40
1.064999
  0
CIRCLE
  5
34
100
AcDbEntity
  8
LIVELLO_1
 62
     7
100
AcDbCircle
 10
-21.738811
 20
-138.818228
 30
0.0
 40
1.724615
  0
SPLINE
  5
33
100
AcDbEntity
  8
LIVELLO_1
 62
     7
100
AcDbSpline
210
0.0
220
0.0
230
1.0
 70
     8
 71
     3
 72
     8
 73
     4
 74
     0
 42
0.00000001
 43
0.00000001
 40
0.0
 40
0.0
 40
0.0
 40
0.0
 40
1.0
 40
1.0
 40
1.0
 40
1.0
 10
-23.042176649305553
 20
-37.750495062934021
 30
0.0
 10
-23.282816569010414
 20
-37.750495062934021
 30
0.0
 10
-23.486938476562496
 20
-37.928261990017354
 30
0.0
 10
-23.529657660590274
 20
-38.159427897135416
 30
0.0
  0
SPLINE
  5
32
100
AcDbEntity
  8
LIVELLO_1
 62
     7
100
AcDbSpline
210
0.0
220
0.0
230
1.0
 70
     8
 71
     3
 72
     8
 73
     4
 74
     0
 42
0.00000001
 43
0.00000001
 40
0.0
 40
0.0
 40
0.0
 40
0.0
 40
1.0
 40
1.0
 40
1.0
 40
1.0
 10
-19.947964138454861
 20
-38.159427897135416
 30
0.0
 10
-19.985860188802082
 20
-37.928261990017354
 30
0.0
 10
-20.193254937065969
 20
-37.750495062934021
 30
0.0
 10
-20.433894856770831
 20
-37.750495062934021
 30
0.0
  0
LINE
  5
31
100
AcDbEntity
  8
LIVELLO_1
 62
     7
100
AcDbLine
 10
-23.827314
 20
-39.84029
 30
0.0
 11
-23.529658
 21
-38.159428
 31
0.0
  0
LINE
  5
30
100
AcDbEntity
  8
LIVELLO_1
 62
     7
100
AcDbLine
 10
-19.648758
 20
-39.84029
 30
0.0
 11
-19.947964
 21
-38.159428
 31
0.0
  0
LINE
  5
2F
100
AcDbEntity
  8
LIVELLO_1
 62
     7
100
AcDbLine
 10
-23.042177
 20
-37.750495
 30
0.0
 11
-20.433895
 21
-37.750495
 31
0.0
  0
SPLINE
  5
2E
100
AcDbEntity
  8
LIVELLO_1
 62
     7
100
AcDbSpline
210
0.0
220
0.0
230
1.0
 70
     8
 71
     3
 72
    14
 73
    10
 74
     0
 42
0.00000001
 43
0.00000001
 40
0.0
 40
0.0
 40
0.0
 40
0.0
 40
1.0
 40
1.0
 40
1.0
 40
2.0
 40
2.0
 40
2.0
 40
3.0
 40
3.0
 40
3.0
 40
3.0
 10
-23.827313910590277
 20
-39.840289984809026
 30
0.0
 10
-23.97286919487847
 20
-40.679170735677083
 30
0.0
 10
-23.610445149739583
 20
-41.51736246744791
 30
0.0
 10
-22.902822536892359
 20
-41.989340549045139
 30
0.0
 10
-22.197094726562497
 20
-42.445126681857637
 30
0.0
 10
-21.278976779513886
 20
-42.445126681857637
 30
0.0
 10
-20.573076714409719
 20
-41.989340549045139
 30
0.0
 10
-19.865626356336804
 20
-41.51736246744791
 30
0.0
 10
-19.503202311197914
 20
-40.679170735677083
 30
0.0
 10
-19.64875759548611
 20
-39.840289984809026
 30
0.0
  0
CIRCLE
  5
2D
100
AcDbEntity
  8
LIVELLO_1
 62
     7
100
AcDbCircle
 10
-21.738811
 20
-39.962074
 30
0.0
 40
1.066614
  0
CIRCLE
  5
2C
100
AcDbEntity
  8
LIVELLO_1
 62
     7
100
AcDbCircle
 10
-21.738122
 20
-39.958801
 30
0.0
 40
1.725048
  0
ENDBLK
  5
2E2
100
AcDbEntity
  8
LIVELLO_1
100
AcDbBlockEnd
  0
ENDSEC
  0
SECTION
  2
ENTITIES
  0
INSERT
  5
2A
100
AcDbEntity
  8
LIVELLO_1
 62
     7
100
AcDbBlockReference
  2
AI9-BLK1
 10
76.763618
 20
142.636083
 30
0.0
  0
ENDSEC
  0
SECTION
  2
OBJECTS
  0
DICTIONARY
  5
19
100
AcDbDictionary
280
     0
281
     1
  3
ACAD_GROUP
350
1A
  3
ACAD_MLINESTYLE
350
1B
  3
ACAD_LAYOUT
350
1E
  3
ACAD_PLOTSETTINGS
350
22
  3
ACAD_PLOTSTYLENAME
350
1F
  3
ACAD_WIPEOUT_VARS
350
23
  0
DICTIONARY
  5
1A
102
{ACAD_REACTORS
330
19
102
}
100
AcDbDictionary
280
     0
281
     1
  0
DICTIONARY
  5
1B
102
{ACAD_REACTORS
330
19
102
}
100
AcDbDictionary
280
     0
281
     1
  3
Standard
350
1C
  0
MLINESTYLE
  5
1C
102
{ACAD_REACTORS
330
1B
102
}
100
AcDbMlineStyle
  2
Standard
 70
     0
  3

 62
     0
 51
90.0
 52
90.0
 71
     2
 49
0.5
 62
   256
  6
ByLayer
 49
-0.5
 62
   256
  6
ByLayer
  0
ACDBDICTIONARYWDFLT
  5
1F
102
{ACAD_REACTORS
330
19
102
}
100
AcDbDictionary
281
     1
  3
Normal
350
1D
100
AcDbDictionaryWithDefault
340
1D
  0
ACDBPLACEHOLDER
  5
1D
102
{ACAD_REACTORS
330
1F
102
}
  0
LAYOUT
  5
20
102
{ACAD_REACTORS
330
1E
102
}
100
AcDbPlotSettings
  1

  2

  4

  6

 40
0.0
 41
0.0
 42
0.0
 43
0.0
 44
0.0
 45
0.0
 46
0.0
 47
0.0
 48
0.0
 49
0.0
140
0.0
141
0.0
142
1.0
143
1.0
 70
  1024
 72
     0
 73
     0
 74
     0
  7

 75
     0
147
1.0
148
0.0
149
0.0
100
AcDbLayout
  1
Model
 70
     0
 71
     0
 10
0.0
 20
0.0
 11
0.0
 21
0.0
 12
0.0
 22
0.0
 32
0.0
 14
0.0
 24
0.0
 34
0.0
 15
0.0
 25
0.0
 35
0.0
146
0.0
 13
0.0
 23
0.0
 33
0.0
 16
0.0
 26
0.0
 36
0.0
 17
0.0
 27
0.0
 37
0.0
 76
     0
330
A
331
0
345
0
346
0
  0
LAYOUT
  5
21
102
{ACAD_REACTORS
330
1E
102
}
100
AcDbPlotSettings
  1

  2

  4

  6

 40
0.0
 41
0.0
 42
0.0
 43
0.0
 44
0.0
 45
0.0
 46
0.0
 47
0.0
 48
0.0
 49
0.0
140
0.0
141
0.0
142
1.0
143
1.0
 70
     0
 72
     0
 73
     0
 74
     0
  7

 75
     0
147
1.0
148
0.0
149
0.0
100
AcDbLayout
  1
Layout1
 70
     0
 71
     0
 10
0.0
 20
0.0
 11
0.0
 21
0.0
 12
0.0
 22
0.0
 32
0.0
 14
0.0
 24
0.0
 34
0.0
 15
0.0
 25
0.0
 35
0.0
146
0.0
 13
0.0
 23
0.0
 33
0.0
 16
0.0
 26
0.0
 36
0.0
 17
0.0
 27
0.0
 37
0.0
 76
     0
330
B
331
0
345
0
346
0
  0
DICTIONARY
  5
1E
102
{ACAD_REACTORS
330
19
102
}
100
AcDbDictionary
280
     0
281
     1
  3
Layout1
350
21
  3
Model
350
20
  0
DICTIONARY
  5
22
102
{ACAD_REACTORS
330
19
102
}
100
AcDbDictionary
280
     0
281
     1
  0
WIPEOUTVARIABLES
  5
23
100
AcDbWipeoutVariables
 70
     1
  0
ENDSEC
  0
EOF
