  0
SECTION
  2
HEADER
  9
$ACADVER
  1
AC1015
  9
$ACADMAINTVER
 70
     6
  9
$DWGCODEPAGE
  3
ANSI_932
  9
$INSBASE
 10
0.0
 20
0.0
 30
0.0
  9
$EXTMIN
 10
0.0
 20
0.0
 30
1.000000E+20
  9
$EXTMAX
 10
159.414214
 20
268.034285
 30
-1.000000E+20
  9
$LIMMIN
 10
0.0
 20
0.0
  9
$LIMMAX
 10
159.414214
 20
268.034285
  9
$ORTHOMODE
 70
     0
  9
$REGENMODE
 70
     1
  9
$FILLMODE
 70
     1
  9
$QTEXTMODE
 70
     0
  9
$MIRRTEXT
 70
     1
  9
$LTSCALE
 40
1.0
  9
$ATTMODE
 70
     1
  9
$TEXTSIZE
 40
0.2
  9
$TRACEWID
 40
0.05
  9
$TEXTSTYLE
  7
Standard
  9
$CLAYER
  8
0
  9
$CELTYPE
  6
Continuous
  9
$CECOLOR
 62
   256
  9
$CELTSCALE
 40
1.0
  9
$DISPSILH
 70
     0
  9
$DIMSCALE
 40
1.0
  9
$DIMASZ
 40
0.18
  9
$DIMEXO
 40
0.0625
  9
$DIMDLI
 40
0.38
  9
$DIMRND
 40
0.0
  9
$DIMDLE
 40
0.0
  9
$DIMEXE
 40
0.18
  9
$DIMTP
 40
0.0
  9
$DIMTM
 40
0.0
  9
$DIMTXT
 40
0.18
  9
$DIMCEN
 40
0.09
  9
$DIMTSZ
 40
0.0
  9
$DIMTOL
 70
     0
  9
$DIMLIM
 70
     0
  9
$DIMTIH
 70
     1
  9
$DIMTOH
 70
     1
  9
$DIMSE1
 70
     0
  9
$DIMSE2
 70
     0
  9
$DIMTAD
 70
     0
  9
$DIMZIN
 70
     0
  9
$DIMBLK
  1

  9
$DIMASO
 70
     1
  9
$DIMSHO
 70
     1
  9
$DIMPOST
  1

  9
$DIMAPOST
  1

  9
$DIMALT
 70
     0
  9
$DIMALTD
 70
     2
  9
$DIMALTF
 40
25.4
  9
$DIMLFAC
 40
1.0
  9
$DIMTOFL
 70
     0
  9
$DIMTVP
 40
0.0
  9
$DIMTIX
 70
     0
  9
$DIMSOXD
 70
     0
  9
$DIMSAH
 70
     0
  9
$DIMBLK1
  1

  9
$DIMBLK2
  1

  9
$DIMSTYLE
  2
Standard
  9
$DIMCLRD
 70
     0
  9
$DIMCLRE
 70
     0
  9
$DIMCLRT
 70
     0
  9
$DIMTFAC
 40
1.0
  9
$DIMGAP
 40
0.09
  9
$DIMJUST
 70
     0
  9
$DIMSD1
 70
     0
  9
$DIMSD2
 70
     0
  9
$DIMTOLJ
 70
     1
  9
$DIMTZIN
 70
     0
  9
$DIMALTZ
 70
     0
  9
$DIMALTTZ
 70
     0
  9
$DIMUPT
 70
     0
  9
$DIMDEC
 70
     4
  9
$DIMTDEC
 70
     4
  9
$DIMALTU
 70
     2
  9
$DIMALTTD
 70
     2
  9
$DIMTXSTY
  7
Standard
  9
$DIMAUNIT
 70
     0
  9
$DIMADEC
 70
     0
  9
$DIMALTRND
 40
0.0
  9
$DIMAZIN
 70
     0
  9
$DIMDSEP
 70
     0
  9
$DIMATFIT
 70
     3
  9
$DIMFRAC
 70
     0
  9
$DIMLDRBLK
  1

  9
$DIMLUNIT
 70
     2
  9
$DIMLWD
 70
     0
  9
$DIMLWE
 70
     0
  9
$DIMTMOVE
 70
     0
  9
$LUNITS
 70
     2
  9
$LUPREC
 70
     4
  9
$SKETCHINC
 40
0.1
  9
$FILLETRAD
 40
0.0
  9
$AUNITS
 70
     0
  9
$AUPREC
 70
     0
  9
$MENU
  1
acad
  9
$ELEVATION
 40
0.0
  9
$PELEVATION
 40
0.0
  9
$THICKNESS
 40
0.0
  9
$LIMCHECK
 70
     0
  9
$CHAMFERA
 40
0.0
  9
$CHAMFERB
 40
0.0
  9
$CHAMFERC
 40
0.0
  9
$CHAMFERD
 40
0.0
  9
$SKPOLY
 70
     0
  9
$TDCREATE
 40
0.000000000
  9
$TDUCREATE
 40
0.000000000
  9
$TDUPDATE
 40
0.000000000
  9
$TDUUPDATE
 40
0.000000000
  9
$TDINDWG
 40
0.0000000000
  9
$TDUSRTIMER
 40
0.0000000000
  9
$USRTIMER
 70
     1
  9
$ANGBASE
 50
0.0
  9
$ANGDIR
 70
     0
  9
$PDMODE
 70
     0
  9
$PDSIZE
 40
0.0
  9
$PLINEWID
 40
0.0
  9
$SPLFRAME
 70
     0
  9
$SPLINETYPE
 70
     6
  9
$SPLINESEGS
 70
     8
  9
$HANDSEED
  5
7F
  9
$SURFTAB1
 70
     6
  9
$SURFTAB2
 70
     6
  9
$SURFTYPE
 70
     6
  9
$SURFU
 70
     6
  9
$SURFV
 70
     6
  9
$UCSBASE
  2

  9
$UCSNAME
  2

  9
$UCSORG
 10
0.0
 20
0.0
 30
0.0
  9
$UCSXDIR
 10
1.0
 20
0.0
 30
0.0
  9
$UCSYDIR
 10
0.0
 20
1.0
 30
0.0
  9
$UCSORTHOREF
  2

  9
$UCSORTHOVIEW
 70
     0
  9
$UCSORGTOP
 10
0.0
 20
0.0
 30
0.0
  9
$UCSORGBOTTOM
 10
0.0
 20
0.0
 30
0.0
  9
$UCSORGLEFT
 10
0.0
 20
0.0
 30
0.0
  9
$UCSORGRIGHT
 10
0.0
 20
0.0
 30
0.0
  9
$UCSORGFRONT
 10
0.0
 20
0.0
 30
0.0
  9
$UCSORGBACK
 10
0.0
 20
0.0
 30
0.0
  9
$PUCSBASE
  2

  9
$PUCSNAME
  2

  9
$PUCSORG
 10
0.0
 20
0.0
 30
0.0
  9
$PUCSXDIR
 10
1.0
 20
0.0
 30
0.0
  9
$PUCSYDIR
 10
0.0
 20
1.0
 30
0.0
  9
$PUCSORTHOREF
  2

  9
$PUCSORTHOVIEW
 70
     0
  9
$PUCSORGTOP
 10
0.0
 20
0.0
 30
0.0
  9
$PUCSORGBOTTOM
 10
0.0
 20
0.0
 30
0.0
  9
$PUCSORGLEFT
 10
0.0
 20
0.0
 30
0.0
  9
$PUCSORGRIGHT
 10
0.0
 20
0.0
 30
0.0
  9
$PUCSORGFRONT
 10
0.0
 20
0.0
 30
0.0
  9
$PUCSORGBACK
 10
0.0
 20
0.0
 30
0.0
  9
$USERI1
 70
     0
  9
$USERI2
 70
     0
  9
$USERI3
 70
     0
  9
$USERI4
 70
     0
  9
$USERI5
 70
     0
  9
$USERR1
 40
0.0
  9
$USERR2
 40
0.0
  9
$USERR3
 40
0.0
  9
$USERR4
 40
0.0
  9
$USERR5
 40
0.0
  9
$WORLDVIEW
 70
     1
  9
$SHADEDGE
 70
     3
  9
$SHADEDIF
 70
    70
  9
$TILEMODE
 70
     1
  9
$MAXACTVP
 70
    16
  9
$PINSBASE
 10
0.0
 20
0.0
 30
0.0
  9
$PLIMCHECK
 70
     0
  9
$PEXTMIN
 10
1.000000E+20
 20
1.000000E+20
 30
1.000000E+20
  9
$PEXTMAX
 10
-1.000000E+20
 20
-1.000000E+20
 30
-1.000000E+20
  9
$PLIMMIN
 10
0.0
 20
0.0
  9
$PLIMMAX
 10
12.0
 20
9.0
  9
$UNITMODE
 70
     0
  9
$VISRETAIN
 70
     0
  9
$PLINEGEN
 70
     1
  9
$PSLTSCALE
 70
     0
  9
$TREEDEPTH
 70
  3020
  9
$CMLSTYLE
  2
Standard
  9
$CMLJUST
 70
     0
  9
$CMLSCALE
 40
1.0
  9
$PROXYGRAPHICS
 70
     0
  9
$MEASUREMENT
 70
     1
  9
$CELWEIGHT
370
     0
  9
$ENDCAPS
280
     0
  9
$JOINSTYLE
280
     0
  9
$LWDISPLAY
290
     0
  9
$INSUNITS
 70
     0
  9
$HYPERLINKBASE
  1

  9
$STYLESHEET
  1

  9
$XEDIT
290
     1
  9
$CEPSNTYPE
380
     0
  9
$PSTYLEMODE
290
     1
  9
$FINGERPRINTGUID
  2

  9
$VERSIONGUID
  2

  9
$EXTNAMES
290
     1
  9
$PSVPSCALE
 40
0.0
  0
ENDSEC
  0
SECTION
  2
CLASSES
  0
CLASS
  1
LWPOLYLINE
  2
AcDbPolyline
  3
AutoCAD 2000
 90
    32768
280
     0
281
     1
  0
CLASS
  1
IMAGE
  2
AcDbRasterImage
  3
ISM
 90
    32895
280
     0
281
     1
  0
CLASS
  1
OLE2FRAME
  2
AcDbOle2Frame
  3
AutoCAD 2000
 90
    32768
280
     0
281
     1
  0
CLASS
  1
HATCH
  2
AcDbHatch
  3
AutoCAD 2000
 90
        0
280
     0
281
     1
  0
CLASS
  1
DICTIONARYVAR
  2
AcDbDictionaryVar
  3
AutoCAD 2000
 90
    32768
280
     0
281
     0
  0
CLASS
  1
RASTERVARIABLES
  2
AcDbRasterVariables
  3
ISM
 90
    32768
280
     0
281
     0
  0
CLASS
  1
IMAGEDEF
  2
AcDbRasterImageDef
  3
ISM
 90
    32768
280
     0
281
     0
  0
CLASS
  1
IMAGEDEF_REACTOR
  2
AcDbRasterImageDefReactor
  3
ISM
 90
    32769
280
     0
281
     0
  0
CLASS
  1
IDBUFFER
  2
AcDbIdBuffer
  3
AutoCAD 2000
 90
    32768
280
     0
281
     0
  0
CLASS
  1
SPATIAL_FILTER
  2
AcDbSpatialFilter
  3
AutoCAD 2000
 90
    32768
280
     0
281
     0
  0
CLASS
  1
XRECORD
  2
AcDbXrecord
  3
AutoCAD 2000
 90
    32768
280
     0
281
     0
  0
CLASS
  1
SORTENTSTABLE
  2
AcDbSortentsTable
  3
AutoCAD 2000
 90
    32768
280
     0
281
     0
  0
CLASS
  1
LAYER_INDEX
  2
AcDbLayerIndex
  3
AutoCAD 2000
 90
    32768
280
     0
281
     0
  0
CLASS
  1
SPATIAL_INDEX
  2
AcDbSpatialIndex
  3
AutoCAD 2000
 90
    32768
280
     0
281
     0
  0
CLASS
  1
OBJECT_PTR
  2
CAseDLPNTableRecord
  3
"ASE-LPNTableRecord"
 90
    32769
280
     0
281
     0
  0
CLASS
  1
LAYOUT
  2
AcDbLayout
  3
AutoCAD 2000
 90
        0
280
     0
281
     0
  0
CLASS
  1
PLOTSETTINGS
  2
AcDbPlotSettings
  3
AutoCAD 2000
 90
    32768
280
     0
281
     0
  0
CLASS
  1
ACDBDICTIONARYWDFLT
  2
AcDbDictionaryWithDefault
  3
AutoCAD 2000
 90
        0
280
     0
281
     0
  0
CLASS
  1
ACDBPLACEHOLDER
  2
AcDbPlaceHolder
  3
AutoCAD 2000
 90
        0
280
     0
281
     0
  0
CLASS
  1
VBA_PROJECT
  2
AcDbVbaProject
  3
acadvba
 90
    32768
280
     0
281
     0
  0
CLASS
  1
WIPEOUT
  2
AcDbWipeout
  3
WipeOut|AutoCAD Express Tool|expresstools@autodesk.com
 90
    32895
280
     0
281
     1
  0
CLASS
  1
WIPEOUTVARIABLES
  2
AcDbWipeoutVariables
  3
WipeOut|AutoCAD Express Tool|expresstools@autodesk.com
 90
        0
280
     0
281
     0
  0
CLASS
  1
RTEXT
  2
RText
  3
RText|AutoCAD Express Tool|expresstools@autodesk.com
 90
    32768
280
     0
281
     1
  0
CLASS
  1
ARCALIGNEDTEXT
  2
AcDbArcAlignedText
  3
ATEXT|AutoCAD Express Tool|expresstools@autodesk.com
 90
    32768
280
     0
281
     1
  0
ENDSEC
  0
SECTION
  2
TABLES
  0
TABLE
  2
VPORT
  5
7
100
AcDbSymbolTable
 70
     1
  0
VPORT
  5
15
100
AcDbSymbolTableRecord
100
AcDbViewportTableRecord
  2
*ACTIVE
 70
     0
 10
0.0
 20
0.0
 11
1.0
 21
1.0
 12
6.591288
 22
4.579184
 13
0.0
 23
0.0
 14
1.0
 24
1.0
 15
0.0
 25
0.0
 16
0.0
 26
0.0
 36
1.0
 17
0.0
 27
0.0
 37
0.0
 40
9.158369
 41
0.688564
 42
50.0
 43
0.0
 44
0.0
 50
0.0
 51
0.0
 71
     0
 72
   100
 73
     1
 74
     1
 75
     0
 76
     0
 77
     0
 78
     0
281
     0
 65
     0
110
0.0
120
0.0
130
0.0
111
1.0
121
0.0
131
0.0
112
0.0
122
1.0
132
0.0
345
0
346
0
 79
     0
146
0.0
  0
ENDTAB
  0
TABLE
  2
LTYPE
  5
4
100
AcDbSymbolTable
 70
     3
  0
LTYPE
  5
11
100
AcDbSymbolTableRecord
100
AcDbLinetypeTableRecord
  2
ByBlock
 70
    64
  3

 72
    65
 73
     0
 40
0.0
  0
LTYPE
  5
12
100
AcDbSymbolTableRecord
100
AcDbLinetypeTableRecord
  2
ByLayer
 70
    64
  3

 72
    65
 73
     0
 40
0.0
  0
LTYPE
  5
13
100
AcDbSymbolTableRecord
100
AcDbLinetypeTableRecord
  2
Continuous
 70
    64
  3
Solid line
 72
    65
 73
     0
 40
0.0
  0
ENDTAB
  0
TABLE
  2
LAYER
  5
2
100
AcDbSymbolTable
 70
     2
  0
LAYER
  5
14
100
AcDbSymbolTableRecord
100
AcDbLayerTableRecord
  2
0
 70
     0
 62
     7
  6
Continuous
290
     1
370
    -3
390
1D
  0
LAYER
  5
28
100
AcDbSymbolTableRecord
100
AcDbLayerTableRecord
  2
LIVELLO_1
 70
     0
 62
   160
  6
Continuous
290
     1
370
    -3
390
1D
  0
ENDTAB
  0
TABLE
  2
STYLE
  5
3
100
AcDbSymbolTable
 70
     5
  0
STYLE
  5
17
100
AcDbSymbolTableRecord
100
AcDbTextStyleTableRecord
  2
Standard
 70
     0
 40
0.0
 41
1.0
 50
0.0
 71
     0
 42
0.0
  3
txt
  4

  0
STYLE
  5
24
100
AcDbSymbolTableRecord
100
AcDbTextStyleTableRecord
  2
STD
 70
     0
 40
0.0
 41
1.0
 50
0.0
 71
     0
 42
0.0
  3
txt
  4

  0
STYLE
  5
25
100
AcDbSymbolTableRecord
100
AcDbTextStyleTableRecord
  2
TATESTD
 70
     4
 40
0.0
 41
1.0
 50
0.0
 71
     0
 42
0.0
  3
txt
  4

  0
STYLE
  5
26
100
AcDbSymbolTableRecord
100
AcDbTextStyleTableRecord
  2
KANJISTD
 70
     0
 40
0.0
 41
1.0
 50
0.0
 71
     0
 42
0.0
  3
txt
  4
extfont
  0
STYLE
  5
27
100
AcDbSymbolTableRecord
100
AcDbTextStyleTableRecord
  2
KANJITATE
 70
     4
 40
0.0
 41
1.0
 50
0.0
 71
     0
 42
0.0
  3
txt
  4
extfont
  0
ENDTAB
  0
TABLE
  2
VIEW
  5
5
100
AcDbSymbolTable
 70
     0
  0
ENDTAB
  0
TABLE
  2
UCS
  5
6
100
AcDbSymbolTable
 70
     0
  0
ENDTAB
  0
TABLE
  2
APPID
  5
8
100
AcDbSymbolTable
 70
     1
  0
APPID
  5
16
100
AcDbSymbolTableRecord
100
AcDbRegAppTableRecord
  2
ACAD
 70
     0
  0
ENDTAB
  0
TABLE
  2
DIMSTYLE
  5
9
100
AcDbSymbolTable
 70
     1
100
AcDbDimStyleTable
 71
     0
  0
DIMSTYLE
105
18
100
AcDbSymbolTableRecord
100
AcDbDimStyleTableRecord
  2
Standard
 70
     0
  3

  4

 40
1.0
 41
0.18
 42
0.0625
 43
0.38
 44
0.18
 45
0.0
 46
0.0
 47
0.0
 48
0.0
 71
     0
 72
     0
 73
     1
 74
     1
 75
     0
 76
     0
 77
     0
 78
     0
 79
     0
140
0.18
141
0.09
142
0.0
143
25.4
144
1.0
145
0.0
146
1.0
147
0.09
148
0.0
170
     0
171
     2
172
     0
173
     0
174
     0
175
     0
176
     0
177
     0
178
     0
179
     0
271
     4
272
     4
273
     2
274
     2
275
     0
276
     0
277
     2
278
    46
279
     0
280
     0
281
     0
282
     0
283
     1
284
     0
285
     0
286
     0
288
     0
340
17
341
0
342
0
343
0
344
0
371
    -2
372
    -2
  0
ENDTAB
  0
TABLE
  2
BLOCK_RECORD
  5
1
100
AcDbSymbolTable
 70
     1
  0
BLOCK_RECORD
  5
A
100
AcDbSymbolTableRecord
100
AcDbBlockTableRecord
  2
*MODEL_SPACE
340
20
  0
BLOCK_RECORD
  5
B
100
AcDbSymbolTableRecord
100
AcDbBlockTableRecord
  2
*PAPER_SPACE
340
21
  0
BLOCK_RECORD
  5
29
100
AcDbSymbolTableRecord
100
AcDbBlockTableRecord
  2
AI9-BLK1
340
0
102
{BLKREFS
331
2A
102
}
  0
ENDTAB
  0
ENDSEC
  0
SECTION
  2
BLOCKS
  0
BLOCK
  5
D
100
AcDbEntity
  8
0
100
AcDbBlockBegin
  2
*MODEL_SPACE
 70
     0
 10
0.0
 20
0.0
 30
0.0
  3
*MODEL_SPACE
  1

  0
ENDBLK
  5
E
100
AcDbEntity
  8
0
100
AcDbBlockEnd
  0
BLOCK
  5
F
100
AcDbEntity
 67
     1
  8
0
100
AcDbBlockBegin
  2
*PAPER_SPACE
 70
     0
 10
0.0
 20
0.0
 30
0.0
  3
*PAPER_SPACE
  1

  0
ENDBLK
  5
10
100
AcDbEntity
 67
     1
  8
0
100
AcDbBlockEnd
  0
BLOCK
  5
2B
100
AcDbEntity
  8
LIVELLO_1
 62
     7
100
AcDbBlockBegin
  2
AI9-BLK1
 70
     0
 10
0.0
 20
0.0
 30
0.0
  3
AI9-BLK1
  1

  0
HATCH
  5
7D
100
AcDbEntity
  8
LIVELLO_1
 62
     2
100
AcDbHatch
 10
0.0
 20
0.0
 30
0.0
210
0.0
220
0.0
230
1.0
  2
SOLID
 70
     1
 71
     0
 91
        1
 92
        1
 93
        1
 72
     4
 94
        3
 73
     0
 74
     0
 95
       23
 96
       19
 40
0.0
 40
0.0
 40
0.0
 40
0.0
 40
1.0
 40
1.0
 40
1.0
 40
2.0
 40
2.0
 40
2.0
 40
3.0
 40
3.0
 40
3.0
 40
4.0
 40
4.0
 40
4.0
 40
5.0
 40
5.0
 40
5.0
 40
6.0
 40
6.0
 40
6.0
 40
6.0
 10
-64.206589084201383
 20
55.139270019531246
 10
-64.206589084201383
 20
55.139270019531246
 10
-35.445209418402776
 20
82.649391004774301
 10
-35.445209418402776
 20
82.649391004774301
 10
-34.85230848524305
 20
74.294345431857636
 10
-31.518489583333331
 20
66.449173990885413
 10
-26.074032931857637
 20
60.267122395833326
 10
-26.074032931857637
 20
60.267122395833326
 10
-29.369783528645829
 20
55.139270019531246
 10
-29.369783528645829
 20
55.139270019531246
 10
-29.369783528645829
 20
55.139270019531246
 10
-20.562913682725693
 20
55.139270019531246
 10
-20.562913682725693
 20
55.139270019531246
 10
-20.535697428385415
 20
55.119116210937491
 10
-20.506414116753469
 20
55.096206325954853
 10
-20.47695855034722
 20
55.074846733940966
 10
-20.47695855034722
 20
55.074846733940966
 10
-64.206589084201383
 20
55.139270019531246
 10
-64.206589084201383
 20
55.139270019531246
 97
        0
 75
     2
 76
     1
 98
        1
 10
0.0
 20
0.0
  0
HATCH
  5
7C
100
AcDbEntity
  8
LIVELLO_1
 62
     2
100
AcDbHatch
 10
0.0
 20
0.0
 30
0.0
210
0.0
220
0.0
230
1.0
  2
SOLID
 70
     1
 71
     0
 91
        1
 92
        1
 93
        1
 72
     4
 94
        3
 73
     0
 74
     0
 95
       20
 96
       16
 40
0.0
 40
0.0
 40
0.0
 40
0.0
 40
1.0
 40
1.0
 40
1.0
 40
2.0
 40
2.0
 40
2.0
 40
3.0
 40
3.0
 40
3.0
 40
4.0
 40
4.0
 40
4.0
 40
5.0
 40
5.0
 40
5.0
 40
5.0
 10
25.495773654513886
 20
59.737094455295136
 10
30.938680013020832
 20
65.690047200520823
 10
34.379985894097217
 20
73.263056098090274
 10
35.228857421874999
 20
81.381768120659714
 10
35.228857421874999
 20
81.381768120659714
 10
35.669140624999997
 20
82.981670464409717
 10
35.669140624999997
 20
82.981670464409717
 10
35.669140624999997
 20
82.981670464409717
 10
66.507568359375
 20
55.442955186631941
 10
66.507568359375
 20
55.442955186631941
 10
66.507568359375
 20
55.442955186631941
 10
28.16641167534722
 20
55.193702528211801
 10
28.16641167534722
 20
55.193702528211801
 10
28.16641167534722
 20
55.193702528211801
 10
25.495773654513886
 20
59.737094455295136
 10
25.495773654513886
 20
59.737094455295136
 97
        0
 75
     2
 76
     1
 98
        1
 10
0.0
 20
0.0
  0
LINE
  5
7B
100
AcDbEntity
  8
LIVELLO_1
 62
     7
100
AcDbLine
 10
-37.489357
 20
83.395599
 30
0.0
 11
-37.489357
 21
83.395599
 31
0.0
  0
POLYLINE
  5
76
100
AcDbEntity
  8
LIVELLO_1
 62
     7
100
AcDb2dPolyline
 66
     1
 10
0.0
 20
0.0
 30
0.0
  0
VERTEX
  5
77
100
AcDbEntity
  8
LIVELLO_1
 62
     7
100
AcDbVertex
100
AcDb2dVertex
 10
37.386521
 20
83.395599
 30
0.0
  0
VERTEX
  5
78
100
AcDbEntity
  8
LIVELLO_1
 62
     7
100
AcDbVertex
100
AcDb2dVertex
 10
37.386521
 20
83.389914
 30
0.0
  0
VERTEX
  5
79
100
AcDbEntity
  8
LIVELLO_1
 62
     7
100
AcDbVertex
100
AcDb2dVertex
 10
37.386521
 20
83.395599
 30
0.0
  0
SEQEND
  5
7A
100
AcDbEntity
  8
LIVELLO_1
 62
     7
  0
HATCH
  5
75
100
AcDbEntity
  8
LIVELLO_1
 62
     7
100
AcDbHatch
 10
0.0
 20
0.0
 30
0.0
210
0.0
220
0.0
230
1.0
  2
SOLID
 70
     1
 71
     0
 91
        4
 92
        1
 93
        1
 72
     4
 94
        3
 73
     0
 74
     0
 95
       23
 96
       19
 40
0.0
 40
0.0
 40
0.0
 40
0.0
 40
1.0
 40
1.0
 40
1.0
 40
2.0
 40
2.0
 40
2.0
 40
3.0
 40
3.0
 40
3.0
 40
4.0
 40
4.0
 40
4.0
 40
5.0
 40
5.0
 40
5.0
 40
6.0
 40
6.0
 40
6.0
 40
6.0
 10
9.2426744249131936
 20
54.86417914496527
 10
9.2426744249131936
 20
54.86417914496527
 10
9.2426744249131936
 20
54.944449869791661
 10
9.2426744249131936
 20
54.944449869791661
 10
9.2426744249131936
 20
54.944449869791661
 10
9.2733357747395821
 20
55.139270019531246
 10
9.2733357747395821
 20
55.139270019531246
 10
9.2733357747395821
 20
55.139270019531246
 10
19.964672851562497
 20
55.139270019531246
 10
19.964672851562497
 20
55.139270019531246
 10
19.964672851562497
 20
55.139270019531246
 10
20.027718098958331
 20
55.0603773328993
 10
20.027718098958331
 20
55.0603773328993
 10
20.027718098958331
 20
55.0603773328993
 10
20.027718098958331
 20
54.86417914496527
 10
20.027718098958331
 20
54.86417914496527
 10
20.027718098958331
 20
54.86417914496527
 10
9.2426744249131936
 20
54.86417914496527
 10
9.2426744249131936
 20
54.86417914496527
 97
        0
 92
        1
 93
        1
 72
     4
 94
        3
 73
     0
 74
     0
 95
       98
 96
       94
 40
0.0
 40
0.0
 40
0.0
 40
0.0
 40
1.0
 40
1.0
 40
1.0
 40
2.0
 40
2.0
 40
2.0
 40
3.0
 40
3.0
 40
3.0
 40
4.0
 40
4.0
 40
4.0
 40
5.0
 40
5.0
 40
5.0
 40
6.0
 40
6.0
 40
6.0
 40
7.0
 40
7.0
 40
7.0
 40
8.0
 40
8.0
 40
8.0
 40
9.0
 40
9.0
 40
9.0
 40
10.0
 40
10.0
 40
10.0
 40
11.0
 40
11.0
 40
11.0
 40
12.0
 40
12.0
 40
12.0
 40
13.0
 40
13.0
 40
13.0
 40
14.0
 40
14.0
 40
14.0
 40
15.0
 40
15.0
 40
15.0
 40
16.0
 40
16.0
 40
16.0
 40
17.0
 40
17.0
 40
17.0
 40
18.0
 40
18.0
 40
18.0
 40
19.0
 40
19.0
 40
19.0
 40
20.0
 40
20.0
 40
20.0
 40
21.0
 40
21.0
 40
21.0
 40
22.0
 40
22.0
 40
22.0
 40
23.0
 40
23.0
 40
23.0
 40
24.0
 40
24.0
 40
24.0
 40
25.0
 40
25.0
 40
25.0
 40
26.0
 40
26.0
 40
26.0
 40
27.0
 40
27.0
 40
27.0
 40
28.0
 40
28.0
 40
28.0
 40
29.0
 40
29.0
 40
29.0
 40
30.0
 40
30.0
 40
30.0
 40
31.0
 40
31.0
 40
31.0
 40
31.0
 10
35.367005750868053
 20
83.047644042968741
 10
35.371139865451383
 20
83.113445366753467
 10
35.375618489583331
 20
83.179418945312491
 10
35.379752604166661
 20
83.243842230902771
 10
35.379752604166661
 20
83.243842230902771
 10
35.168568250868056
 20
83.250904676649299
 10
35.168568250868056
 20
83.250904676649299
 10
35.168568250868056
 20
83.250904676649299
 10
35.168568250868056
 20
83.455887858072913
 10
35.168568250868056
 20
83.455887858072913
 10
35.168568250868056
 20
83.455887858072913
 10
37.176714409722216
 20
83.455887858072913
 10
37.176714409722216
 20
83.455887858072913
 10
37.176714409722216
 20
83.455887858072913
 10
37.201863606770829
 20
84.077383083767359
 10
37.201863606770829
 20
84.077383083767359
 10
37.201863606770829
 20
84.077383083767359
 10
37.210476345486107
 20
84.537303331163187
 10
37.210476345486107
 20
84.537303331163187
 10
37.210476345486107
 20
84.537303331163187
 10
37.426139322916661
 20
84.537303331163187
 10
37.426139322916661
 20
84.537303331163187
 10
37.426139322916661
 20
84.537303331163187
 10
37.426139322916661
 20
84.750726996527774
 10
37.426139322916661
 20
84.750726996527774
 10
37.426139322916661
 20
84.750726996527774
 10
37.622854275173609
 20
84.750726996527774
 10
37.622854275173609
 20
84.750726996527774
 10
37.622854275173609
 20
84.750726996527774
 10
37.610796440972216
 20
84.063085937499991
 10
37.610796440972216
 20
84.063085937499991
 10
37.610796440972216
 20
84.063085937499991
 10
37.582891167534719
 20
83.389914279513874
 10
37.582891167534719
 20
83.389914279513874
 10
37.582891167534719
 20
83.389914279513874
 10
37.350002712673607
 20
83.39852701822916
 10
37.350002712673607
 20
83.39852701822916
 10
37.350002712673607
 20
83.39852701822916
 10
37.26180826822916
 20
83.421436903211799
 10
37.26180826822916
 20
83.421436903211799
 10
37.26180826822916
 20
83.421436903211799
 10
37.253195529513889
 20
83.470185004340266
 10
37.253195529513889
 20
83.470185004340266
 10
37.253195529513889
 20
83.470185004340266
 10
37.231146918402771
 20
83.464500596788184
 10
37.231146918402771
 20
83.464500596788184
 10
37.231146918402771
 20
83.464500596788184
 10
37.227012803819441
 20
83.470185004340266
 10
37.227012803819441
 20
83.470185004340266
 10
37.227012803819441
 20
83.470185004340266
 10
37.214610460069444
 20
83.458643934461804
 10
37.214610460069444
 20
83.458643934461804
 10
37.214610460069444
 20
83.458643934461804
 10
37.201863606770829
 20
83.455887858072913
 10
37.201863606770829
 20
83.455887858072913
 10
37.201863606770829
 20
83.455887858072913
 10
37.190494791666666
 20
83.440040418836801
 10
37.190494791666666
 20
83.440040418836801
 10
37.190494791666666
 20
83.440040418836801
 10
37.18670518663194
 20
83.438662380642356
 10
37.18670518663194
 20
83.438662380642356
 10
37.18670518663194
 20
83.438662380642356
 10
37.175336371527777
 20
83.442968749999991
 10
37.175336371527777
 20
83.442968749999991
 10
37.175336371527777
 20
83.442968749999991
 10
37.166723632812499
 20
83.411446126302081
 10
37.166723632812499
 20
83.411446126302081
 10
37.166723632812499
 20
83.411446126302081
 10
37.160866970486104
 20
83.404211425781241
 10
37.160866970486104
 20
83.404211425781241
 10
37.160866970486104
 20
83.404211425781241
 10
37.163967556423607
 20
83.402833387586796
 10
37.163967556423607
 20
83.402833387586796
 10
37.163967556423607
 20
83.402833387586796
 10
37.160866970486104
 20
83.389914279513874
 10
37.160866970486104
 20
83.389914279513874
 10
37.160866970486104
 20
83.389914279513874
 10
37.194628906249996
 20
83.381301540798603
 10
37.194628906249996
 20
83.381301540798603
 10
37.194628906249996
 20
83.381301540798603
 10
37.214610460069444
 20
83.368382432725681
 10
37.214610460069444
 20
83.368382432725681
 10
37.214610460069444
 20
83.368382432725681
 10
37.214610460069444
 20
83.367004394531236
 10
37.214610460069444
 20
83.367004394531236
 10
37.214610460069444
 20
83.367004394531236
 10
37.227012803819441
 20
83.292590332031239
 10
37.227012803819441
 20
83.292590332031239
 10
37.227012803819441
 20
83.292590332031239
 10
37.227012803819441
 20
83.047644042968741
 10
37.227012803819441
 20
83.047644042968741
 10
37.227012803819441
 20
83.047644042968741
 10
35.367005750868053
 20
83.047644042968741
 10
35.367005750868053
 20
83.047644042968741
 97
        0
 92
        1
 93
        1
 72
     4
 94
        3
 73
     0
 74
     0
 95
       71
 96
       67
 40
0.0
 40
0.0
 40
0.0
 40
0.0
 40
1.0
 40
1.0
 40
1.0
 40
2.0
 40
2.0
 40
2.0
 40
3.0
 40
3.0
 40
3.0
 40
4.0
 40
4.0
 40
4.0
 40
5.0
 40
5.0
 40
5.0
 40
6.0
 40
6.0
 40
6.0
 40
7.0
 40
7.0
 40
7.0
 40
8.0
 40
8.0
 40
8.0
 40
9.0
 40
9.0
 40
9.0
 40
10.0
 40
10.0
 40
10.0
 40
11.0
 40
11.0
 40
11.0
 40
12.0
 40
12.0
 40
12.0
 40
13.0
 40
13.0
 40
13.0
 40
14.0
 40
14.0
 40
14.0
 40
15.0
 40
15.0
 40
15.0
 40
16.0
 40
16.0
 40
16.0
 40
17.0
 40
17.0
 40
17.0
 40
18.0
 40
18.0
 40
18.0
 40
19.0
 40
19.0
 40
19.0
 40
20.0
 40
20.0
 40
20.0
 40
21.0
 40
21.0
 40
21.0
 40
22.0
 40
22.0
 40
22.0
 40
22.0
 10
-37.344662814670137
 20
83.047644042968741
 10
-37.344662814670137
 20
83.047644042968741
 10
-37.344662814670137
 20
83.209391276041657
 10
-37.344662814670137
 20
83.209391276041657
 10
-37.344662814670137
 20
83.209391276041657
 10
-37.371017795138883
 20
83.047644042968741
 10
-37.371017795138883
 20
83.047644042968741
 10
-37.371017795138883
 20
83.047644042968741
 10
-37.435613335503469
 20
83.059012858072904
 10
-37.435613335503469
 20
83.059012858072904
 10
-37.435613335503469
 20
83.059012858072904
 10
-37.401851399739577
 20
83.240913899739581
 10
-37.401851399739577
 20
83.240913899739581
 10
-37.401851399739577
 20
83.240913899739581
 10
-37.501414659288194
 20
83.086229112413193
 10
-37.501414659288194
 20
83.086229112413193
 10
-37.501414659288194
 20
83.086229112413193
 10
-37.55584716796875
 20
83.113445366753467
 10
-37.55584716796875
 20
83.113445366753467
 10
-37.55584716796875
 20
83.113445366753467
 10
-37.442675781249996
 20
83.292590332031239
 10
-37.442675781249996
 20
83.292590332031239
 10
-37.442675781249996
 20
83.292590332031239
 10
-37.608212619357637
 20
83.16649983723957
 10
-37.608212619357637
 20
83.16649983723957
 10
-37.608212619357637
 20
83.16649983723957
 10
-37.648347981770833
 20
83.219554307725687
 10
-37.648347981770833
 20
83.219554307725687
 10
-37.648347981770833
 20
83.219554307725687
 10
-37.474887424045136
 20
83.338410101996516
 10
-37.474887424045136
 20
83.338410101996516
 10
-37.474887424045136
 20
83.338410101996516
 10
-37.674013943142356
 20
83.285355631510413
 10
-37.674013943142356
 20
83.285355631510413
 10
-37.674013943142356
 20
83.285355631510413
 10
-37.686244032118054
 20
83.351156955295124
 10
-37.686244032118054
 20
83.351156955295124
 10
-37.686244032118054
 20
83.351156955295124
 10
-37.489356825086801
 20
83.39559868706597
 10
-37.489356825086801
 20
83.39559868706597
 10
-37.489356825086801
 20
83.39559868706597
 10
-37.700541178385414
 20
83.389914279513874
 10
-37.700541178385414
 20
83.389914279513874
 10
-37.700541178385414
 20
83.389914279513874
 10
-37.712771267361106
 20
84.063085937499991
 10
-37.712771267361106
 20
84.063085937499991
 10
-37.712771267361106
 20
84.063085937499991
 10
-37.304527452256941
 20
84.077383083767359
 10
-37.304527452256941
 20
84.077383083767359
 10
-37.304527452256941
 20
84.077383083767359
 10
-37.280067274305551
 20
83.455887858072913
 10
-37.280067274305551
 20
83.455887858072913
 10
-37.280067274305551
 20
83.455887858072913
 10
-35.270543077256939
 20
83.455887858072913
 10
-35.270543077256939
 20
83.455887858072913
 10
-35.270543077256939
 20
83.455887858072913
 10
-35.270543077256939
 20
83.250904676649299
 10
-35.270543077256939
 20
83.250904676649299
 10
-35.270543077256939
 20
83.250904676649299
 10
-35.481727430555551
 20
83.243842230902771
 10
-35.481727430555551
 20
83.243842230902771
 10
-35.47897135416666
 20
83.179418945312491
 10
-35.473975965711801
 20
83.113445366753467
 10
-35.469669596354166
 20
83.047644042968741
 10
-35.469669596354166
 20
83.047644042968741
 10
-37.344662814670137
 20
83.047644042968741
 10
-37.344662814670137
 20
83.047644042968741
 97
        0
 92
        1
 93
        1
 72
     4
 94
        3
 73
     0
 74
     0
 95
       23
 96
       19
 40
0.0
 40
0.0
 40
0.0
 40
0.0
 40
1.0
 40
1.0
 40
1.0
 40
2.0
 40
2.0
 40
2.0
 40
3.0
 40
3.0
 40
3.0
 40
4.0
 40
4.0
 40
4.0
 40
5.0
 40
5.0
 40
5.0
 40
6.0
 40
6.0
 40
6.0
 40
6.0
 10
-37.74067654079861
 20
84.750726996527774
 10
-37.74067654079861
 20
84.750726996527774
 10
-37.527941894531246
 20
84.750726996527774
 10
-37.527941894531246
 20
84.750726996527774
 10
-37.527941894531246
 20
84.750726996527774
 10
-37.527941894531246
 20
84.537303331163187
 10
-37.527941894531246
 20
84.537303331163187
 10
-37.527941894531246
 20
84.537303331163187
 10
-37.313829210069443
 20
84.537303331163187
 10
-37.313829210069443
 20
84.537303331163187
 10
-37.313829210069443
 20
84.537303331163187
 10
-37.304527452256941
 20
84.077383083767359
 10
-37.304527452256941
 20
84.077383083767359
 10
-37.304527452256941
 20
84.077383083767359
 10
-37.725690375434027
 20
84.063085937499991
 10
-37.725690375434027
 20
84.063085937499991
 10
-37.725690375434027
 20
84.063085937499991
 10
-37.74067654079861
 20
84.750726996527774
 10
-37.74067654079861
 20
84.750726996527774
 97
        0
 75
     2
 76
     1
 98
        1
 10
0.0
 20
0.0
  0
SPLINE
  5
74
100
AcDbEntity
  8
LIVELLO_1
 62
     7
100
AcDbSpline
210
0.0
220
0.0
230
1.0
 70
     8
 71
     3
 72
    14
 73
    10
 74
     0
 42
0.00000001
 43
0.00000001
 40
0.0
 40
0.0
 40
0.0
 40
0.0
 40
1.0
 40
1.0
 40
1.0
 40
2.0
 40
2.0
 40
2.0
 40
3.0
 40
3.0
 40
3.0
 40
3.0
 10
-37.313829210069443
 20
84.959844292534711
 30
0.0
 10
-37.002220323350691
 20
105.29813774956597
 30
0.0
 10
-20.415463595920137
 20
121.6458048502604
 30
0.0
 10
-0.0506429036458333
 20
121.6458048502604
 30
0.0
 10
20.311938476562499
 20
121.6458048502604
 30
0.0
 10
36.886637369791664
 20
105.29813774956597
 30
0.0
 10
37.210476345486107
 20
84.959844292534711
 30
0.0
 10
37.210476345486107
 20
84.959844292534711
 30
0.0
 10
-37.313829210069443
 20
84.959844292534711
 30
0.0
 10
-37.313829210069443
 20
84.959844292534711
 30
0.0
  0
POLYLINE
  5
6F
100
AcDbEntity
  8
LIVELLO_1
 62
     7
100
AcDb2dPolyline
 66
     1
 10
0.0
 20
0.0
 30
0.0
  0
VERTEX
  5
70
100
AcDbEntity
  8
LIVELLO_1
 62
     7
100
AcDbVertex
100
AcDb2dVertex
 10
37.385143
 20
83.388536
 30
0.0
  0
VERTEX
  5
71
100
AcDbEntity
  8
LIVELLO_1
 62
     7
100
AcDbVertex
100
AcDb2dVertex
 10
37.386521
 20
83.389914
 30
0.0
  0
VERTEX
  5
72
100
AcDbEntity
  8
LIVELLO_1
 62
     7
100
AcDbVertex
100
AcDb2dVertex
 10
37.385143
 20
83.388536
 30
0.0
  0
SEQEND
  5
73
100
AcDbEntity
  8
LIVELLO_1
 62
     7
  0
POLYLINE
  5
6A
100
AcDbEntity
  8
LIVELLO_1
 62
     7
100
AcDb2dPolyline
 66
     1
 10
0.0
 20
0.0
 30
0.0
  0
VERTEX
  5
6B
100
AcDbEntity
  8
LIVELLO_1
 62
     7
100
AcDbVertex
100
AcDb2dVertex
 10
37.235626
 20
83.246771
 30
0.0
  0
VERTEX
  5
6C
100
AcDbEntity
  8
LIVELLO_1
 62
     7
100
AcDbVertex
100
AcDb2dVertex
 10
37.227013
 20
83.243842
 30
0.0
  0
VERTEX
  5
6D
100
AcDbEntity
  8
LIVELLO_1
 62
     7
100
AcDbVertex
100
AcDb2dVertex
 10
37.235626
 20
83.246771
 30
0.0
  0
SEQEND
  5
6E
100
AcDbEntity
  8
LIVELLO_1
 62
     7
  0
SPLINE
  5
69
100
AcDbEntity
  8
LIVELLO_1
 62
     7
100
AcDbSpline
210
0.0
220
0.0
230
1.0
 70
     8
 71
     3
 72
    14
 73
    10
 74
     0
 42
0.00000001
 43
0.00000001
 40
0.0
 40
0.0
 40
0.0
 40
0.0
 40
1.0
 40
1.0
 40
1.0
 40
2.0
 40
2.0
 40
2.0
 40
3.0
 40
3.0
 40
3.0
 40
3.0
 10
-12.207179090711804
 20
81.868732367621519
 30
0.0
 10
-12.207179090711804
 20
81.868732367621519
 30
0.0
 10
-12.204250759548611
 20
81.835831705729163
 30
0.0
 10
-12.204250759548611
 20
81.835831705729163
 30
0.0
 10
-12.204250759548611
 20
81.835831705729163
 30
0.0
 10
-12.208557128906248
 20
81.830147298177081
 30
0.0
 10
-12.208557128906248
 20
81.830147298177081
 30
0.0
 10
-12.208557128906248
 20
81.84289415147569
 30
0.0
 10
-12.208557128906248
 20
81.855813259548597
 30
0.0
 10
-12.207179090711804
 20
81.868732367621519
 30
0.0
  0
SPLINE
  5
68
100
AcDbEntity
  8
LIVELLO_1
 62
     7
100
AcDbSpline
210
0.0
220
0.0
230
1.0
 70
     8
 71
     3
 72
    14
 73
    10
 74
     0
 42
0.00000001
 43
0.00000001
 40
0.0
 40
0.0
 40
0.0
 40
0.0
 40
1.0
 40
1.0
 40
1.0
 40
2.0
 40
2.0
 40
2.0
 40
3.0
 40
3.0
 40
3.0
 40
3.0
 10
-35.045578342013883
 20
82.825607638888883
 30
0.0
 10
-35.045578342013883
 20
82.825607638888883
 30
0.0
 10
-24.356480577256942
 20
62.938449435763886
 30
0.0
 10
-24.356480577256942
 20
62.938449435763886
 30
0.0
 10
-24.356480577256942
 20
62.938449435763886
 30
0.0
 10
-25.840455457899303
 20
60.62954644097222
 30
0.0
 10
-25.840455457899303
 20
60.62954644097222
 30
0.0
 10
-31.214804416232635
 20
66.770084635416666
 30
0.0
 10
-34.488506401909717
 20
74.550660536024296
 30
0.0
 10
-35.045578342013883
 20
82.825607638888883
 30
0.0
  0
SPLINE
  5
67
100
AcDbEntity
  8
LIVELLO_1
 62
     7
100
AcDbSpline
210
0.0
220
0.0
230
1.0
 70
     8
 71
     3
 72
    14
 73
    10
 74
     0
 42
0.00000001
 43
0.00000001
 40
0.0
 40
0.0
 40
0.0
 40
0.0
 40
1.0
 40
1.0
 40
1.0
 40
2.0
 40
2.0
 40
2.0
 40
3.0
 40
3.0
 40
3.0
 40
3.0
 10
23.948064507378469
 20
62.368458387586799
 30
0.0
 10
23.948064507378469
 20
62.368458387586799
 30
0.0
 10
34.927756076388889
 20
82.799769422743054
 30
0.0
 10
34.927756076388889
 20
82.799769422743054
 30
0.0
 10
34.359315321180553
 20
74.298651801215271
 30
0.0
 10
30.918009440104164
 20
66.323255750868043
 30
0.0
 10
25.275804307725693
 20
60.111059570312491
 30
0.0
 10
25.275804307725693
 20
60.111059570312491
 30
0.0
 10
23.948064507378469
 20
62.368458387586799
 30
0.0
 10
23.948064507378469
 20
62.368458387586799
 30
0.0
  0
POLYLINE
  5
62
100
AcDbEntity
  8
LIVELLO_1
 62
     7
100
AcDb2dPolyline
 66
     1
 10
0.0
 20
0.0
 30
0.0
  0
VERTEX
  5
63
100
AcDbEntity
  8
LIVELLO_1
 62
     7
100
AcDbVertex
100
AcDb2dVertex
 10
9.181007
 20
55.077603
 30
0.0
  0
VERTEX
  5
64
100
AcDbEntity
  8
LIVELLO_1
 62
     7
100
AcDbVertex
100
AcDb2dVertex
 10
9.182385
 20
55.077603
 30
0.0
  0
VERTEX
  5
65
100
AcDbEntity
  8
LIVELLO_1
 62
     7
100
AcDbVertex
100
AcDb2dVertex
 10
9.181007
 20
55.077603
 30
0.0
  0
SEQEND
  5
66
100
AcDbEntity
  8
LIVELLO_1
 62
     7
  0
POLYLINE
  5
5D
100
AcDbEntity
  8
LIVELLO_1
 62
     7
100
AcDb2dPolyline
 66
     1
 10
0.0
 20
0.0
 30
0.0
  0
VERTEX
  5
5E
100
AcDbEntity
  8
LIVELLO_1
 62
     7
100
AcDbVertex
100
AcDb2dVertex
 10
-9.291595
 20
55.074847
 30
0.0
  0
VERTEX
  5
5F
100
AcDbEntity
  8
LIVELLO_1
 62
     7
100
AcDbVertex
100
AcDb2dVertex
 10
-9.290217
 20
55.074847
 30
0.0
  0
VERTEX
  5
60
100
AcDbEntity
  8
LIVELLO_1
 62
     7
100
AcDbVertex
100
AcDb2dVertex
 10
-9.291595
 20
55.074847
 30
0.0
  0
SEQEND
  5
61
100
AcDbEntity
  8
LIVELLO_1
 62
     7
  0
POLYLINE
  5
58
100
AcDbEntity
  8
LIVELLO_1
 62
     7
100
AcDb2dPolyline
 66
     1
 10
0.0
 20
0.0
 30
0.0
  0
VERTEX
  5
59
100
AcDbEntity
  8
LIVELLO_1
 62
     7
100
AcDbVertex
100
AcDb2dVertex
 10
-9.370315
 20
55.073296
 30
0.0
  0
VERTEX
  5
5A
100
AcDbEntity
  8
LIVELLO_1
 62
     7
100
AcDbVertex
100
AcDb2dVertex
 10
-9.366009
 20
55.073296
 30
0.0
  0
VERTEX
  5
5B
100
AcDbEntity
  8
LIVELLO_1
 62
     7
100
AcDbVertex
100
AcDb2dVertex
 10
-9.370315
 20
55.073296
 30
0.0
  0
SEQEND
  5
5C
100
AcDbEntity
  8
LIVELLO_1
 62
     7
  0
HATCH
  5
57
100
AcDbEntity
  8
LIVELLO_1
 62
     7
100
AcDbHatch
 10
0.0
 20
0.0
 30
0.0
210
0.0
220
0.0
230
1.0
  2
SOLID
 70
     1
 71
     0
 91
       12
 92
        1
 93
        1
 72
     4
 94
        3
 73
     0
 74
     0
 95
       35
 96
       31
 40
0.0
 40
0.0
 40
0.0
 40
0.0
 40
1.0
 40
1.0
 40
1.0
 40
2.0
 40
2.0
 40
2.0
 40
3.0
 40
3.0
 40
3.0
 40
4.0
 40
4.0
 40
4.0
 40
5.0
 40
5.0
 40
5.0
 40
6.0
 40
6.0
 40
6.0
 40
7.0
 40
7.0
 40
7.0
 40
8.0
 40
8.0
 40
8.0
 40
9.0
 40
9.0
 40
9.0
 40
10.0
 40
10.0
 40
10.0
 40
10.0
 10
9.1501736111111107
 20
54.877098253038191
 10
9.1501736111111107
 20
54.877098253038191
 10
9.1823852539062489
 20
55.080531141493047
 10
9.1823852539062489
 20
55.080531141493047
 10
9.1823852539062489
 20
55.080531141493047
 10
9.1093492296006939
 20
54.88863932291666
 10
9.1093492296006939
 20
54.88863932291666
 10
9.1093492296006939
 20
54.88863932291666
 10
9.0313178168402768
 20
54.915855577256941
 10
9.0313178168402768
 20
54.915855577256941
 10
9.0313178168402768
 20
54.915855577256941
 10
9.1093492296006939
 20
55.107747395833329
 10
9.1093492296006939
 20
55.107747395833329
 10
9.1093492296006939
 20
55.107747395833329
 10
8.978263346354165
 20
54.943071831597216
 10
8.978263346354165
 20
54.943071831597216
 10
8.978263346354165
 20
54.943071831597216
 10
8.9238308376736111
 20
54.99595404730902
 10
8.9238308376736111
 20
54.99595404730902
 10
8.9238308376736111
 20
54.99595404730902
 10
9.0356241861979161
 20
55.139270019531246
 10
9.0356241861979161
 20
55.139270019531246
 10
9.0356241861979161
 20
55.139270019531246
 10
9.2733357747395821
 20
55.139270019531246
 10
9.2733357747395821
 20
55.139270019531246
 10
9.2733357747395821
 20
55.139270019531246
 10
9.227516004774305
 20
54.86417914496527
 10
9.227516004774305
 20
54.86417914496527
 10
9.227516004774305
 20
54.86417914496527
 10
9.1501736111111107
 20
54.877098253038191
 10
9.1501736111111107
 20
54.877098253038191
 97
        0
 92
        1
 93
        1
 72
     4
 94
        3
 73
     0
 74
     0
 95
       50
 96
       46
 40
0.0
 40
0.0
 40
0.0
 40
0.0
 40
1.0
 40
1.0
 40
1.0
 40
2.0
 40
2.0
 40
2.0
 40
3.0
 40
3.0
 40
3.0
 40
4.0
 40
4.0
 40
4.0
 40
5.0
 40
5.0
 40
5.0
 40
6.0
 40
6.0
 40
6.0
 40
7.0
 40
7.0
 40
7.0
 40
8.0
 40
8.0
 40
8.0
 40
9.0
 40
9.0
 40
9.0
 40
10.0
 40
10.0
 40
10.0
 40
11.0
 40
11.0
 40
11.0
 40
12.0
 40
12.0
 40
12.0
 40
13.0
 40
13.0
 40
13.0
 40
14.0
 40
14.0
 40
14.0
 40
15.0
 40
15.0
 40
15.0
 40
15.0
 10
-9.37031521267361
 20
55.109125434027774
 10
-9.37031521267361
 20
55.109125434027774
 10
-9.37031521267361
 20
54.86417914496527
 10
-9.37031521267361
 20
54.86417914496527
 10
-9.37031521267361
 20
54.86417914496527
 10
-20.130381944444444
 20
54.86417914496527
 10
-20.130381944444444
 20
54.86417914496527
 10
-20.130381944444444
 20
54.86417914496527
 10
-20.130381944444444
 20
55.0603773328993
 10
-20.130381944444444
 20
55.0603773328993
 10
-20.130381944444444
 20
55.0603773328993
 10
-20.247859700520831
 20
54.90293646918402
 10
-20.247859700520831
 20
54.90293646918402
 10
-20.355174424913194
 20
54.983034939236106
 10
-20.459044053819444
 20
55.061927625868051
 10
-20.562913682725693
 20
55.139270019531246
 10
-20.562913682725693
 20
55.139270019531246
 10
-9.13897705078125
 20
55.139270019531246
 10
-9.13897705078125
 20
55.139270019531246
 10
-9.13897705078125
 20
55.139270019531246
 10
-9.0273559570312489
 20
54.99595404730902
 10
-9.0273559570312489
 20
54.99595404730902
 10
-9.0273559570312489
 20
54.99595404730902
 10
-9.0931572808159711
 20
54.943071831597216
 10
-9.0931572808159711
 20
54.943071831597216
 10
-9.0931572808159711
 20
54.943071831597216
 10
-9.2192477756076379
 20
55.107747395833329
 10
-9.2192477756076379
 20
55.107747395833329
 10
-9.2192477756076379
 20
55.107747395833329
 10
-9.1462117513020829
 20
54.915855577256941
 10
-9.1462117513020829
 20
54.915855577256941
 10
-9.1462117513020829
 20
54.915855577256941
 10
-9.212013075086805
 20
54.88863932291666
 10
-9.212013075086805
 20
54.88863932291666
 10
-9.212013075086805
 20
54.88863932291666
 10
-9.2929728190104157
 20
55.080531141493047
 10
-9.2929728190104157
 20
55.080531141493047
 10
-9.2929728190104157
 20
55.080531141493047
 10
-9.265067545572915
 20
54.877098253038191
 10
-9.265067545572915
 20
54.877098253038191
 10
-9.265067545572915
 20
54.877098253038191
 10
-9.3310411241319429
 20
54.86417914496527
 10
-9.3310411241319429
 20
54.86417914496527
 10
-9.3310411241319429
 20
54.86417914496527
 10
-9.37031521267361
 20
55.109125434027774
 10
-9.37031521267361
 20
55.109125434027774
 97
        0
 92
        1
 93
        1
 72
     4
 94
        3
 73
     0
 74
     0
 95
       14
 96
       10
 40
0.0
 40
0.0
 40
0.0
 40
0.0
 40
1.0
 40
1.0
 40
1.0
 40
2.0
 40
2.0
 40
2.0
 40
3.0
 40
3.0
 40
3.0
 40
3.0
 10
19.964672851562497
 20
55.139270019531246
 10
19.964672851562497
 20
55.139270019531246
 10
20.46024983723958
 20
55.139270019531246
 10
20.46024983723958
 20
55.139270019531246
 10
20.356380208333331
 20
55.061927625868051
 10
20.251821560329859
 20
54.983034939236106
 10
20.145195855034721
 20
54.90293646918402
 10
20.145195855034721
 20
54.90293646918402
 10
19.964672851562497
 20
55.139270019531246
 10
19.964672851562497
 20
55.139270019531246
 97
        0
 92
        1
 93
        1
 72
     4
 94
        3
 73
     0
 74
     0
 95
       17
 96
       13
 40
0.0
 40
0.0
 40
0.0
 40
0.0
 40
1.0
 40
1.0
 40
1.0
 40
2.0
 40
2.0
 40
2.0
 40
3.0
 40
3.0
 40
3.0
 40
4.0
 40
4.0
 40
4.0
 40
4.0
 10
8.8315022786458321
 20
55.100512695312496
 10
8.8315022786458321
 20
55.100512695312496
 10
8.8873128255208318
 20
55.139270019531246
 10
8.8873128255208318
 20
55.139270019531246
 10
8.8873128255208318
 20
55.139270019531246
 10
9.0240831163194439
 20
55.139270019531246
 10
9.0240831163194439
 20
55.139270019531246
 10
9.0240831163194439
 20
55.139270019531246
 10
8.8859347873263879
 20
55.03471137152777
 10
8.8859347873263879
 20
55.03471137152777
 10
8.8859347873263879
 20
55.03471137152777
 10
8.8315022786458321
 20
55.100512695312496
 10
8.8315022786458321
 20
55.100512695312496
 97
        0
 92
        1
 93
        1
 72
     4
 94
        3
 73
     0
 74
     0
 95
       17
 96
       13
 40
0.0
 40
0.0
 40
0.0
 40
0.0
 40
1.0
 40
1.0
 40
1.0
 40
2.0
 40
2.0
 40
2.0
 40
3.0
 40
3.0
 40
3.0
 40
4.0
 40
4.0
 40
4.0
 40
4.0
 10
-9.1269192165798607
 20
55.139270019531246
 10
-9.1269192165798607
 20
55.139270019531246
 10
-8.9922159830729154
 20
55.139270019531246
 10
-8.9922159830729154
 20
55.139270019531246
 10
-8.9922159830729154
 20
55.139270019531246
 10
-8.9348551432291661
 20
55.100512695312496
 10
-8.9348551432291661
 20
55.100512695312496
 10
-8.9348551432291661
 20
55.100512695312496
 10
-8.9879096137152761
 20
55.03471137152777
 10
-8.9879096137152761
 20
55.03471137152777
 10
-8.9879096137152761
 20
55.03471137152777
 10
-9.1269192165798607
 20
55.139270019531246
 10
-9.1269192165798607
 20
55.139270019531246
 97
        0
 92
        1
 93
        1
 72
     4
 94
        3
 73
     0
 74
     0
 95
       17
 96
       13
 40
0.0
 40
0.0
 40
0.0
 40
0.0
 40
1.0
 40
1.0
 40
1.0
 40
2.0
 40
2.0
 40
2.0
 40
3.0
 40
3.0
 40
3.0
 40
4.0
 40
4.0
 40
4.0
 40
4.0
 10
25.275804307725693
 20
60.111059570312491
 10
31.019639756944443
 20
66.434876844618046
 10
34.484027777777776
 20
74.58511149088541
 10
34.956005859374997
 20
83.258139377170124
 10
34.956005859374997
 20
83.258139377170124
 10
35.379752604166661
 20
83.243842230902771
 10
35.379752604166661
 20
83.243842230902771
 10
34.892960611979163
 20
74.426120334201386
 10
31.354158528645829
 20
66.14135470920138
 10
25.495773654513886
 20
59.737094455295136
 10
25.495773654513886
 20
59.737094455295136
 10
25.275804307725693
 20
60.111059570312491
 10
25.275804307725693
 20
60.111059570312491
 97
        0
 92
        1
 93
        1
 72
     4
 94
        3
 73
     0
 74
     0
 95
       17
 96
       13
 40
0.0
 40
0.0
 40
0.0
 40
0.0
 40
1.0
 40
1.0
 40
1.0
 40
2.0
 40
2.0
 40
2.0
 40
3.0
 40
3.0
 40
3.0
 40
4.0
 40
4.0
 40
4.0
 40
4.0
 10
-35.481727430555551
 20
83.243842230902771
 10
-35.481727430555551
 20
83.243842230902771
 10
-35.073655870225693
 20
83.258139377170124
 10
-35.073655870225693
 20
83.258139377170124
 10
-34.601677788628471
 20
74.82006700303819
 10
-31.308511013454858
 20
66.877571614583331
 10
-25.840455457899303
 20
60.62954644097222
 10
-25.840455457899303
 20
60.62954644097222
 10
-26.074032931857637
 20
60.267122395833326
 10
-26.074032931857637
 20
60.267122395833326
 10
-31.647336154513887
 20
66.596796332465274
 10
-35.009060329861107
 20
74.668138292100693
 10
-35.481727430555551
 20
83.243842230902771
 97
        0
 92
        1
 93
        1
 72
     4
 94
        3
 73
     0
 74
     0
 95
       41
 96
       37
 40
0.0
 40
0.0
 40
0.0
 40
0.0
 40
1.0
 40
1.0
 40
1.0
 40
2.0
 40
2.0
 40
2.0
 40
3.0
 40
3.0
 40
3.0
 40
4.0
 40
4.0
 40
4.0
 40
5.0
 40
5.0
 40
5.0
 40
6.0
 40
6.0
 40
6.0
 40
7.0
 40
7.0
 40
7.0
 40
8.0
 40
8.0
 40
8.0
 40
9.0
 40
9.0
 40
9.0
 40
10.0
 40
10.0
 40
10.0
 40
11.0
 40
11.0
 40
11.0
 40
12.0
 40
12.0
 40
12.0
 40
12.0
 10
-12.565296766493054
 20
83.404211425781241
 10
-12.565296766493054
 20
83.404211425781241
 10
-12.368237304687499
 20
83.39559868706597
 10
-12.368237304687499
 20
83.39559868706597
 10
-12.368237304687499
 20
83.39559868706597
 10
-12.368237304687499
 20
83.601959906684016
 10
-12.368237304687499
 20
83.601959906684016
 10
-12.368237304687499
 20
83.601959906684016
 10
11.97480740017361
 20
83.601959906684016
 10
11.97480740017361
 20
83.601959906684016
 10
11.97480740017361
 20
83.601959906684016
 10
11.97480740017361
 20
83.179418945312491
 10
11.97480740017361
 20
83.179418945312491
 10
11.97480740017361
 20
83.179418945312491
 10
11.71280788845486
 20
83.179418945312491
 10
11.71280788845486
 20
83.179418945312491
 10
11.71280788845486
 20
83.179418945312491
 10
11.565874565972221
 20
83.428671603732624
 10
11.565874565972221
 20
83.428671603732624
 10
11.565874565972221
 20
83.428671603732624
 10
-11.180196126302082
 20
83.428671603732624
 10
-11.180196126302082
 20
83.428671603732624
 10
-11.180196126302082
 20
83.428671603732624
 10
-11.340565321180554
 20
83.179418945312491
 10
-11.340565321180554
 20
83.179418945312491
 10
-11.340565321180554
 20
83.179418945312491
 10
-12.164976671006944
 20
83.179418945312491
 10
-12.164976671006944
 20
83.179418945312491
 10
-12.182202148437499
 20
82.729661729600693
 10
-12.197188313802082
 20
82.278354220920136
 10
-12.208557128906248
 20
81.830147298177081
 10
-12.208557128906248
 20
81.830147298177081
 10
-12.632648383246528
 20
81.169722493489573
 10
-12.632648383246528
 20
81.169722493489573
 10
-12.61972927517361
 20
81.91317409939235
 10
-12.597508409288194
 20
82.658003743489573
 10
-12.565296766493054
 20
83.404211425781241
 97
        0
 92
        1
 93
        1
 72
     4
 94
        3
 73
     0
 74
     0
 95
       17
 96
       13
 40
0.0
 40
0.0
 40
0.0
 40
0.0
 40
1.0
 40
1.0
 40
1.0
 40
2.0
 40
2.0
 40
2.0
 40
3.0
 40
3.0
 40
3.0
 40
4.0
 40
4.0
 40
4.0
 40
4.0
 10
12.085222710503471
 20
82.546210394965271
 10
12.076609971788193
 20
82.826985677083329
 10
12.065757921006943
 20
83.109138997395831
 10
12.054389105902777
 20
83.389914279513874
 10
12.054389105902777
 20
83.389914279513874
 10
12.463321940104166
 20
83.404211425781241
 10
12.463321940104166
 20
83.404211425781241
 10
12.485542805989581
 20
82.872805447048606
 10
12.50190700954861
 20
82.342777506510416
 10
12.516376410590278
 20
81.81429985894097
 10
12.516376410590278
 20
81.81429985894097
 10
12.085222710503471
 20
82.546210394965271
 10
12.085222710503471
 20
82.546210394965271
 97
        0
 92
        1
 93
        1
 72
     4
 94
        3
 73
     0
 74
     0
 95
       86
 96
       82
 40
0.0
 40
0.0
 40
0.0
 40
0.0
 40
1.0
 40
1.0
 40
1.0
 40
2.0
 40
2.0
 40
2.0
 40
3.0
 40
3.0
 40
3.0
 40
4.0
 40
4.0
 40
4.0
 40
5.0
 40
5.0
 40
5.0
 40
6.0
 40
6.0
 40
6.0
 40
7.0
 40
7.0
 40
7.0
 40
8.0
 40
8.0
 40
8.0
 40
9.0
 40
9.0
 40
9.0
 40
10.0
 40
10.0
 40
10.0
 40
11.0
 40
11.0
 40
11.0
 40
12.0
 40
12.0
 40
12.0
 40
13.0
 40
13.0
 40
13.0
 40
14.0
 40
14.0
 40
14.0
 40
15.0
 40
15.0
 40
15.0
 40
16.0
 40
16.0
 40
16.0
 40
17.0
 40
17.0
 40
17.0
 40
18.0
 40
18.0
 40
18.0
 40
19.0
 40
19.0
 40
19.0
 40
20.0
 40
20.0
 40
20.0
 40
21.0
 40
21.0
 40
21.0
 40
22.0
 40
22.0
 40
22.0
 40
23.0
 40
23.0
 40
23.0
 40
24.0
 40
24.0
 40
24.0
 40
25.0
 40
25.0
 40
25.0
 40
26.0
 40
26.0
 40
26.0
 40
27.0
 40
27.0
 40
27.0
 40
27.0
 10
37.214610460069444
 20
83.367004394531236
 10
37.214610460069444
 20
83.367004394531236
 10
37.214610460069444
 20
83.368382432725681
 10
37.214610460069444
 20
83.368382432725681
 10
37.214610460069444
 20
83.368382432725681
 10
37.194628906249996
 20
83.381301540798603
 10
37.194628906249996
 20
83.381301540798603
 10
37.194628906249996
 20
83.381301540798603
 10
37.160866970486104
 20
83.389914279513874
 10
37.160866970486104
 20
83.389914279513874
 10
37.160866970486104
 20
83.389914279513874
 10
37.163967556423607
 20
83.402833387586796
 10
37.163967556423607
 20
83.402833387586796
 10
37.163967556423607
 20
83.402833387586796
 10
37.160866970486104
 20
83.404211425781241
 10
37.160866970486104
 20
83.404211425781241
 10
37.160866970486104
 20
83.404211425781241
 10
37.166723632812499
 20
83.411446126302081
 10
37.166723632812499
 20
83.411446126302081
 10
37.166723632812499
 20
83.411446126302081
 10
37.175336371527777
 20
83.442968749999991
 10
37.175336371527777
 20
83.442968749999991
 10
37.175336371527777
 20
83.442968749999991
 10
37.18670518663194
 20
83.438662380642356
 10
37.18670518663194
 20
83.438662380642356
 10
37.18670518663194
 20
83.438662380642356
 10
37.190494791666666
 20
83.440040418836801
 10
37.190494791666666
 20
83.440040418836801
 10
37.190494791666666
 20
83.440040418836801
 10
37.201863606770829
 20
83.455887858072913
 10
37.201863606770829
 20
83.455887858072913
 10
37.201863606770829
 20
83.455887858072913
 10
37.214610460069444
 20
83.458643934461804
 10
37.214610460069444
 20
83.458643934461804
 10
37.214610460069444
 20
83.458643934461804
 10
37.227012803819441
 20
83.470185004340266
 10
37.227012803819441
 20
83.470185004340266
 10
37.227012803819441
 20
83.470185004340266
 10
37.231146918402771
 20
83.464500596788184
 10
37.231146918402771
 20
83.464500596788184
 10
37.231146918402771
 20
83.464500596788184
 10
37.253195529513889
 20
83.470185004340266
 10
37.253195529513889
 20
83.470185004340266
 10
37.253195529513889
 20
83.470185004340266
 10
37.26180826822916
 20
83.421436903211799
 10
37.26180826822916
 20
83.421436903211799
 10
37.26180826822916
 20
83.421436903211799
 10
37.582891167534719
 20
83.338410101996516
 10
37.582891167534719
 20
83.338410101996516
 10
37.582891167534719
 20
83.338410101996516
 10
37.571522352430549
 20
83.285355631510413
 10
37.571522352430549
 20
83.285355631510413
 10
37.571522352430549
 20
83.285355631510413
 10
37.376529947916666
 20
83.33410373263888
 10
37.376529947916666
 20
83.33410373263888
 10
37.376529947916666
 20
83.33410373263888
 10
37.544995117187497
 20
83.219554307725687
 10
37.544995117187497
 20
83.219554307725687
 10
37.544995117187497
 20
83.219554307725687
 10
37.505376519097219
 20
83.179418945312491
 10
37.505376519097219
 20
83.179418945312491
 10
37.505376519097219
 20
83.179418945312491
 10
37.344490559895831
 20
83.283977593315967
 10
37.344490559895831
 20
83.283977593315967
 10
37.344490559895831
 20
83.283977593315967
 10
37.452322048611109
 20
83.113445366753467
 10
37.452322048611109
 20
83.113445366753467
 10
37.452322048611109
 20
83.113445366753467
 10
37.397889539930553
 20
83.086229112413193
 10
37.397889539930553
 20
83.086229112413193
 10
37.397889539930553
 20
83.086229112413193
 10
37.288335503472219
 20
83.255211046006934
 10
37.288335503472219
 20
83.255211046006934
 10
37.288335503472219
 20
83.255211046006934
 10
37.319341362847219
 20
83.059012858072904
 10
37.319341362847219
 20
83.059012858072904
 10
37.319341362847219
 20
83.059012858072904
 10
37.267664930555554
 20
83.047644042968741
 10
37.267664930555554
 20
83.047644042968741
 10
37.267664930555554
 20
83.047644042968741
 10
37.214610460069444
 20
83.367004394531236
 10
37.214610460069444
 20
83.367004394531236
 97
        0
 92
        1
 93
        1
 72
     4
 94
        3
 73
     0
 74
     0
 95
       26
 96
       22
 40
0.0
 40
0.0
 40
0.0
 40
0.0
 40
1.0
 40
1.0
 40
1.0
 40
2.0
 40
2.0
 40
2.0
 40
3.0
 40
3.0
 40
3.0
 40
4.0
 40
4.0
 40
4.0
 40
5.0
 40
5.0
 40
5.0
 40
6.0
 40
6.0
 40
6.0
 40
7.0
 40
7.0
 40
7.0
 40
7.0
 10
-37.527941894531246
 20
84.537303331163187
 10
-37.527941894531246
 20
84.537303331163187
 10
-37.527941894531246
 20
84.750726996527774
 10
-37.527941894531246
 20
84.750726996527774
 10
-37.527941894531246
 20
84.750726996527774
 10
-37.74067654079861
 20
84.750726996527774
 10
-37.74067654079861
 20
84.750726996527774
 10
-37.527941894531246
 20
105.42267795138888
 10
-20.723282877604166
 20
122.05404866536458
 10
-0.0506429036458333
 20
122.05404866536458
 10
20.621308051215276
 20
122.05404866536458
 10
37.426139322916661
 20
105.42267795138888
 10
37.622854275173609
 20
84.750726996527774
 10
37.622854275173609
 20
84.750726996527774
 10
37.426139322916661
 20
84.750726996527774
 10
37.426139322916661
 20
84.750726996527774
 10
37.426139322916661
 20
84.750726996527774
 10
37.426139322916661
 20
84.537303331163187
 10
37.426139322916661
 20
84.537303331163187
 10
37.426139322916661
 20
84.537303331163187
 10
-37.527941894531246
 20
84.537303331163187
 10
-37.527941894531246
 20
84.537303331163187
 97
        0
 92
       16
 93
        1
 72
     4
 94
        3
 73
     0
 74
     0
 95
       20
 96
       16
 40
0.0
 40
0.0
 40
0.0
 40
0.0
 40
1.0
 40
1.0
 40
1.0
 40
2.0
 40
2.0
 40
2.0
 40
3.0
 40
3.0
 40
3.0
 40
4.0
 40
4.0
 40
4.0
 40
5.0
 40
5.0
 40
5.0
 40
5.0
 10
37.210476345486107
 20
84.959844292534711
 10
36.886637369791664
 20
105.29813774956597
 10
20.311938476562499
 20
121.6458048502604
 10
-0.0506429036458333
 20
121.6458048502604
 10
-0.0506429036458333
 20
121.6458048502604
 10
-0.0506429036458333
 20
121.84493136935762
 10
-0.0506429036458333
 20
121.84493136935762
 10
-0.0506429036458333
 20
121.84493136935762
 10
-0.0506429036458333
 20
121.6458048502604
 10
-0.0506429036458333
 20
121.6458048502604
 10
-20.415463595920137
 20
121.6458048502604
 10
-37.002220323350691
 20
105.29813774956597
 10
-37.313829210069443
 20
84.959844292534711
 10
-37.313829210069443
 20
84.959844292534711
 10
37.210476345486107
 20
84.959844292534711
 10
37.210476345486107
 20
84.959844292534711
 97
        0
 75
     2
 76
     1
 98
        1
 10
0.0
 20
0.0
  0
HATCH
  5
56
100
AcDbEntity
  8
LIVELLO_1
 62
     2
100
AcDbHatch
 10
0.0
 20
0.0
 30
0.0
210
0.0
220
0.0
230
1.0
  2
SOLID
 70
     1
 71
     0
 91
        9
 92
        1
 93
        1
 72
     4
 94
        3
 73
     0
 74
     0
 95
       17
 96
       13
 40
0.0
 40
0.0
 40
0.0
 40
0.0
 40
1.0
 40
1.0
 40
1.0
 40
2.0
 40
2.0
 40
2.0
 40
3.0
 40
3.0
 40
3.0
 40
4.0
 40
4.0
 40
4.0
 40
4.0
 10
20.46024983723958
 20
55.139270019531246
 10
20.461627875434026
 20
55.140648057725691
 10
20.464556206597219
 20
55.142026095920137
 10
20.465934244791665
 20
55.143576388888881
 10
20.465934244791665
 20
55.143576388888881
 10
28.16641167534722
 20
55.193702528211801
 10
28.16641167534722
 20
55.193702528211801
 10
28.16641167534722
 20
55.193702528211801
 10
28.198795572916666
 20
55.139270019531246
 10
28.198795572916666
 20
55.139270019531246
 10
28.198795572916666
 20
55.139270019531246
 10
20.46024983723958
 20
55.139270019531246
 10
20.46024983723958
 20
55.139270019531246
 97
        0
 92
        1
 93
        1
 72
     4
 94
        3
 73
     0
 74
     0
 95
       26
 96
       22
 40
0.0
 40
0.0
 40
0.0
 40
0.0
 40
1.0
 40
1.0
 40
1.0
 40
2.0
 40
2.0
 40
2.0
 40
3.0
 40
3.0
 40
3.0
 40
4.0
 40
4.0
 40
4.0
 40
5.0
 40
5.0
 40
5.0
 40
6.0
 40
6.0
 40
6.0
 40
7.0
 40
7.0
 40
7.0
 40
7.0
 10
9.0240831163194439
 20
55.139270019531246
 10
9.0240831163194439
 20
55.139270019531246
 10
9.0428588867187489
 20
55.153567165798606
 10
9.0428588867187489
 20
55.153567165798606
 10
9.0428588867187489
 20
55.153567165798606
 10
9.0506103515624989
 20
55.159251573350687
 10
9.0506103515624989
 20
55.159251573350687
 10
9.0506103515624989
 20
55.159251573350687
 10
9.0442369249131929
 20
55.15218912760416
 10
9.0442369249131929
 20
55.15218912760416
 10
9.0442369249131929
 20
55.15218912760416
 10
9.0428588867187489
 20
55.153567165798606
 10
9.0428588867187489
 20
55.153567165798606
 10
9.0428588867187489
 20
55.153567165798606
 10
9.0442369249131929
 20
55.15218912760416
 10
9.0442369249131929
 20
55.15218912760416
 10
9.0442369249131929
 20
55.15218912760416
 10
9.0356241861979161
 20
55.139270019531246
 10
9.0356241861979161
 20
55.139270019531246
 10
9.0356241861979161
 20
55.139270019531246
 10
9.0240831163194439
 20
55.139270019531246
 10
9.0240831163194439
 20
55.139270019531246
 97
        0
 92
        1
 93
        1
 72
     4
 94
        3
 73
     0
 74
     0
 95
       35
 96
       31
 40
0.0
 40
0.0
 40
0.0
 40
0.0
 40
1.0
 40
1.0
 40
1.0
 40
2.0
 40
2.0
 40
2.0
 40
3.0
 40
3.0
 40
3.0
 40
4.0
 40
4.0
 40
4.0
 40
5.0
 40
5.0
 40
5.0
 40
6.0
 40
6.0
 40
6.0
 40
7.0
 40
7.0
 40
7.0
 40
8.0
 40
8.0
 40
8.0
 40
9.0
 40
9.0
 40
9.0
 40
10.0
 40
10.0
 40
10.0
 40
10.0
 10
-8.9922159830729154
 20
55.139270019531246
 10
-8.9922159830729154
 20
55.139270019531246
 10
-9.0974636501736104
 20
55.212306043836797
 10
-9.0974636501736104
 20
55.212306043836797
 10
-9.0974636501736104
 20
55.212306043836797
 10
-8.9234863281249996
 20
55.139270019531246
 10
-8.9234863281249996
 20
55.139270019531246
 10
-8.9234863281249996
 20
55.139270019531246
 10
-8.8833509657118039
 20
55.206621636284716
 10
-8.8833509657118039
 20
55.206621636284716
 10
-8.8833509657118039
 20
55.206621636284716
 10
-8.9128065321180543
 20
55.219540744357637
 10
-8.9128065321180543
 20
55.219540744357637
 10
-8.9128065321180543
 20
55.219540744357637
 10
8.8099704318576375
 20
55.219540744357637
 10
8.8099704318576375
 20
55.219540744357637
 10
8.8099704318576375
 20
55.219540744357637
 10
8.7806871202256929
 20
55.206621636284716
 10
8.7806871202256929
 20
55.206621636284716
 10
8.7806871202256929
 20
55.206621636284716
 10
8.8056640625
 20
55.139270019531246
 10
8.8056640625
 20
55.139270019531246
 10
8.8056640625
 20
55.139270019531246
 10
8.9977281358506929
 20
55.219540744357637
 10
8.9977281358506929
 20
55.219540744357637
 10
8.9977281358506929
 20
55.219540744357637
 10
8.8873128255208318
 20
55.139270019531246
 10
8.8873128255208318
 20
55.139270019531246
 10
8.8873128255208318
 20
55.139270019531246
 10
-8.9922159830729154
 20
55.139270019531246
 10
-8.9922159830729154
 20
55.139270019531246
 97
        0
 92
        1
 93
        1
 72
     4
 94
        3
 73
     0
 74
     0
 95
       14
 96
       10
 40
0.0
 40
0.0
 40
0.0
 40
0.0
 40
1.0
 40
1.0
 40
1.0
 40
2.0
 40
2.0
 40
2.0
 40
3.0
 40
3.0
 40
3.0
 40
3.0
 10
-9.13897705078125
 20
55.139270019531246
 10
-9.13897705078125
 20
55.139270019531246
 10
-9.15327419704861
 20
55.159251573350687
 10
-9.15327419704861
 20
55.159251573350687
 10
-9.15327419704861
 20
55.159251573350687
 10
-9.1269192165798607
 20
55.139270019531246
 10
-9.1269192165798607
 20
55.139270019531246
 10
-9.1269192165798607
 20
55.139270019531246
 10
-9.13897705078125
 20
55.139270019531246
 10
-9.13897705078125
 20
55.139270019531246
 97
        0
 92
        1
 93
        1
 72
     4
 94
        3
 73
     0
 74
     0
 95
       80
 96
       76
 40
0.0
 40
0.0
 40
0.0
 40
0.0
 40
1.0
 40
1.0
 40
1.0
 40
2.0
 40
2.0
 40
2.0
 40
3.0
 40
3.0
 40
3.0
 40
4.0
 40
4.0
 40
4.0
 40
5.0
 40
5.0
 40
5.0
 40
6.0
 40
6.0
 40
6.0
 40
7.0
 40
7.0
 40
7.0
 40
8.0
 40
8.0
 40
8.0
 40
9.0
 40
9.0
 40
9.0
 40
10.0
 40
10.0
 40
10.0
 40
11.0
 40
11.0
 40
11.0
 40
12.0
 40
12.0
 40
12.0
 40
13.0
 40
13.0
 40
13.0
 40
14.0
 40
14.0
 40
14.0
 40
15.0
 40
15.0
 40
15.0
 40
16.0
 40
16.0
 40
16.0
 40
17.0
 40
17.0
 40
17.0
 40
18.0
 40
18.0
 40
18.0
 40
19.0
 40
19.0
 40
19.0
 40
20.0
 40
20.0
 40
20.0
 40
21.0
 40
21.0
 40
21.0
 40
22.0
 40
22.0
 40
22.0
 40
23.0
 40
23.0
 40
23.0
 40
24.0
 40
24.0
 40
24.0
 40
25.0
 40
25.0
 40
25.0
 40
25.0
 10
9.2941786024305539
 20
55.272422960069441
 10
9.2941786024305539
 20
55.272422960069441
 10
9.227516004774305
 20
55.282413736979159
 10
9.227516004774305
 20
55.282413736979159
 10
9.227516004774305
 20
55.282413736979159
 10
9.1823852539062489
 20
55.31979302300347
 10
9.1823852539062489
 20
55.31979302300347
 10
9.1823852539062489
 20
55.31979302300347
 10
9.1660210503472221
 20
55.365612792968747
 10
9.1660210503472221
 20
55.365612792968747
 10
9.1660210503472221
 20
55.365612792968747
 10
9.1753228081597218
 20
55.365612792968747
 10
9.1753228081597218
 20
55.365612792968747
 10
9.1753228081597218
 20
55.365612792968747
 10
9.1753228081597218
 20
55.431414116753466
 10
9.1753228081597218
 20
55.431414116753466
 10
9.1753228081597218
 20
55.431414116753466
 10
9.0828219943576389
 20
55.431414116753466
 10
9.0828219943576389
 20
55.431414116753466
 10
9.0828219943576389
 20
55.431414116753466
 10
9.0828219943576389
 20
55.641909450954856
 10
9.0828219943576389
 20
55.641909450954856
 10
9.0828219943576389
 20
55.641909450954856
 10
7.692036946614583
 20
55.641909450954856
 10
7.692036946614583
 20
55.641909450954856
 10
7.692036946614583
 20
55.641909450954856
 10
7.0510769314236104
 20
83.100526258680546
 10
7.0510769314236104
 20
83.100526258680546
 10
7.0510769314236104
 20
83.100526258680546
 10
6.9322211371527773
 20
83.100526258680546
 10
6.9322211371527773
 20
83.100526258680546
 10
6.9322211371527773
 20
83.100526258680546
 10
6.9322211371527773
 20
83.102076551649304
 10
6.9322211371527773
 20
83.102076551649304
 10
6.9322211371527773
 20
83.102076551649304
 10
7.1304863823784714
 20
83.124986436631943
 10
7.1304863823784714
 20
83.124986436631943
 10
7.1304863823784714
 20
83.124986436631943
 10
7.1304863823784714
 20
83.179418945312491
 10
7.1304863823784714
 20
83.179418945312491
 10
7.1304863823784714
 20
83.179418945312491
 10
11.71280788845486
 20
83.179418945312491
 10
11.71280788845486
 20
83.179418945312491
 10
11.71280788845486
 20
83.179418945312491
 10
12.085222710503471
 20
82.546210394965271
 10
12.085222710503471
 20
82.546210394965271
 10
12.092285156249998
 20
82.320039876302076
 10
12.097969563802081
 20
82.093697102864581
 10
12.104515245225693
 20
81.868732367621519
 10
12.104515245225693
 20
81.868732367621519
 10
9.4774576822916661
 20
56.921073404947911
 10
9.4774576822916661
 20
56.921073404947911
 10
9.3629082573784714
 20
56.441171603732634
 10
9.2454305013020832
 20
55.964370388454853
 10
9.1236463758680539
 20
55.484468587239576
 10
9.1236463758680539
 20
55.484468587239576
 10
9.5198323567708325
 20
55.37698160807291
 10
9.5198323567708325
 20
55.37698160807291
 10
11.749325900607637
 20
64.051387532552084
 10
12.743408203124998
 20
72.877722167968741
 10
12.516376410590278
 20
81.81429985894097
 10
12.516376410590278
 20
81.81429985894097
 10
23.948064507378469
 20
62.368458387586799
 10
23.948064507378469
 20
62.368458387586799
 10
23.948064507378469
 20
62.368458387586799
 10
20.44595269097222
 20
55.853955078124997
 10
20.44595269097222
 20
55.853955078124997
 10
20.44595269097222
 20
55.853955078124997
 10
19.993956163194444
 20
55.308251953124994
 10
19.993956163194444
 20
55.308251953124994
 10
19.977591959635415
 20
55.296710883246526
 10
19.963122558593749
 20
55.28396402994791
 10
19.946758355034721
 20
55.272422960069441
 10
19.946758355034721
 20
55.272422960069441
 10
9.2941786024305539
 20
55.272422960069441
 10
9.2941786024305539
 20
55.272422960069441
 97
        0
 92
        1
 93
        1
 72
     4
 94
        3
 73
     0
 74
     0
 95
       35
 96
       31
 40
0.0
 40
0.0
 40
0.0
 40
0.0
 40
1.0
 40
1.0
 40
1.0
 40
2.0
 40
2.0
 40
2.0
 40
3.0
 40
3.0
 40
3.0
 40
4.0
 40
4.0
 40
4.0
 40
5.0
 40
5.0
 40
5.0
 40
6.0
 40
6.0
 40
6.0
 40
7.0
 40
7.0
 40
7.0
 40
8.0
 40
8.0
 40
8.0
 40
9.0
 40
9.0
 40
9.0
 40
10.0
 40
10.0
 40
10.0
 40
10.0
 10
-20.050111219618053
 20
55.272422960069441
 10
-20.155358886718748
 20
55.351143391927081
 10
-20.25991753472222
 20
55.43003607855902
 10
-20.363787163628469
 20
55.50875651041666
 10
-20.363787163628469
 20
55.50875651041666
 10
-24.356480577256942
 20
62.938449435763886
 10
-24.356480577256942
 20
62.938449435763886
 10
-24.356480577256942
 20
62.938449435763886
 10
-12.632648383246528
 20
81.169722493489573
 10
-12.632648383246528
 20
81.169722493489573
 10
-12.79801296657986
 20
72.453803168402771
 10
-11.799624294704859
 20
63.843820529513884
 10
-9.6345540364583329
 20
55.37698160807291
 10
-9.6345540364583329
 20
55.37698160807291
 10
-9.4247477213541657
 20
55.432792154947911
 10
-9.4247477213541657
 20
55.432792154947911
 10
-9.4247477213541657
 20
55.432792154947911
 10
-9.4233696831597218
 20
55.432792154947911
 10
-9.4233696831597218
 20
55.431414116753466
 10
-9.4233696831597218
 20
55.431414116753466
 10
-9.4233696831597218
 20
55.432792154947911
 10
-9.4233696831597218
 20
55.432792154947911
 10
-9.4233696831597218
 20
55.432792154947911
 10
-9.4233696831597218
 20
55.431414116753466
 10
-9.4233696831597218
 20
55.431414116753466
 10
-9.4233696831597218
 20
55.431414116753466
 10
-9.4233696831597218
 20
55.272422960069441
 10
-9.4233696831597218
 20
55.272422960069441
 10
-9.4233696831597218
 20
55.272422960069441
 10
-20.050111219618053
 20
55.272422960069441
 10
-20.050111219618053
 20
55.272422960069441
 97
        0
 92
        1
 93
        1
 72
     4
 94
        3
 73
     0
 74
     0
 95
       59
 96
       55
 40
0.0
 40
0.0
 40
0.0
 40
0.0
 40
1.0
 40
1.0
 40
1.0
 40
2.0
 40
2.0
 40
2.0
 40
3.0
 40
3.0
 40
3.0
 40
4.0
 40
4.0
 40
4.0
 40
5.0
 40
5.0
 40
5.0
 40
6.0
 40
6.0
 40
6.0
 40
7.0
 40
7.0
 40
7.0
 40
8.0
 40
8.0
 40
8.0
 40
9.0
 40
9.0
 40
9.0
 40
10.0
 40
10.0
 40
10.0
 40
11.0
 40
11.0
 40
11.0
 40
12.0
 40
12.0
 40
12.0
 40
13.0
 40
13.0
 40
13.0
 40
14.0
 40
14.0
 40
14.0
 40
15.0
 40
15.0
 40
15.0
 40
16.0
 40
16.0
 40
16.0
 40
17.0
 40
17.0
 40
17.0
 40
18.0
 40
18.0
 40
18.0
 40
18.0
 10
-7.5440700954861102
 20
55.641909450954856
 10
-7.5440700954861102
 20
55.641909450954856
 10
-6.9167182074652773
 20
83.083473036024301
 10
-6.9167182074652773
 20
83.083473036024301
 10
-6.9167182074652773
 20
83.083473036024301
 10
-6.8371365017361105
 20
83.073310004340271
 10
-6.8371365017361105
 20
83.073310004340271
 10
-6.8371365017361105
 20
83.073310004340271
 10
-6.8314520941840273
 20
83.100526258680546
 10
-6.8314520941840273
 20
83.100526258680546
 10
-6.8314520941840273
 20
83.100526258680546
 10
-6.827145724826388
 20
83.116373697916657
 10
-6.827145724826388
 20
83.116373697916657
 10
-6.827145724826388
 20
83.116373697916657
 10
-6.8228393554687496
 20
83.113445366753467
 10
-6.8228393554687496
 20
83.113445366753467
 10
-6.8228393554687496
 20
83.113445366753467
 10
-6.793556043836805
 20
83.165121799045124
 10
-6.793556043836805
 20
83.165121799045124
 10
-6.793556043836805
 20
83.165121799045124
 10
-6.7756415473090268
 20
83.177868652343747
 10
-6.7756415473090268
 20
83.177868652343747
 10
-6.7756415473090268
 20
83.177868652343747
 10
-6.7699571397569436
 20
83.179418945312491
 10
-6.7699571397569436
 20
83.179418945312491
 10
-6.7699571397569436
 20
83.179418945312491
 10
-6.7182807074652775
 20
83.179418945312491
 10
-6.7182807074652775
 20
83.179418945312491
 10
-6.7182807074652775
 20
83.179418945312491
 10
6.6006306966145827
 20
83.179418945312491
 10
6.6006306966145827
 20
83.179418945312491
 10
6.6006306966145827
 20
83.179418945312491
 10
6.6607476128472216
 20
83.179418945312491
 10
6.6607476128472216
 20
83.179418945312491
 10
6.6607476128472216
 20
83.179418945312491
 10
6.6729777018229157
 20
83.175112575954856
 10
6.6729777018229157
 20
83.175112575954856
 10
6.6729777018229157
 20
83.175112575954856
 10
6.7008829752604164
 20
83.144967990451377
 10
6.7008829752604164
 20
83.144967990451377
 10
6.7008829752604164
 20
83.144967990451377
 10
6.710873752170138
 20
83.12774251302082
 10
6.710873752170138
 20
83.12774251302082
 10
6.710873752170138
 20
83.12774251302082
 10
6.7194864908854157
 20
83.073310004340271
 10
6.7194864908854157
 20
83.073310004340271
 10
6.7194864908854157
 20
83.073310004340271
 10
6.8004462348090273
 20
83.083473036024301
 10
6.8004462348090273
 20
83.083473036024301
 10
6.8004462348090273
 20
83.083473036024301
 10
7.4414062499999991
 20
55.641909450954856
 10
7.4414062499999991
 20
55.641909450954856
 10
7.4414062499999991
 20
55.641909450954856
 10
-7.5440700954861102
 20
55.641909450954856
 10
-7.5440700954861102
 20
55.641909450954856
 97
        0
 92
        1
 93
        1
 72
     4
 94
        3
 73
     0
 74
     0
 95
       32
 96
       28
 40
0.0
 40
0.0
 40
0.0
 40
0.0
 40
1.0
 40
1.0
 40
1.0
 40
2.0
 40
2.0
 40
2.0
 40
3.0
 40
3.0
 40
3.0
 40
4.0
 40
4.0
 40
4.0
 40
5.0
 40
5.0
 40
5.0
 40
6.0
 40
6.0
 40
6.0
 40
7.0
 40
7.0
 40
7.0
 40
8.0
 40
8.0
 40
8.0
 40
9.0
 40
9.0
 40
9.0
 40
9.0
 10
-9.265067545572915
 20
55.641909450954856
 10
-9.3732435438368054
 20
56.063072374131941
 10
-9.4778021918402775
 20
56.485613335503466
 10
-9.5787434895833332
 20
56.908154296874997
 10
-9.5787434895833332
 20
56.908154296874997
 10
-12.204250759548611
 20
81.835831705729163
 10
-12.204250759548611
 20
81.835831705729163
 10
-12.204250759548611
 20
81.835831705729163
 10
-11.340565321180554
 20
83.179418945312491
 10
-11.340565321180554
 20
83.179418945312491
 10
-11.340565321180554
 20
83.179418945312491
 10
-7.2376288519965275
 20
83.179418945312491
 10
-7.2376288519965275
 20
83.179418945312491
 10
-7.2376288519965275
 20
83.179418945312491
 10
-7.2453803168402775
 20
83.124986436631943
 10
-7.2453803168402775
 20
83.124986436631943
 10
-7.2453803168402775
 20
83.124986436631943
 10
-7.0412584092881936
 20
83.100526258680546
 10
-7.0412584092881936
 20
83.100526258680546
 10
-7.0412584092881936
 20
83.100526258680546
 10
-7.1659708658854164
 20
83.100526258680546
 10
-7.1659708658854164
 20
83.100526258680546
 10
-7.1659708658854164
 20
83.100526258680546
 10
-7.7953898111979161
 20
55.641909450954856
 10
-7.7953898111979161
 20
55.641909450954856
 10
-7.7953898111979161
 20
55.641909450954856
 10
-9.265067545572915
 20
55.641909450954856
 10
-9.265067545572915
 20
55.641909450954856
 97
        0
 92
        1
 93
        1
 72
     4
 94
        3
 73
     0
 74
     0
 95
       14
 96
       10
 40
0.0
 40
0.0
 40
0.0
 40
0.0
 40
1.0
 40
1.0
 40
1.0
 40
2.0
 40
2.0
 40
2.0
 40
3.0
 40
3.0
 40
3.0
 40
3.0
 10
6.9249864366319436
 20
83.100526258680546
 10
6.9249864366319436
 20
83.100526258680546
 10
6.9322211371527773
 20
83.102076551649304
 10
6.9322211371527773
 20
83.102076551649304
 10
6.9322211371527773
 20
83.102076551649304
 10
6.9322211371527773
 20
83.100526258680546
 10
6.9322211371527773
 20
83.100526258680546
 10
6.9322211371527773
 20
83.100526258680546
 10
6.9249864366319436
 20
83.100526258680546
 10
6.9249864366319436
 20
83.100526258680546
 97
        0
 75
     2
 76
     1
 98
        1
 10
0.0
 20
0.0
  0
SPLINE
  5
55
100
AcDbEntity
  8
LIVELLO_1
 62
     7
100
AcDbSpline
210
0.0
220
0.0
230
1.0
 70
     8
 71
     3
 72
    14
 73
    10
 74
     0
 42
0.00000001
 43
0.00000001
 40
0.0
 40
0.0
 40
0.0
 40
0.0
 40
1.0
 40
1.0
 40
1.0
 40
2.0
 40
2.0
 40
2.0
 40
3.0
 40
3.0
 40
3.0
 40
3.0
 10
-29.369783528645829
 20
55.139270019531246
 30
0.0
 10
-29.369783528645829
 20
55.139270019531246
 30
0.0
 10
-26.074032931857637
 20
60.267122395833326
 30
0.0
 10
-26.074032931857637
 20
60.267122395833326
 30
0.0
 10
-24.425382486979164
 20
58.395057508680551
 30
0.0
 10
-22.583289930555555
 20
56.674749077690969
 30
0.0
 10
-20.562913682725693
 20
55.139270019531246
 30
0.0
 10
-20.562913682725693
 20
55.139270019531246
 30
0.0
 10
-29.369783528645829
 20
55.139270019531246
 30
0.0
 10
-29.369783528645829
 20
55.139270019531246
 30
0.0
  0
SPLINE
  5
54
100
AcDbEntity
  8
LIVELLO_1
 62
     7
100
AcDbSpline
210
0.0
220
0.0
230
1.0
 70
     8
 71
     3
 72
    14
 73
    10
 74
     0
 42
0.00000001
 43
0.00000001
 40
0.0
 40
0.0
 40
0.0
 40
0.0
 40
1.0
 40
1.0
 40
1.0
 40
2.0
 40
2.0
 40
2.0
 40
3.0
 40
3.0
 40
3.0
 40
3.0
 10
20.44595269097222
 20
55.853955078124997
 30
0.0
 10
20.44595269097222
 20
55.853955078124997
 30
0.0
 10
20.260434299045137
 20
55.50875651041666
 30
0.0
 10
20.260434299045137
 20
55.50875651041666
 30
0.0
 10
20.171550835503471
 20
55.44140489366319
 30
0.0
 10
20.082150607638887
 20
55.374225531684026
 30
0.0
 10
19.993956163194444
 20
55.308251953124994
 30
0.0
 10
19.993956163194444
 20
55.308251953124994
 30
0.0
 10
20.44595269097222
 20
55.853955078124997
 30
0.0
 10
20.44595269097222
 20
55.853955078124997
 30
0.0
  0
SPLINE
  5
53
100
AcDbEntity
  8
LIVELLO_1
 62
     7
100
AcDbSpline
210
0.0
220
0.0
230
1.0
 70
     8
 71
     3
 72
    14
 73
    10
 74
     0
 42
0.00000001
 43
0.00000001
 40
0.0
 40
0.0
 40
0.0
 40
0.0
 40
1.0
 40
1.0
 40
1.0
 40
2.0
 40
2.0
 40
2.0
 40
3.0
 40
3.0
 40
3.0
 40
3.0
 10
25.495773654513886
 20
59.737094455295136
 30
0.0
 10
25.495773654513886
 20
59.737094455295136
 30
0.0
 10
28.16641167534722
 20
55.193702528211801
 30
0.0
 10
28.16641167534722
 20
55.193702528211801
 30
0.0
 10
28.16641167534722
 20
55.193702528211801
 30
0.0
 10
20.465934244791665
 20
55.143576388888881
 30
0.0
 10
20.465934244791665
 20
55.143576388888881
 30
0.0
 10
22.29080132378472
 20
56.532983398437494
 30
0.0
 10
23.97166341145833
 20
58.069840494791663
 30
0.0
 10
25.495773654513886
 20
59.737094455295136
 30
0.0
  0
HATCH
  5
52
100
AcDbEntity
  8
LIVELLO_1
 62
   253
100
AcDbHatch
 10
0.0
 20
0.0
 30
0.0
210
0.0
220
0.0
230
1.0
  2
SOLID
 70
     1
 71
     0
 91
        1
 92
        1
 93
        1
 72
     4
 94
        3
 73
     0
 74
     0
 95
       20
 96
       16
 40
0.0
 40
0.0
 40
0.0
 40
0.0
 40
1.0
 40
1.0
 40
1.0
 40
2.0
 40
2.0
 40
2.0
 40
3.0
 40
3.0
 40
3.0
 40
4.0
 40
4.0
 40
4.0
 40
5.0
 40
5.0
 40
5.0
 40
5.0
 10
9.2733357747395821
 20
55.139270019531246
 10
9.2733357747395821
 20
55.139270019531246
 10
9.2941786024305539
 20
55.272422960069441
 10
9.2941786024305539
 20
55.272422960069441
 10
9.2941786024305539
 20
55.272422960069441
 10
19.946758355034721
 20
55.272422960069441
 10
19.946758355034721
 20
55.272422960069441
 10
19.929532877604164
 20
55.25950385199652
 10
19.912996419270833
 20
55.246756998697911
 10
19.893703884548611
 20
55.233837890624997
 10
19.893703884548611
 20
55.233837890624997
 10
19.964672851562497
 20
55.139270019531246
 10
19.964672851562497
 20
55.139270019531246
 10
19.964672851562497
 20
55.139270019531246
 10
9.2733357747395821
 20
55.139270019531246
 10
9.2733357747395821
 20
55.139270019531246
 97
        0
 75
     2
 76
     1
 98
        1
 10
0.0
 20
0.0
  0
HATCH
  5
51
100
AcDbEntity
  8
LIVELLO_1
 62
   253
100
AcDbHatch
 10
0.0
 20
0.0
 30
0.0
210
0.0
220
0.0
230
1.0
  2
SOLID
 70
     1
 71
     0
 91
        2
 92
        1
 93
        1
 72
     4
 94
        3
 73
     0
 74
     0
 95
       23
 96
       19
 40
0.0
 40
0.0
 40
0.0
 40
0.0
 40
1.0
 40
1.0
 40
1.0
 40
2.0
 40
2.0
 40
2.0
 40
3.0
 40
3.0
 40
3.0
 40
4.0
 40
4.0
 40
4.0
 40
5.0
 40
5.0
 40
5.0
 40
6.0
 40
6.0
 40
6.0
 40
6.0
 10
7.4414062499999991
 20
55.641909450954856
 10
7.4414062499999991
 20
55.641909450954856
 10
6.8004462348090273
 20
83.083473036024301
 10
6.8004462348090273
 20
83.083473036024301
 10
6.8004462348090273
 20
83.083473036024301
 10
6.9249864366319436
 20
83.100526258680546
 10
6.9249864366319436
 20
83.100526258680546
 10
6.9249864366319436
 20
83.100526258680546
 10
6.9322211371527773
 20
83.100526258680546
 10
6.9322211371527773
 20
83.100526258680546
 10
6.9322211371527773
 20
83.100526258680546
 10
7.0510769314236104
 20
83.100526258680546
 10
7.0510769314236104
 20
83.100526258680546
 10
7.0510769314236104
 20
83.100526258680546
 10
7.692036946614583
 20
55.641909450954856
 10
7.692036946614583
 20
55.641909450954856
 10
7.692036946614583
 20
55.641909450954856
 10
7.4414062499999991
 20
55.641909450954856
 10
7.4414062499999991
 20
55.641909450954856
 97
        0
 92
        1
 93
        1
 72
     4
 94
        3
 73
     0
 74
     0
 95
       20
 96
       16
 40
0.0
 40
0.0
 40
0.0
 40
0.0
 40
1.0
 40
1.0
 40
1.0
 40
2.0
 40
2.0
 40
2.0
 40
3.0
 40
3.0
 40
3.0
 40
4.0
 40
4.0
 40
4.0
 40
5.0
 40
5.0
 40
5.0
 40
5.0
 10
-7.7953898111979161
 20
55.641909450954856
 10
-7.7953898111979161
 20
55.641909450954856
 10
-7.1659708658854164
 20
83.100526258680546
 10
-7.1659708658854164
 20
83.100526258680546
 10
-7.1659708658854164
 20
83.100526258680546
 10
-7.0412584092881936
 20
83.100526258680546
 10
-7.0412584092881936
 20
83.100526258680546
 10
-7.0412584092881936
 20
83.100526258680546
 10
-6.9167182074652773
 20
83.083473036024301
 10
-6.9167182074652773
 20
83.083473036024301
 10
-6.9167182074652773
 20
83.083473036024301
 10
-7.5440700954861102
 20
55.641909450954856
 10
-7.5440700954861102
 20
55.641909450954856
 10
-7.5440700954861102
 20
55.641909450954856
 10
-7.7953898111979161
 20
55.641909450954856
 10
-7.7953898111979161
 20
55.641909450954856
 97
        0
 75
     2
 76
     1
 98
        1
 10
0.0
 20
0.0
  0
HATCH
  5
50
100
AcDbEntity
  8
LIVELLO_1
 62
   255
100
AcDbHatch
 10
0.0
 20
0.0
 30
0.0
210
0.0
220
0.0
230
1.0
  2
SOLID
 70
     1
 71
     0
 91
        8
 92
        1
 93
        1
 72
     4
 94
        3
 73
     0
 74
     0
 95
       11
 96
        7
 40
0.0
 40
0.0
 40
0.0
 40
0.0
 40
1.0
 40
1.0
 40
1.0
 40
2.0
 40
2.0
 40
2.0
 40
2.0
 10
9.0428588867187489
 20
55.153567165798606
 10
9.0428588867187489
 20
55.153567165798606
 10
9.0442369249131929
 20
55.15218912760416
 10
9.0442369249131929
 20
55.15218912760416
 10
9.0442369249131929
 20
55.15218912760416
 10
9.0428588867187489
 20
55.153567165798606
 10
9.0428588867187489
 20
55.153567165798606
 97
        0
 92
        1
 93
        1
 72
     4
 94
        3
 73
     0
 74
     0
 95
        8
 96
        4
 40
0.0
 40
0.0
 40
0.0
 40
0.0
 40
1.0
 40
1.0
 40
1.0
 40
1.0
 10
9.0428588867187489
 20
55.153567165798606
 10
9.0428588867187489
 20
55.153567165798606
 10
9.0428588867187489
 20
55.153567165798606
 10
9.0428588867187489
 20
55.153567165798606
 97
        0
 92
        1
 93
        1
 72
     4
 94
        3
 73
     0
 74
     0
 95
       14
 96
       10
 40
0.0
 40
0.0
 40
0.0
 40
0.0
 40
1.0
 40
1.0
 40
1.0
 40
2.0
 40
2.0
 40
2.0
 40
3.0
 40
3.0
 40
3.0
 40
3.0
 10
-9.4247477213541657
 20
55.432792154947911
 10
-9.4247477213541657
 20
55.432792154947911
 10
-9.4233696831597218
 20
55.432792154947911
 10
-9.4233696831597218
 20
55.432792154947911
 10
-9.4233696831597218
 20
55.432792154947911
 10
-9.4233696831597218
 20
55.431414116753466
 10
-9.4233696831597218
 20
55.431414116753466
 10
-9.4233696831597218
 20
55.432792154947911
 10
-9.4247477213541657
 20
55.432792154947911
 10
-9.4247477213541657
 20
55.432792154947911
 97
        0
 92
        1
 93
        1
 72
     4
 94
        3
 73
     0
 74
     0
 95
       14
 96
       10
 40
0.0
 40
0.0
 40
0.0
 40
0.0
 40
1.0
 40
1.0
 40
1.0
 40
2.0
 40
2.0
 40
2.0
 40
3.0
 40
3.0
 40
3.0
 40
3.0
 10
-25.840455457899303
 20
60.62954644097222
 10
-25.840455457899303
 20
60.62954644097222
 10
-24.356480577256942
 20
62.938449435763886
 10
-24.356480577256942
 20
62.938449435763886
 10
-24.356480577256942
 20
62.938449435763886
 10
-20.363787163628469
 20
55.50875651041666
 10
-20.363787163628469
 20
55.50875651041666
 10
-22.371933322482636
 20
57.041479492187491
 10
-24.204035101996524
 20
58.76023763020833
 10
-25.840455457899303
 20
60.62954644097222
 97
        0
 92
        1
 93
        1
 72
     4
 94
        3
 73
     0
 74
     0
 95
       14
 96
       10
 40
0.0
 40
0.0
 40
0.0
 40
0.0
 40
1.0
 40
1.0
 40
1.0
 40
2.0
 40
2.0
 40
2.0
 40
3.0
 40
3.0
 40
3.0
 40
3.0
 10
23.948064507378469
 20
62.368458387586799
 10
23.948064507378469
 20
62.368458387586799
 10
25.275804307725693
 20
60.111059570312491
 10
25.275804307725693
 20
60.111059570312491
 10
23.758928765190969
 20
58.442255316840274
 10
22.082373046874999
 20
56.899713812934024
 10
20.260434299045137
 20
55.50875651041666
 10
20.260434299045137
 20
55.50875651041666
 10
23.948064507378469
 20
62.368458387586799
 10
23.948064507378469
 20
62.368458387586799
 97
        0
 92
        1
 93
        1
 72
     4
 94
        3
 73
     0
 74
     0
 95
       14
 96
       10
 40
0.0
 40
0.0
 40
0.0
 40
0.0
 40
1.0
 40
1.0
 40
1.0
 40
2.0
 40
2.0
 40
2.0
 40
3.0
 40
3.0
 40
3.0
 40
3.0
 10
-12.208557128906248
 20
81.830147298177081
 10
-12.208557128906248
 20
81.830147298177081
 10
-12.204250759548611
 20
81.835831705729163
 10
-12.204250759548611
 20
81.835831705729163
 10
-12.204250759548611
 20
81.835831705729163
 10
-9.5787434895833332
 20
56.908154296874997
 10
-9.5787434895833332
 20
56.908154296874997
 10
-11.550371636284721
 20
65.092839898003461
 10
-12.426976182725694
 20
73.412056477864581
 10
-12.208557128906248
 20
81.830147298177081
 97
        0
 92
        1
 93
        1
 72
     4
 94
        3
 73
     0
 74
     0
 95
       11
 96
        7
 40
0.0
 40
0.0
 40
0.0
 40
0.0
 40
1.0
 40
1.0
 40
1.0
 40
2.0
 40
2.0
 40
2.0
 40
2.0
 10
12.104515245225693
 20
81.868732367621519
 10
12.325862630208333
 20
73.444957139756937
 10
11.441334364149304
 20
65.114199490017356
 10
9.4774576822916661
 20
56.921073404947911
 10
9.4774576822916661
 20
56.921073404947911
 10
12.104515245225693
 20
81.868732367621519
 10
12.104515245225693
 20
81.868732367621519
 97
        0
 92
        1
 93
        1
 72
     4
 94
        3
 73
     0
 74
     0
 95
       11
 96
        7
 40
0.0
 40
0.0
 40
0.0
 40
0.0
 40
1.0
 40
1.0
 40
1.0
 40
2.0
 40
2.0
 40
2.0
 40
2.0
 10
6.9322211371527773
 20
83.102076551649304
 10
6.9322211371527773
 20
83.102076551649304
 10
6.9322211371527773
 20
83.100526258680546
 10
6.9322211371527773
 20
83.100526258680546
 10
6.9322211371527773
 20
83.100526258680546
 10
6.9322211371527773
 20
83.102076551649304
 10
6.9322211371527773
 20
83.102076551649304
 97
        0
 75
     2
 76
     1
 98
        1
 10
0.0
 20
0.0
  0
HATCH
  5
4F
100
AcDbEntity
  8
LIVELLO_1
 62
   253
100
AcDbHatch
 10
0.0
 20
0.0
 30
0.0
210
0.0
220
0.0
230
1.0
  2
SOLID
 70
     1
 71
     0
 91
        4
 92
        1
 93
        1
 72
     4
 94
        3
 73
     0
 74
     0
 95
       20
 96
       16
 40
0.0
 40
0.0
 40
0.0
 40
0.0
 40
1.0
 40
1.0
 40
1.0
 40
2.0
 40
2.0
 40
2.0
 40
3.0
 40
3.0
 40
3.0
 40
4.0
 40
4.0
 40
4.0
 40
5.0
 40
5.0
 40
5.0
 40
5.0
 10
19.964672851562497
 20
55.139270019531246
 10
19.964672851562497
 20
55.139270019531246
 10
19.893703884548611
 20
55.233837890624997
 10
19.893703884548611
 20
55.233837890624997
 10
21.858269585503471
 20
56.696280924479161
 10
23.657987467447914
 20
58.330634223090271
 10
25.275804307725693
 20
60.111059570312491
 10
25.275804307725693
 20
60.111059570312491
 10
25.495773654513886
 20
59.737094455295136
 10
25.495773654513886
 20
59.737094455295136
 10
23.970285373263888
 20
58.068462456597217
 10
22.287872992621526
 20
56.530055067274297
 10
20.46024983723958
 20
55.139270019531246
 10
20.46024983723958
 20
55.139270019531246
 10
19.964672851562497
 20
55.139270019531246
 10
19.964672851562497
 20
55.139270019531246
 97
        0
 92
        1
 93
        1
 72
     4
 94
        3
 73
     0
 74
     0
 95
      110
 96
      106
 40
0.0
 40
0.0
 40
0.0
 40
0.0
 40
1.0
 40
1.0
 40
1.0
 40
2.0
 40
2.0
 40
2.0
 40
3.0
 40
3.0
 40
3.0
 40
4.0
 40
4.0
 40
4.0
 40
5.0
 40
5.0
 40
5.0
 40
6.0
 40
6.0
 40
6.0
 40
7.0
 40
7.0
 40
7.0
 40
8.0
 40
8.0
 40
8.0
 40
9.0
 40
9.0
 40
9.0
 40
10.0
 40
10.0
 40
10.0
 40
11.0
 40
11.0
 40
11.0
 40
12.0
 40
12.0
 40
12.0
 40
13.0
 40
13.0
 40
13.0
 40
14.0
 40
14.0
 40
14.0
 40
15.0
 40
15.0
 40
15.0
 40
16.0
 40
16.0
 40
16.0
 40
17.0
 40
17.0
 40
17.0
 40
18.0
 40
18.0
 40
18.0
 40
19.0
 40
19.0
 40
19.0
 40
20.0
 40
20.0
 40
20.0
 40
21.0
 40
21.0
 40
21.0
 40
22.0
 40
22.0
 40
22.0
 40
23.0
 40
23.0
 40
23.0
 40
24.0
 40
24.0
 40
24.0
 40
25.0
 40
25.0
 40
25.0
 40
26.0
 40
26.0
 40
26.0
 40
27.0
 40
27.0
 40
27.0
 40
28.0
 40
28.0
 40
28.0
 40
29.0
 40
29.0
 40
29.0
 40
30.0
 40
30.0
 40
30.0
 40
31.0
 40
31.0
 40
31.0
 40
32.0
 40
32.0
 40
32.0
 40
33.0
 40
33.0
 40
33.0
 40
34.0
 40
34.0
 40
34.0
 40
35.0
 40
35.0
 40
35.0
 40
35.0
 10
9.0356241861979161
 20
55.139270019531246
 10
9.0356241861979161
 20
55.139270019531246
 10
9.0506103515624989
 20
55.159251573350687
 10
9.0506103515624989
 20
55.159251573350687
 10
9.0506103515624989
 20
55.159251573350687
 10
9.0240831163194439
 20
55.139270019531246
 10
9.0240831163194439
 20
55.139270019531246
 10
9.0240831163194439
 20
55.139270019531246
 10
8.8873128255208318
 20
55.139270019531246
 10
8.8873128255208318
 20
55.139270019531246
 10
8.8873128255208318
 20
55.139270019531246
 10
8.9977281358506929
 20
55.219540744357637
 10
8.9977281358506929
 20
55.219540744357637
 10
8.9977281358506929
 20
55.219540744357637
 10
8.8056640625
 20
55.139270019531246
 10
8.8056640625
 20
55.139270019531246
 10
8.8056640625
 20
55.139270019531246
 10
8.7806871202256929
 20
55.206621636284716
 10
8.7806871202256929
 20
55.206621636284716
 10
8.7806871202256929
 20
55.206621636284716
 10
8.8099704318576375
 20
55.219540744357637
 10
8.8099704318576375
 20
55.219540744357637
 10
8.8099704318576375
 20
55.219540744357637
 10
-8.9128065321180543
 20
55.219540744357637
 10
-8.9128065321180543
 20
55.219540744357637
 10
-8.9128065321180543
 20
55.219540744357637
 10
-8.8833509657118039
 20
55.206621636284716
 10
-8.8833509657118039
 20
55.206621636284716
 10
-8.8833509657118039
 20
55.206621636284716
 10
-8.9234863281249996
 20
55.139270019531246
 10
-8.9234863281249996
 20
55.139270019531246
 10
-8.9234863281249996
 20
55.139270019531246
 10
-9.0974636501736104
 20
55.212306043836797
 10
-9.0974636501736104
 20
55.212306043836797
 10
-9.0974636501736104
 20
55.212306043836797
 10
-8.9922159830729154
 20
55.139270019531246
 10
-8.9922159830729154
 20
55.139270019531246
 10
-8.9922159830729154
 20
55.139270019531246
 10
-9.1269192165798607
 20
55.139270019531246
 10
-9.1269192165798607
 20
55.139270019531246
 10
-9.1269192165798607
 20
55.139270019531246
 10
-9.15327419704861
 20
55.159251573350687
 10
-9.15327419704861
 20
55.159251573350687
 10
-9.15327419704861
 20
55.159251573350687
 10
-9.13897705078125
 20
55.139270019531246
 10
-9.13897705078125
 20
55.139270019531246
 10
-9.13897705078125
 20
55.139270019531246
 10
-20.562913682725693
 20
55.139270019531246
 10
-20.562913682725693
 20
55.139270019531246
 10
-22.583289930555555
 20
56.674749077690969
 10
-24.425382486979164
 20
58.395057508680551
 10
-26.074032931857637
 20
60.267122395833326
 10
-26.074032931857637
 20
60.267122395833326
 10
-25.840455457899303
 20
60.62954644097222
 10
-25.840455457899303
 20
60.62954644097222
 10
-24.118768988715274
 20
58.664291720920133
 10
-22.18228081597222
 20
56.86526285807291
 10
-20.050111219618053
 20
55.272422960069441
 10
-20.050111219618053
 20
55.272422960069441
 10
-9.4233696831597218
 20
55.272422960069441
 10
-9.4233696831597218
 20
55.272422960069441
 10
-9.4233696831597218
 20
55.272422960069441
 10
-9.4233696831597218
 20
55.432792154947911
 10
-9.4233696831597218
 20
55.432792154947911
 10
-9.4233696831597218
 20
55.432792154947911
 10
-9.6345540364583329
 20
55.37698160807291
 10
-9.6345540364583329
 20
55.37698160807291
 10
-11.799624294704859
 20
63.843820529513884
 10
-12.79801296657986
 20
72.453803168402771
 10
-12.632648383246528
 20
81.169722493489573
 10
-12.632648383246528
 20
81.169722493489573
 10
-12.208557128906248
 20
81.830147298177081
 10
-12.208557128906248
 20
81.830147298177081
 10
-12.439206271701387
 20
72.977974446614581
 10
-11.458043077256944
 20
64.233288574218747
 10
-9.265067545572915
 20
55.641909450954856
 10
-9.265067545572915
 20
55.641909450954856
 10
9.0828219943576389
 20
55.641909450954856
 10
9.0828219943576389
 20
55.641909450954856
 10
9.0828219943576389
 20
55.641909450954856
 10
9.0828219943576389
 20
55.431414116753466
 10
9.0828219943576389
 20
55.431414116753466
 10
9.0828219943576389
 20
55.431414116753466
 10
9.1753228081597218
 20
55.431414116753466
 10
9.1753228081597218
 20
55.431414116753466
 10
9.1753228081597218
 20
55.431414116753466
 10
9.1753228081597218
 20
55.365612792968747
 10
9.1753228081597218
 20
55.365612792968747
 10
9.1753228081597218
 20
55.365612792968747
 10
9.1660210503472221
 20
55.365612792968747
 10
9.1660210503472221
 20
55.365612792968747
 10
9.1660210503472221
 20
55.365612792968747
 10
9.1823852539062489
 20
55.31979302300347
 10
9.1823852539062489
 20
55.31979302300347
 10
9.1823852539062489
 20
55.31979302300347
 10
9.227516004774305
 20
55.282413736979159
 10
9.227516004774305
 20
55.282413736979159
 10
9.227516004774305
 20
55.282413736979159
 10
9.2941786024305539
 20
55.272422960069441
 10
9.2941786024305539
 20
55.272422960069441
 10
9.2941786024305539
 20
55.272422960069441
 10
9.2733357747395821
 20
55.139270019531246
 10
9.2733357747395821
 20
55.139270019531246
 10
9.2733357747395821
 20
55.139270019531246
 10
9.0356241861979161
 20
55.139270019531246
 10
9.0356241861979161
 20
55.139270019531246
 97
        0
 92
        1
 93
        1
 72
     4
 94
        3
 73
     0
 74
     0
 95
       17
 96
       13
 40
0.0
 40
0.0
 40
0.0
 40
0.0
 40
1.0
 40
1.0
 40
1.0
 40
2.0
 40
2.0
 40
2.0
 40
3.0
 40
3.0
 40
3.0
 40
4.0
 40
4.0
 40
4.0
 40
4.0
 10
9.1236463758680539
 20
55.484468587239576
 10
11.389657931857638
 20
64.35800103081597
 10
12.388735622829859
 20
73.39620903862847
 10
12.085222710503471
 20
82.546210394965271
 10
12.085222710503471
 20
82.546210394965271
 10
12.516376410590278
 20
81.81429985894097
 10
12.516376410590278
 20
81.81429985894097
 10
12.743408203124998
 20
72.877722167968741
 10
11.749325900607637
 20
64.051387532552084
 10
9.5198323567708325
 20
55.37698160807291
 10
9.5198323567708325
 20
55.37698160807291
 10
9.1236463758680539
 20
55.484468587239576
 10
9.1236463758680539
 20
55.484468587239576
 97
        0
 92
        1
 93
        1
 72
     4
 94
        3
 73
     0
 74
     0
 95
       71
 96
       67
 40
0.0
 40
0.0
 40
0.0
 40
0.0
 40
1.0
 40
1.0
 40
1.0
 40
2.0
 40
2.0
 40
2.0
 40
3.0
 40
3.0
 40
3.0
 40
4.0
 40
4.0
 40
4.0
 40
5.0
 40
5.0
 40
5.0
 40
6.0
 40
6.0
 40
6.0
 40
7.0
 40
7.0
 40
7.0
 40
8.0
 40
8.0
 40
8.0
 40
9.0
 40
9.0
 40
9.0
 40
10.0
 40
10.0
 40
10.0
 40
11.0
 40
11.0
 40
11.0
 40
12.0
 40
12.0
 40
12.0
 40
13.0
 40
13.0
 40
13.0
 40
14.0
 40
14.0
 40
14.0
 40
15.0
 40
15.0
 40
15.0
 40
16.0
 40
16.0
 40
16.0
 40
17.0
 40
17.0
 40
17.0
 40
18.0
 40
18.0
 40
18.0
 40
19.0
 40
19.0
 40
19.0
 40
20.0
 40
20.0
 40
20.0
 40
21.0
 40
21.0
 40
21.0
 40
22.0
 40
22.0
 40
22.0
 40
22.0
 10
6.710873752170138
 20
83.12774251302082
 10
6.710873752170138
 20
83.12774251302082
 10
6.7008829752604164
 20
83.144967990451377
 10
6.7008829752604164
 20
83.144967990451377
 10
6.7008829752604164
 20
83.144967990451377
 10
6.6729777018229157
 20
83.175112575954856
 10
6.6729777018229157
 20
83.175112575954856
 10
6.6729777018229157
 20
83.175112575954856
 10
6.6607476128472216
 20
83.179418945312491
 10
6.6607476128472216
 20
83.179418945312491
 10
6.6607476128472216
 20
83.179418945312491
 10
6.6006306966145827
 20
83.179418945312491
 10
6.6006306966145827
 20
83.179418945312491
 10
6.6006306966145827
 20
83.179418945312491
 10
-6.7182807074652775
 20
83.179418945312491
 10
-6.7182807074652775
 20
83.179418945312491
 10
-6.7182807074652775
 20
83.179418945312491
 10
-6.7699571397569436
 20
83.179418945312491
 10
-6.7699571397569436
 20
83.179418945312491
 10
-6.7699571397569436
 20
83.179418945312491
 10
-6.7756415473090268
 20
83.177868652343747
 10
-6.7756415473090268
 20
83.177868652343747
 10
-6.7756415473090268
 20
83.177868652343747
 10
-6.793556043836805
 20
83.165121799045124
 10
-6.793556043836805
 20
83.165121799045124
 10
-6.793556043836805
 20
83.165121799045124
 10
-6.8228393554687496
 20
83.113445366753467
 10
-6.8228393554687496
 20
83.113445366753467
 10
-6.8228393554687496
 20
83.113445366753467
 10
-6.827145724826388
 20
83.116373697916657
 10
-6.827145724826388
 20
83.116373697916657
 10
-6.827145724826388
 20
83.116373697916657
 10
-6.8314520941840273
 20
83.100526258680546
 10
-6.8314520941840273
 20
83.100526258680546
 10
-6.8314520941840273
 20
83.100526258680546
 10
-6.8371365017361105
 20
83.073310004340271
 10
-6.8371365017361105
 20
83.073310004340271
 10
-6.8371365017361105
 20
83.073310004340271
 10
-7.2453803168402775
 20
83.124986436631943
 10
-7.2453803168402775
 20
83.124986436631943
 10
-7.2453803168402775
 20
83.124986436631943
 10
-7.2376288519965275
 20
83.179418945312491
 10
-7.2376288519965275
 20
83.179418945312491
 10
-7.2376288519965275
 20
83.179418945312491
 10
-11.340565321180554
 20
83.179418945312491
 10
-11.340565321180554
 20
83.179418945312491
 10
-11.340565321180554
 20
83.179418945312491
 10
-11.180196126302082
 20
83.428671603732624
 10
-11.180196126302082
 20
83.428671603732624
 10
-11.180196126302082
 20
83.428671603732624
 10
11.565874565972221
 20
83.428671603732624
 10
11.565874565972221
 20
83.428671603732624
 10
11.565874565972221
 20
83.428671603732624
 10
11.71280788845486
 20
83.179418945312491
 10
11.71280788845486
 20
83.179418945312491
 10
11.71280788845486
 20
83.179418945312491
 10
7.1304863823784714
 20
83.179418945312491
 10
7.1304863823784714
 20
83.179418945312491
 10
7.1304863823784714
 20
83.179418945312491
 10
7.1304863823784714
 20
83.124986436631943
 10
7.1304863823784714
 20
83.124986436631943
 10
7.1304863823784714
 20
83.124986436631943
 10
6.7194864908854157
 20
83.073310004340271
 10
6.7194864908854157
 20
83.073310004340271
 10
6.7194864908854157
 20
83.073310004340271
 10
6.710873752170138
 20
83.12774251302082
 10
6.710873752170138
 20
83.12774251302082
 97
        0
 75
     2
 76
     1
 98
        1
 10
0.0
 20
0.0
  0
LINE
  5
4E
100
AcDbEntity
  8
LIVELLO_1
 62
     7
100
AcDbLine
 10
-38.221267
 20
130.121084
 30
0.0
 11
-8.745892
 21
130.121084
 31
0.0
  0
LINE
  5
4D
100
AcDbEntity
  8
LIVELLO_1
 62
     7
100
AcDbLine
 10
36.72334
 20
133.899665
 30
0.0
 11
36.72334
 21
126.341125
 31
0.0
  0
LINE
  5
4C
100
AcDbEntity
  8
LIVELLO_1
 62
     7
100
AcDbLine
 10
-38.221267
 20
133.899665
 30
0.0
 11
-38.221267
 21
126.341125
 31
0.0
  0
LINE
  5
4B
100
AcDbEntity
  8
LIVELLO_1
 62
     7
100
AcDbLine
 10
43.204942
 20
121.989453
 30
0.0
 11
50.763482
 21
121.989453
 31
0.0
  0
LINE
  5
4A
100
AcDbEntity
  8
LIVELLO_1
 62
     7
100
AcDbLine
 10
43.204942
 20
55.209378
 30
0.0
 11
50.763482
 21
55.209378
 31
0.0
  0
LINE
  5
49
100
AcDbEntity
  8
LIVELLO_1
 62
     7
100
AcDbLine
 10
46.958374
 20
95.547829
 30
0.0
 11
46.983523
 21
121.989453
 31
0.0
  0
HATCH
  5
48
100
AcDbEntity
  8
LIVELLO_1
 62
     7
100
AcDbHatch
 10
0.0
 20
0.0
 30
0.0
210
0.0
220
0.0
230
1.0
  2
SOLID
 70
     1
 71
     0
 91
        3
 92
       16
 93
        1
 72
     4
 94
        3
 73
     0
 74
     0
 95
       65
 96
       61
 40
0.0
 40
0.0
 40
0.0
 40
0.0
 40
1.0
 40
1.0
 40
1.0
 40
2.0
 40
2.0
 40
2.0
 40
3.0
 40
3.0
 40
3.0
 40
4.0
 40
4.0
 40
4.0
 40
5.0
 40
5.0
 40
5.0
 40
6.0
 40
6.0
 40
6.0
 40
7.0
 40
7.0
 40
7.0
 40
8.0
 40
8.0
 40
8.0
 40
9.0
 40
9.0
 40
9.0
 40
10.0
 40
10.0
 40
10.0
 40
11.0
 40
11.0
 40
11.0
 40
12.0
 40
12.0
 40
12.0
 40
13.0
 40
13.0
 40
13.0
 40
14.0
 40
14.0
 40
14.0
 40
15.0
 40
15.0
 40
15.0
 40
16.0
 40
16.0
 40
16.0
 40
17.0
 40
17.0
 40
17.0
 40
18.0
 40
18.0
 40
18.0
 40
19.0
 40
19.0
 40
19.0
 40
20.0
 40
20.0
 40
20.0
 40
20.0
 10
-3.4890204535590277
 20
133.80079074435761
 10
-3.6824625651041663
 20
133.881061469184
 10
-3.8965752495659718
 20
133.91964653862846
 10
-4.1329087999131939
 20
133.91964653862846
 10
-4.5067016601562493
 20
133.91964653862846
 10
-4.8412204318576384
 20
133.82094455295137
 10
-5.1376708984374995
 20
133.62181803385417
 10
-5.4320543077256938
 20
133.42406955295138
 10
-5.6697658962673607
 20
133.12486300998262
 10
-5.8502888997395832
 20
132.72660997178818
 10
-6.0308119032118048
 20
132.32697889539929
 10
-6.1203843858506941
 20
131.84845513237846
 10
-6.1203843858506941
 20
131.29276123046873
 10
-6.1203843858506941
 20
130.96185980902777
 10
-6.0895507812499998
 20
130.67832845052081
 10
-6.0294338650173609
 20
130.43906656901041
 10
-5.9691446940104163
 20
130.19980468749998
 10
-5.8459825303819439
 20
129.90473225911458
 10
-5.6597751193576382
 20
129.55677761501735
 10
-5.6597751193576382
 20
129.55677761501735
 10
-6.155352105034722
 20
128.87912733289929
 10
-6.155352105034722
 20
128.87912733289929
 10
-6.155352105034722
 20
128.87912733289929
 10
-5.8768161349826382
 20
128.59128960503472
 10
-5.8768161349826382
 20
128.59128960503472
 10
-5.8768161349826382
 20
128.59128960503472
 10
-5.4027709960937491
 20
129.23724500868053
 10
-5.4027709960937491
 20
129.23724500868053
 10
-5.1857299804687491
 20
129.03674045138888
 10
-4.9809190538194441
 20
128.8979031032986
 10
-4.7881659613715275
 20
128.82193874782985
 10
-4.5976521809895825
 20
128.7432183159722
 10
-4.3849175347222218
 20
128.7058390299479
 10
-4.1515123155381941
 20
128.7058390299479
 10
-3.7897772894965276
 20
128.7058390299479
 10
-3.4568088107638886
 20
128.80764160156249
 10
-3.1560519748263887
 20
129.00952419704859
 10
-2.8537448459201387
 20
129.21002875434027
 10
-2.6131049262152777
 20
129.50802951388889
 10
-2.4341322157118053
 20
129.90059814453124
 10
-2.2549872504340276
 20
130.29437255859375
 10
-2.1655870225694445
 20
130.76703965928817
 10
-2.1655870225694445
 20
131.31704915364583
 10
-2.1655870225694445
 20
131.66086968315972
 10
-2.1977986653645831
 20
131.95887044270833
 10
-2.2615329318576385
 20
132.21087917751734
 10
-2.3245781792534719
 20
132.46306016710068
 10
-2.4411946614583333
 20
132.74228515624998
 10
-2.6117268880208333
 20
133.05027669270831
 10
-2.6117268880208333
 20
133.05027669270831
 10
-2.1132215711805555
 20
133.73068305121527
 10
-2.1132215711805555
 20
133.73068305121527
 10
-2.1132215711805555
 20
133.73068305121527
 10
-2.3933078342013885
 20
134.01714274088542
 10
-2.3933078342013885
 20
134.01714274088542
 10
-2.3933078342013885
 20
134.01714274088542
 10
-2.8652859157986108
 20
133.37256537543402
 10
-2.8652859157986108
 20
133.37256537543402
 10
-3.0873223198784721
 20
133.58030463324653
 10
-3.2948893229166663
 20
133.72207031249999
 10
-3.4890204535590277
 20
133.80079074435761
 97
        0
 92
        1
 93
        1
 72
     4
 94
        3
 73
     0
 74
     0
 95
       26
 96
       22
 40
0.0
 40
0.0
 40
0.0
 40
0.0
 40
1.0
 40
1.0
 40
1.0
 40
2.0
 40
2.0
 40
2.0
 40
3.0
 40
3.0
 40
3.0
 40
4.0
 40
4.0
 40
4.0
 40
5.0
 40
5.0
 40
5.0
 40
6.0
 40
6.0
 40
6.0
 40
7.0
 40
7.0
 40
7.0
 40
7.0
 10
-5.305963812934027
 20
130.03805745442708
 10
-5.4055270724826388
 20
130.27008463541665
 10
-5.4721896701388886
 20
130.47627360026041
 10
-5.5073296440972221
 20
130.65541856553818
 10
-5.5409193250868052
 20
130.83301323784721
 10
-5.5581448025173605
 20
131.04781494140624
 10
-5.5581448025173605
 20
131.30137396918403
 10
-5.5581448025173605
 20
131.97885199652777
 10
-5.4234415690104161
 20
132.49027642144097
 10
-5.1535183376736109
 20
132.83254665798609
 10
-4.8834228515625
 20
133.17481689453123
 10
-4.5432196723090277
 20
133.34672715928818
 10
-4.1342868381076388
 20
133.34672715928818
 10
-3.9580702039930551
 20
133.34672715928818
 10
-3.8042466905381942
 20
133.31675482855903
 10
-3.6709214952256941
 20
133.25646565755207
 10
-3.5355292426215272
 20
133.19789903428818
 10
-3.3801554361979163
 20
133.08179931640623
 10
-3.203938802083333
 20
132.90988905164929
 10
-3.203938802083333
 20
132.90988905164929
 10
-5.305963812934027
 20
130.03805745442708
 10
-5.305963812934027
 20
130.03805745442708
 97
        0
 92
        1
 93
        1
 72
     4
 94
        3
 73
     0
 74
     0
 95
       23
 96
       19
 40
0.0
 40
0.0
 40
0.0
 40
0.0
 40
1.0
 40
1.0
 40
1.0
 40
2.0
 40
2.0
 40
2.0
 40
3.0
 40
3.0
 40
3.0
 40
4.0
 40
4.0
 40
4.0
 40
5.0
 40
5.0
 40
5.0
 40
6.0
 40
6.0
 40
6.0
 40
6.0
 10
-2.7276543511284719
 20
131.30137396918403
 10
-2.7276543511284719
 20
130.64680582682291
 10
-2.8637356228298607
 20
130.14399414062498
 10
-3.1367594401041665
 20
129.79879557291665
 10
-3.4080607096354165
 20
129.45221896701386
 10
-3.7455078124999996
 20
129.27875840928817
 10
-4.1472059461805548
 20
129.27875840928817
 10
-4.3204942491319445
 20
129.27875840928817
 10
-4.4787963867187495
 20
129.3104532877604
 10
-4.6255574544270832
 20
129.37332628038195
 10
-4.7724907769097218
 20
129.43637152777777
 10
-4.9192518446180555
 20
129.54385850694445
 10
-5.0682522243923609
 20
129.69423692491318
 10
-5.0682522243923609
 20
129.69423692491318
 10
-2.9726006401909721
 20
132.55762803819442
 10
-2.9726006401909721
 20
132.55762803819442
 10
-2.8101643880208331
 20
132.19227566189235
 10
-2.7276543511284719
 20
131.77404106987845
 10
-2.7276543511284719
 20
131.30137396918403
 97
        0
 75
     2
 76
     1
 98
        1
 10
0.0
 20
0.0
  0
POLYLINE
  5
42
100
AcDbEntity
  8
LIVELLO_1
 62
     7
100
AcDb2dPolyline
 66
     1
 10
0.0
 20
0.0
 30
0.0
 70
     1
  0
VERTEX
  5
43
100
AcDbEntity
  8
LIVELLO_1
 62
     7
100
AcDbVertex
100
AcDb2dVertex
 10
-1.255221
 20
129.496488
 30
0.0
  0
VERTEX
  5
44
100
AcDbEntity
  8
LIVELLO_1
 62
     7
100
AcDbVertex
100
AcDb2dVertex
 10
-1.834686
 20
129.496488
 30
0.0
  0
VERTEX
  5
45
100
AcDbEntity
  8
LIVELLO_1
 62
     7
100
AcDbVertex
100
AcDb2dVertex
 10
-1.834686
 20
128.791794
 30
0.0
  0
VERTEX
  5
46
100
AcDbEntity
  8
LIVELLO_1
 62
     7
100
AcDbVertex
100
AcDb2dVertex
 10
-1.255221
 20
128.791794
 30
0.0
  0
SEQEND
  5
47
100
AcDbEntity
  8
LIVELLO_1
 62
     7
  0
HATCH
  5
41
100
AcDbEntity
  8
LIVELLO_1
 62
     7
100
AcDbHatch
 10
0.0
 20
0.0
 30
0.0
210
0.0
220
0.0
230
1.0
  2
SOLID
 70
     1
 71
     0
 91
        5
 92
       16
 93
        1
 72
     4
 94
        3
 73
     0
 74
     0
 95
       71
 96
       67
 40
0.0
 40
0.0
 40
0.0
 40
0.0
 40
1.0
 40
1.0
 40
1.0
 40
2.0
 40
2.0
 40
2.0
 40
3.0
 40
3.0
 40
3.0
 40
4.0
 40
4.0
 40
4.0
 40
5.0
 40
5.0
 40
5.0
 40
6.0
 40
6.0
 40
6.0
 40
7.0
 40
7.0
 40
7.0
 40
8.0
 40
8.0
 40
8.0
 40
9.0
 40
9.0
 40
9.0
 40
10.0
 40
10.0
 40
10.0
 40
11.0
 40
11.0
 40
11.0
 40
12.0
 40
12.0
 40
12.0
 40
13.0
 40
13.0
 40
13.0
 40
14.0
 40
14.0
 40
14.0
 40
15.0
 40
15.0
 40
15.0
 40
16.0
 40
16.0
 40
16.0
 40
17.0
 40
17.0
 40
17.0
 40
18.0
 40
18.0
 40
18.0
 40
19.0
 40
19.0
 40
19.0
 40
20.0
 40
20.0
 40
20.0
 40
21.0
 40
21.0
 40
21.0
 40
22.0
 40
22.0
 40
22.0
 40
22.0
 10
-0.5670627170138889
 20
129.07825385199652
 10
-0.3221164279513888
 20
128.82917344835067
 10
-0.0198092990451389
 20
128.7058390299479
 10
0.3383083767361111
 20
128.7058390299479
 10
0.7679117838541666
 20
128.7058390299479
 10
1.1110432942708333
 20
128.88205566406248
 10
1.3659803602430554
 20
129.23156060112845
 10
1.6216064453124999
 20
129.58537190755206
 10
1.7506252712673609
 20
130.00653483072915
 10
1.7506252712673609
 20
130.49918348524304
 10
1.7506252712673609
 20
130.99768880208333
 10
1.62315673828125
 20
131.39594184027777
 10
1.3659803602430554
 20
131.6910142686632
 10
1.1124213324652776
 20
131.98453640407985
 10
0.8102864583333332
 20
132.13215874565972
 10
0.4657769097222222
 20
132.13215874565972
 10
0.1913750542534722
 20
132.13215874565972
 10
-0.0685574001736111
 20
132.02622205946179
 10
-0.3135036892361111
 20
131.81417643229165
 10
-0.3135036892361111
 20
131.81417643229165
 10
-0.0921563042534722
 20
133.17481689453123
 10
-0.0921563042534722
 20
133.17481689453123
 10
-0.0921563042534722
 20
133.17481689453123
 10
1.5551161024305553
 20
133.17481689453123
 10
1.5551161024305553
 20
133.17481689453123
 10
1.5551161024305553
 20
133.17481689453123
 10
1.5551161024305553
 20
133.76496175130208
 10
1.5551161024305553
 20
133.76496175130208
 10
1.5551161024305553
 20
133.76496175130208
 10
-0.4967827690972222
 20
133.76496175130208
 10
-0.4967827690972222
 20
133.76496175130208
 10
-0.4967827690972222
 20
133.76496175130208
 10
-0.8971028645833332
 20
131.17390543619791
 10
-0.8971028645833332
 20
131.17390543619791
 10
-0.8971028645833332
 20
131.17390543619791
 10
-0.4216796875
 20
131.09794108072916
 10
-0.4216796875
 20
131.09794108072916
 10
-0.3443372938368055
 20
131.25262586805553
 10
-0.2382283528645833
 20
131.37148166232637
 10
-0.1050754123263889
 20
131.45743679470485
 10
0.0296278211805556
 20
131.54494222005206
 10
0.17208251953125
 20
131.58783365885415
 10
0.3260782877604166
 20
131.58783365885415
 10
0.5796373155381944
 20
131.58783365885415
 10
0.7908216688368055
 20
131.48758138020833
 10
0.959975857204861
 20
131.28983289930554
 10
1.1267184787326388
 20
131.09225667317708
 10
1.2106065538194444
 20
130.811481391059
 10
1.2106065538194444
 20
130.45198567708331
 10
1.2106065538194444
 20
130.07095811631945
 10
1.12396240234375
 20
129.7686509874132
 10
0.9513631184895832
 20
129.54816487630208
 10
0.7765245225694444
 20
129.32612847222222
 10
0.5696465386284721
 20
129.21588541666665
 10
0.3290066189236111
 20
129.21588541666665
 10
0.1384928385416667
 20
129.21588541666665
 10
-0.0320393880208333
 20
129.29167751736111
 10
-0.1767333984375
 20
129.44791259765623
 10
-0.3221164279513888
 20
129.60397542317708
 10
-0.4144449869791667
 20
129.8375528971354
 10
-0.4552693684895833
 20
130.15553521050347
 10
-0.4552693684895833
 20
130.15553521050347
 10
-0.9896036783854166
 20
130.1097154405382
 10
-0.9896036783854166
 20
130.1097154405382
 10
-0.9544637044270833
 20
129.66994900173609
 10
-0.8133870442708333
 20
129.32612847222222
 10
-0.5670627170138889
 20
129.07825385199652
 97
        0
 92
       16
 93
        1
 72
     4
 94
        3
 73
     0
 74
     0
 95
       29
 96
       25
 40
0.0
 40
0.0
 40
0.0
 40
0.0
 40
1.0
 40
1.0
 40
1.0
 40
2.0
 40
2.0
 40
2.0
 40
3.0
 40
3.0
 40
3.0
 40
4.0
 40
4.0
 40
4.0
 40
5.0
 40
5.0
 40
5.0
 40
6.0
 40
6.0
 40
6.0
 40
7.0
 40
7.0
 40
7.0
 40
8.0
 40
8.0
 40
8.0
 40
8.0
 10
2.5977742513020829
 20
129.28323703342014
 10
2.8492662217881941
 20
128.8979031032986
 10
3.1700046115451386
 20
128.7058390299479
 10
3.5646402994791662
 20
128.7058390299479
 10
4.0123304578993055
 20
128.7058390299479
 10
4.3482272677951386
 20
128.92356906467012
 10
4.5737087673611105
 20
129.36040717230901
 10
4.8016018337673607
 20
129.7974175347222
 10
4.9139119466145829
 20
130.43476019965277
 10
4.9139119466145829
 20
131.27708604600693
 10
4.9139119466145829
 20
132.21380750868053
 10
4.7778306749131936
 20
132.89421386718749
 10
4.50360107421875
 20
133.32106119791666
 10
4.2758802625868055
 20
133.67487250434027
 10
3.9649603949652774
 20
133.85091688368055
 10
3.5718749999999995
 20
133.85091688368055
 10
3.1278021918402774
 20
133.85091688368055
 10
2.7919053819444444
 20
133.63180881076389
 10
2.5628065321180555
 20
133.19634874131944
 10
2.335774739583333
 20
132.76243896484374
 10
2.2210530598958331
 20
132.12216796874998
 10
2.2210530598958331
 20
131.27708604600693
 10
2.2210530598958331
 20
130.33157958984373
 10
2.3471435546874999
 20
129.66839870876734
 10
2.5977742513020829
 20
129.28323703342014
 97
        0
 92
        1
 93
        1
 72
     4
 94
        3
 73
     0
 74
     0
 95
       29
 96
       25
 40
0.0
 40
0.0
 40
0.0
 40
0.0
 40
1.0
 40
1.0
 40
1.0
 40
2.0
 40
2.0
 40
2.0
 40
3.0
 40
3.0
 40
3.0
 40
4.0
 40
4.0
 40
4.0
 40
5.0
 40
5.0
 40
5.0
 40
6.0
 40
6.0
 40
6.0
 40
7.0
 40
7.0
 40
7.0
 40
8.0
 40
8.0
 40
8.0
 40
8.0
 10
2.9708780924479163
 20
132.91850179036456
 10
3.126424153645833
 20
133.19927707248263
 10
3.318315972222222
 20
133.3410427517361
 10
3.5503431532118053
 20
133.3410427517361
 10
3.8009738498263888
 20
133.3410427517361
 10
4.0050957573784718
 20
133.20065511067708
 10
4.1633978949652777
 20
132.92418619791667
 10
4.3203219943576388
 20
132.64633924696179
 10
4.399042426215277
 20
132.09770779079861
 10
4.399042426215277
 20
131.27846408420137
 10
4.399042426215277
 20
130.46766086154511
 10
4.3217000325520827
 20
129.92057969835068
 10
4.1647759331597216
 20
129.63842637803819
 10
4.0080240885416663
 20
129.35765109592012
 10
3.8125149197048609
 20
129.21588541666665
 10
3.5811767578124996
 20
129.21588541666665
 10
3.3348524305555554
 20
129.21588541666665
 10
3.1321085611979163
 20
129.35334472656248
 10
2.9738064236111108
 20
129.63256971571178
 10
2.8170545789930554
 20
129.91196695963541
 10
2.7374728732638887
 20
130.46059841579859
 10
2.7374728732638887
 20
131.27846408420137
 10
2.7374728732638887
 20
132.08909505208331
 10
2.8155042860243054
 20
132.63634847005207
 10
2.9708780924479163
 20
132.91850179036456
 97
        0
 92
       16
 93
        1
 72
     4
 94
        3
 73
     0
 74
     0
 95
       29
 96
       25
 40
0.0
 40
0.0
 40
0.0
 40
0.0
 40
1.0
 40
1.0
 40
1.0
 40
2.0
 40
2.0
 40
2.0
 40
3.0
 40
3.0
 40
3.0
 40
4.0
 40
4.0
 40
4.0
 40
5.0
 40
5.0
 40
5.0
 40
6.0
 40
6.0
 40
6.0
 40
7.0
 40
7.0
 40
7.0
 40
8.0
 40
8.0
 40
8.0
 40
8.0
 10
5.809120008680555
 20
129.28323703342014
 10
6.0599229600694438
 20
128.8979031032986
 10
6.3822116427951388
 20
128.7058390299479
 10
6.7752970377604163
 20
128.7058390299479
 10
7.2229871961805552
 20
128.7058390299479
 10
7.5588840060763882
 20
128.92356906467012
 10
7.7843655056423602
 20
129.36040717230901
 10
8.0122585720486104
 20
129.7974175347222
 10
8.1245686848958325
 20
130.43476019965277
 10
8.1245686848958325
 20
131.27708604600693
 10
8.1245686848958325
 20
132.21380750868053
 10
7.9884874131944441
 20
132.89421386718749
 10
7.7142578124999996
 20
133.32106119791666
 10
7.4865370008680552
 20
133.67487250434027
 10
7.1756171332465275
 20
133.85091688368055
 10
6.7825317382812491
 20
133.85091688368055
 10
6.3384589301215275
 20
133.85091688368055
 10
6.0025621202256936
 20
133.63180881076389
 10
5.7734632703993052
 20
133.19634874131944
 10
5.5464314778645827
 20
132.76243896484374
 10
5.4317097981770832
 20
132.12216796874998
 10
5.4317097981770832
 20
131.27708604600693
 10
5.4317097981770832
 20
130.33157958984373
 10
5.5578002929687491
 20
129.66839870876734
 10
5.809120008680555
 20
129.28323703342014
 97
        0
 92
        1
 93
        1
 72
     4
 94
        3
 73
     0
 74
     0
 95
       29
 96
       25
 40
0.0
 40
0.0
 40
0.0
 40
0.0
 40
1.0
 40
1.0
 40
1.0
 40
2.0
 40
2.0
 40
2.0
 40
3.0
 40
3.0
 40
3.0
 40
4.0
 40
4.0
 40
4.0
 40
5.0
 40
5.0
 40
5.0
 40
6.0
 40
6.0
 40
6.0
 40
7.0
 40
7.0
 40
7.0
 40
8.0
 40
8.0
 40
8.0
 40
8.0
 10
6.1815348307291664
 20
132.91850179036456
 10
6.3370808919270827
 20
133.19927707248263
 10
6.5289727105034716
 20
133.3410427517361
 10
6.7609998914930554
 20
133.3410427517361
 10
7.0116305881076384
 20
133.3410427517361
 10
7.2157524956597214
 20
133.20065511067708
 10
7.3740546332465273
 20
132.92418619791667
 10
7.5309787326388884
 20
132.64633924696179
 10
7.6096991644965275
 20
132.09770779079861
 10
7.6096991644965275
 20
131.27846408420137
 10
7.6096991644965275
 20
130.46766086154511
 10
7.5323567708333323
 20
129.92057969835068
 10
7.3754326714409713
 20
129.63842637803819
 10
7.2186808268229159
 20
129.35765109592012
 10
7.0231716579861105
 20
129.21588541666665
 10
6.7918334960937496
 20
129.21588541666665
 10
6.545509168836805
 20
129.21588541666665
 10
6.3427652994791659
 20
129.35334472656248
 10
6.1858412000868048
 20
129.63256971571178
 10
6.0277113172743046
 20
129.91196695963541
 10
5.9481296115451388
 20
130.46059841579859
 10
5.9481296115451388
 20
131.27846408420137
 10
5.9481296115451388
 20
132.08909505208331
 10
6.026161024305555
 20
132.63634847005207
 10
6.1815348307291664
 20
132.91850179036456
 97
        0
 75
     2
 76
     1
 98
        1
 10
0.0
 20
0.0
  0
HATCH
  5
40
100
AcDbEntity
  8
LIVELLO_1
 62
     7
100
AcDbHatch
 10
0.0
 20
0.0
 30
0.0
210
0.0
220
0.0
230
1.0
  2
SOLID
 70
     1
 71
     0
 91
        5
 92
       16
 93
        1
 72
     4
 94
        3
 73
     0
 74
     0
 95
       38
 96
       34
 40
0.0
 40
0.0
 40
0.0
 40
0.0
 40
1.0
 40
1.0
 40
1.0
 40
2.0
 40
2.0
 40
2.0
 40
3.0
 40
3.0
 40
3.0
 40
4.0
 40
4.0
 40
4.0
 40
5.0
 40
5.0
 40
5.0
 40
6.0
 40
6.0
 40
6.0
 40
7.0
 40
7.0
 40
7.0
 40
8.0
 40
8.0
 40
8.0
 40
9.0
 40
9.0
 40
9.0
 40
10.0
 40
10.0
 40
10.0
 40
11.0
 40
11.0
 40
11.0
 40
11.0
 10
44.31564127604166
 20
86.492395019531244
 10
44.31564127604166
 20
86.492395019531244
 10
44.31564127604166
 20
87.701279025607633
 10
44.31564127604166
 20
87.701279025607633
 10
44.31564127604166
 20
87.701279025607633
 10
44.875813802083329
 20
87.701279025607633
 10
44.875813802083329
 20
87.701279025607633
 10
44.875813802083329
 20
87.701279025607633
 10
44.875813802083329
 20
88.274370659722209
 10
44.875813802083329
 20
88.274370659722209
 10
44.875813802083329
 20
88.274370659722209
 10
44.31564127604166
 20
88.274370659722209
 10
44.31564127604166
 20
88.274370659722209
 10
44.31564127604166
 20
88.274370659722209
 10
44.31564127604166
 20
91.535842556423603
 10
44.31564127604166
 20
91.535842556423603
 10
44.31564127604166
 20
91.535842556423603
 10
43.898784722222217
 20
91.535842556423603
 10
43.898784722222217
 20
91.535842556423603
 10
43.898784722222217
 20
91.535842556423603
 10
42.016729058159719
 20
88.274370659722209
 10
42.016729058159719
 20
88.274370659722209
 10
42.016729058159719
 20
88.274370659722209
 10
42.016729058159719
 20
87.701279025607633
 10
42.016729058159719
 20
87.701279025607633
 10
42.016729058159719
 20
87.701279025607633
 10
43.810934787326381
 20
87.701279025607633
 10
43.810934787326381
 20
87.701279025607633
 10
43.810934787326381
 20
87.701279025607633
 10
43.810934787326381
 20
86.492395019531244
 10
43.810934787326381
 20
86.492395019531244
 10
43.810934787326381
 20
86.492395019531244
 10
44.31564127604166
 20
86.492395019531244
 10
44.31564127604166
 20
86.492395019531244
 97
        0
 92
        1
 93
        1
 72
     4
 94
        3
 73
     0
 74
     0
 95
       14
 96
       10
 40
0.0
 40
0.0
 40
0.0
 40
0.0
 40
1.0
 40
1.0
 40
1.0
 40
2.0
 40
2.0
 40
2.0
 40
3.0
 40
3.0
 40
3.0
 40
3.0
 10
42.520057508680551
 20
88.274370659722209
 10
42.520057508680551
 20
88.274370659722209
 10
43.810934787326381
 20
90.541760253906247
 10
43.810934787326381
 20
90.541760253906247
 10
43.810934787326381
 20
90.541760253906247
 10
43.810934787326381
 20
88.274370659722209
 10
43.810934787326381
 20
88.274370659722209
 10
43.810934787326381
 20
88.274370659722209
 10
42.520057508680551
 20
88.274370659722209
 10
42.520057508680551
 20
88.274370659722209
 97
        0
 92
       16
 93
        1
 72
     4
 94
        3
 73
     0
 74
     0
 95
       71
 96
       67
 40
0.0
 40
0.0
 40
0.0
 40
0.0
 40
1.0
 40
1.0
 40
1.0
 40
2.0
 40
2.0
 40
2.0
 40
3.0
 40
3.0
 40
3.0
 40
4.0
 40
4.0
 40
4.0
 40
5.0
 40
5.0
 40
5.0
 40
6.0
 40
6.0
 40
6.0
 40
7.0
 40
7.0
 40
7.0
 40
8.0
 40
8.0
 40
8.0
 40
9.0
 40
9.0
 40
9.0
 40
10.0
 40
10.0
 40
10.0
 40
11.0
 40
11.0
 40
11.0
 40
12.0
 40
12.0
 40
12.0
 40
13.0
 40
13.0
 40
13.0
 40
14.0
 40
14.0
 40
14.0
 40
15.0
 40
15.0
 40
15.0
 40
16.0
 40
16.0
 40
16.0
 40
17.0
 40
17.0
 40
17.0
 40
18.0
 40
18.0
 40
18.0
 40
19.0
 40
19.0
 40
19.0
 40
20.0
 40
20.0
 40
20.0
 40
21.0
 40
21.0
 40
21.0
 40
22.0
 40
22.0
 40
22.0
 40
22.0
 10
45.815980360243053
 20
86.778854709201383
 10
46.062304687499996
 20
86.531152343749994
 10
46.363406032986106
 20
86.407990180121516
 10
46.720662434895829
 20
86.407990180121516
 10
47.150265842013887
 20
86.407990180121516
 10
47.494086371527771
 20
86.582656521267353
 10
47.749023437499993
 20
86.93371175130207
 10
48.00533854166666
 20
87.285972764756934
 10
48.133496093749997
 20
87.708513726128459
 10
48.133496093749997
 20
88.201334635416657
 10
48.133496093749997
 20
88.699667697482624
 10
48.00533854166666
 20
89.097920735677079
 10
47.750401475694439
 20
89.391615125868043
 10
47.495464409722217
 20
89.685137261284709
 10
47.194707573784719
 20
89.834137641059016
 10
46.848819986979166
 20
89.834137641059016
 10
46.574590386284719
 20
89.834137641059016
 10
46.314485677083326
 20
89.72665066189235
 10
46.069539388020829
 20
89.516155327690967
 10
46.069539388020829
 20
89.516155327690967
 10
46.29105902777777
 20
90.875590006510407
 10
46.29105902777777
 20
90.875590006510407
 10
46.29105902777777
 20
90.875590006510407
 10
47.938159179687496
 20
90.875590006510407
 10
47.938159179687496
 20
90.875590006510407
 10
47.938159179687496
 20
90.875590006510407
 10
47.938159179687496
 20
91.467112901475687
 10
47.938159179687496
 20
91.467112901475687
 10
47.938159179687496
 20
91.467112901475687
 10
45.88626030815972
 20
91.467112901475687
 10
45.88626030815972
 20
91.467112901475687
 10
45.88626030815972
 20
91.467112901475687
 10
45.485940212673604
 20
88.874506293402774
 10
45.485940212673604
 20
88.874506293402774
 10
45.485940212673604
 20
88.874506293402774
 10
45.96136338975694
 20
88.798541937934019
 10
45.96136338975694
 20
88.798541937934019
 10
46.03887803819444
 20
88.951848687065961
 10
46.14498697916666
 20
89.072082519531236
 10
46.279345703124996
 20
89.159587944878467
 10
46.412670898437497
 20
89.245370822482627
 10
46.555297851562493
 20
89.288434516059013
 10
46.709293619791666
 20
89.288434516059013
 10
46.962852647569441
 20
89.288434516059013
 10
47.174037000868054
 20
89.189560275607633
 10
47.342846679687497
 20
88.991984049479157
 10
47.509933810763883
 20
88.794235568576383
 10
47.593649631076381
 20
88.513460286458326
 10
47.593649631076381
 20
88.153964572482636
 10
47.593649631076381
 20
87.771558973524293
 10
47.507177734374999
 20
87.469251844618043
 10
47.333544921874996
 20
87.248765733506943
 10
47.159567599826381
 20
87.02672932942707
 10
46.952517361111106
 20
86.916486273871513
 10
46.71204969618055
 20
86.916486273871513
 10
46.521535915798609
 20
86.916486273871513
 10
46.351003689236109
 20
86.993828667534714
 10
46.207687717013883
 20
87.148513454861103
 10
46.062304687499996
 20
87.303198242187491
 10
45.968598090277773
 20
87.539531792534717
 10
45.927256944444437
 20
87.85613606770832
 10
45.927256944444437
 20
87.85613606770832
 10
45.393611653645827
 20
87.811694335937489
 10
45.393611653645827
 20
87.811694335937489
 10
45.428751627604164
 20
87.371927897135407
 10
45.56965603298611
 20
87.028107367621516
 10
45.815980360243053
 20
86.778854709201383
 97
        0
 92
       16
 93
        1
 72
     4
 94
        3
 73
     0
 74
     0
 95
       29
 96
       25
 40
0.0
 40
0.0
 40
0.0
 40
0.0
 40
1.0
 40
1.0
 40
1.0
 40
2.0
 40
2.0
 40
2.0
 40
3.0
 40
3.0
 40
3.0
 40
4.0
 40
4.0
 40
4.0
 40
5.0
 40
5.0
 40
5.0
 40
6.0
 40
6.0
 40
6.0
 40
7.0
 40
7.0
 40
7.0
 40
8.0
 40
8.0
 40
8.0
 40
8.0
 10
48.980989583333326
 20
86.983665635850684
 10
49.232137044270829
 20
86.59988199869791
 10
49.554597981770826
 20
86.407990180121516
 10
49.947683376736109
 20
86.407990180121516
 10
50.395545789930551
 20
86.407990180121516
 10
50.731442599826387
 20
86.625720214843739
 10
50.956751844618054
 20
87.061180284288184
 10
51.183783637152771
 20
87.499396430121521
 10
51.297127278645831
 20
88.136739095052079
 10
51.297127278645831
 20
88.979064941406236
 10
51.297127278645831
 20
89.914408365885407
 10
51.161046006944439
 20
90.596192762586796
 10
50.886816406249999
 20
91.02304009331597
 10
50.659095594618051
 20
91.375473361545133
 10
50.348003472222217
 20
91.551517740885402
 10
49.954918077256941
 20
91.551517740885402
 10
49.510845269097217
 20
91.551517740885402
 10
49.174948459201381
 20
91.333787706163193
 10
48.945849609374996
 20
90.898499891493046
 10
48.718817816840271
 20
90.4630398220486
 10
48.604096137152773
 20
89.824146864149299
 10
48.604096137152773
 20
88.979064941406236
 10
48.604096137152773
 20
88.032180447048603
 10
48.730186631944441
 20
87.368999565972217
 10
48.980989583333326
 20
86.983665635850684
 97
        0
 92
        1
 93
        1
 72
     4
 94
        3
 73
     0
 74
     0
 95
       29
 96
       25
 40
0.0
 40
0.0
 40
0.0
 40
0.0
 40
1.0
 40
1.0
 40
1.0
 40
2.0
 40
2.0
 40
2.0
 40
3.0
 40
3.0
 40
3.0
 40
4.0
 40
4.0
 40
4.0
 40
5.0
 40
5.0
 40
5.0
 40
6.0
 40
6.0
 40
6.0
 40
7.0
 40
7.0
 40
7.0
 40
8.0
 40
8.0
 40
8.0
 40
8.0
 10
49.35409342447916
 20
90.62048068576388
 10
49.509467230902771
 20
90.901255967881937
 10
49.702737087673604
 20
91.043021647135404
 10
49.933558485243054
 20
91.043021647135404
 10
50.184016927083327
 20
91.043021647135404
 10
50.387622070312496
 20
90.902806260850681
 10
50.546440972222214
 20
90.626337348090274
 10
50.703192816840271
 20
90.348490397135407
 10
50.782085503472217
 20
89.799858940972214
 10
50.782085503472217
 20
88.979064941406236
 10
50.782085503472217
 20
88.168261718749989
 10
50.704915364583329
 20
87.622558593749986
 10
50.54781901041666
 20
87.339027235243051
 10
50.39106716579861
 20
87.056873914930549
 10
50.195730251736109
 20
86.916486273871513
 10
49.964219835069443
 20
86.916486273871513
 10
49.71720648871527
 20
86.916486273871513
 10
49.515323893229159
 20
87.055323621961804
 10
49.358227539062497
 20
87.334720865885416
 10
49.200097656249994
 20
87.612567816840269
 10
49.120515950520826
 20
88.159821234809016
 10
49.120515950520826
 20
88.979064941406236
 10
49.120515950520826
 20
89.791246202256943
 10
49.198030598958326
 20
90.336949327256931
 10
49.35409342447916
 20
90.62048068576388
 97
        0
 75
     2
 76
     1
 98
        1
 10
0.0
 20
0.0
  0
LINE
  5
3F
100
AcDbEntity
  8
LIVELLO_1
 62
     7
100
AcDbLine
 10
10.273964
 20
130.197049
 30
0.0
 11
36.815668
 21
130.197049
 31
0.0
  0
LINE
  5
3E
100
AcDbEntity
  8
LIVELLO_1
 62
     7
100
AcDbLine
 10
46.896707
 20
55.654829
 30
0.0
 11
46.921856
 21
83.561825
 31
0.0
  0
SPLINE
  5
3D
100
AcDbEntity
  8
LIVELLO_1
 62
     7
100
AcDbSpline
210
0.0
220
0.0
230
1.0
 70
     8
 71
     3
 72
    17
 73
    13
 74
     0
 42
0.00000001
 43
0.00000001
 40
0.0
 40
0.0
 40
0.0
 40
0.0
 40
1.0
 40
1.0
 40
1.0
 40
2.0
 40
2.0
 40
2.0
 40
3.0
 40
3.0
 40
3.0
 40
4.0
 40
4.0
 40
4.0
 40
4.0
 10
-30.007987467447915
 20
-76.884023708767359
 30
0.0
 10
-42.439614529079854
 20
-60.338608127170133
 30
0.0
 10
-39.105623372395833
 20
-36.857870822482639
 30
0.0
 10
-22.562447102864581
 20
-24.433478461371525
 30
0.0
 10
-6.0192708333333327
 20
-12.010464138454861
 30
0.0
 10
17.46939019097222
 20
-15.349106174045138
 30
0.0
 10
29.903084309895831
 20
-31.893143717447913
 30
0.0
 10
42.334022352430551
 20
-48.435803222656247
 30
0.0
 10
39.001581488715274
 20
-71.917918565538187
 30
0.0
 10
22.456165907118052
 20
-84.340932888454859
 30
0.0
 10
5.9129896375868052
 20
-96.766703287760407
 30
0.0
 10
-17.574293348524304
 20
-93.426338704427081
 30
0.0
 10
-30.007987467447915
 20
-76.884023708767359
 30
0.0
  0
CIRCLE
  5
3C
100
AcDbEntity
  8
LIVELLO_1
 62
     7
100
AcDbCircle
 10
-0.052452
 20
-54.388584
 30
0.0
 40
37.4617
  0
HATCH
  5
3B
100
AcDbEntity
  8
LIVELLO_1
 62
     2
100
AcDbHatch
 10
0.0
 20
0.0
 30
0.0
210
0.0
220
0.0
230
1.0
  2
SOLID
 70
     1
 71
     0
 91
        1
 92
        1
 93
        1
 72
     4
 94
        3
 73
     0
 74
     0
 95
       20
 96
       16
 40
0.0
 40
0.0
 40
0.0
 40
0.0
 40
1.0
 40
1.0
 40
1.0
 40
2.0
 40
2.0
 40
2.0
 40
3.0
 40
3.0
 40
3.0
 40
4.0
 40
4.0
 40
4.0
 40
5.0
 40
5.0
 40
5.0
 40
5.0
 10
-62.909510633680547
 20
-29.618691677517358
 10
-62.909510633680547
 20
-29.618691677517358
 10
-34.437518988715276
 20
-38.757151963975694
 10
-34.437518988715276
 20
-38.757151963975694
 10
-42.171758355034719
 20
-55.574730088975691
 10
-34.604433865017356
 20
-69.502906629774301
 10
-34.604433865017356
 20
-69.502906629774301
 10
-34.598749457465274
 20
-69.538735622829861
 10
-73.059450954861106
 20
-81.074982367621516
 10
-73.05514458550347
 20
-81.10943332248263
 10
-73.05514458550347
 20
-81.10943332248263
 10
-79.869543457031241
 20
-71.180323621961804
 10
-79.704178873697913
 20
-53.884221733940969
 10
-79.536574978298603
 20
-36.500958930121527
 10
-72.767823621961796
 20
-26.159471299913193
 10
-72.767823621961796
 20
-26.159471299913193
 97
        0
 75
     2
 76
     1
 98
        1
 10
0.0
 20
0.0
  0
HATCH
  5
3A
100
AcDbEntity
  8
LIVELLO_1
 62
     2
100
AcDbHatch
 10
0.0
 20
0.0
 30
0.0
210
0.0
220
0.0
230
1.0
  2
SOLID
 70
     1
 71
     0
 91
        1
 92
        1
 93
        1
 72
     4
 94
        3
 73
     0
 74
     0
 95
       20
 96
       16
 40
0.0
 40
0.0
 40
0.0
 40
0.0
 40
1.0
 40
1.0
 40
1.0
 40
2.0
 40
2.0
 40
2.0
 40
3.0
 40
3.0
 40
3.0
 40
4.0
 40
4.0
 40
4.0
 40
5.0
 40
5.0
 40
5.0
 40
5.0
 10
62.909166124131936
 20
-78.207629394531239
 10
62.909166124131936
 20
-78.207629394531239
 10
34.93878038194444
 20
-69.017492675781241
 10
34.93878038194444
 20
-69.017492675781241
 10
41.814846462673607
 20
-52.241600206163191
 10
34.458878580729163
 20
-38.356142849392356
 10
34.458878580729163
 20
-38.356142849392356
 10
34.453021918402776
 20
-38.320313856336803
 10
73.059106445312494
 20
-26.750994194878469
 10
73.054972330729157
 20
-26.715165201822913
 10
73.054972330729157
 20
-26.715165201822913
 10
79.869371202256943
 20
-36.645652940538191
 10
79.7040066189236
 20
-53.943132866753466
 10
79.536230468749991
 20
-71.325017632378461
 10
72.767651367187497
 20
-81.66512722439235
 10
72.767651367187497
 20
-81.66512722439235
 97
        0
 75
     2
 76
     1
 98
        1
 10
0.0
 20
0.0
  0
HATCH
  5
39
100
AcDbEntity
  8
LIVELLO_1
 62
     2
100
AcDbHatch
 10
0.0
 20
0.0
 30
0.0
210
0.0
220
0.0
230
1.0
  2
SOLID
 70
     1
 71
     0
 91
        1
 92
        1
 93
        1
 72
     4
 94
        3
 73
     0
 74
     0
 95
       20
 96
       16
 40
0.0
 40
0.0
 40
0.0
 40
0.0
 40
1.0
 40
1.0
 40
1.0
 40
2.0
 40
2.0
 40
2.0
 40
3.0
 40
3.0
 40
3.0
 40
4.0
 40
4.0
 40
4.0
 40
5.0
 40
5.0
 40
5.0
 40
5.0
 10
-24.786256239149303
 20
-117.21954616970486
 10
-24.786256239149303
 20
-117.21954616970486
 10
-15.646934678819443
 20
-88.746865505642347
 10
-15.646934678819443
 20
-88.746865505642347
 10
1.1711602105034722
 20
-96.481793891059013
 10
15.099509006076387
 20
-88.91464165581597
 10
15.099509006076387
 20
-88.91464165581597
 10
15.13464898003472
 20
-88.908784993489576
 10
26.670206705729164
 20
-127.36948649088541
 10
26.706724717881944
 20
-127.36500786675346
 10
26.706724717881944
 20
-127.36500786675346
 10
16.775375705295136
 20
-134.18044026692706
 10
-0.5203816731770833
 20
-134.0140421549479
 10
-17.90226643880208
 20
-133.84661051432292
 10
-28.244787597656249
 20
-127.07734239366319
 10
-28.244787597656249
 20
-127.07734239366319
 97
        0
 75
     2
 76
     1
 98
        1
 10
0.0
 20
0.0
  0
HATCH
  5
38
100
AcDbEntity
  8
LIVELLO_1
 62
     2
100
AcDbHatch
 10
0.0
 20
0.0
 30
0.0
210
0.0
220
0.0
230
1.0
  2
SOLID
 70
     1
 71
     0
 91
        1
 92
        1
 93
        1
 72
     4
 94
        3
 73
     0
 74
     0
 95
       20
 96
       16
 40
0.0
 40
0.0
 40
0.0
 40
0.0
 40
1.0
 40
1.0
 40
1.0
 40
2.0
 40
2.0
 40
2.0
 40
3.0
 40
3.0
 40
3.0
 40
4.0
 40
4.0
 40
4.0
 40
5.0
 40
5.0
 40
5.0
 40
5.0
 10
23.804059516059027
 20
8.6001641167534721
 10
23.804059516059027
 20
8.6001641167534721
 10
14.613922797309026
 20
-19.371255154079858
 10
14.613922797309026
 20
-19.371255154079858
 10
-2.16265869140625
 20
-12.495878092447915
 10
-16.048805067274305
 20
-19.851156955295139
 10
-16.048805067274305
 20
-19.851156955295139
 10
-16.083945041232639
 20
-19.857013617621526
 10
-27.653953721788191
 20
18.749759928385416
 10
-27.688921440972219
 20
18.745453559027776
 10
-27.688921440972219
 20
18.745453559027776
 10
-17.757572428385416
 20
25.559335666232638
 10
-0.4616427951388888
 20
25.393109809027777
 10
16.920758734809027
 20
25.227056206597219
 10
27.263107638888886
 20
18.457615831163192
 10
27.263107638888886
 20
18.457615831163192
 97
        0
 75
     2
 76
     1
 98
        1
 10
0.0
 20
0.0
  0
LINE
  5
37
100
AcDbEntity
  8
LIVELLO_1
 62
     7
100
AcDbLine
 10
-22.414308
 20
45.25443
 30
0.0
 11
-22.414308
 21
37.697268
 31
0.0
  0
LINE
  5
36
100
AcDbEntity
  8
LIVELLO_1
 62
     7
100
AcDbLine
 10
20.262501
 20
45.25443
 30
0.0
 11
20.262501
 21
37.697268
 31
0.0
  0
LINE
  5
35
100
AcDbEntity
  8
LIVELLO_1
 62
     7
100
AcDbLine
 10
-22.414308
 20
41.477227
 30
0.0
 11
-10.539236
 21
41.477227
 31
0.0
  0
HATCH
  5
34
100
AcDbEntity
  8
LIVELLO_1
 62
     7
100
AcDbHatch
 10
0.0
 20
0.0
 30
0.0
210
0.0
220
0.0
230
1.0
  2
SOLID
 70
     1
 71
     0
 91
        3
 92
       16
 93
        1
 72
     4
 94
        3
 73
     0
 74
     0
 95
       65
 96
       61
 40
0.0
 40
0.0
 40
0.0
 40
0.0
 40
1.0
 40
1.0
 40
1.0
 40
2.0
 40
2.0
 40
2.0
 40
3.0
 40
3.0
 40
3.0
 40
4.0
 40
4.0
 40
4.0
 40
5.0
 40
5.0
 40
5.0
 40
6.0
 40
6.0
 40
6.0
 40
7.0
 40
7.0
 40
7.0
 40
8.0
 40
8.0
 40
8.0
 40
9.0
 40
9.0
 40
9.0
 40
10.0
 40
10.0
 40
10.0
 40
11.0
 40
11.0
 40
11.0
 40
12.0
 40
12.0
 40
12.0
 40
13.0
 40
13.0
 40
13.0
 40
14.0
 40
14.0
 40
14.0
 40
15.0
 40
15.0
 40
15.0
 40
16.0
 40
16.0
 40
16.0
 40
17.0
 40
17.0
 40
17.0
 40
18.0
 40
18.0
 40
18.0
 40
19.0
 40
19.0
 40
19.0
 40
20.0
 40
20.0
 40
20.0
 40
20.0
 10
-5.2823649088541664
 20
45.157105848524303
 10
-5.476496039496527
 20
45.235826280381943
 10
-5.6919867621527773
 20
45.275961642795131
 10
-5.9269422743055546
 20
45.275961642795131
 10
-6.3007351345486109
 20
45.275961642795131
 10
-6.6352539062499991
 20
45.175709364149299
 10
-6.9310153537326382
 20
44.977960883246524
 10
-7.2274658203124993
 20
44.780384657118049
 10
-7.465349663628472
 20
44.481005859374996
 10
-7.6443223741319439
 20
44.08137478298611
 10
-7.8248453776041655
 20
43.684499782986109
 10
-7.9144178602430548
 20
43.204770236545137
 10
-7.9144178602430548
 20
42.647526041666666
 10
-7.9144178602430548
 20
42.318002658420134
 10
-7.8835842556423605
 20
42.034471299913193
 10
-7.8234673394097216
 20
41.795209418402777
 10
-7.763178168402777
 20
41.557497829861106
 10
-7.6400160047743046
 20
41.262425401475689
 10
-7.453119574652777
 20
40.911542426215277
 10
-7.453119574652777
 20
40.911542426215277
 10
-7.9493855794270827
 20
40.233892144097219
 10
-7.9493855794270827
 20
40.233892144097219
 10
-7.9493855794270827
 20
40.233892144097219
 10
-7.6708496093749989
 20
39.94743245442708
 10
-7.6708496093749989
 20
39.94743245442708
 10
-7.6708496093749989
 20
39.94743245442708
 10
-7.1968044704861107
 20
40.59200981987847
 10
-7.1968044704861107
 20
40.59200981987847
 10
-6.9797634548611107
 20
40.392883300781243
 10
-6.7742635091145829
 20
40.255423990885411
 10
-6.5837497287326379
 20
40.176703559027771
 10
-6.3916856553819441
 20
40.100739203559023
 10
-6.1791232638888882
 20
40.060603841145827
 10
-5.9455457899305548
 20
40.060603841145827
 10
-5.5831217447916659
 20
40.060603841145827
 10
-5.2501532660590273
 20
40.162406412760411
 10
-4.9500854492187498
 20
40.364289008246523
 10
-4.6477783203124998
 20
40.56634385850694
 10
-4.4086886935763889
 20
40.864172363281249
 10
-4.2295437282986104
 20
41.256740993923607
 10
-4.0505710177951384
 20
41.64913736979166
 10
-3.9596204969618052
 20
42.121804470486104
 10
-3.9596204969618052
 20
42.673364257812494
 10
-3.9596204969618052
 20
43.01701253255208
 10
-3.9932101779513887
 20
43.315013292100687
 10
-4.0548773871527777
 20
43.567022026909719
 10
-4.1179226345486111
 20
43.819203016493049
 10
-4.2352281358506945
 20
44.098428005642354
 10
-4.4057603624131945
 20
44.407969835069437
 10
-4.4057603624131945
 20
44.407969835069437
 10
-3.9065660264756943
 20
45.088203938802081
 10
-3.9065660264756943
 20
45.088203938802081
 10
-3.9065660264756943
 20
45.088203938802081
 10
-4.1873413085937496
 20
45.371907552083329
 10
-4.1873413085937496
 20
45.371907552083329
 10
-4.1873413085937496
 20
45.371907552083329
 10
-4.659319390190972
 20
44.728708224826384
 10
-4.659319390190972
 20
44.728708224826384
 10
-4.8806667751736104
 20
44.935069444444437
 10
-5.088922797309027
 20
45.076835123697911
 10
-5.2823649088541664
 20
45.157105848524303
 97
        0
 92
        1
 93
        1
 72
     4
 94
        3
 73
     0
 74
     0
 95
       26
 96
       22
 40
0.0
 40
0.0
 40
0.0
 40
0.0
 40
1.0
 40
1.0
 40
1.0
 40
2.0
 40
2.0
 40
2.0
 40
3.0
 40
3.0
 40
3.0
 40
4.0
 40
4.0
 40
4.0
 40
5.0
 40
5.0
 40
5.0
 40
6.0
 40
6.0
 40
6.0
 40
7.0
 40
7.0
 40
7.0
 40
7.0
 10
-7.1015475802951382
 20
41.392822265624993
 10
-7.1995605468749995
 20
41.627605523003467
 10
-7.2655341254340273
 20
41.832416449652776
 10
-7.3005018446180552
 20
42.010183376736109
 10
-7.3349527994791659
 20
42.187778049045136
 10
-7.3521782769097213
 20
42.403957790798607
 10
-7.3521782769097213
 20
42.657516818576383
 10
-7.3521782769097213
 20
43.336545138888887
 10
-7.2174750434027768
 20
43.84641927083333
 10
-6.9489298502604164
 20
44.18868950737847
 10
-6.6774563259548607
 20
44.532510036892354
 10
-6.338803439670138
 20
44.70149197048611
 10
-5.9283203124999995
 20
44.70149197048611
 10
-5.7536539713541659
 20
44.70149197048611
 10
-5.5996582031249993
 20
44.672897677951383
 10
-5.4642659505208329
 20
44.614158799913191
 10
-5.331113009982638
 20
44.554041883680554
 10
-5.1757392035590275
 20
44.43794216579861
 10
-4.9979722764756938
 20
44.264653862847219
 10
-4.9979722764756938
 20
44.264653862847219
 10
-7.1015475802951382
 20
41.392822265624993
 10
-7.1015475802951382
 20
41.392822265624993
 97
        0
 92
        1
 93
        1
 72
     4
 94
        3
 73
     0
 74
     0
 95
       23
 96
       19
 40
0.0
 40
0.0
 40
0.0
 40
0.0
 40
1.0
 40
1.0
 40
1.0
 40
2.0
 40
2.0
 40
2.0
 40
3.0
 40
3.0
 40
3.0
 40
4.0
 40
4.0
 40
4.0
 40
5.0
 40
5.0
 40
5.0
 40
6.0
 40
6.0
 40
6.0
 40
6.0
 10
-4.5218600802951388
 20
42.657516818576383
 10
-4.5218600802951388
 20
42.00157063802083
 10
-4.659319390190972
 20
41.50013699001736
 10
-4.9307929144965277
 20
41.153560384114577
 10
-5.2036444769965273
 20
40.808361816406247
 10
-5.5409193250868052
 20
40.635073513454856
 10
-5.9426174587673604
 20
40.635073513454856
 10
-6.1145277235243052
 20
40.635073513454856
 10
-6.274207899305555
 20
40.665045844184021
 10
-6.4195909288194439
 20
40.728091091579856
 10
-6.5658352322048605
 20
40.79113633897569
 10
-6.7125962999131934
 20
40.898623318142356
 10
-6.8622856987847216
 20
41.050379774305554
 10
-6.8622856987847216
 20
41.050379774305554
 10
-4.7666341145833329
 20
43.912220594618049
 10
-4.7666341145833329
 20
43.912220594618049
 10
-4.6035088433159714
 20
43.548418511284716
 10
-4.5218600802951388
 20
43.131734212239579
 10
-4.5218600802951388
 20
42.657516818576383
 97
        0
 75
     2
 76
     1
 98
        1
 10
0.0
 20
0.0
  0
POLYLINE
  5
2E
100
AcDbEntity
  8
LIVELLO_1
 62
     7
100
AcDb2dPolyline
 66
     1
 10
0.0
 20
0.0
 30
0.0
 70
     1
  0
VERTEX
  5
2F
100
AcDbEntity
  8
LIVELLO_1
 62
     7
100
AcDbVertex
100
AcDb2dVertex
 10
-3.048565
 20
40.851253
 30
0.0
  0
VERTEX
  5
30
100
AcDbEntity
  8
LIVELLO_1
 62
     7
100
AcDbVertex
100
AcDb2dVertex
 10
-3.62803
 20
40.851253
 30
0.0
  0
VERTEX
  5
31
100
AcDbEntity
  8
LIVELLO_1
 62
     7
100
AcDbVertex
100
AcDb2dVertex
 10
-3.62803
 20
40.147937
 30
0.0
  0
VERTEX
  5
32
100
AcDbEntity
  8
LIVELLO_1
 62
     7
100
AcDbVertex
100
AcDb2dVertex
 10
-3.048565
 20
40.147937
 30
0.0
  0
SEQEND
  5
33
100
AcDbEntity
  8
LIVELLO_1
 62
     7
  0
HATCH
  5
2D
100
AcDbEntity
  8
LIVELLO_1
 62
     7
100
AcDbHatch
 10
0.0
 20
0.0
 30
0.0
210
0.0
220
0.0
230
1.0
  2
SOLID
 70
     1
 71
     0
 91
        5
 92
       16
 93
        1
 72
     4
 94
        3
 73
     0
 74
     0
 95
       92
 96
       88
 40
0.0
 40
0.0
 40
0.0
 40
0.0
 40
1.0
 40
1.0
 40
1.0
 40
2.0
 40
2.0
 40
2.0
 40
3.0
 40
3.0
 40
3.0
 40
4.0
 40
4.0
 40
4.0
 40
5.0
 40
5.0
 40
5.0
 40
6.0
 40
6.0
 40
6.0
 40
7.0
 40
7.0
 40
7.0
 40
8.0
 40
8.0
 40
8.0
 40
9.0
 40
9.0
 40
9.0
 40
10.0
 40
10.0
 40
10.0
 40
11.0
 40
11.0
 40
11.0
 40
12.0
 40
12.0
 40
12.0
 40
13.0
 40
13.0
 40
13.0
 40
14.0
 40
14.0
 40
14.0
 40
15.0
 40
15.0
 40
15.0
 40
16.0
 40
16.0
 40
16.0
 40
17.0
 40
17.0
 40
17.0
 40
18.0
 40
18.0
 40
18.0
 40
19.0
 40
19.0
 40
19.0
 40
20.0
 40
20.0
 40
20.0
 40
21.0
 40
21.0
 40
21.0
 40
22.0
 40
22.0
 40
22.0
 40
23.0
 40
23.0
 40
23.0
 40
24.0
 40
24.0
 40
24.0
 40
25.0
 40
25.0
 40
25.0
 40
26.0
 40
26.0
 40
26.0
 40
27.0
 40
27.0
 40
27.0
 40
28.0
 40
28.0
 40
28.0
 40
29.0
 40
29.0
 40
29.0
 40
29.0
 10
-2.3638522677951386
 20
40.447315809461799
 10
-2.1189059787326388
 20
40.191000705295139
 10
-1.8196994357638887
 20
40.060603841145827
 10
-1.4679551866319442
 20
40.060603841145827
 10
-1.0862386067708332
 20
40.060603841145827
 10
-0.7603325737847222
 20
40.208226182725689
 10
-0.4881700303819444
 20
40.503298611111106
 10
-0.2153184678819444
 20
40.796820746527771
 10
-0.0785481770833333
 20
41.176470269097216
 10
-0.0785481770833333
 20
41.637768554687497
 10
-0.0785481770833333
 20
41.855326334635414
 10
-0.1107598198784722
 20
42.053074815538189
 10
-0.1767333984375
 20
42.229291449652777
 10
-0.2432237413194444
 20
42.405508083767359
 10
-0.3291788736979167
 20
42.545895724826387
 10
-0.4352878146701388
 20
42.651832411024301
 10
-0.5419135199652777
 20
42.757769097222216
 10
-0.6773057725694444
 20
42.832355414496526
 10
-0.8399142795138889
 20
42.878175184461803
 10
-0.6623196072048611
 20
42.978427463107636
 10
-0.5262383355034722
 20
43.117264811197913
 10
-0.4280531141493055
 20
43.293481445312494
 10
-0.3278008355034722
 20
43.469698079427083
 10
-0.2797417534722222
 20
43.671580674913187
 10
-0.2797417534722222
 20
43.900851779513886
 10
-0.2797417534722222
 20
44.276194932725687
 10
-0.3972195095486111
 20
44.588320583767356
 10
-0.6301079644097222
 20
44.83619520399305
 10
-0.8648912217881943
 20
45.084069824218744
 10
-1.1479058159722222
 20
45.207231987847216
 10
-1.4838026258680554
 20
45.207231987847216
 10
-1.8024739583333331
 20
45.207231987847216
 10
-2.0730862087673607
 20
45.09681667751736
 10
-2.2980509440104164
 20
44.876330566406246
 10
-2.5237046983506941
 20
44.657222493489577
 10
-2.6675374348958329
 20
44.330627441406243
 10
-2.7319607204861107
 20
43.89947374131944
 10
-2.7319607204861107
 20
43.89947374131944
 10
-2.2270819769965278
 20
43.790608723958329
 10
-2.2270819769965278
 20
43.790608723958329
 10
-2.1905639648437498
 20
44.09567192925347
 10
-2.1039198133680554
 20
44.322014702690971
 10
-1.969216579861111
 20
44.472393120659717
 10
-1.834685601128472
 20
44.621393500434024
 10
-1.6700100368923609
 20
44.695807562934021
 10
-1.4736395941840277
 20
44.695807562934021
 10
-1.2846761067708332
 20
44.695807562934021
 10
-1.1227566189236111
 20
44.62569986979166
 10
-0.9923597547743055
 20
44.482383897569441
 10
-0.8605848524305555
 20
44.339067925347216
 10
-0.7947835286458332
 20
44.150104437934026
 10
-0.7947835286458332
 20
43.915148925781246
 10
-0.7947835286458332
 20
43.660211859809024
 10
-0.8735039605034721
 20
43.456778971354161
 10
-1.0304280598958333
 20
43.303472222222219
 10
-1.1871799045138889
 20
43.150337727864581
 10
-1.392852105034722
 20
43.074373372395833
 10
-1.6434828016493055
 20
43.074373372395833
 10
-1.6434828016493055
 20
43.074373372395833
 10
-1.7228922526041666
 20
43.08143581814236
 10
-1.7228922526041666
 20
43.08143581814236
 10
-1.7228922526041666
 20
43.08143581814236
 10
-1.7802530924479165
 20
42.537282986111109
 10
-1.7802530924479165
 20
42.537282986111109
 10
-1.6391764322916664
 20
42.583102756076386
 10
-1.5187703450520833
 20
42.606012641059024
 10
-1.423513454861111
 20
42.606012641059024
 10
-1.1980319552951388
 20
42.606012641059024
 10
-1.0052788628472222
 20
42.517129177517354
 10
-0.849905056423611
 20
42.338156467013889
 10
-0.6945312499999999
 20
42.157633463541664
 10
-0.6171888563368055
 20
41.921299913194439
 10
-0.6171888563368055
 20
41.627605523003467
 10
-0.6171888563368055
 20
41.315479871961799
 10
-0.7022827148437499
 20
41.061920844184023
 10
-0.8721259223090278
 20
40.867100694444439
 10
-1.0424858940972221
 20
40.669352213541664
 10
-1.2431627061631942
 20
40.572028266059021
 10
-1.4765679253472221
 20
40.572028266059021
 10
-1.9063435872395831
 20
40.572028266059021
 10
-2.1733384874131945
 20
40.901379394531247
 10
-2.2787584092881943
 20
41.563182237413187
 10
-2.2787584092881943
 20
41.563182237413187
 10
-2.7836371527777777
 20
41.482911512586803
 10
-2.7836371527777777
 20
41.482911512586803
 10
-2.7478081597222221
 20
41.050379774305554
 10
-2.6087985568576388
 20
40.703803168402771
 10
-2.3638522677951386
 20
40.447315809461799
 97
        0
 92
       16
 93
        1
 72
     4
 94
        3
 73
     0
 74
     0
 95
       29
 96
       25
 40
0.0
 40
0.0
 40
0.0
 40
0.0
 40
1.0
 40
1.0
 40
1.0
 40
2.0
 40
2.0
 40
2.0
 40
3.0
 40
3.0
 40
3.0
 40
4.0
 40
4.0
 40
4.0
 40
5.0
 40
5.0
 40
5.0
 40
6.0
 40
6.0
 40
6.0
 40
7.0
 40
7.0
 40
7.0
 40
8.0
 40
8.0
 40
8.0
 40
8.0
 10
0.8044297960069444
 20
40.639379882812499
 10
1.0536824544270833
 20
40.255423990885411
 10
1.3759711371527776
 20
40.060603841145827
 10
1.7706068250868054
 20
40.060603841145827
 10
2.2167466905381943
 20
40.060603841145827
 10
2.5541937934027774
 20
40.279884168836801
 10
2.7796752929687498
 20
40.716722276475693
 10
3.0075683593749996
 20
41.152182345920139
 10
3.1205674913194441
 20
41.790903049045134
 10
3.1205674913194441
 20
42.631678602430554
 10
3.1205674913194441
 20
43.569950358072916
 10
2.9824191623263885
 20
44.251734754774304
 10
2.708189561631944
 20
44.677204047309026
 10
2.4825358072916663
 20
45.031015353732634
 10
2.1716159396701387
 20
45.207231987847216
 10
1.7785305447048609
 20
45.207231987847216
 10
1.3337687174479165
 20
45.207231987847216
 10
0.9964938693576388
 20
44.989501953124993
 10
0.7694620768229166
 20
44.554041883680554
 10
0.5415690104166666
 20
44.118581814236109
 10
0.4270195855034722
 20
43.476932779947916
 10
0.4270195855034722
 20
42.631678602430554
 10
0.4270195855034722
 20
41.68789469401041
 10
0.5537990993923611
 20
41.024713812934024
 10
0.8044297960069444
 20
40.639379882812499
 97
        0
 92
        1
 93
        1
 72
     4
 94
        3
 73
     0
 74
     0
 95
       29
 96
       25
 40
0.0
 40
0.0
 40
0.0
 40
0.0
 40
1.0
 40
1.0
 40
1.0
 40
2.0
 40
2.0
 40
2.0
 40
3.0
 40
3.0
 40
3.0
 40
4.0
 40
4.0
 40
4.0
 40
5.0
 40
5.0
 40
5.0
 40
6.0
 40
6.0
 40
6.0
 40
7.0
 40
7.0
 40
7.0
 40
8.0
 40
8.0
 40
8.0
 40
8.0
 10
1.1768446180555554
 20
44.273266601562497
 10
1.3323906792534721
 20
44.555419921874993
 10
1.524282497829861
 20
44.695807562934021
 10
1.7563096788194443
 20
44.695807562934021
 10
2.0055623372395832
 20
44.695807562934021
 10
2.2110622829861111
 20
44.55834825303819
 10
2.3693644205729165
 20
44.280329047309024
 10
2.5262885199652776
 20
44.004032389322916
 10
2.6056979709201387
 20
43.453850640190971
 10
2.6056979709201387
 20
42.633228895399299
 10
2.6056979709201387
 20
41.822425672743051
 10
2.5262885199652776
 20
41.27534450954861
 10
2.3693644205729165
 20
40.994569227430553
 10
2.2139906141493055
 20
40.71241590711805
 10
2.0191704644097221
 20
40.572028266059021
 10
1.7871432834201386
 20
40.572028266059021
 10
1.5406467013888887
 20
40.572028266059021
 10
1.3380750868055555
 20
40.710865614149299
 10
1.1797729492187499
 20
40.99026285807291
 10
1.0228488498263888
 20
41.268109809027777
 10
0.9434393988715277
 20
41.815363226996524
 10
0.9434393988715277
 20
42.633228895399299
 10
0.9434393988715277
 20
43.445410156249999
 10
1.0214708116319444
 20
43.99249131944444
 10
1.1768446180555554
 20
44.273266601562497
 97
        0
 92
       16
 93
        1
 72
     4
 94
        3
 73
     0
 74
     0
 95
       29
 96
       25
 40
0.0
 40
0.0
 40
0.0
 40
0.0
 40
1.0
 40
1.0
 40
1.0
 40
2.0
 40
2.0
 40
2.0
 40
3.0
 40
3.0
 40
3.0
 40
4.0
 40
4.0
 40
4.0
 40
5.0
 40
5.0
 40
5.0
 40
6.0
 40
6.0
 40
6.0
 40
7.0
 40
7.0
 40
7.0
 40
8.0
 40
8.0
 40
8.0
 40
8.0
 10
4.0137084960937495
 20
40.639379882812499
 10
4.2643391927083325
 20
40.255423990885411
 10
4.5873168945312495
 20
40.060603841145827
 10
4.9812635633680555
 20
40.060603841145827
 10
5.4274034288194439
 20
40.060603841145827
 10
5.7648505316840275
 20
40.279884168836801
 10
5.9903320312499995
 20
40.716722276475693
 10
6.2182250976562496
 20
41.152182345920139
 10
6.3312242296006938
 20
41.790903049045134
 10
6.3312242296006938
 20
42.631678602430554
 10
6.3312242296006938
 20
43.569950358072916
 10
6.1930759006076386
 20
44.251734754774304
 10
5.9188462999131941
 20
44.677204047309026
 10
5.6931925455729164
 20
45.031015353732634
 10
5.3822726779513888
 20
45.207231987847216
 10
4.9891872829861104
 20
45.207231987847216
 10
4.5444254557291659
 20
45.207231987847216
 10
4.2071506076388889
 20
44.989501953124993
 10
3.9801188151041664
 20
44.554041883680554
 10
3.752398003472222
 20
44.118581814236109
 10
3.638365342881944
 20
43.476932779947916
 10
3.638365342881944
 20
42.631678602430554
 10
3.638365342881944
 20
41.68789469401041
 10
3.7644558376736108
 20
41.024713812934024
 10
4.0137084960937495
 20
40.639379882812499
 97
        0
 92
        1
 93
        1
 72
     4
 94
        3
 73
     0
 74
     0
 95
       29
 96
       25
 40
0.0
 40
0.0
 40
0.0
 40
0.0
 40
1.0
 40
1.0
 40
1.0
 40
2.0
 40
2.0
 40
2.0
 40
3.0
 40
3.0
 40
3.0
 40
4.0
 40
4.0
 40
4.0
 40
5.0
 40
5.0
 40
5.0
 40
6.0
 40
6.0
 40
6.0
 40
7.0
 40
7.0
 40
7.0
 40
8.0
 40
8.0
 40
8.0
 40
8.0
 10
4.3875013563368048
 20
44.273266601562497
 10
4.543047417534722
 20
44.555419921874993
 10
4.7349392361111109
 20
44.695807562934021
 10
4.9669664171006938
 20
44.695807562934021
 10
5.2162190755208329
 20
44.695807562934021
 10
5.4217190212673607
 20
44.55834825303819
 10
5.5786431206597218
 20
44.280329047309024
 10
5.7369452582465277
 20
44.004032389322916
 10
5.8163547092013888
 20
43.453850640190971
 10
5.8163547092013888
 20
42.633228895399299
 10
5.8163547092013888
 20
41.822425672743051
 10
5.7369452582465277
 20
41.27534450954861
 10
5.5800211588541657
 20
40.994569227430553
 10
5.4232693142361104
 20
40.71241590711805
 10
5.2298272026909718
 20
40.572028266059021
 10
4.997800021701388
 20
40.572028266059021
 10
4.7499254014756938
 20
40.572028266059021
 10
4.5487318250868052
 20
40.710865614149299
 10
4.3904296874999993
 20
40.99026285807291
 10
4.2336778428819439
 20
41.268109809027777
 10
4.1540961371527771
 20
41.815363226996524
 10
4.1540961371527771
 20
42.633228895399299
 10
4.1540961371527771
 20
43.445410156249999
 10
4.2321275499131943
 20
43.99249131944444
 10
4.3875013563368048
 20
44.273266601562497
 97
        0
 75
     2
 76
     1
 98
        1
 10
0.0
 20
0.0
  0
LINE
  5
2C
100
AcDbEntity
  8
LIVELLO_1
 62
     7
100
AcDbLine
 10
8.47993
 20
41.553191
 30
0.0
 11
20.355002
 21
41.553191
 31
0.0
  0
ENDBLK
  5
7E
100
AcDbEntity
  8
LIVELLO_1
100
AcDbBlockEnd
  0
ENDSEC
  0
SECTION
  2
ENTITIES
  0
INSERT
  5
2A
100
AcDbEntity
  8
LIVELLO_1
 62
     7
100
AcDbBlockReference
  2
AI9-BLK1
 10
79.707107
 20
134.017143
 30
0.0
  0
ENDSEC
  0
SECTION
  2
OBJECTS
  0
DICTIONARY
  5
19
100
AcDbDictionary
280
     0
281
     1
  3
ACAD_GROUP
350
1A
  3
ACAD_MLINESTYLE
350
1B
  3
ACAD_LAYOUT
350
1E
  3
ACAD_PLOTSETTINGS
350
22
  3
ACAD_PLOTSTYLENAME
350
1F
  3
ACAD_WIPEOUT_VARS
350
23
  0
DICTIONARY
  5
1A
102
{ACAD_REACTORS
330
19
102
}
100
AcDbDictionary
280
     0
281
     1
  0
DICTIONARY
  5
1B
102
{ACAD_REACTORS
330
19
102
}
100
AcDbDictionary
280
     0
281
     1
  3
Standard
350
1C
  0
MLINESTYLE
  5
1C
102
{ACAD_REACTORS
330
1B
102
}
100
AcDbMlineStyle
  2
Standard
 70
     0
  3

 62
     0
 51
90.0
 52
90.0
 71
     2
 49
0.5
 62
   256
  6
ByLayer
 49
-0.5
 62
   256
  6
ByLayer
  0
ACDBDICTIONARYWDFLT
  5
1F
102
{ACAD_REACTORS
330
19
102
}
100
AcDbDictionary
281
     1
  3
Normal
350
1D
100
AcDbDictionaryWithDefault
340
1D
  0
ACDBPLACEHOLDER
  5
1D
102
{ACAD_REACTORS
330
1F
102
}
  0
LAYOUT
  5
20
102
{ACAD_REACTORS
330
1E
102
}
100
AcDbPlotSettings
  1

  2

  4

  6

 40
0.0
 41
0.0
 42
0.0
 43
0.0
 44
0.0
 45
0.0
 46
0.0
 47
0.0
 48
0.0
 49
0.0
140
0.0
141
0.0
142
1.0
143
1.0
 70
  1024
 72
     0
 73
     0
 74
     0
  7

 75
     0
147
1.0
148
0.0
149
0.0
100
AcDbLayout
  1
Model
 70
     0
 71
     0
 10
0.0
 20
0.0
 11
0.0
 21
0.0
 12
0.0
 22
0.0
 32
0.0
 14
0.0
 24
0.0
 34
0.0
 15
0.0
 25
0.0
 35
0.0
146
0.0
 13
0.0
 23
0.0
 33
0.0
 16
0.0
 26
0.0
 36
0.0
 17
0.0
 27
0.0
 37
0.0
 76
     0
330
A
331
0
345
0
346
0
  0
LAYOUT
  5
21
102
{ACAD_REACTORS
330
1E
102
}
100
AcDbPlotSettings
  1

  2

  4

  6

 40
0.0
 41
0.0
 42
0.0
 43
0.0
 44
0.0
 45
0.0
 46
0.0
 47
0.0
 48
0.0
 49
0.0
140
0.0
141
0.0
142
1.0
143
1.0
 70
     0
 72
     0
 73
     0
 74
     0
  7

 75
     0
147
1.0
148
0.0
149
0.0
100
AcDbLayout
  1
Layout1
 70
     0
 71
     0
 10
0.0
 20
0.0
 11
0.0
 21
0.0
 12
0.0
 22
0.0
 32
0.0
 14
0.0
 24
0.0
 34
0.0
 15
0.0
 25
0.0
 35
0.0
146
0.0
 13
0.0
 23
0.0
 33
0.0
 16
0.0
 26
0.0
 36
0.0
 17
0.0
 27
0.0
 37
0.0
 76
     0
330
B
331
0
345
0
346
0
  0
DICTIONARY
  5
1E
102
{ACAD_REACTORS
330
19
102
}
100
AcDbDictionary
280
     0
281
     1
  3
Layout1
350
21
  3
Model
350
20
  0
DICTIONARY
  5
22
102
{ACAD_REACTORS
330
19
102
}
100
AcDbDictionary
280
     0
281
     1
  0
WIPEOUTVARIABLES
  5
23
100
AcDbWipeoutVariables
 70
     1
  0
ENDSEC
  0
EOF
