  0
SECTION
  2
HEADER
  9
$ACADVER
  1
AC1015
  9
$ACADMAINTVER
 70
     6
  9
$DWGCODEPAGE
  3
ANSI_932
  9
$INSBASE
 10
0.0
 20
0.0
 30
0.0
  9
$EXTMIN
 10
8.077026
 20
103.592299
 30
1.000000E+20
  9
$EXTMAX
 10
194.055339
 20
171.889422
 30
-1.000000E+20
  9
$LIMMIN
 10
8.077026
 20
103.592299
  9
$LIMMAX
 10
194.055339
 20
171.889422
  9
$ORTHOMODE
 70
     0
  9
$REGENMODE
 70
     1
  9
$FILLMODE
 70
     1
  9
$QTEXTMODE
 70
     0
  9
$MIRRTEXT
 70
     1
  9
$LTSCALE
 40
1.0
  9
$ATTMODE
 70
     1
  9
$TEXTSIZE
 40
0.2
  9
$TRACEWID
 40
0.05
  9
$TEXTSTYLE
  7
Standard
  9
$CLAYER
  8
0
  9
$CELTYPE
  6
Continuous
  9
$CECOLOR
 62
   256
  9
$CELTSCALE
 40
1.0
  9
$DISPSILH
 70
     0
  9
$DIMSCALE
 40
1.0
  9
$DIMASZ
 40
0.18
  9
$DIMEXO
 40
0.0625
  9
$DIMDLI
 40
0.38
  9
$DIMRND
 40
0.0
  9
$DIMDLE
 40
0.0
  9
$DIMEXE
 40
0.18
  9
$DIMTP
 40
0.0
  9
$DIMTM
 40
0.0
  9
$DIMTXT
 40
0.18
  9
$DIMCEN
 40
0.09
  9
$DIMTSZ
 40
0.0
  9
$DIMTOL
 70
     0
  9
$DIMLIM
 70
     0
  9
$DIMTIH
 70
     1
  9
$DIMTOH
 70
     1
  9
$DIMSE1
 70
     0
  9
$DIMSE2
 70
     0
  9
$DIMTAD
 70
     0
  9
$DIMZIN
 70
     0
  9
$DIMBLK
  1

  9
$DIMASO
 70
     1
  9
$DIMSHO
 70
     1
  9
$DIMPOST
  1

  9
$DIMAPOST
  1

  9
$DIMALT
 70
     0
  9
$DIMALTD
 70
     2
  9
$DIMALTF
 40
25.4
  9
$DIMLFAC
 40
1.0
  9
$DIMTOFL
 70
     0
  9
$DIMTVP
 40
0.0
  9
$DIMTIX
 70
     0
  9
$DIMSOXD
 70
     0
  9
$DIMSAH
 70
     0
  9
$DIMBLK1
  1

  9
$DIMBLK2
  1

  9
$DIMSTYLE
  2
Standard
  9
$DIMCLRD
 70
     0
  9
$DIMCLRE
 70
     0
  9
$DIMCLRT
 70
     0
  9
$DIMTFAC
 40
1.0
  9
$DIMGAP
 40
0.09
  9
$DIMJUST
 70
     0
  9
$DIMSD1
 70
     0
  9
$DIMSD2
 70
     0
  9
$DIMTOLJ
 70
     1
  9
$DIMTZIN
 70
     0
  9
$DIMALTZ
 70
     0
  9
$DIMALTTZ
 70
     0
  9
$DIMUPT
 70
     0
  9
$DIMDEC
 70
     4
  9
$DIMTDEC
 70
     4
  9
$DIMALTU
 70
     2
  9
$DIMALTTD
 70
     2
  9
$DIMTXSTY
  7
Standard
  9
$DIMAUNIT
 70
     0
  9
$DIMADEC
 70
     0
  9
$DIMALTRND
 40
0.0
  9
$DIMAZIN
 70
     0
  9
$DIMDSEP
 70
     0
  9
$DIMATFIT
 70
     3
  9
$DIMFRAC
 70
     0
  9
$DIMLDRBLK
  1

  9
$DIMLUNIT
 70
     2
  9
$DIMLWD
 70
     0
  9
$DIMLWE
 70
     0
  9
$DIMTMOVE
 70
     0
  9
$LUNITS
 70
     2
  9
$LUPREC
 70
     4
  9
$SKETCHINC
 40
0.1
  9
$FILLETRAD
 40
0.0
  9
$AUNITS
 70
     0
  9
$AUPREC
 70
     0
  9
$MENU
  1
acad
  9
$ELEVATION
 40
0.0
  9
$PELEVATION
 40
0.0
  9
$THICKNESS
 40
0.0
  9
$LIMCHECK
 70
     0
  9
$CHAMFERA
 40
0.0
  9
$CHAMFERB
 40
0.0
  9
$CHAMFERC
 40
0.0
  9
$CHAMFERD
 40
0.0
  9
$SKPOLY
 70
     0
  9
$TDCREATE
 40
0.000000000
  9
$TDUCREATE
 40
0.000000000
  9
$TDUPDATE
 40
0.000000000
  9
$TDUUPDATE
 40
0.000000000
  9
$TDINDWG
 40
0.0000000000
  9
$TDUSRTIMER
 40
0.0000000000
  9
$USRTIMER
 70
     1
  9
$ANGBASE
 50
0.0
  9
$ANGDIR
 70
     0
  9
$PDMODE
 70
     0
  9
$PDSIZE
 40
0.0
  9
$PLINEWID
 40
0.0
  9
$SPLFRAME
 70
     0
  9
$SPLINETYPE
 70
     6
  9
$SPLINESEGS
 70
     8
  9
$HANDSEED
  5
8E
  9
$SURFTAB1
 70
     6
  9
$SURFTAB2
 70
     6
  9
$SURFTYPE
 70
     6
  9
$SURFU
 70
     6
  9
$SURFV
 70
     6
  9
$UCSBASE
  2

  9
$UCSNAME
  2

  9
$UCSORG
 10
0.0
 20
0.0
 30
0.0
  9
$UCSXDIR
 10
1.0
 20
0.0
 30
0.0
  9
$UCSYDIR
 10
0.0
 20
1.0
 30
0.0
  9
$UCSORTHOREF
  2

  9
$UCSORTHOVIEW
 70
     0
  9
$UCSORGTOP
 10
0.0
 20
0.0
 30
0.0
  9
$UCSORGBOTTOM
 10
0.0
 20
0.0
 30
0.0
  9
$UCSORGLEFT
 10
0.0
 20
0.0
 30
0.0
  9
$UCSORGRIGHT
 10
0.0
 20
0.0
 30
0.0
  9
$UCSORGFRONT
 10
0.0
 20
0.0
 30
0.0
  9
$UCSORGBACK
 10
0.0
 20
0.0
 30
0.0
  9
$PUCSBASE
  2

  9
$PUCSNAME
  2

  9
$PUCSORG
 10
0.0
 20
0.0
 30
0.0
  9
$PUCSXDIR
 10
1.0
 20
0.0
 30
0.0
  9
$PUCSYDIR
 10
0.0
 20
1.0
 30
0.0
  9
$PUCSORTHOREF
  2

  9
$PUCSORTHOVIEW
 70
     0
  9
$PUCSORGTOP
 10
0.0
 20
0.0
 30
0.0
  9
$PUCSORGBOTTOM
 10
0.0
 20
0.0
 30
0.0
  9
$PUCSORGLEFT
 10
0.0
 20
0.0
 30
0.0
  9
$PUCSORGRIGHT
 10
0.0
 20
0.0
 30
0.0
  9
$PUCSORGFRONT
 10
0.0
 20
0.0
 30
0.0
  9
$PUCSORGBACK
 10
0.0
 20
0.0
 30
0.0
  9
$USERI1
 70
     0
  9
$USERI2
 70
     0
  9
$USERI3
 70
     0
  9
$USERI4
 70
     0
  9
$USERI5
 70
     0
  9
$USERR1
 40
0.0
  9
$USERR2
 40
0.0
  9
$USERR3
 40
0.0
  9
$USERR4
 40
0.0
  9
$USERR5
 40
0.0
  9
$WORLDVIEW
 70
     1
  9
$SHADEDGE
 70
     3
  9
$SHADEDIF
 70
    70
  9
$TILEMODE
 70
     1
  9
$MAXACTVP
 70
    16
  9
$PINSBASE
 10
0.0
 20
0.0
 30
0.0
  9
$PLIMCHECK
 70
     0
  9
$PEXTMIN
 10
1.000000E+20
 20
1.000000E+20
 30
1.000000E+20
  9
$PEXTMAX
 10
-1.000000E+20
 20
-1.000000E+20
 30
-1.000000E+20
  9
$PLIMMIN
 10
0.0
 20
0.0
  9
$PLIMMAX
 10
12.0
 20
9.0
  9
$UNITMODE
 70
     0
  9
$VISRETAIN
 70
     0
  9
$PLINEGEN
 70
     1
  9
$PSLTSCALE
 70
     0
  9
$TREEDEPTH
 70
  3020
  9
$CMLSTYLE
  2
Standard
  9
$CMLJUST
 70
     0
  9
$CMLSCALE
 40
1.0
  9
$PROXYGRAPHICS
 70
     0
  9
$MEASUREMENT
 70
     1
  9
$CELWEIGHT
370
     0
  9
$ENDCAPS
280
     0
  9
$JOINSTYLE
280
     0
  9
$LWDISPLAY
290
     0
  9
$INSUNITS
 70
     0
  9
$HYPERLINKBASE
  1

  9
$STYLESHEET
  1

  9
$XEDIT
290
     1
  9
$CEPSNTYPE
380
     0
  9
$PSTYLEMODE
290
     1
  9
$FINGERPRINTGUID
  2

  9
$VERSIONGUID
  2

  9
$EXTNAMES
290
     1
  9
$PSVPSCALE
 40
0.0
  0
ENDSEC
  0
SECTION
  2
CLASSES
  0
CLASS
  1
LWPOLYLINE
  2
AcDbPolyline
  3
AutoCAD 2000
 90
    32768
280
     0
281
     1
  0
CLASS
  1
IMAGE
  2
AcDbRasterImage
  3
ISM
 90
    32895
280
     0
281
     1
  0
CLASS
  1
OLE2FRAME
  2
AcDbOle2Frame
  3
AutoCAD 2000
 90
    32768
280
     0
281
     1
  0
CLASS
  1
HATCH
  2
AcDbHatch
  3
AutoCAD 2000
 90
    32768
280
     0
281
     1
  0
CLASS
  1
DICTIONARYVAR
  2
AcDbDictionaryVar
  3
AutoCAD 2000
 90
    32768
280
     0
281
     0
  0
CLASS
  1
RASTERVARIABLES
  2
AcDbRasterVariables
  3
ISM
 90
    32768
280
     0
281
     0
  0
CLASS
  1
IMAGEDEF
  2
AcDbRasterImageDef
  3
ISM
 90
    32768
280
     0
281
     0
  0
CLASS
  1
IMAGEDEF_REACTOR
  2
AcDbRasterImageDefReactor
  3
ISM
 90
    32769
280
     0
281
     0
  0
CLASS
  1
IDBUFFER
  2
AcDbIdBuffer
  3
AutoCAD 2000
 90
    32768
280
     0
281
     0
  0
CLASS
  1
SPATIAL_FILTER
  2
AcDbSpatialFilter
  3
AutoCAD 2000
 90
    32768
280
     0
281
     0
  0
CLASS
  1
XRECORD
  2
AcDbXrecord
  3
AutoCAD 2000
 90
    32768
280
     0
281
     0
  0
CLASS
  1
SORTENTSTABLE
  2
AcDbSortentsTable
  3
AutoCAD 2000
 90
    32768
280
     0
281
     0
  0
CLASS
  1
LAYER_INDEX
  2
AcDbLayerIndex
  3
AutoCAD 2000
 90
    32768
280
     0
281
     0
  0
CLASS
  1
SPATIAL_INDEX
  2
AcDbSpatialIndex
  3
AutoCAD 2000
 90
    32768
280
     0
281
     0
  0
CLASS
  1
OBJECT_PTR
  2
CAseDLPNTableRecord
  3
"ASE-LPNTableRecord"
 90
    32769
280
     0
281
     0
  0
CLASS
  1
LAYOUT
  2
AcDbLayout
  3
AutoCAD 2000
 90
        0
280
     0
281
     0
  0
CLASS
  1
PLOTSETTINGS
  2
AcDbPlotSettings
  3
AutoCAD 2000
 90
    32768
280
     0
281
     0
  0
CLASS
  1
ACDBDICTIONARYWDFLT
  2
AcDbDictionaryWithDefault
  3
AutoCAD 2000
 90
        0
280
     0
281
     0
  0
CLASS
  1
ACDBPLACEHOLDER
  2
AcDbPlaceHolder
  3
AutoCAD 2000
 90
        0
280
     0
281
     0
  0
CLASS
  1
VBA_PROJECT
  2
AcDbVbaProject
  3
acadvba
 90
    32768
280
     0
281
     0
  0
CLASS
  1
WIPEOUT
  2
AcDbWipeout
  3
WipeOut|AutoCAD Express Tool|expresstools@autodesk.com
 90
    32895
280
     0
281
     1
  0
CLASS
  1
WIPEOUTVARIABLES
  2
AcDbWipeoutVariables
  3
WipeOut|AutoCAD Express Tool|expresstools@autodesk.com
 90
        0
280
     0
281
     0
  0
CLASS
  1
RTEXT
  2
RText
  3
RText|AutoCAD Express Tool|expresstools@autodesk.com
 90
    32768
280
     0
281
     1
  0
CLASS
  1
ARCALIGNEDTEXT
  2
AcDbArcAlignedText
  3
ATEXT|AutoCAD Express Tool|expresstools@autodesk.com
 90
    32768
280
     0
281
     1
  0
ENDSEC
  0
SECTION
  2
TABLES
  0
TABLE
  2
VPORT
  5
7
100
AcDbSymbolTable
 70
     1
  0
VPORT
  5
15
100
AcDbSymbolTableRecord
100
AcDbViewportTableRecord
  2
*ACTIVE
 70
     0
 10
0.0
 20
0.0
 11
1.0
 21
1.0
 12
6.591288
 22
4.579184
 13
0.0
 23
0.0
 14
1.0
 24
1.0
 15
0.0
 25
0.0
 16
0.0
 26
0.0
 36
1.0
 17
0.0
 27
0.0
 37
0.0
 40
9.158369
 41
0.688564
 42
50.0
 43
0.0
 44
0.0
 50
0.0
 51
0.0
 71
     0
 72
   100
 73
     1
 74
     1
 75
     0
 76
     0
 77
     0
 78
     0
281
     0
 65
     0
110
0.0
120
0.0
130
0.0
111
1.0
121
0.0
131
0.0
112
0.0
122
1.0
132
0.0
345
0
346
0
 79
     0
146
0.0
  0
ENDTAB
  0
TABLE
  2
LTYPE
  5
4
100
AcDbSymbolTable
 70
     3
  0
LTYPE
  5
11
100
AcDbSymbolTableRecord
100
AcDbLinetypeTableRecord
  2
ByBlock
 70
    64
  3

 72
    65
 73
     0
 40
0.0
  0
LTYPE
  5
12
100
AcDbSymbolTableRecord
100
AcDbLinetypeTableRecord
  2
ByLayer
 70
    64
  3

 72
    65
 73
     0
 40
0.0
  0
LTYPE
  5
13
100
AcDbSymbolTableRecord
100
AcDbLinetypeTableRecord
  2
Continuous
 70
    64
  3
Solid line
 72
    65
 73
     0
 40
0.0
  0
ENDTAB
  0
TABLE
  2
LAYER
  5
2
100
AcDbSymbolTable
 70
     2
  0
LAYER
  5
14
100
AcDbSymbolTableRecord
100
AcDbLayerTableRecord
  2
0
 70
     0
 62
     7
  6
Continuous
290
     1
370
    -3
390
1D
  0
LAYER
  5
28
100
AcDbSymbolTableRecord
100
AcDbLayerTableRecord
  2
LIVELLO_1
 70
     0
 62
   160
  6
Continuous
290
     1
370
    -3
390
1D
  0
ENDTAB
  0
TABLE
  2
STYLE
  5
3
100
AcDbSymbolTable
 70
     5
  0
STYLE
  5
17
100
AcDbSymbolTableRecord
100
AcDbTextStyleTableRecord
  2
Standard
 70
     0
 40
0.0
 41
1.0
 50
0.0
 71
     0
 42
0.0
  3
txt
  4

  0
STYLE
  5
24
100
AcDbSymbolTableRecord
100
AcDbTextStyleTableRecord
  2
STD
 70
     0
 40
0.0
 41
1.0
 50
0.0
 71
     0
 42
0.0
  3
txt
  4

  0
STYLE
  5
25
100
AcDbSymbolTableRecord
100
AcDbTextStyleTableRecord
  2
TATESTD
 70
     4
 40
0.0
 41
1.0
 50
0.0
 71
     0
 42
0.0
  3
txt
  4

  0
STYLE
  5
26
100
AcDbSymbolTableRecord
100
AcDbTextStyleTableRecord
  2
KANJISTD
 70
     0
 40
0.0
 41
1.0
 50
0.0
 71
     0
 42
0.0
  3
txt
  4
extfont
  0
STYLE
  5
27
100
AcDbSymbolTableRecord
100
AcDbTextStyleTableRecord
  2
KANJITATE
 70
     4
 40
0.0
 41
1.0
 50
0.0
 71
     0
 42
0.0
  3
txt
  4
extfont
  0
ENDTAB
  0
TABLE
  2
VIEW
  5
5
100
AcDbSymbolTable
 70
     0
  0
ENDTAB
  0
TABLE
  2
UCS
  5
6
100
AcDbSymbolTable
 70
     0
  0
ENDTAB
  0
TABLE
  2
APPID
  5
8
100
AcDbSymbolTable
 70
     1
  0
APPID
  5
16
100
AcDbSymbolTableRecord
100
AcDbRegAppTableRecord
  2
ACAD
 70
     0
  0
ENDTAB
  0
TABLE
  2
DIMSTYLE
  5
9
100
AcDbSymbolTable
 70
     1
100
AcDbDimStyleTable
 71
     0
  0
DIMSTYLE
105
18
100
AcDbSymbolTableRecord
100
AcDbDimStyleTableRecord
  2
Standard
 70
     0
  3

  4

 40
1.0
 41
0.18
 42
0.0625
 43
0.38
 44
0.18
 45
0.0
 46
0.0
 47
0.0
 48
0.0
 71
     0
 72
     0
 73
     1
 74
     1
 75
     0
 76
     0
 77
     0
 78
     0
 79
     0
140
0.18
141
0.09
142
0.0
143
25.4
144
1.0
145
0.0
146
1.0
147
0.09
148
0.0
170
     0
171
     2
172
     0
173
     0
174
     0
175
     0
176
     0
177
     0
178
     0
179
     0
271
     4
272
     4
273
     2
274
     2
275
     0
276
     0
277
     2
278
    46
279
     0
280
     0
281
     0
282
     0
283
     1
284
     0
285
     0
286
     0
288
     0
340
17
341
0
342
0
343
0
344
0
371
    -2
372
    -2
  0
ENDTAB
  0
TABLE
  2
BLOCK_RECORD
  5
1
100
AcDbSymbolTable
 70
     1
  0
BLOCK_RECORD
  5
A
100
AcDbSymbolTableRecord
100
AcDbBlockTableRecord
  2
*MODEL_SPACE
340
20
  0
BLOCK_RECORD
  5
B
100
AcDbSymbolTableRecord
100
AcDbBlockTableRecord
  2
*PAPER_SPACE
340
21
  0
BLOCK_RECORD
  5
29
100
AcDbSymbolTableRecord
100
AcDbBlockTableRecord
  2
AI9-BLK1
340
0
102
{BLKREFS
331
2A
102
}
  0
ENDTAB
  0
ENDSEC
  0
SECTION
  2
BLOCKS
  0
BLOCK
  5
D
100
AcDbEntity
  8
0
100
AcDbBlockBegin
  2
*MODEL_SPACE
 70
     0
 10
0.0
 20
0.0
 30
0.0
  3
*MODEL_SPACE
  1

  0
ENDBLK
  5
E
100
AcDbEntity
  8
0
100
AcDbBlockEnd
  0
BLOCK
  5
F
100
AcDbEntity
 67
     1
  8
0
100
AcDbBlockBegin
  2
*PAPER_SPACE
 70
     0
 10
0.0
 20
0.0
 30
0.0
  3
*PAPER_SPACE
  1

  0
ENDBLK
  5
10
100
AcDbEntity
 67
     1
  8
0
100
AcDbBlockEnd
  0
BLOCK
  5
2B
100
AcDbEntity
  8
LIVELLO_1
 62
     7
100
AcDbBlockBegin
  2
AI9-BLK1
 70
     0
 10
0.0
 20
0.0
 30
0.0
  3
AI9-BLK1
  1

  0
CIRCLE
  5
8C
100
AcDbEntity
  8
LIVELLO_1
 62
     7
100
AcDbCircle
 10
-57.307785
 20
-0.000086
 30
0.0
 40
33.243449
  0
CIRCLE
  5
8B
100
AcDbEntity
  8
LIVELLO_1
 62
     7
100
AcDbCircle
 10
-57.306666
 20
0.000086
 30
0.0
 40
5.869968
  0
SPLINE
  5
8A
100
AcDbEntity
  8
LIVELLO_1
 62
     7
100
AcDbSpline
210
0.0
220
0.0
230
1.0
 70
     8
 71
     3
 72
     8
 73
     4
 74
     0
 42
0.00000001
 43
0.00000001
 40
0.0
 40
0.0
 40
0.0
 40
0.0
 40
1.0
 40
1.0
 40
1.0
 40
1.0
 10
-15.275036621093749
 20
6.40985853407118
 30
0.0
 10
-17.886935763888886
 20
6.40985853407118
 30
0.0
 10
-20.187915039062499
 20
4.6759419759114582
 30
0.0
 10
-20.898465983072914
 20
2.1599887424045137
 30
0.0
  0
SPLINE
  5
89
100
AcDbEntity
  8
LIVELLO_1
 62
     7
100
AcDbSpline
210
0.0
220
0.0
230
1.0
 70
     8
 71
     3
 72
     8
 73
     4
 74
     0
 42
0.00000001
 43
0.00000001
 40
0.0
 40
0.0
 40
0.0
 40
0.0
 40
1.0
 40
1.0
 40
1.0
 40
1.0
 10
-13.930071343315971
 20
-5.2800394694010411
 30
0.0
 10
-11.318344455295138
 20
-5.2800394694010411
 30
0.0
 10
-9.0216715494791657
 20
-3.5416442871093747
 30
0.0
 10
-8.3111206054687496
 20
-1.0212124294704861
 30
0.0
  0
LINE
  5
88
100
AcDbEntity
  8
LIVELLO_1
 62
     7
100
AcDbLine
 10
-13.930071
 20
-5.280039
 30
0.0
 11
-15.275037
 21
-5.280039
 31
0.0
  0
LINE
  5
87
100
AcDbEntity
  8
LIVELLO_1
 62
     7
100
AcDbLine
 10
-13.930071
 20
6.409859
 30
0.0
 11
-15.275037
 21
6.409859
 31
0.0
  0
SPLINE
  5
86
100
AcDbEntity
  8
LIVELLO_1
 62
     7
100
AcDbSpline
210
0.0
220
0.0
230
1.0
 70
     8
 71
     3
 72
     8
 73
     4
 74
     0
 42
0.00000001
 43
0.00000001
 40
0.0
 40
0.0
 40
0.0
 40
0.0
 40
1.0
 40
1.0
 40
1.0
 40
1.0
 10
-15.275036621093749
 20
3.2245232476128471
 30
0.0
 10
-16.115984429253469
 20
3.2245232476128471
 30
0.0
 10
-16.898193359375
 20
2.8290262858072914
 30
0.0
 10
-17.402383083767358
 20
2.1599887424045137
 30
0.0
  0
SPLINE
  5
85
100
AcDbEntity
  8
LIVELLO_1
 62
     7
100
AcDbSpline
210
0.0
220
0.0
230
1.0
 70
     8
 71
     3
 72
    11
 73
     7
 74
     0
 42
0.00000001
 43
0.00000001
 40
0.0
 40
0.0
 40
0.0
 40
0.0
 40
1.0
 40
1.0
 40
1.0
 40
2.0
 40
2.0
 40
2.0
 40
2.0
 10
-17.402383083767358
 20
-1.0212124294704861
 30
0.0
 10
-16.898193359375
 20
-1.6947285970052082
 30
0.0
 10
-16.115984429253469
 20
-2.0857469346788191
 30
0.0
 10
-15.275036621093749
 20
-2.0857469346788191
 30
0.0
 10
-15.275036621093749
 20
-2.0857469346788191
 30
0.0
 10
-13.930071343315971
 20
-2.0857469346788191
 30
0.0
 10
-13.930071343315971
 20
-2.0857469346788191
 30
0.0
  0
SPLINE
  5
84
100
AcDbEntity
  8
LIVELLO_1
 62
     7
100
AcDbSpline
210
0.0
220
0.0
230
1.0
 70
     8
 71
     3
 72
    11
 73
     7
 74
     0
 42
0.00000001
 43
0.00000001
 40
0.0
 40
0.0
 40
0.0
 40
0.0
 40
1.0
 40
1.0
 40
1.0
 40
2.0
 40
2.0
 40
2.0
 40
2.0
 10
-11.500934516059028
 20
1.6428799099392359
 30
0.0
 10
-11.928987630208333
 20
2.6030280219184023
 30
0.0
 10
-12.880695258246526
 20
3.2245232476128471
 30
0.0
 10
-13.930071343315971
 20
3.2245232476128471
 30
0.0
 10
-13.930071343315971
 20
3.2245232476128471
 30
0.0
 10
-15.275036621093749
 20
3.2245232476128471
 30
0.0
 10
-15.275036621093749
 20
3.2245232476128471
 30
0.0
  0
SPLINE
  5
83
100
AcDbEntity
  8
LIVELLO_1
 62
     7
100
AcDbSpline
210
0.0
220
0.0
230
1.0
 70
     8
 71
     3
 72
     8
 73
     4
 74
     0
 42
0.00000001
 43
0.00000001
 40
0.0
 40
0.0
 40
0.0
 40
0.0
 40
1.0
 40
1.0
 40
1.0
 40
1.0
 10
-20.898465983072914
 20
-1.0212124294704861
 30
0.0
 10
-20.187915039062499
 20
-3.5416442871093747
 30
0.0
 10
-17.886935763888886
 20
-5.2800394694010411
 30
0.0
 10
-15.275036621093749
 20
-5.2800394694010411
 30
0.0
  0
SPLINE
  5
82
100
AcDbEntity
  8
LIVELLO_1
 62
     7
100
AcDbSpline
210
0.0
220
0.0
230
1.0
 70
     8
 71
     3
 72
     8
 73
     4
 74
     0
 42
0.00000001
 43
0.00000001
 40
0.0
 40
0.0
 40
0.0
 40
0.0
 40
1.0
 40
1.0
 40
1.0
 40
1.0
 10
-13.930071343315971
 20
-2.0857469346788191
 30
0.0
 10
-12.880695258246526
 20
-2.0857469346788191
 30
0.0
 10
-11.928987630208333
 20
-1.4773430718315972
 30
0.0
 10
-11.500934516059028
 20
-0.512716335720486
 30
0.0
  0
SPLINE
  5
81
100
AcDbEntity
  8
LIVELLO_1
 62
     7
100
AcDbSpline
210
0.0
220
0.0
230
1.0
 70
     8
 71
     3
 72
     8
 73
     4
 74
     0
 42
0.00000001
 43
0.00000001
 40
0.0
 40
0.0
 40
0.0
 40
0.0
 40
1.0
 40
1.0
 40
1.0
 40
1.0
 10
1.3515109592013888
 20
6.40985853407118
 30
0.0
 10
-1.2667616102430554
 20
6.40985853407118
 30
0.0
 10
-3.5568888346354162
 20
4.6759419759114582
 30
0.0
 10
-4.2696790907118052
 20
2.1599887424045137
 30
0.0
  0
SPLINE
  5
80
100
AcDbEntity
  8
LIVELLO_1
 62
     7
100
AcDbSpline
210
0.0
220
0.0
230
1.0
 70
     8
 71
     3
 72
     8
 73
     4
 74
     0
 42
0.00000001
 43
0.00000001
 40
0.0
 40
0.0
 40
0.0
 40
0.0
 40
1.0
 40
1.0
 40
1.0
 40
1.0
 10
7.3616522894965275
 20
-5.2800394694010411
 30
0.0
 10
9.9754462348090271
 20
-5.2800394694010411
 30
0.0
 10
12.265745713975694
 20
-3.5416442871093747
 30
0.0
 10
12.982670084635416
 20
-1.0212124294704861
 30
0.0
  0
LINE
  5
7F
100
AcDbEntity
  8
LIVELLO_1
 62
     7
100
AcDbLine
 10
7.361652
 20
-5.280039
 30
0.0
 11
1.351511
 21
-5.280039
 31
0.0
  0
LINE
  5
7E
100
AcDbEntity
  8
LIVELLO_1
 62
     7
100
AcDbLine
 10
7.361652
 20
6.409859
 30
0.0
 11
1.351511
 21
6.409859
 31
0.0
  0
SPLINE
  5
7D
100
AcDbEntity
  8
LIVELLO_1
 62
     7
100
AcDbSpline
210
0.0
220
0.0
230
1.0
 70
     8
 71
     3
 72
    11
 73
     7
 74
     0
 42
0.00000001
 43
0.00000001
 40
0.0
 40
0.0
 40
0.0
 40
0.0
 40
1.0
 40
1.0
 40
1.0
 40
2.0
 40
2.0
 40
2.0
 40
2.0
 10
2.7789862738715274
 20
1.6297885470920137
 30
0.0
 10
2.7789862738715274
 20
1.7731045193142358
 30
0.0
 10
2.7204196506076386
 20
1.903329128689236
 30
0.0
 10
2.622578938802083
 20
2.0035814073350693
 30
0.0
 10
2.5249104817708332
 20
2.1076232910156247
 30
0.0
 10
2.3879679361979163
 20
2.1599887424045137
 30
0.0
 10
2.2489583333333329
 20
2.1599887424045137
 30
0.0
  0
SPLINE
  5
7C
100
AcDbEntity
  8
LIVELLO_1
 62
     7
100
AcDbSpline
210
0.0
220
0.0
230
1.0
 70
     8
 71
     3
 72
    11
 73
     7
 74
     0
 42
0.00000001
 43
0.00000001
 40
0.0
 40
0.0
 40
0.0
 40
0.0
 40
1.0
 40
1.0
 40
1.0
 40
2.0
 40
2.0
 40
2.0
 40
2.0
 10
2.2489583333333329
 20
-1.0212124294704861
 30
0.0
 10
2.3879679361979163
 20
-1.0212124294704861
 30
0.0
 10
2.5249104817708332
 20
-0.9733256022135416
 30
0.0
 10
2.622578938802083
 20
-0.8778964572482638
 30
0.0
 10
2.7204196506076386
 20
-0.7735100640190972
 30
0.0
 10
2.7789862738715274
 20
-0.6343282063802083
 30
0.0
 10
2.7789862738715274
 20
-0.4910122341579861
 30
0.0
  0
SPLINE
  5
7B
100
AcDbEntity
  8
LIVELLO_1
 62
     7
100
AcDbSpline
210
0.0
220
0.0
230
1.0
 70
     8
 71
     3
 72
    11
 73
     7
 74
     0
 42
0.00000001
 43
0.00000001
 40
0.0
 40
0.0
 40
0.0
 40
0.0
 40
1.0
 40
1.0
 40
1.0
 40
2.0
 40
2.0
 40
2.0
 40
2.0
 10
-11.500934516059028
 20
-0.4910122341579861
 30
0.0
 10
-11.500934516059028
 20
-0.6343282063802083
 30
0.0
 10
-11.446502007378472
 20
-0.7735100640190972
 30
0.0
 10
-11.348833550347221
 20
-0.8778964572482638
 30
0.0
 10
-11.246686469184027
 20
-0.9733256022135416
 30
0.0
 10
-11.114050292968749
 20
-1.0212124294704861
 30
0.0
 10
-10.970734320746526
 20
-1.0212124294704861
 30
0.0
  0
SPLINE
  5
7A
100
AcDbEntity
  8
LIVELLO_1
 62
     7
100
AcDbSpline
210
0.0
220
0.0
230
1.0
 70
     8
 71
     3
 72
    11
 73
     7
 74
     0
 42
0.00000001
 43
0.00000001
 40
0.0
 40
0.0
 40
0.0
 40
0.0
 40
1.0
 40
1.0
 40
1.0
 40
2.0
 40
2.0
 40
2.0
 40
2.0
 10
-10.970734320746526
 20
2.1599887424045137
 30
0.0
 10
-11.114050292968749
 20
2.1599887424045137
 30
0.0
 10
-11.246686469184027
 20
2.1076232910156247
 30
0.0
 10
-11.348833550347221
 20
2.0035814073350693
 30
0.0
 10
-11.446502007378472
 20
1.903329128689236
 30
0.0
 10
-11.500934516059028
 20
1.7731045193142358
 30
0.0
 10
-11.500934516059028
 20
1.6297885470920137
 30
0.0
  0
LINE
  5
79
100
AcDbEntity
  8
LIVELLO_1
 62
     7
100
AcDbLine
 10
2.778986
 20
-0.491012
 30
0.0
 11
2.778986
 21
1.629789
 31
0.0
  0
LINE
  5
78
100
AcDbEntity
  8
LIVELLO_1
 62
     7
100
AcDbLine
 10
-10.970734
 20
-1.021212
 30
0.0
 11
2.248958
 21
-1.021212
 31
0.0
  0
LINE
  5
77
100
AcDbEntity
  8
LIVELLO_1
 62
     7
100
AcDbLine
 10
-10.970734
 20
2.159989
 30
0.0
 11
2.248958
 21
2.159989
 31
0.0
  0
LINE
  5
76
100
AcDbEntity
  8
LIVELLO_1
 62
     7
100
AcDbLine
 10
-11.500935
 20
-0.491012
 30
0.0
 11
-11.500935
 21
1.629789
 31
0.0
  0
SPLINE
  5
75
100
AcDbEntity
  8
LIVELLO_1
 62
     7
100
AcDbSpline
210
0.0
220
0.0
230
1.0
 70
     8
 71
     3
 72
     8
 73
     4
 74
     0
 42
0.00000001
 43
0.00000001
 40
0.0
 40
0.0
 40
0.0
 40
0.0
 40
1.0
 40
1.0
 40
1.0
 40
1.0
 10
-8.3111206054687496
 20
2.1599887424045137
 30
0.0
 10
-9.0216715494791657
 20
4.6759419759114582
 30
0.0
 10
-11.318344455295138
 20
6.40985853407118
 30
0.0
 10
-13.930071343315971
 20
6.40985853407118
 30
0.0
  0
SPLINE
  5
74
100
AcDbEntity
  8
LIVELLO_1
 62
     7
100
AcDbSpline
210
0.0
220
0.0
230
1.0
 70
     8
 71
     3
 72
     8
 73
     4
 74
     0
 42
0.00000001
 43
0.00000001
 40
0.0
 40
0.0
 40
0.0
 40
0.0
 40
1.0
 40
1.0
 40
1.0
 40
1.0
 10
1.3515109592013888
 20
3.2245232476128471
 30
0.0
 10
0.5150417751736111
 20
3.2245232476128471
 30
0.0
 10
-0.2737128363715278
 20
2.8290262858072914
 30
0.0
 10
-0.7713568793402778
 20
2.1599887424045137
 30
0.0
  0
SPLINE
  5
73
100
AcDbEntity
  8
LIVELLO_1
 62
     7
100
AcDbSpline
210
0.0
220
0.0
230
1.0
 70
     8
 71
     3
 72
    11
 73
     7
 74
     0
 42
0.00000001
 43
0.00000001
 40
0.0
 40
0.0
 40
0.0
 40
0.0
 40
1.0
 40
1.0
 40
1.0
 40
2.0
 40
2.0
 40
2.0
 40
2.0
 10
-0.7713568793402778
 20
-1.0212124294704861
 30
0.0
 10
-0.2737128363715278
 20
-1.6947285970052082
 30
0.0
 10
0.5150417751736111
 20
-2.0857469346788191
 30
0.0
 10
1.3515109592013888
 20
-2.0857469346788191
 30
0.0
 10
1.3515109592013888
 20
-2.0857469346788191
 30
0.0
 10
7.3616522894965275
 20
-2.0857469346788191
 30
0.0
 10
7.3616522894965275
 20
-2.0857469346788191
 30
0.0
  0
SPLINE
  5
72
100
AcDbEntity
  8
LIVELLO_1
 62
     7
100
AcDbSpline
210
0.0
220
0.0
230
1.0
 70
     8
 71
     3
 72
    11
 73
     7
 74
     0
 42
0.00000001
 43
0.00000001
 40
0.0
 40
0.0
 40
0.0
 40
0.0
 40
1.0
 40
1.0
 40
1.0
 40
2.0
 40
2.0
 40
2.0
 40
2.0
 10
9.48004150390625
 20
2.1599887424045137
 30
0.0
 10
8.9825697157118043
 20
2.8290262858072914
 30
0.0
 10
8.1936428493923597
 20
3.2245232476128471
 30
0.0
 10
7.3616522894965275
 20
3.2245232476128471
 30
0.0
 10
7.3616522894965275
 20
3.2245232476128471
 30
0.0
 10
1.3515109592013888
 20
3.2245232476128471
 30
0.0
 10
1.3515109592013888
 20
3.2245232476128471
 30
0.0
  0
SPLINE
  5
71
100
AcDbEntity
  8
LIVELLO_1
 62
     7
100
AcDbSpline
210
0.0
220
0.0
230
1.0
 70
     8
 71
     3
 72
     8
 73
     4
 74
     0
 42
0.00000001
 43
0.00000001
 40
0.0
 40
0.0
 40
0.0
 40
0.0
 40
1.0
 40
1.0
 40
1.0
 40
1.0
 10
-4.2696790907118052
 20
-1.0212124294704861
 30
0.0
 10
-3.5568888346354162
 20
-3.5416442871093747
 30
0.0
 10
-1.2667616102430554
 20
-5.2800394694010411
 30
0.0
 10
1.3515109592013888
 20
-5.2800394694010411
 30
0.0
  0
SPLINE
  5
70
100
AcDbEntity
  8
LIVELLO_1
 62
     7
100
AcDbSpline
210
0.0
220
0.0
230
1.0
 70
     8
 71
     3
 72
     8
 73
     4
 74
     0
 42
0.00000001
 43
0.00000001
 40
0.0
 40
0.0
 40
0.0
 40
0.0
 40
1.0
 40
1.0
 40
1.0
 40
1.0
 10
7.3616522894965275
 20
-2.0857469346788191
 30
0.0
 10
8.1936428493923597
 20
-2.0857469346788191
 30
0.0
 10
8.9825697157118043
 20
-1.6947285970052082
 30
0.0
 10
9.48004150390625
 20
-1.0212124294704861
 30
0.0
  0
SPLINE
  5
6F
100
AcDbEntity
  8
LIVELLO_1
 62
     7
100
AcDbSpline
210
0.0
220
0.0
230
1.0
 70
     8
 71
     3
 72
     8
 73
     4
 74
     0
 42
0.00000001
 43
0.00000001
 40
0.0
 40
0.0
 40
0.0
 40
0.0
 40
1.0
 40
1.0
 40
1.0
 40
1.0
 10
24.55302327473958
 20
6.40985853407118
 30
0.0
 10
21.941296386718747
 20
6.40985853407118
 30
0.0
 10
19.640317111545137
 20
4.6759419759114582
 30
0.0
 10
18.927526855468749
 20
2.1599887424045137
 30
0.0
  0
SPLINE
  5
6E
100
AcDbEntity
  8
LIVELLO_1
 62
     7
100
AcDbSpline
210
0.0
220
0.0
230
1.0
 70
     8
 71
     3
 72
     8
 73
     4
 74
     0
 42
0.00000001
 43
0.00000001
 40
0.0
 40
0.0
 40
0.0
 40
0.0
 40
1.0
 40
1.0
 40
1.0
 40
1.0
 10
33.123042805989577
 20
-5.2800394694010411
 30
0.0
 10
35.741315375434027
 20
-5.2800394694010411
 30
0.0
 10
38.031270345052079
 20
-3.5416442871093747
 30
0.0
 10
38.748539225260416
 20
-1.0212124294704861
 30
0.0
  0
LINE
  5
6D
100
AcDbEntity
  8
LIVELLO_1
 62
     7
100
AcDbLine
 10
33.123043
 20
-5.280039
 30
0.0
 11
24.553023
 21
-5.280039
 31
0.0
  0
LINE
  5
6C
100
AcDbEntity
  8
LIVELLO_1
 62
     7
100
AcDbLine
 10
33.123043
 20
6.409859
 30
0.0
 11
24.553023
 21
6.409859
 31
0.0
  0
SPLINE
  5
6B
100
AcDbEntity
  8
LIVELLO_1
 62
     7
100
AcDbSpline
210
0.0
220
0.0
230
1.0
 70
     8
 71
     3
 72
     8
 73
     4
 74
     0
 42
0.00000001
 43
0.00000001
 40
0.0
 40
0.0
 40
0.0
 40
0.0
 40
1.0
 40
1.0
 40
1.0
 40
1.0
 10
12.982670084635416
 20
2.1599887424045137
 30
0.0
 10
12.265745713975694
 20
4.6759419759114582
 30
0.0
 10
9.9754462348090271
 20
6.40985853407118
 30
0.0
 10
7.3616522894965275
 20
6.40985853407118
 30
0.0
  0
SPLINE
  5
6A
100
AcDbEntity
  8
LIVELLO_1
 62
     7
100
AcDbSpline
210
0.0
220
0.0
230
1.0
 70
     8
 71
     3
 72
     8
 73
     4
 74
     0
 42
0.00000001
 43
0.00000001
 40
0.0
 40
0.0
 40
0.0
 40
0.0
 40
1.0
 40
1.0
 40
1.0
 40
1.0
 10
24.55302327473958
 20
3.2245232476128471
 30
0.0
 10
23.716554090711803
 20
3.2245232476128471
 30
0.0
 10
22.927971733940971
 20
2.8290262858072914
 30
0.0
 10
22.430155436197914
 20
2.1599887424045137
 30
0.0
  0
SPLINE
  5
69
100
AcDbEntity
  8
LIVELLO_1
 62
     7
100
AcDbSpline
210
0.0
220
0.0
230
1.0
 70
     8
 71
     3
 72
    11
 73
     7
 74
     0
 42
0.00000001
 43
0.00000001
 40
0.0
 40
0.0
 40
0.0
 40
0.0
 40
1.0
 40
1.0
 40
1.0
 40
2.0
 40
2.0
 40
2.0
 40
2.0
 10
22.430155436197914
 20
-1.0212124294704861
 30
0.0
 10
22.927971733940971
 20
-1.6947285970052082
 30
0.0
 10
23.716554090711803
 20
-2.0857469346788191
 30
0.0
 10
24.55302327473958
 20
-2.0857469346788191
 30
0.0
 10
24.55302327473958
 20
-2.0857469346788191
 30
0.0
 10
33.123042805989577
 20
-2.0857469346788191
 30
0.0
 10
33.123042805989577
 20
-2.0857469346788191
 30
0.0
  0
SPLINE
  5
68
100
AcDbEntity
  8
LIVELLO_1
 62
     7
100
AcDbSpline
210
0.0
220
0.0
230
1.0
 70
     8
 71
     3
 72
    11
 73
     7
 74
     0
 42
0.00000001
 43
0.00000001
 40
0.0
 40
0.0
 40
0.0
 40
0.0
 40
1.0
 40
1.0
 40
1.0
 40
2.0
 40
2.0
 40
2.0
 40
2.0
 10
35.25004475911458
 20
2.1599887424045137
 30
0.0
 10
34.748094346788193
 20
2.8290262858072914
 30
0.0
 10
33.959511990017361
 20
3.2245232476128471
 30
0.0
 10
33.123042805989577
 20
3.2245232476128471
 30
0.0
 10
33.123042805989577
 20
3.2245232476128471
 30
0.0
 10
24.55302327473958
 20
3.2245232476128471
 30
0.0
 10
24.55302327473958
 20
3.2245232476128471
 30
0.0
  0
SPLINE
  5
67
100
AcDbEntity
  8
LIVELLO_1
 62
     7
100
AcDbSpline
210
0.0
220
0.0
230
1.0
 70
     8
 71
     3
 72
     8
 73
     4
 74
     0
 42
0.00000001
 43
0.00000001
 40
0.0
 40
0.0
 40
0.0
 40
0.0
 40
1.0
 40
1.0
 40
1.0
 40
1.0
 10
18.927526855468749
 20
-1.0212124294704861
 30
0.0
 10
19.640317111545137
 20
-3.5416442871093747
 30
0.0
 10
21.941296386718747
 20
-5.2800394694010411
 30
0.0
 10
24.55302327473958
 20
-5.2800394694010411
 30
0.0
  0
SPLINE
  5
66
100
AcDbEntity
  8
LIVELLO_1
 62
     7
100
AcDbSpline
210
0.0
220
0.0
230
1.0
 70
     8
 71
     3
 72
     8
 73
     4
 74
     0
 42
0.00000001
 43
0.00000001
 40
0.0
 40
0.0
 40
0.0
 40
0.0
 40
1.0
 40
1.0
 40
1.0
 40
1.0
 10
33.123042805989577
 20
-2.0857469346788191
 30
0.0
 10
33.959511990017361
 20
-2.0857469346788191
 30
0.0
 10
34.748094346788193
 20
-1.6947285970052082
 30
0.0
 10
35.25004475911458
 20
-1.0212124294704861
 30
0.0
  0
SPLINE
  5
65
100
AcDbEntity
  8
LIVELLO_1
 62
     7
100
AcDbSpline
210
0.0
220
0.0
230
1.0
 70
     8
 71
     3
 72
     8
 73
     4
 74
     0
 42
0.00000001
 43
0.00000001
 40
0.0
 40
0.0
 40
0.0
 40
0.0
 40
1.0
 40
1.0
 40
1.0
 40
1.0
 10
51.818197970920131
 20
6.40985853407118
 30
0.0
 10
49.206126573350687
 20
6.40985853407118
 30
0.0
 10
46.909625922309026
 20
4.6759419759114582
 30
0.0
 10
46.196835666232637
 20
2.1599887424045137
 30
0.0
  0
SPLINE
  5
64
100
AcDbEntity
  8
LIVELLO_1
 62
     7
100
AcDbSpline
210
0.0
220
0.0
230
1.0
 70
     8
 71
     3
 72
     8
 73
     4
 74
     0
 42
0.00000001
 43
0.00000001
 40
0.0
 40
0.0
 40
0.0
 40
0.0
 40
1.0
 40
1.0
 40
1.0
 40
1.0
 10
61.376270887586799
 20
-5.2800394694010411
 30
0.0
 10
63.99247639973958
 20
-5.2800394694010411
 30
0.0
 10
66.289321560329853
 20
-3.5416442871093747
 30
0.0
 10
67.00176730685763
 20
-1.0212124294704861
 30
0.0
  0
LINE
  5
63
100
AcDbEntity
  8
LIVELLO_1
 62
     7
100
AcDbLine
 10
61.376271
 20
-5.280039
 30
0.0
 11
51.818198
 21
-5.280039
 31
0.0
  0
LINE
  5
62
100
AcDbEntity
  8
LIVELLO_1
 62
     7
100
AcDbLine
 10
61.376271
 20
6.409859
 30
0.0
 11
51.818198
 21
6.409859
 31
0.0
  0
SPLINE
  5
61
100
AcDbEntity
  8
LIVELLO_1
 62
     7
100
AcDbSpline
210
0.0
220
0.0
230
1.0
 70
     8
 71
     3
 72
     8
 73
     4
 74
     0
 42
0.00000001
 43
0.00000001
 40
0.0
 40
0.0
 40
0.0
 40
0.0
 40
1.0
 40
1.0
 40
1.0
 40
1.0
 10
38.748539225260416
 20
2.1599887424045137
 30
0.0
 10
38.031270345052079
 20
4.6759419759114582
 30
0.0
 10
35.741315375434027
 20
6.40985853407118
 30
0.0
 10
33.123042805989577
 20
6.40985853407118
 30
0.0
  0
SPLINE
  5
60
100
AcDbEntity
  8
LIVELLO_1
 62
     7
100
AcDbSpline
210
0.0
220
0.0
230
1.0
 70
     8
 71
     3
 72
     8
 73
     4
 74
     0
 42
0.00000001
 43
0.00000001
 40
0.0
 40
0.0
 40
0.0
 40
0.0
 40
1.0
 40
1.0
 40
1.0
 40
1.0
 10
51.818197970920131
 20
3.2245232476128471
 30
0.0
 10
50.981384277343743
 20
3.2245232476128471
 30
0.0
 10
50.196936035156249
 20
2.8290262858072914
 30
0.0
 10
49.695330132378466
 20
2.1599887424045137
 30
0.0
  0
SPLINE
  5
5F
100
AcDbEntity
  8
LIVELLO_1
 62
     7
100
AcDbSpline
210
0.0
220
0.0
230
1.0
 70
     8
 71
     3
 72
    11
 73
     7
 74
     0
 42
0.00000001
 43
0.00000001
 40
0.0
 40
0.0
 40
0.0
 40
0.0
 40
1.0
 40
1.0
 40
1.0
 40
2.0
 40
2.0
 40
2.0
 40
2.0
 10
49.695330132378466
 20
-1.0212124294704861
 30
0.0
 10
50.196936035156249
 20
-1.6947285970052082
 30
0.0
 10
50.981384277343743
 20
-2.0857469346788191
 30
0.0
 10
51.818197970920131
 20
-2.0857469346788191
 30
0.0
 10
51.818197970920131
 20
-2.0857469346788191
 30
0.0
 10
61.376270887586799
 20
-2.0857469346788191
 30
0.0
 10
61.376270887586799
 20
-2.0857469346788191
 30
0.0
  0
SPLINE
  5
5E
100
AcDbEntity
  8
LIVELLO_1
 62
     7
100
AcDbSpline
210
0.0
220
0.0
230
1.0
 70
     8
 71
     3
 72
    11
 73
     7
 74
     0
 42
0.00000001
 43
0.00000001
 40
0.0
 40
0.0
 40
0.0
 40
0.0
 40
1.0
 40
1.0
 40
1.0
 40
2.0
 40
2.0
 40
2.0
 40
2.0
 10
63.508095974392354
 20
2.1599887424045137
 30
0.0
 10
63.006145562065967
 20
2.8290262858072914
 30
0.0
 10
62.217218695746524
 20
3.2245232476128471
 30
0.0
 10
61.376270887586799
 20
3.2245232476128471
 30
0.0
 10
61.376270887586799
 20
3.2245232476128471
 30
0.0
 10
51.818197970920131
 20
3.2245232476128471
 30
0.0
 10
51.818197970920131
 20
3.2245232476128471
 30
0.0
  0
SPLINE
  5
5D
100
AcDbEntity
  8
LIVELLO_1
 62
     7
100
AcDbSpline
210
0.0
220
0.0
230
1.0
 70
     8
 71
     3
 72
     8
 73
     4
 74
     0
 42
0.00000001
 43
0.00000001
 40
0.0
 40
0.0
 40
0.0
 40
0.0
 40
1.0
 40
1.0
 40
1.0
 40
1.0
 10
46.196835666232637
 20
-1.0212124294704861
 30
0.0
 10
46.909625922309026
 20
-3.5416442871093747
 30
0.0
 10
49.206126573350687
 20
-5.2800394694010411
 30
0.0
 10
51.818197970920131
 20
-5.2800394694010411
 30
0.0
  0
SPLINE
  5
5C
100
AcDbEntity
  8
LIVELLO_1
 62
     7
100
AcDbSpline
210
0.0
220
0.0
230
1.0
 70
     8
 71
     3
 72
     8
 73
     4
 74
     0
 42
0.00000001
 43
0.00000001
 40
0.0
 40
0.0
 40
0.0
 40
0.0
 40
1.0
 40
1.0
 40
1.0
 40
1.0
 10
61.376270887586799
 20
-2.0857469346788191
 30
0.0
 10
62.217218695746524
 20
-2.0857469346788191
 30
0.0
 10
63.006145562065967
 20
-1.6947285970052082
 30
0.0
 10
63.508095974392354
 20
-1.0212124294704861
 30
0.0
  0
SPLINE
  5
5B
100
AcDbEntity
  8
LIVELLO_1
 62
     7
100
AcDbSpline
210
0.0
220
0.0
230
1.0
 70
     8
 71
     3
 72
     8
 73
     4
 74
     0
 42
0.00000001
 43
0.00000001
 40
0.0
 40
0.0
 40
0.0
 40
0.0
 40
1.0
 40
1.0
 40
1.0
 40
1.0
 10
81.338532172309016
 20
6.40985853407118
 30
0.0
 10
78.726460774739579
 20
6.40985853407118
 30
0.0
 10
76.42996012369791
 20
4.6759419759114582
 30
0.0
 10
75.71923692491319
 20
2.1599887424045137
 30
0.0
  0
LINE
  5
5A
100
AcDbEntity
  8
LIVELLO_1
 62
     7
100
AcDbLine
 10
86.73803
 20
-5.280039
 30
0.0
 11
81.338532
 21
-5.280039
 31
0.0
  0
LINE
  5
59
100
AcDbEntity
  8
LIVELLO_1
 62
     7
100
AcDbLine
 10
87.554862
 20
6.409859
 30
0.0
 11
81.338532
 21
6.409859
 31
0.0
  0
SPLINE
  5
58
100
AcDbEntity
  8
LIVELLO_1
 62
     7
100
AcDbSpline
210
0.0
220
0.0
230
1.0
 70
     8
 71
     3
 72
     8
 73
     4
 74
     0
 42
0.00000001
 43
0.00000001
 40
0.0
 40
0.0
 40
0.0
 40
0.0
 40
1.0
 40
1.0
 40
1.0
 40
1.0
 10
67.00176730685763
 20
2.1599887424045137
 30
0.0
 10
66.289321560329853
 20
4.6759419759114582
 30
0.0
 10
63.99247639973958
 20
6.40985853407118
 30
0.0
 10
61.376270887586799
 20
6.40985853407118
 30
0.0
  0
SPLINE
  5
57
100
AcDbEntity
  8
LIVELLO_1
 62
     7
100
AcDbSpline
210
0.0
220
0.0
230
1.0
 70
     8
 71
     3
 72
     8
 73
     4
 74
     0
 42
0.00000001
 43
0.00000001
 40
0.0
 40
0.0
 40
0.0
 40
0.0
 40
1.0
 40
1.0
 40
1.0
 40
1.0
 10
81.338532172309016
 20
3.2245232476128471
 30
0.0
 10
80.501718478732627
 20
3.2245232476128471
 30
0.0
 10
79.715203179253464
 20
2.8290262858072914
 30
0.0
 10
79.211185709635416
 20
2.1599887424045137
 30
0.0
  0
SPLINE
  5
56
100
AcDbEntity
  8
LIVELLO_1
 62
     7
100
AcDbSpline
210
0.0
220
0.0
230
1.0
 70
     8
 71
     3
 72
    11
 73
     7
 74
     0
 42
0.00000001
 43
0.00000001
 40
0.0
 40
0.0
 40
0.0
 40
0.0
 40
1.0
 40
1.0
 40
1.0
 40
2.0
 40
2.0
 40
2.0
 40
2.0
 10
79.211185709635416
 20
-1.0212124294704861
 30
0.0
 10
79.715203179253464
 20
-1.6947285970052082
 30
0.0
 10
80.501718478732627
 20
-2.0857469346788191
 30
0.0
 10
81.338532172309016
 20
-2.0857469346788191
 30
0.0
 10
81.338532172309016
 20
-2.0857469346788191
 30
0.0
 10
87.298547363281244
 20
-2.0857469346788191
 30
0.0
 10
87.298547363281244
 20
-2.0857469346788191
 30
0.0
  0
LINE
  5
55
100
AcDbEntity
  8
LIVELLO_1
 62
     7
100
AcDbLine
 10
86.994345
 20
3.224523
 30
0.0
 11
81.338532
 21
3.224523
 31
0.0
  0
SPLINE
  5
54
100
AcDbEntity
  8
LIVELLO_1
 62
     7
100
AcDbSpline
210
0.0
220
0.0
230
1.0
 70
     8
 71
     3
 72
    14
 73
    10
 74
     0
 42
0.00000001
 43
0.00000001
 40
0.0
 40
0.0
 40
0.0
 40
0.0
 40
1.0
 40
1.0
 40
1.0
 40
2.0
 40
2.0
 40
2.0
 40
3.0
 40
3.0
 40
3.0
 40
3.0
 10
-90.798936631944443
 20
-1.0212124294704861
 30
0.0
 10
-90.657687717013886
 20
-1.0212124294704861
 30
0.0
 10
-90.522984483506931
 20
-0.9733256022135416
 30
0.0
 10
-90.420837402343736
 20
-0.8778964572482638
 30
0.0
 10
-90.32299669053819
 20
-0.7735100640190972
 30
0.0
 10
-90.266497124565959
 20
-0.6343282063802083
 30
0.0
 10
-90.266497124565959
 20
-0.4910122341579861
 30
0.0
 10
-90.266497124565959
 20
-0.4910122341579861
 30
0.0
 10
-90.266497124565959
 20
1.6297885470920137
 30
0.0
 10
-90.266497124565959
 20
1.6297885470920137
 30
0.0
  0
SPLINE
  5
53
100
AcDbEntity
  8
LIVELLO_1
 62
     7
100
AcDbSpline
210
0.0
220
0.0
230
1.0
 70
     8
 71
     3
 72
    11
 73
     7
 74
     0
 42
0.00000001
 43
0.00000001
 40
0.0
 40
0.0
 40
0.0
 40
0.0
 40
1.0
 40
1.0
 40
1.0
 40
2.0
 40
2.0
 40
2.0
 40
2.0
 10
-90.266497124565959
 20
1.6297885470920137
 30
0.0
 10
-90.266497124565959
 20
1.7731045193142358
 30
0.0
 10
-90.32299669053819
 20
1.903329128689236
 30
0.0
 10
-90.420837402343736
 20
2.0035814073350693
 30
0.0
 10
-90.522984483506931
 20
2.1076232910156247
 30
0.0
 10
-90.657687717013886
 20
2.1599887424045137
 30
0.0
 10
-90.798936631944443
 20
2.1599887424045137
 30
0.0
  0
POLYLINE
  5
4D
100
AcDbEntity
  8
LIVELLO_1
 62
     7
100
AcDb2dPolyline
 66
     1
 10
0.0
 20
0.0
 30
0.0
  0
VERTEX
  5
4E
100
AcDbEntity
  8
LIVELLO_1
 62
     7
100
AcDbVertex
100
AcDb2dVertex
 10
92.1048
 20
25.18339
 30
0.0
  0
VERTEX
  5
4F
100
AcDbEntity
  8
LIVELLO_1
 62
     7
100
AcDbVertex
100
AcDb2dVertex
 10
86.625031
 20
1.125427
 30
0.0
  0
VERTEX
  5
50
100
AcDbEntity
  8
LIVELLO_1
 62
     7
100
AcDbVertex
100
AcDb2dVertex
 10
88.004792
 20
1.929512
 30
0.0
  0
VERTEX
  5
51
100
AcDbEntity
  8
LIVELLO_1
 62
     7
100
AcDbVertex
100
AcDb2dVertex
 10
83.872055
 20
-21.584987
 30
0.0
  0
SEQEND
  5
52
100
AcDbEntity
  8
LIVELLO_1
 62
     7
  0
LINE
  5
4C
100
AcDbEntity
  8
LIVELLO_1
 62
     7
100
AcDbLine
 10
-23.618886
 20
-0.491012
 30
0.0
 11
-23.618886
 21
1.629789
 31
0.0
  0
SPLINE
  5
4B
100
AcDbEntity
  8
LIVELLO_1
 62
     7
100
AcDbSpline
210
0.0
220
0.0
230
1.0
 70
     8
 71
     3
 72
    11
 73
     7
 74
     0
 42
0.00000001
 43
0.00000001
 40
0.0
 40
0.0
 40
0.0
 40
0.0
 40
1.0
 40
1.0
 40
1.0
 40
2.0
 40
2.0
 40
2.0
 40
2.0
 10
-23.618885633680552
 20
-0.4910122341579861
 30
0.0
 10
-23.618885633680552
 20
-0.6343282063802083
 30
0.0
 10
-23.564453124999996
 20
-0.7735100640190972
 30
0.0
 10
-23.46247829861111
 20
-0.8778964572482638
 30
0.0
 10
-23.364637586805554
 20
-0.9733256022135416
 30
0.0
 10
-23.227695041232636
 20
-1.0212124294704861
 30
0.0
 10
-23.088685438368053
 20
-1.0212124294704861
 30
0.0
  0
SPLINE
  5
4A
100
AcDbEntity
  8
LIVELLO_1
 62
     7
100
AcDbSpline
210
0.0
220
0.0
230
1.0
 70
     8
 71
     3
 72
    11
 73
     7
 74
     0
 42
0.00000001
 43
0.00000001
 40
0.0
 40
0.0
 40
0.0
 40
0.0
 40
1.0
 40
1.0
 40
1.0
 40
2.0
 40
2.0
 40
2.0
 40
2.0
 10
-15.275036621093749
 20
-1.0212124294704861
 30
0.0
 10
-15.136027018229166
 20
-1.0212124294704861
 30
0.0
 10
-14.999084472656248
 20
-0.9733256022135416
 30
0.0
 10
-14.905722384982637
 20
-0.8778964572482638
 30
0.0
 10
-14.803575303819443
 20
-0.7735100640190972
 30
0.0
 10
-14.745008680555554
 20
-0.6343282063802083
 30
0.0
 10
-14.745008680555554
 20
-0.4910122341579861
 30
0.0
  0
LINE
  5
49
100
AcDbEntity
  8
LIVELLO_1
 62
     7
100
AcDbLine
 10
-14.745009
 20
-0.491012
 30
0.0
 11
-14.745009
 21
1.629789
 31
0.0
  0
SPLINE
  5
48
100
AcDbEntity
  8
LIVELLO_1
 62
     7
100
AcDbSpline
210
0.0
220
0.0
230
1.0
 70
     8
 71
     3
 72
    11
 73
     7
 74
     0
 42
0.00000001
 43
0.00000001
 40
0.0
 40
0.0
 40
0.0
 40
0.0
 40
1.0
 40
1.0
 40
1.0
 40
2.0
 40
2.0
 40
2.0
 40
2.0
 10
-14.745008680555554
 20
1.6297885470920137
 30
0.0
 10
-14.745008680555554
 20
1.7731045193142358
 30
0.0
 10
-14.803575303819443
 20
1.903329128689236
 30
0.0
 10
-14.905722384982637
 20
2.0035814073350693
 30
0.0
 10
-14.999084472656248
 20
2.1076232910156247
 30
0.0
 10
-15.136027018229166
 20
2.1599887424045137
 30
0.0
 10
-15.275036621093749
 20
2.1599887424045137
 30
0.0
  0
LINE
  5
47
100
AcDbEntity
  8
LIVELLO_1
 62
     7
100
AcDbLine
 10
-23.088685
 20
2.159989
 30
0.0
 11
-15.275037
 21
2.159989
 31
0.0
  0
LINE
  5
46
100
AcDbEntity
  8
LIVELLO_1
 62
     7
100
AcDbLine
 10
-23.088685
 20
-1.021212
 30
0.0
 11
-15.275037
 21
-1.021212
 31
0.0
  0
SPLINE
  5
45
100
AcDbEntity
  8
LIVELLO_1
 62
     7
100
AcDbSpline
210
0.0
220
0.0
230
1.0
 70
     8
 71
     3
 72
    11
 73
     7
 74
     0
 42
0.00000001
 43
0.00000001
 40
0.0
 40
0.0
 40
0.0
 40
0.0
 40
1.0
 40
1.0
 40
1.0
 40
2.0
 40
2.0
 40
2.0
 40
2.0
 10
-23.088685438368053
 20
2.1599887424045137
 30
0.0
 10
-23.227695041232636
 20
2.1599887424045137
 30
0.0
 10
-23.364637586805554
 20
2.1076232910156247
 30
0.0
 10
-23.46247829861111
 20
2.0035814073350693
 30
0.0
 10
-23.564453124999996
 20
1.903329128689236
 30
0.0
 10
-23.618885633680552
 20
1.7731045193142358
 30
0.0
 10
-23.618885633680552
 20
1.6297885470920137
 30
0.0
  0
SPLINE
  5
44
100
AcDbEntity
  8
LIVELLO_1
 62
     7
100
AcDbSpline
210
0.0
220
0.0
230
1.0
 70
     8
 71
     3
 72
    11
 73
     7
 74
     0
 42
0.00000001
 43
0.00000001
 40
0.0
 40
0.0
 40
0.0
 40
0.0
 40
1.0
 40
1.0
 40
1.0
 40
2.0
 40
2.0
 40
2.0
 40
2.0
 10
82.003091091579847
 20
1.6297885470920137
 30
0.0
 10
82.003091091579847
 20
1.7731045193142358
 30
0.0
 10
81.94900309244791
 20
1.903329128689236
 30
0.0
 10
81.846683756510416
 20
2.0035814073350693
 30
0.0
 10
81.749187554253467
 20
2.1076232910156247
 30
0.0
 10
81.614139811197916
 20
2.1599887424045137
 30
0.0
 10
81.472890896267359
 20
2.1599887424045137
 30
0.0
  0
SPLINE
  5
43
100
AcDbEntity
  8
LIVELLO_1
 62
     7
100
AcDbSpline
210
0.0
220
0.0
230
1.0
 70
     8
 71
     3
 72
    11
 73
     7
 74
     0
 42
0.00000001
 43
0.00000001
 40
0.0
 40
0.0
 40
0.0
 40
0.0
 40
1.0
 40
1.0
 40
1.0
 40
2.0
 40
2.0
 40
2.0
 40
2.0
 10
81.472890896267359
 20
-1.0212124294704861
 30
0.0
 10
81.614139811197916
 20
-1.0212124294704861
 30
0.0
 10
81.749187554253467
 20
-0.9733256022135416
 30
0.0
 10
81.846683756510416
 20
-0.8778964572482638
 30
0.0
 10
81.94900309244791
 20
-0.7735100640190972
 30
0.0
 10
82.003091091579847
 20
-0.6343282063802083
 30
0.0
 10
82.003091091579847
 20
-0.4910122341579861
 30
0.0
  0
SPLINE
  5
42
100
AcDbEntity
  8
LIVELLO_1
 62
     7
100
AcDbSpline
210
0.0
220
0.0
230
1.0
 70
     8
 71
     3
 72
    11
 73
     7
 74
     0
 42
0.00000001
 43
0.00000001
 40
0.0
 40
0.0
 40
0.0
 40
0.0
 40
1.0
 40
1.0
 40
1.0
 40
2.0
 40
2.0
 40
2.0
 40
2.0
 10
61.515452745225687
 20
-0.4910122341579861
 30
0.0
 10
61.515452745225687
 20
-0.6343282063802083
 30
0.0
 10
61.56747368706597
 20
-0.7735100640190972
 30
0.0
 10
61.665314398871523
 20
-0.8778964572482638
 30
0.0
 10
61.767633734809024
 20
-0.9733256022135416
 30
0.0
 10
61.906471082899301
 20
-1.0212124294704861
 30
0.0
 10
62.043585883246521
 20
-1.0212124294704861
 30
0.0
  0
SPLINE
  5
41
100
AcDbEntity
  8
LIVELLO_1
 62
     7
100
AcDbSpline
210
0.0
220
0.0
230
1.0
 70
     8
 71
     3
 72
    11
 73
     7
 74
     0
 42
0.00000001
 43
0.00000001
 40
0.0
 40
0.0
 40
0.0
 40
0.0
 40
1.0
 40
1.0
 40
1.0
 40
2.0
 40
2.0
 40
2.0
 40
2.0
 10
62.043585883246521
 20
2.1599887424045137
 30
0.0
 10
61.906471082899301
 20
2.1599887424045137
 30
0.0
 10
61.767633734809024
 20
2.1076232910156247
 30
0.0
 10
61.665314398871523
 20
2.0035814073350693
 30
0.0
 10
61.56747368706597
 20
1.903329128689236
 30
0.0
 10
61.515452745225687
 20
1.7731045193142358
 30
0.0
 10
61.515452745225687
 20
1.6297885470920137
 30
0.0
  0
LINE
  5
40
100
AcDbEntity
  8
LIVELLO_1
 62
     7
100
AcDbLine
 10
82.003091
 20
-0.491012
 30
0.0
 11
82.003091
 21
1.629789
 31
0.0
  0
LINE
  5
3F
100
AcDbEntity
  8
LIVELLO_1
 62
     7
100
AcDbLine
 10
62.043586
 20
-1.021212
 30
0.0
 11
81.472891
 21
-1.021212
 31
0.0
  0
LINE
  5
3E
100
AcDbEntity
  8
LIVELLO_1
 62
     7
100
AcDbLine
 10
62.043586
 20
2.159989
 30
0.0
 11
81.472891
 21
2.159989
 31
0.0
  0
LINE
  5
3D
100
AcDbEntity
  8
LIVELLO_1
 62
     7
100
AcDbLine
 10
61.515453
 20
-0.491012
 30
0.0
 11
61.515453
 21
1.629789
 31
0.0
  0
SPLINE
  5
3C
100
AcDbEntity
  8
LIVELLO_1
 62
     7
100
AcDbSpline
210
0.0
220
0.0
230
1.0
 70
     8
 71
     3
 72
    11
 73
     7
 74
     0
 42
0.00000001
 43
0.00000001
 40
0.0
 40
0.0
 40
0.0
 40
0.0
 40
1.0
 40
1.0
 40
1.0
 40
2.0
 40
2.0
 40
2.0
 40
2.0
 10
52.791437445746524
 20
1.6297885470920137
 30
0.0
 10
52.791437445746524
 20
1.7731045193142358
 30
0.0
 10
52.739416503906249
 20
1.903329128689236
 30
0.0
 10
52.641575792100689
 20
2.0035814073350693
 30
0.0
 10
52.543735080295136
 20
2.1076232910156247
 30
0.0
 10
52.404553222656247
 20
2.1599887424045137
 30
0.0
 10
52.263648817274301
 20
2.1599887424045137
 30
0.0
  0
SPLINE
  5
3B
100
AcDbEntity
  8
LIVELLO_1
 62
     7
100
AcDbSpline
210
0.0
220
0.0
230
1.0
 70
     8
 71
     3
 72
    11
 73
     7
 74
     0
 42
0.00000001
 43
0.00000001
 40
0.0
 40
0.0
 40
0.0
 40
0.0
 40
1.0
 40
1.0
 40
1.0
 40
2.0
 40
2.0
 40
2.0
 40
2.0
 10
52.263648817274301
 20
-1.0212124294704861
 30
0.0
 10
52.404553222656247
 20
-1.0212124294704861
 30
0.0
 10
52.543735080295136
 20
-0.9733256022135416
 30
0.0
 10
52.641575792100689
 20
-0.8778964572482638
 30
0.0
 10
52.739416503906249
 20
-0.7735100640190972
 30
0.0
 10
52.791437445746524
 20
-0.6343282063802083
 30
0.0
 10
52.791437445746524
 20
-0.4910122341579861
 30
0.0
  0
SPLINE
  5
3A
100
AcDbEntity
  8
LIVELLO_1
 62
     7
100
AcDbSpline
210
0.0
220
0.0
230
1.0
 70
     8
 71
     3
 72
    11
 73
     7
 74
     0
 42
0.00000001
 43
0.00000001
 40
0.0
 40
0.0
 40
0.0
 40
0.0
 40
1.0
 40
1.0
 40
1.0
 40
2.0
 40
2.0
 40
2.0
 40
2.0
 10
33.342495388454857
 20
-0.4910122341579861
 30
0.0
 10
33.342495388454857
 20
-0.6343282063802083
 30
0.0
 10
33.398994954427081
 20
-0.7735100640190972
 30
0.0
 10
33.500969780815971
 20
-0.8778964572482638
 30
0.0
 10
33.598810492621524
 20
-0.9733256022135416
 30
0.0
 10
33.733513726128471
 20
-1.0212124294704861
 30
0.0
 10
33.878896755642359
 20
-1.0212124294704861
 30
0.0
  0
SPLINE
  5
39
100
AcDbEntity
  8
LIVELLO_1
 62
     7
100
AcDbSpline
210
0.0
220
0.0
230
1.0
 70
     8
 71
     3
 72
    11
 73
     7
 74
     0
 42
0.00000001
 43
0.00000001
 40
0.0
 40
0.0
 40
0.0
 40
0.0
 40
1.0
 40
1.0
 40
1.0
 40
2.0
 40
2.0
 40
2.0
 40
2.0
 10
33.878896755642359
 20
2.1599887424045137
 30
0.0
 10
33.733513726128471
 20
2.1599887424045137
 30
0.0
 10
33.598810492621524
 20
2.1076232910156247
 30
0.0
 10
33.500969780815971
 20
2.0035814073350693
 30
0.0
 10
33.398994954427081
 20
1.903329128689236
 30
0.0
 10
33.342495388454857
 20
1.7731045193142358
 30
0.0
 10
33.342495388454857
 20
1.6297885470920137
 30
0.0
  0
LINE
  5
38
100
AcDbEntity
  8
LIVELLO_1
 62
     7
100
AcDbLine
 10
52.791437
 20
-0.491012
 30
0.0
 11
52.791437
 21
1.629789
 31
0.0
  0
LINE
  5
37
100
AcDbEntity
  8
LIVELLO_1
 62
     7
100
AcDbLine
 10
33.878897
 20
-1.021212
 30
0.0
 11
52.263649
 21
-1.021212
 31
0.0
  0
LINE
  5
36
100
AcDbEntity
  8
LIVELLO_1
 62
     7
100
AcDbLine
 10
33.878897
 20
2.159989
 30
0.0
 11
52.263649
 21
2.159989
 31
0.0
  0
LINE
  5
35
100
AcDbEntity
  8
LIVELLO_1
 62
     7
100
AcDbLine
 10
33.342495
 20
-0.491012
 30
0.0
 11
33.342495
 21
1.629789
 31
0.0
  0
SPLINE
  5
34
100
AcDbEntity
  8
LIVELLO_1
 62
     7
100
AcDbSpline
210
0.0
220
0.0
230
1.0
 70
     8
 71
     3
 72
    11
 73
     7
 74
     0
 42
0.00000001
 43
0.00000001
 40
0.0
 40
0.0
 40
0.0
 40
0.0
 40
1.0
 40
1.0
 40
1.0
 40
2.0
 40
2.0
 40
2.0
 40
2.0
 10
25.776376681857638
 20
1.6297885470920137
 30
0.0
 10
25.776376681857638
 20
1.7731045193142358
 30
0.0
 10
25.722288682725694
 20
1.903329128689236
 30
0.0
 10
25.619969346788192
 20
2.0035814073350693
 30
0.0
 10
25.522128634982636
 20
2.1076232910156247
 30
0.0
 10
25.385358344184027
 20
2.1599887424045137
 30
0.0
 10
25.246176486545135
 20
2.1599887424045137
 30
0.0
  0
SPLINE
  5
33
100
AcDbEntity
  8
LIVELLO_1
 62
     7
100
AcDbSpline
210
0.0
220
0.0
230
1.0
 70
     8
 71
     3
 72
    11
 73
     7
 74
     0
 42
0.00000001
 43
0.00000001
 40
0.0
 40
0.0
 40
0.0
 40
0.0
 40
1.0
 40
1.0
 40
1.0
 40
2.0
 40
2.0
 40
2.0
 40
2.0
 10
25.246176486545135
 20
-1.0212124294704861
 30
0.0
 10
25.385358344184027
 20
-1.0212124294704861
 30
0.0
 10
25.522128634982636
 20
-0.9733256022135416
 30
0.0
 10
25.619969346788192
 20
-0.8778964572482638
 30
0.0
 10
25.722288682725694
 20
-0.7735100640190972
 30
0.0
 10
25.776376681857638
 20
-0.6343282063802083
 30
0.0
 10
25.776376681857638
 20
-0.4910122341579861
 30
0.0
  0
SPLINE
  5
32
100
AcDbEntity
  8
LIVELLO_1
 62
     7
100
AcDbSpline
210
0.0
220
0.0
230
1.0
 70
     8
 71
     3
 72
    11
 73
     7
 74
     0
 42
0.00000001
 43
0.00000001
 40
0.0
 40
0.0
 40
0.0
 40
0.0
 40
1.0
 40
1.0
 40
1.0
 40
2.0
 40
2.0
 40
2.0
 40
2.0
 10
8.5633015950520832
 20
-0.4910122341579861
 30
0.0
 10
8.5633015950520832
 20
-0.6343282063802083
 30
0.0
 10
8.6173895941840275
 20
-0.7735100640190972
 30
0.0
 10
8.7152303059895821
 20
-0.8778964572482638
 30
0.0
 10
8.8175496419270818
 20
-0.9733256022135416
 30
0.0
 10
8.9522528754340271
 20
-1.0212124294704861
 30
0.0
 10
9.0935017903645825
 20
-1.0212124294704861
 30
0.0
  0
SPLINE
  5
31
100
AcDbEntity
  8
LIVELLO_1
 62
     7
100
AcDbSpline
210
0.0
220
0.0
230
1.0
 70
     8
 71
     3
 72
    11
 73
     7
 74
     0
 42
0.00000001
 43
0.00000001
 40
0.0
 40
0.0
 40
0.0
 40
0.0
 40
1.0
 40
1.0
 40
1.0
 40
2.0
 40
2.0
 40
2.0
 40
2.0
 10
9.0935017903645825
 20
2.1599887424045137
 30
0.0
 10
8.9522528754340271
 20
2.1599887424045137
 30
0.0
 10
8.8175496419270818
 20
2.1076232910156247
 30
0.0
 10
8.7152303059895821
 20
2.0035814073350693
 30
0.0
 10
8.6173895941840275
 20
1.903329128689236
 30
0.0
 10
8.5633015950520832
 20
1.7731045193142358
 30
0.0
 10
8.5633015950520832
 20
1.6297885470920137
 30
0.0
  0
LINE
  5
30
100
AcDbEntity
  8
LIVELLO_1
 62
     7
100
AcDbLine
 10
25.776377
 20
-0.491012
 30
0.0
 11
25.776377
 21
1.629789
 31
0.0
  0
LINE
  5
2F
100
AcDbEntity
  8
LIVELLO_1
 62
     7
100
AcDbLine
 10
9.093502
 20
-1.021212
 30
0.0
 11
25.246176
 21
-1.021212
 31
0.0
  0
LINE
  5
2E
100
AcDbEntity
  8
LIVELLO_1
 62
     7
100
AcDbLine
 10
9.093502
 20
2.159989
 30
0.0
 11
25.246176
 21
2.159989
 31
0.0
  0
LINE
  5
2D
100
AcDbEntity
  8
LIVELLO_1
 62
     7
100
AcDbLine
 10
8.563302
 20
-0.491012
 30
0.0
 11
8.563302
 21
1.629789
 31
0.0
  0
SPLINE
  5
2C
100
AcDbEntity
  8
LIVELLO_1
 62
     7
100
AcDbSpline
210
0.0
220
0.0
230
1.0
 70
     8
 71
     3
 72
     8
 73
     4
 74
     0
 42
0.00000001
 43
0.00000001
 40
0.0
 40
0.0
 40
0.0
 40
0.0
 40
1.0
 40
1.0
 40
1.0
 40
1.0
 10
75.71923692491319
 20
-1.0212124294704861
 30
0.0
 10
76.42996012369791
 20
-3.5416442871093747
 30
0.0
 10
78.726460774739579
 20
-5.2800394694010411
 30
0.0
 10
81.338532172309016
 20
-5.2800394694010411
 30
0.0
  0
ENDBLK
  5
8D
100
AcDbEntity
  8
LIVELLO_1
100
AcDbBlockEnd
  0
ENDSEC
  0
SECTION
  2
ENTITIES
  0
INSERT
  5
2A
100
AcDbEntity
  8
LIVELLO_1
 62
     7
100
AcDbBlockReference
  2
AI9-BLK1
 10
101.066182
 20
137.74086
 30
0.0
  0
ENDSEC
  0
SECTION
  2
OBJECTS
  0
DICTIONARY
  5
19
100
AcDbDictionary
280
     0
281
     1
  3
ACAD_GROUP
350
1A
  3
ACAD_MLINESTYLE
350
1B
  3
ACAD_LAYOUT
350
1E
  3
ACAD_PLOTSETTINGS
350
22
  3
ACAD_PLOTSTYLENAME
350
1F
  3
ACAD_WIPEOUT_VARS
350
23
  0
DICTIONARY
  5
1A
102
{ACAD_REACTORS
330
19
102
}
100
AcDbDictionary
280
     0
281
     1
  0
DICTIONARY
  5
1B
102
{ACAD_REACTORS
330
19
102
}
100
AcDbDictionary
280
     0
281
     1
  3
Standard
350
1C
  0
MLINESTYLE
  5
1C
102
{ACAD_REACTORS
330
1B
102
}
100
AcDbMlineStyle
  2
Standard
 70
     0
  3

 62
     0
 51
90.0
 52
90.0
 71
     2
 49
0.5
 62
   256
  6
ByLayer
 49
-0.5
 62
   256
  6
ByLayer
  0
ACDBDICTIONARYWDFLT
  5
1F
102
{ACAD_REACTORS
330
19
102
}
100
AcDbDictionary
281
     1
  3
Normal
350
1D
100
AcDbDictionaryWithDefault
340
1D
  0
ACDBPLACEHOLDER
  5
1D
102
{ACAD_REACTORS
330
1F
102
}
  0
LAYOUT
  5
20
102
{ACAD_REACTORS
330
1E
102
}
100
AcDbPlotSettings
  1

  2

  4

  6

 40
0.0
 41
0.0
 42
0.0
 43
0.0
 44
0.0
 45
0.0
 46
0.0
 47
0.0
 48
0.0
 49
0.0
140
0.0
141
0.0
142
1.0
143
1.0
 70
  1024
 72
     0
 73
     0
 74
     0
  7

 75
     0
147
1.0
148
0.0
149
0.0
100
AcDbLayout
  1
Model
 70
     0
 71
     0
 10
0.0
 20
0.0
 11
0.0
 21
0.0
 12
0.0
 22
0.0
 32
0.0
 14
0.0
 24
0.0
 34
0.0
 15
0.0
 25
0.0
 35
0.0
146
0.0
 13
0.0
 23
0.0
 33
0.0
 16
0.0
 26
0.0
 36
0.0
 17
0.0
 27
0.0
 37
0.0
 76
     0
330
A
331
0
345
0
346
0
  0
LAYOUT
  5
21
102
{ACAD_REACTORS
330
1E
102
}
100
AcDbPlotSettings
  1

  2

  4

  6

 40
0.0
 41
0.0
 42
0.0
 43
0.0
 44
0.0
 45
0.0
 46
0.0
 47
0.0
 48
0.0
 49
0.0
140
0.0
141
0.0
142
1.0
143
1.0
 70
     0
 72
     0
 73
     0
 74
     0
  7

 75
     0
147
1.0
148
0.0
149
0.0
100
AcDbLayout
  1
Layout1
 70
     0
 71
     0
 10
0.0
 20
0.0
 11
0.0
 21
0.0
 12
0.0
 22
0.0
 32
0.0
 14
0.0
 24
0.0
 34
0.0
 15
0.0
 25
0.0
 35
0.0
146
0.0
 13
0.0
 23
0.0
 33
0.0
 16
0.0
 26
0.0
 36
0.0
 17
0.0
 27
0.0
 37
0.0
 76
     0
330
B
331
0
345
0
346
0
  0
DICTIONARY
  5
1E
102
{ACAD_REACTORS
330
19
102
}
100
AcDbDictionary
280
     0
281
     1
  3
Layout1
350
21
  3
Model
350
20
  0
DICTIONARY
  5
22
102
{ACAD_REACTORS
330
19
102
}
100
AcDbDictionary
280
     0
281
     1
  0
WIPEOUTVARIABLES
  5
23
100
AcDbWipeoutVariables
 70
     1
  0
ENDSEC
  0
EOF
