  0
SECTION
  2
HEADER
  9
$ACADVER
  1
AC1015
  9
$ACADMAINTVER
 70
     6
  9
$DWGCODEPAGE
  3
ANSI_932
  9
$INSBASE
 10
0.0
 20
0.0
 30
0.0
  9
$EXTMIN
 10
-0.008785
 20
0.0
 30
1.000000E+20
  9
$EXTMAX
 10
256.840481
 20
207.164271
 30
-1.000000E+20
  9
$LIMMIN
 10
-0.008785
 20
0.0
  9
$LIMMAX
 10
256.840481
 20
207.164271
  9
$ORTHOMODE
 70
     0
  9
$REGENMODE
 70
     1
  9
$FILLMODE
 70
     1
  9
$QTEXTMODE
 70
     0
  9
$MIRRTEXT
 70
     1
  9
$LTSCALE
 40
1.0
  9
$ATTMODE
 70
     1
  9
$TEXTSIZE
 40
0.2
  9
$TRACEWID
 40
0.05
  9
$TEXTSTYLE
  7
Standard
  9
$CLAYER
  8
0
  9
$CELTYPE
  6
Continuous
  9
$CECOLOR
 62
   256
  9
$CELTSCALE
 40
1.0
  9
$DISPSILH
 70
     0
  9
$DIMSCALE
 40
1.0
  9
$DIMASZ
 40
0.18
  9
$DIMEXO
 40
0.0625
  9
$DIMDLI
 40
0.38
  9
$DIMRND
 40
0.0
  9
$DIMDLE
 40
0.0
  9
$DIMEXE
 40
0.18
  9
$DIMTP
 40
0.0
  9
$DIMTM
 40
0.0
  9
$DIMTXT
 40
0.18
  9
$DIMCEN
 40
0.09
  9
$DIMTSZ
 40
0.0
  9
$DIMTOL
 70
     0
  9
$DIMLIM
 70
     0
  9
$DIMTIH
 70
     1
  9
$DIMTOH
 70
     1
  9
$DIMSE1
 70
     0
  9
$DIMSE2
 70
     0
  9
$DIMTAD
 70
     0
  9
$DIMZIN
 70
     0
  9
$DIMBLK
  1

  9
$DIMASO
 70
     1
  9
$DIMSHO
 70
     1
  9
$DIMPOST
  1

  9
$DIMAPOST
  1

  9
$DIMALT
 70
     0
  9
$DIMALTD
 70
     2
  9
$DIMALTF
 40
25.4
  9
$DIMLFAC
 40
1.0
  9
$DIMTOFL
 70
     0
  9
$DIMTVP
 40
0.0
  9
$DIMTIX
 70
     0
  9
$DIMSOXD
 70
     0
  9
$DIMSAH
 70
     0
  9
$DIMBLK1
  1

  9
$DIMBLK2
  1

  9
$DIMSTYLE
  2
Standard
  9
$DIMCLRD
 70
     0
  9
$DIMCLRE
 70
     0
  9
$DIMCLRT
 70
     0
  9
$DIMTFAC
 40
1.0
  9
$DIMGAP
 40
0.09
  9
$DIMJUST
 70
     0
  9
$DIMSD1
 70
     0
  9
$DIMSD2
 70
     0
  9
$DIMTOLJ
 70
     1
  9
$DIMTZIN
 70
     0
  9
$DIMALTZ
 70
     0
  9
$DIMALTTZ
 70
     0
  9
$DIMUPT
 70
     0
  9
$DIMDEC
 70
     4
  9
$DIMTDEC
 70
     4
  9
$DIMALTU
 70
     2
  9
$DIMALTTD
 70
     2
  9
$DIMTXSTY
  7
Standard
  9
$DIMAUNIT
 70
     0
  9
$DIMADEC
 70
     0
  9
$DIMALTRND
 40
0.0
  9
$DIMAZIN
 70
     0
  9
$DIMDSEP
 70
     0
  9
$DIMATFIT
 70
     3
  9
$DIMFRAC
 70
     0
  9
$DIMLDRBLK
  1

  9
$DIMLUNIT
 70
     2
  9
$DIMLWD
 70
     0
  9
$DIMLWE
 70
     0
  9
$DIMTMOVE
 70
     0
  9
$LUNITS
 70
     2
  9
$LUPREC
 70
     4
  9
$SKETCHINC
 40
0.1
  9
$FILLETRAD
 40
0.0
  9
$AUNITS
 70
     0
  9
$AUPREC
 70
     0
  9
$MENU
  1
acad
  9
$ELEVATION
 40
0.0
  9
$PELEVATION
 40
0.0
  9
$THICKNESS
 40
0.0
  9
$LIMCHECK
 70
     0
  9
$CHAMFERA
 40
0.0
  9
$CHAMFERB
 40
0.0
  9
$CHAMFERC
 40
0.0
  9
$CHAMFERD
 40
0.0
  9
$SKPOLY
 70
     0
  9
$TDCREATE
 40
0.000000000
  9
$TDUCREATE
 40
0.000000000
  9
$TDUPDATE
 40
0.000000000
  9
$TDUUPDATE
 40
0.000000000
  9
$TDINDWG
 40
0.0000000000
  9
$TDUSRTIMER
 40
0.0000000000
  9
$USRTIMER
 70
     1
  9
$ANGBASE
 50
0.0
  9
$ANGDIR
 70
     0
  9
$PDMODE
 70
     0
  9
$PDSIZE
 40
0.0
  9
$PLINEWID
 40
0.0
  9
$SPLFRAME
 70
     0
  9
$SPLINETYPE
 70
     6
  9
$SPLINESEGS
 70
     8
  9
$HANDSEED
  5
76
  9
$SURFTAB1
 70
     6
  9
$SURFTAB2
 70
     6
  9
$SURFTYPE
 70
     6
  9
$SURFU
 70
     6
  9
$SURFV
 70
     6
  9
$UCSBASE
  2

  9
$UCSNAME
  2

  9
$UCSORG
 10
0.0
 20
0.0
 30
0.0
  9
$UCSXDIR
 10
1.0
 20
0.0
 30
0.0
  9
$UCSYDIR
 10
0.0
 20
1.0
 30
0.0
  9
$UCSORTHOREF
  2

  9
$UCSORTHOVIEW
 70
     0
  9
$UCSORGTOP
 10
0.0
 20
0.0
 30
0.0
  9
$UCSORGBOTTOM
 10
0.0
 20
0.0
 30
0.0
  9
$UCSORGLEFT
 10
0.0
 20
0.0
 30
0.0
  9
$UCSORGRIGHT
 10
0.0
 20
0.0
 30
0.0
  9
$UCSORGFRONT
 10
0.0
 20
0.0
 30
0.0
  9
$UCSORGBACK
 10
0.0
 20
0.0
 30
0.0
  9
$PUCSBASE
  2

  9
$PUCSNAME
  2

  9
$PUCSORG
 10
0.0
 20
0.0
 30
0.0
  9
$PUCSXDIR
 10
1.0
 20
0.0
 30
0.0
  9
$PUCSYDIR
 10
0.0
 20
1.0
 30
0.0
  9
$PUCSORTHOREF
  2

  9
$PUCSORTHOVIEW
 70
     0
  9
$PUCSORGTOP
 10
0.0
 20
0.0
 30
0.0
  9
$PUCSORGBOTTOM
 10
0.0
 20
0.0
 30
0.0
  9
$PUCSORGLEFT
 10
0.0
 20
0.0
 30
0.0
  9
$PUCSORGRIGHT
 10
0.0
 20
0.0
 30
0.0
  9
$PUCSORGFRONT
 10
0.0
 20
0.0
 30
0.0
  9
$PUCSORGBACK
 10
0.0
 20
0.0
 30
0.0
  9
$USERI1
 70
     0
  9
$USERI2
 70
     0
  9
$USERI3
 70
     0
  9
$USERI4
 70
     0
  9
$USERI5
 70
     0
  9
$USERR1
 40
0.0
  9
$USERR2
 40
0.0
  9
$USERR3
 40
0.0
  9
$USERR4
 40
0.0
  9
$USERR5
 40
0.0
  9
$WORLDVIEW
 70
     1
  9
$SHADEDGE
 70
     3
  9
$SHADEDIF
 70
    70
  9
$TILEMODE
 70
     1
  9
$MAXACTVP
 70
    16
  9
$PINSBASE
 10
0.0
 20
0.0
 30
0.0
  9
$PLIMCHECK
 70
     0
  9
$PEXTMIN
 10
1.000000E+20
 20
1.000000E+20
 30
1.000000E+20
  9
$PEXTMAX
 10
-1.000000E+20
 20
-1.000000E+20
 30
-1.000000E+20
  9
$PLIMMIN
 10
0.0
 20
0.0
  9
$PLIMMAX
 10
12.0
 20
9.0
  9
$UNITMODE
 70
     0
  9
$VISRETAIN
 70
     0
  9
$PLINEGEN
 70
     1
  9
$PSLTSCALE
 70
     0
  9
$TREEDEPTH
 70
  3020
  9
$CMLSTYLE
  2
Standard
  9
$CMLJUST
 70
     0
  9
$CMLSCALE
 40
1.0
  9
$PROXYGRAPHICS
 70
     0
  9
$MEASUREMENT
 70
     1
  9
$CELWEIGHT
370
     0
  9
$ENDCAPS
280
     0
  9
$JOINSTYLE
280
     0
  9
$LWDISPLAY
290
     0
  9
$INSUNITS
 70
     0
  9
$HYPERLINKBASE
  1

  9
$STYLESHEET
  1

  9
$XEDIT
290
     1
  9
$CEPSNTYPE
380
     0
  9
$PSTYLEMODE
290
     1
  9
$FINGERPRINTGUID
  2

  9
$VERSIONGUID
  2

  9
$EXTNAMES
290
     1
  9
$PSVPSCALE
 40
0.0
  0
ENDSEC
  0
SECTION
  2
CLASSES
  0
CLASS
  1
LWPOLYLINE
  2
AcDbPolyline
  3
AutoCAD 2000
 90
    32768
280
     0
281
     1
  0
CLASS
  1
IMAGE
  2
AcDbRasterImage
  3
ISM
 90
    32895
280
     0
281
     1
  0
CLASS
  1
OLE2FRAME
  2
AcDbOle2Frame
  3
AutoCAD 2000
 90
    32768
280
     0
281
     1
  0
CLASS
  1
HATCH
  2
AcDbHatch
  3
AutoCAD 2000
 90
    32768
280
     0
281
     1
  0
CLASS
  1
DICTIONARYVAR
  2
AcDbDictionaryVar
  3
AutoCAD 2000
 90
    32768
280
     0
281
     0
  0
CLASS
  1
RASTERVARIABLES
  2
AcDbRasterVariables
  3
ISM
 90
    32768
280
     0
281
     0
  0
CLASS
  1
IMAGEDEF
  2
AcDbRasterImageDef
  3
ISM
 90
    32768
280
     0
281
     0
  0
CLASS
  1
IMAGEDEF_REACTOR
  2
AcDbRasterImageDefReactor
  3
ISM
 90
    32769
280
     0
281
     0
  0
CLASS
  1
IDBUFFER
  2
AcDbIdBuffer
  3
AutoCAD 2000
 90
    32768
280
     0
281
     0
  0
CLASS
  1
SPATIAL_FILTER
  2
AcDbSpatialFilter
  3
AutoCAD 2000
 90
    32768
280
     0
281
     0
  0
CLASS
  1
XRECORD
  2
AcDbXrecord
  3
AutoCAD 2000
 90
    32768
280
     0
281
     0
  0
CLASS
  1
SORTENTSTABLE
  2
AcDbSortentsTable
  3
AutoCAD 2000
 90
    32768
280
     0
281
     0
  0
CLASS
  1
LAYER_INDEX
  2
AcDbLayerIndex
  3
AutoCAD 2000
 90
    32768
280
     0
281
     0
  0
CLASS
  1
SPATIAL_INDEX
  2
AcDbSpatialIndex
  3
AutoCAD 2000
 90
    32768
280
     0
281
     0
  0
CLASS
  1
OBJECT_PTR
  2
CAseDLPNTableRecord
  3
"ASE-LPNTableRecord"
 90
    32769
280
     0
281
     0
  0
CLASS
  1
LAYOUT
  2
AcDbLayout
  3
AutoCAD 2000
 90
        0
280
     0
281
     0
  0
CLASS
  1
PLOTSETTINGS
  2
AcDbPlotSettings
  3
AutoCAD 2000
 90
    32768
280
     0
281
     0
  0
CLASS
  1
ACDBDICTIONARYWDFLT
  2
AcDbDictionaryWithDefault
  3
AutoCAD 2000
 90
        0
280
     0
281
     0
  0
CLASS
  1
ACDBPLACEHOLDER
  2
AcDbPlaceHolder
  3
AutoCAD 2000
 90
        0
280
     0
281
     0
  0
CLASS
  1
VBA_PROJECT
  2
AcDbVbaProject
  3
acadvba
 90
    32768
280
     0
281
     0
  0
CLASS
  1
WIPEOUT
  2
AcDbWipeout
  3
WipeOut|AutoCAD Express Tool|expresstools@autodesk.com
 90
    32895
280
     0
281
     1
  0
CLASS
  1
WIPEOUTVARIABLES
  2
AcDbWipeoutVariables
  3
WipeOut|AutoCAD Express Tool|expresstools@autodesk.com
 90
        0
280
     0
281
     0
  0
CLASS
  1
RTEXT
  2
RText
  3
RText|AutoCAD Express Tool|expresstools@autodesk.com
 90
    32768
280
     0
281
     1
  0
CLASS
  1
ARCALIGNEDTEXT
  2
AcDbArcAlignedText
  3
ATEXT|AutoCAD Express Tool|expresstools@autodesk.com
 90
    32768
280
     0
281
     1
  0
ENDSEC
  0
SECTION
  2
TABLES
  0
TABLE
  2
VPORT
  5
7
100
AcDbSymbolTable
 70
     1
  0
VPORT
  5
15
100
AcDbSymbolTableRecord
100
AcDbViewportTableRecord
  2
*ACTIVE
 70
     0
 10
0.0
 20
0.0
 11
1.0
 21
1.0
 12
6.591288
 22
4.579184
 13
0.0
 23
0.0
 14
1.0
 24
1.0
 15
0.0
 25
0.0
 16
0.0
 26
0.0
 36
1.0
 17
0.0
 27
0.0
 37
0.0
 40
9.158369
 41
0.688564
 42
50.0
 43
0.0
 44
0.0
 50
0.0
 51
0.0
 71
     0
 72
   100
 73
     1
 74
     1
 75
     0
 76
     0
 77
     0
 78
     0
281
     0
 65
     0
110
0.0
120
0.0
130
0.0
111
1.0
121
0.0
131
0.0
112
0.0
122
1.0
132
0.0
345
0
346
0
 79
     0
146
0.0
  0
ENDTAB
  0
TABLE
  2
LTYPE
  5
4
100
AcDbSymbolTable
 70
     3
  0
LTYPE
  5
11
100
AcDbSymbolTableRecord
100
AcDbLinetypeTableRecord
  2
ByBlock
 70
    64
  3

 72
    65
 73
     0
 40
0.0
  0
LTYPE
  5
12
100
AcDbSymbolTableRecord
100
AcDbLinetypeTableRecord
  2
ByLayer
 70
    64
  3

 72
    65
 73
     0
 40
0.0
  0
LTYPE
  5
13
100
AcDbSymbolTableRecord
100
AcDbLinetypeTableRecord
  2
Continuous
 70
    64
  3
Solid line
 72
    65
 73
     0
 40
0.0
  0
ENDTAB
  0
TABLE
  2
LAYER
  5
2
100
AcDbSymbolTable
 70
     2
  0
LAYER
  5
14
100
AcDbSymbolTableRecord
100
AcDbLayerTableRecord
  2
0
 70
     0
 62
     7
  6
Continuous
290
     1
370
    -3
390
1D
  0
LAYER
  5
28
100
AcDbSymbolTableRecord
100
AcDbLayerTableRecord
  2
LIVELLO_1
 70
     0
 62
   160
  6
Continuous
290
     1
370
    -3
390
1D
  0
ENDTAB
  0
TABLE
  2
STYLE
  5
3
100
AcDbSymbolTable
 70
     5
  0
STYLE
  5
17
100
AcDbSymbolTableRecord
100
AcDbTextStyleTableRecord
  2
Standard
 70
     0
 40
0.0
 41
1.0
 50
0.0
 71
     0
 42
0.0
  3
txt
  4

  0
STYLE
  5
24
100
AcDbSymbolTableRecord
100
AcDbTextStyleTableRecord
  2
STD
 70
     0
 40
0.0
 41
1.0
 50
0.0
 71
     0
 42
0.0
  3
txt
  4

  0
STYLE
  5
25
100
AcDbSymbolTableRecord
100
AcDbTextStyleTableRecord
  2
TATESTD
 70
     4
 40
0.0
 41
1.0
 50
0.0
 71
     0
 42
0.0
  3
txt
  4

  0
STYLE
  5
26
100
AcDbSymbolTableRecord
100
AcDbTextStyleTableRecord
  2
KANJISTD
 70
     0
 40
0.0
 41
1.0
 50
0.0
 71
     0
 42
0.0
  3
txt
  4
extfont
  0
STYLE
  5
27
100
AcDbSymbolTableRecord
100
AcDbTextStyleTableRecord
  2
KANJITATE
 70
     4
 40
0.0
 41
1.0
 50
0.0
 71
     0
 42
0.0
  3
txt
  4
extfont
  0
ENDTAB
  0
TABLE
  2
VIEW
  5
5
100
AcDbSymbolTable
 70
     0
  0
ENDTAB
  0
TABLE
  2
UCS
  5
6
100
AcDbSymbolTable
 70
     0
  0
ENDTAB
  0
TABLE
  2
APPID
  5
8
100
AcDbSymbolTable
 70
     1
  0
APPID
  5
16
100
AcDbSymbolTableRecord
100
AcDbRegAppTableRecord
  2
ACAD
 70
     0
  0
ENDTAB
  0
TABLE
  2
DIMSTYLE
  5
9
100
AcDbSymbolTable
 70
     1
100
AcDbDimStyleTable
 71
     0
  0
DIMSTYLE
105
18
100
AcDbSymbolTableRecord
100
AcDbDimStyleTableRecord
  2
Standard
 70
     0
  3

  4

 40
1.0
 41
0.18
 42
0.0625
 43
0.38
 44
0.18
 45
0.0
 46
0.0
 47
0.0
 48
0.0
 71
     0
 72
     0
 73
     1
 74
     1
 75
     0
 76
     0
 77
     0
 78
     0
 79
     0
140
0.18
141
0.09
142
0.0
143
25.4
144
1.0
145
0.0
146
1.0
147
0.09
148
0.0
170
     0
171
     2
172
     0
173
     0
174
     0
175
     0
176
     0
177
     0
178
     0
179
     0
271
     4
272
     4
273
     2
274
     2
275
     0
276
     0
277
     2
278
    46
279
     0
280
     0
281
     0
282
     0
283
     1
284
     0
285
     0
286
     0
288
     0
340
17
341
0
342
0
343
0
344
0
371
    -2
372
    -2
  0
ENDTAB
  0
TABLE
  2
BLOCK_RECORD
  5
1
100
AcDbSymbolTable
 70
     4
  0
BLOCK_RECORD
  5
A
100
AcDbSymbolTableRecord
100
AcDbBlockTableRecord
  2
*MODEL_SPACE
340
20
  0
BLOCK_RECORD
  5
B
100
AcDbSymbolTableRecord
100
AcDbBlockTableRecord
  2
*PAPER_SPACE
340
21
  0
BLOCK_RECORD
  5
29
100
AcDbSymbolTableRecord
100
AcDbBlockTableRecord
  2
AI9-BLK1
340
0
102
{BLKREFS
331
2A
102
}
  0
BLOCK_RECORD
  5
57
100
AcDbSymbolTableRecord
100
AcDbBlockTableRecord
  2
AI9-BLK2
340
0
102
{BLKREFS
331
58
102
}
  0
BLOCK_RECORD
  5
5A
100
AcDbSymbolTableRecord
100
AcDbBlockTableRecord
  2
AI9-BLK3
340
0
102
{BLKREFS
331
5B
102
}
  0
BLOCK_RECORD
  5
5D
100
AcDbSymbolTableRecord
100
AcDbBlockTableRecord
  2
AI9-BLK4
340
0
102
{BLKREFS
331
5E
102
}
  0
ENDTAB
  0
ENDSEC
  0
SECTION
  2
BLOCKS
  0
BLOCK
  5
D
100
AcDbEntity
  8
0
100
AcDbBlockBegin
  2
*MODEL_SPACE
 70
     0
 10
0.0
 20
0.0
 30
0.0
  3
*MODEL_SPACE
  1

  0
ENDBLK
  5
E
100
AcDbEntity
  8
0
100
AcDbBlockEnd
  0
BLOCK
  5
F
100
AcDbEntity
 67
     1
  8
0
100
AcDbBlockBegin
  2
*PAPER_SPACE
 70
     0
 10
0.0
 20
0.0
 30
0.0
  3
*PAPER_SPACE
  1

  0
ENDBLK
  5
10
100
AcDbEntity
 67
     1
  8
0
100
AcDbBlockEnd
  0
BLOCK
  5
2B
100
AcDbEntity
  8
LIVELLO_1
 62
     7
100
AcDbBlockBegin
  2
AI9-BLK1
 70
     0
 10
0.0
 20
0.0
 30
0.0
  3
AI9-BLK1
  1

  0
LINE
  5
74
100
AcDbEntity
  8
LIVELLO_1
 62
     7
100
AcDbLine
 10
-22.94425
 20
-101.829616
 30
0.0
 11
-9.110813
 21
-101.829616
 31
0.0
  0
LINE
  5
73
100
AcDbEntity
  8
LIVELLO_1
 62
     7
100
AcDbLine
 10
-16.026154
 20
-18.834854
 30
0.0
 11
-16.026154
 21
-101.829616
 31
0.0
  0
LINE
  5
72
100
AcDbEntity
  8
LIVELLO_1
 62
     7
100
AcDbLine
 10
-16.026154
 20
77.990416
 30
0.0
 11
-16.026154
 21
5.37211
 31
0.0
  0
LINE
  5
71
100
AcDbEntity
  8
LIVELLO_1
 62
     7
100
AcDbLine
 10
-22.94425
 20
77.990416
 30
0.0
 11
-9.110813
 21
77.990416
 31
0.0
  0
MTEXT
  5
70
100
AcDbEntity
  8
LIVELLO_1
 62
     7
100
AcDbMText
 10
-27.49591
 20
2.805745
 30
0.0
 40
15.061155
 41
0.0
 71
     1
 72
     2
  1
\fCourier|b0|i0;\H15.0612;\C7;\U+0033\U+0035\U+0030
  7
STD
210
0.0
220
0.0
230
1.0
 73
     1
 44
1.0
  0
LINE
  5
6F
100
AcDbEntity
  8
LIVELLO_1
 62
     7
100
AcDbLine
 10
-93.771968
 20
-44.007133
 30
0.0
 11
-86.994948
 21
-44.007133
 31
0.0
  0
POLYLINE
  5
6A
100
AcDbEntity
  8
LIVELLO_1
 62
     7
100
AcDb2dPolyline
 66
     1
 10
0.0
 20
0.0
 30
0.0
  0
VERTEX
  5
6B
100
AcDbEntity
  8
LIVELLO_1
 62
     7
100
AcDbVertex
100
AcDb2dVertex
 10
-93.771968
 20
-44.007133
 30
0.0
  0
VERTEX
  5
6C
100
AcDbEntity
  8
LIVELLO_1
 62
     7
100
AcDbVertex
100
AcDb2dVertex
 10
-93.771968
 20
19.250677
 30
0.0
  0
VERTEX
  5
6D
100
AcDbEntity
  8
LIVELLO_1
 62
     7
100
AcDbVertex
100
AcDb2dVertex
 10
-86.994948
 20
19.250677
 30
0.0
  0
SEQEND
  5
6E
100
AcDbEntity
  8
LIVELLO_1
 62
     7
  0
SPLINE
  5
69
100
AcDbEntity
  8
LIVELLO_1
 62
     7
100
AcDbSpline
210
0.0
220
0.0
230
1.0
 70
     8
 71
     3
 72
    20
 73
    16
 74
     0
 42
0.00000001
 43
0.00000001
 40
0.0
 40
0.0
 40
0.0
 40
0.0
 40
1.0
 40
1.0
 40
1.0
 40
2.0
 40
2.0
 40
2.0
 40
3.0
 40
3.0
 40
3.0
 40
4.0
 40
4.0
 40
4.0
 40
5.0
 40
5.0
 40
5.0
 40
5.0
 10
-41.807870144314229
 20
-97.876024034288179
 30
0.0
 10
-41.807870144314229
 20
-97.876024034288179
 30
0.0
 10
-54.948497856987842
 20
-85.741364203559016
 30
0.0
 10
-54.948497856987842
 20
-85.741364203559016
 30
0.0
 10
-57.962267388237841
 20
-83.255383300781247
 30
0.0
 10
-59.884113905164924
 20
-79.493683539496516
 30
0.0
 10
-59.884113905164924
 20
-75.283087836371521
 30
0.0
 10
-59.884113905164924
 20
-75.283087836371521
 30
0.0
 10
-59.884113905164924
 20
50.879581705729159
 30
0.0
 10
-59.884113905164924
 20
50.879581705729159
 30
0.0
 10
-59.884113905164924
 20
55.092761230468746
 30
0.0
 10
-57.962267388237841
 20
58.85446099175347
 30
0.0
 10
-54.948497856987842
 20
61.340614149305551
 30
0.0
 10
-54.948497856987842
 20
61.340614149305551
 30
0.0
 10
-41.641299777560761
 20
74.790266927083323
 30
0.0
 10
-41.641299777560761
 20
74.790266927083323
 30
0.0
  0
SPLINE
  5
68
100
AcDbEntity
  8
LIVELLO_1
 62
     7
100
AcDbSpline
210
0.0
220
0.0
230
1.0
 70
     8
 71
     3
 72
    23
 73
    19
 74
     0
 42
0.00000001
 43
0.00000001
 40
0.0
 40
0.0
 40
0.0
 40
0.0
 40
1.0
 40
1.0
 40
1.0
 40
2.0
 40
2.0
 40
2.0
 40
3.0
 40
3.0
 40
3.0
 40
4.0
 40
4.0
 40
4.0
 40
5.0
 40
5.0
 40
5.0
 40
6.0
 40
6.0
 40
6.0
 40
6.0
 10
-84.281591118706586
 20
35.736836751302079
 30
0.0
 10
-84.281591118706586
 20
35.736836751302079
 30
0.0
 10
-41.807870144314229
 20
77.99041612413194
 30
0.0
 10
-41.807870144314229
 20
77.99041612413194
 30
0.0
 10
-41.807870144314229
 20
77.99041612413194
 30
0.0
 10
-41.807870144314229
 20
-102.74670003255207
 30
0.0
 10
-41.807870144314229
 20
-102.74670003255207
 30
0.0
 10
-41.807870144314229
 20
-102.74670003255207
 30
0.0
 10
-83.871107991536448
 20
-60.6879408094618
 30
0.0
 10
-83.871107991536448
 20
-60.6879408094618
 30
0.0
 10
-86.671798366970478
 20
-58.309102376302079
 30
0.0
 10
-87.868452284071168
 20
-55.918550618489576
 30
0.0
 10
-86.994948323567698
 20
-52.73252631293402
 30
0.0
 10
-86.994948323567698
 20
-52.73252631293402
 30
0.0
 10
-86.994948323567698
 20
28.966879611545135
 30
0.0
 10
-86.994948323567698
 20
28.966879611545135
 30
0.0
 10
-87.468993462456595
 20
31.752239312065971
 30
0.0
 10
-86.671798366970478
 20
33.747294108072914
 30
0.0
 10
-84.281591118706586
 20
35.736836751302079
 30
0.0
  0
MTEXT
  5
67
100
AcDbEntity
  8
LIVELLO_1
 62
     7
100
AcDbMText
 10
-84.043018
 20
102.888935
 30
0.0
 40
12.293776
 41
0.0
 71
     1
 72
     2
  1
\fCourier|b0|i0;\H12.2938;\C7;\U+0031\U+0030\U+0030
  7
STD
210
0.0
220
0.0
230
1.0
 73
     1
 44
1.0
  0
LINE
  5
66
100
AcDbEntity
  8
LIVELLO_1
 62
     7
100
AcDbLine
 10
-41.961694
 20
101.347991
 30
0.0
 11
-41.961694
 21
87.517483
 31
0.0
  0
LINE
  5
65
100
AcDbEntity
  8
LIVELLO_1
 62
     7
100
AcDbLine
 10
-55.014816
 20
94.434201
 30
0.0
 11
-41.961694
 21
94.434201
 31
0.0
  0
LINE
  5
64
100
AcDbEntity
  8
LIVELLO_1
 62
     7
100
AcDbLine
 10
-93.951113
 20
94.434201
 30
0.0
 11
-80.53126
 21
94.434201
 31
0.0
  0
LINE
  5
63
100
AcDbEntity
  8
LIVELLO_1
 62
     7
100
AcDbLine
 10
-93.951113
 20
101.347991
 30
0.0
 11
-93.951113
 21
87.517483
 31
0.0
  0
INSERT
  5
58
100
AcDbEntity
  8
LIVELLO_1
 62
     7
100
AcDbBlockReference
  2
AI9-BLK2
 10
-111.008728
 20
-12.570034
 30
0.0
  0
LINE
  5
56
100
AcDbEntity
  8
LIVELLO_1
 62
     7
100
AcDbLine
 10
-93.797462
 20
77.990416
 30
0.0
 11
-93.797462
 21
-102.7467
 31
0.0
  0
SPLINE
  5
55
100
AcDbEntity
  8
LIVELLO_1
 62
     7
100
AcDbSpline
210
0.0
220
0.0
230
1.0
 70
     8
 71
     3
 72
    29
 73
    25
 74
     0
 42
0.00000001
 43
0.00000001
 40
0.0
 40
0.0
 40
0.0
 40
0.0
 40
1.0
 40
1.0
 40
1.0
 40
2.0
 40
2.0
 40
2.0
 40
3.0
 40
3.0
 40
3.0
 40
4.0
 40
4.0
 40
4.0
 40
5.0
 40
5.0
 40
5.0
 40
6.0
 40
6.0
 40
6.0
 40
7.0
 40
7.0
 40
7.0
 40
8.0
 40
8.0
 40
8.0
 40
8.0
 10
81.929279920789924
 20
-0.2943834092881944
 30
0.0
 10
81.929279920789924
 20
-0.2943834092881944
 30
0.0
 10
91.301317681206584
 20
-0.2943834092881944
 30
0.0
 10
91.301317681206584
 20
-0.2943834092881944
 30
0.0
 10
93.334613037109364
 20
-0.2943834092881944
 30
0.0
 10
94.991014946831584
 20
-1.9480292426215275
 30
0.0
 10
94.991014946831584
 20
-3.9827026367187495
 30
0.0
 10
94.991014946831584
 20
-3.9827026367187495
 30
0.0
 10
94.991014946831584
 20
-21.65397542317708
 30
0.0
 10
94.991014946831584
 20
-21.65397542317708
 30
0.0
 10
94.991014946831584
 20
-23.688648817274302
 30
0.0
 10
93.334613037109364
 20
-25.339538574218746
 30
0.0
 10
91.301317681206584
 20
-25.339538574218746
 30
0.0
 10
91.301317681206584
 20
-25.339538574218746
 30
0.0
 10
81.929279920789924
 20
-25.339538574218746
 30
0.0
 10
81.929279920789924
 20
-25.339538574218746
 30
0.0
 10
79.891850450303806
 20
-25.339538574218746
 30
0.0
 10
78.242338731553815
 20
-23.688648817274302
 30
0.0
 10
78.242338731553815
 20
-21.65397542317708
 30
0.0
 10
78.242338731553815
 20
-21.65397542317708
 30
0.0
 10
78.242338731553815
 20
-3.9827026367187495
 30
0.0
 10
78.242338731553815
 20
-3.9827026367187495
 30
0.0
 10
78.242338731553815
 20
-1.9480292426215275
 30
0.0
 10
79.891850450303806
 20
-0.2943834092881944
 30
0.0
 10
81.929279920789924
 20
-0.2943834092881944
 30
0.0
  0
SPLINE
  5
54
100
AcDbEntity
  8
LIVELLO_1
 62
     7
100
AcDbSpline
210
0.0
220
0.0
230
1.0
 70
     8
 71
     3
 72
    20
 73
    16
 74
     0
 42
0.00000001
 43
0.00000001
 40
0.0
 40
0.0
 40
0.0
 40
0.0
 40
1.0
 40
1.0
 40
1.0
 40
2.0
 40
2.0
 40
2.0
 40
3.0
 40
3.0
 40
3.0
 40
4.0
 40
4.0
 40
4.0
 40
5.0
 40
5.0
 40
5.0
 40
5.0
 10
84.237838406032978
 20
-24.033158365885413
 30
0.0
 10
84.237838406032978
 20
-22.720921495225692
 30
0.0
 10
85.301683892144084
 20
-21.656731499565971
 30
0.0
 10
86.616676839192706
 20
-21.656731499565971
 30
0.0
 10
87.926157633463532
 20
-21.656731499565971
 30
0.0
 10
88.991381157769084
 20
-22.720921495225692
 30
0.0
 10
88.991381157769084
 20
-24.033158365885413
 30
0.0
 10
88.991381157769084
 20
-24.51547173394097
 30
0.0
 10
88.847720675998261
 20
-24.964367675781247
 30
0.0
 10
88.599329291449649
 20
-25.339538574218746
 30
0.0
 10
88.599329291449649
 20
-25.339538574218746
 30
0.0
 10
84.628512234157981
 20
-25.339538574218746
 30
0.0
 10
84.628512234157981
 20
-25.339538574218746
 30
0.0
 10
84.383221435546872
 20
-24.964367675781247
 30
0.0
 10
84.237838406032978
 20
-24.51547173394097
 30
0.0
 10
84.237838406032978
 20
-24.033158365885413
 30
0.0
  0
SPLINE
  5
53
100
AcDbEntity
  8
LIVELLO_1
 62
     7
100
AcDbSpline
210
0.0
220
0.0
230
1.0
 70
     8
 71
     3
 72
    20
 73
    16
 74
     0
 42
0.00000001
 43
0.00000001
 40
0.0
 40
0.0
 40
0.0
 40
0.0
 40
1.0
 40
1.0
 40
1.0
 40
2.0
 40
2.0
 40
2.0
 40
3.0
 40
3.0
 40
3.0
 40
4.0
 40
4.0
 40
4.0
 40
5.0
 40
5.0
 40
5.0
 40
5.0
 10
84.237838406032978
 20
-1.6011081271701388
 30
0.0
 10
84.237838406032978
 20
-1.121206325954861
 30
0.0
 10
84.383221435546872
 20
-0.6698988172743055
 30
0.0
 10
84.628512234157981
 20
-0.2943834092881944
 30
0.0
 10
84.628512234157981
 20
-0.2943834092881944
 30
0.0
 10
88.599329291449649
 20
-0.2943834092881944
 30
0.0
 10
88.599329291449649
 20
-0.2943834092881944
 30
0.0
 10
88.847720675998261
 20
-0.6698988172743055
 30
0.0
 10
88.991381157769084
 20
-1.121206325954861
 30
0.0
 10
88.991381157769084
 20
-1.6011081271701388
 30
0.0
 10
88.991381157769084
 20
-2.9161010742187496
 30
0.0
 10
87.926157633463532
 20
-3.9799465603298607
 30
0.0
 10
86.616676839192706
 20
-3.9799465603298607
 30
0.0
 10
85.301683892144084
 20
-3.9799465603298607
 30
0.0
 10
84.237838406032978
 20
-2.9161010742187496
 30
0.0
 10
84.237838406032978
 20
-1.6011081271701388
 30
0.0
  0
POLYLINE
  5
4D
100
AcDbEntity
  8
LIVELLO_1
 62
     7
100
AcDb2dPolyline
 66
     1
 10
0.0
 20
0.0
 30
0.0
 70
     1
  0
VERTEX
  5
4E
100
AcDbEntity
  8
LIVELLO_1
 62
     7
100
AcDbVertex
100
AcDb2dVertex
 10
95.517426
 20
-39.700764
 30
0.0
  0
VERTEX
  5
4F
100
AcDbEntity
  8
LIVELLO_1
 62
     7
100
AcDbVertex
100
AcDb2dVertex
 10
77.710416
 20
-39.700764
 30
0.0
  0
VERTEX
  5
50
100
AcDbEntity
  8
LIVELLO_1
 62
     7
100
AcDbVertex
100
AcDb2dVertex
 10
74.357994
 20
-44.910093
 30
0.0
  0
VERTEX
  5
51
100
AcDbEntity
  8
LIVELLO_1
 62
     7
100
AcDbVertex
100
AcDb2dVertex
 10
98.86847
 20
-44.910093
 30
0.0
  0
SEQEND
  5
52
100
AcDbEntity
  8
LIVELLO_1
 62
     7
  0
POLYLINE
  5
47
100
AcDbEntity
  8
LIVELLO_1
 62
     7
100
AcDb2dPolyline
 66
     1
 10
0.0
 20
0.0
 30
0.0
 70
     1
  0
VERTEX
  5
48
100
AcDbEntity
  8
LIVELLO_1
 62
     7
100
AcDbVertex
100
AcDb2dVertex
 10
74.357994
 20
19.273414
 30
0.0
  0
VERTEX
  5
49
100
AcDbEntity
  8
LIVELLO_1
 62
     7
100
AcDbVertex
100
AcDb2dVertex
 10
98.86847
 20
19.273414
 30
0.0
  0
VERTEX
  5
4A
100
AcDbEntity
  8
LIVELLO_1
 62
     7
100
AcDbVertex
100
AcDb2dVertex
 10
98.86847
 20
-44.910093
 30
0.0
  0
VERTEX
  5
4B
100
AcDbEntity
  8
LIVELLO_1
 62
     7
100
AcDbVertex
100
AcDb2dVertex
 10
74.357994
 20
-44.910093
 30
0.0
  0
SEQEND
  5
4C
100
AcDbEntity
  8
LIVELLO_1
 62
     7
  0
CIRCLE
  5
46
100
AcDbEntity
  8
LIVELLO_1
 62
     7
100
AcDbCircle
 10
86.615299
 20
-36.966047
 30
0.0
 40
1.564762
  0
CIRCLE
  5
45
100
AcDbEntity
  8
LIVELLO_1
 62
     7
100
AcDbCircle
 10
86.615299
 20
-30.458606
 30
0.0
 40
1.564762
  0
CIRCLE
  5
44
100
AcDbEntity
  8
LIVELLO_1
 62
     7
100
AcDbCircle
 10
86.615299
 20
4.821928
 30
0.0
 40
1.564762
  0
CIRCLE
  5
43
100
AcDbEntity
  8
LIVELLO_1
 62
     7
100
AcDbCircle
 10
86.615299
 20
11.329369
 30
0.0
 40
1.564762
  0
POLYLINE
  5
3D
100
AcDbEntity
  8
LIVELLO_1
 62
     7
100
AcDb2dPolyline
 66
     1
 10
0.0
 20
0.0
 30
0.0
 70
     1
  0
VERTEX
  5
3E
100
AcDbEntity
  8
LIVELLO_1
 62
     7
100
AcDbVertex
100
AcDb2dVertex
 10
78.06595
 20
14.332114
 30
0.0
  0
VERTEX
  5
3F
100
AcDbEntity
  8
LIVELLO_1
 62
     7
100
AcDbVertex
100
AcDb2dVertex
 10
95.872959
 20
14.332114
 30
0.0
  0
VERTEX
  5
40
100
AcDbEntity
  8
LIVELLO_1
 62
     7
100
AcDbVertex
100
AcDb2dVertex
 10
98.86847
 20
19.273414
 30
0.0
  0
VERTEX
  5
41
100
AcDbEntity
  8
LIVELLO_1
 62
     7
100
AcDbVertex
100
AcDb2dVertex
 10
74.357994
 20
19.273414
 30
0.0
  0
SEQEND
  5
42
100
AcDbEntity
  8
LIVELLO_1
 62
     7
  0
SPLINE
  5
3C
100
AcDbEntity
  8
LIVELLO_1
 62
     7
100
AcDbSpline
210
0.0
220
0.0
230
1.0
 70
     8
 71
     3
 72
    20
 73
    16
 74
     0
 42
0.00000001
 43
0.00000001
 40
0.0
 40
0.0
 40
0.0
 40
0.0
 40
1.0
 40
1.0
 40
1.0
 40
2.0
 40
2.0
 40
2.0
 40
3.0
 40
3.0
 40
3.0
 40
4.0
 40
4.0
 40
4.0
 40
5.0
 40
5.0
 40
5.0
 40
5.0
 10
77.710415988498255
 20
-25.517305501302079
 30
0.0
 10
77.710415988498255
 20
-25.517305501302079
 30
0.0
 10
77.710415988498255
 20
-39.700763617621526
 30
0.0
 10
77.710415988498255
 20
-39.700763617621526
 30
0.0
 10
77.710415988498255
 20
-39.700763617621526
 30
0.0
 10
74.357993570963529
 20
-44.910092502170137
 30
0.0
 10
74.357993570963529
 20
-44.910092502170137
 30
0.0
 10
74.357993570963529
 20
-44.910092502170137
 30
0.0
 10
74.357993570963529
 20
-23.73377956814236
 30
0.0
 10
74.357993570963529
 20
-23.73377956814236
 30
0.0
 10
75.002915445963538
 20
-24.80348171657986
 30
0.0
 10
76.175281439887144
 20
-25.517305501302079
 30
0.0
 10
77.517146131727429
 20
-25.517305501302079
 30
0.0
 10
77.517146131727429
 20
-25.517305501302079
 30
0.0
 10
77.710415988498255
 20
-25.517305501302079
 30
0.0
 10
77.710415988498255
 20
-25.517305501302079
 30
0.0
  0
SPLINE
  5
3B
100
AcDbEntity
  8
LIVELLO_1
 62
     7
100
AcDbSpline
210
0.0
220
0.0
230
1.0
 70
     8
 71
     3
 72
    17
 73
    13
 74
     0
 42
0.00000001
 43
0.00000001
 40
0.0
 40
0.0
 40
0.0
 40
0.0
 40
1.0
 40
1.0
 40
1.0
 40
2.0
 40
2.0
 40
2.0
 40
3.0
 40
3.0
 40
3.0
 40
4.0
 40
4.0
 40
4.0
 40
4.0
 10
95.517425537109361
 20
14.066841634114581
 30
0.0
 10
95.517425537109361
 20
14.066841634114581
 30
0.0
 10
98.868469916449641
 20
19.273414442274305
 30
0.0
 10
98.868469916449641
 20
19.273414442274305
 30
0.0
 10
98.868469916449641
 20
19.273414442274305
 30
0.0
 10
98.868469916449641
 20
-1.9028984917534721
 30
0.0
 10
98.868469916449641
 20
-1.9028984917534721
 30
0.0
 10
98.224926079644092
 20
-0.8335408528645832
 30
0.0
 10
97.053938123914918
 20
-0.11937255859375
 30
0.0
 10
95.716207546657984
 20
-0.11937255859375
 30
0.0
 10
95.716207546657984
 20
-0.11937255859375
 30
0.0
 10
95.517425537109361
 20
14.066841634114581
 30
0.0
 10
95.517425537109361
 20
14.066841634114581
 30
0.0
  0
SPLINE
  5
3A
100
AcDbEntity
  8
LIVELLO_1
 62
     7
100
AcDbSpline
210
0.0
220
0.0
230
1.0
 70
     8
 71
     3
 72
    17
 73
    13
 74
     0
 42
0.00000001
 43
0.00000001
 40
0.0
 40
0.0
 40
0.0
 40
0.0
 40
1.0
 40
1.0
 40
1.0
 40
2.0
 40
2.0
 40
2.0
 40
3.0
 40
3.0
 40
3.0
 40
4.0
 40
4.0
 40
4.0
 40
4.0
 10
98.868469916449641
 20
-23.73377956814236
 30
0.0
 10
98.868469916449641
 20
-23.73377956814236
 30
0.0
 10
98.868469916449641
 20
-44.910092502170137
 30
0.0
 10
98.868469916449641
 20
-44.910092502170137
 30
0.0
 10
98.868469916449641
 20
-44.910092502170137
 30
0.0
 10
95.517425537109361
 20
-39.700763617621526
 30
0.0
 10
95.517425537109361
 20
-39.700763617621526
 30
0.0
 10
95.517425537109361
 20
-39.700763617621526
 30
0.0
 10
95.517425537109361
 20
-25.517305501302079
 30
0.0
 10
95.517425537109361
 20
-25.517305501302079
 30
0.0
 10
97.053938123914918
 20
-25.517305501302079
 30
0.0
 10
98.224926079644092
 20
-24.80348171657986
 30
0.0
 10
98.868469916449641
 20
-23.73377956814236
 30
0.0
  0
SPLINE
  5
39
100
AcDbEntity
  8
LIVELLO_1
 62
     7
100
AcDbSpline
210
0.0
220
0.0
230
1.0
 70
     8
 71
     3
 72
    17
 73
    13
 74
     0
 42
0.00000001
 43
0.00000001
 40
0.0
 40
0.0
 40
0.0
 40
0.0
 40
1.0
 40
1.0
 40
1.0
 40
2.0
 40
2.0
 40
2.0
 40
3.0
 40
3.0
 40
3.0
 40
4.0
 40
4.0
 40
4.0
 40
4.0
 10
77.710415988498255
 20
14.066841634114581
 30
0.0
 10
77.710415988498255
 20
14.066841634114581
 30
0.0
 10
77.710415988498255
 20
-0.11937255859375
 30
0.0
 10
77.710415988498255
 20
-0.11937255859375
 30
0.0
 10
76.175281439887144
 20
-0.11937255859375
 30
0.0
 10
75.002915445963538
 20
-0.8335408528645832
 30
0.0
 10
74.357993570963529
 20
-1.9028984917534721
 30
0.0
 10
74.357993570963529
 20
-1.9028984917534721
 30
0.0
 10
74.357993570963529
 20
19.273414442274305
 30
0.0
 10
74.357993570963529
 20
19.273414442274305
 30
0.0
 10
74.357993570963529
 20
19.273414442274305
 30
0.0
 10
77.710415988498255
 20
14.066841634114581
 30
0.0
 10
77.710415988498255
 20
14.066841634114581
 30
0.0
  0
LINE
  5
38
100
AcDbEntity
  8
LIVELLO_1
 62
     7
100
AcDbLine
 10
98.819205
 20
23.796825
 30
0.0
 11
98.819205
 21
40.449383
 31
0.0
  0
LINE
  5
37
100
AcDbEntity
  8
LIVELLO_1
 62
     7
100
AcDbLine
 10
74.432752
 20
23.791313
 30
0.0
 11
74.432752
 21
40.443871
 31
0.0
  0
MTEXT
  5
36
100
AcDbEntity
  8
LIVELLO_1
 62
     7
100
AcDbMText
 10
77.241194
 20
44.207012
 30
0.0
 40
13.113819
 41
0.0
 71
     1
 72
     2
  1
\fArial Narrow|b0|i0;\H13.1138;\C7;\U+0035\U+0034
  7
STD
210
0.0
220
0.0
230
1.0
 73
     1
 44
1.0
  0
LINE
  5
35
100
AcDbEntity
  8
LIVELLO_1
 62
     7
100
AcDbLine
 10
46.51921
 20
-44.890455
 30
0.0
 11
63.171769
 21
-44.890455
 31
0.0
  0
LINE
  5
34
100
AcDbEntity
  8
LIVELLO_1
 62
     7
100
AcDbLine
 10
54.843939
 20
-22.39915
 30
0.0
 11
54.846695
 21
-44.890455
 31
0.0
  0
LINE
  5
33
100
AcDbEntity
  8
LIVELLO_1
 62
     7
100
AcDbLine
 10
54.846695
 20
19.134922
 30
0.0
 11
54.846695
 21
-0.867303
 31
0.0
  0
LINE
  5
32
100
AcDbEntity
  8
LIVELLO_1
 62
     7
100
AcDbLine
 10
46.51921
 20
19.134922
 30
0.0
 11
63.171769
 21
19.134922
 31
0.0
  0
MTEXT
  5
31
100
AcDbEntity
  8
LIVELLO_1
 62
     7
100
AcDbMText
 10
39.676217
 20
-4.252046
 30
0.0
 40
13.113819
 41
0.0
 71
     1
 72
     2
  1
\fArial Narrow|b0|i0;\H13.1138;\C7;\U+0031\U+0032\U+0034
  7
STD
210
0.0
220
0.0
230
1.0
 73
     1
 44
1.0
  0
LINE
  5
30
100
AcDbEntity
  8
LIVELLO_1
 62
     7
100
AcDbLine
 10
91.034667
 20
-30.111685
 30
0.0
 11
128.424633
 21
-30.111685
 31
0.0
  0
LINE
  5
2F
100
AcDbEntity
  8
LIVELLO_1
 62
     7
100
AcDbLine
 10
120.09956
 20
-22.39915
 30
0.0
 11
120.09956
 21
-30.111685
 31
0.0
  0
LINE
  5
2E
100
AcDbEntity
  8
LIVELLO_1
 62
     7
100
AcDbLine
 10
120.09956
 20
5.586739
 30
0.0
 11
120.09956
 21
-0.867303
 31
0.0
  0
LINE
  5
2D
100
AcDbEntity
  8
LIVELLO_1
 62
     7
100
AcDbLine
 10
92.132275
 20
5.586739
 30
0.0
 11
128.424633
 21
5.586739
 31
0.0
  0
MTEXT
  5
2C
100
AcDbEntity
  8
LIVELLO_1
 62
     7
100
AcDbMText
 10
109.880029
 20
-4.252046
 30
0.0
 40
13.113819
 41
0.0
 71
     1
 72
     2
  1
\fArial Narrow|b0|i0;\H13.1138;\C7;\U+0034\U+0034
  7
STD
210
0.0
220
0.0
230
1.0
 73
     1
 44
1.0
  0
ENDBLK
  5
75
100
AcDbEntity
  8
LIVELLO_1
100
AcDbBlockEnd
  0
BLOCK
  5
59
100
AcDbEntity
  8
LIVELLO_1
 62
     7
100
AcDbBlockBegin
  2
AI9-BLK2
 70
     0
 10
0.0
 20
0.0
 30
0.0
  3
AI9-BLK2
  1

  0
INSERT
  5
5B
100
AcDbEntity
  8
LIVELLO_1
 62
     7
100
AcDbBlockReference
  2
AI9-BLK3
 10
0.0
 20
-0.101544
 30
0.0
  0
ENDBLK
  5
62
100
AcDbEntity
  8
LIVELLO_1
100
AcDbBlockEnd
  0
BLOCK
  5
5C
100
AcDbEntity
  8
LIVELLO_1
 62
     7
100
AcDbBlockBegin
  2
AI9-BLK3
 70
     0
 10
0.0
 20
0.0
 30
0.0
  3
AI9-BLK3
  1

  0
INSERT
  5
5E
100
AcDbEntity
  8
LIVELLO_1
 62
     7
100
AcDbBlockReference
  2
AI9-BLK4
 10
-0.048662
 20
0.112827
 30
0.0
  0
ENDBLK
  5
61
100
AcDbEntity
  8
LIVELLO_1
100
AcDbBlockEnd
  0
BLOCK
  5
5F
100
AcDbEntity
  8
LIVELLO_1
 62
     7
100
AcDbBlockBegin
  2
AI9-BLK4
 70
     0
 10
0.0
 20
0.0
 30
0.0
  3
AI9-BLK4
  1

  0
ENDBLK
  5
60
100
AcDbEntity
  8
LIVELLO_1
100
AcDbBlockEnd
  0
ENDSEC
  0
SECTION
  2
ENTITIES
  0
INSERT
  5
2A
100
AcDbEntity
  8
LIVELLO_1
 62
     7
100
AcDbBlockReference
  2
AI9-BLK1
 10
128.415848
 20
103.582136
 30
0.0
  0
ENDSEC
  0
SECTION
  2
OBJECTS
  0
DICTIONARY
  5
19
100
AcDbDictionary
280
     0
281
     1
  3
ACAD_GROUP
350
1A
  3
ACAD_MLINESTYLE
350
1B
  3
ACAD_LAYOUT
350
1E
  3
ACAD_PLOTSETTINGS
350
22
  3
ACAD_PLOTSTYLENAME
350
1F
  3
ACAD_WIPEOUT_VARS
350
23
  0
DICTIONARY
  5
1A
102
{ACAD_REACTORS
330
19
102
}
100
AcDbDictionary
280
     0
281
     1
  0
DICTIONARY
  5
1B
102
{ACAD_REACTORS
330
19
102
}
100
AcDbDictionary
280
     0
281
     1
  3
Standard
350
1C
  0
MLINESTYLE
  5
1C
102
{ACAD_REACTORS
330
1B
102
}
100
AcDbMlineStyle
  2
Standard
 70
     0
  3

 62
     0
 51
90.0
 52
90.0
 71
     2
 49
0.5
 62
   256
  6
ByLayer
 49
-0.5
 62
   256
  6
ByLayer
  0
ACDBDICTIONARYWDFLT
  5
1F
102
{ACAD_REACTORS
330
19
102
}
100
AcDbDictionary
281
     1
  3
Normal
350
1D
100
AcDbDictionaryWithDefault
340
1D
  0
ACDBPLACEHOLDER
  5
1D
102
{ACAD_REACTORS
330
1F
102
}
  0
LAYOUT
  5
20
102
{ACAD_REACTORS
330
1E
102
}
100
AcDbPlotSettings
  1

  2

  4

  6

 40
0.0
 41
0.0
 42
0.0
 43
0.0
 44
0.0
 45
0.0
 46
0.0
 47
0.0
 48
0.0
 49
0.0
140
0.0
141
0.0
142
1.0
143
1.0
 70
  1024
 72
     0
 73
     0
 74
     0
  7

 75
     0
147
1.0
148
0.0
149
0.0
100
AcDbLayout
  1
Model
 70
     0
 71
     0
 10
0.0
 20
0.0
 11
0.0
 21
0.0
 12
0.0
 22
0.0
 32
0.0
 14
0.0
 24
0.0
 34
0.0
 15
0.0
 25
0.0
 35
0.0
146
0.0
 13
0.0
 23
0.0
 33
0.0
 16
0.0
 26
0.0
 36
0.0
 17
0.0
 27
0.0
 37
0.0
 76
     0
330
A
331
0
345
0
346
0
  0
LAYOUT
  5
21
102
{ACAD_REACTORS
330
1E
102
}
100
AcDbPlotSettings
  1

  2

  4

  6

 40
0.0
 41
0.0
 42
0.0
 43
0.0
 44
0.0
 45
0.0
 46
0.0
 47
0.0
 48
0.0
 49
0.0
140
0.0
141
0.0
142
1.0
143
1.0
 70
     0
 72
     0
 73
     0
 74
     0
  7

 75
     0
147
1.0
148
0.0
149
0.0
100
AcDbLayout
  1
Layout1
 70
     0
 71
     0
 10
0.0
 20
0.0
 11
0.0
 21
0.0
 12
0.0
 22
0.0
 32
0.0
 14
0.0
 24
0.0
 34
0.0
 15
0.0
 25
0.0
 35
0.0
146
0.0
 13
0.0
 23
0.0
 33
0.0
 16
0.0
 26
0.0
 36
0.0
 17
0.0
 27
0.0
 37
0.0
 76
     0
330
B
331
0
345
0
346
0
  0
DICTIONARY
  5
1E
102
{ACAD_REACTORS
330
19
102
}
100
AcDbDictionary
280
     0
281
     1
  3
Layout1
350
21
  3
Model
350
20
  0
DICTIONARY
  5
22
102
{ACAD_REACTORS
330
19
102
}
100
AcDbDictionary
280
     0
281
     1
  0
WIPEOUTVARIABLES
  5
23
100
AcDbWipeoutVariables
 70
     1
  0
ENDSEC
  0
EOF
