  0
SECTION
  2
HEADER
  9
$ACADVER
  1
AC1015
  9
$ACADMAINTVER
 70
     6
  9
$DWGCODEPAGE
  3
ANSI_932
  9
$INSBASE
 10
0.0
 20
0.0
 30
0.0
  9
$EXTMIN
 10
8.149373
 20
23.6964
 30
1.000000E+20
  9
$EXTMAX
 10
156.668818
 20
213.215926
 30
-1.000000E+20
  9
$LIMMIN
 10
8.149373
 20
23.6964
  9
$LIMMAX
 10
156.668818
 20
213.215926
  9
$ORTHOMODE
 70
     0
  9
$REGENMODE
 70
     1
  9
$FILLMODE
 70
     1
  9
$QTEXTMODE
 70
     0
  9
$MIRRTEXT
 70
     1
  9
$LTSCALE
 40
1.0
  9
$ATTMODE
 70
     1
  9
$TEXTSIZE
 40
0.2
  9
$TRACEWID
 40
0.05
  9
$TEXTSTYLE
  7
Standard
  9
$CLAYER
  8
0
  9
$CELTYPE
  6
Continuous
  9
$CECOLOR
 62
   256
  9
$CELTSCALE
 40
1.0
  9
$DISPSILH
 70
     0
  9
$DIMSCALE
 40
1.0
  9
$DIMASZ
 40
0.18
  9
$DIMEXO
 40
0.0625
  9
$DIMDLI
 40
0.38
  9
$DIMRND
 40
0.0
  9
$DIMDLE
 40
0.0
  9
$DIMEXE
 40
0.18
  9
$DIMTP
 40
0.0
  9
$DIMTM
 40
0.0
  9
$DIMTXT
 40
0.18
  9
$DIMCEN
 40
0.09
  9
$DIMTSZ
 40
0.0
  9
$DIMTOL
 70
     0
  9
$DIMLIM
 70
     0
  9
$DIMTIH
 70
     1
  9
$DIMTOH
 70
     1
  9
$DIMSE1
 70
     0
  9
$DIMSE2
 70
     0
  9
$DIMTAD
 70
     0
  9
$DIMZIN
 70
     0
  9
$DIMBLK
  1

  9
$DIMASO
 70
     1
  9
$DIMSHO
 70
     1
  9
$DIMPOST
  1

  9
$DIMAPOST
  1

  9
$DIMALT
 70
     0
  9
$DIMALTD
 70
     2
  9
$DIMALTF
 40
25.4
  9
$DIMLFAC
 40
1.0
  9
$DIMTOFL
 70
     0
  9
$DIMTVP
 40
0.0
  9
$DIMTIX
 70
     0
  9
$DIMSOXD
 70
     0
  9
$DIMSAH
 70
     0
  9
$DIMBLK1
  1

  9
$DIMBLK2
  1

  9
$DIMSTYLE
  2
Standard
  9
$DIMCLRD
 70
     0
  9
$DIMCLRE
 70
     0
  9
$DIMCLRT
 70
     0
  9
$DIMTFAC
 40
1.0
  9
$DIMGAP
 40
0.09
  9
$DIMJUST
 70
     0
  9
$DIMSD1
 70
     0
  9
$DIMSD2
 70
     0
  9
$DIMTOLJ
 70
     1
  9
$DIMTZIN
 70
     0
  9
$DIMALTZ
 70
     0
  9
$DIMALTTZ
 70
     0
  9
$DIMUPT
 70
     0
  9
$DIMDEC
 70
     4
  9
$DIMTDEC
 70
     4
  9
$DIMALTU
 70
     2
  9
$DIMALTTD
 70
     2
  9
$DIMTXSTY
  7
Standard
  9
$DIMAUNIT
 70
     0
  9
$DIMADEC
 70
     0
  9
$DIMALTRND
 40
0.0
  9
$DIMAZIN
 70
     0
  9
$DIMDSEP
 70
     0
  9
$DIMATFIT
 70
     3
  9
$DIMFRAC
 70
     0
  9
$DIMLDRBLK
  1

  9
$DIMLUNIT
 70
     2
  9
$DIMLWD
 70
     0
  9
$DIMLWE
 70
     0
  9
$DIMTMOVE
 70
     0
  9
$LUNITS
 70
     2
  9
$LUPREC
 70
     4
  9
$SKETCHINC
 40
0.1
  9
$FILLETRAD
 40
0.0
  9
$AUNITS
 70
     0
  9
$AUPREC
 70
     0
  9
$MENU
  1
acad
  9
$ELEVATION
 40
0.0
  9
$PELEVATION
 40
0.0
  9
$THICKNESS
 40
0.0
  9
$LIMCHECK
 70
     0
  9
$CHAMFERA
 40
0.0
  9
$CHAMFERB
 40
0.0
  9
$CHAMFERC
 40
0.0
  9
$CHAMFERD
 40
0.0
  9
$SKPOLY
 70
     0
  9
$TDCREATE
 40
0.000000000
  9
$TDUCREATE
 40
0.000000000
  9
$TDUPDATE
 40
0.000000000
  9
$TDUUPDATE
 40
0.000000000
  9
$TDINDWG
 40
0.0000000000
  9
$TDUSRTIMER
 40
0.0000000000
  9
$USRTIMER
 70
     1
  9
$ANGBASE
 50
0.0
  9
$ANGDIR
 70
     0
  9
$PDMODE
 70
     0
  9
$PDSIZE
 40
0.0
  9
$PLINEWID
 40
0.0
  9
$SPLFRAME
 70
     0
  9
$SPLINETYPE
 70
     6
  9
$SPLINESEGS
 70
     8
  9
$HANDSEED
  5
129
  9
$SURFTAB1
 70
     6
  9
$SURFTAB2
 70
     6
  9
$SURFTYPE
 70
     6
  9
$SURFU
 70
     6
  9
$SURFV
 70
     6
  9
$UCSBASE
  2

  9
$UCSNAME
  2

  9
$UCSORG
 10
0.0
 20
0.0
 30
0.0
  9
$UCSXDIR
 10
1.0
 20
0.0
 30
0.0
  9
$UCSYDIR
 10
0.0
 20
1.0
 30
0.0
  9
$UCSORTHOREF
  2

  9
$UCSORTHOVIEW
 70
     0
  9
$UCSORGTOP
 10
0.0
 20
0.0
 30
0.0
  9
$UCSORGBOTTOM
 10
0.0
 20
0.0
 30
0.0
  9
$UCSORGLEFT
 10
0.0
 20
0.0
 30
0.0
  9
$UCSORGRIGHT
 10
0.0
 20
0.0
 30
0.0
  9
$UCSORGFRONT
 10
0.0
 20
0.0
 30
0.0
  9
$UCSORGBACK
 10
0.0
 20
0.0
 30
0.0
  9
$PUCSBASE
  2

  9
$PUCSNAME
  2

  9
$PUCSORG
 10
0.0
 20
0.0
 30
0.0
  9
$PUCSXDIR
 10
1.0
 20
0.0
 30
0.0
  9
$PUCSYDIR
 10
0.0
 20
1.0
 30
0.0
  9
$PUCSORTHOREF
  2

  9
$PUCSORTHOVIEW
 70
     0
  9
$PUCSORGTOP
 10
0.0
 20
0.0
 30
0.0
  9
$PUCSORGBOTTOM
 10
0.0
 20
0.0
 30
0.0
  9
$PUCSORGLEFT
 10
0.0
 20
0.0
 30
0.0
  9
$PUCSORGRIGHT
 10
0.0
 20
0.0
 30
0.0
  9
$PUCSORGFRONT
 10
0.0
 20
0.0
 30
0.0
  9
$PUCSORGBACK
 10
0.0
 20
0.0
 30
0.0
  9
$USERI1
 70
     0
  9
$USERI2
 70
     0
  9
$USERI3
 70
     0
  9
$USERI4
 70
     0
  9
$USERI5
 70
     0
  9
$USERR1
 40
0.0
  9
$USERR2
 40
0.0
  9
$USERR3
 40
0.0
  9
$USERR4
 40
0.0
  9
$USERR5
 40
0.0
  9
$WORLDVIEW
 70
     1
  9
$SHADEDGE
 70
     3
  9
$SHADEDIF
 70
    70
  9
$TILEMODE
 70
     1
  9
$MAXACTVP
 70
    16
  9
$PINSBASE
 10
0.0
 20
0.0
 30
0.0
  9
$PLIMCHECK
 70
     0
  9
$PEXTMIN
 10
1.000000E+20
 20
1.000000E+20
 30
1.000000E+20
  9
$PEXTMAX
 10
-1.000000E+20
 20
-1.000000E+20
 30
-1.000000E+20
  9
$PLIMMIN
 10
0.0
 20
0.0
  9
$PLIMMAX
 10
12.0
 20
9.0
  9
$UNITMODE
 70
     0
  9
$VISRETAIN
 70
     0
  9
$PLINEGEN
 70
     1
  9
$PSLTSCALE
 70
     0
  9
$TREEDEPTH
 70
  3020
  9
$CMLSTYLE
  2
Standard
  9
$CMLJUST
 70
     0
  9
$CMLSCALE
 40
1.0
  9
$PROXYGRAPHICS
 70
     0
  9
$MEASUREMENT
 70
     1
  9
$CELWEIGHT
370
     0
  9
$ENDCAPS
280
     0
  9
$JOINSTYLE
280
     0
  9
$LWDISPLAY
290
     0
  9
$INSUNITS
 70
     0
  9
$HYPERLINKBASE
  1

  9
$STYLESHEET
  1

  9
$XEDIT
290
     1
  9
$CEPSNTYPE
380
     0
  9
$PSTYLEMODE
290
     1
  9
$FINGERPRINTGUID
  2

  9
$VERSIONGUID
  2

  9
$EXTNAMES
290
     1
  9
$PSVPSCALE
 40
0.0
  0
ENDSEC
  0
SECTION
  2
CLASSES
  0
CLASS
  1
LWPOLYLINE
  2
AcDbPolyline
  3
AutoCAD 2000
 90
    32768
280
     0
281
     1
  0
CLASS
  1
IMAGE
  2
AcDbRasterImage
  3
ISM
 90
    32895
280
     0
281
     1
  0
CLASS
  1
OLE2FRAME
  2
AcDbOle2Frame
  3
AutoCAD 2000
 90
    32768
280
     0
281
     1
  0
CLASS
  1
HATCH
  2
AcDbHatch
  3
AutoCAD 2000
 90
        0
280
     0
281
     1
  0
CLASS
  1
DICTIONARYVAR
  2
AcDbDictionaryVar
  3
AutoCAD 2000
 90
    32768
280
     0
281
     0
  0
CLASS
  1
RASTERVARIABLES
  2
AcDbRasterVariables
  3
ISM
 90
    32768
280
     0
281
     0
  0
CLASS
  1
IMAGEDEF
  2
AcDbRasterImageDef
  3
ISM
 90
    32768
280
     0
281
     0
  0
CLASS
  1
IMAGEDEF_REACTOR
  2
AcDbRasterImageDefReactor
  3
ISM
 90
    32769
280
     0
281
     0
  0
CLASS
  1
IDBUFFER
  2
AcDbIdBuffer
  3
AutoCAD 2000
 90
    32768
280
     0
281
     0
  0
CLASS
  1
SPATIAL_FILTER
  2
AcDbSpatialFilter
  3
AutoCAD 2000
 90
    32768
280
     0
281
     0
  0
CLASS
  1
XRECORD
  2
AcDbXrecord
  3
AutoCAD 2000
 90
    32768
280
     0
281
     0
  0
CLASS
  1
SORTENTSTABLE
  2
AcDbSortentsTable
  3
AutoCAD 2000
 90
    32768
280
     0
281
     0
  0
CLASS
  1
LAYER_INDEX
  2
AcDbLayerIndex
  3
AutoCAD 2000
 90
    32768
280
     0
281
     0
  0
CLASS
  1
SPATIAL_INDEX
  2
AcDbSpatialIndex
  3
AutoCAD 2000
 90
    32768
280
     0
281
     0
  0
CLASS
  1
OBJECT_PTR
  2
CAseDLPNTableRecord
  3
"ASE-LPNTableRecord"
 90
    32769
280
     0
281
     0
  0
CLASS
  1
LAYOUT
  2
AcDbLayout
  3
AutoCAD 2000
 90
        0
280
     0
281
     0
  0
CLASS
  1
PLOTSETTINGS
  2
AcDbPlotSettings
  3
AutoCAD 2000
 90
    32768
280
     0
281
     0
  0
CLASS
  1
ACDBDICTIONARYWDFLT
  2
AcDbDictionaryWithDefault
  3
AutoCAD 2000
 90
        0
280
     0
281
     0
  0
CLASS
  1
ACDBPLACEHOLDER
  2
AcDbPlaceHolder
  3
AutoCAD 2000
 90
        0
280
     0
281
     0
  0
CLASS
  1
VBA_PROJECT
  2
AcDbVbaProject
  3
acadvba
 90
    32768
280
     0
281
     0
  0
CLASS
  1
WIPEOUT
  2
AcDbWipeout
  3
WipeOut|AutoCAD Express Tool|expresstools@autodesk.com
 90
    32895
280
     0
281
     1
  0
CLASS
  1
WIPEOUTVARIABLES
  2
AcDbWipeoutVariables
  3
WipeOut|AutoCAD Express Tool|expresstools@autodesk.com
 90
        0
280
     0
281
     0
  0
CLASS
  1
RTEXT
  2
RText
  3
RText|AutoCAD Express Tool|expresstools@autodesk.com
 90
    32768
280
     0
281
     1
  0
CLASS
  1
ARCALIGNEDTEXT
  2
AcDbArcAlignedText
  3
ATEXT|AutoCAD Express Tool|expresstools@autodesk.com
 90
    32768
280
     0
281
     1
  0
ENDSEC
  0
SECTION
  2
TABLES
  0
TABLE
  2
VPORT
  5
7
100
AcDbSymbolTable
 70
     1
  0
VPORT
  5
15
100
AcDbSymbolTableRecord
100
AcDbViewportTableRecord
  2
*ACTIVE
 70
     0
 10
0.0
 20
0.0
 11
1.0
 21
1.0
 12
6.591288
 22
4.579184
 13
0.0
 23
0.0
 14
1.0
 24
1.0
 15
0.0
 25
0.0
 16
0.0
 26
0.0
 36
1.0
 17
0.0
 27
0.0
 37
0.0
 40
9.158369
 41
0.688564
 42
50.0
 43
0.0
 44
0.0
 50
0.0
 51
0.0
 71
     0
 72
   100
 73
     1
 74
     1
 75
     0
 76
     0
 77
     0
 78
     0
281
     0
 65
     0
110
0.0
120
0.0
130
0.0
111
1.0
121
0.0
131
0.0
112
0.0
122
1.0
132
0.0
345
0
346
0
 79
     0
146
0.0
  0
ENDTAB
  0
TABLE
  2
LTYPE
  5
4
100
AcDbSymbolTable
 70
     3
  0
LTYPE
  5
11
100
AcDbSymbolTableRecord
100
AcDbLinetypeTableRecord
  2
ByBlock
 70
    64
  3

 72
    65
 73
     0
 40
0.0
  0
LTYPE
  5
12
100
AcDbSymbolTableRecord
100
AcDbLinetypeTableRecord
  2
ByLayer
 70
    64
  3

 72
    65
 73
     0
 40
0.0
  0
LTYPE
  5
13
100
AcDbSymbolTableRecord
100
AcDbLinetypeTableRecord
  2
Continuous
 70
    64
  3
Solid line
 72
    65
 73
     0
 40
0.0
  0
ENDTAB
  0
TABLE
  2
LAYER
  5
2
100
AcDbSymbolTable
 70
     2
  0
LAYER
  5
14
100
AcDbSymbolTableRecord
100
AcDbLayerTableRecord
  2
0
 70
     0
 62
     7
  6
Continuous
290
     1
370
    -3
390
1D
  0
LAYER
  5
28
100
AcDbSymbolTableRecord
100
AcDbLayerTableRecord
  2
LIVELLO_1
 70
     0
 62
   160
  6
Continuous
290
     1
370
    -3
390
1D
  0
ENDTAB
  0
TABLE
  2
STYLE
  5
3
100
AcDbSymbolTable
 70
     5
  0
STYLE
  5
17
100
AcDbSymbolTableRecord
100
AcDbTextStyleTableRecord
  2
Standard
 70
     0
 40
0.0
 41
1.0
 50
0.0
 71
     0
 42
0.0
  3
txt
  4

  0
STYLE
  5
24
100
AcDbSymbolTableRecord
100
AcDbTextStyleTableRecord
  2
STD
 70
     0
 40
0.0
 41
1.0
 50
0.0
 71
     0
 42
0.0
  3
txt
  4

  0
STYLE
  5
25
100
AcDbSymbolTableRecord
100
AcDbTextStyleTableRecord
  2
TATESTD
 70
     4
 40
0.0
 41
1.0
 50
0.0
 71
     0
 42
0.0
  3
txt
  4

  0
STYLE
  5
26
100
AcDbSymbolTableRecord
100
AcDbTextStyleTableRecord
  2
KANJISTD
 70
     0
 40
0.0
 41
1.0
 50
0.0
 71
     0
 42
0.0
  3
txt
  4
extfont
  0
STYLE
  5
27
100
AcDbSymbolTableRecord
100
AcDbTextStyleTableRecord
  2
KANJITATE
 70
     4
 40
0.0
 41
1.0
 50
0.0
 71
     0
 42
0.0
  3
txt
  4
extfont
  0
ENDTAB
  0
TABLE
  2
VIEW
  5
5
100
AcDbSymbolTable
 70
     0
  0
ENDTAB
  0
TABLE
  2
UCS
  5
6
100
AcDbSymbolTable
 70
     0
  0
ENDTAB
  0
TABLE
  2
APPID
  5
8
100
AcDbSymbolTable
 70
     1
  0
APPID
  5
16
100
AcDbSymbolTableRecord
100
AcDbRegAppTableRecord
  2
ACAD
 70
     0
  0
ENDTAB
  0
TABLE
  2
DIMSTYLE
  5
9
100
AcDbSymbolTable
 70
     1
100
AcDbDimStyleTable
 71
     0
  0
DIMSTYLE
105
18
100
AcDbSymbolTableRecord
100
AcDbDimStyleTableRecord
  2
Standard
 70
     0
  3

  4

 40
1.0
 41
0.18
 42
0.0625
 43
0.38
 44
0.18
 45
0.0
 46
0.0
 47
0.0
 48
0.0
 71
     0
 72
     0
 73
     1
 74
     1
 75
     0
 76
     0
 77
     0
 78
     0
 79
     0
140
0.18
141
0.09
142
0.0
143
25.4
144
1.0
145
0.0
146
1.0
147
0.09
148
0.0
170
     0
171
     2
172
     0
173
     0
174
     0
175
     0
176
     0
177
     0
178
     0
179
     0
271
     4
272
     4
273
     2
274
     2
275
     0
276
     0
277
     2
278
    46
279
     0
280
     0
281
     0
282
     0
283
     1
284
     0
285
     0
286
     0
288
     0
340
17
341
0
342
0
343
0
344
0
371
    -2
372
    -2
  0
ENDTAB
  0
TABLE
  2
BLOCK_RECORD
  5
1
100
AcDbSymbolTable
 70
     1
  0
BLOCK_RECORD
  5
A
100
AcDbSymbolTableRecord
100
AcDbBlockTableRecord
  2
*MODEL_SPACE
340
20
  0
BLOCK_RECORD
  5
B
100
AcDbSymbolTableRecord
100
AcDbBlockTableRecord
  2
*PAPER_SPACE
340
21
  0
BLOCK_RECORD
  5
29
100
AcDbSymbolTableRecord
100
AcDbBlockTableRecord
  2
AI9-BLK1
340
0
102
{BLKREFS
331
2A
102
}
  0
ENDTAB
  0
ENDSEC
  0
SECTION
  2
BLOCKS
  0
BLOCK
  5
D
100
AcDbEntity
  8
0
100
AcDbBlockBegin
  2
*MODEL_SPACE
 70
     0
 10
0.0
 20
0.0
 30
0.0
  3
*MODEL_SPACE
  1

  0
ENDBLK
  5
E
100
AcDbEntity
  8
0
100
AcDbBlockEnd
  0
BLOCK
  5
F
100
AcDbEntity
 67
     1
  8
0
100
AcDbBlockBegin
  2
*PAPER_SPACE
 70
     0
 10
0.0
 20
0.0
 30
0.0
  3
*PAPER_SPACE
  1

  0
ENDBLK
  5
10
100
AcDbEntity
 67
     1
  8
0
100
AcDbBlockEnd
  0
BLOCK
  5
2B
100
AcDbEntity
  8
LIVELLO_1
 62
     7
100
AcDbBlockBegin
  2
AI9-BLK1
 70
     0
 10
0.0
 20
0.0
 30
0.0
  3
AI9-BLK1
  1

  0
HATCH
  5
127
100
AcDbEntity
  8
LIVELLO_1
 62
   254
100
AcDbHatch
 10
0.0
 20
0.0
 30
0.0
210
0.0
220
0.0
230
1.0
  2
SOLID
 70
     1
 71
     0
 91
        1
 92
        1
 93
        1
 72
     4
 94
        3
 73
     0
 74
     0
 95
       29
 96
       25
 40
0.0
 40
0.0
 40
0.0
 40
0.0
 40
1.0
 40
1.0
 40
1.0
 40
2.0
 40
2.0
 40
2.0
 40
3.0
 40
3.0
 40
3.0
 40
4.0
 40
4.0
 40
4.0
 40
5.0
 40
5.0
 40
5.0
 40
6.0
 40
6.0
 40
6.0
 40
7.0
 40
7.0
 40
7.0
 40
8.0
 40
8.0
 40
8.0
 40
8.0
 10
-60.730659993489574
 20
-63.440399848090273
 10
-62.589289008246524
 20
-63.440399848090273
 10
-64.279280598958323
 20
-64.19522026909722
 10
-65.496260579427073
 20
-65.412027994791657
 10
-66.724953884548611
 20
-66.640204535590271
 10
-67.479774305555551
 20
-68.31899956597222
 10
-67.479774305555551
 20
-70.189686414930549
 10
-67.479774305555551
 20
-72.058306206597209
 10
-66.724953884548611
 20
-73.738823784722214
 10
-65.496260579427073
 20
-74.965277777777771
 10
-64.279280598958323
 20
-76.183808051215266
 10
-62.589289008246524
 20
-76.93862847222222
 10
-60.730659993489574
 20
-76.93862847222222
 10
-58.86100667317708
 20
-76.93862847222222
 10
-57.171015082465274
 20
-76.183808051215266
 10
-55.954035101996524
 20
-74.965277777777771
 10
-54.725341796874993
 20
-73.738823784722214
 10
-53.970521375868053
 20
-72.058306206597209
 10
-53.970521375868053
 20
-70.189686414930549
 10
-53.970521375868053
 20
-68.31899956597222
 10
-54.725341796874993
 20
-66.640204535590271
 10
-55.954035101996524
 20
-65.412027994791657
 10
-57.171015082465274
 20
-64.19522026909722
 10
-58.86100667317708
 20
-63.440399848090273
 10
-60.730659993489574
 20
-63.440399848090273
 97
        0
 75
     2
 76
     1
 98
        1
 10
0.0
 20
0.0
  0
HATCH
  5
126
100
AcDbEntity
  8
LIVELLO_1
 62
   250
100
AcDbHatch
 10
0.0
 20
0.0
 30
0.0
210
0.0
220
0.0
230
1.0
  2
SOLID
 70
     1
 71
     0
 91
        2
 92
        1
 93
        1
 72
     4
 94
        3
 73
     0
 74
     0
 95
       32
 96
       28
 40
0.0
 40
0.0
 40
0.0
 40
0.0
 40
1.0
 40
1.0
 40
1.0
 40
2.0
 40
2.0
 40
2.0
 40
3.0
 40
3.0
 40
3.0
 40
4.0
 40
4.0
 40
4.0
 40
5.0
 40
5.0
 40
5.0
 40
6.0
 40
6.0
 40
6.0
 40
7.0
 40
7.0
 40
7.0
 40
8.0
 40
8.0
 40
8.0
 40
9.0
 40
9.0
 40
9.0
 40
9.0
 10
-60.730659993489574
 20
-76.93862847222222
 10
-60.730659993489574
 20
-76.93862847222222
 10
-60.730659993489574
 20
-76.93862847222222
 10
-60.730659993489574
 20
-76.93862847222222
 10
-62.589289008246524
 20
-76.93862847222222
 10
-64.279280598958323
 20
-76.183808051215266
 10
-65.496260579427073
 20
-74.965277777777771
 10
-66.724953884548611
 20
-73.738823784722214
 10
-67.479774305555551
 20
-72.058306206597209
 10
-67.479774305555551
 20
-70.189686414930549
 10
-67.479774305555551
 20
-68.31899956597222
 10
-66.724953884548611
 20
-66.640204535590271
 10
-65.496260579427073
 20
-65.412027994791657
 10
-64.279280598958323
 20
-64.19522026909722
 10
-62.589289008246524
 20
-63.440399848090273
 10
-60.730659993489574
 20
-63.440399848090273
 10
-58.86100667317708
 20
-63.440399848090273
 10
-57.171015082465274
 20
-64.19522026909722
 10
-55.954035101996524
 20
-65.412027994791657
 10
-54.725341796874993
 20
-66.640204535590271
 10
-53.970521375868053
 20
-68.31899956597222
 10
-53.970521375868053
 20
-70.189686414930549
 10
-53.970521375868053
 20
-72.058306206597209
 10
-54.725341796874993
 20
-73.738823784722214
 10
-55.954035101996524
 20
-74.965277777777771
 10
-57.171015082465274
 20
-76.183808051215266
 10
-58.86100667317708
 20
-76.93862847222222
 10
-60.730659993489574
 20
-76.93862847222222
 97
        0
 92
       16
 93
        1
 72
     4
 94
        3
 73
     0
 74
     0
 95
       17
 96
       13
 40
0.0
 40
0.0
 40
0.0
 40
0.0
 40
1.0
 40
1.0
 40
1.0
 40
2.0
 40
2.0
 40
2.0
 40
3.0
 40
3.0
 40
3.0
 40
4.0
 40
4.0
 40
4.0
 40
4.0
 10
-60.730659993489574
 20
-63.057649739583326
 10
-64.662202962239576
 20
-63.057649739583326
 10
-67.850811089409717
 20
-66.255731879340274
 10
-67.850811089409717
 20
-70.189686414930549
 10
-67.850811089409717
 20
-74.121918402777766
 10
-64.662202962239576
 20
-77.320000542534714
 10
-60.730659993489574
 20
-77.320000542534714
 10
-56.78654242621527
 20
-77.320000542534714
 10
-53.599484592013887
 20
-74.121918402777766
 10
-53.599484592013887
 20
-70.189686414930549
 10
-53.599484592013887
 20
-66.255731879340274
 10
-56.78654242621527
 20
-63.057649739583326
 10
-60.730659993489574
 20
-63.057649739583326
 97
        0
 75
     2
 76
     1
 98
        1
 10
0.0
 20
0.0
  0
CIRCLE
  5
125
100
AcDbEntity
  8
LIVELLO_1
 62
     7
100
AcDbCircle
 10
-60.683979
 20
-70.143694
 30
0.0
 40
13.336826
  0
CIRCLE
  5
124
100
AcDbEntity
  8
LIVELLO_1
 62
     7
100
AcDbCircle
 10
-60.683979
 20
-70.142833
 30
0.0
 40
11.604804
  0
CIRCLE
  5
123
100
AcDbEntity
  8
LIVELLO_1
 62
     7
100
AcDbCircle
 10
-60.683979
 20
-70.143694
 30
0.0
 40
7.002329
  0
LINE
  5
122
100
AcDbEntity
  8
LIVELLO_1
 62
     7
100
AcDbLine
 10
-12.017871
 20
-74.810248
 30
0.0
 11
-10.018338
 21
-74.810248
 31
0.0
  0
LINE
  5
121
100
AcDbEntity
  8
LIVELLO_1
 62
     7
100
AcDbLine
 10
-12.017871
 20
-65.475418
 30
0.0
 11
-10.018338
 21
-65.475418
 31
0.0
  0
LINE
  5
120
100
AcDbEntity
  8
LIVELLO_1
 62
     7
100
AcDbLine
 10
-16.351284
 20
-76.478019
 30
0.0
 11
-18.018366
 21
-76.478019
 31
0.0
  0
LINE
  5
11F
100
AcDbEntity
  8
LIVELLO_1
 62
     7
100
AcDbLine
 10
-16.351284
 20
-63.807647
 30
0.0
 11
-18.018366
 21
-63.807647
 31
0.0
  0
LINE
  5
11E
100
AcDbEntity
  8
LIVELLO_1
 62
     7
100
AcDbLine
 10
-12.017871
 20
-76.478019
 30
0.0
 11
-14.352785
 21
-76.478019
 31
0.0
  0
LINE
  5
11D
100
AcDbEntity
  8
LIVELLO_1
 62
     7
100
AcDbLine
 10
-12.017871
 20
-63.807647
 30
0.0
 11
-14.352785
 21
-63.807647
 31
0.0
  0
SPLINE
  5
11C
100
AcDbEntity
  8
LIVELLO_1
 62
     7
100
AcDbSpline
210
0.0
220
0.0
230
1.0
 70
     8
 71
     3
 72
     8
 73
     4
 74
     0
 42
0.00000001
 43
0.00000001
 40
0.0
 40
0.0
 40
0.0
 40
0.0
 40
1.0
 40
1.0
 40
1.0
 40
1.0
 10
-20.685559082031247
 20
-73.810137261284709
 30
0.0
 10
-20.685559082031247
 20
-75.28326009114582
 30
0.0
 10
-19.491661241319441
 20
-76.478019205729154
 30
0.0
 10
-18.018366156684028
 20
-76.478019205729154
 30
0.0
  0
SPLINE
  5
11B
100
AcDbEntity
  8
LIVELLO_1
 62
     7
100
AcDbSpline
210
0.0
220
0.0
230
1.0
 70
     8
 71
     3
 72
     8
 73
     4
 74
     0
 42
0.00000001
 43
0.00000001
 40
0.0
 40
0.0
 40
0.0
 40
0.0
 40
1.0
 40
1.0
 40
1.0
 40
1.0
 10
-18.018366156684028
 20
-63.807647026909713
 30
0.0
 10
-19.491661241319441
 20
-63.807647026909713
 30
0.0
 10
-20.685559082031247
 20
-65.002406141493054
 30
0.0
 10
-20.685559082031247
 20
-66.475528971354166
 30
0.0
  0
LINE
  5
11A
100
AcDbEntity
  8
LIVELLO_1
 62
     7
100
AcDbLine
 10
-10.018338
 20
-75.477908
 30
0.0
 11
-12.017871
 21
-75.477908
 31
0.0
  0
LINE
  5
119
100
AcDbEntity
  8
LIVELLO_1
 62
     7
100
AcDbLine
 10
-10.018338
 20
-64.807758
 30
0.0
 11
-12.017871
 21
-64.807758
 31
0.0
  0
LINE
  5
118
100
AcDbEntity
  8
LIVELLO_1
 62
     7
100
AcDbLine
 10
-7.351145
 20
-63.473817
 30
0.0
 11
-10.018338
 21
-63.473817
 31
0.0
  0
LINE
  5
117
100
AcDbEntity
  8
LIVELLO_1
 62
     7
100
AcDbLine
 10
-7.351145
 20
-70.142144
 30
0.0
 11
-10.018338
 21
-70.142144
 31
0.0
  0
LINE
  5
116
100
AcDbEntity
  8
LIVELLO_1
 62
     7
100
AcDbLine
 10
-7.351145
 20
-76.811849
 30
0.0
 11
-10.018338
 21
-76.811849
 31
0.0
  0
POLYLINE
  5
111
100
AcDbEntity
  8
LIVELLO_1
 62
     7
100
AcDb2dPolyline
 66
     1
 10
0.0
 20
0.0
 30
0.0
  0
VERTEX
  5
112
100
AcDbEntity
  8
LIVELLO_1
 62
     7
100
AcDbVertex
100
AcDb2dVertex
 10
-10.018338
 20
-76.811849
 30
0.0
  0
VERTEX
  5
113
100
AcDbEntity
  8
LIVELLO_1
 62
     7
100
AcDbVertex
100
AcDb2dVertex
 10
-10.018338
 20
-70.142144
 30
0.0
  0
VERTEX
  5
114
100
AcDbEntity
  8
LIVELLO_1
 62
     7
100
AcDbVertex
100
AcDb2dVertex
 10
-10.018338
 20
-63.473817
 30
0.0
  0
SEQEND
  5
115
100
AcDbEntity
  8
LIVELLO_1
 62
     7
  0
POLYLINE
  5
10C
100
AcDbEntity
  8
LIVELLO_1
 62
     7
100
AcDb2dPolyline
 66
     1
 10
0.0
 20
0.0
 30
0.0
  0
VERTEX
  5
10D
100
AcDbEntity
  8
LIVELLO_1
 62
     7
100
AcDbVertex
100
AcDb2dVertex
 10
-12.017871
 20
-76.478019
 30
0.0
  0
VERTEX
  5
10E
100
AcDbEntity
  8
LIVELLO_1
 62
     7
100
AcDbVertex
100
AcDb2dVertex
 10
-12.017871
 20
-70.142144
 30
0.0
  0
VERTEX
  5
10F
100
AcDbEntity
  8
LIVELLO_1
 62
     7
100
AcDbVertex
100
AcDb2dVertex
 10
-12.017871
 20
-63.807647
 30
0.0
  0
SEQEND
  5
110
100
AcDbEntity
  8
LIVELLO_1
 62
     7
  0
POLYLINE
  5
107
100
AcDbEntity
  8
LIVELLO_1
 62
     7
100
AcDb2dPolyline
 66
     1
 10
0.0
 20
0.0
 30
0.0
  0
VERTEX
  5
108
100
AcDbEntity
  8
LIVELLO_1
 62
     7
100
AcDbVertex
100
AcDb2dVertex
 10
-20.685559
 20
-73.810137
 30
0.0
  0
VERTEX
  5
109
100
AcDbEntity
  8
LIVELLO_1
 62
     7
100
AcDbVertex
100
AcDb2dVertex
 10
-20.685559
 20
-70.142144
 30
0.0
  0
VERTEX
  5
10A
100
AcDbEntity
  8
LIVELLO_1
 62
     7
100
AcDbVertex
100
AcDb2dVertex
 10
-20.685559
 20
-66.475529
 30
0.0
  0
SEQEND
  5
10B
100
AcDbEntity
  8
LIVELLO_1
 62
     7
  0
POLYLINE
  5
102
100
AcDbEntity
  8
LIVELLO_1
 62
     7
100
AcDb2dPolyline
 66
     1
 10
0.0
 20
0.0
 30
0.0
  0
VERTEX
  5
103
100
AcDbEntity
  8
LIVELLO_1
 62
     7
100
AcDbVertex
100
AcDb2dVertex
 10
-18.018366
 20
-76.478019
 30
0.0
  0
VERTEX
  5
104
100
AcDbEntity
  8
LIVELLO_1
 62
     7
100
AcDbVertex
100
AcDb2dVertex
 10
-18.018366
 20
-70.142144
 30
0.0
  0
VERTEX
  5
105
100
AcDbEntity
  8
LIVELLO_1
 62
     7
100
AcDbVertex
100
AcDb2dVertex
 10
-18.018366
 20
-63.807647
 30
0.0
  0
SEQEND
  5
106
100
AcDbEntity
  8
LIVELLO_1
 62
     7
  0
LINE
  5
101
100
AcDbEntity
  8
LIVELLO_1
 62
     7
100
AcDbLine
 10
-14.352785
 20
-70.142144
 30
0.0
 11
-14.352785
 21
-63.34566
 31
0.0
  0
LINE
  5
100
100
AcDbEntity
  8
LIVELLO_1
 62
     7
100
AcDbLine
 10
-14.352785
 20
-63.34566
 30
0.0
 11
-14.485593
 21
-63.210956
 31
0.0
  0
LINE
  5
FF
100
AcDbEntity
  8
LIVELLO_1
 62
     7
100
AcDbLine
 10
-14.352785
 20
-76.940351
 30
0.0
 11
-14.352785
 21
-70.142144
 31
0.0
  0
LINE
  5
FE
100
AcDbEntity
  8
LIVELLO_1
 62
     7
100
AcDbLine
 10
-14.352785
 20
-70.142144
 30
0.0
 11
-14.485593
 21
-70.142144
 31
0.0
  0
LINE
  5
FD
100
AcDbEntity
  8
LIVELLO_1
 62
     7
100
AcDbLine
 10
-14.485593
 20
-77.072987
 30
0.0
 11
-14.352785
 21
-76.940351
 31
0.0
  0
LINE
  5
FC
100
AcDbEntity
  8
LIVELLO_1
 62
     7
100
AcDbLine
 10
-14.485593
 20
-70.142144
 30
0.0
 11
-14.485593
 21
-63.210956
 31
0.0
  0
LINE
  5
FB
100
AcDbEntity
  8
LIVELLO_1
 62
     7
100
AcDbLine
 10
-14.485593
 20
-63.210956
 30
0.0
 11
-16.218476
 21
-63.210956
 31
0.0
  0
LINE
  5
FA
100
AcDbEntity
  8
LIVELLO_1
 62
     7
100
AcDbLine
 10
-14.485593
 20
-70.142144
 30
0.0
 11
-16.218476
 21
-70.142144
 31
0.0
  0
LINE
  5
F9
100
AcDbEntity
  8
LIVELLO_1
 62
     7
100
AcDbLine
 10
-14.485593
 20
-77.072987
 30
0.0
 11
-16.218476
 21
-77.072987
 31
0.0
  0
LINE
  5
F8
100
AcDbEntity
  8
LIVELLO_1
 62
     7
100
AcDbLine
 10
-14.485593
 20
-77.072987
 30
0.0
 11
-14.485593
 21
-70.142144
 31
0.0
  0
LINE
  5
F7
100
AcDbEntity
  8
LIVELLO_1
 62
     7
100
AcDbLine
 10
-16.351284
 20
-70.142144
 30
0.0
 11
-16.351284
 21
-63.34566
 31
0.0
  0
LINE
  5
F6
100
AcDbEntity
  8
LIVELLO_1
 62
     7
100
AcDbLine
 10
-16.351284
 20
-63.34566
 30
0.0
 11
-16.218476
 21
-63.210956
 31
0.0
  0
LINE
  5
F5
100
AcDbEntity
  8
LIVELLO_1
 62
     7
100
AcDbLine
 10
-16.351284
 20
-76.940351
 30
0.0
 11
-16.351284
 21
-70.142144
 31
0.0
  0
LINE
  5
F4
100
AcDbEntity
  8
LIVELLO_1
 62
     7
100
AcDbLine
 10
-16.351284
 20
-70.142144
 30
0.0
 11
-16.218476
 21
-70.142144
 31
0.0
  0
LINE
  5
F3
100
AcDbEntity
  8
LIVELLO_1
 62
     7
100
AcDbLine
 10
-16.218476
 20
-77.072987
 30
0.0
 11
-16.351284
 21
-76.940351
 31
0.0
  0
POLYLINE
  5
EE
100
AcDbEntity
  8
LIVELLO_1
 62
     7
100
AcDb2dPolyline
 66
     1
 10
0.0
 20
0.0
 30
0.0
  0
VERTEX
  5
EF
100
AcDbEntity
  8
LIVELLO_1
 62
     7
100
AcDbVertex
100
AcDb2dVertex
 10
-16.218476
 20
-77.072987
 30
0.0
  0
VERTEX
  5
F0
100
AcDbEntity
  8
LIVELLO_1
 62
     7
100
AcDbVertex
100
AcDb2dVertex
 10
-16.218476
 20
-70.142144
 30
0.0
  0
VERTEX
  5
F1
100
AcDbEntity
  8
LIVELLO_1
 62
     7
100
AcDbVertex
100
AcDb2dVertex
 10
-16.218476
 20
-63.210956
 30
0.0
  0
SEQEND
  5
F2
100
AcDbEntity
  8
LIVELLO_1
 62
     7
  0
LINE
  5
ED
100
AcDbEntity
  8
LIVELLO_1
 62
     7
100
AcDbLine
 10
30.647914
 20
-60.808691
 30
0.0
 11
25.181925
 21
-60.808691
 31
0.0
  0
LINE
  5
EC
100
AcDbEntity
  8
LIVELLO_1
 62
     7
100
AcDbLine
 10
30.647914
 20
-79.478353
 30
0.0
 11
25.181925
 21
-79.478353
 31
0.0
  0
SPLINE
  5
EB
100
AcDbEntity
  8
LIVELLO_1
 62
     7
100
AcDbSpline
210
0.0
220
0.0
230
1.0
 70
     8
 71
     3
 72
    11
 73
     7
 74
     0
 42
0.00000001
 43
0.00000001
 40
0.0
 40
0.0
 40
0.0
 40
0.0
 40
1.0
 40
1.0
 40
1.0
 40
2.0
 40
2.0
 40
2.0
 40
2.0
 10
25.181925455729164
 20
-60.808691406249991
 30
0.0
 10
25.181925455729164
 20
-60.14413248697916
 30
0.0
 10
24.644146050347221
 20
-59.607731119791659
 30
0.0
 10
23.980965169270831
 20
-59.607731119791659
 30
0.0
 10
23.317784288194442
 20
-59.607731119791659
 30
0.0
 10
22.782244194878469
 20
-60.14413248697916
 30
0.0
 10
22.782244194878469
 20
-60.808691406249991
 30
0.0
  0
SPLINE
  5
EA
100
AcDbEntity
  8
LIVELLO_1
 62
     7
100
AcDbSpline
210
0.0
220
0.0
230
1.0
 70
     8
 71
     3
 72
    11
 73
     7
 74
     0
 42
0.00000001
 43
0.00000001
 40
0.0
 40
0.0
 40
0.0
 40
0.0
 40
1.0
 40
1.0
 40
1.0
 40
2.0
 40
2.0
 40
2.0
 40
2.0
 10
22.782244194878469
 20
-79.478352864583329
 30
0.0
 10
22.782244194878469
 20
-80.141533745659714
 30
0.0
 10
23.317784288194442
 20
-80.677935112847209
 30
0.0
 10
23.980965169270831
 20
-80.677935112847209
 30
0.0
 10
24.644146050347221
 20
-80.677935112847209
 30
0.0
 10
25.181925455729164
 20
-80.141533745659714
 30
0.0
 10
25.181925455729164
 20
-79.478352864583329
 30
0.0
  0
LINE
  5
E9
100
AcDbEntity
  8
LIVELLO_1
 62
     7
100
AcDbLine
 10
22.782244
 20
-60.808691
 30
0.0
 11
-6.685036
 21
-60.808691
 31
0.0
  0
LINE
  5
E8
100
AcDbEntity
  8
LIVELLO_1
 62
     7
100
AcDbLine
 10
22.782244
 20
-79.478353
 30
0.0
 11
-6.685036
 21
-79.478353
 31
0.0
  0
LINE
  5
E7
100
AcDbEntity
  8
LIVELLO_1
 62
     7
100
AcDbLine
 10
-6.685036
 20
-60.808691
 30
0.0
 11
-7.351145
 21
-61.474973
 31
0.0
  0
LINE
  5
E6
100
AcDbEntity
  8
LIVELLO_1
 62
     7
100
AcDbLine
 10
-6.685036
 20
-79.478353
 30
0.0
 11
-7.351145
 21
-78.810693
 31
0.0
  0
SPLINE
  5
E5
100
AcDbEntity
  8
LIVELLO_1
 62
     7
100
AcDbSpline
210
0.0
220
0.0
230
1.0
 70
     8
 71
     3
 72
     8
 73
     4
 74
     0
 42
0.00000001
 43
0.00000001
 40
0.0
 40
0.0
 40
0.0
 40
0.0
 40
1.0
 40
1.0
 40
1.0
 40
1.0
 10
31.313161892361109
 20
-60.139309353298607
 30
0.0
 10
30.945225694444442
 20
-60.139309353298607
 30
0.0
 10
30.647913953993054
 20
-60.43868815104166
 30
0.0
 10
30.647913953993054
 20
-60.808691406249991
 30
0.0
  0
SPLINE
  5
E4
100
AcDbEntity
  8
LIVELLO_1
 62
     7
100
AcDbSpline
210
0.0
220
0.0
230
1.0
 70
     8
 71
     3
 72
    11
 73
     7
 74
     0
 42
0.00000001
 43
0.00000001
 40
0.0
 40
0.0
 40
0.0
 40
0.0
 40
1.0
 40
1.0
 40
1.0
 40
2.0
 40
2.0
 40
2.0
 40
2.0
 10
30.647913953993054
 20
-60.808691406249991
 30
0.0
 10
30.647913953993054
 20
-60.808691406249991
 30
0.0
 10
30.647913953993054
 20
-79.478352864583329
 30
0.0
 10
30.647913953993054
 20
-79.478352864583329
 30
0.0
 10
30.647913953993054
 20
-79.846978081597214
 30
0.0
 10
30.945225694444442
 20
-80.144634331597217
 30
0.0
 10
31.313161892361109
 20
-80.144634331597217
 30
0.0
  0
LINE
  5
E3
100
AcDbEntity
  8
LIVELLO_1
 62
     7
100
AcDbLine
 10
-7.351145
 20
-61.474973
 30
0.0
 11
-7.351145
 21
-78.810693
 31
0.0
  0
LINE
  5
E2
100
AcDbEntity
  8
LIVELLO_1
 62
     7
100
AcDbLine
 10
-6.685036
 20
-60.808691
 30
0.0
 11
-6.685036
 21
-79.478353
 31
0.0
  0
LINE
  5
E1
100
AcDbEntity
  8
LIVELLO_1
 62
     7
100
AcDbLine
 10
22.782244
 20
-60.808691
 30
0.0
 11
22.782244
 21
-79.478353
 31
0.0
  0
LINE
  5
E0
100
AcDbEntity
  8
LIVELLO_1
 62
     7
100
AcDbLine
 10
25.181925
 20
-60.808691
 30
0.0
 11
25.181925
 21
-79.478353
 31
0.0
  0
LINE
  5
DF
100
AcDbEntity
  8
LIVELLO_1
 62
     7
100
AcDbLine
 10
41.314963
 20
-58.538029
 30
0.0
 11
40.313129
 21
-56.806868
 31
0.0
  0
LINE
  5
DE
100
AcDbEntity
  8
LIVELLO_1
 62
     7
100
AcDbLine
 10
41.314963
 20
-81.747637
 30
0.0
 11
40.313129
 21
-83.48052
 31
0.0
  0
LINE
  5
DD
100
AcDbEntity
  8
LIVELLO_1
 62
     7
100
AcDbLine
 10
40.313129
 20
-56.806868
 30
0.0
 11
39.64547
 21
-56.806868
 31
0.0
  0
LINE
  5
DC
100
AcDbEntity
  8
LIVELLO_1
 62
     7
100
AcDbLine
 10
40.313129
 20
-83.48052
 30
0.0
 11
39.64547
 21
-83.48052
 31
0.0
  0
LINE
  5
DB
100
AcDbEntity
  8
LIVELLO_1
 62
     7
100
AcDbLine
 10
39.64547
 20
-59.641149
 30
0.0
 11
31.313162
 21
-59.641149
 31
0.0
  0
LINE
  5
DA
100
AcDbEntity
  8
LIVELLO_1
 62
     7
100
AcDbLine
 10
39.64547
 20
-80.64624
 30
0.0
 11
31.313162
 21
-80.64624
 31
0.0
  0
LINE
  5
D9
100
AcDbEntity
  8
LIVELLO_1
 62
     7
100
AcDbLine
 10
31.313162
 20
-59.641149
 30
0.0
 11
31.313162
 21
-80.64624
 31
0.0
  0
LINE
  5
D8
100
AcDbEntity
  8
LIVELLO_1
 62
     7
100
AcDbLine
 10
39.64547
 20
-56.806868
 30
0.0
 11
39.64547
 21
-83.48052
 31
0.0
  0
LINE
  5
D7
100
AcDbEntity
  8
LIVELLO_1
 62
     7
100
AcDbLine
 10
40.313129
 20
-56.806868
 30
0.0
 11
40.313129
 21
-83.48052
 31
0.0
  0
LINE
  5
D6
100
AcDbEntity
  8
LIVELLO_1
 62
     7
100
AcDbLine
 10
41.314963
 20
-58.538029
 30
0.0
 11
41.314963
 21
-81.747637
 31
0.0
  0
LINE
  5
D5
100
AcDbEntity
  8
LIVELLO_1
 62
     7
100
AcDbLine
 10
9.319672
 20
52.078819
 30
0.0
 11
-0.380683
 21
69.178723
 31
0.0
  0
LINE
  5
D4
100
AcDbEntity
  8
LIVELLO_1
 62
     7
100
AcDbLine
 10
9.319672
 20
22.336966
 30
0.0
 11
-0.380683
 21
5.234134
 31
0.0
  0
SPLINE
  5
D3
100
AcDbEntity
  8
LIVELLO_1
 62
     7
100
AcDbSpline
210
0.0
220
0.0
230
1.0
 70
     8
 71
     3
 72
     8
 73
     4
 74
     0
 42
0.00000001
 43
0.00000001
 40
0.0
 40
0.0
 40
0.0
 40
0.0
 40
1.0
 40
1.0
 40
1.0
 40
1.0
 10
-0.3806830512152777
 20
69.178723144531247
 30
0.0
 10
-1.3268785264756944
 20
70.849766710069431
 30
0.0
 10
-3.0976576063368051
 20
71.881400553385404
 30
0.0
 10
-5.0179538302951388
 20
71.881400553385404
 30
0.0
  0
SPLINE
  5
D2
100
AcDbEntity
  8
LIVELLO_1
 62
     7
100
AcDbSpline
210
0.0
220
0.0
230
1.0
 70
     8
 71
     3
 72
     8
 73
     4
 74
     0
 42
0.00000001
 43
0.00000001
 40
0.0
 40
0.0
 40
0.0
 40
0.0
 40
1.0
 40
1.0
 40
1.0
 40
1.0
 10
-5.0179538302951388
 20
2.5328342013888885
 30
0.0
 10
-3.0976576063368051
 20
2.5328342013888885
 30
0.0
 10
-1.3268785264756944
 20
3.566018337673611
 30
0.0
 10
-0.3806830512152777
 20
5.2341335720486111
 30
0.0
  0
LINE
  5
D1
100
AcDbEntity
  8
LIVELLO_1
 62
     7
100
AcDbLine
 10
-5.017954
 20
71.881401
 30
0.0
 11
-26.577878
 21
71.881401
 31
0.0
  0
LINE
  5
D0
100
AcDbEntity
  8
LIVELLO_1
 62
     7
100
AcDbLine
 10
-5.017954
 20
2.532834
 30
0.0
 11
-26.577878
 21
2.532834
 31
0.0
  0
LINE
  5
CF
100
AcDbEntity
  8
LIVELLO_1
 62
     7
100
AcDbLine
 10
-26.577878
 20
76.885057
 30
0.0
 11
-28.577239
 21
76.885057
 31
0.0
  0
LINE
  5
CE
100
AcDbEntity
  8
LIVELLO_1
 62
     7
100
AcDbLine
 10
-26.577878
 20
-2.4691
 30
0.0
 11
-28.577239
 21
-2.4691
 31
0.0
  0
LINE
  5
CD
100
AcDbEntity
  8
LIVELLO_1
 62
     7
100
AcDbLine
 10
41.420039
 20
49.376142
 30
0.0
 11
13.958666
 21
49.376142
 31
0.0
  0
LINE
  5
CC
100
AcDbEntity
  8
LIVELLO_1
 62
     7
100
AcDbLine
 10
41.420039
 20
25.039643
 30
0.0
 11
13.958666
 21
25.039643
 31
0.0
  0
SPLINE
  5
CB
100
AcDbEntity
  8
LIVELLO_1
 62
     7
100
AcDbSpline
210
0.0
220
0.0
230
1.0
 70
     8
 71
     3
 72
     8
 73
     4
 74
     0
 42
0.00000001
 43
0.00000001
 40
0.0
 40
0.0
 40
0.0
 40
0.0
 40
1.0
 40
1.0
 40
1.0
 40
1.0
 10
9.3196723090277764
 20
52.078819444444441
 30
0.0
 10
10.267590332031249
 20
50.407775878906243
 30
0.0
 10
12.039919704861109
 20
49.37614203559027
 30
0.0
 10
13.958665635850693
 20
49.37614203559027
 30
0.0
  0
SPLINE
  5
CA
100
AcDbEntity
  8
LIVELLO_1
 62
     7
100
AcDbSpline
210
0.0
220
0.0
230
1.0
 70
     8
 71
     3
 72
     8
 73
     4
 74
     0
 42
0.00000001
 43
0.00000001
 40
0.0
 40
0.0
 40
0.0
 40
0.0
 40
1.0
 40
1.0
 40
1.0
 40
1.0
 10
13.958665635850693
 20
25.039643012152776
 30
0.0
 10
12.039919704861109
 20
25.039643012152776
 30
0.0
 10
10.267590332031249
 20
24.006458875868052
 30
0.0
 10
9.3196723090277764
 20
22.336965603298609
 30
0.0
  0
SPLINE
  5
C9
100
AcDbEntity
  8
LIVELLO_1
 62
     7
100
AcDbSpline
210
0.0
220
0.0
230
1.0
 70
     8
 71
     3
 72
    89
 73
    85
 74
     0
 42
0.00000001
 43
0.00000001
 40
0.0
 40
0.0
 40
0.0
 40
0.0
 40
1.0
 40
1.0
 40
1.0
 40
2.0
 40
2.0
 40
2.0
 40
3.0
 40
3.0
 40
3.0
 40
4.0
 40
4.0
 40
4.0
 40
5.0
 40
5.0
 40
5.0
 40
6.0
 40
6.0
 40
6.0
 40
7.0
 40
7.0
 40
7.0
 40
8.0
 40
8.0
 40
8.0
 40
9.0
 40
9.0
 40
9.0
 40
10.0
 40
10.0
 40
10.0
 40
11.0
 40
11.0
 40
11.0
 40
12.0
 40
12.0
 40
12.0
 40
13.0
 40
13.0
 40
13.0
 40
14.0
 40
14.0
 40
14.0
 40
15.0
 40
15.0
 40
15.0
 40
16.0
 40
16.0
 40
16.0
 40
17.0
 40
17.0
 40
17.0
 40
18.0
 40
18.0
 40
18.0
 40
19.0
 40
19.0
 40
19.0
 40
20.0
 40
20.0
 40
20.0
 40
21.0
 40
21.0
 40
21.0
 40
22.0
 40
22.0
 40
22.0
 40
23.0
 40
23.0
 40
23.0
 40
24.0
 40
24.0
 40
24.0
 40
25.0
 40
25.0
 40
25.0
 40
26.0
 40
26.0
 40
26.0
 40
27.0
 40
27.0
 40
27.0
 40
28.0
 40
28.0
 40
28.0
 40
28.0
 10
-9.1108995225694436
 20
37.20875379774305
 30
0.0
 10
-9.29280056423611
 20
35.232302517361106
 30
0.0
 10
-8.9589708116319429
 20
37.855914984809026
 30
0.0
 10
-9.2778143988715271
 20
35.895311143663193
 30
0.0
 10
-9.9456461588541654
 20
34.028069390190971
 30
0.0
 10
-8.9732679578993046
 20
36.483905707465276
 30
0.0
 10
-9.7644341362847218
 20
34.667306857638884
 30
0.0
 10
-10.856357150607638
 20
33.013661024305556
 30
0.0
 10
-9.3300075954861104
 20
35.16891276041666
 30
0.0
 10
-10.527178276909721
 20
33.589680989583329
 30
0.0
 10
-11.966366916232637
 20
32.228868272569443
 30
0.0
 10
-9.9938774956597207
 20
33.982077365451389
 30
0.0
 10
-11.512303331163194
 20
32.713076443142356
 30
0.0
 10
-13.212630208333332
 20
31.692294650607636
 30
0.0
 10
-10.907689073350694
 20
32.983688693576383
 30
0.0
 10
-12.664171006944443
 20
32.067465549045139
 30
0.0
 10
-14.542609320746527
 20
31.420132107204857
 30
0.0
 10
-12.017871093749999
 20
32.21147054036458
 30
0.0
 10
-13.926970757378472
 20
31.673346625434025
 30
0.0
 10
-15.897220865885416
 20
31.417031521267358
 30
0.0
 10
-13.262411838107637
 20
31.682820638020832
 30
0.0
 10
-15.24437527126736
 20
31.540538194444441
 30
0.0
 10
-17.224099392361108
 20
31.682820638020832
 30
0.0
 10
-14.590840657552082
 20
31.417031521267358
 30
0.0
 10
-16.560229492187499
 20
31.673346625434025
 30
0.0
 10
-18.470190429687499
 20
32.21147054036458
 30
0.0
 10
-15.946141221788192
 20
31.420132107204857
 30
0.0
 10
-17.823718261718749
 20
32.067465549045139
 30
0.0
 10
-19.580200195312496
 20
32.983688693576383
 30
0.0
 10
-17.274742296006941
 20
31.692294650607636
 30
0.0
 10
-18.974207899305554
 20
32.713076443142356
 30
0.0
 10
-20.492633734809026
 20
33.982077365451389
 30
0.0
 10
-18.52238362630208
 20
32.228868272569443
 30
0.0
 10
-19.961572265624998
 20
33.589680989583329
 30
0.0
 10
-21.157192654079861
 20
35.16891276041666
 30
0.0
 10
-19.632565646701387
 20
33.013661024305556
 30
0.0
 10
-20.724316406249997
 20
34.667306857638884
 30
0.0
 10
-21.51565483940972
 20
36.483905707465276
 30
0.0
 10
-20.543104383680554
 20
34.028069390190971
 30
0.0
 10
-21.210936143663194
 20
35.895311143663193
 30
0.0
 10
-21.529779730902774
 20
37.855914984809026
 30
0.0
 10
-21.194399685329859
 20
35.232302517361106
 30
0.0
 10
-21.375611707899303
 20
37.20875379774305
 30
0.0
 10
-21.194399685329859
 20
39.183654785156243
 30
0.0
 10
-21.529779730902774
 20
36.559870062934024
 30
0.0
 10
-21.210936143663194
 20
38.518923611111106
 30
0.0
 10
-20.543104383680554
 20
40.387887912326384
 30
0.0
 10
-21.51565483940972
 20
37.930329047309023
 30
0.0
 10
-20.724316406249997
 20
39.748478190104166
 30
0.0
 10
-19.632565646701387
 20
41.400573730468743
 30
0.0
 10
-21.157192654079861
 20
39.246872287326383
 30
0.0
 10
-19.961572265624998
 20
40.82455376519097
 30
0.0
 10
-18.52238362630208
 20
42.187089029947913
 30
0.0
 10
-20.494184027777777
 20
40.43215738932291
 30
0.0
 10
-18.974207899305554
 20
41.701330566406249
 30
0.0
 10
-17.274742296006941
 20
42.721940104166663
 30
0.0
 10
-19.580200195312496
 20
41.428995768229164
 30
0.0
 10
-17.823718261718749
 20
42.346941460503466
 30
0.0
 10
-15.946141221788192
 20
42.995652940538193
 30
0.0
 10
-18.470190429687499
 20
42.204486762152776
 30
0.0
 10
-16.560229492187499
 20
42.744160970052079
 30
0.0
 10
-14.590840657552082
 20
42.997203233506937
 30
0.0
 10
-17.224099392361108
 20
42.732964409722221
 30
0.0
 10
-15.24437527126736
 20
42.875419108072911
 30
0.0
 10
-13.262411838107637
 20
42.732964409722221
 30
0.0
 10
-15.897220865885416
 20
42.997203233506937
 30
0.0
 10
-13.926970757378472
 20
42.744160970052079
 30
0.0
 10
-12.017871093749999
 20
42.204486762152776
 30
0.0
 10
-14.542609320746527
 20
42.995652940538193
 30
0.0
 10
-12.664171006944443
 20
42.346941460503466
 30
0.0
 10
-10.907689073350694
 20
41.428995768229164
 30
0.0
 10
-13.212630208333332
 20
42.723490397135414
 30
0.0
 10
-11.512303331163194
 20
41.701330566406249
 30
0.0
 10
-9.9938774956597207
 20
40.43215738932291
 30
0.0
 10
-11.966366916232637
 20
42.187089029947913
 30
0.0
 10
-10.527178276909721
 20
40.82455376519097
 30
0.0
 10
-9.3300075954861104
 20
39.246872287326383
 30
0.0
 10
-10.856357150607638
 20
41.400573730468743
 30
0.0
 10
-9.7644341362847218
 20
39.750200737847216
 30
0.0
 10
-8.9732679578993046
 20
37.930329047309023
 30
0.0
 10
-9.9456461588541654
 20
40.387887912326384
 30
0.0
 10
-9.2778143988715271
 20
38.518923611111106
 30
0.0
 10
-8.9589708116319429
 20
36.558319769965273
 30
0.0
 10
-9.29280056423611
 20
39.183654785156243
 30
0.0
 10
-9.1108995225694436
 20
37.20875379774305
 30
0.0
  0
CIRCLE
  5
C8
100
AcDbEntity
  8
LIVELLO_1
 62
     7
100
AcDbCircle
 10
-15.244375
 20
37.207979
 30
0.0
 40
5.335161
  0
LINE
  5
C7
100
AcDbEntity
  8
LIVELLO_1
 62
     7
100
AcDbLine
 10
41.420039
 20
49.376142
 30
0.0
 11
41.420039
 21
25.039643
 31
0.0
  0
SPLINE
  5
C6
100
AcDbEntity
  8
LIVELLO_1
 62
     7
100
AcDbSpline
210
0.0
220
0.0
230
1.0
 70
     8
 71
     3
 72
    14
 73
    10
 74
     0
 42
0.00000001
 43
0.00000001
 40
0.0
 40
0.0
 40
0.0
 40
0.0
 40
1.0
 40
1.0
 40
1.0
 40
2.0
 40
2.0
 40
2.0
 40
3.0
 40
3.0
 40
3.0
 40
3.0
 10
-28.578789605034718
 20
4.5330566406249995
 30
0.0
 10
-28.578789605034718
 20
-7.896847873263888
 30
0.0
 10
-28.57723931206597
 20
-3.3458767361111108
 30
0.0
 10
-28.57723931206597
 20
14.701600477430555
 30
0.0
 10
-28.57723931206597
 20
14.701600477430555
 30
0.0
 10
-28.57723931206597
 20
69.88290066189235
 30
0.0
 10
-28.57723931206597
 20
69.88290066189235
 30
0.0
 10
-28.57723931206597
 20
79.21755913628472
 30
0.0
 10
-28.578789605034718
 20
79.21755913628472
 30
0.0
 10
-28.578789605034718
 20
69.88290066189235
 30
0.0
  0
SPLINE
  5
C5
100
AcDbEntity
  8
LIVELLO_1
 62
     7
100
AcDbSpline
210
0.0
220
0.0
230
1.0
 70
     8
 71
     3
 72
    11
 73
     7
 74
     0
 42
0.00000001
 43
0.00000001
 40
0.0
 40
0.0
 40
0.0
 40
0.0
 40
1.0
 40
1.0
 40
1.0
 40
2.0
 40
2.0
 40
2.0
 40
2.0
 10
-26.577878146701387
 20
-2.4690999348958331
 30
0.0
 10
-26.57615559895833
 20
-2.4690999348958331
 30
0.0
 10
-26.57615559895833
 20
15.295190429687498
 30
0.0
 10
-26.57615559895833
 20
37.20875379774305
 30
0.0
 10
-26.57615559895833
 20
59.119044325086797
 30
0.0
 10
-26.57615559895833
 20
76.885057237413193
 30
0.0
 10
-26.577878146701387
 20
76.885057237413193
 30
0.0
  0
SPLINE
  5
C4
100
AcDbEntity
  8
LIVELLO_1
 62
     7
100
AcDbSpline
210
0.0
220
0.0
230
1.0
 70
     8
 71
     3
 72
    17
 73
    13
 74
     0
 42
0.00000001
 43
0.00000001
 40
0.0
 40
0.0
 40
0.0
 40
0.0
 40
1.0
 40
1.0
 40
1.0
 40
2.0
 40
2.0
 40
2.0
 40
3.0
 40
3.0
 40
3.0
 40
4.0
 40
4.0
 40
4.0
 40
4.0
 10
-60.726009114583327
 20
-73.523849826388883
 30
0.0
 10
-58.883916558159719
 20
-73.523849826388883
 30
0.0
 10
-57.390984429253464
 20
-72.031434461805546
 30
0.0
 10
-57.390984429253464
 20
-70.189686414930549
 30
0.0
 10
-57.390984429253464
 20
-68.345871310763883
 30
0.0
 10
-58.883916558159719
 20
-66.8520779079861
 30
0.0
 10
-60.726009114583327
 20
-66.8520779079861
 30
0.0
 10
-62.568618435329853
 20
-66.8520779079861
 30
0.0
 10
-64.062584092881934
 20
-68.345871310763883
 30
0.0
 10
-64.062584092881934
 20
-70.189686414930549
 30
0.0
 10
-64.062584092881934
 20
-72.031434461805546
 30
0.0
 10
-62.568618435329853
 20
-73.523849826388883
 30
0.0
 10
-60.726009114583327
 20
-73.523849826388883
 30
0.0
  0
POLYLINE
  5
BE
100
AcDbEntity
  8
LIVELLO_1
 62
     7
100
AcDb2dPolyline
 66
     1
 10
0.0
 20
0.0
 30
0.0
  0
VERTEX
  5
BF
100
AcDbEntity
  8
LIVELLO_1
 62
     7
100
AcDbVertex
100
AcDb2dVertex
 10
-37.832833
 20
-67.304763
 30
0.0
  0
VERTEX
  5
C0
100
AcDbEntity
  8
LIVELLO_1
 62
     7
100
AcDbVertex
100
AcDb2dVertex
 10
-35.793164
 20
-69.551655
 30
0.0
  0
VERTEX
  5
C1
100
AcDbEntity
  8
LIVELLO_1
 62
     7
100
AcDbVertex
100
AcDb2dVertex
 10
-36.891288
 20
-71.335181
 30
0.0
  0
VERTEX
  5
C2
100
AcDbEntity
  8
LIVELLO_1
 62
     7
100
AcDbVertex
100
AcDb2dVertex
 10
-35.243155
 20
-74.045782
 30
0.0
  0
SEQEND
  5
C3
100
AcDbEntity
  8
LIVELLO_1
 62
     7
  0
SPLINE
  5
BD
100
AcDbEntity
  8
LIVELLO_1
 62
     7
100
AcDbSpline
210
0.0
220
0.0
230
1.0
 70
     8
 71
     3
 72
    26
 73
    22
 74
     0
 42
0.00000001
 43
0.00000001
 40
0.0
 40
0.0
 40
0.0
 40
0.0
 40
1.0
 40
1.0
 40
1.0
 40
2.0
 40
2.0
 40
2.0
 40
3.0
 40
3.0
 40
3.0
 40
4.0
 40
4.0
 40
4.0
 40
5.0
 40
5.0
 40
5.0
 40
6.0
 40
6.0
 40
6.0
 40
7.0
 40
7.0
 40
7.0
 40
7.0
 10
-20.744125705295136
 20
-72.580582682291663
 30
0.0
 10
-23.412868923611111
 20
-73.23101671006944
 30
0.0
 10
-19.859597439236108
 20
-72.34493815104166
 30
0.0
 10
-22.521278211805555
 20
-73.0222439236111
 30
0.0
 10
-25.673368326822914
 20
-73.800490993923603
 30
0.0
 10
-21.463289388020833
 20
-72.791078016493046
 30
0.0
 10
-24.626576063368052
 20
-73.526950412326386
 30
0.0
 10
-28.139712185329859
 20
-74.128119574652771
 30
0.0
 10
-23.443874782986111
 20
-73.395692274305546
 30
0.0
 10
-26.974236382378471
 20
-73.893853081597214
 30
0.0
 10
-30.639990234374999
 20
-74.087122938368054
 30
0.0
 10
-25.749332682291666
 20
-73.914523654513886
 30
0.0
 10
-29.419909667968746
 20
-73.98101399739582
 30
0.0
 10
-32.955094401041663
 20
-73.74847005208332
 30
0.0
 10
-28.246510145399302
 20
-74.121918402777766
 30
0.0
 10
-31.773771158854164
 20
-73.792567274305554
 30
0.0
 10
-34.969441731770829
 20
-73.338503689236106
 30
0.0
 10
-30.711131456163191
 20
-73.966889105902766
 30
0.0
 10
-33.90370144314236
 20
-73.479408094618051
 30
0.0
 10
-36.656332736545139
 20
-73.079087999131943
 30
0.0
 10
-32.981104871961804
 20
-73.586895073784717
 30
0.0
 10
-35.740970865885416
 20
-73.227916124131937
 30
0.0
  0
SPLINE
  5
BC
100
AcDbEntity
  8
LIVELLO_1
 62
     7
100
AcDbSpline
210
0.0
220
0.0
230
1.0
 70
     8
 71
     3
 72
    29
 73
    25
 74
     0
 42
0.00000001
 43
0.00000001
 40
0.0
 40
0.0
 40
0.0
 40
0.0
 40
1.0
 40
1.0
 40
1.0
 40
2.0
 40
2.0
 40
2.0
 40
3.0
 40
3.0
 40
3.0
 40
4.0
 40
4.0
 40
4.0
 40
5.0
 40
5.0
 40
5.0
 40
6.0
 40
6.0
 40
6.0
 40
7.0
 40
7.0
 40
7.0
 40
8.0
 40
8.0
 40
8.0
 40
8.0
 10
-20.744125705295136
 20
-67.894908311631937
 30
0.0
 10
-24.220054796006941
 20
-68.61355523003472
 30
0.0
 10
-19.598459201388888
 20
-67.594495985243043
 30
0.0
 10
-23.054578993055554
 20
-68.404437934027769
 30
0.0
 10
-26.358597819010413
 20
-69.246419270833329
 30
0.0
 10
-21.949220106336803
 20
-68.145022243923606
 30
0.0
 10
-25.260473632812499
 20
-68.955308702256943
 30
0.0
 10
-28.481465657552082
 20
-69.545453559027777
 30
0.0
 10
-24.172512478298607
 20
-68.830251736111109
 30
0.0
 10
-27.41331380208333
 20
-69.314287651909723
 30
0.0
 10
-29.025790744357636
 20
-69.434865993923609
 30
0.0
 10
-26.873639594184024
 20
-69.297062174479166
 30
0.0
 10
-28.489389377170138
 20
-69.382500542534714
 30
0.0
 10
-30.116163465711804
 20
-69.382500542534714
 30
0.0
 10
-27.946614583333332
 20
-69.404549153645831
 30
0.0
 10
-29.573388671874998
 20
-69.372854275173609
 30
0.0
 10
-32.916164822048607
 20
-69.081743706597223
 30
0.0
 10
-28.464929199218748
 20
-69.529606119791666
 30
0.0
 10
-31.798231336805554
 20
-69.148234049479157
 30
0.0
 10
-35.324631076388883
 20
-68.60873209635416
 30
0.0
 10
-30.623281521267359
 20
-69.328757052951389
 30
0.0
 10
-34.149681260850691
 20
-68.788910590277766
 30
0.0
 10
-37.950827365451389
 20
-68.385489908854154
 30
0.0
 10
-32.875857204861106
 20
-68.833352322048611
 30
0.0
 10
-36.687166341145833
 20
-68.566012912326386
 30
0.0
  0
ELLIPSE
  5
BB
100
AcDbEntity
  8
LIVELLO_1
 62
     7
100
AcDbEllipse
 10
-60.679328
 20
-70.192615
 30
0.0
 11
3.3271009657118054
 21
-0.0001722547743056
 31
0.0
210
0.0
220
0.0
230
1.0
 40
0.987367
 41
0.0
 42
6.2831853071795862
  0
SPLINE
  5
BA
100
AcDbEntity
  8
LIVELLO_1
 62
     7
100
AcDbSpline
210
0.0
220
0.0
230
1.0
 70
     8
 71
     3
 72
    17
 73
    13
 74
     0
 42
0.00000001
 43
0.00000001
 40
0.0
 40
0.0
 40
0.0
 40
0.0
 40
1.0
 40
1.0
 40
1.0
 40
2.0
 40
2.0
 40
2.0
 40
3.0
 40
3.0
 40
3.0
 40
4.0
 40
4.0
 40
4.0
 40
4.0
 10
-60.726009114583327
 20
-72.857568359374994
 30
0.0
 10
-59.25271402994791
 20
-72.857568359374994
 30
0.0
 10
-58.057093641493047
 20
-71.66280924479166
 30
0.0
 10
-58.057093641493047
 20
-70.189686414930549
 30
0.0
 10
-58.057093641493047
 20
-68.716219075520826
 30
0.0
 10
-59.25271402994791
 20
-67.520081922743046
 30
0.0
 10
-60.726009114583327
 20
-67.520081922743046
 30
0.0
 10
-62.200854492187496
 20
-67.520081922743046
 30
0.0
 10
-63.396302625868053
 20
-68.716219075520826
 30
0.0
 10
-63.396302625868053
 20
-70.189686414930549
 30
0.0
 10
-63.396302625868053
 20
-71.66280924479166
 30
0.0
 10
-62.200854492187496
 20
-72.857568359374994
 30
0.0
 10
-60.726009114583327
 20
-72.857568359374994
 30
0.0
  0
LINE
  5
B9
100
AcDbEntity
  8
LIVELLO_1
 62
     7
100
AcDbLine
 10
-38.576629
 20
76.885057
 30
0.0
 11
-38.576629
 21
-2.464621
 31
0.0
  0
POLYLINE
  5
B3
100
AcDbEntity
  8
LIVELLO_1
 62
     7
100
AcDb2dPolyline
 66
     1
 10
0.0
 20
0.0
 30
0.0
  0
VERTEX
  5
B4
100
AcDbEntity
  8
LIVELLO_1
 62
     7
100
AcDbVertex
100
AcDb2dVertex
 10
-38.576629
 20
-2.464621
 30
0.0
  0
VERTEX
  5
B5
100
AcDbEntity
  8
LIVELLO_1
 62
     7
100
AcDbVertex
100
AcDb2dVertex
 10
-38.827432
 20
-1.06419
 30
0.0
  0
VERTEX
  5
B6
100
AcDbEntity
  8
LIVELLO_1
 62
     7
100
AcDbVertex
100
AcDb2dVertex
 10
-38.324276
 20
-1.06419
 30
0.0
  0
VERTEX
  5
B7
100
AcDbEntity
  8
LIVELLO_1
 62
     7
100
AcDbVertex
100
AcDb2dVertex
 10
-38.576629
 20
-2.464621
 30
0.0
  0
SEQEND
  5
B8
100
AcDbEntity
  8
LIVELLO_1
 62
     7
  0
POLYLINE
  5
AD
100
AcDbEntity
  8
LIVELLO_1
 62
     7
100
AcDb2dPolyline
 66
     1
 10
0.0
 20
0.0
 30
0.0
  0
VERTEX
  5
AE
100
AcDbEntity
  8
LIVELLO_1
 62
     7
100
AcDbVertex
100
AcDb2dVertex
 10
-38.576629
 20
76.885057
 30
0.0
  0
VERTEX
  5
AF
100
AcDbEntity
  8
LIVELLO_1
 62
     7
100
AcDbVertex
100
AcDb2dVertex
 10
-38.324276
 20
75.484626
 30
0.0
  0
VERTEX
  5
B0
100
AcDbEntity
  8
LIVELLO_1
 62
     7
100
AcDbVertex
100
AcDb2dVertex
 10
-38.827432
 20
75.484626
 30
0.0
  0
VERTEX
  5
B1
100
AcDbEntity
  8
LIVELLO_1
 62
     7
100
AcDbVertex
100
AcDb2dVertex
 10
-38.576629
 20
76.885057
 30
0.0
  0
SEQEND
  5
B2
100
AcDbEntity
  8
LIVELLO_1
 62
     7
  0
LINE
  5
AC
100
AcDbEntity
  8
LIVELLO_1
 62
     7
100
AcDbLine
 10
-28.844579
 20
76.885057
 30
0.0
 11
-39.351259
 21
76.885057
 31
0.0
  0
CIRCLE
  5
AB
100
AcDbEntity
  8
LIVELLO_1
 62
     7
100
AcDbCircle
 10
-60.679328
 20
-70.134909
 30
0.0
 40
2.667193
  0
MTEXT
  5
AA
100
AcDbEntity
  8
LIVELLO_1
 62
     7
100
AcDbMText
 10
-58.87427
 20
43.536159
 30
0.0
 40
7.451367
 41
0.0
 71
     1
 72
     2
  1
\fArial Narrow|b0|i0;\H7.4514;\W0.94;\C7;\U+00D8\U+0031
  7
STD
210
0.0
220
0.0
230
1.0
 73
     1
 44
1.0
  0
MTEXT
  5
A9
100
AcDbEntity
  8
LIVELLO_1
 62
     7
100
AcDbMText
 10
-49.139119
 20
43.536159
 30
0.0
 40
7.451367
 41
0.0
 71
     1
 72
     2
  1
\fArial Narrow|b0|i0;\H7.4514;\W0.94;\C7;\U+0031\U+0039
  7
STD
210
0.0
220
0.0
230
1.0
 73
     1
 44
1.0
  0
LINE
  5
A8
100
AcDbEntity
  8
LIVELLO_1
 62
     7
100
AcDbLine
 10
-28.547956
 20
85.33536
 30
0.0
 11
41.420039
 21
85.33536
 31
0.0
  0
POLYLINE
  5
A2
100
AcDbEntity
  8
LIVELLO_1
 62
     7
100
AcDb2dPolyline
 66
     1
 10
0.0
 20
0.0
 30
0.0
  0
VERTEX
  5
A3
100
AcDbEntity
  8
LIVELLO_1
 62
     7
100
AcDbVertex
100
AcDb2dVertex
 10
41.420039
 20
85.33536
 30
0.0
  0
VERTEX
  5
A4
100
AcDbEntity
  8
LIVELLO_1
 62
     7
100
AcDbVertex
100
AcDb2dVertex
 10
40.019607
 20
85.082145
 30
0.0
  0
VERTEX
  5
A5
100
AcDbEntity
  8
LIVELLO_1
 62
     7
100
AcDbVertex
100
AcDb2dVertex
 10
40.019607
 20
85.585301
 30
0.0
  0
VERTEX
  5
A6
100
AcDbEntity
  8
LIVELLO_1
 62
     7
100
AcDbVertex
100
AcDb2dVertex
 10
41.420039
 20
85.33536
 30
0.0
  0
SEQEND
  5
A7
100
AcDbEntity
  8
LIVELLO_1
 62
     7
  0
POLYLINE
  5
9C
100
AcDbEntity
  8
LIVELLO_1
 62
     7
100
AcDb2dPolyline
 66
     1
 10
0.0
 20
0.0
 30
0.0
  0
VERTEX
  5
9D
100
AcDbEntity
  8
LIVELLO_1
 62
     7
100
AcDbVertex
100
AcDb2dVertex
 10
-28.547956
 20
85.33536
 30
0.0
  0
VERTEX
  5
9E
100
AcDbEntity
  8
LIVELLO_1
 62
     7
100
AcDbVertex
100
AcDb2dVertex
 10
-27.149075
 20
85.585301
 30
0.0
  0
VERTEX
  5
9F
100
AcDbEntity
  8
LIVELLO_1
 62
     7
100
AcDbVertex
100
AcDb2dVertex
 10
-27.149075
 20
85.082145
 30
0.0
  0
VERTEX
  5
A0
100
AcDbEntity
  8
LIVELLO_1
 62
     7
100
AcDbVertex
100
AcDb2dVertex
 10
-28.547956
 20
85.33536
 30
0.0
  0
SEQEND
  5
A1
100
AcDbEntity
  8
LIVELLO_1
 62
     7
  0
LINE
  5
9B
100
AcDbEntity
  8
LIVELLO_1
 62
     7
100
AcDbLine
 10
-28.547956
 20
79.393259
 30
0.0
 11
-28.547956
 21
86.110678
 31
0.0
  0
LINE
  5
9A
100
AcDbEntity
  8
LIVELLO_1
 62
     7
100
AcDbLine
 10
-28.748977
 20
-2.412256
 30
0.0
 11
-39.275294
 21
-2.412256
 31
0.0
  0
MTEXT
  5
99
100
AcDbEntity
  8
LIVELLO_1
 62
     7
100
AcDbMText
 10
-1.605931
 20
93.618718
 30
0.0
 40
7.451367
 41
0.0
 71
     1
 72
     2
  1
\fArial Narrow|b0|i0;\H7.4514;\W0.94;\C7;\U+0031\U+0030\U+0035
  7
STD
210
0.0
220
0.0
230
1.0
 73
     1
 44
1.0
  0
LINE
  5
98
100
AcDbEntity
  8
LIVELLO_1
 62
     7
100
AcDbLine
 10
-28.53297
 20
-11.951036
 30
0.0
 11
-15.205618
 21
-11.951036
 31
0.0
  0
POLYLINE
  5
92
100
AcDbEntity
  8
LIVELLO_1
 62
     7
100
AcDb2dPolyline
 66
     1
 10
0.0
 20
0.0
 30
0.0
  0
VERTEX
  5
93
100
AcDbEntity
  8
LIVELLO_1
 62
     7
100
AcDbVertex
100
AcDb2dVertex
 10
-15.205618
 20
-11.951036
 30
0.0
  0
VERTEX
  5
94
100
AcDbEntity
  8
LIVELLO_1
 62
     7
100
AcDbVertex
100
AcDb2dVertex
 10
-16.60536
 20
-12.204251
 30
0.0
  0
VERTEX
  5
95
100
AcDbEntity
  8
LIVELLO_1
 62
     7
100
AcDbVertex
100
AcDb2dVertex
 10
-16.60536
 20
-11.699544
 30
0.0
  0
VERTEX
  5
96
100
AcDbEntity
  8
LIVELLO_1
 62
     7
100
AcDbVertex
100
AcDb2dVertex
 10
-15.205618
 20
-11.951036
 30
0.0
  0
SEQEND
  5
97
100
AcDbEntity
  8
LIVELLO_1
 62
     7
  0
POLYLINE
  5
8C
100
AcDbEntity
  8
LIVELLO_1
 62
     7
100
AcDb2dPolyline
 66
     1
 10
0.0
 20
0.0
 30
0.0
  0
VERTEX
  5
8D
100
AcDbEntity
  8
LIVELLO_1
 62
     7
100
AcDbVertex
100
AcDb2dVertex
 10
-28.53297
 20
-11.951036
 30
0.0
  0
VERTEX
  5
8E
100
AcDbEntity
  8
LIVELLO_1
 62
     7
100
AcDbVertex
100
AcDb2dVertex
 10
-27.134778
 20
-11.699544
 30
0.0
  0
VERTEX
  5
8F
100
AcDbEntity
  8
LIVELLO_1
 62
     7
100
AcDbVertex
100
AcDb2dVertex
 10
-27.134778
 20
-12.204251
 30
0.0
  0
VERTEX
  5
90
100
AcDbEntity
  8
LIVELLO_1
 62
     7
100
AcDbVertex
100
AcDb2dVertex
 10
-28.53297
 20
-11.951036
 30
0.0
  0
SEQEND
  5
91
100
AcDbEntity
  8
LIVELLO_1
 62
     7
  0
LINE
  5
8B
100
AcDbEntity
  8
LIVELLO_1
 62
     7
100
AcDbLine
 10
-28.53297
 20
-2.624474
 30
0.0
 11
-28.53297
 21
-12.729628
 31
0.0
  0
LINE
  5
8A
100
AcDbEntity
  8
LIVELLO_1
 62
     7
100
AcDbLine
 10
44.392122
 20
49.39664
 30
0.0
 11
52.800222
 21
49.39664
 31
0.0
  0
LINE
  5
89
100
AcDbEntity
  8
LIVELLO_1
 62
     7
100
AcDbLine
 10
52.024042
 20
25.07306
 30
0.0
 11
52.022664
 21
49.39664
 31
0.0
  0
POLYLINE
  5
83
100
AcDbEntity
  8
LIVELLO_1
 62
     7
100
AcDb2dPolyline
 66
     1
 10
0.0
 20
0.0
 30
0.0
  0
VERTEX
  5
84
100
AcDbEntity
  8
LIVELLO_1
 62
     7
100
AcDbVertex
100
AcDb2dVertex
 10
52.022664
 20
49.39664
 30
0.0
  0
VERTEX
  5
85
100
AcDbEntity
  8
LIVELLO_1
 62
     7
100
AcDbVertex
100
AcDb2dVertex
 10
52.273467
 20
47.997759
 30
0.0
  0
VERTEX
  5
86
100
AcDbEntity
  8
LIVELLO_1
 62
     7
100
AcDbVertex
100
AcDb2dVertex
 10
51.76945
 20
47.997759
 30
0.0
  0
VERTEX
  5
87
100
AcDbEntity
  8
LIVELLO_1
 62
     7
100
AcDbVertex
100
AcDb2dVertex
 10
52.022664
 20
49.39664
 30
0.0
  0
SEQEND
  5
88
100
AcDbEntity
  8
LIVELLO_1
 62
     7
  0
POLYLINE
  5
7D
100
AcDbEntity
  8
LIVELLO_1
 62
     7
100
AcDb2dPolyline
 66
     1
 10
0.0
 20
0.0
 30
0.0
  0
VERTEX
  5
7E
100
AcDbEntity
  8
LIVELLO_1
 62
     7
100
AcDbVertex
100
AcDb2dVertex
 10
52.024042
 20
25.07306
 30
0.0
  0
VERTEX
  5
7F
100
AcDbEntity
  8
LIVELLO_1
 62
     7
100
AcDbVertex
100
AcDb2dVertex
 10
51.76945
 20
26.471769
 30
0.0
  0
VERTEX
  5
80
100
AcDbEntity
  8
LIVELLO_1
 62
     7
100
AcDbVertex
100
AcDb2dVertex
 10
52.274845
 20
26.471769
 30
0.0
  0
VERTEX
  5
81
100
AcDbEntity
  8
LIVELLO_1
 62
     7
100
AcDbVertex
100
AcDb2dVertex
 10
52.024042
 20
25.07306
 30
0.0
  0
SEQEND
  5
82
100
AcDbEntity
  8
LIVELLO_1
 62
     7
  0
LINE
  5
7C
100
AcDbEntity
  8
LIVELLO_1
 62
     7
100
AcDbLine
 10
44.392122
 20
25.071338
 30
0.0
 11
52.800222
 21
25.07306
 31
0.0
  0
LINE
  5
7B
100
AcDbEntity
  8
LIVELLO_1
 62
     7
100
AcDbLine
 10
41.434508
 20
51.893646
 30
0.0
 11
41.434508
 21
86.110678
 31
0.0
  0
MTEXT
  5
7A
100
AcDbEntity
  8
LIVELLO_1
 62
     7
100
AcDbMText
 10
-24.515644
 20
-3.776888
 30
0.0
 40
7.451367
 41
0.0
 71
     1
 72
     2
  1
\fArial Narrow|b0|i0;\H7.4514;\W0.94;\C7;\U+0032\U+0030
  7
STD
210
0.0
220
0.0
230
1.0
 73
     1
 44
1.0
  0
POLYLINE
  5
74
100
AcDbEntity
  8
LIVELLO_1
 62
     7
100
AcDb2dPolyline
 66
     1
 10
0.0
 20
0.0
 30
0.0
  0
VERTEX
  5
75
100
AcDbEntity
  8
LIVELLO_1
 62
     7
100
AcDbVertex
100
AcDb2dVertex
 10
37.567044
 20
-46.198386
 30
0.0
  0
VERTEX
  5
76
100
AcDbEntity
  8
LIVELLO_1
 62
     7
100
AcDbVertex
100
AcDb2dVertex
 10
39.665107
 20
-46.198386
 30
0.0
  0
VERTEX
  5
77
100
AcDbEntity
  8
LIVELLO_1
 62
     7
100
AcDbVertex
100
AcDb2dVertex
 10
41.330811
 20
-46.198386
 30
0.0
  0
VERTEX
  5
78
100
AcDbEntity
  8
LIVELLO_1
 62
     7
100
AcDbVertex
100
AcDb2dVertex
 10
52.756125
 20
-46.198386
 30
0.0
  0
SEQEND
  5
79
100
AcDbEntity
  8
LIVELLO_1
 62
     7
  0
POLYLINE
  5
6E
100
AcDbEntity
  8
LIVELLO_1
 62
     7
100
AcDb2dPolyline
 66
     1
 10
0.0
 20
0.0
 30
0.0
  0
VERTEX
  5
6F
100
AcDbEntity
  8
LIVELLO_1
 62
     7
100
AcDbVertex
100
AcDb2dVertex
 10
41.330811
 20
-46.198386
 30
0.0
  0
VERTEX
  5
70
100
AcDbEntity
  8
LIVELLO_1
 62
     7
100
AcDbVertex
100
AcDb2dVertex
 10
42.731242
 20
-45.948272
 30
0.0
  0
VERTEX
  5
71
100
AcDbEntity
  8
LIVELLO_1
 62
     7
100
AcDbVertex
100
AcDb2dVertex
 10
42.731242
 20
-46.449878
 30
0.0
  0
VERTEX
  5
72
100
AcDbEntity
  8
LIVELLO_1
 62
     7
100
AcDbVertex
100
AcDb2dVertex
 10
41.330811
 20
-46.198386
 30
0.0
  0
SEQEND
  5
73
100
AcDbEntity
  8
LIVELLO_1
 62
     7
  0
POLYLINE
  5
68
100
AcDbEntity
  8
LIVELLO_1
 62
     7
100
AcDb2dPolyline
 66
     1
 10
0.0
 20
0.0
 30
0.0
  0
VERTEX
  5
69
100
AcDbEntity
  8
LIVELLO_1
 62
     7
100
AcDbVertex
100
AcDb2dVertex
 10
39.665107
 20
-46.198386
 30
0.0
  0
VERTEX
  5
6A
100
AcDbEntity
  8
LIVELLO_1
 62
     7
100
AcDbVertex
100
AcDb2dVertex
 10
38.264676
 20
-46.449878
 30
0.0
  0
VERTEX
  5
6B
100
AcDbEntity
  8
LIVELLO_1
 62
     7
100
AcDbVertex
100
AcDb2dVertex
 10
38.264676
 20
-45.948272
 30
0.0
  0
VERTEX
  5
6C
100
AcDbEntity
  8
LIVELLO_1
 62
     7
100
AcDbVertex
100
AcDb2dVertex
 10
39.665107
 20
-46.198386
 30
0.0
  0
SEQEND
  5
6D
100
AcDbEntity
  8
LIVELLO_1
 62
     7
  0
LINE
  5
67
100
AcDbEntity
  8
LIVELLO_1
 62
     7
100
AcDbLine
 10
39.665107
 20
-55.23246
 30
0.0
 11
39.665107
 21
-45.421172
 31
0.0
  0
LINE
  5
66
100
AcDbEntity
  8
LIVELLO_1
 62
     7
100
AcDbLine
 10
43.079541
 20
-83.48052
 30
0.0
 11
47.951595
 21
-83.48052
 31
0.0
  0
LINE
  5
65
100
AcDbEntity
  8
LIVELLO_1
 62
     7
100
AcDbLine
 10
47.174037
 20
-56.809969
 30
0.0
 11
47.174037
 21
-83.48052
 31
0.0
  0
POLYLINE
  5
5F
100
AcDbEntity
  8
LIVELLO_1
 62
     7
100
AcDb2dPolyline
 66
     1
 10
0.0
 20
0.0
 30
0.0
  0
VERTEX
  5
60
100
AcDbEntity
  8
LIVELLO_1
 62
     7
100
AcDbVertex
100
AcDb2dVertex
 10
47.174037
 20
-83.48052
 30
0.0
  0
VERTEX
  5
61
100
AcDbEntity
  8
LIVELLO_1
 62
     7
100
AcDbVertex
100
AcDb2dVertex
 10
46.923234
 20
-82.080089
 30
0.0
  0
VERTEX
  5
62
100
AcDbEntity
  8
LIVELLO_1
 62
     7
100
AcDbVertex
100
AcDb2dVertex
 10
47.427252
 20
-82.080089
 30
0.0
  0
VERTEX
  5
63
100
AcDbEntity
  8
LIVELLO_1
 62
     7
100
AcDbVertex
100
AcDb2dVertex
 10
47.174037
 20
-83.48052
 30
0.0
  0
SEQEND
  5
64
100
AcDbEntity
  8
LIVELLO_1
 62
     7
  0
POLYLINE
  5
59
100
AcDbEntity
  8
LIVELLO_1
 62
     7
100
AcDb2dPolyline
 66
     1
 10
0.0
 20
0.0
 30
0.0
  0
VERTEX
  5
5A
100
AcDbEntity
  8
LIVELLO_1
 62
     7
100
AcDbVertex
100
AcDb2dVertex
 10
47.174037
 20
-56.809969
 30
0.0
  0
VERTEX
  5
5B
100
AcDbEntity
  8
LIVELLO_1
 62
     7
100
AcDbVertex
100
AcDb2dVertex
 10
47.427252
 20
-58.2104
 30
0.0
  0
VERTEX
  5
5C
100
AcDbEntity
  8
LIVELLO_1
 62
     7
100
AcDbVertex
100
AcDb2dVertex
 10
46.923234
 20
-58.2104
 30
0.0
  0
VERTEX
  5
5D
100
AcDbEntity
  8
LIVELLO_1
 62
     7
100
AcDbVertex
100
AcDb2dVertex
 10
47.174037
 20
-56.809969
 30
0.0
  0
SEQEND
  5
5E
100
AcDbEntity
  8
LIVELLO_1
 62
     7
  0
LINE
  5
58
100
AcDbEntity
  8
LIVELLO_1
 62
     7
100
AcDbLine
 10
44.916466
 20
-56.809969
 30
0.0
 11
47.951595
 21
-56.809969
 31
0.0
  0
LINE
  5
57
100
AcDbEntity
  8
LIVELLO_1
 62
     7
100
AcDbLine
 10
-18.505847
 20
33.012111
 30
0.0
 11
-19.115801
 21
33.494769
 31
0.0
  0
POLYLINE
  5
51
100
AcDbEntity
  8
LIVELLO_1
 62
     7
100
AcDb2dPolyline
 66
     1
 10
0.0
 20
0.0
 30
0.0
  0
VERTEX
  5
52
100
AcDbEntity
  8
LIVELLO_1
 62
     7
100
AcDbVertex
100
AcDb2dVertex
 10
-5.855801
 20
48.972549
 30
0.0
  0
VERTEX
  5
53
100
AcDbEntity
  8
LIVELLO_1
 62
     7
100
AcDbVertex
100
AcDb2dVertex
 10
-11.88179
 20
41.370601
 30
0.0
  0
VERTEX
  5
54
100
AcDbEntity
  8
LIVELLO_1
 62
     7
100
AcDbVertex
100
AcDb2dVertex
 10
-18.505847
 20
33.012111
 30
0.0
  0
VERTEX
  5
55
100
AcDbEntity
  8
LIVELLO_1
 62
     7
100
AcDbVertex
100
AcDb2dVertex
 10
-19.810505
 20
31.364838
 30
0.0
  0
SEQEND
  5
56
100
AcDbEntity
  8
LIVELLO_1
 62
     7
  0
POLYLINE
  5
4B
100
AcDbEntity
  8
LIVELLO_1
 62
     7
100
AcDb2dPolyline
 66
     1
 10
0.0
 20
0.0
 30
0.0
  0
VERTEX
  5
4C
100
AcDbEntity
  8
LIVELLO_1
 62
     7
100
AcDbVertex
100
AcDb2dVertex
 10
-18.505847
 20
33.012111
 30
0.0
  0
VERTEX
  5
4D
100
AcDbEntity
  8
LIVELLO_1
 62
     7
100
AcDbVertex
100
AcDb2dVertex
 10
-19.17833
 20
31.757235
 30
0.0
  0
VERTEX
  5
4E
100
AcDbEntity
  8
LIVELLO_1
 62
     7
100
AcDbVertex
100
AcDb2dVertex
 10
-19.573999
 20
32.070566
 30
0.0
  0
VERTEX
  5
4F
100
AcDbEntity
  8
LIVELLO_1
 62
     7
100
AcDbVertex
100
AcDb2dVertex
 10
-18.505847
 20
33.012111
 30
0.0
  0
SEQEND
  5
50
100
AcDbEntity
  8
LIVELLO_1
 62
     7
  0
POLYLINE
  5
45
100
AcDbEntity
  8
LIVELLO_1
 62
     7
100
AcDb2dPolyline
 66
     1
 10
0.0
 20
0.0
 30
0.0
  0
VERTEX
  5
46
100
AcDbEntity
  8
LIVELLO_1
 62
     7
100
AcDbVertex
100
AcDb2dVertex
 10
-11.88179
 20
41.370601
 30
0.0
  0
VERTEX
  5
47
100
AcDbEntity
  8
LIVELLO_1
 62
     7
100
AcDbVertex
100
AcDb2dVertex
 10
-11.210857
 20
42.622205
 30
0.0
  0
VERTEX
  5
48
100
AcDbEntity
  8
LIVELLO_1
 62
     7
100
AcDbVertex
100
AcDb2dVertex
 10
-10.81605
 20
42.308873
 30
0.0
  0
VERTEX
  5
49
100
AcDbEntity
  8
LIVELLO_1
 62
     7
100
AcDbVertex
100
AcDb2dVertex
 10
-11.88179
 20
41.370601
 30
0.0
  0
SEQEND
  5
4A
100
AcDbEntity
  8
LIVELLO_1
 62
     7
  0
LINE
  5
44
100
AcDbEntity
  8
LIVELLO_1
 62
     7
100
AcDbLine
 10
-11.88179
 20
41.370601
 30
0.0
 11
-12.491055
 21
41.853087
 31
0.0
  0
LINE
  5
43
100
AcDbEntity
  8
LIVELLO_1
 62
     7
100
AcDbLine
 10
-15.193732
 20
36.990335
 30
0.0
 11
-15.193732
 21
-12.788194
 31
0.0
  0
MTEXT
  5
42
100
AcDbEntity
  8
LIVELLO_1
 62
     7
100
AcDbMText
 10
44.457579
 20
-37.993921
 30
0.0
 40
7.451367
 41
0.0
 71
     1
 72
     2
  1
\fArial Narrow|b0|i0;\H7.4514;\W0.94;\C7;\U+0032\U+002E
  7
STD
210
0.0
220
0.0
230
1.0
 73
     1
 44
1.0
  0
MTEXT
  5
41
100
AcDbEntity
  8
LIVELLO_1
 62
     7
100
AcDbMText
 10
50.898874
 20
-37.993921
 30
0.0
 40
7.451367
 41
0.0
 71
     1
 72
     2
  1
\fArial Narrow|b0|i0;\H7.4514;\W0.94;\C7;\U+0035
  7
STD
210
0.0
220
0.0
230
1.0
 73
     1
 44
1.0
  0
LINE
  5
40
100
AcDbEntity
  8
LIVELLO_1
 62
     7
100
AcDbLine
 10
41.314963
 20
-92.413308
 30
0.0
 11
-7.287927
 21
-92.413308
 31
0.0
  0
POLYLINE
  5
3A
100
AcDbEntity
  8
LIVELLO_1
 62
     7
100
AcDb2dPolyline
 66
     1
 10
0.0
 20
0.0
 30
0.0
  0
VERTEX
  5
3B
100
AcDbEntity
  8
LIVELLO_1
 62
     7
100
AcDbVertex
100
AcDb2dVertex
 10
-7.287927
 20
-92.413308
 30
0.0
  0
VERTEX
  5
3C
100
AcDbEntity
  8
LIVELLO_1
 62
     7
100
AcDbVertex
100
AcDb2dVertex
 10
-5.889907
 20
-92.161472
 30
0.0
  0
VERTEX
  5
3D
100
AcDbEntity
  8
LIVELLO_1
 62
     7
100
AcDbVertex
100
AcDb2dVertex
 10
-5.889907
 20
-92.6648
 30
0.0
  0
VERTEX
  5
3E
100
AcDbEntity
  8
LIVELLO_1
 62
     7
100
AcDbVertex
100
AcDb2dVertex
 10
-7.287927
 20
-92.413308
 30
0.0
  0
SEQEND
  5
3F
100
AcDbEntity
  8
LIVELLO_1
 62
     7
  0
POLYLINE
  5
34
100
AcDbEntity
  8
LIVELLO_1
 62
     7
100
AcDb2dPolyline
 66
     1
 10
0.0
 20
0.0
 30
0.0
  0
VERTEX
  5
35
100
AcDbEntity
  8
LIVELLO_1
 62
     7
100
AcDbVertex
100
AcDb2dVertex
 10
41.314963
 20
-92.413308
 30
0.0
  0
VERTEX
  5
36
100
AcDbEntity
  8
LIVELLO_1
 62
     7
100
AcDbVertex
100
AcDb2dVertex
 10
39.916254
 20
-92.6648
 30
0.0
  0
VERTEX
  5
37
100
AcDbEntity
  8
LIVELLO_1
 62
     7
100
AcDbVertex
100
AcDb2dVertex
 10
39.916254
 20
-92.161472
 30
0.0
  0
VERTEX
  5
38
100
AcDbEntity
  8
LIVELLO_1
 62
     7
100
AcDbVertex
100
AcDb2dVertex
 10
41.314963
 20
-92.413308
 30
0.0
  0
SEQEND
  5
39
100
AcDbEntity
  8
LIVELLO_1
 62
     7
  0
LINE
  5
33
100
AcDbEntity
  8
LIVELLO_1
 62
     7
100
AcDbLine
 10
41.314963
 20
-86.105683
 30
0.0
 11
41.314963
 21
-93.188455
 31
0.0
  0
LINE
  5
32
100
AcDbEntity
  8
LIVELLO_1
 62
     7
100
AcDbLine
 10
41.314963
 20
-55.186296
 30
0.0
 11
41.314963
 21
-45.498687
 31
0.0
  0
MTEXT
  5
31
100
AcDbEntity
  8
LIVELLO_1
 62
     7
100
AcDbMText
 10
10.301008
 20
-84.237437
 30
0.0
 40
7.451367
 41
0.0
 71
     1
 72
     2
  1
\fArial Narrow|b0|i0;\H7.4514;\W0.94;\C7;\U+0037\U+0033
  7
STD
210
0.0
220
0.0
230
1.0
 73
     1
 44
1.0
  0
LINE
  5
30
100
AcDbEntity
  8
LIVELLO_1
 62
     7
100
AcDbLine
 10
-7.343393
 20
-83.252455
 30
0.0
 11
-7.343393
 21
-93.188455
 31
0.0
  0
MTEXT
  5
2F
100
AcDbEntity
  8
LIVELLO_1
 62
     7
100
AcDbMText
 10
-7.026617
 20
50.114396
 30
0.0
 40
7.451367
 41
0.0
 71
     1
 72
     2
  1
\fArial Narrow|b0|i0;\H7.4514;\W0.94;\C7;\U+0031\U+0036
  7
STD
210
0.0
220
0.0
230
1.0
 73
     1
 44
1.0
  0
MTEXT
  5
2E
100
AcDbEntity
  8
LIVELLO_1
 62
     7
100
AcDbMText
 10
53.223625
 20
44.20244
 30
0.0
 40
7.451367
 41
0.0
 71
     1
 72
     2
  1
\fArial Narrow|b0|i0;\H7.4514;\W0.94;\C7;\U+00D8\U+0033\U+0036\U+002C
  7
STD
210
0.0
220
0.0
230
1.0
 73
     1
 44
1.0
  0
MTEXT
  5
2D
100
AcDbEntity
  8
LIVELLO_1
 62
     7
100
AcDbMText
 10
69.966444
 20
44.20244
 30
0.0
 40
7.451367
 41
0.0
 71
     1
 72
     2
  1
\fArial Narrow|b0|i0;\H7.4514;\W0.94;\C7;\U+0035
  7
STD
210
0.0
220
0.0
230
1.0
 73
     1
 44
1.0
  0
MTEXT
  5
2C
100
AcDbEntity
  8
LIVELLO_1
 62
     7
100
AcDbMText
 10
48.558621
 20
-63.678486
 30
0.0
 40
7.451367
 41
0.0
 71
     1
 72
     2
  1
\fArial Narrow|b0|i0;\H7.4514;\W0.94;\C7;\U+00D8\U+0034\U+0030
  7
STD
210
0.0
220
0.0
230
1.0
 73
     1
 44
1.0
  0
ENDBLK
  5
128
100
AcDbEntity
  8
LIVELLO_1
100
AcDbBlockEnd
  0
ENDSEC
  0
SECTION
  2
ENTITIES
  0
INSERT
  5
2A
100
AcDbEntity
  8
LIVELLO_1
 62
     7
100
AcDbBlockReference
  2
AI9-BLK1
 10
82.409096
 20
118.456163
 30
0.0
  0
ENDSEC
  0
SECTION
  2
OBJECTS
  0
DICTIONARY
  5
19
100
AcDbDictionary
280
     0
281
     1
  3
ACAD_GROUP
350
1A
  3
ACAD_MLINESTYLE
350
1B
  3
ACAD_LAYOUT
350
1E
  3
ACAD_PLOTSETTINGS
350
22
  3
ACAD_PLOTSTYLENAME
350
1F
  3
ACAD_WIPEOUT_VARS
350
23
  0
DICTIONARY
  5
1A
102
{ACAD_REACTORS
330
19
102
}
100
AcDbDictionary
280
     0
281
     1
  0
DICTIONARY
  5
1B
102
{ACAD_REACTORS
330
19
102
}
100
AcDbDictionary
280
     0
281
     1
  3
Standard
350
1C
  0
MLINESTYLE
  5
1C
102
{ACAD_REACTORS
330
1B
102
}
100
AcDbMlineStyle
  2
Standard
 70
     0
  3

 62
     0
 51
90.0
 52
90.0
 71
     2
 49
0.5
 62
   256
  6
ByLayer
 49
-0.5
 62
   256
  6
ByLayer
  0
ACDBDICTIONARYWDFLT
  5
1F
102
{ACAD_REACTORS
330
19
102
}
100
AcDbDictionary
281
     1
  3
Normal
350
1D
100
AcDbDictionaryWithDefault
340
1D
  0
ACDBPLACEHOLDER
  5
1D
102
{ACAD_REACTORS
330
1F
102
}
  0
LAYOUT
  5
20
102
{ACAD_REACTORS
330
1E
102
}
100
AcDbPlotSettings
  1

  2

  4

  6

 40
0.0
 41
0.0
 42
0.0
 43
0.0
 44
0.0
 45
0.0
 46
0.0
 47
0.0
 48
0.0
 49
0.0
140
0.0
141
0.0
142
1.0
143
1.0
 70
  1024
 72
     0
 73
     0
 74
     0
  7

 75
     0
147
1.0
148
0.0
149
0.0
100
AcDbLayout
  1
Model
 70
     0
 71
     0
 10
0.0
 20
0.0
 11
0.0
 21
0.0
 12
0.0
 22
0.0
 32
0.0
 14
0.0
 24
0.0
 34
0.0
 15
0.0
 25
0.0
 35
0.0
146
0.0
 13
0.0
 23
0.0
 33
0.0
 16
0.0
 26
0.0
 36
0.0
 17
0.0
 27
0.0
 37
0.0
 76
     0
330
A
331
0
345
0
346
0
  0
LAYOUT
  5
21
102
{ACAD_REACTORS
330
1E
102
}
100
AcDbPlotSettings
  1

  2

  4

  6

 40
0.0
 41
0.0
 42
0.0
 43
0.0
 44
0.0
 45
0.0
 46
0.0
 47
0.0
 48
0.0
 49
0.0
140
0.0
141
0.0
142
1.0
143
1.0
 70
     0
 72
     0
 73
     0
 74
     0
  7

 75
     0
147
1.0
148
0.0
149
0.0
100
AcDbLayout
  1
Layout1
 70
     0
 71
     0
 10
0.0
 20
0.0
 11
0.0
 21
0.0
 12
0.0
 22
0.0
 32
0.0
 14
0.0
 24
0.0
 34
0.0
 15
0.0
 25
0.0
 35
0.0
146
0.0
 13
0.0
 23
0.0
 33
0.0
 16
0.0
 26
0.0
 36
0.0
 17
0.0
 27
0.0
 37
0.0
 76
     0
330
B
331
0
345
0
346
0
  0
DICTIONARY
  5
1E
102
{ACAD_REACTORS
330
19
102
}
100
AcDbDictionary
280
     0
281
     1
  3
Layout1
350
21
  3
Model
350
20
  0
DICTIONARY
  5
22
102
{ACAD_REACTORS
330
19
102
}
100
AcDbDictionary
280
     0
281
     1
  0
WIPEOUTVARIABLES
  5
23
100
AcDbWipeoutVariables
 70
     1
  0
ENDSEC
  0
EOF
