  0
SECTION
  2
HEADER
  9
$ACADVER
  1
AC1015
  9
$ACADMAINTVER
 70
     6
  9
$DWGCODEPAGE
  3
ANSI_932
  9
$INSBASE
 10
0.0
 20
0.0
 30
0.0
  9
$EXTMIN
 10
-0.013436
 20
0.0
 30
1.000000E+20
  9
$EXTMAX
 10
252.795939
 20
264.765234
 30
-1.000000E+20
  9
$LIMMIN
 10
-0.013436
 20
0.0
  9
$LIMMAX
 10
252.795939
 20
264.765234
  9
$ORTHOMODE
 70
     0
  9
$REGENMODE
 70
     1
  9
$FILLMODE
 70
     1
  9
$QTEXTMODE
 70
     0
  9
$MIRRTEXT
 70
     1
  9
$LTSCALE
 40
1.0
  9
$ATTMODE
 70
     1
  9
$TEXTSIZE
 40
0.2
  9
$TRACEWID
 40
0.05
  9
$TEXTSTYLE
  7
Standard
  9
$CLAYER
  8
0
  9
$CELTYPE
  6
Continuous
  9
$CECOLOR
 62
   256
  9
$CELTSCALE
 40
1.0
  9
$DISPSILH
 70
     0
  9
$DIMSCALE
 40
1.0
  9
$DIMASZ
 40
0.18
  9
$DIMEXO
 40
0.0625
  9
$DIMDLI
 40
0.38
  9
$DIMRND
 40
0.0
  9
$DIMDLE
 40
0.0
  9
$DIMEXE
 40
0.18
  9
$DIMTP
 40
0.0
  9
$DIMTM
 40
0.0
  9
$DIMTXT
 40
0.18
  9
$DIMCEN
 40
0.09
  9
$DIMTSZ
 40
0.0
  9
$DIMTOL
 70
     0
  9
$DIMLIM
 70
     0
  9
$DIMTIH
 70
     1
  9
$DIMTOH
 70
     1
  9
$DIMSE1
 70
     0
  9
$DIMSE2
 70
     0
  9
$DIMTAD
 70
     0
  9
$DIMZIN
 70
     0
  9
$DIMBLK
  1

  9
$DIMASO
 70
     1
  9
$DIMSHO
 70
     1
  9
$DIMPOST
  1

  9
$DIMAPOST
  1

  9
$DIMALT
 70
     0
  9
$DIMALTD
 70
     2
  9
$DIMALTF
 40
25.4
  9
$DIMLFAC
 40
1.0
  9
$DIMTOFL
 70
     0
  9
$DIMTVP
 40
0.0
  9
$DIMTIX
 70
     0
  9
$DIMSOXD
 70
     0
  9
$DIMSAH
 70
     0
  9
$DIMBLK1
  1

  9
$DIMBLK2
  1

  9
$DIMSTYLE
  2
Standard
  9
$DIMCLRD
 70
     0
  9
$DIMCLRE
 70
     0
  9
$DIMCLRT
 70
     0
  9
$DIMTFAC
 40
1.0
  9
$DIMGAP
 40
0.09
  9
$DIMJUST
 70
     0
  9
$DIMSD1
 70
     0
  9
$DIMSD2
 70
     0
  9
$DIMTOLJ
 70
     1
  9
$DIMTZIN
 70
     0
  9
$DIMALTZ
 70
     0
  9
$DIMALTTZ
 70
     0
  9
$DIMUPT
 70
     0
  9
$DIMDEC
 70
     4
  9
$DIMTDEC
 70
     4
  9
$DIMALTU
 70
     2
  9
$DIMALTTD
 70
     2
  9
$DIMTXSTY
  7
Standard
  9
$DIMAUNIT
 70
     0
  9
$DIMADEC
 70
     0
  9
$DIMALTRND
 40
0.0
  9
$DIMAZIN
 70
     0
  9
$DIMDSEP
 70
     0
  9
$DIMATFIT
 70
     3
  9
$DIMFRAC
 70
     0
  9
$DIMLDRBLK
  1

  9
$DIMLUNIT
 70
     2
  9
$DIMLWD
 70
     0
  9
$DIMLWE
 70
     0
  9
$DIMTMOVE
 70
     0
  9
$LUNITS
 70
     2
  9
$LUPREC
 70
     4
  9
$SKETCHINC
 40
0.1
  9
$FILLETRAD
 40
0.0
  9
$AUNITS
 70
     0
  9
$AUPREC
 70
     0
  9
$MENU
  1
acad
  9
$ELEVATION
 40
0.0
  9
$PELEVATION
 40
0.0
  9
$THICKNESS
 40
0.0
  9
$LIMCHECK
 70
     0
  9
$CHAMFERA
 40
0.0
  9
$CHAMFERB
 40
0.0
  9
$CHAMFERC
 40
0.0
  9
$CHAMFERD
 40
0.0
  9
$SKPOLY
 70
     0
  9
$TDCREATE
 40
0.000000000
  9
$TDUCREATE
 40
0.000000000
  9
$TDUPDATE
 40
0.000000000
  9
$TDUUPDATE
 40
0.000000000
  9
$TDINDWG
 40
0.0000000000
  9
$TDUSRTIMER
 40
0.0000000000
  9
$USRTIMER
 70
     1
  9
$ANGBASE
 50
0.0
  9
$ANGDIR
 70
     0
  9
$PDMODE
 70
     0
  9
$PDSIZE
 40
0.0
  9
$PLINEWID
 40
0.0
  9
$SPLFRAME
 70
     0
  9
$SPLINETYPE
 70
     6
  9
$SPLINESEGS
 70
     8
  9
$HANDSEED
  5
112
  9
$SURFTAB1
 70
     6
  9
$SURFTAB2
 70
     6
  9
$SURFTYPE
 70
     6
  9
$SURFU
 70
     6
  9
$SURFV
 70
     6
  9
$UCSBASE
  2

  9
$UCSNAME
  2

  9
$UCSORG
 10
0.0
 20
0.0
 30
0.0
  9
$UCSXDIR
 10
1.0
 20
0.0
 30
0.0
  9
$UCSYDIR
 10
0.0
 20
1.0
 30
0.0
  9
$UCSORTHOREF
  2

  9
$UCSORTHOVIEW
 70
     0
  9
$UCSORGTOP
 10
0.0
 20
0.0
 30
0.0
  9
$UCSORGBOTTOM
 10
0.0
 20
0.0
 30
0.0
  9
$UCSORGLEFT
 10
0.0
 20
0.0
 30
0.0
  9
$UCSORGRIGHT
 10
0.0
 20
0.0
 30
0.0
  9
$UCSORGFRONT
 10
0.0
 20
0.0
 30
0.0
  9
$UCSORGBACK
 10
0.0
 20
0.0
 30
0.0
  9
$PUCSBASE
  2

  9
$PUCSNAME
  2

  9
$PUCSORG
 10
0.0
 20
0.0
 30
0.0
  9
$PUCSXDIR
 10
1.0
 20
0.0
 30
0.0
  9
$PUCSYDIR
 10
0.0
 20
1.0
 30
0.0
  9
$PUCSORTHOREF
  2

  9
$PUCSORTHOVIEW
 70
     0
  9
$PUCSORGTOP
 10
0.0
 20
0.0
 30
0.0
  9
$PUCSORGBOTTOM
 10
0.0
 20
0.0
 30
0.0
  9
$PUCSORGLEFT
 10
0.0
 20
0.0
 30
0.0
  9
$PUCSORGRIGHT
 10
0.0
 20
0.0
 30
0.0
  9
$PUCSORGFRONT
 10
0.0
 20
0.0
 30
0.0
  9
$PUCSORGBACK
 10
0.0
 20
0.0
 30
0.0
  9
$USERI1
 70
     0
  9
$USERI2
 70
     0
  9
$USERI3
 70
     0
  9
$USERI4
 70
     0
  9
$USERI5
 70
     0
  9
$USERR1
 40
0.0
  9
$USERR2
 40
0.0
  9
$USERR3
 40
0.0
  9
$USERR4
 40
0.0
  9
$USERR5
 40
0.0
  9
$WORLDVIEW
 70
     1
  9
$SHADEDGE
 70
     3
  9
$SHADEDIF
 70
    70
  9
$TILEMODE
 70
     1
  9
$MAXACTVP
 70
    16
  9
$PINSBASE
 10
0.0
 20
0.0
 30
0.0
  9
$PLIMCHECK
 70
     0
  9
$PEXTMIN
 10
1.000000E+20
 20
1.000000E+20
 30
1.000000E+20
  9
$PEXTMAX
 10
-1.000000E+20
 20
-1.000000E+20
 30
-1.000000E+20
  9
$PLIMMIN
 10
0.0
 20
0.0
  9
$PLIMMAX
 10
12.0
 20
9.0
  9
$UNITMODE
 70
     0
  9
$VISRETAIN
 70
     0
  9
$PLINEGEN
 70
     1
  9
$PSLTSCALE
 70
     0
  9
$TREEDEPTH
 70
  3020
  9
$CMLSTYLE
  2
Standard
  9
$CMLJUST
 70
     0
  9
$CMLSCALE
 40
1.0
  9
$PROXYGRAPHICS
 70
     0
  9
$MEASUREMENT
 70
     1
  9
$CELWEIGHT
370
     0
  9
$ENDCAPS
280
     0
  9
$JOINSTYLE
280
     0
  9
$LWDISPLAY
290
     0
  9
$INSUNITS
 70
     0
  9
$HYPERLINKBASE
  1

  9
$STYLESHEET
  1

  9
$XEDIT
290
     1
  9
$CEPSNTYPE
380
     0
  9
$PSTYLEMODE
290
     1
  9
$FINGERPRINTGUID
  2

  9
$VERSIONGUID
  2

  9
$EXTNAMES
290
     1
  9
$PSVPSCALE
 40
0.0
  0
ENDSEC
  0
SECTION
  2
CLASSES
  0
CLASS
  1
LWPOLYLINE
  2
AcDbPolyline
  3
AutoCAD 2000
 90
    32768
280
     0
281
     1
  0
CLASS
  1
IMAGE
  2
AcDbRasterImage
  3
ISM
 90
    32895
280
     0
281
     1
  0
CLASS
  1
OLE2FRAME
  2
AcDbOle2Frame
  3
AutoCAD 2000
 90
    32768
280
     0
281
     1
  0
CLASS
  1
HATCH
  2
AcDbHatch
  3
AutoCAD 2000
 90
    32768
280
     0
281
     1
  0
CLASS
  1
DICTIONARYVAR
  2
AcDbDictionaryVar
  3
AutoCAD 2000
 90
    32768
280
     0
281
     0
  0
CLASS
  1
RASTERVARIABLES
  2
AcDbRasterVariables
  3
ISM
 90
    32768
280
     0
281
     0
  0
CLASS
  1
IMAGEDEF
  2
AcDbRasterImageDef
  3
ISM
 90
    32768
280
     0
281
     0
  0
CLASS
  1
IMAGEDEF_REACTOR
  2
AcDbRasterImageDefReactor
  3
ISM
 90
    32769
280
     0
281
     0
  0
CLASS
  1
IDBUFFER
  2
AcDbIdBuffer
  3
AutoCAD 2000
 90
    32768
280
     0
281
     0
  0
CLASS
  1
SPATIAL_FILTER
  2
AcDbSpatialFilter
  3
AutoCAD 2000
 90
    32768
280
     0
281
     0
  0
CLASS
  1
XRECORD
  2
AcDbXrecord
  3
AutoCAD 2000
 90
    32768
280
     0
281
     0
  0
CLASS
  1
SORTENTSTABLE
  2
AcDbSortentsTable
  3
AutoCAD 2000
 90
    32768
280
     0
281
     0
  0
CLASS
  1
LAYER_INDEX
  2
AcDbLayerIndex
  3
AutoCAD 2000
 90
    32768
280
     0
281
     0
  0
CLASS
  1
SPATIAL_INDEX
  2
AcDbSpatialIndex
  3
AutoCAD 2000
 90
    32768
280
     0
281
     0
  0
CLASS
  1
OBJECT_PTR
  2
CAseDLPNTableRecord
  3
"ASE-LPNTableRecord"
 90
    32769
280
     0
281
     0
  0
CLASS
  1
LAYOUT
  2
AcDbLayout
  3
AutoCAD 2000
 90
        0
280
     0
281
     0
  0
CLASS
  1
PLOTSETTINGS
  2
AcDbPlotSettings
  3
AutoCAD 2000
 90
    32768
280
     0
281
     0
  0
CLASS
  1
ACDBDICTIONARYWDFLT
  2
AcDbDictionaryWithDefault
  3
AutoCAD 2000
 90
        0
280
     0
281
     0
  0
CLASS
  1
ACDBPLACEHOLDER
  2
AcDbPlaceHolder
  3
AutoCAD 2000
 90
        0
280
     0
281
     0
  0
CLASS
  1
VBA_PROJECT
  2
AcDbVbaProject
  3
acadvba
 90
    32768
280
     0
281
     0
  0
CLASS
  1
WIPEOUT
  2
AcDbWipeout
  3
WipeOut|AutoCAD Express Tool|expresstools@autodesk.com
 90
    32895
280
     0
281
     1
  0
CLASS
  1
WIPEOUTVARIABLES
  2
AcDbWipeoutVariables
  3
WipeOut|AutoCAD Express Tool|expresstools@autodesk.com
 90
        0
280
     0
281
     0
  0
CLASS
  1
RTEXT
  2
RText
  3
RText|AutoCAD Express Tool|expresstools@autodesk.com
 90
    32768
280
     0
281
     1
  0
CLASS
  1
ARCALIGNEDTEXT
  2
AcDbArcAlignedText
  3
ATEXT|AutoCAD Express Tool|expresstools@autodesk.com
 90
    32768
280
     0
281
     1
  0
ENDSEC
  0
SECTION
  2
TABLES
  0
TABLE
  2
VPORT
  5
7
100
AcDbSymbolTable
 70
     1
  0
VPORT
  5
15
100
AcDbSymbolTableRecord
100
AcDbViewportTableRecord
  2
*ACTIVE
 70
     0
 10
0.0
 20
0.0
 11
1.0
 21
1.0
 12
6.591288
 22
4.579184
 13
0.0
 23
0.0
 14
1.0
 24
1.0
 15
0.0
 25
0.0
 16
0.0
 26
0.0
 36
1.0
 17
0.0
 27
0.0
 37
0.0
 40
9.158369
 41
0.688564
 42
50.0
 43
0.0
 44
0.0
 50
0.0
 51
0.0
 71
     0
 72
   100
 73
     1
 74
     1
 75
     0
 76
     0
 77
     0
 78
     0
281
     0
 65
     0
110
0.0
120
0.0
130
0.0
111
1.0
121
0.0
131
0.0
112
0.0
122
1.0
132
0.0
345
0
346
0
 79
     0
146
0.0
  0
ENDTAB
  0
TABLE
  2
LTYPE
  5
4
100
AcDbSymbolTable
 70
     3
  0
LTYPE
  5
11
100
AcDbSymbolTableRecord
100
AcDbLinetypeTableRecord
  2
ByBlock
 70
    64
  3

 72
    65
 73
     0
 40
0.0
  0
LTYPE
  5
12
100
AcDbSymbolTableRecord
100
AcDbLinetypeTableRecord
  2
ByLayer
 70
    64
  3

 72
    65
 73
     0
 40
0.0
  0
LTYPE
  5
13
100
AcDbSymbolTableRecord
100
AcDbLinetypeTableRecord
  2
Continuous
 70
    64
  3
Solid line
 72
    65
 73
     0
 40
0.0
  0
ENDTAB
  0
TABLE
  2
LAYER
  5
2
100
AcDbSymbolTable
 70
     2
  0
LAYER
  5
14
100
AcDbSymbolTableRecord
100
AcDbLayerTableRecord
  2
0
 70
     0
 62
     7
  6
Continuous
290
     1
370
    -3
390
1D
  0
LAYER
  5
28
100
AcDbSymbolTableRecord
100
AcDbLayerTableRecord
  2
LIVELLO_1
 70
     0
 62
   160
  6
Continuous
290
     1
370
    -3
390
1D
  0
ENDTAB
  0
TABLE
  2
STYLE
  5
3
100
AcDbSymbolTable
 70
     5
  0
STYLE
  5
17
100
AcDbSymbolTableRecord
100
AcDbTextStyleTableRecord
  2
Standard
 70
     0
 40
0.0
 41
1.0
 50
0.0
 71
     0
 42
0.0
  3
txt
  4

  0
STYLE
  5
24
100
AcDbSymbolTableRecord
100
AcDbTextStyleTableRecord
  2
STD
 70
     0
 40
0.0
 41
1.0
 50
0.0
 71
     0
 42
0.0
  3
txt
  4

  0
STYLE
  5
25
100
AcDbSymbolTableRecord
100
AcDbTextStyleTableRecord
  2
TATESTD
 70
     4
 40
0.0
 41
1.0
 50
0.0
 71
     0
 42
0.0
  3
txt
  4

  0
STYLE
  5
26
100
AcDbSymbolTableRecord
100
AcDbTextStyleTableRecord
  2
KANJISTD
 70
     0
 40
0.0
 41
1.0
 50
0.0
 71
     0
 42
0.0
  3
txt
  4
extfont
  0
STYLE
  5
27
100
AcDbSymbolTableRecord
100
AcDbTextStyleTableRecord
  2
KANJITATE
 70
     4
 40
0.0
 41
1.0
 50
0.0
 71
     0
 42
0.0
  3
txt
  4
extfont
  0
ENDTAB
  0
TABLE
  2
VIEW
  5
5
100
AcDbSymbolTable
 70
     0
  0
ENDTAB
  0
TABLE
  2
UCS
  5
6
100
AcDbSymbolTable
 70
     0
  0
ENDTAB
  0
TABLE
  2
APPID
  5
8
100
AcDbSymbolTable
 70
     1
  0
APPID
  5
16
100
AcDbSymbolTableRecord
100
AcDbRegAppTableRecord
  2
ACAD
 70
     0
  0
ENDTAB
  0
TABLE
  2
DIMSTYLE
  5
9
100
AcDbSymbolTable
 70
     1
100
AcDbDimStyleTable
 71
     0
  0
DIMSTYLE
105
18
100
AcDbSymbolTableRecord
100
AcDbDimStyleTableRecord
  2
Standard
 70
     0
  3

  4

 40
1.0
 41
0.18
 42
0.0625
 43
0.38
 44
0.18
 45
0.0
 46
0.0
 47
0.0
 48
0.0
 71
     0
 72
     0
 73
     1
 74
     1
 75
     0
 76
     0
 77
     0
 78
     0
 79
     0
140
0.18
141
0.09
142
0.0
143
25.4
144
1.0
145
0.0
146
1.0
147
0.09
148
0.0
170
     0
171
     2
172
     0
173
     0
174
     0
175
     0
176
     0
177
     0
178
     0
179
     0
271
     4
272
     4
273
     2
274
     2
275
     0
276
     0
277
     2
278
    46
279
     0
280
     0
281
     0
282
     0
283
     1
284
     0
285
     0
286
     0
288
     0
340
17
341
0
342
0
343
0
344
0
371
    -2
372
    -2
  0
ENDTAB
  0
TABLE
  2
BLOCK_RECORD
  5
1
100
AcDbSymbolTable
 70
     4
  0
BLOCK_RECORD
  5
A
100
AcDbSymbolTableRecord
100
AcDbBlockTableRecord
  2
*MODEL_SPACE
340
20
  0
BLOCK_RECORD
  5
B
100
AcDbSymbolTableRecord
100
AcDbBlockTableRecord
  2
*PAPER_SPACE
340
21
  0
BLOCK_RECORD
  5
29
100
AcDbSymbolTableRecord
100
AcDbBlockTableRecord
  2
AI9-BLK1
340
0
102
{BLKREFS
331
2A
102
}
  0
BLOCK_RECORD
  5
6D
100
AcDbSymbolTableRecord
100
AcDbBlockTableRecord
  2
AI9-BLK2
340
0
102
{BLKREFS
331
6E
102
}
  0
BLOCK_RECORD
  5
70
100
AcDbSymbolTableRecord
100
AcDbBlockTableRecord
  2
AI9-BLK3
340
0
102
{BLKREFS
331
71
102
}
  0
BLOCK_RECORD
  5
73
100
AcDbSymbolTableRecord
100
AcDbBlockTableRecord
  2
AI9-BLK4
340
0
102
{BLKREFS
331
74
102
}
  0
ENDTAB
  0
ENDSEC
  0
SECTION
  2
BLOCKS
  0
BLOCK
  5
D
100
AcDbEntity
  8
0
100
AcDbBlockBegin
  2
*MODEL_SPACE
 70
     0
 10
0.0
 20
0.0
 30
0.0
  3
*MODEL_SPACE
  1

  0
ENDBLK
  5
E
100
AcDbEntity
  8
0
100
AcDbBlockEnd
  0
BLOCK
  5
F
100
AcDbEntity
 67
     1
  8
0
100
AcDbBlockBegin
  2
*PAPER_SPACE
 70
     0
 10
0.0
 20
0.0
 30
0.0
  3
*PAPER_SPACE
  1

  0
ENDBLK
  5
10
100
AcDbEntity
 67
     1
  8
0
100
AcDbBlockEnd
  0
BLOCK
  5
2B
100
AcDbEntity
  8
LIVELLO_1
 62
     7
100
AcDbBlockBegin
  2
AI9-BLK1
 70
     0
 10
0.0
 20
0.0
 30
0.0
  3
AI9-BLK1
  1

  0
LINE
  5
110
100
AcDbEntity
  8
LIVELLO_1
 62
     7
100
AcDbLine
 10
25.113024
 20
-75.646029
 30
0.0
 11
123.137014
 21
-75.646029
 31
0.0
  0
POLYLINE
  5
10A
100
AcDbEntity
  8
LIVELLO_1
 62
     7
100
AcDb2dPolyline
 66
     1
 10
0.0
 20
0.0
 30
0.0
 70
     1
  0
VERTEX
  5
10B
100
AcDbEntity
  8
LIVELLO_1
 62
     7
100
AcDbVertex
100
AcDb2dVertex
 10
39.964141
 20
-75.646029
 30
0.0
  0
VERTEX
  5
10C
100
AcDbEntity
  8
LIVELLO_1
 62
     7
100
AcDbVertex
100
AcDb2dVertex
 10
42.936914
 20
-75.646029
 30
0.0
  0
VERTEX
  5
10D
100
AcDbEntity
  8
LIVELLO_1
 62
     7
100
AcDbVertex
100
AcDb2dVertex
 10
42.936914
 20
-81.585029
 30
0.0
  0
VERTEX
  5
10E
100
AcDbEntity
  8
LIVELLO_1
 62
     7
100
AcDbVertex
100
AcDb2dVertex
 10
39.964141
 20
-81.585029
 30
0.0
  0
SEQEND
  5
10F
100
AcDbEntity
  8
LIVELLO_1
 62
     7
  0
POLYLINE
  5
104
100
AcDbEntity
  8
LIVELLO_1
 62
     7
100
AcDb2dPolyline
 66
     1
 10
0.0
 20
0.0
 30
0.0
 70
     1
  0
VERTEX
  5
105
100
AcDbEntity
  8
LIVELLO_1
 62
     7
100
AcDbVertex
100
AcDb2dVertex
 10
105.316569
 20
-75.646029
 30
0.0
  0
VERTEX
  5
106
100
AcDbEntity
  8
LIVELLO_1
 62
     7
100
AcDbVertex
100
AcDb2dVertex
 10
108.284174
 20
-75.646029
 30
0.0
  0
VERTEX
  5
107
100
AcDbEntity
  8
LIVELLO_1
 62
     7
100
AcDbVertex
100
AcDb2dVertex
 10
108.284174
 20
-81.585029
 30
0.0
  0
VERTEX
  5
108
100
AcDbEntity
  8
LIVELLO_1
 62
     7
100
AcDbVertex
100
AcDb2dVertex
 10
105.316569
 20
-81.585029
 30
0.0
  0
SEQEND
  5
109
100
AcDbEntity
  8
LIVELLO_1
 62
     7
  0
POLYLINE
  5
FE
100
AcDbEntity
  8
LIVELLO_1
 62
     7
100
AcDb2dPolyline
 66
     1
 10
0.0
 20
0.0
 30
0.0
 70
     1
  0
VERTEX
  5
FF
100
AcDbEntity
  8
LIVELLO_1
 62
     7
100
AcDbVertex
100
AcDb2dVertex
 10
71.154658
 20
-75.646029
 30
0.0
  0
VERTEX
  5
100
100
AcDbEntity
  8
LIVELLO_1
 62
     7
100
AcDbVertex
100
AcDb2dVertex
 10
77.096414
 20
-75.646029
 30
0.0
  0
VERTEX
  5
101
100
AcDbEntity
  8
LIVELLO_1
 62
     7
100
AcDbVertex
100
AcDb2dVertex
 10
77.096414
 20
-81.585029
 30
0.0
  0
VERTEX
  5
102
100
AcDbEntity
  8
LIVELLO_1
 62
     7
100
AcDbVertex
100
AcDb2dVertex
 10
71.154658
 20
-81.585029
 30
0.0
  0
SEQEND
  5
103
100
AcDbEntity
  8
LIVELLO_1
 62
     7
  0
LINE
  5
FD
100
AcDbEntity
  8
LIVELLO_1
 62
     7
100
AcDbLine
 10
121.653556
 20
-91.982671
 30
0.0
 11
26.599238
 21
-91.982671
 31
0.0
  0
LINE
  5
FC
100
AcDbEntity
  8
LIVELLO_1
 62
     7
100
AcDbLine
 10
126.106687
 20
-96.438213
 30
0.0
 11
22.143351
 21
-96.438213
 31
0.0
  0
LINE
  5
FB
100
AcDbEntity
  8
LIVELLO_1
 62
     7
100
AcDbLine
 10
126.106687
 20
-102.377903
 30
0.0
 11
22.143351
 21
-102.377903
 31
0.0
  0
POLYLINE
  5
F1
100
AcDbEntity
  8
LIVELLO_1
 62
     7
100
AcDb2dPolyline
 66
     1
 10
0.0
 20
0.0
 30
0.0
 70
     1
  0
VERTEX
  5
F2
100
AcDbEntity
  8
LIVELLO_1
 62
     7
100
AcDbVertex
100
AcDb2dVertex
 10
111.255914
 20
-81.585029
 30
0.0
  0
VERTEX
  5
F3
100
AcDbEntity
  8
LIVELLO_1
 62
     7
100
AcDbVertex
100
AcDb2dVertex
 10
126.106687
 20
-96.438213
 30
0.0
  0
VERTEX
  5
F4
100
AcDbEntity
  8
LIVELLO_1
 62
     7
100
AcDbVertex
100
AcDb2dVertex
 10
126.106687
 20
-102.377903
 30
0.0
  0
VERTEX
  5
F5
100
AcDbEntity
  8
LIVELLO_1
 62
     7
100
AcDbVertex
100
AcDb2dVertex
 10
96.405141
 20
-132.08565
 30
0.0
  0
VERTEX
  5
F6
100
AcDbEntity
  8
LIVELLO_1
 62
     7
100
AcDbVertex
100
AcDb2dVertex
 10
51.846275
 20
-132.08565
 30
0.0
  0
VERTEX
  5
F7
100
AcDbEntity
  8
LIVELLO_1
 62
     7
100
AcDbVertex
100
AcDb2dVertex
 10
22.143351
 20
-102.377903
 30
0.0
  0
VERTEX
  5
F8
100
AcDbEntity
  8
LIVELLO_1
 62
     7
100
AcDbVertex
100
AcDb2dVertex
 10
22.143351
 20
-96.438213
 30
0.0
  0
VERTEX
  5
F9
100
AcDbEntity
  8
LIVELLO_1
 62
     7
100
AcDbVertex
100
AcDb2dVertex
 10
36.994469
 20
-81.585029
 30
0.0
  0
SEQEND
  5
FA
100
AcDbEntity
  8
LIVELLO_1
 62
     7
  0
POLYLINE
  5
EB
100
AcDbEntity
  8
LIVELLO_1
 62
     7
100
AcDb2dPolyline
 66
     1
 10
0.0
 20
0.0
 30
0.0
 70
     1
  0
VERTEX
  5
EC
100
AcDbEntity
  8
LIVELLO_1
 62
     7
100
AcDbVertex
100
AcDb2dVertex
 10
52.892206
 20
103.623305
 30
0.0
  0
VERTEX
  5
ED
100
AcDbEntity
  8
LIVELLO_1
 62
     7
100
AcDbVertex
100
AcDb2dVertex
 10
94.478988
 20
103.623305
 30
0.0
  0
VERTEX
  5
EE
100
AcDbEntity
  8
LIVELLO_1
 62
     7
100
AcDbVertex
100
AcDb2dVertex
 10
94.478988
 20
-59.751047
 30
0.0
  0
VERTEX
  5
EF
100
AcDbEntity
  8
LIVELLO_1
 62
     7
100
AcDbVertex
100
AcDb2dVertex
 10
52.892206
 20
-59.751047
 30
0.0
  0
SEQEND
  5
F0
100
AcDbEntity
  8
LIVELLO_1
 62
     7
  0
POLYLINE
  5
E5
100
AcDbEntity
  8
LIVELLO_1
 62
     7
100
AcDb2dPolyline
 66
     1
 10
0.0
 20
0.0
 30
0.0
 70
     1
  0
VERTEX
  5
E6
100
AcDbEntity
  8
LIVELLO_1
 62
     7
100
AcDbVertex
100
AcDb2dVertex
 10
23.187215
 20
103.623305
 30
0.0
  0
VERTEX
  5
E7
100
AcDbEntity
  8
LIVELLO_1
 62
     7
100
AcDbVertex
100
AcDb2dVertex
 10
124.182945
 20
103.623305
 30
0.0
  0
VERTEX
  5
E8
100
AcDbEntity
  8
LIVELLO_1
 62
     7
100
AcDbVertex
100
AcDb2dVertex
 10
124.182945
 20
-59.751047
 30
0.0
  0
VERTEX
  5
E9
100
AcDbEntity
  8
LIVELLO_1
 62
     7
100
AcDbVertex
100
AcDb2dVertex
 10
23.187215
 20
-59.751047
 30
0.0
  0
SEQEND
  5
EA
100
AcDbEntity
  8
LIVELLO_1
 62
     7
  0
LINE
  5
E4
100
AcDbEntity
  8
LIVELLO_1
 62
     7
100
AcDbLine
 10
52.892206
 20
-53.811358
 30
0.0
 11
94.478988
 21
-53.811358
 31
0.0
  0
LINE
  5
E3
100
AcDbEntity
  8
LIVELLO_1
 62
     7
100
AcDbLine
 10
52.892206
 20
-44.898207
 30
0.0
 11
94.478988
 21
-44.898207
 31
0.0
  0
LINE
  5
E2
100
AcDbEntity
  8
LIVELLO_1
 62
     7
100
AcDbLine
 10
52.892206
 20
-35.988501
 30
0.0
 11
94.478988
 21
-35.988501
 31
0.0
  0
LINE
  5
E1
100
AcDbEntity
  8
LIVELLO_1
 62
     7
100
AcDbLine
 10
52.892206
 20
-27.077417
 30
0.0
 11
94.478988
 21
-27.077417
 31
0.0
  0
LINE
  5
E0
100
AcDbEntity
  8
LIVELLO_1
 62
     7
100
AcDbLine
 10
52.892206
 20
-18.166333
 30
0.0
 11
94.478988
 21
-18.166333
 31
0.0
  0
LINE
  5
DF
100
AcDbEntity
  8
LIVELLO_1
 62
     7
100
AcDbLine
 10
52.892206
 20
-9.25456
 30
0.0
 11
94.478988
 21
-9.25456
 31
0.0
  0
LINE
  5
DE
100
AcDbEntity
  8
LIVELLO_1
 62
     7
100
AcDbLine
 10
52.892206
 20
-0.343476
 30
0.0
 11
94.478988
 21
-0.343476
 31
0.0
  0
LINE
  5
DD
100
AcDbEntity
  8
LIVELLO_1
 62
     7
100
AcDbLine
 10
52.892206
 20
8.568297
 30
0.0
 11
94.478988
 21
8.568297
 31
0.0
  0
LINE
  5
DC
100
AcDbEntity
  8
LIVELLO_1
 62
     7
100
AcDbLine
 10
52.892206
 20
17.479381
 30
0.0
 11
94.478988
 21
17.479381
 31
0.0
  0
LINE
  5
DB
100
AcDbEntity
  8
LIVELLO_1
 62
     7
100
AcDbLine
 10
52.892206
 20
26.390982
 30
0.0
 11
94.478988
 21
26.390982
 31
0.0
  0
LINE
  5
DA
100
AcDbEntity
  8
LIVELLO_1
 62
     7
100
AcDbLine
 10
52.892206
 20
35.302066
 30
0.0
 11
94.478988
 21
35.302066
 31
0.0
  0
LINE
  5
D9
100
AcDbEntity
  8
LIVELLO_1
 62
     7
100
AcDbLine
 10
52.892206
 20
44.213494
 30
0.0
 11
94.478988
 21
44.213494
 31
0.0
  0
LINE
  5
D8
100
AcDbEntity
  8
LIVELLO_1
 62
     7
100
AcDbLine
 10
52.892206
 20
53.124923
 30
0.0
 11
94.478988
 21
53.124923
 31
0.0
  0
LINE
  5
D7
100
AcDbEntity
  8
LIVELLO_1
 62
     7
100
AcDbLine
 10
52.892206
 20
62.036351
 30
0.0
 11
94.478988
 21
62.036351
 31
0.0
  0
LINE
  5
D6
100
AcDbEntity
  8
LIVELLO_1
 62
     7
100
AcDbLine
 10
52.892206
 20
70.947607
 30
0.0
 11
94.478988
 21
70.947607
 31
0.0
  0
LINE
  5
D5
100
AcDbEntity
  8
LIVELLO_1
 62
     7
100
AcDbLine
 10
52.892206
 20
79.858864
 30
0.0
 11
94.478988
 21
79.858864
 31
0.0
  0
LINE
  5
D4
100
AcDbEntity
  8
LIVELLO_1
 62
     7
100
AcDbLine
 10
52.892206
 20
88.772359
 30
0.0
 11
94.478988
 21
88.772359
 31
0.0
  0
LINE
  5
D3
100
AcDbEntity
  8
LIVELLO_1
 62
     7
100
AcDbLine
 10
52.892206
 20
97.683788
 30
0.0
 11
94.478988
 21
97.683788
 31
0.0
  0
LINE
  5
D2
100
AcDbEntity
  8
LIVELLO_1
 62
     7
100
AcDbLine
 10
23.187215
 20
96.940853
 30
0.0
 11
52.894274
 21
96.940853
 31
0.0
  0
LINE
  5
D1
100
AcDbEntity
  8
LIVELLO_1
 62
     7
100
AcDbLine
 10
23.187215
 20
98.424655
 30
0.0
 11
52.894274
 21
98.424655
 31
0.0
  0
LINE
  5
D0
100
AcDbEntity
  8
LIVELLO_1
 62
     7
100
AcDbLine
 10
94.478988
 20
-54.554465
 30
0.0
 11
124.182945
 21
-54.554465
 31
0.0
  0
LINE
  5
CF
100
AcDbEntity
  8
LIVELLO_1
 62
     7
100
AcDbLine
 10
94.478988
 20
-53.068595
 30
0.0
 11
124.182945
 21
-53.068595
 31
0.0
  0
LINE
  5
CE
100
AcDbEntity
  8
LIVELLO_1
 62
     7
100
AcDbLine
 10
94.478988
 20
-45.643037
 30
0.0
 11
124.182945
 21
-45.643037
 31
0.0
  0
LINE
  5
CD
100
AcDbEntity
  8
LIVELLO_1
 62
     7
100
AcDbLine
 10
94.478988
 20
-44.157167
 30
0.0
 11
124.182945
 21
-44.157167
 31
0.0
  0
LINE
  5
CC
100
AcDbEntity
  8
LIVELLO_1
 62
     7
100
AcDbLine
 10
94.478988
 20
-36.731608
 30
0.0
 11
124.182945
 21
-36.731608
 31
0.0
  0
LINE
  5
CB
100
AcDbEntity
  8
LIVELLO_1
 62
     7
100
AcDbLine
 10
94.478988
 20
-35.246083
 30
0.0
 11
124.182945
 21
-35.246083
 31
0.0
  0
LINE
  5
CA
100
AcDbEntity
  8
LIVELLO_1
 62
     7
100
AcDbLine
 10
94.478988
 20
-27.820524
 30
0.0
 11
124.182945
 21
-27.820524
 31
0.0
  0
LINE
  5
C9
100
AcDbEntity
  8
LIVELLO_1
 62
     7
100
AcDbLine
 10
94.478988
 20
-26.33431
 30
0.0
 11
124.182945
 21
-26.33431
 31
0.0
  0
LINE
  5
C8
100
AcDbEntity
  8
LIVELLO_1
 62
     7
100
AcDbLine
 10
94.478988
 20
-18.909096
 30
0.0
 11
124.182945
 21
-18.909096
 31
0.0
  0
LINE
  5
C7
100
AcDbEntity
  8
LIVELLO_1
 62
     7
100
AcDbLine
 10
94.478988
 20
-17.423226
 30
0.0
 11
124.182945
 21
-17.423226
 31
0.0
  0
LINE
  5
C6
100
AcDbEntity
  8
LIVELLO_1
 62
     7
100
AcDbLine
 10
94.478988
 20
-9.997667
 30
0.0
 11
124.182945
 21
-9.997667
 31
0.0
  0
LINE
  5
C5
100
AcDbEntity
  8
LIVELLO_1
 62
     7
100
AcDbLine
 10
94.478988
 20
-8.511797
 30
0.0
 11
124.182945
 21
-8.511797
 31
0.0
  0
LINE
  5
C4
100
AcDbEntity
  8
LIVELLO_1
 62
     7
100
AcDbLine
 10
94.478988
 20
-1.084172
 30
0.0
 11
124.182945
 21
-1.084172
 31
0.0
  0
LINE
  5
C3
100
AcDbEntity
  8
LIVELLO_1
 62
     7
100
AcDbLine
 10
94.478988
 20
0.401698
 30
0.0
 11
124.182945
 21
0.401698
 31
0.0
  0
LINE
  5
C2
100
AcDbEntity
  8
LIVELLO_1
 62
     7
100
AcDbLine
 10
94.478988
 20
7.826912
 30
0.0
 11
124.182945
 21
7.826912
 31
0.0
  0
LINE
  5
C1
100
AcDbEntity
  8
LIVELLO_1
 62
     7
100
AcDbLine
 10
94.478988
 20
9.31106
 30
0.0
 11
124.182945
 21
9.31106
 31
0.0
  0
LINE
  5
C0
100
AcDbEntity
  8
LIVELLO_1
 62
     7
100
AcDbLine
 10
94.478988
 20
16.738685
 30
0.0
 11
124.182945
 21
16.738685
 31
0.0
  0
LINE
  5
BF
100
AcDbEntity
  8
LIVELLO_1
 62
     7
100
AcDbLine
 10
94.478988
 20
18.222316
 30
0.0
 11
124.182945
 21
18.222316
 31
0.0
  0
LINE
  5
BE
100
AcDbEntity
  8
LIVELLO_1
 62
     7
100
AcDbLine
 10
94.478988
 20
25.649769
 30
0.0
 11
124.182945
 21
25.649769
 31
0.0
  0
LINE
  5
BD
100
AcDbEntity
  8
LIVELLO_1
 62
     7
100
AcDbLine
 10
94.478988
 20
27.135811
 30
0.0
 11
124.182945
 21
27.135811
 31
0.0
  0
LINE
  5
BC
100
AcDbEntity
  8
LIVELLO_1
 62
     7
100
AcDbLine
 10
94.478988
 20
34.561198
 30
0.0
 11
124.182945
 21
34.561198
 31
0.0
  0
LINE
  5
BB
100
AcDbEntity
  8
LIVELLO_1
 62
     7
100
AcDbLine
 10
94.478988
 20
36.045173
 30
0.0
 11
124.182945
 21
36.045173
 31
0.0
  0
LINE
  5
BA
100
AcDbEntity
  8
LIVELLO_1
 62
     7
100
AcDbLine
 10
94.478988
 20
43.472626
 30
0.0
 11
124.182945
 21
43.472626
 31
0.0
  0
LINE
  5
B9
100
AcDbEntity
  8
LIVELLO_1
 62
     7
100
AcDbLine
 10
94.478988
 20
44.958668
 30
0.0
 11
124.182945
 21
44.958668
 31
0.0
  0
LINE
  5
B8
100
AcDbEntity
  8
LIVELLO_1
 62
     7
100
AcDbLine
 10
94.478988
 20
52.384055
 30
0.0
 11
124.182945
 21
52.384055
 31
0.0
  0
LINE
  5
B7
100
AcDbEntity
  8
LIVELLO_1
 62
     7
100
AcDbLine
 10
94.478988
 20
53.869752
 30
0.0
 11
124.182945
 21
53.869752
 31
0.0
  0
LINE
  5
B6
100
AcDbEntity
  8
LIVELLO_1
 62
     7
100
AcDbLine
 10
94.478988
 20
61.295483
 30
0.0
 11
124.182945
 21
61.295483
 31
0.0
  0
LINE
  5
B5
100
AcDbEntity
  8
LIVELLO_1
 62
     7
100
AcDbLine
 10
94.478988
 20
62.779114
 30
0.0
 11
124.182945
 21
62.779114
 31
0.0
  0
LINE
  5
B4
100
AcDbEntity
  8
LIVELLO_1
 62
     7
100
AcDbLine
 10
94.478988
 20
70.206567
 30
0.0
 11
124.182945
 21
70.206567
 31
0.0
  0
LINE
  5
B3
100
AcDbEntity
  8
LIVELLO_1
 62
     7
100
AcDbLine
 10
94.478988
 20
71.692609
 30
0.0
 11
124.182945
 21
71.692609
 31
0.0
  0
LINE
  5
B2
100
AcDbEntity
  8
LIVELLO_1
 62
     7
100
AcDbLine
 10
94.478988
 20
79.115929
 30
0.0
 11
124.182945
 21
79.115929
 31
0.0
  0
LINE
  5
B1
100
AcDbEntity
  8
LIVELLO_1
 62
     7
100
AcDbLine
 10
94.478988
 20
80.604038
 30
0.0
 11
124.182945
 21
80.604038
 31
0.0
  0
LINE
  5
B0
100
AcDbEntity
  8
LIVELLO_1
 62
     7
100
AcDbLine
 10
94.478988
 20
88.029424
 30
0.0
 11
124.182945
 21
88.029424
 31
0.0
  0
LINE
  5
AF
100
AcDbEntity
  8
LIVELLO_1
 62
     7
100
AcDbLine
 10
94.478988
 20
89.513227
 30
0.0
 11
124.182945
 21
89.513227
 31
0.0
  0
LINE
  5
AE
100
AcDbEntity
  8
LIVELLO_1
 62
     7
100
AcDbLine
 10
94.478988
 20
96.940853
 30
0.0
 11
124.182945
 21
96.940853
 31
0.0
  0
LINE
  5
AD
100
AcDbEntity
  8
LIVELLO_1
 62
     7
100
AcDbLine
 10
94.478988
 20
98.424655
 30
0.0
 11
124.182945
 21
98.424655
 31
0.0
  0
LINE
  5
AC
100
AcDbEntity
  8
LIVELLO_1
 62
     7
100
AcDbLine
 10
23.187215
 20
-54.554465
 30
0.0
 11
52.894274
 21
-54.554465
 31
0.0
  0
LINE
  5
AB
100
AcDbEntity
  8
LIVELLO_1
 62
     7
100
AcDbLine
 10
23.187215
 20
-53.068595
 30
0.0
 11
52.894274
 21
-53.068595
 31
0.0
  0
LINE
  5
AA
100
AcDbEntity
  8
LIVELLO_1
 62
     7
100
AcDbLine
 10
23.187215
 20
-45.643037
 30
0.0
 11
52.894274
 21
-45.643037
 31
0.0
  0
LINE
  5
A9
100
AcDbEntity
  8
LIVELLO_1
 62
     7
100
AcDbLine
 10
23.187215
 20
-44.157167
 30
0.0
 11
52.894274
 21
-44.157167
 31
0.0
  0
LINE
  5
A8
100
AcDbEntity
  8
LIVELLO_1
 62
     7
100
AcDbLine
 10
23.187215
 20
-36.731608
 30
0.0
 11
52.894274
 21
-36.731608
 31
0.0
  0
LINE
  5
A7
100
AcDbEntity
  8
LIVELLO_1
 62
     7
100
AcDbLine
 10
23.187215
 20
-35.246083
 30
0.0
 11
52.894274
 21
-35.246083
 31
0.0
  0
LINE
  5
A6
100
AcDbEntity
  8
LIVELLO_1
 62
     7
100
AcDbLine
 10
23.187215
 20
-27.820524
 30
0.0
 11
52.894274
 21
-27.820524
 31
0.0
  0
LINE
  5
A5
100
AcDbEntity
  8
LIVELLO_1
 62
     7
100
AcDbLine
 10
23.187215
 20
-26.33431
 30
0.0
 11
52.894274
 21
-26.33431
 31
0.0
  0
LINE
  5
A4
100
AcDbEntity
  8
LIVELLO_1
 62
     7
100
AcDbLine
 10
23.187215
 20
-18.909096
 30
0.0
 11
52.894274
 21
-18.909096
 31
0.0
  0
LINE
  5
A3
100
AcDbEntity
  8
LIVELLO_1
 62
     7
100
AcDbLine
 10
23.187215
 20
-17.423226
 30
0.0
 11
52.894274
 21
-17.423226
 31
0.0
  0
LINE
  5
A2
100
AcDbEntity
  8
LIVELLO_1
 62
     7
100
AcDbLine
 10
23.187215
 20
-9.997667
 30
0.0
 11
52.894274
 21
-9.997667
 31
0.0
  0
LINE
  5
A1
100
AcDbEntity
  8
LIVELLO_1
 62
     7
100
AcDbLine
 10
23.187215
 20
-8.511797
 30
0.0
 11
52.894274
 21
-8.511797
 31
0.0
  0
LINE
  5
A0
100
AcDbEntity
  8
LIVELLO_1
 62
     7
100
AcDbLine
 10
23.187215
 20
-1.084172
 30
0.0
 11
52.894274
 21
-1.084172
 31
0.0
  0
LINE
  5
9F
100
AcDbEntity
  8
LIVELLO_1
 62
     7
100
AcDbLine
 10
23.187215
 20
0.401698
 30
0.0
 11
52.894274
 21
0.401698
 31
0.0
  0
LINE
  5
9E
100
AcDbEntity
  8
LIVELLO_1
 62
     7
100
AcDbLine
 10
23.187215
 20
7.826912
 30
0.0
 11
52.894274
 21
7.826912
 31
0.0
  0
LINE
  5
9D
100
AcDbEntity
  8
LIVELLO_1
 62
     7
100
AcDbLine
 10
23.187215
 20
9.31106
 30
0.0
 11
52.894274
 21
9.31106
 31
0.0
  0
LINE
  5
9C
100
AcDbEntity
  8
LIVELLO_1
 62
     7
100
AcDbLine
 10
23.187215
 20
16.738685
 30
0.0
 11
52.894274
 21
16.738685
 31
0.0
  0
LINE
  5
9B
100
AcDbEntity
  8
LIVELLO_1
 62
     7
100
AcDbLine
 10
23.187215
 20
18.222316
 30
0.0
 11
52.894274
 21
18.222316
 31
0.0
  0
LINE
  5
9A
100
AcDbEntity
  8
LIVELLO_1
 62
     7
100
AcDbLine
 10
23.187215
 20
25.649769
 30
0.0
 11
52.894274
 21
25.649769
 31
0.0
  0
LINE
  5
99
100
AcDbEntity
  8
LIVELLO_1
 62
     7
100
AcDbLine
 10
23.187215
 20
27.135811
 30
0.0
 11
52.894274
 21
27.135811
 31
0.0
  0
LINE
  5
98
100
AcDbEntity
  8
LIVELLO_1
 62
     7
100
AcDbLine
 10
23.187215
 20
34.561198
 30
0.0
 11
52.894274
 21
34.561198
 31
0.0
  0
LINE
  5
97
100
AcDbEntity
  8
LIVELLO_1
 62
     7
100
AcDbLine
 10
23.187215
 20
36.045173
 30
0.0
 11
52.894274
 21
36.045173
 31
0.0
  0
LINE
  5
96
100
AcDbEntity
  8
LIVELLO_1
 62
     7
100
AcDbLine
 10
23.187215
 20
43.472626
 30
0.0
 11
52.894274
 21
43.472626
 31
0.0
  0
LINE
  5
95
100
AcDbEntity
  8
LIVELLO_1
 62
     7
100
AcDbLine
 10
23.187215
 20
44.958668
 30
0.0
 11
52.894274
 21
44.958668
 31
0.0
  0
LINE
  5
94
100
AcDbEntity
  8
LIVELLO_1
 62
     7
100
AcDbLine
 10
23.187215
 20
52.384055
 30
0.0
 11
52.894274
 21
52.384055
 31
0.0
  0
LINE
  5
93
100
AcDbEntity
  8
LIVELLO_1
 62
     7
100
AcDbLine
 10
23.187215
 20
53.869752
 30
0.0
 11
52.894274
 21
53.869752
 31
0.0
  0
LINE
  5
92
100
AcDbEntity
  8
LIVELLO_1
 62
     7
100
AcDbLine
 10
23.187215
 20
61.295483
 30
0.0
 11
52.894274
 21
61.295483
 31
0.0
  0
LINE
  5
91
100
AcDbEntity
  8
LIVELLO_1
 62
     7
100
AcDbLine
 10
23.187215
 20
62.779114
 30
0.0
 11
52.894274
 21
62.779114
 31
0.0
  0
LINE
  5
90
100
AcDbEntity
  8
LIVELLO_1
 62
     7
100
AcDbLine
 10
23.187215
 20
70.206567
 30
0.0
 11
52.894274
 21
70.206567
 31
0.0
  0
LINE
  5
8F
100
AcDbEntity
  8
LIVELLO_1
 62
     7
100
AcDbLine
 10
23.187215
 20
71.692609
 30
0.0
 11
52.894274
 21
71.692609
 31
0.0
  0
LINE
  5
8E
100
AcDbEntity
  8
LIVELLO_1
 62
     7
100
AcDbLine
 10
23.187215
 20
79.115929
 30
0.0
 11
52.894274
 21
79.115929
 31
0.0
  0
LINE
  5
8D
100
AcDbEntity
  8
LIVELLO_1
 62
     7
100
AcDbLine
 10
23.187215
 20
80.604038
 30
0.0
 11
52.894274
 21
80.604038
 31
0.0
  0
LINE
  5
8C
100
AcDbEntity
  8
LIVELLO_1
 62
     7
100
AcDbLine
 10
23.187215
 20
88.029424
 30
0.0
 11
52.894274
 21
88.029424
 31
0.0
  0
LINE
  5
8B
100
AcDbEntity
  8
LIVELLO_1
 62
     7
100
AcDbLine
 10
23.187215
 20
89.513227
 30
0.0
 11
52.894274
 21
89.513227
 31
0.0
  0
SPLINE
  5
8A
100
AcDbEntity
  8
LIVELLO_1
 62
     7
100
AcDbSpline
210
0.0
220
0.0
230
1.0
 70
     8
 71
     3
 72
    17
 73
    13
 74
     0
 42
0.00000001
 43
0.00000001
 40
0.0
 40
0.0
 40
0.0
 40
0.0
 40
1.0
 40
1.0
 40
1.0
 40
2.0
 40
2.0
 40
2.0
 40
3.0
 40
3.0
 40
3.0
 40
4.0
 40
4.0
 40
4.0
 40
4.0
 10
26.157231987847219
 20
88.772359212239579
 30
0.0
 10
26.157231987847219
 20
90.411880154079853
 30
0.0
 10
27.488416883680554
 20
91.744270833333331
 30
0.0
 10
29.126559787326386
 20
91.744270833333331
 30
0.0
 10
30.768147786458332
 20
91.744270833333331
 30
0.0
 10
32.098643663194444
 20
90.411880154079853
 30
0.0
 10
32.098643663194444
 20
88.772359212239579
 30
0.0
 10
32.098643663194444
 20
87.130943467881934
 30
0.0
 10
30.768147786458332
 20
85.800447591145826
 30
0.0
 10
29.126559787326386
 20
85.800447591145826
 30
0.0
 10
27.488416883680554
 20
85.800447591145826
 30
0.0
 10
26.157231987847219
 20
87.130943467881934
 30
0.0
 10
26.157231987847219
 20
88.772359212239579
 30
0.0
  0
CIRCLE
  5
89
100
AcDbEntity
  8
LIVELLO_1
 62
     7
100
AcDbCircle
 10
29.127938
 20
88.772359
 30
0.0
 40
2.970706
  0
SPLINE
  5
88
100
AcDbEntity
  8
LIVELLO_1
 62
     7
100
AcDbSpline
210
0.0
220
0.0
230
1.0
 70
     8
 71
     3
 72
    17
 73
    13
 74
     0
 42
0.00000001
 43
0.00000001
 40
0.0
 40
0.0
 40
0.0
 40
0.0
 40
1.0
 40
1.0
 40
1.0
 40
2.0
 40
2.0
 40
2.0
 40
3.0
 40
3.0
 40
3.0
 40
4.0
 40
4.0
 40
4.0
 40
4.0
 10
115.27186143663194
 20
88.772359212239579
 30
0.0
 10
115.27186143663194
 20
90.411880154079853
 30
0.0
 10
116.60304633246527
 20
91.744270833333331
 30
0.0
 10
118.24153374565971
 20
91.744270833333331
 30
0.0
 10
119.88277723524304
 20
91.744270833333331
 30
0.0
 10
121.21120605468749
 20
90.411880154079853
 30
0.0
 10
121.21120605468749
 20
88.772359212239579
 30
0.0
 10
121.21120605468749
 20
87.130943467881934
 30
0.0
 10
119.88277723524304
 20
85.800447591145826
 30
0.0
 10
118.24153374565971
 20
85.800447591145826
 30
0.0
 10
116.60304633246527
 20
85.800447591145826
 30
0.0
 10
115.27186143663194
 20
87.130943467881934
 30
0.0
 10
115.27186143663194
 20
88.772359212239579
 30
0.0
  0
CIRCLE
  5
87
100
AcDbEntity
  8
LIVELLO_1
 62
     7
100
AcDbCircle
 10
118.241534
 20
88.772359
 30
0.0
 40
2.969672
  0
SPLINE
  5
86
100
AcDbEntity
  8
LIVELLO_1
 62
     7
100
AcDbSpline
210
0.0
220
0.0
230
1.0
 70
     8
 71
     3
 72
    17
 73
    13
 74
     0
 42
0.00000001
 43
0.00000001
 40
0.0
 40
0.0
 40
0.0
 40
0.0
 40
1.0
 40
1.0
 40
1.0
 40
2.0
 40
2.0
 40
2.0
 40
3.0
 40
3.0
 40
3.0
 40
4.0
 40
4.0
 40
4.0
 40
4.0
 10
26.157231987847219
 20
-35.988500976562499
 30
0.0
 10
26.157231987847219
 20
-34.34725748697916
 30
0.0
 10
27.488416883680554
 20
-33.017106119791663
 30
0.0
 10
29.126559787326386
 20
-33.017106119791663
 30
0.0
 10
30.768147786458332
 20
-33.017106119791663
 30
0.0
 10
32.098643663194444
 20
-34.34725748697916
 30
0.0
 10
32.098643663194444
 20
-35.988500976562499
 30
0.0
 10
32.098643663194444
 20
-37.630433485243053
 30
0.0
 10
30.768147786458332
 20
-38.958517795138889
 30
0.0
 10
29.126559787326386
 20
-38.958517795138889
 30
0.0
 10
27.488416883680554
 20
-38.958517795138889
 30
0.0
 10
26.157231987847219
 20
-37.630433485243053
 30
0.0
 10
26.157231987847219
 20
-35.988500976562499
 30
0.0
  0
CIRCLE
  5
85
100
AcDbEntity
  8
LIVELLO_1
 62
     7
100
AcDbCircle
 10
29.127938
 20
-35.988501
 30
0.0
 40
2.970706
  0
SPLINE
  5
84
100
AcDbEntity
  8
LIVELLO_1
 62
     7
100
AcDbSpline
210
0.0
220
0.0
230
1.0
 70
     8
 71
     3
 72
    17
 73
    13
 74
     0
 42
0.00000001
 43
0.00000001
 40
0.0
 40
0.0
 40
0.0
 40
0.0
 40
1.0
 40
1.0
 40
1.0
 40
2.0
 40
2.0
 40
2.0
 40
3.0
 40
3.0
 40
3.0
 40
4.0
 40
4.0
 40
4.0
 40
4.0
 10
115.27186143663194
 20
-35.988500976562499
 30
0.0
 10
115.27186143663194
 20
-34.34725748697916
 30
0.0
 10
116.60304633246527
 20
-33.017106119791663
 30
0.0
 10
118.24153374565971
 20
-33.017106119791663
 30
0.0
 10
119.88277723524304
 20
-33.017106119791663
 30
0.0
 10
121.21120605468749
 20
-34.34725748697916
 30
0.0
 10
121.21120605468749
 20
-35.988500976562499
 30
0.0
 10
121.21120605468749
 20
-37.630433485243053
 30
0.0
 10
119.88277723524304
 20
-38.958517795138889
 30
0.0
 10
118.24153374565971
 20
-38.958517795138889
 30
0.0
 10
116.60304633246527
 20
-38.958517795138889
 30
0.0
 10
115.27186143663194
 20
-37.630433485243053
 30
0.0
 10
115.27186143663194
 20
-35.988500976562499
 30
0.0
  0
CIRCLE
  5
83
100
AcDbEntity
  8
LIVELLO_1
 62
     7
100
AcDbCircle
 10
118.241534
 20
-35.988501
 30
0.0
 40
2.969672
  0
LINE
  5
82
100
AcDbEntity
  8
LIVELLO_1
 62
     7
100
AcDbLine
 10
-3.542592
 20
-60.012874
 30
0.0
 11
-9.484348
 21
-60.012874
 31
0.0
  0
LINE
  5
81
100
AcDbEntity
  8
LIVELLO_1
 62
     7
100
AcDbLine
 10
-6.512609
 20
11.537625
 30
0.0
 11
-6.512609
 21
-60.012874
 31
0.0
  0
LINE
  5
80
100
AcDbEntity
  8
LIVELLO_1
 62
     7
100
AcDbLine
 10
-6.512609
 20
103.623305
 30
0.0
 11
-6.512609
 21
29.360482
 31
0.0
  0
LINE
  5
7F
100
AcDbEntity
  8
LIVELLO_1
 62
     7
100
AcDbLine
 10
-3.542592
 20
103.623305
 30
0.0
 11
-9.484348
 21
103.623305
 31
0.0
  0
MTEXT
  5
7E
100
AcDbEntity
  8
LIVELLO_1
 62
     7
100
AcDbMText
 10
-17.141073
 20
26.243203
 30
0.0
 40
9.356379
 41
0.0
 71
     1
 72
     2
  1
\fCourier|b0|i0;\H9.3564;\C7;\U+0033\U+0031\U+0030
  7
STD
210
0.0
220
0.0
230
1.0
 73
     1
 44
1.0
  0
LINE
  5
7D
100
AcDbEntity
  8
LIVELLO_1
 62
     7
100
AcDbLine
 10
23.187215
 20
118.859067
 30
0.0
 11
23.187215
 21
112.919378
 31
0.0
  0
LINE
  5
7C
100
AcDbEntity
  8
LIVELLO_1
 62
     7
100
AcDbLine
 10
23.187215
 20
115.889223
 30
0.0
 11
57.347748
 21
115.889223
 31
0.0
  0
LINE
  5
7B
100
AcDbEntity
  8
LIVELLO_1
 62
     7
100
AcDbLine
 10
90.023446
 20
115.889223
 30
0.0
 11
124.182945
 21
115.889223
 31
0.0
  0
LINE
  5
7A
100
AcDbEntity
  8
LIVELLO_1
 62
     7
100
AcDbLine
 10
124.182945
 20
118.859067
 30
0.0
 11
124.182945
 21
112.919378
 31
0.0
  0
MTEXT
  5
79
100
AcDbEntity
  8
LIVELLO_1
 62
     7
100
AcDbMText
 10
61.247941
 20
122.027021
 30
0.0
 40
9.356379
 41
0.0
 71
     1
 72
     2
  1
\fCourier|b0|i0;\H9.3564;\C7;\U+0031\U+0039\U+0030
  7
STD
210
0.0
220
0.0
230
1.0
 73
     1
 44
1.0
  0
INSERT
  5
6E
100
AcDbEntity
  8
LIVELLO_1
 62
     7
100
AcDbBlockReference
  2
AI9-BLK2
 10
-111.485701
 20
25.137139
 30
0.0
  0
LINE
  5
6C
100
AcDbEntity
  8
LIVELLO_1
 62
     7
100
AcDbLine
 10
-96.621148
 20
125.71963
 30
0.0
 11
-96.621148
 21
-75.433122
 31
0.0
  0
LINE
  5
6B
100
AcDbEntity
  8
LIVELLO_1
 62
     7
100
AcDbLine
 10
-71.369804
 20
-43.995592
 30
0.0
 11
-43.151716
 21
-43.995592
 31
0.0
  0
LINE
  5
6A
100
AcDbEntity
  8
LIVELLO_1
 62
     7
100
AcDbLine
 10
-71.369804
 20
-42.509722
 30
0.0
 11
-43.151716
 21
-42.509722
 31
0.0
  0
LINE
  5
69
100
AcDbEntity
  8
LIVELLO_1
 62
     7
100
AcDbLine
 10
-71.369804
 20
-35.084163
 30
0.0
 11
-43.151716
 21
-35.084163
 31
0.0
  0
LINE
  5
68
100
AcDbEntity
  8
LIVELLO_1
 62
     7
100
AcDbLine
 10
-71.369804
 20
-33.598294
 30
0.0
 11
-43.151716
 21
-33.598294
 31
0.0
  0
LINE
  5
67
100
AcDbEntity
  8
LIVELLO_1
 62
     7
100
AcDbLine
 10
-71.369804
 20
-26.173079
 30
0.0
 11
-43.151716
 21
-26.173079
 31
0.0
  0
LINE
  5
66
100
AcDbEntity
  8
LIVELLO_1
 62
     7
100
AcDbLine
 10
-71.369804
 20
-24.686865
 30
0.0
 11
-43.151716
 21
-24.686865
 31
0.0
  0
LINE
  5
65
100
AcDbEntity
  8
LIVELLO_1
 62
     7
100
AcDbLine
 10
-71.369804
 20
-17.261306
 30
0.0
 11
-43.151716
 21
-17.261306
 31
0.0
  0
LINE
  5
64
100
AcDbEntity
  8
LIVELLO_1
 62
     7
100
AcDbLine
 10
-71.369804
 20
-15.775437
 30
0.0
 11
-43.151716
 21
-15.775437
 31
0.0
  0
LINE
  5
63
100
AcDbEntity
  8
LIVELLO_1
 62
     7
100
AcDbLine
 10
-71.369804
 20
-8.350222
 30
0.0
 11
-43.151716
 21
-8.350222
 31
0.0
  0
LINE
  5
62
100
AcDbEntity
  8
LIVELLO_1
 62
     7
100
AcDbLine
 10
-71.369804
 20
-6.864353
 30
0.0
 11
-43.151716
 21
-6.864353
 31
0.0
  0
LINE
  5
61
100
AcDbEntity
  8
LIVELLO_1
 62
     7
100
AcDbLine
 10
-71.369804
 20
0.561551
 30
0.0
 11
-43.151716
 21
0.561551
 31
0.0
  0
LINE
  5
60
100
AcDbEntity
  8
LIVELLO_1
 62
     7
100
AcDbLine
 10
-71.369804
 20
2.04742
 30
0.0
 11
-43.151716
 21
2.04742
 31
0.0
  0
LINE
  5
5F
100
AcDbEntity
  8
LIVELLO_1
 62
     7
100
AcDbLine
 10
-71.369804
 20
9.472635
 30
0.0
 11
-43.151716
 21
9.472635
 31
0.0
  0
LINE
  5
5E
100
AcDbEntity
  8
LIVELLO_1
 62
     7
100
AcDbLine
 10
-71.369804
 20
10.958504
 30
0.0
 11
-43.151716
 21
10.958504
 31
0.0
  0
LINE
  5
5D
100
AcDbEntity
  8
LIVELLO_1
 62
     7
100
AcDbLine
 10
-71.369804
 20
18.384235
 30
0.0
 11
-43.151716
 21
18.384235
 31
0.0
  0
LINE
  5
5C
100
AcDbEntity
  8
LIVELLO_1
 62
     7
100
AcDbLine
 10
-71.369804
 20
19.872
 30
0.0
 11
-43.151716
 21
19.872
 31
0.0
  0
LINE
  5
5B
100
AcDbEntity
  8
LIVELLO_1
 62
     7
100
AcDbLine
 10
-71.369804
 20
27.297386
 30
0.0
 11
-43.151716
 21
27.297386
 31
0.0
  0
LINE
  5
5A
100
AcDbEntity
  8
LIVELLO_1
 62
     7
100
AcDbLine
 10
-71.369804
 20
28.783256
 30
0.0
 11
-43.151716
 21
28.783256
 31
0.0
  0
LINE
  5
59
100
AcDbEntity
  8
LIVELLO_1
 62
     7
100
AcDbLine
 10
-71.369804
 20
36.208987
 30
0.0
 11
-43.151716
 21
36.208987
 31
0.0
  0
LINE
  5
58
100
AcDbEntity
  8
LIVELLO_1
 62
     7
100
AcDbLine
 10
-71.369804
 20
37.694685
 30
0.0
 11
-43.151716
 21
37.694685
 31
0.0
  0
LINE
  5
57
100
AcDbEntity
  8
LIVELLO_1
 62
     7
100
AcDbLine
 10
-71.369804
 20
45.120071
 30
0.0
 11
-43.151716
 21
45.120071
 31
0.0
  0
LINE
  5
56
100
AcDbEntity
  8
LIVELLO_1
 62
     7
100
AcDbLine
 10
-71.369804
 20
46.606113
 30
0.0
 11
-43.151716
 21
46.606113
 31
0.0
  0
LINE
  5
55
100
AcDbEntity
  8
LIVELLO_1
 62
     7
100
AcDbLine
 10
-71.369804
 20
54.0315
 30
0.0
 11
-43.151716
 21
54.0315
 31
0.0
  0
LINE
  5
54
100
AcDbEntity
  8
LIVELLO_1
 62
     7
100
AcDbLine
 10
-71.369804
 20
55.517369
 30
0.0
 11
-43.151716
 21
55.517369
 31
0.0
  0
LINE
  5
53
100
AcDbEntity
  8
LIVELLO_1
 62
     7
100
AcDbLine
 10
-71.369804
 20
62.942928
 30
0.0
 11
-43.151716
 21
62.942928
 31
0.0
  0
LINE
  5
52
100
AcDbEntity
  8
LIVELLO_1
 62
     7
100
AcDbLine
 10
-71.369804
 20
64.428798
 30
0.0
 11
-43.151716
 21
64.428798
 31
0.0
  0
LINE
  5
51
100
AcDbEntity
  8
LIVELLO_1
 62
     7
100
AcDbLine
 10
-71.369804
 20
71.854357
 30
0.0
 11
-43.151716
 21
71.854357
 31
0.0
  0
LINE
  5
50
100
AcDbEntity
  8
LIVELLO_1
 62
     7
100
AcDbLine
 10
-71.369804
 20
73.340226
 30
0.0
 11
-43.151716
 21
73.340226
 31
0.0
  0
LINE
  5
4F
100
AcDbEntity
  8
LIVELLO_1
 62
     7
100
AcDbLine
 10
-71.369804
 20
80.765613
 30
0.0
 11
-43.151716
 21
80.765613
 31
0.0
  0
LINE
  5
4E
100
AcDbEntity
  8
LIVELLO_1
 62
     7
100
AcDbLine
 10
-71.369804
 20
82.251655
 30
0.0
 11
-43.151716
 21
82.251655
 31
0.0
  0
LINE
  5
4D
100
AcDbEntity
  8
LIVELLO_1
 62
     7
100
AcDbLine
 10
-71.369804
 20
89.677041
 30
0.0
 11
-43.151716
 21
89.677041
 31
0.0
  0
LINE
  5
4C
100
AcDbEntity
  8
LIVELLO_1
 62
     7
100
AcDbLine
 10
-71.369804
 20
91.162911
 30
0.0
 11
-43.151716
 21
91.162911
 31
0.0
  0
SPLINE
  5
4B
100
AcDbEntity
  8
LIVELLO_1
 62
     7
100
AcDbSpline
210
0.0
220
0.0
230
1.0
 70
     8
 71
     3
 72
    32
 73
    28
 74
     0
 42
0.00000001
 43
0.00000001
 40
0.0
 40
0.0
 40
0.0
 40
0.0
 40
1.0
 40
1.0
 40
1.0
 40
2.0
 40
2.0
 40
2.0
 40
3.0
 40
3.0
 40
3.0
 40
4.0
 40
4.0
 40
4.0
 40
5.0
 40
5.0
 40
5.0
 40
6.0
 40
6.0
 40
6.0
 40
7.0
 40
7.0
 40
7.0
 40
8.0
 40
8.0
 40
8.0
 40
9.0
 40
9.0
 40
9.0
 40
9.0
 10
-77.311387803819443
 20
105.27092149522568
 30
0.0
 10
-77.311387803819443
 20
105.27092149522568
 30
0.0
 10
-71.369803873697904
 20
105.27092149522568
 30
0.0
 10
-71.369803873697904
 20
105.27092149522568
 30
0.0
 10
-71.369803873697904
 20
105.27092149522568
 30
0.0
 10
-68.39995930989582
 20
103.78487955729166
 30
0.0
 10
-68.39995930989582
 20
103.78487955729166
 30
0.0
 10
-68.39995930989582
 20
103.78487955729166
 30
0.0
 10
-46.121560329861104
 20
103.78487955729166
 30
0.0
 10
-46.121560329861104
 20
103.78487955729166
 30
0.0
 10
-44.48324517144097
 20
103.78487955729166
 30
0.0
 10
-43.151715766059027
 20
102.45455593532985
 30
0.0
 10
-43.151715766059027
 20
100.81314019097222
 30
0.0
 10
-43.151715766059027
 20
100.81314019097222
 30
0.0
 10
-43.151715766059027
 20
-53.645648871527776
 30
0.0
 10
-43.151715766059027
 20
-53.645648871527776
 30
0.0
 10
-43.151715766059027
 20
-55.287236870659719
 30
0.0
 10
-44.48324517144097
 20
-56.617732747395827
 30
0.0
 10
-46.121560329861104
 20
-56.617732747395827
 30
0.0
 10
-46.121560329861104
 20
-56.617732747395827
 30
0.0
 10
-68.39995930989582
 20
-56.617732747395827
 30
0.0
 10
-68.39995930989582
 20
-56.617732747395827
 30
0.0
 10
-68.39995930989582
 20
-56.617732747395827
 30
0.0
 10
-71.369803873697904
 20
-58.103602430555547
 30
0.0
 10
-71.369803873697904
 20
-58.103602430555547
 30
0.0
 10
-71.369803873697904
 20
-58.103602430555547
 30
0.0
 10
-77.311387803819443
 20
-58.103602430555547
 30
0.0
 10
-77.311387803819443
 20
-58.103602430555547
 30
0.0
  0
LINE
  5
4A
100
AcDbEntity
  8
LIVELLO_1
 62
     7
100
AcDbLine
 10
-71.369804
 20
105.270921
 30
0.0
 11
-71.369804
 21
-58.103602
 31
0.0
  0
LINE
  5
49
100
AcDbEntity
  8
LIVELLO_1
 62
     7
100
AcDbLine
 10
-74.341543
 20
105.270921
 30
0.0
 11
-74.341543
 21
-58.103602
 31
0.0
  0
SPLINE
  5
48
100
AcDbEntity
  8
LIVELLO_1
 62
     7
100
AcDbSpline
210
0.0
220
0.0
230
1.0
 70
     8
 71
     3
 72
    29
 73
    25
 74
     0
 42
0.00000001
 43
0.00000001
 40
0.0
 40
0.0
 40
0.0
 40
0.0
 40
1.0
 40
1.0
 40
1.0
 40
2.0
 40
2.0
 40
2.0
 40
3.0
 40
3.0
 40
3.0
 40
4.0
 40
4.0
 40
4.0
 40
5.0
 40
5.0
 40
5.0
 40
6.0
 40
6.0
 40
6.0
 40
7.0
 40
7.0
 40
7.0
 40
8.0
 40
8.0
 40
8.0
 40
8.0
 10
-77.311387803819443
 20
-58.103602430555547
 30
0.0
 10
-80.284160698784717
 20
-55.131518554687496
 30
0.0
 10
-83.253833007812489
 20
-55.131518554687496
 30
0.0
 10
-83.253833007812489
 20
-55.131518554687496
 30
0.0
 10
-83.253833007812489
 20
-55.131518554687496
 30
0.0
 10
-89.195589192708326
 20
-55.131518554687496
 30
0.0
 10
-89.195589192708326
 20
-55.131518554687496
 30
0.0
 10
-90.833904351128467
 20
-55.131518554687496
 30
0.0
 10
-92.165261501736097
 20
-53.801022677951387
 30
0.0
 10
-92.165261501736097
 20
-52.159779188368049
 30
0.0
 10
-92.165261501736097
 20
-52.159779188368049
 30
0.0
 10
-92.165261501736097
 20
99.331404622395823
 30
0.0
 10
-92.165261501736097
 20
99.331404622395823
 30
0.0
 10
-92.165261501736097
 20
100.96868625217013
 30
0.0
 10
-90.833904351128467
 20
102.29900987413194
 30
0.0
 10
-89.195589192708326
 20
102.29900987413194
 30
0.0
 10
-89.195589192708326
 20
102.29900987413194
 30
0.0
 10
-83.253833007812489
 20
102.29900987413194
 30
0.0
 10
-83.253833007812489
 20
102.29900987413194
 30
0.0
 10
-83.253833007812489
 20
102.29900987413194
 30
0.0
 10
-80.284160698784717
 20
102.29900987413194
 30
0.0
 10
-77.311387803819443
 20
105.27092149522568
 30
0.0
 10
-77.311387803819443
 20
105.27092149522568
 30
0.0
 10
-77.311387803819443
 20
-58.103602430555547
 30
0.0
 10
-77.311387803819443
 20
-58.103602430555547
 30
0.0
  0
LINE
  5
47
100
AcDbEntity
  8
LIVELLO_1
 62
     7
100
AcDbLine
 10
-71.369804
 20
-52.159779
 30
0.0
 11
-43.151716
 21
-52.159779
 31
0.0
  0
POLYLINE
  5
41
100
AcDbEntity
  8
LIVELLO_1
 62
     7
100
AcDb2dPolyline
 66
     1
 10
0.0
 20
0.0
 30
0.0
 70
     1
  0
VERTEX
  5
42
100
AcDbEntity
  8
LIVELLO_1
 62
     7
100
AcDbVertex
100
AcDb2dVertex
 10
-96.621148
 20
-40.280745
 30
0.0
  0
VERTEX
  5
43
100
AcDbEntity
  8
LIVELLO_1
 62
     7
100
AcDbVertex
100
AcDb2dVertex
 10
-92.165262
 20
-40.280745
 30
0.0
  0
VERTEX
  5
44
100
AcDbEntity
  8
LIVELLO_1
 62
     7
100
AcDbVertex
100
AcDb2dVertex
 10
-92.165262
 20
-34.341056
 30
0.0
  0
VERTEX
  5
45
100
AcDbEntity
  8
LIVELLO_1
 62
     7
100
AcDbVertex
100
AcDb2dVertex
 10
-96.621148
 20
-34.341056
 30
0.0
  0
SEQEND
  5
46
100
AcDbEntity
  8
LIVELLO_1
 62
     7
  0
LINE
  5
40
100
AcDbEntity
  8
LIVELLO_1
 62
     7
100
AcDbLine
 10
-71.369804
 20
99.331405
 30
0.0
 11
-43.151716
 21
99.331405
 31
0.0
  0
POLYLINE
  5
3A
100
AcDbEntity
  8
LIVELLO_1
 62
     7
100
AcDb2dPolyline
 66
     1
 10
0.0
 20
0.0
 30
0.0
 70
     1
  0
VERTEX
  5
3B
100
AcDbEntity
  8
LIVELLO_1
 62
     7
100
AcDbVertex
100
AcDb2dVertex
 10
-96.621148
 20
87.448065
 30
0.0
  0
VERTEX
  5
3C
100
AcDbEntity
  8
LIVELLO_1
 62
     7
100
AcDbVertex
100
AcDb2dVertex
 10
-92.165262
 20
87.448065
 30
0.0
  0
VERTEX
  5
3D
100
AcDbEntity
  8
LIVELLO_1
 62
     7
100
AcDbVertex
100
AcDb2dVertex
 10
-92.165262
 20
81.50872
 30
0.0
  0
VERTEX
  5
3E
100
AcDbEntity
  8
LIVELLO_1
 62
     7
100
AcDbVertex
100
AcDb2dVertex
 10
-96.621148
 20
81.50872
 30
0.0
  0
SEQEND
  5
3F
100
AcDbEntity
  8
LIVELLO_1
 62
     7
  0
SPLINE
  5
39
100
AcDbEntity
  8
LIVELLO_1
 62
     7
100
AcDbSpline
210
0.0
220
0.0
230
1.0
 70
     8
 71
     3
 72
    17
 73
    13
 74
     0
 42
0.00000001
 43
0.00000001
 40
0.0
 40
0.0
 40
0.0
 40
0.0
 40
1.0
 40
1.0
 40
1.0
 40
2.0
 40
2.0
 40
2.0
 40
3.0
 40
3.0
 40
3.0
 40
4.0
 40
4.0
 40
4.0
 40
4.0
 10
-68.39995930989582
 20
81.508719889322904
 30
0.0
 10
-68.39995930989582
 20
83.145829264322913
 30
0.0
 10
-67.071702745225693
 20
84.476325141059021
 30
0.0
 10
-65.43011474609375
 20
84.476325141059021
 30
0.0
 10
-63.78973253038194
 20
84.476325141059021
 30
0.0
 10
-62.460442437065964
 20
83.145829264322913
 30
0.0
 10
-62.460442437065964
 20
81.508719889322904
 30
0.0
 10
-62.460442437065964
 20
79.86919894748263
 30
0.0
 10
-63.78973253038194
 20
78.536808268229166
 30
0.0
 10
-65.43011474609375
 20
78.536808268229166
 30
0.0
 10
-67.071702745225693
 20
78.536808268229166
 30
0.0
 10
-68.39995930989582
 20
79.86919894748263
 30
0.0
 10
-68.39995930989582
 20
81.508719889322904
 30
0.0
  0
CIRCLE
  5
38
100
AcDbEntity
  8
LIVELLO_1
 62
     7
100
AcDbCircle
 10
-65.430201
 20
81.50872
 30
0.0
 40
2.969758
  0
SPLINE
  5
37
100
AcDbEntity
  8
LIVELLO_1
 62
     7
100
AcDbSpline
210
0.0
220
0.0
230
1.0
 70
     8
 71
     3
 72
    17
 73
    13
 74
     0
 42
0.00000001
 43
0.00000001
 40
0.0
 40
0.0
 40
0.0
 40
0.0
 40
1.0
 40
1.0
 40
1.0
 40
2.0
 40
2.0
 40
2.0
 40
3.0
 40
3.0
 40
3.0
 40
4.0
 40
4.0
 40
4.0
 40
4.0
 10
-68.39995930989582
 20
-34.341056315104161
 30
0.0
 10
-68.39995930989582
 20
-32.701535373263887
 30
0.0
 10
-67.071702745225693
 20
-31.369316948784718
 30
0.0
 10
-65.43011474609375
 20
-31.369316948784718
 30
0.0
 10
-63.78973253038194
 20
-31.369316948784718
 30
0.0
 10
-62.460442437065964
 20
-32.701535373263887
 30
0.0
 10
-62.460442437065964
 20
-34.341056315104161
 30
0.0
 10
-62.460442437065964
 20
-35.980577256944443
 30
0.0
 10
-63.78973253038194
 20
-37.309006076388883
 30
0.0
 10
-65.43011474609375
 20
-37.309006076388883
 30
0.0
 10
-67.071702745225693
 20
-37.309006076388883
 30
0.0
 10
-68.39995930989582
 20
-35.980577256944443
 30
0.0
 10
-68.39995930989582
 20
-34.341056315104161
 30
0.0
  0
CIRCLE
  5
36
100
AcDbEntity
  8
LIVELLO_1
 62
     7
100
AcDbCircle
 10
-65.430201
 20
-34.341056
 30
0.0
 40
2.969758
  0
LINE
  5
35
100
AcDbEntity
  8
LIVELLO_1
 62
     7
100
AcDbLine
 10
-43.151716
 20
128.69137
 30
0.0
 11
-43.151716
 21
122.747719
 31
0.0
  0
LINE
  5
34
100
AcDbEntity
  8
LIVELLO_1
 62
     7
100
AcDbLine
 10
-56.518686
 20
125.71963
 30
0.0
 11
-43.151716
 21
125.71963
 31
0.0
  0
LINE
  5
33
100
AcDbEntity
  8
LIVELLO_1
 62
     7
100
AcDbLine
 10
-96.621148
 20
125.71963
 30
0.0
 11
-83.253833
 21
125.71963
 31
0.0
  0
LINE
  5
32
100
AcDbEntity
  8
LIVELLO_1
 62
     7
100
AcDbLine
 10
-96.621148
 20
128.69137
 30
0.0
 11
-96.621148
 21
122.747719
 31
0.0
  0
MTEXT
  5
31
100
AcDbEntity
  8
LIVELLO_1
 62
     7
100
AcDbMText
 10
-80.858975
 20
131.855189
 30
0.0
 40
9.356379
 41
0.0
 71
     1
 72
     2
  1
\fCourier|b0|i0;\H9.3564;\C7;\U+0031\U+0030\U+0030
  7
STD
210
0.0
220
0.0
230
1.0
 73
     1
 44
1.0
  0
LINE
  5
30
100
AcDbEntity
  8
LIVELLO_1
 62
     7
100
AcDbLine
 10
-4.043164
 20
-74.323801
 30
0.0
 11
-9.985954
 21
-74.323801
 31
0.0
  0
LINE
  5
2F
100
AcDbEntity
  8
LIVELLO_1
 62
     7
100
AcDbLine
 10
-7.012836
 20
-74.323801
 30
0.0
 11
-7.012836
 21
-95.11633
 31
0.0
  0
LINE
  5
2E
100
AcDbEntity
  8
LIVELLO_1
 62
     7
100
AcDbLine
 10
-7.012836
 20
-112.938843
 30
0.0
 11
-7.012836
 21
-131.023527
 31
0.0
  0
LINE
  5
2D
100
AcDbEntity
  8
LIVELLO_1
 62
     7
100
AcDbLine
 10
-4.043164
 20
-131.023527
 30
0.0
 11
-9.985954
 21
-131.023527
 31
0.0
  0
MTEXT
  5
2C
100
AcDbEntity
  8
LIVELLO_1
 62
     7
100
AcDbMText
 10
-17.640267
 20
-98.237743
 30
0.0
 40
9.356379
 41
0.0
 71
     1
 72
     2
  1
\fCourier|b0|i0;\H9.3564;\C7;\U+0031\U+0030\U+0030
  7
STD
210
0.0
220
0.0
230
1.0
 73
     1
 44
1.0
  0
ENDBLK
  5
111
100
AcDbEntity
  8
LIVELLO_1
100
AcDbBlockEnd
  0
BLOCK
  5
6F
100
AcDbEntity
  8
LIVELLO_1
 62
     7
100
AcDbBlockBegin
  2
AI9-BLK2
 70
     0
 10
0.0
 20
0.0
 30
0.0
  3
AI9-BLK2
  1

  0
INSERT
  5
71
100
AcDbEntity
  8
LIVELLO_1
 62
     7
100
AcDbBlockReference
  2
AI9-BLK3
 10
0.0
 20
0.0
 30
0.0
  0
ENDBLK
  5
78
100
AcDbEntity
  8
LIVELLO_1
100
AcDbBlockEnd
  0
BLOCK
  5
72
100
AcDbEntity
  8
LIVELLO_1
 62
     7
100
AcDbBlockBegin
  2
AI9-BLK3
 70
     0
 10
0.0
 20
0.0
 30
0.0
  3
AI9-BLK3
  1

  0
INSERT
  5
74
100
AcDbEntity
  8
LIVELLO_1
 62
     7
100
AcDbBlockReference
  2
AI9-BLK4
 10
0.000517
 20
0.0
 30
0.0
  0
ENDBLK
  5
77
100
AcDbEntity
  8
LIVELLO_1
100
AcDbBlockEnd
  0
BLOCK
  5
75
100
AcDbEntity
  8
LIVELLO_1
 62
     7
100
AcDbBlockBegin
  2
AI9-BLK4
 70
     0
 10
0.0
 20
0.0
 30
0.0
  3
AI9-BLK4
  1

  0
ENDBLK
  5
76
100
AcDbEntity
  8
LIVELLO_1
100
AcDbBlockEnd
  0
ENDSEC
  0
SECTION
  2
ENTITIES
  0
INSERT
  5
2A
100
AcDbEntity
  8
LIVELLO_1
 62
     7
100
AcDbBlockReference
  2
AI9-BLK1
 10
126.391252
 20
132.382617
 30
0.0
  0
ENDSEC
  0
SECTION
  2
OBJECTS
  0
DICTIONARY
  5
19
100
AcDbDictionary
280
     0
281
     1
  3
ACAD_GROUP
350
1A
  3
ACAD_MLINESTYLE
350
1B
  3
ACAD_LAYOUT
350
1E
  3
ACAD_PLOTSETTINGS
350
22
  3
ACAD_PLOTSTYLENAME
350
1F
  3
ACAD_WIPEOUT_VARS
350
23
  0
DICTIONARY
  5
1A
102
{ACAD_REACTORS
330
19
102
}
100
AcDbDictionary
280
     0
281
     1
  0
DICTIONARY
  5
1B
102
{ACAD_REACTORS
330
19
102
}
100
AcDbDictionary
280
     0
281
     1
  3
Standard
350
1C
  0
MLINESTYLE
  5
1C
102
{ACAD_REACTORS
330
1B
102
}
100
AcDbMlineStyle
  2
Standard
 70
     0
  3

 62
     0
 51
90.0
 52
90.0
 71
     2
 49
0.5
 62
   256
  6
ByLayer
 49
-0.5
 62
   256
  6
ByLayer
  0
ACDBDICTIONARYWDFLT
  5
1F
102
{ACAD_REACTORS
330
19
102
}
100
AcDbDictionary
281
     1
  3
Normal
350
1D
100
AcDbDictionaryWithDefault
340
1D
  0
ACDBPLACEHOLDER
  5
1D
102
{ACAD_REACTORS
330
1F
102
}
  0
LAYOUT
  5
20
102
{ACAD_REACTORS
330
1E
102
}
100
AcDbPlotSettings
  1

  2

  4

  6

 40
0.0
 41
0.0
 42
0.0
 43
0.0
 44
0.0
 45
0.0
 46
0.0
 47
0.0
 48
0.0
 49
0.0
140
0.0
141
0.0
142
1.0
143
1.0
 70
  1024
 72
     0
 73
     0
 74
     0
  7

 75
     0
147
1.0
148
0.0
149
0.0
100
AcDbLayout
  1
Model
 70
     0
 71
     0
 10
0.0
 20
0.0
 11
0.0
 21
0.0
 12
0.0
 22
0.0
 32
0.0
 14
0.0
 24
0.0
 34
0.0
 15
0.0
 25
0.0
 35
0.0
146
0.0
 13
0.0
 23
0.0
 33
0.0
 16
0.0
 26
0.0
 36
0.0
 17
0.0
 27
0.0
 37
0.0
 76
     0
330
A
331
0
345
0
346
0
  0
LAYOUT
  5
21
102
{ACAD_REACTORS
330
1E
102
}
100
AcDbPlotSettings
  1

  2

  4

  6

 40
0.0
 41
0.0
 42
0.0
 43
0.0
 44
0.0
 45
0.0
 46
0.0
 47
0.0
 48
0.0
 49
0.0
140
0.0
141
0.0
142
1.0
143
1.0
 70
     0
 72
     0
 73
     0
 74
     0
  7

 75
     0
147
1.0
148
0.0
149
0.0
100
AcDbLayout
  1
Layout1
 70
     0
 71
     0
 10
0.0
 20
0.0
 11
0.0
 21
0.0
 12
0.0
 22
0.0
 32
0.0
 14
0.0
 24
0.0
 34
0.0
 15
0.0
 25
0.0
 35
0.0
146
0.0
 13
0.0
 23
0.0
 33
0.0
 16
0.0
 26
0.0
 36
0.0
 17
0.0
 27
0.0
 37
0.0
 76
     0
330
B
331
0
345
0
346
0
  0
DICTIONARY
  5
1E
102
{ACAD_REACTORS
330
19
102
}
100
AcDbDictionary
280
     0
281
     1
  3
Layout1
350
21
  3
Model
350
20
  0
DICTIONARY
  5
22
102
{ACAD_REACTORS
330
19
102
}
100
AcDbDictionary
280
     0
281
     1
  0
WIPEOUTVARIABLES
  5
23
100
AcDbWipeoutVariables
 70
     1
  0
ENDSEC
  0
EOF
