  0
SECTION
  2
HEADER
  9
$ACADVER
  1
AC1015
  9
$ACADMAINTVER
 70
     6
  9
$DWGCODEPAGE
  3
ANSI_932
  9
$INSBASE
 10
0.0
 20
0.0
 30
0.0
  9
$EXTMIN
 10
0.0
 20
0.0
 30
1.000000E+20
  9
$EXTMAX
 10
202.723199
 20
202.651541
 30
-1.000000E+20
  9
$LIMMIN
 10
0.0
 20
0.0
  9
$LIMMAX
 10
202.723199
 20
202.651541
  9
$ORTHOMODE
 70
     0
  9
$REGENMODE
 70
     1
  9
$FILLMODE
 70
     1
  9
$QTEXTMODE
 70
     0
  9
$MIRRTEXT
 70
     1
  9
$LTSCALE
 40
1.0
  9
$ATTMODE
 70
     1
  9
$TEXTSIZE
 40
0.2
  9
$TRACEWID
 40
0.05
  9
$TEXTSTYLE
  7
Standard
  9
$CLAYER
  8
0
  9
$CELTYPE
  6
Continuous
  9
$CECOLOR
 62
   256
  9
$CELTSCALE
 40
1.0
  9
$DISPSILH
 70
     0
  9
$DIMSCALE
 40
1.0
  9
$DIMASZ
 40
0.18
  9
$DIMEXO
 40
0.0625
  9
$DIMDLI
 40
0.38
  9
$DIMRND
 40
0.0
  9
$DIMDLE
 40
0.0
  9
$DIMEXE
 40
0.18
  9
$DIMTP
 40
0.0
  9
$DIMTM
 40
0.0
  9
$DIMTXT
 40
0.18
  9
$DIMCEN
 40
0.09
  9
$DIMTSZ
 40
0.0
  9
$DIMTOL
 70
     0
  9
$DIMLIM
 70
     0
  9
$DIMTIH
 70
     1
  9
$DIMTOH
 70
     1
  9
$DIMSE1
 70
     0
  9
$DIMSE2
 70
     0
  9
$DIMTAD
 70
     0
  9
$DIMZIN
 70
     0
  9
$DIMBLK
  1

  9
$DIMASO
 70
     1
  9
$DIMSHO
 70
     1
  9
$DIMPOST
  1

  9
$DIMAPOST
  1

  9
$DIMALT
 70
     0
  9
$DIMALTD
 70
     2
  9
$DIMALTF
 40
25.4
  9
$DIMLFAC
 40
1.0
  9
$DIMTOFL
 70
     0
  9
$DIMTVP
 40
0.0
  9
$DIMTIX
 70
     0
  9
$DIMSOXD
 70
     0
  9
$DIMSAH
 70
     0
  9
$DIMBLK1
  1

  9
$DIMBLK2
  1

  9
$DIMSTYLE
  2
Standard
  9
$DIMCLRD
 70
     0
  9
$DIMCLRE
 70
     0
  9
$DIMCLRT
 70
     0
  9
$DIMTFAC
 40
1.0
  9
$DIMGAP
 40
0.09
  9
$DIMJUST
 70
     0
  9
$DIMSD1
 70
     0
  9
$DIMSD2
 70
     0
  9
$DIMTOLJ
 70
     1
  9
$DIMTZIN
 70
     0
  9
$DIMALTZ
 70
     0
  9
$DIMALTTZ
 70
     0
  9
$DIMUPT
 70
     0
  9
$DIMDEC
 70
     4
  9
$DIMTDEC
 70
     4
  9
$DIMALTU
 70
     2
  9
$DIMALTTD
 70
     2
  9
$DIMTXSTY
  7
Standard
  9
$DIMAUNIT
 70
     0
  9
$DIMADEC
 70
     0
  9
$DIMALTRND
 40
0.0
  9
$DIMAZIN
 70
     0
  9
$DIMDSEP
 70
     0
  9
$DIMATFIT
 70
     3
  9
$DIMFRAC
 70
     0
  9
$DIMLDRBLK
  1

  9
$DIMLUNIT
 70
     2
  9
$DIMLWD
 70
     0
  9
$DIMLWE
 70
     0
  9
$DIMTMOVE
 70
     0
  9
$LUNITS
 70
     2
  9
$LUPREC
 70
     4
  9
$SKETCHINC
 40
0.1
  9
$FILLETRAD
 40
0.0
  9
$AUNITS
 70
     0
  9
$AUPREC
 70
     0
  9
$MENU
  1
acad
  9
$ELEVATION
 40
0.0
  9
$PELEVATION
 40
0.0
  9
$THICKNESS
 40
0.0
  9
$LIMCHECK
 70
     0
  9
$CHAMFERA
 40
0.0
  9
$CHAMFERB
 40
0.0
  9
$CHAMFERC
 40
0.0
  9
$CHAMFERD
 40
0.0
  9
$SKPOLY
 70
     0
  9
$TDCREATE
 40
0.000000000
  9
$TDUCREATE
 40
0.000000000
  9
$TDUPDATE
 40
0.000000000
  9
$TDUUPDATE
 40
0.000000000
  9
$TDINDWG
 40
0.0000000000
  9
$TDUSRTIMER
 40
0.0000000000
  9
$USRTIMER
 70
     1
  9
$ANGBASE
 50
0.0
  9
$ANGDIR
 70
     0
  9
$PDMODE
 70
     0
  9
$PDSIZE
 40
0.0
  9
$PLINEWID
 40
0.0
  9
$SPLFRAME
 70
     0
  9
$SPLINETYPE
 70
     6
  9
$SPLINESEGS
 70
     8
  9
$HANDSEED
  5
71
  9
$SURFTAB1
 70
     6
  9
$SURFTAB2
 70
     6
  9
$SURFTYPE
 70
     6
  9
$SURFU
 70
     6
  9
$SURFV
 70
     6
  9
$UCSBASE
  2

  9
$UCSNAME
  2

  9
$UCSORG
 10
0.0
 20
0.0
 30
0.0
  9
$UCSXDIR
 10
1.0
 20
0.0
 30
0.0
  9
$UCSYDIR
 10
0.0
 20
1.0
 30
0.0
  9
$UCSORTHOREF
  2

  9
$UCSORTHOVIEW
 70
     0
  9
$UCSORGTOP
 10
0.0
 20
0.0
 30
0.0
  9
$UCSORGBOTTOM
 10
0.0
 20
0.0
 30
0.0
  9
$UCSORGLEFT
 10
0.0
 20
0.0
 30
0.0
  9
$UCSORGRIGHT
 10
0.0
 20
0.0
 30
0.0
  9
$UCSORGFRONT
 10
0.0
 20
0.0
 30
0.0
  9
$UCSORGBACK
 10
0.0
 20
0.0
 30
0.0
  9
$PUCSBASE
  2

  9
$PUCSNAME
  2

  9
$PUCSORG
 10
0.0
 20
0.0
 30
0.0
  9
$PUCSXDIR
 10
1.0
 20
0.0
 30
0.0
  9
$PUCSYDIR
 10
0.0
 20
1.0
 30
0.0
  9
$PUCSORTHOREF
  2

  9
$PUCSORTHOVIEW
 70
     0
  9
$PUCSORGTOP
 10
0.0
 20
0.0
 30
0.0
  9
$PUCSORGBOTTOM
 10
0.0
 20
0.0
 30
0.0
  9
$PUCSORGLEFT
 10
0.0
 20
0.0
 30
0.0
  9
$PUCSORGRIGHT
 10
0.0
 20
0.0
 30
0.0
  9
$PUCSORGFRONT
 10
0.0
 20
0.0
 30
0.0
  9
$PUCSORGBACK
 10
0.0
 20
0.0
 30
0.0
  9
$USERI1
 70
     0
  9
$USERI2
 70
     0
  9
$USERI3
 70
     0
  9
$USERI4
 70
     0
  9
$USERI5
 70
     0
  9
$USERR1
 40
0.0
  9
$USERR2
 40
0.0
  9
$USERR3
 40
0.0
  9
$USERR4
 40
0.0
  9
$USERR5
 40
0.0
  9
$WORLDVIEW
 70
     1
  9
$SHADEDGE
 70
     3
  9
$SHADEDIF
 70
    70
  9
$TILEMODE
 70
     1
  9
$MAXACTVP
 70
    16
  9
$PINSBASE
 10
0.0
 20
0.0
 30
0.0
  9
$PLIMCHECK
 70
     0
  9
$PEXTMIN
 10
1.000000E+20
 20
1.000000E+20
 30
1.000000E+20
  9
$PEXTMAX
 10
-1.000000E+20
 20
-1.000000E+20
 30
-1.000000E+20
  9
$PLIMMIN
 10
0.0
 20
0.0
  9
$PLIMMAX
 10
12.0
 20
9.0
  9
$UNITMODE
 70
     0
  9
$VISRETAIN
 70
     0
  9
$PLINEGEN
 70
     1
  9
$PSLTSCALE
 70
     0
  9
$TREEDEPTH
 70
  3020
  9
$CMLSTYLE
  2
Standard
  9
$CMLJUST
 70
     0
  9
$CMLSCALE
 40
1.0
  9
$PROXYGRAPHICS
 70
     0
  9
$MEASUREMENT
 70
     1
  9
$CELWEIGHT
370
     0
  9
$ENDCAPS
280
     0
  9
$JOINSTYLE
280
     0
  9
$LWDISPLAY
290
     0
  9
$INSUNITS
 70
     0
  9
$HYPERLINKBASE
  1

  9
$STYLESHEET
  1

  9
$XEDIT
290
     1
  9
$CEPSNTYPE
380
     0
  9
$PSTYLEMODE
290
     1
  9
$FINGERPRINTGUID
  2

  9
$VERSIONGUID
  2

  9
$EXTNAMES
290
     1
  9
$PSVPSCALE
 40
0.0
  0
ENDSEC
  0
SECTION
  2
CLASSES
  0
CLASS
  1
LWPOLYLINE
  2
AcDbPolyline
  3
AutoCAD 2000
 90
    32768
280
     0
281
     1
  0
CLASS
  1
IMAGE
  2
AcDbRasterImage
  3
ISM
 90
    32895
280
     0
281
     1
  0
CLASS
  1
OLE2FRAME
  2
AcDbOle2Frame
  3
AutoCAD 2000
 90
    32768
280
     0
281
     1
  0
CLASS
  1
HATCH
  2
AcDbHatch
  3
AutoCAD 2000
 90
    32768
280
     0
281
     1
  0
CLASS
  1
DICTIONARYVAR
  2
AcDbDictionaryVar
  3
AutoCAD 2000
 90
    32768
280
     0
281
     0
  0
CLASS
  1
RASTERVARIABLES
  2
AcDbRasterVariables
  3
ISM
 90
    32768
280
     0
281
     0
  0
CLASS
  1
IMAGEDEF
  2
AcDbRasterImageDef
  3
ISM
 90
    32768
280
     0
281
     0
  0
CLASS
  1
IMAGEDEF_REACTOR
  2
AcDbRasterImageDefReactor
  3
ISM
 90
    32769
280
     0
281
     0
  0
CLASS
  1
IDBUFFER
  2
AcDbIdBuffer
  3
AutoCAD 2000
 90
    32768
280
     0
281
     0
  0
CLASS
  1
SPATIAL_FILTER
  2
AcDbSpatialFilter
  3
AutoCAD 2000
 90
    32768
280
     0
281
     0
  0
CLASS
  1
XRECORD
  2
AcDbXrecord
  3
AutoCAD 2000
 90
    32768
280
     0
281
     0
  0
CLASS
  1
SORTENTSTABLE
  2
AcDbSortentsTable
  3
AutoCAD 2000
 90
    32768
280
     0
281
     0
  0
CLASS
  1
LAYER_INDEX
  2
AcDbLayerIndex
  3
AutoCAD 2000
 90
    32768
280
     0
281
     0
  0
CLASS
  1
SPATIAL_INDEX
  2
AcDbSpatialIndex
  3
AutoCAD 2000
 90
    32768
280
     0
281
     0
  0
CLASS
  1
OBJECT_PTR
  2
CAseDLPNTableRecord
  3
"ASE-LPNTableRecord"
 90
    32769
280
     0
281
     0
  0
CLASS
  1
LAYOUT
  2
AcDbLayout
  3
AutoCAD 2000
 90
        0
280
     0
281
     0
  0
CLASS
  1
PLOTSETTINGS
  2
AcDbPlotSettings
  3
AutoCAD 2000
 90
    32768
280
     0
281
     0
  0
CLASS
  1
ACDBDICTIONARYWDFLT
  2
AcDbDictionaryWithDefault
  3
AutoCAD 2000
 90
        0
280
     0
281
     0
  0
CLASS
  1
ACDBPLACEHOLDER
  2
AcDbPlaceHolder
  3
AutoCAD 2000
 90
        0
280
     0
281
     0
  0
CLASS
  1
VBA_PROJECT
  2
AcDbVbaProject
  3
acadvba
 90
    32768
280
     0
281
     0
  0
CLASS
  1
WIPEOUT
  2
AcDbWipeout
  3
WipeOut|AutoCAD Express Tool|expresstools@autodesk.com
 90
    32895
280
     0
281
     1
  0
CLASS
  1
WIPEOUTVARIABLES
  2
AcDbWipeoutVariables
  3
WipeOut|AutoCAD Express Tool|expresstools@autodesk.com
 90
        0
280
     0
281
     0
  0
CLASS
  1
RTEXT
  2
RText
  3
RText|AutoCAD Express Tool|expresstools@autodesk.com
 90
    32768
280
     0
281
     1
  0
CLASS
  1
ARCALIGNEDTEXT
  2
AcDbArcAlignedText
  3
ATEXT|AutoCAD Express Tool|expresstools@autodesk.com
 90
    32768
280
     0
281
     1
  0
ENDSEC
  0
SECTION
  2
TABLES
  0
TABLE
  2
VPORT
  5
7
100
AcDbSymbolTable
 70
     1
  0
VPORT
  5
15
100
AcDbSymbolTableRecord
100
AcDbViewportTableRecord
  2
*ACTIVE
 70
     0
 10
0.0
 20
0.0
 11
1.0
 21
1.0
 12
6.591288
 22
4.579184
 13
0.0
 23
0.0
 14
1.0
 24
1.0
 15
0.0
 25
0.0
 16
0.0
 26
0.0
 36
1.0
 17
0.0
 27
0.0
 37
0.0
 40
9.158369
 41
0.688564
 42
50.0
 43
0.0
 44
0.0
 50
0.0
 51
0.0
 71
     0
 72
   100
 73
     1
 74
     1
 75
     0
 76
     0
 77
     0
 78
     0
281
     0
 65
     0
110
0.0
120
0.0
130
0.0
111
1.0
121
0.0
131
0.0
112
0.0
122
1.0
132
0.0
345
0
346
0
 79
     0
146
0.0
  0
ENDTAB
  0
TABLE
  2
LTYPE
  5
4
100
AcDbSymbolTable
 70
     3
  0
LTYPE
  5
11
100
AcDbSymbolTableRecord
100
AcDbLinetypeTableRecord
  2
ByBlock
 70
    64
  3

 72
    65
 73
     0
 40
0.0
  0
LTYPE
  5
12
100
AcDbSymbolTableRecord
100
AcDbLinetypeTableRecord
  2
ByLayer
 70
    64
  3

 72
    65
 73
     0
 40
0.0
  0
LTYPE
  5
13
100
AcDbSymbolTableRecord
100
AcDbLinetypeTableRecord
  2
Continuous
 70
    64
  3
Solid line
 72
    65
 73
     0
 40
0.0
  0
ENDTAB
  0
TABLE
  2
LAYER
  5
2
100
AcDbSymbolTable
 70
     2
  0
LAYER
  5
14
100
AcDbSymbolTableRecord
100
AcDbLayerTableRecord
  2
0
 70
     0
 62
     7
  6
Continuous
290
     1
370
    -3
390
1D
  0
LAYER
  5
28
100
AcDbSymbolTableRecord
100
AcDbLayerTableRecord
  2
LIVELLO_1
 70
     0
 62
   160
  6
Continuous
290
     1
370
    -3
390
1D
  0
ENDTAB
  0
TABLE
  2
STYLE
  5
3
100
AcDbSymbolTable
 70
     5
  0
STYLE
  5
17
100
AcDbSymbolTableRecord
100
AcDbTextStyleTableRecord
  2
Standard
 70
     0
 40
0.0
 41
1.0
 50
0.0
 71
     0
 42
0.0
  3
txt
  4

  0
STYLE
  5
24
100
AcDbSymbolTableRecord
100
AcDbTextStyleTableRecord
  2
STD
 70
     0
 40
0.0
 41
1.0
 50
0.0
 71
     0
 42
0.0
  3
txt
  4

  0
STYLE
  5
25
100
AcDbSymbolTableRecord
100
AcDbTextStyleTableRecord
  2
TATESTD
 70
     4
 40
0.0
 41
1.0
 50
0.0
 71
     0
 42
0.0
  3
txt
  4

  0
STYLE
  5
26
100
AcDbSymbolTableRecord
100
AcDbTextStyleTableRecord
  2
KANJISTD
 70
     0
 40
0.0
 41
1.0
 50
0.0
 71
     0
 42
0.0
  3
txt
  4
extfont
  0
STYLE
  5
27
100
AcDbSymbolTableRecord
100
AcDbTextStyleTableRecord
  2
KANJITATE
 70
     4
 40
0.0
 41
1.0
 50
0.0
 71
     0
 42
0.0
  3
txt
  4
extfont
  0
ENDTAB
  0
TABLE
  2
VIEW
  5
5
100
AcDbSymbolTable
 70
     0
  0
ENDTAB
  0
TABLE
  2
UCS
  5
6
100
AcDbSymbolTable
 70
     0
  0
ENDTAB
  0
TABLE
  2
APPID
  5
8
100
AcDbSymbolTable
 70
     1
  0
APPID
  5
16
100
AcDbSymbolTableRecord
100
AcDbRegAppTableRecord
  2
ACAD
 70
     0
  0
ENDTAB
  0
TABLE
  2
DIMSTYLE
  5
9
100
AcDbSymbolTable
 70
     1
100
AcDbDimStyleTable
 71
     0
  0
DIMSTYLE
105
18
100
AcDbSymbolTableRecord
100
AcDbDimStyleTableRecord
  2
Standard
 70
     0
  3

  4

 40
1.0
 41
0.18
 42
0.0625
 43
0.38
 44
0.18
 45
0.0
 46
0.0
 47
0.0
 48
0.0
 71
     0
 72
     0
 73
     1
 74
     1
 75
     0
 76
     0
 77
     0
 78
     0
 79
     0
140
0.18
141
0.09
142
0.0
143
25.4
144
1.0
145
0.0
146
1.0
147
0.09
148
0.0
170
     0
171
     2
172
     0
173
     0
174
     0
175
     0
176
     0
177
     0
178
     0
179
     0
271
     4
272
     4
273
     2
274
     2
275
     0
276
     0
277
     2
278
    46
279
     0
280
     0
281
     0
282
     0
283
     1
284
     0
285
     0
286
     0
288
     0
340
17
341
0
342
0
343
0
344
0
371
    -2
372
    -2
  0
ENDTAB
  0
TABLE
  2
BLOCK_RECORD
  5
1
100
AcDbSymbolTable
 70
     1
  0
BLOCK_RECORD
  5
A
100
AcDbSymbolTableRecord
100
AcDbBlockTableRecord
  2
*MODEL_SPACE
340
20
  0
BLOCK_RECORD
  5
B
100
AcDbSymbolTableRecord
100
AcDbBlockTableRecord
  2
*PAPER_SPACE
340
21
  0
BLOCK_RECORD
  5
29
100
AcDbSymbolTableRecord
100
AcDbBlockTableRecord
  2
AI9-BLK1
340
0
102
{BLKREFS
331
2A
102
}
  0
ENDTAB
  0
ENDSEC
  0
SECTION
  2
BLOCKS
  0
BLOCK
  5
D
100
AcDbEntity
  8
0
100
AcDbBlockBegin
  2
*MODEL_SPACE
 70
     0
 10
0.0
 20
0.0
 30
0.0
  3
*MODEL_SPACE
  1

  0
ENDBLK
  5
E
100
AcDbEntity
  8
0
100
AcDbBlockEnd
  0
BLOCK
  5
F
100
AcDbEntity
 67
     1
  8
0
100
AcDbBlockBegin
  2
*PAPER_SPACE
 70
     0
 10
0.0
 20
0.0
 30
0.0
  3
*PAPER_SPACE
  1

  0
ENDBLK
  5
10
100
AcDbEntity
 67
     1
  8
0
100
AcDbBlockEnd
  0
BLOCK
  5
2B
100
AcDbEntity
  8
LIVELLO_1
 62
     7
100
AcDbBlockBegin
  2
AI9-BLK1
 70
     0
 10
0.0
 20
0.0
 30
0.0
  3
AI9-BLK1
  1

  0
LINE
  5
6F
100
AcDbEntity
  8
LIVELLO_1
 62
     7
100
AcDbLine
 10
-100.970237
 20
-13.819312
 30
0.0
 11
-80.200273
 21
-13.819312
 31
0.0
  0
SPLINE
  5
6E
100
AcDbEntity
  8
LIVELLO_1
 62
     7
100
AcDbSpline
210
0.0
220
0.0
230
1.0
 70
     8
 71
     3
 72
     8
 73
     4
 74
     0
 42
0.00000001
 43
0.00000001
 40
0.0
 40
0.0
 40
0.0
 40
0.0
 40
1.0
 40
1.0
 40
1.0
 40
1.0
 10
-91.557202148437497
 20
-89.83224283854166
 30
0.0
 10
-74.754437934027777
 20
-68.71725260416666
 30
0.0
 10
-63.807130262586803
 20
-43.552552625868053
 30
0.0
 10
-59.819259982638883
 20
-16.864431423611109
 30
0.0
  0
SPLINE
  5
6D
100
AcDbEntity
  8
LIVELLO_1
 62
     7
100
AcDbSpline
210
0.0
220
0.0
230
1.0
 70
     8
 71
     3
 72
     8
 73
     4
 74
     0
 42
0.00000001
 43
0.00000001
 40
0.0
 40
0.0
 40
0.0
 40
0.0
 40
1.0
 40
1.0
 40
1.0
 40
1.0
 10
-59.819259982638883
 20
-16.864431423611109
 30
0.0
 10
-55.831217447916664
 20
9.824378797743055
 30
0.0
 10
-58.943516710069439
 20
37.09127604166666
 30
0.0
 10
-68.840931532118049
 20
62.196720377604159
 30
0.0
  0
LINE
  5
6C
100
AcDbEntity
  8
LIVELLO_1
 62
     7
100
AcDbLine
 10
-98.158866
 20
70.00434
 30
0.0
 11
-100.970237
 21
69.932166
 31
0.0
  0
LINE
  5
6B
100
AcDbEntity
  8
LIVELLO_1
 62
     7
100
AcDbLine
 10
-100.970237
 20
-13.279121
 30
0.0
 11
-100.970237
 21
69.064174
 31
0.0
  0
LINE
  5
6A
100
AcDbEntity
  8
LIVELLO_1
 62
     7
100
AcDbLine
 10
-98.158866
 20
69.60402
 30
0.0
 11
-98.158866
 21
-13.279121
 31
0.0
  0
LINE
  5
69
100
AcDbEntity
  8
LIVELLO_1
 62
     7
100
AcDbLine
 10
-98.158866
 20
-97.642619
 30
0.0
 11
-100.970237
 21
-97.565104
 31
0.0
  0
LINE
  5
68
100
AcDbEntity
  8
LIVELLO_1
 62
     7
100
AcDbLine
 10
-100.970237
 20
-96.699696
 30
0.0
 11
-100.970237
 21
-13.279121
 31
0.0
  0
LINE
  5
67
100
AcDbEntity
  8
LIVELLO_1
 62
     7
100
AcDbLine
 10
-98.158866
 20
-13.279121
 30
0.0
 11
-98.158866
 21
-97.242643
 31
0.0
  0
LINE
  5
66
100
AcDbEntity
  8
LIVELLO_1
 62
     7
100
AcDbLine
 10
-100.970237
 20
69.064174
 30
0.0
 11
-100.970237
 21
69.932166
 31
0.0
  0
LINE
  5
65
100
AcDbEntity
  8
LIVELLO_1
 62
     7
100
AcDbLine
 10
-98.158866
 20
69.60402
 30
0.0
 11
-98.158866
 21
70.472012
 31
0.0
  0
LINE
  5
64
100
AcDbEntity
  8
LIVELLO_1
 62
     7
100
AcDbLine
 10
-100.970237
 20
-97.565104
 30
0.0
 11
-100.970237
 21
-96.699696
 31
0.0
  0
LINE
  5
63
100
AcDbEntity
  8
LIVELLO_1
 62
     7
100
AcDbLine
 10
-98.158866
 20
-97.242643
 30
0.0
 11
-98.158866
 21
-98.110118
 31
0.0
  0
LINE
  5
62
100
AcDbEntity
  8
LIVELLO_1
 62
     7
100
AcDbLine
 10
-98.158866
 20
-98.110118
 30
0.0
 11
-93.170024
 21
-97.980927
 31
0.0
  0
SPLINE
  5
61
100
AcDbEntity
  8
LIVELLO_1
 62
     7
100
AcDbSpline
210
0.0
220
0.0
230
1.0
 70
     8
 71
     3
 72
     8
 73
     4
 74
     0
 42
0.00000001
 43
0.00000001
 40
0.0
 40
0.0
 40
0.0
 40
0.0
 40
1.0
 40
1.0
 40
1.0
 40
1.0
 10
-93.170023600260407
 20
-97.980927191840266
 30
0.0
 10
-92.940235731336799
 20
-97.973347981770829
 30
0.0
 10
-92.750238715277774
 20
-97.802815755208329
 30
0.0
 10
-92.718027072482627
 20
-97.578195529513877
 30
0.0
  0
LINE
  5
60
100
AcDbEntity
  8
LIVELLO_1
 62
     7
100
AcDbLine
 10
-92.628971
 20
-96.999419
 30
0.0
 11
-92.718027
 21
-97.578196
 31
0.0
  0
LINE
  5
5F
100
AcDbEntity
  8
LIVELLO_1
 62
     7
100
AcDbLine
 10
-80.155142
 20
-13.529579
 30
0.0
 11
-92.628971
 21
-96.999419
 31
0.0
  0
LINE
  5
5E
100
AcDbEntity
  8
LIVELLO_1
 62
     7
100
AcDbLine
 10
-67.885262
 20
68.576176
 30
0.0
 11
-80.155142
 21
-13.529579
 31
0.0
  0
LINE
  5
5D
100
AcDbEntity
  8
LIVELLO_1
 62
     7
100
AcDbLine
 10
-67.885262
 20
68.576176
 30
0.0
 11
-67.796206
 21
69.152196
 31
0.0
  0
LINE
  5
5C
100
AcDbEntity
  8
LIVELLO_1
 62
     7
100
AcDbLine
 10
-98.158866
 20
70.472012
 30
0.0
 11
-68.248203
 21
69.689286
 31
0.0
  0
SPLINE
  5
5B
100
AcDbEntity
  8
LIVELLO_1
 62
     7
100
AcDbSpline
210
0.0
220
0.0
230
1.0
 70
     8
 71
     3
 72
    11
 73
     7
 74
     0
 42
0.00000001
 43
0.00000001
 40
0.0
 40
0.0
 40
0.0
 40
0.0
 40
1.0
 40
1.0
 40
1.0
 40
2.0
 40
2.0
 40
2.0
 40
2.0
 10
-67.796206325954856
 20
69.152195909288181
 30
0.0
 10
-67.76141086154513
 20
69.407994249131931
 30
0.0
 10
-67.938316514756934
 20
69.645533582899304
 30
0.0
 10
-68.192909071180551
 20
69.684118652343741
 30
0.0
 10
-68.210823567708331
 20
69.689286295572913
 30
0.0
 10
-68.227532280815964
 20
69.689286295572913
 30
0.0
 10
-68.248202853732636
 20
69.689286295572913
 30
0.0
  0
SPLINE
  5
5A
100
AcDbEntity
  8
LIVELLO_1
 62
     7
100
AcDbSpline
210
0.0
220
0.0
230
1.0
 70
     8
 71
     3
 72
   137
 73
   133
 74
     0
 42
0.00000001
 43
0.00000001
 40
0.0
 40
0.0
 40
0.0
 40
0.0
 40
1.0
 40
1.0
 40
1.0
 40
2.0
 40
2.0
 40
2.0
 40
3.0
 40
3.0
 40
3.0
 40
4.0
 40
4.0
 40
4.0
 40
5.0
 40
5.0
 40
5.0
 40
6.0
 40
6.0
 40
6.0
 40
7.0
 40
7.0
 40
7.0
 40
8.0
 40
8.0
 40
8.0
 40
9.0
 40
9.0
 40
9.0
 40
10.0
 40
10.0
 40
10.0
 40
11.0
 40
11.0
 40
11.0
 40
12.0
 40
12.0
 40
12.0
 40
13.0
 40
13.0
 40
13.0
 40
14.0
 40
14.0
 40
14.0
 40
15.0
 40
15.0
 40
15.0
 40
16.0
 40
16.0
 40
16.0
 40
17.0
 40
17.0
 40
17.0
 40
18.0
 40
18.0
 40
18.0
 40
19.0
 40
19.0
 40
19.0
 40
20.0
 40
20.0
 40
20.0
 40
21.0
 40
21.0
 40
21.0
 40
22.0
 40
22.0
 40
22.0
 40
23.0
 40
23.0
 40
23.0
 40
24.0
 40
24.0
 40
24.0
 40
25.0
 40
25.0
 40
25.0
 40
26.0
 40
26.0
 40
26.0
 40
27.0
 40
27.0
 40
27.0
 40
28.0
 40
28.0
 40
28.0
 40
29.0
 40
29.0
 40
29.0
 40
30.0
 40
30.0
 40
30.0
 40
31.0
 40
31.0
 40
31.0
 40
32.0
 40
32.0
 40
32.0
 40
33.0
 40
33.0
 40
33.0
 40
34.0
 40
34.0
 40
34.0
 40
35.0
 40
35.0
 40
35.0
 40
36.0
 40
36.0
 40
36.0
 40
37.0
 40
37.0
 40
37.0
 40
38.0
 40
38.0
 40
38.0
 40
39.0
 40
39.0
 40
39.0
 40
40.0
 40
40.0
 40
40.0
 40
41.0
 40
41.0
 40
41.0
 40
42.0
 40
42.0
 40
42.0
 40
43.0
 40
43.0
 40
43.0
 40
44.0
 40
44.0
 40
44.0
 40
44.0
 10
48.92242296006944
 20
-93.096815321180543
 30
0.0
 10
50.004527452256937
 20
-93.096815321180543
 30
0.0
 10
51.092144097222217
 20
-92.983127170138886
 30
0.0
 10
52.154956054687496
 20
-92.768842230902763
 30
0.0
 10
53.215011935763883
 20
-92.549389648437497
 30
0.0
 10
54.254741753472217
 20
-92.228995768229154
 30
0.0
 10
55.256920030381941
 20
-91.823508029513874
 30
0.0
 10
57.257142469618053
 20
-91.012532552083329
 30
0.0
 10
59.118183051215276
 20
-89.86083713107638
 30
0.0
 10
60.813859049479163
 20
-88.517249891493051
 30
0.0
 10
62.506778971354159
 20
-87.174351671006931
 30
0.0
 10
64.033300781249991
 20
-85.637839084201374
 30
0.0
 10
65.426497395833323
 20
-83.994873046874986
 30
0.0
 10
66.817282443576389
 20
-82.354663085937489
 30
0.0
 10
68.081976996527771
 20
-80.603865559895823
 30
0.0
 10
69.237806532118043
 20
-78.785199652777777
 30
0.0
 10
70.396047634548609
 20
-76.974801974826377
 30
0.0
 10
71.44576822916666
 20
-75.094124348958331
 30
0.0
 10
72.40936143663194
 20
-73.172794596354166
 30
0.0
 10
73.371576605902774
 20
-71.253876410590266
 30
0.0
 10
74.2469753689236
 20
-69.288104926215269
 30
0.0
 10
75.054161241319434
 20
-67.296839735243054
 30
0.0
 10
76.664743381076377
 20
-63.316720920138884
 30
0.0
 10
77.982147894965266
 20
-59.22291395399305
 30
0.0
 10
79.082166883680543
 20
-55.069506835937496
 30
0.0
 10
80.182530381944431
 20
-50.921611870659717
 30
0.0
 10
81.06585286458332
 20
-46.71687282986111
 30
0.0
 10
81.757972547743051
 20
-42.480783420138884
 30
0.0
 10
82.446647135416654
 20
-38.247794596354161
 30
0.0
 10
82.954109700520831
 20
-33.985866970486107
 30
0.0
 10
83.289662000868049
 20
-29.706024848090276
 30
0.0
 10
83.623147243923597
 20
-25.42893880208333
 30
0.0
 10
83.789545355902774
 20
-21.141172960069444
 30
0.0
 10
83.789545355902774
 20
-16.851340060763889
 30
0.0
 10
83.789545355902774
 20
-12.56391872829861
 30
0.0
 10
83.623147243923597
 20
-8.2737413194444436
 30
0.0
 10
83.289662000868049
 20
-3.9966552734374998
 30
0.0
 10
82.954109700520831
 20
0.2807752821180555
 30
0.0
 10
82.446647135416654
 20
4.5451144748263888
 30
0.0
 10
81.757972547743051
 20
8.7781032986111107
 30
0.0
 10
81.06585286458332
 20
13.013848198784721
 30
0.0
 10
80.187698025173603
 20
17.218931749131944
 30
0.0
 10
79.082166883680543
 20
21.364415147569442
 30
0.0
 10
77.982147894965266
 20
25.517477756076385
 30
0.0
 10
76.664743381076377
 20
29.611284722222219
 30
0.0
 10
75.054161241319434
 20
33.591403537326386
 30
0.0
 10
74.2469753689236
 20
35.582668728298607
 30
0.0
 10
73.371576605902774
 20
37.546028645833331
 30
0.0
 10
72.40936143663194
 20
39.470114474826389
 30
0.0
 10
71.44576822916666
 20
41.389032660590274
 30
0.0
 10
70.396047634548609
 20
43.269365776909716
 30
0.0
 10
69.237806532118043
 20
45.085275607638884
 30
0.0
 10
68.081976996527771
 20
46.898429361979161
 30
0.0
 10
66.817282443576389
 20
48.649399142795133
 30
0.0
 10
65.426497395833323
 20
50.289609103732637
 30
0.0
 10
64.033300781249991
 20
51.934986707899299
 30
0.0
 10
62.506778971354159
 20
53.469087727864576
 30
0.0
 10
60.813859049479163
 20
54.809574381510409
 30
0.0
 10
59.118183051215276
 20
56.155400933159719
 30
0.0
 10
57.257142469618053
 20
57.30709635416666
 30
0.0
 10
55.256920030381941
 20
58.120827907986104
 30
0.0
 10
54.254741753472217
 20
58.528727213541664
 30
0.0
 10
53.215011935763883
 20
58.84670952690972
 30
0.0
 10
52.154956054687496
 20
59.063406032986109
 30
0.0
 10
51.092144097222217
 20
59.277690972222217
 30
0.0
 10
50.007283528645829
 20
59.394307454427079
 30
0.0
 10
48.92242296006944
 20
59.394307454427079
 30
0.0
 10
47.838940429687497
 20
59.394307454427079
 30
0.0
 10
46.756835937499993
 20
59.277690972222217
 30
0.0
 10
45.69367947048611
 20
59.063406032986109
 30
0.0
 10
44.633279079861104
 20
58.84670952690972
 30
0.0
 10
43.594238281249993
 20
58.528727213541664
 30
0.0
 10
42.587581380208327
 20
58.120827907986104
 30
0.0
 10
40.588736979166661
 20
57.30709635416666
 30
0.0
 10
38.729074435763884
 20
56.155400933159719
 30
0.0
 10
37.037188042534716
 20
54.809574381510409
 30
0.0
 10
35.34426812065972
 20
53.469087727864576
 30
0.0
 10
33.817746310763887
 20
51.934986707899299
 30
0.0
 10
32.424549696180556
 20
50.289609103732637
 30
0.0
 10
31.028597005208329
 20
48.649399142795133
 30
0.0
 10
29.766658528645831
 20
46.898429361979161
 30
0.0
 10
28.608417426215276
 20
45.085275607638884
 30
0.0
 10
27.454999457465274
 20
43.269365776909716
 30
0.0
 10
26.405278862847219
 20
41.389032660590274
 30
0.0
 10
25.438929578993054
 20
39.470114474826389
 30
0.0
 10
24.474302842881944
 20
37.546028645833331
 30
0.0
 10
23.598904079861111
 20
35.582668728298607
 30
0.0
 10
22.794474283854164
 20
33.591403537326386
 30
0.0
 10
21.186648220486109
 20
29.611284722222219
 30
0.0
 10
19.864076063368053
 20
25.517477756076385
 30
0.0
 10
18.763712565104164
 20
21.364415147569442
 30
0.0
 10
17.663349066840276
 20
17.218931749131944
 30
0.0
 10
16.782782660590275
 20
13.013848198784721
 30
0.0
 10
16.093074544270831
 20
8.7781032986111107
 30
0.0
 10
15.399576822916666
 20
4.5451144748263888
 30
0.0
 10
14.897281901041666
 20
0.2807752821180555
 30
0.0
 10
14.558973524305554
 20
-3.9966552734374998
 30
0.0
 10
14.223421223958333
 20
-8.2737413194444436
 30
0.0
 10
14.059090169270831
 20
-12.56391872829861
 30
0.0
 10
14.059090169270831
 20
-16.851340060763889
 30
0.0
 10
14.059090169270831
 20
-21.141172960069444
 30
0.0
 10
14.223421223958333
 20
-25.42893880208333
 30
0.0
 10
14.558973524305554
 20
-29.706024848090276
 30
0.0
 10
14.897281901041666
 20
-33.985866970486107
 30
0.0
 10
15.399576822916666
 20
-38.247794596354161
 30
0.0
 10
16.093074544270831
 20
-42.480783420138884
 30
0.0
 10
16.782782660590275
 20
-46.71687282986111
 30
0.0
 10
17.663349066840276
 20
-50.921611870659717
 30
0.0
 10
18.763712565104164
 20
-55.069506835937496
 30
0.0
 10
19.864076063368053
 20
-59.22291395399305
 30
0.0
 10
21.186648220486109
 20
-63.316720920138884
 30
0.0
 10
22.794474283854164
 20
-67.296839735243054
 30
0.0
 10
23.598904079861111
 20
-69.288104926215269
 30
0.0
 10
24.474302842881944
 20
-71.253876410590266
 30
0.0
 10
25.438929578993054
 20
-73.172794596354166
 30
0.0
 10
26.405278862847219
 20
-75.094124348958331
 30
0.0
 10
27.454999457465274
 20
-76.974801974826377
 30
0.0
 10
28.608417426215276
 20
-78.785199652777777
 30
0.0
 10
29.766658528645831
 20
-80.603865559895823
 30
0.0
 10
31.031008572048609
 20
-82.354663085937489
 30
0.0
 10
32.424549696180556
 20
-83.994873046874986
 30
0.0
 10
33.817746310763887
 20
-85.637839084201374
 30
0.0
 10
35.34426812065972
 20
-87.174351671006931
 30
0.0
 10
37.037188042534716
 20
-88.517249891493051
 30
0.0
 10
38.729074435763884
 20
-89.86083713107638
 30
0.0
 10
40.591493055555553
 20
-91.012532552083329
 30
0.0
 10
42.587581380208327
 20
-91.823508029513874
 30
0.0
 10
43.594238281249993
 20
-92.228995768229154
 30
0.0
 10
44.633279079861104
 20
-92.549389648437497
 30
0.0
 10
45.69367947048611
 20
-92.768842230902763
 30
0.0
 10
46.756835937499993
 20
-92.983127170138886
 30
0.0
 10
47.838940429687497
 20
-93.096815321180543
 30
0.0
 10
48.92242296006944
 20
-93.096815321180543
 30
0.0
  0
SPLINE
  5
59
100
AcDbEntity
  8
LIVELLO_1
 62
     7
100
AcDbSpline
210
0.0
220
0.0
230
1.0
 70
     8
 71
     3
 72
     8
 73
     4
 74
     0
 42
0.00000001
 43
0.00000001
 40
0.0
 40
0.0
 40
0.0
 40
0.0
 40
1.0
 40
1.0
 40
1.0
 40
1.0
 10
66.741490342881931
 20
66.571819390190967
 30
0.0
 10
66.524104817708334
 20
67.093579101562497
 30
0.0
 10
66.011474609375
 20
67.437055121527777
 30
0.0
 10
65.442344835069434
 20
67.437055121527777
 30
0.0
  0
LINE
  5
58
100
AcDbEntity
  8
LIVELLO_1
 62
     7
100
AcDbLine
 10
65.442345
 20
67.437055
 30
0.0
 11
32.403879
 21
67.437055
 31
0.0
  0
LINE
  5
57
100
AcDbEntity
  8
LIVELLO_1
 62
     7
100
AcDbLine
 10
31.107145
 20
66.571819
 30
0.0
 11
-3.222542
 21
-16.316661
 31
0.0
  0
LINE
  5
56
100
AcDbEntity
  8
LIVELLO_1
 62
     7
100
AcDbLine
 10
-3.222542
 20
-17.38843
 30
0.0
 11
31.107145
 21
-100.274672
 31
0.0
  0
LINE
  5
55
100
AcDbEntity
  8
LIVELLO_1
 62
     7
100
AcDbLine
 10
32.403879
 20
-101.142147
 30
0.0
 11
65.442345
 21
-101.142147
 31
0.0
  0
LINE
  5
54
100
AcDbEntity
  8
LIVELLO_1
 62
     7
100
AcDbLine
 10
66.74149
 20
-100.274672
 30
0.0
 11
101.073589
 21
-17.38843
 31
0.0
  0
LINE
  5
53
100
AcDbEntity
  8
LIVELLO_1
 62
     7
100
AcDbLine
 10
101.073589
 20
-16.316661
 30
0.0
 11
66.74149
 21
66.571819
 31
0.0
  0
SPLINE
  5
52
100
AcDbEntity
  8
LIVELLO_1
 62
     7
100
AcDbSpline
210
0.0
220
0.0
230
1.0
 70
     8
 71
     3
 72
     8
 73
     4
 74
     0
 42
0.00000001
 43
0.00000001
 40
0.0
 40
0.0
 40
0.0
 40
0.0
 40
1.0
 40
1.0
 40
1.0
 40
1.0
 10
32.403879123263884
 20
67.437055121527777
 30
0.0
 10
31.834404839409718
 20
67.437055121527777
 30
0.0
 10
31.324186197916664
 20
67.093579101562497
 30
0.0
 10
31.107145182291664
 20
66.571819390190967
 30
0.0
  0
SPLINE
  5
51
100
AcDbEntity
  8
LIVELLO_1
 62
     7
100
AcDbSpline
210
0.0
220
0.0
230
1.0
 70
     8
 71
     3
 72
     8
 73
     4
 74
     0
 42
0.00000001
 43
0.00000001
 40
0.0
 40
0.0
 40
0.0
 40
0.0
 40
1.0
 40
1.0
 40
1.0
 40
1.0
 10
-3.2225423177083332
 20
-16.316661241319444
 30
0.0
 10
-3.3686143663194441
 20
-16.660137261284721
 30
0.0
 10
-3.3686143663194441
 20
-17.044954427083333
 30
0.0
 10
-3.2225423177083332
 20
-17.388430447048609
 30
0.0
  0
SPLINE
  5
50
100
AcDbEntity
  8
LIVELLO_1
 62
     7
100
AcDbSpline
210
0.0
220
0.0
230
1.0
 70
     8
 71
     3
 72
     8
 73
     4
 74
     0
 42
0.00000001
 43
0.00000001
 40
0.0
 40
0.0
 40
0.0
 40
0.0
 40
1.0
 40
1.0
 40
1.0
 40
1.0
 10
31.107145182291664
 20
-100.27467176649304
 30
0.0
 10
31.324186197916664
 20
-100.80108235677082
 30
0.0
 10
31.834404839409718
 20
-101.14214680989582
 30
0.0
 10
32.403879123263884
 20
-101.14214680989582
 30
0.0
  0
SPLINE
  5
4F
100
AcDbEntity
  8
LIVELLO_1
 62
     7
100
AcDbSpline
210
0.0
220
0.0
230
1.0
 70
     8
 71
     3
 72
     8
 73
     4
 74
     0
 42
0.00000001
 43
0.00000001
 40
0.0
 40
0.0
 40
0.0
 40
0.0
 40
1.0
 40
1.0
 40
1.0
 40
1.0
 10
65.442344835069434
 20
-101.14214680989582
 30
0.0
 10
66.011474609375
 20
-101.14214680989582
 30
0.0
 10
66.524104817708334
 20
-100.80108235677082
 30
0.0
 10
66.741490342881931
 20
-100.27467176649304
 30
0.0
  0
SPLINE
  5
4E
100
AcDbEntity
  8
LIVELLO_1
 62
     7
100
AcDbSpline
210
0.0
220
0.0
230
1.0
 70
     8
 71
     3
 72
     8
 73
     4
 74
     0
 42
0.00000001
 43
0.00000001
 40
0.0
 40
0.0
 40
0.0
 40
0.0
 40
1.0
 40
1.0
 40
1.0
 40
1.0
 10
101.07358940972222
 20
-17.388430447048609
 30
0.0
 10
101.21346028645833
 20
-17.044954427083333
 30
0.0
 10
101.21346028645833
 20
-16.660137261284721
 30
0.0
 10
101.07358940972222
 20
-16.316661241319444
 30
0.0
  0
CIRCLE
  5
4D
100
AcDbEntity
  8
LIVELLO_1
 62
     7
100
AcDbCircle
 10
-98.158866
 20
70.474424
 30
0.0
 40
0.211701
  0
CIRCLE
  5
4C
100
AcDbEntity
  8
LIVELLO_1
 62
     7
100
AcDbCircle
 10
-98.158866
 20
-98.107707
 30
0.0
 40
0.211701
  0
CIRCLE
  5
4B
100
AcDbEntity
  8
LIVELLO_1
 62
     7
100
AcDbCircle
 10
-100.967739
 20
69.061762
 30
0.0
 40
0.211787
  0
CIRCLE
  5
4A
100
AcDbEntity
  8
LIVELLO_1
 62
     7
100
AcDbCircle
 10
48.92449
 20
-96.927072
 30
0.0
 40
1.054544
  0
CIRCLE
  5
49
100
AcDbEntity
  8
LIVELLO_1
 62
     7
100
AcDbCircle
 10
48.923112
 20
-96.927072
 30
0.0
 40
1.732539
  0
CIRCLE
  5
48
100
AcDbEntity
  8
LIVELLO_1
 62
     7
100
AcDbCircle
 10
6.777536
 20
-16.85134
 30
0.0
 40
1.053166
  0
CIRCLE
  5
47
100
AcDbEntity
  8
LIVELLO_1
 62
     7
100
AcDbCircle
 10
6.777536
 20
-16.85134
 30
0.0
 40
1.732539
  0
CIRCLE
  5
46
100
AcDbEntity
  8
LIVELLO_1
 62
     7
100
AcDbCircle
 10
91.066621
 20
-16.85134
 30
0.0
 40
1.053855
  0
CIRCLE
  5
45
100
AcDbEntity
  8
LIVELLO_1
 62
     7
100
AcDbCircle
 10
91.068343
 20
-16.85134
 30
0.0
 40
1.732539
  0
CIRCLE
  5
44
100
AcDbEntity
  8
LIVELLO_1
 62
     7
100
AcDbCircle
 10
48.92449
 20
63.224565
 30
0.0
 40
1.054544
  0
CIRCLE
  5
43
100
AcDbEntity
  8
LIVELLO_1
 62
     7
100
AcDbCircle
 10
48.923112
 20
63.224565
 30
0.0
 40
1.732539
  0
LINE
  5
42
100
AcDbEntity
  8
LIVELLO_1
 62
     7
100
AcDbLine
 10
-28.457005
 20
70.474424
 30
0.0
 11
-20.123492
 21
70.474424
 31
0.0
  0
LINE
  5
41
100
AcDbEntity
  8
LIVELLO_1
 62
     7
100
AcDbLine
 10
-24.023684
 20
70.474424
 30
0.0
 11
-24.023684
 21
-12.199772
 31
0.0
  0
LINE
  5
40
100
AcDbEntity
  8
LIVELLO_1
 62
     7
100
AcDbLine
 10
-24.023684
 20
-30.171113
 30
0.0
 11
-24.023684
 21
-98.107707
 31
0.0
  0
MTEXT
  5
3F
100
AcDbEntity
  8
LIVELLO_1
 62
     7
100
AcDbMText
 10
-34.122293
 20
-14.039808
 30
0.0
 40
11.707113
 41
0.0
 71
     1
 72
     2
  1
\fMyriad Roman|b0|i0;\H11.7071;\W0.87;\C7;\U+0033\U+0036\U+0030
  7
STD
210
0.0
220
0.0
230
1.0
 73
     1
 44
1.0
  0
LINE
  5
3E
100
AcDbEntity
  8
LIVELLO_1
 62
     7
100
AcDbLine
 10
62.269412
 20
93.629772
 30
0.0
 11
98.903179
 21
93.629772
 31
0.0
  0
LINE
  5
3D
100
AcDbEntity
  8
LIVELLO_1
 62
     7
100
AcDbLine
 10
-4.994527
 20
93.629772
 30
0.0
 11
39.470114
 21
93.629772
 31
0.0
  0
LINE
  5
3C
100
AcDbEntity
  8
LIVELLO_1
 62
     7
100
AcDbLine
 10
-4.994527
 20
89.20024
 30
0.0
 11
-4.994527
 21
97.53496
 31
0.0
  0
CIRCLE
  5
3B
100
AcDbEntity
  8
LIVELLO_1
 62
     7
100
AcDbCircle
 10
-24.026785
 20
-98.107707
 30
0.0
 40
0.211184
  0
CIRCLE
  5
3A
100
AcDbEntity
  8
LIVELLO_1
 62
     7
100
AcDbCircle
 10
-98.158866
 20
-98.107707
 30
0.0
 40
0.211701
  0
CIRCLE
  5
39
100
AcDbEntity
  8
LIVELLO_1
 62
     7
100
AcDbCircle
 10
-98.158866
 20
70.474424
 30
0.0
 40
0.211701
  0
LINE
  5
38
100
AcDbEntity
  8
LIVELLO_1
 62
     7
100
AcDbLine
 10
-28.457005
 20
-98.107707
 30
0.0
 11
-20.123492
 21
-98.107707
 31
0.0
  0
MTEXT
  5
37
100
AcDbEntity
  8
LIVELLO_1
 62
     7
100
AcDbMText
 10
39.298893
 20
99.863317
 30
0.0
 40
11.707113
 41
0.0
 71
     1
 72
     2
  1
\fMyriad Roman|b0|i0;\H11.7071;\W0.87;\C7;\U+0032\U+0032\U+0033
  7
STD
210
0.0
220
0.0
230
1.0
 73
     1
 44
1.0
  0
LINE
  5
36
100
AcDbEntity
  8
LIVELLO_1
 62
     7
100
AcDbLine
 10
-91.282111
 20
91.550656
 30
0.0
 11
-100.970237
 21
91.496396
 31
0.0
  0
LINE
  5
35
100
AcDbEntity
  8
LIVELLO_1
 62
     7
100
AcDbLine
 10
-58.133919
 20
91.496396
 30
0.0
 11
-74.297274
 21
91.454883
 31
0.0
  0
LINE
  5
34
100
AcDbEntity
  8
LIVELLO_1
 62
     7
100
AcDbLine
 10
-58.133919
 20
89.151147
 30
0.0
 11
-58.133919
 21
95.396417
 31
0.0
  0
CIRCLE
  5
33
100
AcDbEntity
  8
LIVELLO_1
 62
     7
100
AcDbCircle
 10
98.904902
 20
93.629772
 30
0.0
 40
0.211184
  0
LINE
  5
32
100
AcDbEntity
  8
LIVELLO_1
 62
     7
100
AcDbLine
 10
98.903179
 20
89.20024
 30
0.0
 11
98.903179
 21
97.53496
 31
0.0
  0
MTEXT
  5
31
100
AcDbEntity
  8
LIVELLO_1
 62
     7
100
AcDbMText
 10
-90.474753
 20
97.347708
 30
0.0
 40
11.707113
 41
0.0
 71
     1
 72
     2
  1
\fMyriad Roman|b0|i0;\H11.7071;\W0.87;\C7;\U+0039\U+0030
  7
STD
210
0.0
220
0.0
230
1.0
 73
     1
 44
1.0
  0
CIRCLE
  5
30
100
AcDbEntity
  8
LIVELLO_1
 62
     7
100
AcDbCircle
 10
-100.967739
 20
69.061762
 30
0.0
 40
0.211787
  0
CIRCLE
  5
2F
100
AcDbEntity
  8
LIVELLO_1
 62
     7
100
AcDbCircle
 10
-58.137106
 20
10.144428
 30
0.0
 40
0.211098
  0
LINE
  5
2E
100
AcDbEntity
  8
LIVELLO_1
 62
     7
100
AcDbLine
 10
-100.970237
 20
89.151147
 30
0.0
 11
-100.970237
 21
95.396417
 31
0.0
  0
ELLIPSE
  5
2D
100
AcDbEntity
  8
LIVELLO_1
 62
     1
100
AcDbEllipse
 10
-100.967739
 20
91.496396
 30
0.0
 11
-0.0024976942274306
 21
-0.2144571940104167
 31
0.0
210
0.0
220
0.0
230
1.0
 40
0.987483
 41
0.0
 42
6.2831853071795862
  0
LINE
  5
2C
100
AcDbEntity
  8
LIVELLO_1
 62
     7
100
AcDbLine
 10
-58.133919
 20
4.976096
 30
0.0
 11
-58.133919
 21
10.144428
 31
0.0
  0
ENDBLK
  5
70
100
AcDbEntity
  8
LIVELLO_1
100
AcDbBlockEnd
  0
ENDSEC
  0
SECTION
  2
ENTITIES
  0
INSERT
  5
2A
100
AcDbEntity
  8
LIVELLO_1
 62
     7
100
AcDbBlockReference
  2
AI9-BLK1
 10
101.361599
 20
101.32577
 30
0.0
  0
ENDSEC
  0
SECTION
  2
OBJECTS
  0
DICTIONARY
  5
19
100
AcDbDictionary
280
     0
281
     1
  3
ACAD_GROUP
350
1A
  3
ACAD_MLINESTYLE
350
1B
  3
ACAD_LAYOUT
350
1E
  3
ACAD_PLOTSETTINGS
350
22
  3
ACAD_PLOTSTYLENAME
350
1F
  3
ACAD_WIPEOUT_VARS
350
23
  0
DICTIONARY
  5
1A
102
{ACAD_REACTORS
330
19
102
}
100
AcDbDictionary
280
     0
281
     1
  0
DICTIONARY
  5
1B
102
{ACAD_REACTORS
330
19
102
}
100
AcDbDictionary
280
     0
281
     1
  3
Standard
350
1C
  0
MLINESTYLE
  5
1C
102
{ACAD_REACTORS
330
1B
102
}
100
AcDbMlineStyle
  2
Standard
 70
     0
  3

 62
     0
 51
90.0
 52
90.0
 71
     2
 49
0.5
 62
   256
  6
ByLayer
 49
-0.5
 62
   256
  6
ByLayer
  0
ACDBDICTIONARYWDFLT
  5
1F
102
{ACAD_REACTORS
330
19
102
}
100
AcDbDictionary
281
     1
  3
Normal
350
1D
100
AcDbDictionaryWithDefault
340
1D
  0
ACDBPLACEHOLDER
  5
1D
102
{ACAD_REACTORS
330
1F
102
}
  0
LAYOUT
  5
20
102
{ACAD_REACTORS
330
1E
102
}
100
AcDbPlotSettings
  1

  2

  4

  6

 40
0.0
 41
0.0
 42
0.0
 43
0.0
 44
0.0
 45
0.0
 46
0.0
 47
0.0
 48
0.0
 49
0.0
140
0.0
141
0.0
142
1.0
143
1.0
 70
  1024
 72
     0
 73
     0
 74
     0
  7

 75
     0
147
1.0
148
0.0
149
0.0
100
AcDbLayout
  1
Model
 70
     0
 71
     0
 10
0.0
 20
0.0
 11
0.0
 21
0.0
 12
0.0
 22
0.0
 32
0.0
 14
0.0
 24
0.0
 34
0.0
 15
0.0
 25
0.0
 35
0.0
146
0.0
 13
0.0
 23
0.0
 33
0.0
 16
0.0
 26
0.0
 36
0.0
 17
0.0
 27
0.0
 37
0.0
 76
     0
330
A
331
0
345
0
346
0
  0
LAYOUT
  5
21
102
{ACAD_REACTORS
330
1E
102
}
100
AcDbPlotSettings
  1

  2

  4

  6

 40
0.0
 41
0.0
 42
0.0
 43
0.0
 44
0.0
 45
0.0
 46
0.0
 47
0.0
 48
0.0
 49
0.0
140
0.0
141
0.0
142
1.0
143
1.0
 70
     0
 72
     0
 73
     0
 74
     0
  7

 75
     0
147
1.0
148
0.0
149
0.0
100
AcDbLayout
  1
Layout1
 70
     0
 71
     0
 10
0.0
 20
0.0
 11
0.0
 21
0.0
 12
0.0
 22
0.0
 32
0.0
 14
0.0
 24
0.0
 34
0.0
 15
0.0
 25
0.0
 35
0.0
146
0.0
 13
0.0
 23
0.0
 33
0.0
 16
0.0
 26
0.0
 36
0.0
 17
0.0
 27
0.0
 37
0.0
 76
     0
330
B
331
0
345
0
346
0
  0
DICTIONARY
  5
1E
102
{ACAD_REACTORS
330
19
102
}
100
AcDbDictionary
280
     0
281
     1
  3
Layout1
350
21
  3
Model
350
20
  0
DICTIONARY
  5
22
102
{ACAD_REACTORS
330
19
102
}
100
AcDbDictionary
280
     0
281
     1
  0
WIPEOUTVARIABLES
  5
23
100
AcDbWipeoutVariables
 70
     1
  0
ENDSEC
  0
EOF
