  0
SECTION
  2
HEADER
  9
$ACADVER
  1
AC1015
  9
$ACADMAINTVER
 70
     6
  9
$DWGCODEPAGE
  3
ANSI_932
  9
$INSBASE
 10
0.0
 20
0.0
 30
0.0
  9
$EXTMIN
 10
0.0
 20
0.0
 30
1.000000E+20
  9
$EXTMAX
 10
264.330463
 20
245.117338
 30
-1.000000E+20
  9
$LIMMIN
 10
0.0
 20
0.0
  9
$LIMMAX
 10
264.330463
 20
245.117338
  9
$ORTHOMODE
 70
     0
  9
$REGENMODE
 70
     1
  9
$FILLMODE
 70
     1
  9
$QTEXTMODE
 70
     0
  9
$MIRRTEXT
 70
     1
  9
$LTSCALE
 40
1.0
  9
$ATTMODE
 70
     1
  9
$TEXTSIZE
 40
0.2
  9
$TRACEWID
 40
0.05
  9
$TEXTSTYLE
  7
Standard
  9
$CLAYER
  8
0
  9
$CELTYPE
  6
Continuous
  9
$CECOLOR
 62
   256
  9
$CELTSCALE
 40
1.0
  9
$DISPSILH
 70
     0
  9
$DIMSCALE
 40
1.0
  9
$DIMASZ
 40
0.18
  9
$DIMEXO
 40
0.0625
  9
$DIMDLI
 40
0.38
  9
$DIMRND
 40
0.0
  9
$DIMDLE
 40
0.0
  9
$DIMEXE
 40
0.18
  9
$DIMTP
 40
0.0
  9
$DIMTM
 40
0.0
  9
$DIMTXT
 40
0.18
  9
$DIMCEN
 40
0.09
  9
$DIMTSZ
 40
0.0
  9
$DIMTOL
 70
     0
  9
$DIMLIM
 70
     0
  9
$DIMTIH
 70
     1
  9
$DIMTOH
 70
     1
  9
$DIMSE1
 70
     0
  9
$DIMSE2
 70
     0
  9
$DIMTAD
 70
     0
  9
$DIMZIN
 70
     0
  9
$DIMBLK
  1

  9
$DIMASO
 70
     1
  9
$DIMSHO
 70
     1
  9
$DIMPOST
  1

  9
$DIMAPOST
  1

  9
$DIMALT
 70
     0
  9
$DIMALTD
 70
     2
  9
$DIMALTF
 40
25.4
  9
$DIMLFAC
 40
1.0
  9
$DIMTOFL
 70
     0
  9
$DIMTVP
 40
0.0
  9
$DIMTIX
 70
     0
  9
$DIMSOXD
 70
     0
  9
$DIMSAH
 70
     0
  9
$DIMBLK1
  1

  9
$DIMBLK2
  1

  9
$DIMSTYLE
  2
Standard
  9
$DIMCLRD
 70
     0
  9
$DIMCLRE
 70
     0
  9
$DIMCLRT
 70
     0
  9
$DIMTFAC
 40
1.0
  9
$DIMGAP
 40
0.09
  9
$DIMJUST
 70
     0
  9
$DIMSD1
 70
     0
  9
$DIMSD2
 70
     0
  9
$DIMTOLJ
 70
     1
  9
$DIMTZIN
 70
     0
  9
$DIMALTZ
 70
     0
  9
$DIMALTTZ
 70
     0
  9
$DIMUPT
 70
     0
  9
$DIMDEC
 70
     4
  9
$DIMTDEC
 70
     4
  9
$DIMALTU
 70
     2
  9
$DIMALTTD
 70
     2
  9
$DIMTXSTY
  7
Standard
  9
$DIMAUNIT
 70
     0
  9
$DIMADEC
 70
     0
  9
$DIMALTRND
 40
0.0
  9
$DIMAZIN
 70
     0
  9
$DIMDSEP
 70
     0
  9
$DIMATFIT
 70
     3
  9
$DIMFRAC
 70
     0
  9
$DIMLDRBLK
  1

  9
$DIMLUNIT
 70
     2
  9
$DIMLWD
 70
     0
  9
$DIMLWE
 70
     0
  9
$DIMTMOVE
 70
     0
  9
$LUNITS
 70
     2
  9
$LUPREC
 70
     4
  9
$SKETCHINC
 40
0.1
  9
$FILLETRAD
 40
0.0
  9
$AUNITS
 70
     0
  9
$AUPREC
 70
     0
  9
$MENU
  1
acad
  9
$ELEVATION
 40
0.0
  9
$PELEVATION
 40
0.0
  9
$THICKNESS
 40
0.0
  9
$LIMCHECK
 70
     0
  9
$CHAMFERA
 40
0.0
  9
$CHAMFERB
 40
0.0
  9
$CHAMFERC
 40
0.0
  9
$CHAMFERD
 40
0.0
  9
$SKPOLY
 70
     0
  9
$TDCREATE
 40
0.000000000
  9
$TDUCREATE
 40
0.000000000
  9
$TDUPDATE
 40
0.000000000
  9
$TDUUPDATE
 40
0.000000000
  9
$TDINDWG
 40
0.0000000000
  9
$TDUSRTIMER
 40
0.0000000000
  9
$USRTIMER
 70
     1
  9
$ANGBASE
 50
0.0
  9
$ANGDIR
 70
     0
  9
$PDMODE
 70
     0
  9
$PDSIZE
 40
0.0
  9
$PLINEWID
 40
0.0
  9
$SPLFRAME
 70
     0
  9
$SPLINETYPE
 70
     6
  9
$SPLINESEGS
 70
     8
  9
$HANDSEED
  5
A9
  9
$SURFTAB1
 70
     6
  9
$SURFTAB2
 70
     6
  9
$SURFTYPE
 70
     6
  9
$SURFU
 70
     6
  9
$SURFV
 70
     6
  9
$UCSBASE
  2

  9
$UCSNAME
  2

  9
$UCSORG
 10
0.0
 20
0.0
 30
0.0
  9
$UCSXDIR
 10
1.0
 20
0.0
 30
0.0
  9
$UCSYDIR
 10
0.0
 20
1.0
 30
0.0
  9
$UCSORTHOREF
  2

  9
$UCSORTHOVIEW
 70
     0
  9
$UCSORGTOP
 10
0.0
 20
0.0
 30
0.0
  9
$UCSORGBOTTOM
 10
0.0
 20
0.0
 30
0.0
  9
$UCSORGLEFT
 10
0.0
 20
0.0
 30
0.0
  9
$UCSORGRIGHT
 10
0.0
 20
0.0
 30
0.0
  9
$UCSORGFRONT
 10
0.0
 20
0.0
 30
0.0
  9
$UCSORGBACK
 10
0.0
 20
0.0
 30
0.0
  9
$PUCSBASE
  2

  9
$PUCSNAME
  2

  9
$PUCSORG
 10
0.0
 20
0.0
 30
0.0
  9
$PUCSXDIR
 10
1.0
 20
0.0
 30
0.0
  9
$PUCSYDIR
 10
0.0
 20
1.0
 30
0.0
  9
$PUCSORTHOREF
  2

  9
$PUCSORTHOVIEW
 70
     0
  9
$PUCSORGTOP
 10
0.0
 20
0.0
 30
0.0
  9
$PUCSORGBOTTOM
 10
0.0
 20
0.0
 30
0.0
  9
$PUCSORGLEFT
 10
0.0
 20
0.0
 30
0.0
  9
$PUCSORGRIGHT
 10
0.0
 20
0.0
 30
0.0
  9
$PUCSORGFRONT
 10
0.0
 20
0.0
 30
0.0
  9
$PUCSORGBACK
 10
0.0
 20
0.0
 30
0.0
  9
$USERI1
 70
     0
  9
$USERI2
 70
     0
  9
$USERI3
 70
     0
  9
$USERI4
 70
     0
  9
$USERI5
 70
     0
  9
$USERR1
 40
0.0
  9
$USERR2
 40
0.0
  9
$USERR3
 40
0.0
  9
$USERR4
 40
0.0
  9
$USERR5
 40
0.0
  9
$WORLDVIEW
 70
     1
  9
$SHADEDGE
 70
     3
  9
$SHADEDIF
 70
    70
  9
$TILEMODE
 70
     1
  9
$MAXACTVP
 70
    16
  9
$PINSBASE
 10
0.0
 20
0.0
 30
0.0
  9
$PLIMCHECK
 70
     0
  9
$PEXTMIN
 10
1.000000E+20
 20
1.000000E+20
 30
1.000000E+20
  9
$PEXTMAX
 10
-1.000000E+20
 20
-1.000000E+20
 30
-1.000000E+20
  9
$PLIMMIN
 10
0.0
 20
0.0
  9
$PLIMMAX
 10
12.0
 20
9.0
  9
$UNITMODE
 70
     0
  9
$VISRETAIN
 70
     0
  9
$PLINEGEN
 70
     1
  9
$PSLTSCALE
 70
     0
  9
$TREEDEPTH
 70
  3020
  9
$CMLSTYLE
  2
Standard
  9
$CMLJUST
 70
     0
  9
$CMLSCALE
 40
1.0
  9
$PROXYGRAPHICS
 70
     0
  9
$MEASUREMENT
 70
     1
  9
$CELWEIGHT
370
     0
  9
$ENDCAPS
280
     0
  9
$JOINSTYLE
280
     0
  9
$LWDISPLAY
290
     0
  9
$INSUNITS
 70
     0
  9
$HYPERLINKBASE
  1

  9
$STYLESHEET
  1

  9
$XEDIT
290
     1
  9
$CEPSNTYPE
380
     0
  9
$PSTYLEMODE
290
     1
  9
$FINGERPRINTGUID
  2

  9
$VERSIONGUID
  2

  9
$EXTNAMES
290
     1
  9
$PSVPSCALE
 40
0.0
  0
ENDSEC
  0
SECTION
  2
CLASSES
  0
CLASS
  1
LWPOLYLINE
  2
AcDbPolyline
  3
AutoCAD 2000
 90
    32768
280
     0
281
     1
  0
CLASS
  1
IMAGE
  2
AcDbRasterImage
  3
ISM
 90
    32895
280
     0
281
     1
  0
CLASS
  1
OLE2FRAME
  2
AcDbOle2Frame
  3
AutoCAD 2000
 90
    32768
280
     0
281
     1
  0
CLASS
  1
HATCH
  2
AcDbHatch
  3
AutoCAD 2000
 90
    32768
280
     0
281
     1
  0
CLASS
  1
DICTIONARYVAR
  2
AcDbDictionaryVar
  3
AutoCAD 2000
 90
    32768
280
     0
281
     0
  0
CLASS
  1
RASTERVARIABLES
  2
AcDbRasterVariables
  3
ISM
 90
    32768
280
     0
281
     0
  0
CLASS
  1
IMAGEDEF
  2
AcDbRasterImageDef
  3
ISM
 90
    32768
280
     0
281
     0
  0
CLASS
  1
IMAGEDEF_REACTOR
  2
AcDbRasterImageDefReactor
  3
ISM
 90
    32769
280
     0
281
     0
  0
CLASS
  1
IDBUFFER
  2
AcDbIdBuffer
  3
AutoCAD 2000
 90
    32768
280
     0
281
     0
  0
CLASS
  1
SPATIAL_FILTER
  2
AcDbSpatialFilter
  3
AutoCAD 2000
 90
    32768
280
     0
281
     0
  0
CLASS
  1
XRECORD
  2
AcDbXrecord
  3
AutoCAD 2000
 90
    32768
280
     0
281
     0
  0
CLASS
  1
SORTENTSTABLE
  2
AcDbSortentsTable
  3
AutoCAD 2000
 90
    32768
280
     0
281
     0
  0
CLASS
  1
LAYER_INDEX
  2
AcDbLayerIndex
  3
AutoCAD 2000
 90
    32768
280
     0
281
     0
  0
CLASS
  1
SPATIAL_INDEX
  2
AcDbSpatialIndex
  3
AutoCAD 2000
 90
    32768
280
     0
281
     0
  0
CLASS
  1
OBJECT_PTR
  2
CAseDLPNTableRecord
  3
"ASE-LPNTableRecord"
 90
    32769
280
     0
281
     0
  0
CLASS
  1
LAYOUT
  2
AcDbLayout
  3
AutoCAD 2000
 90
        0
280
     0
281
     0
  0
CLASS
  1
PLOTSETTINGS
  2
AcDbPlotSettings
  3
AutoCAD 2000
 90
    32768
280
     0
281
     0
  0
CLASS
  1
ACDBDICTIONARYWDFLT
  2
AcDbDictionaryWithDefault
  3
AutoCAD 2000
 90
        0
280
     0
281
     0
  0
CLASS
  1
ACDBPLACEHOLDER
  2
AcDbPlaceHolder
  3
AutoCAD 2000
 90
        0
280
     0
281
     0
  0
CLASS
  1
VBA_PROJECT
  2
AcDbVbaProject
  3
acadvba
 90
    32768
280
     0
281
     0
  0
CLASS
  1
WIPEOUT
  2
AcDbWipeout
  3
WipeOut|AutoCAD Express Tool|expresstools@autodesk.com
 90
    32895
280
     0
281
     1
  0
CLASS
  1
WIPEOUTVARIABLES
  2
AcDbWipeoutVariables
  3
WipeOut|AutoCAD Express Tool|expresstools@autodesk.com
 90
        0
280
     0
281
     0
  0
CLASS
  1
RTEXT
  2
RText
  3
RText|AutoCAD Express Tool|expresstools@autodesk.com
 90
    32768
280
     0
281
     1
  0
CLASS
  1
ARCALIGNEDTEXT
  2
AcDbArcAlignedText
  3
ATEXT|AutoCAD Express Tool|expresstools@autodesk.com
 90
    32768
280
     0
281
     1
  0
ENDSEC
  0
SECTION
  2
TABLES
  0
TABLE
  2
VPORT
  5
7
100
AcDbSymbolTable
 70
     1
  0
VPORT
  5
15
100
AcDbSymbolTableRecord
100
AcDbViewportTableRecord
  2
*ACTIVE
 70
     0
 10
0.0
 20
0.0
 11
1.0
 21
1.0
 12
6.591288
 22
4.579184
 13
0.0
 23
0.0
 14
1.0
 24
1.0
 15
0.0
 25
0.0
 16
0.0
 26
0.0
 36
1.0
 17
0.0
 27
0.0
 37
0.0
 40
9.158369
 41
0.688564
 42
50.0
 43
0.0
 44
0.0
 50
0.0
 51
0.0
 71
     0
 72
   100
 73
     1
 74
     1
 75
     0
 76
     0
 77
     0
 78
     0
281
     0
 65
     0
110
0.0
120
0.0
130
0.0
111
1.0
121
0.0
131
0.0
112
0.0
122
1.0
132
0.0
345
0
346
0
 79
     0
146
0.0
  0
ENDTAB
  0
TABLE
  2
LTYPE
  5
4
100
AcDbSymbolTable
 70
     3
  0
LTYPE
  5
11
100
AcDbSymbolTableRecord
100
AcDbLinetypeTableRecord
  2
ByBlock
 70
    64
  3

 72
    65
 73
     0
 40
0.0
  0
LTYPE
  5
12
100
AcDbSymbolTableRecord
100
AcDbLinetypeTableRecord
  2
ByLayer
 70
    64
  3

 72
    65
 73
     0
 40
0.0
  0
LTYPE
  5
13
100
AcDbSymbolTableRecord
100
AcDbLinetypeTableRecord
  2
Continuous
 70
    64
  3
Solid line
 72
    65
 73
     0
 40
0.0
  0
ENDTAB
  0
TABLE
  2
LAYER
  5
2
100
AcDbSymbolTable
 70
     2
  0
LAYER
  5
14
100
AcDbSymbolTableRecord
100
AcDbLayerTableRecord
  2
0
 70
     0
 62
     7
  6
Continuous
290
     1
370
    -3
390
1D
  0
LAYER
  5
28
100
AcDbSymbolTableRecord
100
AcDbLayerTableRecord
  2
LIVELLO_1
 70
     0
 62
   160
  6
Continuous
290
     1
370
    -3
390
1D
  0
ENDTAB
  0
TABLE
  2
STYLE
  5
3
100
AcDbSymbolTable
 70
     5
  0
STYLE
  5
17
100
AcDbSymbolTableRecord
100
AcDbTextStyleTableRecord
  2
Standard
 70
     0
 40
0.0
 41
1.0
 50
0.0
 71
     0
 42
0.0
  3
txt
  4

  0
STYLE
  5
24
100
AcDbSymbolTableRecord
100
AcDbTextStyleTableRecord
  2
STD
 70
     0
 40
0.0
 41
1.0
 50
0.0
 71
     0
 42
0.0
  3
txt
  4

  0
STYLE
  5
25
100
AcDbSymbolTableRecord
100
AcDbTextStyleTableRecord
  2
TATESTD
 70
     4
 40
0.0
 41
1.0
 50
0.0
 71
     0
 42
0.0
  3
txt
  4

  0
STYLE
  5
26
100
AcDbSymbolTableRecord
100
AcDbTextStyleTableRecord
  2
KANJISTD
 70
     0
 40
0.0
 41
1.0
 50
0.0
 71
     0
 42
0.0
  3
txt
  4
extfont
  0
STYLE
  5
27
100
AcDbSymbolTableRecord
100
AcDbTextStyleTableRecord
  2
KANJITATE
 70
     4
 40
0.0
 41
1.0
 50
0.0
 71
     0
 42
0.0
  3
txt
  4
extfont
  0
ENDTAB
  0
TABLE
  2
VIEW
  5
5
100
AcDbSymbolTable
 70
     0
  0
ENDTAB
  0
TABLE
  2
UCS
  5
6
100
AcDbSymbolTable
 70
     0
  0
ENDTAB
  0
TABLE
  2
APPID
  5
8
100
AcDbSymbolTable
 70
     1
  0
APPID
  5
16
100
AcDbSymbolTableRecord
100
AcDbRegAppTableRecord
  2
ACAD
 70
     0
  0
ENDTAB
  0
TABLE
  2
DIMSTYLE
  5
9
100
AcDbSymbolTable
 70
     1
100
AcDbDimStyleTable
 71
     0
  0
DIMSTYLE
105
18
100
AcDbSymbolTableRecord
100
AcDbDimStyleTableRecord
  2
Standard
 70
     0
  3

  4

 40
1.0
 41
0.18
 42
0.0625
 43
0.38
 44
0.18
 45
0.0
 46
0.0
 47
0.0
 48
0.0
 71
     0
 72
     0
 73
     1
 74
     1
 75
     0
 76
     0
 77
     0
 78
     0
 79
     0
140
0.18
141
0.09
142
0.0
143
25.4
144
1.0
145
0.0
146
1.0
147
0.09
148
0.0
170
     0
171
     2
172
     0
173
     0
174
     0
175
     0
176
     0
177
     0
178
     0
179
     0
271
     4
272
     4
273
     2
274
     2
275
     0
276
     0
277
     2
278
    46
279
     0
280
     0
281
     0
282
     0
283
     1
284
     0
285
     0
286
     0
288
     0
340
17
341
0
342
0
343
0
344
0
371
    -2
372
    -2
  0
ENDTAB
  0
TABLE
  2
BLOCK_RECORD
  5
1
100
AcDbSymbolTable
 70
     1
  0
BLOCK_RECORD
  5
A
100
AcDbSymbolTableRecord
100
AcDbBlockTableRecord
  2
*MODEL_SPACE
340
20
  0
BLOCK_RECORD
  5
B
100
AcDbSymbolTableRecord
100
AcDbBlockTableRecord
  2
*PAPER_SPACE
340
21
  0
BLOCK_RECORD
  5
29
100
AcDbSymbolTableRecord
100
AcDbBlockTableRecord
  2
AI9-BLK1
340
0
102
{BLKREFS
331
2A
102
}
  0
ENDTAB
  0
ENDSEC
  0
SECTION
  2
BLOCKS
  0
BLOCK
  5
D
100
AcDbEntity
  8
0
100
AcDbBlockBegin
  2
*MODEL_SPACE
 70
     0
 10
0.0
 20
0.0
 30
0.0
  3
*MODEL_SPACE
  1

  0
ENDBLK
  5
E
100
AcDbEntity
  8
0
100
AcDbBlockEnd
  0
BLOCK
  5
F
100
AcDbEntity
 67
     1
  8
0
100
AcDbBlockBegin
  2
*PAPER_SPACE
 70
     0
 10
0.0
 20
0.0
 30
0.0
  3
*PAPER_SPACE
  1

  0
ENDBLK
  5
10
100
AcDbEntity
 67
     1
  8
0
100
AcDbBlockEnd
  0
BLOCK
  5
2B
100
AcDbEntity
  8
LIVELLO_1
 62
     7
100
AcDbBlockBegin
  2
AI9-BLK1
 70
     0
 10
0.0
 20
0.0
 30
0.0
  3
AI9-BLK1
  1

  0
LINE
  5
A7
100
AcDbEntity
  8
LIVELLO_1
 62
     7
100
AcDbLine
 10
-130.77703
 20
-18.248412
 30
0.0
 11
-105.190479
 21
-18.248412
 31
0.0
  0
SPLINE
  5
A6
100
AcDbEntity
  8
LIVELLO_1
 62
     7
100
AcDbSpline
210
0.0
220
0.0
230
1.0
 70
     8
 71
     3
 72
     8
 73
     4
 74
     0
 42
0.00000001
 43
0.00000001
 40
0.0
 40
0.0
 40
0.0
 40
0.0
 40
1.0
 40
1.0
 40
1.0
 40
1.0
 10
74.498122829861103
 20
75.671952989366318
 30
0.0
 10
70.032245551215269
 20
77.315780300564228
 30
0.0
 10
65.124362521701386
 20
77.315780300564228
 30
0.0
 10
60.655384657118049
 20
75.671952989366318
 30
0.0
  0
SPLINE
  5
A5
100
AcDbEntity
  8
LIVELLO_1
 62
     7
100
AcDbSpline
210
0.0
220
0.0
230
1.0
 70
     8
 71
     3
 72
    53
 73
    49
 74
     0
 42
0.00000001
 43
0.00000001
 40
0.0
 40
0.0
 40
0.0
 40
0.0
 40
1.0
 40
1.0
 40
1.0
 40
2.0
 40
2.0
 40
2.0
 40
3.0
 40
3.0
 40
3.0
 40
4.0
 40
4.0
 40
4.0
 40
5.0
 40
5.0
 40
5.0
 40
6.0
 40
6.0
 40
6.0
 40
7.0
 40
7.0
 40
7.0
 40
8.0
 40
8.0
 40
8.0
 40
9.0
 40
9.0
 40
9.0
 40
10.0
 40
10.0
 40
10.0
 40
11.0
 40
11.0
 40
11.0
 40
12.0
 40
12.0
 40
12.0
 40
13.0
 40
13.0
 40
13.0
 40
14.0
 40
14.0
 40
14.0
 40
15.0
 40
15.0
 40
15.0
 40
16.0
 40
16.0
 40
16.0
 40
16.0
 10
76.803925238715266
 20
-108.72385457356769
 30
0.0
 10
81.153702799479163
 20
-106.62200181749131
 30
0.0
 10
84.889908854166663
 20
-103.27784762912326
 30
0.0
 10
88.025290256076374
 20
-99.560245090060761
 30
0.0
 10
89.600387912326383
 20
-97.693692355685755
 30
0.0
 10
91.019767252604154
 20
-95.735844590928806
 30
0.0
 10
92.340616861979157
 20
-93.703238254123249
 30
0.0
 10
93.650442165798609
 20
-91.670287407769095
 30
0.0
 10
94.861393229166652
 20
-89.568434651692698
 30
0.0
 10
95.976570638020831
 20
-87.413182915581586
 30
0.0
 10
98.205547417534717
 20
-83.115081787109361
 30
0.0
 10
100.07210015190971
 20
-78.638524712456586
 30
0.0
 10
101.66890190972221
 20
-74.070672607421869
 30
0.0
 10
103.26880425347221
 20
-69.506265597873252
 30
0.0
 10
104.59895562065971
 20
-64.847462972005204
 30
0.0
 10
105.71585557725693
 20
-60.144907633463539
 30
0.0
 10
106.8310329861111
 20
-55.439251708984372
 30
0.0
 10
107.72365722656249
 20
-50.683297390407979
 30
0.0
 10
108.43438042534721
 20
-45.902193874782981
 30
0.0
 10
109.14475911458332
 20
-41.121090359157982
 30
0.0
 10
109.66083441840277
 20
-36.312081570095479
 30
0.0
 10
110.00120985243055
 20
-31.493426513671871
 30
0.0
 10
110.34950900607637
 20
-26.674771457248262
 30
0.0
 10
110.51900770399304
 20
-21.840268961588539
 30
0.0
 10
110.51900770399304
 20
-17.005766465928819
 30
0.0
 10
110.51900770399304
 20
-12.174709065755208
 30
0.0
 10
110.34950900607637
 20
-7.3402065700954857
 30
0.0
 10
110.00120985243055
 20
-2.5184509277343747
 30
0.0
 10
109.66083441840277
 20
2.3002041286892361
 30
0.0
 10
109.14165852864582
 20
7.1061123318142352
 30
0.0
 10
108.43438042534721
 20
11.884115261501735
 30
0.0
 10
107.72365722656249
 20
16.668319363064235
 30
0.0
 10
106.82793240017359
 20
21.424273681640624
 30
0.0
 10
105.71585557725693
 20
26.129929606119788
 30
0.0
 10
104.59895562065971
 20
30.832484944661456
 30
0.0
 10
103.26880425347221
 20
35.488186984592012
 30
0.0
 10
101.66890190972221
 20
40.055866834852424
 30
0.0
 10
100.07210015190971
 20
44.623546685112842
 30
0.0
 10
98.205547417534717
 20
49.103376600477425
 30
0.0
 10
95.976570638020831
 20
53.401305474175345
 30
0.0
 10
94.861393229166652
 20
55.553284369574648
 30
0.0
 10
93.650442165798609
 20
57.655309380425344
 30
0.0
 10
92.340616861979157
 20
59.691188557942702
 30
0.0
 10
91.019767252604154
 20
61.724139404296871
 30
0.0
 10
89.600387912326383
 20
63.678542073567705
 30
0.0
 10
88.025290256076374
 20
65.545267062717002
 30
0.0
 10
84.889908854166663
 20
69.259596761067698
 30
0.0
 10
81.153702799479163
 20
72.607023790147565
 30
0.0
 10
76.803925238715266
 20
74.705775960286445
 30
0.0
  0
LINE
  5
A4
100
AcDbEntity
  8
LIVELLO_1
 62
     7
100
AcDbLine
 10
58.605208
 20
85.190063
 30
0.0
 11
60.398036
 21
85.190063
 31
0.0
  0
LINE
  5
A3
100
AcDbEntity
  8
LIVELLO_1
 62
     7
100
AcDbLine
 10
74.755471
 20
85.190063
 30
0.0
 11
76.540375
 21
85.190063
 31
0.0
  0
SPLINE
  5
A2
100
AcDbEntity
  8
LIVELLO_1
 62
     7
100
AcDbSpline
210
0.0
220
0.0
230
1.0
 70
     8
 71
     3
 72
    53
 73
    49
 74
     0
 42
0.00000001
 43
0.00000001
 40
0.0
 40
0.0
 40
0.0
 40
0.0
 40
1.0
 40
1.0
 40
1.0
 40
2.0
 40
2.0
 40
2.0
 40
3.0
 40
3.0
 40
3.0
 40
4.0
 40
4.0
 40
4.0
 40
5.0
 40
5.0
 40
5.0
 40
6.0
 40
6.0
 40
6.0
 40
7.0
 40
7.0
 40
7.0
 40
8.0
 40
8.0
 40
8.0
 40
9.0
 40
9.0
 40
9.0
 40
10.0
 40
10.0
 40
10.0
 40
11.0
 40
11.0
 40
11.0
 40
12.0
 40
12.0
 40
12.0
 40
13.0
 40
13.0
 40
13.0
 40
14.0
 40
14.0
 40
14.0
 40
15.0
 40
15.0
 40
15.0
 40
16.0
 40
16.0
 40
16.0
 40
16.0
 10
58.349582248263886
 20
74.705775960286445
 30
0.0
 10
53.999804687499996
 20
72.607023790147565
 30
0.0
 10
50.260498046874993
 20
69.259596761067698
 30
0.0
 10
47.127872721354166
 20
65.545267062717002
 30
0.0
 10
45.546918402777777
 20
63.678542073567705
 30
0.0
 10
44.130295138888883
 20
61.724139404296871
 30
0.0
 10
42.81426866319444
 20
59.691188557942702
 30
0.0
 10
41.499964735243054
 20
57.655309380425344
 30
0.0
 10
40.292114257812493
 20
55.553284369574648
 30
0.0
 10
39.176936848958327
 20
53.401305474175345
 30
0.0
 10
36.947960069444441
 20
49.103376600477425
 30
0.0
 10
35.081407335069443
 20
44.623546685112842
 30
0.0
 10
33.478059895833333
 20
40.055866834852424
 30
0.0
 10
31.884358723958332
 20
35.488186984592012
 30
0.0
 10
30.551106770833332
 20
30.832484944661456
 30
0.0
 10
29.440752495659719
 20
26.129929606119788
 30
0.0
 10
28.322129991319443
 20
21.424273681640624
 30
0.0
 10
27.423304578993054
 20
16.668319363064235
 30
0.0
 10
26.719127061631941
 20
11.884115261501735
 30
0.0
 10
26.008748372395832
 20
7.1061123318142352
 30
0.0
 10
25.492673068576387
 20
2.3002041286892361
 30
0.0
 10
25.15229763454861
 20
-2.5184509277343747
 30
0.0
 10
24.803998480902777
 20
-7.3402065700954857
 30
0.0
 10
24.634499782986108
 20
-12.174709065755208
 30
0.0
 10
24.634499782986108
 20
-17.005766465928819
 30
0.0
 10
24.634499782986108
 20
-21.840268961588539
 30
0.0
 10
24.803998480902777
 20
-26.674771457248262
 30
0.0
 10
25.15229763454861
 20
-31.493426513671871
 30
0.0
 10
25.492673068576387
 20
-36.312081570095479
 30
0.0
 10
26.008748372395832
 20
-41.121090359157982
 30
0.0
 10
26.719127061631941
 20
-45.902193874782981
 30
0.0
 10
27.423304578993054
 20
-50.683297390407979
 30
0.0
 10
28.322129991319443
 20
-55.439251708984372
 30
0.0
 10
29.440752495659719
 20
-60.144907633463539
 30
0.0
 10
30.551106770833332
 20
-64.847462972005204
 30
0.0
 10
31.884358723958332
 20
-69.506265597873252
 30
0.0
 10
33.478059895833333
 20
-74.070672607421869
 30
0.0
 10
35.081407335069443
 20
-78.638524712456586
 30
0.0
 10
36.947960069444441
 20
-83.115081787109361
 30
0.0
 10
39.176936848958327
 20
-87.413182915581586
 30
0.0
 10
40.292114257812493
 20
-89.568434651692698
 30
0.0
 10
41.499964735243054
 20
-91.673387993706584
 30
0.0
 10
42.81426866319444
 20
-93.703238254123249
 30
0.0
 10
44.130295138888883
 20
-95.735844590928806
 30
0.0
 10
45.546918402777777
 20
-97.693692355685755
 30
0.0
 10
47.127872721354166
 20
-99.560245090060761
 30
0.0
 10
50.260498046874993
 20
-103.27784762912326
 30
0.0
 10
53.999804687499996
 20
-106.62200181749131
 30
0.0
 10
58.349582248263886
 20
-108.72385457356769
 30
0.0
  0
SPLINE
  5
A1
100
AcDbEntity
  8
LIVELLO_1
 62
     7
100
AcDbSpline
210
0.0
220
0.0
230
1.0
 70
     8
 71
     3
 72
     8
 73
     4
 74
     0
 42
0.00000001
 43
0.00000001
 40
0.0
 40
0.0
 40
0.0
 40
0.0
 40
1.0
 40
1.0
 40
1.0
 40
1.0
 10
67.574514431423609
 20
-110.92285902235243
 30
0.0
 10
69.936471896701377
 20
-110.91355726453992
 30
0.0
 10
72.278447808159711
 20
-110.49945678710937
 30
0.0
 10
74.498122829861103
 20
-109.68675876193575
 30
0.0
  0
LINE
  5
A0
100
AcDbEntity
  8
LIVELLO_1
 62
     7
100
AcDbLine
 10
-87.589313
 20
79.467931
 30
0.0
 11
-90.02379
 21
83.241861
 31
0.0
  0
CIRCLE
  5
9F
100
AcDbEntity
  8
LIVELLO_1
 62
     7
100
AcDbCircle
 10
-73.018885
 20
17.656373
 30
0.0
 40
0.261913
  0
ELLIPSE
  5
9E
100
AcDbEntity
  8
LIVELLO_1
 62
     7
100
AcDbEllipse
 10
-130.773844
 20
83.841136
 30
0.0
 11
-0.0031867133246528
 21
-0.2635498046875
 31
0.0
210
0.0
220
0.0
230
1.0
 40
0.987836
 41
0.0
 42
6.2831853071795862
  0
CIRCLE
  5
9D
100
AcDbEntity
  8
LIVELLO_1
 62
     7
100
AcDbCircle
 10
-127.314365
 20
85.575913
 30
0.0
 40
0.259588
  0
CIRCLE
  5
9C
100
AcDbEntity
  8
LIVELLO_1
 62
     7
100
AcDbCircle
 10
-127.314365
 20
-122.072566
 30
0.0
 40
0.259588
  0
ELLIPSE
  5
9B
100
AcDbEntity
  8
LIVELLO_1
 62
     7
100
AcDbEllipse
 10
-130.773844
 20
83.841136
 30
0.0
 11
-0.0031867133246528
 21
-0.2635498046875
 31
0.0
210
0.0
220
0.0
230
1.0
 40
0.987836
 41
0.0
 42
6.2831853071795862
  0
SPLINE
  5
9A
100
AcDbEntity
  8
LIVELLO_1
 62
     7
100
AcDbSpline
210
0.0
220
0.0
230
1.0
 70
     8
 71
     3
 72
     8
 73
     4
 74
     0
 42
0.00000001
 43
0.00000001
 40
0.0
 40
0.0
 40
0.0
 40
0.0
 40
1.0
 40
1.0
 40
1.0
 40
1.0
 10
60.655384657118049
 20
79.383182101779511
 30
0.0
 10
60.572357855902773
 20
81.315708414713541
 30
0.0
 10
60.48278537326388
 20
83.254435899522562
 30
0.0
 10
60.398036024305547
 20
85.190062798394095
 30
0.0
  0
LINE
  5
99
100
AcDbEntity
  8
LIVELLO_1
 62
     7
100
AcDbLine
 10
58.349582
 20
72.428051
 30
0.0
 11
58.349582
 21
-20.930419
 31
0.0
  0
SPLINE
  5
98
100
AcDbEntity
  8
LIVELLO_1
 62
     7
100
AcDbSpline
210
0.0
220
0.0
230
1.0
 70
     8
 71
     3
 72
     8
 73
     4
 74
     0
 42
0.00000001
 43
0.00000001
 40
0.0
 40
0.0
 40
0.0
 40
0.0
 40
1.0
 40
1.0
 40
1.0
 40
1.0
 10
58.60520833333333
 20
85.190062798394095
 30
0.0
 10
58.522181532118047
 20
82.946961127387141
 30
0.0
 10
58.432609049479161
 20
80.703859456380201
 30
0.0
 10
58.349582248263886
 20
78.460930040147559
 30
0.0
  0
SPLINE
  5
97
100
AcDbEntity
  8
LIVELLO_1
 62
     7
100
AcDbSpline
210
0.0
220
0.0
230
1.0
 70
     8
 71
     3
 72
     8
 73
     4
 74
     0
 42
0.00000001
 43
0.00000001
 40
0.0
 40
0.0
 40
0.0
 40
0.0
 40
1.0
 40
1.0
 40
1.0
 40
1.0
 10
74.755471462673597
 20
85.190062798394095
 30
0.0
 10
74.664176432291654
 20
83.254435899522562
 30
0.0
 10
74.581149631076386
 20
81.315708414713541
 30
0.0
 10
74.498122829861103
 20
79.383182101779511
 30
0.0
  0
LINE
  5
96
100
AcDbEntity
  8
LIVELLO_1
 62
     7
100
AcDbLine
 10
76.803925
 20
72.428051
 30
0.0
 11
76.803925
 21
-20.930419
 31
0.0
  0
SPLINE
  5
95
100
AcDbEntity
  8
LIVELLO_1
 62
     7
100
AcDbSpline
210
0.0
220
0.0
230
1.0
 70
     8
 71
     3
 72
     8
 73
     4
 74
     0
 42
0.00000001
 43
0.00000001
 40
0.0
 40
0.0
 40
0.0
 40
0.0
 40
1.0
 40
1.0
 40
1.0
 40
1.0
 10
76.803925238715266
 20
78.460930040147559
 30
0.0
 10
76.720553927951386
 20
80.703859456380201
 30
0.0
 10
76.631325954861097
 20
82.946961127387141
 30
0.0
 10
76.540375434027766
 20
85.190062798394095
 30
0.0
  0
LINE
  5
94
100
AcDbEntity
  8
LIVELLO_1
 62
     7
100
AcDbLine
 10
74.786822
 20
-119.923515
 30
0.0
 11
76.518327
 21
-119.923515
 31
0.0
  0
LINE
  5
93
100
AcDbEntity
  8
LIVELLO_1
 62
     7
100
AcDbLine
 10
76.803925
 20
-112.475908
 30
0.0
 11
76.803925
 21
-20.930419
 31
0.0
  0
SPLINE
  5
92
100
AcDbEntity
  8
LIVELLO_1
 62
     7
100
AcDbSpline
210
0.0
220
0.0
230
1.0
 70
     8
 71
     3
 72
     8
 73
     4
 74
     0
 42
0.00000001
 43
0.00000001
 40
0.0
 40
0.0
 40
0.0
 40
0.0
 40
1.0
 40
1.0
 40
1.0
 40
1.0
 10
76.518326822916663
 20
-119.92351548936631
 30
0.0
 10
76.6189236111111
 20
-117.44201321072048
 30
0.0
 10
76.711252170138877
 20
-114.96051093207464
 30
0.0
 10
76.803925238715266
 20
-112.4759080674913
 30
0.0
  0
LINE
  5
91
100
AcDbEntity
  8
LIVELLO_1
 62
     7
100
AcDbLine
 10
74.498123
 20
-113.39816
 30
0.0
 11
74.498123
 21
-20.983818
 31
0.0
  0
SPLINE
  5
90
100
AcDbEntity
  8
LIVELLO_1
 62
     7
100
AcDbSpline
210
0.0
220
0.0
230
1.0
 70
     8
 71
     3
 72
     8
 73
     4
 74
     0
 42
0.00000001
 43
0.00000001
 40
0.0
 40
0.0
 40
0.0
 40
0.0
 40
1.0
 40
1.0
 40
1.0
 40
1.0
 10
74.498122829861103
 20
-113.39816012912326
 30
0.0
 10
74.59045138888888
 20
-115.57235989040798
 30
0.0
 10
74.691048177083331
 20
-117.74931572808158
 30
0.0
 10
74.786821831597209
 20
-119.92351548936631
 30
0.0
  0
LINE
  5
8F
100
AcDbEntity
  8
LIVELLO_1
 62
     7
100
AcDbLine
 10
58.349582
 20
-112.475908
 30
0.0
 11
58.349582
 21
-20.930419
 31
0.0
  0
LINE
  5
8E
100
AcDbEntity
  8
LIVELLO_1
 62
     7
100
AcDbLine
 10
60.655385
 20
-20.983818
 30
0.0
 11
60.655385
 21
-113.39816
 31
0.0
  0
LINE
  5
8D
100
AcDbEntity
  8
LIVELLO_1
 62
     7
100
AcDbLine
 10
60.369786
 20
-119.923515
 30
0.0
 11
58.635181
 21
-119.923515
 31
0.0
  0
SPLINE
  5
8C
100
AcDbEntity
  8
LIVELLO_1
 62
     7
100
AcDbSpline
210
0.0
220
0.0
230
1.0
 70
     8
 71
     3
 72
     8
 73
     4
 74
     0
 42
0.00000001
 43
0.00000001
 40
0.0
 40
0.0
 40
0.0
 40
0.0
 40
1.0
 40
1.0
 40
1.0
 40
1.0
 10
58.349582248263886
 20
-112.4759080674913
 30
0.0
 10
58.442255316840274
 20
-114.96051093207464
 30
0.0
 10
58.537684461805547
 20
-117.44201321072048
 30
0.0
 10
58.635180664062496
 20
-119.92351548936631
 30
0.0
  0
SPLINE
  5
8B
100
AcDbEntity
  8
LIVELLO_1
 62
     7
100
AcDbSpline
210
0.0
220
0.0
230
1.0
 70
     8
 71
     3
 72
     8
 73
     4
 74
     0
 42
0.00000001
 43
0.00000001
 40
0.0
 40
0.0
 40
0.0
 40
0.0
 40
1.0
 40
1.0
 40
1.0
 40
1.0
 10
60.369786241319439
 20
-119.92351548936631
 30
0.0
 10
60.462459309895827
 20
-117.74931572808158
 30
0.0
 10
60.56271158854166
 20
-115.57235989040798
 30
0.0
 10
60.655384657118049
 20
-113.39816012912326
 30
0.0
  0
LINE
  5
8A
100
AcDbEntity
  8
LIVELLO_1
 62
     7
100
AcDbLine
 10
76.803925
 20
-107.396804
 30
0.0
 11
76.803925
 21
-20.930419
 31
0.0
  0
LINE
  5
89
100
AcDbEntity
  8
LIVELLO_1
 62
     7
100
AcDbLine
 10
74.498123
 20
-20.983818
 30
0.0
 11
74.498123
 21
-108.403805
 31
0.0
  0
LINE
  5
88
100
AcDbEntity
  8
LIVELLO_1
 62
     7
100
AcDbLine
 10
76.803925
 20
-107.412651
 30
0.0
 11
76.827352
 21
-108.576404
 31
0.0
  0
LINE
  5
87
100
AcDbEntity
  8
LIVELLO_1
 62
     7
100
AcDbLine
 10
76.8463
 20
-108.698705
 30
0.0
 11
76.803925
 21
-112.475908
 31
0.0
  0
LINE
  5
86
100
AcDbEntity
  8
LIVELLO_1
 62
     7
100
AcDbLine
 10
76.803925
 20
-107.396804
 30
0.0
 11
76.827352
 21
-108.576404
 31
0.0
  0
LINE
  5
85
100
AcDbEntity
  8
LIVELLO_1
 62
     7
100
AcDbLine
 10
74.479175
 20
-109.571004
 30
0.0
 11
74.498123
 21
-108.403805
 31
0.0
  0
LINE
  5
84
100
AcDbEntity
  8
LIVELLO_1
 62
     7
100
AcDbLine
 10
74.452648
 20
-109.702606
 30
0.0
 11
74.498123
 21
-113.39816
 31
0.0
  0
LINE
  5
83
100
AcDbEntity
  8
LIVELLO_1
 62
     7
100
AcDbLine
 10
58.349582
 20
-107.412651
 30
0.0
 11
58.329256
 21
-108.576404
 31
0.0
  0
LINE
  5
82
100
AcDbEntity
  8
LIVELLO_1
 62
     7
100
AcDbLine
 10
58.307208
 20
-108.698705
 30
0.0
 11
58.349582
 21
-112.475908
 31
0.0
  0
LINE
  5
81
100
AcDbEntity
  8
LIVELLO_1
 62
     7
100
AcDbLine
 10
58.349582
 20
-107.396804
 30
0.0
 11
58.329256
 21
-108.576404
 31
0.0
  0
LINE
  5
80
100
AcDbEntity
  8
LIVELLO_1
 62
     7
100
AcDbLine
 10
60.673988
 20
-109.571004
 30
0.0
 11
60.655385
 21
-108.403805
 31
0.0
  0
LINE
  5
7F
100
AcDbEntity
  8
LIVELLO_1
 62
     7
100
AcDbLine
 10
60.697759
 20
-109.702606
 30
0.0
 11
60.655385
 21
-113.39816
 31
0.0
  0
LINE
  5
7E
100
AcDbEntity
  8
LIVELLO_1
 62
     7
100
AcDbLine
 10
76.803925
 20
78.46093
 30
0.0
 11
76.803925
 21
72.446999
 31
0.0
  0
LINE
  5
7D
100
AcDbEntity
  8
LIVELLO_1
 62
     7
100
AcDbLine
 10
76.803925
 20
72.446999
 30
0.0
 11
76.827352
 21
74.156628
 31
0.0
  0
LINE
  5
7C
100
AcDbEntity
  8
LIVELLO_1
 62
     7
100
AcDbLine
 10
76.827352
 20
74.156628
 30
0.0
 11
76.8463
 21
74.683727
 31
0.0
  0
LINE
  5
7B
100
AcDbEntity
  8
LIVELLO_1
 62
     7
100
AcDbLine
 10
76.8463
 20
74.683727
 30
0.0
 11
76.803925
 21
78.46093
 31
0.0
  0
LINE
  5
7A
100
AcDbEntity
  8
LIVELLO_1
 62
     7
100
AcDbLine
 10
76.803925
 20
72.428051
 30
0.0
 11
76.827352
 21
74.156628
 31
0.0
  0
LINE
  5
79
100
AcDbEntity
  8
LIVELLO_1
 62
     7
100
AcDbLine
 10
74.479175
 20
75.160529
 30
0.0
 11
74.498123
 21
73.4509
 31
0.0
  0
LINE
  5
78
100
AcDbEntity
  8
LIVELLO_1
 62
     7
100
AcDbLine
 10
74.479175
 20
75.160529
 30
0.0
 11
74.452648
 21
75.690729
 31
0.0
  0
LINE
  5
77
100
AcDbEntity
  8
LIVELLO_1
 62
     7
100
AcDbLine
 10
74.498123
 20
79.383182
 30
0.0
 11
74.498123
 21
73.4509
 31
0.0
  0
LINE
  5
76
100
AcDbEntity
  8
LIVELLO_1
 62
     7
100
AcDbLine
 10
58.349582
 20
78.46093
 30
0.0
 11
58.349582
 21
72.446999
 31
0.0
  0
LINE
  5
75
100
AcDbEntity
  8
LIVELLO_1
 62
     7
100
AcDbLine
 10
58.349582
 20
72.446999
 30
0.0
 11
58.329256
 21
74.156628
 31
0.0
  0
LINE
  5
74
100
AcDbEntity
  8
LIVELLO_1
 62
     7
100
AcDbLine
 10
58.329256
 20
74.156628
 30
0.0
 11
58.307208
 21
74.683727
 31
0.0
  0
LINE
  5
73
100
AcDbEntity
  8
LIVELLO_1
 62
     7
100
AcDbLine
 10
58.307208
 20
74.683727
 30
0.0
 11
58.349582
 21
78.46093
 31
0.0
  0
LINE
  5
72
100
AcDbEntity
  8
LIVELLO_1
 62
     7
100
AcDbLine
 10
58.349582
 20
72.428051
 30
0.0
 11
58.329256
 21
74.156628
 31
0.0
  0
LINE
  5
71
100
AcDbEntity
  8
LIVELLO_1
 62
     7
100
AcDbLine
 10
60.673988
 20
75.160529
 30
0.0
 11
60.655385
 21
73.4509
 31
0.0
  0
LINE
  5
70
100
AcDbEntity
  8
LIVELLO_1
 62
     7
100
AcDbLine
 10
60.673988
 20
75.160529
 30
0.0
 11
60.697759
 21
75.690729
 31
0.0
  0
LINE
  5
6F
100
AcDbEntity
  8
LIVELLO_1
 62
     7
100
AcDbLine
 10
60.655385
 20
79.383182
 30
0.0
 11
60.655385
 21
73.4509
 31
0.0
  0
LINE
  5
6E
100
AcDbEntity
  8
LIVELLO_1
 62
     7
100
AcDbLine
 10
76.803925
 20
72.428051
 30
0.0
 11
76.803925
 21
-20.930419
 31
0.0
  0
LINE
  5
6D
100
AcDbEntity
  8
LIVELLO_1
 62
     7
100
AcDbLine
 10
74.498123
 20
-20.983818
 30
0.0
 11
74.498123
 21
73.4509
 31
0.0
  0
LINE
  5
6C
100
AcDbEntity
  8
LIVELLO_1
 62
     7
100
AcDbLine
 10
58.349582
 20
72.428051
 30
0.0
 11
58.349582
 21
-20.930419
 31
0.0
  0
LINE
  5
6B
100
AcDbEntity
  8
LIVELLO_1
 62
     7
100
AcDbLine
 10
60.655385
 20
-20.983818
 30
0.0
 11
60.655385
 21
73.4509
 31
0.0
  0
SPLINE
  5
6A
100
AcDbEntity
  8
LIVELLO_1
 62
     7
100
AcDbSpline
210
0.0
220
0.0
230
1.0
 70
     8
 71
     3
 72
     8
 73
     4
 74
     0
 42
0.00000001
 43
0.00000001
 40
0.0
 40
0.0
 40
0.0
 40
0.0
 40
1.0
 40
1.0
 40
1.0
 40
1.0
 10
-75.147351074218747
 20
-22.740816921657984
 30
0.0
 10
-69.969544813368046
 20
11.827615695529513
 30
0.0
 10
-74.267473687065959
 20
47.152074517144094
 30
0.0
 10
-87.589313422309019
 20
79.467931450737836
 30
0.0
  0
SPLINE
  5
69
100
AcDbEntity
  8
LIVELLO_1
 62
     7
100
AcDbSpline
210
0.0
220
0.0
230
1.0
 70
     8
 71
     3
 72
    26
 73
    22
 74
     0
 42
0.00000001
 43
0.00000001
 40
0.0
 40
0.0
 40
0.0
 40
0.0
 40
1.0
 40
1.0
 40
1.0
 40
2.0
 40
2.0
 40
2.0
 40
3.0
 40
3.0
 40
3.0
 40
4.0
 40
4.0
 40
4.0
 40
5.0
 40
5.0
 40
5.0
 40
6.0
 40
6.0
 40
6.0
 40
7.0
 40
7.0
 40
7.0
 40
7.0
 10
-120.57179633246527
 20
-121.16891750759548
 30
0.0
 10
-117.15391710069443
 20
-117.20671318901908
 30
0.0
 10
-113.86781277126735
 20
-113.13461032443576
 30
0.0
 10
-110.76033664279512
 20
-108.92780422634547
 30
0.0
 10
-107.64838189019096
 20
-104.72065361870659
 30
0.0
 10
-104.71505533854166
 20
-100.37914428710937
 30
0.0
 10
-101.96225179036458
 20
-95.933593071831595
 30
0.0
 10
-99.206347656249989
 20
-91.485285780164929
 30
0.0
 10
-96.635445149739581
 20
-86.923634847005204
 30
0.0
 10
-94.252644856770829
 20
-82.265176730685752
 30
0.0
 10
-91.865365939670127
 20
-77.606374104817704
 30
0.0
 10
-89.670840115017356
 20
-72.853520372178806
 30
0.0
 10
-87.675613064236103
 20
-68.019362386067698
 30
0.0
 10
-85.677285427517347
 20
-63.178658718532979
 30
0.0
 10
-83.874983723958323
 20
-58.262507459852422
 30
0.0
 10
-82.279732259114581
 20
-53.277798800998262
 30
0.0
 10
-80.679829915364579
 20
-48.298946804470482
 30
0.0
 10
-79.279054090711796
 20
-43.254637993706595
 30
0.0
 10
-78.090151638454856
 20
-38.153485107421872
 30
0.0
 10
-76.8979763454861
 20
-33.058877902560759
 30
0.0
 10
-75.91595187717013
 20
-27.917072889539927
 30
0.0
 10
-75.141149902343741
 20
-22.740816921657984
 30
0.0
  0
CIRCLE
  5
68
100
AcDbEntity
  8
LIVELLO_1
 62
     7
100
AcDbCircle
 10
67.578304
 20
-115.638161
 30
0.0
 40
1.298112
  0
CIRCLE
  5
67
100
AcDbEntity
  8
LIVELLO_1
 62
     7
100
AcDbCircle
 10
67.575203
 20
-115.638161
 30
0.0
 40
2.132514
  0
CIRCLE
  5
66
100
AcDbEntity
  8
LIVELLO_1
 62
     7
100
AcDbCircle
 10
15.664677
 20
-17.005766
 30
0.0
 40
1.29794
  0
CIRCLE
  5
65
100
AcDbEntity
  8
LIVELLO_1
 62
     7
100
AcDbCircle
 10
15.662265
 20
-17.005766
 30
0.0
 40
2.133375
  0
CIRCLE
  5
64
100
AcDbEntity
  8
LIVELLO_1
 62
     7
100
AcDbCircle
 10
119.488831
 20
-17.005766
 30
0.0
 40
1.29794
  0
CIRCLE
  5
63
100
AcDbEntity
  8
LIVELLO_1
 62
     7
100
AcDbCircle
 10
119.486419
 20
-17.005766
 30
0.0
 40
2.134753
  0
CIRCLE
  5
62
100
AcDbEntity
  8
LIVELLO_1
 62
     7
100
AcDbCircle
 10
67.578304
 20
81.623183
 30
0.0
 40
1.298112
  0
CIRCLE
  5
61
100
AcDbEntity
  8
LIVELLO_1
 62
     7
100
AcDbCircle
 10
67.575203
 20
81.623183
 30
0.0
 40
2.132514
  0
LINE
  5
60
100
AcDbEntity
  8
LIVELLO_1
 62
     7
100
AcDbLine
 10
-22.043099
 20
-27.989075
 30
0.0
 11
-22.043099
 21
-122.072566
 31
0.0
  0
LINE
  5
5F
100
AcDbEntity
  8
LIVELLO_1
 62
     7
100
AcDbLine
 10
-22.043099
 20
85.575913
 30
0.0
 11
-22.043099
 21
-8.425756
 31
0.0
  0
LINE
  5
5E
100
AcDbEntity
  8
LIVELLO_1
 62
     7
100
AcDbLine
 10
-27.503403
 20
85.575913
 30
0.0
 11
-17.237191
 21
85.575913
 31
0.0
  0
MTEXT
  5
5D
100
AcDbEntity
  8
LIVELLO_1
 62
     7
100
AcDbMText
 10
-35.593693
 20
-9.546766
 30
0.0
 40
14.42016
 41
0.0
 71
     1
 72
     2
  1
\fMyriad Roman|b0|i0;\H14.4202;\W0.87;\C7;\U+0033\U+0036\U+0030
  7
STD
210
0.0
220
0.0
230
1.0
 73
     1
 44
1.0
  0
LINE
  5
5C
100
AcDbEntity
  8
LIVELLO_1
 62
     7
100
AcDbLine
 10
83.917358
 20
110.986938
 30
0.0
 11
128.18718
 21
110.986938
 31
0.0
  0
LINE
  5
5B
100
AcDbEntity
  8
LIVELLO_1
 62
     7
100
AcDbLine
 10
0.213251
 20
110.986938
 30
0.0
 11
53.261176
 21
110.986938
 31
0.0
  0
LINE
  5
5A
100
AcDbEntity
  8
LIVELLO_1
 62
     7
100
AcDbLine
 10
0.213251
 20
105.528184
 30
0.0
 11
0.213251
 21
115.789918
 31
0.0
  0
CIRCLE
  5
59
100
AcDbEntity
  8
LIVELLO_1
 62
     7
100
AcDbCircle
 10
-22.045683
 20
-122.072566
 30
0.0
 40
0.259588
  0
CIRCLE
  5
58
100
AcDbEntity
  8
LIVELLO_1
 62
     7
100
AcDbCircle
 10
-127.314365
 20
-122.072566
 30
0.0
 40
0.259588
  0
CIRCLE
  5
57
100
AcDbEntity
  8
LIVELLO_1
 62
     7
100
AcDbCircle
 10
-127.314365
 20
85.575913
 30
0.0
 40
0.259588
  0
LINE
  5
56
100
AcDbEntity
  8
LIVELLO_1
 62
     7
100
AcDbLine
 10
-27.503403
 20
-122.072566
 30
0.0
 11
-17.237191
 21
-122.072566
 31
0.0
  0
MTEXT
  5
55
100
AcDbEntity
  8
LIVELLO_1
 62
     7
100
AcDbMText
 10
54.767372
 20
117.806012
 30
0.0
 40
14.42016
 41
0.0
 71
     1
 72
     2
  1
\fMyriad Roman|b0|i0;\H14.4202;\W0.87;\C7;\U+0032\U+0032\U+0033
  7
STD
210
0.0
220
0.0
230
1.0
 73
     1
 44
1.0
  0
ELLIPSE
  5
54
100
AcDbEntity
  8
LIVELLO_1
 62
     7
100
AcDbEllipse
 10
128.190453
 20
110.986938
 30
0.0
 11
-0.0032728407118056
 21
-0.2635498046875
 31
0.0
210
0.0
220
0.0
230
1.0
 40
0.987506
 41
0.0
 42
6.2831853071795862
  0
LINE
  5
53
100
AcDbEntity
  8
LIVELLO_1
 62
     7
100
AcDbLine
 10
128.18718
 20
105.528184
 30
0.0
 11
128.18718
 21
115.789918
 31
0.0
  0
SPLINE
  5
52
100
AcDbEntity
  8
LIVELLO_1
 62
     7
100
AcDbSpline
210
0.0
220
0.0
230
1.0
 70
     8
 71
     3
 72
     8
 73
     4
 74
     0
 42
0.00000001
 43
0.00000001
 40
0.0
 40
0.0
 40
0.0
 40
0.0
 40
1.0
 40
1.0
 40
1.0
 40
1.0
 10
45.742944335937494
 20
-119.60036553276909
 30
0.0
 10
46.006494140624994
 20
-120.24976603190103
 30
0.0
 10
46.640047200520826
 20
-120.67006768120659
 30
0.0
 10
47.336645507812499
 20
-120.67006768120659
 30
0.0
  0
LINE
  5
51
100
AcDbEntity
  8
LIVELLO_1
 62
     7
100
AcDbLine
 10
47.336646
 20
-120.670068
 30
0.0
 11
87.813761
 21
-120.670068
 31
0.0
  0
SPLINE
  5
50
100
AcDbEntity
  8
LIVELLO_1
 62
     7
100
AcDbSpline
210
0.0
220
0.0
230
1.0
 70
     8
 71
     3
 72
     8
 73
     4
 74
     0
 42
0.00000001
 43
0.00000001
 40
0.0
 40
0.0
 40
0.0
 40
0.0
 40
1.0
 40
1.0
 40
1.0
 40
1.0
 10
87.813761393229157
 20
-120.67006768120659
 30
0.0
 10
88.513115776909714
 20
-120.67006768120659
 30
0.0
 10
89.143912760416654
 20
-120.24976603190103
 30
0.0
 10
89.41366373697916
 20
-119.60036553276909
 30
0.0
  0
SPLINE
  5
4F
100
AcDbEntity
  8
LIVELLO_1
 62
     7
100
AcDbSpline
210
0.0
220
0.0
230
1.0
 70
     8
 71
     3
 72
     8
 73
     4
 74
     0
 42
0.00000001
 43
0.00000001
 40
0.0
 40
0.0
 40
0.0
 40
0.0
 40
1.0
 40
1.0
 40
1.0
 40
1.0
 10
131.81073133680553
 20
-17.667913818359374
 30
0.0
 10
131.98470865885415
 20
-17.244511583116317
 30
0.0
 10
131.98470865885415
 20
-16.770466444227431
 30
0.0
 10
131.81073133680553
 20
-16.343963623046875
 30
0.0
  0
SPLINE
  5
4E
100
AcDbEntity
  8
LIVELLO_1
 62
     7
100
AcDbSpline
210
0.0
220
0.0
230
1.0
 70
     8
 71
     3
 72
     8
 73
     4
 74
     0
 42
0.00000001
 43
0.00000001
 40
0.0
 40
0.0
 40
0.0
 40
0.0
 40
1.0
 40
1.0
 40
1.0
 40
1.0
 10
87.923659939236103
 20
-120.83026462131075
 30
0.0
 10
88.62301432291666
 20
-120.83026462131075
 30
0.0
 10
89.252088758680543
 20
-120.40961846245659
 30
0.0
 10
89.518739149305546
 20
-119.76331854926214
 30
0.0
  0
SPLINE
  5
4D
100
AcDbEntity
  8
LIVELLO_1
 62
     7
100
AcDbSpline
210
0.0
220
0.0
230
1.0
 70
     8
 71
     3
 72
     8
 73
     4
 74
     0
 42
0.00000001
 43
0.00000001
 40
0.0
 40
0.0
 40
0.0
 40
0.0
 40
1.0
 40
1.0
 40
1.0
 40
1.0
 10
45.634768337673606
 20
-119.76331854926214
 30
0.0
 10
45.901418728298609
 20
-120.40961846245659
 30
0.0
 10
46.530148654513887
 20
-120.83026462131075
 30
0.0
 10
47.231570095486106
 20
-120.83026462131075
 30
0.0
  0
SPLINE
  5
4C
100
AcDbEntity
  8
LIVELLO_1
 62
     7
100
AcDbSpline
210
0.0
220
0.0
230
1.0
 70
     8
 71
     3
 72
     8
 73
     4
 74
     0
 42
0.00000001
 43
0.00000001
 40
0.0
 40
0.0
 40
0.0
 40
0.0
 40
1.0
 40
1.0
 40
1.0
 40
1.0
 10
3.3427761501736106
 20
-16.343963623046875
 30
0.0
 10
3.1684543185763885
 20
-16.770466444227431
 30
0.0
 10
3.1684543185763885
 20
-17.244511583116317
 30
0.0
 10
3.3427761501736106
 20
-17.667913818359374
 30
0.0
  0
SPLINE
  5
4B
100
AcDbEntity
  8
LIVELLO_1
 62
     7
100
AcDbSpline
210
0.0
220
0.0
230
1.0
 70
     8
 71
     3
 72
     8
 73
     4
 74
     0
 42
0.00000001
 43
0.00000001
 40
0.0
 40
0.0
 40
0.0
 40
0.0
 40
1.0
 40
1.0
 40
1.0
 40
1.0
 10
47.231570095486106
 20
86.818214925130206
 30
0.0
 10
46.530148654513887
 20
86.818214925130206
 30
0.0
 10
45.901418728298609
 20
86.394640435112834
 30
0.0
 10
45.634768337673606
 20
85.748512776692706
 30
0.0
  0
LINE
  5
4A
100
AcDbEntity
  8
LIVELLO_1
 62
     7
100
AcDbLine
 10
131.810731
 20
-16.343964
 30
0.0
 11
89.518739
 21
85.748513
 31
0.0
  0
LINE
  5
49
100
AcDbEntity
  8
LIVELLO_1
 62
     7
100
AcDbLine
 10
89.518739
 20
-119.763319
 30
0.0
 11
131.810731
 21
-17.667914
 31
0.0
  0
LINE
  5
48
100
AcDbEntity
  8
LIVELLO_1
 62
     7
100
AcDbLine
 10
47.23157
 20
-120.830265
 30
0.0
 11
87.92366
 21
-120.830265
 31
0.0
  0
LINE
  5
47
100
AcDbEntity
  8
LIVELLO_1
 62
     7
100
AcDbLine
 10
3.342776
 20
-17.667914
 30
0.0
 11
45.634768
 21
-119.763319
 31
0.0
  0
LINE
  5
46
100
AcDbEntity
  8
LIVELLO_1
 62
     7
100
AcDbLine
 10
45.634768
 20
85.748513
 30
0.0
 11
3.342776
 21
-16.343964
 31
0.0
  0
SPLINE
  5
45
100
AcDbEntity
  8
LIVELLO_1
 62
     7
100
AcDbSpline
210
0.0
220
0.0
230
1.0
 70
     8
 71
     3
 72
    11
 73
     7
 74
     0
 42
0.00000001
 43
0.00000001
 40
0.0
 40
0.0
 40
0.0
 40
0.0
 40
1.0
 40
1.0
 40
1.0
 40
2.0
 40
2.0
 40
2.0
 40
2.0
 10
89.518739149305546
 20
85.748512776692706
 30
0.0
 10
89.252088758680543
 20
86.394640435112834
 30
0.0
 10
88.62301432291666
 20
86.818214925130206
 30
0.0
 10
87.923659939236103
 20
86.818214925130206
 30
0.0
 10
87.923659939236103
 20
86.818214925130206
 30
0.0
 10
47.231570095486106
 20
86.818214925130206
 30
0.0
 10
47.231570095486106
 20
86.818214925130206
 30
0.0
  0
SPLINE
  5
44
100
AcDbEntity
  8
LIVELLO_1
 62
     7
100
AcDbSpline
210
0.0
220
0.0
230
1.0
 70
     8
 71
     3
 72
     8
 73
     4
 74
     0
 42
0.00000001
 43
0.00000001
 40
0.0
 40
0.0
 40
0.0
 40
0.0
 40
1.0
 40
1.0
 40
1.0
 40
1.0
 10
60.655384657118049
 20
-109.68675876193575
 30
0.0
 10
62.874715169270829
 20
-110.49945678710937
 30
0.0
 10
65.216691080729163
 20
-110.91355726453992
 30
0.0
 10
67.574514431423609
 20
-110.92285902235243
 30
0.0
  0
SPLINE
  5
43
100
AcDbEntity
  8
LIVELLO_1
 62
     7
100
AcDbSpline
210
0.0
220
0.0
230
1.0
 70
     8
 71
     3
 72
    11
 73
     7
 74
     0
 42
0.00000001
 43
0.00000001
 40
0.0
 40
0.0
 40
0.0
 40
0.0
 40
1.0
 40
1.0
 40
1.0
 40
2.0
 40
2.0
 40
2.0
 40
2.0
 10
-89.915614149305554
 20
83.947761366102426
 30
0.0
 10
-89.870138888888874
 20
84.261437310112839
 30
0.0
 10
-90.088213433159709
 20
84.553236897786448
 30
0.0
 10
-90.40343967013888
 20
84.606635877821176
 30
0.0
 10
-90.425316026475684
 20
84.606635877821176
 30
0.0
 10
-90.448914930555546
 20
84.609736463758679
 30
0.0
 10
-90.47079128689235
 20
84.609736463758679
 30
0.0
  0
LINE
  5
42
100
AcDbEntity
  8
LIVELLO_1
 62
     7
100
AcDbLine
 10
-127.310403
 20
85.575913
 30
0.0
 11
-90.470791
 21
84.609736
 31
0.0
  0
LINE
  5
41
100
AcDbEntity
  8
LIVELLO_1
 62
     7
100
AcDbLine
 10
-90.02379
 20
83.241861
 30
0.0
 11
-89.915614
 21
83.947761
 31
0.0
  0
LINE
  5
40
100
AcDbEntity
  8
LIVELLO_1
 62
     7
100
AcDbLine
 10
-90.02379
 20
83.241861
 30
0.0
 11
-105.135529
 21
-17.893568
 31
0.0
  0
LINE
  5
3F
100
AcDbEntity
  8
LIVELLO_1
 62
     7
100
AcDbLine
 10
-105.267304
 20
-18.778268
 30
0.0
 11
-120.504445
 21
-120.707619
 31
0.0
  0
LINE
  5
3E
100
AcDbEntity
  8
LIVELLO_1
 62
     7
100
AcDbLine
 10
-120.504445
 20
-120.707619
 30
0.0
 11
-120.612621
 21
-121.426266
 31
0.0
  0
SPLINE
  5
3D
100
AcDbEntity
  8
LIVELLO_1
 62
     7
100
AcDbSpline
210
0.0
220
0.0
230
1.0
 70
     8
 71
     3
 72
    14
 73
    10
 74
     0
 42
0.00000001
 43
0.00000001
 40
0.0
 40
0.0
 40
0.0
 40
0.0
 40
1.0
 40
1.0
 40
1.0
 40
2.0
 40
2.0
 40
2.0
 40
3.0
 40
3.0
 40
3.0
 40
3.0
 10
-127.3104031032986
 20
-121.00561998155381
 30
0.0
 10
-127.3104031032986
 20
-121.00561998155381
 30
0.0
 10
-127.3104031032986
 20
-122.07256605360242
 30
0.0
 10
-127.3104031032986
 20
-122.07256605360242
 30
0.0
 10
-127.3104031032986
 20
-122.07256605360242
 30
0.0
 10
-121.16952039930554
 20
-121.91236911349826
 30
0.0
 10
-121.16952039930554
 20
-121.91236911349826
 30
0.0
 10
-120.88564453124999
 20
-121.90616794162325
 30
0.0
 10
-120.65189480251735
 20
-121.69911770290797
 30
0.0
 10
-120.61262071397569
 20
-121.42626614040798
 30
0.0
  0
LINE
  5
3C
100
AcDbEntity
  8
LIVELLO_1
 62
     7
100
AcDbLine
 10
-130.77703
 20
-121.407318
 30
0.0
 11
-130.77703
 21
-120.337616
 31
0.0
  0
LINE
  5
3B
100
AcDbEntity
  8
LIVELLO_1
 62
     7
100
AcDbLine
 10
-127.310403
 20
84.506211
 30
0.0
 11
-127.310403
 21
85.575913
 31
0.0
  0
LINE
  5
3A
100
AcDbEntity
  8
LIVELLO_1
 62
     7
100
AcDbLine
 10
-130.77703
 20
83.841136
 30
0.0
 11
-130.77703
 21
84.907737
 31
0.0
  0
LINE
  5
39
100
AcDbEntity
  8
LIVELLO_1
 62
     7
100
AcDbLine
 10
-127.310403
 20
-18.913316
 30
0.0
 11
-127.310403
 21
-121.00562
 31
0.0
  0
LINE
  5
38
100
AcDbEntity
  8
LIVELLO_1
 62
     7
100
AcDbLine
 10
-130.77703
 20
-120.337616
 30
0.0
 11
-130.77703
 21
-18.248412
 31
0.0
  0
LINE
  5
37
100
AcDbEntity
  8
LIVELLO_1
 62
     7
100
AcDbLine
 10
-127.310403
 20
-121.498269
 30
0.0
 11
-130.77703
 21
-121.407318
 31
0.0
  0
LINE
  5
36
100
AcDbEntity
  8
LIVELLO_1
 62
     7
100
AcDbLine
 10
-127.310403
 20
84.506211
 30
0.0
 11
-127.310403
 21
-18.913316
 31
0.0
  0
LINE
  5
35
100
AcDbEntity
  8
LIVELLO_1
 62
     7
100
AcDbLine
 10
-130.77703
 20
-18.248412
 30
0.0
 11
-130.77703
 21
83.841136
 31
0.0
  0
LINE
  5
34
100
AcDbEntity
  8
LIVELLO_1
 62
     7
100
AcDbLine
 10
-127.310403
 20
84.998688
 30
0.0
 11
-130.77703
 21
84.907737
 31
0.0
  0
SPLINE
  5
33
100
AcDbEntity
  8
LIVELLO_1
 62
     7
100
AcDbSpline
210
0.0
220
0.0
230
1.0
 70
     8
 71
     3
 72
    11
 73
     7
 74
     0
 42
0.00000001
 43
0.00000001
 40
0.0
 40
0.0
 40
0.0
 40
0.0
 40
1.0
 40
1.0
 40
1.0
 40
2.0
 40
2.0
 40
2.0
 40
2.0
 10
-119.18376736111109
 20
-111.87990654839409
 30
0.0
 10
-98.486322699652774
 20
-85.872880723741318
 30
0.0
 10
-85.002735731336799
 20
-54.874600558810762
 30
0.0
 10
-80.088479275173597
 20
-22.000121392144095
 30
0.0
 10
-75.175600857204856
 20
10.870912679036458
 30
0.0
 10
-79.006202528211801
 20
44.460421413845481
 30
0.0
 10
-91.200290256076386
 20
75.380153401692695
 30
0.0
  0
LINE
  5
32
100
AcDbEntity
  8
LIVELLO_1
 62
     7
100
AcDbLine
 10
-73.017249
 20
5.936158
 30
0.0
 11
-73.017249
 21
17.656373
 31
0.0
  0
LINE
  5
31
100
AcDbEntity
  8
LIVELLO_1
 62
     7
100
AcDbLine
 10
-131.680507
 20
108.091335
 30
0.0
 11
-131.680507
 21
118.356169
 31
0.0
  0
CIRCLE
  5
30
100
AcDbEntity
  8
LIVELLO_1
 62
     7
100
AcDbCircle
 10
-131.680593
 20
113.546816
 30
0.0
 40
0.260363
  0
LINE
  5
2F
100
AcDbEntity
  8
LIVELLO_1
 62
     7
100
AcDbLine
 10
-74.4337
 20
108.091335
 30
0.0
 11
-74.4337
 21
118.356169
 31
0.0
  0
LINE
  5
2E
100
AcDbEntity
  8
LIVELLO_1
 62
     7
100
AcDbLine
 10
-74.4337
 20
113.546816
 30
0.0
 11
-89.542338
 21
113.546816
 31
0.0
  0
LINE
  5
2D
100
AcDbEntity
  8
LIVELLO_1
 62
     7
100
AcDbLine
 10
-119.023743
 20
113.515466
 30
0.0
 11
-131.680507
 21
113.546816
 31
0.0
  0
MTEXT
  5
2C
100
AcDbEntity
  8
LIVELLO_1
 62
     7
100
AcDbMText
 10
-118.595001
 20
120.758114
 30
0.0
 40
14.42016
 41
0.0
 71
     1
 72
     2
  1
\fMyriad Roman|b0|i0;\H14.4202;\W0.87;\C7;\U+0031\U+0030\U+0030
  7
STD
210
0.0
220
0.0
230
1.0
 73
     1
 44
1.0
  0
ENDBLK
  5
A8
100
AcDbEntity
  8
LIVELLO_1
100
AcDbBlockEnd
  0
ENDSEC
  0
SECTION
  2
ENTITIES
  0
INSERT
  5
2A
100
AcDbEntity
  8
LIVELLO_1
 62
     7
100
AcDbBlockReference
  2
AI9-BLK1
 10
132.165232
 20
122.558669
 30
0.0
  0
ENDSEC
  0
SECTION
  2
OBJECTS
  0
DICTIONARY
  5
19
100
AcDbDictionary
280
     0
281
     1
  3
ACAD_GROUP
350
1A
  3
ACAD_MLINESTYLE
350
1B
  3
ACAD_LAYOUT
350
1E
  3
ACAD_PLOTSETTINGS
350
22
  3
ACAD_PLOTSTYLENAME
350
1F
  3
ACAD_WIPEOUT_VARS
350
23
  0
DICTIONARY
  5
1A
102
{ACAD_REACTORS
330
19
102
}
100
AcDbDictionary
280
     0
281
     1
  0
DICTIONARY
  5
1B
102
{ACAD_REACTORS
330
19
102
}
100
AcDbDictionary
280
     0
281
     1
  3
Standard
350
1C
  0
MLINESTYLE
  5
1C
102
{ACAD_REACTORS
330
1B
102
}
100
AcDbMlineStyle
  2
Standard
 70
     0
  3

 62
     0
 51
90.0
 52
90.0
 71
     2
 49
0.5
 62
   256
  6
ByLayer
 49
-0.5
 62
   256
  6
ByLayer
  0
ACDBDICTIONARYWDFLT
  5
1F
102
{ACAD_REACTORS
330
19
102
}
100
AcDbDictionary
281
     1
  3
Normal
350
1D
100
AcDbDictionaryWithDefault
340
1D
  0
ACDBPLACEHOLDER
  5
1D
102
{ACAD_REACTORS
330
1F
102
}
  0
LAYOUT
  5
20
102
{ACAD_REACTORS
330
1E
102
}
100
AcDbPlotSettings
  1

  2

  4

  6

 40
0.0
 41
0.0
 42
0.0
 43
0.0
 44
0.0
 45
0.0
 46
0.0
 47
0.0
 48
0.0
 49
0.0
140
0.0
141
0.0
142
1.0
143
1.0
 70
  1024
 72
     0
 73
     0
 74
     0
  7

 75
     0
147
1.0
148
0.0
149
0.0
100
AcDbLayout
  1
Model
 70
     0
 71
     0
 10
0.0
 20
0.0
 11
0.0
 21
0.0
 12
0.0
 22
0.0
 32
0.0
 14
0.0
 24
0.0
 34
0.0
 15
0.0
 25
0.0
 35
0.0
146
0.0
 13
0.0
 23
0.0
 33
0.0
 16
0.0
 26
0.0
 36
0.0
 17
0.0
 27
0.0
 37
0.0
 76
     0
330
A
331
0
345
0
346
0
  0
LAYOUT
  5
21
102
{ACAD_REACTORS
330
1E
102
}
100
AcDbPlotSettings
  1

  2

  4

  6

 40
0.0
 41
0.0
 42
0.0
 43
0.0
 44
0.0
 45
0.0
 46
0.0
 47
0.0
 48
0.0
 49
0.0
140
0.0
141
0.0
142
1.0
143
1.0
 70
     0
 72
     0
 73
     0
 74
     0
  7

 75
     0
147
1.0
148
0.0
149
0.0
100
AcDbLayout
  1
Layout1
 70
     0
 71
     0
 10
0.0
 20
0.0
 11
0.0
 21
0.0
 12
0.0
 22
0.0
 32
0.0
 14
0.0
 24
0.0
 34
0.0
 15
0.0
 25
0.0
 35
0.0
146
0.0
 13
0.0
 23
0.0
 33
0.0
 16
0.0
 26
0.0
 36
0.0
 17
0.0
 27
0.0
 37
0.0
 76
     0
330
B
331
0
345
0
346
0
  0
DICTIONARY
  5
1E
102
{ACAD_REACTORS
330
19
102
}
100
AcDbDictionary
280
     0
281
     1
  3
Layout1
350
21
  3
Model
350
20
  0
DICTIONARY
  5
22
102
{ACAD_REACTORS
330
19
102
}
100
AcDbDictionary
280
     0
281
     1
  0
WIPEOUTVARIABLES
  5
23
100
AcDbWipeoutVariables
 70
     1
  0
ENDSEC
  0
EOF
