  0
SECTION
  2
HEADER
  9
$ACADVER
  1
AC1015
  9
$ACADMAINTVER
 70
     6
  9
$DWGCODEPAGE
  3
ANSI_932
  9
$INSBASE
 10
0.0
 20
0.0
 30
0.0
  9
$EXTMIN
 10
8.113889
 20
39.511111
 30
1.000000E+20
  9
$EXTMAX
 10
215.463851
 20
222.452399
 30
-1.000000E+20
  9
$LIMMIN
 10
8.113889
 20
39.511111
  9
$LIMMAX
 10
215.463851
 20
222.452399
  9
$ORTHOMODE
 70
     0
  9
$REGENMODE
 70
     1
  9
$FILLMODE
 70
     1
  9
$QTEXTMODE
 70
     0
  9
$MIRRTEXT
 70
     1
  9
$LTSCALE
 40
1.0
  9
$ATTMODE
 70
     1
  9
$TEXTSIZE
 40
0.2
  9
$TRACEWID
 40
0.05
  9
$TEXTSTYLE
  7
Standard
  9
$CLAYER
  8
0
  9
$CELTYPE
  6
Continuous
  9
$CECOLOR
 62
   256
  9
$CELTSCALE
 40
1.0
  9
$DISPSILH
 70
     0
  9
$DIMSCALE
 40
1.0
  9
$DIMASZ
 40
0.18
  9
$DIMEXO
 40
0.0625
  9
$DIMDLI
 40
0.38
  9
$DIMRND
 40
0.0
  9
$DIMDLE
 40
0.0
  9
$DIMEXE
 40
0.18
  9
$DIMTP
 40
0.0
  9
$DIMTM
 40
0.0
  9
$DIMTXT
 40
0.18
  9
$DIMCEN
 40
0.09
  9
$DIMTSZ
 40
0.0
  9
$DIMTOL
 70
     0
  9
$DIMLIM
 70
     0
  9
$DIMTIH
 70
     1
  9
$DIMTOH
 70
     1
  9
$DIMSE1
 70
     0
  9
$DIMSE2
 70
     0
  9
$DIMTAD
 70
     0
  9
$DIMZIN
 70
     0
  9
$DIMBLK
  1

  9
$DIMASO
 70
     1
  9
$DIMSHO
 70
     1
  9
$DIMPOST
  1

  9
$DIMAPOST
  1

  9
$DIMALT
 70
     0
  9
$DIMALTD
 70
     2
  9
$DIMALTF
 40
25.4
  9
$DIMLFAC
 40
1.0
  9
$DIMTOFL
 70
     0
  9
$DIMTVP
 40
0.0
  9
$DIMTIX
 70
     0
  9
$DIMSOXD
 70
     0
  9
$DIMSAH
 70
     0
  9
$DIMBLK1
  1

  9
$DIMBLK2
  1

  9
$DIMSTYLE
  2
Standard
  9
$DIMCLRD
 70
     0
  9
$DIMCLRE
 70
     0
  9
$DIMCLRT
 70
     0
  9
$DIMTFAC
 40
1.0
  9
$DIMGAP
 40
0.09
  9
$DIMJUST
 70
     0
  9
$DIMSD1
 70
     0
  9
$DIMSD2
 70
     0
  9
$DIMTOLJ
 70
     1
  9
$DIMTZIN
 70
     0
  9
$DIMALTZ
 70
     0
  9
$DIMALTTZ
 70
     0
  9
$DIMUPT
 70
     0
  9
$DIMDEC
 70
     4
  9
$DIMTDEC
 70
     4
  9
$DIMALTU
 70
     2
  9
$DIMALTTD
 70
     2
  9
$DIMTXSTY
  7
Standard
  9
$DIMAUNIT
 70
     0
  9
$DIMADEC
 70
     0
  9
$DIMALTRND
 40
0.0
  9
$DIMAZIN
 70
     0
  9
$DIMDSEP
 70
     0
  9
$DIMATFIT
 70
     3
  9
$DIMFRAC
 70
     0
  9
$DIMLDRBLK
  1

  9
$DIMLUNIT
 70
     2
  9
$DIMLWD
 70
     0
  9
$DIMLWE
 70
     0
  9
$DIMTMOVE
 70
     0
  9
$LUNITS
 70
     2
  9
$LUPREC
 70
     4
  9
$SKETCHINC
 40
0.1
  9
$FILLETRAD
 40
0.0
  9
$AUNITS
 70
     0
  9
$AUPREC
 70
     0
  9
$MENU
  1
acad
  9
$ELEVATION
 40
0.0
  9
$PELEVATION
 40
0.0
  9
$THICKNESS
 40
0.0
  9
$LIMCHECK
 70
     0
  9
$CHAMFERA
 40
0.0
  9
$CHAMFERB
 40
0.0
  9
$CHAMFERC
 40
0.0
  9
$CHAMFERD
 40
0.0
  9
$SKPOLY
 70
     0
  9
$TDCREATE
 40
0.000000000
  9
$TDUCREATE
 40
0.000000000
  9
$TDUPDATE
 40
0.000000000
  9
$TDUUPDATE
 40
0.000000000
  9
$TDINDWG
 40
0.0000000000
  9
$TDUSRTIMER
 40
0.0000000000
  9
$USRTIMER
 70
     1
  9
$ANGBASE
 50
0.0
  9
$ANGDIR
 70
     0
  9
$PDMODE
 70
     0
  9
$PDSIZE
 40
0.0
  9
$PLINEWID
 40
0.0
  9
$SPLFRAME
 70
     0
  9
$SPLINETYPE
 70
     6
  9
$SPLINESEGS
 70
     8
  9
$HANDSEED
  5
133
  9
$SURFTAB1
 70
     6
  9
$SURFTAB2
 70
     6
  9
$SURFTYPE
 70
     6
  9
$SURFU
 70
     6
  9
$SURFV
 70
     6
  9
$UCSBASE
  2

  9
$UCSNAME
  2

  9
$UCSORG
 10
0.0
 20
0.0
 30
0.0
  9
$UCSXDIR
 10
1.0
 20
0.0
 30
0.0
  9
$UCSYDIR
 10
0.0
 20
1.0
 30
0.0
  9
$UCSORTHOREF
  2

  9
$UCSORTHOVIEW
 70
     0
  9
$UCSORGTOP
 10
0.0
 20
0.0
 30
0.0
  9
$UCSORGBOTTOM
 10
0.0
 20
0.0
 30
0.0
  9
$UCSORGLEFT
 10
0.0
 20
0.0
 30
0.0
  9
$UCSORGRIGHT
 10
0.0
 20
0.0
 30
0.0
  9
$UCSORGFRONT
 10
0.0
 20
0.0
 30
0.0
  9
$UCSORGBACK
 10
0.0
 20
0.0
 30
0.0
  9
$PUCSBASE
  2

  9
$PUCSNAME
  2

  9
$PUCSORG
 10
0.0
 20
0.0
 30
0.0
  9
$PUCSXDIR
 10
1.0
 20
0.0
 30
0.0
  9
$PUCSYDIR
 10
0.0
 20
1.0
 30
0.0
  9
$PUCSORTHOREF
  2

  9
$PUCSORTHOVIEW
 70
     0
  9
$PUCSORGTOP
 10
0.0
 20
0.0
 30
0.0
  9
$PUCSORGBOTTOM
 10
0.0
 20
0.0
 30
0.0
  9
$PUCSORGLEFT
 10
0.0
 20
0.0
 30
0.0
  9
$PUCSORGRIGHT
 10
0.0
 20
0.0
 30
0.0
  9
$PUCSORGFRONT
 10
0.0
 20
0.0
 30
0.0
  9
$PUCSORGBACK
 10
0.0
 20
0.0
 30
0.0
  9
$USERI1
 70
     0
  9
$USERI2
 70
     0
  9
$USERI3
 70
     0
  9
$USERI4
 70
     0
  9
$USERI5
 70
     0
  9
$USERR1
 40
0.0
  9
$USERR2
 40
0.0
  9
$USERR3
 40
0.0
  9
$USERR4
 40
0.0
  9
$USERR5
 40
0.0
  9
$WORLDVIEW
 70
     1
  9
$SHADEDGE
 70
     3
  9
$SHADEDIF
 70
    70
  9
$TILEMODE
 70
     1
  9
$MAXACTVP
 70
    16
  9
$PINSBASE
 10
0.0
 20
0.0
 30
0.0
  9
$PLIMCHECK
 70
     0
  9
$PEXTMIN
 10
1.000000E+20
 20
1.000000E+20
 30
1.000000E+20
  9
$PEXTMAX
 10
-1.000000E+20
 20
-1.000000E+20
 30
-1.000000E+20
  9
$PLIMMIN
 10
0.0
 20
0.0
  9
$PLIMMAX
 10
12.0
 20
9.0
  9
$UNITMODE
 70
     0
  9
$VISRETAIN
 70
     0
  9
$PLINEGEN
 70
     1
  9
$PSLTSCALE
 70
     0
  9
$TREEDEPTH
 70
  3020
  9
$CMLSTYLE
  2
Standard
  9
$CMLJUST
 70
     0
  9
$CMLSCALE
 40
1.0
  9
$PROXYGRAPHICS
 70
     0
  9
$MEASUREMENT
 70
     1
  9
$CELWEIGHT
370
     0
  9
$ENDCAPS
280
     0
  9
$JOINSTYLE
280
     0
  9
$LWDISPLAY
290
     0
  9
$INSUNITS
 70
     0
  9
$HYPERLINKBASE
  1

  9
$STYLESHEET
  1

  9
$XEDIT
290
     1
  9
$CEPSNTYPE
380
     0
  9
$PSTYLEMODE
290
     1
  9
$FINGERPRINTGUID
  2

  9
$VERSIONGUID
  2

  9
$EXTNAMES
290
     1
  9
$PSVPSCALE
 40
0.0
  0
ENDSEC
  0
SECTION
  2
CLASSES
  0
CLASS
  1
LWPOLYLINE
  2
AcDbPolyline
  3
AutoCAD 2000
 90
    32768
280
     0
281
     1
  0
CLASS
  1
IMAGE
  2
AcDbRasterImage
  3
ISM
 90
    32895
280
     0
281
     1
  0
CLASS
  1
OLE2FRAME
  2
AcDbOle2Frame
  3
AutoCAD 2000
 90
    32768
280
     0
281
     1
  0
CLASS
  1
HATCH
  2
AcDbHatch
  3
AutoCAD 2000
 90
    32768
280
     0
281
     1
  0
CLASS
  1
DICTIONARYVAR
  2
AcDbDictionaryVar
  3
AutoCAD 2000
 90
    32768
280
     0
281
     0
  0
CLASS
  1
RASTERVARIABLES
  2
AcDbRasterVariables
  3
ISM
 90
    32768
280
     0
281
     0
  0
CLASS
  1
IMAGEDEF
  2
AcDbRasterImageDef
  3
ISM
 90
    32768
280
     0
281
     0
  0
CLASS
  1
IMAGEDEF_REACTOR
  2
AcDbRasterImageDefReactor
  3
ISM
 90
    32769
280
     0
281
     0
  0
CLASS
  1
IDBUFFER
  2
AcDbIdBuffer
  3
AutoCAD 2000
 90
    32768
280
     0
281
     0
  0
CLASS
  1
SPATIAL_FILTER
  2
AcDbSpatialFilter
  3
AutoCAD 2000
 90
    32768
280
     0
281
     0
  0
CLASS
  1
XRECORD
  2
AcDbXrecord
  3
AutoCAD 2000
 90
    32768
280
     0
281
     0
  0
CLASS
  1
SORTENTSTABLE
  2
AcDbSortentsTable
  3
AutoCAD 2000
 90
    32768
280
     0
281
     0
  0
CLASS
  1
LAYER_INDEX
  2
AcDbLayerIndex
  3
AutoCAD 2000
 90
    32768
280
     0
281
     0
  0
CLASS
  1
SPATIAL_INDEX
  2
AcDbSpatialIndex
  3
AutoCAD 2000
 90
    32768
280
     0
281
     0
  0
CLASS
  1
OBJECT_PTR
  2
CAseDLPNTableRecord
  3
"ASE-LPNTableRecord"
 90
    32769
280
     0
281
     0
  0
CLASS
  1
LAYOUT
  2
AcDbLayout
  3
AutoCAD 2000
 90
        0
280
     0
281
     0
  0
CLASS
  1
PLOTSETTINGS
  2
AcDbPlotSettings
  3
AutoCAD 2000
 90
    32768
280
     0
281
     0
  0
CLASS
  1
ACDBDICTIONARYWDFLT
  2
AcDbDictionaryWithDefault
  3
AutoCAD 2000
 90
        0
280
     0
281
     0
  0
CLASS
  1
ACDBPLACEHOLDER
  2
AcDbPlaceHolder
  3
AutoCAD 2000
 90
        0
280
     0
281
     0
  0
CLASS
  1
VBA_PROJECT
  2
AcDbVbaProject
  3
acadvba
 90
    32768
280
     0
281
     0
  0
CLASS
  1
WIPEOUT
  2
AcDbWipeout
  3
WipeOut|AutoCAD Express Tool|expresstools@autodesk.com
 90
    32895
280
     0
281
     1
  0
CLASS
  1
WIPEOUTVARIABLES
  2
AcDbWipeoutVariables
  3
WipeOut|AutoCAD Express Tool|expresstools@autodesk.com
 90
        0
280
     0
281
     0
  0
CLASS
  1
RTEXT
  2
RText
  3
RText|AutoCAD Express Tool|expresstools@autodesk.com
 90
    32768
280
     0
281
     1
  0
CLASS
  1
ARCALIGNEDTEXT
  2
AcDbArcAlignedText
  3
ATEXT|AutoCAD Express Tool|expresstools@autodesk.com
 90
    32768
280
     0
281
     1
  0
ENDSEC
  0
SECTION
  2
TABLES
  0
TABLE
  2
VPORT
  5
7
100
AcDbSymbolTable
 70
     1
  0
VPORT
  5
15
100
AcDbSymbolTableRecord
100
AcDbViewportTableRecord
  2
*ACTIVE
 70
     0
 10
0.0
 20
0.0
 11
1.0
 21
1.0
 12
6.591288
 22
4.579184
 13
0.0
 23
0.0
 14
1.0
 24
1.0
 15
0.0
 25
0.0
 16
0.0
 26
0.0
 36
1.0
 17
0.0
 27
0.0
 37
0.0
 40
9.158369
 41
0.688564
 42
50.0
 43
0.0
 44
0.0
 50
0.0
 51
0.0
 71
     0
 72
   100
 73
     1
 74
     1
 75
     0
 76
     0
 77
     0
 78
     0
281
     0
 65
     0
110
0.0
120
0.0
130
0.0
111
1.0
121
0.0
131
0.0
112
0.0
122
1.0
132
0.0
345
0
346
0
 79
     0
146
0.0
  0
ENDTAB
  0
TABLE
  2
LTYPE
  5
4
100
AcDbSymbolTable
 70
     3
  0
LTYPE
  5
11
100
AcDbSymbolTableRecord
100
AcDbLinetypeTableRecord
  2
ByBlock
 70
    64
  3

 72
    65
 73
     0
 40
0.0
  0
LTYPE
  5
12
100
AcDbSymbolTableRecord
100
AcDbLinetypeTableRecord
  2
ByLayer
 70
    64
  3

 72
    65
 73
     0
 40
0.0
  0
LTYPE
  5
13
100
AcDbSymbolTableRecord
100
AcDbLinetypeTableRecord
  2
Continuous
 70
    64
  3
Solid line
 72
    65
 73
     0
 40
0.0
  0
ENDTAB
  0
TABLE
  2
LAYER
  5
2
100
AcDbSymbolTable
 70
     2
  0
LAYER
  5
14
100
AcDbSymbolTableRecord
100
AcDbLayerTableRecord
  2
0
 70
     0
 62
     7
  6
Continuous
290
     1
370
    -3
390
1D
  0
LAYER
  5
28
100
AcDbSymbolTableRecord
100
AcDbLayerTableRecord
  2
LIVELLO_1
 70
     0
 62
   160
  6
Continuous
290
     1
370
    -3
390
1D
  0
ENDTAB
  0
TABLE
  2
STYLE
  5
3
100
AcDbSymbolTable
 70
     5
  0
STYLE
  5
17
100
AcDbSymbolTableRecord
100
AcDbTextStyleTableRecord
  2
Standard
 70
     0
 40
0.0
 41
1.0
 50
0.0
 71
     0
 42
0.0
  3
txt
  4

  0
STYLE
  5
24
100
AcDbSymbolTableRecord
100
AcDbTextStyleTableRecord
  2
STD
 70
     0
 40
0.0
 41
1.0
 50
0.0
 71
     0
 42
0.0
  3
txt
  4

  0
STYLE
  5
25
100
AcDbSymbolTableRecord
100
AcDbTextStyleTableRecord
  2
TATESTD
 70
     4
 40
0.0
 41
1.0
 50
0.0
 71
     0
 42
0.0
  3
txt
  4

  0
STYLE
  5
26
100
AcDbSymbolTableRecord
100
AcDbTextStyleTableRecord
  2
KANJISTD
 70
     0
 40
0.0
 41
1.0
 50
0.0
 71
     0
 42
0.0
  3
txt
  4
extfont
  0
STYLE
  5
27
100
AcDbSymbolTableRecord
100
AcDbTextStyleTableRecord
  2
KANJITATE
 70
     4
 40
0.0
 41
1.0
 50
0.0
 71
     0
 42
0.0
  3
txt
  4
extfont
  0
ENDTAB
  0
TABLE
  2
VIEW
  5
5
100
AcDbSymbolTable
 70
     0
  0
ENDTAB
  0
TABLE
  2
UCS
  5
6
100
AcDbSymbolTable
 70
     0
  0
ENDTAB
  0
TABLE
  2
APPID
  5
8
100
AcDbSymbolTable
 70
     1
  0
APPID
  5
16
100
AcDbSymbolTableRecord
100
AcDbRegAppTableRecord
  2
ACAD
 70
     0
  0
ENDTAB
  0
TABLE
  2
DIMSTYLE
  5
9
100
AcDbSymbolTable
 70
     1
100
AcDbDimStyleTable
 71
     0
  0
DIMSTYLE
105
18
100
AcDbSymbolTableRecord
100
AcDbDimStyleTableRecord
  2
Standard
 70
     0
  3

  4

 40
1.0
 41
0.18
 42
0.0625
 43
0.38
 44
0.18
 45
0.0
 46
0.0
 47
0.0
 48
0.0
 71
     0
 72
     0
 73
     1
 74
     1
 75
     0
 76
     0
 77
     0
 78
     0
 79
     0
140
0.18
141
0.09
142
0.0
143
25.4
144
1.0
145
0.0
146
1.0
147
0.09
148
0.0
170
     0
171
     2
172
     0
173
     0
174
     0
175
     0
176
     0
177
     0
178
     0
179
     0
271
     4
272
     4
273
     2
274
     2
275
     0
276
     0
277
     2
278
    46
279
     0
280
     0
281
     0
282
     0
283
     1
284
     0
285
     0
286
     0
288
     0
340
17
341
0
342
0
343
0
344
0
371
    -2
372
    -2
  0
ENDTAB
  0
TABLE
  2
BLOCK_RECORD
  5
1
100
AcDbSymbolTable
 70
     1
  0
BLOCK_RECORD
  5
A
100
AcDbSymbolTableRecord
100
AcDbBlockTableRecord
  2
*MODEL_SPACE
340
20
  0
BLOCK_RECORD
  5
B
100
AcDbSymbolTableRecord
100
AcDbBlockTableRecord
  2
*PAPER_SPACE
340
21
  0
BLOCK_RECORD
  5
29
100
AcDbSymbolTableRecord
100
AcDbBlockTableRecord
  2
AI9-BLK1
340
0
102
{BLKREFS
331
2A
102
}
  0
ENDTAB
  0
ENDSEC
  0
SECTION
  2
BLOCKS
  0
BLOCK
  5
D
100
AcDbEntity
  8
0
100
AcDbBlockBegin
  2
*MODEL_SPACE
 70
     0
 10
0.0
 20
0.0
 30
0.0
  3
*MODEL_SPACE
  1

  0
ENDBLK
  5
E
100
AcDbEntity
  8
0
100
AcDbBlockEnd
  0
BLOCK
  5
F
100
AcDbEntity
 67
     1
  8
0
100
AcDbBlockBegin
  2
*PAPER_SPACE
 70
     0
 10
0.0
 20
0.0
 30
0.0
  3
*PAPER_SPACE
  1

  0
ENDBLK
  5
10
100
AcDbEntity
 67
     1
  8
0
100
AcDbBlockEnd
  0
BLOCK
  5
2B
100
AcDbEntity
  8
LIVELLO_1
 62
     7
100
AcDbBlockBegin
  2
AI9-BLK1
 70
     0
 10
0.0
 20
0.0
 30
0.0
  3
AI9-BLK1
  1

  0
LINE
  5
131
100
AcDbEntity
  8
LIVELLO_1
 62
     7
100
AcDbLine
 10
-54.219602
 20
-3.883915
 30
0.0
 11
-54.219602
 21
69.153488
 31
0.0
  0
LINE
  5
130
100
AcDbEntity
  8
LIVELLO_1
 62
     7
100
AcDbLine
 10
-54.187735
 20
-91.37866
 30
0.0
 11
-54.219602
 21
-17.538895
 31
0.0
  0
LINE
  5
12F
100
AcDbEntity
  8
LIVELLO_1
 62
     7
100
AcDbLine
 10
-51.555337
 20
-91.37866
 30
0.0
 11
-56.381571
 21
-91.37866
 31
0.0
  0
MTEXT
  5
12E
100
AcDbEntity
  8
LIVELLO_1
 62
     7
100
AcDbMText
 10
-65.524166
 20
-5.815725
 30
0.0
 40
9.423569
 41
0.0
 71
     1
 72
     2
  1
\fMyriad Roman|b0|i0;\H9.4236;\W1.09;\C7;\U+0036\U+0030\U+0030
  7
STD
210
0.0
220
0.0
230
1.0
 73
     1
 44
1.0
  0
LINE
  5
12D
100
AcDbEntity
  8
LIVELLO_1
 62
     7
100
AcDbLine
 10
8.852173
 20
84.748057
 30
0.0
 11
-22.86596
 21
84.748057
 31
0.0
  0
LINE
  5
12C
100
AcDbEntity
  8
LIVELLO_1
 62
     7
100
AcDbLine
 10
78.905778
 20
84.748057
 30
0.0
 11
47.187817
 21
84.748057
 31
0.0
  0
LINE
  5
12B
100
AcDbEntity
  8
LIVELLO_1
 62
     7
100
AcDbLine
 10
78.905778
 20
82.11566
 30
0.0
 11
78.905778
 21
86.938104
 31
0.0
  0
ELLIPSE
  5
12A
100
AcDbEntity
  8
LIVELLO_1
 62
     7
100
AcDbEllipse
 10
-54.217793
 20
69.153488
 30
0.0
 11
-0.0300584581163194
 21
0.0
 31
0.0
210
0.0
220
0.0
230
1.0
 40
0.936033
 41
0.0
 42
6.2831853071795862
  0
LINE
  5
129
100
AcDbEntity
  8
LIVELLO_1
 62
     7
100
AcDbLine
 10
-51.825088
 20
69.153488
 30
0.0
 11
-56.412405
 21
69.153488
 31
0.0
  0
MTEXT
  5
128
100
AcDbEntity
  8
LIVELLO_1
 62
     7
100
AcDbMText
 10
19.26394
 20
89.482942
 30
0.0
 40
8.786317
 41
0.0
 71
     1
 72
     2
  1
\fMyriad Roman|b0|i0;\H8.7863;\W1.09;\C7;\U+0033\U+0038\U+0037
  7
STD
210
0.0
220
0.0
230
1.0
 73
     1
 44
1.0
  0
ELLIPSE
  5
127
100
AcDbEntity
  8
LIVELLO_1
 62
     7
100
AcDbEllipse
 10
-22.865185
 20
84.748057
 30
0.0
 11
-0.000775146484375
 21
-0.0306613498263889
 31
0.0
210
0.0
220
0.0
230
1.0
 40
0.940711
 41
0.0
 42
6.2831853071795862
  0
LINE
  5
126
100
AcDbEntity
  8
LIVELLO_1
 62
     7
100
AcDbLine
 10
-22.86596
 20
-61.93274
 30
0.0
 11
-22.86596
 21
86.938104
 31
0.0
  0
MTEXT
  5
125
100
AcDbEntity
  8
LIVELLO_1
 62
     7
100
AcDbMText
 10
73.476652
 20
22.650341
 30
0.0
 40
7.750906
 41
0.0
 71
     1
 72
     2
  1
\fMyriad Roman|b0|i0;\H7.7509;\W1.09;\C7;\U+00D8\U+0020\U+0031\U+0030\U+0030
  7
STD
210
0.0
220
0.0
230
1.0
 73
     1
 44
1.0
  0
LINE
  5
124
100
AcDbEntity
  8
LIVELLO_1
 62
     7
100
AcDbLine
 10
75.987093
 20
40.747642
 30
0.0
 11
92.1315
 21
26.152495
 31
0.0
  0
LINE
  5
123
100
AcDbEntity
  8
LIVELLO_1
 62
     7
100
AcDbLine
 10
-8.472523
 20
-91.03105
 30
0.0
 11
-8.343677
 21
-90.900825
 31
0.0
  0
LINE
  5
122
100
AcDbEntity
  8
LIVELLO_1
 62
     7
100
AcDbLine
 10
-5.614128
 20
-91.03105
 30
0.0
 11
-5.742974
 21
-90.900825
 31
0.0
  0
LINE
  5
121
100
AcDbEntity
  8
LIVELLO_1
 62
     7
100
AcDbLine
 10
-6.227699
 20
-91.03105
 30
0.0
 11
-6.435611
 21
-91.03105
 31
0.0
  0
LINE
  5
120
100
AcDbEntity
  8
LIVELLO_1
 62
     7
100
AcDbLine
 10
-7.653452
 20
-91.03105
 30
0.0
 11
-7.86033
 21
-91.03105
 31
0.0
  0
LINE
  5
11F
100
AcDbEntity
  8
LIVELLO_1
 62
     7
100
AcDbLine
 10
-8.343677
 20
-90.900825
 30
0.0
 11
-5.742974
 21
-90.900825
 31
0.0
  0
LINE
  5
11E
100
AcDbEntity
  8
LIVELLO_1
 62
     7
100
AcDbLine
 10
-22.823585
 20
-88.830667
 30
0.0
 11
-19.717315
 21
-88.830667
 31
0.0
  0
SPLINE
  5
11D
100
AcDbEntity
  8
LIVELLO_1
 62
     7
100
AcDbSpline
210
0.0
220
0.0
230
1.0
 70
     8
 71
     3
 72
    11
 73
     7
 74
     0
 42
0.00000001
 43
0.00000001
 40
0.0
 40
0.0
 40
0.0
 40
0.0
 40
1.0
 40
1.0
 40
1.0
 40
2.0
 40
2.0
 40
2.0
 40
2.0
 10
-19.845128038194442
 20
-91.031049940321168
 30
0.0
 10
-20.009975857204861
 20
-90.859828694661445
 30
0.0
 10
-20.282138400607636
 20
-90.855005560980899
 30
0.0
 10
-20.453359646267359
 20
-91.020714653862839
 30
0.0
 10
-20.455771213107639
 20
-91.026226806640622
 30
0.0
 10
-20.455771213107639
 20
-91.028293863932277
 30
0.0
 10
-20.461111111111109
 20
-91.031049940321168
 30
0.0
  0
SPLINE
  5
11C
100
AcDbEntity
  8
LIVELLO_1
 62
     7
100
AcDbSpline
210
0.0
220
0.0
230
1.0
 70
     8
 71
     3
 72
    11
 73
     7
 74
     0
 42
0.00000001
 43
0.00000001
 40
0.0
 40
0.0
 40
0.0
 40
0.0
 40
1.0
 40
1.0
 40
1.0
 40
2.0
 40
2.0
 40
2.0
 40
2.0
 10
-22.091502549913191
 20
-91.031049940321168
 30
0.0
 10
-22.256350368923609
 20
-90.859828694661445
 30
0.0
 10
-22.528512912326388
 20
-90.855005560980899
 30
0.0
 10
-22.698356119791665
 20
-91.020714653862839
 30
0.0
 10
-22.698356119791665
 20
-91.026226806640622
 30
0.0
 10
-22.703523763020833
 20
-91.028293863932277
 30
0.0
 10
-22.706107584635415
 20
-91.031049940321168
 30
0.0
  0
SPLINE
  5
11B
100
AcDbEntity
  8
LIVELLO_1
 62
     7
100
AcDbSpline
210
0.0
220
0.0
230
1.0
 70
     8
 71
     3
 72
     8
 73
     4
 74
     0
 42
0.00000001
 43
0.00000001
 40
0.0
 40
0.0
 40
0.0
 40
0.0
 40
1.0
 40
1.0
 40
1.0
 40
1.0
 10
-20.666783311631942
 20
-91.031049940321168
 30
0.0
 10
-21.055217827690971
 20
-90.857072618272568
 30
0.0
 10
-21.497223578559026
 20
-90.857072618272568
 30
0.0
 10
-21.884452311197915
 20
-91.031049940321168
 30
0.0
  0
LINE
  5
11A
100
AcDbEntity
  8
LIVELLO_1
 62
     7
100
AcDbLine
 10
-22.706108
 20
-91.03105
 30
0.0
 11
-22.574505
 21
-90.900825
 31
0.0
  0
LINE
  5
119
100
AcDbEntity
  8
LIVELLO_1
 62
     7
100
AcDbLine
 10
-19.845128
 20
-91.03105
 30
0.0
 11
-19.976731
 21
-90.900825
 31
0.0
  0
LINE
  5
118
100
AcDbEntity
  8
LIVELLO_1
 62
     7
100
AcDbLine
 10
-20.461111
 20
-91.03105
 30
0.0
 11
-20.666783
 21
-91.03105
 31
0.0
  0
LINE
  5
117
100
AcDbEntity
  8
LIVELLO_1
 62
     7
100
AcDbLine
 10
-21.884452
 20
-91.03105
 30
0.0
 11
-22.091503
 21
-91.03105
 31
0.0
  0
LINE
  5
116
100
AcDbEntity
  8
LIVELLO_1
 62
     7
100
AcDbLine
 10
-22.574505
 20
-90.900825
 30
0.0
 11
-19.976731
 21
-90.900825
 31
0.0
  0
LINE
  5
115
100
AcDbEntity
  8
LIVELLO_1
 62
     7
100
AcDbLine
 10
-96.613741
 20
-88.830667
 30
0.0
 11
-80.496551
 21
-88.830667
 31
0.0
  0
LINE
  5
114
100
AcDbEntity
  8
LIVELLO_1
 62
     7
100
AcDbLine
 10
-96.613741
 20
-88.830667
 30
0.0
 11
-98.22639
 21
-88.830667
 31
0.0
  0
LINE
  5
113
100
AcDbEntity
  8
LIVELLO_1
 62
     7
100
AcDbLine
 10
-79.719854
 20
-89.607536
 30
0.0
 11
-79.719854
 21
-90.900825
 31
0.0
  0
LINE
  5
112
100
AcDbEntity
  8
LIVELLO_1
 62
     7
100
AcDbLine
 10
-102.491591
 20
-89.607536
 30
0.0
 11
-102.491591
 21
-90.900825
 31
0.0
  0
LINE
  5
111
100
AcDbEntity
  8
LIVELLO_1
 62
     7
100
AcDbLine
 10
-17.335376
 20
-88.830667
 30
0.0
 11
-1.215774
 21
-88.830667
 31
0.0
  0
LINE
  5
110
100
AcDbEntity
  8
LIVELLO_1
 62
     7
100
AcDbLine
 10
-18.160821
 20
-83.25168
 30
0.0
 11
-18.94303
 21
-88.830667
 31
0.0
  0
SPLINE
  5
10F
100
AcDbEntity
  8
LIVELLO_1
 62
     7
100
AcDbSpline
210
0.0
220
0.0
230
1.0
 70
     8
 71
     3
 72
   143
 73
   139
 74
     0
 42
0.00000001
 43
0.00000001
 40
0.0
 40
0.0
 40
0.0
 40
0.0
 40
1.0
 40
1.0
 40
1.0
 40
2.0
 40
2.0
 40
2.0
 40
3.0
 40
3.0
 40
3.0
 40
4.0
 40
4.0
 40
4.0
 40
5.0
 40
5.0
 40
5.0
 40
6.0
 40
6.0
 40
6.0
 40
7.0
 40
7.0
 40
7.0
 40
8.0
 40
8.0
 40
8.0
 40
9.0
 40
9.0
 40
9.0
 40
10.0
 40
10.0
 40
10.0
 40
11.0
 40
11.0
 40
11.0
 40
12.0
 40
12.0
 40
12.0
 40
13.0
 40
13.0
 40
13.0
 40
14.0
 40
14.0
 40
14.0
 40
15.0
 40
15.0
 40
15.0
 40
16.0
 40
16.0
 40
16.0
 40
17.0
 40
17.0
 40
17.0
 40
18.0
 40
18.0
 40
18.0
 40
19.0
 40
19.0
 40
19.0
 40
20.0
 40
20.0
 40
20.0
 40
21.0
 40
21.0
 40
21.0
 40
22.0
 40
22.0
 40
22.0
 40
23.0
 40
23.0
 40
23.0
 40
24.0
 40
24.0
 40
24.0
 40
25.0
 40
25.0
 40
25.0
 40
26.0
 40
26.0
 40
26.0
 40
27.0
 40
27.0
 40
27.0
 40
28.0
 40
28.0
 40
28.0
 40
29.0
 40
29.0
 40
29.0
 40
30.0
 40
30.0
 40
30.0
 40
31.0
 40
31.0
 40
31.0
 40
32.0
 40
32.0
 40
32.0
 40
33.0
 40
33.0
 40
33.0
 40
34.0
 40
34.0
 40
34.0
 40
35.0
 40
35.0
 40
35.0
 40
36.0
 40
36.0
 40
36.0
 40
37.0
 40
37.0
 40
37.0
 40
38.0
 40
38.0
 40
38.0
 40
39.0
 40
39.0
 40
39.0
 40
40.0
 40
40.0
 40
40.0
 40
41.0
 40
41.0
 40
41.0
 40
42.0
 40
42.0
 40
42.0
 40
43.0
 40
43.0
 40
43.0
 40
44.0
 40
44.0
 40
44.0
 40
45.0
 40
45.0
 40
45.0
 40
46.0
 40
46.0
 40
46.0
 40
46.0
 10
-18.160820855034721
 20
-83.251679823133671
 30
0.0
 10
-18.160820855034721
 20
-83.251679823133671
 30
0.0
 10
-18.160820855034721
 20
-83.251679823133671
 30
0.0
 10
-18.160820855034721
 20
-83.251679823133671
 30
0.0
 10
-18.160820855034721
 20
-83.251679823133671
 30
0.0
 10
-18.160820855034721
 20
-83.248923746744779
 30
0.0
 10
-18.160820855034721
 20
-83.248923746744779
 30
0.0
 10
-18.160820855034721
 20
-83.248923746744779
 30
0.0
 10
-18.160820855034721
 20
-83.246512179904499
 30
0.0
 10
-18.160820855034721
 20
-83.246512179904499
 30
0.0
 10
-18.160820855034721
 20
-83.244100613064234
 30
0.0
 10
-18.157031249999999
 20
-83.241689046223954
 30
0.0
 10
-18.157031249999999
 20
-83.241689046223954
 30
0.0
 10
-18.157031249999999
 20
-83.241689046223954
 30
0.0
 10
-18.157031249999999
 20
-83.236176893446171
 30
0.0
 10
-18.157031249999999
 20
-83.236176893446171
 30
0.0
 10
-18.154447428385414
 20
-83.233765326605891
 30
0.0
 10
-18.154447428385414
 20
-83.231353759765611
 30
0.0
 10
-18.154447428385414
 20
-83.228597683376734
 30
0.0
 10
-18.154447428385414
 20
-83.226186116536454
 30
0.0
 10
-18.152035861545137
 20
-83.223430040147562
 30
0.0
 10
-18.152035861545137
 20
-83.218606906467002
 30
0.0
 10
-18.152035861545137
 20
-83.215850830078111
 30
0.0
 10
-18.149452039930555
 20
-83.213439263237845
 30
0.0
 10
-18.149452039930555
 20
-83.210683186848954
 30
0.0
 10
-18.146868218315969
 20
-83.203103976779502
 30
0.0
 10
-18.144284396701387
 20
-83.197936333550345
 30
0.0
 10
-18.141872829861111
 20
-83.190357123480894
 30
0.0
 10
-18.141872829861111
 20
-83.185189480251722
 30
0.0
 10
-18.139289008246525
 20
-83.177610270182285
 30
0.0
 10
-18.136532931857637
 20
-83.172787136501725
 30
0.0
 10
-18.134121365017361
 20
-83.164863416883676
 30
0.0
 10
-18.134121365017361
 20
-83.157284206814225
 30
0.0
 10
-18.131537543402775
 20
-83.152116563585068
 30
0.0
 10
-18.129125976562499
 20
-83.144537353515616
 30
0.0
 10
-18.126369900173611
 20
-83.136613633897568
 30
0.0
 10
-18.126369900173611
 20
-83.131790500217008
 30
0.0
 10
-18.121374511718749
 20
-83.116287570529508
 30
0.0
 10
-18.118790690104166
 20
-83.103540717230899
 30
0.0
 10
-18.113623046874999
 20
-83.088037787543399
 30
0.0
 10
-18.111211480034722
 20
-83.075290934244791
 30
0.0
 10
-18.104838053385414
 20
-83.064955647786448
 30
0.0
 10
-18.102081976996526
 20
-83.049797227647559
 30
0.0
 10
-18.099498155381944
 20
-83.037050374348951
 30
0.0
 10
-18.094502766927082
 20
-83.024303521050342
 30
0.0
 10
-18.0919189453125
 20
-83.008800591362842
 30
0.0
 10
-18.084339735243052
 20
-82.983306884765611
 30
0.0
 10
-18.076588270399302
 20
-82.957813178168394
 30
0.0
 10
-18.071420627170138
 20
-82.929563395182285
 30
0.0
 10
-18.063669162326388
 20
-82.898902045355896
 30
0.0
 10
-18.056262207031249
 20
-82.876164415147556
 30
0.0
 10
-18.047132703993054
 20
-82.847914632161448
 30
0.0
 10
-18.042137315538191
 20
-82.822420925564231
 30
0.0
 10
-18.036969672309027
 20
-82.791759575737842
 30
0.0
 10
-18.029390462239583
 20
-82.766265869140611
 30
0.0
 10
-18.024222819010415
 20
-82.738016086154502
 30
0.0
 10
-18.019227430555553
 20
-82.712522379557285
 30
0.0
 10
-18.011475965711803
 20
-82.681861029730896
 30
0.0
 10
-18.006308322482639
 20
-82.658778889973945
 30
0.0
 10
-18.001312934027776
 20
-82.630873616536448
 30
0.0
 10
-17.992183430989581
 20
-82.605035400390619
 30
0.0
 10
-17.982020399305554
 20
-82.548880343966999
 30
0.0
 10
-17.971685112847222
 20
-82.495136854383674
 30
0.0
 10
-17.961522081163192
 20
-82.438981797960068
 30
0.0
 10
-17.951359049479166
 20
-82.385238308376728
 30
0.0
 10
-17.939990234374999
 20
-82.329083251953122
 30
0.0
 10
-17.932238769531249
 20
-82.275339762369782
 30
0.0
 10
-17.924487304687499
 20
-82.219184705946176
 30
0.0
 10
-17.914324273003469
 20
-82.165441216362836
 30
0.0
 10
-17.909328884548611
 20
-82.109286159939231
 30
0.0
 10
-17.898993598090275
 20
-82.055542670355891
 30
0.0
 10
-17.893825954861111
 20
-81.996976047092005
 30
0.0
 10
-17.885040961371526
 20
-81.943232557508679
 30
0.0
 10
-17.879873318142359
 20
-81.887077501085059
 30
0.0
 10
-17.872121853298609
 20
-81.833678521050345
 30
0.0
 10
-17.869538031684026
 20
-81.774422878689222
 30
0.0
 10
-17.861958821614582
 20
-81.721023898654508
 30
0.0
 10
-17.859375
 20
-81.664524332682291
 30
0.0
 10
-17.856791178385414
 20
-81.611125352647562
 30
0.0
 10
-17.854207356770832
 20
-81.580119493272562
 30
0.0
 10
-17.85162353515625
 20
-81.552214219835065
 30
0.0
 10
-17.84921196831597
 20
-81.526720513237834
 30
0.0
 10
-17.84921196831597
 20
-81.498470730251725
 30
0.0
 10
-17.84921196831597
 20
-81.470220947265616
 30
0.0
 10
-17.8438720703125
 20
-81.442315673828119
 30
0.0
 10
-17.8438720703125
 20
-81.416821967230902
 30
0.0
 10
-17.8438720703125
 20
-81.388572184244779
 30
0.0
 10
-17.84146050347222
 20
-81.358255343967002
 30
0.0
 10
-17.84146050347222
 20
-81.332417127821174
 30
0.0
 10
-17.84146050347222
 20
-81.304511854383676
 30
0.0
 10
-17.838876681857638
 20
-81.273505995008676
 30
0.0
 10
-17.838876681857638
 20
-81.261103651258679
 30
0.0
 10
-17.838876681857638
 20
-81.248356797960056
 30
0.0
 10
-17.838876681857638
 20
-81.235609944661448
 30
0.0
 10
-17.838876681857638
 20
-81.220107014973948
 30
0.0
 10
-17.838876681857638
 20
-81.207360161675339
 30
0.0
 10
-17.836465115017358
 20
-81.194613308376731
 30
0.0
 10
-17.836465115017358
 20
-81.194613308376731
 30
0.0
 10
-17.836465115017358
 20
-81.148449028862842
 30
0.0
 10
-17.836465115017358
 20
-81.148449028862842
 30
0.0
 10
-17.836465115017358
 20
-81.148449028862842
 30
0.0
 10
-17.836465115017358
 20
-81.107452392578111
 30
0.0
 10
-17.836465115017358
 20
-81.107452392578111
 30
0.0
 10
-17.836465115017358
 20
-81.107452392578111
 30
0.0
 10
-17.836465115017358
 20
-81.066455756293394
 30
0.0
 10
-17.836465115017358
 20
-81.066455756293394
 30
0.0
 10
-17.836465115017358
 20
-81.066455756293394
 30
0.0
 10
-17.836465115017358
 20
-81.043373616536456
 30
0.0
 10
-17.836465115017358
 20
-81.043373616536456
 30
0.0
 10
-17.836465115017358
 20
-81.043373616536456
 30
0.0
 10
-17.836465115017358
 20
-81.023047553168396
 30
0.0
 10
-17.836465115017358
 20
-81.023047553168396
 30
0.0
 10
-17.836465115017358
 20
-81.023047553168396
 30
0.0
 10
-17.836465115017358
 20
-81.005477566189228
 30
0.0
 10
-17.836465115017358
 20
-81.005477566189228
 30
0.0
 10
-17.836465115017358
 20
-81.005477566189228
 30
0.0
 10
-17.836465115017358
 20
-80.982050916883679
 30
0.0
 10
-17.836465115017358
 20
-80.982050916883679
 30
0.0
 10
-17.836465115017358
 20
-80.982050916883679
 30
0.0
 10
-17.836465115017358
 20
-80.972060139973948
 30
0.0
 10
-17.836465115017358
 20
-80.972060139973948
 30
0.0
 10
-17.836465115017358
 20
-80.972060139973948
 30
0.0
 10
-17.836465115017358
 20
-80.961724853515619
 30
0.0
 10
-17.836465115017358
 20
-80.961724853515619
 30
0.0
 10
-17.836465115017358
 20
-80.961724853515619
 30
0.0
 10
-17.836465115017358
 20
-80.956557210286448
 30
0.0
 10
-17.836465115017358
 20
-80.956557210286448
 30
0.0
 10
-17.836465115017358
 20
-80.956557210286448
 30
0.0
 10
-17.836465115017358
 20
-80.954145643446168
 30
0.0
 10
-17.836465115017358
 20
-80.954145643446168
 30
0.0
 10
-17.836465115017358
 20
-80.954145643446168
 30
0.0
 10
-17.836465115017358
 20
-80.946566433376731
 30
0.0
 10
-17.836465115017358
 20
-80.946566433376731
 30
0.0
 10
-17.836465115017358
 20
-80.946566433376731
 30
0.0
 10
-17.836465115017358
 20
-80.941398790147559
 30
0.0
 10
-17.836465115017358
 20
-80.941398790147559
 30
0.0
 10
-17.836465115017358
 20
-80.941398790147559
 30
0.0
 10
-17.838876681857638
 20
-80.938987223307279
 30
0.0
 10
-17.836465115017358
 20
-80.938987223307279
 30
0.0
  0
LINE
  5
10E
100
AcDbEntity
  8
LIVELLO_1
 62
     7
100
AcDbLine
 10
-17.335376
 20
-88.830667
 30
0.0
 11
-18.94303
 21
-88.830667
 31
0.0
  0
LINE
  5
10D
100
AcDbEntity
  8
LIVELLO_1
 62
     7
100
AcDbLine
 10
-0.440283
 20
-89.607536
 30
0.0
 11
-0.440283
 21
-90.900825
 31
0.0
  0
LINE
  5
10C
100
AcDbEntity
  8
LIVELLO_1
 62
     7
100
AcDbLine
 10
-23.20823
 20
-89.607536
 30
0.0
 11
-23.20823
 21
-90.900825
 31
0.0
  0
SPLINE
  5
10B
100
AcDbEntity
  8
LIVELLO_1
 62
     7
100
AcDbSpline
210
0.0
220
0.0
230
1.0
 70
     8
 71
     3
 72
     8
 73
     4
 74
     0
 42
0.00000001
 43
0.00000001
 40
0.0
 40
0.0
 40
0.0
 40
0.0
 40
1.0
 40
1.0
 40
1.0
 40
1.0
 10
22.541259765624996
 20
19.681399875217011
 30
0.0
 10
22.65632595486111
 20
20.149243842230902
 30
0.0
 10
22.763812934027776
 20
20.611920166015622
 30
0.0
 10
22.868543836805554
 20
21.079419623480902
 30
0.0
  0
SPLINE
  5
10A
100
AcDbEntity
  8
LIVELLO_1
 62
     7
100
AcDbSpline
210
0.0
220
0.0
230
1.0
 70
     8
 71
     3
 72
     8
 73
     4
 74
     0
 42
0.00000001
 43
0.00000001
 40
0.0
 40
0.0
 40
0.0
 40
0.0
 40
1.0
 40
1.0
 40
1.0
 40
1.0
 10
-1.1186225043402778
 20
32.211728922526042
 30
0.0
 10
-2.0680908203124999
 20
29.428780788845483
 30
0.0
 10
-2.7519422743055553
 20
26.558671739366318
 30
0.0
 10
-3.1619086371527776
 20
23.647738308376734
 30
0.0
  0
LINE
  5
109
100
AcDbEntity
  8
LIVELLO_1
 62
     7
100
AcDbLine
 10
-8.440656
 20
-13.973566
 30
0.0
 11
-17.836465
 21
-80.938987
 31
0.0
  0
LINE
  5
108
100
AcDbEntity
  8
LIVELLO_1
 62
     7
100
AcDbLine
 10
-3.161909
 20
23.647738
 30
0.0
 11
-8.115956
 21
-11.665696
 31
0.0
  0
LINE
  5
107
100
AcDbEntity
  8
LIVELLO_1
 62
     7
100
AcDbLine
 10
-4.557172
 20
-88.830667
 30
0.0
 11
22.54126
 21
19.6814
 31
0.0
  0
SPLINE
  5
106
100
AcDbEntity
  8
LIVELLO_1
 62
     7
100
AcDbSpline
210
0.0
220
0.0
230
1.0
 70
     8
 71
     3
 72
   137
 73
   133
 74
     0
 42
0.00000001
 43
0.00000001
 40
0.0
 40
0.0
 40
0.0
 40
0.0
 40
1.0
 40
1.0
 40
1.0
 40
2.0
 40
2.0
 40
2.0
 40
3.0
 40
3.0
 40
3.0
 40
4.0
 40
4.0
 40
4.0
 40
5.0
 40
5.0
 40
5.0
 40
6.0
 40
6.0
 40
6.0
 40
7.0
 40
7.0
 40
7.0
 40
8.0
 40
8.0
 40
8.0
 40
9.0
 40
9.0
 40
9.0
 40
10.0
 40
10.0
 40
10.0
 40
11.0
 40
11.0
 40
11.0
 40
12.0
 40
12.0
 40
12.0
 40
13.0
 40
13.0
 40
13.0
 40
14.0
 40
14.0
 40
14.0
 40
15.0
 40
15.0
 40
15.0
 40
16.0
 40
16.0
 40
16.0
 40
17.0
 40
17.0
 40
17.0
 40
18.0
 40
18.0
 40
18.0
 40
19.0
 40
19.0
 40
19.0
 40
20.0
 40
20.0
 40
20.0
 40
21.0
 40
21.0
 40
21.0
 40
22.0
 40
22.0
 40
22.0
 40
23.0
 40
23.0
 40
23.0
 40
24.0
 40
24.0
 40
24.0
 40
25.0
 40
25.0
 40
25.0
 40
26.0
 40
26.0
 40
26.0
 40
27.0
 40
27.0
 40
27.0
 40
28.0
 40
28.0
 40
28.0
 40
29.0
 40
29.0
 40
29.0
 40
30.0
 40
30.0
 40
30.0
 40
31.0
 40
31.0
 40
31.0
 40
32.0
 40
32.0
 40
32.0
 40
33.0
 40
33.0
 40
33.0
 40
34.0
 40
34.0
 40
34.0
 40
35.0
 40
35.0
 40
35.0
 40
36.0
 40
36.0
 40
36.0
 40
37.0
 40
37.0
 40
37.0
 40
38.0
 40
38.0
 40
38.0
 40
39.0
 40
39.0
 40
39.0
 40
40.0
 40
40.0
 40
40.0
 40
41.0
 40
41.0
 40
41.0
 40
42.0
 40
42.0
 40
42.0
 40
43.0
 40
43.0
 40
43.0
 40
44.0
 40
44.0
 40
44.0
 40
44.0
 10
-8.1159559461805539
 20
-11.665696207682291
 30
0.0
 10
-8.1159559461805539
 20
-11.665696207682291
 30
0.0
 10
-8.1159559461805539
 20
-11.665696207682291
 30
0.0
 10
-8.1159559461805539
 20
-11.665696207682291
 30
0.0
 10
-8.1159559461805539
 20
-11.665696207682291
 30
0.0
 10
-8.1159559461805539
 20
-11.668452284071179
 30
0.0
 10
-8.1159559461805539
 20
-11.668452284071179
 30
0.0
 10
-8.1159559461805539
 20
-11.668452284071179
 30
0.0
 10
-8.1159559461805539
 20
-11.670863850911458
 30
0.0
 10
-8.1159559461805539
 20
-11.670863850911458
 30
0.0
 10
-8.1159559461805539
 20
-11.673619927300345
 30
0.0
 10
-8.1159559461805539
 20
-11.673619927300345
 30
0.0
 10
-8.1159559461805539
 20
-11.676031494140624
 30
0.0
 10
-8.1159559461805539
 20
-11.676031494140624
 30
0.0
 10
-8.1159559461805539
 20
-11.681199137369791
 30
0.0
 10
-8.1159559461805539
 20
-11.681199137369791
 30
0.0
 10
-8.1159559461805539
 20
-11.681199137369791
 30
0.0
 10
-8.1159559461805539
 20
-11.686366780598958
 30
0.0
 10
-8.1159559461805539
 20
-11.686366780598958
 30
0.0
 10
-8.1159559461805539
 20
-11.686366780598958
 30
0.0
 10
-8.1159559461805539
 20
-11.696702067057291
 30
0.0
 10
-8.1159559461805539
 20
-11.696702067057291
 30
0.0
 10
-8.1159559461805539
 20
-11.696702067057291
 30
0.0
 10
-8.1159559461805539
 20
-11.709448920355902
 30
0.0
 10
-8.1159559461805539
 20
-11.709448920355902
 30
0.0
 10
-8.1185397677951379
 20
-11.717028130425346
 30
0.0
 10
-8.1185397677951379
 20
-11.722195773654512
 30
0.0
 10
-8.1185397677951379
 20
-11.729774983723956
 30
0.0
 10
-8.1185397677951379
 20
-11.734942626953124
 30
0.0
 10
-8.1185397677951379
 20
-11.742521837022569
 30
0.0
 10
-8.1185397677951379
 20
-11.750101047092013
 30
0.0
 10
-8.1185397677951379
 20
-11.755268690321179
 30
0.0
 10
-8.1185397677951379
 20
-11.762847900390623
 30
0.0
 10
-8.1211235894097218
 20
-11.770771620008679
 30
0.0
 10
-8.1211235894097218
 20
-11.775594753689235
 30
0.0
 10
-8.1211235894097218
 20
-11.783518473307291
 30
0.0
 10
-8.1211235894097218
 20
-11.791097683376735
 30
0.0
 10
-8.1211235894097218
 20
-11.803844536675346
 30
0.0
 10
-8.1211235894097218
 20
-11.821759033203124
 30
0.0
 10
-8.1238796657986097
 20
-11.834505886501734
 30
0.0
 10
-8.1238796657986097
 20
-11.847252739800346
 30
0.0
 10
-8.1264634874131936
 20
-11.859999593098957
 30
0.0
 10
-8.1264634874131936
 20
-11.875502522786457
 30
0.0
 10
-8.1264634874131936
 20
-11.888249376085069
 30
0.0
 10
-8.1264634874131936
 20
-11.900996229383679
 30
0.0
 10
-8.1264634874131936
 20
-11.916499159071179
 30
0.0
 10
-8.13008083767361
 20
-11.94440443250868
 30
0.0
 10
-8.1326646592881939
 20
-11.97265421549479
 30
0.0
 10
-8.1326646592881939
 20
-12.000903998480903
 30
0.0
 10
-8.1349039713541664
 20
-12.026397705078123
 30
0.0
 10
-8.1376600477430543
 20
-12.056714545355902
 30
0.0
 10
-8.1376600477430543
 20
-12.082552761501734
 30
0.0
 10
-8.1402438693576382
 20
-12.110458034939235
 30
0.0
 10
-8.1428276909722221
 20
-12.136296251085069
 30
0.0
 10
-8.1454115125868043
 20
-12.166613091362846
 30
0.0
 10
-8.1481675889756939
 20
-12.19245130750868
 30
0.0
 10
-8.1507514105902779
 20
-12.22070109049479
 30
0.0
 10
-8.1529907226562486
 20
-12.24826185438368
 30
0.0
 10
-8.1529907226562486
 20
-12.27651163736979
 30
0.0
 10
-8.1555745442708325
 20
-12.304761420355902
 30
0.0
 10
-8.1605699327256929
 20
-12.330255126953125
 30
0.0
 10
-8.1631537543402768
 20
-12.389166259765624
 30
0.0
 10
-8.1684936523437486
 20
-12.442909749348956
 30
0.0
 10
-8.1759006076388889
 20
-12.499064805772568
 30
0.0
 10
-8.1812405056423607
 20
-12.552463785807291
 30
0.0
 10
-8.1900254991319432
 20
-12.608963351779513
 30
0.0
 10
-8.1953653971354168
 20
-12.662362331814235
 30
0.0
 10
-8.2029446072048611
 20
-12.718861897786457
 30
0.0
 10
-8.2103515624999996
 20
-12.772260877821179
 30
0.0
 10
-8.2182752821180554
 20
-12.828760443793401
 30
0.0
 10
-8.2258544921874996
 20
-12.884915500217012
 30
0.0
 10
-8.2334337022569439
 20
-12.938658989800347
 30
0.0
 10
-8.2425632052951379
 20
-12.992057969835068
 30
0.0
 10
-8.2501424153645821
 20
-13.051313612196179
 30
0.0
 10
-8.2577216254340264
 20
-13.101956515842012
 30
0.0
 10
-8.2682291666666661
 20
-13.161212158203124
 30
0.0
 10
-8.2783921983506943
 20
-13.211855061848958
 30
0.0
 10
-8.2857991536458329
 20
-13.268354627821179
 30
0.0
 10
-8.2976847330729164
 20
-13.321753607855902
 30
0.0
 10
-8.3026801215277768
 20
-13.352759467230902
 30
0.0
 10
-8.3075032552083332
 20
-13.378253173828124
 30
0.0
 10
-8.312843153211805
 20
-13.406158447265623
 30
0.0
 10
-8.320594618055555
 20
-13.431652153862846
 30
0.0
 10
-8.3230061848958332
 20
-13.459901936848958
 30
0.0
 10
-8.3305853949652775
 20
-13.488151719835068
 30
0.0
 10
-8.3357530381944436
 20
-13.513645426432291
 30
0.0
 10
-8.3409206814236097
 20
-13.539139133029513
 30
0.0
 10
-8.3472941080729157
 20
-13.569800482855902
 30
0.0
 10
-8.3524617513020818
 20
-13.598050265842012
 30
0.0
 10
-8.3600409613715279
 20
-13.623543972439235
 30
0.0
 10
-8.3652086046006939
 20
-13.649037679036457
 30
0.0
 10
-8.3705485026041657
 20
-13.679699028862846
 30
0.0
 10
-8.3753716362847221
 20
-13.705192735460068
 30
0.0
 10
-8.3829508463541664
 20
-13.731030951605902
 30
0.0
 10
-8.3857069227430543
 20
-13.743777804904513
 30
0.0
 10
-8.3882907443576382
 20
-13.758936225043401
 30
0.0
 10
-8.3908745659722221
 20
-13.771683078342013
 30
0.0
 10
-8.3956976996527768
 20
-13.787186008029513
 30
0.0
 10
-8.3984537760416664
 20
-13.799932861328124
 30
0.0
 10
-8.4020711263020829
 20
-13.815091281467012
 30
0.0
 10
-8.4046549479166668
 20
-13.828182644314236
 30
0.0
 10
-8.4072387695312489
 20
-13.840929497612846
 30
0.0
 10
-8.4098225911458329
 20
-13.853676350911456
 30
0.0
 10
-8.4125786675347207
 20
-13.861255560980901
 30
0.0
 10
-8.4151624891493046
 20
-13.866423204210069
 30
0.0
 10
-8.4151624891493046
 20
-13.874002414279513
 30
0.0
 10
-8.4177463107638886
 20
-13.879170057508679
 30
0.0
 10
-8.4177463107638886
 20
-13.886749267578123
 30
0.0
 10
-8.4199856228298611
 20
-13.894328477647568
 30
0.0
 10
-8.4227416992187489
 20
-13.902252197265623
 30
0.0
 10
-8.4253255208333329
 20
-13.909831407335068
 30
0.0
 10
-8.4253255208333329
 20
-13.914999050564235
 30
0.0
 10
-8.4275648328993054
 20
-13.92257826063368
 30
0.0
 10
-8.4275648328993054
 20
-13.927745903862846
 30
0.0
 10
-8.4301486545138875
 20
-13.93532511393229
 30
0.0
 10
-8.4329047309027771
 20
-13.93808119032118
 30
0.0
 10
-8.4329047309027771
 20
-13.940148247612846
 30
0.0
 10
-8.4329047309027771
 20
-13.945315890842013
 30
0.0
 10
-8.4329047309027771
 20
-13.948071967230902
 30
0.0
 10
-8.4329047309027771
 20
-13.95082804361979
 30
0.0
 10
-8.4329047309027771
 20
-13.955651177300346
 30
0.0
 10
-8.4354885525173611
 20
-13.955651177300346
 30
0.0
 10
-8.4354885525173611
 20
-13.958407253689234
 30
0.0
 10
-8.4354885525173611
 20
-13.960818820529513
 30
0.0
 10
-8.4380723741319432
 20
-13.960818820529513
 30
0.0
 10
-8.4380723741319432
 20
-13.963574896918402
 30
0.0
 10
-8.4380723741319432
 20
-13.963574896918402
 30
0.0
 10
-8.4380723741319432
 20
-13.965986463758679
 30
0.0
 10
-8.4380723741319432
 20
-13.968398030598957
 30
0.0
 10
-8.4406561957465271
 20
-13.968398030598957
 30
0.0
 10
-8.4406561957465271
 20
-13.968398030598957
 30
0.0
 10
-8.4406561957465271
 20
-13.973565673828123
 30
0.0
 10
-8.4406561957465271
 20
-13.973565673828123
 30
0.0
  0
LINE
  5
105
100
AcDbEntity
  8
LIVELLO_1
 62
     7
100
AcDbLine
 10
67.334047
 20
34.488937
 30
0.0
 11
70.238607
 21
38.347788
 31
0.0
  0
SPLINE
  5
104
100
AcDbEntity
  8
LIVELLO_1
 62
     7
100
AcDbSpline
210
0.0
220
0.0
230
1.0
 70
     8
 71
     3
 72
    11
 73
     7
 74
     0
 42
0.00000001
 43
0.00000001
 40
0.0
 40
0.0
 40
0.0
 40
0.0
 40
1.0
 40
1.0
 40
1.0
 40
2.0
 40
2.0
 40
2.0
 40
2.0
 10
81.135788302951383
 20
52.805131700303818
 30
0.0
 10
60.757014973958327
 20
71.836872694227424
 30
0.0
 10
28.808921983506941
 20
70.750806342230902
 30
0.0
 10
9.7709798177083318
 20
50.374789089626731
 30
0.0
 10
4.8972032335069438
 20
45.158742268880204
 30
0.0
 10
1.1864908854166665
 20
38.968939208984374
 30
0.0
 10
-1.1186225043402778
 20
32.211728922526042
 30
0.0
  0
SPLINE
  5
103
100
AcDbEntity
  8
LIVELLO_1
 62
     7
100
AcDbSpline
210
0.0
220
0.0
230
1.0
 70
     8
 71
     3
 72
    11
 73
     7
 74
     0
 42
0.00000001
 43
0.00000001
 40
0.0
 40
0.0
 40
0.0
 40
0.0
 40
1.0
 40
1.0
 40
1.0
 40
2.0
 40
2.0
 40
2.0
 40
2.0
 10
65.221858723958334
 20
31.687902153862844
 30
0.0
 10
56.506800672743047
 20
41.933616129557286
 30
0.0
 10
41.134784613715276
 20
43.177812364366318
 30
0.0
 10
30.889070638020829
 20
34.463271077473955
 30
0.0
 10
26.820757378472219
 20
31.00284491644965
 30
0.0
 10
24.001980251736107
 20
26.300806342230899
 30
0.0
 10
22.868543836805554
 20
21.079419623480902
 30
0.0
  0
POLYLINE
  5
FE
100
AcDbEntity
  8
LIVELLO_1
 62
     7
100
AcDb2dPolyline
 66
     1
 10
0.0
 20
0.0
 30
0.0
  0
VERTEX
  5
FF
100
AcDbEntity
  8
LIVELLO_1
 62
     7
100
AcDbVertex
100
AcDb2dVertex
 10
70.238607
 20
38.347788
 30
0.0
  0
VERTEX
  5
100
100
AcDbEntity
  8
LIVELLO_1
 62
     7
100
AcDbVertex
100
AcDb2dVertex
 10
79.088713
 20
50.090913
 30
0.0
  0
VERTEX
  5
101
100
AcDbEntity
  8
LIVELLO_1
 62
     7
100
AcDbVertex
100
AcDb2dVertex
 10
81.135788
 20
52.805132
 30
0.0
  0
SEQEND
  5
102
100
AcDbEntity
  8
LIVELLO_1
 62
     7
  0
LINE
  5
FD
100
AcDbEntity
  8
LIVELLO_1
 62
     7
100
AcDbLine
 10
65.221859
 20
31.687902
 30
0.0
 11
67.334047
 21
34.488937
 31
0.0
  0
LINE
  5
FC
100
AcDbEntity
  8
LIVELLO_1
 62
     7
100
AcDbLine
 10
-97.517045
 20
-90.900825
 30
0.0
 11
-83.396115
 21
-90.900825
 31
0.0
  0
LINE
  5
FB
100
AcDbEntity
  8
LIVELLO_1
 62
     7
100
AcDbLine
 10
-103.517885
 20
53.331542
 30
0.0
 11
-103.517885
 21
42.291045
 31
0.0
  0
LINE
  5
FA
100
AcDbEntity
  8
LIVELLO_1
 62
     7
100
AcDbLine
 10
-77.382701
 20
42.291045
 30
0.0
 11
-77.382701
 21
24.253731
 31
0.0
  0
SPLINE
  5
F9
100
AcDbEntity
  8
LIVELLO_1
 62
     7
100
AcDbSpline
210
0.0
220
0.0
230
1.0
 70
     8
 71
     3
 72
     8
 73
     4
 74
     0
 42
0.00000001
 43
0.00000001
 40
0.0
 40
0.0
 40
0.0
 40
0.0
 40
1.0
 40
1.0
 40
1.0
 40
1.0
 10
-77.450397406684019
 20
21.830967203776041
 30
0.0
 10
-77.403027343749997
 20
22.635913764105901
 30
0.0
 10
-77.382701280381937
 20
23.446027967664929
 30
0.0
 10
-77.382701280381937
 20
24.25373060438368
 30
0.0
  0
SPLINE
  5
F8
100
AcDbEntity
  8
LIVELLO_1
 62
     7
100
AcDbSpline
210
0.0
220
0.0
230
1.0
 70
     8
 71
     3
 72
     8
 73
     4
 74
     0
 42
0.00000001
 43
0.00000001
 40
0.0
 40
0.0
 40
0.0
 40
0.0
 40
1.0
 40
1.0
 40
1.0
 40
1.0
 10
-103.51788465711805
 20
24.25373060438368
 30
0.0
 10
-103.51788465711805
 20
23.446027967664929
 30
0.0
 10
-103.49738633897569
 20
22.635913764105901
 30
0.0
 10
-103.45277235243054
 20
21.830967203776041
 30
0.0
  0
LINE
  5
F7
100
AcDbEntity
  8
LIVELLO_1
 62
     7
100
AcDbLine
 10
-103.517885
 20
24.253731
 30
0.0
 11
-103.517885
 21
42.291045
 31
0.0
  0
SPLINE
  5
F6
100
AcDbEntity
  8
LIVELLO_1
 62
     7
100
AcDbSpline
210
0.0
220
0.0
230
1.0
 70
     8
 71
     3
 72
     8
 73
     4
 74
     0
 42
0.00000001
 43
0.00000001
 40
0.0
 40
0.0
 40
0.0
 40
0.0
 40
1.0
 40
1.0
 40
1.0
 40
1.0
 10
-90.450809733072902
 20
66.395861138237848
 30
0.0
 10
-97.666734483506929
 20
66.395861138237848
 30
0.0
 10
-103.51788465711805
 20
60.546089002821176
 30
0.0
 10
-103.51788465711805
 20
53.331542290581595
 30
0.0
  0
LINE
  5
F5
100
AcDbEntity
  8
LIVELLO_1
 62
     7
100
AcDbLine
 10
-97.472431
 20
-88.874076
 30
0.0
 11
-103.452772
 21
21.830967
 31
0.0
  0
SPLINE
  5
F4
100
AcDbEntity
  8
LIVELLO_1
 62
     7
100
AcDbSpline
210
0.0
220
0.0
230
1.0
 70
     8
 71
     3
 72
    11
 73
     7
 74
     0
 42
0.00000001
 43
0.00000001
 40
0.0
 40
0.0
 40
0.0
 40
0.0
 40
1.0
 40
1.0
 40
1.0
 40
2.0
 40
2.0
 40
2.0
 40
2.0
 10
-77.382701280381937
 20
42.291044786241315
 30
0.0
 10
-77.382701280381937
 20
42.291044786241315
 30
0.0
 10
-77.382701280381937
 20
53.331542290581595
 30
0.0
 10
-77.382701280381937
 20
53.331542290581595
 30
0.0
 10
-77.382701280381937
 20
60.546089002821176
 30
0.0
 10
-83.233851453993054
 20
66.395861138237848
 30
0.0
 10
-90.450809733072902
 20
66.395861138237848
 30
0.0
  0
LINE
  5
F3
100
AcDbEntity
  8
LIVELLO_1
 62
     7
100
AcDbLine
 10
-83.425399
 20
-88.687696
 30
0.0
 11
-77.450397
 21
21.830967
 31
0.0
  0
POLYLINE
  5
50
100
AcDbEntity
  8
LIVELLO_1
 62
     7
100
AcDb2dPolyline
 66
     1
 10
0.0
 20
0.0
 30
0.0
  0
VERTEX
  5
51
100
AcDbEntity
  8
LIVELLO_1
 62
     7
100
AcDbVertex
100
AcDb2dVertex
 10
-80.681897
 20
42.291045
 30
0.0
  0
VERTEX
  5
52
100
AcDbEntity
  8
LIVELLO_1
 62
     7
100
AcDbVertex
100
AcDb2dVertex
 10
-80.689648
 20
42.597831
 30
0.0
  0
VERTEX
  5
53
100
AcDbEntity
  8
LIVELLO_1
 62
     7
100
AcDbVertex
100
AcDb2dVertex
 10
-80.711353
 20
42.902032
 30
0.0
  0
VERTEX
  5
54
100
AcDbEntity
  8
LIVELLO_1
 62
     7
100
AcDbVertex
100
AcDb2dVertex
 10
-80.750799
 20
43.206062
 30
0.0
  0
VERTEX
  5
55
100
AcDbEntity
  8
LIVELLO_1
 62
     7
100
AcDbVertex
100
AcDb2dVertex
 10
-80.799375
 20
43.510264
 30
0.0
  0
VERTEX
  5
56
100
AcDbEntity
  8
LIVELLO_1
 62
     7
100
AcDbVertex
100
AcDb2dVertex
 10
-80.868449
 20
43.81171
 30
0.0
  0
VERTEX
  5
57
100
AcDbEntity
  8
LIVELLO_1
 62
     7
100
AcDbVertex
100
AcDb2dVertex
 10
-80.951648
 20
44.110916
 30
0.0
  0
VERTEX
  5
58
100
AcDbEntity
  8
LIVELLO_1
 62
     7
100
AcDbVertex
100
AcDb2dVertex
 10
-81.0488
 20
44.407195
 30
0.0
  0
VERTEX
  5
59
100
AcDbEntity
  8
LIVELLO_1
 62
     7
100
AcDbVertex
100
AcDb2dVertex
 10
-81.158698
 20
44.701061
 30
0.0
  0
VERTEX
  5
5A
100
AcDbEntity
  8
LIVELLO_1
 62
     7
100
AcDbVertex
100
AcDb2dVertex
 10
-81.286511
 20
44.990105
 30
0.0
  0
VERTEX
  5
5B
100
AcDbEntity
  8
LIVELLO_1
 62
     7
100
AcDbVertex
100
AcDb2dVertex
 10
-81.425693
 20
45.273464
 30
0.0
  0
VERTEX
  5
5C
100
AcDbEntity
  8
LIVELLO_1
 62
     7
100
AcDbVertex
100
AcDb2dVertex
 10
-81.580206
 20
45.55734
 30
0.0
  0
VERTEX
  5
5D
100
AcDbEntity
  8
LIVELLO_1
 62
     7
100
AcDbVertex
100
AcDb2dVertex
 10
-81.747637
 20
45.83088
 30
0.0
  0
VERTEX
  5
5E
100
AcDbEntity
  8
LIVELLO_1
 62
     7
100
AcDbVertex
100
AcDb2dVertex
 10
-81.927816
 20
46.101493
 30
0.0
  0
VERTEX
  5
5F
100
AcDbEntity
  8
LIVELLO_1
 62
     7
100
AcDbVertex
100
AcDb2dVertex
 10
-82.121947
 20
46.365042
 30
0.0
  0
VERTEX
  5
60
100
AcDbEntity
  8
LIVELLO_1
 62
     7
100
AcDbVertex
100
AcDb2dVertex
 10
-82.327619
 20
46.622908
 30
0.0
  0
VERTEX
  5
61
100
AcDbEntity
  8
LIVELLO_1
 62
     7
100
AcDbVertex
100
AcDb2dVertex
 10
-82.547416
 20
46.876122
 30
0.0
  0
VERTEX
  5
62
100
AcDbEntity
  8
LIVELLO_1
 62
     7
100
AcDbVertex
100
AcDb2dVertex
 10
-82.778754
 20
47.118829
 30
0.0
  0
VERTEX
  5
63
100
AcDbEntity
  8
LIVELLO_1
 62
     7
100
AcDbVertex
100
AcDb2dVertex
 10
-83.021634
 20
47.356369
 30
0.0
  0
VERTEX
  5
64
100
AcDbEntity
  8
LIVELLO_1
 62
     7
100
AcDbVertex
100
AcDb2dVertex
 10
-83.278465
 20
47.584089
 30
0.0
  0
VERTEX
  5
65
100
AcDbEntity
  8
LIVELLO_1
 62
     7
100
AcDbVertex
100
AcDb2dVertex
 10
-83.543049
 20
47.803542
 30
0.0
  0
VERTEX
  5
66
100
AcDbEntity
  8
LIVELLO_1
 62
     7
100
AcDbVertex
100
AcDb2dVertex
 10
-83.820207
 20
48.018516
 30
0.0
  0
VERTEX
  5
67
100
AcDbEntity
  8
LIVELLO_1
 62
     7
100
AcDbVertex
100
AcDb2dVertex
 10
-84.105116
 20
48.220226
 30
0.0
  0
VERTEX
  5
68
100
AcDbEntity
  8
LIVELLO_1
 62
     7
100
AcDbVertex
100
AcDb2dVertex
 10
-84.40415
 20
48.417114
 30
0.0
  0
VERTEX
  5
69
100
AcDbEntity
  8
LIVELLO_1
 62
     7
100
AcDbVertex
100
AcDb2dVertex
 10
-84.709558
 20
48.601082
 30
0.0
  0
VERTEX
  5
6A
100
AcDbEntity
  8
LIVELLO_1
 62
     7
100
AcDbVertex
100
AcDb2dVertex
 10
-85.024095
 20
48.774887
 30
0.0
  0
VERTEX
  5
6B
100
AcDbEntity
  8
LIVELLO_1
 62
     7
100
AcDbVertex
100
AcDb2dVertex
 10
-85.346039
 20
48.94094
 30
0.0
  0
VERTEX
  5
6C
100
AcDbEntity
  8
LIVELLO_1
 62
     7
100
AcDbVertex
100
AcDb2dVertex
 10
-85.675735
 20
49.096831
 30
0.0
  0
VERTEX
  5
6D
100
AcDbEntity
  8
LIVELLO_1
 62
     7
100
AcDbVertex
100
AcDb2dVertex
 10
-86.015594
 20
49.240147
 30
0.0
  0
VERTEX
  5
6E
100
AcDbEntity
  8
LIVELLO_1
 62
     7
100
AcDbVertex
100
AcDb2dVertex
 10
-86.36062
 20
49.375367
 30
0.0
  0
VERTEX
  5
6F
100
AcDbEntity
  8
LIVELLO_1
 62
     7
100
AcDbVertex
100
AcDb2dVertex
 10
-86.711848
 20
49.498012
 30
0.0
  0
VERTEX
  5
70
100
AcDbEntity
  8
LIVELLO_1
 62
     7
100
AcDbVertex
100
AcDb2dVertex
 10
-87.069793
 20
49.608083
 30
0.0
  0
VERTEX
  5
71
100
AcDbEntity
  8
LIVELLO_1
 62
     7
100
AcDbVertex
100
AcDb2dVertex
 10
-87.43394
 20
49.71023
 30
0.0
  0
VERTEX
  5
72
100
AcDbEntity
  8
LIVELLO_1
 62
     7
100
AcDbVertex
100
AcDb2dVertex
 10
-87.798086
 20
49.79963
 30
0.0
  0
VERTEX
  5
73
100
AcDbEntity
  8
LIVELLO_1
 62
     7
100
AcDbVertex
100
AcDb2dVertex
 10
-88.169984
 20
49.8737
 30
0.0
  0
VERTEX
  5
74
100
AcDbEntity
  8
LIVELLO_1
 62
     7
100
AcDbVertex
100
AcDb2dVertex
 10
-88.546878
 20
49.94019
 30
0.0
  0
VERTEX
  5
75
100
AcDbEntity
  8
LIVELLO_1
 62
     7
100
AcDbVertex
100
AcDb2dVertex
 10
-88.922565
 20
49.993934
 30
0.0
  0
VERTEX
  5
76
100
AcDbEntity
  8
LIVELLO_1
 62
     7
100
AcDbVertex
100
AcDb2dVertex
 10
-89.302043
 20
50.037342
 30
0.0
  0
VERTEX
  5
77
100
AcDbEntity
  8
LIVELLO_1
 62
     7
100
AcDbVertex
100
AcDb2dVertex
 10
-89.681692
 20
50.065592
 30
0.0
  0
VERTEX
  5
78
100
AcDbEntity
  8
LIVELLO_1
 62
     7
100
AcDbVertex
100
AcDb2dVertex
 10
-90.066165
 20
50.083506
 30
0.0
  0
VERTEX
  5
79
100
AcDbEntity
  8
LIVELLO_1
 62
     7
100
AcDbVertex
100
AcDb2dVertex
 10
-90.45081
 20
50.090913
 30
0.0
  0
VERTEX
  5
7A
100
AcDbEntity
  8
LIVELLO_1
 62
     7
100
AcDbVertex
100
AcDb2dVertex
 10
-90.832871
 20
50.083506
 30
0.0
  0
VERTEX
  5
7B
100
AcDbEntity
  8
LIVELLO_1
 62
     7
100
AcDbVertex
100
AcDb2dVertex
 10
-91.215104
 20
50.065592
 30
0.0
  0
VERTEX
  5
7C
100
AcDbEntity
  8
LIVELLO_1
 62
     7
100
AcDbVertex
100
AcDb2dVertex
 10
-91.600783
 20
50.037342
 30
0.0
  0
VERTEX
  5
7D
100
AcDbEntity
  8
LIVELLO_1
 62
     7
100
AcDbVertex
100
AcDb2dVertex
 10
-91.979054
 20
49.993934
 30
0.0
  0
VERTEX
  5
7E
100
AcDbEntity
  8
LIVELLO_1
 62
     7
100
AcDbVertex
100
AcDb2dVertex
 10
-92.35612
 20
49.94019
 30
0.0
  0
VERTEX
  5
7F
100
AcDbEntity
  8
LIVELLO_1
 62
     7
100
AcDbVertex
100
AcDb2dVertex
 10
-92.730602
 20
49.8737
 30
0.0
  0
VERTEX
  5
80
100
AcDbEntity
  8
LIVELLO_1
 62
     7
100
AcDbVertex
100
AcDb2dVertex
 10
-93.102327
 20
49.79963
 30
0.0
  0
VERTEX
  5
81
100
AcDbEntity
  8
LIVELLO_1
 62
     7
100
AcDbVertex
100
AcDb2dVertex
 10
-93.469058
 20
49.71023
 30
0.0
  0
VERTEX
  5
82
100
AcDbEntity
  8
LIVELLO_1
 62
     7
100
AcDbVertex
100
AcDb2dVertex
 10
-93.829415
 20
49.608083
 30
0.0
  0
VERTEX
  5
83
100
AcDbEntity
  8
LIVELLO_1
 62
     7
100
AcDbVertex
100
AcDb2dVertex
 10
-94.188394
 20
49.498012
 30
0.0
  0
VERTEX
  5
84
100
AcDbEntity
  8
LIVELLO_1
 62
     7
100
AcDbVertex
100
AcDb2dVertex
 10
-94.541172
 20
49.375367
 30
0.0
  0
VERTEX
  5
85
100
AcDbEntity
  8
LIVELLO_1
 62
     7
100
AcDbVertex
100
AcDb2dVertex
 10
-94.887404
 20
49.240147
 30
0.0
  0
VERTEX
  5
86
100
AcDbEntity
  8
LIVELLO_1
 62
     7
100
AcDbVertex
100
AcDb2dVertex
 10
-95.224851
 20
49.096831
 30
0.0
  0
VERTEX
  5
87
100
AcDbEntity
  8
LIVELLO_1
 62
     7
100
AcDbVertex
100
AcDb2dVertex
 10
-95.554546
 20
48.94094
 30
0.0
  0
VERTEX
  5
88
100
AcDbEntity
  8
LIVELLO_1
 62
     7
100
AcDbVertex
100
AcDb2dVertex
 10
-95.876491
 20
48.774887
 30
0.0
  0
VERTEX
  5
89
100
AcDbEntity
  8
LIVELLO_1
 62
     7
100
AcDbVertex
100
AcDb2dVertex
 10
-96.193439
 20
48.601082
 30
0.0
  0
VERTEX
  5
8A
100
AcDbEntity
  8
LIVELLO_1
 62
     7
100
AcDbVertex
100
AcDb2dVertex
 10
-96.496091
 20
48.417114
 30
0.0
  0
VERTEX
  5
8B
100
AcDbEntity
  8
LIVELLO_1
 62
     7
100
AcDbVertex
100
AcDb2dVertex
 10
-96.795125
 20
48.220226
 30
0.0
  0
VERTEX
  5
8C
100
AcDbEntity
  8
LIVELLO_1
 62
     7
100
AcDbVertex
100
AcDb2dVertex
 10
-97.080207
 20
48.018516
 30
0.0
  0
VERTEX
  5
8D
100
AcDbEntity
  8
LIVELLO_1
 62
     7
100
AcDbVertex
100
AcDb2dVertex
 10
-97.357537
 20
47.803542
 30
0.0
  0
VERTEX
  5
8E
100
AcDbEntity
  8
LIVELLO_1
 62
     7
100
AcDbVertex
100
AcDb2dVertex
 10
-97.624532
 20
47.584089
 30
0.0
  0
VERTEX
  5
8F
100
AcDbEntity
  8
LIVELLO_1
 62
     7
100
AcDbVertex
100
AcDb2dVertex
 10
-97.87878
 20
47.356369
 30
0.0
  0
VERTEX
  5
90
100
AcDbEntity
  8
LIVELLO_1
 62
     7
100
AcDbVertex
100
AcDb2dVertex
 10
-98.121487
 20
47.118829
 30
0.0
  0
VERTEX
  5
91
100
AcDbEntity
  8
LIVELLO_1
 62
     7
100
AcDbVertex
100
AcDb2dVertex
 10
-98.351447
 20
46.876122
 30
0.0
  0
VERTEX
  5
92
100
AcDbEntity
  8
LIVELLO_1
 62
     7
100
AcDbVertex
100
AcDb2dVertex
 10
-98.571417
 20
46.622908
 30
0.0
  0
VERTEX
  5
93
100
AcDbEntity
  8
LIVELLO_1
 62
     7
100
AcDbVertex
100
AcDb2dVertex
 10
-98.778295
 20
46.365042
 30
0.0
  0
VERTEX
  5
94
100
AcDbEntity
  8
LIVELLO_1
 62
     7
100
AcDbVertex
100
AcDb2dVertex
 10
-98.975182
 20
46.101493
 30
0.0
  0
VERTEX
  5
95
100
AcDbEntity
  8
LIVELLO_1
 62
     7
100
AcDbVertex
100
AcDb2dVertex
 10
-99.152776
 20
45.83088
 30
0.0
  0
VERTEX
  5
96
100
AcDbEntity
  8
LIVELLO_1
 62
     7
100
AcDbVertex
100
AcDb2dVertex
 10
-99.320208
 20
45.55734
 30
0.0
  0
VERTEX
  5
97
100
AcDbEntity
  8
LIVELLO_1
 62
     7
100
AcDbVertex
100
AcDb2dVertex
 10
-99.474893
 20
45.273464
 30
0.0
  0
VERTEX
  5
98
100
AcDbEntity
  8
LIVELLO_1
 62
     7
100
AcDbVertex
100
AcDb2dVertex
 10
-99.614075
 20
44.990105
 30
0.0
  0
VERTEX
  5
99
100
AcDbEntity
  8
LIVELLO_1
 62
     7
100
AcDbVertex
100
AcDb2dVertex
 10
-99.739304
 20
44.701061
 30
0.0
  0
VERTEX
  5
9A
100
AcDbEntity
  8
LIVELLO_1
 62
     7
100
AcDbVertex
100
AcDb2dVertex
 10
-99.851786
 20
44.407195
 30
0.0
  0
VERTEX
  5
9B
100
AcDbEntity
  8
LIVELLO_1
 62
     7
100
AcDbVertex
100
AcDb2dVertex
 10
-99.948938
 20
44.110916
 30
0.0
  0
VERTEX
  5
9C
100
AcDbEntity
  8
LIVELLO_1
 62
     7
100
AcDbVertex
100
AcDb2dVertex
 10
-100.029381
 20
43.81171
 30
0.0
  0
VERTEX
  5
9D
100
AcDbEntity
  8
LIVELLO_1
 62
     7
100
AcDbVertex
100
AcDb2dVertex
 10
-100.097077
 20
43.510264
 30
0.0
  0
VERTEX
  5
9E
100
AcDbEntity
  8
LIVELLO_1
 62
     7
100
AcDbVertex
100
AcDb2dVertex
 10
-100.149443
 20
43.206062
 30
0.0
  0
VERTEX
  5
9F
100
AcDbEntity
  8
LIVELLO_1
 62
     7
100
AcDbVertex
100
AcDb2dVertex
 10
-100.186477
 20
42.902032
 30
0.0
  0
VERTEX
  5
A0
100
AcDbEntity
  8
LIVELLO_1
 62
     7
100
AcDbVertex
100
AcDb2dVertex
 10
-100.212143
 20
42.597831
 30
0.0
  0
VERTEX
  5
A1
100
AcDbEntity
  8
LIVELLO_1
 62
     7
100
AcDbVertex
100
AcDb2dVertex
 10
-100.220928
 20
42.291045
 30
0.0
  0
VERTEX
  5
A2
100
AcDbEntity
  8
LIVELLO_1
 62
     7
100
AcDbVertex
100
AcDb2dVertex
 10
-100.212143
 20
41.984431
 30
0.0
  0
VERTEX
  5
A3
100
AcDbEntity
  8
LIVELLO_1
 62
     7
100
AcDbVertex
100
AcDb2dVertex
 10
-100.186477
 20
41.67799
 30
0.0
  0
VERTEX
  5
A4
100
AcDbEntity
  8
LIVELLO_1
 62
     7
100
AcDbVertex
100
AcDb2dVertex
 10
-100.149443
 20
41.371204
 30
0.0
  0
VERTEX
  5
A5
100
AcDbEntity
  8
LIVELLO_1
 62
     7
100
AcDbVertex
100
AcDb2dVertex
 10
-100.097077
 20
41.071998
 30
0.0
  0
VERTEX
  5
A6
100
AcDbEntity
  8
LIVELLO_1
 62
     7
100
AcDbVertex
100
AcDb2dVertex
 10
-100.029381
 20
40.767968
 30
0.0
  0
VERTEX
  5
A7
100
AcDbEntity
  8
LIVELLO_1
 62
     7
100
AcDbVertex
100
AcDb2dVertex
 10
-99.948938
 20
40.469106
 30
0.0
  0
VERTEX
  5
A8
100
AcDbEntity
  8
LIVELLO_1
 62
     7
100
AcDbVertex
100
AcDb2dVertex
 10
-99.851786
 20
40.172483
 30
0.0
  0
VERTEX
  5
A9
100
AcDbEntity
  8
LIVELLO_1
 62
     7
100
AcDbVertex
100
AcDb2dVertex
 10
-99.739304
 20
39.8812
 30
0.0
  0
VERTEX
  5
AA
100
AcDbEntity
  8
LIVELLO_1
 62
     7
100
AcDbVertex
100
AcDb2dVertex
 10
-99.614075
 20
39.589918
 30
0.0
  0
VERTEX
  5
AB
100
AcDbEntity
  8
LIVELLO_1
 62
     7
100
AcDbVertex
100
AcDb2dVertex
 10
-99.474893
 20
39.303802
 30
0.0
  0
VERTEX
  5
AC
100
AcDbEntity
  8
LIVELLO_1
 62
     7
100
AcDbVertex
100
AcDb2dVertex
 10
-99.320208
 20
39.024922
 30
0.0
  0
VERTEX
  5
AD
100
AcDbEntity
  8
LIVELLO_1
 62
     7
100
AcDbVertex
100
AcDb2dVertex
 10
-99.152776
 20
38.749142
 30
0.0
  0
VERTEX
  5
AE
100
AcDbEntity
  8
LIVELLO_1
 62
     7
100
AcDbVertex
100
AcDb2dVertex
 10
-98.975182
 20
38.478013
 30
0.0
  0
VERTEX
  5
AF
100
AcDbEntity
  8
LIVELLO_1
 62
     7
100
AcDbVertex
100
AcDb2dVertex
 10
-98.778295
 20
38.21498
 30
0.0
  0
VERTEX
  5
B0
100
AcDbEntity
  8
LIVELLO_1
 62
     7
100
AcDbVertex
100
AcDb2dVertex
 10
-98.571417
 20
37.95677
 30
0.0
  0
VERTEX
  5
B1
100
AcDbEntity
  8
LIVELLO_1
 62
     7
100
AcDbVertex
100
AcDb2dVertex
 10
-98.351447
 20
37.706484
 30
0.0
  0
VERTEX
  5
B2
100
AcDbEntity
  8
LIVELLO_1
 62
     7
100
AcDbVertex
100
AcDb2dVertex
 10
-98.121487
 20
37.461021
 30
0.0
  0
VERTEX
  5
B3
100
AcDbEntity
  8
LIVELLO_1
 62
     7
100
AcDbVertex
100
AcDb2dVertex
 10
-97.87878
 20
37.223309
 30
0.0
  0
VERTEX
  5
B4
100
AcDbEntity
  8
LIVELLO_1
 62
     7
100
AcDbVertex
100
AcDb2dVertex
 10
-97.624532
 20
36.995933
 30
0.0
  0
VERTEX
  5
B5
100
AcDbEntity
  8
LIVELLO_1
 62
     7
100
AcDbVertex
100
AcDb2dVertex
 10
-97.357537
 20
36.77338
 30
0.0
  0
VERTEX
  5
B6
100
AcDbEntity
  8
LIVELLO_1
 62
     7
100
AcDbVertex
100
AcDb2dVertex
 10
-97.080207
 20
36.561506
 30
0.0
  0
VERTEX
  5
B7
100
AcDbEntity
  8
LIVELLO_1
 62
     7
100
AcDbVertex
100
AcDb2dVertex
 10
-96.795125
 20
36.357212
 30
0.0
  0
VERTEX
  5
B8
100
AcDbEntity
  8
LIVELLO_1
 62
     7
100
AcDbVertex
100
AcDb2dVertex
 10
-96.496091
 20
36.165321
 30
0.0
  0
VERTEX
  5
B9
100
AcDbEntity
  8
LIVELLO_1
 62
     7
100
AcDbVertex
100
AcDb2dVertex
 10
-96.193439
 20
35.98118
 30
0.0
  0
VERTEX
  5
BA
100
AcDbEntity
  8
LIVELLO_1
 62
     7
100
AcDbVertex
100
AcDb2dVertex
 10
-95.876491
 20
35.80238
 30
0.0
  0
VERTEX
  5
BB
100
AcDbEntity
  8
LIVELLO_1
 62
     7
100
AcDbVertex
100
AcDb2dVertex
 10
-95.554546
 20
35.639082
 30
0.0
  0
VERTEX
  5
BC
100
AcDbEntity
  8
LIVELLO_1
 62
     7
100
AcDbVertex
100
AcDb2dVertex
 10
-95.224851
 20
35.482847
 30
0.0
  0
VERTEX
  5
BD
100
AcDbEntity
  8
LIVELLO_1
 62
     7
100
AcDbVertex
100
AcDb2dVertex
 10
-94.887404
 20
35.339876
 30
0.0
  0
VERTEX
  5
BE
100
AcDbEntity
  8
LIVELLO_1
 62
     7
100
AcDbVertex
100
AcDb2dVertex
 10
-94.541172
 20
35.206895
 30
0.0
  0
VERTEX
  5
BF
100
AcDbEntity
  8
LIVELLO_1
 62
     7
100
AcDbVertex
100
AcDb2dVertex
 10
-94.188394
 20
35.08425
 30
0.0
  0
VERTEX
  5
C0
100
AcDbEntity
  8
LIVELLO_1
 62
     7
100
AcDbVertex
100
AcDb2dVertex
 10
-93.829415
 20
34.971767
 30
0.0
  0
VERTEX
  5
C1
100
AcDbEntity
  8
LIVELLO_1
 62
     7
100
AcDbVertex
100
AcDb2dVertex
 10
-93.469058
 20
34.872376
 30
0.0
  0
VERTEX
  5
C2
100
AcDbEntity
  8
LIVELLO_1
 62
     7
100
AcDbVertex
100
AcDb2dVertex
 10
-93.102327
 20
34.782804
 30
0.0
  0
VERTEX
  5
C3
100
AcDbEntity
  8
LIVELLO_1
 62
     7
100
AcDbVertex
100
AcDb2dVertex
 10
-92.730602
 20
34.705978
 30
0.0
  0
VERTEX
  5
C4
100
AcDbEntity
  8
LIVELLO_1
 62
     7
100
AcDbVertex
100
AcDb2dVertex
 10
-92.35612
 20
34.639832
 30
0.0
  0
VERTEX
  5
C5
100
AcDbEntity
  8
LIVELLO_1
 62
     7
100
AcDbVertex
100
AcDb2dVertex
 10
-91.979054
 20
34.585916
 30
0.0
  0
VERTEX
  5
C6
100
AcDbEntity
  8
LIVELLO_1
 62
     7
100
AcDbVertex
100
AcDb2dVertex
 10
-91.600783
 20
34.54492
 30
0.0
  0
VERTEX
  5
C7
100
AcDbEntity
  8
LIVELLO_1
 62
     7
100
AcDbVertex
100
AcDb2dVertex
 10
-91.215104
 20
34.511847
 30
0.0
  0
VERTEX
  5
C8
100
AcDbEntity
  8
LIVELLO_1
 62
     7
100
AcDbVertex
100
AcDb2dVertex
 10
-90.832871
 20
34.494105
 30
0.0
  0
VERTEX
  5
C9
100
AcDbEntity
  8
LIVELLO_1
 62
     7
100
AcDbVertex
100
AcDb2dVertex
 10
-90.45081
 20
34.488937
 30
0.0
  0
VERTEX
  5
CA
100
AcDbEntity
  8
LIVELLO_1
 62
     7
100
AcDbVertex
100
AcDb2dVertex
 10
-90.066165
 20
34.494105
 30
0.0
  0
VERTEX
  5
CB
100
AcDbEntity
  8
LIVELLO_1
 62
     7
100
AcDbVertex
100
AcDb2dVertex
 10
-89.681692
 20
34.511847
 30
0.0
  0
VERTEX
  5
CC
100
AcDbEntity
  8
LIVELLO_1
 62
     7
100
AcDbVertex
100
AcDb2dVertex
 10
-89.302043
 20
34.54492
 30
0.0
  0
VERTEX
  5
CD
100
AcDbEntity
  8
LIVELLO_1
 62
     7
100
AcDbVertex
100
AcDb2dVertex
 10
-88.922565
 20
34.585916
 30
0.0
  0
VERTEX
  5
CE
100
AcDbEntity
  8
LIVELLO_1
 62
     7
100
AcDbVertex
100
AcDb2dVertex
 10
-88.546878
 20
34.639832
 30
0.0
  0
VERTEX
  5
CF
100
AcDbEntity
  8
LIVELLO_1
 62
     7
100
AcDbVertex
100
AcDb2dVertex
 10
-88.169984
 20
34.705978
 30
0.0
  0
VERTEX
  5
D0
100
AcDbEntity
  8
LIVELLO_1
 62
     7
100
AcDbVertex
100
AcDb2dVertex
 10
-87.798086
 20
34.782804
 30
0.0
  0
VERTEX
  5
D1
100
AcDbEntity
  8
LIVELLO_1
 62
     7
100
AcDbVertex
100
AcDb2dVertex
 10
-87.43394
 20
34.872376
 30
0.0
  0
VERTEX
  5
D2
100
AcDbEntity
  8
LIVELLO_1
 62
     7
100
AcDbVertex
100
AcDb2dVertex
 10
-87.069793
 20
34.971767
 30
0.0
  0
VERTEX
  5
D3
100
AcDbEntity
  8
LIVELLO_1
 62
     7
100
AcDbVertex
100
AcDb2dVertex
 10
-86.711848
 20
35.08425
 30
0.0
  0
VERTEX
  5
D4
100
AcDbEntity
  8
LIVELLO_1
 62
     7
100
AcDbVertex
100
AcDb2dVertex
 10
-86.36062
 20
35.206895
 30
0.0
  0
VERTEX
  5
D5
100
AcDbEntity
  8
LIVELLO_1
 62
     7
100
AcDbVertex
100
AcDb2dVertex
 10
-86.015594
 20
35.339876
 30
0.0
  0
VERTEX
  5
D6
100
AcDbEntity
  8
LIVELLO_1
 62
     7
100
AcDbVertex
100
AcDb2dVertex
 10
-85.675735
 20
35.482847
 30
0.0
  0
VERTEX
  5
D7
100
AcDbEntity
  8
LIVELLO_1
 62
     7
100
AcDbVertex
100
AcDb2dVertex
 10
-85.346039
 20
35.639082
 30
0.0
  0
VERTEX
  5
D8
100
AcDbEntity
  8
LIVELLO_1
 62
     7
100
AcDbVertex
100
AcDb2dVertex
 10
-85.024095
 20
35.80238
 30
0.0
  0
VERTEX
  5
D9
100
AcDbEntity
  8
LIVELLO_1
 62
     7
100
AcDbVertex
100
AcDb2dVertex
 10
-84.709558
 20
35.98118
 30
0.0
  0
VERTEX
  5
DA
100
AcDbEntity
  8
LIVELLO_1
 62
     7
100
AcDbVertex
100
AcDb2dVertex
 10
-84.40415
 20
36.165321
 30
0.0
  0
VERTEX
  5
DB
100
AcDbEntity
  8
LIVELLO_1
 62
     7
100
AcDbVertex
100
AcDb2dVertex
 10
-84.105116
 20
36.357212
 30
0.0
  0
VERTEX
  5
DC
100
AcDbEntity
  8
LIVELLO_1
 62
     7
100
AcDbVertex
100
AcDb2dVertex
 10
-83.820207
 20
36.561506
 30
0.0
  0
VERTEX
  5
DD
100
AcDbEntity
  8
LIVELLO_1
 62
     7
100
AcDbVertex
100
AcDb2dVertex
 10
-83.543049
 20
36.77338
 30
0.0
  0
VERTEX
  5
DE
100
AcDbEntity
  8
LIVELLO_1
 62
     7
100
AcDbVertex
100
AcDb2dVertex
 10
-83.278465
 20
36.995933
 30
0.0
  0
VERTEX
  5
DF
100
AcDbEntity
  8
LIVELLO_1
 62
     7
100
AcDbVertex
100
AcDb2dVertex
 10
-83.021634
 20
37.223309
 30
0.0
  0
VERTEX
  5
E0
100
AcDbEntity
  8
LIVELLO_1
 62
     7
100
AcDbVertex
100
AcDb2dVertex
 10
-82.778754
 20
37.461021
 30
0.0
  0
VERTEX
  5
E1
100
AcDbEntity
  8
LIVELLO_1
 62
     7
100
AcDbVertex
100
AcDb2dVertex
 10
-82.547416
 20
37.706484
 30
0.0
  0
VERTEX
  5
E2
100
AcDbEntity
  8
LIVELLO_1
 62
     7
100
AcDbVertex
100
AcDb2dVertex
 10
-82.327619
 20
37.95677
 30
0.0
  0
VERTEX
  5
E3
100
AcDbEntity
  8
LIVELLO_1
 62
     7
100
AcDbVertex
100
AcDb2dVertex
 10
-82.121947
 20
38.21498
 30
0.0
  0
VERTEX
  5
E4
100
AcDbEntity
  8
LIVELLO_1
 62
     7
100
AcDbVertex
100
AcDb2dVertex
 10
-81.927816
 20
38.478013
 30
0.0
  0
VERTEX
  5
E5
100
AcDbEntity
  8
LIVELLO_1
 62
     7
100
AcDbVertex
100
AcDb2dVertex
 10
-81.747637
 20
38.749142
 30
0.0
  0
VERTEX
  5
E6
100
AcDbEntity
  8
LIVELLO_1
 62
     7
100
AcDbVertex
100
AcDb2dVertex
 10
-81.580206
 20
39.024922
 30
0.0
  0
VERTEX
  5
E7
100
AcDbEntity
  8
LIVELLO_1
 62
     7
100
AcDbVertex
100
AcDb2dVertex
 10
-81.425693
 20
39.303802
 30
0.0
  0
VERTEX
  5
E8
100
AcDbEntity
  8
LIVELLO_1
 62
     7
100
AcDbVertex
100
AcDb2dVertex
 10
-81.286511
 20
39.589918
 30
0.0
  0
VERTEX
  5
E9
100
AcDbEntity
  8
LIVELLO_1
 62
     7
100
AcDbVertex
100
AcDb2dVertex
 10
-81.158698
 20
39.8812
 30
0.0
  0
VERTEX
  5
EA
100
AcDbEntity
  8
LIVELLO_1
 62
     7
100
AcDbVertex
100
AcDb2dVertex
 10
-81.0488
 20
40.172483
 30
0.0
  0
VERTEX
  5
EB
100
AcDbEntity
  8
LIVELLO_1
 62
     7
100
AcDbVertex
100
AcDb2dVertex
 10
-80.951648
 20
40.469106
 30
0.0
  0
VERTEX
  5
EC
100
AcDbEntity
  8
LIVELLO_1
 62
     7
100
AcDbVertex
100
AcDb2dVertex
 10
-80.868449
 20
40.767968
 30
0.0
  0
VERTEX
  5
ED
100
AcDbEntity
  8
LIVELLO_1
 62
     7
100
AcDbVertex
100
AcDb2dVertex
 10
-80.799375
 20
41.071998
 30
0.0
  0
VERTEX
  5
EE
100
AcDbEntity
  8
LIVELLO_1
 62
     7
100
AcDbVertex
100
AcDb2dVertex
 10
-80.750799
 20
41.371204
 30
0.0
  0
VERTEX
  5
EF
100
AcDbEntity
  8
LIVELLO_1
 62
     7
100
AcDbVertex
100
AcDb2dVertex
 10
-80.711353
 20
41.67799
 30
0.0
  0
VERTEX
  5
F0
100
AcDbEntity
  8
LIVELLO_1
 62
     7
100
AcDbVertex
100
AcDb2dVertex
 10
-80.689648
 20
41.984431
 30
0.0
  0
VERTEX
  5
F1
100
AcDbEntity
  8
LIVELLO_1
 62
     7
100
AcDbVertex
100
AcDb2dVertex
 10
-80.681897
 20
42.291045
 30
0.0
  0
SEQEND
  5
F2
100
AcDbEntity
  8
LIVELLO_1
 62
     7
  0
SPLINE
  5
4F
100
AcDbEntity
  8
LIVELLO_1
 62
     7
100
AcDbSpline
210
0.0
220
0.0
230
1.0
 70
     8
 71
     3
 72
   119
 73
   115
 74
     0
 42
0.00000001
 43
0.00000001
 40
0.0
 40
0.0
 40
0.0
 40
0.0
 40
1.0
 40
1.0
 40
1.0
 40
2.0
 40
2.0
 40
2.0
 40
3.0
 40
3.0
 40
3.0
 40
4.0
 40
4.0
 40
4.0
 40
5.0
 40
5.0
 40
5.0
 40
6.0
 40
6.0
 40
6.0
 40
7.0
 40
7.0
 40
7.0
 40
8.0
 40
8.0
 40
8.0
 40
9.0
 40
9.0
 40
9.0
 40
10.0
 40
10.0
 40
10.0
 40
11.0
 40
11.0
 40
11.0
 40
12.0
 40
12.0
 40
12.0
 40
13.0
 40
13.0
 40
13.0
 40
14.0
 40
14.0
 40
14.0
 40
15.0
 40
15.0
 40
15.0
 40
16.0
 40
16.0
 40
16.0
 40
17.0
 40
17.0
 40
17.0
 40
18.0
 40
18.0
 40
18.0
 40
19.0
 40
19.0
 40
19.0
 40
20.0
 40
20.0
 40
20.0
 40
21.0
 40
21.0
 40
21.0
 40
22.0
 40
22.0
 40
22.0
 40
23.0
 40
23.0
 40
23.0
 40
24.0
 40
24.0
 40
24.0
 40
25.0
 40
25.0
 40
25.0
 40
26.0
 40
26.0
 40
26.0
 40
27.0
 40
27.0
 40
27.0
 40
28.0
 40
28.0
 40
28.0
 40
29.0
 40
29.0
 40
29.0
 40
30.0
 40
30.0
 40
30.0
 40
31.0
 40
31.0
 40
31.0
 40
32.0
 40
32.0
 40
32.0
 40
33.0
 40
33.0
 40
33.0
 40
34.0
 40
34.0
 40
34.0
 40
35.0
 40
35.0
 40
35.0
 40
36.0
 40
36.0
 40
36.0
 40
37.0
 40
37.0
 40
37.0
 40
38.0
 40
38.0
 40
38.0
 40
38.0
 10
-90.450809733072902
 20
52.805131700303818
 30
0.0
 10
-89.566453721788193
 20
52.805131700303818
 30
0.0
 10
-88.679858398437489
 20
52.731062147352425
 30
0.0
 10
-87.803253851996516
 20
52.585334608289926
 30
0.0
 10
-86.929233127170136
 20
52.442190890842006
 30
0.0
 10
-86.06795925564235
 20
52.224977620442701
 30
0.0
 10
-85.230973307291663
 20
51.931110975477424
 30
0.0
 10
-84.395365397135407
 20
51.637072075737841
 30
0.0
 10
-83.58507893880207
 20
51.271719699435756
 30
0.0
 10
-82.81716715494791
 20
50.826957872178816
 30
0.0
 10
-82.047877332899304
 20
50.382196044921869
 30
0.0
 10
-81.32595757378472
 20
49.860953097873256
 30
0.0
 10
-80.669150119357639
 20
49.268052164713538
 30
0.0
 10
-80.34203830295138
 20
48.969190131293395
 30
0.0
 10
-80.030257161458323
 20
48.654825168185759
 30
0.0
 10
-79.740180121527771
 20
48.319961886935758
 30
0.0
 10
-79.45010308159722
 20
47.985270860460062
 30
0.0
 10
-79.180524359809027
 20
47.634904649522568
 30
0.0
 10
-78.933855523003459
 20
47.264556884765618
 30
0.0
 10
-78.68856472439235
 20
46.896448432074649
 30
0.0
 10
-78.468767632378459
 20
46.510597737630206
 30
0.0
 10
-78.274464246961799
 20
46.114411756727428
 30
0.0
 10
-78.084294976128461
 20
45.715814208984369
 30
0.0
 10
-77.919447157118043
 20
45.301713731553818
 30
0.0
 10
-77.785260687934027
 20
44.880206298828121
 30
0.0
 10
-77.649696180555551
 20
44.460938178168398
 30
0.0
 10
-77.549960666232636
 20
44.026511637369786
 30
0.0
 10
-77.482264539930554
 20
43.589673529730902
 30
0.0
 10
-77.413362630208326
 20
43.152318657769094
 30
0.0
 10
-77.382701280381937
 20
42.710312906901038
 30
0.0
 10
-77.382701280381937
 20
42.265551079644091
 30
0.0
 10
-77.385112847222217
 20
41.823717583550341
 30
0.0
 10
-77.420941840277777
 20
41.381367323133674
 30
0.0
 10
-77.490016004774304
 20
40.944356960720484
 30
0.0
 10
-77.560295952690964
 20
40.507518853081592
 30
0.0
 10
-77.665026855468739
 20
40.075331624348955
 30
0.0
 10
-77.795423719618043
 20
39.653824191623258
 30
0.0
 10
-77.932021755642353
 20
39.234556070963535
 30
0.0
 10
-78.096869574652771
 20
38.820627848307289
 30
0.0
 10
-78.292378743489579
 20
38.422030300564231
 30
0.0
 10
-78.48409830729166
 20
38.026016574435758
 30
0.0
 10
-78.706306966145831
 20
37.639821370442704
 30
0.0
 10
-78.953148057725684
 20
37.271712917751735
 30
0.0
 10
-79.445107693142347
 20
36.533256700303816
 30
0.0
 10
-80.032668728298603
 20
35.861118570963541
 30
0.0
 10
-80.687064615885404
 20
35.260810682508676
 30
0.0
 10
-81.338704427083329
 20
34.665325927734372
 30
0.0
 10
-82.062002224392359
 20
34.141499159071181
 30
0.0
 10
-82.826124403211793
 20
33.693981255425342
 30
0.0
 10
-83.590246582031241
 20
33.246807861328122
 30
0.0
 10
-84.400360785590266
 20
32.873876274956594
 30
0.0
 10
-85.233557128906241
 20
32.577253553602425
 30
0.0
 10
-86.070543077256943
 20
32.280630832248264
 30
0.0
 10
-86.931644694010416
 20
32.058594428168398
 30
0.0
 10
-87.805837673611109
 20
31.910283067491317
 30
0.0
 10
-88.679858398437489
 20
31.761971706814233
 30
0.0
 10
-89.566453721788193
 20
31.687902153862844
 30
0.0
 10
-90.450809733072902
 20
31.687902153862844
 30
0.0
 10
-91.336371527777771
 20
31.687902153862844
 30
0.0
 10
-92.220555284288181
 20
31.761971706814233
 30
0.0
 10
-93.094748263888874
 20
31.910283067491317
 30
0.0
 10
-93.96859673394097
 20
32.058594428168398
 30
0.0
 10
-94.829870605468741
 20
32.280630832248264
 30
0.0
 10
-95.664444986979163
 20
32.577253553602425
 30
0.0
 10
-96.501258680555551
 20
32.873876274956594
 30
0.0
 10
-97.30758327907985
 20
33.246807861328122
 30
0.0
 10
-98.074289279513877
 20
33.693981255425342
 30
0.0
 10
-98.838411458333326
 20
34.141499159071181
 30
0.0
 10
-99.561709255642356
 20
34.665325927734372
 30
0.0
 10
-100.21593288845486
 20
35.260810682508676
 30
0.0
 10
-100.87015652126735
 20
35.861118570963541
 30
0.0
 10
-101.4578898111979
 20
36.533256700303816
 30
0.0
 10
-101.9474378797743
 20
37.271712917751735
 30
0.0
 10
-102.19393446180554
 20
37.639821370442704
 30
0.0
 10
-102.41631537543402
 20
38.026016574435758
 30
0.0
 10
-102.60924072265624
 20
38.422030300564231
 30
0.0
 10
-102.80354410807291
 20
38.820627848307289
 30
0.0
 10
-102.96839192708332
 20
39.234556070963535
 30
0.0
 10
-103.1012003580729
 20
39.653824191623258
 30
0.0
 10
-103.23797064887152
 20
40.075331624348955
 30
0.0
 10
-103.34011773003471
 20
40.507518853081592
 30
0.0
 10
-103.41039767795138
 20
40.944356960720484
 30
0.0
 10
-103.48084988064235
 20
41.381367323133674
 30
0.0
 10
-103.51788465711805
 20
41.823717583550341
 30
0.0
 10
-103.51788465711805
 20
42.265551079644091
 30
0.0
 10
-103.51788465711805
 20
42.710312906901038
 30
0.0
 10
-103.48326144748263
 20
43.152318657769094
 30
0.0
 10
-103.41814914279513
 20
43.589673529730902
 30
0.0
 10
-103.35028076171874
 20
44.026511637369786
 30
0.0
 10
-103.24813368055554
 20
44.460938178168398
 30
0.0
 10
-103.11532524956596
 20
44.880206298828121
 30
0.0
 10
-102.98372260199652
 20
45.301713731553818
 30
0.0
 10
-102.8188747829861
 20
45.715814208984369
 30
0.0
 10
-102.62577718098957
 20
46.114411756727428
 30
0.0
 10
-102.43164605034721
 20
46.510597737630206
 30
0.0
 10
-102.21184895833332
 20
46.896448432074649
 30
0.0
 10
-101.96655815972221
 20
47.264556884765618
 30
0.0
 10
-101.71988932291666
 20
47.634904649522568
 30
0.0
 10
-101.45031060112846
 20
47.985270860460062
 30
0.0
 10
-101.16023356119791
 20
48.319961886935758
 30
0.0
 10
-100.87015652126735
 20
48.654825168185759
 30
0.0
 10
-100.55837537977429
 20
48.969190131293395
 30
0.0
 10
-100.23384738498262
 20
49.268052164713538
 30
0.0
 10
-99.577039930555543
 20
49.860953097873256
 30
0.0
 10
-98.848746744791654
 20
50.382196044921869
 30
0.0
 10
-98.082040744357627
 20
50.826957872178816
 30
0.0
 10
-97.3153347439236
 20
51.271719699435756
 30
0.0
 10
-96.50384250217013
 20
51.637072075737841
 30
0.0
 10
-95.666856553819429
 20
51.931110975477424
 30
0.0
 10
-94.83245442708332
 20
52.224977620442701
 30
0.0
 10
-93.971180555555549
 20
52.442190890842006
 30
0.0
 10
-93.097159830729154
 20
52.585334608289926
 30
0.0
 10
-92.220555284288181
 20
52.731062147352425
 30
0.0
 10
-91.336371527777771
 20
52.805131700303818
 30
0.0
 10
-90.450809733072902
 20
52.805131700303818
 30
0.0
  0
SPLINE
  5
4E
100
AcDbEntity
  8
LIVELLO_1
 62
     7
100
AcDbSpline
210
0.0
220
0.0
230
1.0
 70
     8
 71
     3
 72
    11
 73
     7
 74
     0
 42
0.00000001
 43
0.00000001
 40
0.0
 40
0.0
 40
0.0
 40
0.0
 40
1.0
 40
1.0
 40
1.0
 40
2.0
 40
2.0
 40
2.0
 40
2.0
 10
-89.041421169704847
 20
-91.031049940321168
 30
0.0
 10
-89.203685167100687
 20
-90.862584771050336
 30
0.0
 10
-89.475847710503459
 20
-90.857072618272568
 30
0.0
 10
-89.64327935112847
 20
-91.020714653862839
 30
0.0
 10
-89.648446994357627
 20
-91.026226806640622
 30
0.0
 10
-89.65103081597222
 20
-91.028293863932277
 30
0.0
 10
-89.65103081597222
 20
-91.031049940321168
 30
0.0
  0
SPLINE
  5
4D
100
AcDbEntity
  8
LIVELLO_1
 62
     7
100
AcDbSpline
210
0.0
220
0.0
230
1.0
 70
     8
 71
     3
 72
    11
 73
     7
 74
     0
 42
0.00000001
 43
0.00000001
 40
0.0
 40
0.0
 40
0.0
 40
0.0
 40
1.0
 40
1.0
 40
1.0
 40
2.0
 40
2.0
 40
2.0
 40
2.0
 10
-91.284006076388877
 20
-91.031049940321168
 30
0.0
 10
-91.451437717013874
 20
-90.862584771050336
 30
0.0
 10
-91.721016438802081
 20
-90.857072618272568
 30
0.0
 10
-91.888448079427079
 20
-91.020714653862839
 30
0.0
 10
-91.891031901041657
 20
-91.026226806640622
 30
0.0
 10
-91.893443467881937
 20
-91.028293863932277
 30
0.0
 10
-91.896027289496516
 20
-91.031049940321168
 30
0.0
  0
SPLINE
  5
4C
100
AcDbEntity
  8
LIVELLO_1
 62
     7
100
AcDbSpline
210
0.0
220
0.0
230
1.0
 70
     8
 71
     3
 72
     8
 73
     4
 74
     0
 42
0.00000001
 43
0.00000001
 40
0.0
 40
0.0
 40
0.0
 40
0.0
 40
1.0
 40
1.0
 40
1.0
 40
1.0
 10
-89.860492621527769
 20
-91.031049940321168
 30
0.0
 10
-90.247721354166657
 20
-90.859828694661445
 30
0.0
 10
-90.689899359809019
 20
-90.859828694661445
 30
0.0
 10
-91.076955837673609
 20
-91.031049940321168
 30
0.0
  0
LINE
  5
4B
100
AcDbEntity
  8
LIVELLO_1
 62
     7
100
AcDbLine
 10
-91.896027
 20
-91.03105
 30
0.0
 11
-91.768387
 21
-90.903581
 31
0.0
  0
LINE
  5
4A
100
AcDbEntity
  8
LIVELLO_1
 62
     7
100
AcDbLine
 10
-89.041421
 20
-91.03105
 30
0.0
 11
-89.169234
 21
-90.903581
 31
0.0
  0
LINE
  5
49
100
AcDbEntity
  8
LIVELLO_1
 62
     7
100
AcDbLine
 10
-89.651031
 20
-91.03105
 30
0.0
 11
-89.860493
 21
-91.03105
 31
0.0
  0
LINE
  5
48
100
AcDbEntity
  8
LIVELLO_1
 62
     7
100
AcDbLine
 10
-91.076956
 20
-91.03105
 30
0.0
 11
-91.284006
 21
-91.03105
 31
0.0
  0
LINE
  5
47
100
AcDbEntity
  8
LIVELLO_1
 62
     7
100
AcDbLine
 10
-91.768387
 20
-90.903581
 30
0.0
 11
-89.169234
 21
-90.903581
 31
0.0
  0
LINE
  5
46
100
AcDbEntity
  8
LIVELLO_1
 62
     7
100
AcDbLine
 10
-100.186477
 20
-88.85375
 30
0.0
 11
-97.085202
 21
-88.85375
 31
0.0
  0
SPLINE
  5
45
100
AcDbEntity
  8
LIVELLO_1
 62
     7
100
AcDbSpline
210
0.0
220
0.0
230
1.0
 70
     8
 71
     3
 72
    11
 73
     7
 74
     0
 42
0.00000001
 43
0.00000001
 40
0.0
 40
0.0
 40
0.0
 40
0.0
 40
1.0
 40
1.0
 40
1.0
 40
2.0
 40
2.0
 40
2.0
 40
2.0
 10
-97.213015407986106
 20
-91.031049940321168
 30
0.0
 10
-97.379069010416657
 20
-90.862584771050336
 30
0.0
 10
-97.647441948784717
 20
-90.857072618272568
 30
0.0
 10
-97.818835449218739
 20
-91.020714653862839
 30
0.0
 10
-97.821419270833331
 20
-91.026226806640622
 30
0.0
 10
-97.823830837673597
 20
-91.028293863932277
 30
0.0
 10
-97.82641465928819
 20
-91.031049940321168
 30
0.0
  0
SPLINE
  5
44
100
AcDbEntity
  8
LIVELLO_1
 62
     7
100
AcDbSpline
210
0.0
220
0.0
230
1.0
 70
     8
 71
     3
 72
    11
 73
     7
 74
     0
 42
0.00000001
 43
0.00000001
 40
0.0
 40
0.0
 40
0.0
 40
0.0
 40
1.0
 40
1.0
 40
1.0
 40
2.0
 40
2.0
 40
2.0
 40
2.0
 10
-99.459389919704847
 20
-91.031049940321168
 30
0.0
 10
-99.624237738715266
 20
-90.862584771050336
 30
0.0
 10
-99.893988715277771
 20
-90.857072618272568
 30
0.0
 10
-100.06383192274305
 20
-91.020714653862839
 30
0.0
 10
-100.06641574435763
 20
-91.026226806640622
 30
0.0
 10
-100.06899956597222
 20
-91.028293863932277
 30
0.0
 10
-100.0715833875868
 20
-91.031049940321168
 30
0.0
  0
SPLINE
  5
43
100
AcDbEntity
  8
LIVELLO_1
 62
     7
100
AcDbSpline
210
0.0
220
0.0
230
1.0
 70
     8
 71
     3
 72
     8
 73
     4
 74
     0
 42
0.00000001
 43
0.00000001
 40
0.0
 40
0.0
 40
0.0
 40
0.0
 40
1.0
 40
1.0
 40
1.0
 40
1.0
 10
-98.033464898003459
 20
-91.031049940321168
 30
0.0
 10
-98.420521375868049
 20
-90.859828694661445
 30
0.0
 10
-98.865283203124989
 20
-90.859828694661445
 30
0.0
 10
-99.252339680989579
 20
-91.031049940321168
 30
0.0
  0
LINE
  5
42
100
AcDbEntity
  8
LIVELLO_1
 62
     7
100
AcDbLine
 10
-100.071583
 20
-91.03105
 30
0.0
 11
-99.94377
 21
-90.903581
 31
0.0
  0
LINE
  5
41
100
AcDbEntity
  8
LIVELLO_1
 62
     7
100
AcDbLine
 10
-97.213015
 20
-91.03105
 30
0.0
 11
-97.342034
 21
-90.903581
 31
0.0
  0
LINE
  5
40
100
AcDbEntity
  8
LIVELLO_1
 62
     7
100
AcDbLine
 10
-97.826415
 20
-91.03105
 30
0.0
 11
-98.033465
 21
-91.03105
 31
0.0
  0
LINE
  5
3F
100
AcDbEntity
  8
LIVELLO_1
 62
     7
100
AcDbLine
 10
-99.25234
 20
-91.03105
 30
0.0
 11
-99.45939
 21
-91.03105
 31
0.0
  0
LINE
  5
3E
100
AcDbEntity
  8
LIVELLO_1
 62
     7
100
AcDbLine
 10
-99.94377
 20
-90.903581
 30
0.0
 11
-97.342034
 21
-90.903581
 31
0.0
  0
LINE
  5
3D
100
AcDbEntity
  8
LIVELLO_1
 62
     7
100
AcDbLine
 10
-83.220932
 20
-88.85375
 30
0.0
 11
-86.322207
 21
-88.85375
 31
0.0
  0
LINE
  5
3C
100
AcDbEntity
  8
LIVELLO_1
 62
     7
100
AcDbLine
 10
-79.732601
 20
-90.903581
 30
0.0
 11
-101.190895
 21
-90.903581
 31
0.0
  0
LINE
  5
3B
100
AcDbEntity
  8
LIVELLO_1
 62
     7
100
AcDbLine
 10
-97.085202
 20
-88.85375
 30
0.0
 11
-100.186477
 21
-88.85375
 31
0.0
  0
SPLINE
  5
3A
100
AcDbEntity
  8
LIVELLO_1
 62
     7
100
AcDbSpline
210
0.0
220
0.0
230
1.0
 70
     8
 71
     3
 72
     8
 73
     4
 74
     0
 42
0.00000001
 43
0.00000001
 40
0.0
 40
0.0
 40
0.0
 40
0.0
 40
1.0
 40
1.0
 40
1.0
 40
1.0
 10
-101.7148939344618
 20
-88.853749593098954
 30
0.0
 10
-102.14415283203124
 20
-88.853749593098954
 30
0.0
 10
-102.48917914496526
 20
-89.196192084418399
 30
0.0
 10
-102.48917914496526
 20
-89.623039415147559
 30
0.0
  0
SPLINE
  5
39
100
AcDbEntity
  8
LIVELLO_1
 62
     7
100
AcDbSpline
210
0.0
220
0.0
230
1.0
 70
     8
 71
     3
 72
     8
 73
     4
 74
     0
 42
0.00000001
 43
0.00000001
 40
0.0
 40
0.0
 40
0.0
 40
0.0
 40
1.0
 40
1.0
 40
1.0
 40
1.0
 10
-79.73260091145832
 20
-89.623039415147559
 30
0.0
 10
-79.73260091145832
 20
-89.196192084418399
 30
0.0
 10
-80.080211046006937
 20
-88.853749593098954
 30
0.0
 10
-80.509469943576377
 20
-88.853749593098954
 30
0.0
  0
LINE
  5
38
100
AcDbEntity
  8
LIVELLO_1
 62
     7
100
AcDbLine
 10
-101.714894
 20
-88.85375
 30
0.0
 11
-94.602494
 21
-88.85375
 31
0.0
  0
LINE
  5
37
100
AcDbEntity
  8
LIVELLO_1
 62
     7
100
AcDbLine
 10
-101.190895
 20
-90.903581
 30
0.0
 11
-102.489179
 21
-90.903581
 31
0.0
  0
LINE
  5
36
100
AcDbEntity
  8
LIVELLO_1
 62
     7
100
AcDbLine
 10
-3.983564
 20
-88.85375
 30
0.0
 11
-7.087078
 21
-88.85375
 31
0.0
  0
LINE
  5
35
100
AcDbEntity
  8
LIVELLO_1
 62
     7
100
AcDbLine
 10
-0.496438
 20
-90.903581
 30
0.0
 11
-21.957316
 21
-90.903581
 31
0.0
  0
LINE
  5
34
100
AcDbEntity
  8
LIVELLO_1
 62
     7
100
AcDbLine
 10
-19.764513
 20
-88.85375
 30
0.0
 11
-22.868372
 21
-88.85375
 31
0.0
  0
SPLINE
  5
33
100
AcDbEntity
  8
LIVELLO_1
 62
     7
100
AcDbSpline
210
0.0
220
0.0
230
1.0
 70
     8
 71
     3
 72
     8
 73
     4
 74
     0
 42
0.00000001
 43
0.00000001
 40
0.0
 40
0.0
 40
0.0
 40
0.0
 40
1.0
 40
1.0
 40
1.0
 40
1.0
 10
-22.481315104166665
 20
-88.853749593098954
 30
0.0
 10
-22.908162434895832
 20
-88.853749593098954
 30
0.0
 10
-23.253016493055554
 20
-89.196192084418399
 30
0.0
 10
-23.253016493055554
 20
-89.623039415147559
 30
0.0
  0
SPLINE
  5
32
100
AcDbEntity
  8
LIVELLO_1
 62
     7
100
AcDbSpline
210
0.0
220
0.0
230
1.0
 70
     8
 71
     3
 72
     8
 73
     4
 74
     0
 42
0.00000001
 43
0.00000001
 40
0.0
 40
0.0
 40
0.0
 40
0.0
 40
1.0
 40
1.0
 40
1.0
 40
1.0
 10
-0.496438259548611
 20
-89.623039415147559
 30
0.0
 10
-0.496438259548611
 20
-89.196192084418399
 30
0.0
 10
-0.843703884548611
 20
-88.853749593098954
 30
0.0
 10
-1.2705512152777776
 20
-88.853749593098954
 30
0.0
  0
LINE
  5
31
100
AcDbEntity
  8
LIVELLO_1
 62
     7
100
AcDbLine
 10
-22.481315
 20
-88.85375
 30
0.0
 11
-15.365126
 21
-88.85375
 31
0.0
  0
LINE
  5
30
100
AcDbEntity
  8
LIVELLO_1
 62
     7
100
AcDbLine
 10
-21.957316
 20
-90.903581
 30
0.0
 11
-23.253016
 21
-90.903581
 31
0.0
  0
LINE
  5
2F
100
AcDbEntity
  8
LIVELLO_1
 62
     7
100
AcDbLine
 10
-8.385707
 20
-88.85375
 30
0.0
 11
-5.541436
 21
-88.85375
 31
0.0
  0
SPLINE
  5
2E
100
AcDbEntity
  8
LIVELLO_1
 62
     7
100
AcDbSpline
210
0.0
220
0.0
230
1.0
 70
     8
 71
     3
 72
    11
 73
     7
 74
     0
 42
0.00000001
 43
0.00000001
 40
0.0
 40
0.0
 40
0.0
 40
0.0
 40
1.0
 40
1.0
 40
1.0
 40
2.0
 40
2.0
 40
2.0
 40
2.0
 10
-5.668904622395833
 20
-91.031049940321168
 30
0.0
 10
-5.8339246961805546
 20
-90.862584771050336
 30
0.0
 10
-6.103675672743055
 20
-90.857072618272568
 30
0.0
 10
-6.273518880208333
 20
-91.020714653862839
 30
0.0
 10
-6.2773084852430552
 20
-91.026226806640622
 30
0.0
 10
-6.2797200520833325
 20
-91.028293863932277
 30
0.0
 10
-6.2824761284722213
 20
-91.031049940321168
 30
0.0
  0
SPLINE
  5
2D
100
AcDbEntity
  8
LIVELLO_1
 62
     7
100
AcDbSpline
210
0.0
220
0.0
230
1.0
 70
     8
 71
     3
 72
    11
 73
     7
 74
     0
 42
0.00000001
 43
0.00000001
 40
0.0
 40
0.0
 40
0.0
 40
0.0
 40
1.0
 40
1.0
 40
1.0
 40
2.0
 40
2.0
 40
2.0
 40
2.0
 10
-7.9128675672743052
 20
-91.031049940321168
 30
0.0
 10
-8.0778876410590268
 20
-90.862584771050336
 30
0.0
 10
-8.3498779296874996
 20
-90.857072618272568
 30
0.0
 10
-8.5171373155381929
 20
-91.020714653862839
 30
0.0
 10
-8.5224772135416664
 20
-91.026226806640622
 30
0.0
 10
-8.5224772135416664
 20
-91.028293863932277
 30
0.0
 10
-8.5247165256076389
 20
-91.031049940321168
 30
0.0
  0
SPLINE
  5
2C
100
AcDbEntity
  8
LIVELLO_1
 62
     7
100
AcDbSpline
210
0.0
220
0.0
230
1.0
 70
     8
 71
     3
 72
     8
 73
     4
 74
     0
 42
0.00000001
 43
0.00000001
 40
0.0
 40
0.0
 40
0.0
 40
0.0
 40
1.0
 40
1.0
 40
1.0
 40
1.0
 10
-6.4881483289930548
 20
-91.031049940321168
 30
0.0
 10
-6.8765828450520825
 20
-90.859828694661445
 30
0.0
 10
-7.3187608506944439
 20
-90.859828694661445
 30
0.0
 10
-7.7058173285590268
 20
-91.031049940321168
 30
0.0
  0
ENDBLK
  5
132
100
AcDbEntity
  8
LIVELLO_1
100
AcDbBlockEnd
  0
ENDSEC
  0
SECTION
  2
ENTITIES
  0
INSERT
  5
2A
100
AcDbEntity
  8
LIVELLO_1
 62
     7
100
AcDbBlockReference
  2
AI9-BLK1
 10
111.78887
 20
130.981755
 30
0.0
  0
ENDSEC
  0
SECTION
  2
OBJECTS
  0
DICTIONARY
  5
19
100
AcDbDictionary
280
     0
281
     1
  3
ACAD_GROUP
350
1A
  3
ACAD_MLINESTYLE
350
1B
  3
ACAD_LAYOUT
350
1E
  3
ACAD_PLOTSETTINGS
350
22
  3
ACAD_PLOTSTYLENAME
350
1F
  3
ACAD_WIPEOUT_VARS
350
23
  0
DICTIONARY
  5
1A
102
{ACAD_REACTORS
330
19
102
}
100
AcDbDictionary
280
     0
281
     1
  0
DICTIONARY
  5
1B
102
{ACAD_REACTORS
330
19
102
}
100
AcDbDictionary
280
     0
281
     1
  3
Standard
350
1C
  0
MLINESTYLE
  5
1C
102
{ACAD_REACTORS
330
1B
102
}
100
AcDbMlineStyle
  2
Standard
 70
     0
  3

 62
     0
 51
90.0
 52
90.0
 71
     2
 49
0.5
 62
   256
  6
ByLayer
 49
-0.5
 62
   256
  6
ByLayer
  0
ACDBDICTIONARYWDFLT
  5
1F
102
{ACAD_REACTORS
330
19
102
}
100
AcDbDictionary
281
     1
  3
Normal
350
1D
100
AcDbDictionaryWithDefault
340
1D
  0
ACDBPLACEHOLDER
  5
1D
102
{ACAD_REACTORS
330
1F
102
}
  0
LAYOUT
  5
20
102
{ACAD_REACTORS
330
1E
102
}
100
AcDbPlotSettings
  1

  2

  4

  6

 40
0.0
 41
0.0
 42
0.0
 43
0.0
 44
0.0
 45
0.0
 46
0.0
 47
0.0
 48
0.0
 49
0.0
140
0.0
141
0.0
142
1.0
143
1.0
 70
  1024
 72
     0
 73
     0
 74
     0
  7

 75
     0
147
1.0
148
0.0
149
0.0
100
AcDbLayout
  1
Model
 70
     0
 71
     0
 10
0.0
 20
0.0
 11
0.0
 21
0.0
 12
0.0
 22
0.0
 32
0.0
 14
0.0
 24
0.0
 34
0.0
 15
0.0
 25
0.0
 35
0.0
146
0.0
 13
0.0
 23
0.0
 33
0.0
 16
0.0
 26
0.0
 36
0.0
 17
0.0
 27
0.0
 37
0.0
 76
     0
330
A
331
0
345
0
346
0
  0
LAYOUT
  5
21
102
{ACAD_REACTORS
330
1E
102
}
100
AcDbPlotSettings
  1

  2

  4

  6

 40
0.0
 41
0.0
 42
0.0
 43
0.0
 44
0.0
 45
0.0
 46
0.0
 47
0.0
 48
0.0
 49
0.0
140
0.0
141
0.0
142
1.0
143
1.0
 70
     0
 72
     0
 73
     0
 74
     0
  7

 75
     0
147
1.0
148
0.0
149
0.0
100
AcDbLayout
  1
Layout1
 70
     0
 71
     0
 10
0.0
 20
0.0
 11
0.0
 21
0.0
 12
0.0
 22
0.0
 32
0.0
 14
0.0
 24
0.0
 34
0.0
 15
0.0
 25
0.0
 35
0.0
146
0.0
 13
0.0
 23
0.0
 33
0.0
 16
0.0
 26
0.0
 36
0.0
 17
0.0
 27
0.0
 37
0.0
 76
     0
330
B
331
0
345
0
346
0
  0
DICTIONARY
  5
1E
102
{ACAD_REACTORS
330
19
102
}
100
AcDbDictionary
280
     0
281
     1
  3
Layout1
350
21
  3
Model
350
20
  0
DICTIONARY
  5
22
102
{ACAD_REACTORS
330
19
102
}
100
AcDbDictionary
280
     0
281
     1
  0
WIPEOUTVARIABLES
  5
23
100
AcDbWipeoutVariables
 70
     1
  0
ENDSEC
  0
EOF
