  0
SECTION
  2
HEADER
  9
$ACADVER
  1
AC1015
  9
$ACADMAINTVER
 70
     6
  9
$DWGCODEPAGE
  3
ANSI_932
  9
$INSBASE
 10
0.0
 20
0.0
 30
0.0
  9
$EXTMIN
 10
0.0
 20
0.0
 30
1.000000E+20
  9
$EXTMAX
 10
187.934093
 20
212.922404
 30
-1.000000E+20
  9
$LIMMIN
 10
0.0
 20
0.0
  9
$LIMMAX
 10
187.934093
 20
212.922404
  9
$ORTHOMODE
 70
     0
  9
$REGENMODE
 70
     1
  9
$FILLMODE
 70
     1
  9
$QTEXTMODE
 70
     0
  9
$MIRRTEXT
 70
     1
  9
$LTSCALE
 40
1.0
  9
$ATTMODE
 70
     1
  9
$TEXTSIZE
 40
0.2
  9
$TRACEWID
 40
0.05
  9
$TEXTSTYLE
  7
Standard
  9
$CLAYER
  8
0
  9
$CELTYPE
  6
Continuous
  9
$CECOLOR
 62
   256
  9
$CELTSCALE
 40
1.0
  9
$DISPSILH
 70
     0
  9
$DIMSCALE
 40
1.0
  9
$DIMASZ
 40
0.18
  9
$DIMEXO
 40
0.0625
  9
$DIMDLI
 40
0.38
  9
$DIMRND
 40
0.0
  9
$DIMDLE
 40
0.0
  9
$DIMEXE
 40
0.18
  9
$DIMTP
 40
0.0
  9
$DIMTM
 40
0.0
  9
$DIMTXT
 40
0.18
  9
$DIMCEN
 40
0.09
  9
$DIMTSZ
 40
0.0
  9
$DIMTOL
 70
     0
  9
$DIMLIM
 70
     0
  9
$DIMTIH
 70
     1
  9
$DIMTOH
 70
     1
  9
$DIMSE1
 70
     0
  9
$DIMSE2
 70
     0
  9
$DIMTAD
 70
     0
  9
$DIMZIN
 70
     0
  9
$DIMBLK
  1

  9
$DIMASO
 70
     1
  9
$DIMSHO
 70
     1
  9
$DIMPOST
  1

  9
$DIMAPOST
  1

  9
$DIMALT
 70
     0
  9
$DIMALTD
 70
     2
  9
$DIMALTF
 40
25.4
  9
$DIMLFAC
 40
1.0
  9
$DIMTOFL
 70
     0
  9
$DIMTVP
 40
0.0
  9
$DIMTIX
 70
     0
  9
$DIMSOXD
 70
     0
  9
$DIMSAH
 70
     0
  9
$DIMBLK1
  1

  9
$DIMBLK2
  1

  9
$DIMSTYLE
  2
Standard
  9
$DIMCLRD
 70
     0
  9
$DIMCLRE
 70
     0
  9
$DIMCLRT
 70
     0
  9
$DIMTFAC
 40
1.0
  9
$DIMGAP
 40
0.09
  9
$DIMJUST
 70
     0
  9
$DIMSD1
 70
     0
  9
$DIMSD2
 70
     0
  9
$DIMTOLJ
 70
     1
  9
$DIMTZIN
 70
     0
  9
$DIMALTZ
 70
     0
  9
$DIMALTTZ
 70
     0
  9
$DIMUPT
 70
     0
  9
$DIMDEC
 70
     4
  9
$DIMTDEC
 70
     4
  9
$DIMALTU
 70
     2
  9
$DIMALTTD
 70
     2
  9
$DIMTXSTY
  7
Standard
  9
$DIMAUNIT
 70
     0
  9
$DIMADEC
 70
     0
  9
$DIMALTRND
 40
0.0
  9
$DIMAZIN
 70
     0
  9
$DIMDSEP
 70
     0
  9
$DIMATFIT
 70
     3
  9
$DIMFRAC
 70
     0
  9
$DIMLDRBLK
  1

  9
$DIMLUNIT
 70
     2
  9
$DIMLWD
 70
     0
  9
$DIMLWE
 70
     0
  9
$DIMTMOVE
 70
     0
  9
$LUNITS
 70
     2
  9
$LUPREC
 70
     4
  9
$SKETCHINC
 40
0.1
  9
$FILLETRAD
 40
0.0
  9
$AUNITS
 70
     0
  9
$AUPREC
 70
     0
  9
$MENU
  1
acad
  9
$ELEVATION
 40
0.0
  9
$PELEVATION
 40
0.0
  9
$THICKNESS
 40
0.0
  9
$LIMCHECK
 70
     0
  9
$CHAMFERA
 40
0.0
  9
$CHAMFERB
 40
0.0
  9
$CHAMFERC
 40
0.0
  9
$CHAMFERD
 40
0.0
  9
$SKPOLY
 70
     0
  9
$TDCREATE
 40
0.000000000
  9
$TDUCREATE
 40
0.000000000
  9
$TDUPDATE
 40
0.000000000
  9
$TDUUPDATE
 40
0.000000000
  9
$TDINDWG
 40
0.0000000000
  9
$TDUSRTIMER
 40
0.0000000000
  9
$USRTIMER
 70
     1
  9
$ANGBASE
 50
0.0
  9
$ANGDIR
 70
     0
  9
$PDMODE
 70
     0
  9
$PDSIZE
 40
0.0
  9
$PLINEWID
 40
0.0
  9
$SPLFRAME
 70
     0
  9
$SPLINETYPE
 70
     6
  9
$SPLINESEGS
 70
     8
  9
$HANDSEED
  5
17A
  9
$SURFTAB1
 70
     6
  9
$SURFTAB2
 70
     6
  9
$SURFTYPE
 70
     6
  9
$SURFU
 70
     6
  9
$SURFV
 70
     6
  9
$UCSBASE
  2

  9
$UCSNAME
  2

  9
$UCSORG
 10
0.0
 20
0.0
 30
0.0
  9
$UCSXDIR
 10
1.0
 20
0.0
 30
0.0
  9
$UCSYDIR
 10
0.0
 20
1.0
 30
0.0
  9
$UCSORTHOREF
  2

  9
$UCSORTHOVIEW
 70
     0
  9
$UCSORGTOP
 10
0.0
 20
0.0
 30
0.0
  9
$UCSORGBOTTOM
 10
0.0
 20
0.0
 30
0.0
  9
$UCSORGLEFT
 10
0.0
 20
0.0
 30
0.0
  9
$UCSORGRIGHT
 10
0.0
 20
0.0
 30
0.0
  9
$UCSORGFRONT
 10
0.0
 20
0.0
 30
0.0
  9
$UCSORGBACK
 10
0.0
 20
0.0
 30
0.0
  9
$PUCSBASE
  2

  9
$PUCSNAME
  2

  9
$PUCSORG
 10
0.0
 20
0.0
 30
0.0
  9
$PUCSXDIR
 10
1.0
 20
0.0
 30
0.0
  9
$PUCSYDIR
 10
0.0
 20
1.0
 30
0.0
  9
$PUCSORTHOREF
  2

  9
$PUCSORTHOVIEW
 70
     0
  9
$PUCSORGTOP
 10
0.0
 20
0.0
 30
0.0
  9
$PUCSORGBOTTOM
 10
0.0
 20
0.0
 30
0.0
  9
$PUCSORGLEFT
 10
0.0
 20
0.0
 30
0.0
  9
$PUCSORGRIGHT
 10
0.0
 20
0.0
 30
0.0
  9
$PUCSORGFRONT
 10
0.0
 20
0.0
 30
0.0
  9
$PUCSORGBACK
 10
0.0
 20
0.0
 30
0.0
  9
$USERI1
 70
     0
  9
$USERI2
 70
     0
  9
$USERI3
 70
     0
  9
$USERI4
 70
     0
  9
$USERI5
 70
     0
  9
$USERR1
 40
0.0
  9
$USERR2
 40
0.0
  9
$USERR3
 40
0.0
  9
$USERR4
 40
0.0
  9
$USERR5
 40
0.0
  9
$WORLDVIEW
 70
     1
  9
$SHADEDGE
 70
     3
  9
$SHADEDIF
 70
    70
  9
$TILEMODE
 70
     1
  9
$MAXACTVP
 70
    16
  9
$PINSBASE
 10
0.0
 20
0.0
 30
0.0
  9
$PLIMCHECK
 70
     0
  9
$PEXTMIN
 10
1.000000E+20
 20
1.000000E+20
 30
1.000000E+20
  9
$PEXTMAX
 10
-1.000000E+20
 20
-1.000000E+20
 30
-1.000000E+20
  9
$PLIMMIN
 10
0.0
 20
0.0
  9
$PLIMMAX
 10
12.0
 20
9.0
  9
$UNITMODE
 70
     0
  9
$VISRETAIN
 70
     0
  9
$PLINEGEN
 70
     1
  9
$PSLTSCALE
 70
     0
  9
$TREEDEPTH
 70
  3020
  9
$CMLSTYLE
  2
Standard
  9
$CMLJUST
 70
     0
  9
$CMLSCALE
 40
1.0
  9
$PROXYGRAPHICS
 70
     0
  9
$MEASUREMENT
 70
     1
  9
$CELWEIGHT
370
     0
  9
$ENDCAPS
280
     0
  9
$JOINSTYLE
280
     0
  9
$LWDISPLAY
290
     0
  9
$INSUNITS
 70
     0
  9
$HYPERLINKBASE
  1

  9
$STYLESHEET
  1

  9
$XEDIT
290
     1
  9
$CEPSNTYPE
380
     0
  9
$PSTYLEMODE
290
     1
  9
$FINGERPRINTGUID
  2

  9
$VERSIONGUID
  2

  9
$EXTNAMES
290
     1
  9
$PSVPSCALE
 40
0.0
  0
ENDSEC
  0
SECTION
  2
CLASSES
  0
CLASS
  1
LWPOLYLINE
  2
AcDbPolyline
  3
AutoCAD 2000
 90
    32768
280
     0
281
     1
  0
CLASS
  1
IMAGE
  2
AcDbRasterImage
  3
ISM
 90
    32895
280
     0
281
     1
  0
CLASS
  1
OLE2FRAME
  2
AcDbOle2Frame
  3
AutoCAD 2000
 90
    32768
280
     0
281
     1
  0
CLASS
  1
HATCH
  2
AcDbHatch
  3
AutoCAD 2000
 90
    32768
280
     0
281
     1
  0
CLASS
  1
DICTIONARYVAR
  2
AcDbDictionaryVar
  3
AutoCAD 2000
 90
    32768
280
     0
281
     0
  0
CLASS
  1
RASTERVARIABLES
  2
AcDbRasterVariables
  3
ISM
 90
    32768
280
     0
281
     0
  0
CLASS
  1
IMAGEDEF
  2
AcDbRasterImageDef
  3
ISM
 90
    32768
280
     0
281
     0
  0
CLASS
  1
IMAGEDEF_REACTOR
  2
AcDbRasterImageDefReactor
  3
ISM
 90
    32769
280
     0
281
     0
  0
CLASS
  1
IDBUFFER
  2
AcDbIdBuffer
  3
AutoCAD 2000
 90
    32768
280
     0
281
     0
  0
CLASS
  1
SPATIAL_FILTER
  2
AcDbSpatialFilter
  3
AutoCAD 2000
 90
    32768
280
     0
281
     0
  0
CLASS
  1
XRECORD
  2
AcDbXrecord
  3
AutoCAD 2000
 90
    32768
280
     0
281
     0
  0
CLASS
  1
SORTENTSTABLE
  2
AcDbSortentsTable
  3
AutoCAD 2000
 90
    32768
280
     0
281
     0
  0
CLASS
  1
LAYER_INDEX
  2
AcDbLayerIndex
  3
AutoCAD 2000
 90
    32768
280
     0
281
     0
  0
CLASS
  1
SPATIAL_INDEX
  2
AcDbSpatialIndex
  3
AutoCAD 2000
 90
    32768
280
     0
281
     0
  0
CLASS
  1
OBJECT_PTR
  2
CAseDLPNTableRecord
  3
"ASE-LPNTableRecord"
 90
    32769
280
     0
281
     0
  0
CLASS
  1
LAYOUT
  2
AcDbLayout
  3
AutoCAD 2000
 90
        0
280
     0
281
     0
  0
CLASS
  1
PLOTSETTINGS
  2
AcDbPlotSettings
  3
AutoCAD 2000
 90
    32768
280
     0
281
     0
  0
CLASS
  1
ACDBDICTIONARYWDFLT
  2
AcDbDictionaryWithDefault
  3
AutoCAD 2000
 90
        0
280
     0
281
     0
  0
CLASS
  1
ACDBPLACEHOLDER
  2
AcDbPlaceHolder
  3
AutoCAD 2000
 90
        0
280
     0
281
     0
  0
CLASS
  1
VBA_PROJECT
  2
AcDbVbaProject
  3
acadvba
 90
    32768
280
     0
281
     0
  0
CLASS
  1
WIPEOUT
  2
AcDbWipeout
  3
WipeOut|AutoCAD Express Tool|expresstools@autodesk.com
 90
    32895
280
     0
281
     1
  0
CLASS
  1
WIPEOUTVARIABLES
  2
AcDbWipeoutVariables
  3
WipeOut|AutoCAD Express Tool|expresstools@autodesk.com
 90
        0
280
     0
281
     0
  0
CLASS
  1
RTEXT
  2
RText
  3
RText|AutoCAD Express Tool|expresstools@autodesk.com
 90
    32768
280
     0
281
     1
  0
CLASS
  1
ARCALIGNEDTEXT
  2
AcDbArcAlignedText
  3
ATEXT|AutoCAD Express Tool|expresstools@autodesk.com
 90
    32768
280
     0
281
     1
  0
ENDSEC
  0
SECTION
  2
TABLES
  0
TABLE
  2
VPORT
  5
7
100
AcDbSymbolTable
 70
     1
  0
VPORT
  5
15
100
AcDbSymbolTableRecord
100
AcDbViewportTableRecord
  2
*ACTIVE
 70
     0
 10
0.0
 20
0.0
 11
1.0
 21
1.0
 12
6.591288
 22
4.579184
 13
0.0
 23
0.0
 14
1.0
 24
1.0
 15
0.0
 25
0.0
 16
0.0
 26
0.0
 36
1.0
 17
0.0
 27
0.0
 37
0.0
 40
9.158369
 41
0.688564
 42
50.0
 43
0.0
 44
0.0
 50
0.0
 51
0.0
 71
     0
 72
   100
 73
     1
 74
     1
 75
     0
 76
     0
 77
     0
 78
     0
281
     0
 65
     0
110
0.0
120
0.0
130
0.0
111
1.0
121
0.0
131
0.0
112
0.0
122
1.0
132
0.0
345
0
346
0
 79
     0
146
0.0
  0
ENDTAB
  0
TABLE
  2
LTYPE
  5
4
100
AcDbSymbolTable
 70
     3
  0
LTYPE
  5
11
100
AcDbSymbolTableRecord
100
AcDbLinetypeTableRecord
  2
ByBlock
 70
    64
  3

 72
    65
 73
     0
 40
0.0
  0
LTYPE
  5
12
100
AcDbSymbolTableRecord
100
AcDbLinetypeTableRecord
  2
ByLayer
 70
    64
  3

 72
    65
 73
     0
 40
0.0
  0
LTYPE
  5
13
100
AcDbSymbolTableRecord
100
AcDbLinetypeTableRecord
  2
Continuous
 70
    64
  3
Solid line
 72
    65
 73
     0
 40
0.0
  0
ENDTAB
  0
TABLE
  2
LAYER
  5
2
100
AcDbSymbolTable
 70
     2
  0
LAYER
  5
14
100
AcDbSymbolTableRecord
100
AcDbLayerTableRecord
  2
0
 70
     0
 62
     7
  6
Continuous
290
     1
370
    -3
390
1D
  0
LAYER
  5
28
100
AcDbSymbolTableRecord
100
AcDbLayerTableRecord
  2
LIVELLO_1
 70
     0
 62
   160
  6
Continuous
290
     1
370
    -3
390
1D
  0
ENDTAB
  0
TABLE
  2
STYLE
  5
3
100
AcDbSymbolTable
 70
     5
  0
STYLE
  5
17
100
AcDbSymbolTableRecord
100
AcDbTextStyleTableRecord
  2
Standard
 70
     0
 40
0.0
 41
1.0
 50
0.0
 71
     0
 42
0.0
  3
txt
  4

  0
STYLE
  5
24
100
AcDbSymbolTableRecord
100
AcDbTextStyleTableRecord
  2
STD
 70
     0
 40
0.0
 41
1.0
 50
0.0
 71
     0
 42
0.0
  3
txt
  4

  0
STYLE
  5
25
100
AcDbSymbolTableRecord
100
AcDbTextStyleTableRecord
  2
TATESTD
 70
     4
 40
0.0
 41
1.0
 50
0.0
 71
     0
 42
0.0
  3
txt
  4

  0
STYLE
  5
26
100
AcDbSymbolTableRecord
100
AcDbTextStyleTableRecord
  2
KANJISTD
 70
     0
 40
0.0
 41
1.0
 50
0.0
 71
     0
 42
0.0
  3
txt
  4
extfont
  0
STYLE
  5
27
100
AcDbSymbolTableRecord
100
AcDbTextStyleTableRecord
  2
KANJITATE
 70
     4
 40
0.0
 41
1.0
 50
0.0
 71
     0
 42
0.0
  3
txt
  4
extfont
  0
ENDTAB
  0
TABLE
  2
VIEW
  5
5
100
AcDbSymbolTable
 70
     0
  0
ENDTAB
  0
TABLE
  2
UCS
  5
6
100
AcDbSymbolTable
 70
     0
  0
ENDTAB
  0
TABLE
  2
APPID
  5
8
100
AcDbSymbolTable
 70
     1
  0
APPID
  5
16
100
AcDbSymbolTableRecord
100
AcDbRegAppTableRecord
  2
ACAD
 70
     0
  0
ENDTAB
  0
TABLE
  2
DIMSTYLE
  5
9
100
AcDbSymbolTable
 70
     1
100
AcDbDimStyleTable
 71
     0
  0
DIMSTYLE
105
18
100
AcDbSymbolTableRecord
100
AcDbDimStyleTableRecord
  2
Standard
 70
     0
  3

  4

 40
1.0
 41
0.18
 42
0.0625
 43
0.38
 44
0.18
 45
0.0
 46
0.0
 47
0.0
 48
0.0
 71
     0
 72
     0
 73
     1
 74
     1
 75
     0
 76
     0
 77
     0
 78
     0
 79
     0
140
0.18
141
0.09
142
0.0
143
25.4
144
1.0
145
0.0
146
1.0
147
0.09
148
0.0
170
     0
171
     2
172
     0
173
     0
174
     0
175
     0
176
     0
177
     0
178
     0
179
     0
271
     4
272
     4
273
     2
274
     2
275
     0
276
     0
277
     2
278
    46
279
     0
280
     0
281
     0
282
     0
283
     1
284
     0
285
     0
286
     0
288
     0
340
17
341
0
342
0
343
0
344
0
371
    -2
372
    -2
  0
ENDTAB
  0
TABLE
  2
BLOCK_RECORD
  5
1
100
AcDbSymbolTable
 70
     1
  0
BLOCK_RECORD
  5
A
100
AcDbSymbolTableRecord
100
AcDbBlockTableRecord
  2
*MODEL_SPACE
340
20
  0
BLOCK_RECORD
  5
B
100
AcDbSymbolTableRecord
100
AcDbBlockTableRecord
  2
*PAPER_SPACE
340
21
  0
BLOCK_RECORD
  5
29
100
AcDbSymbolTableRecord
100
AcDbBlockTableRecord
  2
AI9-BLK1
340
0
102
{BLKREFS
331
2A
102
}
  0
ENDTAB
  0
ENDSEC
  0
SECTION
  2
BLOCKS
  0
BLOCK
  5
D
100
AcDbEntity
  8
0
100
AcDbBlockBegin
  2
*MODEL_SPACE
 70
     0
 10
0.0
 20
0.0
 30
0.0
  3
*MODEL_SPACE
  1

  0
ENDBLK
  5
E
100
AcDbEntity
  8
0
100
AcDbBlockEnd
  0
BLOCK
  5
F
100
AcDbEntity
 67
     1
  8
0
100
AcDbBlockBegin
  2
*PAPER_SPACE
 70
     0
 10
0.0
 20
0.0
 30
0.0
  3
*PAPER_SPACE
  1

  0
ENDBLK
  5
10
100
AcDbEntity
 67
     1
  8
0
100
AcDbBlockEnd
  0
BLOCK
  5
2B
100
AcDbEntity
  8
LIVELLO_1
 62
     7
100
AcDbBlockBegin
  2
AI9-BLK1
 70
     0
 10
0.0
 20
0.0
 30
0.0
  3
AI9-BLK1
  1

  0
SPLINE
  5
178
100
AcDbEntity
  8
LIVELLO_1
 62
     7
100
AcDbSpline
210
0.0
220
0.0
230
1.0
 70
     8
 71
     3
 72
   143
 73
   139
 74
     0
 42
0.00000001
 43
0.00000001
 40
0.0
 40
0.0
 40
0.0
 40
0.0
 40
1.0
 40
1.0
 40
1.0
 40
2.0
 40
2.0
 40
2.0
 40
3.0
 40
3.0
 40
3.0
 40
4.0
 40
4.0
 40
4.0
 40
5.0
 40
5.0
 40
5.0
 40
6.0
 40
6.0
 40
6.0
 40
7.0
 40
7.0
 40
7.0
 40
8.0
 40
8.0
 40
8.0
 40
9.0
 40
9.0
 40
9.0
 40
10.0
 40
10.0
 40
10.0
 40
11.0
 40
11.0
 40
11.0
 40
12.0
 40
12.0
 40
12.0
 40
13.0
 40
13.0
 40
13.0
 40
14.0
 40
14.0
 40
14.0
 40
15.0
 40
15.0
 40
15.0
 40
16.0
 40
16.0
 40
16.0
 40
17.0
 40
17.0
 40
17.0
 40
18.0
 40
18.0
 40
18.0
 40
19.0
 40
19.0
 40
19.0
 40
20.0
 40
20.0
 40
20.0
 40
21.0
 40
21.0
 40
21.0
 40
22.0
 40
22.0
 40
22.0
 40
23.0
 40
23.0
 40
23.0
 40
24.0
 40
24.0
 40
24.0
 40
25.0
 40
25.0
 40
25.0
 40
26.0
 40
26.0
 40
26.0
 40
27.0
 40
27.0
 40
27.0
 40
28.0
 40
28.0
 40
28.0
 40
29.0
 40
29.0
 40
29.0
 40
30.0
 40
30.0
 40
30.0
 40
31.0
 40
31.0
 40
31.0
 40
32.0
 40
32.0
 40
32.0
 40
33.0
 40
33.0
 40
33.0
 40
34.0
 40
34.0
 40
34.0
 40
35.0
 40
35.0
 40
35.0
 40
36.0
 40
36.0
 40
36.0
 40
37.0
 40
37.0
 40
37.0
 40
38.0
 40
38.0
 40
38.0
 40
39.0
 40
39.0
 40
39.0
 40
40.0
 40
40.0
 40
40.0
 40
41.0
 40
41.0
 40
41.0
 40
42.0
 40
42.0
 40
42.0
 40
43.0
 40
43.0
 40
43.0
 40
44.0
 40
44.0
 40
44.0
 40
45.0
 40
45.0
 40
45.0
 40
46.0
 40
46.0
 40
46.0
 40
46.0
 10
-14.11145562065972
 20
-36.795859103732639
 30
0.0
 10
-14.11145562065972
 20
-36.795859103732639
 30
0.0
 10
-14.11145562065972
 20
-36.795859103732639
 30
0.0
 10
-14.11145562065972
 20
-36.795859103732639
 30
0.0
 10
-14.11145562065972
 20
-36.79379204644097
 30
0.0
 10
-14.11145562065972
 20
-36.79379204644097
 30
0.0
 10
-14.109216308593748
 20
-36.79379204644097
 30
0.0
 10
-14.109216308593748
 20
-36.79138047960069
 30
0.0
 10
-14.109216308593748
 20
-36.78896891276041
 30
0.0
 10
-14.109216308593748
 20
-36.786901855468749
 30
0.0
 10
-14.109216308593748
 20
-36.786901855468749
 30
0.0
 10
-14.106804741753471
 20
-36.784490288628469
 30
0.0
 10
-14.106804741753471
 20
-36.7824232313368
 30
0.0
 10
-14.106804741753471
 20
-36.7824232313368
 30
0.0
 10
-14.106804741753471
 20
-36.780011664496527
 30
0.0
 10
-14.104565429687499
 20
-36.780011664496527
 30
0.0
 10
-14.104565429687499
 20
-36.773121473524306
 30
0.0
 10
-14.104565429687499
 20
-36.771054416232637
 30
0.0
 10
-14.104565429687499
 20
-36.768642849392357
 30
0.0
 10
-14.102326117621526
 20
-36.764164225260416
 30
0.0
 10
-14.102326117621526
 20
-36.762097167968747
 30
0.0
 10
-14.098881022135416
 20
-36.759685601128467
 30
0.0
 10
-14.098881022135416
 20
-36.752795410156246
 30
0.0
 10
-14.096641710069443
 20
-36.748316786024304
 30
0.0
 10
-14.096641710069443
 20
-36.741426595052083
 30
0.0
 10
-14.094402398003471
 20
-36.736947970920134
 30
0.0
 10
-14.092163085937498
 20
-36.730402289496524
 30
0.0
 10
-14.089923773871526
 20
-36.723512098524303
 30
0.0
 10
-14.087684461805555
 20
-36.719033474392354
 30
0.0
 10
-14.087684461805555
 20
-36.712143283420133
 30
0.0
 10
-14.085445149739583
 20
-36.707664659288191
 30
0.0
 10
-14.083033582899304
 20
-36.70077446831597
 30
0.0
 10
-14.083033582899304
 20
-36.69422878689236
 30
0.0
 10
-14.080794270833332
 20
-36.687338595920139
 30
0.0
 10
-14.078554958767359
 20
-36.673558213975689
 30
0.0
 10
-14.074076334635416
 20
-36.662533908420137
 30
0.0
 10
-14.071837022569444
 20
-36.651165093315967
 30
0.0
 10
-14.067186143663193
 20
-36.639796278211804
 30
0.0
 10
-14.06494683159722
 20
-36.628427463107634
 30
0.0
 10
-14.062707519531248
 20
-36.614991590711803
 30
0.0
 10
-14.060468207465277
 20
-36.603622775607633
 30
0.0
 10
-14.055989583333332
 20
-36.59225396050347
 30
0.0
 10
-14.05375027126736
 20
-36.578473578559027
 30
0.0
 10
-14.048065863715276
 20
-36.567449273003469
 30
0.0
 10
-14.045826551649304
 20
-36.553668891059026
 30
0.0
 10
-14.043414984809026
 20
-36.542300075954856
 30
0.0
 10
-14.038936360677083
 20
-36.530931260850693
 30
0.0
 10
-14.03669704861111
 20
-36.517495388454854
 30
0.0
 10
-14.034457736545138
 20
-36.506126573350691
 30
0.0
 10
-14.027567545572916
 20
-36.47891031901041
 30
0.0
 10
-14.020849609374999
 20
-36.456517198350689
 30
0.0
 10
-14.016370985243054
 20
-36.433779568142356
 30
0.0
 10
-14.011720106336805
 20
-36.408974880642354
 30
0.0
 10
-14.00724148220486
 20
-36.383825683593749
 30
0.0
 10
-13.999317762586804
 20
-36.359020996093747
 30
0.0
 10
-13.992599826388888
 20
-36.336283365885414
 30
0.0
 10
-13.987948947482638
 20
-36.311478678385413
 30
0.0
 10
-13.983470323350693
 20
-36.284262424045139
 30
0.0
 10
-13.978991699218749
 20
-36.261524793836806
 30
0.0
 10
-13.972101508246526
 20
-36.236720106336804
 30
0.0
 10
-13.967622884114583
 20
-36.213982476128471
 30
0.0
 10
-13.958665635850693
 20
-36.164373101128469
 30
0.0
 10
-13.948502604166665
 20
-36.114419216579854
 30
0.0
 10
-13.937133789062498
 20
-36.064809841579859
 30
0.0
 10
-13.928004286024304
 20
-36.017267523871524
 30
0.0
 10
-13.919047037760416
 20
-35.96731363932291
 30
0.0
 10
-13.912156846788193
 20
-35.919771321614583
 30
0.0
 10
-13.901993815104165
 20
-35.8677503797743
 30
0.0
 10
-13.893036566840276
 20
-35.820208062065966
 30
0.0
 10
-13.886146375868055
 20
-35.76818712022569
 30
0.0
 10
-13.879428439670138
 20
-35.720644802517356
 30
0.0
 10
-13.872538248697916
 20
-35.670690917968749
 30
0.0
 10
-13.865820312499999
 20
-35.623148600260414
 30
0.0
 10
-13.858930121527777
 20
-35.571127658420139
 30
0.0
 10
-13.851006401909721
 20
-35.523585340711804
 30
0.0
 10
-13.844288465711804
 20
-35.471564398871521
 30
0.0
 10
-13.839809841579861
 20
-35.421955023871526
 30
0.0
 10
-13.832919650607638
 20
-35.372001139322911
 30
0.0
 10
-13.828441026475693
 20
-35.322047254774304
 30
0.0
 10
-13.826201714409722
 20
-35.297242567274303
 30
0.0
 10
-13.823962402343749
 20
-35.272437879774301
 30
0.0
 10
-13.821723090277777
 20
-35.249700249565969
 30
0.0
 10
-13.819311523437499
 20
-35.222483995225694
 30
0.0
 10
-13.817072211371526
 20
-35.197679307725693
 30
0.0
 10
-13.814832899305554
 20
-35.172874620225691
 30
0.0
 10
-13.812593587239583
 20
-35.150136990017359
 30
0.0
 10
-13.80914849175347
 20
-35.122920735677077
 30
0.0
 10
-13.806909179687498
 20
-35.098116048177083
 30
0.0
 10
-13.806909179687498
 20
-35.073311360677081
 30
0.0
 10
-13.804669867621527
 20
-35.048162163628469
 30
0.0
 10
-13.802430555555555
 20
-35.023357476128467
 30
0.0
 10
-13.802430555555555
 20
-35.009921603732636
 30
0.0
 10
-13.800191243489582
 20
-34.998552788628466
 30
0.0
 10
-13.800191243489582
 20
-34.987183973524303
 30
0.0
 10
-13.800191243489582
 20
-34.973748101128471
 30
0.0
 10
-13.800191243489582
 20
-34.962379286024301
 30
0.0
 10
-13.79795193142361
 20
-34.948598904079859
 30
0.0
 10
-13.79795193142361
 20
-34.935163031684027
 30
0.0
 10
-13.795540364583331
 20
-34.923794216579857
 30
0.0
 10
-13.795540364583331
 20
-34.910358344184026
 30
0.0
 10
-13.795540364583331
 20
-34.898989529079856
 30
0.0
 10
-13.793301052517361
 20
-34.887620713975693
 30
0.0
 10
-13.793301052517361
 20
-34.87384033203125
 30
0.0
 10
-13.793301052517361
 20
-34.862816026475691
 30
0.0
 10
-13.791061740451388
 20
-34.849035644531249
 30
0.0
 10
-13.791061740451388
 20
-34.83559977213541
 30
0.0
 10
-13.791061740451388
 20
-34.828709581163189
 30
0.0
 10
-13.791061740451388
 20
-34.824230957031247
 30
0.0
 10
-13.791061740451388
 20
-34.817340766059026
 30
0.0
 10
-13.791061740451388
 20
-34.817340766059026
 30
0.0
 10
-13.791061740451388
 20
-34.799426269531246
 30
0.0
 10
-13.791061740451388
 20
-34.799426269531246
 30
0.0
 10
-13.791061740451388
 20
-34.792536078559024
 30
0.0
 10
-13.788822428385416
 20
-34.785645887586803
 30
0.0
 10
-13.788822428385416
 20
-34.781167263454861
 30
0.0
 10
-13.788822428385416
 20
-34.781167263454861
 30
0.0
 10
-13.788822428385416
 20
-34.760841200086801
 30
0.0
 10
-13.788822428385416
 20
-34.760841200086801
 30
0.0
 10
-13.788822428385416
 20
-34.760841200086801
 30
0.0
 10
-13.788822428385416
 20
-34.751883951822911
 30
0.0
 10
-13.788822428385416
 20
-34.751883951822911
 30
0.0
 10
-13.788822428385416
 20
-34.747060818142359
 30
0.0
 10
-13.786583116319443
 20
-34.74499376085069
 30
0.0
 10
-13.786583116319443
 20
-34.74258219401041
 30
0.0
 10
-13.786583116319443
 20
-34.740515136718749
 30
0.0
 10
-13.786583116319443
 20
-34.738103569878469
 30
0.0
 10
-13.786583116319443
 20
-34.738103569878469
 30
0.0
 10
-13.786583116319443
 20
-34.738103569878469
 30
0.0
 10
-13.786583116319443
 20
-34.731213378906247
 30
0.0
 10
-13.786583116319443
 20
-34.731213378906247
 30
0.0
 10
-13.786583116319443
 20
-34.731213378906247
 30
0.0
 10
-13.786583116319443
 20
-34.729146321614579
 30
0.0
 10
-13.786583116319443
 20
-34.729146321614579
 30
0.0
 10
-13.786583116319443
 20
-34.729146321614579
 30
0.0
 10
-13.786583116319443
 20
-34.724667697482637
 30
0.0
 10
-13.786583116319443
 20
-34.724667697482637
 30
0.0
 10
-13.786583116319443
 20
-34.724667697482637
 30
0.0
 10
-13.786583116319443
 20
-34.722256130642357
 30
0.0
 10
-13.786583116319443
 20
-34.722256130642357
 30
0.0
  0
LINE
  5
177
100
AcDbEntity
  8
LIVELLO_1
 62
     7
100
AcDbLine
 10
-14.111456
 20
-36.795859
 30
0.0
 11
-23.508298
 21
-96.905885
 31
0.0
  0
LINE
  5
176
100
AcDbEntity
  8
LIVELLO_1
 62
     7
100
AcDbLine
 10
-1.417312
 20
44.389711
 30
0.0
 11
-13.786583
 21
-34.722256
 31
0.0
  0
SPLINE
  5
175
100
AcDbEntity
  8
LIVELLO_1
 62
     7
100
AcDbSpline
210
0.0
220
0.0
230
1.0
 70
     8
 71
     3
 72
   143
 73
   139
 74
     0
 42
0.00000001
 43
0.00000001
 40
0.0
 40
0.0
 40
0.0
 40
0.0
 40
1.0
 40
1.0
 40
1.0
 40
2.0
 40
2.0
 40
2.0
 40
3.0
 40
3.0
 40
3.0
 40
4.0
 40
4.0
 40
4.0
 40
5.0
 40
5.0
 40
5.0
 40
6.0
 40
6.0
 40
6.0
 40
7.0
 40
7.0
 40
7.0
 40
8.0
 40
8.0
 40
8.0
 40
9.0
 40
9.0
 40
9.0
 40
10.0
 40
10.0
 40
10.0
 40
11.0
 40
11.0
 40
11.0
 40
12.0
 40
12.0
 40
12.0
 40
13.0
 40
13.0
 40
13.0
 40
14.0
 40
14.0
 40
14.0
 40
15.0
 40
15.0
 40
15.0
 40
16.0
 40
16.0
 40
16.0
 40
17.0
 40
17.0
 40
17.0
 40
18.0
 40
18.0
 40
18.0
 40
19.0
 40
19.0
 40
19.0
 40
20.0
 40
20.0
 40
20.0
 40
21.0
 40
21.0
 40
21.0
 40
22.0
 40
22.0
 40
22.0
 40
23.0
 40
23.0
 40
23.0
 40
24.0
 40
24.0
 40
24.0
 40
25.0
 40
25.0
 40
25.0
 40
26.0
 40
26.0
 40
26.0
 40
27.0
 40
27.0
 40
27.0
 40
28.0
 40
28.0
 40
28.0
 40
29.0
 40
29.0
 40
29.0
 40
30.0
 40
30.0
 40
30.0
 40
31.0
 40
31.0
 40
31.0
 40
32.0
 40
32.0
 40
32.0
 40
33.0
 40
33.0
 40
33.0
 40
34.0
 40
34.0
 40
34.0
 40
35.0
 40
35.0
 40
35.0
 40
36.0
 40
36.0
 40
36.0
 40
37.0
 40
37.0
 40
37.0
 40
38.0
 40
38.0
 40
38.0
 40
39.0
 40
39.0
 40
39.0
 40
40.0
 40
40.0
 40
40.0
 40
41.0
 40
41.0
 40
41.0
 40
42.0
 40
42.0
 40
42.0
 40
43.0
 40
43.0
 40
43.0
 40
44.0
 40
44.0
 40
44.0
 40
45.0
 40
45.0
 40
45.0
 40
46.0
 40
46.0
 40
46.0
 40
46.0
 10
-23.833170572916664
 20
-98.97707655164929
 30
0.0
 10
-23.833170572916664
 20
-98.97707655164929
 30
0.0
 10
-23.833170572916664
 20
-98.975009494357636
 30
0.0
 10
-23.833170572916664
 20
-98.975009494357636
 30
0.0
 10
-23.833170572916664
 20
-98.975009494357636
 30
0.0
 10
-23.830931260850694
 20
-98.975009494357636
 30
0.0
 10
-23.830931260850694
 20
-98.972597927517356
 30
0.0
 10
-23.830931260850694
 20
-98.972597927517356
 30
0.0
 10
-23.830931260850694
 20
-98.970530870225687
 30
0.0
 10
-23.830931260850694
 20
-98.968119303385407
 30
0.0
 10
-23.828691948784719
 20
-98.968119303385407
 30
0.0
 10
-23.828691948784719
 20
-98.965707736545127
 30
0.0
 10
-23.828691948784719
 20
-98.963640679253459
 30
0.0
 10
-23.826452636718749
 20
-98.963640679253459
 30
0.0
 10
-23.826452636718749
 20
-98.961229112413179
 30
0.0
 10
-23.826452636718749
 20
-98.959162055121524
 30
0.0
 10
-23.826452636718749
 20
-98.956750488281244
 30
0.0
 10
-23.826452636718749
 20
-98.954683430989576
 30
0.0
 10
-23.824041069878469
 20
-98.952271864149296
 30
0.0
 10
-23.824041069878469
 20
-98.947793240017347
 30
0.0
 10
-23.821801757812498
 20
-98.945381673177081
 30
0.0
 10
-23.821801757812498
 20
-98.943314615885413
 30
0.0
 10
-23.819562445746527
 20
-98.936424424913184
 30
0.0
 10
-23.817323133680553
 20
-98.931945800781236
 30
0.0
 10
-23.815083821614582
 20
-98.925055609809021
 30
0.0
 10
-23.815083821614582
 20
-98.918165418836793
 30
0.0
 10
-23.812844509548608
 20
-98.913686794704859
 30
0.0
 10
-23.810605197482637
 20
-98.907141113281241
 30
0.0
 10
-23.808193630642361
 20
-98.902317979600681
 30
0.0
 10
-23.804920789930552
 20
-98.895772298177079
 30
0.0
 10
-23.802681477864581
 20
-98.89129367404513
 30
0.0
 10
-23.800269911024305
 20
-98.881991916232636
 30
0.0
 10
-23.800269911024305
 20
-98.877513292100687
 30
0.0
 10
-23.798030598958331
 20
-98.870623101128459
 30
0.0
 10
-23.793551974826386
 20
-98.859598795572907
 30
0.0
 10
-23.791312662760415
 20
-98.845818413628464
 30
0.0
 10
-23.78683403862847
 20
-98.834449598524301
 30
0.0
 10
-23.784422471788194
 20
-98.823080783420124
 30
0.0
 10
-23.779943847656249
 20
-98.812056477864573
 30
0.0
 10
-23.777704535590274
 20
-98.80068766276041
 30
0.0
 10
-23.773225911458333
 20
-98.784840223524299
 30
0.0
 10
-23.768575032552082
 20
-98.773471408420136
 30
0.0
 10
-23.766335720486108
 20
-98.762102593315959
 30
0.0
 10
-23.761857096354163
 20
-98.750733778211796
 30
0.0
 10
-23.758412000868052
 20
-98.739364963107633
 30
0.0
 10
-23.756172688802081
 20
-98.725929090711801
 30
0.0
 10
-23.751694064670136
 20
-98.714560275607624
 30
0.0
 10
-23.749454752604166
 20
-98.703191460503461
 30
0.0
 10
-23.744803873697915
 20
-98.691822645399299
 30
0.0
 10
-23.738085937499999
 20
-98.66701795789929
 30
0.0
 10
-23.73136800130208
 20
-98.642213270399296
 30
0.0
 10
-23.726717122395833
 20
-98.617408582899301
 30
0.0
 10
-23.719999186197914
 20
-98.592259385850681
 30
0.0
 10
-23.713108995225692
 20
-98.567454698350687
 30
0.0
 10
-23.707596842447913
 20
-98.544717068142347
 30
0.0
 10
-23.700706651475691
 20
-98.522323947482633
 30
0.0
 10
-23.693988715277776
 20
-98.495107693142359
 30
0.0
 10
-23.689337836371525
 20
-98.472370062934019
 30
0.0
 10
-23.682619900173609
 20
-98.447565375434024
 30
0.0
 10
-23.678141276041664
 20
-98.424827745225684
 30
0.0
 10
-23.671251085069443
 20
-98.39761149088541
 30
0.0
 10
-23.661088053385413
 20
-98.350069173177076
 30
0.0
 10
-23.649891493055552
 20
-98.300459798177073
 30
0.0
 10
-23.64076199001736
 20
-98.250505913628459
 30
0.0
 10
-23.629393174913194
 20
-98.202963595920124
 30
0.0
 10
-23.620435926649304
 20
-98.153009711371524
 30
0.0
 10
-23.612512207031248
 20
-98.103400336371521
 30
0.0
 10
-23.603382703993052
 20
-98.055858018663187
 30
0.0
 10
-23.594425455729166
 20
-98.003837076822904
 30
0.0
 10
-23.587535264756941
 20
-97.95629475911457
 30
0.0
 10
-23.578578016493054
 20
-97.904273817274301
 30
0.0
 10
-23.571687825520833
 20
-97.856731499565967
 30
0.0
 10
-23.563764105902777
 20
-97.804710557725684
 30
0.0
 10
-23.559285481770832
 20
-97.75716824001735
 30
0.0
 10
-23.552395290798611
 20
-97.70480278862847
 30
0.0
 10
-23.547916666666666
 20
-97.657260470920136
 30
0.0
 10
-23.543438042534721
 20
-97.607651095920133
 30
0.0
 10
-23.538959418402776
 20
-97.557697211371519
 30
0.0
 10
-23.534308539496525
 20
-97.505676269531236
 30
0.0
 10
-23.532069227430554
 20
-97.48293863932291
 30
0.0
 10
-23.52982991536458
 20
-97.458133951822902
 30
0.0
 10
-23.527590603298609
 20
-97.430917697482627
 30
0.0
 10
-23.525351291232635
 20
-97.406113009982633
 30
0.0
 10
-23.523111979166664
 20
-97.381308322482624
 30
0.0
 10
-23.523111979166664
 20
-97.358570692274299
 30
0.0
 10
-23.520700412326388
 20
-97.331354437934024
 30
0.0
 10
-23.520700412326388
 20
-97.306549750434016
 30
0.0
 10
-23.518461100260414
 20
-97.281745062934021
 30
0.0
 10
-23.515188259548609
 20
-97.256595865885402
 30
0.0
 10
-23.515188259548609
 20
-97.229379611545127
 30
0.0
 10
-23.512776692708332
 20
-97.206986490885413
 30
0.0
 10
-23.512776692708332
 20
-97.19320610894097
 30
0.0
 10
-23.512776692708332
 20
-97.181837293836793
 30
0.0
 10
-23.512776692708332
 20
-97.170812988281241
 30
0.0
 10
-23.512776692708332
 20
-97.170812988281241
 30
0.0
 10
-23.512776692708332
 20
-97.129816351996524
 30
0.0
 10
-23.512776692708332
 20
-97.129816351996524
 30
0.0
 10
-23.510537380642358
 20
-97.118792046440959
 30
0.0
 10
-23.510537380642358
 20
-97.107423231336796
 30
0.0
 10
-23.510537380642358
 20
-97.093642849392353
 30
0.0
 10
-23.510537380642358
 20
-97.093642849392353
 30
0.0
 10
-23.510537380642358
 20
-97.057469346788181
 30
0.0
 10
-23.510537380642358
 20
-97.057469346788181
 30
0.0
 10
-23.508298068576387
 20
-97.04403347439235
 30
0.0
 10
-23.508298068576387
 20
-97.030253092447907
 30
0.0
 10
-23.508298068576387
 20
-97.018884277343744
 30
0.0
 10
-23.508298068576387
 20
-97.018884277343744
 30
0.0
 10
-23.508298068576387
 20
-96.998558213975684
 30
0.0
 10
-23.508298068576387
 20
-96.998558213975684
 30
0.0
 10
-23.508298068576387
 20
-96.998558213975684
 30
0.0
 10
-23.508298068576387
 20
-96.982710774739573
 30
0.0
 10
-23.508298068576387
 20
-96.982710774739573
 30
0.0
 10
-23.508298068576387
 20
-96.982710774739573
 30
0.0
 10
-23.508298068576387
 20
-96.962384711371513
 30
0.0
 10
-23.508298068576387
 20
-96.962384711371513
 30
0.0
 10
-23.508298068576387
 20
-96.962384711371513
 30
0.0
 10
-23.508298068576387
 20
-96.942058648003467
 30
0.0
 10
-23.508298068576387
 20
-96.942058648003467
 30
0.0
 10
-23.508298068576387
 20
-96.942058648003467
 30
0.0
 10
-23.508298068576387
 20
-96.93310139973957
 30
0.0
 10
-23.508298068576387
 20
-96.93310139973957
 30
0.0
 10
-23.508298068576387
 20
-96.93310139973957
 30
0.0
 10
-23.508298068576387
 20
-96.923799641927076
 30
0.0
 10
-23.508298068576387
 20
-96.923799641927076
 30
0.0
 10
-23.508298068576387
 20
-96.923799641927076
 30
0.0
 10
-23.508298068576387
 20
-96.919321017795127
 30
0.0
 10
-23.508298068576387
 20
-96.919321017795127
 30
0.0
 10
-23.508298068576387
 20
-96.919321017795127
 30
0.0
 10
-23.508298068576387
 20
-96.914842393663179
 30
0.0
 10
-23.508298068576387
 20
-96.914842393663179
 30
0.0
 10
-23.508298068576387
 20
-96.914842393663179
 30
0.0
 10
-23.508298068576387
 20
-96.910363769531244
 30
0.0
 10
-23.508298068576387
 20
-96.910363769531244
 30
0.0
 10
-23.508298068576387
 20
-96.910363769531244
 30
0.0
 10
-23.508298068576387
 20
-96.907952202690964
 30
0.0
 10
-23.508298068576387
 20
-96.907952202690964
 30
0.0
 10
-23.508298068576387
 20
-96.907952202690964
 30
0.0
 10
-23.508298068576387
 20
-96.905885145399296
 30
0.0
 10
-23.508298068576387
 20
-96.905885145399296
 30
0.0
  0
LINE
  5
174
100
AcDbEntity
  8
LIVELLO_1
 62
     7
100
AcDbLine
 10
-23.833171
 20
-98.977077
 30
0.0
 11
-24.616413
 21
-103.986934
 31
0.0
  0
SPLINE
  5
173
100
AcDbEntity
  8
LIVELLO_1
 62
     7
100
AcDbSpline
210
0.0
220
0.0
230
1.0
 70
     8
 71
     3
 72
     8
 73
     4
 74
     0
 42
0.00000001
 43
0.00000001
 40
0.0
 40
0.0
 40
0.0
 40
0.0
 40
1.0
 40
1.0
 40
1.0
 40
1.0
 10
-1.4173122829861109
 20
44.389710828993053
 30
0.0
 10
-1.132058376736111
 20
46.216472710503467
 30
0.0
 10
-0.7269151475694444
 20
48.023080783420134
 30
0.0
 10
-0.2005045572916666
 20
49.800061035156247
 30
0.0
  0
SPLINE
  5
172
100
AcDbEntity
  8
LIVELLO_1
 62
     7
100
AcDbSpline
210
0.0
220
0.0
230
1.0
 70
     8
 71
     3
 72
     8
 73
     4
 74
     0
 42
0.00000001
 43
0.00000001
 40
0.0
 40
0.0
 40
0.0
 40
0.0
 40
1.0
 40
1.0
 40
1.0
 40
1.0
 10
21.925621202256941
 20
41.412976074218747
 30
0.0
 10
21.867743598090275
 20
41.127722167968749
 30
0.0
 10
21.805731879340275
 20
40.844535319010411
 30
0.0
 10
21.738897026909719
 20
40.561692979600693
 30
0.0
  0
LINE
  5
171
100
AcDbEntity
  8
LIVELLO_1
 62
     7
100
AcDbLine
 10
-11.709535
 20
-103.986934
 30
0.0
 11
21.738897
 21
40.561693
 31
0.0
  0
SPLINE
  5
170
100
AcDbEntity
  8
LIVELLO_1
 62
     7
100
AcDbSpline
210
0.0
220
0.0
230
1.0
 70
     8
 71
     3
 72
    11
 73
     7
 74
     0
 42
0.00000001
 43
0.00000001
 40
0.0
 40
0.0
 40
0.0
 40
0.0
 40
1.0
 40
1.0
 40
1.0
 40
2.0
 40
2.0
 40
2.0
 40
2.0
 10
-0.2005045572916666
 20
49.800061035156247
 30
0.0
 10
6.9167182074652773
 20
73.873010253906244
 30
0.0
 10
32.1995849609375
 20
87.616357421874994
 30
0.0
 10
56.271500651041663
 20
80.499134657118049
 30
0.0
 10
63.040079752604164
 20
78.497878689236103
 30
0.0
 10
69.251931423611111
 20
74.945985243055546
 30
0.0
 10
74.409928385416663
 20
70.126468912760416
 30
0.0
  0
SPLINE
  5
16F
100
AcDbEntity
  8
LIVELLO_1
 62
     7
100
AcDbSpline
210
0.0
220
0.0
230
1.0
 70
     8
 71
     3
 72
    11
 73
     7
 74
     0
 42
0.00000001
 43
0.00000001
 40
0.0
 40
0.0
 40
0.0
 40
0.0
 40
1.0
 40
1.0
 40
1.0
 40
2.0
 40
2.0
 40
2.0
 40
2.0
 10
21.925621202256941
 20
41.412976074218747
 30
0.0
 10
24.411257595486109
 20
53.263587782118051
 30
0.0
 10
36.034665256076387
 20
60.853994411892359
 30
0.0
 10
47.884071180555551
 20
58.370769585503467
 30
0.0
 10
52.643815104166663
 20
57.372380913628469
 30
0.0
 10
56.933648003472214
 20
54.821115451388884
 30
0.0
 10
60.08694390190972
 20
51.115398491753467
 30
0.0
  0
LINE
  5
16E
100
AcDbEntity
  8
LIVELLO_1
 62
     7
100
AcDbLine
 10
-24.616413
 20
-103.986934
 30
0.0
 11
-11.709535
 21
-103.986934
 31
0.0
  0
LINE
  5
16D
100
AcDbEntity
  8
LIVELLO_1
 62
     7
100
AcDbLine
 10
60.086944
 20
51.115398
 30
0.0
 11
74.409928
 21
70.126469
 31
0.0
  0
LINE
  5
16C
100
AcDbEntity
  8
LIVELLO_1
 62
     7
100
AcDbLine
 10
-93.802888
 20
70.599653
 30
0.0
 11
-93.802888
 21
60.659347
 31
0.0
  0
LINE
  5
16B
100
AcDbEntity
  8
LIVELLO_1
 62
     7
100
AcDbLine
 10
-70.276675
 20
60.659347
 30
0.0
 11
-70.276675
 21
44.084131
 31
0.0
  0
SPLINE
  5
16A
100
AcDbEntity
  8
LIVELLO_1
 62
     7
100
AcDbSpline
210
0.0
220
0.0
230
1.0
 70
     8
 71
     3
 72
     8
 73
     4
 74
     0
 42
0.00000001
 43
0.00000001
 40
0.0
 40
0.0
 40
0.0
 40
0.0
 40
1.0
 40
1.0
 40
1.0
 40
1.0
 10
-70.276675075954856
 20
44.084130859374994
 30
0.0
 10
-70.276675075954856
 20
43.585970052083333
 30
0.0
 10
-70.283393012152771
 20
43.083502875434021
 30
0.0
 10
-70.30389133029513
 20
42.585514322916666
 30
0.0
  0
SPLINE
  5
169
100
AcDbEntity
  8
LIVELLO_1
 62
     7
100
AcDbSpline
210
0.0
220
0.0
230
1.0
 70
     8
 71
     3
 72
     8
 73
     4
 74
     0
 42
0.00000001
 43
0.00000001
 40
0.0
 40
0.0
 40
0.0
 40
0.0
 40
1.0
 40
1.0
 40
1.0
 40
1.0
 10
-93.77239854600694
 20
42.585514322916666
 30
0.0
 10
-93.793930392795133
 20
43.083502875434021
 30
0.0
 10
-93.802887641059016
 20
43.585970052083333
 30
0.0
 10
-93.802887641059016
 20
44.084130859374994
 30
0.0
  0
LINE
  5
168
100
AcDbEntity
  8
LIVELLO_1
 62
     7
100
AcDbLine
 10
-93.802888
 20
44.084131
 30
0.0
 11
-93.802888
 21
60.659347
 31
0.0
  0
SPLINE
  5
167
100
AcDbEntity
  8
LIVELLO_1
 62
     7
100
AcDbSpline
210
0.0
220
0.0
230
1.0
 70
     8
 71
     3
 72
     8
 73
     4
 74
     0
 42
0.00000001
 43
0.00000001
 40
0.0
 40
0.0
 40
0.0
 40
0.0
 40
1.0
 40
1.0
 40
1.0
 40
1.0
 10
-93.802887641059016
 20
70.599652777777777
 30
0.0
 10
-93.802887641059016
 20
77.09658610026041
 30
0.0
 10
-88.536197916666666
 20
82.364481608072907
 30
0.0
 10
-82.038058810763886
 20
82.364481608072907
 30
0.0
  0
LINE
  5
166
100
AcDbEntity
  8
LIVELLO_1
 62
     7
100
AcDbLine
 10
-88.421993
 20
-103.952828
 30
0.0
 11
-93.772399
 21
42.585514
 31
0.0
  0
SPLINE
  5
165
100
AcDbEntity
  8
LIVELLO_1
 62
     7
100
AcDbSpline
210
0.0
220
0.0
230
1.0
 70
     8
 71
     3
 72
     8
 73
     4
 74
     0
 42
0.00000001
 43
0.00000001
 40
0.0
 40
0.0
 40
0.0
 40
0.0
 40
1.0
 40
1.0
 40
1.0
 40
1.0
 10
-82.038058810763886
 20
82.364481608072907
 30
0.0
 10
-75.541125488281239
 20
82.364481608072907
 30
0.0
 10
-70.276675075954856
 20
77.09658610026041
 30
0.0
 10
-70.276675075954856
 20
70.599652777777777
 30
0.0
  0
LINE
  5
164
100
AcDbEntity
  8
LIVELLO_1
 62
     7
100
AcDbLine
 10
-70.276675
 20
60.659347
 30
0.0
 11
-70.276675
 21
70.599653
 31
0.0
  0
LINE
  5
163
100
AcDbEntity
  8
LIVELLO_1
 62
     7
100
AcDbLine
 10
-75.672384
 20
-104.12715
 30
0.0
 11
-70.303891
 21
42.585514
 31
0.0
  0
POLYLINE
  5
13C
100
AcDbEntity
  8
LIVELLO_1
 62
     7
100
AcDb2dPolyline
 66
     1
 10
0.0
 20
0.0
 30
0.0
  0
VERTEX
  5
13D
100
AcDbEntity
  8
LIVELLO_1
 62
     7
100
AcDbVertex
100
AcDb2dVertex
 10
-75.702873
 20
-103.986934
 30
0.0
  0
VERTEX
  5
13E
100
AcDbEntity
  8
LIVELLO_1
 62
     7
100
AcDbVertex
100
AcDb2dVertex
 10
-75.705284
 20
-103.986934
 30
0.0
  0
VERTEX
  5
13F
100
AcDbEntity
  8
LIVELLO_1
 62
     7
100
AcDbVertex
100
AcDb2dVertex
 10
-75.707524
 20
-103.986934
 30
0.0
  0
VERTEX
  5
140
100
AcDbEntity
  8
LIVELLO_1
 62
     7
100
AcDbVertex
100
AcDb2dVertex
 10
-75.709763
 20
-103.986934
 30
0.0
  0
VERTEX
  5
141
100
AcDbEntity
  8
LIVELLO_1
 62
     7
100
AcDbVertex
100
AcDb2dVertex
 10
-75.714242
 20
-103.986934
 30
0.0
  0
VERTEX
  5
142
100
AcDbEntity
  8
LIVELLO_1
 62
     7
100
AcDbVertex
100
AcDb2dVertex
 10
-75.716481
 20
-103.986934
 30
0.0
  0
VERTEX
  5
143
100
AcDbEntity
  8
LIVELLO_1
 62
     7
100
AcDbVertex
100
AcDb2dVertex
 10
-75.724405
 20
-103.986934
 30
0.0
  0
VERTEX
  5
144
100
AcDbEntity
  8
LIVELLO_1
 62
     7
100
AcDbVertex
100
AcDb2dVertex
 10
-75.731295
 20
-103.986934
 30
0.0
  0
VERTEX
  5
145
100
AcDbEntity
  8
LIVELLO_1
 62
     7
100
AcDbVertex
100
AcDb2dVertex
 10
-75.747142
 20
-103.986934
 30
0.0
  0
VERTEX
  5
146
100
AcDbEntity
  8
LIVELLO_1
 62
     7
100
AcDbVertex
100
AcDb2dVertex
 10
-75.76075
 20
-103.986934
 30
0.0
  0
VERTEX
  5
147
100
AcDbEntity
  8
LIVELLO_1
 62
     7
100
AcDbVertex
100
AcDb2dVertex
 10
-75.775392
 20
-103.986934
 30
0.0
  0
VERTEX
  5
148
100
AcDbEntity
  8
LIVELLO_1
 62
     7
100
AcDbVertex
100
AcDb2dVertex
 10
-75.789
 20
-103.986934
 30
0.0
  0
VERTEX
  5
149
100
AcDbEntity
  8
LIVELLO_1
 62
     7
100
AcDbVertex
100
AcDb2dVertex
 10
-75.816216
 20
-103.986934
 30
0.0
  0
VERTEX
  5
14A
100
AcDbEntity
  8
LIVELLO_1
 62
     7
100
AcDbVertex
100
AcDb2dVertex
 10
-75.844466
 20
-103.986934
 30
0.0
  0
VERTEX
  5
14B
100
AcDbEntity
  8
LIVELLO_1
 62
     7
100
AcDbVertex
100
AcDb2dVertex
 10
-75.872716
 20
-103.986934
 30
0.0
  0
VERTEX
  5
14C
100
AcDbEntity
  8
LIVELLO_1
 62
     7
100
AcDbVertex
100
AcDb2dVertex
 10
-75.930421
 20
-103.986934
 30
0.0
  0
VERTEX
  5
14D
100
AcDbEntity
  8
LIVELLO_1
 62
     7
100
AcDbVertex
100
AcDb2dVertex
 10
-75.985887
 20
-103.986934
 30
0.0
  0
VERTEX
  5
14E
100
AcDbEntity
  8
LIVELLO_1
 62
     7
100
AcDbVertex
100
AcDb2dVertex
 10
-76.043593
 20
-103.986934
 30
0.0
  0
VERTEX
  5
14F
100
AcDbEntity
  8
LIVELLO_1
 62
     7
100
AcDbVertex
100
AcDb2dVertex
 10
-76.099059
 20
-103.986934
 30
0.0
  0
VERTEX
  5
150
100
AcDbEntity
  8
LIVELLO_1
 62
     7
100
AcDbVertex
100
AcDb2dVertex
 10
-76.15797
 20
-103.986934
 30
0.0
  0
VERTEX
  5
151
100
AcDbEntity
  8
LIVELLO_1
 62
     7
100
AcDbVertex
100
AcDb2dVertex
 10
-76.268902
 20
-103.986934
 30
0.0
  0
VERTEX
  5
152
100
AcDbEntity
  8
LIVELLO_1
 62
     7
100
AcDbVertex
100
AcDb2dVertex
 10
-76.382073
 20
-103.986934
 30
0.0
  0
VERTEX
  5
153
100
AcDbEntity
  8
LIVELLO_1
 62
     7
100
AcDbVertex
100
AcDb2dVertex
 10
-76.495245
 20
-103.986934
 30
0.0
  0
VERTEX
  5
154
100
AcDbEntity
  8
LIVELLO_1
 62
     7
100
AcDbVertex
100
AcDb2dVertex
 10
-76.609622
 20
-103.986934
 30
0.0
  0
VERTEX
  5
155
100
AcDbEntity
  8
LIVELLO_1
 62
     7
100
AcDbVertex
100
AcDb2dVertex
 10
-76.834759
 20
-103.986934
 30
0.0
  0
VERTEX
  5
156
100
AcDbEntity
  8
LIVELLO_1
 62
     7
100
AcDbVertex
100
AcDb2dVertex
 10
-77.061274
 20
-103.986934
 30
0.0
  0
VERTEX
  5
157
100
AcDbEntity
  8
LIVELLO_1
 62
     7
100
AcDbVertex
100
AcDb2dVertex
 10
-77.286411
 20
-103.986934
 30
0.0
  0
VERTEX
  5
158
100
AcDbEntity
  8
LIVELLO_1
 62
     7
100
AcDbVertex
100
AcDb2dVertex
 10
-77.513959
 20
-103.986934
 30
0.0
  0
VERTEX
  5
159
100
AcDbEntity
  8
LIVELLO_1
 62
     7
100
AcDbVertex
100
AcDb2dVertex
 10
-77.740302
 20
-103.986934
 30
0.0
  0
VERTEX
  5
15A
100
AcDbEntity
  8
LIVELLO_1
 62
     7
100
AcDbVertex
100
AcDb2dVertex
 10
-77.965611
 20
-103.986934
 30
0.0
  0
VERTEX
  5
15B
100
AcDbEntity
  8
LIVELLO_1
 62
     7
100
AcDbVertex
100
AcDb2dVertex
 10
-78.417263
 20
-103.986934
 30
0.0
  0
VERTEX
  5
15C
100
AcDbEntity
  8
LIVELLO_1
 62
     7
100
AcDbVertex
100
AcDb2dVertex
 10
-78.872188
 20
-103.986934
 30
0.0
  0
VERTEX
  5
15D
100
AcDbEntity
  8
LIVELLO_1
 62
     7
100
AcDbVertex
100
AcDb2dVertex
 10
-79.32384
 20
-103.986934
 30
0.0
  0
VERTEX
  5
15E
100
AcDbEntity
  8
LIVELLO_1
 62
     7
100
AcDbVertex
100
AcDb2dVertex
 10
-79.775492
 20
-103.986934
 30
0.0
  0
VERTEX
  5
15F
100
AcDbEntity
  8
LIVELLO_1
 62
     7
100
AcDbVertex
100
AcDb2dVertex
 10
-80.230417
 20
-103.986934
 30
0.0
  0
VERTEX
  5
160
100
AcDbEntity
  8
LIVELLO_1
 62
     7
100
AcDbVertex
100
AcDb2dVertex
 10
-81.134927
 20
-103.986934
 30
0.0
  0
VERTEX
  5
161
100
AcDbEntity
  8
LIVELLO_1
 62
     7
100
AcDbVertex
100
AcDb2dVertex
 10
-82.038059
 20
-103.986934
 30
0.0
  0
SEQEND
  5
162
100
AcDbEntity
  8
LIVELLO_1
 62
     7
  0
SPLINE
  5
13B
100
AcDbEntity
  8
LIVELLO_1
 62
     7
100
AcDbSpline
210
0.0
220
0.0
230
1.0
 70
     8
 71
     3
 72
   113
 73
   109
 74
     0
 42
0.00000001
 43
0.00000001
 40
0.0
 40
0.0
 40
0.0
 40
0.0
 40
1.0
 40
1.0
 40
1.0
 40
2.0
 40
2.0
 40
2.0
 40
3.0
 40
3.0
 40
3.0
 40
4.0
 40
4.0
 40
4.0
 40
5.0
 40
5.0
 40
5.0
 40
6.0
 40
6.0
 40
6.0
 40
7.0
 40
7.0
 40
7.0
 40
8.0
 40
8.0
 40
8.0
 40
9.0
 40
9.0
 40
9.0
 40
10.0
 40
10.0
 40
10.0
 40
11.0
 40
11.0
 40
11.0
 40
12.0
 40
12.0
 40
12.0
 40
13.0
 40
13.0
 40
13.0
 40
14.0
 40
14.0
 40
14.0
 40
15.0
 40
15.0
 40
15.0
 40
16.0
 40
16.0
 40
16.0
 40
17.0
 40
17.0
 40
17.0
 40
18.0
 40
18.0
 40
18.0
 40
19.0
 40
19.0
 40
19.0
 40
20.0
 40
20.0
 40
20.0
 40
21.0
 40
21.0
 40
21.0
 40
22.0
 40
22.0
 40
22.0
 40
23.0
 40
23.0
 40
23.0
 40
24.0
 40
24.0
 40
24.0
 40
25.0
 40
25.0
 40
25.0
 40
26.0
 40
26.0
 40
26.0
 40
27.0
 40
27.0
 40
27.0
 40
28.0
 40
28.0
 40
28.0
 40
29.0
 40
29.0
 40
29.0
 40
30.0
 40
30.0
 40
30.0
 40
31.0
 40
31.0
 40
31.0
 40
32.0
 40
32.0
 40
32.0
 40
33.0
 40
33.0
 40
33.0
 40
34.0
 40
34.0
 40
34.0
 40
35.0
 40
35.0
 40
35.0
 40
36.0
 40
36.0
 40
36.0
 40
36.0
 10
-88.373244900173603
 20
-103.98693440755207
 30
0.0
 10
-88.373244900173603
 20
-103.98693440755207
 30
0.0
 10
-88.373244900173603
 20
-103.98693440755207
 30
0.0
 10
-88.371005588107636
 20
-103.98693440755207
 30
0.0
 10
-88.371005588107636
 20
-103.98693440755207
 30
0.0
 10
-88.371005588107636
 20
-103.98693440755207
 30
0.0
 10
-88.371005588107636
 20
-103.98693440755207
 30
0.0
 10
-88.371005588107636
 20
-103.98693440755207
 30
0.0
 10
-88.366526963975687
 20
-103.98693440755207
 30
0.0
 10
-88.366526963975687
 20
-103.98693440755207
 30
0.0
 10
-88.366526963975687
 20
-103.98693440755207
 30
0.0
 10
-88.36187608506944
 20
-103.98693440755207
 30
0.0
 10
-88.36187608506944
 20
-103.98693440755207
 30
0.0
 10
-88.36187608506944
 20
-103.98693440755207
 30
0.0
 10
-88.359636773003459
 20
-103.98693440755207
 30
0.0
 10
-88.359636773003459
 20
-103.98693440755207
 30
0.0
 10
-88.359636773003459
 20
-103.98693440755207
 30
0.0
 10
-88.352918836805543
 20
-103.98693440755207
 30
0.0
 10
-88.352918836805543
 20
-103.98693440755207
 30
0.0
 10
-88.352918836805543
 20
-103.98693440755207
 30
0.0
 10
-88.346028645833329
 20
-103.98693440755207
 30
0.0
 10
-88.346028645833329
 20
-103.98693440755207
 30
0.0
 10
-88.346028645833329
 20
-103.98693440755207
 30
0.0
 10
-88.332592773437497
 20
-103.98693440755207
 30
0.0
 10
-88.332592773437497
 20
-103.98693440755207
 30
0.0
 10
-88.332592773437497
 20
-103.98693440755207
 30
0.0
 10
-88.31777886284722
 20
-103.98693440755207
 30
0.0
 10
-88.31777886284722
 20
-103.98693440755207
 30
0.0
 10
-88.31777886284722
 20
-103.98693440755207
 30
0.0
 10
-88.304170735677076
 20
-103.98693440755207
 30
0.0
 10
-88.304170735677076
 20
-103.98693440755207
 30
0.0
 10
-88.304170735677076
 20
-103.98693440755207
 30
0.0
 10
-88.288323296440964
 20
-103.98693440755207
 30
0.0
 10
-88.288323296440964
 20
-103.98693440755207
 30
0.0
 10
-88.288323296440964
 20
-103.98693440755207
 30
0.0
 10
-88.260073513454856
 20
-103.98693440755207
 30
0.0
 10
-88.260073513454856
 20
-103.98693440755207
 30
0.0
 10
-88.260073513454856
 20
-103.98693440755207
 30
0.0
 10
-88.232857259114581
 20
-103.98693440755207
 30
0.0
 10
-88.232857259114581
 20
-103.98693440755207
 30
0.0
 10
-88.232857259114581
 20
-103.98693440755207
 30
0.0
 10
-88.204607476128459
 20
-103.98693440755207
 30
0.0
 10
-88.204607476128459
 20
-103.98693440755207
 30
0.0
 10
-88.204607476128459
 20
-103.98693440755207
 30
0.0
 10
-88.149141438802076
 20
-103.98693440755207
 30
0.0
 10
-88.149141438802076
 20
-103.98693440755207
 30
0.0
 10
-88.149141438802076
 20
-103.98693440755207
 30
0.0
 10
-88.091436089409711
 20
-103.98693440755207
 30
0.0
 10
-88.091436089409711
 20
-103.98693440755207
 30
0.0
 10
-88.091436089409711
 20
-103.98693440755207
 30
0.0
 10
-88.034764268663181
 20
-103.98693440755207
 30
0.0
 10
-88.034764268663181
 20
-103.98693440755207
 30
0.0
 10
-88.034764268663181
 20
-103.98693440755207
 30
0.0
 10
-87.977058919270831
 20
-103.98693440755207
 30
0.0
 10
-87.977058919270831
 20
-103.98693440755207
 30
0.0
 10
-87.977058919270831
 20
-103.98693440755207
 30
0.0
 10
-87.921592881944434
 20
-103.98693440755207
 30
0.0
 10
-87.921592881944434
 20
-103.98693440755207
 30
0.0
 10
-87.921592881944434
 20
-103.98693440755207
 30
0.0
 10
-87.808421495225687
 20
-103.98693440755207
 30
0.0
 10
-87.808421495225687
 20
-103.98693440755207
 30
0.0
 10
-87.808421495225687
 20
-103.98693440755207
 30
0.0
 10
-87.694216579861106
 20
-103.98693440755207
 30
0.0
 10
-87.694216579861106
 20
-103.98693440755207
 30
0.0
 10
-87.694216579861106
 20
-103.98693440755207
 30
0.0
 10
-87.583284505208326
 20
-103.98693440755207
 30
0.0
 10
-87.583284505208326
 20
-103.98693440755207
 30
0.0
 10
-87.583284505208326
 20
-103.98693440755207
 30
0.0
 10
-87.469940863715266
 20
-103.98693440755207
 30
0.0
 10
-87.469940863715266
 20
-103.98693440755207
 30
0.0
 10
-87.469940863715266
 20
-103.98693440755207
 30
0.0
 10
-87.242564561631937
 20
-103.98693440755207
 30
0.0
 10
-87.242564561631937
 20
-103.98693440755207
 30
0.0
 10
-87.242564561631937
 20
-103.98693440755207
 30
0.0
 10
-87.017255316840263
 20
-103.98693440755207
 30
0.0
 10
-87.017255316840263
 20
-103.98693440755207
 30
0.0
 10
-87.017255316840263
 20
-103.98693440755207
 30
0.0
 10
-86.790912543402769
 20
-103.98693440755207
 30
0.0
 10
-86.790912543402769
 20
-103.98693440755207
 30
0.0
 10
-86.790912543402769
 20
-103.98693440755207
 30
0.0
 10
-86.563363986545127
 20
-103.98693440755207
 30
0.0
 10
-86.563363986545127
 20
-103.98693440755207
 30
0.0
 10
-86.563363986545127
 20
-103.98693440755207
 30
0.0
 10
-86.335815429687486
 20
-103.98693440755207
 30
0.0
 10
-86.335815429687486
 20
-103.98693440755207
 30
0.0
 10
-86.335815429687486
 20
-103.98693440755207
 30
0.0
 10
-86.111711968315959
 20
-103.98693440755207
 30
0.0
 10
-86.111711968315959
 20
-103.98693440755207
 30
0.0
 10
-86.111711968315959
 20
-103.98693440755207
 30
0.0
 10
-85.65902642144097
 20
-103.98693440755207
 30
0.0
 10
-85.65902642144097
 20
-103.98693440755207
 30
0.0
 10
-85.65902642144097
 20
-103.98693440755207
 30
0.0
 10
-85.207374403211801
 20
-103.98693440755207
 30
0.0
 10
-85.207374403211801
 20
-103.98693440755207
 30
0.0
 10
-85.207374403211801
 20
-103.98693440755207
 30
0.0
 10
-84.752449544270831
 20
-103.98693440755207
 30
0.0
 10
-84.752449544270831
 20
-103.98693440755207
 30
0.0
 10
-84.752449544270831
 20
-103.98693440755207
 30
0.0
 10
-84.300797526041663
 20
-103.98693440755207
 30
0.0
 10
-84.300797526041663
 20
-103.98693440755207
 30
0.0
 10
-84.300797526041663
 20
-103.98693440755207
 30
0.0
 10
-83.849145507812494
 20
-103.98693440755207
 30
0.0
 10
-83.849145507812494
 20
-103.98693440755207
 30
0.0
 10
-83.849145507812494
 20
-103.98693440755207
 30
0.0
 10
-82.944807942708323
 20
-103.98693440755207
 30
0.0
 10
-82.944807942708323
 20
-103.98693440755207
 30
0.0
 10
-82.944807942708323
 20
-103.98693440755207
 30
0.0
 10
-82.038058810763886
 20
-103.98693440755207
 30
0.0
 10
-82.038058810763886
 20
-103.98693440755207
 30
0.0
  0
SPLINE
  5
13A
100
AcDbEntity
  8
LIVELLO_1
 62
     7
100
AcDbSpline
210
0.0
220
0.0
230
1.0
 70
     8
 71
     3
 72
   119
 73
   115
 74
     0
 42
0.00000001
 43
0.00000001
 40
0.0
 40
0.0
 40
0.0
 40
0.0
 40
1.0
 40
1.0
 40
1.0
 40
2.0
 40
2.0
 40
2.0
 40
3.0
 40
3.0
 40
3.0
 40
4.0
 40
4.0
 40
4.0
 40
5.0
 40
5.0
 40
5.0
 40
6.0
 40
6.0
 40
6.0
 40
7.0
 40
7.0
 40
7.0
 40
8.0
 40
8.0
 40
8.0
 40
9.0
 40
9.0
 40
9.0
 40
10.0
 40
10.0
 40
10.0
 40
11.0
 40
11.0
 40
11.0
 40
12.0
 40
12.0
 40
12.0
 40
13.0
 40
13.0
 40
13.0
 40
14.0
 40
14.0
 40
14.0
 40
15.0
 40
15.0
 40
15.0
 40
16.0
 40
16.0
 40
16.0
 40
17.0
 40
17.0
 40
17.0
 40
18.0
 40
18.0
 40
18.0
 40
19.0
 40
19.0
 40
19.0
 40
20.0
 40
20.0
 40
20.0
 40
21.0
 40
21.0
 40
21.0
 40
22.0
 40
22.0
 40
22.0
 40
23.0
 40
23.0
 40
23.0
 40
24.0
 40
24.0
 40
24.0
 40
25.0
 40
25.0
 40
25.0
 40
26.0
 40
26.0
 40
26.0
 40
27.0
 40
27.0
 40
27.0
 40
28.0
 40
28.0
 40
28.0
 40
29.0
 40
29.0
 40
29.0
 40
30.0
 40
30.0
 40
30.0
 40
31.0
 40
31.0
 40
31.0
 40
32.0
 40
32.0
 40
32.0
 40
33.0
 40
33.0
 40
33.0
 40
34.0
 40
34.0
 40
34.0
 40
35.0
 40
35.0
 40
35.0
 40
36.0
 40
36.0
 40
36.0
 40
37.0
 40
37.0
 40
37.0
 40
38.0
 40
38.0
 40
38.0
 40
38.0
 10
-82.038058810763886
 20
70.126468912760416
 30
0.0
 10
-81.24120822482638
 20
70.126468912760416
 30
0.0
 10
-80.443324110243054
 20
70.06307915581597
 30
0.0
 10
-79.657670084635413
 20
69.929581705729163
 30
0.0
 10
-78.869949001736103
 20
69.800562879774304
 30
0.0
 10
-78.093424479166657
 20
69.603503417968739
 30
0.0
 10
-77.339637586805551
 20
69.340987141927073
 30
0.0
 10
-76.588090006510413
 20
69.076059299045127
 30
0.0
 10
-75.858074273003467
 20
68.747913953993049
 30
0.0
 10
-75.167504882812494
 20
68.347077094184016
 30
0.0
 10
-74.47710774739582
 20
67.948824055989576
 30
0.0
 10
-73.825123426649299
 20
67.477879503038181
 30
0.0
 10
-73.234289550781241
 20
66.941305881076389
 30
0.0
 10
-72.940078396267353
 20
66.676550292968741
 30
0.0
 10
-72.659303114149296
 20
66.39129638671875
 30
0.0
 10
-72.397820366753464
 20
66.090195041232633
 30
0.0
 10
-72.135304090711799
 20
65.786854383680549
 30
0.0
 10
-71.894147406684027
 20
65.472144911024301
 30
0.0
 10
-71.672283257378467
 20
65.139348687065961
 30
0.0
 10
-71.451624891493054
 20
64.808964029947916
 30
0.0
 10
-71.252326117621521
 20
64.462559678819431
 30
0.0
 10
-71.078004286024296
 20
64.102547200520831
 30
0.0
 10
-70.904888237847217
 20
63.744946289062497
 30
0.0
 10
-70.756576877170133
 20
63.371325683593746
 30
0.0
 10
-70.637721082899304
 20
62.991159396701384
 30
0.0
 10
-70.517831759982627
 20
62.613060167100691
 30
0.0
 10
-70.427225748697907
 20
62.223592122395829
 30
0.0
 10
-70.367281087239576
 20
61.82981770833333
 30
0.0
 10
-70.306130642361111
 20
61.435871039496526
 30
0.0
 10
-70.274435763888889
 20
61.037445746527773
 30
0.0
 10
-70.276675075954856
 20
60.63902045355902
 30
0.0
 10
-70.276675075954856
 20
60.240595160590274
 30
0.0
 10
-70.308369954427079
 20
59.842169867621521
 30
0.0
 10
-70.371759711371524
 20
59.450462510850691
 30
0.0
 10
-70.433943684895823
 20
59.056688096788186
 30
0.0
 10
-70.526789008246524
 20
58.66722005208333
 30
0.0
 10
-70.649089898003467
 20
58.287053765190969
 30
0.0
 10
-70.770185004340277
 20
57.906715223524301
 30
0.0
 10
-70.918496365017361
 20
57.537745496961797
 30
0.0
 10
-71.092818196614573
 20
57.17773301866319
 30
0.0
 10
-71.268173556857633
 20
56.820132107204856
 30
0.0
 10
-71.467472330729166
 20
56.473727756076386
 30
0.0
 10
-71.688130696614579
 20
56.14317084418402
 30
0.0
 10
-72.130653211805551
 20
55.479817708333329
 30
0.0
 10
-72.659303114149296
 20
54.870897081163193
 30
0.0
 10
-73.247897677951386
 20
54.332084147135411
 30
0.0
 10
-73.839937337239576
 20
53.793443467881943
 30
0.0
 10
-74.488476562499997
 20
53.322498914930549
 30
0.0
 10
-75.17663438585069
 20
52.919594997829854
 30
0.0
 10
-75.864792209201383
 20
52.51669108072916
 30
0.0
 10
-76.593774414062494
 20
52.183894856770827
 30
0.0
 10
-77.3441162109375
 20
51.91448838975694
 30
0.0
 10
-78.095836046006937
 20
51.64732123480902
 30
0.0
 10
-78.869949001736103
 20
51.4481947157118
 30
0.0
 10
-79.657670084635413
 20
51.316764322916661
 30
0.0
 10
-80.443324110243054
 20
51.183266872829854
 30
0.0
 10
-81.24120822482638
 20
51.115398491753467
 30
0.0
 10
-82.038058810763886
 20
51.115398491753467
 30
0.0
 10
-82.836115180121524
 20
51.115398491753467
 30
0.0
 10
-83.632965766059016
 20
51.183266872829854
 30
0.0
 10
-84.421892632378459
 20
51.316764322916661
 30
0.0
 10
-85.207374403211801
 20
51.4481947157118
 30
0.0
 10
-85.981659613715266
 20
51.64732123480902
 30
0.0
 10
-86.732001410590271
 20
51.91448838975694
 30
0.0
 10
-87.48354899088541
 20
52.183894856770827
 30
0.0
 10
-88.213736979166654
 20
52.51669108072916
 30
0.0
 10
-88.901894802517347
 20
52.919594997829854
 30
0.0
 10
-89.591258409288187
 20
53.322498914930549
 30
0.0
 10
-90.239797634548609
 20
53.793443467881943
 30
0.0
 10
-90.828392198350684
 20
54.332084147135411
 30
0.0
 10
-91.416986762152774
 20
54.870897081163193
 30
0.0
 10
-91.94546440972222
 20
55.479817708333329
 30
0.0
 10
-92.389192708333326
 20
56.14317084418402
 30
0.0
 10
-92.608817545572904
 20
56.473727756076386
 30
0.0
 10
-92.810183376736106
 20
56.820132107204856
 30
0.0
 10
-92.984505208333331
 20
57.17773301866319
 30
0.0
 10
-93.158827039930543
 20
57.537745496961797
 30
0.0
 10
-93.307138400607627
 20
57.906715223524301
 30
0.0
 10
-93.42943929036457
 20
58.287053765190969
 30
0.0
 10
-93.55053439670138
 20
58.66722005208333
 30
0.0
 10
-93.643379720052081
 20
59.056688096788186
 30
0.0
 10
-93.70556369357638
 20
59.450462510850691
 30
0.0
 10
-93.767919921874991
 20
59.842169867621521
 30
0.0
 10
-93.800648328993049
 20
60.240595160590274
 30
0.0
 10
-93.802887641059016
 20
60.63902045355902
 30
0.0
 10
-93.802887641059016
 20
61.037445746527773
 30
0.0
 10
-93.77239854600694
 20
61.435871039496526
 30
0.0
 10
-93.712453884548609
 20
61.82981770833333
 30
0.0
 10
-93.650097656249997
 20
62.223592122395829
 30
0.0
 10
-93.559491644965263
 20
62.613060167100691
 30
0.0
 10
-93.440635850694434
 20
62.991159396701384
 30
0.0
 10
-93.320746527777771
 20
63.371325683593746
 30
0.0
 10
-93.172435167100687
 20
63.744946289062497
 30
0.0
 10
-92.998113335503461
 20
64.102547200520831
 30
0.0
 10
-92.824997287326383
 20
64.462559678819431
 30
0.0
 10
-92.624664984809016
 20
64.808964029947916
 30
0.0
 10
-92.405040147569437
 20
65.139348687065961
 30
0.0
 10
-92.184381781684024
 20
65.472144911024301
 30
0.0
 10
-91.940985785590271
 20
65.786854383680549
 30
0.0
 10
-91.67950303819444
 20
66.090195041232633
 30
0.0
 10
-91.416986762152774
 20
66.39129638671875
 30
0.0
 10
-91.139656575520831
 20
66.676550292968741
 30
0.0
 10
-90.843033854166663
 20
66.941305881076389
 30
0.0
 10
-90.253405761718739
 20
67.477879503038181
 30
0.0
 10
-89.60021565755207
 20
67.948824055989576
 30
0.0
 10
-88.90981852213541
 20
68.347077094184016
 30
0.0
 10
-88.218215603298603
 20
68.747913953993049
 30
0.0
 10
-87.488199869791657
 20
69.076059299045127
 30
0.0
 10
-86.737685818142353
 20
69.340987141927073
 30
0.0
 10
-85.983898925781247
 20
69.603503417968739
 30
0.0
 10
-85.207374403211801
 20
69.800562879774304
 30
0.0
 10
-84.421892632378459
 20
69.929581705729163
 30
0.0
 10
-83.632965766059016
 20
70.06307915581597
 30
0.0
 10
-82.836115180121524
 20
70.126468912760416
 30
0.0
 10
-82.038058810763886
 20
70.126468912760416
 30
0.0
  0
ELLIPSE
  5
139
100
AcDbEntity
  8
LIVELLO_1
 62
     7
100
AcDbEllipse
 10
-24.617016
 20
-103.986934
 30
0.0
 11
0.0006028917100694
 21
-0.0272162543402778
 31
0.0
210
0.0
220
0.0
230
1.0
 40
0.933315
 41
0.0
 42
6.2831853071795862
  0
ELLIPSE
  5
138
100
AcDbEntity
  8
LIVELLO_1
 62
     7
100
AcDbEllipse
 10
74.410617
 20
70.126469
 30
0.0
 11
-0.0254937065972222
 21
0.0
 31
0.0
210
0.0
220
0.0
230
1.0
 40
0.973348
 41
0.0
 42
6.2831853071795862
  0
ELLIPSE
  5
137
100
AcDbEntity
  8
LIVELLO_1
 62
     7
100
AcDbEllipse
 10
-93.802371
 20
70.599653
 30
0.0
 11
-0.0254937065972222
 21
0.0
 31
0.0
210
0.0
220
0.0
230
1.0
 40
0.979939
 41
0.0
 42
6.2831853071795862
  0
ELLIPSE
  5
136
100
AcDbEntity
  8
LIVELLO_1
 62
     7
100
AcDbEllipse
 10
-70.276158
 20
70.599653
 30
0.0
 11
-0.0254937065972222
 21
0.0
 31
0.0
210
0.0
220
0.0
230
1.0
 40
0.979939
 41
0.0
 42
6.2831853071795862
  0
ELLIPSE
  5
135
100
AcDbEntity
  8
LIVELLO_1
 62
     7
100
AcDbEllipse
 10
-82.038662
 20
82.364482
 30
0.0
 11
-0.0254075792100694
 21
0.0
 31
0.0
210
0.0
220
0.0
230
1.0
 40
0.983337
 41
0.0
 42
6.2831853071795862
  0
ELLIPSE
  5
134
100
AcDbEntity
  8
LIVELLO_1
 62
     7
100
AcDbEllipse
 10
-88.373848
 20
-103.986934
 30
0.0
 11
0.0006028917100694
 21
-0.0272162543402778
 31
0.0
210
0.0
220
0.0
230
1.0
 40
0.933315
 41
0.0
 42
6.2831853071795862
  0
ELLIPSE
  5
133
100
AcDbEntity
  8
LIVELLO_1
 62
     7
100
AcDbEllipse
 10
-93.802371
 20
70.599653
 30
0.0
 11
-0.0254937065972222
 21
0.0
 31
0.0
210
0.0
220
0.0
230
1.0
 40
0.979939
 41
0.0
 42
6.2831853071795862
  0
ELLIPSE
  5
132
100
AcDbEntity
  8
LIVELLO_1
 62
     7
100
AcDbEllipse
 10
-70.276158
 20
70.599653
 30
0.0
 11
-0.0254937065972222
 21
0.0
 31
0.0
210
0.0
220
0.0
230
1.0
 40
0.979939
 41
0.0
 42
6.2831853071795862
  0
ELLIPSE
  5
131
100
AcDbEntity
  8
LIVELLO_1
 62
     7
100
AcDbEllipse
 10
-88.373848
 20
-103.986934
 30
0.0
 11
0.0006028917100694
 21
-0.0272162543402778
 31
0.0
210
0.0
220
0.0
230
1.0
 40
0.933315
 41
0.0
 42
6.2831853071795862
  0
LINE
  5
130
100
AcDbEntity
  8
LIVELLO_1
 62
     7
100
AcDbLine
 10
-46.293126
 20
-1.506023
 30
0.0
 11
-46.293126
 21
82.373439
 31
0.0
  0
LINE
  5
12F
100
AcDbEntity
  8
LIVELLO_1
 62
     7
100
AcDbLine
 10
-46.24679
 20
-106.379553
 30
0.0
 11
-46.293126
 21
-16.084634
 31
0.0
  0
LINE
  5
12E
100
AcDbEntity
  8
LIVELLO_1
 62
     7
100
AcDbLine
 10
-43.915149
 20
-106.379553
 30
0.0
 11
-48.186895
 21
-106.379553
 31
0.0
  0
MTEXT
  5
12D
100
AcDbEntity
  8
LIVELLO_1
 62
     7
100
AcDbMText
 10
-56.129046
 20
-3.928306
 30
0.0
 40
8.328483
 41
0.0
 71
     1
 72
     2
  1
\fMyriad Roman|b0|i0;\H8.3285;\W1.09;\C7;\U+0038\U+0030\U+0030
  7
STD
210
0.0
220
0.0
230
1.0
 73
     1
 44
1.0
  0
ELLIPSE
  5
12C
100
AcDbEntity
  8
LIVELLO_1
 62
     7
100
AcDbEllipse
 10
-93.802371
 20
70.599653
 30
0.0
 11
-0.0254937065972222
 21
0.0
 31
0.0
210
0.0
220
0.0
230
1.0
 40
0.979939
 41
0.0
 42
6.2831853071795862
  0
ELLIPSE
  5
12B
100
AcDbEntity
  8
LIVELLO_1
 62
     7
100
AcDbEllipse
 10
-70.313451
 20
70.599653
 30
0.0
 11
-0.0254075792100694
 21
0.0
 31
0.0
210
0.0
220
0.0
230
1.0
 40
0.989395
 41
0.0
 42
6.2831853071795862
  0
ELLIPSE
  5
12A
100
AcDbEntity
  8
LIVELLO_1
 62
     7
100
AcDbEllipse
 10
-46.34575
 20
82.316939
 30
0.0
 11
-0.0006028917100694
 21
-0.0272162543402778
 31
0.0
210
0.0
220
0.0
230
1.0
 40
0.977608
 41
0.0
 42
6.2831853071795862
  0
ELLIPSE
  5
129
100
AcDbEntity
  8
LIVELLO_1
 62
     7
100
AcDbEllipse
 10
-82.056835
 20
82.364482
 30
0.0
 11
-0.0254937065972222
 21
0.0
 31
0.0
210
0.0
220
0.0
230
1.0
 40
0.985676
 41
0.0
 42
6.2831853071795862
  0
ELLIPSE
  5
128
100
AcDbEntity
  8
LIVELLO_1
 62
     7
100
AcDbEllipse
 10
-88.382891
 20
-103.986934
 30
0.0
 11
-0.0005167643229167
 21
-0.0272162543402778
 31
0.0
210
0.0
220
0.0
230
1.0
 40
0.93654
 41
0.0
 42
6.2831853071795862
  0
LINE
  5
127
100
AcDbEntity
  8
LIVELLO_1
 62
     7
100
AcDbLine
 10
-44.251218
 20
82.316939
 30
0.0
 11
-48.28198
 21
82.316939
 31
0.0
  0
LINE
  5
126
100
AcDbEntity
  8
LIVELLO_1
 62
     7
100
AcDbLine
 10
7.952486
 20
98.690789
 30
0.0
 11
-24.591608
 21
98.690789
 31
0.0
  0
LINE
  5
125
100
AcDbEntity
  8
LIVELLO_1
 62
     7
100
AcDbLine
 10
74.4337
 20
98.690789
 30
0.0
 11
41.889605
 21
98.690789
 31
0.0
  0
LINE
  5
124
100
AcDbEntity
  8
LIVELLO_1
 62
     7
100
AcDbLine
 10
74.4337
 20
96.397561
 30
0.0
 11
74.4337
 21
100.603678
 31
0.0
  0
MTEXT
  5
123
100
AcDbEntity
  8
LIVELLO_1
 62
     7
100
AcDbMText
 10
15.203551
 20
104.621375
 30
0.0
 40
8.133552
 41
0.0
 71
     1
 72
     2
  1
\fMyriad Roman|b0|i0;\H8.1336;\W1.09;\C7;\U+0034\U+0032\U+0035
  7
STD
210
0.0
220
0.0
230
1.0
 73
     1
 44
1.0
  0
ELLIPSE
  5
122
100
AcDbEntity
  8
LIVELLO_1
 62
     7
100
AcDbEllipse
 10
-24.590919
 20
98.661334
 30
0.0
 11
-0.0006890190972222
 21
-0.0272162543402778
 31
0.0
210
0.0
220
0.0
230
1.0
 40
0.936409
 41
0.0
 42
6.2831853071795862
  0
ELLIPSE
  5
121
100
AcDbEntity
  8
LIVELLO_1
 62
     7
100
AcDbEllipse
 10
-24.590919
 20
-104.011739
 30
0.0
 11
-0.0254937065972222
 21
0.0
 31
0.0
210
0.0
220
0.0
230
1.0
 40
0.973348
 41
0.0
 42
6.2831853071795862
  0
ELLIPSE
  5
120
100
AcDbEntity
  8
LIVELLO_1
 62
     7
100
AcDbEllipse
 10
74.433183
 20
70.153685
 30
0.0
 11
0.0005167643229167
 21
-0.0272162543402778
 31
0.0
210
0.0
220
0.0
230
1.0
 40
0.930212
 41
0.0
 42
6.2831853071795862
  0
LINE
  5
11F
100
AcDbEntity
  8
LIVELLO_1
 62
     7
100
AcDbLine
 10
-24.591608
 20
-77.833492
 30
0.0
 11
-24.591608
 21
100.603678
 31
0.0
  0
MTEXT
  5
11E
100
AcDbEntity
  8
LIVELLO_1
 62
     7
100
AcDbMText
 10
66.264
 20
40.842194
 30
0.0
 40
7.110403
 41
0.0
 71
     1
 72
     2
  1
\fMyriad Roman|b0|i0;\H7.1104;\W1.09;\C7;\U+00D8\U+0020\U+0031\U+0030\U+0030
  7
STD
210
0.0
220
0.0
230
1.0
 73
     1
 44
1.0
  0
LINE
  5
11D
100
AcDbEntity
  8
LIVELLO_1
 62
     7
100
AcDbLine
 10
70.072553
 20
56.233777
 30
0.0
 11
84.376245
 21
43.307606
 31
0.0
  0
POLYLINE
  5
F2
100
AcDbEntity
  8
LIVELLO_1
 62
     7
100
AcDb2dPolyline
 66
     1
 10
0.0
 20
0.0
 30
0.0
  0
VERTEX
  5
F3
100
AcDbEntity
  8
LIVELLO_1
 62
     7
100
AcDbVertex
100
AcDb2dVertex
 10
-73.345222
 20
60.64815
 30
0.0
  0
VERTEX
  5
F4
100
AcDbEntity
  8
LIVELLO_1
 62
     7
100
AcDbVertex
100
AcDb2dVertex
 10
-73.35194
 20
60.374093
 30
0.0
  0
VERTEX
  5
F5
100
AcDbEntity
  8
LIVELLO_1
 62
     7
100
AcDbVertex
100
AcDb2dVertex
 10
-73.373471
 20
60.107098
 30
0.0
  0
VERTEX
  5
F6
100
AcDbEntity
  8
LIVELLO_1
 62
     7
100
AcDbVertex
100
AcDb2dVertex
 10
-73.406372
 20
59.835452
 30
0.0
  0
VERTEX
  5
F7
100
AcDbEntity
  8
LIVELLO_1
 62
     7
100
AcDbVertex
100
AcDb2dVertex
 10
-73.451675
 20
59.566045
 30
0.0
  0
VERTEX
  5
F8
100
AcDbEntity
  8
LIVELLO_1
 62
     7
100
AcDbVertex
100
AcDb2dVertex
 10
-73.512826
 20
59.298878
 30
0.0
  0
VERTEX
  5
F9
100
AcDbEntity
  8
LIVELLO_1
 62
     7
100
AcDbVertex
100
AcDb2dVertex
 10
-73.586378
 20
59.031711
 30
0.0
  0
VERTEX
  5
FA
100
AcDbEntity
  8
LIVELLO_1
 62
     7
100
AcDbVertex
100
AcDb2dVertex
 10
-73.672333
 20
58.771434
 30
0.0
  0
VERTEX
  5
FB
100
AcDbEntity
  8
LIVELLO_1
 62
     7
100
AcDbVertex
100
AcDb2dVertex
 10
-73.771897
 20
58.511157
 30
0.0
  0
VERTEX
  5
FC
100
AcDbEntity
  8
LIVELLO_1
 62
     7
100
AcDbVertex
100
AcDb2dVertex
 10
-73.882829
 20
58.252947
 30
0.0
  0
VERTEX
  5
FD
100
AcDbEntity
  8
LIVELLO_1
 62
     7
100
AcDbVertex
100
AcDb2dVertex
 10
-74.006163
 20
58.0018
 30
0.0
  0
VERTEX
  5
FE
100
AcDbEntity
  8
LIVELLO_1
 62
     7
100
AcDbVertex
100
AcDb2dVertex
 10
-74.143278
 20
57.752719
 30
0.0
  0
VERTEX
  5
FF
100
AcDbEntity
  8
LIVELLO_1
 62
     7
100
AcDbVertex
100
AcDb2dVertex
 10
-74.293829
 20
57.510529
 30
0.0
  0
VERTEX
  5
100
100
AcDbEntity
  8
LIVELLO_1
 62
     7
100
AcDbVertex
100
AcDb2dVertex
 10
-74.453337
 20
57.270578
 30
0.0
  0
VERTEX
  5
101
100
AcDbEntity
  8
LIVELLO_1
 62
     7
100
AcDbVertex
100
AcDb2dVertex
 10
-74.625419
 20
57.035106
 30
0.0
  0
VERTEX
  5
102
100
AcDbEntity
  8
LIVELLO_1
 62
     7
100
AcDbVertex
100
AcDb2dVertex
 10
-74.810937
 20
56.806524
 30
0.0
  0
VERTEX
  5
103
100
AcDbEntity
  8
LIVELLO_1
 62
     7
100
AcDbVertex
100
AcDb2dVertex
 10
-75.005758
 20
56.58466
 30
0.0
  0
VERTEX
  5
104
100
AcDbEntity
  8
LIVELLO_1
 62
     7
100
AcDbVertex
100
AcDb2dVertex
 10
-75.211774
 20
56.367274
 30
0.0
  0
VERTEX
  5
105
100
AcDbEntity
  8
LIVELLO_1
 62
     7
100
AcDbVertex
100
AcDb2dVertex
 10
-75.426748
 20
56.159018
 30
0.0
  0
VERTEX
  5
106
100
AcDbEntity
  8
LIVELLO_1
 62
     7
100
AcDbVertex
100
AcDb2dVertex
 10
-75.654297
 20
55.955241
 30
0.0
  0
VERTEX
  5
107
100
AcDbEntity
  8
LIVELLO_1
 62
     7
100
AcDbVertex
100
AcDb2dVertex
 10
-75.890803
 20
55.760593
 30
0.0
  0
VERTEX
  5
108
100
AcDbEntity
  8
LIVELLO_1
 62
     7
100
AcDbVertex
100
AcDb2dVertex
 10
-76.136438
 20
55.572663
 30
0.0
  0
VERTEX
  5
109
100
AcDbEntity
  8
LIVELLO_1
 62
     7
100
AcDbVertex
100
AcDb2dVertex
 10
-76.391203
 20
55.391623
 30
0.0
  0
VERTEX
  5
10A
100
AcDbEntity
  8
LIVELLO_1
 62
     7
100
AcDbVertex
100
AcDb2dVertex
 10
-76.653719
 20
55.219541
 30
0.0
  0
VERTEX
  5
10B
100
AcDbEntity
  8
LIVELLO_1
 62
     7
100
AcDbVertex
100
AcDb2dVertex
 10
-76.926571
 20
55.054348
 30
0.0
  0
VERTEX
  5
10C
100
AcDbEntity
  8
LIVELLO_1
 62
     7
100
AcDbVertex
100
AcDb2dVertex
 10
-77.204934
 20
54.900353
 30
0.0
  0
VERTEX
  5
10D
100
AcDbEntity
  8
LIVELLO_1
 62
     7
100
AcDbVertex
100
AcDb2dVertex
 10
-77.492428
 20
54.753247
 30
0.0
  0
VERTEX
  5
10E
100
AcDbEntity
  8
LIVELLO_1
 62
     7
100
AcDbVertex
100
AcDb2dVertex
 10
-77.786811
 20
54.615099
 30
0.0
  0
VERTEX
  5
10F
100
AcDbEntity
  8
LIVELLO_1
 62
     7
100
AcDbVertex
100
AcDb2dVertex
 10
-78.087912
 20
54.48608
 30
0.0
  0
VERTEX
  5
110
100
AcDbEntity
  8
LIVELLO_1
 62
     7
100
AcDbVertex
100
AcDb2dVertex
 10
-78.394526
 20
54.36843
 30
0.0
  0
VERTEX
  5
111
100
AcDbEntity
  8
LIVELLO_1
 62
     7
100
AcDbVertex
100
AcDb2dVertex
 10
-78.706996
 20
54.261976
 30
0.0
  0
VERTEX
  5
112
100
AcDbEntity
  8
LIVELLO_1
 62
     7
100
AcDbVertex
100
AcDb2dVertex
 10
-79.024978
 20
54.162413
 30
0.0
  0
VERTEX
  5
113
100
AcDbEntity
  8
LIVELLO_1
 62
     7
100
AcDbVertex
100
AcDb2dVertex
 10
-79.347611
 20
54.071807
 30
0.0
  0
VERTEX
  5
114
100
AcDbEntity
  8
LIVELLO_1
 62
     7
100
AcDbVertex
100
AcDb2dVertex
 10
-79.673518
 20
53.99257
 30
0.0
  0
VERTEX
  5
115
100
AcDbEntity
  8
LIVELLO_1
 62
     7
100
AcDbVertex
100
AcDb2dVertex
 10
-80.003041
 20
53.926941
 30
0.0
  0
VERTEX
  5
116
100
AcDbEntity
  8
LIVELLO_1
 62
     7
100
AcDbVertex
100
AcDb2dVertex
 10
-80.336871
 20
53.86803
 30
0.0
  0
VERTEX
  5
117
100
AcDbEntity
  8
LIVELLO_1
 62
     7
100
AcDbVertex
100
AcDb2dVertex
 10
-80.673112
 20
53.818248
 30
0.0
  0
VERTEX
  5
118
100
AcDbEntity
  8
LIVELLO_1
 62
     7
100
AcDbVertex
100
AcDb2dVertex
 10
-81.01142
 20
53.782075
 30
0.0
  0
VERTEX
  5
119
100
AcDbEntity
  8
LIVELLO_1
 62
     7
100
AcDbVertex
100
AcDb2dVertex
 10
-81.349901
 20
53.757098
 30
0.0
  0
VERTEX
  5
11A
100
AcDbEntity
  8
LIVELLO_1
 62
     7
100
AcDbVertex
100
AcDb2dVertex
 10
-81.690621
 20
53.74125
 30
0.0
  0
VERTEX
  5
11B
100
AcDbEntity
  8
LIVELLO_1
 62
     7
100
AcDbVertex
100
AcDb2dVertex
 10
-82.031341
 20
53.734532
 30
0.0
  0
SEQEND
  5
11C
100
AcDbEntity
  8
LIVELLO_1
 62
     7
  0
POLYLINE
  5
77
100
AcDbEntity
  8
LIVELLO_1
 62
     7
100
AcDb2dPolyline
 66
     1
 10
0.0
 20
0.0
 30
0.0
  0
VERTEX
  5
78
100
AcDbEntity
  8
LIVELLO_1
 62
     7
100
AcDbVertex
100
AcDb2dVertex
 10
-82.086807
 20
53.734532
 30
0.0
  0
VERTEX
  5
79
100
AcDbEntity
  8
LIVELLO_1
 62
     7
100
AcDbVertex
100
AcDb2dVertex
 10
-82.432005
 20
53.74125
 30
0.0
  0
VERTEX
  5
7A
100
AcDbEntity
  8
LIVELLO_1
 62
     7
100
AcDbVertex
100
AcDb2dVertex
 10
-82.772725
 20
53.757098
 30
0.0
  0
VERTEX
  5
7B
100
AcDbEntity
  8
LIVELLO_1
 62
     7
100
AcDbVertex
100
AcDb2dVertex
 10
-83.116718
 20
53.782075
 30
0.0
  0
VERTEX
  5
7C
100
AcDbEntity
  8
LIVELLO_1
 62
     7
100
AcDbVertex
100
AcDb2dVertex
 10
-83.455199
 20
53.820487
 30
0.0
  0
VERTEX
  5
7D
100
AcDbEntity
  8
LIVELLO_1
 62
     7
100
AcDbVertex
100
AcDb2dVertex
 10
-83.793679
 20
53.86803
 30
0.0
  0
VERTEX
  5
7E
100
AcDbEntity
  8
LIVELLO_1
 62
     7
100
AcDbVertex
100
AcDb2dVertex
 10
-84.129749
 20
53.926941
 30
0.0
  0
VERTEX
  5
7F
100
AcDbEntity
  8
LIVELLO_1
 62
     7
100
AcDbVertex
100
AcDb2dVertex
 10
-84.460305
 20
53.994809
 30
0.0
  0
VERTEX
  5
80
100
AcDbEntity
  8
LIVELLO_1
 62
     7
100
AcDbVertex
100
AcDb2dVertex
 10
-84.789657
 20
54.076286
 30
0.0
  0
VERTEX
  5
81
100
AcDbEntity
  8
LIVELLO_1
 62
     7
100
AcDbVertex
100
AcDb2dVertex
 10
-85.114529
 20
54.164653
 30
0.0
  0
VERTEX
  5
82
100
AcDbEntity
  8
LIVELLO_1
 62
     7
100
AcDbVertex
100
AcDb2dVertex
 10
-85.432684
 20
54.264216
 30
0.0
  0
VERTEX
  5
83
100
AcDbEntity
  8
LIVELLO_1
 62
     7
100
AcDbVertex
100
AcDb2dVertex
 10
-85.747221
 20
54.375148
 30
0.0
  0
VERTEX
  5
84
100
AcDbEntity
  8
LIVELLO_1
 62
     7
100
AcDbVertex
100
AcDb2dVertex
 10
-86.055212
 20
54.49297
 30
0.0
  0
VERTEX
  5
85
100
AcDbEntity
  8
LIVELLO_1
 62
     7
100
AcDbVertex
100
AcDb2dVertex
 10
-86.359587
 20
54.624228
 30
0.0
  0
VERTEX
  5
86
100
AcDbEntity
  8
LIVELLO_1
 62
     7
100
AcDbVertex
100
AcDb2dVertex
 10
-86.656209
 20
54.762204
 30
0.0
  0
VERTEX
  5
87
100
AcDbEntity
  8
LIVELLO_1
 62
     7
100
AcDbVertex
100
AcDb2dVertex
 10
-86.943703
 20
54.909482
 30
0.0
  0
VERTEX
  5
88
100
AcDbEntity
  8
LIVELLO_1
 62
     7
100
AcDbVertex
100
AcDb2dVertex
 10
-87.226717
 20
55.065545
 30
0.0
  0
VERTEX
  5
89
100
AcDbEntity
  8
LIVELLO_1
 62
     7
100
AcDbVertex
100
AcDb2dVertex
 10
-87.499396
 20
55.23091
 30
0.0
  0
VERTEX
  5
8A
100
AcDbEntity
  8
LIVELLO_1
 62
     7
100
AcDbVertex
100
AcDb2dVertex
 10
-87.766564
 20
55.405231
 30
0.0
  0
VERTEX
  5
8B
100
AcDbEntity
  8
LIVELLO_1
 62
     7
100
AcDbVertex
100
AcDb2dVertex
 10
-88.021328
 20
55.586271
 30
0.0
  0
VERTEX
  5
8C
100
AcDbEntity
  8
LIVELLO_1
 62
     7
100
AcDbVertex
100
AcDb2dVertex
 10
-88.269203
 20
55.77644
 30
0.0
  0
VERTEX
  5
8D
100
AcDbEntity
  8
LIVELLO_1
 62
     7
100
AcDbVertex
100
AcDb2dVertex
 10
-88.507948
 20
55.973328
 30
0.0
  0
VERTEX
  5
8E
100
AcDbEntity
  8
LIVELLO_1
 62
     7
100
AcDbVertex
100
AcDb2dVertex
 10
-88.735497
 20
56.179344
 30
0.0
  0
VERTEX
  5
8F
100
AcDbEntity
  8
LIVELLO_1
 62
     7
100
AcDbVertex
100
AcDb2dVertex
 10
-88.95271
 20
56.38984
 30
0.0
  0
VERTEX
  5
90
100
AcDbEntity
  8
LIVELLO_1
 62
     7
100
AcDbVertex
100
AcDb2dVertex
 10
-89.159932
 20
56.607225
 30
0.0
  0
VERTEX
  5
91
100
AcDbEntity
  8
LIVELLO_1
 62
     7
100
AcDbVertex
100
AcDb2dVertex
 10
-89.35682
 20
56.833568
 30
0.0
  0
VERTEX
  5
92
100
AcDbEntity
  8
LIVELLO_1
 62
     7
100
AcDbVertex
100
AcDb2dVertex
 10
-89.54251
 20
57.062322
 30
0.0
  0
VERTEX
  5
93
100
AcDbEntity
  8
LIVELLO_1
 62
     7
100
AcDbVertex
100
AcDb2dVertex
 10
-89.715626
 20
57.297622
 30
0.0
  0
VERTEX
  5
94
100
AcDbEntity
  8
LIVELLO_1
 62
     7
100
AcDbVertex
100
AcDb2dVertex
 10
-89.878752
 20
57.539985
 30
0.0
  0
VERTEX
  5
95
100
AcDbEntity
  8
LIVELLO_1
 62
     7
100
AcDbVertex
100
AcDb2dVertex
 10
-90.026891
 20
57.786654
 30
0.0
  0
VERTEX
  5
96
100
AcDbEntity
  8
LIVELLO_1
 62
     7
100
AcDbVertex
100
AcDb2dVertex
 10
-90.166245
 20
58.035734
 30
0.0
  0
VERTEX
  5
97
100
AcDbEntity
  8
LIVELLO_1
 62
     7
100
AcDbVertex
100
AcDb2dVertex
 10
-90.288373
 20
58.291532
 30
0.0
  0
VERTEX
  5
98
100
AcDbEntity
  8
LIVELLO_1
 62
     7
100
AcDbVertex
100
AcDb2dVertex
 10
-90.401545
 20
58.54957
 30
0.0
  0
VERTEX
  5
99
100
AcDbEntity
  8
LIVELLO_1
 62
     7
100
AcDbVertex
100
AcDb2dVertex
 10
-90.502314
 20
58.812086
 30
0.0
  0
VERTEX
  5
9A
100
AcDbEntity
  8
LIVELLO_1
 62
     7
100
AcDbVertex
100
AcDb2dVertex
 10
-90.587236
 20
59.077014
 30
0.0
  0
VERTEX
  5
9B
100
AcDbEntity
  8
LIVELLO_1
 62
     7
100
AcDbVertex
100
AcDb2dVertex
 10
-90.661994
 20
59.344181
 30
0.0
  0
VERTEX
  5
9C
100
AcDbEntity
  8
LIVELLO_1
 62
     7
100
AcDbVertex
100
AcDb2dVertex
 10
-90.721939
 20
59.613588
 30
0.0
  0
VERTEX
  5
9D
100
AcDbEntity
  8
LIVELLO_1
 62
     7
100
AcDbVertex
100
AcDb2dVertex
 10
-90.768275
 20
59.885234
 30
0.0
  0
VERTEX
  5
9E
100
AcDbEntity
  8
LIVELLO_1
 62
     7
100
AcDbVertex
100
AcDb2dVertex
 10
-90.803415
 20
60.156879
 30
0.0
  0
VERTEX
  5
9F
100
AcDbEntity
  8
LIVELLO_1
 62
     7
100
AcDbVertex
100
AcDb2dVertex
 10
-90.821502
 20
60.430764
 30
0.0
  0
VERTEX
  5
A0
100
AcDbEntity
  8
LIVELLO_1
 62
     7
100
AcDbVertex
100
AcDb2dVertex
 10
-90.828392
 20
60.70465
 30
0.0
  0
VERTEX
  5
A1
100
AcDbEntity
  8
LIVELLO_1
 62
     7
100
AcDbVertex
100
AcDb2dVertex
 10
-90.821502
 20
60.978535
 30
0.0
  0
VERTEX
  5
A2
100
AcDbEntity
  8
LIVELLO_1
 62
     7
100
AcDbVertex
100
AcDb2dVertex
 10
-90.803415
 20
61.25018
 30
0.0
  0
VERTEX
  5
A3
100
AcDbEntity
  8
LIVELLO_1
 62
     7
100
AcDbVertex
100
AcDb2dVertex
 10
-90.768275
 20
61.524238
 30
0.0
  0
VERTEX
  5
A4
100
AcDbEntity
  8
LIVELLO_1
 62
     7
100
AcDbVertex
100
AcDb2dVertex
 10
-90.721939
 20
61.793472
 30
0.0
  0
VERTEX
  5
A5
100
AcDbEntity
  8
LIVELLO_1
 62
     7
100
AcDbVertex
100
AcDb2dVertex
 10
-90.661994
 20
62.06529
 30
0.0
  0
VERTEX
  5
A6
100
AcDbEntity
  8
LIVELLO_1
 62
     7
100
AcDbVertex
100
AcDb2dVertex
 10
-90.587236
 20
62.332285
 30
0.0
  0
VERTEX
  5
A7
100
AcDbEntity
  8
LIVELLO_1
 62
     7
100
AcDbVertex
100
AcDb2dVertex
 10
-90.502314
 20
62.594973
 30
0.0
  0
VERTEX
  5
A8
100
AcDbEntity
  8
LIVELLO_1
 62
     7
100
AcDbVertex
100
AcDb2dVertex
 10
-90.401545
 20
62.85749
 30
0.0
  0
VERTEX
  5
A9
100
AcDbEntity
  8
LIVELLO_1
 62
     7
100
AcDbVertex
100
AcDb2dVertex
 10
-90.288373
 20
63.117767
 30
0.0
  0
VERTEX
  5
AA
100
AcDbEntity
  8
LIVELLO_1
 62
     7
100
AcDbVertex
100
AcDb2dVertex
 10
-90.166245
 20
63.371326
 30
0.0
  0
VERTEX
  5
AB
100
AcDbEntity
  8
LIVELLO_1
 62
     7
100
AcDbVertex
100
AcDb2dVertex
 10
-90.026891
 20
63.622645
 30
0.0
  0
VERTEX
  5
AC
100
AcDbEntity
  8
LIVELLO_1
 62
     7
100
AcDbVertex
100
AcDb2dVertex
 10
-89.878752
 20
63.869486
 30
0.0
  0
VERTEX
  5
AD
100
AcDbEntity
  8
LIVELLO_1
 62
     7
100
AcDbVertex
100
AcDb2dVertex
 10
-89.715626
 20
64.109437
 30
0.0
  0
VERTEX
  5
AE
100
AcDbEntity
  8
LIVELLO_1
 62
     7
100
AcDbVertex
100
AcDb2dVertex
 10
-89.54251
 20
64.34491
 30
0.0
  0
VERTEX
  5
AF
100
AcDbEntity
  8
LIVELLO_1
 62
     7
100
AcDbVertex
100
AcDb2dVertex
 10
-89.35682
 20
64.57797
 30
0.0
  0
VERTEX
  5
B0
100
AcDbEntity
  8
LIVELLO_1
 62
     7
100
AcDbVertex
100
AcDb2dVertex
 10
-89.159932
 20
64.799835
 30
0.0
  0
VERTEX
  5
B1
100
AcDbEntity
  8
LIVELLO_1
 62
     7
100
AcDbVertex
100
AcDb2dVertex
 10
-88.95271
 20
65.019459
 30
0.0
  0
VERTEX
  5
B2
100
AcDbEntity
  8
LIVELLO_1
 62
     7
100
AcDbVertex
100
AcDb2dVertex
 10
-88.735497
 20
65.232194
 30
0.0
  0
VERTEX
  5
B3
100
AcDbEntity
  8
LIVELLO_1
 62
     7
100
AcDbVertex
100
AcDb2dVertex
 10
-88.507948
 20
65.435971
 30
0.0
  0
VERTEX
  5
B4
100
AcDbEntity
  8
LIVELLO_1
 62
     7
100
AcDbVertex
100
AcDb2dVertex
 10
-88.269203
 20
65.632859
 30
0.0
  0
VERTEX
  5
B5
100
AcDbEntity
  8
LIVELLO_1
 62
     7
100
AcDbVertex
100
AcDb2dVertex
 10
-88.021328
 20
65.823028
 30
0.0
  0
VERTEX
  5
B6
100
AcDbEntity
  8
LIVELLO_1
 62
     7
100
AcDbVertex
100
AcDb2dVertex
 10
-87.766564
 20
66.006479
 30
0.0
  0
VERTEX
  5
B7
100
AcDbEntity
  8
LIVELLO_1
 62
     7
100
AcDbVertex
100
AcDb2dVertex
 10
-87.499396
 20
66.17615
 30
0.0
  0
VERTEX
  5
B8
100
AcDbEntity
  8
LIVELLO_1
 62
     7
100
AcDbVertex
100
AcDb2dVertex
 10
-87.226717
 20
66.343754
 30
0.0
  0
VERTEX
  5
B9
100
AcDbEntity
  8
LIVELLO_1
 62
     7
100
AcDbVertex
100
AcDb2dVertex
 10
-86.943703
 20
66.499989
 30
0.0
  0
VERTEX
  5
BA
100
AcDbEntity
  8
LIVELLO_1
 62
     7
100
AcDbVertex
100
AcDb2dVertex
 10
-86.656209
 20
66.647095
 30
0.0
  0
VERTEX
  5
BB
100
AcDbEntity
  8
LIVELLO_1
 62
     7
100
AcDbVertex
100
AcDb2dVertex
 10
-86.359587
 20
66.787482
 30
0.0
  0
VERTEX
  5
BC
100
AcDbEntity
  8
LIVELLO_1
 62
     7
100
AcDbVertex
100
AcDb2dVertex
 10
-86.055212
 20
66.914262
 30
0.0
  0
VERTEX
  5
BD
100
AcDbEntity
  8
LIVELLO_1
 62
     7
100
AcDbVertex
100
AcDb2dVertex
 10
-85.747221
 20
67.034151
 30
0.0
  0
VERTEX
  5
BE
100
AcDbEntity
  8
LIVELLO_1
 62
     7
100
AcDbVertex
100
AcDb2dVertex
 10
-85.432684
 20
67.142844
 30
0.0
  0
VERTEX
  5
BF
100
AcDbEntity
  8
LIVELLO_1
 62
     7
100
AcDbVertex
100
AcDb2dVertex
 10
-85.114529
 20
67.242407
 30
0.0
  0
VERTEX
  5
C0
100
AcDbEntity
  8
LIVELLO_1
 62
     7
100
AcDbVertex
100
AcDb2dVertex
 10
-84.789657
 20
67.333013
 30
0.0
  0
VERTEX
  5
C1
100
AcDbEntity
  8
LIVELLO_1
 62
     7
100
AcDbVertex
100
AcDb2dVertex
 10
-84.460305
 20
67.41225
 30
0.0
  0
VERTEX
  5
C2
100
AcDbEntity
  8
LIVELLO_1
 62
     7
100
AcDbVertex
100
AcDb2dVertex
 10
-84.129749
 20
67.482358
 30
0.0
  0
VERTEX
  5
C3
100
AcDbEntity
  8
LIVELLO_1
 62
     7
100
AcDbVertex
100
AcDb2dVertex
 10
-83.793679
 20
67.541269
 30
0.0
  0
VERTEX
  5
C4
100
AcDbEntity
  8
LIVELLO_1
 62
     7
100
AcDbVertex
100
AcDb2dVertex
 10
-83.455199
 20
67.588812
 30
0.0
  0
VERTEX
  5
C5
100
AcDbEntity
  8
LIVELLO_1
 62
     7
100
AcDbVertex
100
AcDb2dVertex
 10
-83.116718
 20
67.624985
 30
0.0
  0
VERTEX
  5
C6
100
AcDbEntity
  8
LIVELLO_1
 62
     7
100
AcDbVertex
100
AcDb2dVertex
 10
-82.772725
 20
67.654441
 30
0.0
  0
VERTEX
  5
C7
100
AcDbEntity
  8
LIVELLO_1
 62
     7
100
AcDbVertex
100
AcDb2dVertex
 10
-82.432005
 20
67.670288
 30
0.0
  0
VERTEX
  5
C8
100
AcDbEntity
  8
LIVELLO_1
 62
     7
100
AcDbVertex
100
AcDb2dVertex
 10
-82.086807
 20
67.674767
 30
0.0
  0
VERTEX
  5
C9
100
AcDbEntity
  8
LIVELLO_1
 62
     7
100
AcDbVertex
100
AcDb2dVertex
 10
-81.743848
 20
67.670288
 30
0.0
  0
VERTEX
  5
CA
100
AcDbEntity
  8
LIVELLO_1
 62
     7
100
AcDbVertex
100
AcDb2dVertex
 10
-81.400888
 20
67.654441
 30
0.0
  0
VERTEX
  5
CB
100
AcDbEntity
  8
LIVELLO_1
 62
     7
100
AcDbVertex
100
AcDb2dVertex
 10
-81.060168
 20
67.624985
 30
0.0
  0
VERTEX
  5
CC
100
AcDbEntity
  8
LIVELLO_1
 62
     7
100
AcDbVertex
100
AcDb2dVertex
 10
-80.721688
 20
67.588812
 30
0.0
  0
VERTEX
  5
CD
100
AcDbEntity
  8
LIVELLO_1
 62
     7
100
AcDbVertex
100
AcDb2dVertex
 10
-80.383207
 20
67.541269
 30
0.0
  0
VERTEX
  5
CE
100
AcDbEntity
  8
LIVELLO_1
 62
     7
100
AcDbVertex
100
AcDb2dVertex
 10
-80.047138
 20
67.482358
 30
0.0
  0
VERTEX
  5
CF
100
AcDbEntity
  8
LIVELLO_1
 62
     7
100
AcDbVertex
100
AcDb2dVertex
 10
-79.715548
 20
67.41225
 30
0.0
  0
VERTEX
  5
D0
100
AcDbEntity
  8
LIVELLO_1
 62
     7
100
AcDbVertex
100
AcDb2dVertex
 10
-79.386024
 20
67.333013
 30
0.0
  0
VERTEX
  5
D1
100
AcDbEntity
  8
LIVELLO_1
 62
     7
100
AcDbVertex
100
AcDb2dVertex
 10
-79.062358
 20
67.242407
 30
0.0
  0
VERTEX
  5
D2
100
AcDbEntity
  8
LIVELLO_1
 62
     7
100
AcDbVertex
100
AcDb2dVertex
 10
-78.742136
 20
67.142844
 30
0.0
  0
VERTEX
  5
D3
100
AcDbEntity
  8
LIVELLO_1
 62
     7
100
AcDbVertex
100
AcDb2dVertex
 10
-78.426221
 20
67.034151
 30
0.0
  0
VERTEX
  5
D4
100
AcDbEntity
  8
LIVELLO_1
 62
     7
100
AcDbVertex
100
AcDb2dVertex
 10
-78.118401
 20
66.914262
 30
0.0
  0
VERTEX
  5
D5
100
AcDbEntity
  8
LIVELLO_1
 62
     7
100
AcDbVertex
100
AcDb2dVertex
 10
-77.815061
 20
66.787482
 30
0.0
  0
VERTEX
  5
D6
100
AcDbEntity
  8
LIVELLO_1
 62
     7
100
AcDbVertex
100
AcDb2dVertex
 10
-77.520677
 20
66.647095
 30
0.0
  0
VERTEX
  5
D7
100
AcDbEntity
  8
LIVELLO_1
 62
     7
100
AcDbVertex
100
AcDb2dVertex
 10
-77.230945
 20
66.499989
 30
0.0
  0
VERTEX
  5
D8
100
AcDbEntity
  8
LIVELLO_1
 62
     7
100
AcDbVertex
100
AcDb2dVertex
 10
-76.950342
 20
66.343754
 30
0.0
  0
VERTEX
  5
D9
100
AcDbEntity
  8
LIVELLO_1
 62
     7
100
AcDbVertex
100
AcDb2dVertex
 10
-76.676284
 20
66.17615
 30
0.0
  0
VERTEX
  5
DA
100
AcDbEntity
  8
LIVELLO_1
 62
     7
100
AcDbVertex
100
AcDb2dVertex
 10
-76.410323
 20
66.006479
 30
0.0
  0
VERTEX
  5
DB
100
AcDbEntity
  8
LIVELLO_1
 62
     7
100
AcDbVertex
100
AcDb2dVertex
 10
-76.154525
 20
65.823028
 30
0.0
  0
VERTEX
  5
DC
100
AcDbEntity
  8
LIVELLO_1
 62
     7
100
AcDbVertex
100
AcDb2dVertex
 10
-75.90665
 20
65.632859
 30
0.0
  0
VERTEX
  5
DD
100
AcDbEntity
  8
LIVELLO_1
 62
     7
100
AcDbVertex
100
AcDb2dVertex
 10
-75.667905
 20
65.435971
 30
0.0
  0
VERTEX
  5
DE
100
AcDbEntity
  8
LIVELLO_1
 62
     7
100
AcDbVertex
100
AcDb2dVertex
 10
-75.441562
 20
65.232194
 30
0.0
  0
VERTEX
  5
DF
100
AcDbEntity
  8
LIVELLO_1
 62
     7
100
AcDbVertex
100
AcDb2dVertex
 10
-75.222971
 20
65.019459
 30
0.0
  0
VERTEX
  5
E0
100
AcDbEntity
  8
LIVELLO_1
 62
     7
100
AcDbVertex
100
AcDb2dVertex
 10
-75.014715
 20
64.799835
 30
0.0
  0
VERTEX
  5
E1
100
AcDbEntity
  8
LIVELLO_1
 62
     7
100
AcDbVertex
100
AcDb2dVertex
 10
-74.820067
 20
64.57797
 30
0.0
  0
VERTEX
  5
E2
100
AcDbEntity
  8
LIVELLO_1
 62
     7
100
AcDbVertex
100
AcDb2dVertex
 10
-74.634376
 20
64.34491
 30
0.0
  0
VERTEX
  5
E3
100
AcDbEntity
  8
LIVELLO_1
 62
     7
100
AcDbVertex
100
AcDb2dVertex
 10
-74.460055
 20
64.109437
 30
0.0
  0
VERTEX
  5
E4
100
AcDbEntity
  8
LIVELLO_1
 62
     7
100
AcDbVertex
100
AcDb2dVertex
 10
-74.300547
 20
63.869486
 30
0.0
  0
VERTEX
  5
E5
100
AcDbEntity
  8
LIVELLO_1
 62
     7
100
AcDbVertex
100
AcDb2dVertex
 10
-74.149996
 20
63.622645
 30
0.0
  0
VERTEX
  5
E6
100
AcDbEntity
  8
LIVELLO_1
 62
     7
100
AcDbVertex
100
AcDb2dVertex
 10
-74.010814
 20
63.371326
 30
0.0
  0
VERTEX
  5
E7
100
AcDbEntity
  8
LIVELLO_1
 62
     7
100
AcDbVertex
100
AcDb2dVertex
 10
-73.885068
 20
63.117767
 30
0.0
  0
VERTEX
  5
E8
100
AcDbEntity
  8
LIVELLO_1
 62
     7
100
AcDbVertex
100
AcDb2dVertex
 10
-73.774136
 20
62.85749
 30
0.0
  0
VERTEX
  5
E9
100
AcDbEntity
  8
LIVELLO_1
 62
     7
100
AcDbVertex
100
AcDb2dVertex
 10
-73.674573
 20
62.594973
 30
0.0
  0
VERTEX
  5
EA
100
AcDbEntity
  8
LIVELLO_1
 62
     7
100
AcDbVertex
100
AcDb2dVertex
 10
-73.588618
 20
62.332285
 30
0.0
  0
VERTEX
  5
EB
100
AcDbEntity
  8
LIVELLO_1
 62
     7
100
AcDbVertex
100
AcDb2dVertex
 10
-73.515065
 20
62.06529
 30
0.0
  0
VERTEX
  5
EC
100
AcDbEntity
  8
LIVELLO_1
 62
     7
100
AcDbVertex
100
AcDb2dVertex
 10
-73.454948
 20
61.793472
 30
0.0
  0
VERTEX
  5
ED
100
AcDbEntity
  8
LIVELLO_1
 62
     7
100
AcDbVertex
100
AcDb2dVertex
 10
-73.408611
 20
61.524238
 30
0.0
  0
VERTEX
  5
EE
100
AcDbEntity
  8
LIVELLO_1
 62
     7
100
AcDbVertex
100
AcDb2dVertex
 10
-73.373471
 20
61.25018
 30
0.0
  0
VERTEX
  5
EF
100
AcDbEntity
  8
LIVELLO_1
 62
     7
100
AcDbVertex
100
AcDb2dVertex
 10
-73.35194
 20
60.978535
 30
0.0
  0
VERTEX
  5
F0
100
AcDbEntity
  8
LIVELLO_1
 62
     7
100
AcDbVertex
100
AcDb2dVertex
 10
-73.345222
 20
60.70465
 30
0.0
  0
SEQEND
  5
F1
100
AcDbEntity
  8
LIVELLO_1
 62
     7
  0
LINE
  5
76
100
AcDbEntity
  8
LIVELLO_1
 62
     7
100
AcDbLine
 10
-15.460555
 20
-104.109235
 30
0.0
 11
-11.523844
 21
-104.109235
 31
0.0
  0
LINE
  5
75
100
AcDbEntity
  8
LIVELLO_1
 62
     7
100
AcDbLine
 10
-28.402573
 20
-104.109235
 30
0.0
 11
-21.696178
 21
-104.109235
 31
0.0
  0
LINE
  5
74
100
AcDbEntity
  8
LIVELLO_1
 62
     7
100
AcDbLine
 10
-8.408961
 20
-105.852109
 30
0.0
 11
-28.750011
 21
-105.852109
 31
0.0
  0
SPLINE
  5
73
100
AcDbEntity
  8
LIVELLO_1
 62
     7
100
AcDbSpline
210
0.0
220
0.0
230
1.0
 70
     8
 71
     3
 72
     8
 73
     4
 74
     0
 42
0.00000001
 43
0.00000001
 40
0.0
 40
0.0
 40
0.0
 40
0.0
 40
1.0
 40
1.0
 40
1.0
 40
1.0
 10
-28.057374403211803
 20
-104.10923529730901
 30
0.0
 10
-28.43650716145833
 20
-104.10923529730901
 30
0.0
 10
-28.750010850694441
 20
-104.40103488498264
 30
0.0
 10
-28.750010850694441
 20
-104.76104736328124
 30
0.0
  0
SPLINE
  5
72
100
AcDbEntity
  8
LIVELLO_1
 62
     7
100
AcDbSpline
210
0.0
220
0.0
230
1.0
 70
     8
 71
     3
 72
     8
 73
     4
 74
     0
 42
0.00000001
 43
0.00000001
 40
0.0
 40
0.0
 40
0.0
 40
0.0
 40
1.0
 40
1.0
 40
1.0
 40
1.0
 10
-8.4089613172743043
 20
-104.76104736328124
 30
0.0
 10
-8.4089613172743043
 20
-104.40103488498264
 30
0.0
 10
-8.71919216579861
 20
-104.10923529730901
 30
0.0
 10
-9.1015977647569439
 20
-104.10923529730901
 30
0.0
  0
SPLINE
  5
71
100
AcDbEntity
  8
LIVELLO_1
 62
     7
100
AcDbSpline
210
0.0
220
0.0
230
1.0
 70
     8
 71
     3
 72
    11
 73
     7
 74
     0
 42
0.00000001
 43
0.00000001
 40
0.0
 40
0.0
 40
0.0
 40
0.0
 40
1.0
 40
1.0
 40
1.0
 40
2.0
 40
2.0
 40
2.0
 40
2.0
 10
-13.030384657118054
 20
-105.96304117838541
 30
0.0
 10
-13.176456705729166
 20
-105.81834716796874
 30
0.0
 10
-13.419852701822915
 20
-105.81593560112846
 30
0.0
 10
-13.571436903211804
 20
-105.95649549696179
 30
0.0
 10
-13.573676215277777
 20
-105.95856255425346
 30
0.0
 10
-13.576087782118055
 20
-105.96097412109374
 30
0.0
 10
-13.578327094184026
 20
-105.96304117838541
 30
0.0
  0
SPLINE
  5
70
100
AcDbEntity
  8
LIVELLO_1
 62
     7
100
AcDbSpline
210
0.0
220
0.0
230
1.0
 70
     8
 71
     3
 72
    11
 73
     7
 74
     0
 42
0.00000001
 43
0.00000001
 40
0.0
 40
0.0
 40
0.0
 40
0.0
 40
1.0
 40
1.0
 40
1.0
 40
2.0
 40
2.0
 40
2.0
 40
2.0
 10
-15.036119249131943
 20
-105.96304117838541
 30
0.0
 10
-15.184430609809027
 20
-105.81834716796874
 30
0.0
 10
-15.425587293836804
 20
-105.81593560112846
 30
0.0
 10
-15.576137966579859
 20
-105.95649549696179
 30
0.0
 10
-15.580616590711804
 20
-105.95856255425346
 30
0.0
 10
-15.580616590711804
 20
-105.96097412109374
 30
0.0
 10
-15.582855902777776
 20
-105.96304117838541
 30
0.0
  0
SPLINE
  5
6F
100
AcDbEntity
  8
LIVELLO_1
 62
     7
100
AcDbSpline
210
0.0
220
0.0
230
1.0
 70
     8
 71
     3
 72
     8
 73
     4
 74
     0
 42
0.00000001
 43
0.00000001
 40
0.0
 40
0.0
 40
0.0
 40
0.0
 40
1.0
 40
1.0
 40
1.0
 40
1.0
 10
-13.76384548611111
 20
-105.96304117838541
 30
0.0
 10
-14.11145562065972
 20
-105.81593560112846
 30
0.0
 10
-14.505230034722221
 20
-105.81593560112846
 30
0.0
 10
-14.85060085720486
 20
-105.96304117838541
 30
0.0
  0
LINE
  5
6E
100
AcDbEntity
  8
LIVELLO_1
 62
     7
100
AcDbLine
 10
-15.582856
 20
-105.963041
 30
0.0
 11
-15.469685
 21
-105.852109
 31
0.0
  0
LINE
  5
6D
100
AcDbEntity
  8
LIVELLO_1
 62
     7
100
AcDbLine
 10
-13.030385
 20
-105.963041
 30
0.0
 11
-13.144762
 21
-105.852109
 31
0.0
  0
LINE
  5
6C
100
AcDbEntity
  8
LIVELLO_1
 62
     7
100
AcDbLine
 10
-13.578327
 20
-105.963041
 30
0.0
 11
-13.763845
 21
-105.963041
 31
0.0
  0
LINE
  5
6B
100
AcDbEntity
  8
LIVELLO_1
 62
     7
100
AcDbLine
 10
-14.850601
 20
-105.963041
 30
0.0
 11
-15.036119
 21
-105.963041
 31
0.0
  0
LINE
  5
6A
100
AcDbEntity
  8
LIVELLO_1
 62
     7
100
AcDbLine
 10
-15.469685
 20
-105.852109
 30
0.0
 11
-13.144762
 21
-105.852109
 31
0.0
  0
SPLINE
  5
69
100
AcDbEntity
  8
LIVELLO_1
 62
     7
100
AcDbSpline
210
0.0
220
0.0
230
1.0
 70
     8
 71
     3
 72
    11
 73
     7
 74
     0
 42
0.00000001
 43
0.00000001
 40
0.0
 40
0.0
 40
0.0
 40
0.0
 40
1.0
 40
1.0
 40
1.0
 40
2.0
 40
2.0
 40
2.0
 40
2.0
 10
-25.743820529513886
 20
-105.96304117838541
 30
0.0
 10
-25.889892578124996
 20
-105.81834716796874
 30
0.0
 10
-26.133116319444444
 20
-105.81593560112846
 30
0.0
 10
-26.283666992187499
 20
-105.95649549696179
 30
0.0
 10
-26.285906304253469
 20
-105.95856255425346
 30
0.0
 10
-26.288145616319444
 20
-105.96097412109374
 30
0.0
 10
-26.29055718315972
 20
-105.96304117838541
 30
0.0
  0
SPLINE
  5
68
100
AcDbEntity
  8
LIVELLO_1
 62
     7
100
AcDbSpline
210
0.0
220
0.0
230
1.0
 70
     8
 71
     3
 72
    11
 73
     7
 74
     0
 42
0.00000001
 43
0.00000001
 40
0.0
 40
0.0
 40
0.0
 40
0.0
 40
1.0
 40
1.0
 40
1.0
 40
2.0
 40
2.0
 40
2.0
 40
2.0
 10
-27.750588650173608
 20
-105.96304117838541
 30
0.0
 10
-27.894421386718747
 20
-105.81834716796874
 30
0.0
 10
-28.137645128038191
 20
-105.81593560112846
 30
0.0
 10
-28.288195800781246
 20
-105.95649549696179
 30
0.0
 10
-28.290607367621526
 20
-105.95856255425346
 30
0.0
 10
-28.295085991753471
 20
-105.96097412109374
 30
0.0
 10
-28.297325303819441
 20
-105.96304117838541
 30
0.0
  0
SPLINE
  5
67
100
AcDbEntity
  8
LIVELLO_1
 62
     7
100
AcDbSpline
210
0.0
220
0.0
230
1.0
 70
     8
 71
     3
 72
     8
 73
     4
 74
     0
 42
0.00000001
 43
0.00000001
 40
0.0
 40
0.0
 40
0.0
 40
0.0
 40
1.0
 40
1.0
 40
1.0
 40
1.0
 10
-26.476075575086803
 20
-105.96304117838541
 30
0.0
 10
-26.823685709635413
 20
-105.81593560112846
 30
0.0
 10
-27.217460123697915
 20
-105.81593560112846
 30
0.0
 10
-27.562658691406249
 20
-105.96304117838541
 30
0.0
  0
LINE
  5
66
100
AcDbEntity
  8
LIVELLO_1
 62
     7
100
AcDbLine
 10
-28.297325
 20
-105.963041
 30
0.0
 11
-28.181915
 21
-105.852109
 31
0.0
  0
LINE
  5
65
100
AcDbEntity
  8
LIVELLO_1
 62
     7
100
AcDbLine
 10
-25.743821
 20
-105.963041
 30
0.0
 11
-25.859231
 21
-105.852109
 31
0.0
  0
LINE
  5
64
100
AcDbEntity
  8
LIVELLO_1
 62
     7
100
AcDbLine
 10
-26.290557
 20
-105.963041
 30
0.0
 11
-26.476076
 21
-105.963041
 31
0.0
  0
LINE
  5
63
100
AcDbEntity
  8
LIVELLO_1
 62
     7
100
AcDbLine
 10
-27.562659
 20
-105.963041
 30
0.0
 11
-27.750589
 21
-105.963041
 31
0.0
  0
LINE
  5
62
100
AcDbEntity
  8
LIVELLO_1
 62
     7
100
AcDbLine
 10
-28.181915
 20
-105.852109
 30
0.0
 11
-25.859231
 21
-105.852109
 31
0.0
  0
LINE
  5
61
100
AcDbEntity
  8
LIVELLO_1
 62
     7
100
AcDbLine
 10
-9.101598
 20
-104.113714
 30
0.0
 11
-24.939046
 21
-104.109235
 31
0.0
  0
LINE
  5
60
100
AcDbEntity
  8
LIVELLO_1
 62
     7
100
AcDbLine
 10
-8.408961
 20
-104.761047
 30
0.0
 11
-8.408961
 21
-105.852109
 31
0.0
  0
LINE
  5
5F
100
AcDbEntity
  8
LIVELLO_1
 62
     7
100
AcDbLine
 10
-28.750011
 20
-104.761047
 30
0.0
 11
-28.750011
 21
-105.852109
 31
0.0
  0
ELLIPSE
  5
5E
100
AcDbEntity
  8
LIVELLO_1
 62
     7
100
AcDbEllipse
 10
-25.007517
 20
-104.131628
 30
0.0
 11
0.0016364203559028
 21
-0.0251491970486111
 31
0.0
210
0.0
220
0.0
230
1.0
 40
0.967133
 41
0.0
 42
6.2831853071795862
  0
LINE
  5
5D
100
AcDbEntity
  8
LIVELLO_1
 62
     7
100
AcDbLine
 10
-25.005881
 20
-104.131628
 30
0.0
 11
-12.066102
 21
-104.131628
 31
0.0
  0
ELLIPSE
  5
5C
100
AcDbEntity
  8
LIVELLO_1
 62
     7
100
AcDbEllipse
 10
-25.007517
 20
-104.131628
 30
0.0
 11
0.0016364203559028
 21
-0.0251491970486111
 31
0.0
210
0.0
220
0.0
230
1.0
 40
0.967133
 41
0.0
 42
6.2831853071795862
  0
ELLIPSE
  5
5B
100
AcDbEntity
  8
LIVELLO_1
 62
     7
100
AcDbEllipse
 10
-89.486528
 20
-104.118193
 30
0.0
 11
-0.0254937065972222
 21
0.0
 31
0.0
210
0.0
220
0.0
230
1.0
 40
0.973184
 41
0.0
 42
6.2831853071795862
  0
ELLIPSE
  5
5A
100
AcDbEntity
  8
LIVELLO_1
 62
     7
100
AcDbEllipse
 10
-24.452857
 20
-104.118193
 30
0.0
 11
-0.0266133626302083
 21
0.0
 31
0.0
210
0.0
220
0.0
230
1.0
 40
0.854669
 41
0.0
 42
6.2831853071795862
  0
LINE
  5
59
100
AcDbEntity
  8
LIVELLO_1
 62
     7
100
AcDbLine
 10
-11.399476
 20
-104.118193
 30
0.0
 11
-24.450015
 21
-104.118193
 31
0.0
  0
LINE
  5
58
100
AcDbEntity
  8
LIVELLO_1
 62
     7
100
AcDbLine
 10
-83.08175
 20
-104.118193
 30
0.0
 11
-76.674045
 21
-104.118193
 31
0.0
  0
LINE
  5
57
100
AcDbEntity
  8
LIVELLO_1
 62
     7
100
AcDbLine
 10
-83.08175
 20
-104.118193
 30
0.0
 11
-89.487044
 21
-104.118193
 31
0.0
  0
ELLIPSE
  5
56
100
AcDbEntity
  8
LIVELLO_1
 62
     7
100
AcDbEllipse
 10
-89.486528
 20
-104.118193
 30
0.0
 11
-0.0254937065972222
 21
0.0
 31
0.0
210
0.0
220
0.0
230
1.0
 40
0.973184
 41
0.0
 42
6.2831853071795862
  0
LINE
  5
55
100
AcDbEntity
  8
LIVELLO_1
 62
     7
100
AcDbLine
 10
-75.97004
 20
-105.902063
 30
0.0
 11
-73.667855
 21
-105.902063
 31
0.0
  0
POLYLINE
  5
50
100
AcDbEntity
  8
LIVELLO_1
 62
     7
100
AcDb2dPolyline
 66
     1
 10
0.0
 20
0.0
 30
0.0
  0
VERTEX
  5
51
100
AcDbEntity
  8
LIVELLO_1
 62
     7
100
AcDbVertex
100
AcDb2dVertex
 10
-73.438067
 20
-104.088909
 30
0.0
  0
VERTEX
  5
52
100
AcDbEntity
  8
LIVELLO_1
 62
     7
100
AcDbVertex
100
AcDb2dVertex
 10
-76.187425
 20
-104.088909
 30
0.0
  0
VERTEX
  5
53
100
AcDbEntity
  8
LIVELLO_1
 62
     7
100
AcDbVertex
100
AcDb2dVertex
 10
-73.438067
 20
-104.088909
 30
0.0
  0
SEQEND
  5
54
100
AcDbEntity
  8
LIVELLO_1
 62
     7
  0
SPLINE
  5
4F
100
AcDbEntity
  8
LIVELLO_1
 62
     7
100
AcDbSpline
210
0.0
220
0.0
230
1.0
 70
     8
 71
     3
 72
    11
 73
     7
 74
     0
 42
0.00000001
 43
0.00000001
 40
0.0
 40
0.0
 40
0.0
 40
0.0
 40
1.0
 40
1.0
 40
1.0
 40
2.0
 40
2.0
 40
2.0
 40
2.0
 10
-80.79644639756944
 20
-106.01747368706596
 30
0.0
 10
-80.942518446180543
 20
-105.87036810980902
 30
0.0
 10
-81.183502875434016
 20
-105.86588948567707
 30
0.0
 10
-81.3318142361111
 20
-106.00851643880208
 30
0.0
 10
-81.334053548177081
 20
-106.01058349609374
 30
0.0
 10
-81.336292860243049
 20
-106.01540662977429
 30
0.0
 10
-81.338532172309016
 20
-106.01747368706596
 30
0.0
  0
SPLINE
  5
4E
100
AcDbEntity
  8
LIVELLO_1
 62
     7
100
AcDbSpline
210
0.0
220
0.0
230
1.0
 70
     8
 71
     3
 72
    11
 73
     7
 74
     0
 42
0.00000001
 43
0.00000001
 40
0.0
 40
0.0
 40
0.0
 40
0.0
 40
1.0
 40
1.0
 40
1.0
 40
2.0
 40
2.0
 40
2.0
 40
2.0
 10
-82.785127766927076
 20
-106.01747368706596
 30
0.0
 10
-82.93343912760416
 20
-105.87036810980902
 30
0.0
 10
-83.172184244791666
 20
-105.86588948567707
 30
0.0
 10
-83.320495605468736
 20
-106.00851643880208
 30
0.0
 10
-83.322734917534717
 20
-106.01058349609374
 30
0.0
 10
-83.325146484374997
 20
-106.01540662977429
 30
0.0
 10
-83.329625108506931
 20
-106.01747368706596
 30
0.0
  0
SPLINE
  5
4D
100
AcDbEntity
  8
LIVELLO_1
 62
     7
100
AcDbSpline
210
0.0
220
0.0
230
1.0
 70
     8
 71
     3
 72
     8
 73
     4
 74
     0
 42
0.00000001
 43
0.00000001
 40
0.0
 40
0.0
 40
0.0
 40
0.0
 40
1.0
 40
1.0
 40
1.0
 40
1.0
 10
-81.524222819010404
 20
-106.01747368706596
 30
0.0
 10
-81.867182074652774
 20
-105.86588948567707
 30
0.0
 10
-82.258889431423597
 20
-105.86588948567707
 30
0.0
 10
-82.601848687065967
 20
-106.01747368706596
 30
0.0
  0
LINE
  5
4C
100
AcDbEntity
  8
LIVELLO_1
 62
     7
100
AcDbLine
 10
-83.329625
 20
-106.017474
 30
0.0
 11
-83.214214
 21
-105.902063
 31
0.0
  0
LINE
  5
4B
100
AcDbEntity
  8
LIVELLO_1
 62
     7
100
AcDbLine
 10
-80.796446
 20
-106.017474
 30
0.0
 11
-80.911857
 21
-105.902063
 31
0.0
  0
LINE
  5
4A
100
AcDbEntity
  8
LIVELLO_1
 62
     7
100
AcDbLine
 10
-81.338532
 20
-106.017474
 30
0.0
 11
-81.524223
 21
-106.017474
 31
0.0
  0
LINE
  5
49
100
AcDbEntity
  8
LIVELLO_1
 62
     7
100
AcDbLine
 10
-82.601849
 20
-106.017474
 30
0.0
 11
-82.785128
 21
-106.017474
 31
0.0
  0
LINE
  5
48
100
AcDbEntity
  8
LIVELLO_1
 62
     7
100
AcDbLine
 10
-83.214214
 20
-105.902063
 30
0.0
 11
-80.911857
 21
-105.902063
 31
0.0
  0
LINE
  5
47
100
AcDbEntity
  8
LIVELLO_1
 62
     7
100
AcDbLine
 10
-90.675602
 20
-104.088909
 30
0.0
 11
-87.926244
 21
-104.088909
 31
0.0
  0
SPLINE
  5
46
100
AcDbEntity
  8
LIVELLO_1
 62
     7
100
AcDbSpline
210
0.0
220
0.0
230
1.0
 70
     8
 71
     3
 72
    11
 73
     7
 74
     0
 42
0.00000001
 43
0.00000001
 40
0.0
 40
0.0
 40
0.0
 40
0.0
 40
1.0
 40
1.0
 40
1.0
 40
2.0
 40
2.0
 40
2.0
 40
2.0
 10
-88.040448676215263
 20
-106.01747368706596
 30
0.0
 10
-88.18652072482638
 20
-105.87036810980902
 30
0.0
 10
-88.425265842013886
 20
-105.86588948567707
 30
0.0
 10
-88.575816514756937
 20
-106.00851643880208
 30
0.0
 10
-88.578055826822904
 20
-106.01058349609374
 30
0.0
 10
-88.582706705729152
 20
-106.01540662977429
 30
0.0
 10
-88.582706705729152
 20
-106.01747368706596
 30
0.0
  0
SPLINE
  5
45
100
AcDbEntity
  8
LIVELLO_1
 62
     7
100
AcDbSpline
210
0.0
220
0.0
230
1.0
 70
     8
 71
     3
 72
    11
 73
     7
 74
     0
 42
0.00000001
 43
0.00000001
 40
0.0
 40
0.0
 40
0.0
 40
0.0
 40
1.0
 40
1.0
 40
1.0
 40
2.0
 40
2.0
 40
2.0
 40
2.0
 10
-90.029302300347211
 20
-106.01747368706596
 30
0.0
 10
-90.175202094184016
 20
-105.87036810980902
 30
0.0
 10
-90.41411946614582
 20
-105.86588948567707
 30
0.0
 10
-90.564670138888886
 20
-106.00851643880208
 30
0.0
 10
-90.56914876302082
 20
-106.01058349609374
 30
0.0
 10
-90.56914876302082
 20
-106.01540662977429
 30
0.0
 10
-90.571388075086801
 20
-106.01747368706596
 30
0.0
  0
SPLINE
  5
44
100
AcDbEntity
  8
LIVELLO_1
 62
     7
100
AcDbSpline
210
0.0
220
0.0
230
1.0
 70
     8
 71
     3
 72
     8
 73
     4
 74
     0
 42
0.00000001
 43
0.00000001
 40
0.0
 40
0.0
 40
0.0
 40
0.0
 40
1.0
 40
1.0
 40
1.0
 40
1.0
 10
-88.768225097656241
 20
-106.01747368706596
 30
0.0
 10
-89.10894504123263
 20
-105.86588948567707
 30
0.0
 10
-89.502891710069434
 20
-105.86588948567707
 30
0.0
 10
-89.845850965711804
 20
-106.01747368706596
 30
0.0
  0
LINE
  5
43
100
AcDbEntity
  8
LIVELLO_1
 62
     7
100
AcDbLine
 10
-90.571388
 20
-106.017474
 30
0.0
 11
-90.458217
 21
-105.902063
 31
0.0
  0
LINE
  5
42
100
AcDbEntity
  8
LIVELLO_1
 62
     7
100
AcDbLine
 10
-88.040449
 20
-106.017474
 30
0.0
 11
-88.15362
 21
-105.902063
 31
0.0
  0
LINE
  5
41
100
AcDbEntity
  8
LIVELLO_1
 62
     7
100
AcDbLine
 10
-88.582707
 20
-106.017474
 30
0.0
 11
-88.768225
 21
-106.017474
 31
0.0
  0
LINE
  5
40
100
AcDbEntity
  8
LIVELLO_1
 62
     7
100
AcDbLine
 10
-89.845851
 20
-106.017474
 30
0.0
 11
-90.029302
 21
-106.017474
 31
0.0
  0
LINE
  5
3F
100
AcDbEntity
  8
LIVELLO_1
 62
     7
100
AcDbLine
 10
-90.458217
 20
-105.902063
 30
0.0
 11
-88.15362
 21
-105.902063
 31
0.0
  0
LINE
  5
3E
100
AcDbEntity
  8
LIVELLO_1
 62
     7
100
AcDbLine
 10
-75.638449
 20
-104.088909
 30
0.0
 11
-78.387808
 21
-104.088909
 31
0.0
  0
LINE
  5
3D
100
AcDbEntity
  8
LIVELLO_1
 62
     7
100
AcDbLine
 10
-72.548371
 20
-105.902063
 30
0.0
 11
-91.566332
 21
-105.902063
 31
0.0
  0
LINE
  5
3C
100
AcDbEntity
  8
LIVELLO_1
 62
     7
100
AcDbLine
 10
-87.926244
 20
-104.088909
 30
0.0
 11
-90.675602
 21
-104.088909
 31
0.0
  0
SPLINE
  5
3B
100
AcDbEntity
  8
LIVELLO_1
 62
     7
100
AcDbSpline
210
0.0
220
0.0
230
1.0
 70
     8
 71
     3
 72
     8
 73
     4
 74
     0
 42
0.00000001
 43
0.00000001
 40
0.0
 40
0.0
 40
0.0
 40
0.0
 40
1.0
 40
1.0
 40
1.0
 40
1.0
 10
-92.029180230034711
 20
-104.08890923394097
 30
0.0
 10
-92.407279459635404
 20
-104.08890923394097
 30
0.0
 10
-92.715098741319437
 20
-104.39448920355902
 30
0.0
 10
-92.715098741319437
 20
-104.77000461154513
 30
0.0
  0
SPLINE
  5
3A
100
AcDbEntity
  8
LIVELLO_1
 62
     7
100
AcDbSpline
210
0.0
220
0.0
230
1.0
 70
     8
 71
     3
 72
     8
 73
     4
 74
     0
 42
0.00000001
 43
0.00000001
 40
0.0
 40
0.0
 40
0.0
 40
0.0
 40
1.0
 40
1.0
 40
1.0
 40
1.0
 10
-72.548371039496516
 20
-104.77000461154513
 30
0.0
 10
-72.548371039496516
 20
-104.39448920355902
 30
0.0
 10
-72.856190321180549
 20
-104.08890923394097
 30
0.0
 10
-73.236528862847209
 20
-104.08890923394097
 30
0.0
  0
LINE
  5
39
100
AcDbEntity
  8
LIVELLO_1
 62
     7
100
AcDbLine
 10
-92.02918
 20
-104.088909
 30
0.0
 11
-85.724655
 21
-104.088909
 31
0.0
  0
LINE
  5
38
100
AcDbEntity
  8
LIVELLO_1
 62
     7
100
AcDbLine
 10
-91.566332
 20
-105.902063
 30
0.0
 11
-92.715099
 21
-105.902063
 31
0.0
  0
LINE
  5
37
100
AcDbEntity
  8
LIVELLO_1
 62
     7
100
AcDbLine
 10
-87.511971
 20
-104.088909
 30
0.0
 11
-73.236529
 21
-104.088909
 31
0.0
  0
LINE
  5
36
100
AcDbEntity
  8
LIVELLO_1
 62
     7
100
AcDbLine
 10
-87.511971
 20
-104.088909
 30
0.0
 11
-88.936863
 21
-104.088909
 31
0.0
  0
LINE
  5
35
100
AcDbEntity
  8
LIVELLO_1
 62
     7
100
AcDbLine
 10
-72.548371
 20
-104.770005
 30
0.0
 11
-72.548371
 21
-105.902063
 31
0.0
  0
LINE
  5
34
100
AcDbEntity
  8
LIVELLO_1
 62
     7
100
AcDbLine
 10
-92.715099
 20
-104.770005
 30
0.0
 11
-92.715099
 21
-105.902063
 31
0.0
  0
LINE
  5
33
100
AcDbEntity
  8
LIVELLO_1
 62
     7
100
AcDbLine
 10
-88.308822
 20
-105.902063
 30
0.0
 11
-75.802608
 21
-105.902063
 31
0.0
  0
SPLINE
  5
32
100
AcDbEntity
  8
LIVELLO_1
 62
     7
100
AcDbSpline
210
0.0
220
0.0
230
1.0
 70
     8
 71
     3
 72
    11
 73
     7
 74
     0
 42
0.00000001
 43
0.00000001
 40
0.0
 40
0.0
 40
0.0
 40
0.0
 40
1.0
 40
1.0
 40
1.0
 40
2.0
 40
2.0
 40
2.0
 40
2.0
 10
-73.593096245659709
 20
-106.07397325303819
 30
0.0
 10
-73.739168294270826
 20
-105.92480061848957
 30
0.0
 10
-73.977913411458331
 20
-105.92032199435764
 30
0.0
 10
-74.129669867621516
 20
-106.06742757161457
 30
0.0
 10
-74.131909179687497
 20
-106.06949462890624
 30
0.0
 10
-74.134148491753464
 20
-106.07190619574652
 30
0.0
 10
-74.136387803819431
 20
-106.07397325303819
 30
0.0
  0
SPLINE
  5
31
100
AcDbEntity
  8
LIVELLO_1
 62
     7
100
AcDbSpline
210
0.0
220
0.0
230
1.0
 70
     8
 71
     3
 72
    11
 73
     7
 74
     0
 42
0.00000001
 43
0.00000001
 40
0.0
 40
0.0
 40
0.0
 40
0.0
 40
1.0
 40
1.0
 40
1.0
 40
2.0
 40
2.0
 40
2.0
 40
2.0
 10
-75.585222710503459
 20
-106.07397325303819
 30
0.0
 10
-75.731294759114576
 20
-105.92480061848957
 30
0.0
 10
-75.970039876302081
 20
-105.92032199435764
 30
0.0
 10
-76.118351236979166
 20
-106.06742757161457
 30
0.0
 10
-76.1228298611111
 20
-106.06949462890624
 30
0.0
 10
-76.125069173177081
 20
-106.07190619574652
 30
0.0
 10
-76.127480740017347
 20
-106.07397325303819
 30
0.0
  0
SPLINE
  5
30
100
AcDbEntity
  8
LIVELLO_1
 62
     7
100
AcDbSpline
210
0.0
220
0.0
230
1.0
 70
     8
 71
     3
 72
     8
 73
     4
 74
     0
 42
0.00000001
 43
0.00000001
 40
0.0
 40
0.0
 40
0.0
 40
0.0
 40
1.0
 40
1.0
 40
1.0
 40
1.0
 10
-74.320872667100687
 20
-106.07397325303819
 30
0.0
 10
-74.66503770616319
 20
-105.92032199435764
 30
0.0
 10
-75.056572808159714
 20
-105.92032199435764
 30
0.0
 10
-75.39953206380207
 20
-106.07397325303819
 30
0.0
  0
LINE
  5
2F
100
AcDbEntity
  8
LIVELLO_1
 62
     7
100
AcDbLine
 10
-76.127481
 20
-106.073973
 30
0.0
 11
-76.014137
 21
-105.960974
 31
0.0
  0
LINE
  5
2E
100
AcDbEntity
  8
LIVELLO_1
 62
     7
100
AcDbLine
 10
-73.593096
 20
-106.073973
 30
0.0
 11
-73.707473
 21
-105.960974
 31
0.0
  0
LINE
  5
2D
100
AcDbEntity
  8
LIVELLO_1
 62
     7
100
AcDbLine
 10
-74.136388
 20
-106.073973
 30
0.0
 11
-74.320873
 21
-106.073973
 31
0.0
  0
LINE
  5
2C
100
AcDbEntity
  8
LIVELLO_1
 62
     7
100
AcDbLine
 10
-75.399532
 20
-106.073973
 30
0.0
 11
-75.585223
 21
-106.073973
 31
0.0
  0
ENDBLK
  5
179
100
AcDbEntity
  8
LIVELLO_1
100
AcDbBlockEnd
  0
ENDSEC
  0
SECTION
  2
ENTITIES
  0
INSERT
  5
2A
100
AcDbEntity
  8
LIVELLO_1
 62
     7
100
AcDbBlockReference
  2
AI9-BLK1
 10
93.967046
 20
106.461202
 30
0.0
  0
ENDSEC
  0
SECTION
  2
OBJECTS
  0
DICTIONARY
  5
19
100
AcDbDictionary
280
     0
281
     1
  3
ACAD_GROUP
350
1A
  3
ACAD_MLINESTYLE
350
1B
  3
ACAD_LAYOUT
350
1E
  3
ACAD_PLOTSETTINGS
350
22
  3
ACAD_PLOTSTYLENAME
350
1F
  3
ACAD_WIPEOUT_VARS
350
23
  0
DICTIONARY
  5
1A
102
{ACAD_REACTORS
330
19
102
}
100
AcDbDictionary
280
     0
281
     1
  0
DICTIONARY
  5
1B
102
{ACAD_REACTORS
330
19
102
}
100
AcDbDictionary
280
     0
281
     1
  3
Standard
350
1C
  0
MLINESTYLE
  5
1C
102
{ACAD_REACTORS
330
1B
102
}
100
AcDbMlineStyle
  2
Standard
 70
     0
  3

 62
     0
 51
90.0
 52
90.0
 71
     2
 49
0.5
 62
   256
  6
ByLayer
 49
-0.5
 62
   256
  6
ByLayer
  0
ACDBDICTIONARYWDFLT
  5
1F
102
{ACAD_REACTORS
330
19
102
}
100
AcDbDictionary
281
     1
  3
Normal
350
1D
100
AcDbDictionaryWithDefault
340
1D
  0
ACDBPLACEHOLDER
  5
1D
102
{ACAD_REACTORS
330
1F
102
}
  0
LAYOUT
  5
20
102
{ACAD_REACTORS
330
1E
102
}
100
AcDbPlotSettings
  1

  2

  4

  6

 40
0.0
 41
0.0
 42
0.0
 43
0.0
 44
0.0
 45
0.0
 46
0.0
 47
0.0
 48
0.0
 49
0.0
140
0.0
141
0.0
142
1.0
143
1.0
 70
  1024
 72
     0
 73
     0
 74
     0
  7

 75
     0
147
1.0
148
0.0
149
0.0
100
AcDbLayout
  1
Model
 70
     0
 71
     0
 10
0.0
 20
0.0
 11
0.0
 21
0.0
 12
0.0
 22
0.0
 32
0.0
 14
0.0
 24
0.0
 34
0.0
 15
0.0
 25
0.0
 35
0.0
146
0.0
 13
0.0
 23
0.0
 33
0.0
 16
0.0
 26
0.0
 36
0.0
 17
0.0
 27
0.0
 37
0.0
 76
     0
330
A
331
0
345
0
346
0
  0
LAYOUT
  5
21
102
{ACAD_REACTORS
330
1E
102
}
100
AcDbPlotSettings
  1

  2

  4

  6

 40
0.0
 41
0.0
 42
0.0
 43
0.0
 44
0.0
 45
0.0
 46
0.0
 47
0.0
 48
0.0
 49
0.0
140
0.0
141
0.0
142
1.0
143
1.0
 70
     0
 72
     0
 73
     0
 74
     0
  7

 75
     0
147
1.0
148
0.0
149
0.0
100
AcDbLayout
  1
Layout1
 70
     0
 71
     0
 10
0.0
 20
0.0
 11
0.0
 21
0.0
 12
0.0
 22
0.0
 32
0.0
 14
0.0
 24
0.0
 34
0.0
 15
0.0
 25
0.0
 35
0.0
146
0.0
 13
0.0
 23
0.0
 33
0.0
 16
0.0
 26
0.0
 36
0.0
 17
0.0
 27
0.0
 37
0.0
 76
     0
330
B
331
0
345
0
346
0
  0
DICTIONARY
  5
1E
102
{ACAD_REACTORS
330
19
102
}
100
AcDbDictionary
280
     0
281
     1
  3
Layout1
350
21
  3
Model
350
20
  0
DICTIONARY
  5
22
102
{ACAD_REACTORS
330
19
102
}
100
AcDbDictionary
280
     0
281
     1
  0
WIPEOUTVARIABLES
  5
23
100
AcDbWipeoutVariables
 70
     1
  0
ENDSEC
  0
EOF
