  0
SECTION
  2
HEADER
  9
$ACADVER
  1
AC1015
  9
$ACADMAINTVER
 70
     6
  9
$DWGCODEPAGE
  3
ANSI_932
  9
$INSBASE
 10
0.0
 20
0.0
 30
0.0
  9
$EXTMIN
 10
0.0
 20
2.186602
 30
1.000000E+20
  9
$EXTMAX
 10
118.941922
 20
286.40009
 30
-1.000000E+20
  9
$LIMMIN
 10
0.0
 20
2.186602
  9
$LIMMAX
 10
118.941922
 20
286.40009
  9
$ORTHOMODE
 70
     0
  9
$REGENMODE
 70
     1
  9
$FILLMODE
 70
     1
  9
$QTEXTMODE
 70
     0
  9
$MIRRTEXT
 70
     1
  9
$LTSCALE
 40
1.0
  9
$ATTMODE
 70
     1
  9
$TEXTSIZE
 40
0.2
  9
$TRACEWID
 40
0.05
  9
$TEXTSTYLE
  7
Standard
  9
$CLAYER
  8
0
  9
$CELTYPE
  6
Continuous
  9
$CECOLOR
 62
   256
  9
$CELTSCALE
 40
1.0
  9
$DISPSILH
 70
     0
  9
$DIMSCALE
 40
1.0
  9
$DIMASZ
 40
0.18
  9
$DIMEXO
 40
0.0625
  9
$DIMDLI
 40
0.38
  9
$DIMRND
 40
0.0
  9
$DIMDLE
 40
0.0
  9
$DIMEXE
 40
0.18
  9
$DIMTP
 40
0.0
  9
$DIMTM
 40
0.0
  9
$DIMTXT
 40
0.18
  9
$DIMCEN
 40
0.09
  9
$DIMTSZ
 40
0.0
  9
$DIMTOL
 70
     0
  9
$DIMLIM
 70
     0
  9
$DIMTIH
 70
     1
  9
$DIMTOH
 70
     1
  9
$DIMSE1
 70
     0
  9
$DIMSE2
 70
     0
  9
$DIMTAD
 70
     0
  9
$DIMZIN
 70
     0
  9
$DIMBLK
  1

  9
$DIMASO
 70
     1
  9
$DIMSHO
 70
     1
  9
$DIMPOST
  1

  9
$DIMAPOST
  1

  9
$DIMALT
 70
     0
  9
$DIMALTD
 70
     2
  9
$DIMALTF
 40
25.4
  9
$DIMLFAC
 40
1.0
  9
$DIMTOFL
 70
     0
  9
$DIMTVP
 40
0.0
  9
$DIMTIX
 70
     0
  9
$DIMSOXD
 70
     0
  9
$DIMSAH
 70
     0
  9
$DIMBLK1
  1

  9
$DIMBLK2
  1

  9
$DIMSTYLE
  2
Standard
  9
$DIMCLRD
 70
     0
  9
$DIMCLRE
 70
     0
  9
$DIMCLRT
 70
     0
  9
$DIMTFAC
 40
1.0
  9
$DIMGAP
 40
0.09
  9
$DIMJUST
 70
     0
  9
$DIMSD1
 70
     0
  9
$DIMSD2
 70
     0
  9
$DIMTOLJ
 70
     1
  9
$DIMTZIN
 70
     0
  9
$DIMALTZ
 70
     0
  9
$DIMALTTZ
 70
     0
  9
$DIMUPT
 70
     0
  9
$DIMDEC
 70
     4
  9
$DIMTDEC
 70
     4
  9
$DIMALTU
 70
     2
  9
$DIMALTTD
 70
     2
  9
$DIMTXSTY
  7
Standard
  9
$DIMAUNIT
 70
     0
  9
$DIMADEC
 70
     0
  9
$DIMALTRND
 40
0.0
  9
$DIMAZIN
 70
     0
  9
$DIMDSEP
 70
     0
  9
$DIMATFIT
 70
     3
  9
$DIMFRAC
 70
     0
  9
$DIMLDRBLK
  1

  9
$DIMLUNIT
 70
     2
  9
$DIMLWD
 70
     0
  9
$DIMLWE
 70
     0
  9
$DIMTMOVE
 70
     0
  9
$LUNITS
 70
     2
  9
$LUPREC
 70
     4
  9
$SKETCHINC
 40
0.1
  9
$FILLETRAD
 40
0.0
  9
$AUNITS
 70
     0
  9
$AUPREC
 70
     0
  9
$MENU
  1
acad
  9
$ELEVATION
 40
0.0
  9
$PELEVATION
 40
0.0
  9
$THICKNESS
 40
0.0
  9
$LIMCHECK
 70
     0
  9
$CHAMFERA
 40
0.0
  9
$CHAMFERB
 40
0.0
  9
$CHAMFERC
 40
0.0
  9
$CHAMFERD
 40
0.0
  9
$SKPOLY
 70
     0
  9
$TDCREATE
 40
0.000000000
  9
$TDUCREATE
 40
0.000000000
  9
$TDUPDATE
 40
0.000000000
  9
$TDUUPDATE
 40
0.000000000
  9
$TDINDWG
 40
0.0000000000
  9
$TDUSRTIMER
 40
0.0000000000
  9
$USRTIMER
 70
     1
  9
$ANGBASE
 50
0.0
  9
$ANGDIR
 70
     0
  9
$PDMODE
 70
     0
  9
$PDSIZE
 40
0.0
  9
$PLINEWID
 40
0.0
  9
$SPLFRAME
 70
     0
  9
$SPLINETYPE
 70
     6
  9
$SPLINESEGS
 70
     8
  9
$HANDSEED
  5
1AF
  9
$SURFTAB1
 70
     6
  9
$SURFTAB2
 70
     6
  9
$SURFTYPE
 70
     6
  9
$SURFU
 70
     6
  9
$SURFV
 70
     6
  9
$UCSBASE
  2

  9
$UCSNAME
  2

  9
$UCSORG
 10
0.0
 20
0.0
 30
0.0
  9
$UCSXDIR
 10
1.0
 20
0.0
 30
0.0
  9
$UCSYDIR
 10
0.0
 20
1.0
 30
0.0
  9
$UCSORTHOREF
  2

  9
$UCSORTHOVIEW
 70
     0
  9
$UCSORGTOP
 10
0.0
 20
0.0
 30
0.0
  9
$UCSORGBOTTOM
 10
0.0
 20
0.0
 30
0.0
  9
$UCSORGLEFT
 10
0.0
 20
0.0
 30
0.0
  9
$UCSORGRIGHT
 10
0.0
 20
0.0
 30
0.0
  9
$UCSORGFRONT
 10
0.0
 20
0.0
 30
0.0
  9
$UCSORGBACK
 10
0.0
 20
0.0
 30
0.0
  9
$PUCSBASE
  2

  9
$PUCSNAME
  2

  9
$PUCSORG
 10
0.0
 20
0.0
 30
0.0
  9
$PUCSXDIR
 10
1.0
 20
0.0
 30
0.0
  9
$PUCSYDIR
 10
0.0
 20
1.0
 30
0.0
  9
$PUCSORTHOREF
  2

  9
$PUCSORTHOVIEW
 70
     0
  9
$PUCSORGTOP
 10
0.0
 20
0.0
 30
0.0
  9
$PUCSORGBOTTOM
 10
0.0
 20
0.0
 30
0.0
  9
$PUCSORGLEFT
 10
0.0
 20
0.0
 30
0.0
  9
$PUCSORGRIGHT
 10
0.0
 20
0.0
 30
0.0
  9
$PUCSORGFRONT
 10
0.0
 20
0.0
 30
0.0
  9
$PUCSORGBACK
 10
0.0
 20
0.0
 30
0.0
  9
$USERI1
 70
     0
  9
$USERI2
 70
     0
  9
$USERI3
 70
     0
  9
$USERI4
 70
     0
  9
$USERI5
 70
     0
  9
$USERR1
 40
0.0
  9
$USERR2
 40
0.0
  9
$USERR3
 40
0.0
  9
$USERR4
 40
0.0
  9
$USERR5
 40
0.0
  9
$WORLDVIEW
 70
     1
  9
$SHADEDGE
 70
     3
  9
$SHADEDIF
 70
    70
  9
$TILEMODE
 70
     1
  9
$MAXACTVP
 70
    16
  9
$PINSBASE
 10
0.0
 20
0.0
 30
0.0
  9
$PLIMCHECK
 70
     0
  9
$PEXTMIN
 10
1.000000E+20
 20
1.000000E+20
 30
1.000000E+20
  9
$PEXTMAX
 10
-1.000000E+20
 20
-1.000000E+20
 30
-1.000000E+20
  9
$PLIMMIN
 10
0.0
 20
0.0
  9
$PLIMMAX
 10
12.0
 20
9.0
  9
$UNITMODE
 70
     0
  9
$VISRETAIN
 70
     0
  9
$PLINEGEN
 70
     1
  9
$PSLTSCALE
 70
     0
  9
$TREEDEPTH
 70
  3020
  9
$CMLSTYLE
  2
Standard
  9
$CMLJUST
 70
     0
  9
$CMLSCALE
 40
1.0
  9
$PROXYGRAPHICS
 70
     0
  9
$MEASUREMENT
 70
     1
  9
$CELWEIGHT
370
     0
  9
$ENDCAPS
280
     0
  9
$JOINSTYLE
280
     0
  9
$LWDISPLAY
290
     0
  9
$INSUNITS
 70
     0
  9
$HYPERLINKBASE
  1

  9
$STYLESHEET
  1

  9
$XEDIT
290
     1
  9
$CEPSNTYPE
380
     0
  9
$PSTYLEMODE
290
     1
  9
$FINGERPRINTGUID
  2

  9
$VERSIONGUID
  2

  9
$EXTNAMES
290
     1
  9
$PSVPSCALE
 40
0.0
  0
ENDSEC
  0
SECTION
  2
CLASSES
  0
CLASS
  1
LWPOLYLINE
  2
AcDbPolyline
  3
AutoCAD 2000
 90
    32768
280
     0
281
     1
  0
CLASS
  1
IMAGE
  2
AcDbRasterImage
  3
ISM
 90
    32895
280
     0
281
     1
  0
CLASS
  1
OLE2FRAME
  2
AcDbOle2Frame
  3
AutoCAD 2000
 90
    32768
280
     0
281
     1
  0
CLASS
  1
HATCH
  2
AcDbHatch
  3
AutoCAD 2000
 90
    32768
280
     0
281
     1
  0
CLASS
  1
DICTIONARYVAR
  2
AcDbDictionaryVar
  3
AutoCAD 2000
 90
    32768
280
     0
281
     0
  0
CLASS
  1
RASTERVARIABLES
  2
AcDbRasterVariables
  3
ISM
 90
    32768
280
     0
281
     0
  0
CLASS
  1
IMAGEDEF
  2
AcDbRasterImageDef
  3
ISM
 90
    32768
280
     0
281
     0
  0
CLASS
  1
IMAGEDEF_REACTOR
  2
AcDbRasterImageDefReactor
  3
ISM
 90
    32769
280
     0
281
     0
  0
CLASS
  1
IDBUFFER
  2
AcDbIdBuffer
  3
AutoCAD 2000
 90
    32768
280
     0
281
     0
  0
CLASS
  1
SPATIAL_FILTER
  2
AcDbSpatialFilter
  3
AutoCAD 2000
 90
    32768
280
     0
281
     0
  0
CLASS
  1
XRECORD
  2
AcDbXrecord
  3
AutoCAD 2000
 90
    32768
280
     0
281
     0
  0
CLASS
  1
SORTENTSTABLE
  2
AcDbSortentsTable
  3
AutoCAD 2000
 90
    32768
280
     0
281
     0
  0
CLASS
  1
LAYER_INDEX
  2
AcDbLayerIndex
  3
AutoCAD 2000
 90
    32768
280
     0
281
     0
  0
CLASS
  1
SPATIAL_INDEX
  2
AcDbSpatialIndex
  3
AutoCAD 2000
 90
    32768
280
     0
281
     0
  0
CLASS
  1
OBJECT_PTR
  2
CAseDLPNTableRecord
  3
"ASE-LPNTableRecord"
 90
    32769
280
     0
281
     0
  0
CLASS
  1
LAYOUT
  2
AcDbLayout
  3
AutoCAD 2000
 90
        0
280
     0
281
     0
  0
CLASS
  1
PLOTSETTINGS
  2
AcDbPlotSettings
  3
AutoCAD 2000
 90
    32768
280
     0
281
     0
  0
CLASS
  1
ACDBDICTIONARYWDFLT
  2
AcDbDictionaryWithDefault
  3
AutoCAD 2000
 90
        0
280
     0
281
     0
  0
CLASS
  1
ACDBPLACEHOLDER
  2
AcDbPlaceHolder
  3
AutoCAD 2000
 90
        0
280
     0
281
     0
  0
CLASS
  1
VBA_PROJECT
  2
AcDbVbaProject
  3
acadvba
 90
    32768
280
     0
281
     0
  0
CLASS
  1
WIPEOUT
  2
AcDbWipeout
  3
WipeOut|AutoCAD Express Tool|expresstools@autodesk.com
 90
    32895
280
     0
281
     1
  0
CLASS
  1
WIPEOUTVARIABLES
  2
AcDbWipeoutVariables
  3
WipeOut|AutoCAD Express Tool|expresstools@autodesk.com
 90
        0
280
     0
281
     0
  0
CLASS
  1
RTEXT
  2
RText
  3
RText|AutoCAD Express Tool|expresstools@autodesk.com
 90
    32768
280
     0
281
     1
  0
CLASS
  1
ARCALIGNEDTEXT
  2
AcDbArcAlignedText
  3
ATEXT|AutoCAD Express Tool|expresstools@autodesk.com
 90
    32768
280
     0
281
     1
  0
ENDSEC
  0
SECTION
  2
TABLES
  0
TABLE
  2
VPORT
  5
7
100
AcDbSymbolTable
 70
     1
  0
VPORT
  5
15
100
AcDbSymbolTableRecord
100
AcDbViewportTableRecord
  2
*ACTIVE
 70
     0
 10
0.0
 20
0.0
 11
1.0
 21
1.0
 12
6.591288
 22
4.579184
 13
0.0
 23
0.0
 14
1.0
 24
1.0
 15
0.0
 25
0.0
 16
0.0
 26
0.0
 36
1.0
 17
0.0
 27
0.0
 37
0.0
 40
9.158369
 41
0.688564
 42
50.0
 43
0.0
 44
0.0
 50
0.0
 51
0.0
 71
     0
 72
   100
 73
     1
 74
     1
 75
     0
 76
     0
 77
     0
 78
     0
281
     0
 65
     0
110
0.0
120
0.0
130
0.0
111
1.0
121
0.0
131
0.0
112
0.0
122
1.0
132
0.0
345
0
346
0
 79
     0
146
0.0
  0
ENDTAB
  0
TABLE
  2
LTYPE
  5
4
100
AcDbSymbolTable
 70
     3
  0
LTYPE
  5
11
100
AcDbSymbolTableRecord
100
AcDbLinetypeTableRecord
  2
ByBlock
 70
    64
  3

 72
    65
 73
     0
 40
0.0
  0
LTYPE
  5
12
100
AcDbSymbolTableRecord
100
AcDbLinetypeTableRecord
  2
ByLayer
 70
    64
  3

 72
    65
 73
     0
 40
0.0
  0
LTYPE
  5
13
100
AcDbSymbolTableRecord
100
AcDbLinetypeTableRecord
  2
Continuous
 70
    64
  3
Solid line
 72
    65
 73
     0
 40
0.0
  0
ENDTAB
  0
TABLE
  2
LAYER
  5
2
100
AcDbSymbolTable
 70
     2
  0
LAYER
  5
14
100
AcDbSymbolTableRecord
100
AcDbLayerTableRecord
  2
0
 70
     0
 62
     7
  6
Continuous
290
     1
370
    -3
390
1D
  0
LAYER
  5
28
100
AcDbSymbolTableRecord
100
AcDbLayerTableRecord
  2
LIVELLO_1
 70
     0
 62
   160
  6
Continuous
290
     1
370
    -3
390
1D
  0
ENDTAB
  0
TABLE
  2
STYLE
  5
3
100
AcDbSymbolTable
 70
     5
  0
STYLE
  5
17
100
AcDbSymbolTableRecord
100
AcDbTextStyleTableRecord
  2
Standard
 70
     0
 40
0.0
 41
1.0
 50
0.0
 71
     0
 42
0.0
  3
txt
  4

  0
STYLE
  5
24
100
AcDbSymbolTableRecord
100
AcDbTextStyleTableRecord
  2
STD
 70
     0
 40
0.0
 41
1.0
 50
0.0
 71
     0
 42
0.0
  3
txt
  4

  0
STYLE
  5
25
100
AcDbSymbolTableRecord
100
AcDbTextStyleTableRecord
  2
TATESTD
 70
     4
 40
0.0
 41
1.0
 50
0.0
 71
     0
 42
0.0
  3
txt
  4

  0
STYLE
  5
26
100
AcDbSymbolTableRecord
100
AcDbTextStyleTableRecord
  2
KANJISTD
 70
     0
 40
0.0
 41
1.0
 50
0.0
 71
     0
 42
0.0
  3
txt
  4
extfont
  0
STYLE
  5
27
100
AcDbSymbolTableRecord
100
AcDbTextStyleTableRecord
  2
KANJITATE
 70
     4
 40
0.0
 41
1.0
 50
0.0
 71
     0
 42
0.0
  3
txt
  4
extfont
  0
ENDTAB
  0
TABLE
  2
VIEW
  5
5
100
AcDbSymbolTable
 70
     0
  0
ENDTAB
  0
TABLE
  2
UCS
  5
6
100
AcDbSymbolTable
 70
     0
  0
ENDTAB
  0
TABLE
  2
APPID
  5
8
100
AcDbSymbolTable
 70
     1
  0
APPID
  5
16
100
AcDbSymbolTableRecord
100
AcDbRegAppTableRecord
  2
ACAD
 70
     0
  0
ENDTAB
  0
TABLE
  2
DIMSTYLE
  5
9
100
AcDbSymbolTable
 70
     1
100
AcDbDimStyleTable
 71
     0
  0
DIMSTYLE
105
18
100
AcDbSymbolTableRecord
100
AcDbDimStyleTableRecord
  2
Standard
 70
     0
  3

  4

 40
1.0
 41
0.18
 42
0.0625
 43
0.38
 44
0.18
 45
0.0
 46
0.0
 47
0.0
 48
0.0
 71
     0
 72
     0
 73
     1
 74
     1
 75
     0
 76
     0
 77
     0
 78
     0
 79
     0
140
0.18
141
0.09
142
0.0
143
25.4
144
1.0
145
0.0
146
1.0
147
0.09
148
0.0
170
     0
171
     2
172
     0
173
     0
174
     0
175
     0
176
     0
177
     0
178
     0
179
     0
271
     4
272
     4
273
     2
274
     2
275
     0
276
     0
277
     2
278
    46
279
     0
280
     0
281
     0
282
     0
283
     1
284
     0
285
     0
286
     0
288
     0
340
17
341
0
342
0
343
0
344
0
371
    -2
372
    -2
  0
ENDTAB
  0
TABLE
  2
BLOCK_RECORD
  5
1
100
AcDbSymbolTable
 70
     1
  0
BLOCK_RECORD
  5
A
100
AcDbSymbolTableRecord
100
AcDbBlockTableRecord
  2
*MODEL_SPACE
340
20
  0
BLOCK_RECORD
  5
B
100
AcDbSymbolTableRecord
100
AcDbBlockTableRecord
  2
*PAPER_SPACE
340
21
  0
BLOCK_RECORD
  5
29
100
AcDbSymbolTableRecord
100
AcDbBlockTableRecord
  2
AI9-BLK1
340
0
102
{BLKREFS
331
2A
102
}
  0
ENDTAB
  0
ENDSEC
  0
SECTION
  2
BLOCKS
  0
BLOCK
  5
D
100
AcDbEntity
  8
0
100
AcDbBlockBegin
  2
*MODEL_SPACE
 70
     0
 10
0.0
 20
0.0
 30
0.0
  3
*MODEL_SPACE
  1

  0
ENDBLK
  5
E
100
AcDbEntity
  8
0
100
AcDbBlockEnd
  0
BLOCK
  5
F
100
AcDbEntity
 67
     1
  8
0
100
AcDbBlockBegin
  2
*PAPER_SPACE
 70
     0
 10
0.0
 20
0.0
 30
0.0
  3
*PAPER_SPACE
  1

  0
ENDBLK
  5
10
100
AcDbEntity
 67
     1
  8
0
100
AcDbBlockEnd
  0
BLOCK
  5
2B
100
AcDbEntity
  8
LIVELLO_1
 62
     7
100
AcDbBlockBegin
  2
AI9-BLK1
 70
     0
 10
0.0
 20
0.0
 30
0.0
  3
AI9-BLK1
  1

  0
LINE
  5
1AD
100
AcDbEntity
  8
LIVELLO_1
 62
     7
100
AcDbLine
 10
-59.124901
 20
110.184833
 30
0.0
 11
-59.124901
 21
26.570299
 31
0.0
  0
LINE
  5
1AC
100
AcDbEntity
  8
LIVELLO_1
 62
     7
100
AcDbLine
 10
-59.124901
 20
110.184833
 30
0.0
 11
-58.538029
 21
110.154172
 31
0.0
  0
LINE
  5
1AB
100
AcDbEntity
  8
LIVELLO_1
 62
     7
100
AcDbLine
 10
-59.124901
 20
26.570299
 30
0.0
 11
-58.538029
 21
26.601133
 31
0.0
  0
LINE
  5
1AA
100
AcDbEntity
  8
LIVELLO_1
 62
     7
100
AcDbLine
 10
19.394337
 20
141.778771
 30
0.0
 11
-28.064265
 21
141.778771
 31
0.0
  0
LINE
  5
1A9
100
AcDbEntity
  8
LIVELLO_1
 62
     7
100
AcDbLine
 10
20.547755
 20
130.696415
 30
0.0
 11
-29.218888
 21
130.696415
 31
0.0
  0
LINE
  5
1A8
100
AcDbEntity
  8
LIVELLO_1
 62
     7
100
AcDbLine
 10
20.861603
 20
129.294434
 30
0.0
 11
-29.531531
 21
129.294434
 31
0.0
  0
LINE
  5
1A7
100
AcDbEntity
  8
LIVELLO_1
 62
     7
100
AcDbLine
 10
-29.531531
 20
7.463283
 30
0.0
 11
20.861603
 21
7.463283
 31
0.0
  0
LINE
  5
1A6
100
AcDbEntity
  8
LIVELLO_1
 62
     7
100
AcDbLine
 10
-29.218888
 20
6.058889
 30
0.0
 11
20.547755
 21
6.058889
 31
0.0
  0
LINE
  5
1A5
100
AcDbEntity
  8
LIVELLO_1
 62
     7
100
AcDbLine
 10
-28.064265
 20
-5.023294
 30
0.0
 11
19.394337
 21
-5.023294
 31
0.0
  0
LINE
  5
1A4
100
AcDbEntity
  8
LIVELLO_1
 62
     7
100
AcDbLine
 10
-52.385605
 20
76.907278
 30
0.0
 11
-52.385605
 21
90.711431
 31
0.0
  0
LINE
  5
1A3
100
AcDbEntity
  8
LIVELLO_1
 62
     7
100
AcDbLine
 10
-52.385605
 20
75.512876
 30
0.0
 11
-53.314747
 21
75.55904
 31
0.0
  0
LINE
  5
1A2
100
AcDbEntity
  8
LIVELLO_1
 62
     7
100
AcDbLine
 10
-52.385605
 20
76.95327
 30
0.0
 11
-53.314747
 21
76.907278
 31
0.0
  0
LINE
  5
1A1
100
AcDbEntity
  8
LIVELLO_1
 62
     7
100
AcDbLine
 10
-53.314747
 20
75.55904
 30
0.0
 11
-53.314747
 21
76.907278
 31
0.0
  0
LINE
  5
1A0
100
AcDbEntity
  8
LIVELLO_1
 62
     7
100
AcDbLine
 10
-34.806144
 20
75.512876
 30
0.0
 11
-52.385605
 21
75.512876
 31
0.0
  0
LINE
  5
19F
100
AcDbEntity
  8
LIVELLO_1
 62
     7
100
AcDbLine
 10
-35.441764
 20
75.841021
 30
0.0
 11
-35.441764
 21
76.627881
 31
0.0
  0
LINE
  5
19E
100
AcDbEntity
  8
LIVELLO_1
 62
     7
100
AcDbLine
 10
-34.806144
 20
76.95327
 30
0.0
 11
-52.385605
 21
76.95327
 31
0.0
  0
SPLINE
  5
19D
100
AcDbEntity
  8
LIVELLO_1
 62
     7
100
AcDbSpline
210
0.0
220
0.0
230
1.0
 70
     8
 71
     3
 72
    11
 73
     7
 74
     0
 42
0.00000001
 43
0.00000001
 40
0.0
 40
0.0
 40
0.0
 40
0.0
 40
1.0
 40
1.0
 40
1.0
 40
2.0
 40
2.0
 40
2.0
 40
2.0
 10
-53.314747450086799
 20
75.559039984809019
 30
0.0
 10
-53.314747450086799
 20
75.559039984809019
 30
0.0
 10
-35.735286458333327
 20
75.559039984809019
 30
0.0
 10
-35.735286458333327
 20
75.559039984809019
 30
0.0
 10
-35.573711480034717
 20
75.559039984809019
 30
0.0
 10
-35.441764322916661
 20
75.687197536892356
 30
0.0
 10
-35.441764322916661
 20
75.841021050347209
 30
0.0
  0
SPLINE
  5
19C
100
AcDbEntity
  8
LIVELLO_1
 62
     7
100
AcDbSpline
210
0.0
220
0.0
230
1.0
 70
     8
 71
     3
 72
     8
 73
     4
 74
     0
 42
0.00000001
 43
0.00000001
 40
0.0
 40
0.0
 40
0.0
 40
0.0
 40
1.0
 40
1.0
 40
1.0
 40
1.0
 10
-35.441764322916661
 20
76.627880859374997
 30
0.0
 10
-35.441764322916661
 20
76.781532118055551
 30
0.0
 10
-35.573711480034717
 20
76.907278103298609
 30
0.0
 10
-35.735286458333327
 20
76.907278103298609
 30
0.0
  0
LINE
  5
19B
100
AcDbEntity
  8
LIVELLO_1
 62
     7
100
AcDbLine
 10
-53.314747
 20
76.907278
 30
0.0
 11
-35.735286
 21
76.907278
 31
0.0
  0
SPLINE
  5
19A
100
AcDbEntity
  8
LIVELLO_1
 62
     7
100
AcDbSpline
210
0.0
220
0.0
230
1.0
 70
     8
 71
     3
 72
     8
 73
     4
 74
     0
 42
0.00000001
 43
0.00000001
 40
0.0
 40
0.0
 40
0.0
 40
0.0
 40
1.0
 40
1.0
 40
1.0
 40
1.0
 10
-34.512622070312496
 20
76.674045138888886
 30
0.0
 10
-34.512622070312496
 20
76.830280219184019
 30
0.0
 10
-34.643363444010411
 20
76.953270128038184
 30
0.0
 10
-34.806144205729161
 20
76.953270128038184
 30
0.0
  0
SPLINE
  5
199
100
AcDbEntity
  8
LIVELLO_1
 62
     7
100
AcDbSpline
210
0.0
220
0.0
230
1.0
 70
     8
 71
     3
 72
     8
 73
     4
 74
     0
 42
0.00000001
 43
0.00000001
 40
0.0
 40
0.0
 40
0.0
 40
0.0
 40
1.0
 40
1.0
 40
1.0
 40
1.0
 10
-34.806144205729161
 20
75.51287570529513
 30
0.0
 10
-34.643363444010411
 20
75.51287570529513
 30
0.0
 10
-34.512622070312496
 20
75.641033257378467
 30
0.0
 10
-34.512622070312496
 20
75.79485677083332
 30
0.0
  0
LINE
  5
198
100
AcDbEntity
  8
LIVELLO_1
 62
     7
100
AcDbLine
 10
-34.512622
 20
75.794857
 30
0.0
 11
-34.512622
 21
76.674045
 31
0.0
  0
LINE
  5
197
100
AcDbEntity
  8
LIVELLO_1
 62
     7
100
AcDbLine
 10
-52.385605
 20
90.665267
 30
0.0
 11
-53.314747
 21
90.711431
 31
0.0
  0
LINE
  5
196
100
AcDbEntity
  8
LIVELLO_1
 62
     7
100
AcDbLine
 10
-52.385605
 20
92.105661
 30
0.0
 11
-53.314747
 21
92.059497
 31
0.0
  0
LINE
  5
195
100
AcDbEntity
  8
LIVELLO_1
 62
     7
100
AcDbLine
 10
-53.314747
 20
90.711431
 30
0.0
 11
-53.314747
 21
92.059497
 31
0.0
  0
LINE
  5
194
100
AcDbEntity
  8
LIVELLO_1
 62
     7
100
AcDbLine
 10
-34.806144
 20
90.665267
 30
0.0
 11
-52.385605
 21
90.665267
 31
0.0
  0
LINE
  5
193
100
AcDbEntity
  8
LIVELLO_1
 62
     7
100
AcDbLine
 10
-35.441764
 20
90.99324
 30
0.0
 11
-35.441764
 21
91.7801
 31
0.0
  0
LINE
  5
192
100
AcDbEntity
  8
LIVELLO_1
 62
     7
100
AcDbLine
 10
-34.806144
 20
92.105661
 30
0.0
 11
-52.385605
 21
92.105661
 31
0.0
  0
SPLINE
  5
191
100
AcDbEntity
  8
LIVELLO_1
 62
     7
100
AcDbSpline
210
0.0
220
0.0
230
1.0
 70
     8
 71
     3
 72
    11
 73
     7
 74
     0
 42
0.00000001
 43
0.00000001
 40
0.0
 40
0.0
 40
0.0
 40
0.0
 40
1.0
 40
1.0
 40
1.0
 40
2.0
 40
2.0
 40
2.0
 40
2.0
 10
-53.314747450086799
 20
90.711431206597211
 30
0.0
 10
-53.314747450086799
 20
90.711431206597211
 30
0.0
 10
-35.735286458333327
 20
90.711431206597211
 30
0.0
 10
-35.735286458333327
 20
90.711431206597211
 30
0.0
 10
-35.573711480034717
 20
90.711431206597211
 30
0.0
 10
-35.441764322916661
 20
90.839588758680549
 30
0.0
 10
-35.441764322916661
 20
90.993240017361103
 30
0.0
  0
SPLINE
  5
190
100
AcDbEntity
  8
LIVELLO_1
 62
     7
100
AcDbSpline
210
0.0
220
0.0
230
1.0
 70
     8
 71
     3
 72
     8
 73
     4
 74
     0
 42
0.00000001
 43
0.00000001
 40
0.0
 40
0.0
 40
0.0
 40
0.0
 40
1.0
 40
1.0
 40
1.0
 40
1.0
 10
-35.441764322916661
 20
91.780099826388877
 30
0.0
 10
-35.441764322916661
 20
91.933923339843744
 30
0.0
 10
-35.573711480034717
 20
92.059497070312489
 30
0.0
 10
-35.735286458333327
 20
92.059497070312489
 30
0.0
  0
LINE
  5
18F
100
AcDbEntity
  8
LIVELLO_1
 62
     7
100
AcDbLine
 10
-53.314747
 20
92.059497
 30
0.0
 11
-35.735286
 21
92.059497
 31
0.0
  0
SPLINE
  5
18E
100
AcDbEntity
  8
LIVELLO_1
 62
     7
100
AcDbSpline
210
0.0
220
0.0
230
1.0
 70
     8
 71
     3
 72
     8
 73
     4
 74
     0
 42
0.00000001
 43
0.00000001
 40
0.0
 40
0.0
 40
0.0
 40
0.0
 40
1.0
 40
1.0
 40
1.0
 40
1.0
 10
-34.512622070312496
 20
91.826264105902766
 30
0.0
 10
-34.512622070312496
 20
91.980087619357633
 30
0.0
 10
-34.643363444010411
 20
92.105661349826377
 30
0.0
 10
-34.806144205729161
 20
92.105661349826377
 30
0.0
  0
SPLINE
  5
18D
100
AcDbEntity
  8
LIVELLO_1
 62
     7
100
AcDbSpline
210
0.0
220
0.0
230
1.0
 70
     8
 71
     3
 72
     8
 73
     4
 74
     0
 42
0.00000001
 43
0.00000001
 40
0.0
 40
0.0
 40
0.0
 40
0.0
 40
1.0
 40
1.0
 40
1.0
 40
1.0
 10
-34.806144205729161
 20
90.665266927083323
 30
0.0
 10
-34.643363444010411
 20
90.665266927083323
 30
0.0
 10
-34.512622070312496
 20
90.79342447916666
 30
0.0
 10
-34.512622070312496
 20
90.947247992621513
 30
0.0
  0
LINE
  5
18C
100
AcDbEntity
  8
LIVELLO_1
 62
     7
100
AcDbLine
 10
-34.512622
 20
90.947248
 30
0.0
 11
-34.512622
 21
91.826264
 31
0.0
  0
LINE
  5
18B
100
AcDbEntity
  8
LIVELLO_1
 62
     7
100
AcDbLine
 10
-52.385605
 20
61.242257
 30
0.0
 11
-53.314747
 21
61.196092
 31
0.0
  0
LINE
  5
18A
100
AcDbEntity
  8
LIVELLO_1
 62
     7
100
AcDbLine
 10
-52.385605
 20
59.801862
 30
0.0
 11
-53.314747
 21
59.848027
 31
0.0
  0
LINE
  5
189
100
AcDbEntity
  8
LIVELLO_1
 62
     7
100
AcDbLine
 10
-53.314747
 20
61.196092
 30
0.0
 11
-53.314747
 21
59.848027
 31
0.0
  0
LINE
  5
188
100
AcDbEntity
  8
LIVELLO_1
 62
     7
100
AcDbLine
 10
-34.806144
 20
61.242257
 30
0.0
 11
-52.385605
 21
61.242257
 31
0.0
  0
LINE
  5
187
100
AcDbEntity
  8
LIVELLO_1
 62
     7
100
AcDbLine
 10
-35.441764
 20
60.914284
 30
0.0
 11
-35.441764
 21
60.127424
 31
0.0
  0
LINE
  5
186
100
AcDbEntity
  8
LIVELLO_1
 62
     7
100
AcDbLine
 10
-34.806144
 20
59.801862
 30
0.0
 11
-52.385605
 21
59.801862
 31
0.0
  0
SPLINE
  5
185
100
AcDbEntity
  8
LIVELLO_1
 62
     7
100
AcDbSpline
210
0.0
220
0.0
230
1.0
 70
     8
 71
     3
 72
     8
 73
     4
 74
     0
 42
0.00000001
 43
0.00000001
 40
0.0
 40
0.0
 40
0.0
 40
0.0
 40
1.0
 40
1.0
 40
1.0
 40
1.0
 10
-35.441764322916661
 20
60.914283582899301
 30
0.0
 10
-35.441764322916661
 20
61.070518663194441
 30
0.0
 10
-35.573711480034717
 20
61.196092393663186
 30
0.0
 10
-35.735286458333327
 20
61.196092393663186
 30
0.0
  0
LINE
  5
184
100
AcDbEntity
  8
LIVELLO_1
 62
     7
100
AcDbLine
 10
-53.314747
 20
61.196092
 30
0.0
 11
-35.735286
 21
61.196092
 31
0.0
  0
SPLINE
  5
183
100
AcDbEntity
  8
LIVELLO_1
 62
     7
100
AcDbSpline
210
0.0
220
0.0
230
1.0
 70
     8
 71
     3
 72
    11
 73
     7
 74
     0
 42
0.00000001
 43
0.00000001
 40
0.0
 40
0.0
 40
0.0
 40
0.0
 40
1.0
 40
1.0
 40
1.0
 40
2.0
 40
2.0
 40
2.0
 40
2.0
 10
-53.314747450086799
 20
59.848026529947909
 30
0.0
 10
-53.314747450086799
 20
59.848026529947909
 30
0.0
 10
-35.735286458333327
 20
59.848026529947909
 30
0.0
 10
-35.735286458333327
 20
59.848026529947909
 30
0.0
 10
-35.573711480034717
 20
59.848026529947909
 30
0.0
 10
-35.441764322916661
 20
59.97360026041666
 30
0.0
 10
-35.441764322916661
 20
60.12742377387152
 30
0.0
  0
SPLINE
  5
182
100
AcDbEntity
  8
LIVELLO_1
 62
     7
100
AcDbSpline
210
0.0
220
0.0
230
1.0
 70
     8
 71
     3
 72
     8
 73
     4
 74
     0
 42
0.00000001
 43
0.00000001
 40
0.0
 40
0.0
 40
0.0
 40
0.0
 40
1.0
 40
1.0
 40
1.0
 40
1.0
 10
-34.806144205729161
 20
59.80186225043402
 30
0.0
 10
-34.643363444010411
 20
59.80186225043402
 30
0.0
 10
-34.512622070312496
 20
59.924852159288186
 30
0.0
 10
-34.512622070312496
 20
60.081259494357631
 30
0.0
  0
SPLINE
  5
181
100
AcDbEntity
  8
LIVELLO_1
 62
     7
100
AcDbSpline
210
0.0
220
0.0
230
1.0
 70
     8
 71
     3
 72
     8
 73
     4
 74
     0
 42
0.00000001
 43
0.00000001
 40
0.0
 40
0.0
 40
0.0
 40
0.0
 40
1.0
 40
1.0
 40
1.0
 40
1.0
 10
-34.512622070312496
 20
60.960275607638884
 30
0.0
 10
-34.512622070312496
 20
61.11668294270833
 30
0.0
 10
-34.643363444010411
 20
61.242256673177074
 30
0.0
 10
-34.806144205729161
 20
61.242256673177074
 30
0.0
  0
LINE
  5
180
100
AcDbEntity
  8
LIVELLO_1
 62
     7
100
AcDbLine
 10
-34.512622
 20
60.960276
 30
0.0
 11
-34.512622
 21
60.081259
 31
0.0
  0
LINE
  5
17F
100
AcDbEntity
  8
LIVELLO_1
 62
     7
100
AcDbLine
 10
-52.385605
 20
46.090038
 30
0.0
 11
-53.314747
 21
46.043873
 31
0.0
  0
LINE
  5
17E
100
AcDbEntity
  8
LIVELLO_1
 62
     7
100
AcDbLine
 10
-52.385605
 20
44.649643
 30
0.0
 11
-53.314747
 21
44.698219
 31
0.0
  0
LINE
  5
17D
100
AcDbEntity
  8
LIVELLO_1
 62
     7
100
AcDbLine
 10
-53.314747
 20
46.043873
 30
0.0
 11
-53.314747
 21
44.698219
 31
0.0
  0
LINE
  5
17C
100
AcDbEntity
  8
LIVELLO_1
 62
     7
100
AcDbLine
 10
-34.806144
 20
46.090038
 30
0.0
 11
-52.385605
 21
46.090038
 31
0.0
  0
LINE
  5
17B
100
AcDbEntity
  8
LIVELLO_1
 62
     7
100
AcDbLine
 10
-35.441764
 20
45.761892
 30
0.0
 11
-35.441764
 21
44.975033
 31
0.0
  0
LINE
  5
17A
100
AcDbEntity
  8
LIVELLO_1
 62
     7
100
AcDbLine
 10
-34.806144
 20
44.649643
 30
0.0
 11
-52.385605
 21
44.649643
 31
0.0
  0
SPLINE
  5
179
100
AcDbEntity
  8
LIVELLO_1
 62
     7
100
AcDbSpline
210
0.0
220
0.0
230
1.0
 70
     8
 71
     3
 72
     8
 73
     4
 74
     0
 42
0.00000001
 43
0.00000001
 40
0.0
 40
0.0
 40
0.0
 40
0.0
 40
1.0
 40
1.0
 40
1.0
 40
1.0
 10
-35.441764322916661
 20
45.761892361111109
 30
0.0
 10
-35.441764322916661
 20
45.918299696180554
 30
0.0
 10
-35.573711480034717
 20
46.043873426649299
 30
0.0
 10
-35.735286458333327
 20
46.043873426649299
 30
0.0
  0
LINE
  5
178
100
AcDbEntity
  8
LIVELLO_1
 62
     7
100
AcDbLine
 10
-53.314747
 20
46.043873
 30
0.0
 11
-35.735286
 21
46.043873
 31
0.0
  0
SPLINE
  5
177
100
AcDbEntity
  8
LIVELLO_1
 62
     7
100
AcDbSpline
210
0.0
220
0.0
230
1.0
 70
     8
 71
     3
 72
    11
 73
     7
 74
     0
 42
0.00000001
 43
0.00000001
 40
0.0
 40
0.0
 40
0.0
 40
0.0
 40
1.0
 40
1.0
 40
1.0
 40
2.0
 40
2.0
 40
2.0
 40
2.0
 10
-53.314747450086799
 20
44.698219129774301
 30
0.0
 10
-53.314747450086799
 20
44.698219129774301
 30
0.0
 10
-35.735286458333327
 20
44.698219129774301
 30
0.0
 10
-35.735286458333327
 20
44.698219129774301
 30
0.0
 10
-35.573711480034717
 20
44.698219129774301
 30
0.0
 10
-35.441764322916661
 20
44.821381293402773
 30
0.0
 10
-35.441764322916661
 20
44.975032552083327
 30
0.0
  0
SPLINE
  5
176
100
AcDbEntity
  8
LIVELLO_1
 62
     7
100
AcDbSpline
210
0.0
220
0.0
230
1.0
 70
     8
 71
     3
 72
     8
 73
     4
 74
     0
 42
0.00000001
 43
0.00000001
 40
0.0
 40
0.0
 40
0.0
 40
0.0
 40
1.0
 40
1.0
 40
1.0
 40
1.0
 10
-34.806144205729161
 20
44.649643283420133
 30
0.0
 10
-34.643363444010411
 20
44.649643283420133
 30
0.0
 10
-34.512622070312496
 20
44.775217013888884
 30
0.0
 10
-34.512622070312496
 20
44.931452094184024
 30
0.0
  0
SPLINE
  5
175
100
AcDbEntity
  8
LIVELLO_1
 62
     7
100
AcDbSpline
210
0.0
220
0.0
230
1.0
 70
     8
 71
     3
 72
     8
 73
     4
 74
     0
 42
0.00000001
 43
0.00000001
 40
0.0
 40
0.0
 40
0.0
 40
0.0
 40
1.0
 40
1.0
 40
1.0
 40
1.0
 10
-34.512622070312496
 20
45.808056640624997
 30
0.0
 10
-34.512622070312496
 20
45.964463975694443
 30
0.0
 10
-34.643363444010411
 20
46.090037706163187
 30
0.0
 10
-34.806144205729161
 20
46.090037706163187
 30
0.0
  0
LINE
  5
174
100
AcDbEntity
  8
LIVELLO_1
 62
     7
100
AcDbLine
 10
-34.512622
 20
45.808057
 30
0.0
 11
-34.512622
 21
44.931452
 31
0.0
  0
LINE
  5
173
100
AcDbEntity
  8
LIVELLO_1
 62
     7
100
AcDbLine
 10
-53.314747
 20
111.046107
 30
0.0
 11
-35.441764
 21
110.149004
 31
0.0
  0
LINE
  5
172
100
AcDbEntity
  8
LIVELLO_1
 62
     7
100
AcDbLine
 10
-35.441764
 20
110.149004
 30
0.0
 11
-34.512622
 21
109.257069
 31
0.0
  0
LINE
  5
171
100
AcDbEntity
  8
LIVELLO_1
 62
     7
100
AcDbLine
 10
-28.918993
 20
100.883765
 30
0.0
 11
-28.918993
 21
35.873952
 31
0.0
  0
LINE
  5
170
100
AcDbEntity
  8
LIVELLO_1
 62
     7
100
AcDbLine
 10
-29.435413
 20
100.927345
 30
0.0
 11
-29.435413
 21
35.827787
 31
0.0
  0
LINE
  5
16F
100
AcDbEntity
  8
LIVELLO_1
 62
     7
100
AcDbLine
 10
-30.286351
 20
103.969709
 30
0.0
 11
-30.286351
 21
32.742015
 31
0.0
  0
LINE
  5
16E
100
AcDbEntity
  8
LIVELLO_1
 62
     7
100
AcDbLine
 10
-30.804149
 20
32.742015
 30
0.0
 11
-30.804149
 21
104.013289
 31
0.0
  0
SPLINE
  5
16D
100
AcDbEntity
  8
LIVELLO_1
 62
     7
100
AcDbSpline
210
0.0
220
0.0
230
1.0
 70
     8
 71
     3
 72
     8
 73
     4
 74
     0
 42
0.00000001
 43
0.00000001
 40
0.0
 40
0.0
 40
0.0
 40
0.0
 40
1.0
 40
1.0
 40
1.0
 40
1.0
 10
-31.653709581163191
 20
64.07946506076388
 30
0.0
 10
-31.653709581163191
 20
64.986730957031241
 30
0.0
 10
-32.404568142361107
 20
65.73001030815972
 30
0.0
 10
-33.350419108072913
 20
65.760843912760407
 30
0.0
  0
SPLINE
  5
16C
100
AcDbEntity
  8
LIVELLO_1
 62
     7
100
AcDbSpline
210
0.0
220
0.0
230
1.0
 70
     8
 71
     3
 72
     8
 73
     4
 74
     0
 42
0.00000001
 43
0.00000001
 40
0.0
 40
0.0
 40
0.0
 40
0.0
 40
1.0
 40
1.0
 40
1.0
 40
1.0
 10
-33.350419108072913
 20
70.994460720486103
 30
0.0
 10
-32.404568142361107
 20
71.025122070312491
 30
0.0
 10
-31.653709581163191
 20
71.76840142144097
 30
0.0
 10
-31.653709581163191
 20
72.67825113932291
 30
0.0
  0
LINE
  5
16B
100
AcDbEntity
  8
LIVELLO_1
 62
     7
100
AcDbLine
 10
-31.65371
 20
65.704517
 30
0.0
 11
-31.65371
 21
29.704819
 31
0.0
  0
LINE
  5
16A
100
AcDbEntity
  8
LIVELLO_1
 62
     7
100
AcDbLine
 10
-31.65371
 20
107.050313
 30
0.0
 11
-31.65371
 21
71.050788
 31
0.0
  0
LINE
  5
169
100
AcDbEntity
  8
LIVELLO_1
 62
     7
100
AcDbLine
 10
-32.168924
 20
72.660337
 30
0.0
 11
-32.168924
 21
107.093894
 31
0.0
  0
LINE
  5
168
100
AcDbEntity
  8
LIVELLO_1
 62
     7
100
AcDbLine
 10
-32.168924
 20
29.661239
 30
0.0
 11
-32.168924
 21
64.094968
 31
0.0
  0
LINE
  5
167
100
AcDbEntity
  8
LIVELLO_1
 62
     7
100
AcDbLine
 10
-53.624806
 20
65.737762
 30
0.0
 11
-53.624806
 21
25.709197
 31
0.0
  0
LINE
  5
166
100
AcDbEntity
  8
LIVELLO_1
 62
     7
100
AcDbLine
 10
-53.624806
 20
111.340835
 30
0.0
 11
-53.624806
 21
71.017543
 31
0.0
  0
LINE
  5
165
100
AcDbEntity
  8
LIVELLO_1
 62
     7
100
AcDbLine
 10
-52.385605
 20
44.698219
 30
0.0
 11
-52.385605
 21
26.601133
 31
0.0
  0
LINE
  5
164
100
AcDbEntity
  8
LIVELLO_1
 62
     7
100
AcDbLine
 10
-52.385605
 20
59.848027
 30
0.0
 11
-52.385605
 21
46.043873
 31
0.0
  0
LINE
  5
163
100
AcDbEntity
  8
LIVELLO_1
 62
     7
100
AcDbLine
 10
-52.385605
 20
65.75826
 30
0.0
 11
-52.385605
 21
61.196092
 31
0.0
  0
LINE
  5
162
100
AcDbEntity
  8
LIVELLO_1
 62
     7
100
AcDbLine
 10
-52.385605
 20
75.512876
 30
0.0
 11
-52.385605
 21
70.999628
 31
0.0
  0
LINE
  5
161
100
AcDbEntity
  8
LIVELLO_1
 62
     7
100
AcDbLine
 10
-52.385605
 20
110.154172
 30
0.0
 11
-52.385605
 21
92.105661
 31
0.0
  0
POLYLINE
  5
158
100
AcDbEntity
  8
LIVELLO_1
 62
     7
100
AcDb2dPolyline
 66
     1
 10
0.0
 20
0.0
 30
0.0
  0
VERTEX
  5
159
100
AcDbEntity
  8
LIVELLO_1
 62
     7
100
AcDbVertex
100
AcDb2dVertex
 10
-32.168924
 20
107.093894
 30
0.0
  0
VERTEX
  5
15A
100
AcDbEntity
  8
LIVELLO_1
 62
     7
100
AcDbVertex
100
AcDb2dVertex
 10
-31.65371
 20
107.050313
 30
0.0
  0
VERTEX
  5
15B
100
AcDbEntity
  8
LIVELLO_1
 62
     7
100
AcDbVertex
100
AcDb2dVertex
 10
-30.804149
 20
104.013289
 30
0.0
  0
VERTEX
  5
15C
100
AcDbEntity
  8
LIVELLO_1
 62
     7
100
AcDbVertex
100
AcDb2dVertex
 10
-30.286351
 20
103.969709
 30
0.0
  0
VERTEX
  5
15D
100
AcDbEntity
  8
LIVELLO_1
 62
     7
100
AcDbVertex
100
AcDb2dVertex
 10
-29.435413
 20
100.927345
 30
0.0
  0
VERTEX
  5
15E
100
AcDbEntity
  8
LIVELLO_1
 62
     7
100
AcDbVertex
100
AcDb2dVertex
 10
-28.918993
 20
100.883765
 30
0.0
  0
VERTEX
  5
15F
100
AcDbEntity
  8
LIVELLO_1
 62
     7
100
AcDbVertex
100
AcDb2dVertex
 10
-27.774704
 20
97.841573
 30
0.0
  0
SEQEND
  5
160
100
AcDbEntity
  8
LIVELLO_1
 62
     7
  0
LINE
  5
157
100
AcDbEntity
  8
LIVELLO_1
 62
     7
100
AcDbLine
 10
-29.435413
 20
35.827787
 30
0.0
 11
-28.918993
 21
35.873952
 31
0.0
  0
LINE
  5
156
100
AcDbEntity
  8
LIVELLO_1
 62
     7
100
AcDbLine
 10
-30.804149
 20
32.742015
 30
0.0
 11
-30.286351
 21
32.78818
 31
0.0
  0
LINE
  5
155
100
AcDbEntity
  8
LIVELLO_1
 62
     7
100
AcDbLine
 10
-32.168924
 20
29.661239
 30
0.0
 11
-31.65371
 21
29.704819
 31
0.0
  0
LINE
  5
154
100
AcDbEntity
  8
LIVELLO_1
 62
     7
100
AcDbLine
 10
-31.65371
 20
29.704819
 30
0.0
 11
-30.804149
 21
32.742015
 31
0.0
  0
LINE
  5
153
100
AcDbEntity
  8
LIVELLO_1
 62
     7
100
AcDbLine
 10
-30.286351
 20
32.78818
 30
0.0
 11
-29.435413
 21
35.827787
 31
0.0
  0
LINE
  5
152
100
AcDbEntity
  8
LIVELLO_1
 62
     7
100
AcDbLine
 10
-28.918993
 20
35.873952
 30
0.0
 11
-27.774704
 21
38.916143
 31
0.0
  0
LINE
  5
151
100
AcDbEntity
  8
LIVELLO_1
 62
     7
100
AcDbLine
 10
-32.168924
 20
107.093894
 30
0.0
 11
-32.168924
 21
107.545029
 31
0.0
  0
SPLINE
  5
150
100
AcDbEntity
  8
LIVELLO_1
 62
     7
100
AcDbSpline
210
0.0
220
0.0
230
1.0
 70
     8
 71
     3
 72
     8
 73
     4
 74
     0
 42
0.00000001
 43
0.00000001
 40
0.0
 40
0.0
 40
0.0
 40
0.0
 40
1.0
 40
1.0
 40
1.0
 40
1.0
 10
-32.168923611111111
 20
107.54502902560763
 30
0.0
 10
-32.168923611111111
 20
108.43954806857639
 30
0.0
 10
-32.900661892361107
 20
109.17765977647568
 30
0.0
 10
-33.836005316840271
 20
109.22382405598957
 30
0.0
  0
LINE
  5
14F
100
AcDbEntity
  8
LIVELLO_1
 62
     7
100
AcDbLine
 10
-58.538029
 20
111.589399
 30
0.0
 11
-53.624806
 21
111.340835
 31
0.0
  0
LINE
  5
14E
100
AcDbEntity
  8
LIVELLO_1
 62
     7
100
AcDbLine
 10
-52.385605
 20
110.154172
 30
0.0
 11
-53.624806
 21
111.340835
 31
0.0
  0
POLYLINE
  5
149
100
AcDbEntity
  8
LIVELLO_1
 62
     7
100
AcDb2dPolyline
 66
     1
 10
0.0
 20
0.0
 30
0.0
  0
VERTEX
  5
14A
100
AcDbEntity
  8
LIVELLO_1
 62
     7
100
AcDbVertex
100
AcDb2dVertex
 10
-53.314747
 20
25.709197
 30
0.0
  0
VERTEX
  5
14B
100
AcDbEntity
  8
LIVELLO_1
 62
     7
100
AcDbVertex
100
AcDb2dVertex
 10
-35.441764
 20
26.6063
 30
0.0
  0
VERTEX
  5
14C
100
AcDbEntity
  8
LIVELLO_1
 62
     7
100
AcDbVertex
100
AcDb2dVertex
 10
-34.512622
 20
27.498063
 30
0.0
  0
SEQEND
  5
14D
100
AcDbEntity
  8
LIVELLO_1
 62
     7
  0
LINE
  5
148
100
AcDbEntity
  8
LIVELLO_1
 62
     7
100
AcDbLine
 10
-27.774704
 20
38.916143
 30
0.0
 11
-27.774704
 21
97.841573
 31
0.0
  0
LINE
  5
147
100
AcDbEntity
  8
LIVELLO_1
 62
     7
100
AcDbLine
 10
-52.385605
 20
110.154172
 30
0.0
 11
-33.836005
 21
109.223824
 31
0.0
  0
LINE
  5
146
100
AcDbEntity
  8
LIVELLO_1
 62
     7
100
AcDbLine
 10
-58.538029
 20
111.589399
 30
0.0
 11
-58.538029
 21
25.16849
 31
0.0
  0
SPLINE
  5
145
100
AcDbEntity
  8
LIVELLO_1
 62
     7
100
AcDbSpline
210
0.0
220
0.0
230
1.0
 70
     8
 71
     3
 72
     8
 73
     4
 74
     0
 42
0.00000001
 43
0.00000001
 40
0.0
 40
0.0
 40
0.0
 40
0.0
 40
1.0
 40
1.0
 40
1.0
 40
1.0
 10
-33.836005316840271
 20
27.531480577256943
 30
0.0
 10
-32.900661892361107
 20
27.577644856770831
 30
0.0
 10
-32.168923611111111
 20
28.315756564670135
 30
0.0
 10
-32.168923611111111
 20
29.212687174479164
 30
0.0
  0
LINE
  5
144
100
AcDbEntity
  8
LIVELLO_1
 62
     7
100
AcDbLine
 10
-52.385605
 20
26.601133
 30
0.0
 11
-53.624806
 21
25.414469
 31
0.0
  0
LINE
  5
143
100
AcDbEntity
  8
LIVELLO_1
 62
     7
100
AcDbLine
 10
-52.385605
 20
26.601133
 30
0.0
 11
-33.836005
 21
27.531481
 31
0.0
  0
LINE
  5
142
100
AcDbEntity
  8
LIVELLO_1
 62
     7
100
AcDbLine
 10
-58.538029
 20
25.16849
 30
0.0
 11
-53.624806
 21
25.414469
 31
0.0
  0
LINE
  5
141
100
AcDbEntity
  8
LIVELLO_1
 62
     7
100
AcDbLine
 10
-32.168924
 20
29.661239
 30
0.0
 11
-32.168924
 21
29.212687
 31
0.0
  0
LINE
  5
140
100
AcDbEntity
  8
LIVELLO_1
 62
     7
100
AcDbLine
 10
-33.350419
 20
65.760844
 30
0.0
 11
-49.917539
 21
66.309303
 31
0.0
  0
POLYLINE
  5
118
100
AcDbEntity
  8
LIVELLO_1
 62
     7
100
AcDb2dPolyline
 66
     1
 10
0.0
 20
0.0
 30
0.0
  0
VERTEX
  5
119
100
AcDbEntity
  8
LIVELLO_1
 62
     7
100
AcDbVertex
100
AcDb2dVertex
 10
-31.65371
 20
65.704517
 30
0.0
  0
VERTEX
  5
11A
100
AcDbEntity
  8
LIVELLO_1
 62
     7
100
AcDbVertex
100
AcDb2dVertex
 10
-31.644752
 20
65.706928
 30
0.0
  0
VERTEX
  5
11B
100
AcDbEntity
  8
LIVELLO_1
 62
     7
100
AcDbVertex
100
AcDb2dVertex
 10
-31.635795
 20
65.706928
 30
0.0
  0
VERTEX
  5
11C
100
AcDbEntity
  8
LIVELLO_1
 62
     7
100
AcDbVertex
100
AcDb2dVertex
 10
-31.629422
 20
65.709512
 30
0.0
  0
VERTEX
  5
11D
100
AcDbEntity
  8
LIVELLO_1
 62
     7
100
AcDbVertex
100
AcDb2dVertex
 10
-31.620464
 20
65.712096
 30
0.0
  0
VERTEX
  5
11E
100
AcDbEntity
  8
LIVELLO_1
 62
     7
100
AcDbVertex
100
AcDb2dVertex
 10
-31.611335
 20
65.719847
 30
0.0
  0
VERTEX
  5
11F
100
AcDbEntity
  8
LIVELLO_1
 62
     7
100
AcDbVertex
100
AcDb2dVertex
 10
-31.603756
 20
65.724843
 30
0.0
  0
VERTEX
  5
120
100
AcDbEntity
  8
LIVELLO_1
 62
     7
100
AcDbVertex
100
AcDb2dVertex
 10
-31.596004
 20
65.73001
 30
0.0
  0
VERTEX
  5
121
100
AcDbEntity
  8
LIVELLO_1
 62
     7
100
AcDbVertex
100
AcDb2dVertex
 10
-31.588425
 20
65.740346
 30
0.0
  0
VERTEX
  5
122
100
AcDbEntity
  8
LIVELLO_1
 62
     7
100
AcDbVertex
100
AcDb2dVertex
 10
-31.579296
 20
65.745513
 30
0.0
  0
VERTEX
  5
123
100
AcDbEntity
  8
LIVELLO_1
 62
     7
100
AcDbVertex
100
AcDb2dVertex
 10
-31.561381
 20
65.768595
 30
0.0
  0
VERTEX
  5
124
100
AcDbEntity
  8
LIVELLO_1
 62
     7
100
AcDbVertex
100
AcDb2dVertex
 10
-31.547256
 20
65.791505
 30
0.0
  0
VERTEX
  5
125
100
AcDbEntity
  8
LIVELLO_1
 62
     7
100
AcDbVertex
100
AcDb2dVertex
 10
-31.531925
 20
65.819755
 30
0.0
  0
VERTEX
  5
126
100
AcDbEntity
  8
LIVELLO_1
 62
     7
100
AcDbVertex
100
AcDb2dVertex
 10
-31.499886
 20
65.889001
 30
0.0
  0
VERTEX
  5
127
100
AcDbEntity
  8
LIVELLO_1
 62
     7
100
AcDbVertex
100
AcDb2dVertex
 10
-31.470431
 20
65.973579
 30
0.0
  0
VERTEX
  5
128
100
AcDbEntity
  8
LIVELLO_1
 62
     7
100
AcDbVertex
100
AcDb2dVertex
 10
-31.411519
 20
66.183729
 30
0.0
  0
VERTEX
  5
129
100
AcDbEntity
  8
LIVELLO_1
 62
     7
100
AcDbVertex
100
AcDb2dVertex
 10
-31.317985
 20
66.765434
 30
0.0
  0
VERTEX
  5
12A
100
AcDbEntity
  8
LIVELLO_1
 62
     7
100
AcDbVertex
100
AcDb2dVertex
 10
-31.255112
 20
67.501134
 30
0.0
  0
VERTEX
  5
12B
100
AcDbEntity
  8
LIVELLO_1
 62
     7
100
AcDbVertex
100
AcDb2dVertex
 10
-31.23203
 20
68.326407
 30
0.0
  0
VERTEX
  5
12C
100
AcDbEntity
  8
LIVELLO_1
 62
     7
100
AcDbVertex
100
AcDb2dVertex
 10
-31.248739
 20
69.154263
 30
0.0
  0
VERTEX
  5
12D
100
AcDbEntity
  8
LIVELLO_1
 62
     7
100
AcDbVertex
100
AcDb2dVertex
 10
-31.30765
 20
69.907705
 30
0.0
  0
VERTEX
  5
12E
100
AcDbEntity
  8
LIVELLO_1
 62
     7
100
AcDbVertex
100
AcDb2dVertex
 10
-31.3986
 20
70.51008
 30
0.0
  0
VERTEX
  5
12F
100
AcDbEntity
  8
LIVELLO_1
 62
     7
100
AcDbVertex
100
AcDb2dVertex
 10
-31.453722
 20
70.735562
 30
0.0
  0
VERTEX
  5
130
100
AcDbEntity
  8
LIVELLO_1
 62
     7
100
AcDbVertex
100
AcDb2dVertex
 10
-31.483177
 20
70.82789
 30
0.0
  0
VERTEX
  5
131
100
AcDbEntity
  8
LIVELLO_1
 62
     7
100
AcDbVertex
100
AcDb2dVertex
 10
-31.515217
 20
70.902132
 30
0.0
  0
VERTEX
  5
132
100
AcDbEntity
  8
LIVELLO_1
 62
     7
100
AcDbVertex
100
AcDb2dVertex
 10
-31.531925
 20
70.93555
 30
0.0
  0
VERTEX
  5
133
100
AcDbEntity
  8
LIVELLO_1
 62
     7
100
AcDbVertex
100
AcDb2dVertex
 10
-31.547256
 20
70.963627
 30
0.0
  0
VERTEX
  5
134
100
AcDbEntity
  8
LIVELLO_1
 62
     7
100
AcDbVertex
100
AcDb2dVertex
 10
-31.561381
 20
70.989293
 30
0.0
  0
VERTEX
  5
135
100
AcDbEntity
  8
LIVELLO_1
 62
     7
100
AcDbVertex
100
AcDb2dVertex
 10
-31.579296
 20
71.009791
 30
0.0
  0
VERTEX
  5
136
100
AcDbEntity
  8
LIVELLO_1
 62
     7
100
AcDbVertex
100
AcDb2dVertex
 10
-31.588425
 20
71.017543
 30
0.0
  0
VERTEX
  5
137
100
AcDbEntity
  8
LIVELLO_1
 62
     7
100
AcDbVertex
100
AcDb2dVertex
 10
-31.596004
 20
71.025122
 30
0.0
  0
VERTEX
  5
138
100
AcDbEntity
  8
LIVELLO_1
 62
     7
100
AcDbVertex
100
AcDb2dVertex
 10
-31.603756
 20
71.03029
 30
0.0
  0
VERTEX
  5
139
100
AcDbEntity
  8
LIVELLO_1
 62
     7
100
AcDbVertex
100
AcDb2dVertex
 10
-31.611335
 20
71.038041
 30
0.0
  0
VERTEX
  5
13A
100
AcDbEntity
  8
LIVELLO_1
 62
     7
100
AcDbVertex
100
AcDb2dVertex
 10
-31.620464
 20
71.043037
 30
0.0
  0
VERTEX
  5
13B
100
AcDbEntity
  8
LIVELLO_1
 62
     7
100
AcDbVertex
100
AcDb2dVertex
 10
-31.629422
 20
71.04562
 30
0.0
  0
VERTEX
  5
13C
100
AcDbEntity
  8
LIVELLO_1
 62
     7
100
AcDbVertex
100
AcDb2dVertex
 10
-31.635795
 20
71.048204
 30
0.0
  0
VERTEX
  5
13D
100
AcDbEntity
  8
LIVELLO_1
 62
     7
100
AcDbVertex
100
AcDb2dVertex
 10
-31.644752
 20
71.050788
 30
0.0
  0
VERTEX
  5
13E
100
AcDbEntity
  8
LIVELLO_1
 62
     7
100
AcDbVertex
100
AcDb2dVertex
 10
-31.65371
 20
71.050788
 30
0.0
  0
SEQEND
  5
13F
100
AcDbEntity
  8
LIVELLO_1
 62
     7
  0
SPLINE
  5
117
100
AcDbEntity
  8
LIVELLO_1
 62
     7
100
AcDbSpline
210
0.0
220
0.0
230
1.0
 70
     8
 71
     3
 72
     8
 73
     4
 74
     0
 42
0.00000001
 43
0.00000001
 40
0.0
 40
0.0
 40
0.0
 40
0.0
 40
1.0
 40
1.0
 40
1.0
 40
1.0
 10
-32.168923611111111
 20
64.09496799045138
 30
0.0
 10
-32.168923611111111
 20
65.002233886718741
 30
0.0
 10
-32.919782172309027
 20
65.74551323784722
 30
0.0
 10
-33.865633138020833
 20
65.778758409288187
 30
0.0
  0
LINE
  5
116
100
AcDbEntity
  8
LIVELLO_1
 62
     7
100
AcDbLine
 10
-33.350419
 20
70.994461
 30
0.0
 11
-49.917539
 21
70.446002
 31
0.0
  0
SPLINE
  5
115
100
AcDbEntity
  8
LIVELLO_1
 62
     7
100
AcDbSpline
210
0.0
220
0.0
230
1.0
 70
     8
 71
     3
 72
     8
 73
     4
 74
     0
 42
0.00000001
 43
0.00000001
 40
0.0
 40
0.0
 40
0.0
 40
0.0
 40
1.0
 40
1.0
 40
1.0
 40
1.0
 10
-33.865633138020833
 20
70.976546223958323
 30
0.0
 10
-32.919782172309027
 20
71.009791395399304
 30
0.0
 10
-32.168923611111111
 20
71.753070746527769
 30
0.0
 10
-32.168923611111111
 20
72.66033664279513
 30
0.0
  0
LINE
  5
114
100
AcDbEntity
  8
LIVELLO_1
 62
     7
100
AcDbLine
 10
-49.917539
 20
64.640843
 30
0.0
 11
-49.917539
 21
72.114461
 31
0.0
  0
LINE
  5
113
100
AcDbEntity
  8
LIVELLO_1
 62
     7
100
AcDbLine
 10
-53.624806
 20
71.017543
 30
0.0
 11
-49.917539
 21
70.955876
 31
0.0
  0
LINE
  5
112
100
AcDbEntity
  8
LIVELLO_1
 62
     7
100
AcDbLine
 10
-53.624806
 20
65.737762
 30
0.0
 11
-49.917539
 21
65.799257
 31
0.0
  0
POLYLINE
  5
E1
100
AcDbEntity
  8
LIVELLO_1
 62
     7
100
AcDb2dPolyline
 66
     1
 10
0.0
 20
0.0
 30
0.0
  0
VERTEX
  5
E2
100
AcDbEntity
  8
LIVELLO_1
 62
     7
100
AcDbVertex
100
AcDb2dVertex
 10
-53.469777
 20
71.017543
 30
0.0
  0
VERTEX
  5
E3
100
AcDbEntity
  8
LIVELLO_1
 62
     7
100
AcDbVertex
100
AcDb2dVertex
 10
-54.256637
 20
70.997045
 30
0.0
  0
VERTEX
  5
E4
100
AcDbEntity
  8
LIVELLO_1
 62
     7
100
AcDbVertex
100
AcDb2dVertex
 10
-55.024204
 20
70.909884
 30
0.0
  0
VERTEX
  5
E5
100
AcDbEntity
  8
LIVELLO_1
 62
     7
100
AcDbVertex
100
AcDb2dVertex
 10
-55.398341
 20
70.840637
 30
0.0
  0
VERTEX
  5
E6
100
AcDbEntity
  8
LIVELLO_1
 62
     7
100
AcDbVertex
100
AcDb2dVertex
 10
-55.758526
 20
70.758644
 30
0.0
  0
VERTEX
  5
E7
100
AcDbEntity
  8
LIVELLO_1
 62
     7
100
AcDbVertex
100
AcDb2dVertex
 10
-56.105792
 20
70.656152
 30
0.0
  0
VERTEX
  5
E8
100
AcDbEntity
  8
LIVELLO_1
 62
     7
100
AcDbVertex
100
AcDb2dVertex
 10
-56.437727
 20
70.543325
 30
0.0
  0
VERTEX
  5
E9
100
AcDbEntity
  8
LIVELLO_1
 62
     7
100
AcDbVertex
100
AcDb2dVertex
 10
-56.750369
 20
70.415168
 30
0.0
  0
VERTEX
  5
EA
100
AcDbEntity
  8
LIVELLO_1
 62
     7
100
AcDbVertex
100
AcDb2dVertex
 10
-57.045097
 20
70.274264
 30
0.0
  0
VERTEX
  5
EB
100
AcDbEntity
  8
LIVELLO_1
 62
     7
100
AcDbVertex
100
AcDb2dVertex
 10
-57.315537
 20
70.12044
 30
0.0
  0
VERTEX
  5
EC
100
AcDbEntity
  8
LIVELLO_1
 62
     7
100
AcDbVertex
100
AcDb2dVertex
 10
-57.5641
 20
69.956453
 30
0.0
  0
VERTEX
  5
ED
100
AcDbEntity
  8
LIVELLO_1
 62
     7
100
AcDbVertex
100
AcDb2dVertex
 10
-57.785792
 20
69.782132
 30
0.0
  0
VERTEX
  5
EE
100
AcDbEntity
  8
LIVELLO_1
 62
     7
100
AcDbVertex
100
AcDb2dVertex
 10
-57.980613
 20
69.600231
 30
0.0
  0
VERTEX
  5
EF
100
AcDbEntity
  8
LIVELLO_1
 62
     7
100
AcDbVertex
100
AcDb2dVertex
 10
-58.149767
 20
69.407994
 30
0.0
  0
VERTEX
  5
F0
100
AcDbEntity
  8
LIVELLO_1
 62
     7
100
AcDbVertex
100
AcDb2dVertex
 10
-58.222803
 20
69.310498
 30
0.0
  0
VERTEX
  5
F1
100
AcDbEntity
  8
LIVELLO_1
 62
     7
100
AcDbVertex
100
AcDb2dVertex
 10
-58.288087
 20
69.208006
 30
0.0
  0
VERTEX
  5
F2
100
AcDbEntity
  8
LIVELLO_1
 62
     7
100
AcDbVertex
100
AcDb2dVertex
 10
-58.345793
 20
69.108099
 30
0.0
  0
VERTEX
  5
F3
100
AcDbEntity
  8
LIVELLO_1
 62
     7
100
AcDbVertex
100
AcDb2dVertex
 10
-58.397125
 20
69.008019
 30
0.0
  0
VERTEX
  5
F4
100
AcDbEntity
  8
LIVELLO_1
 62
     7
100
AcDbVertex
100
AcDb2dVertex
 10
-58.439327
 20
68.902943
 30
0.0
  0
VERTEX
  5
F5
100
AcDbEntity
  8
LIVELLO_1
 62
     7
100
AcDbVertex
100
AcDb2dVertex
 10
-58.475328
 20
68.797868
 30
0.0
  0
VERTEX
  5
F6
100
AcDbEntity
  8
LIVELLO_1
 62
     7
100
AcDbVertex
100
AcDb2dVertex
 10
-58.5022
 20
68.695376
 30
0.0
  0
VERTEX
  5
F7
100
AcDbEntity
  8
LIVELLO_1
 62
     7
100
AcDbVertex
100
AcDb2dVertex
 10
-58.522698
 20
68.590301
 30
0.0
  0
VERTEX
  5
F8
100
AcDbEntity
  8
LIVELLO_1
 62
     7
100
AcDbVertex
100
AcDb2dVertex
 10
-58.534239
 20
68.482642
 30
0.0
  0
VERTEX
  5
F9
100
AcDbEntity
  8
LIVELLO_1
 62
     7
100
AcDbVertex
100
AcDb2dVertex
 10
-58.538029
 20
68.377566
 30
0.0
  0
VERTEX
  5
FA
100
AcDbEntity
  8
LIVELLO_1
 62
     7
100
AcDbVertex
100
AcDb2dVertex
 10
-58.534239
 20
68.272491
 30
0.0
  0
VERTEX
  5
FB
100
AcDbEntity
  8
LIVELLO_1
 62
     7
100
AcDbVertex
100
AcDb2dVertex
 10
-58.522698
 20
68.167415
 30
0.0
  0
VERTEX
  5
FC
100
AcDbEntity
  8
LIVELLO_1
 62
     7
100
AcDbVertex
100
AcDb2dVertex
 10
-58.5022
 20
68.059756
 30
0.0
  0
VERTEX
  5
FD
100
AcDbEntity
  8
LIVELLO_1
 62
     7
100
AcDbVertex
100
AcDb2dVertex
 10
-58.475328
 20
67.957265
 30
0.0
  0
VERTEX
  5
FE
100
AcDbEntity
  8
LIVELLO_1
 62
     7
100
AcDbVertex
100
AcDb2dVertex
 10
-58.439327
 20
67.852189
 30
0.0
  0
VERTEX
  5
FF
100
AcDbEntity
  8
LIVELLO_1
 62
     7
100
AcDbVertex
100
AcDb2dVertex
 10
-58.397125
 20
67.749698
 30
0.0
  0
VERTEX
  5
100
100
AcDbEntity
  8
LIVELLO_1
 62
     7
100
AcDbVertex
100
AcDb2dVertex
 10
-58.345793
 20
67.647206
 30
0.0
  0
VERTEX
  5
101
100
AcDbEntity
  8
LIVELLO_1
 62
     7
100
AcDbVertex
100
AcDb2dVertex
 10
-58.288087
 20
67.547298
 30
0.0
  0
VERTEX
  5
102
100
AcDbEntity
  8
LIVELLO_1
 62
     7
100
AcDbVertex
100
AcDb2dVertex
 10
-58.222803
 20
67.444634
 30
0.0
  0
VERTEX
  5
103
100
AcDbEntity
  8
LIVELLO_1
 62
     7
100
AcDbVertex
100
AcDb2dVertex
 10
-58.149767
 20
67.34731
 30
0.0
  0
VERTEX
  5
104
100
AcDbEntity
  8
LIVELLO_1
 62
     7
100
AcDbVertex
100
AcDb2dVertex
 10
-57.980613
 20
67.157658
 30
0.0
  0
VERTEX
  5
105
100
AcDbEntity
  8
LIVELLO_1
 62
     7
100
AcDbVertex
100
AcDb2dVertex
 10
-57.785792
 20
66.973173
 30
0.0
  0
VERTEX
  5
106
100
AcDbEntity
  8
LIVELLO_1
 62
     7
100
AcDbVertex
100
AcDb2dVertex
 10
-57.5641
 20
66.798851
 30
0.0
  0
VERTEX
  5
107
100
AcDbEntity
  8
LIVELLO_1
 62
     7
100
AcDbVertex
100
AcDb2dVertex
 10
-57.315537
 20
66.634865
 30
0.0
  0
VERTEX
  5
108
100
AcDbEntity
  8
LIVELLO_1
 62
     7
100
AcDbVertex
100
AcDb2dVertex
 10
-57.045097
 20
66.481041
 30
0.0
  0
VERTEX
  5
109
100
AcDbEntity
  8
LIVELLO_1
 62
     7
100
AcDbVertex
100
AcDb2dVertex
 10
-56.750369
 20
66.340137
 30
0.0
  0
VERTEX
  5
10A
100
AcDbEntity
  8
LIVELLO_1
 62
     7
100
AcDbVertex
100
AcDb2dVertex
 10
-56.437727
 20
66.211979
 30
0.0
  0
VERTEX
  5
10B
100
AcDbEntity
  8
LIVELLO_1
 62
     7
100
AcDbVertex
100
AcDb2dVertex
 10
-56.105792
 20
66.099152
 30
0.0
  0
VERTEX
  5
10C
100
AcDbEntity
  8
LIVELLO_1
 62
     7
100
AcDbVertex
100
AcDb2dVertex
 10
-55.758526
 20
65.999245
 30
0.0
  0
VERTEX
  5
10D
100
AcDbEntity
  8
LIVELLO_1
 62
     7
100
AcDbVertex
100
AcDb2dVertex
 10
-55.398341
 20
65.914667
 30
0.0
  0
VERTEX
  5
10E
100
AcDbEntity
  8
LIVELLO_1
 62
     7
100
AcDbVertex
100
AcDb2dVertex
 10
-55.024204
 20
65.848005
 30
0.0
  0
VERTEX
  5
10F
100
AcDbEntity
  8
LIVELLO_1
 62
     7
100
AcDbVertex
100
AcDb2dVertex
 10
-54.256637
 20
65.75826
 30
0.0
  0
VERTEX
  5
110
100
AcDbEntity
  8
LIVELLO_1
 62
     7
100
AcDbVertex
100
AcDb2dVertex
 10
-53.469777
 20
65.737762
 30
0.0
  0
SEQEND
  5
111
100
AcDbEntity
  8
LIVELLO_1
 62
     7
  0
SPLINE
  5
E0
100
AcDbEntity
  8
LIVELLO_1
 62
     7
100
AcDbSpline
210
0.0
220
0.0
230
1.0
 70
     8
 71
     3
 72
    11
 73
     7
 74
     0
 42
0.00000001
 43
0.00000001
 40
0.0
 40
0.0
 40
0.0
 40
0.0
 40
1.0
 40
1.0
 40
1.0
 40
2.0
 40
2.0
 40
2.0
 40
2.0
 10
-28.842167154947916
 20
130.6964152018229
 30
0.0
 10
-28.52297905815972
 20
130.6964152018229
 30
0.0
 10
-28.262874348958331
 20
130.94239501953123
 30
0.0
 10
-28.256500922309026
 20
131.24745822482637
 30
0.0
 10
-28.256500922309026
 20
131.24745822482637
 30
0.0
 10
-28.064264594184024
 20
141.77877061631943
 30
0.0
 10
-28.064264594184024
 20
141.77877061631943
 30
0.0
  0
SPLINE
  5
DF
100
AcDbEntity
  8
LIVELLO_1
 62
     7
100
AcDbSpline
210
0.0
220
0.0
230
1.0
 70
     8
 71
     3
 72
     8
 73
     4
 74
     0
 42
0.00000001
 43
0.00000001
 40
0.0
 40
0.0
 40
0.0
 40
0.0
 40
1.0
 40
1.0
 40
1.0
 40
1.0
 10
-29.218888346354163
 20
130.6964152018229
 30
0.0
 10
-29.379085286458331
 20
130.6964152018229
 30
0.0
 10
-29.508448621961804
 20
130.57342529296875
 30
0.0
 10
-29.511032443576386
 20
130.42218560112846
 30
0.0
  0
LINE
  5
DE
100
AcDbEntity
  8
LIVELLO_1
 62
     7
100
AcDbLine
 10
-29.531531
 20
129.294434
 30
0.0
 11
-29.511032
 21
130.422186
 31
0.0
  0
SPLINE
  5
DD
100
AcDbEntity
  8
LIVELLO_1
 62
     7
100
AcDbSpline
210
0.0
220
0.0
230
1.0
 70
     8
 71
     3
 72
     8
 73
     4
 74
     0
 42
0.00000001
 43
0.00000001
 40
0.0
 40
0.0
 40
0.0
 40
0.0
 40
1.0
 40
1.0
 40
1.0
 40
1.0
 10
19.586573621961804
 20
131.24745822482637
 30
0.0
 10
19.592947048611109
 20
130.94239501953123
 30
0.0
 10
19.853224012586804
 20
130.6964152018229
 30
0.0
 10
20.172239854600694
 20
130.6964152018229
 30
0.0
  0
SPLINE
  5
DC
100
AcDbEntity
  8
LIVELLO_1
 62
     7
100
AcDbSpline
210
0.0
220
0.0
230
1.0
 70
     8
 71
     3
 72
    11
 73
     7
 74
     0
 42
0.00000001
 43
0.00000001
 40
0.0
 40
0.0
 40
0.0
 40
0.0
 40
1.0
 40
1.0
 40
1.0
 40
2.0
 40
2.0
 40
2.0
 40
2.0
 10
20.861603461371526
 20
129.29443359375
 30
0.0
 10
20.861603461371526
 20
129.29443359375
 30
0.0
 10
20.841105143229164
 20
130.42218560112846
 30
0.0
 10
20.841105143229164
 20
130.42218560112846
 30
0.0
 10
20.838693576388888
 20
130.57342529296875
 30
0.0
 10
20.709157986111109
 20
130.6964152018229
 30
0.0
 10
20.547755262586804
 20
130.6964152018229
 30
0.0
  0
LINE
  5
DB
100
AcDbEntity
  8
LIVELLO_1
 62
     7
100
AcDbLine
 10
19.586574
 20
131.247458
 30
0.0
 11
19.394337
 21
141.778771
 31
0.0
  0
LINE
  5
DA
100
AcDbEntity
  8
LIVELLO_1
 62
     7
100
AcDbLine
 10
19.103399
 20
129.294434
 30
0.0
 11
19.103399
 21
7.463283
 31
0.0
  0
LINE
  5
D9
100
AcDbEntity
  8
LIVELLO_1
 62
     7
100
AcDbLine
 10
-27.774704
 20
129.294434
 30
0.0
 11
-27.774704
 21
7.463283
 31
0.0
  0
SPLINE
  5
D8
100
AcDbEntity
  8
LIVELLO_1
 62
     7
100
AcDbSpline
210
0.0
220
0.0
230
1.0
 70
     8
 71
     3
 72
    11
 73
     7
 74
     0
 42
0.00000001
 43
0.00000001
 40
0.0
 40
0.0
 40
0.0
 40
0.0
 40
1.0
 40
1.0
 40
1.0
 40
2.0
 40
2.0
 40
2.0
 40
2.0
 10
20.172239854600694
 20
6.0588894314236104
 30
0.0
 10
19.853224012586804
 20
6.0588894314236104
 30
0.0
 10
19.592947048611109
 20
5.8153211805555554
 30
0.0
 10
19.586573621961804
 20
5.5078464084201384
 30
0.0
 10
19.586573621961804
 20
5.5078464084201384
 30
0.0
 10
19.394337293836802
 20
-5.0232937282986105
 30
0.0
 10
19.394337293836802
 20
-5.0232937282986105
 30
0.0
  0
SPLINE
  5
D7
100
AcDbEntity
  8
LIVELLO_1
 62
     7
100
AcDbSpline
210
0.0
220
0.0
230
1.0
 70
     8
 71
     3
 72
     8
 73
     4
 74
     0
 42
0.00000001
 43
0.00000001
 40
0.0
 40
0.0
 40
0.0
 40
0.0
 40
1.0
 40
1.0
 40
1.0
 40
1.0
 10
20.547755262586804
 20
6.0588894314236104
 30
0.0
 10
20.709157986111109
 20
6.0588894314236104
 30
0.0
 10
20.838693576388888
 20
6.181879340277777
 30
0.0
 10
20.841105143229164
 20
6.3357028537326388
 30
0.0
  0
LINE
  5
D6
100
AcDbEntity
  8
LIVELLO_1
 62
     7
100
AcDbLine
 10
20.861603
 20
7.463283
 30
0.0
 11
20.841105
 21
6.335703
 31
0.0
  0
SPLINE
  5
D5
100
AcDbEntity
  8
LIVELLO_1
 62
     7
100
AcDbSpline
210
0.0
220
0.0
230
1.0
 70
     8
 71
     3
 72
     8
 73
     4
 74
     0
 42
0.00000001
 43
0.00000001
 40
0.0
 40
0.0
 40
0.0
 40
0.0
 40
1.0
 40
1.0
 40
1.0
 40
1.0
 10
-28.256500922309026
 20
5.5078464084201384
 30
0.0
 10
-28.262874348958331
 20
5.8153211805555554
 30
0.0
 10
-28.52297905815972
 20
6.0588894314236104
 30
0.0
 10
-28.842167154947916
 20
6.0588894314236104
 30
0.0
  0
SPLINE
  5
D4
100
AcDbEntity
  8
LIVELLO_1
 62
     7
100
AcDbSpline
210
0.0
220
0.0
230
1.0
 70
     8
 71
     3
 72
    11
 73
     7
 74
     0
 42
0.00000001
 43
0.00000001
 40
0.0
 40
0.0
 40
0.0
 40
0.0
 40
1.0
 40
1.0
 40
1.0
 40
2.0
 40
2.0
 40
2.0
 40
2.0
 10
-29.531530761718749
 20
7.4632826063368052
 30
0.0
 10
-29.531530761718749
 20
7.4632826063368052
 30
0.0
 10
-29.511032443576386
 20
6.3357028537326388
 30
0.0
 10
-29.511032443576386
 20
6.3357028537326388
 30
0.0
 10
-29.508448621961804
 20
6.181879340277777
 30
0.0
 10
-29.379085286458331
 20
6.0588894314236104
 30
0.0
 10
-29.218888346354163
 20
6.0588894314236104
 30
0.0
  0
LINE
  5
D3
100
AcDbEntity
  8
LIVELLO_1
 62
     7
100
AcDbLine
 10
-28.256501
 20
5.507846
 30
0.0
 11
-28.064265
 21
-5.023294
 31
0.0
  0
CIRCLE
  5
D2
100
AcDbEntity
  8
LIVELLO_1
 62
     7
100
AcDbCircle
 10
17.934736
 20
-5.023294
 30
0.0
 40
0.051246
  0
ELLIPSE
  5
D1
100
AcDbEntity
  8
LIVELLO_1
 62
     7
100
AcDbEllipse
 10
17.934736
 20
141.778771
 30
0.0
 11
0.0512457953559028
 21
0.0
 31
0.0
210
0.0
220
0.0
230
1.0
 40
0.951595
 41
0.0
 42
6.2831853071795862
  0
ELLIPSE
  5
D0
100
AcDbEntity
  8
LIVELLO_1
 62
     7
100
AcDbEllipse
 10
20.862292
 20
7.463283
 30
0.0
 11
0.0518486870659722
 21
0.0
 31
0.0
210
0.0
220
0.0
230
1.0
 40
0.9868
 41
0.0
 42
6.2831853071795862
  0
CIRCLE
  5
CF
100
AcDbEntity
  8
LIVELLO_1
 62
     7
100
AcDbCircle
 10
-29.531617
 20
7.463283
 30
0.0
 40
0.051246
  0
ELLIPSE
  5
CE
100
AcDbEntity
  8
LIVELLO_1
 62
     7
100
AcDbEllipse
 10
20.862292
 20
129.294434
 30
0.0
 11
0.0518486870659722
 21
0.0
 31
0.0
210
0.0
220
0.0
230
1.0
 40
0.940293
 41
0.0
 42
6.2831853071795862
  0
ELLIPSE
  5
CD
100
AcDbEntity
  8
LIVELLO_1
 62
     7
100
AcDbEllipse
 10
-59.124298
 20
91.385464
 30
0.0
 11
0.0505567762586806
 21
0.0
 31
0.0
210
0.0
220
0.0
230
1.0
 40
0.964299
 41
0.0
 42
6.2831853071795862
  0
ELLIPSE
  5
CC
100
AcDbEntity
  8
LIVELLO_1
 62
     7
100
AcDbEllipse
 10
20.862292
 20
129.304769
 30
0.0
 11
0.0518486870659722
 21
0.0
 31
0.0
210
0.0
220
0.0
230
1.0
 40
0.940293
 41
0.0
 42
6.2831853071795862
  0
ELLIPSE
  5
CB
100
AcDbEntity
  8
LIVELLO_1
 62
     7
100
AcDbEllipse
 10
-59.124298
 20
91.295719
 30
0.0
 11
-0.0006028917100694
 21
-0.05115966796875
 31
0.0
210
0.0
220
0.0
230
1.0
 40
0.988147
 41
0.0
 42
6.2831853071795862
  0
LINE
  5
CA
100
AcDbEntity
  8
LIVELLO_1
 62
     7
100
AcDbLine
 10
10.067775
 20
-24.338222
 30
0.0
 11
20.788567
 21
-24.338222
 31
0.0
  0
LINE
  5
C9
100
AcDbEntity
  8
LIVELLO_1
 62
     7
100
AcDbLine
 10
-29.51241
 20
-24.338222
 30
0.0
 11
-20.245965
 21
-24.338222
 31
0.0
  0
LINE
  5
C8
100
AcDbEntity
  8
LIVELLO_1
 62
     7
100
AcDbLine
 10
-29.51241
 20
-18.712381
 30
0.0
 11
-29.51241
 21
-29.933057
 31
0.0
  0
MTEXT
  5
C7
100
AcDbEntity
  8
LIVELLO_1
 62
     7
100
AcDbMText
 10
-16.94074
 20
-17.852174
 30
0.0
 40
12.614528
 41
0.0
 71
     1
 72
     2
  1
\fArial Narrow|b0|i0;\H12.6145;\W0.98;\C7;\U+00D8\U+0038\U+0036
  7
STD
210
0.0
220
0.0
230
1.0
 73
     1
 44
1.0
  0
LINE
  5
C6
100
AcDbEntity
  8
LIVELLO_1
 62
     7
100
AcDbLine
 10
20.788567
 20
-18.712381
 30
0.0
 11
20.788567
 21
-29.933057
 31
0.0
  0
ELLIPSE
  5
C5
100
AcDbEntity
  8
LIVELLO_1
 62
     7
100
AcDbEllipse
 10
20.862292
 20
7.522366
 30
0.0
 11
-0.0006890190972222
 21
-0.1205783420138889
 31
0.0
210
0.0
220
0.0
230
1.0
 40
0.429993
 41
0.0
 42
6.2831853071795862
  0
ELLIPSE
  5
C4
100
AcDbEntity
  8
LIVELLO_1
 62
     7
100
AcDbEllipse
 10
-29.58536
 20
7.522366
 30
0.0
 11
-0.0000861273871528
 21
-0.1205783420138889
 31
0.0
210
0.0
220
0.0
230
1.0
 40
0.425
 41
0.0
 42
6.2831853071795862
  0
LINE
  5
C3
100
AcDbEntity
  8
LIVELLO_1
 62
     7
100
AcDbLine
 10
40.205815
 20
-4.954392
 30
0.0
 11
53.367974
 21
-4.954392
 31
0.0
  0
LINE
  5
C2
100
AcDbEntity
  8
LIVELLO_1
 62
     7
100
AcDbLine
 10
47.530604
 20
53.753308
 30
0.0
 11
47.530604
 21
-4.954392
 31
0.0
  0
LINE
  5
C1
100
AcDbEntity
  8
LIVELLO_1
 62
     7
100
AcDbLine
 10
47.530604
 20
141.709524
 30
0.0
 11
47.530604
 21
85.698128
 31
0.0
  0
LINE
  5
C0
100
AcDbEntity
  8
LIVELLO_1
 62
     7
100
AcDbLine
 10
40.205815
 20
141.709524
 30
0.0
 11
53.367974
 21
141.709524
 31
0.0
  0
CIRCLE
  5
BF
100
AcDbEntity
  8
LIVELLO_1
 62
     7
100
AcDbCircle
 10
20.789859
 20
-28.523324
 30
0.0
 40
0.051246
  0
ELLIPSE
  5
BE
100
AcDbEntity
  8
LIVELLO_1
 62
     7
100
AcDbEllipse
 10
17.866868
 20
-5.023294
 30
0.0
 11
0.1242818196614583
 21
0.0
 31
0.0
210
0.0
220
0.0
230
1.0
 40
0.413159
 41
0.0
 42
6.2831853071795862
  0
ELLIPSE
  5
BD
100
AcDbEntity
  8
LIVELLO_1
 62
     7
100
AcDbEllipse
 10
17.866868
 20
141.778771
 30
0.0
 11
0.1242818196614583
 21
0.0
 31
0.0
210
0.0
220
0.0
230
1.0
 40
0.393476
 41
0.0
 42
6.2831853071795862
  0
ELLIPSE
  5
BC
100
AcDbEntity
  8
LIVELLO_1
 62
     7
100
AcDbEllipse
 10
50.442916
 20
-4.954392
 30
0.0
 11
0.0518486870659722
 21
0.0
 31
0.0
210
0.0
220
0.0
230
1.0
 40
0.983439
 41
0.0
 42
6.2831853071795862
  0
MTEXT
  5
BB
100
AcDbEntity
  8
LIVELLO_1
 62
     7
100
AcDbMText
 10
36.722823
 20
79.17429
 30
0.0
 40
12.614528
 41
0.0
 71
     1
 72
     2
  1
\fArial Narrow|b0|i0;\H12.6145;\W0.98;\C7;\U+0032\U+0036\U+0035
  7
STD
210
0.0
220
0.0
230
1.0
 73
     1
 44
1.0
  0
CIRCLE
  5
BA
100
AcDbEntity
  8
LIVELLO_1
 62
     7
100
AcDbCircle
 10
20.789859
 20
-127.472323
 30
0.0
 40
0.051246
  0
LINE
  5
B9
100
AcDbEntity
  8
LIVELLO_1
 62
     7
100
AcDbLine
 10
-7.399032
 20
-130.263194
 30
0.0
 11
20.788567
 21
-130.263194
 31
0.0
  0
LINE
  5
B8
100
AcDbEntity
  8
LIVELLO_1
 62
     7
100
AcDbLine
 10
-59.051865
 20
-130.263194
 30
0.0
 11
-30.86306
 21
-130.263194
 31
0.0
  0
LINE
  5
B7
100
AcDbEntity
  8
LIVELLO_1
 62
     7
100
AcDbLine
 10
-59.051865
 20
-137.285677
 30
0.0
 11
-59.051865
 21
-124.670771
 31
0.0
  0
MTEXT
  5
B6
100
AcDbEntity
  8
LIVELLO_1
 62
     7
100
AcDbMText
 10
-30.49633
 20
-124.292533
 30
0.0
 40
12.614528
 41
0.0
 71
     1
 72
     2
  1
\fArial Narrow|b0|i0;\H12.6145;\W0.98;\C7;\U+0031\U+0033\U+0037
  7
STD
210
0.0
220
0.0
230
1.0
 73
     1
 44
1.0
  0
LINE
  5
B5
100
AcDbEntity
  8
LIVELLO_1
 62
     7
100
AcDbLine
 10
20.788567
 20
-137.285677
 30
0.0
 11
20.788567
 21
-124.670771
 31
0.0
  0
LINE
  5
B4
100
AcDbEntity
  8
LIVELLO_1
 62
     7
100
AcDbLine
 10
12.015632
 20
-88.62267
 30
0.0
 11
14.153141
 21
-88.776321
 31
0.0
  0
SPLINE
  5
B3
100
AcDbEntity
  8
LIVELLO_1
 62
     7
100
AcDbSpline
210
0.0
220
0.0
230
1.0
 70
     8
 71
     3
 72
     8
 73
     4
 74
     0
 42
0.00000001
 43
0.00000001
 40
0.0
 40
0.0
 40
0.0
 40
0.0
 40
1.0
 40
1.0
 40
1.0
 40
1.0
 10
11.191564941406249
 20
-81.410362413194434
 30
0.0
 10
10.817427571614582
 20
-81.5488552517361
 30
0.0
 10
10.621229383680555
 20
-81.94607476128472
 30
0.0
 10
10.750764973958333
 20
-82.312632921006937
 30
0.0
  0
SPLINE
  5
B2
100
AcDbEntity
  8
LIVELLO_1
 62
     7
100
AcDbSpline
210
0.0
220
0.0
230
1.0
 70
     8
 71
     3
 72
    11
 73
     7
 74
     0
 42
0.00000001
 43
0.00000001
 40
0.0
 40
0.0
 40
0.0
 40
0.0
 40
1.0
 40
1.0
 40
1.0
 40
2.0
 40
2.0
 40
2.0
 40
2.0
 10
13.746792263454861
 20
-81.271869574652769
 30
0.0
 10
13.613639322916665
 20
-80.89532063802082
 30
0.0
 10
13.188170030381944
 20
-80.695160590277766
 30
0.0
 10
12.795945909288193
 20
-80.820906575520823
 30
0.0
 10
12.785782877604165
 20
-80.823318142361103
 30
0.0
 10
12.776825629340276
 20
-80.828485785590274
 30
0.0
 10
12.769074164496526
 20
-80.833653428819431
 30
0.0
  0
SPLINE
  5
B1
100
AcDbEntity
  8
LIVELLO_1
 62
     7
100
AcDbSpline
210
0.0
220
0.0
230
1.0
 70
     8
 71
     3
 72
    11
 73
     7
 74
     0
 42
0.00000001
 43
0.00000001
 40
0.0
 40
0.0
 40
0.0
 40
0.0
 40
1.0
 40
1.0
 40
1.0
 40
2.0
 40
2.0
 40
2.0
 40
2.0
 10
12.769074164496526
 20
-94.27917209201388
 30
0.0
 10
13.154752604166665
 20
-94.420076497395826
 30
0.0
 10
13.589179144965277
 20
-94.235419379340271
 30
0.0
 10
13.736629231770833
 20
-93.866449652777774
 30
0.0
 10
13.741796874999999
 20
-93.856114366319431
 30
0.0
 10
13.744208441840277
 20
-93.848535156249994
 30
0.0
 10
13.746792263454861
 20
-93.838199869791652
 30
0.0
  0
SPLINE
  5
B0
100
AcDbEntity
  8
LIVELLO_1
 62
     7
100
AcDbSpline
210
0.0
220
0.0
230
1.0
 70
     8
 71
     3
 72
     8
 73
     4
 74
     0
 42
0.00000001
 43
0.00000001
 40
0.0
 40
0.0
 40
0.0
 40
0.0
 40
1.0
 40
1.0
 40
1.0
 40
1.0
 10
10.750764973958333
 20
-92.797781032986109
 30
0.0
 10
10.621229383680555
 20
-93.164339192708326
 30
0.0
 10
10.817427571614582
 20
-93.561558702256931
 30
0.0
 10
11.191564941406249
 20
-93.699707031249986
 30
0.0
  0
SPLINE
  5
AF
100
AcDbEntity
  8
LIVELLO_1
 62
     7
100
AcDbSpline
210
0.0
220
0.0
230
1.0
 70
     8
 71
     3
 72
     8
 73
     4
 74
     0
 42
0.00000001
 43
0.00000001
 40
0.0
 40
0.0
 40
0.0
 40
0.0
 40
1.0
 40
1.0
 40
1.0
 40
1.0
 10
13.746792263454861
 20
-93.838199869791652
 30
0.0
 10
15.193732367621527
 20
-89.765752495659711
 30
0.0
 10
15.193732367621527
 20
-85.3470730251736
 30
0.0
 10
13.746792263454861
 20
-81.271869574652769
 30
0.0
  0
SPLINE
  5
AE
100
AcDbEntity
  8
LIVELLO_1
 62
     7
100
AcDbSpline
210
0.0
220
0.0
230
1.0
 70
     8
 71
     3
 72
     8
 73
     4
 74
     0
 42
0.00000001
 43
0.00000001
 40
0.0
 40
0.0
 40
0.0
 40
0.0
 40
1.0
 40
1.0
 40
1.0
 40
1.0
 10
10.750764973958333
 20
-92.797781032986109
 30
0.0
 10
11.94380154079861
 20
-89.396782769097214
 30
0.0
 10
11.94380154079861
 20
-85.713631184895831
 30
0.0
 10
10.750764973958333
 20
-82.312632921006937
 30
0.0
  0
LINE
  5
AD
100
AcDbEntity
  8
LIVELLO_1
 62
     7
100
AcDbLine
 10
12.769074
 20
-80.833653
 30
0.0
 11
11.191565
 21
-81.410362
 31
0.0
  0
LINE
  5
AC
100
AcDbEntity
  8
LIVELLO_1
 62
     7
100
AcDbLine
 10
12.769074
 20
-94.279172
 30
0.0
 11
11.191565
 21
-93.699707
 31
0.0
  0
SPLINE
  5
AB
100
AcDbEntity
  8
LIVELLO_1
 62
     7
100
AcDbSpline
210
0.0
220
0.0
230
1.0
 70
     8
 71
     3
 72
     8
 73
     4
 74
     0
 42
0.00000001
 43
0.00000001
 40
0.0
 40
0.0
 40
0.0
 40
0.0
 40
1.0
 40
1.0
 40
1.0
 40
1.0
 10
12.786988661024305
 20
-90.51678331163194
 30
0.0
 10
12.838320583767359
 20
-90.252544487847217
 30
0.0
 10
12.885690646701388
 20
-89.988650173611106
 30
0.0
 10
12.92668728298611
 20
-89.724755859374994
 30
0.0
  0
SPLINE
  5
AA
100
AcDbEntity
  8
LIVELLO_1
 62
     7
100
AcDbSpline
210
0.0
220
0.0
230
1.0
 70
     8
 71
     3
 72
     8
 73
     4
 74
     0
 42
0.00000001
 43
0.00000001
 40
0.0
 40
0.0
 40
0.0
 40
0.0
 40
1.0
 40
1.0
 40
1.0
 40
1.0
 10
13.077926974826388
 20
-90.572938368055546
 30
0.0
 10
13.131670464409721
 20
-90.306632486979154
 30
0.0
 10
13.17783474392361
 20
-90.039982096354152
 30
0.0
 10
13.220209418402776
 20
-89.768164062499991
 30
0.0
  0
LINE
  5
A9
100
AcDbEntity
  8
LIVELLO_1
 62
     7
100
AcDbLine
 10
14.23634
 20
-89.499102
 30
0.0
 11
12.027173
 21
-89.194211
 31
0.0
  0
LINE
  5
A8
100
AcDbEntity
  8
LIVELLO_1
 62
     7
100
AcDbLine
 10
12.926687
 20
-89.724756
 30
0.0
 11
11.970673
 21
-89.575928
 31
0.0
  0
LINE
  5
A7
100
AcDbEntity
  8
LIVELLO_1
 62
     7
100
AcDbLine
 10
14.172262
 20
-89.919404
 30
0.0
 11
13.220209
 21
-89.768164
 31
0.0
  0
LINE
  5
A6
100
AcDbEntity
  8
LIVELLO_1
 62
     7
100
AcDbLine
 10
12.786989
 20
-90.516783
 30
0.0
 11
11.836142
 21
-90.334538
 31
0.0
  0
LINE
  5
A5
100
AcDbEntity
  8
LIVELLO_1
 62
     7
100
AcDbLine
 10
14.024984
 20
-90.752428
 30
0.0
 11
13.077927
 21
-90.572938
 31
0.0
  0
LINE
  5
A4
100
AcDbEntity
  8
LIVELLO_1
 62
     7
100
AcDbLine
 10
13.937823
 20
-91.16515
 30
0.0
 11
11.757939
 21
-90.713843
 31
0.0
  0
SPLINE
  5
A3
100
AcDbEntity
  8
LIVELLO_1
 62
     7
100
AcDbSpline
210
0.0
220
0.0
230
1.0
 70
     8
 71
     3
 72
     8
 73
     4
 74
     0
 42
0.00000001
 43
0.00000001
 40
0.0
 40
0.0
 40
0.0
 40
0.0
 40
1.0
 40
1.0
 40
1.0
 40
1.0
 10
11.757938639322916
 20
-90.713842773437491
 30
0.0
 10
11.784982638888888
 20
-90.585685221354154
 30
0.0
 10
11.81047634548611
 20
-90.460283745659709
 30
0.0
 10
11.836142306857639
 20
-90.334537760416652
 30
0.0
  0
SPLINE
  5
A2
100
AcDbEntity
  8
LIVELLO_1
 62
     7
100
AcDbSpline
210
0.0
220
0.0
230
1.0
 70
     8
 71
     3
 72
     8
 73
     4
 74
     0
 42
0.00000001
 43
0.00000001
 40
0.0
 40
0.0
 40
0.0
 40
0.0
 40
1.0
 40
1.0
 40
1.0
 40
1.0
 10
11.970673285590276
 20
-89.575927734374986
 30
0.0
 10
11.988587782118055
 20
-89.447770182291663
 30
0.0
 10
12.009086100260415
 20
-89.319612630208326
 30
0.0
 10
12.027172851562499
 20
-89.19421115451388
 30
0.0
  0
SPLINE
  5
A1
100
AcDbEntity
  8
LIVELLO_1
 62
     7
100
AcDbSpline
210
0.0
220
0.0
230
1.0
 70
     8
 71
     3
 72
     8
 73
     4
 74
     0
 42
0.00000001
 43
0.00000001
 40
0.0
 40
0.0
 40
0.0
 40
0.0
 40
1.0
 40
1.0
 40
1.0
 40
1.0
 10
13.937822808159721
 20
-91.165150282118049
 30
0.0
 10
13.96848415798611
 20
-91.026657443576383
 30
0.0
 10
13.996733940972222
 20
-90.890920681423609
 30
0.0
 10
14.024983723958332
 20
-90.752427842881943
 30
0.0
  0
SPLINE
  5
A0
100
AcDbEntity
  8
LIVELLO_1
 62
     7
100
AcDbSpline
210
0.0
220
0.0
230
1.0
 70
     8
 71
     3
 72
     8
 73
     4
 74
     0
 42
0.00000001
 43
0.00000001
 40
0.0
 40
0.0
 40
0.0
 40
0.0
 40
1.0
 40
1.0
 40
1.0
 40
1.0
 10
14.172261555989582
 20
-89.919403754340266
 30
0.0
 10
14.194137912326388
 20
-89.77849934895832
 30
0.0
 10
14.215842013888887
 20
-89.637594943576374
 30
0.0
 10
14.236340332031249
 20
-89.499102105034709
 30
0.0
  0
LINE
  5
9F
100
AcDbEntity
  8
LIVELLO_1
 62
     7
100
AcDbLine
 10
12.899816
 20
-83.222483
 30
0.0
 11
11.723315
 21
-84.329736
 31
0.0
  0
LINE
  5
9E
100
AcDbEntity
  8
LIVELLO_1
 62
     7
100
AcDbLine
 10
13.686675
 20
-83.017499
 30
0.0
 11
12.467973
 21
-84.160582
 31
0.0
  0
SPLINE
  5
9D
100
AcDbEntity
  8
LIVELLO_1
 62
     7
100
AcDbSpline
210
0.0
220
0.0
230
1.0
 70
     8
 71
     3
 72
     8
 73
     4
 74
     0
 42
0.00000001
 43
0.00000001
 40
0.0
 40
0.0
 40
0.0
 40
0.0
 40
1.0
 40
1.0
 40
1.0
 40
1.0
 10
13.686675347222222
 20
-83.017499457465277
 30
0.0
 10
13.648262532552081
 20
-82.881418185763877
 30
0.0
 10
13.611055501302083
 20
-82.745681423611103
 30
0.0
 10
13.57005886501736
 20
-82.612356228298609
 30
0.0
  0
SPLINE
  5
9C
100
AcDbEntity
  8
LIVELLO_1
 62
     7
100
AcDbSpline
210
0.0
220
0.0
230
1.0
 70
     8
 71
     3
 72
     8
 73
     4
 74
     0
 42
0.00000001
 43
0.00000001
 40
0.0
 40
0.0
 40
0.0
 40
0.0
 40
1.0
 40
1.0
 40
1.0
 40
1.0
 10
13.987776692708332
 20
-84.252566189236106
 30
0.0
 10
13.956943088107638
 20
-84.116829427083331
 30
0.0
 10
13.927487521701387
 20
-83.978336588541666
 30
0.0
 10
13.894242350260415
 20
-83.840188259548597
 30
0.0
  0
SPLINE
  5
9B
100
AcDbEntity
  8
LIVELLO_1
 62
     7
100
AcDbSpline
210
0.0
220
0.0
230
1.0
 70
     8
 71
     3
 72
     8
 73
     4
 74
     0
 42
0.00000001
 43
0.00000001
 40
0.0
 40
0.0
 40
0.0
 40
0.0
 40
1.0
 40
1.0
 40
1.0
 40
1.0
 10
13.329074435763888
 20
-81.976736111111109
 30
0.0
 10
13.281704372829861
 20
-81.8434109157986
 30
0.0
 10
13.231750488281248
 20
-81.710430230034717
 30
0.0
 10
13.181796603732638
 20
-81.577105034722209
 30
0.0
  0
SPLINE
  5
9A
100
AcDbEntity
  8
LIVELLO_1
 62
     7
100
AcDbSpline
210
0.0
220
0.0
230
1.0
 70
     8
 71
     3
 72
    17
 73
    13
 74
     0
 42
0.00000001
 43
0.00000001
 40
0.0
 40
0.0
 40
0.0
 40
0.0
 40
1.0
 40
1.0
 40
1.0
 40
2.0
 40
2.0
 40
2.0
 40
3.0
 40
3.0
 40
3.0
 40
4.0
 40
4.0
 40
4.0
 40
4.0
 10
13.986570909288194
 20
-87.274603949652771
 30
0.0
 10
14.081311035156249
 20
-86.882207573784711
 30
0.0
 10
13.824995930989582
 20
-86.487744140624997
 30
0.0
 10
13.412445746527776
 20
-86.39541558159722
 30
0.0
 10
13.001101345486109
 20
-86.303087022569443
 30
0.0
 10
12.590962727864582
 20
-86.551822916666666
 30
0.0
 10
12.492260742187499
 20
-86.9438747829861
 30
0.0
 10
12.464010959201389
 20
-87.072032335069437
 30
0.0
 10
12.467972819010415
 20
-87.207769097222211
 30
0.0
 10
12.510175238715277
 20
-87.333515082465269
 30
0.0
 10
12.510175238715277
 20
-87.333515082465269
 30
0.0
 10
13.986570909288194
 20
-87.274603949652771
 30
0.0
 10
13.986570909288194
 20
-87.274603949652771
 30
0.0
  0
SPLINE
  5
99
100
AcDbEntity
  8
LIVELLO_1
 62
     7
100
AcDbSpline
210
0.0
220
0.0
230
1.0
 70
     8
 71
     3
 72
    11
 73
     7
 74
     0
 42
0.00000001
 43
0.00000001
 40
0.0
 40
0.0
 40
0.0
 40
0.0
 40
1.0
 40
1.0
 40
1.0
 40
2.0
 40
2.0
 40
2.0
 40
2.0
 10
14.346583387586804
 20
-86.918381076388883
 30
0.0
 10
14.236340332031249
 20
-86.333748372395831
 30
0.0
 10
13.649468315972221
 20
-85.941696506076383
 30
0.0
 10
13.038136121961804
 20
-86.04952799479166
 30
0.0
 10
12.501217990451387
 20
-86.141512044270826
 30
0.0
 10
12.110371907552082
 20
-86.592819552951383
 30
0.0
 10
12.114161512586804
 20
-87.118196614583326
 30
0.0
  0
SPLINE
  5
98
100
AcDbEntity
  8
LIVELLO_1
 62
     7
100
AcDbSpline
210
0.0
220
0.0
230
1.0
 70
     8
 71
     3
 72
    23
 73
    19
 74
     0
 42
0.00000001
 43
0.00000001
 40
0.0
 40
0.0
 40
0.0
 40
0.0
 40
1.0
 40
1.0
 40
1.0
 40
2.0
 40
2.0
 40
2.0
 40
3.0
 40
3.0
 40
3.0
 40
4.0
 40
4.0
 40
4.0
 40
5.0
 40
5.0
 40
5.0
 40
6.0
 40
6.0
 40
6.0
 40
6.0
 10
12.070753309461804
 20
-91.803181966145829
 30
0.0
 10
11.727277289496527
 20
-91.918592664930543
 30
0.0
 10
11.546582031249999
 20
-92.277571614583323
 30
0.0
 10
11.666988118489583
 20
-92.607956271701383
 30
0.0
 10
11.696443684895833
 20
-92.692705620659709
 30
0.0
 10
11.747775607638888
 20
-92.771942816840266
 30
0.0
 10
11.813060167100693
 20
-92.836021592881934
 30
0.0
 10
12.088667805989582
 20
-93.110251193576374
 30
0.0
 10
12.511553276909721
 20
-93.189832899305543
 30
0.0
 10
12.874149576822916
 20
-93.036181640624989
 30
0.0
 10
13.199711100260416
 20
-92.897688802083323
 30
0.0
 10
13.345783148871526
 20
-92.533886718749997
 30
0.0
 10
13.202294921875
 20
-92.221072048611106
 30
0.0
 10
13.153546820746527
 20
-92.11599663628472
 30
0.0
 10
13.075343153211804
 20
-92.026079644097209
 30
0.0
 10
12.976641167534721
 20
-91.962000868055554
 30
0.0
 10
12.950975206163193
 20
-92.04916178385416
 30
0.0
 10
12.92668728298611
 20
-92.139078776041657
 30
0.0
 10
12.902399359809026
 20
-92.228651258680543
 30
0.0
  0
LINE
  5
97
100
AcDbEntity
  8
LIVELLO_1
 62
     7
100
AcDbLine
 10
13.444485
 20
-92.04675
 30
0.0
 11
13.681508
 21
-92.108417
 31
0.0
  0
SPLINE
  5
96
100
AcDbEntity
  8
LIVELLO_1
 62
     7
100
AcDbSpline
210
0.0
220
0.0
230
1.0
 70
     8
 71
     3
 72
     8
 73
     4
 74
     0
 42
0.00000001
 43
0.00000001
 40
0.0
 40
0.0
 40
0.0
 40
0.0
 40
1.0
 40
1.0
 40
1.0
 40
1.0
 10
11.599119737413194
 20
-93.033425564236097
 30
0.0
 10
11.960510253906248
 20
-93.392404513888877
 30
0.0
 10
12.517926703559027
 20
-93.497479926215263
 30
0.0
 10
12.993349880642359
 20
-93.297319878472209
 30
0.0
  0
SPLINE
  5
95
100
AcDbEntity
  8
LIVELLO_1
 62
     7
100
AcDbSpline
210
0.0
220
0.0
230
1.0
 70
     8
 71
     3
 72
    11
 73
     7
 74
     0
 42
0.00000001
 43
0.00000001
 40
0.0
 40
0.0
 40
0.0
 40
0.0
 40
1.0
 40
1.0
 40
1.0
 40
2.0
 40
2.0
 40
2.0
 40
2.0
 10
12.993349880642359
 20
-93.297319878472209
 30
0.0
 10
13.469978841145831
 20
-93.095092773437486
 30
0.0
 10
13.685297309027776
 20
-92.561791992187494
 30
0.0
 10
13.473940700954859
 20
-92.105661349826377
 30
0.0
 10
13.464983452690971
 20
-92.087746853298597
 30
0.0
 10
13.454648166232637
 20
-92.06466471354166
 30
0.0
 10
13.444485134548611
 20
-92.04675021701388
 30
0.0
  0
SPLINE
  5
94
100
AcDbEntity
  8
LIVELLO_1
 62
     7
100
AcDbSpline
210
0.0
220
0.0
230
1.0
 70
     8
 71
     3
 72
     8
 73
     4
 74
     0
 42
0.00000001
 43
0.00000001
 40
0.0
 40
0.0
 40
0.0
 40
0.0
 40
1.0
 40
1.0
 40
1.0
 40
1.0
 10
12.159120008680555
 20
-91.490711805555549
 30
0.0
 10
12.12708062065972
 20
-91.595787217881934
 30
0.0
 10
12.100208875868054
 20
-91.70086263020832
 30
0.0
 10
12.070753309461804
 20
-91.803181966145829
 30
0.0
  0
SPLINE
  5
93
100
AcDbEntity
  8
LIVELLO_1
 62
     7
100
AcDbSpline
210
0.0
220
0.0
230
1.0
 70
     8
 71
     3
 72
     8
 73
     4
 74
     0
 42
0.00000001
 43
0.00000001
 40
0.0
 40
0.0
 40
0.0
 40
0.0
 40
1.0
 40
1.0
 40
1.0
 40
1.0
 10
12.776825629340276
 20
-91.577872721354154
 30
0.0
 10
12.720326063368054
 20
-91.77252061631944
 30
0.0
 10
12.666582573784721
 20
-91.967168511284711
 30
0.0
 10
12.614044867621526
 20
-92.159404839409717
 30
0.0
  0
SPLINE
  5
92
100
AcDbEntity
  8
LIVELLO_1
 62
     7
100
AcDbSpline
210
0.0
220
0.0
230
1.0
 70
     8
 71
     3
 72
    11
 73
     7
 74
     0
 42
0.00000001
 43
0.00000001
 40
0.0
 40
0.0
 40
0.0
 40
0.0
 40
1.0
 40
1.0
 40
1.0
 40
2.0
 40
2.0
 40
2.0
 40
2.0
 10
12.159120008680555
 20
-91.490711805555549
 30
0.0
 10
11.634948730468748
 20
-91.559613715277763
 30
0.0
 10
11.268390570746528
 20
-92.021256510416663
 30
0.0
 10
11.340220811631944
 20
-92.520795355902763
 30
0.0
 10
11.367092556423611
 20
-92.71578776041666
 30
0.0
 10
11.458043077256944
 20
-92.894932725694431
 30
0.0
 10
11.599119737413194
 20
-93.033425564236097
 30
0.0
  0
LINE
  5
91
100
AcDbEntity
  8
LIVELLO_1
 62
     7
100
AcDbLine
 10
13.181797
 20
-81.577105
 30
0.0
 11
11.080116
 21
-82.299886
 31
0.0
  0
LINE
  5
90
100
AcDbEntity
  8
LIVELLO_1
 62
     7
100
AcDbLine
 10
13.329074
 20
-81.976736
 30
0.0
 11
11.215853
 21
-82.663688
 31
0.0
  0
LINE
  5
8F
100
AcDbEntity
  8
LIVELLO_1
 62
     7
100
AcDbLine
 10
13.987777
 20
-84.252566
 30
0.0
 11
11.805481
 21
-84.706285
 31
0.0
  0
LINE
  5
8E
100
AcDbEntity
  8
LIVELLO_1
 62
     7
100
AcDbLine
 10
13.894242
 20
-83.840188
 30
0.0
 11
12.467973
 21
-84.160582
 31
0.0
  0
LINE
  5
8D
100
AcDbEntity
  8
LIVELLO_1
 62
     7
100
AcDbLine
 10
12.899816
 20
-83.222483
 30
0.0
 11
11.533663
 21
-83.578706
 31
0.0
  0
LINE
  5
8C
100
AcDbEntity
  8
LIVELLO_1
 62
     7
100
AcDbLine
 10
13.570059
 20
-82.612356
 30
0.0
 11
11.418424
 21
-83.209736
 31
0.0
  0
LINE
  5
8B
100
AcDbEntity
  8
LIVELLO_1
 62
     7
100
AcDbLine
 10
14.135227
 20
-84.947442
 30
0.0
 11
11.928471
 21
-85.272659
 31
0.0
  0
LINE
  5
8A
100
AcDbEntity
  8
LIVELLO_1
 62
     7
100
AcDbLine
 10
14.201717
 20
-85.367744
 30
0.0
 11
11.988588
 21
-85.651964
 31
0.0
  0
LINE
  5
89
100
AcDbEntity
  8
LIVELLO_1
 62
     7
100
AcDbLine
 10
12.125703
 20
-87.689738
 30
0.0
 11
14.355541
 21
-87.607745
 31
0.0
  0
LINE
  5
88
100
AcDbEntity
  8
LIVELLO_1
 62
     7
100
AcDbLine
 10
12.110372
 20
-88.145869
 30
0.0
 11
14.33642
 21
-88.307444
 31
0.0
  0
LINE
  5
87
100
AcDbEntity
  8
LIVELLO_1
 62
     7
100
AcDbLine
 10
12.776826
 20
-91.577873
 30
0.0
 11
13.760917
 21
-91.834188
 31
0.0
  0
LINE
  5
86
100
AcDbEntity
  8
LIVELLO_1
 62
     7
100
AcDbLine
 10
12.614045
 20
-92.159405
 30
0.0
 11
12.902399
 21
-92.228651
 31
0.0
  0
SPLINE
  5
85
100
AcDbEntity
  8
LIVELLO_1
 62
     7
100
AcDbSpline
210
0.0
220
0.0
230
1.0
 70
     8
 71
     3
 72
     8
 73
     4
 74
     0
 42
0.00000001
 43
0.00000001
 40
0.0
 40
0.0
 40
0.0
 40
0.0
 40
1.0
 40
1.0
 40
1.0
 40
1.0
 10
13.760917154947915
 20
-91.834187825520829
 30
0.0
 10
13.734045410156249
 20
-91.926171874999994
 30
0.0
 10
13.707173665364582
 20
-92.018500434027771
 30
0.0
 10
13.681507703993054
 20
-92.108417426215269
 30
0.0
  0
SPLINE
  5
84
100
AcDbEntity
  8
LIVELLO_1
 62
     7
100
AcDbSpline
210
0.0
220
0.0
230
1.0
 70
     8
 71
     3
 72
     8
 73
     4
 74
     0
 42
0.00000001
 43
0.00000001
 40
0.0
 40
0.0
 40
0.0
 40
0.0
 40
1.0
 40
1.0
 40
1.0
 40
1.0
 10
14.336420355902776
 20
-88.307443576388877
 30
0.0
 10
14.324879286024304
 20
-88.435601128472214
 30
0.0
 10
14.314543999565972
 20
-88.563758680555551
 30
0.0
 10
14.304380967881944
 20
-88.691916232638874
 30
0.0
  0
SPLINE
  5
83
100
AcDbEntity
  8
LIVELLO_1
 62
     7
100
AcDbSpline
210
0.0
220
0.0
230
1.0
 70
     8
 71
     3
 72
     8
 73
     4
 74
     0
 42
0.00000001
 43
0.00000001
 40
0.0
 40
0.0
 40
0.0
 40
0.0
 40
1.0
 40
1.0
 40
1.0
 40
1.0
 10
14.346583387586804
 20
-86.918381076388883
 30
0.0
 10
14.346583387586804
 20
-87.148857964409714
 30
0.0
 10
14.350372992621526
 20
-87.379679361979157
 30
0.0
 10
14.355540635850693
 20
-87.607744683159709
 30
0.0
  0
SPLINE
  5
82
100
AcDbEntity
  8
LIVELLO_1
 62
     7
100
AcDbSpline
210
0.0
220
0.0
230
1.0
 70
     8
 71
     3
 72
     8
 73
     4
 74
     0
 42
0.00000001
 43
0.00000001
 40
0.0
 40
0.0
 40
0.0
 40
0.0
 40
1.0
 40
1.0
 40
1.0
 40
1.0
 10
11.988587782118055
 20
-85.651963975694443
 30
0.0
 10
11.97205132378472
 20
-85.526562499999997
 30
0.0
 10
11.950174967447916
 20
-85.39840494791666
 30
0.0
 10
11.928470865885416
 20
-85.272658962673603
 30
0.0
  0
SPLINE
  5
81
100
AcDbEntity
  8
LIVELLO_1
 62
     7
100
AcDbSpline
210
0.0
220
0.0
230
1.0
 70
     8
 71
     3
 72
     8
 73
     4
 74
     0
 42
0.00000001
 43
0.00000001
 40
0.0
 40
0.0
 40
0.0
 40
0.0
 40
1.0
 40
1.0
 40
1.0
 40
1.0
 10
11.533662923177083
 20
-83.578705512152766
 30
0.0
 10
11.50041775173611
 20
-83.452959526909709
 30
0.0
 10
11.46321072048611
 20
-83.329969618055543
 30
0.0
 10
11.428587510850694
 20
-83.204568142361097
 30
0.0
  0
SPLINE
  5
80
100
AcDbEntity
  8
LIVELLO_1
 62
     7
100
AcDbSpline
210
0.0
220
0.0
230
1.0
 70
     8
 71
     3
 72
     8
 73
     4
 74
     0
 42
0.00000001
 43
0.00000001
 40
0.0
 40
0.0
 40
0.0
 40
0.0
 40
1.0
 40
1.0
 40
1.0
 40
1.0
 10
11.805480957031248
 20
-84.706285264756943
 30
0.0
 10
11.779814995659722
 20
-84.580883789062497
 30
0.0
 10
11.750359429253471
 20
-84.45513780381944
 30
0.0
 10
11.723315429687499
 20
-84.329736328124994
 30
0.0
  0
SPLINE
  5
7F
100
AcDbEntity
  8
LIVELLO_1
 62
     7
100
AcDbSpline
210
0.0
220
0.0
230
1.0
 70
     8
 71
     3
 72
     8
 73
     4
 74
     0
 42
0.00000001
 43
0.00000001
 40
0.0
 40
0.0
 40
0.0
 40
0.0
 40
1.0
 40
1.0
 40
1.0
 40
1.0
 10
11.215852864583333
 20
-82.663688151041654
 30
0.0
 10
11.172272406684026
 20
-82.540698242187489
 30
0.0
 10
11.127486165364582
 20
-82.420119900173603
 30
0.0
 10
11.080116102430555
 20
-82.299886067708329
 30
0.0
  0
SPLINE
  5
7E
100
AcDbEntity
  8
LIVELLO_1
 62
     7
100
AcDbSpline
210
0.0
220
0.0
230
1.0
 70
     8
 71
     3
 72
     8
 73
     4
 74
     0
 42
0.00000001
 43
0.00000001
 40
0.0
 40
0.0
 40
0.0
 40
0.0
 40
1.0
 40
1.0
 40
1.0
 40
1.0
 10
12.110371907552082
 20
-88.145868598090274
 30
0.0
 10
12.100208875868054
 20
-88.289529079861097
 30
0.0
 10
12.088667805989582
 20
-88.430433485243043
 30
0.0
 10
12.07833251953125
 20
-88.568926323784709
 30
0.0
  0
SPLINE
  5
7D
100
AcDbEntity
  8
LIVELLO_1
 62
     7
100
AcDbSpline
210
0.0
220
0.0
230
1.0
 70
     8
 71
     3
 72
     8
 73
     4
 74
     0
 42
0.00000001
 43
0.00000001
 40
0.0
 40
0.0
 40
0.0
 40
0.0
 40
1.0
 40
1.0
 40
1.0
 40
1.0
 10
12.114161512586804
 20
-87.118196614583326
 30
0.0
 10
12.115539550781248
 20
-87.30767686631944
 30
0.0
 10
12.120707194010416
 20
-87.499913194444431
 30
0.0
 10
12.125702582465276
 20
-87.689737955729157
 30
0.0
  0
SPLINE
  5
7C
100
AcDbEntity
  8
LIVELLO_1
 62
     7
100
AcDbSpline
210
0.0
220
0.0
230
1.0
 70
     8
 71
     3
 72
     8
 73
     4
 74
     0
 42
0.00000001
 43
0.00000001
 40
0.0
 40
0.0
 40
0.0
 40
0.0
 40
1.0
 40
1.0
 40
1.0
 40
1.0
 10
14.201717122395833
 20
-85.367743598090271
 30
0.0
 10
14.180013020833332
 20
-85.226839192708326
 30
0.0
 10
14.158136664496526
 20
-85.08834635416666
 30
0.0
 10
14.135226779513888
 20
-84.947441948784714
 30
0.0
  0
LINE
  5
7B
100
AcDbEntity
  8
LIVELLO_1
 62
     7
100
AcDbLine
 10
-28.481982
 20
-79.460094
 30
0.0
 11
-28.481982
 21
-81.000396
 31
0.0
  0
LINE
  5
7A
100
AcDbEntity
  8
LIVELLO_1
 62
     7
100
AcDbLine
 10
-28.481982
 20
-94.663645
 30
0.0
 11
-28.481982
 21
-96.203947
 31
0.0
  0
ELLIPSE
  5
79
100
AcDbEntity
  8
LIVELLO_1
 62
     7
100
AcDbEllipse
 10
-4.361922
 20
-87.833054
 30
0.0
 11
25.1504889594184
 21
0.0
 31
0.0
210
0.0
220
0.0
230
1.0
 40
0.958622
 41
0.0
 42
6.2831853071795862
  0
ELLIPSE
  5
78
100
AcDbEntity
  8
LIVELLO_1
 62
     7
100
AcDbEllipse
 10
-4.360543
 20
-87.833054
 30
0.0
 11
23.685806613498261
 21
0.0
 31
0.0
210
0.0
220
0.0
230
1.0
 40
0.9585
 41
0.0
 42
6.2831853071795862
  0
LINE
  5
77
100
AcDbEntity
  8
LIVELLO_1
 62
     7
100
AcDbLine
 10
-59.051865
 20
-106.614681
 30
0.0
 11
-58.466199
 21
-106.58402
 31
0.0
  0
LINE
  5
76
100
AcDbEntity
  8
LIVELLO_1
 62
     7
100
AcDbLine
 10
-59.051865
 20
-69.051771
 30
0.0
 11
-58.466199
 21
-69.080021
 31
0.0
  0
LINE
  5
75
100
AcDbEntity
  8
LIVELLO_1
 62
     7
100
AcDbLine
 10
-59.051865
 20
-69.051771
 30
0.0
 11
-59.051865
 21
-106.614681
 31
0.0
  0
ELLIPSE
  5
74
100
AcDbEntity
  8
LIVELLO_1
 62
     7
100
AcDbEllipse
 10
-4.361233
 20
-87.833054
 30
0.0
 11
21.933286539713539
 21
0.0
 31
0.0
210
0.0
220
0.0
230
1.0
 40
0.958655
 41
0.0
 42
6.2831853071795862
  0
ELLIPSE
  5
73
100
AcDbEntity
  8
LIVELLO_1
 62
     7
100
AcDbEllipse
 10
-4.361835
 20
-104.930718
 30
0.0
 11
2.0465589735243053
 21
0.0
 31
0.0
210
0.0
220
0.0
230
1.0
 40
0.959179
 41
0.0
 42
6.2831853071795862
  0
ELLIPSE
  5
72
100
AcDbEntity
  8
LIVELLO_1
 62
     7
100
AcDbEllipse
 10
-4.361835
 20
-70.732978
 30
0.0
 11
2.0465589735243053
 21
0.0
 31
0.0
210
0.0
220
0.0
230
1.0
 40
0.959179
 41
0.0
 42
6.2831853071795862
  0
ELLIPSE
  5
71
100
AcDbEntity
  8
LIVELLO_1
 62
     7
100
AcDbEllipse
 10
-4.361922
 20
-87.833054
 30
0.0
 11
13.627333577473957
 21
0.0
 31
0.0
210
0.0
220
0.0
230
1.0
 40
0.958622
 41
0.0
 42
6.2831853071795862
  0
LINE
  5
70
100
AcDbEntity
  8
LIVELLO_1
 62
     7
100
AcDbLine
 10
-29.417498
 20
-78.301508
 30
0.0
 11
-29.417498
 21
-85.723966
 31
0.0
  0
LINE
  5
6F
100
AcDbEntity
  8
LIVELLO_1
 62
     7
100
AcDbLine
 10
-28.901078
 20
-97.321191
 30
0.0
 11
-28.901078
 21
-93.118175
 31
0.0
  0
LINE
  5
6E
100
AcDbEntity
  8
LIVELLO_1
 62
     7
100
AcDbLine
 10
-28.901078
 20
-97.321191
 30
0.0
 11
-28.481982
 21
-96.203947
 31
0.0
  0
LINE
  5
6D
100
AcDbEntity
  8
LIVELLO_1
 62
     7
100
AcDbLine
 10
-31.630627
 20
-103.482745
 30
0.0
 11
-31.630627
 21
-72.183708
 31
0.0
  0
LINE
  5
6C
100
AcDbEntity
  8
LIVELLO_1
 62
     7
100
AcDbLine
 10
-30.782273
 20
-75.218148
 30
0.0
 11
-30.782273
 21
-100.445549
 31
0.0
  0
LINE
  5
6B
100
AcDbEntity
  8
LIVELLO_1
 62
     7
100
AcDbLine
 10
-30.267059
 20
-100.404552
 30
0.0
 11
-30.267059
 21
-75.259144
 31
0.0
  0
LINE
  5
6A
100
AcDbEntity
  8
LIVELLO_1
 62
     7
100
AcDbLine
 10
-29.417498
 20
-89.940074
 30
0.0
 11
-29.417498
 21
-97.364944
 31
0.0
  0
LINE
  5
69
100
AcDbEntity
  8
LIVELLO_1
 62
     7
100
AcDbLine
 10
-28.901078
 20
-82.545866
 30
0.0
 11
-28.901078
 21
-78.344916
 31
0.0
  0
LINE
  5
68
100
AcDbEntity
  8
LIVELLO_1
 62
     7
100
AcDbLine
 10
-30.782273
 20
-100.445549
 30
0.0
 11
-30.267059
 21
-100.404552
 31
0.0
  0
POLYLINE
  5
63
100
AcDbEntity
  8
LIVELLO_1
 62
     7
100
AcDb2dPolyline
 66
     1
 10
0.0
 20
0.0
 30
0.0
  0
VERTEX
  5
64
100
AcDbEntity
  8
LIVELLO_1
 62
     7
100
AcDbVertex
100
AcDb2dVertex
 10
-30.267059
 20
-100.404552
 30
0.0
  0
VERTEX
  5
65
100
AcDbEntity
  8
LIVELLO_1
 62
     7
100
AcDbVertex
100
AcDb2dVertex
 10
-29.417498
 20
-97.364944
 30
0.0
  0
VERTEX
  5
66
100
AcDbEntity
  8
LIVELLO_1
 62
     7
100
AcDbVertex
100
AcDb2dVertex
 10
-28.901078
 20
-97.321191
 30
0.0
  0
SEQEND
  5
67
100
AcDbEntity
  8
LIVELLO_1
 62
     7
  0
LINE
  5
62
100
AcDbEntity
  8
LIVELLO_1
 62
     7
100
AcDbLine
 10
-32.145841
 20
-103.526153
 30
0.0
 11
-31.630627
 21
-103.482745
 31
0.0
  0
LINE
  5
61
100
AcDbEntity
  8
LIVELLO_1
 62
     7
100
AcDbLine
 10
-31.630627
 20
-103.482745
 30
0.0
 11
-30.782273
 21
-100.445549
 31
0.0
  0
LINE
  5
60
100
AcDbEntity
  8
LIVELLO_1
 62
     7
100
AcDbLine
 10
-30.782273
 20
-75.218148
 30
0.0
 11
-30.267059
 21
-75.259144
 31
0.0
  0
POLYLINE
  5
5B
100
AcDbEntity
  8
LIVELLO_1
 62
     7
100
AcDb2dPolyline
 66
     1
 10
0.0
 20
0.0
 30
0.0
  0
VERTEX
  5
5C
100
AcDbEntity
  8
LIVELLO_1
 62
     7
100
AcDbVertex
100
AcDb2dVertex
 10
-30.267059
 20
-75.259144
 30
0.0
  0
VERTEX
  5
5D
100
AcDbEntity
  8
LIVELLO_1
 62
     7
100
AcDbVertex
100
AcDb2dVertex
 10
-29.417498
 20
-78.301508
 30
0.0
  0
VERTEX
  5
5E
100
AcDbEntity
  8
LIVELLO_1
 62
     7
100
AcDbVertex
100
AcDb2dVertex
 10
-28.901078
 20
-78.344916
 30
0.0
  0
SEQEND
  5
5F
100
AcDbEntity
  8
LIVELLO_1
 62
     7
  0
LINE
  5
5A
100
AcDbEntity
  8
LIVELLO_1
 62
     7
100
AcDbLine
 10
-28.901078
 20
-78.344916
 30
0.0
 11
-28.481982
 21
-79.460094
 31
0.0
  0
LINE
  5
59
100
AcDbEntity
  8
LIVELLO_1
 62
     7
100
AcDbLine
 10
-32.145841
 20
-72.139955
 30
0.0
 11
-31.630627
 21
-72.183708
 31
0.0
  0
LINE
  5
58
100
AcDbEntity
  8
LIVELLO_1
 62
     7
100
AcDbLine
 10
-31.630627
 20
-72.183708
 30
0.0
 11
-30.782273
 21
-75.218148
 31
0.0
  0
LINE
  5
57
100
AcDbEntity
  8
LIVELLO_1
 62
     7
100
AcDbLine
 10
-52.32411
 20
-87.113029
 30
0.0
 11
-53.253252
 21
-87.159193
 31
0.0
  0
LINE
  5
56
100
AcDbEntity
  8
LIVELLO_1
 62
     7
100
AcDbLine
 10
-52.32411
 20
-88.551012
 30
0.0
 11
-53.253252
 21
-88.504848
 31
0.0
  0
LINE
  5
55
100
AcDbEntity
  8
LIVELLO_1
 62
     7
100
AcDbLine
 10
-53.253252
 20
-87.159193
 30
0.0
 11
-53.253252
 21
-88.504848
 31
0.0
  0
LINE
  5
54
100
AcDbEntity
  8
LIVELLO_1
 62
     7
100
AcDbLine
 10
-34.776689
 20
-87.113029
 30
0.0
 11
-52.32411
 21
-87.113029
 31
0.0
  0
LINE
  5
53
100
AcDbEntity
  8
LIVELLO_1
 62
     7
100
AcDbLine
 10
-35.413515
 20
-87.441002
 30
0.0
 11
-35.413515
 21
-88.22545
 31
0.0
  0
LINE
  5
52
100
AcDbEntity
  8
LIVELLO_1
 62
     7
100
AcDbLine
 10
-34.776689
 20
-88.551012
 30
0.0
 11
-52.32411
 21
-88.551012
 31
0.0
  0
SPLINE
  5
51
100
AcDbEntity
  8
LIVELLO_1
 62
     7
100
AcDbSpline
210
0.0
220
0.0
230
1.0
 70
     8
 71
     3
 72
     8
 73
     4
 74
     0
 42
0.00000001
 43
0.00000001
 40
0.0
 40
0.0
 40
0.0
 40
0.0
 40
1.0
 40
1.0
 40
1.0
 40
1.0
 10
-35.413514539930553
 20
-87.441002061631934
 30
0.0
 10
-35.413514539930553
 20
-87.284594726562489
 30
0.0
 10
-35.544255913628469
 20
-87.159193250868043
 30
0.0
 10
-35.704452853732633
 20
-87.159193250868043
 30
0.0
  0
LINE
  5
50
100
AcDbEntity
  8
LIVELLO_1
 62
     7
100
AcDbLine
 10
-53.253252
 20
-87.159193
 30
0.0
 11
-35.704453
 21
-87.159193
 31
0.0
  0
SPLINE
  5
4F
100
AcDbEntity
  8
LIVELLO_1
 62
     7
100
AcDbSpline
210
0.0
220
0.0
230
1.0
 70
     8
 71
     3
 72
    11
 73
     7
 74
     0
 42
0.00000001
 43
0.00000001
 40
0.0
 40
0.0
 40
0.0
 40
0.0
 40
1.0
 40
1.0
 40
1.0
 40
2.0
 40
2.0
 40
2.0
 40
2.0
 10
-53.253252495659716
 20
-88.504847547743054
 30
0.0
 10
-53.253252495659716
 20
-88.504847547743054
 30
0.0
 10
-35.704452853732633
 20
-88.504847547743054
 30
0.0
 10
-35.704452853732633
 20
-88.504847547743054
 30
0.0
 10
-35.544255913628469
 20
-88.504847547743054
 30
0.0
 10
-35.413514539930553
 20
-88.379101562499997
 30
0.0
 10
-35.413514539930553
 20
-88.225450303819443
 30
0.0
  0
SPLINE
  5
4E
100
AcDbEntity
  8
LIVELLO_1
 62
     7
100
AcDbSpline
210
0.0
220
0.0
230
1.0
 70
     8
 71
     3
 72
     8
 73
     4
 74
     0
 42
0.00000001
 43
0.00000001
 40
0.0
 40
0.0
 40
0.0
 40
0.0
 40
1.0
 40
1.0
 40
1.0
 40
1.0
 10
-34.776688639322913
 20
-88.551011827256943
 30
0.0
 10
-34.615285915798609
 20
-88.551011827256943
 30
0.0
 10
-34.484544542100693
 20
-88.427677408854166
 30
0.0
 10
-34.484544542100693
 20
-88.271614583333331
 30
0.0
  0
SPLINE
  5
4D
100
AcDbEntity
  8
LIVELLO_1
 62
     7
100
AcDbSpline
210
0.0
220
0.0
230
1.0
 70
     8
 71
     3
 72
     8
 73
     4
 74
     0
 42
0.00000001
 43
0.00000001
 40
0.0
 40
0.0
 40
0.0
 40
0.0
 40
1.0
 40
1.0
 40
1.0
 40
1.0
 10
-34.484544542100693
 20
-87.392426215277766
 30
0.0
 10
-34.484544542100693
 20
-87.238774956597211
 30
0.0
 10
-34.615285915798609
 20
-87.113028971354154
 30
0.0
 10
-34.776688639322913
 20
-87.113028971354154
 30
0.0
  0
LINE
  5
4C
100
AcDbEntity
  8
LIVELLO_1
 62
     7
100
AcDbLine
 10
-34.484545
 20
-87.392426
 30
0.0
 11
-34.484545
 21
-88.271615
 31
0.0
  0
LINE
  5
4B
100
AcDbEntity
  8
LIVELLO_1
 62
     7
100
AcDbLine
 10
-58.466199
 20
-108.01649
 30
0.0
 11
-50.148188
 21
-107.875586
 31
0.0
  0
SPLINE
  5
4A
100
AcDbEntity
  8
LIVELLO_1
 62
     7
100
AcDbSpline
210
0.0
220
0.0
230
1.0
 70
     8
 71
     3
 72
     8
 73
     4
 74
     0
 42
0.00000001
 43
0.00000001
 40
0.0
 40
0.0
 40
0.0
 40
0.0
 40
1.0
 40
1.0
 40
1.0
 40
1.0
 10
-50.148187934027774
 20
-107.87558593749999
 30
0.0
 10
-49.990574815538189
 20
-107.87317437065971
 30
0.0
 10
-49.862417263454859
 20
-107.74742838541665
 30
0.0
 10
-49.862417263454859
 20
-107.59618869357638
 30
0.0
  0
LINE
  5
49
100
AcDbEntity
  8
LIVELLO_1
 62
     7
100
AcDbLine
 10
-49.862417
 20
-107.294054
 30
0.0
 11
-49.862417
 21
-107.604112
 31
0.0
  0
LINE
  5
48
100
AcDbEntity
  8
LIVELLO_1
 62
     7
100
AcDbLine
 10
-53.561933
 20
-67.895942
 30
0.0
 11
-53.561933
 21
-107.768099
 31
0.0
  0
LINE
  5
47
100
AcDbEntity
  8
LIVELLO_1
 62
     7
100
AcDbLine
 10
-52.32411
 20
-88.551012
 30
0.0
 11
-52.32411
 21
-106.58402
 31
0.0
  0
LINE
  5
46
100
AcDbEntity
  8
LIVELLO_1
 62
     7
100
AcDbLine
 10
-52.32411
 20
-69.080021
 30
0.0
 11
-52.32411
 21
-87.113029
 31
0.0
  0
LINE
  5
45
100
AcDbEntity
  8
LIVELLO_1
 62
     7
100
AcDbLine
 10
-32.145841
 20
-103.974704
 30
0.0
 11
-32.145841
 21
-71.688992
 31
0.0
  0
LINE
  5
44
100
AcDbEntity
  8
LIVELLO_1
 62
     7
100
AcDbLine
 10
-53.253252
 20
-68.190498
 30
0.0
 11
-35.413515
 21
-69.0876
 31
0.0
  0
LINE
  5
43
100
AcDbEntity
  8
LIVELLO_1
 62
     7
100
AcDbLine
 10
-52.32411
 20
-69.080021
 30
0.0
 11
-33.807928
 21
-70.010197
 31
0.0
  0
LINE
  5
42
100
AcDbEntity
  8
LIVELLO_1
 62
     7
100
AcDbLine
 10
-35.413515
 20
-69.0876
 30
0.0
 11
-34.484545
 21
-69.977124
 31
0.0
  0
LINE
  5
41
100
AcDbEntity
  8
LIVELLO_1
 62
     7
100
AcDbLine
 10
-49.862417
 20
-68.372399
 30
0.0
 11
-49.862417
 21
-68.06234
 31
0.0
  0
SPLINE
  5
40
100
AcDbEntity
  8
LIVELLO_1
 62
     7
100
AcDbSpline
210
0.0
220
0.0
230
1.0
 70
     8
 71
     3
 72
     8
 73
     4
 74
     0
 42
0.00000001
 43
0.00000001
 40
0.0
 40
0.0
 40
0.0
 40
0.0
 40
1.0
 40
1.0
 40
1.0
 40
1.0
 10
-49.862417263454859
 20
-68.067507595486106
 30
0.0
 10
-49.862417263454859
 20
-67.916267903645831
 30
0.0
 10
-49.990574815538189
 20
-67.790866427951386
 30
0.0
 10
-50.148187934027774
 20
-67.788110351562494
 30
0.0
  0
LINE
  5
3F
100
AcDbEntity
  8
LIVELLO_1
 62
     7
100
AcDbLine
 10
-58.466199
 20
-67.649618
 30
0.0
 11
-50.148188
 21
-67.78811
 31
0.0
  0
POLYLINE
  5
3A
100
AcDbEntity
  8
LIVELLO_1
 62
     7
100
AcDb2dPolyline
 66
     1
 10
0.0
 20
0.0
 30
0.0
  0
VERTEX
  5
3B
100
AcDbEntity
  8
LIVELLO_1
 62
     7
100
AcDbVertex
100
AcDb2dVertex
 10
-53.253252
 20
-107.473199
 30
0.0
  0
VERTEX
  5
3C
100
AcDbEntity
  8
LIVELLO_1
 62
     7
100
AcDbVertex
100
AcDb2dVertex
 10
-35.413515
 20
-106.576096
 30
0.0
  0
VERTEX
  5
3D
100
AcDbEntity
  8
LIVELLO_1
 62
     7
100
AcDbVertex
100
AcDb2dVertex
 10
-34.484545
 20
-105.689328
 30
0.0
  0
SEQEND
  5
3E
100
AcDbEntity
  8
LIVELLO_1
 62
     7
  0
SPLINE
  5
39
100
AcDbEntity
  8
LIVELLO_1
 62
     7
100
AcDbSpline
210
0.0
220
0.0
230
1.0
 70
     8
 71
     3
 72
     8
 73
     4
 74
     0
 42
0.00000001
 43
0.00000001
 40
0.0
 40
0.0
 40
0.0
 40
0.0
 40
1.0
 40
1.0
 40
1.0
 40
1.0
 10
-32.145841471354167
 20
-71.6889919704861
 30
0.0
 10
-32.145841471354167
 20
-70.79464518229166
 30
0.0
 10
-32.876201714409717
 20
-70.059117296006931
 30
0.0
 10
-33.807927788628469
 20
-70.010196940104166
 30
0.0
  0
LINE
  5
38
100
AcDbEntity
  8
LIVELLO_1
 62
     7
100
AcDbLine
 10
-52.32411
 20
-69.080021
 30
0.0
 11
-53.561933
 21
-67.895942
 31
0.0
  0
LINE
  5
37
100
AcDbEntity
  8
LIVELLO_1
 62
     7
100
AcDbLine
 10
-58.466199
 20
-67.649618
 30
0.0
 11
-53.561933
 21
-67.895942
 31
0.0
  0
SPLINE
  5
36
100
AcDbEntity
  8
LIVELLO_1
 62
     7
100
AcDbSpline
210
0.0
220
0.0
230
1.0
 70
     8
 71
     3
 72
     8
 73
     4
 74
     0
 42
0.00000001
 43
0.00000001
 40
0.0
 40
0.0
 40
0.0
 40
0.0
 40
1.0
 40
1.0
 40
1.0
 40
1.0
 10
-33.807927788628469
 20
-105.65349934895832
 30
0.0
 10
-32.876201714409717
 20
-105.60733506944443
 30
0.0
 10
-32.145841471354167
 20
-104.86939561631944
 30
0.0
 10
-32.145841471354167
 20
-103.97470431857639
 30
0.0
  0
LINE
  5
35
100
AcDbEntity
  8
LIVELLO_1
 62
     7
100
AcDbLine
 10
-52.32411
 20
-106.58402
 30
0.0
 11
-53.561933
 21
-107.768099
 31
0.0
  0
LINE
  5
34
100
AcDbEntity
  8
LIVELLO_1
 62
     7
100
AcDbLine
 10
-52.32411
 20
-106.58402
 30
0.0
 11
-33.807928
 21
-105.653499
 31
0.0
  0
LINE
  5
33
100
AcDbEntity
  8
LIVELLO_1
 62
     7
100
AcDbLine
 10
-58.466199
 20
-108.01649
 30
0.0
 11
-53.561933
 21
-107.768099
 31
0.0
  0
LINE
  5
32
100
AcDbEntity
  8
LIVELLO_1
 62
     7
100
AcDbLine
 10
-58.466199
 20
-68.772374
 30
0.0
 11
-58.466199
 21
-67.649618
 31
0.0
  0
LINE
  5
31
100
AcDbEntity
  8
LIVELLO_1
 62
     7
100
AcDbLine
 10
-58.466199
 20
-108.01649
 30
0.0
 11
-58.466199
 21
-106.894078
 31
0.0
  0
ELLIPSE
  5
30
100
AcDbEntity
  8
LIVELLO_1
 62
     7
100
AcDbEllipse
 10
-4.361835
 20
-104.930718
 30
0.0
 11
2.1349256727430554
 21
0.0
 31
0.0
210
0.0
220
0.0
230
1.0
 40
0.957883
 41
0.0
 42
6.2831853071795862
  0
ELLIPSE
  5
2F
100
AcDbEntity
  8
LIVELLO_1
 62
     7
100
AcDbEllipse
 10
-4.361835
 20
-104.930718
 30
0.0
 11
1.3160264756944444
 21
0.0
 31
0.0
210
0.0
220
0.0
230
1.0
 40
0.958115
 41
0.0
 42
6.2831853071795862
  0
ELLIPSE
  5
2E
100
AcDbEntity
  8
LIVELLO_1
 62
     7
100
AcDbEllipse
 10
-4.361835
 20
-70.732978
 30
0.0
 11
2.1349256727430554
 21
0.0
 31
0.0
210
0.0
220
0.0
230
1.0
 40
0.958044
 41
0.0
 42
6.2831853071795862
  0
ELLIPSE
  5
2D
100
AcDbEntity
  8
LIVELLO_1
 62
     7
100
AcDbEllipse
 10
-4.361835
 20
-70.732978
 30
0.0
 11
1.3160264756944444
 21
0.0
 31
0.0
210
0.0
220
0.0
230
1.0
 40
0.958115
 41
0.0
 42
6.2831853071795862
  0
LINE
  5
2C
100
AcDbEntity
  8
LIVELLO_1
 62
     7
100
AcDbLine
 10
-58.466199
 20
-106.894078
 30
0.0
 11
-58.466199
 21
-68.772374
 31
0.0
  0
ENDBLK
  5
1AE
100
AcDbEntity
  8
LIVELLO_1
100
AcDbBlockEnd
  0
ENDSEC
  0
SECTION
  2
ENTITIES
  0
INSERT
  5
2A
100
AcDbEntity
  8
LIVELLO_1
 62
     7
100
AcDbBlockReference
  2
AI9-BLK1
 10
59.470961
 20
144.293346
 30
0.0
  0
ENDSEC
  0
SECTION
  2
OBJECTS
  0
DICTIONARY
  5
19
100
AcDbDictionary
280
     0
281
     1
  3
ACAD_GROUP
350
1A
  3
ACAD_MLINESTYLE
350
1B
  3
ACAD_LAYOUT
350
1E
  3
ACAD_PLOTSETTINGS
350
22
  3
ACAD_PLOTSTYLENAME
350
1F
  3
ACAD_WIPEOUT_VARS
350
23
  0
DICTIONARY
  5
1A
102
{ACAD_REACTORS
330
19
102
}
100
AcDbDictionary
280
     0
281
     1
  0
DICTIONARY
  5
1B
102
{ACAD_REACTORS
330
19
102
}
100
AcDbDictionary
280
     0
281
     1
  3
Standard
350
1C
  0
MLINESTYLE
  5
1C
102
{ACAD_REACTORS
330
1B
102
}
100
AcDbMlineStyle
  2
Standard
 70
     0
  3

 62
     0
 51
90.0
 52
90.0
 71
     2
 49
0.5
 62
   256
  6
ByLayer
 49
-0.5
 62
   256
  6
ByLayer
  0
ACDBDICTIONARYWDFLT
  5
1F
102
{ACAD_REACTORS
330
19
102
}
100
AcDbDictionary
281
     1
  3
Normal
350
1D
100
AcDbDictionaryWithDefault
340
1D
  0
ACDBPLACEHOLDER
  5
1D
102
{ACAD_REACTORS
330
1F
102
}
  0
LAYOUT
  5
20
102
{ACAD_REACTORS
330
1E
102
}
100
AcDbPlotSettings
  1

  2

  4

  6

 40
0.0
 41
0.0
 42
0.0
 43
0.0
 44
0.0
 45
0.0
 46
0.0
 47
0.0
 48
0.0
 49
0.0
140
0.0
141
0.0
142
1.0
143
1.0
 70
  1024
 72
     0
 73
     0
 74
     0
  7

 75
     0
147
1.0
148
0.0
149
0.0
100
AcDbLayout
  1
Model
 70
     0
 71
     0
 10
0.0
 20
0.0
 11
0.0
 21
0.0
 12
0.0
 22
0.0
 32
0.0
 14
0.0
 24
0.0
 34
0.0
 15
0.0
 25
0.0
 35
0.0
146
0.0
 13
0.0
 23
0.0
 33
0.0
 16
0.0
 26
0.0
 36
0.0
 17
0.0
 27
0.0
 37
0.0
 76
     0
330
A
331
0
345
0
346
0
  0
LAYOUT
  5
21
102
{ACAD_REACTORS
330
1E
102
}
100
AcDbPlotSettings
  1

  2

  4

  6

 40
0.0
 41
0.0
 42
0.0
 43
0.0
 44
0.0
 45
0.0
 46
0.0
 47
0.0
 48
0.0
 49
0.0
140
0.0
141
0.0
142
1.0
143
1.0
 70
     0
 72
     0
 73
     0
 74
     0
  7

 75
     0
147
1.0
148
0.0
149
0.0
100
AcDbLayout
  1
Layout1
 70
     0
 71
     0
 10
0.0
 20
0.0
 11
0.0
 21
0.0
 12
0.0
 22
0.0
 32
0.0
 14
0.0
 24
0.0
 34
0.0
 15
0.0
 25
0.0
 35
0.0
146
0.0
 13
0.0
 23
0.0
 33
0.0
 16
0.0
 26
0.0
 36
0.0
 17
0.0
 27
0.0
 37
0.0
 76
     0
330
B
331
0
345
0
346
0
  0
DICTIONARY
  5
1E
102
{ACAD_REACTORS
330
19
102
}
100
AcDbDictionary
280
     0
281
     1
  3
Layout1
350
21
  3
Model
350
20
  0
DICTIONARY
  5
22
102
{ACAD_REACTORS
330
19
102
}
100
AcDbDictionary
280
     0
281
     1
  0
WIPEOUTVARIABLES
  5
23
100
AcDbWipeoutVariables
 70
     1
  0
ENDSEC
  0
EOF
