  0
SECTION
  2
HEADER
  9
$ACADVER
  1
AC1015
  9
$ACADMAINTVER
 70
     6
  9
$DWGCODEPAGE
  3
ANSI_932
  9
$INSBASE
 10
0.0
 20
0.0
 30
0.0
  9
$EXTMIN
 10
-0.169326
 20
0.0
 30
1.000000E+20
  9
$EXTMAX
 10
87.378129
 20
218.594581
 30
-1.000000E+20
  9
$LIMMIN
 10
-0.169326
 20
0.0
  9
$LIMMAX
 10
87.378129
 20
218.594581
  9
$ORTHOMODE
 70
     0
  9
$REGENMODE
 70
     1
  9
$FILLMODE
 70
     1
  9
$QTEXTMODE
 70
     0
  9
$MIRRTEXT
 70
     1
  9
$LTSCALE
 40
1.0
  9
$ATTMODE
 70
     1
  9
$TEXTSIZE
 40
0.2
  9
$TRACEWID
 40
0.05
  9
$TEXTSTYLE
  7
Standard
  9
$CLAYER
  8
0
  9
$CELTYPE
  6
Continuous
  9
$CECOLOR
 62
   256
  9
$CELTSCALE
 40
1.0
  9
$DISPSILH
 70
     0
  9
$DIMSCALE
 40
1.0
  9
$DIMASZ
 40
0.18
  9
$DIMEXO
 40
0.0625
  9
$DIMDLI
 40
0.38
  9
$DIMRND
 40
0.0
  9
$DIMDLE
 40
0.0
  9
$DIMEXE
 40
0.18
  9
$DIMTP
 40
0.0
  9
$DIMTM
 40
0.0
  9
$DIMTXT
 40
0.18
  9
$DIMCEN
 40
0.09
  9
$DIMTSZ
 40
0.0
  9
$DIMTOL
 70
     0
  9
$DIMLIM
 70
     0
  9
$DIMTIH
 70
     1
  9
$DIMTOH
 70
     1
  9
$DIMSE1
 70
     0
  9
$DIMSE2
 70
     0
  9
$DIMTAD
 70
     0
  9
$DIMZIN
 70
     0
  9
$DIMBLK
  1

  9
$DIMASO
 70
     1
  9
$DIMSHO
 70
     1
  9
$DIMPOST
  1

  9
$DIMAPOST
  1

  9
$DIMALT
 70
     0
  9
$DIMALTD
 70
     2
  9
$DIMALTF
 40
25.4
  9
$DIMLFAC
 40
1.0
  9
$DIMTOFL
 70
     0
  9
$DIMTVP
 40
0.0
  9
$DIMTIX
 70
     0
  9
$DIMSOXD
 70
     0
  9
$DIMSAH
 70
     0
  9
$DIMBLK1
  1

  9
$DIMBLK2
  1

  9
$DIMSTYLE
  2
Standard
  9
$DIMCLRD
 70
     0
  9
$DIMCLRE
 70
     0
  9
$DIMCLRT
 70
     0
  9
$DIMTFAC
 40
1.0
  9
$DIMGAP
 40
0.09
  9
$DIMJUST
 70
     0
  9
$DIMSD1
 70
     0
  9
$DIMSD2
 70
     0
  9
$DIMTOLJ
 70
     1
  9
$DIMTZIN
 70
     0
  9
$DIMALTZ
 70
     0
  9
$DIMALTTZ
 70
     0
  9
$DIMUPT
 70
     0
  9
$DIMDEC
 70
     4
  9
$DIMTDEC
 70
     4
  9
$DIMALTU
 70
     2
  9
$DIMALTTD
 70
     2
  9
$DIMTXSTY
  7
Standard
  9
$DIMAUNIT
 70
     0
  9
$DIMADEC
 70
     0
  9
$DIMALTRND
 40
0.0
  9
$DIMAZIN
 70
     0
  9
$DIMDSEP
 70
     0
  9
$DIMATFIT
 70
     3
  9
$DIMFRAC
 70
     0
  9
$DIMLDRBLK
  1

  9
$DIMLUNIT
 70
     2
  9
$DIMLWD
 70
     0
  9
$DIMLWE
 70
     0
  9
$DIMTMOVE
 70
     0
  9
$LUNITS
 70
     2
  9
$LUPREC
 70
     4
  9
$SKETCHINC
 40
0.1
  9
$FILLETRAD
 40
0.0
  9
$AUNITS
 70
     0
  9
$AUPREC
 70
     0
  9
$MENU
  1
acad
  9
$ELEVATION
 40
0.0
  9
$PELEVATION
 40
0.0
  9
$THICKNESS
 40
0.0
  9
$LIMCHECK
 70
     0
  9
$CHAMFERA
 40
0.0
  9
$CHAMFERB
 40
0.0
  9
$CHAMFERC
 40
0.0
  9
$CHAMFERD
 40
0.0
  9
$SKPOLY
 70
     0
  9
$TDCREATE
 40
0.000000000
  9
$TDUCREATE
 40
0.000000000
  9
$TDUPDATE
 40
0.000000000
  9
$TDUUPDATE
 40
0.000000000
  9
$TDINDWG
 40
0.0000000000
  9
$TDUSRTIMER
 40
0.0000000000
  9
$USRTIMER
 70
     1
  9
$ANGBASE
 50
0.0
  9
$ANGDIR
 70
     0
  9
$PDMODE
 70
     0
  9
$PDSIZE
 40
0.0
  9
$PLINEWID
 40
0.0
  9
$SPLFRAME
 70
     0
  9
$SPLINETYPE
 70
     6
  9
$SPLINESEGS
 70
     8
  9
$HANDSEED
  5
C3
  9
$SURFTAB1
 70
     6
  9
$SURFTAB2
 70
     6
  9
$SURFTYPE
 70
     6
  9
$SURFU
 70
     6
  9
$SURFV
 70
     6
  9
$UCSBASE
  2

  9
$UCSNAME
  2

  9
$UCSORG
 10
0.0
 20
0.0
 30
0.0
  9
$UCSXDIR
 10
1.0
 20
0.0
 30
0.0
  9
$UCSYDIR
 10
0.0
 20
1.0
 30
0.0
  9
$UCSORTHOREF
  2

  9
$UCSORTHOVIEW
 70
     0
  9
$UCSORGTOP
 10
0.0
 20
0.0
 30
0.0
  9
$UCSORGBOTTOM
 10
0.0
 20
0.0
 30
0.0
  9
$UCSORGLEFT
 10
0.0
 20
0.0
 30
0.0
  9
$UCSORGRIGHT
 10
0.0
 20
0.0
 30
0.0
  9
$UCSORGFRONT
 10
0.0
 20
0.0
 30
0.0
  9
$UCSORGBACK
 10
0.0
 20
0.0
 30
0.0
  9
$PUCSBASE
  2

  9
$PUCSNAME
  2

  9
$PUCSORG
 10
0.0
 20
0.0
 30
0.0
  9
$PUCSXDIR
 10
1.0
 20
0.0
 30
0.0
  9
$PUCSYDIR
 10
0.0
 20
1.0
 30
0.0
  9
$PUCSORTHOREF
  2

  9
$PUCSORTHOVIEW
 70
     0
  9
$PUCSORGTOP
 10
0.0
 20
0.0
 30
0.0
  9
$PUCSORGBOTTOM
 10
0.0
 20
0.0
 30
0.0
  9
$PUCSORGLEFT
 10
0.0
 20
0.0
 30
0.0
  9
$PUCSORGRIGHT
 10
0.0
 20
0.0
 30
0.0
  9
$PUCSORGFRONT
 10
0.0
 20
0.0
 30
0.0
  9
$PUCSORGBACK
 10
0.0
 20
0.0
 30
0.0
  9
$USERI1
 70
     0
  9
$USERI2
 70
     0
  9
$USERI3
 70
     0
  9
$USERI4
 70
     0
  9
$USERI5
 70
     0
  9
$USERR1
 40
0.0
  9
$USERR2
 40
0.0
  9
$USERR3
 40
0.0
  9
$USERR4
 40
0.0
  9
$USERR5
 40
0.0
  9
$WORLDVIEW
 70
     1
  9
$SHADEDGE
 70
     3
  9
$SHADEDIF
 70
    70
  9
$TILEMODE
 70
     1
  9
$MAXACTVP
 70
    16
  9
$PINSBASE
 10
0.0
 20
0.0
 30
0.0
  9
$PLIMCHECK
 70
     0
  9
$PEXTMIN
 10
1.000000E+20
 20
1.000000E+20
 30
1.000000E+20
  9
$PEXTMAX
 10
-1.000000E+20
 20
-1.000000E+20
 30
-1.000000E+20
  9
$PLIMMIN
 10
0.0
 20
0.0
  9
$PLIMMAX
 10
12.0
 20
9.0
  9
$UNITMODE
 70
     0
  9
$VISRETAIN
 70
     0
  9
$PLINEGEN
 70
     1
  9
$PSLTSCALE
 70
     0
  9
$TREEDEPTH
 70
  3020
  9
$CMLSTYLE
  2
Standard
  9
$CMLJUST
 70
     0
  9
$CMLSCALE
 40
1.0
  9
$PROXYGRAPHICS
 70
     0
  9
$MEASUREMENT
 70
     1
  9
$CELWEIGHT
370
     0
  9
$ENDCAPS
280
     0
  9
$JOINSTYLE
280
     0
  9
$LWDISPLAY
290
     0
  9
$INSUNITS
 70
     0
  9
$HYPERLINKBASE
  1

  9
$STYLESHEET
  1

  9
$XEDIT
290
     1
  9
$CEPSNTYPE
380
     0
  9
$PSTYLEMODE
290
     1
  9
$FINGERPRINTGUID
  2

  9
$VERSIONGUID
  2

  9
$EXTNAMES
290
     1
  9
$PSVPSCALE
 40
0.0
  0
ENDSEC
  0
SECTION
  2
CLASSES
  0
CLASS
  1
LWPOLYLINE
  2
AcDbPolyline
  3
AutoCAD 2000
 90
    32768
280
     0
281
     1
  0
CLASS
  1
IMAGE
  2
AcDbRasterImage
  3
ISM
 90
    32895
280
     0
281
     1
  0
CLASS
  1
OLE2FRAME
  2
AcDbOle2Frame
  3
AutoCAD 2000
 90
    32768
280
     0
281
     1
  0
CLASS
  1
HATCH
  2
AcDbHatch
  3
AutoCAD 2000
 90
    32768
280
     0
281
     1
  0
CLASS
  1
DICTIONARYVAR
  2
AcDbDictionaryVar
  3
AutoCAD 2000
 90
    32768
280
     0
281
     0
  0
CLASS
  1
RASTERVARIABLES
  2
AcDbRasterVariables
  3
ISM
 90
    32768
280
     0
281
     0
  0
CLASS
  1
IMAGEDEF
  2
AcDbRasterImageDef
  3
ISM
 90
    32768
280
     0
281
     0
  0
CLASS
  1
IMAGEDEF_REACTOR
  2
AcDbRasterImageDefReactor
  3
ISM
 90
    32769
280
     0
281
     0
  0
CLASS
  1
IDBUFFER
  2
AcDbIdBuffer
  3
AutoCAD 2000
 90
    32768
280
     0
281
     0
  0
CLASS
  1
SPATIAL_FILTER
  2
AcDbSpatialFilter
  3
AutoCAD 2000
 90
    32768
280
     0
281
     0
  0
CLASS
  1
XRECORD
  2
AcDbXrecord
  3
AutoCAD 2000
 90
    32768
280
     0
281
     0
  0
CLASS
  1
SORTENTSTABLE
  2
AcDbSortentsTable
  3
AutoCAD 2000
 90
    32768
280
     0
281
     0
  0
CLASS
  1
LAYER_INDEX
  2
AcDbLayerIndex
  3
AutoCAD 2000
 90
    32768
280
     0
281
     0
  0
CLASS
  1
SPATIAL_INDEX
  2
AcDbSpatialIndex
  3
AutoCAD 2000
 90
    32768
280
     0
281
     0
  0
CLASS
  1
OBJECT_PTR
  2
CAseDLPNTableRecord
  3
"ASE-LPNTableRecord"
 90
    32769
280
     0
281
     0
  0
CLASS
  1
LAYOUT
  2
AcDbLayout
  3
AutoCAD 2000
 90
        0
280
     0
281
     0
  0
CLASS
  1
PLOTSETTINGS
  2
AcDbPlotSettings
  3
AutoCAD 2000
 90
    32768
280
     0
281
     0
  0
CLASS
  1
ACDBDICTIONARYWDFLT
  2
AcDbDictionaryWithDefault
  3
AutoCAD 2000
 90
        0
280
     0
281
     0
  0
CLASS
  1
ACDBPLACEHOLDER
  2
AcDbPlaceHolder
  3
AutoCAD 2000
 90
        0
280
     0
281
     0
  0
CLASS
  1
VBA_PROJECT
  2
AcDbVbaProject
  3
acadvba
 90
    32768
280
     0
281
     0
  0
CLASS
  1
WIPEOUT
  2
AcDbWipeout
  3
WipeOut|AutoCAD Express Tool|expresstools@autodesk.com
 90
    32895
280
     0
281
     1
  0
CLASS
  1
WIPEOUTVARIABLES
  2
AcDbWipeoutVariables
  3
WipeOut|AutoCAD Express Tool|expresstools@autodesk.com
 90
        0
280
     0
281
     0
  0
CLASS
  1
RTEXT
  2
RText
  3
RText|AutoCAD Express Tool|expresstools@autodesk.com
 90
    32768
280
     0
281
     1
  0
CLASS
  1
ARCALIGNEDTEXT
  2
AcDbArcAlignedText
  3
ATEXT|AutoCAD Express Tool|expresstools@autodesk.com
 90
    32768
280
     0
281
     1
  0
ENDSEC
  0
SECTION
  2
TABLES
  0
TABLE
  2
VPORT
  5
7
100
AcDbSymbolTable
 70
     1
  0
VPORT
  5
15
100
AcDbSymbolTableRecord
100
AcDbViewportTableRecord
  2
*ACTIVE
 70
     0
 10
0.0
 20
0.0
 11
1.0
 21
1.0
 12
6.591288
 22
4.579184
 13
0.0
 23
0.0
 14
1.0
 24
1.0
 15
0.0
 25
0.0
 16
0.0
 26
0.0
 36
1.0
 17
0.0
 27
0.0
 37
0.0
 40
9.158369
 41
0.688564
 42
50.0
 43
0.0
 44
0.0
 50
0.0
 51
0.0
 71
     0
 72
   100
 73
     1
 74
     1
 75
     0
 76
     0
 77
     0
 78
     0
281
     0
 65
     0
110
0.0
120
0.0
130
0.0
111
1.0
121
0.0
131
0.0
112
0.0
122
1.0
132
0.0
345
0
346
0
 79
     0
146
0.0
  0
ENDTAB
  0
TABLE
  2
LTYPE
  5
4
100
AcDbSymbolTable
 70
     3
  0
LTYPE
  5
11
100
AcDbSymbolTableRecord
100
AcDbLinetypeTableRecord
  2
ByBlock
 70
    64
  3

 72
    65
 73
     0
 40
0.0
  0
LTYPE
  5
12
100
AcDbSymbolTableRecord
100
AcDbLinetypeTableRecord
  2
ByLayer
 70
    64
  3

 72
    65
 73
     0
 40
0.0
  0
LTYPE
  5
13
100
AcDbSymbolTableRecord
100
AcDbLinetypeTableRecord
  2
Continuous
 70
    64
  3
Solid line
 72
    65
 73
     0
 40
0.0
  0
ENDTAB
  0
TABLE
  2
LAYER
  5
2
100
AcDbSymbolTable
 70
     2
  0
LAYER
  5
14
100
AcDbSymbolTableRecord
100
AcDbLayerTableRecord
  2
0
 70
     0
 62
     7
  6
Continuous
290
     1
370
    -3
390
1D
  0
LAYER
  5
28
100
AcDbSymbolTableRecord
100
AcDbLayerTableRecord
  2
LIVELLO_1
 70
     0
 62
   160
  6
Continuous
290
     1
370
    -3
390
1D
  0
ENDTAB
  0
TABLE
  2
STYLE
  5
3
100
AcDbSymbolTable
 70
     5
  0
STYLE
  5
17
100
AcDbSymbolTableRecord
100
AcDbTextStyleTableRecord
  2
Standard
 70
     0
 40
0.0
 41
1.0
 50
0.0
 71
     0
 42
0.0
  3
txt
  4

  0
STYLE
  5
24
100
AcDbSymbolTableRecord
100
AcDbTextStyleTableRecord
  2
STD
 70
     0
 40
0.0
 41
1.0
 50
0.0
 71
     0
 42
0.0
  3
txt
  4

  0
STYLE
  5
25
100
AcDbSymbolTableRecord
100
AcDbTextStyleTableRecord
  2
TATESTD
 70
     4
 40
0.0
 41
1.0
 50
0.0
 71
     0
 42
0.0
  3
txt
  4

  0
STYLE
  5
26
100
AcDbSymbolTableRecord
100
AcDbTextStyleTableRecord
  2
KANJISTD
 70
     0
 40
0.0
 41
1.0
 50
0.0
 71
     0
 42
0.0
  3
txt
  4
extfont
  0
STYLE
  5
27
100
AcDbSymbolTableRecord
100
AcDbTextStyleTableRecord
  2
KANJITATE
 70
     4
 40
0.0
 41
1.0
 50
0.0
 71
     0
 42
0.0
  3
txt
  4
extfont
  0
ENDTAB
  0
TABLE
  2
VIEW
  5
5
100
AcDbSymbolTable
 70
     0
  0
ENDTAB
  0
TABLE
  2
UCS
  5
6
100
AcDbSymbolTable
 70
     0
  0
ENDTAB
  0
TABLE
  2
APPID
  5
8
100
AcDbSymbolTable
 70
     1
  0
APPID
  5
16
100
AcDbSymbolTableRecord
100
AcDbRegAppTableRecord
  2
ACAD
 70
     0
  0
ENDTAB
  0
TABLE
  2
DIMSTYLE
  5
9
100
AcDbSymbolTable
 70
     1
100
AcDbDimStyleTable
 71
     0
  0
DIMSTYLE
105
18
100
AcDbSymbolTableRecord
100
AcDbDimStyleTableRecord
  2
Standard
 70
     0
  3

  4

 40
1.0
 41
0.18
 42
0.0625
 43
0.38
 44
0.18
 45
0.0
 46
0.0
 47
0.0
 48
0.0
 71
     0
 72
     0
 73
     1
 74
     1
 75
     0
 76
     0
 77
     0
 78
     0
 79
     0
140
0.18
141
0.09
142
0.0
143
25.4
144
1.0
145
0.0
146
1.0
147
0.09
148
0.0
170
     0
171
     2
172
     0
173
     0
174
     0
175
     0
176
     0
177
     0
178
     0
179
     0
271
     4
272
     4
273
     2
274
     2
275
     0
276
     0
277
     2
278
    46
279
     0
280
     0
281
     0
282
     0
283
     1
284
     0
285
     0
286
     0
288
     0
340
17
341
0
342
0
343
0
344
0
371
    -2
372
    -2
  0
ENDTAB
  0
TABLE
  2
BLOCK_RECORD
  5
1
100
AcDbSymbolTable
 70
     1
  0
BLOCK_RECORD
  5
A
100
AcDbSymbolTableRecord
100
AcDbBlockTableRecord
  2
*MODEL_SPACE
340
20
  0
BLOCK_RECORD
  5
B
100
AcDbSymbolTableRecord
100
AcDbBlockTableRecord
  2
*PAPER_SPACE
340
21
  0
BLOCK_RECORD
  5
29
100
AcDbSymbolTableRecord
100
AcDbBlockTableRecord
  2
AI9-BLK1
340
0
102
{BLKREFS
331
2A
102
}
  0
ENDTAB
  0
ENDSEC
  0
SECTION
  2
BLOCKS
  0
BLOCK
  5
D
100
AcDbEntity
  8
0
100
AcDbBlockBegin
  2
*MODEL_SPACE
 70
     0
 10
0.0
 20
0.0
 30
0.0
  3
*MODEL_SPACE
  1

  0
ENDBLK
  5
E
100
AcDbEntity
  8
0
100
AcDbBlockEnd
  0
BLOCK
  5
F
100
AcDbEntity
 67
     1
  8
0
100
AcDbBlockBegin
  2
*PAPER_SPACE
 70
     0
 10
0.0
 20
0.0
 30
0.0
  3
*PAPER_SPACE
  1

  0
ENDBLK
  5
10
100
AcDbEntity
 67
     1
  8
0
100
AcDbBlockEnd
  0
BLOCK
  5
2B
100
AcDbEntity
  8
LIVELLO_1
 62
     7
100
AcDbBlockBegin
  2
AI9-BLK1
 70
     0
 10
0.0
 20
0.0
 30
0.0
  3
AI9-BLK1
  1

  0
MTEXT
  5
C1
100
AcDbEntity
  8
LIVELLO_1
 62
     7
100
AcDbMText
 10
-42.208621
 20
-48.816886
 30
0.0
 40
10.215773
 41
0.0
 71
     1
 72
     2
  1
\fCourier|b0|i0;\H10.2158;\C7;\U+0032\U+0032\U+0030
  7
STD
210
0.0
220
0.0
230
1.0
 73
     1
 44
1.0
  0
LINE
  5
C0
100
AcDbEntity
  8
LIVELLO_1
 62
     7
100
AcDbLine
 10
-37.674014
 20
-3.620709
 30
0.0
 11
-24.70099
 21
-3.620709
 31
0.0
  0
LINE
  5
BF
100
AcDbEntity
  8
LIVELLO_1
 62
     7
100
AcDbLine
 10
-37.674014
 20
-108.971385
 30
0.0
 11
-24.70099
 21
-108.971385
 31
0.0
  0
LINE
  5
BE
100
AcDbEntity
  8
LIVELLO_1
 62
     7
100
AcDbLine
 10
-31.187933
 20
-63.929862
 30
0.0
 11
-31.187933
 21
-108.971385
 31
0.0
  0
LINE
  5
BD
100
AcDbEntity
  8
LIVELLO_1
 62
     7
100
AcDbLine
 10
-31.187933
 20
-3.818458
 30
0.0
 11
-31.187933
 21
-42.414896
 31
0.0
  0
LINE
  5
BC
100
AcDbEntity
  8
LIVELLO_1
 62
     7
100
AcDbLine
 10
-37.674014
 20
107.708068
 30
0.0
 11
-24.70099
 21
107.708068
 31
0.0
  0
LINE
  5
BB
100
AcDbEntity
  8
LIVELLO_1
 62
     7
100
AcDbLine
 10
-37.674014
 20
-3.818458
 30
0.0
 11
-24.70099
 21
-3.818458
 31
0.0
  0
LINE
  5
BA
100
AcDbEntity
  8
LIVELLO_1
 62
     7
100
AcDbLine
 10
-31.187933
 20
37.668416
 30
0.0
 11
-31.187933
 21
-3.818458
 31
0.0
  0
LINE
  5
B9
100
AcDbEntity
  8
LIVELLO_1
 62
     7
100
AcDbLine
 10
-31.187933
 20
107.514626
 30
0.0
 11
-31.187933
 21
59.181314
 31
0.0
  0
CIRCLE
  5
B8
100
AcDbEntity
  8
LIVELLO_1
 62
     7
100
AcDbCircle
 10
10.983137
 20
24.614604
 30
0.0
 40
6.624746
  0
LINE
  5
B7
100
AcDbEntity
  8
LIVELLO_1
 62
     7
100
AcDbLine
 10
16.466523
 20
-16.107113
 30
0.0
 11
11.723143
 21
-16.107113
 31
0.0
  0
LINE
  5
B6
100
AcDbEntity
  8
LIVELLO_1
 62
     7
100
AcDbLine
 10
16.008153
 20
-16.901897
 30
0.0
 11
11.723143
 21
-16.901897
 31
0.0
  0
LINE
  5
B5
100
AcDbEntity
  8
LIVELLO_1
 62
     7
100
AcDbLine
 10
16.008153
 20
-16.901897
 30
0.0
 11
12.321212
 21
-19.035444
 31
0.0
  0
SPLINE
  5
B4
100
AcDbEntity
  8
LIVELLO_1
 62
     7
100
AcDbSpline
210
0.0
220
0.0
230
1.0
 70
     8
 71
     3
 72
     8
 73
     4
 74
     0
 42
0.00000001
 43
0.00000001
 40
0.0
 40
0.0
 40
0.0
 40
0.0
 40
1.0
 40
1.0
 40
1.0
 40
1.0
 10
16.008152940538192
 20
-16.901896837022569
 30
0.0
 10
16.292028808593749
 20
-16.737910291883679
 30
0.0
 10
16.466522894965276
 20
-16.435086398654512
 30
0.0
 10
16.466522894965276
 20
-16.107113308376736
 30
0.0
  0
LINE
  5
B3
100
AcDbEntity
  8
LIVELLO_1
 62
     7
100
AcDbLine
 10
16.466523
 20
-7.312129
 30
0.0
 11
16.466523
 21
-16.107113
 31
0.0
  0
LINE
  5
B2
100
AcDbEntity
  8
LIVELLO_1
 62
     7
100
AcDbLine
 10
4.335308
 20
51.622086
 30
0.0
 11
3.914834
 21
50.722399
 31
0.0
  0
LINE
  5
B1
100
AcDbEntity
  8
LIVELLO_1
 62
     7
100
AcDbLine
 10
3.846621
 20
51.851357
 30
0.0
 11
3.427181
 21
50.95167
 31
0.0
  0
LINE
  5
B0
100
AcDbEntity
  8
LIVELLO_1
 62
     7
100
AcDbLine
 10
11.19122
 20
48.416425
 30
0.0
 11
10.772986
 21
47.516738
 31
0.0
  0
LINE
  5
AF
100
AcDbEntity
  8
LIVELLO_1
 62
     7
100
AcDbLine
 10
8.57312
 20
49.63995
 30
0.0
 11
8.155919
 21
48.742331
 31
0.0
  0
LINE
  5
AE
100
AcDbEntity
  8
LIVELLO_1
 62
     7
100
AcDbLine
 10
9.061807
 20
49.412918
 30
0.0
 11
8.644606
 21
48.513232
 31
0.0
  0
LINE
  5
AD
100
AcDbEntity
  8
LIVELLO_1
 62
     7
100
AcDbLine
 10
8.868537
 20
44.838693
 30
0.0
 11
9.587356
 21
46.381579
 31
0.0
  0
SPLINE
  5
AC
100
AcDbEntity
  8
LIVELLO_1
 62
     7
100
AcDbSpline
210
0.0
220
0.0
230
1.0
 70
     8
 71
     3
 72
    11
 73
     7
 74
     0
 42
0.00000001
 43
0.00000001
 40
0.0
 40
0.0
 40
0.0
 40
0.0
 40
1.0
 40
1.0
 40
1.0
 40
2.0
 40
2.0
 40
2.0
 40
2.0
 10
5.604998101128472
 20
41.851622856987845
 30
0.0
 10
6.4552476671006938
 20
41.456470404730901
 30
0.0
 10
7.4674167209201379
 20
41.824234347873258
 30
0.0
 10
7.862569173177083
 20
42.675689697265618
 30
0.0
 10
7.862569173177083
 20
42.675689697265618
 30
0.0
 10
8.1495456271701379
 20
43.293739827473956
 30
0.0
 10
8.1495456271701379
 20
43.293739827473956
 30
0.0
  0
LINE
  5
AB
100
AcDbEntity
  8
LIVELLO_1
 62
     7
100
AcDbLine
 10
9.408728
 20
44.586512
 30
0.0
 11
8.689737
 21
43.043454
 31
0.0
  0
LINE
  5
AA
100
AcDbEntity
  8
LIVELLO_1
 62
     7
100
AcDbLine
 10
6.07267
 20
44.264912
 30
0.0
 11
6.791661
 21
45.807798
 31
0.0
  0
LINE
  5
A9
100
AcDbEntity
  8
LIVELLO_1
 62
     7
100
AcDbLine
 10
6.560323
 20
44.03788
 30
0.0
 11
7.279315
 21
45.580766
 31
0.0
  0
LINE
  5
A8
100
AcDbEntity
  8
LIVELLO_1
 62
     7
100
AcDbLine
 10
1.833824
 20
46.244981
 30
0.0
 11
2.550576
 21
47.787867
 31
0.0
  0
LINE
  5
A7
100
AcDbEntity
  8
LIVELLO_1
 62
     7
100
AcDbLine
 10
1.342898
 20
46.47408
 30
0.0
 11
2.06189
 21
48.019205
 31
0.0
  0
LINE
  5
A6
100
AcDbEntity
  8
LIVELLO_1
 62
     7
100
AcDbLine
 10
-0.783242
 20
47.468334
 30
0.0
 11
8.689737
 21
43.043454
 31
0.0
  0
LINE
  5
A5
100
AcDbEntity
  8
LIVELLO_1
 62
     7
100
AcDbLine
 10
-0.064423
 20
49.011393
 30
0.0
 11
9.408728
 21
44.586512
 31
0.0
  0
LINE
  5
A4
100
AcDbEntity
  8
LIVELLO_1
 62
     7
100
AcDbLine
 10
-0.532095
 20
46.598103
 30
0.0
 11
-0.245119
 21
47.216153
 31
0.0
  0
SPLINE
  5
A3
100
AcDbEntity
  8
LIVELLO_1
 62
     7
100
AcDbSpline
210
0.0
220
0.0
230
1.0
 70
     8
 71
     3
 72
     8
 73
     4
 74
     0
 42
0.00000001
 43
0.00000001
 40
0.0
 40
0.0
 40
0.0
 40
0.0
 40
1.0
 40
1.0
 40
1.0
 40
1.0
 10
-0.532094997829861
 20
46.598103162977424
 30
0.0
 10
-0.9282809787326388
 20
45.746820068359369
 30
0.0
 10
-0.5594835069444444
 20
44.733617485894094
 30
0.0
 10
0.2909383138020833
 20
44.336225721571175
 30
0.0
  0
LINE
  5
A2
100
AcDbEntity
  8
LIVELLO_1
 62
     7
100
AcDbLine
 10
0.290938
 20
44.336226
 30
0.0
 11
5.604998
 21
41.851623
 31
0.0
  0
LINE
  5
A1
100
AcDbEntity
  8
LIVELLO_1
 62
     7
100
AcDbLine
 10
0.473701
 20
48.759039
 30
0.0
 11
1.192692
 21
50.306232
 31
0.0
  0
LINE
  5
A0
100
AcDbEntity
  8
LIVELLO_1
 62
     7
100
AcDbLine
 10
1.192692
 20
50.306232
 30
0.0
 11
9.587356
 21
46.381579
 31
0.0
  0
LINE
  5
9F
100
AcDbEntity
  8
LIVELLO_1
 62
     7
100
AcDbLine
 10
9.733428
 20
48.004391
 30
0.0
 11
9.086095
 21
46.614984
 31
0.0
  0
LINE
  5
9E
100
AcDbEntity
  8
LIVELLO_1
 62
     7
100
AcDbLine
 10
9.963733
 20
47.897249
 30
0.0
 11
9.318294
 21
46.507842
 31
0.0
  0
LINE
  5
9D
100
AcDbEntity
  8
LIVELLO_1
 62
     7
100
AcDbLine
 10
2.339392
 20
51.458272
 30
0.0
 11
1.691886
 21
50.070759
 31
0.0
  0
LINE
  5
9C
100
AcDbEntity
  8
LIVELLO_1
 62
     7
100
AcDbLine
 10
2.10702
 20
51.567481
 30
0.0
 11
1.461754
 21
50.178074
 31
0.0
  0
LINE
  5
9B
100
AcDbEntity
  8
LIVELLO_1
 62
     7
100
AcDbLine
 10
-0.064423
 20
49.011393
 30
0.0
 11
-0.783242
 21
47.468334
 31
0.0
  0
LINE
  5
9A
100
AcDbEntity
  8
LIVELLO_1
 62
     7
100
AcDbLine
 10
1.717208
 20
52.845612
 30
0.0
 11
1.299835
 21
51.945925
 31
0.0
  0
LINE
  5
99
100
AcDbEntity
  8
LIVELLO_1
 62
     7
100
AcDbLine
 10
10.772986
 20
47.516738
 30
0.0
 11
1.299835
 21
51.945925
 31
0.0
  0
LINE
  5
98
100
AcDbEntity
  8
LIVELLO_1
 62
     7
100
AcDbLine
 10
27.896661
 20
-4.409292
 30
0.0
 11
10.98417
 21
-4.409292
 31
0.0
  0
LINE
  5
97
100
AcDbEntity
  8
LIVELLO_1
 62
     7
100
AcDbLine
 10
28.116286
 20
-4.63839
 30
0.0
 11
10.98417
 21
-4.63839
 31
0.0
  0
LINE
  5
96
100
AcDbEntity
  8
LIVELLO_1
 62
     7
100
AcDbLine
 10
28.116286
 20
-5.798699
 30
0.0
 11
10.98417
 21
-5.798699
 31
0.0
  0
LINE
  5
95
100
AcDbEntity
  8
LIVELLO_1
 62
     7
100
AcDbLine
 10
27.896661
 20
-6.027797
 30
0.0
 11
10.98417
 21
-6.027797
 31
0.0
  0
LINE
  5
94
100
AcDbEntity
  8
LIVELLO_1
 62
     7
100
AcDbLine
 10
-5.928148
 20
-6.027797
 30
0.0
 11
10.98417
 21
-6.027797
 31
0.0
  0
LINE
  5
93
100
AcDbEntity
  8
LIVELLO_1
 62
     7
100
AcDbLine
 10
-6.150012
 20
-5.798699
 30
0.0
 11
10.98417
 21
-5.798699
 31
0.0
  0
LINE
  5
92
100
AcDbEntity
  8
LIVELLO_1
 62
     7
100
AcDbLine
 10
-6.150012
 20
-4.63839
 30
0.0
 11
10.98417
 21
-4.63839
 31
0.0
  0
LINE
  5
91
100
AcDbEntity
  8
LIVELLO_1
 62
     7
100
AcDbLine
 10
-5.928148
 20
-4.409292
 30
0.0
 11
10.98417
 21
-4.409292
 31
0.0
  0
POLYLINE
  5
8C
100
AcDbEntity
  8
LIVELLO_1
 62
     7
100
AcDb2dPolyline
 66
     1
 10
0.0
 20
0.0
 30
0.0
  0
VERTEX
  5
8D
100
AcDbEntity
  8
LIVELLO_1
 62
     7
100
AcDbVertex
100
AcDb2dVertex
 10
23.548433
 20
-4.257707
 30
0.0
  0
VERTEX
  5
8E
100
AcDbEntity
  8
LIVELLO_1
 62
     7
100
AcDbVertex
100
AcDb2dVertex
 10
10.98417
 20
-4.257707
 30
0.0
  0
VERTEX
  5
8F
100
AcDbEntity
  8
LIVELLO_1
 62
     7
100
AcDbVertex
100
AcDb2dVertex
 10
-1.579921
 20
-4.257707
 30
0.0
  0
SEQEND
  5
90
100
AcDbEntity
  8
LIVELLO_1
 62
     7
  0
LINE
  5
8B
100
AcDbEntity
  8
LIVELLO_1
 62
     7
100
AcDbLine
 10
12.321212
 20
-43.346105
 30
0.0
 11
11.440301
 21
-104.546504
 31
0.0
  0
LINE
  5
8A
100
AcDbEntity
  8
LIVELLO_1
 62
     7
100
AcDbLine
 10
9.645234
 20
-43.346105
 30
0.0
 11
10.525972
 21
-104.546504
 31
0.0
  0
LINE
  5
89
100
AcDbEntity
  8
LIVELLO_1
 62
     7
100
AcDbLine
 10
5.50199
 20
-16.107113
 30
0.0
 11
10.244336
 21
-16.107113
 31
0.0
  0
LINE
  5
88
100
AcDbEntity
  8
LIVELLO_1
 62
     7
100
AcDbLine
 10
5.95812
 20
-16.901897
 30
0.0
 11
10.244336
 21
-16.901897
 31
0.0
  0
LINE
  5
87
100
AcDbEntity
  8
LIVELLO_1
 62
     7
100
AcDbLine
 10
11.64959
 20
-16.636969
 30
0.0
 11
11.64959
 21
-6.46498
 31
0.0
  0
LINE
  5
86
100
AcDbEntity
  8
LIVELLO_1
 62
     7
100
AcDbLine
 10
11.64959
 20
-16.636969
 30
0.0
 11
12.321212
 21
-19.035444
 31
0.0
  0
LINE
  5
85
100
AcDbEntity
  8
LIVELLO_1
 62
     7
100
AcDbLine
 10
10.316855
 20
-16.636969
 30
0.0
 11
9.645234
 21
-19.035444
 31
0.0
  0
LINE
  5
84
100
AcDbEntity
  8
LIVELLO_1
 62
     7
100
AcDbLine
 10
10.316855
 20
-16.636969
 30
0.0
 11
10.316855
 21
-6.46498
 31
0.0
  0
LINE
  5
83
100
AcDbEntity
  8
LIVELLO_1
 62
     7
100
AcDbLine
 10
9.645234
 20
-19.035444
 30
0.0
 11
9.645234
 21
-43.346105
 31
0.0
  0
LINE
  5
82
100
AcDbEntity
  8
LIVELLO_1
 62
     7
100
AcDbLine
 10
12.321212
 20
-19.035444
 30
0.0
 11
12.321212
 21
-43.346105
 31
0.0
  0
LINE
  5
81
100
AcDbEntity
  8
LIVELLO_1
 62
     7
100
AcDbLine
 10
16.466523
 20
-7.312129
 30
0.0
 11
16.466523
 21
-12.573823
 31
0.0
  0
SPLINE
  5
80
100
AcDbEntity
  8
LIVELLO_1
 62
     7
100
AcDbSpline
210
0.0
220
0.0
230
1.0
 70
     8
 71
     3
 72
    14
 73
    10
 74
     0
 42
0.00000001
 43
0.00000001
 40
0.0
 40
0.0
 40
0.0
 40
0.0
 40
1.0
 40
1.0
 40
1.0
 40
2.0
 40
2.0
 40
2.0
 40
3.0
 40
3.0
 40
3.0
 40
3.0
 10
5.5019897460937495
 20
-7.3121290418836802
 30
0.0
 10
5.5019897460937495
 20
-7.3121290418836802
 30
0.0
 10
5.5019897460937495
 20
-16.107113308376736
 30
0.0
 10
5.5019897460937495
 20
-16.107113308376736
 30
0.0
 10
5.5019897460937495
 20
-16.435086398654512
 30
0.0
 10
5.6742445203993048
 20
-16.737910291883679
 30
0.0
 10
5.9581203884548604
 20
-16.901896837022569
 30
0.0
 10
5.9581203884548604
 20
-16.901896837022569
 30
0.0
 10
9.6452338324652764
 20
-19.035444471571179
 30
0.0
 10
9.6452338324652764
 20
-19.035444471571179
 30
0.0
  0
LINE
  5
7F
100
AcDbEntity
  8
LIVELLO_1
 62
     7
100
AcDbLine
 10
23.548433
 20
-3.129094
 30
0.0
 11
23.548433
 21
-4.257707
 31
0.0
  0
SPLINE
  5
7E
100
AcDbEntity
  8
LIVELLO_1
 62
     7
100
AcDbSpline
210
0.0
220
0.0
230
1.0
 70
     8
 71
     3
 72
     8
 73
     4
 74
     0
 42
0.00000001
 43
0.00000001
 40
0.0
 40
0.0
 40
0.0
 40
0.0
 40
1.0
 40
1.0
 40
1.0
 40
1.0
 10
-5.9281480577256938
 20
-4.409291585286458
 30
0.0
 10
-6.0532050238715271
 20
-4.4134256998697916
 30
0.0
 10
-6.1500122070312493
 20
-4.5143669976128464
 30
0.0
 10
-6.1500122070312493
 20
-4.6383904351128464
 30
0.0
  0
SPLINE
  5
7D
100
AcDbEntity
  8
LIVELLO_1
 62
     7
100
AcDbSpline
210
0.0
220
0.0
230
1.0
 70
     8
 71
     3
 72
    11
 73
     7
 74
     0
 42
0.00000001
 43
0.00000001
 40
0.0
 40
0.0
 40
0.0
 40
0.0
 40
1.0
 40
1.0
 40
1.0
 40
2.0
 40
2.0
 40
2.0
 40
2.0
 10
-6.1500122070312493
 20
-4.6383904351128464
 30
0.0
 10
-6.1500122070312493
 20
-4.6383904351128464
 30
0.0
 10
-6.1500122070312493
 20
-5.7986985948350691
 30
0.0
 10
-6.1500122070312493
 20
-5.7986985948350691
 30
0.0
 10
-6.1500122070312493
 20
-5.9206549750434023
 30
0.0
 10
-6.0532050238715271
 20
-6.0236633300781248
 30
0.0
 10
-5.9281480577256938
 20
-6.0277974446614575
 30
0.0
  0
SPLINE
  5
7C
100
AcDbEntity
  8
LIVELLO_1
 62
     7
100
AcDbSpline
210
0.0
220
0.0
230
1.0
 70
     8
 71
     3
 72
     8
 73
     4
 74
     0
 42
0.00000001
 43
0.00000001
 40
0.0
 40
0.0
 40
0.0
 40
0.0
 40
1.0
 40
1.0
 40
1.0
 40
1.0
 10
28.116285536024304
 20
-4.6383904351128464
 30
0.0
 10
28.116285536024304
 20
-4.5143669976128464
 30
0.0
 10
28.019650607638887
 20
-4.4134256998697916
 30
0.0
 10
27.896660698784721
 20
-4.409291585286458
 30
0.0
  0
SPLINE
  5
7B
100
AcDbEntity
  8
LIVELLO_1
 62
     7
100
AcDbSpline
210
0.0
220
0.0
230
1.0
 70
     8
 71
     3
 72
     8
 73
     4
 74
     0
 42
0.00000001
 43
0.00000001
 40
0.0
 40
0.0
 40
0.0
 40
0.0
 40
1.0
 40
1.0
 40
1.0
 40
1.0
 10
27.896660698784721
 20
-6.0277974446614575
 30
0.0
 10
28.019650607638887
 20
-6.0236633300781248
 30
0.0
 10
28.116285536024304
 20
-5.9206549750434023
 30
0.0
 10
28.116285536024304
 20
-5.7986985948350691
 30
0.0
  0
LINE
  5
7A
100
AcDbEntity
  8
LIVELLO_1
 62
     7
100
AcDbLine
 10
23.548433
 20
-4.257707
 30
0.0
 11
27.896661
 21
-4.409292
 31
0.0
  0
SPLINE
  5
79
100
AcDbEntity
  8
LIVELLO_1
 62
     7
100
AcDbSpline
210
0.0
220
0.0
230
1.0
 70
     8
 71
     3
 72
     8
 73
     4
 74
     0
 42
0.00000001
 43
0.00000001
 40
0.0
 40
0.0
 40
0.0
 40
0.0
 40
1.0
 40
1.0
 40
1.0
 40
1.0
 10
17.347261555989583
 20
-6.3978006998697907
 30
0.0
 10
16.856335449218747
 20
-6.4122701009114573
 30
0.0
 10
16.466522894965276
 20
-6.818102349175347
 30
0.0
 10
16.466522894965276
 20
-7.3121290418836802
 30
0.0
  0
LINE
  5
78
100
AcDbEntity
  8
LIVELLO_1
 62
     7
100
AcDbLine
 10
17.347262
 20
-6.397801
 30
0.0
 11
27.896661
 21
-6.027797
 31
0.0
  0
LINE
  5
77
100
AcDbEntity
  8
LIVELLO_1
 62
     7
100
AcDbLine
 10
28.116286
 20
-4.63839
 30
0.0
 11
28.116286
 21
-5.798699
 31
0.0
  0
LINE
  5
76
100
AcDbEntity
  8
LIVELLO_1
 62
     7
100
AcDbLine
 10
11.440301
 20
-6.418816
 30
0.0
 11
11.440301
 21
-104.540303
 31
0.0
  0
LINE
  5
75
100
AcDbEntity
  8
LIVELLO_1
 62
     7
100
AcDbLine
 10
10.525972
 20
-6.418816
 30
0.0
 11
10.525972
 21
-104.540303
 31
0.0
  0
LINE
  5
74
100
AcDbEntity
  8
LIVELLO_1
 62
     7
100
AcDbLine
 10
22.86217
 20
-6.204186
 30
0.0
 11
22.266169
 21
-40.464283
 31
0.0
  0
SPLINE
  5
73
100
AcDbEntity
  8
LIVELLO_1
 62
     7
100
AcDbSpline
210
0.0
220
0.0
230
1.0
 70
     8
 71
     3
 72
     8
 73
     4
 74
     0
 42
0.00000001
 43
0.00000001
 40
0.0
 40
0.0
 40
0.0
 40
0.0
 40
1.0
 40
1.0
 40
1.0
 40
1.0
 10
21.716503906249997
 20
-46.184174940321178
 30
0.0
 10
22.048611111111111
 20
-44.294195556640624
 30
0.0
 10
22.231545681423608
 20
-42.381478542751729
 30
0.0
 10
22.266168891059024
 20
-40.464282904730901
 30
0.0
  0
LINE
  5
72
100
AcDbEntity
  8
LIVELLO_1
 62
     7
100
AcDbLine
 10
21.716504
 20
-46.184175
 30
0.0
 11
11.4341
 21
-104.620229
 31
0.0
  0
SPLINE
  5
71
100
AcDbEntity
  8
LIVELLO_1
 62
     7
100
AcDbSpline
210
0.0
220
0.0
230
1.0
 70
     8
 71
     3
 72
    11
 73
     7
 74
     0
 42
0.00000001
 43
0.00000001
 40
0.0
 40
0.0
 40
0.0
 40
0.0
 40
1.0
 40
1.0
 40
1.0
 40
2.0
 40
2.0
 40
2.0
 40
2.0
 10
10.525972493489583
 20
-104.54030287000867
 30
0.0
 10
10.525972493489583
 20
-104.79455091688367
 30
0.0
 10
10.729922146267359
 20
-104.99850056966145
 30
0.0
 10
10.98417019314236
 20
-104.99850056966145
 30
0.0
 10
11.236523437499999
 20
-104.99850056966145
 30
0.0
 10
11.440300835503471
 20
-104.79455091688367
 30
0.0
 10
11.440300835503471
 20
-104.54030287000867
 30
0.0
  0
SPLINE
  5
70
100
AcDbEntity
  8
LIVELLO_1
 62
     7
100
AcDbSpline
210
0.0
220
0.0
230
1.0
 70
     8
 71
     3
 72
    14
 73
    10
 74
     0
 42
0.00000001
 43
0.00000001
 40
0.0
 40
0.0
 40
0.0
 40
0.0
 40
1.0
 40
1.0
 40
1.0
 40
2.0
 40
2.0
 40
2.0
 40
3.0
 40
3.0
 40
3.0
 40
3.0
 10
-0.8957248263888888
 20
-6.2041863335503464
 30
0.0
 10
-0.8957248263888888
 20
-6.2041863335503464
 30
0.0
 10
-0.2998955620659722
 20
-40.464282904730901
 30
0.0
 10
-0.2998955620659722
 20
-40.464282904730901
 30
0.0
 10
-0.26510009765625
 20
-42.381478542751729
 30
0.0
 10
-0.08216552734375
 20
-44.294195556640624
 30
0.0
 10
0.2520087348090278
 20
-46.184174940321178
 30
0.0
 10
0.2520087348090278
 20
-46.184174940321178
 30
0.0
 10
10.534412977430554
 20
-104.62022908528645
 30
0.0
 10
10.534412977430554
 20
-104.62022908528645
 30
0.0
  0
LINE
  5
6F
100
AcDbEntity
  8
LIVELLO_1
 62
     7
100
AcDbLine
 10
-1.579921
 20
-4.257707
 30
0.0
 11
-5.928148
 21
-4.409292
 31
0.0
  0
SPLINE
  5
6E
100
AcDbEntity
  8
LIVELLO_1
 62
     7
100
AcDbSpline
210
0.0
220
0.0
230
1.0
 70
     8
 71
     3
 72
     8
 73
     4
 74
     0
 42
0.00000001
 43
0.00000001
 40
0.0
 40
0.0
 40
0.0
 40
0.0
 40
1.0
 40
1.0
 40
1.0
 40
1.0
 10
5.5019897460937495
 20
-7.3121290418836802
 30
0.0
 10
5.5019897460937495
 20
-6.818102349175347
 30
0.0
 10
5.1099378797743054
 20
-6.4122701009114573
 30
0.0
 10
4.6190117730034714
 20
-6.3978006998697907
 30
0.0
  0
LINE
  5
6D
100
AcDbEntity
  8
LIVELLO_1
 62
     7
100
AcDbLine
 10
4.619012
 20
-6.397801
 30
0.0
 11
-5.928148
 21
-6.027797
 31
0.0
  0
LINE
  5
6C
100
AcDbEntity
  8
LIVELLO_1
 62
     7
100
AcDbLine
 10
16.694588
 20
-6.418816
 30
0.0
 11
5.271857
 21
-6.418816
 31
0.0
  0
LINE
  5
6B
100
AcDbEntity
  8
LIVELLO_1
 62
     7
100
AcDbLine
 10
-1.579921
 20
-3.129094
 30
0.0
 11
-1.579921
 21
-4.257707
 31
0.0
  0
LINE
  5
6A
100
AcDbEntity
  8
LIVELLO_1
 62
     7
100
AcDbLine
 10
-1.579921
 20
-3.129094
 30
0.0
 11
23.548433
 21
-3.129094
 31
0.0
  0
LINE
  5
69
100
AcDbEntity
  8
LIVELLO_1
 62
     7
100
AcDbLine
 10
20.795802
 20
34.323917
 30
0.0
 11
16.910079
 21
27.580487
 31
0.0
  0
LINE
  5
68
100
AcDbEntity
  8
LIVELLO_1
 62
     7
100
AcDbLine
 10
12.099348
 20
38.389474
 30
0.0
 11
9.441284
 21
31.070024
 31
0.0
  0
LINE
  5
67
100
AcDbEntity
  8
LIVELLO_1
 62
     7
100
AcDbLine
 10
23.996124
 20
40.659792
 30
0.0
 11
14.884707
 21
44.916552
 31
0.0
  0
SPLINE
  5
66
100
AcDbEntity
  8
LIVELLO_1
 62
     7
100
AcDbSpline
210
0.0
220
0.0
230
1.0
 70
     8
 71
     3
 72
    11
 73
     7
 74
     0
 42
0.00000001
 43
0.00000001
 40
0.0
 40
0.0
 40
0.0
 40
0.0
 40
1.0
 40
1.0
 40
1.0
 40
2.0
 40
2.0
 40
2.0
 40
2.0
 10
14.94241265190972
 20
46.665454779730901
 30
0.0
 10
14.94241265190972
 20
46.665454779730901
 30
0.0
 10
14.553633626302082
 20
45.830880398220479
 30
0.0
 10
14.553633626302082
 20
45.830880398220479
 30
0.0
 10
14.393781195746527
 20
45.486198594835066
 30
0.0
 10
14.54209255642361
 20
45.076232231987845
 30
0.0
 10
14.884707302517359
 20
44.916552056206591
 30
0.0
  0
SPLINE
  5
65
100
AcDbEntity
  8
LIVELLO_1
 62
     7
100
AcDbSpline
210
0.0
220
0.0
230
1.0
 70
     8
 71
     3
 72
     8
 73
     4
 74
     0
 42
0.00000001
 43
0.00000001
 40
0.0
 40
0.0
 40
0.0
 40
0.0
 40
1.0
 40
1.0
 40
1.0
 40
1.0
 10
23.99612358940972
 20
40.659792073567708
 30
0.0
 10
24.338738335503471
 20
40.499939643012148
 30
0.0
 10
24.745604112413194
 20
40.649284532335066
 30
0.0
 10
24.907351345486109
 20
40.993966335720479
 30
0.0
  0
LINE
  5
64
100
AcDbEntity
  8
LIVELLO_1
 62
     7
100
AcDbLine
 10
25.294236
 20
41.828541
 30
0.0
 11
24.907351
 21
40.993966
 31
0.0
  0
LINE
  5
63
100
AcDbEntity
  8
LIVELLO_1
 62
     7
100
AcDbLine
 10
15.093825
 20
44.819745
 30
0.0
 11
12.099348
 21
38.389474
 31
0.0
  0
LINE
  5
62
100
AcDbEntity
  8
LIVELLO_1
 62
     7
100
AcDbLine
 10
23.78804
 20
40.756427
 30
0.0
 11
20.795802
 21
34.323917
 31
0.0
  0
LINE
  5
61
100
AcDbEntity
  8
LIVELLO_1
 62
     7
100
AcDbLine
 10
16.694588
 20
10.18999
 30
0.0
 11
15.829525
 21
20.088782
 31
0.0
  0
LINE
  5
60
100
AcDbEntity
  8
LIVELLO_1
 62
     7
100
AcDbLine
 10
5.271857
 20
10.192057
 30
0.0
 11
6.136749
 21
20.090849
 31
0.0
  0
LINE
  5
5F
100
AcDbEntity
  8
LIVELLO_1
 62
     7
100
AcDbLine
 10
10.98417
 20
-1.068927
 30
0.0
 11
16.694588
 21
-1.068927
 31
0.0
  0
LINE
  5
5E
100
AcDbEntity
  8
LIVELLO_1
 62
     7
100
AcDbLine
 10
16.694588
 20
-3.129094
 30
0.0
 11
16.694588
 21
-1.068927
 31
0.0
  0
LINE
  5
5D
100
AcDbEntity
  8
LIVELLO_1
 62
     7
100
AcDbLine
 10
10.98417
 20
-1.068927
 30
0.0
 11
5.271857
 21
-1.068927
 31
0.0
  0
LINE
  5
5C
100
AcDbEntity
  8
LIVELLO_1
 62
     7
100
AcDbLine
 10
5.271857
 20
-3.129094
 30
0.0
 11
5.271857
 21
-1.068927
 31
0.0
  0
SPLINE
  5
5B
100
AcDbEntity
  8
LIVELLO_1
 62
     7
100
AcDbSpline
210
0.0
220
0.0
230
1.0
 70
     8
 71
     3
 72
    17
 73
    13
 74
     0
 42
0.00000001
 43
0.00000001
 40
0.0
 40
0.0
 40
0.0
 40
0.0
 40
1.0
 40
1.0
 40
1.0
 40
2.0
 40
2.0
 40
2.0
 40
3.0
 40
3.0
 40
3.0
 40
4.0
 40
4.0
 40
4.0
 40
4.0
 10
5.5186984592013886
 20
24.75516425238715
 30
0.0
 10
5.4410115559895829
 20
21.730370415581596
 30
0.0
 10
7.8248453776041655
 20
19.216139729817705
 30
0.0
 10
10.842404513888887
 20
19.138625081380205
 30
0.0
 10
13.85996365017361
 20
19.060765923394097
 30
0.0
 10
16.369715711805554
 20
21.450973171657985
 30
0.0
 10
16.447574869791666
 20
24.471632893880205
 30
0.0
 10
16.525261773003471
 20
27.496426730685762
 30
0.0
 10
14.141600206163194
 20
30.01065741644965
 30
0.0
 10
11.124041069878471
 20
30.090583631727426
 30
0.0
 10
8.1641872829861111
 20
30.166031222873261
 30
0.0
 10
5.6826850043402777
 20
27.866429985894094
 30
0.0
 10
5.5250718858506938
 20
24.904681396484374
 30
0.0
  0
LINE
  5
5A
100
AcDbEntity
  8
LIVELLO_1
 62
     7
100
AcDbLine
 10
5.271857
 20
-0.795731
 30
0.0
 11
10.98417
 21
-0.795731
 31
0.0
  0
LINE
  5
59
100
AcDbEntity
  8
LIVELLO_1
 62
     7
100
AcDbLine
 10
16.694588
 20
-0.795731
 30
0.0
 11
10.98417
 21
-0.795731
 31
0.0
  0
LINE
  5
58
100
AcDbEntity
  8
LIVELLO_1
 62
     7
100
AcDbLine
 10
5.271857
 20
10.192057
 30
0.0
 11
5.271857
 21
-0.795731
 31
0.0
  0
LINE
  5
57
100
AcDbEntity
  8
LIVELLO_1
 62
     7
100
AcDbLine
 10
16.694588
 20
10.18999
 30
0.0
 11
16.694588
 21
-0.795731
 31
0.0
  0
POLYLINE
  5
4E
100
AcDbEntity
  8
LIVELLO_1
 62
     7
100
AcDb2dPolyline
 66
     1
 10
0.0
 20
0.0
 30
0.0
  0
VERTEX
  5
4F
100
AcDbEntity
  8
LIVELLO_1
 62
     7
100
AcDbVertex
100
AcDb2dVertex
 10
10.98417
 20
23.55696
 30
0.0
  0
VERTEX
  5
50
100
AcDbEntity
  8
LIVELLO_1
 62
     7
100
AcDbVertex
100
AcDb2dVertex
 10
11.896604
 20
24.084749
 30
0.0
  0
VERTEX
  5
51
100
AcDbEntity
  8
LIVELLO_1
 62
     7
100
AcDbVertex
100
AcDb2dVertex
 10
11.896604
 20
25.142048
 30
0.0
  0
VERTEX
  5
52
100
AcDbEntity
  8
LIVELLO_1
 62
     7
100
AcDbVertex
100
AcDb2dVertex
 10
10.98417
 20
25.671904
 30
0.0
  0
VERTEX
  5
53
100
AcDbEntity
  8
LIVELLO_1
 62
     7
100
AcDbVertex
100
AcDb2dVertex
 10
10.069842
 20
25.142048
 30
0.0
  0
VERTEX
  5
54
100
AcDbEntity
  8
LIVELLO_1
 62
     7
100
AcDbVertex
100
AcDb2dVertex
 10
10.069842
 20
24.084749
 30
0.0
  0
VERTEX
  5
55
100
AcDbEntity
  8
LIVELLO_1
 62
     7
100
AcDbVertex
100
AcDb2dVertex
 10
10.98417
 20
23.55696
 30
0.0
  0
SEQEND
  5
56
100
AcDbEntity
  8
LIVELLO_1
 62
     7
  0
CIRCLE
  5
4D
100
AcDbEntity
  8
LIVELLO_1
 62
     7
100
AcDbCircle
 10
10.98417
 20
24.614604
 30
0.0
 40
1.713246
  0
CIRCLE
  5
4C
100
AcDbEntity
  8
LIVELLO_1
 62
     7
100
AcDbCircle
 10
10.983137
 20
24.614604
 30
0.0
 40
1.942345
  0
CIRCLE
  5
4B
100
AcDbEntity
  8
LIVELLO_1
 62
     7
100
AcDbCircle
 10
10.983137
 20
24.614604
 30
0.0
 40
2.056894
  0
CIRCLE
  5
4A
100
AcDbEntity
  8
LIVELLO_1
 62
     7
100
AcDbCircle
 10
10.983223
 20
24.614604
 30
0.0
 40
0.913381
  0
LINE
  5
49
100
AcDbEntity
  8
LIVELLO_1
 62
     7
100
AcDbLine
 10
15.340838
 20
-0.73682
 30
0.0
 11
15.340838
 21
-1.010016
 31
0.0
  0
LINE
  5
48
100
AcDbEntity
  8
LIVELLO_1
 62
     7
100
AcDbLine
 10
6.650757
 20
-0.73682
 30
0.0
 11
6.650757
 21
-1.010016
 31
0.0
  0
LINE
  5
47
100
AcDbEntity
  8
LIVELLO_1
 62
     7
100
AcDbLine
 10
12.114162
 20
38.437705
 30
0.0
 11
20.816817
 21
34.376627
 31
0.0
  0
LINE
  5
46
100
AcDbEntity
  8
LIVELLO_1
 62
     7
100
AcDbLine
 10
5.280126
 20
10.250968
 30
0.0
 11
16.712503
 21
10.248901
 31
0.0
  0
LINE
  5
45
100
AcDbEntity
  8
LIVELLO_1
 62
     7
100
AcDbLine
 10
2.653585
 20
52.454593
 30
0.0
 11
30.208837
 21
39.594052
 31
0.0
  0
SPLINE
  5
44
100
AcDbEntity
  8
LIVELLO_1
 62
     7
100
AcDbSpline
210
0.0
220
0.0
230
1.0
 70
     8
 71
     3
 72
    14
 73
    10
 74
     0
 42
0.00000001
 43
0.00000001
 40
0.0
 40
0.0
 40
0.0
 40
0.0
 40
1.0
 40
1.0
 40
1.0
 40
2.0
 40
2.0
 40
2.0
 40
3.0
 40
3.0
 40
3.0
 40
3.0
 10
9.9037882486979161
 20
104.58233303493923
 30
0.0
 10
9.9037882486979161
 20
104.58233303493923
 30
0.0
 10
-6.5052015516493054
 20
69.357437472873258
 30
0.0
 10
-6.5052015516493054
 20
69.357437472873258
 30
0.0
 10
-9.1717054578993054
 20
63.629277208116314
 30
0.0
 10
-6.6964043511284714
 20
56.820562744140616
 30
0.0
 10
-0.9756510416666666
 20
54.148891194661452
 30
0.0
 10
-0.9756510416666666
 20
54.148891194661452
 30
0.0
 10
2.653584798177083
 20
52.454593234592011
 30
0.0
 10
2.653584798177083
 20
52.454593234592011
 30
0.0
  0
LINE
  5
43
100
AcDbEntity
  8
LIVELLO_1
 62
     7
100
AcDbLine
 10
41.815708
 20
46.232406
 30
0.0
 11
41.735782
 21
46.196577
 31
0.0
  0
SPLINE
  5
42
100
AcDbEntity
  8
LIVELLO_1
 62
     7
100
AcDbSpline
210
0.0
220
0.0
230
1.0
 70
     8
 71
     3
 72
    11
 73
     7
 74
     0
 42
0.00000001
 43
0.00000001
 40
0.0
 40
0.0
 40
0.0
 40
0.0
 40
1.0
 40
1.0
 40
1.0
 40
2.0
 40
2.0
 40
2.0
 40
2.0
 10
22.25979546440972
 20
102.69252590603298
 30
0.0
 10
21.970751953124999
 20
102.95745374891492
 30
0.0
 10
21.568192545572916
 20
103.05615573459201
 30
0.0
 10
21.191988118489583
 20
102.95521443684895
 30
0.0
 10
21.191988118489583
 20
102.95521443684895
 30
0.0
 10
21.105860731336804
 20
102.93006523980034
 30
0.0
 10
21.105860731336804
 20
102.93006523980034
 30
0.0
  0
SPLINE
  5
41
100
AcDbEntity
  8
LIVELLO_1
 62
     7
100
AcDbSpline
210
0.0
220
0.0
230
1.0
 70
     8
 71
     3
 72
     8
 73
     4
 74
     0
 42
0.00000001
 43
0.00000001
 40
0.0
 40
0.0
 40
0.0
 40
0.0
 40
1.0
 40
1.0
 40
1.0
 40
1.0
 10
41.815707736545136
 20
46.232406277126735
 30
0.0
 10
42.17089708116319
 20
46.398459879557286
 30
0.0
 10
42.415843370225687
 20
46.732634141710065
 30
0.0
 10
42.467347547743053
 20
47.121585422092011
 30
0.0
  0
SPLINE
  5
40
100
AcDbEntity
  8
LIVELLO_1
 62
     7
100
AcDbSpline
210
0.0
220
0.0
230
1.0
 70
     8
 71
     3
 72
     8
 73
     4
 74
     0
 42
0.00000001
 43
0.00000001
 40
0.0
 40
0.0
 40
0.0
 40
0.0
 40
1.0
 40
1.0
 40
1.0
 40
1.0
 10
42.467347547743053
 20
47.121585422092011
 30
0.0
 10
45.184149848090271
 20
67.833499484592011
 30
0.0
 10
37.641974555121521
 20
88.572802056206584
 30
0.0
 10
22.25979546440972
 20
102.69252590603298
 30
0.0
  0
LINE
  5
3F
100
AcDbEntity
  8
LIVELLO_1
 62
     7
100
AcDbLine
 10
41.735782
 20
46.196577
 30
0.0
 11
19.333704
 21
107.802636
 31
0.0
  0
SPLINE
  5
3E
100
AcDbEntity
  8
LIVELLO_1
 62
     7
100
AcDbSpline
210
0.0
220
0.0
230
1.0
 70
     8
 71
     3
 72
     8
 73
     4
 74
     0
 42
0.00000001
 43
0.00000001
 40
0.0
 40
0.0
 40
0.0
 40
0.0
 40
1.0
 40
1.0
 40
1.0
 40
1.0
 10
42.344357638888887
 20
38.708834499782981
 30
0.0
 10
43.373235405815969
 20
39.125174289279514
 30
0.0
 10
43.888277180989583
 20
40.281348334418396
 30
0.0
 10
43.506732855902776
 20
41.324006483289928
 30
0.0
  0
LINE
  5
3D
100
AcDbEntity
  8
LIVELLO_1
 62
     7
100
AcDbLine
 10
42.344358
 20
38.708834
 30
0.0
 11
39.518001
 21
37.565407
 31
0.0
  0
SPLINE
  5
3C
100
AcDbEntity
  8
LIVELLO_1
 62
     7
100
AcDbSpline
210
0.0
220
0.0
230
1.0
 70
     8
 71
     3
 72
     8
 73
     4
 74
     0
 42
0.00000001
 43
0.00000001
 40
0.0
 40
0.0
 40
0.0
 40
0.0
 40
1.0
 40
1.0
 40
1.0
 40
1.0
 10
19.333703613281248
 20
107.80263604058159
 30
0.0
 10
18.955432128906249
 20
108.84529418945311
 30
0.0
 10
17.81820610894097
 20
109.39823201497394
 30
0.0
 10
16.76400689019097
 20
109.05768432617187
 30
0.0
  0
LINE
  5
3B
100
AcDbEntity
  8
LIVELLO_1
 62
     7
100
AcDbLine
 10
16.764007
 20
109.057684
 30
0.0
 11
13.866165
 21
108.113728
 31
0.0
  0
LINE
  5
3A
100
AcDbEntity
  8
LIVELLO_1
 62
     7
100
AcDbLine
 10
43.506733
 20
41.324006
 30
0.0
 11
41.735782
 21
46.198817
 31
0.0
  0
LINE
  5
39
100
AcDbEntity
  8
LIVELLO_1
 62
     7
100
AcDbLine
 10
13.866165
 20
108.113728
 30
0.0
 11
14.030151
 21
107.666038
 31
0.0
  0
LINE
  5
38
100
AcDbEntity
  8
LIVELLO_1
 62
     7
100
AcDbLine
 10
39.357288
 20
38.015337
 30
0.0
 11
38.93044
 21
37.845149
 31
0.0
  0
SPLINE
  5
37
100
AcDbEntity
  8
LIVELLO_1
 62
     7
100
AcDbSpline
210
0.0
220
0.0
230
1.0
 70
     8
 71
     3
 72
     8
 73
     4
 74
     0
 42
0.00000001
 43
0.00000001
 40
0.0
 40
0.0
 40
0.0
 40
0.0
 40
1.0
 40
1.0
 40
1.0
 40
1.0
 10
34.214449055989583
 20
37.725259738498259
 30
0.0
 10
35.602822536892361
 20
37.077926296657985
 30
0.0
 10
37.167929416232639
 20
36.911872694227426
 30
0.0
 10
38.659311252170134
 20
37.258449300130202
 30
0.0
  0
LINE
  5
36
100
AcDbEntity
  8
LIVELLO_1
 62
     7
100
AcDbLine
 10
39.088226
 20
37.414168
 30
0.0
 11
38.659311
 21
37.258449
 31
0.0
  0
LINE
  5
35
100
AcDbEntity
  8
LIVELLO_1
 62
     7
100
AcDbLine
 10
14.030151
 20
107.666038
 30
0.0
 11
13.595036
 21
107.523067
 31
0.0
  0
LINE
  5
34
100
AcDbEntity
  8
LIVELLO_1
 62
     7
100
AcDbLine
 10
14.030151
 20
107.666038
 30
0.0
 11
39.518001
 21
37.565407
 31
0.0
  0
SPLINE
  5
33
100
AcDbEntity
  8
LIVELLO_1
 62
     7
100
AcDbSpline
210
0.0
220
0.0
230
1.0
 70
     8
 71
     3
 72
     8
 73
     4
 74
     0
 42
0.00000001
 43
0.00000001
 40
0.0
 40
0.0
 40
0.0
 40
0.0
 40
1.0
 40
1.0
 40
1.0
 40
1.0
 10
13.007474772135415
 20
107.79850192599825
 30
0.0
 10
11.645284016927082
 20
107.10276489257812
 30
0.0
 10
10.551121690538194
 20
105.96967298719618
 30
0.0
 10
9.9037882486979161
 20
104.58233303493923
 30
0.0
  0
POLYLINE
  5
2E
100
AcDbEntity
  8
LIVELLO_1
 62
     7
100
AcDb2dPolyline
 66
     1
 10
0.0
 20
0.0
 30
0.0
  0
VERTEX
  5
2F
100
AcDbEntity
  8
LIVELLO_1
 62
     7
100
AcDbVertex
100
AcDb2dVertex
 10
39.083919
 20
37.414168
 30
0.0
  0
VERTEX
  5
30
100
AcDbEntity
  8
LIVELLO_1
 62
     7
100
AcDbVertex
100
AcDb2dVertex
 10
13.438456
 20
107.954048
 30
0.0
  0
VERTEX
  5
31
100
AcDbEntity
  8
LIVELLO_1
 62
     7
100
AcDbVertex
100
AcDb2dVertex
 10
13.007475
 20
107.798502
 30
0.0
  0
SEQEND
  5
32
100
AcDbEntity
  8
LIVELLO_1
 62
     7
  0
LINE
  5
2D
100
AcDbEntity
  8
LIVELLO_1
 62
     7
100
AcDbLine
 10
30.208837
 20
39.594052
 30
0.0
 11
34.214449
 21
37.72526
 31
0.0
  0
MTEXT
  5
2C
100
AcDbEntity
  8
LIVELLO_1
 62
     7
100
AcDbMText
 10
-43.773728
 20
55.47649
 30
0.0
 40
10.215773
 41
0.0
 71
     1
 72
     2
  1
\fCourier|b0|i0;\H10.2158;\C7;\U+0032\U+0034\U+0038
  7
STD
210
0.0
220
0.0
230
1.0
 73
     1
 44
1.0
  0
ENDBLK
  5
C2
100
AcDbEntity
  8
LIVELLO_1
100
AcDbBlockEnd
  0
ENDSEC
  0
SECTION
  2
ENTITIES
  0
INSERT
  5
2A
100
AcDbEntity
  8
LIVELLO_1
 62
     7
100
AcDbBlockReference
  2
AI9-BLK1
 10
43.604401
 20
109.297291
 30
0.0
  0
ENDSEC
  0
SECTION
  2
OBJECTS
  0
DICTIONARY
  5
19
100
AcDbDictionary
280
     0
281
     1
  3
ACAD_GROUP
350
1A
  3
ACAD_MLINESTYLE
350
1B
  3
ACAD_LAYOUT
350
1E
  3
ACAD_PLOTSETTINGS
350
22
  3
ACAD_PLOTSTYLENAME
350
1F
  3
ACAD_WIPEOUT_VARS
350
23
  0
DICTIONARY
  5
1A
102
{ACAD_REACTORS
330
19
102
}
100
AcDbDictionary
280
     0
281
     1
  0
DICTIONARY
  5
1B
102
{ACAD_REACTORS
330
19
102
}
100
AcDbDictionary
280
     0
281
     1
  3
Standard
350
1C
  0
MLINESTYLE
  5
1C
102
{ACAD_REACTORS
330
1B
102
}
100
AcDbMlineStyle
  2
Standard
 70
     0
  3

 62
     0
 51
90.0
 52
90.0
 71
     2
 49
0.5
 62
   256
  6
ByLayer
 49
-0.5
 62
   256
  6
ByLayer
  0
ACDBDICTIONARYWDFLT
  5
1F
102
{ACAD_REACTORS
330
19
102
}
100
AcDbDictionary
281
     1
  3
Normal
350
1D
100
AcDbDictionaryWithDefault
340
1D
  0
ACDBPLACEHOLDER
  5
1D
102
{ACAD_REACTORS
330
1F
102
}
  0
LAYOUT
  5
20
102
{ACAD_REACTORS
330
1E
102
}
100
AcDbPlotSettings
  1

  2

  4

  6

 40
0.0
 41
0.0
 42
0.0
 43
0.0
 44
0.0
 45
0.0
 46
0.0
 47
0.0
 48
0.0
 49
0.0
140
0.0
141
0.0
142
1.0
143
1.0
 70
  1024
 72
     0
 73
     0
 74
     0
  7

 75
     0
147
1.0
148
0.0
149
0.0
100
AcDbLayout
  1
Model
 70
     0
 71
     0
 10
0.0
 20
0.0
 11
0.0
 21
0.0
 12
0.0
 22
0.0
 32
0.0
 14
0.0
 24
0.0
 34
0.0
 15
0.0
 25
0.0
 35
0.0
146
0.0
 13
0.0
 23
0.0
 33
0.0
 16
0.0
 26
0.0
 36
0.0
 17
0.0
 27
0.0
 37
0.0
 76
     0
330
A
331
0
345
0
346
0
  0
LAYOUT
  5
21
102
{ACAD_REACTORS
330
1E
102
}
100
AcDbPlotSettings
  1

  2

  4

  6

 40
0.0
 41
0.0
 42
0.0
 43
0.0
 44
0.0
 45
0.0
 46
0.0
 47
0.0
 48
0.0
 49
0.0
140
0.0
141
0.0
142
1.0
143
1.0
 70
     0
 72
     0
 73
     0
 74
     0
  7

 75
     0
147
1.0
148
0.0
149
0.0
100
AcDbLayout
  1
Layout1
 70
     0
 71
     0
 10
0.0
 20
0.0
 11
0.0
 21
0.0
 12
0.0
 22
0.0
 32
0.0
 14
0.0
 24
0.0
 34
0.0
 15
0.0
 25
0.0
 35
0.0
146
0.0
 13
0.0
 23
0.0
 33
0.0
 16
0.0
 26
0.0
 36
0.0
 17
0.0
 27
0.0
 37
0.0
 76
     0
330
B
331
0
345
0
346
0
  0
DICTIONARY
  5
1E
102
{ACAD_REACTORS
330
19
102
}
100
AcDbDictionary
280
     0
281
     1
  3
Layout1
350
21
  3
Model
350
20
  0
DICTIONARY
  5
22
102
{ACAD_REACTORS
330
19
102
}
100
AcDbDictionary
280
     0
281
     1
  0
WIPEOUTVARIABLES
  5
23
100
AcDbWipeoutVariables
 70
     1
  0
ENDSEC
  0
EOF
