  0
SECTION
  2
HEADER
  9
$ACADVER
  1
AC1015
  9
$ACADMAINTVER
 70
     6
  9
$DWGCODEPAGE
  3
ANSI_932
  9
$INSBASE
 10
0.0
 20
0.0
 30
0.0
  9
$EXTMIN
 10
23.381002
 20
27.459478
 30
1.000000E+20
  9
$EXTMAX
 10
148.580078
 20
269.378389
 30
-1.000000E+20
  9
$LIMMIN
 10
23.381002
 20
27.459478
  9
$LIMMAX
 10
148.580078
 20
269.378389
  9
$ORTHOMODE
 70
     0
  9
$REGENMODE
 70
     1
  9
$FILLMODE
 70
     1
  9
$QTEXTMODE
 70
     0
  9
$MIRRTEXT
 70
     1
  9
$LTSCALE
 40
1.0
  9
$ATTMODE
 70
     1
  9
$TEXTSIZE
 40
0.2
  9
$TRACEWID
 40
0.05
  9
$TEXTSTYLE
  7
Standard
  9
$CLAYER
  8
0
  9
$CELTYPE
  6
Continuous
  9
$CECOLOR
 62
   256
  9
$CELTSCALE
 40
1.0
  9
$DISPSILH
 70
     0
  9
$DIMSCALE
 40
1.0
  9
$DIMASZ
 40
0.18
  9
$DIMEXO
 40
0.0625
  9
$DIMDLI
 40
0.38
  9
$DIMRND
 40
0.0
  9
$DIMDLE
 40
0.0
  9
$DIMEXE
 40
0.18
  9
$DIMTP
 40
0.0
  9
$DIMTM
 40
0.0
  9
$DIMTXT
 40
0.18
  9
$DIMCEN
 40
0.09
  9
$DIMTSZ
 40
0.0
  9
$DIMTOL
 70
     0
  9
$DIMLIM
 70
     0
  9
$DIMTIH
 70
     1
  9
$DIMTOH
 70
     1
  9
$DIMSE1
 70
     0
  9
$DIMSE2
 70
     0
  9
$DIMTAD
 70
     0
  9
$DIMZIN
 70
     0
  9
$DIMBLK
  1

  9
$DIMASO
 70
     1
  9
$DIMSHO
 70
     1
  9
$DIMPOST
  1

  9
$DIMAPOST
  1

  9
$DIMALT
 70
     0
  9
$DIMALTD
 70
     2
  9
$DIMALTF
 40
25.4
  9
$DIMLFAC
 40
1.0
  9
$DIMTOFL
 70
     0
  9
$DIMTVP
 40
0.0
  9
$DIMTIX
 70
     0
  9
$DIMSOXD
 70
     0
  9
$DIMSAH
 70
     0
  9
$DIMBLK1
  1

  9
$DIMBLK2
  1

  9
$DIMSTYLE
  2
Standard
  9
$DIMCLRD
 70
     0
  9
$DIMCLRE
 70
     0
  9
$DIMCLRT
 70
     0
  9
$DIMTFAC
 40
1.0
  9
$DIMGAP
 40
0.09
  9
$DIMJUST
 70
     0
  9
$DIMSD1
 70
     0
  9
$DIMSD2
 70
     0
  9
$DIMTOLJ
 70
     1
  9
$DIMTZIN
 70
     0
  9
$DIMALTZ
 70
     0
  9
$DIMALTTZ
 70
     0
  9
$DIMUPT
 70
     0
  9
$DIMDEC
 70
     4
  9
$DIMTDEC
 70
     4
  9
$DIMALTU
 70
     2
  9
$DIMALTTD
 70
     2
  9
$DIMTXSTY
  7
Standard
  9
$DIMAUNIT
 70
     0
  9
$DIMADEC
 70
     0
  9
$DIMALTRND
 40
0.0
  9
$DIMAZIN
 70
     0
  9
$DIMDSEP
 70
     0
  9
$DIMATFIT
 70
     3
  9
$DIMFRAC
 70
     0
  9
$DIMLDRBLK
  1

  9
$DIMLUNIT
 70
     2
  9
$DIMLWD
 70
     0
  9
$DIMLWE
 70
     0
  9
$DIMTMOVE
 70
     0
  9
$LUNITS
 70
     2
  9
$LUPREC
 70
     4
  9
$SKETCHINC
 40
0.1
  9
$FILLETRAD
 40
0.0
  9
$AUNITS
 70
     0
  9
$AUPREC
 70
     0
  9
$MENU
  1
acad
  9
$ELEVATION
 40
0.0
  9
$PELEVATION
 40
0.0
  9
$THICKNESS
 40
0.0
  9
$LIMCHECK
 70
     0
  9
$CHAMFERA
 40
0.0
  9
$CHAMFERB
 40
0.0
  9
$CHAMFERC
 40
0.0
  9
$CHAMFERD
 40
0.0
  9
$SKPOLY
 70
     0
  9
$TDCREATE
 40
0.000000000
  9
$TDUCREATE
 40
0.000000000
  9
$TDUPDATE
 40
0.000000000
  9
$TDUUPDATE
 40
0.000000000
  9
$TDINDWG
 40
0.0000000000
  9
$TDUSRTIMER
 40
0.0000000000
  9
$USRTIMER
 70
     1
  9
$ANGBASE
 50
0.0
  9
$ANGDIR
 70
     0
  9
$PDMODE
 70
     0
  9
$PDSIZE
 40
0.0
  9
$PLINEWID
 40
0.0
  9
$SPLFRAME
 70
     0
  9
$SPLINETYPE
 70
     6
  9
$SPLINESEGS
 70
     8
  9
$HANDSEED
  5
174
  9
$SURFTAB1
 70
     6
  9
$SURFTAB2
 70
     6
  9
$SURFTYPE
 70
     6
  9
$SURFU
 70
     6
  9
$SURFV
 70
     6
  9
$UCSBASE
  2

  9
$UCSNAME
  2

  9
$UCSORG
 10
0.0
 20
0.0
 30
0.0
  9
$UCSXDIR
 10
1.0
 20
0.0
 30
0.0
  9
$UCSYDIR
 10
0.0
 20
1.0
 30
0.0
  9
$UCSORTHOREF
  2

  9
$UCSORTHOVIEW
 70
     0
  9
$UCSORGTOP
 10
0.0
 20
0.0
 30
0.0
  9
$UCSORGBOTTOM
 10
0.0
 20
0.0
 30
0.0
  9
$UCSORGLEFT
 10
0.0
 20
0.0
 30
0.0
  9
$UCSORGRIGHT
 10
0.0
 20
0.0
 30
0.0
  9
$UCSORGFRONT
 10
0.0
 20
0.0
 30
0.0
  9
$UCSORGBACK
 10
0.0
 20
0.0
 30
0.0
  9
$PUCSBASE
  2

  9
$PUCSNAME
  2

  9
$PUCSORG
 10
0.0
 20
0.0
 30
0.0
  9
$PUCSXDIR
 10
1.0
 20
0.0
 30
0.0
  9
$PUCSYDIR
 10
0.0
 20
1.0
 30
0.0
  9
$PUCSORTHOREF
  2

  9
$PUCSORTHOVIEW
 70
     0
  9
$PUCSORGTOP
 10
0.0
 20
0.0
 30
0.0
  9
$PUCSORGBOTTOM
 10
0.0
 20
0.0
 30
0.0
  9
$PUCSORGLEFT
 10
0.0
 20
0.0
 30
0.0
  9
$PUCSORGRIGHT
 10
0.0
 20
0.0
 30
0.0
  9
$PUCSORGFRONT
 10
0.0
 20
0.0
 30
0.0
  9
$PUCSORGBACK
 10
0.0
 20
0.0
 30
0.0
  9
$USERI1
 70
     0
  9
$USERI2
 70
     0
  9
$USERI3
 70
     0
  9
$USERI4
 70
     0
  9
$USERI5
 70
     0
  9
$USERR1
 40
0.0
  9
$USERR2
 40
0.0
  9
$USERR3
 40
0.0
  9
$USERR4
 40
0.0
  9
$USERR5
 40
0.0
  9
$WORLDVIEW
 70
     1
  9
$SHADEDGE
 70
     3
  9
$SHADEDIF
 70
    70
  9
$TILEMODE
 70
     1
  9
$MAXACTVP
 70
    16
  9
$PINSBASE
 10
0.0
 20
0.0
 30
0.0
  9
$PLIMCHECK
 70
     0
  9
$PEXTMIN
 10
1.000000E+20
 20
1.000000E+20
 30
1.000000E+20
  9
$PEXTMAX
 10
-1.000000E+20
 20
-1.000000E+20
 30
-1.000000E+20
  9
$PLIMMIN
 10
0.0
 20
0.0
  9
$PLIMMAX
 10
12.0
 20
9.0
  9
$UNITMODE
 70
     0
  9
$VISRETAIN
 70
     0
  9
$PLINEGEN
 70
     1
  9
$PSLTSCALE
 70
     0
  9
$TREEDEPTH
 70
  3020
  9
$CMLSTYLE
  2
Standard
  9
$CMLJUST
 70
     0
  9
$CMLSCALE
 40
1.0
  9
$PROXYGRAPHICS
 70
     0
  9
$MEASUREMENT
 70
     1
  9
$CELWEIGHT
370
     0
  9
$ENDCAPS
280
     0
  9
$JOINSTYLE
280
     0
  9
$LWDISPLAY
290
     0
  9
$INSUNITS
 70
     0
  9
$HYPERLINKBASE
  1

  9
$STYLESHEET
  1

  9
$XEDIT
290
     1
  9
$CEPSNTYPE
380
     0
  9
$PSTYLEMODE
290
     1
  9
$FINGERPRINTGUID
  2

  9
$VERSIONGUID
  2

  9
$EXTNAMES
290
     1
  9
$PSVPSCALE
 40
0.0
  0
ENDSEC
  0
SECTION
  2
CLASSES
  0
CLASS
  1
LWPOLYLINE
  2
AcDbPolyline
  3
AutoCAD 2000
 90
    32768
280
     0
281
     1
  0
CLASS
  1
IMAGE
  2
AcDbRasterImage
  3
ISM
 90
    32895
280
     0
281
     1
  0
CLASS
  1
OLE2FRAME
  2
AcDbOle2Frame
  3
AutoCAD 2000
 90
    32768
280
     0
281
     1
  0
CLASS
  1
HATCH
  2
AcDbHatch
  3
AutoCAD 2000
 90
    32768
280
     0
281
     1
  0
CLASS
  1
DICTIONARYVAR
  2
AcDbDictionaryVar
  3
AutoCAD 2000
 90
    32768
280
     0
281
     0
  0
CLASS
  1
RASTERVARIABLES
  2
AcDbRasterVariables
  3
ISM
 90
    32768
280
     0
281
     0
  0
CLASS
  1
IMAGEDEF
  2
AcDbRasterImageDef
  3
ISM
 90
    32768
280
     0
281
     0
  0
CLASS
  1
IMAGEDEF_REACTOR
  2
AcDbRasterImageDefReactor
  3
ISM
 90
    32769
280
     0
281
     0
  0
CLASS
  1
IDBUFFER
  2
AcDbIdBuffer
  3
AutoCAD 2000
 90
    32768
280
     0
281
     0
  0
CLASS
  1
SPATIAL_FILTER
  2
AcDbSpatialFilter
  3
AutoCAD 2000
 90
    32768
280
     0
281
     0
  0
CLASS
  1
XRECORD
  2
AcDbXrecord
  3
AutoCAD 2000
 90
    32768
280
     0
281
     0
  0
CLASS
  1
SORTENTSTABLE
  2
AcDbSortentsTable
  3
AutoCAD 2000
 90
    32768
280
     0
281
     0
  0
CLASS
  1
LAYER_INDEX
  2
AcDbLayerIndex
  3
AutoCAD 2000
 90
    32768
280
     0
281
     0
  0
CLASS
  1
SPATIAL_INDEX
  2
AcDbSpatialIndex
  3
AutoCAD 2000
 90
    32768
280
     0
281
     0
  0
CLASS
  1
OBJECT_PTR
  2
CAseDLPNTableRecord
  3
"ASE-LPNTableRecord"
 90
    32769
280
     0
281
     0
  0
CLASS
  1
LAYOUT
  2
AcDbLayout
  3
AutoCAD 2000
 90
        0
280
     0
281
     0
  0
CLASS
  1
PLOTSETTINGS
  2
AcDbPlotSettings
  3
AutoCAD 2000
 90
    32768
280
     0
281
     0
  0
CLASS
  1
ACDBDICTIONARYWDFLT
  2
AcDbDictionaryWithDefault
  3
AutoCAD 2000
 90
        0
280
     0
281
     0
  0
CLASS
  1
ACDBPLACEHOLDER
  2
AcDbPlaceHolder
  3
AutoCAD 2000
 90
        0
280
     0
281
     0
  0
CLASS
  1
VBA_PROJECT
  2
AcDbVbaProject
  3
acadvba
 90
    32768
280
     0
281
     0
  0
CLASS
  1
WIPEOUT
  2
AcDbWipeout
  3
WipeOut|AutoCAD Express Tool|expresstools@autodesk.com
 90
    32895
280
     0
281
     1
  0
CLASS
  1
WIPEOUTVARIABLES
  2
AcDbWipeoutVariables
  3
WipeOut|AutoCAD Express Tool|expresstools@autodesk.com
 90
        0
280
     0
281
     0
  0
CLASS
  1
RTEXT
  2
RText
  3
RText|AutoCAD Express Tool|expresstools@autodesk.com
 90
    32768
280
     0
281
     1
  0
CLASS
  1
ARCALIGNEDTEXT
  2
AcDbArcAlignedText
  3
ATEXT|AutoCAD Express Tool|expresstools@autodesk.com
 90
    32768
280
     0
281
     1
  0
ENDSEC
  0
SECTION
  2
TABLES
  0
TABLE
  2
VPORT
  5
7
100
AcDbSymbolTable
 70
     1
  0
VPORT
  5
15
100
AcDbSymbolTableRecord
100
AcDbViewportTableRecord
  2
*ACTIVE
 70
     0
 10
0.0
 20
0.0
 11
1.0
 21
1.0
 12
6.591288
 22
4.579184
 13
0.0
 23
0.0
 14
1.0
 24
1.0
 15
0.0
 25
0.0
 16
0.0
 26
0.0
 36
1.0
 17
0.0
 27
0.0
 37
0.0
 40
9.158369
 41
0.688564
 42
50.0
 43
0.0
 44
0.0
 50
0.0
 51
0.0
 71
     0
 72
   100
 73
     1
 74
     1
 75
     0
 76
     0
 77
     0
 78
     0
281
     0
 65
     0
110
0.0
120
0.0
130
0.0
111
1.0
121
0.0
131
0.0
112
0.0
122
1.0
132
0.0
345
0
346
0
 79
     0
146
0.0
  0
ENDTAB
  0
TABLE
  2
LTYPE
  5
4
100
AcDbSymbolTable
 70
     3
  0
LTYPE
  5
11
100
AcDbSymbolTableRecord
100
AcDbLinetypeTableRecord
  2
ByBlock
 70
    64
  3

 72
    65
 73
     0
 40
0.0
  0
LTYPE
  5
12
100
AcDbSymbolTableRecord
100
AcDbLinetypeTableRecord
  2
ByLayer
 70
    64
  3

 72
    65
 73
     0
 40
0.0
  0
LTYPE
  5
13
100
AcDbSymbolTableRecord
100
AcDbLinetypeTableRecord
  2
Continuous
 70
    64
  3
Solid line
 72
    65
 73
     0
 40
0.0
  0
ENDTAB
  0
TABLE
  2
LAYER
  5
2
100
AcDbSymbolTable
 70
     2
  0
LAYER
  5
14
100
AcDbSymbolTableRecord
100
AcDbLayerTableRecord
  2
0
 70
     0
 62
     7
  6
Continuous
290
     1
370
    -3
390
1D
  0
LAYER
  5
28
100
AcDbSymbolTableRecord
100
AcDbLayerTableRecord
  2
LIVELLO_1
 70
     0
 62
   160
  6
Continuous
290
     1
370
    -3
390
1D
  0
ENDTAB
  0
TABLE
  2
STYLE
  5
3
100
AcDbSymbolTable
 70
     5
  0
STYLE
  5
17
100
AcDbSymbolTableRecord
100
AcDbTextStyleTableRecord
  2
Standard
 70
     0
 40
0.0
 41
1.0
 50
0.0
 71
     0
 42
0.0
  3
txt
  4

  0
STYLE
  5
24
100
AcDbSymbolTableRecord
100
AcDbTextStyleTableRecord
  2
STD
 70
     0
 40
0.0
 41
1.0
 50
0.0
 71
     0
 42
0.0
  3
txt
  4

  0
STYLE
  5
25
100
AcDbSymbolTableRecord
100
AcDbTextStyleTableRecord
  2
TATESTD
 70
     4
 40
0.0
 41
1.0
 50
0.0
 71
     0
 42
0.0
  3
txt
  4

  0
STYLE
  5
26
100
AcDbSymbolTableRecord
100
AcDbTextStyleTableRecord
  2
KANJISTD
 70
     0
 40
0.0
 41
1.0
 50
0.0
 71
     0
 42
0.0
  3
txt
  4
extfont
  0
STYLE
  5
27
100
AcDbSymbolTableRecord
100
AcDbTextStyleTableRecord
  2
KANJITATE
 70
     4
 40
0.0
 41
1.0
 50
0.0
 71
     0
 42
0.0
  3
txt
  4
extfont
  0
ENDTAB
  0
TABLE
  2
VIEW
  5
5
100
AcDbSymbolTable
 70
     0
  0
ENDTAB
  0
TABLE
  2
UCS
  5
6
100
AcDbSymbolTable
 70
     0
  0
ENDTAB
  0
TABLE
  2
APPID
  5
8
100
AcDbSymbolTable
 70
     1
  0
APPID
  5
16
100
AcDbSymbolTableRecord
100
AcDbRegAppTableRecord
  2
ACAD
 70
     0
  0
ENDTAB
  0
TABLE
  2
DIMSTYLE
  5
9
100
AcDbSymbolTable
 70
     1
100
AcDbDimStyleTable
 71
     0
  0
DIMSTYLE
105
18
100
AcDbSymbolTableRecord
100
AcDbDimStyleTableRecord
  2
Standard
 70
     0
  3

  4

 40
1.0
 41
0.18
 42
0.0625
 43
0.38
 44
0.18
 45
0.0
 46
0.0
 47
0.0
 48
0.0
 71
     0
 72
     0
 73
     1
 74
     1
 75
     0
 76
     0
 77
     0
 78
     0
 79
     0
140
0.18
141
0.09
142
0.0
143
25.4
144
1.0
145
0.0
146
1.0
147
0.09
148
0.0
170
     0
171
     2
172
     0
173
     0
174
     0
175
     0
176
     0
177
     0
178
     0
179
     0
271
     4
272
     4
273
     2
274
     2
275
     0
276
     0
277
     2
278
    46
279
     0
280
     0
281
     0
282
     0
283
     1
284
     0
285
     0
286
     0
288
     0
340
17
341
0
342
0
343
0
344
0
371
    -2
372
    -2
  0
ENDTAB
  0
TABLE
  2
BLOCK_RECORD
  5
1
100
AcDbSymbolTable
 70
     4
  0
BLOCK_RECORD
  5
A
100
AcDbSymbolTableRecord
100
AcDbBlockTableRecord
  2
*MODEL_SPACE
340
20
  0
BLOCK_RECORD
  5
B
100
AcDbSymbolTableRecord
100
AcDbBlockTableRecord
  2
*PAPER_SPACE
340
21
  0
BLOCK_RECORD
  5
29
100
AcDbSymbolTableRecord
100
AcDbBlockTableRecord
  2
AI9-BLK1
340
0
102
{BLKREFS
331
2A
102
}
  0
BLOCK_RECORD
  5
31
100
AcDbSymbolTableRecord
100
AcDbBlockTableRecord
  2
AI9-BLK2
340
0
102
{BLKREFS
331
32
102
}
  0
BLOCK_RECORD
  5
14F
100
AcDbSymbolTableRecord
100
AcDbBlockTableRecord
  2
AI9-BLK3
340
0
102
{BLKREFS
331
150
102
}
  0
BLOCK_RECORD
  5
152
100
AcDbSymbolTableRecord
100
AcDbBlockTableRecord
  2
AI9-BLK4
340
0
102
{BLKREFS
331
153
102
}
  0
ENDTAB
  0
ENDSEC
  0
SECTION
  2
BLOCKS
  0
BLOCK
  5
D
100
AcDbEntity
  8
0
100
AcDbBlockBegin
  2
*MODEL_SPACE
 70
     0
 10
0.0
 20
0.0
 30
0.0
  3
*MODEL_SPACE
  1

  0
ENDBLK
  5
E
100
AcDbEntity
  8
0
100
AcDbBlockEnd
  0
BLOCK
  5
F
100
AcDbEntity
 67
     1
  8
0
100
AcDbBlockBegin
  2
*PAPER_SPACE
 70
     0
 10
0.0
 20
0.0
 30
0.0
  3
*PAPER_SPACE
  1

  0
ENDBLK
  5
10
100
AcDbEntity
 67
     1
  8
0
100
AcDbBlockEnd
  0
BLOCK
  5
2B
100
AcDbEntity
  8
LIVELLO_1
 62
     7
100
AcDbBlockBegin
  2
AI9-BLK1
 70
     0
 10
0.0
 20
0.0
 30
0.0
  3
AI9-BLK1
  1

  0
CIRCLE
  5
172
100
AcDbEntity
  8
LIVELLO_1
 62
     7
100
AcDbCircle
 10
7.832855
 20
87.407499
 30
0.0
 40
33.365405
  0
LINE
  5
171
100
AcDbEntity
  8
LIVELLO_1
 62
     7
100
AcDbLine
 10
11.846047
 20
69.166235
 30
0.0
 11
20.38196
 21
69.166235
 31
0.0
  0
LINE
  5
170
100
AcDbEntity
  8
LIVELLO_1
 62
     7
100
AcDbLine
 10
-2.384437
 20
70.873624
 30
0.0
 11
6.723879
 21
70.873624
 31
0.0
  0
LINE
  5
16F
100
AcDbEntity
  8
LIVELLO_1
 62
     7
100
AcDbLine
 10
11.275367
 20
79.410398
 30
0.0
 11
25.504128
 21
79.410398
 31
0.0
  0
LINE
  5
16E
100
AcDbEntity
  8
LIVELLO_1
 62
     7
100
AcDbLine
 10
-9.782263
 20
79.410398
 30
0.0
 11
-1.813757
 21
79.410398
 31
0.0
  0
LINE
  5
16D
100
AcDbEntity
  8
LIVELLO_1
 62
     7
100
AcDbLine
 10
22.089349
 20
89.087155
 30
0.0
 11
25.504128
 21
89.087155
 31
0.0
  0
LINE
  5
16C
100
AcDbEntity
  8
LIVELLO_1
 62
     7
100
AcDbLine
 10
-4.660095
 20
89.087155
 30
0.0
 11
14.690146
 21
89.087155
 31
0.0
  0
LINE
  5
16B
100
AcDbEntity
  8
LIVELLO_1
 62
     7
100
AcDbLine
 10
13.553436
 20
99.331318
 30
0.0
 11
20.950401
 21
99.331318
 31
0.0
  0
LINE
  5
16A
100
AcDbEntity
  8
LIVELLO_1
 62
     7
100
AcDbLine
 10
-7.505743
 20
99.331318
 30
0.0
 11
6.723879
 21
99.331318
 31
0.0
  0
LINE
  5
169
100
AcDbEntity
  8
LIVELLO_1
 62
     7
100
AcDbLine
 10
3.87668
 20
109.007903
 30
0.0
 11
9.568667
 21
109.007903
 31
0.0
  0
CIRCLE
  5
168
100
AcDbEntity
  8
LIVELLO_1
 62
     7
100
AcDbCircle
 10
7.832855
 20
87.407499
 30
0.0
 40
25.021384
  0
CIRCLE
  5
167
100
AcDbEntity
  8
LIVELLO_1
 62
     7
100
AcDbCircle
 10
7.832855
 20
87.408274
 30
0.0
 40
25.305863
  0
CIRCLE
  5
166
100
AcDbEntity
  8
LIVELLO_1
 62
     7
100
AcDbCircle
 10
27.580143
 20
107.15091
 30
0.0
 40
1.441716
  0
CIRCLE
  5
165
100
AcDbEntity
  8
LIVELLO_1
 62
     7
100
AcDbCircle
 10
27.580832
 20
107.150135
 30
0.0
 40
0.864798
  0
CIRCLE
  5
164
100
AcDbEntity
  8
LIVELLO_1
 62
     7
100
AcDbCircle
 10
27.581693
 20
67.580716
 30
0.0
 40
1.442934
  0
CIRCLE
  5
163
100
AcDbEntity
  8
LIVELLO_1
 62
     7
100
AcDbCircle
 10
27.582554
 20
67.580716
 30
0.0
 40
0.865346
  0
CIRCLE
  5
162
100
AcDbEntity
  8
LIVELLO_1
 62
     7
100
AcDbCircle
 10
-11.997803
 20
67.57994
 30
0.0
 40
1.442873
  0
CIRCLE
  5
161
100
AcDbEntity
  8
LIVELLO_1
 62
     7
100
AcDbCircle
 10
-11.997459
 20
67.57839
 30
0.0
 40
0.864554
  0
CIRCLE
  5
160
100
AcDbEntity
  8
LIVELLO_1
 62
     7
100
AcDbCircle
 10
-11.986951
 20
107.144709
 30
0.0
 40
1.442325
  0
CIRCLE
  5
15F
100
AcDbEntity
  8
LIVELLO_1
 62
     7
100
AcDbCircle
 10
-11.986607
 20
107.144709
 30
0.0
 40
0.865103
  0
CIRCLE
  5
15E
100
AcDbEntity
  8
LIVELLO_1
 62
     7
100
AcDbCircle
 10
7.832855
 20
87.408188
 30
0.0
 40
31.276299
  0
LINE
  5
15D
100
AcDbEntity
  8
LIVELLO_1
 62
     7
100
AcDbLine
 10
-4.167274
 20
46.042065
 30
0.0
 11
-25.871031
 21
46.042065
 31
0.0
  0
LINE
  5
15C
100
AcDbEntity
  8
LIVELLO_1
 62
     7
100
AcDbLine
 10
43.804131
 20
46.042065
 30
0.0
 11
20.906304
 21
46.042065
 31
0.0
  0
LINE
  5
15B
100
AcDbEntity
  8
LIVELLO_1
 62
     7
100
AcDbLine
 10
44.073882
 20
42.062807
 30
0.0
 11
44.073882
 21
49.809966
 31
0.0
  0
LINE
  5
15A
100
AcDbEntity
  8
LIVELLO_1
 62
     7
100
AcDbLine
 10
-26.012969
 20
42.059707
 30
0.0
 11
-26.012969
 21
49.808415
 31
0.0
  0
MTEXT
  5
159
100
AcDbEntity
  8
LIVELLO_1
 62
     7
100
AcDbMText
 10
-0.638462
 20
49.597966
 30
0.0
 40
6.10131
 41
0.0
 71
     1
 72
     2
  1
\fArial Narrow|b0|i0;\H6.1013;\C7;\U+00F8
  7
STD
210
0.0
220
0.0
230
1.0
 73
     1
 44
1.0
  0
MTEXT
  5
158
100
AcDbEntity
  8
LIVELLO_1
 62
     7
100
AcDbMText
 10
3.468091
 20
51.631734
 30
0.0
 40
8.135078
 41
0.0
 71
     1
 72
     2
  1
\fArial Narrow|b0|i0;\H8.1351;\C7;\U+002E
  7
STD
210
0.0
220
0.0
230
1.0
 73
     1
 44
1.0
  0
MTEXT
  5
157
100
AcDbEntity
  8
LIVELLO_1
 62
     7
100
AcDbMText
 10
5.319658
 20
49.50252
 30
0.0
 40
6.255633
 41
0.0
 71
     1
 72
     2
  1
\fMyriad Roman|b0|i0;\H6.2556;\W0.98;\C7;\U+0032\U+0035\U+0030
  7
STD
210
0.0
220
0.0
230
1.0
 73
     1
 44
1.0
  0
INSERT
  5
150
100
AcDbEntity
  8
LIVELLO_1
 62
     7
100
AcDbBlockReference
  2
AI9-BLK3
 10
9.111072
 20
-39.488287
 30
0.0
  0
POLYLINE
  5
149
100
AcDbEntity
  8
LIVELLO_1
 62
     7
100
AcDb2dPolyline
 66
     1
 10
0.0
 20
0.0
 30
0.0
  0
VERTEX
  5
14A
100
AcDbEntity
  8
LIVELLO_1
 62
     7
100
AcDbVertex
100
AcDb2dVertex
 10
-23.032444
 20
-82.243473
 30
0.0
  0
VERTEX
  5
14B
100
AcDbEntity
  8
LIVELLO_1
 62
     7
100
AcDbVertex
100
AcDb2dVertex
 10
-23.357834
 20
35.895053
 30
0.0
  0
VERTEX
  5
14C
100
AcDbEntity
  8
LIVELLO_1
 62
     7
100
AcDbVertex
100
AcDb2dVertex
 10
42.01337
 20
35.895053
 30
0.0
  0
VERTEX
  5
14D
100
AcDbEntity
  8
LIVELLO_1
 62
     7
100
AcDbVertex
100
AcDb2dVertex
 10
42.004757
 20
-82.181805
 30
0.0
  0
SEQEND
  5
14E
100
AcDbEntity
  8
LIVELLO_1
 62
     7
  0
POLYLINE
  5
143
100
AcDbEntity
  8
LIVELLO_1
 62
     7
100
AcDb2dPolyline
 66
     1
 10
0.0
 20
0.0
 30
0.0
  0
VERTEX
  5
144
100
AcDbEntity
  8
LIVELLO_1
 62
     7
100
AcDbVertex
100
AcDb2dVertex
 10
-23.032444
 20
-82.243473
 30
0.0
  0
VERTEX
  5
145
100
AcDbEntity
  8
LIVELLO_1
 62
     7
100
AcDbVertex
100
AcDb2dVertex
 10
-23.357834
 20
35.895053
 30
0.0
  0
VERTEX
  5
146
100
AcDbEntity
  8
LIVELLO_1
 62
     7
100
AcDbVertex
100
AcDb2dVertex
 10
42.01337
 20
35.895053
 30
0.0
  0
VERTEX
  5
147
100
AcDbEntity
  8
LIVELLO_1
 62
     7
100
AcDbVertex
100
AcDb2dVertex
 10
42.004757
 20
-82.181805
 30
0.0
  0
SEQEND
  5
148
100
AcDbEntity
  8
LIVELLO_1
 62
     7
  0
LINE
  5
142
100
AcDbEntity
  8
LIVELLO_1
 62
     7
100
AcDbLine
 10
-59.292763
 20
-80.819959
 30
0.0
 11
-51.356641
 21
-80.819959
 31
0.0
  0
LINE
  5
141
100
AcDbEntity
  8
LIVELLO_1
 62
     7
100
AcDbLine
 10
-55.314367
 20
-29.433948
 30
0.0
 11
-55.314367
 21
-80.819959
 31
0.0
  0
LINE
  5
140
100
AcDbEntity
  8
LIVELLO_1
 62
     7
100
AcDbLine
 10
-55.314367
 20
35.509374
 30
0.0
 11
-55.314367
 21
-17.730615
 31
0.0
  0
MTEXT
  5
13F
100
AcDbEntity
  8
LIVELLO_1
 62
     7
100
AcDbMText
 10
-62.599538
 20
-21.765915
 30
0.0
 40
4.455482
 41
0.0
 71
     1
 72
     2
  1
\fMyriad Roman|b0|i0;\H4.4555;\W1.18;\C7;\U+0034\U+0037\U+0030
  7
STD
210
0.0
220
0.0
230
1.0
 73
     1
 44
1.0
  0
LINE
  5
13E
100
AcDbEntity
  8
LIVELLO_1
 62
     7
100
AcDbLine
 10
-44.352073
 20
35.509374
 30
0.0
 11
-27.146577
 21
35.592573
 31
0.0
  0
LINE
  5
13D
100
AcDbEntity
  8
LIVELLO_1
 62
     7
100
AcDbLine
 10
45.36407
 20
35.509374
 30
0.0
 11
62.474826
 21
35.592573
 31
0.0
  0
POLYLINE
  5
137
100
AcDbEntity
  8
LIVELLO_1
 62
     7
100
AcDb2dPolyline
 66
     1
 10
0.0
 20
0.0
 30
0.0
  0
VERTEX
  5
138
100
AcDbEntity
  8
LIVELLO_1
 62
     7
100
AcDbVertex
100
AcDb2dVertex
 10
-23.222097
 20
35.509374
 30
0.0
  0
VERTEX
  5
139
100
AcDbEntity
  8
LIVELLO_1
 62
     7
100
AcDbVertex
100
AcDb2dVertex
 10
-23.222097
 20
-80.819959
 30
0.0
  0
VERTEX
  5
13A
100
AcDbEntity
  8
LIVELLO_1
 62
     7
100
AcDbVertex
100
AcDb2dVertex
 10
41.464911
 20
-80.819959
 30
0.0
  0
VERTEX
  5
13B
100
AcDbEntity
  8
LIVELLO_1
 62
     7
100
AcDbVertex
100
AcDb2dVertex
 10
41.464911
 20
35.509374
 30
0.0
  0
SEQEND
  5
13C
100
AcDbEntity
  8
LIVELLO_1
 62
     7
  0
LINE
  5
136
100
AcDbEntity
  8
LIVELLO_1
 62
     7
100
AcDbLine
 10
30.42338
 20
-69.57
 30
0.0
 11
23.940399
 21
-69.57
 31
0.0
  0
SPLINE
  5
135
100
AcDbEntity
  8
LIVELLO_1
 62
     7
100
AcDbSpline
210
0.0
220
0.0
230
1.0
 70
     8
 71
     3
 72
   119
 73
   115
 74
     0
 42
0.00000001
 43
0.00000001
 40
0.0
 40
0.0
 40
0.0
 40
0.0
 40
1.0
 40
1.0
 40
1.0
 40
2.0
 40
2.0
 40
2.0
 40
3.0
 40
3.0
 40
3.0
 40
4.0
 40
4.0
 40
4.0
 40
5.0
 40
5.0
 40
5.0
 40
6.0
 40
6.0
 40
6.0
 40
7.0
 40
7.0
 40
7.0
 40
8.0
 40
8.0
 40
8.0
 40
9.0
 40
9.0
 40
9.0
 40
10.0
 40
10.0
 40
10.0
 40
11.0
 40
11.0
 40
11.0
 40
12.0
 40
12.0
 40
12.0
 40
13.0
 40
13.0
 40
13.0
 40
14.0
 40
14.0
 40
14.0
 40
15.0
 40
15.0
 40
15.0
 40
16.0
 40
16.0
 40
16.0
 40
17.0
 40
17.0
 40
17.0
 40
18.0
 40
18.0
 40
18.0
 40
19.0
 40
19.0
 40
19.0
 40
20.0
 40
20.0
 40
20.0
 40
21.0
 40
21.0
 40
21.0
 40
22.0
 40
22.0
 40
22.0
 40
23.0
 40
23.0
 40
23.0
 40
24.0
 40
24.0
 40
24.0
 40
25.0
 40
25.0
 40
25.0
 40
26.0
 40
26.0
 40
26.0
 40
27.0
 40
27.0
 40
27.0
 40
28.0
 40
28.0
 40
28.0
 40
29.0
 40
29.0
 40
29.0
 40
30.0
 40
30.0
 40
30.0
 40
31.0
 40
31.0
 40
31.0
 40
32.0
 40
32.0
 40
32.0
 40
33.0
 40
33.0
 40
33.0
 40
34.0
 40
34.0
 40
34.0
 40
35.0
 40
35.0
 40
35.0
 40
36.0
 40
36.0
 40
36.0
 40
37.0
 40
37.0
 40
37.0
 40
38.0
 40
38.0
 40
38.0
 40
38.0
 10
29.253425428602426
 20
-72.125571695963529
 30
0.0
 10
29.253425428602426
 20
-72.125571695963529
 30
0.0
 10
28.669137234157983
 20
-72.125571695963529
 30
0.0
 10
28.669137234157983
 20
-72.125571695963529
 30
0.0
 10
28.669137234157983
 20
-72.125571695963529
 30
0.0
 10
28.083126491970482
 20
-72.125571695963529
 30
0.0
 10
28.083126491970482
 20
-72.125571695963529
 30
0.0
 10
28.083126491970482
 20
-72.125571695963529
 30
0.0
 10
27.498493787977427
 20
-72.125571695963529
 30
0.0
 10
27.498493787977427
 20
-72.125571695963529
 30
0.0
 10
27.498493787977427
 20
-72.125571695963529
 30
0.0
 10
26.914550103081595
 20
-72.125571695963529
 30
0.0
 10
26.914550103081595
 20
-72.125571695963529
 30
0.0
 10
26.914550103081595
 20
-72.125571695963529
 30
0.0
 10
26.354033067491319
 20
-72.125571695963529
 30
0.0
 10
26.354033067491319
 20
-72.125571695963529
 30
0.0
 10
26.354033067491319
 20
-72.125571695963529
 30
0.0
 10
26.060166422526038
 20
-72.125571695963529
 30
0.0
 10
26.060166422526038
 20
-72.125571695963529
 30
0.0
 10
26.060166422526038
 20
-72.125571695963529
 30
0.0
 10
25.76940036349826
 20
-72.125571695963529
 30
0.0
 10
25.76940036349826
 20
-72.125571695963529
 30
0.0
 10
25.76940036349826
 20
-72.125571695963529
 30
0.0
 10
25.475533718532983
 20
-72.125571695963529
 30
0.0
 10
25.475533718532983
 20
-72.125571695963529
 30
0.0
 10
25.475533718532983
 20
-72.125571695963529
 30
0.0
 10
25.330495198567707
 20
-72.125571695963529
 30
0.0
 10
25.330495198567707
 20
-72.125571695963529
 30
0.0
 10
25.330495198567707
 20
-72.125571695963529
 30
0.0
 10
25.183389621310763
 20
-72.125571695963529
 30
0.0
 10
25.183389621310763
 20
-72.125571695963529
 30
0.0
 10
25.183389621310763
 20
-72.125571695963529
 30
0.0
 10
24.891245524088539
 20
-72.125571695963529
 30
0.0
 10
24.891245524088539
 20
-72.125571695963529
 30
0.0
 10
24.793060302734371
 20
-72.105590142144095
 30
0.0
 10
24.695219590928819
 20
-72.084230550130201
 30
0.0
 10
24.622872585720483
 20
-72.042544894748261
 30
0.0
 10
24.524687364366319
 20
-72.042544894748261
 30
0.0
 10
24.426846652560762
 20
-72.002237277560752
 30
0.0
 10
24.35449964735243
 20
-71.959173583984366
 30
0.0
 10
24.256314425998262
 20
-71.920588514539929
 30
0.0
 10
24.185345458984372
 20
-71.877524820963529
 30
0.0
 10
24.111275906032983
 20
-71.835839165581589
 30
0.0
 10
24.015157741970484
 20
-71.797254096137152
 30
0.0
 10
23.940399169921871
 20
-71.733864339192706
 30
0.0
 10
23.891823323567706
 20
-71.672197129991318
 30
0.0
 10
23.819131808810763
 20
-71.612252468532986
 30
0.0
 10
23.745751274956596
 20
-71.548862711588541
 30
0.0
 10
23.697175428602428
 20
-71.467213948567704
 30
0.0
 10
23.64791056315104
 20
-71.425528293185764
 30
0.0
 10
23.599334716796871
 20
-71.343879530164926
 30
0.0
 10
23.550069851345484
 20
-71.260508219401032
 30
0.0
 10
23.526987711588539
 20
-71.177136908637152
 30
0.0
 10
23.47737833658854
 20
-71.115469699435764
 30
0.0
 10
23.452229139539927
 20
-71.032098388671869
 30
0.0
 10
23.452229139539927
 20
-70.993513319227418
 30
0.0
 10
23.428802490234371
 20
-70.950449625651032
 30
0.0
 10
23.428802490234371
 20
-70.908763970269092
 30
0.0
 10
23.428802490234371
 20
-70.867078314887152
 30
0.0
 10
23.428802490234371
 20
-70.827115207248255
 30
0.0
 10
23.403653293185762
 20
-70.788530137803818
 30
0.0
 10
23.403653293185762
 20
-70.788530137803818
 30
0.0
 10
23.403653293185762
 20
-70.662095133463538
 30
0.0
 10
23.403653293185762
 20
-70.662095133463538
 30
0.0
 10
23.403653293185762
 20
-70.662095133463538
 30
0.0
 10
23.403653293185762
 20
-70.558742268880195
 30
0.0
 10
23.403653293185762
 20
-70.558742268880195
 30
0.0
 10
23.403653293185762
 20
-70.558742268880195
 30
0.0
 10
23.403653293185762
 20
-70.436785888671864
 30
0.0
 10
23.403653293185762
 20
-70.436785888671864
 30
0.0
 10
23.403653293185762
 20
-70.436785888671864
 30
0.0
 10
23.403653293185762
 20
-70.310350884331598
 30
0.0
 10
23.403653293185762
 20
-70.310350884331598
 30
0.0
 10
23.403653293185762
 20
-70.310350884331598
 30
0.0
 10
23.403653293185762
 20
-70.188394504123252
 30
0.0
 10
23.403653293185762
 20
-70.188394504123252
 30
0.0
 10
23.403653293185762
 20
-70.188394504123252
 30
0.0
 10
23.403653293185762
 20
-70.066782633463532
 30
0.0
 10
23.403653293185762
 20
-70.066782633463532
 30
0.0
 10
23.403653293185762
 20
-70.066782633463532
 30
0.0
 10
23.403653293185762
 20
-69.982033284505206
 30
0.0
 10
23.403653293185762
 20
-69.982033284505206
 30
0.0
 10
23.403653293185762
 20
-69.982033284505206
 30
0.0
 10
23.403653293185762
 20
-69.940347629123252
 30
0.0
 10
23.403653293185762
 20
-69.940347629123252
 30
0.0
 10
23.403653293185762
 20
-69.940347629123252
 30
0.0
 10
23.403653293185762
 20
-69.860076904296875
 30
0.0
 10
23.403653293185762
 20
-69.860076904296875
 30
0.0
 10
23.403653293185762
 20
-69.860076904296875
 30
0.0
 10
23.403653293185762
 20
-69.818391248914921
 30
0.0
 10
23.403653293185762
 20
-69.818391248914921
 30
0.0
 10
23.403653293185762
 20
-69.818391248914921
 30
0.0
 10
23.403653293185762
 20
-69.735019938151041
 30
0.0
 10
23.403653293185762
 20
-69.735019938151041
 30
0.0
 10
23.403653293185762
 20
-69.735019938151041
 30
0.0
 10
23.403653293185762
 20
-69.715038384331592
 30
0.0
 10
23.403653293185762
 20
-69.715038384331592
 30
0.0
 10
23.403653293185762
 20
-69.715038384331592
 30
0.0
 10
23.403653293185762
 20
-69.695056830512144
 30
0.0
 10
23.403653293185762
 20
-69.695056830512144
 30
0.0
 10
23.403653293185762
 20
-69.695056830512144
 30
0.0
 10
23.403653293185762
 20
-69.651648627387146
 30
0.0
 10
23.403653293185762
 20
-69.651648627387146
 30
0.0
 10
23.403653293185762
 20
-69.651648627387146
 30
0.0
 10
23.403653293185762
 20
-69.613408067491306
 30
0.0
 10
23.403653293185762
 20
-69.613408067491306
 30
0.0
 10
23.403653293185762
 20
-69.613408067491306
 30
0.0
 10
23.403653293185762
 20
-69.591703965928815
 30
0.0
 10
23.403653293185762
 20
-69.591703965928815
 30
0.0
 10
23.403653293185762
 20
-69.591703965928815
 30
0.0
 10
23.403653293185762
 20
-69.569999864366309
 30
0.0
 10
23.403653293185762
 20
-69.569999864366309
 30
0.0
 10
23.403653293185762
 20
-69.569999864366309
 30
0.0
 10
30.984241400824651
 20
-69.569999864366309
 30
0.0
 10
30.984241400824651
 20
-69.569999864366309
 30
0.0
  0
LINE
  5
134
100
AcDbEntity
  8
LIVELLO_1
 62
     7
100
AcDbLine
 10
40.71009
 20
33.84057
 30
0.0
 11
-22.465554
 21
33.84057
 31
0.0
  0
LINE
  5
133
100
AcDbEntity
  8
LIVELLO_1
 62
     7
100
AcDbLine
 10
-23.222097
 20
33.84057
 30
0.0
 11
41.464911
 21
33.84057
 31
0.0
  0
LINE
  5
132
100
AcDbEntity
  8
LIVELLO_1
 62
     7
100
AcDbLine
 10
41.464911
 20
36.993177
 30
0.0
 11
-23.222097
 21
36.993177
 31
0.0
  0
LINE
  5
131
100
AcDbEntity
  8
LIVELLO_1
 62
     7
100
AcDbLine
 10
-59.292763
 20
35.509374
 30
0.0
 11
-44.352073
 21
35.509374
 31
0.0
  0
LINE
  5
130
100
AcDbEntity
  8
LIVELLO_1
 62
     7
100
AcDbLine
 10
-22.773373
 20
33.822139
 30
0.0
 11
-22.525843
 21
31.175444
 31
0.0
  0
POLYLINE
  5
12A
100
AcDbEntity
  8
LIVELLO_1
 62
     7
100
AcDb2dPolyline
 66
     1
 10
0.0
 20
0.0
 30
0.0
 70
     1
  0
VERTEX
  5
12B
100
AcDbEntity
  8
LIVELLO_1
 62
     7
100
AcDbVertex
100
AcDb2dVertex
 10
45.065725
 20
35.514025
 30
0.0
  0
VERTEX
  5
12C
100
AcDbEntity
  8
LIVELLO_1
 62
     7
100
AcDbVertex
100
AcDb2dVertex
 10
41.330897
 20
35.514025
 30
0.0
  0
VERTEX
  5
12D
100
AcDbEntity
  8
LIVELLO_1
 62
     7
100
AcDbVertex
100
AcDb2dVertex
 10
41.330897
 20
37.051744
 30
0.0
  0
VERTEX
  5
12E
100
AcDbEntity
  8
LIVELLO_1
 62
     7
100
AcDbVertex
100
AcDb2dVertex
 10
45.065725
 20
37.051744
 30
0.0
  0
SEQEND
  5
12F
100
AcDbEntity
  8
LIVELLO_1
 62
     7
  0
POLYLINE
  5
124
100
AcDbEntity
  8
LIVELLO_1
 62
     7
100
AcDb2dPolyline
 66
     1
 10
0.0
 20
0.0
 30
0.0
 70
     1
  0
VERTEX
  5
125
100
AcDbEntity
  8
LIVELLO_1
 62
     7
100
AcDbVertex
100
AcDb2dVertex
 10
-23.225197
 20
35.514025
 30
0.0
  0
VERTEX
  5
126
100
AcDbEntity
  8
LIVELLO_1
 62
     7
100
AcDbVertex
100
AcDb2dVertex
 10
-26.960714
 20
35.514025
 30
0.0
  0
VERTEX
  5
127
100
AcDbEntity
  8
LIVELLO_1
 62
     7
100
AcDbVertex
100
AcDb2dVertex
 10
-26.960714
 20
37.051744
 30
0.0
  0
VERTEX
  5
128
100
AcDbEntity
  8
LIVELLO_1
 62
     7
100
AcDbVertex
100
AcDb2dVertex
 10
-23.225197
 20
37.051744
 30
0.0
  0
SEQEND
  5
129
100
AcDbEntity
  8
LIVELLO_1
 62
     7
  0
LINE
  5
123
100
AcDbEntity
  8
LIVELLO_1
 62
     7
100
AcDbLine
 10
40.832047
 20
31.275696
 30
0.0
 11
40.47479
 21
31.055038
 31
0.0
  0
LINE
  5
122
100
AcDbEntity
  8
LIVELLO_1
 62
     7
100
AcDbLine
 10
41.092496
 20
33.801985
 30
0.0
 11
40.903016
 21
31.315832
 31
0.0
  0
LINE
  5
121
100
AcDbEntity
  8
LIVELLO_1
 62
     7
100
AcDbLine
 10
-22.527393
 20
31.266395
 30
0.0
 11
-22.103991
 21
31.056588
 31
0.0
  0
LINE
  5
120
100
AcDbEntity
  8
LIVELLO_1
 62
     7
100
AcDbLine
 10
-18.59585
 20
-27.33933
 30
0.0
 11
36.812654
 21
-27.33933
 31
0.0
  0
LINE
  5
11F
100
AcDbEntity
  8
LIVELLO_1
 62
     7
100
AcDbLine
 10
-15.524375
 20
-65.913031
 30
0.0
 11
33.740318
 21
-65.913031
 31
0.0
  0
LINE
  5
11E
100
AcDbEntity
  8
LIVELLO_1
 62
     7
100
AcDbLine
 10
36.812654
 20
-63.605851
 30
0.0
 11
-18.59585
 21
-63.605851
 31
0.0
  0
LINE
  5
11D
100
AcDbEntity
  8
LIVELLO_1
 62
     7
100
AcDbLine
 10
33.325184
 20
-68.180248
 30
0.0
 11
-15.108725
 21
-68.180248
 31
0.0
  0
LINE
  5
11C
100
AcDbEntity
  8
LIVELLO_1
 62
     7
100
AcDbLine
 10
36.812654
 20
-27.33933
 30
0.0
 11
38.300246
 21
30.603214
 31
0.0
  0
LINE
  5
11B
100
AcDbEntity
  8
LIVELLO_1
 62
     7
100
AcDbLine
 10
21.480256
 20
-27.33933
 30
0.0
 11
22.966126
 21
30.479879
 31
0.0
  0
LINE
  5
11A
100
AcDbEntity
  8
LIVELLO_1
 62
     7
100
AcDbLine
 10
-18.571218
 20
-27.33933
 30
0.0
 11
-20.082753
 21
30.603214
 31
0.0
  0
LINE
  5
119
100
AcDbEntity
  8
LIVELLO_1
 62
     7
100
AcDbLine
 10
-13.403575
 20
-27.33933
 30
0.0
 11
-14.841902
 21
30.398058
 31
0.0
  0
LINE
  5
118
100
AcDbEntity
  8
LIVELLO_1
 62
     7
100
AcDbLine
 10
-6.773144
 20
-27.33933
 30
0.0
 11
-7.796509
 21
30.25457
 31
0.0
  0
LINE
  5
117
100
AcDbEntity
  8
LIVELLO_1
 62
     7
100
AcDbLine
 10
-1.653387
 20
-27.33933
 30
0.0
 11
-2.311917
 21
30.109704
 31
0.0
  0
LINE
  5
116
100
AcDbEntity
  8
LIVELLO_1
 62
     7
100
AcDbLine
 10
25.01458
 20
-27.33933
 30
0.0
 11
26.01228
 21
30.25457
 31
0.0
  0
LINE
  5
115
100
AcDbEntity
  8
LIVELLO_1
 62
     7
100
AcDbLine
 10
31.619517
 20
-27.33933
 30
0.0
 11
33.057844
 21
30.398058
 31
0.0
  0
LINE
  5
114
100
AcDbEntity
  8
LIVELLO_1
 62
     7
100
AcDbLine
 10
34.448285
 20
-27.33933
 30
0.0
 11
36.056111
 21
30.439744
 31
0.0
  0
LINE
  5
113
100
AcDbEntity
  8
LIVELLO_1
 62
     7
100
AcDbLine
 10
36.080571
 20
-27.33933
 30
0.0
 11
37.812076
 21
30.439744
 31
0.0
  0
LINE
  5
112
100
AcDbEntity
  8
LIVELLO_1
 62
     7
100
AcDbLine
 10
23.040196
 20
31.036607
 30
0.0
 11
40.419324
 21
31.036607
 31
0.0
  0
LINE
  5
111
100
AcDbEntity
  8
LIVELLO_1
 62
     7
100
AcDbLine
 10
-21.971355
 20
31.036607
 30
0.0
 11
40.337676
 21
31.036607
 31
0.0
  0
SPLINE
  5
110
100
AcDbEntity
  8
LIVELLO_1
 62
     7
100
AcDbSpline
210
0.0
220
0.0
230
1.0
 70
     8
 71
     3
 72
     8
 73
     4
 74
     0
 42
0.00000001
 43
0.00000001
 40
0.0
 40
0.0
 40
0.0
 40
0.0
 40
1.0
 40
1.0
 40
1.0
 40
1.0
 10
17.943693712022569
 20
-27.339330376519094
 30
0.0
 10
17.700642225477431
 20
-8.5473680284288189
 30
0.0
 10
17.457073974609372
 20
10.245972357855901
 30
0.0
 10
17.214022488064234
 20
29.039312744140624
 30
0.0
  0
LINE
  5
10F
100
AcDbEntity
  8
LIVELLO_1
 62
     7
100
AcDbLine
 10
-13.793043
 20
29.039313
 30
0.0
 11
-12.354888
 21
-27.33933
 31
0.0
  0
LINE
  5
10E
100
AcDbEntity
  8
LIVELLO_1
 62
     7
100
AcDbLine
 10
-6.700625
 20
29.039313
 30
0.0
 11
-5.698791
 21
-27.33933
 31
0.0
  0
LINE
  5
10D
100
AcDbEntity
  8
LIVELLO_1
 62
     7
100
AcDbLine
 10
-1.240665
 20
29.039313
 30
0.0
 11
-0.556641
 21
-27.33933
 31
0.0
  0
LINE
  5
10C
100
AcDbEntity
  8
LIVELLO_1
 62
     7
100
AcDbLine
 10
4.732786
 20
29.039313
 30
0.0
 11
5.049735
 21
-27.33933
 31
0.0
  0
LINE
  5
10B
100
AcDbEntity
  8
LIVELLO_1
 62
     7
100
AcDbLine
 10
3.659983
 20
29.039313
 30
0.0
 11
3.95385
 21
-27.33933
 31
0.0
  0
LINE
  5
10A
100
AcDbEntity
  8
LIVELLO_1
 62
     7
100
AcDbLine
 10
14.581281
 20
29.039313
 30
0.0
 11
14.287586
 21
-27.33933
 31
0.0
  0
LINE
  5
109
100
AcDbEntity
  8
LIVELLO_1
 62
     7
100
AcDbLine
 10
13.50865
 20
29.039313
 30
0.0
 11
13.191701
 21
-27.33933
 31
0.0
  0
LINE
  5
108
100
AcDbEntity
  8
LIVELLO_1
 62
     7
100
AcDbLine
 10
24.941888
 20
29.039313
 30
0.0
 11
23.916973
 21
-27.33933
 31
0.0
  0
LINE
  5
107
100
AcDbEntity
  8
LIVELLO_1
 62
     7
100
AcDbLine
 10
32.034307
 20
29.039313
 30
0.0
 11
30.596324
 21
-27.33933
 31
0.0
  0
LINE
  5
106
100
AcDbEntity
  8
LIVELLO_1
 62
     7
100
AcDbLine
 10
35.105265
 20
29.039313
 30
0.0
 11
33.497439
 21
-27.33933
 31
0.0
  0
LINE
  5
105
100
AcDbEntity
  8
LIVELLO_1
 62
     7
100
AcDbLine
 10
-22.471755
 20
33.83902
 30
0.0
 11
40.711469
 21
33.83902
 31
0.0
  0
LINE
  5
104
100
AcDbEntity
  8
LIVELLO_1
 62
     7
100
AcDbLine
 10
33.691742
 20
-27.33933
 30
0.0
 11
34.667048
 21
-61.420282
 31
0.0
  0
LINE
  5
103
100
AcDbEntity
  8
LIVELLO_1
 62
     7
100
AcDbLine
 10
-1.337128
 20
-27.33933
 30
0.0
 11
-1.750539
 21
-61.420282
 31
0.0
  0
LINE
  5
102
100
AcDbEntity
  8
LIVELLO_1
 62
     7
100
AcDbLine
 10
35.275797
 20
-27.33933
 30
0.0
 11
36.324484
 21
-61.545339
 31
0.0
  0
LINE
  5
101
100
AcDbEntity
  8
LIVELLO_1
 62
     7
100
AcDbLine
 10
30.938422
 20
-27.33933
 30
0.0
 11
31.838625
 21
-62.370439
 31
0.0
  0
LINE
  5
100
100
AcDbEntity
  8
LIVELLO_1
 62
     7
100
AcDbLine
 10
24.52641
 20
-27.33933
 30
0.0
 11
25.160997
 21
-62.203697
 31
0.0
  0
LINE
  5
FF
100
AcDbEntity
  8
LIVELLO_1
 62
     7
100
AcDbLine
 10
19.55307
 20
-27.33933
 30
0.0
 11
19.967171
 21
-62.080362
 31
0.0
  0
LINE
  5
FE
100
AcDbEntity
  8
LIVELLO_1
 62
     7
100
AcDbLine
 10
-17.059682
 20
-27.33933
 30
0.0
 11
-18.131624
 21
-62.575422
 31
0.0
  0
LINE
  5
FD
100
AcDbEntity
  8
LIVELLO_1
 62
     7
100
AcDbLine
 10
-15.4758
 20
-27.33933
 30
0.0
 11
-16.475222
 21
-62.452088
 31
0.0
  0
LINE
  5
FC
100
AcDbEntity
  8
LIVELLO_1
 62
     7
100
AcDbLine
 10
-12.745045
 20
-27.33933
 30
0.0
 11
-13.622683
 21
-62.370439
 31
0.0
  0
LINE
  5
FB
100
AcDbEntity
  8
LIVELLO_1
 62
     7
100
AcDbLine
 10
-6.308917
 20
-27.33933
 30
0.0
 11
-6.943504
 21
-62.203697
 31
0.0
  0
LINE
  5
FA
100
AcDbEntity
  8
LIVELLO_1
 62
     7
100
AcDbLine
 10
-0.654654
 20
-61.420282
 30
0.0
 11
-0.239693
 21
-27.33933
 31
0.0
  0
LINE
  5
F9
100
AcDbEntity
  8
LIVELLO_1
 62
     7
100
AcDbLine
 10
4.075634
 20
-27.33933
 30
0.0
 11
3.904413
 21
-61.626988
 31
0.0
  0
LINE
  5
F8
100
AcDbEntity
  8
LIVELLO_1
 62
     7
100
AcDbLine
 10
5.171519
 20
-27.33933
 30
0.0
 11
5.001159
 21
-61.626988
 31
0.0
  0
LINE
  5
F7
100
AcDbEntity
  8
LIVELLO_1
 62
     7
100
AcDbLine
 10
13.044423
 20
-27.33933
 30
0.0
 11
13.216334
 21
-61.626988
 31
0.0
  0
LINE
  5
F6
100
AcDbEntity
  8
LIVELLO_1
 62
     7
100
AcDbLine
 10
14.142548
 20
-27.33933
 30
0.0
 11
14.312908
 21
-61.626988
 31
0.0
  0
LINE
  5
F5
100
AcDbEntity
  8
LIVELLO_1
 62
     7
100
AcDbLine
 10
18.457185
 20
-27.33933
 30
0.0
 11
18.870597
 21
-61.626988
 31
0.0
  0
LINE
  5
F4
100
AcDbEntity
  8
LIVELLO_1
 62
     7
100
AcDbLine
 10
23.428802
 20
-27.33933
 30
0.0
 11
24.03824
 21
-61.626988
 31
0.0
  0
LINE
  5
F3
100
AcDbEntity
  8
LIVELLO_1
 62
     7
100
AcDbLine
 10
29.91385
 20
-27.33933
 30
0.0
 11
30.766511
 21
-61.626988
 31
0.0
  0
LINE
  5
F2
100
AcDbEntity
  8
LIVELLO_1
 62
     7
100
AcDbLine
 10
-5.213032
 20
-27.33933
 30
0.0
 11
-5.822297
 21
-61.626988
 31
0.0
  0
LINE
  5
F1
100
AcDbEntity
  8
LIVELLO_1
 62
     7
100
AcDbLine
 10
-11.696185
 20
-27.33933
 30
0.0
 11
-12.550741
 21
-61.626988
 31
0.0
  0
LINE
  5
F0
100
AcDbEntity
  8
LIVELLO_1
 62
     7
100
AcDbLine
 10
-14.50101
 20
-27.33933
 30
0.0
 11
-15.4758
 21
-61.626988
 31
0.0
  0
LINE
  5
EF
100
AcDbEntity
  8
LIVELLO_1
 62
     7
100
AcDbLine
 10
-16.182905
 20
-27.33933
 30
0.0
 11
-17.230214
 21
-61.626988
 31
0.0
  0
POLYLINE
  5
E9
100
AcDbEntity
  8
LIVELLO_1
 62
     7
100
AcDb2dPolyline
 66
     1
 10
0.0
 20
0.0
 30
0.0
  0
VERTEX
  5
EA
100
AcDbEntity
  8
LIVELLO_1
 62
     7
100
AcDbVertex
100
AcDb2dVertex
 10
-3.127716
 20
-61.428206
 30
0.0
  0
VERTEX
  5
EB
100
AcDbEntity
  8
LIVELLO_1
 62
     7
100
AcDbVertex
100
AcDb2dVertex
 10
-3.096193
 20
-62.339433
 30
0.0
  0
VERTEX
  5
EC
100
AcDbEntity
  8
LIVELLO_1
 62
     7
100
AcDbVertex
100
AcDb2dVertex
 10
-4.358649
 20
-62.390421
 30
0.0
  0
VERTEX
  5
ED
100
AcDbEntity
  8
LIVELLO_1
 62
     7
100
AcDbVertex
100
AcDb2dVertex
 10
-4.358649
 20
-63.587247
 30
0.0
  0
SEQEND
  5
EE
100
AcDbEntity
  8
LIVELLO_1
 62
     7
  0
POLYLINE
  5
E2
100
AcDbEntity
  8
LIVELLO_1
 62
     7
100
AcDb2dPolyline
 66
     1
 10
0.0
 20
0.0
 30
0.0
  0
VERTEX
  5
E3
100
AcDbEntity
  8
LIVELLO_1
 62
     7
100
AcDbVertex
100
AcDb2dVertex
 10
-2.943403
 20
-61.377218
 30
0.0
  0
VERTEX
  5
E4
100
AcDbEntity
  8
LIVELLO_1
 62
     7
100
AcDbVertex
100
AcDb2dVertex
 10
0.656377
 20
-61.377218
 30
0.0
  0
VERTEX
  5
E5
100
AcDbEntity
  8
LIVELLO_1
 62
     7
100
AcDbVertex
100
AcDb2dVertex
 10
-0.144952
 20
-62.28569
 30
0.0
  0
VERTEX
  5
E6
100
AcDbEntity
  8
LIVELLO_1
 62
     7
100
AcDbVertex
100
AcDb2dVertex
 10
1.270121
 20
-62.260885
 30
0.0
  0
VERTEX
  5
E7
100
AcDbEntity
  8
LIVELLO_1
 62
     7
100
AcDbVertex
100
AcDb2dVertex
 10
1.300265
 20
-63.456333
 30
0.0
  0
SEQEND
  5
E8
100
AcDbEntity
  8
LIVELLO_1
 62
     7
  0
LINE
  5
E1
100
AcDbEntity
  8
LIVELLO_1
 62
     7
100
AcDbLine
 10
23.980362
 20
-61.528458
 30
0.0
 11
25.050753
 21
-62.214721
 31
0.0
  0
LINE
  5
E0
100
AcDbEntity
  8
LIVELLO_1
 62
     7
100
AcDbLine
 10
18.870597
 20
-61.626988
 30
0.0
 11
19.853138
 21
-62.021796
 31
0.0
  0
LINE
  5
DF
100
AcDbEntity
  8
LIVELLO_1
 62
     7
100
AcDbLine
 10
13.216334
 20
-61.626988
 30
0.0
 11
14.312908
 21
-61.626988
 31
0.0
  0
LINE
  5
DE
100
AcDbEntity
  8
LIVELLO_1
 62
     7
100
AcDbLine
 10
3.789519
 20
-61.636289
 30
0.0
 11
5.001159
 21
-61.626988
 31
0.0
  0
LINE
  5
DD
100
AcDbEntity
  8
LIVELLO_1
 62
     7
100
AcDbLine
 10
-1.750539
 20
-61.420282
 30
0.0
 11
-0.654654
 21
-61.420282
 31
0.0
  0
LINE
  5
DC
100
AcDbEntity
  8
LIVELLO_1
 62
     7
100
AcDbLine
 10
-6.943504
 20
-62.203697
 30
0.0
 11
-5.822297
 21
-61.626988
 31
0.0
  0
LINE
  5
DB
100
AcDbEntity
  8
LIVELLO_1
 62
     7
100
AcDbLine
 10
-13.640425
 20
-62.418326
 30
0.0
 11
-12.596216
 21
-61.576
 31
0.0
  0
LINE
  5
DA
100
AcDbEntity
  8
LIVELLO_1
 62
     7
100
AcDbLine
 10
-16.475222
 20
-62.452088
 30
0.0
 11
-15.584492
 21
-61.596326
 31
0.0
  0
LINE
  5
D9
100
AcDbEntity
  8
LIVELLO_1
 62
     7
100
AcDbLine
 10
-18.131624
 20
-62.575422
 30
0.0
 11
-17.173026
 21
-61.656271
 31
0.0
  0
POLYLINE
  5
D4
100
AcDbEntity
  8
LIVELLO_1
 62
     7
100
AcDb2dPolyline
 66
     1
 10
0.0
 20
0.0
 30
0.0
  0
VERTEX
  5
D5
100
AcDbEntity
  8
LIVELLO_1
 62
     7
100
AcDbVertex
100
AcDb2dVertex
 10
-18.59585
 20
-63.605851
 30
0.0
  0
VERTEX
  5
D6
100
AcDbEntity
  8
LIVELLO_1
 62
     7
100
AcDbVertex
100
AcDb2dVertex
 10
-18.477856
 20
-62.338055
 30
0.0
  0
VERTEX
  5
D7
100
AcDbEntity
  8
LIVELLO_1
 62
     7
100
AcDbVertex
100
AcDb2dVertex
 10
-18.191741
 20
-62.356659
 30
0.0
  0
SEQEND
  5
D8
100
AcDbEntity
  8
LIVELLO_1
 62
     7
  0
POLYLINE
  5
CE
100
AcDbEntity
  8
LIVELLO_1
 62
     7
100
AcDb2dPolyline
 66
     1
 10
0.0
 20
0.0
 30
0.0
  0
VERTEX
  5
CF
100
AcDbEntity
  8
LIVELLO_1
 62
     7
100
AcDbVertex
100
AcDb2dVertex
 10
-18.690763
 20
-63.681298
 30
0.0
  0
VERTEX
  5
D0
100
AcDbEntity
  8
LIVELLO_1
 62
     7
100
AcDbVertex
100
AcDb2dVertex
 10
-18.501799
 20
-65.265353
 30
0.0
  0
VERTEX
  5
D1
100
AcDbEntity
  8
LIVELLO_1
 62
     7
100
AcDbVertex
100
AcDb2dVertex
 10
-18.120772
 20
-65.526147
 30
0.0
  0
VERTEX
  5
D2
100
AcDbEntity
  8
LIVELLO_1
 62
     7
100
AcDbVertex
100
AcDb2dVertex
 10
-15.608436
 20
-65.88547
 30
0.0
  0
SEQEND
  5
D3
100
AcDbEntity
  8
LIVELLO_1
 62
     7
  0
LINE
  5
CD
100
AcDbEntity
  8
LIVELLO_1
 62
     7
100
AcDbLine
 10
-15.608436
 20
-65.88547
 30
0.0
 11
-15.180383
 21
-68.211254
 31
0.0
  0
POLYLINE
  5
C8
100
AcDbEntity
  8
LIVELLO_1
 62
     7
100
AcDb2dPolyline
 66
     1
 10
0.0
 20
0.0
 30
0.0
  0
VERTEX
  5
C9
100
AcDbEntity
  8
LIVELLO_1
 62
     7
100
AcDbVertex
100
AcDb2dVertex
 10
33.740318
 20
-65.913031
 30
0.0
  0
VERTEX
  5
CA
100
AcDbEntity
  8
LIVELLO_1
 62
     7
100
AcDbVertex
100
AcDb2dVertex
 10
36.291411
 20
-65.708048
 30
0.0
  0
VERTEX
  5
CB
100
AcDbEntity
  8
LIVELLO_1
 62
     7
100
AcDbVertex
100
AcDb2dVertex
 10
36.605259
 20
-65.325642
 30
0.0
  0
SEQEND
  5
CC
100
AcDbEntity
  8
LIVELLO_1
 62
     7
  0
LINE
  5
C7
100
AcDbEntity
  8
LIVELLO_1
 62
     7
100
AcDbLine
 10
36.885001
 20
-63.641335
 30
0.0
 11
36.710679
 21
-65.265353
 31
0.0
  0
POLYLINE
  5
C1
100
AcDbEntity
  8
LIVELLO_1
 62
     7
100
AcDb2dPolyline
 66
     1
 10
0.0
 20
0.0
 30
0.0
  0
VERTEX
  5
C2
100
AcDbEntity
  8
LIVELLO_1
 62
     7
100
AcDbVertex
100
AcDb2dVertex
 10
33.252148
 20
-63.553485
 30
0.0
  0
VERTEX
  5
C3
100
AcDbEntity
  8
LIVELLO_1
 62
     7
100
AcDbVertex
100
AcDb2dVertex
 10
33.252148
 20
-62.342534
 30
0.0
  0
VERTEX
  5
C4
100
AcDbEntity
  8
LIVELLO_1
 62
     7
100
AcDbVertex
100
AcDb2dVertex
 10
35.662681
 20
-62.371817
 30
0.0
  0
VERTEX
  5
C5
100
AcDbEntity
  8
LIVELLO_1
 62
     7
100
AcDbVertex
100
AcDb2dVertex
 10
35.662681
 20
-63.522479
 30
0.0
  0
SEQEND
  5
C6
100
AcDbEntity
  8
LIVELLO_1
 62
     7
  0
POLYLINE
  5
BB
100
AcDbEntity
  8
LIVELLO_1
 62
     7
100
AcDb2dPolyline
 66
     1
 10
0.0
 20
0.0
 30
0.0
  0
VERTEX
  5
BC
100
AcDbEntity
  8
LIVELLO_1
 62
     7
100
AcDbVertex
100
AcDb2dVertex
 10
36.885001
 20
-63.641335
 30
0.0
  0
VERTEX
  5
BD
100
AcDbEntity
  8
LIVELLO_1
 62
     7
100
AcDbVertex
100
AcDb2dVertex
 10
36.885001
 20
-61.545339
 30
0.0
  0
VERTEX
  5
BE
100
AcDbEntity
  8
LIVELLO_1
 62
     7
100
AcDbVertex
100
AcDb2dVertex
 10
33.393052
 20
-61.516056
 30
0.0
  0
VERTEX
  5
BF
100
AcDbEntity
  8
LIVELLO_1
 62
     7
100
AcDbVertex
100
AcDb2dVertex
 10
34.021782
 20
-62.283967
 30
0.0
  0
SEQEND
  5
C0
100
AcDbEntity
  8
LIVELLO_1
 62
     7
  0
LINE
  5
BA
100
AcDbEntity
  8
LIVELLO_1
 62
     7
100
AcDbLine
 10
30.766511
 20
-61.626988
 30
0.0
 11
31.717358
 21
-62.342534
 31
0.0
  0
LINE
  5
B9
100
AcDbEntity
  8
LIVELLO_1
 62
     7
100
AcDbLine
 10
33.740318
 20
-65.913031
 30
0.0
 11
33.325184
 21
-68.180248
 31
0.0
  0
LINE
  5
B8
100
AcDbEntity
  8
LIVELLO_1
 62
     7
100
AcDbLine
 10
28.547181
 20
-69.475949
 30
0.0
 11
28.902715
 21
-68.150965
 31
0.0
  0
LINE
  5
B7
100
AcDbEntity
  8
LIVELLO_1
 62
     7
100
AcDbLine
 10
25.559594
 20
-69.576201
 30
0.0
 11
25.322227
 21
-68.231236
 31
0.0
  0
LINE
  5
B6
100
AcDbEntity
  8
LIVELLO_1
 62
     7
100
AcDbLine
 10
22.926852
 20
-69.133506
 30
0.0
 11
22.784225
 21
-68.130983
 31
0.0
  0
LINE
  5
B5
100
AcDbEntity
  8
LIVELLO_1
 62
     7
100
AcDbLine
 10
23.355077
 20
-69.514534
 30
0.0
 11
22.997821
 21
-69.235481
 31
0.0
  0
POLYLINE
  5
B0
100
AcDbEntity
  8
LIVELLO_1
 62
     7
100
AcDb2dPolyline
 66
     1
 10
0.0
 20
0.0
 30
0.0
  0
VERTEX
  5
B1
100
AcDbEntity
  8
LIVELLO_1
 62
     7
100
AcDbVertex
100
AcDb2dVertex
 10
31.08346
 20
-69.49593
 30
0.0
  0
VERTEX
  5
B2
100
AcDbEntity
  8
LIVELLO_1
 62
     7
100
AcDbVertex
100
AcDb2dVertex
 10
31.417634
 20
-69.215155
 30
0.0
  0
VERTEX
  5
B3
100
AcDbEntity
  8
LIVELLO_1
 62
     7
100
AcDbVertex
100
AcDb2dVertex
 10
31.535457
 20
-68.150965
 30
0.0
  0
SEQEND
  5
B4
100
AcDbEntity
  8
LIVELLO_1
 62
     7
  0
SPLINE
  5
AF
100
AcDbEntity
  8
LIVELLO_1
 62
     7
100
AcDbSpline
210
0.0
220
0.0
230
1.0
 70
     8
 71
     3
 72
    50
 73
    46
 74
     0
 42
0.00000001
 43
0.00000001
 40
0.0
 40
0.0
 40
0.0
 40
0.0
 40
1.0
 40
1.0
 40
1.0
 40
2.0
 40
2.0
 40
2.0
 40
3.0
 40
3.0
 40
3.0
 40
4.0
 40
4.0
 40
4.0
 40
5.0
 40
5.0
 40
5.0
 40
6.0
 40
6.0
 40
6.0
 40
7.0
 40
7.0
 40
7.0
 40
8.0
 40
8.0
 40
8.0
 40
9.0
 40
9.0
 40
9.0
 40
10.0
 40
10.0
 40
10.0
 40
11.0
 40
11.0
 40
11.0
 40
12.0
 40
12.0
 40
12.0
 40
13.0
 40
13.0
 40
13.0
 40
14.0
 40
14.0
 40
14.0
 40
15.0
 40
15.0
 40
15.0
 40
15.0
 10
29.380204942491318
 20
-72.096288384331586
 30
0.0
 10
29.487347412109372
 20
-72.071828206380204
 30
0.0
 10
29.594489881727426
 20
-72.048746066623252
 30
0.0
 10
29.673727077907984
 20
-71.999136691623264
 30
0.0
 10
29.782592095269095
 20
-71.999136691623264
 30
0.0
 10
29.888356526692707
 20
-71.951594373914929
 30
0.0
 10
29.969316270616318
 20
-71.901984998914926
 30
0.0
 10
30.074736192491315
 20
-71.854098171657981
 30
0.0
 10
30.155006917317706
 20
-71.806555853949646
 30
0.0
 10
30.235966661241317
 20
-71.756946478949644
 30
0.0
 10
30.341731092664929
 20
-71.710782199435755
 30
0.0
 10
30.422001817491317
 20
-71.635334608289924
 30
0.0
 10
30.477467854817707
 20
-71.564365641276041
 30
0.0
 10
30.554637993706596
 20
-71.491674126519086
 30
0.0
 10
30.635597737630206
 20
-71.417949083116312
 30
0.0
 10
30.688652208116316
 20
-71.322175428602421
 30
0.0
 10
30.742740207248261
 20
-71.274288601345475
 30
0.0
 10
30.795105658637151
 20
-71.175758870442706
 30
0.0
 10
30.849882676866315
 20
-71.078607177734369
 30
0.0
 10
30.875376383463539
 20
-70.981455485026032
 30
0.0
 10
30.929464382595484
 20
-70.910486518012149
 30
0.0
 10
30.957714165581596
 20
-70.813334825303812
 30
0.0
 10
30.957714165581596
 20
-70.765447998046866
 30
0.0
 10
30.982518853081594
 20
-70.714460584852418
 30
0.0
 10
30.982518853081594
 20
-70.668296305338529
 30
0.0
 10
30.982518853081594
 20
-70.618686930338541
 30
0.0
 10
30.982518853081594
 20
-70.572522650824652
 30
0.0
 10
31.00939059787326
 20
-70.523257785373261
 30
0.0
 10
31.00939059787326
 20
-70.523257785373261
 30
0.0
 10
31.00939059787326
 20
-70.376841227213532
 30
0.0
 10
31.00939059787326
 20
-70.376841227213532
 30
0.0
 10
31.00939059787326
 20
-70.376841227213532
 30
0.0
 10
31.00939059787326
 20
-70.256262885199646
 30
0.0
 10
31.00939059787326
 20
-70.256262885199646
 30
0.0
 10
31.00939059787326
 20
-70.256262885199646
 30
0.0
 10
31.00939059787326
 20
-70.111568874782975
 30
0.0
 10
31.00939059787326
 20
-70.111568874782975
 30
0.0
 10
31.00939059787326
 20
-70.111568874782975
 30
0.0
 10
31.00939059787326
 20
-69.963429768880204
 30
0.0
 10
31.00939059787326
 20
-69.963429768880204
 30
0.0
 10
31.00939059787326
 20
-69.963429768880204
 30
0.0
 10
31.00939059787326
 20
-69.821491834852424
 30
0.0
 10
31.00939059787326
 20
-69.821491834852424
 30
0.0
 10
31.00939059787326
 20
-69.821491834852424
 30
0.0
 10
31.00939059787326
 20
-69.676453314887141
 30
0.0
 10
31.00939059787326
 20
-69.676453314887141
 30
0.0
  0
POLYLINE
  5
A9
100
AcDbEntity
  8
LIVELLO_1
 62
     7
100
AcDb2dPolyline
 66
     1
 10
0.0
 20
0.0
 30
0.0
  0
VERTEX
  5
AA
100
AcDbEntity
  8
LIVELLO_1
 62
     7
100
AcDbVertex
100
AcDb2dVertex
 10
-23.218996
 20
-80.830639
 30
0.0
  0
VERTEX
  5
AB
100
AcDbEntity
  8
LIVELLO_1
 62
     7
100
AcDbVertex
100
AcDb2dVertex
 10
41.715025
 20
-80.830639
 30
0.0
  0
VERTEX
  5
AC
100
AcDbEntity
  8
LIVELLO_1
 62
     7
100
AcDbVertex
100
AcDb2dVertex
 10
41.715025
 20
-107.212491
 30
0.0
  0
VERTEX
  5
AD
100
AcDbEntity
  8
LIVELLO_1
 62
     7
100
AcDbVertex
100
AcDb2dVertex
 10
-23.218996
 20
-107.212491
 30
0.0
  0
SEQEND
  5
AE
100
AcDbEntity
  8
LIVELLO_1
 62
     7
  0
INSERT
  5
32
100
AcDbEntity
  8
LIVELLO_1
 62
     7
100
AcDbBlockReference
  2
AI9-BLK2
 10
10.328655
 20
-96.503756
 30
0.0
  0
LINE
  5
30
100
AcDbEntity
  8
LIVELLO_1
 62
     7
100
AcDbLine
 10
-3.786418
 20
-116.990706
 30
0.0
 11
-24.591694
 21
-116.990706
 31
0.0
  0
LINE
  5
2F
100
AcDbEntity
  8
LIVELLO_1
 62
     7
100
AcDbLine
 10
42.709624
 20
-116.990706
 30
0.0
 11
21.784803
 21
-116.990706
 31
0.0
  0
LINE
  5
2E
100
AcDbEntity
  8
LIVELLO_1
 62
     7
100
AcDbLine
 10
-24.754475
 20
-120.442347
 30
0.0
 11
-24.754475
 21
-113.747148
 31
0.0
  0
LINE
  5
2D
100
AcDbEntity
  8
LIVELLO_1
 62
     7
100
AcDbLine
 10
42.970418
 20
-120.422365
 30
0.0
 11
42.970418
 21
-113.747148
 31
0.0
  0
MTEXT
  5
2C
100
AcDbEntity
  8
LIVELLO_1
 62
     7
100
AcDbMText
 10
-0.724073
 20
-114.733539
 30
0.0
 40
4.455482
 41
0.0
 71
     1
 72
     2
  1
\fMyriad Roman|b0|i0;\H4.4555;\W1.18;\C7;\U+00F8\U+0020\U+0032\U+0032\U+0035
  7
STD
210
0.0
220
0.0
230
1.0
 73
     1
 44
1.0
  0
ENDBLK
  5
173
100
AcDbEntity
  8
LIVELLO_1
100
AcDbBlockEnd
  0
BLOCK
  5
33
100
AcDbEntity
  8
LIVELLO_1
 62
     7
100
AcDbBlockBegin
  2
AI9-BLK2
 70
     0
 10
0.0
 20
0.0
 30
0.0
  3
AI9-BLK2
  1

  0
POLYLINE
  5
A1
100
AcDbEntity
  8
LIVELLO_1
 62
     7
100
AcDb2dPolyline
 66
     1
 10
0.0
 20
0.0
 30
0.0
 70
     1
  0
VERTEX
  5
A2
100
AcDbEntity
  8
LIVELLO_1
 62
     7
100
AcDbVertex
100
AcDb2dVertex
 10
27.900623
 20
-0.416512
 30
0.0
  0
VERTEX
  5
A3
100
AcDbEntity
  8
LIVELLO_1
 62
     7
100
AcDbVertex
100
AcDb2dVertex
 10
26.770976
 20
-1.21543
 30
0.0
  0
VERTEX
  5
A4
100
AcDbEntity
  8
LIVELLO_1
 62
     7
100
AcDbVertex
100
AcDb2dVertex
 10
26.4871
 20
-2.811887
 30
0.0
  0
VERTEX
  5
A5
100
AcDbEntity
  8
LIVELLO_1
 62
     7
100
AcDbVertex
100
AcDb2dVertex
 10
27.900623
 20
-3.610805
 30
0.0
  0
VERTEX
  5
A6
100
AcDbEntity
  8
LIVELLO_1
 62
     7
100
AcDbVertex
100
AcDb2dVertex
 10
28.462862
 20
-1.615061
 30
0.0
  0
SEQEND
  5
A7
100
AcDbEntity
  8
LIVELLO_1
 62
     7
  0
SPLINE
  5
A0
100
AcDbEntity
  8
LIVELLO_1
 62
     7
100
AcDbSpline
210
0.0
220
0.0
230
1.0
 70
     8
 71
     3
 72
    17
 73
    13
 74
     0
 42
0.00000001
 43
0.00000001
 40
0.0
 40
0.0
 40
0.0
 40
0.0
 40
1.0
 40
1.0
 40
1.0
 40
2.0
 40
2.0
 40
2.0
 40
3.0
 40
3.0
 40
3.0
 40
4.0
 40
4.0
 40
4.0
 40
4.0
 10
24.066920301649304
 20
-12.810932074652776
 30
0.0
 10
24.889953613281246
 20
-13.15923122829861
 30
0.0
 10
25.572427029079858
 20
-15.713425021701388
 30
0.0
 10
26.437490505642359
 20
-15.713425021701388
 30
0.0
 10
27.587463378906246
 20
-15.713425021701388
 30
0.0
 10
28.576205783420136
 20
-14.494894748263887
 30
0.0
 10
28.576205783420136
 20
-12.86467556423611
 30
0.0
 10
28.576205783420136
 20
-12.342054578993054
 30
0.0
 10
28.53073052300347
 20
-12.055078125
 30
0.0
 10
28.576205783420136
 20
-11.530734592013888
 30
0.0
 10
26.639717610677081
 20
-11.530734592013888
 30
0.0
 10
24.234351942274305
 20
-10.082416449652778
 30
0.0
 10
24.066920301649304
 20
-12.810932074652776
 30
0.0
  0
SPLINE
  5
9F
100
AcDbEntity
  8
LIVELLO_1
 62
     7
100
AcDbSpline
210
0.0
220
0.0
230
1.0
 70
     8
 71
     3
 72
    17
 73
    13
 74
     0
 42
0.00000001
 43
0.00000001
 40
0.0
 40
0.0
 40
0.0
 40
0.0
 40
1.0
 40
1.0
 40
1.0
 40
2.0
 40
2.0
 40
2.0
 40
3.0
 40
3.0
 40
3.0
 40
4.0
 40
4.0
 40
4.0
 40
4.0
 10
30.426911078559026
 20
15.56218532986111
 30
0.0
 10
29.318623860677082
 20
15.096408420138888
 30
0.0
 10
28.168995496961802
 20
14.224799262152777
 30
0.0
 10
28.168995496961802
 20
12.53911404079861
 30
0.0
 10
28.168995496961802
 20
11.840448676215276
 30
0.0
 10
28.660266113281246
 20
11.260294596354166
 30
0.0
 10
29.154637315538192
 20
11.260294596354166
 30
0.0
 10
30.715954589843747
 20
11.260294596354166
 30
0.0
 10
32.361676703559027
 20
12.421980794270832
 30
0.0
 10
32.361676703559027
 20
14.63200954861111
 30
0.0
 10
32.361676703559027
 20
16.2005615234375
 30
0.0
 10
30.426911078559026
 20
15.56218532986111
 30
0.0
 10
30.426911078559026
 20
15.56218532986111
 30
0.0
  0
SPLINE
  5
9E
100
AcDbEntity
  8
LIVELLO_1
 62
     7
100
AcDbSpline
210
0.0
220
0.0
230
1.0
 70
     8
 71
     3
 72
    26
 73
    22
 74
     0
 42
0.00000001
 43
0.00000001
 40
0.0
 40
0.0
 40
0.0
 40
0.0
 40
1.0
 40
1.0
 40
1.0
 40
2.0
 40
2.0
 40
2.0
 40
3.0
 40
3.0
 40
3.0
 40
4.0
 40
4.0
 40
4.0
 40
5.0
 40
5.0
 40
5.0
 40
6.0
 40
6.0
 40
6.0
 40
7.0
 40
7.0
 40
7.0
 40
7.0
 10
30.307366265190968
 20
8.2606499565972218
 30
0.0
 10
30.307366265190968
 20
8.2606499565972218
 30
0.0
 10
28.892121039496526
 20
7.8610188802083325
 30
0.0
 10
28.892121039496526
 20
7.8610188802083325
 30
0.0
 10
28.892121039496526
 20
7.8610188802083325
 30
0.0
 10
28.607900661892359
 20
6.2662841796874993
 30
0.0
 10
28.607900661892359
 20
6.2662841796874993
 30
0.0
 10
29.315523274739579
 20
6.1629313151041663
 30
0.0
 10
29.738236490885413
 20
5.8652750651041661
 30
0.0
 10
30.444481065538191
 20
5.8652750651041661
 30
0.0
 10
31.219627549913191
 20
5.8652750651041661
 30
0.0
 10
31.433223470052081
 20
6.9618489583333325
 30
0.0
 10
31.999941677517359
 20
7.4631103515624995
 30
0.0
 10
31.999941677517359
 20
7.4631103515624995
 30
0.0
 10
31.999941677517359
 20
9.1611979166666657
 30
0.0
 10
31.999941677517359
 20
9.1611979166666657
 30
0.0
 10
31.999941677517359
 20
9.1611979166666657
 30
0.0
 10
30.869605848524301
 20
9.9601155598958329
 30
0.0
 10
30.869605848524301
 20
9.9601155598958329
 30
0.0
 10
30.869605848524301
 20
9.9601155598958329
 30
0.0
 10
30.307366265190968
 20
8.2606499565972218
 30
0.0
 10
30.307366265190968
 20
8.2606499565972218
 30
0.0
  0
SPLINE
  5
9D
100
AcDbEntity
  8
LIVELLO_1
 62
     7
100
AcDbSpline
210
0.0
220
0.0
230
1.0
 70
     8
 71
     3
 72
    23
 73
    19
 74
     0
 42
0.00000001
 43
0.00000001
 40
0.0
 40
0.0
 40
0.0
 40
0.0
 40
1.0
 40
1.0
 40
1.0
 40
2.0
 40
2.0
 40
2.0
 40
3.0
 40
3.0
 40
3.0
 40
4.0
 40
4.0
 40
4.0
 40
5.0
 40
5.0
 40
5.0
 40
6.0
 40
6.0
 40
6.0
 40
6.0
 10
25.430489095052081
 20
-7.2598497178819441
 30
0.0
 10
25.430489095052081
 20
-7.2598497178819441
 30
0.0
 10
24.580584038628469
 20
-8.8563069661458318
 30
0.0
 10
24.580584038628469
 20
-8.8563069661458318
 30
0.0
 10
25.501458062065971
 20
-9.3575683593749996
 30
0.0
 10
25.99720730251736
 20
-10.053133138020833
 30
0.0
 10
26.985949707031249
 20
-10.053133138020833
 30
0.0
 10
27.974692111545135
 20
-10.053133138020833
 30
0.0
 10
27.704596625434025
 20
-9.6535020616319436
 30
0.0
 10
28.693339029947914
 20
-9.6535020616319436
 30
0.0
 10
28.762585449218747
 20
-8.7543321397569436
 30
0.0
 10
29.736858452690971
 20
-8.6589029947916654
 30
0.0
 10
29.736858452690971
 20
-7.75801052517361
 30
0.0
 10
29.736858452690971
 20
-5.4615098741319441
 30
0.0
 10
27.617435709635416
 20
-4.9633490668402773
 30
0.0
 10
25.99720730251736
 20
-5.1624755859374991
 30
0.0
 10
25.99720730251736
 20
-5.1624755859374991
 30
0.0
 10
25.430489095052081
 20
-7.2598497178819441
 30
0.0
 10
25.430489095052081
 20
-7.2598497178819441
 30
0.0
  0
SPLINE
  5
9C
100
AcDbEntity
  8
LIVELLO_1
 62
     7
100
AcDbSpline
210
0.0
220
0.0
230
1.0
 70
     8
 71
     3
 72
    17
 73
    13
 74
     0
 42
0.00000001
 43
0.00000001
 40
0.0
 40
0.0
 40
0.0
 40
0.0
 40
1.0
 40
1.0
 40
1.0
 40
2.0
 40
2.0
 40
2.0
 40
3.0
 40
3.0
 40
3.0
 40
4.0
 40
4.0
 40
4.0
 40
4.0
 10
32.374768066406247
 20
-9.8925916883680554
 30
0.0
 10
30.937474229600692
 20
-9.9497802734374989
 30
0.0
 10
29.130521647135414
 20
-10.472745768229165
 30
0.0
 10
29.130521647135414
 20
-12.505352105034721
 30
0.0
 10
29.130521647135414
 20
-14.774291992187498
 30
0.0
 10
31.223417154947914
 20
-14.946891276041665
 30
0.0
 10
32.826075575086804
 20
-14.946891276041665
 30
0.0
 10
33.772098795572916
 20
-14.946891276041665
 30
0.0
 10
34.099382866753466
 20
-13.380061848958333
 30
0.0
 10
34.099382866753466
 20
-12.041297743055555
 30
0.0
 10
34.099382866753466
 20
-10.99536675347222
 30
0.0
 10
33.112018500434026
 20
-9.8357476128472214
 30
0.0
 10
32.374768066406247
 20
-9.8925916883680554
 30
0.0
  0
SPLINE
  5
9B
100
AcDbEntity
  8
LIVELLO_1
 62
     7
100
AcDbSpline
210
0.0
220
0.0
230
1.0
 70
     8
 71
     3
 72
    20
 73
    16
 74
     0
 42
0.00000001
 43
0.00000001
 40
0.0
 40
0.0
 40
0.0
 40
0.0
 40
1.0
 40
1.0
 40
1.0
 40
2.0
 40
2.0
 40
2.0
 40
3.0
 40
3.0
 40
3.0
 40
4.0
 40
4.0
 40
4.0
 40
5.0
 40
5.0
 40
5.0
 40
5.0
 10
30.125465223524301
 20
-2.4770236545138888
 30
0.0
 10
30.265680609809024
 20
-5.3719373914930548
 30
0.0
 10
30.319768608940969
 20
-8.2995795355902775
 30
0.0
 10
32.369600423177083
 20
-8.2995795355902775
 30
0.0
 10
33.783123101128467
 20
-8.2995795355902775
 30
0.0
 10
34.41702067057291
 20
-6.7048448350694434
 30
0.0
 10
35.193545193142356
 20
-5.1066650390624995
 30
0.0
 10
35.193545193142356
 20
-5.1066650390624995
 30
0.0
 10
33.634983995225689
 20
-2.4770236545138888
 30
0.0
 10
33.634983995225689
 20
-2.4770236545138888
 30
0.0
 10
32.150492350260414
 20
-2.1762668185763885
 30
0.0
 10
33.453082953559026
 20
-1.0459309895833333
 30
0.0
 10
32.037837727864577
 20
-0.4475179036458333
 30
0.0
 10
32.037837727864577
 20
-0.4475179036458333
 30
0.0
 10
30.125465223524301
 20
-2.4770236545138888
 30
0.0
 10
30.125465223524301
 20
-2.4770236545138888
 30
0.0
  0
SPLINE
  5
9A
100
AcDbEntity
  8
LIVELLO_1
 62
     7
100
AcDbSpline
210
0.0
220
0.0
230
1.0
 70
     8
 71
     3
 72
    14
 73
    10
 74
     0
 42
0.00000001
 43
0.00000001
 40
0.0
 40
0.0
 40
0.0
 40
0.0
 40
1.0
 40
1.0
 40
1.0
 40
2.0
 40
2.0
 40
2.0
 40
3.0
 40
3.0
 40
3.0
 40
3.0
 10
31.523484971788193
 20
2.1514621310763888
 30
0.0
 10
32.016133626302079
 20
1.9523356119791664
 30
0.0
 10
32.369600423177083
 20
1.3525444878472221
 30
0.0
 10
32.933907063802081
 20
1.3525444878472221
 30
0.0
 10
34.41702067057291
 20
1.3525444878472221
 30
0.0
 10
36.316301812065966
 20
3.6135606553819439
 30
0.0
 10
36.47891031901041
 20
6.3186496310763882
 30
0.0
 10
33.157493760850691
 20
8.1231906467013886
 30
0.0
 10
32.439535861545139
 20
4.3508110894097216
 30
0.0
 10
31.523484971788193
 20
2.1514621310763888
 30
0.0
  0
SPLINE
  5
99
100
AcDbEntity
  8
LIVELLO_1
 62
     7
100
AcDbSpline
210
0.0
220
0.0
230
1.0
 70
     8
 71
     3
 72
    17
 73
    13
 74
     0
 42
0.00000001
 43
0.00000001
 40
0.0
 40
0.0
 40
0.0
 40
0.0
 40
1.0
 40
1.0
 40
1.0
 40
2.0
 40
2.0
 40
2.0
 40
3.0
 40
3.0
 40
3.0
 40
4.0
 40
4.0
 40
4.0
 40
4.0
 10
19.315100097656249
 20
-9.8233452690972207
 30
0.0
 10
20.139511447482636
 20
-10.173366970486111
 30
0.0
 10
20.670056152343747
 20
-10.522010633680555
 30
0.0
 10
21.535464138454859
 20
-10.522010633680555
 30
0.0
 10
22.681991916232636
 20
-10.522010633680555
 30
0.0
 10
23.670734320746526
 20
-9.3003797743055543
 30
0.0
 10
23.670734320746526
 20
-7.6749837239583325
 30
0.0
 10
23.670734320746526
 20
-7.1520182291666661
 30
0.0
 10
23.631460232204859
 20
-6.8605631510416663
 30
0.0
 10
23.670734320746526
 20
-6.3375976562499998
 30
0.0
 10
21.739069281684024
 20
-6.3375976562499998
 30
0.0
 10
19.47943115234375
 20
-7.0934516059027768
 30
0.0
 10
19.315100097656249
 20
-9.8233452690972207
 30
0.0
  0
SPLINE
  5
98
100
AcDbEntity
  8
LIVELLO_1
 62
     7
100
AcDbSpline
210
0.0
220
0.0
230
1.0
 70
     8
 71
     3
 72
    20
 73
    16
 74
     0
 42
0.00000001
 43
0.00000001
 40
0.0
 40
0.0
 40
0.0
 40
0.0
 40
1.0
 40
1.0
 40
1.0
 40
2.0
 40
2.0
 40
2.0
 40
3.0
 40
3.0
 40
3.0
 40
4.0
 40
4.0
 40
4.0
 40
5.0
 40
5.0
 40
5.0
 40
5.0
 10
24.289817979600691
 20
8.6509792751736097
 30
0.0
 10
24.289817979600691
 20
8.6509792751736097
 30
0.0
 10
20.623891872829859
 20
8.2975124782986107
 30
0.0
 10
20.623891872829859
 20
8.2975124782986107
 30
0.0
 10
20.698650444878471
 20
7.1055094401041661
 30
0.0
 10
20.737924533420138
 20
6.5084743923611104
 30
0.0
 10
20.81027153862847
 20
5.3116482204861111
 30
0.0
 10
21.112061903211803
 20
0.4378716362847222
 30
0.0
 10
25.56312527126736
 20
0.6876410590277777
 30
0.0
 10
29.03578152126736
 20
0.7186469184027777
 30
0.0
 10
28.824252658420136
 20
4.0979410807291661
 30
0.0
 10
27.522695583767359
 20
6.8447157118055548
 30
0.0
 10
25.207591417100691
 20
7.5619845920138884
 30
0.0
 10
25.207591417100691
 20
7.5619845920138884
 30
0.0
 10
24.289817979600691
 20
8.6509792751736097
 30
0.0
 10
24.289817979600691
 20
8.6509792751736097
 30
0.0
  0
SPLINE
  5
97
100
AcDbEntity
  8
LIVELLO_1
 62
     7
100
AcDbSpline
210
0.0
220
0.0
230
1.0
 70
     8
 71
     3
 72
    17
 73
    13
 74
     0
 42
0.00000001
 43
0.00000001
 40
0.0
 40
0.0
 40
0.0
 40
0.0
 40
1.0
 40
1.0
 40
1.0
 40
2.0
 40
2.0
 40
2.0
 40
3.0
 40
3.0
 40
3.0
 40
4.0
 40
4.0
 40
4.0
 40
4.0
 10
23.013754611545135
 20
15.688620334201387
 30
0.0
 10
21.61642388237847
 20
15.688620334201387
 30
0.0
 10
20.259056260850691
 20
14.354334852430554
 30
0.0
 10
20.259056260850691
 20
12.377194552951387
 30
0.0
 10
20.259056260850691
 20
10.459998914930555
 30
0.0
 10
21.985738118489582
 20
9.9356553819444429
 30
0.0
 10
23.342072211371526
 20
9.9356553819444429
 30
0.0
 10
25.230673556857635
 20
9.9356553819444429
 30
0.0
 10
27.699428982204857
 20
10.518565538194444
 30
0.0
 10
27.699428982204857
 20
13.189892578124999
 30
0.0
 10
27.699428982204857
 20
15.747186957465276
 30
0.0
 10
24.823463270399305
 20
15.51567654079861
 30
0.0
 10
23.013754611545135
 20
15.688620334201387
 30
0.0
  0
POLYLINE
  5
90
100
AcDbEntity
  8
LIVELLO_1
 62
     7
100
AcDb2dPolyline
 66
     1
 10
0.0
 20
0.0
 30
0.0
 70
     1
  0
VERTEX
  5
91
100
AcDbEntity
  8
LIVELLO_1
 62
     7
100
AcDbVertex
100
AcDb2dVertex
 10
-14.088718
 20
14.746042
 30
0.0
  0
VERTEX
  5
92
100
AcDbEntity
  8
LIVELLO_1
 62
     7
100
AcDbVertex
100
AcDb2dVertex
 10
-15.217848
 20
13.947125
 30
0.0
  0
VERTEX
  5
93
100
AcDbEntity
  8
LIVELLO_1
 62
     7
100
AcDbVertex
100
AcDb2dVertex
 10
-15.500001
 20
12.347911
 30
0.0
  0
VERTEX
  5
94
100
AcDbEntity
  8
LIVELLO_1
 62
     7
100
AcDbVertex
100
AcDb2dVertex
 10
-14.088718
 20
11.548994
 30
0.0
  0
VERTEX
  5
95
100
AcDbEntity
  8
LIVELLO_1
 62
     7
100
AcDbVertex
100
AcDb2dVertex
 10
-13.524239
 20
13.547838
 30
0.0
  0
SEQEND
  5
96
100
AcDbEntity
  8
LIVELLO_1
 62
     7
  0
POLYLINE
  5
89
100
AcDbEntity
  8
LIVELLO_1
 62
     7
100
AcDb2dPolyline
 66
     1
 10
0.0
 20
0.0
 30
0.0
 70
     1
  0
VERTEX
  5
8A
100
AcDbEntity
  8
LIVELLO_1
 62
     7
100
AcDbVertex
100
AcDb2dVertex
 10
-27.100671
 20
0.538124
 30
0.0
  0
VERTEX
  5
8B
100
AcDbEntity
  8
LIVELLO_1
 62
     7
100
AcDbVertex
100
AcDb2dVertex
 10
-26.02184
 20
-0.397909
 30
0.0
  0
VERTEX
  5
8C
100
AcDbEntity
  8
LIVELLO_1
 62
     7
100
AcDbVertex
100
AcDb2dVertex
 10
-25.840628
 20
-2.02675
 30
0.0
  0
VERTEX
  5
8D
100
AcDbEntity
  8
LIVELLO_1
 62
     7
100
AcDbVertex
100
AcDb2dVertex
 10
-27.296525
 20
-2.646867
 30
0.0
  0
VERTEX
  5
8E
100
AcDbEntity
  8
LIVELLO_1
 62
     7
100
AcDbVertex
100
AcDb2dVertex
 10
-27.73388
 20
-0.586355
 30
0.0
  0
SEQEND
  5
8F
100
AcDbEntity
  8
LIVELLO_1
 62
     7
  0
POLYLINE
  5
82
100
AcDbEntity
  8
LIVELLO_1
 62
     7
100
AcDb2dPolyline
 66
     1
 10
0.0
 20
0.0
 30
0.0
 70
     1
  0
VERTEX
  5
83
100
AcDbEntity
  8
LIVELLO_1
 62
     7
100
AcDbVertex
100
AcDb2dVertex
 10
-2.524394
 20
-9.763056
 30
0.0
  0
VERTEX
  5
84
100
AcDbEntity
  8
LIVELLO_1
 62
     7
100
AcDbVertex
100
AcDb2dVertex
 10
-3.657141
 20
-10.561974
 30
0.0
  0
VERTEX
  5
85
100
AcDbEntity
  8
LIVELLO_1
 62
     7
100
AcDbVertex
100
AcDb2dVertex
 10
-3.937916
 20
-12.161532
 30
0.0
  0
VERTEX
  5
86
100
AcDbEntity
  8
LIVELLO_1
 62
     7
100
AcDbVertex
100
AcDb2dVertex
 10
-2.524394
 20
-12.960449
 30
0.0
  0
VERTEX
  5
87
100
AcDbEntity
  8
LIVELLO_1
 62
     7
100
AcDbVertex
100
AcDb2dVertex
 10
-1.962154
 20
-10.961605
 30
0.0
  0
SEQEND
  5
88
100
AcDbEntity
  8
LIVELLO_1
 62
     7
  0
SPLINE
  5
81
100
AcDbEntity
  8
LIVELLO_1
 62
     7
100
AcDbSpline
210
0.0
220
0.0
230
1.0
 70
     8
 71
     3
 72
    17
 73
    13
 74
     0
 42
0.00000001
 43
0.00000001
 40
0.0
 40
0.0
 40
0.0
 40
0.0
 40
1.0
 40
1.0
 40
1.0
 40
2.0
 40
2.0
 40
2.0
 40
3.0
 40
3.0
 40
3.0
 40
4.0
 40
4.0
 40
4.0
 40
4.0
 10
-7.7568047417534718
 20
3.7772026909722221
 30
0.0
 10
-7.7568047417534718
 20
3.7772026909722221
 30
0.0
 10
-6.8421318901909718
 20
3.6628255208333331
 30
0.0
 10
-6.8421318901909718
 20
3.6628255208333331
 30
0.0
 10
-6.8421318901909718
 20
3.6628255208333331
 30
0.0
 10
-7.3194498697916659
 20
0.5133192274305555
 30
0.0
 10
-7.3194498697916659
 20
0.5133192274305555
 30
0.0
 10
-7.9178629557291655
 20
1.1920030381944444
 30
0.0
 10
-8.7438245985243039
 20
1.5930121527777776
 30
0.0
 10
-8.6775065104166664
 20
2.6882080078124999
 30
0.0
 10
-8.6382324218749993
 20
3.2848985460069442
 30
0.0
 10
-7.9287150065104157
 20
3.297300889756944
 30
0.0
 10
-7.7568047417534718
 20
3.7772026909722221
 30
0.0
  0
POLYLINE
  5
7A
100
AcDbEntity
  8
LIVELLO_1
 62
     7
100
AcDb2dPolyline
 66
     1
 10
0.0
 20
0.0
 30
0.0
 70
     1
  0
VERTEX
  5
7B
100
AcDbEntity
  8
LIVELLO_1
 62
     7
100
AcDbVertex
100
AcDb2dVertex
 10
-29.896194
 20
15.68862
 30
0.0
  0
VERTEX
  5
7C
100
AcDbEntity
  8
LIVELLO_1
 62
     7
100
AcDbVertex
100
AcDb2dVertex
 10
-28.820463
 20
14.755344
 30
0.0
  0
VERTEX
  5
7D
100
AcDbEntity
  8
LIVELLO_1
 62
     7
100
AcDbVertex
100
AcDb2dVertex
 10
-28.6346
 20
13.128225
 30
0.0
  0
VERTEX
  5
7E
100
AcDbEntity
  8
LIVELLO_1
 62
     7
100
AcDbVertex
100
AcDb2dVertex
 10
-30.093598
 20
12.505008
 30
0.0
  0
VERTEX
  5
7F
100
AcDbEntity
  8
LIVELLO_1
 62
     7
100
AcDbVertex
100
AcDb2dVertex
 10
-30.532503
 20
14.565864
 30
0.0
  0
SEQEND
  5
80
100
AcDbEntity
  8
LIVELLO_1
 62
     7
  0
POLYLINE
  5
73
100
AcDbEntity
  8
LIVELLO_1
 62
     7
100
AcDb2dPolyline
 66
     1
 10
0.0
 20
0.0
 30
0.0
 70
     1
  0
VERTEX
  5
74
100
AcDbEntity
  8
LIVELLO_1
 62
     7
100
AcDbVertex
100
AcDb2dVertex
 10
-33.543
 20
15.68862
 30
0.0
  0
VERTEX
  5
75
100
AcDbEntity
  8
LIVELLO_1
 62
     7
100
AcDbVertex
100
AcDb2dVertex
 10
-34.67368
 20
14.891081
 30
0.0
  0
VERTEX
  5
76
100
AcDbEntity
  8
LIVELLO_1
 62
     7
100
AcDbVertex
100
AcDb2dVertex
 10
-34.956695
 20
13.294968
 30
0.0
  0
VERTEX
  5
77
100
AcDbEntity
  8
LIVELLO_1
 62
     7
100
AcDbVertex
100
AcDb2dVertex
 10
-33.543
 20
12.494328
 30
0.0
  0
VERTEX
  5
78
100
AcDbEntity
  8
LIVELLO_1
 62
     7
100
AcDbVertex
100
AcDb2dVertex
 10
-32.977832
 20
14.491794
 30
0.0
  0
SEQEND
  5
79
100
AcDbEntity
  8
LIVELLO_1
 62
     7
  0
SPLINE
  5
72
100
AcDbEntity
  8
LIVELLO_1
 62
     7
100
AcDbSpline
210
0.0
220
0.0
230
1.0
 70
     8
 71
     3
 72
    14
 73
    10
 74
     0
 42
0.00000001
 43
0.00000001
 40
0.0
 40
0.0
 40
0.0
 40
0.0
 40
1.0
 40
1.0
 40
1.0
 40
2.0
 40
2.0
 40
2.0
 40
3.0
 40
3.0
 40
3.0
 40
3.0
 10
-26.590969509548607
 20
12.679329427083331
 30
0.0
 10
-26.095909288194441
 20
12.481925455729165
 30
0.0
 10
-25.742614746093746
 20
11.882134331597221
 30
0.0
 10
-25.177446831597219
 20
11.882134331597221
 30
0.0
 10
-23.697606065538192
 20
11.882134331597221
 30
0.0
 10
-22.988088650173609
 20
13.680474175347221
 30
0.0
 10
-22.354880099826389
 20
15.577343749999999
 30
0.0
 10
-24.12014702690972
 20
16.077227105034719
 30
0.0
 10
-25.673368326822914
 20
14.878678385416665
 30
0.0
 10
-26.590969509548607
 20
12.679329427083331
 30
0.0
  0
SPLINE
  5
71
100
AcDbEntity
  8
LIVELLO_1
 62
     7
100
AcDbSpline
210
0.0
220
0.0
230
1.0
 70
     8
 71
     3
 72
    14
 73
    10
 74
     0
 42
0.00000001
 43
0.00000001
 40
0.0
 40
0.0
 40
0.0
 40
0.0
 40
1.0
 40
1.0
 40
1.0
 40
2.0
 40
2.0
 40
2.0
 40
3.0
 40
3.0
 40
3.0
 40
3.0
 10
-8.7438245985243039
 20
12.249037000868054
 30
0.0
 10
-9.2473253038194443
 20
12.110199652777776
 30
0.0
 10
-9.6345540364583329
 20
11.556572808159721
 30
0.0
 10
-10.19972195095486
 20
11.62444118923611
 30
0.0
 10
-11.676634385850694
 20
11.808064778645832
 30
0.0
 10
-12.268846299913193
 20
13.686675347222222
 30
0.0
 10
-12.785610622829861
 20
15.654513888888888
 30
0.0
 10
-10.996400282118055
 20
15.935289171006943
 30
0.0
 10
-9.5243109809027775
 20
14.548638237847221
 30
0.0
 10
-8.7438245985243039
 20
12.249037000868054
 30
0.0
  0
SPLINE
  5
70
100
AcDbEntity
  8
LIVELLO_1
 62
     7
100
AcDbSpline
210
0.0
220
0.0
230
1.0
 70
     8
 71
     3
 72
    17
 73
    13
 74
     0
 42
0.00000001
 43
0.00000001
 40
0.0
 40
0.0
 40
0.0
 40
0.0
 40
1.0
 40
1.0
 40
1.0
 40
2.0
 40
2.0
 40
2.0
 40
3.0
 40
3.0
 40
3.0
 40
4.0
 40
4.0
 40
4.0
 40
4.0
 10
-20.669883897569441
 20
12.202872721354165
 30
0.0
 10
-19.848745388454859
 20
11.854229058159721
 30
0.0
 10
-19.31423882378472
 20
11.507307942708332
 30
0.0
 10
-18.450553385416665
 20
11.507307942708332
 30
0.0
 10
-17.300752766927083
 20
11.507307942708332
 30
0.0
 10
-16.313560655381941
 20
12.725838216145831
 30
0.0
 10
-16.313560655381941
 20
14.354334852430554
 30
0.0
 10
-16.313560655381941
 20
14.878678385416665
 30
0.0
 10
-16.358346896701388
 20
15.16565483940972
 30
0.0
 10
-16.313560655381941
 20
15.688620334201387
 30
0.0
 10
-18.2469482421875
 20
15.688620334201387
 30
0.0
 10
-20.505725097656249
 20
14.93586697048611
 30
0.0
 10
-20.669883897569441
 20
12.202872721354165
 30
0.0
  0
SPLINE
  5
6F
100
AcDbEntity
  8
LIVELLO_1
 62
     7
100
AcDbSpline
210
0.0
220
0.0
230
1.0
 70
     8
 71
     3
 72
    23
 73
    19
 74
     0
 42
0.00000001
 43
0.00000001
 40
0.0
 40
0.0
 40
0.0
 40
0.0
 40
1.0
 40
1.0
 40
1.0
 40
2.0
 40
2.0
 40
2.0
 40
3.0
 40
3.0
 40
3.0
 40
4.0
 40
4.0
 40
4.0
 40
5.0
 40
5.0
 40
5.0
 40
6.0
 40
6.0
 40
6.0
 40
6.0
 10
17.645606825086805
 20
-1.9464789496527777
 30
0.0
 10
17.645606825086805
 20
-1.9464789496527777
 30
0.0
 10
17.803736707899304
 20
-3.9670274522569442
 30
0.0
 10
17.803736707899304
 20
-3.9670274522569442
 30
0.0
 10
16.928337944878471
 20
-4.3618353949652775
 30
0.0
 10
16.346805826822916
 20
-4.5871446397569438
 30
0.0
 10
15.478641764322916
 20
-4.8799777560763884
 30
0.0
 10
15.478641764322916
 20
-4.8799777560763884
 30
0.0
 10
14.381034342447915
 20
-4.3432318793402773
 30
0.0
 10
14.381034342447915
 20
-4.3432318793402773
 30
0.0
 10
14.381034342447915
 20
-4.3432318793402773
 30
0.0
 10
13.915257432725694
 20
-2.6837293836805554
 30
0.0
 10
13.915257432725694
 20
-2.6837293836805554
 30
0.0
 10
13.915257432725694
 20
-2.6837293836805554
 30
0.0
 10
15.395270453559027
 20
-1.6643256293402777
 30
0.0
 10
15.395270453559027
 20
-1.6643256293402777
 30
0.0
 10
15.395270453559027
 20
-1.6643256293402777
 30
0.0
 10
16.32992485894097
 20
-1.4807020399305555
 30
0.0
 10
17.645606825086805
 20
-1.9464789496527777
 30
0.0
  0
SPLINE
  5
6E
100
AcDbEntity
  8
LIVELLO_1
 62
     7
100
AcDbSpline
210
0.0
220
0.0
230
1.0
 70
     8
 71
     3
 72
    17
 73
    13
 74
     0
 42
0.00000001
 43
0.00000001
 40
0.0
 40
0.0
 40
0.0
 40
0.0
 40
1.0
 40
1.0
 40
1.0
 40
2.0
 40
2.0
 40
2.0
 40
3.0
 40
3.0
 40
3.0
 40
4.0
 40
4.0
 40
4.0
 40
4.0
 10
17.438901095920137
 20
15.674495442708333
 30
0.0
 10
18.270891655815969
 20
14.462510850694443
 30
0.0
 10
18.66432156032986
 20
13.483070203993055
 30
0.0
 10
19.318200683593748
 20
12.059556749131943
 30
0.0
 10
18.415930175781249
 20
10.828624131944444
 30
0.0
 10
17.455782063802083
 20
10.657402886284721
 30
0.0
 10
16.189709472656247
 20
10.811743164062499
 30
0.0
 10
15.164793565538194
 20
10.939556206597221
 30
0.0
 10
13.970034450954859
 20
11.613761393229165
 30
0.0
 10
14.05719536675347
 20
13.058978949652776
 30
0.0
 10
14.164682345920138
 20
14.797029622395833
 30
0.0
 10
16.206590440538193
 20
15.827457682291666
 30
0.0
 10
17.438901095920137
 20
15.674495442708333
 30
0.0
  0
SPLINE
  5
6D
100
AcDbEntity
  8
LIVELLO_1
 62
     7
100
AcDbSpline
210
0.0
220
0.0
230
1.0
 70
     8
 71
     3
 72
    17
 73
    13
 74
     0
 42
0.00000001
 43
0.00000001
 40
0.0
 40
0.0
 40
0.0
 40
0.0
 40
1.0
 40
1.0
 40
1.0
 40
2.0
 40
2.0
 40
2.0
 40
3.0
 40
3.0
 40
3.0
 40
4.0
 40
4.0
 40
4.0
 40
4.0
 10
17.238396538628471
 20
8.7973958333333329
 30
0.0
 10
18.072109646267361
 20
7.586789279513888
 30
0.0
 10
18.742869737413194
 20
7.6312310112847213
 30
0.0
 10
19.396748860677082
 20
6.2094401041666663
 30
0.0
 10
18.495511881510414
 20
4.9785074869791659
 30
0.0
 10
17.869882541232638
 20
5.9362440321180552
 30
0.0
 10
16.600020345052084
 20
6.0936848958333325
 30
0.0
 10
15.578205023871526
 20
6.2201199001736107
 30
0.0
 10
13.320978461371526
 20
7.349077690972222
 30
0.0
 10
13.412618001302082
 20
8.7973958333333329
 30
0.0
 10
13.520449490017359
 20
10.534068467881944
 30
0.0
 10
16.010564507378472
 20
8.9500135633680546
 30
0.0
 10
17.238396538628471
 20
8.7973958333333329
 30
0.0
  0
SPLINE
  5
6C
100
AcDbEntity
  8
LIVELLO_1
 62
     7
100
AcDbSpline
210
0.0
220
0.0
230
1.0
 70
     8
 71
     3
 72
    17
 73
    13
 74
     0
 42
0.00000001
 43
0.00000001
 40
0.0
 40
0.0
 40
0.0
 40
0.0
 40
1.0
 40
1.0
 40
1.0
 40
2.0
 40
2.0
 40
2.0
 40
3.0
 40
3.0
 40
3.0
 40
4.0
 40
4.0
 40
4.0
 40
4.0
 10
22.389847819010413
 20
-0.0709689670138889
 30
0.0
 10
23.223560926649302
 20
-1.2850206163194444
 30
0.0
 10
23.616646321614581
 20
-2.2658393012152778
 30
0.0
 10
24.269147406684027
 20
-3.6862521701388884
 30
0.0
 10
23.369288465711804
 20
-4.9171847873263888
 30
0.0
 10
22.409140353732639
 20
-5.0928846571180548
 30
0.0
 10
21.140656195746526
 20
-4.9340657552083327
 30
0.0
 10
20.117118326822915
 20
-4.8076307508680554
 30
0.0
 10
18.921670193142358
 20
-4.1351481119791664
 30
0.0
 10
19.009864637586805
 20
-2.6885525173611109
 30
0.0
 10
19.117696126302082
 20
-0.9501573350694443
 30
0.0
 10
21.159604220920137
 20
0.0799262152777778
 30
0.0
 10
22.389847819010413
 20
-0.0709689670138889
 30
0.0
  0
SPLINE
  5
6B
100
AcDbEntity
  8
LIVELLO_1
 62
     7
100
AcDbSpline
210
0.0
220
0.0
230
1.0
 70
     8
 71
     3
 72
    20
 73
    16
 74
     0
 42
0.00000001
 43
0.00000001
 40
0.0
 40
0.0
 40
0.0
 40
0.0
 40
1.0
 40
1.0
 40
1.0
 40
2.0
 40
2.0
 40
2.0
 40
3.0
 40
3.0
 40
3.0
 40
4.0
 40
4.0
 40
4.0
 40
5.0
 40
5.0
 40
5.0
 40
5.0
 10
19.493211534288193
 20
4.7518202039930548
 30
0.0
 10
19.176951768663194
 20
1.8830891927083331
 30
0.0
 10
18.319467502170138
 20
-0.4737006293402777
 30
0.0
 10
16.282038031684028
 20
-0.2191080729166667
 30
0.0
 10
14.874027506510416
 20
-0.0465087890625
 30
0.0
 10
14.346583387586804
 20
0.5749864366319444
 30
0.0
 10
13.671689181857637
 20
2.264116753472222
 30
0.0
 10
13.671689181857637
 20
2.264116753472222
 30
0.0
 10
14.074420844184026
 20
4.2181749131944439
 30
0.0
 10
14.074420844184026
 20
4.2181749131944439
 30
0.0
 10
15.572003851996527
 20
4.3339301215277777
 30
0.0
 10
16.364720323350692
 20
4.5375352647569445
 30
0.0
 10
17.808215332031249
 20
4.9585259331597218
 30
0.0
 10
17.808215332031249
 20
4.9585259331597218
 30
0.0
 10
19.493211534288193
 20
4.7518202039930548
 30
0.0
 10
19.493211534288193
 20
4.7518202039930548
 30
0.0
  0
SPLINE
  5
6A
100
AcDbEntity
  8
LIVELLO_1
 62
     7
100
AcDbSpline
210
0.0
220
0.0
230
1.0
 70
     8
 71
     3
 72
    23
 73
    19
 74
     0
 42
0.00000001
 43
0.00000001
 40
0.0
 40
0.0
 40
0.0
 40
0.0
 40
1.0
 40
1.0
 40
1.0
 40
2.0
 40
2.0
 40
2.0
 40
3.0
 40
3.0
 40
3.0
 40
4.0
 40
4.0
 40
4.0
 40
5.0
 40
5.0
 40
5.0
 40
6.0
 40
6.0
 40
6.0
 40
6.0
 10
9.6901923285590268
 20
14.113867187499999
 30
0.0
 10
9.6398939344618046
 20
13.318050130208333
 30
0.0
 10
10.482908799913194
 20
13.212974717881943
 30
0.0
 10
10.432954915364583
 20
12.417157660590277
 30
0.0
 10
10.300318739149304
 20
10.227110460069444
 30
0.0
 10
7.9542087131076382
 20
11.320583767361111
 30
0.0
 10
6.4211412217881936
 20
11.710913085937499
 30
0.0
 10
6.3248508029513886
 20
12.425081380208333
 30
0.0
 10
5.9329711914062493
 20
12.973885091145831
 30
0.0
 10
5.9815470377604161
 20
13.769702148437499
 30
0.0
 10
6.0294338650173609
 20
14.565863715277777
 30
0.0
 10
6.4814303927951382
 20
15.011314561631943
 30
0.0
 10
6.6671210394965268
 20
15.688620334201387
 30
0.0
 10
6.6671210394965268
 20
15.688620334201387
 30
0.0
 10
9.1989217122395832
 20
15.376839192708331
 30
0.0
 10
9.1989217122395832
 20
15.376839192708331
 30
0.0
 10
9.1989217122395832
 20
15.376839192708331
 30
0.0
 10
9.6901923285590268
 20
14.113867187499999
 30
0.0
 10
9.6901923285590268
 20
14.113867187499999
 30
0.0
  0
SPLINE
  5
69
100
AcDbEntity
  8
LIVELLO_1
 62
     7
100
AcDbSpline
210
0.0
220
0.0
230
1.0
 70
     8
 71
     3
 72
    23
 73
    19
 74
     0
 42
0.00000001
 43
0.00000001
 40
0.0
 40
0.0
 40
0.0
 40
0.0
 40
1.0
 40
1.0
 40
1.0
 40
2.0
 40
2.0
 40
2.0
 40
3.0
 40
3.0
 40
3.0
 40
4.0
 40
4.0
 40
4.0
 40
5.0
 40
5.0
 40
5.0
 40
6.0
 40
6.0
 40
6.0
 40
6.0
 10
4.0838161892361109
 20
13.371793619791665
 30
0.0
 10
4.0838161892361109
 20
13.371793619791665
 30
0.0
 10
4.8301961263020825
 20
11.675428602430555
 30
0.0
 10
4.8301961263020825
 20
11.675428602430555
 30
0.0
 10
3.8817613389756942
 20
11.291300455729166
 30
0.0
 10
3.3472547743055552
 20
10.657402886284721
 30
0.0
 10
2.3617852105034718
 20
10.779359266493055
 30
0.0
 10
1.380105251736111
 20
10.899593098958333
 30
0.0
 10
0.8857340494791666
 20
10.959537760416666
 30
0.0
 10
-0.0997355143229167
 20
11.083216688368054
 30
0.0
 10
-0.1114488389756944
 20
11.986865234374999
 30
0.0
 10
-0.2926608615451389
 20
12.51120876736111
 30
0.0
 10
-0.2378838433159722
 20
13.404177517361109
 30
0.0
 10
-0.0952568901909722
 20
15.694821506076387
 30
0.0
 10
2.04638671875
 20
15.930810546874998
 30
0.0
 10
3.6495619032118052
 20
15.53117947048611
 30
0.0
 10
3.6495619032118052
 20
15.53117947048611
 30
0.0
 10
4.0838161892361109
 20
13.371793619791665
 30
0.0
 10
4.0838161892361109
 20
13.371793619791665
 30
0.0
  0
SPLINE
  5
68
100
AcDbEntity
  8
LIVELLO_1
 62
     7
100
AcDbSpline
210
0.0
220
0.0
230
1.0
 70
     8
 71
     3
 72
    23
 73
    19
 74
     0
 42
0.00000001
 43
0.00000001
 40
0.0
 40
0.0
 40
0.0
 40
0.0
 40
1.0
 40
1.0
 40
1.0
 40
2.0
 40
2.0
 40
2.0
 40
3.0
 40
3.0
 40
3.0
 40
4.0
 40
4.0
 40
4.0
 40
5.0
 40
5.0
 40
5.0
 40
6.0
 40
6.0
 40
6.0
 40
6.0
 10
-2.3793551974826386
 20
14.357435438368054
 30
0.0
 10
-2.3793551974826386
 20
14.357435438368054
 30
0.0
 10
-1.9135782877604164
 20
12.697932942708333
 30
0.0
 10
-1.9135782877604164
 20
12.697932942708333
 30
0.0
 10
-3.2414903428819439
 20
11.855951605902776
 30
0.0
 10
-4.219380696614583
 20
10.975040690104166
 30
0.0
 10
-5.6976711697048605
 20
11.158664279513888
 30
0.0
 10
-6.3971978081597216
 20
11.245136176215278
 30
0.0
 10
-6.7194864908854157
 20
11.786360677083332
 30
0.0
 10
-7.3349527994791659
 20
12.164287651909721
 30
0.0
 10
-7.3349527994791659
 20
12.164287651909721
 30
0.0
 10
-7.2107571072048602
 20
14.153830295138887
 30
0.0
 10
-7.2107571072048602
 20
14.153830295138887
 30
0.0
 10
-6.0130696614583332
 20
15.20561794704861
 30
0.0
 10
-4.86016845703125
 20
15.466411675347221
 30
0.0
 10
-3.4313151041666665
 20
15.688620334201387
 30
0.0
 10
-3.4313151041666665
 20
15.688620334201387
 30
0.0
 10
-2.3793551974826386
 20
14.357435438368054
 30
0.0
 10
-2.3793551974826386
 20
14.357435438368054
 30
0.0
  0
SPLINE
  5
67
100
AcDbEntity
  8
LIVELLO_1
 62
     7
100
AcDbSpline
210
0.0
220
0.0
230
1.0
 70
     8
 71
     3
 72
    17
 73
    13
 74
     0
 42
0.00000001
 43
0.00000001
 40
0.0
 40
0.0
 40
0.0
 40
0.0
 40
1.0
 40
1.0
 40
1.0
 40
2.0
 40
2.0
 40
2.0
 40
3.0
 40
3.0
 40
3.0
 40
4.0
 40
4.0
 40
4.0
 40
4.0
 10
-11.146089680989583
 20
8.8142768012152768
 30
0.0
 10
-11.236178927951388
 20
7.3659586588541659
 30
0.0
 10
-12.087634277343749
 20
6.2463026258680552
 30
0.0
 10
-13.110999891493055
 20
6.3744601779513888
 30
0.0
 10
-13.643094889322915
 20
6.4392279730902775
 30
0.0
 10
-14.328668891059026
 20
6.6996771918402773
 30
0.0
 10
-14.282332356770832
 20
7.452430555555555
 30
0.0
 10
-14.148145887586804
 20
9.5932128906249989
 30
0.0
 10
-13.970034450954859
 20
10.839303927951388
 30
0.0
 10
-12.497945149739582
 20
11.240313042534721
 30
0.0
 10
-12.564263237847221
 20
10.199205186631943
 30
0.0
 10
-11.078221299913194
 20
9.8571072048611104
 30
0.0
 10
-11.146089680989583
 20
8.8142768012152768
 30
0.0
  0
SPLINE
  5
66
100
AcDbEntity
  8
LIVELLO_1
 62
     7
100
AcDbSpline
210
0.0
220
0.0
230
1.0
 70
     8
 71
     3
 72
    17
 73
    13
 74
     0
 42
0.00000001
 43
0.00000001
 40
0.0
 40
0.0
 40
0.0
 40
0.0
 40
1.0
 40
1.0
 40
1.0
 40
2.0
 40
2.0
 40
2.0
 40
3.0
 40
3.0
 40
3.0
 40
4.0
 40
4.0
 40
4.0
 40
4.0
 10
-31.20257432725694
 20
11.769479709201388
 30
0.0
 10
-29.772859700520829
 20
11.533490668402777
 30
0.0
 10
-28.003803168402776
 20
10.786938476562499
 30
0.0
 10
-28.128687879774304
 20
8.7601888020833325
 30
0.0
 10
-28.267525227864581
 20
6.5053738064236102
 30
0.0
 10
-30.36662190755208
 20
6.5901231553819439
 30
0.0
 10
-31.963768174913191
 20
6.7861490885416664
 30
0.0
 10
-32.906001790364577
 20
6.9032823350694441
 30
0.0
 10
-33.133550347222219
 20
8.5059407552083321
 30
0.0
 10
-33.053451877170133
 20
9.8385036892361111
 30
0.0
 10
-32.988684082031249
 20
10.879611545138888
 30
0.0
 10
-31.935173882378468
 20
11.91899685329861
 30
0.0
 10
-31.20257432725694
 20
11.769479709201388
 30
0.0
  0
POLYLINE
  5
5F
100
AcDbEntity
  8
LIVELLO_1
 62
     7
100
AcDb2dPolyline
 66
     1
 10
0.0
 20
0.0
 30
0.0
 70
     1
  0
VERTEX
  5
60
100
AcDbEntity
  8
LIVELLO_1
 62
     7
100
AcDbVertex
100
AcDb2dVertex
 10
-26.140696
 20
10.910273
 30
0.0
  0
VERTEX
  5
61
100
AcDbEntity
  8
LIVELLO_1
 62
     7
100
AcDbVertex
100
AcDb2dVertex
 10
-25.064792
 20
9.97424
 30
0.0
  0
VERTEX
  5
62
100
AcDbEntity
  8
LIVELLO_1
 62
     7
100
AcDbVertex
100
AcDb2dVertex
 10
-24.88513
 20
8.347122
 30
0.0
  0
VERTEX
  5
63
100
AcDbEntity
  8
LIVELLO_1
 62
     7
100
AcDbVertex
100
AcDb2dVertex
 10
-26.33965
 20
7.725282
 30
0.0
  0
VERTEX
  5
64
100
AcDbEntity
  8
LIVELLO_1
 62
     7
100
AcDbVertex
100
AcDb2dVertex
 10
-26.778383
 20
9.784416
 30
0.0
  0
SEQEND
  5
65
100
AcDbEntity
  8
LIVELLO_1
 62
     7
  0
SPLINE
  5
5E
100
AcDbEntity
  8
LIVELLO_1
 62
     7
100
AcDbSpline
210
0.0
220
0.0
230
1.0
 70
     8
 71
     3
 72
    20
 73
    16
 74
     0
 42
0.00000001
 43
0.00000001
 40
0.0
 40
0.0
 40
0.0
 40
0.0
 40
1.0
 40
1.0
 40
1.0
 40
2.0
 40
2.0
 40
2.0
 40
3.0
 40
3.0
 40
3.0
 40
4.0
 40
4.0
 40
4.0
 40
5.0
 40
5.0
 40
5.0
 40
5.0
 10
-31.049095323350691
 20
0.4733561197916666
 30
0.0
 10
-29.687938096788191
 20
-0.8609293619791666
 30
0.0
 10
-28.662333170572914
 20
-1.6302191840277775
 30
0.0
 10
-28.217399088541665
 20
-3.7882269965277775
 30
0.0
 10
-30.310294596354165
 20
-4.227821180555555
 30
0.0
 10
-31.362254503038191
 20
-5.2641059027777777
 30
0.0
 10
-33.4088134765625
 20
-5.0095133463541659
 30
0.0
 10
-34.269570583767361
 20
-4.9030598958333327
 30
0.0
 10
-34.896405707465277
 20
-3.7186360677083332
 30
0.0
 10
-34.820958116319439
 20
-2.5018283420138885
 30
0.0
 10
-34.691422526041663
 20
-0.4182345920138889
 30
0.0
 10
-33.718183051215277
 20
-0.4892035590277777
 30
0.0
 10
-32.24127061631944
 20
-0.6711046006944443
 30
0.0
 10
-32.24127061631944
 20
-0.6711046006944443
 30
0.0
 10
-31.049095323350691
 20
0.4733561197916666
 30
0.0
 10
-31.049095323350691
 20
0.4733561197916666
 30
0.0
  0
SPLINE
  5
5D
100
AcDbEntity
  8
LIVELLO_1
 62
     7
100
AcDbSpline
210
0.0
220
0.0
230
1.0
 70
     8
 71
     3
 72
    20
 73
    16
 74
     0
 42
0.00000001
 43
0.00000001
 40
0.0
 40
0.0
 40
0.0
 40
0.0
 40
1.0
 40
1.0
 40
1.0
 40
2.0
 40
2.0
 40
2.0
 40
3.0
 40
3.0
 40
3.0
 40
4.0
 40
4.0
 40
4.0
 40
5.0
 40
5.0
 40
5.0
 40
5.0
 10
-26.800775824652774
 20
5.7498643663194438
 30
0.0
 10
-25.725044759114581
 20
5.1483506944444439
 30
0.0
 10
-24.632260470920137
 20
4.1410047743055554
 30
0.0
 10
-24.736302354600692
 20
2.459798177083333
 30
0.0
 10
-24.775576443142359
 20
1.7642333984374998
 30
0.0
 10
-25.304743109809024
 20
1.2474690755208333
 30
0.0
 10
-25.794291178385414
 20
1.3077582465277777
 30
0.0
 10
-27.349062771267359
 20
1.4989610460069442
 30
0.0
 10
-28.915203179253471
 20
2.8594292534722219
 30
0.0
 10
-28.778088378906247
 20
5.0618787977430548
 30
0.0
 10
-28.686276584201387
 20
6.6242296006944441
 30
0.0
 10
-27.236408148871526
 20
6.6783175998263884
 30
0.0
 10
-26.132944064670138
 20
6.5425808376736105
 30
0.0
 10
-26.132944064670138
 20
6.5425808376736105
 30
0.0
 10
-26.800775824652774
 20
5.7498643663194438
 30
0.0
 10
-26.800775824652774
 20
5.7498643663194438
 30
0.0
  0
SPLINE
  5
5C
100
AcDbEntity
  8
LIVELLO_1
 62
     7
100
AcDbSpline
210
0.0
220
0.0
230
1.0
 70
     8
 71
     3
 72
    17
 73
    13
 74
     0
 42
0.00000001
 43
0.00000001
 40
0.0
 40
0.0
 40
0.0
 40
0.0
 40
1.0
 40
1.0
 40
1.0
 40
2.0
 40
2.0
 40
2.0
 40
3.0
 40
3.0
 40
3.0
 40
4.0
 40
4.0
 40
4.0
 40
4.0
 10
-22.284083387586804
 20
10.476879882812499
 30
0.0
 10
-20.857297092013887
 20
10.240890842013888
 30
0.0
 10
-19.085139973958331
 20
9.4960611979166654
 30
0.0
 10
-19.211747233072916
 20
7.4693115234374989
 30
0.0
 10
-19.350412326388888
 20
5.2131184895833327
 30
0.0
 10
-21.451059299045138
 20
5.2978678385416664
 30
0.0
 10
-23.046655273437498
 20
5.4921712239583327
 30
0.0
 10
-23.987510850694441
 20
5.6093044704861104
 30
0.0
 10
-24.21971028645833
 20
7.2133409288194441
 30
0.0
 10
-24.136338975694443
 20
8.5459038628472221
 30
0.0
 10
-24.071571180555555
 20
9.5870117187499986
 30
0.0
 10
-23.019783528645831
 20
10.625018988715278
 30
0.0
 10
-22.284083387586804
 20
10.476879882812499
 30
0.0
  0
SPLINE
  5
5B
100
AcDbEntity
  8
LIVELLO_1
 62
     7
100
AcDbSpline
210
0.0
220
0.0
230
1.0
 70
     8
 71
     3
 72
    17
 73
    13
 74
     0
 42
0.00000001
 43
0.00000001
 40
0.0
 40
0.0
 40
0.0
 40
0.0
 40
1.0
 40
1.0
 40
1.0
 40
2.0
 40
2.0
 40
2.0
 40
3.0
 40
3.0
 40
3.0
 40
4.0
 40
4.0
 40
4.0
 40
4.0
 10
-15.666571723090277
 20
8.1080322265625
 30
0.0
 10
-15.754593912760415
 20
6.6579915364583329
 30
0.0
 10
-16.607427300347222
 20
5.5400580512152775
 30
0.0
 10
-17.630792914496528
 20
5.6664930555555548
 30
0.0
 10
-18.164438205295138
 20
5.7326388888888884
 30
0.0
 10
-18.850012207031249
 20
5.9934326171874996
 30
0.0
 10
-18.802986653645831
 20
6.744463433159722
 30
0.0
 10
-18.668800184461805
 20
8.8883463541666661
 30
0.0
 10
-17.630792914496528
 20
10.333563910590277
 30
0.0
 10
-16.164043511284721
 20
10.735951063368054
 30
0.0
 10
-16.227261013454861
 20
9.6917426215277764
 30
0.0
 10
-15.601803927951387
 20
9.1505181206597221
 30
0.0
 10
-15.666571723090277
 20
8.1080322265625
 30
0.0
  0
SPLINE
  5
5A
100
AcDbEntity
  8
LIVELLO_1
 62
     7
100
AcDbSpline
210
0.0
220
0.0
230
1.0
 70
     8
 71
     3
 72
    23
 73
    19
 74
     0
 42
0.00000001
 43
0.00000001
 40
0.0
 40
0.0
 40
0.0
 40
0.0
 40
1.0
 40
1.0
 40
1.0
 40
2.0
 40
2.0
 40
2.0
 40
3.0
 40
3.0
 40
3.0
 40
4.0
 40
4.0
 40
4.0
 40
5.0
 40
5.0
 40
5.0
 40
6.0
 40
6.0
 40
6.0
 40
6.0
 10
-21.236774359809026
 20
3.0213487413194442
 30
0.0
 10
-21.070893012152776
 20
2.3612684461805555
 30
0.0
 10
-20.846617296006944
 20
1.9833414713541664
 30
0.0
 10
-20.88899197048611
 20
1.2877766927083332
 30
0.0
 10
-21.016977267795138
 20
-0.7958170572916666
 30
0.0
 10
-22.353329806857637
 20
-1.6829291449652777
 30
0.0
 10
-23.785456000434024
 20
-2.2024495442708329
 30
0.0
 10
-23.785456000434024
 20
-2.2024495442708329
 30
0.0
 10
-24.428655327690969
 20
-1.8927354600694444
 30
0.0
 10
-24.428655327690969
 20
-1.8927354600694444
 30
0.0
 10
-24.36698811848958
 20
-0.9070936414930555
 30
0.0
 10
-24.333742947048609
 20
-0.3872287326388889
 30
0.0
 10
-24.273626030815969
 20
0.5966905381944444
 30
0.0
 10
-24.184914822048608
 20
2.0450086805555552
 30
0.0
 10
-23.084551323784719
 20
2.4939046223958332
 30
0.0
 10
-22.053434244791664
 20
2.4815022786458329
 30
0.0
 10
-22.053434244791664
 20
2.4815022786458329
 30
0.0
 10
-21.236774359809026
 20
3.0213487413194442
 30
0.0
 10
-21.236774359809026
 20
3.0213487413194442
 30
0.0
  0
SPLINE
  5
59
100
AcDbEntity
  8
LIVELLO_1
 62
     7
100
AcDbSpline
210
0.0
220
0.0
230
1.0
 70
     8
 71
     3
 72
    20
 73
    16
 74
     0
 42
0.00000001
 43
0.00000001
 40
0.0
 40
0.0
 40
0.0
 40
0.0
 40
1.0
 40
1.0
 40
1.0
 40
2.0
 40
2.0
 40
2.0
 40
3.0
 40
3.0
 40
3.0
 40
4.0
 40
4.0
 40
4.0
 40
5.0
 40
5.0
 40
5.0
 40
5.0
 10
-28.343834092881941
 20
-5.8997260199652777
 30
0.0
 10
-27.320468478732636
 20
-6.7279269748263886
 30
0.0
 10
-25.987216525607636
 20
-7.1241129557291663
 30
0.0
 10
-26.091258409288191
 20
-8.8039415147569429
 30
0.0
 10
-26.203913031684024
 20
-10.599180772569444
 30
0.0
 10
-27.574199761284721
 20
-11.478369140624999
 30
0.0
 10
-28.844406467013886
 20
-11.322306315104166
 30
0.0
 10
-29.869150119357638
 20
-11.195871310763888
 30
0.0
 10
-30.343539767795136
 20
-9.5039849175347211
 30
0.0
 10
-30.253278266059024
 20
-8.0556667751736111
 30
0.0
 10
-30.188510470920136
 20
-7.013180881076388
 30
0.0
 10
-29.581656901041665
 20
-6.5057183159722216
 30
0.0
 10
-28.969291178385415
 20
-5.9968777126736104
 30
0.0
 10
-28.969291178385415
 20
-5.9968777126736104
 30
0.0
 10
-28.343834092881941
 20
-5.8997260199652777
 30
0.0
 10
-28.343834092881941
 20
-5.8997260199652777
 30
0.0
  0
SPLINE
  5
58
100
AcDbEntity
  8
LIVELLO_1
 62
     7
100
AcDbSpline
210
0.0
220
0.0
230
1.0
 70
     8
 71
     3
 72
    17
 73
    13
 74
     0
 42
0.00000001
 43
0.00000001
 40
0.0
 40
0.0
 40
0.0
 40
0.0
 40
1.0
 40
1.0
 40
1.0
 40
2.0
 40
2.0
 40
2.0
 40
3.0
 40
3.0
 40
3.0
 40
4.0
 40
4.0
 40
4.0
 40
4.0
 10
-21.589207628038192
 20
-10.703911675347221
 30
0.0
 10
-20.707779947916666
 20
-11.803586154513887
 30
0.0
 10
-20.153291829427083
 20
-12.807831488715276
 30
0.0
 10
-20.05062798394097
 20
-14.510397677951387
 30
0.0
 10
-21.102587890624999
 20
-14.845260959201388
 30
0.0
 10
-21.773520236545139
 20
-14.99787868923611
 30
0.0
 10
-22.877845594618055
 20
-14.859041341145833
 30
0.0
 10
-24.148741319444444
 20
-14.704701063368054
 30
0.0
 10
-25.396382649739582
 20
-13.555761718749999
 30
0.0
 10
-25.367960611979164
 20
-11.752598741319444
 30
0.0
 10
-23.608894856770831
 20
-11.325406901041665
 30
0.0
 10
-22.739697265624997
 20
-10.619162326388889
 30
0.0
 10
-20.950659179687499
 20
-10.372493489583333
 30
0.0
  0
SPLINE
  5
57
100
AcDbEntity
  8
LIVELLO_1
 62
     7
100
AcDbSpline
210
0.0
220
0.0
230
1.0
 70
     8
 71
     3
 72
    17
 73
    13
 74
     0
 42
0.00000001
 43
0.00000001
 40
0.0
 40
0.0
 40
0.0
 40
0.0
 40
1.0
 40
1.0
 40
1.0
 40
2.0
 40
2.0
 40
2.0
 40
3.0
 40
3.0
 40
3.0
 40
4.0
 40
4.0
 40
4.0
 40
4.0
 10
-20.982354058159721
 20
-3.5429361979166663
 30
0.0
 10
-19.591052246093749
 20
-3.715535481770833
 30
0.0
 10
-18.321017795138886
 20
-5.214841037326388
 30
0.0
 10
-18.444352213541666
 20
-7.1813015407986107
 30
0.0
 10
-18.560796440972222
 20
-9.0953965928819436
 30
0.0
 10
-20.31297200520833
 20
-9.4023546006944443
 30
0.0
 10
-21.664827473958333
 20
-9.2356119791666664
 30
0.0
 10
-23.545677354600691
 20
-9.002723524305555
 30
0.0
 10
-25.968613009982636
 20
-8.1204345703124989
 30
0.0
 10
-25.804454210069441
 20
-5.4553087022569438
 30
0.0
 10
-25.644774034288194
 20
-2.9059380425347219
 30
0.0
 10
-22.792234971788194
 20
-3.4950493706597219
 30
0.0
 10
-20.982354058159721
 20
-3.5429361979166663
 30
0.0
  0
SPLINE
  5
56
100
AcDbEntity
  8
LIVELLO_1
 62
     7
100
AcDbSpline
210
0.0
220
0.0
230
1.0
 70
     8
 71
     3
 72
    20
 73
    16
 74
     0
 42
0.00000001
 43
0.00000001
 40
0.0
 40
0.0
 40
0.0
 40
0.0
 40
1.0
 40
1.0
 40
1.0
 40
2.0
 40
2.0
 40
2.0
 40
3.0
 40
3.0
 40
3.0
 40
4.0
 40
4.0
 40
4.0
 40
5.0
 40
5.0
 40
5.0
 40
5.0
 10
-18.000107150607636
 20
3.963582356770833
 30
0.0
 10
-18.94337429470486
 20
4.0807156032986107
 30
0.0
 10
-19.717487250434026
 20
2.8931911892361106
 30
0.0
 10
-19.799308268229165
 20
1.5606282552083333
 30
0.0
 10
-19.868726942274304
 20
0.4609537760416667
 30
0.0
 10
-19.904900444878471
 20
-0.1774224175347222
 30
0.0
 10
-19.972768825954859
 20
-1.2770968967013887
 30
0.0
 10
-19.278065321180552
 20
-1.3621907552083332
 30
0.0
 10
-18.908578830295138
 20
-1.408355034722222
 30
0.0
 10
-18.215253363715277
 20
-1.4948269314236109
 30
0.0
 10
-16.90594482421875
 20
-1.6581244574652776
 30
0.0
 10
-15.142228190104165
 20
-1.8755099826388888
 30
0.0
 10
-15.026472981770832
 20
-0.0217041015625
 30
0.0
 10
-14.889185926649304
 20
2.2379340277777775
 30
0.0
 10
-16.403822157118054
 20
3.7661783854166662
 30
0.0
 10
-18.000107150607636
 20
3.963582356770833
 30
0.0
  0
SPLINE
  5
55
100
AcDbEntity
  8
LIVELLO_1
 62
     7
100
AcDbSpline
210
0.0
220
0.0
230
1.0
 70
     8
 71
     3
 72
    17
 73
    13
 74
     0
 42
0.00000001
 43
0.00000001
 40
0.0
 40
0.0
 40
0.0
 40
0.0
 40
1.0
 40
1.0
 40
1.0
 40
2.0
 40
2.0
 40
2.0
 40
3.0
 40
3.0
 40
3.0
 40
4.0
 40
4.0
 40
4.0
 40
4.0
 10
-11.378116861979166
 20
5.7081787109374993
 30
0.0
 10
-10.543025716145833
 20
4.4972276475694439
 30
0.0
 10
-10.151146104600693
 20
3.5133083767361106
 30
0.0
 10
-9.4972669813368054
 20
2.0897949218749998
 30
0.0
 10
-10.398676215277776
 20
0.8619628906249999
 30
0.0
 10
-11.356585015190971
 20
0.6876410590277777
 30
0.0
 10
-12.62593044704861
 20
0.8450819227430555
 30
0.0
 10
-13.650846354166665
 20
0.9715169270833333
 30
0.0
 10
-14.845260959201388
 20
1.6453776041666666
 30
0.0
 10
-14.756549750434026
 20
3.0923177083333329
 30
0.0
 10
-14.649407280815971
 20
4.8289903428819443
 30
0.0
 10
-12.603537326388889
 20
5.860796440972222
 30
0.0
 10
-11.378116861979166
 20
5.7081787109374993
 30
0.0
  0
SPLINE
  5
54
100
AcDbEntity
  8
LIVELLO_1
 62
     7
100
AcDbSpline
210
0.0
220
0.0
230
1.0
 70
     8
 71
     3
 72
    14
 73
    10
 74
     0
 42
0.00000001
 43
0.00000001
 40
0.0
 40
0.0
 40
0.0
 40
0.0
 40
1.0
 40
1.0
 40
1.0
 40
2.0
 40
2.0
 40
2.0
 40
3.0
 40
3.0
 40
3.0
 40
3.0
 10
-4.9189073350694441
 20
7.2395236545138886
 30
0.0
 10
-5.039141167534722
 20
5.328529188368055
 30
0.0
 10
-6.4573147243923605
 20
4.3938747829861109
 30
0.0
 10
-7.8091701931423607
 20
4.5606174045138888
 30
0.0
 10
-9.1594753689236104
 20
4.7287380642361105
 30
0.0
 10
-9.9900878906249986
 20
6.6397325303819441
 30
0.0
 10
-9.869681803385415
 20
8.5507269965277768
 30
0.0
 10
-9.6993218315972207
 20
11.32988552517361
 30
0.0
 10
-4.7499254014756938
 20
10.015926106770833
 30
0.0
 10
-4.9189073350694441
 20
7.2395236545138886
 30
0.0
  0
SPLINE
  5
53
100
AcDbEntity
  8
LIVELLO_1
 62
     7
100
AcDbSpline
210
0.0
220
0.0
230
1.0
 70
     8
 71
     3
 72
    20
 73
    16
 74
     0
 42
0.00000001
 43
0.00000001
 40
0.0
 40
0.0
 40
0.0
 40
0.0
 40
1.0
 40
1.0
 40
1.0
 40
2.0
 40
2.0
 40
2.0
 40
3.0
 40
3.0
 40
3.0
 40
4.0
 40
4.0
 40
4.0
 40
5.0
 40
5.0
 40
5.0
 40
5.0
 10
0.2063612196180555
 20
7.126869032118055
 30
0.0
 10
0.1269517686631944
 20
5.8315131293402773
 30
0.0
 10
-0.6102986653645833
 20
5.4225802951388884
 30
0.0
 10
-1.0969184027777776
 20
4.3800944010416663
 30
0.0
 10
-1.0969184027777776
 20
4.3800944010416663
 30
0.0
 10
-4.8725708007812498
 20
2.2610161675347222
 30
0.0
 10
-4.8725708007812498
 20
2.2610161675347222
 30
0.0
 10
-4.8208943684895829
 20
3.0568332248263888
 30
0.0
 10
-3.9031209309895831
 20
6.0302951388888886
 30
0.0
 10
-3.8545450846354163
 20
6.8261121961805546
 30
0.0
 10
-3.7529147677951387
 20
8.4194688585069439
 30
0.0
 10
-2.7657226562499999
 20
9.4991617838541664
 30
0.0
 10
-1.6398654513888888
 20
9.3586018880208321
 30
0.0
 10
-0.7251925998263888
 20
9.24629177517361
 30
0.0
 10
0.2850816514756944
 20
8.4194688585069439
 30
0.0
 10
0.2063612196180555
 20
7.126869032118055
 30
0.0
  0
SPLINE
  5
52
100
AcDbEntity
  8
LIVELLO_1
 62
     7
100
AcDbSpline
210
0.0
220
0.0
230
1.0
 70
     8
 71
     3
 72
    20
 73
    16
 74
     0
 42
0.00000001
 43
0.00000001
 40
0.0
 40
0.0
 40
0.0
 40
0.0
 40
1.0
 40
1.0
 40
1.0
 40
2.0
 40
2.0
 40
2.0
 40
3.0
 40
3.0
 40
3.0
 40
4.0
 40
4.0
 40
4.0
 40
5.0
 40
5.0
 40
5.0
 40
5.0
 10
-15.590262858072915
 20
-3.0075683593749996
 30
0.0
 10
-13.606749131944444
 20
-4.1551296657986105
 30
0.0
 10
-11.429104275173611
 20
-5.628252495659722
 30
0.0
 10
-11.620307074652777
 20
-8.712646484375
 30
0.0
 10
-11.675084092881944
 20
-9.607337782118055
 30
0.0
 10
-12.385979546440971
 20
-9.6180175781249986
 30
0.0
 10
-12.844177246093748
 20
-10.165787760416666
 30
0.0
 10
-12.844177246093748
 20
-10.165787760416666
 30
0.0
 10
-16.854268391927082
 20
-9.6690049913194436
 30
0.0
 10
-16.854268391927082
 20
-9.6690049913194436
 30
0.0
 10
-16.851167805989583
 20
-8.4659776475694439
 30
0.0
 10
-17.019977484809026
 20
-7.74250759548611
 30
0.0
 10
-16.943668619791666
 20
-6.5487820095486109
 30
0.0
 10
-16.847205946180555
 20
-4.957147894965277
 30
0.0
 10
-16.165593804253472
 20
-4.2416015624999996
 30
0.0
 10
-15.590262858072915
 20
-3.0075683593749996
 30
0.0
  0
SPLINE
  5
51
100
AcDbEntity
  8
LIVELLO_1
 62
     7
100
AcDbSpline
210
0.0
220
0.0
230
1.0
 70
     8
 71
     3
 72
    23
 73
    19
 74
     0
 42
0.00000001
 43
0.00000001
 40
0.0
 40
0.0
 40
0.0
 40
0.0
 40
1.0
 40
1.0
 40
1.0
 40
2.0
 40
2.0
 40
2.0
 40
3.0
 40
3.0
 40
3.0
 40
4.0
 40
4.0
 40
4.0
 40
5.0
 40
5.0
 40
5.0
 40
6.0
 40
6.0
 40
6.0
 40
6.0
 10
11.394481065538194
 20
-8.6172173394097218
 30
0.0
 10
12.529640028211805
 20
-9.7630560980902761
 30
0.0
 10
12.940639919704861
 20
-11.114222547743054
 30
0.0
 10
13.394014485677083
 20
-12.977330186631944
 30
0.0
 10
13.394014485677083
 20
-12.977330186631944
 30
0.0
 10
13.014709472656248
 20
-14.532101779513887
 30
0.0
 10
13.014709472656248
 20
-14.532101779513887
 30
0.0
 10
12.522060818142361
 20
-14.471812608506943
 30
0.0
 10
12.167905002170137
 20
-14.430126953124999
 30
0.0
 10
11.67525634765625
 20
-14.36845974392361
 30
0.0
 10
10.131164550781248
 20
-14.175878906249999
 30
0.0
 10
8.909705946180555
 20
-12.118123372395832
 30
0.0
 10
9.0463039822048597
 20
-9.9311767578124996
 30
0.0
 10
9.1071099175347214
 20
-8.9348551432291661
 30
0.0
 10
9.8228285047743054
 20
-8.8222005208333325
 30
0.0
 10
10.293084038628471
 20
-8.0804714626736107
 30
0.0
 10
10.293084038628471
 20
-8.0804714626736107
 30
0.0
 10
11.394481065538194
 20
-8.6172173394097218
 30
0.0
 10
11.394481065538194
 20
-8.6172173394097218
 30
0.0
  0
SPLINE
  5
50
100
AcDbEntity
  8
LIVELLO_1
 62
     7
100
AcDbSpline
210
0.0
220
0.0
230
1.0
 70
     8
 71
     3
 72
    17
 73
    13
 74
     0
 42
0.00000001
 43
0.00000001
 40
0.0
 40
0.0
 40
0.0
 40
0.0
 40
1.0
 40
1.0
 40
1.0
 40
2.0
 40
2.0
 40
2.0
 40
3.0
 40
3.0
 40
3.0
 40
4.0
 40
4.0
 40
4.0
 40
4.0
 10
17.238396538628471
 20
-11.684730360243055
 30
0.0
 10
15.831075032552082
 20
-11.510753038194443
 30
0.0
 10
14.567069498697915
 20
-11.794284396701388
 30
0.0
 10
13.890108235677083
 20
-10.107221137152777
 30
0.0
 10
13.890108235677083
 20
-10.107221137152777
 30
0.0
 10
14.399637858072916
 20
-6.8929470486111102
 30
0.0
 10
14.399637858072916
 20
-6.8929470486111102
 30
0.0
 10
15.897220865885416
 20
-6.7771918402777773
 30
0.0
 10
16.592096625434028
 20
-7.3725043402777768
 30
0.0
 10
18.034213595920136
 20
-6.9497911241319441
 30
0.0
 10
18.034213595920136
 20
-6.9497911241319441
 30
0.0
 10
19.276515028211804
 20
-11.937944878472221
 30
0.0
 10
17.238396538628471
 20
-11.684730360243055
 30
0.0
  0
SPLINE
  5
4F
100
AcDbEntity
  8
LIVELLO_1
 62
     7
100
AcDbSpline
210
0.0
220
0.0
230
1.0
 70
     8
 71
     3
 72
    14
 73
    10
 74
     0
 42
0.00000001
 43
0.00000001
 40
0.0
 40
0.0
 40
0.0
 40
0.0
 40
1.0
 40
1.0
 40
1.0
 40
2.0
 40
2.0
 40
2.0
 40
3.0
 40
3.0
 40
3.0
 40
3.0
 10
12.883451334635415
 20
0.4764567057291666
 30
0.0
 10
12.381500922309026
 20
0.3376193576388888
 30
0.0
 10
11.992894151475694
 20
-0.2160074869791666
 30
0.0
 10
11.427553982204859
 20
-0.1450385199652778
 30
0.0
 10
9.9509860568576372
 20
0.0368625217013889
 30
0.0
 10
9.3570515950520825
 20
1.9168511284722221
 30
0.0
 10
8.838736979166665
 20
3.8850341796874996
 30
0.0
 10
10.630358886718749
 20
4.1640869140624996
 30
0.0
 10
12.106926812065971
 20
2.7791585286458331
 30
0.0
 10
12.883451334635415
 20
0.4764567057291666
 30
0.0
  0
SPLINE
  5
4E
100
AcDbEntity
  8
LIVELLO_1
 62
     7
100
AcDbSpline
210
0.0
220
0.0
230
1.0
 70
     8
 71
     3
 72
    23
 73
    19
 74
     0
 42
0.00000001
 43
0.00000001
 40
0.0
 40
0.0
 40
0.0
 40
0.0
 40
1.0
 40
1.0
 40
1.0
 40
2.0
 40
2.0
 40
2.0
 40
3.0
 40
3.0
 40
3.0
 40
4.0
 40
4.0
 40
4.0
 40
5.0
 40
5.0
 40
5.0
 40
6.0
 40
6.0
 40
6.0
 40
6.0
 10
12.101759168836804
 20
8.4504747178819439
 30
0.0
 10
12.053183322482639
 20
7.6543131510416655
 30
0.0
 10
12.898265245225693
 20
7.5495822482638886
 30
0.0
 10
12.847277832031249
 20
6.7537651909722216
 30
0.0
 10
12.711541069878471
 20
4.5668185763888882
 30
0.0
 10
10.369565158420137
 20
5.6585693359374991
 30
0.0
 10
8.8327080620659721
 20
6.0475206163194439
 30
0.0
 10
8.73469509548611
 20
6.7613444010416659
 30
0.0
 10
8.3445380316840279
 20
7.312215169270833
 30
0.0
 10
8.3938028971354157
 20
8.1080322265625
 30
0.0
 10
8.4439290364583321
 20
8.9038492838541661
 30
0.0
 10
8.8959255642361104
 20
9.3496446397569439
 30
0.0
 10
9.0809271918402761
 20
10.024883355034721
 30
0.0
 10
9.0809271918402761
 20
10.024883355034721
 30
0.0
 10
11.611177571614583
 20
9.7134467230902768
 30
0.0
 10
11.611177571614583
 20
9.7134467230902768
 30
0.0
 10
11.611177571614583
 20
9.7134467230902768
 30
0.0
 10
12.101759168836804
 20
8.4504747178819439
 30
0.0
 10
12.101759168836804
 20
8.4504747178819439
 30
0.0
  0
SPLINE
  5
4D
100
AcDbEntity
  8
LIVELLO_1
 62
     7
100
AcDbSpline
210
0.0
220
0.0
230
1.0
 70
     8
 71
     3
 72
    17
 73
    13
 74
     0
 42
0.00000001
 43
0.00000001
 40
0.0
 40
0.0
 40
0.0
 40
0.0
 40
1.0
 40
1.0
 40
1.0
 40
2.0
 40
2.0
 40
2.0
 40
3.0
 40
3.0
 40
3.0
 40
4.0
 40
4.0
 40
4.0
 40
4.0
 10
12.291239420572916
 20
15.688620334201387
 30
0.0
 10
12.291239420572916
 20
15.688620334201387
 30
0.0
 10
13.20453423394097
 20
15.577343749999999
 30
0.0
 10
13.20453423394097
 20
15.577343749999999
 30
0.0
 10
13.20453423394097
 20
15.577343749999999
 30
0.0
 10
12.725665961371528
 20
12.429560004340276
 30
0.0
 10
12.725665961371528
 20
12.429560004340276
 30
0.0
 10
12.131731499565971
 20
13.103420681423611
 30
0.0
 10
11.305942111545138
 20
13.504429796006944
 30
0.0
 10
11.370709906684027
 20
14.602726236979166
 30
0.0
 10
11.413773600260416
 20
15.198038736979166
 30
0.0
 10
12.11932915581597
 20
15.211819118923609
 30
0.0
 10
12.291239420572916
 20
15.688620334201387
 30
0.0
  0
SPLINE
  5
4C
100
AcDbEntity
  8
LIVELLO_1
 62
     7
100
AcDbSpline
210
0.0
220
0.0
230
1.0
 70
     8
 71
     3
 72
    17
 73
    13
 74
     0
 42
0.00000001
 43
0.00000001
 40
0.0
 40
0.0
 40
0.0
 40
0.0
 40
1.0
 40
1.0
 40
1.0
 40
2.0
 40
2.0
 40
2.0
 40
3.0
 40
3.0
 40
3.0
 40
4.0
 40
4.0
 40
4.0
 40
4.0
 10
10.769196234809026
 20
-1.8400254991319442
 30
0.0
 10
9.8359198676215271
 20
-2.0267496744791664
 30
0.0
 10
8.7393459743923607
 20
-2.5927788628472221
 30
0.0
 10
8.6528740776909707
 20
-3.9839084201388886
 30
0.0
 10
8.5781155056423604
 20
-5.1776340060763886
 30
0.0
 10
8.7632893880208318
 20
-6.8033745659722218
 30
0.0
 10
9.6085435655381932
 20
-6.9081054687499996
 30
0.0
 10
11.223948838975694
 20
-7.1086100260416663
 30
0.0
 10
13.083955891927083
 20
-6.8357584635416657
 30
0.0
 10
13.436389160156249
 20
-4.5761203342013888
 30
0.0
 10
13.689603678385415
 20
-2.8039632161458332
 30
0.0
 10
11.860257975260415
 20
-2.5758978949652773
 30
0.0
 10
10.769196234809026
 20
-1.8400254991319442
 30
0.0
  0
SPLINE
  5
4B
100
AcDbEntity
  8
LIVELLO_1
 62
     7
100
AcDbSpline
210
0.0
220
0.0
230
1.0
 70
     8
 71
     3
 72
    23
 73
    19
 74
     0
 42
0.00000001
 43
0.00000001
 40
0.0
 40
0.0
 40
0.0
 40
0.0
 40
1.0
 40
1.0
 40
1.0
 40
2.0
 40
2.0
 40
2.0
 40
3.0
 40
3.0
 40
3.0
 40
4.0
 40
4.0
 40
4.0
 40
5.0
 40
5.0
 40
5.0
 40
6.0
 40
6.0
 40
6.0
 40
6.0
 10
6.9756293402777771
 20
8.0384412977430539
 30
0.0
 10
6.9756293402777771
 20
8.0384412977430539
 30
0.0
 10
7.4383056640624989
 20
6.3789388020833329
 30
0.0
 10
7.4383056640624989
 20
6.3789388020833329
 30
0.0
 10
6.1128051757812498
 20
5.5400580512152775
 30
0.0
 10
5.134053548177083
 20
4.6546685112847221
 30
0.0
 10
3.6573133680555552
 20
4.8396701388888888
 30
0.0
 10
2.953997124565972
 20
4.926142035590277
 30
0.0
 10
1.9376939561631943
 20
3.6876302083333332
 30
0.0
 10
1.3184380425347222
 20
4.062456597222222
 30
0.0
 10
1.3184380425347222
 20
4.062456597222222
 30
0.0
 10
2.1412990993923611
 20
7.834836154513888
 30
0.0
 10
2.1412990993923611
 20
7.834836154513888
 30
0.0
 10
3.341225857204861
 20
8.8883463541666661
 30
0.0
 10
4.4925767686631941
 20
9.1460394965277771
 30
0.0
 10
5.9222913953993048
 20
9.3696261935763872
 30
0.0
 10
5.9222913953993048
 20
9.3696261935763872
 30
0.0
 10
6.9756293402777771
 20
8.0384412977430539
 30
0.0
 10
6.9756293402777771
 20
8.0384412977430539
 30
0.0
  0
SPLINE
  5
4A
100
AcDbEntity
  8
LIVELLO_1
 62
     7
100
AcDbSpline
210
0.0
220
0.0
230
1.0
 70
     8
 71
     3
 72
    23
 73
    19
 74
     0
 42
0.00000001
 43
0.00000001
 40
0.0
 40
0.0
 40
0.0
 40
0.0
 40
1.0
 40
1.0
 40
1.0
 40
2.0
 40
2.0
 40
2.0
 40
3.0
 40
3.0
 40
3.0
 40
4.0
 40
4.0
 40
4.0
 40
5.0
 40
5.0
 40
5.0
 40
6.0
 40
6.0
 40
6.0
 40
6.0
 10
-8.5734646267361097
 20
-1.473122829861111
 30
0.0
 10
-8.5734646267361097
 20
-1.473122829861111
 30
0.0
 10
-8.4137844509548607
 20
-3.4950493706597219
 30
0.0
 10
-8.4137844509548607
 20
-3.4950493706597219
 30
0.0
 10
-9.2874606662326382
 20
-3.886756727430555
 30
0.0
 10
-9.869681803385415
 20
-4.1182671440972216
 30
0.0
 10
-10.7373291015625
 20
-4.4097222222222214
 30
0.0
 10
-10.7373291015625
 20
-4.4097222222222214
 30
0.0
 10
-11.839242892795138
 20
-3.871253797743055
 30
0.0
 10
-11.839242892795138
 20
-3.871253797743055
 30
0.0
 10
-11.839242892795138
 20
-3.871253797743055
 30
0.0
 10
-12.303469509548609
 20
-2.211751302083333
 30
0.0
 10
-12.303469509548609
 20
-2.211751302083333
 30
0.0
 10
-12.303469509548609
 20
-2.211751302083333
 30
0.0
 10
-10.825179036458332
 20
-1.1923475477430554
 30
0.0
 10
-10.825179036458332
 20
-1.1923475477430554
 30
0.0
 10
-10.825179036458332
 20
-1.1923475477430554
 30
0.0
 10
-9.8920749240451382
 20
-1.0087239583333332
 30
0.0
 10
-8.5734646267361097
 20
-1.473122829861111
 30
0.0
  0
SPLINE
  5
49
100
AcDbEntity
  8
LIVELLO_1
 62
     7
100
AcDbSpline
210
0.0
220
0.0
230
1.0
 70
     8
 71
     3
 72
    20
 73
    16
 74
     0
 42
0.00000001
 43
0.00000001
 40
0.0
 40
0.0
 40
0.0
 40
0.0
 40
1.0
 40
1.0
 40
1.0
 40
2.0
 40
2.0
 40
2.0
 40
3.0
 40
3.0
 40
3.0
 40
4.0
 40
4.0
 40
4.0
 40
5.0
 40
5.0
 40
5.0
 40
5.0
 10
-3.398069932725694
 20
0.4578531901041666
 30
0.0
 10
-3.405821397569444
 20
-0.8454264322916666
 30
0.0
 10
-3.2445909288194441
 20
-1.6674262152777777
 30
0.0
 10
-3.0378851996527776
 20
-2.8952582465277774
 30
0.0
 10
-4.1353203667534721
 20
-3.4612874348958331
 30
0.0
 10
-4.6126383463541663
 20
-4.304646809895833
 30
0.0
 10
-5.740045844184027
 20
-4.1644314236111111
 30
0.0
 10
-6.2297661675347218
 20
-4.1027642144097216
 30
0.0
 10
-6.5815104166666663
 20
-4.0597005208333332
 30
0.0
 10
-7.0743313259548604
 20
-3.9980333116319442
 30
0.0
 10
-7.1027533637152773
 20
-3.2945448133680553
 30
0.0
 10
-7.8670477973090271
 20
-3.0988633897569442
 30
0.0
 10
-7.82002224392361
 20
-2.3027018229166663
 30
0.0
 10
-7.6525906032986102
 20
0.3855061848958333
 30
0.0
 10
-5.2697903103298609
 20
1.0903727213541665
 30
0.0
 10
-3.398069932725694
 20
0.4578531901041666
 30
0.0
  0
SPLINE
  5
48
100
AcDbEntity
  8
LIVELLO_1
 62
     7
100
AcDbSpline
210
0.0
220
0.0
230
1.0
 70
     8
 71
     3
 72
    20
 73
    16
 74
     0
 42
0.00000001
 43
0.00000001
 40
0.0
 40
0.0
 40
0.0
 40
0.0
 40
1.0
 40
1.0
 40
1.0
 40
2.0
 40
2.0
 40
2.0
 40
3.0
 40
3.0
 40
3.0
 40
4.0
 40
4.0
 40
4.0
 40
5.0
 40
5.0
 40
5.0
 40
5.0
 10
-7.4613878038194441
 20
-6.4209689670138879
 30
0.0
 10
-7.4613878038194441
 20
-6.4209689670138879
 30
0.0
 10
-3.7959784613715275
 20
-6.7727132161458323
 30
0.0
 10
-3.7959784613715275
 20
-6.7727132161458323
 30
0.0
 10
-3.8700480143229163
 20
-7.964716254340277
 30
0.0
 10
-3.9077718098958329
 20
-8.5631293402777775
 30
0.0
 10
-3.9818413628472218
 20
-9.7585774739583329
 30
0.0
 10
-4.2841484917534718
 20
-14.633732096354166
 30
0.0
 10
-8.7345228407118043
 20
-14.382584635416665
 30
0.0
 10
-12.205628797743055
 20
-14.353301323784722
 30
0.0
 10
-11.997372775607637
 20
-10.970906575520832
 30
0.0
 10
-10.690992567274305
 20
-8.2237874348958329
 30
0.0
 10
-8.3776109483506929
 20
-7.5082411024305546
 30
0.0
 10
-8.3776109483506929
 20
-7.5082411024305546
 30
0.0
 10
-7.4613878038194441
 20
-6.4209689670138879
 30
0.0
 10
-7.4613878038194441
 20
-6.4209689670138879
 30
0.0
  0
POLYLINE
  5
41
100
AcDbEntity
  8
LIVELLO_1
 62
     7
100
AcDb2dPolyline
 66
     1
 10
0.0
 20
0.0
 30
0.0
 70
     1
  0
VERTEX
  5
42
100
AcDbEntity
  8
LIVELLO_1
 62
     7
100
AcDbVertex
100
AcDb2dVertex
 10
-1.51343
 20
-1.942
 30
0.0
  0
VERTEX
  5
43
100
AcDbEntity
  8
LIVELLO_1
 62
     7
100
AcDbVertex
100
AcDb2dVertex
 10
-0.438388
 20
-2.878033
 30
0.0
  0
VERTEX
  5
44
100
AcDbEntity
  8
LIVELLO_1
 62
     7
100
AcDbVertex
100
AcDb2dVertex
 10
-0.254765
 20
-4.506874
 30
0.0
  0
VERTEX
  5
45
100
AcDbEntity
  8
LIVELLO_1
 62
     7
100
AcDbVertex
100
AcDb2dVertex
 10
-1.709284
 20
-5.126991
 30
0.0
  0
VERTEX
  5
46
100
AcDbEntity
  8
LIVELLO_1
 62
     7
100
AcDbVertex
100
AcDb2dVertex
 10
-2.150256
 20
-3.066135
 30
0.0
  0
SEQEND
  5
47
100
AcDbEntity
  8
LIVELLO_1
 62
     7
  0
SPLINE
  5
40
100
AcDbEntity
  8
LIVELLO_1
 62
     7
100
AcDbSpline
210
0.0
220
0.0
230
1.0
 70
     8
 71
     3
 72
    23
 73
    19
 74
     0
 42
0.00000001
 43
0.00000001
 40
0.0
 40
0.0
 40
0.0
 40
0.0
 40
1.0
 40
1.0
 40
1.0
 40
2.0
 40
2.0
 40
2.0
 40
3.0
 40
3.0
 40
3.0
 40
4.0
 40
4.0
 40
4.0
 40
5.0
 40
5.0
 40
5.0
 40
6.0
 40
6.0
 40
6.0
 40
6.0
 10
7.5979858398437496
 20
1.2230088975694444
 30
0.0
 10
7.5979858398437496
 20
1.2230088975694444
 30
0.0
 10
8.3445380316840279
 20
-0.4737006293402777
 30
0.0
 10
8.3445380316840279
 20
-0.4737006293402777
 30
0.0
 10
7.3967922634548602
 20
-0.8578287760416666
 30
0.0
 10
6.8615966796874996
 20
-1.4917263454861109
 30
0.0
 10
5.8775051540798602
 20
-1.3697699652777777
 30
0.0
 10
4.8920355902777777
 20
-1.2495361328124999
 30
0.0
 10
4.3992146809895827
 20
-1.1878689236111111
 30
0.0
 10
3.4151231553819441
 20
-1.0690131293402776
 30
0.0
 10
3.3997924804687498
 20
-0.1619194878472222
 30
0.0
 10
3.2192694769965273
 20
0.3607014973958333
 30
0.0
 10
3.2749077690972221
 20
1.2567708333333332
 30
0.0
 10
3.4151231553819441
 20
3.5443142361111106
 30
0.0
 10
5.5605563693576388
 20
3.7816813151041662
 30
0.0
 10
7.1645928276909716
 20
3.3820502387152773
 30
0.0
 10
7.1645928276909716
 20
3.3820502387152773
 30
0.0
 10
7.5979858398437496
 20
1.2230088975694444
 30
0.0
 10
7.5979858398437496
 20
1.2230088975694444
 30
0.0
  0
SPLINE
  5
3F
100
AcDbEntity
  8
LIVELLO_1
 62
     7
100
AcDbSpline
210
0.0
220
0.0
230
1.0
 70
     8
 71
     3
 72
    26
 73
    22
 74
     0
 42
0.00000001
 43
0.00000001
 40
0.0
 40
0.0
 40
0.0
 40
0.0
 40
1.0
 40
1.0
 40
1.0
 40
2.0
 40
2.0
 40
2.0
 40
3.0
 40
3.0
 40
3.0
 40
4.0
 40
4.0
 40
4.0
 40
5.0
 40
5.0
 40
5.0
 40
6.0
 40
6.0
 40
6.0
 40
7.0
 40
7.0
 40
7.0
 40
7.0
 10
0.3798217773437499
 20
0.9298312717013888
 30
0.0
 10
0.3798217773437499
 20
0.9298312717013888
 30
0.0
 10
1.7633721245659721
 20
0.3593234592013889
 30
0.0
 10
1.7633721245659721
 20
0.3593234592013889
 30
0.0
 10
1.7633721245659721
 20
0.3593234592013889
 30
0.0
 10
1.9452731662326388
 20
-1.2677951388888888
 30
0.0
 10
1.9452731662326388
 20
-1.2677951388888888
 30
0.0
 10
1.2359280056423609
 20
-1.2801974826388887
 30
0.0
 10
0.7954725477430555
 20
-1.5272108289930555
 30
0.0
 10
0.0906060112847222
 20
-1.4376383463541664
 30
0.0
 10
-0.6828179253472222
 20
-1.3449652777777776
 30
0.0
 10
-0.824755859375
 20
-0.2239312065972222
 30
0.0
 10
-1.3575398763020832
 20
0.3438205295138889
 30
0.0
 10
-1.3575398763020832
 20
0.3438205295138889
 30
0.0
 10
-1.2550482855902776
 20
2.0357069227430555
 30
0.0
 10
-1.2550482855902776
 20
2.0357069227430555
 30
0.0
 10
-1.2550482855902776
 20
2.0357069227430555
 30
0.0
 10
-0.0797539605034722
 20
2.6913085937499996
 30
0.0
 10
-0.0797539605034722
 20
2.6913085937499996
 30
0.0
 10
-0.0797539605034722
 20
2.6913085937499996
 30
0.0
 10
0.3798217773437499
 20
0.9298312717013888
 30
0.0
 10
0.3798217773437499
 20
0.9298312717013888
 30
0.0
  0
SPLINE
  5
3E
100
AcDbEntity
  8
LIVELLO_1
 62
     7
100
AcDbSpline
210
0.0
220
0.0
230
1.0
 70
     8
 71
     3
 72
    17
 73
    13
 74
     0
 42
0.00000001
 43
0.00000001
 40
0.0
 40
0.0
 40
0.0
 40
0.0
 40
1.0
 40
1.0
 40
1.0
 40
2.0
 40
2.0
 40
2.0
 40
3.0
 40
3.0
 40
3.0
 40
4.0
 40
4.0
 40
4.0
 40
4.0
 10
4.7924723307291659
 20
-11.945524088541665
 30
0.0
 10
3.6635145399305551
 20
-13.009714084201388
 30
0.0
 10
2.9085218641493054
 20
-13.717681206597222
 30
0.0
 10
1.5759589301215275
 20
-13.552661132812499
 30
0.0
 10
-0.1114488389756944
 20
-13.344577365451388
 30
0.0
 10
-1.3985365125868054
 20
-11.178990342881944
 30
0.0
 10
-1.2495361328124999
 20
-8.7929172092013879
 30
0.0
 10
-1.1077704535590276
 20
-6.5026177300347214
 30
0.0
 10
1.232827419704861
 20
-4.1875135633680554
 30
0.0
 10
2.349382866753472
 20
-5.628252495659722
 30
0.0
 10
3.7189805772569442
 20
-7.5020399305555552
 30
0.0
 10
3.8779717339409721
 20
-9.5270670572916654
 30
0.0
 10
4.7924723307291659
 20
-11.945524088541665
 30
0.0
  0
LINE
  5
3D
100
AcDbEntity
  8
LIVELLO_1
 62
     7
100
AcDbLine
 10
1.220425
 20
-5.490793
 30
0.0
 11
2.349383
 21
-5.628252
 31
0.0
  0
SPLINE
  5
3C
100
AcDbEntity
  8
LIVELLO_1
 62
     7
100
AcDbSpline
210
0.0
220
0.0
230
1.0
 70
     8
 71
     3
 72
    14
 73
    10
 74
     0
 42
0.00000001
 43
0.00000001
 40
0.0
 40
0.0
 40
0.0
 40
0.0
 40
1.0
 40
1.0
 40
1.0
 40
2.0
 40
2.0
 40
2.0
 40
3.0
 40
3.0
 40
3.0
 40
3.0
 10
8.3021633572048597
 20
-8.708167860243055
 30
0.0
 10
7.878761121961805
 20
-8.6589029947916654
 30
0.0
 10
7.6450113932291659
 20
-9.0306287977430539
 30
0.0
 10
7.2231594509548609
 20
-8.9779188368055554
 30
0.0
 10
4.9004760742187496
 20
-8.6895643446180539
 30
0.0
 10
3.6650648328993052
 20
-5.7285047743055548
 30
0.0
 10
3.2986789279513884
 20
-2.4770236545138888
 30
0.0
 10
5.9284925672743052
 20
-2.3998535156249998
 30
0.0
 10
7.679806857638888
 20
-5.023638237847222
 30
0.0
 10
8.3021633572048597
 20
-8.708167860243055
 30
0.0
  0
SPLINE
  5
3B
100
AcDbEntity
  8
LIVELLO_1
 62
     7
100
AcDbSpline
210
0.0
220
0.0
230
1.0
 70
     8
 71
     3
 72
    20
 73
    16
 74
     0
 42
0.00000001
 43
0.00000001
 40
0.0
 40
0.0
 40
0.0
 40
0.0
 40
1.0
 40
1.0
 40
1.0
 40
2.0
 40
2.0
 40
2.0
 40
3.0
 40
3.0
 40
3.0
 40
4.0
 40
4.0
 40
4.0
 40
5.0
 40
5.0
 40
5.0
 40
5.0
 10
-33.561603461371526
 20
5.2654839409722216
 30
0.0
 10
-34.672129991319444
 20
4.7997070312499996
 30
0.0
 10
-35.823480902777774
 20
3.9280978732638885
 30
0.0
 10
-35.823480902777774
 20
2.2424126519097221
 30
0.0
 10
-35.823480902777774
 20
1.5451253255208333
 30
0.0
 10
-35.32755940755208
 20
0.9639377170138888
 30
0.0
 10
-34.837839084201384
 20
0.9639377170138888
 30
0.0
 10
-33.27462700737847
 20
0.9639377170138888
 30
0.0
 10
-31.632177734374999
 20
2.1252794053819444
 30
0.0
 10
-31.632177734374999
 20
4.337030707465277
 30
0.0
 10
-31.632177734374999
 20
5.9038601345486104
 30
0.0
 10
-33.068782552083327
 20
6.135370551215277
 30
0.0
 10
-34.179309082031246
 20
6.135370551215277
 30
0.0
 10
-34.179309082031246
 20
6.135370551215277
 30
0.0
 10
-33.561603461371526
 20
5.2654839409722216
 30
0.0
 10
-33.561603461371526
 20
5.2654839409722216
 30
0.0
  0
SPLINE
  5
3A
100
AcDbEntity
  8
LIVELLO_1
 62
     7
100
AcDbSpline
210
0.0
220
0.0
230
1.0
 70
     8
 71
     3
 72
    20
 73
    16
 74
     0
 42
0.00000001
 43
0.00000001
 40
0.0
 40
0.0
 40
0.0
 40
0.0
 40
1.0
 40
1.0
 40
1.0
 40
2.0
 40
2.0
 40
2.0
 40
3.0
 40
3.0
 40
3.0
 40
4.0
 40
4.0
 40
4.0
 40
5.0
 40
5.0
 40
5.0
 40
5.0
 10
-34.055974663628469
 20
-6.7634114583333327
 30
0.0
 10
-35.123954264322911
 20
-7.4603542751736107
 30
0.0
 10
-36.480460611979161
 20
-7.6932427300347213
 30
0.0
 10
-36.480460611979161
 20
-9.3775499131944429
 30
0.0
 10
-36.480460611979161
 20
-11.178990342881944
 30
0.0
 10
-35.166328938802081
 20
-12.226299370659721
 30
0.0
 10
-33.890093315972216
 20
-12.226299370659721
 30
0.0
 10
-32.862076822916663
 20
-12.226299370659721
 30
0.0
 10
-32.289157443576386
 20
-10.599180772569444
 30
0.0
 10
-32.289157443576386
 20
-9.1460394965277771
 30
0.0
 10
-32.289157443576386
 20
-8.1004530164930539
 30
0.0
 10
-32.862076822916663
 20
-7.5189208984374991
 30
0.0
 10
-33.438958062065971
 20
-6.9377332899305548
 30
0.0
 10
-33.438958062065971
 20
-6.9377332899305548
 30
0.0
 10
-34.055974663628469
 20
-6.7634114583333327
 30
0.0
 10
-34.055974663628469
 20
-6.7634114583333327
 30
0.0
  0
POLYLINE
  5
34
100
AcDbEntity
  8
LIVELLO_1
 62
     7
100
AcDb2dPolyline
 66
     1
 10
0.0
 20
0.0
 30
0.0
 70
     1
  0
VERTEX
  5
35
100
AcDbEntity
  8
LIVELLO_1
 62
     7
100
AcDbVertex
100
AcDb2dVertex
 10
-33.277728
 20
15.397165
 30
0.0
  0
VERTEX
  5
36
100
AcDbEntity
  8
LIVELLO_1
 62
     7
100
AcDbVertex
100
AcDb2dVertex
 10
31.193445
 20
15.397165
 30
0.0
  0
VERTEX
  5
37
100
AcDbEntity
  8
LIVELLO_1
 62
     7
100
AcDbVertex
100
AcDb2dVertex
 10
31.193445
 20
-11.546238
 30
0.0
  0
VERTEX
  5
38
100
AcDbEntity
  8
LIVELLO_1
 62
     7
100
AcDbVertex
100
AcDb2dVertex
 10
-33.277728
 20
-11.546238
 30
0.0
  0
SEQEND
  5
39
100
AcDbEntity
  8
LIVELLO_1
 62
     7
  0
ENDBLK
  5
A8
100
AcDbEntity
  8
LIVELLO_1
100
AcDbBlockEnd
  0
BLOCK
  5
151
100
AcDbEntity
  8
LIVELLO_1
 62
     7
100
AcDbBlockBegin
  2
AI9-BLK3
 70
     0
 10
0.0
 20
0.0
 30
0.0
  3
AI9-BLK3
  1

  0
INSERT
  5
153
100
AcDbEntity
  8
LIVELLO_1
 62
     7
100
AcDbBlockReference
  2
AI9-BLK4
 10
0.016536
 20
0.006201
 30
0.0
  0
ENDBLK
  5
156
100
AcDbEntity
  8
LIVELLO_1
100
AcDbBlockEnd
  0
BLOCK
  5
154
100
AcDbEntity
  8
LIVELLO_1
 62
     7
100
AcDbBlockBegin
  2
AI9-BLK4
 70
     0
 10
0.0
 20
0.0
 30
0.0
  3
AI9-BLK4
  1

  0
ENDBLK
  5
155
100
AcDbEntity
  8
LIVELLO_1
100
AcDbBlockEnd
  0
ENDSEC
  0
SECTION
  2
ENTITIES
  0
INSERT
  5
2A
100
AcDbEntity
  8
LIVELLO_1
 62
     7
100
AcDbBlockReference
  2
AI9-BLK1
 10
85.98054
 20
148.418934
 30
0.0
  0
ENDSEC
  0
SECTION
  2
OBJECTS
  0
DICTIONARY
  5
19
100
AcDbDictionary
280
     0
281
     1
  3
ACAD_GROUP
350
1A
  3
ACAD_MLINESTYLE
350
1B
  3
ACAD_LAYOUT
350
1E
  3
ACAD_PLOTSETTINGS
350
22
  3
ACAD_PLOTSTYLENAME
350
1F
  3
ACAD_WIPEOUT_VARS
350
23
  0
DICTIONARY
  5
1A
102
{ACAD_REACTORS
330
19
102
}
100
AcDbDictionary
280
     0
281
     1
  0
DICTIONARY
  5
1B
102
{ACAD_REACTORS
330
19
102
}
100
AcDbDictionary
280
     0
281
     1
  3
Standard
350
1C
  0
MLINESTYLE
  5
1C
102
{ACAD_REACTORS
330
1B
102
}
100
AcDbMlineStyle
  2
Standard
 70
     0
  3

 62
     0
 51
90.0
 52
90.0
 71
     2
 49
0.5
 62
   256
  6
ByLayer
 49
-0.5
 62
   256
  6
ByLayer
  0
ACDBDICTIONARYWDFLT
  5
1F
102
{ACAD_REACTORS
330
19
102
}
100
AcDbDictionary
281
     1
  3
Normal
350
1D
100
AcDbDictionaryWithDefault
340
1D
  0
ACDBPLACEHOLDER
  5
1D
102
{ACAD_REACTORS
330
1F
102
}
  0
LAYOUT
  5
20
102
{ACAD_REACTORS
330
1E
102
}
100
AcDbPlotSettings
  1

  2

  4

  6

 40
0.0
 41
0.0
 42
0.0
 43
0.0
 44
0.0
 45
0.0
 46
0.0
 47
0.0
 48
0.0
 49
0.0
140
0.0
141
0.0
142
1.0
143
1.0
 70
  1024
 72
     0
 73
     0
 74
     0
  7

 75
     0
147
1.0
148
0.0
149
0.0
100
AcDbLayout
  1
Model
 70
     0
 71
     0
 10
0.0
 20
0.0
 11
0.0
 21
0.0
 12
0.0
 22
0.0
 32
0.0
 14
0.0
 24
0.0
 34
0.0
 15
0.0
 25
0.0
 35
0.0
146
0.0
 13
0.0
 23
0.0
 33
0.0
 16
0.0
 26
0.0
 36
0.0
 17
0.0
 27
0.0
 37
0.0
 76
     0
330
A
331
0
345
0
346
0
  0
LAYOUT
  5
21
102
{ACAD_REACTORS
330
1E
102
}
100
AcDbPlotSettings
  1

  2

  4

  6

 40
0.0
 41
0.0
 42
0.0
 43
0.0
 44
0.0
 45
0.0
 46
0.0
 47
0.0
 48
0.0
 49
0.0
140
0.0
141
0.0
142
1.0
143
1.0
 70
     0
 72
     0
 73
     0
 74
     0
  7

 75
     0
147
1.0
148
0.0
149
0.0
100
AcDbLayout
  1
Layout1
 70
     0
 71
     0
 10
0.0
 20
0.0
 11
0.0
 21
0.0
 12
0.0
 22
0.0
 32
0.0
 14
0.0
 24
0.0
 34
0.0
 15
0.0
 25
0.0
 35
0.0
146
0.0
 13
0.0
 23
0.0
 33
0.0
 16
0.0
 26
0.0
 36
0.0
 17
0.0
 27
0.0
 37
0.0
 76
     0
330
B
331
0
345
0
346
0
  0
DICTIONARY
  5
1E
102
{ACAD_REACTORS
330
19
102
}
100
AcDbDictionary
280
     0
281
     1
  3
Layout1
350
21
  3
Model
350
20
  0
DICTIONARY
  5
22
102
{ACAD_REACTORS
330
19
102
}
100
AcDbDictionary
280
     0
281
     1
  0
WIPEOUTVARIABLES
  5
23
100
AcDbWipeoutVariables
 70
     1
  0
ENDSEC
  0
EOF
