  0
SECTION
  2
HEADER
  9
$ACADVER
  1
AC1015
  9
$ACADMAINTVER
 70
     6
  9
$DWGCODEPAGE
  3
ANSI_932
  9
$INSBASE
 10
0.0
 20
0.0
 30
0.0
  9
$EXTMIN
 10
27.021262
 20
35.277778
 30
1.000000E+20
  9
$EXTMAX
 10
164.883648
 20
260.5288
 30
-1.000000E+20
  9
$LIMMIN
 10
27.021262
 20
35.277778
  9
$LIMMAX
 10
164.883648
 20
260.5288
  9
$ORTHOMODE
 70
     0
  9
$REGENMODE
 70
     1
  9
$FILLMODE
 70
     1
  9
$QTEXTMODE
 70
     0
  9
$MIRRTEXT
 70
     1
  9
$LTSCALE
 40
1.0
  9
$ATTMODE
 70
     1
  9
$TEXTSIZE
 40
0.2
  9
$TRACEWID
 40
0.05
  9
$TEXTSTYLE
  7
Standard
  9
$CLAYER
  8
0
  9
$CELTYPE
  6
Continuous
  9
$CECOLOR
 62
   256
  9
$CELTSCALE
 40
1.0
  9
$DISPSILH
 70
     0
  9
$DIMSCALE
 40
1.0
  9
$DIMASZ
 40
0.18
  9
$DIMEXO
 40
0.0625
  9
$DIMDLI
 40
0.38
  9
$DIMRND
 40
0.0
  9
$DIMDLE
 40
0.0
  9
$DIMEXE
 40
0.18
  9
$DIMTP
 40
0.0
  9
$DIMTM
 40
0.0
  9
$DIMTXT
 40
0.18
  9
$DIMCEN
 40
0.09
  9
$DIMTSZ
 40
0.0
  9
$DIMTOL
 70
     0
  9
$DIMLIM
 70
     0
  9
$DIMTIH
 70
     1
  9
$DIMTOH
 70
     1
  9
$DIMSE1
 70
     0
  9
$DIMSE2
 70
     0
  9
$DIMTAD
 70
     0
  9
$DIMZIN
 70
     0
  9
$DIMBLK
  1

  9
$DIMASO
 70
     1
  9
$DIMSHO
 70
     1
  9
$DIMPOST
  1

  9
$DIMAPOST
  1

  9
$DIMALT
 70
     0
  9
$DIMALTD
 70
     2
  9
$DIMALTF
 40
25.4
  9
$DIMLFAC
 40
1.0
  9
$DIMTOFL
 70
     0
  9
$DIMTVP
 40
0.0
  9
$DIMTIX
 70
     0
  9
$DIMSOXD
 70
     0
  9
$DIMSAH
 70
     0
  9
$DIMBLK1
  1

  9
$DIMBLK2
  1

  9
$DIMSTYLE
  2
Standard
  9
$DIMCLRD
 70
     0
  9
$DIMCLRE
 70
     0
  9
$DIMCLRT
 70
     0
  9
$DIMTFAC
 40
1.0
  9
$DIMGAP
 40
0.09
  9
$DIMJUST
 70
     0
  9
$DIMSD1
 70
     0
  9
$DIMSD2
 70
     0
  9
$DIMTOLJ
 70
     1
  9
$DIMTZIN
 70
     0
  9
$DIMALTZ
 70
     0
  9
$DIMALTTZ
 70
     0
  9
$DIMUPT
 70
     0
  9
$DIMDEC
 70
     4
  9
$DIMTDEC
 70
     4
  9
$DIMALTU
 70
     2
  9
$DIMALTTD
 70
     2
  9
$DIMTXSTY
  7
Standard
  9
$DIMAUNIT
 70
     0
  9
$DIMADEC
 70
     0
  9
$DIMALTRND
 40
0.0
  9
$DIMAZIN
 70
     0
  9
$DIMDSEP
 70
     0
  9
$DIMATFIT
 70
     3
  9
$DIMFRAC
 70
     0
  9
$DIMLDRBLK
  1

  9
$DIMLUNIT
 70
     2
  9
$DIMLWD
 70
     0
  9
$DIMLWE
 70
     0
  9
$DIMTMOVE
 70
     0
  9
$LUNITS
 70
     2
  9
$LUPREC
 70
     4
  9
$SKETCHINC
 40
0.1
  9
$FILLETRAD
 40
0.0
  9
$AUNITS
 70
     0
  9
$AUPREC
 70
     0
  9
$MENU
  1
acad
  9
$ELEVATION
 40
0.0
  9
$PELEVATION
 40
0.0
  9
$THICKNESS
 40
0.0
  9
$LIMCHECK
 70
     0
  9
$CHAMFERA
 40
0.0
  9
$CHAMFERB
 40
0.0
  9
$CHAMFERC
 40
0.0
  9
$CHAMFERD
 40
0.0
  9
$SKPOLY
 70
     0
  9
$TDCREATE
 40
0.000000000
  9
$TDUCREATE
 40
0.000000000
  9
$TDUPDATE
 40
0.000000000
  9
$TDUUPDATE
 40
0.000000000
  9
$TDINDWG
 40
0.0000000000
  9
$TDUSRTIMER
 40
0.0000000000
  9
$USRTIMER
 70
     1
  9
$ANGBASE
 50
0.0
  9
$ANGDIR
 70
     0
  9
$PDMODE
 70
     0
  9
$PDSIZE
 40
0.0
  9
$PLINEWID
 40
0.0
  9
$SPLFRAME
 70
     0
  9
$SPLINETYPE
 70
     6
  9
$SPLINESEGS
 70
     8
  9
$HANDSEED
  5
141
  9
$SURFTAB1
 70
     6
  9
$SURFTAB2
 70
     6
  9
$SURFTYPE
 70
     6
  9
$SURFU
 70
     6
  9
$SURFV
 70
     6
  9
$UCSBASE
  2

  9
$UCSNAME
  2

  9
$UCSORG
 10
0.0
 20
0.0
 30
0.0
  9
$UCSXDIR
 10
1.0
 20
0.0
 30
0.0
  9
$UCSYDIR
 10
0.0
 20
1.0
 30
0.0
  9
$UCSORTHOREF
  2

  9
$UCSORTHOVIEW
 70
     0
  9
$UCSORGTOP
 10
0.0
 20
0.0
 30
0.0
  9
$UCSORGBOTTOM
 10
0.0
 20
0.0
 30
0.0
  9
$UCSORGLEFT
 10
0.0
 20
0.0
 30
0.0
  9
$UCSORGRIGHT
 10
0.0
 20
0.0
 30
0.0
  9
$UCSORGFRONT
 10
0.0
 20
0.0
 30
0.0
  9
$UCSORGBACK
 10
0.0
 20
0.0
 30
0.0
  9
$PUCSBASE
  2

  9
$PUCSNAME
  2

  9
$PUCSORG
 10
0.0
 20
0.0
 30
0.0
  9
$PUCSXDIR
 10
1.0
 20
0.0
 30
0.0
  9
$PUCSYDIR
 10
0.0
 20
1.0
 30
0.0
  9
$PUCSORTHOREF
  2

  9
$PUCSORTHOVIEW
 70
     0
  9
$PUCSORGTOP
 10
0.0
 20
0.0
 30
0.0
  9
$PUCSORGBOTTOM
 10
0.0
 20
0.0
 30
0.0
  9
$PUCSORGLEFT
 10
0.0
 20
0.0
 30
0.0
  9
$PUCSORGRIGHT
 10
0.0
 20
0.0
 30
0.0
  9
$PUCSORGFRONT
 10
0.0
 20
0.0
 30
0.0
  9
$PUCSORGBACK
 10
0.0
 20
0.0
 30
0.0
  9
$USERI1
 70
     0
  9
$USERI2
 70
     0
  9
$USERI3
 70
     0
  9
$USERI4
 70
     0
  9
$USERI5
 70
     0
  9
$USERR1
 40
0.0
  9
$USERR2
 40
0.0
  9
$USERR3
 40
0.0
  9
$USERR4
 40
0.0
  9
$USERR5
 40
0.0
  9
$WORLDVIEW
 70
     1
  9
$SHADEDGE
 70
     3
  9
$SHADEDIF
 70
    70
  9
$TILEMODE
 70
     1
  9
$MAXACTVP
 70
    16
  9
$PINSBASE
 10
0.0
 20
0.0
 30
0.0
  9
$PLIMCHECK
 70
     0
  9
$PEXTMIN
 10
1.000000E+20
 20
1.000000E+20
 30
1.000000E+20
  9
$PEXTMAX
 10
-1.000000E+20
 20
-1.000000E+20
 30
-1.000000E+20
  9
$PLIMMIN
 10
0.0
 20
0.0
  9
$PLIMMAX
 10
12.0
 20
9.0
  9
$UNITMODE
 70
     0
  9
$VISRETAIN
 70
     0
  9
$PLINEGEN
 70
     1
  9
$PSLTSCALE
 70
     0
  9
$TREEDEPTH
 70
  3020
  9
$CMLSTYLE
  2
Standard
  9
$CMLJUST
 70
     0
  9
$CMLSCALE
 40
1.0
  9
$PROXYGRAPHICS
 70
     0
  9
$MEASUREMENT
 70
     1
  9
$CELWEIGHT
370
     0
  9
$ENDCAPS
280
     0
  9
$JOINSTYLE
280
     0
  9
$LWDISPLAY
290
     0
  9
$INSUNITS
 70
     0
  9
$HYPERLINKBASE
  1

  9
$STYLESHEET
  1

  9
$XEDIT
290
     1
  9
$CEPSNTYPE
380
     0
  9
$PSTYLEMODE
290
     1
  9
$FINGERPRINTGUID
  2

  9
$VERSIONGUID
  2

  9
$EXTNAMES
290
     1
  9
$PSVPSCALE
 40
0.0
  0
ENDSEC
  0
SECTION
  2
CLASSES
  0
CLASS
  1
LWPOLYLINE
  2
AcDbPolyline
  3
AutoCAD 2000
 90
    32768
280
     0
281
     1
  0
CLASS
  1
IMAGE
  2
AcDbRasterImage
  3
ISM
 90
    32895
280
     0
281
     1
  0
CLASS
  1
OLE2FRAME
  2
AcDbOle2Frame
  3
AutoCAD 2000
 90
    32768
280
     0
281
     1
  0
CLASS
  1
HATCH
  2
AcDbHatch
  3
AutoCAD 2000
 90
        0
280
     0
281
     1
  0
CLASS
  1
DICTIONARYVAR
  2
AcDbDictionaryVar
  3
AutoCAD 2000
 90
    32768
280
     0
281
     0
  0
CLASS
  1
RASTERVARIABLES
  2
AcDbRasterVariables
  3
ISM
 90
    32768
280
     0
281
     0
  0
CLASS
  1
IMAGEDEF
  2
AcDbRasterImageDef
  3
ISM
 90
    32768
280
     0
281
     0
  0
CLASS
  1
IMAGEDEF_REACTOR
  2
AcDbRasterImageDefReactor
  3
ISM
 90
    32769
280
     0
281
     0
  0
CLASS
  1
IDBUFFER
  2
AcDbIdBuffer
  3
AutoCAD 2000
 90
    32768
280
     0
281
     0
  0
CLASS
  1
SPATIAL_FILTER
  2
AcDbSpatialFilter
  3
AutoCAD 2000
 90
    32768
280
     0
281
     0
  0
CLASS
  1
XRECORD
  2
AcDbXrecord
  3
AutoCAD 2000
 90
    32768
280
     0
281
     0
  0
CLASS
  1
SORTENTSTABLE
  2
AcDbSortentsTable
  3
AutoCAD 2000
 90
    32768
280
     0
281
     0
  0
CLASS
  1
LAYER_INDEX
  2
AcDbLayerIndex
  3
AutoCAD 2000
 90
    32768
280
     0
281
     0
  0
CLASS
  1
SPATIAL_INDEX
  2
AcDbSpatialIndex
  3
AutoCAD 2000
 90
    32768
280
     0
281
     0
  0
CLASS
  1
OBJECT_PTR
  2
CAseDLPNTableRecord
  3
"ASE-LPNTableRecord"
 90
    32769
280
     0
281
     0
  0
CLASS
  1
LAYOUT
  2
AcDbLayout
  3
AutoCAD 2000
 90
        0
280
     0
281
     0
  0
CLASS
  1
PLOTSETTINGS
  2
AcDbPlotSettings
  3
AutoCAD 2000
 90
    32768
280
     0
281
     0
  0
CLASS
  1
ACDBDICTIONARYWDFLT
  2
AcDbDictionaryWithDefault
  3
AutoCAD 2000
 90
        0
280
     0
281
     0
  0
CLASS
  1
ACDBPLACEHOLDER
  2
AcDbPlaceHolder
  3
AutoCAD 2000
 90
        0
280
     0
281
     0
  0
CLASS
  1
VBA_PROJECT
  2
AcDbVbaProject
  3
acadvba
 90
    32768
280
     0
281
     0
  0
CLASS
  1
WIPEOUT
  2
AcDbWipeout
  3
WipeOut|AutoCAD Express Tool|expresstools@autodesk.com
 90
    32895
280
     0
281
     1
  0
CLASS
  1
WIPEOUTVARIABLES
  2
AcDbWipeoutVariables
  3
WipeOut|AutoCAD Express Tool|expresstools@autodesk.com
 90
        0
280
     0
281
     0
  0
CLASS
  1
RTEXT
  2
RText
  3
RText|AutoCAD Express Tool|expresstools@autodesk.com
 90
    32768
280
     0
281
     1
  0
CLASS
  1
ARCALIGNEDTEXT
  2
AcDbArcAlignedText
  3
ATEXT|AutoCAD Express Tool|expresstools@autodesk.com
 90
    32768
280
     0
281
     1
  0
ENDSEC
  0
SECTION
  2
TABLES
  0
TABLE
  2
VPORT
  5
7
100
AcDbSymbolTable
 70
     1
  0
VPORT
  5
15
100
AcDbSymbolTableRecord
100
AcDbViewportTableRecord
  2
*ACTIVE
 70
     0
 10
0.0
 20
0.0
 11
1.0
 21
1.0
 12
6.591288
 22
4.579184
 13
0.0
 23
0.0
 14
1.0
 24
1.0
 15
0.0
 25
0.0
 16
0.0
 26
0.0
 36
1.0
 17
0.0
 27
0.0
 37
0.0
 40
9.158369
 41
0.688564
 42
50.0
 43
0.0
 44
0.0
 50
0.0
 51
0.0
 71
     0
 72
   100
 73
     1
 74
     1
 75
     0
 76
     0
 77
     0
 78
     0
281
     0
 65
     0
110
0.0
120
0.0
130
0.0
111
1.0
121
0.0
131
0.0
112
0.0
122
1.0
132
0.0
345
0
346
0
 79
     0
146
0.0
  0
ENDTAB
  0
TABLE
  2
LTYPE
  5
4
100
AcDbSymbolTable
 70
     3
  0
LTYPE
  5
11
100
AcDbSymbolTableRecord
100
AcDbLinetypeTableRecord
  2
ByBlock
 70
    64
  3

 72
    65
 73
     0
 40
0.0
  0
LTYPE
  5
12
100
AcDbSymbolTableRecord
100
AcDbLinetypeTableRecord
  2
ByLayer
 70
    64
  3

 72
    65
 73
     0
 40
0.0
  0
LTYPE
  5
13
100
AcDbSymbolTableRecord
100
AcDbLinetypeTableRecord
  2
Continuous
 70
    64
  3
Solid line
 72
    65
 73
     0
 40
0.0
  0
ENDTAB
  0
TABLE
  2
LAYER
  5
2
100
AcDbSymbolTable
 70
     2
  0
LAYER
  5
14
100
AcDbSymbolTableRecord
100
AcDbLayerTableRecord
  2
0
 70
     0
 62
     7
  6
Continuous
290
     1
370
    -3
390
1D
  0
LAYER
  5
28
100
AcDbSymbolTableRecord
100
AcDbLayerTableRecord
  2
LIVELLO_1
 70
     0
 62
   160
  6
Continuous
290
     1
370
    -3
390
1D
  0
ENDTAB
  0
TABLE
  2
STYLE
  5
3
100
AcDbSymbolTable
 70
     5
  0
STYLE
  5
17
100
AcDbSymbolTableRecord
100
AcDbTextStyleTableRecord
  2
Standard
 70
     0
 40
0.0
 41
1.0
 50
0.0
 71
     0
 42
0.0
  3
txt
  4

  0
STYLE
  5
24
100
AcDbSymbolTableRecord
100
AcDbTextStyleTableRecord
  2
STD
 70
     0
 40
0.0
 41
1.0
 50
0.0
 71
     0
 42
0.0
  3
txt
  4

  0
STYLE
  5
25
100
AcDbSymbolTableRecord
100
AcDbTextStyleTableRecord
  2
TATESTD
 70
     4
 40
0.0
 41
1.0
 50
0.0
 71
     0
 42
0.0
  3
txt
  4

  0
STYLE
  5
26
100
AcDbSymbolTableRecord
100
AcDbTextStyleTableRecord
  2
KANJISTD
 70
     0
 40
0.0
 41
1.0
 50
0.0
 71
     0
 42
0.0
  3
txt
  4
extfont
  0
STYLE
  5
27
100
AcDbSymbolTableRecord
100
AcDbTextStyleTableRecord
  2
KANJITATE
 70
     4
 40
0.0
 41
1.0
 50
0.0
 71
     0
 42
0.0
  3
txt
  4
extfont
  0
ENDTAB
  0
TABLE
  2
VIEW
  5
5
100
AcDbSymbolTable
 70
     0
  0
ENDTAB
  0
TABLE
  2
UCS
  5
6
100
AcDbSymbolTable
 70
     0
  0
ENDTAB
  0
TABLE
  2
APPID
  5
8
100
AcDbSymbolTable
 70
     1
  0
APPID
  5
16
100
AcDbSymbolTableRecord
100
AcDbRegAppTableRecord
  2
ACAD
 70
     0
  0
ENDTAB
  0
TABLE
  2
DIMSTYLE
  5
9
100
AcDbSymbolTable
 70
     1
100
AcDbDimStyleTable
 71
     0
  0
DIMSTYLE
105
18
100
AcDbSymbolTableRecord
100
AcDbDimStyleTableRecord
  2
Standard
 70
     0
  3

  4

 40
1.0
 41
0.18
 42
0.0625
 43
0.38
 44
0.18
 45
0.0
 46
0.0
 47
0.0
 48
0.0
 71
     0
 72
     0
 73
     1
 74
     1
 75
     0
 76
     0
 77
     0
 78
     0
 79
     0
140
0.18
141
0.09
142
0.0
143
25.4
144
1.0
145
0.0
146
1.0
147
0.09
148
0.0
170
     0
171
     2
172
     0
173
     0
174
     0
175
     0
176
     0
177
     0
178
     0
179
     0
271
     4
272
     4
273
     2
274
     2
275
     0
276
     0
277
     2
278
    46
279
     0
280
     0
281
     0
282
     0
283
     1
284
     0
285
     0
286
     0
288
     0
340
17
341
0
342
0
343
0
344
0
371
    -2
372
    -2
  0
ENDTAB
  0
TABLE
  2
BLOCK_RECORD
  5
1
100
AcDbSymbolTable
 70
     1
  0
BLOCK_RECORD
  5
A
100
AcDbSymbolTableRecord
100
AcDbBlockTableRecord
  2
*MODEL_SPACE
340
20
  0
BLOCK_RECORD
  5
B
100
AcDbSymbolTableRecord
100
AcDbBlockTableRecord
  2
*PAPER_SPACE
340
21
  0
BLOCK_RECORD
  5
29
100
AcDbSymbolTableRecord
100
AcDbBlockTableRecord
  2
AI9-BLK1
340
0
102
{BLKREFS
331
2A
102
}
  0
ENDTAB
  0
ENDSEC
  0
SECTION
  2
BLOCKS
  0
BLOCK
  5
D
100
AcDbEntity
  8
0
100
AcDbBlockBegin
  2
*MODEL_SPACE
 70
     0
 10
0.0
 20
0.0
 30
0.0
  3
*MODEL_SPACE
  1

  0
ENDBLK
  5
E
100
AcDbEntity
  8
0
100
AcDbBlockEnd
  0
BLOCK
  5
F
100
AcDbEntity
 67
     1
  8
0
100
AcDbBlockBegin
  2
*PAPER_SPACE
 70
     0
 10
0.0
 20
0.0
 30
0.0
  3
*PAPER_SPACE
  1

  0
ENDBLK
  5
10
100
AcDbEntity
 67
     1
  8
0
100
AcDbBlockEnd
  0
BLOCK
  5
2B
100
AcDbEntity
  8
LIVELLO_1
 62
     7
100
AcDbBlockBegin
  2
AI9-BLK1
 70
     0
 10
0.0
 20
0.0
 30
0.0
  3
AI9-BLK1
  1

  0
CIRCLE
  5
13F
100
AcDbEntity
  8
LIVELLO_1
 62
     7
100
AcDbCircle
 10
-13.116254
 20
-69.001301
 30
0.0
 40
30.433026
  0
CIRCLE
  5
13E
100
AcDbEntity
  8
LIVELLO_1
 62
     7
100
AcDbCircle
 10
-13.115392
 20
-34.727079
 30
0.0
 40
1.218616
  0
CIRCLE
  5
13D
100
AcDbEntity
  8
LIVELLO_1
 62
     7
100
AcDbCircle
 10
21.158226
 20
-69.001301
 30
0.0
 40
1.217324
  0
CIRCLE
  5
13C
100
AcDbEntity
  8
LIVELLO_1
 62
     7
100
AcDbCircle
 10
-13.115306
 20
-34.727079
 30
0.0
 40
1.739256
  0
CIRCLE
  5
13B
100
AcDbEntity
  8
LIVELLO_1
 62
     7
100
AcDbCircle
 10
21.158398
 20
-69.001301
 30
0.0
 40
1.740462
  0
CIRCLE
  5
13A
100
AcDbEntity
  8
LIVELLO_1
 62
     7
100
AcDbCircle
 10
-13.115392
 20
-103.275178
 30
0.0
 40
1.218616
  0
CIRCLE
  5
139
100
AcDbEntity
  8
LIVELLO_1
 62
     7
100
AcDbCircle
 10
-13.115306
 20
-103.275178
 30
0.0
 40
1.739256
  0
CIRCLE
  5
138
100
AcDbEntity
  8
LIVELLO_1
 62
     7
100
AcDbCircle
 10
-47.389872
 20
-69.001301
 30
0.0
 40
1.739601
  0
CIRCLE
  5
137
100
AcDbEntity
  8
LIVELLO_1
 62
     7
100
AcDbCircle
 10
-47.389011
 20
-69.001301
 30
0.0
 40
1.217324
  0
SPLINE
  5
136
100
AcDbEntity
  8
LIVELLO_1
 62
     7
100
AcDbSpline
210
0.0
220
0.0
230
1.0
 70
     8
 71
     3
 72
     8
 73
     4
 74
     0
 42
0.00000001
 43
0.00000001
 40
0.0
 40
0.0
 40
0.0
 40
0.0
 40
1.0
 40
1.0
 40
1.0
 40
1.0
 10
30.048467339409719
 20
-112.51389024522568
 30
0.0
 10
30.242081705729163
 20
-112.51389024522568
 30
0.0
 10
30.398144531249997
 20
-112.35851643880207
 30
0.0
 10
30.398144531249997
 20
-112.16731363932291
 30
0.0
  0
SPLINE
  5
135
100
AcDbEntity
  8
LIVELLO_1
 62
     7
100
AcDbSpline
210
0.0
220
0.0
230
1.0
 70
     8
 71
     3
 72
     8
 73
     4
 74
     0
 42
0.00000001
 43
0.00000001
 40
0.0
 40
0.0
 40
0.0
 40
0.0
 40
1.0
 40
1.0
 40
1.0
 40
1.0
 10
30.398144531249997
 20
-25.836665852864581
 30
0.0
 10
30.398144531249997
 20
-25.643740505642359
 30
0.0
 10
30.242081705729163
 20
-25.488366699218748
 30
0.0
 10
30.048467339409719
 20
-25.488366699218748
 30
0.0
  0
SPLINE
  5
134
100
AcDbEntity
  8
LIVELLO_1
 62
     7
100
AcDbSpline
210
0.0
220
0.0
230
1.0
 70
     8
 71
     3
 72
     8
 73
     4
 74
     0
 42
0.00000001
 43
0.00000001
 40
0.0
 40
0.0
 40
0.0
 40
0.0
 40
1.0
 40
1.0
 40
1.0
 40
1.0
 10
-56.280802408854164
 20
-25.488366699218748
 30
0.0
 10
-56.472694227430551
 20
-25.488366699218748
 30
0.0
 10
-56.628929307725691
 20
-25.643740505642359
 30
0.0
 10
-56.628929307725691
 20
-25.836665852864581
 30
0.0
  0
SPLINE
  5
133
100
AcDbEntity
  8
LIVELLO_1
 62
     7
100
AcDbSpline
210
0.0
220
0.0
230
1.0
 70
     8
 71
     3
 72
    11
 73
     7
 74
     0
 42
0.00000001
 43
0.00000001
 40
0.0
 40
0.0
 40
0.0
 40
0.0
 40
1.0
 40
1.0
 40
1.0
 40
2.0
 40
2.0
 40
2.0
 40
2.0
 10
-56.628929307725691
 20
-25.836665852864581
 30
0.0
 10
-56.628929307725691
 20
-25.836665852864581
 30
0.0
 10
-56.628929307725691
 20
-112.16731363932291
 30
0.0
 10
-56.628929307725691
 20
-112.16731363932291
 30
0.0
 10
-56.628929307725691
 20
-112.35851643880207
 30
0.0
 10
-56.472694227430551
 20
-112.51389024522568
 30
0.0
 10
-56.280802408854164
 20
-112.51389024522568
 30
0.0
  0
LINE
  5
132
100
AcDbEntity
  8
LIVELLO_1
 62
     7
100
AcDbLine
 10
30.048467
 20
-25.488367
 30
0.0
 11
-56.280802
 21
-25.488367
 31
0.0
  0
LINE
  5
131
100
AcDbEntity
  8
LIVELLO_1
 62
     7
100
AcDbLine
 10
30.398145
 20
-112.167314
 30
0.0
 11
30.398145
 21
-25.836666
 31
0.0
  0
LINE
  5
130
100
AcDbEntity
  8
LIVELLO_1
 62
     7
100
AcDbLine
 10
-56.280802
 20
-112.51389
 30
0.0
 11
30.048467
 21
-112.51389
 31
0.0
  0
POLYLINE
  5
129
100
AcDbEntity
  8
LIVELLO_1
 62
     7
100
AcDb2dPolyline
 66
     1
 10
0.0
 20
0.0
 30
0.0
  0
VERTEX
  5
12A
100
AcDbEntity
  8
LIVELLO_1
 62
     7
100
AcDbVertex
100
AcDb2dVertex
 10
-54.430786
 20
-110.316608
 30
0.0
  0
VERTEX
  5
12B
100
AcDbEntity
  8
LIVELLO_1
 62
     7
100
AcDbVertex
100
AcDb2dVertex
 10
28.200174
 20
-110.316608
 30
0.0
  0
VERTEX
  5
12C
100
AcDbEntity
  8
LIVELLO_1
 62
     7
100
AcDbVertex
100
AcDb2dVertex
 10
28.200174
 20
-27.687371
 30
0.0
  0
VERTEX
  5
12D
100
AcDbEntity
  8
LIVELLO_1
 62
     7
100
AcDbVertex
100
AcDb2dVertex
 10
-54.430786
 20
-27.687371
 30
0.0
  0
VERTEX
  5
12E
100
AcDbEntity
  8
LIVELLO_1
 62
     7
100
AcDbVertex
100
AcDb2dVertex
 10
-54.430786
 20
-110.316608
 30
0.0
  0
SEQEND
  5
12F
100
AcDbEntity
  8
LIVELLO_1
 62
     7
  0
LINE
  5
128
100
AcDbEntity
  8
LIVELLO_1
 62
     7
100
AcDbLine
 10
30.141485
 20
-21.715987
 30
0.0
 11
30.141485
 21
-14.447869
 31
0.0
  0
LINE
  5
127
100
AcDbEntity
  8
LIVELLO_1
 62
     7
100
AcDbLine
 10
-2.150945
 20
-18.07521
 30
0.0
 11
30.141485
 21
-18.07521
 31
0.0
  0
LINE
  5
126
100
AcDbEntity
  8
LIVELLO_1
 62
     7
100
AcDbLine
 10
-56.761738
 20
-18.07521
 30
0.0
 11
-23.082484
 21
-18.07521
 31
0.0
  0
MTEXT
  5
125
100
AcDbEntity
  8
LIVELLO_1
 62
     7
100
AcDbMText
 10
-20.483676
 20
-14.090367
 30
0.0
 40
6.984144
 41
0.0
 71
     1
 72
     2
  1
\fMyriad Roman|b0|i0;\H6.9841;\W0.98;\C7;\U+0032\U+0035\U+0030
  7
STD
210
0.0
220
0.0
230
1.0
 73
     1
 44
1.0
  0
LINE
  5
124
100
AcDbEntity
  8
LIVELLO_1
 62
     7
100
AcDbLine
 10
-56.812381
 20
-21.76663
 30
0.0
 11
-56.812381
 21
-14.750349
 31
0.0
  0
LINE
  5
123
100
AcDbEntity
  8
LIVELLO_1
 62
     7
100
AcDbLine
 10
-29.118292
 20
-84.958294
 30
0.0
 11
-17.027384
 21
-84.958294
 31
0.0
  0
LINE
  5
122
100
AcDbEntity
  8
LIVELLO_1
 62
     7
100
AcDbLine
 10
-5.264278
 20
-78.921109
 30
0.0
 11
4.316705
 21
-78.921109
 31
0.0
  0
LINE
  5
121
100
AcDbEntity
  8
LIVELLO_1
 62
     7
100
AcDbLine
 10
-5.903171
 20
-67.420691
 30
0.0
 11
10.066569
 21
-67.420691
 31
0.0
  0
LINE
  5
120
100
AcDbEntity
  8
LIVELLO_1
 62
     7
100
AcDbLine
 10
-32.0449
 20
-67.420691
 30
0.0
 11
-20.593747
 21
-67.420691
 31
0.0
  0
LINE
  5
11F
100
AcDbEntity
  8
LIVELLO_1
 62
     7
100
AcDbLine
 10
-23.787351
 20
-56.562783
 30
0.0
 11
-2.071536
 21
-56.562783
 31
0.0
  0
LINE
  5
11E
100
AcDbEntity
  8
LIVELLO_1
 62
     7
100
AcDbLine
 10
-15.171512
 20
-92.447932
 30
0.0
 11
-5.59139
 21
-92.447932
 31
0.0
  0
LINE
  5
11D
100
AcDbEntity
  8
LIVELLO_1
 62
     7
100
AcDbLine
 10
-20.836282
 20
-45.784458
 30
0.0
 11
-11.254438
 21
-45.784458
 31
0.0
  0
POLYLINE
  5
117
100
AcDbEntity
  8
LIVELLO_1
 62
     7
100
AcDb2dPolyline
 66
     1
 10
0.0
 20
0.0
 30
0.0
 70
     1
  0
VERTEX
  5
118
100
AcDbEntity
  8
LIVELLO_1
 62
     7
100
AcDbVertex
100
AcDb2dVertex
 10
-68.592368
 20
-3.9076
 30
0.0
  0
VERTEX
  5
119
100
AcDbEntity
  8
LIVELLO_1
 62
     7
100
AcDbVertex
100
AcDb2dVertex
 10
-49.240233
 20
-3.9076
 30
0.0
  0
VERTEX
  5
11A
100
AcDbEntity
  8
LIVELLO_1
 62
     7
100
AcDbVertex
100
AcDb2dVertex
 10
-49.240233
 20
9.999217
 30
0.0
  0
VERTEX
  5
11B
100
AcDbEntity
  8
LIVELLO_1
 62
     7
100
AcDbVertex
100
AcDb2dVertex
 10
-63.499655
 20
9.999217
 30
0.0
  0
SEQEND
  5
11C
100
AcDbEntity
  8
LIVELLO_1
 62
     7
  0
LINE
  5
116
100
AcDbEntity
  8
LIVELLO_1
 62
     7
100
AcDbLine
 10
26.111068
 20
37.569972
 30
0.0
 11
26.111068
 21
-3.9076
 31
0.0
  0
LINE
  5
115
100
AcDbEntity
  8
LIVELLO_1
 62
     7
100
AcDbLine
 10
-49.240233
 20
-3.9076
 30
0.0
 11
-49.266416
 21
37.569972
 31
0.0
  0
POLYLINE
  5
10F
100
AcDbEntity
  8
LIVELLO_1
 62
     7
100
AcDb2dPolyline
 66
     1
 10
0.0
 20
0.0
 30
0.0
 70
     1
  0
VERTEX
  5
110
100
AcDbEntity
  8
LIVELLO_1
 62
     7
100
AcDbVertex
100
AcDb2dVertex
 10
44.191962
 20
-3.9076
 30
0.0
  0
VERTEX
  5
111
100
AcDbEntity
  8
LIVELLO_1
 62
     7
100
AcDbVertex
100
AcDb2dVertex
 10
26.111068
 20
-3.9076
 30
0.0
  0
VERTEX
  5
112
100
AcDbEntity
  8
LIVELLO_1
 62
     7
100
AcDbVertex
100
AcDb2dVertex
 10
26.111068
 20
9.999217
 30
0.0
  0
VERTEX
  5
113
100
AcDbEntity
  8
LIVELLO_1
 62
     7
100
AcDbVertex
100
AcDb2dVertex
 10
40.460924
 20
9.999217
 30
0.0
  0
SEQEND
  5
114
100
AcDbEntity
  8
LIVELLO_1
 62
     7
  0
POLYLINE
  5
10A
100
AcDbEntity
  8
LIVELLO_1
 62
     7
100
AcDb2dPolyline
 66
     1
 10
0.0
 20
0.0
 30
0.0
  0
VERTEX
  5
10B
100
AcDbEntity
  8
LIVELLO_1
 62
     7
100
AcDbVertex
100
AcDb2dVertex
 10
36.336111
 20
11.890575
 30
0.0
  0
VERTEX
  5
10C
100
AcDbEntity
  8
LIVELLO_1
 62
     7
100
AcDbVertex
100
AcDb2dVertex
 10
28.567076
 20
11.890575
 30
0.0
  0
VERTEX
  5
10D
100
AcDbEntity
  8
LIVELLO_1
 62
     7
100
AcDbVertex
100
AcDb2dVertex
 10
28.593259
 20
37.569972
 30
0.0
  0
SEQEND
  5
10E
100
AcDbEntity
  8
LIVELLO_1
 62
     7
  0
POLYLINE
  5
105
100
AcDbEntity
  8
LIVELLO_1
 62
     7
100
AcDb2dPolyline
 66
     1
 10
0.0
 20
0.0
 30
0.0
  0
VERTEX
  5
106
100
AcDbEntity
  8
LIVELLO_1
 62
     7
100
AcDbVertex
100
AcDb2dVertex
 10
-59.314726
 20
11.890575
 30
0.0
  0
VERTEX
  5
107
100
AcDbEntity
  8
LIVELLO_1
 62
     7
100
AcDbVertex
100
AcDb2dVertex
 10
-51.545691
 20
11.890575
 30
0.0
  0
VERTEX
  5
108
100
AcDbEntity
  8
LIVELLO_1
 62
     7
100
AcDbVertex
100
AcDb2dVertex
 10
-51.570151
 20
37.569972
 30
0.0
  0
SEQEND
  5
109
100
AcDbEntity
  8
LIVELLO_1
 62
     7
  0
POLYLINE
  5
FF
100
AcDbEntity
  8
LIVELLO_1
 62
     7
100
AcDb2dPolyline
 66
     1
 10
0.0
 20
0.0
 30
0.0
 70
     1
  0
VERTEX
  5
100
100
AcDbEntity
  8
LIVELLO_1
 62
     7
100
AcDbVertex
100
AcDb2dVertex
 10
-53.220696
 20
27.650164
 30
0.0
  0
VERTEX
  5
101
100
AcDbEntity
  8
LIVELLO_1
 62
     7
100
AcDbVertex
100
AcDb2dVertex
 10
-52.153234
 20
27.650164
 30
0.0
  0
VERTEX
  5
102
100
AcDbEntity
  8
LIVELLO_1
 62
     7
100
AcDbVertex
100
AcDb2dVertex
 10
-52.153234
 20
25.579662
 30
0.0
  0
VERTEX
  5
103
100
AcDbEntity
  8
LIVELLO_1
 62
     7
100
AcDbVertex
100
AcDb2dVertex
 10
-53.220696
 20
25.579662
 30
0.0
  0
SEQEND
  5
104
100
AcDbEntity
  8
LIVELLO_1
 62
     7
  0
POLYLINE
  5
F9
100
AcDbEntity
  8
LIVELLO_1
 62
     7
100
AcDb2dPolyline
 66
     1
 10
0.0
 20
0.0
 30
0.0
 70
     1
  0
VERTEX
  5
FA
100
AcDbEntity
  8
LIVELLO_1
 62
     7
100
AcDbVertex
100
AcDb2dVertex
 10
-51.725697
 20
27.198857
 30
0.0
  0
VERTEX
  5
FB
100
AcDbEntity
  8
LIVELLO_1
 62
     7
100
AcDbVertex
100
AcDb2dVertex
 10
-49.250396
 20
27.198857
 30
0.0
  0
VERTEX
  5
FC
100
AcDbEntity
  8
LIVELLO_1
 62
     7
100
AcDbVertex
100
AcDb2dVertex
 10
-49.250396
 20
26.030969
 30
0.0
  0
VERTEX
  5
FD
100
AcDbEntity
  8
LIVELLO_1
 62
     7
100
AcDbVertex
100
AcDb2dVertex
 10
-51.725697
 20
26.030969
 30
0.0
  0
SEQEND
  5
FE
100
AcDbEntity
  8
LIVELLO_1
 62
     7
  0
POLYLINE
  5
F3
100
AcDbEntity
  8
LIVELLO_1
 62
     7
100
AcDb2dPolyline
 66
     1
 10
0.0
 20
0.0
 30
0.0
 70
     1
  0
VERTEX
  5
F4
100
AcDbEntity
  8
LIVELLO_1
 62
     7
100
AcDbVertex
100
AcDb2dVertex
 10
-51.725697
 20
27.198857
 30
0.0
  0
VERTEX
  5
F5
100
AcDbEntity
  8
LIVELLO_1
 62
     7
100
AcDbVertex
100
AcDb2dVertex
 10
-49.250396
 20
27.198857
 30
0.0
  0
VERTEX
  5
F6
100
AcDbEntity
  8
LIVELLO_1
 62
     7
100
AcDbVertex
100
AcDb2dVertex
 10
-49.250396
 20
26.030969
 30
0.0
  0
VERTEX
  5
F7
100
AcDbEntity
  8
LIVELLO_1
 62
     7
100
AcDbVertex
100
AcDb2dVertex
 10
-51.725697
 20
26.030969
 30
0.0
  0
SEQEND
  5
F8
100
AcDbEntity
  8
LIVELLO_1
 62
     7
  0
POLYLINE
  5
ED
100
AcDbEntity
  8
LIVELLO_1
 62
     7
100
AcDb2dPolyline
 66
     1
 10
0.0
 20
0.0
 30
0.0
 70
     1
  0
VERTEX
  5
EE
100
AcDbEntity
  8
LIVELLO_1
 62
     7
100
AcDbVertex
100
AcDb2dVertex
 10
-48.897102
 20
27.651887
 30
0.0
  0
VERTEX
  5
EF
100
AcDbEntity
  8
LIVELLO_1
 62
     7
100
AcDbVertex
100
AcDb2dVertex
 10
-47.828088
 20
27.651887
 30
0.0
  0
VERTEX
  5
F0
100
AcDbEntity
  8
LIVELLO_1
 62
     7
100
AcDbVertex
100
AcDb2dVertex
 10
-47.828088
 20
25.579662
 30
0.0
  0
VERTEX
  5
F1
100
AcDbEntity
  8
LIVELLO_1
 62
     7
100
AcDbVertex
100
AcDb2dVertex
 10
-48.897102
 20
25.579662
 30
0.0
  0
SEQEND
  5
F2
100
AcDbEntity
  8
LIVELLO_1
 62
     7
  0
POLYLINE
  5
E7
100
AcDbEntity
  8
LIVELLO_1
 62
     7
100
AcDb2dPolyline
 66
     1
 10
0.0
 20
0.0
 30
0.0
 70
     1
  0
VERTEX
  5
E8
100
AcDbEntity
  8
LIVELLO_1
 62
     7
100
AcDbVertex
100
AcDb2dVertex
 10
-54.196864
 20
27.198857
 30
0.0
  0
VERTEX
  5
E9
100
AcDbEntity
  8
LIVELLO_1
 62
     7
100
AcDbVertex
100
AcDb2dVertex
 10
-53.238439
 20
27.198857
 30
0.0
  0
VERTEX
  5
EA
100
AcDbEntity
  8
LIVELLO_1
 62
     7
100
AcDbVertex
100
AcDb2dVertex
 10
-53.238439
 20
26.030969
 30
0.0
  0
VERTEX
  5
EB
100
AcDbEntity
  8
LIVELLO_1
 62
     7
100
AcDbVertex
100
AcDb2dVertex
 10
-54.196864
 20
26.030969
 30
0.0
  0
SEQEND
  5
EC
100
AcDbEntity
  8
LIVELLO_1
 62
     7
  0
POLYLINE
  5
E1
100
AcDbEntity
  8
LIVELLO_1
 62
     7
100
AcDb2dPolyline
 66
     1
 10
0.0
 20
0.0
 30
0.0
 70
     1
  0
VERTEX
  5
E2
100
AcDbEntity
  8
LIVELLO_1
 62
     7
100
AcDbVertex
100
AcDb2dVertex
 10
-54.196864
 20
27.198857
 30
0.0
  0
VERTEX
  5
E3
100
AcDbEntity
  8
LIVELLO_1
 62
     7
100
AcDbVertex
100
AcDb2dVertex
 10
-53.238439
 20
27.198857
 30
0.0
  0
VERTEX
  5
E4
100
AcDbEntity
  8
LIVELLO_1
 62
     7
100
AcDbVertex
100
AcDb2dVertex
 10
-53.238439
 20
26.030969
 30
0.0
  0
VERTEX
  5
E5
100
AcDbEntity
  8
LIVELLO_1
 62
     7
100
AcDbVertex
100
AcDb2dVertex
 10
-54.196864
 20
26.030969
 30
0.0
  0
SEQEND
  5
E6
100
AcDbEntity
  8
LIVELLO_1
 62
     7
  0
POLYLINE
  5
DB
100
AcDbEntity
  8
LIVELLO_1
 62
     7
100
AcDb2dPolyline
 66
     1
 10
0.0
 20
0.0
 30
0.0
 70
     1
  0
VERTEX
  5
DC
100
AcDbEntity
  8
LIVELLO_1
 62
     7
100
AcDbVertex
100
AcDb2dVertex
 10
29.690177
 20
27.650164
 30
0.0
  0
VERTEX
  5
DD
100
AcDbEntity
  8
LIVELLO_1
 62
     7
100
AcDbVertex
100
AcDb2dVertex
 10
28.620131
 20
27.650164
 30
0.0
  0
VERTEX
  5
DE
100
AcDbEntity
  8
LIVELLO_1
 62
     7
100
AcDbVertex
100
AcDb2dVertex
 10
28.620131
 20
25.579662
 30
0.0
  0
VERTEX
  5
DF
100
AcDbEntity
  8
LIVELLO_1
 62
     7
100
AcDbVertex
100
AcDb2dVertex
 10
29.690177
 20
25.579662
 30
0.0
  0
SEQEND
  5
E0
100
AcDbEntity
  8
LIVELLO_1
 62
     7
  0
POLYLINE
  5
D5
100
AcDbEntity
  8
LIVELLO_1
 62
     7
100
AcDb2dPolyline
 66
     1
 10
0.0
 20
0.0
 30
0.0
 70
     1
  0
VERTEX
  5
D6
100
AcDbEntity
  8
LIVELLO_1
 62
     7
100
AcDbVertex
100
AcDb2dVertex
 10
28.196729
 20
27.198857
 30
0.0
  0
VERTEX
  5
D7
100
AcDbEntity
  8
LIVELLO_1
 62
     7
100
AcDbVertex
100
AcDb2dVertex
 10
26.017361
 20
27.198857
 30
0.0
  0
VERTEX
  5
D8
100
AcDbEntity
  8
LIVELLO_1
 62
     7
100
AcDbVertex
100
AcDb2dVertex
 10
26.017361
 20
26.030969
 30
0.0
  0
VERTEX
  5
D9
100
AcDbEntity
  8
LIVELLO_1
 62
     7
100
AcDbVertex
100
AcDb2dVertex
 10
28.196729
 20
26.030969
 30
0.0
  0
SEQEND
  5
DA
100
AcDbEntity
  8
LIVELLO_1
 62
     7
  0
POLYLINE
  5
CF
100
AcDbEntity
  8
LIVELLO_1
 62
     7
100
AcDb2dPolyline
 66
     1
 10
0.0
 20
0.0
 30
0.0
 70
     1
  0
VERTEX
  5
D0
100
AcDbEntity
  8
LIVELLO_1
 62
     7
100
AcDbVertex
100
AcDb2dVertex
 10
28.196729
 20
27.198857
 30
0.0
  0
VERTEX
  5
D1
100
AcDbEntity
  8
LIVELLO_1
 62
     7
100
AcDbVertex
100
AcDb2dVertex
 10
26.015639
 20
27.198857
 30
0.0
  0
VERTEX
  5
D2
100
AcDbEntity
  8
LIVELLO_1
 62
     7
100
AcDbVertex
100
AcDb2dVertex
 10
26.015639
 20
26.030969
 30
0.0
  0
VERTEX
  5
D3
100
AcDbEntity
  8
LIVELLO_1
 62
     7
100
AcDbVertex
100
AcDb2dVertex
 10
28.196729
 20
26.030969
 30
0.0
  0
SEQEND
  5
D4
100
AcDbEntity
  8
LIVELLO_1
 62
     7
  0
POLYLINE
  5
C9
100
AcDbEntity
  8
LIVELLO_1
 62
     7
100
AcDb2dPolyline
 66
     1
 10
0.0
 20
0.0
 30
0.0
 70
     1
  0
VERTEX
  5
CA
100
AcDbEntity
  8
LIVELLO_1
 62
     7
100
AcDbVertex
100
AcDb2dVertex
 10
24.593159
 20
27.651887
 30
0.0
  0
VERTEX
  5
CB
100
AcDbEntity
  8
LIVELLO_1
 62
     7
100
AcDbVertex
100
AcDb2dVertex
 10
25.660449
 20
27.651887
 30
0.0
  0
VERTEX
  5
CC
100
AcDbEntity
  8
LIVELLO_1
 62
     7
100
AcDbVertex
100
AcDb2dVertex
 10
25.660449
 20
25.579662
 30
0.0
  0
VERTEX
  5
CD
100
AcDbEntity
  8
LIVELLO_1
 62
     7
100
AcDbVertex
100
AcDb2dVertex
 10
24.593159
 20
25.579662
 30
0.0
  0
SEQEND
  5
CE
100
AcDbEntity
  8
LIVELLO_1
 62
     7
  0
POLYLINE
  5
C3
100
AcDbEntity
  8
LIVELLO_1
 62
     7
100
AcDb2dPolyline
 66
     1
 10
0.0
 20
0.0
 30
0.0
 70
     1
  0
VERTEX
  5
C4
100
AcDbEntity
  8
LIVELLO_1
 62
     7
100
AcDbVertex
100
AcDb2dVertex
 10
30.666173
 20
27.198857
 30
0.0
  0
VERTEX
  5
C5
100
AcDbEntity
  8
LIVELLO_1
 62
     7
100
AcDbVertex
100
AcDb2dVertex
 10
29.70947
 20
27.198857
 30
0.0
  0
VERTEX
  5
C6
100
AcDbEntity
  8
LIVELLO_1
 62
     7
100
AcDbVertex
100
AcDb2dVertex
 10
29.70947
 20
26.030969
 30
0.0
  0
VERTEX
  5
C7
100
AcDbEntity
  8
LIVELLO_1
 62
     7
100
AcDbVertex
100
AcDb2dVertex
 10
30.666173
 20
26.030969
 30
0.0
  0
SEQEND
  5
C8
100
AcDbEntity
  8
LIVELLO_1
 62
     7
  0
POLYLINE
  5
BD
100
AcDbEntity
  8
LIVELLO_1
 62
     7
100
AcDb2dPolyline
 66
     1
 10
0.0
 20
0.0
 30
0.0
 70
     1
  0
VERTEX
  5
BE
100
AcDbEntity
  8
LIVELLO_1
 62
     7
100
AcDbVertex
100
AcDb2dVertex
 10
30.666173
 20
27.198857
 30
0.0
  0
VERTEX
  5
BF
100
AcDbEntity
  8
LIVELLO_1
 62
     7
100
AcDbVertex
100
AcDb2dVertex
 10
29.70947
 20
27.198857
 30
0.0
  0
VERTEX
  5
C0
100
AcDbEntity
  8
LIVELLO_1
 62
     7
100
AcDbVertex
100
AcDb2dVertex
 10
29.70947
 20
26.030969
 30
0.0
  0
VERTEX
  5
C1
100
AcDbEntity
  8
LIVELLO_1
 62
     7
100
AcDbVertex
100
AcDb2dVertex
 10
30.666173
 20
26.030969
 30
0.0
  0
SEQEND
  5
C2
100
AcDbEntity
  8
LIVELLO_1
 62
     7
  0
LINE
  5
BC
100
AcDbEntity
  8
LIVELLO_1
 62
     7
100
AcDbLine
 10
10.517877
 20
26.414581
 30
0.0
 11
13.981231
 21
26.414581
 31
0.0
  0
LINE
  5
BB
100
AcDbEntity
  8
LIVELLO_1
 62
     7
100
AcDbLine
 10
15.369604
 20
27.107562
 30
0.0
 11
9.130364
 21
27.107562
 31
0.0
  0
LINE
  5
BA
100
AcDbEntity
  8
LIVELLO_1
 62
     7
100
AcDbLine
 10
18.142562
 20
15.67329
 30
0.0
 11
-41.465342
 21
15.67329
 31
0.0
  0
LINE
  5
B9
100
AcDbEntity
  8
LIVELLO_1
 62
     7
100
AcDbLine
 10
18.142562
 20
16.019866
 30
0.0
 11
-41.465342
 21
16.019866
 31
0.0
  0
LINE
  5
B8
100
AcDbEntity
  8
LIVELLO_1
 62
     7
100
AcDbLine
 10
19.526801
 20
30.574189
 30
0.0
 11
-9.582878
 21
30.574189
 31
0.0
  0
POLYLINE
  5
B2
100
AcDbEntity
  8
LIVELLO_1
 62
     7
100
AcDb2dPolyline
 66
     1
 10
0.0
 20
0.0
 30
0.0
 70
     1
  0
VERTEX
  5
B3
100
AcDbEntity
  8
LIVELLO_1
 62
     7
100
AcDbVertex
100
AcDb2dVertex
 10
2.101681
 20
28.463207
 30
0.0
  0
VERTEX
  5
B4
100
AcDbEntity
  8
LIVELLO_1
 62
     7
100
AcDbVertex
100
AcDb2dVertex
 10
2.101681
 20
26.446792
 30
0.0
  0
VERTEX
  5
B5
100
AcDbEntity
  8
LIVELLO_1
 62
     7
100
AcDbVertex
100
AcDb2dVertex
 10
-4.561995
 20
26.446792
 30
0.0
  0
VERTEX
  5
B6
100
AcDbEntity
  8
LIVELLO_1
 62
     7
100
AcDbVertex
100
AcDb2dVertex
 10
-4.561995
 20
28.463207
 30
0.0
  0
SEQEND
  5
B7
100
AcDbEntity
  8
LIVELLO_1
 62
     7
  0
POLYLINE
  5
AC
100
AcDbEntity
  8
LIVELLO_1
 62
     7
100
AcDb2dPolyline
 66
     1
 10
0.0
 20
0.0
 30
0.0
 70
     1
  0
VERTEX
  5
AD
100
AcDbEntity
  8
LIVELLO_1
 62
     7
100
AcDbVertex
100
AcDb2dVertex
 10
2.281687
 20
26.446792
 30
0.0
  0
VERTEX
  5
AE
100
AcDbEntity
  8
LIVELLO_1
 62
     7
100
AcDbVertex
100
AcDb2dVertex
 10
2.281687
 20
25.287173
 30
0.0
  0
VERTEX
  5
AF
100
AcDbEntity
  8
LIVELLO_1
 62
     7
100
AcDbVertex
100
AcDb2dVertex
 10
-4.747169
 20
25.287173
 30
0.0
  0
VERTEX
  5
B0
100
AcDbEntity
  8
LIVELLO_1
 62
     7
100
AcDbVertex
100
AcDb2dVertex
 10
-4.747169
 20
26.446792
 30
0.0
  0
SEQEND
  5
B1
100
AcDbEntity
  8
LIVELLO_1
 62
     7
  0
POLYLINE
  5
A6
100
AcDbEntity
  8
LIVELLO_1
 62
     7
100
AcDb2dPolyline
 66
     1
 10
0.0
 20
0.0
 30
0.0
 70
     1
  0
VERTEX
  5
A7
100
AcDbEntity
  8
LIVELLO_1
 62
     7
100
AcDbVertex
100
AcDb2dVertex
 10
1.563212
 20
24.489461
 30
0.0
  0
VERTEX
  5
A8
100
AcDbEntity
  8
LIVELLO_1
 62
     7
100
AcDbVertex
100
AcDb2dVertex
 10
1.563212
 20
23.397538
 30
0.0
  0
VERTEX
  5
A9
100
AcDbEntity
  8
LIVELLO_1
 62
     7
100
AcDbVertex
100
AcDb2dVertex
 10
-4.025422
 20
23.397538
 30
0.0
  0
VERTEX
  5
AA
100
AcDbEntity
  8
LIVELLO_1
 62
     7
100
AcDbVertex
100
AcDb2dVertex
 10
-4.025422
 20
24.489461
 30
0.0
  0
SEQEND
  5
AB
100
AcDbEntity
  8
LIVELLO_1
 62
     7
  0
POLYLINE
  5
9E
100
AcDbEntity
  8
LIVELLO_1
 62
     7
100
AcDb2dPolyline
 66
     1
 10
0.0
 20
0.0
 30
0.0
 70
     1
  0
VERTEX
  5
9F
100
AcDbEntity
  8
LIVELLO_1
 62
     7
100
AcDbVertex
100
AcDb2dVertex
 10
13.289111
 20
20.177752
 30
0.0
  0
VERTEX
  5
A0
100
AcDbEntity
  8
LIVELLO_1
 62
     7
100
AcDbVertex
100
AcDb2dVertex
 10
13.289111
 20
16.019866
 30
0.0
  0
VERTEX
  5
A1
100
AcDbEntity
  8
LIVELLO_1
 62
     7
100
AcDbVertex
100
AcDb2dVertex
 10
11.21103
 20
16.019866
 30
0.0
  0
VERTEX
  5
A2
100
AcDbEntity
  8
LIVELLO_1
 62
     7
100
AcDbVertex
100
AcDb2dVertex
 10
11.21103
 20
20.177752
 30
0.0
  0
VERTEX
  5
A3
100
AcDbEntity
  8
LIVELLO_1
 62
     7
100
AcDbVertex
100
AcDb2dVertex
 10
12.003746
 20
20.524156
 30
0.0
  0
VERTEX
  5
A4
100
AcDbEntity
  8
LIVELLO_1
 62
     7
100
AcDbVertex
100
AcDb2dVertex
 10
12.614562
 20
20.524156
 30
0.0
  0
SEQEND
  5
A5
100
AcDbEntity
  8
LIVELLO_1
 62
     7
  0
POLYLINE
  5
8E
100
AcDbEntity
  8
LIVELLO_1
 62
     7
100
AcDb2dPolyline
 66
     1
 10
0.0
 20
0.0
 30
0.0
  0
VERTEX
  5
8F
100
AcDbEntity
  8
LIVELLO_1
 62
     7
100
AcDbVertex
100
AcDb2dVertex
 10
-47.703031
 20
-0.615122
 30
0.0
  0
VERTEX
  5
90
100
AcDbEntity
  8
LIVELLO_1
 62
     7
100
AcDbVertex
100
AcDb2dVertex
 10
-47.703031
 20
0.770668
 30
0.0
  0
VERTEX
  5
91
100
AcDbEntity
  8
LIVELLO_1
 62
     7
100
AcDbVertex
100
AcDb2dVertex
 10
-42.852165
 20
0.770668
 30
0.0
  0
VERTEX
  5
92
100
AcDbEntity
  8
LIVELLO_1
 62
     7
100
AcDbVertex
100
AcDb2dVertex
 10
-42.159873
 20
29.879485
 30
0.0
  0
VERTEX
  5
93
100
AcDbEntity
  8
LIVELLO_1
 62
     7
100
AcDbVertex
100
AcDb2dVertex
 10
-8.890758
 20
29.879485
 30
0.0
  0
VERTEX
  5
94
100
AcDbEntity
  8
LIVELLO_1
 62
     7
100
AcDbVertex
100
AcDb2dVertex
 10
-6.810093
 20
26.414581
 30
0.0
  0
VERTEX
  5
95
100
AcDbEntity
  8
LIVELLO_1
 62
     7
100
AcDbVertex
100
AcDb2dVertex
 10
9.618018
 20
26.414581
 30
0.0
  0
VERTEX
  5
96
100
AcDbEntity
  8
LIVELLO_1
 62
     7
100
AcDbVertex
100
AcDb2dVertex
 10
10.517877
 20
16.019866
 30
0.0
  0
VERTEX
  5
97
100
AcDbEntity
  8
LIVELLO_1
 62
     7
100
AcDbVertex
100
AcDb2dVertex
 10
13.981231
 20
16.019866
 30
0.0
  0
VERTEX
  5
98
100
AcDbEntity
  8
LIVELLO_1
 62
     7
100
AcDbVertex
100
AcDb2dVertex
 10
14.9369
 20
26.414581
 30
0.0
  0
VERTEX
  5
99
100
AcDbEntity
  8
LIVELLO_1
 62
     7
100
AcDbVertex
100
AcDb2dVertex
 10
18.834682
 20
26.414581
 30
0.0
  0
VERTEX
  5
9A
100
AcDbEntity
  8
LIVELLO_1
 62
     7
100
AcDbVertex
100
AcDb2dVertex
 10
19.526801
 20
0.770668
 30
0.0
  0
VERTEX
  5
9B
100
AcDbEntity
  8
LIVELLO_1
 62
     7
100
AcDbVertex
100
AcDb2dVertex
 10
24.378529
 20
0.770668
 30
0.0
  0
VERTEX
  5
9C
100
AcDbEntity
  8
LIVELLO_1
 62
     7
100
AcDbVertex
100
AcDb2dVertex
 10
24.378529
 20
-0.615122
 30
0.0
  0
SEQEND
  5
9D
100
AcDbEntity
  8
LIVELLO_1
 62
     7
  0
SPLINE
  5
8D
100
AcDbEntity
  8
LIVELLO_1
 62
     7
100
AcDbSpline
210
0.0
220
0.0
230
1.0
 70
     8
 71
     3
 72
    80
 73
    76
 74
     0
 42
0.00000001
 43
0.00000001
 40
0.0
 40
0.0
 40
0.0
 40
0.0
 40
1.0
 40
1.0
 40
1.0
 40
2.0
 40
2.0
 40
2.0
 40
3.0
 40
3.0
 40
3.0
 40
4.0
 40
4.0
 40
4.0
 40
5.0
 40
5.0
 40
5.0
 40
6.0
 40
6.0
 40
6.0
 40
7.0
 40
7.0
 40
7.0
 40
8.0
 40
8.0
 40
8.0
 40
9.0
 40
9.0
 40
9.0
 40
10.0
 40
10.0
 40
10.0
 40
11.0
 40
11.0
 40
11.0
 40
12.0
 40
12.0
 40
12.0
 40
13.0
 40
13.0
 40
13.0
 40
14.0
 40
14.0
 40
14.0
 40
15.0
 40
15.0
 40
15.0
 40
16.0
 40
16.0
 40
16.0
 40
17.0
 40
17.0
 40
17.0
 40
18.0
 40
18.0
 40
18.0
 40
19.0
 40
19.0
 40
19.0
 40
20.0
 40
20.0
 40
20.0
 40
21.0
 40
21.0
 40
21.0
 40
22.0
 40
22.0
 40
22.0
 40
23.0
 40
23.0
 40
23.0
 40
24.0
 40
24.0
 40
24.0
 40
25.0
 40
25.0
 40
25.0
 40
25.0
 10
25.07237141927083
 20
-0.6151217990451389
 30
0.0
 10
25.07237141927083
 20
-0.6151217990451389
 30
0.0
 10
25.07237141927083
 20
2.1583523220486107
 30
0.0
 10
25.07237141927083
 20
2.1583523220486107
 30
0.0
 10
25.07237141927083
 20
2.1583523220486107
 30
0.0
 10
24.378529188368052
 20
2.1583523220486107
 30
0.0
 10
24.378529188368052
 20
2.1583523220486107
 30
0.0
 10
24.378529188368052
 20
2.1583523220486107
 30
0.0
 10
24.378529188368052
 20
1.4636488172743054
 30
0.0
 10
22.993600802951388
 20
1.4636488172743054
 30
0.0
 10
22.993600802951388
 20
1.4636488172743054
 30
0.0
 10
21.605916341145832
 20
1.4636488172743054
 30
0.0
 10
21.605916341145832
 20
1.4636488172743054
 30
0.0
 10
21.605916341145832
 20
1.4636488172743054
 30
0.0
 10
20.220643446180553
 20
1.4636488172743054
 30
0.0
 10
20.220643446180553
 20
2.1583523220486107
 30
0.0
 10
20.220643446180553
 20
2.8496107313368051
 30
0.0
 10
19.526801215277775
 20
30.574188910590276
 30
0.0
 10
19.526801215277775
 20
30.574188910590276
 30
0.0
 10
19.526801215277775
 20
30.574188910590276
 30
0.0
 10
18.834681532118054
 20
30.574188910590276
 30
0.0
 10
18.834681532118054
 20
30.574188910590276
 30
0.0
 10
18.834681532118054
 20
30.574188910590276
 30
0.0
 10
18.834681532118054
 20
27.107561577690969
 30
0.0
 10
18.834681532118054
 20
27.107561577690969
 30
0.0
 10
18.834681532118054
 20
27.107561577690969
 30
0.0
 10
14.083550347222221
 20
27.107561577690969
 30
0.0
 10
14.083550347222221
 20
27.107561577690969
 30
0.0
 10
14.083550347222221
 20
27.107561577690969
 30
0.0
 10
13.635687934027777
 20
21.563713921440971
 30
0.0
 10
13.635687934027777
 20
21.563713921440971
 30
0.0
 10
13.635687934027777
 20
21.563713921440971
 30
0.0
 10
10.864453124999999
 20
21.563713921440971
 30
0.0
 10
10.864453124999999
 20
21.563713921440971
 30
0.0
 10
10.864453124999999
 20
21.563713921440971
 30
0.0
 10
10.474812825520832
 20
27.107561577690969
 30
0.0
 10
10.474812825520832
 20
27.107561577690969
 30
0.0
 10
10.474812825520832
 20
27.107561577690969
 30
0.0
 10
2.8943969726562497
 20
27.107561577690969
 30
0.0
 10
2.8943969726562497
 20
27.107561577690969
 30
0.0
 10
2.8943969726562497
 20
27.107561577690969
 30
0.0
 10
2.8943969726562497
 20
28.495246039496525
 30
0.0
 10
2.8943969726562497
 20
28.495246039496525
 30
0.0
 10
2.8943969726562497
 20
28.495246039496525
 30
0.0
 10
-4.7318386501736107
 20
28.495246039496525
 30
0.0
 10
-4.7318386501736107
 20
28.495246039496525
 30
0.0
 10
-4.7318386501736107
 20
28.495246039496525
 30
0.0
 10
-5.424130588107638
 20
27.107561577690969
 30
0.0
 10
-5.424130588107638
 20
27.107561577690969
 30
0.0
 10
-5.424130588107638
 20
27.107561577690969
 30
0.0
 10
-6.1178005642361102
 20
27.107561577690969
 30
0.0
 10
-6.1178005642361102
 20
27.107561577690969
 30
0.0
 10
-6.1178005642361102
 20
27.107561577690969
 30
0.0
 10
-8.1969156901041664
 20
30.574188910590276
 30
0.0
 10
-8.1969156901041664
 20
30.574188910590276
 30
0.0
 10
-8.1969156901041664
 20
30.574188910590276
 30
0.0
 10
-42.852164713541661
 20
30.574188910590276
 30
0.0
 10
-42.852164713541661
 20
30.574188910590276
 30
0.0
 10
-42.852164713541661
 20
30.574188910590276
 30
0.0
 10
-43.544284396701386
 20
2.8496107313368051
 30
0.0
 10
-43.544284396701386
 20
2.1583523220486107
 30
0.0
 10
-43.544284396701386
 20
1.4636488172743054
 30
0.0
 10
-44.931968858506941
 20
1.4636488172743054
 30
0.0
 10
-44.931968858506941
 20
1.4636488172743054
 30
0.0
 10
-44.931968858506941
 20
1.4636488172743054
 30
0.0
 10
-46.317069498697911
 20
1.4636488172743054
 30
0.0
 10
-46.317069498697911
 20
1.4636488172743054
 30
0.0
 10
-47.70303141276041
 20
1.4636488172743054
 30
0.0
 10
-47.70303141276041
 20
2.1583523220486107
 30
0.0
 10
-47.70303141276041
 20
2.1583523220486107
 30
0.0
 10
-47.70303141276041
 20
2.1583523220486107
 30
0.0
 10
-48.39773491753472
 20
2.1583523220486107
 30
0.0
 10
-48.39773491753472
 20
2.1583523220486107
 30
0.0
 10
-48.39773491753472
 20
2.1583523220486107
 30
0.0
 10
-48.39773491753472
 20
-0.6151217990451389
 30
0.0
 10
-48.39773491753472
 20
-0.6151217990451389
 30
0.0
  0
LINE
  5
8C
100
AcDbEntity
  8
LIVELLO_1
 62
     7
100
AcDbLine
 10
18.142562
 20
0.425986
 30
0.0
 11
-41.465342
 21
0.425986
 31
0.0
  0
POLYLINE
  5
84
100
AcDbEntity
  8
LIVELLO_1
 62
     7
100
AcDb2dPolyline
 66
     1
 10
0.0
 20
0.0
 30
0.0
 70
     1
  0
VERTEX
  5
85
100
AcDbEntity
  8
LIVELLO_1
 62
     7
100
AcDbVertex
100
AcDb2dVertex
 10
-47.703031
 20
-1.306552
 30
0.0
  0
VERTEX
  5
86
100
AcDbEntity
  8
LIVELLO_1
 62
     7
100
AcDbVertex
100
AcDb2dVertex
 10
-47.703031
 20
-4.773008
 30
0.0
  0
VERTEX
  5
87
100
AcDbEntity
  8
LIVELLO_1
 62
     7
100
AcDbVertex
100
AcDb2dVertex
 10
-43.544284
 20
-4.773008
 30
0.0
  0
VERTEX
  5
88
100
AcDbEntity
  8
LIVELLO_1
 62
     7
100
AcDbVertex
100
AcDb2dVertex
 10
-43.544284
 20
-3.733622
 30
0.0
  0
VERTEX
  5
89
100
AcDbEntity
  8
LIVELLO_1
 62
     7
100
AcDbVertex
100
AcDb2dVertex
 10
-44.236404
 20
-3.733622
 30
0.0
  0
VERTEX
  5
8A
100
AcDbEntity
  8
LIVELLO_1
 62
     7
100
AcDbVertex
100
AcDb2dVertex
 10
-44.252424
 20
-1.306552
 30
0.0
  0
SEQEND
  5
8B
100
AcDbEntity
  8
LIVELLO_1
 62
     7
  0
POLYLINE
  5
7E
100
AcDbEntity
  8
LIVELLO_1
 62
     7
100
AcDb2dPolyline
 66
     1
 10
0.0
 20
0.0
 30
0.0
 70
     1
  0
VERTEX
  5
7F
100
AcDbEntity
  8
LIVELLO_1
 62
     7
100
AcDbVertex
100
AcDb2dVertex
 10
-41.465342
 20
-2.349383
 30
0.0
  0
VERTEX
  5
80
100
AcDbEntity
  8
LIVELLO_1
 62
     7
100
AcDbVertex
100
AcDb2dVertex
 10
-41.465342
 20
-3.733622
 30
0.0
  0
VERTEX
  5
81
100
AcDbEntity
  8
LIVELLO_1
 62
     7
100
AcDbVertex
100
AcDb2dVertex
 10
-44.238127
 20
-3.733622
 30
0.0
  0
VERTEX
  5
82
100
AcDbEntity
  8
LIVELLO_1
 62
     7
100
AcDbVertex
100
AcDb2dVertex
 10
-44.238127
 20
-2.349383
 30
0.0
  0
SEQEND
  5
83
100
AcDbEntity
  8
LIVELLO_1
 62
     7
  0
POLYLINE
  5
78
100
AcDbEntity
  8
LIVELLO_1
 62
     7
100
AcDb2dPolyline
 66
     1
 10
0.0
 20
0.0
 30
0.0
 70
     1
  0
VERTEX
  5
79
100
AcDbEntity
  8
LIVELLO_1
 62
     7
100
AcDbVertex
100
AcDb2dVertex
 10
-41.465342
 20
0.770668
 30
0.0
  0
VERTEX
  5
7A
100
AcDbEntity
  8
LIVELLO_1
 62
     7
100
AcDbVertex
100
AcDb2dVertex
 10
-41.465342
 20
-0.615122
 30
0.0
  0
VERTEX
  5
7B
100
AcDbEntity
  8
LIVELLO_1
 62
     7
100
AcDbVertex
100
AcDb2dVertex
 10
-44.238127
 20
-0.615122
 30
0.0
  0
VERTEX
  5
7C
100
AcDbEntity
  8
LIVELLO_1
 62
     7
100
AcDbVertex
100
AcDb2dVertex
 10
-44.238127
 20
0.770668
 30
0.0
  0
SEQEND
  5
7D
100
AcDbEntity
  8
LIVELLO_1
 62
     7
  0
POLYLINE
  5
6D
100
AcDbEntity
  8
LIVELLO_1
 62
     7
100
AcDb2dPolyline
 66
     1
 10
0.0
 20
0.0
 30
0.0
 70
     1
  0
VERTEX
  5
6E
100
AcDbEntity
  8
LIVELLO_1
 62
     7
100
AcDbVertex
100
AcDb2dVertex
 10
-49.089855
 20
-0.615122
 30
0.0
  0
VERTEX
  5
6F
100
AcDbEntity
  8
LIVELLO_1
 62
     7
100
AcDbVertex
100
AcDb2dVertex
 10
-49.089855
 20
-6.53104
 30
0.0
  0
VERTEX
  5
70
100
AcDbEntity
  8
LIVELLO_1
 62
     7
100
AcDbVertex
100
AcDb2dVertex
 10
-43.544284
 20
-6.53104
 30
0.0
  0
VERTEX
  5
71
100
AcDbEntity
  8
LIVELLO_1
 62
     7
100
AcDbVertex
100
AcDb2dVertex
 10
-42.159873
 20
-6.53104
 30
0.0
  0
VERTEX
  5
72
100
AcDbEntity
  8
LIVELLO_1
 62
     7
100
AcDbVertex
100
AcDb2dVertex
 10
-42.159873
 20
-3.733622
 30
0.0
  0
VERTEX
  5
73
100
AcDbEntity
  8
LIVELLO_1
 62
     7
100
AcDbVertex
100
AcDb2dVertex
 10
-43.544284
 20
-3.733622
 30
0.0
  0
VERTEX
  5
74
100
AcDbEntity
  8
LIVELLO_1
 62
     7
100
AcDbVertex
100
AcDb2dVertex
 10
-43.544284
 20
-4.773008
 30
0.0
  0
VERTEX
  5
75
100
AcDbEntity
  8
LIVELLO_1
 62
     7
100
AcDbVertex
100
AcDb2dVertex
 10
-47.703031
 20
-4.773008
 30
0.0
  0
VERTEX
  5
76
100
AcDbEntity
  8
LIVELLO_1
 62
     7
100
AcDbVertex
100
AcDb2dVertex
 10
-47.703031
 20
-0.615122
 30
0.0
  0
SEQEND
  5
77
100
AcDbEntity
  8
LIVELLO_1
 62
     7
  0
POLYLINE
  5
65
100
AcDbEntity
  8
LIVELLO_1
 62
     7
100
AcDb2dPolyline
 66
     1
 10
0.0
 20
0.0
 30
0.0
 70
     1
  0
VERTEX
  5
66
100
AcDbEntity
  8
LIVELLO_1
 62
     7
100
AcDbVertex
100
AcDb2dVertex
 10
24.378529
 20
-1.306552
 30
0.0
  0
VERTEX
  5
67
100
AcDbEntity
  8
LIVELLO_1
 62
     7
100
AcDbVertex
100
AcDb2dVertex
 10
24.378529
 20
-4.773008
 30
0.0
  0
VERTEX
  5
68
100
AcDbEntity
  8
LIVELLO_1
 62
     7
100
AcDbVertex
100
AcDb2dVertex
 10
20.220643
 20
-4.773008
 30
0.0
  0
VERTEX
  5
69
100
AcDbEntity
  8
LIVELLO_1
 62
     7
100
AcDbVertex
100
AcDb2dVertex
 10
20.220643
 20
-3.733622
 30
0.0
  0
VERTEX
  5
6A
100
AcDbEntity
  8
LIVELLO_1
 62
     7
100
AcDbVertex
100
AcDb2dVertex
 10
20.913797
 20
-3.733622
 30
0.0
  0
VERTEX
  5
6B
100
AcDbEntity
  8
LIVELLO_1
 62
     7
100
AcDbVertex
100
AcDb2dVertex
 10
20.92551
 20
-1.306552
 30
0.0
  0
SEQEND
  5
6C
100
AcDbEntity
  8
LIVELLO_1
 62
     7
  0
SPLINE
  5
64
100
AcDbEntity
  8
LIVELLO_1
 62
     7
100
AcDbSpline
210
0.0
220
0.0
230
1.0
 70
     8
 71
     3
 72
    59
 73
    55
 74
     0
 42
0.00000001
 43
0.00000001
 40
0.0
 40
0.0
 40
0.0
 40
0.0
 40
1.0
 40
1.0
 40
1.0
 40
2.0
 40
2.0
 40
2.0
 40
3.0
 40
3.0
 40
3.0
 40
4.0
 40
4.0
 40
4.0
 40
5.0
 40
5.0
 40
5.0
 40
6.0
 40
6.0
 40
6.0
 40
7.0
 40
7.0
 40
7.0
 40
8.0
 40
8.0
 40
8.0
 40
9.0
 40
9.0
 40
9.0
 40
10.0
 40
10.0
 40
10.0
 40
11.0
 40
11.0
 40
11.0
 40
12.0
 40
12.0
 40
12.0
 40
13.0
 40
13.0
 40
13.0
 40
14.0
 40
14.0
 40
14.0
 40
15.0
 40
15.0
 40
15.0
 40
16.0
 40
16.0
 40
16.0
 40
17.0
 40
17.0
 40
17.0
 40
18.0
 40
18.0
 40
18.0
 40
18.0
 10
-11.661820475260416
 20
-4.773007541232638
 30
0.0
 10
-11.661820475260416
 20
-4.773007541232638
 30
0.0
 10
4.9716172960069436
 20
-4.773007541232638
 30
0.0
 10
15.369604492187499
 20
-4.0801988389756945
 30
0.0
 10
16.754188368055555
 20
-4.0801988389756945
 30
0.0
 10
16.754188368055555
 20
-2.6959594726562499
 30
0.0
 10
16.754188368055555
 20
-2.6959594726562499
 30
0.0
 10
16.754188368055555
 20
-2.6959594726562499
 30
0.0
 10
16.754188368055555
 20
-0.6151217990451389
 30
0.0
 10
16.754188368055555
 20
-0.6151217990451389
 30
0.0
 10
16.754188368055555
 20
-0.6151217990451389
 30
0.0
 10
20.913796657986108
 20
-0.6151217990451389
 30
0.0
 10
20.913796657986108
 20
-0.6151217990451389
 30
0.0
 10
20.913796657986108
 20
-0.6151217990451389
 30
0.0
 10
20.913796657986108
 20
-2.3476603190104166
 30
0.0
 10
20.913796657986108
 20
-2.3476603190104166
 30
0.0
 10
20.913796657986108
 20
-2.3476603190104166
 30
0.0
 10
18.14256184895833
 20
-2.3476603190104166
 30
0.0
 10
18.14256184895833
 20
-2.3476603190104166
 30
0.0
 10
18.14256184895833
 20
-2.3476603190104166
 30
0.0
 10
18.14256184895833
 20
-4.773007541232638
 30
0.0
 10
18.14256184895833
 20
-4.773007541232638
 30
0.0
 10
18.14256184895833
 20
-4.773007541232638
 30
0.0
 10
18.14256184895833
 20
-5.4661607530381939
 30
0.0
 10
17.446997070312499
 20
-6.1589694552951384
 30
0.0
 10
4.2786363389756943
 20
-6.8521226671006934
 30
0.0
 10
-11.661820475260416
 20
-6.8521226671006934
 30
0.0
 10
-11.661820475260416
 20
-6.8521226671006934
 30
0.0
 10
-11.661820475260416
 20
-6.8521226671006934
 30
0.0
 10
-27.603827582465275
 20
-6.8521226671006934
 30
0.0
 10
-40.773049587673604
 20
-6.1589694552951384
 30
0.0
 10
-41.465341525607634
 20
-5.4661607530381939
 30
0.0
 10
-41.465341525607634
 20
-4.773007541232638
 30
0.0
 10
-41.465341525607634
 20
-4.773007541232638
 30
0.0
 10
-41.465341525607634
 20
-4.773007541232638
 30
0.0
 10
-41.465341525607634
 20
-2.3476603190104166
 30
0.0
 10
-41.465341525607634
 20
-2.3476603190104166
 30
0.0
 10
-41.465341525607634
 20
-2.3476603190104166
 30
0.0
 10
-44.23640407986111
 20
-2.3476603190104166
 30
0.0
 10
-44.23640407986111
 20
-2.3476603190104166
 30
0.0
 10
-44.23640407986111
 20
-2.3476603190104166
 30
0.0
 10
-44.23640407986111
 20
-0.6151217990451389
 30
0.0
 10
-44.23640407986111
 20
-0.6151217990451389
 30
0.0
 10
-44.23640407986111
 20
-0.6151217990451389
 30
0.0
 10
-40.080929904513887
 20
-0.6151217990451389
 30
0.0
 10
-40.080929904513887
 20
-0.6151217990451389
 30
0.0
 10
-40.080929904513887
 20
-0.6151217990451389
 30
0.0
 10
-40.080929904513887
 20
-2.6959594726562499
 30
0.0
 10
-40.080929904513887
 20
-2.6959594726562499
 30
0.0
 10
-40.080929904513887
 20
-2.6959594726562499
 30
0.0
 10
-40.080929904513887
 20
-4.0801988389756945
 30
0.0
 10
-38.692556423611109
 20
-4.0801988389756945
 30
0.0
 10
-28.295947265624996
 20
-4.773007541232638
 30
0.0
 10
-11.661820475260416
 20
-4.773007541232638
 30
0.0
 10
-11.661820475260416
 20
-4.773007541232638
 30
0.0
  0
POLYLINE
  5
5E
100
AcDbEntity
  8
LIVELLO_1
 62
     7
100
AcDb2dPolyline
 66
     1
 10
0.0
 20
0.0
 30
0.0
 70
     1
  0
VERTEX
  5
5F
100
AcDbEntity
  8
LIVELLO_1
 62
     7
100
AcDbVertex
100
AcDb2dVertex
 10
20.913797
 20
-2.349383
 30
0.0
  0
VERTEX
  5
60
100
AcDbEntity
  8
LIVELLO_1
 62
     7
100
AcDbVertex
100
AcDb2dVertex
 10
20.913797
 20
-3.733622
 30
0.0
  0
VERTEX
  5
61
100
AcDbEntity
  8
LIVELLO_1
 62
     7
100
AcDbVertex
100
AcDb2dVertex
 10
18.140839
 20
-3.733622
 30
0.0
  0
VERTEX
  5
62
100
AcDbEntity
  8
LIVELLO_1
 62
     7
100
AcDbVertex
100
AcDb2dVertex
 10
18.140839
 20
-2.349383
 30
0.0
  0
SEQEND
  5
63
100
AcDbEntity
  8
LIVELLO_1
 62
     7
  0
POLYLINE
  5
58
100
AcDbEntity
  8
LIVELLO_1
 62
     7
100
AcDb2dPolyline
 66
     1
 10
0.0
 20
0.0
 30
0.0
 70
     1
  0
VERTEX
  5
59
100
AcDbEntity
  8
LIVELLO_1
 62
     7
100
AcDbVertex
100
AcDb2dVertex
 10
20.913797
 20
0.770668
 30
0.0
  0
VERTEX
  5
5A
100
AcDbEntity
  8
LIVELLO_1
 62
     7
100
AcDbVertex
100
AcDb2dVertex
 10
20.913797
 20
-0.615122
 30
0.0
  0
VERTEX
  5
5B
100
AcDbEntity
  8
LIVELLO_1
 62
     7
100
AcDbVertex
100
AcDb2dVertex
 10
18.140839
 20
-0.615122
 30
0.0
  0
VERTEX
  5
5C
100
AcDbEntity
  8
LIVELLO_1
 62
     7
100
AcDbVertex
100
AcDb2dVertex
 10
18.140839
 20
0.770668
 30
0.0
  0
SEQEND
  5
5D
100
AcDbEntity
  8
LIVELLO_1
 62
     7
  0
POLYLINE
  5
4E
100
AcDbEntity
  8
LIVELLO_1
 62
     7
100
AcDb2dPolyline
 66
     1
 10
0.0
 20
0.0
 30
0.0
 70
     1
  0
VERTEX
  5
4F
100
AcDbEntity
  8
LIVELLO_1
 62
     7
100
AcDbVertex
100
AcDb2dVertex
 10
25.766214
 20
-0.615122
 30
0.0
  0
VERTEX
  5
50
100
AcDbEntity
  8
LIVELLO_1
 62
     7
100
AcDbVertex
100
AcDb2dVertex
 10
25.766214
 20
-6.53104
 30
0.0
  0
VERTEX
  5
51
100
AcDbEntity
  8
LIVELLO_1
 62
     7
100
AcDbVertex
100
AcDb2dVertex
 10
18.834682
 20
-6.53104
 30
0.0
  0
VERTEX
  5
52
100
AcDbEntity
  8
LIVELLO_1
 62
     7
100
AcDbVertex
100
AcDb2dVertex
 10
18.834682
 20
-3.733622
 30
0.0
  0
VERTEX
  5
53
100
AcDbEntity
  8
LIVELLO_1
 62
     7
100
AcDbVertex
100
AcDb2dVertex
 10
20.220643
 20
-3.733622
 30
0.0
  0
VERTEX
  5
54
100
AcDbEntity
  8
LIVELLO_1
 62
     7
100
AcDbVertex
100
AcDb2dVertex
 10
20.220643
 20
-4.773008
 30
0.0
  0
VERTEX
  5
55
100
AcDbEntity
  8
LIVELLO_1
 62
     7
100
AcDbVertex
100
AcDb2dVertex
 10
24.378529
 20
-4.773008
 30
0.0
  0
VERTEX
  5
56
100
AcDbEntity
  8
LIVELLO_1
 62
     7
100
AcDbVertex
100
AcDb2dVertex
 10
24.378529
 20
-0.615122
 30
0.0
  0
SEQEND
  5
57
100
AcDbEntity
  8
LIVELLO_1
 62
     7
  0
POLYLINE
  5
48
100
AcDbEntity
  8
LIVELLO_1
 62
     7
100
AcDb2dPolyline
 66
     1
 10
0.0
 20
0.0
 30
0.0
 70
     1
  0
VERTEX
  5
49
100
AcDbEntity
  8
LIVELLO_1
 62
     7
100
AcDbVertex
100
AcDb2dVertex
 10
1.305519
 20
25.285623
 30
0.0
  0
VERTEX
  5
4A
100
AcDbEntity
  8
LIVELLO_1
 62
     7
100
AcDbVertex
100
AcDb2dVertex
 10
1.305519
 20
24.491184
 30
0.0
  0
VERTEX
  5
4B
100
AcDbEntity
  8
LIVELLO_1
 62
     7
100
AcDbVertex
100
AcDb2dVertex
 10
-3.767556
 20
24.491184
 30
0.0
  0
VERTEX
  5
4C
100
AcDbEntity
  8
LIVELLO_1
 62
     7
100
AcDbVertex
100
AcDb2dVertex
 10
-3.767556
 20
25.285623
 30
0.0
  0
SEQEND
  5
4D
100
AcDbEntity
  8
LIVELLO_1
 62
     7
  0
POLYLINE
  5
42
100
AcDbEntity
  8
LIVELLO_1
 62
     7
100
AcDb2dPolyline
 66
     1
 10
0.0
 20
0.0
 30
0.0
 70
     1
  0
VERTEX
  5
43
100
AcDbEntity
  8
LIVELLO_1
 62
     7
100
AcDbVertex
100
AcDb2dVertex
 10
30.099799
 20
-3.9076
 30
0.0
  0
VERTEX
  5
44
100
AcDbEntity
  8
LIVELLO_1
 62
     7
100
AcDbVertex
100
AcDb2dVertex
 10
25.916764
 20
-3.9076
 30
0.0
  0
VERTEX
  5
45
100
AcDbEntity
  8
LIVELLO_1
 62
     7
100
AcDbVertex
100
AcDb2dVertex
 10
25.766214
 20
-6.53104
 30
0.0
  0
VERTEX
  5
46
100
AcDbEntity
  8
LIVELLO_1
 62
     7
100
AcDbVertex
100
AcDb2dVertex
 10
30.099799
 20
-6.53104
 30
0.0
  0
SEQEND
  5
47
100
AcDbEntity
  8
LIVELLO_1
 62
     7
  0
POLYLINE
  5
3C
100
AcDbEntity
  8
LIVELLO_1
 62
     7
100
AcDb2dPolyline
 66
     1
 10
0.0
 20
0.0
 30
0.0
 70
     1
  0
VERTEX
  5
3D
100
AcDbEntity
  8
LIVELLO_1
 62
     7
100
AcDbVertex
100
AcDb2dVertex
 10
-53.425163
 20
-3.9076
 30
0.0
  0
VERTEX
  5
3E
100
AcDbEntity
  8
LIVELLO_1
 62
     7
100
AcDbVertex
100
AcDb2dVertex
 10
-49.240233
 20
-3.9076
 30
0.0
  0
VERTEX
  5
3F
100
AcDbEntity
  8
LIVELLO_1
 62
     7
100
AcDbVertex
100
AcDb2dVertex
 10
-49.089855
 20
-6.53104
 30
0.0
  0
VERTEX
  5
40
100
AcDbEntity
  8
LIVELLO_1
 62
     7
100
AcDbVertex
100
AcDb2dVertex
 10
-53.425163
 20
-6.53104
 30
0.0
  0
SEQEND
  5
41
100
AcDbEntity
  8
LIVELLO_1
 62
     7
  0
SPLINE
  5
3B
100
AcDbEntity
  8
LIVELLO_1
 62
     7
100
AcDbSpline
210
0.0
220
0.0
230
1.0
 70
     8
 71
     3
 72
    17
 73
    13
 74
     0
 42
0.00000001
 43
0.00000001
 40
0.0
 40
0.0
 40
0.0
 40
0.0
 40
1.0
 40
1.0
 40
1.0
 40
2.0
 40
2.0
 40
2.0
 40
3.0
 40
3.0
 40
3.0
 40
4.0
 40
4.0
 40
4.0
 40
4.0
 10
-49.063671874999997
 20
80.455726453993051
 30
0.0
 10
-46.022858344184023
 20
87.612051052517359
 30
0.0
 10
-30.260857476128468
 20
93.061330837673609
 30
0.0
 10
-11.27218017578125
 20
93.061330837673609
 30
0.0
 10
7.7147745768229159
 20
93.061330837673609
 30
0.0
 10
23.476947699652776
 20
87.612051052517359
 30
0.0
 10
26.517588975694441
 20
80.455726453993051
 30
0.0
 10
23.476947699652776
 20
73.302846950954859
 30
0.0
 10
7.7147745768229159
 20
67.851844618055551
 30
0.0
 10
-11.27218017578125
 20
67.851844618055551
 30
0.0
 10
-30.260857476128468
 20
67.851844618055551
 30
0.0
 10
-46.022858344184023
 20
73.302846950954859
 30
0.0
 10
-49.063671874999997
 20
80.455726453993051
 30
0.0
  0
SPLINE
  5
3A
100
AcDbEntity
  8
LIVELLO_1
 62
     7
100
AcDbSpline
210
0.0
220
0.0
230
1.0
 70
     8
 71
     3
 72
    47
 73
    43
 74
     0
 42
0.00000001
 43
0.00000001
 40
0.0
 40
0.0
 40
0.0
 40
0.0
 40
1.0
 40
1.0
 40
1.0
 40
2.0
 40
2.0
 40
2.0
 40
3.0
 40
3.0
 40
3.0
 40
4.0
 40
4.0
 40
4.0
 40
5.0
 40
5.0
 40
5.0
 40
6.0
 40
6.0
 40
6.0
 40
7.0
 40
7.0
 40
7.0
 40
8.0
 40
8.0
 40
8.0
 40
9.0
 40
9.0
 40
9.0
 40
10.0
 40
10.0
 40
10.0
 40
11.0
 40
11.0
 40
11.0
 40
12.0
 40
12.0
 40
12.0
 40
13.0
 40
13.0
 40
13.0
 40
14.0
 40
14.0
 40
14.0
 40
14.0
 10
-21.552861870659719
 20
68.401165093315967
 30
0.0
 10
-21.552861870659719
 20
68.401165093315967
 30
0.0
 10
-13.635860188802083
 20
92.28222249348957
 30
0.0
 10
-13.635860188802083
 20
92.28222249348957
 30
0.0
 10
-13.635860188802083
 20
92.28222249348957
 30
0.0
 10
-6.5699693467881941
 20
92.28222249348957
 30
0.0
 10
-6.5699693467881941
 20
92.28222249348957
 30
0.0
 10
-6.5699693467881941
 20
92.28222249348957
 30
0.0
 10
-9.5017456054687486
 20
89.888742404513877
 30
0.0
 10
-9.5017456054687486
 20
89.888742404513877
 30
0.0
 10
-9.5017456054687486
 20
89.888742404513877
 30
0.0
 10
-7.343221028645833
 20
87.73211263020832
 30
0.0
 10
-7.343221028645833
 20
87.73211263020832
 30
0.0
 10
-7.343221028645833
 20
87.73211263020832
 30
0.0
 10
-10.041764322916666
 20
85.394443088107636
 30
0.0
 10
-10.041764322916666
 20
85.394443088107636
 30
0.0
 10
-10.041764322916666
 20
85.394443088107636
 30
0.0
 10
-8.0632459852430554
 20
83.055223253038193
 30
0.0
 10
-8.0632459852430554
 20
83.055223253038193
 30
0.0
 10
-8.0632459852430554
 20
83.055223253038193
 30
0.0
 10
-10.760066731770833
 20
80.540303548177079
 30
0.0
 10
-10.760066731770833
 20
80.540303548177079
 30
0.0
 10
-10.760066731770833
 20
80.540303548177079
 30
0.0
 10
-8.4232584635416661
 20
78.145273166232627
 30
0.0
 10
-8.4232584635416661
 20
78.145273166232627
 30
0.0
 10
-8.4232584635416661
 20
78.145273166232627
 30
0.0
 10
-11.480091688368054
 20
75.268446180555543
 30
0.0
 10
-11.480091688368054
 20
75.268446180555543
 30
0.0
 10
-11.480091688368054
 20
75.268446180555543
 30
0.0
 10
-9.1417331271701379
 20
72.570936414930543
 30
0.0
 10
-9.1417331271701379
 20
72.570936414930543
 30
0.0
 10
-9.1417331271701379
 20
72.570936414930543
 30
0.0
 10
-12.378400336371527
 20
70.233266872829859
 30
0.0
 10
-12.378400336371527
 20
70.233266872829859
 30
0.0
 10
-12.378400336371527
 20
70.233266872829859
 30
0.0
 10
-8.9236585828993054
 20
67.878888617621527
 30
0.0
 10
-8.9236585828993054
 20
67.878888617621527
 30
0.0
 10
-9.700355360243055
 20
67.862007649739581
 30
0.0
 10
-10.484459092881943
 20
67.851844618055551
 30
0.0
 10
-11.27218017578125
 20
67.851844618055551
 30
0.0
 10
-14.834236653645831
 20
67.851844618055551
 30
0.0
 10
-18.281399197048611
 20
68.04287516276041
 30
0.0
 10
-21.552861870659719
 20
68.401165093315967
 30
0.0
  0
ELLIPSE
  5
39
100
AcDbEntity
  8
LIVELLO_1
 62
     7
100
AcDbEllipse
 10
-11.273041
 20
82.977536
 30
0.0
 11
-38.320486111111109
 21
0.0
 31
0.0
210
0.0
220
0.0
230
1.0
 40
0.394761
 41
0.0
 42
6.2831853071795862
  0
LINE
  5
38
100
AcDbEntity
  8
LIVELLO_1
 62
     7
100
AcDbLine
 10
-2.129758
 20
112.625511
 30
0.0
 11
-2.129758
 21
102.543439
 31
0.0
  0
HATCH
  5
37
100
AcDbEntity
  8
LIVELLO_1
 62
     7
100
AcDbHatch
 10
0.0
 20
0.0
 30
0.0
210
0.0
220
0.0
230
1.0
  2
SOLID
 70
     1
 71
     0
 91
        1
 92
        3
 72
     0
 73
     1
 93
        4
 10
-2.1297580295138885
 20
102.54343939887151
 10
0.2897325303819444
 20
104.15591634114583
 10
-2.1297580295138885
 20
97.702735731336801
 10
-4.5518324110243054
 20
104.15591634114583
 97
        0
 75
     2
 76
     1
 98
        1
 10
0.0
 20
0.0
  0
LINE
  5
36
100
AcDbEntity
  8
LIVELLO_1
 62
     7
100
AcDbLine
 10
-2.129758
 20
77.330508
 30
0.0
 11
-2.129758
 21
87.416025
 31
0.0
  0
HATCH
  5
35
100
AcDbEntity
  8
LIVELLO_1
 62
     7
100
AcDbHatch
 10
0.0
 20
0.0
 30
0.0
210
0.0
220
0.0
230
1.0
  2
SOLID
 70
     1
 71
     0
 91
        1
 92
        3
 72
     0
 73
     1
 93
        4
 10
-2.1297580295138885
 20
87.416025119357627
 10
-4.5518324110243054
 20
85.801825629340271
 10
-2.1297580295138885
 20
92.256728786892353
 10
0.2897325303819444
 20
85.801825629340271
 97
        0
 75
     2
 76
     1
 98
        1
 10
0.0
 20
0.0
  0
MTEXT
  5
34
100
AcDbEntity
  8
LIVELLO_1
 62
     7
100
AcDbMText
 10
-25.875595
 20
62.115305
 30
0.0
 40
6.988265
 41
0.0
 71
     1
 72
     2
  1
\fArial Narrow|b0|i0;\H6.9883;\C7;\U+00F8
  7
STD
210
0.0
220
0.0
230
1.0
 73
     1
 44
1.0
  0
MTEXT
  5
33
100
AcDbEntity
  8
LIVELLO_1
 62
     7
100
AcDbMText
 10
-18.610234
 20
62.115305
 30
0.0
 40
6.988265
 41
0.0
 71
     1
 72
     2
  1
\fArial Narrow|b0|i0;\H6.9883;\C7;\U+0032\U+0032
  7
STD
210
0.0
220
0.0
230
1.0
 73
     1
 44
1.0
  0
MTEXT
  5
32
100
AcDbEntity
  8
LIVELLO_1
 62
     7
100
AcDbMText
 10
-10.04831
 20
62.115305
 30
0.0
 40
6.988265
 41
0.0
 71
     1
 72
     2
  1
\fArial Narrow|b0|i0;\H6.9883;\C7;\U+0035
  7
STD
210
0.0
220
0.0
230
1.0
 73
     1
 44
1.0
  0
MTEXT
  5
31
100
AcDbEntity
  8
LIVELLO_1
 62
     7
100
AcDbMText
 10
3.90002
 20
107.542005
 30
0.0
 40
6.916278
 41
0.0
 71
     1
 72
     2
  1
\fArial Narrow|b0|i0;\H6.9163;\C7;\U+0035\U+002D\U+0033\U+0035
  7
STD
210
0.0
220
0.0
230
1.0
 73
     1
 44
1.0
  0
MTEXT
  5
30
100
AcDbEntity
  8
LIVELLO_1
 62
     7
100
AcDbMText
 10
55.05676
 20
17.560338
 30
0.0
 40
7.545101
 41
0.0
 71
     1
 72
     2
  1
\fArial Narrow|b0|i0;\H7.5451;\C7;\U+0031\U+0030\U+0035
  7
STD
210
0.0
220
0.0
230
1.0
 73
     1
 44
1.0
  0
LINE
  5
2F
100
AcDbEntity
  8
LIVELLO_1
 62
     7
100
AcDbLine
 10
58.130474
 20
-3.74568
 30
0.0
 11
65.847833
 21
-3.74568
 31
0.0
  0
LINE
  5
2E
100
AcDbEntity
  8
LIVELLO_1
 62
     7
100
AcDbLine
 10
62.050993
 20
6.050966
 30
0.0
 11
62.050993
 21
-3.047359
 31
0.0
  0
LINE
  5
2D
100
AcDbEntity
  8
LIVELLO_1
 62
     7
100
AcDbLine
 10
62.050993
 20
30.697696
 30
0.0
 11
62.050993
 21
21.453815
 31
0.0
  0
LINE
  5
2C
100
AcDbEntity
  8
LIVELLO_1
 62
     7
100
AcDbLine
 10
58.829484
 20
31.397394
 30
0.0
 11
65.847833
 21
31.397394
 31
0.0
  0
ENDBLK
  5
140
100
AcDbEntity
  8
LIVELLO_1
100
AcDbBlockEnd
  0
ENDSEC
  0
SECTION
  2
ENTITIES
  0
INSERT
  5
2A
100
AcDbEntity
  8
LIVELLO_1
 62
     7
100
AcDbBlockReference
  2
AI9-BLK1
 10
95.952455
 20
147.903289
 30
0.0
  0
ENDSEC
  0
SECTION
  2
OBJECTS
  0
DICTIONARY
  5
19
100
AcDbDictionary
280
     0
281
     1
  3
ACAD_GROUP
350
1A
  3
ACAD_MLINESTYLE
350
1B
  3
ACAD_LAYOUT
350
1E
  3
ACAD_PLOTSETTINGS
350
22
  3
ACAD_PLOTSTYLENAME
350
1F
  3
ACAD_WIPEOUT_VARS
350
23
  0
DICTIONARY
  5
1A
102
{ACAD_REACTORS
330
19
102
}
100
AcDbDictionary
280
     0
281
     1
  0
DICTIONARY
  5
1B
102
{ACAD_REACTORS
330
19
102
}
100
AcDbDictionary
280
     0
281
     1
  3
Standard
350
1C
  0
MLINESTYLE
  5
1C
102
{ACAD_REACTORS
330
1B
102
}
100
AcDbMlineStyle
  2
Standard
 70
     0
  3

 62
     0
 51
90.0
 52
90.0
 71
     2
 49
0.5
 62
   256
  6
ByLayer
 49
-0.5
 62
   256
  6
ByLayer
  0
ACDBDICTIONARYWDFLT
  5
1F
102
{ACAD_REACTORS
330
19
102
}
100
AcDbDictionary
281
     1
  3
Normal
350
1D
100
AcDbDictionaryWithDefault
340
1D
  0
ACDBPLACEHOLDER
  5
1D
102
{ACAD_REACTORS
330
1F
102
}
  0
LAYOUT
  5
20
102
{ACAD_REACTORS
330
1E
102
}
100
AcDbPlotSettings
  1

  2

  4

  6

 40
0.0
 41
0.0
 42
0.0
 43
0.0
 44
0.0
 45
0.0
 46
0.0
 47
0.0
 48
0.0
 49
0.0
140
0.0
141
0.0
142
1.0
143
1.0
 70
  1024
 72
     0
 73
     0
 74
     0
  7

 75
     0
147
1.0
148
0.0
149
0.0
100
AcDbLayout
  1
Model
 70
     0
 71
     0
 10
0.0
 20
0.0
 11
0.0
 21
0.0
 12
0.0
 22
0.0
 32
0.0
 14
0.0
 24
0.0
 34
0.0
 15
0.0
 25
0.0
 35
0.0
146
0.0
 13
0.0
 23
0.0
 33
0.0
 16
0.0
 26
0.0
 36
0.0
 17
0.0
 27
0.0
 37
0.0
 76
     0
330
A
331
0
345
0
346
0
  0
LAYOUT
  5
21
102
{ACAD_REACTORS
330
1E
102
}
100
AcDbPlotSettings
  1

  2

  4

  6

 40
0.0
 41
0.0
 42
0.0
 43
0.0
 44
0.0
 45
0.0
 46
0.0
 47
0.0
 48
0.0
 49
0.0
140
0.0
141
0.0
142
1.0
143
1.0
 70
     0
 72
     0
 73
     0
 74
     0
  7

 75
     0
147
1.0
148
0.0
149
0.0
100
AcDbLayout
  1
Layout1
 70
     0
 71
     0
 10
0.0
 20
0.0
 11
0.0
 21
0.0
 12
0.0
 22
0.0
 32
0.0
 14
0.0
 24
0.0
 34
0.0
 15
0.0
 25
0.0
 35
0.0
146
0.0
 13
0.0
 23
0.0
 33
0.0
 16
0.0
 26
0.0
 36
0.0
 17
0.0
 27
0.0
 37
0.0
 76
     0
330
B
331
0
345
0
346
0
  0
DICTIONARY
  5
1E
102
{ACAD_REACTORS
330
19
102
}
100
AcDbDictionary
280
     0
281
     1
  3
Layout1
350
21
  3
Model
350
20
  0
DICTIONARY
  5
22
102
{ACAD_REACTORS
330
19
102
}
100
AcDbDictionary
280
     0
281
     1
  0
WIPEOUTVARIABLES
  5
23
100
AcDbWipeoutVariables
 70
     1
  0
ENDSEC
  0
EOF
