  0
SECTION
  2
HEADER
  9
$ACADVER
  1
AC1015
  9
$ACADMAINTVER
 70
     6
  9
$DWGCODEPAGE
  3
ANSI_932
  9
$INSBASE
 10
0.0
 20
0.0
 30
0.0
  9
$EXTMIN
 10
16.169383
 20
17.579978
 30
1.000000E+20
  9
$EXTMAX
 10
143.175757
 20
275.266058
 30
-1.000000E+20
  9
$LIMMIN
 10
16.169383
 20
17.579978
  9
$LIMMAX
 10
143.175757
 20
275.266058
  9
$ORTHOMODE
 70
     0
  9
$REGENMODE
 70
     1
  9
$FILLMODE
 70
     1
  9
$QTEXTMODE
 70
     0
  9
$MIRRTEXT
 70
     1
  9
$LTSCALE
 40
1.0
  9
$ATTMODE
 70
     1
  9
$TEXTSIZE
 40
0.2
  9
$TRACEWID
 40
0.05
  9
$TEXTSTYLE
  7
Standard
  9
$CLAYER
  8
0
  9
$CELTYPE
  6
Continuous
  9
$CECOLOR
 62
   256
  9
$CELTSCALE
 40
1.0
  9
$DISPSILH
 70
     0
  9
$DIMSCALE
 40
1.0
  9
$DIMASZ
 40
0.18
  9
$DIMEXO
 40
0.0625
  9
$DIMDLI
 40
0.38
  9
$DIMRND
 40
0.0
  9
$DIMDLE
 40
0.0
  9
$DIMEXE
 40
0.18
  9
$DIMTP
 40
0.0
  9
$DIMTM
 40
0.0
  9
$DIMTXT
 40
0.18
  9
$DIMCEN
 40
0.09
  9
$DIMTSZ
 40
0.0
  9
$DIMTOL
 70
     0
  9
$DIMLIM
 70
     0
  9
$DIMTIH
 70
     1
  9
$DIMTOH
 70
     1
  9
$DIMSE1
 70
     0
  9
$DIMSE2
 70
     0
  9
$DIMTAD
 70
     0
  9
$DIMZIN
 70
     0
  9
$DIMBLK
  1

  9
$DIMASO
 70
     1
  9
$DIMSHO
 70
     1
  9
$DIMPOST
  1

  9
$DIMAPOST
  1

  9
$DIMALT
 70
     0
  9
$DIMALTD
 70
     2
  9
$DIMALTF
 40
25.4
  9
$DIMLFAC
 40
1.0
  9
$DIMTOFL
 70
     0
  9
$DIMTVP
 40
0.0
  9
$DIMTIX
 70
     0
  9
$DIMSOXD
 70
     0
  9
$DIMSAH
 70
     0
  9
$DIMBLK1
  1

  9
$DIMBLK2
  1

  9
$DIMSTYLE
  2
Standard
  9
$DIMCLRD
 70
     0
  9
$DIMCLRE
 70
     0
  9
$DIMCLRT
 70
     0
  9
$DIMTFAC
 40
1.0
  9
$DIMGAP
 40
0.09
  9
$DIMJUST
 70
     0
  9
$DIMSD1
 70
     0
  9
$DIMSD2
 70
     0
  9
$DIMTOLJ
 70
     1
  9
$DIMTZIN
 70
     0
  9
$DIMALTZ
 70
     0
  9
$DIMALTTZ
 70
     0
  9
$DIMUPT
 70
     0
  9
$DIMDEC
 70
     4
  9
$DIMTDEC
 70
     4
  9
$DIMALTU
 70
     2
  9
$DIMALTTD
 70
     2
  9
$DIMTXSTY
  7
Standard
  9
$DIMAUNIT
 70
     0
  9
$DIMADEC
 70
     0
  9
$DIMALTRND
 40
0.0
  9
$DIMAZIN
 70
     0
  9
$DIMDSEP
 70
     0
  9
$DIMATFIT
 70
     3
  9
$DIMFRAC
 70
     0
  9
$DIMLDRBLK
  1

  9
$DIMLUNIT
 70
     2
  9
$DIMLWD
 70
     0
  9
$DIMLWE
 70
     0
  9
$DIMTMOVE
 70
     0
  9
$LUNITS
 70
     2
  9
$LUPREC
 70
     4
  9
$SKETCHINC
 40
0.1
  9
$FILLETRAD
 40
0.0
  9
$AUNITS
 70
     0
  9
$AUPREC
 70
     0
  9
$MENU
  1
acad
  9
$ELEVATION
 40
0.0
  9
$PELEVATION
 40
0.0
  9
$THICKNESS
 40
0.0
  9
$LIMCHECK
 70
     0
  9
$CHAMFERA
 40
0.0
  9
$CHAMFERB
 40
0.0
  9
$CHAMFERC
 40
0.0
  9
$CHAMFERD
 40
0.0
  9
$SKPOLY
 70
     0
  9
$TDCREATE
 40
0.000000000
  9
$TDUCREATE
 40
0.000000000
  9
$TDUPDATE
 40
0.000000000
  9
$TDUUPDATE
 40
0.000000000
  9
$TDINDWG
 40
0.0000000000
  9
$TDUSRTIMER
 40
0.0000000000
  9
$USRTIMER
 70
     1
  9
$ANGBASE
 50
0.0
  9
$ANGDIR
 70
     0
  9
$PDMODE
 70
     0
  9
$PDSIZE
 40
0.0
  9
$PLINEWID
 40
0.0
  9
$SPLFRAME
 70
     0
  9
$SPLINETYPE
 70
     6
  9
$SPLINESEGS
 70
     8
  9
$HANDSEED
  5
103
  9
$SURFTAB1
 70
     6
  9
$SURFTAB2
 70
     6
  9
$SURFTYPE
 70
     6
  9
$SURFU
 70
     6
  9
$SURFV
 70
     6
  9
$UCSBASE
  2

  9
$UCSNAME
  2

  9
$UCSORG
 10
0.0
 20
0.0
 30
0.0
  9
$UCSXDIR
 10
1.0
 20
0.0
 30
0.0
  9
$UCSYDIR
 10
0.0
 20
1.0
 30
0.0
  9
$UCSORTHOREF
  2

  9
$UCSORTHOVIEW
 70
     0
  9
$UCSORGTOP
 10
0.0
 20
0.0
 30
0.0
  9
$UCSORGBOTTOM
 10
0.0
 20
0.0
 30
0.0
  9
$UCSORGLEFT
 10
0.0
 20
0.0
 30
0.0
  9
$UCSORGRIGHT
 10
0.0
 20
0.0
 30
0.0
  9
$UCSORGFRONT
 10
0.0
 20
0.0
 30
0.0
  9
$UCSORGBACK
 10
0.0
 20
0.0
 30
0.0
  9
$PUCSBASE
  2

  9
$PUCSNAME
  2

  9
$PUCSORG
 10
0.0
 20
0.0
 30
0.0
  9
$PUCSXDIR
 10
1.0
 20
0.0
 30
0.0
  9
$PUCSYDIR
 10
0.0
 20
1.0
 30
0.0
  9
$PUCSORTHOREF
  2

  9
$PUCSORTHOVIEW
 70
     0
  9
$PUCSORGTOP
 10
0.0
 20
0.0
 30
0.0
  9
$PUCSORGBOTTOM
 10
0.0
 20
0.0
 30
0.0
  9
$PUCSORGLEFT
 10
0.0
 20
0.0
 30
0.0
  9
$PUCSORGRIGHT
 10
0.0
 20
0.0
 30
0.0
  9
$PUCSORGFRONT
 10
0.0
 20
0.0
 30
0.0
  9
$PUCSORGBACK
 10
0.0
 20
0.0
 30
0.0
  9
$USERI1
 70
     0
  9
$USERI2
 70
     0
  9
$USERI3
 70
     0
  9
$USERI4
 70
     0
  9
$USERI5
 70
     0
  9
$USERR1
 40
0.0
  9
$USERR2
 40
0.0
  9
$USERR3
 40
0.0
  9
$USERR4
 40
0.0
  9
$USERR5
 40
0.0
  9
$WORLDVIEW
 70
     1
  9
$SHADEDGE
 70
     3
  9
$SHADEDIF
 70
    70
  9
$TILEMODE
 70
     1
  9
$MAXACTVP
 70
    16
  9
$PINSBASE
 10
0.0
 20
0.0
 30
0.0
  9
$PLIMCHECK
 70
     0
  9
$PEXTMIN
 10
1.000000E+20
 20
1.000000E+20
 30
1.000000E+20
  9
$PEXTMAX
 10
-1.000000E+20
 20
-1.000000E+20
 30
-1.000000E+20
  9
$PLIMMIN
 10
0.0
 20
0.0
  9
$PLIMMAX
 10
12.0
 20
9.0
  9
$UNITMODE
 70
     0
  9
$VISRETAIN
 70
     0
  9
$PLINEGEN
 70
     1
  9
$PSLTSCALE
 70
     0
  9
$TREEDEPTH
 70
  3020
  9
$CMLSTYLE
  2
Standard
  9
$CMLJUST
 70
     0
  9
$CMLSCALE
 40
1.0
  9
$PROXYGRAPHICS
 70
     0
  9
$MEASUREMENT
 70
     1
  9
$CELWEIGHT
370
     0
  9
$ENDCAPS
280
     0
  9
$JOINSTYLE
280
     0
  9
$LWDISPLAY
290
     0
  9
$INSUNITS
 70
     0
  9
$HYPERLINKBASE
  1

  9
$STYLESHEET
  1

  9
$XEDIT
290
     1
  9
$CEPSNTYPE
380
     0
  9
$PSTYLEMODE
290
     1
  9
$FINGERPRINTGUID
  2

  9
$VERSIONGUID
  2

  9
$EXTNAMES
290
     1
  9
$PSVPSCALE
 40
0.0
  0
ENDSEC
  0
SECTION
  2
CLASSES
  0
CLASS
  1
LWPOLYLINE
  2
AcDbPolyline
  3
AutoCAD 2000
 90
    32768
280
     0
281
     1
  0
CLASS
  1
IMAGE
  2
AcDbRasterImage
  3
ISM
 90
    32895
280
     0
281
     1
  0
CLASS
  1
OLE2FRAME
  2
AcDbOle2Frame
  3
AutoCAD 2000
 90
    32768
280
     0
281
     1
  0
CLASS
  1
HATCH
  2
AcDbHatch
  3
AutoCAD 2000
 90
    32768
280
     0
281
     1
  0
CLASS
  1
DICTIONARYVAR
  2
AcDbDictionaryVar
  3
AutoCAD 2000
 90
    32768
280
     0
281
     0
  0
CLASS
  1
RASTERVARIABLES
  2
AcDbRasterVariables
  3
ISM
 90
    32768
280
     0
281
     0
  0
CLASS
  1
IMAGEDEF
  2
AcDbRasterImageDef
  3
ISM
 90
    32768
280
     0
281
     0
  0
CLASS
  1
IMAGEDEF_REACTOR
  2
AcDbRasterImageDefReactor
  3
ISM
 90
    32769
280
     0
281
     0
  0
CLASS
  1
IDBUFFER
  2
AcDbIdBuffer
  3
AutoCAD 2000
 90
    32768
280
     0
281
     0
  0
CLASS
  1
SPATIAL_FILTER
  2
AcDbSpatialFilter
  3
AutoCAD 2000
 90
    32768
280
     0
281
     0
  0
CLASS
  1
XRECORD
  2
AcDbXrecord
  3
AutoCAD 2000
 90
    32768
280
     0
281
     0
  0
CLASS
  1
SORTENTSTABLE
  2
AcDbSortentsTable
  3
AutoCAD 2000
 90
    32768
280
     0
281
     0
  0
CLASS
  1
LAYER_INDEX
  2
AcDbLayerIndex
  3
AutoCAD 2000
 90
    32768
280
     0
281
     0
  0
CLASS
  1
SPATIAL_INDEX
  2
AcDbSpatialIndex
  3
AutoCAD 2000
 90
    32768
280
     0
281
     0
  0
CLASS
  1
OBJECT_PTR
  2
CAseDLPNTableRecord
  3
"ASE-LPNTableRecord"
 90
    32769
280
     0
281
     0
  0
CLASS
  1
LAYOUT
  2
AcDbLayout
  3
AutoCAD 2000
 90
        0
280
     0
281
     0
  0
CLASS
  1
PLOTSETTINGS
  2
AcDbPlotSettings
  3
AutoCAD 2000
 90
    32768
280
     0
281
     0
  0
CLASS
  1
ACDBDICTIONARYWDFLT
  2
AcDbDictionaryWithDefault
  3
AutoCAD 2000
 90
        0
280
     0
281
     0
  0
CLASS
  1
ACDBPLACEHOLDER
  2
AcDbPlaceHolder
  3
AutoCAD 2000
 90
        0
280
     0
281
     0
  0
CLASS
  1
VBA_PROJECT
  2
AcDbVbaProject
  3
acadvba
 90
    32768
280
     0
281
     0
  0
CLASS
  1
WIPEOUT
  2
AcDbWipeout
  3
WipeOut|AutoCAD Express Tool|expresstools@autodesk.com
 90
    32895
280
     0
281
     1
  0
CLASS
  1
WIPEOUTVARIABLES
  2
AcDbWipeoutVariables
  3
WipeOut|AutoCAD Express Tool|expresstools@autodesk.com
 90
        0
280
     0
281
     0
  0
CLASS
  1
RTEXT
  2
RText
  3
RText|AutoCAD Express Tool|expresstools@autodesk.com
 90
    32768
280
     0
281
     1
  0
CLASS
  1
ARCALIGNEDTEXT
  2
AcDbArcAlignedText
  3
ATEXT|AutoCAD Express Tool|expresstools@autodesk.com
 90
    32768
280
     0
281
     1
  0
ENDSEC
  0
SECTION
  2
TABLES
  0
TABLE
  2
VPORT
  5
7
100
AcDbSymbolTable
 70
     1
  0
VPORT
  5
15
100
AcDbSymbolTableRecord
100
AcDbViewportTableRecord
  2
*ACTIVE
 70
     0
 10
0.0
 20
0.0
 11
1.0
 21
1.0
 12
6.591288
 22
4.579184
 13
0.0
 23
0.0
 14
1.0
 24
1.0
 15
0.0
 25
0.0
 16
0.0
 26
0.0
 36
1.0
 17
0.0
 27
0.0
 37
0.0
 40
9.158369
 41
0.688564
 42
50.0
 43
0.0
 44
0.0
 50
0.0
 51
0.0
 71
     0
 72
   100
 73
     1
 74
     1
 75
     0
 76
     0
 77
     0
 78
     0
281
     0
 65
     0
110
0.0
120
0.0
130
0.0
111
1.0
121
0.0
131
0.0
112
0.0
122
1.0
132
0.0
345
0
346
0
 79
     0
146
0.0
  0
ENDTAB
  0
TABLE
  2
LTYPE
  5
4
100
AcDbSymbolTable
 70
     3
  0
LTYPE
  5
11
100
AcDbSymbolTableRecord
100
AcDbLinetypeTableRecord
  2
ByBlock
 70
    64
  3

 72
    65
 73
     0
 40
0.0
  0
LTYPE
  5
12
100
AcDbSymbolTableRecord
100
AcDbLinetypeTableRecord
  2
ByLayer
 70
    64
  3

 72
    65
 73
     0
 40
0.0
  0
LTYPE
  5
13
100
AcDbSymbolTableRecord
100
AcDbLinetypeTableRecord
  2
Continuous
 70
    64
  3
Solid line
 72
    65
 73
     0
 40
0.0
  0
ENDTAB
  0
TABLE
  2
LAYER
  5
2
100
AcDbSymbolTable
 70
     2
  0
LAYER
  5
14
100
AcDbSymbolTableRecord
100
AcDbLayerTableRecord
  2
0
 70
     0
 62
     7
  6
Continuous
290
     1
370
    -3
390
1D
  0
LAYER
  5
28
100
AcDbSymbolTableRecord
100
AcDbLayerTableRecord
  2
LIVELLO_1
 70
     0
 62
   160
  6
Continuous
290
     1
370
    -3
390
1D
  0
ENDTAB
  0
TABLE
  2
STYLE
  5
3
100
AcDbSymbolTable
 70
     5
  0
STYLE
  5
17
100
AcDbSymbolTableRecord
100
AcDbTextStyleTableRecord
  2
Standard
 70
     0
 40
0.0
 41
1.0
 50
0.0
 71
     0
 42
0.0
  3
txt
  4

  0
STYLE
  5
24
100
AcDbSymbolTableRecord
100
AcDbTextStyleTableRecord
  2
STD
 70
     0
 40
0.0
 41
1.0
 50
0.0
 71
     0
 42
0.0
  3
txt
  4

  0
STYLE
  5
25
100
AcDbSymbolTableRecord
100
AcDbTextStyleTableRecord
  2
TATESTD
 70
     4
 40
0.0
 41
1.0
 50
0.0
 71
     0
 42
0.0
  3
txt
  4

  0
STYLE
  5
26
100
AcDbSymbolTableRecord
100
AcDbTextStyleTableRecord
  2
KANJISTD
 70
     0
 40
0.0
 41
1.0
 50
0.0
 71
     0
 42
0.0
  3
txt
  4
extfont
  0
STYLE
  5
27
100
AcDbSymbolTableRecord
100
AcDbTextStyleTableRecord
  2
KANJITATE
 70
     4
 40
0.0
 41
1.0
 50
0.0
 71
     0
 42
0.0
  3
txt
  4
extfont
  0
ENDTAB
  0
TABLE
  2
VIEW
  5
5
100
AcDbSymbolTable
 70
     0
  0
ENDTAB
  0
TABLE
  2
UCS
  5
6
100
AcDbSymbolTable
 70
     0
  0
ENDTAB
  0
TABLE
  2
APPID
  5
8
100
AcDbSymbolTable
 70
     1
  0
APPID
  5
16
100
AcDbSymbolTableRecord
100
AcDbRegAppTableRecord
  2
ACAD
 70
     0
  0
ENDTAB
  0
TABLE
  2
DIMSTYLE
  5
9
100
AcDbSymbolTable
 70
     1
100
AcDbDimStyleTable
 71
     0
  0
DIMSTYLE
105
18
100
AcDbSymbolTableRecord
100
AcDbDimStyleTableRecord
  2
Standard
 70
     0
  3

  4

 40
1.0
 41
0.18
 42
0.0625
 43
0.38
 44
0.18
 45
0.0
 46
0.0
 47
0.0
 48
0.0
 71
     0
 72
     0
 73
     1
 74
     1
 75
     0
 76
     0
 77
     0
 78
     0
 79
     0
140
0.18
141
0.09
142
0.0
143
25.4
144
1.0
145
0.0
146
1.0
147
0.09
148
0.0
170
     0
171
     2
172
     0
173
     0
174
     0
175
     0
176
     0
177
     0
178
     0
179
     0
271
     4
272
     4
273
     2
274
     2
275
     0
276
     0
277
     2
278
    46
279
     0
280
     0
281
     0
282
     0
283
     1
284
     0
285
     0
286
     0
288
     0
340
17
341
0
342
0
343
0
344
0
371
    -2
372
    -2
  0
ENDTAB
  0
TABLE
  2
BLOCK_RECORD
  5
1
100
AcDbSymbolTable
 70
     4
  0
BLOCK_RECORD
  5
A
100
AcDbSymbolTableRecord
100
AcDbBlockTableRecord
  2
*MODEL_SPACE
340
20
  0
BLOCK_RECORD
  5
B
100
AcDbSymbolTableRecord
100
AcDbBlockTableRecord
  2
*PAPER_SPACE
340
21
  0
BLOCK_RECORD
  5
29
100
AcDbSymbolTableRecord
100
AcDbBlockTableRecord
  2
AI9-BLK1
340
0
102
{BLKREFS
331
2A
102
}
  0
BLOCK_RECORD
  5
DD
100
AcDbSymbolTableRecord
100
AcDbBlockTableRecord
  2
AI9-BLK2
340
0
102
{BLKREFS
331
DE
102
}
  0
BLOCK_RECORD
  5
E0
100
AcDbSymbolTableRecord
100
AcDbBlockTableRecord
  2
AI9-BLK3
340
0
102
{BLKREFS
331
E1
102
}
  0
BLOCK_RECORD
  5
E3
100
AcDbSymbolTableRecord
100
AcDbBlockTableRecord
  2
AI9-BLK4
340
0
102
{BLKREFS
331
E4
102
}
  0
ENDTAB
  0
ENDSEC
  0
SECTION
  2
BLOCKS
  0
BLOCK
  5
D
100
AcDbEntity
  8
0
100
AcDbBlockBegin
  2
*MODEL_SPACE
 70
     0
 10
0.0
 20
0.0
 30
0.0
  3
*MODEL_SPACE
  1

  0
ENDBLK
  5
E
100
AcDbEntity
  8
0
100
AcDbBlockEnd
  0
BLOCK
  5
F
100
AcDbEntity
 67
     1
  8
0
100
AcDbBlockBegin
  2
*PAPER_SPACE
 70
     0
 10
0.0
 20
0.0
 30
0.0
  3
*PAPER_SPACE
  1

  0
ENDBLK
  5
10
100
AcDbEntity
 67
     1
  8
0
100
AcDbBlockEnd
  0
BLOCK
  5
2B
100
AcDbEntity
  8
LIVELLO_1
 62
     7
100
AcDbBlockBegin
  2
AI9-BLK1
 70
     0
 10
0.0
 20
0.0
 30
0.0
  3
AI9-BLK1
  1

  0
SPLINE
  5
101
100
AcDbEntity
  8
LIVELLO_1
 62
     7
100
AcDbSpline
210
0.0
220
0.0
230
1.0
 70
     8
 71
     3
 72
    20
 73
    16
 74
     0
 42
0.00000001
 43
0.00000001
 40
0.0
 40
0.0
 40
0.0
 40
0.0
 40
1.0
 40
1.0
 40
1.0
 40
2.0
 40
2.0
 40
2.0
 40
3.0
 40
3.0
 40
3.0
 40
4.0
 40
4.0
 40
4.0
 40
5.0
 40
5.0
 40
5.0
 40
5.0
 10
-41.341576470269096
 20
-103.14090508355034
 30
0.0
 10
-41.341576470269096
 20
-103.14090508355034
 30
0.0
 10
-41.341576470269096
 20
-58.256134033203118
 30
0.0
 10
-41.341576470269096
 20
-58.256134033203118
 30
0.0
 10
-42.868098280164929
 20
-60.032080756293396
 30
0.0
 10
-44.186708577473958
 20
-61.967879909939228
 30
0.0
 10
-45.334786648220479
 20
-64.032870144314231
 30
0.0
 10
-45.334786648220479
 20
-64.032870144314231
 30
0.0
 10
-45.331341552734372
 20
-97.506106906467011
 30
0.0
 10
-45.331341552734372
 20
-97.506106906467011
 30
0.0
 10
-44.205484347873259
 20
-99.520798746744788
 30
0.0
 10
-42.882567681206595
 20
-101.40629950629339
 30
0.0
 10
-41.394458685980901
 20
-103.13918253580728
 30
0.0
 10
-41.394458685980901
 20
-103.13918253580728
 30
0.0
 10
-41.341576470269096
 20
-103.14090508355034
 30
0.0
 10
-41.341576470269096
 20
-103.14090508355034
 30
0.0
  0
SPLINE
  5
100
100
AcDbEntity
  8
LIVELLO_1
 62
     7
100
AcDbSpline
210
0.0
220
0.0
230
1.0
 70
     8
 71
     3
 72
    20
 73
    16
 74
     0
 42
0.00000001
 43
0.00000001
 40
0.0
 40
0.0
 40
0.0
 40
0.0
 40
1.0
 40
1.0
 40
1.0
 40
2.0
 40
2.0
 40
2.0
 40
3.0
 40
3.0
 40
3.0
 40
4.0
 40
4.0
 40
4.0
 40
5.0
 40
5.0
 40
5.0
 40
5.0
 10
-35.747947184244786
 20
-108.28787773980034
 30
0.0
 10
-35.747947184244786
 20
-108.28787773980034
 30
0.0
 10
-35.747947184244786
 20
-53.043015543619788
 30
0.0
 10
-35.747947184244786
 20
-53.043015543619788
 30
0.0
 10
-37.175077989366315
 20
-54.106861029730901
 30
0.0
 10
-38.516081407335065
 20
-55.287150743272562
 30
0.0
 10
-39.763722737630204
 20
-56.564592149522561
 30
0.0
 10
-39.763722737630204
 20
-56.564592149522561
 30
0.0
 10
-39.744946967230902
 20
-104.90444946289061
 30
0.0
 10
-39.744946967230902
 20
-104.90444946289061
 30
0.0
 10
-38.512464057074652
 20
-106.14399481879339
 30
0.0
 10
-37.189375135633675
 20
-107.29052259657117
 30
0.0
 10
-35.784637451171875
 20
-108.33473103841145
 30
0.0
 10
-35.784637451171875
 20
-108.33473103841145
 30
0.0
 10
-35.747947184244786
 20
-108.28787773980034
 30
0.0
 10
-35.747947184244786
 20
-108.28787773980034
 30
0.0
  0
SPLINE
  5
FF
100
AcDbEntity
  8
LIVELLO_1
 62
     7
100
AcDbSpline
210
0.0
220
0.0
230
1.0
 70
     8
 71
     3
 72
    20
 73
    16
 74
     0
 42
0.00000001
 43
0.00000001
 40
0.0
 40
0.0
 40
0.0
 40
0.0
 40
1.0
 40
1.0
 40
1.0
 40
2.0
 40
2.0
 40
2.0
 40
3.0
 40
3.0
 40
3.0
 40
4.0
 40
4.0
 40
4.0
 40
5.0
 40
5.0
 40
5.0
 40
5.0
 10
-30.156212700737843
 20
-111.73779635959201
 30
0.0
 10
-30.156212700737843
 20
-111.73779635959201
 30
0.0
 10
-30.156212700737843
 20
-49.661309814453119
 30
0.0
 10
-30.156212700737843
 20
-49.661309814453119
 30
0.0
 10
-31.528566487630204
 20
-50.316222466362845
 30
0.0
 10
-32.887484402126731
 20
-51.082067192925344
 30
0.0
 10
-34.149595133463535
 20
-51.912679714626734
 30
0.0
 10
-34.149595133463535
 20
-51.912679714626734
 30
0.0
 10
-34.149595133463535
 20
-109.4864264594184
 30
0.0
 10
-34.149595133463535
 20
-109.4864264594184
 30
0.0
 10
-32.915217420789929
 20
-110.29188978407117
 30
0.0
 10
-31.539246283637151
 20
-111.06152411566839
 30
0.0
 10
-30.198242865668401
 20
-111.70541246202257
 30
0.0
 10
-30.198242865668401
 20
-111.70541246202257
 30
0.0
 10
-30.156212700737843
 20
-111.73779635959201
 30
0.0
 10
-30.156212700737843
 20
-111.73779635959201
 30
0.0
  0
SPLINE
  5
FE
100
AcDbEntity
  8
LIVELLO_1
 62
     7
100
AcDbSpline
210
0.0
220
0.0
230
1.0
 70
     8
 71
     3
 72
    20
 73
    16
 74
     0
 42
0.00000001
 43
0.00000001
 40
0.0
 40
0.0
 40
0.0
 40
0.0
 40
1.0
 40
1.0
 40
1.0
 40
2.0
 40
2.0
 40
2.0
 40
3.0
 40
3.0
 40
3.0
 40
4.0
 40
4.0
 40
4.0
 40
5.0
 40
5.0
 40
5.0
 40
5.0
 10
-24.561722140842011
 20
-113.85446302625867
 30
0.0
 10
-24.561722140842011
 20
-113.85446302625867
 30
0.0
 10
-24.561722140842011
 20
-47.616301133897565
 30
0.0
 10
-24.561722140842011
 20
-47.616301133897565
 30
0.0
 10
-25.949406602647567
 20
-47.996639675564232
 30
0.0
 10
-27.248207600911456
 20
-48.411084662543395
 30
0.0
 10
-28.555965847439232
 20
-48.956443277994786
 30
0.0
 10
-28.555965847439232
 20
-48.956443277994786
 30
0.0
 10
-28.555965847439232
 20
-112.37445000542533
 30
0.0
 10
-28.555965847439232
 20
-112.37445000542533
 30
0.0
 10
-27.248207600911456
 20
-112.91980862087672
 30
0.0
 10
-25.921501329210066
 20
-113.44553019205728
 30
0.0
 10
-24.540190294053819
 20
-113.82759128146701
 30
0.0
 10
-24.540190294053819
 20
-113.82759128146701
 30
0.0
 10
-24.561722140842011
 20
-113.85446302625867
 30
0.0
 10
-24.561722140842011
 20
-113.85446302625867
 30
0.0
  0
SPLINE
  5
FD
100
AcDbEntity
  8
LIVELLO_1
 62
     7
100
AcDbSpline
210
0.0
220
0.0
230
1.0
 70
     8
 71
     3
 72
    17
 73
    13
 74
     0
 42
0.00000001
 43
0.00000001
 40
0.0
 40
0.0
 40
0.0
 40
0.0
 40
1.0
 40
1.0
 40
1.0
 40
2.0
 40
2.0
 40
2.0
 40
3.0
 40
3.0
 40
3.0
 40
4.0
 40
4.0
 40
4.0
 40
4.0
 10
-18.968092854817705
 20
-46.559690348307285
 30
0.0
 10
-20.327872043185764
 20
-46.699561225043396
 30
0.0
 10
-21.661813015407983
 20
-46.898687744140624
 30
0.0
 10
-22.964231363932289
 20
-47.191176350911455
 30
0.0
 10
-22.964231363932289
 20
-47.191176350911455
 30
0.0
 10
-22.964231363932289
 20
-114.20620727539061
 30
0.0
 10
-22.964231363932289
 20
-114.20620727539061
 30
0.0
 10
-21.658195665147566
 20
-114.50214097764756
 30
0.0
 10
-20.338724093967013
 20
-114.73916354709201
 30
0.0
 10
-18.983423529730899
 20
-114.88075697157117
 30
0.0
 10
-18.983423529730899
 20
-114.88075697157117
 30
0.0
 10
-18.968092854817705
 20
-46.559690348307285
 30
0.0
 10
-18.968092854817705
 20
-46.559690348307285
 30
0.0
  0
SPLINE
  5
FC
100
AcDbEntity
  8
LIVELLO_1
 62
     7
100
AcDbSpline
210
0.0
220
0.0
230
1.0
 70
     8
 71
     3
 72
    14
 73
    10
 74
     0
 42
0.00000001
 43
0.00000001
 40
0.0
 40
0.0
 40
0.0
 40
0.0
 40
1.0
 40
1.0
 40
1.0
 40
2.0
 40
2.0
 40
2.0
 40
3.0
 40
3.0
 40
3.0
 40
3.0
 10
-47.023055691189235
 20
-67.315701633029505
 30
0.0
 10
-48.766618516710068
 20
-71.430868191189234
 30
0.0
 10
-49.730900743272564
 20
-75.957034640842011
 30
0.0
 10
-49.730900743272564
 20
-80.709543863932282
 30
0.0
 10
-49.730900743272564
 20
-85.500982666015616
 30
0.0
 10
-48.722693549262146
 20
-90.050575764973956
 30
0.0
 10
-46.952086724175345
 20
-94.192958577473945
 30
0.0
 10
-46.952086724175345
 20
-94.192958577473945
 30
0.0
 10
-46.943990749782984
 20
-67.276083034939234
 30
0.0
 10
-46.943990749782984
 20
-67.276083034939234
 30
0.0
  0
SPLINE
  5
FB
100
AcDbEntity
  8
LIVELLO_1
 62
     7
100
AcDbSpline
210
0.0
220
0.0
230
1.0
 70
     8
 71
     3
 72
    23
 73
    19
 74
     0
 42
0.00000001
 43
0.00000001
 40
0.0
 40
0.0
 40
0.0
 40
0.0
 40
1.0
 40
1.0
 40
1.0
 40
2.0
 40
2.0
 40
2.0
 40
3.0
 40
3.0
 40
3.0
 40
4.0
 40
4.0
 40
4.0
 40
5.0
 40
5.0
 40
5.0
 40
6.0
 40
6.0
 40
6.0
 40
6.0
 10
-17.370602077907986
 20
-114.9310553656684
 30
0.0
 10
-16.722062852647568
 20
-114.968606906467
 30
0.0
 10
-16.033216010199652
 20
-115.0674811469184
 30
0.0
 10
-15.372963460286456
 20
-115.0674811469184
 30
0.0
 10
-14.706509738498262
 20
-115.0674811469184
 30
0.0
 10
-14.032132297092012
 20
-115.04233194986978
 30
0.0
 10
-13.376358371310763
 20
-115.00271335177951
 30
0.0
 10
-13.376358371310763
 20
-115.00271335177951
 30
0.0
 10
-13.388071695963541
 20
-46.410517713758679
 30
0.0
 10
-13.388071695963541
 20
-46.410517713758679
 30
0.0
 10
-14.047290717230901
 20
-46.372966172960062
 30
0.0
 10
-14.706509738498262
 20
-46.353329128689232
 30
0.0
 10
-15.372963460286456
 20
-46.353329128689232
 30
0.0
 10
-16.033216010199652
 20
-46.353329128689232
 30
0.0
 10
-16.688989935980903
 20
-46.371243625217012
 30
0.0
 10
-17.337356906467011
 20
-46.408795166015622
 30
0.0
 10
-17.337356906467011
 20
-46.408795166015622
 30
0.0
 10
-17.370602077907986
 20
-114.9310553656684
 30
0.0
 10
-17.370602077907986
 20
-114.9310553656684
 30
0.0
  0
SPLINE
  5
FA
100
AcDbEntity
  8
LIVELLO_1
 62
     7
100
AcDbSpline
210
0.0
220
0.0
230
1.0
 70
     8
 71
     3
 72
    20
 73
    16
 74
     0
 42
0.00000001
 43
0.00000001
 40
0.0
 40
0.0
 40
0.0
 40
0.0
 40
1.0
 40
1.0
 40
1.0
 40
2.0
 40
2.0
 40
2.0
 40
3.0
 40
3.0
 40
3.0
 40
4.0
 40
4.0
 40
4.0
 40
5.0
 40
5.0
 40
5.0
 40
5.0
 10
10.594616021050346
 20
-58.277838134765616
 30
0.0
 10
10.594616021050346
 20
-58.277838134765616
 30
0.0
 10
10.594616021050346
 20
-103.1643317328559
 30
0.0
 10
10.594616021050346
 20
-103.1643317328559
 30
0.0
 10
12.119415283203123
 20
-101.38838500976561
 30
0.0
 10
13.438025580512152
 20
-99.450863308376725
 30
0.0
 10
14.587826199001734
 20
-97.385873074001722
 30
0.0
 10
14.587826199001734
 20
-97.385873074001722
 30
0.0
 10
14.584381103515623
 20
-63.916081407335064
 30
0.0
 10
14.584381103515623
 20
-63.916081407335064
 30
0.0
 10
13.456801350911457
 20
-61.899667019314229
 30
0.0
 10
12.135607231987846
 20
-60.014166259765616
 30
0.0
 10
10.643880886501735
 20
-58.279560682508674
 30
0.0
 10
10.643880886501735
 20
-58.279560682508674
 30
0.0
 10
10.594616021050346
 20
-58.277838134765616
 30
0.0
 10
10.594616021050346
 20
-58.277838134765616
 30
0.0
  0
SPLINE
  5
F9
100
AcDbEntity
  8
LIVELLO_1
 62
     7
100
AcDbSpline
210
0.0
220
0.0
230
1.0
 70
     8
 71
     3
 72
    20
 73
    16
 74
     0
 42
0.00000001
 43
0.00000001
 40
0.0
 40
0.0
 40
0.0
 40
0.0
 40
1.0
 40
1.0
 40
1.0
 40
2.0
 40
2.0
 40
2.0
 40
3.0
 40
3.0
 40
3.0
 40
4.0
 40
4.0
 40
4.0
 40
5.0
 40
5.0
 40
5.0
 40
5.0
 10
4.99909193250868
 20
-53.132588026258674
 30
0.0
 10
4.99909193250868
 20
-53.132588026258674
 30
0.0
 10
4.99909193250868
 20
-108.37951727973089
 30
0.0
 10
4.99909193250868
 20
-108.37951727973089
 30
0.0
 10
6.4281175401475688
 20
-107.31567179361979
 30
0.0
 10
7.7691209581163188
 20
-106.13331502278645
 30
0.0
 10
9.0167622884114582
 20
-104.85794067382811
 30
0.0
 10
9.0167622884114582
 20
-104.85794067382811
 30
0.0
 10
8.9924743652343739
 20
-56.514293755425342
 30
0.0
 10
8.9924743652343739
 20
-56.514293755425342
 30
0.0
 10
7.7655036078559023
 20
-55.274748399522565
 30
0.0
 10
6.4432759602864573
 20
-54.128220621744788
 30
0.0
 10
5.0376770019531243
 20
-53.086079237196174
 30
0.0
 10
5.0376770019531243
 20
-53.086079237196174
 30
0.0
 10
4.99909193250868
 20
-53.132588026258674
 30
0.0
 10
4.99909193250868
 20
-53.132588026258674
 30
0.0
  0
SPLINE
  5
F8
100
AcDbEntity
  8
LIVELLO_1
 62
     7
100
AcDbSpline
210
0.0
220
0.0
230
1.0
 70
     8
 71
     3
 72
    20
 73
    16
 74
     0
 42
0.00000001
 43
0.00000001
 40
0.0
 40
0.0
 40
0.0
 40
0.0
 40
1.0
 40
1.0
 40
1.0
 40
2.0
 40
2.0
 40
2.0
 40
3.0
 40
3.0
 40
3.0
 40
4.0
 40
4.0
 40
4.0
 40
5.0
 40
5.0
 40
5.0
 40
5.0
 10
-0.5943650987413194
 20
-49.684736463758675
 30
0.0
 10
-0.5943650987413194
 20
-49.684736463758675
 30
0.0
 10
-0.5943650987413194
 20
-111.76294555664062
 30
0.0
 10
-0.5943650987413194
 20
-111.76294555664062
 30
0.0
 10
0.7779886881510416
 20
-111.10458780924478
 30
0.0
 10
2.1405239529079858
 20
-110.34012112087673
 30
0.0
 10
3.4024624294704857
 20
-109.50778605143228
 30
0.0
 10
3.4024624294704857
 20
-109.50778605143228
 30
0.0
 10
3.4024624294704857
 20
-51.934383816189232
 30
0.0
 10
3.4024624294704857
 20
-51.934383816189232
 30
0.0
 10
2.166534423828125
 20
-51.130643039279512
 30
0.0
 10
0.7922858344184027
 20
-50.359286159939231
 30
0.0
 10
-0.5487175835503472
 20
-49.715053304036452
 30
0.0
 10
-0.5487175835503472
 20
-49.715053304036452
 30
0.0
 10
-0.5943650987413194
 20
-49.684736463758675
 30
0.0
 10
-0.5943650987413194
 20
-49.684736463758675
 30
0.0
  0
SPLINE
  5
F7
100
AcDbEntity
  8
LIVELLO_1
 62
     7
100
AcDbSpline
210
0.0
220
0.0
230
1.0
 70
     8
 71
     3
 72
    20
 73
    16
 74
     0
 42
0.00000001
 43
0.00000001
 40
0.0
 40
0.0
 40
0.0
 40
0.0
 40
1.0
 40
1.0
 40
1.0
 40
2.0
 40
2.0
 40
2.0
 40
3.0
 40
3.0
 40
3.0
 40
4.0
 40
4.0
 40
4.0
 40
5.0
 40
5.0
 40
5.0
 40
5.0
 10
-6.184377034505208
 20
-47.566002739800346
 30
0.0
 10
-6.184377034505208
 20
-47.566002739800346
 30
0.0
 10
-6.184377034505208
 20
-113.80623168945311
 30
0.0
 10
-6.184377034505208
 20
-113.80623168945311
 30
0.0
 10
-4.7994486490885411
 20
-113.4241706000434
 30
0.0
 10
-3.4987528483072912
 20
-113.00800306532118
 30
0.0
 10
-2.1909946017795137
 20
-112.46264444986979
 30
0.0
 10
-2.1909946017795137
 20
-112.46264444986979
 30
0.0
 10
-2.1909946017795137
 20
-49.046015760633679
 30
0.0
 10
-2.1909946017795137
 20
-49.046015760633679
 30
0.0
 10
-3.4987528483072912
 20
-48.498934597439231
 30
0.0
 10
-4.8254591200086798
 20
-47.974935574001734
 30
0.0
 10
-6.2121100531684021
 20
-47.591151936848952
 30
0.0
 10
-6.2121100531684021
 20
-47.591151936848952
 30
0.0
 10
-6.184377034505208
 20
-47.566002739800346
 30
0.0
 10
-6.184377034505208
 20
-47.566002739800346
 30
0.0
  0
SPLINE
  5
F6
100
AcDbEntity
  8
LIVELLO_1
 62
     7
100
AcDbSpline
210
0.0
220
0.0
230
1.0
 70
     8
 71
     3
 72
    17
 73
    13
 74
     0
 42
0.00000001
 43
0.00000001
 40
0.0
 40
0.0
 40
0.0
 40
0.0
 40
1.0
 40
1.0
 40
1.0
 40
2.0
 40
2.0
 40
2.0
 40
3.0
 40
3.0
 40
3.0
 40
4.0
 40
4.0
 40
4.0
 40
4.0
 10
-11.780590142144096
 20
-114.85905287000867
 30
0.0
 10
-10.419088406032985
 20
-114.71918199327256
 30
0.0
 10
-9.0887647840711789
 20
-114.52005547417534
 30
0.0
 10
-7.7827290852864577
 20
-114.22756686740451
 30
0.0
 10
-7.7827290852864577
 20
-114.22756686740451
 30
0.0
 10
-7.7827290852864577
 20
-47.216325547960068
 30
0.0
 10
-7.7827290852864577
 20
-47.216325547960068
 30
0.0
 10
-9.0887647840711789
 20
-46.920047336154511
 30
0.0
 10
-10.408236355251734
 20
-46.683369276258674
 30
0.0
 10
-11.765431722005207
 20
-46.539708794487844
 30
0.0
 10
-11.765431722005207
 20
-46.539708794487844
 30
0.0
 10
-11.780590142144096
 20
-114.85905287000867
 30
0.0
 10
-11.780590142144096
 20
-114.85905287000867
 30
0.0
  0
SPLINE
  5
F5
100
AcDbEntity
  8
LIVELLO_1
 62
     7
100
AcDbSpline
210
0.0
220
0.0
230
1.0
 70
     8
 71
     3
 72
    14
 73
    10
 74
     0
 42
0.00000001
 43
0.00000001
 40
0.0
 40
0.0
 40
0.0
 40
0.0
 40
1.0
 40
1.0
 40
1.0
 40
2.0
 40
2.0
 40
2.0
 40
3.0
 40
3.0
 40
3.0
 40
3.0
 10
16.270583089192709
 20
-94.104764133029505
 30
0.0
 10
18.016212972005206
 20
-89.987875027126734
 30
0.0
 10
18.9803229437934
 20
-85.461708577473956
 30
0.0
 10
18.9803229437934
 20
-80.709543863932282
 30
0.0
 10
18.9803229437934
 20
-75.919483100043394
 30
0.0
 10
17.974010552300346
 20
-71.368167453342011
 30
0.0
 10
16.203403727213541
 20
-67.226129150390619
 30
0.0
 10
16.203403727213541
 20
-67.226129150390619
 30
0.0
 10
16.195307752821179
 20
-94.144382731119777
 30
0.0
 10
16.195307752821179
 20
-94.144382731119777
 30
0.0
  0
CIRCLE
  5
F4
100
AcDbEntity
  8
LIVELLO_1
 62
     7
100
AcDbCircle
 10
-15.332656
 20
-80.669925
 30
0.0
 40
35.524102
  0
CIRCLE
  5
F3
100
AcDbEntity
  8
LIVELLO_1
 62
     7
100
AcDbCircle
 10
-15.332656
 20
-80.669925
 30
0.0
 40
43.5088
  0
CIRCLE
  5
F2
100
AcDbEntity
  8
LIVELLO_1
 62
     7
100
AcDbCircle
 10
-15.332656
 20
-80.669925
 30
0.0
 40
47.898885
  0
CIRCLE
  5
F1
100
AcDbEntity
  8
LIVELLO_1
 62
     7
100
AcDbCircle
 10
12.391147
 20
-108.40191
 30
0.0
 40
2.024541
  0
CIRCLE
  5
F0
100
AcDbEntity
  8
LIVELLO_1
 62
     7
100
AcDbCircle
 10
12.391578
 20
-108.40191
 30
0.0
 40
1.21498
  0
CIRCLE
  5
EF
100
AcDbEntity
  8
LIVELLO_1
 62
     7
100
AcDbCircle
 10
-43.169113
 20
-108.401049
 30
0.0
 40
2.024297
  0
CIRCLE
  5
EE
100
AcDbEntity
  8
LIVELLO_1
 62
     7
100
AcDbCircle
 10
-43.168166
 20
-108.400016
 30
0.0
 40
1.214249
  0
CIRCLE
  5
ED
100
AcDbEntity
  8
LIVELLO_1
 62
     7
100
AcDbCircle
 10
-43.161018
 20
-52.83941
 30
0.0
 40
2.025515
  0
CIRCLE
  5
EC
100
AcDbEntity
  8
LIVELLO_1
 62
     7
100
AcDbCircle
 10
-43.161104
 20
-52.839238
 30
0.0
 40
1.214249
  0
CIRCLE
  5
EB
100
AcDbEntity
  8
LIVELLO_1
 62
     7
100
AcDbCircle
 10
12.391147
 20
-52.847506
 30
0.0
 40
2.02515
  0
CIRCLE
  5
EA
100
AcDbEntity
  8
LIVELLO_1
 62
     7
100
AcDbCircle
 10
12.391578
 20
-52.847506
 30
0.0
 40
1.215589
  0
CIRCLE
  5
E9
100
AcDbEntity
  8
LIVELLO_1
 62
     7
100
AcDbCircle
 10
-15.332656
 20
-80.669925
 30
0.0
 40
43.907053
  0
INSERT
  5
DE
100
AcDbEntity
  8
LIVELLO_1
 62
     7
100
AcDbBlockReference
  2
AI9-BLK2
 10
-12.351442
 20
50.710686
 30
0.0
  0
LINE
  5
DC
100
AcDbEntity
  8
LIVELLO_1
 62
     7
100
AcDbLine
 10
27.45164
 20
3.045206
 30
0.0
 11
45.828813
 21
3.045206
 31
0.0
  0
LINE
  5
DB
100
AcDbEntity
  8
LIVELLO_1
 62
     7
100
AcDbLine
 10
44.232356
 20
42.196649
 30
0.0
 11
44.232356
 21
3.845329
 31
0.0
  0
LINE
  5
DA
100
AcDbEntity
  8
LIVELLO_1
 62
     7
100
AcDbLine
 10
44.232356
 20
98.125018
 30
0.0
 11
44.232356
 21
59.771976
 31
0.0
  0
LINE
  5
D9
100
AcDbEntity
  8
LIVELLO_1
 62
     7
100
AcDbLine
 10
28.249869
 20
98.925142
 30
0.0
 11
45.828813
 21
98.925142
 31
0.0
  0
LINE
  5
D8
100
AcDbEntity
  8
LIVELLO_1
 62
     7
100
AcDbLine
 10
33.043375
 20
106.117123
 30
0.0
 11
33.043375
 21
68.562482
 31
0.0
  0
LINE
  5
D7
100
AcDbEntity
  8
LIVELLO_1
 62
     7
100
AcDbLine
 10
11.810907
 20
121.712037
 30
0.0
 11
23.455502
 21
121.712037
 31
0.0
  0
LINE
  5
D6
100
AcDbEntity
  8
LIVELLO_1
 62
     7
100
AcDbLine
 10
-31.879277
 20
121.712037
 30
0.0
 11
-13.277656
 21
121.712037
 31
0.0
  0
LINE
  5
D5
100
AcDbEntity
  8
LIVELLO_1
 62
     7
100
AcDbLine
 10
24.256487
 20
116.918703
 30
0.0
 11
24.256487
 21
123.310561
 31
0.0
  0
LINE
  5
D4
100
AcDbEntity
  8
LIVELLO_1
 62
     7
100
AcDbLine
 10
-31.879277
 20
115.006331
 30
0.0
 11
-31.879277
 21
123.310561
 31
0.0
  0
LINE
  5
D3
100
AcDbEntity
  8
LIVELLO_1
 62
     7
100
AcDbLine
 10
-10.101451
 20
76.552692
 30
0.0
 11
-10.101451
 21
80.547797
 31
0.0
  0
LINE
  5
D2
100
AcDbEntity
  8
LIVELLO_1
 62
     7
100
AcDbLine
 10
-10.900713
 20
82.144426
 30
0.0
 11
-10.900713
 21
74.956062
 31
0.0
  0
LINE
  5
D1
100
AcDbEntity
  8
LIVELLO_1
 62
     7
100
AcDbLine
 10
2.28229
 20
85.341302
 30
0.0
 11
2.28229
 21
16.629045
 31
0.0
  0
LINE
  5
D0
100
AcDbEntity
  8
LIVELLO_1
 62
     7
100
AcDbLine
 10
1.884037
 20
85.341302
 30
0.0
 11
1.884037
 21
16.629045
 31
0.0
  0
LINE
  5
CF
100
AcDbEntity
  8
LIVELLO_1
 62
     7
100
AcDbLine
 10
-14.8922
 20
86.939827
 30
0.0
 11
-14.8922
 21
53.381841
 31
0.0
  0
POLYLINE
  5
C9
100
AcDbEntity
  8
LIVELLO_1
 62
     7
100
AcDb2dPolyline
 66
     1
 10
0.0
 20
0.0
 30
0.0
 70
     1
  0
VERTEX
  5
CA
100
AcDbEntity
  8
LIVELLO_1
 62
     7
100
AcDbVertex
100
AcDb2dVertex
 10
-12.463236
 20
66.850958
 30
0.0
  0
VERTEX
  5
CB
100
AcDbEntity
  8
LIVELLO_1
 62
     7
100
AcDbVertex
100
AcDb2dVertex
 10
-10.138313
 20
66.850958
 30
0.0
  0
VERTEX
  5
CC
100
AcDbEntity
  8
LIVELLO_1
 62
     7
100
AcDbVertex
100
AcDb2dVertex
 10
-10.138313
 20
59.167534
 30
0.0
  0
VERTEX
  5
CD
100
AcDbEntity
  8
LIVELLO_1
 62
     7
100
AcDbVertex
100
AcDb2dVertex
 10
-12.463236
 20
59.167534
 30
0.0
  0
SEQEND
  5
CE
100
AcDbEntity
  8
LIVELLO_1
 62
     7
  0
POLYLINE
  5
C3
100
AcDbEntity
  8
LIVELLO_1
 62
     7
100
AcDb2dPolyline
 66
     1
 10
0.0
 20
0.0
 30
0.0
 70
     1
  0
VERTEX
  5
C4
100
AcDbEntity
  8
LIVELLO_1
 62
     7
100
AcDbVertex
100
AcDb2dVertex
 10
-10.138313
 20
67.060937
 30
0.0
  0
VERTEX
  5
C5
100
AcDbEntity
  8
LIVELLO_1
 62
     7
100
AcDbVertex
100
AcDb2dVertex
 10
-8.800927
 20
67.060937
 30
0.0
  0
VERTEX
  5
C6
100
AcDbEntity
  8
LIVELLO_1
 62
     7
100
AcDbVertex
100
AcDb2dVertex
 10
-8.800927
 20
58.957555
 30
0.0
  0
VERTEX
  5
C7
100
AcDbEntity
  8
LIVELLO_1
 62
     7
100
AcDbVertex
100
AcDb2dVertex
 10
-10.138313
 20
58.957555
 30
0.0
  0
SEQEND
  5
C8
100
AcDbEntity
  8
LIVELLO_1
 62
     7
  0
POLYLINE
  5
BD
100
AcDbEntity
  8
LIVELLO_1
 62
     7
100
AcDb2dPolyline
 66
     1
 10
0.0
 20
0.0
 30
0.0
 70
     1
  0
VERTEX
  5
BE
100
AcDbEntity
  8
LIVELLO_1
 62
     7
100
AcDbVertex
100
AcDb2dVertex
 10
-7.882292
 20
66.232047
 30
0.0
  0
VERTEX
  5
BF
100
AcDbEntity
  8
LIVELLO_1
 62
     7
100
AcDbVertex
100
AcDb2dVertex
 10
-6.623971
 20
66.232047
 30
0.0
  0
VERTEX
  5
C0
100
AcDbEntity
  8
LIVELLO_1
 62
     7
100
AcDbVertex
100
AcDb2dVertex
 10
-6.623971
 20
59.788168
 30
0.0
  0
VERTEX
  5
C1
100
AcDbEntity
  8
LIVELLO_1
 62
     7
100
AcDbVertex
100
AcDb2dVertex
 10
-7.882292
 20
59.788168
 30
0.0
  0
SEQEND
  5
C2
100
AcDbEntity
  8
LIVELLO_1
 62
     7
  0
POLYLINE
  5
B5
100
AcDbEntity
  8
LIVELLO_1
 62
     7
100
AcDb2dPolyline
 66
     1
 10
0.0
 20
0.0
 30
0.0
 70
     1
  0
VERTEX
  5
B6
100
AcDbEntity
  8
LIVELLO_1
 62
     7
100
AcDbVertex
100
AcDb2dVertex
 10
-2.909469
 20
79.749568
 30
0.0
  0
VERTEX
  5
B7
100
AcDbEntity
  8
LIVELLO_1
 62
     7
100
AcDbVertex
100
AcDb2dVertex
 10
1.884037
 20
79.749568
 30
0.0
  0
VERTEX
  5
B8
100
AcDbEntity
  8
LIVELLO_1
 62
     7
100
AcDbVertex
100
AcDb2dVertex
 10
1.884037
 20
77.351093
 30
0.0
  0
VERTEX
  5
B9
100
AcDbEntity
  8
LIVELLO_1
 62
     7
100
AcDbVertex
100
AcDb2dVertex
 10
-2.909469
 20
77.351093
 30
0.0
  0
VERTEX
  5
BA
100
AcDbEntity
  8
LIVELLO_1
 62
     7
100
AcDbVertex
100
AcDb2dVertex
 10
-3.307722
 20
78.265938
 30
0.0
  0
VERTEX
  5
BB
100
AcDbEntity
  8
LIVELLO_1
 62
     7
100
AcDbVertex
100
AcDb2dVertex
 10
-3.307722
 20
78.970976
 30
0.0
  0
SEQEND
  5
BC
100
AcDbEntity
  8
LIVELLO_1
 62
     7
  0
POLYLINE
  5
A5
100
AcDbEntity
  8
LIVELLO_1
 62
     7
100
AcDb2dPolyline
 66
     1
 10
0.0
 20
0.0
 30
0.0
  0
VERTEX
  5
A6
100
AcDbEntity
  8
LIVELLO_1
 62
     7
100
AcDbVertex
100
AcDb2dVertex
 10
21.058749
 20
9.437064
 30
0.0
  0
VERTEX
  5
A7
100
AcDbEntity
  8
LIVELLO_1
 62
     7
100
AcDbVertex
100
AcDb2dVertex
 10
19.46212
 20
9.437064
 30
0.0
  0
VERTEX
  5
A8
100
AcDbEntity
  8
LIVELLO_1
 62
     7
100
AcDbVertex
100
AcDb2dVertex
 10
19.46212
 20
15.028798
 30
0.0
  0
VERTEX
  5
A9
100
AcDbEntity
  8
LIVELLO_1
 62
     7
100
AcDbVertex
100
AcDb2dVertex
 10
-14.094833
 20
15.828922
 30
0.0
  0
VERTEX
  5
AA
100
AcDbEntity
  8
LIVELLO_1
 62
     7
100
AcDbVertex
100
AcDb2dVertex
 10
-14.094833
 20
54.180242
 30
0.0
  0
VERTEX
  5
AB
100
AcDbEntity
  8
LIVELLO_1
 62
     7
100
AcDbVertex
100
AcDb2dVertex
 10
-10.101451
 20
56.576994
 30
0.0
  0
VERTEX
  5
AC
100
AcDbEntity
  8
LIVELLO_1
 62
     7
100
AcDbVertex
100
AcDb2dVertex
 10
-10.101451
 20
75.519335
 30
0.0
  0
VERTEX
  5
AD
100
AcDbEntity
  8
LIVELLO_1
 62
     7
100
AcDbVertex
100
AcDb2dVertex
 10
1.884037
 20
76.552692
 30
0.0
  0
VERTEX
  5
AE
100
AcDbEntity
  8
LIVELLO_1
 62
     7
100
AcDbVertex
100
AcDb2dVertex
 10
1.884037
 20
80.547797
 30
0.0
  0
VERTEX
  5
AF
100
AcDbEntity
  8
LIVELLO_1
 62
     7
100
AcDbVertex
100
AcDb2dVertex
 10
-10.101451
 20
81.649366
 30
0.0
  0
VERTEX
  5
B0
100
AcDbEntity
  8
LIVELLO_1
 62
     7
100
AcDbVertex
100
AcDb2dVertex
 10
-10.101451
 20
86.141426
 30
0.0
  0
VERTEX
  5
B1
100
AcDbEntity
  8
LIVELLO_1
 62
     7
100
AcDbVertex
100
AcDb2dVertex
 10
19.46212
 20
86.939827
 30
0.0
  0
VERTEX
  5
B2
100
AcDbEntity
  8
LIVELLO_1
 62
     7
100
AcDbVertex
100
AcDb2dVertex
 10
19.46212
 20
92.533284
 30
0.0
  0
VERTEX
  5
B3
100
AcDbEntity
  8
LIVELLO_1
 62
     7
100
AcDbVertex
100
AcDb2dVertex
 10
21.058749
 20
92.533284
 30
0.0
  0
SEQEND
  5
B4
100
AcDbEntity
  8
LIVELLO_1
 62
     7
  0
SPLINE
  5
A4
100
AcDbEntity
  8
LIVELLO_1
 62
     7
100
AcDbSpline
210
0.0
220
0.0
230
1.0
 70
     8
 71
     3
 72
    80
 73
    76
 74
     0
 42
0.00000001
 43
0.00000001
 40
0.0
 40
0.0
 40
0.0
 40
0.0
 40
1.0
 40
1.0
 40
1.0
 40
2.0
 40
2.0
 40
2.0
 40
3.0
 40
3.0
 40
3.0
 40
4.0
 40
4.0
 40
4.0
 40
5.0
 40
5.0
 40
5.0
 40
6.0
 40
6.0
 40
6.0
 40
7.0
 40
7.0
 40
7.0
 40
8.0
 40
8.0
 40
8.0
 40
9.0
 40
9.0
 40
9.0
 40
10.0
 40
10.0
 40
10.0
 40
11.0
 40
11.0
 40
11.0
 40
12.0
 40
12.0
 40
12.0
 40
13.0
 40
13.0
 40
13.0
 40
14.0
 40
14.0
 40
14.0
 40
15.0
 40
15.0
 40
15.0
 40
16.0
 40
16.0
 40
16.0
 40
17.0
 40
17.0
 40
17.0
 40
18.0
 40
18.0
 40
18.0
 40
19.0
 40
19.0
 40
19.0
 40
20.0
 40
20.0
 40
20.0
 40
21.0
 40
21.0
 40
21.0
 40
22.0
 40
22.0
 40
22.0
 40
23.0
 40
23.0
 40
23.0
 40
24.0
 40
24.0
 40
24.0
 40
25.0
 40
25.0
 40
25.0
 40
25.0
 10
21.058749050564234
 20
93.333407253689231
 30
0.0
 10
21.058749050564234
 20
93.333407253689231
 30
0.0
 10
17.863595241970483
 20
93.333407253689231
 30
0.0
 10
17.863595241970483
 20
93.333407253689231
 30
0.0
 10
17.863595241970483
 20
93.333407253689231
 30
0.0
 10
17.863595241970483
 20
92.533283827039924
 30
0.0
 10
17.863595241970483
 20
92.533283827039924
 30
0.0
 10
17.863595241970483
 20
92.533283827039924
 30
0.0
 10
18.662857394748261
 20
92.533283827039924
 30
0.0
 10
18.662857394748261
 20
90.934931776258679
 30
0.0
 10
18.662857394748261
 20
90.934931776258679
 30
0.0
 10
18.662857394748261
 20
89.336407470703122
 30
0.0
 10
18.662857394748261
 20
89.336407470703122
 30
0.0
 10
18.662857394748261
 20
89.336407470703122
 30
0.0
 10
18.662857394748261
 20
87.741672770182291
 30
0.0
 10
17.863595241970483
 20
87.741672770182291
 30
0.0
 10
17.064505343967014
 20
87.741672770182291
 30
0.0
 10
-14.892200385199651
 20
86.939826795789926
 30
0.0
 10
-14.892200385199651
 20
86.939826795789926
 30
0.0
 10
-14.892200385199651
 20
86.939826795789926
 30
0.0
 10
-14.892200385199651
 20
86.141425916883676
 30
0.0
 10
-14.892200385199651
 20
86.141425916883676
 30
0.0
 10
-14.892200385199651
 20
86.141425916883676
 30
0.0
 10
-10.900712754991318
 20
86.141425916883676
 30
0.0
 10
-10.900712754991318
 20
86.141425916883676
 30
0.0
 10
-10.900712754991318
 20
86.141425916883676
 30
0.0
 10
-10.900712754991318
 20
80.662690565321171
 30
0.0
 10
-10.900712754991318
 20
80.662690565321171
 30
0.0
 10
-10.900712754991318
 20
80.662690565321171
 30
0.0
 10
-4.5052374945746525
 20
80.147821044921869
 30
0.0
 10
-4.5052374945746525
 20
80.147821044921869
 30
0.0
 10
-4.5052374945746525
 20
80.147821044921869
 30
0.0
 10
-4.5052374945746525
 20
76.952839491102424
 30
0.0
 10
-4.5052374945746525
 20
76.952839491102424
 30
0.0
 10
-4.5052374945746525
 20
76.952839491102424
 30
0.0
 10
-10.900712754991318
 20
76.506010606553815
 30
0.0
 10
-10.900712754991318
 20
76.506010606553815
 30
0.0
 10
-10.900712754991318
 20
76.506010606553815
 30
0.0
 10
-10.900712754991318
 20
67.764080810546872
 30
0.0
 10
-10.900712754991318
 20
67.764080810546872
 30
0.0
 10
-10.900712754991318
 20
67.764080810546872
 30
0.0
 10
-12.496480984157985
 20
67.764080810546872
 30
0.0
 10
-12.496480984157985
 20
67.764080810546872
 30
0.0
 10
-12.496480984157985
 20
67.764080810546872
 30
0.0
 10
-12.496480984157985
 20
58.975469970703116
 30
0.0
 10
-12.496480984157985
 20
58.975469970703116
 30
0.0
 10
-12.496480984157985
 20
58.975469970703116
 30
0.0
 10
-10.900712754991318
 20
58.175346544053816
 30
0.0
 10
-10.900712754991318
 20
58.175346544053816
 30
0.0
 10
-10.900712754991318
 20
58.175346544053816
 30
0.0
 10
-10.900712754991318
 20
57.377117919921872
 30
0.0
 10
-10.900712754991318
 20
57.377117919921872
 30
0.0
 10
-10.900712754991318
 20
57.377117919921872
 30
0.0
 10
-14.892200385199651
 20
54.980364990234371
 30
0.0
 10
-14.892200385199651
 20
54.980364990234371
 30
0.0
 10
-14.892200385199651
 20
54.980364990234371
 30
0.0
 10
-14.895817735460069
 20
15.028798421223957
 30
0.0
 10
-14.895817735460069
 20
15.028798421223957
 30
0.0
 10
-14.895817735460069
 20
15.028798421223957
 30
0.0
 10
17.064505343967014
 20
14.230569797092013
 30
0.0
 10
17.863595241970483
 20
14.230569797092013
 30
0.0
 10
18.662857394748261
 20
14.230569797092013
 30
0.0
 10
18.662857394748261
 20
12.632217746310763
 30
0.0
 10
18.662857394748261
 20
12.632217746310763
 30
0.0
 10
18.662857394748261
 20
12.632217746310763
 30
0.0
 10
18.662857394748261
 20
11.035588243272569
 30
0.0
 10
18.662857394748261
 20
11.035588243272569
 30
0.0
 10
18.662857394748261
 20
9.4370639377170136
 30
0.0
 10
17.863595241970483
 20
9.4370639377170136
 30
0.0
 10
17.863595241970483
 20
9.4370639377170136
 30
0.0
 10
17.863595241970483
 20
9.4370639377170136
 30
0.0
 10
17.863595241970483
 20
8.6369405110677082
 30
0.0
 10
17.863595241970483
 20
8.6369405110677082
 30
0.0
 10
17.863595241970483
 20
8.6369405110677082
 30
0.0
 10
21.058749050564234
 20
8.6369405110677082
 30
0.0
 10
21.058749050564234
 20
8.6369405110677082
 30
0.0
  0
LINE
  5
A3
100
AcDbEntity
  8
LIVELLO_1
 62
     7
100
AcDbLine
 10
19.860373
 20
85.341302
 30
0.0
 11
19.860373
 21
16.629045
 31
0.0
  0
POLYLINE
  5
9B
100
AcDbEntity
  8
LIVELLO_1
 62
     7
100
AcDb2dPolyline
 66
     1
 10
0.0
 20
0.0
 30
0.0
 70
     1
  0
VERTEX
  5
9C
100
AcDbEntity
  8
LIVELLO_1
 62
     7
100
AcDbVertex
100
AcDb2dVertex
 10
21.856978
 20
9.437064
 30
0.0
  0
VERTEX
  5
9D
100
AcDbEntity
  8
LIVELLO_1
 62
     7
100
AcDbVertex
100
AcDb2dVertex
 10
25.854839
 20
9.437064
 30
0.0
  0
VERTEX
  5
9E
100
AcDbEntity
  8
LIVELLO_1
 62
     7
100
AcDbVertex
100
AcDb2dVertex
 10
25.854839
 20
14.23057
 30
0.0
  0
VERTEX
  5
9F
100
AcDbEntity
  8
LIVELLO_1
 62
     7
100
AcDbVertex
100
AcDb2dVertex
 10
24.657324
 20
14.23057
 30
0.0
  0
VERTEX
  5
A0
100
AcDbEntity
  8
LIVELLO_1
 62
     7
100
AcDbVertex
100
AcDb2dVertex
 10
24.657324
 20
13.432169
 30
0.0
  0
VERTEX
  5
A1
100
AcDbEntity
  8
LIVELLO_1
 62
     7
100
AcDbVertex
100
AcDb2dVertex
 10
21.856978
 20
13.417872
 30
0.0
  0
SEQEND
  5
A2
100
AcDbEntity
  8
LIVELLO_1
 62
     7
  0
POLYLINE
  5
95
100
AcDbEntity
  8
LIVELLO_1
 62
     7
100
AcDb2dPolyline
 66
     1
 10
0.0
 20
0.0
 30
0.0
 70
     1
  0
VERTEX
  5
96
100
AcDbEntity
  8
LIVELLO_1
 62
     7
100
AcDbVertex
100
AcDb2dVertex
 10
23.055354
 20
16.629045
 30
0.0
  0
VERTEX
  5
97
100
AcDbEntity
  8
LIVELLO_1
 62
     7
100
AcDbVertex
100
AcDb2dVertex
 10
24.652845
 20
16.629045
 30
0.0
  0
VERTEX
  5
98
100
AcDbEntity
  8
LIVELLO_1
 62
     7
100
AcDbVertex
100
AcDb2dVertex
 10
24.652845
 20
13.432169
 30
0.0
  0
VERTEX
  5
99
100
AcDbEntity
  8
LIVELLO_1
 62
     7
100
AcDbVertex
100
AcDb2dVertex
 10
23.055354
 20
13.432169
 30
0.0
  0
SEQEND
  5
9A
100
AcDbEntity
  8
LIVELLO_1
 62
     7
  0
POLYLINE
  5
8F
100
AcDbEntity
  8
LIVELLO_1
 62
     7
100
AcDb2dPolyline
 66
     1
 10
0.0
 20
0.0
 30
0.0
 70
     1
  0
VERTEX
  5
90
100
AcDbEntity
  8
LIVELLO_1
 62
     7
100
AcDbVertex
100
AcDb2dVertex
 10
19.46212
 20
16.629045
 30
0.0
  0
VERTEX
  5
91
100
AcDbEntity
  8
LIVELLO_1
 62
     7
100
AcDbVertex
100
AcDb2dVertex
 10
21.058749
 20
16.629045
 30
0.0
  0
VERTEX
  5
92
100
AcDbEntity
  8
LIVELLO_1
 62
     7
100
AcDbVertex
100
AcDb2dVertex
 10
21.058749
 20
13.432169
 30
0.0
  0
VERTEX
  5
93
100
AcDbEntity
  8
LIVELLO_1
 62
     7
100
AcDbVertex
100
AcDb2dVertex
 10
19.46212
 20
13.432169
 30
0.0
  0
SEQEND
  5
94
100
AcDbEntity
  8
LIVELLO_1
 62
     7
  0
POLYLINE
  5
84
100
AcDbEntity
  8
LIVELLO_1
 62
     7
100
AcDb2dPolyline
 66
     1
 10
0.0
 20
0.0
 30
0.0
 70
     1
  0
VERTEX
  5
85
100
AcDbEntity
  8
LIVELLO_1
 62
     7
100
AcDbVertex
100
AcDb2dVertex
 10
21.058749
 20
7.838712
 30
0.0
  0
VERTEX
  5
86
100
AcDbEntity
  8
LIVELLO_1
 62
     7
100
AcDbVertex
100
AcDb2dVertex
 10
26.654101
 20
7.838712
 30
0.0
  0
VERTEX
  5
87
100
AcDbEntity
  8
LIVELLO_1
 62
     7
100
AcDbVertex
100
AcDb2dVertex
 10
30.645589
 20
14.23057
 30
0.0
  0
VERTEX
  5
88
100
AcDbEntity
  8
LIVELLO_1
 62
     7
100
AcDbVertex
100
AcDb2dVertex
 10
30.645589
 20
15.828922
 30
0.0
  0
VERTEX
  5
89
100
AcDbEntity
  8
LIVELLO_1
 62
     7
100
AcDbVertex
100
AcDb2dVertex
 10
24.657324
 20
15.828922
 30
0.0
  0
VERTEX
  5
8A
100
AcDbEntity
  8
LIVELLO_1
 62
     7
100
AcDbVertex
100
AcDb2dVertex
 10
24.657324
 20
14.23057
 30
0.0
  0
VERTEX
  5
8B
100
AcDbEntity
  8
LIVELLO_1
 62
     7
100
AcDbVertex
100
AcDb2dVertex
 10
28.729771
 20
14.23057
 30
0.0
  0
VERTEX
  5
8C
100
AcDbEntity
  8
LIVELLO_1
 62
     7
100
AcDbVertex
100
AcDb2dVertex
 10
25.854839
 20
9.437064
 30
0.0
  0
VERTEX
  5
8D
100
AcDbEntity
  8
LIVELLO_1
 62
     7
100
AcDbVertex
100
AcDb2dVertex
 10
21.058749
 20
9.437064
 30
0.0
  0
SEQEND
  5
8E
100
AcDbEntity
  8
LIVELLO_1
 62
     7
  0
POLYLINE
  5
77
100
AcDbEntity
  8
LIVELLO_1
 62
     7
100
AcDb2dPolyline
 66
     1
 10
0.0
 20
0.0
 30
0.0
 70
     1
  0
VERTEX
  5
78
100
AcDbEntity
  8
LIVELLO_1
 62
     7
100
AcDbVertex
100
AcDb2dVertex
 10
25.854839
 20
3.045206
 30
0.0
  0
VERTEX
  5
79
100
AcDbEntity
  8
LIVELLO_1
 62
     7
100
AcDbVertex
100
AcDb2dVertex
 10
25.854839
 20
7.040311
 30
0.0
  0
VERTEX
  5
7A
100
AcDbEntity
  8
LIVELLO_1
 62
     7
100
AcDbVertex
100
AcDb2dVertex
 10
17.863595
 20
7.040311
 30
0.0
  0
VERTEX
  5
7B
100
AcDbEntity
  8
LIVELLO_1
 62
     7
100
AcDbVertex
100
AcDb2dVertex
 10
17.863595
 20
7.838712
 30
0.0
  0
VERTEX
  5
7C
100
AcDbEntity
  8
LIVELLO_1
 62
     7
100
AcDbVertex
100
AcDb2dVertex
 10
17.863595
 20
11.035588
 30
0.0
  0
VERTEX
  5
7D
100
AcDbEntity
  8
LIVELLO_1
 62
     7
100
AcDbVertex
100
AcDb2dVertex
 10
13.069228
 20
11.035588
 30
0.0
  0
VERTEX
  5
7E
100
AcDbEntity
  8
LIVELLO_1
 62
     7
100
AcDbVertex
100
AcDb2dVertex
 10
13.069228
 20
9.437064
 30
0.0
  0
VERTEX
  5
7F
100
AcDbEntity
  8
LIVELLO_1
 62
     7
100
AcDbVertex
100
AcDb2dVertex
 10
16.266966
 20
9.437064
 30
0.0
  0
VERTEX
  5
80
100
AcDbEntity
  8
LIVELLO_1
 62
     7
100
AcDbVertex
100
AcDb2dVertex
 10
16.266966
 20
5.440236
 30
0.0
  0
VERTEX
  5
81
100
AcDbEntity
  8
LIVELLO_1
 62
     7
100
AcDbVertex
100
AcDb2dVertex
 10
24.256487
 20
5.440236
 30
0.0
  0
VERTEX
  5
82
100
AcDbEntity
  8
LIVELLO_1
 62
     7
100
AcDbVertex
100
AcDb2dVertex
 10
24.256487
 20
3.045206
 30
0.0
  0
SEQEND
  5
83
100
AcDbEntity
  8
LIVELLO_1
 62
     7
  0
POLYLINE
  5
6F
100
AcDbEntity
  8
LIVELLO_1
 62
     7
100
AcDb2dPolyline
 66
     1
 10
0.0
 20
0.0
 30
0.0
 70
     1
  0
VERTEX
  5
70
100
AcDbEntity
  8
LIVELLO_1
 62
     7
100
AcDbVertex
100
AcDb2dVertex
 10
21.856978
 20
92.533284
 30
0.0
  0
VERTEX
  5
71
100
AcDbEntity
  8
LIVELLO_1
 62
     7
100
AcDbVertex
100
AcDb2dVertex
 10
25.854839
 20
92.533284
 30
0.0
  0
VERTEX
  5
72
100
AcDbEntity
  8
LIVELLO_1
 62
     7
100
AcDbVertex
100
AcDb2dVertex
 10
25.854839
 20
87.741673
 30
0.0
  0
VERTEX
  5
73
100
AcDbEntity
  8
LIVELLO_1
 62
     7
100
AcDbVertex
100
AcDb2dVertex
 10
24.657324
 20
87.741673
 30
0.0
  0
VERTEX
  5
74
100
AcDbEntity
  8
LIVELLO_1
 62
     7
100
AcDbVertex
100
AcDb2dVertex
 10
24.657324
 20
88.538179
 30
0.0
  0
VERTEX
  5
75
100
AcDbEntity
  8
LIVELLO_1
 62
     7
100
AcDbVertex
100
AcDb2dVertex
 10
21.856978
 20
88.552476
 30
0.0
  0
SEQEND
  5
76
100
AcDbEntity
  8
LIVELLO_1
 62
     7
  0
SPLINE
  5
6E
100
AcDbEntity
  8
LIVELLO_1
 62
     7
100
AcDbSpline
210
0.0
220
0.0
230
1.0
 70
     8
 71
     3
 72
    20
 73
    16
 74
     0
 42
0.00000001
 43
0.00000001
 40
0.0
 40
0.0
 40
0.0
 40
0.0
 40
1.0
 40
1.0
 40
1.0
 40
2.0
 40
2.0
 40
2.0
 40
3.0
 40
3.0
 40
3.0
 40
4.0
 40
4.0
 40
4.0
 40
5.0
 40
5.0
 40
5.0
 40
5.0
 10
29.049131266276039
 20
47.390130615234369
 30
0.0
 10
29.049131266276039
 20
47.390130615234369
 30
0.0
 10
31.444850667317706
 20
47.390130615234369
 30
0.0
 10
31.444850667317706
 20
47.390130615234369
 30
0.0
 10
31.885133870442704
 20
47.390130615234369
 30
0.0
 10
32.244112820095481
 20
47.747042507595481
 30
0.0
 10
32.244112820095481
 20
48.188359239366314
 30
0.0
 10
32.244112820095481
 20
48.629675971137146
 30
0.0
 10
31.885133870442704
 20
48.986760118272564
 30
0.0
 10
31.444850667317706
 20
48.986760118272564
 30
0.0
 10
31.444850667317706
 20
48.986760118272564
 30
0.0
 10
29.049131266276039
 20
48.986760118272564
 30
0.0
 10
29.049131266276039
 20
48.986760118272564
 30
0.0
 10
29.049131266276039
 20
48.986760118272564
 30
0.0
 10
29.049131266276039
 20
47.390130615234369
 30
0.0
 10
29.049131266276039
 20
47.390130615234369
 30
0.0
  0
SPLINE
  5
6D
100
AcDbEntity
  8
LIVELLO_1
 62
     7
100
AcDbSpline
210
0.0
220
0.0
230
1.0
 70
     8
 71
     3
 72
    20
 73
    16
 74
     0
 42
0.00000001
 43
0.00000001
 40
0.0
 40
0.0
 40
0.0
 40
0.0
 40
1.0
 40
1.0
 40
1.0
 40
2.0
 40
2.0
 40
2.0
 40
3.0
 40
3.0
 40
3.0
 40
4.0
 40
4.0
 40
4.0
 40
5.0
 40
5.0
 40
5.0
 40
5.0
 10
28.977128770616318
 20
41.794778781467009
 30
0.0
 10
28.977128770616318
 20
41.794778781467009
 30
0.0
 10
31.376637776692707
 20
41.794778781467009
 30
0.0
 10
31.376637776692707
 20
41.794778781467009
 30
0.0
 10
31.81795450846354
 20
41.794778781467009
 30
0.0
 10
32.175899929470482
 20
42.153585476345484
 30
0.0
 10
32.175899929470482
 20
42.596624755859374
 30
0.0
 10
32.175899929470482
 20
43.037941487630206
 30
0.0
 10
31.81795450846354
 20
43.395025634765624
 30
0.0
 10
31.376637776692707
 20
43.395025634765624
 30
0.0
 10
31.376637776692707
 20
43.395025634765624
 30
0.0
 10
28.977128770616318
 20
43.395025634765624
 30
0.0
 10
28.977128770616318
 20
43.395025634765624
 30
0.0
 10
28.977128770616318
 20
43.395025634765624
 30
0.0
 10
28.977128770616318
 20
41.794778781467009
 30
0.0
 10
28.977128770616318
 20
41.794778781467009
 30
0.0
  0
SPLINE
  5
6C
100
AcDbEntity
  8
LIVELLO_1
 62
     7
100
AcDbSpline
210
0.0
220
0.0
230
1.0
 70
     8
 71
     3
 72
    20
 73
    16
 74
     0
 42
0.00000001
 43
0.00000001
 40
0.0
 40
0.0
 40
0.0
 40
0.0
 40
1.0
 40
1.0
 40
1.0
 40
2.0
 40
2.0
 40
2.0
 40
3.0
 40
3.0
 40
3.0
 40
4.0
 40
4.0
 40
4.0
 40
5.0
 40
5.0
 40
5.0
 40
5.0
 10
28.838291422526041
 20
36.203044297960069
 30
0.0
 10
28.838291422526041
 20
36.203044297960069
 30
0.0
 10
31.233321804470485
 20
36.203044297960069
 30
0.0
 10
31.233321804470485
 20
36.203044297960069
 30
0.0
 10
31.674294026692706
 20
36.203044297960069
 30
0.0
 10
32.032239447699652
 20
36.561850992838536
 30
0.0
 10
32.032239447699652
 20
37.003167724609369
 30
0.0
 10
32.032239447699652
 20
37.446207004123259
 30
0.0
 10
31.674294026692706
 20
37.801396348741314
 30
0.0
 10
31.233321804470485
 20
37.801396348741314
 30
0.0
 10
31.233321804470485
 20
37.801396348741314
 30
0.0
 10
28.838291422526041
 20
37.801396348741314
 30
0.0
 10
28.838291422526041
 20
37.801396348741314
 30
0.0
 10
28.838291422526041
 20
37.801396348741314
 30
0.0
 10
28.838291422526041
 20
36.203044297960069
 30
0.0
 10
28.838291422526041
 20
36.203044297960069
 30
0.0
  0
SPLINE
  5
6B
100
AcDbEntity
  8
LIVELLO_1
 62
     7
100
AcDbSpline
210
0.0
220
0.0
230
1.0
 70
     8
 71
     3
 72
    20
 73
    16
 74
     0
 42
0.00000001
 43
0.00000001
 40
0.0
 40
0.0
 40
0.0
 40
0.0
 40
1.0
 40
1.0
 40
1.0
 40
2.0
 40
2.0
 40
2.0
 40
3.0
 40
3.0
 40
3.0
 40
4.0
 40
4.0
 40
4.0
 40
5.0
 40
5.0
 40
5.0
 40
5.0
 10
28.766288926866316
 20
30.609415011935763
 30
0.0
 10
28.766288926866316
 20
30.609415011935763
 30
0.0
 10
31.162352837456595
 20
30.609415011935763
 30
0.0
 10
31.162352837456595
 20
30.609415011935763
 30
0.0
 10
31.606425645616316
 20
30.609415011935763
 30
0.0
 10
31.965060085720484
 20
30.968221706814234
 30
0.0
 10
31.965060085720484
 20
31.409538438585066
 30
0.0
 10
31.965060085720484
 20
31.84896036783854
 30
0.0
 10
31.606425645616316
 20
32.207767062717011
 30
0.0
 10
31.162352837456595
 20
32.207767062717011
 30
0.0
 10
31.162352837456595
 20
32.207767062717011
 30
0.0
 10
28.766288926866316
 20
32.207767062717011
 30
0.0
 10
28.766288926866316
 20
32.207767062717011
 30
0.0
 10
28.766288926866316
 20
32.207767062717011
 30
0.0
 10
28.766288926866316
 20
30.609415011935763
 30
0.0
 10
28.766288926866316
 20
30.609415011935763
 30
0.0
  0
SPLINE
  5
6A
100
AcDbEntity
  8
LIVELLO_1
 62
     7
100
AcDbSpline
210
0.0
220
0.0
230
1.0
 70
     8
 71
     3
 72
    20
 73
    16
 74
     0
 42
0.00000001
 43
0.00000001
 40
0.0
 40
0.0
 40
0.0
 40
0.0
 40
1.0
 40
1.0
 40
1.0
 40
2.0
 40
2.0
 40
2.0
 40
3.0
 40
3.0
 40
3.0
 40
4.0
 40
4.0
 40
4.0
 40
5.0
 40
5.0
 40
5.0
 40
5.0
 10
28.601268853081596
 20
25.017680528428816
 30
0.0
 10
28.601268853081596
 20
25.017680528428816
 30
0.0
 10
31.000088840060762
 20
25.017680528428816
 30
0.0
 10
31.000088840060762
 20
25.017680528428816
 30
0.0
 10
31.441405571831595
 20
25.017680528428816
 30
0.0
 10
31.799006483289929
 20
25.37648722330729
 30
0.0
 10
31.799006483289929
 20
25.817803955078123
 30
0.0
 10
31.799006483289929
 20
26.257225884331596
 30
0.0
 10
31.441405571831595
 20
26.616032579210067
 30
0.0
 10
31.000088840060762
 20
26.616032579210067
 30
0.0
 10
31.000088840060762
 20
26.616032579210067
 30
0.0
 10
28.601268853081596
 20
26.616032579210067
 30
0.0
 10
28.601268853081596
 20
26.616032579210067
 30
0.0
 10
28.601268853081596
 20
26.616032579210067
 30
0.0
 10
28.601268853081596
 20
25.017680528428816
 30
0.0
 10
28.601268853081596
 20
25.017680528428816
 30
0.0
  0
SPLINE
  5
69
100
AcDbEntity
  8
LIVELLO_1
 62
     7
100
AcDbSpline
210
0.0
220
0.0
230
1.0
 70
     8
 71
     3
 72
    20
 73
    16
 74
     0
 42
0.00000001
 43
0.00000001
 40
0.0
 40
0.0
 40
0.0
 40
0.0
 40
1.0
 40
1.0
 40
1.0
 40
2.0
 40
2.0
 40
2.0
 40
3.0
 40
3.0
 40
3.0
 40
4.0
 40
4.0
 40
4.0
 40
5.0
 40
5.0
 40
5.0
 40
5.0
 10
28.389739990234371
 20
19.424051242404513
 30
0.0
 10
28.389739990234371
 20
19.424051242404513
 30
0.0
 10
30.789248996310761
 20
19.424051242404513
 30
0.0
 10
30.789248996310761
 20
19.424051242404513
 30
0.0
 10
31.229532199435759
 20
19.424051242404513
 30
0.0
 10
31.588511149088539
 20
19.78113538953993
 30
0.0
 10
31.588511149088539
 20
20.224174669053816
 30
0.0
 10
31.588511149088539
 20
20.663768853081596
 30
0.0
 10
31.229532199435759
 20
21.022403293185761
 30
0.0
 10
30.789248996310761
 20
21.022403293185761
 30
0.0
 10
30.789248996310761
 20
21.022403293185761
 30
0.0
 10
28.389739990234371
 20
21.022403293185761
 30
0.0
 10
28.389739990234371
 20
21.022403293185761
 30
0.0
 10
28.389739990234371
 20
21.022403293185761
 30
0.0
 10
28.389739990234371
 20
19.424051242404513
 30
0.0
 10
28.389739990234371
 20
19.424051242404513
 30
0.0
  0
SPLINE
  5
68
100
AcDbEntity
  8
LIVELLO_1
 62
     7
100
AcDbSpline
210
0.0
220
0.0
230
1.0
 70
     8
 71
     3
 72
    59
 73
    55
 74
     0
 42
0.00000001
 43
0.00000001
 40
0.0
 40
0.0
 40
0.0
 40
0.0
 40
1.0
 40
1.0
 40
1.0
 40
2.0
 40
2.0
 40
2.0
 40
3.0
 40
3.0
 40
3.0
 40
4.0
 40
4.0
 40
4.0
 40
5.0
 40
5.0
 40
5.0
 40
6.0
 40
6.0
 40
6.0
 40
7.0
 40
7.0
 40
7.0
 40
8.0
 40
8.0
 40
8.0
 40
9.0
 40
9.0
 40
9.0
 40
10.0
 40
10.0
 40
10.0
 40
11.0
 40
11.0
 40
11.0
 40
12.0
 40
12.0
 40
12.0
 40
13.0
 40
13.0
 40
13.0
 40
14.0
 40
14.0
 40
14.0
 40
15.0
 40
15.0
 40
15.0
 40
16.0
 40
16.0
 40
16.0
 40
17.0
 40
17.0
 40
17.0
 40
18.0
 40
18.0
 40
18.0
 40
18.0
 10
25.854838731553816
 20
50.983365207248262
 30
0.0
 10
25.854838731553816
 20
50.983365207248262
 30
0.0
 10
25.854838731553816
 20
70.162556287977424
 30
0.0
 10
25.055576578776041
 20
82.144426133897568
 30
0.0
 10
25.055576578776041
 20
83.744672987196168
 30
0.0
 10
23.455501980251736
 20
83.744672987196168
 30
0.0
 10
23.455501980251736
 20
83.744672987196168
 30
0.0
 10
23.455501980251736
 20
83.744672987196168
 30
0.0
 10
21.058749050564234
 20
83.744672987196168
 30
0.0
 10
21.058749050564234
 20
83.744672987196168
 30
0.0
 10
21.058749050564234
 20
83.744672987196168
 30
0.0
 10
21.058749050564234
 20
88.538178846571171
 30
0.0
 10
21.058749050564234
 20
88.538178846571171
 30
0.0
 10
21.058749050564234
 20
88.538178846571171
 30
0.0
 10
23.055354139539929
 20
88.538178846571171
 30
0.0
 10
23.055354139539929
 20
88.538178846571171
 30
0.0
 10
23.055354139539929
 20
88.538178846571171
 30
0.0
 10
23.055354139539929
 20
85.341302490234369
 30
0.0
 10
23.055354139539929
 20
85.341302490234369
 30
0.0
 10
23.055354139539929
 20
85.341302490234369
 30
0.0
 10
25.854838731553816
 20
85.341302490234369
 30
0.0
 10
25.854838731553816
 20
85.341302490234369
 30
0.0
 10
25.854838731553816
 20
85.341302490234369
 30
0.0
 10
26.654100884331594
 20
85.341302490234369
 30
0.0
 10
27.451640489366316
 20
84.543073866102418
 30
0.0
 10
28.24986911349826
 20
69.364327663845486
 30
0.0
 10
28.24986911349826
 20
50.983365207248262
 30
0.0
 10
28.24986911349826
 20
50.983365207248262
 30
0.0
 10
28.24986911349826
 20
50.983365207248262
 30
0.0
 10
28.24986911349826
 20
32.606020100911458
 30
0.0
 10
27.451640489366316
 20
17.427446153428818
 30
0.0
 10
26.654100884331594
 20
16.629045274522568
 30
0.0
 10
25.854838731553816
 20
16.629045274522568
 30
0.0
 10
25.854838731553816
 20
16.629045274522568
 30
0.0
 10
25.854838731553816
 20
16.629045274522568
 30
0.0
 10
23.055354139539929
 20
16.629045274522568
 30
0.0
 10
23.055354139539929
 20
16.629045274522568
 30
0.0
 10
23.055354139539929
 20
16.629045274522568
 30
0.0
 10
23.055354139539929
 20
13.432168918185763
 30
0.0
 10
23.055354139539929
 20
13.432168918185763
 30
0.0
 10
23.055354139539929
 20
13.432168918185763
 30
0.0
 10
21.058749050564234
 20
13.432168918185763
 30
0.0
 10
21.058749050564234
 20
13.432168918185763
 30
0.0
 10
21.058749050564234
 20
13.432168918185763
 30
0.0
 10
21.058749050564234
 20
18.223952229817705
 30
0.0
 10
21.058749050564234
 20
18.223952229817705
 30
0.0
 10
21.058749050564234
 20
18.223952229817705
 30
0.0
 10
23.455501980251736
 20
18.223952229817705
 30
0.0
 10
23.455501980251736
 20
18.223952229817705
 30
0.0
 10
23.455501980251736
 20
18.223952229817705
 30
0.0
 10
25.055576578776041
 20
18.223952229817705
 30
0.0
 10
25.055576578776041
 20
19.822304280598956
 30
0.0
 10
25.854838731553816
 20
31.809514024522567
 30
0.0
 10
25.854838731553816
 20
50.983365207248262
 30
0.0
 10
25.854838731553816
 20
50.983365207248262
 30
0.0
  0
SPLINE
  5
67
100
AcDbEntity
  8
LIVELLO_1
 62
     7
100
AcDbSpline
210
0.0
220
0.0
230
1.0
 70
     8
 71
     3
 72
    20
 73
    16
 74
     0
 42
0.00000001
 43
0.00000001
 40
0.0
 40
0.0
 40
0.0
 40
0.0
 40
1.0
 40
1.0
 40
1.0
 40
2.0
 40
2.0
 40
2.0
 40
3.0
 40
3.0
 40
3.0
 40
4.0
 40
4.0
 40
4.0
 40
5.0
 40
5.0
 40
5.0
 40
5.0
 10
29.049131266276039
 20
54.580389404296874
 30
0.0
 10
29.049131266276039
 20
54.580389404296874
 30
0.0
 10
31.444850667317706
 20
54.580389404296874
 30
0.0
 10
31.444850667317706
 20
54.580389404296874
 30
0.0
 10
31.885133870442704
 20
54.580389404296874
 30
0.0
 10
32.244112820095481
 20
54.223305257161456
 30
0.0
 10
32.244112820095481
 20
53.781988525390624
 30
0.0
 10
32.244112820095481
 20
53.340671793619784
 30
0.0
 10
31.885133870442704
 20
52.981865098741316
 30
0.0
 10
31.444850667317706
 20
52.981865098741316
 30
0.0
 10
31.444850667317706
 20
52.981865098741316
 30
0.0
 10
29.049131266276039
 20
52.981865098741316
 30
0.0
 10
29.049131266276039
 20
52.981865098741316
 30
0.0
 10
29.049131266276039
 20
52.981865098741316
 30
0.0
 10
29.049131266276039
 20
54.580389404296874
 30
0.0
 10
29.049131266276039
 20
54.580389404296874
 30
0.0
  0
SPLINE
  5
66
100
AcDbEntity
  8
LIVELLO_1
 62
     7
100
AcDbSpline
210
0.0
220
0.0
230
1.0
 70
     8
 71
     3
 72
    20
 73
    16
 74
     0
 42
0.00000001
 43
0.00000001
 40
0.0
 40
0.0
 40
0.0
 40
0.0
 40
1.0
 40
1.0
 40
1.0
 40
2.0
 40
2.0
 40
2.0
 40
3.0
 40
3.0
 40
3.0
 40
4.0
 40
4.0
 40
4.0
 40
5.0
 40
5.0
 40
5.0
 40
5.0
 10
28.977128770616318
 20
60.172123887803814
 30
0.0
 10
28.977128770616318
 20
60.172123887803814
 30
0.0
 10
31.376637776692707
 20
60.172123887803814
 30
0.0
 10
31.376637776692707
 20
60.172123887803814
 30
0.0
 10
31.81795450846354
 20
60.172123887803814
 30
0.0
 10
32.175899929470482
 20
59.816934543185759
 30
0.0
 10
32.175899929470482
 20
59.373723008897564
 30
0.0
 10
32.175899929470482
 20
58.932406277126731
 30
0.0
 10
31.81795450846354
 20
58.575494384765619
 30
0.0
 10
31.376637776692707
 20
58.575494384765619
 30
0.0
 10
31.376637776692707
 20
58.575494384765619
 30
0.0
 10
28.977128770616318
 20
58.575494384765619
 30
0.0
 10
28.977128770616318
 20
58.575494384765619
 30
0.0
 10
28.977128770616318
 20
58.575494384765619
 30
0.0
 10
28.977128770616318
 20
60.172123887803814
 30
0.0
 10
28.977128770616318
 20
60.172123887803814
 30
0.0
  0
SPLINE
  5
65
100
AcDbEntity
  8
LIVELLO_1
 62
     7
100
AcDbSpline
210
0.0
220
0.0
230
1.0
 70
     8
 71
     3
 72
    20
 73
    16
 74
     0
 42
0.00000001
 43
0.00000001
 40
0.0
 40
0.0
 40
0.0
 40
0.0
 40
1.0
 40
1.0
 40
1.0
 40
2.0
 40
2.0
 40
2.0
 40
3.0
 40
3.0
 40
3.0
 40
4.0
 40
4.0
 40
4.0
 40
5.0
 40
5.0
 40
5.0
 40
5.0
 10
28.838291422526041
 20
65.767475721571174
 30
0.0
 10
28.838291422526041
 20
65.767475721571174
 30
0.0
 10
31.233321804470485
 20
65.767475721571174
 30
0.0
 10
31.233321804470485
 20
65.767475721571174
 30
0.0
 10
31.674294026692706
 20
65.767475721571174
 30
0.0
 10
32.032239447699652
 20
65.408669026692706
 30
0.0
 10
32.032239447699652
 20
64.969074842664924
 30
0.0
 10
32.032239447699652
 20
64.526035563151041
 30
0.0
 10
31.674294026692706
 20
64.168951416015616
 30
0.0
 10
31.233321804470485
 20
64.168951416015616
 30
0.0
 10
31.233321804470485
 20
64.168951416015616
 30
0.0
 10
28.838291422526041
 20
64.168951416015616
 30
0.0
 10
28.838291422526041
 20
64.168951416015616
 30
0.0
 10
28.838291422526041
 20
64.168951416015616
 30
0.0
 10
28.838291422526041
 20
65.767475721571174
 30
0.0
 10
28.838291422526041
 20
65.767475721571174
 30
0.0
  0
SPLINE
  5
64
100
AcDbEntity
  8
LIVELLO_1
 62
     7
100
AcDbSpline
210
0.0
220
0.0
230
1.0
 70
     8
 71
     3
 72
    20
 73
    16
 74
     0
 42
0.00000001
 43
0.00000001
 40
0.0
 40
0.0
 40
0.0
 40
0.0
 40
1.0
 40
1.0
 40
1.0
 40
2.0
 40
2.0
 40
2.0
 40
3.0
 40
3.0
 40
3.0
 40
4.0
 40
4.0
 40
4.0
 40
5.0
 40
5.0
 40
5.0
 40
5.0
 10
28.766288926866316
 20
71.360932752821171
 30
0.0
 10
28.766288926866316
 20
71.360932752821171
 30
0.0
 10
31.162352837456595
 20
71.360932752821171
 30
0.0
 10
31.162352837456595
 20
71.360932752821171
 30
0.0
 10
31.606425645616316
 20
71.360932752821171
 30
0.0
 10
31.965060085720484
 20
71.002126057942704
 30
0.0
 10
31.965060085720484
 20
70.560809326171864
 30
0.0
 10
31.965060085720484
 20
70.119492594401038
 30
0.0
 10
31.606425645616316
 20
69.762580702039926
 30
0.0
 10
31.162352837456595
 20
69.762580702039926
 30
0.0
 10
31.162352837456595
 20
69.762580702039926
 30
0.0
 10
28.766288926866316
 20
69.762580702039926
 30
0.0
 10
28.766288926866316
 20
69.762580702039926
 30
0.0
 10
28.766288926866316
 20
69.762580702039926
 30
0.0
 10
28.766288926866316
 20
71.360932752821171
 30
0.0
 10
28.766288926866316
 20
71.360932752821171
 30
0.0
  0
SPLINE
  5
63
100
AcDbEntity
  8
LIVELLO_1
 62
     7
100
AcDbSpline
210
0.0
220
0.0
230
1.0
 70
     8
 71
     3
 72
    20
 73
    16
 74
     0
 42
0.00000001
 43
0.00000001
 40
0.0
 40
0.0
 40
0.0
 40
0.0
 40
1.0
 40
1.0
 40
1.0
 40
2.0
 40
2.0
 40
2.0
 40
3.0
 40
3.0
 40
3.0
 40
4.0
 40
4.0
 40
4.0
 40
5.0
 40
5.0
 40
5.0
 40
5.0
 10
28.601268853081596
 20
76.952839491102424
 30
0.0
 10
28.601268853081596
 20
76.952839491102424
 30
0.0
 10
31.000088840060762
 20
76.952839491102424
 30
0.0
 10
31.000088840060762
 20
76.952839491102424
 30
0.0
 10
31.441405571831595
 20
76.952839491102424
 30
0.0
 10
31.799006483289929
 20
76.594032796223956
 30
0.0
 10
31.799006483289929
 20
76.152716064453116
 30
0.0
 10
31.799006483289929
 20
75.711399332682291
 30
0.0
 10
31.441405571831595
 20
75.356209988064222
 30
0.0
 10
31.000088840060762
 20
75.356209988064222
 30
0.0
 10
31.000088840060762
 20
75.356209988064222
 30
0.0
 10
28.601268853081596
 20
75.356209988064222
 30
0.0
 10
28.601268853081596
 20
75.356209988064222
 30
0.0
 10
28.601268853081596
 20
75.356209988064222
 30
0.0
 10
28.601268853081596
 20
76.952839491102424
 30
0.0
 10
28.601268853081596
 20
76.952839491102424
 30
0.0
  0
SPLINE
  5
62
100
AcDbEntity
  8
LIVELLO_1
 62
     7
100
AcDbSpline
210
0.0
220
0.0
230
1.0
 70
     8
 71
     3
 72
    20
 73
    16
 74
     0
 42
0.00000001
 43
0.00000001
 40
0.0
 40
0.0
 40
0.0
 40
0.0
 40
1.0
 40
1.0
 40
1.0
 40
2.0
 40
2.0
 40
2.0
 40
3.0
 40
3.0
 40
3.0
 40
4.0
 40
4.0
 40
4.0
 40
5.0
 40
5.0
 40
5.0
 40
5.0
 10
28.389739990234371
 20
82.544573974609364
 30
0.0
 10
28.389739990234371
 20
82.544573974609364
 30
0.0
 10
30.789248996310761
 20
82.544573974609364
 30
0.0
 10
30.789248996310761
 20
82.544573974609364
 30
0.0
 10
31.229532199435759
 20
82.544573974609364
 30
0.0
 10
31.588511149088539
 20
82.189384629991309
 30
0.0
 10
31.588511149088539
 20
81.746173095703114
 30
0.0
 10
31.588511149088539
 20
81.306751166449644
 30
0.0
 10
31.229532199435759
 20
80.947944471571176
 30
0.0
 10
30.789248996310761
 20
80.947944471571176
 30
0.0
 10
30.789248996310761
 20
80.947944471571176
 30
0.0
 10
28.389739990234371
 20
80.947944471571176
 30
0.0
 10
28.389739990234371
 20
80.947944471571176
 30
0.0
 10
28.389739990234371
 20
80.947944471571176
 30
0.0
 10
28.389739990234371
 20
82.544573974609364
 30
0.0
 10
28.389739990234371
 20
82.544573974609364
 30
0.0
  0
SPLINE
  5
61
100
AcDbEntity
  8
LIVELLO_1
 62
     7
100
AcDbSpline
210
0.0
220
0.0
230
1.0
 70
     8
 71
     3
 72
    20
 73
    16
 74
     0
 42
0.00000001
 43
0.00000001
 40
0.0
 40
0.0
 40
0.0
 40
0.0
 40
1.0
 40
1.0
 40
1.0
 40
2.0
 40
2.0
 40
2.0
 40
3.0
 40
3.0
 40
3.0
 40
4.0
 40
4.0
 40
4.0
 40
5.0
 40
5.0
 40
5.0
 40
5.0
 10
28.389739990234371
 20
82.544573974609364
 30
0.0
 10
28.389739990234371
 20
82.544573974609364
 30
0.0
 10
30.789248996310761
 20
82.544573974609364
 30
0.0
 10
30.789248996310761
 20
82.544573974609364
 30
0.0
 10
31.229532199435759
 20
82.544573974609364
 30
0.0
 10
31.588511149088539
 20
82.189384629991309
 30
0.0
 10
31.588511149088539
 20
81.746173095703114
 30
0.0
 10
31.588511149088539
 20
81.306751166449644
 30
0.0
 10
31.229532199435759
 20
80.947944471571176
 30
0.0
 10
30.789248996310761
 20
80.947944471571176
 30
0.0
 10
30.789248996310761
 20
80.947944471571176
 30
0.0
 10
28.389739990234371
 20
80.947944471571176
 30
0.0
 10
28.389739990234371
 20
80.947944471571176
 30
0.0
 10
28.389739990234371
 20
80.947944471571176
 30
0.0
 10
28.389739990234371
 20
82.544573974609364
 30
0.0
 10
28.389739990234371
 20
82.544573974609364
 30
0.0
  0
POLYLINE
  5
5B
100
AcDbEntity
  8
LIVELLO_1
 62
     7
100
AcDb2dPolyline
 66
     1
 10
0.0
 20
0.0
 30
0.0
 70
     1
  0
VERTEX
  5
5C
100
AcDbEntity
  8
LIVELLO_1
 62
     7
100
AcDbVertex
100
AcDb2dVertex
 10
23.055354
 20
88.538179
 30
0.0
  0
VERTEX
  5
5D
100
AcDbEntity
  8
LIVELLO_1
 62
     7
100
AcDbVertex
100
AcDb2dVertex
 10
24.652845
 20
88.538179
 30
0.0
  0
VERTEX
  5
5E
100
AcDbEntity
  8
LIVELLO_1
 62
     7
100
AcDbVertex
100
AcDb2dVertex
 10
24.652845
 20
85.341302
 30
0.0
  0
VERTEX
  5
5F
100
AcDbEntity
  8
LIVELLO_1
 62
     7
100
AcDbVertex
100
AcDb2dVertex
 10
23.055354
 20
85.341302
 30
0.0
  0
SEQEND
  5
60
100
AcDbEntity
  8
LIVELLO_1
 62
     7
  0
POLYLINE
  5
55
100
AcDbEntity
  8
LIVELLO_1
 62
     7
100
AcDb2dPolyline
 66
     1
 10
0.0
 20
0.0
 30
0.0
 70
     1
  0
VERTEX
  5
56
100
AcDbEntity
  8
LIVELLO_1
 62
     7
100
AcDbVertex
100
AcDb2dVertex
 10
19.46212
 20
88.538179
 30
0.0
  0
VERTEX
  5
57
100
AcDbEntity
  8
LIVELLO_1
 62
     7
100
AcDbVertex
100
AcDb2dVertex
 10
21.058749
 20
88.538179
 30
0.0
  0
VERTEX
  5
58
100
AcDbEntity
  8
LIVELLO_1
 62
     7
100
AcDbVertex
100
AcDb2dVertex
 10
21.058749
 20
85.341302
 30
0.0
  0
VERTEX
  5
59
100
AcDbEntity
  8
LIVELLO_1
 62
     7
100
AcDbVertex
100
AcDb2dVertex
 10
19.46212
 20
85.341302
 30
0.0
  0
SEQEND
  5
5A
100
AcDbEntity
  8
LIVELLO_1
 62
     7
  0
POLYLINE
  5
4A
100
AcDbEntity
  8
LIVELLO_1
 62
     7
100
AcDb2dPolyline
 66
     1
 10
0.0
 20
0.0
 30
0.0
 70
     1
  0
VERTEX
  5
4B
100
AcDbEntity
  8
LIVELLO_1
 62
     7
100
AcDbVertex
100
AcDb2dVertex
 10
21.058749
 20
94.131808
 30
0.0
  0
VERTEX
  5
4C
100
AcDbEntity
  8
LIVELLO_1
 62
     7
100
AcDbVertex
100
AcDb2dVertex
 10
26.654101
 20
94.131808
 30
0.0
  0
VERTEX
  5
4D
100
AcDbEntity
  8
LIVELLO_1
 62
     7
100
AcDbVertex
100
AcDb2dVertex
 10
30.645589
 20
87.741673
 30
0.0
  0
VERTEX
  5
4E
100
AcDbEntity
  8
LIVELLO_1
 62
     7
100
AcDbVertex
100
AcDb2dVertex
 10
30.645589
 20
86.141426
 30
0.0
  0
VERTEX
  5
4F
100
AcDbEntity
  8
LIVELLO_1
 62
     7
100
AcDbVertex
100
AcDb2dVertex
 10
24.657324
 20
86.141426
 30
0.0
  0
VERTEX
  5
50
100
AcDbEntity
  8
LIVELLO_1
 62
     7
100
AcDbVertex
100
AcDb2dVertex
 10
24.657324
 20
87.741673
 30
0.0
  0
VERTEX
  5
51
100
AcDbEntity
  8
LIVELLO_1
 62
     7
100
AcDbVertex
100
AcDb2dVertex
 10
28.729771
 20
87.741673
 30
0.0
  0
VERTEX
  5
52
100
AcDbEntity
  8
LIVELLO_1
 62
     7
100
AcDbVertex
100
AcDb2dVertex
 10
25.854839
 20
92.533284
 30
0.0
  0
VERTEX
  5
53
100
AcDbEntity
  8
LIVELLO_1
 62
     7
100
AcDbVertex
100
AcDb2dVertex
 10
21.058749
 20
92.533284
 30
0.0
  0
SEQEND
  5
54
100
AcDbEntity
  8
LIVELLO_1
 62
     7
  0
POLYLINE
  5
3D
100
AcDbEntity
  8
LIVELLO_1
 62
     7
100
AcDb2dPolyline
 66
     1
 10
0.0
 20
0.0
 30
0.0
 70
     1
  0
VERTEX
  5
3E
100
AcDbEntity
  8
LIVELLO_1
 62
     7
100
AcDbVertex
100
AcDb2dVertex
 10
25.854839
 20
98.925142
 30
0.0
  0
VERTEX
  5
3F
100
AcDbEntity
  8
LIVELLO_1
 62
     7
100
AcDbVertex
100
AcDb2dVertex
 10
25.854839
 20
94.930037
 30
0.0
  0
VERTEX
  5
40
100
AcDbEntity
  8
LIVELLO_1
 62
     7
100
AcDbVertex
100
AcDb2dVertex
 10
17.863595
 20
94.930037
 30
0.0
  0
VERTEX
  5
41
100
AcDbEntity
  8
LIVELLO_1
 62
     7
100
AcDbVertex
100
AcDb2dVertex
 10
17.863595
 20
94.131808
 30
0.0
  0
VERTEX
  5
42
100
AcDbEntity
  8
LIVELLO_1
 62
     7
100
AcDbVertex
100
AcDb2dVertex
 10
17.863595
 20
90.934932
 30
0.0
  0
VERTEX
  5
43
100
AcDbEntity
  8
LIVELLO_1
 62
     7
100
AcDbVertex
100
AcDb2dVertex
 10
13.069228
 20
90.934932
 30
0.0
  0
VERTEX
  5
44
100
AcDbEntity
  8
LIVELLO_1
 62
     7
100
AcDbVertex
100
AcDb2dVertex
 10
13.069228
 20
92.533284
 30
0.0
  0
VERTEX
  5
45
100
AcDbEntity
  8
LIVELLO_1
 62
     7
100
AcDbVertex
100
AcDb2dVertex
 10
16.266966
 20
92.533284
 30
0.0
  0
VERTEX
  5
46
100
AcDbEntity
  8
LIVELLO_1
 62
     7
100
AcDbVertex
100
AcDb2dVertex
 10
16.266966
 20
96.528389
 30
0.0
  0
VERTEX
  5
47
100
AcDbEntity
  8
LIVELLO_1
 62
     7
100
AcDbVertex
100
AcDb2dVertex
 10
24.256487
 20
96.528389
 30
0.0
  0
VERTEX
  5
48
100
AcDbEntity
  8
LIVELLO_1
 62
     7
100
AcDbVertex
100
AcDb2dVertex
 10
24.256487
 20
98.925142
 30
0.0
  0
SEQEND
  5
49
100
AcDbEntity
  8
LIVELLO_1
 62
     7
  0
POLYLINE
  5
37
100
AcDbEntity
  8
LIVELLO_1
 62
     7
100
AcDb2dPolyline
 66
     1
 10
0.0
 20
0.0
 30
0.0
 70
     1
  0
VERTEX
  5
38
100
AcDbEntity
  8
LIVELLO_1
 62
     7
100
AcDbVertex
100
AcDb2dVertex
 10
-8.79731
 20
65.936113
 30
0.0
  0
VERTEX
  5
39
100
AcDbEntity
  8
LIVELLO_1
 62
     7
100
AcDbVertex
100
AcDb2dVertex
 10
-7.882292
 20
65.936113
 30
0.0
  0
VERTEX
  5
3A
100
AcDbEntity
  8
LIVELLO_1
 62
     7
100
AcDbVertex
100
AcDb2dVertex
 10
-7.882292
 20
60.085997
 30
0.0
  0
VERTEX
  5
3B
100
AcDbEntity
  8
LIVELLO_1
 62
     7
100
AcDbVertex
100
AcDb2dVertex
 10
-8.79731
 20
60.085997
 30
0.0
  0
SEQEND
  5
3C
100
AcDbEntity
  8
LIVELLO_1
 62
     7
  0
MTEXT
  5
36
100
AcDbEntity
  8
LIVELLO_1
 62
     7
100
AcDbMText
 10
-10.636302
 20
127.767471
 30
0.0
 40
8.611006
 41
0.0
 71
     1
 72
     2
  1
\fMyriad Roman|b0|i0;\H8.6110;\C7;\U+0031\U+0033\U+0030
  7
STD
210
0.0
220
0.0
230
1.0
 73
     1
 44
1.0
  0
MTEXT
  5
35
100
AcDbEntity
  8
LIVELLO_1
 62
     7
100
AcDbMText
 10
36.88569
 20
55.330893
 30
0.0
 40
8.611006
 41
0.0
 71
     1
 72
     2
  1
\fMyriad Roman|b0|i0;\H8.6110;\C7;\U+00F8\U+0020\U+0032\U+0034\U+0035
  7
STD
210
0.0
220
0.0
230
1.0
 73
     1
 44
1.0
  0
MTEXT
  5
34
100
AcDbEntity
  8
LIVELLO_1
 62
     7
100
AcDbMText
 10
38.578265
 20
112.74117
 30
0.0
 40
8.611006
 41
0.0
 71
     1
 72
     2
  1
\fMyriad Roman|b0|i0;\H8.6110;\C7;\U+0032\U+0030
  7
STD
210
0.0
220
0.0
230
1.0
 73
     1
 44
1.0
  0
LINE
  5
33
100
AcDbEntity
  8
LIVELLO_1
 62
     7
100
AcDbLine
 10
24.256487
 20
96.528389
 30
0.0
 11
24.256487
 21
118.769925
 31
0.0
  0
LINE
  5
32
100
AcDbEntity
  8
LIVELLO_1
 62
     7
100
AcDbLine
 10
24.256487
 20
-10.624588
 30
0.0
 11
24.256487
 21
5.440236
 31
0.0
  0
POLYLINE
  5
2C
100
AcDbEntity
  8
LIVELLO_1
 62
     7
100
AcDb2dPolyline
 66
     1
 10
0.0
 20
0.0
 30
0.0
  0
VERTEX
  5
2D
100
AcDbEntity
  8
LIVELLO_1
 62
     7
100
AcDbVertex
100
AcDb2dVertex
 10
16.266966
 20
5.440236
 30
0.0
  0
VERTEX
  5
2E
100
AcDbEntity
  8
LIVELLO_1
 62
     7
100
AcDbVertex
100
AcDb2dVertex
 10
-32.108893
 20
5.440236
 30
0.0
  0
VERTEX
  5
2F
100
AcDbEntity
  8
LIVELLO_1
 62
     7
100
AcDbVertex
100
AcDb2dVertex
 10
-32.108893
 20
96.528389
 30
0.0
  0
VERTEX
  5
30
100
AcDbEntity
  8
LIVELLO_1
 62
     7
100
AcDbVertex
100
AcDb2dVertex
 10
16.266966
 20
96.528389
 30
0.0
  0
SEQEND
  5
31
100
AcDbEntity
  8
LIVELLO_1
 62
     7
  0
ENDBLK
  5
102
100
AcDbEntity
  8
LIVELLO_1
100
AcDbBlockEnd
  0
BLOCK
  5
DF
100
AcDbEntity
  8
LIVELLO_1
 62
     7
100
AcDbBlockBegin
  2
AI9-BLK2
 70
     0
 10
0.0
 20
0.0
 30
0.0
  3
AI9-BLK2
  1

  0
INSERT
  5
E1
100
AcDbEntity
  8
LIVELLO_1
 62
     7
100
AcDbBlockReference
  2
AI9-BLK3
 10
0.0
 20
0.0
 30
0.0
  0
ENDBLK
  5
E8
100
AcDbEntity
  8
LIVELLO_1
100
AcDbBlockEnd
  0
BLOCK
  5
E2
100
AcDbEntity
  8
LIVELLO_1
 62
     7
100
AcDbBlockBegin
  2
AI9-BLK3
 70
     0
 10
0.0
 20
0.0
 30
0.0
  3
AI9-BLK3
  1

  0
INSERT
  5
E4
100
AcDbEntity
  8
LIVELLO_1
 62
     7
100
AcDbBlockReference
  2
AI9-BLK4
 10
-0.000172
 20
-0.000947
 30
0.0
  0
ENDBLK
  5
E7
100
AcDbEntity
  8
LIVELLO_1
100
AcDbBlockEnd
  0
BLOCK
  5
E5
100
AcDbEntity
  8
LIVELLO_1
 62
     7
100
AcDbBlockBegin
  2
AI9-BLK4
 70
     0
 10
0.0
 20
0.0
 30
0.0
  3
AI9-BLK4
  1

  0
ENDBLK
  5
E6
100
AcDbEntity
  8
LIVELLO_1
100
AcDbBlockEnd
  0
ENDSEC
  0
SECTION
  2
ENTITIES
  0
INSERT
  5
2A
100
AcDbEntity
  8
LIVELLO_1
 62
     7
100
AcDbBlockReference
  2
AI9-BLK1
 10
79.67257
 20
146.423018
 30
0.0
  0
ENDSEC
  0
SECTION
  2
OBJECTS
  0
DICTIONARY
  5
19
100
AcDbDictionary
280
     0
281
     1
  3
ACAD_GROUP
350
1A
  3
ACAD_MLINESTYLE
350
1B
  3
ACAD_LAYOUT
350
1E
  3
ACAD_PLOTSETTINGS
350
22
  3
ACAD_PLOTSTYLENAME
350
1F
  3
ACAD_WIPEOUT_VARS
350
23
  0
DICTIONARY
  5
1A
102
{ACAD_REACTORS
330
19
102
}
100
AcDbDictionary
280
     0
281
     1
  0
DICTIONARY
  5
1B
102
{ACAD_REACTORS
330
19
102
}
100
AcDbDictionary
280
     0
281
     1
  3
Standard
350
1C
  0
MLINESTYLE
  5
1C
102
{ACAD_REACTORS
330
1B
102
}
100
AcDbMlineStyle
  2
Standard
 70
     0
  3

 62
     0
 51
90.0
 52
90.0
 71
     2
 49
0.5
 62
   256
  6
ByLayer
 49
-0.5
 62
   256
  6
ByLayer
  0
ACDBDICTIONARYWDFLT
  5
1F
102
{ACAD_REACTORS
330
19
102
}
100
AcDbDictionary
281
     1
  3
Normal
350
1D
100
AcDbDictionaryWithDefault
340
1D
  0
ACDBPLACEHOLDER
  5
1D
102
{ACAD_REACTORS
330
1F
102
}
  0
LAYOUT
  5
20
102
{ACAD_REACTORS
330
1E
102
}
100
AcDbPlotSettings
  1

  2

  4

  6

 40
0.0
 41
0.0
 42
0.0
 43
0.0
 44
0.0
 45
0.0
 46
0.0
 47
0.0
 48
0.0
 49
0.0
140
0.0
141
0.0
142
1.0
143
1.0
 70
  1024
 72
     0
 73
     0
 74
     0
  7

 75
     0
147
1.0
148
0.0
149
0.0
100
AcDbLayout
  1
Model
 70
     0
 71
     0
 10
0.0
 20
0.0
 11
0.0
 21
0.0
 12
0.0
 22
0.0
 32
0.0
 14
0.0
 24
0.0
 34
0.0
 15
0.0
 25
0.0
 35
0.0
146
0.0
 13
0.0
 23
0.0
 33
0.0
 16
0.0
 26
0.0
 36
0.0
 17
0.0
 27
0.0
 37
0.0
 76
     0
330
A
331
0
345
0
346
0
  0
LAYOUT
  5
21
102
{ACAD_REACTORS
330
1E
102
}
100
AcDbPlotSettings
  1

  2

  4

  6

 40
0.0
 41
0.0
 42
0.0
 43
0.0
 44
0.0
 45
0.0
 46
0.0
 47
0.0
 48
0.0
 49
0.0
140
0.0
141
0.0
142
1.0
143
1.0
 70
     0
 72
     0
 73
     0
 74
     0
  7

 75
     0
147
1.0
148
0.0
149
0.0
100
AcDbLayout
  1
Layout1
 70
     0
 71
     0
 10
0.0
 20
0.0
 11
0.0
 21
0.0
 12
0.0
 22
0.0
 32
0.0
 14
0.0
 24
0.0
 34
0.0
 15
0.0
 25
0.0
 35
0.0
146
0.0
 13
0.0
 23
0.0
 33
0.0
 16
0.0
 26
0.0
 36
0.0
 17
0.0
 27
0.0
 37
0.0
 76
     0
330
B
331
0
345
0
346
0
  0
DICTIONARY
  5
1E
102
{ACAD_REACTORS
330
19
102
}
100
AcDbDictionary
280
     0
281
     1
  3
Layout1
350
21
  3
Model
350
20
  0
DICTIONARY
  5
22
102
{ACAD_REACTORS
330
19
102
}
100
AcDbDictionary
280
     0
281
     1
  0
WIPEOUTVARIABLES
  5
23
100
AcDbWipeoutVariables
 70
     1
  0
ENDSEC
  0
EOF
