  0
SECTION
  2
HEADER
  9
$ACADVER
  1
AC1015
  9
$ACADMAINTVER
 70
     6
  9
$DWGCODEPAGE
  3
ANSI_932
  9
$INSBASE
 10
0.0
 20
0.0
 30
0.0
  9
$EXTMIN
 10
11.634087
 20
33.099788
 30
1.000000E+20
  9
$EXTMAX
 10
156.278144
 20
273.184703
 30
-1.000000E+20
  9
$LIMMIN
 10
11.634087
 20
33.099788
  9
$LIMMAX
 10
156.278144
 20
273.184703
  9
$ORTHOMODE
 70
     0
  9
$REGENMODE
 70
     1
  9
$FILLMODE
 70
     1
  9
$QTEXTMODE
 70
     0
  9
$MIRRTEXT
 70
     1
  9
$LTSCALE
 40
1.0
  9
$ATTMODE
 70
     1
  9
$TEXTSIZE
 40
0.2
  9
$TRACEWID
 40
0.05
  9
$TEXTSTYLE
  7
Standard
  9
$CLAYER
  8
0
  9
$CELTYPE
  6
Continuous
  9
$CECOLOR
 62
   256
  9
$CELTSCALE
 40
1.0
  9
$DISPSILH
 70
     0
  9
$DIMSCALE
 40
1.0
  9
$DIMASZ
 40
0.18
  9
$DIMEXO
 40
0.0625
  9
$DIMDLI
 40
0.38
  9
$DIMRND
 40
0.0
  9
$DIMDLE
 40
0.0
  9
$DIMEXE
 40
0.18
  9
$DIMTP
 40
0.0
  9
$DIMTM
 40
0.0
  9
$DIMTXT
 40
0.18
  9
$DIMCEN
 40
0.09
  9
$DIMTSZ
 40
0.0
  9
$DIMTOL
 70
     0
  9
$DIMLIM
 70
     0
  9
$DIMTIH
 70
     1
  9
$DIMTOH
 70
     1
  9
$DIMSE1
 70
     0
  9
$DIMSE2
 70
     0
  9
$DIMTAD
 70
     0
  9
$DIMZIN
 70
     0
  9
$DIMBLK
  1

  9
$DIMASO
 70
     1
  9
$DIMSHO
 70
     1
  9
$DIMPOST
  1

  9
$DIMAPOST
  1

  9
$DIMALT
 70
     0
  9
$DIMALTD
 70
     2
  9
$DIMALTF
 40
25.4
  9
$DIMLFAC
 40
1.0
  9
$DIMTOFL
 70
     0
  9
$DIMTVP
 40
0.0
  9
$DIMTIX
 70
     0
  9
$DIMSOXD
 70
     0
  9
$DIMSAH
 70
     0
  9
$DIMBLK1
  1

  9
$DIMBLK2
  1

  9
$DIMSTYLE
  2
Standard
  9
$DIMCLRD
 70
     0
  9
$DIMCLRE
 70
     0
  9
$DIMCLRT
 70
     0
  9
$DIMTFAC
 40
1.0
  9
$DIMGAP
 40
0.09
  9
$DIMJUST
 70
     0
  9
$DIMSD1
 70
     0
  9
$DIMSD2
 70
     0
  9
$DIMTOLJ
 70
     1
  9
$DIMTZIN
 70
     0
  9
$DIMALTZ
 70
     0
  9
$DIMALTTZ
 70
     0
  9
$DIMUPT
 70
     0
  9
$DIMDEC
 70
     4
  9
$DIMTDEC
 70
     4
  9
$DIMALTU
 70
     2
  9
$DIMALTTD
 70
     2
  9
$DIMTXSTY
  7
Standard
  9
$DIMAUNIT
 70
     0
  9
$DIMADEC
 70
     0
  9
$DIMALTRND
 40
0.0
  9
$DIMAZIN
 70
     0
  9
$DIMDSEP
 70
     0
  9
$DIMATFIT
 70
     3
  9
$DIMFRAC
 70
     0
  9
$DIMLDRBLK
  1

  9
$DIMLUNIT
 70
     2
  9
$DIMLWD
 70
     0
  9
$DIMLWE
 70
     0
  9
$DIMTMOVE
 70
     0
  9
$LUNITS
 70
     2
  9
$LUPREC
 70
     4
  9
$SKETCHINC
 40
0.1
  9
$FILLETRAD
 40
0.0
  9
$AUNITS
 70
     0
  9
$AUPREC
 70
     0
  9
$MENU
  1
acad
  9
$ELEVATION
 40
0.0
  9
$PELEVATION
 40
0.0
  9
$THICKNESS
 40
0.0
  9
$LIMCHECK
 70
     0
  9
$CHAMFERA
 40
0.0
  9
$CHAMFERB
 40
0.0
  9
$CHAMFERC
 40
0.0
  9
$CHAMFERD
 40
0.0
  9
$SKPOLY
 70
     0
  9
$TDCREATE
 40
0.000000000
  9
$TDUCREATE
 40
0.000000000
  9
$TDUPDATE
 40
0.000000000
  9
$TDUUPDATE
 40
0.000000000
  9
$TDINDWG
 40
0.0000000000
  9
$TDUSRTIMER
 40
0.0000000000
  9
$USRTIMER
 70
     1
  9
$ANGBASE
 50
0.0
  9
$ANGDIR
 70
     0
  9
$PDMODE
 70
     0
  9
$PDSIZE
 40
0.0
  9
$PLINEWID
 40
0.0
  9
$SPLFRAME
 70
     0
  9
$SPLINETYPE
 70
     6
  9
$SPLINESEGS
 70
     8
  9
$HANDSEED
  5
138
  9
$SURFTAB1
 70
     6
  9
$SURFTAB2
 70
     6
  9
$SURFTYPE
 70
     6
  9
$SURFU
 70
     6
  9
$SURFV
 70
     6
  9
$UCSBASE
  2

  9
$UCSNAME
  2

  9
$UCSORG
 10
0.0
 20
0.0
 30
0.0
  9
$UCSXDIR
 10
1.0
 20
0.0
 30
0.0
  9
$UCSYDIR
 10
0.0
 20
1.0
 30
0.0
  9
$UCSORTHOREF
  2

  9
$UCSORTHOVIEW
 70
     0
  9
$UCSORGTOP
 10
0.0
 20
0.0
 30
0.0
  9
$UCSORGBOTTOM
 10
0.0
 20
0.0
 30
0.0
  9
$UCSORGLEFT
 10
0.0
 20
0.0
 30
0.0
  9
$UCSORGRIGHT
 10
0.0
 20
0.0
 30
0.0
  9
$UCSORGFRONT
 10
0.0
 20
0.0
 30
0.0
  9
$UCSORGBACK
 10
0.0
 20
0.0
 30
0.0
  9
$PUCSBASE
  2

  9
$PUCSNAME
  2

  9
$PUCSORG
 10
0.0
 20
0.0
 30
0.0
  9
$PUCSXDIR
 10
1.0
 20
0.0
 30
0.0
  9
$PUCSYDIR
 10
0.0
 20
1.0
 30
0.0
  9
$PUCSORTHOREF
  2

  9
$PUCSORTHOVIEW
 70
     0
  9
$PUCSORGTOP
 10
0.0
 20
0.0
 30
0.0
  9
$PUCSORGBOTTOM
 10
0.0
 20
0.0
 30
0.0
  9
$PUCSORGLEFT
 10
0.0
 20
0.0
 30
0.0
  9
$PUCSORGRIGHT
 10
0.0
 20
0.0
 30
0.0
  9
$PUCSORGFRONT
 10
0.0
 20
0.0
 30
0.0
  9
$PUCSORGBACK
 10
0.0
 20
0.0
 30
0.0
  9
$USERI1
 70
     0
  9
$USERI2
 70
     0
  9
$USERI3
 70
     0
  9
$USERI4
 70
     0
  9
$USERI5
 70
     0
  9
$USERR1
 40
0.0
  9
$USERR2
 40
0.0
  9
$USERR3
 40
0.0
  9
$USERR4
 40
0.0
  9
$USERR5
 40
0.0
  9
$WORLDVIEW
 70
     1
  9
$SHADEDGE
 70
     3
  9
$SHADEDIF
 70
    70
  9
$TILEMODE
 70
     1
  9
$MAXACTVP
 70
    16
  9
$PINSBASE
 10
0.0
 20
0.0
 30
0.0
  9
$PLIMCHECK
 70
     0
  9
$PEXTMIN
 10
1.000000E+20
 20
1.000000E+20
 30
1.000000E+20
  9
$PEXTMAX
 10
-1.000000E+20
 20
-1.000000E+20
 30
-1.000000E+20
  9
$PLIMMIN
 10
0.0
 20
0.0
  9
$PLIMMAX
 10
12.0
 20
9.0
  9
$UNITMODE
 70
     0
  9
$VISRETAIN
 70
     0
  9
$PLINEGEN
 70
     1
  9
$PSLTSCALE
 70
     0
  9
$TREEDEPTH
 70
  3020
  9
$CMLSTYLE
  2
Standard
  9
$CMLJUST
 70
     0
  9
$CMLSCALE
 40
1.0
  9
$PROXYGRAPHICS
 70
     0
  9
$MEASUREMENT
 70
     1
  9
$CELWEIGHT
370
     0
  9
$ENDCAPS
280
     0
  9
$JOINSTYLE
280
     0
  9
$LWDISPLAY
290
     0
  9
$INSUNITS
 70
     0
  9
$HYPERLINKBASE
  1

  9
$STYLESHEET
  1

  9
$XEDIT
290
     1
  9
$CEPSNTYPE
380
     0
  9
$PSTYLEMODE
290
     1
  9
$FINGERPRINTGUID
  2

  9
$VERSIONGUID
  2

  9
$EXTNAMES
290
     1
  9
$PSVPSCALE
 40
0.0
  0
ENDSEC
  0
SECTION
  2
CLASSES
  0
CLASS
  1
LWPOLYLINE
  2
AcDbPolyline
  3
AutoCAD 2000
 90
    32768
280
     0
281
     1
  0
CLASS
  1
IMAGE
  2
AcDbRasterImage
  3
ISM
 90
    32895
280
     0
281
     1
  0
CLASS
  1
OLE2FRAME
  2
AcDbOle2Frame
  3
AutoCAD 2000
 90
    32768
280
     0
281
     1
  0
CLASS
  1
HATCH
  2
AcDbHatch
  3
AutoCAD 2000
 90
        0
280
     0
281
     1
  0
CLASS
  1
DICTIONARYVAR
  2
AcDbDictionaryVar
  3
AutoCAD 2000
 90
    32768
280
     0
281
     0
  0
CLASS
  1
RASTERVARIABLES
  2
AcDbRasterVariables
  3
ISM
 90
    32768
280
     0
281
     0
  0
CLASS
  1
IMAGEDEF
  2
AcDbRasterImageDef
  3
ISM
 90
    32768
280
     0
281
     0
  0
CLASS
  1
IMAGEDEF_REACTOR
  2
AcDbRasterImageDefReactor
  3
ISM
 90
    32769
280
     0
281
     0
  0
CLASS
  1
IDBUFFER
  2
AcDbIdBuffer
  3
AutoCAD 2000
 90
    32768
280
     0
281
     0
  0
CLASS
  1
SPATIAL_FILTER
  2
AcDbSpatialFilter
  3
AutoCAD 2000
 90
    32768
280
     0
281
     0
  0
CLASS
  1
XRECORD
  2
AcDbXrecord
  3
AutoCAD 2000
 90
    32768
280
     0
281
     0
  0
CLASS
  1
SORTENTSTABLE
  2
AcDbSortentsTable
  3
AutoCAD 2000
 90
    32768
280
     0
281
     0
  0
CLASS
  1
LAYER_INDEX
  2
AcDbLayerIndex
  3
AutoCAD 2000
 90
    32768
280
     0
281
     0
  0
CLASS
  1
SPATIAL_INDEX
  2
AcDbSpatialIndex
  3
AutoCAD 2000
 90
    32768
280
     0
281
     0
  0
CLASS
  1
OBJECT_PTR
  2
CAseDLPNTableRecord
  3
"ASE-LPNTableRecord"
 90
    32769
280
     0
281
     0
  0
CLASS
  1
LAYOUT
  2
AcDbLayout
  3
AutoCAD 2000
 90
        0
280
     0
281
     0
  0
CLASS
  1
PLOTSETTINGS
  2
AcDbPlotSettings
  3
AutoCAD 2000
 90
    32768
280
     0
281
     0
  0
CLASS
  1
ACDBDICTIONARYWDFLT
  2
AcDbDictionaryWithDefault
  3
AutoCAD 2000
 90
        0
280
     0
281
     0
  0
CLASS
  1
ACDBPLACEHOLDER
  2
AcDbPlaceHolder
  3
AutoCAD 2000
 90
        0
280
     0
281
     0
  0
CLASS
  1
VBA_PROJECT
  2
AcDbVbaProject
  3
acadvba
 90
    32768
280
     0
281
     0
  0
CLASS
  1
WIPEOUT
  2
AcDbWipeout
  3
WipeOut|AutoCAD Express Tool|expresstools@autodesk.com
 90
    32895
280
     0
281
     1
  0
CLASS
  1
WIPEOUTVARIABLES
  2
AcDbWipeoutVariables
  3
WipeOut|AutoCAD Express Tool|expresstools@autodesk.com
 90
        0
280
     0
281
     0
  0
CLASS
  1
RTEXT
  2
RText
  3
RText|AutoCAD Express Tool|expresstools@autodesk.com
 90
    32768
280
     0
281
     1
  0
CLASS
  1
ARCALIGNEDTEXT
  2
AcDbArcAlignedText
  3
ATEXT|AutoCAD Express Tool|expresstools@autodesk.com
 90
    32768
280
     0
281
     1
  0
ENDSEC
  0
SECTION
  2
TABLES
  0
TABLE
  2
VPORT
  5
7
100
AcDbSymbolTable
 70
     1
  0
VPORT
  5
15
100
AcDbSymbolTableRecord
100
AcDbViewportTableRecord
  2
*ACTIVE
 70
     0
 10
0.0
 20
0.0
 11
1.0
 21
1.0
 12
6.591288
 22
4.579184
 13
0.0
 23
0.0
 14
1.0
 24
1.0
 15
0.0
 25
0.0
 16
0.0
 26
0.0
 36
1.0
 17
0.0
 27
0.0
 37
0.0
 40
9.158369
 41
0.688564
 42
50.0
 43
0.0
 44
0.0
 50
0.0
 51
0.0
 71
     0
 72
   100
 73
     1
 74
     1
 75
     0
 76
     0
 77
     0
 78
     0
281
     0
 65
     0
110
0.0
120
0.0
130
0.0
111
1.0
121
0.0
131
0.0
112
0.0
122
1.0
132
0.0
345
0
346
0
 79
     0
146
0.0
  0
ENDTAB
  0
TABLE
  2
LTYPE
  5
4
100
AcDbSymbolTable
 70
     3
  0
LTYPE
  5
11
100
AcDbSymbolTableRecord
100
AcDbLinetypeTableRecord
  2
ByBlock
 70
    64
  3

 72
    65
 73
     0
 40
0.0
  0
LTYPE
  5
12
100
AcDbSymbolTableRecord
100
AcDbLinetypeTableRecord
  2
ByLayer
 70
    64
  3

 72
    65
 73
     0
 40
0.0
  0
LTYPE
  5
13
100
AcDbSymbolTableRecord
100
AcDbLinetypeTableRecord
  2
Continuous
 70
    64
  3
Solid line
 72
    65
 73
     0
 40
0.0
  0
ENDTAB
  0
TABLE
  2
LAYER
  5
2
100
AcDbSymbolTable
 70
     2
  0
LAYER
  5
14
100
AcDbSymbolTableRecord
100
AcDbLayerTableRecord
  2
0
 70
     0
 62
     7
  6
Continuous
290
     1
370
    -3
390
1D
  0
LAYER
  5
28
100
AcDbSymbolTableRecord
100
AcDbLayerTableRecord
  2
LIVELLO_1
 70
     0
 62
   160
  6
Continuous
290
     1
370
    -3
390
1D
  0
ENDTAB
  0
TABLE
  2
STYLE
  5
3
100
AcDbSymbolTable
 70
     5
  0
STYLE
  5
17
100
AcDbSymbolTableRecord
100
AcDbTextStyleTableRecord
  2
Standard
 70
     0
 40
0.0
 41
1.0
 50
0.0
 71
     0
 42
0.0
  3
txt
  4

  0
STYLE
  5
24
100
AcDbSymbolTableRecord
100
AcDbTextStyleTableRecord
  2
STD
 70
     0
 40
0.0
 41
1.0
 50
0.0
 71
     0
 42
0.0
  3
txt
  4

  0
STYLE
  5
25
100
AcDbSymbolTableRecord
100
AcDbTextStyleTableRecord
  2
TATESTD
 70
     4
 40
0.0
 41
1.0
 50
0.0
 71
     0
 42
0.0
  3
txt
  4

  0
STYLE
  5
26
100
AcDbSymbolTableRecord
100
AcDbTextStyleTableRecord
  2
KANJISTD
 70
     0
 40
0.0
 41
1.0
 50
0.0
 71
     0
 42
0.0
  3
txt
  4
extfont
  0
STYLE
  5
27
100
AcDbSymbolTableRecord
100
AcDbTextStyleTableRecord
  2
KANJITATE
 70
     4
 40
0.0
 41
1.0
 50
0.0
 71
     0
 42
0.0
  3
txt
  4
extfont
  0
ENDTAB
  0
TABLE
  2
VIEW
  5
5
100
AcDbSymbolTable
 70
     0
  0
ENDTAB
  0
TABLE
  2
UCS
  5
6
100
AcDbSymbolTable
 70
     0
  0
ENDTAB
  0
TABLE
  2
APPID
  5
8
100
AcDbSymbolTable
 70
     1
  0
APPID
  5
16
100
AcDbSymbolTableRecord
100
AcDbRegAppTableRecord
  2
ACAD
 70
     0
  0
ENDTAB
  0
TABLE
  2
DIMSTYLE
  5
9
100
AcDbSymbolTable
 70
     1
100
AcDbDimStyleTable
 71
     0
  0
DIMSTYLE
105
18
100
AcDbSymbolTableRecord
100
AcDbDimStyleTableRecord
  2
Standard
 70
     0
  3

  4

 40
1.0
 41
0.18
 42
0.0625
 43
0.38
 44
0.18
 45
0.0
 46
0.0
 47
0.0
 48
0.0
 71
     0
 72
     0
 73
     1
 74
     1
 75
     0
 76
     0
 77
     0
 78
     0
 79
     0
140
0.18
141
0.09
142
0.0
143
25.4
144
1.0
145
0.0
146
1.0
147
0.09
148
0.0
170
     0
171
     2
172
     0
173
     0
174
     0
175
     0
176
     0
177
     0
178
     0
179
     0
271
     4
272
     4
273
     2
274
     2
275
     0
276
     0
277
     2
278
    46
279
     0
280
     0
281
     0
282
     0
283
     1
284
     0
285
     0
286
     0
288
     0
340
17
341
0
342
0
343
0
344
0
371
    -2
372
    -2
  0
ENDTAB
  0
TABLE
  2
BLOCK_RECORD
  5
1
100
AcDbSymbolTable
 70
     1
  0
BLOCK_RECORD
  5
A
100
AcDbSymbolTableRecord
100
AcDbBlockTableRecord
  2
*MODEL_SPACE
340
20
  0
BLOCK_RECORD
  5
B
100
AcDbSymbolTableRecord
100
AcDbBlockTableRecord
  2
*PAPER_SPACE
340
21
  0
BLOCK_RECORD
  5
29
100
AcDbSymbolTableRecord
100
AcDbBlockTableRecord
  2
AI9-BLK1
340
0
102
{BLKREFS
331
2A
102
}
  0
ENDTAB
  0
ENDSEC
  0
SECTION
  2
BLOCKS
  0
BLOCK
  5
D
100
AcDbEntity
  8
0
100
AcDbBlockBegin
  2
*MODEL_SPACE
 70
     0
 10
0.0
 20
0.0
 30
0.0
  3
*MODEL_SPACE
  1

  0
ENDBLK
  5
E
100
AcDbEntity
  8
0
100
AcDbBlockEnd
  0
BLOCK
  5
F
100
AcDbEntity
 67
     1
  8
0
100
AcDbBlockBegin
  2
*PAPER_SPACE
 70
     0
 10
0.0
 20
0.0
 30
0.0
  3
*PAPER_SPACE
  1

  0
ENDBLK
  5
10
100
AcDbEntity
 67
     1
  8
0
100
AcDbBlockEnd
  0
BLOCK
  5
2B
100
AcDbEntity
  8
LIVELLO_1
 62
     7
100
AcDbBlockBegin
  2
AI9-BLK1
 70
     0
 10
0.0
 20
0.0
 30
0.0
  3
AI9-BLK1
  1

  0
SPLINE
  5
136
100
AcDbEntity
  8
LIVELLO_1
 62
     7
100
AcDbSpline
210
0.0
220
0.0
230
1.0
 70
     8
 71
     3
 72
    17
 73
    13
 74
     0
 42
0.00000001
 43
0.00000001
 40
0.0
 40
0.0
 40
0.0
 40
0.0
 40
1.0
 40
1.0
 40
1.0
 40
2.0
 40
2.0
 40
2.0
 40
3.0
 40
3.0
 40
3.0
 40
4.0
 40
4.0
 40
4.0
 40
4.0
 10
-52.0218031141493
 20
85.636977810329853
 30
0.0
 10
-48.768943956163191
 20
93.288879394531236
 30
0.0
 10
-31.911402723524304
 20
99.11849772135416
 30
0.0
 10
-11.603942871093748
 20
99.11849772135416
 30
0.0
 10
8.7026557074652775
 20
99.11849772135416
 30
0.0
 10
25.560024685329857
 20
93.288879394531236
 30
0.0
 10
28.812883843315969
 20
85.636977810329853
 30
0.0
 10
25.560024685329857
 20
77.986798773871527
 30
0.0
 10
8.7026557074652775
 20
72.155285644531247
 30
0.0
 10
-11.603942871093748
 20
72.155285644531247
 30
0.0
 10
-31.911402723524304
 20
72.155285644531247
 30
0.0
 10
-48.768943956163191
 20
77.986798773871527
 30
0.0
 10
-52.0218031141493
 20
85.636977810329853
 30
0.0
  0
SPLINE
  5
135
100
AcDbEntity
  8
LIVELLO_1
 62
     7
100
AcDbSpline
210
0.0
220
0.0
230
1.0
 70
     8
 71
     3
 72
    47
 73
    43
 74
     0
 42
0.00000001
 43
0.00000001
 40
0.0
 40
0.0
 40
0.0
 40
0.0
 40
1.0
 40
1.0
 40
1.0
 40
2.0
 40
2.0
 40
2.0
 40
3.0
 40
3.0
 40
3.0
 40
4.0
 40
4.0
 40
4.0
 40
5.0
 40
5.0
 40
5.0
 40
6.0
 40
6.0
 40
6.0
 40
7.0
 40
7.0
 40
7.0
 40
8.0
 40
8.0
 40
8.0
 40
9.0
 40
9.0
 40
9.0
 40
10.0
 40
10.0
 40
10.0
 40
11.0
 40
11.0
 40
11.0
 40
12.0
 40
12.0
 40
12.0
 40
13.0
 40
13.0
 40
13.0
 40
14.0
 40
14.0
 40
14.0
 40
14.0
 10
-22.599137369791663
 20
72.744569227430546
 30
0.0
 10
-22.599137369791663
 20
72.744569227430546
 30
0.0
 10
-14.131953938802083
 20
98.285301378038184
 30
0.0
 10
-14.131953938802083
 20
98.285301378038184
 30
0.0
 10
-14.131953938802083
 20
98.285301378038184
 30
0.0
 10
-6.5741034613715268
 20
98.285301378038184
 30
0.0
 10
-6.5741034613715268
 20
98.285301378038184
 30
0.0
 10
-6.5741034613715268
 20
98.285301378038184
 30
0.0
 10
-9.7094848632812489
 20
95.725595431857627
 30
0.0
 10
-9.7094848632812489
 20
95.725595431857627
 30
0.0
 10
-9.7094848632812489
 20
95.725595431857627
 30
0.0
 10
-7.4019599066840271
 20
93.417209201388886
 30
0.0
 10
-7.4019599066840271
 20
93.417209201388886
 30
0.0
 10
-7.4019599066840271
 20
93.417209201388886
 30
0.0
 10
-10.287055121527777
 20
90.917103407118049
 30
0.0
 10
-10.287055121527777
 20
90.917103407118049
 30
0.0
 10
-10.287055121527777
 20
90.917103407118049
 30
0.0
 10
-8.1721110026041668
 20
88.417169867621524
 30
0.0
 10
-8.1721110026041668
 20
88.417169867621524
 30
0.0
 10
-8.1721110026041668
 20
88.417169867621524
 30
0.0
 10
-11.055311414930555
 20
85.725516764322904
 30
0.0
 10
-11.055311414930555
 20
85.725516764322904
 30
0.0
 10
-11.055311414930555
 20
85.725516764322904
 30
0.0
 10
-8.5562391493055543
 20
83.165810818142347
 30
0.0
 10
-8.5562391493055543
 20
83.165810818142347
 30
0.0
 10
-8.5562391493055543
 20
83.165810818142347
 30
0.0
 10
-11.825462510850693
 20
80.087273491753464
 30
0.0
 10
-11.825462510850693
 20
80.087273491753464
 30
0.0
 10
-11.825462510850693
 20
80.087273491753464
 30
0.0
 10
-9.3244954427083329
 20
77.202350531684019
 30
0.0
 10
-9.3244954427083329
 20
77.202350531684019
 30
0.0
 10
-9.3244954427083329
 20
77.202350531684019
 30
0.0
 10
-12.786127387152776
 20
74.702244737413181
 30
0.0
 10
-12.786127387152776
 20
74.702244737413181
 30
0.0
 10
-12.786127387152776
 20
74.702244737413181
 30
0.0
 10
-9.09126247829861
 20
72.184224446614579
 30
0.0
 10
-9.09126247829861
 20
72.184224446614579
 30
0.0
 10
-9.9227362738715268
 20
72.16424289279513
 30
0.0
 10
-10.761617024739582
 20
72.155285644531247
 30
0.0
 10
-11.603942871093748
 20
72.155285644531247
 30
0.0
 10
-15.412668185763888
 20
72.155285644531247
 30
0.0
 10
-19.100298394097219
 20
72.361302354600681
 30
0.0
 10
-22.599137369791663
 20
72.744569227430546
 30
0.0
  0
ELLIPSE
  5
134
100
AcDbEntity
  8
LIVELLO_1
 62
     7
100
AcDbEllipse
 10
-11.604374
 20
88.333971
 30
0.0
 11
-40.983286539713539
 21
0.0
 31
0.0
210
0.0
220
0.0
230
1.0
 40
0.394721
 41
0.0
 42
6.2831853071795862
  0
LINE
  5
133
100
AcDbEntity
  8
LIVELLO_1
 62
     7
100
AcDbLine
 10
-1.826245
 20
120.042457
 30
0.0
 11
-1.826245
 21
109.257931
 31
0.0
  0
HATCH
  5
132
100
AcDbEntity
  8
LIVELLO_1
 62
     7
100
AcDbHatch
 10
0.0
 20
0.0
 30
0.0
210
0.0
220
0.0
230
1.0
  2
SOLID
 70
     1
 71
     0
 91
        1
 92
        3
 72
     0
 73
     1
 93
        4
 10
-1.8262451171874998
 20
109.25793050130207
 10
0.7615383572048611
 20
110.98237304687498
 10
-1.8262451171874998
 20
104.08064100477429
 10
-4.4157511393229161
 20
110.98237304687498
 97
        0
 75
     2
 76
     1
 98
        1
 10
0.0
 20
0.0
  0
LINE
  5
131
100
AcDbEntity
  8
LIVELLO_1
 62
     7
100
AcDbLine
 10
-1.826245
 20
82.292651
 30
0.0
 11
-1.826245
 21
93.079073
 31
0.0
  0
HATCH
  5
130
100
AcDbEntity
  8
LIVELLO_1
 62
     7
100
AcDbHatch
 10
0.0
 20
0.0
 30
0.0
210
0.0
220
0.0
230
1.0
  2
SOLID
 70
     1
 71
     0
 91
        1
 92
        3
 72
     0
 73
     1
 93
        4
 10
-1.8262451171874998
 20
93.079073079427076
 10
-4.4157511393229161
 20
91.352735731336793
 10
-1.8262451171874998
 20
98.256362575954853
 10
0.7615383572048611
 20
91.352735731336793
 97
        0
 75
     2
 76
     1
 98
        1
 10
0.0
 20
0.0
  0
MTEXT
  5
12F
100
AcDbEntity
  8
LIVELLO_1
 62
     7
100
AcDbMText
 10
-27.220905
 20
66.020924
 30
0.0
 40
7.473938
 41
0.0
 71
     1
 72
     2
  1
\fArial Narrow|b0|i0;\H7.4739;\C7;\U+00F8
  7
STD
210
0.0
220
0.0
230
1.0
 73
     1
 44
1.0
  0
MTEXT
  5
12E
100
AcDbEntity
  8
LIVELLO_1
 62
     7
100
AcDbMText
 10
-19.450665
 20
66.020924
 30
0.0
 40
7.473938
 41
0.0
 71
     1
 72
     2
  1
\fArial Narrow|b0|i0;\H7.4739;\C7;\U+0032\U+0032
  7
STD
210
0.0
220
0.0
230
1.0
 73
     1
 44
1.0
  0
MTEXT
  5
12D
100
AcDbEntity
  8
LIVELLO_1
 62
     7
100
AcDbMText
 10
-10.294634
 20
66.020924
 30
0.0
 40
7.473938
 41
0.0
 71
     1
 72
     2
  1
\fArial Narrow|b0|i0;\H7.4739;\C7;\U+0035
  7
STD
210
0.0
220
0.0
230
1.0
 73
     1
 44
1.0
  0
MTEXT
  5
12C
100
AcDbEntity
  8
LIVELLO_1
 62
     7
100
AcDbMText
 10
4.623146
 20
114.604874
 30
0.0
 40
7.396948
 41
0.0
 71
     1
 72
     2
  1
\fArial Narrow|b0|i0;\H7.3969;\C7;\U+0035\H7.3969;\U+002D\U+0033\U+0035
  7
STD
210
0.0
220
0.0
230
1.0
 73
     1
 44
1.0
  0
POLYLINE
  5
126
100
AcDbEntity
  8
LIVELLO_1
 62
     7
100
AcDb2dPolyline
 66
     1
 10
0.0
 20
0.0
 30
0.0
 70
     1
  0
VERTEX
  5
127
100
AcDbEntity
  8
LIVELLO_1
 62
     7
100
AcDbVertex
100
AcDb2dVertex
 10
-71.959604
 20
-4.591451
 30
0.0
  0
VERTEX
  5
128
100
AcDbEntity
  8
LIVELLO_1
 62
     7
100
AcDbVertex
100
AcDb2dVertex
 10
-51.262504
 20
-4.591451
 30
0.0
  0
VERTEX
  5
129
100
AcDbEntity
  8
LIVELLO_1
 62
     7
100
AcDbVertex
100
AcDb2dVertex
 10
-51.262504
 20
10.283782
 30
0.0
  0
VERTEX
  5
12A
100
AcDbEntity
  8
LIVELLO_1
 62
     7
100
AcDbVertex
100
AcDb2dVertex
 10
-66.513081
 20
10.283782
 30
0.0
  0
SEQEND
  5
12B
100
AcDbEntity
  8
LIVELLO_1
 62
     7
  0
LINE
  5
125
100
AcDbEntity
  8
LIVELLO_1
 62
     7
100
AcDbLine
 10
29.325514
 20
39.768977
 30
0.0
 11
29.325514
 21
-4.591451
 31
0.0
  0
LINE
  5
124
100
AcDbEntity
  8
LIVELLO_1
 62
     7
100
AcDbLine
 10
-51.262504
 20
-4.591451
 30
0.0
 11
-51.290582
 21
39.768977
 31
0.0
  0
POLYLINE
  5
11E
100
AcDbEntity
  8
LIVELLO_1
 62
     7
100
AcDb2dPolyline
 66
     1
 10
0.0
 20
0.0
 30
0.0
 70
     1
  0
VERTEX
  5
11F
100
AcDbEntity
  8
LIVELLO_1
 62
     7
100
AcDbVertex
100
AcDb2dVertex
 10
48.66318
 20
-4.591451
 30
0.0
  0
VERTEX
  5
120
100
AcDbEntity
  8
LIVELLO_1
 62
     7
100
AcDbVertex
100
AcDb2dVertex
 10
29.325514
 20
-4.591451
 30
0.0
  0
VERTEX
  5
121
100
AcDbEntity
  8
LIVELLO_1
 62
     7
100
AcDbVertex
100
AcDb2dVertex
 10
29.325514
 20
10.283782
 30
0.0
  0
VERTEX
  5
122
100
AcDbEntity
  8
LIVELLO_1
 62
     7
100
AcDbVertex
100
AcDb2dVertex
 10
44.672725
 20
10.283782
 30
0.0
  0
SEQEND
  5
123
100
AcDbEntity
  8
LIVELLO_1
 62
     7
  0
POLYLINE
  5
119
100
AcDbEntity
  8
LIVELLO_1
 62
     7
100
AcDb2dPolyline
 66
     1
 10
0.0
 20
0.0
 30
0.0
  0
VERTEX
  5
11A
100
AcDbEntity
  8
LIVELLO_1
 62
     7
100
AcDbVertex
100
AcDb2dVertex
 10
40.260936
 20
12.304848
 30
0.0
  0
VERTEX
  5
11B
100
AcDbEntity
  8
LIVELLO_1
 62
     7
100
AcDbVertex
100
AcDb2dVertex
 10
31.952055
 20
12.304848
 30
0.0
  0
VERTEX
  5
11C
100
AcDbEntity
  8
LIVELLO_1
 62
     7
100
AcDbVertex
100
AcDb2dVertex
 10
31.97996
 20
39.768977
 30
0.0
  0
SEQEND
  5
11D
100
AcDbEntity
  8
LIVELLO_1
 62
     7
  0
POLYLINE
  5
114
100
AcDbEntity
  8
LIVELLO_1
 62
     7
100
AcDb2dPolyline
 66
     1
 10
0.0
 20
0.0
 30
0.0
  0
VERTEX
  5
115
100
AcDbEntity
  8
LIVELLO_1
 62
     7
100
AcDbVertex
100
AcDb2dVertex
 10
-62.037212
 20
12.304848
 30
0.0
  0
VERTEX
  5
116
100
AcDbEntity
  8
LIVELLO_1
 62
     7
100
AcDbVertex
100
AcDb2dVertex
 10
-53.728331
 20
12.304848
 30
0.0
  0
VERTEX
  5
117
100
AcDbEntity
  8
LIVELLO_1
 62
     7
100
AcDbVertex
100
AcDb2dVertex
 10
-53.754514
 20
39.768977
 30
0.0
  0
SEQEND
  5
118
100
AcDbEntity
  8
LIVELLO_1
 62
     7
  0
POLYLINE
  5
10E
100
AcDbEntity
  8
LIVELLO_1
 62
     7
100
AcDb2dPolyline
 66
     1
 10
0.0
 20
0.0
 30
0.0
 70
     1
  0
VERTEX
  5
10F
100
AcDbEntity
  8
LIVELLO_1
 62
     7
100
AcDbVertex
100
AcDb2dVertex
 10
-55.519609
 20
29.159633
 30
0.0
  0
VERTEX
  5
110
100
AcDbEntity
  8
LIVELLO_1
 62
     7
100
AcDbVertex
100
AcDb2dVertex
 10
-54.378076
 20
29.159633
 30
0.0
  0
VERTEX
  5
111
100
AcDbEntity
  8
LIVELLO_1
 62
     7
100
AcDbVertex
100
AcDb2dVertex
 10
-54.378076
 20
26.945298
 30
0.0
  0
VERTEX
  5
112
100
AcDbEntity
  8
LIVELLO_1
 62
     7
100
AcDbVertex
100
AcDb2dVertex
 10
-55.519609
 20
26.945298
 30
0.0
  0
SEQEND
  5
113
100
AcDbEntity
  8
LIVELLO_1
 62
     7
  0
POLYLINE
  5
108
100
AcDbEntity
  8
LIVELLO_1
 62
     7
100
AcDb2dPolyline
 66
     1
 10
0.0
 20
0.0
 30
0.0
 70
     1
  0
VERTEX
  5
109
100
AcDbEntity
  8
LIVELLO_1
 62
     7
100
AcDbVertex
100
AcDb2dVertex
 10
-53.92074
 20
28.676975
 30
0.0
  0
VERTEX
  5
10A
100
AcDbEntity
  8
LIVELLO_1
 62
     7
100
AcDbVertex
100
AcDb2dVertex
 10
-51.273356
 20
28.676975
 30
0.0
  0
VERTEX
  5
10B
100
AcDbEntity
  8
LIVELLO_1
 62
     7
100
AcDbVertex
100
AcDb2dVertex
 10
-51.273356
 20
27.427955
 30
0.0
  0
VERTEX
  5
10C
100
AcDbEntity
  8
LIVELLO_1
 62
     7
100
AcDbVertex
100
AcDb2dVertex
 10
-53.92074
 20
27.427955
 30
0.0
  0
SEQEND
  5
10D
100
AcDbEntity
  8
LIVELLO_1
 62
     7
  0
POLYLINE
  5
102
100
AcDbEntity
  8
LIVELLO_1
 62
     7
100
AcDb2dPolyline
 66
     1
 10
0.0
 20
0.0
 30
0.0
 70
     1
  0
VERTEX
  5
103
100
AcDbEntity
  8
LIVELLO_1
 62
     7
100
AcDbVertex
100
AcDb2dVertex
 10
-53.92074
 20
28.676975
 30
0.0
  0
VERTEX
  5
104
100
AcDbEntity
  8
LIVELLO_1
 62
     7
100
AcDbVertex
100
AcDb2dVertex
 10
-51.273356
 20
28.676975
 30
0.0
  0
VERTEX
  5
105
100
AcDbEntity
  8
LIVELLO_1
 62
     7
100
AcDbVertex
100
AcDb2dVertex
 10
-51.273356
 20
27.427955
 30
0.0
  0
VERTEX
  5
106
100
AcDbEntity
  8
LIVELLO_1
 62
     7
100
AcDbVertex
100
AcDb2dVertex
 10
-53.92074
 20
27.427955
 30
0.0
  0
SEQEND
  5
107
100
AcDbEntity
  8
LIVELLO_1
 62
     7
  0
POLYLINE
  5
FC
100
AcDbEntity
  8
LIVELLO_1
 62
     7
100
AcDb2dPolyline
 66
     1
 10
0.0
 20
0.0
 30
0.0
 70
     1
  0
VERTEX
  5
FD
100
AcDbEntity
  8
LIVELLO_1
 62
     7
100
AcDbVertex
100
AcDb2dVertex
 10
-50.895601
 20
29.16325
 30
0.0
  0
VERTEX
  5
FE
100
AcDbEntity
  8
LIVELLO_1
 62
     7
100
AcDbVertex
100
AcDb2dVertex
 10
-49.754069
 20
29.16325
 30
0.0
  0
VERTEX
  5
FF
100
AcDbEntity
  8
LIVELLO_1
 62
     7
100
AcDbVertex
100
AcDb2dVertex
 10
-49.754069
 20
26.945298
 30
0.0
  0
VERTEX
  5
100
100
AcDbEntity
  8
LIVELLO_1
 62
     7
100
AcDbVertex
100
AcDb2dVertex
 10
-50.895601
 20
26.945298
 30
0.0
  0
SEQEND
  5
101
100
AcDbEntity
  8
LIVELLO_1
 62
     7
  0
POLYLINE
  5
F6
100
AcDbEntity
  8
LIVELLO_1
 62
     7
100
AcDb2dPolyline
 66
     1
 10
0.0
 20
0.0
 30
0.0
 70
     1
  0
VERTEX
  5
F7
100
AcDbEntity
  8
LIVELLO_1
 62
     7
100
AcDbVertex
100
AcDb2dVertex
 10
-56.563645
 20
28.676975
 30
0.0
  0
VERTEX
  5
F8
100
AcDbEntity
  8
LIVELLO_1
 62
     7
100
AcDbVertex
100
AcDb2dVertex
 10
-55.538557
 20
28.676975
 30
0.0
  0
VERTEX
  5
F9
100
AcDbEntity
  8
LIVELLO_1
 62
     7
100
AcDbVertex
100
AcDb2dVertex
 10
-55.538557
 20
27.427955
 30
0.0
  0
VERTEX
  5
FA
100
AcDbEntity
  8
LIVELLO_1
 62
     7
100
AcDbVertex
100
AcDb2dVertex
 10
-56.563645
 20
27.427955
 30
0.0
  0
SEQEND
  5
FB
100
AcDbEntity
  8
LIVELLO_1
 62
     7
  0
POLYLINE
  5
F0
100
AcDbEntity
  8
LIVELLO_1
 62
     7
100
AcDb2dPolyline
 66
     1
 10
0.0
 20
0.0
 30
0.0
 70
     1
  0
VERTEX
  5
F1
100
AcDbEntity
  8
LIVELLO_1
 62
     7
100
AcDbVertex
100
AcDb2dVertex
 10
-56.563645
 20
28.676975
 30
0.0
  0
VERTEX
  5
F2
100
AcDbEntity
  8
LIVELLO_1
 62
     7
100
AcDbVertex
100
AcDb2dVertex
 10
-55.538557
 20
28.676975
 30
0.0
  0
VERTEX
  5
F3
100
AcDbEntity
  8
LIVELLO_1
 62
     7
100
AcDbVertex
100
AcDb2dVertex
 10
-55.538557
 20
27.427955
 30
0.0
  0
VERTEX
  5
F4
100
AcDbEntity
  8
LIVELLO_1
 62
     7
100
AcDbVertex
100
AcDb2dVertex
 10
-56.563645
 20
27.427955
 30
0.0
  0
SEQEND
  5
F5
100
AcDbEntity
  8
LIVELLO_1
 62
     7
  0
POLYLINE
  5
EA
100
AcDbEntity
  8
LIVELLO_1
 62
     7
100
AcDb2dPolyline
 66
     1
 10
0.0
 20
0.0
 30
0.0
 70
     1
  0
VERTEX
  5
EB
100
AcDbEntity
  8
LIVELLO_1
 62
     7
100
AcDbVertex
100
AcDb2dVertex
 10
33.15336
 20
29.159633
 30
0.0
  0
VERTEX
  5
EC
100
AcDbEntity
  8
LIVELLO_1
 62
     7
100
AcDbVertex
100
AcDb2dVertex
 10
32.008899
 20
29.159633
 30
0.0
  0
VERTEX
  5
ED
100
AcDbEntity
  8
LIVELLO_1
 62
     7
100
AcDbVertex
100
AcDb2dVertex
 10
32.008899
 20
26.945298
 30
0.0
  0
VERTEX
  5
EE
100
AcDbEntity
  8
LIVELLO_1
 62
     7
100
AcDbVertex
100
AcDb2dVertex
 10
33.15336
 20
26.945298
 30
0.0
  0
SEQEND
  5
EF
100
AcDbEntity
  8
LIVELLO_1
 62
     7
  0
POLYLINE
  5
E4
100
AcDbEntity
  8
LIVELLO_1
 62
     7
100
AcDb2dPolyline
 66
     1
 10
0.0
 20
0.0
 30
0.0
 70
     1
  0
VERTEX
  5
E5
100
AcDbEntity
  8
LIVELLO_1
 62
     7
100
AcDbVertex
100
AcDb2dVertex
 10
31.556213
 20
28.676975
 30
0.0
  0
VERTEX
  5
E6
100
AcDbEntity
  8
LIVELLO_1
 62
     7
100
AcDbVertex
100
AcDb2dVertex
 10
29.225262
 20
28.676975
 30
0.0
  0
VERTEX
  5
E7
100
AcDbEntity
  8
LIVELLO_1
 62
     7
100
AcDbVertex
100
AcDb2dVertex
 10
29.225262
 20
27.427955
 30
0.0
  0
VERTEX
  5
E8
100
AcDbEntity
  8
LIVELLO_1
 62
     7
100
AcDbVertex
100
AcDb2dVertex
 10
31.556213
 20
27.427955
 30
0.0
  0
SEQEND
  5
E9
100
AcDbEntity
  8
LIVELLO_1
 62
     7
  0
POLYLINE
  5
DE
100
AcDbEntity
  8
LIVELLO_1
 62
     7
100
AcDb2dPolyline
 66
     1
 10
0.0
 20
0.0
 30
0.0
 70
     1
  0
VERTEX
  5
DF
100
AcDbEntity
  8
LIVELLO_1
 62
     7
100
AcDbVertex
100
AcDb2dVertex
 10
31.556213
 20
28.676975
 30
0.0
  0
VERTEX
  5
E0
100
AcDbEntity
  8
LIVELLO_1
 62
     7
100
AcDbVertex
100
AcDb2dVertex
 10
29.223539
 20
28.676975
 30
0.0
  0
VERTEX
  5
E1
100
AcDbEntity
  8
LIVELLO_1
 62
     7
100
AcDbVertex
100
AcDb2dVertex
 10
29.223539
 20
27.427955
 30
0.0
  0
VERTEX
  5
E2
100
AcDbEntity
  8
LIVELLO_1
 62
     7
100
AcDbVertex
100
AcDb2dVertex
 10
31.556213
 20
27.427955
 30
0.0
  0
SEQEND
  5
E3
100
AcDbEntity
  8
LIVELLO_1
 62
     7
  0
POLYLINE
  5
D8
100
AcDbEntity
  8
LIVELLO_1
 62
     7
100
AcDb2dPolyline
 66
     1
 10
0.0
 20
0.0
 30
0.0
 70
     1
  0
VERTEX
  5
D9
100
AcDbEntity
  8
LIVELLO_1
 62
     7
100
AcDbVertex
100
AcDb2dVertex
 10
27.702185
 20
29.16325
 30
0.0
  0
VERTEX
  5
DA
100
AcDbEntity
  8
LIVELLO_1
 62
     7
100
AcDbVertex
100
AcDb2dVertex
 10
28.84389
 20
29.16325
 30
0.0
  0
VERTEX
  5
DB
100
AcDbEntity
  8
LIVELLO_1
 62
     7
100
AcDbVertex
100
AcDb2dVertex
 10
28.84389
 20
26.945298
 30
0.0
  0
VERTEX
  5
DC
100
AcDbEntity
  8
LIVELLO_1
 62
     7
100
AcDbVertex
100
AcDb2dVertex
 10
27.702185
 20
26.945298
 30
0.0
  0
SEQEND
  5
DD
100
AcDbEntity
  8
LIVELLO_1
 62
     7
  0
POLYLINE
  5
D2
100
AcDbEntity
  8
LIVELLO_1
 62
     7
100
AcDb2dPolyline
 66
     1
 10
0.0
 20
0.0
 30
0.0
 70
     1
  0
VERTEX
  5
D3
100
AcDbEntity
  8
LIVELLO_1
 62
     7
100
AcDbVertex
100
AcDb2dVertex
 10
34.197224
 20
28.676975
 30
0.0
  0
VERTEX
  5
D4
100
AcDbEntity
  8
LIVELLO_1
 62
     7
100
AcDbVertex
100
AcDb2dVertex
 10
33.17403
 20
28.676975
 30
0.0
  0
VERTEX
  5
D5
100
AcDbEntity
  8
LIVELLO_1
 62
     7
100
AcDbVertex
100
AcDb2dVertex
 10
33.17403
 20
27.427955
 30
0.0
  0
VERTEX
  5
D6
100
AcDbEntity
  8
LIVELLO_1
 62
     7
100
AcDbVertex
100
AcDb2dVertex
 10
34.197224
 20
27.427955
 30
0.0
  0
SEQEND
  5
D7
100
AcDbEntity
  8
LIVELLO_1
 62
     7
  0
POLYLINE
  5
CC
100
AcDbEntity
  8
LIVELLO_1
 62
     7
100
AcDb2dPolyline
 66
     1
 10
0.0
 20
0.0
 30
0.0
 70
     1
  0
VERTEX
  5
CD
100
AcDbEntity
  8
LIVELLO_1
 62
     7
100
AcDbVertex
100
AcDb2dVertex
 10
34.197224
 20
28.676975
 30
0.0
  0
VERTEX
  5
CE
100
AcDbEntity
  8
LIVELLO_1
 62
     7
100
AcDbVertex
100
AcDb2dVertex
 10
33.17403
 20
28.676975
 30
0.0
  0
VERTEX
  5
CF
100
AcDbEntity
  8
LIVELLO_1
 62
     7
100
AcDbVertex
100
AcDb2dVertex
 10
33.17403
 20
27.427955
 30
0.0
  0
VERTEX
  5
D0
100
AcDbEntity
  8
LIVELLO_1
 62
     7
100
AcDbVertex
100
AcDb2dVertex
 10
34.197224
 20
27.427955
 30
0.0
  0
SEQEND
  5
D1
100
AcDbEntity
  8
LIVELLO_1
 62
     7
  0
LINE
  5
CB
100
AcDbEntity
  8
LIVELLO_1
 62
     7
100
AcDbLine
 10
12.64884
 20
27.838266
 30
0.0
 11
16.352662
 21
27.838266
 31
0.0
  0
LINE
  5
CA
100
AcDbEntity
  8
LIVELLO_1
 62
     7
100
AcDbLine
 10
17.837671
 20
28.579306
 30
0.0
 11
11.164693
 21
28.579306
 31
0.0
  0
LINE
  5
C9
100
AcDbEntity
  8
LIVELLO_1
 62
     7
100
AcDbLine
 10
20.803209
 20
16.350423
 30
0.0
 11
-42.947249
 21
16.350423
 31
0.0
  0
LINE
  5
C8
100
AcDbEntity
  8
LIVELLO_1
 62
     7
100
AcDbLine
 10
20.803209
 20
16.720943
 30
0.0
 11
-42.947249
 21
16.720943
 31
0.0
  0
LINE
  5
C7
100
AcDbEntity
  8
LIVELLO_1
 62
     7
100
AcDbLine
 10
22.283739
 20
32.286918
 30
0.0
 11
-8.849072
 21
32.286918
 31
0.0
  0
POLYLINE
  5
C1
100
AcDbEntity
  8
LIVELLO_1
 62
     7
100
AcDb2dPolyline
 66
     1
 10
0.0
 20
0.0
 30
0.0
 70
     1
  0
VERTEX
  5
C2
100
AcDbEntity
  8
LIVELLO_1
 62
     7
100
AcDbVertex
100
AcDb2dVertex
 10
3.647495
 20
30.030897
 30
0.0
  0
VERTEX
  5
C3
100
AcDbEntity
  8
LIVELLO_1
 62
     7
100
AcDbVertex
100
AcDb2dVertex
 10
3.647495
 20
27.87444
 30
0.0
  0
VERTEX
  5
C4
100
AcDbEntity
  8
LIVELLO_1
 62
     7
100
AcDbVertex
100
AcDb2dVertex
 10
-3.479374
 20
27.87444
 30
0.0
  0
VERTEX
  5
C5
100
AcDbEntity
  8
LIVELLO_1
 62
     7
100
AcDbVertex
100
AcDb2dVertex
 10
-3.479374
 20
30.030897
 30
0.0
  0
SEQEND
  5
C6
100
AcDbEntity
  8
LIVELLO_1
 62
     7
  0
POLYLINE
  5
BB
100
AcDbEntity
  8
LIVELLO_1
 62
     7
100
AcDb2dPolyline
 66
     1
 10
0.0
 20
0.0
 30
0.0
 70
     1
  0
VERTEX
  5
BC
100
AcDbEntity
  8
LIVELLO_1
 62
     7
100
AcDbVertex
100
AcDb2dVertex
 10
3.839903
 20
27.87444
 30
0.0
  0
VERTEX
  5
BD
100
AcDbEntity
  8
LIVELLO_1
 62
     7
100
AcDbVertex
100
AcDb2dVertex
 10
3.839903
 20
26.632483
 30
0.0
  0
VERTEX
  5
BE
100
AcDbEntity
  8
LIVELLO_1
 62
     7
100
AcDbVertex
100
AcDb2dVertex
 10
-3.677295
 20
26.632483
 30
0.0
  0
VERTEX
  5
BF
100
AcDbEntity
  8
LIVELLO_1
 62
     7
100
AcDbVertex
100
AcDb2dVertex
 10
-3.677295
 20
27.87444
 30
0.0
  0
SEQEND
  5
C0
100
AcDbEntity
  8
LIVELLO_1
 62
     7
  0
POLYLINE
  5
B5
100
AcDbEntity
  8
LIVELLO_1
 62
     7
100
AcDb2dPolyline
 66
     1
 10
0.0
 20
0.0
 30
0.0
 70
     1
  0
VERTEX
  5
B6
100
AcDbEntity
  8
LIVELLO_1
 62
     7
100
AcDbVertex
100
AcDb2dVertex
 10
3.071647
 20
25.781028
 30
0.0
  0
VERTEX
  5
B7
100
AcDbEntity
  8
LIVELLO_1
 62
     7
100
AcDbVertex
100
AcDb2dVertex
 10
3.071647
 20
24.613312
 30
0.0
  0
VERTEX
  5
B8
100
AcDbEntity
  8
LIVELLO_1
 62
     7
100
AcDbVertex
100
AcDb2dVertex
 10
-2.905421
 20
24.613312
 30
0.0
  0
VERTEX
  5
B9
100
AcDbEntity
  8
LIVELLO_1
 62
     7
100
AcDbVertex
100
AcDb2dVertex
 10
-2.905421
 20
25.781028
 30
0.0
  0
SEQEND
  5
BA
100
AcDbEntity
  8
LIVELLO_1
 62
     7
  0
POLYLINE
  5
AD
100
AcDbEntity
  8
LIVELLO_1
 62
     7
100
AcDb2dPolyline
 66
     1
 10
0.0
 20
0.0
 30
0.0
 70
     1
  0
VERTEX
  5
AE
100
AcDbEntity
  8
LIVELLO_1
 62
     7
100
AcDbVertex
100
AcDb2dVertex
 10
15.612484
 20
21.167872
 30
0.0
  0
VERTEX
  5
AF
100
AcDbEntity
  8
LIVELLO_1
 62
     7
100
AcDbVertex
100
AcDb2dVertex
 10
15.612484
 20
16.720943
 30
0.0
  0
VERTEX
  5
B0
100
AcDbEntity
  8
LIVELLO_1
 62
     7
100
AcDbVertex
100
AcDb2dVertex
 10
13.38988
 20
16.720943
 30
0.0
  0
VERTEX
  5
B1
100
AcDbEntity
  8
LIVELLO_1
 62
     7
100
AcDbVertex
100
AcDb2dVertex
 10
13.38988
 20
21.167872
 30
0.0
  0
VERTEX
  5
B2
100
AcDbEntity
  8
LIVELLO_1
 62
     7
100
AcDbVertex
100
AcDb2dVertex
 10
14.237718
 20
21.540287
 30
0.0
  0
VERTEX
  5
B3
100
AcDbEntity
  8
LIVELLO_1
 62
     7
100
AcDbVertex
100
AcDb2dVertex
 10
14.891253
 20
21.540287
 30
0.0
  0
SEQEND
  5
B4
100
AcDbEntity
  8
LIVELLO_1
 62
     7
  0
POLYLINE
  5
9D
100
AcDbEntity
  8
LIVELLO_1
 62
     7
100
AcDb2dPolyline
 66
     1
 10
0.0
 20
0.0
 30
0.0
  0
VERTEX
  5
9E
100
AcDbEntity
  8
LIVELLO_1
 62
     7
100
AcDbVertex
100
AcDb2dVertex
 10
-49.618505
 20
-1.068324
 30
0.0
  0
VERTEX
  5
9F
100
AcDbEntity
  8
LIVELLO_1
 62
     7
100
AcDbVertex
100
AcDb2dVertex
 10
-49.618505
 20
0.413928
 30
0.0
  0
VERTEX
  5
A0
100
AcDbEntity
  8
LIVELLO_1
 62
     7
100
AcDbVertex
100
AcDb2dVertex
 10
-44.430535
 20
0.413928
 30
0.0
  0
VERTEX
  5
A1
100
AcDbEntity
  8
LIVELLO_1
 62
     7
100
AcDbVertex
100
AcDb2dVertex
 10
-43.690184
 20
31.543983
 30
0.0
  0
VERTEX
  5
A2
100
AcDbEntity
  8
LIVELLO_1
 62
     7
100
AcDbVertex
100
AcDb2dVertex
 10
-8.108721
 20
31.543983
 30
0.0
  0
VERTEX
  5
A3
100
AcDbEntity
  8
LIVELLO_1
 62
     7
100
AcDbVertex
100
AcDb2dVertex
 10
-5.883534
 20
27.838266
 30
0.0
  0
VERTEX
  5
A4
100
AcDbEntity
  8
LIVELLO_1
 62
     7
100
AcDbVertex
100
AcDb2dVertex
 10
11.686108
 20
27.838266
 30
0.0
  0
VERTEX
  5
A5
100
AcDbEntity
  8
LIVELLO_1
 62
     7
100
AcDbVertex
100
AcDb2dVertex
 10
12.64884
 20
16.720943
 30
0.0
  0
VERTEX
  5
A6
100
AcDbEntity
  8
LIVELLO_1
 62
     7
100
AcDbVertex
100
AcDb2dVertex
 10
16.352662
 20
16.720943
 30
0.0
  0
VERTEX
  5
A7
100
AcDbEntity
  8
LIVELLO_1
 62
     7
100
AcDbVertex
100
AcDb2dVertex
 10
17.374995
 20
27.838266
 30
0.0
  0
VERTEX
  5
A8
100
AcDbEntity
  8
LIVELLO_1
 62
     7
100
AcDbVertex
100
AcDb2dVertex
 10
21.543388
 20
27.838266
 30
0.0
  0
VERTEX
  5
A9
100
AcDbEntity
  8
LIVELLO_1
 62
     7
100
AcDbVertex
100
AcDb2dVertex
 10
22.283739
 20
0.413928
 30
0.0
  0
VERTEX
  5
AA
100
AcDbEntity
  8
LIVELLO_1
 62
     7
100
AcDbVertex
100
AcDb2dVertex
 10
27.472742
 20
0.413928
 30
0.0
  0
VERTEX
  5
AB
100
AcDbEntity
  8
LIVELLO_1
 62
     7
100
AcDbVertex
100
AcDb2dVertex
 10
27.472742
 20
-1.068324
 30
0.0
  0
SEQEND
  5
AC
100
AcDbEntity
  8
LIVELLO_1
 62
     7
  0
SPLINE
  5
9C
100
AcDbEntity
  8
LIVELLO_1
 62
     7
100
AcDbSpline
210
0.0
220
0.0
230
1.0
 70
     8
 71
     3
 72
    80
 73
    76
 74
     0
 42
0.00000001
 43
0.00000001
 40
0.0
 40
0.0
 40
0.0
 40
0.0
 40
1.0
 40
1.0
 40
1.0
 40
2.0
 40
2.0
 40
2.0
 40
3.0
 40
3.0
 40
3.0
 40
4.0
 40
4.0
 40
4.0
 40
5.0
 40
5.0
 40
5.0
 40
6.0
 40
6.0
 40
6.0
 40
7.0
 40
7.0
 40
7.0
 40
8.0
 40
8.0
 40
8.0
 40
9.0
 40
9.0
 40
9.0
 40
10.0
 40
10.0
 40
10.0
 40
11.0
 40
11.0
 40
11.0
 40
12.0
 40
12.0
 40
12.0
 40
13.0
 40
13.0
 40
13.0
 40
14.0
 40
14.0
 40
14.0
 40
15.0
 40
15.0
 40
15.0
 40
16.0
 40
16.0
 40
16.0
 40
17.0
 40
17.0
 40
17.0
 40
18.0
 40
18.0
 40
18.0
 40
19.0
 40
19.0
 40
19.0
 40
20.0
 40
20.0
 40
20.0
 40
21.0
 40
21.0
 40
21.0
 40
22.0
 40
22.0
 40
22.0
 40
23.0
 40
23.0
 40
23.0
 40
24.0
 40
24.0
 40
24.0
 40
25.0
 40
25.0
 40
25.0
 40
25.0
 10
28.214815266927079
 20
-1.0683241102430554
 30
0.0
 10
28.214815266927079
 20
-1.0683241102430554
 30
0.0
 10
28.214815266927079
 20
1.8961805555555553
 30
0.0
 10
28.214815266927079
 20
1.8961805555555553
 30
0.0
 10
28.214815266927079
 20
1.8961805555555553
 30
0.0
 10
27.472741699218748
 20
1.8961805555555553
 30
0.0
 10
27.472741699218748
 20
1.8961805555555553
 30
0.0
 10
27.472741699218748
 20
1.8961805555555553
 30
0.0
 10
27.472741699218748
 20
1.1532457139756944
 30
0.0
 10
25.991350640190969
 20
1.1532457139756944
 30
0.0
 10
25.991350640190969
 20
1.1532457139756944
 30
0.0
 10
24.507203504774303
 20
1.1532457139756944
 30
0.0
 10
24.507203504774303
 20
1.1532457139756944
 30
0.0
 10
24.507203504774303
 20
1.1532457139756944
 30
0.0
 10
23.024089898003471
 20
1.1532457139756944
 30
0.0
 10
23.024089898003471
 20
1.8961805555555553
 30
0.0
 10
23.024089898003471
 20
2.6373928493923611
 30
0.0
 10
22.283738878038193
 20
32.286918131510411
 30
0.0
 10
22.283738878038193
 20
32.286918131510411
 30
0.0
 10
22.283738878038193
 20
32.286918131510411
 30
0.0
 10
21.543387858072915
 20
32.286918131510411
 30
0.0
 10
21.543387858072915
 20
32.286918131510411
 30
0.0
 10
21.543387858072915
 20
32.286918131510411
 30
0.0
 10
21.543387858072915
 20
28.579306369357635
 30
0.0
 10
21.543387858072915
 20
28.579306369357635
 30
0.0
 10
21.543387858072915
 20
28.579306369357635
 30
0.0
 10
16.462044270833331
 20
28.579306369357635
 30
0.0
 10
16.462044270833331
 20
28.579306369357635
 30
0.0
 10
16.462044270833331
 20
28.579306369357635
 30
0.0
 10
15.983003743489581
 20
22.650124782986108
 30
0.0
 10
15.983003743489581
 20
22.650124782986108
 30
0.0
 10
15.983003743489581
 20
22.650124782986108
 30
0.0
 10
13.019360351562499
 20
22.650124782986108
 30
0.0
 10
13.019360351562499
 20
22.650124782986108
 30
0.0
 10
13.019360351562499
 20
22.650124782986108
 30
0.0
 10
12.60267605251736
 20
28.579306369357635
 30
0.0
 10
12.60267605251736
 20
28.579306369357635
 30
0.0
 10
12.60267605251736
 20
28.579306369357635
 30
0.0
 10
4.4951605902777771
 20
28.579306369357635
 30
0.0
 10
4.4951605902777771
 20
28.579306369357635
 30
0.0
 10
4.4951605902777771
 20
28.579306369357635
 30
0.0
 10
4.4951605902777771
 20
30.063453504774301
 30
0.0
 10
4.4951605902777771
 20
30.063453504774301
 30
0.0
 10
4.4951605902777771
 20
30.063453504774301
 30
0.0
 10
-3.6609307183159721
 20
30.063453504774301
 30
0.0
 10
-3.6609307183159721
 20
30.063453504774301
 30
0.0
 10
-3.6609307183159721
 20
30.063453504774301
 30
0.0
 10
-4.4012817382812495
 20
28.579306369357635
 30
0.0
 10
-4.4012817382812495
 20
28.579306369357635
 30
0.0
 10
-4.4012817382812495
 20
28.579306369357635
 30
0.0
 10
-5.1433553059895827
 20
28.579306369357635
 30
0.0
 10
-5.1433553059895827
 20
28.579306369357635
 30
0.0
 10
-5.1433553059895827
 20
28.579306369357635
 30
0.0
 10
-7.3668199327256936
 20
32.286918131510411
 30
0.0
 10
-7.3668199327256936
 20
32.286918131510411
 30
0.0
 10
-7.3668199327256936
 20
32.286918131510411
 30
0.0
 10
-44.430535210503471
 20
32.286918131510411
 30
0.0
 10
-44.430535210503471
 20
32.286918131510411
 30
0.0
 10
-44.430535210503471
 20
32.286918131510411
 30
0.0
 10
-45.17071397569444
 20
2.6373928493923611
 30
0.0
 10
-45.17071397569444
 20
1.8961805555555553
 30
0.0
 10
-45.17071397569444
 20
1.1532457139756944
 30
0.0
 10
-46.65486111111111
 20
1.1532457139756944
 30
0.0
 10
-46.65486111111111
 20
1.1532457139756944
 30
0.0
 10
-46.65486111111111
 20
1.1532457139756944
 30
0.0
 10
-48.136252170138881
 20
1.1532457139756944
 30
0.0
 10
-48.136252170138881
 20
1.1532457139756944
 30
0.0
 10
-49.618504503038189
 20
1.1532457139756944
 30
0.0
 10
-49.618504503038189
 20
1.8961805555555553
 30
0.0
 10
-49.618504503038189
 20
1.8961805555555553
 30
0.0
 10
-49.618504503038189
 20
1.8961805555555553
 30
0.0
 10
-50.361439344618049
 20
1.8961805555555553
 30
0.0
 10
-50.361439344618049
 20
1.8961805555555553
 30
0.0
 10
-50.361439344618049
 20
1.8961805555555553
 30
0.0
 10
-50.361439344618049
 20
-1.0683241102430554
 30
0.0
 10
-50.361439344618049
 20
-1.0683241102430554
 30
0.0
  0
LINE
  5
9B
100
AcDbEntity
  8
LIVELLO_1
 62
     7
100
AcDbLine
 10
20.803209
 20
0.041513
 30
0.0
 11
-42.947249
 21
0.041513
 31
0.0
  0
POLYLINE
  5
93
100
AcDbEntity
  8
LIVELLO_1
 62
     7
100
AcDb2dPolyline
 66
     1
 10
0.0
 20
0.0
 30
0.0
 70
     1
  0
VERTEX
  5
94
100
AcDbEntity
  8
LIVELLO_1
 62
     7
100
AcDbVertex
100
AcDb2dVertex
 10
-49.618505
 20
-1.809536
 30
0.0
  0
VERTEX
  5
95
100
AcDbEntity
  8
LIVELLO_1
 62
     7
100
AcDbVertex
100
AcDb2dVertex
 10
-49.618505
 20
-5.517148
 30
0.0
  0
VERTEX
  5
96
100
AcDbEntity
  8
LIVELLO_1
 62
     7
100
AcDbVertex
100
AcDb2dVertex
 10
-45.170714
 20
-5.517148
 30
0.0
  0
VERTEX
  5
97
100
AcDbEntity
  8
LIVELLO_1
 62
     7
100
AcDbVertex
100
AcDb2dVertex
 10
-45.170714
 20
-4.405416
 30
0.0
  0
VERTEX
  5
98
100
AcDbEntity
  8
LIVELLO_1
 62
     7
100
AcDbVertex
100
AcDb2dVertex
 10
-45.910893
 20
-4.405416
 30
0.0
  0
VERTEX
  5
99
100
AcDbEntity
  8
LIVELLO_1
 62
     7
100
AcDbVertex
100
AcDb2dVertex
 10
-45.928118
 20
-1.809536
 30
0.0
  0
SEQEND
  5
9A
100
AcDbEntity
  8
LIVELLO_1
 62
     7
  0
POLYLINE
  5
8D
100
AcDbEntity
  8
LIVELLO_1
 62
     7
100
AcDb2dPolyline
 66
     1
 10
0.0
 20
0.0
 30
0.0
 70
     1
  0
VERTEX
  5
8E
100
AcDbEntity
  8
LIVELLO_1
 62
     7
100
AcDbVertex
100
AcDb2dVertex
 10
-42.947249
 20
-2.922991
 30
0.0
  0
VERTEX
  5
8F
100
AcDbEntity
  8
LIVELLO_1
 62
     7
100
AcDbVertex
100
AcDb2dVertex
 10
-42.947249
 20
-4.405416
 30
0.0
  0
VERTEX
  5
90
100
AcDbEntity
  8
LIVELLO_1
 62
     7
100
AcDbVertex
100
AcDb2dVertex
 10
-45.912788
 20
-4.405416
 30
0.0
  0
VERTEX
  5
91
100
AcDbEntity
  8
LIVELLO_1
 62
     7
100
AcDbVertex
100
AcDb2dVertex
 10
-45.912788
 20
-2.922991
 30
0.0
  0
SEQEND
  5
92
100
AcDbEntity
  8
LIVELLO_1
 62
     7
  0
POLYLINE
  5
87
100
AcDbEntity
  8
LIVELLO_1
 62
     7
100
AcDb2dPolyline
 66
     1
 10
0.0
 20
0.0
 30
0.0
 70
     1
  0
VERTEX
  5
88
100
AcDbEntity
  8
LIVELLO_1
 62
     7
100
AcDbVertex
100
AcDb2dVertex
 10
-42.947249
 20
0.413928
 30
0.0
  0
VERTEX
  5
89
100
AcDbEntity
  8
LIVELLO_1
 62
     7
100
AcDbVertex
100
AcDb2dVertex
 10
-42.947249
 20
-1.068324
 30
0.0
  0
VERTEX
  5
8A
100
AcDbEntity
  8
LIVELLO_1
 62
     7
100
AcDbVertex
100
AcDb2dVertex
 10
-45.912788
 20
-1.068324
 30
0.0
  0
VERTEX
  5
8B
100
AcDbEntity
  8
LIVELLO_1
 62
     7
100
AcDbVertex
100
AcDb2dVertex
 10
-45.912788
 20
0.413928
 30
0.0
  0
SEQEND
  5
8C
100
AcDbEntity
  8
LIVELLO_1
 62
     7
  0
POLYLINE
  5
7C
100
AcDbEntity
  8
LIVELLO_1
 62
     7
100
AcDb2dPolyline
 66
     1
 10
0.0
 20
0.0
 30
0.0
 70
     1
  0
VERTEX
  5
7D
100
AcDbEntity
  8
LIVELLO_1
 62
     7
100
AcDbVertex
100
AcDb2dVertex
 10
-51.101618
 20
-1.068324
 30
0.0
  0
VERTEX
  5
7E
100
AcDbEntity
  8
LIVELLO_1
 62
     7
100
AcDbVertex
100
AcDb2dVertex
 10
-51.101618
 20
-7.39507
 30
0.0
  0
VERTEX
  5
7F
100
AcDbEntity
  8
LIVELLO_1
 62
     7
100
AcDbVertex
100
AcDb2dVertex
 10
-45.170714
 20
-7.39507
 30
0.0
  0
VERTEX
  5
80
100
AcDbEntity
  8
LIVELLO_1
 62
     7
100
AcDbVertex
100
AcDb2dVertex
 10
-43.690184
 20
-7.39507
 30
0.0
  0
VERTEX
  5
81
100
AcDbEntity
  8
LIVELLO_1
 62
     7
100
AcDbVertex
100
AcDb2dVertex
 10
-43.690184
 20
-4.405416
 30
0.0
  0
VERTEX
  5
82
100
AcDbEntity
  8
LIVELLO_1
 62
     7
100
AcDbVertex
100
AcDb2dVertex
 10
-45.170714
 20
-4.405416
 30
0.0
  0
VERTEX
  5
83
100
AcDbEntity
  8
LIVELLO_1
 62
     7
100
AcDbVertex
100
AcDb2dVertex
 10
-45.170714
 20
-5.517148
 30
0.0
  0
VERTEX
  5
84
100
AcDbEntity
  8
LIVELLO_1
 62
     7
100
AcDbVertex
100
AcDb2dVertex
 10
-49.618505
 20
-5.517148
 30
0.0
  0
VERTEX
  5
85
100
AcDbEntity
  8
LIVELLO_1
 62
     7
100
AcDbVertex
100
AcDb2dVertex
 10
-49.618505
 20
-1.068324
 30
0.0
  0
SEQEND
  5
86
100
AcDbEntity
  8
LIVELLO_1
 62
     7
  0
POLYLINE
  5
74
100
AcDbEntity
  8
LIVELLO_1
 62
     7
100
AcDb2dPolyline
 66
     1
 10
0.0
 20
0.0
 30
0.0
 70
     1
  0
VERTEX
  5
75
100
AcDbEntity
  8
LIVELLO_1
 62
     7
100
AcDbVertex
100
AcDb2dVertex
 10
27.472742
 20
-1.809536
 30
0.0
  0
VERTEX
  5
76
100
AcDbEntity
  8
LIVELLO_1
 62
     7
100
AcDbVertex
100
AcDb2dVertex
 10
27.472742
 20
-5.517148
 30
0.0
  0
VERTEX
  5
77
100
AcDbEntity
  8
LIVELLO_1
 62
     7
100
AcDbVertex
100
AcDb2dVertex
 10
23.02409
 20
-5.517148
 30
0.0
  0
VERTEX
  5
78
100
AcDbEntity
  8
LIVELLO_1
 62
     7
100
AcDbVertex
100
AcDb2dVertex
 10
23.02409
 20
-4.405416
 30
0.0
  0
VERTEX
  5
79
100
AcDbEntity
  8
LIVELLO_1
 62
     7
100
AcDbVertex
100
AcDb2dVertex
 10
23.766852
 20
-4.405416
 30
0.0
  0
VERTEX
  5
7A
100
AcDbEntity
  8
LIVELLO_1
 62
     7
100
AcDbVertex
100
AcDb2dVertex
 10
23.779599
 20
-1.809536
 30
0.0
  0
SEQEND
  5
7B
100
AcDbEntity
  8
LIVELLO_1
 62
     7
  0
SPLINE
  5
73
100
AcDbEntity
  8
LIVELLO_1
 62
     7
100
AcDbSpline
210
0.0
220
0.0
230
1.0
 70
     8
 71
     3
 72
    59
 73
    55
 74
     0
 42
0.00000001
 43
0.00000001
 40
0.0
 40
0.0
 40
0.0
 40
0.0
 40
1.0
 40
1.0
 40
1.0
 40
2.0
 40
2.0
 40
2.0
 40
3.0
 40
3.0
 40
3.0
 40
4.0
 40
4.0
 40
4.0
 40
5.0
 40
5.0
 40
5.0
 40
6.0
 40
6.0
 40
6.0
 40
7.0
 40
7.0
 40
7.0
 40
8.0
 40
8.0
 40
8.0
 40
9.0
 40
9.0
 40
9.0
 40
10.0
 40
10.0
 40
10.0
 40
11.0
 40
11.0
 40
11.0
 40
12.0
 40
12.0
 40
12.0
 40
13.0
 40
13.0
 40
13.0
 40
14.0
 40
14.0
 40
14.0
 40
15.0
 40
15.0
 40
15.0
 40
16.0
 40
16.0
 40
16.0
 40
17.0
 40
17.0
 40
17.0
 40
18.0
 40
18.0
 40
18.0
 40
18.0
 10
-11.072536892361111
 20
-5.517148166232638
 30
0.0
 10
-11.072536892361111
 20
-5.517148166232638
 30
0.0
 10
6.7169026692708327
 20
-5.517148166232638
 30
0.0
 10
17.837670898437498
 20
-4.7740410698784714
 30
0.0
 10
19.318200683593748
 20
-4.7740410698784714
 30
0.0
 10
19.318200683593748
 20
-3.2936835394965276
 30
0.0
 10
19.318200683593748
 20
-3.2936835394965276
 30
0.0
 10
19.318200683593748
 20
-3.2936835394965276
 30
0.0
 10
19.318200683593748
 20
-1.0683241102430554
 30
0.0
 10
19.318200683593748
 20
-1.0683241102430554
 30
0.0
 10
19.318200683593748
 20
-1.0683241102430554
 30
0.0
 10
23.766852484809025
 20
-1.0683241102430554
 30
0.0
 10
23.766852484809025
 20
-1.0683241102430554
 30
0.0
 10
23.766852484809025
 20
-1.0683241102430554
 30
0.0
 10
23.766852484809025
 20
-2.9212687174479166
 30
0.0
 10
23.766852484809025
 20
-2.9212687174479166
 30
0.0
 10
23.766852484809025
 20
-2.9212687174479166
 30
0.0
 10
20.803209092881943
 20
-2.9212687174479166
 30
0.0
 10
20.803209092881943
 20
-2.9212687174479166
 30
0.0
 10
20.803209092881943
 20
-2.9212687174479166
 30
0.0
 10
20.803209092881943
 20
-5.517148166232638
 30
0.0
 10
20.803209092881943
 20
-5.517148166232638
 30
0.0
 10
20.803209092881943
 20
-5.517148166232638
 30
0.0
 10
20.803209092881943
 20
-6.2581882052951388
 30
0.0
 10
20.059412977430554
 20
-6.9975056966145823
 30
0.0
 10
5.9756903754340271
 20
-7.7406127929687489
 30
0.0
 10
-11.072536892361111
 20
-7.7406127929687489
 30
0.0
 10
-11.072536892361111
 20
-7.7406127929687489
 30
0.0
 10
-11.072536892361111
 20
-7.7406127929687489
 30
0.0
 10
-28.122486707899302
 20
-7.7406127929687489
 30
0.0
 10
-42.207070583767354
 20
-6.9975056966145823
 30
0.0
 10
-42.94724934895833
 20
-6.2581882052951388
 30
0.0
 10
-42.94724934895833
 20
-5.517148166232638
 30
0.0
 10
-42.94724934895833
 20
-5.517148166232638
 30
0.0
 10
-42.94724934895833
 20
-5.517148166232638
 30
0.0
 10
-42.94724934895833
 20
-2.9212687174479166
 30
0.0
 10
-42.94724934895833
 20
-2.9212687174479166
 30
0.0
 10
-42.94724934895833
 20
-2.9212687174479166
 30
0.0
 10
-45.910892740885416
 20
-2.9212687174479166
 30
0.0
 10
-45.910892740885416
 20
-2.9212687174479166
 30
0.0
 10
-45.910892740885416
 20
-2.9212687174479166
 30
0.0
 10
-45.910892740885416
 20
-1.0683241102430554
 30
0.0
 10
-45.910892740885416
 20
-1.0683241102430554
 30
0.0
 10
-45.910892740885416
 20
-1.0683241102430554
 30
0.0
 10
-41.46671956380208
 20
-1.0683241102430554
 30
0.0
 10
-41.46671956380208
 20
-1.0683241102430554
 30
0.0
 10
-41.46671956380208
 20
-1.0683241102430554
 30
0.0
 10
-41.46671956380208
 20
-3.2936835394965276
 30
0.0
 10
-41.46671956380208
 20
-3.2936835394965276
 30
0.0
 10
-41.46671956380208
 20
-3.2936835394965276
 30
0.0
 10
-41.46671956380208
 20
-4.7740410698784714
 30
0.0
 10
-39.981711154513889
 20
-4.7740410698784714
 30
0.0
 10
-28.862665473090274
 20
-5.517148166232638
 30
0.0
 10
-11.072536892361111
 20
-5.517148166232638
 30
0.0
 10
-11.072536892361111
 20
-5.517148166232638
 30
0.0
  0
POLYLINE
  5
6D
100
AcDbEntity
  8
LIVELLO_1
 62
     7
100
AcDb2dPolyline
 66
     1
 10
0.0
 20
0.0
 30
0.0
 70
     1
  0
VERTEX
  5
6E
100
AcDbEntity
  8
LIVELLO_1
 62
     7
100
AcDbVertex
100
AcDb2dVertex
 10
23.766852
 20
-2.922991
 30
0.0
  0
VERTEX
  5
6F
100
AcDbEntity
  8
LIVELLO_1
 62
     7
100
AcDbVertex
100
AcDb2dVertex
 10
23.766852
 20
-4.405416
 30
0.0
  0
VERTEX
  5
70
100
AcDbEntity
  8
LIVELLO_1
 62
     7
100
AcDbVertex
100
AcDb2dVertex
 10
20.801314
 20
-4.405416
 30
0.0
  0
VERTEX
  5
71
100
AcDbEntity
  8
LIVELLO_1
 62
     7
100
AcDbVertex
100
AcDb2dVertex
 10
20.801314
 20
-2.922991
 30
0.0
  0
SEQEND
  5
72
100
AcDbEntity
  8
LIVELLO_1
 62
     7
  0
POLYLINE
  5
67
100
AcDbEntity
  8
LIVELLO_1
 62
     7
100
AcDb2dPolyline
 66
     1
 10
0.0
 20
0.0
 30
0.0
 70
     1
  0
VERTEX
  5
68
100
AcDbEntity
  8
LIVELLO_1
 62
     7
100
AcDbVertex
100
AcDb2dVertex
 10
23.766852
 20
0.413928
 30
0.0
  0
VERTEX
  5
69
100
AcDbEntity
  8
LIVELLO_1
 62
     7
100
AcDbVertex
100
AcDb2dVertex
 10
23.766852
 20
-1.068324
 30
0.0
  0
VERTEX
  5
6A
100
AcDbEntity
  8
LIVELLO_1
 62
     7
100
AcDbVertex
100
AcDb2dVertex
 10
20.801314
 20
-1.068324
 30
0.0
  0
VERTEX
  5
6B
100
AcDbEntity
  8
LIVELLO_1
 62
     7
100
AcDbVertex
100
AcDb2dVertex
 10
20.801314
 20
0.413928
 30
0.0
  0
SEQEND
  5
6C
100
AcDbEntity
  8
LIVELLO_1
 62
     7
  0
POLYLINE
  5
5D
100
AcDbEntity
  8
LIVELLO_1
 62
     7
100
AcDb2dPolyline
 66
     1
 10
0.0
 20
0.0
 30
0.0
 70
     1
  0
VERTEX
  5
5E
100
AcDbEntity
  8
LIVELLO_1
 62
     7
100
AcDbVertex
100
AcDb2dVertex
 10
28.956889
 20
-1.068324
 30
0.0
  0
VERTEX
  5
5F
100
AcDbEntity
  8
LIVELLO_1
 62
     7
100
AcDbVertex
100
AcDb2dVertex
 10
28.956889
 20
-7.39507
 30
0.0
  0
VERTEX
  5
60
100
AcDbEntity
  8
LIVELLO_1
 62
     7
100
AcDbVertex
100
AcDb2dVertex
 10
21.543388
 20
-7.39507
 30
0.0
  0
VERTEX
  5
61
100
AcDbEntity
  8
LIVELLO_1
 62
     7
100
AcDbVertex
100
AcDb2dVertex
 10
21.543388
 20
-4.405416
 30
0.0
  0
VERTEX
  5
62
100
AcDbEntity
  8
LIVELLO_1
 62
     7
100
AcDbVertex
100
AcDb2dVertex
 10
23.02409
 20
-4.405416
 30
0.0
  0
VERTEX
  5
63
100
AcDbEntity
  8
LIVELLO_1
 62
     7
100
AcDbVertex
100
AcDb2dVertex
 10
23.02409
 20
-5.517148
 30
0.0
  0
VERTEX
  5
64
100
AcDbEntity
  8
LIVELLO_1
 62
     7
100
AcDbVertex
100
AcDb2dVertex
 10
27.472742
 20
-5.517148
 30
0.0
  0
VERTEX
  5
65
100
AcDbEntity
  8
LIVELLO_1
 62
     7
100
AcDbVertex
100
AcDb2dVertex
 10
27.472742
 20
-1.068324
 30
0.0
  0
SEQEND
  5
66
100
AcDbEntity
  8
LIVELLO_1
 62
     7
  0
POLYLINE
  5
57
100
AcDbEntity
  8
LIVELLO_1
 62
     7
100
AcDb2dPolyline
 66
     1
 10
0.0
 20
0.0
 30
0.0
 70
     1
  0
VERTEX
  5
58
100
AcDbEntity
  8
LIVELLO_1
 62
     7
100
AcDbVertex
100
AcDb2dVertex
 10
2.796039
 20
26.632483
 30
0.0
  0
VERTEX
  5
59
100
AcDbEntity
  8
LIVELLO_1
 62
     7
100
AcDbVertex
100
AcDb2dVertex
 10
2.796039
 20
25.782922
 30
0.0
  0
VERTEX
  5
5A
100
AcDbEntity
  8
LIVELLO_1
 62
     7
100
AcDbVertex
100
AcDb2dVertex
 10
-2.629641
 20
25.782922
 30
0.0
  0
VERTEX
  5
5B
100
AcDbEntity
  8
LIVELLO_1
 62
     7
100
AcDbVertex
100
AcDb2dVertex
 10
-2.629641
 20
26.632483
 30
0.0
  0
SEQEND
  5
5C
100
AcDbEntity
  8
LIVELLO_1
 62
     7
  0
POLYLINE
  5
51
100
AcDbEntity
  8
LIVELLO_1
 62
     7
100
AcDb2dPolyline
 66
     1
 10
0.0
 20
0.0
 30
0.0
 70
     1
  0
VERTEX
  5
52
100
AcDbEntity
  8
LIVELLO_1
 62
     7
100
AcDbVertex
100
AcDb2dVertex
 10
33.591576
 20
-4.591451
 30
0.0
  0
VERTEX
  5
53
100
AcDbEntity
  8
LIVELLO_1
 62
     7
100
AcDbVertex
100
AcDb2dVertex
 10
29.117775
 20
-4.591451
 30
0.0
  0
VERTEX
  5
54
100
AcDbEntity
  8
LIVELLO_1
 62
     7
100
AcDbVertex
100
AcDb2dVertex
 10
28.956889
 20
-7.39507
 30
0.0
  0
VERTEX
  5
55
100
AcDbEntity
  8
LIVELLO_1
 62
     7
100
AcDbVertex
100
AcDb2dVertex
 10
33.591576
 20
-7.39507
 30
0.0
  0
SEQEND
  5
56
100
AcDbEntity
  8
LIVELLO_1
 62
     7
  0
POLYLINE
  5
4B
100
AcDbEntity
  8
LIVELLO_1
 62
     7
100
AcDb2dPolyline
 66
     1
 10
0.0
 20
0.0
 30
0.0
 70
     1
  0
VERTEX
  5
4C
100
AcDbEntity
  8
LIVELLO_1
 62
     7
100
AcDbVertex
100
AcDb2dVertex
 10
-55.738372
 20
-4.591451
 30
0.0
  0
VERTEX
  5
4D
100
AcDbEntity
  8
LIVELLO_1
 62
     7
100
AcDbVertex
100
AcDb2dVertex
 10
-51.262504
 20
-4.591451
 30
0.0
  0
VERTEX
  5
4E
100
AcDbEntity
  8
LIVELLO_1
 62
     7
100
AcDbVertex
100
AcDb2dVertex
 10
-51.101618
 20
-7.39507
 30
0.0
  0
VERTEX
  5
4F
100
AcDbEntity
  8
LIVELLO_1
 62
     7
100
AcDbVertex
100
AcDb2dVertex
 10
-55.738372
 20
-7.39507
 30
0.0
  0
SEQEND
  5
50
100
AcDbEntity
  8
LIVELLO_1
 62
     7
  0
MTEXT
  5
4A
100
AcDbEntity
  8
LIVELLO_1
 62
     7
100
AcDbMText
 10
-19.908862
 20
-16.693852
 30
0.0
 40
7.469531
 41
0.0
 71
     1
 72
     2
  1
\fMyriad Roman|b0|i0;\H7.4695;\W0.98;\C7;\U+0032\U+0035\U+0030
  7
STD
210
0.0
220
0.0
230
1.0
 73
     1
 44
1.0
  0
LINE
  5
49
100
AcDbEntity
  8
LIVELLO_1
 62
     7
100
AcDbLine
 10
33.290819
 20
-21.041437
 30
0.0
 11
4.657941
 21
-21.041437
 31
0.0
  0
LINE
  5
48
100
AcDbEntity
  8
LIVELLO_1
 62
     7
100
AcDbLine
 10
-29.118464
 20
-21.041437
 30
0.0
 11
-55.960753
 21
-21.041437
 31
0.0
  0
LINE
  5
47
100
AcDbEntity
  8
LIVELLO_1
 62
     7
100
AcDbLine
 10
-55.923718
 20
-17.40445
 30
0.0
 11
-55.923718
 21
-25.207936
 31
0.0
  0
LINE
  5
46
100
AcDbEntity
  8
LIVELLO_1
 62
     7
100
AcDbLine
 10
33.407263
 20
-17.40445
 30
0.0
 11
33.407263
 21
-25.207936
 31
0.0
  0
MTEXT
  5
45
100
AcDbEntity
  8
LIVELLO_1
 62
     7
100
AcDbMText
 10
-24.860154
 20
-16.328339
 30
0.0
 40
6.741226
 41
0.0
 71
     1
 72
     2
  1
\fArial Narrow|b0|i0;\H6.7412;\C7;\U+00F8
  7
STD
210
0.0
220
0.0
230
1.0
 73
     1
 44
1.0
  0
CIRCLE
  5
44
100
AcDbEntity
  8
LIVELLO_1
 62
     7
100
AcDbCircle
 10
-12.515946
 20
-75.17939
 30
0.0
 40
44.607182
  0
LINE
  5
43
100
AcDbEntity
  8
LIVELLO_1
 62
     7
100
AcDbLine
 10
-25.782406
 20
-96.653015
 30
0.0
 11
-25.777066
 21
-96.678164
 31
0.0
  0
CIRCLE
  5
42
100
AcDbEntity
  8
LIVELLO_1
 62
     7
100
AcDbCircle
 10
-12.51586
 20
-75.182319
 30
0.0
 40
32.495691
  0
CIRCLE
  5
41
100
AcDbEntity
  8
LIVELLO_1
 62
     7
100
AcDbCircle
 10
-12.51586
 20
-75.181285
 30
0.0
 40
32.863627
  0
CIRCLE
  5
40
100
AcDbEntity
  8
LIVELLO_1
 62
     7
100
AcDbCircle
 10
-12.51586
 20
-75.181285
 30
0.0
 40
40.247845
  0
CIRCLE
  5
3F
100
AcDbEntity
  8
LIVELLO_1
 62
     7
100
AcDbCircle
 10
13.135116
 20
-49.538406
 30
0.0
 40
1.872592
  0
CIRCLE
  5
3E
100
AcDbEntity
  8
LIVELLO_1
 62
     7
100
AcDbCircle
 10
13.134168
 20
-49.538578
 30
0.0
 40
1.123567
  0
CIRCLE
  5
3D
100
AcDbEntity
  8
LIVELLO_1
 62
     7
100
AcDbCircle
 10
13.135977
 20
-100.930962
 30
0.0
 40
1.871983
  0
CIRCLE
  5
3C
100
AcDbEntity
  8
LIVELLO_1
 62
     7
100
AcDbCircle
 10
13.135977
 20
-100.931651
 30
0.0
 40
1.124116
  0
CIRCLE
  5
3B
100
AcDbEntity
  8
LIVELLO_1
 62
     7
100
AcDbCircle
 10
-38.270877
 20
-100.930962
 30
0.0
 40
1.872592
  0
CIRCLE
  5
3A
100
AcDbEntity
  8
LIVELLO_1
 62
     7
100
AcDbCircle
 10
-38.270791
 20
-100.931651
 30
0.0
 40
1.124785
  0
CIRCLE
  5
39
100
AcDbEntity
  8
LIVELLO_1
 62
     7
100
AcDbCircle
 10
-38.253134
 20
-49.544779
 30
0.0
 40
1.872958
  0
CIRCLE
  5
38
100
AcDbEntity
  8
LIVELLO_1
 62
     7
100
AcDbCircle
 10
-38.252273
 20
-49.544952
 30
0.0
 40
1.123263
  0
CIRCLE
  5
37
100
AcDbEntity
  8
LIVELLO_1
 62
     7
100
AcDbCircle
 10
-12.51586
 20
-75.181285
 30
0.0
 40
40.618537
  0
LINE
  5
36
100
AcDbEntity
  8
LIVELLO_1
 62
     7
100
AcDbLine
 10
-27.483421
 20
-53.53799
 30
0.0
 11
-10.405394
 21
-53.53799
 31
0.0
  0
LINE
  5
35
100
AcDbEntity
  8
LIVELLO_1
 62
     7
100
AcDbLine
 10
-24.068815
 20
-65.83388
 30
0.0
 11
-0.842843
 21
-65.83388
 31
0.0
  0
LINE
  5
34
100
AcDbEntity
  8
LIVELLO_1
 62
     7
100
AcDbLine
 10
-30.217622
 20
-77.44833
 30
0.0
 11
-20.653175
 21
-77.44833
 31
0.0
  0
LINE
  5
33
100
AcDbEntity
  8
LIVELLO_1
 62
     7
100
AcDbLine
 10
-4.258483
 20
-89.745943
 30
0.0
 11
5.989299
 21
-89.745943
 31
0.0
  0
LINE
  5
32
100
AcDbEntity
  8
LIVELLO_1
 62
     7
100
AcDbLine
 10
-4.941817
 20
-77.44833
 30
0.0
 11
12.138105
 21
-77.44833
 31
0.0
  0
LINE
  5
31
100
AcDbEntity
  8
LIVELLO_1
 62
     7
100
AcDbLine
 10
-27.085857
 20
-96.204464
 30
0.0
 11
-16.838076
 21
-96.204464
 31
0.0
  0
MTEXT
  5
30
100
AcDbEntity
  8
LIVELLO_1
 62
     7
100
AcDbMText
 10
57.484002
 20
18.667793
 30
0.0
 40
8.069473
 41
0.0
 71
     1
 72
     2
  1
\fArial Narrow|b0|i0;\H8.0695;\C7;\U+0031\U+0030\U+0035
  7
STD
210
0.0
220
0.0
230
1.0
 73
     1
 44
1.0
  0
LINE
  5
2F
100
AcDbEntity
  8
LIVELLO_1
 62
     7
100
AcDbLine
 10
60.770968
 20
-4.12154
 30
0.0
 11
69.024727
 21
-4.12154
 31
0.0
  0
LINE
  5
2E
100
AcDbEntity
  8
LIVELLO_1
 62
     7
100
AcDbLine
 10
64.965716
 20
6.357579
 30
0.0
 11
64.965716
 21
-3.37137
 31
0.0
  0
LINE
  5
2D
100
AcDbEntity
  8
LIVELLO_1
 62
     7
100
AcDbLine
 10
64.965716
 20
32.717211
 30
0.0
 11
64.965716
 21
22.829097
 31
0.0
  0
LINE
  5
2C
100
AcDbEntity
  8
LIVELLO_1
 62
     7
100
AcDbLine
 10
61.519242
 20
33.465485
 30
0.0
 11
69.024727
 21
33.465485
 31
0.0
  0
ENDBLK
  5
137
100
AcDbEntity
  8
LIVELLO_1
100
AcDbBlockEnd
  0
ENDSEC
  0
SECTION
  2
ENTITIES
  0
INSERT
  5
2A
100
AcDbEntity
  8
LIVELLO_1
 62
     7
100
AcDbBlockReference
  2
AI9-BLK1
 10
83.956116
 20
153.142246
 30
0.0
  0
ENDSEC
  0
SECTION
  2
OBJECTS
  0
DICTIONARY
  5
19
100
AcDbDictionary
280
     0
281
     1
  3
ACAD_GROUP
350
1A
  3
ACAD_MLINESTYLE
350
1B
  3
ACAD_LAYOUT
350
1E
  3
ACAD_PLOTSETTINGS
350
22
  3
ACAD_PLOTSTYLENAME
350
1F
  3
ACAD_WIPEOUT_VARS
350
23
  0
DICTIONARY
  5
1A
102
{ACAD_REACTORS
330
19
102
}
100
AcDbDictionary
280
     0
281
     1
  0
DICTIONARY
  5
1B
102
{ACAD_REACTORS
330
19
102
}
100
AcDbDictionary
280
     0
281
     1
  3
Standard
350
1C
  0
MLINESTYLE
  5
1C
102
{ACAD_REACTORS
330
1B
102
}
100
AcDbMlineStyle
  2
Standard
 70
     0
  3

 62
     0
 51
90.0
 52
90.0
 71
     2
 49
0.5
 62
   256
  6
ByLayer
 49
-0.5
 62
   256
  6
ByLayer
  0
ACDBDICTIONARYWDFLT
  5
1F
102
{ACAD_REACTORS
330
19
102
}
100
AcDbDictionary
281
     1
  3
Normal
350
1D
100
AcDbDictionaryWithDefault
340
1D
  0
ACDBPLACEHOLDER
  5
1D
102
{ACAD_REACTORS
330
1F
102
}
  0
LAYOUT
  5
20
102
{ACAD_REACTORS
330
1E
102
}
100
AcDbPlotSettings
  1

  2

  4

  6

 40
0.0
 41
0.0
 42
0.0
 43
0.0
 44
0.0
 45
0.0
 46
0.0
 47
0.0
 48
0.0
 49
0.0
140
0.0
141
0.0
142
1.0
143
1.0
 70
  1024
 72
     0
 73
     0
 74
     0
  7

 75
     0
147
1.0
148
0.0
149
0.0
100
AcDbLayout
  1
Model
 70
     0
 71
     0
 10
0.0
 20
0.0
 11
0.0
 21
0.0
 12
0.0
 22
0.0
 32
0.0
 14
0.0
 24
0.0
 34
0.0
 15
0.0
 25
0.0
 35
0.0
146
0.0
 13
0.0
 23
0.0
 33
0.0
 16
0.0
 26
0.0
 36
0.0
 17
0.0
 27
0.0
 37
0.0
 76
     0
330
A
331
0
345
0
346
0
  0
LAYOUT
  5
21
102
{ACAD_REACTORS
330
1E
102
}
100
AcDbPlotSettings
  1

  2

  4

  6

 40
0.0
 41
0.0
 42
0.0
 43
0.0
 44
0.0
 45
0.0
 46
0.0
 47
0.0
 48
0.0
 49
0.0
140
0.0
141
0.0
142
1.0
143
1.0
 70
     0
 72
     0
 73
     0
 74
     0
  7

 75
     0
147
1.0
148
0.0
149
0.0
100
AcDbLayout
  1
Layout1
 70
     0
 71
     0
 10
0.0
 20
0.0
 11
0.0
 21
0.0
 12
0.0
 22
0.0
 32
0.0
 14
0.0
 24
0.0
 34
0.0
 15
0.0
 25
0.0
 35
0.0
146
0.0
 13
0.0
 23
0.0
 33
0.0
 16
0.0
 26
0.0
 36
0.0
 17
0.0
 27
0.0
 37
0.0
 76
     0
330
B
331
0
345
0
346
0
  0
DICTIONARY
  5
1E
102
{ACAD_REACTORS
330
19
102
}
100
AcDbDictionary
280
     0
281
     1
  3
Layout1
350
21
  3
Model
350
20
  0
DICTIONARY
  5
22
102
{ACAD_REACTORS
330
19
102
}
100
AcDbDictionary
280
     0
281
     1
  0
WIPEOUTVARIABLES
  5
23
100
AcDbWipeoutVariables
 70
     1
  0
ENDSEC
  0
EOF
