  0
SECTION
  2
HEADER
  9
$ACADVER
  1
AC1015
  9
$ACADMAINTVER
 70
     6
  9
$DWGCODEPAGE
  3
ANSI_932
  9
$INSBASE
 10
0.0
 20
0.0
 30
0.0
  9
$EXTMIN
 10
-18.556835
 20
83.290007
 30
1.000000E+20
  9
$EXTMAX
 10
211.744526
 20
252.822983
 30
-1.000000E+20
  9
$LIMMIN
 10
-18.556835
 20
83.290007
  9
$LIMMAX
 10
211.744526
 20
252.822983
  9
$ORTHOMODE
 70
     0
  9
$REGENMODE
 70
     1
  9
$FILLMODE
 70
     1
  9
$QTEXTMODE
 70
     0
  9
$MIRRTEXT
 70
     1
  9
$LTSCALE
 40
1.0
  9
$ATTMODE
 70
     1
  9
$TEXTSIZE
 40
0.2
  9
$TRACEWID
 40
0.05
  9
$TEXTSTYLE
  7
Standard
  9
$CLAYER
  8
0
  9
$CELTYPE
  6
Continuous
  9
$CECOLOR
 62
   256
  9
$CELTSCALE
 40
1.0
  9
$DISPSILH
 70
     0
  9
$DIMSCALE
 40
1.0
  9
$DIMASZ
 40
0.18
  9
$DIMEXO
 40
0.0625
  9
$DIMDLI
 40
0.38
  9
$DIMRND
 40
0.0
  9
$DIMDLE
 40
0.0
  9
$DIMEXE
 40
0.18
  9
$DIMTP
 40
0.0
  9
$DIMTM
 40
0.0
  9
$DIMTXT
 40
0.18
  9
$DIMCEN
 40
0.09
  9
$DIMTSZ
 40
0.0
  9
$DIMTOL
 70
     0
  9
$DIMLIM
 70
     0
  9
$DIMTIH
 70
     1
  9
$DIMTOH
 70
     1
  9
$DIMSE1
 70
     0
  9
$DIMSE2
 70
     0
  9
$DIMTAD
 70
     0
  9
$DIMZIN
 70
     0
  9
$DIMBLK
  1

  9
$DIMASO
 70
     1
  9
$DIMSHO
 70
     1
  9
$DIMPOST
  1

  9
$DIMAPOST
  1

  9
$DIMALT
 70
     0
  9
$DIMALTD
 70
     2
  9
$DIMALTF
 40
25.4
  9
$DIMLFAC
 40
1.0
  9
$DIMTOFL
 70
     0
  9
$DIMTVP
 40
0.0
  9
$DIMTIX
 70
     0
  9
$DIMSOXD
 70
     0
  9
$DIMSAH
 70
     0
  9
$DIMBLK1
  1

  9
$DIMBLK2
  1

  9
$DIMSTYLE
  2
Standard
  9
$DIMCLRD
 70
     0
  9
$DIMCLRE
 70
     0
  9
$DIMCLRT
 70
     0
  9
$DIMTFAC
 40
1.0
  9
$DIMGAP
 40
0.09
  9
$DIMJUST
 70
     0
  9
$DIMSD1
 70
     0
  9
$DIMSD2
 70
     0
  9
$DIMTOLJ
 70
     1
  9
$DIMTZIN
 70
     0
  9
$DIMALTZ
 70
     0
  9
$DIMALTTZ
 70
     0
  9
$DIMUPT
 70
     0
  9
$DIMDEC
 70
     4
  9
$DIMTDEC
 70
     4
  9
$DIMALTU
 70
     2
  9
$DIMALTTD
 70
     2
  9
$DIMTXSTY
  7
Standard
  9
$DIMAUNIT
 70
     0
  9
$DIMADEC
 70
     0
  9
$DIMALTRND
 40
0.0
  9
$DIMAZIN
 70
     0
  9
$DIMDSEP
 70
     0
  9
$DIMATFIT
 70
     3
  9
$DIMFRAC
 70
     0
  9
$DIMLDRBLK
  1

  9
$DIMLUNIT
 70
     2
  9
$DIMLWD
 70
     0
  9
$DIMLWE
 70
     0
  9
$DIMTMOVE
 70
     0
  9
$LUNITS
 70
     2
  9
$LUPREC
 70
     4
  9
$SKETCHINC
 40
0.1
  9
$FILLETRAD
 40
0.0
  9
$AUNITS
 70
     0
  9
$AUPREC
 70
     0
  9
$MENU
  1
acad
  9
$ELEVATION
 40
0.0
  9
$PELEVATION
 40
0.0
  9
$THICKNESS
 40
0.0
  9
$LIMCHECK
 70
     0
  9
$CHAMFERA
 40
0.0
  9
$CHAMFERB
 40
0.0
  9
$CHAMFERC
 40
0.0
  9
$CHAMFERD
 40
0.0
  9
$SKPOLY
 70
     0
  9
$TDCREATE
 40
0.000000000
  9
$TDUCREATE
 40
0.000000000
  9
$TDUPDATE
 40
0.000000000
  9
$TDUUPDATE
 40
0.000000000
  9
$TDINDWG
 40
0.0000000000
  9
$TDUSRTIMER
 40
0.0000000000
  9
$USRTIMER
 70
     1
  9
$ANGBASE
 50
0.0
  9
$ANGDIR
 70
     0
  9
$PDMODE
 70
     0
  9
$PDSIZE
 40
0.0
  9
$PLINEWID
 40
0.0
  9
$SPLFRAME
 70
     0
  9
$SPLINETYPE
 70
     6
  9
$SPLINESEGS
 70
     8
  9
$HANDSEED
  5
44A
  9
$SURFTAB1
 70
     6
  9
$SURFTAB2
 70
     6
  9
$SURFTYPE
 70
     6
  9
$SURFU
 70
     6
  9
$SURFV
 70
     6
  9
$UCSBASE
  2

  9
$UCSNAME
  2

  9
$UCSORG
 10
0.0
 20
0.0
 30
0.0
  9
$UCSXDIR
 10
1.0
 20
0.0
 30
0.0
  9
$UCSYDIR
 10
0.0
 20
1.0
 30
0.0
  9
$UCSORTHOREF
  2

  9
$UCSORTHOVIEW
 70
     0
  9
$UCSORGTOP
 10
0.0
 20
0.0
 30
0.0
  9
$UCSORGBOTTOM
 10
0.0
 20
0.0
 30
0.0
  9
$UCSORGLEFT
 10
0.0
 20
0.0
 30
0.0
  9
$UCSORGRIGHT
 10
0.0
 20
0.0
 30
0.0
  9
$UCSORGFRONT
 10
0.0
 20
0.0
 30
0.0
  9
$UCSORGBACK
 10
0.0
 20
0.0
 30
0.0
  9
$PUCSBASE
  2

  9
$PUCSNAME
  2

  9
$PUCSORG
 10
0.0
 20
0.0
 30
0.0
  9
$PUCSXDIR
 10
1.0
 20
0.0
 30
0.0
  9
$PUCSYDIR
 10
0.0
 20
1.0
 30
0.0
  9
$PUCSORTHOREF
  2

  9
$PUCSORTHOVIEW
 70
     0
  9
$PUCSORGTOP
 10
0.0
 20
0.0
 30
0.0
  9
$PUCSORGBOTTOM
 10
0.0
 20
0.0
 30
0.0
  9
$PUCSORGLEFT
 10
0.0
 20
0.0
 30
0.0
  9
$PUCSORGRIGHT
 10
0.0
 20
0.0
 30
0.0
  9
$PUCSORGFRONT
 10
0.0
 20
0.0
 30
0.0
  9
$PUCSORGBACK
 10
0.0
 20
0.0
 30
0.0
  9
$USERI1
 70
     0
  9
$USERI2
 70
     0
  9
$USERI3
 70
     0
  9
$USERI4
 70
     0
  9
$USERI5
 70
     0
  9
$USERR1
 40
0.0
  9
$USERR2
 40
0.0
  9
$USERR3
 40
0.0
  9
$USERR4
 40
0.0
  9
$USERR5
 40
0.0
  9
$WORLDVIEW
 70
     1
  9
$SHADEDGE
 70
     3
  9
$SHADEDIF
 70
    70
  9
$TILEMODE
 70
     1
  9
$MAXACTVP
 70
    16
  9
$PINSBASE
 10
0.0
 20
0.0
 30
0.0
  9
$PLIMCHECK
 70
     0
  9
$PEXTMIN
 10
1.000000E+20
 20
1.000000E+20
 30
1.000000E+20
  9
$PEXTMAX
 10
-1.000000E+20
 20
-1.000000E+20
 30
-1.000000E+20
  9
$PLIMMIN
 10
0.0
 20
0.0
  9
$PLIMMAX
 10
12.0
 20
9.0
  9
$UNITMODE
 70
     0
  9
$VISRETAIN
 70
     0
  9
$PLINEGEN
 70
     1
  9
$PSLTSCALE
 70
     0
  9
$TREEDEPTH
 70
  3020
  9
$CMLSTYLE
  2
Standard
  9
$CMLJUST
 70
     0
  9
$CMLSCALE
 40
1.0
  9
$PROXYGRAPHICS
 70
     0
  9
$MEASUREMENT
 70
     1
  9
$CELWEIGHT
370
     0
  9
$ENDCAPS
280
     0
  9
$JOINSTYLE
280
     0
  9
$LWDISPLAY
290
     0
  9
$INSUNITS
 70
     0
  9
$HYPERLINKBASE
  1

  9
$STYLESHEET
  1

  9
$XEDIT
290
     1
  9
$CEPSNTYPE
380
     0
  9
$PSTYLEMODE
290
     1
  9
$FINGERPRINTGUID
  2

  9
$VERSIONGUID
  2

  9
$EXTNAMES
290
     1
  9
$PSVPSCALE
 40
0.0
  0
ENDSEC
  0
SECTION
  2
CLASSES
  0
CLASS
  1
LWPOLYLINE
  2
AcDbPolyline
  3
AutoCAD 2000
 90
    32768
280
     0
281
     1
  0
CLASS
  1
IMAGE
  2
AcDbRasterImage
  3
ISM
 90
    32895
280
     0
281
     1
  0
CLASS
  1
OLE2FRAME
  2
AcDbOle2Frame
  3
AutoCAD 2000
 90
    32768
280
     0
281
     1
  0
CLASS
  1
HATCH
  2
AcDbHatch
  3
AutoCAD 2000
 90
    32768
280
     0
281
     1
  0
CLASS
  1
DICTIONARYVAR
  2
AcDbDictionaryVar
  3
AutoCAD 2000
 90
    32768
280
     0
281
     0
  0
CLASS
  1
RASTERVARIABLES
  2
AcDbRasterVariables
  3
ISM
 90
    32768
280
     0
281
     0
  0
CLASS
  1
IMAGEDEF
  2
AcDbRasterImageDef
  3
ISM
 90
    32768
280
     0
281
     0
  0
CLASS
  1
IMAGEDEF_REACTOR
  2
AcDbRasterImageDefReactor
  3
ISM
 90
    32769
280
     0
281
     0
  0
CLASS
  1
IDBUFFER
  2
AcDbIdBuffer
  3
AutoCAD 2000
 90
    32768
280
     0
281
     0
  0
CLASS
  1
SPATIAL_FILTER
  2
AcDbSpatialFilter
  3
AutoCAD 2000
 90
    32768
280
     0
281
     0
  0
CLASS
  1
XRECORD
  2
AcDbXrecord
  3
AutoCAD 2000
 90
    32768
280
     0
281
     0
  0
CLASS
  1
SORTENTSTABLE
  2
AcDbSortentsTable
  3
AutoCAD 2000
 90
    32768
280
     0
281
     0
  0
CLASS
  1
LAYER_INDEX
  2
AcDbLayerIndex
  3
AutoCAD 2000
 90
    32768
280
     0
281
     0
  0
CLASS
  1
SPATIAL_INDEX
  2
AcDbSpatialIndex
  3
AutoCAD 2000
 90
    32768
280
     0
281
     0
  0
CLASS
  1
OBJECT_PTR
  2
CAseDLPNTableRecord
  3
"ASE-LPNTableRecord"
 90
    32769
280
     0
281
     0
  0
CLASS
  1
LAYOUT
  2
AcDbLayout
  3
AutoCAD 2000
 90
        0
280
     0
281
     0
  0
CLASS
  1
PLOTSETTINGS
  2
AcDbPlotSettings
  3
AutoCAD 2000
 90
    32768
280
     0
281
     0
  0
CLASS
  1
ACDBDICTIONARYWDFLT
  2
AcDbDictionaryWithDefault
  3
AutoCAD 2000
 90
        0
280
     0
281
     0
  0
CLASS
  1
ACDBPLACEHOLDER
  2
AcDbPlaceHolder
  3
AutoCAD 2000
 90
        0
280
     0
281
     0
  0
CLASS
  1
VBA_PROJECT
  2
AcDbVbaProject
  3
acadvba
 90
    32768
280
     0
281
     0
  0
CLASS
  1
WIPEOUT
  2
AcDbWipeout
  3
WipeOut|AutoCAD Express Tool|expresstools@autodesk.com
 90
    32895
280
     0
281
     1
  0
CLASS
  1
WIPEOUTVARIABLES
  2
AcDbWipeoutVariables
  3
WipeOut|AutoCAD Express Tool|expresstools@autodesk.com
 90
        0
280
     0
281
     0
  0
CLASS
  1
RTEXT
  2
RText
  3
RText|AutoCAD Express Tool|expresstools@autodesk.com
 90
    32768
280
     0
281
     1
  0
CLASS
  1
ARCALIGNEDTEXT
  2
AcDbArcAlignedText
  3
ATEXT|AutoCAD Express Tool|expresstools@autodesk.com
 90
    32768
280
     0
281
     1
  0
ENDSEC
  0
SECTION
  2
TABLES
  0
TABLE
  2
VPORT
  5
7
100
AcDbSymbolTable
 70
     1
  0
VPORT
  5
15
100
AcDbSymbolTableRecord
100
AcDbViewportTableRecord
  2
*ACTIVE
 70
     0
 10
0.0
 20
0.0
 11
1.0
 21
1.0
 12
6.591288
 22
4.579184
 13
0.0
 23
0.0
 14
1.0
 24
1.0
 15
0.0
 25
0.0
 16
0.0
 26
0.0
 36
1.0
 17
0.0
 27
0.0
 37
0.0
 40
9.158369
 41
0.688564
 42
50.0
 43
0.0
 44
0.0
 50
0.0
 51
0.0
 71
     0
 72
   100
 73
     1
 74
     1
 75
     0
 76
     0
 77
     0
 78
     0
281
     0
 65
     0
110
0.0
120
0.0
130
0.0
111
1.0
121
0.0
131
0.0
112
0.0
122
1.0
132
0.0
345
0
346
0
 79
     0
146
0.0
  0
ENDTAB
  0
TABLE
  2
LTYPE
  5
4
100
AcDbSymbolTable
 70
     3
  0
LTYPE
  5
11
100
AcDbSymbolTableRecord
100
AcDbLinetypeTableRecord
  2
ByBlock
 70
    64
  3

 72
    65
 73
     0
 40
0.0
  0
LTYPE
  5
12
100
AcDbSymbolTableRecord
100
AcDbLinetypeTableRecord
  2
ByLayer
 70
    64
  3

 72
    65
 73
     0
 40
0.0
  0
LTYPE
  5
13
100
AcDbSymbolTableRecord
100
AcDbLinetypeTableRecord
  2
Continuous
 70
    64
  3
Solid line
 72
    65
 73
     0
 40
0.0
  0
ENDTAB
  0
TABLE
  2
LAYER
  5
2
100
AcDbSymbolTable
 70
     2
  0
LAYER
  5
14
100
AcDbSymbolTableRecord
100
AcDbLayerTableRecord
  2
0
 70
     0
 62
     7
  6
Continuous
290
     1
370
    -3
390
1D
  0
LAYER
  5
28
100
AcDbSymbolTableRecord
100
AcDbLayerTableRecord
  2
LIVELLO_1
 70
     0
 62
   160
  6
Continuous
290
     1
370
    -3
390
1D
  0
ENDTAB
  0
TABLE
  2
STYLE
  5
3
100
AcDbSymbolTable
 70
     5
  0
STYLE
  5
17
100
AcDbSymbolTableRecord
100
AcDbTextStyleTableRecord
  2
Standard
 70
     0
 40
0.0
 41
1.0
 50
0.0
 71
     0
 42
0.0
  3
txt
  4

  0
STYLE
  5
24
100
AcDbSymbolTableRecord
100
AcDbTextStyleTableRecord
  2
STD
 70
     0
 40
0.0
 41
1.0
 50
0.0
 71
     0
 42
0.0
  3
txt
  4

  0
STYLE
  5
25
100
AcDbSymbolTableRecord
100
AcDbTextStyleTableRecord
  2
TATESTD
 70
     4
 40
0.0
 41
1.0
 50
0.0
 71
     0
 42
0.0
  3
txt
  4

  0
STYLE
  5
26
100
AcDbSymbolTableRecord
100
AcDbTextStyleTableRecord
  2
KANJISTD
 70
     0
 40
0.0
 41
1.0
 50
0.0
 71
     0
 42
0.0
  3
txt
  4
extfont
  0
STYLE
  5
27
100
AcDbSymbolTableRecord
100
AcDbTextStyleTableRecord
  2
KANJITATE
 70
     4
 40
0.0
 41
1.0
 50
0.0
 71
     0
 42
0.0
  3
txt
  4
extfont
  0
ENDTAB
  0
TABLE
  2
VIEW
  5
5
100
AcDbSymbolTable
 70
     0
  0
ENDTAB
  0
TABLE
  2
UCS
  5
6
100
AcDbSymbolTable
 70
     0
  0
ENDTAB
  0
TABLE
  2
APPID
  5
8
100
AcDbSymbolTable
 70
     1
  0
APPID
  5
16
100
AcDbSymbolTableRecord
100
AcDbRegAppTableRecord
  2
ACAD
 70
     0
  0
ENDTAB
  0
TABLE
  2
DIMSTYLE
  5
9
100
AcDbSymbolTable
 70
     1
100
AcDbDimStyleTable
 71
     0
  0
DIMSTYLE
105
18
100
AcDbSymbolTableRecord
100
AcDbDimStyleTableRecord
  2
Standard
 70
     0
  3

  4

 40
1.0
 41
0.18
 42
0.0625
 43
0.38
 44
0.18
 45
0.0
 46
0.0
 47
0.0
 48
0.0
 71
     0
 72
     0
 73
     1
 74
     1
 75
     0
 76
     0
 77
     0
 78
     0
 79
     0
140
0.18
141
0.09
142
0.0
143
25.4
144
1.0
145
0.0
146
1.0
147
0.09
148
0.0
170
     0
171
     2
172
     0
173
     0
174
     0
175
     0
176
     0
177
     0
178
     0
179
     0
271
     4
272
     4
273
     2
274
     2
275
     0
276
     0
277
     2
278
    46
279
     0
280
     0
281
     0
282
     0
283
     1
284
     0
285
     0
286
     0
288
     0
340
17
341
0
342
0
343
0
344
0
371
    -2
372
    -2
  0
ENDTAB
  0
TABLE
  2
BLOCK_RECORD
  5
1
100
AcDbSymbolTable
 70
     7
  0
BLOCK_RECORD
  5
A
100
AcDbSymbolTableRecord
100
AcDbBlockTableRecord
  2
*MODEL_SPACE
340
20
  0
BLOCK_RECORD
  5
B
100
AcDbSymbolTableRecord
100
AcDbBlockTableRecord
  2
*PAPER_SPACE
340
21
  0
BLOCK_RECORD
  5
29
100
AcDbSymbolTableRecord
100
AcDbBlockTableRecord
  2
AI9-BLK1
340
0
102
{BLKREFS
331
2A
102
}
  0
BLOCK_RECORD
  5
250
100
AcDbSymbolTableRecord
100
AcDbBlockTableRecord
  2
AI9-BLK2
340
0
102
{BLKREFS
331
251
102
}
  0
BLOCK_RECORD
  5
253
100
AcDbSymbolTableRecord
100
AcDbBlockTableRecord
  2
AI9-BLK3
340
0
102
{BLKREFS
331
254
102
}
  0
BLOCK_RECORD
  5
256
100
AcDbSymbolTableRecord
100
AcDbBlockTableRecord
  2
AI9-BLK4
340
0
102
{BLKREFS
331
257
102
}
  0
BLOCK_RECORD
  5
43B
100
AcDbSymbolTableRecord
100
AcDbBlockTableRecord
  2
AI9-BLK5
340
0
102
{BLKREFS
331
43C
102
}
  0
BLOCK_RECORD
  5
43E
100
AcDbSymbolTableRecord
100
AcDbBlockTableRecord
  2
AI9-BLK6
340
0
102
{BLKREFS
331
43F
102
}
  0
BLOCK_RECORD
  5
441
100
AcDbSymbolTableRecord
100
AcDbBlockTableRecord
  2
AI9-BLK7
340
0
102
{BLKREFS
331
442
102
}
  0
ENDTAB
  0
ENDSEC
  0
SECTION
  2
BLOCKS
  0
BLOCK
  5
D
100
AcDbEntity
  8
0
100
AcDbBlockBegin
  2
*MODEL_SPACE
 70
     0
 10
0.0
 20
0.0
 30
0.0
  3
*MODEL_SPACE
  1

  0
ENDBLK
  5
E
100
AcDbEntity
  8
0
100
AcDbBlockEnd
  0
BLOCK
  5
F
100
AcDbEntity
 67
     1
  8
0
100
AcDbBlockBegin
  2
*PAPER_SPACE
 70
     0
 10
0.0
 20
0.0
 30
0.0
  3
*PAPER_SPACE
  1

  0
ENDBLK
  5
10
100
AcDbEntity
 67
     1
  8
0
100
AcDbBlockEnd
  0
BLOCK
  5
2B
100
AcDbEntity
  8
LIVELLO_1
 62
     7
100
AcDbBlockBegin
  2
AI9-BLK1
 70
     0
 10
0.0
 20
0.0
 30
0.0
  3
AI9-BLK1
  1

  0
MTEXT
  5
448
100
AcDbEntity
  8
LIVELLO_1
 62
     7
100
AcDbMText
 10
20.174565
 20
83.484865
 30
0.0
 40
10.259447
 41
0.0
 71
     1
 72
     2
  1
\fMyriad Roman|b0|i0;\H10.2594;\C7;\U+0032
  7
STD
210
0.0
220
0.0
230
1.0
 73
     1
 44
1.0
  0
LINE
  5
447
100
AcDbEntity
  8
LIVELLO_1
 62
     7
100
AcDbLine
 10
18.887133
 20
72.953773
 30
0.0
 11
18.887133
 21
81.500538
 31
0.0
  0
INSERT
  5
43C
100
AcDbEntity
  8
LIVELLO_1
 62
     7
100
AcDbBlockReference
  2
AI9-BLK5
 10
-23.858578
 20
-10.022902
 30
0.0
  0
SPLINE
  5
43A
100
AcDbEntity
  8
LIVELLO_1
 62
     7
100
AcDbSpline
210
0.0
220
0.0
230
1.0
 70
     8
 71
     3
 72
    14
 73
    10
 74
     0
 42
0.00000001
 43
0.00000001
 40
0.0
 40
0.0
 40
0.0
 40
0.0
 40
1.0
 40
1.0
 40
1.0
 40
2.0
 40
2.0
 40
2.0
 40
3.0
 40
3.0
 40
3.0
 40
3.0
 10
-40.622068277994785
 20
36.235083685980896
 30
0.0
 10
-40.622068277994785
 20
42.366147867838535
 30
0.0
 10
-36.529983859592008
 20
38.613233100043402
 30
0.0
 10
-35.074431016710065
 20
42.366147867838535
 30
0.0
 10
-35.074431016710065
 20
42.366147867838535
 30
0.0
 10
-35.074431016710065
 20
30.106431070963538
 30
0.0
 10
-35.074431016710065
 20
30.106431070963538
 30
0.0
 10
-36.954419623480902
 20
34.759721544053818
 30
0.0
 10
-40.622068277994785
 20
30.106431070963538
 30
0.0
 10
-40.622068277994785
 20
36.235083685980896
 30
0.0
  0
POLYLINE
  5
434
100
AcDbEntity
  8
LIVELLO_1
 62
     7
100
AcDb2dPolyline
 66
     1
 10
0.0
 20
0.0
 30
0.0
 70
     1
  0
VERTEX
  5
435
100
AcDbEntity
  8
LIVELLO_1
 62
     7
100
AcDbVertex
100
AcDb2dVertex
 10
-40.622068
 20
42.366148
 30
0.0
  0
VERTEX
  5
436
100
AcDbEntity
  8
LIVELLO_1
 62
     7
100
AcDbVertex
100
AcDb2dVertex
 10
-35.07667
 20
42.366148
 30
0.0
  0
VERTEX
  5
437
100
AcDbEntity
  8
LIVELLO_1
 62
     7
100
AcDbVertex
100
AcDb2dVertex
 10
-35.07667
 20
30.106431
 30
0.0
  0
VERTEX
  5
438
100
AcDbEntity
  8
LIVELLO_1
 62
     7
100
AcDbVertex
100
AcDb2dVertex
 10
-40.622068
 20
30.106431
 30
0.0
  0
SEQEND
  5
439
100
AcDbEntity
  8
LIVELLO_1
 62
     7
  0
SPLINE
  5
433
100
AcDbEntity
  8
LIVELLO_1
 62
     7
100
AcDbSpline
210
0.0
220
0.0
230
1.0
 70
     8
 71
     3
 72
    20
 73
    16
 74
     0
 42
0.00000001
 43
0.00000001
 40
0.0
 40
0.0
 40
0.0
 40
0.0
 40
1.0
 40
1.0
 40
1.0
 40
2.0
 40
2.0
 40
2.0
 40
3.0
 40
3.0
 40
3.0
 40
4.0
 40
4.0
 40
4.0
 40
5.0
 40
5.0
 40
5.0
 40
5.0
 10
-38.343482123480896
 20
-61.072499593098954
 30
0.0
 10
-38.343482123480896
 20
-61.072499593098954
 30
0.0
 10
-38.081482611762148
 20
-61.769097900390619
 30
0.0
 10
-38.081482611762148
 20
-61.769097900390619
 30
0.0
 10
-38.081482611762148
 20
-61.769097900390619
 30
0.0
 10
8.2771002875434014
 20
-64.025635443793391
 30
0.0
 10
8.2771002875434014
 20
-64.025635443793391
 30
0.0
 10
8.2771002875434014
 20
-64.025635443793391
 30
0.0
 10
8.3227478027343746
 20
-62.898744710286451
 30
0.0
 10
8.3227478027343746
 20
-62.898744710286451
 30
0.0
 10
7.8247592502170136
 20
-62.512549506293396
 30
0.0
 10
7.2239345974392357
 20
-62.419187418619785
 30
0.0
 10
6.4835835774739579
 20
-62.419187418619785
 30
0.0
 10
6.4835835774739579
 20
-62.419187418619785
 30
0.0
 10
-38.343482123480896
 20
-61.072499593098954
 30
0.0
 10
-38.343482123480896
 20
-61.072499593098954
 30
0.0
  0
SPLINE
  5
432
100
AcDbEntity
  8
LIVELLO_1
 62
     7
100
AcDbSpline
210
0.0
220
0.0
230
1.0
 70
     8
 71
     3
 72
    20
 73
    16
 74
     0
 42
0.00000001
 43
0.00000001
 40
0.0
 40
0.0
 40
0.0
 40
0.0
 40
1.0
 40
1.0
 40
1.0
 40
2.0
 40
2.0
 40
2.0
 40
3.0
 40
3.0
 40
3.0
 40
4.0
 40
4.0
 40
4.0
 40
5.0
 40
5.0
 40
5.0
 40
5.0
 10
-38.343482123480896
 20
42.434016248914929
 30
0.0
 10
-38.343482123480896
 20
42.434016248914929
 30
0.0
 10
-38.081482611762148
 20
43.128547498914926
 30
0.0
 10
-38.081482611762148
 20
43.128547498914926
 30
0.0
 10
-38.081482611762148
 20
43.128547498914926
 30
0.0
 10
8.2771002875434014
 20
45.387496609157985
 30
0.0
 10
8.2771002875434014
 20
45.387496609157985
 30
0.0
 10
8.2771002875434014
 20
45.387496609157985
 30
0.0
 10
8.3227478027343746
 20
44.258022054036452
 30
0.0
 10
8.3227478027343746
 20
44.258022054036452
 30
0.0
 10
7.8247592502170136
 20
43.874582926432289
 30
0.0
 10
7.2239345974392357
 20
43.778637017144092
 30
0.0
 10
6.4835835774739579
 20
43.778637017144092
 30
0.0
 10
6.4835835774739579
 20
43.778637017144092
 30
0.0
 10
-38.343482123480896
 20
42.434016248914929
 30
0.0
 10
-38.343482123480896
 20
42.434016248914929
 30
0.0
  0
SPLINE
  5
431
100
AcDbEntity
  8
LIVELLO_1
 62
     7
100
AcDbSpline
210
0.0
220
0.0
230
1.0
 70
     8
 71
     3
 72
    23
 73
    19
 74
     0
 42
0.00000001
 43
0.00000001
 40
0.0
 40
0.0
 40
0.0
 40
0.0
 40
1.0
 40
1.0
 40
1.0
 40
2.0
 40
2.0
 40
2.0
 40
3.0
 40
3.0
 40
3.0
 40
4.0
 40
4.0
 40
4.0
 40
5.0
 40
5.0
 40
5.0
 40
6.0
 40
6.0
 40
6.0
 40
6.0
 10
10.255446370442707
 20
50.365659586588535
 30
0.0
 10
10.255446370442707
 20
50.365659586588535
 30
0.0
 10
10.255446370442707
 20
-69.008621554904508
 30
0.0
 10
10.255446370442707
 20
-69.008621554904508
 30
0.0
 10
9.5478237575954861
 20
-63.178830973307285
 30
0.0
 10
8.5645935058593743
 20
-62.419187418619785
 30
0.0
 10
6.4835835774739579
 20
-62.419187418619785
 30
0.0
 10
6.4835835774739579
 20
-62.419187418619785
 30
0.0
 10
-40.622068277994785
 20
-61.007042778862839
 30
0.0
 10
-40.622068277994785
 20
-61.007042778862839
 30
0.0
 10
-40.622068277994785
 20
-61.007042778862839
 30
0.0
 10
-40.622068277994785
 20
42.366147867838535
 30
0.0
 10
-40.622068277994785
 20
42.366147867838535
 30
0.0
 10
-40.622068277994785
 20
42.366147867838535
 30
0.0
 10
6.4835835774739579
 20
43.778637017144092
 30
0.0
 10
6.4835835774739579
 20
43.778637017144092
 30
0.0
 10
8.5645935058593743
 20
43.778637017144092
 30
0.0
 10
9.5478237575954861
 20
44.538625081380204
 30
0.0
 10
10.255446370442707
 20
50.365659586588535
 30
0.0
  0
POLYLINE
  5
42B
100
AcDbEntity
  8
LIVELLO_1
 62
     7
100
AcDb2dPolyline
 66
     1
 10
0.0
 20
0.0
 30
0.0
 70
     1
  0
VERTEX
  5
42C
100
AcDbEntity
  8
LIVELLO_1
 62
     7
100
AcDbVertex
100
AcDb2dVertex
 10
-49.21672
 20
50.36566
 30
0.0
  0
VERTEX
  5
42D
100
AcDbEntity
  8
LIVELLO_1
 62
     7
100
AcDbVertex
100
AcDb2dVertex
 10
11.473288
 20
50.36566
 30
0.0
  0
VERTEX
  5
42E
100
AcDbEntity
  8
LIVELLO_1
 62
     7
100
AcDbVertex
100
AcDb2dVertex
 10
11.473288
 20
-69.008622
 30
0.0
  0
VERTEX
  5
42F
100
AcDbEntity
  8
LIVELLO_1
 62
     7
100
AcDbVertex
100
AcDb2dVertex
 10
-49.21672
 20
-69.008622
 30
0.0
  0
SEQEND
  5
430
100
AcDbEntity
  8
LIVELLO_1
 62
     7
  0
SPLINE
  5
42A
100
AcDbEntity
  8
LIVELLO_1
 62
     7
100
AcDbSpline
210
0.0
220
0.0
230
1.0
 70
     8
 71
     3
 72
    23
 73
    19
 74
     0
 42
0.00000001
 43
0.00000001
 40
0.0
 40
0.0
 40
0.0
 40
0.0
 40
1.0
 40
1.0
 40
1.0
 40
2.0
 40
2.0
 40
2.0
 40
3.0
 40
3.0
 40
3.0
 40
4.0
 40
4.0
 40
4.0
 40
5.0
 40
5.0
 40
5.0
 40
6.0
 40
6.0
 40
6.0
 40
6.0
 10
11.473287624782985
 20
52.229456244574649
 30
0.0
 10
11.473287624782985
 20
52.229456244574649
 30
0.0
 10
17.17664320203993
 20
51.773325602213539
 30
0.0
 10
17.17664320203993
 20
51.773325602213539
 30
0.0
 10
17.69478556315104
 20
51.773325602213539
 30
0.0
 10
18.117843288845485
 20
51.350095621744785
 30
0.0
 10
18.117843288845485
 20
50.831091986762146
 30
0.0
 10
18.117843288845485
 20
50.831091986762146
 30
0.0
 10
18.117843288845485
 20
-69.471297878689228
 30
0.0
 10
18.117843288845485
 20
-69.471297878689228
 30
0.0
 10
18.117843288845485
 20
-69.992885335286445
 30
0.0
 10
17.69478556315104
 20
-70.413876003689225
 30
0.0
 10
17.17664320203993
 20
-70.413876003689225
 30
0.0
 10
17.17664320203993
 20
-70.413876003689225
 30
0.0
 10
11.473287624782985
 20
-70.872073703342011
 30
0.0
 10
11.473287624782985
 20
-70.872073703342011
 30
0.0
 10
11.473287624782985
 20
-70.872073703342011
 30
0.0
 10
11.473287624782985
 20
52.229456244574649
 30
0.0
 10
11.473287624782985
 20
52.229456244574649
 30
0.0
  0
POLYLINE
  5
425
100
AcDbEntity
  8
LIVELLO_1
 62
     7
100
AcDb2dPolyline
 66
     1
 10
0.0
 20
0.0
 30
0.0
  0
VERTEX
  5
426
100
AcDbEntity
  8
LIVELLO_1
 62
     7
100
AcDbVertex
100
AcDb2dVertex
 10
3.013511
 20
48.630709
 30
0.0
  0
VERTEX
  5
427
100
AcDbEntity
  8
LIVELLO_1
 62
     7
100
AcDbVertex
100
AcDb2dVertex
 10
-0.371295
 20
48.630709
 30
0.0
  0
VERTEX
  5
428
100
AcDbEntity
  8
LIVELLO_1
 62
     7
100
AcDbVertex
100
AcDb2dVertex
 10
-0.371295
 20
45.104482
 30
0.0
  0
SEQEND
  5
429
100
AcDbEntity
  8
LIVELLO_1
 62
     7
  0
POLYLINE
  5
41F
100
AcDbEntity
  8
LIVELLO_1
 62
     7
100
AcDb2dPolyline
 66
     1
 10
0.0
 20
0.0
 30
0.0
 70
     1
  0
VERTEX
  5
420
100
AcDbEntity
  8
LIVELLO_1
 62
     7
100
AcDbVertex
100
AcDb2dVertex
 10
3.013511
 20
48.630709
 30
0.0
  0
VERTEX
  5
421
100
AcDbEntity
  8
LIVELLO_1
 62
     7
100
AcDbVertex
100
AcDb2dVertex
 10
8.526008
 20
48.630709
 30
0.0
  0
VERTEX
  5
422
100
AcDbEntity
  8
LIVELLO_1
 62
     7
100
AcDbVertex
100
AcDb2dVertex
 10
8.526008
 20
46.114756
 30
0.0
  0
VERTEX
  5
423
100
AcDbEntity
  8
LIVELLO_1
 62
     7
100
AcDbVertex
100
AcDb2dVertex
 10
3.013511
 20
46.114756
 30
0.0
  0
SEQEND
  5
424
100
AcDbEntity
  8
LIVELLO_1
 62
     7
  0
SPLINE
  5
41E
100
AcDbEntity
  8
LIVELLO_1
 62
     7
100
AcDbSpline
210
0.0
220
0.0
230
1.0
 70
     8
 71
     3
 72
    38
 73
    34
 74
     0
 42
0.00000001
 43
0.00000001
 40
0.0
 40
0.0
 40
0.0
 40
0.0
 40
1.0
 40
1.0
 40
1.0
 40
2.0
 40
2.0
 40
2.0
 40
3.0
 40
3.0
 40
3.0
 40
4.0
 40
4.0
 40
4.0
 40
5.0
 40
5.0
 40
5.0
 40
6.0
 40
6.0
 40
6.0
 40
7.0
 40
7.0
 40
7.0
 40
8.0
 40
8.0
 40
8.0
 40
9.0
 40
9.0
 40
9.0
 40
10.0
 40
10.0
 40
10.0
 40
11.0
 40
11.0
 40
11.0
 40
11.0
 10
16.877608913845485
 20
56.520150417751729
 30
0.0
 10
16.877608913845485
 20
56.520150417751729
 30
0.0
 10
17.658612060546872
 20
56.520150417751729
 30
0.0
 10
17.658612060546872
 20
56.520150417751729
 30
0.0
 10
17.658612060546872
 20
56.520150417751729
 30
0.0
 10
18.055831570095485
 20
52.229456244574649
 30
0.0
 10
18.055831570095485
 20
52.229456244574649
 30
0.0
 10
18.055831570095485
 20
52.229456244574649
 30
0.0
 10
17.448116726345486
 20
52.229456244574649
 30
0.0
 10
17.448116726345486
 20
52.229456244574649
 30
0.0
 10
17.448116726345486
 20
52.229456244574649
 30
0.0
 10
16.877608913845485
 20
52.229456244574649
 30
0.0
 10
16.877608913845485
 20
52.229456244574649
 30
0.0
 10
16.877608913845485
 20
52.229456244574649
 30
0.0
 10
8.5239413791232632
 20
52.229456244574649
 30
0.0
 10
8.5239413791232632
 20
52.229456244574649
 30
0.0
 10
8.5239413791232632
 20
52.229456244574649
 30
0.0
 10
8.5239413791232632
 20
46.114756266276039
 30
0.0
 10
8.5239413791232632
 20
46.114756266276039
 30
0.0
 10
8.5239413791232632
 20
46.114756266276039
 30
0.0
 10
7.1302280002170129
 20
46.114756266276039
 30
0.0
 10
7.1302280002170129
 20
46.114756266276039
 30
0.0
 10
7.1302280002170129
 20
46.114756266276039
 30
0.0
 10
7.1302280002170129
 20
52.278548855251728
 30
0.0
 10
7.1302280002170129
 20
52.278548855251728
 30
0.0
 10
7.1302280002170129
 20
52.797380235460068
 30
0.0
 10
7.5534579806857636
 20
53.218543158637146
 30
0.0
 10
8.0712558322482639
 20
53.218543158637146
 30
0.0
 10
8.0712558322482639
 20
53.218543158637146
 30
0.0
 10
16.877608913845485
 20
53.218543158637146
 30
0.0
 10
16.877608913845485
 20
53.218543158637146
 30
0.0
 10
16.877608913845485
 20
53.218543158637146
 30
0.0
 10
16.877608913845485
 20
56.520150417751729
 30
0.0
 10
16.877608913845485
 20
56.520150417751729
 30
0.0
  0
POLYLINE
  5
418
100
AcDbEntity
  8
LIVELLO_1
 62
     7
100
AcDb2dPolyline
 66
     1
 10
0.0
 20
0.0
 30
0.0
 70
     1
  0
VERTEX
  5
419
100
AcDbEntity
  8
LIVELLO_1
 62
     7
100
AcDbVertex
100
AcDb2dVertex
 10
8.144981
 20
-56.479843
 30
0.0
  0
VERTEX
  5
41A
100
AcDbEntity
  8
LIVELLO_1
 62
     7
100
AcDbVertex
100
AcDb2dVertex
 10
10.262337
 20
-56.479843
 30
0.0
  0
VERTEX
  5
41B
100
AcDbEntity
  8
LIVELLO_1
 62
     7
100
AcDbVertex
100
AcDb2dVertex
 10
10.262337
 20
-58.130733
 30
0.0
  0
VERTEX
  5
41C
100
AcDbEntity
  8
LIVELLO_1
 62
     7
100
AcDbVertex
100
AcDb2dVertex
 10
8.144981
 20
-58.130733
 30
0.0
  0
SEQEND
  5
41D
100
AcDbEntity
  8
LIVELLO_1
 62
     7
  0
POLYLINE
  5
412
100
AcDbEntity
  8
LIVELLO_1
 62
     7
100
AcDb2dPolyline
 66
     1
 10
0.0
 20
0.0
 30
0.0
 70
     1
  0
VERTEX
  5
413
100
AcDbEntity
  8
LIVELLO_1
 62
     7
100
AcDbVertex
100
AcDb2dVertex
 10
-38.51522
 20
-56.93115
 30
0.0
  0
VERTEX
  5
414
100
AcDbEntity
  8
LIVELLO_1
 62
     7
100
AcDbVertex
100
AcDb2dVertex
 10
8.144981
 20
-56.93115
 30
0.0
  0
VERTEX
  5
415
100
AcDbEntity
  8
LIVELLO_1
 62
     7
100
AcDbVertex
100
AcDb2dVertex
 10
8.144981
 20
-57.676669
 30
0.0
  0
VERTEX
  5
416
100
AcDbEntity
  8
LIVELLO_1
 62
     7
100
AcDbVertex
100
AcDb2dVertex
 10
-38.51522
 20
-57.676669
 30
0.0
  0
SEQEND
  5
417
100
AcDbEntity
  8
LIVELLO_1
 62
     7
  0
POLYLINE
  5
40C
100
AcDbEntity
  8
LIVELLO_1
 62
     7
100
AcDb2dPolyline
 66
     1
 10
0.0
 20
0.0
 30
0.0
 70
     1
  0
VERTEX
  5
40D
100
AcDbEntity
  8
LIVELLO_1
 62
     7
100
AcDbVertex
100
AcDb2dVertex
 10
8.144981
 20
-50.835398
 30
0.0
  0
VERTEX
  5
40E
100
AcDbEntity
  8
LIVELLO_1
 62
     7
100
AcDbVertex
100
AcDb2dVertex
 10
10.262337
 20
-50.835398
 30
0.0
  0
VERTEX
  5
40F
100
AcDbEntity
  8
LIVELLO_1
 62
     7
100
AcDbVertex
100
AcDb2dVertex
 10
10.262337
 20
-52.483532
 30
0.0
  0
VERTEX
  5
410
100
AcDbEntity
  8
LIVELLO_1
 62
     7
100
AcDbVertex
100
AcDb2dVertex
 10
8.144981
 20
-52.483532
 30
0.0
  0
SEQEND
  5
411
100
AcDbEntity
  8
LIVELLO_1
 62
     7
  0
POLYLINE
  5
406
100
AcDbEntity
  8
LIVELLO_1
 62
     7
100
AcDb2dPolyline
 66
     1
 10
0.0
 20
0.0
 30
0.0
 70
     1
  0
VERTEX
  5
407
100
AcDbEntity
  8
LIVELLO_1
 62
     7
100
AcDbVertex
100
AcDb2dVertex
 10
-38.51522
 20
-51.28395
 30
0.0
  0
VERTEX
  5
408
100
AcDbEntity
  8
LIVELLO_1
 62
     7
100
AcDbVertex
100
AcDb2dVertex
 10
8.144981
 20
-51.28395
 30
0.0
  0
VERTEX
  5
409
100
AcDbEntity
  8
LIVELLO_1
 62
     7
100
AcDbVertex
100
AcDb2dVertex
 10
8.144981
 20
-52.034636
 30
0.0
  0
VERTEX
  5
40A
100
AcDbEntity
  8
LIVELLO_1
 62
     7
100
AcDbVertex
100
AcDb2dVertex
 10
-38.51522
 20
-52.034636
 30
0.0
  0
SEQEND
  5
40B
100
AcDbEntity
  8
LIVELLO_1
 62
     7
  0
POLYLINE
  5
400
100
AcDbEntity
  8
LIVELLO_1
 62
     7
100
AcDb2dPolyline
 66
     1
 10
0.0
 20
0.0
 30
0.0
 70
     1
  0
VERTEX
  5
401
100
AcDbEntity
  8
LIVELLO_1
 62
     7
100
AcDbVertex
100
AcDb2dVertex
 10
8.144981
 20
-45.187853
 30
0.0
  0
VERTEX
  5
402
100
AcDbEntity
  8
LIVELLO_1
 62
     7
100
AcDbVertex
100
AcDb2dVertex
 10
10.262337
 20
-45.187853
 30
0.0
  0
VERTEX
  5
403
100
AcDbEntity
  8
LIVELLO_1
 62
     7
100
AcDbVertex
100
AcDb2dVertex
 10
10.262337
 20
-46.839088
 30
0.0
  0
VERTEX
  5
404
100
AcDbEntity
  8
LIVELLO_1
 62
     7
100
AcDbVertex
100
AcDb2dVertex
 10
8.144981
 20
-46.839088
 30
0.0
  0
SEQEND
  5
405
100
AcDbEntity
  8
LIVELLO_1
 62
     7
  0
POLYLINE
  5
3FA
100
AcDbEntity
  8
LIVELLO_1
 62
     7
100
AcDb2dPolyline
 66
     1
 10
0.0
 20
0.0
 30
0.0
 70
     1
  0
VERTEX
  5
3FB
100
AcDbEntity
  8
LIVELLO_1
 62
     7
100
AcDbVertex
100
AcDb2dVertex
 10
-38.51522
 20
-45.639161
 30
0.0
  0
VERTEX
  5
3FC
100
AcDbEntity
  8
LIVELLO_1
 62
     7
100
AcDbVertex
100
AcDb2dVertex
 10
8.144981
 20
-45.639161
 30
0.0
  0
VERTEX
  5
3FD
100
AcDbEntity
  8
LIVELLO_1
 62
     7
100
AcDbVertex
100
AcDb2dVertex
 10
8.144981
 20
-46.387436
 30
0.0
  0
VERTEX
  5
3FE
100
AcDbEntity
  8
LIVELLO_1
 62
     7
100
AcDbVertex
100
AcDb2dVertex
 10
-38.51522
 20
-46.387436
 30
0.0
  0
SEQEND
  5
3FF
100
AcDbEntity
  8
LIVELLO_1
 62
     7
  0
POLYLINE
  5
3F4
100
AcDbEntity
  8
LIVELLO_1
 62
     7
100
AcDb2dPolyline
 66
     1
 10
0.0
 20
0.0
 30
0.0
 70
     1
  0
VERTEX
  5
3F5
100
AcDbEntity
  8
LIVELLO_1
 62
     7
100
AcDbVertex
100
AcDb2dVertex
 10
8.144981
 20
-39.545476
 30
0.0
  0
VERTEX
  5
3F6
100
AcDbEntity
  8
LIVELLO_1
 62
     7
100
AcDbVertex
100
AcDb2dVertex
 10
10.262337
 20
-39.545476
 30
0.0
  0
VERTEX
  5
3F7
100
AcDbEntity
  8
LIVELLO_1
 62
     7
100
AcDbVertex
100
AcDb2dVertex
 10
10.262337
 20
-41.193954
 30
0.0
  0
VERTEX
  5
3F8
100
AcDbEntity
  8
LIVELLO_1
 62
     7
100
AcDbVertex
100
AcDb2dVertex
 10
8.144981
 20
-41.193954
 30
0.0
  0
SEQEND
  5
3F9
100
AcDbEntity
  8
LIVELLO_1
 62
     7
  0
POLYLINE
  5
3EE
100
AcDbEntity
  8
LIVELLO_1
 62
     7
100
AcDb2dPolyline
 66
     1
 10
0.0
 20
0.0
 30
0.0
 70
     1
  0
VERTEX
  5
3EF
100
AcDbEntity
  8
LIVELLO_1
 62
     7
100
AcDbVertex
100
AcDb2dVertex
 10
-38.51522
 20
-39.994372
 30
0.0
  0
VERTEX
  5
3F0
100
AcDbEntity
  8
LIVELLO_1
 62
     7
100
AcDbVertex
100
AcDb2dVertex
 10
8.144981
 20
-39.994372
 30
0.0
  0
VERTEX
  5
3F1
100
AcDbEntity
  8
LIVELLO_1
 62
     7
100
AcDbVertex
100
AcDb2dVertex
 10
8.144981
 20
-40.742647
 30
0.0
  0
VERTEX
  5
3F2
100
AcDbEntity
  8
LIVELLO_1
 62
     7
100
AcDbVertex
100
AcDb2dVertex
 10
-38.51522
 20
-40.742647
 30
0.0
  0
SEQEND
  5
3F3
100
AcDbEntity
  8
LIVELLO_1
 62
     7
  0
POLYLINE
  5
3E8
100
AcDbEntity
  8
LIVELLO_1
 62
     7
100
AcDb2dPolyline
 66
     1
 10
0.0
 20
0.0
 30
0.0
 70
     1
  0
VERTEX
  5
3E9
100
AcDbEntity
  8
LIVELLO_1
 62
     7
100
AcDbVertex
100
AcDb2dVertex
 10
8.144981
 20
-33.89862
 30
0.0
  0
VERTEX
  5
3EA
100
AcDbEntity
  8
LIVELLO_1
 62
     7
100
AcDbVertex
100
AcDb2dVertex
 10
10.262337
 20
-33.89862
 30
0.0
  0
VERTEX
  5
3EB
100
AcDbEntity
  8
LIVELLO_1
 62
     7
100
AcDbVertex
100
AcDb2dVertex
 10
10.262337
 20
-35.54951
 30
0.0
  0
VERTEX
  5
3EC
100
AcDbEntity
  8
LIVELLO_1
 62
     7
100
AcDbVertex
100
AcDb2dVertex
 10
8.144981
 20
-35.54951
 30
0.0
  0
SEQEND
  5
3ED
100
AcDbEntity
  8
LIVELLO_1
 62
     7
  0
POLYLINE
  5
3E2
100
AcDbEntity
  8
LIVELLO_1
 62
     7
100
AcDb2dPolyline
 66
     1
 10
0.0
 20
0.0
 30
0.0
 70
     1
  0
VERTEX
  5
3E3
100
AcDbEntity
  8
LIVELLO_1
 62
     7
100
AcDbVertex
100
AcDb2dVertex
 10
-38.51522
 20
-34.349927
 30
0.0
  0
VERTEX
  5
3E4
100
AcDbEntity
  8
LIVELLO_1
 62
     7
100
AcDbVertex
100
AcDb2dVertex
 10
8.144981
 20
-34.349927
 30
0.0
  0
VERTEX
  5
3E5
100
AcDbEntity
  8
LIVELLO_1
 62
     7
100
AcDbVertex
100
AcDb2dVertex
 10
8.144981
 20
-35.097858
 30
0.0
  0
VERTEX
  5
3E6
100
AcDbEntity
  8
LIVELLO_1
 62
     7
100
AcDbVertex
100
AcDb2dVertex
 10
-38.51522
 20
-35.097858
 30
0.0
  0
SEQEND
  5
3E7
100
AcDbEntity
  8
LIVELLO_1
 62
     7
  0
POLYLINE
  5
3DC
100
AcDbEntity
  8
LIVELLO_1
 62
     7
100
AcDb2dPolyline
 66
     1
 10
0.0
 20
0.0
 30
0.0
 70
     1
  0
VERTEX
  5
3DD
100
AcDbEntity
  8
LIVELLO_1
 62
     7
100
AcDbVertex
100
AcDb2dVertex
 10
8.144981
 20
-28.251419
 30
0.0
  0
VERTEX
  5
3DE
100
AcDbEntity
  8
LIVELLO_1
 62
     7
100
AcDbVertex
100
AcDb2dVertex
 10
10.262337
 20
-28.251419
 30
0.0
  0
VERTEX
  5
3DF
100
AcDbEntity
  8
LIVELLO_1
 62
     7
100
AcDbVertex
100
AcDb2dVertex
 10
10.262337
 20
-29.901965
 30
0.0
  0
VERTEX
  5
3E0
100
AcDbEntity
  8
LIVELLO_1
 62
     7
100
AcDbVertex
100
AcDb2dVertex
 10
8.144981
 20
-29.901965
 30
0.0
  0
SEQEND
  5
3E1
100
AcDbEntity
  8
LIVELLO_1
 62
     7
  0
POLYLINE
  5
3D6
100
AcDbEntity
  8
LIVELLO_1
 62
     7
100
AcDb2dPolyline
 66
     1
 10
0.0
 20
0.0
 30
0.0
 70
     1
  0
VERTEX
  5
3D7
100
AcDbEntity
  8
LIVELLO_1
 62
     7
100
AcDbVertex
100
AcDb2dVertex
 10
-38.51522
 20
-28.702727
 30
0.0
  0
VERTEX
  5
3D8
100
AcDbEntity
  8
LIVELLO_1
 62
     7
100
AcDbVertex
100
AcDb2dVertex
 10
8.144981
 20
-28.702727
 30
0.0
  0
VERTEX
  5
3D9
100
AcDbEntity
  8
LIVELLO_1
 62
     7
100
AcDbVertex
100
AcDb2dVertex
 10
8.144981
 20
-29.451002
 30
0.0
  0
VERTEX
  5
3DA
100
AcDbEntity
  8
LIVELLO_1
 62
     7
100
AcDbVertex
100
AcDb2dVertex
 10
-38.51522
 20
-29.451002
 30
0.0
  0
SEQEND
  5
3DB
100
AcDbEntity
  8
LIVELLO_1
 62
     7
  0
POLYLINE
  5
3D0
100
AcDbEntity
  8
LIVELLO_1
 62
     7
100
AcDb2dPolyline
 66
     1
 10
0.0
 20
0.0
 30
0.0
 70
     1
  0
VERTEX
  5
3D1
100
AcDbEntity
  8
LIVELLO_1
 62
     7
100
AcDbVertex
100
AcDb2dVertex
 10
8.144981
 20
-22.609042
 30
0.0
  0
VERTEX
  5
3D2
100
AcDbEntity
  8
LIVELLO_1
 62
     7
100
AcDbVertex
100
AcDb2dVertex
 10
10.262337
 20
-22.609042
 30
0.0
  0
VERTEX
  5
3D3
100
AcDbEntity
  8
LIVELLO_1
 62
     7
100
AcDbVertex
100
AcDb2dVertex
 10
10.262337
 20
-24.257865
 30
0.0
  0
VERTEX
  5
3D4
100
AcDbEntity
  8
LIVELLO_1
 62
     7
100
AcDbVertex
100
AcDb2dVertex
 10
8.144981
 20
-24.257865
 30
0.0
  0
SEQEND
  5
3D5
100
AcDbEntity
  8
LIVELLO_1
 62
     7
  0
POLYLINE
  5
3CA
100
AcDbEntity
  8
LIVELLO_1
 62
     7
100
AcDb2dPolyline
 66
     1
 10
0.0
 20
0.0
 30
0.0
 70
     1
  0
VERTEX
  5
3CB
100
AcDbEntity
  8
LIVELLO_1
 62
     7
100
AcDbVertex
100
AcDb2dVertex
 10
-38.51522
 20
-23.057938
 30
0.0
  0
VERTEX
  5
3CC
100
AcDbEntity
  8
LIVELLO_1
 62
     7
100
AcDbVertex
100
AcDb2dVertex
 10
8.144981
 20
-23.057938
 30
0.0
  0
VERTEX
  5
3CD
100
AcDbEntity
  8
LIVELLO_1
 62
     7
100
AcDbVertex
100
AcDb2dVertex
 10
8.144981
 20
-23.806213
 30
0.0
  0
VERTEX
  5
3CE
100
AcDbEntity
  8
LIVELLO_1
 62
     7
100
AcDbVertex
100
AcDb2dVertex
 10
-38.51522
 20
-23.806213
 30
0.0
  0
SEQEND
  5
3CF
100
AcDbEntity
  8
LIVELLO_1
 62
     7
  0
POLYLINE
  5
3C4
100
AcDbEntity
  8
LIVELLO_1
 62
     7
100
AcDb2dPolyline
 66
     1
 10
0.0
 20
0.0
 30
0.0
 70
     1
  0
VERTEX
  5
3C5
100
AcDbEntity
  8
LIVELLO_1
 62
     7
100
AcDbVertex
100
AcDb2dVertex
 10
8.144981
 20
-16.961841
 30
0.0
  0
VERTEX
  5
3C6
100
AcDbEntity
  8
LIVELLO_1
 62
     7
100
AcDbVertex
100
AcDb2dVertex
 10
10.262337
 20
-16.961841
 30
0.0
  0
VERTEX
  5
3C7
100
AcDbEntity
  8
LIVELLO_1
 62
     7
100
AcDbVertex
100
AcDb2dVertex
 10
10.262337
 20
-18.612904
 30
0.0
  0
VERTEX
  5
3C8
100
AcDbEntity
  8
LIVELLO_1
 62
     7
100
AcDbVertex
100
AcDb2dVertex
 10
8.144981
 20
-18.612904
 30
0.0
  0
SEQEND
  5
3C9
100
AcDbEntity
  8
LIVELLO_1
 62
     7
  0
POLYLINE
  5
3BE
100
AcDbEntity
  8
LIVELLO_1
 62
     7
100
AcDb2dPolyline
 66
     1
 10
0.0
 20
0.0
 30
0.0
 70
     1
  0
VERTEX
  5
3BF
100
AcDbEntity
  8
LIVELLO_1
 62
     7
100
AcDbVertex
100
AcDb2dVertex
 10
-38.51522
 20
-17.413149
 30
0.0
  0
VERTEX
  5
3C0
100
AcDbEntity
  8
LIVELLO_1
 62
     7
100
AcDbVertex
100
AcDb2dVertex
 10
8.144981
 20
-17.413149
 30
0.0
  0
VERTEX
  5
3C1
100
AcDbEntity
  8
LIVELLO_1
 62
     7
100
AcDbVertex
100
AcDb2dVertex
 10
8.144981
 20
-18.161596
 30
0.0
  0
VERTEX
  5
3C2
100
AcDbEntity
  8
LIVELLO_1
 62
     7
100
AcDbVertex
100
AcDb2dVertex
 10
-38.51522
 20
-18.161596
 30
0.0
  0
SEQEND
  5
3C3
100
AcDbEntity
  8
LIVELLO_1
 62
     7
  0
POLYLINE
  5
3B8
100
AcDbEntity
  8
LIVELLO_1
 62
     7
100
AcDb2dPolyline
 66
     1
 10
0.0
 20
0.0
 30
0.0
 70
     1
  0
VERTEX
  5
3B9
100
AcDbEntity
  8
LIVELLO_1
 62
     7
100
AcDbVertex
100
AcDb2dVertex
 10
8.144981
 20
-11.317225
 30
0.0
  0
VERTEX
  5
3BA
100
AcDbEntity
  8
LIVELLO_1
 62
     7
100
AcDbVertex
100
AcDb2dVertex
 10
10.262337
 20
-11.317225
 30
0.0
  0
VERTEX
  5
3BB
100
AcDbEntity
  8
LIVELLO_1
 62
     7
100
AcDbVertex
100
AcDb2dVertex
 10
10.262337
 20
-12.967942
 30
0.0
  0
VERTEX
  5
3BC
100
AcDbEntity
  8
LIVELLO_1
 62
     7
100
AcDbVertex
100
AcDb2dVertex
 10
8.144981
 20
-12.967942
 30
0.0
  0
SEQEND
  5
3BD
100
AcDbEntity
  8
LIVELLO_1
 62
     7
  0
POLYLINE
  5
3B2
100
AcDbEntity
  8
LIVELLO_1
 62
     7
100
AcDb2dPolyline
 66
     1
 10
0.0
 20
0.0
 30
0.0
 70
     1
  0
VERTEX
  5
3B3
100
AcDbEntity
  8
LIVELLO_1
 62
     7
100
AcDbVertex
100
AcDb2dVertex
 10
-38.51522
 20
-11.766121
 30
0.0
  0
VERTEX
  5
3B4
100
AcDbEntity
  8
LIVELLO_1
 62
     7
100
AcDbVertex
100
AcDb2dVertex
 10
8.144981
 20
-11.766121
 30
0.0
  0
VERTEX
  5
3B5
100
AcDbEntity
  8
LIVELLO_1
 62
     7
100
AcDbVertex
100
AcDb2dVertex
 10
8.144981
 20
-12.516635
 30
0.0
  0
VERTEX
  5
3B6
100
AcDbEntity
  8
LIVELLO_1
 62
     7
100
AcDbVertex
100
AcDb2dVertex
 10
-38.51522
 20
-12.516635
 30
0.0
  0
SEQEND
  5
3B7
100
AcDbEntity
  8
LIVELLO_1
 62
     7
  0
POLYLINE
  5
3AC
100
AcDbEntity
  8
LIVELLO_1
 62
     7
100
AcDb2dPolyline
 66
     1
 10
0.0
 20
0.0
 30
0.0
 70
     1
  0
VERTEX
  5
3AD
100
AcDbEntity
  8
LIVELLO_1
 62
     7
100
AcDbVertex
100
AcDb2dVertex
 10
8.144981
 20
-5.672264
 30
0.0
  0
VERTEX
  5
3AE
100
AcDbEntity
  8
LIVELLO_1
 62
     7
100
AcDbVertex
100
AcDb2dVertex
 10
10.262337
 20
-5.672264
 30
0.0
  0
VERTEX
  5
3AF
100
AcDbEntity
  8
LIVELLO_1
 62
     7
100
AcDbVertex
100
AcDb2dVertex
 10
10.262337
 20
-7.323326
 30
0.0
  0
VERTEX
  5
3B0
100
AcDbEntity
  8
LIVELLO_1
 62
     7
100
AcDbVertex
100
AcDb2dVertex
 10
8.144981
 20
-7.323326
 30
0.0
  0
SEQEND
  5
3B1
100
AcDbEntity
  8
LIVELLO_1
 62
     7
  0
POLYLINE
  5
3A6
100
AcDbEntity
  8
LIVELLO_1
 62
     7
100
AcDb2dPolyline
 66
     1
 10
0.0
 20
0.0
 30
0.0
 70
     1
  0
VERTEX
  5
3A7
100
AcDbEntity
  8
LIVELLO_1
 62
     7
100
AcDbVertex
100
AcDb2dVertex
 10
-38.51522
 20
-6.123916
 30
0.0
  0
VERTEX
  5
3A8
100
AcDbEntity
  8
LIVELLO_1
 62
     7
100
AcDbVertex
100
AcDb2dVertex
 10
8.144981
 20
-6.123916
 30
0.0
  0
VERTEX
  5
3A9
100
AcDbEntity
  8
LIVELLO_1
 62
     7
100
AcDbVertex
100
AcDb2dVertex
 10
8.144981
 20
-6.869779
 30
0.0
  0
VERTEX
  5
3AA
100
AcDbEntity
  8
LIVELLO_1
 62
     7
100
AcDbVertex
100
AcDb2dVertex
 10
-38.51522
 20
-6.869779
 30
0.0
  0
SEQEND
  5
3AB
100
AcDbEntity
  8
LIVELLO_1
 62
     7
  0
POLYLINE
  5
3A0
100
AcDbEntity
  8
LIVELLO_1
 62
     7
100
AcDb2dPolyline
 66
     1
 10
0.0
 20
0.0
 30
0.0
 70
     1
  0
VERTEX
  5
3A1
100
AcDbEntity
  8
LIVELLO_1
 62
     7
100
AcDbVertex
100
AcDb2dVertex
 10
8.144981
 20
-0.025408
 30
0.0
  0
VERTEX
  5
3A2
100
AcDbEntity
  8
LIVELLO_1
 62
     7
100
AcDbVertex
100
AcDb2dVertex
 10
10.262337
 20
-0.025408
 30
0.0
  0
VERTEX
  5
3A3
100
AcDbEntity
  8
LIVELLO_1
 62
     7
100
AcDbVertex
100
AcDb2dVertex
 10
10.262337
 20
-1.676297
 30
0.0
  0
VERTEX
  5
3A4
100
AcDbEntity
  8
LIVELLO_1
 62
     7
100
AcDbVertex
100
AcDb2dVertex
 10
8.144981
 20
-1.676297
 30
0.0
  0
SEQEND
  5
3A5
100
AcDbEntity
  8
LIVELLO_1
 62
     7
  0
POLYLINE
  5
39A
100
AcDbEntity
  8
LIVELLO_1
 62
     7
100
AcDb2dPolyline
 66
     1
 10
0.0
 20
0.0
 30
0.0
 70
     1
  0
VERTEX
  5
39B
100
AcDbEntity
  8
LIVELLO_1
 62
     7
100
AcDbVertex
100
AcDb2dVertex
 10
-38.51522
 20
-0.476715
 30
0.0
  0
VERTEX
  5
39C
100
AcDbEntity
  8
LIVELLO_1
 62
     7
100
AcDbVertex
100
AcDb2dVertex
 10
8.144981
 20
-0.476715
 30
0.0
  0
VERTEX
  5
39D
100
AcDbEntity
  8
LIVELLO_1
 62
     7
100
AcDbVertex
100
AcDb2dVertex
 10
8.144981
 20
-1.227229
 30
0.0
  0
VERTEX
  5
39E
100
AcDbEntity
  8
LIVELLO_1
 62
     7
100
AcDbVertex
100
AcDb2dVertex
 10
-38.51522
 20
-1.227229
 30
0.0
  0
SEQEND
  5
39F
100
AcDbEntity
  8
LIVELLO_1
 62
     7
  0
POLYLINE
  5
394
100
AcDbEntity
  8
LIVELLO_1
 62
     7
100
AcDb2dPolyline
 66
     1
 10
0.0
 20
0.0
 30
0.0
 70
     1
  0
VERTEX
  5
395
100
AcDbEntity
  8
LIVELLO_1
 62
     7
100
AcDbVertex
100
AcDb2dVertex
 10
8.144981
 20
5.619381
 30
0.0
  0
VERTEX
  5
396
100
AcDbEntity
  8
LIVELLO_1
 62
     7
100
AcDbVertex
100
AcDb2dVertex
 10
10.262337
 20
5.619381
 30
0.0
  0
VERTEX
  5
397
100
AcDbEntity
  8
LIVELLO_1
 62
     7
100
AcDbVertex
100
AcDb2dVertex
 10
10.262337
 20
3.968492
 30
0.0
  0
VERTEX
  5
398
100
AcDbEntity
  8
LIVELLO_1
 62
     7
100
AcDbVertex
100
AcDb2dVertex
 10
8.144981
 20
3.968492
 30
0.0
  0
SEQEND
  5
399
100
AcDbEntity
  8
LIVELLO_1
 62
     7
  0
POLYLINE
  5
38E
100
AcDbEntity
  8
LIVELLO_1
 62
     7
100
AcDb2dPolyline
 66
     1
 10
0.0
 20
0.0
 30
0.0
 70
     1
  0
VERTEX
  5
38F
100
AcDbEntity
  8
LIVELLO_1
 62
     7
100
AcDbVertex
100
AcDb2dVertex
 10
-38.51522
 20
5.170485
 30
0.0
  0
VERTEX
  5
390
100
AcDbEntity
  8
LIVELLO_1
 62
     7
100
AcDbVertex
100
AcDb2dVertex
 10
8.144981
 20
5.170485
 30
0.0
  0
VERTEX
  5
391
100
AcDbEntity
  8
LIVELLO_1
 62
     7
100
AcDbVertex
100
AcDb2dVertex
 10
8.144981
 20
4.419799
 30
0.0
  0
VERTEX
  5
392
100
AcDbEntity
  8
LIVELLO_1
 62
     7
100
AcDbVertex
100
AcDb2dVertex
 10
-38.51522
 20
4.419799
 30
0.0
  0
SEQEND
  5
393
100
AcDbEntity
  8
LIVELLO_1
 62
     7
  0
POLYLINE
  5
388
100
AcDbEntity
  8
LIVELLO_1
 62
     7
100
AcDb2dPolyline
 66
     1
 10
0.0
 20
0.0
 30
0.0
 70
     1
  0
VERTEX
  5
389
100
AcDbEntity
  8
LIVELLO_1
 62
     7
100
AcDbVertex
100
AcDb2dVertex
 10
8.144981
 20
11.26417
 30
0.0
  0
VERTEX
  5
38A
100
AcDbEntity
  8
LIVELLO_1
 62
     7
100
AcDbVertex
100
AcDb2dVertex
 10
10.262337
 20
11.26417
 30
0.0
  0
VERTEX
  5
38B
100
AcDbEntity
  8
LIVELLO_1
 62
     7
100
AcDbVertex
100
AcDb2dVertex
 10
10.262337
 20
9.613281
 30
0.0
  0
VERTEX
  5
38C
100
AcDbEntity
  8
LIVELLO_1
 62
     7
100
AcDbVertex
100
AcDb2dVertex
 10
8.144981
 20
9.613281
 30
0.0
  0
SEQEND
  5
38D
100
AcDbEntity
  8
LIVELLO_1
 62
     7
  0
POLYLINE
  5
382
100
AcDbEntity
  8
LIVELLO_1
 62
     7
100
AcDb2dPolyline
 66
     1
 10
0.0
 20
0.0
 30
0.0
 70
     1
  0
VERTEX
  5
383
100
AcDbEntity
  8
LIVELLO_1
 62
     7
100
AcDbVertex
100
AcDb2dVertex
 10
-38.51522
 20
10.812863
 30
0.0
  0
VERTEX
  5
384
100
AcDbEntity
  8
LIVELLO_1
 62
     7
100
AcDbVertex
100
AcDb2dVertex
 10
8.144981
 20
10.812863
 30
0.0
  0
VERTEX
  5
385
100
AcDbEntity
  8
LIVELLO_1
 62
     7
100
AcDbVertex
100
AcDb2dVertex
 10
8.144981
 20
10.066827
 30
0.0
  0
VERTEX
  5
386
100
AcDbEntity
  8
LIVELLO_1
 62
     7
100
AcDbVertex
100
AcDb2dVertex
 10
-38.51522
 20
10.066827
 30
0.0
  0
SEQEND
  5
387
100
AcDbEntity
  8
LIVELLO_1
 62
     7
  0
POLYLINE
  5
37C
100
AcDbEntity
  8
LIVELLO_1
 62
     7
100
AcDb2dPolyline
 66
     1
 10
0.0
 20
0.0
 30
0.0
 70
     1
  0
VERTEX
  5
37D
100
AcDbEntity
  8
LIVELLO_1
 62
     7
100
AcDbVertex
100
AcDb2dVertex
 10
8.144981
 20
16.908615
 30
0.0
  0
VERTEX
  5
37E
100
AcDbEntity
  8
LIVELLO_1
 62
     7
100
AcDbVertex
100
AcDb2dVertex
 10
10.262337
 20
16.908615
 30
0.0
  0
VERTEX
  5
37F
100
AcDbEntity
  8
LIVELLO_1
 62
     7
100
AcDbVertex
100
AcDb2dVertex
 10
10.262337
 20
15.260137
 30
0.0
  0
VERTEX
  5
380
100
AcDbEntity
  8
LIVELLO_1
 62
     7
100
AcDbVertex
100
AcDb2dVertex
 10
8.144981
 20
15.260137
 30
0.0
  0
SEQEND
  5
381
100
AcDbEntity
  8
LIVELLO_1
 62
     7
  0
POLYLINE
  5
376
100
AcDbEntity
  8
LIVELLO_1
 62
     7
100
AcDb2dPolyline
 66
     1
 10
0.0
 20
0.0
 30
0.0
 70
     1
  0
VERTEX
  5
377
100
AcDbEntity
  8
LIVELLO_1
 62
     7
100
AcDbVertex
100
AcDb2dVertex
 10
-38.51522
 20
16.459891
 30
0.0
  0
VERTEX
  5
378
100
AcDbEntity
  8
LIVELLO_1
 62
     7
100
AcDbVertex
100
AcDb2dVertex
 10
8.144981
 20
16.459891
 30
0.0
  0
VERTEX
  5
379
100
AcDbEntity
  8
LIVELLO_1
 62
     7
100
AcDbVertex
100
AcDb2dVertex
 10
8.144981
 20
15.709205
 30
0.0
  0
VERTEX
  5
37A
100
AcDbEntity
  8
LIVELLO_1
 62
     7
100
AcDbVertex
100
AcDb2dVertex
 10
-38.51522
 20
15.709205
 30
0.0
  0
SEQEND
  5
37B
100
AcDbEntity
  8
LIVELLO_1
 62
     7
  0
POLYLINE
  5
370
100
AcDbEntity
  8
LIVELLO_1
 62
     7
100
AcDb2dPolyline
 66
     1
 10
0.0
 20
0.0
 30
0.0
 70
     1
  0
VERTEX
  5
371
100
AcDbEntity
  8
LIVELLO_1
 62
     7
100
AcDbVertex
100
AcDb2dVertex
 10
8.144981
 20
22.555815
 30
0.0
  0
VERTEX
  5
372
100
AcDbEntity
  8
LIVELLO_1
 62
     7
100
AcDbVertex
100
AcDb2dVertex
 10
10.262337
 20
22.555815
 30
0.0
  0
VERTEX
  5
373
100
AcDbEntity
  8
LIVELLO_1
 62
     7
100
AcDbVertex
100
AcDb2dVertex
 10
10.262337
 20
20.902686
 30
0.0
  0
VERTEX
  5
374
100
AcDbEntity
  8
LIVELLO_1
 62
     7
100
AcDbVertex
100
AcDb2dVertex
 10
8.144981
 20
20.902686
 30
0.0
  0
SEQEND
  5
375
100
AcDbEntity
  8
LIVELLO_1
 62
     7
  0
POLYLINE
  5
36A
100
AcDbEntity
  8
LIVELLO_1
 62
     7
100
AcDb2dPolyline
 66
     1
 10
0.0
 20
0.0
 30
0.0
 70
     1
  0
VERTEX
  5
36B
100
AcDbEntity
  8
LIVELLO_1
 62
     7
100
AcDbVertex
100
AcDb2dVertex
 10
-38.51522
 20
22.104508
 30
0.0
  0
VERTEX
  5
36C
100
AcDbEntity
  8
LIVELLO_1
 62
     7
100
AcDbVertex
100
AcDb2dVertex
 10
8.144981
 20
22.104508
 30
0.0
  0
VERTEX
  5
36D
100
AcDbEntity
  8
LIVELLO_1
 62
     7
100
AcDbVertex
100
AcDb2dVertex
 10
8.144981
 20
21.356233
 30
0.0
  0
VERTEX
  5
36E
100
AcDbEntity
  8
LIVELLO_1
 62
     7
100
AcDbVertex
100
AcDb2dVertex
 10
-38.51522
 20
21.356233
 30
0.0
  0
SEQEND
  5
36F
100
AcDbEntity
  8
LIVELLO_1
 62
     7
  0
POLYLINE
  5
364
100
AcDbEntity
  8
LIVELLO_1
 62
     7
100
AcDb2dPolyline
 66
     1
 10
0.0
 20
0.0
 30
0.0
 70
     1
  0
VERTEX
  5
365
100
AcDbEntity
  8
LIVELLO_1
 62
     7
100
AcDbVertex
100
AcDb2dVertex
 10
8.144981
 20
28.198193
 30
0.0
  0
VERTEX
  5
366
100
AcDbEntity
  8
LIVELLO_1
 62
     7
100
AcDbVertex
100
AcDb2dVertex
 10
10.262337
 20
28.198193
 30
0.0
  0
VERTEX
  5
367
100
AcDbEntity
  8
LIVELLO_1
 62
     7
100
AcDbVertex
100
AcDb2dVertex
 10
10.262337
 20
26.549714
 30
0.0
  0
VERTEX
  5
368
100
AcDbEntity
  8
LIVELLO_1
 62
     7
100
AcDbVertex
100
AcDb2dVertex
 10
8.144981
 20
26.549714
 30
0.0
  0
SEQEND
  5
369
100
AcDbEntity
  8
LIVELLO_1
 62
     7
  0
POLYLINE
  5
35E
100
AcDbEntity
  8
LIVELLO_1
 62
     7
100
AcDb2dPolyline
 66
     1
 10
0.0
 20
0.0
 30
0.0
 70
     1
  0
VERTEX
  5
35F
100
AcDbEntity
  8
LIVELLO_1
 62
     7
100
AcDbVertex
100
AcDb2dVertex
 10
-38.51522
 20
27.749297
 30
0.0
  0
VERTEX
  5
360
100
AcDbEntity
  8
LIVELLO_1
 62
     7
100
AcDbVertex
100
AcDb2dVertex
 10
8.144981
 20
27.749297
 30
0.0
  0
VERTEX
  5
361
100
AcDbEntity
  8
LIVELLO_1
 62
     7
100
AcDbVertex
100
AcDb2dVertex
 10
8.144981
 20
27.001022
 30
0.0
  0
VERTEX
  5
362
100
AcDbEntity
  8
LIVELLO_1
 62
     7
100
AcDbVertex
100
AcDb2dVertex
 10
-38.51522
 20
27.001022
 30
0.0
  0
SEQEND
  5
363
100
AcDbEntity
  8
LIVELLO_1
 62
     7
  0
POLYLINE
  5
358
100
AcDbEntity
  8
LIVELLO_1
 62
     7
100
AcDb2dPolyline
 66
     1
 10
0.0
 20
0.0
 30
0.0
 70
     1
  0
VERTEX
  5
359
100
AcDbEntity
  8
LIVELLO_1
 62
     7
100
AcDbVertex
100
AcDb2dVertex
 10
8.144981
 20
33.845393
 30
0.0
  0
VERTEX
  5
35A
100
AcDbEntity
  8
LIVELLO_1
 62
     7
100
AcDbVertex
100
AcDb2dVertex
 10
10.262337
 20
33.845393
 30
0.0
  0
VERTEX
  5
35B
100
AcDbEntity
  8
LIVELLO_1
 62
     7
100
AcDbVertex
100
AcDb2dVertex
 10
10.262337
 20
32.194331
 30
0.0
  0
VERTEX
  5
35C
100
AcDbEntity
  8
LIVELLO_1
 62
     7
100
AcDbVertex
100
AcDb2dVertex
 10
8.144981
 20
32.194331
 30
0.0
  0
SEQEND
  5
35D
100
AcDbEntity
  8
LIVELLO_1
 62
     7
  0
POLYLINE
  5
352
100
AcDbEntity
  8
LIVELLO_1
 62
     7
100
AcDb2dPolyline
 66
     1
 10
0.0
 20
0.0
 30
0.0
 70
     1
  0
VERTEX
  5
353
100
AcDbEntity
  8
LIVELLO_1
 62
     7
100
AcDbVertex
100
AcDb2dVertex
 10
-33.109004
 20
33.396497
 30
0.0
  0
VERTEX
  5
354
100
AcDbEntity
  8
LIVELLO_1
 62
     7
100
AcDbVertex
100
AcDb2dVertex
 10
8.144981
 20
33.396497
 30
0.0
  0
VERTEX
  5
355
100
AcDbEntity
  8
LIVELLO_1
 62
     7
100
AcDbVertex
100
AcDb2dVertex
 10
8.144981
 20
32.645983
 30
0.0
  0
VERTEX
  5
356
100
AcDbEntity
  8
LIVELLO_1
 62
     7
100
AcDbVertex
100
AcDb2dVertex
 10
-33.109004
 20
32.645983
 30
0.0
  0
SEQEND
  5
357
100
AcDbEntity
  8
LIVELLO_1
 62
     7
  0
POLYLINE
  5
34C
100
AcDbEntity
  8
LIVELLO_1
 62
     7
100
AcDb2dPolyline
 66
     1
 10
0.0
 20
0.0
 30
0.0
 70
     1
  0
VERTEX
  5
34D
100
AcDbEntity
  8
LIVELLO_1
 62
     7
100
AcDbVertex
100
AcDb2dVertex
 10
8.144981
 20
39.492594
 30
0.0
  0
VERTEX
  5
34E
100
AcDbEntity
  8
LIVELLO_1
 62
     7
100
AcDbVertex
100
AcDb2dVertex
 10
10.262337
 20
39.492594
 30
0.0
  0
VERTEX
  5
34F
100
AcDbEntity
  8
LIVELLO_1
 62
     7
100
AcDbVertex
100
AcDb2dVertex
 10
10.262337
 20
37.839292
 30
0.0
  0
VERTEX
  5
350
100
AcDbEntity
  8
LIVELLO_1
 62
     7
100
AcDbVertex
100
AcDb2dVertex
 10
8.144981
 20
37.839292
 30
0.0
  0
SEQEND
  5
351
100
AcDbEntity
  8
LIVELLO_1
 62
     7
  0
POLYLINE
  5
346
100
AcDbEntity
  8
LIVELLO_1
 62
     7
100
AcDb2dPolyline
 66
     1
 10
0.0
 20
0.0
 30
0.0
 70
     1
  0
VERTEX
  5
347
100
AcDbEntity
  8
LIVELLO_1
 62
     7
100
AcDbVertex
100
AcDb2dVertex
 10
-33.109004
 20
39.040942
 30
0.0
  0
VERTEX
  5
348
100
AcDbEntity
  8
LIVELLO_1
 62
     7
100
AcDbVertex
100
AcDb2dVertex
 10
8.144981
 20
39.040942
 30
0.0
  0
VERTEX
  5
349
100
AcDbEntity
  8
LIVELLO_1
 62
     7
100
AcDbVertex
100
AcDb2dVertex
 10
8.144981
 20
38.292667
 30
0.0
  0
VERTEX
  5
34A
100
AcDbEntity
  8
LIVELLO_1
 62
     7
100
AcDbVertex
100
AcDb2dVertex
 10
-33.109004
 20
38.292667
 30
0.0
  0
SEQEND
  5
34B
100
AcDbEntity
  8
LIVELLO_1
 62
     7
  0
LINE
  5
345
100
AcDbEntity
  8
LIVELLO_1
 62
     7
100
AcDbLine
 10
16.877609
 20
-75.141581
 30
0.0
 11
16.877609
 21
-83.382249
 31
0.0
  0
LINE
  5
344
100
AcDbEntity
  8
LIVELLO_1
 62
     7
100
AcDbLine
 10
16.877609
 20
56.503786
 30
0.0
 11
16.877609
 21
64.746349
 31
0.0
  0
SPLINE
  5
343
100
AcDbEntity
  8
LIVELLO_1
 62
     7
100
AcDbSpline
210
0.0
220
0.0
230
1.0
 70
     8
 71
     3
 72
    38
 73
    34
 74
     0
 42
0.00000001
 43
0.00000001
 40
0.0
 40
0.0
 40
0.0
 40
0.0
 40
1.0
 40
1.0
 40
1.0
 40
2.0
 40
2.0
 40
2.0
 40
3.0
 40
3.0
 40
3.0
 40
4.0
 40
4.0
 40
4.0
 40
5.0
 40
5.0
 40
5.0
 40
6.0
 40
6.0
 40
6.0
 40
7.0
 40
7.0
 40
7.0
 40
8.0
 40
8.0
 40
8.0
 40
9.0
 40
9.0
 40
9.0
 40
10.0
 40
10.0
 40
10.0
 40
11.0
 40
11.0
 40
11.0
 40
11.0
 10
16.877608913845485
 20
-75.141580539279502
 30
0.0
 10
16.877608913845485
 20
-75.141580539279502
 30
0.0
 10
17.660679117838541
 20
-75.141580539279502
 30
0.0
 10
17.660679117838541
 20
-75.141580539279502
 30
0.0
 10
17.660679117838541
 20
-75.141580539279502
 30
0.0
 10
18.058243136935761
 20
-70.851403130425339
 30
0.0
 10
18.058243136935761
 20
-70.851403130425339
 30
0.0
 10
18.058243136935761
 20
-70.851403130425339
 30
0.0
 10
17.448116726345486
 20
-70.851403130425339
 30
0.0
 10
17.448116726345486
 20
-70.851403130425339
 30
0.0
 10
17.448116726345486
 20
-70.851403130425339
 30
0.0
 10
16.877608913845485
 20
-70.851403130425339
 30
0.0
 10
16.877608913845485
 20
-70.851403130425339
 30
0.0
 10
16.877608913845485
 20
-70.851403130425339
 30
0.0
 10
8.5120557996961796
 20
-70.851403130425339
 30
0.0
 10
8.5120557996961796
 20
-70.851403130425339
 30
0.0
 10
8.5120557996961796
 20
-70.851403130425339
 30
0.0
 10
8.5120557996961796
 20
-64.739114718967002
 30
0.0
 10
8.5120557996961796
 20
-64.739114718967002
 30
0.0
 10
8.5120557996961796
 20
-64.739114718967002
 30
0.0
 10
7.1186869303385407
 20
-64.739114718967002
 30
0.0
 10
7.1186869303385407
 20
-64.739114718967002
 30
0.0
 10
7.1186869303385407
 20
-64.739114718967002
 30
0.0
 10
7.1186869303385407
 20
-70.900323486328119
 30
0.0
 10
7.1186869303385407
 20
-70.900323486328119
 30
0.0
 10
7.1186869303385407
 20
-71.419499376085056
 30
0.0
 10
7.5393330891927075
 20
-71.840145534939225
 30
0.0
 10
8.0597147623697918
 20
-71.840145534939225
 30
0.0
 10
8.0597147623697918
 20
-71.840145534939225
 30
0.0
 10
16.877608913845485
 20
-71.840145534939225
 30
0.0
 10
16.877608913845485
 20
-71.840145534939225
 30
0.0
 10
16.877608913845485
 20
-71.840145534939225
 30
0.0
 10
16.877608913845485
 20
-75.141580539279502
 30
0.0
 10
16.877608913845485
 20
-75.141580539279502
 30
0.0
  0
POLYLINE
  5
33E
100
AcDbEntity
  8
LIVELLO_1
 62
     7
100
AcDb2dPolyline
 66
     1
 10
0.0
 20
0.0
 30
0.0
  0
VERTEX
  5
33F
100
AcDbEntity
  8
LIVELLO_1
 62
     7
100
AcDbVertex
100
AcDb2dVertex
 10
2.994908
 20
-67.254723
 30
0.0
  0
VERTEX
  5
340
100
AcDbEntity
  8
LIVELLO_1
 62
     7
100
AcDbVertex
100
AcDb2dVertex
 10
-0.395755
 20
-67.254723
 30
0.0
  0
VERTEX
  5
341
100
AcDbEntity
  8
LIVELLO_1
 62
     7
100
AcDbVertex
100
AcDb2dVertex
 10
-0.395755
 20
-63.728668
 30
0.0
  0
SEQEND
  5
342
100
AcDbEntity
  8
LIVELLO_1
 62
     7
  0
POLYLINE
  5
338
100
AcDbEntity
  8
LIVELLO_1
 62
     7
100
AcDb2dPolyline
 66
     1
 10
0.0
 20
0.0
 30
0.0
 70
     1
  0
VERTEX
  5
339
100
AcDbEntity
  8
LIVELLO_1
 62
     7
100
AcDbVertex
100
AcDb2dVertex
 10
2.994908
 20
-64.739115
 30
0.0
  0
VERTEX
  5
33A
100
AcDbEntity
  8
LIVELLO_1
 62
     7
100
AcDbVertex
100
AcDb2dVertex
 10
8.514467
 20
-64.739115
 30
0.0
  0
VERTEX
  5
33B
100
AcDbEntity
  8
LIVELLO_1
 62
     7
100
AcDbVertex
100
AcDb2dVertex
 10
8.514467
 20
-67.254723
 30
0.0
  0
VERTEX
  5
33C
100
AcDbEntity
  8
LIVELLO_1
 62
     7
100
AcDbVertex
100
AcDb2dVertex
 10
2.994908
 20
-67.254723
 30
0.0
  0
SEQEND
  5
33D
100
AcDbEntity
  8
LIVELLO_1
 62
     7
  0
SPLINE
  5
337
100
AcDbEntity
  8
LIVELLO_1
 62
     7
100
AcDbSpline
210
0.0
220
0.0
230
1.0
 70
     8
 71
     3
 72
    20
 73
    16
 74
     0
 42
0.00000001
 43
0.00000001
 40
0.0
 40
0.0
 40
0.0
 40
0.0
 40
1.0
 40
1.0
 40
1.0
 40
2.0
 40
2.0
 40
2.0
 40
3.0
 40
3.0
 40
3.0
 40
4.0
 40
4.0
 40
4.0
 40
5.0
 40
5.0
 40
5.0
 40
5.0
 10
1.3860480414496525
 20
-52.373288981119785
 30
0.0
 10
1.3860480414496525
 20
-52.789801025390624
 30
0.0
 10
1.7240119086371526
 20
-53.129142930772566
 30
0.0
 10
2.1400071885850691
 20
-53.129142930772566
 30
0.0
 10
2.5542799207899303
 20
-53.129142930772566
 30
0.0
 10
2.8941385904947916
 20
-52.789801025390624
 30
0.0
 10
2.8941385904947916
 20
-52.373288981119785
 30
0.0
 10
2.8941385904947916
 20
-52.245131429036455
 30
0.0
 10
2.8602043999565971
 20
-52.121452501085066
 30
0.0
 10
2.8030158148871527
 20
-52.016032579210062
 30
0.0
 10
2.8030158148871527
 20
-52.016032579210062
 30
0.0
 10
1.4747592502170137
 20
-52.016032579210062
 30
0.0
 10
1.4747592502170137
 20
-52.016032579210062
 30
0.0
 10
1.4163648817274304
 20
-52.121452501085066
 30
0.0
 10
1.3860480414496525
 20
-52.245131429036455
 30
0.0
 10
1.3860480414496525
 20
-52.373288981119785
 30
0.0
  0
POLYLINE
  5
331
100
AcDbEntity
  8
LIVELLO_1
 62
     7
100
AcDb2dPolyline
 66
     1
 10
0.0
 20
0.0
 30
0.0
 70
     1
  0
VERTEX
  5
332
100
AcDbEntity
  8
LIVELLO_1
 62
     7
100
AcDbVertex
100
AcDb2dVertex
 10
-0.172513
 20
-58.885897
 30
0.0
  0
VERTEX
  5
333
100
AcDbEntity
  8
LIVELLO_1
 62
     7
100
AcDbVertex
100
AcDb2dVertex
 10
7.642169
 20
-59.828476
 30
0.0
  0
VERTEX
  5
334
100
AcDbEntity
  8
LIVELLO_1
 62
     7
100
AcDbVertex
100
AcDb2dVertex
 10
7.642169
 20
-57.656343
 30
0.0
  0
VERTEX
  5
335
100
AcDbEntity
  8
LIVELLO_1
 62
     7
100
AcDbVertex
100
AcDb2dVertex
 10
-0.172513
 20
-57.656343
 30
0.0
  0
SEQEND
  5
336
100
AcDbEntity
  8
LIVELLO_1
 62
     7
  0
POLYLINE
  5
32B
100
AcDbEntity
  8
LIVELLO_1
 62
     7
100
AcDb2dPolyline
 66
     1
 10
0.0
 20
0.0
 30
0.0
 70
     1
  0
VERTEX
  5
32C
100
AcDbEntity
  8
LIVELLO_1
 62
     7
100
AcDbVertex
100
AcDb2dVertex
 10
7.642169
 20
-56.910135
 30
0.0
  0
VERTEX
  5
32D
100
AcDbEntity
  8
LIVELLO_1
 62
     7
100
AcDbVertex
100
AcDb2dVertex
 10
7.642169
 20
-52.016033
 30
0.0
  0
VERTEX
  5
32E
100
AcDbEntity
  8
LIVELLO_1
 62
     7
100
AcDbVertex
100
AcDb2dVertex
 10
-0.172513
 20
-52.016033
 30
0.0
  0
VERTEX
  5
32F
100
AcDbEntity
  8
LIVELLO_1
 62
     7
100
AcDbVertex
100
AcDb2dVertex
 10
-0.172513
 20
-56.910135
 30
0.0
  0
SEQEND
  5
330
100
AcDbEntity
  8
LIVELLO_1
 62
     7
  0
POLYLINE
  5
325
100
AcDbEntity
  8
LIVELLO_1
 62
     7
100
AcDb2dPolyline
 66
     1
 10
0.0
 20
0.0
 30
0.0
 70
     1
  0
VERTEX
  5
326
100
AcDbEntity
  8
LIVELLO_1
 62
     7
100
AcDbVertex
100
AcDb2dVertex
 10
7.642169
 20
-51.265002
 30
0.0
  0
VERTEX
  5
327
100
AcDbEntity
  8
LIVELLO_1
 62
     7
100
AcDbVertex
100
AcDb2dVertex
 10
7.642169
 20
-46.370899
 30
0.0
  0
VERTEX
  5
328
100
AcDbEntity
  8
LIVELLO_1
 62
     7
100
AcDbVertex
100
AcDb2dVertex
 10
-0.172513
 20
-46.370899
 30
0.0
  0
VERTEX
  5
329
100
AcDbEntity
  8
LIVELLO_1
 62
     7
100
AcDbVertex
100
AcDb2dVertex
 10
-0.172513
 20
-51.265002
 30
0.0
  0
SEQEND
  5
32A
100
AcDbEntity
  8
LIVELLO_1
 62
     7
  0
POLYLINE
  5
320
100
AcDbEntity
  8
LIVELLO_1
 62
     7
100
AcDb2dPolyline
 66
     1
 10
0.0
 20
0.0
 30
0.0
 70
     1
  0
VERTEX
  5
321
100
AcDbEntity
  8
LIVELLO_1
 62
     7
100
AcDbVertex
100
AcDb2dVertex
 10
7.642169
 20
-45.620213
 30
0.0
  0
VERTEX
  5
322
100
AcDbEntity
  8
LIVELLO_1
 62
     7
100
AcDbVertex
100
AcDb2dVertex
 10
7.642169
 20
-44.919136
 30
0.0
  0
VERTEX
  5
323
100
AcDbEntity
  8
LIVELLO_1
 62
     7
100
AcDbVertex
100
AcDb2dVertex
 10
1.792914
 20
-45.620213
 30
0.0
  0
SEQEND
  5
324
100
AcDbEntity
  8
LIVELLO_1
 62
     7
  0
SPLINE
  5
31F
100
AcDbEntity
  8
LIVELLO_1
 62
     7
100
AcDbSpline
210
0.0
220
0.0
230
1.0
 70
     8
 71
     3
 72
    20
 73
    16
 74
     0
 42
0.00000001
 43
0.00000001
 40
0.0
 40
0.0
 40
0.0
 40
0.0
 40
1.0
 40
1.0
 40
1.0
 40
2.0
 40
2.0
 40
2.0
 40
3.0
 40
3.0
 40
3.0
 40
4.0
 40
4.0
 40
4.0
 40
5.0
 40
5.0
 40
5.0
 40
5.0
 10
1.3860480414496525
 20
33.735494656032984
 30
0.0
 10
1.3860480414496525
 20
34.151662190755204
 30
0.0
 10
1.7240119086371526
 20
34.488420274522568
 30
0.0
 10
2.1400071885850691
 20
34.488420274522568
 30
0.0
 10
2.5542799207899303
 20
34.488420274522568
 30
0.0
 10
2.8941385904947916
 20
34.151662190755204
 30
0.0
 10
2.8941385904947916
 20
33.735494656032984
 30
0.0
 10
2.8941385904947916
 20
33.604408772786456
 30
0.0
 10
2.8602043999565971
 20
33.482969156901042
 30
0.0
 10
2.8030158148871527
 20
33.375309922960064
 30
0.0
 10
2.8030158148871527
 20
33.375309922960064
 30
0.0
 10
1.4747592502170137
 20
33.375309922960064
 30
0.0
 10
1.4747592502170137
 20
33.375309922960064
 30
0.0
 10
1.4163648817274304
 20
33.482969156901042
 30
0.0
 10
1.3860480414496525
 20
33.604408772786456
 30
0.0
 10
1.3860480414496525
 20
33.735494656032984
 30
0.0
  0
POLYLINE
  5
319
100
AcDbEntity
  8
LIVELLO_1
 62
     7
100
AcDb2dPolyline
 66
     1
 10
0.0
 20
0.0
 30
0.0
 70
     1
  0
VERTEX
  5
31A
100
AcDbEntity
  8
LIVELLO_1
 62
     7
100
AcDbVertex
100
AcDb2dVertex
 10
-0.172513
 20
40.249998
 30
0.0
  0
VERTEX
  5
31B
100
AcDbEntity
  8
LIVELLO_1
 62
     7
100
AcDbVertex
100
AcDb2dVertex
 10
7.642169
 20
41.189992
 30
0.0
  0
VERTEX
  5
31C
100
AcDbEntity
  8
LIVELLO_1
 62
     7
100
AcDbVertex
100
AcDb2dVertex
 10
7.642169
 20
39.020271
 30
0.0
  0
VERTEX
  5
31D
100
AcDbEntity
  8
LIVELLO_1
 62
     7
100
AcDbVertex
100
AcDb2dVertex
 10
-0.172513
 20
39.020271
 30
0.0
  0
SEQEND
  5
31E
100
AcDbEntity
  8
LIVELLO_1
 62
     7
  0
POLYLINE
  5
313
100
AcDbEntity
  8
LIVELLO_1
 62
     7
100
AcDb2dPolyline
 66
     1
 10
0.0
 20
0.0
 30
0.0
 70
     1
  0
VERTEX
  5
314
100
AcDbEntity
  8
LIVELLO_1
 62
     7
100
AcDbVertex
100
AcDb2dVertex
 10
7.642169
 20
38.26924
 30
0.0
  0
VERTEX
  5
315
100
AcDbEntity
  8
LIVELLO_1
 62
     7
100
AcDbVertex
100
AcDb2dVertex
 10
7.642169
 20
33.37531
 30
0.0
  0
VERTEX
  5
316
100
AcDbEntity
  8
LIVELLO_1
 62
     7
100
AcDbVertex
100
AcDb2dVertex
 10
-0.172513
 20
33.37531
 30
0.0
  0
VERTEX
  5
317
100
AcDbEntity
  8
LIVELLO_1
 62
     7
100
AcDbVertex
100
AcDb2dVertex
 10
-0.172513
 20
38.26924
 30
0.0
  0
SEQEND
  5
318
100
AcDbEntity
  8
LIVELLO_1
 62
     7
  0
POLYLINE
  5
30D
100
AcDbEntity
  8
LIVELLO_1
 62
     7
100
AcDb2dPolyline
 66
     1
 10
0.0
 20
0.0
 30
0.0
 70
     1
  0
VERTEX
  5
30E
100
AcDbEntity
  8
LIVELLO_1
 62
     7
100
AcDbVertex
100
AcDb2dVertex
 10
7.642169
 20
32.627035
 30
0.0
  0
VERTEX
  5
30F
100
AcDbEntity
  8
LIVELLO_1
 62
     7
100
AcDbVertex
100
AcDb2dVertex
 10
7.642169
 20
27.732933
 30
0.0
  0
VERTEX
  5
310
100
AcDbEntity
  8
LIVELLO_1
 62
     7
100
AcDbVertex
100
AcDb2dVertex
 10
-0.172513
 20
27.732933
 30
0.0
  0
VERTEX
  5
311
100
AcDbEntity
  8
LIVELLO_1
 62
     7
100
AcDbVertex
100
AcDb2dVertex
 10
-0.172513
 20
32.627035
 30
0.0
  0
SEQEND
  5
312
100
AcDbEntity
  8
LIVELLO_1
 62
     7
  0
POLYLINE
  5
308
100
AcDbEntity
  8
LIVELLO_1
 62
     7
100
AcDb2dPolyline
 66
     1
 10
0.0
 20
0.0
 30
0.0
 70
     1
  0
VERTEX
  5
309
100
AcDbEntity
  8
LIVELLO_1
 62
     7
100
AcDbVertex
100
AcDb2dVertex
 10
7.642169
 20
26.984658
 30
0.0
  0
VERTEX
  5
30A
100
AcDbEntity
  8
LIVELLO_1
 62
     7
100
AcDbVertex
100
AcDb2dVertex
 10
7.642169
 20
26.280997
 30
0.0
  0
VERTEX
  5
30B
100
AcDbEntity
  8
LIVELLO_1
 62
     7
100
AcDbVertex
100
AcDb2dVertex
 10
1.792914
 20
26.984658
 30
0.0
  0
SEQEND
  5
30C
100
AcDbEntity
  8
LIVELLO_1
 62
     7
  0
SPLINE
  5
307
100
AcDbEntity
  8
LIVELLO_1
 62
     7
100
AcDbSpline
210
0.0
220
0.0
230
1.0
 70
     8
 71
     3
 72
    23
 73
    19
 74
     0
 42
0.00000001
 43
0.00000001
 40
0.0
 40
0.0
 40
0.0
 40
0.0
 40
1.0
 40
1.0
 40
1.0
 40
2.0
 40
2.0
 40
2.0
 40
3.0
 40
3.0
 40
3.0
 40
4.0
 40
4.0
 40
4.0
 40
5.0
 40
5.0
 40
5.0
 40
6.0
 40
6.0
 40
6.0
 40
6.0
 10
9.3046000162760407
 20
45.747509087456592
 30
0.0
 10
9.3046000162760407
 20
45.747509087456592
 30
0.0
 10
9.3046000162760407
 20
39.469167073567704
 30
0.0
 10
9.3046000162760407
 20
39.469167073567704
 30
0.0
 10
9.3046000162760407
 20
39.469167073567704
 30
0.0
 10
8.1263773600260407
 20
39.469167073567704
 30
0.0
 10
8.1263773600260407
 20
39.469167073567704
 30
0.0
 10
8.1263773600260407
 20
39.469167073567704
 30
0.0
 10
8.1263773600260407
 20
39.020271131727426
 30
0.0
 10
8.1263773600260407
 20
39.020271131727426
 30
0.0
 10
8.1263773600260407
 20
39.020271131727426
 30
0.0
 10
7.6421691894531243
 20
39.020271131727426
 30
0.0
 10
7.6421691894531243
 20
39.020271131727426
 30
0.0
 10
7.6421691894531243
 20
39.020271131727426
 30
0.0
 10
7.6421691894531243
 20
43.902315945095481
 30
0.0
 10
7.6421691894531243
 20
43.902315945095481
 30
0.0
 10
8.3392842610677071
 20
44.117634412977424
 30
0.0
 10
8.87361857096354
 20
44.625096978081594
 30
0.0
 10
9.3046000162760407
 20
45.747509087456592
 30
0.0
  0
POLYLINE
  5
2FD
100
AcDbEntity
  8
LIVELLO_1
 62
     7
100
AcDb2dPolyline
 66
     1
 10
0.0
 20
0.0
 30
0.0
 70
     1
  0
VERTEX
  5
2FE
100
AcDbEntity
  8
LIVELLO_1
 62
     7
100
AcDbVertex
100
AcDb2dVertex
 10
9.3046
 20
37.820517
 30
0.0
  0
VERTEX
  5
2FF
100
AcDbEntity
  8
LIVELLO_1
 62
     7
100
AcDbVertex
100
AcDb2dVertex
 10
9.3046
 20
33.82679
 30
0.0
  0
VERTEX
  5
300
100
AcDbEntity
  8
LIVELLO_1
 62
     7
100
AcDbVertex
100
AcDb2dVertex
 10
8.126377
 20
33.82679
 30
0.0
  0
VERTEX
  5
301
100
AcDbEntity
  8
LIVELLO_1
 62
     7
100
AcDbVertex
100
AcDb2dVertex
 10
8.126377
 20
33.37531
 30
0.0
  0
VERTEX
  5
302
100
AcDbEntity
  8
LIVELLO_1
 62
     7
100
AcDbVertex
100
AcDb2dVertex
 10
7.642169
 20
33.37531
 30
0.0
  0
VERTEX
  5
303
100
AcDbEntity
  8
LIVELLO_1
 62
     7
100
AcDbVertex
100
AcDb2dVertex
 10
7.642169
 20
38.26924
 30
0.0
  0
VERTEX
  5
304
100
AcDbEntity
  8
LIVELLO_1
 62
     7
100
AcDbVertex
100
AcDb2dVertex
 10
8.126377
 20
38.26924
 30
0.0
  0
VERTEX
  5
305
100
AcDbEntity
  8
LIVELLO_1
 62
     7
100
AcDbVertex
100
AcDb2dVertex
 10
8.126377
 20
37.820517
 30
0.0
  0
SEQEND
  5
306
100
AcDbEntity
  8
LIVELLO_1
 62
     7
  0
POLYLINE
  5
2F3
100
AcDbEntity
  8
LIVELLO_1
 62
     7
100
AcDb2dPolyline
 66
     1
 10
0.0
 20
0.0
 30
0.0
 70
     1
  0
VERTEX
  5
2F4
100
AcDbEntity
  8
LIVELLO_1
 62
     7
100
AcDbVertex
100
AcDb2dVertex
 10
9.3046
 20
32.175728
 30
0.0
  0
VERTEX
  5
2F5
100
AcDbEntity
  8
LIVELLO_1
 62
     7
100
AcDbVertex
100
AcDb2dVertex
 10
9.3046
 20
28.184068
 30
0.0
  0
VERTEX
  5
2F6
100
AcDbEntity
  8
LIVELLO_1
 62
     7
100
AcDbVertex
100
AcDb2dVertex
 10
8.126377
 20
28.184068
 30
0.0
  0
VERTEX
  5
2F7
100
AcDbEntity
  8
LIVELLO_1
 62
     7
100
AcDbVertex
100
AcDb2dVertex
 10
8.126377
 20
27.732933
 30
0.0
  0
VERTEX
  5
2F8
100
AcDbEntity
  8
LIVELLO_1
 62
     7
100
AcDbVertex
100
AcDb2dVertex
 10
7.642169
 20
27.732933
 30
0.0
  0
VERTEX
  5
2F9
100
AcDbEntity
  8
LIVELLO_1
 62
     7
100
AcDbVertex
100
AcDb2dVertex
 10
7.642169
 20
32.627035
 30
0.0
  0
VERTEX
  5
2FA
100
AcDbEntity
  8
LIVELLO_1
 62
     7
100
AcDbVertex
100
AcDb2dVertex
 10
8.126377
 20
32.627035
 30
0.0
  0
VERTEX
  5
2FB
100
AcDbEntity
  8
LIVELLO_1
 62
     7
100
AcDbVertex
100
AcDb2dVertex
 10
8.126377
 20
32.175728
 30
0.0
  0
SEQEND
  5
2FC
100
AcDbEntity
  8
LIVELLO_1
 62
     7
  0
POLYLINE
  5
2E9
100
AcDbEntity
  8
LIVELLO_1
 62
     7
100
AcDb2dPolyline
 66
     1
 10
0.0
 20
0.0
 30
0.0
 70
     1
  0
VERTEX
  5
2EA
100
AcDbEntity
  8
LIVELLO_1
 62
     7
100
AcDbVertex
100
AcDb2dVertex
 10
9.3046
 20
26.53335
 30
0.0
  0
VERTEX
  5
2EB
100
AcDbEntity
  8
LIVELLO_1
 62
     7
100
AcDbVertex
100
AcDb2dVertex
 10
9.3046
 20
22.54169
 30
0.0
  0
VERTEX
  5
2EC
100
AcDbEntity
  8
LIVELLO_1
 62
     7
100
AcDbVertex
100
AcDb2dVertex
 10
8.126377
 20
22.54169
 30
0.0
  0
VERTEX
  5
2ED
100
AcDbEntity
  8
LIVELLO_1
 62
     7
100
AcDbVertex
100
AcDb2dVertex
 10
8.126377
 20
22.090383
 30
0.0
  0
VERTEX
  5
2EE
100
AcDbEntity
  8
LIVELLO_1
 62
     7
100
AcDbVertex
100
AcDb2dVertex
 10
7.642169
 20
22.090383
 30
0.0
  0
VERTEX
  5
2EF
100
AcDbEntity
  8
LIVELLO_1
 62
     7
100
AcDbVertex
100
AcDb2dVertex
 10
7.642169
 20
26.984658
 30
0.0
  0
VERTEX
  5
2F0
100
AcDbEntity
  8
LIVELLO_1
 62
     7
100
AcDbVertex
100
AcDb2dVertex
 10
8.126377
 20
26.984658
 30
0.0
  0
VERTEX
  5
2F1
100
AcDbEntity
  8
LIVELLO_1
 62
     7
100
AcDbVertex
100
AcDb2dVertex
 10
8.126377
 20
26.53335
 30
0.0
  0
SEQEND
  5
2F2
100
AcDbEntity
  8
LIVELLO_1
 62
     7
  0
POLYLINE
  5
2DF
100
AcDbEntity
  8
LIVELLO_1
 62
     7
100
AcDb2dPolyline
 66
     1
 10
0.0
 20
0.0
 30
0.0
 70
     1
  0
VERTEX
  5
2E0
100
AcDbEntity
  8
LIVELLO_1
 62
     7
100
AcDbVertex
100
AcDb2dVertex
 10
9.3046
 20
20.890973
 30
0.0
  0
VERTEX
  5
2E1
100
AcDbEntity
  8
LIVELLO_1
 62
     7
100
AcDbVertex
100
AcDb2dVertex
 10
9.3046
 20
16.899313
 30
0.0
  0
VERTEX
  5
2E2
100
AcDbEntity
  8
LIVELLO_1
 62
     7
100
AcDbVertex
100
AcDb2dVertex
 10
8.126377
 20
16.899313
 30
0.0
  0
VERTEX
  5
2E3
100
AcDbEntity
  8
LIVELLO_1
 62
     7
100
AcDbVertex
100
AcDb2dVertex
 10
8.126377
 20
16.448006
 30
0.0
  0
VERTEX
  5
2E4
100
AcDbEntity
  8
LIVELLO_1
 62
     7
100
AcDbVertex
100
AcDb2dVertex
 10
7.642169
 20
16.448006
 30
0.0
  0
VERTEX
  5
2E5
100
AcDbEntity
  8
LIVELLO_1
 62
     7
100
AcDbVertex
100
AcDb2dVertex
 10
7.642169
 20
21.34228
 30
0.0
  0
VERTEX
  5
2E6
100
AcDbEntity
  8
LIVELLO_1
 62
     7
100
AcDbVertex
100
AcDb2dVertex
 10
8.126377
 20
21.34228
 30
0.0
  0
VERTEX
  5
2E7
100
AcDbEntity
  8
LIVELLO_1
 62
     7
100
AcDbVertex
100
AcDb2dVertex
 10
8.126377
 20
20.890973
 30
0.0
  0
SEQEND
  5
2E8
100
AcDbEntity
  8
LIVELLO_1
 62
     7
  0
POLYLINE
  5
2D5
100
AcDbEntity
  8
LIVELLO_1
 62
     7
100
AcDb2dPolyline
 66
     1
 10
0.0
 20
0.0
 30
0.0
 70
     1
  0
VERTEX
  5
2D6
100
AcDbEntity
  8
LIVELLO_1
 62
     7
100
AcDbVertex
100
AcDb2dVertex
 10
9.3046
 20
15.248596
 30
0.0
  0
VERTEX
  5
2D7
100
AcDbEntity
  8
LIVELLO_1
 62
     7
100
AcDbVertex
100
AcDb2dVertex
 10
9.3046
 20
11.257108
 30
0.0
  0
VERTEX
  5
2D8
100
AcDbEntity
  8
LIVELLO_1
 62
     7
100
AcDbVertex
100
AcDb2dVertex
 10
8.126377
 20
11.257108
 30
0.0
  0
VERTEX
  5
2D9
100
AcDbEntity
  8
LIVELLO_1
 62
     7
100
AcDbVertex
100
AcDb2dVertex
 10
8.126377
 20
10.8058
 30
0.0
  0
VERTEX
  5
2DA
100
AcDbEntity
  8
LIVELLO_1
 62
     7
100
AcDbVertex
100
AcDb2dVertex
 10
7.642169
 20
10.8058
 30
0.0
  0
VERTEX
  5
2DB
100
AcDbEntity
  8
LIVELLO_1
 62
     7
100
AcDbVertex
100
AcDb2dVertex
 10
7.642169
 20
15.699731
 30
0.0
  0
VERTEX
  5
2DC
100
AcDbEntity
  8
LIVELLO_1
 62
     7
100
AcDbVertex
100
AcDb2dVertex
 10
8.126377
 20
15.699731
 30
0.0
  0
VERTEX
  5
2DD
100
AcDbEntity
  8
LIVELLO_1
 62
     7
100
AcDbVertex
100
AcDb2dVertex
 10
8.126377
 20
15.248596
 30
0.0
  0
SEQEND
  5
2DE
100
AcDbEntity
  8
LIVELLO_1
 62
     7
  0
POLYLINE
  5
2CB
100
AcDbEntity
  8
LIVELLO_1
 62
     7
100
AcDb2dPolyline
 66
     1
 10
0.0
 20
0.0
 30
0.0
 70
     1
  0
VERTEX
  5
2CC
100
AcDbEntity
  8
LIVELLO_1
 62
     7
100
AcDbVertex
100
AcDb2dVertex
 10
9.3046
 20
9.60639
 30
0.0
  0
VERTEX
  5
2CD
100
AcDbEntity
  8
LIVELLO_1
 62
     7
100
AcDbVertex
100
AcDb2dVertex
 10
9.3046
 20
5.612319
 30
0.0
  0
VERTEX
  5
2CE
100
AcDbEntity
  8
LIVELLO_1
 62
     7
100
AcDbVertex
100
AcDb2dVertex
 10
8.126377
 20
5.612319
 30
0.0
  0
VERTEX
  5
2CF
100
AcDbEntity
  8
LIVELLO_1
 62
     7
100
AcDbVertex
100
AcDb2dVertex
 10
8.126377
 20
5.163423
 30
0.0
  0
VERTEX
  5
2D0
100
AcDbEntity
  8
LIVELLO_1
 62
     7
100
AcDbVertex
100
AcDb2dVertex
 10
7.642169
 20
5.163423
 30
0.0
  0
VERTEX
  5
2D1
100
AcDbEntity
  8
LIVELLO_1
 62
     7
100
AcDbVertex
100
AcDb2dVertex
 10
7.642169
 20
10.057526
 30
0.0
  0
VERTEX
  5
2D2
100
AcDbEntity
  8
LIVELLO_1
 62
     7
100
AcDbVertex
100
AcDb2dVertex
 10
8.126377
 20
10.057526
 30
0.0
  0
VERTEX
  5
2D3
100
AcDbEntity
  8
LIVELLO_1
 62
     7
100
AcDbVertex
100
AcDb2dVertex
 10
8.126377
 20
9.60639
 30
0.0
  0
SEQEND
  5
2D4
100
AcDbEntity
  8
LIVELLO_1
 62
     7
  0
POLYLINE
  5
2C1
100
AcDbEntity
  8
LIVELLO_1
 62
     7
100
AcDb2dPolyline
 66
     1
 10
0.0
 20
0.0
 30
0.0
 70
     1
  0
VERTEX
  5
2C2
100
AcDbEntity
  8
LIVELLO_1
 62
     7
100
AcDbVertex
100
AcDb2dVertex
 10
9.3046
 20
3.961429
 30
0.0
  0
VERTEX
  5
2C3
100
AcDbEntity
  8
LIVELLO_1
 62
     7
100
AcDbVertex
100
AcDb2dVertex
 10
9.3046
 20
-0.030058
 30
0.0
  0
VERTEX
  5
2C4
100
AcDbEntity
  8
LIVELLO_1
 62
     7
100
AcDbVertex
100
AcDb2dVertex
 10
8.126377
 20
-0.030058
 30
0.0
  0
VERTEX
  5
2C5
100
AcDbEntity
  8
LIVELLO_1
 62
     7
100
AcDbVertex
100
AcDb2dVertex
 10
8.126377
 20
-0.481538
 30
0.0
  0
VERTEX
  5
2C6
100
AcDbEntity
  8
LIVELLO_1
 62
     7
100
AcDbVertex
100
AcDb2dVertex
 10
7.642169
 20
-0.481538
 30
0.0
  0
VERTEX
  5
2C7
100
AcDbEntity
  8
LIVELLO_1
 62
     7
100
AcDbVertex
100
AcDb2dVertex
 10
7.642169
 20
4.412737
 30
0.0
  0
VERTEX
  5
2C8
100
AcDbEntity
  8
LIVELLO_1
 62
     7
100
AcDbVertex
100
AcDb2dVertex
 10
8.126377
 20
4.412737
 30
0.0
  0
VERTEX
  5
2C9
100
AcDbEntity
  8
LIVELLO_1
 62
     7
100
AcDbVertex
100
AcDb2dVertex
 10
8.126377
 20
3.961429
 30
0.0
  0
SEQEND
  5
2CA
100
AcDbEntity
  8
LIVELLO_1
 62
     7
  0
POLYLINE
  5
2B7
100
AcDbEntity
  8
LIVELLO_1
 62
     7
100
AcDb2dPolyline
 66
     1
 10
0.0
 20
0.0
 30
0.0
 70
     1
  0
VERTEX
  5
2B8
100
AcDbEntity
  8
LIVELLO_1
 62
     7
100
AcDbVertex
100
AcDb2dVertex
 10
9.3046
 20
-1.680948
 30
0.0
  0
VERTEX
  5
2B9
100
AcDbEntity
  8
LIVELLO_1
 62
     7
100
AcDbVertex
100
AcDb2dVertex
 10
9.3046
 20
-5.672264
 30
0.0
  0
VERTEX
  5
2BA
100
AcDbEntity
  8
LIVELLO_1
 62
     7
100
AcDbVertex
100
AcDb2dVertex
 10
8.126377
 20
-5.672264
 30
0.0
  0
VERTEX
  5
2BB
100
AcDbEntity
  8
LIVELLO_1
 62
     7
100
AcDbVertex
100
AcDb2dVertex
 10
8.126377
 20
-6.123916
 30
0.0
  0
VERTEX
  5
2BC
100
AcDbEntity
  8
LIVELLO_1
 62
     7
100
AcDbVertex
100
AcDb2dVertex
 10
7.642169
 20
-6.123916
 30
0.0
  0
VERTEX
  5
2BD
100
AcDbEntity
  8
LIVELLO_1
 62
     7
100
AcDbVertex
100
AcDb2dVertex
 10
7.642169
 20
-1.229813
 30
0.0
  0
VERTEX
  5
2BE
100
AcDbEntity
  8
LIVELLO_1
 62
     7
100
AcDbVertex
100
AcDb2dVertex
 10
8.126377
 20
-1.229813
 30
0.0
  0
VERTEX
  5
2BF
100
AcDbEntity
  8
LIVELLO_1
 62
     7
100
AcDbVertex
100
AcDb2dVertex
 10
8.126377
 20
-1.680948
 30
0.0
  0
SEQEND
  5
2C0
100
AcDbEntity
  8
LIVELLO_1
 62
     7
  0
POLYLINE
  5
2AD
100
AcDbEntity
  8
LIVELLO_1
 62
     7
100
AcDb2dPolyline
 66
     1
 10
0.0
 20
0.0
 30
0.0
 70
     1
  0
VERTEX
  5
2AE
100
AcDbEntity
  8
LIVELLO_1
 62
     7
100
AcDbVertex
100
AcDb2dVertex
 10
9.3046
 20
-7.323326
 30
0.0
  0
VERTEX
  5
2AF
100
AcDbEntity
  8
LIVELLO_1
 62
     7
100
AcDbVertex
100
AcDb2dVertex
 10
9.3046
 20
-11.314985
 30
0.0
  0
VERTEX
  5
2B0
100
AcDbEntity
  8
LIVELLO_1
 62
     7
100
AcDbVertex
100
AcDb2dVertex
 10
8.126377
 20
-11.314985
 30
0.0
  0
VERTEX
  5
2B1
100
AcDbEntity
  8
LIVELLO_1
 62
     7
100
AcDbVertex
100
AcDb2dVertex
 10
8.126377
 20
-11.766121
 30
0.0
  0
VERTEX
  5
2B2
100
AcDbEntity
  8
LIVELLO_1
 62
     7
100
AcDbVertex
100
AcDb2dVertex
 10
7.642169
 20
-11.766121
 30
0.0
  0
VERTEX
  5
2B3
100
AcDbEntity
  8
LIVELLO_1
 62
     7
100
AcDbVertex
100
AcDb2dVertex
 10
7.642169
 20
-6.87219
 30
0.0
  0
VERTEX
  5
2B4
100
AcDbEntity
  8
LIVELLO_1
 62
     7
100
AcDbVertex
100
AcDb2dVertex
 10
8.126377
 20
-6.87219
 30
0.0
  0
VERTEX
  5
2B5
100
AcDbEntity
  8
LIVELLO_1
 62
     7
100
AcDbVertex
100
AcDb2dVertex
 10
8.126377
 20
-7.323326
 30
0.0
  0
SEQEND
  5
2B6
100
AcDbEntity
  8
LIVELLO_1
 62
     7
  0
POLYLINE
  5
2A3
100
AcDbEntity
  8
LIVELLO_1
 62
     7
100
AcDb2dPolyline
 66
     1
 10
0.0
 20
0.0
 30
0.0
 70
     1
  0
VERTEX
  5
2A4
100
AcDbEntity
  8
LIVELLO_1
 62
     7
100
AcDbVertex
100
AcDb2dVertex
 10
9.3046
 20
-12.965875
 30
0.0
  0
VERTEX
  5
2A5
100
AcDbEntity
  8
LIVELLO_1
 62
     7
100
AcDbVertex
100
AcDb2dVertex
 10
9.3046
 20
-16.957535
 30
0.0
  0
VERTEX
  5
2A6
100
AcDbEntity
  8
LIVELLO_1
 62
     7
100
AcDbVertex
100
AcDb2dVertex
 10
8.126377
 20
-16.957535
 30
0.0
  0
VERTEX
  5
2A7
100
AcDbEntity
  8
LIVELLO_1
 62
     7
100
AcDbVertex
100
AcDb2dVertex
 10
8.126377
 20
-17.408498
 30
0.0
  0
VERTEX
  5
2A8
100
AcDbEntity
  8
LIVELLO_1
 62
     7
100
AcDbVertex
100
AcDb2dVertex
 10
7.642169
 20
-17.408498
 30
0.0
  0
VERTEX
  5
2A9
100
AcDbEntity
  8
LIVELLO_1
 62
     7
100
AcDbVertex
100
AcDb2dVertex
 10
7.642169
 20
-12.514395
 30
0.0
  0
VERTEX
  5
2AA
100
AcDbEntity
  8
LIVELLO_1
 62
     7
100
AcDbVertex
100
AcDb2dVertex
 10
8.126377
 20
-12.514395
 30
0.0
  0
VERTEX
  5
2AB
100
AcDbEntity
  8
LIVELLO_1
 62
     7
100
AcDbVertex
100
AcDb2dVertex
 10
8.126377
 20
-12.965875
 30
0.0
  0
SEQEND
  5
2AC
100
AcDbEntity
  8
LIVELLO_1
 62
     7
  0
POLYLINE
  5
299
100
AcDbEntity
  8
LIVELLO_1
 62
     7
100
AcDb2dPolyline
 66
     1
 10
0.0
 20
0.0
 30
0.0
 70
     1
  0
VERTEX
  5
29A
100
AcDbEntity
  8
LIVELLO_1
 62
     7
100
AcDbVertex
100
AcDb2dVertex
 10
9.3046
 20
-18.60808
 30
0.0
  0
VERTEX
  5
29B
100
AcDbEntity
  8
LIVELLO_1
 62
     7
100
AcDbVertex
100
AcDb2dVertex
 10
9.3046
 20
-22.601807
 30
0.0
  0
VERTEX
  5
29C
100
AcDbEntity
  8
LIVELLO_1
 62
     7
100
AcDbVertex
100
AcDb2dVertex
 10
8.126377
 20
-22.601807
 30
0.0
  0
VERTEX
  5
29D
100
AcDbEntity
  8
LIVELLO_1
 62
     7
100
AcDbVertex
100
AcDb2dVertex
 10
8.126377
 20
-23.051048
 30
0.0
  0
VERTEX
  5
29E
100
AcDbEntity
  8
LIVELLO_1
 62
     7
100
AcDbVertex
100
AcDb2dVertex
 10
7.642169
 20
-23.051048
 30
0.0
  0
VERTEX
  5
29F
100
AcDbEntity
  8
LIVELLO_1
 62
     7
100
AcDbVertex
100
AcDb2dVertex
 10
7.642169
 20
-18.156945
 30
0.0
  0
VERTEX
  5
2A0
100
AcDbEntity
  8
LIVELLO_1
 62
     7
100
AcDbVertex
100
AcDb2dVertex
 10
8.126377
 20
-18.156945
 30
0.0
  0
VERTEX
  5
2A1
100
AcDbEntity
  8
LIVELLO_1
 62
     7
100
AcDbVertex
100
AcDb2dVertex
 10
8.126377
 20
-18.60808
 30
0.0
  0
SEQEND
  5
2A2
100
AcDbEntity
  8
LIVELLO_1
 62
     7
  0
POLYLINE
  5
28F
100
AcDbEntity
  8
LIVELLO_1
 62
     7
100
AcDb2dPolyline
 66
     1
 10
0.0
 20
0.0
 30
0.0
 70
     1
  0
VERTEX
  5
290
100
AcDbEntity
  8
LIVELLO_1
 62
     7
100
AcDbVertex
100
AcDb2dVertex
 10
9.3046
 20
-24.25063
 30
0.0
  0
VERTEX
  5
291
100
AcDbEntity
  8
LIVELLO_1
 62
     7
100
AcDbVertex
100
AcDb2dVertex
 10
9.3046
 20
-28.242118
 30
0.0
  0
VERTEX
  5
292
100
AcDbEntity
  8
LIVELLO_1
 62
     7
100
AcDbVertex
100
AcDb2dVertex
 10
8.126377
 20
-28.242118
 30
0.0
  0
VERTEX
  5
293
100
AcDbEntity
  8
LIVELLO_1
 62
     7
100
AcDbVertex
100
AcDb2dVertex
 10
8.126377
 20
-28.695837
 30
0.0
  0
VERTEX
  5
294
100
AcDbEntity
  8
LIVELLO_1
 62
     7
100
AcDbVertex
100
AcDb2dVertex
 10
7.642169
 20
-28.695837
 30
0.0
  0
VERTEX
  5
295
100
AcDbEntity
  8
LIVELLO_1
 62
     7
100
AcDbVertex
100
AcDb2dVertex
 10
7.642169
 20
-23.80139
 30
0.0
  0
VERTEX
  5
296
100
AcDbEntity
  8
LIVELLO_1
 62
     7
100
AcDbVertex
100
AcDb2dVertex
 10
8.126377
 20
-23.80139
 30
0.0
  0
VERTEX
  5
297
100
AcDbEntity
  8
LIVELLO_1
 62
     7
100
AcDbVertex
100
AcDb2dVertex
 10
8.126377
 20
-24.25063
 30
0.0
  0
SEQEND
  5
298
100
AcDbEntity
  8
LIVELLO_1
 62
     7
  0
POLYLINE
  5
285
100
AcDbEntity
  8
LIVELLO_1
 62
     7
100
AcDb2dPolyline
 66
     1
 10
0.0
 20
0.0
 30
0.0
 70
     1
  0
VERTEX
  5
286
100
AcDbEntity
  8
LIVELLO_1
 62
     7
100
AcDbVertex
100
AcDb2dVertex
 10
9.3046
 20
-29.895074
 30
0.0
  0
VERTEX
  5
287
100
AcDbEntity
  8
LIVELLO_1
 62
     7
100
AcDbVertex
100
AcDb2dVertex
 10
9.3046
 20
-33.886562
 30
0.0
  0
VERTEX
  5
288
100
AcDbEntity
  8
LIVELLO_1
 62
     7
100
AcDbVertex
100
AcDb2dVertex
 10
8.126377
 20
-33.886562
 30
0.0
  0
VERTEX
  5
289
100
AcDbEntity
  8
LIVELLO_1
 62
     7
100
AcDbVertex
100
AcDb2dVertex
 10
8.126377
 20
-34.335803
 30
0.0
  0
VERTEX
  5
28A
100
AcDbEntity
  8
LIVELLO_1
 62
     7
100
AcDbVertex
100
AcDb2dVertex
 10
7.642169
 20
-34.335803
 30
0.0
  0
VERTEX
  5
28B
100
AcDbEntity
  8
LIVELLO_1
 62
     7
100
AcDbVertex
100
AcDb2dVertex
 10
7.642169
 20
-29.441355
 30
0.0
  0
VERTEX
  5
28C
100
AcDbEntity
  8
LIVELLO_1
 62
     7
100
AcDbVertex
100
AcDb2dVertex
 10
8.126377
 20
-29.441355
 30
0.0
  0
VERTEX
  5
28D
100
AcDbEntity
  8
LIVELLO_1
 62
     7
100
AcDbVertex
100
AcDb2dVertex
 10
8.126377
 20
-29.895074
 30
0.0
  0
SEQEND
  5
28E
100
AcDbEntity
  8
LIVELLO_1
 62
     7
  0
POLYLINE
  5
27B
100
AcDbEntity
  8
LIVELLO_1
 62
     7
100
AcDb2dPolyline
 66
     1
 10
0.0
 20
0.0
 30
0.0
 70
     1
  0
VERTEX
  5
27C
100
AcDbEntity
  8
LIVELLO_1
 62
     7
100
AcDbVertex
100
AcDb2dVertex
 10
9.3046
 20
-35.535385
 30
0.0
  0
VERTEX
  5
27D
100
AcDbEntity
  8
LIVELLO_1
 62
     7
100
AcDbVertex
100
AcDb2dVertex
 10
9.3046
 20
-39.526872
 30
0.0
  0
VERTEX
  5
27E
100
AcDbEntity
  8
LIVELLO_1
 62
     7
100
AcDbVertex
100
AcDb2dVertex
 10
8.126377
 20
-39.526872
 30
0.0
  0
VERTEX
  5
27F
100
AcDbEntity
  8
LIVELLO_1
 62
     7
100
AcDbVertex
100
AcDb2dVertex
 10
8.126377
 20
-39.980591
 30
0.0
  0
VERTEX
  5
280
100
AcDbEntity
  8
LIVELLO_1
 62
     7
100
AcDbVertex
100
AcDb2dVertex
 10
7.642169
 20
-39.980591
 30
0.0
  0
VERTEX
  5
281
100
AcDbEntity
  8
LIVELLO_1
 62
     7
100
AcDbVertex
100
AcDb2dVertex
 10
7.642169
 20
-35.086489
 30
0.0
  0
VERTEX
  5
282
100
AcDbEntity
  8
LIVELLO_1
 62
     7
100
AcDbVertex
100
AcDb2dVertex
 10
8.126377
 20
-35.086489
 30
0.0
  0
VERTEX
  5
283
100
AcDbEntity
  8
LIVELLO_1
 62
     7
100
AcDbVertex
100
AcDb2dVertex
 10
8.126377
 20
-35.535385
 30
0.0
  0
SEQEND
  5
284
100
AcDbEntity
  8
LIVELLO_1
 62
     7
  0
POLYLINE
  5
271
100
AcDbEntity
  8
LIVELLO_1
 62
     7
100
AcDb2dPolyline
 66
     1
 10
0.0
 20
0.0
 30
0.0
 70
     1
  0
VERTEX
  5
272
100
AcDbEntity
  8
LIVELLO_1
 62
     7
100
AcDbVertex
100
AcDb2dVertex
 10
9.3046
 20
-41.180174
 30
0.0
  0
VERTEX
  5
273
100
AcDbEntity
  8
LIVELLO_1
 62
     7
100
AcDbVertex
100
AcDb2dVertex
 10
9.3046
 20
-45.171661
 30
0.0
  0
VERTEX
  5
274
100
AcDbEntity
  8
LIVELLO_1
 62
     7
100
AcDbVertex
100
AcDb2dVertex
 10
8.126377
 20
-45.171661
 30
0.0
  0
VERTEX
  5
275
100
AcDbEntity
  8
LIVELLO_1
 62
     7
100
AcDbVertex
100
AcDb2dVertex
 10
8.126377
 20
-45.620213
 30
0.0
  0
VERTEX
  5
276
100
AcDbEntity
  8
LIVELLO_1
 62
     7
100
AcDbVertex
100
AcDb2dVertex
 10
7.642169
 20
-45.620213
 30
0.0
  0
VERTEX
  5
277
100
AcDbEntity
  8
LIVELLO_1
 62
     7
100
AcDbVertex
100
AcDb2dVertex
 10
7.642169
 20
-40.726455
 30
0.0
  0
VERTEX
  5
278
100
AcDbEntity
  8
LIVELLO_1
 62
     7
100
AcDbVertex
100
AcDb2dVertex
 10
8.126377
 20
-40.726455
 30
0.0
  0
VERTEX
  5
279
100
AcDbEntity
  8
LIVELLO_1
 62
     7
100
AcDbVertex
100
AcDb2dVertex
 10
8.126377
 20
-41.180174
 30
0.0
  0
SEQEND
  5
27A
100
AcDbEntity
  8
LIVELLO_1
 62
     7
  0
POLYLINE
  5
267
100
AcDbEntity
  8
LIVELLO_1
 62
     7
100
AcDb2dPolyline
 66
     1
 10
0.0
 20
0.0
 30
0.0
 70
     1
  0
VERTEX
  5
268
100
AcDbEntity
  8
LIVELLO_1
 62
     7
100
AcDbVertex
100
AcDb2dVertex
 10
9.3046
 20
-46.822551
 30
0.0
  0
VERTEX
  5
269
100
AcDbEntity
  8
LIVELLO_1
 62
     7
100
AcDbVertex
100
AcDb2dVertex
 10
9.3046
 20
-50.816106
 30
0.0
  0
VERTEX
  5
26A
100
AcDbEntity
  8
LIVELLO_1
 62
     7
100
AcDbVertex
100
AcDb2dVertex
 10
8.126377
 20
-50.816106
 30
0.0
  0
VERTEX
  5
26B
100
AcDbEntity
  8
LIVELLO_1
 62
     7
100
AcDbVertex
100
AcDb2dVertex
 10
8.126377
 20
-51.265002
 30
0.0
  0
VERTEX
  5
26C
100
AcDbEntity
  8
LIVELLO_1
 62
     7
100
AcDbVertex
100
AcDb2dVertex
 10
7.642169
 20
-51.265002
 30
0.0
  0
VERTEX
  5
26D
100
AcDbEntity
  8
LIVELLO_1
 62
     7
100
AcDbVertex
100
AcDb2dVertex
 10
7.642169
 20
-46.370899
 30
0.0
  0
VERTEX
  5
26E
100
AcDbEntity
  8
LIVELLO_1
 62
     7
100
AcDbVertex
100
AcDb2dVertex
 10
8.126377
 20
-46.370899
 30
0.0
  0
VERTEX
  5
26F
100
AcDbEntity
  8
LIVELLO_1
 62
     7
100
AcDbVertex
100
AcDb2dVertex
 10
8.126377
 20
-46.822551
 30
0.0
  0
SEQEND
  5
270
100
AcDbEntity
  8
LIVELLO_1
 62
     7
  0
POLYLINE
  5
25D
100
AcDbEntity
  8
LIVELLO_1
 62
     7
100
AcDb2dPolyline
 66
     1
 10
0.0
 20
0.0
 30
0.0
 70
     1
  0
VERTEX
  5
25E
100
AcDbEntity
  8
LIVELLO_1
 62
     7
100
AcDbVertex
100
AcDb2dVertex
 10
9.3046
 20
-52.465273
 30
0.0
  0
VERTEX
  5
25F
100
AcDbEntity
  8
LIVELLO_1
 62
     7
100
AcDbVertex
100
AcDb2dVertex
 10
9.3046
 20
-56.456416
 30
0.0
  0
VERTEX
  5
260
100
AcDbEntity
  8
LIVELLO_1
 62
     7
100
AcDbVertex
100
AcDb2dVertex
 10
8.126377
 20
-56.456416
 30
0.0
  0
VERTEX
  5
261
100
AcDbEntity
  8
LIVELLO_1
 62
     7
100
AcDbVertex
100
AcDb2dVertex
 10
8.126377
 20
-56.910135
 30
0.0
  0
VERTEX
  5
262
100
AcDbEntity
  8
LIVELLO_1
 62
     7
100
AcDbVertex
100
AcDb2dVertex
 10
7.642169
 20
-56.910135
 30
0.0
  0
VERTEX
  5
263
100
AcDbEntity
  8
LIVELLO_1
 62
     7
100
AcDbVertex
100
AcDb2dVertex
 10
7.642169
 20
-52.016033
 30
0.0
  0
VERTEX
  5
264
100
AcDbEntity
  8
LIVELLO_1
 62
     7
100
AcDbVertex
100
AcDb2dVertex
 10
8.126377
 20
-52.016033
 30
0.0
  0
VERTEX
  5
265
100
AcDbEntity
  8
LIVELLO_1
 62
     7
100
AcDbVertex
100
AcDb2dVertex
 10
8.126377
 20
-52.465273
 30
0.0
  0
SEQEND
  5
266
100
AcDbEntity
  8
LIVELLO_1
 62
     7
  0
SPLINE
  5
25C
100
AcDbEntity
  8
LIVELLO_1
 62
     7
100
AcDbSpline
210
0.0
220
0.0
230
1.0
 70
     8
 71
     3
 72
    23
 73
    19
 74
     0
 42
0.00000001
 43
0.00000001
 40
0.0
 40
0.0
 40
0.0
 40
0.0
 40
1.0
 40
1.0
 40
1.0
 40
2.0
 40
2.0
 40
2.0
 40
3.0
 40
3.0
 40
3.0
 40
4.0
 40
4.0
 40
4.0
 40
5.0
 40
5.0
 40
5.0
 40
6.0
 40
6.0
 40
6.0
 40
6.0
 10
9.3046000162760407
 20
-58.109717475043396
 30
0.0
 10
9.3046000162760407
 20
-58.109717475043396
 30
0.0
 10
9.3046000162760407
 20
-64.388059488932285
 30
0.0
 10
9.3046000162760407
 20
-64.388059488932285
 30
0.0
 10
8.87361857096354
 20
-63.263235812717006
 30
0.0
 10
8.3392842610677071
 20
-62.753706190321175
 30
0.0
 10
7.6421691894531243
 20
-62.543210856119785
 30
0.0
 10
7.6421691894531243
 20
-62.543210856119785
 30
0.0
 10
7.6421691894531243
 20
-57.656342909071178
 30
0.0
 10
7.6421691894531243
 20
-57.656342909071178
 30
0.0
 10
7.6421691894531243
 20
-57.656342909071178
 30
0.0
 10
8.1263773600260407
 20
-57.656342909071178
 30
0.0
 10
8.1263773600260407
 20
-57.656342909071178
 30
0.0
 10
8.1263773600260407
 20
-57.656342909071178
 30
0.0
 10
8.1263773600260407
 20
-58.109717475043396
 30
0.0
 10
8.1263773600260407
 20
-58.109717475043396
 30
0.0
 10
8.1263773600260407
 20
-58.109717475043396
 30
0.0
 10
9.3046000162760407
 20
-58.109717475043396
 30
0.0
 10
9.3046000162760407
 20
-58.109717475043396
 30
0.0
  0
INSERT
  5
251
100
AcDbEntity
  8
LIVELLO_1
 62
     7
100
AcDbBlockReference
  2
AI9-BLK2
 10
-23.858578
 20
-10.022902
 30
0.0
  0
SPLINE
  5
24F
100
AcDbEntity
  8
LIVELLO_1
 62
     7
100
AcDbSpline
210
0.0
220
0.0
230
1.0
 70
     8
 71
     3
 72
    14
 73
    10
 74
     0
 42
0.00000001
 43
0.00000001
 40
0.0
 40
0.0
 40
0.0
 40
0.0
 40
1.0
 40
1.0
 40
1.0
 40
2.0
 40
2.0
 40
2.0
 40
3.0
 40
3.0
 40
3.0
 40
3.0
 10
-40.622068277994785
 20
36.235083685980896
 30
0.0
 10
-40.622068277994785
 20
42.366147867838535
 30
0.0
 10
-36.529983859592008
 20
38.613233100043402
 30
0.0
 10
-35.074431016710065
 20
42.366147867838535
 30
0.0
 10
-35.074431016710065
 20
42.366147867838535
 30
0.0
 10
-35.074431016710065
 20
30.106431070963538
 30
0.0
 10
-35.074431016710065
 20
30.106431070963538
 30
0.0
 10
-36.954419623480902
 20
34.759721544053818
 30
0.0
 10
-40.622068277994785
 20
30.106431070963538
 30
0.0
 10
-40.622068277994785
 20
36.235083685980896
 30
0.0
  0
POLYLINE
  5
249
100
AcDbEntity
  8
LIVELLO_1
 62
     7
100
AcDb2dPolyline
 66
     1
 10
0.0
 20
0.0
 30
0.0
 70
     1
  0
VERTEX
  5
24A
100
AcDbEntity
  8
LIVELLO_1
 62
     7
100
AcDbVertex
100
AcDb2dVertex
 10
-40.622068
 20
42.366148
 30
0.0
  0
VERTEX
  5
24B
100
AcDbEntity
  8
LIVELLO_1
 62
     7
100
AcDbVertex
100
AcDb2dVertex
 10
-35.07667
 20
42.366148
 30
0.0
  0
VERTEX
  5
24C
100
AcDbEntity
  8
LIVELLO_1
 62
     7
100
AcDbVertex
100
AcDb2dVertex
 10
-35.07667
 20
30.106431
 30
0.0
  0
VERTEX
  5
24D
100
AcDbEntity
  8
LIVELLO_1
 62
     7
100
AcDbVertex
100
AcDb2dVertex
 10
-40.622068
 20
30.106431
 30
0.0
  0
SEQEND
  5
24E
100
AcDbEntity
  8
LIVELLO_1
 62
     7
  0
SPLINE
  5
248
100
AcDbEntity
  8
LIVELLO_1
 62
     7
100
AcDbSpline
210
0.0
220
0.0
230
1.0
 70
     8
 71
     3
 72
    20
 73
    16
 74
     0
 42
0.00000001
 43
0.00000001
 40
0.0
 40
0.0
 40
0.0
 40
0.0
 40
1.0
 40
1.0
 40
1.0
 40
2.0
 40
2.0
 40
2.0
 40
3.0
 40
3.0
 40
3.0
 40
4.0
 40
4.0
 40
4.0
 40
5.0
 40
5.0
 40
5.0
 40
5.0
 10
-38.343482123480896
 20
-61.072499593098954
 30
0.0
 10
-38.343482123480896
 20
-61.072499593098954
 30
0.0
 10
-38.081482611762148
 20
-61.769097900390619
 30
0.0
 10
-38.081482611762148
 20
-61.769097900390619
 30
0.0
 10
-38.081482611762148
 20
-61.769097900390619
 30
0.0
 10
8.2771002875434014
 20
-64.025635443793391
 30
0.0
 10
8.2771002875434014
 20
-64.025635443793391
 30
0.0
 10
8.2771002875434014
 20
-64.025635443793391
 30
0.0
 10
8.3227478027343746
 20
-62.898744710286451
 30
0.0
 10
8.3227478027343746
 20
-62.898744710286451
 30
0.0
 10
7.8247592502170136
 20
-62.512549506293396
 30
0.0
 10
7.2239345974392357
 20
-62.419187418619785
 30
0.0
 10
6.4835835774739579
 20
-62.419187418619785
 30
0.0
 10
6.4835835774739579
 20
-62.419187418619785
 30
0.0
 10
-38.343482123480896
 20
-61.072499593098954
 30
0.0
 10
-38.343482123480896
 20
-61.072499593098954
 30
0.0
  0
SPLINE
  5
247
100
AcDbEntity
  8
LIVELLO_1
 62
     7
100
AcDbSpline
210
0.0
220
0.0
230
1.0
 70
     8
 71
     3
 72
    20
 73
    16
 74
     0
 42
0.00000001
 43
0.00000001
 40
0.0
 40
0.0
 40
0.0
 40
0.0
 40
1.0
 40
1.0
 40
1.0
 40
2.0
 40
2.0
 40
2.0
 40
3.0
 40
3.0
 40
3.0
 40
4.0
 40
4.0
 40
4.0
 40
5.0
 40
5.0
 40
5.0
 40
5.0
 10
-38.343482123480896
 20
42.434016248914929
 30
0.0
 10
-38.343482123480896
 20
42.434016248914929
 30
0.0
 10
-38.081482611762148
 20
43.128547498914926
 30
0.0
 10
-38.081482611762148
 20
43.128547498914926
 30
0.0
 10
-38.081482611762148
 20
43.128547498914926
 30
0.0
 10
8.2771002875434014
 20
45.387496609157985
 30
0.0
 10
8.2771002875434014
 20
45.387496609157985
 30
0.0
 10
8.2771002875434014
 20
45.387496609157985
 30
0.0
 10
8.3227478027343746
 20
44.258022054036452
 30
0.0
 10
8.3227478027343746
 20
44.258022054036452
 30
0.0
 10
7.8247592502170136
 20
43.874582926432289
 30
0.0
 10
7.2239345974392357
 20
43.778637017144092
 30
0.0
 10
6.4835835774739579
 20
43.778637017144092
 30
0.0
 10
6.4835835774739579
 20
43.778637017144092
 30
0.0
 10
-38.343482123480896
 20
42.434016248914929
 30
0.0
 10
-38.343482123480896
 20
42.434016248914929
 30
0.0
  0
SPLINE
  5
246
100
AcDbEntity
  8
LIVELLO_1
 62
     7
100
AcDbSpline
210
0.0
220
0.0
230
1.0
 70
     8
 71
     3
 72
    23
 73
    19
 74
     0
 42
0.00000001
 43
0.00000001
 40
0.0
 40
0.0
 40
0.0
 40
0.0
 40
1.0
 40
1.0
 40
1.0
 40
2.0
 40
2.0
 40
2.0
 40
3.0
 40
3.0
 40
3.0
 40
4.0
 40
4.0
 40
4.0
 40
5.0
 40
5.0
 40
5.0
 40
6.0
 40
6.0
 40
6.0
 40
6.0
 10
10.255446370442707
 20
50.365659586588535
 30
0.0
 10
10.255446370442707
 20
50.365659586588535
 30
0.0
 10
10.255446370442707
 20
-69.008621554904508
 30
0.0
 10
10.255446370442707
 20
-69.008621554904508
 30
0.0
 10
9.5478237575954861
 20
-63.178830973307285
 30
0.0
 10
8.5645935058593743
 20
-62.419187418619785
 30
0.0
 10
6.4835835774739579
 20
-62.419187418619785
 30
0.0
 10
6.4835835774739579
 20
-62.419187418619785
 30
0.0
 10
-40.622068277994785
 20
-61.007042778862839
 30
0.0
 10
-40.622068277994785
 20
-61.007042778862839
 30
0.0
 10
-40.622068277994785
 20
-61.007042778862839
 30
0.0
 10
-40.622068277994785
 20
42.366147867838535
 30
0.0
 10
-40.622068277994785
 20
42.366147867838535
 30
0.0
 10
-40.622068277994785
 20
42.366147867838535
 30
0.0
 10
6.4835835774739579
 20
43.778637017144092
 30
0.0
 10
6.4835835774739579
 20
43.778637017144092
 30
0.0
 10
8.5645935058593743
 20
43.778637017144092
 30
0.0
 10
9.5478237575954861
 20
44.538625081380204
 30
0.0
 10
10.255446370442707
 20
50.365659586588535
 30
0.0
  0
POLYLINE
  5
240
100
AcDbEntity
  8
LIVELLO_1
 62
     7
100
AcDb2dPolyline
 66
     1
 10
0.0
 20
0.0
 30
0.0
 70
     1
  0
VERTEX
  5
241
100
AcDbEntity
  8
LIVELLO_1
 62
     7
100
AcDbVertex
100
AcDb2dVertex
 10
-49.21672
 20
50.36566
 30
0.0
  0
VERTEX
  5
242
100
AcDbEntity
  8
LIVELLO_1
 62
     7
100
AcDbVertex
100
AcDb2dVertex
 10
11.473288
 20
50.36566
 30
0.0
  0
VERTEX
  5
243
100
AcDbEntity
  8
LIVELLO_1
 62
     7
100
AcDbVertex
100
AcDb2dVertex
 10
11.473288
 20
-69.008622
 30
0.0
  0
VERTEX
  5
244
100
AcDbEntity
  8
LIVELLO_1
 62
     7
100
AcDbVertex
100
AcDb2dVertex
 10
-49.21672
 20
-69.008622
 30
0.0
  0
SEQEND
  5
245
100
AcDbEntity
  8
LIVELLO_1
 62
     7
  0
SPLINE
  5
23F
100
AcDbEntity
  8
LIVELLO_1
 62
     7
100
AcDbSpline
210
0.0
220
0.0
230
1.0
 70
     8
 71
     3
 72
    23
 73
    19
 74
     0
 42
0.00000001
 43
0.00000001
 40
0.0
 40
0.0
 40
0.0
 40
0.0
 40
1.0
 40
1.0
 40
1.0
 40
2.0
 40
2.0
 40
2.0
 40
3.0
 40
3.0
 40
3.0
 40
4.0
 40
4.0
 40
4.0
 40
5.0
 40
5.0
 40
5.0
 40
6.0
 40
6.0
 40
6.0
 40
6.0
 10
11.473287624782985
 20
52.229456244574649
 30
0.0
 10
11.473287624782985
 20
52.229456244574649
 30
0.0
 10
17.17664320203993
 20
51.773325602213539
 30
0.0
 10
17.17664320203993
 20
51.773325602213539
 30
0.0
 10
17.69478556315104
 20
51.773325602213539
 30
0.0
 10
18.117843288845485
 20
51.350095621744785
 30
0.0
 10
18.117843288845485
 20
50.831091986762146
 30
0.0
 10
18.117843288845485
 20
50.831091986762146
 30
0.0
 10
18.117843288845485
 20
-69.471297878689228
 30
0.0
 10
18.117843288845485
 20
-69.471297878689228
 30
0.0
 10
18.117843288845485
 20
-69.992885335286445
 30
0.0
 10
17.69478556315104
 20
-70.413876003689225
 30
0.0
 10
17.17664320203993
 20
-70.413876003689225
 30
0.0
 10
17.17664320203993
 20
-70.413876003689225
 30
0.0
 10
11.473287624782985
 20
-70.872073703342011
 30
0.0
 10
11.473287624782985
 20
-70.872073703342011
 30
0.0
 10
11.473287624782985
 20
-70.872073703342011
 30
0.0
 10
11.473287624782985
 20
52.229456244574649
 30
0.0
 10
11.473287624782985
 20
52.229456244574649
 30
0.0
  0
POLYLINE
  5
23A
100
AcDbEntity
  8
LIVELLO_1
 62
     7
100
AcDb2dPolyline
 66
     1
 10
0.0
 20
0.0
 30
0.0
  0
VERTEX
  5
23B
100
AcDbEntity
  8
LIVELLO_1
 62
     7
100
AcDbVertex
100
AcDb2dVertex
 10
3.013511
 20
48.630709
 30
0.0
  0
VERTEX
  5
23C
100
AcDbEntity
  8
LIVELLO_1
 62
     7
100
AcDbVertex
100
AcDb2dVertex
 10
-0.371295
 20
48.630709
 30
0.0
  0
VERTEX
  5
23D
100
AcDbEntity
  8
LIVELLO_1
 62
     7
100
AcDbVertex
100
AcDb2dVertex
 10
-0.371295
 20
45.104482
 30
0.0
  0
SEQEND
  5
23E
100
AcDbEntity
  8
LIVELLO_1
 62
     7
  0
POLYLINE
  5
234
100
AcDbEntity
  8
LIVELLO_1
 62
     7
100
AcDb2dPolyline
 66
     1
 10
0.0
 20
0.0
 30
0.0
 70
     1
  0
VERTEX
  5
235
100
AcDbEntity
  8
LIVELLO_1
 62
     7
100
AcDbVertex
100
AcDb2dVertex
 10
3.013511
 20
48.630709
 30
0.0
  0
VERTEX
  5
236
100
AcDbEntity
  8
LIVELLO_1
 62
     7
100
AcDbVertex
100
AcDb2dVertex
 10
8.526008
 20
48.630709
 30
0.0
  0
VERTEX
  5
237
100
AcDbEntity
  8
LIVELLO_1
 62
     7
100
AcDbVertex
100
AcDb2dVertex
 10
8.526008
 20
46.114756
 30
0.0
  0
VERTEX
  5
238
100
AcDbEntity
  8
LIVELLO_1
 62
     7
100
AcDbVertex
100
AcDb2dVertex
 10
3.013511
 20
46.114756
 30
0.0
  0
SEQEND
  5
239
100
AcDbEntity
  8
LIVELLO_1
 62
     7
  0
SPLINE
  5
233
100
AcDbEntity
  8
LIVELLO_1
 62
     7
100
AcDbSpline
210
0.0
220
0.0
230
1.0
 70
     8
 71
     3
 72
    38
 73
    34
 74
     0
 42
0.00000001
 43
0.00000001
 40
0.0
 40
0.0
 40
0.0
 40
0.0
 40
1.0
 40
1.0
 40
1.0
 40
2.0
 40
2.0
 40
2.0
 40
3.0
 40
3.0
 40
3.0
 40
4.0
 40
4.0
 40
4.0
 40
5.0
 40
5.0
 40
5.0
 40
6.0
 40
6.0
 40
6.0
 40
7.0
 40
7.0
 40
7.0
 40
8.0
 40
8.0
 40
8.0
 40
9.0
 40
9.0
 40
9.0
 40
10.0
 40
10.0
 40
10.0
 40
11.0
 40
11.0
 40
11.0
 40
11.0
 10
16.877608913845485
 20
56.520150417751729
 30
0.0
 10
16.877608913845485
 20
56.520150417751729
 30
0.0
 10
17.658612060546872
 20
56.520150417751729
 30
0.0
 10
17.658612060546872
 20
56.520150417751729
 30
0.0
 10
17.658612060546872
 20
56.520150417751729
 30
0.0
 10
18.055831570095485
 20
52.229456244574649
 30
0.0
 10
18.055831570095485
 20
52.229456244574649
 30
0.0
 10
18.055831570095485
 20
52.229456244574649
 30
0.0
 10
17.448116726345486
 20
52.229456244574649
 30
0.0
 10
17.448116726345486
 20
52.229456244574649
 30
0.0
 10
17.448116726345486
 20
52.229456244574649
 30
0.0
 10
16.877608913845485
 20
52.229456244574649
 30
0.0
 10
16.877608913845485
 20
52.229456244574649
 30
0.0
 10
16.877608913845485
 20
52.229456244574649
 30
0.0
 10
8.5239413791232632
 20
52.229456244574649
 30
0.0
 10
8.5239413791232632
 20
52.229456244574649
 30
0.0
 10
8.5239413791232632
 20
52.229456244574649
 30
0.0
 10
8.5239413791232632
 20
46.114756266276039
 30
0.0
 10
8.5239413791232632
 20
46.114756266276039
 30
0.0
 10
8.5239413791232632
 20
46.114756266276039
 30
0.0
 10
7.1302280002170129
 20
46.114756266276039
 30
0.0
 10
7.1302280002170129
 20
46.114756266276039
 30
0.0
 10
7.1302280002170129
 20
46.114756266276039
 30
0.0
 10
7.1302280002170129
 20
52.278548855251728
 30
0.0
 10
7.1302280002170129
 20
52.278548855251728
 30
0.0
 10
7.1302280002170129
 20
52.797380235460068
 30
0.0
 10
7.5534579806857636
 20
53.218543158637146
 30
0.0
 10
8.0712558322482639
 20
53.218543158637146
 30
0.0
 10
8.0712558322482639
 20
53.218543158637146
 30
0.0
 10
16.877608913845485
 20
53.218543158637146
 30
0.0
 10
16.877608913845485
 20
53.218543158637146
 30
0.0
 10
16.877608913845485
 20
53.218543158637146
 30
0.0
 10
16.877608913845485
 20
56.520150417751729
 30
0.0
 10
16.877608913845485
 20
56.520150417751729
 30
0.0
  0
POLYLINE
  5
22D
100
AcDbEntity
  8
LIVELLO_1
 62
     7
100
AcDb2dPolyline
 66
     1
 10
0.0
 20
0.0
 30
0.0
 70
     1
  0
VERTEX
  5
22E
100
AcDbEntity
  8
LIVELLO_1
 62
     7
100
AcDbVertex
100
AcDb2dVertex
 10
8.144981
 20
-56.479843
 30
0.0
  0
VERTEX
  5
22F
100
AcDbEntity
  8
LIVELLO_1
 62
     7
100
AcDbVertex
100
AcDb2dVertex
 10
10.262337
 20
-56.479843
 30
0.0
  0
VERTEX
  5
230
100
AcDbEntity
  8
LIVELLO_1
 62
     7
100
AcDbVertex
100
AcDb2dVertex
 10
10.262337
 20
-58.130733
 30
0.0
  0
VERTEX
  5
231
100
AcDbEntity
  8
LIVELLO_1
 62
     7
100
AcDbVertex
100
AcDb2dVertex
 10
8.144981
 20
-58.130733
 30
0.0
  0
SEQEND
  5
232
100
AcDbEntity
  8
LIVELLO_1
 62
     7
  0
POLYLINE
  5
227
100
AcDbEntity
  8
LIVELLO_1
 62
     7
100
AcDb2dPolyline
 66
     1
 10
0.0
 20
0.0
 30
0.0
 70
     1
  0
VERTEX
  5
228
100
AcDbEntity
  8
LIVELLO_1
 62
     7
100
AcDbVertex
100
AcDb2dVertex
 10
-38.51522
 20
-56.93115
 30
0.0
  0
VERTEX
  5
229
100
AcDbEntity
  8
LIVELLO_1
 62
     7
100
AcDbVertex
100
AcDb2dVertex
 10
8.144981
 20
-56.93115
 30
0.0
  0
VERTEX
  5
22A
100
AcDbEntity
  8
LIVELLO_1
 62
     7
100
AcDbVertex
100
AcDb2dVertex
 10
8.144981
 20
-57.676669
 30
0.0
  0
VERTEX
  5
22B
100
AcDbEntity
  8
LIVELLO_1
 62
     7
100
AcDbVertex
100
AcDb2dVertex
 10
-38.51522
 20
-57.676669
 30
0.0
  0
SEQEND
  5
22C
100
AcDbEntity
  8
LIVELLO_1
 62
     7
  0
POLYLINE
  5
221
100
AcDbEntity
  8
LIVELLO_1
 62
     7
100
AcDb2dPolyline
 66
     1
 10
0.0
 20
0.0
 30
0.0
 70
     1
  0
VERTEX
  5
222
100
AcDbEntity
  8
LIVELLO_1
 62
     7
100
AcDbVertex
100
AcDb2dVertex
 10
8.144981
 20
-50.835398
 30
0.0
  0
VERTEX
  5
223
100
AcDbEntity
  8
LIVELLO_1
 62
     7
100
AcDbVertex
100
AcDb2dVertex
 10
10.262337
 20
-50.835398
 30
0.0
  0
VERTEX
  5
224
100
AcDbEntity
  8
LIVELLO_1
 62
     7
100
AcDbVertex
100
AcDb2dVertex
 10
10.262337
 20
-52.483532
 30
0.0
  0
VERTEX
  5
225
100
AcDbEntity
  8
LIVELLO_1
 62
     7
100
AcDbVertex
100
AcDb2dVertex
 10
8.144981
 20
-52.483532
 30
0.0
  0
SEQEND
  5
226
100
AcDbEntity
  8
LIVELLO_1
 62
     7
  0
POLYLINE
  5
21B
100
AcDbEntity
  8
LIVELLO_1
 62
     7
100
AcDb2dPolyline
 66
     1
 10
0.0
 20
0.0
 30
0.0
 70
     1
  0
VERTEX
  5
21C
100
AcDbEntity
  8
LIVELLO_1
 62
     7
100
AcDbVertex
100
AcDb2dVertex
 10
-38.51522
 20
-51.28395
 30
0.0
  0
VERTEX
  5
21D
100
AcDbEntity
  8
LIVELLO_1
 62
     7
100
AcDbVertex
100
AcDb2dVertex
 10
8.144981
 20
-51.28395
 30
0.0
  0
VERTEX
  5
21E
100
AcDbEntity
  8
LIVELLO_1
 62
     7
100
AcDbVertex
100
AcDb2dVertex
 10
8.144981
 20
-52.034636
 30
0.0
  0
VERTEX
  5
21F
100
AcDbEntity
  8
LIVELLO_1
 62
     7
100
AcDbVertex
100
AcDb2dVertex
 10
-38.51522
 20
-52.034636
 30
0.0
  0
SEQEND
  5
220
100
AcDbEntity
  8
LIVELLO_1
 62
     7
  0
POLYLINE
  5
215
100
AcDbEntity
  8
LIVELLO_1
 62
     7
100
AcDb2dPolyline
 66
     1
 10
0.0
 20
0.0
 30
0.0
 70
     1
  0
VERTEX
  5
216
100
AcDbEntity
  8
LIVELLO_1
 62
     7
100
AcDbVertex
100
AcDb2dVertex
 10
8.144981
 20
-45.187853
 30
0.0
  0
VERTEX
  5
217
100
AcDbEntity
  8
LIVELLO_1
 62
     7
100
AcDbVertex
100
AcDb2dVertex
 10
10.262337
 20
-45.187853
 30
0.0
  0
VERTEX
  5
218
100
AcDbEntity
  8
LIVELLO_1
 62
     7
100
AcDbVertex
100
AcDb2dVertex
 10
10.262337
 20
-46.839088
 30
0.0
  0
VERTEX
  5
219
100
AcDbEntity
  8
LIVELLO_1
 62
     7
100
AcDbVertex
100
AcDb2dVertex
 10
8.144981
 20
-46.839088
 30
0.0
  0
SEQEND
  5
21A
100
AcDbEntity
  8
LIVELLO_1
 62
     7
  0
POLYLINE
  5
20F
100
AcDbEntity
  8
LIVELLO_1
 62
     7
100
AcDb2dPolyline
 66
     1
 10
0.0
 20
0.0
 30
0.0
 70
     1
  0
VERTEX
  5
210
100
AcDbEntity
  8
LIVELLO_1
 62
     7
100
AcDbVertex
100
AcDb2dVertex
 10
-38.51522
 20
-45.639161
 30
0.0
  0
VERTEX
  5
211
100
AcDbEntity
  8
LIVELLO_1
 62
     7
100
AcDbVertex
100
AcDb2dVertex
 10
8.144981
 20
-45.639161
 30
0.0
  0
VERTEX
  5
212
100
AcDbEntity
  8
LIVELLO_1
 62
     7
100
AcDbVertex
100
AcDb2dVertex
 10
8.144981
 20
-46.387436
 30
0.0
  0
VERTEX
  5
213
100
AcDbEntity
  8
LIVELLO_1
 62
     7
100
AcDbVertex
100
AcDb2dVertex
 10
-38.51522
 20
-46.387436
 30
0.0
  0
SEQEND
  5
214
100
AcDbEntity
  8
LIVELLO_1
 62
     7
  0
POLYLINE
  5
209
100
AcDbEntity
  8
LIVELLO_1
 62
     7
100
AcDb2dPolyline
 66
     1
 10
0.0
 20
0.0
 30
0.0
 70
     1
  0
VERTEX
  5
20A
100
AcDbEntity
  8
LIVELLO_1
 62
     7
100
AcDbVertex
100
AcDb2dVertex
 10
8.144981
 20
-39.545476
 30
0.0
  0
VERTEX
  5
20B
100
AcDbEntity
  8
LIVELLO_1
 62
     7
100
AcDbVertex
100
AcDb2dVertex
 10
10.262337
 20
-39.545476
 30
0.0
  0
VERTEX
  5
20C
100
AcDbEntity
  8
LIVELLO_1
 62
     7
100
AcDbVertex
100
AcDb2dVertex
 10
10.262337
 20
-41.193954
 30
0.0
  0
VERTEX
  5
20D
100
AcDbEntity
  8
LIVELLO_1
 62
     7
100
AcDbVertex
100
AcDb2dVertex
 10
8.144981
 20
-41.193954
 30
0.0
  0
SEQEND
  5
20E
100
AcDbEntity
  8
LIVELLO_1
 62
     7
  0
POLYLINE
  5
203
100
AcDbEntity
  8
LIVELLO_1
 62
     7
100
AcDb2dPolyline
 66
     1
 10
0.0
 20
0.0
 30
0.0
 70
     1
  0
VERTEX
  5
204
100
AcDbEntity
  8
LIVELLO_1
 62
     7
100
AcDbVertex
100
AcDb2dVertex
 10
-38.51522
 20
-39.994372
 30
0.0
  0
VERTEX
  5
205
100
AcDbEntity
  8
LIVELLO_1
 62
     7
100
AcDbVertex
100
AcDb2dVertex
 10
8.144981
 20
-39.994372
 30
0.0
  0
VERTEX
  5
206
100
AcDbEntity
  8
LIVELLO_1
 62
     7
100
AcDbVertex
100
AcDb2dVertex
 10
8.144981
 20
-40.742647
 30
0.0
  0
VERTEX
  5
207
100
AcDbEntity
  8
LIVELLO_1
 62
     7
100
AcDbVertex
100
AcDb2dVertex
 10
-38.51522
 20
-40.742647
 30
0.0
  0
SEQEND
  5
208
100
AcDbEntity
  8
LIVELLO_1
 62
     7
  0
POLYLINE
  5
1FD
100
AcDbEntity
  8
LIVELLO_1
 62
     7
100
AcDb2dPolyline
 66
     1
 10
0.0
 20
0.0
 30
0.0
 70
     1
  0
VERTEX
  5
1FE
100
AcDbEntity
  8
LIVELLO_1
 62
     7
100
AcDbVertex
100
AcDb2dVertex
 10
8.144981
 20
-33.89862
 30
0.0
  0
VERTEX
  5
1FF
100
AcDbEntity
  8
LIVELLO_1
 62
     7
100
AcDbVertex
100
AcDb2dVertex
 10
10.262337
 20
-33.89862
 30
0.0
  0
VERTEX
  5
200
100
AcDbEntity
  8
LIVELLO_1
 62
     7
100
AcDbVertex
100
AcDb2dVertex
 10
10.262337
 20
-35.54951
 30
0.0
  0
VERTEX
  5
201
100
AcDbEntity
  8
LIVELLO_1
 62
     7
100
AcDbVertex
100
AcDb2dVertex
 10
8.144981
 20
-35.54951
 30
0.0
  0
SEQEND
  5
202
100
AcDbEntity
  8
LIVELLO_1
 62
     7
  0
POLYLINE
  5
1F7
100
AcDbEntity
  8
LIVELLO_1
 62
     7
100
AcDb2dPolyline
 66
     1
 10
0.0
 20
0.0
 30
0.0
 70
     1
  0
VERTEX
  5
1F8
100
AcDbEntity
  8
LIVELLO_1
 62
     7
100
AcDbVertex
100
AcDb2dVertex
 10
-38.51522
 20
-34.349927
 30
0.0
  0
VERTEX
  5
1F9
100
AcDbEntity
  8
LIVELLO_1
 62
     7
100
AcDbVertex
100
AcDb2dVertex
 10
8.144981
 20
-34.349927
 30
0.0
  0
VERTEX
  5
1FA
100
AcDbEntity
  8
LIVELLO_1
 62
     7
100
AcDbVertex
100
AcDb2dVertex
 10
8.144981
 20
-35.097858
 30
0.0
  0
VERTEX
  5
1FB
100
AcDbEntity
  8
LIVELLO_1
 62
     7
100
AcDbVertex
100
AcDb2dVertex
 10
-38.51522
 20
-35.097858
 30
0.0
  0
SEQEND
  5
1FC
100
AcDbEntity
  8
LIVELLO_1
 62
     7
  0
POLYLINE
  5
1F1
100
AcDbEntity
  8
LIVELLO_1
 62
     7
100
AcDb2dPolyline
 66
     1
 10
0.0
 20
0.0
 30
0.0
 70
     1
  0
VERTEX
  5
1F2
100
AcDbEntity
  8
LIVELLO_1
 62
     7
100
AcDbVertex
100
AcDb2dVertex
 10
8.144981
 20
-28.251419
 30
0.0
  0
VERTEX
  5
1F3
100
AcDbEntity
  8
LIVELLO_1
 62
     7
100
AcDbVertex
100
AcDb2dVertex
 10
10.262337
 20
-28.251419
 30
0.0
  0
VERTEX
  5
1F4
100
AcDbEntity
  8
LIVELLO_1
 62
     7
100
AcDbVertex
100
AcDb2dVertex
 10
10.262337
 20
-29.901965
 30
0.0
  0
VERTEX
  5
1F5
100
AcDbEntity
  8
LIVELLO_1
 62
     7
100
AcDbVertex
100
AcDb2dVertex
 10
8.144981
 20
-29.901965
 30
0.0
  0
SEQEND
  5
1F6
100
AcDbEntity
  8
LIVELLO_1
 62
     7
  0
POLYLINE
  5
1EB
100
AcDbEntity
  8
LIVELLO_1
 62
     7
100
AcDb2dPolyline
 66
     1
 10
0.0
 20
0.0
 30
0.0
 70
     1
  0
VERTEX
  5
1EC
100
AcDbEntity
  8
LIVELLO_1
 62
     7
100
AcDbVertex
100
AcDb2dVertex
 10
-38.51522
 20
-28.702727
 30
0.0
  0
VERTEX
  5
1ED
100
AcDbEntity
  8
LIVELLO_1
 62
     7
100
AcDbVertex
100
AcDb2dVertex
 10
8.144981
 20
-28.702727
 30
0.0
  0
VERTEX
  5
1EE
100
AcDbEntity
  8
LIVELLO_1
 62
     7
100
AcDbVertex
100
AcDb2dVertex
 10
8.144981
 20
-29.451002
 30
0.0
  0
VERTEX
  5
1EF
100
AcDbEntity
  8
LIVELLO_1
 62
     7
100
AcDbVertex
100
AcDb2dVertex
 10
-38.51522
 20
-29.451002
 30
0.0
  0
SEQEND
  5
1F0
100
AcDbEntity
  8
LIVELLO_1
 62
     7
  0
POLYLINE
  5
1E5
100
AcDbEntity
  8
LIVELLO_1
 62
     7
100
AcDb2dPolyline
 66
     1
 10
0.0
 20
0.0
 30
0.0
 70
     1
  0
VERTEX
  5
1E6
100
AcDbEntity
  8
LIVELLO_1
 62
     7
100
AcDbVertex
100
AcDb2dVertex
 10
8.144981
 20
-22.609042
 30
0.0
  0
VERTEX
  5
1E7
100
AcDbEntity
  8
LIVELLO_1
 62
     7
100
AcDbVertex
100
AcDb2dVertex
 10
10.262337
 20
-22.609042
 30
0.0
  0
VERTEX
  5
1E8
100
AcDbEntity
  8
LIVELLO_1
 62
     7
100
AcDbVertex
100
AcDb2dVertex
 10
10.262337
 20
-24.257865
 30
0.0
  0
VERTEX
  5
1E9
100
AcDbEntity
  8
LIVELLO_1
 62
     7
100
AcDbVertex
100
AcDb2dVertex
 10
8.144981
 20
-24.257865
 30
0.0
  0
SEQEND
  5
1EA
100
AcDbEntity
  8
LIVELLO_1
 62
     7
  0
POLYLINE
  5
1DF
100
AcDbEntity
  8
LIVELLO_1
 62
     7
100
AcDb2dPolyline
 66
     1
 10
0.0
 20
0.0
 30
0.0
 70
     1
  0
VERTEX
  5
1E0
100
AcDbEntity
  8
LIVELLO_1
 62
     7
100
AcDbVertex
100
AcDb2dVertex
 10
-38.51522
 20
-23.057938
 30
0.0
  0
VERTEX
  5
1E1
100
AcDbEntity
  8
LIVELLO_1
 62
     7
100
AcDbVertex
100
AcDb2dVertex
 10
8.144981
 20
-23.057938
 30
0.0
  0
VERTEX
  5
1E2
100
AcDbEntity
  8
LIVELLO_1
 62
     7
100
AcDbVertex
100
AcDb2dVertex
 10
8.144981
 20
-23.806213
 30
0.0
  0
VERTEX
  5
1E3
100
AcDbEntity
  8
LIVELLO_1
 62
     7
100
AcDbVertex
100
AcDb2dVertex
 10
-38.51522
 20
-23.806213
 30
0.0
  0
SEQEND
  5
1E4
100
AcDbEntity
  8
LIVELLO_1
 62
     7
  0
POLYLINE
  5
1D9
100
AcDbEntity
  8
LIVELLO_1
 62
     7
100
AcDb2dPolyline
 66
     1
 10
0.0
 20
0.0
 30
0.0
 70
     1
  0
VERTEX
  5
1DA
100
AcDbEntity
  8
LIVELLO_1
 62
     7
100
AcDbVertex
100
AcDb2dVertex
 10
8.144981
 20
-16.961841
 30
0.0
  0
VERTEX
  5
1DB
100
AcDbEntity
  8
LIVELLO_1
 62
     7
100
AcDbVertex
100
AcDb2dVertex
 10
10.262337
 20
-16.961841
 30
0.0
  0
VERTEX
  5
1DC
100
AcDbEntity
  8
LIVELLO_1
 62
     7
100
AcDbVertex
100
AcDb2dVertex
 10
10.262337
 20
-18.612904
 30
0.0
  0
VERTEX
  5
1DD
100
AcDbEntity
  8
LIVELLO_1
 62
     7
100
AcDbVertex
100
AcDb2dVertex
 10
8.144981
 20
-18.612904
 30
0.0
  0
SEQEND
  5
1DE
100
AcDbEntity
  8
LIVELLO_1
 62
     7
  0
POLYLINE
  5
1D3
100
AcDbEntity
  8
LIVELLO_1
 62
     7
100
AcDb2dPolyline
 66
     1
 10
0.0
 20
0.0
 30
0.0
 70
     1
  0
VERTEX
  5
1D4
100
AcDbEntity
  8
LIVELLO_1
 62
     7
100
AcDbVertex
100
AcDb2dVertex
 10
-38.51522
 20
-17.413149
 30
0.0
  0
VERTEX
  5
1D5
100
AcDbEntity
  8
LIVELLO_1
 62
     7
100
AcDbVertex
100
AcDb2dVertex
 10
8.144981
 20
-17.413149
 30
0.0
  0
VERTEX
  5
1D6
100
AcDbEntity
  8
LIVELLO_1
 62
     7
100
AcDbVertex
100
AcDb2dVertex
 10
8.144981
 20
-18.161596
 30
0.0
  0
VERTEX
  5
1D7
100
AcDbEntity
  8
LIVELLO_1
 62
     7
100
AcDbVertex
100
AcDb2dVertex
 10
-38.51522
 20
-18.161596
 30
0.0
  0
SEQEND
  5
1D8
100
AcDbEntity
  8
LIVELLO_1
 62
     7
  0
POLYLINE
  5
1CD
100
AcDbEntity
  8
LIVELLO_1
 62
     7
100
AcDb2dPolyline
 66
     1
 10
0.0
 20
0.0
 30
0.0
 70
     1
  0
VERTEX
  5
1CE
100
AcDbEntity
  8
LIVELLO_1
 62
     7
100
AcDbVertex
100
AcDb2dVertex
 10
8.144981
 20
-11.317225
 30
0.0
  0
VERTEX
  5
1CF
100
AcDbEntity
  8
LIVELLO_1
 62
     7
100
AcDbVertex
100
AcDb2dVertex
 10
10.262337
 20
-11.317225
 30
0.0
  0
VERTEX
  5
1D0
100
AcDbEntity
  8
LIVELLO_1
 62
     7
100
AcDbVertex
100
AcDb2dVertex
 10
10.262337
 20
-12.967942
 30
0.0
  0
VERTEX
  5
1D1
100
AcDbEntity
  8
LIVELLO_1
 62
     7
100
AcDbVertex
100
AcDb2dVertex
 10
8.144981
 20
-12.967942
 30
0.0
  0
SEQEND
  5
1D2
100
AcDbEntity
  8
LIVELLO_1
 62
     7
  0
POLYLINE
  5
1C7
100
AcDbEntity
  8
LIVELLO_1
 62
     7
100
AcDb2dPolyline
 66
     1
 10
0.0
 20
0.0
 30
0.0
 70
     1
  0
VERTEX
  5
1C8
100
AcDbEntity
  8
LIVELLO_1
 62
     7
100
AcDbVertex
100
AcDb2dVertex
 10
-38.51522
 20
-11.766121
 30
0.0
  0
VERTEX
  5
1C9
100
AcDbEntity
  8
LIVELLO_1
 62
     7
100
AcDbVertex
100
AcDb2dVertex
 10
8.144981
 20
-11.766121
 30
0.0
  0
VERTEX
  5
1CA
100
AcDbEntity
  8
LIVELLO_1
 62
     7
100
AcDbVertex
100
AcDb2dVertex
 10
8.144981
 20
-12.516635
 30
0.0
  0
VERTEX
  5
1CB
100
AcDbEntity
  8
LIVELLO_1
 62
     7
100
AcDbVertex
100
AcDb2dVertex
 10
-38.51522
 20
-12.516635
 30
0.0
  0
SEQEND
  5
1CC
100
AcDbEntity
  8
LIVELLO_1
 62
     7
  0
POLYLINE
  5
1C1
100
AcDbEntity
  8
LIVELLO_1
 62
     7
100
AcDb2dPolyline
 66
     1
 10
0.0
 20
0.0
 30
0.0
 70
     1
  0
VERTEX
  5
1C2
100
AcDbEntity
  8
LIVELLO_1
 62
     7
100
AcDbVertex
100
AcDb2dVertex
 10
8.144981
 20
-5.672264
 30
0.0
  0
VERTEX
  5
1C3
100
AcDbEntity
  8
LIVELLO_1
 62
     7
100
AcDbVertex
100
AcDb2dVertex
 10
10.262337
 20
-5.672264
 30
0.0
  0
VERTEX
  5
1C4
100
AcDbEntity
  8
LIVELLO_1
 62
     7
100
AcDbVertex
100
AcDb2dVertex
 10
10.262337
 20
-7.323326
 30
0.0
  0
VERTEX
  5
1C5
100
AcDbEntity
  8
LIVELLO_1
 62
     7
100
AcDbVertex
100
AcDb2dVertex
 10
8.144981
 20
-7.323326
 30
0.0
  0
SEQEND
  5
1C6
100
AcDbEntity
  8
LIVELLO_1
 62
     7
  0
POLYLINE
  5
1BB
100
AcDbEntity
  8
LIVELLO_1
 62
     7
100
AcDb2dPolyline
 66
     1
 10
0.0
 20
0.0
 30
0.0
 70
     1
  0
VERTEX
  5
1BC
100
AcDbEntity
  8
LIVELLO_1
 62
     7
100
AcDbVertex
100
AcDb2dVertex
 10
-38.51522
 20
-6.123916
 30
0.0
  0
VERTEX
  5
1BD
100
AcDbEntity
  8
LIVELLO_1
 62
     7
100
AcDbVertex
100
AcDb2dVertex
 10
8.144981
 20
-6.123916
 30
0.0
  0
VERTEX
  5
1BE
100
AcDbEntity
  8
LIVELLO_1
 62
     7
100
AcDbVertex
100
AcDb2dVertex
 10
8.144981
 20
-6.869779
 30
0.0
  0
VERTEX
  5
1BF
100
AcDbEntity
  8
LIVELLO_1
 62
     7
100
AcDbVertex
100
AcDb2dVertex
 10
-38.51522
 20
-6.869779
 30
0.0
  0
SEQEND
  5
1C0
100
AcDbEntity
  8
LIVELLO_1
 62
     7
  0
POLYLINE
  5
1B5
100
AcDbEntity
  8
LIVELLO_1
 62
     7
100
AcDb2dPolyline
 66
     1
 10
0.0
 20
0.0
 30
0.0
 70
     1
  0
VERTEX
  5
1B6
100
AcDbEntity
  8
LIVELLO_1
 62
     7
100
AcDbVertex
100
AcDb2dVertex
 10
8.144981
 20
-0.025408
 30
0.0
  0
VERTEX
  5
1B7
100
AcDbEntity
  8
LIVELLO_1
 62
     7
100
AcDbVertex
100
AcDb2dVertex
 10
10.262337
 20
-0.025408
 30
0.0
  0
VERTEX
  5
1B8
100
AcDbEntity
  8
LIVELLO_1
 62
     7
100
AcDbVertex
100
AcDb2dVertex
 10
10.262337
 20
-1.676297
 30
0.0
  0
VERTEX
  5
1B9
100
AcDbEntity
  8
LIVELLO_1
 62
     7
100
AcDbVertex
100
AcDb2dVertex
 10
8.144981
 20
-1.676297
 30
0.0
  0
SEQEND
  5
1BA
100
AcDbEntity
  8
LIVELLO_1
 62
     7
  0
POLYLINE
  5
1AF
100
AcDbEntity
  8
LIVELLO_1
 62
     7
100
AcDb2dPolyline
 66
     1
 10
0.0
 20
0.0
 30
0.0
 70
     1
  0
VERTEX
  5
1B0
100
AcDbEntity
  8
LIVELLO_1
 62
     7
100
AcDbVertex
100
AcDb2dVertex
 10
-38.51522
 20
-0.476715
 30
0.0
  0
VERTEX
  5
1B1
100
AcDbEntity
  8
LIVELLO_1
 62
     7
100
AcDbVertex
100
AcDb2dVertex
 10
8.144981
 20
-0.476715
 30
0.0
  0
VERTEX
  5
1B2
100
AcDbEntity
  8
LIVELLO_1
 62
     7
100
AcDbVertex
100
AcDb2dVertex
 10
8.144981
 20
-1.227229
 30
0.0
  0
VERTEX
  5
1B3
100
AcDbEntity
  8
LIVELLO_1
 62
     7
100
AcDbVertex
100
AcDb2dVertex
 10
-38.51522
 20
-1.227229
 30
0.0
  0
SEQEND
  5
1B4
100
AcDbEntity
  8
LIVELLO_1
 62
     7
  0
POLYLINE
  5
1A9
100
AcDbEntity
  8
LIVELLO_1
 62
     7
100
AcDb2dPolyline
 66
     1
 10
0.0
 20
0.0
 30
0.0
 70
     1
  0
VERTEX
  5
1AA
100
AcDbEntity
  8
LIVELLO_1
 62
     7
100
AcDbVertex
100
AcDb2dVertex
 10
8.144981
 20
5.619381
 30
0.0
  0
VERTEX
  5
1AB
100
AcDbEntity
  8
LIVELLO_1
 62
     7
100
AcDbVertex
100
AcDb2dVertex
 10
10.262337
 20
5.619381
 30
0.0
  0
VERTEX
  5
1AC
100
AcDbEntity
  8
LIVELLO_1
 62
     7
100
AcDbVertex
100
AcDb2dVertex
 10
10.262337
 20
3.968492
 30
0.0
  0
VERTEX
  5
1AD
100
AcDbEntity
  8
LIVELLO_1
 62
     7
100
AcDbVertex
100
AcDb2dVertex
 10
8.144981
 20
3.968492
 30
0.0
  0
SEQEND
  5
1AE
100
AcDbEntity
  8
LIVELLO_1
 62
     7
  0
POLYLINE
  5
1A3
100
AcDbEntity
  8
LIVELLO_1
 62
     7
100
AcDb2dPolyline
 66
     1
 10
0.0
 20
0.0
 30
0.0
 70
     1
  0
VERTEX
  5
1A4
100
AcDbEntity
  8
LIVELLO_1
 62
     7
100
AcDbVertex
100
AcDb2dVertex
 10
-38.51522
 20
5.170485
 30
0.0
  0
VERTEX
  5
1A5
100
AcDbEntity
  8
LIVELLO_1
 62
     7
100
AcDbVertex
100
AcDb2dVertex
 10
8.144981
 20
5.170485
 30
0.0
  0
VERTEX
  5
1A6
100
AcDbEntity
  8
LIVELLO_1
 62
     7
100
AcDbVertex
100
AcDb2dVertex
 10
8.144981
 20
4.419799
 30
0.0
  0
VERTEX
  5
1A7
100
AcDbEntity
  8
LIVELLO_1
 62
     7
100
AcDbVertex
100
AcDb2dVertex
 10
-38.51522
 20
4.419799
 30
0.0
  0
SEQEND
  5
1A8
100
AcDbEntity
  8
LIVELLO_1
 62
     7
  0
POLYLINE
  5
19D
100
AcDbEntity
  8
LIVELLO_1
 62
     7
100
AcDb2dPolyline
 66
     1
 10
0.0
 20
0.0
 30
0.0
 70
     1
  0
VERTEX
  5
19E
100
AcDbEntity
  8
LIVELLO_1
 62
     7
100
AcDbVertex
100
AcDb2dVertex
 10
8.144981
 20
11.26417
 30
0.0
  0
VERTEX
  5
19F
100
AcDbEntity
  8
LIVELLO_1
 62
     7
100
AcDbVertex
100
AcDb2dVertex
 10
10.262337
 20
11.26417
 30
0.0
  0
VERTEX
  5
1A0
100
AcDbEntity
  8
LIVELLO_1
 62
     7
100
AcDbVertex
100
AcDb2dVertex
 10
10.262337
 20
9.613281
 30
0.0
  0
VERTEX
  5
1A1
100
AcDbEntity
  8
LIVELLO_1
 62
     7
100
AcDbVertex
100
AcDb2dVertex
 10
8.144981
 20
9.613281
 30
0.0
  0
SEQEND
  5
1A2
100
AcDbEntity
  8
LIVELLO_1
 62
     7
  0
POLYLINE
  5
197
100
AcDbEntity
  8
LIVELLO_1
 62
     7
100
AcDb2dPolyline
 66
     1
 10
0.0
 20
0.0
 30
0.0
 70
     1
  0
VERTEX
  5
198
100
AcDbEntity
  8
LIVELLO_1
 62
     7
100
AcDbVertex
100
AcDb2dVertex
 10
-38.51522
 20
10.812863
 30
0.0
  0
VERTEX
  5
199
100
AcDbEntity
  8
LIVELLO_1
 62
     7
100
AcDbVertex
100
AcDb2dVertex
 10
8.144981
 20
10.812863
 30
0.0
  0
VERTEX
  5
19A
100
AcDbEntity
  8
LIVELLO_1
 62
     7
100
AcDbVertex
100
AcDb2dVertex
 10
8.144981
 20
10.066827
 30
0.0
  0
VERTEX
  5
19B
100
AcDbEntity
  8
LIVELLO_1
 62
     7
100
AcDbVertex
100
AcDb2dVertex
 10
-38.51522
 20
10.066827
 30
0.0
  0
SEQEND
  5
19C
100
AcDbEntity
  8
LIVELLO_1
 62
     7
  0
POLYLINE
  5
191
100
AcDbEntity
  8
LIVELLO_1
 62
     7
100
AcDb2dPolyline
 66
     1
 10
0.0
 20
0.0
 30
0.0
 70
     1
  0
VERTEX
  5
192
100
AcDbEntity
  8
LIVELLO_1
 62
     7
100
AcDbVertex
100
AcDb2dVertex
 10
8.144981
 20
16.908615
 30
0.0
  0
VERTEX
  5
193
100
AcDbEntity
  8
LIVELLO_1
 62
     7
100
AcDbVertex
100
AcDb2dVertex
 10
10.262337
 20
16.908615
 30
0.0
  0
VERTEX
  5
194
100
AcDbEntity
  8
LIVELLO_1
 62
     7
100
AcDbVertex
100
AcDb2dVertex
 10
10.262337
 20
15.260137
 30
0.0
  0
VERTEX
  5
195
100
AcDbEntity
  8
LIVELLO_1
 62
     7
100
AcDbVertex
100
AcDb2dVertex
 10
8.144981
 20
15.260137
 30
0.0
  0
SEQEND
  5
196
100
AcDbEntity
  8
LIVELLO_1
 62
     7
  0
POLYLINE
  5
18B
100
AcDbEntity
  8
LIVELLO_1
 62
     7
100
AcDb2dPolyline
 66
     1
 10
0.0
 20
0.0
 30
0.0
 70
     1
  0
VERTEX
  5
18C
100
AcDbEntity
  8
LIVELLO_1
 62
     7
100
AcDbVertex
100
AcDb2dVertex
 10
-38.51522
 20
16.459891
 30
0.0
  0
VERTEX
  5
18D
100
AcDbEntity
  8
LIVELLO_1
 62
     7
100
AcDbVertex
100
AcDb2dVertex
 10
8.144981
 20
16.459891
 30
0.0
  0
VERTEX
  5
18E
100
AcDbEntity
  8
LIVELLO_1
 62
     7
100
AcDbVertex
100
AcDb2dVertex
 10
8.144981
 20
15.709205
 30
0.0
  0
VERTEX
  5
18F
100
AcDbEntity
  8
LIVELLO_1
 62
     7
100
AcDbVertex
100
AcDb2dVertex
 10
-38.51522
 20
15.709205
 30
0.0
  0
SEQEND
  5
190
100
AcDbEntity
  8
LIVELLO_1
 62
     7
  0
POLYLINE
  5
185
100
AcDbEntity
  8
LIVELLO_1
 62
     7
100
AcDb2dPolyline
 66
     1
 10
0.0
 20
0.0
 30
0.0
 70
     1
  0
VERTEX
  5
186
100
AcDbEntity
  8
LIVELLO_1
 62
     7
100
AcDbVertex
100
AcDb2dVertex
 10
8.144981
 20
22.555815
 30
0.0
  0
VERTEX
  5
187
100
AcDbEntity
  8
LIVELLO_1
 62
     7
100
AcDbVertex
100
AcDb2dVertex
 10
10.262337
 20
22.555815
 30
0.0
  0
VERTEX
  5
188
100
AcDbEntity
  8
LIVELLO_1
 62
     7
100
AcDbVertex
100
AcDb2dVertex
 10
10.262337
 20
20.902686
 30
0.0
  0
VERTEX
  5
189
100
AcDbEntity
  8
LIVELLO_1
 62
     7
100
AcDbVertex
100
AcDb2dVertex
 10
8.144981
 20
20.902686
 30
0.0
  0
SEQEND
  5
18A
100
AcDbEntity
  8
LIVELLO_1
 62
     7
  0
POLYLINE
  5
17F
100
AcDbEntity
  8
LIVELLO_1
 62
     7
100
AcDb2dPolyline
 66
     1
 10
0.0
 20
0.0
 30
0.0
 70
     1
  0
VERTEX
  5
180
100
AcDbEntity
  8
LIVELLO_1
 62
     7
100
AcDbVertex
100
AcDb2dVertex
 10
-38.51522
 20
22.104508
 30
0.0
  0
VERTEX
  5
181
100
AcDbEntity
  8
LIVELLO_1
 62
     7
100
AcDbVertex
100
AcDb2dVertex
 10
8.144981
 20
22.104508
 30
0.0
  0
VERTEX
  5
182
100
AcDbEntity
  8
LIVELLO_1
 62
     7
100
AcDbVertex
100
AcDb2dVertex
 10
8.144981
 20
21.356233
 30
0.0
  0
VERTEX
  5
183
100
AcDbEntity
  8
LIVELLO_1
 62
     7
100
AcDbVertex
100
AcDb2dVertex
 10
-38.51522
 20
21.356233
 30
0.0
  0
SEQEND
  5
184
100
AcDbEntity
  8
LIVELLO_1
 62
     7
  0
POLYLINE
  5
179
100
AcDbEntity
  8
LIVELLO_1
 62
     7
100
AcDb2dPolyline
 66
     1
 10
0.0
 20
0.0
 30
0.0
 70
     1
  0
VERTEX
  5
17A
100
AcDbEntity
  8
LIVELLO_1
 62
     7
100
AcDbVertex
100
AcDb2dVertex
 10
8.144981
 20
28.198193
 30
0.0
  0
VERTEX
  5
17B
100
AcDbEntity
  8
LIVELLO_1
 62
     7
100
AcDbVertex
100
AcDb2dVertex
 10
10.262337
 20
28.198193
 30
0.0
  0
VERTEX
  5
17C
100
AcDbEntity
  8
LIVELLO_1
 62
     7
100
AcDbVertex
100
AcDb2dVertex
 10
10.262337
 20
26.549714
 30
0.0
  0
VERTEX
  5
17D
100
AcDbEntity
  8
LIVELLO_1
 62
     7
100
AcDbVertex
100
AcDb2dVertex
 10
8.144981
 20
26.549714
 30
0.0
  0
SEQEND
  5
17E
100
AcDbEntity
  8
LIVELLO_1
 62
     7
  0
POLYLINE
  5
173
100
AcDbEntity
  8
LIVELLO_1
 62
     7
100
AcDb2dPolyline
 66
     1
 10
0.0
 20
0.0
 30
0.0
 70
     1
  0
VERTEX
  5
174
100
AcDbEntity
  8
LIVELLO_1
 62
     7
100
AcDbVertex
100
AcDb2dVertex
 10
-38.51522
 20
27.749297
 30
0.0
  0
VERTEX
  5
175
100
AcDbEntity
  8
LIVELLO_1
 62
     7
100
AcDbVertex
100
AcDb2dVertex
 10
8.144981
 20
27.749297
 30
0.0
  0
VERTEX
  5
176
100
AcDbEntity
  8
LIVELLO_1
 62
     7
100
AcDbVertex
100
AcDb2dVertex
 10
8.144981
 20
27.001022
 30
0.0
  0
VERTEX
  5
177
100
AcDbEntity
  8
LIVELLO_1
 62
     7
100
AcDbVertex
100
AcDb2dVertex
 10
-38.51522
 20
27.001022
 30
0.0
  0
SEQEND
  5
178
100
AcDbEntity
  8
LIVELLO_1
 62
     7
  0
POLYLINE
  5
16D
100
AcDbEntity
  8
LIVELLO_1
 62
     7
100
AcDb2dPolyline
 66
     1
 10
0.0
 20
0.0
 30
0.0
 70
     1
  0
VERTEX
  5
16E
100
AcDbEntity
  8
LIVELLO_1
 62
     7
100
AcDbVertex
100
AcDb2dVertex
 10
8.144981
 20
33.845393
 30
0.0
  0
VERTEX
  5
16F
100
AcDbEntity
  8
LIVELLO_1
 62
     7
100
AcDbVertex
100
AcDb2dVertex
 10
10.262337
 20
33.845393
 30
0.0
  0
VERTEX
  5
170
100
AcDbEntity
  8
LIVELLO_1
 62
     7
100
AcDbVertex
100
AcDb2dVertex
 10
10.262337
 20
32.194331
 30
0.0
  0
VERTEX
  5
171
100
AcDbEntity
  8
LIVELLO_1
 62
     7
100
AcDbVertex
100
AcDb2dVertex
 10
8.144981
 20
32.194331
 30
0.0
  0
SEQEND
  5
172
100
AcDbEntity
  8
LIVELLO_1
 62
     7
  0
POLYLINE
  5
167
100
AcDbEntity
  8
LIVELLO_1
 62
     7
100
AcDb2dPolyline
 66
     1
 10
0.0
 20
0.0
 30
0.0
 70
     1
  0
VERTEX
  5
168
100
AcDbEntity
  8
LIVELLO_1
 62
     7
100
AcDbVertex
100
AcDb2dVertex
 10
-33.109004
 20
33.396497
 30
0.0
  0
VERTEX
  5
169
100
AcDbEntity
  8
LIVELLO_1
 62
     7
100
AcDbVertex
100
AcDb2dVertex
 10
8.144981
 20
33.396497
 30
0.0
  0
VERTEX
  5
16A
100
AcDbEntity
  8
LIVELLO_1
 62
     7
100
AcDbVertex
100
AcDb2dVertex
 10
8.144981
 20
32.645983
 30
0.0
  0
VERTEX
  5
16B
100
AcDbEntity
  8
LIVELLO_1
 62
     7
100
AcDbVertex
100
AcDb2dVertex
 10
-33.109004
 20
32.645983
 30
0.0
  0
SEQEND
  5
16C
100
AcDbEntity
  8
LIVELLO_1
 62
     7
  0
POLYLINE
  5
161
100
AcDbEntity
  8
LIVELLO_1
 62
     7
100
AcDb2dPolyline
 66
     1
 10
0.0
 20
0.0
 30
0.0
 70
     1
  0
VERTEX
  5
162
100
AcDbEntity
  8
LIVELLO_1
 62
     7
100
AcDbVertex
100
AcDb2dVertex
 10
8.144981
 20
39.492594
 30
0.0
  0
VERTEX
  5
163
100
AcDbEntity
  8
LIVELLO_1
 62
     7
100
AcDbVertex
100
AcDb2dVertex
 10
10.262337
 20
39.492594
 30
0.0
  0
VERTEX
  5
164
100
AcDbEntity
  8
LIVELLO_1
 62
     7
100
AcDbVertex
100
AcDb2dVertex
 10
10.262337
 20
37.839292
 30
0.0
  0
VERTEX
  5
165
100
AcDbEntity
  8
LIVELLO_1
 62
     7
100
AcDbVertex
100
AcDb2dVertex
 10
8.144981
 20
37.839292
 30
0.0
  0
SEQEND
  5
166
100
AcDbEntity
  8
LIVELLO_1
 62
     7
  0
POLYLINE
  5
15B
100
AcDbEntity
  8
LIVELLO_1
 62
     7
100
AcDb2dPolyline
 66
     1
 10
0.0
 20
0.0
 30
0.0
 70
     1
  0
VERTEX
  5
15C
100
AcDbEntity
  8
LIVELLO_1
 62
     7
100
AcDbVertex
100
AcDb2dVertex
 10
-33.109004
 20
39.040942
 30
0.0
  0
VERTEX
  5
15D
100
AcDbEntity
  8
LIVELLO_1
 62
     7
100
AcDbVertex
100
AcDb2dVertex
 10
8.144981
 20
39.040942
 30
0.0
  0
VERTEX
  5
15E
100
AcDbEntity
  8
LIVELLO_1
 62
     7
100
AcDbVertex
100
AcDb2dVertex
 10
8.144981
 20
38.292667
 30
0.0
  0
VERTEX
  5
15F
100
AcDbEntity
  8
LIVELLO_1
 62
     7
100
AcDbVertex
100
AcDb2dVertex
 10
-33.109004
 20
38.292667
 30
0.0
  0
SEQEND
  5
160
100
AcDbEntity
  8
LIVELLO_1
 62
     7
  0
SPLINE
  5
15A
100
AcDbEntity
  8
LIVELLO_1
 62
     7
100
AcDbSpline
210
0.0
220
0.0
230
1.0
 70
     8
 71
     3
 72
    38
 73
    34
 74
     0
 42
0.00000001
 43
0.00000001
 40
0.0
 40
0.0
 40
0.0
 40
0.0
 40
1.0
 40
1.0
 40
1.0
 40
2.0
 40
2.0
 40
2.0
 40
3.0
 40
3.0
 40
3.0
 40
4.0
 40
4.0
 40
4.0
 40
5.0
 40
5.0
 40
5.0
 40
6.0
 40
6.0
 40
6.0
 40
7.0
 40
7.0
 40
7.0
 40
8.0
 40
8.0
 40
8.0
 40
9.0
 40
9.0
 40
9.0
 40
10.0
 40
10.0
 40
10.0
 40
11.0
 40
11.0
 40
11.0
 40
11.0
 10
16.877608913845485
 20
-75.158461507161448
 30
0.0
 10
16.877608913845485
 20
-75.158461507161448
 30
0.0
 10
17.660679117838541
 20
-75.158461507161448
 30
0.0
 10
17.660679117838541
 20
-75.158461507161448
 30
0.0
 10
17.660679117838541
 20
-75.158461507161448
 30
0.0
 10
18.058243136935761
 20
-70.870006646050342
 30
0.0
 10
18.058243136935761
 20
-70.870006646050342
 30
0.0
 10
18.058243136935761
 20
-70.870006646050342
 30
0.0
 10
17.448116726345486
 20
-70.870006646050342
 30
0.0
 10
17.448116726345486
 20
-70.870006646050342
 30
0.0
 10
17.448116726345486
 20
-70.870006646050342
 30
0.0
 10
16.877608913845485
 20
-70.870006646050342
 30
0.0
 10
16.877608913845485
 20
-70.870006646050342
 30
0.0
 10
16.877608913845485
 20
-70.870006646050342
 30
0.0
 10
8.5120557996961796
 20
-70.870006646050342
 30
0.0
 10
8.5120557996961796
 20
-70.870006646050342
 30
0.0
 10
8.5120557996961796
 20
-70.870006646050342
 30
0.0
 10
8.5120557996961796
 20
-64.750483534071179
 30
0.0
 10
8.5120557996961796
 20
-64.750483534071179
 30
0.0
 10
8.5120557996961796
 20
-64.750483534071179
 30
0.0
 10
7.1186869303385407
 20
-64.750483534071179
 30
0.0
 10
7.1186869303385407
 20
-64.750483534071179
 30
0.0
 10
7.1186869303385407
 20
-64.750483534071179
 30
0.0
 10
7.1186869303385407
 20
-70.914103868272562
 30
0.0
 10
7.1186869303385407
 20
-70.914103868272562
 30
0.0
 10
7.1186869303385407
 20
-71.433279758029514
 30
0.0
 10
7.5393330891927075
 20
-71.857026502821171
 30
0.0
 10
8.0597147623697918
 20
-71.857026502821171
 30
0.0
 10
8.0597147623697918
 20
-71.857026502821171
 30
0.0
 10
16.877608913845485
 20
-71.857026502821171
 30
0.0
 10
16.877608913845485
 20
-71.857026502821171
 30
0.0
 10
16.877608913845485
 20
-71.857026502821171
 30
0.0
 10
16.877608913845485
 20
-75.158461507161448
 30
0.0
 10
16.877608913845485
 20
-75.158461507161448
 30
0.0
  0
POLYLINE
  5
155
100
AcDbEntity
  8
LIVELLO_1
 62
     7
100
AcDb2dPolyline
 66
     1
 10
0.0
 20
0.0
 30
0.0
  0
VERTEX
  5
156
100
AcDbEntity
  8
LIVELLO_1
 62
     7
100
AcDbVertex
100
AcDb2dVertex
 10
2.994908
 20
-67.268848
 30
0.0
  0
VERTEX
  5
157
100
AcDbEntity
  8
LIVELLO_1
 62
     7
100
AcDbVertex
100
AcDb2dVertex
 10
-0.395755
 20
-67.268848
 30
0.0
  0
VERTEX
  5
158
100
AcDbEntity
  8
LIVELLO_1
 62
     7
100
AcDbVertex
100
AcDb2dVertex
 10
-0.395755
 20
-63.740037
 30
0.0
  0
SEQEND
  5
159
100
AcDbEntity
  8
LIVELLO_1
 62
     7
  0
POLYLINE
  5
14F
100
AcDbEntity
  8
LIVELLO_1
 62
     7
100
AcDb2dPolyline
 66
     1
 10
0.0
 20
0.0
 30
0.0
 70
     1
  0
VERTEX
  5
150
100
AcDbEntity
  8
LIVELLO_1
 62
     7
100
AcDbVertex
100
AcDb2dVertex
 10
2.994908
 20
-64.750484
 30
0.0
  0
VERTEX
  5
151
100
AcDbEntity
  8
LIVELLO_1
 62
     7
100
AcDbVertex
100
AcDb2dVertex
 10
8.514467
 20
-64.750484
 30
0.0
  0
VERTEX
  5
152
100
AcDbEntity
  8
LIVELLO_1
 62
     7
100
AcDbVertex
100
AcDb2dVertex
 10
8.514467
 20
-67.268848
 30
0.0
  0
VERTEX
  5
153
100
AcDbEntity
  8
LIVELLO_1
 62
     7
100
AcDbVertex
100
AcDb2dVertex
 10
2.994908
 20
-67.268848
 30
0.0
  0
SEQEND
  5
154
100
AcDbEntity
  8
LIVELLO_1
 62
     7
  0
SPLINE
  5
14E
100
AcDbEntity
  8
LIVELLO_1
 62
     7
100
AcDbSpline
210
0.0
220
0.0
230
1.0
 70
     8
 71
     3
 72
    20
 73
    16
 74
     0
 42
0.00000001
 43
0.00000001
 40
0.0
 40
0.0
 40
0.0
 40
0.0
 40
1.0
 40
1.0
 40
1.0
 40
2.0
 40
2.0
 40
2.0
 40
3.0
 40
3.0
 40
3.0
 40
4.0
 40
4.0
 40
4.0
 40
5.0
 40
5.0
 40
5.0
 40
5.0
 10
1.3860480414496525
 20
-52.382935248480898
 30
0.0
 10
1.3860480414496525
 20
-52.799102783203118
 30
0.0
 10
1.7240119086371526
 20
-53.138100179036456
 30
0.0
 10
2.1400071885850691
 20
-53.138100179036456
 30
0.0
 10
2.5542799207899303
 20
-53.138100179036456
 30
0.0
 10
2.8941385904947916
 20
-52.799102783203118
 30
0.0
 10
2.8941385904947916
 20
-52.382935248480898
 30
0.0
 10
2.8941385904947916
 20
-52.254088677300345
 30
0.0
 10
2.8602043999565971
 20
-52.132821316189229
 30
0.0
 10
2.8030158148871527
 20
-52.025334337022564
 30
0.0
 10
2.8030158148871527
 20
-52.025334337022564
 30
0.0
 10
1.4747592502170137
 20
-52.025334337022564
 30
0.0
 10
1.4747592502170137
 20
-52.025334337022564
 30
0.0
 10
1.4163648817274304
 20
-52.132821316189229
 30
0.0
 10
1.3860480414496525
 20
-52.254088677300345
 30
0.0
 10
1.3860480414496525
 20
-52.382935248480898
 30
0.0
  0
POLYLINE
  5
148
100
AcDbEntity
  8
LIVELLO_1
 62
     7
100
AcDb2dPolyline
 66
     1
 10
0.0
 20
0.0
 30
0.0
 70
     1
  0
VERTEX
  5
149
100
AcDbEntity
  8
LIVELLO_1
 62
     7
100
AcDbVertex
100
AcDb2dVertex
 10
-0.172513
 20
-58.900022
 30
0.0
  0
VERTEX
  5
14A
100
AcDbEntity
  8
LIVELLO_1
 62
     7
100
AcDbVertex
100
AcDb2dVertex
 10
7.642169
 20
-59.839844
 30
0.0
  0
VERTEX
  5
14B
100
AcDbEntity
  8
LIVELLO_1
 62
     7
100
AcDbVertex
100
AcDb2dVertex
 10
7.642169
 20
-57.667712
 30
0.0
  0
VERTEX
  5
14C
100
AcDbEntity
  8
LIVELLO_1
 62
     7
100
AcDbVertex
100
AcDb2dVertex
 10
-0.172513
 20
-57.667712
 30
0.0
  0
SEQEND
  5
14D
100
AcDbEntity
  8
LIVELLO_1
 62
     7
  0
POLYLINE
  5
142
100
AcDbEntity
  8
LIVELLO_1
 62
     7
100
AcDb2dPolyline
 66
     1
 10
0.0
 20
0.0
 30
0.0
 70
     1
  0
VERTEX
  5
143
100
AcDbEntity
  8
LIVELLO_1
 62
     7
100
AcDbVertex
100
AcDb2dVertex
 10
7.642169
 20
-56.919092
 30
0.0
  0
VERTEX
  5
144
100
AcDbEntity
  8
LIVELLO_1
 62
     7
100
AcDbVertex
100
AcDb2dVertex
 10
7.642169
 20
-52.025334
 30
0.0
  0
VERTEX
  5
145
100
AcDbEntity
  8
LIVELLO_1
 62
     7
100
AcDbVertex
100
AcDb2dVertex
 10
-0.172513
 20
-52.025334
 30
0.0
  0
VERTEX
  5
146
100
AcDbEntity
  8
LIVELLO_1
 62
     7
100
AcDbVertex
100
AcDb2dVertex
 10
-0.172513
 20
-56.919092
 30
0.0
  0
SEQEND
  5
147
100
AcDbEntity
  8
LIVELLO_1
 62
     7
  0
POLYLINE
  5
13C
100
AcDbEntity
  8
LIVELLO_1
 62
     7
100
AcDb2dPolyline
 66
     1
 10
0.0
 20
0.0
 30
0.0
 70
     1
  0
VERTEX
  5
13D
100
AcDbEntity
  8
LIVELLO_1
 62
     7
100
AcDbVertex
100
AcDb2dVertex
 10
7.642169
 20
-51.274648
 30
0.0
  0
VERTEX
  5
13E
100
AcDbEntity
  8
LIVELLO_1
 62
     7
100
AcDbVertex
100
AcDb2dVertex
 10
7.642169
 20
-46.380545
 30
0.0
  0
VERTEX
  5
13F
100
AcDbEntity
  8
LIVELLO_1
 62
     7
100
AcDbVertex
100
AcDb2dVertex
 10
-0.172513
 20
-46.380545
 30
0.0
  0
VERTEX
  5
140
100
AcDbEntity
  8
LIVELLO_1
 62
     7
100
AcDbVertex
100
AcDb2dVertex
 10
-0.172513
 20
-51.274648
 30
0.0
  0
SEQEND
  5
141
100
AcDbEntity
  8
LIVELLO_1
 62
     7
  0
POLYLINE
  5
137
100
AcDbEntity
  8
LIVELLO_1
 62
     7
100
AcDb2dPolyline
 66
     1
 10
0.0
 20
0.0
 30
0.0
 70
     1
  0
VERTEX
  5
138
100
AcDbEntity
  8
LIVELLO_1
 62
     7
100
AcDbVertex
100
AcDb2dVertex
 10
7.642169
 20
-45.632271
 30
0.0
  0
VERTEX
  5
139
100
AcDbEntity
  8
LIVELLO_1
 62
     7
100
AcDbVertex
100
AcDb2dVertex
 10
7.642169
 20
-44.928438
 30
0.0
  0
VERTEX
  5
13A
100
AcDbEntity
  8
LIVELLO_1
 62
     7
100
AcDbVertex
100
AcDb2dVertex
 10
1.792914
 20
-45.632271
 30
0.0
  0
SEQEND
  5
13B
100
AcDbEntity
  8
LIVELLO_1
 62
     7
  0
SPLINE
  5
136
100
AcDbEntity
  8
LIVELLO_1
 62
     7
100
AcDbSpline
210
0.0
220
0.0
230
1.0
 70
     8
 71
     3
 72
    20
 73
    16
 74
     0
 42
0.00000001
 43
0.00000001
 40
0.0
 40
0.0
 40
0.0
 40
0.0
 40
1.0
 40
1.0
 40
1.0
 40
2.0
 40
2.0
 40
2.0
 40
3.0
 40
3.0
 40
3.0
 40
4.0
 40
4.0
 40
4.0
 40
5.0
 40
5.0
 40
5.0
 40
5.0
 10
1.3860480414496525
 20
33.747207980685758
 30
0.0
 10
1.3860480414496525
 20
34.163547770182291
 30
0.0
 10
1.7240119086371526
 20
34.502545166015622
 30
0.0
 10
2.1400071885850691
 20
34.502545166015622
 30
0.0
 10
2.5542799207899303
 20
34.502545166015622
 30
0.0
 10
2.8941385904947916
 20
34.163547770182291
 30
0.0
 10
2.8941385904947916
 20
33.747207980685758
 30
0.0
 10
2.8941385904947916
 20
33.618533664279511
 30
0.0
 10
2.8602043999565971
 20
33.497094048394096
 30
0.0
 10
2.8030158148871527
 20
33.387195502387151
 30
0.0
 10
2.8030158148871527
 20
33.387195502387151
 30
0.0
 10
1.4747592502170137
 20
33.387195502387151
 30
0.0
 10
1.4747592502170137
 20
33.387195502387151
 30
0.0
 10
1.4163648817274304
 20
33.497094048394096
 30
0.0
 10
1.3860480414496525
 20
33.618533664279511
 30
0.0
 10
1.3860480414496525
 20
33.747207980685758
 30
0.0
  0
POLYLINE
  5
130
100
AcDbEntity
  8
LIVELLO_1
 62
     7
100
AcDb2dPolyline
 66
     1
 10
0.0
 20
0.0
 30
0.0
 70
     1
  0
VERTEX
  5
131
100
AcDbEntity
  8
LIVELLO_1
 62
     7
100
AcDbVertex
100
AcDb2dVertex
 10
-0.172513
 20
40.264123
 30
0.0
  0
VERTEX
  5
132
100
AcDbEntity
  8
LIVELLO_1
 62
     7
100
AcDbVertex
100
AcDb2dVertex
 10
7.642169
 20
41.204117
 30
0.0
  0
VERTEX
  5
133
100
AcDbEntity
  8
LIVELLO_1
 62
     7
100
AcDbVertex
100
AcDb2dVertex
 10
7.642169
 20
39.03164
 30
0.0
  0
VERTEX
  5
134
100
AcDbEntity
  8
LIVELLO_1
 62
     7
100
AcDbVertex
100
AcDb2dVertex
 10
-0.172513
 20
39.03164
 30
0.0
  0
SEQEND
  5
135
100
AcDbEntity
  8
LIVELLO_1
 62
     7
  0
POLYLINE
  5
12A
100
AcDbEntity
  8
LIVELLO_1
 62
     7
100
AcDb2dPolyline
 66
     1
 10
0.0
 20
0.0
 30
0.0
 70
     1
  0
VERTEX
  5
12B
100
AcDbEntity
  8
LIVELLO_1
 62
     7
100
AcDbVertex
100
AcDb2dVertex
 10
7.642169
 20
38.285949
 30
0.0
  0
VERTEX
  5
12C
100
AcDbEntity
  8
LIVELLO_1
 62
     7
100
AcDbVertex
100
AcDb2dVertex
 10
7.642169
 20
33.387196
 30
0.0
  0
VERTEX
  5
12D
100
AcDbEntity
  8
LIVELLO_1
 62
     7
100
AcDbVertex
100
AcDb2dVertex
 10
-0.172513
 20
33.387196
 30
0.0
  0
VERTEX
  5
12E
100
AcDbEntity
  8
LIVELLO_1
 62
     7
100
AcDbVertex
100
AcDb2dVertex
 10
-0.172513
 20
38.285949
 30
0.0
  0
SEQEND
  5
12F
100
AcDbEntity
  8
LIVELLO_1
 62
     7
  0
POLYLINE
  5
124
100
AcDbEntity
  8
LIVELLO_1
 62
     7
100
AcDb2dPolyline
 66
     1
 10
0.0
 20
0.0
 30
0.0
 70
     1
  0
VERTEX
  5
125
100
AcDbEntity
  8
LIVELLO_1
 62
     7
100
AcDbVertex
100
AcDb2dVertex
 10
7.642169
 20
32.638921
 30
0.0
  0
VERTEX
  5
126
100
AcDbEntity
  8
LIVELLO_1
 62
     7
100
AcDbVertex
100
AcDb2dVertex
 10
7.642169
 20
27.744646
 30
0.0
  0
VERTEX
  5
127
100
AcDbEntity
  8
LIVELLO_1
 62
     7
100
AcDbVertex
100
AcDb2dVertex
 10
-0.172513
 20
27.744646
 30
0.0
  0
VERTEX
  5
128
100
AcDbEntity
  8
LIVELLO_1
 62
     7
100
AcDbVertex
100
AcDb2dVertex
 10
-0.172513
 20
32.638921
 30
0.0
  0
SEQEND
  5
129
100
AcDbEntity
  8
LIVELLO_1
 62
     7
  0
POLYLINE
  5
11F
100
AcDbEntity
  8
LIVELLO_1
 62
     7
100
AcDb2dPolyline
 66
     1
 10
0.0
 20
0.0
 30
0.0
 70
     1
  0
VERTEX
  5
120
100
AcDbEntity
  8
LIVELLO_1
 62
     7
100
AcDbVertex
100
AcDb2dVertex
 10
7.642169
 20
26.99396
 30
0.0
  0
VERTEX
  5
121
100
AcDbEntity
  8
LIVELLO_1
 62
     7
100
AcDbVertex
100
AcDb2dVertex
 10
7.642169
 20
26.290299
 30
0.0
  0
VERTEX
  5
122
100
AcDbEntity
  8
LIVELLO_1
 62
     7
100
AcDbVertex
100
AcDb2dVertex
 10
1.792914
 20
26.99396
 30
0.0
  0
SEQEND
  5
123
100
AcDbEntity
  8
LIVELLO_1
 62
     7
  0
SPLINE
  5
11E
100
AcDbEntity
  8
LIVELLO_1
 62
     7
100
AcDbSpline
210
0.0
220
0.0
230
1.0
 70
     8
 71
     3
 72
    23
 73
    19
 74
     0
 42
0.00000001
 43
0.00000001
 40
0.0
 40
0.0
 40
0.0
 40
0.0
 40
1.0
 40
1.0
 40
1.0
 40
2.0
 40
2.0
 40
2.0
 40
3.0
 40
3.0
 40
3.0
 40
4.0
 40
4.0
 40
4.0
 40
5.0
 40
5.0
 40
5.0
 40
6.0
 40
6.0
 40
6.0
 40
6.0
 10
9.3046000162760407
 20
45.763701036241315
 30
0.0
 10
9.3046000162760407
 20
45.763701036241315
 30
0.0
 10
9.3046000162760407
 20
39.485531277126732
 30
0.0
 10
9.3046000162760407
 20
39.485531277126732
 30
0.0
 10
9.3046000162760407
 20
39.485531277126732
 30
0.0
 10
8.1263773600260407
 20
39.485531277126732
 30
0.0
 10
8.1263773600260407
 20
39.485531277126732
 30
0.0
 10
8.1263773600260407
 20
39.485531277126732
 30
0.0
 10
8.1263773600260407
 20
39.031639946831596
 30
0.0
 10
8.1263773600260407
 20
39.031639946831596
 30
0.0
 10
8.1263773600260407
 20
39.031639946831596
 30
0.0
 10
7.6421691894531243
 20
39.031639946831596
 30
0.0
 10
7.6421691894531243
 20
39.031639946831596
 30
0.0
 10
7.6421691894531243
 20
39.031639946831596
 30
0.0
 10
7.6421691894531243
 20
43.918852403428815
 30
0.0
 10
7.6421691894531243
 20
43.918852403428815
 30
0.0
 10
8.3392842610677071
 20
44.131759304470485
 30
0.0
 10
8.87361857096354
 20
44.639049614800342
 30
0.0
 10
9.3046000162760407
 20
45.763701036241315
 30
0.0
  0
POLYLINE
  5
114
100
AcDbEntity
  8
LIVELLO_1
 62
     7
100
AcDb2dPolyline
 66
     1
 10
0.0
 20
0.0
 30
0.0
 70
     1
  0
VERTEX
  5
115
100
AcDbEntity
  8
LIVELLO_1
 62
     7
100
AcDbVertex
100
AcDb2dVertex
 10
9.3046
 20
37.83223
 30
0.0
  0
VERTEX
  5
116
100
AcDbEntity
  8
LIVELLO_1
 62
     7
100
AcDbVertex
100
AcDb2dVertex
 10
9.3046
 20
33.84057
 30
0.0
  0
VERTEX
  5
117
100
AcDbEntity
  8
LIVELLO_1
 62
     7
100
AcDbVertex
100
AcDb2dVertex
 10
8.126377
 20
33.84057
 30
0.0
  0
VERTEX
  5
118
100
AcDbEntity
  8
LIVELLO_1
 62
     7
100
AcDbVertex
100
AcDb2dVertex
 10
8.126377
 20
33.387196
 30
0.0
  0
VERTEX
  5
119
100
AcDbEntity
  8
LIVELLO_1
 62
     7
100
AcDbVertex
100
AcDb2dVertex
 10
7.642169
 20
33.387196
 30
0.0
  0
VERTEX
  5
11A
100
AcDbEntity
  8
LIVELLO_1
 62
     7
100
AcDbVertex
100
AcDb2dVertex
 10
7.642169
 20
38.285949
 30
0.0
  0
VERTEX
  5
11B
100
AcDbEntity
  8
LIVELLO_1
 62
     7
100
AcDbVertex
100
AcDb2dVertex
 10
8.126377
 20
38.285949
 30
0.0
  0
VERTEX
  5
11C
100
AcDbEntity
  8
LIVELLO_1
 62
     7
100
AcDbVertex
100
AcDb2dVertex
 10
8.126377
 20
37.83223
 30
0.0
  0
SEQEND
  5
11D
100
AcDbEntity
  8
LIVELLO_1
 62
     7
  0
POLYLINE
  5
10A
100
AcDbEntity
  8
LIVELLO_1
 62
     7
100
AcDb2dPolyline
 66
     1
 10
0.0
 20
0.0
 30
0.0
 70
     1
  0
VERTEX
  5
10B
100
AcDbEntity
  8
LIVELLO_1
 62
     7
100
AcDbVertex
100
AcDb2dVertex
 10
9.3046
 20
32.187441
 30
0.0
  0
VERTEX
  5
10C
100
AcDbEntity
  8
LIVELLO_1
 62
     7
100
AcDbVertex
100
AcDb2dVertex
 10
9.3046
 20
28.193714
 30
0.0
  0
VERTEX
  5
10D
100
AcDbEntity
  8
LIVELLO_1
 62
     7
100
AcDbVertex
100
AcDb2dVertex
 10
8.126377
 20
28.193714
 30
0.0
  0
VERTEX
  5
10E
100
AcDbEntity
  8
LIVELLO_1
 62
     7
100
AcDbVertex
100
AcDb2dVertex
 10
8.126377
 20
27.744646
 30
0.0
  0
VERTEX
  5
10F
100
AcDbEntity
  8
LIVELLO_1
 62
     7
100
AcDbVertex
100
AcDb2dVertex
 10
7.642169
 20
27.744646
 30
0.0
  0
VERTEX
  5
110
100
AcDbEntity
  8
LIVELLO_1
 62
     7
100
AcDbVertex
100
AcDb2dVertex
 10
7.642169
 20
32.638921
 30
0.0
  0
VERTEX
  5
111
100
AcDbEntity
  8
LIVELLO_1
 62
     7
100
AcDbVertex
100
AcDb2dVertex
 10
8.126377
 20
32.638921
 30
0.0
  0
VERTEX
  5
112
100
AcDbEntity
  8
LIVELLO_1
 62
     7
100
AcDbVertex
100
AcDb2dVertex
 10
8.126377
 20
32.187441
 30
0.0
  0
SEQEND
  5
113
100
AcDbEntity
  8
LIVELLO_1
 62
     7
  0
POLYLINE
  5
100
100
AcDbEntity
  8
LIVELLO_1
 62
     7
100
AcDb2dPolyline
 66
     1
 10
0.0
 20
0.0
 30
0.0
 70
     1
  0
VERTEX
  5
101
100
AcDbEntity
  8
LIVELLO_1
 62
     7
100
AcDbVertex
100
AcDb2dVertex
 10
9.3046
 20
26.545236
 30
0.0
  0
VERTEX
  5
102
100
AcDbEntity
  8
LIVELLO_1
 62
     7
100
AcDbVertex
100
AcDb2dVertex
 10
9.3046
 20
22.550992
 30
0.0
  0
VERTEX
  5
103
100
AcDbEntity
  8
LIVELLO_1
 62
     7
100
AcDbVertex
100
AcDb2dVertex
 10
8.126377
 20
22.550992
 30
0.0
  0
VERTEX
  5
104
100
AcDbEntity
  8
LIVELLO_1
 62
     7
100
AcDbVertex
100
AcDb2dVertex
 10
8.126377
 20
22.099857
 30
0.0
  0
VERTEX
  5
105
100
AcDbEntity
  8
LIVELLO_1
 62
     7
100
AcDbVertex
100
AcDb2dVertex
 10
7.642169
 20
22.099857
 30
0.0
  0
VERTEX
  5
106
100
AcDbEntity
  8
LIVELLO_1
 62
     7
100
AcDbVertex
100
AcDb2dVertex
 10
7.642169
 20
26.99396
 30
0.0
  0
VERTEX
  5
107
100
AcDbEntity
  8
LIVELLO_1
 62
     7
100
AcDbVertex
100
AcDb2dVertex
 10
8.126377
 20
26.99396
 30
0.0
  0
VERTEX
  5
108
100
AcDbEntity
  8
LIVELLO_1
 62
     7
100
AcDbVertex
100
AcDb2dVertex
 10
8.126377
 20
26.545236
 30
0.0
  0
SEQEND
  5
109
100
AcDbEntity
  8
LIVELLO_1
 62
     7
  0
POLYLINE
  5
F6
100
AcDbEntity
  8
LIVELLO_1
 62
     7
100
AcDb2dPolyline
 66
     1
 10
0.0
 20
0.0
 30
0.0
 70
     1
  0
VERTEX
  5
F7
100
AcDbEntity
  8
LIVELLO_1
 62
     7
100
AcDbVertex
100
AcDb2dVertex
 10
9.3046
 20
20.900275
 30
0.0
  0
VERTEX
  5
F8
100
AcDbEntity
  8
LIVELLO_1
 62
     7
100
AcDbVertex
100
AcDb2dVertex
 10
9.3046
 20
16.906548
 30
0.0
  0
VERTEX
  5
F9
100
AcDbEntity
  8
LIVELLO_1
 62
     7
100
AcDbVertex
100
AcDb2dVertex
 10
8.126377
 20
16.906548
 30
0.0
  0
VERTEX
  5
FA
100
AcDbEntity
  8
LIVELLO_1
 62
     7
100
AcDbVertex
100
AcDb2dVertex
 10
8.126377
 20
16.455068
 30
0.0
  0
VERTEX
  5
FB
100
AcDbEntity
  8
LIVELLO_1
 62
     7
100
AcDbVertex
100
AcDb2dVertex
 10
7.642169
 20
16.455068
 30
0.0
  0
VERTEX
  5
FC
100
AcDbEntity
  8
LIVELLO_1
 62
     7
100
AcDbVertex
100
AcDb2dVertex
 10
7.642169
 20
21.351582
 30
0.0
  0
VERTEX
  5
FD
100
AcDbEntity
  8
LIVELLO_1
 62
     7
100
AcDbVertex
100
AcDb2dVertex
 10
8.126377
 20
21.351582
 30
0.0
  0
VERTEX
  5
FE
100
AcDbEntity
  8
LIVELLO_1
 62
     7
100
AcDbVertex
100
AcDb2dVertex
 10
8.126377
 20
20.900275
 30
0.0
  0
SEQEND
  5
FF
100
AcDbEntity
  8
LIVELLO_1
 62
     7
  0
POLYLINE
  5
EC
100
AcDbEntity
  8
LIVELLO_1
 62
     7
100
AcDb2dPolyline
 66
     1
 10
0.0
 20
0.0
 30
0.0
 70
     1
  0
VERTEX
  5
ED
100
AcDbEntity
  8
LIVELLO_1
 62
     7
100
AcDbVertex
100
AcDb2dVertex
 10
9.3046
 20
15.255658
 30
0.0
  0
VERTEX
  5
EE
100
AcDbEntity
  8
LIVELLO_1
 62
     7
100
AcDbVertex
100
AcDb2dVertex
 10
9.3046
 20
11.26417
 30
0.0
  0
VERTEX
  5
EF
100
AcDbEntity
  8
LIVELLO_1
 62
     7
100
AcDbVertex
100
AcDb2dVertex
 10
8.126377
 20
11.26417
 30
0.0
  0
VERTEX
  5
F0
100
AcDbEntity
  8
LIVELLO_1
 62
     7
100
AcDbVertex
100
AcDb2dVertex
 10
8.126377
 20
10.810624
 30
0.0
  0
VERTEX
  5
F1
100
AcDbEntity
  8
LIVELLO_1
 62
     7
100
AcDbVertex
100
AcDb2dVertex
 10
7.642169
 20
10.810624
 30
0.0
  0
VERTEX
  5
F2
100
AcDbEntity
  8
LIVELLO_1
 62
     7
100
AcDbVertex
100
AcDb2dVertex
 10
7.642169
 20
15.706793
 30
0.0
  0
VERTEX
  5
F3
100
AcDbEntity
  8
LIVELLO_1
 62
     7
100
AcDbVertex
100
AcDb2dVertex
 10
8.126377
 20
15.706793
 30
0.0
  0
VERTEX
  5
F4
100
AcDbEntity
  8
LIVELLO_1
 62
     7
100
AcDbVertex
100
AcDb2dVertex
 10
8.126377
 20
15.255658
 30
0.0
  0
SEQEND
  5
F5
100
AcDbEntity
  8
LIVELLO_1
 62
     7
  0
POLYLINE
  5
E2
100
AcDbEntity
  8
LIVELLO_1
 62
     7
100
AcDb2dPolyline
 66
     1
 10
0.0
 20
0.0
 30
0.0
 70
     1
  0
VERTEX
  5
E3
100
AcDbEntity
  8
LIVELLO_1
 62
     7
100
AcDbVertex
100
AcDb2dVertex
 10
9.3046
 20
9.610697
 30
0.0
  0
VERTEX
  5
E4
100
AcDbEntity
  8
LIVELLO_1
 62
     7
100
AcDbVertex
100
AcDb2dVertex
 10
9.3046
 20
5.619381
 30
0.0
  0
VERTEX
  5
E5
100
AcDbEntity
  8
LIVELLO_1
 62
     7
100
AcDbVertex
100
AcDb2dVertex
 10
8.126377
 20
5.619381
 30
0.0
  0
VERTEX
  5
E6
100
AcDbEntity
  8
LIVELLO_1
 62
     7
100
AcDbVertex
100
AcDb2dVertex
 10
8.126377
 20
5.168074
 30
0.0
  0
VERTEX
  5
E7
100
AcDbEntity
  8
LIVELLO_1
 62
     7
100
AcDbVertex
100
AcDb2dVertex
 10
7.642169
 20
5.168074
 30
0.0
  0
VERTEX
  5
E8
100
AcDbEntity
  8
LIVELLO_1
 62
     7
100
AcDbVertex
100
AcDb2dVertex
 10
7.642169
 20
10.064588
 30
0.0
  0
VERTEX
  5
E9
100
AcDbEntity
  8
LIVELLO_1
 62
     7
100
AcDbVertex
100
AcDb2dVertex
 10
8.126377
 20
10.064588
 30
0.0
  0
VERTEX
  5
EA
100
AcDbEntity
  8
LIVELLO_1
 62
     7
100
AcDbVertex
100
AcDb2dVertex
 10
8.126377
 20
9.610697
 30
0.0
  0
SEQEND
  5
EB
100
AcDbEntity
  8
LIVELLO_1
 62
     7
  0
POLYLINE
  5
D8
100
AcDbEntity
  8
LIVELLO_1
 62
     7
100
AcDb2dPolyline
 66
     1
 10
0.0
 20
0.0
 30
0.0
 70
     1
  0
VERTEX
  5
D9
100
AcDbEntity
  8
LIVELLO_1
 62
     7
100
AcDbVertex
100
AcDb2dVertex
 10
9.3046
 20
3.968492
 30
0.0
  0
VERTEX
  5
DA
100
AcDbEntity
  8
LIVELLO_1
 62
     7
100
AcDbVertex
100
AcDb2dVertex
 10
9.3046
 20
-0.025408
 30
0.0
  0
VERTEX
  5
DB
100
AcDbEntity
  8
LIVELLO_1
 62
     7
100
AcDbVertex
100
AcDb2dVertex
 10
8.126377
 20
-0.025408
 30
0.0
  0
VERTEX
  5
DC
100
AcDbEntity
  8
LIVELLO_1
 62
     7
100
AcDbVertex
100
AcDb2dVertex
 10
8.126377
 20
-0.476715
 30
0.0
  0
VERTEX
  5
DD
100
AcDbEntity
  8
LIVELLO_1
 62
     7
100
AcDbVertex
100
AcDb2dVertex
 10
7.642169
 20
-0.476715
 30
0.0
  0
VERTEX
  5
DE
100
AcDbEntity
  8
LIVELLO_1
 62
     7
100
AcDbVertex
100
AcDb2dVertex
 10
7.642169
 20
4.417388
 30
0.0
  0
VERTEX
  5
DF
100
AcDbEntity
  8
LIVELLO_1
 62
     7
100
AcDbVertex
100
AcDb2dVertex
 10
8.126377
 20
4.417388
 30
0.0
  0
VERTEX
  5
E0
100
AcDbEntity
  8
LIVELLO_1
 62
     7
100
AcDbVertex
100
AcDb2dVertex
 10
8.126377
 20
3.968492
 30
0.0
  0
SEQEND
  5
E1
100
AcDbEntity
  8
LIVELLO_1
 62
     7
  0
POLYLINE
  5
CE
100
AcDbEntity
  8
LIVELLO_1
 62
     7
100
AcDb2dPolyline
 66
     1
 10
0.0
 20
0.0
 30
0.0
 70
     1
  0
VERTEX
  5
CF
100
AcDbEntity
  8
LIVELLO_1
 62
     7
100
AcDbVertex
100
AcDb2dVertex
 10
9.3046
 20
-1.676297
 30
0.0
  0
VERTEX
  5
D0
100
AcDbEntity
  8
LIVELLO_1
 62
     7
100
AcDbVertex
100
AcDb2dVertex
 10
9.3046
 20
-5.670024
 30
0.0
  0
VERTEX
  5
D1
100
AcDbEntity
  8
LIVELLO_1
 62
     7
100
AcDbVertex
100
AcDb2dVertex
 10
8.126377
 20
-5.670024
 30
0.0
  0
VERTEX
  5
D2
100
AcDbEntity
  8
LIVELLO_1
 62
     7
100
AcDbVertex
100
AcDb2dVertex
 10
8.126377
 20
-6.121504
 30
0.0
  0
VERTEX
  5
D3
100
AcDbEntity
  8
LIVELLO_1
 62
     7
100
AcDbVertex
100
AcDb2dVertex
 10
7.642169
 20
-6.121504
 30
0.0
  0
VERTEX
  5
D4
100
AcDbEntity
  8
LIVELLO_1
 62
     7
100
AcDbVertex
100
AcDb2dVertex
 10
7.642169
 20
-1.227229
 30
0.0
  0
VERTEX
  5
D5
100
AcDbEntity
  8
LIVELLO_1
 62
     7
100
AcDbVertex
100
AcDb2dVertex
 10
8.126377
 20
-1.227229
 30
0.0
  0
VERTEX
  5
D6
100
AcDbEntity
  8
LIVELLO_1
 62
     7
100
AcDbVertex
100
AcDb2dVertex
 10
8.126377
 20
-1.676297
 30
0.0
  0
SEQEND
  5
D7
100
AcDbEntity
  8
LIVELLO_1
 62
     7
  0
POLYLINE
  5
C4
100
AcDbEntity
  8
LIVELLO_1
 62
     7
100
AcDb2dPolyline
 66
     1
 10
0.0
 20
0.0
 30
0.0
 70
     1
  0
VERTEX
  5
C5
100
AcDbEntity
  8
LIVELLO_1
 62
     7
100
AcDbVertex
100
AcDb2dVertex
 10
9.3046
 20
-7.323326
 30
0.0
  0
VERTEX
  5
C6
100
AcDbEntity
  8
LIVELLO_1
 62
     7
100
AcDbVertex
100
AcDb2dVertex
 10
9.3046
 20
-11.314985
 30
0.0
  0
VERTEX
  5
C7
100
AcDbEntity
  8
LIVELLO_1
 62
     7
100
AcDbVertex
100
AcDb2dVertex
 10
8.126377
 20
-11.314985
 30
0.0
  0
VERTEX
  5
C8
100
AcDbEntity
  8
LIVELLO_1
 62
     7
100
AcDbVertex
100
AcDb2dVertex
 10
8.126377
 20
-11.766121
 30
0.0
  0
VERTEX
  5
C9
100
AcDbEntity
  8
LIVELLO_1
 62
     7
100
AcDbVertex
100
AcDb2dVertex
 10
7.642169
 20
-11.766121
 30
0.0
  0
VERTEX
  5
CA
100
AcDbEntity
  8
LIVELLO_1
 62
     7
100
AcDbVertex
100
AcDb2dVertex
 10
7.642169
 20
-6.869779
 30
0.0
  0
VERTEX
  5
CB
100
AcDbEntity
  8
LIVELLO_1
 62
     7
100
AcDbVertex
100
AcDb2dVertex
 10
8.126377
 20
-6.869779
 30
0.0
  0
VERTEX
  5
CC
100
AcDbEntity
  8
LIVELLO_1
 62
     7
100
AcDbVertex
100
AcDb2dVertex
 10
8.126377
 20
-7.323326
 30
0.0
  0
SEQEND
  5
CD
100
AcDbEntity
  8
LIVELLO_1
 62
     7
  0
POLYLINE
  5
BA
100
AcDbEntity
  8
LIVELLO_1
 62
     7
100
AcDb2dPolyline
 66
     1
 10
0.0
 20
0.0
 30
0.0
 70
     1
  0
VERTEX
  5
BB
100
AcDbEntity
  8
LIVELLO_1
 62
     7
100
AcDbVertex
100
AcDb2dVertex
 10
9.3046
 20
-12.965875
 30
0.0
  0
VERTEX
  5
BC
100
AcDbEntity
  8
LIVELLO_1
 62
     7
100
AcDbVertex
100
AcDb2dVertex
 10
9.3046
 20
-16.957535
 30
0.0
  0
VERTEX
  5
BD
100
AcDbEntity
  8
LIVELLO_1
 62
     7
100
AcDbVertex
100
AcDb2dVertex
 10
8.126377
 20
-16.957535
 30
0.0
  0
VERTEX
  5
BE
100
AcDbEntity
  8
LIVELLO_1
 62
     7
100
AcDbVertex
100
AcDb2dVertex
 10
8.126377
 20
-17.41091
 30
0.0
  0
VERTEX
  5
BF
100
AcDbEntity
  8
LIVELLO_1
 62
     7
100
AcDbVertex
100
AcDb2dVertex
 10
7.642169
 20
-17.41091
 30
0.0
  0
VERTEX
  5
C0
100
AcDbEntity
  8
LIVELLO_1
 62
     7
100
AcDbVertex
100
AcDb2dVertex
 10
7.642169
 20
-12.514395
 30
0.0
  0
VERTEX
  5
C1
100
AcDbEntity
  8
LIVELLO_1
 62
     7
100
AcDbVertex
100
AcDb2dVertex
 10
8.126377
 20
-12.514395
 30
0.0
  0
VERTEX
  5
C2
100
AcDbEntity
  8
LIVELLO_1
 62
     7
100
AcDbVertex
100
AcDb2dVertex
 10
8.126377
 20
-12.965875
 30
0.0
  0
SEQEND
  5
C3
100
AcDbEntity
  8
LIVELLO_1
 62
     7
  0
POLYLINE
  5
B0
100
AcDbEntity
  8
LIVELLO_1
 62
     7
100
AcDb2dPolyline
 66
     1
 10
0.0
 20
0.0
 30
0.0
 70
     1
  0
VERTEX
  5
B1
100
AcDbEntity
  8
LIVELLO_1
 62
     7
100
AcDbVertex
100
AcDb2dVertex
 10
9.3046
 20
-18.61032
 30
0.0
  0
VERTEX
  5
B2
100
AcDbEntity
  8
LIVELLO_1
 62
     7
100
AcDbVertex
100
AcDb2dVertex
 10
9.3046
 20
-22.604219
 30
0.0
  0
VERTEX
  5
B3
100
AcDbEntity
  8
LIVELLO_1
 62
     7
100
AcDbVertex
100
AcDb2dVertex
 10
8.126377
 20
-22.604219
 30
0.0
  0
VERTEX
  5
B4
100
AcDbEntity
  8
LIVELLO_1
 62
     7
100
AcDbVertex
100
AcDb2dVertex
 10
8.126377
 20
-23.053459
 30
0.0
  0
VERTEX
  5
B5
100
AcDbEntity
  8
LIVELLO_1
 62
     7
100
AcDbVertex
100
AcDb2dVertex
 10
7.642169
 20
-23.053459
 30
0.0
  0
VERTEX
  5
B6
100
AcDbEntity
  8
LIVELLO_1
 62
     7
100
AcDbVertex
100
AcDb2dVertex
 10
7.642169
 20
-18.159357
 30
0.0
  0
VERTEX
  5
B7
100
AcDbEntity
  8
LIVELLO_1
 62
     7
100
AcDbVertex
100
AcDb2dVertex
 10
8.126377
 20
-18.159357
 30
0.0
  0
VERTEX
  5
B8
100
AcDbEntity
  8
LIVELLO_1
 62
     7
100
AcDbVertex
100
AcDb2dVertex
 10
8.126377
 20
-18.61032
 30
0.0
  0
SEQEND
  5
B9
100
AcDbEntity
  8
LIVELLO_1
 62
     7
  0
POLYLINE
  5
A6
100
AcDbEntity
  8
LIVELLO_1
 62
     7
100
AcDb2dPolyline
 66
     1
 10
0.0
 20
0.0
 30
0.0
 70
     1
  0
VERTEX
  5
A7
100
AcDbEntity
  8
LIVELLO_1
 62
     7
100
AcDbVertex
100
AcDb2dVertex
 10
9.3046
 20
-24.253042
 30
0.0
  0
VERTEX
  5
A8
100
AcDbEntity
  8
LIVELLO_1
 62
     7
100
AcDbVertex
100
AcDb2dVertex
 10
9.3046
 20
-28.246596
 30
0.0
  0
VERTEX
  5
A9
100
AcDbEntity
  8
LIVELLO_1
 62
     7
100
AcDbVertex
100
AcDb2dVertex
 10
8.126377
 20
-28.246596
 30
0.0
  0
VERTEX
  5
AA
100
AcDbEntity
  8
LIVELLO_1
 62
     7
100
AcDbVertex
100
AcDb2dVertex
 10
8.126377
 20
-28.697904
 30
0.0
  0
VERTEX
  5
AB
100
AcDbEntity
  8
LIVELLO_1
 62
     7
100
AcDbVertex
100
AcDb2dVertex
 10
7.642169
 20
-28.697904
 30
0.0
  0
VERTEX
  5
AC
100
AcDbEntity
  8
LIVELLO_1
 62
     7
100
AcDbVertex
100
AcDb2dVertex
 10
7.642169
 20
-23.804146
 30
0.0
  0
VERTEX
  5
AD
100
AcDbEntity
  8
LIVELLO_1
 62
     7
100
AcDbVertex
100
AcDb2dVertex
 10
8.126377
 20
-23.804146
 30
0.0
  0
VERTEX
  5
AE
100
AcDbEntity
  8
LIVELLO_1
 62
     7
100
AcDbVertex
100
AcDb2dVertex
 10
8.126377
 20
-24.253042
 30
0.0
  0
SEQEND
  5
AF
100
AcDbEntity
  8
LIVELLO_1
 62
     7
  0
POLYLINE
  5
9C
100
AcDbEntity
  8
LIVELLO_1
 62
     7
100
AcDb2dPolyline
 66
     1
 10
0.0
 20
0.0
 30
0.0
 70
     1
  0
VERTEX
  5
9D
100
AcDbEntity
  8
LIVELLO_1
 62
     7
100
AcDbVertex
100
AcDb2dVertex
 10
9.3046
 20
-29.897486
 30
0.0
  0
VERTEX
  5
9E
100
AcDbEntity
  8
LIVELLO_1
 62
     7
100
AcDbVertex
100
AcDb2dVertex
 10
9.3046
 20
-33.89173
 30
0.0
  0
VERTEX
  5
9F
100
AcDbEntity
  8
LIVELLO_1
 62
     7
100
AcDbVertex
100
AcDb2dVertex
 10
8.126377
 20
-33.89173
 30
0.0
  0
VERTEX
  5
A0
100
AcDbEntity
  8
LIVELLO_1
 62
     7
100
AcDbVertex
100
AcDb2dVertex
 10
8.126377
 20
-34.342693
 30
0.0
  0
VERTEX
  5
A1
100
AcDbEntity
  8
LIVELLO_1
 62
     7
100
AcDbVertex
100
AcDb2dVertex
 10
7.642169
 20
-34.342693
 30
0.0
  0
VERTEX
  5
A2
100
AcDbEntity
  8
LIVELLO_1
 62
     7
100
AcDbVertex
100
AcDb2dVertex
 10
7.642169
 20
-29.446523
 30
0.0
  0
VERTEX
  5
A3
100
AcDbEntity
  8
LIVELLO_1
 62
     7
100
AcDbVertex
100
AcDb2dVertex
 10
8.126377
 20
-29.446523
 30
0.0
  0
VERTEX
  5
A4
100
AcDbEntity
  8
LIVELLO_1
 62
     7
100
AcDbVertex
100
AcDb2dVertex
 10
8.126377
 20
-29.897486
 30
0.0
  0
SEQEND
  5
A5
100
AcDbEntity
  8
LIVELLO_1
 62
     7
  0
POLYLINE
  5
92
100
AcDbEntity
  8
LIVELLO_1
 62
     7
100
AcDb2dPolyline
 66
     1
 10
0.0
 20
0.0
 30
0.0
 70
     1
  0
VERTEX
  5
93
100
AcDbEntity
  8
LIVELLO_1
 62
     7
100
AcDbVertex
100
AcDb2dVertex
 10
9.3046
 20
-35.542275
 30
0.0
  0
VERTEX
  5
94
100
AcDbEntity
  8
LIVELLO_1
 62
     7
100
AcDbVertex
100
AcDb2dVertex
 10
9.3046
 20
-39.534107
 30
0.0
  0
VERTEX
  5
95
100
AcDbEntity
  8
LIVELLO_1
 62
     7
100
AcDbVertex
100
AcDb2dVertex
 10
8.126377
 20
-39.534107
 30
0.0
  0
VERTEX
  5
96
100
AcDbEntity
  8
LIVELLO_1
 62
     7
100
AcDbVertex
100
AcDb2dVertex
 10
8.126377
 20
-39.987482
 30
0.0
  0
VERTEX
  5
97
100
AcDbEntity
  8
LIVELLO_1
 62
     7
100
AcDbVertex
100
AcDb2dVertex
 10
7.642169
 20
-39.987482
 30
0.0
  0
VERTEX
  5
98
100
AcDbEntity
  8
LIVELLO_1
 62
     7
100
AcDbVertex
100
AcDb2dVertex
 10
7.642169
 20
-35.090967
 30
0.0
  0
VERTEX
  5
99
100
AcDbEntity
  8
LIVELLO_1
 62
     7
100
AcDbVertex
100
AcDb2dVertex
 10
8.126377
 20
-35.090967
 30
0.0
  0
VERTEX
  5
9A
100
AcDbEntity
  8
LIVELLO_1
 62
     7
100
AcDbVertex
100
AcDb2dVertex
 10
8.126377
 20
-35.542275
 30
0.0
  0
SEQEND
  5
9B
100
AcDbEntity
  8
LIVELLO_1
 62
     7
  0
POLYLINE
  5
88
100
AcDbEntity
  8
LIVELLO_1
 62
     7
100
AcDb2dPolyline
 66
     1
 10
0.0
 20
0.0
 30
0.0
 70
     1
  0
VERTEX
  5
89
100
AcDbEntity
  8
LIVELLO_1
 62
     7
100
AcDbVertex
100
AcDb2dVertex
 10
9.3046
 20
-41.187064
 30
0.0
  0
VERTEX
  5
8A
100
AcDbEntity
  8
LIVELLO_1
 62
     7
100
AcDbVertex
100
AcDb2dVertex
 10
9.3046
 20
-45.180963
 30
0.0
  0
VERTEX
  5
8B
100
AcDbEntity
  8
LIVELLO_1
 62
     7
100
AcDbVertex
100
AcDb2dVertex
 10
8.126377
 20
-45.180963
 30
0.0
  0
VERTEX
  5
8C
100
AcDbEntity
  8
LIVELLO_1
 62
     7
100
AcDbVertex
100
AcDb2dVertex
 10
8.126377
 20
-45.632271
 30
0.0
  0
VERTEX
  5
8D
100
AcDbEntity
  8
LIVELLO_1
 62
     7
100
AcDbVertex
100
AcDb2dVertex
 10
7.642169
 20
-45.632271
 30
0.0
  0
VERTEX
  5
8E
100
AcDbEntity
  8
LIVELLO_1
 62
     7
100
AcDbVertex
100
AcDb2dVertex
 10
7.642169
 20
-40.735756
 30
0.0
  0
VERTEX
  5
8F
100
AcDbEntity
  8
LIVELLO_1
 62
     7
100
AcDbVertex
100
AcDb2dVertex
 10
8.126377
 20
-40.735756
 30
0.0
  0
VERTEX
  5
90
100
AcDbEntity
  8
LIVELLO_1
 62
     7
100
AcDbVertex
100
AcDb2dVertex
 10
8.126377
 20
-41.187064
 30
0.0
  0
SEQEND
  5
91
100
AcDbEntity
  8
LIVELLO_1
 62
     7
  0
POLYLINE
  5
7E
100
AcDbEntity
  8
LIVELLO_1
 62
     7
100
AcDb2dPolyline
 66
     1
 10
0.0
 20
0.0
 30
0.0
 70
     1
  0
VERTEX
  5
7F
100
AcDbEntity
  8
LIVELLO_1
 62
     7
100
AcDbVertex
100
AcDb2dVertex
 10
9.3046
 20
-46.831853
 30
0.0
  0
VERTEX
  5
80
100
AcDbEntity
  8
LIVELLO_1
 62
     7
100
AcDbVertex
100
AcDb2dVertex
 10
9.3046
 20
-50.825752
 30
0.0
  0
VERTEX
  5
81
100
AcDbEntity
  8
LIVELLO_1
 62
     7
100
AcDbVertex
100
AcDb2dVertex
 10
8.126377
 20
-50.825752
 30
0.0
  0
VERTEX
  5
82
100
AcDbEntity
  8
LIVELLO_1
 62
     7
100
AcDbVertex
100
AcDb2dVertex
 10
8.126377
 20
-51.274648
 30
0.0
  0
VERTEX
  5
83
100
AcDbEntity
  8
LIVELLO_1
 62
     7
100
AcDbVertex
100
AcDb2dVertex
 10
7.642169
 20
-51.274648
 30
0.0
  0
VERTEX
  5
84
100
AcDbEntity
  8
LIVELLO_1
 62
     7
100
AcDbVertex
100
AcDb2dVertex
 10
7.642169
 20
-46.380545
 30
0.0
  0
VERTEX
  5
85
100
AcDbEntity
  8
LIVELLO_1
 62
     7
100
AcDbVertex
100
AcDb2dVertex
 10
8.126377
 20
-46.380545
 30
0.0
  0
VERTEX
  5
86
100
AcDbEntity
  8
LIVELLO_1
 62
     7
100
AcDbVertex
100
AcDb2dVertex
 10
8.126377
 20
-46.831853
 30
0.0
  0
SEQEND
  5
87
100
AcDbEntity
  8
LIVELLO_1
 62
     7
  0
POLYLINE
  5
74
100
AcDbEntity
  8
LIVELLO_1
 62
     7
100
AcDb2dPolyline
 66
     1
 10
0.0
 20
0.0
 30
0.0
 70
     1
  0
VERTEX
  5
75
100
AcDbEntity
  8
LIVELLO_1
 62
     7
100
AcDbVertex
100
AcDb2dVertex
 10
9.3046
 20
-52.473886
 30
0.0
  0
VERTEX
  5
76
100
AcDbEntity
  8
LIVELLO_1
 62
     7
100
AcDbVertex
100
AcDb2dVertex
 10
9.3046
 20
-56.468129
 30
0.0
  0
VERTEX
  5
77
100
AcDbEntity
  8
LIVELLO_1
 62
     7
100
AcDbVertex
100
AcDb2dVertex
 10
8.126377
 20
-56.468129
 30
0.0
  0
VERTEX
  5
78
100
AcDbEntity
  8
LIVELLO_1
 62
     7
100
AcDbVertex
100
AcDb2dVertex
 10
8.126377
 20
-56.919092
 30
0.0
  0
VERTEX
  5
79
100
AcDbEntity
  8
LIVELLO_1
 62
     7
100
AcDbVertex
100
AcDb2dVertex
 10
7.642169
 20
-56.919092
 30
0.0
  0
VERTEX
  5
7A
100
AcDbEntity
  8
LIVELLO_1
 62
     7
100
AcDbVertex
100
AcDb2dVertex
 10
7.642169
 20
-52.025334
 30
0.0
  0
VERTEX
  5
7B
100
AcDbEntity
  8
LIVELLO_1
 62
     7
100
AcDbVertex
100
AcDb2dVertex
 10
8.126377
 20
-52.025334
 30
0.0
  0
VERTEX
  5
7C
100
AcDbEntity
  8
LIVELLO_1
 62
     7
100
AcDbVertex
100
AcDb2dVertex
 10
8.126377
 20
-52.473886
 30
0.0
  0
SEQEND
  5
7D
100
AcDbEntity
  8
LIVELLO_1
 62
     7
  0
SPLINE
  5
73
100
AcDbEntity
  8
LIVELLO_1
 62
     7
100
AcDbSpline
210
0.0
220
0.0
230
1.0
 70
     8
 71
     3
 72
    23
 73
    19
 74
     0
 42
0.00000001
 43
0.00000001
 40
0.0
 40
0.0
 40
0.0
 40
0.0
 40
1.0
 40
1.0
 40
1.0
 40
2.0
 40
2.0
 40
2.0
 40
3.0
 40
3.0
 40
3.0
 40
4.0
 40
4.0
 40
4.0
 40
5.0
 40
5.0
 40
5.0
 40
6.0
 40
6.0
 40
6.0
 40
6.0
 10
9.3046000162760407
 20
-58.121430799696178
 30
0.0
 10
9.3046000162760407
 20
-58.121430799696178
 30
0.0
 10
9.3046000162760407
 20
-64.402184380425339
 30
0.0
 10
9.3046000162760407
 20
-64.402184380425339
 30
0.0
 10
8.87361857096354
 20
-63.274949137369788
 30
0.0
 10
8.3392842610677071
 20
-62.767831081814229
 30
0.0
 10
7.6421691894531243
 20
-62.554924180772566
 30
0.0
 10
7.6421691894531243
 20
-62.554924180772566
 30
0.0
 10
7.6421691894531243
 20
-57.667711724175341
 30
0.0
 10
7.6421691894531243
 20
-57.667711724175341
 30
0.0
 10
7.6421691894531243
 20
-57.667711724175341
 30
0.0
 10
8.1263773600260407
 20
-57.667711724175341
 30
0.0
 10
8.1263773600260407
 20
-57.667711724175341
 30
0.0
 10
8.1263773600260407
 20
-57.667711724175341
 30
0.0
 10
8.1263773600260407
 20
-58.121430799696178
 30
0.0
 10
8.1263773600260407
 20
-58.121430799696178
 30
0.0
 10
8.1263773600260407
 20
-58.121430799696178
 30
0.0
 10
9.3046000162760407
 20
-58.121430799696178
 30
0.0
 10
9.3046000162760407
 20
-58.121430799696178
 30
0.0
  0
LINE
  5
72
100
AcDbEntity
  8
LIVELLO_1
 62
     7
100
AcDbLine
 10
34.360435
 20
-15.624628
 30
0.0
 11
34.360435
 21
-75.836456
 31
0.0
  0
LINE
  5
71
100
AcDbEntity
  8
LIVELLO_1
 62
     7
100
AcDbLine
 10
34.360435
 20
55.430467
 30
0.0
 11
34.360435
 21
-2.139318
 31
0.0
  0
MTEXT
  5
70
100
AcDbEntity
  8
LIVELLO_1
 62
     7
100
AcDbMText
 10
23.680983
 20
-4.27522
 30
0.0
 40
9.181409
 41
0.0
 71
     1
 72
     2
  1
\fMyriad Roman|b0|i0;\H9.1814;\C7;\U+0033\U+0035\U+0030
  7
STD
210
0.0
220
0.0
230
1.0
 73
     1
 44
1.0
  0
LINE
  5
6F
100
AcDbEntity
  8
LIVELLO_1
 62
     7
100
AcDbLine
 10
-49.233084
 20
77.228447
 30
0.0
 11
-26.935737
 21
77.228447
 31
0.0
  0
LINE
  5
6E
100
AcDbEntity
  8
LIVELLO_1
 62
     7
100
AcDbLine
 10
16.397018
 20
77.228447
 30
0.0
 11
-2.66504
 21
77.228447
 31
0.0
  0
LINE
  5
6D
100
AcDbEntity
  8
LIVELLO_1
 62
     7
100
AcDbLine
 10
-49.233084
 20
72.953773
 30
0.0
 11
-49.233084
 21
81.500538
 31
0.0
  0
LINE
  5
6C
100
AcDbEntity
  8
LIVELLO_1
 62
     7
100
AcDbLine
 10
16.397018
 20
72.953773
 30
0.0
 11
16.397018
 21
81.500538
 31
0.0
  0
MTEXT
  5
6B
100
AcDbEntity
  8
LIVELLO_1
 62
     7
100
AcDbMText
 10
-24.259587
 20
82.911523
 30
0.0
 40
9.201896
 41
0.0
 71
     1
 72
     2
  1
\fMyriad Roman|b0|i0;\H9.2019;\C7;\U+0031\U+0039\U+0032
  7
STD
210
0.0
220
0.0
230
1.0
 73
     1
 44
1.0
  0
LINE
  5
6A
100
AcDbEntity
  8
LIVELLO_1
 62
     7
100
AcDbLine
 10
47.886224
 20
77.228447
 30
0.0
 11
67.896372
 21
77.228447
 31
0.0
  0
LINE
  5
69
100
AcDbEntity
  8
LIVELLO_1
 62
     7
100
AcDbLine
 10
114.062375
 20
77.228447
 30
0.0
 11
90.394913
 21
77.228447
 31
0.0
  0
LINE
  5
68
100
AcDbEntity
  8
LIVELLO_1
 62
     7
100
AcDbLine
 10
47.886224
 20
72.953773
 30
0.0
 11
47.886224
 21
81.500538
 31
0.0
  0
LINE
  5
67
100
AcDbEntity
  8
LIVELLO_1
 62
     7
100
AcDbLine
 10
114.062375
 20
72.953773
 30
0.0
 11
114.062375
 21
81.500538
 31
0.0
  0
MTEXT
  5
66
100
AcDbEntity
  8
LIVELLO_1
 62
     7
100
AcDbMText
 10
69.610652
 20
82.997216
 30
0.0
 40
9.28759
 41
0.0
 71
     1
 72
     2
  1
\fMyriad Roman|b0|i0;\H9.2876;\C7;\U+0031\U+0037\U+0036
  7
STD
210
0.0
220
0.0
230
1.0
 73
     1
 44
1.0
  0
LINE
  5
65
100
AcDbEntity
  8
LIVELLO_1
 62
     7
100
AcDbLine
 10
47.922398
 20
77.226208
 30
0.0
 11
67.920833
 21
77.226208
 31
0.0
  0
LINE
  5
64
100
AcDbEntity
  8
LIVELLO_1
 62
     7
100
AcDbLine
 10
114.062375
 20
77.226208
 30
0.0
 11
90.408693
 21
77.226208
 31
0.0
  0
LINE
  5
63
100
AcDbEntity
  8
LIVELLO_1
 62
     7
100
AcDbLine
 10
47.922398
 20
72.951533
 30
0.0
 11
47.922398
 21
81.500538
 31
0.0
  0
LINE
  5
62
100
AcDbEntity
  8
LIVELLO_1
 62
     7
100
AcDbLine
 10
114.062375
 20
72.951533
 30
0.0
 11
114.062375
 21
81.500538
 31
0.0
  0
LINE
  5
61
100
AcDbEntity
  8
LIVELLO_1
 62
     7
100
AcDbLine
 10
-83.509373
 20
-75.862295
 30
0.0
 11
-92.069918
 21
-75.862295
 31
0.0
  0
LINE
  5
60
100
AcDbEntity
  8
LIVELLO_1
 62
     7
100
AcDbLine
 10
-87.790938
 20
55.425644
 30
0.0
 11
-87.790938
 21
-2.150859
 31
0.0
  0
LINE
  5
5F
100
AcDbEntity
  8
LIVELLO_1
 62
     7
100
AcDbLine
 10
-83.509373
 20
55.425644
 30
0.0
 11
-92.069918
 21
55.425644
 31
0.0
  0
LINE
  5
5E
100
AcDbEntity
  8
LIVELLO_1
 62
     7
100
AcDbLine
 10
-87.790938
 20
-15.638753
 30
0.0
 11
-87.790938
 21
-75.862295
 31
0.0
  0
LINE
  5
5D
100
AcDbEntity
  8
LIVELLO_1
 62
     7
100
AcDbLine
 10
38.653368
 20
-75.862295
 30
0.0
 11
30.092995
 21
-75.862295
 31
0.0
  0
LINE
  5
5C
100
AcDbEntity
  8
LIVELLO_1
 62
     7
100
AcDbLine
 10
34.371804
 20
55.425644
 30
0.0
 11
34.371804
 21
-2.150859
 31
0.0
  0
LINE
  5
5B
100
AcDbEntity
  8
LIVELLO_1
 62
     7
100
AcDbLine
 10
38.653368
 20
55.425644
 30
0.0
 11
30.092995
 21
55.425644
 31
0.0
  0
MTEXT
  5
5A
100
AcDbEntity
  8
LIVELLO_1
 62
     7
100
AcDbMText
 10
-115.15068
 20
-3.10706
 30
0.0
 40
9.142925
 41
0.0
 71
     1
 72
     2
  1
\fMyriad Roman|b0|i0;\H9.1429;\C7;\U+0033\U+0033\U+0033\U+0020\U+0078\U+0020\U+0031\U+0036\U+0030
  7
STD
210
0.0
220
0.0
230
1.0
 73
     1
 44
1.0
  0
CIRCLE
  5
59
100
AcDbEntity
  8
LIVELLO_1
 62
     7
100
AcDbCircle
 10
107.390947
 20
-45.180963
 30
0.0
 40
1.529278
  0
CIRCLE
  5
58
100
AcDbEntity
  8
LIVELLO_1
 62
     7
100
AcDbCircle
 10
56.552018
 20
-45.180963
 30
0.0
 40
1.529278
  0
CIRCLE
  5
57
100
AcDbEntity
  8
LIVELLO_1
 62
     7
100
AcDbCircle
 10
107.390947
 20
23.695797
 30
0.0
 40
1.530484
  0
CIRCLE
  5
56
100
AcDbEntity
  8
LIVELLO_1
 62
     7
100
AcDbCircle
 10
56.552018
 20
23.695797
 30
0.0
 40
1.530484
  0
SPLINE
  5
55
100
AcDbEntity
  8
LIVELLO_1
 62
     7
100
AcDbSpline
210
0.0
220
0.0
230
1.0
 70
     8
 71
     3
 72
    29
 73
    25
 74
     0
 42
0.00000001
 43
0.00000001
 40
0.0
 40
0.0
 40
0.0
 40
0.0
 40
1.0
 40
1.0
 40
1.0
 40
2.0
 40
2.0
 40
2.0
 40
3.0
 40
3.0
 40
3.0
 40
4.0
 40
4.0
 40
4.0
 40
5.0
 40
5.0
 40
5.0
 40
6.0
 40
6.0
 40
6.0
 40
7.0
 40
7.0
 40
7.0
 40
8.0
 40
8.0
 40
8.0
 40
8.0
 10
49.904361300998261
 20
53.620758056640618
 30
0.0
 10
49.904361300998261
 20
54.597959391276035
 30
0.0
 10
50.698800320095479
 20
55.390848117404509
 30
0.0
 10
51.676518419053814
 20
55.390848117404509
 30
0.0
 10
51.676518419053814
 20
55.390848117404509
 30
0.0
 10
112.26610175238714
 20
55.390848117404509
 30
0.0
 10
112.26610175238714
 20
55.390848117404509
 30
0.0
 10
113.24244181315103
 20
55.390848117404509
 30
0.0
 10
114.03756985134548
 20
54.597959391276035
 30
0.0
 10
114.03756985134548
 20
53.620758056640618
 30
0.0
 10
114.03756985134548
 20
53.620758056640618
 30
0.0
 10
114.03756985134548
 20
-72.632862006293394
 30
0.0
 10
114.03756985134548
 20
-72.632862006293394
 30
0.0
 10
114.03756985134548
 20
-73.610580105251728
 30
0.0
 10
113.24244181315103
 20
-74.402952067057285
 30
0.0
 10
112.26610175238714
 20
-74.402952067057285
 30
0.0
 10
112.26610175238714
 20
-74.402952067057285
 30
0.0
 10
51.676518419053814
 20
-74.402952067057285
 30
0.0
 10
51.676518419053814
 20
-74.402952067057285
 30
0.0
 10
50.698800320095479
 20
-74.402952067057285
 30
0.0
 10
49.904361300998261
 20
-73.610580105251728
 30
0.0
 10
49.904361300998261
 20
-72.632862006293394
 30
0.0
 10
49.904361300998261
 20
-72.632862006293394
 30
0.0
 10
49.904361300998261
 20
53.620758056640618
 30
0.0
 10
49.904361300998261
 20
53.620758056640618
 30
0.0
  0
SPLINE
  5
54
100
AcDbEntity
  8
LIVELLO_1
 62
     7
100
AcDbSpline
210
0.0
220
0.0
230
1.0
 70
     8
 71
     3
 72
    29
 73
    25
 74
     0
 42
0.00000001
 43
0.00000001
 40
0.0
 40
0.0
 40
0.0
 40
0.0
 40
1.0
 40
1.0
 40
1.0
 40
2.0
 40
2.0
 40
2.0
 40
3.0
 40
3.0
 40
3.0
 40
4.0
 40
4.0
 40
4.0
 40
5.0
 40
5.0
 40
5.0
 40
6.0
 40
6.0
 40
6.0
 40
7.0
 40
7.0
 40
7.0
 40
8.0
 40
8.0
 40
8.0
 40
8.0
 10
48.964539252387148
 20
52.793073866102425
 30
0.0
 10
48.964539252387148
 20
54.749888102213539
 30
0.0
 10
50.550661214192701
 20
56.333081732855895
 30
0.0
 10
52.507819959852426
 20
56.333081732855895
 30
0.0
 10
52.507819959852426
 20
56.333081732855895
 30
0.0
 10
111.43755628797742
 20
56.333081732855895
 30
0.0
 10
111.43755628797742
 20
56.333081732855895
 30
0.0
 10
113.3933369954427
 20
56.333081732855895
 30
0.0
 10
114.97876993815103
 20
54.749888102213539
 30
0.0
 10
114.97876993815103
 20
52.793073866102425
 30
0.0
 10
114.97876993815103
 20
52.793073866102425
 30
0.0
 10
114.97876993815103
 20
-71.802938503689234
 30
0.0
 10
114.97876993815103
 20
-71.802938503689234
 30
0.0
 10
114.97876993815103
 20
-73.760097249348945
 30
0.0
 10
113.3933369954427
 20
-75.343118625217002
 30
0.0
 10
111.43755628797742
 20
-75.343118625217002
 30
0.0
 10
111.43755628797742
 20
-75.343118625217002
 30
0.0
 10
52.507819959852426
 20
-75.343118625217002
 30
0.0
 10
52.507819959852426
 20
-75.343118625217002
 30
0.0
 10
50.550661214192701
 20
-75.343118625217002
 30
0.0
 10
48.964539252387148
 20
-73.760097249348945
 30
0.0
 10
48.964539252387148
 20
-71.802938503689234
 30
0.0
 10
48.964539252387148
 20
-71.802938503689234
 30
0.0
 10
48.964539252387148
 20
52.793073866102425
 30
0.0
 10
48.964539252387148
 20
52.793073866102425
 30
0.0
  0
SPLINE
  5
53
100
AcDbEntity
  8
LIVELLO_1
 62
     7
100
AcDbSpline
210
0.0
220
0.0
230
1.0
 70
     8
 71
     3
 72
    17
 73
    13
 74
     0
 42
0.00000001
 43
0.00000001
 40
0.0
 40
0.0
 40
0.0
 40
0.0
 40
1.0
 40
1.0
 40
1.0
 40
2.0
 40
2.0
 40
2.0
 40
3.0
 40
3.0
 40
3.0
 40
4.0
 40
4.0
 40
4.0
 40
4.0
 10
90.550631374782981
 20
3.6691128200954859
 30
0.0
 10
90.550631374782981
 20
3.6691128200954859
 30
0.0
 10
85.909743245442698
 20
3.6691128200954859
 30
0.0
 10
85.909743245442698
 20
3.6691128200954859
 30
0.0
 10
85.909743245442698
 20
3.6691128200954859
 30
0.0
 10
85.909743245442698
 20
-59.047472466362841
 30
0.0
 10
85.909743245442698
 20
-59.047472466362841
 30
0.0
 10
85.909743245442698
 20
-59.047472466362841
 30
0.0
 10
88.254130723741312
 20
-58.441480170355895
 30
0.0
 10
90.550631374782981
 20
-58.441480170355895
 30
0.0
 10
90.550631374782981
 20
-58.441480170355895
 30
0.0
 10
90.550631374782981
 20
3.6691128200954859
 30
0.0
 10
90.550631374782981
 20
3.6691128200954859
 30
0.0
  0
SPLINE
  5
52
100
AcDbEntity
  8
LIVELLO_1
 62
     7
100
AcDbSpline
210
0.0
220
0.0
230
1.0
 70
     8
 71
     3
 72
    17
 73
    13
 74
     0
 42
0.00000001
 43
0.00000001
 40
0.0
 40
0.0
 40
0.0
 40
0.0
 40
1.0
 40
1.0
 40
1.0
 40
2.0
 40
2.0
 40
2.0
 40
3.0
 40
3.0
 40
3.0
 40
4.0
 40
4.0
 40
4.0
 40
4.0
 10
102.83928697374131
 20
18.692829725477427
 30
0.0
 10
102.83928697374131
 20
18.692829725477427
 30
0.0
 10
98.354117160373249
 20
14.92596232096354
 30
0.0
 10
98.354117160373249
 20
14.92596232096354
 30
0.0
 10
97.259954833984366
 20
2.3456793891059027
 30
0.0
 10
96.948173692491309
 20
-9.7881191677517361
 30
0.0
 10
97.001917182074649
 20
-20.177149115668399
 30
0.0
 10
97.094245741102426
 20
-38.778597683376731
 30
0.0
 10
98.354117160373249
 20
-51.791412353515618
 30
0.0
 10
98.354117160373249
 20
-51.791412353515618
 30
0.0
 10
98.354117160373249
 20
-51.791412353515618
 30
0.0
 10
102.83721991644964
 20
-59.047472466362841
 30
0.0
 10
102.83721991644964
 20
-59.047472466362841
 30
0.0
  0
SPLINE
  5
51
100
AcDbEntity
  8
LIVELLO_1
 62
     7
100
AcDbSpline
210
0.0
220
0.0
230
1.0
 70
     8
 71
     3
 72
    17
 73
    13
 74
     0
 42
0.00000001
 43
0.00000001
 40
0.0
 40
0.0
 40
0.0
 40
0.0
 40
1.0
 40
1.0
 40
1.0
 40
2.0
 40
2.0
 40
2.0
 40
3.0
 40
3.0
 40
3.0
 40
4.0
 40
4.0
 40
4.0
 40
4.0
 10
97.001917182074649
 20
3.6691128200954859
 30
0.0
 10
97.001917182074649
 20
3.6691128200954859
 30
0.0
 10
94.618944634331584
 20
3.6691128200954859
 30
0.0
 10
94.618944634331584
 20
3.6691128200954859
 30
0.0
 10
94.618944634331584
 20
3.6691128200954859
 30
0.0
 10
94.618944634331584
 20
-59.047472466362841
 30
0.0
 10
94.618944634331584
 20
-59.047472466362841
 30
0.0
 10
94.618944634331584
 20
-59.047472466362841
 30
0.0
 10
95.851255289713535
 20
-58.441480170355895
 30
0.0
 10
97.001917182074649
 20
-58.441480170355895
 30
0.0
 10
97.001917182074649
 20
-58.441480170355895
 30
0.0
 10
97.001917182074649
 20
3.6691128200954859
 30
0.0
 10
97.001917182074649
 20
3.6691128200954859
 30
0.0
  0
SPLINE
  5
50
100
AcDbEntity
  8
LIVELLO_1
 62
     7
100
AcDbSpline
210
0.0
220
0.0
230
1.0
 70
     8
 71
     3
 72
    17
 73
    13
 74
     0
 42
0.00000001
 43
0.00000001
 40
0.0
 40
0.0
 40
0.0
 40
0.0
 40
1.0
 40
1.0
 40
1.0
 40
2.0
 40
2.0
 40
2.0
 40
3.0
 40
3.0
 40
3.0
 40
4.0
 40
4.0
 40
4.0
 40
4.0
 10
94.618944634331584
 20
3.6691128200954859
 30
0.0
 10
94.618944634331584
 20
3.6691128200954859
 30
0.0
 10
90.550631374782981
 20
3.6691128200954859
 30
0.0
 10
90.550631374782981
 20
3.6691128200954859
 30
0.0
 10
90.550631374782981
 20
3.6691128200954859
 30
0.0
 10
90.550631374782981
 20
-58.441480170355895
 30
0.0
 10
90.550631374782981
 20
-58.441480170355895
 30
0.0
 10
92.485052490234366
 20
-58.441480170355895
 30
0.0
 10
94.618944634331584
 20
-59.047472466362841
 30
0.0
 10
94.618944634331584
 20
-59.047472466362841
 30
0.0
 10
94.618944634331584
 20
-59.047472466362841
 30
0.0
 10
94.618944634331584
 20
3.6691128200954859
 30
0.0
 10
94.618944634331584
 20
3.6691128200954859
 30
0.0
  0
SPLINE
  5
4F
100
AcDbEntity
  8
LIVELLO_1
 62
     7
100
AcDbSpline
210
0.0
220
0.0
230
1.0
 70
     8
 71
     3
 72
    17
 73
    13
 74
     0
 42
0.00000001
 43
0.00000001
 40
0.0
 40
0.0
 40
0.0
 40
0.0
 40
1.0
 40
1.0
 40
1.0
 40
2.0
 40
2.0
 40
2.0
 40
3.0
 40
3.0
 40
3.0
 40
4.0
 40
4.0
 40
4.0
 40
4.0
 10
85.909743245442698
 20
3.6691128200954859
 30
0.0
 10
85.909743245442698
 20
3.6691128200954859
 30
0.0
 10
81.970965576171864
 20
3.6691128200954859
 30
0.0
 10
81.970965576171864
 20
3.6691128200954859
 30
0.0
 10
81.970965576171864
 20
3.6691128200954859
 30
0.0
 10
81.970965576171864
 20
-58.441480170355895
 30
0.0
 10
81.970965576171864
 20
-58.441480170355895
 30
0.0
 10
83.903319634331595
 20
-58.441480170355895
 30
0.0
 10
85.909743245442698
 20
-59.047472466362841
 30
0.0
 10
85.909743245442698
 20
-59.047472466362841
 30
0.0
 10
85.909743245442698
 20
-59.047472466362841
 30
0.0
 10
85.909743245442698
 20
3.6691128200954859
 30
0.0
 10
85.909743245442698
 20
3.6691128200954859
 30
0.0
  0
POLYLINE
  5
49
100
AcDbEntity
  8
LIVELLO_1
 62
     7
100
AcDb2dPolyline
 66
     1
 10
0.0
 20
0.0
 30
0.0
  0
VERTEX
  5
4A
100
AcDbEntity
  8
LIVELLO_1
 62
     7
100
AcDbVertex
100
AcDb2dVertex
 10
102.839287
 20
18.69283
 30
0.0
  0
VERTEX
  5
4B
100
AcDbEntity
  8
LIVELLO_1
 62
     7
100
AcDbVertex
100
AcDb2dVertex
 10
98.354117
 20
14.925962
 30
0.0
  0
VERTEX
  5
4C
100
AcDbEntity
  8
LIVELLO_1
 62
     7
100
AcDbVertex
100
AcDb2dVertex
 10
98.354117
 20
-51.791412
 30
0.0
  0
VERTEX
  5
4D
100
AcDbEntity
  8
LIVELLO_1
 62
     7
100
AcDbVertex
100
AcDb2dVertex
 10
98.354117
 20
-59.047472
 30
0.0
  0
SEQEND
  5
4E
100
AcDbEntity
  8
LIVELLO_1
 62
     7
  0
SPLINE
  5
48
100
AcDbEntity
  8
LIVELLO_1
 62
     7
100
AcDbSpline
210
0.0
220
0.0
230
1.0
 70
     8
 71
     3
 72
    17
 73
    13
 74
     0
 42
0.00000001
 43
0.00000001
 40
0.0
 40
0.0
 40
0.0
 40
0.0
 40
1.0
 40
1.0
 40
1.0
 40
2.0
 40
2.0
 40
2.0
 40
3.0
 40
3.0
 40
3.0
 40
4.0
 40
4.0
 40
4.0
 40
4.0
 10
73.389232720269092
 20
3.6691128200954859
 30
0.0
 10
73.389232720269092
 20
3.6691128200954859
 30
0.0
 10
78.032187906901029
 20
3.6691128200954859
 30
0.0
 10
78.032187906901029
 20
3.6691128200954859
 30
0.0
 10
78.032187906901029
 20
3.6691128200954859
 30
0.0
 10
78.032187906901029
 20
-59.047472466362841
 30
0.0
 10
78.032187906901029
 20
-59.047472466362841
 30
0.0
 10
78.032187906901029
 20
-59.047472466362841
 30
0.0
 10
75.687800428602429
 20
-58.441480170355895
 30
0.0
 10
73.389232720269092
 20
-58.441480170355895
 30
0.0
 10
73.389232720269092
 20
-58.441480170355895
 30
0.0
 10
73.389232720269092
 20
3.6691128200954859
 30
0.0
 10
73.389232720269092
 20
3.6691128200954859
 30
0.0
  0
SPLINE
  5
47
100
AcDbEntity
  8
LIVELLO_1
 62
     7
100
AcDbSpline
210
0.0
220
0.0
230
1.0
 70
     8
 71
     3
 72
    17
 73
    13
 74
     0
 42
0.00000001
 43
0.00000001
 40
0.0
 40
0.0
 40
0.0
 40
0.0
 40
1.0
 40
1.0
 40
1.0
 40
2.0
 40
2.0
 40
2.0
 40
3.0
 40
3.0
 40
3.0
 40
4.0
 40
4.0
 40
4.0
 40
4.0
 10
61.101266140407979
 20
18.692829725477427
 30
0.0
 10
61.101266140407979
 20
18.692829725477427
 30
0.0
 10
65.586091444227421
 20
14.92596232096354
 30
0.0
 10
65.586091444227421
 20
14.92596232096354
 30
0.0
 10
66.682665337456598
 20
2.3456793891059027
 30
0.0
 10
66.991345893012152
 20
-9.7881191677517361
 30
0.0
 10
66.938635932074646
 20
-20.177149115668399
 30
0.0
 10
66.845618353949646
 20
-38.778597683376731
 30
0.0
 10
65.586091444227421
 20
-51.791412353515618
 30
0.0
 10
65.586091444227421
 20
-51.791412353515618
 30
0.0
 10
65.586091444227421
 20
-51.791412353515618
 30
0.0
 10
61.101266140407979
 20
-59.047472466362841
 30
0.0
 10
61.101266140407979
 20
-59.047472466362841
 30
0.0
  0
SPLINE
  5
46
100
AcDbEntity
  8
LIVELLO_1
 62
     7
100
AcDbSpline
210
0.0
220
0.0
230
1.0
 70
     8
 71
     3
 72
    17
 73
    13
 74
     0
 42
0.00000001
 43
0.00000001
 40
0.0
 40
0.0
 40
0.0
 40
0.0
 40
1.0
 40
1.0
 40
1.0
 40
2.0
 40
2.0
 40
2.0
 40
3.0
 40
3.0
 40
3.0
 40
4.0
 40
4.0
 40
4.0
 40
4.0
 10
66.938635932074646
 20
3.6691128200954859
 30
0.0
 10
66.938635932074646
 20
3.6691128200954859
 30
0.0
 10
69.324364556206589
 20
3.6691128200954859
 30
0.0
 10
69.324364556206589
 20
3.6691128200954859
 30
0.0
 10
69.324364556206589
 20
3.6691128200954859
 30
0.0
 10
69.324364556206589
 20
-59.047472466362841
 30
0.0
 10
69.324364556206589
 20
-59.047472466362841
 30
0.0
 10
69.324364556206589
 20
-59.047472466362841
 30
0.0
 10
68.087919786241315
 20
-58.441480170355895
 30
0.0
 10
66.938635932074646
 20
-58.441480170355895
 30
0.0
 10
66.938635932074646
 20
-58.441480170355895
 30
0.0
 10
66.938635932074646
 20
3.6691128200954859
 30
0.0
 10
66.938635932074646
 20
3.6691128200954859
 30
0.0
  0
SPLINE
  5
45
100
AcDbEntity
  8
LIVELLO_1
 62
     7
100
AcDbSpline
210
0.0
220
0.0
230
1.0
 70
     8
 71
     3
 72
    17
 73
    13
 74
     0
 42
0.00000001
 43
0.00000001
 40
0.0
 40
0.0
 40
0.0
 40
0.0
 40
1.0
 40
1.0
 40
1.0
 40
2.0
 40
2.0
 40
2.0
 40
3.0
 40
3.0
 40
3.0
 40
4.0
 40
4.0
 40
4.0
 40
4.0
 10
69.324364556206589
 20
3.6691128200954859
 30
0.0
 10
69.324364556206589
 20
3.6691128200954859
 30
0.0
 10
73.389232720269092
 20
3.6691128200954859
 30
0.0
 10
73.389232720269092
 20
3.6691128200954859
 30
0.0
 10
73.389232720269092
 20
3.6691128200954859
 30
0.0
 10
73.389232720269092
 20
-58.441480170355895
 30
0.0
 10
73.389232720269092
 20
-58.441480170355895
 30
0.0
 10
71.456534152560764
 20
-58.441480170355895
 30
0.0
 10
69.324364556206589
 20
-59.047472466362841
 30
0.0
 10
69.324364556206589
 20
-59.047472466362841
 30
0.0
 10
69.324364556206589
 20
-59.047472466362841
 30
0.0
 10
69.324364556206589
 20
3.6691128200954859
 30
0.0
 10
69.324364556206589
 20
3.6691128200954859
 30
0.0
  0
SPLINE
  5
44
100
AcDbEntity
  8
LIVELLO_1
 62
     7
100
AcDbSpline
210
0.0
220
0.0
230
1.0
 70
     8
 71
     3
 72
    17
 73
    13
 74
     0
 42
0.00000001
 43
0.00000001
 40
0.0
 40
0.0
 40
0.0
 40
0.0
 40
1.0
 40
1.0
 40
1.0
 40
2.0
 40
2.0
 40
2.0
 40
3.0
 40
3.0
 40
3.0
 40
4.0
 40
4.0
 40
4.0
 40
4.0
 10
78.032187906901029
 20
3.6691128200954859
 30
0.0
 10
78.032187906901029
 20
3.6691128200954859
 30
0.0
 10
81.970965576171864
 20
3.6691128200954859
 30
0.0
 10
81.970965576171864
 20
3.6691128200954859
 30
0.0
 10
81.970965576171864
 20
3.6691128200954859
 30
0.0
 10
81.970965576171864
 20
-58.441480170355895
 30
0.0
 10
81.970965576171864
 20
-58.441480170355895
 30
0.0
 10
80.037922498914924
 20
-58.441480170355895
 30
0.0
 10
78.032187906901029
 20
-59.047472466362841
 30
0.0
 10
78.032187906901029
 20
-59.047472466362841
 30
0.0
 10
78.032187906901029
 20
-59.047472466362841
 30
0.0
 10
78.032187906901029
 20
3.6691128200954859
 30
0.0
 10
78.032187906901029
 20
3.6691128200954859
 30
0.0
  0
POLYLINE
  5
3E
100
AcDbEntity
  8
LIVELLO_1
 62
     7
100
AcDb2dPolyline
 66
     1
 10
0.0
 20
0.0
 30
0.0
  0
VERTEX
  5
3F
100
AcDbEntity
  8
LIVELLO_1
 62
     7
100
AcDbVertex
100
AcDb2dVertex
 10
61.101266
 20
18.69283
 30
0.0
  0
VERTEX
  5
40
100
AcDbEntity
  8
LIVELLO_1
 62
     7
100
AcDbVertex
100
AcDb2dVertex
 10
65.586091
 20
14.925962
 30
0.0
  0
VERTEX
  5
41
100
AcDbEntity
  8
LIVELLO_1
 62
     7
100
AcDbVertex
100
AcDb2dVertex
 10
65.586091
 20
-51.791412
 30
0.0
  0
VERTEX
  5
42
100
AcDbEntity
  8
LIVELLO_1
 62
     7
100
AcDbVertex
100
AcDb2dVertex
 10
65.586091
 20
-58.862471
 30
0.0
  0
SEQEND
  5
43
100
AcDbEntity
  8
LIVELLO_1
 62
     7
  0
POLYLINE
  5
38
100
AcDbEntity
  8
LIVELLO_1
 62
     7
100
AcDb2dPolyline
 66
     1
 10
0.0
 20
0.0
 30
0.0
 70
     1
  0
VERTEX
  5
39
100
AcDbEntity
  8
LIVELLO_1
 62
     7
100
AcDbVertex
100
AcDb2dVertex
 10
68.124782
 20
4.892122
 30
0.0
  0
VERTEX
  5
3A
100
AcDbEntity
  8
LIVELLO_1
 62
     7
100
AcDbVertex
100
AcDb2dVertex
 10
95.933249
 20
4.892122
 30
0.0
  0
VERTEX
  5
3B
100
AcDbEntity
  8
LIVELLO_1
 62
     7
100
AcDbVertex
100
AcDb2dVertex
 10
95.933249
 20
3.669113
 30
0.0
  0
VERTEX
  5
3C
100
AcDbEntity
  8
LIVELLO_1
 62
     7
100
AcDbVertex
100
AcDb2dVertex
 10
68.124782
 20
3.669113
 30
0.0
  0
SEQEND
  5
3D
100
AcDbEntity
  8
LIVELLO_1
 62
     7
  0
POLYLINE
  5
32
100
AcDbEntity
  8
LIVELLO_1
 62
     7
100
AcDb2dPolyline
 66
     1
 10
0.0
 20
0.0
 30
0.0
 70
     1
  0
VERTEX
  5
33
100
AcDbEntity
  8
LIVELLO_1
 62
     7
100
AcDbVertex
100
AcDb2dVertex
 10
68.124782
 20
17.229009
 30
0.0
  0
VERTEX
  5
34
100
AcDbEntity
  8
LIVELLO_1
 62
     7
100
AcDbVertex
100
AcDb2dVertex
 10
95.933249
 20
17.229009
 30
0.0
  0
VERTEX
  5
35
100
AcDbEntity
  8
LIVELLO_1
 62
     7
100
AcDbVertex
100
AcDb2dVertex
 10
95.933249
 20
3.669113
 30
0.0
  0
VERTEX
  5
36
100
AcDbEntity
  8
LIVELLO_1
 62
     7
100
AcDbVertex
100
AcDb2dVertex
 10
68.124782
 20
3.669113
 30
0.0
  0
SEQEND
  5
37
100
AcDbEntity
  8
LIVELLO_1
 62
     7
  0
POLYLINE
  5
2C
100
AcDbEntity
  8
LIVELLO_1
 62
     7
100
AcDb2dPolyline
 66
     1
 10
0.0
 20
0.0
 30
0.0
 70
     1
  0
VERTEX
  5
2D
100
AcDbEntity
  8
LIVELLO_1
 62
     7
100
AcDbVertex
100
AcDb2dVertex
 10
61.101266
 20
18.690418
 30
0.0
  0
VERTEX
  5
2E
100
AcDbEntity
  8
LIVELLO_1
 62
     7
100
AcDbVertex
100
AcDb2dVertex
 10
102.83722
 20
18.690418
 30
0.0
  0
VERTEX
  5
2F
100
AcDbEntity
  8
LIVELLO_1
 62
     7
100
AcDbVertex
100
AcDb2dVertex
 10
102.83722
 20
-59.047472
 30
0.0
  0
VERTEX
  5
30
100
AcDbEntity
  8
LIVELLO_1
 62
     7
100
AcDbVertex
100
AcDb2dVertex
 10
61.101266
 20
-59.047472
 30
0.0
  0
SEQEND
  5
31
100
AcDbEntity
  8
LIVELLO_1
 62
     7
  0
ENDBLK
  5
449
100
AcDbEntity
  8
LIVELLO_1
100
AcDbBlockEnd
  0
BLOCK
  5
252
100
AcDbEntity
  8
LIVELLO_1
 62
     7
100
AcDbBlockBegin
  2
AI9-BLK2
 70
     0
 10
0.0
 20
0.0
 30
0.0
  3
AI9-BLK2
  1

  0
INSERT
  5
254
100
AcDbEntity
  8
LIVELLO_1
 62
     7
100
AcDbBlockReference
  2
AI9-BLK3
 10
0.0
 20
-0.334347
 30
0.0
  0
ENDBLK
  5
25B
100
AcDbEntity
  8
LIVELLO_1
100
AcDbBlockEnd
  0
BLOCK
  5
255
100
AcDbEntity
  8
LIVELLO_1
 62
     7
100
AcDbBlockBegin
  2
AI9-BLK3
 70
     0
 10
0.0
 20
0.0
 30
0.0
  3
AI9-BLK3
  1

  0
INSERT
  5
257
100
AcDbEntity
  8
LIVELLO_1
 62
     7
100
AcDbBlockReference
  2
AI9-BLK4
 10
-0.127469
 20
-0.03626
 30
0.0
  0
ENDBLK
  5
25A
100
AcDbEntity
  8
LIVELLO_1
100
AcDbBlockEnd
  0
BLOCK
  5
258
100
AcDbEntity
  8
LIVELLO_1
 62
     7
100
AcDbBlockBegin
  2
AI9-BLK4
 70
     0
 10
0.0
 20
0.0
 30
0.0
  3
AI9-BLK4
  1

  0
ENDBLK
  5
259
100
AcDbEntity
  8
LIVELLO_1
100
AcDbBlockEnd
  0
BLOCK
  5
43D
100
AcDbEntity
  8
LIVELLO_1
 62
     7
100
AcDbBlockBegin
  2
AI9-BLK5
 70
     0
 10
0.0
 20
0.0
 30
0.0
  3
AI9-BLK5
  1

  0
INSERT
  5
43F
100
AcDbEntity
  8
LIVELLO_1
 62
     7
100
AcDbBlockReference
  2
AI9-BLK6
 10
0.0
 20
-0.334347
 30
0.0
  0
ENDBLK
  5
446
100
AcDbEntity
  8
LIVELLO_1
100
AcDbBlockEnd
  0
BLOCK
  5
440
100
AcDbEntity
  8
LIVELLO_1
 62
     7
100
AcDbBlockBegin
  2
AI9-BLK6
 70
     0
 10
0.0
 20
0.0
 30
0.0
  3
AI9-BLK6
  1

  0
INSERT
  5
442
100
AcDbEntity
  8
LIVELLO_1
 62
     7
100
AcDbBlockReference
  2
AI9-BLK7
 10
-0.127469
 20
-0.03626
 30
0.0
  0
ENDBLK
  5
445
100
AcDbEntity
  8
LIVELLO_1
100
AcDbBlockEnd
  0
BLOCK
  5
443
100
AcDbEntity
  8
LIVELLO_1
 62
     7
100
AcDbBlockBegin
  2
AI9-BLK7
 70
     0
 10
0.0
 20
0.0
 30
0.0
  3
AI9-BLK7
  1

  0
ENDBLK
  5
444
100
AcDbEntity
  8
LIVELLO_1
100
AcDbBlockEnd
  0
ENDSEC
  0
SECTION
  2
ENTITIES
  0
INSERT
  5
2A
100
AcDbEntity
  8
LIVELLO_1
 62
     7
100
AcDbBlockReference
  2
AI9-BLK1
 10
96.593846
 20
168.056495
 30
0.0
  0
ENDSEC
  0
SECTION
  2
OBJECTS
  0
DICTIONARY
  5
19
100
AcDbDictionary
280
     0
281
     1
  3
ACAD_GROUP
350
1A
  3
ACAD_MLINESTYLE
350
1B
  3
ACAD_LAYOUT
350
1E
  3
ACAD_PLOTSETTINGS
350
22
  3
ACAD_PLOTSTYLENAME
350
1F
  3
ACAD_WIPEOUT_VARS
350
23
  0
DICTIONARY
  5
1A
102
{ACAD_REACTORS
330
19
102
}
100
AcDbDictionary
280
     0
281
     1
  0
DICTIONARY
  5
1B
102
{ACAD_REACTORS
330
19
102
}
100
AcDbDictionary
280
     0
281
     1
  3
Standard
350
1C
  0
MLINESTYLE
  5
1C
102
{ACAD_REACTORS
330
1B
102
}
100
AcDbMlineStyle
  2
Standard
 70
     0
  3

 62
     0
 51
90.0
 52
90.0
 71
     2
 49
0.5
 62
   256
  6
ByLayer
 49
-0.5
 62
   256
  6
ByLayer
  0
ACDBDICTIONARYWDFLT
  5
1F
102
{ACAD_REACTORS
330
19
102
}
100
AcDbDictionary
281
     1
  3
Normal
350
1D
100
AcDbDictionaryWithDefault
340
1D
  0
ACDBPLACEHOLDER
  5
1D
102
{ACAD_REACTORS
330
1F
102
}
  0
LAYOUT
  5
20
102
{ACAD_REACTORS
330
1E
102
}
100
AcDbPlotSettings
  1

  2

  4

  6

 40
0.0
 41
0.0
 42
0.0
 43
0.0
 44
0.0
 45
0.0
 46
0.0
 47
0.0
 48
0.0
 49
0.0
140
0.0
141
0.0
142
1.0
143
1.0
 70
  1024
 72
     0
 73
     0
 74
     0
  7

 75
     0
147
1.0
148
0.0
149
0.0
100
AcDbLayout
  1
Model
 70
     0
 71
     0
 10
0.0
 20
0.0
 11
0.0
 21
0.0
 12
0.0
 22
0.0
 32
0.0
 14
0.0
 24
0.0
 34
0.0
 15
0.0
 25
0.0
 35
0.0
146
0.0
 13
0.0
 23
0.0
 33
0.0
 16
0.0
 26
0.0
 36
0.0
 17
0.0
 27
0.0
 37
0.0
 76
     0
330
A
331
0
345
0
346
0
  0
LAYOUT
  5
21
102
{ACAD_REACTORS
330
1E
102
}
100
AcDbPlotSettings
  1

  2

  4

  6

 40
0.0
 41
0.0
 42
0.0
 43
0.0
 44
0.0
 45
0.0
 46
0.0
 47
0.0
 48
0.0
 49
0.0
140
0.0
141
0.0
142
1.0
143
1.0
 70
     0
 72
     0
 73
     0
 74
     0
  7

 75
     0
147
1.0
148
0.0
149
0.0
100
AcDbLayout
  1
Layout1
 70
     0
 71
     0
 10
0.0
 20
0.0
 11
0.0
 21
0.0
 12
0.0
 22
0.0
 32
0.0
 14
0.0
 24
0.0
 34
0.0
 15
0.0
 25
0.0
 35
0.0
146
0.0
 13
0.0
 23
0.0
 33
0.0
 16
0.0
 26
0.0
 36
0.0
 17
0.0
 27
0.0
 37
0.0
 76
     0
330
B
331
0
345
0
346
0
  0
DICTIONARY
  5
1E
102
{ACAD_REACTORS
330
19
102
}
100
AcDbDictionary
280
     0
281
     1
  3
Layout1
350
21
  3
Model
350
20
  0
DICTIONARY
  5
22
102
{ACAD_REACTORS
330
19
102
}
100
AcDbDictionary
280
     0
281
     1
  0
WIPEOUTVARIABLES
  5
23
100
AcDbWipeoutVariables
 70
     1
  0
ENDSEC
  0
EOF
