  0
SECTION
  2
HEADER
  9
$ACADVER
  1
AC1015
  9
$ACADMAINTVER
 70
     6
  9
$DWGCODEPAGE
  3
ANSI_932
  9
$INSBASE
 10
0.0
 20
0.0
 30
0.0
  9
$EXTMIN
 10
-0.216869
 20
4.354601
 30
1.000000E+20
  9
$EXTMAX
 10
124.185012
 20
145.904272
 30
-1.000000E+20
  9
$LIMMIN
 10
-0.216869
 20
4.354601
  9
$LIMMAX
 10
124.185012
 20
145.904272
  9
$ORTHOMODE
 70
     0
  9
$REGENMODE
 70
     1
  9
$FILLMODE
 70
     1
  9
$QTEXTMODE
 70
     0
  9
$MIRRTEXT
 70
     1
  9
$LTSCALE
 40
1.0
  9
$ATTMODE
 70
     1
  9
$TEXTSIZE
 40
0.2
  9
$TRACEWID
 40
0.05
  9
$TEXTSTYLE
  7
Standard
  9
$CLAYER
  8
0
  9
$CELTYPE
  6
Continuous
  9
$CECOLOR
 62
   256
  9
$CELTSCALE
 40
1.0
  9
$DISPSILH
 70
     0
  9
$DIMSCALE
 40
1.0
  9
$DIMASZ
 40
0.18
  9
$DIMEXO
 40
0.0625
  9
$DIMDLI
 40
0.38
  9
$DIMRND
 40
0.0
  9
$DIMDLE
 40
0.0
  9
$DIMEXE
 40
0.18
  9
$DIMTP
 40
0.0
  9
$DIMTM
 40
0.0
  9
$DIMTXT
 40
0.18
  9
$DIMCEN
 40
0.09
  9
$DIMTSZ
 40
0.0
  9
$DIMTOL
 70
     0
  9
$DIMLIM
 70
     0
  9
$DIMTIH
 70
     1
  9
$DIMTOH
 70
     1
  9
$DIMSE1
 70
     0
  9
$DIMSE2
 70
     0
  9
$DIMTAD
 70
     0
  9
$DIMZIN
 70
     0
  9
$DIMBLK
  1

  9
$DIMASO
 70
     1
  9
$DIMSHO
 70
     1
  9
$DIMPOST
  1

  9
$DIMAPOST
  1

  9
$DIMALT
 70
     0
  9
$DIMALTD
 70
     2
  9
$DIMALTF
 40
25.4
  9
$DIMLFAC
 40
1.0
  9
$DIMTOFL
 70
     0
  9
$DIMTVP
 40
0.0
  9
$DIMTIX
 70
     0
  9
$DIMSOXD
 70
     0
  9
$DIMSAH
 70
     0
  9
$DIMBLK1
  1

  9
$DIMBLK2
  1

  9
$DIMSTYLE
  2
Standard
  9
$DIMCLRD
 70
     0
  9
$DIMCLRE
 70
     0
  9
$DIMCLRT
 70
     0
  9
$DIMTFAC
 40
1.0
  9
$DIMGAP
 40
0.09
  9
$DIMJUST
 70
     0
  9
$DIMSD1
 70
     0
  9
$DIMSD2
 70
     0
  9
$DIMTOLJ
 70
     1
  9
$DIMTZIN
 70
     0
  9
$DIMALTZ
 70
     0
  9
$DIMALTTZ
 70
     0
  9
$DIMUPT
 70
     0
  9
$DIMDEC
 70
     4
  9
$DIMTDEC
 70
     4
  9
$DIMALTU
 70
     2
  9
$DIMALTTD
 70
     2
  9
$DIMTXSTY
  7
Standard
  9
$DIMAUNIT
 70
     0
  9
$DIMADEC
 70
     0
  9
$DIMALTRND
 40
0.0
  9
$DIMAZIN
 70
     0
  9
$DIMDSEP
 70
     0
  9
$DIMATFIT
 70
     3
  9
$DIMFRAC
 70
     0
  9
$DIMLDRBLK
  1

  9
$DIMLUNIT
 70
     2
  9
$DIMLWD
 70
     0
  9
$DIMLWE
 70
     0
  9
$DIMTMOVE
 70
     0
  9
$LUNITS
 70
     2
  9
$LUPREC
 70
     4
  9
$SKETCHINC
 40
0.1
  9
$FILLETRAD
 40
0.0
  9
$AUNITS
 70
     0
  9
$AUPREC
 70
     0
  9
$MENU
  1
acad
  9
$ELEVATION
 40
0.0
  9
$PELEVATION
 40
0.0
  9
$THICKNESS
 40
0.0
  9
$LIMCHECK
 70
     0
  9
$CHAMFERA
 40
0.0
  9
$CHAMFERB
 40
0.0
  9
$CHAMFERC
 40
0.0
  9
$CHAMFERD
 40
0.0
  9
$SKPOLY
 70
     0
  9
$TDCREATE
 40
0.000000000
  9
$TDUCREATE
 40
0.000000000
  9
$TDUPDATE
 40
0.000000000
  9
$TDUUPDATE
 40
0.000000000
  9
$TDINDWG
 40
0.0000000000
  9
$TDUSRTIMER
 40
0.0000000000
  9
$USRTIMER
 70
     1
  9
$ANGBASE
 50
0.0
  9
$ANGDIR
 70
     0
  9
$PDMODE
 70
     0
  9
$PDSIZE
 40
0.0
  9
$PLINEWID
 40
0.0
  9
$SPLFRAME
 70
     0
  9
$SPLINETYPE
 70
     6
  9
$SPLINESEGS
 70
     8
  9
$HANDSEED
  5
198
  9
$SURFTAB1
 70
     6
  9
$SURFTAB2
 70
     6
  9
$SURFTYPE
 70
     6
  9
$SURFU
 70
     6
  9
$SURFV
 70
     6
  9
$UCSBASE
  2

  9
$UCSNAME
  2

  9
$UCSORG
 10
0.0
 20
0.0
 30
0.0
  9
$UCSXDIR
 10
1.0
 20
0.0
 30
0.0
  9
$UCSYDIR
 10
0.0
 20
1.0
 30
0.0
  9
$UCSORTHOREF
  2

  9
$UCSORTHOVIEW
 70
     0
  9
$UCSORGTOP
 10
0.0
 20
0.0
 30
0.0
  9
$UCSORGBOTTOM
 10
0.0
 20
0.0
 30
0.0
  9
$UCSORGLEFT
 10
0.0
 20
0.0
 30
0.0
  9
$UCSORGRIGHT
 10
0.0
 20
0.0
 30
0.0
  9
$UCSORGFRONT
 10
0.0
 20
0.0
 30
0.0
  9
$UCSORGBACK
 10
0.0
 20
0.0
 30
0.0
  9
$PUCSBASE
  2

  9
$PUCSNAME
  2

  9
$PUCSORG
 10
0.0
 20
0.0
 30
0.0
  9
$PUCSXDIR
 10
1.0
 20
0.0
 30
0.0
  9
$PUCSYDIR
 10
0.0
 20
1.0
 30
0.0
  9
$PUCSORTHOREF
  2

  9
$PUCSORTHOVIEW
 70
     0
  9
$PUCSORGTOP
 10
0.0
 20
0.0
 30
0.0
  9
$PUCSORGBOTTOM
 10
0.0
 20
0.0
 30
0.0
  9
$PUCSORGLEFT
 10
0.0
 20
0.0
 30
0.0
  9
$PUCSORGRIGHT
 10
0.0
 20
0.0
 30
0.0
  9
$PUCSORGFRONT
 10
0.0
 20
0.0
 30
0.0
  9
$PUCSORGBACK
 10
0.0
 20
0.0
 30
0.0
  9
$USERI1
 70
     0
  9
$USERI2
 70
     0
  9
$USERI3
 70
     0
  9
$USERI4
 70
     0
  9
$USERI5
 70
     0
  9
$USERR1
 40
0.0
  9
$USERR2
 40
0.0
  9
$USERR3
 40
0.0
  9
$USERR4
 40
0.0
  9
$USERR5
 40
0.0
  9
$WORLDVIEW
 70
     1
  9
$SHADEDGE
 70
     3
  9
$SHADEDIF
 70
    70
  9
$TILEMODE
 70
     1
  9
$MAXACTVP
 70
    16
  9
$PINSBASE
 10
0.0
 20
0.0
 30
0.0
  9
$PLIMCHECK
 70
     0
  9
$PEXTMIN
 10
1.000000E+20
 20
1.000000E+20
 30
1.000000E+20
  9
$PEXTMAX
 10
-1.000000E+20
 20
-1.000000E+20
 30
-1.000000E+20
  9
$PLIMMIN
 10
0.0
 20
0.0
  9
$PLIMMAX
 10
12.0
 20
9.0
  9
$UNITMODE
 70
     0
  9
$VISRETAIN
 70
     0
  9
$PLINEGEN
 70
     1
  9
$PSLTSCALE
 70
     0
  9
$TREEDEPTH
 70
  3020
  9
$CMLSTYLE
  2
Standard
  9
$CMLJUST
 70
     0
  9
$CMLSCALE
 40
1.0
  9
$PROXYGRAPHICS
 70
     0
  9
$MEASUREMENT
 70
     1
  9
$CELWEIGHT
370
     0
  9
$ENDCAPS
280
     0
  9
$JOINSTYLE
280
     0
  9
$LWDISPLAY
290
     0
  9
$INSUNITS
 70
     0
  9
$HYPERLINKBASE
  1

  9
$STYLESHEET
  1

  9
$XEDIT
290
     1
  9
$CEPSNTYPE
380
     0
  9
$PSTYLEMODE
290
     1
  9
$FINGERPRINTGUID
  2

  9
$VERSIONGUID
  2

  9
$EXTNAMES
290
     1
  9
$PSVPSCALE
 40
0.0
  0
ENDSEC
  0
SECTION
  2
CLASSES
  0
CLASS
  1
LWPOLYLINE
  2
AcDbPolyline
  3
AutoCAD 2000
 90
    32768
280
     0
281
     1
  0
CLASS
  1
IMAGE
  2
AcDbRasterImage
  3
ISM
 90
    32895
280
     0
281
     1
  0
CLASS
  1
OLE2FRAME
  2
AcDbOle2Frame
  3
AutoCAD 2000
 90
    32768
280
     0
281
     1
  0
CLASS
  1
HATCH
  2
AcDbHatch
  3
AutoCAD 2000
 90
    32768
280
     0
281
     1
  0
CLASS
  1
DICTIONARYVAR
  2
AcDbDictionaryVar
  3
AutoCAD 2000
 90
    32768
280
     0
281
     0
  0
CLASS
  1
RASTERVARIABLES
  2
AcDbRasterVariables
  3
ISM
 90
    32768
280
     0
281
     0
  0
CLASS
  1
IMAGEDEF
  2
AcDbRasterImageDef
  3
ISM
 90
    32768
280
     0
281
     0
  0
CLASS
  1
IMAGEDEF_REACTOR
  2
AcDbRasterImageDefReactor
  3
ISM
 90
    32769
280
     0
281
     0
  0
CLASS
  1
IDBUFFER
  2
AcDbIdBuffer
  3
AutoCAD 2000
 90
    32768
280
     0
281
     0
  0
CLASS
  1
SPATIAL_FILTER
  2
AcDbSpatialFilter
  3
AutoCAD 2000
 90
    32768
280
     0
281
     0
  0
CLASS
  1
XRECORD
  2
AcDbXrecord
  3
AutoCAD 2000
 90
    32768
280
     0
281
     0
  0
CLASS
  1
SORTENTSTABLE
  2
AcDbSortentsTable
  3
AutoCAD 2000
 90
    32768
280
     0
281
     0
  0
CLASS
  1
LAYER_INDEX
  2
AcDbLayerIndex
  3
AutoCAD 2000
 90
    32768
280
     0
281
     0
  0
CLASS
  1
SPATIAL_INDEX
  2
AcDbSpatialIndex
  3
AutoCAD 2000
 90
    32768
280
     0
281
     0
  0
CLASS
  1
OBJECT_PTR
  2
CAseDLPNTableRecord
  3
"ASE-LPNTableRecord"
 90
    32769
280
     0
281
     0
  0
CLASS
  1
LAYOUT
  2
AcDbLayout
  3
AutoCAD 2000
 90
        0
280
     0
281
     0
  0
CLASS
  1
PLOTSETTINGS
  2
AcDbPlotSettings
  3
AutoCAD 2000
 90
    32768
280
     0
281
     0
  0
CLASS
  1
ACDBDICTIONARYWDFLT
  2
AcDbDictionaryWithDefault
  3
AutoCAD 2000
 90
        0
280
     0
281
     0
  0
CLASS
  1
ACDBPLACEHOLDER
  2
AcDbPlaceHolder
  3
AutoCAD 2000
 90
        0
280
     0
281
     0
  0
CLASS
  1
VBA_PROJECT
  2
AcDbVbaProject
  3
acadvba
 90
    32768
280
     0
281
     0
  0
CLASS
  1
WIPEOUT
  2
AcDbWipeout
  3
WipeOut|AutoCAD Express Tool|expresstools@autodesk.com
 90
    32895
280
     0
281
     1
  0
CLASS
  1
WIPEOUTVARIABLES
  2
AcDbWipeoutVariables
  3
WipeOut|AutoCAD Express Tool|expresstools@autodesk.com
 90
        0
280
     0
281
     0
  0
CLASS
  1
RTEXT
  2
RText
  3
RText|AutoCAD Express Tool|expresstools@autodesk.com
 90
    32768
280
     0
281
     1
  0
CLASS
  1
ARCALIGNEDTEXT
  2
AcDbArcAlignedText
  3
ATEXT|AutoCAD Express Tool|expresstools@autodesk.com
 90
    32768
280
     0
281
     1
  0
ENDSEC
  0
SECTION
  2
TABLES
  0
TABLE
  2
VPORT
  5
7
100
AcDbSymbolTable
 70
     1
  0
VPORT
  5
15
100
AcDbSymbolTableRecord
100
AcDbViewportTableRecord
  2
*ACTIVE
 70
     0
 10
0.0
 20
0.0
 11
1.0
 21
1.0
 12
6.591288
 22
4.579184
 13
0.0
 23
0.0
 14
1.0
 24
1.0
 15
0.0
 25
0.0
 16
0.0
 26
0.0
 36
1.0
 17
0.0
 27
0.0
 37
0.0
 40
9.158369
 41
0.688564
 42
50.0
 43
0.0
 44
0.0
 50
0.0
 51
0.0
 71
     0
 72
   100
 73
     1
 74
     1
 75
     0
 76
     0
 77
     0
 78
     0
281
     0
 65
     0
110
0.0
120
0.0
130
0.0
111
1.0
121
0.0
131
0.0
112
0.0
122
1.0
132
0.0
345
0
346
0
 79
     0
146
0.0
  0
ENDTAB
  0
TABLE
  2
LTYPE
  5
4
100
AcDbSymbolTable
 70
     3
  0
LTYPE
  5
11
100
AcDbSymbolTableRecord
100
AcDbLinetypeTableRecord
  2
ByBlock
 70
    64
  3

 72
    65
 73
     0
 40
0.0
  0
LTYPE
  5
12
100
AcDbSymbolTableRecord
100
AcDbLinetypeTableRecord
  2
ByLayer
 70
    64
  3

 72
    65
 73
     0
 40
0.0
  0
LTYPE
  5
13
100
AcDbSymbolTableRecord
100
AcDbLinetypeTableRecord
  2
Continuous
 70
    64
  3
Solid line
 72
    65
 73
     0
 40
0.0
  0
ENDTAB
  0
TABLE
  2
LAYER
  5
2
100
AcDbSymbolTable
 70
     2
  0
LAYER
  5
14
100
AcDbSymbolTableRecord
100
AcDbLayerTableRecord
  2
0
 70
     0
 62
     7
  6
Continuous
290
     1
370
    -3
390
1D
  0
LAYER
  5
28
100
AcDbSymbolTableRecord
100
AcDbLayerTableRecord
  2
LIVELLO_1
 70
     0
 62
   160
  6
Continuous
290
     1
370
    -3
390
1D
  0
ENDTAB
  0
TABLE
  2
STYLE
  5
3
100
AcDbSymbolTable
 70
     5
  0
STYLE
  5
17
100
AcDbSymbolTableRecord
100
AcDbTextStyleTableRecord
  2
Standard
 70
     0
 40
0.0
 41
1.0
 50
0.0
 71
     0
 42
0.0
  3
txt
  4

  0
STYLE
  5
24
100
AcDbSymbolTableRecord
100
AcDbTextStyleTableRecord
  2
STD
 70
     0
 40
0.0
 41
1.0
 50
0.0
 71
     0
 42
0.0
  3
txt
  4

  0
STYLE
  5
25
100
AcDbSymbolTableRecord
100
AcDbTextStyleTableRecord
  2
TATESTD
 70
     4
 40
0.0
 41
1.0
 50
0.0
 71
     0
 42
0.0
  3
txt
  4

  0
STYLE
  5
26
100
AcDbSymbolTableRecord
100
AcDbTextStyleTableRecord
  2
KANJISTD
 70
     0
 40
0.0
 41
1.0
 50
0.0
 71
     0
 42
0.0
  3
txt
  4
extfont
  0
STYLE
  5
27
100
AcDbSymbolTableRecord
100
AcDbTextStyleTableRecord
  2
KANJITATE
 70
     4
 40
0.0
 41
1.0
 50
0.0
 71
     0
 42
0.0
  3
txt
  4
extfont
  0
ENDTAB
  0
TABLE
  2
VIEW
  5
5
100
AcDbSymbolTable
 70
     0
  0
ENDTAB
  0
TABLE
  2
UCS
  5
6
100
AcDbSymbolTable
 70
     0
  0
ENDTAB
  0
TABLE
  2
APPID
  5
8
100
AcDbSymbolTable
 70
     1
  0
APPID
  5
16
100
AcDbSymbolTableRecord
100
AcDbRegAppTableRecord
  2
ACAD
 70
     0
  0
ENDTAB
  0
TABLE
  2
DIMSTYLE
  5
9
100
AcDbSymbolTable
 70
     1
100
AcDbDimStyleTable
 71
     0
  0
DIMSTYLE
105
18
100
AcDbSymbolTableRecord
100
AcDbDimStyleTableRecord
  2
Standard
 70
     0
  3

  4

 40
1.0
 41
0.18
 42
0.0625
 43
0.38
 44
0.18
 45
0.0
 46
0.0
 47
0.0
 48
0.0
 71
     0
 72
     0
 73
     1
 74
     1
 75
     0
 76
     0
 77
     0
 78
     0
 79
     0
140
0.18
141
0.09
142
0.0
143
25.4
144
1.0
145
0.0
146
1.0
147
0.09
148
0.0
170
     0
171
     2
172
     0
173
     0
174
     0
175
     0
176
     0
177
     0
178
     0
179
     0
271
     4
272
     4
273
     2
274
     2
275
     0
276
     0
277
     2
278
    46
279
     0
280
     0
281
     0
282
     0
283
     1
284
     0
285
     0
286
     0
288
     0
340
17
341
0
342
0
343
0
344
0
371
    -2
372
    -2
  0
ENDTAB
  0
TABLE
  2
BLOCK_RECORD
  5
1
100
AcDbSymbolTable
 70
     1
  0
BLOCK_RECORD
  5
A
100
AcDbSymbolTableRecord
100
AcDbBlockTableRecord
  2
*MODEL_SPACE
340
20
  0
BLOCK_RECORD
  5
B
100
AcDbSymbolTableRecord
100
AcDbBlockTableRecord
  2
*PAPER_SPACE
340
21
  0
BLOCK_RECORD
  5
29
100
AcDbSymbolTableRecord
100
AcDbBlockTableRecord
  2
AI9-BLK1
340
0
102
{BLKREFS
331
2A
102
}
  0
ENDTAB
  0
ENDSEC
  0
SECTION
  2
BLOCKS
  0
BLOCK
  5
D
100
AcDbEntity
  8
0
100
AcDbBlockBegin
  2
*MODEL_SPACE
 70
     0
 10
0.0
 20
0.0
 30
0.0
  3
*MODEL_SPACE
  1

  0
ENDBLK
  5
E
100
AcDbEntity
  8
0
100
AcDbBlockEnd
  0
BLOCK
  5
F
100
AcDbEntity
 67
     1
  8
0
100
AcDbBlockBegin
  2
*PAPER_SPACE
 70
     0
 10
0.0
 20
0.0
 30
0.0
  3
*PAPER_SPACE
  1

  0
ENDBLK
  5
10
100
AcDbEntity
 67
     1
  8
0
100
AcDbBlockEnd
  0
BLOCK
  5
2B
100
AcDbEntity
  8
LIVELLO_1
 62
     7
100
AcDbBlockBegin
  2
AI9-BLK1
 70
     0
 10
0.0
 20
0.0
 30
0.0
  3
AI9-BLK1
  1

  0
SPLINE
  5
196
100
AcDbEntity
  8
LIVELLO_1
 62
     7
100
AcDbSpline
210
0.0
220
0.0
230
1.0
 70
     8
 71
     3
 72
    35
 73
    31
 74
     0
 42
0.00000001
 43
0.00000001
 40
0.0
 40
0.0
 40
0.0
 40
0.0
 40
1.0
 40
1.0
 40
1.0
 40
2.0
 40
2.0
 40
2.0
 40
3.0
 40
3.0
 40
3.0
 40
4.0
 40
4.0
 40
4.0
 40
5.0
 40
5.0
 40
5.0
 40
6.0
 40
6.0
 40
6.0
 40
7.0
 40
7.0
 40
7.0
 40
8.0
 40
8.0
 40
8.0
 40
9.0
 40
9.0
 40
9.0
 40
10.0
 40
10.0
 40
10.0
 40
10.0
 10
-42.919257948133676
 20
29.412330457899301
 30
0.0
 10
-43.574515109592006
 20
35.26968180338541
 30
0.0
 10
-37.459126112196174
 20
39.303544108072913
 30
0.0
 10
-31.612282307942706
 20
39.326970757378469
 30
0.0
 10
-31.612282307942706
 20
39.326970757378469
 30
0.0
 10
-31.612282307942706
 20
36.954333496093746
 30
0.0
 10
-31.612282307942706
 20
36.954333496093746
 30
0.0
 10
-36.100552707248262
 20
36.932629394531247
 30
0.0
 10
-41.070447455512152
 20
34.170696343315967
 30
0.0
 10
-40.566602240668402
 20
29.673468695746525
 30
0.0
 10
-39.765962049696178
 20
22.452204047309024
 30
0.0
 10
-34.869447835286458
 20
19.113562011718749
 30
0.0
 10
-28.341680908203124
 20
15.776642523871526
 30
0.0
 10
-22.215612114800344
 20
12.642294650607639
 30
0.0
 10
-18.020519341362846
 20
13.375755479600693
 30
0.0
 10
-11.455373128255207
 20
11.566391330295138
 30
0.0
 10
-7.2621751573350686
 20
10.404360622829859
 30
0.0
 10
-4.3348775227864582
 20
8.7600165473090268
 30
0.0
 10
-1.5856913248697915
 20
6.653340657552083
 30
0.0
 10
-1.5856913248697915
 20
6.653340657552083
 30
0.0
 10
-1.5856913248697915
 20
3.6337144639756942
 30
0.0
 10
-1.5856913248697915
 20
3.6337144639756942
 30
0.0
 10
-4.5427890353732634
 20
6.1097045898437496
 30
0.0
 10
-7.5090162489149295
 20
8.0100192599826379
 30
0.0
 10
-12.08393079969618
 20
9.27850341796875
 30
0.0
 10
-18.831150309244791
 20
11.137476942274304
 30
0.0
 10
-23.124945068359374
 20
10.440878634982639
 30
0.0
 10
-29.415689425998263
 20
13.664798990885416
 30
0.0
 10
-36.735828314887151
 20
17.402727593315969
 30
0.0
 10
-42.023877631293402
 20
21.316700575086802
 30
0.0
 10
-42.919257948133676
 20
29.412330457899301
 30
0.0
  0
SPLINE
  5
195
100
AcDbEntity
  8
LIVELLO_1
 62
     7
100
AcDbSpline
210
0.0
220
0.0
230
1.0
 70
     8
 71
     3
 72
    23
 73
    19
 74
     0
 42
0.00000001
 43
0.00000001
 40
0.0
 40
0.0
 40
0.0
 40
0.0
 40
1.0
 40
1.0
 40
1.0
 40
2.0
 40
2.0
 40
2.0
 40
3.0
 40
3.0
 40
3.0
 40
4.0
 40
4.0
 40
4.0
 40
5.0
 40
5.0
 40
5.0
 40
6.0
 40
6.0
 40
6.0
 40
6.0
 10
-30.503995090060762
 20
-13.950741916232637
 30
0.0
 10
-30.503995090060762
 20
-13.950741916232637
 30
0.0
 10
-21.118865966796871
 20
-10.969700792100694
 30
0.0
 10
-18.996514892578123
 20
-10.969700792100694
 30
0.0
 10
-18.996514892578123
 20
-10.969700792100694
 30
0.0
 10
3.0674268934461804
 20
-10.969700792100694
 30
0.0
 10
3.0674268934461804
 20
-10.969700792100694
 30
0.0
 10
3.0674268934461804
 20
-10.969700792100694
 30
0.0
 10
25.131368679470484
 20
-10.969700792100694
 30
0.0
 10
25.131368679470484
 20
-10.969700792100694
 30
0.0
 10
27.256303575303818
 20
-10.969700792100694
 30
0.0
 10
36.641260443793399
 20
-13.950741916232637
 30
0.0
 10
36.641260443793399
 20
-13.950741916232637
 30
0.0
 10
36.467455376519091
 20
-13.912501356336804
 30
0.0
 10
36.288654920789931
 20
-13.950741916232637
 30
0.0
 10
36.105031331380204
 20
-13.950741916232637
 30
0.0
 10
36.105031331380204
 20
-13.950741916232637
 30
0.0
 10
-30.503995090060762
 20
-13.950741916232637
 30
0.0
 10
-30.503995090060762
 20
-13.950741916232637
 30
0.0
  0
POLYLINE
  5
18F
100
AcDbEntity
  8
LIVELLO_1
 62
     7
100
AcDb2dPolyline
 66
     1
 10
0.0
 20
0.0
 30
0.0
 70
     1
  0
VERTEX
  5
190
100
AcDbEntity
  8
LIVELLO_1
 62
     7
100
AcDbVertex
100
AcDb2dVertex
 10
-37.137354
 20
-52.187857
 30
0.0
  0
VERTEX
  5
191
100
AcDbEntity
  8
LIVELLO_1
 62
     7
100
AcDbVertex
100
AcDb2dVertex
 10
-36.602675
 20
-43.548246
 30
0.0
  0
VERTEX
  5
192
100
AcDbEntity
  8
LIVELLO_1
 62
     7
100
AcDbVertex
100
AcDb2dVertex
 10
42.743214
 20
-43.548246
 30
0.0
  0
VERTEX
  5
193
100
AcDbEntity
  8
LIVELLO_1
 62
     7
100
AcDbVertex
100
AcDb2dVertex
 10
43.27617
 20
-52.187857
 30
0.0
  0
SEQEND
  5
194
100
AcDbEntity
  8
LIVELLO_1
 62
     7
  0
SPLINE
  5
18E
100
AcDbEntity
  8
LIVELLO_1
 62
     7
100
AcDbSpline
210
0.0
220
0.0
230
1.0
 70
     8
 71
     3
 72
    23
 73
    19
 74
     0
 42
0.00000001
 43
0.00000001
 40
0.0
 40
0.0
 40
0.0
 40
0.0
 40
1.0
 40
1.0
 40
1.0
 40
2.0
 40
2.0
 40
2.0
 40
3.0
 40
3.0
 40
3.0
 40
4.0
 40
4.0
 40
4.0
 40
5.0
 40
5.0
 40
5.0
 40
6.0
 40
6.0
 40
6.0
 40
6.0
 10
39.086244710286458
 20
-16.50286865234375
 30
0.0
 10
39.086244710286458
 20
-16.50286865234375
 30
0.0
 10
40.688214111328122
 20
-43.67468126085069
 30
0.0
 10
40.688214111328122
 20
-43.67468126085069
 30
0.0
 10
40.688214111328122
 20
-43.67468126085069
 30
0.0
 10
-34.552671305338535
 20
-43.67468126085069
 30
0.0
 10
-34.552671305338535
 20
-43.67468126085069
 30
0.0
 10
-34.552671305338535
 20
-43.67468126085069
 30
0.0
 10
-32.950701904296871
 20
-16.50286865234375
 30
0.0
 10
-32.950701904296871
 20
-16.50286865234375
 30
0.0
 10
-32.950701904296871
 20
-15.023200141059027
 30
0.0
 10
-31.75353122287326
 20
-13.826029459635416
 30
0.0
 10
-30.279547119140624
 20
-13.826029459635416
 30
0.0
 10
-30.279547119140624
 20
-13.826029459635416
 30
0.0
 10
36.415089925130204
 20
-13.826029459635416
 30
0.0
 10
36.415089925130204
 20
-13.826029459635416
 30
0.0
 10
37.890624321831595
 20
-13.826029459635416
 30
0.0
 10
39.086244710286458
 20
-15.023200141059027
 30
0.0
 10
39.086244710286458
 20
-16.50286865234375
 30
0.0
  0
LINE
  5
18D
100
AcDbEntity
  8
LIVELLO_1
 62
     7
100
AcDbLine
 10
-32.885762
 20
-16.552823
 30
0.0
 11
39.023027
 21
-16.552823
 31
0.0
  0
LINE
  5
18C
100
AcDbEntity
  8
LIVELLO_1
 62
     7
100
AcDbLine
 10
42.489827
 20
-69.446407
 30
0.0
 11
42.489827
 21
-61.39074
 31
0.0
  0
LINE
  5
18B
100
AcDbEntity
  8
LIVELLO_1
 62
     7
100
AcDbLine
 10
-37.406588
 20
-69.446407
 30
0.0
 11
-37.406588
 21
-61.39074
 31
0.0
  0
LINE
  5
18A
100
AcDbEntity
  8
LIVELLO_1
 62
     7
100
AcDbLine
 10
42.489827
 20
-65.417712
 30
0.0
 11
18.741406
 21
-65.417712
 31
0.0
  0
LINE
  5
189
100
AcDbEntity
  8
LIVELLO_1
 62
     7
100
AcDbLine
 10
-37.406588
 20
-65.417712
 30
0.0
 11
-12.504577
 21
-65.417712
 31
0.0
  0
POLYLINE
  5
183
100
AcDbEntity
  8
LIVELLO_1
 62
     7
100
AcDb2dPolyline
 66
     1
 10
0.0
 20
0.0
 30
0.0
 70
     1
  0
VERTEX
  5
184
100
AcDbEntity
  8
LIVELLO_1
 62
     7
100
AcDbVertex
100
AcDb2dVertex
 10
-5.557886
 20
62.860418
 30
0.0
  0
VERTEX
  5
185
100
AcDbEntity
  8
LIVELLO_1
 62
     7
100
AcDbVertex
100
AcDb2dVertex
 10
-3.558525
 20
62.858695
 30
0.0
  0
VERTEX
  5
186
100
AcDbEntity
  8
LIVELLO_1
 62
     7
100
AcDbVertex
100
AcDb2dVertex
 10
-3.556803
 20
25.350218
 30
0.0
  0
VERTEX
  5
187
100
AcDbEntity
  8
LIVELLO_1
 62
     7
100
AcDbVertex
100
AcDb2dVertex
 10
-5.554614
 20
25.350218
 30
0.0
  0
SEQEND
  5
188
100
AcDbEntity
  8
LIVELLO_1
 62
     7
  0
SPLINE
  5
182
100
AcDbEntity
  8
LIVELLO_1
 62
     7
100
AcDbSpline
210
0.0
220
0.0
230
1.0
 70
     8
 71
     3
 72
    23
 73
    19
 74
     0
 42
0.00000001
 43
0.00000001
 40
0.0
 40
0.0
 40
0.0
 40
0.0
 40
1.0
 40
1.0
 40
1.0
 40
2.0
 40
2.0
 40
2.0
 40
3.0
 40
3.0
 40
3.0
 40
4.0
 40
4.0
 40
4.0
 40
5.0
 40
5.0
 40
5.0
 40
6.0
 40
6.0
 40
6.0
 40
6.0
 10
-18.013973659939236
 20
60.870186360677074
 30
0.0
 10
-18.013973659939236
 20
60.870186360677074
 30
0.0
 10
-5.4979417588975688
 20
61.227787272135409
 30
0.0
 10
-5.4979417588975688
 20
61.227787272135409
 30
0.0
 10
-5.4979417588975688
 20
61.227787272135409
 30
0.0
 10
-5.4946689181857638
 20
27.458616807725694
 30
0.0
 10
-5.4946689181857638
 20
27.458616807725694
 30
0.0
 10
-5.4946689181857638
 20
27.458616807725694
 30
0.0
 10
-18.010528564453125
 20
27.815873209635413
 30
0.0
 10
-18.010528564453125
 20
27.815873209635413
 30
0.0
 10
-19.282457817925344
 20
27.815873209635413
 30
0.0
 10
-20.314263916015623
 20
28.845267740885415
 30
0.0
 10
-20.314263916015623
 20
30.115474446614581
 30
0.0
 10
-20.314263916015623
 20
30.115474446614581
 30
0.0
 10
-20.317536756727428
 20
58.572307671440967
 30
0.0
 10
-20.317536756727428
 20
58.572307671440967
 30
0.0
 10
-20.317536756727428
 20
59.841136338975687
 30
0.0
 10
-19.285902913411455
 20
60.870186360677074
 30
0.0
 10
-18.013973659939236
 20
60.870186360677074
 30
0.0
  0
SPLINE
  5
181
100
AcDbEntity
  8
LIVELLO_1
 62
     7
100
AcDbSpline
210
0.0
220
0.0
230
1.0
 70
     8
 71
     3
 72
    23
 73
    19
 74
     0
 42
0.00000001
 43
0.00000001
 40
0.0
 40
0.0
 40
0.0
 40
0.0
 40
1.0
 40
1.0
 40
1.0
 40
2.0
 40
2.0
 40
2.0
 40
3.0
 40
3.0
 40
3.0
 40
4.0
 40
4.0
 40
4.0
 40
5.0
 40
5.0
 40
5.0
 40
6.0
 40
6.0
 40
6.0
 40
6.0
 10
-18.012251112196179
 20
53.478044976128466
 30
0.0
 10
-18.012251112196179
 20
53.478044976128466
 30
0.0
 10
-5.4963914659288191
 20
53.835301378038189
 30
0.0
 10
-5.4963914659288191
 20
53.835301378038189
 30
0.0
 10
-5.4963914659288191
 20
53.835301378038189
 30
0.0
 10
-5.4946689181857638
 20
34.852480740017356
 30
0.0
 10
-5.4946689181857638
 20
34.852480740017356
 30
0.0
 10
-5.4946689181857638
 20
34.852480740017356
 30
0.0
 10
-18.010528564453125
 20
35.21008165147569
 30
0.0
 10
-18.010528564453125
 20
35.21008165147569
 30
0.0
 10
-19.284180365668401
 20
35.21008165147569
 30
0.0
 10
-20.315814208984374
 20
36.240854220920134
 30
0.0
 10
-20.315814208984374
 20
37.512783474392357
 30
0.0
 10
-20.315814208984374
 20
37.512783474392357
 30
0.0
 10
-20.317536756727428
 20
51.175343153211799
 30
0.0
 10
-20.317536756727428
 20
51.175343153211799
 30
0.0
 10
-20.317536756727428
 20
52.447272406684021
 30
0.0
 10
-19.285902913411455
 20
53.478044976128466
 30
0.0
 10
-18.012251112196179
 20
53.478044976128466
 30
0.0
  0
CIRCLE
  5
180
100
AcDbEntity
  8
LIVELLO_1
 62
     7
100
AcDbCircle
 10
3.063637
 20
43.929274
 30
0.0
 40
0.734494
  0
CIRCLE
  5
17F
100
AcDbEntity
  8
LIVELLO_1
 62
     7
100
AcDbCircle
 10
3.063551
 20
43.929274
 30
0.0
 40
1.967408
  0
CIRCLE
  5
17E
100
AcDbEntity
  8
LIVELLO_1
 62
     7
100
AcDbCircle
 10
3.063551
 20
43.929274
 30
0.0
 40
4.743983
  0
SPLINE
  5
17D
100
AcDbEntity
  8
LIVELLO_1
 62
     7
100
AcDbSpline
210
0.0
220
0.0
230
1.0
 70
     8
 71
     3
 72
    17
 73
    13
 74
     0
 42
0.00000001
 43
0.00000001
 40
0.0
 40
0.0
 40
0.0
 40
0.0
 40
1.0
 40
1.0
 40
1.0
 40
2.0
 40
2.0
 40
2.0
 40
3.0
 40
3.0
 40
3.0
 40
4.0
 40
4.0
 40
4.0
 40
4.0
 10
2.3880540635850691
 20
39.261858452690966
 30
0.0
 10
2.3880540635850691
 20
39.261858452690966
 30
0.0
 10
2.3932217068142361
 20
-1.6086873372395831
 30
0.0
 10
2.3932217068142361
 20
-1.6086873372395831
 30
0.0
 10
2.3932217068142361
 20
-1.6086873372395831
 30
0.0
 10
-1.6771586100260416
 20
-1.6086873372395831
 30
0.0
 10
-1.6771586100260416
 20
-1.6086873372395831
 30
0.0
 10
-1.6771586100260416
 20
-1.6086873372395831
 30
0.0
 10
-1.6804314507378471
 20
43.9292738172743
 30
0.0
 10
-1.6804314507378471
 20
43.9292738172743
 30
0.0
 10
-1.6804314507378471
 20
41.564904785156244
 30
0.0
 10
0.0862135145399306
 20
39.604645453559023
 30
0.0
 10
2.3880540635850691
 20
39.261858452690966
 30
0.0
  0
SPLINE
  5
17C
100
AcDbEntity
  8
LIVELLO_1
 62
     7
100
AcDbSpline
210
0.0
220
0.0
230
1.0
 70
     8
 71
     3
 72
    17
 73
    13
 74
     0
 42
0.00000001
 43
0.00000001
 40
0.0
 40
0.0
 40
0.0
 40
0.0
 40
1.0
 40
1.0
 40
1.0
 40
2.0
 40
2.0
 40
2.0
 40
3.0
 40
3.0
 40
3.0
 40
4.0
 40
4.0
 40
4.0
 40
4.0
 10
7.8075337727864573
 20
43.960624186197911
 30
0.0
 10
7.8075337727864573
 20
43.960624186197911
 30
0.0
 10
7.8127014160156243
 20
-1.6100653754340277
 30
0.0
 10
7.8127014160156243
 20
-1.6100653754340277
 30
0.0
 10
7.8127014160156243
 20
-1.6100653754340277
 30
0.0
 10
3.7416320800781246
 20
-1.6100653754340277
 30
0.0
 10
3.7416320800781246
 20
-1.6100653754340277
 30
0.0
 10
3.7416320800781246
 20
-1.6100653754340277
 30
0.0
 10
3.7383592393663192
 20
39.290108235677081
 30
0.0
 10
3.7383592393663192
 20
39.290108235677081
 30
0.0
 10
6.0417500813802079
 20
39.632895236545139
 30
0.0
 10
7.8075337727864573
 20
41.591432020399303
 30
0.0
 10
7.8075337727864573
 20
43.960624186197911
 30
0.0
  0
POLYLINE
  5
176
100
AcDbEntity
  8
LIVELLO_1
 62
     7
100
AcDb2dPolyline
 66
     1
 10
0.0
 20
0.0
 30
0.0
 70
     1
  0
VERTEX
  5
177
100
AcDbEntity
  8
LIVELLO_1
 62
     7
100
AcDbVertex
100
AcDb2dVertex
 10
3.741632
 20
-1.550465
 30
0.0
  0
VERTEX
  5
178
100
AcDbEntity
  8
LIVELLO_1
 62
     7
100
AcDbVertex
100
AcDb2dVertex
 10
7.812701
 20
-1.550465
 30
0.0
  0
VERTEX
  5
179
100
AcDbEntity
  8
LIVELLO_1
 62
     7
100
AcDbVertex
100
AcDb2dVertex
 10
7.812701
 20
-2.665987
 30
0.0
  0
VERTEX
  5
17A
100
AcDbEntity
  8
LIVELLO_1
 62
     7
100
AcDbVertex
100
AcDb2dVertex
 10
3.741632
 20
-2.665987
 30
0.0
  0
SEQEND
  5
17B
100
AcDbEntity
  8
LIVELLO_1
 62
     7
  0
POLYLINE
  5
170
100
AcDbEntity
  8
LIVELLO_1
 62
     7
100
AcDb2dPolyline
 66
     1
 10
0.0
 20
0.0
 30
0.0
 70
     1
  0
VERTEX
  5
171
100
AcDbEntity
  8
LIVELLO_1
 62
     7
100
AcDbVertex
100
AcDb2dVertex
 10
-1.677159
 20
-1.548743
 30
0.0
  0
VERTEX
  5
172
100
AcDbEntity
  8
LIVELLO_1
 62
     7
100
AcDbVertex
100
AcDb2dVertex
 10
2.393222
 20
-1.548743
 30
0.0
  0
VERTEX
  5
173
100
AcDbEntity
  8
LIVELLO_1
 62
     7
100
AcDbVertex
100
AcDb2dVertex
 10
2.393222
 20
-2.66771
 30
0.0
  0
VERTEX
  5
174
100
AcDbEntity
  8
LIVELLO_1
 62
     7
100
AcDbVertex
100
AcDb2dVertex
 10
-1.677159
 20
-2.66771
 30
0.0
  0
SEQEND
  5
175
100
AcDbEntity
  8
LIVELLO_1
 62
     7
  0
POLYLINE
  5
166
100
AcDbEntity
  8
LIVELLO_1
 62
     7
100
AcDb2dPolyline
 66
     1
 10
0.0
 20
0.0
 30
0.0
 70
     1
  0
VERTEX
  5
167
100
AcDbEntity
  8
LIVELLO_1
 62
     7
100
AcDbVertex
100
AcDb2dVertex
 10
-3.878575
 20
-1.284159
 30
0.0
  0
VERTEX
  5
168
100
AcDbEntity
  8
LIVELLO_1
 62
     7
100
AcDbVertex
100
AcDb2dVertex
 10
2.358943
 20
-1.284159
 30
0.0
  0
VERTEX
  5
169
100
AcDbEntity
  8
LIVELLO_1
 62
     7
100
AcDbVertex
100
AcDb2dVertex
 10
2.361527
 20
-8.159536
 30
0.0
  0
VERTEX
  5
16A
100
AcDbEntity
  8
LIVELLO_1
 62
     7
100
AcDbVertex
100
AcDb2dVertex
 10
3.775739
 20
-8.159536
 30
0.0
  0
VERTEX
  5
16B
100
AcDbEntity
  8
LIVELLO_1
 62
     7
100
AcDbVertex
100
AcDb2dVertex
 10
3.774016
 20
-1.284159
 30
0.0
  0
VERTEX
  5
16C
100
AcDbEntity
  8
LIVELLO_1
 62
     7
100
AcDbVertex
100
AcDb2dVertex
 10
10.013945
 20
-1.284159
 30
0.0
  0
VERTEX
  5
16D
100
AcDbEntity
  8
LIVELLO_1
 62
     7
100
AcDbVertex
100
AcDb2dVertex
 10
10.013945
 20
-10.463961
 30
0.0
  0
VERTEX
  5
16E
100
AcDbEntity
  8
LIVELLO_1
 62
     7
100
AcDbVertex
100
AcDb2dVertex
 10
-3.876852
 20
-10.462583
 30
0.0
  0
SEQEND
  5
16F
100
AcDbEntity
  8
LIVELLO_1
 62
     7
  0
SPLINE
  5
165
100
AcDbEntity
  8
LIVELLO_1
 62
     7
100
AcDbSpline
210
0.0
220
0.0
230
1.0
 70
     8
 71
     3
 72
    20
 73
    16
 74
     0
 42
0.00000001
 43
0.00000001
 40
0.0
 40
0.0
 40
0.0
 40
0.0
 40
1.0
 40
1.0
 40
1.0
 40
2.0
 40
2.0
 40
2.0
 40
3.0
 40
3.0
 40
3.0
 40
4.0
 40
4.0
 40
4.0
 40
5.0
 40
5.0
 40
5.0
 40
5.0
 10
3.7981316460503467
 20
39.301821560329856
 30
0.0
 10
3.7981316460503467
 20
39.301821560329856
 30
0.0
 10
3.8031270345052079
 20
-8.1729722764756936
 30
0.0
 10
3.8031270345052079
 20
-8.1729722764756936
 30
0.0
 10
3.8031270345052079
 20
-8.1729722764756936
 30
0.0
 10
2.3341383192274305
 20
-8.1729722764756936
 30
0.0
 10
2.3341383192274305
 20
-8.1729722764756936
 30
0.0
 10
2.3341383192274305
 20
-8.1729722764756936
 30
0.0
 10
2.3291429307725693
 20
39.301821560329856
 30
0.0
 10
2.3291429307725693
 20
39.301821560329856
 30
0.0
 10
2.5685770670572916
 20
39.267026095920137
 30
0.0
 10
2.8136956108940971
 20
39.248767089843746
 30
0.0
 10
3.0639817979600692
 20
39.248767089843746
 30
0.0
 10
3.3125454372829859
 20
39.248767089843746
 30
0.0
 10
3.5595587836371525
 20
39.267026095920137
 30
0.0
 10
3.7981316460503467
 20
39.301821560329856
 30
0.0
  0
SPLINE
  5
164
100
AcDbEntity
  8
LIVELLO_1
 62
     7
100
AcDbSpline
210
0.0
220
0.0
230
1.0
 70
     8
 71
     3
 72
    20
 73
    16
 74
     0
 42
0.00000001
 43
0.00000001
 40
0.0
 40
0.0
 40
0.0
 40
0.0
 40
1.0
 40
1.0
 40
1.0
 40
2.0
 40
2.0
 40
2.0
 40
3.0
 40
3.0
 40
3.0
 40
4.0
 40
4.0
 40
4.0
 40
5.0
 40
5.0
 40
5.0
 40
5.0
 10
3.7981316460503467
 20
39.301821560329856
 30
0.0
 10
3.7981316460503467
 20
39.301821560329856
 30
0.0
 10
3.8031270345052079
 20
-8.1729722764756936
 30
0.0
 10
3.8031270345052079
 20
-8.1729722764756936
 30
0.0
 10
3.8031270345052079
 20
-8.1729722764756936
 30
0.0
 10
2.3341383192274305
 20
-8.1729722764756936
 30
0.0
 10
2.3341383192274305
 20
-8.1729722764756936
 30
0.0
 10
2.3341383192274305
 20
-8.1729722764756936
 30
0.0
 10
2.3291429307725693
 20
39.301821560329856
 30
0.0
 10
2.3291429307725693
 20
39.301821560329856
 30
0.0
 10
2.5685770670572916
 20
39.267026095920137
 30
0.0
 10
2.8136956108940971
 20
39.248767089843746
 30
0.0
 10
3.0639817979600692
 20
39.248767089843746
 30
0.0
 10
3.3125454372829859
 20
39.248767089843746
 30
0.0
 10
3.5595587836371525
 20
39.267026095920137
 30
0.0
 10
3.7981316460503467
 20
39.301821560329856
 30
0.0
  0
CIRCLE
  5
163
100
AcDbEntity
  8
LIVELLO_1
 62
     7
100
AcDbCircle
 10
36.011066
 20
44.105318
 30
0.0
 40
2.863994
  0
POLYLINE
  5
14F
100
AcDbEntity
  8
LIVELLO_1
 62
     7
100
AcDb2dPolyline
 66
     1
 10
0.0
 20
0.0
 30
0.0
 70
     1
  0
VERTEX
  5
150
100
AcDbEntity
  8
LIVELLO_1
 62
     7
100
AcDbVertex
100
AcDb2dVertex
 10
-3.62002
 20
62.850427
 30
0.0
  0
VERTEX
  5
151
100
AcDbEntity
  8
LIVELLO_1
 62
     7
100
AcDbVertex
100
AcDb2dVertex
 10
48.324096
 20
64.001089
 30
0.0
  0
VERTEX
  5
152
100
AcDbEntity
  8
LIVELLO_1
 62
     7
100
AcDbVertex
100
AcDb2dVertex
 10
48.324096
 20
64.691142
 30
0.0
  0
VERTEX
  5
153
100
AcDbEntity
  8
LIVELLO_1
 62
     7
100
AcDbVertex
100
AcDb2dVertex
 10
49.113023
 20
65.47938
 30
0.0
  0
VERTEX
  5
154
100
AcDbEntity
  8
LIVELLO_1
 62
     7
100
AcDbVertex
100
AcDb2dVertex
 10
52.015171
 20
65.47938
 30
0.0
  0
VERTEX
  5
155
100
AcDbEntity
  8
LIVELLO_1
 62
     7
100
AcDbVertex
100
AcDb2dVertex
 10
52.900561
 20
66.365458
 30
0.0
  0
VERTEX
  5
156
100
AcDbEntity
  8
LIVELLO_1
 62
     7
100
AcDbVertex
100
AcDb2dVertex
 10
52.900561
 20
70.583633
 30
0.0
  0
VERTEX
  5
157
100
AcDbEntity
  8
LIVELLO_1
 62
     7
100
AcDbVertex
100
AcDb2dVertex
 10
58.322108
 20
70.583633
 30
0.0
  0
VERTEX
  5
158
100
AcDbEntity
  8
LIVELLO_1
 62
     7
100
AcDbVertex
100
AcDb2dVertex
 10
58.323486
 20
50.73127
 30
0.0
  0
VERTEX
  5
159
100
AcDbEntity
  8
LIVELLO_1
 62
     7
100
AcDbVertex
100
AcDb2dVertex
 10
58.323486
 20
37.474543
 30
0.0
  0
VERTEX
  5
15A
100
AcDbEntity
  8
LIVELLO_1
 62
     7
100
AcDbVertex
100
AcDb2dVertex
 10
58.325208
 20
17.623558
 30
0.0
  0
VERTEX
  5
15B
100
AcDbEntity
  8
LIVELLO_1
 62
     7
100
AcDbVertex
100
AcDb2dVertex
 10
52.906418
 20
17.625281
 30
0.0
  0
VERTEX
  5
15C
100
AcDbEntity
  8
LIVELLO_1
 62
     7
100
AcDbVertex
100
AcDb2dVertex
 10
52.906418
 20
21.842078
 30
0.0
  0
VERTEX
  5
15D
100
AcDbEntity
  8
LIVELLO_1
 62
     7
100
AcDbVertex
100
AcDb2dVertex
 10
52.019305
 20
22.728156
 30
0.0
  0
VERTEX
  5
15E
100
AcDbEntity
  8
LIVELLO_1
 62
     7
100
AcDbVertex
100
AcDb2dVertex
 10
49.118191
 20
22.728156
 30
0.0
  0
VERTEX
  5
15F
100
AcDbEntity
  8
LIVELLO_1
 62
     7
100
AcDbVertex
100
AcDb2dVertex
 10
48.327541
 20
23.516394
 30
0.0
  0
VERTEX
  5
160
100
AcDbEntity
  8
LIVELLO_1
 62
     7
100
AcDbVertex
100
AcDb2dVertex
 10
48.327541
 20
24.206447
 30
0.0
  0
VERTEX
  5
161
100
AcDbEntity
  8
LIVELLO_1
 62
     7
100
AcDbVertex
100
AcDb2dVertex
 10
-3.616747
 20
25.360209
 30
0.0
  0
SEQEND
  5
162
100
AcDbEntity
  8
LIVELLO_1
 62
     7
  0
POLYLINE
  5
149
100
AcDbEntity
  8
LIVELLO_1
 62
     7
100
AcDb2dPolyline
 66
     1
 10
0.0
 20
0.0
 30
0.0
 70
     1
  0
VERTEX
  5
14A
100
AcDbEntity
  8
LIVELLO_1
 62
     7
100
AcDbVertex
100
AcDb2dVertex
 10
-1.200702
 20
63.44574
 30
0.0
  0
VERTEX
  5
14B
100
AcDbEntity
  8
LIVELLO_1
 62
     7
100
AcDbVertex
100
AcDb2dVertex
 10
48.334776
 20
64.582966
 30
0.0
  0
VERTEX
  5
14C
100
AcDbEntity
  8
LIVELLO_1
 62
     7
100
AcDbVertex
100
AcDb2dVertex
 10
48.334776
 20
63.989376
 30
0.0
  0
VERTEX
  5
14D
100
AcDbEntity
  8
LIVELLO_1
 62
     7
100
AcDbVertex
100
AcDb2dVertex
 10
-1.200702
 20
62.85215
 30
0.0
  0
SEQEND
  5
14E
100
AcDbEntity
  8
LIVELLO_1
 62
     7
  0
POLYLINE
  5
144
100
AcDbEntity
  8
LIVELLO_1
 62
     7
100
AcDb2dPolyline
 66
     1
 10
0.0
 20
0.0
 30
0.0
  0
VERTEX
  5
145
100
AcDbEntity
  8
LIVELLO_1
 62
     7
100
AcDbVertex
100
AcDb2dVertex
 10
52.877479
 20
70.583633
 30
0.0
  0
VERTEX
  5
146
100
AcDbEntity
  8
LIVELLO_1
 62
     7
100
AcDbVertex
100
AcDb2dVertex
 10
51.743698
 20
70.583633
 30
0.0
  0
VERTEX
  5
147
100
AcDbEntity
  8
LIVELLO_1
 62
     7
100
AcDbVertex
100
AcDb2dVertex
 10
51.596937
 20
65.455953
 30
0.0
  0
SEQEND
  5
148
100
AcDbEntity
  8
LIVELLO_1
 62
     7
  0
POLYLINE
  5
13F
100
AcDbEntity
  8
LIVELLO_1
 62
     7
100
AcDb2dPolyline
 66
     1
 10
0.0
 20
0.0
 30
0.0
  0
VERTEX
  5
140
100
AcDbEntity
  8
LIVELLO_1
 62
     7
100
AcDbVertex
100
AcDb2dVertex
 10
52.882302
 20
17.625281
 30
0.0
  0
VERTEX
  5
141
100
AcDbEntity
  8
LIVELLO_1
 62
     7
100
AcDbVertex
100
AcDb2dVertex
 10
51.748521
 20
17.625281
 30
0.0
  0
VERTEX
  5
142
100
AcDbEntity
  8
LIVELLO_1
 62
     7
100
AcDbVertex
100
AcDb2dVertex
 10
51.600382
 20
22.754683
 30
0.0
  0
SEQEND
  5
143
100
AcDbEntity
  8
LIVELLO_1
 62
     7
  0
POLYLINE
  5
11D
100
AcDbEntity
  8
LIVELLO_1
 62
     7
100
AcDb2dPolyline
 66
     1
 10
0.0
 20
0.0
 30
0.0
 70
     1
  0
VERTEX
  5
11E
100
AcDbEntity
  8
LIVELLO_1
 62
     7
100
AcDbVertex
100
AcDb2dVertex
 10
48.273453
 20
64.747641
 30
0.0
  0
VERTEX
  5
11F
100
AcDbEntity
  8
LIVELLO_1
 62
     7
100
AcDbVertex
100
AcDb2dVertex
 10
49.121291
 20
65.539324
 30
0.0
  0
VERTEX
  5
120
100
AcDbEntity
  8
LIVELLO_1
 62
     7
100
AcDbVertex
100
AcDb2dVertex
 10
49.126114
 20
22.669934
 30
0.0
  0
VERTEX
  5
121
100
AcDbEntity
  8
LIVELLO_1
 62
     7
100
AcDbVertex
100
AcDb2dVertex
 10
48.278276
 20
23.461273
 30
0.0
  0
VERTEX
  5
122
100
AcDbEntity
  8
LIVELLO_1
 62
     7
100
AcDbVertex
100
AcDb2dVertex
 10
48.276554
 20
32.737537
 30
0.0
  0
VERTEX
  5
123
100
AcDbEntity
  8
LIVELLO_1
 62
     7
100
AcDbVertex
100
AcDb2dVertex
 10
48.708913
 20
32.737537
 30
0.0
  0
VERTEX
  5
124
100
AcDbEntity
  8
LIVELLO_1
 62
     7
100
AcDbVertex
100
AcDb2dVertex
 10
48.708913
 20
33.514061
 30
0.0
  0
VERTEX
  5
125
100
AcDbEntity
  8
LIVELLO_1
 62
     7
100
AcDbVertex
100
AcDb2dVertex
 10
48.276554
 20
33.514061
 30
0.0
  0
VERTEX
  5
126
100
AcDbEntity
  8
LIVELLO_1
 62
     7
100
AcDbVertex
100
AcDb2dVertex
 10
48.276554
 20
36.397262
 30
0.0
  0
VERTEX
  5
127
100
AcDbEntity
  8
LIVELLO_1
 62
     7
100
AcDbVertex
100
AcDb2dVertex
 10
48.708913
 20
36.397262
 30
0.0
  0
VERTEX
  5
128
100
AcDbEntity
  8
LIVELLO_1
 62
     7
100
AcDbVertex
100
AcDb2dVertex
 10
48.708913
 20
37.175509
 30
0.0
  0
VERTEX
  5
129
100
AcDbEntity
  8
LIVELLO_1
 62
     7
100
AcDbVertex
100
AcDb2dVertex
 10
48.276554
 20
37.175509
 30
0.0
  0
VERTEX
  5
12A
100
AcDbEntity
  8
LIVELLO_1
 62
     7
100
AcDbVertex
100
AcDb2dVertex
 10
48.276554
 20
40.056642
 30
0.0
  0
VERTEX
  5
12B
100
AcDbEntity
  8
LIVELLO_1
 62
     7
100
AcDbVertex
100
AcDb2dVertex
 10
48.708913
 20
40.056642
 30
0.0
  0
VERTEX
  5
12C
100
AcDbEntity
  8
LIVELLO_1
 62
     7
100
AcDbVertex
100
AcDb2dVertex
 10
48.708913
 20
40.834889
 30
0.0
  0
VERTEX
  5
12D
100
AcDbEntity
  8
LIVELLO_1
 62
     7
100
AcDbVertex
100
AcDb2dVertex
 10
48.276554
 20
40.834889
 30
0.0
  0
VERTEX
  5
12E
100
AcDbEntity
  8
LIVELLO_1
 62
     7
100
AcDbVertex
100
AcDb2dVertex
 10
48.276554
 20
43.714644
 30
0.0
  0
VERTEX
  5
12F
100
AcDbEntity
  8
LIVELLO_1
 62
     7
100
AcDbVertex
100
AcDb2dVertex
 10
48.708913
 20
43.714644
 30
0.0
  0
VERTEX
  5
130
100
AcDbEntity
  8
LIVELLO_1
 62
     7
100
AcDbVertex
100
AcDb2dVertex
 10
48.708913
 20
44.492891
 30
0.0
  0
VERTEX
  5
131
100
AcDbEntity
  8
LIVELLO_1
 62
     7
100
AcDbVertex
100
AcDb2dVertex
 10
48.276554
 20
44.492891
 30
0.0
  0
VERTEX
  5
132
100
AcDbEntity
  8
LIVELLO_1
 62
     7
100
AcDbVertex
100
AcDb2dVertex
 10
48.274831
 20
47.375747
 30
0.0
  0
VERTEX
  5
133
100
AcDbEntity
  8
LIVELLO_1
 62
     7
100
AcDbVertex
100
AcDb2dVertex
 10
48.707535
 20
47.375747
 30
0.0
  0
VERTEX
  5
134
100
AcDbEntity
  8
LIVELLO_1
 62
     7
100
AcDbVertex
100
AcDb2dVertex
 10
48.707535
 20
48.152272
 30
0.0
  0
VERTEX
  5
135
100
AcDbEntity
  8
LIVELLO_1
 62
     7
100
AcDbVertex
100
AcDb2dVertex
 10
48.274831
 20
48.152272
 30
0.0
  0
VERTEX
  5
136
100
AcDbEntity
  8
LIVELLO_1
 62
     7
100
AcDbVertex
100
AcDb2dVertex
 10
48.274831
 20
51.032027
 30
0.0
  0
VERTEX
  5
137
100
AcDbEntity
  8
LIVELLO_1
 62
     7
100
AcDbVertex
100
AcDb2dVertex
 10
48.707535
 20
51.032027
 30
0.0
  0
VERTEX
  5
138
100
AcDbEntity
  8
LIVELLO_1
 62
     7
100
AcDbVertex
100
AcDb2dVertex
 10
48.707535
 20
51.810274
 30
0.0
  0
VERTEX
  5
139
100
AcDbEntity
  8
LIVELLO_1
 62
     7
100
AcDbVertex
100
AcDb2dVertex
 10
48.274831
 20
51.810274
 30
0.0
  0
VERTEX
  5
13A
100
AcDbEntity
  8
LIVELLO_1
 62
     7
100
AcDbVertex
100
AcDb2dVertex
 10
48.274831
 20
54.693475
 30
0.0
  0
VERTEX
  5
13B
100
AcDbEntity
  8
LIVELLO_1
 62
     7
100
AcDbVertex
100
AcDb2dVertex
 10
48.707535
 20
54.693475
 30
0.0
  0
VERTEX
  5
13C
100
AcDbEntity
  8
LIVELLO_1
 62
     7
100
AcDbVertex
100
AcDb2dVertex
 10
48.707535
 20
55.471377
 30
0.0
  0
VERTEX
  5
13D
100
AcDbEntity
  8
LIVELLO_1
 62
     7
100
AcDbVertex
100
AcDb2dVertex
 10
48.274831
 20
55.471377
 30
0.0
  0
SEQEND
  5
13E
100
AcDbEntity
  8
LIVELLO_1
 62
     7
  0
POLYLINE
  5
117
100
AcDbEntity
  8
LIVELLO_1
 62
     7
100
AcDb2dPolyline
 66
     1
 10
0.0
 20
0.0
 30
0.0
 70
     1
  0
VERTEX
  5
118
100
AcDbEntity
  8
LIVELLO_1
 62
     7
100
AcDbVertex
100
AcDb2dVertex
 10
48.338221
 20
32.810917
 30
0.0
  0
VERTEX
  5
119
100
AcDbEntity
  8
LIVELLO_1
 62
     7
100
AcDbVertex
100
AcDb2dVertex
 10
48.338221
 20
24.199556
 30
0.0
  0
VERTEX
  5
11A
100
AcDbEntity
  8
LIVELLO_1
 62
     7
100
AcDbVertex
100
AcDb2dVertex
 10
47.428716
 20
24.199556
 30
0.0
  0
VERTEX
  5
11B
100
AcDbEntity
  8
LIVELLO_1
 62
     7
100
AcDbVertex
100
AcDb2dVertex
 10
47.426993
 20
32.810917
 30
0.0
  0
SEQEND
  5
11C
100
AcDbEntity
  8
LIVELLO_1
 62
     7
  0
POLYLINE
  5
111
100
AcDbEntity
  8
LIVELLO_1
 62
     7
100
AcDb2dPolyline
 66
     1
 10
0.0
 20
0.0
 30
0.0
 70
     1
  0
VERTEX
  5
112
100
AcDbEntity
  8
LIVELLO_1
 62
     7
100
AcDbVertex
100
AcDb2dVertex
 10
48.338221
 20
36.458584
 30
0.0
  0
VERTEX
  5
113
100
AcDbEntity
  8
LIVELLO_1
 62
     7
100
AcDbVertex
100
AcDb2dVertex
 10
48.338221
 20
33.524052
 30
0.0
  0
VERTEX
  5
114
100
AcDbEntity
  8
LIVELLO_1
 62
     7
100
AcDbVertex
100
AcDb2dVertex
 10
47.426993
 20
33.527497
 30
0.0
  0
VERTEX
  5
115
100
AcDbEntity
  8
LIVELLO_1
 62
     7
100
AcDbVertex
100
AcDb2dVertex
 10
47.426993
 20
36.458584
 30
0.0
  0
SEQEND
  5
116
100
AcDbEntity
  8
LIVELLO_1
 62
     7
  0
POLYLINE
  5
10B
100
AcDbEntity
  8
LIVELLO_1
 62
     7
100
AcDb2dPolyline
 66
     1
 10
0.0
 20
0.0
 30
0.0
 70
     1
  0
VERTEX
  5
10C
100
AcDbEntity
  8
LIVELLO_1
 62
     7
100
AcDbVertex
100
AcDb2dVertex
 10
48.336843
 20
40.101773
 30
0.0
  0
VERTEX
  5
10D
100
AcDbEntity
  8
LIVELLO_1
 62
     7
100
AcDbVertex
100
AcDb2dVertex
 10
48.336843
 20
37.172064
 30
0.0
  0
VERTEX
  5
10E
100
AcDbEntity
  8
LIVELLO_1
 62
     7
100
AcDbVertex
100
AcDb2dVertex
 10
47.426993
 20
37.172064
 30
0.0
  0
VERTEX
  5
10F
100
AcDbEntity
  8
LIVELLO_1
 62
     7
100
AcDbVertex
100
AcDb2dVertex
 10
47.426993
 20
40.101773
 30
0.0
  0
SEQEND
  5
110
100
AcDbEntity
  8
LIVELLO_1
 62
     7
  0
POLYLINE
  5
105
100
AcDbEntity
  8
LIVELLO_1
 62
     7
100
AcDb2dPolyline
 66
     1
 10
0.0
 20
0.0
 30
0.0
 70
     1
  0
VERTEX
  5
106
100
AcDbEntity
  8
LIVELLO_1
 62
     7
100
AcDbVertex
100
AcDb2dVertex
 10
48.336843
 20
43.748062
 30
0.0
  0
VERTEX
  5
107
100
AcDbEntity
  8
LIVELLO_1
 62
     7
100
AcDbVertex
100
AcDb2dVertex
 10
48.336843
 20
40.81663
 30
0.0
  0
VERTEX
  5
108
100
AcDbEntity
  8
LIVELLO_1
 62
     7
100
AcDbVertex
100
AcDb2dVertex
 10
47.426993
 20
40.81663
 30
0.0
  0
VERTEX
  5
109
100
AcDbEntity
  8
LIVELLO_1
 62
     7
100
AcDbVertex
100
AcDb2dVertex
 10
47.426993
 20
43.748062
 30
0.0
  0
SEQEND
  5
10A
100
AcDbEntity
  8
LIVELLO_1
 62
     7
  0
POLYLINE
  5
FF
100
AcDbEntity
  8
LIVELLO_1
 62
     7
100
AcDb2dPolyline
 66
     1
 10
0.0
 20
0.0
 30
0.0
 70
     1
  0
VERTEX
  5
100
100
AcDbEntity
  8
LIVELLO_1
 62
     7
100
AcDbVertex
100
AcDb2dVertex
 10
48.336843
 20
47.392628
 30
0.0
  0
VERTEX
  5
101
100
AcDbEntity
  8
LIVELLO_1
 62
     7
100
AcDbVertex
100
AcDb2dVertex
 10
48.336843
 20
44.462919
 30
0.0
  0
VERTEX
  5
102
100
AcDbEntity
  8
LIVELLO_1
 62
     7
100
AcDbVertex
100
AcDb2dVertex
 10
47.426993
 20
44.462919
 30
0.0
  0
VERTEX
  5
103
100
AcDbEntity
  8
LIVELLO_1
 62
     7
100
AcDbVertex
100
AcDb2dVertex
 10
47.426993
 20
47.392628
 30
0.0
  0
SEQEND
  5
104
100
AcDbEntity
  8
LIVELLO_1
 62
     7
  0
POLYLINE
  5
F9
100
AcDbEntity
  8
LIVELLO_1
 62
     7
100
AcDb2dPolyline
 66
     1
 10
0.0
 20
0.0
 30
0.0
 70
     1
  0
VERTEX
  5
FA
100
AcDbEntity
  8
LIVELLO_1
 62
     7
100
AcDbVertex
100
AcDb2dVertex
 10
48.336843
 20
51.035472
 30
0.0
  0
VERTEX
  5
FB
100
AcDbEntity
  8
LIVELLO_1
 62
     7
100
AcDbVertex
100
AcDb2dVertex
 10
48.336843
 20
48.105763
 30
0.0
  0
VERTEX
  5
FC
100
AcDbEntity
  8
LIVELLO_1
 62
     7
100
AcDbVertex
100
AcDb2dVertex
 10
47.426993
 20
48.105763
 30
0.0
  0
VERTEX
  5
FD
100
AcDbEntity
  8
LIVELLO_1
 62
     7
100
AcDbVertex
100
AcDb2dVertex
 10
47.425271
 20
51.035472
 30
0.0
  0
SEQEND
  5
FE
100
AcDbEntity
  8
LIVELLO_1
 62
     7
  0
POLYLINE
  5
F3
100
AcDbEntity
  8
LIVELLO_1
 62
     7
100
AcDb2dPolyline
 66
     1
 10
0.0
 20
0.0
 30
0.0
 70
     1
  0
VERTEX
  5
F4
100
AcDbEntity
  8
LIVELLO_1
 62
     7
100
AcDbVertex
100
AcDb2dVertex
 10
48.334776
 20
54.681761
 30
0.0
  0
VERTEX
  5
F5
100
AcDbEntity
  8
LIVELLO_1
 62
     7
100
AcDbVertex
100
AcDb2dVertex
 10
48.336843
 20
51.75033
 30
0.0
  0
VERTEX
  5
F6
100
AcDbEntity
  8
LIVELLO_1
 62
     7
100
AcDbVertex
100
AcDb2dVertex
 10
47.425271
 20
51.75033
 30
0.0
  0
VERTEX
  5
F7
100
AcDbEntity
  8
LIVELLO_1
 62
     7
100
AcDbVertex
100
AcDb2dVertex
 10
47.425271
 20
54.681761
 30
0.0
  0
SEQEND
  5
F8
100
AcDbEntity
  8
LIVELLO_1
 62
     7
  0
POLYLINE
  5
ED
100
AcDbEntity
  8
LIVELLO_1
 62
     7
100
AcDb2dPolyline
 66
     1
 10
0.0
 20
0.0
 30
0.0
 70
     1
  0
VERTEX
  5
EE
100
AcDbEntity
  8
LIVELLO_1
 62
     7
100
AcDbVertex
100
AcDb2dVertex
 10
47.425271
 20
64.009357
 30
0.0
  0
VERTEX
  5
EF
100
AcDbEntity
  8
LIVELLO_1
 62
     7
100
AcDbVertex
100
AcDb2dVertex
 10
48.334776
 20
64.009357
 30
0.0
  0
VERTEX
  5
F0
100
AcDbEntity
  8
LIVELLO_1
 62
     7
100
AcDbVertex
100
AcDb2dVertex
 10
48.334776
 20
55.396619
 30
0.0
  0
VERTEX
  5
F1
100
AcDbEntity
  8
LIVELLO_1
 62
     7
100
AcDbVertex
100
AcDb2dVertex
 10
47.425271
 20
55.396619
 30
0.0
  0
SEQEND
  5
F2
100
AcDbEntity
  8
LIVELLO_1
 62
     7
  0
POLYLINE
  5
E7
100
AcDbEntity
  8
LIVELLO_1
 62
     7
100
AcDb2dPolyline
 66
     1
 10
0.0
 20
0.0
 30
0.0
 70
     1
  0
VERTEX
  5
E8
100
AcDbEntity
  8
LIVELLO_1
 62
     7
100
AcDbVertex
100
AcDb2dVertex
 10
7.747934
 20
33.587097
 30
0.0
  0
VERTEX
  5
E9
100
AcDbEntity
  8
LIVELLO_1
 62
     7
100
AcDbVertex
100
AcDb2dVertex
 10
48.739919
 20
33.585719
 30
0.0
  0
VERTEX
  5
EA
100
AcDbEntity
  8
LIVELLO_1
 62
     7
100
AcDbVertex
100
AcDb2dVertex
 10
48.739919
 20
32.752695
 30
0.0
  0
VERTEX
  5
EB
100
AcDbEntity
  8
LIVELLO_1
 62
     7
100
AcDbVertex
100
AcDb2dVertex
 10
7.747934
 20
32.754073
 30
0.0
  0
SEQEND
  5
EC
100
AcDbEntity
  8
LIVELLO_1
 62
     7
  0
POLYLINE
  5
E1
100
AcDbEntity
  8
LIVELLO_1
 62
     7
100
AcDb2dPolyline
 66
     1
 10
0.0
 20
0.0
 30
0.0
 70
     1
  0
VERTEX
  5
E2
100
AcDbEntity
  8
LIVELLO_1
 62
     7
100
AcDbVertex
100
AcDb2dVertex
 10
7.747934
 20
37.233386
 30
0.0
  0
VERTEX
  5
E3
100
AcDbEntity
  8
LIVELLO_1
 62
     7
100
AcDbVertex
100
AcDb2dVertex
 10
48.739919
 20
37.232008
 30
0.0
  0
VERTEX
  5
E4
100
AcDbEntity
  8
LIVELLO_1
 62
     7
100
AcDbVertex
100
AcDb2dVertex
 10
48.739919
 20
36.397262
 30
0.0
  0
VERTEX
  5
E5
100
AcDbEntity
  8
LIVELLO_1
 62
     7
100
AcDbVertex
100
AcDb2dVertex
 10
7.747934
 20
36.397262
 30
0.0
  0
SEQEND
  5
E6
100
AcDbEntity
  8
LIVELLO_1
 62
     7
  0
POLYLINE
  5
DB
100
AcDbEntity
  8
LIVELLO_1
 62
     7
100
AcDb2dPolyline
 66
     1
 10
0.0
 20
0.0
 30
0.0
 70
     1
  0
VERTEX
  5
DC
100
AcDbEntity
  8
LIVELLO_1
 62
     7
100
AcDbVertex
100
AcDb2dVertex
 10
7.747934
 20
40.878297
 30
0.0
  0
VERTEX
  5
DD
100
AcDbEntity
  8
LIVELLO_1
 62
     7
100
AcDbVertex
100
AcDb2dVertex
 10
48.738196
 20
40.876575
 30
0.0
  0
VERTEX
  5
DE
100
AcDbEntity
  8
LIVELLO_1
 62
     7
100
AcDbVertex
100
AcDb2dVertex
 10
48.738196
 20
40.040106
 30
0.0
  0
VERTEX
  5
DF
100
AcDbEntity
  8
LIVELLO_1
 62
     7
100
AcDbVertex
100
AcDb2dVertex
 10
7.747934
 20
40.041828
 30
0.0
  0
SEQEND
  5
E0
100
AcDbEntity
  8
LIVELLO_1
 62
     7
  0
POLYLINE
  5
D5
100
AcDbEntity
  8
LIVELLO_1
 62
     7
100
AcDb2dPolyline
 66
     1
 10
0.0
 20
0.0
 30
0.0
 70
     1
  0
VERTEX
  5
D6
100
AcDbEntity
  8
LIVELLO_1
 62
     7
100
AcDbVertex
100
AcDb2dVertex
 10
-1.483372
 20
55.460008
 30
0.0
  0
VERTEX
  5
D7
100
AcDbEntity
  8
LIVELLO_1
 62
     7
100
AcDbVertex
100
AcDb2dVertex
 10
48.736474
 20
55.458286
 30
0.0
  0
VERTEX
  5
D8
100
AcDbEntity
  8
LIVELLO_1
 62
     7
100
AcDbVertex
100
AcDb2dVertex
 10
48.738196
 20
54.620094
 30
0.0
  0
VERTEX
  5
D9
100
AcDbEntity
  8
LIVELLO_1
 62
     7
100
AcDbVertex
100
AcDb2dVertex
 10
-1.483372
 20
54.621817
 30
0.0
  0
SEQEND
  5
DA
100
AcDbEntity
  8
LIVELLO_1
 62
     7
  0
POLYLINE
  5
CF
100
AcDbEntity
  8
LIVELLO_1
 62
     7
100
AcDb2dPolyline
 66
     1
 10
0.0
 20
0.0
 30
0.0
 70
     1
  0
VERTEX
  5
D0
100
AcDbEntity
  8
LIVELLO_1
 62
     7
100
AcDbVertex
100
AcDb2dVertex
 10
-1.483372
 20
51.813719
 30
0.0
  0
VERTEX
  5
D1
100
AcDbEntity
  8
LIVELLO_1
 62
     7
100
AcDbVertex
100
AcDb2dVertex
 10
48.738196
 20
51.811997
 30
0.0
  0
VERTEX
  5
D2
100
AcDbEntity
  8
LIVELLO_1
 62
     7
100
AcDbVertex
100
AcDb2dVertex
 10
48.738196
 20
50.973805
 30
0.0
  0
VERTEX
  5
D3
100
AcDbEntity
  8
LIVELLO_1
 62
     7
100
AcDbVertex
100
AcDb2dVertex
 10
-1.483372
 20
50.975528
 30
0.0
  0
SEQEND
  5
D4
100
AcDbEntity
  8
LIVELLO_1
 62
     7
  0
SPLINE
  5
CE
100
AcDbEntity
  8
LIVELLO_1
 62
     7
100
AcDbSpline
210
0.0
220
0.0
230
1.0
 70
     8
 71
     3
 72
    17
 73
    13
 74
     0
 42
0.00000001
 43
0.00000001
 40
0.0
 40
0.0
 40
0.0
 40
0.0
 40
1.0
 40
1.0
 40
1.0
 40
2.0
 40
2.0
 40
2.0
 40
3.0
 40
3.0
 40
3.0
 40
4.0
 40
4.0
 40
4.0
 40
4.0
 10
5.1599778917100689
 20
48.169152832031244
 30
0.0
 10
5.1599778917100689
 20
48.169152832031244
 30
0.0
 10
48.738196478949646
 20
48.167430284288187
 30
0.0
 10
48.738196478949646
 20
48.167430284288187
 30
0.0
 10
48.738196478949646
 20
48.167430284288187
 30
0.0
 10
48.738196478949646
 20
47.33096110026041
 30
0.0
 10
48.738196478949646
 20
47.33096110026041
 30
0.0
 10
48.738196478949646
 20
47.33096110026041
 30
0.0
 10
6.2655090332031245
 20
47.33096110026041
 30
0.0
 10
6.2655090332031245
 20
47.33096110026041
 30
0.0
 10
5.9380527072482634
 20
47.663757324218743
 30
0.0
 10
5.565637885199652
 20
47.946255154079857
 30
0.0
 10
5.1599778917100689
 20
48.169152832031244
 30
0.0
  0
SPLINE
  5
CD
100
AcDbEntity
  8
LIVELLO_1
 62
     7
100
AcDbSpline
210
0.0
220
0.0
230
1.0
 70
     8
 71
     3
 72
    17
 73
    13
 74
     0
 42
0.00000001
 43
0.00000001
 40
0.0
 40
0.0
 40
0.0
 40
0.0
 40
1.0
 40
1.0
 40
1.0
 40
2.0
 40
2.0
 40
2.0
 40
3.0
 40
3.0
 40
3.0
 40
4.0
 40
4.0
 40
4.0
 40
4.0
 10
-1.4833719889322916
 20
48.169152832031244
 30
0.0
 10
-1.4833719889322916
 20
48.169152832031244
 30
0.0
 10
0.9481764051649305
 20
48.169152832031244
 30
0.0
 10
0.9481764051649305
 20
48.169152832031244
 30
0.0
 10
0.5357984754774305
 20
47.946255154079857
 30
0.0
 10
0.1559766981336805
 20
47.665135362413189
 30
0.0
 10
-0.1757859971788194
 20
47.33096110026041
 30
0.0
 10
-0.1757859971788194
 20
47.33096110026041
 30
0.0
 10
-1.4833719889322916
 20
47.33096110026041
 30
0.0
 10
-1.4833719889322916
 20
47.33096110026041
 30
0.0
 10
-1.4833719889322916
 20
47.33096110026041
 30
0.0
 10
-1.4833719889322916
 20
48.169152832031244
 30
0.0
 10
-1.4833719889322916
 20
48.169152832031244
 30
0.0
  0
SPLINE
  5
CC
100
AcDbEntity
  8
LIVELLO_1
 62
     7
100
AcDbSpline
210
0.0
220
0.0
230
1.0
 70
     8
 71
     3
 72
    20
 73
    16
 74
     0
 42
0.00000001
 43
0.00000001
 40
0.0
 40
0.0
 40
0.0
 40
0.0
 40
1.0
 40
1.0
 40
1.0
 40
2.0
 40
2.0
 40
2.0
 40
3.0
 40
3.0
 40
3.0
 40
4.0
 40
4.0
 40
4.0
 40
5.0
 40
5.0
 40
5.0
 40
5.0
 10
38.782731797960068
 20
44.522519259982637
 30
0.0
 10
38.782731797960068
 20
44.522519259982637
 30
0.0
 10
48.738196478949646
 20
44.522519259982637
 30
0.0
 10
48.738196478949646
 20
44.522519259982637
 30
0.0
 10
48.738196478949646
 20
44.522519259982637
 30
0.0
 10
48.738196478949646
 20
43.686394585503471
 30
0.0
 10
48.738196478949646
 20
43.686394585503471
 30
0.0
 10
48.738196478949646
 20
43.686394585503471
 30
0.0
 10
38.782731797960068
 20
43.686394585503471
 30
0.0
 10
38.782731797960068
 20
43.686394585503471
 30
0.0
 10
38.800129530164924
 20
43.824542914496526
 30
0.0
 10
38.808570014105896
 20
43.962346733940969
 30
0.0
 10
38.808570014105896
 20
44.105318196614583
 30
0.0
 10
38.808570014105896
 20
44.246567111545133
 30
0.0
 10
38.800129530164924
 20
44.386437988281244
 30
0.0
 10
38.782731797960068
 20
44.522519259982637
 30
0.0
  0
SPLINE
  5
CB
100
AcDbEntity
  8
LIVELLO_1
 62
     7
100
AcDbSpline
210
0.0
220
0.0
230
1.0
 70
     8
 71
     3
 72
    23
 73
    19
 74
     0
 42
0.00000001
 43
0.00000001
 40
0.0
 40
0.0
 40
0.0
 40
0.0
 40
1.0
 40
1.0
 40
1.0
 40
2.0
 40
2.0
 40
2.0
 40
3.0
 40
3.0
 40
3.0
 40
4.0
 40
4.0
 40
4.0
 40
5.0
 40
5.0
 40
5.0
 40
6.0
 40
6.0
 40
6.0
 40
6.0
 10
7.7138271755642354
 20
44.522519259982637
 30
0.0
 10
7.7138271755642354
 20
44.522519259982637
 30
0.0
 10
33.241123453776041
 20
44.522519259982637
 30
0.0
 10
33.241123453776041
 20
44.522519259982637
 30
0.0
 10
33.222692192925344
 20
44.386437988281244
 30
0.0
 10
33.213562689887148
 20
44.246567111545133
 30
0.0
 10
33.213562689887148
 20
44.105318196614583
 30
0.0
 10
33.213562689887148
 20
43.962346733940969
 30
0.0
 10
33.222692192925344
 20
43.824542914496526
 30
0.0
 10
33.241123453776041
 20
43.686394585503471
 30
0.0
 10
33.241123453776041
 20
43.686394585503471
 30
0.0
 10
7.7479336208767355
 20
43.688117133246521
 30
0.0
 10
7.7479336208767355
 20
43.688117133246521
 30
0.0
 10
7.7479336208767355
 20
43.688117133246521
 30
0.0
 10
7.7479336208767355
 20
43.915837944878469
 30
0.0
 10
7.7479336208767355
 20
43.915837944878469
 30
0.0
 10
7.7479336208767355
 20
44.120476616753471
 30
0.0
 10
7.7362202962239577
 20
44.324770779079856
 30
0.0
 10
7.7138271755642354
 20
44.522519259982637
 30
0.0
  0
POLYLINE
  5
C5
100
AcDbEntity
  8
LIVELLO_1
 62
     7
100
AcDb2dPolyline
 66
     1
 10
0.0
 20
0.0
 30
0.0
 70
     1
  0
VERTEX
  5
C6
100
AcDbEntity
  8
LIVELLO_1
 62
     7
100
AcDbVertex
100
AcDb2dVertex
 10
51.529068
 20
59.097685
 30
0.0
  0
VERTEX
  5
C7
100
AcDbEntity
  8
LIVELLO_1
 62
     7
100
AcDbVertex
100
AcDb2dVertex
 10
52.90814
 20
59.097685
 30
0.0
  0
VERTEX
  5
C8
100
AcDbEntity
  8
LIVELLO_1
 62
     7
100
AcDbVertex
100
AcDb2dVertex
 10
52.90814
 20
57.611471
 30
0.0
  0
VERTEX
  5
C9
100
AcDbEntity
  8
LIVELLO_1
 62
     7
100
AcDbVertex
100
AcDb2dVertex
 10
51.529068
 20
57.611471
 30
0.0
  0
SEQEND
  5
CA
100
AcDbEntity
  8
LIVELLO_1
 62
     7
  0
POLYLINE
  5
BF
100
AcDbEntity
  8
LIVELLO_1
 62
     7
100
AcDb2dPolyline
 66
     1
 10
0.0
 20
0.0
 30
0.0
 70
     1
  0
VERTEX
  5
C0
100
AcDbEntity
  8
LIVELLO_1
 62
     7
100
AcDbVertex
100
AcDb2dVertex
 10
51.529068
 20
53.398119
 30
0.0
  0
VERTEX
  5
C1
100
AcDbEntity
  8
LIVELLO_1
 62
     7
100
AcDbVertex
100
AcDb2dVertex
 10
52.90814
 20
53.398119
 30
0.0
  0
VERTEX
  5
C2
100
AcDbEntity
  8
LIVELLO_1
 62
     7
100
AcDbVertex
100
AcDb2dVertex
 10
52.90814
 20
51.91156
 30
0.0
  0
VERTEX
  5
C3
100
AcDbEntity
  8
LIVELLO_1
 62
     7
100
AcDbVertex
100
AcDb2dVertex
 10
51.529068
 20
51.91156
 30
0.0
  0
SEQEND
  5
C4
100
AcDbEntity
  8
LIVELLO_1
 62
     7
  0
POLYLINE
  5
B9
100
AcDbEntity
  8
LIVELLO_1
 62
     7
100
AcDb2dPolyline
 66
     1
 10
0.0
 20
0.0
 30
0.0
 70
     1
  0
VERTEX
  5
BA
100
AcDbEntity
  8
LIVELLO_1
 62
     7
100
AcDbVertex
100
AcDb2dVertex
 10
51.529068
 20
47.69683
 30
0.0
  0
VERTEX
  5
BB
100
AcDbEntity
  8
LIVELLO_1
 62
     7
100
AcDbVertex
100
AcDb2dVertex
 10
52.90814
 20
47.69683
 30
0.0
  0
VERTEX
  5
BC
100
AcDbEntity
  8
LIVELLO_1
 62
     7
100
AcDbVertex
100
AcDb2dVertex
 10
52.909863
 20
46.210272
 30
0.0
  0
VERTEX
  5
BD
100
AcDbEntity
  8
LIVELLO_1
 62
     7
100
AcDbVertex
100
AcDb2dVertex
 10
51.529068
 20
46.210272
 30
0.0
  0
SEQEND
  5
BE
100
AcDbEntity
  8
LIVELLO_1
 62
     7
  0
POLYLINE
  5
B3
100
AcDbEntity
  8
LIVELLO_1
 62
     7
100
AcDb2dPolyline
 66
     1
 10
0.0
 20
0.0
 30
0.0
 70
     1
  0
VERTEX
  5
B4
100
AcDbEntity
  8
LIVELLO_1
 62
     7
100
AcDbVertex
100
AcDb2dVertex
 10
51.530791
 20
41.99692
 30
0.0
  0
VERTEX
  5
B5
100
AcDbEntity
  8
LIVELLO_1
 62
     7
100
AcDbVertex
100
AcDb2dVertex
 10
52.909863
 20
41.99692
 30
0.0
  0
VERTEX
  5
B6
100
AcDbEntity
  8
LIVELLO_1
 62
     7
100
AcDbVertex
100
AcDb2dVertex
 10
52.909863
 20
40.510706
 30
0.0
  0
VERTEX
  5
B7
100
AcDbEntity
  8
LIVELLO_1
 62
     7
100
AcDbVertex
100
AcDb2dVertex
 10
51.530791
 20
40.510706
 30
0.0
  0
SEQEND
  5
B8
100
AcDbEntity
  8
LIVELLO_1
 62
     7
  0
POLYLINE
  5
AD
100
AcDbEntity
  8
LIVELLO_1
 62
     7
100
AcDb2dPolyline
 66
     1
 10
0.0
 20
0.0
 30
0.0
 70
     1
  0
VERTEX
  5
AE
100
AcDbEntity
  8
LIVELLO_1
 62
     7
100
AcDbVertex
100
AcDb2dVertex
 10
51.530791
 20
36.297354
 30
0.0
  0
VERTEX
  5
AF
100
AcDbEntity
  8
LIVELLO_1
 62
     7
100
AcDbVertex
100
AcDb2dVertex
 10
52.909863
 20
36.297354
 30
0.0
  0
VERTEX
  5
B0
100
AcDbEntity
  8
LIVELLO_1
 62
     7
100
AcDbVertex
100
AcDb2dVertex
 10
52.909863
 20
34.81114
 30
0.0
  0
VERTEX
  5
B1
100
AcDbEntity
  8
LIVELLO_1
 62
     7
100
AcDbVertex
100
AcDb2dVertex
 10
51.530791
 20
34.81114
 30
0.0
  0
SEQEND
  5
B2
100
AcDbEntity
  8
LIVELLO_1
 62
     7
  0
POLYLINE
  5
A7
100
AcDbEntity
  8
LIVELLO_1
 62
     7
100
AcDb2dPolyline
 66
     1
 10
0.0
 20
0.0
 30
0.0
 70
     1
  0
VERTEX
  5
A8
100
AcDbEntity
  8
LIVELLO_1
 62
     7
100
AcDbVertex
100
AcDb2dVertex
 10
51.530791
 20
30.596065
 30
0.0
  0
VERTEX
  5
A9
100
AcDbEntity
  8
LIVELLO_1
 62
     7
100
AcDbVertex
100
AcDb2dVertex
 10
52.909863
 20
30.596065
 30
0.0
  0
VERTEX
  5
AA
100
AcDbEntity
  8
LIVELLO_1
 62
     7
100
AcDbVertex
100
AcDb2dVertex
 10
52.909863
 20
29.109507
 30
0.0
  0
VERTEX
  5
AB
100
AcDbEntity
  8
LIVELLO_1
 62
     7
100
AcDbVertex
100
AcDb2dVertex
 10
51.530791
 20
29.109507
 30
0.0
  0
SEQEND
  5
AC
100
AcDbEntity
  8
LIVELLO_1
 62
     7
  0
POLYLINE
  5
A1
100
AcDbEntity
  8
LIVELLO_1
 62
     7
100
AcDb2dPolyline
 66
     1
 10
0.0
 20
0.0
 30
0.0
 70
     1
  0
VERTEX
  5
A2
100
AcDbEntity
  8
LIVELLO_1
 62
     7
100
AcDbVertex
100
AcDb2dVertex
 10
51.726128
 20
65.243046
 30
0.0
  0
VERTEX
  5
A3
100
AcDbEntity
  8
LIVELLO_1
 62
     7
100
AcDbVertex
100
AcDb2dVertex
 10
52.90814
 20
66.420235
 30
0.0
  0
VERTEX
  5
A4
100
AcDbEntity
  8
LIVELLO_1
 62
     7
100
AcDbVertex
100
AcDb2dVertex
 10
52.90814
 20
59.036362
 30
0.0
  0
VERTEX
  5
A5
100
AcDbEntity
  8
LIVELLO_1
 62
     7
100
AcDbVertex
100
AcDb2dVertex
 10
51.726128
 20
59.036362
 30
0.0
  0
SEQEND
  5
A6
100
AcDbEntity
  8
LIVELLO_1
 62
     7
  0
POLYLINE
  5
9B
100
AcDbEntity
  8
LIVELLO_1
 62
     7
100
AcDb2dPolyline
 66
     1
 10
0.0
 20
0.0
 30
0.0
 70
     1
  0
VERTEX
  5
9C
100
AcDbEntity
  8
LIVELLO_1
 62
     7
100
AcDbVertex
100
AcDb2dVertex
 10
52.909863
 20
29.169451
 30
0.0
  0
VERTEX
  5
9D
100
AcDbEntity
  8
LIVELLO_1
 62
     7
100
AcDbVertex
100
AcDb2dVertex
 10
52.911585
 20
21.798669
 30
0.0
  0
VERTEX
  5
9E
100
AcDbEntity
  8
LIVELLO_1
 62
     7
100
AcDbVertex
100
AcDb2dVertex
 10
51.729228
 20
22.698184
 30
0.0
  0
VERTEX
  5
9F
100
AcDbEntity
  8
LIVELLO_1
 62
     7
100
AcDbVertex
100
AcDb2dVertex
 10
51.729228
 20
29.169451
 30
0.0
  0
SEQEND
  5
A0
100
AcDbEntity
  8
LIVELLO_1
 62
     7
  0
POLYLINE
  5
95
100
AcDbEntity
  8
LIVELLO_1
 62
     7
100
AcDb2dPolyline
 66
     1
 10
0.0
 20
0.0
 30
0.0
 70
     1
  0
VERTEX
  5
96
100
AcDbEntity
  8
LIVELLO_1
 62
     7
100
AcDbVertex
100
AcDb2dVertex
 10
52.909863
 20
34.869017
 30
0.0
  0
VERTEX
  5
97
100
AcDbEntity
  8
LIVELLO_1
 62
     7
100
AcDbVertex
100
AcDb2dVertex
 10
52.909863
 20
30.534398
 30
0.0
  0
VERTEX
  5
98
100
AcDbEntity
  8
LIVELLO_1
 62
     7
100
AcDbVertex
100
AcDb2dVertex
 10
51.729228
 20
30.534398
 30
0.0
  0
VERTEX
  5
99
100
AcDbEntity
  8
LIVELLO_1
 62
     7
100
AcDbVertex
100
AcDb2dVertex
 10
51.729228
 20
34.869017
 30
0.0
  0
SEQEND
  5
9A
100
AcDbEntity
  8
LIVELLO_1
 62
     7
  0
POLYLINE
  5
8F
100
AcDbEntity
  8
LIVELLO_1
 62
     7
100
AcDb2dPolyline
 66
     1
 10
0.0
 20
0.0
 30
0.0
 70
     1
  0
VERTEX
  5
90
100
AcDbEntity
  8
LIVELLO_1
 62
     7
100
AcDbVertex
100
AcDb2dVertex
 10
52.909863
 20
40.57065
 30
0.0
  0
VERTEX
  5
91
100
AcDbEntity
  8
LIVELLO_1
 62
     7
100
AcDbVertex
100
AcDb2dVertex
 10
52.909863
 20
36.235687
 30
0.0
  0
VERTEX
  5
92
100
AcDbEntity
  8
LIVELLO_1
 62
     7
100
AcDbVertex
100
AcDb2dVertex
 10
51.729228
 20
36.235687
 30
0.0
  0
VERTEX
  5
93
100
AcDbEntity
  8
LIVELLO_1
 62
     7
100
AcDbVertex
100
AcDb2dVertex
 10
51.727506
 20
40.57065
 30
0.0
  0
SEQEND
  5
94
100
AcDbEntity
  8
LIVELLO_1
 62
     7
  0
POLYLINE
  5
89
100
AcDbEntity
  8
LIVELLO_1
 62
     7
100
AcDb2dPolyline
 66
     1
 10
0.0
 20
0.0
 30
0.0
 70
     1
  0
VERTEX
  5
8A
100
AcDbEntity
  8
LIVELLO_1
 62
     7
100
AcDbVertex
100
AcDb2dVertex
 10
52.909863
 20
46.270216
 30
0.0
  0
VERTEX
  5
8B
100
AcDbEntity
  8
LIVELLO_1
 62
     7
100
AcDbVertex
100
AcDb2dVertex
 10
52.909863
 20
41.935597
 30
0.0
  0
VERTEX
  5
8C
100
AcDbEntity
  8
LIVELLO_1
 62
     7
100
AcDbVertex
100
AcDb2dVertex
 10
51.727506
 20
41.935597
 30
0.0
  0
VERTEX
  5
8D
100
AcDbEntity
  8
LIVELLO_1
 62
     7
100
AcDbVertex
100
AcDb2dVertex
 10
51.727506
 20
46.270216
 30
0.0
  0
SEQEND
  5
8E
100
AcDbEntity
  8
LIVELLO_1
 62
     7
  0
POLYLINE
  5
83
100
AcDbEntity
  8
LIVELLO_1
 62
     7
100
AcDb2dPolyline
 66
     1
 10
0.0
 20
0.0
 30
0.0
 70
     1
  0
VERTEX
  5
84
100
AcDbEntity
  8
LIVELLO_1
 62
     7
100
AcDbVertex
100
AcDb2dVertex
 10
52.90814
 20
51.973227
 30
0.0
  0
VERTEX
  5
85
100
AcDbEntity
  8
LIVELLO_1
 62
     7
100
AcDbVertex
100
AcDb2dVertex
 10
52.90814
 20
47.635163
 30
0.0
  0
VERTEX
  5
86
100
AcDbEntity
  8
LIVELLO_1
 62
     7
100
AcDbVertex
100
AcDb2dVertex
 10
51.727506
 20
47.635163
 30
0.0
  0
VERTEX
  5
87
100
AcDbEntity
  8
LIVELLO_1
 62
     7
100
AcDbVertex
100
AcDb2dVertex
 10
51.727506
 20
51.973227
 30
0.0
  0
SEQEND
  5
88
100
AcDbEntity
  8
LIVELLO_1
 62
     7
  0
POLYLINE
  5
7D
100
AcDbEntity
  8
LIVELLO_1
 62
     7
100
AcDb2dPolyline
 66
     1
 10
0.0
 20
0.0
 30
0.0
 70
     1
  0
VERTEX
  5
7E
100
AcDbEntity
  8
LIVELLO_1
 62
     7
100
AcDbVertex
100
AcDb2dVertex
 10
52.90814
 20
57.671415
 30
0.0
  0
VERTEX
  5
7F
100
AcDbEntity
  8
LIVELLO_1
 62
     7
100
AcDbVertex
100
AcDb2dVertex
 10
52.90814
 20
53.336452
 30
0.0
  0
VERTEX
  5
80
100
AcDbEntity
  8
LIVELLO_1
 62
     7
100
AcDbVertex
100
AcDb2dVertex
 10
51.726128
 20
53.336452
 30
0.0
  0
VERTEX
  5
81
100
AcDbEntity
  8
LIVELLO_1
 62
     7
100
AcDbVertex
100
AcDb2dVertex
 10
51.726128
 20
57.671415
 30
0.0
  0
SEQEND
  5
82
100
AcDbEntity
  8
LIVELLO_1
 62
     7
  0
POLYLINE
  5
77
100
AcDbEntity
  8
LIVELLO_1
 62
     7
100
AcDb2dPolyline
 66
     1
 10
0.0
 20
0.0
 30
0.0
 70
     1
  0
VERTEX
  5
78
100
AcDbEntity
  8
LIVELLO_1
 62
     7
100
AcDbVertex
100
AcDb2dVertex
 10
58.264575
 20
32.898767
 30
0.0
  0
VERTEX
  5
79
100
AcDbEntity
  8
LIVELLO_1
 62
     7
100
AcDbVertex
100
AcDb2dVertex
 10
59.44762
 20
32.898767
 30
0.0
  0
VERTEX
  5
7A
100
AcDbEntity
  8
LIVELLO_1
 62
     7
100
AcDbVertex
100
AcDb2dVertex
 10
59.44762
 20
27.786245
 30
0.0
  0
VERTEX
  5
7B
100
AcDbEntity
  8
LIVELLO_1
 62
     7
100
AcDbVertex
100
AcDb2dVertex
 10
58.264575
 20
27.786245
 30
0.0
  0
SEQEND
  5
7C
100
AcDbEntity
  8
LIVELLO_1
 62
     7
  0
POLYLINE
  5
71
100
AcDbEntity
  8
LIVELLO_1
 62
     7
100
AcDb2dPolyline
 66
     1
 10
0.0
 20
0.0
 30
0.0
 70
     1
  0
VERTEX
  5
72
100
AcDbEntity
  8
LIVELLO_1
 62
     7
100
AcDbVertex
100
AcDb2dVertex
 10
-23.08102
 20
43.573395
 30
0.0
  0
VERTEX
  5
73
100
AcDbEntity
  8
LIVELLO_1
 62
     7
100
AcDbVertex
100
AcDb2dVertex
 10
-20.254319
 20
43.573395
 30
0.0
  0
VERTEX
  5
74
100
AcDbEntity
  8
LIVELLO_1
 62
     7
100
AcDbVertex
100
AcDb2dVertex
 10
-20.254319
 20
40.954434
 30
0.0
  0
VERTEX
  5
75
100
AcDbEntity
  8
LIVELLO_1
 62
     7
100
AcDbVertex
100
AcDb2dVertex
 10
-23.08102
 20
40.954434
 30
0.0
  0
SEQEND
  5
76
100
AcDbEntity
  8
LIVELLO_1
 62
     7
  0
POLYLINE
  5
6B
100
AcDbEntity
  8
LIVELLO_1
 62
     7
100
AcDb2dPolyline
 66
     1
 10
0.0
 20
0.0
 30
0.0
 70
     1
  0
VERTEX
  5
6C
100
AcDbEntity
  8
LIVELLO_1
 62
     7
100
AcDbVertex
100
AcDb2dVertex
 10
-23.08102
 20
41.016101
 30
0.0
  0
VERTEX
  5
6D
100
AcDbEntity
  8
LIVELLO_1
 62
     7
100
AcDbVertex
100
AcDb2dVertex
 10
-20.254319
 20
41.016101
 30
0.0
  0
VERTEX
  5
6E
100
AcDbEntity
  8
LIVELLO_1
 62
     7
100
AcDbVertex
100
AcDb2dVertex
 10
-20.254319
 20
40.179632
 30
0.0
  0
VERTEX
  5
6F
100
AcDbEntity
  8
LIVELLO_1
 62
     7
100
AcDbVertex
100
AcDb2dVertex
 10
-23.08102
 20
40.179632
 30
0.0
  0
SEQEND
  5
70
100
AcDbEntity
  8
LIVELLO_1
 62
     7
  0
POLYLINE
  5
65
100
AcDbEntity
  8
LIVELLO_1
 62
     7
100
AcDb2dPolyline
 66
     1
 10
0.0
 20
0.0
 30
0.0
 70
     1
  0
VERTEX
  5
66
100
AcDbEntity
  8
LIVELLO_1
 62
     7
100
AcDbVertex
100
AcDb2dVertex
 10
-23.08102
 20
40.241299
 30
0.0
  0
VERTEX
  5
67
100
AcDbEntity
  8
LIVELLO_1
 62
     7
100
AcDbVertex
100
AcDb2dVertex
 10
-20.254319
 20
40.241299
 30
0.0
  0
VERTEX
  5
68
100
AcDbEntity
  8
LIVELLO_1
 62
     7
100
AcDbVertex
100
AcDb2dVertex
 10
-20.254319
 20
34.787713
 30
0.0
  0
VERTEX
  5
69
100
AcDbEntity
  8
LIVELLO_1
 62
     7
100
AcDbVertex
100
AcDb2dVertex
 10
-23.08102
 20
34.787713
 30
0.0
  0
SEQEND
  5
6A
100
AcDbEntity
  8
LIVELLO_1
 62
     7
  0
POLYLINE
  5
5F
100
AcDbEntity
  8
LIVELLO_1
 62
     7
100
AcDb2dPolyline
 66
     1
 10
0.0
 20
0.0
 30
0.0
 70
     1
  0
VERTEX
  5
60
100
AcDbEntity
  8
LIVELLO_1
 62
     7
100
AcDbVertex
100
AcDb2dVertex
 10
-23.079298
 20
34.074578
 30
0.0
  0
VERTEX
  5
61
100
AcDbEntity
  8
LIVELLO_1
 62
     7
100
AcDbVertex
100
AcDb2dVertex
 10
-20.254319
 20
34.074578
 30
0.0
  0
VERTEX
  5
62
100
AcDbEntity
  8
LIVELLO_1
 62
     7
100
AcDbVertex
100
AcDb2dVertex
 10
-20.252597
 20
31.457339
 30
0.0
  0
VERTEX
  5
63
100
AcDbEntity
  8
LIVELLO_1
 62
     7
100
AcDbVertex
100
AcDb2dVertex
 10
-23.079298
 20
31.457339
 30
0.0
  0
SEQEND
  5
64
100
AcDbEntity
  8
LIVELLO_1
 62
     7
  0
POLYLINE
  5
59
100
AcDbEntity
  8
LIVELLO_1
 62
     7
100
AcDb2dPolyline
 66
     1
 10
0.0
 20
0.0
 30
0.0
 70
     1
  0
VERTEX
  5
5A
100
AcDbEntity
  8
LIVELLO_1
 62
     7
100
AcDbVertex
100
AcDb2dVertex
 10
-23.08102
 20
34.849036
 30
0.0
  0
VERTEX
  5
5B
100
AcDbEntity
  8
LIVELLO_1
 62
     7
100
AcDbVertex
100
AcDb2dVertex
 10
-20.254319
 20
34.849036
 30
0.0
  0
VERTEX
  5
5C
100
AcDbEntity
  8
LIVELLO_1
 62
     7
100
AcDbVertex
100
AcDb2dVertex
 10
-20.254319
 20
34.014634
 30
0.0
  0
VERTEX
  5
5D
100
AcDbEntity
  8
LIVELLO_1
 62
     7
100
AcDbVertex
100
AcDb2dVertex
 10
-23.079298
 20
34.014634
 30
0.0
  0
SEQEND
  5
5E
100
AcDbEntity
  8
LIVELLO_1
 62
     7
  0
POLYLINE
  5
53
100
AcDbEntity
  8
LIVELLO_1
 62
     7
100
AcDb2dPolyline
 66
     1
 10
0.0
 20
0.0
 30
0.0
 70
     1
  0
VERTEX
  5
54
100
AcDbEntity
  8
LIVELLO_1
 62
     7
100
AcDbVertex
100
AcDb2dVertex
 10
-24.785137
 20
42.25668
 30
0.0
  0
VERTEX
  5
55
100
AcDbEntity
  8
LIVELLO_1
 62
     7
100
AcDbVertex
100
AcDb2dVertex
 10
-23.019353
 20
42.25668
 30
0.0
  0
VERTEX
  5
56
100
AcDbEntity
  8
LIVELLO_1
 62
     7
100
AcDbVertex
100
AcDb2dVertex
 10
-23.019353
 20
32.774055
 30
0.0
  0
VERTEX
  5
57
100
AcDbEntity
  8
LIVELLO_1
 62
     7
100
AcDbVertex
100
AcDb2dVertex
 10
-24.783586
 20
32.774055
 30
0.0
  0
SEQEND
  5
58
100
AcDbEntity
  8
LIVELLO_1
 62
     7
  0
POLYLINE
  5
4D
100
AcDbEntity
  8
LIVELLO_1
 62
     7
100
AcDb2dPolyline
 66
     1
 10
0.0
 20
0.0
 30
0.0
 70
     1
  0
VERTEX
  5
4E
100
AcDbEntity
  8
LIVELLO_1
 62
     7
100
AcDbVertex
100
AcDb2dVertex
 10
-24.785137
 20
42.25668
 30
0.0
  0
VERTEX
  5
4F
100
AcDbEntity
  8
LIVELLO_1
 62
     7
100
AcDbVertex
100
AcDb2dVertex
 10
-23.019353
 20
42.25668
 30
0.0
  0
VERTEX
  5
50
100
AcDbEntity
  8
LIVELLO_1
 62
     7
100
AcDbVertex
100
AcDb2dVertex
 10
-23.019353
 20
32.774055
 30
0.0
  0
VERTEX
  5
51
100
AcDbEntity
  8
LIVELLO_1
 62
     7
100
AcDbVertex
100
AcDb2dVertex
 10
-24.783586
 20
32.774055
 30
0.0
  0
SEQEND
  5
52
100
AcDbEntity
  8
LIVELLO_1
 62
     7
  0
SPLINE
  5
4C
100
AcDbEntity
  8
LIVELLO_1
 62
     7
100
AcDbSpline
210
0.0
220
0.0
230
1.0
 70
     8
 71
     3
 72
    23
 73
    19
 74
     0
 42
0.00000001
 43
0.00000001
 40
0.0
 40
0.0
 40
0.0
 40
0.0
 40
1.0
 40
1.0
 40
1.0
 40
2.0
 40
2.0
 40
2.0
 40
3.0
 40
3.0
 40
3.0
 40
4.0
 40
4.0
 40
4.0
 40
5.0
 40
5.0
 40
5.0
 40
6.0
 40
6.0
 40
6.0
 40
6.0
 10
-30.432509358723955
 20
43.052841525607633
 30
0.0
 10
-30.432509358723955
 20
43.052841525607633
 30
0.0
 10
-29.564517550998261
 20
43.052841525607633
 30
0.0
 10
-29.564517550998261
 20
43.052841525607633
 30
0.0
 10
-29.564517550998261
 20
43.052841525607633
 30
0.0
 10
-29.562105984157984
 20
31.971002875434024
 30
0.0
 10
-29.562105984157984
 20
31.971002875434024
 30
0.0
 10
-29.562105984157984
 20
31.971002875434024
 30
0.0
 10
-30.430786810980901
 20
31.971002875434024
 30
0.0
 10
-30.430786810980901
 20
31.971002875434024
 30
0.0
 10
-31.084321424696178
 20
31.971002875434024
 30
0.0
 10
-31.613832600911454
 20
32.48638916015625
 30
0.0
 10
-31.613832600911454
 20
33.125109863281246
 30
0.0
 10
-31.613832600911454
 20
33.125109863281246
 30
0.0
 10
-31.613832600911454
 20
41.90080159505208
 30
0.0
 10
-31.613832600911454
 20
41.90080159505208
 30
0.0
 10
-31.613832600911454
 20
42.537455240885414
 30
0.0
 10
-31.086043972439235
 20
43.052841525607633
 30
0.0
 10
-30.432509358723955
 20
43.052841525607633
 30
0.0
  0
SPLINE
  5
4B
100
AcDbEntity
  8
LIVELLO_1
 62
     7
100
AcDbSpline
210
0.0
220
0.0
230
1.0
 70
     8
 71
     3
 72
    23
 73
    19
 74
     0
 42
0.00000001
 43
0.00000001
 40
0.0
 40
0.0
 40
0.0
 40
0.0
 40
1.0
 40
1.0
 40
1.0
 40
2.0
 40
2.0
 40
2.0
 40
3.0
 40
3.0
 40
3.0
 40
4.0
 40
4.0
 40
4.0
 40
5.0
 40
5.0
 40
5.0
 40
6.0
 40
6.0
 40
6.0
 40
6.0
 10
-28.463809543185761
 20
43.591654459635414
 30
0.0
 10
-28.463809543185761
 20
43.591654459635414
 30
0.0
 10
-24.723641628689233
 20
43.591654459635414
 30
0.0
 10
-24.723641628689233
 20
43.591654459635414
 30
0.0
 10
-24.723641628689233
 20
43.591654459635414
 30
0.0
 10
-24.723641628689233
 20
41.080868869357637
 30
0.0
 10
-24.723641628689233
 20
41.080868869357637
 30
0.0
 10
-24.723641628689233
 20
41.080868869357637
 30
0.0
 10
-28.463809543185761
 20
41.080868869357637
 30
0.0
 10
-28.463809543185761
 20
41.080868869357637
 30
0.0
 10
-29.10494181315104
 20
41.080868869357637
 30
0.0
 10
-29.625323486328121
 20
41.60624593098958
 30
0.0
 10
-29.625323486328121
 20
42.256679958767357
 30
0.0
 10
-29.625323486328121
 20
42.256679958767357
 30
0.0
 10
-29.625323486328121
 20
42.416187879774299
 30
0.0
 10
-29.625323486328121
 20
42.416187879774299
 30
0.0
 10
-29.625323486328121
 20
43.066277398003471
 30
0.0
 10
-29.10494181315104
 20
43.591654459635414
 30
0.0
 10
-28.463809543185761
 20
43.591654459635414
 30
0.0
  0
SPLINE
  5
4A
100
AcDbEntity
  8
LIVELLO_1
 62
     7
100
AcDbSpline
210
0.0
220
0.0
230
1.0
 70
     8
 71
     3
 72
    23
 73
    19
 74
     0
 42
0.00000001
 43
0.00000001
 40
0.0
 40
0.0
 40
0.0
 40
0.0
 40
1.0
 40
1.0
 40
1.0
 40
2.0
 40
2.0
 40
2.0
 40
3.0
 40
3.0
 40
3.0
 40
4.0
 40
4.0
 40
4.0
 40
5.0
 40
5.0
 40
5.0
 40
6.0
 40
6.0
 40
6.0
 40
6.0
 10
-28.463809543185761
 20
41.140813530815969
 30
0.0
 10
-28.463809543185761
 20
41.140813530815969
 30
0.0
 10
-24.723641628689233
 20
41.140813530815969
 30
0.0
 10
-24.723641628689233
 20
41.140813530815969
 30
0.0
 10
-24.723641628689233
 20
41.140813530815969
 30
0.0
 10
-24.723641628689233
 20
33.997752549913194
 30
0.0
 10
-24.723641628689233
 20
33.997752549913194
 30
0.0
 10
-24.723641628689233
 20
33.997752549913194
 30
0.0
 10
-28.462259250217013
 20
33.997752549913194
 30
0.0
 10
-28.462259250217013
 20
33.997752549913194
 30
0.0
 10
-29.10494181315104
 20
33.997752549913194
 30
0.0
 10
-29.625323486328121
 20
35.494302029079861
 30
0.0
 10
-29.625323486328121
 20
37.339839680989577
 30
0.0
 10
-29.625323486328121
 20
37.339839680989577
 30
0.0
 10
-29.625323486328121
 20
37.797003851996521
 30
0.0
 10
-29.625323486328121
 20
37.797003851996521
 30
0.0
 10
-29.625323486328121
 20
39.644608561197913
 30
0.0
 10
-29.10494181315104
 20
41.140813530815969
 30
0.0
 10
-28.463809543185761
 20
41.140813530815969
 30
0.0
  0
SPLINE
  5
49
100
AcDbEntity
  8
LIVELLO_1
 62
     7
100
AcDbSpline
210
0.0
220
0.0
230
1.0
 70
     8
 71
     3
 72
    23
 73
    19
 74
     0
 42
0.00000001
 43
0.00000001
 40
0.0
 40
0.0
 40
0.0
 40
0.0
 40
1.0
 40
1.0
 40
1.0
 40
2.0
 40
2.0
 40
2.0
 40
3.0
 40
3.0
 40
3.0
 40
4.0
 40
4.0
 40
4.0
 40
5.0
 40
5.0
 40
5.0
 40
6.0
 40
6.0
 40
6.0
 40
6.0
 10
-28.462259250217013
 20
31.437357584635414
 30
0.0
 10
-28.462259250217013
 20
31.437357584635414
 30
0.0
 10
-24.723641628689233
 20
31.437357584635414
 30
0.0
 10
-24.723641628689233
 20
31.437357584635414
 30
0.0
 10
-24.723641628689233
 20
31.437357584635414
 30
0.0
 10
-24.723641628689233
 20
33.949521213107637
 30
0.0
 10
-24.723641628689233
 20
33.949521213107637
 30
0.0
 10
-24.723641628689233
 20
33.949521213107637
 30
0.0
 10
-28.462259250217013
 20
33.949521213107637
 30
0.0
 10
-28.462259250217013
 20
33.949521213107637
 30
0.0
 10
-29.10494181315104
 20
33.949521213107637
 30
0.0
 10
-29.625323486328121
 20
33.424144151475694
 30
0.0
 10
-29.625323486328121
 20
32.774054633246521
 30
0.0
 10
-29.625323486328121
 20
32.774054633246521
 30
0.0
 10
-29.625323486328121
 20
32.61454671223958
 30
0.0
 10
-29.625323486328121
 20
32.61454671223958
 30
0.0
 10
-29.623600938585067
 20
31.966179741753468
 30
0.0
 10
-29.10494181315104
 20
31.437357584635414
 30
0.0
 10
-28.462259250217013
 20
31.437357584635414
 30
0.0
  0
POLYLINE
  5
43
100
AcDbEntity
  8
LIVELLO_1
 62
     7
100
AcDb2dPolyline
 66
     1
 10
0.0
 20
0.0
 30
0.0
 70
     1
  0
VERTEX
  5
44
100
AcDbEntity
  8
LIVELLO_1
 62
     7
100
AcDbVertex
100
AcDb2dVertex
 10
58.260096
 20
70.010025
 30
0.0
  0
VERTEX
  5
45
100
AcDbEntity
  8
LIVELLO_1
 62
     7
100
AcDbVertex
100
AcDb2dVertex
 10
59.444175
 20
70.010025
 30
0.0
  0
VERTEX
  5
46
100
AcDbEntity
  8
LIVELLO_1
 62
     7
100
AcDbVertex
100
AcDb2dVertex
 10
59.44762
 20
32.839167
 30
0.0
  0
VERTEX
  5
47
100
AcDbEntity
  8
LIVELLO_1
 62
     7
100
AcDbVertex
100
AcDb2dVertex
 10
58.264575
 20
32.839167
 30
0.0
  0
SEQEND
  5
48
100
AcDbEntity
  8
LIVELLO_1
 62
     7
  0
POLYLINE
  5
3D
100
AcDbEntity
  8
LIVELLO_1
 62
     7
100
AcDb2dPolyline
 66
     1
 10
0.0
 20
0.0
 30
0.0
 70
     1
  0
VERTEX
  5
3E
100
AcDbEntity
  8
LIVELLO_1
 62
     7
100
AcDbVertex
100
AcDb2dVertex
 10
58.264575
 20
27.845846
 30
0.0
  0
VERTEX
  5
3F
100
AcDbEntity
  8
LIVELLO_1
 62
     7
100
AcDbVertex
100
AcDb2dVertex
 10
59.44762
 20
27.845846
 30
0.0
  0
VERTEX
  5
40
100
AcDbEntity
  8
LIVELLO_1
 62
     7
100
AcDbVertex
100
AcDb2dVertex
 10
59.448998
 20
18.197511
 30
0.0
  0
VERTEX
  5
41
100
AcDbEntity
  8
LIVELLO_1
 62
     7
100
AcDbVertex
100
AcDb2dVertex
 10
58.265953
 20
18.197511
 30
0.0
  0
SEQEND
  5
42
100
AcDbEntity
  8
LIVELLO_1
 62
     7
  0
POLYLINE
  5
37
100
AcDbEntity
  8
LIVELLO_1
 62
     7
100
AcDb2dPolyline
 66
     1
 10
0.0
 20
0.0
 30
0.0
 70
     1
  0
VERTEX
  5
38
100
AcDbEntity
  8
LIVELLO_1
 62
     7
100
AcDbVertex
100
AcDb2dVertex
 10
59.382508
 20
70.583633
 30
0.0
  0
VERTEX
  5
39
100
AcDbEntity
  8
LIVELLO_1
 62
     7
100
AcDbVertex
100
AcDb2dVertex
 10
62.003192
 20
70.583633
 30
0.0
  0
VERTEX
  5
3A
100
AcDbEntity
  8
LIVELLO_1
 62
     7
100
AcDbVertex
100
AcDb2dVertex
 10
62.008015
 20
17.623558
 30
0.0
  0
VERTEX
  5
3B
100
AcDbEntity
  8
LIVELLO_1
 62
     7
100
AcDbVertex
100
AcDb2dVertex
 10
59.389398
 20
17.623558
 30
0.0
  0
SEQEND
  5
3C
100
AcDbEntity
  8
LIVELLO_1
 62
     7
  0
LINE
  5
36
100
AcDbEntity
  8
LIVELLO_1
 62
     7
100
AcDbLine
 10
-51.529585
 20
-11.678012
 30
0.0
 11
-56.259012
 21
-11.678012
 31
0.0
  0
LINE
  5
35
100
AcDbEntity
  8
LIVELLO_1
 62
     7
100
AcDbLine
 10
-53.893954
 20
23.575994
 30
0.0
 11
-53.893954
 21
-11.678012
 31
0.0
  0
LINE
  5
34
100
AcDbEntity
  8
LIVELLO_1
 62
     7
100
AcDbLine
 10
-53.893954
 20
69.433316
 30
0.0
 11
-53.893954
 21
36.309067
 31
0.0
  0
LINE
  5
33
100
AcDbEntity
  8
LIVELLO_1
 62
     7
100
AcDbLine
 10
-51.529585
 20
69.433316
 30
0.0
 11
-56.259012
 21
69.433316
 31
0.0
  0
MTEXT
  5
32
100
AcDbEntity
  8
LIVELLO_1
 62
     7
100
AcDbMText
 10
-62.200941
 20
34.107244
 30
0.0
 40
7.449612
 41
0.0
 71
     1
 72
     2
  1
\fCourier|b0|i0;\H7.4496;\C7;\U+0031\U+0037\U+0037
  7
STD
210
0.0
220
0.0
230
1.0
 73
     1
 44
1.0
  0
MTEXT
  5
31
100
AcDbEntity
  8
LIVELLO_1
 62
     7
100
AcDbMText
 10
-11.59955
 20
-60.832353
 30
0.0
 40
7.449612
 41
0.0
 71
     1
 72
     2
  1
\fCourier|b0|i0;\H7.4496;\C7;\U+00F8\U+0020\U+0031\U+0038\U+0030
  7
STD
210
0.0
220
0.0
230
1.0
 73
     1
 44
1.0
  0
LINE
  5
30
100
AcDbEntity
  8
LIVELLO_1
 62
     7
100
AcDbLine
 10
-51.529585
 20
-52.709789
 30
0.0
 11
-56.259012
 21
-52.709789
 31
0.0
  0
LINE
  5
2F
100
AcDbEntity
  8
LIVELLO_1
 62
     7
100
AcDbLine
 10
-53.893954
 20
-35.80505
 30
0.0
 11
-53.893954
 21
-52.709789
 31
0.0
  0
LINE
  5
2E
100
AcDbEntity
  8
LIVELLO_1
 62
     7
100
AcDbLine
 10
-53.893954
 20
-11.551577
 30
0.0
 11
-53.893954
 21
-23.054062
 31
0.0
  0
LINE
  5
2D
100
AcDbEntity
  8
LIVELLO_1
 62
     7
100
AcDbLine
 10
-51.529585
 20
-11.551577
 30
0.0
 11
-56.259012
 21
-11.551577
 31
0.0
  0
MTEXT
  5
2C
100
AcDbEntity
  8
LIVELLO_1
 62
     7
100
AcDbMText
 10
-59.385953
 20
-25.268977
 30
0.0
 40
7.449612
 41
0.0
 71
     1
 72
     2
  1
\fCourier|b0|i0;\H7.4496;\C7;\U+0039\U+0036
  7
STD
210
0.0
220
0.0
230
1.0
 73
     1
 44
1.0
  0
ENDBLK
  5
197
100
AcDbEntity
  8
LIVELLO_1
100
AcDbBlockEnd
  0
ENDSEC
  0
SECTION
  2
ENTITIES
  0
INSERT
  5
2A
100
AcDbEntity
  8
LIVELLO_1
 62
     7
100
AcDbBlockReference
  2
AI9-BLK1
 10
61.984072
 20
75.129437
 30
0.0
  0
ENDSEC
  0
SECTION
  2
OBJECTS
  0
DICTIONARY
  5
19
100
AcDbDictionary
280
     0
281
     1
  3
ACAD_GROUP
350
1A
  3
ACAD_MLINESTYLE
350
1B
  3
ACAD_LAYOUT
350
1E
  3
ACAD_PLOTSETTINGS
350
22
  3
ACAD_PLOTSTYLENAME
350
1F
  3
ACAD_WIPEOUT_VARS
350
23
  0
DICTIONARY
  5
1A
102
{ACAD_REACTORS
330
19
102
}
100
AcDbDictionary
280
     0
281
     1
  0
DICTIONARY
  5
1B
102
{ACAD_REACTORS
330
19
102
}
100
AcDbDictionary
280
     0
281
     1
  3
Standard
350
1C
  0
MLINESTYLE
  5
1C
102
{ACAD_REACTORS
330
1B
102
}
100
AcDbMlineStyle
  2
Standard
 70
     0
  3

 62
     0
 51
90.0
 52
90.0
 71
     2
 49
0.5
 62
   256
  6
ByLayer
 49
-0.5
 62
   256
  6
ByLayer
  0
ACDBDICTIONARYWDFLT
  5
1F
102
{ACAD_REACTORS
330
19
102
}
100
AcDbDictionary
281
     1
  3
Normal
350
1D
100
AcDbDictionaryWithDefault
340
1D
  0
ACDBPLACEHOLDER
  5
1D
102
{ACAD_REACTORS
330
1F
102
}
  0
LAYOUT
  5
20
102
{ACAD_REACTORS
330
1E
102
}
100
AcDbPlotSettings
  1

  2

  4

  6

 40
0.0
 41
0.0
 42
0.0
 43
0.0
 44
0.0
 45
0.0
 46
0.0
 47
0.0
 48
0.0
 49
0.0
140
0.0
141
0.0
142
1.0
143
1.0
 70
  1024
 72
     0
 73
     0
 74
     0
  7

 75
     0
147
1.0
148
0.0
149
0.0
100
AcDbLayout
  1
Model
 70
     0
 71
     0
 10
0.0
 20
0.0
 11
0.0
 21
0.0
 12
0.0
 22
0.0
 32
0.0
 14
0.0
 24
0.0
 34
0.0
 15
0.0
 25
0.0
 35
0.0
146
0.0
 13
0.0
 23
0.0
 33
0.0
 16
0.0
 26
0.0
 36
0.0
 17
0.0
 27
0.0
 37
0.0
 76
     0
330
A
331
0
345
0
346
0
  0
LAYOUT
  5
21
102
{ACAD_REACTORS
330
1E
102
}
100
AcDbPlotSettings
  1

  2

  4

  6

 40
0.0
 41
0.0
 42
0.0
 43
0.0
 44
0.0
 45
0.0
 46
0.0
 47
0.0
 48
0.0
 49
0.0
140
0.0
141
0.0
142
1.0
143
1.0
 70
     0
 72
     0
 73
     0
 74
     0
  7

 75
     0
147
1.0
148
0.0
149
0.0
100
AcDbLayout
  1
Layout1
 70
     0
 71
     0
 10
0.0
 20
0.0
 11
0.0
 21
0.0
 12
0.0
 22
0.0
 32
0.0
 14
0.0
 24
0.0
 34
0.0
 15
0.0
 25
0.0
 35
0.0
146
0.0
 13
0.0
 23
0.0
 33
0.0
 16
0.0
 26
0.0
 36
0.0
 17
0.0
 27
0.0
 37
0.0
 76
     0
330
B
331
0
345
0
346
0
  0
DICTIONARY
  5
1E
102
{ACAD_REACTORS
330
19
102
}
100
AcDbDictionary
280
     0
281
     1
  3
Layout1
350
21
  3
Model
350
20
  0
DICTIONARY
  5
22
102
{ACAD_REACTORS
330
19
102
}
100
AcDbDictionary
280
     0
281
     1
  0
WIPEOUTVARIABLES
  5
23
100
AcDbWipeoutVariables
 70
     1
  0
ENDSEC
  0
EOF
