  0
SECTION
  2
HEADER
  9
$ACADVER
  1
AC1015
  9
$ACADMAINTVER
 70
     6
  9
$DWGCODEPAGE
  3
ANSI_932
  9
$INSBASE
 10
0.0
 20
0.0
 30
0.0
  9
$EXTMIN
 10
0.0
 20
1.732194
 30
1.000000E+20
  9
$EXTMAX
 10
151.801587
 20
309.011974
 30
-1.000000E+20
  9
$LIMMIN
 10
0.0
 20
1.732194
  9
$LIMMAX
 10
151.801587
 20
309.011974
  9
$ORTHOMODE
 70
     0
  9
$REGENMODE
 70
     1
  9
$FILLMODE
 70
     1
  9
$QTEXTMODE
 70
     0
  9
$MIRRTEXT
 70
     1
  9
$LTSCALE
 40
1.0
  9
$ATTMODE
 70
     1
  9
$TEXTSIZE
 40
0.2
  9
$TRACEWID
 40
0.05
  9
$TEXTSTYLE
  7
Standard
  9
$CLAYER
  8
0
  9
$CELTYPE
  6
Continuous
  9
$CECOLOR
 62
   256
  9
$CELTSCALE
 40
1.0
  9
$DISPSILH
 70
     0
  9
$DIMSCALE
 40
1.0
  9
$DIMASZ
 40
0.18
  9
$DIMEXO
 40
0.0625
  9
$DIMDLI
 40
0.38
  9
$DIMRND
 40
0.0
  9
$DIMDLE
 40
0.0
  9
$DIMEXE
 40
0.18
  9
$DIMTP
 40
0.0
  9
$DIMTM
 40
0.0
  9
$DIMTXT
 40
0.18
  9
$DIMCEN
 40
0.09
  9
$DIMTSZ
 40
0.0
  9
$DIMTOL
 70
     0
  9
$DIMLIM
 70
     0
  9
$DIMTIH
 70
     1
  9
$DIMTOH
 70
     1
  9
$DIMSE1
 70
     0
  9
$DIMSE2
 70
     0
  9
$DIMTAD
 70
     0
  9
$DIMZIN
 70
     0
  9
$DIMBLK
  1

  9
$DIMASO
 70
     1
  9
$DIMSHO
 70
     1
  9
$DIMPOST
  1

  9
$DIMAPOST
  1

  9
$DIMALT
 70
     0
  9
$DIMALTD
 70
     2
  9
$DIMALTF
 40
25.4
  9
$DIMLFAC
 40
1.0
  9
$DIMTOFL
 70
     0
  9
$DIMTVP
 40
0.0
  9
$DIMTIX
 70
     0
  9
$DIMSOXD
 70
     0
  9
$DIMSAH
 70
     0
  9
$DIMBLK1
  1

  9
$DIMBLK2
  1

  9
$DIMSTYLE
  2
Standard
  9
$DIMCLRD
 70
     0
  9
$DIMCLRE
 70
     0
  9
$DIMCLRT
 70
     0
  9
$DIMTFAC
 40
1.0
  9
$DIMGAP
 40
0.09
  9
$DIMJUST
 70
     0
  9
$DIMSD1
 70
     0
  9
$DIMSD2
 70
     0
  9
$DIMTOLJ
 70
     1
  9
$DIMTZIN
 70
     0
  9
$DIMALTZ
 70
     0
  9
$DIMALTTZ
 70
     0
  9
$DIMUPT
 70
     0
  9
$DIMDEC
 70
     4
  9
$DIMTDEC
 70
     4
  9
$DIMALTU
 70
     2
  9
$DIMALTTD
 70
     2
  9
$DIMTXSTY
  7
Standard
  9
$DIMAUNIT
 70
     0
  9
$DIMADEC
 70
     0
  9
$DIMALTRND
 40
0.0
  9
$DIMAZIN
 70
     0
  9
$DIMDSEP
 70
     0
  9
$DIMATFIT
 70
     3
  9
$DIMFRAC
 70
     0
  9
$DIMLDRBLK
  1

  9
$DIMLUNIT
 70
     2
  9
$DIMLWD
 70
     0
  9
$DIMLWE
 70
     0
  9
$DIMTMOVE
 70
     0
  9
$LUNITS
 70
     2
  9
$LUPREC
 70
     4
  9
$SKETCHINC
 40
0.1
  9
$FILLETRAD
 40
0.0
  9
$AUNITS
 70
     0
  9
$AUPREC
 70
     0
  9
$MENU
  1
acad
  9
$ELEVATION
 40
0.0
  9
$PELEVATION
 40
0.0
  9
$THICKNESS
 40
0.0
  9
$LIMCHECK
 70
     0
  9
$CHAMFERA
 40
0.0
  9
$CHAMFERB
 40
0.0
  9
$CHAMFERC
 40
0.0
  9
$CHAMFERD
 40
0.0
  9
$SKPOLY
 70
     0
  9
$TDCREATE
 40
0.000000000
  9
$TDUCREATE
 40
0.000000000
  9
$TDUPDATE
 40
0.000000000
  9
$TDUUPDATE
 40
0.000000000
  9
$TDINDWG
 40
0.0000000000
  9
$TDUSRTIMER
 40
0.0000000000
  9
$USRTIMER
 70
     1
  9
$ANGBASE
 50
0.0
  9
$ANGDIR
 70
     0
  9
$PDMODE
 70
     0
  9
$PDSIZE
 40
0.0
  9
$PLINEWID
 40
0.0
  9
$SPLFRAME
 70
     0
  9
$SPLINETYPE
 70
     6
  9
$SPLINESEGS
 70
     8
  9
$HANDSEED
  5
2AB
  9
$SURFTAB1
 70
     6
  9
$SURFTAB2
 70
     6
  9
$SURFTYPE
 70
     6
  9
$SURFU
 70
     6
  9
$SURFV
 70
     6
  9
$UCSBASE
  2

  9
$UCSNAME
  2

  9
$UCSORG
 10
0.0
 20
0.0
 30
0.0
  9
$UCSXDIR
 10
1.0
 20
0.0
 30
0.0
  9
$UCSYDIR
 10
0.0
 20
1.0
 30
0.0
  9
$UCSORTHOREF
  2

  9
$UCSORTHOVIEW
 70
     0
  9
$UCSORGTOP
 10
0.0
 20
0.0
 30
0.0
  9
$UCSORGBOTTOM
 10
0.0
 20
0.0
 30
0.0
  9
$UCSORGLEFT
 10
0.0
 20
0.0
 30
0.0
  9
$UCSORGRIGHT
 10
0.0
 20
0.0
 30
0.0
  9
$UCSORGFRONT
 10
0.0
 20
0.0
 30
0.0
  9
$UCSORGBACK
 10
0.0
 20
0.0
 30
0.0
  9
$PUCSBASE
  2

  9
$PUCSNAME
  2

  9
$PUCSORG
 10
0.0
 20
0.0
 30
0.0
  9
$PUCSXDIR
 10
1.0
 20
0.0
 30
0.0
  9
$PUCSYDIR
 10
0.0
 20
1.0
 30
0.0
  9
$PUCSORTHOREF
  2

  9
$PUCSORTHOVIEW
 70
     0
  9
$PUCSORGTOP
 10
0.0
 20
0.0
 30
0.0
  9
$PUCSORGBOTTOM
 10
0.0
 20
0.0
 30
0.0
  9
$PUCSORGLEFT
 10
0.0
 20
0.0
 30
0.0
  9
$PUCSORGRIGHT
 10
0.0
 20
0.0
 30
0.0
  9
$PUCSORGFRONT
 10
0.0
 20
0.0
 30
0.0
  9
$PUCSORGBACK
 10
0.0
 20
0.0
 30
0.0
  9
$USERI1
 70
     0
  9
$USERI2
 70
     0
  9
$USERI3
 70
     0
  9
$USERI4
 70
     0
  9
$USERI5
 70
     0
  9
$USERR1
 40
0.0
  9
$USERR2
 40
0.0
  9
$USERR3
 40
0.0
  9
$USERR4
 40
0.0
  9
$USERR5
 40
0.0
  9
$WORLDVIEW
 70
     1
  9
$SHADEDGE
 70
     3
  9
$SHADEDIF
 70
    70
  9
$TILEMODE
 70
     1
  9
$MAXACTVP
 70
    16
  9
$PINSBASE
 10
0.0
 20
0.0
 30
0.0
  9
$PLIMCHECK
 70
     0
  9
$PEXTMIN
 10
1.000000E+20
 20
1.000000E+20
 30
1.000000E+20
  9
$PEXTMAX
 10
-1.000000E+20
 20
-1.000000E+20
 30
-1.000000E+20
  9
$PLIMMIN
 10
0.0
 20
0.0
  9
$PLIMMAX
 10
12.0
 20
9.0
  9
$UNITMODE
 70
     0
  9
$VISRETAIN
 70
     0
  9
$PLINEGEN
 70
     1
  9
$PSLTSCALE
 70
     0
  9
$TREEDEPTH
 70
  3020
  9
$CMLSTYLE
  2
Standard
  9
$CMLJUST
 70
     0
  9
$CMLSCALE
 40
1.0
  9
$PROXYGRAPHICS
 70
     0
  9
$MEASUREMENT
 70
     1
  9
$CELWEIGHT
370
     0
  9
$ENDCAPS
280
     0
  9
$JOINSTYLE
280
     0
  9
$LWDISPLAY
290
     0
  9
$INSUNITS
 70
     0
  9
$HYPERLINKBASE
  1

  9
$STYLESHEET
  1

  9
$XEDIT
290
     1
  9
$CEPSNTYPE
380
     0
  9
$PSTYLEMODE
290
     1
  9
$FINGERPRINTGUID
  2

  9
$VERSIONGUID
  2

  9
$EXTNAMES
290
     1
  9
$PSVPSCALE
 40
0.0
  0
ENDSEC
  0
SECTION
  2
CLASSES
  0
CLASS
  1
LWPOLYLINE
  2
AcDbPolyline
  3
AutoCAD 2000
 90
    32768
280
     0
281
     1
  0
CLASS
  1
IMAGE
  2
AcDbRasterImage
  3
ISM
 90
    32895
280
     0
281
     1
  0
CLASS
  1
OLE2FRAME
  2
AcDbOle2Frame
  3
AutoCAD 2000
 90
    32768
280
     0
281
     1
  0
CLASS
  1
HATCH
  2
AcDbHatch
  3
AutoCAD 2000
 90
    32768
280
     0
281
     1
  0
CLASS
  1
DICTIONARYVAR
  2
AcDbDictionaryVar
  3
AutoCAD 2000
 90
    32768
280
     0
281
     0
  0
CLASS
  1
RASTERVARIABLES
  2
AcDbRasterVariables
  3
ISM
 90
    32768
280
     0
281
     0
  0
CLASS
  1
IMAGEDEF
  2
AcDbRasterImageDef
  3
ISM
 90
    32768
280
     0
281
     0
  0
CLASS
  1
IMAGEDEF_REACTOR
  2
AcDbRasterImageDefReactor
  3
ISM
 90
    32769
280
     0
281
     0
  0
CLASS
  1
IDBUFFER
  2
AcDbIdBuffer
  3
AutoCAD 2000
 90
    32768
280
     0
281
     0
  0
CLASS
  1
SPATIAL_FILTER
  2
AcDbSpatialFilter
  3
AutoCAD 2000
 90
    32768
280
     0
281
     0
  0
CLASS
  1
XRECORD
  2
AcDbXrecord
  3
AutoCAD 2000
 90
    32768
280
     0
281
     0
  0
CLASS
  1
SORTENTSTABLE
  2
AcDbSortentsTable
  3
AutoCAD 2000
 90
    32768
280
     0
281
     0
  0
CLASS
  1
LAYER_INDEX
  2
AcDbLayerIndex
  3
AutoCAD 2000
 90
    32768
280
     0
281
     0
  0
CLASS
  1
SPATIAL_INDEX
  2
AcDbSpatialIndex
  3
AutoCAD 2000
 90
    32768
280
     0
281
     0
  0
CLASS
  1
OBJECT_PTR
  2
CAseDLPNTableRecord
  3
"ASE-LPNTableRecord"
 90
    32769
280
     0
281
     0
  0
CLASS
  1
LAYOUT
  2
AcDbLayout
  3
AutoCAD 2000
 90
        0
280
     0
281
     0
  0
CLASS
  1
PLOTSETTINGS
  2
AcDbPlotSettings
  3
AutoCAD 2000
 90
    32768
280
     0
281
     0
  0
CLASS
  1
ACDBDICTIONARYWDFLT
  2
AcDbDictionaryWithDefault
  3
AutoCAD 2000
 90
        0
280
     0
281
     0
  0
CLASS
  1
ACDBPLACEHOLDER
  2
AcDbPlaceHolder
  3
AutoCAD 2000
 90
        0
280
     0
281
     0
  0
CLASS
  1
VBA_PROJECT
  2
AcDbVbaProject
  3
acadvba
 90
    32768
280
     0
281
     0
  0
CLASS
  1
WIPEOUT
  2
AcDbWipeout
  3
WipeOut|AutoCAD Express Tool|expresstools@autodesk.com
 90
    32895
280
     0
281
     1
  0
CLASS
  1
WIPEOUTVARIABLES
  2
AcDbWipeoutVariables
  3
WipeOut|AutoCAD Express Tool|expresstools@autodesk.com
 90
        0
280
     0
281
     0
  0
CLASS
  1
RTEXT
  2
RText
  3
RText|AutoCAD Express Tool|expresstools@autodesk.com
 90
    32768
280
     0
281
     1
  0
CLASS
  1
ARCALIGNEDTEXT
  2
AcDbArcAlignedText
  3
ATEXT|AutoCAD Express Tool|expresstools@autodesk.com
 90
    32768
280
     0
281
     1
  0
ENDSEC
  0
SECTION
  2
TABLES
  0
TABLE
  2
VPORT
  5
7
100
AcDbSymbolTable
 70
     1
  0
VPORT
  5
15
100
AcDbSymbolTableRecord
100
AcDbViewportTableRecord
  2
*ACTIVE
 70
     0
 10
0.0
 20
0.0
 11
1.0
 21
1.0
 12
6.591288
 22
4.579184
 13
0.0
 23
0.0
 14
1.0
 24
1.0
 15
0.0
 25
0.0
 16
0.0
 26
0.0
 36
1.0
 17
0.0
 27
0.0
 37
0.0
 40
9.158369
 41
0.688564
 42
50.0
 43
0.0
 44
0.0
 50
0.0
 51
0.0
 71
     0
 72
   100
 73
     1
 74
     1
 75
     0
 76
     0
 77
     0
 78
     0
281
     0
 65
     0
110
0.0
120
0.0
130
0.0
111
1.0
121
0.0
131
0.0
112
0.0
122
1.0
132
0.0
345
0
346
0
 79
     0
146
0.0
  0
ENDTAB
  0
TABLE
  2
LTYPE
  5
4
100
AcDbSymbolTable
 70
     3
  0
LTYPE
  5
11
100
AcDbSymbolTableRecord
100
AcDbLinetypeTableRecord
  2
ByBlock
 70
    64
  3

 72
    65
 73
     0
 40
0.0
  0
LTYPE
  5
12
100
AcDbSymbolTableRecord
100
AcDbLinetypeTableRecord
  2
ByLayer
 70
    64
  3

 72
    65
 73
     0
 40
0.0
  0
LTYPE
  5
13
100
AcDbSymbolTableRecord
100
AcDbLinetypeTableRecord
  2
Continuous
 70
    64
  3
Solid line
 72
    65
 73
     0
 40
0.0
  0
ENDTAB
  0
TABLE
  2
LAYER
  5
2
100
AcDbSymbolTable
 70
     2
  0
LAYER
  5
14
100
AcDbSymbolTableRecord
100
AcDbLayerTableRecord
  2
0
 70
     0
 62
     7
  6
Continuous
290
     1
370
    -3
390
1D
  0
LAYER
  5
28
100
AcDbSymbolTableRecord
100
AcDbLayerTableRecord
  2
LIVELLO_1
 70
     0
 62
   160
  6
Continuous
290
     1
370
    -3
390
1D
  0
ENDTAB
  0
TABLE
  2
STYLE
  5
3
100
AcDbSymbolTable
 70
     5
  0
STYLE
  5
17
100
AcDbSymbolTableRecord
100
AcDbTextStyleTableRecord
  2
Standard
 70
     0
 40
0.0
 41
1.0
 50
0.0
 71
     0
 42
0.0
  3
txt
  4

  0
STYLE
  5
24
100
AcDbSymbolTableRecord
100
AcDbTextStyleTableRecord
  2
STD
 70
     0
 40
0.0
 41
1.0
 50
0.0
 71
     0
 42
0.0
  3
txt
  4

  0
STYLE
  5
25
100
AcDbSymbolTableRecord
100
AcDbTextStyleTableRecord
  2
TATESTD
 70
     4
 40
0.0
 41
1.0
 50
0.0
 71
     0
 42
0.0
  3
txt
  4

  0
STYLE
  5
26
100
AcDbSymbolTableRecord
100
AcDbTextStyleTableRecord
  2
KANJISTD
 70
     0
 40
0.0
 41
1.0
 50
0.0
 71
     0
 42
0.0
  3
txt
  4
extfont
  0
STYLE
  5
27
100
AcDbSymbolTableRecord
100
AcDbTextStyleTableRecord
  2
KANJITATE
 70
     4
 40
0.0
 41
1.0
 50
0.0
 71
     0
 42
0.0
  3
txt
  4
extfont
  0
ENDTAB
  0
TABLE
  2
VIEW
  5
5
100
AcDbSymbolTable
 70
     0
  0
ENDTAB
  0
TABLE
  2
UCS
  5
6
100
AcDbSymbolTable
 70
     0
  0
ENDTAB
  0
TABLE
  2
APPID
  5
8
100
AcDbSymbolTable
 70
     1
  0
APPID
  5
16
100
AcDbSymbolTableRecord
100
AcDbRegAppTableRecord
  2
ACAD
 70
     0
  0
ENDTAB
  0
TABLE
  2
DIMSTYLE
  5
9
100
AcDbSymbolTable
 70
     1
100
AcDbDimStyleTable
 71
     0
  0
DIMSTYLE
105
18
100
AcDbSymbolTableRecord
100
AcDbDimStyleTableRecord
  2
Standard
 70
     0
  3

  4

 40
1.0
 41
0.18
 42
0.0625
 43
0.38
 44
0.18
 45
0.0
 46
0.0
 47
0.0
 48
0.0
 71
     0
 72
     0
 73
     1
 74
     1
 75
     0
 76
     0
 77
     0
 78
     0
 79
     0
140
0.18
141
0.09
142
0.0
143
25.4
144
1.0
145
0.0
146
1.0
147
0.09
148
0.0
170
     0
171
     2
172
     0
173
     0
174
     0
175
     0
176
     0
177
     0
178
     0
179
     0
271
     4
272
     4
273
     2
274
     2
275
     0
276
     0
277
     2
278
    46
279
     0
280
     0
281
     0
282
     0
283
     1
284
     0
285
     0
286
     0
288
     0
340
17
341
0
342
0
343
0
344
0
371
    -2
372
    -2
  0
ENDTAB
  0
TABLE
  2
BLOCK_RECORD
  5
1
100
AcDbSymbolTable
 70
     1
  0
BLOCK_RECORD
  5
A
100
AcDbSymbolTableRecord
100
AcDbBlockTableRecord
  2
*MODEL_SPACE
340
20
  0
BLOCK_RECORD
  5
B
100
AcDbSymbolTableRecord
100
AcDbBlockTableRecord
  2
*PAPER_SPACE
340
21
  0
BLOCK_RECORD
  5
29
100
AcDbSymbolTableRecord
100
AcDbBlockTableRecord
  2
AI9-BLK1
340
0
102
{BLKREFS
331
2A
102
}
  0
ENDTAB
  0
ENDSEC
  0
SECTION
  2
BLOCKS
  0
BLOCK
  5
D
100
AcDbEntity
  8
0
100
AcDbBlockBegin
  2
*MODEL_SPACE
 70
     0
 10
0.0
 20
0.0
 30
0.0
  3
*MODEL_SPACE
  1

  0
ENDBLK
  5
E
100
AcDbEntity
  8
0
100
AcDbBlockEnd
  0
BLOCK
  5
F
100
AcDbEntity
 67
     1
  8
0
100
AcDbBlockBegin
  2
*PAPER_SPACE
 70
     0
 10
0.0
 20
0.0
 30
0.0
  3
*PAPER_SPACE
  1

  0
ENDBLK
  5
10
100
AcDbEntity
 67
     1
  8
0
100
AcDbBlockEnd
  0
BLOCK
  5
2B
100
AcDbEntity
  8
LIVELLO_1
 62
     7
100
AcDbBlockBegin
  2
AI9-BLK1
 70
     0
 10
0.0
 20
0.0
 30
0.0
  3
AI9-BLK1
  1

  0
LINE
  5
2A9
100
AcDbEntity
  8
LIVELLO_1
 62
     7
100
AcDbLine
 10
29.810583
 20
-127.082338
 30
0.0
 11
43.305712
 21
-127.082338
 31
0.0
  0
LINE
  5
2A8
100
AcDbEntity
  8
LIVELLO_1
 62
     7
100
AcDbLine
 10
36.558492
 20
-88.880018
 30
0.0
 11
36.558492
 21
-127.082338
 31
0.0
  0
LINE
  5
2A7
100
AcDbEntity
  8
LIVELLO_1
 62
     7
100
AcDbLine
 10
36.558492
 20
-32.401812
 30
0.0
 11
36.558492
 21
-66.955086
 31
0.0
  0
LINE
  5
2A6
100
AcDbEntity
  8
LIVELLO_1
 62
     7
100
AcDbLine
 10
29.810583
 20
-32.401812
 30
0.0
 11
43.305712
 21
-32.401812
 31
0.0
  0
MTEXT
  5
2A5
100
AcDbEntity
  8
LIVELLO_1
 62
     7
100
AcDbMText
 10
23.850224
 20
-72.495471
 30
0.0
 40
10.625381
 41
0.0
 71
     1
 72
     2
  1
\fCourier|b0|i0;\H10.6254;\C7;\U+0033\U+0033\U+0030
  7
STD
210
0.0
220
0.0
230
1.0
 73
     1
 44
1.0
  0
LINE
  5
2A4
100
AcDbEntity
  8
LIVELLO_1
 62
     7
100
AcDbLine
 10
8.330758
 20
-153.635411
 30
0.0
 11
8.330758
 21
-140.140283
 31
0.0
  0
LINE
  5
2A3
100
AcDbEntity
  8
LIVELLO_1
 62
     7
100
AcDbLine
 10
-54.553259
 20
-153.63989
 30
0.0
 11
-54.553259
 21
-140.145106
 31
0.0
  0
MTEXT
  5
2A2
100
AcDbEntity
  8
LIVELLO_1
 62
     7
100
AcDbMText
 10
-43.050085
 20
-137.278425
 30
0.0
 40
10.625381
 41
0.0
 71
     1
 72
     2
  1
\fCourier|b0|i0;\H10.6254;\W0.96;\C7;\U+00F8\U+0020\U+0032\U+0031\U+0036
  7
STD
210
0.0
220
0.0
230
1.0
 73
     1
 44
1.0
  0
SPLINE
  5
2A1
100
AcDbEntity
  8
LIVELLO_1
 62
     7
100
AcDbSpline
210
0.0
220
0.0
230
1.0
 70
     8
 71
     3
 72
    17
 73
    13
 74
     0
 42
0.00000001
 43
0.00000001
 40
0.0
 40
0.0
 40
0.0
 40
0.0
 40
1.0
 40
1.0
 40
1.0
 40
2.0
 40
2.0
 40
2.0
 40
3.0
 40
3.0
 40
3.0
 40
4.0
 40
4.0
 40
4.0
 40
4.0
 10
-48.205498589409714
 20
-117.66895887586804
 30
0.0
 10
-48.384471299913187
 20
-118.13370225694443
 30
0.0
 10
-50.064988878038193
 20
-119.63300781249998
 30
0.0
 10
-49.167886013454854
 20
-119.63300781249998
 30
0.0
 10
-48.241672092013886
 20
-119.63300781249998
 30
0.0
 10
-47.639641655815971
 20
-118.34281955295138
 30
0.0
 10
-47.473415798611107
 20
-117.87118598090277
 30
0.0
 10
-47.330444335937493
 20
-117.46432020399304
 30
0.0
 10
-47.232775878906246
 20
-107.70436469184027
 30
0.0
 10
-47.558337402343746
 20
-107.70436469184027
 30
0.0
 10
-48.043923611111104
 20
-107.70436469184027
 30
0.0
 10
-47.961413574218746
 20
-117.02059190538193
 30
0.0
 10
-48.205498589409714
 20
-117.66895887586804
 30
0.0
  0
SPLINE
  5
2A0
100
AcDbEntity
  8
LIVELLO_1
 62
     7
100
AcDbSpline
210
0.0
220
0.0
230
1.0
 70
     8
 71
     3
 72
    17
 73
    13
 74
     0
 42
0.00000001
 43
0.00000001
 40
0.0
 40
0.0
 40
0.0
 40
0.0
 40
1.0
 40
1.0
 40
1.0
 40
2.0
 40
2.0
 40
2.0
 40
3.0
 40
3.0
 40
3.0
 40
4.0
 40
4.0
 40
4.0
 40
4.0
 10
-47.032960340711803
 20
-117.87118598090277
 30
0.0
 10
-47.208487955729161
 20
-118.33799641927082
 30
0.0
 10
-48.593588595920131
 20
-119.63300781249998
 30
0.0
 10
-47.694246419270826
 20
-119.63300781249998
 30
0.0
 10
-46.771477593315971
 20
-119.63300781249998
 30
0.0
 10
-46.26125895182291
 20
-118.34281955295138
 30
0.0
 10
-46.095033094618053
 20
-117.87118598090277
 30
0.0
 10
-45.952233886718744
 20
-117.46432020399304
 30
0.0
 10
-45.854565429687497
 20
-107.70436469184027
 30
0.0
 10
-46.26125895182291
 20
-107.70436469184027
 30
0.0
 10
-46.673981391059023
 20
-107.70436469184027
 30
0.0
 10
-46.78543023003472
 20
-117.22247450086805
 30
0.0
 10
-47.032960340711803
 20
-117.87118598090277
 30
0.0
  0
SPLINE
  5
29F
100
AcDbEntity
  8
LIVELLO_1
 62
     7
100
AcDbSpline
210
0.0
220
0.0
230
1.0
 70
     8
 71
     3
 72
    17
 73
    13
 74
     0
 42
0.00000001
 43
0.00000001
 40
0.0
 40
0.0
 40
0.0
 40
0.0
 40
1.0
 40
1.0
 40
1.0
 40
2.0
 40
2.0
 40
2.0
 40
3.0
 40
3.0
 40
3.0
 40
4.0
 40
4.0
 40
4.0
 40
4.0
 10
-45.493002658420131
 20
-117.87118598090277
 30
0.0
 10
-45.668530273437497
 20
-118.33799641927082
 30
0.0
 10
-46.810923936631937
 20
-119.63300781249998
 30
0.0
 10
-45.909170193142359
 20
-119.63300781249998
 30
0.0
 10
-44.988812934027777
 20
-119.63300781249998
 30
0.0
 10
-44.476182725694443
 20
-118.34281955295138
 30
0.0
 10
-44.312368435329859
 20
-117.87118598090277
 30
0.0
 10
-44.166985405815971
 20
-117.46432020399304
 30
0.0
 10
-44.00799424913194
 20
-107.70436469184027
 30
0.0
 10
-44.612091742621523
 20
-107.70436469184027
 30
0.0
 10
-45.16657986111111
 20
-107.70436469184027
 30
0.0
 10
-45.243233235677081
 20
-117.22247450086805
 30
0.0
 10
-45.493002658420131
 20
-117.87118598090277
 30
0.0
  0
SPLINE
  5
29E
100
AcDbEntity
  8
LIVELLO_1
 62
     7
100
AcDbSpline
210
0.0
220
0.0
230
1.0
 70
     8
 71
     3
 72
    17
 73
    13
 74
     0
 42
0.00000001
 43
0.00000001
 40
0.0
 40
0.0
 40
0.0
 40
0.0
 40
1.0
 40
1.0
 40
1.0
 40
2.0
 40
2.0
 40
2.0
 40
3.0
 40
3.0
 40
3.0
 40
4.0
 40
4.0
 40
4.0
 40
4.0
 10
-43.640747070312493
 20
-117.87118598090277
 30
0.0
 10
-43.819719780815966
 20
-118.33799641927082
 30
0.0
 10
-44.945749240451384
 20
-119.63300781249998
 30
0.0
 10
-44.046234809027773
 20
-119.63300781249998
 30
0.0
 10
-43.122432454427077
 20
-119.63300781249998
 30
0.0
 10
-42.613247341579857
 20
-118.34281955295138
 30
0.0
 10
-42.445987955729166
 20
-117.87118598090277
 30
0.0
 10
-42.302844238281246
 20
-117.46432020399304
 30
0.0
 10
-42.425145128038189
 20
-107.6836941189236
 30
0.0
 10
-42.870251464843747
 20
-107.6836941189236
 30
0.0
 10
-43.479172092013883
 20
-107.6836941189236
 30
0.0
 10
-43.395456271701384
 20
-117.22247450086805
 30
0.0
 10
-43.640747070312493
 20
-117.87118598090277
 30
0.0
  0
SPLINE
  5
29D
100
AcDbEntity
  8
LIVELLO_1
 62
     7
100
AcDbSpline
210
0.0
220
0.0
230
1.0
 70
     8
 71
     3
 72
    17
 73
    13
 74
     0
 42
0.00000001
 43
0.00000001
 40
0.0
 40
0.0
 40
0.0
 40
0.0
 40
1.0
 40
1.0
 40
1.0
 40
2.0
 40
2.0
 40
2.0
 40
3.0
 40
3.0
 40
3.0
 40
4.0
 40
4.0
 40
4.0
 40
4.0
 10
-41.573173014322911
 20
-117.87118598090277
 30
0.0
 10
-41.750939941406244
 20
-118.33799641927082
 30
0.0
 10
-42.879380967881943
 20
-119.63300781249998
 30
0.0
 10
-41.980038791232637
 20
-119.63300781249998
 30
0.0
 10
-41.053652615017356
 20
-119.63300781249998
 30
0.0
 10
-40.39701741536458
 20
-118.34281955295138
 30
0.0
 10
-40.233203124999996
 20
-117.87118598090277
 30
0.0
 10
-40.087820095486109
 20
-117.46432020399304
 30
0.0
 10
-40.208915201822911
 20
-107.6836941189236
 30
0.0
 10
-40.760819498697913
 20
-107.70436469184027
 30
0.0
 10
-41.410392252604161
 20
-107.72985839843749
 30
0.0
 10
-41.327882215711803
 20
-117.22247450086805
 30
0.0
 10
-41.573173014322911
 20
-117.87118598090277
 30
0.0
  0
SPLINE
  5
29C
100
AcDbEntity
  8
LIVELLO_1
 62
     7
100
AcDbSpline
210
0.0
220
0.0
230
1.0
 70
     8
 71
     3
 72
    17
 73
    13
 74
     0
 42
0.00000001
 43
0.00000001
 40
0.0
 40
0.0
 40
0.0
 40
0.0
 40
1.0
 40
1.0
 40
1.0
 40
2.0
 40
2.0
 40
2.0
 40
3.0
 40
3.0
 40
3.0
 40
4.0
 40
4.0
 40
4.0
 40
4.0
 10
-39.520757378472219
 20
-117.87118598090277
 30
0.0
 10
-39.699730088975691
 20
-118.33799641927082
 30
0.0
 10
-40.542400444878467
 20
-119.63300781249998
 30
0.0
 10
-39.64271375868055
 20
-119.63300781249998
 30
0.0
 10
-38.716672092013887
 20
-119.63300781249998
 30
0.0
 10
-38.16700710720486
 20
-118.34281955295138
 30
0.0
 10
-38.000781249999996
 20
-117.87118598090277
 30
0.0
 10
-37.860049099392356
 20
-117.46432020399304
 30
0.0
 10
-37.978732638888886
 20
-107.70436469184027
 30
0.0
 10
-38.628305392795134
 20
-107.70436469184027
 30
0.0
 10
-39.400006781684027
 20
-107.70436469184027
 30
0.0
 10
-39.273227267795136
 20
-117.22247450086805
 30
0.0
 10
-39.520757378472219
 20
-117.87118598090277
 30
0.0
  0
SPLINE
  5
29B
100
AcDbEntity
  8
LIVELLO_1
 62
     7
100
AcDbSpline
210
0.0
220
0.0
230
1.0
 70
     8
 71
     3
 72
    17
 73
    13
 74
     0
 42
0.00000001
 43
0.00000001
 40
0.0
 40
0.0
 40
0.0
 40
0.0
 40
1.0
 40
1.0
 40
1.0
 40
2.0
 40
2.0
 40
2.0
 40
3.0
 40
3.0
 40
3.0
 40
4.0
 40
4.0
 40
4.0
 40
4.0
 10
-37.290747070312499
 20
-117.87118598090277
 30
0.0
 10
-37.469719780815971
 20
-118.33799641927082
 30
0.0
 10
-38.00302056206597
 20
-119.63300781249998
 30
0.0
 10
-37.103678385416664
 20
-119.63300781249998
 30
0.0
 10
-36.179531521267357
 20
-119.63300781249998
 30
0.0
 10
-35.789202202690966
 20
-118.34281955295138
 30
0.0
 10
-35.625215657552083
 20
-117.87118598090277
 30
0.0
 10
-35.482244194878469
 20
-117.46432020399304
 30
0.0
 10
-35.520657009548607
 20
-107.6836941189236
 30
0.0
 10
-36.29115261501736
 20
-107.70436469184027
 30
0.0
 10
-37.129172092013889
 20
-107.72779134114582
 30
0.0
 10
-37.04304470486111
 20
-117.22247450086805
 30
0.0
 10
-37.290747070312499
 20
-117.87118598090277
 30
0.0
  0
SPLINE
  5
29A
100
AcDbEntity
  8
LIVELLO_1
 62
     7
100
AcDbSpline
210
0.0
220
0.0
230
1.0
 70
     8
 71
     3
 72
    17
 73
    13
 74
     0
 42
0.00000001
 43
0.00000001
 40
0.0
 40
0.0
 40
0.0
 40
0.0
 40
1.0
 40
1.0
 40
1.0
 40
2.0
 40
2.0
 40
2.0
 40
3.0
 40
3.0
 40
3.0
 40
4.0
 40
4.0
 40
4.0
 40
4.0
 10
-34.837322319878467
 20
-117.87118598090277
 30
0.0
 10
-35.012849934895833
 20
-118.33799641927082
 30
0.0
 10
-35.407830132378471
 20
-119.63300781249998
 30
0.0
 10
-34.50831570095486
 20
-119.63300781249998
 30
0.0
 10
-33.585719129774304
 20
-119.63300781249998
 30
0.0
 10
-33.197629123263887
 20
-118.34281955295138
 30
0.0
 10
-33.030197482638883
 20
-117.87118598090277
 30
0.0
 10
-32.888431803385416
 20
-117.46432020399304
 30
0.0
 10
-33.050006781684026
 20
-107.6836941189236
 30
0.0
 10
-33.818263075086804
 20
-107.70436469184027
 30
0.0
 10
-34.630616590711803
 20
-107.72779134114582
 30
0.0
 10
-34.589792209201384
 20
-117.22247450086805
 30
0.0
 10
-34.837322319878467
 20
-117.87118598090277
 30
0.0
  0
SPLINE
  5
299
100
AcDbEntity
  8
LIVELLO_1
 62
     7
100
AcDbSpline
210
0.0
220
0.0
230
1.0
 70
     8
 71
     3
 72
    17
 73
    13
 74
     0
 42
0.00000001
 43
0.00000001
 40
0.0
 40
0.0
 40
0.0
 40
0.0
 40
1.0
 40
1.0
 40
1.0
 40
2.0
 40
2.0
 40
2.0
 40
3.0
 40
3.0
 40
3.0
 40
4.0
 40
4.0
 40
4.0
 40
4.0
 10
-32.133094618055551
 20
-117.87118598090277
 30
0.0
 10
-32.312067328559024
 20
-118.33799641927082
 30
0.0
 10
-32.464168294270827
 20
-119.63300781249998
 30
0.0
 10
-31.564653862847219
 20
-119.63300781249998
 30
0.0
 10
-30.638612196180553
 20
-119.63300781249998
 30
0.0
 10
-30.495468478732636
 20
-118.34281955295138
 30
0.0
 10
-30.329414876302081
 20
-117.87118598090277
 30
0.0
 10
-30.186443413628471
 20
-117.46432020399304
 30
0.0
 10
-30.329414876302081
 20
-107.70436469184027
 30
0.0
 10
-31.231168619791664
 20
-107.70436469184027
 30
0.0
 10
-32.133094618055551
 20
-107.70436469184027
 30
0.0
 10
-31.887803819444443
 20
-117.22247450086805
 30
0.0
 10
-32.133094618055551
 20
-117.87118598090277
 30
0.0
  0
SPLINE
  5
298
100
AcDbEntity
  8
LIVELLO_1
 62
     7
100
AcDbSpline
210
0.0
220
0.0
230
1.0
 70
     8
 71
     3
 72
    17
 73
    13
 74
     0
 42
0.00000001
 43
0.00000001
 40
0.0
 40
0.0
 40
0.0
 40
0.0
 40
1.0
 40
1.0
 40
1.0
 40
2.0
 40
2.0
 40
2.0
 40
3.0
 40
3.0
 40
3.0
 40
4.0
 40
4.0
 40
4.0
 40
4.0
 10
-29.434551323784721
 20
-117.87118598090277
 30
0.0
 10
-29.612318250868054
 20
-118.33799641927082
 30
0.0
 10
-29.627304416232636
 20
-119.63300781249998
 30
0.0
 10
-28.727962239583331
 20
-119.63300781249998
 30
0.0
 10
-27.801748318142359
 20
-119.63300781249998
 30
0.0
 10
-27.792274305555551
 20
-118.34281955295138
 30
0.0
 10
-27.627426486545136
 20
-117.87118598090277
 30
0.0
 10
-27.485660807291666
 20
-117.46432020399304
 30
0.0
 10
-27.627426486545136
 20
-107.70436469184027
 30
0.0
 10
-28.532797580295135
 20
-107.70436469184027
 30
0.0
 10
-29.434551323784721
 20
-107.70436469184027
 30
0.0
 10
-29.186848958333332
 20
-117.22247450086805
 30
0.0
 10
-29.434551323784721
 20
-117.87118598090277
 30
0.0
  0
SPLINE
  5
297
100
AcDbEntity
  8
LIVELLO_1
 62
     7
100
AcDbSpline
210
0.0
220
0.0
230
1.0
 70
     8
 71
     3
 72
    17
 73
    13
 74
     0
 42
0.00000001
 43
0.00000001
 40
0.0
 40
0.0
 40
0.0
 40
0.0
 40
1.0
 40
1.0
 40
1.0
 40
2.0
 40
2.0
 40
2.0
 40
3.0
 40
3.0
 40
3.0
 40
4.0
 40
4.0
 40
4.0
 40
4.0
 10
-26.718438042534721
 20
-117.87118598090277
 30
0.0
 10
-26.89517144097222
 20
-118.33799641927082
 30
0.0
 10
-26.713787163628471
 20
-119.63300781249998
 30
0.0
 10
-25.814444986979165
 20
-119.63300781249998
 30
0.0
 10
-24.888231065538193
 20
-119.63300781249998
 30
0.0
 10
-25.076505533854164
 20
-118.34281955295138
 30
0.0
 10
-24.910279676649303
 20
-117.87118598090277
 30
0.0
 10
-24.769547526041663
 20
-117.46432020399304
 30
0.0
 10
-24.910279676649303
 20
-107.70436469184027
 30
0.0
 10
-25.814444986979165
 20
-107.70436469184027
 30
0.0
 10
-26.718438042534721
 20
-107.70436469184027
 30
0.0
 10
-26.46884087456597
 20
-117.22247450086805
 30
0.0
 10
-26.718438042534721
 20
-117.87118598090277
 30
0.0
  0
SPLINE
  5
296
100
AcDbEntity
  8
LIVELLO_1
 62
     7
100
AcDbSpline
210
0.0
220
0.0
230
1.0
 70
     8
 71
     3
 72
    17
 73
    13
 74
     0
 42
0.00000001
 43
0.00000001
 40
0.0
 40
0.0
 40
0.0
 40
0.0
 40
1.0
 40
1.0
 40
1.0
 40
2.0
 40
2.0
 40
2.0
 40
3.0
 40
3.0
 40
3.0
 40
4.0
 40
4.0
 40
4.0
 40
4.0
 10
1.9831692165798609
 20
-117.66895887586804
 30
0.0
 10
2.1585245768229164
 20
-118.13370225694443
 30
0.0
 10
3.8390421549479163
 20
-119.63300781249998
 30
0.0
 10
2.9395277235243054
 20
-119.63300781249998
 30
0.0
 10
2.0133138020833332
 20
-119.63300781249998
 30
0.0
 10
1.4114556206597222
 20
-118.34281955295138
 30
0.0
 10
1.2474690755208333
 20
-117.87118598090277
 30
0.0
 10
1.1044976128472221
 20
-117.46432020399304
 30
0.0
 10
1.0092407226562499
 20
-107.70436469184027
 30
0.0
 10
1.333596462673611
 20
-107.70436469184027
 30
0.0
 10
1.8179768880208331
 20
-107.70436469184027
 30
0.0
 10
1.7332275390624998
 20
-117.02059190538193
 30
0.0
 10
1.9831692165798609
 20
-117.66895887586804
 30
0.0
  0
SPLINE
  5
295
100
AcDbEntity
  8
LIVELLO_1
 62
     7
100
AcDbSpline
210
0.0
220
0.0
230
1.0
 70
     8
 71
     3
 72
    17
 73
    13
 74
     0
 42
0.00000001
 43
0.00000001
 40
0.0
 40
0.0
 40
0.0
 40
0.0
 40
1.0
 40
1.0
 40
1.0
 40
2.0
 40
2.0
 40
2.0
 40
3.0
 40
3.0
 40
3.0
 40
4.0
 40
4.0
 40
4.0
 40
4.0
 10
0.8070136176215277
 20
-117.87118598090277
 30
0.0
 10
0.9837470160590277
 20
-118.33799641927082
 30
0.0
 10
2.3712592230902776
 20
-119.63300781249998
 30
0.0
 10
1.4682996961805554
 20
-119.63300781249998
 30
0.0
 10
0.5455308702256944
 20
-119.63300781249998
 30
0.0
 10
0.0330729166666667
 20
-118.34281955295138
 30
0.0
 10
-0.1309136284722222
 20
-117.87118598090277
 30
0.0
 10
-0.2762966579861111
 20
-117.46432020399304
 30
0.0
 10
-0.3715535481770833
 20
-107.70436469184027
 30
0.0
 10
0.0330729166666667
 20
-107.70436469184027
 30
0.0
 10
0.4456231011284722
 20
-107.70436469184027
 30
0.0
 10
0.5594835069444444
 20
-117.22247450086805
 30
0.0
 10
0.8070136176215277
 20
-117.87118598090277
 30
0.0
  0
SPLINE
  5
294
100
AcDbEntity
  8
LIVELLO_1
 62
     7
100
AcDbSpline
210
0.0
220
0.0
230
1.0
 70
     8
 71
     3
 72
    17
 73
    13
 74
     0
 42
0.00000001
 43
0.00000001
 40
0.0
 40
0.0
 40
0.0
 40
0.0
 40
1.0
 40
1.0
 40
1.0
 40
2.0
 40
2.0
 40
2.0
 40
3.0
 40
3.0
 40
3.0
 40
4.0
 40
4.0
 40
4.0
 40
4.0
 10
-0.735183376736111
 20
-117.87118598090277
 30
0.0
 10
-0.5574164496527777
 20
-118.33799641927082
 30
0.0
 10
0.5861829969618055
 20
-119.63300781249998
 30
0.0
 10
-0.3145372178819444
 20
-119.63300781249998
 30
0.0
 10
-1.2395453559027776
 20
-119.63300781249998
 30
0.0
 10
-1.7497639973958332
 20
-118.34281955295138
 30
0.0
 10
-1.9159898546006944
 20
-117.87118598090277
 30
0.0
 10
-2.0589613172743055
 20
-117.46432020399304
 30
0.0
 10
-2.2205362955729164
 20
-107.70436469184027
 30
0.0
 10
-1.6114434136284721
 20
-107.70436469184027
 30
0.0
 10
-1.0593668619791665
 20
-107.70436469184027
 30
0.0
 10
-0.9804741753472221
 20
-117.22247450086805
 30
0.0
 10
-0.735183376736111
 20
-117.87118598090277
 30
0.0
  0
SPLINE
  5
293
100
AcDbEntity
  8
LIVELLO_1
 62
     7
100
AcDbSpline
210
0.0
220
0.0
230
1.0
 70
     8
 71
     3
 72
    17
 73
    13
 74
     0
 42
0.00000001
 43
0.00000001
 40
0.0
 40
0.0
 40
0.0
 40
0.0
 40
1.0
 40
1.0
 40
1.0
 40
2.0
 40
2.0
 40
2.0
 40
3.0
 40
3.0
 40
3.0
 40
4.0
 40
4.0
 40
4.0
 40
4.0
 10
-2.584166124131944
 20
-117.87118598090277
 30
0.0
 10
-2.4088107638888885
 20
-118.33799641927082
 30
0.0
 10
-1.2779581705729166
 20
-119.63300781249998
 30
0.0
 10
-2.1774726019965276
 20
-119.63300781249998
 30
0.0
 10
-3.1036865234374997
 20
-119.63300781249998
 30
0.0
 10
-3.6126993815104163
 20
-118.34281955295138
 30
0.0
 10
-3.7799587673611108
 20
-117.87118598090277
 30
0.0
 10
-3.9218967013888886
 20
-117.46432020399304
 30
0.0
 10
-3.800801595052083
 20
-107.6836941189236
 30
0.0
 10
-3.3556952582465276
 20
-107.6836941189236
 30
0.0
 10
-2.7493584526909718
 20
-107.6836941189236
 30
0.0
 10
-2.8316962348090273
 20
-117.22247450086805
 30
0.0
 10
-2.584166124131944
 20
-117.87118598090277
 30
0.0
  0
SPLINE
  5
292
100
AcDbEntity
  8
LIVELLO_1
 62
     7
100
AcDbSpline
210
0.0
220
0.0
230
1.0
 70
     8
 71
     3
 72
    17
 73
    13
 74
     0
 42
0.00000001
 43
0.00000001
 40
0.0
 40
0.0
 40
0.0
 40
0.0
 40
1.0
 40
1.0
 40
1.0
 40
2.0
 40
2.0
 40
2.0
 40
3.0
 40
3.0
 40
3.0
 40
4.0
 40
4.0
 40
4.0
 40
4.0
 10
-4.6527737087673611
 20
-117.87118598090277
 30
0.0
 10
-4.4750067816840273
 20
-118.33799641927082
 30
0.0
 10
-3.3488050672743053
 20
-119.63300781249998
 30
0.0
 10
-4.2483194986979163
 20
-119.63300781249998
 30
0.0
 10
-5.1722941080729159
 20
-119.63300781249998
 30
0.0
 10
-5.8287570529513886
 20
-118.34281955295138
 30
0.0
 10
-5.9949829101562493
 20
-117.87118598090277
 30
0.0
 10
-6.1381266276041657
 20
-117.46432020399304
 30
0.0
 10
-6.0170315212673602
 20
-107.6836941189236
 30
0.0
 10
-5.4616821289062498
 20
-107.70436469184027
 30
0.0
 10
-4.814348687065972
 20
-107.72985839843749
 30
0.0
 10
-4.9003038194444439
 20
-117.22247450086805
 30
0.0
 10
-4.6527737087673611
 20
-117.87118598090277
 30
0.0
  0
SPLINE
  5
291
100
AcDbEntity
  8
LIVELLO_1
 62
     7
100
AcDbSpline
210
0.0
220
0.0
230
1.0
 70
     8
 71
     3
 72
    17
 73
    13
 74
     0
 42
0.00000001
 43
0.00000001
 40
0.0
 40
0.0
 40
0.0
 40
0.0
 40
1.0
 40
1.0
 40
1.0
 40
2.0
 40
2.0
 40
2.0
 40
3.0
 40
3.0
 40
3.0
 40
4.0
 40
4.0
 40
4.0
 40
4.0
 10
-6.7074286566840273
 20
-117.87118598090277
 30
0.0
 10
-6.5284559461805554
 20
-118.33799641927082
 30
0.0
 10
-5.6837185329861102
 20
-119.63300781249998
 30
0.0
 10
-6.5832329644097216
 20
-119.63300781249998
 30
0.0
 10
-7.509274631076388
 20
-119.63300781249998
 30
0.0
 10
-8.0591118706597218
 20
-118.34281955295138
 30
0.0
 10
-8.2229261610243043
 20
-117.87118598090277
 30
0.0
 10
-8.3681369357638875
 20
-117.46432020399304
 30
0.0
 10
-8.2451470269097218
 20
-107.70436469184027
 30
0.0
 10
-7.5964355468749991
 20
-107.70436469184027
 30
0.0
 10
-6.8261121961805546
 20
-107.70436469184027
 30
0.0
 10
-6.9515136718749995
 20
-117.22247450086805
 30
0.0
 10
-6.7074286566840273
 20
-117.87118598090277
 30
0.0
  0
SPLINE
  5
290
100
AcDbEntity
  8
LIVELLO_1
 62
     7
100
AcDbSpline
210
0.0
220
0.0
230
1.0
 70
     8
 71
     3
 72
    17
 73
    13
 74
     0
 42
0.00000001
 43
0.00000001
 40
0.0
 40
0.0
 40
0.0
 40
0.0
 40
1.0
 40
1.0
 40
1.0
 40
2.0
 40
2.0
 40
2.0
 40
3.0
 40
3.0
 40
3.0
 40
4.0
 40
4.0
 40
4.0
 40
4.0
 10
-8.9341661241319432
 20
-117.87118598090277
 30
0.0
 10
-8.7562269422743046
 20
-118.33799641927082
 30
0.0
 10
-8.2229261610243043
 20
-119.63300781249998
 30
0.0
 10
-9.1202012803819432
 20
-119.63300781249998
 30
0.0
 10
-10.048654513888888
 20
-119.63300781249998
 30
0.0
 10
-10.434505208333333
 20
-118.34281955295138
 30
0.0
 10
-10.600558810763888
 20
-117.87118598090277
 30
0.0
 10
-10.743702528211804
 20
-117.46432020399304
 30
0.0
 10
-10.702878146701387
 20
-107.6836941189236
 30
0.0
 10
-9.9325547960069436
 20
-107.70436469184027
 30
0.0
 10
-9.0991861979166657
 20
-107.72779134114582
 30
0.0
 10
-9.1816962348090261
 20
-117.22247450086805
 30
0.0
 10
-8.9341661241319432
 20
-117.87118598090277
 30
0.0
  0
SPLINE
  5
28F
100
AcDbEntity
  8
LIVELLO_1
 62
     7
100
AcDbSpline
210
0.0
220
0.0
230
1.0
 70
     8
 71
     3
 72
    17
 73
    13
 74
     0
 42
0.00000001
 43
0.00000001
 40
0.0
 40
0.0
 40
0.0
 40
0.0
 40
1.0
 40
1.0
 40
1.0
 40
2.0
 40
2.0
 40
2.0
 40
3.0
 40
3.0
 40
3.0
 40
4.0
 40
4.0
 40
4.0
 40
4.0
 10
-11.390863715277776
 20
-117.87118598090277
 30
0.0
 10
-11.209651692708333
 20
-118.33799641927082
 30
0.0
 10
-10.816910807291666
 20
-119.63300781249998
 30
0.0
 10
-11.71745876736111
 20
-119.63300781249998
 30
0.0
 10
-12.642466905381943
 20
-119.63300781249998
 30
0.0
 10
-13.030729166666665
 20
-118.34281955295138
 30
0.0
 10
-13.194715711805554
 20
-117.87118598090277
 30
0.0
 10
-13.339926486545137
 20
-117.46432020399304
 30
0.0
 10
-13.175939941406249
 20
-107.6836941189236
 30
0.0
 10
-12.407855902777778
 20
-107.70436469184027
 30
0.0
 10
-11.595330132378471
 20
-107.72779134114582
 30
0.0
 10
-11.636154513888888
 20
-117.22247450086805
 30
0.0
 10
-11.390863715277776
 20
-117.87118598090277
 30
0.0
  0
SPLINE
  5
28E
100
AcDbEntity
  8
LIVELLO_1
 62
     7
100
AcDbSpline
210
0.0
220
0.0
230
1.0
 70
     8
 71
     3
 72
    17
 73
    13
 74
     0
 42
0.00000001
 43
0.00000001
 40
0.0
 40
0.0
 40
0.0
 40
0.0
 40
1.0
 40
1.0
 40
1.0
 40
2.0
 40
2.0
 40
2.0
 40
3.0
 40
3.0
 40
3.0
 40
4.0
 40
4.0
 40
4.0
 40
4.0
 10
-14.089579264322916
 20
-117.87118598090277
 30
0.0
 10
-13.914051649305554
 20
-118.33799641927082
 30
0.0
 10
-13.764017740885416
 20
-119.63300781249998
 30
0.0
 10
-14.663532172309026
 20
-119.63300781249998
 30
0.0
 10
-15.587506781684027
 20
-119.63300781249998
 30
0.0
 10
-15.73271755642361
 20
-118.34281955295138
 30
0.0
 10
-15.896531846788193
 20
-117.87118598090277
 30
0.0
 10
-16.041914876302084
 20
-117.46432020399304
 30
0.0
 10
-15.896531846788193
 20
-107.70436469184027
 30
0.0
 10
-14.994778103298609
 20
-107.70436469184027
 30
0.0
 10
-14.089579264322916
 20
-107.70436469184027
 30
0.0
 10
-14.336937120225693
 20
-117.22247450086805
 30
0.0
 10
-14.089579264322916
 20
-117.87118598090277
 30
0.0
  0
SPLINE
  5
28D
100
AcDbEntity
  8
LIVELLO_1
 62
     7
100
AcDbSpline
210
0.0
220
0.0
230
1.0
 70
     8
 71
     3
 72
    17
 73
    13
 74
     0
 42
0.00000001
 43
0.00000001
 40
0.0
 40
0.0
 40
0.0
 40
0.0
 40
1.0
 40
1.0
 40
1.0
 40
2.0
 40
2.0
 40
2.0
 40
3.0
 40
3.0
 40
3.0
 40
4.0
 40
4.0
 40
4.0
 40
4.0
 10
-16.791395399305554
 20
-117.87118598090277
 30
0.0
 10
-16.614834255642361
 20
-118.33799641927082
 30
0.0
 10
-16.600881618923609
 20
-119.63300781249998
 30
0.0
 10
-17.50039605034722
 20
-119.63300781249998
 30
0.0
 10
-18.424370659722221
 20
-119.63300781249998
 30
0.0
 10
-18.431260850694443
 20
-118.34281955295138
 30
0.0
 10
-18.59989827473958
 20
-117.87118598090277
 30
0.0
 10
-18.740285915798609
 20
-117.46432020399304
 30
0.0
 10
-18.59989827473958
 20
-107.70436469184027
 30
0.0
 10
-17.695560709635416
 20
-107.70436469184027
 30
0.0
 10
-16.791395399305554
 20
-107.70436469184027
 30
0.0
 10
-17.041337076822916
 20
-117.22247450086805
 30
0.0
 10
-16.791395399305554
 20
-117.87118598090277
 30
0.0
  0
SPLINE
  5
28C
100
AcDbEntity
  8
LIVELLO_1
 62
     7
100
AcDbSpline
210
0.0
220
0.0
230
1.0
 70
     8
 71
     3
 72
    17
 73
    13
 74
     0
 42
0.00000001
 43
0.00000001
 40
0.0
 40
0.0
 40
0.0
 40
0.0
 40
1.0
 40
1.0
 40
1.0
 40
2.0
 40
2.0
 40
2.0
 40
3.0
 40
3.0
 40
3.0
 40
4.0
 40
4.0
 40
4.0
 40
4.0
 10
-19.509747992621527
 20
-117.87118598090277
 30
0.0
 10
-19.32853597005208
 20
-118.33799641927082
 30
0.0
 10
-19.512159559461804
 20
-119.63300781249998
 30
0.0
 10
-20.411501736111109
 20
-119.63300781249998
 30
0.0
 10
-21.335648600260416
 20
-119.63300781249998
 30
0.0
 10
-21.149441189236111
 20
-118.34281955295138
 30
0.0
 10
-21.313255479600691
 20
-117.87118598090277
 30
0.0
 10
-21.458638509114582
 20
-117.46432020399304
 30
0.0
 10
-21.313255479600691
 20
-107.70436469184027
 30
0.0
 10
-20.411501736111109
 20
-107.70436469184027
 30
0.0
 10
-19.509747992621527
 20
-107.70436469184027
 30
0.0
 10
-19.755038791232636
 20
-117.22247450086805
 30
0.0
 10
-19.509747992621527
 20
-117.87118598090277
 30
0.0
  0
SPLINE
  5
28B
100
AcDbEntity
  8
LIVELLO_1
 62
     7
100
AcDbSpline
210
0.0
220
0.0
230
1.0
 70
     8
 71
     3
 72
    17
 73
    13
 74
     0
 42
0.00000001
 43
0.00000001
 40
0.0
 40
0.0
 40
0.0
 40
0.0
 40
1.0
 40
1.0
 40
1.0
 40
2.0
 40
2.0
 40
2.0
 40
3.0
 40
3.0
 40
3.0
 40
4.0
 40
4.0
 40
4.0
 40
4.0
 10
-22.208119032118052
 20
-117.87118598090277
 30
0.0
 10
-22.208119032118052
 20
-118.37106933593749
 30
0.0
 10
-22.212769911024303
 20
-119.63300781249998
 30
0.0
 10
-23.11245659722222
 20
-119.63300781249998
 30
0.0
 10
-24.038670518663192
 20
-119.63300781249998
 30
0.0
 10
-24.015416124131942
 20
-118.37106933593749
 30
0.0
 10
-24.015416124131942
 20
-117.87118598090277
 30
0.0
 10
-24.015416124131942
 20
-117.37130262586804
 30
0.0
 10
-24.015416124131942
 20
-107.70436469184027
 30
0.0
 10
-23.11245659722222
 20
-107.70436469184027
 30
0.0
 10
-22.208119032118052
 20
-107.70436469184027
 30
0.0
 10
-22.208119032118052
 20
-117.37130262586804
 30
0.0
 10
-22.208119032118052
 20
-117.87118598090277
 30
0.0
  0
SPLINE
  5
28A
100
AcDbEntity
  8
LIVELLO_1
 62
     7
100
AcDbSpline
210
0.0
220
0.0
230
1.0
 70
     8
 71
     3
 72
    29
 73
    25
 74
     0
 42
0.00000001
 43
0.00000001
 40
0.0
 40
0.0
 40
0.0
 40
0.0
 40
1.0
 40
1.0
 40
1.0
 40
2.0
 40
2.0
 40
2.0
 40
3.0
 40
3.0
 40
3.0
 40
4.0
 40
4.0
 40
4.0
 40
5.0
 40
5.0
 40
5.0
 40
6.0
 40
6.0
 40
6.0
 40
7.0
 40
7.0
 40
7.0
 40
8.0
 40
8.0
 40
8.0
 40
8.0
 10
9.45558132595486
 20
-48.06735026041666
 30
0.0
 10
9.45558132595486
 20
-48.06735026041666
 30
0.0
 10
9.5463595920138875
 20
-48.06735026041666
 30
0.0
 10
9.5463595920138875
 20
-48.06735026041666
 30
0.0
 10
9.7868272569444432
 20
-48.06735026041666
 30
0.0
 10
9.9797526041666664
 20
-47.876836480034719
 30
0.0
 10
9.9797526041666664
 20
-47.635335286458329
 30
0.0
 10
9.9797526041666664
 20
-47.635335286458329
 30
0.0
 10
9.9797526041666664
 20
-40.539472113715277
 30
0.0
 10
9.9797526041666664
 20
-40.539472113715277
 30
0.0
 10
9.9797526041666664
 20
-40.297626410590276
 30
0.0
 10
9.7868272569444432
 20
-40.102289496527774
 30
0.0
 10
9.5463595920138875
 20
-40.102289496527774
 30
0.0
 10
9.5463595920138875
 20
-40.102289496527774
 30
0.0
 10
9.45558132595486
 20
-40.102289496527774
 30
0.0
 10
9.45558132595486
 20
-40.102289496527774
 30
0.0
 10
9.2187310112847207
 20
-40.102289496527774
 30
0.0
 10
9.0235663519965268
 20
-40.297626410590276
 30
0.0
 10
9.0235663519965268
 20
-40.539472113715277
 30
0.0
 10
9.0235663519965268
 20
-40.539472113715277
 30
0.0
 10
9.0235663519965268
 20
-47.635335286458329
 30
0.0
 10
9.0235663519965268
 20
-47.635335286458329
 30
0.0
 10
9.0235663519965268
 20
-47.876836480034719
 30
0.0
 10
9.2187310112847207
 20
-48.06735026041666
 30
0.0
 10
9.45558132595486
 20
-48.06735026041666
 30
0.0
  0
SPLINE
  5
289
100
AcDbEntity
  8
LIVELLO_1
 62
     7
100
AcDbSpline
210
0.0
220
0.0
230
1.0
 70
     8
 71
     3
 72
    29
 73
    25
 74
     0
 42
0.00000001
 43
0.00000001
 40
0.0
 40
0.0
 40
0.0
 40
0.0
 40
1.0
 40
1.0
 40
1.0
 40
2.0
 40
2.0
 40
2.0
 40
3.0
 40
3.0
 40
3.0
 40
4.0
 40
4.0
 40
4.0
 40
5.0
 40
5.0
 40
5.0
 40
6.0
 40
6.0
 40
6.0
 40
7.0
 40
7.0
 40
7.0
 40
8.0
 40
8.0
 40
8.0
 40
8.0
 10
7.9471462673611102
 20
-48.06735026041666
 30
0.0
 10
7.9471462673611102
 20
-48.06735026041666
 30
0.0
 10
8.0878784179687493
 20
-48.06735026041666
 30
0.0
 10
8.0878784179687493
 20
-48.06735026041666
 30
0.0
 10
8.3285183376736107
 20
-48.06735026041666
 30
0.0
 10
8.5214436848958321
 20
-47.876836480034719
 30
0.0
 10
8.5214436848958321
 20
-47.635335286458329
 30
0.0
 10
8.5214436848958321
 20
-47.635335286458329
 30
0.0
 10
8.5214436848958321
 20
-40.539472113715277
 30
0.0
 10
8.5214436848958321
 20
-40.539472113715277
 30
0.0
 10
8.5214436848958321
 20
-40.297626410590276
 30
0.0
 10
8.3285183376736107
 20
-40.102289496527774
 30
0.0
 10
8.0878784179687493
 20
-40.102289496527774
 30
0.0
 10
8.0878784179687493
 20
-40.102289496527774
 30
0.0
 10
7.9471462673611102
 20
-40.102289496527774
 30
0.0
 10
7.9471462673611102
 20
-40.102289496527774
 30
0.0
 10
7.7066786024305545
 20
-40.102289496527774
 30
0.0
 10
7.5113416883680548
 20
-40.297626410590276
 30
0.0
 10
7.5113416883680548
 20
-40.539472113715277
 30
0.0
 10
7.5113416883680548
 20
-40.539472113715277
 30
0.0
 10
7.5113416883680548
 20
-47.635335286458329
 30
0.0
 10
7.5113416883680548
 20
-47.635335286458329
 30
0.0
 10
7.5113416883680548
 20
-47.876836480034719
 30
0.0
 10
7.7066786024305545
 20
-48.06735026041666
 30
0.0
 10
7.9471462673611102
 20
-48.06735026041666
 30
0.0
  0
SPLINE
  5
288
100
AcDbEntity
  8
LIVELLO_1
 62
     7
100
AcDbSpline
210
0.0
220
0.0
230
1.0
 70
     8
 71
     3
 72
    29
 73
    25
 74
     0
 42
0.00000001
 43
0.00000001
 40
0.0
 40
0.0
 40
0.0
 40
0.0
 40
1.0
 40
1.0
 40
1.0
 40
2.0
 40
2.0
 40
2.0
 40
3.0
 40
3.0
 40
3.0
 40
4.0
 40
4.0
 40
4.0
 40
5.0
 40
5.0
 40
5.0
 40
6.0
 40
6.0
 40
6.0
 40
7.0
 40
7.0
 40
7.0
 40
8.0
 40
8.0
 40
8.0
 40
8.0
 10
6.2330390082465268
 20
-48.06735026041666
 30
0.0
 10
6.2330390082465268
 20
-48.06735026041666
 30
0.0
 10
6.4502522786458325
 20
-48.06735026041666
 30
0.0
 10
6.4502522786458325
 20
-48.06735026041666
 30
0.0
 10
6.6886528862847214
 20
-48.06735026041666
 30
0.0
 10
6.8803724500868046
 20
-47.876836480034719
 30
0.0
 10
6.8803724500868046
 20
-47.635335286458329
 30
0.0
 10
6.8803724500868046
 20
-47.635335286458329
 30
0.0
 10
6.8803724500868046
 20
-40.55084092881944
 30
0.0
 10
6.8803724500868046
 20
-40.55084092881944
 30
0.0
 10
6.8803724500868046
 20
-40.31175130208333
 30
0.0
 10
6.6886528862847214
 20
-40.118825954861109
 30
0.0
 10
6.4502522786458325
 20
-40.118825954861109
 30
0.0
 10
6.4502522786458325
 20
-40.118825954861109
 30
0.0
 10
6.2330390082465268
 20
-40.118825954861109
 30
0.0
 10
6.2330390082465268
 20
-40.118825954861109
 30
0.0
 10
5.9936048719618054
 20
-40.118825954861109
 30
0.0
 10
5.7984402126736105
 20
-40.31175130208333
 30
0.0
 10
5.7984402126736105
 20
-40.55084092881944
 30
0.0
 10
5.7984402126736105
 20
-40.55084092881944
 30
0.0
 10
5.7984402126736105
 20
-47.635335286458329
 30
0.0
 10
5.7984402126736105
 20
-47.635335286458329
 30
0.0
 10
5.7984402126736105
 20
-47.876836480034719
 30
0.0
 10
5.9936048719618054
 20
-48.06735026041666
 30
0.0
 10
6.2330390082465268
 20
-48.06735026041666
 30
0.0
  0
SPLINE
  5
287
100
AcDbEntity
  8
LIVELLO_1
 62
     7
100
AcDbSpline
210
0.0
220
0.0
230
1.0
 70
     8
 71
     3
 72
    62
 73
    58
 74
     0
 42
0.00000001
 43
0.00000001
 40
0.0
 40
0.0
 40
0.0
 40
0.0
 40
1.0
 40
1.0
 40
1.0
 40
2.0
 40
2.0
 40
2.0
 40
3.0
 40
3.0
 40
3.0
 40
4.0
 40
4.0
 40
4.0
 40
5.0
 40
5.0
 40
5.0
 40
6.0
 40
6.0
 40
6.0
 40
7.0
 40
7.0
 40
7.0
 40
8.0
 40
8.0
 40
8.0
 40
9.0
 40
9.0
 40
9.0
 40
10.0
 40
10.0
 40
10.0
 40
11.0
 40
11.0
 40
11.0
 40
12.0
 40
12.0
 40
12.0
 40
13.0
 40
13.0
 40
13.0
 40
14.0
 40
14.0
 40
14.0
 40
15.0
 40
15.0
 40
15.0
 40
16.0
 40
16.0
 40
16.0
 40
17.0
 40
17.0
 40
17.0
 40
18.0
 40
18.0
 40
18.0
 40
19.0
 40
19.0
 40
19.0
 40
19.0
 10
-48.411170789930551
 20
-107.34435221354165
 30
0.0
 10
-50.941248914930554
 20
-107.34435221354165
 30
0.0
 10
-52.385777452256939
 20
-107.34435221354165
 30
0.0
 10
-52.385777452256939
 20
-105.89844563802082
 30
0.0
 10
-52.385777452256939
 20
-105.89844563802082
 30
0.0
 10
-52.385777452256939
 20
-89.63311631944444
 30
0.0
 10
-52.385777452256939
 20
-89.63311631944444
 30
0.0
 10
-52.385777452256939
 20
-81.681491427951386
 30
0.0
 10
-48.77273356119791
 20
-70.83874240451388
 30
0.0
 10
-41.5418226453993
 20
-63.61024305555555
 30
0.0
 10
-34.315562608506944
 20
-56.381399197048609
 30
0.0
 10
-24.195594618055555
 20
-52.044712999131939
 30
0.0
 10
-18.41748046875
 20
-50.598806423611109
 30
0.0
 10
-12.633337402343749
 20
-49.153244357638883
 30
0.0
 10
-1.0688408745659721
 20
-41.926812065972221
 30
0.0
 10
-0.3446818033854167
 20
-39.75605740017361
 30
0.0
 10
-0.3446818033854167
 20
-39.75605740017361
 30
0.0
 10
11.219814724392361
 20
-39.75605740017361
 30
0.0
 10
11.219814724392361
 20
-39.75605740017361
 30
0.0
 10
11.219814724392361
 20
-39.75605740017361
 30
0.0
 10
11.941389973958332
 20
-45.53865017361111
 30
0.0
 10
11.941389973958332
 20
-54.935837131076383
 30
0.0
 10
11.941389973958332
 20
-64.330612521701383
 30
0.0
 10
8.3307576497395832
 20
-70.836675347222211
 30
0.0
 10
8.3285183376736107
 20
-105.53602159288194
 30
0.0
 10
8.3285183376736107
 20
-106.98158365885416
 30
0.0
 10
6.5212212456597216
 20
-107.34435221354165
 30
0.0
 10
2.1852240668402776
 20
-107.34435221354165
 30
0.0
 10
2.1852240668402776
 20
-107.34435221354165
 30
0.0
 10
2.1852240668402776
 20
-97.584396701388883
 30
0.0
 10
2.1852240668402776
 20
-97.584396701388883
 30
0.0
 10
2.1852240668402776
 20
-97.584396701388883
 30
0.0
 10
2.5466145833333331
 20
-97.584396701388883
 30
0.0
 10
2.5466145833333331
 20
-97.584396701388883
 30
0.0
 10
2.5466145833333331
 20
-97.584396701388883
 30
0.0
 10
2.5466145833333331
 20
-86.018866644965271
 30
0.0
 10
2.5466145833333331
 20
-86.018866644965271
 30
0.0
 10
2.5466145833333331
 20
-70.83874240451388
 30
0.0
 10
-0.7072781032986111
 20
-57.82765028211805
 30
0.0
 10
-0.7072781032986111
 20
-53.852699110243051
 30
0.0
 10
-0.7072781032986111
 20
-53.852699110243051
 30
0.0
 10
-0.7072781032986111
 20
-49.516012912326381
 30
0.0
 10
-0.7072781032986111
 20
-49.516012912326381
 30
0.0
 10
-0.7072781032986111
 20
-47.346980794270827
 30
0.0
 10
-3.9577256944444441
 20
-47.707337782118053
 30
0.0
 10
-4.6817125108506943
 20
-48.430118815104166
 30
0.0
 10
-5.4048380533854159
 20
-49.153244357638883
 30
0.0
 10
-9.0177096896701379
 20
-53.132329644097219
 30
0.0
 10
-19.135610622829859
 20
-58.190074327256937
 30
0.0
 10
-29.255578613281248
 20
-63.252297634548604
 30
0.0
 10
-48.77273356119791
 20
-67.224837239583323
 30
0.0
 10
-48.77273356119791
 20
-97.584396701388883
 30
0.0
 10
-48.77273356119791
 20
-97.584396701388883
 30
0.0
 10
-48.411170789930551
 20
-97.584396701388883
 30
0.0
 10
-48.411170789930551
 20
-97.584396701388883
 30
0.0
 10
-48.411170789930551
 20
-97.584396701388883
 30
0.0
 10
-48.411170789930551
 20
-107.34435221354165
 30
0.0
 10
-48.411170789930551
 20
-107.34435221354165
 30
0.0
  0
SPLINE
  5
286
100
AcDbEntity
  8
LIVELLO_1
 62
     7
100
AcDbSpline
210
0.0
220
0.0
230
1.0
 70
     8
 71
     3
 72
    41
 73
    37
 74
     0
 42
0.00000001
 43
0.00000001
 40
0.0
 40
0.0
 40
0.0
 40
0.0
 40
1.0
 40
1.0
 40
1.0
 40
2.0
 40
2.0
 40
2.0
 40
3.0
 40
3.0
 40
3.0
 40
4.0
 40
4.0
 40
4.0
 40
5.0
 40
5.0
 40
5.0
 40
6.0
 40
6.0
 40
6.0
 40
7.0
 40
7.0
 40
7.0
 40
8.0
 40
8.0
 40
8.0
 40
9.0
 40
9.0
 40
9.0
 40
10.0
 40
10.0
 40
10.0
 40
11.0
 40
11.0
 40
11.0
 40
12.0
 40
12.0
 40
12.0
 40
12.0
 10
6.1620700412326386
 20
-119.99336480034721
 30
0.0
 10
6.1620700412326386
 20
-119.99336480034721
 30
0.0
 10
-52.385777452256939
 20
-119.99336480034721
 30
0.0
 10
-52.385777452256939
 20
-119.99336480034721
 30
0.0
 10
-49.493275282118049
 20
-117.82467719184027
 30
0.0
 10
-49.493275282118049
 20
-116.37877061631943
 30
0.0
 10
-49.493275282118049
 20
-109.87339680989582
 30
0.0
 10
-49.493275282118049
 20
-109.87339680989582
 30
0.0
 10
-49.493275282118049
 20
-107.70436469184027
 30
0.0
 10
-49.493275282118049
 20
-107.70436469184027
 30
0.0
 10
-49.493275282118049
 20
-107.70436469184027
 30
0.0
 10
-48.048574490017359
 20
-107.70436469184027
 30
0.0
 10
-48.048574490017359
 20
-107.70436469184027
 30
0.0
 10
-48.048574490017359
 20
-83.085367838541657
 30
0.0
 10
-45.157278103298609
 20
-75.176117621527766
 30
0.0
 10
-27.663427734374999
 20
-63.847610134548603
 30
0.0
 10
-21.35407986111111
 20
-60.149644639756936
 30
0.0
 10
-11.402577039930554
 20
-58.262076822916661
 30
0.0
 10
-6.8712429470486107
 20
-58.245884874131939
 30
0.0
 10
-4.9700670030381939
 20
-58.245884874131939
 30
0.0
 10
-4.4167846679687495
 20
-58.68272298177083
 30
0.0
 10
-3.9415337456597217
 20
-59.98910319010416
 30
0.0
 10
-2.3133816189236107
 20
-64.758493381076377
 30
0.0
 10
0.2120456271701389
 20
-79.773597547743051
 30
0.0
 10
0.7384562174479166
 20
-83.127398003472209
 30
0.0
 10
0.7384562174479166
 20
-83.127398003472209
 30
0.0
 10
1.8226277669270832
 20
-93.970491536458326
 30
0.0
 10
1.8226277669270832
 20
-107.70436469184027
 30
0.0
 10
1.8226277669270832
 20
-107.70436469184027
 30
0.0
 10
3.2706013997395829
 20
-107.70436469184027
 30
0.0
 10
3.2706013997395829
 20
-107.70436469184027
 30
0.0
 10
3.2706013997395829
 20
-107.70436469184027
 30
0.0
 10
3.2706013997395829
 20
-109.87339680989582
 30
0.0
 10
3.2706013997395829
 20
-109.87339680989582
 30
0.0
 10
3.2706013997395829
 20
-116.37877061631943
 30
0.0
 10
3.2706013997395829
 20
-117.82467719184027
 30
0.0
 10
6.1620700412326386
 20
-119.99336480034721
 30
0.0
  0
POLYLINE
  5
280
100
AcDbEntity
  8
LIVELLO_1
 62
     7
100
AcDb2dPolyline
 66
     1
 10
0.0
 20
0.0
 30
0.0
 70
     1
  0
VERTEX
  5
281
100
AcDbEntity
  8
LIVELLO_1
 62
     7
100
AcDbVertex
100
AcDb2dVertex
 10
-53.832718
 20
-122.884489
 30
0.0
  0
VERTEX
  5
282
100
AcDbEntity
  8
LIVELLO_1
 62
     7
100
AcDbVertex
100
AcDb2dVertex
 10
7.604359
 20
-122.884489
 30
0.0
  0
VERTEX
  5
283
100
AcDbEntity
  8
LIVELLO_1
 62
     7
100
AcDbVertex
100
AcDb2dVertex
 10
7.604359
 20
-119.993365
 30
0.0
  0
VERTEX
  5
284
100
AcDbEntity
  8
LIVELLO_1
 62
     7
100
AcDbVertex
100
AcDb2dVertex
 10
-53.832718
 20
-119.993365
 30
0.0
  0
SEQEND
  5
285
100
AcDbEntity
  8
LIVELLO_1
 62
     7
  0
POLYLINE
  5
27A
100
AcDbEntity
  8
LIVELLO_1
 62
     7
100
AcDb2dPolyline
 66
     1
 10
0.0
 20
0.0
 30
0.0
 70
     1
  0
VERTEX
  5
27B
100
AcDbEntity
  8
LIVELLO_1
 62
     7
100
AcDbVertex
100
AcDb2dVertex
 10
-54.553259
 20
-126.499083
 30
0.0
  0
VERTEX
  5
27C
100
AcDbEntity
  8
LIVELLO_1
 62
     7
100
AcDbVertex
100
AcDb2dVertex
 10
8.328518
 20
-126.499083
 30
0.0
  0
VERTEX
  5
27D
100
AcDbEntity
  8
LIVELLO_1
 62
     7
100
AcDbVertex
100
AcDb2dVertex
 10
8.328518
 20
-122.884489
 30
0.0
  0
VERTEX
  5
27E
100
AcDbEntity
  8
LIVELLO_1
 62
     7
100
AcDbVertex
100
AcDb2dVertex
 10
-54.553259
 20
-122.884489
 30
0.0
  0
SEQEND
  5
27F
100
AcDbEntity
  8
LIVELLO_1
 62
     7
  0
POLYLINE
  5
274
100
AcDbEntity
  8
LIVELLO_1
 62
     7
100
AcDb2dPolyline
 66
     1
 10
0.0
 20
0.0
 30
0.0
 70
     1
  0
VERTEX
  5
275
100
AcDbEntity
  8
LIVELLO_1
 62
     7
100
AcDbVertex
100
AcDb2dVertex
 10
3.027894
 20
-32.046278
 30
0.0
  0
VERTEX
  5
276
100
AcDbEntity
  8
LIVELLO_1
 62
     7
100
AcDbVertex
100
AcDb2dVertex
 10
7.844999
 20
-32.046278
 30
0.0
  0
VERTEX
  5
277
100
AcDbEntity
  8
LIVELLO_1
 62
     7
100
AcDbVertex
100
AcDb2dVertex
 10
7.844999
 20
-39.756057
 30
0.0
  0
VERTEX
  5
278
100
AcDbEntity
  8
LIVELLO_1
 62
     7
100
AcDbVertex
100
AcDb2dVertex
 10
3.027894
 20
-39.756057
 30
0.0
  0
SEQEND
  5
279
100
AcDbEntity
  8
LIVELLO_1
 62
     7
  0
LINE
  5
273
100
AcDbEntity
  8
LIVELLO_1
 62
     7
100
AcDbLine
 10
7.851889
 20
-146.704224
 30
0.0
 11
-1.89153
 21
-146.704224
 31
0.0
  0
LINE
  5
272
100
AcDbEntity
  8
LIVELLO_1
 62
     7
100
AcDbLine
 10
-43.871913
 20
-146.704224
 30
0.0
 11
-54.296427
 21
-146.704224
 31
0.0
  0
MTEXT
  5
271
100
AcDbEntity
  8
LIVELLO_1
 62
     7
100
AcDbMText
 10
-44.097222
 20
59.428999
 30
0.0
 40
6.185565
 41
0.0
 71
     1
 72
     2
  1
\fCourier|b0|i0;\H6.1856;\C7;\U+00D8\U+0020\U+0032\U+0030
  7
STD
210
0.0
220
0.0
230
1.0
 73
     1
 44
1.0
  0
LINE
  5
270
100
AcDbEntity
  8
LIVELLO_1
 62
     7
100
AcDbLine
 10
-22.717304
 20
42.83115
 30
0.0
 11
18.253322
 21
42.83115
 31
0.0
  0
POLYLINE
  5
26A
100
AcDbEntity
  8
LIVELLO_1
 62
     7
100
AcDb2dPolyline
 66
     1
 10
0.0
 20
0.0
 30
0.0
 70
     1
  0
VERTEX
  5
26B
100
AcDbEntity
  8
LIVELLO_1
 62
     7
100
AcDbVertex
100
AcDb2dVertex
 10
-6.544648
 20
95.66255
 30
0.0
  0
VERTEX
  5
26C
100
AcDbEntity
  8
LIVELLO_1
 62
     7
100
AcDbVertex
100
AcDb2dVertex
 10
2.080665
 20
95.66255
 30
0.0
  0
VERTEX
  5
26D
100
AcDbEntity
  8
LIVELLO_1
 62
     7
100
AcDbVertex
100
AcDb2dVertex
 10
2.080665
 20
68.170516
 30
0.0
  0
VERTEX
  5
26E
100
AcDbEntity
  8
LIVELLO_1
 62
     7
100
AcDbVertex
100
AcDb2dVertex
 10
-6.544648
 20
68.170516
 30
0.0
  0
SEQEND
  5
26F
100
AcDbEntity
  8
LIVELLO_1
 62
     7
  0
POLYLINE
  5
264
100
AcDbEntity
  8
LIVELLO_1
 62
     7
100
AcDb2dPolyline
 66
     1
 10
0.0
 20
0.0
 30
0.0
 70
     1
  0
VERTEX
  5
265
100
AcDbEntity
  8
LIVELLO_1
 62
     7
100
AcDbVertex
100
AcDb2dVertex
 10
-6.544648
 20
95.66255
 30
0.0
  0
VERTEX
  5
266
100
AcDbEntity
  8
LIVELLO_1
 62
     7
100
AcDbVertex
100
AcDb2dVertex
 10
2.080665
 20
95.66255
 30
0.0
  0
VERTEX
  5
267
100
AcDbEntity
  8
LIVELLO_1
 62
     7
100
AcDbVertex
100
AcDb2dVertex
 10
2.080665
 20
68.170516
 30
0.0
  0
VERTEX
  5
268
100
AcDbEntity
  8
LIVELLO_1
 62
     7
100
AcDbVertex
100
AcDb2dVertex
 10
-6.544648
 20
68.170516
 30
0.0
  0
SEQEND
  5
269
100
AcDbEntity
  8
LIVELLO_1
 62
     7
  0
POLYLINE
  5
240
100
AcDbEntity
  8
LIVELLO_1
 62
     7
100
AcDb2dPolyline
 66
     1
 10
0.0
 20
0.0
 30
0.0
 70
     1
  0
VERTEX
  5
241
100
AcDbEntity
  8
LIVELLO_1
 62
     7
100
AcDbVertex
100
AcDb2dVertex
 10
-9.242158
 20
112.913521
 30
0.0
  0
VERTEX
  5
242
100
AcDbEntity
  8
LIVELLO_1
 62
     7
100
AcDbVertex
100
AcDb2dVertex
 10
-10.319439
 20
111.835034
 30
0.0
  0
VERTEX
  5
243
100
AcDbEntity
  8
LIVELLO_1
 62
     7
100
AcDbVertex
100
AcDb2dVertex
 10
-9.242158
 20
110.756547
 30
0.0
  0
VERTEX
  5
244
100
AcDbEntity
  8
LIVELLO_1
 62
     7
100
AcDbVertex
100
AcDb2dVertex
 10
-10.319439
 20
109.67806
 30
0.0
  0
VERTEX
  5
245
100
AcDbEntity
  8
LIVELLO_1
 62
     7
100
AcDbVertex
100
AcDb2dVertex
 10
-9.242158
 20
108.599573
 30
0.0
  0
VERTEX
  5
246
100
AcDbEntity
  8
LIVELLO_1
 62
     7
100
AcDbVertex
100
AcDb2dVertex
 10
-10.319439
 20
107.521086
 30
0.0
  0
VERTEX
  5
247
100
AcDbEntity
  8
LIVELLO_1
 62
     7
100
AcDbVertex
100
AcDb2dVertex
 10
-9.242158
 20
106.44501
 30
0.0
  0
VERTEX
  5
248
100
AcDbEntity
  8
LIVELLO_1
 62
     7
100
AcDbVertex
100
AcDb2dVertex
 10
-10.319439
 20
105.366523
 30
0.0
  0
VERTEX
  5
249
100
AcDbEntity
  8
LIVELLO_1
 62
     7
100
AcDbVertex
100
AcDb2dVertex
 10
-9.242158
 20
104.287863
 30
0.0
  0
VERTEX
  5
24A
100
AcDbEntity
  8
LIVELLO_1
 62
     7
100
AcDbVertex
100
AcDb2dVertex
 10
-10.319439
 20
103.209549
 30
0.0
  0
VERTEX
  5
24B
100
AcDbEntity
  8
LIVELLO_1
 62
     7
100
AcDbVertex
100
AcDb2dVertex
 10
-9.242158
 20
102.131061
 30
0.0
  0
VERTEX
  5
24C
100
AcDbEntity
  8
LIVELLO_1
 62
     7
100
AcDbVertex
100
AcDb2dVertex
 10
-10.319439
 20
101.052574
 30
0.0
  0
VERTEX
  5
24D
100
AcDbEntity
  8
LIVELLO_1
 62
     7
100
AcDbVertex
100
AcDb2dVertex
 10
-9.242158
 20
99.974087
 30
0.0
  0
VERTEX
  5
24E
100
AcDbEntity
  8
LIVELLO_1
 62
     7
100
AcDbVertex
100
AcDb2dVertex
 10
-10.319439
 20
98.895772
 30
0.0
  0
VERTEX
  5
24F
100
AcDbEntity
  8
LIVELLO_1
 62
     7
100
AcDbVertex
100
AcDb2dVertex
 10
-9.242158
 20
97.819352
 30
0.0
  0
VERTEX
  5
250
100
AcDbEntity
  8
LIVELLO_1
 62
     7
100
AcDbVertex
100
AcDb2dVertex
 10
-10.319439
 20
96.741037
 30
0.0
  0
VERTEX
  5
251
100
AcDbEntity
  8
LIVELLO_1
 62
     7
100
AcDbVertex
100
AcDb2dVertex
 10
-9.242158
 20
95.66255
 30
0.0
  0
VERTEX
  5
252
100
AcDbEntity
  8
LIVELLO_1
 62
     7
100
AcDbVertex
100
AcDb2dVertex
 10
4.77473
 20
95.66255
 30
0.0
  0
VERTEX
  5
253
100
AcDbEntity
  8
LIVELLO_1
 62
     7
100
AcDbVertex
100
AcDb2dVertex
 10
5.853045
 20
96.741037
 30
0.0
  0
VERTEX
  5
254
100
AcDbEntity
  8
LIVELLO_1
 62
     7
100
AcDbVertex
100
AcDb2dVertex
 10
4.77473
 20
97.819352
 30
0.0
  0
VERTEX
  5
255
100
AcDbEntity
  8
LIVELLO_1
 62
     7
100
AcDbVertex
100
AcDb2dVertex
 10
5.853045
 20
98.895772
 30
0.0
  0
VERTEX
  5
256
100
AcDbEntity
  8
LIVELLO_1
 62
     7
100
AcDbVertex
100
AcDb2dVertex
 10
4.77473
 20
99.974087
 30
0.0
  0
VERTEX
  5
257
100
AcDbEntity
  8
LIVELLO_1
 62
     7
100
AcDbVertex
100
AcDb2dVertex
 10
5.853045
 20
101.052574
 30
0.0
  0
VERTEX
  5
258
100
AcDbEntity
  8
LIVELLO_1
 62
     7
100
AcDbVertex
100
AcDb2dVertex
 10
4.77473
 20
102.131061
 30
0.0
  0
VERTEX
  5
259
100
AcDbEntity
  8
LIVELLO_1
 62
     7
100
AcDbVertex
100
AcDb2dVertex
 10
5.853045
 20
103.209549
 30
0.0
  0
VERTEX
  5
25A
100
AcDbEntity
  8
LIVELLO_1
 62
     7
100
AcDbVertex
100
AcDb2dVertex
 10
4.77473
 20
104.287863
 30
0.0
  0
VERTEX
  5
25B
100
AcDbEntity
  8
LIVELLO_1
 62
     7
100
AcDbVertex
100
AcDb2dVertex
 10
5.853045
 20
105.366523
 30
0.0
  0
VERTEX
  5
25C
100
AcDbEntity
  8
LIVELLO_1
 62
     7
100
AcDbVertex
100
AcDb2dVertex
 10
4.77473
 20
106.44501
 30
0.0
  0
VERTEX
  5
25D
100
AcDbEntity
  8
LIVELLO_1
 62
     7
100
AcDbVertex
100
AcDb2dVertex
 10
5.853045
 20
107.521086
 30
0.0
  0
VERTEX
  5
25E
100
AcDbEntity
  8
LIVELLO_1
 62
     7
100
AcDbVertex
100
AcDb2dVertex
 10
4.77473
 20
108.599573
 30
0.0
  0
VERTEX
  5
25F
100
AcDbEntity
  8
LIVELLO_1
 62
     7
100
AcDbVertex
100
AcDb2dVertex
 10
5.853045
 20
109.67806
 30
0.0
  0
VERTEX
  5
260
100
AcDbEntity
  8
LIVELLO_1
 62
     7
100
AcDbVertex
100
AcDb2dVertex
 10
4.77473
 20
110.756547
 30
0.0
  0
VERTEX
  5
261
100
AcDbEntity
  8
LIVELLO_1
 62
     7
100
AcDbVertex
100
AcDb2dVertex
 10
5.853045
 20
111.835034
 30
0.0
  0
VERTEX
  5
262
100
AcDbEntity
  8
LIVELLO_1
 62
     7
100
AcDbVertex
100
AcDb2dVertex
 10
4.77473
 20
112.913521
 30
0.0
  0
SEQEND
  5
263
100
AcDbEntity
  8
LIVELLO_1
 62
     7
  0
POLYLINE
  5
21C
100
AcDbEntity
  8
LIVELLO_1
 62
     7
100
AcDb2dPolyline
 66
     1
 10
0.0
 20
0.0
 30
0.0
 70
     1
  0
VERTEX
  5
21D
100
AcDbEntity
  8
LIVELLO_1
 62
     7
100
AcDbVertex
100
AcDb2dVertex
 10
-9.242158
 20
112.913521
 30
0.0
  0
VERTEX
  5
21E
100
AcDbEntity
  8
LIVELLO_1
 62
     7
100
AcDbVertex
100
AcDb2dVertex
 10
-10.319439
 20
111.835034
 30
0.0
  0
VERTEX
  5
21F
100
AcDbEntity
  8
LIVELLO_1
 62
     7
100
AcDbVertex
100
AcDb2dVertex
 10
-9.242158
 20
110.756547
 30
0.0
  0
VERTEX
  5
220
100
AcDbEntity
  8
LIVELLO_1
 62
     7
100
AcDbVertex
100
AcDb2dVertex
 10
-10.319439
 20
109.67806
 30
0.0
  0
VERTEX
  5
221
100
AcDbEntity
  8
LIVELLO_1
 62
     7
100
AcDbVertex
100
AcDb2dVertex
 10
-9.242158
 20
108.599573
 30
0.0
  0
VERTEX
  5
222
100
AcDbEntity
  8
LIVELLO_1
 62
     7
100
AcDbVertex
100
AcDb2dVertex
 10
-10.319439
 20
107.521086
 30
0.0
  0
VERTEX
  5
223
100
AcDbEntity
  8
LIVELLO_1
 62
     7
100
AcDbVertex
100
AcDb2dVertex
 10
-9.242158
 20
106.44501
 30
0.0
  0
VERTEX
  5
224
100
AcDbEntity
  8
LIVELLO_1
 62
     7
100
AcDbVertex
100
AcDb2dVertex
 10
-10.319439
 20
105.366523
 30
0.0
  0
VERTEX
  5
225
100
AcDbEntity
  8
LIVELLO_1
 62
     7
100
AcDbVertex
100
AcDb2dVertex
 10
-9.242158
 20
104.287863
 30
0.0
  0
VERTEX
  5
226
100
AcDbEntity
  8
LIVELLO_1
 62
     7
100
AcDbVertex
100
AcDb2dVertex
 10
-10.319439
 20
103.209549
 30
0.0
  0
VERTEX
  5
227
100
AcDbEntity
  8
LIVELLO_1
 62
     7
100
AcDbVertex
100
AcDb2dVertex
 10
-9.242158
 20
102.131061
 30
0.0
  0
VERTEX
  5
228
100
AcDbEntity
  8
LIVELLO_1
 62
     7
100
AcDbVertex
100
AcDb2dVertex
 10
-10.319439
 20
101.052574
 30
0.0
  0
VERTEX
  5
229
100
AcDbEntity
  8
LIVELLO_1
 62
     7
100
AcDbVertex
100
AcDb2dVertex
 10
-9.242158
 20
99.974087
 30
0.0
  0
VERTEX
  5
22A
100
AcDbEntity
  8
LIVELLO_1
 62
     7
100
AcDbVertex
100
AcDb2dVertex
 10
-10.319439
 20
98.895772
 30
0.0
  0
VERTEX
  5
22B
100
AcDbEntity
  8
LIVELLO_1
 62
     7
100
AcDbVertex
100
AcDb2dVertex
 10
-9.242158
 20
97.819352
 30
0.0
  0
VERTEX
  5
22C
100
AcDbEntity
  8
LIVELLO_1
 62
     7
100
AcDbVertex
100
AcDb2dVertex
 10
-10.319439
 20
96.741037
 30
0.0
  0
VERTEX
  5
22D
100
AcDbEntity
  8
LIVELLO_1
 62
     7
100
AcDbVertex
100
AcDb2dVertex
 10
-9.242158
 20
95.66255
 30
0.0
  0
VERTEX
  5
22E
100
AcDbEntity
  8
LIVELLO_1
 62
     7
100
AcDbVertex
100
AcDb2dVertex
 10
4.77473
 20
95.66255
 30
0.0
  0
VERTEX
  5
22F
100
AcDbEntity
  8
LIVELLO_1
 62
     7
100
AcDbVertex
100
AcDb2dVertex
 10
5.853045
 20
96.741037
 30
0.0
  0
VERTEX
  5
230
100
AcDbEntity
  8
LIVELLO_1
 62
     7
100
AcDbVertex
100
AcDb2dVertex
 10
4.77473
 20
97.819352
 30
0.0
  0
VERTEX
  5
231
100
AcDbEntity
  8
LIVELLO_1
 62
     7
100
AcDbVertex
100
AcDb2dVertex
 10
5.853045
 20
98.895772
 30
0.0
  0
VERTEX
  5
232
100
AcDbEntity
  8
LIVELLO_1
 62
     7
100
AcDbVertex
100
AcDb2dVertex
 10
4.77473
 20
99.974087
 30
0.0
  0
VERTEX
  5
233
100
AcDbEntity
  8
LIVELLO_1
 62
     7
100
AcDbVertex
100
AcDb2dVertex
 10
5.853045
 20
101.052574
 30
0.0
  0
VERTEX
  5
234
100
AcDbEntity
  8
LIVELLO_1
 62
     7
100
AcDbVertex
100
AcDb2dVertex
 10
4.77473
 20
102.131061
 30
0.0
  0
VERTEX
  5
235
100
AcDbEntity
  8
LIVELLO_1
 62
     7
100
AcDbVertex
100
AcDb2dVertex
 10
5.853045
 20
103.209549
 30
0.0
  0
VERTEX
  5
236
100
AcDbEntity
  8
LIVELLO_1
 62
     7
100
AcDbVertex
100
AcDb2dVertex
 10
4.77473
 20
104.287863
 30
0.0
  0
VERTEX
  5
237
100
AcDbEntity
  8
LIVELLO_1
 62
     7
100
AcDbVertex
100
AcDb2dVertex
 10
5.853045
 20
105.366523
 30
0.0
  0
VERTEX
  5
238
100
AcDbEntity
  8
LIVELLO_1
 62
     7
100
AcDbVertex
100
AcDb2dVertex
 10
4.77473
 20
106.44501
 30
0.0
  0
VERTEX
  5
239
100
AcDbEntity
  8
LIVELLO_1
 62
     7
100
AcDbVertex
100
AcDb2dVertex
 10
5.853045
 20
107.521086
 30
0.0
  0
VERTEX
  5
23A
100
AcDbEntity
  8
LIVELLO_1
 62
     7
100
AcDbVertex
100
AcDb2dVertex
 10
4.77473
 20
108.599573
 30
0.0
  0
VERTEX
  5
23B
100
AcDbEntity
  8
LIVELLO_1
 62
     7
100
AcDbVertex
100
AcDb2dVertex
 10
5.853045
 20
109.67806
 30
0.0
  0
VERTEX
  5
23C
100
AcDbEntity
  8
LIVELLO_1
 62
     7
100
AcDbVertex
100
AcDb2dVertex
 10
4.77473
 20
110.756547
 30
0.0
  0
VERTEX
  5
23D
100
AcDbEntity
  8
LIVELLO_1
 62
     7
100
AcDbVertex
100
AcDb2dVertex
 10
5.853045
 20
111.835034
 30
0.0
  0
VERTEX
  5
23E
100
AcDbEntity
  8
LIVELLO_1
 62
     7
100
AcDbVertex
100
AcDb2dVertex
 10
4.77473
 20
112.913521
 30
0.0
  0
SEQEND
  5
23F
100
AcDbEntity
  8
LIVELLO_1
 62
     7
  0
LINE
  5
21B
100
AcDbEntity
  8
LIVELLO_1
 62
     7
100
AcDbLine
 10
-10.319439
 20
111.835034
 30
0.0
 11
4.77473
 21
112.913521
 31
0.0
  0
LINE
  5
21A
100
AcDbEntity
  8
LIVELLO_1
 62
     7
100
AcDbLine
 10
-10.319439
 20
109.67806
 30
0.0
 11
4.77473
 21
110.756547
 31
0.0
  0
LINE
  5
219
100
AcDbEntity
  8
LIVELLO_1
 62
     7
100
AcDbLine
 10
-10.319439
 20
107.521086
 30
0.0
 11
4.77473
 21
108.599573
 31
0.0
  0
LINE
  5
218
100
AcDbEntity
  8
LIVELLO_1
 62
     7
100
AcDbLine
 10
-10.319439
 20
105.366523
 30
0.0
 11
4.77473
 21
106.44501
 31
0.0
  0
LINE
  5
217
100
AcDbEntity
  8
LIVELLO_1
 62
     7
100
AcDbLine
 10
-10.319439
 20
103.209549
 30
0.0
 11
4.77473
 21
104.287863
 31
0.0
  0
LINE
  5
216
100
AcDbEntity
  8
LIVELLO_1
 62
     7
100
AcDbLine
 10
-10.319439
 20
101.052574
 30
0.0
 11
4.77473
 21
102.131061
 31
0.0
  0
LINE
  5
215
100
AcDbEntity
  8
LIVELLO_1
 62
     7
100
AcDbLine
 10
-10.319439
 20
98.895772
 30
0.0
 11
4.77473
 21
99.974087
 31
0.0
  0
LINE
  5
214
100
AcDbEntity
  8
LIVELLO_1
 62
     7
100
AcDbLine
 10
-10.319439
 20
96.741037
 30
0.0
 11
4.77473
 21
97.819352
 31
0.0
  0
LINE
  5
213
100
AcDbEntity
  8
LIVELLO_1
 62
     7
100
AcDbLine
 10
-9.242158
 20
112.913521
 30
0.0
 11
5.853045
 21
113.989597
 31
0.0
  0
LINE
  5
212
100
AcDbEntity
  8
LIVELLO_1
 62
     7
100
AcDbLine
 10
-9.242158
 20
110.756547
 30
0.0
 11
5.853045
 21
111.835034
 31
0.0
  0
LINE
  5
211
100
AcDbEntity
  8
LIVELLO_1
 62
     7
100
AcDbLine
 10
-9.242158
 20
108.599573
 30
0.0
 11
5.853045
 21
109.67806
 31
0.0
  0
LINE
  5
210
100
AcDbEntity
  8
LIVELLO_1
 62
     7
100
AcDbLine
 10
-9.242158
 20
106.44501
 30
0.0
 11
5.853045
 21
107.521086
 31
0.0
  0
LINE
  5
20F
100
AcDbEntity
  8
LIVELLO_1
 62
     7
100
AcDbLine
 10
-9.242158
 20
104.287863
 30
0.0
 11
5.853045
 21
105.366523
 31
0.0
  0
LINE
  5
20E
100
AcDbEntity
  8
LIVELLO_1
 62
     7
100
AcDbLine
 10
-9.242158
 20
102.131061
 30
0.0
 11
5.853045
 21
103.209549
 31
0.0
  0
LINE
  5
20D
100
AcDbEntity
  8
LIVELLO_1
 62
     7
100
AcDbLine
 10
-9.242158
 20
99.974087
 30
0.0
 11
5.853045
 21
101.052574
 31
0.0
  0
LINE
  5
20C
100
AcDbEntity
  8
LIVELLO_1
 62
     7
100
AcDbLine
 10
-9.242158
 20
97.819352
 30
0.0
 11
5.853045
 21
98.895772
 31
0.0
  0
LINE
  5
20B
100
AcDbEntity
  8
LIVELLO_1
 62
     7
100
AcDbLine
 10
-9.242158
 20
95.66255
 30
0.0
 11
5.853045
 21
96.741037
 31
0.0
  0
SPLINE
  5
20A
100
AcDbEntity
  8
LIVELLO_1
 62
     7
100
AcDbSpline
210
0.0
220
0.0
230
1.0
 70
     8
 71
     3
 72
    23
 73
    19
 74
     0
 42
0.00000001
 43
0.00000001
 40
0.0
 40
0.0
 40
0.0
 40
0.0
 40
1.0
 40
1.0
 40
1.0
 40
2.0
 40
2.0
 40
2.0
 40
3.0
 40
3.0
 40
3.0
 40
4.0
 40
4.0
 40
4.0
 40
5.0
 40
5.0
 40
5.0
 40
6.0
 40
6.0
 40
6.0
 40
6.0
 10
-7.35493435329861
 20
128.54426405164929
 30
0.0
 10
-7.35493435329861
 20
128.54426405164929
 30
0.0
 10
2.8871622721354164
 20
128.54426405164929
 30
0.0
 10
2.8871622721354164
 20
128.54426405164929
 30
0.0
 10
5.2696180555555552
 20
128.54426405164929
 30
0.0
 10
7.2000773111979157
 20
126.61535508897569
 30
0.0
 10
7.2000773111979157
 20
124.23513861762152
 30
0.0
 10
7.2000773111979157
 20
124.23513861762152
 30
0.0
 10
7.2000773111979157
 20
120.99726562499998
 30
0.0
 10
7.2000773111979157
 20
120.99726562499998
 30
0.0
 10
7.2000773111979157
 20
120.99726562499998
 30
0.0
 10
-11.6675048828125
 20
120.99726562499998
 30
0.0
 10
-11.6675048828125
 20
120.99726562499998
 30
0.0
 10
-11.6675048828125
 20
120.99726562499998
 30
0.0
 10
-11.6675048828125
 20
124.23513861762152
 30
0.0
 10
-11.6675048828125
 20
124.23513861762152
 30
0.0
 10
-11.6675048828125
 20
126.61535508897569
 30
0.0
 10
-9.7370456271701382
 20
128.54426405164929
 30
0.0
 10
-7.35493435329861
 20
128.54426405164929
 30
0.0
  0
SPLINE
  5
209
100
AcDbEntity
  8
LIVELLO_1
 62
     7
100
AcDbSpline
210
0.0
220
0.0
230
1.0
 70
     8
 71
     3
 72
    23
 73
    19
 74
     0
 42
0.00000001
 43
0.00000001
 40
0.0
 40
0.0
 40
0.0
 40
0.0
 40
1.0
 40
1.0
 40
1.0
 40
2.0
 40
2.0
 40
2.0
 40
3.0
 40
3.0
 40
3.0
 40
4.0
 40
4.0
 40
4.0
 40
5.0
 40
5.0
 40
5.0
 40
6.0
 40
6.0
 40
6.0
 40
6.0
 10
-7.35493435329861
 20
128.54426405164929
 30
0.0
 10
-7.35493435329861
 20
128.54426405164929
 30
0.0
 10
2.8871622721354164
 20
128.54426405164929
 30
0.0
 10
2.8871622721354164
 20
128.54426405164929
 30
0.0
 10
5.2696180555555552
 20
128.54426405164929
 30
0.0
 10
7.2000773111979157
 20
126.61535508897569
 30
0.0
 10
7.2000773111979157
 20
124.23513861762152
 30
0.0
 10
7.2000773111979157
 20
124.23513861762152
 30
0.0
 10
7.2000773111979157
 20
120.99726562499998
 30
0.0
 10
7.2000773111979157
 20
120.99726562499998
 30
0.0
 10
7.2000773111979157
 20
120.99726562499998
 30
0.0
 10
-11.6675048828125
 20
120.99726562499998
 30
0.0
 10
-11.6675048828125
 20
120.99726562499998
 30
0.0
 10
-11.6675048828125
 20
120.99726562499998
 30
0.0
 10
-11.6675048828125
 20
124.23513861762152
 30
0.0
 10
-11.6675048828125
 20
124.23513861762152
 30
0.0
 10
-11.6675048828125
 20
126.61535508897569
 30
0.0
 10
-9.7370456271701382
 20
128.54426405164929
 30
0.0
 10
-7.35493435329861
 20
128.54426405164929
 30
0.0
  0
POLYLINE
  5
1FF
100
AcDbEntity
  8
LIVELLO_1
 62
     7
100
AcDb2dPolyline
 66
     1
 10
0.0
 20
0.0
 30
0.0
 70
     1
  0
VERTEX
  5
200
100
AcDbEntity
  8
LIVELLO_1
 62
     7
100
AcDbVertex
100
AcDb2dVertex
 10
-13.014537
 20
120.46052
 30
0.0
  0
VERTEX
  5
201
100
AcDbEntity
  8
LIVELLO_1
 62
     7
100
AcDbVertex
100
AcDb2dVertex
 10
-10.319439
 20
120.997266
 30
0.0
  0
VERTEX
  5
202
100
AcDbEntity
  8
LIVELLO_1
 62
     7
100
AcDbVertex
100
AcDb2dVertex
 10
5.853045
 20
120.997266
 30
0.0
  0
VERTEX
  5
203
100
AcDbEntity
  8
LIVELLO_1
 62
     7
100
AcDbVertex
100
AcDb2dVertex
 10
8.546937
 20
120.46052
 30
0.0
  0
VERTEX
  5
204
100
AcDbEntity
  8
LIVELLO_1
 62
     7
100
AcDbVertex
100
AcDb2dVertex
 10
8.546937
 20
113.450439
 30
0.0
  0
VERTEX
  5
205
100
AcDbEntity
  8
LIVELLO_1
 62
     7
100
AcDbVertex
100
AcDb2dVertex
 10
5.853045
 20
112.913521
 30
0.0
  0
VERTEX
  5
206
100
AcDbEntity
  8
LIVELLO_1
 62
     7
100
AcDbVertex
100
AcDb2dVertex
 10
-10.319439
 20
112.913521
 30
0.0
  0
VERTEX
  5
207
100
AcDbEntity
  8
LIVELLO_1
 62
     7
100
AcDbVertex
100
AcDb2dVertex
 10
-13.014537
 20
113.450439
 30
0.0
  0
SEQEND
  5
208
100
AcDbEntity
  8
LIVELLO_1
 62
     7
  0
POLYLINE
  5
1F5
100
AcDbEntity
  8
LIVELLO_1
 62
     7
100
AcDb2dPolyline
 66
     1
 10
0.0
 20
0.0
 30
0.0
 70
     1
  0
VERTEX
  5
1F6
100
AcDbEntity
  8
LIVELLO_1
 62
     7
100
AcDbVertex
100
AcDb2dVertex
 10
-13.014537
 20
120.46052
 30
0.0
  0
VERTEX
  5
1F7
100
AcDbEntity
  8
LIVELLO_1
 62
     7
100
AcDbVertex
100
AcDb2dVertex
 10
-10.319439
 20
120.997266
 30
0.0
  0
VERTEX
  5
1F8
100
AcDbEntity
  8
LIVELLO_1
 62
     7
100
AcDbVertex
100
AcDb2dVertex
 10
5.853045
 20
120.997266
 30
0.0
  0
VERTEX
  5
1F9
100
AcDbEntity
  8
LIVELLO_1
 62
     7
100
AcDbVertex
100
AcDb2dVertex
 10
8.546937
 20
120.46052
 30
0.0
  0
VERTEX
  5
1FA
100
AcDbEntity
  8
LIVELLO_1
 62
     7
100
AcDbVertex
100
AcDb2dVertex
 10
8.546937
 20
113.450439
 30
0.0
  0
VERTEX
  5
1FB
100
AcDbEntity
  8
LIVELLO_1
 62
     7
100
AcDbVertex
100
AcDb2dVertex
 10
5.853045
 20
112.913521
 30
0.0
  0
VERTEX
  5
1FC
100
AcDbEntity
  8
LIVELLO_1
 62
     7
100
AcDbVertex
100
AcDb2dVertex
 10
-10.319439
 20
112.913521
 30
0.0
  0
VERTEX
  5
1FD
100
AcDbEntity
  8
LIVELLO_1
 62
     7
100
AcDbVertex
100
AcDb2dVertex
 10
-13.014537
 20
113.450439
 30
0.0
  0
SEQEND
  5
1FE
100
AcDbEntity
  8
LIVELLO_1
 62
     7
  0
POLYLINE
  5
1EB
100
AcDbEntity
  8
LIVELLO_1
 62
     7
100
AcDb2dPolyline
 66
     1
 10
0.0
 20
0.0
 30
0.0
 70
     1
  0
VERTEX
  5
1EC
100
AcDbEntity
  8
LIVELLO_1
 62
     7
100
AcDbVertex
100
AcDb2dVertex
 10
-13.014537
 20
108.060243
 30
0.0
  0
VERTEX
  5
1ED
100
AcDbEntity
  8
LIVELLO_1
 62
     7
100
AcDbVertex
100
AcDb2dVertex
 10
-10.319439
 20
108.599573
 30
0.0
  0
VERTEX
  5
1EE
100
AcDbEntity
  8
LIVELLO_1
 62
     7
100
AcDbVertex
100
AcDb2dVertex
 10
5.853045
 20
108.599573
 30
0.0
  0
VERTEX
  5
1EF
100
AcDbEntity
  8
LIVELLO_1
 62
     7
100
AcDbVertex
100
AcDb2dVertex
 10
8.546937
 20
108.060243
 30
0.0
  0
VERTEX
  5
1F0
100
AcDbEntity
  8
LIVELLO_1
 62
     7
100
AcDbVertex
100
AcDb2dVertex
 10
8.546937
 20
103.746294
 30
0.0
  0
VERTEX
  5
1F1
100
AcDbEntity
  8
LIVELLO_1
 62
     7
100
AcDbVertex
100
AcDb2dVertex
 10
5.853045
 20
103.209549
 30
0.0
  0
VERTEX
  5
1F2
100
AcDbEntity
  8
LIVELLO_1
 62
     7
100
AcDbVertex
100
AcDb2dVertex
 10
-10.319439
 20
103.209549
 30
0.0
  0
VERTEX
  5
1F3
100
AcDbEntity
  8
LIVELLO_1
 62
     7
100
AcDbVertex
100
AcDb2dVertex
 10
-13.014537
 20
103.746294
 30
0.0
  0
SEQEND
  5
1F4
100
AcDbEntity
  8
LIVELLO_1
 62
     7
  0
POLYLINE
  5
1E1
100
AcDbEntity
  8
LIVELLO_1
 62
     7
100
AcDb2dPolyline
 66
     1
 10
0.0
 20
0.0
 30
0.0
 70
     1
  0
VERTEX
  5
1E2
100
AcDbEntity
  8
LIVELLO_1
 62
     7
100
AcDbVertex
100
AcDb2dVertex
 10
-13.014537
 20
108.060243
 30
0.0
  0
VERTEX
  5
1E3
100
AcDbEntity
  8
LIVELLO_1
 62
     7
100
AcDbVertex
100
AcDb2dVertex
 10
-10.319439
 20
108.599573
 30
0.0
  0
VERTEX
  5
1E4
100
AcDbEntity
  8
LIVELLO_1
 62
     7
100
AcDbVertex
100
AcDb2dVertex
 10
5.853045
 20
108.599573
 30
0.0
  0
VERTEX
  5
1E5
100
AcDbEntity
  8
LIVELLO_1
 62
     7
100
AcDbVertex
100
AcDb2dVertex
 10
8.546937
 20
108.060243
 30
0.0
  0
VERTEX
  5
1E6
100
AcDbEntity
  8
LIVELLO_1
 62
     7
100
AcDbVertex
100
AcDb2dVertex
 10
8.546937
 20
103.746294
 30
0.0
  0
VERTEX
  5
1E7
100
AcDbEntity
  8
LIVELLO_1
 62
     7
100
AcDbVertex
100
AcDb2dVertex
 10
5.853045
 20
103.209549
 30
0.0
  0
VERTEX
  5
1E8
100
AcDbEntity
  8
LIVELLO_1
 62
     7
100
AcDbVertex
100
AcDb2dVertex
 10
-10.319439
 20
103.209549
 30
0.0
  0
VERTEX
  5
1E9
100
AcDbEntity
  8
LIVELLO_1
 62
     7
100
AcDbVertex
100
AcDb2dVertex
 10
-13.014537
 20
103.746294
 30
0.0
  0
SEQEND
  5
1EA
100
AcDbEntity
  8
LIVELLO_1
 62
     7
  0
SPLINE
  5
1E0
100
AcDbEntity
  8
LIVELLO_1
 62
     7
100
AcDbSpline
210
0.0
220
0.0
230
1.0
 70
     8
 71
     3
 72
    23
 73
    19
 74
     0
 42
0.00000001
 43
0.00000001
 40
0.0
 40
0.0
 40
0.0
 40
0.0
 40
1.0
 40
1.0
 40
1.0
 40
2.0
 40
2.0
 40
2.0
 40
3.0
 40
3.0
 40
3.0
 40
4.0
 40
4.0
 40
4.0
 40
5.0
 40
5.0
 40
5.0
 40
6.0
 40
6.0
 40
6.0
 40
6.0
 10
-7.6257188585069438
 20
120.46051974826388
 30
0.0
 10
-7.6257188585069438
 20
120.46051974826388
 30
0.0
 10
-6.5446478949652773
 20
120.99726562499998
 30
0.0
 10
-2.2344889322916663
 20
120.99726562499998
 30
0.0
 10
2.0806654188368054
 20
120.99726562499998
 30
0.0
 10
3.1557074652777777
 20
120.46051974826388
 30
0.0
 10
3.1557074652777777
 20
120.46051974826388
 30
0.0
 10
3.1557074652777777
 20
120.46051974826388
 30
0.0
 10
3.1557074652777777
 20
113.45043945312499
 30
0.0
 10
3.1557074652777777
 20
113.45043945312499
 30
0.0
 10
3.1557074652777777
 20
113.45043945312499
 30
0.0
 10
2.0806654188368054
 20
112.91352132161457
 30
0.0
 10
-2.2344889322916663
 20
112.91352132161457
 30
0.0
 10
-6.5446478949652773
 20
112.91352132161457
 30
0.0
 10
-7.6257188585069438
 20
113.45043945312499
 30
0.0
 10
-7.6257188585069438
 20
113.45043945312499
 30
0.0
 10
-7.6257188585069438
 20
113.45043945312499
 30
0.0
 10
-7.6257188585069438
 20
120.46051974826388
 30
0.0
 10
-7.6257188585069438
 20
120.46051974826388
 30
0.0
  0
SPLINE
  5
1DF
100
AcDbEntity
  8
LIVELLO_1
 62
     7
100
AcDbSpline
210
0.0
220
0.0
230
1.0
 70
     8
 71
     3
 72
    23
 73
    19
 74
     0
 42
0.00000001
 43
0.00000001
 40
0.0
 40
0.0
 40
0.0
 40
0.0
 40
1.0
 40
1.0
 40
1.0
 40
2.0
 40
2.0
 40
2.0
 40
3.0
 40
3.0
 40
3.0
 40
4.0
 40
4.0
 40
4.0
 40
5.0
 40
5.0
 40
5.0
 40
6.0
 40
6.0
 40
6.0
 40
6.0
 10
-7.6257188585069438
 20
120.46051974826388
 30
0.0
 10
-7.6257188585069438
 20
120.46051974826388
 30
0.0
 10
-6.5446478949652773
 20
120.99726562499998
 30
0.0
 10
-2.2344889322916663
 20
120.99726562499998
 30
0.0
 10
2.0806654188368054
 20
120.99726562499998
 30
0.0
 10
3.1557074652777777
 20
120.46051974826388
 30
0.0
 10
3.1557074652777777
 20
120.46051974826388
 30
0.0
 10
3.1557074652777777
 20
120.46051974826388
 30
0.0
 10
3.1557074652777777
 20
113.45043945312499
 30
0.0
 10
3.1557074652777777
 20
113.45043945312499
 30
0.0
 10
3.1557074652777777
 20
113.45043945312499
 30
0.0
 10
2.0806654188368054
 20
112.91352132161457
 30
0.0
 10
-2.2344889322916663
 20
112.91352132161457
 30
0.0
 10
-6.5446478949652773
 20
112.91352132161457
 30
0.0
 10
-7.6257188585069438
 20
113.45043945312499
 30
0.0
 10
-7.6257188585069438
 20
113.45043945312499
 30
0.0
 10
-7.6257188585069438
 20
113.45043945312499
 30
0.0
 10
-7.6257188585069438
 20
120.46051974826388
 30
0.0
 10
-7.6257188585069438
 20
120.46051974826388
 30
0.0
  0
SPLINE
  5
1DE
100
AcDbEntity
  8
LIVELLO_1
 62
     7
100
AcDbSpline
210
0.0
220
0.0
230
1.0
 70
     8
 71
     3
 72
    23
 73
    19
 74
     0
 42
0.00000001
 43
0.00000001
 40
0.0
 40
0.0
 40
0.0
 40
0.0
 40
1.0
 40
1.0
 40
1.0
 40
2.0
 40
2.0
 40
2.0
 40
3.0
 40
3.0
 40
3.0
 40
4.0
 40
4.0
 40
4.0
 40
5.0
 40
5.0
 40
5.0
 40
6.0
 40
6.0
 40
6.0
 40
6.0
 10
3.1557074652777777
 20
120.46051974826388
 30
0.0
 10
3.1557074652777777
 20
120.46051974826388
 30
0.0
 10
4.2340223524305554
 20
120.99726562499998
 30
0.0
 10
5.853044976128472
 20
120.99726562499998
 30
0.0
 10
7.4708618164062495
 20
120.99726562499998
 30
0.0
 10
8.5469373914930546
 20
120.46051974826388
 30
0.0
 10
8.5469373914930546
 20
120.46051974826388
 30
0.0
 10
8.5469373914930546
 20
120.46051974826388
 30
0.0
 10
8.5469373914930546
 20
113.45043945312499
 30
0.0
 10
8.5469373914930546
 20
113.45043945312499
 30
0.0
 10
8.5469373914930546
 20
113.45043945312499
 30
0.0
 10
7.4708618164062495
 20
112.91352132161457
 30
0.0
 10
5.853044976128472
 20
112.91352132161457
 30
0.0
 10
4.2340223524305554
 20
112.91352132161457
 30
0.0
 10
3.1557074652777777
 20
113.45043945312499
 30
0.0
 10
3.1557074652777777
 20
113.45043945312499
 30
0.0
 10
3.1557074652777777
 20
113.45043945312499
 30
0.0
 10
3.1557074652777777
 20
120.46051974826388
 30
0.0
 10
3.1557074652777777
 20
120.46051974826388
 30
0.0
  0
SPLINE
  5
1DD
100
AcDbEntity
  8
LIVELLO_1
 62
     7
100
AcDbSpline
210
0.0
220
0.0
230
1.0
 70
     8
 71
     3
 72
    23
 73
    19
 74
     0
 42
0.00000001
 43
0.00000001
 40
0.0
 40
0.0
 40
0.0
 40
0.0
 40
1.0
 40
1.0
 40
1.0
 40
2.0
 40
2.0
 40
2.0
 40
3.0
 40
3.0
 40
3.0
 40
4.0
 40
4.0
 40
4.0
 40
5.0
 40
5.0
 40
5.0
 40
6.0
 40
6.0
 40
6.0
 40
6.0
 10
3.1557074652777777
 20
120.46051974826388
 30
0.0
 10
3.1557074652777777
 20
120.46051974826388
 30
0.0
 10
4.2340223524305554
 20
120.99726562499998
 30
0.0
 10
5.853044976128472
 20
120.99726562499998
 30
0.0
 10
7.4708618164062495
 20
120.99726562499998
 30
0.0
 10
8.5469373914930546
 20
120.46051974826388
 30
0.0
 10
8.5469373914930546
 20
120.46051974826388
 30
0.0
 10
8.5469373914930546
 20
120.46051974826388
 30
0.0
 10
8.5469373914930546
 20
113.45043945312499
 30
0.0
 10
8.5469373914930546
 20
113.45043945312499
 30
0.0
 10
8.5469373914930546
 20
113.45043945312499
 30
0.0
 10
7.4708618164062495
 20
112.91352132161457
 30
0.0
 10
5.853044976128472
 20
112.91352132161457
 30
0.0
 10
4.2340223524305554
 20
112.91352132161457
 30
0.0
 10
3.1557074652777777
 20
113.45043945312499
 30
0.0
 10
3.1557074652777777
 20
113.45043945312499
 30
0.0
 10
3.1557074652777777
 20
113.45043945312499
 30
0.0
 10
3.1557074652777777
 20
120.46051974826388
 30
0.0
 10
3.1557074652777777
 20
120.46051974826388
 30
0.0
  0
SPLINE
  5
1DC
100
AcDbEntity
  8
LIVELLO_1
 62
     7
100
AcDbSpline
210
0.0
220
0.0
230
1.0
 70
     8
 71
     3
 72
    23
 73
    19
 74
     0
 42
0.00000001
 43
0.00000001
 40
0.0
 40
0.0
 40
0.0
 40
0.0
 40
1.0
 40
1.0
 40
1.0
 40
2.0
 40
2.0
 40
2.0
 40
3.0
 40
3.0
 40
3.0
 40
4.0
 40
4.0
 40
4.0
 40
5.0
 40
5.0
 40
5.0
 40
6.0
 40
6.0
 40
6.0
 40
6.0
 10
-13.014537217881943
 20
120.46051974826388
 30
0.0
 10
-13.014537217881943
 20
120.46051974826388
 30
0.0
 10
-11.935877821180554
 20
120.99726562499998
 30
0.0
 10
-10.319439019097221
 20
120.99726562499998
 30
0.0
 10
-8.7040337456597214
 20
120.99726562499998
 30
0.0
 10
-7.6257188585069438
 20
120.46051974826388
 30
0.0
 10
-7.6257188585069438
 20
120.46051974826388
 30
0.0
 10
-7.6257188585069438
 20
120.46051974826388
 30
0.0
 10
-7.6257188585069438
 20
113.45043945312499
 30
0.0
 10
-7.6257188585069438
 20
113.45043945312499
 30
0.0
 10
-7.6257188585069438
 20
113.45043945312499
 30
0.0
 10
-8.7040337456597214
 20
112.91352132161457
 30
0.0
 10
-10.319439019097221
 20
112.91352132161457
 30
0.0
 10
-11.935877821180554
 20
112.91352132161457
 30
0.0
 10
-13.014537217881943
 20
113.45043945312499
 30
0.0
 10
-13.014537217881943
 20
113.45043945312499
 30
0.0
 10
-13.014537217881943
 20
113.45043945312499
 30
0.0
 10
-13.014537217881943
 20
120.46051974826388
 30
0.0
 10
-13.014537217881943
 20
120.46051974826388
 30
0.0
  0
SPLINE
  5
1DB
100
AcDbEntity
  8
LIVELLO_1
 62
     7
100
AcDbSpline
210
0.0
220
0.0
230
1.0
 70
     8
 71
     3
 72
    23
 73
    19
 74
     0
 42
0.00000001
 43
0.00000001
 40
0.0
 40
0.0
 40
0.0
 40
0.0
 40
1.0
 40
1.0
 40
1.0
 40
2.0
 40
2.0
 40
2.0
 40
3.0
 40
3.0
 40
3.0
 40
4.0
 40
4.0
 40
4.0
 40
5.0
 40
5.0
 40
5.0
 40
6.0
 40
6.0
 40
6.0
 40
6.0
 10
-13.014537217881943
 20
120.46051974826388
 30
0.0
 10
-13.014537217881943
 20
120.46051974826388
 30
0.0
 10
-11.935877821180554
 20
120.99726562499998
 30
0.0
 10
-10.319439019097221
 20
120.99726562499998
 30
0.0
 10
-8.7040337456597214
 20
120.99726562499998
 30
0.0
 10
-7.6257188585069438
 20
120.46051974826388
 30
0.0
 10
-7.6257188585069438
 20
120.46051974826388
 30
0.0
 10
-7.6257188585069438
 20
120.46051974826388
 30
0.0
 10
-7.6257188585069438
 20
113.45043945312499
 30
0.0
 10
-7.6257188585069438
 20
113.45043945312499
 30
0.0
 10
-7.6257188585069438
 20
113.45043945312499
 30
0.0
 10
-8.7040337456597214
 20
112.91352132161457
 30
0.0
 10
-10.319439019097221
 20
112.91352132161457
 30
0.0
 10
-11.935877821180554
 20
112.91352132161457
 30
0.0
 10
-13.014537217881943
 20
113.45043945312499
 30
0.0
 10
-13.014537217881943
 20
113.45043945312499
 30
0.0
 10
-13.014537217881943
 20
113.45043945312499
 30
0.0
 10
-13.014537217881943
 20
120.46051974826388
 30
0.0
 10
-13.014537217881943
 20
120.46051974826388
 30
0.0
  0
SPLINE
  5
1DA
100
AcDbEntity
  8
LIVELLO_1
 62
     7
100
AcDbSpline
210
0.0
220
0.0
230
1.0
 70
     8
 71
     3
 72
    23
 73
    19
 74
     0
 42
0.00000001
 43
0.00000001
 40
0.0
 40
0.0
 40
0.0
 40
0.0
 40
1.0
 40
1.0
 40
1.0
 40
2.0
 40
2.0
 40
2.0
 40
3.0
 40
3.0
 40
3.0
 40
4.0
 40
4.0
 40
4.0
 40
5.0
 40
5.0
 40
5.0
 40
6.0
 40
6.0
 40
6.0
 40
6.0
 10
-7.6257188585069438
 20
108.06024305555555
 30
0.0
 10
-7.6257188585069438
 20
108.06024305555555
 30
0.0
 10
-6.5446478949652773
 20
108.59957275390624
 30
0.0
 10
-2.2344889322916663
 20
108.59957275390624
 30
0.0
 10
2.0806654188368054
 20
108.59957275390624
 30
0.0
 10
3.1557074652777777
 20
108.06024305555555
 30
0.0
 10
3.1557074652777777
 20
108.06024305555555
 30
0.0
 10
3.1557074652777777
 20
108.06024305555555
 30
0.0
 10
3.1557074652777777
 20
103.74629448784721
 30
0.0
 10
3.1557074652777777
 20
103.74629448784721
 30
0.0
 10
3.1557074652777777
 20
103.74629448784721
 30
0.0
 10
2.0806654188368054
 20
103.2095486111111
 30
0.0
 10
-2.2344889322916663
 20
103.2095486111111
 30
0.0
 10
-6.5446478949652773
 20
103.2095486111111
 30
0.0
 10
-7.6257188585069438
 20
103.74629448784721
 30
0.0
 10
-7.6257188585069438
 20
103.74629448784721
 30
0.0
 10
-7.6257188585069438
 20
103.74629448784721
 30
0.0
 10
-7.6257188585069438
 20
108.06024305555555
 30
0.0
 10
-7.6257188585069438
 20
108.06024305555555
 30
0.0
  0
SPLINE
  5
1D9
100
AcDbEntity
  8
LIVELLO_1
 62
     7
100
AcDbSpline
210
0.0
220
0.0
230
1.0
 70
     8
 71
     3
 72
    23
 73
    19
 74
     0
 42
0.00000001
 43
0.00000001
 40
0.0
 40
0.0
 40
0.0
 40
0.0
 40
1.0
 40
1.0
 40
1.0
 40
2.0
 40
2.0
 40
2.0
 40
3.0
 40
3.0
 40
3.0
 40
4.0
 40
4.0
 40
4.0
 40
5.0
 40
5.0
 40
5.0
 40
6.0
 40
6.0
 40
6.0
 40
6.0
 10
-7.6257188585069438
 20
108.06024305555555
 30
0.0
 10
-7.6257188585069438
 20
108.06024305555555
 30
0.0
 10
-6.5446478949652773
 20
108.59957275390624
 30
0.0
 10
-2.2344889322916663
 20
108.59957275390624
 30
0.0
 10
2.0806654188368054
 20
108.59957275390624
 30
0.0
 10
3.1557074652777777
 20
108.06024305555555
 30
0.0
 10
3.1557074652777777
 20
108.06024305555555
 30
0.0
 10
3.1557074652777777
 20
108.06024305555555
 30
0.0
 10
3.1557074652777777
 20
103.74629448784721
 30
0.0
 10
3.1557074652777777
 20
103.74629448784721
 30
0.0
 10
3.1557074652777777
 20
103.74629448784721
 30
0.0
 10
2.0806654188368054
 20
103.2095486111111
 30
0.0
 10
-2.2344889322916663
 20
103.2095486111111
 30
0.0
 10
-6.5446478949652773
 20
103.2095486111111
 30
0.0
 10
-7.6257188585069438
 20
103.74629448784721
 30
0.0
 10
-7.6257188585069438
 20
103.74629448784721
 30
0.0
 10
-7.6257188585069438
 20
103.74629448784721
 30
0.0
 10
-7.6257188585069438
 20
108.06024305555555
 30
0.0
 10
-7.6257188585069438
 20
108.06024305555555
 30
0.0
  0
SPLINE
  5
1D8
100
AcDbEntity
  8
LIVELLO_1
 62
     7
100
AcDbSpline
210
0.0
220
0.0
230
1.0
 70
     8
 71
     3
 72
    23
 73
    19
 74
     0
 42
0.00000001
 43
0.00000001
 40
0.0
 40
0.0
 40
0.0
 40
0.0
 40
1.0
 40
1.0
 40
1.0
 40
2.0
 40
2.0
 40
2.0
 40
3.0
 40
3.0
 40
3.0
 40
4.0
 40
4.0
 40
4.0
 40
5.0
 40
5.0
 40
5.0
 40
6.0
 40
6.0
 40
6.0
 40
6.0
 10
3.1557074652777777
 20
108.06024305555555
 30
0.0
 10
3.1557074652777777
 20
108.06024305555555
 30
0.0
 10
4.2340223524305554
 20
108.59957275390624
 30
0.0
 10
5.853044976128472
 20
108.59957275390624
 30
0.0
 10
7.4708618164062495
 20
108.59957275390624
 30
0.0
 10
8.5469373914930546
 20
108.06024305555555
 30
0.0
 10
8.5469373914930546
 20
108.06024305555555
 30
0.0
 10
8.5469373914930546
 20
108.06024305555555
 30
0.0
 10
8.5469373914930546
 20
103.74629448784721
 30
0.0
 10
8.5469373914930546
 20
103.74629448784721
 30
0.0
 10
8.5469373914930546
 20
103.74629448784721
 30
0.0
 10
7.4708618164062495
 20
103.2095486111111
 30
0.0
 10
5.853044976128472
 20
103.2095486111111
 30
0.0
 10
4.2340223524305554
 20
103.2095486111111
 30
0.0
 10
3.1557074652777777
 20
103.74629448784721
 30
0.0
 10
3.1557074652777777
 20
103.74629448784721
 30
0.0
 10
3.1557074652777777
 20
103.74629448784721
 30
0.0
 10
3.1557074652777777
 20
108.06024305555555
 30
0.0
 10
3.1557074652777777
 20
108.06024305555555
 30
0.0
  0
SPLINE
  5
1D7
100
AcDbEntity
  8
LIVELLO_1
 62
     7
100
AcDbSpline
210
0.0
220
0.0
230
1.0
 70
     8
 71
     3
 72
    23
 73
    19
 74
     0
 42
0.00000001
 43
0.00000001
 40
0.0
 40
0.0
 40
0.0
 40
0.0
 40
1.0
 40
1.0
 40
1.0
 40
2.0
 40
2.0
 40
2.0
 40
3.0
 40
3.0
 40
3.0
 40
4.0
 40
4.0
 40
4.0
 40
5.0
 40
5.0
 40
5.0
 40
6.0
 40
6.0
 40
6.0
 40
6.0
 10
3.1557074652777777
 20
108.06024305555555
 30
0.0
 10
3.1557074652777777
 20
108.06024305555555
 30
0.0
 10
4.2340223524305554
 20
108.59957275390624
 30
0.0
 10
5.853044976128472
 20
108.59957275390624
 30
0.0
 10
7.4708618164062495
 20
108.59957275390624
 30
0.0
 10
8.5469373914930546
 20
108.06024305555555
 30
0.0
 10
8.5469373914930546
 20
108.06024305555555
 30
0.0
 10
8.5469373914930546
 20
108.06024305555555
 30
0.0
 10
8.5469373914930546
 20
103.74629448784721
 30
0.0
 10
8.5469373914930546
 20
103.74629448784721
 30
0.0
 10
8.5469373914930546
 20
103.74629448784721
 30
0.0
 10
7.4708618164062495
 20
103.2095486111111
 30
0.0
 10
5.853044976128472
 20
103.2095486111111
 30
0.0
 10
4.2340223524305554
 20
103.2095486111111
 30
0.0
 10
3.1557074652777777
 20
103.74629448784721
 30
0.0
 10
3.1557074652777777
 20
103.74629448784721
 30
0.0
 10
3.1557074652777777
 20
103.74629448784721
 30
0.0
 10
3.1557074652777777
 20
108.06024305555555
 30
0.0
 10
3.1557074652777777
 20
108.06024305555555
 30
0.0
  0
SPLINE
  5
1D6
100
AcDbEntity
  8
LIVELLO_1
 62
     7
100
AcDbSpline
210
0.0
220
0.0
230
1.0
 70
     8
 71
     3
 72
    23
 73
    19
 74
     0
 42
0.00000001
 43
0.00000001
 40
0.0
 40
0.0
 40
0.0
 40
0.0
 40
1.0
 40
1.0
 40
1.0
 40
2.0
 40
2.0
 40
2.0
 40
3.0
 40
3.0
 40
3.0
 40
4.0
 40
4.0
 40
4.0
 40
5.0
 40
5.0
 40
5.0
 40
6.0
 40
6.0
 40
6.0
 40
6.0
 10
-13.014537217881943
 20
108.06024305555555
 30
0.0
 10
-13.014537217881943
 20
108.06024305555555
 30
0.0
 10
-11.935877821180554
 20
108.59957275390624
 30
0.0
 10
-10.319439019097221
 20
108.59957275390624
 30
0.0
 10
-8.7040337456597214
 20
108.59957275390624
 30
0.0
 10
-7.6257188585069438
 20
108.06024305555555
 30
0.0
 10
-7.6257188585069438
 20
108.06024305555555
 30
0.0
 10
-7.6257188585069438
 20
108.06024305555555
 30
0.0
 10
-7.6257188585069438
 20
103.74629448784721
 30
0.0
 10
-7.6257188585069438
 20
103.74629448784721
 30
0.0
 10
-7.6257188585069438
 20
103.74629448784721
 30
0.0
 10
-8.7040337456597214
 20
103.2095486111111
 30
0.0
 10
-10.319439019097221
 20
103.2095486111111
 30
0.0
 10
-11.935877821180554
 20
103.2095486111111
 30
0.0
 10
-13.014537217881943
 20
103.74629448784721
 30
0.0
 10
-13.014537217881943
 20
103.74629448784721
 30
0.0
 10
-13.014537217881943
 20
103.74629448784721
 30
0.0
 10
-13.014537217881943
 20
108.06024305555555
 30
0.0
 10
-13.014537217881943
 20
108.06024305555555
 30
0.0
  0
SPLINE
  5
1D5
100
AcDbEntity
  8
LIVELLO_1
 62
     7
100
AcDbSpline
210
0.0
220
0.0
230
1.0
 70
     8
 71
     3
 72
    23
 73
    19
 74
     0
 42
0.00000001
 43
0.00000001
 40
0.0
 40
0.0
 40
0.0
 40
0.0
 40
1.0
 40
1.0
 40
1.0
 40
2.0
 40
2.0
 40
2.0
 40
3.0
 40
3.0
 40
3.0
 40
4.0
 40
4.0
 40
4.0
 40
5.0
 40
5.0
 40
5.0
 40
6.0
 40
6.0
 40
6.0
 40
6.0
 10
-13.014537217881943
 20
108.06024305555555
 30
0.0
 10
-13.014537217881943
 20
108.06024305555555
 30
0.0
 10
-11.935877821180554
 20
108.59957275390624
 30
0.0
 10
-10.319439019097221
 20
108.59957275390624
 30
0.0
 10
-8.7040337456597214
 20
108.59957275390624
 30
0.0
 10
-7.6257188585069438
 20
108.06024305555555
 30
0.0
 10
-7.6257188585069438
 20
108.06024305555555
 30
0.0
 10
-7.6257188585069438
 20
108.06024305555555
 30
0.0
 10
-7.6257188585069438
 20
103.74629448784721
 30
0.0
 10
-7.6257188585069438
 20
103.74629448784721
 30
0.0
 10
-7.6257188585069438
 20
103.74629448784721
 30
0.0
 10
-8.7040337456597214
 20
103.2095486111111
 30
0.0
 10
-10.319439019097221
 20
103.2095486111111
 30
0.0
 10
-11.935877821180554
 20
103.2095486111111
 30
0.0
 10
-13.014537217881943
 20
103.74629448784721
 30
0.0
 10
-13.014537217881943
 20
103.74629448784721
 30
0.0
 10
-13.014537217881943
 20
103.74629448784721
 30
0.0
 10
-13.014537217881943
 20
108.06024305555555
 30
0.0
 10
-13.014537217881943
 20
108.06024305555555
 30
0.0
  0
SPLINE
  5
1D4
100
AcDbEntity
  8
LIVELLO_1
 62
     7
100
AcDbSpline
210
0.0
220
0.0
230
1.0
 70
     8
 71
     3
 72
    23
 73
    19
 74
     0
 42
0.00000001
 43
0.00000001
 40
0.0
 40
0.0
 40
0.0
 40
0.0
 40
1.0
 40
1.0
 40
1.0
 40
2.0
 40
2.0
 40
2.0
 40
3.0
 40
3.0
 40
3.0
 40
4.0
 40
4.0
 40
4.0
 40
5.0
 40
5.0
 40
5.0
 40
6.0
 40
6.0
 40
6.0
 40
6.0
 10
0.2595879448784722
 20
144.94240180121525
 30
0.0
 10
0.2595879448784722
 20
144.94240180121525
 30
0.0
 10
6.9837253146701386
 20
140.96555582682291
 30
0.0
 10
6.9837253146701386
 20
140.96555582682291
 30
0.0
 10
6.9837253146701386
 20
140.96555582682291
 30
0.0
 10
2.0806654188368054
 20
134.24124620225695
 30
0.0
 10
2.0806654188368054
 20
130.00171169704859
 30
0.0
 10
2.0806654188368054
 20
130.00171169704859
 30
0.0
 10
2.0806654188368054
 20
128.54426405164929
 30
0.0
 10
2.0806654188368054
 20
128.54426405164929
 30
0.0
 10
2.0806654188368054
 20
128.54426405164929
 30
0.0
 10
-6.5446478949652773
 20
128.54426405164929
 30
0.0
 10
-6.5446478949652773
 20
128.54426405164929
 30
0.0
 10
-6.5446478949652773
 20
128.54426405164929
 30
0.0
 10
-6.5446478949652773
 20
130.49694417317707
 30
0.0
 10
-6.5446478949652773
 20
130.49694417317707
 30
0.0
 10
-6.5446478949652773
 20
134.95024685329861
 30
0.0
 10
0.2595879448784722
 20
144.94240180121525
 30
0.0
 10
0.2595879448784722
 20
144.94240180121525
 30
0.0
  0
SPLINE
  5
1D3
100
AcDbEntity
  8
LIVELLO_1
 62
     7
100
AcDbSpline
210
0.0
220
0.0
230
1.0
 70
     8
 71
     3
 72
    23
 73
    19
 74
     0
 42
0.00000001
 43
0.00000001
 40
0.0
 40
0.0
 40
0.0
 40
0.0
 40
1.0
 40
1.0
 40
1.0
 40
2.0
 40
2.0
 40
2.0
 40
3.0
 40
3.0
 40
3.0
 40
4.0
 40
4.0
 40
4.0
 40
5.0
 40
5.0
 40
5.0
 40
6.0
 40
6.0
 40
6.0
 40
6.0
 10
0.2595879448784722
 20
144.94240180121525
 30
0.0
 10
0.2595879448784722
 20
144.94240180121525
 30
0.0
 10
6.9837253146701386
 20
140.96555582682291
 30
0.0
 10
6.9837253146701386
 20
140.96555582682291
 30
0.0
 10
6.9837253146701386
 20
140.96555582682291
 30
0.0
 10
2.0806654188368054
 20
134.24124620225695
 30
0.0
 10
2.0806654188368054
 20
130.00171169704859
 30
0.0
 10
2.0806654188368054
 20
130.00171169704859
 30
0.0
 10
2.0806654188368054
 20
128.54426405164929
 30
0.0
 10
2.0806654188368054
 20
128.54426405164929
 30
0.0
 10
2.0806654188368054
 20
128.54426405164929
 30
0.0
 10
-6.5446478949652773
 20
128.54426405164929
 30
0.0
 10
-6.5446478949652773
 20
128.54426405164929
 30
0.0
 10
-6.5446478949652773
 20
128.54426405164929
 30
0.0
 10
-6.5446478949652773
 20
130.49694417317707
 30
0.0
 10
-6.5446478949652773
 20
130.49694417317707
 30
0.0
 10
-6.5446478949652773
 20
134.95024685329861
 30
0.0
 10
0.2595879448784722
 20
144.94240180121525
 30
0.0
 10
0.2595879448784722
 20
144.94240180121525
 30
0.0
  0
SPLINE
  5
1D2
100
AcDbEntity
  8
LIVELLO_1
 62
     7
100
AcDbSpline
210
0.0
220
0.0
230
1.0
 70
     8
 71
     3
 72
    23
 73
    19
 74
     0
 42
0.00000001
 43
0.00000001
 40
0.0
 40
0.0
 40
0.0
 40
0.0
 40
1.0
 40
1.0
 40
1.0
 40
2.0
 40
2.0
 40
2.0
 40
3.0
 40
3.0
 40
3.0
 40
4.0
 40
4.0
 40
4.0
 40
5.0
 40
5.0
 40
5.0
 40
6.0
 40
6.0
 40
6.0
 40
6.0
 10
3.0778483072916663
 20
143.37815619574653
 30
0.0
 10
3.0778483072916663
 20
143.37815619574653
 30
0.0
 10
4.7314941406249993
 20
147.21564805772567
 30
0.0
 10
7.40919460720486
 20
150.17670762803817
 30
0.0
 10
7.40919460720486
 20
150.17670762803817
 30
0.0
 10
8.8280571831597214
 20
149.18193630642361
 30
0.0
 10
8.8280571831597214
 20
149.18193630642361
 30
0.0
 10
8.8280571831597214
 20
149.18193630642361
 30
0.0
 10
5.7763916015624996
 20
145.77215304904513
 30
0.0
 10
4.4979166666666659
 20
142.45779893663192
 30
0.0
 10
4.4979166666666659
 20
142.45779893663192
 30
0.0
 10
8.0470540364583325
 20
146.62515869140623
 30
0.0
 10
14.490071614583332
 20
148.04539930555555
 30
0.0
 10
14.490071614583332
 20
148.04539930555555
 30
0.0
 10
15.106054687499999
 20
146.33938802083333
 30
0.0
 10
15.106054687499999
 20
146.33938802083333
 30
0.0
 10
15.106054687499999
 20
146.33938802083333
 30
0.0
 10
10.298251681857638
 20
145.55838487413192
 30
0.0
 10
6.1308919270833329
 20
141.39085286458331
 30
0.0
  0
SPLINE
  5
1D1
100
AcDbEntity
  8
LIVELLO_1
 62
     7
100
AcDbSpline
210
0.0
220
0.0
230
1.0
 70
     8
 71
     3
 72
    14
 73
    10
 74
     0
 42
0.00000001
 43
0.00000001
 40
0.0
 40
0.0
 40
0.0
 40
0.0
 40
1.0
 40
1.0
 40
1.0
 40
2.0
 40
2.0
 40
2.0
 40
3.0
 40
3.0
 40
3.0
 40
3.0
 10
1.1091484917534722
 20
144.51693250868055
 30
0.0
 10
1.6066202799479166
 20
146.55315619574651
 30
0.0
 10
2.2468912760416666
 20
149.91401909722219
 30
0.0
 10
2.387451171875
 20
151.5945366753472
 30
0.0
 10
2.387451171875
 20
151.5945366753472
 30
0.0
 10
4.3563232421875
 20
151.23900282118055
 30
0.0
 10
4.3563232421875
 20
151.23900282118055
 30
0.0
 10
4.3563232421875
 20
151.23900282118055
 30
0.0
 10
3.5251939561631942
 20
145.08399522569442
 30
0.0
 10
2.744363064236111
 20
143.51992187499999
 30
0.0
  0
POLYLINE
  5
1C7
100
AcDbEntity
  8
LIVELLO_1
 62
     7
100
AcDb2dPolyline
 66
     1
 10
0.0
 20
0.0
 30
0.0
 70
     1
  0
VERTEX
  5
1C8
100
AcDbEntity
  8
LIVELLO_1
 62
     7
100
AcDbVertex
100
AcDb2dVertex
 10
-19.483049
 20
90.325925
 30
0.0
  0
VERTEX
  5
1C9
100
AcDbEntity
  8
LIVELLO_1
 62
     7
100
AcDbVertex
100
AcDb2dVertex
 10
-15.03767
 20
91.213898
 30
0.0
  0
VERTEX
  5
1CA
100
AcDbEntity
  8
LIVELLO_1
 62
     7
100
AcDbVertex
100
AcDb2dVertex
 10
10.570242
 20
91.213898
 30
0.0
  0
VERTEX
  5
1CB
100
AcDbEntity
  8
LIVELLO_1
 62
     7
100
AcDbVertex
100
AcDb2dVertex
 10
15.016654
 20
90.325925
 30
0.0
  0
VERTEX
  5
1CC
100
AcDbEntity
  8
LIVELLO_1
 62
     7
100
AcDbVertex
100
AcDb2dVertex
 10
15.016654
 20
80.919436
 30
0.0
  0
VERTEX
  5
1CD
100
AcDbEntity
  8
LIVELLO_1
 62
     7
100
AcDbVertex
100
AcDb2dVertex
 10
10.570242
 20
80.029224
 30
0.0
  0
VERTEX
  5
1CE
100
AcDbEntity
  8
LIVELLO_1
 62
     7
100
AcDbVertex
100
AcDb2dVertex
 10
-15.03767
 20
80.029224
 30
0.0
  0
VERTEX
  5
1CF
100
AcDbEntity
  8
LIVELLO_1
 62
     7
100
AcDbVertex
100
AcDb2dVertex
 10
-19.483049
 20
80.919436
 30
0.0
  0
SEQEND
  5
1D0
100
AcDbEntity
  8
LIVELLO_1
 62
     7
  0
POLYLINE
  5
1BD
100
AcDbEntity
  8
LIVELLO_1
 62
     7
100
AcDb2dPolyline
 66
     1
 10
0.0
 20
0.0
 30
0.0
 70
     1
  0
VERTEX
  5
1BE
100
AcDbEntity
  8
LIVELLO_1
 62
     7
100
AcDbVertex
100
AcDb2dVertex
 10
-19.483049
 20
90.325925
 30
0.0
  0
VERTEX
  5
1BF
100
AcDbEntity
  8
LIVELLO_1
 62
     7
100
AcDbVertex
100
AcDb2dVertex
 10
-15.03767
 20
91.213898
 30
0.0
  0
VERTEX
  5
1C0
100
AcDbEntity
  8
LIVELLO_1
 62
     7
100
AcDbVertex
100
AcDb2dVertex
 10
10.570242
 20
91.213898
 30
0.0
  0
VERTEX
  5
1C1
100
AcDbEntity
  8
LIVELLO_1
 62
     7
100
AcDbVertex
100
AcDb2dVertex
 10
15.016654
 20
90.325925
 30
0.0
  0
VERTEX
  5
1C2
100
AcDbEntity
  8
LIVELLO_1
 62
     7
100
AcDbVertex
100
AcDb2dVertex
 10
15.016654
 20
80.919436
 30
0.0
  0
VERTEX
  5
1C3
100
AcDbEntity
  8
LIVELLO_1
 62
     7
100
AcDbVertex
100
AcDb2dVertex
 10
10.570242
 20
80.029224
 30
0.0
  0
VERTEX
  5
1C4
100
AcDbEntity
  8
LIVELLO_1
 62
     7
100
AcDbVertex
100
AcDb2dVertex
 10
-15.03767
 20
80.029224
 30
0.0
  0
VERTEX
  5
1C5
100
AcDbEntity
  8
LIVELLO_1
 62
     7
100
AcDbVertex
100
AcDb2dVertex
 10
-19.483049
 20
80.919436
 30
0.0
  0
SEQEND
  5
1C6
100
AcDbEntity
  8
LIVELLO_1
 62
     7
  0
SPLINE
  5
1BC
100
AcDbEntity
  8
LIVELLO_1
 62
     7
100
AcDbSpline
210
0.0
220
0.0
230
1.0
 70
     8
 71
     3
 72
    23
 73
    19
 74
     0
 42
0.00000001
 43
0.00000001
 40
0.0
 40
0.0
 40
0.0
 40
0.0
 40
1.0
 40
1.0
 40
1.0
 40
2.0
 40
2.0
 40
2.0
 40
3.0
 40
3.0
 40
3.0
 40
4.0
 40
4.0
 40
4.0
 40
5.0
 40
5.0
 40
5.0
 40
6.0
 40
6.0
 40
6.0
 40
6.0
 10
-10.589017740885415
 20
90.32592502170138
 30
0.0
 10
-10.589017740885415
 20
90.32592502170138
 30
0.0
 10
-9.3489556206597211
 20
91.213898383246516
 30
0.0
 10
-2.2344889322916663
 20
91.213898383246516
 30
0.0
 10
4.881528049045138
 20
91.213898383246516
 30
0.0
 10
6.1215901692708332
 20
90.32592502170138
 30
0.0
 10
6.1215901692708332
 20
90.32592502170138
 30
0.0
 10
6.1215901692708332
 20
90.32592502170138
 30
0.0
 10
6.1215901692708332
 20
80.919436306423606
 30
0.0
 10
6.1215901692708332
 20
80.919436306423606
 30
0.0
 10
6.1215901692708332
 20
80.919436306423606
 30
0.0
 10
4.881528049045138
 20
80.029223632812489
 30
0.0
 10
-2.2344889322916663
 20
80.029223632812489
 30
0.0
 10
-9.3489556206597211
 20
80.029223632812489
 30
0.0
 10
-10.589017740885415
 20
80.919436306423606
 30
0.0
 10
-10.589017740885415
 20
80.919436306423606
 30
0.0
 10
-10.589017740885415
 20
80.919436306423606
 30
0.0
 10
-10.589017740885415
 20
90.32592502170138
 30
0.0
 10
-10.589017740885415
 20
90.32592502170138
 30
0.0
  0
SPLINE
  5
1BB
100
AcDbEntity
  8
LIVELLO_1
 62
     7
100
AcDbSpline
210
0.0
220
0.0
230
1.0
 70
     8
 71
     3
 72
    23
 73
    19
 74
     0
 42
0.00000001
 43
0.00000001
 40
0.0
 40
0.0
 40
0.0
 40
0.0
 40
1.0
 40
1.0
 40
1.0
 40
2.0
 40
2.0
 40
2.0
 40
3.0
 40
3.0
 40
3.0
 40
4.0
 40
4.0
 40
4.0
 40
5.0
 40
5.0
 40
5.0
 40
6.0
 40
6.0
 40
6.0
 40
6.0
 10
-10.589017740885415
 20
90.32592502170138
 30
0.0
 10
-10.589017740885415
 20
90.32592502170138
 30
0.0
 10
-9.3489556206597211
 20
91.213898383246516
 30
0.0
 10
-2.2344889322916663
 20
91.213898383246516
 30
0.0
 10
4.881528049045138
 20
91.213898383246516
 30
0.0
 10
6.1215901692708332
 20
90.32592502170138
 30
0.0
 10
6.1215901692708332
 20
90.32592502170138
 30
0.0
 10
6.1215901692708332
 20
90.32592502170138
 30
0.0
 10
6.1215901692708332
 20
80.919436306423606
 30
0.0
 10
6.1215901692708332
 20
80.919436306423606
 30
0.0
 10
6.1215901692708332
 20
80.919436306423606
 30
0.0
 10
4.881528049045138
 20
80.029223632812489
 30
0.0
 10
-2.2344889322916663
 20
80.029223632812489
 30
0.0
 10
-9.3489556206597211
 20
80.029223632812489
 30
0.0
 10
-10.589017740885415
 20
80.919436306423606
 30
0.0
 10
-10.589017740885415
 20
80.919436306423606
 30
0.0
 10
-10.589017740885415
 20
80.919436306423606
 30
0.0
 10
-10.589017740885415
 20
90.32592502170138
 30
0.0
 10
-10.589017740885415
 20
90.32592502170138
 30
0.0
  0
SPLINE
  5
1BA
100
AcDbEntity
  8
LIVELLO_1
 62
     7
100
AcDbSpline
210
0.0
220
0.0
230
1.0
 70
     8
 71
     3
 72
    23
 73
    19
 74
     0
 42
0.00000001
 43
0.00000001
 40
0.0
 40
0.0
 40
0.0
 40
0.0
 40
1.0
 40
1.0
 40
1.0
 40
2.0
 40
2.0
 40
2.0
 40
3.0
 40
3.0
 40
3.0
 40
4.0
 40
4.0
 40
4.0
 40
5.0
 40
5.0
 40
5.0
 40
6.0
 40
6.0
 40
6.0
 40
6.0
 10
6.1215901692708332
 20
90.32592502170138
 30
0.0
 10
6.1215901692708332
 20
90.32592502170138
 30
0.0
 10
7.902015516493055
 20
91.213898383246516
 30
0.0
 10
10.57024197048611
 20
91.213898383246516
 30
0.0
 10
13.238468424479166
 20
91.213898383246516
 30
0.0
 10
15.016654459635415
 20
90.32592502170138
 30
0.0
 10
15.016654459635415
 20
90.32592502170138
 30
0.0
 10
15.016654459635415
 20
90.32592502170138
 30
0.0
 10
15.016654459635415
 20
80.919436306423606
 30
0.0
 10
15.016654459635415
 20
80.919436306423606
 30
0.0
 10
15.016654459635415
 20
80.919436306423606
 30
0.0
 10
13.238468424479166
 20
80.029223632812489
 30
0.0
 10
10.57024197048611
 20
80.029223632812489
 30
0.0
 10
7.902015516493055
 20
80.029223632812489
 30
0.0
 10
6.1215901692708332
 20
80.919436306423606
 30
0.0
 10
6.1215901692708332
 20
80.919436306423606
 30
0.0
 10
6.1215901692708332
 20
80.919436306423606
 30
0.0
 10
6.1215901692708332
 20
90.32592502170138
 30
0.0
 10
6.1215901692708332
 20
90.32592502170138
 30
0.0
  0
SPLINE
  5
1B9
100
AcDbEntity
  8
LIVELLO_1
 62
     7
100
AcDbSpline
210
0.0
220
0.0
230
1.0
 70
     8
 71
     3
 72
    23
 73
    19
 74
     0
 42
0.00000001
 43
0.00000001
 40
0.0
 40
0.0
 40
0.0
 40
0.0
 40
1.0
 40
1.0
 40
1.0
 40
2.0
 40
2.0
 40
2.0
 40
3.0
 40
3.0
 40
3.0
 40
4.0
 40
4.0
 40
4.0
 40
5.0
 40
5.0
 40
5.0
 40
6.0
 40
6.0
 40
6.0
 40
6.0
 10
6.1215901692708332
 20
90.32592502170138
 30
0.0
 10
6.1215901692708332
 20
90.32592502170138
 30
0.0
 10
7.902015516493055
 20
91.213898383246516
 30
0.0
 10
10.57024197048611
 20
91.213898383246516
 30
0.0
 10
13.238468424479166
 20
91.213898383246516
 30
0.0
 10
15.016654459635415
 20
90.32592502170138
 30
0.0
 10
15.016654459635415
 20
90.32592502170138
 30
0.0
 10
15.016654459635415
 20
90.32592502170138
 30
0.0
 10
15.016654459635415
 20
80.919436306423606
 30
0.0
 10
15.016654459635415
 20
80.919436306423606
 30
0.0
 10
15.016654459635415
 20
80.919436306423606
 30
0.0
 10
13.238468424479166
 20
80.029223632812489
 30
0.0
 10
10.57024197048611
 20
80.029223632812489
 30
0.0
 10
7.902015516493055
 20
80.029223632812489
 30
0.0
 10
6.1215901692708332
 20
80.919436306423606
 30
0.0
 10
6.1215901692708332
 20
80.919436306423606
 30
0.0
 10
6.1215901692708332
 20
80.919436306423606
 30
0.0
 10
6.1215901692708332
 20
90.32592502170138
 30
0.0
 10
6.1215901692708332
 20
90.32592502170138
 30
0.0
  0
SPLINE
  5
1B8
100
AcDbEntity
  8
LIVELLO_1
 62
     7
100
AcDbSpline
210
0.0
220
0.0
230
1.0
 70
     8
 71
     3
 72
    23
 73
    19
 74
     0
 42
0.00000001
 43
0.00000001
 40
0.0
 40
0.0
 40
0.0
 40
0.0
 40
1.0
 40
1.0
 40
1.0
 40
2.0
 40
2.0
 40
2.0
 40
3.0
 40
3.0
 40
3.0
 40
4.0
 40
4.0
 40
4.0
 40
5.0
 40
5.0
 40
5.0
 40
6.0
 40
6.0
 40
6.0
 40
6.0
 10
-19.483048502604166
 20
90.32592502170138
 30
0.0
 10
-19.483048502604166
 20
90.32592502170138
 30
0.0
 10
-17.704862467447914
 20
91.213898383246516
 30
0.0
 10
-15.037669542100693
 20
91.213898383246516
 30
0.0
 10
-12.369443088107637
 20
91.213898383246516
 30
0.0
 10
-10.589017740885415
 20
90.32592502170138
 30
0.0
 10
-10.589017740885415
 20
90.32592502170138
 30
0.0
 10
-10.589017740885415
 20
90.32592502170138
 30
0.0
 10
-10.589017740885415
 20
80.919436306423606
 30
0.0
 10
-10.589017740885415
 20
80.919436306423606
 30
0.0
 10
-10.589017740885415
 20
80.919436306423606
 30
0.0
 10
-12.369443088107637
 20
80.029223632812489
 30
0.0
 10
-15.037669542100693
 20
80.029223632812489
 30
0.0
 10
-17.704862467447914
 20
80.029223632812489
 30
0.0
 10
-19.483048502604166
 20
80.919436306423606
 30
0.0
 10
-19.483048502604166
 20
80.919436306423606
 30
0.0
 10
-19.483048502604166
 20
80.919436306423606
 30
0.0
 10
-19.483048502604166
 20
90.32592502170138
 30
0.0
 10
-19.483048502604166
 20
90.32592502170138
 30
0.0
  0
SPLINE
  5
1B7
100
AcDbEntity
  8
LIVELLO_1
 62
     7
100
AcDbSpline
210
0.0
220
0.0
230
1.0
 70
     8
 71
     3
 72
    23
 73
    19
 74
     0
 42
0.00000001
 43
0.00000001
 40
0.0
 40
0.0
 40
0.0
 40
0.0
 40
1.0
 40
1.0
 40
1.0
 40
2.0
 40
2.0
 40
2.0
 40
3.0
 40
3.0
 40
3.0
 40
4.0
 40
4.0
 40
4.0
 40
5.0
 40
5.0
 40
5.0
 40
6.0
 40
6.0
 40
6.0
 40
6.0
 10
-19.483048502604166
 20
90.32592502170138
 30
0.0
 10
-19.483048502604166
 20
90.32592502170138
 30
0.0
 10
-17.704862467447914
 20
91.213898383246516
 30
0.0
 10
-15.037669542100693
 20
91.213898383246516
 30
0.0
 10
-12.369443088107637
 20
91.213898383246516
 30
0.0
 10
-10.589017740885415
 20
90.32592502170138
 30
0.0
 10
-10.589017740885415
 20
90.32592502170138
 30
0.0
 10
-10.589017740885415
 20
90.32592502170138
 30
0.0
 10
-10.589017740885415
 20
80.919436306423606
 30
0.0
 10
-10.589017740885415
 20
80.919436306423606
 30
0.0
 10
-10.589017740885415
 20
80.919436306423606
 30
0.0
 10
-12.369443088107637
 20
80.029223632812489
 30
0.0
 10
-15.037669542100693
 20
80.029223632812489
 30
0.0
 10
-17.704862467447914
 20
80.029223632812489
 30
0.0
 10
-19.483048502604166
 20
80.919436306423606
 30
0.0
 10
-19.483048502604166
 20
80.919436306423606
 30
0.0
 10
-19.483048502604166
 20
80.919436306423606
 30
0.0
 10
-19.483048502604166
 20
90.32592502170138
 30
0.0
 10
-19.483048502604166
 20
90.32592502170138
 30
0.0
  0
POLYLINE
  5
1B1
100
AcDbEntity
  8
LIVELLO_1
 62
     7
100
AcDb2dPolyline
 66
     1
 10
0.0
 20
0.0
 30
0.0
 70
     1
  0
VERTEX
  5
1B2
100
AcDbEntity
  8
LIVELLO_1
 62
     7
100
AcDbVertex
100
AcDb2dVertex
 10
-18.944752
 20
74.351017
 30
0.0
  0
VERTEX
  5
1B3
100
AcDbEntity
  8
LIVELLO_1
 62
     7
100
AcDbVertex
100
AcDb2dVertex
 10
14.478531
 20
74.351017
 30
0.0
  0
VERTEX
  5
1B4
100
AcDbEntity
  8
LIVELLO_1
 62
     7
100
AcDbVertex
100
AcDb2dVertex
 10
14.478531
 20
73.27253
 30
0.0
  0
VERTEX
  5
1B5
100
AcDbEntity
  8
LIVELLO_1
 62
     7
100
AcDbVertex
100
AcDb2dVertex
 10
-18.944752
 20
73.27253
 30
0.0
  0
SEQEND
  5
1B6
100
AcDbEntity
  8
LIVELLO_1
 62
     7
  0
POLYLINE
  5
1AB
100
AcDbEntity
  8
LIVELLO_1
 62
     7
100
AcDb2dPolyline
 66
     1
 10
0.0
 20
0.0
 30
0.0
 70
     1
  0
VERTEX
  5
1AC
100
AcDbEntity
  8
LIVELLO_1
 62
     7
100
AcDbVertex
100
AcDb2dVertex
 10
-18.944752
 20
74.351017
 30
0.0
  0
VERTEX
  5
1AD
100
AcDbEntity
  8
LIVELLO_1
 62
     7
100
AcDbVertex
100
AcDb2dVertex
 10
14.478531
 20
74.351017
 30
0.0
  0
VERTEX
  5
1AE
100
AcDbEntity
  8
LIVELLO_1
 62
     7
100
AcDbVertex
100
AcDb2dVertex
 10
14.478531
 20
73.270119
 30
0.0
  0
VERTEX
  5
1AF
100
AcDbEntity
  8
LIVELLO_1
 62
     7
100
AcDbVertex
100
AcDb2dVertex
 10
-18.944752
 20
73.270119
 30
0.0
  0
SEQEND
  5
1B0
100
AcDbEntity
  8
LIVELLO_1
 62
     7
  0
POLYLINE
  5
1A5
100
AcDbEntity
  8
LIVELLO_1
 62
     7
100
AcDb2dPolyline
 66
     1
 10
0.0
 20
0.0
 30
0.0
 70
     1
  0
VERTEX
  5
1A6
100
AcDbEntity
  8
LIVELLO_1
 62
     7
100
AcDbVertex
100
AcDb2dVertex
 10
-17.511937
 20
72.665849
 30
0.0
  0
VERTEX
  5
1A7
100
AcDbEntity
  8
LIVELLO_1
 62
     7
100
AcDbVertex
100
AcDb2dVertex
 10
-18.276748
 20
71.903621
 30
0.0
  0
VERTEX
  5
1A8
100
AcDbEntity
  8
LIVELLO_1
 62
     7
100
AcDbVertex
100
AcDb2dVertex
 10
-18.408006
 20
72.035913
 30
0.0
  0
VERTEX
  5
1A9
100
AcDbEntity
  8
LIVELLO_1
 62
     7
100
AcDbVertex
100
AcDb2dVertex
 10
-18.408006
 20
73.560712
 30
0.0
  0
SEQEND
  5
1AA
100
AcDbEntity
  8
LIVELLO_1
 62
     7
  0
POLYLINE
  5
19F
100
AcDbEntity
  8
LIVELLO_1
 62
     7
100
AcDb2dPolyline
 66
     1
 10
0.0
 20
0.0
 30
0.0
 70
     1
  0
VERTEX
  5
1A0
100
AcDbEntity
  8
LIVELLO_1
 62
     7
100
AcDbVertex
100
AcDb2dVertex
 10
-17.511937
 20
72.665849
 30
0.0
  0
VERTEX
  5
1A1
100
AcDbEntity
  8
LIVELLO_1
 62
     7
100
AcDbVertex
100
AcDb2dVertex
 10
-18.276748
 20
71.903621
 30
0.0
  0
VERTEX
  5
1A2
100
AcDbEntity
  8
LIVELLO_1
 62
     7
100
AcDbVertex
100
AcDb2dVertex
 10
-18.408006
 20
72.035913
 30
0.0
  0
VERTEX
  5
1A3
100
AcDbEntity
  8
LIVELLO_1
 62
     7
100
AcDbVertex
100
AcDb2dVertex
 10
-18.408006
 20
73.560712
 30
0.0
  0
SEQEND
  5
1A4
100
AcDbEntity
  8
LIVELLO_1
 62
     7
  0
POLYLINE
  5
19A
100
AcDbEntity
  8
LIVELLO_1
 62
     7
100
AcDb2dPolyline
 66
     1
 10
0.0
 20
0.0
 30
0.0
 70
     1
  0
VERTEX
  5
19B
100
AcDbEntity
  8
LIVELLO_1
 62
     7
100
AcDbVertex
100
AcDb2dVertex
 10
13.940407
 20
74.190476
 30
0.0
  0
VERTEX
  5
19C
100
AcDbEntity
  8
LIVELLO_1
 62
     7
100
AcDbVertex
100
AcDb2dVertex
 10
13.178007
 20
74.955287
 30
0.0
  0
VERTEX
  5
19D
100
AcDbEntity
  8
LIVELLO_1
 62
     7
100
AcDbVertex
100
AcDb2dVertex
 10
13.940407
 20
75.717687
 30
0.0
  0
SEQEND
  5
19E
100
AcDbEntity
  8
LIVELLO_1
 62
     7
  0
POLYLINE
  5
195
100
AcDbEntity
  8
LIVELLO_1
 62
     7
100
AcDb2dPolyline
 66
     1
 10
0.0
 20
0.0
 30
0.0
 70
     1
  0
VERTEX
  5
196
100
AcDbEntity
  8
LIVELLO_1
 62
     7
100
AcDbVertex
100
AcDb2dVertex
 10
13.940407
 20
74.190476
 30
0.0
  0
VERTEX
  5
197
100
AcDbEntity
  8
LIVELLO_1
 62
     7
100
AcDbVertex
100
AcDb2dVertex
 10
13.178007
 20
74.955287
 30
0.0
  0
VERTEX
  5
198
100
AcDbEntity
  8
LIVELLO_1
 62
     7
100
AcDbVertex
100
AcDb2dVertex
 10
13.940407
 20
75.717687
 30
0.0
  0
SEQEND
  5
199
100
AcDbEntity
  8
LIVELLO_1
 62
     7
  0
POLYLINE
  5
18F
100
AcDbEntity
  8
LIVELLO_1
 62
     7
100
AcDb2dPolyline
 66
     1
 10
0.0
 20
0.0
 30
0.0
 70
     1
  0
VERTEX
  5
190
100
AcDbEntity
  8
LIVELLO_1
 62
     7
100
AcDbVertex
100
AcDb2dVertex
 10
13.940407
 20
72.035913
 30
0.0
  0
VERTEX
  5
191
100
AcDbEntity
  8
LIVELLO_1
 62
     7
100
AcDbVertex
100
AcDb2dVertex
 10
11.019999
 20
74.955287
 30
0.0
  0
VERTEX
  5
192
100
AcDbEntity
  8
LIVELLO_1
 62
     7
100
AcDbVertex
100
AcDb2dVertex
 10
11.783605
 20
75.717687
 30
0.0
  0
VERTEX
  5
193
100
AcDbEntity
  8
LIVELLO_1
 62
     7
100
AcDbVertex
100
AcDb2dVertex
 10
13.940407
 20
73.560712
 30
0.0
  0
SEQEND
  5
194
100
AcDbEntity
  8
LIVELLO_1
 62
     7
  0
POLYLINE
  5
189
100
AcDbEntity
  8
LIVELLO_1
 62
     7
100
AcDb2dPolyline
 66
     1
 10
0.0
 20
0.0
 30
0.0
 70
     1
  0
VERTEX
  5
18A
100
AcDbEntity
  8
LIVELLO_1
 62
     7
100
AcDbVertex
100
AcDb2dVertex
 10
13.940407
 20
72.035913
 30
0.0
  0
VERTEX
  5
18B
100
AcDbEntity
  8
LIVELLO_1
 62
     7
100
AcDbVertex
100
AcDb2dVertex
 10
11.019999
 20
74.955287
 30
0.0
  0
VERTEX
  5
18C
100
AcDbEntity
  8
LIVELLO_1
 62
     7
100
AcDbVertex
100
AcDb2dVertex
 10
11.783605
 20
75.717687
 30
0.0
  0
VERTEX
  5
18D
100
AcDbEntity
  8
LIVELLO_1
 62
     7
100
AcDbVertex
100
AcDb2dVertex
 10
13.940407
 20
73.560712
 30
0.0
  0
SEQEND
  5
18E
100
AcDbEntity
  8
LIVELLO_1
 62
     7
  0
POLYLINE
  5
183
100
AcDbEntity
  8
LIVELLO_1
 62
     7
100
AcDb2dPolyline
 66
     1
 10
0.0
 20
0.0
 30
0.0
 70
     1
  0
VERTEX
  5
184
100
AcDbEntity
  8
LIVELLO_1
 62
     7
100
AcDbVertex
100
AcDb2dVertex
 10
12.676057
 20
72.665849
 30
0.0
  0
VERTEX
  5
185
100
AcDbEntity
  8
LIVELLO_1
 62
     7
100
AcDbVertex
100
AcDb2dVertex
 10
11.914863
 20
71.903621
 30
0.0
  0
VERTEX
  5
186
100
AcDbEntity
  8
LIVELLO_1
 62
     7
100
AcDbVertex
100
AcDb2dVertex
 10
8.863025
 20
74.955287
 30
0.0
  0
VERTEX
  5
187
100
AcDbEntity
  8
LIVELLO_1
 62
     7
100
AcDbVertex
100
AcDb2dVertex
 10
9.627664
 20
75.717687
 30
0.0
  0
SEQEND
  5
188
100
AcDbEntity
  8
LIVELLO_1
 62
     7
  0
POLYLINE
  5
17D
100
AcDbEntity
  8
LIVELLO_1
 62
     7
100
AcDb2dPolyline
 66
     1
 10
0.0
 20
0.0
 30
0.0
 70
     1
  0
VERTEX
  5
17E
100
AcDbEntity
  8
LIVELLO_1
 62
     7
100
AcDbVertex
100
AcDb2dVertex
 10
12.676057
 20
72.665849
 30
0.0
  0
VERTEX
  5
17F
100
AcDbEntity
  8
LIVELLO_1
 62
     7
100
AcDbVertex
100
AcDb2dVertex
 10
11.914863
 20
71.903621
 30
0.0
  0
VERTEX
  5
180
100
AcDbEntity
  8
LIVELLO_1
 62
     7
100
AcDbVertex
100
AcDb2dVertex
 10
8.863025
 20
74.955287
 30
0.0
  0
VERTEX
  5
181
100
AcDbEntity
  8
LIVELLO_1
 62
     7
100
AcDbVertex
100
AcDb2dVertex
 10
9.627664
 20
75.717687
 30
0.0
  0
SEQEND
  5
182
100
AcDbEntity
  8
LIVELLO_1
 62
     7
  0
POLYLINE
  5
177
100
AcDbEntity
  8
LIVELLO_1
 62
     7
100
AcDb2dPolyline
 66
     1
 10
0.0
 20
0.0
 30
0.0
 70
     1
  0
VERTEX
  5
178
100
AcDbEntity
  8
LIVELLO_1
 62
     7
100
AcDbVertex
100
AcDb2dVertex
 10
10.520116
 20
72.665849
 30
0.0
  0
VERTEX
  5
179
100
AcDbEntity
  8
LIVELLO_1
 62
     7
100
AcDbVertex
100
AcDb2dVertex
 10
9.755649
 20
71.903621
 30
0.0
  0
VERTEX
  5
17A
100
AcDbEntity
  8
LIVELLO_1
 62
     7
100
AcDbVertex
100
AcDb2dVertex
 10
6.709496
 20
74.955287
 30
0.0
  0
VERTEX
  5
17B
100
AcDbEntity
  8
LIVELLO_1
 62
     7
100
AcDbVertex
100
AcDb2dVertex
 10
7.470862
 20
75.717687
 30
0.0
  0
SEQEND
  5
17C
100
AcDbEntity
  8
LIVELLO_1
 62
     7
  0
POLYLINE
  5
171
100
AcDbEntity
  8
LIVELLO_1
 62
     7
100
AcDb2dPolyline
 66
     1
 10
0.0
 20
0.0
 30
0.0
 70
     1
  0
VERTEX
  5
172
100
AcDbEntity
  8
LIVELLO_1
 62
     7
100
AcDbVertex
100
AcDb2dVertex
 10
10.520116
 20
72.665849
 30
0.0
  0
VERTEX
  5
173
100
AcDbEntity
  8
LIVELLO_1
 62
     7
100
AcDbVertex
100
AcDb2dVertex
 10
9.755649
 20
71.903621
 30
0.0
  0
VERTEX
  5
174
100
AcDbEntity
  8
LIVELLO_1
 62
     7
100
AcDbVertex
100
AcDb2dVertex
 10
6.709496
 20
74.955287
 30
0.0
  0
VERTEX
  5
175
100
AcDbEntity
  8
LIVELLO_1
 62
     7
100
AcDbVertex
100
AcDb2dVertex
 10
7.470862
 20
75.717687
 30
0.0
  0
SEQEND
  5
176
100
AcDbEntity
  8
LIVELLO_1
 62
     7
  0
POLYLINE
  5
16B
100
AcDbEntity
  8
LIVELLO_1
 62
     7
100
AcDb2dPolyline
 66
     1
 10
0.0
 20
0.0
 30
0.0
 70
     1
  0
VERTEX
  5
16C
100
AcDbEntity
  8
LIVELLO_1
 62
     7
100
AcDbVertex
100
AcDb2dVertex
 10
8.363314
 20
72.665849
 30
0.0
  0
VERTEX
  5
16D
100
AcDbEntity
  8
LIVELLO_1
 62
     7
100
AcDbVertex
100
AcDb2dVertex
 10
7.601948
 20
71.903621
 30
0.0
  0
VERTEX
  5
16E
100
AcDbEntity
  8
LIVELLO_1
 62
     7
100
AcDbVertex
100
AcDb2dVertex
 10
4.550282
 20
74.955287
 30
0.0
  0
VERTEX
  5
16F
100
AcDbEntity
  8
LIVELLO_1
 62
     7
100
AcDbVertex
100
AcDb2dVertex
 10
5.315093
 20
75.717687
 30
0.0
  0
SEQEND
  5
170
100
AcDbEntity
  8
LIVELLO_1
 62
     7
  0
POLYLINE
  5
165
100
AcDbEntity
  8
LIVELLO_1
 62
     7
100
AcDb2dPolyline
 66
     1
 10
0.0
 20
0.0
 30
0.0
 70
     1
  0
VERTEX
  5
166
100
AcDbEntity
  8
LIVELLO_1
 62
     7
100
AcDbVertex
100
AcDb2dVertex
 10
8.363314
 20
72.665849
 30
0.0
  0
VERTEX
  5
167
100
AcDbEntity
  8
LIVELLO_1
 62
     7
100
AcDbVertex
100
AcDb2dVertex
 10
7.601948
 20
71.903621
 30
0.0
  0
VERTEX
  5
168
100
AcDbEntity
  8
LIVELLO_1
 62
     7
100
AcDbVertex
100
AcDb2dVertex
 10
4.550282
 20
74.955287
 30
0.0
  0
VERTEX
  5
169
100
AcDbEntity
  8
LIVELLO_1
 62
     7
100
AcDbVertex
100
AcDb2dVertex
 10
5.315093
 20
75.717687
 30
0.0
  0
SEQEND
  5
16A
100
AcDbEntity
  8
LIVELLO_1
 62
     7
  0
POLYLINE
  5
15F
100
AcDbEntity
  8
LIVELLO_1
 62
     7
100
AcDb2dPolyline
 66
     1
 10
0.0
 20
0.0
 30
0.0
 70
     1
  0
VERTEX
  5
160
100
AcDbEntity
  8
LIVELLO_1
 62
     7
100
AcDbVertex
100
AcDb2dVertex
 10
6.207545
 20
72.665849
 30
0.0
  0
VERTEX
  5
161
100
AcDbEntity
  8
LIVELLO_1
 62
     7
100
AcDbVertex
100
AcDb2dVertex
 10
5.446351
 20
71.903621
 30
0.0
  0
VERTEX
  5
162
100
AcDbEntity
  8
LIVELLO_1
 62
     7
100
AcDbVertex
100
AcDb2dVertex
 10
2.394514
 20
74.955287
 30
0.0
  0
VERTEX
  5
163
100
AcDbEntity
  8
LIVELLO_1
 62
     7
100
AcDbVertex
100
AcDb2dVertex
 10
3.155707
 20
75.717687
 30
0.0
  0
SEQEND
  5
164
100
AcDbEntity
  8
LIVELLO_1
 62
     7
  0
POLYLINE
  5
159
100
AcDbEntity
  8
LIVELLO_1
 62
     7
100
AcDb2dPolyline
 66
     1
 10
0.0
 20
0.0
 30
0.0
 70
     1
  0
VERTEX
  5
15A
100
AcDbEntity
  8
LIVELLO_1
 62
     7
100
AcDbVertex
100
AcDb2dVertex
 10
6.207545
 20
72.665849
 30
0.0
  0
VERTEX
  5
15B
100
AcDbEntity
  8
LIVELLO_1
 62
     7
100
AcDbVertex
100
AcDb2dVertex
 10
5.446351
 20
71.903621
 30
0.0
  0
VERTEX
  5
15C
100
AcDbEntity
  8
LIVELLO_1
 62
     7
100
AcDbVertex
100
AcDb2dVertex
 10
2.394514
 20
74.955287
 30
0.0
  0
VERTEX
  5
15D
100
AcDbEntity
  8
LIVELLO_1
 62
     7
100
AcDbVertex
100
AcDb2dVertex
 10
3.155707
 20
75.717687
 30
0.0
  0
SEQEND
  5
15E
100
AcDbEntity
  8
LIVELLO_1
 62
     7
  0
POLYLINE
  5
153
100
AcDbEntity
  8
LIVELLO_1
 62
     7
100
AcDb2dPolyline
 66
     1
 10
0.0
 20
0.0
 30
0.0
 70
     1
  0
VERTEX
  5
154
100
AcDbEntity
  8
LIVELLO_1
 62
     7
100
AcDbVertex
100
AcDb2dVertex
 10
4.050571
 20
72.665849
 30
0.0
  0
VERTEX
  5
155
100
AcDbEntity
  8
LIVELLO_1
 62
     7
100
AcDbVertex
100
AcDb2dVertex
 10
3.287138
 20
71.903621
 30
0.0
  0
VERTEX
  5
156
100
AcDbEntity
  8
LIVELLO_1
 62
     7
100
AcDbVertex
100
AcDb2dVertex
 10
0.240984
 20
74.955287
 30
0.0
  0
VERTEX
  5
157
100
AcDbEntity
  8
LIVELLO_1
 62
     7
100
AcDbVertex
100
AcDb2dVertex
 10
1.002178
 20
75.717687
 30
0.0
  0
SEQEND
  5
158
100
AcDbEntity
  8
LIVELLO_1
 62
     7
  0
POLYLINE
  5
14D
100
AcDbEntity
  8
LIVELLO_1
 62
     7
100
AcDb2dPolyline
 66
     1
 10
0.0
 20
0.0
 30
0.0
 70
     1
  0
VERTEX
  5
14E
100
AcDbEntity
  8
LIVELLO_1
 62
     7
100
AcDbVertex
100
AcDb2dVertex
 10
4.050571
 20
72.665849
 30
0.0
  0
VERTEX
  5
14F
100
AcDbEntity
  8
LIVELLO_1
 62
     7
100
AcDbVertex
100
AcDb2dVertex
 10
3.287138
 20
71.903621
 30
0.0
  0
VERTEX
  5
150
100
AcDbEntity
  8
LIVELLO_1
 62
     7
100
AcDbVertex
100
AcDb2dVertex
 10
0.240984
 20
74.955287
 30
0.0
  0
VERTEX
  5
151
100
AcDbEntity
  8
LIVELLO_1
 62
     7
100
AcDbVertex
100
AcDb2dVertex
 10
1.002178
 20
75.717687
 30
0.0
  0
SEQEND
  5
152
100
AcDbEntity
  8
LIVELLO_1
 62
     7
  0
POLYLINE
  5
147
100
AcDbEntity
  8
LIVELLO_1
 62
     7
100
AcDb2dPolyline
 66
     1
 10
0.0
 20
0.0
 30
0.0
 70
     1
  0
VERTEX
  5
148
100
AcDbEntity
  8
LIVELLO_1
 62
     7
100
AcDbVertex
100
AcDb2dVertex
 10
1.894803
 20
72.665849
 30
0.0
  0
VERTEX
  5
149
100
AcDbEntity
  8
LIVELLO_1
 62
     7
100
AcDbVertex
100
AcDb2dVertex
 10
1.133436
 20
71.903621
 30
0.0
  0
VERTEX
  5
14A
100
AcDbEntity
  8
LIVELLO_1
 62
     7
100
AcDbVertex
100
AcDb2dVertex
 10
-1.918229
 20
74.955287
 30
0.0
  0
VERTEX
  5
14B
100
AcDbEntity
  8
LIVELLO_1
 62
     7
100
AcDbVertex
100
AcDb2dVertex
 10
-1.154796
 20
75.717687
 30
0.0
  0
SEQEND
  5
14C
100
AcDbEntity
  8
LIVELLO_1
 62
     7
  0
POLYLINE
  5
141
100
AcDbEntity
  8
LIVELLO_1
 62
     7
100
AcDb2dPolyline
 66
     1
 10
0.0
 20
0.0
 30
0.0
 70
     1
  0
VERTEX
  5
142
100
AcDbEntity
  8
LIVELLO_1
 62
     7
100
AcDbVertex
100
AcDb2dVertex
 10
1.894803
 20
72.665849
 30
0.0
  0
VERTEX
  5
143
100
AcDbEntity
  8
LIVELLO_1
 62
     7
100
AcDbVertex
100
AcDb2dVertex
 10
1.133436
 20
71.903621
 30
0.0
  0
VERTEX
  5
144
100
AcDbEntity
  8
LIVELLO_1
 62
     7
100
AcDbVertex
100
AcDb2dVertex
 10
-1.918229
 20
74.955287
 30
0.0
  0
VERTEX
  5
145
100
AcDbEntity
  8
LIVELLO_1
 62
     7
100
AcDbVertex
100
AcDb2dVertex
 10
-1.154796
 20
75.717687
 30
0.0
  0
SEQEND
  5
146
100
AcDbEntity
  8
LIVELLO_1
 62
     7
  0
POLYLINE
  5
13B
100
AcDbEntity
  8
LIVELLO_1
 62
     7
100
AcDb2dPolyline
 66
     1
 10
0.0
 20
0.0
 30
0.0
 70
     1
  0
VERTEX
  5
13C
100
AcDbEntity
  8
LIVELLO_1
 62
     7
100
AcDbVertex
100
AcDb2dVertex
 10
-0.262172
 20
72.665849
 30
0.0
  0
VERTEX
  5
13D
100
AcDbEntity
  8
LIVELLO_1
 62
     7
100
AcDbVertex
100
AcDb2dVertex
 10
-1.023366
 20
71.903621
 30
0.0
  0
VERTEX
  5
13E
100
AcDbEntity
  8
LIVELLO_1
 62
     7
100
AcDbVertex
100
AcDb2dVertex
 10
-4.073998
 20
74.955287
 30
0.0
  0
VERTEX
  5
13F
100
AcDbEntity
  8
LIVELLO_1
 62
     7
100
AcDbVertex
100
AcDb2dVertex
 10
-3.310565
 20
75.717687
 30
0.0
  0
SEQEND
  5
140
100
AcDbEntity
  8
LIVELLO_1
 62
     7
  0
POLYLINE
  5
135
100
AcDbEntity
  8
LIVELLO_1
 62
     7
100
AcDb2dPolyline
 66
     1
 10
0.0
 20
0.0
 30
0.0
 70
     1
  0
VERTEX
  5
136
100
AcDbEntity
  8
LIVELLO_1
 62
     7
100
AcDbVertex
100
AcDb2dVertex
 10
-0.262172
 20
72.665849
 30
0.0
  0
VERTEX
  5
137
100
AcDbEntity
  8
LIVELLO_1
 62
     7
100
AcDbVertex
100
AcDb2dVertex
 10
-1.023366
 20
71.903621
 30
0.0
  0
VERTEX
  5
138
100
AcDbEntity
  8
LIVELLO_1
 62
     7
100
AcDbVertex
100
AcDb2dVertex
 10
-4.073998
 20
74.955287
 30
0.0
  0
VERTEX
  5
139
100
AcDbEntity
  8
LIVELLO_1
 62
     7
100
AcDbVertex
100
AcDb2dVertex
 10
-3.310565
 20
75.717687
 30
0.0
  0
SEQEND
  5
13A
100
AcDbEntity
  8
LIVELLO_1
 62
     7
  0
POLYLINE
  5
12F
100
AcDbEntity
  8
LIVELLO_1
 62
     7
100
AcDb2dPolyline
 66
     1
 10
0.0
 20
0.0
 30
0.0
 70
     1
  0
VERTEX
  5
130
100
AcDbEntity
  8
LIVELLO_1
 62
     7
100
AcDbVertex
100
AcDb2dVertex
 10
-2.41794
 20
72.665849
 30
0.0
  0
VERTEX
  5
131
100
AcDbEntity
  8
LIVELLO_1
 62
     7
100
AcDbVertex
100
AcDb2dVertex
 10
-3.181373
 20
71.903621
 30
0.0
  0
VERTEX
  5
132
100
AcDbEntity
  8
LIVELLO_1
 62
     7
100
AcDbVertex
100
AcDb2dVertex
 10
-6.230972
 20
74.955287
 30
0.0
  0
VERTEX
  5
133
100
AcDbEntity
  8
LIVELLO_1
 62
     7
100
AcDbVertex
100
AcDb2dVertex
 10
-5.467367
 20
75.717687
 30
0.0
  0
SEQEND
  5
134
100
AcDbEntity
  8
LIVELLO_1
 62
     7
  0
POLYLINE
  5
129
100
AcDbEntity
  8
LIVELLO_1
 62
     7
100
AcDb2dPolyline
 66
     1
 10
0.0
 20
0.0
 30
0.0
 70
     1
  0
VERTEX
  5
12A
100
AcDbEntity
  8
LIVELLO_1
 62
     7
100
AcDbVertex
100
AcDb2dVertex
 10
-2.41794
 20
72.665849
 30
0.0
  0
VERTEX
  5
12B
100
AcDbEntity
  8
LIVELLO_1
 62
     7
100
AcDbVertex
100
AcDb2dVertex
 10
-3.181373
 20
71.903621
 30
0.0
  0
VERTEX
  5
12C
100
AcDbEntity
  8
LIVELLO_1
 62
     7
100
AcDbVertex
100
AcDb2dVertex
 10
-6.230972
 20
74.955287
 30
0.0
  0
VERTEX
  5
12D
100
AcDbEntity
  8
LIVELLO_1
 62
     7
100
AcDbVertex
100
AcDb2dVertex
 10
-5.467367
 20
75.717687
 30
0.0
  0
SEQEND
  5
12E
100
AcDbEntity
  8
LIVELLO_1
 62
     7
  0
POLYLINE
  5
123
100
AcDbEntity
  8
LIVELLO_1
 62
     7
100
AcDb2dPolyline
 66
     1
 10
0.0
 20
0.0
 30
0.0
 70
     1
  0
VERTEX
  5
124
100
AcDbEntity
  8
LIVELLO_1
 62
     7
100
AcDbVertex
100
AcDb2dVertex
 10
-4.574915
 20
72.665849
 30
0.0
  0
VERTEX
  5
125
100
AcDbEntity
  8
LIVELLO_1
 62
     7
100
AcDbVertex
100
AcDb2dVertex
 10
-5.33852
 20
71.903621
 30
0.0
  0
VERTEX
  5
126
100
AcDbEntity
  8
LIVELLO_1
 62
     7
100
AcDbVertex
100
AcDb2dVertex
 10
-8.38674
 20
74.955287
 30
0.0
  0
VERTEX
  5
127
100
AcDbEntity
  8
LIVELLO_1
 62
     7
100
AcDbVertex
100
AcDb2dVertex
 10
-7.625719
 20
75.717687
 30
0.0
  0
SEQEND
  5
128
100
AcDbEntity
  8
LIVELLO_1
 62
     7
  0
POLYLINE
  5
11D
100
AcDbEntity
  8
LIVELLO_1
 62
     7
100
AcDb2dPolyline
 66
     1
 10
0.0
 20
0.0
 30
0.0
 70
     1
  0
VERTEX
  5
11E
100
AcDbEntity
  8
LIVELLO_1
 62
     7
100
AcDbVertex
100
AcDb2dVertex
 10
-4.574915
 20
72.665849
 30
0.0
  0
VERTEX
  5
11F
100
AcDbEntity
  8
LIVELLO_1
 62
     7
100
AcDbVertex
100
AcDb2dVertex
 10
-5.33852
 20
71.903621
 30
0.0
  0
VERTEX
  5
120
100
AcDbEntity
  8
LIVELLO_1
 62
     7
100
AcDbVertex
100
AcDb2dVertex
 10
-8.38674
 20
74.955287
 30
0.0
  0
VERTEX
  5
121
100
AcDbEntity
  8
LIVELLO_1
 62
     7
100
AcDbVertex
100
AcDb2dVertex
 10
-7.625719
 20
75.717687
 30
0.0
  0
SEQEND
  5
122
100
AcDbEntity
  8
LIVELLO_1
 62
     7
  0
POLYLINE
  5
117
100
AcDbEntity
  8
LIVELLO_1
 62
     7
100
AcDb2dPolyline
 66
     1
 10
0.0
 20
0.0
 30
0.0
 70
     1
  0
VERTEX
  5
118
100
AcDbEntity
  8
LIVELLO_1
 62
     7
100
AcDbVertex
100
AcDb2dVertex
 10
-6.730683
 20
72.665849
 30
0.0
  0
VERTEX
  5
119
100
AcDbEntity
  8
LIVELLO_1
 62
     7
100
AcDbVertex
100
AcDb2dVertex
 10
-7.491877
 20
71.903621
 30
0.0
  0
VERTEX
  5
11A
100
AcDbEntity
  8
LIVELLO_1
 62
     7
100
AcDbVertex
100
AcDb2dVertex
 10
-10.543887
 20
74.955287
 30
0.0
  0
VERTEX
  5
11B
100
AcDbEntity
  8
LIVELLO_1
 62
     7
100
AcDbVertex
100
AcDb2dVertex
 10
-9.782521
 20
75.717687
 30
0.0
  0
SEQEND
  5
11C
100
AcDbEntity
  8
LIVELLO_1
 62
     7
  0
POLYLINE
  5
111
100
AcDbEntity
  8
LIVELLO_1
 62
     7
100
AcDb2dPolyline
 66
     1
 10
0.0
 20
0.0
 30
0.0
 70
     1
  0
VERTEX
  5
112
100
AcDbEntity
  8
LIVELLO_1
 62
     7
100
AcDbVertex
100
AcDb2dVertex
 10
-6.730683
 20
72.665849
 30
0.0
  0
VERTEX
  5
113
100
AcDbEntity
  8
LIVELLO_1
 62
     7
100
AcDbVertex
100
AcDb2dVertex
 10
-7.491877
 20
71.903621
 30
0.0
  0
VERTEX
  5
114
100
AcDbEntity
  8
LIVELLO_1
 62
     7
100
AcDbVertex
100
AcDb2dVertex
 10
-10.543887
 20
74.955287
 30
0.0
  0
VERTEX
  5
115
100
AcDbEntity
  8
LIVELLO_1
 62
     7
100
AcDbVertex
100
AcDb2dVertex
 10
-9.782521
 20
75.717687
 30
0.0
  0
SEQEND
  5
116
100
AcDbEntity
  8
LIVELLO_1
 62
     7
  0
POLYLINE
  5
10B
100
AcDbEntity
  8
LIVELLO_1
 62
     7
100
AcDb2dPolyline
 66
     1
 10
0.0
 20
0.0
 30
0.0
 70
     1
  0
VERTEX
  5
10C
100
AcDbEntity
  8
LIVELLO_1
 62
     7
100
AcDbVertex
100
AcDb2dVertex
 10
-8.887657
 20
72.665849
 30
0.0
  0
VERTEX
  5
10D
100
AcDbEntity
  8
LIVELLO_1
 62
     7
100
AcDbVertex
100
AcDb2dVertex
 10
-9.651263
 20
71.903621
 30
0.0
  0
VERTEX
  5
10E
100
AcDbEntity
  8
LIVELLO_1
 62
     7
100
AcDbVertex
100
AcDb2dVertex
 10
-12.699483
 20
74.955287
 30
0.0
  0
VERTEX
  5
10F
100
AcDbEntity
  8
LIVELLO_1
 62
     7
100
AcDbVertex
100
AcDb2dVertex
 10
-11.935878
 20
75.717687
 30
0.0
  0
SEQEND
  5
110
100
AcDbEntity
  8
LIVELLO_1
 62
     7
  0
POLYLINE
  5
105
100
AcDbEntity
  8
LIVELLO_1
 62
     7
100
AcDb2dPolyline
 66
     1
 10
0.0
 20
0.0
 30
0.0
 70
     1
  0
VERTEX
  5
106
100
AcDbEntity
  8
LIVELLO_1
 62
     7
100
AcDbVertex
100
AcDb2dVertex
 10
-8.887657
 20
72.665849
 30
0.0
  0
VERTEX
  5
107
100
AcDbEntity
  8
LIVELLO_1
 62
     7
100
AcDbVertex
100
AcDb2dVertex
 10
-9.651263
 20
71.903621
 30
0.0
  0
VERTEX
  5
108
100
AcDbEntity
  8
LIVELLO_1
 62
     7
100
AcDbVertex
100
AcDb2dVertex
 10
-12.699483
 20
74.955287
 30
0.0
  0
VERTEX
  5
109
100
AcDbEntity
  8
LIVELLO_1
 62
     7
100
AcDbVertex
100
AcDb2dVertex
 10
-11.935878
 20
75.717687
 30
0.0
  0
SEQEND
  5
10A
100
AcDbEntity
  8
LIVELLO_1
 62
     7
  0
POLYLINE
  5
FF
100
AcDbEntity
  8
LIVELLO_1
 62
     7
100
AcDb2dPolyline
 66
     1
 10
0.0
 20
0.0
 30
0.0
 70
     1
  0
VERTEX
  5
100
100
AcDbEntity
  8
LIVELLO_1
 62
     7
100
AcDbVertex
100
AcDb2dVertex
 10
-11.043426
 20
72.665849
 30
0.0
  0
VERTEX
  5
101
100
AcDbEntity
  8
LIVELLO_1
 62
     7
100
AcDbVertex
100
AcDb2dVertex
 10
-11.807031
 20
71.903621
 30
0.0
  0
VERTEX
  5
102
100
AcDbEntity
  8
LIVELLO_1
 62
     7
100
AcDbVertex
100
AcDb2dVertex
 10
-14.856458
 20
74.955287
 30
0.0
  0
VERTEX
  5
103
100
AcDbEntity
  8
LIVELLO_1
 62
     7
100
AcDbVertex
100
AcDb2dVertex
 10
-14.095264
 20
75.717687
 30
0.0
  0
SEQEND
  5
104
100
AcDbEntity
  8
LIVELLO_1
 62
     7
  0
POLYLINE
  5
F9
100
AcDbEntity
  8
LIVELLO_1
 62
     7
100
AcDb2dPolyline
 66
     1
 10
0.0
 20
0.0
 30
0.0
 70
     1
  0
VERTEX
  5
FA
100
AcDbEntity
  8
LIVELLO_1
 62
     7
100
AcDbVertex
100
AcDb2dVertex
 10
-11.043426
 20
72.665849
 30
0.0
  0
VERTEX
  5
FB
100
AcDbEntity
  8
LIVELLO_1
 62
     7
100
AcDbVertex
100
AcDb2dVertex
 10
-11.807031
 20
71.903621
 30
0.0
  0
VERTEX
  5
FC
100
AcDbEntity
  8
LIVELLO_1
 62
     7
100
AcDbVertex
100
AcDb2dVertex
 10
-14.856458
 20
74.955287
 30
0.0
  0
VERTEX
  5
FD
100
AcDbEntity
  8
LIVELLO_1
 62
     7
100
AcDbVertex
100
AcDb2dVertex
 10
-14.095264
 20
75.717687
 30
0.0
  0
SEQEND
  5
FE
100
AcDbEntity
  8
LIVELLO_1
 62
     7
  0
POLYLINE
  5
F3
100
AcDbEntity
  8
LIVELLO_1
 62
     7
100
AcDb2dPolyline
 66
     1
 10
0.0
 20
0.0
 30
0.0
 70
     1
  0
VERTEX
  5
F4
100
AcDbEntity
  8
LIVELLO_1
 62
     7
100
AcDbVertex
100
AcDb2dVertex
 10
-13.199367
 20
72.665849
 30
0.0
  0
VERTEX
  5
F5
100
AcDbEntity
  8
LIVELLO_1
 62
     7
100
AcDbVertex
100
AcDb2dVertex
 10
-13.961594
 20
71.903621
 30
0.0
  0
VERTEX
  5
F6
100
AcDbEntity
  8
LIVELLO_1
 62
     7
100
AcDbVertex
100
AcDb2dVertex
 10
-17.012398
 20
74.955287
 30
0.0
  0
VERTEX
  5
F7
100
AcDbEntity
  8
LIVELLO_1
 62
     7
100
AcDbVertex
100
AcDb2dVertex
 10
-16.248793
 20
75.717687
 30
0.0
  0
SEQEND
  5
F8
100
AcDbEntity
  8
LIVELLO_1
 62
     7
  0
POLYLINE
  5
ED
100
AcDbEntity
  8
LIVELLO_1
 62
     7
100
AcDb2dPolyline
 66
     1
 10
0.0
 20
0.0
 30
0.0
 70
     1
  0
VERTEX
  5
EE
100
AcDbEntity
  8
LIVELLO_1
 62
     7
100
AcDbVertex
100
AcDb2dVertex
 10
-13.199367
 20
72.665849
 30
0.0
  0
VERTEX
  5
EF
100
AcDbEntity
  8
LIVELLO_1
 62
     7
100
AcDbVertex
100
AcDb2dVertex
 10
-13.961594
 20
71.903621
 30
0.0
  0
VERTEX
  5
F0
100
AcDbEntity
  8
LIVELLO_1
 62
     7
100
AcDbVertex
100
AcDb2dVertex
 10
-17.012398
 20
74.955287
 30
0.0
  0
VERTEX
  5
F1
100
AcDbEntity
  8
LIVELLO_1
 62
     7
100
AcDbVertex
100
AcDb2dVertex
 10
-16.248793
 20
75.717687
 30
0.0
  0
SEQEND
  5
F2
100
AcDbEntity
  8
LIVELLO_1
 62
     7
  0
POLYLINE
  5
E7
100
AcDbEntity
  8
LIVELLO_1
 62
     7
100
AcDb2dPolyline
 66
     1
 10
0.0
 20
0.0
 30
0.0
 70
     1
  0
VERTEX
  5
E8
100
AcDbEntity
  8
LIVELLO_1
 62
     7
100
AcDbVertex
100
AcDb2dVertex
 10
-15.356169
 20
72.665849
 30
0.0
  0
VERTEX
  5
E9
100
AcDbEntity
  8
LIVELLO_1
 62
     7
100
AcDbVertex
100
AcDb2dVertex
 10
-16.119774
 20
71.903621
 30
0.0
  0
VERTEX
  5
EA
100
AcDbEntity
  8
LIVELLO_1
 62
     7
100
AcDbVertex
100
AcDb2dVertex
 10
-18.408006
 20
74.190476
 30
0.0
  0
VERTEX
  5
EB
100
AcDbEntity
  8
LIVELLO_1
 62
     7
100
AcDbVertex
100
AcDb2dVertex
 10
-18.408006
 20
75.717687
 30
0.0
  0
SEQEND
  5
EC
100
AcDbEntity
  8
LIVELLO_1
 62
     7
  0
POLYLINE
  5
E1
100
AcDbEntity
  8
LIVELLO_1
 62
     7
100
AcDb2dPolyline
 66
     1
 10
0.0
 20
0.0
 30
0.0
 70
     1
  0
VERTEX
  5
E2
100
AcDbEntity
  8
LIVELLO_1
 62
     7
100
AcDbVertex
100
AcDb2dVertex
 10
-15.356169
 20
72.665849
 30
0.0
  0
VERTEX
  5
E3
100
AcDbEntity
  8
LIVELLO_1
 62
     7
100
AcDbVertex
100
AcDb2dVertex
 10
-16.119774
 20
71.903621
 30
0.0
  0
VERTEX
  5
E4
100
AcDbEntity
  8
LIVELLO_1
 62
     7
100
AcDbVertex
100
AcDb2dVertex
 10
-18.408006
 20
74.190476
 30
0.0
  0
VERTEX
  5
E5
100
AcDbEntity
  8
LIVELLO_1
 62
     7
100
AcDbVertex
100
AcDb2dVertex
 10
-18.408006
 20
75.717687
 30
0.0
  0
SEQEND
  5
E6
100
AcDbEntity
  8
LIVELLO_1
 62
     7
  0
POLYLINE
  5
DB
100
AcDbEntity
  8
LIVELLO_1
 62
     7
100
AcDb2dPolyline
 66
     1
 10
0.0
 20
0.0
 30
0.0
 70
     1
  0
VERTEX
  5
DC
100
AcDbEntity
  8
LIVELLO_1
 62
     7
100
AcDbVertex
100
AcDb2dVertex
 10
-19.861837
 20
75.717687
 30
0.0
  0
VERTEX
  5
DD
100
AcDbEntity
  8
LIVELLO_1
 62
     7
100
AcDbVertex
100
AcDb2dVertex
 10
-18.783522
 20
75.717687
 30
0.0
  0
VERTEX
  5
DE
100
AcDbEntity
  8
LIVELLO_1
 62
     7
100
AcDbVertex
100
AcDb2dVertex
 10
-18.783522
 20
71.943068
 30
0.0
  0
VERTEX
  5
DF
100
AcDbEntity
  8
LIVELLO_1
 62
     7
100
AcDbVertex
100
AcDb2dVertex
 10
-19.861837
 20
71.943068
 30
0.0
  0
SEQEND
  5
E0
100
AcDbEntity
  8
LIVELLO_1
 62
     7
  0
POLYLINE
  5
D5
100
AcDbEntity
  8
LIVELLO_1
 62
     7
100
AcDb2dPolyline
 66
     1
 10
0.0
 20
0.0
 30
0.0
 70
     1
  0
VERTEX
  5
D6
100
AcDbEntity
  8
LIVELLO_1
 62
     7
100
AcDbVertex
100
AcDb2dVertex
 10
-19.861837
 20
75.717687
 30
0.0
  0
VERTEX
  5
D7
100
AcDbEntity
  8
LIVELLO_1
 62
     7
100
AcDbVertex
100
AcDb2dVertex
 10
-18.783522
 20
75.717687
 30
0.0
  0
VERTEX
  5
D8
100
AcDbEntity
  8
LIVELLO_1
 62
     7
100
AcDbVertex
100
AcDb2dVertex
 10
-18.783522
 20
71.943068
 30
0.0
  0
VERTEX
  5
D9
100
AcDbEntity
  8
LIVELLO_1
 62
     7
100
AcDbVertex
100
AcDb2dVertex
 10
-19.861837
 20
71.943068
 30
0.0
  0
SEQEND
  5
DA
100
AcDbEntity
  8
LIVELLO_1
 62
     7
  0
POLYLINE
  5
CF
100
AcDbEntity
  8
LIVELLO_1
 62
     7
100
AcDb2dPolyline
 66
     1
 10
0.0
 20
0.0
 30
0.0
 70
     1
  0
VERTEX
  5
D0
100
AcDbEntity
  8
LIVELLO_1
 62
     7
100
AcDbVertex
100
AcDb2dVertex
 10
14.31575
 20
75.717687
 30
0.0
  0
VERTEX
  5
D1
100
AcDbEntity
  8
LIVELLO_1
 62
     7
100
AcDbVertex
100
AcDb2dVertex
 10
15.394237
 20
75.717687
 30
0.0
  0
VERTEX
  5
D2
100
AcDbEntity
  8
LIVELLO_1
 62
     7
100
AcDbVertex
100
AcDb2dVertex
 10
15.394237
 20
71.943068
 30
0.0
  0
VERTEX
  5
D3
100
AcDbEntity
  8
LIVELLO_1
 62
     7
100
AcDbVertex
100
AcDb2dVertex
 10
14.31575
 20
71.943068
 30
0.0
  0
SEQEND
  5
D4
100
AcDbEntity
  8
LIVELLO_1
 62
     7
  0
POLYLINE
  5
C9
100
AcDbEntity
  8
LIVELLO_1
 62
     7
100
AcDb2dPolyline
 66
     1
 10
0.0
 20
0.0
 30
0.0
 70
     1
  0
VERTEX
  5
CA
100
AcDbEntity
  8
LIVELLO_1
 62
     7
100
AcDbVertex
100
AcDb2dVertex
 10
14.31575
 20
75.717687
 30
0.0
  0
VERTEX
  5
CB
100
AcDbEntity
  8
LIVELLO_1
 62
     7
100
AcDbVertex
100
AcDb2dVertex
 10
15.394237
 20
75.717687
 30
0.0
  0
VERTEX
  5
CC
100
AcDbEntity
  8
LIVELLO_1
 62
     7
100
AcDbVertex
100
AcDb2dVertex
 10
15.394237
 20
71.943068
 30
0.0
  0
VERTEX
  5
CD
100
AcDbEntity
  8
LIVELLO_1
 62
     7
100
AcDbVertex
100
AcDb2dVertex
 10
14.31575
 20
71.943068
 30
0.0
  0
SEQEND
  5
CE
100
AcDbEntity
  8
LIVELLO_1
 62
     7
  0
POLYLINE
  5
96
100
AcDbEntity
  8
LIVELLO_1
 62
     7
100
AcDb2dPolyline
 66
     1
 10
0.0
 20
0.0
 30
0.0
 70
     1
  0
VERTEX
  5
97
100
AcDbEntity
  8
LIVELLO_1
 62
     7
100
AcDbVertex
100
AcDb2dVertex
 10
-11.935878
 20
68.170516
 30
0.0
  0
VERTEX
  5
98
100
AcDbEntity
  8
LIVELLO_1
 62
     7
100
AcDbVertex
100
AcDb2dVertex
 10
7.561468
 20
68.170516
 30
0.0
  0
VERTEX
  5
99
100
AcDbEntity
  8
LIVELLO_1
 62
     7
100
AcDbVertex
100
AcDb2dVertex
 10
8.054289
 20
67.677867
 30
0.0
  0
VERTEX
  5
9A
100
AcDbEntity
  8
LIVELLO_1
 62
     7
100
AcDbVertex
100
AcDb2dVertex
 10
7.470862
 20
67.092201
 30
0.0
  0
VERTEX
  5
9B
100
AcDbEntity
  8
LIVELLO_1
 62
     7
100
AcDbVertex
100
AcDb2dVertex
 10
8.546937
 20
66.013714
 30
0.0
  0
VERTEX
  5
9C
100
AcDbEntity
  8
LIVELLO_1
 62
     7
100
AcDbVertex
100
AcDb2dVertex
 10
7.470862
 20
64.935227
 30
0.0
  0
VERTEX
  5
9D
100
AcDbEntity
  8
LIVELLO_1
 62
     7
100
AcDbVertex
100
AcDb2dVertex
 10
8.546937
 20
63.856912
 30
0.0
  0
VERTEX
  5
9E
100
AcDbEntity
  8
LIVELLO_1
 62
     7
100
AcDbVertex
100
AcDb2dVertex
 10
7.470862
 20
62.778425
 30
0.0
  0
VERTEX
  5
9F
100
AcDbEntity
  8
LIVELLO_1
 62
     7
100
AcDbVertex
100
AcDb2dVertex
 10
8.546937
 20
61.699765
 30
0.0
  0
VERTEX
  5
A0
100
AcDbEntity
  8
LIVELLO_1
 62
     7
100
AcDbVertex
100
AcDb2dVertex
 10
7.470862
 20
60.62369
 30
0.0
  0
VERTEX
  5
A1
100
AcDbEntity
  8
LIVELLO_1
 62
     7
100
AcDbVertex
100
AcDb2dVertex
 10
8.546937
 20
59.545203
 30
0.0
  0
VERTEX
  5
A2
100
AcDbEntity
  8
LIVELLO_1
 62
     7
100
AcDbVertex
100
AcDb2dVertex
 10
7.470862
 20
58.466715
 30
0.0
  0
VERTEX
  5
A3
100
AcDbEntity
  8
LIVELLO_1
 62
     7
100
AcDbVertex
100
AcDb2dVertex
 10
8.546937
 20
57.388401
 30
0.0
  0
VERTEX
  5
A4
100
AcDbEntity
  8
LIVELLO_1
 62
     7
100
AcDbVertex
100
AcDb2dVertex
 10
7.470862
 20
56.309741
 30
0.0
  0
VERTEX
  5
A5
100
AcDbEntity
  8
LIVELLO_1
 62
     7
100
AcDbVertex
100
AcDb2dVertex
 10
8.546937
 20
55.231254
 30
0.0
  0
VERTEX
  5
A6
100
AcDbEntity
  8
LIVELLO_1
 62
     7
100
AcDbVertex
100
AcDb2dVertex
 10
7.470862
 20
54.152767
 30
0.0
  0
VERTEX
  5
A7
100
AcDbEntity
  8
LIVELLO_1
 62
     7
100
AcDbVertex
100
AcDb2dVertex
 10
8.546937
 20
53.07428
 30
0.0
  0
VERTEX
  5
A8
100
AcDbEntity
  8
LIVELLO_1
 62
     7
100
AcDbVertex
100
AcDb2dVertex
 10
7.470862
 20
51.998204
 30
0.0
  0
VERTEX
  5
A9
100
AcDbEntity
  8
LIVELLO_1
 62
     7
100
AcDbVertex
100
AcDb2dVertex
 10
8.546937
 20
50.919717
 30
0.0
  0
VERTEX
  5
AA
100
AcDbEntity
  8
LIVELLO_1
 62
     7
100
AcDbVertex
100
AcDb2dVertex
 10
7.470862
 20
49.84123
 30
0.0
  0
VERTEX
  5
AB
100
AcDbEntity
  8
LIVELLO_1
 62
     7
100
AcDbVertex
100
AcDb2dVertex
 10
8.546937
 20
48.762743
 30
0.0
  0
VERTEX
  5
AC
100
AcDbEntity
  8
LIVELLO_1
 62
     7
100
AcDbVertex
100
AcDb2dVertex
 10
7.470862
 20
47.684256
 30
0.0
  0
VERTEX
  5
AD
100
AcDbEntity
  8
LIVELLO_1
 62
     7
100
AcDbVertex
100
AcDb2dVertex
 10
8.546937
 20
46.605769
 30
0.0
  0
VERTEX
  5
AE
100
AcDbEntity
  8
LIVELLO_1
 62
     7
100
AcDbVertex
100
AcDb2dVertex
 10
7.470862
 20
45.527454
 30
0.0
  0
VERTEX
  5
AF
100
AcDbEntity
  8
LIVELLO_1
 62
     7
100
AcDbVertex
100
AcDb2dVertex
 10
8.546937
 20
44.448794
 30
0.0
  0
VERTEX
  5
B0
100
AcDbEntity
  8
LIVELLO_1
 62
     7
100
AcDbVertex
100
AcDb2dVertex
 10
7.470862
 20
43.372719
 30
0.0
  0
VERTEX
  5
B1
100
AcDbEntity
  8
LIVELLO_1
 62
     7
100
AcDbVertex
100
AcDb2dVertex
 10
-13.014537
 20
43.372719
 30
0.0
  0
VERTEX
  5
B2
100
AcDbEntity
  8
LIVELLO_1
 62
     7
100
AcDbVertex
100
AcDb2dVertex
 10
-11.935878
 20
44.448794
 30
0.0
  0
VERTEX
  5
B3
100
AcDbEntity
  8
LIVELLO_1
 62
     7
100
AcDbVertex
100
AcDb2dVertex
 10
-13.014537
 20
45.527454
 30
0.0
  0
VERTEX
  5
B4
100
AcDbEntity
  8
LIVELLO_1
 62
     7
100
AcDbVertex
100
AcDb2dVertex
 10
-11.935878
 20
46.605769
 30
0.0
  0
VERTEX
  5
B5
100
AcDbEntity
  8
LIVELLO_1
 62
     7
100
AcDbVertex
100
AcDb2dVertex
 10
-13.014537
 20
47.684256
 30
0.0
  0
VERTEX
  5
B6
100
AcDbEntity
  8
LIVELLO_1
 62
     7
100
AcDbVertex
100
AcDb2dVertex
 10
-11.935878
 20
48.762743
 30
0.0
  0
VERTEX
  5
B7
100
AcDbEntity
  8
LIVELLO_1
 62
     7
100
AcDbVertex
100
AcDb2dVertex
 10
-13.014537
 20
49.84123
 30
0.0
  0
VERTEX
  5
B8
100
AcDbEntity
  8
LIVELLO_1
 62
     7
100
AcDbVertex
100
AcDb2dVertex
 10
-11.935878
 20
50.919717
 30
0.0
  0
VERTEX
  5
B9
100
AcDbEntity
  8
LIVELLO_1
 62
     7
100
AcDbVertex
100
AcDb2dVertex
 10
-13.014537
 20
51.998204
 30
0.0
  0
VERTEX
  5
BA
100
AcDbEntity
  8
LIVELLO_1
 62
     7
100
AcDbVertex
100
AcDb2dVertex
 10
-11.935878
 20
53.07428
 30
0.0
  0
VERTEX
  5
BB
100
AcDbEntity
  8
LIVELLO_1
 62
     7
100
AcDbVertex
100
AcDb2dVertex
 10
-13.014537
 20
54.152767
 30
0.0
  0
VERTEX
  5
BC
100
AcDbEntity
  8
LIVELLO_1
 62
     7
100
AcDbVertex
100
AcDb2dVertex
 10
-11.935878
 20
55.231254
 30
0.0
  0
VERTEX
  5
BD
100
AcDbEntity
  8
LIVELLO_1
 62
     7
100
AcDbVertex
100
AcDb2dVertex
 10
-13.014537
 20
56.309741
 30
0.0
  0
VERTEX
  5
BE
100
AcDbEntity
  8
LIVELLO_1
 62
     7
100
AcDbVertex
100
AcDb2dVertex
 10
-11.935878
 20
57.388401
 30
0.0
  0
VERTEX
  5
BF
100
AcDbEntity
  8
LIVELLO_1
 62
     7
100
AcDbVertex
100
AcDb2dVertex
 10
-13.014537
 20
58.466715
 30
0.0
  0
VERTEX
  5
C0
100
AcDbEntity
  8
LIVELLO_1
 62
     7
100
AcDbVertex
100
AcDb2dVertex
 10
-11.935878
 20
59.545203
 30
0.0
  0
VERTEX
  5
C1
100
AcDbEntity
  8
LIVELLO_1
 62
     7
100
AcDbVertex
100
AcDb2dVertex
 10
-13.014537
 20
60.62369
 30
0.0
  0
VERTEX
  5
C2
100
AcDbEntity
  8
LIVELLO_1
 62
     7
100
AcDbVertex
100
AcDb2dVertex
 10
-11.935878
 20
61.699765
 30
0.0
  0
VERTEX
  5
C3
100
AcDbEntity
  8
LIVELLO_1
 62
     7
100
AcDbVertex
100
AcDb2dVertex
 10
-13.014537
 20
62.778425
 30
0.0
  0
VERTEX
  5
C4
100
AcDbEntity
  8
LIVELLO_1
 62
     7
100
AcDbVertex
100
AcDb2dVertex
 10
-11.935878
 20
63.856912
 30
0.0
  0
VERTEX
  5
C5
100
AcDbEntity
  8
LIVELLO_1
 62
     7
100
AcDbVertex
100
AcDb2dVertex
 10
-13.014537
 20
64.935227
 30
0.0
  0
VERTEX
  5
C6
100
AcDbEntity
  8
LIVELLO_1
 62
     7
100
AcDbVertex
100
AcDb2dVertex
 10
-11.935878
 20
66.013714
 30
0.0
  0
VERTEX
  5
C7
100
AcDbEntity
  8
LIVELLO_1
 62
     7
100
AcDbVertex
100
AcDb2dVertex
 10
-13.014537
 20
67.092201
 30
0.0
  0
SEQEND
  5
C8
100
AcDbEntity
  8
LIVELLO_1
 62
     7
  0
POLYLINE
  5
63
100
AcDbEntity
  8
LIVELLO_1
 62
     7
100
AcDb2dPolyline
 66
     1
 10
0.0
 20
0.0
 30
0.0
 70
     1
  0
VERTEX
  5
64
100
AcDbEntity
  8
LIVELLO_1
 62
     7
100
AcDbVertex
100
AcDb2dVertex
 10
-11.935878
 20
68.170516
 30
0.0
  0
VERTEX
  5
65
100
AcDbEntity
  8
LIVELLO_1
 62
     7
100
AcDbVertex
100
AcDb2dVertex
 10
7.561468
 20
68.170516
 30
0.0
  0
VERTEX
  5
66
100
AcDbEntity
  8
LIVELLO_1
 62
     7
100
AcDbVertex
100
AcDb2dVertex
 10
8.054289
 20
67.677867
 30
0.0
  0
VERTEX
  5
67
100
AcDbEntity
  8
LIVELLO_1
 62
     7
100
AcDbVertex
100
AcDb2dVertex
 10
7.470862
 20
67.092201
 30
0.0
  0
VERTEX
  5
68
100
AcDbEntity
  8
LIVELLO_1
 62
     7
100
AcDbVertex
100
AcDb2dVertex
 10
8.546937
 20
66.013714
 30
0.0
  0
VERTEX
  5
69
100
AcDbEntity
  8
LIVELLO_1
 62
     7
100
AcDbVertex
100
AcDb2dVertex
 10
7.470862
 20
64.935227
 30
0.0
  0
VERTEX
  5
6A
100
AcDbEntity
  8
LIVELLO_1
 62
     7
100
AcDbVertex
100
AcDb2dVertex
 10
8.546937
 20
63.856912
 30
0.0
  0
VERTEX
  5
6B
100
AcDbEntity
  8
LIVELLO_1
 62
     7
100
AcDbVertex
100
AcDb2dVertex
 10
7.470862
 20
62.778425
 30
0.0
  0
VERTEX
  5
6C
100
AcDbEntity
  8
LIVELLO_1
 62
     7
100
AcDbVertex
100
AcDb2dVertex
 10
8.546937
 20
61.699765
 30
0.0
  0
VERTEX
  5
6D
100
AcDbEntity
  8
LIVELLO_1
 62
     7
100
AcDbVertex
100
AcDb2dVertex
 10
7.470862
 20
60.62369
 30
0.0
  0
VERTEX
  5
6E
100
AcDbEntity
  8
LIVELLO_1
 62
     7
100
AcDbVertex
100
AcDb2dVertex
 10
8.546937
 20
59.545203
 30
0.0
  0
VERTEX
  5
6F
100
AcDbEntity
  8
LIVELLO_1
 62
     7
100
AcDbVertex
100
AcDb2dVertex
 10
7.470862
 20
58.466715
 30
0.0
  0
VERTEX
  5
70
100
AcDbEntity
  8
LIVELLO_1
 62
     7
100
AcDbVertex
100
AcDb2dVertex
 10
8.546937
 20
57.388401
 30
0.0
  0
VERTEX
  5
71
100
AcDbEntity
  8
LIVELLO_1
 62
     7
100
AcDbVertex
100
AcDb2dVertex
 10
7.470862
 20
56.309741
 30
0.0
  0
VERTEX
  5
72
100
AcDbEntity
  8
LIVELLO_1
 62
     7
100
AcDbVertex
100
AcDb2dVertex
 10
8.546937
 20
55.231254
 30
0.0
  0
VERTEX
  5
73
100
AcDbEntity
  8
LIVELLO_1
 62
     7
100
AcDbVertex
100
AcDb2dVertex
 10
7.470862
 20
54.152767
 30
0.0
  0
VERTEX
  5
74
100
AcDbEntity
  8
LIVELLO_1
 62
     7
100
AcDbVertex
100
AcDb2dVertex
 10
8.546937
 20
53.07428
 30
0.0
  0
VERTEX
  5
75
100
AcDbEntity
  8
LIVELLO_1
 62
     7
100
AcDbVertex
100
AcDb2dVertex
 10
7.470862
 20
51.998204
 30
0.0
  0
VERTEX
  5
76
100
AcDbEntity
  8
LIVELLO_1
 62
     7
100
AcDbVertex
100
AcDb2dVertex
 10
8.546937
 20
50.919717
 30
0.0
  0
VERTEX
  5
77
100
AcDbEntity
  8
LIVELLO_1
 62
     7
100
AcDbVertex
100
AcDb2dVertex
 10
7.470862
 20
49.84123
 30
0.0
  0
VERTEX
  5
78
100
AcDbEntity
  8
LIVELLO_1
 62
     7
100
AcDbVertex
100
AcDb2dVertex
 10
8.546937
 20
48.762743
 30
0.0
  0
VERTEX
  5
79
100
AcDbEntity
  8
LIVELLO_1
 62
     7
100
AcDbVertex
100
AcDb2dVertex
 10
7.470862
 20
47.684256
 30
0.0
  0
VERTEX
  5
7A
100
AcDbEntity
  8
LIVELLO_1
 62
     7
100
AcDbVertex
100
AcDb2dVertex
 10
8.546937
 20
46.605769
 30
0.0
  0
VERTEX
  5
7B
100
AcDbEntity
  8
LIVELLO_1
 62
     7
100
AcDbVertex
100
AcDb2dVertex
 10
7.470862
 20
45.527454
 30
0.0
  0
VERTEX
  5
7C
100
AcDbEntity
  8
LIVELLO_1
 62
     7
100
AcDbVertex
100
AcDb2dVertex
 10
8.546937
 20
44.448794
 30
0.0
  0
VERTEX
  5
7D
100
AcDbEntity
  8
LIVELLO_1
 62
     7
100
AcDbVertex
100
AcDb2dVertex
 10
7.470862
 20
43.372719
 30
0.0
  0
VERTEX
  5
7E
100
AcDbEntity
  8
LIVELLO_1
 62
     7
100
AcDbVertex
100
AcDb2dVertex
 10
-13.014537
 20
43.372719
 30
0.0
  0
VERTEX
  5
7F
100
AcDbEntity
  8
LIVELLO_1
 62
     7
100
AcDbVertex
100
AcDb2dVertex
 10
-11.935878
 20
44.448794
 30
0.0
  0
VERTEX
  5
80
100
AcDbEntity
  8
LIVELLO_1
 62
     7
100
AcDbVertex
100
AcDb2dVertex
 10
-13.014537
 20
45.527454
 30
0.0
  0
VERTEX
  5
81
100
AcDbEntity
  8
LIVELLO_1
 62
     7
100
AcDbVertex
100
AcDb2dVertex
 10
-11.935878
 20
46.605769
 30
0.0
  0
VERTEX
  5
82
100
AcDbEntity
  8
LIVELLO_1
 62
     7
100
AcDbVertex
100
AcDb2dVertex
 10
-13.014537
 20
47.684256
 30
0.0
  0
VERTEX
  5
83
100
AcDbEntity
  8
LIVELLO_1
 62
     7
100
AcDbVertex
100
AcDb2dVertex
 10
-11.935878
 20
48.762743
 30
0.0
  0
VERTEX
  5
84
100
AcDbEntity
  8
LIVELLO_1
 62
     7
100
AcDbVertex
100
AcDb2dVertex
 10
-13.014537
 20
49.84123
 30
0.0
  0
VERTEX
  5
85
100
AcDbEntity
  8
LIVELLO_1
 62
     7
100
AcDbVertex
100
AcDb2dVertex
 10
-11.935878
 20
50.919717
 30
0.0
  0
VERTEX
  5
86
100
AcDbEntity
  8
LIVELLO_1
 62
     7
100
AcDbVertex
100
AcDb2dVertex
 10
-13.014537
 20
51.998204
 30
0.0
  0
VERTEX
  5
87
100
AcDbEntity
  8
LIVELLO_1
 62
     7
100
AcDbVertex
100
AcDb2dVertex
 10
-11.935878
 20
53.07428
 30
0.0
  0
VERTEX
  5
88
100
AcDbEntity
  8
LIVELLO_1
 62
     7
100
AcDbVertex
100
AcDb2dVertex
 10
-13.014537
 20
54.152767
 30
0.0
  0
VERTEX
  5
89
100
AcDbEntity
  8
LIVELLO_1
 62
     7
100
AcDbVertex
100
AcDb2dVertex
 10
-11.935878
 20
55.231254
 30
0.0
  0
VERTEX
  5
8A
100
AcDbEntity
  8
LIVELLO_1
 62
     7
100
AcDbVertex
100
AcDb2dVertex
 10
-13.014537
 20
56.309741
 30
0.0
  0
VERTEX
  5
8B
100
AcDbEntity
  8
LIVELLO_1
 62
     7
100
AcDbVertex
100
AcDb2dVertex
 10
-11.935878
 20
57.388401
 30
0.0
  0
VERTEX
  5
8C
100
AcDbEntity
  8
LIVELLO_1
 62
     7
100
AcDbVertex
100
AcDb2dVertex
 10
-13.014537
 20
58.466715
 30
0.0
  0
VERTEX
  5
8D
100
AcDbEntity
  8
LIVELLO_1
 62
     7
100
AcDbVertex
100
AcDb2dVertex
 10
-11.935878
 20
59.545203
 30
0.0
  0
VERTEX
  5
8E
100
AcDbEntity
  8
LIVELLO_1
 62
     7
100
AcDbVertex
100
AcDb2dVertex
 10
-13.014537
 20
60.62369
 30
0.0
  0
VERTEX
  5
8F
100
AcDbEntity
  8
LIVELLO_1
 62
     7
100
AcDbVertex
100
AcDb2dVertex
 10
-11.935878
 20
61.699765
 30
0.0
  0
VERTEX
  5
90
100
AcDbEntity
  8
LIVELLO_1
 62
     7
100
AcDbVertex
100
AcDb2dVertex
 10
-13.014537
 20
62.778425
 30
0.0
  0
VERTEX
  5
91
100
AcDbEntity
  8
LIVELLO_1
 62
     7
100
AcDbVertex
100
AcDb2dVertex
 10
-11.935878
 20
63.856912
 30
0.0
  0
VERTEX
  5
92
100
AcDbEntity
  8
LIVELLO_1
 62
     7
100
AcDbVertex
100
AcDb2dVertex
 10
-13.014537
 20
64.935227
 30
0.0
  0
VERTEX
  5
93
100
AcDbEntity
  8
LIVELLO_1
 62
     7
100
AcDbVertex
100
AcDb2dVertex
 10
-11.935878
 20
66.013714
 30
0.0
  0
VERTEX
  5
94
100
AcDbEntity
  8
LIVELLO_1
 62
     7
100
AcDbVertex
100
AcDb2dVertex
 10
-13.014537
 20
67.092201
 30
0.0
  0
SEQEND
  5
95
100
AcDbEntity
  8
LIVELLO_1
 62
     7
  0
LINE
  5
62
100
AcDbEntity
  8
LIVELLO_1
 62
     7
100
AcDbLine
 10
-17.867471
 20
55.231254
 30
0.0
 11
13.400043
 21
55.231254
 31
0.0
  0
LINE
  5
61
100
AcDbEntity
  8
LIVELLO_1
 62
     7
100
AcDbLine
 10
-11.935878
 20
66.011475
 30
0.0
 11
7.470862
 21
67.092201
 31
0.0
  0
LINE
  5
60
100
AcDbEntity
  8
LIVELLO_1
 62
     7
100
AcDbLine
 10
-11.935878
 20
63.856912
 30
0.0
 11
7.470862
 21
64.935227
 31
0.0
  0
LINE
  5
5F
100
AcDbEntity
  8
LIVELLO_1
 62
     7
100
AcDbLine
 10
-11.935878
 20
61.699765
 30
0.0
 11
7.470862
 21
62.778425
 31
0.0
  0
LINE
  5
5E
100
AcDbEntity
  8
LIVELLO_1
 62
     7
100
AcDbLine
 10
-11.935878
 20
59.545203
 30
0.0
 11
7.470862
 21
60.62369
 31
0.0
  0
LINE
  5
5D
100
AcDbEntity
  8
LIVELLO_1
 62
     7
100
AcDbLine
 10
-11.935878
 20
57.388401
 30
0.0
 11
7.470862
 21
58.466715
 31
0.0
  0
LINE
  5
5C
100
AcDbEntity
  8
LIVELLO_1
 62
     7
100
AcDbLine
 10
-11.935878
 20
55.231254
 30
0.0
 11
7.470862
 21
56.309741
 31
0.0
  0
LINE
  5
5B
100
AcDbEntity
  8
LIVELLO_1
 62
     7
100
AcDbLine
 10
-11.935878
 20
53.07428
 30
0.0
 11
7.470862
 21
54.152767
 31
0.0
  0
LINE
  5
5A
100
AcDbEntity
  8
LIVELLO_1
 62
     7
100
AcDbLine
 10
-11.935878
 20
50.919717
 30
0.0
 11
7.470862
 21
51.998204
 31
0.0
  0
LINE
  5
59
100
AcDbEntity
  8
LIVELLO_1
 62
     7
100
AcDbLine
 10
-11.935878
 20
48.762743
 30
0.0
 11
7.470862
 21
49.84123
 31
0.0
  0
LINE
  5
58
100
AcDbEntity
  8
LIVELLO_1
 62
     7
100
AcDbLine
 10
-11.935878
 20
46.605769
 30
0.0
 11
7.470862
 21
47.684256
 31
0.0
  0
LINE
  5
57
100
AcDbEntity
  8
LIVELLO_1
 62
     7
100
AcDbLine
 10
-11.935878
 20
44.448794
 30
0.0
 11
7.470862
 21
45.527454
 31
0.0
  0
LINE
  5
56
100
AcDbEntity
  8
LIVELLO_1
 62
     7
100
AcDbLine
 10
-13.014537
 20
67.092201
 30
0.0
 11
7.470862
 21
68.170516
 31
0.0
  0
LINE
  5
55
100
AcDbEntity
  8
LIVELLO_1
 62
     7
100
AcDbLine
 10
-13.014537
 20
64.935227
 30
0.0
 11
8.546937
 21
66.011475
 31
0.0
  0
LINE
  5
54
100
AcDbEntity
  8
LIVELLO_1
 62
     7
100
AcDbLine
 10
-13.014537
 20
62.778425
 30
0.0
 11
8.546937
 21
63.856912
 31
0.0
  0
LINE
  5
53
100
AcDbEntity
  8
LIVELLO_1
 62
     7
100
AcDbLine
 10
-13.014537
 20
60.62369
 30
0.0
 11
8.546937
 21
61.699765
 31
0.0
  0
LINE
  5
52
100
AcDbEntity
  8
LIVELLO_1
 62
     7
100
AcDbLine
 10
-13.014537
 20
58.466715
 30
0.0
 11
8.546937
 21
59.545203
 31
0.0
  0
LINE
  5
51
100
AcDbEntity
  8
LIVELLO_1
 62
     7
100
AcDbLine
 10
-13.014537
 20
56.309741
 30
0.0
 11
8.546937
 21
57.388401
 31
0.0
  0
LINE
  5
50
100
AcDbEntity
  8
LIVELLO_1
 62
     7
100
AcDbLine
 10
-13.014537
 20
54.152767
 30
0.0
 11
8.546937
 21
55.231254
 31
0.0
  0
LINE
  5
4F
100
AcDbEntity
  8
LIVELLO_1
 62
     7
100
AcDbLine
 10
-13.014537
 20
51.998204
 30
0.0
 11
8.546937
 21
53.07428
 31
0.0
  0
LINE
  5
4E
100
AcDbEntity
  8
LIVELLO_1
 62
     7
100
AcDbLine
 10
-13.014537
 20
49.84123
 30
0.0
 11
8.546937
 21
50.919717
 31
0.0
  0
LINE
  5
4D
100
AcDbEntity
  8
LIVELLO_1
 62
     7
100
AcDbLine
 10
-13.014537
 20
47.684256
 30
0.0
 11
8.546937
 21
48.762743
 31
0.0
  0
LINE
  5
4C
100
AcDbEntity
  8
LIVELLO_1
 62
     7
100
AcDbLine
 10
-13.014537
 20
45.527454
 30
0.0
 11
8.546937
 21
46.605769
 31
0.0
  0
LINE
  5
4B
100
AcDbEntity
  8
LIVELLO_1
 62
     7
100
AcDbLine
 10
-13.014537
 20
43.372719
 30
0.0
 11
8.546937
 21
44.448794
 31
0.0
  0
LINE
  5
4A
100
AcDbEntity
  8
LIVELLO_1
 62
     7
100
AcDbLine
 10
27.606067
 20
43.551519
 30
0.0
 11
35.461229
 21
43.551519
 31
0.0
  0
LINE
  5
49
100
AcDbEntity
  8
LIVELLO_1
 62
     7
100
AcDbLine
 10
31.534165
 20
50.450151
 30
0.0
 11
31.534165
 21
43.551519
 31
0.0
  0
LINE
  5
48
100
AcDbEntity
  8
LIVELLO_1
 62
     7
100
AcDbLine
 10
31.534165
 20
68.240451
 30
0.0
 11
31.534165
 21
60.893269
 31
0.0
  0
LINE
  5
47
100
AcDbEntity
  8
LIVELLO_1
 62
     7
100
AcDbLine
 10
27.606067
 20
68.240451
 30
0.0
 11
35.461229
 21
68.240451
 31
0.0
  0
MTEXT
  5
46
100
AcDbEntity
  8
LIVELLO_1
 62
     7
100
AcDbMText
 10
27.210053
 20
59.303598
 30
0.0
 40
6.185565
 41
0.0
 71
     1
 72
     2
  1
\fCourier|b0|i0;\H6.1856;\C7;\U+0032\U+0035
  7
STD
210
0.0
220
0.0
230
1.0
 73
     1
 44
1.0
  0
CIRCLE
  5
45
100
AcDbEntity
  8
LIVELLO_1
 62
     7
100
AcDbCircle
 10
-0.000086
 20
77.737374
 30
0.0
 40
75.605635
  0
SPLINE
  5
44
100
AcDbEntity
  8
LIVELLO_1
 62
     7
100
AcDbSpline
210
0.0
220
0.0
230
1.0
 70
     8
 71
     3
 72
    11
 73
     7
 74
     0
 42
0.00000001
 43
0.00000001
 40
0.0
 40
0.0
 40
0.0
 40
0.0
 40
1.0
 40
1.0
 40
1.0
 40
2.0
 40
2.0
 40
2.0
 40
2.0
 10
16.904050021701387
 20
15.341699218749998
 30
0.0
 10
16.904050021701387
 20
13.554211425781249
 30
0.0
 10
16.420530870225694
 20
12.10382622612847
 30
0.0
 10
15.825390624999999
 20
12.10382622612847
 30
0.0
 10
15.230594889322916
 20
12.10382622612847
 30
0.0
 10
14.746903483072915
 20
13.554211425781249
 30
0.0
 10
14.746903483072915
 20
15.341699218749998
 30
0.0
  0
SPLINE
  5
43
100
AcDbEntity
  8
LIVELLO_1
 62
     7
100
AcDbSpline
210
0.0
220
0.0
230
1.0
 70
     8
 71
     3
 72
    11
 73
     7
 74
     0
 42
0.00000001
 43
0.00000001
 40
0.0
 40
0.0
 40
0.0
 40
0.0
 40
1.0
 40
1.0
 40
1.0
 40
2.0
 40
2.0
 40
2.0
 40
2.0
 10
16.904050021701387
 20
15.341699218749998
 30
0.0
 10
16.904050021701387
 20
13.554211425781249
 30
0.0
 10
16.420530870225694
 20
12.10382622612847
 30
0.0
 10
15.825390624999999
 20
12.10382622612847
 30
0.0
 10
15.230594889322916
 20
12.10382622612847
 30
0.0
 10
14.746903483072915
 20
13.554211425781249
 30
0.0
 10
14.746903483072915
 20
15.341699218749998
 30
0.0
  0
SPLINE
  5
42
100
AcDbEntity
  8
LIVELLO_1
 62
     7
100
AcDbSpline
210
0.0
220
0.0
230
1.0
 70
     8
 71
     3
 72
    11
 73
     7
 74
     0
 42
0.00000001
 43
0.00000001
 40
0.0
 40
0.0
 40
0.0
 40
0.0
 40
1.0
 40
1.0
 40
1.0
 40
2.0
 40
2.0
 40
2.0
 40
2.0
 10
13.668588595920138
 20
15.341699218749998
 30
0.0
 10
13.668588595920138
 20
13.554211425781249
 30
0.0
 10
12.945635308159721
 20
12.10382622612847
 30
0.0
 10
12.053183322482639
 20
12.10382622612847
 30
0.0
 10
11.158319769965276
 20
12.10382622612847
 30
0.0
 10
10.434160698784721
 20
13.554211425781249
 30
0.0
 10
10.434160698784721
 20
15.341699218749998
 30
0.0
  0
SPLINE
  5
41
100
AcDbEntity
  8
LIVELLO_1
 62
     7
100
AcDbSpline
210
0.0
220
0.0
230
1.0
 70
     8
 71
     3
 72
    11
 73
     7
 74
     0
 42
0.00000001
 43
0.00000001
 40
0.0
 40
0.0
 40
0.0
 40
0.0
 40
1.0
 40
1.0
 40
1.0
 40
2.0
 40
2.0
 40
2.0
 40
2.0
 10
13.668588595920138
 20
15.341699218749998
 30
0.0
 10
13.668588595920138
 20
13.554211425781249
 30
0.0
 10
12.945635308159721
 20
12.10382622612847
 30
0.0
 10
12.053183322482639
 20
12.10382622612847
 30
0.0
 10
11.158319769965276
 20
12.10382622612847
 30
0.0
 10
10.434160698784721
 20
13.554211425781249
 30
0.0
 10
10.434160698784721
 20
15.341699218749998
 30
0.0
  0
SPLINE
  5
40
100
AcDbEntity
  8
LIVELLO_1
 62
     7
100
AcDbSpline
210
0.0
220
0.0
230
1.0
 70
     8
 71
     3
 72
    11
 73
     7
 74
     0
 42
0.00000001
 43
0.00000001
 40
0.0
 40
0.0
 40
0.0
 40
0.0
 40
1.0
 40
1.0
 40
1.0
 40
2.0
 40
2.0
 40
2.0
 40
2.0
 10
9.3556735568576386
 20
15.341699218749998
 30
0.0
 10
9.3556735568576386
 20
13.554211425781249
 30
0.0
 10
8.3922526041666661
 20
12.10382622612847
 30
0.0
 10
7.2000773111979157
 20
12.10382622612847
 30
0.0
 10
6.0097968207465273
 20
12.10382622612847
 30
0.0
 10
5.0431030273437498
 20
13.554211425781249
 30
0.0
 10
5.0431030273437498
 20
15.341699218749998
 30
0.0
  0
SPLINE
  5
3F
100
AcDbEntity
  8
LIVELLO_1
 62
     7
100
AcDbSpline
210
0.0
220
0.0
230
1.0
 70
     8
 71
     3
 72
    11
 73
     7
 74
     0
 42
0.00000001
 43
0.00000001
 40
0.0
 40
0.0
 40
0.0
 40
0.0
 40
1.0
 40
1.0
 40
1.0
 40
2.0
 40
2.0
 40
2.0
 40
2.0
 10
9.3556735568576386
 20
15.341699218749998
 30
0.0
 10
9.3556735568576386
 20
13.554211425781249
 30
0.0
 10
8.3922526041666661
 20
12.10382622612847
 30
0.0
 10
7.2000773111979157
 20
12.10382622612847
 30
0.0
 10
6.0097968207465273
 20
12.10382622612847
 30
0.0
 10
5.0431030273437498
 20
13.554211425781249
 30
0.0
 10
5.0431030273437498
 20
15.341699218749998
 30
0.0
  0
SPLINE
  5
3E
100
AcDbEntity
  8
LIVELLO_1
 62
     7
100
AcDbSpline
210
0.0
220
0.0
230
1.0
 70
     8
 71
     3
 72
    11
 73
     7
 74
     0
 42
0.00000001
 43
0.00000001
 40
0.0
 40
0.0
 40
0.0
 40
0.0
 40
1.0
 40
1.0
 40
1.0
 40
2.0
 40
2.0
 40
2.0
 40
2.0
 10
3.9656494140624998
 20
15.341699218749998
 30
0.0
 10
3.9656494140624998
 20
13.554211425781249
 30
0.0
 10
3.0010226779513887
 20
12.10382622612847
 30
0.0
 10
1.8088473849826388
 20
12.10382622612847
 30
0.0
 10
0.6187391493055555
 20
12.10382622612847
 30
0.0
 10
-0.3469211154513889
 20
13.554211425781249
 30
0.0
 10
-0.3469211154513889
 20
15.341699218749998
 30
0.0
  0
SPLINE
  5
3D
100
AcDbEntity
  8
LIVELLO_1
 62
     7
100
AcDbSpline
210
0.0
220
0.0
230
1.0
 70
     8
 71
     3
 72
    11
 73
     7
 74
     0
 42
0.00000001
 43
0.00000001
 40
0.0
 40
0.0
 40
0.0
 40
0.0
 40
1.0
 40
1.0
 40
1.0
 40
2.0
 40
2.0
 40
2.0
 40
2.0
 10
3.9656494140624998
 20
15.341699218749998
 30
0.0
 10
3.9656494140624998
 20
13.554211425781249
 30
0.0
 10
3.0010226779513887
 20
12.10382622612847
 30
0.0
 10
1.8088473849826388
 20
12.10382622612847
 30
0.0
 10
0.6187391493055555
 20
12.10382622612847
 30
0.0
 10
-0.3469211154513889
 20
13.554211425781249
 30
0.0
 10
-0.3469211154513889
 20
15.341699218749998
 30
0.0
  0
LINE
  5
3C
100
AcDbEntity
  8
LIVELLO_1
 62
     7
100
AcDbLine
 10
-22.717304
 20
43.372719
 30
0.0
 11
18.253322
 21
43.372719
 31
0.0
  0
SPLINE
  5
3B
100
AcDbEntity
  8
LIVELLO_1
 62
     7
100
AcDbSpline
210
0.0
220
0.0
230
1.0
 70
     8
 71
     3
 72
    11
 73
     7
 74
     0
 42
0.00000001
 43
0.00000001
 40
0.0
 40
0.0
 40
0.0
 40
0.0
 40
1.0
 40
1.0
 40
1.0
 40
2.0
 40
2.0
 40
2.0
 40
2.0
 10
-29.457633463541665
 20
12.10382622612847
 30
0.0
 10
-26.611640082465275
 20
10.683757866753471
 30
0.0
 10
-25.41464165581597
 20
8.8568237304687489
 30
0.0
 10
-24.764896647135416
 20
6.1653428819444436
 30
0.0
 10
-24.738197157118055
 20
6.0535495334201386
 30
0.0
 10
-24.579033745659721
 20
6.3210611979166664
 30
0.0
 10
-24.674290635850692
 20
6.2557766384548605
 30
0.0
  0
SPLINE
  5
3A
100
AcDbEntity
  8
LIVELLO_1
 62
     7
100
AcDbSpline
210
0.0
220
0.0
230
1.0
 70
     8
 71
     3
 72
    17
 73
    13
 74
     0
 42
0.00000001
 43
0.00000001
 40
0.0
 40
0.0
 40
0.0
 40
0.0
 40
1.0
 40
1.0
 40
1.0
 40
2.0
 40
2.0
 40
2.0
 40
3.0
 40
3.0
 40
3.0
 40
4.0
 40
4.0
 40
4.0
 40
4.0
 10
14.746903483072915
 20
15.341699218749998
 30
0.0
 10
14.746903483072915
 20
15.341699218749998
 30
0.0
 10
14.746903483072915
 20
35.823308648003469
 30
0.0
 10
14.746903483072915
 20
35.823308648003469
 30
0.0
 10
14.746903483072915
 20
37.61303575303819
 30
0.0
 10
15.230594889322916
 20
39.058942328559027
 30
0.0
 10
15.825390624999999
 20
39.058942328559027
 30
0.0
 10
16.420530870225694
 20
39.058942328559027
 30
0.0
 10
16.904050021701387
 20
37.61303575303819
 30
0.0
 10
16.904050021701387
 20
35.823308648003469
 30
0.0
 10
16.904050021701387
 20
35.823308648003469
 30
0.0
 10
16.904050021701387
 20
15.341699218749998
 30
0.0
 10
16.904050021701387
 20
15.341699218749998
 30
0.0
  0
SPLINE
  5
39
100
AcDbEntity
  8
LIVELLO_1
 62
     7
100
AcDbSpline
210
0.0
220
0.0
230
1.0
 70
     8
 71
     3
 72
    17
 73
    13
 74
     0
 42
0.00000001
 43
0.00000001
 40
0.0
 40
0.0
 40
0.0
 40
0.0
 40
1.0
 40
1.0
 40
1.0
 40
2.0
 40
2.0
 40
2.0
 40
3.0
 40
3.0
 40
3.0
 40
4.0
 40
4.0
 40
4.0
 40
4.0
 10
14.746903483072915
 20
15.341699218749998
 30
0.0
 10
14.746903483072915
 20
15.341699218749998
 30
0.0
 10
14.746903483072915
 20
35.823308648003469
 30
0.0
 10
14.746903483072915
 20
35.823308648003469
 30
0.0
 10
14.746903483072915
 20
37.61303575303819
 30
0.0
 10
15.230594889322916
 20
39.058942328559027
 30
0.0
 10
15.825390624999999
 20
39.058942328559027
 30
0.0
 10
16.420530870225694
 20
39.058942328559027
 30
0.0
 10
16.904050021701387
 20
37.61303575303819
 30
0.0
 10
16.904050021701387
 20
35.823308648003469
 30
0.0
 10
16.904050021701387
 20
35.823308648003469
 30
0.0
 10
16.904050021701387
 20
15.341699218749998
 30
0.0
 10
16.904050021701387
 20
15.341699218749998
 30
0.0
  0
SPLINE
  5
38
100
AcDbEntity
  8
LIVELLO_1
 62
     7
100
AcDbSpline
210
0.0
220
0.0
230
1.0
 70
     8
 71
     3
 72
    17
 73
    13
 74
     0
 42
0.00000001
 43
0.00000001
 40
0.0
 40
0.0
 40
0.0
 40
0.0
 40
1.0
 40
1.0
 40
1.0
 40
2.0
 40
2.0
 40
2.0
 40
3.0
 40
3.0
 40
3.0
 40
4.0
 40
4.0
 40
4.0
 40
4.0
 10
10.434160698784721
 20
15.341699218749998
 30
0.0
 10
10.434160698784721
 20
15.341699218749998
 30
0.0
 10
10.434160698784721
 20
35.823308648003469
 30
0.0
 10
10.434160698784721
 20
35.823308648003469
 30
0.0
 10
10.434160698784721
 20
37.61303575303819
 30
0.0
 10
11.158319769965276
 20
39.058942328559027
 30
0.0
 10
12.053183322482639
 20
39.058942328559027
 30
0.0
 10
12.945635308159721
 20
39.058942328559027
 30
0.0
 10
13.668588595920138
 20
37.61303575303819
 30
0.0
 10
13.668588595920138
 20
35.823308648003469
 30
0.0
 10
13.668588595920138
 20
35.823308648003469
 30
0.0
 10
13.668588595920138
 20
15.341699218749998
 30
0.0
 10
13.668588595920138
 20
15.341699218749998
 30
0.0
  0
SPLINE
  5
37
100
AcDbEntity
  8
LIVELLO_1
 62
     7
100
AcDbSpline
210
0.0
220
0.0
230
1.0
 70
     8
 71
     3
 72
    17
 73
    13
 74
     0
 42
0.00000001
 43
0.00000001
 40
0.0
 40
0.0
 40
0.0
 40
0.0
 40
1.0
 40
1.0
 40
1.0
 40
2.0
 40
2.0
 40
2.0
 40
3.0
 40
3.0
 40
3.0
 40
4.0
 40
4.0
 40
4.0
 40
4.0
 10
10.434160698784721
 20
15.341699218749998
 30
0.0
 10
10.434160698784721
 20
15.341699218749998
 30
0.0
 10
10.434160698784721
 20
35.823308648003469
 30
0.0
 10
10.434160698784721
 20
35.823308648003469
 30
0.0
 10
10.434160698784721
 20
37.61303575303819
 30
0.0
 10
11.158319769965276
 20
39.058942328559027
 30
0.0
 10
12.053183322482639
 20
39.058942328559027
 30
0.0
 10
12.945635308159721
 20
39.058942328559027
 30
0.0
 10
13.668588595920138
 20
37.61303575303819
 30
0.0
 10
13.668588595920138
 20
35.823308648003469
 30
0.0
 10
13.668588595920138
 20
35.823308648003469
 30
0.0
 10
13.668588595920138
 20
15.341699218749998
 30
0.0
 10
13.668588595920138
 20
15.341699218749998
 30
0.0
  0
SPLINE
  5
36
100
AcDbEntity
  8
LIVELLO_1
 62
     7
100
AcDbSpline
210
0.0
220
0.0
230
1.0
 70
     8
 71
     3
 72
    17
 73
    13
 74
     0
 42
0.00000001
 43
0.00000001
 40
0.0
 40
0.0
 40
0.0
 40
0.0
 40
1.0
 40
1.0
 40
1.0
 40
2.0
 40
2.0
 40
2.0
 40
3.0
 40
3.0
 40
3.0
 40
4.0
 40
4.0
 40
4.0
 40
4.0
 10
5.0431030273437498
 20
15.341699218749998
 30
0.0
 10
5.0431030273437498
 20
15.341699218749998
 30
0.0
 10
5.0431030273437498
 20
35.823308648003469
 30
0.0
 10
5.0431030273437498
 20
35.823308648003469
 30
0.0
 10
5.0431030273437498
 20
37.61303575303819
 30
0.0
 10
6.0097968207465273
 20
39.058942328559027
 30
0.0
 10
7.2000773111979157
 20
39.058942328559027
 30
0.0
 10
8.3922526041666661
 20
39.058942328559027
 30
0.0
 10
9.3556735568576386
 20
37.61303575303819
 30
0.0
 10
9.3556735568576386
 20
35.823308648003469
 30
0.0
 10
9.3556735568576386
 20
35.823308648003469
 30
0.0
 10
9.3556735568576386
 20
15.341699218749998
 30
0.0
 10
9.3556735568576386
 20
15.341699218749998
 30
0.0
  0
SPLINE
  5
35
100
AcDbEntity
  8
LIVELLO_1
 62
     7
100
AcDbSpline
210
0.0
220
0.0
230
1.0
 70
     8
 71
     3
 72
    17
 73
    13
 74
     0
 42
0.00000001
 43
0.00000001
 40
0.0
 40
0.0
 40
0.0
 40
0.0
 40
1.0
 40
1.0
 40
1.0
 40
2.0
 40
2.0
 40
2.0
 40
3.0
 40
3.0
 40
3.0
 40
4.0
 40
4.0
 40
4.0
 40
4.0
 10
5.0431030273437498
 20
15.341699218749998
 30
0.0
 10
5.0431030273437498
 20
15.341699218749998
 30
0.0
 10
5.0431030273437498
 20
35.823308648003469
 30
0.0
 10
5.0431030273437498
 20
35.823308648003469
 30
0.0
 10
5.0431030273437498
 20
37.61303575303819
 30
0.0
 10
6.0097968207465273
 20
39.058942328559027
 30
0.0
 10
7.2000773111979157
 20
39.058942328559027
 30
0.0
 10
8.3922526041666661
 20
39.058942328559027
 30
0.0
 10
9.3556735568576386
 20
37.61303575303819
 30
0.0
 10
9.3556735568576386
 20
35.823308648003469
 30
0.0
 10
9.3556735568576386
 20
35.823308648003469
 30
0.0
 10
9.3556735568576386
 20
15.341699218749998
 30
0.0
 10
9.3556735568576386
 20
15.341699218749998
 30
0.0
  0
SPLINE
  5
34
100
AcDbEntity
  8
LIVELLO_1
 62
     7
100
AcDbSpline
210
0.0
220
0.0
230
1.0
 70
     8
 71
     3
 72
    17
 73
    13
 74
     0
 42
0.00000001
 43
0.00000001
 40
0.0
 40
0.0
 40
0.0
 40
0.0
 40
1.0
 40
1.0
 40
1.0
 40
2.0
 40
2.0
 40
2.0
 40
3.0
 40
3.0
 40
3.0
 40
4.0
 40
4.0
 40
4.0
 40
4.0
 10
-0.3469211154513889
 20
15.341699218749998
 30
0.0
 10
-0.3469211154513889
 20
15.341699218749998
 30
0.0
 10
-0.3469211154513889
 20
35.823308648003469
 30
0.0
 10
-0.3469211154513889
 20
35.823308648003469
 30
0.0
 10
-0.3469211154513889
 20
37.61303575303819
 30
0.0
 10
0.6187391493055555
 20
39.058942328559027
 30
0.0
 10
1.8088473849826388
 20
39.058942328559027
 30
0.0
 10
3.0010226779513887
 20
39.058942328559027
 30
0.0
 10
3.9656494140624998
 20
37.61303575303819
 30
0.0
 10
3.9656494140624998
 20
35.823308648003469
 30
0.0
 10
3.9656494140624998
 20
35.823308648003469
 30
0.0
 10
3.9656494140624998
 20
15.341699218749998
 30
0.0
 10
3.9656494140624998
 20
15.341699218749998
 30
0.0
  0
SPLINE
  5
33
100
AcDbEntity
  8
LIVELLO_1
 62
     7
100
AcDbSpline
210
0.0
220
0.0
230
1.0
 70
     8
 71
     3
 72
    17
 73
    13
 74
     0
 42
0.00000001
 43
0.00000001
 40
0.0
 40
0.0
 40
0.0
 40
0.0
 40
1.0
 40
1.0
 40
1.0
 40
2.0
 40
2.0
 40
2.0
 40
3.0
 40
3.0
 40
3.0
 40
4.0
 40
4.0
 40
4.0
 40
4.0
 10
-0.3469211154513889
 20
15.341699218749998
 30
0.0
 10
-0.3469211154513889
 20
15.341699218749998
 30
0.0
 10
-0.3469211154513889
 20
35.823308648003469
 30
0.0
 10
-0.3469211154513889
 20
35.823308648003469
 30
0.0
 10
-0.3469211154513889
 20
37.61303575303819
 30
0.0
 10
0.6187391493055555
 20
39.058942328559027
 30
0.0
 10
1.8088473849826388
 20
39.058942328559027
 30
0.0
 10
3.0010226779513887
 20
39.058942328559027
 30
0.0
 10
3.9656494140624998
 20
37.61303575303819
 30
0.0
 10
3.9656494140624998
 20
35.823308648003469
 30
0.0
 10
3.9656494140624998
 20
35.823308648003469
 30
0.0
 10
3.9656494140624998
 20
15.341699218749998
 30
0.0
 10
3.9656494140624998
 20
15.341699218749998
 30
0.0
  0
SPLINE
  5
32
100
AcDbEntity
  8
LIVELLO_1
 62
     7
100
AcDbSpline
210
0.0
220
0.0
230
1.0
 70
     8
 71
     3
 72
     8
 73
     4
 74
     0
 42
0.00000001
 43
0.00000001
 40
0.0
 40
0.0
 40
0.0
 40
0.0
 40
1.0
 40
1.0
 40
1.0
 40
1.0
 10
-48.479728190104161
 20
19.769508192274305
 30
0.0
 10
-31.476459418402776
 20
30.730768500434024
 30
0.0
 10
-22.717304144965276
 20
39.212076822916664
 30
0.0
 10
-22.717304144965276
 20
43.372718641493051
 30
0.0
  0
SPLINE
  5
31
100
AcDbEntity
  8
LIVELLO_1
 62
     7
100
AcDbSpline
210
0.0
220
0.0
230
1.0
 70
     8
 71
     3
 72
     8
 73
     4
 74
     0
 42
0.00000001
 43
0.00000001
 40
0.0
 40
0.0
 40
0.0
 40
0.0
 40
1.0
 40
1.0
 40
1.0
 40
1.0
 10
-48.479728190104161
 20
19.769508192274305
 30
0.0
 10
-31.476459418402776
 20
30.730768500434024
 30
0.0
 10
-22.717304144965276
 20
39.212076822916664
 30
0.0
 10
-22.717304144965276
 20
43.372718641493051
 30
0.0
  0
SPLINE
  5
30
100
AcDbEntity
  8
LIVELLO_1
 62
     7
100
AcDbSpline
210
0.0
220
0.0
230
1.0
 70
     8
 71
     3
 72
     8
 73
     4
 74
     0
 42
0.00000001
 43
0.00000001
 40
0.0
 40
0.0
 40
0.0
 40
0.0
 40
1.0
 40
1.0
 40
1.0
 40
1.0
 10
18.253321668836804
 20
43.372718641493051
 30
0.0
 10
18.253321668836804
 20
43.372718641493051
 30
0.0
 10
19.10736083984375
 20
24.724933539496526
 30
0.0
 10
19.461688910590276
 20
4.6033365885416666
 30
0.0
  0
SPLINE
  5
2F
100
AcDbEntity
  8
LIVELLO_1
 62
     7
100
AcDbSpline
210
0.0
220
0.0
230
1.0
 70
     8
 71
     3
 72
     8
 73
     4
 74
     0
 42
0.00000001
 43
0.00000001
 40
0.0
 40
0.0
 40
0.0
 40
0.0
 40
1.0
 40
1.0
 40
1.0
 40
1.0
 10
18.253321668836804
 20
43.372718641493051
 30
0.0
 10
18.253321668836804
 20
43.372718641493051
 30
0.0
 10
19.10736083984375
 20
24.724933539496526
 30
0.0
 10
19.461688910590276
 20
4.6033365885416666
 30
0.0
  0
SPLINE
  5
2E
100
AcDbEntity
  8
LIVELLO_1
 62
     7
100
AcDbSpline
210
0.0
220
0.0
230
1.0
 70
     8
 71
     3
 72
     8
 73
     4
 74
     0
 42
0.00000001
 43
0.00000001
 40
0.0
 40
0.0
 40
0.0
 40
0.0
 40
1.0
 40
1.0
 40
1.0
 40
1.0
 10
-38.645703124999997
 20
13.059151204427081
 30
0.0
 10
-34.496774631076384
 20
16.004018825954859
 30
0.0
 10
-31.362599012586802
 20
16.292201063368054
 30
0.0
 10
-25.145062934027777
 20
13.182313368055555
 30
0.0
  0
SPLINE
  5
2D
100
AcDbEntity
  8
LIVELLO_1
 62
     7
100
AcDbSpline
210
0.0
220
0.0
230
1.0
 70
     8
 71
     3
 72
     8
 73
     4
 74
     0
 42
0.00000001
 43
0.00000001
 40
0.0
 40
0.0
 40
0.0
 40
0.0
 40
1.0
 40
1.0
 40
1.0
 40
1.0
 10
-25.145062934027777
 20
13.182313368055555
 30
0.0
 10
-21.163566080729165
 20
11.192770724826389
 30
0.0
 10
-16.215030924479166
 20
10.03074001736111
 30
0.0
 10
-10.977107747395833
 20
2.7648613823784718
 30
0.0
  0
SPLINE
  5
2C
100
AcDbEntity
  8
LIVELLO_1
 62
     7
100
AcDbSpline
210
0.0
220
0.0
230
1.0
 70
     8
 71
     3
 72
    11
 73
     7
 74
     0
 42
0.00000001
 43
0.00000001
 40
0.0
 40
0.0
 40
0.0
 40
0.0
 40
1.0
 40
1.0
 40
1.0
 40
2.0
 40
2.0
 40
2.0
 40
2.0
 10
-36.225006781684023
 20
11.267184787326388
 30
0.0
 10
-35.673102484809021
 20
11.818055555555555
 30
0.0
 10
-36.672352430555556
 20
10.681346299913194
 30
0.0
 10
-35.979715983072914
 20
11.267184787326388
 30
0.0
 10
-33.96330159505208
 20
12.966305881076387
 30
0.0
 10
-32.666567654079856
 20
13.707690429687499
 30
0.0
 10
-29.457633463541665
 20
12.10382622612847
 30
0.0
  0
ENDBLK
  5
2AA
100
AcDbEntity
  8
LIVELLO_1
100
AcDbBlockEnd
  0
ENDSEC
  0
SECTION
  2
ENTITIES
  0
INSERT
  5
2A
100
AcDbEntity
  8
LIVELLO_1
 62
     7
100
AcDbBlockReference
  2
AI9-BLK1
 10
75.900793
 20
155.372084
 30
0.0
  0
ENDSEC
  0
SECTION
  2
OBJECTS
  0
DICTIONARY
  5
19
100
AcDbDictionary
280
     0
281
     1
  3
ACAD_GROUP
350
1A
  3
ACAD_MLINESTYLE
350
1B
  3
ACAD_LAYOUT
350
1E
  3
ACAD_PLOTSETTINGS
350
22
  3
ACAD_PLOTSTYLENAME
350
1F
  3
ACAD_WIPEOUT_VARS
350
23
  0
DICTIONARY
  5
1A
102
{ACAD_REACTORS
330
19
102
}
100
AcDbDictionary
280
     0
281
     1
  0
DICTIONARY
  5
1B
102
{ACAD_REACTORS
330
19
102
}
100
AcDbDictionary
280
     0
281
     1
  3
Standard
350
1C
  0
MLINESTYLE
  5
1C
102
{ACAD_REACTORS
330
1B
102
}
100
AcDbMlineStyle
  2
Standard
 70
     0
  3

 62
     0
 51
90.0
 52
90.0
 71
     2
 49
0.5
 62
   256
  6
ByLayer
 49
-0.5
 62
   256
  6
ByLayer
  0
ACDBDICTIONARYWDFLT
  5
1F
102
{ACAD_REACTORS
330
19
102
}
100
AcDbDictionary
281
     1
  3
Normal
350
1D
100
AcDbDictionaryWithDefault
340
1D
  0
ACDBPLACEHOLDER
  5
1D
102
{ACAD_REACTORS
330
1F
102
}
  0
LAYOUT
  5
20
102
{ACAD_REACTORS
330
1E
102
}
100
AcDbPlotSettings
  1

  2

  4

  6

 40
0.0
 41
0.0
 42
0.0
 43
0.0
 44
0.0
 45
0.0
 46
0.0
 47
0.0
 48
0.0
 49
0.0
140
0.0
141
0.0
142
1.0
143
1.0
 70
  1024
 72
     0
 73
     0
 74
     0
  7

 75
     0
147
1.0
148
0.0
149
0.0
100
AcDbLayout
  1
Model
 70
     0
 71
     0
 10
0.0
 20
0.0
 11
0.0
 21
0.0
 12
0.0
 22
0.0
 32
0.0
 14
0.0
 24
0.0
 34
0.0
 15
0.0
 25
0.0
 35
0.0
146
0.0
 13
0.0
 23
0.0
 33
0.0
 16
0.0
 26
0.0
 36
0.0
 17
0.0
 27
0.0
 37
0.0
 76
     0
330
A
331
0
345
0
346
0
  0
LAYOUT
  5
21
102
{ACAD_REACTORS
330
1E
102
}
100
AcDbPlotSettings
  1

  2

  4

  6

 40
0.0
 41
0.0
 42
0.0
 43
0.0
 44
0.0
 45
0.0
 46
0.0
 47
0.0
 48
0.0
 49
0.0
140
0.0
141
0.0
142
1.0
143
1.0
 70
     0
 72
     0
 73
     0
 74
     0
  7

 75
     0
147
1.0
148
0.0
149
0.0
100
AcDbLayout
  1
Layout1
 70
     0
 71
     0
 10
0.0
 20
0.0
 11
0.0
 21
0.0
 12
0.0
 22
0.0
 32
0.0
 14
0.0
 24
0.0
 34
0.0
 15
0.0
 25
0.0
 35
0.0
146
0.0
 13
0.0
 23
0.0
 33
0.0
 16
0.0
 26
0.0
 36
0.0
 17
0.0
 27
0.0
 37
0.0
 76
     0
330
B
331
0
345
0
346
0
  0
DICTIONARY
  5
1E
102
{ACAD_REACTORS
330
19
102
}
100
AcDbDictionary
280
     0
281
     1
  3
Layout1
350
21
  3
Model
350
20
  0
DICTIONARY
  5
22
102
{ACAD_REACTORS
330
19
102
}
100
AcDbDictionary
280
     0
281
     1
  0
WIPEOUTVARIABLES
  5
23
100
AcDbWipeoutVariables
 70
     1
  0
ENDSEC
  0
EOF
