  0
SECTION
  2
HEADER
  9
$ACADVER
  1
AC1015
  9
$ACADMAINTVER
 70
     6
  9
$DWGCODEPAGE
  3
ANSI_932
  9
$INSBASE
 10
0.0
 20
0.0
 30
0.0
  9
$EXTMIN
 10
-43.112958
 20
-1.777669
 30
1.000000E+20
  9
$EXTMAX
 10
264.053822
 20
353.846274
 30
-1.000000E+20
  9
$LIMMIN
 10
-43.112958
 20
-1.777669
  9
$LIMMAX
 10
264.053822
 20
353.846274
  9
$ORTHOMODE
 70
     0
  9
$REGENMODE
 70
     1
  9
$FILLMODE
 70
     1
  9
$QTEXTMODE
 70
     0
  9
$MIRRTEXT
 70
     1
  9
$LTSCALE
 40
1.0
  9
$ATTMODE
 70
     1
  9
$TEXTSIZE
 40
0.2
  9
$TRACEWID
 40
0.05
  9
$TEXTSTYLE
  7
Standard
  9
$CLAYER
  8
0
  9
$CELTYPE
  6
Continuous
  9
$CECOLOR
 62
   256
  9
$CELTSCALE
 40
1.0
  9
$DISPSILH
 70
     0
  9
$DIMSCALE
 40
1.0
  9
$DIMASZ
 40
0.18
  9
$DIMEXO
 40
0.0625
  9
$DIMDLI
 40
0.38
  9
$DIMRND
 40
0.0
  9
$DIMDLE
 40
0.0
  9
$DIMEXE
 40
0.18
  9
$DIMTP
 40
0.0
  9
$DIMTM
 40
0.0
  9
$DIMTXT
 40
0.18
  9
$DIMCEN
 40
0.09
  9
$DIMTSZ
 40
0.0
  9
$DIMTOL
 70
     0
  9
$DIMLIM
 70
     0
  9
$DIMTIH
 70
     1
  9
$DIMTOH
 70
     1
  9
$DIMSE1
 70
     0
  9
$DIMSE2
 70
     0
  9
$DIMTAD
 70
     0
  9
$DIMZIN
 70
     0
  9
$DIMBLK
  1

  9
$DIMASO
 70
     1
  9
$DIMSHO
 70
     1
  9
$DIMPOST
  1

  9
$DIMAPOST
  1

  9
$DIMALT
 70
     0
  9
$DIMALTD
 70
     2
  9
$DIMALTF
 40
25.4
  9
$DIMLFAC
 40
1.0
  9
$DIMTOFL
 70
     0
  9
$DIMTVP
 40
0.0
  9
$DIMTIX
 70
     0
  9
$DIMSOXD
 70
     0
  9
$DIMSAH
 70
     0
  9
$DIMBLK1
  1

  9
$DIMBLK2
  1

  9
$DIMSTYLE
  2
Standard
  9
$DIMCLRD
 70
     0
  9
$DIMCLRE
 70
     0
  9
$DIMCLRT
 70
     0
  9
$DIMTFAC
 40
1.0
  9
$DIMGAP
 40
0.09
  9
$DIMJUST
 70
     0
  9
$DIMSD1
 70
     0
  9
$DIMSD2
 70
     0
  9
$DIMTOLJ
 70
     1
  9
$DIMTZIN
 70
     0
  9
$DIMALTZ
 70
     0
  9
$DIMALTTZ
 70
     0
  9
$DIMUPT
 70
     0
  9
$DIMDEC
 70
     4
  9
$DIMTDEC
 70
     4
  9
$DIMALTU
 70
     2
  9
$DIMALTTD
 70
     2
  9
$DIMTXSTY
  7
Standard
  9
$DIMAUNIT
 70
     0
  9
$DIMADEC
 70
     0
  9
$DIMALTRND
 40
0.0
  9
$DIMAZIN
 70
     0
  9
$DIMDSEP
 70
     0
  9
$DIMATFIT
 70
     3
  9
$DIMFRAC
 70
     0
  9
$DIMLDRBLK
  1

  9
$DIMLUNIT
 70
     2
  9
$DIMLWD
 70
     0
  9
$DIMLWE
 70
     0
  9
$DIMTMOVE
 70
     0
  9
$LUNITS
 70
     2
  9
$LUPREC
 70
     4
  9
$SKETCHINC
 40
0.1
  9
$FILLETRAD
 40
0.0
  9
$AUNITS
 70
     0
  9
$AUPREC
 70
     0
  9
$MENU
  1
acad
  9
$ELEVATION
 40
0.0
  9
$PELEVATION
 40
0.0
  9
$THICKNESS
 40
0.0
  9
$LIMCHECK
 70
     0
  9
$CHAMFERA
 40
0.0
  9
$CHAMFERB
 40
0.0
  9
$CHAMFERC
 40
0.0
  9
$CHAMFERD
 40
0.0
  9
$SKPOLY
 70
     0
  9
$TDCREATE
 40
0.000000000
  9
$TDUCREATE
 40
0.000000000
  9
$TDUPDATE
 40
0.000000000
  9
$TDUUPDATE
 40
0.000000000
  9
$TDINDWG
 40
0.0000000000
  9
$TDUSRTIMER
 40
0.0000000000
  9
$USRTIMER
 70
     1
  9
$ANGBASE
 50
0.0
  9
$ANGDIR
 70
     0
  9
$PDMODE
 70
     0
  9
$PDSIZE
 40
0.0
  9
$PLINEWID
 40
0.0
  9
$SPLFRAME
 70
     0
  9
$SPLINETYPE
 70
     6
  9
$SPLINESEGS
 70
     8
  9
$HANDSEED
  5
A4
  9
$SURFTAB1
 70
     6
  9
$SURFTAB2
 70
     6
  9
$SURFTYPE
 70
     6
  9
$SURFU
 70
     6
  9
$SURFV
 70
     6
  9
$UCSBASE
  2

  9
$UCSNAME
  2

  9
$UCSORG
 10
0.0
 20
0.0
 30
0.0
  9
$UCSXDIR
 10
1.0
 20
0.0
 30
0.0
  9
$UCSYDIR
 10
0.0
 20
1.0
 30
0.0
  9
$UCSORTHOREF
  2

  9
$UCSORTHOVIEW
 70
     0
  9
$UCSORGTOP
 10
0.0
 20
0.0
 30
0.0
  9
$UCSORGBOTTOM
 10
0.0
 20
0.0
 30
0.0
  9
$UCSORGLEFT
 10
0.0
 20
0.0
 30
0.0
  9
$UCSORGRIGHT
 10
0.0
 20
0.0
 30
0.0
  9
$UCSORGFRONT
 10
0.0
 20
0.0
 30
0.0
  9
$UCSORGBACK
 10
0.0
 20
0.0
 30
0.0
  9
$PUCSBASE
  2

  9
$PUCSNAME
  2

  9
$PUCSORG
 10
0.0
 20
0.0
 30
0.0
  9
$PUCSXDIR
 10
1.0
 20
0.0
 30
0.0
  9
$PUCSYDIR
 10
0.0
 20
1.0
 30
0.0
  9
$PUCSORTHOREF
  2

  9
$PUCSORTHOVIEW
 70
     0
  9
$PUCSORGTOP
 10
0.0
 20
0.0
 30
0.0
  9
$PUCSORGBOTTOM
 10
0.0
 20
0.0
 30
0.0
  9
$PUCSORGLEFT
 10
0.0
 20
0.0
 30
0.0
  9
$PUCSORGRIGHT
 10
0.0
 20
0.0
 30
0.0
  9
$PUCSORGFRONT
 10
0.0
 20
0.0
 30
0.0
  9
$PUCSORGBACK
 10
0.0
 20
0.0
 30
0.0
  9
$USERI1
 70
     0
  9
$USERI2
 70
     0
  9
$USERI3
 70
     0
  9
$USERI4
 70
     0
  9
$USERI5
 70
     0
  9
$USERR1
 40
0.0
  9
$USERR2
 40
0.0
  9
$USERR3
 40
0.0
  9
$USERR4
 40
0.0
  9
$USERR5
 40
0.0
  9
$WORLDVIEW
 70
     1
  9
$SHADEDGE
 70
     3
  9
$SHADEDIF
 70
    70
  9
$TILEMODE
 70
     1
  9
$MAXACTVP
 70
    16
  9
$PINSBASE
 10
0.0
 20
0.0
 30
0.0
  9
$PLIMCHECK
 70
     0
  9
$PEXTMIN
 10
1.000000E+20
 20
1.000000E+20
 30
1.000000E+20
  9
$PEXTMAX
 10
-1.000000E+20
 20
-1.000000E+20
 30
-1.000000E+20
  9
$PLIMMIN
 10
0.0
 20
0.0
  9
$PLIMMAX
 10
12.0
 20
9.0
  9
$UNITMODE
 70
     0
  9
$VISRETAIN
 70
     0
  9
$PLINEGEN
 70
     1
  9
$PSLTSCALE
 70
     0
  9
$TREEDEPTH
 70
  3020
  9
$CMLSTYLE
  2
Standard
  9
$CMLJUST
 70
     0
  9
$CMLSCALE
 40
1.0
  9
$PROXYGRAPHICS
 70
     0
  9
$MEASUREMENT
 70
     1
  9
$CELWEIGHT
370
     0
  9
$ENDCAPS
280
     0
  9
$JOINSTYLE
280
     0
  9
$LWDISPLAY
290
     0
  9
$INSUNITS
 70
     0
  9
$HYPERLINKBASE
  1

  9
$STYLESHEET
  1

  9
$XEDIT
290
     1
  9
$CEPSNTYPE
380
     0
  9
$PSTYLEMODE
290
     1
  9
$FINGERPRINTGUID
  2

  9
$VERSIONGUID
  2

  9
$EXTNAMES
290
     1
  9
$PSVPSCALE
 40
0.0
  0
ENDSEC
  0
SECTION
  2
CLASSES
  0
CLASS
  1
LWPOLYLINE
  2
AcDbPolyline
  3
AutoCAD 2000
 90
    32768
280
     0
281
     1
  0
CLASS
  1
IMAGE
  2
AcDbRasterImage
  3
ISM
 90
    32895
280
     0
281
     1
  0
CLASS
  1
OLE2FRAME
  2
AcDbOle2Frame
  3
AutoCAD 2000
 90
    32768
280
     0
281
     1
  0
CLASS
  1
HATCH
  2
AcDbHatch
  3
AutoCAD 2000
 90
    32768
280
     0
281
     1
  0
CLASS
  1
DICTIONARYVAR
  2
AcDbDictionaryVar
  3
AutoCAD 2000
 90
    32768
280
     0
281
     0
  0
CLASS
  1
RASTERVARIABLES
  2
AcDbRasterVariables
  3
ISM
 90
    32768
280
     0
281
     0
  0
CLASS
  1
IMAGEDEF
  2
AcDbRasterImageDef
  3
ISM
 90
    32768
280
     0
281
     0
  0
CLASS
  1
IMAGEDEF_REACTOR
  2
AcDbRasterImageDefReactor
  3
ISM
 90
    32769
280
     0
281
     0
  0
CLASS
  1
IDBUFFER
  2
AcDbIdBuffer
  3
AutoCAD 2000
 90
    32768
280
     0
281
     0
  0
CLASS
  1
SPATIAL_FILTER
  2
AcDbSpatialFilter
  3
AutoCAD 2000
 90
    32768
280
     0
281
     0
  0
CLASS
  1
XRECORD
  2
AcDbXrecord
  3
AutoCAD 2000
 90
    32768
280
     0
281
     0
  0
CLASS
  1
SORTENTSTABLE
  2
AcDbSortentsTable
  3
AutoCAD 2000
 90
    32768
280
     0
281
     0
  0
CLASS
  1
LAYER_INDEX
  2
AcDbLayerIndex
  3
AutoCAD 2000
 90
    32768
280
     0
281
     0
  0
CLASS
  1
SPATIAL_INDEX
  2
AcDbSpatialIndex
  3
AutoCAD 2000
 90
    32768
280
     0
281
     0
  0
CLASS
  1
OBJECT_PTR
  2
CAseDLPNTableRecord
  3
"ASE-LPNTableRecord"
 90
    32769
280
     0
281
     0
  0
CLASS
  1
LAYOUT
  2
AcDbLayout
  3
AutoCAD 2000
 90
        0
280
     0
281
     0
  0
CLASS
  1
PLOTSETTINGS
  2
AcDbPlotSettings
  3
AutoCAD 2000
 90
    32768
280
     0
281
     0
  0
CLASS
  1
ACDBDICTIONARYWDFLT
  2
AcDbDictionaryWithDefault
  3
AutoCAD 2000
 90
        0
280
     0
281
     0
  0
CLASS
  1
ACDBPLACEHOLDER
  2
AcDbPlaceHolder
  3
AutoCAD 2000
 90
        0
280
     0
281
     0
  0
CLASS
  1
VBA_PROJECT
  2
AcDbVbaProject
  3
acadvba
 90
    32768
280
     0
281
     0
  0
CLASS
  1
WIPEOUT
  2
AcDbWipeout
  3
WipeOut|AutoCAD Express Tool|expresstools@autodesk.com
 90
    32895
280
     0
281
     1
  0
CLASS
  1
WIPEOUTVARIABLES
  2
AcDbWipeoutVariables
  3
WipeOut|AutoCAD Express Tool|expresstools@autodesk.com
 90
        0
280
     0
281
     0
  0
CLASS
  1
RTEXT
  2
RText
  3
RText|AutoCAD Express Tool|expresstools@autodesk.com
 90
    32768
280
     0
281
     1
  0
CLASS
  1
ARCALIGNEDTEXT
  2
AcDbArcAlignedText
  3
ATEXT|AutoCAD Express Tool|expresstools@autodesk.com
 90
    32768
280
     0
281
     1
  0
ENDSEC
  0
SECTION
  2
TABLES
  0
TABLE
  2
VPORT
  5
7
100
AcDbSymbolTable
 70
     1
  0
VPORT
  5
15
100
AcDbSymbolTableRecord
100
AcDbViewportTableRecord
  2
*ACTIVE
 70
     0
 10
0.0
 20
0.0
 11
1.0
 21
1.0
 12
6.591288
 22
4.579184
 13
0.0
 23
0.0
 14
1.0
 24
1.0
 15
0.0
 25
0.0
 16
0.0
 26
0.0
 36
1.0
 17
0.0
 27
0.0
 37
0.0
 40
9.158369
 41
0.688564
 42
50.0
 43
0.0
 44
0.0
 50
0.0
 51
0.0
 71
     0
 72
   100
 73
     1
 74
     1
 75
     0
 76
     0
 77
     0
 78
     0
281
     0
 65
     0
110
0.0
120
0.0
130
0.0
111
1.0
121
0.0
131
0.0
112
0.0
122
1.0
132
0.0
345
0
346
0
 79
     0
146
0.0
  0
ENDTAB
  0
TABLE
  2
LTYPE
  5
4
100
AcDbSymbolTable
 70
     3
  0
LTYPE
  5
11
100
AcDbSymbolTableRecord
100
AcDbLinetypeTableRecord
  2
ByBlock
 70
    64
  3

 72
    65
 73
     0
 40
0.0
  0
LTYPE
  5
12
100
AcDbSymbolTableRecord
100
AcDbLinetypeTableRecord
  2
ByLayer
 70
    64
  3

 72
    65
 73
     0
 40
0.0
  0
LTYPE
  5
13
100
AcDbSymbolTableRecord
100
AcDbLinetypeTableRecord
  2
Continuous
 70
    64
  3
Solid line
 72
    65
 73
     0
 40
0.0
  0
ENDTAB
  0
TABLE
  2
LAYER
  5
2
100
AcDbSymbolTable
 70
     2
  0
LAYER
  5
14
100
AcDbSymbolTableRecord
100
AcDbLayerTableRecord
  2
0
 70
     0
 62
     7
  6
Continuous
290
     1
370
    -3
390
1D
  0
LAYER
  5
28
100
AcDbSymbolTableRecord
100
AcDbLayerTableRecord
  2
LIVELLO_1
 70
     0
 62
   160
  6
Continuous
290
     1
370
    -3
390
1D
  0
ENDTAB
  0
TABLE
  2
STYLE
  5
3
100
AcDbSymbolTable
 70
     5
  0
STYLE
  5
17
100
AcDbSymbolTableRecord
100
AcDbTextStyleTableRecord
  2
Standard
 70
     0
 40
0.0
 41
1.0
 50
0.0
 71
     0
 42
0.0
  3
txt
  4

  0
STYLE
  5
24
100
AcDbSymbolTableRecord
100
AcDbTextStyleTableRecord
  2
STD
 70
     0
 40
0.0
 41
1.0
 50
0.0
 71
     0
 42
0.0
  3
txt
  4

  0
STYLE
  5
25
100
AcDbSymbolTableRecord
100
AcDbTextStyleTableRecord
  2
TATESTD
 70
     4
 40
0.0
 41
1.0
 50
0.0
 71
     0
 42
0.0
  3
txt
  4

  0
STYLE
  5
26
100
AcDbSymbolTableRecord
100
AcDbTextStyleTableRecord
  2
KANJISTD
 70
     0
 40
0.0
 41
1.0
 50
0.0
 71
     0
 42
0.0
  3
txt
  4
extfont
  0
STYLE
  5
27
100
AcDbSymbolTableRecord
100
AcDbTextStyleTableRecord
  2
KANJITATE
 70
     4
 40
0.0
 41
1.0
 50
0.0
 71
     0
 42
0.0
  3
txt
  4
extfont
  0
ENDTAB
  0
TABLE
  2
VIEW
  5
5
100
AcDbSymbolTable
 70
     0
  0
ENDTAB
  0
TABLE
  2
UCS
  5
6
100
AcDbSymbolTable
 70
     0
  0
ENDTAB
  0
TABLE
  2
APPID
  5
8
100
AcDbSymbolTable
 70
     1
  0
APPID
  5
16
100
AcDbSymbolTableRecord
100
AcDbRegAppTableRecord
  2
ACAD
 70
     0
  0
ENDTAB
  0
TABLE
  2
DIMSTYLE
  5
9
100
AcDbSymbolTable
 70
     1
100
AcDbDimStyleTable
 71
     0
  0
DIMSTYLE
105
18
100
AcDbSymbolTableRecord
100
AcDbDimStyleTableRecord
  2
Standard
 70
     0
  3

  4

 40
1.0
 41
0.18
 42
0.0625
 43
0.38
 44
0.18
 45
0.0
 46
0.0
 47
0.0
 48
0.0
 71
     0
 72
     0
 73
     1
 74
     1
 75
     0
 76
     0
 77
     0
 78
     0
 79
     0
140
0.18
141
0.09
142
0.0
143
25.4
144
1.0
145
0.0
146
1.0
147
0.09
148
0.0
170
     0
171
     2
172
     0
173
     0
174
     0
175
     0
176
     0
177
     0
178
     0
179
     0
271
     4
272
     4
273
     2
274
     2
275
     0
276
     0
277
     2
278
    46
279
     0
280
     0
281
     0
282
     0
283
     1
284
     0
285
     0
286
     0
288
     0
340
17
341
0
342
0
343
0
344
0
371
    -2
372
    -2
  0
ENDTAB
  0
TABLE
  2
BLOCK_RECORD
  5
1
100
AcDbSymbolTable
 70
     1
  0
BLOCK_RECORD
  5
A
100
AcDbSymbolTableRecord
100
AcDbBlockTableRecord
  2
*MODEL_SPACE
340
20
  0
BLOCK_RECORD
  5
B
100
AcDbSymbolTableRecord
100
AcDbBlockTableRecord
  2
*PAPER_SPACE
340
21
  0
BLOCK_RECORD
  5
29
100
AcDbSymbolTableRecord
100
AcDbBlockTableRecord
  2
AI9-BLK1
340
0
102
{BLKREFS
331
2A
102
}
  0
ENDTAB
  0
ENDSEC
  0
SECTION
  2
BLOCKS
  0
BLOCK
  5
D
100
AcDbEntity
  8
0
100
AcDbBlockBegin
  2
*MODEL_SPACE
 70
     0
 10
0.0
 20
0.0
 30
0.0
  3
*MODEL_SPACE
  1

  0
ENDBLK
  5
E
100
AcDbEntity
  8
0
100
AcDbBlockEnd
  0
BLOCK
  5
F
100
AcDbEntity
 67
     1
  8
0
100
AcDbBlockBegin
  2
*PAPER_SPACE
 70
     0
 10
0.0
 20
0.0
 30
0.0
  3
*PAPER_SPACE
  1

  0
ENDBLK
  5
10
100
AcDbEntity
 67
     1
  8
0
100
AcDbBlockEnd
  0
BLOCK
  5
2B
100
AcDbEntity
  8
LIVELLO_1
 62
     7
100
AcDbBlockBegin
  2
AI9-BLK1
 70
     0
 10
0.0
 20
0.0
 30
0.0
  3
AI9-BLK1
  1

  0
LINE
  5
A2
100
AcDbEntity
  8
LIVELLO_1
 62
     7
100
AcDbLine
 10
126.614149
 20
60.447732
 30
0.0
 11
126.614149
 21
71.593132
 31
0.0
  0
LINE
  5
A1
100
AcDbEntity
  8
LIVELLO_1
 62
     7
100
AcDbLine
 10
-6.307281
 20
66.020518
 30
0.0
 11
126.614149
 21
66.020518
 31
0.0
  0
LINE
  5
A0
100
AcDbEntity
  8
LIVELLO_1
 62
     7
100
AcDbLine
 10
-153.118302
 20
66.020518
 30
0.0
 11
-33.902668
 21
66.020518
 31
0.0
  0
LINE
  5
9F
100
AcDbEntity
  8
LIVELLO_1
 62
     7
100
AcDbLine
 10
-153.118302
 20
60.447732
 30
0.0
 11
-153.118302
 21
71.593132
 31
0.0
  0
MTEXT
  5
9E
100
AcDbEntity
  8
LIVELLO_1
 62
     7
100
AcDbMText
 10
-32.788007
 20
73.075448
 30
0.0
 40
10.486935
 41
0.0
 71
     1
 72
     2
  1
\fCourier|b0|i0;\H10.4869;\W0.98;\C7;\U+0037\U+0030\U+0030
  7
STD
210
0.0
220
0.0
230
1.0
 73
     1
 44
1.0
  0
LINE
  5
9D
100
AcDbEntity
  8
LIVELLO_1
 62
     7
100
AcDbLine
 10
144.703312
 20
50.066625
 30
0.0
 11
133.746186
 21
50.066625
 31
0.0
  0
LINE
  5
9C
100
AcDbEntity
  8
LIVELLO_1
 62
     7
100
AcDbLine
 10
144.707791
 20
-41.013776
 30
0.0
 11
133.75032
 21
-41.013776
 31
0.0
  0
MTEXT
  5
9B
100
AcDbEntity
  8
LIVELLO_1
 62
     7
100
AcDbMText
 10
129.021238
 20
9.68051
 30
0.0
 40
10.328274
 41
0.0
 71
     1
 72
     2
  1
\fCourier|b0|i0;\H10.3283;\W0.98;\C7;\U+0032\U+0033\U+0035
  7
STD
210
0.0
220
0.0
230
1.0
 73
     1
 44
1.0
  0
LINE
  5
9A
100
AcDbEntity
  8
LIVELLO_1
 62
     7
100
AcDbLine
 10
139.075749
 20
49.656142
 30
0.0
 11
139.075749
 21
14.817614
 31
0.0
  0
LINE
  5
99
100
AcDbEntity
  8
LIVELLO_1
 62
     7
100
AcDbLine
 10
139.075749
 20
-8.71256
 30
0.0
 11
139.075749
 21
-40.783643
 31
0.0
  0
LINE
  5
98
100
AcDbEntity
  8
LIVELLO_1
 62
     7
100
AcDbLine
 10
-117.46432
 20
-5.349114
 30
0.0
 11
-117.46432
 21
-14.782819
 31
0.0
  0
POLYLINE
  5
92
100
AcDbEntity
  8
LIVELLO_1
 62
     7
100
AcDb2dPolyline
 66
     1
 10
0.0
 20
0.0
 30
0.0
 70
     1
  0
VERTEX
  5
93
100
AcDbEntity
  8
LIVELLO_1
 62
     7
100
AcDbVertex
100
AcDb2dVertex
 10
-119.305207
 20
-5.334989
 30
0.0
  0
VERTEX
  5
94
100
AcDbEntity
  8
LIVELLO_1
 62
     7
100
AcDbVertex
100
AcDb2dVertex
 10
23.534825
 20
-5.349114
 30
0.0
  0
VERTEX
  5
95
100
AcDbEntity
  8
LIVELLO_1
 62
     7
100
AcDbVertex
100
AcDb2dVertex
 10
23.534825
 20
-14.782819
 30
0.0
  0
VERTEX
  5
96
100
AcDbEntity
  8
LIVELLO_1
 62
     7
100
AcDbVertex
100
AcDb2dVertex
 10
-119.305207
 20
-14.791776
 30
0.0
  0
SEQEND
  5
97
100
AcDbEntity
  8
LIVELLO_1
 62
     7
  0
SPLINE
  5
91
100
AcDbEntity
  8
LIVELLO_1
 62
     7
100
AcDbSpline
210
0.0
220
0.0
230
1.0
 70
     8
 71
     3
 72
    17
 73
    13
 74
     0
 42
0.00000001
 43
0.00000001
 40
0.0
 40
0.0
 40
0.0
 40
0.0
 40
1.0
 40
1.0
 40
1.0
 40
2.0
 40
2.0
 40
2.0
 40
3.0
 40
3.0
 40
3.0
 40
4.0
 40
4.0
 40
4.0
 40
4.0
 10
52.723741319444443
 20
-14.788503011067707
 30
0.0
 10
52.723741319444443
 20
-14.788503011067707
 30
0.0
 10
47.802766927083326
 20
-14.782818603515624
 30
0.0
 10
47.802766927083326
 20
-14.782818603515624
 30
0.0
 10
47.802766927083326
 20
-14.782818603515624
 30
0.0
 10
47.802766927083326
 20
-5.3491136338975691
 30
0.0
 10
47.802766927083326
 20
-5.3491136338975691
 30
0.0
 10
47.802766927083326
 20
-5.3491136338975691
 30
0.0
 10
53.036555989583327
 20
-5.3406731499565971
 30
0.0
 10
53.036555989583327
 20
-5.3406731499565971
 30
0.0
 10
52.907709418402774
 20
-8.2128492567274289
 30
0.0
 10
52.796777343749994
 20
-11.390777587890623
 30
0.0
 10
52.723741319444443
 20
-14.788503011067707
 30
0.0
  0
SPLINE
  5
90
100
AcDbEntity
  8
LIVELLO_1
 62
     7
100
AcDbSpline
210
0.0
220
0.0
230
1.0
 70
     8
 71
     3
 72
    26
 73
    22
 74
     0
 42
0.00000001
 43
0.00000001
 40
0.0
 40
0.0
 40
0.0
 40
0.0
 40
1.0
 40
1.0
 40
1.0
 40
2.0
 40
2.0
 40
2.0
 40
3.0
 40
3.0
 40
3.0
 40
4.0
 40
4.0
 40
4.0
 40
5.0
 40
5.0
 40
5.0
 40
6.0
 40
6.0
 40
6.0
 40
7.0
 40
7.0
 40
7.0
 40
7.0
 10
39.914187282986106
 20
-6.3464687771267352
 30
0.0
 10
40.548084852430549
 20
-5.7280741373697914
 30
0.0
 10
41.409358723958327
 20
-5.3461853027343746
 30
0.0
 10
42.356415473090273
 20
-5.3461853027343746
 30
0.0
 10
42.356415473090273
 20
-5.3461853027343746
 30
0.0
 10
47.802766927083326
 20
-5.3461853027343746
 30
0.0
 10
47.802766927083326
 20
-5.3461853027343746
 30
0.0
 10
47.802766927083326
 20
-5.3461853027343746
 30
0.0
 10
47.802766927083326
 20
-14.780062527126734
 30
0.0
 10
47.802766927083326
 20
-14.780062527126734
 30
0.0
 10
47.802766927083326
 20
-14.780062527126734
 30
0.0
 10
42.356415473090273
 20
-14.780062527126734
 30
0.0
 10
42.356415473090273
 20
-14.780062527126734
 30
0.0
 10
41.409358723958327
 20
-14.780062527126734
 30
0.0
 10
40.548084852430549
 20
-14.400929768880207
 30
0.0
 10
39.914187282986106
 20
-13.779779052734373
 30
0.0
 10
40.757546657986104
 20
-12.782251654730901
 30
0.0
 10
41.268798828124993
 20
-11.483795166015623
 30
0.0
 10
41.268798828124993
 20
-10.062004258897568
 30
0.0
 10
41.268798828124993
 20
-8.6424526638454857
 30
0.0
 10
40.757546657986104
 20
-7.3439961751302079
 30
0.0
 10
39.914187282986106
 20
-6.3464687771267352
 30
0.0
  0
SPLINE
  5
8F
100
AcDbEntity
  8
LIVELLO_1
 62
     7
100
AcDbSpline
210
0.0
220
0.0
230
1.0
 70
     8
 71
     3
 72
    26
 73
    22
 74
     0
 42
0.00000001
 43
0.00000001
 40
0.0
 40
0.0
 40
0.0
 40
0.0
 40
1.0
 40
1.0
 40
1.0
 40
2.0
 40
2.0
 40
2.0
 40
3.0
 40
3.0
 40
3.0
 40
4.0
 40
4.0
 40
4.0
 40
5.0
 40
5.0
 40
5.0
 40
6.0
 40
6.0
 40
6.0
 40
7.0
 40
7.0
 40
7.0
 40
7.0
 10
31.423060438368054
 20
-13.779779052734373
 30
0.0
 10
30.78640679253472
 20
-14.400929768880207
 30
0.0
 10
29.926855468749999
 20
-14.780062527126734
 30
0.0
 10
28.979798719618053
 20
-14.780062527126734
 30
0.0
 10
28.979798719618053
 20
-14.780062527126734
 30
0.0
 10
23.534825303819442
 20
-14.780062527126734
 30
0.0
 10
23.534825303819442
 20
-14.780062527126734
 30
0.0
 10
23.534825303819442
 20
-14.780062527126734
 30
0.0
 10
23.534825303819442
 20
-5.3461853027343746
 30
0.0
 10
23.534825303819442
 20
-5.3461853027343746
 30
0.0
 10
23.534825303819442
 20
-5.3461853027343746
 30
0.0
 10
28.979798719618053
 20
-5.3461853027343746
 30
0.0
 10
28.979798719618053
 20
-5.3461853027343746
 30
0.0
 10
29.926855468749999
 20
-5.3461853027343746
 30
0.0
 10
30.78640679253472
 20
-5.7280741373697914
 30
0.0
 10
31.423060438368054
 20
-6.3464687771267352
 30
0.0
 10
30.579012044270829
 20
-7.3439961751302079
 30
0.0
 10
30.068793402777775
 20
-8.6424526638454857
 30
0.0
 10
30.068793402777775
 20
-10.062004258897568
 30
0.0
 10
30.068793402777775
 20
-11.483795166015623
 30
0.0
 10
30.579012044270829
 20
-12.782251654730901
 30
0.0
 10
31.423060438368054
 20
-13.779779052734373
 30
0.0
  0
ELLIPSE
  5
8E
100
AcDbEntity
  8
LIVELLO_1
 62
     7
100
AcDbEllipse
 10
35.668796
 20
-10.062004
 30
0.0
 11
0.0006890190972222
 21
-1.7425292968749999
 31
0.0
210
0.0
220
0.0
230
1.0
 40
0.982602
 41
0.0
 42
6.2831853071795862
  0
ELLIPSE
  5
8D
100
AcDbEntity
  8
LIVELLO_1
 62
     7
100
AcDbEllipse
 10
35.668796
 20
-10.062004
 30
0.0
 11
0.0006890190972222
 21
-5.6992214626736102
 31
0.0
210
0.0
220
0.0
230
1.0
 40
0.982591
 41
0.0
 42
6.2831853071795862
  0
LINE
  5
8C
100
AcDbEntity
  8
LIVELLO_1
 62
     7
100
AcDbLine
 10
-123.874609
 20
20.224347
 30
0.0
 11
-123.874609
 21
-40.350595
 31
0.0
  0
SPLINE
  5
8B
100
AcDbEntity
  8
LIVELLO_1
 62
     7
100
AcDbSpline
210
0.0
220
0.0
230
1.0
 70
     8
 71
     3
 72
    23
 73
    19
 74
     0
 42
0.00000001
 43
0.00000001
 40
0.0
 40
0.0
 40
0.0
 40
0.0
 40
1.0
 40
1.0
 40
1.0
 40
2.0
 40
2.0
 40
2.0
 40
3.0
 40
3.0
 40
3.0
 40
4.0
 40
4.0
 40
4.0
 40
5.0
 40
5.0
 40
5.0
 40
6.0
 40
6.0
 40
6.0
 40
6.0
 10
-123.87460937499999
 20
-40.350594753689229
 30
0.0
 10
-123.87460937499999
 20
-40.350594753689229
 30
0.0
 10
-146.2766872829861
 20
-41.699349636501729
 30
0.0
 10
-146.2766872829861
 20
-41.699349636501729
 30
0.0
 10
-146.2766872829861
 20
-41.699349636501729
 30
0.0
 10
-146.2766872829861
 20
21.57051798502604
 30
0.0
 10
-146.2766872829861
 20
21.57051798502604
 30
0.0
 10
-146.2766872829861
 20
21.57051798502604
 30
0.0
 10
-123.87460937499999
 20
20.224346923828122
 30
0.0
 10
-123.87460937499999
 20
20.224346923828122
 30
0.0
 10
-122.65917968749999
 20
20.224346923828122
 30
0.0
 10
-121.66871473524304
 20
19.221135118272567
 30
0.0
 10
-121.66871473524304
 20
17.979005940755208
 30
0.0
 10
-121.66871473524304
 20
17.979005940755208
 30
0.0
 10
-121.66871473524304
 20
-38.105426025390621
 30
0.0
 10
-121.66871473524304
 20
-38.105426025390621
 30
0.0
 10
-121.66871473524304
 20
-39.344626871744786
 30
0.0
 10
-122.65917968749999
 20
-40.350594753689229
 30
0.0
 10
-123.87460937499999
 20
-40.350594753689229
 30
0.0
  0
SPLINE
  5
8A
100
AcDbEntity
  8
LIVELLO_1
 62
     7
100
AcDbSpline
210
0.0
220
0.0
230
1.0
 70
     8
 71
     3
 72
    23
 73
    19
 74
     0
 42
0.00000001
 43
0.00000001
 40
0.0
 40
0.0
 40
0.0
 40
0.0
 40
1.0
 40
1.0
 40
1.0
 40
2.0
 40
2.0
 40
2.0
 40
3.0
 40
3.0
 40
3.0
 40
4.0
 40
4.0
 40
4.0
 40
5.0
 40
5.0
 40
5.0
 40
6.0
 40
6.0
 40
6.0
 40
6.0
 10
-121.66871473524304
 20
18.206554497612846
 30
0.0
 10
-121.66871473524304
 20
18.206554497612846
 30
0.0
 10
-119.30520697699652
 20
10.301438395182291
 30
0.0
 10
-119.30520697699652
 20
8.5139506022135407
 30
0.0
 10
-119.30520697699652
 20
8.5139506022135407
 30
0.0
 10
-119.30520697699652
 20
-10.062004258897568
 30
0.0
 10
-119.30520697699652
 20
-10.062004258897568
 30
0.0
 10
-119.30520697699652
 20
-10.062004258897568
 30
0.0
 10
-119.30520697699652
 20
-28.640370686848957
 30
0.0
 10
-119.30520697699652
 20
-28.640370686848957
 30
0.0
 10
-119.30520697699652
 20
-30.427686225043399
 30
0.0
 10
-121.66871473524304
 20
-38.330390760633676
 30
0.0
 10
-121.66871473524304
 20
-38.330390760633676
 30
0.0
 10
-121.64184299045138
 20
-38.186730278862846
 30
0.0
 10
-121.66871473524304
 20
-38.035146077473954
 30
0.0
 10
-121.66871473524304
 20
-37.877705213758674
 30
0.0
 10
-121.66871473524304
 20
-37.877705213758674
 30
0.0
 10
-121.66871473524304
 20
18.206554497612846
 30
0.0
 10
-121.66871473524304
 20
18.206554497612846
 30
0.0
  0
POLYLINE
  5
84
100
AcDbEntity
  8
LIVELLO_1
 62
     7
100
AcDb2dPolyline
 66
     1
 10
0.0
 20
0.0
 30
0.0
 70
     1
  0
VERTEX
  5
85
100
AcDbEntity
  8
LIVELLO_1
 62
     7
100
AcDbVertex
100
AcDb2dVertex
 10
-153.327592
 20
23.751263
 30
0.0
  0
VERTEX
  5
86
100
AcDbEntity
  8
LIVELLO_1
 62
     7
100
AcDbVertex
100
AcDb2dVertex
 10
-146.276687
 20
23.301678
 30
0.0
  0
VERTEX
  5
87
100
AcDbEntity
  8
LIVELLO_1
 62
     7
100
AcDbVertex
100
AcDb2dVertex
 10
-146.276687
 20
-43.428099
 30
0.0
  0
VERTEX
  5
88
100
AcDbEntity
  8
LIVELLO_1
 62
     7
100
AcDbVertex
100
AcDb2dVertex
 10
-153.327592
 20
-43.878028
 30
0.0
  0
SEQEND
  5
89
100
AcDbEntity
  8
LIVELLO_1
 62
     7
  0
SPLINE
  5
83
100
AcDbEntity
  8
LIVELLO_1
 62
     7
100
AcDbSpline
210
0.0
220
0.0
230
1.0
 70
     8
 71
     3
 72
    17
 73
    13
 74
     0
 42
0.00000001
 43
0.00000001
 40
0.0
 40
0.0
 40
0.0
 40
0.0
 40
1.0
 40
1.0
 40
1.0
 40
2.0
 40
2.0
 40
2.0
 40
3.0
 40
3.0
 40
3.0
 40
4.0
 40
4.0
 40
4.0
 40
4.0
 10
118.09856228298609
 20
-35.941217041015619
 30
0.0
 10
118.32903917100694
 20
-36.562367757161454
 30
0.0
 10
120.52804361979166
 20
-38.557767062717012
 30
0.0
 10
119.35050998263888
 20
-38.557767062717012
 30
0.0
 10
118.14231499565972
 20
-38.557767062717012
 30
0.0
 10
117.35407714843748
 20
-36.837975396050346
 30
0.0
 10
117.13806966145832
 20
-36.211312527126729
 30
0.0
 10
116.95100097656248
 20
-35.671810574001732
 30
0.0
 10
116.82422146267361
 20
-22.677082655164927
 30
0.0
 10
117.24969075520832
 20
-22.677082655164927
 30
0.0
 10
117.88496636284721
 20
-22.677082655164927
 30
0.0
 10
117.77575683593749
 20
-35.078909640842014
 30
0.0
 10
118.09856228298609
 20
-35.941217041015619
 30
0.0
  0
SPLINE
  5
82
100
AcDbEntity
  8
LIVELLO_1
 62
     7
100
AcDbSpline
210
0.0
220
0.0
230
1.0
 70
     8
 71
     3
 72
    17
 73
    13
 74
     0
 42
0.00000001
 43
0.00000001
 40
0.0
 40
0.0
 40
0.0
 40
0.0
 40
1.0
 40
1.0
 40
1.0
 40
2.0
 40
2.0
 40
2.0
 40
3.0
 40
3.0
 40
3.0
 40
4.0
 40
4.0
 40
4.0
 40
4.0
 10
116.55860460069444
 20
-36.211312527126729
 30
0.0
 10
116.79356011284722
 20
-36.832118733723952
 30
0.0
 10
118.60430230034721
 20
-38.557767062717012
 30
0.0
 10
117.42711317274305
 20
-38.557767062717012
 30
0.0
 10
116.21857367621527
 20
-38.557767062717012
 30
0.0
 10
115.55091417100694
 20
-36.837975396050346
 30
0.0
 10
115.33490668402777
 20
-36.211312527126729
 30
0.0
 10
115.14818250868055
 20
-35.671810574001732
 30
0.0
 10
115.02002495659721
 20
-22.677082655164927
 30
0.0
 10
115.55091417100694
 20
-22.677082655164927
 30
0.0
 10
116.08662651909721
 20
-22.677082655164927
 30
0.0
 10
116.23683268229166
 20
-35.345904541015621
 30
0.0
 10
116.55860460069444
 20
-36.211312527126729
 30
0.0
  0
SPLINE
  5
81
100
AcDbEntity
  8
LIVELLO_1
 62
     7
100
AcDbSpline
210
0.0
220
0.0
230
1.0
 70
     8
 71
     3
 72
    17
 73
    13
 74
     0
 42
0.00000001
 43
0.00000001
 40
0.0
 40
0.0
 40
0.0
 40
0.0
 40
1.0
 40
1.0
 40
1.0
 40
2.0
 40
2.0
 40
2.0
 40
3.0
 40
3.0
 40
3.0
 40
4.0
 40
4.0
 40
4.0
 40
4.0
 10
114.54287923177083
 20
-36.211312527126729
 30
0.0
 10
114.77542317708333
 20
-36.832118733723952
 30
0.0
 10
116.27025010850693
 20
-38.557767062717012
 30
0.0
 10
115.09581705729165
 20
-38.557767062717012
 30
0.0
 10
113.88452148437499
 20
-38.557767062717012
 30
0.0
 10
113.21686197916665
 20
-36.837975396050346
 30
0.0
 10
113.00085449218749
 20
-36.211312527126729
 30
0.0
 10
112.81240776909721
 20
-35.671810574001732
 30
0.0
 10
112.60191243489582
 20
-22.677082655164927
 30
0.0
 10
113.39566243489583
 20
-22.677082655164927
 30
0.0
 10
114.11947699652777
 20
-22.677082655164927
 30
0.0
 10
114.22041829427083
 20
-35.345904541015621
 30
0.0
 10
114.54287923177083
 20
-36.211312527126729
 30
0.0
  0
SPLINE
  5
80
100
AcDbEntity
  8
LIVELLO_1
 62
     7
100
AcDbSpline
210
0.0
220
0.0
230
1.0
 70
     8
 71
     3
 72
    17
 73
    13
 74
     0
 42
0.00000001
 43
0.00000001
 40
0.0
 40
0.0
 40
0.0
 40
0.0
 40
1.0
 40
1.0
 40
1.0
 40
2.0
 40
2.0
 40
2.0
 40
3.0
 40
3.0
 40
3.0
 40
4.0
 40
4.0
 40
4.0
 40
4.0
 10
112.12407769097221
 20
-36.211312527126729
 30
0.0
 10
112.35731065538194
 20
-36.832118733723952
 30
0.0
 10
113.83008897569444
 20
-38.557767062717012
 30
0.0
 10
112.65393337673611
 20
-38.557767062717012
 30
0.0
 10
111.44573838975694
 20
-38.557767062717012
 30
0.0
 10
110.77670084635416
 20
-36.837975396050346
 30
0.0
 10
110.55862630208333
 20
-36.211312527126729
 30
0.0
 10
110.37500271267361
 20
-35.671810574001732
 30
0.0
 10
110.53244357638889
 20
-22.649005126953124
 30
0.0
 10
111.11535373263888
 20
-22.649005126953124
 30
0.0
 10
111.91185980902777
 20
-22.649005126953124
 30
0.0
 10
111.80058322482638
 20
-35.345904541015621
 30
0.0
 10
112.12407769097221
 20
-36.211312527126729
 30
0.0
  0
SPLINE
  5
7F
100
AcDbEntity
  8
LIVELLO_1
 62
     7
100
AcDbSpline
210
0.0
220
0.0
230
1.0
 70
     8
 71
     3
 72
    17
 73
    13
 74
     0
 42
0.00000001
 43
0.00000001
 40
0.0
 40
0.0
 40
0.0
 40
0.0
 40
1.0
 40
1.0
 40
1.0
 40
2.0
 40
2.0
 40
2.0
 40
3.0
 40
3.0
 40
3.0
 40
4.0
 40
4.0
 40
4.0
 40
4.0
 10
109.41933322482637
 20
-36.211312527126729
 30
0.0
 10
109.65118815104165
 20
-36.832118733723952
 30
0.0
 10
111.12637803819443
 20
-38.557767062717012
 30
0.0
 10
109.95056694878471
 20
-38.557767062717012
 30
0.0
 10
108.73927137586804
 20
-38.557767062717012
 30
0.0
 10
107.87903103298611
 20
-36.837975396050346
 30
0.0
 10
107.66130099826388
 20
-36.211312527126729
 30
0.0
 10
107.47492133246527
 20
-35.671810574001732
 30
0.0
 10
107.63442925347221
 20
-22.649005126953124
 30
0.0
 10
108.35858832465277
 20
-22.677082655164927
 30
0.0
 10
109.20711534288193
 20
-22.708260769314233
 30
0.0
 10
109.09480523003471
 20
-35.345904541015621
 30
0.0
 10
109.41933322482637
 20
-36.211312527126729
 30
0.0
  0
SPLINE
  5
7E
100
AcDbEntity
  8
LIVELLO_1
 62
     7
100
AcDbSpline
210
0.0
220
0.0
230
1.0
 70
     8
 71
     3
 72
    17
 73
    13
 74
     0
 42
0.00000001
 43
0.00000001
 40
0.0
 40
0.0
 40
0.0
 40
0.0
 40
1.0
 40
1.0
 40
1.0
 40
2.0
 40
2.0
 40
2.0
 40
3.0
 40
3.0
 40
3.0
 40
4.0
 40
4.0
 40
4.0
 40
4.0
 10
106.73284776475694
 20
-36.211312527126729
 30
0.0
 10
106.96573621961805
 20
-36.832118733723952
 30
0.0
 10
108.06885579427082
 20
-38.557767062717012
 30
0.0
 10
106.89132215711804
 20
-38.557767062717012
 30
0.0
 10
105.68209364149304
 20
-38.557767062717012
 30
0.0
 10
104.96206868489583
 20
-36.837975396050346
 30
0.0
 10
104.7443386501736
 20
-36.211312527126729
 30
0.0
 10
104.55726996527777
 20
-35.671810574001732
 30
0.0
 10
104.71781141493055
 20
-22.677082655164927
 30
0.0
 10
105.56496039496527
 20
-22.677082655164927
 30
0.0
 10
106.57230631510416
 20
-22.677082655164927
 30
0.0
 10
106.40935329861109
 20
-35.345904541015621
 30
0.0
 10
106.73284776475694
 20
-36.211312527126729
 30
0.0
  0
SPLINE
  5
7D
100
AcDbEntity
  8
LIVELLO_1
 62
     7
100
AcDbSpline
210
0.0
220
0.0
230
1.0
 70
     8
 71
     3
 72
    17
 73
    13
 74
     0
 42
0.00000001
 43
0.00000001
 40
0.0
 40
0.0
 40
0.0
 40
0.0
 40
1.0
 40
1.0
 40
1.0
 40
2.0
 40
2.0
 40
2.0
 40
3.0
 40
3.0
 40
3.0
 40
4.0
 40
4.0
 40
4.0
 40
4.0
 10
103.81554090711805
 20
-36.211312527126729
 30
0.0
 10
104.04567328559027
 20
-36.832118733723952
 30
0.0
 10
104.74709472656249
 20
-38.557767062717012
 30
0.0
 10
103.56956108940972
 20
-38.557767062717012
 30
0.0
 10
102.35964355468749
 20
-38.557767062717012
 30
0.0
 10
101.8511474609375
 20
-36.837975396050346
 30
0.0
 10
101.63513997395832
 20
-36.211312527126729
 30
0.0
 10
101.44910481770832
 20
-35.671810574001732
 30
0.0
 10
101.5011257595486
 20
-22.649005126953124
 30
0.0
 10
102.50984971788193
 20
-22.677082655164927
 30
0.0
 10
103.60332302517361
 20
-22.708260769314233
 30
0.0
 10
103.49204644097222
 20
-35.345904541015621
 30
0.0
 10
103.81554090711805
 20
-36.211312527126729
 30
0.0
  0
SPLINE
  5
7C
100
AcDbEntity
  8
LIVELLO_1
 62
     7
100
AcDbSpline
210
0.0
220
0.0
230
1.0
 70
     8
 71
     3
 72
    17
 73
    13
 74
     0
 42
0.00000001
 43
0.00000001
 40
0.0
 40
0.0
 40
0.0
 40
0.0
 40
1.0
 40
1.0
 40
1.0
 40
2.0
 40
2.0
 40
2.0
 40
3.0
 40
3.0
 40
3.0
 40
4.0
 40
4.0
 40
4.0
 40
4.0
 10
100.6050564236111
 20
-36.211312527126729
 30
0.0
 10
100.83691134982638
 20
-36.832118733723952
 30
0.0
 10
101.35229763454861
 20
-38.557767062717012
 30
0.0
 10
100.17476399739583
 20
-38.557767062717012
 30
0.0
 10
98.963812934027771
 20
-38.557767062717012
 30
0.0
 10
98.456350368923609
 20
-36.837975396050346
 30
0.0
 10
98.240342881944429
 20
-36.211312527126729
 30
0.0
 10
98.051551649305551
 20
-35.671810574001732
 30
0.0
 10
98.265147569444437
 20
-22.649005126953124
 30
0.0
 10
99.274216037326383
 20
-22.677082655164927
 30
0.0
 10
100.33496093749999
 20
-22.708260769314233
 30
0.0
 10
100.28190646701388
 20
-35.345904541015621
 30
0.0
 10
100.6050564236111
 20
-36.211312527126729
 30
0.0
  0
SPLINE
  5
7B
100
AcDbEntity
  8
LIVELLO_1
 62
     7
100
AcDbSpline
210
0.0
220
0.0
230
1.0
 70
     8
 71
     3
 72
    17
 73
    13
 74
     0
 42
0.00000001
 43
0.00000001
 40
0.0
 40
0.0
 40
0.0
 40
0.0
 40
1.0
 40
1.0
 40
1.0
 40
2.0
 40
2.0
 40
2.0
 40
3.0
 40
3.0
 40
3.0
 40
4.0
 40
4.0
 40
4.0
 40
4.0
 10
97.06969943576388
 20
-36.211312527126729
 30
0.0
 10
97.302932400173603
 20
-36.832118733723952
 30
0.0
 10
97.499302842881931
 20
-38.557767062717012
 30
0.0
 10
96.321769205729154
 20
-38.557767062717012
 30
0.0
 10
95.110818142361097
 20
-38.557767062717012
 30
0.0
 10
94.924093967013874
 20
-36.837975396050346
 30
0.0
 10
94.70601942274304
 20
-36.211312527126729
 30
0.0
 10
94.519295247395831
 20
-35.671810574001732
 30
0.0
 10
94.70601942274304
 20
-22.677082655164927
 30
0.0
 10
95.887687174479154
 20
-22.677082655164927
 30
0.0
 10
97.06969943576388
 20
-22.677082655164927
 30
0.0
 10
96.746204969618049
 20
-35.345904541015621
 30
0.0
 10
97.06969943576388
 20
-36.211312527126729
 30
0.0
  0
SPLINE
  5
7A
100
AcDbEntity
  8
LIVELLO_1
 62
     7
100
AcDbSpline
210
0.0
220
0.0
230
1.0
 70
     8
 71
     3
 72
    17
 73
    13
 74
     0
 42
0.00000001
 43
0.00000001
 40
0.0
 40
0.0
 40
0.0
 40
0.0
 40
1.0
 40
1.0
 40
1.0
 40
2.0
 40
2.0
 40
2.0
 40
3.0
 40
3.0
 40
3.0
 40
4.0
 40
4.0
 40
4.0
 40
4.0
 10
93.535720486111103
 20
-36.211312527126729
 30
0.0
 10
93.767919921874991
 20
-36.832118733723952
 30
0.0
 10
93.785834418402771
 20
-38.557767062717012
 30
0.0
 10
92.608300781249994
 20
-38.557767062717012
 30
0.0
 10
91.400105794270829
 20
-38.557767062717012
 30
0.0
 10
91.385980902777774
 20
-36.837975396050346
 30
0.0
 10
91.169628906249997
 20
-36.211312527126729
 30
0.0
 10
90.983593749999997
 20
-35.671810574001732
 30
0.0
 10
91.169628906249997
 20
-22.677082655164927
 30
0.0
 10
92.354052734374989
 20
-22.677082655164927
 30
0.0
 10
93.535720486111103
 20
-22.677082655164927
 30
0.0
 10
93.213948567708329
 20
-35.345904541015621
 30
0.0
 10
93.535720486111103
 20
-36.211312527126729
 30
0.0
  0
SPLINE
  5
79
100
AcDbEntity
  8
LIVELLO_1
 62
     7
100
AcDbSpline
210
0.0
220
0.0
230
1.0
 70
     8
 71
     3
 72
    17
 73
    13
 74
     0
 42
0.00000001
 43
0.00000001
 40
0.0
 40
0.0
 40
0.0
 40
0.0
 40
1.0
 40
1.0
 40
1.0
 40
2.0
 40
2.0
 40
2.0
 40
3.0
 40
3.0
 40
3.0
 40
4.0
 40
4.0
 40
4.0
 40
4.0
 10
89.980726453993043
 20
-36.211312527126729
 30
0.0
 10
90.213959418402766
 20
-36.832118733723952
 30
0.0
 10
89.974869791666663
 20
-38.557767062717012
 30
0.0
 10
88.798714192708331
 20
-38.557767062717012
 30
0.0
 10
87.590519205729166
 20
-38.557767062717012
 30
0.0
 10
87.833742947048606
 20
-36.837975396050346
 30
0.0
 10
87.615668402777771
 20
-36.211312527126729
 30
0.0
 10
87.43170030381944
 20
-35.671810574001732
 30
0.0
 10
87.615668402777771
 20
-22.677082655164927
 30
0.0
 10
88.798714192708331
 20
-22.677082655164927
 30
0.0
 10
89.980726453993043
 20
-22.677082655164927
 30
0.0
 10
89.657576497395823
 20
-35.345904541015621
 30
0.0
 10
89.980726453993043
 20
-36.211312527126729
 30
0.0
  0
SPLINE
  5
78
100
AcDbEntity
  8
LIVELLO_1
 62
     7
100
AcDbSpline
210
0.0
220
0.0
230
1.0
 70
     8
 71
     3
 72
    17
 73
    13
 74
     0
 42
0.00000001
 43
0.00000001
 40
0.0
 40
0.0
 40
0.0
 40
0.0
 40
1.0
 40
1.0
 40
1.0
 40
2.0
 40
2.0
 40
2.0
 40
3.0
 40
3.0
 40
3.0
 40
4.0
 40
4.0
 40
4.0
 40
4.0
 10
52.431252712673604
 20
-35.941217041015619
 30
0.0
 10
52.198364257812493
 20
-36.562367757161454
 30
0.0
 10
50.001771375868053
 20
-38.557767062717012
 30
0.0
 10
51.179649522569441
 20
-38.557767062717012
 30
0.0
 10
52.386810980902773
 20
-38.557767062717012
 30
0.0
 10
53.173326280381943
 20
-36.837975396050346
 30
0.0
 10
53.391056315104159
 20
-36.211312527126729
 30
0.0
 10
53.579158528645827
 20
-35.671810574001732
 30
0.0
 10
53.704215494791661
 20
-22.677082655164927
 30
0.0
 10
53.279779730902774
 20
-22.677082655164927
 30
0.0
 10
52.643470594618051
 20
-22.677082655164927
 30
0.0
 10
52.754402669270831
 20
-35.078909640842014
 30
0.0
 10
52.431252712673604
 20
-35.941217041015619
 30
0.0
  0
SPLINE
  5
77
100
AcDbEntity
  8
LIVELLO_1
 62
     7
100
AcDbSpline
210
0.0
220
0.0
230
1.0
 70
     8
 71
     3
 72
    17
 73
    13
 74
     0
 42
0.00000001
 43
0.00000001
 40
0.0
 40
0.0
 40
0.0
 40
0.0
 40
1.0
 40
1.0
 40
1.0
 40
2.0
 40
2.0
 40
2.0
 40
3.0
 40
3.0
 40
3.0
 40
4.0
 40
4.0
 40
4.0
 40
4.0
 10
53.968454318576384
 20
-36.211312527126729
 30
0.0
 10
53.736943901909719
 20
-36.832118733723952
 30
0.0
 10
51.925512695312499
 20
-38.557767062717012
 30
0.0
 10
53.102701822916664
 20
-38.557767062717012
 30
0.0
 10
54.311241319444441
 20
-38.557767062717012
 30
0.0
 10
54.978900824652776
 20
-36.837975396050346
 30
0.0
 10
55.195597330729164
 20
-36.211312527126729
 30
0.0
 10
55.381976996527776
 20
-35.671810574001732
 30
0.0
 10
55.507378472222214
 20
-22.677082655164927
 30
0.0
 10
54.977178276909719
 20
-22.677082655164927
 30
0.0
 10
54.440432400173606
 20
-22.677082655164927
 30
0.0
 10
54.29298231336805
 20
-35.345904541015621
 30
0.0
 10
53.968454318576384
 20
-36.211312527126729
 30
0.0
  0
SPLINE
  5
76
100
AcDbEntity
  8
LIVELLO_1
 62
     7
100
AcDbSpline
210
0.0
220
0.0
230
1.0
 70
     8
 71
     3
 72
    17
 73
    13
 74
     0
 42
0.00000001
 43
0.00000001
 40
0.0
 40
0.0
 40
0.0
 40
0.0
 40
1.0
 40
1.0
 40
1.0
 40
2.0
 40
2.0
 40
2.0
 40
3.0
 40
3.0
 40
3.0
 40
4.0
 40
4.0
 40
4.0
 40
4.0
 10
55.98521321614583
 20
-36.211312527126729
 30
0.0
 10
55.751980251736107
 20
-36.832118733723952
 30
0.0
 10
54.256464301215274
 20
-38.557767062717012
 30
0.0
 10
55.433997938368051
 20
-38.557767062717012
 30
0.0
 10
56.644949001736109
 20
-38.557767062717012
 30
0.0
 10
57.312608506944436
 20
-36.837975396050346
 30
0.0
 10
57.527582465277774
 20
-36.211312527126729
 30
0.0
 10
57.716029188368047
 20
-35.671810574001732
 30
0.0
 10
57.928247070312494
 20
-22.677082655164927
 30
0.0
 10
57.131396484374996
 20
-22.677082655164927
 30
0.0
 10
56.410682508680551
 20
-22.677082655164927
 30
0.0
 10
56.309741210937496
 20
-35.345904541015621
 30
0.0
 10
55.98521321614583
 20
-36.211312527126729
 30
0.0
  0
SPLINE
  5
75
100
AcDbEntity
  8
LIVELLO_1
 62
     7
100
AcDbSpline
210
0.0
220
0.0
230
1.0
 70
     8
 71
     3
 72
    17
 73
    13
 74
     0
 42
0.00000001
 43
0.00000001
 40
0.0
 40
0.0
 40
0.0
 40
0.0
 40
1.0
 40
1.0
 40
1.0
 40
2.0
 40
2.0
 40
2.0
 40
3.0
 40
3.0
 40
3.0
 40
4.0
 40
4.0
 40
4.0
 40
4.0
 10
58.405737304687491
 20
-36.211312527126729
 30
0.0
 10
58.175604926215271
 20
-36.832118733723952
 30
0.0
 10
56.698692491319441
 20
-38.557767062717012
 30
0.0
 10
57.876226128472219
 20
-38.557767062717012
 30
0.0
 10
59.084421115451384
 20
-38.557767062717012
 30
0.0
 10
59.752080620659719
 20
-36.837975396050346
 30
0.0
 10
59.968777126736107
 20
-36.211312527126729
 30
0.0
 10
60.156879340277776
 20
-35.671810574001732
 30
0.0
 10
59.997715928819439
 20
-22.649005126953124
 30
0.0
 10
59.413427734374991
 20
-22.649005126953124
 30
0.0
 10
58.617955186631939
 20
-22.649005126953124
 30
0.0
 10
58.728887261284719
 20
-35.345904541015621
 30
0.0
 10
58.405737304687491
 20
-36.211312527126729
 30
0.0
  0
SPLINE
  5
74
100
AcDbEntity
  8
LIVELLO_1
 62
     7
100
AcDbSpline
210
0.0
220
0.0
230
1.0
 70
     8
 71
     3
 72
    17
 73
    13
 74
     0
 42
0.00000001
 43
0.00000001
 40
0.0
 40
0.0
 40
0.0
 40
0.0
 40
1.0
 40
1.0
 40
1.0
 40
2.0
 40
2.0
 40
2.0
 40
3.0
 40
3.0
 40
3.0
 40
4.0
 40
4.0
 40
4.0
 40
4.0
 10
61.110826280381936
 20
-36.211312527126729
 30
0.0
 10
60.878971354166659
 20
-36.832118733723952
 30
0.0
 10
59.403436957465274
 20
-38.557767062717012
 30
0.0
 10
60.581315104166663
 20
-38.557767062717012
 30
0.0
 10
61.791232638888886
 20
-38.557767062717012
 30
0.0
 10
62.649405924479161
 20
-36.837975396050346
 30
0.0
 10
62.86610243055555
 20
-36.211312527126729
 30
0.0
 10
63.054204644097219
 20
-35.671810574001732
 30
0.0
 10
62.895385742187493
 20
-22.649005126953124
 30
0.0
 10
62.171571180555553
 20
-22.677082655164927
 30
0.0
 10
61.323044162326383
 20
-22.708260769314233
 30
0.0
 10
61.432598198784717
 20
-35.345904541015621
 30
0.0
 10
61.110826280381936
 20
-36.211312527126729
 30
0.0
  0
SPLINE
  5
73
100
AcDbEntity
  8
LIVELLO_1
 62
     7
100
AcDbSpline
210
0.0
220
0.0
230
1.0
 70
     8
 71
     3
 72
    17
 73
    13
 74
     0
 42
0.00000001
 43
0.00000001
 40
0.0
 40
0.0
 40
0.0
 40
0.0
 40
1.0
 40
1.0
 40
1.0
 40
2.0
 40
2.0
 40
2.0
 40
3.0
 40
3.0
 40
3.0
 40
4.0
 40
4.0
 40
4.0
 40
4.0
 10
63.797311740451384
 20
-36.211312527126729
 30
0.0
 10
63.564078776041661
 20
-36.832118733723952
 30
0.0
 10
62.461303710937493
 20
-38.557767062717012
 30
0.0
 10
63.637459309895824
 20
-38.557767062717012
 30
0.0
 10
64.8487548828125
 20
-38.557767062717012
 30
0.0
 10
65.568090820312491
 20
-36.837975396050346
 30
0.0
 10
65.785476345486103
 20
-36.211312527126729
 30
0.0
 10
65.971166992187491
 20
-35.671810574001732
 30
0.0
 10
65.810970052083334
 20
-22.677082655164927
 30
0.0
 10
64.965199110243049
 20
-22.677082655164927
 30
0.0
 10
63.956130642361103
 20
-22.677082655164927
 30
0.0
 10
64.120461697048611
 20
-35.345904541015621
 30
0.0
 10
63.797311740451384
 20
-36.211312527126729
 30
0.0
  0
SPLINE
  5
72
100
AcDbEntity
  8
LIVELLO_1
 62
     7
100
AcDbSpline
210
0.0
220
0.0
230
1.0
 70
     8
 71
     3
 72
    17
 73
    13
 74
     0
 42
0.00000001
 43
0.00000001
 40
0.0
 40
0.0
 40
0.0
 40
0.0
 40
1.0
 40
1.0
 40
1.0
 40
2.0
 40
2.0
 40
2.0
 40
3.0
 40
3.0
 40
3.0
 40
4.0
 40
4.0
 40
4.0
 40
4.0
 10
66.714618598090269
 20
-36.211312527126729
 30
0.0
 10
66.481385633680546
 20
-36.832118733723952
 30
0.0
 10
65.782720269097211
 20
-38.557767062717012
 30
0.0
 10
66.958875868055543
 20
-38.557767062717012
 30
0.0
 10
68.16741536458332
 20
-38.557767062717012
 30
0.0
 10
68.67901204427082
 20
-36.837975396050346
 30
0.0
 10
68.893986002604166
 20
-36.211312527126729
 30
0.0
 10
69.080710177951389
 20
-35.671810574001732
 30
0.0
 10
69.02731119791666
 20
-22.649005126953124
 30
0.0
 10
68.019965277777771
 20
-22.677082655164927
 30
0.0
 10
66.926491970486111
 20
-22.708260769314233
 30
0.0
 10
67.037424045138877
 20
-35.345904541015621
 30
0.0
 10
66.714618598090269
 20
-36.211312527126729
 30
0.0
  0
SPLINE
  5
71
100
AcDbEntity
  8
LIVELLO_1
 62
     7
100
AcDbSpline
210
0.0
220
0.0
230
1.0
 70
     8
 71
     3
 72
    17
 73
    13
 74
     0
 42
0.00000001
 43
0.00000001
 40
0.0
 40
0.0
 40
0.0
 40
0.0
 40
1.0
 40
1.0
 40
1.0
 40
2.0
 40
2.0
 40
2.0
 40
3.0
 40
3.0
 40
3.0
 40
4.0
 40
4.0
 40
4.0
 40
4.0
 10
69.923725043402769
 20
-36.211312527126729
 30
0.0
 10
69.693248155381937
 20
-36.832118733723952
 30
0.0
 10
69.176483832465266
 20
-38.557767062717012
 30
0.0
 10
70.354017469618043
 20
-38.557767062717012
 30
0.0
 10
71.565313042534711
 20
-38.557767062717012
 30
0.0
 10
72.071053059895831
 20
-36.837975396050346
 30
0.0
 10
72.288783094618054
 20
-36.211312527126729
 30
0.0
 10
72.475507269965277
 20
-35.671810574001732
 30
0.0
 10
72.264667426215269
 20
-22.649005126953124
 30
0.0
 10
71.255943467881934
 20
-22.677082655164927
 30
0.0
 10
70.195198567708331
 20
-22.708260769314233
 30
0.0
 10
70.248597547743046
 20
-35.345904541015621
 30
0.0
 10
69.923725043402769
 20
-36.211312527126729
 30
0.0
  0
SPLINE
  5
70
100
AcDbEntity
  8
LIVELLO_1
 62
     7
100
AcDbSpline
210
0.0
220
0.0
230
1.0
 70
     8
 71
     3
 72
    17
 73
    13
 74
     0
 42
0.00000001
 43
0.00000001
 40
0.0
 40
0.0
 40
0.0
 40
0.0
 40
1.0
 40
1.0
 40
1.0
 40
2.0
 40
2.0
 40
2.0
 40
3.0
 40
3.0
 40
3.0
 40
4.0
 40
4.0
 40
4.0
 40
4.0
 10
73.459426540798603
 20
-36.211312527126729
 30
0.0
 10
73.227227105034714
 20
-36.832118733723952
 30
0.0
 10
73.028789605034717
 20
-38.557767062717012
 30
0.0
 10
74.206323242187494
 20
-38.557767062717012
 30
0.0
 10
75.416240776909717
 20
-38.557767062717012
 30
0.0
 10
75.606065538194443
 20
-36.837975396050346
 30
0.0
 10
75.825518120659709
 20
-36.211312527126729
 30
0.0
 10
76.0108642578125
 20
-35.671810574001732
 30
0.0
 10
75.825518120659709
 20
-22.677082655164927
 30
0.0
 10
74.640749782986106
 20
-22.677082655164927
 30
0.0
 10
73.459426540798603
 20
-22.677082655164927
 30
0.0
 10
73.783610026041657
 20
-35.345904541015621
 30
0.0
 10
73.459426540798603
 20
-36.211312527126729
 30
0.0
  0
SPLINE
  5
6F
100
AcDbEntity
  8
LIVELLO_1
 62
     7
100
AcDbSpline
210
0.0
220
0.0
230
1.0
 70
     8
 71
     3
 72
    17
 73
    13
 74
     0
 42
0.00000001
 43
0.00000001
 40
0.0
 40
0.0
 40
0.0
 40
0.0
 40
1.0
 40
1.0
 40
1.0
 40
2.0
 40
2.0
 40
2.0
 40
3.0
 40
3.0
 40
3.0
 40
4.0
 40
4.0
 40
4.0
 40
4.0
 10
76.991682942708323
 20
-36.211312527126729
 30
0.0
 10
76.762928602430549
 20
-36.832118733723952
 30
0.0
 10
76.744325086805546
 20
-38.557767062717012
 30
0.0
 10
77.920480685763877
 20
-38.557767062717012
 30
0.0
 10
79.129020182291654
 20
-38.557767062717012
 30
0.0
 10
79.141767035590277
 20
-36.837975396050346
 30
0.0
 10
79.359152560763889
 20
-36.211312527126729
 30
0.0
 10
79.544498697916666
 20
-35.671810574001732
 30
0.0
 10
79.359152560763889
 20
-22.677082655164927
 30
0.0
 10
78.177829318576386
 20
-22.677082655164927
 30
0.0
 10
76.991682942708323
 20
-22.677082655164927
 30
0.0
 10
77.31896701388888
 20
-35.345904541015621
 30
0.0
 10
76.991682942708323
 20
-36.211312527126729
 30
0.0
  0
SPLINE
  5
6E
100
AcDbEntity
  8
LIVELLO_1
 62
     7
100
AcDbSpline
210
0.0
220
0.0
230
1.0
 70
     8
 71
     3
 72
    17
 73
    13
 74
     0
 42
0.00000001
 43
0.00000001
 40
0.0
 40
0.0
 40
0.0
 40
0.0
 40
1.0
 40
1.0
 40
1.0
 40
2.0
 40
2.0
 40
2.0
 40
3.0
 40
3.0
 40
3.0
 40
4.0
 40
4.0
 40
4.0
 40
4.0
 10
80.548055013020829
 20
-36.211312527126729
 30
0.0
 10
80.317578124999997
 20
-36.832118733723952
 30
0.0
 10
80.553567165798597
 20
-38.557767062717012
 30
0.0
 10
81.731100802951374
 20
-38.557767062717012
 30
0.0
 10
82.941018337673597
 20
-38.557767062717012
 30
0.0
 10
82.694694010416654
 20
-36.837975396050346
 30
0.0
 10
82.912768554687489
 20
-36.211312527126729
 30
0.0
 10
83.099492730034711
 20
-35.671810574001732
 30
0.0
 10
82.912768554687489
 20
-22.677082655164927
 30
0.0
 10
81.731100802951374
 20
-22.677082655164927
 30
0.0
 10
80.548055013020829
 20
-22.677082655164927
 30
0.0
 10
80.872583007812494
 20
-35.345904541015621
 30
0.0
 10
80.548055013020829
 20
-36.211312527126729
 30
0.0
  0
SPLINE
  5
6D
100
AcDbEntity
  8
LIVELLO_1
 62
     7
100
AcDbSpline
210
0.0
220
0.0
230
1.0
 70
     8
 71
     3
 72
    17
 73
    13
 74
     0
 42
0.00000001
 43
0.00000001
 40
0.0
 40
0.0
 40
0.0
 40
0.0
 40
1.0
 40
1.0
 40
1.0
 40
2.0
 40
2.0
 40
2.0
 40
3.0
 40
3.0
 40
3.0
 40
4.0
 40
4.0
 40
4.0
 40
4.0
 10
84.08306749131944
 20
-36.211312527126729
 30
0.0
 10
84.08306749131944
 20
-36.874837917751734
 30
0.0
 10
84.087890624999986
 20
-38.557767062717012
 30
0.0
 10
85.26370171440972
 20
-38.557767062717012
 30
0.0
 10
86.474652777777763
 20
-38.557767062717012
 30
0.0
 10
86.445024956597209
 20
-36.874837917751734
 30
0.0
 10
86.445024956597209
 20
-36.211312527126729
 30
0.0
 10
86.445024956597209
 20
-35.547787136501732
 30
0.0
 10
86.445024956597209
 20
-22.677082655164927
 30
0.0
 10
85.26370171440972
 20
-22.677082655164927
 30
0.0
 10
84.08306749131944
 20
-22.677082655164927
 30
0.0
 10
84.08306749131944
 20
-35.547787136501732
 30
0.0
 10
84.08306749131944
 20
-36.211312527126729
 30
0.0
  0
SPLINE
  5
6C
100
AcDbEntity
  8
LIVELLO_1
 62
     7
100
AcDbSpline
210
0.0
220
0.0
230
1.0
 70
     8
 71
     3
 72
    41
 73
    37
 74
     0
 42
0.00000001
 43
0.00000001
 40
0.0
 40
0.0
 40
0.0
 40
0.0
 40
1.0
 40
1.0
 40
1.0
 40
2.0
 40
2.0
 40
2.0
 40
3.0
 40
3.0
 40
3.0
 40
4.0
 40
4.0
 40
4.0
 40
5.0
 40
5.0
 40
5.0
 40
6.0
 40
6.0
 40
6.0
 40
7.0
 40
7.0
 40
7.0
 40
8.0
 40
8.0
 40
8.0
 40
9.0
 40
9.0
 40
9.0
 40
10.0
 40
10.0
 40
10.0
 40
11.0
 40
11.0
 40
11.0
 40
12.0
 40
12.0
 40
12.0
 40
12.0
 10
46.963886176215276
 20
-39.035601806640621
 30
0.0
 10
46.963886176215276
 20
-39.035601806640621
 30
0.0
 10
123.56592881944444
 20
-39.035601806640621
 30
0.0
 10
123.56592881944444
 20
-39.035601806640621
 30
0.0
 10
119.78493652343749
 20
-36.149300808376729
 30
0.0
 10
119.78493652343749
 20
-34.224525960286456
 30
0.0
 10
119.78493652343749
 20
-25.563211398654513
 30
0.0
 10
119.78493652343749
 20
-25.563211398654513
 30
0.0
 10
119.78493652343749
 20
-22.677082655164927
 30
0.0
 10
119.78493652343749
 20
-22.677082655164927
 30
0.0
 10
119.78493652343749
 20
-22.677082655164927
 30
0.0
 10
117.89220106336805
 20
-22.677082655164927
 30
0.0
 10
117.89220106336805
 20
-22.677082655164927
 30
0.0
 10
117.89220106336805
 20
10.10455118815104
 30
0.0
 10
114.10948621961805
 20
20.629145643446179
 30
0.0
 10
91.218549262152763
 20
35.714529758029514
 30
0.0
 10
82.964789496527771
 20
40.635331895616318
 30
0.0
 10
69.944740125868051
 20
43.150423855251731
 30
0.0
 10
64.015386284722211
 20
43.170233154296874
 30
0.0
 10
61.525271267361106
 20
43.170233154296874
 30
0.0
 10
60.804557291666661
 20
42.588356526692706
 30
0.0
 10
60.179272460937497
 20
40.848927815755204
 30
0.0
 10
58.048825412326387
 20
34.497549777560764
 30
0.0
 10
54.745667860243053
 20
14.508416748046873
 30
0.0
 10
54.056993272569443
 20
10.042883978949652
 30
0.0
 10
54.056993272569443
 20
10.042883978949652
 30
0.0
 10
52.637958441840276
 20
-4.3903435601128464
 30
0.0
 10
52.637958441840276
 20
-22.677082655164927
 30
0.0
 10
52.637958441840276
 20
-22.677082655164927
 30
0.0
 10
50.746601019965276
 20
-22.677082655164927
 30
0.0
 10
50.746601019965276
 20
-22.677082655164927
 30
0.0
 10
50.746601019965276
 20
-22.677082655164927
 30
0.0
 10
50.746601019965276
 20
-25.563211398654513
 30
0.0
 10
50.746601019965276
 20
-25.563211398654513
 30
0.0
 10
50.746601019965276
 20
-34.224525960286456
 30
0.0
 10
50.746601019965276
 20
-36.149300808376729
 30
0.0
 10
46.963886176215276
 20
-39.035601806640621
 30
0.0
  0
POLYLINE
  5
66
100
AcDbEntity
  8
LIVELLO_1
 62
     7
100
AcDb2dPolyline
 66
     1
 10
0.0
 20
0.0
 30
0.0
 70
     1
  0
VERTEX
  5
67
100
AcDbEntity
  8
LIVELLO_1
 62
     7
100
AcDbVertex
100
AcDb2dVertex
 10
125.458664
 20
-42.885841
 30
0.0
  0
VERTEX
  5
68
100
AcDbEntity
  8
LIVELLO_1
 62
     7
100
AcDbVertex
100
AcDb2dVertex
 10
45.074251
 20
-42.885841
 30
0.0
  0
VERTEX
  5
69
100
AcDbEntity
  8
LIVELLO_1
 62
     7
100
AcDbVertex
100
AcDb2dVertex
 10
45.074251
 20
-39.035602
 30
0.0
  0
VERTEX
  5
6A
100
AcDbEntity
  8
LIVELLO_1
 62
     7
100
AcDbVertex
100
AcDb2dVertex
 10
125.458664
 20
-39.035602
 30
0.0
  0
SEQEND
  5
6B
100
AcDbEntity
  8
LIVELLO_1
 62
     7
  0
POLYLINE
  5
60
100
AcDbEntity
  8
LIVELLO_1
 62
     7
100
AcDb2dPolyline
 66
     1
 10
0.0
 20
0.0
 30
0.0
 70
     1
  0
VERTEX
  5
61
100
AcDbEntity
  8
LIVELLO_1
 62
     7
100
AcDbVertex
100
AcDb2dVertex
 10
126.403309
 20
-47.699672
 30
0.0
  0
VERTEX
  5
62
100
AcDbEntity
  8
LIVELLO_1
 62
     7
100
AcDbVertex
100
AcDb2dVertex
 10
44.127539
 20
-47.699672
 30
0.0
  0
VERTEX
  5
63
100
AcDbEntity
  8
LIVELLO_1
 62
     7
100
AcDbVertex
100
AcDb2dVertex
 10
44.127539
 20
-42.885841
 30
0.0
  0
VERTEX
  5
64
100
AcDbEntity
  8
LIVELLO_1
 62
     7
100
AcDbVertex
100
AcDb2dVertex
 10
126.403309
 20
-42.885841
 30
0.0
  0
SEQEND
  5
65
100
AcDbEntity
  8
LIVELLO_1
 62
     7
  0
LINE
  5
5F
100
AcDbEntity
  8
LIVELLO_1
 62
     7
100
AcDbLine
 10
45.031877
 20
164.101353
 30
0.0
 11
45.031877
 21
175.249682
 31
0.0
  0
LINE
  5
5E
100
AcDbEntity
  8
LIVELLO_1
 62
     7
100
AcDbLine
 10
45.031877
 20
169.660187
 30
0.0
 11
66.607821
 21
169.72461
 31
0.0
  0
LINE
  5
5D
100
AcDbEntity
  8
LIVELLO_1
 62
     7
100
AcDbLine
 10
106.880298
 20
169.676895
 30
0.0
 11
127.383784
 21
169.676895
 31
0.0
  0
LINE
  5
5C
100
AcDbEntity
  8
LIVELLO_1
 62
     7
100
AcDbLine
 10
127.383784
 20
164.101353
 30
0.0
 11
127.383784
 21
175.249682
 31
0.0
  0
MTEXT
  5
5B
100
AcDbEntity
  8
LIVELLO_1
 62
     7
100
AcDbMText
 10
68.087834
 20
177.275538
 30
0.0
 40
9.515494
 41
0.0
 71
     1
 72
     2
  1
\fCourier|b0|i0;\H9.5155;\W0.98;\C7;\U+00F8\U+0020\U+0032\U+0031\U+0036
  7
STD
210
0.0
220
0.0
230
1.0
 73
     1
 44
1.0
  0
CIRCLE
  5
5A
100
AcDbEntity
  8
LIVELLO_1
 62
     7
100
AcDbCircle
 10
112.143026
 20
90.174599
 30
0.0
 40
1.563125
  0
CIRCLE
  5
59
100
AcDbEntity
  8
LIVELLO_1
 62
     7
100
AcDbCircle
 10
112.143026
 20
143.807071
 30
0.0
 40
1.564881
  0
CIRCLE
  5
58
100
AcDbEntity
  8
LIVELLO_1
 62
     7
100
AcDbCircle
 10
59.421868
 20
143.805693
 30
0.0
 40
1.561544
  0
CIRCLE
  5
57
100
AcDbEntity
  8
LIVELLO_1
 62
     7
100
AcDbCircle
 10
59.422557
 20
90.174599
 30
0.0
 40
1.563918
  0
ELLIPSE
  5
56
100
AcDbEntity
  8
LIVELLO_1
 62
     7
100
AcDbEllipse
 10
85.659888
 20
117.112576
 30
0.0
 11
0.0
 21
-34.154590521918401
 31
0.0
210
0.0
220
0.0
230
1.0
 40
0.983047
 41
0.0
 42
6.2831853071795862
  0
ELLIPSE
  5
55
100
AcDbEntity
  8
LIVELLO_1
 62
     7
100
AcDbEllipse
 10
85.659888
 20
117.113782
 30
0.0
 11
0.0
 21
-41.903816053602426
 31
0.0
210
0.0
220
0.0
230
1.0
 40
0.982996
 41
0.0
 42
6.2831853071795862
  0
SPLINE
  5
54
100
AcDbEntity
  8
LIVELLO_1
 62
     7
100
AcDbSpline
210
0.0
220
0.0
230
1.0
 70
     8
 71
     3
 72
    11
 73
     7
 74
     0
 42
0.00000001
 43
0.00000001
 40
0.0
 40
0.0
 40
0.0
 40
0.0
 40
1.0
 40
1.0
 40
1.0
 40
2.0
 40
2.0
 40
2.0
 40
2.0
 10
24.220399305555553
 20
-16.497270372178818
 30
0.0
 10
18.746142578124999
 20
-32.040679931640625
 30
0.0
 10
11.76396755642361
 20
-43.113216824001732
 30
0.0
 10
8.0043348524305546
 20
-41.871259901258675
 30
0.0
 10
3.933265516493055
 20
-40.527672661675346
 30
0.0
 10
5.1893473307291664
 20
-25.192174614800344
 30
0.0
 10
10.804163953993054
 20
-7.619776068793402
 30
0.0
  0
SPLINE
  5
53
100
AcDbEntity
  8
LIVELLO_1
 62
     7
100
AcDbSpline
210
0.0
220
0.0
230
1.0
 70
     8
 71
     3
 72
    11
 73
     7
 74
     0
 42
0.00000001
 43
0.00000001
 40
0.0
 40
0.0
 40
0.0
 40
0.0
 40
1.0
 40
1.0
 40
1.0
 40
2.0
 40
2.0
 40
2.0
 40
2.0
 10
10.797618272569444
 20
-7.6337287055121523
 30
0.0
 10
16.414846462673609
 20
9.9388420952690968
 30
0.0
 10
24.269664171006941
 20
23.093766954210068
 30
0.0
 10
28.338666449652774
 20
21.750351969401041
 30
0.0
 10
31.666284179687498
 20
20.651366509331595
 30
0.0
 10
31.438563368055554
 20
10.211349148220485
 30
0.0
 10
28.174335394965276
 20
-3.1625115288628471
 30
0.0
  0
MTEXT
  5
52
100
AcDbEntity
  8
LIVELLO_1
 62
     7
100
AcDbMText
 10
-15.71687
 20
8.065721
 30
0.0
 40
9.812471
 41
0.0
 71
     1
 72
     2
  1
\fCourier|b0|i0;\H9.8125;\W0.98;\C7;\U+0033\U+0035\U+0030
  7
STD
210
0.0
220
0.0
230
1.0
 73
     1
 44
1.0
  0
MTEXT
  5
51
100
AcDbEntity
  8
LIVELLO_1
 62
     7
100
AcDbMText
 10
7.032129
 20
2.632182
 30
0.0
 40
13.363999
 41
0.0
 71
     1
 72
     2
  1
\fSymbol|b0|i0;\H13.3640;\W0.98;\C7;\U+00B0
  7
STD
210
0.0
220
0.0
230
-1.0
 73
     1
 44
1.0
  0
LINE
  5
50
100
AcDbEntity
  8
LIVELLO_1
 62
     7
100
AcDbLine
 10
38.180615
 20
28.320666
 30
0.0
 11
43.573568
 21
26.921268
 31
0.0
  0
LINE
  5
4F
100
AcDbEntity
  8
LIVELLO_1
 62
     7
100
AcDbLine
 10
50.710428
 20
-56.062986
 30
0.0
 11
50.836518
 21
-50.417164
 31
0.0
  0
SPLINE
  5
4E
100
AcDbEntity
  8
LIVELLO_1
 62
     7
100
AcDbSpline
210
0.0
220
0.0
230
1.0
 70
     8
 71
     3
 72
     8
 73
     4
 74
     0
 42
0.00000001
 43
0.00000001
 40
0.0
 40
0.0
 40
0.0
 40
0.0
 40
1.0
 40
1.0
 40
1.0
 40
1.0
 10
75.762472873263889
 20
55.999079725477422
 30
0.0
 10
58.745768229166664
 20
55.698322889539924
 30
0.0
 10
44.628455946180551
 20
43.715419514973952
 30
0.0
 10
40.701391601562499
 20
27.674538167317706
 30
0.0
  0
MTEXT
  5
4D
100
AcDbEntity
  8
LIVELLO_1
 62
     7
100
AcDbMText
 10
19.520945
 20
52.441266
 30
0.0
 40
11.252824
 41
0.0
 71
     1
 72
     2
  1
\fCourier|b0|i0;\H11.2528;\W0.98;\C7;\U+0037\U+0035
  7
STD
210
0.0
220
0.0
230
1.0
 73
     1
 44
1.0
  0
MTEXT
  5
4C
100
AcDbEntity
  8
LIVELLO_1
 62
     7
100
AcDbMText
 10
37.575656
 20
45.381593
 30
0.0
 40
14.627923
 41
0.0
 71
     1
 72
     2
  1
\fSymbol|b0|i0;\H14.6279;\W0.98;\C7;\U+00B0
  7
STD
210
0.0
220
0.0
230
-1.0
 73
     1
 44
1.0
  0
LINE
  5
4B
100
AcDbEntity
  8
LIVELLO_1
 62
     7
100
AcDbLine
 10
18.866721
 20
-38.951541
 30
0.0
 11
23.683998
 21
-36.121396
 31
0.0
  0
LINE
  5
4A
100
AcDbEntity
  8
LIVELLO_1
 62
     7
100
AcDbLine
 10
75.899932
 20
58.505903
 30
0.0
 11
75.899932
 21
52.857153
 31
0.0
  0
SPLINE
  5
49
100
AcDbEntity
  8
LIVELLO_1
 62
     7
100
AcDbSpline
210
0.0
220
0.0
230
1.0
 70
     8
 71
     3
 72
     8
 73
     4
 74
     0
 42
0.00000001
 43
0.00000001
 40
0.0
 40
0.0
 40
0.0
 40
0.0
 40
1.0
 40
1.0
 40
1.0
 40
1.0
 10
51.100756835937496
 20
-53.632126871744788
 30
0.0
 10
34.080262586805553
 20
-53.632126871744788
 30
0.0
 10
28.925021701388886
 20
-50.628003607855895
 30
0.0
 10
21.172867838541666
 20
-37.518037245008678
 30
0.0
  0
MTEXT
  5
48
100
AcDbEntity
  8
LIVELLO_1
 62
     7
100
AcDbMText
 10
7.996067
 20
-54.15886
 30
0.0
 40
11.01537
 41
0.0
 71
     1
 72
     2
  1
\fCourier|b0|i0;\H11.0154;\W0.98;\C7;\U+0037\U+0035
  7
STD
210
0.0
220
0.0
230
1.0
 73
     1
 44
1.0
  0
MTEXT
  5
47
100
AcDbEntity
  8
LIVELLO_1
 62
     7
100
AcDbMText
 10
23.143462
 20
-49.776329
 30
0.0
 40
14.627923
 41
0.0
 71
     1
 72
     2
  1
\fSymbol|b0|i0;\H14.6279;\W0.98;\C7;\U+00B0
  7
STD
210
0.0
220
0.0
230
1.0
 73
     1
 44
1.0
  0
LINE
  5
46
100
AcDbEntity
  8
LIVELLO_1
 62
     7
100
AcDbLine
 10
-28.788251
 20
-161.501512
 30
0.0
 11
-28.788251
 21
-150.929203
 31
0.0
  0
LINE
  5
45
100
AcDbEntity
  8
LIVELLO_1
 62
     7
100
AcDbLine
 10
68.999406
 20
-177.811972
 30
0.0
 11
68.999406
 21
-167.239663
 31
0.0
  0
MTEXT
  5
44
100
AcDbEntity
  8
LIVELLO_1
 62
     7
100
AcDbMText
 10
1.654679
 20
-165.711228
 30
0.0
 40
8.939524
 41
0.0
 71
     1
 72
     2
  1
\fCourier|b0|i0;\H8.9395;\C7;\U+00F8\U+0020\U+0031\U+0038\U+0030
  7
STD
210
0.0
220
0.0
230
1.0
 73
     1
 44
1.0
  0
LINE
  5
43
100
AcDbEntity
  8
LIVELLO_1
 62
     7
100
AcDbLine
 10
10.198861
 20
-107.939923
 30
0.0
 11
30.010916
 21
-107.939923
 31
0.0
  0
LINE
  5
42
100
AcDbEntity
  8
LIVELLO_1
 62
     7
100
AcDbLine
 10
-27.035731
 20
-147.464126
 30
0.0
 11
67.220359
 21
-147.464126
 31
0.0
  0
LINE
  5
41
100
AcDbEntity
  8
LIVELLO_1
 62
     7
100
AcDbLine
 10
-28.740192
 20
-148.58826
 30
0.0
 11
68.950141
 21
-148.58826
 31
0.0
  0
LINE
  5
40
100
AcDbEntity
  8
LIVELLO_1
 62
     7
100
AcDbLine
 10
-23.55963
 20
-114.033263
 30
0.0
 11
63.76665
 21
-114.033263
 31
0.0
  0
POLYLINE
  5
34
100
AcDbEntity
  8
LIVELLO_1
 62
     7
100
AcDb2dPolyline
 66
     1
 10
0.0
 20
0.0
 30
0.0
 70
     1
  0
VERTEX
  5
35
100
AcDbEntity
  8
LIVELLO_1
 62
     7
100
AcDbVertex
100
AcDb2dVertex
 10
-28.740192
 20
-158.789532
 30
0.0
  0
VERTEX
  5
36
100
AcDbEntity
  8
LIVELLO_1
 62
     7
100
AcDbVertex
100
AcDb2dVertex
 10
-28.740192
 20
-148.58826
 30
0.0
  0
VERTEX
  5
37
100
AcDbEntity
  8
LIVELLO_1
 62
     7
100
AcDbVertex
100
AcDb2dVertex
 10
-24.773854
 20
-145.94346
 30
0.0
  0
VERTEX
  5
38
100
AcDbEntity
  8
LIVELLO_1
 62
     7
100
AcDbVertex
100
AcDb2dVertex
 10
-23.55963
 20
-114.033263
 30
0.0
  0
VERTEX
  5
39
100
AcDbEntity
  8
LIVELLO_1
 62
     7
100
AcDbVertex
100
AcDb2dVertex
 10
-4.699799
 20
-108.471501
 30
0.0
  0
VERTEX
  5
3A
100
AcDbEntity
  8
LIVELLO_1
 62
     7
100
AcDbVertex
100
AcDb2dVertex
 10
44.909231
 20
-108.471501
 30
0.0
  0
VERTEX
  5
3B
100
AcDbEntity
  8
LIVELLO_1
 62
     7
100
AcDbVertex
100
AcDb2dVertex
 10
63.76665
 20
-114.033263
 30
0.0
  0
VERTEX
  5
3C
100
AcDbEntity
  8
LIVELLO_1
 62
     7
100
AcDbVertex
100
AcDb2dVertex
 10
64.984492
 20
-145.94346
 30
0.0
  0
VERTEX
  5
3D
100
AcDbEntity
  8
LIVELLO_1
 62
     7
100
AcDbVertex
100
AcDb2dVertex
 10
68.950141
 20
-148.58826
 30
0.0
  0
VERTEX
  5
3E
100
AcDbEntity
  8
LIVELLO_1
 62
     7
100
AcDbVertex
100
AcDb2dVertex
 10
68.950141
 20
-158.789532
 30
0.0
  0
SEQEND
  5
3F
100
AcDbEntity
  8
LIVELLO_1
 62
     7
  0
LINE
  5
33
100
AcDbEntity
  8
LIVELLO_1
 62
     7
100
AcDbLine
 10
68.623891
 20
-172.382501
 30
0.0
 11
38.99538
 21
-172.382501
 31
0.0
  0
LINE
  5
32
100
AcDbEntity
  8
LIVELLO_1
 62
     7
100
AcDbLine
 10
-0.109554
 20
-172.382501
 30
0.0
 11
-28.587058
 21
-172.382501
 31
0.0
  0
MTEXT
  5
31
100
AcDbEntity
  8
LIVELLO_1
 62
     7
100
AcDbMText
 10
77.319656
 20
-127.006853
 30
0.0
 40
11.242332
 41
0.0
 71
     1
 72
     2
  1
\fCourier|b0|i0;\H11.2423;\C7;\U+0039\U+0036
  7
STD
210
0.0
220
0.0
230
1.0
 73
     1
 44
1.0
  0
LINE
  5
30
100
AcDbEntity
  8
LIVELLO_1
 62
     7
100
AcDbLine
 10
84.031391
 20
-108.845294
 30
0.0
 11
84.031391
 21
-124.71237
 31
0.0
  0
LINE
  5
2F
100
AcDbEntity
  8
LIVELLO_1
 62
     7
100
AcDbLine
 10
84.031391
 20
-141.744923
 30
0.0
 11
84.031391
 21
-158.586616
 31
0.0
  0
LINE
  5
2E
100
AcDbEntity
  8
LIVELLO_1
 62
     7
100
AcDbLine
 10
89.459484
 20
-108.471501
 30
0.0
 11
78.889931
 21
-108.471501
 31
0.0
  0
LINE
  5
2D
100
AcDbEntity
  8
LIVELLO_1
 62
     7
100
AcDbLine
 10
89.461895
 20
-158.789532
 30
0.0
 11
78.892342
 21
-158.789532
 31
0.0
  0
LINE
  5
2C
100
AcDbEntity
  8
LIVELLO_1
 62
     7
100
AcDbLine
 10
-28.737436
 20
-177.811972
 30
0.0
 11
-28.737436
 21
-167.239663
 31
0.0
  0
ENDBLK
  5
A3
100
AcDbEntity
  8
LIVELLO_1
100
AcDbBlockEnd
  0
ENDSEC
  0
SECTION
  2
ENTITIES
  0
INSERT
  5
2A
100
AcDbEntity
  8
LIVELLO_1
 62
     7
100
AcDbBlockReference
  2
AI9-BLK1
 10
110.470432
 20
176.034302
 30
0.0
  0
ENDSEC
  0
SECTION
  2
OBJECTS
  0
DICTIONARY
  5
19
100
AcDbDictionary
280
     0
281
     1
  3
ACAD_GROUP
350
1A
  3
ACAD_MLINESTYLE
350
1B
  3
ACAD_LAYOUT
350
1E
  3
ACAD_PLOTSETTINGS
350
22
  3
ACAD_PLOTSTYLENAME
350
1F
  3
ACAD_WIPEOUT_VARS
350
23
  0
DICTIONARY
  5
1A
102
{ACAD_REACTORS
330
19
102
}
100
AcDbDictionary
280
     0
281
     1
  0
DICTIONARY
  5
1B
102
{ACAD_REACTORS
330
19
102
}
100
AcDbDictionary
280
     0
281
     1
  3
Standard
350
1C
  0
MLINESTYLE
  5
1C
102
{ACAD_REACTORS
330
1B
102
}
100
AcDbMlineStyle
  2
Standard
 70
     0
  3

 62
     0
 51
90.0
 52
90.0
 71
     2
 49
0.5
 62
   256
  6
ByLayer
 49
-0.5
 62
   256
  6
ByLayer
  0
ACDBDICTIONARYWDFLT
  5
1F
102
{ACAD_REACTORS
330
19
102
}
100
AcDbDictionary
281
     1
  3
Normal
350
1D
100
AcDbDictionaryWithDefault
340
1D
  0
ACDBPLACEHOLDER
  5
1D
102
{ACAD_REACTORS
330
1F
102
}
  0
LAYOUT
  5
20
102
{ACAD_REACTORS
330
1E
102
}
100
AcDbPlotSettings
  1

  2

  4

  6

 40
0.0
 41
0.0
 42
0.0
 43
0.0
 44
0.0
 45
0.0
 46
0.0
 47
0.0
 48
0.0
 49
0.0
140
0.0
141
0.0
142
1.0
143
1.0
 70
  1024
 72
     0
 73
     0
 74
     0
  7

 75
     0
147
1.0
148
0.0
149
0.0
100
AcDbLayout
  1
Model
 70
     0
 71
     0
 10
0.0
 20
0.0
 11
0.0
 21
0.0
 12
0.0
 22
0.0
 32
0.0
 14
0.0
 24
0.0
 34
0.0
 15
0.0
 25
0.0
 35
0.0
146
0.0
 13
0.0
 23
0.0
 33
0.0
 16
0.0
 26
0.0
 36
0.0
 17
0.0
 27
0.0
 37
0.0
 76
     0
330
A
331
0
345
0
346
0
  0
LAYOUT
  5
21
102
{ACAD_REACTORS
330
1E
102
}
100
AcDbPlotSettings
  1

  2

  4

  6

 40
0.0
 41
0.0
 42
0.0
 43
0.0
 44
0.0
 45
0.0
 46
0.0
 47
0.0
 48
0.0
 49
0.0
140
0.0
141
0.0
142
1.0
143
1.0
 70
     0
 72
     0
 73
     0
 74
     0
  7

 75
     0
147
1.0
148
0.0
149
0.0
100
AcDbLayout
  1
Layout1
 70
     0
 71
     0
 10
0.0
 20
0.0
 11
0.0
 21
0.0
 12
0.0
 22
0.0
 32
0.0
 14
0.0
 24
0.0
 34
0.0
 15
0.0
 25
0.0
 35
0.0
146
0.0
 13
0.0
 23
0.0
 33
0.0
 16
0.0
 26
0.0
 36
0.0
 17
0.0
 27
0.0
 37
0.0
 76
     0
330
B
331
0
345
0
346
0
  0
DICTIONARY
  5
1E
102
{ACAD_REACTORS
330
19
102
}
100
AcDbDictionary
280
     0
281
     1
  3
Layout1
350
21
  3
Model
350
20
  0
DICTIONARY
  5
22
102
{ACAD_REACTORS
330
19
102
}
100
AcDbDictionary
280
     0
281
     1
  0
WIPEOUTVARIABLES
  5
23
100
AcDbWipeoutVariables
 70
     1
  0
ENDSEC
  0
EOF
