  0
SECTION
  2
HEADER
  9
$ACADVER
  1
AC1015
  9
$ACADMAINTVER
 70
     6
  9
$DWGCODEPAGE
  3
ANSI_932
  9
$INSBASE
 10
0.0
 20
0.0
 30
0.0
  9
$EXTMIN
 10
7.891508
 20
23.64369
 30
1.000000E+20
  9
$EXTMAX
 10
192.430287
 20
282.002425
 30
-1.000000E+20
  9
$LIMMIN
 10
7.891508
 20
23.64369
  9
$LIMMAX
 10
192.430287
 20
282.002425
  9
$ORTHOMODE
 70
     0
  9
$REGENMODE
 70
     1
  9
$FILLMODE
 70
     1
  9
$QTEXTMODE
 70
     0
  9
$MIRRTEXT
 70
     1
  9
$LTSCALE
 40
1.0
  9
$ATTMODE
 70
     1
  9
$TEXTSIZE
 40
0.2
  9
$TRACEWID
 40
0.05
  9
$TEXTSTYLE
  7
Standard
  9
$CLAYER
  8
0
  9
$CELTYPE
  6
Continuous
  9
$CECOLOR
 62
   256
  9
$CELTSCALE
 40
1.0
  9
$DISPSILH
 70
     0
  9
$DIMSCALE
 40
1.0
  9
$DIMASZ
 40
0.18
  9
$DIMEXO
 40
0.0625
  9
$DIMDLI
 40
0.38
  9
$DIMRND
 40
0.0
  9
$DIMDLE
 40
0.0
  9
$DIMEXE
 40
0.18
  9
$DIMTP
 40
0.0
  9
$DIMTM
 40
0.0
  9
$DIMTXT
 40
0.18
  9
$DIMCEN
 40
0.09
  9
$DIMTSZ
 40
0.0
  9
$DIMTOL
 70
     0
  9
$DIMLIM
 70
     0
  9
$DIMTIH
 70
     1
  9
$DIMTOH
 70
     1
  9
$DIMSE1
 70
     0
  9
$DIMSE2
 70
     0
  9
$DIMTAD
 70
     0
  9
$DIMZIN
 70
     0
  9
$DIMBLK
  1

  9
$DIMASO
 70
     1
  9
$DIMSHO
 70
     1
  9
$DIMPOST
  1

  9
$DIMAPOST
  1

  9
$DIMALT
 70
     0
  9
$DIMALTD
 70
     2
  9
$DIMALTF
 40
25.4
  9
$DIMLFAC
 40
1.0
  9
$DIMTOFL
 70
     0
  9
$DIMTVP
 40
0.0
  9
$DIMTIX
 70
     0
  9
$DIMSOXD
 70
     0
  9
$DIMSAH
 70
     0
  9
$DIMBLK1
  1

  9
$DIMBLK2
  1

  9
$DIMSTYLE
  2
Standard
  9
$DIMCLRD
 70
     0
  9
$DIMCLRE
 70
     0
  9
$DIMCLRT
 70
     0
  9
$DIMTFAC
 40
1.0
  9
$DIMGAP
 40
0.09
  9
$DIMJUST
 70
     0
  9
$DIMSD1
 70
     0
  9
$DIMSD2
 70
     0
  9
$DIMTOLJ
 70
     1
  9
$DIMTZIN
 70
     0
  9
$DIMALTZ
 70
     0
  9
$DIMALTTZ
 70
     0
  9
$DIMUPT
 70
     0
  9
$DIMDEC
 70
     4
  9
$DIMTDEC
 70
     4
  9
$DIMALTU
 70
     2
  9
$DIMALTTD
 70
     2
  9
$DIMTXSTY
  7
Standard
  9
$DIMAUNIT
 70
     0
  9
$DIMADEC
 70
     0
  9
$DIMALTRND
 40
0.0
  9
$DIMAZIN
 70
     0
  9
$DIMDSEP
 70
     0
  9
$DIMATFIT
 70
     3
  9
$DIMFRAC
 70
     0
  9
$DIMLDRBLK
  1

  9
$DIMLUNIT
 70
     2
  9
$DIMLWD
 70
     0
  9
$DIMLWE
 70
     0
  9
$DIMTMOVE
 70
     0
  9
$LUNITS
 70
     2
  9
$LUPREC
 70
     4
  9
$SKETCHINC
 40
0.1
  9
$FILLETRAD
 40
0.0
  9
$AUNITS
 70
     0
  9
$AUPREC
 70
     0
  9
$MENU
  1
acad
  9
$ELEVATION
 40
0.0
  9
$PELEVATION
 40
0.0
  9
$THICKNESS
 40
0.0
  9
$LIMCHECK
 70
     0
  9
$CHAMFERA
 40
0.0
  9
$CHAMFERB
 40
0.0
  9
$CHAMFERC
 40
0.0
  9
$CHAMFERD
 40
0.0
  9
$SKPOLY
 70
     0
  9
$TDCREATE
 40
0.000000000
  9
$TDUCREATE
 40
0.000000000
  9
$TDUPDATE
 40
0.000000000
  9
$TDUUPDATE
 40
0.000000000
  9
$TDINDWG
 40
0.0000000000
  9
$TDUSRTIMER
 40
0.0000000000
  9
$USRTIMER
 70
     1
  9
$ANGBASE
 50
0.0
  9
$ANGDIR
 70
     0
  9
$PDMODE
 70
     0
  9
$PDSIZE
 40
0.0
  9
$PLINEWID
 40
0.0
  9
$SPLFRAME
 70
     0
  9
$SPLINETYPE
 70
     6
  9
$SPLINESEGS
 70
     8
  9
$HANDSEED
  5
BC
  9
$SURFTAB1
 70
     6
  9
$SURFTAB2
 70
     6
  9
$SURFTYPE
 70
     6
  9
$SURFU
 70
     6
  9
$SURFV
 70
     6
  9
$UCSBASE
  2

  9
$UCSNAME
  2

  9
$UCSORG
 10
0.0
 20
0.0
 30
0.0
  9
$UCSXDIR
 10
1.0
 20
0.0
 30
0.0
  9
$UCSYDIR
 10
0.0
 20
1.0
 30
0.0
  9
$UCSORTHOREF
  2

  9
$UCSORTHOVIEW
 70
     0
  9
$UCSORGTOP
 10
0.0
 20
0.0
 30
0.0
  9
$UCSORGBOTTOM
 10
0.0
 20
0.0
 30
0.0
  9
$UCSORGLEFT
 10
0.0
 20
0.0
 30
0.0
  9
$UCSORGRIGHT
 10
0.0
 20
0.0
 30
0.0
  9
$UCSORGFRONT
 10
0.0
 20
0.0
 30
0.0
  9
$UCSORGBACK
 10
0.0
 20
0.0
 30
0.0
  9
$PUCSBASE
  2

  9
$PUCSNAME
  2

  9
$PUCSORG
 10
0.0
 20
0.0
 30
0.0
  9
$PUCSXDIR
 10
1.0
 20
0.0
 30
0.0
  9
$PUCSYDIR
 10
0.0
 20
1.0
 30
0.0
  9
$PUCSORTHOREF
  2

  9
$PUCSORTHOVIEW
 70
     0
  9
$PUCSORGTOP
 10
0.0
 20
0.0
 30
0.0
  9
$PUCSORGBOTTOM
 10
0.0
 20
0.0
 30
0.0
  9
$PUCSORGLEFT
 10
0.0
 20
0.0
 30
0.0
  9
$PUCSORGRIGHT
 10
0.0
 20
0.0
 30
0.0
  9
$PUCSORGFRONT
 10
0.0
 20
0.0
 30
0.0
  9
$PUCSORGBACK
 10
0.0
 20
0.0
 30
0.0
  9
$USERI1
 70
     0
  9
$USERI2
 70
     0
  9
$USERI3
 70
     0
  9
$USERI4
 70
     0
  9
$USERI5
 70
     0
  9
$USERR1
 40
0.0
  9
$USERR2
 40
0.0
  9
$USERR3
 40
0.0
  9
$USERR4
 40
0.0
  9
$USERR5
 40
0.0
  9
$WORLDVIEW
 70
     1
  9
$SHADEDGE
 70
     3
  9
$SHADEDIF
 70
    70
  9
$TILEMODE
 70
     1
  9
$MAXACTVP
 70
    16
  9
$PINSBASE
 10
0.0
 20
0.0
 30
0.0
  9
$PLIMCHECK
 70
     0
  9
$PEXTMIN
 10
1.000000E+20
 20
1.000000E+20
 30
1.000000E+20
  9
$PEXTMAX
 10
-1.000000E+20
 20
-1.000000E+20
 30
-1.000000E+20
  9
$PLIMMIN
 10
0.0
 20
0.0
  9
$PLIMMAX
 10
12.0
 20
9.0
  9
$UNITMODE
 70
     0
  9
$VISRETAIN
 70
     0
  9
$PLINEGEN
 70
     1
  9
$PSLTSCALE
 70
     0
  9
$TREEDEPTH
 70
  3020
  9
$CMLSTYLE
  2
Standard
  9
$CMLJUST
 70
     0
  9
$CMLSCALE
 40
1.0
  9
$PROXYGRAPHICS
 70
     0
  9
$MEASUREMENT
 70
     1
  9
$CELWEIGHT
370
     0
  9
$ENDCAPS
280
     0
  9
$JOINSTYLE
280
     0
  9
$LWDISPLAY
290
     0
  9
$INSUNITS
 70
     0
  9
$HYPERLINKBASE
  1

  9
$STYLESHEET
  1

  9
$XEDIT
290
     1
  9
$CEPSNTYPE
380
     0
  9
$PSTYLEMODE
290
     1
  9
$FINGERPRINTGUID
  2

  9
$VERSIONGUID
  2

  9
$EXTNAMES
290
     1
  9
$PSVPSCALE
 40
0.0
  0
ENDSEC
  0
SECTION
  2
CLASSES
  0
CLASS
  1
LWPOLYLINE
  2
AcDbPolyline
  3
AutoCAD 2000
 90
    32768
280
     0
281
     1
  0
CLASS
  1
IMAGE
  2
AcDbRasterImage
  3
ISM
 90
    32895
280
     0
281
     1
  0
CLASS
  1
OLE2FRAME
  2
AcDbOle2Frame
  3
AutoCAD 2000
 90
    32768
280
     0
281
     1
  0
CLASS
  1
HATCH
  2
AcDbHatch
  3
AutoCAD 2000
 90
        0
280
     0
281
     1
  0
CLASS
  1
DICTIONARYVAR
  2
AcDbDictionaryVar
  3
AutoCAD 2000
 90
    32768
280
     0
281
     0
  0
CLASS
  1
RASTERVARIABLES
  2
AcDbRasterVariables
  3
ISM
 90
    32768
280
     0
281
     0
  0
CLASS
  1
IMAGEDEF
  2
AcDbRasterImageDef
  3
ISM
 90
    32768
280
     0
281
     0
  0
CLASS
  1
IMAGEDEF_REACTOR
  2
AcDbRasterImageDefReactor
  3
ISM
 90
    32769
280
     0
281
     0
  0
CLASS
  1
IDBUFFER
  2
AcDbIdBuffer
  3
AutoCAD 2000
 90
    32768
280
     0
281
     0
  0
CLASS
  1
SPATIAL_FILTER
  2
AcDbSpatialFilter
  3
AutoCAD 2000
 90
    32768
280
     0
281
     0
  0
CLASS
  1
XRECORD
  2
AcDbXrecord
  3
AutoCAD 2000
 90
    32768
280
     0
281
     0
  0
CLASS
  1
SORTENTSTABLE
  2
AcDbSortentsTable
  3
AutoCAD 2000
 90
    32768
280
     0
281
     0
  0
CLASS
  1
LAYER_INDEX
  2
AcDbLayerIndex
  3
AutoCAD 2000
 90
    32768
280
     0
281
     0
  0
CLASS
  1
SPATIAL_INDEX
  2
AcDbSpatialIndex
  3
AutoCAD 2000
 90
    32768
280
     0
281
     0
  0
CLASS
  1
OBJECT_PTR
  2
CAseDLPNTableRecord
  3
"ASE-LPNTableRecord"
 90
    32769
280
     0
281
     0
  0
CLASS
  1
LAYOUT
  2
AcDbLayout
  3
AutoCAD 2000
 90
        0
280
     0
281
     0
  0
CLASS
  1
PLOTSETTINGS
  2
AcDbPlotSettings
  3
AutoCAD 2000
 90
    32768
280
     0
281
     0
  0
CLASS
  1
ACDBDICTIONARYWDFLT
  2
AcDbDictionaryWithDefault
  3
AutoCAD 2000
 90
        0
280
     0
281
     0
  0
CLASS
  1
ACDBPLACEHOLDER
  2
AcDbPlaceHolder
  3
AutoCAD 2000
 90
        0
280
     0
281
     0
  0
CLASS
  1
VBA_PROJECT
  2
AcDbVbaProject
  3
acadvba
 90
    32768
280
     0
281
     0
  0
CLASS
  1
WIPEOUT
  2
AcDbWipeout
  3
WipeOut|AutoCAD Express Tool|expresstools@autodesk.com
 90
    32895
280
     0
281
     1
  0
CLASS
  1
WIPEOUTVARIABLES
  2
AcDbWipeoutVariables
  3
WipeOut|AutoCAD Express Tool|expresstools@autodesk.com
 90
        0
280
     0
281
     0
  0
CLASS
  1
RTEXT
  2
RText
  3
RText|AutoCAD Express Tool|expresstools@autodesk.com
 90
    32768
280
     0
281
     1
  0
CLASS
  1
ARCALIGNEDTEXT
  2
AcDbArcAlignedText
  3
ATEXT|AutoCAD Express Tool|expresstools@autodesk.com
 90
    32768
280
     0
281
     1
  0
ENDSEC
  0
SECTION
  2
TABLES
  0
TABLE
  2
VPORT
  5
7
100
AcDbSymbolTable
 70
     1
  0
VPORT
  5
15
100
AcDbSymbolTableRecord
100
AcDbViewportTableRecord
  2
*ACTIVE
 70
     0
 10
0.0
 20
0.0
 11
1.0
 21
1.0
 12
6.591288
 22
4.579184
 13
0.0
 23
0.0
 14
1.0
 24
1.0
 15
0.0
 25
0.0
 16
0.0
 26
0.0
 36
1.0
 17
0.0
 27
0.0
 37
0.0
 40
9.158369
 41
0.688564
 42
50.0
 43
0.0
 44
0.0
 50
0.0
 51
0.0
 71
     0
 72
   100
 73
     1
 74
     1
 75
     0
 76
     0
 77
     0
 78
     0
281
     0
 65
     0
110
0.0
120
0.0
130
0.0
111
1.0
121
0.0
131
0.0
112
0.0
122
1.0
132
0.0
345
0
346
0
 79
     0
146
0.0
  0
ENDTAB
  0
TABLE
  2
LTYPE
  5
4
100
AcDbSymbolTable
 70
     3
  0
LTYPE
  5
11
100
AcDbSymbolTableRecord
100
AcDbLinetypeTableRecord
  2
ByBlock
 70
    64
  3

 72
    65
 73
     0
 40
0.0
  0
LTYPE
  5
12
100
AcDbSymbolTableRecord
100
AcDbLinetypeTableRecord
  2
ByLayer
 70
    64
  3

 72
    65
 73
     0
 40
0.0
  0
LTYPE
  5
13
100
AcDbSymbolTableRecord
100
AcDbLinetypeTableRecord
  2
Continuous
 70
    64
  3
Solid line
 72
    65
 73
     0
 40
0.0
  0
ENDTAB
  0
TABLE
  2
LAYER
  5
2
100
AcDbSymbolTable
 70
     2
  0
LAYER
  5
14
100
AcDbSymbolTableRecord
100
AcDbLayerTableRecord
  2
0
 70
     0
 62
     7
  6
Continuous
290
     1
370
    -3
390
1D
  0
LAYER
  5
28
100
AcDbSymbolTableRecord
100
AcDbLayerTableRecord
  2
LIVELLO_1
 70
     0
 62
   160
  6
Continuous
290
     1
370
    -3
390
1D
  0
ENDTAB
  0
TABLE
  2
STYLE
  5
3
100
AcDbSymbolTable
 70
     5
  0
STYLE
  5
17
100
AcDbSymbolTableRecord
100
AcDbTextStyleTableRecord
  2
Standard
 70
     0
 40
0.0
 41
1.0
 50
0.0
 71
     0
 42
0.0
  3
txt
  4

  0
STYLE
  5
24
100
AcDbSymbolTableRecord
100
AcDbTextStyleTableRecord
  2
STD
 70
     0
 40
0.0
 41
1.0
 50
0.0
 71
     0
 42
0.0
  3
txt
  4

  0
STYLE
  5
25
100
AcDbSymbolTableRecord
100
AcDbTextStyleTableRecord
  2
TATESTD
 70
     4
 40
0.0
 41
1.0
 50
0.0
 71
     0
 42
0.0
  3
txt
  4

  0
STYLE
  5
26
100
AcDbSymbolTableRecord
100
AcDbTextStyleTableRecord
  2
KANJISTD
 70
     0
 40
0.0
 41
1.0
 50
0.0
 71
     0
 42
0.0
  3
txt
  4
extfont
  0
STYLE
  5
27
100
AcDbSymbolTableRecord
100
AcDbTextStyleTableRecord
  2
KANJITATE
 70
     4
 40
0.0
 41
1.0
 50
0.0
 71
     0
 42
0.0
  3
txt
  4
extfont
  0
ENDTAB
  0
TABLE
  2
VIEW
  5
5
100
AcDbSymbolTable
 70
     0
  0
ENDTAB
  0
TABLE
  2
UCS
  5
6
100
AcDbSymbolTable
 70
     0
  0
ENDTAB
  0
TABLE
  2
APPID
  5
8
100
AcDbSymbolTable
 70
     1
  0
APPID
  5
16
100
AcDbSymbolTableRecord
100
AcDbRegAppTableRecord
  2
ACAD
 70
     0
  0
ENDTAB
  0
TABLE
  2
DIMSTYLE
  5
9
100
AcDbSymbolTable
 70
     1
100
AcDbDimStyleTable
 71
     0
  0
DIMSTYLE
105
18
100
AcDbSymbolTableRecord
100
AcDbDimStyleTableRecord
  2
Standard
 70
     0
  3

  4

 40
1.0
 41
0.18
 42
0.0625
 43
0.38
 44
0.18
 45
0.0
 46
0.0
 47
0.0
 48
0.0
 71
     0
 72
     0
 73
     1
 74
     1
 75
     0
 76
     0
 77
     0
 78
     0
 79
     0
140
0.18
141
0.09
142
0.0
143
25.4
144
1.0
145
0.0
146
1.0
147
0.09
148
0.0
170
     0
171
     2
172
     0
173
     0
174
     0
175
     0
176
     0
177
     0
178
     0
179
     0
271
     4
272
     4
273
     2
274
     2
275
     0
276
     0
277
     2
278
    46
279
     0
280
     0
281
     0
282
     0
283
     1
284
     0
285
     0
286
     0
288
     0
340
17
341
0
342
0
343
0
344
0
371
    -2
372
    -2
  0
ENDTAB
  0
TABLE
  2
BLOCK_RECORD
  5
1
100
AcDbSymbolTable
 70
     1
  0
BLOCK_RECORD
  5
A
100
AcDbSymbolTableRecord
100
AcDbBlockTableRecord
  2
*MODEL_SPACE
340
20
  0
BLOCK_RECORD
  5
B
100
AcDbSymbolTableRecord
100
AcDbBlockTableRecord
  2
*PAPER_SPACE
340
21
  0
BLOCK_RECORD
  5
29
100
AcDbSymbolTableRecord
100
AcDbBlockTableRecord
  2
AI9-BLK1
340
0
102
{BLKREFS
331
2A
102
}
  0
ENDTAB
  0
ENDSEC
  0
SECTION
  2
BLOCKS
  0
BLOCK
  5
D
100
AcDbEntity
  8
0
100
AcDbBlockBegin
  2
*MODEL_SPACE
 70
     0
 10
0.0
 20
0.0
 30
0.0
  3
*MODEL_SPACE
  1

  0
ENDBLK
  5
E
100
AcDbEntity
  8
0
100
AcDbBlockEnd
  0
BLOCK
  5
F
100
AcDbEntity
 67
     1
  8
0
100
AcDbBlockBegin
  2
*PAPER_SPACE
 70
     0
 10
0.0
 20
0.0
 30
0.0
  3
*PAPER_SPACE
  1

  0
ENDBLK
  5
10
100
AcDbEntity
 67
     1
  8
0
100
AcDbBlockEnd
  0
BLOCK
  5
2B
100
AcDbEntity
  8
LIVELLO_1
 62
     7
100
AcDbBlockBegin
  2
AI9-BLK1
 70
     0
 10
0.0
 20
0.0
 30
0.0
  3
AI9-BLK1
  1

  0
MTEXT
  5
BA
100
AcDbEntity
  8
LIVELLO_1
 62
     7
100
AcDbMText
 10
50.245426
 20
100.886601
 30
0.0
 40
8.247294
 41
0.0
 71
     1
 72
     2
  1
\fMyriad Roman|b0|i0;\H8.2473;\C7;\U+0031\U+0036\U+0030
  7
STD
210
0.0
220
0.0
230
1.0
 73
     1
 44
1.0
  0
LINE
  5
B9
100
AcDbEntity
  8
LIVELLO_1
 62
     7
100
AcDbLine
 10
30.980796
 20
85.158626
 30
0.0
 11
30.980796
 21
96.332621
 31
0.0
  0
LINE
  5
B8
100
AcDbEntity
  8
LIVELLO_1
 62
     7
100
AcDbLine
 10
30.980796
 20
123.467916
 30
0.0
 11
30.980796
 21
112.295988
 31
0.0
  0
POLYLINE
  5
AA
100
AcDbEntity
  8
LIVELLO_1
 62
     7
100
AcDb2dPolyline
 66
     1
 10
0.0
 20
0.0
 30
0.0
 70
     1
  0
VERTEX
  5
AB
100
AcDbEntity
  8
LIVELLO_1
 62
     7
100
AcDbVertex
100
AcDb2dVertex
 10
-14.195602
 20
76.043765
 30
0.0
  0
VERTEX
  5
AC
100
AcDbEntity
  8
LIVELLO_1
 62
     7
100
AcDbVertex
100
AcDb2dVertex
 10
-6.61932
 20
98.890432
 30
0.0
  0
VERTEX
  5
AD
100
AcDbEntity
  8
LIVELLO_1
 62
     7
100
AcDbVertex
100
AcDb2dVertex
 10
1.211554
 20
98.890432
 30
0.0
  0
VERTEX
  5
AE
100
AcDbEntity
  8
LIVELLO_1
 62
     7
100
AcDbVertex
100
AcDb2dVertex
 10
-2.038205
 20
96.24012
 30
0.0
  0
VERTEX
  5
AF
100
AcDbEntity
  8
LIVELLO_1
 62
     7
100
AcDbVertex
100
AcDb2dVertex
 10
0.351314
 20
93.846468
 30
0.0
  0
VERTEX
  5
B0
100
AcDbEntity
  8
LIVELLO_1
 62
     7
100
AcDbVertex
100
AcDb2dVertex
 10
-2.637651
 20
91.257823
 30
0.0
  0
VERTEX
  5
B1
100
AcDbEntity
  8
LIVELLO_1
 62
     7
100
AcDbVertex
100
AcDb2dVertex
 10
-0.445192
 20
88.667112
 30
0.0
  0
VERTEX
  5
B2
100
AcDbEntity
  8
LIVELLO_1
 62
     7
100
AcDbVertex
100
AcDb2dVertex
 10
-3.432263
 20
85.879168
 30
0.0
  0
VERTEX
  5
B3
100
AcDbEntity
  8
LIVELLO_1
 62
     7
100
AcDbVertex
100
AcDb2dVertex
 10
-0.842412
 20
83.226789
 30
0.0
  0
VERTEX
  5
B4
100
AcDbEntity
  8
LIVELLO_1
 62
     7
100
AcDbVertex
100
AcDb2dVertex
 10
-4.228769
 20
80.040765
 30
0.0
  0
VERTEX
  5
B5
100
AcDbEntity
  8
LIVELLO_1
 62
     7
100
AcDbVertex
100
AcDb2dVertex
 10
-1.640985
 20
77.049561
 30
0.0
  0
VERTEX
  5
B6
100
AcDbEntity
  8
LIVELLO_1
 62
     7
100
AcDbVertex
100
AcDb2dVertex
 10
-3.035043
 20
76.043765
 30
0.0
  0
SEQEND
  5
B7
100
AcDbEntity
  8
LIVELLO_1
 62
     7
  0
POLYLINE
  5
A2
100
AcDbEntity
  8
LIVELLO_1
 62
     7
100
AcDb2dPolyline
 66
     1
 10
0.0
 20
0.0
 30
0.0
 70
     1
  0
VERTEX
  5
A3
100
AcDbEntity
  8
LIVELLO_1
 62
     7
100
AcDbVertex
100
AcDb2dVertex
 10
49.320418
 20
76.043765
 30
0.0
  0
VERTEX
  5
A4
100
AcDbEntity
  8
LIVELLO_1
 62
     7
100
AcDbVertex
100
AcDb2dVertex
 10
38.53968
 20
101.612747
 30
0.0
  0
VERTEX
  5
A5
100
AcDbEntity
  8
LIVELLO_1
 62
     7
100
AcDbVertex
100
AcDb2dVertex
 10
-58.642157
 20
101.612747
 30
0.0
  0
VERTEX
  5
A6
100
AcDbEntity
  8
LIVELLO_1
 62
     7
100
AcDbVertex
100
AcDb2dVertex
 10
-60.997741
 20
107.200692
 30
0.0
  0
VERTEX
  5
A7
100
AcDbEntity
  8
LIVELLO_1
 62
     7
100
AcDbVertex
100
AcDb2dVertex
 10
41.892792
 20
107.200692
 30
0.0
  0
VERTEX
  5
A8
100
AcDbEntity
  8
LIVELLO_1
 62
     7
100
AcDbVertex
100
AcDb2dVertex
 10
55.02963
 20
76.043765
 30
0.0
  0
SEQEND
  5
A9
100
AcDbEntity
  8
LIVELLO_1
 62
     7
  0
POLYLINE
  5
9C
100
AcDbEntity
  8
LIVELLO_1
 62
     7
100
AcDb2dPolyline
 66
     1
 10
0.0
 20
0.0
 30
0.0
 70
     1
  0
VERTEX
  5
9D
100
AcDbEntity
  8
LIVELLO_1
 62
     7
100
AcDbVertex
100
AcDb2dVertex
 10
-60.997741
 20
107.200692
 30
0.0
  0
VERTEX
  5
9E
100
AcDbEntity
  8
LIVELLO_1
 62
     7
100
AcDbVertex
100
AcDb2dVertex
 10
41.892792
 20
107.200692
 30
0.0
  0
VERTEX
  5
9F
100
AcDbEntity
  8
LIVELLO_1
 62
     7
100
AcDbVertex
100
AcDb2dVertex
 10
55.02963
 20
76.043765
 30
0.0
  0
VERTEX
  5
A0
100
AcDbEntity
  8
LIVELLO_1
 62
     7
100
AcDbVertex
100
AcDb2dVertex
 10
-47.861247
 20
76.043765
 30
0.0
  0
SEQEND
  5
A1
100
AcDbEntity
  8
LIVELLO_1
 62
     7
  0
MTEXT
  5
9B
100
AcDbEntity
  8
LIVELLO_1
 62
     7
100
AcDbMText
 10
-18.940532
 20
121.481372
 30
0.0
 40
7.881759
 41
0.0
 71
     1
 72
     2
  1
\fMyriad Roman|b0|i0;\H7.8818;\C7;\U+0033\U+0033\U+0034
  7
STD
210
0.0
220
0.0
230
1.0
 73
     1
 44
1.0
  0
LINE
  5
9A
100
AcDbEntity
  8
LIVELLO_1
 62
     7
100
AcDbLine
 10
-87.973011
 20
-34.372062
 30
0.0
 11
-80.330067
 21
-34.372062
 31
0.0
  0
LINE
  5
99
100
AcDbEntity
  8
LIVELLO_1
 62
     7
100
AcDbLine
 10
-84.151539
 20
-12.422325
 30
0.0
 11
-84.151539
 21
-34.372062
 31
0.0
  0
LINE
  5
98
100
AcDbEntity
  8
LIVELLO_1
 62
     7
100
AcDbLine
 10
-84.151539
 20
24.094826
 30
0.0
 11
-84.151539
 21
-0.004134
 31
0.0
  0
LINE
  5
97
100
AcDbEntity
  8
LIVELLO_1
 62
     7
100
AcDbLine
 10
-87.973011
 20
24.094826
 30
0.0
 11
-80.330067
 21
24.094826
 31
0.0
  0
POLYLINE
  5
91
100
AcDbEntity
  8
LIVELLO_1
 62
     7
100
AcDb2dPolyline
 66
     1
 10
0.0
 20
0.0
 30
0.0
 70
     1
  0
VERTEX
  5
92
100
AcDbEntity
  8
LIVELLO_1
 62
     7
100
AcDbVertex
100
AcDb2dVertex
 10
52.93949
 20
14.265451
 30
0.0
  0
VERTEX
  5
93
100
AcDbEntity
  8
LIVELLO_1
 62
     7
100
AcDbVertex
100
AcDb2dVertex
 10
61.191183
 20
14.265451
 30
0.0
  0
VERTEX
  5
94
100
AcDbEntity
  8
LIVELLO_1
 62
     7
100
AcDbVertex
100
AcDb2dVertex
 10
61.191183
 20
15.304148
 30
0.0
  0
VERTEX
  5
95
100
AcDbEntity
  8
LIVELLO_1
 62
     7
100
AcDbVertex
100
AcDb2dVertex
 10
52.93949
 20
15.304148
 30
0.0
  0
SEQEND
  5
96
100
AcDbEntity
  8
LIVELLO_1
 62
     7
  0
SPLINE
  5
90
100
AcDbEntity
  8
LIVELLO_1
 62
     7
100
AcDbSpline
210
0.0
220
0.0
230
1.0
 70
     8
 71
     3
 72
    23
 73
    19
 74
     0
 42
0.00000001
 43
0.00000001
 40
0.0
 40
0.0
 40
0.0
 40
0.0
 40
1.0
 40
1.0
 40
1.0
 40
2.0
 40
2.0
 40
2.0
 40
3.0
 40
3.0
 40
3.0
 40
4.0
 40
4.0
 40
4.0
 40
5.0
 40
5.0
 40
5.0
 40
6.0
 40
6.0
 40
6.0
 40
6.0
 10
50.875533718532985
 20
14.265451388888888
 30
0.0
 10
50.875533718532985
 20
14.265451388888888
 30
0.0
 10
62.812100558810755
 20
14.265451388888888
 30
0.0
 10
62.812100558810755
 20
14.265451388888888
 30
0.0
 10
62.812100558810755
 20
14.265451388888888
 30
0.0
 10
62.626409912109366
 20
19.383485243055553
 30
0.0
 10
62.626409912109366
 20
19.383485243055553
 30
0.0
 10
62.626409912109366
 20
19.806370713975692
 30
0.0
 10
62.284656439887144
 20
20.149157714843749
 30
0.0
 10
61.861598714192702
 20
20.149157714843749
 30
0.0
 10
61.861598714192702
 20
20.149157714843749
 30
0.0
 10
49.511275906032985
 20
20.149157714843749
 30
0.0
 10
49.511275906032985
 20
20.149157714843749
 30
0.0
 10
49.511275906032985
 20
20.149157714843749
 30
0.0
 10
50.112789577907982
 20
15.027162000868055
 30
0.0
 10
50.112789577907982
 20
15.027162000868055
 30
0.0
 10
50.112789577907982
 20
14.608238389756943
 30
0.0
 10
50.452475992838536
 20
14.265451388888888
 30
0.0
 10
50.875533718532985
 20
14.265451388888888
 30
0.0
  0
SPLINE
  5
8F
100
AcDbEntity
  8
LIVELLO_1
 62
     7
100
AcDbSpline
210
0.0
220
0.0
230
1.0
 70
     8
 71
     3
 72
    20
 73
    16
 74
     0
 42
0.00000001
 43
0.00000001
 40
0.0
 40
0.0
 40
0.0
 40
0.0
 40
1.0
 40
1.0
 40
1.0
 40
2.0
 40
2.0
 40
2.0
 40
3.0
 40
3.0
 40
3.0
 40
4.0
 40
4.0
 40
4.0
 40
5.0
 40
5.0
 40
5.0
 40
5.0
 10
64.276955159505206
 20
-25.879212782118053
 30
0.0
 10
64.276955159505206
 20
-25.879212782118053
 30
0.0
 10
62.750433349609366
 20
17.747409396701386
 30
0.0
 10
62.750433349609366
 20
17.747409396701386
 30
0.0
 10
62.740098063151038
 20
18.032663302951388
 30
0.0
 10
62.962995741102425
 20
18.262451171875
 30
0.0
 10
63.249283175998258
 20
18.262451171875
 30
0.0
 10
63.566576470269091
 20
18.262451171875
 30
0.0
 10
63.805666097005201
 20
18.032663302951388
 30
0.0
 10
63.814967854817702
 20
17.747409396701386
 30
0.0
 10
63.814967854817702
 20
17.747409396701386
 30
0.0
 10
65.342178683810758
 20
-25.879212782118053
 30
0.0
 10
65.342178683810758
 20
-25.879212782118053
 30
0.0
 10
65.342178683810758
 20
-25.879212782118053
 30
0.0
 10
64.276955159505206
 20
-25.879212782118053
 30
0.0
 10
64.276955159505206
 20
-25.879212782118053
 30
0.0
  0
SPLINE
  5
8E
100
AcDbEntity
  8
LIVELLO_1
 62
     7
100
AcDbSpline
210
0.0
220
0.0
230
1.0
 70
     8
 71
     3
 72
    29
 73
    25
 74
     0
 42
0.00000001
 43
0.00000001
 40
0.0
 40
0.0
 40
0.0
 40
0.0
 40
1.0
 40
1.0
 40
1.0
 40
2.0
 40
2.0
 40
2.0
 40
3.0
 40
3.0
 40
3.0
 40
4.0
 40
4.0
 40
4.0
 40
5.0
 40
5.0
 40
5.0
 40
6.0
 40
6.0
 40
6.0
 40
7.0
 40
7.0
 40
7.0
 40
8.0
 40
8.0
 40
8.0
 40
8.0
 10
68.441042073567701
 20
-24.164933268229163
 30
0.0
 10
68.441042073567701
 20
-24.164933268229163
 30
0.0
 10
68.441042073567701
 20
-22.306993272569443
 30
0.0
 10
68.441042073567701
 20
-22.306993272569443
 30
0.0
 10
68.441042073567701
 20
-21.886347113715274
 30
0.0
 10
68.098255072699644
 20
-21.543215603298609
 30
0.0
 10
67.676575385199641
 20
-21.543215603298609
 30
0.0
 10
67.676575385199641
 20
-21.543215603298609
 30
0.0
 10
65.189216444227426
 20
-21.543215603298609
 30
0.0
 10
65.189216444227426
 20
-21.543215603298609
 30
0.0
 10
65.189216444227426
 20
-21.543215603298609
 30
0.0
 10
65.169923909505201
 20
-20.970640733506944
 30
0.0
 10
65.169923909505201
 20
-20.970640733506944
 30
0.0
 10
65.169923909505201
 20
-20.970640733506944
 30
0.0
 10
68.250183783637141
 20
-20.970640733506944
 30
0.0
 10
68.250183783637141
 20
-20.970640733506944
 30
0.0
 10
68.672207980685755
 20
-20.970640733506944
 30
0.0
 10
69.012927924262144
 20
-21.313427734374997
 30
0.0
 10
69.012927924262144
 20
-21.734418402777777
 30
0.0
 10
69.012927924262144
 20
-21.734418402777777
 30
0.0
 10
69.012927924262144
 20
-24.164933268229163
 30
0.0
 10
69.012927924262144
 20
-24.164933268229163
 30
0.0
 10
69.012927924262144
 20
-24.164933268229163
 30
0.0
 10
68.441042073567701
 20
-24.164933268229163
 30
0.0
 10
68.441042073567701
 20
-24.164933268229163
 30
0.0
  0
SPLINE
  5
8D
100
AcDbEntity
  8
LIVELLO_1
 62
     7
100
AcDbSpline
210
0.0
220
0.0
230
1.0
 70
     8
 71
     3
 72
    20
 73
    16
 74
     0
 42
0.00000001
 43
0.00000001
 40
0.0
 40
0.0
 40
0.0
 40
0.0
 40
1.0
 40
1.0
 40
1.0
 40
2.0
 40
2.0
 40
2.0
 40
3.0
 40
3.0
 40
3.0
 40
4.0
 40
4.0
 40
4.0
 40
5.0
 40
5.0
 40
5.0
 40
5.0
 10
-44.159836832682288
 20
-25.879212782118053
 30
0.0
 10
-44.159836832682288
 20
-25.879212782118053
 30
0.0
 10
-42.631420220269092
 20
17.747409396701386
 30
0.0
 10
-42.631420220269092
 20
17.747409396701386
 30
0.0
 10
-42.621257188585062
 20
18.032663302951388
 30
0.0
 10
-42.843982611762151
 20
18.262451171875
 30
0.0
 10
-43.129236518012149
 20
18.262451171875
 30
0.0
 10
-43.447391086154511
 20
18.262451171875
 30
0.0
 10
-43.686652967664926
 20
18.032663302951388
 30
0.0
 10
-43.694921196831594
 20
17.747409396701386
 30
0.0
 10
-43.694921196831594
 20
17.747409396701386
 30
0.0
 10
-45.223165554470484
 20
-25.879212782118053
 30
0.0
 10
-45.223165554470484
 20
-25.879212782118053
 30
0.0
 10
-45.223165554470484
 20
-25.879212782118053
 30
0.0
 10
-44.159836832682288
 20
-25.879212782118053
 30
0.0
 10
-44.159836832682288
 20
-25.879212782118053
 30
0.0
  0
SPLINE
  5
8C
100
AcDbEntity
  8
LIVELLO_1
 62
     7
100
AcDbSpline
210
0.0
220
0.0
230
1.0
 70
     8
 71
     3
 72
    29
 73
    25
 74
     0
 42
0.00000001
 43
0.00000001
 40
0.0
 40
0.0
 40
0.0
 40
0.0
 40
1.0
 40
1.0
 40
1.0
 40
2.0
 40
2.0
 40
2.0
 40
3.0
 40
3.0
 40
3.0
 40
4.0
 40
4.0
 40
4.0
 40
5.0
 40
5.0
 40
5.0
 40
6.0
 40
6.0
 40
6.0
 40
7.0
 40
7.0
 40
7.0
 40
8.0
 40
8.0
 40
8.0
 40
8.0
 10
-48.322028944227426
 20
-24.164933268229163
 30
0.0
 10
-48.322028944227426
 20
-24.164933268229163
 30
0.0
 10
-48.322028944227426
 20
-22.306993272569443
 30
0.0
 10
-48.322028944227426
 20
-22.306993272569443
 30
0.0
 10
-48.322028944227426
 20
-21.886347113715274
 30
0.0
 10
-47.981309000651038
 20
-21.543215603298609
 30
0.0
 10
-47.559457058376729
 20
-21.543215603298609
 30
0.0
 10
-47.559457058376729
 20
-21.543215603298609
 30
0.0
 10
-45.072270372178814
 20
-21.543215603298609
 30
0.0
 10
-45.072270372178814
 20
-21.543215603298609
 30
0.0
 10
-45.072270372178814
 20
-21.543215603298609
 30
0.0
 10
-45.050738525390621
 20
-20.970640733506944
 30
0.0
 10
-45.050738525390621
 20
-20.970640733506944
 30
0.0
 10
-45.050738525390621
 20
-20.970640733506944
 30
0.0
 10
-48.133237711588535
 20
-20.970640733506944
 30
0.0
 10
-48.133237711588535
 20
-20.970640733506944
 30
0.0
 10
-48.553022596571175
 20
-20.970640733506944
 30
0.0
 10
-48.895809597439232
 20
-21.313427734374997
 30
0.0
 10
-48.895809597439232
 20
-21.734418402777777
 30
0.0
 10
-48.895809597439232
 20
-21.734418402777777
 30
0.0
 10
-48.895809597439232
 20
-24.164933268229163
 30
0.0
 10
-48.895809597439232
 20
-24.164933268229163
 30
0.0
 10
-48.895809597439232
 20
-24.164933268229163
 30
0.0
 10
-48.322028944227426
 20
-24.164933268229163
 30
0.0
 10
-48.322028944227426
 20
-24.164933268229163
 30
0.0
  0
POLYLINE
  5
86
100
AcDbEntity
  8
LIVELLO_1
 62
     7
100
AcDb2dPolyline
 66
     1
 10
0.0
 20
0.0
 30
0.0
 70
     1
  0
VERTEX
  5
87
100
AcDbEntity
  8
LIVELLO_1
 62
     7
100
AcDbVertex
100
AcDb2dVertex
 10
67.159122
 20
-24.164933
 30
0.0
  0
VERTEX
  5
88
100
AcDbEntity
  8
LIVELLO_1
 62
     7
100
AcDbVertex
100
AcDb2dVertex
 10
69.79083
 20
-24.164933
 30
0.0
  0
VERTEX
  5
89
100
AcDbEntity
  8
LIVELLO_1
 62
     7
100
AcDbVertex
100
AcDb2dVertex
 10
69.79083
 20
-25.879213
 30
0.0
  0
VERTEX
  5
8A
100
AcDbEntity
  8
LIVELLO_1
 62
     7
100
AcDbVertex
100
AcDb2dVertex
 10
67.159122
 20
-25.879213
 30
0.0
  0
SEQEND
  5
8B
100
AcDbEntity
  8
LIVELLO_1
 62
     7
  0
POLYLINE
  5
80
100
AcDbEntity
  8
LIVELLO_1
 62
     7
100
AcDb2dPolyline
 66
     1
 10
0.0
 20
0.0
 30
0.0
 70
     1
  0
VERTEX
  5
81
100
AcDbEntity
  8
LIVELLO_1
 62
     7
100
AcDbVertex
100
AcDb2dVertex
 10
-49.671817
 20
-24.164933
 30
0.0
  0
VERTEX
  5
82
100
AcDbEntity
  8
LIVELLO_1
 62
     7
100
AcDbVertex
100
AcDb2dVertex
 10
-47.040109
 20
-24.164933
 30
0.0
  0
VERTEX
  5
83
100
AcDbEntity
  8
LIVELLO_1
 62
     7
100
AcDbVertex
100
AcDb2dVertex
 10
-47.040109
 20
-25.879213
 30
0.0
  0
VERTEX
  5
84
100
AcDbEntity
  8
LIVELLO_1
 62
     7
100
AcDbVertex
100
AcDb2dVertex
 10
-49.671817
 20
-25.879213
 30
0.0
  0
SEQEND
  5
85
100
AcDbEntity
  8
LIVELLO_1
 62
     7
  0
SPLINE
  5
7F
100
AcDbEntity
  8
LIVELLO_1
 62
     7
100
AcDbSpline
210
0.0
220
0.0
230
1.0
 70
     8
 71
     3
 72
    53
 73
    49
 74
     0
 42
0.00000001
 43
0.00000001
 40
0.0
 40
0.0
 40
0.0
 40
0.0
 40
1.0
 40
1.0
 40
1.0
 40
2.0
 40
2.0
 40
2.0
 40
3.0
 40
3.0
 40
3.0
 40
4.0
 40
4.0
 40
4.0
 40
5.0
 40
5.0
 40
5.0
 40
6.0
 40
6.0
 40
6.0
 40
7.0
 40
7.0
 40
7.0
 40
8.0
 40
8.0
 40
8.0
 40
9.0
 40
9.0
 40
9.0
 40
10.0
 40
10.0
 40
10.0
 40
11.0
 40
11.0
 40
11.0
 40
12.0
 40
12.0
 40
12.0
 40
13.0
 40
13.0
 40
13.0
 40
14.0
 40
14.0
 40
14.0
 40
15.0
 40
15.0
 40
15.0
 40
16.0
 40
16.0
 40
16.0
 40
16.0
 10
-42.507224527994786
 20
19.383485243055553
 30
0.0
 10
-42.507224527994786
 20
19.383485243055553
 30
0.0
 10
-44.159836832682288
 20
-25.842005750868054
 30
0.0
 10
-44.159836832682288
 20
-25.842005750868054
 30
0.0
 10
-43.758483208550345
 20
-25.731418185763886
 30
0.0
 10
-43.461860487196176
 20
-25.361759440104166
 30
0.0
 10
-43.461860487196176
 20
-24.924576822916663
 30
0.0
 10
-43.461860487196176
 20
-24.924576822916663
 30
0.0
 10
-43.461860487196176
 20
-23.682619900173609
 30
0.0
 10
-43.461860487196176
 20
-23.682619900173609
 30
0.0
 10
-43.461860487196176
 20
-23.682619900173609
 30
0.0
 10
-36.082638210720482
 20
-23.682619900173609
 30
0.0
 10
-36.082638210720482
 20
-23.682619900173609
 30
0.0
 10
-36.082638210720482
 20
-23.682619900173609
 30
0.0
 10
-36.082638210720482
 20
-24.924576822916663
 30
0.0
 10
-36.082638210720482
 20
-24.924576822916663
 30
0.0
 10
-36.082638210720482
 20
-25.452020941840274
 30
0.0
 10
-35.658719211154512
 20
-25.879212782118053
 30
0.0
 10
-35.129035780164926
 20
-25.879212782118053
 30
0.0
 10
-35.129035780164926
 20
-25.879212782118053
 30
0.0
 10
55.250115966796869
 20
-25.879212782118053
 30
0.0
 10
55.250115966796869
 20
-25.879212782118053
 30
0.0
 10
55.775837537977424
 20
-25.879212782118053
 30
0.0
 10
56.204751925998259
 20
-25.452020941840274
 30
0.0
 10
56.204751925998259
 20
-24.924576822916663
 30
0.0
 10
56.204751925998259
 20
-24.924576822916663
 30
0.0
 10
56.204751925998259
 20
-23.682619900173609
 30
0.0
 10
56.204751925998259
 20
-23.682619900173609
 30
0.0
 10
56.204751925998259
 20
-23.682619900173609
 30
0.0
 10
63.582768419053814
 20
-23.682619900173609
 30
0.0
 10
63.582768419053814
 20
-23.682619900173609
 30
0.0
 10
63.582768419053814
 20
-23.682619900173609
 30
0.0
 10
63.582768419053814
 20
-24.924576822916663
 30
0.0
 10
63.582768419053814
 20
-24.924576822916663
 30
0.0
 10
63.582768419053814
 20
-25.361759440104166
 30
0.0
 10
63.875601535373256
 20
-25.729351128472221
 30
0.0
 10
64.276955159505206
 20
-25.842005750868054
 30
0.0
 10
64.276955159505206
 20
-25.842005750868054
 30
0.0
 10
62.626409912109366
 20
19.383485243055553
 30
0.0
 10
62.626409912109366
 20
19.383485243055553
 30
0.0
 10
62.626409912109366
 20
19.806370713975692
 30
0.0
 10
62.284656439887144
 20
20.149157714843749
 30
0.0
 10
61.861598714192702
 20
20.149157714843749
 30
0.0
 10
61.861598714192702
 20
20.149157714843749
 30
0.0
 10
-41.744652642144096
 20
20.149157714843749
 30
0.0
 10
-41.744652642144096
 20
20.149157714843749
 30
0.0
 10
-42.166504584418398
 20
20.149157714843749
 30
0.0
 10
-42.507224527994786
 20
19.806370713975692
 30
0.0
 10
-42.507224527994786
 20
19.383485243055553
 30
0.0
  0
SPLINE
  5
7E
100
AcDbEntity
  8
LIVELLO_1
 62
     7
100
AcDbSpline
210
0.0
220
0.0
230
1.0
 70
     8
 71
     3
 72
    53
 73
    49
 74
     0
 42
0.00000001
 43
0.00000001
 40
0.0
 40
0.0
 40
0.0
 40
0.0
 40
1.0
 40
1.0
 40
1.0
 40
2.0
 40
2.0
 40
2.0
 40
3.0
 40
3.0
 40
3.0
 40
4.0
 40
4.0
 40
4.0
 40
5.0
 40
5.0
 40
5.0
 40
6.0
 40
6.0
 40
6.0
 40
7.0
 40
7.0
 40
7.0
 40
8.0
 40
8.0
 40
8.0
 40
9.0
 40
9.0
 40
9.0
 40
10.0
 40
10.0
 40
10.0
 40
11.0
 40
11.0
 40
11.0
 40
12.0
 40
12.0
 40
12.0
 40
13.0
 40
13.0
 40
13.0
 40
14.0
 40
14.0
 40
14.0
 40
15.0
 40
15.0
 40
15.0
 40
16.0
 40
16.0
 40
16.0
 40
16.0
 10
-50.628520372178812
 20
-28.449254014756942
 30
0.0
 10
-50.628520372178812
 20
-28.449254014756942
 30
0.0
 10
70.747533501519086
 20
-28.449254014756942
 30
0.0
 10
70.747533501519086
 20
-28.449254014756942
 30
0.0
 10
70.747533501519086
 20
-28.449254014756942
 30
0.0
 10
70.747533501519086
 20
-25.879212782118053
 30
0.0
 10
70.747533501519086
 20
-25.879212782118053
 30
0.0
 10
70.747533501519086
 20
-25.879212782118053
 30
0.0
 10
64.537404378255204
 20
-25.879212782118053
 30
0.0
 10
64.537404378255204
 20
-25.879212782118053
 30
0.0
 10
64.009960259331592
 20
-25.879212782118053
 30
0.0
 10
63.582768419053814
 20
-25.452020941840274
 30
0.0
 10
63.582768419053814
 20
-24.924576822916663
 30
0.0
 10
63.582768419053814
 20
-24.924576822916663
 30
0.0
 10
63.582768419053814
 20
-23.682619900173609
 30
0.0
 10
63.582768419053814
 20
-23.682619900173609
 30
0.0
 10
63.582768419053814
 20
-23.682619900173609
 30
0.0
 10
56.204751925998259
 20
-23.682619900173609
 30
0.0
 10
56.204751925998259
 20
-23.682619900173609
 30
0.0
 10
56.204751925998259
 20
-23.682619900173609
 30
0.0
 10
56.204751925998259
 20
-24.924576822916663
 30
0.0
 10
56.204751925998259
 20
-24.924576822916663
 30
0.0
 10
56.204751925998259
 20
-25.452020941840274
 30
0.0
 10
55.775837537977424
 20
-25.879212782118053
 30
0.0
 10
55.250115966796869
 20
-25.879212782118053
 30
0.0
 10
55.250115966796869
 20
-25.879212782118053
 30
0.0
 10
-35.129035780164926
 20
-25.879212782118053
 30
0.0
 10
-35.129035780164926
 20
-25.879212782118053
 30
0.0
 10
-35.658719211154512
 20
-25.879212782118053
 30
0.0
 10
-36.082638210720482
 20
-25.452020941840274
 30
0.0
 10
-36.082638210720482
 20
-24.924576822916663
 30
0.0
 10
-36.082638210720482
 20
-24.924576822916663
 30
0.0
 10
-36.082638210720482
 20
-23.682619900173609
 30
0.0
 10
-36.082638210720482
 20
-23.682619900173609
 30
0.0
 10
-36.082638210720482
 20
-23.682619900173609
 30
0.0
 10
-43.461860487196176
 20
-23.682619900173609
 30
0.0
 10
-43.461860487196176
 20
-23.682619900173609
 30
0.0
 10
-43.461860487196176
 20
-23.682619900173609
 30
0.0
 10
-43.461860487196176
 20
-24.924576822916663
 30
0.0
 10
-43.461860487196176
 20
-24.924576822916663
 30
0.0
 10
-43.461860487196176
 20
-25.452020941840274
 30
0.0
 10
-43.890947129991318
 20
-25.879212782118053
 30
0.0
 10
-44.416496446397566
 20
-25.879212782118053
 30
0.0
 10
-44.416496446397566
 20
-25.879212782118053
 30
0.0
 10
-50.628520372178812
 20
-25.879212782118053
 30
0.0
 10
-50.628520372178812
 20
-25.879212782118053
 30
0.0
 10
-50.628520372178812
 20
-25.879212782118053
 30
0.0
 10
-50.628520372178812
 20
-28.449254014756942
 30
0.0
 10
-50.628520372178812
 20
-28.449254014756942
 30
0.0
  0
SPLINE
  5
7D
100
AcDbEntity
  8
LIVELLO_1
 62
     7
100
AcDbSpline
210
0.0
220
0.0
230
1.0
 70
     8
 71
     3
 72
    29
 73
    25
 74
     0
 42
0.00000001
 43
0.00000001
 40
0.0
 40
0.0
 40
0.0
 40
0.0
 40
1.0
 40
1.0
 40
1.0
 40
2.0
 40
2.0
 40
2.0
 40
3.0
 40
3.0
 40
3.0
 40
4.0
 40
4.0
 40
4.0
 40
5.0
 40
5.0
 40
5.0
 40
6.0
 40
6.0
 40
6.0
 40
7.0
 40
7.0
 40
7.0
 40
8.0
 40
8.0
 40
8.0
 40
8.0
 10
-52.528490532769091
 20
-28.449254014756942
 30
0.0
 10
-52.528490532769091
 20
-28.449254014756942
 30
0.0
 10
72.645436604817704
 20
-28.449254014756942
 30
0.0
 10
72.645436604817704
 20
-28.449254014756942
 30
0.0
 10
73.068494330512152
 20
-28.449254014756942
 30
0.0
 10
73.409214274088541
 20
-28.792041015624996
 30
0.0
 10
73.409214274088541
 20
-29.215098741319441
 30
0.0
 10
73.409214274088541
 20
-29.215098741319441
 30
0.0
 10
73.409214274088541
 20
-34.716916232638887
 30
0.0
 10
73.409214274088541
 20
-34.716916232638887
 30
0.0
 10
73.409214274088541
 20
-35.137562391493056
 30
0.0
 10
73.068494330512152
 20
-35.478626844618056
 30
0.0
 10
72.645436604817704
 20
-35.478626844618056
 30
0.0
 10
72.645436604817704
 20
-35.478626844618056
 30
0.0
 10
-52.528490532769091
 20
-35.478626844618056
 30
0.0
 10
-52.528490532769091
 20
-35.478626844618056
 30
0.0
 10
-52.951376003689234
 20
-35.478626844618056
 30
0.0
 10
-53.291234673394094
 20
-35.137562391493056
 30
0.0
 10
-53.291234673394094
 20
-34.716916232638887
 30
0.0
 10
-53.291234673394094
 20
-34.716916232638887
 30
0.0
 10
-53.291234673394094
 20
-29.215098741319441
 30
0.0
 10
-53.291234673394094
 20
-29.215098741319441
 30
0.0
 10
-53.291234673394094
 20
-28.792041015624996
 30
0.0
 10
-52.951376003689234
 20
-28.449254014756942
 30
0.0
 10
-52.528490532769091
 20
-28.449254014756942
 30
0.0
  0
SPLINE
  5
7C
100
AcDbEntity
  8
LIVELLO_1
 62
     7
100
AcDbSpline
210
0.0
220
0.0
230
1.0
 70
     8
 71
     3
 72
    20
 73
    16
 74
     0
 42
0.00000001
 43
0.00000001
 40
0.0
 40
0.0
 40
0.0
 40
0.0
 40
1.0
 40
1.0
 40
1.0
 40
2.0
 40
2.0
 40
2.0
 40
3.0
 40
3.0
 40
3.0
 40
4.0
 40
4.0
 40
4.0
 40
5.0
 40
5.0
 40
5.0
 40
5.0
 10
-37.329762776692704
 20
-23.682619900173609
 30
0.0
 10
-37.329762776692704
 20
-23.682619900173609
 30
0.0
 10
-37.329762776692704
 20
17.747409396701386
 30
0.0
 10
-37.329762776692704
 20
17.747409396701386
 30
0.0
 10
-37.329762776692704
 20
18.032663302951388
 30
0.0
 10
-37.558689371744791
 20
18.262451171875
 30
0.0
 10
-37.845149061414929
 20
18.262451171875
 30
0.0
 10
-38.162270100911456
 20
18.262451171875
 30
0.0
 10
-38.393263753255205
 20
18.032663302951388
 30
0.0
 10
-38.393263753255205
 20
17.747409396701386
 30
0.0
 10
-38.393263753255205
 20
17.747409396701386
 30
0.0
 10
-38.393263753255205
 20
-23.682619900173609
 30
0.0
 10
-38.393263753255205
 20
-23.682619900173609
 30
0.0
 10
-38.393263753255205
 20
-23.682619900173609
 30
0.0
 10
-37.329762776692704
 20
-23.682619900173609
 30
0.0
 10
-37.329762776692704
 20
-23.682619900173609
 30
0.0
  0
SPLINE
  5
7B
100
AcDbEntity
  8
LIVELLO_1
 62
     7
100
AcDbSpline
210
0.0
220
0.0
230
1.0
 70
     8
 71
     3
 72
    20
 73
    16
 74
     0
 42
0.00000001
 43
0.00000001
 40
0.0
 40
0.0
 40
0.0
 40
0.0
 40
1.0
 40
1.0
 40
1.0
 40
2.0
 40
2.0
 40
2.0
 40
3.0
 40
3.0
 40
3.0
 40
4.0
 40
4.0
 40
4.0
 40
5.0
 40
5.0
 40
5.0
 40
5.0
 10
-31.69151950412326
 20
-25.879212782118053
 30
0.0
 10
-31.69151950412326
 20
-25.879212782118053
 30
0.0
 10
-31.69151950412326
 20
17.747409396701386
 30
0.0
 10
-31.69151950412326
 20
17.747409396701386
 30
0.0
 10
-31.69151950412326
 20
18.032663302951388
 30
0.0
 10
-31.920446099175344
 20
18.262451171875
 30
0.0
 10
-32.206733534071176
 20
18.262451171875
 30
0.0
 10
-32.524026828342009
 20
18.262451171875
 30
0.0
 10
-32.754848225911452
 20
18.032663302951388
 30
0.0
 10
-32.754848225911452
 20
17.747409396701386
 30
0.0
 10
-32.754848225911452
 20
17.747409396701386
 30
0.0
 10
-32.754848225911452
 20
-25.879212782118053
 30
0.0
 10
-32.754848225911452
 20
-25.879212782118053
 30
0.0
 10
-32.754848225911452
 20
-25.879212782118053
 30
0.0
 10
-31.69151950412326
 20
-25.879212782118053
 30
0.0
 10
-31.69151950412326
 20
-25.879212782118053
 30
0.0
  0
SPLINE
  5
7A
100
AcDbEntity
  8
LIVELLO_1
 62
     7
100
AcDbSpline
210
0.0
220
0.0
230
1.0
 70
     8
 71
     3
 72
    20
 73
    16
 74
     0
 42
0.00000001
 43
0.00000001
 40
0.0
 40
0.0
 40
0.0
 40
0.0
 40
1.0
 40
1.0
 40
1.0
 40
2.0
 40
2.0
 40
2.0
 40
3.0
 40
3.0
 40
3.0
 40
4.0
 40
4.0
 40
4.0
 40
5.0
 40
5.0
 40
5.0
 40
5.0
 10
-26.053103976779511
 20
-25.879212782118053
 30
0.0
 10
-26.053103976779511
 20
-25.879212782118053
 30
0.0
 10
-26.053103976779511
 20
17.747409396701386
 30
0.0
 10
-26.053103976779511
 20
17.747409396701386
 30
0.0
 10
-26.053103976779511
 20
18.032663302951388
 30
0.0
 10
-26.285131157769094
 20
18.262451171875
 30
0.0
 10
-26.568490261501733
 20
18.262451171875
 30
0.0
 10
-26.888711886935763
 20
18.262451171875
 30
0.0
 10
-27.117638481987846
 20
18.032663302951388
 30
0.0
 10
-27.117638481987846
 20
17.747409396701386
 30
0.0
 10
-27.117638481987846
 20
17.747409396701386
 30
0.0
 10
-27.117638481987846
 20
-25.879212782118053
 30
0.0
 10
-27.117638481987846
 20
-25.879212782118053
 30
0.0
 10
-27.117638481987846
 20
-25.879212782118053
 30
0.0
 10
-26.053103976779511
 20
-25.879212782118053
 30
0.0
 10
-26.053103976779511
 20
-25.879212782118053
 30
0.0
  0
SPLINE
  5
79
100
AcDbEntity
  8
LIVELLO_1
 62
     7
100
AcDbSpline
210
0.0
220
0.0
230
1.0
 70
     8
 71
     3
 72
    20
 73
    16
 74
     0
 42
0.00000001
 43
0.00000001
 40
0.0
 40
0.0
 40
0.0
 40
0.0
 40
1.0
 40
1.0
 40
1.0
 40
2.0
 40
2.0
 40
2.0
 40
3.0
 40
3.0
 40
3.0
 40
4.0
 40
4.0
 40
4.0
 40
5.0
 40
5.0
 40
5.0
 40
5.0
 10
-20.415894232855901
 20
-25.879212782118053
 30
0.0
 10
-20.415894232855901
 20
-25.879212782118053
 30
0.0
 10
-20.415894232855901
 20
17.747409396701386
 30
0.0
 10
-20.415894232855901
 20
17.747409396701386
 30
0.0
 10
-20.415894232855901
 20
18.032663302951388
 30
0.0
 10
-20.64688788519965
 20
18.262451171875
 30
0.0
 10
-20.933175320095483
 20
18.262451171875
 30
0.0
 10
-21.250468614366319
 20
18.262451171875
 30
0.0
 10
-21.481290011935762
 20
18.032663302951388
 30
0.0
 10
-21.481290011935762
 20
17.747409396701386
 30
0.0
 10
-21.481290011935762
 20
17.747409396701386
 30
0.0
 10
-21.481290011935762
 20
-25.879212782118053
 30
0.0
 10
-21.481290011935762
 20
-25.879212782118053
 30
0.0
 10
-21.481290011935762
 20
-25.879212782118053
 30
0.0
 10
-20.415894232855901
 20
-25.879212782118053
 30
0.0
 10
-20.415894232855901
 20
-25.879212782118053
 30
0.0
  0
SPLINE
  5
78
100
AcDbEntity
  8
LIVELLO_1
 62
     7
100
AcDbSpline
210
0.0
220
0.0
230
1.0
 70
     8
 71
     3
 72
    20
 73
    16
 74
     0
 42
0.00000001
 43
0.00000001
 40
0.0
 40
0.0
 40
0.0
 40
0.0
 40
1.0
 40
1.0
 40
1.0
 40
2.0
 40
2.0
 40
2.0
 40
3.0
 40
3.0
 40
3.0
 40
4.0
 40
4.0
 40
4.0
 40
5.0
 40
5.0
 40
5.0
 40
5.0
 10
-14.777650960286458
 20
-25.879212782118053
 30
0.0
 10
-14.777650960286458
 20
-25.879212782118053
 30
0.0
 10
-14.777650960286458
 20
17.747409396701386
 30
0.0
 10
-14.777650960286458
 20
17.747409396701386
 30
0.0
 10
-14.777650960286458
 20
18.032663302951388
 30
0.0
 10
-15.008472357855901
 20
18.262451171875
 30
0.0
 10
-15.294932047526041
 20
18.262451171875
 30
0.0
 10
-15.612053087022568
 20
18.262451171875
 30
0.0
 10
-15.843046739366319
 20
18.032663302951388
 30
0.0
 10
-15.843046739366319
 20
17.747409396701386
 30
0.0
 10
-15.843046739366319
 20
17.747409396701386
 30
0.0
 10
-15.843046739366319
 20
-25.879212782118053
 30
0.0
 10
-15.843046739366319
 20
-25.879212782118053
 30
0.0
 10
-15.843046739366319
 20
-25.879212782118053
 30
0.0
 10
-14.777650960286458
 20
-25.879212782118053
 30
0.0
 10
-14.777650960286458
 20
-25.879212782118053
 30
0.0
  0
SPLINE
  5
77
100
AcDbEntity
  8
LIVELLO_1
 62
     7
100
AcDbSpline
210
0.0
220
0.0
230
1.0
 70
     8
 71
     3
 72
    20
 73
    16
 74
     0
 42
0.00000001
 43
0.00000001
 40
0.0
 40
0.0
 40
0.0
 40
0.0
 40
1.0
 40
1.0
 40
1.0
 40
2.0
 40
2.0
 40
2.0
 40
3.0
 40
3.0
 40
3.0
 40
4.0
 40
4.0
 40
4.0
 40
5.0
 40
5.0
 40
5.0
 40
5.0
 10
-9.1413024902343736
 20
-25.879212782118053
 30
0.0
 10
-9.1413024902343736
 20
-25.879212782118053
 30
0.0
 10
-9.1413024902343736
 20
17.747409396701386
 30
0.0
 10
-9.1413024902343736
 20
17.747409396701386
 30
0.0
 10
-9.1413024902343736
 20
18.032663302951388
 30
0.0
 10
-9.3712626139322914
 20
18.262451171875
 30
0.0
 10
-9.6546217176649289
 20
18.262451171875
 30
0.0
 10
-9.9738098144531246
 20
18.262451171875
 30
0.0
 10
-10.205836995442708
 20
18.032663302951388
 30
0.0
 10
-10.205836995442708
 20
17.747409396701386
 30
0.0
 10
-10.205836995442708
 20
17.747409396701386
 30
0.0
 10
-10.205836995442708
 20
-25.879212782118053
 30
0.0
 10
-10.205836995442708
 20
-25.879212782118053
 30
0.0
 10
-10.205836995442708
 20
-25.879212782118053
 30
0.0
 10
-9.1413024902343736
 20
-25.879212782118053
 30
0.0
 10
-9.1413024902343736
 20
-25.879212782118053
 30
0.0
  0
SPLINE
  5
76
100
AcDbEntity
  8
LIVELLO_1
 62
     7
100
AcDbSpline
210
0.0
220
0.0
230
1.0
 70
     8
 71
     3
 72
    20
 73
    16
 74
     0
 42
0.00000001
 43
0.00000001
 40
0.0
 40
0.0
 40
0.0
 40
0.0
 40
1.0
 40
1.0
 40
1.0
 40
2.0
 40
2.0
 40
2.0
 40
3.0
 40
3.0
 40
3.0
 40
4.0
 40
4.0
 40
4.0
 40
5.0
 40
5.0
 40
5.0
 40
5.0
 10
-3.5040927463107634
 20
-25.879212782118053
 30
0.0
 10
-3.5040927463107634
 20
-25.879212782118053
 30
0.0
 10
-3.5040927463107634
 20
17.747409396701386
 30
0.0
 10
-3.5040927463107634
 20
17.747409396701386
 30
0.0
 10
-3.5040927463107634
 20
18.032663302951388
 30
0.0
 10
-3.734914143880208
 20
18.262451171875
 30
0.0
 10
-4.0182732476128464
 20
18.262451171875
 30
0.0
 10
-4.3364278157552079
 20
18.262451171875
 30
0.0
 10
-4.5674214680989582
 20
18.032663302951388
 30
0.0
 10
-4.5674214680989582
 20
17.747409396701386
 30
0.0
 10
-4.5674214680989582
 20
17.747409396701386
 30
0.0
 10
-4.5674214680989582
 20
-25.879212782118053
 30
0.0
 10
-4.5674214680989582
 20
-25.879212782118053
 30
0.0
 10
-4.5674214680989582
 20
-25.879212782118053
 30
0.0
 10
-3.5040927463107634
 20
-25.879212782118053
 30
0.0
 10
-3.5040927463107634
 20
-25.879212782118053
 30
0.0
  0
SPLINE
  5
75
100
AcDbEntity
  8
LIVELLO_1
 62
     7
100
AcDbSpline
210
0.0
220
0.0
230
1.0
 70
     8
 71
     3
 72
    20
 73
    16
 74
     0
 42
0.00000001
 43
0.00000001
 40
0.0
 40
0.0
 40
0.0
 40
0.0
 40
1.0
 40
1.0
 40
1.0
 40
2.0
 40
2.0
 40
2.0
 40
3.0
 40
3.0
 40
3.0
 40
4.0
 40
4.0
 40
4.0
 40
5.0
 40
5.0
 40
5.0
 40
5.0
 10
2.1343227810329859
 20
-25.879212782118053
 30
0.0
 10
2.1343227810329859
 20
-25.879212782118053
 30
0.0
 10
2.1343227810329859
 20
17.747409396701386
 30
0.0
 10
2.1343227810329859
 20
17.747409396701386
 30
0.0
 10
2.1343227810329859
 20
18.032663302951388
 30
0.0
 10
1.903329128689236
 20
18.262451171875
 30
0.0
 10
1.6189364963107638
 20
18.262451171875
 30
0.0
 10
1.3018154568142359
 20
18.262451171875
 30
0.0
 10
1.070821804470486
 20
18.032663302951388
 30
0.0
 10
1.070821804470486
 20
17.747409396701386
 30
0.0
 10
1.070821804470486
 20
17.747409396701386
 30
0.0
 10
1.070821804470486
 20
-25.879212782118053
 30
0.0
 10
1.070821804470486
 20
-25.879212782118053
 30
0.0
 10
1.070821804470486
 20
-25.879212782118053
 30
0.0
 10
2.1343227810329859
 20
-25.879212782118053
 30
0.0
 10
2.1343227810329859
 20
-25.879212782118053
 30
0.0
  0
SPLINE
  5
74
100
AcDbEntity
  8
LIVELLO_1
 62
     7
100
AcDbSpline
210
0.0
220
0.0
230
1.0
 70
     8
 71
     3
 72
    20
 73
    16
 74
     0
 42
0.00000001
 43
0.00000001
 40
0.0
 40
0.0
 40
0.0
 40
0.0
 40
1.0
 40
1.0
 40
1.0
 40
2.0
 40
2.0
 40
2.0
 40
3.0
 40
3.0
 40
3.0
 40
4.0
 40
4.0
 40
4.0
 40
5.0
 40
5.0
 40
5.0
 40
5.0
 10
7.7725660536024295
 20
-25.879212782118053
 30
0.0
 10
7.7725660536024295
 20
-25.879212782118053
 30
0.0
 10
7.7725660536024295
 20
17.747409396701386
 30
0.0
 10
7.7725660536024295
 20
17.747409396701386
 30
0.0
 10
7.7725660536024295
 20
18.032663302951388
 30
0.0
 10
7.5438117133246525
 20
18.262451171875
 30
0.0
 10
7.2571797688802073
 20
18.262451171875
 30
0.0
 10
6.9402309841579859
 20
18.262451171875
 30
0.0
 10
6.7073425292968745
 20
18.032663302951388
 30
0.0
 10
6.7073425292968745
 20
17.747409396701386
 30
0.0
 10
6.7073425292968745
 20
17.747409396701386
 30
0.0
 10
6.7073425292968745
 20
-25.879212782118053
 30
0.0
 10
6.7073425292968745
 20
-25.879212782118053
 30
0.0
 10
6.7073425292968745
 20
-25.879212782118053
 30
0.0
 10
7.7725660536024295
 20
-25.879212782118053
 30
0.0
 10
7.7725660536024295
 20
-25.879212782118053
 30
0.0
  0
SPLINE
  5
73
100
AcDbEntity
  8
LIVELLO_1
 62
     7
100
AcDbSpline
210
0.0
220
0.0
230
1.0
 70
     8
 71
     3
 72
    20
 73
    16
 74
     0
 42
0.00000001
 43
0.00000001
 40
0.0
 40
0.0
 40
0.0
 40
0.0
 40
1.0
 40
1.0
 40
1.0
 40
2.0
 40
2.0
 40
2.0
 40
3.0
 40
3.0
 40
3.0
 40
4.0
 40
4.0
 40
4.0
 40
5.0
 40
5.0
 40
5.0
 40
5.0
 10
13.410809326171874
 20
-25.879212782118053
 30
0.0
 10
13.410809326171874
 20
-25.879212782118053
 30
0.0
 10
13.410809326171874
 20
17.747409396701386
 30
0.0
 10
13.410809326171874
 20
17.747409396701386
 30
0.0
 10
13.410809326171874
 20
18.032663302951388
 30
0.0
 10
13.178954399956597
 20
18.262451171875
 30
0.0
 10
12.895767550998263
 20
18.262451171875
 30
0.0
 10
12.576407199435764
 20
18.262451171875
 30
0.0
 10
12.346619330512151
 20
18.032663302951388
 30
0.0
 10
12.346619330512151
 20
17.747409396701386
 30
0.0
 10
12.346619330512151
 20
17.747409396701386
 30
0.0
 10
12.346619330512151
 20
-25.879212782118053
 30
0.0
 10
12.346619330512151
 20
-25.879212782118053
 30
0.0
 10
12.346619330512151
 20
-25.879212782118053
 30
0.0
 10
13.410809326171874
 20
-25.879212782118053
 30
0.0
 10
13.410809326171874
 20
-25.879212782118053
 30
0.0
  0
SPLINE
  5
72
100
AcDbEntity
  8
LIVELLO_1
 62
     7
100
AcDbSpline
210
0.0
220
0.0
230
1.0
 70
     8
 71
     3
 72
    20
 73
    16
 74
     0
 42
0.00000001
 43
0.00000001
 40
0.0
 40
0.0
 40
0.0
 40
0.0
 40
1.0
 40
1.0
 40
1.0
 40
2.0
 40
2.0
 40
2.0
 40
3.0
 40
3.0
 40
3.0
 40
4.0
 40
4.0
 40
4.0
 40
5.0
 40
5.0
 40
5.0
 40
5.0
 10
19.048019070095485
 20
-25.879212782118053
 30
0.0
 10
19.048019070095485
 20
-25.879212782118053
 30
0.0
 10
19.048019070095485
 20
17.747409396701386
 30
0.0
 10
19.048019070095485
 20
17.747409396701386
 30
0.0
 10
19.048019070095485
 20
18.032663302951388
 30
0.0
 10
18.817197672526039
 20
18.262451171875
 30
0.0
 10
18.53194376627604
 20
18.262451171875
 30
0.0
 10
18.213616943359373
 20
18.262451171875
 30
0.0
 10
17.984862603081595
 20
18.032663302951388
 30
0.0
 10
17.984862603081595
 20
17.747409396701386
 30
0.0
 10
17.984862603081595
 20
17.747409396701386
 30
0.0
 10
17.984862603081595
 20
-25.879212782118053
 30
0.0
 10
17.984862603081595
 20
-25.879212782118053
 30
0.0
 10
17.984862603081595
 20
-25.879212782118053
 30
0.0
 10
19.048019070095485
 20
-25.879212782118053
 30
0.0
 10
19.048019070095485
 20
-25.879212782118053
 30
0.0
  0
SPLINE
  5
71
100
AcDbEntity
  8
LIVELLO_1
 62
     7
100
AcDbSpline
210
0.0
220
0.0
230
1.0
 70
     8
 71
     3
 72
    20
 73
    16
 74
     0
 42
0.00000001
 43
0.00000001
 40
0.0
 40
0.0
 40
0.0
 40
0.0
 40
1.0
 40
1.0
 40
1.0
 40
2.0
 40
2.0
 40
2.0
 40
3.0
 40
3.0
 40
3.0
 40
4.0
 40
4.0
 40
4.0
 40
5.0
 40
5.0
 40
5.0
 40
5.0
 10
24.68660685221354
 20
-25.879212782118053
 30
0.0
 10
24.68660685221354
 20
-25.879212782118053
 30
0.0
 10
24.68660685221354
 20
17.747409396701386
 30
0.0
 10
24.68660685221354
 20
17.747409396701386
 30
0.0
 10
24.68660685221354
 20
18.032663302951388
 30
0.0
 10
24.455440945095482
 20
18.262451171875
 30
0.0
 10
24.169153510199649
 20
18.262451171875
 30
0.0
 10
23.851860215928816
 20
18.262451171875
 30
0.0
 10
23.621038818359374
 20
18.032663302951388
 30
0.0
 10
23.621038818359374
 20
17.747409396701386
 30
0.0
 10
23.621038818359374
 20
17.747409396701386
 30
0.0
 10
23.621038818359374
 20
-25.879212782118053
 30
0.0
 10
23.621038818359374
 20
-25.879212782118053
 30
0.0
 10
23.621038818359374
 20
-25.879212782118053
 30
0.0
 10
24.68660685221354
 20
-25.879212782118053
 30
0.0
 10
24.68660685221354
 20
-25.879212782118053
 30
0.0
  0
SPLINE
  5
70
100
AcDbEntity
  8
LIVELLO_1
 62
     7
100
AcDbSpline
210
0.0
220
0.0
230
1.0
 70
     8
 71
     3
 72
    20
 73
    16
 74
     0
 42
0.00000001
 43
0.00000001
 40
0.0
 40
0.0
 40
0.0
 40
0.0
 40
1.0
 40
1.0
 40
1.0
 40
2.0
 40
2.0
 40
2.0
 40
3.0
 40
3.0
 40
3.0
 40
4.0
 40
4.0
 40
4.0
 40
5.0
 40
5.0
 40
5.0
 40
5.0
 10
30.322783067491315
 20
-25.879212782118053
 30
0.0
 10
30.322783067491315
 20
-25.879212782118053
 30
0.0
 10
30.324850124782984
 20
17.747409396701386
 30
0.0
 10
30.324850124782984
 20
17.747409396701386
 30
0.0
 10
30.324850124782984
 20
18.032663302951388
 30
0.0
 10
30.093684217664929
 20
18.262451171875
 30
0.0
 10
29.807396782769093
 20
18.262451171875
 30
0.0
 10
29.490447998046871
 20
18.262451171875
 30
0.0
 10
29.259282090928817
 20
18.032663302951388
 30
0.0
 10
29.259282090928817
 20
17.747409396701386
 30
0.0
 10
29.259282090928817
 20
17.747409396701386
 30
0.0
 10
29.259282090928817
 20
-25.879212782118053
 30
0.0
 10
29.259282090928817
 20
-25.879212782118053
 30
0.0
 10
29.259282090928817
 20
-25.879212782118053
 30
0.0
 10
30.322783067491315
 20
-25.879212782118053
 30
0.0
 10
30.322783067491315
 20
-25.879212782118053
 30
0.0
  0
SPLINE
  5
6F
100
AcDbEntity
  8
LIVELLO_1
 62
     7
100
AcDbSpline
210
0.0
220
0.0
230
1.0
 70
     8
 71
     3
 72
    20
 73
    16
 74
     0
 42
0.00000001
 43
0.00000001
 40
0.0
 40
0.0
 40
0.0
 40
0.0
 40
1.0
 40
1.0
 40
1.0
 40
2.0
 40
2.0
 40
2.0
 40
3.0
 40
3.0
 40
3.0
 40
4.0
 40
4.0
 40
4.0
 40
5.0
 40
5.0
 40
5.0
 40
5.0
 10
35.961026340060762
 20
-25.879212782118053
 30
0.0
 10
35.961026340060762
 20
-25.879212782118053
 30
0.0
 10
35.961026340060762
 20
17.747409396701386
 30
0.0
 10
35.961026340060762
 20
17.747409396701386
 30
0.0
 10
35.961026340060762
 20
18.032663302951388
 30
0.0
 10
35.729171413845485
 20
18.262451171875
 30
0.0
 10
35.445640055338536
 20
18.262451171875
 30
0.0
 10
35.125590684678819
 20
18.262451171875
 30
0.0
 10
34.896491834852426
 20
18.032663302951388
 30
0.0
 10
34.896491834852426
 20
17.747409396701386
 30
0.0
 10
34.896491834852426
 20
17.747409396701386
 30
0.0
 10
34.896491834852426
 20
-25.879212782118053
 30
0.0
 10
34.896491834852426
 20
-25.879212782118053
 30
0.0
 10
34.896491834852426
 20
-25.879212782118053
 30
0.0
 10
35.961026340060762
 20
-25.879212782118053
 30
0.0
 10
35.961026340060762
 20
-25.879212782118053
 30
0.0
  0
SPLINE
  5
6E
100
AcDbEntity
  8
LIVELLO_1
 62
     7
100
AcDbSpline
210
0.0
220
0.0
230
1.0
 70
     8
 71
     3
 72
    20
 73
    16
 74
     0
 42
0.00000001
 43
0.00000001
 40
0.0
 40
0.0
 40
0.0
 40
0.0
 40
1.0
 40
1.0
 40
1.0
 40
2.0
 40
2.0
 40
2.0
 40
3.0
 40
3.0
 40
3.0
 40
4.0
 40
4.0
 40
4.0
 40
5.0
 40
5.0
 40
5.0
 40
5.0
 10
41.598236083984368
 20
-25.879212782118053
 30
0.0
 10
41.598236083984368
 20
-25.879212782118053
 30
0.0
 10
41.598236083984368
 20
17.747409396701386
 30
0.0
 10
41.598236083984368
 20
17.747409396701386
 30
0.0
 10
41.598236083984368
 20
18.032663302951388
 30
0.0
 10
41.367414686414925
 20
18.262451171875
 30
0.0
 10
41.084227837456595
 20
18.262451171875
 30
0.0
 10
40.763833957248259
 20
18.262451171875
 30
0.0
 10
40.535079616970485
 20
18.032663302951388
 30
0.0
 10
40.535079616970485
 20
17.747409396701386
 30
0.0
 10
40.535079616970485
 20
17.747409396701386
 30
0.0
 10
40.535079616970485
 20
-25.879212782118053
 30
0.0
 10
40.535079616970485
 20
-25.879212782118053
 30
0.0
 10
40.535079616970485
 20
-25.879212782118053
 30
0.0
 10
41.598236083984368
 20
-25.879212782118053
 30
0.0
 10
41.598236083984368
 20
-25.879212782118053
 30
0.0
  0
SPLINE
  5
6D
100
AcDbEntity
  8
LIVELLO_1
 62
     7
100
AcDbSpline
210
0.0
220
0.0
230
1.0
 70
     8
 71
     3
 72
    20
 73
    16
 74
     0
 42
0.00000001
 43
0.00000001
 40
0.0
 40
0.0
 40
0.0
 40
0.0
 40
1.0
 40
1.0
 40
1.0
 40
2.0
 40
2.0
 40
2.0
 40
3.0
 40
3.0
 40
3.0
 40
4.0
 40
4.0
 40
4.0
 40
5.0
 40
5.0
 40
5.0
 40
5.0
 10
47.236823866102426
 20
-25.879212782118053
 30
0.0
 10
47.236823866102426
 20
-25.879212782118053
 30
0.0
 10
47.236823866102426
 20
17.747409396701386
 30
0.0
 10
47.236823866102426
 20
17.747409396701386
 30
0.0
 10
47.236823866102426
 20
18.032663302951388
 30
0.0
 10
47.005657958984372
 20
18.262451171875
 30
0.0
 10
46.719370524088539
 20
18.262451171875
 30
0.0
 10
46.404144287109368
 20
18.262451171875
 30
0.0
 10
46.171255832248256
 20
18.032663302951388
 30
0.0
 10
46.171255832248256
 20
17.747409396701386
 30
0.0
 10
46.171255832248256
 20
17.747409396701386
 30
0.0
 10
46.171255832248256
 20
-25.879212782118053
 30
0.0
 10
46.171255832248256
 20
-25.879212782118053
 30
0.0
 10
46.171255832248256
 20
-25.879212782118053
 30
0.0
 10
47.236823866102426
 20
-25.879212782118053
 30
0.0
 10
47.236823866102426
 20
-25.879212782118053
 30
0.0
  0
SPLINE
  5
6C
100
AcDbEntity
  8
LIVELLO_1
 62
     7
100
AcDbSpline
210
0.0
220
0.0
230
1.0
 70
     8
 71
     3
 72
    20
 73
    16
 74
     0
 42
0.00000001
 43
0.00000001
 40
0.0
 40
0.0
 40
0.0
 40
0.0
 40
1.0
 40
1.0
 40
1.0
 40
2.0
 40
2.0
 40
2.0
 40
3.0
 40
3.0
 40
3.0
 40
4.0
 40
4.0
 40
4.0
 40
5.0
 40
5.0
 40
5.0
 40
5.0
 10
52.875067138671874
 20
-25.879212782118053
 30
0.0
 10
52.875067138671874
 20
-25.879212782118053
 30
0.0
 10
52.875067138671874
 20
12.091596137152777
 30
0.0
 10
52.875067138671874
 20
12.091596137152777
 30
0.0
 10
52.875067138671874
 20
12.376850043402778
 30
0.0
 10
52.642867702907978
 20
12.608704969618055
 30
0.0
 10
52.359680853949648
 20
12.608704969618055
 30
0.0
 10
52.040320502387146
 20
12.608704969618055
 30
0.0
 10
51.808465576171869
 20
12.376850043402778
 30
0.0
 10
51.808465576171869
 20
12.091596137152777
 30
0.0
 10
51.808465576171869
 20
12.091596137152777
 30
0.0
 10
51.808465576171869
 20
-25.879212782118053
 30
0.0
 10
51.808465576171869
 20
-25.879212782118053
 30
0.0
 10
51.808465576171869
 20
-25.879212782118053
 30
0.0
 10
52.875067138671874
 20
-25.879212782118053
 30
0.0
 10
52.875067138671874
 20
-25.879212782118053
 30
0.0
  0
SPLINE
  5
6B
100
AcDbEntity
  8
LIVELLO_1
 62
     7
100
AcDbSpline
210
0.0
220
0.0
230
1.0
 70
     8
 71
     3
 72
    20
 73
    16
 74
     0
 42
0.00000001
 43
0.00000001
 40
0.0
 40
0.0
 40
0.0
 40
0.0
 40
1.0
 40
1.0
 40
1.0
 40
2.0
 40
2.0
 40
2.0
 40
3.0
 40
3.0
 40
3.0
 40
4.0
 40
4.0
 40
4.0
 40
5.0
 40
5.0
 40
5.0
 40
5.0
 10
58.512276882595479
 20
-23.682619900173609
 30
0.0
 10
58.512276882595479
 20
-23.682619900173609
 30
0.0
 10
58.512276882595479
 20
12.091596137152777
 30
0.0
 10
58.512276882595479
 20
12.091596137152777
 30
0.0
 10
58.512276882595479
 20
12.376850043402778
 30
0.0
 10
58.281455485026036
 20
12.608704969618055
 30
0.0
 10
57.995857069227426
 20
12.608704969618055
 30
0.0
 10
57.677874755859371
 20
12.608704969618055
 30
0.0
 10
57.448775906032978
 20
12.376850043402778
 30
0.0
 10
57.448775906032978
 20
12.091596137152777
 30
0.0
 10
57.448775906032978
 20
12.091596137152777
 30
0.0
 10
57.448775906032978
 20
-23.682619900173609
 30
0.0
 10
57.448775906032978
 20
-23.682619900173609
 30
0.0
 10
57.448775906032978
 20
-23.682619900173609
 30
0.0
 10
58.512276882595479
 20
-23.682619900173609
 30
0.0
 10
58.512276882595479
 20
-23.682619900173609
 30
0.0
  0
MTEXT
  5
6A
100
AcDbEntity
  8
LIVELLO_1
 62
     7
100
AcDbMText
 10
-92.26939
 20
-2.725677
 30
0.0
 40
7.335725
 41
0.0
 71
     1
 72
     2
  1
\fMyriad Roman|b0|i0;\H7.3357;\C7;\U+0031\U+0035\U+0033
  7
STD
210
0.0
220
0.0
230
1.0
 73
     1
 44
1.0
  0
LINE
  5
69
100
AcDbEntity
  8
LIVELLO_1
 62
     7
100
AcDbLine
 10
-87.973011
 20
-36.281334
 30
0.0
 11
-80.330067
 21
-36.281334
 31
0.0
  0
MTEXT
  5
68
100
AcDbEntity
  8
LIVELLO_1
 62
     7
100
AcDbMText
 10
-85.779174
 20
-39.073966
 30
0.0
 40
7.705952
 41
0.0
 71
     1
 72
     2
  1
\fMyriad Roman|b0|i0;\H7.7060;\C7;\U+0033
  7
STD
210
0.0
220
0.0
230
1.0
 73
     1
 44
1.0
  0
POLYLINE
  5
5E
100
AcDbEntity
  8
LIVELLO_1
 62
     7
100
AcDb2dPolyline
 66
     1
 10
0.0
 20
0.0
 30
0.0
 70
     1
  0
VERTEX
  5
5F
100
AcDbEntity
  8
LIVELLO_1
 62
     7
100
AcDbVertex
100
AcDb2dVertex
 10
74.673909
 20
-24.575589
 30
0.0
  0
VERTEX
  5
60
100
AcDbEntity
  8
LIVELLO_1
 62
     7
100
AcDbVertex
100
AcDb2dVertex
 10
70.148087
 20
-24.575589
 30
0.0
  0
VERTEX
  5
61
100
AcDbEntity
  8
LIVELLO_1
 62
     7
100
AcDbVertex
100
AcDb2dVertex
 10
70.148087
 20
-25.538148
 30
0.0
  0
VERTEX
  5
62
100
AcDbEntity
  8
LIVELLO_1
 62
     7
100
AcDbVertex
100
AcDb2dVertex
 10
73.712038
 20
-25.538148
 30
0.0
  0
VERTEX
  5
63
100
AcDbEntity
  8
LIVELLO_1
 62
     7
100
AcDbVertex
100
AcDb2dVertex
 10
73.712038
 20
-35.478627
 30
0.0
  0
VERTEX
  5
64
100
AcDbEntity
  8
LIVELLO_1
 62
     7
100
AcDbVertex
100
AcDb2dVertex
 10
76.961797
 20
-35.478627
 30
0.0
  0
VERTEX
  5
65
100
AcDbEntity
  8
LIVELLO_1
 62
     7
100
AcDbVertex
100
AcDb2dVertex
 10
77.924701
 20
-34.515723
 30
0.0
  0
VERTEX
  5
66
100
AcDbEntity
  8
LIVELLO_1
 62
     7
100
AcDbVertex
100
AcDb2dVertex
 10
74.673909
 20
-34.515723
 30
0.0
  0
SEQEND
  5
67
100
AcDbEntity
  8
LIVELLO_1
 62
     7
  0
POLYLINE
  5
58
100
AcDbEntity
  8
LIVELLO_1
 62
     7
100
AcDb2dPolyline
 66
     1
 10
0.0
 20
0.0
 30
0.0
 70
     1
  0
VERTEX
  5
59
100
AcDbEntity
  8
LIVELLO_1
 62
     7
100
AcDbVertex
100
AcDb2dVertex
 10
92.032022
 20
-14.633388
 30
0.0
  0
VERTEX
  5
5A
100
AcDbEntity
  8
LIVELLO_1
 62
     7
100
AcDbVertex
100
AcDb2dVertex
 10
75.576179
 20
-14.633388
 30
0.0
  0
VERTEX
  5
5B
100
AcDbEntity
  8
LIVELLO_1
 62
     7
100
AcDbVertex
100
AcDb2dVertex
 10
75.576179
 20
-34.515723
 30
0.0
  0
VERTEX
  5
5C
100
AcDbEntity
  8
LIVELLO_1
 62
     7
100
AcDbVertex
100
AcDb2dVertex
 10
87.638837
 20
-34.515723
 30
0.0
  0
SEQEND
  5
5D
100
AcDbEntity
  8
LIVELLO_1
 62
     7
  0
POLYLINE
  5
4E
100
AcDbEntity
  8
LIVELLO_1
 62
     7
100
AcDb2dPolyline
 66
     1
 10
0.0
 20
0.0
 30
0.0
 70
     1
  0
VERTEX
  5
4F
100
AcDbEntity
  8
LIVELLO_1
 62
     7
100
AcDbVertex
100
AcDb2dVertex
 10
-54.556791
 20
-24.575589
 30
0.0
  0
VERTEX
  5
50
100
AcDbEntity
  8
LIVELLO_1
 62
     7
100
AcDbVertex
100
AcDb2dVertex
 10
-50.031141
 20
-24.575589
 30
0.0
  0
VERTEX
  5
51
100
AcDbEntity
  8
LIVELLO_1
 62
     7
100
AcDbVertex
100
AcDb2dVertex
 10
-50.031141
 20
-25.538148
 30
0.0
  0
VERTEX
  5
52
100
AcDbEntity
  8
LIVELLO_1
 62
     7
100
AcDbVertex
100
AcDb2dVertex
 10
-53.593886
 20
-25.538148
 30
0.0
  0
VERTEX
  5
53
100
AcDbEntity
  8
LIVELLO_1
 62
     7
100
AcDbVertex
100
AcDb2dVertex
 10
-53.593886
 20
-35.478627
 30
0.0
  0
VERTEX
  5
54
100
AcDbEntity
  8
LIVELLO_1
 62
     7
100
AcDbVertex
100
AcDb2dVertex
 10
-56.84175
 20
-35.478627
 30
0.0
  0
VERTEX
  5
55
100
AcDbEntity
  8
LIVELLO_1
 62
     7
100
AcDbVertex
100
AcDb2dVertex
 10
-57.807583
 20
-34.515723
 30
0.0
  0
VERTEX
  5
56
100
AcDbEntity
  8
LIVELLO_1
 62
     7
100
AcDbVertex
100
AcDb2dVertex
 10
-54.556791
 20
-34.515723
 30
0.0
  0
SEQEND
  5
57
100
AcDbEntity
  8
LIVELLO_1
 62
     7
  0
POLYLINE
  5
48
100
AcDbEntity
  8
LIVELLO_1
 62
     7
100
AcDb2dPolyline
 66
     1
 10
0.0
 20
0.0
 30
0.0
 70
     1
  0
VERTEX
  5
49
100
AcDbEntity
  8
LIVELLO_1
 62
     7
100
AcDbVertex
100
AcDb2dVertex
 10
-69.671286
 20
-14.633388
 30
0.0
  0
VERTEX
  5
4A
100
AcDbEntity
  8
LIVELLO_1
 62
     7
100
AcDbVertex
100
AcDb2dVertex
 10
-55.459061
 20
-14.633388
 30
0.0
  0
VERTEX
  5
4B
100
AcDbEntity
  8
LIVELLO_1
 62
     7
100
AcDbVertex
100
AcDb2dVertex
 10
-55.459061
 20
-34.515723
 30
0.0
  0
VERTEX
  5
4C
100
AcDbEntity
  8
LIVELLO_1
 62
     7
100
AcDbVertex
100
AcDb2dVertex
 10
-71.839112
 20
-34.515723
 30
0.0
  0
SEQEND
  5
4D
100
AcDbEntity
  8
LIVELLO_1
 62
     7
  0
MTEXT
  5
47
100
AcDbEntity
  8
LIVELLO_1
 62
     7
100
AcDbMText
 10
-0.291024
 20
-46.273789
 30
0.0
 40
7.395631
 41
0.0
 71
     1
 72
     2
  1
\fMyriad Roman|b0|i0;\H7.3956;\C7;\U+0033\U+0035\U+0030
  7
STD
210
0.0
220
0.0
230
1.0
 73
     1
 44
1.0
  0
LINE
  5
46
100
AcDbEntity
  8
LIVELLO_1
 62
     7
100
AcDbLine
 10
-71.729386
 20
-128.988509
 30
0.0
 11
-64.086441
 21
-128.988509
 31
0.0
  0
LINE
  5
45
100
AcDbEntity
  8
LIVELLO_1
 62
     7
100
AcDbLine
 10
-67.907914
 20
-101.309234
 30
0.0
 11
-67.907914
 21
-128.988509
 31
0.0
  0
LINE
  5
44
100
AcDbEntity
  8
LIVELLO_1
 62
     7
100
AcDbLine
 10
-67.907914
 20
-62.63218
 30
0.0
 11
-67.907914
 21
-88.888976
 31
0.0
  0
LINE
  5
43
100
AcDbEntity
  8
LIVELLO_1
 62
     7
100
AcDbLine
 10
-71.729386
 20
-62.63218
 30
0.0
 11
-64.086441
 21
-62.63218
 31
0.0
  0
LINE
  5
42
100
AcDbEntity
  8
LIVELLO_1
 62
     7
100
AcDbLine
 10
-2.122437
 20
-50.930569
 30
0.0
 11
-56.84175
 21
-50.930569
 31
0.0
  0
LINE
  5
41
100
AcDbEntity
  8
LIVELLO_1
 62
     7
100
AcDbLine
 10
-56.987478
 20
-54.75118
 30
0.0
 11
-56.987478
 21
-47.110303
 31
0.0
  0
LINE
  5
40
100
AcDbEntity
  8
LIVELLO_1
 62
     7
100
AcDbLine
 10
20.580742
 20
-50.930569
 30
0.0
 11
75.300916
 21
-50.930569
 31
0.0
  0
LINE
  5
3F
100
AcDbEntity
  8
LIVELLO_1
 62
     7
100
AcDbLine
 10
75.44561
 20
-54.75118
 30
0.0
 11
75.44561
 21
-47.110303
 31
0.0
  0
MTEXT
  5
3E
100
AcDbEntity
  8
LIVELLO_1
 62
     7
100
AcDbMText
 10
-77.102529
 20
-91.121108
 30
0.0
 40
7.746932
 41
0.0
 71
     1
 72
     2
  1
\fMyriad Roman|b0|i0;\H7.7469;\C7;\U+0031\U+0037\U+0036
  7
STD
210
0.0
220
0.0
230
1.0
 73
     1
 44
1.0
  0
CIRCLE
  5
3D
100
AcDbEntity
  8
LIVELLO_1
 62
     7
100
AcDbCircle
 10
8.827799
 20
-121.540385
 30
0.0
 40
1.775774
  0
CIRCLE
  5
3C
100
AcDbEntity
  8
LIVELLO_1
 62
     7
100
AcDbCircle
 10
8.827799
 20
-121.539524
 30
0.0
 40
0.9412
  0
CIRCLE
  5
3B
100
AcDbEntity
  8
LIVELLO_1
 62
     7
100
AcDbCircle
 10
8.827799
 20
-69.862575
 30
0.0
 40
1.775774
  0
CIRCLE
  5
3A
100
AcDbEntity
  8
LIVELLO_1
 62
     7
100
AcDbCircle
 10
8.827799
 20
-69.861713
 30
0.0
 40
0.9412
  0
CIRCLE
  5
39
100
AcDbEntity
  8
LIVELLO_1
 62
     7
100
AcDbCircle
 10
67.817135
 20
-69.862575
 30
0.0
 40
1.775774
  0
CIRCLE
  5
38
100
AcDbEntity
  8
LIVELLO_1
 62
     7
100
AcDbCircle
 10
67.817135
 20
-69.861713
 30
0.0
 40
0.9412
  0
CIRCLE
  5
37
100
AcDbEntity
  8
LIVELLO_1
 62
     7
100
AcDbCircle
 10
-50.161538
 20
-121.540385
 30
0.0
 40
1.775774
  0
CIRCLE
  5
36
100
AcDbEntity
  8
LIVELLO_1
 62
     7
100
AcDbCircle
 10
-50.161538
 20
-121.539524
 30
0.0
 40
0.9412
  0
CIRCLE
  5
35
100
AcDbEntity
  8
LIVELLO_1
 62
     7
100
AcDbCircle
 10
-50.161538
 20
-69.862575
 30
0.0
 40
1.775774
  0
CIRCLE
  5
34
100
AcDbEntity
  8
LIVELLO_1
 62
     7
100
AcDbCircle
 10
-50.161538
 20
-69.861713
 30
0.0
 40
0.9412
  0
CIRCLE
  5
33
100
AcDbEntity
  8
LIVELLO_1
 62
     7
100
AcDbCircle
 10
67.817135
 20
-121.540385
 30
0.0
 40
1.775774
  0
CIRCLE
  5
32
100
AcDbEntity
  8
LIVELLO_1
 62
     7
100
AcDbCircle
 10
67.817135
 20
-121.539524
 30
0.0
 40
0.9412
  0
SPLINE
  5
31
100
AcDbEntity
  8
LIVELLO_1
 62
     7
100
AcDbSpline
210
0.0
220
0.0
230
1.0
 70
     8
 71
     3
 72
    29
 73
    25
 74
     0
 42
0.00000001
 43
0.00000001
 40
0.0
 40
0.0
 40
0.0
 40
0.0
 40
1.0
 40
1.0
 40
1.0
 40
2.0
 40
2.0
 40
2.0
 40
3.0
 40
3.0
 40
3.0
 40
4.0
 40
4.0
 40
4.0
 40
5.0
 40
5.0
 40
5.0
 40
6.0
 40
6.0
 40
6.0
 40
7.0
 40
7.0
 40
7.0
 40
8.0
 40
8.0
 40
8.0
 40
8.0
 10
-46.755716281467009
 20
-74.615256076388889
 30
0.0
 10
-46.755716281467009
 20
-73.871804470486111
 30
0.0
 10
-46.150068495008675
 20
-73.268568250868043
 30
0.0
 10
-45.405927870008675
 20
-73.268568250868043
 30
0.0
 10
-45.405927870008675
 20
-73.268568250868043
 30
0.0
 10
63.063592529296869
 20
-73.268568250868043
 30
0.0
 10
63.063592529296869
 20
-73.268568250868043
 30
0.0
 10
63.807733154296869
 20
-73.268568250868043
 30
0.0
 10
64.411313883463535
 20
-73.871804470486111
 30
0.0
 10
64.411313883463535
 20
-74.615256076388889
 30
0.0
 10
64.411313883463535
 20
-74.615256076388889
 30
0.0
 10
64.411313883463535
 20
-116.7839138454861
 30
0.0
 10
64.411313883463535
 20
-116.7839138454861
 30
0.0
 10
64.411313883463535
 20
-117.52908799913193
 30
0.0
 10
63.807733154296869
 20
-118.1326687282986
 30
0.0
 10
63.063592529296869
 20
-118.1326687282986
 30
0.0
 10
63.063592529296869
 20
-118.1326687282986
 30
0.0
 10
-45.405927870008675
 20
-118.1326687282986
 30
0.0
 10
-45.405927870008675
 20
-118.1326687282986
 30
0.0
 10
-46.150068495008675
 20
-118.1326687282986
 30
0.0
 10
-46.755716281467009
 20
-117.52908799913193
 30
0.0
 10
-46.755716281467009
 20
-116.7839138454861
 30
0.0
 10
-46.755716281467009
 20
-116.7839138454861
 30
0.0
 10
-46.755716281467009
 20
-74.615256076388889
 30
0.0
 10
-46.755716281467009
 20
-74.615256076388889
 30
0.0
  0
SPLINE
  5
30
100
AcDbEntity
  8
LIVELLO_1
 62
     7
100
AcDbSpline
210
0.0
220
0.0
230
1.0
 70
     8
 71
     3
 72
    29
 73
    25
 74
     0
 42
0.00000001
 43
0.00000001
 40
0.0
 40
0.0
 40
0.0
 40
0.0
 40
1.0
 40
1.0
 40
1.0
 40
2.0
 40
2.0
 40
2.0
 40
3.0
 40
3.0
 40
3.0
 40
4.0
 40
4.0
 40
4.0
 40
5.0
 40
5.0
 40
5.0
 40
6.0
 40
6.0
 40
6.0
 40
7.0
 40
7.0
 40
7.0
 40
8.0
 40
8.0
 40
8.0
 40
8.0
 10
-53.567359076605896
 20
-67.803613281249994
 30
0.0
 10
-53.567359076605896
 20
-67.05843912760416
 30
0.0
 10
-52.963778347439231
 20
-66.454858398437494
 30
0.0
 10
-52.219637722439231
 20
-66.454858398437494
 30
0.0
 10
-52.219637722439231
 20
-66.454858398437494
 30
0.0
 10
69.877302381727418
 20
-66.454858398437494
 30
0.0
 10
69.877302381727418
 20
-66.454858398437494
 30
0.0
 10
70.621443006727418
 20
-66.454858398437494
 30
0.0
 10
71.225023735894084
 20
-67.05843912760416
 30
0.0
 10
71.225023735894084
 20
-67.803613281249994
 30
0.0
 10
71.225023735894084
 20
-67.803613281249994
 30
0.0
 10
71.225023735894084
 20
-123.59762369791666
 30
0.0
 10
71.225023735894084
 20
-123.59762369791666
 30
0.0
 10
71.225023735894084
 20
-124.34279785156249
 30
0.0
 10
70.621443006727418
 20
-124.94637858072916
 30
0.0
 10
69.877302381727418
 20
-124.94637858072916
 30
0.0
 10
69.877302381727418
 20
-124.94637858072916
 30
0.0
 10
-52.219637722439231
 20
-124.94637858072916
 30
0.0
 10
-52.219637722439231
 20
-124.94637858072916
 30
0.0
 10
-52.963778347439231
 20
-124.94637858072916
 30
0.0
 10
-53.567359076605896
 20
-124.34279785156249
 30
0.0
 10
-53.567359076605896
 20
-123.59762369791666
 30
0.0
 10
-53.567359076605896
 20
-123.59762369791666
 30
0.0
 10
-53.567359076605896
 20
-67.803613281249994
 30
0.0
 10
-53.567359076605896
 20
-67.803613281249994
 30
0.0
  0
SPLINE
  5
2F
100
AcDbEntity
  8
LIVELLO_1
 62
     7
100
AcDbSpline
210
0.0
220
0.0
230
1.0
 70
     8
 71
     3
 72
    29
 73
    25
 74
     0
 42
0.00000001
 43
0.00000001
 40
0.0
 40
0.0
 40
0.0
 40
0.0
 40
1.0
 40
1.0
 40
1.0
 40
2.0
 40
2.0
 40
2.0
 40
3.0
 40
3.0
 40
3.0
 40
4.0
 40
4.0
 40
4.0
 40
5.0
 40
5.0
 40
5.0
 40
6.0
 40
6.0
 40
6.0
 40
7.0
 40
7.0
 40
7.0
 40
8.0
 40
8.0
 40
8.0
 40
8.0
 10
-55.095603434244786
 20
-62.632180447048604
 30
0.0
 10
-55.095603434244786
 20
-62.632180447048604
 30
0.0
 10
72.753268093532981
 20
-62.632180447048604
 30
0.0
 10
72.753268093532981
 20
-62.632180447048604
 30
0.0
 10
74.018996175130198
 20
-62.632180447048604
 30
0.0
 10
75.044256591796866
 20
-63.66088595920138
 30
0.0
 10
75.044256591796866
 20
-64.925236002604166
 30
0.0
 10
75.044256591796866
 20
-64.925236002604166
 30
0.0
 10
75.044256591796866
 20
-126.47358940972221
 30
0.0
 10
75.044256591796866
 20
-126.47358940972221
 30
0.0
 10
75.044256591796866
 20
-127.74035101996526
 30
0.0
 10
74.018996175130198
 20
-128.76664496527778
 30
0.0
 10
72.753268093532981
 20
-128.76664496527778
 30
0.0
 10
72.753268093532981
 20
-128.76664496527778
 30
0.0
 10
-55.095603434244786
 20
-128.76664496527778
 30
0.0
 10
-55.095603434244786
 20
-128.76664496527778
 30
0.0
 10
-56.360297987196176
 20
-128.76664496527778
 30
0.0
 10
-57.388831244574646
 20
-127.74035101996526
 30
0.0
 10
-57.388831244574646
 20
-126.47358940972221
 30
0.0
 10
-57.388831244574646
 20
-126.47358940972221
 30
0.0
 10
-57.388831244574646
 20
-64.925236002604166
 30
0.0
 10
-57.388831244574646
 20
-64.925236002604166
 30
0.0
 10
-57.388831244574646
 20
-63.66088595920138
 30
0.0
 10
-56.360297987196176
 20
-62.632180447048604
 30
0.0
 10
-55.095603434244786
 20
-62.632180447048604
 30
0.0
  0
HATCH
  5
2E
100
AcDbEntity
  8
LIVELLO_1
 62
     7
100
AcDbHatch
 10
0.0
 20
0.0
 30
0.0
210
0.0
220
0.0
230
1.0
  2
SOLID
 70
     1
 71
     0
 91
        1
 92
        3
 72
     0
 73
     1
 93
        4
 10
30.991131591796872
 20
113.27318929036457
 10
33.671071370442704
 20
115.05929904513887
 10
30.991131591796872
 20
107.91107042100694
 10
28.308780246310761
 20
115.05929904513887
 97
        0
 75
     2
 76
     1
 98
        1
 10
0.0
 20
0.0
  0
HATCH
  5
2D
100
AcDbEntity
  8
LIVELLO_1
 62
     7
100
AcDbHatch
 10
0.0
 20
0.0
 30
0.0
210
0.0
220
0.0
230
1.0
  2
SOLID
 70
     1
 71
     0
 91
        1
 92
        3
 72
     0
 73
     1
 93
        4
 10
31.100685628255206
 20
95.265158420138874
 10
28.337719048394096
 20
93.42358262803819
 10
31.100685628255206
 20
100.79143608940971
 10
33.862963189019091
 20
93.42358262803819
 97
        0
 75
     2
 76
     1
 98
        1
 10
0.0
 20
0.0
  0
MTEXT
  5
2C
100
AcDbEntity
  8
LIVELLO_1
 62
     7
100
AcDbMText
 10
32.522821
 20
128.191336
 30
0.0
 40
6.451996
 41
0.0
 71
     1
 72
     2
  1
\fArial Narrow|b0|i0;\H6.4520;\C7;\U+0035\U+002D\U+0034\U+0038
  7
STD
210
0.0
220
0.0
230
1.0
 73
     1
 44
1.0
  0
ENDBLK
  5
BB
100
AcDbEntity
  8
LIVELLO_1
100
AcDbBlockEnd
  0
ENDSEC
  0
SECTION
  2
ENTITIES
  0
INSERT
  5
2A
100
AcDbEntity
  8
LIVELLO_1
 62
     7
100
AcDbBlockReference
  2
AI9-BLK1
 10
100.160897
 20
152.823058
 30
0.0
  0
ENDSEC
  0
SECTION
  2
OBJECTS
  0
DICTIONARY
  5
19
100
AcDbDictionary
280
     0
281
     1
  3
ACAD_GROUP
350
1A
  3
ACAD_MLINESTYLE
350
1B
  3
ACAD_LAYOUT
350
1E
  3
ACAD_PLOTSETTINGS
350
22
  3
ACAD_PLOTSTYLENAME
350
1F
  3
ACAD_WIPEOUT_VARS
350
23
  0
DICTIONARY
  5
1A
102
{ACAD_REACTORS
330
19
102
}
100
AcDbDictionary
280
     0
281
     1
  0
DICTIONARY
  5
1B
102
{ACAD_REACTORS
330
19
102
}
100
AcDbDictionary
280
     0
281
     1
  3
Standard
350
1C
  0
MLINESTYLE
  5
1C
102
{ACAD_REACTORS
330
1B
102
}
100
AcDbMlineStyle
  2
Standard
 70
     0
  3

 62
     0
 51
90.0
 52
90.0
 71
     2
 49
0.5
 62
   256
  6
ByLayer
 49
-0.5
 62
   256
  6
ByLayer
  0
ACDBDICTIONARYWDFLT
  5
1F
102
{ACAD_REACTORS
330
19
102
}
100
AcDbDictionary
281
     1
  3
Normal
350
1D
100
AcDbDictionaryWithDefault
340
1D
  0
ACDBPLACEHOLDER
  5
1D
102
{ACAD_REACTORS
330
1F
102
}
  0
LAYOUT
  5
20
102
{ACAD_REACTORS
330
1E
102
}
100
AcDbPlotSettings
  1

  2

  4

  6

 40
0.0
 41
0.0
 42
0.0
 43
0.0
 44
0.0
 45
0.0
 46
0.0
 47
0.0
 48
0.0
 49
0.0
140
0.0
141
0.0
142
1.0
143
1.0
 70
  1024
 72
     0
 73
     0
 74
     0
  7

 75
     0
147
1.0
148
0.0
149
0.0
100
AcDbLayout
  1
Model
 70
     0
 71
     0
 10
0.0
 20
0.0
 11
0.0
 21
0.0
 12
0.0
 22
0.0
 32
0.0
 14
0.0
 24
0.0
 34
0.0
 15
0.0
 25
0.0
 35
0.0
146
0.0
 13
0.0
 23
0.0
 33
0.0
 16
0.0
 26
0.0
 36
0.0
 17
0.0
 27
0.0
 37
0.0
 76
     0
330
A
331
0
345
0
346
0
  0
LAYOUT
  5
21
102
{ACAD_REACTORS
330
1E
102
}
100
AcDbPlotSettings
  1

  2

  4

  6

 40
0.0
 41
0.0
 42
0.0
 43
0.0
 44
0.0
 45
0.0
 46
0.0
 47
0.0
 48
0.0
 49
0.0
140
0.0
141
0.0
142
1.0
143
1.0
 70
     0
 72
     0
 73
     0
 74
     0
  7

 75
     0
147
1.0
148
0.0
149
0.0
100
AcDbLayout
  1
Layout1
 70
     0
 71
     0
 10
0.0
 20
0.0
 11
0.0
 21
0.0
 12
0.0
 22
0.0
 32
0.0
 14
0.0
 24
0.0
 34
0.0
 15
0.0
 25
0.0
 35
0.0
146
0.0
 13
0.0
 23
0.0
 33
0.0
 16
0.0
 26
0.0
 36
0.0
 17
0.0
 27
0.0
 37
0.0
 76
     0
330
B
331
0
345
0
346
0
  0
DICTIONARY
  5
1E
102
{ACAD_REACTORS
330
19
102
}
100
AcDbDictionary
280
     0
281
     1
  3
Layout1
350
21
  3
Model
350
20
  0
DICTIONARY
  5
22
102
{ACAD_REACTORS
330
19
102
}
100
AcDbDictionary
280
     0
281
     1
  0
WIPEOUTVARIABLES
  5
23
100
AcDbWipeoutVariables
 70
     1
  0
ENDSEC
  0
EOF
