  0
SECTION
  2
HEADER
  9
$ACADVER
  1
AC1015
  9
$ACADMAINTVER
 70
     6
  9
$DWGCODEPAGE
  3
ANSI_932
  9
$INSBASE
 10
0.0
 20
0.0
 30
0.0
  9
$EXTMIN
 10
38.85172
 20
56.537807
 30
1.000000E+20
  9
$EXTMAX
 10
156.502764
 20
257.651457
 30
-1.000000E+20
  9
$LIMMIN
 10
38.85172
 20
56.537807
  9
$LIMMAX
 10
156.502764
 20
257.651457
  9
$ORTHOMODE
 70
     0
  9
$REGENMODE
 70
     1
  9
$FILLMODE
 70
     1
  9
$QTEXTMODE
 70
     0
  9
$MIRRTEXT
 70
     1
  9
$LTSCALE
 40
1.0
  9
$ATTMODE
 70
     1
  9
$TEXTSIZE
 40
0.2
  9
$TRACEWID
 40
0.05
  9
$TEXTSTYLE
  7
Standard
  9
$CLAYER
  8
0
  9
$CELTYPE
  6
Continuous
  9
$CECOLOR
 62
   256
  9
$CELTSCALE
 40
1.0
  9
$DISPSILH
 70
     0
  9
$DIMSCALE
 40
1.0
  9
$DIMASZ
 40
0.18
  9
$DIMEXO
 40
0.0625
  9
$DIMDLI
 40
0.38
  9
$DIMRND
 40
0.0
  9
$DIMDLE
 40
0.0
  9
$DIMEXE
 40
0.18
  9
$DIMTP
 40
0.0
  9
$DIMTM
 40
0.0
  9
$DIMTXT
 40
0.18
  9
$DIMCEN
 40
0.09
  9
$DIMTSZ
 40
0.0
  9
$DIMTOL
 70
     0
  9
$DIMLIM
 70
     0
  9
$DIMTIH
 70
     1
  9
$DIMTOH
 70
     1
  9
$DIMSE1
 70
     0
  9
$DIMSE2
 70
     0
  9
$DIMTAD
 70
     0
  9
$DIMZIN
 70
     0
  9
$DIMBLK
  1

  9
$DIMASO
 70
     1
  9
$DIMSHO
 70
     1
  9
$DIMPOST
  1

  9
$DIMAPOST
  1

  9
$DIMALT
 70
     0
  9
$DIMALTD
 70
     2
  9
$DIMALTF
 40
25.4
  9
$DIMLFAC
 40
1.0
  9
$DIMTOFL
 70
     0
  9
$DIMTVP
 40
0.0
  9
$DIMTIX
 70
     0
  9
$DIMSOXD
 70
     0
  9
$DIMSAH
 70
     0
  9
$DIMBLK1
  1

  9
$DIMBLK2
  1

  9
$DIMSTYLE
  2
Standard
  9
$DIMCLRD
 70
     0
  9
$DIMCLRE
 70
     0
  9
$DIMCLRT
 70
     0
  9
$DIMTFAC
 40
1.0
  9
$DIMGAP
 40
0.09
  9
$DIMJUST
 70
     0
  9
$DIMSD1
 70
     0
  9
$DIMSD2
 70
     0
  9
$DIMTOLJ
 70
     1
  9
$DIMTZIN
 70
     0
  9
$DIMALTZ
 70
     0
  9
$DIMALTTZ
 70
     0
  9
$DIMUPT
 70
     0
  9
$DIMDEC
 70
     4
  9
$DIMTDEC
 70
     4
  9
$DIMALTU
 70
     2
  9
$DIMALTTD
 70
     2
  9
$DIMTXSTY
  7
Standard
  9
$DIMAUNIT
 70
     0
  9
$DIMADEC
 70
     0
  9
$DIMALTRND
 40
0.0
  9
$DIMAZIN
 70
     0
  9
$DIMDSEP
 70
     0
  9
$DIMATFIT
 70
     3
  9
$DIMFRAC
 70
     0
  9
$DIMLDRBLK
  1

  9
$DIMLUNIT
 70
     2
  9
$DIMLWD
 70
     0
  9
$DIMLWE
 70
     0
  9
$DIMTMOVE
 70
     0
  9
$LUNITS
 70
     2
  9
$LUPREC
 70
     4
  9
$SKETCHINC
 40
0.1
  9
$FILLETRAD
 40
0.0
  9
$AUNITS
 70
     0
  9
$AUPREC
 70
     0
  9
$MENU
  1
acad
  9
$ELEVATION
 40
0.0
  9
$PELEVATION
 40
0.0
  9
$THICKNESS
 40
0.0
  9
$LIMCHECK
 70
     0
  9
$CHAMFERA
 40
0.0
  9
$CHAMFERB
 40
0.0
  9
$CHAMFERC
 40
0.0
  9
$CHAMFERD
 40
0.0
  9
$SKPOLY
 70
     0
  9
$TDCREATE
 40
0.000000000
  9
$TDUCREATE
 40
0.000000000
  9
$TDUPDATE
 40
0.000000000
  9
$TDUUPDATE
 40
0.000000000
  9
$TDINDWG
 40
0.0000000000
  9
$TDUSRTIMER
 40
0.0000000000
  9
$USRTIMER
 70
     1
  9
$ANGBASE
 50
0.0
  9
$ANGDIR
 70
     0
  9
$PDMODE
 70
     0
  9
$PDSIZE
 40
0.0
  9
$PLINEWID
 40
0.0
  9
$SPLFRAME
 70
     0
  9
$SPLINETYPE
 70
     6
  9
$SPLINESEGS
 70
     8
  9
$HANDSEED
  5
CA
  9
$SURFTAB1
 70
     6
  9
$SURFTAB2
 70
     6
  9
$SURFTYPE
 70
     6
  9
$SURFU
 70
     6
  9
$SURFV
 70
     6
  9
$UCSBASE
  2

  9
$UCSNAME
  2

  9
$UCSORG
 10
0.0
 20
0.0
 30
0.0
  9
$UCSXDIR
 10
1.0
 20
0.0
 30
0.0
  9
$UCSYDIR
 10
0.0
 20
1.0
 30
0.0
  9
$UCSORTHOREF
  2

  9
$UCSORTHOVIEW
 70
     0
  9
$UCSORGTOP
 10
0.0
 20
0.0
 30
0.0
  9
$UCSORGBOTTOM
 10
0.0
 20
0.0
 30
0.0
  9
$UCSORGLEFT
 10
0.0
 20
0.0
 30
0.0
  9
$UCSORGRIGHT
 10
0.0
 20
0.0
 30
0.0
  9
$UCSORGFRONT
 10
0.0
 20
0.0
 30
0.0
  9
$UCSORGBACK
 10
0.0
 20
0.0
 30
0.0
  9
$PUCSBASE
  2

  9
$PUCSNAME
  2

  9
$PUCSORG
 10
0.0
 20
0.0
 30
0.0
  9
$PUCSXDIR
 10
1.0
 20
0.0
 30
0.0
  9
$PUCSYDIR
 10
0.0
 20
1.0
 30
0.0
  9
$PUCSORTHOREF
  2

  9
$PUCSORTHOVIEW
 70
     0
  9
$PUCSORGTOP
 10
0.0
 20
0.0
 30
0.0
  9
$PUCSORGBOTTOM
 10
0.0
 20
0.0
 30
0.0
  9
$PUCSORGLEFT
 10
0.0
 20
0.0
 30
0.0
  9
$PUCSORGRIGHT
 10
0.0
 20
0.0
 30
0.0
  9
$PUCSORGFRONT
 10
0.0
 20
0.0
 30
0.0
  9
$PUCSORGBACK
 10
0.0
 20
0.0
 30
0.0
  9
$USERI1
 70
     0
  9
$USERI2
 70
     0
  9
$USERI3
 70
     0
  9
$USERI4
 70
     0
  9
$USERI5
 70
     0
  9
$USERR1
 40
0.0
  9
$USERR2
 40
0.0
  9
$USERR3
 40
0.0
  9
$USERR4
 40
0.0
  9
$USERR5
 40
0.0
  9
$WORLDVIEW
 70
     1
  9
$SHADEDGE
 70
     3
  9
$SHADEDIF
 70
    70
  9
$TILEMODE
 70
     1
  9
$MAXACTVP
 70
    16
  9
$PINSBASE
 10
0.0
 20
0.0
 30
0.0
  9
$PLIMCHECK
 70
     0
  9
$PEXTMIN
 10
1.000000E+20
 20
1.000000E+20
 30
1.000000E+20
  9
$PEXTMAX
 10
-1.000000E+20
 20
-1.000000E+20
 30
-1.000000E+20
  9
$PLIMMIN
 10
0.0
 20
0.0
  9
$PLIMMAX
 10
12.0
 20
9.0
  9
$UNITMODE
 70
     0
  9
$VISRETAIN
 70
     0
  9
$PLINEGEN
 70
     1
  9
$PSLTSCALE
 70
     0
  9
$TREEDEPTH
 70
  3020
  9
$CMLSTYLE
  2
Standard
  9
$CMLJUST
 70
     0
  9
$CMLSCALE
 40
1.0
  9
$PROXYGRAPHICS
 70
     0
  9
$MEASUREMENT
 70
     1
  9
$CELWEIGHT
370
     0
  9
$ENDCAPS
280
     0
  9
$JOINSTYLE
280
     0
  9
$LWDISPLAY
290
     0
  9
$INSUNITS
 70
     0
  9
$HYPERLINKBASE
  1

  9
$STYLESHEET
  1

  9
$XEDIT
290
     1
  9
$CEPSNTYPE
380
     0
  9
$PSTYLEMODE
290
     1
  9
$FINGERPRINTGUID
  2

  9
$VERSIONGUID
  2

  9
$EXTNAMES
290
     1
  9
$PSVPSCALE
 40
0.0
  0
ENDSEC
  0
SECTION
  2
CLASSES
  0
CLASS
  1
LWPOLYLINE
  2
AcDbPolyline
  3
AutoCAD 2000
 90
    32768
280
     0
281
     1
  0
CLASS
  1
IMAGE
  2
AcDbRasterImage
  3
ISM
 90
    32895
280
     0
281
     1
  0
CLASS
  1
OLE2FRAME
  2
AcDbOle2Frame
  3
AutoCAD 2000
 90
    32768
280
     0
281
     1
  0
CLASS
  1
HATCH
  2
AcDbHatch
  3
AutoCAD 2000
 90
    32768
280
     0
281
     1
  0
CLASS
  1
DICTIONARYVAR
  2
AcDbDictionaryVar
  3
AutoCAD 2000
 90
    32768
280
     0
281
     0
  0
CLASS
  1
RASTERVARIABLES
  2
AcDbRasterVariables
  3
ISM
 90
    32768
280
     0
281
     0
  0
CLASS
  1
IMAGEDEF
  2
AcDbRasterImageDef
  3
ISM
 90
    32768
280
     0
281
     0
  0
CLASS
  1
IMAGEDEF_REACTOR
  2
AcDbRasterImageDefReactor
  3
ISM
 90
    32769
280
     0
281
     0
  0
CLASS
  1
IDBUFFER
  2
AcDbIdBuffer
  3
AutoCAD 2000
 90
    32768
280
     0
281
     0
  0
CLASS
  1
SPATIAL_FILTER
  2
AcDbSpatialFilter
  3
AutoCAD 2000
 90
    32768
280
     0
281
     0
  0
CLASS
  1
XRECORD
  2
AcDbXrecord
  3
AutoCAD 2000
 90
    32768
280
     0
281
     0
  0
CLASS
  1
SORTENTSTABLE
  2
AcDbSortentsTable
  3
AutoCAD 2000
 90
    32768
280
     0
281
     0
  0
CLASS
  1
LAYER_INDEX
  2
AcDbLayerIndex
  3
AutoCAD 2000
 90
    32768
280
     0
281
     0
  0
CLASS
  1
SPATIAL_INDEX
  2
AcDbSpatialIndex
  3
AutoCAD 2000
 90
    32768
280
     0
281
     0
  0
CLASS
  1
OBJECT_PTR
  2
CAseDLPNTableRecord
  3
"ASE-LPNTableRecord"
 90
    32769
280
     0
281
     0
  0
CLASS
  1
LAYOUT
  2
AcDbLayout
  3
AutoCAD 2000
 90
        0
280
     0
281
     0
  0
CLASS
  1
PLOTSETTINGS
  2
AcDbPlotSettings
  3
AutoCAD 2000
 90
    32768
280
     0
281
     0
  0
CLASS
  1
ACDBDICTIONARYWDFLT
  2
AcDbDictionaryWithDefault
  3
AutoCAD 2000
 90
        0
280
     0
281
     0
  0
CLASS
  1
ACDBPLACEHOLDER
  2
AcDbPlaceHolder
  3
AutoCAD 2000
 90
        0
280
     0
281
     0
  0
CLASS
  1
VBA_PROJECT
  2
AcDbVbaProject
  3
acadvba
 90
    32768
280
     0
281
     0
  0
CLASS
  1
WIPEOUT
  2
AcDbWipeout
  3
WipeOut|AutoCAD Express Tool|expresstools@autodesk.com
 90
    32895
280
     0
281
     1
  0
CLASS
  1
WIPEOUTVARIABLES
  2
AcDbWipeoutVariables
  3
WipeOut|AutoCAD Express Tool|expresstools@autodesk.com
 90
        0
280
     0
281
     0
  0
CLASS
  1
RTEXT
  2
RText
  3
RText|AutoCAD Express Tool|expresstools@autodesk.com
 90
    32768
280
     0
281
     1
  0
CLASS
  1
ARCALIGNEDTEXT
  2
AcDbArcAlignedText
  3
ATEXT|AutoCAD Express Tool|expresstools@autodesk.com
 90
    32768
280
     0
281
     1
  0
ENDSEC
  0
SECTION
  2
TABLES
  0
TABLE
  2
VPORT
  5
7
100
AcDbSymbolTable
 70
     1
  0
VPORT
  5
15
100
AcDbSymbolTableRecord
100
AcDbViewportTableRecord
  2
*ACTIVE
 70
     0
 10
0.0
 20
0.0
 11
1.0
 21
1.0
 12
6.591288
 22
4.579184
 13
0.0
 23
0.0
 14
1.0
 24
1.0
 15
0.0
 25
0.0
 16
0.0
 26
0.0
 36
1.0
 17
0.0
 27
0.0
 37
0.0
 40
9.158369
 41
0.688564
 42
50.0
 43
0.0
 44
0.0
 50
0.0
 51
0.0
 71
     0
 72
   100
 73
     1
 74
     1
 75
     0
 76
     0
 77
     0
 78
     0
281
     0
 65
     0
110
0.0
120
0.0
130
0.0
111
1.0
121
0.0
131
0.0
112
0.0
122
1.0
132
0.0
345
0
346
0
 79
     0
146
0.0
  0
ENDTAB
  0
TABLE
  2
LTYPE
  5
4
100
AcDbSymbolTable
 70
     3
  0
LTYPE
  5
11
100
AcDbSymbolTableRecord
100
AcDbLinetypeTableRecord
  2
ByBlock
 70
    64
  3

 72
    65
 73
     0
 40
0.0
  0
LTYPE
  5
12
100
AcDbSymbolTableRecord
100
AcDbLinetypeTableRecord
  2
ByLayer
 70
    64
  3

 72
    65
 73
     0
 40
0.0
  0
LTYPE
  5
13
100
AcDbSymbolTableRecord
100
AcDbLinetypeTableRecord
  2
Continuous
 70
    64
  3
Solid line
 72
    65
 73
     0
 40
0.0
  0
ENDTAB
  0
TABLE
  2
LAYER
  5
2
100
AcDbSymbolTable
 70
     2
  0
LAYER
  5
14
100
AcDbSymbolTableRecord
100
AcDbLayerTableRecord
  2
0
 70
     0
 62
     7
  6
Continuous
290
     1
370
    -3
390
1D
  0
LAYER
  5
28
100
AcDbSymbolTableRecord
100
AcDbLayerTableRecord
  2
LIVELLO_1
 70
     0
 62
   160
  6
Continuous
290
     1
370
    -3
390
1D
  0
ENDTAB
  0
TABLE
  2
STYLE
  5
3
100
AcDbSymbolTable
 70
     5
  0
STYLE
  5
17
100
AcDbSymbolTableRecord
100
AcDbTextStyleTableRecord
  2
Standard
 70
     0
 40
0.0
 41
1.0
 50
0.0
 71
     0
 42
0.0
  3
txt
  4

  0
STYLE
  5
24
100
AcDbSymbolTableRecord
100
AcDbTextStyleTableRecord
  2
STD
 70
     0
 40
0.0
 41
1.0
 50
0.0
 71
     0
 42
0.0
  3
txt
  4

  0
STYLE
  5
25
100
AcDbSymbolTableRecord
100
AcDbTextStyleTableRecord
  2
TATESTD
 70
     4
 40
0.0
 41
1.0
 50
0.0
 71
     0
 42
0.0
  3
txt
  4

  0
STYLE
  5
26
100
AcDbSymbolTableRecord
100
AcDbTextStyleTableRecord
  2
KANJISTD
 70
     0
 40
0.0
 41
1.0
 50
0.0
 71
     0
 42
0.0
  3
txt
  4
extfont
  0
STYLE
  5
27
100
AcDbSymbolTableRecord
100
AcDbTextStyleTableRecord
  2
KANJITATE
 70
     4
 40
0.0
 41
1.0
 50
0.0
 71
     0
 42
0.0
  3
txt
  4
extfont
  0
ENDTAB
  0
TABLE
  2
VIEW
  5
5
100
AcDbSymbolTable
 70
     0
  0
ENDTAB
  0
TABLE
  2
UCS
  5
6
100
AcDbSymbolTable
 70
     0
  0
ENDTAB
  0
TABLE
  2
APPID
  5
8
100
AcDbSymbolTable
 70
     1
  0
APPID
  5
16
100
AcDbSymbolTableRecord
100
AcDbRegAppTableRecord
  2
ACAD
 70
     0
  0
ENDTAB
  0
TABLE
  2
DIMSTYLE
  5
9
100
AcDbSymbolTable
 70
     1
100
AcDbDimStyleTable
 71
     0
  0
DIMSTYLE
105
18
100
AcDbSymbolTableRecord
100
AcDbDimStyleTableRecord
  2
Standard
 70
     0
  3

  4

 40
1.0
 41
0.18
 42
0.0625
 43
0.38
 44
0.18
 45
0.0
 46
0.0
 47
0.0
 48
0.0
 71
     0
 72
     0
 73
     1
 74
     1
 75
     0
 76
     0
 77
     0
 78
     0
 79
     0
140
0.18
141
0.09
142
0.0
143
25.4
144
1.0
145
0.0
146
1.0
147
0.09
148
0.0
170
     0
171
     2
172
     0
173
     0
174
     0
175
     0
176
     0
177
     0
178
     0
179
     0
271
     4
272
     4
273
     2
274
     2
275
     0
276
     0
277
     2
278
    46
279
     0
280
     0
281
     0
282
     0
283
     1
284
     0
285
     0
286
     0
288
     0
340
17
341
0
342
0
343
0
344
0
371
    -2
372
    -2
  0
ENDTAB
  0
TABLE
  2
BLOCK_RECORD
  5
1
100
AcDbSymbolTable
 70
     5
  0
BLOCK_RECORD
  5
A
100
AcDbSymbolTableRecord
100
AcDbBlockTableRecord
  2
*MODEL_SPACE
340
20
  0
BLOCK_RECORD
  5
B
100
AcDbSymbolTableRecord
100
AcDbBlockTableRecord
  2
*PAPER_SPACE
340
21
  0
BLOCK_RECORD
  5
29
100
AcDbSymbolTableRecord
100
AcDbBlockTableRecord
  2
AI9-BLK1
340
0
102
{BLKREFS
331
2A
102
}
  0
BLOCK_RECORD
  5
42
100
AcDbSymbolTableRecord
100
AcDbBlockTableRecord
  2
AI9-BLK2
340
0
102
{BLKREFS
331
43
102
}
  0
BLOCK_RECORD
  5
9B
100
AcDbSymbolTableRecord
100
AcDbBlockTableRecord
  2
AI9-BLK3
340
0
102
{BLKREFS
331
9C
102
}
  0
BLOCK_RECORD
  5
A0
100
AcDbSymbolTableRecord
100
AcDbBlockTableRecord
  2
AI9-BLK4
340
0
102
{BLKREFS
331
A1
102
}
  0
BLOCK_RECORD
  5
A3
100
AcDbSymbolTableRecord
100
AcDbBlockTableRecord
  2
AI9-BLK5
340
0
102
{BLKREFS
331
A4
102
}
  0
ENDTAB
  0
ENDSEC
  0
SECTION
  2
BLOCKS
  0
BLOCK
  5
D
100
AcDbEntity
  8
0
100
AcDbBlockBegin
  2
*MODEL_SPACE
 70
     0
 10
0.0
 20
0.0
 30
0.0
  3
*MODEL_SPACE
  1

  0
ENDBLK
  5
E
100
AcDbEntity
  8
0
100
AcDbBlockEnd
  0
BLOCK
  5
F
100
AcDbEntity
 67
     1
  8
0
100
AcDbBlockBegin
  2
*PAPER_SPACE
 70
     0
 10
0.0
 20
0.0
 30
0.0
  3
*PAPER_SPACE
  1

  0
ENDBLK
  5
10
100
AcDbEntity
 67
     1
  8
0
100
AcDbBlockEnd
  0
BLOCK
  5
2B
100
AcDbEntity
  8
LIVELLO_1
 62
     7
100
AcDbBlockBegin
  2
AI9-BLK1
 70
     0
 10
0.0
 20
0.0
 30
0.0
  3
AI9-BLK1
  1

  0
CIRCLE
  5
C8
100
AcDbEntity
  8
LIVELLO_1
 62
     7
100
AcDbCircle
 10
-4.689808
 20
73.900829
 30
0.0
 40
13.439748
  0
ELLIPSE
  5
C7
100
AcDbEntity
  8
LIVELLO_1
 62
     7
100
AcDbEllipse
 10
-22.188826
 20
73.901863
 30
0.0
 11
-1.225075954861111
 21
-0.0009474012586806
 31
0.0
210
0.0
220
0.0
230
1.0
 40
0.940593
 41
0.0
 42
6.2831853071795862
  0
ELLIPSE
  5
C6
100
AcDbEntity
  8
LIVELLO_1
 62
     7
100
AcDbEllipse
 10
-22.188826
 20
73.901863
 30
0.0
 11
-1.7483859592013888
 21
-0.0009474012586806
 31
0.0
210
0.0
220
0.0
230
1.0
 40
0.940739
 41
0.0
 42
6.2831853071795862
  0
ELLIPSE
  5
C5
100
AcDbEntity
  8
LIVELLO_1
 62
     7
100
AcDbEllipse
 10
12.810415
 20
73.901863
 30
0.0
 11
-1.2254204644097222
 21
-0.0009474012586806
 31
0.0
210
0.0
220
0.0
230
1.0
 40
0.940329
 41
0.0
 42
6.2831853071795862
  0
ELLIPSE
  5
C4
100
AcDbEntity
  8
LIVELLO_1
 62
     7
100
AcDbEllipse
 10
12.810415
 20
73.901863
 30
0.0
 11
-1.7507975260416666
 21
-0.0009474012586806
 31
0.0
210
0.0
220
0.0
230
1.0
 40
0.939443
 41
0.0
 42
6.2831853071795862
  0
SPLINE
  5
C3
100
AcDbEntity
  8
LIVELLO_1
 62
     7
100
AcDbSpline
210
0.0
220
0.0
230
1.0
 70
     8
 71
     3
 72
     8
 73
     4
 74
     0
 42
0.00000001
 43
0.00000001
 40
0.0
 40
0.0
 40
0.0
 40
0.0
 40
1.0
 40
1.0
 40
1.0
 40
1.0
 10
-30.628449164496526
 20
100.19353976779513
 30
0.0
 10
-30.823441569010413
 20
100.19353976779513
 30
0.0
 10
-30.979332139756941
 20
100.03558213975694
 30
0.0
 10
-30.979332139756941
 20
99.842656792534711
 30
0.0
  0
SPLINE
  5
C2
100
AcDbEntity
  8
LIVELLO_1
 62
     7
100
AcDbSpline
210
0.0
220
0.0
230
1.0
 70
     8
 71
     3
 72
     8
 73
     4
 74
     0
 42
0.00000001
 43
0.00000001
 40
0.0
 40
0.0
 40
0.0
 40
0.0
 40
1.0
 40
1.0
 40
1.0
 40
1.0
 10
21.60092095269097
 20
99.842656792534711
 30
0.0
 10
21.60092095269097
 20
100.03558213975694
 30
0.0
 10
21.44589165581597
 20
100.19353976779513
 30
0.0
 10
21.249865722656249
 20
100.19353976779513
 30
0.0
  0
SPLINE
  5
C1
100
AcDbEntity
  8
LIVELLO_1
 62
     7
100
AcDbSpline
210
0.0
220
0.0
230
1.0
 70
     8
 71
     3
 72
     8
 73
     4
 74
     0
 42
0.00000001
 43
0.00000001
 40
0.0
 40
0.0
 40
0.0
 40
0.0
 40
1.0
 40
1.0
 40
1.0
 40
1.0
 10
21.249865722656249
 20
47.610186089409716
 30
0.0
 10
21.44589165581597
 20
47.610186089409716
 30
0.0
 10
21.60092095269097
 20
47.768315972222219
 30
0.0
 10
21.60092095269097
 20
47.96124131944444
 30
0.0
  0
SPLINE
  5
C0
100
AcDbEntity
  8
LIVELLO_1
 62
     7
100
AcDbSpline
210
0.0
220
0.0
230
1.0
 70
     8
 71
     3
 72
     8
 73
     4
 74
     0
 42
0.00000001
 43
0.00000001
 40
0.0
 40
0.0
 40
0.0
 40
0.0
 40
1.0
 40
1.0
 40
1.0
 40
1.0
 10
-30.979332139756941
 20
47.96124131944444
 30
0.0
 10
-30.979332139756941
 20
47.768315972222219
 30
0.0
 10
-30.823441569010413
 20
47.610186089409716
 30
0.0
 10
-30.628449164496526
 20
47.610186089409716
 30
0.0
  0
POLYLINE
  5
B9
100
AcDbEntity
  8
LIVELLO_1
 62
     7
100
AcDb2dPolyline
 66
     1
 10
0.0
 20
0.0
 30
0.0
  0
VERTEX
  5
BA
100
AcDbEntity
  8
LIVELLO_1
 62
     7
100
AcDbVertex
100
AcDb2dVertex
 10
20.046494
 20
49.167886
 30
0.0
  0
VERTEX
  5
BB
100
AcDbEntity
  8
LIVELLO_1
 62
     7
100
AcDbVertex
100
AcDb2dVertex
 10
20.046494
 20
98.63584
 30
0.0
  0
VERTEX
  5
BC
100
AcDbEntity
  8
LIVELLO_1
 62
     7
100
AcDbVertex
100
AcDb2dVertex
 10
-29.423699
 20
98.63584
 30
0.0
  0
VERTEX
  5
BD
100
AcDbEntity
  8
LIVELLO_1
 62
     7
100
AcDbVertex
100
AcDb2dVertex
 10
-29.423699
 20
49.167886
 30
0.0
  0
VERTEX
  5
BE
100
AcDbEntity
  8
LIVELLO_1
 62
     7
100
AcDbVertex
100
AcDb2dVertex
 10
20.046494
 20
49.167886
 30
0.0
  0
SEQEND
  5
BF
100
AcDbEntity
  8
LIVELLO_1
 62
     7
  0
LINE
  5
B8
100
AcDbEntity
  8
LIVELLO_1
 62
     7
100
AcDbLine
 10
-30.628449
 20
47.610186
 30
0.0
 11
21.249866
 21
47.610186
 31
0.0
  0
LINE
  5
B7
100
AcDbEntity
  8
LIVELLO_1
 62
     7
100
AcDbLine
 10
-30.979332
 20
99.842657
 30
0.0
 11
-30.979332
 21
47.961241
 31
0.0
  0
LINE
  5
B6
100
AcDbEntity
  8
LIVELLO_1
 62
     7
100
AcDbLine
 10
21.249866
 20
100.19354
 30
0.0
 11
-30.628449
 21
100.19354
 31
0.0
  0
LINE
  5
B5
100
AcDbEntity
  8
LIVELLO_1
 62
     7
100
AcDbLine
 10
21.600921
 20
47.961241
 30
0.0
 11
21.600921
 21
99.842657
 31
0.0
  0
MTEXT
  5
B4
100
AcDbEntity
  8
LIVELLO_1
 62
     7
100
AcDbMText
 10
-54.744634
 20
74.360919
 30
0.0
 40
6.127013
 41
0.0
 71
     1
 72
     2
  1
\fMyriad Roman|b0|i0;\H6.1270;\W1.21;\C7;\U+0031\U+0035
  7
STD
210
0.0
220
0.0
230
1.0
 73
     1
 44
1.0
  0
MTEXT
  5
B3
100
AcDbEntity
  8
LIVELLO_1
 62
     7
100
AcDbMText
 10
-42.359688
 20
74.360919
 30
0.0
 40
6.127013
 41
0.0
 71
     1
 72
     2
  1
\fMyriad Roman|b0|i0;\H6.1270;\W1.21;\C7;\U+0030
  7
STD
210
0.0
220
0.0
230
1.0
 73
     1
 44
1.0
  0
POLYLINE
  5
AD
100
AcDbEntity
  8
LIVELLO_1
 62
     7
100
AcDb2dPolyline
 66
     1
 10
0.0
 20
0.0
 30
0.0
 70
     1
  0
VERTEX
  5
AE
100
AcDbEntity
  8
LIVELLO_1
 62
     7
100
AcDbVertex
100
AcDb2dVertex
 10
-55.210583
 20
69.42298
 30
0.0
  0
VERTEX
  5
AF
100
AcDbEntity
  8
LIVELLO_1
 62
     7
100
AcDbVertex
100
AcDb2dVertex
 10
-58.627429
 20
69.42298
 30
0.0
  0
VERTEX
  5
B0
100
AcDbEntity
  8
LIVELLO_1
 62
     7
100
AcDbVertex
100
AcDb2dVertex
 10
-58.627429
 20
72.747498
 30
0.0
  0
VERTEX
  5
B1
100
AcDbEntity
  8
LIVELLO_1
 62
     7
100
AcDbVertex
100
AcDb2dVertex
 10
-55.210583
 20
72.747498
 30
0.0
  0
SEQEND
  5
B2
100
AcDbEntity
  8
LIVELLO_1
 62
     7
  0
LINE
  5
AC
100
AcDbEntity
  8
LIVELLO_1
 62
     7
100
AcDbLine
 10
-40.725163
 20
45.767405
 30
0.0
 11
-51.893301
 21
45.767405
 31
0.0
  0
LINE
  5
AB
100
AcDbEntity
  8
LIVELLO_1
 62
     7
100
AcDbLine
 10
-40.73033
 20
100.285868
 30
0.0
 11
-51.896229
 21
100.285868
 31
0.0
  0
LINE
  5
AA
100
AcDbEntity
  8
LIVELLO_1
 62
     7
100
AcDbLine
 10
-46.464175
 20
99.88572
 30
0.0
 11
-46.464175
 21
80.837271
 31
0.0
  0
LINE
  5
A9
100
AcDbEntity
  8
LIVELLO_1
 62
     7
100
AcDbLine
 10
-46.464175
 20
62.899003
 30
0.0
 11
-46.464175
 21
45.982895
 31
0.0
  0
INSERT
  5
9C
100
AcDbEntity
  8
LIVELLO_1
 62
     7
100
AcDbBlockReference
  2
AI9-BLK3
 10
-5.734792
 20
-28.695406
 30
0.0
  0
POLYLINE
  5
95
100
AcDbEntity
  8
LIVELLO_1
 62
     7
100
AcDb2dPolyline
 66
     1
 10
0.0
 20
0.0
 30
0.0
 70
     1
  0
VERTEX
  5
96
100
AcDbEntity
  8
LIVELLO_1
 62
     7
100
AcDbVertex
100
AcDb2dVertex
 10
14.788589
 20
16.195222
 30
0.0
  0
VERTEX
  5
97
100
AcDbEntity
  8
LIVELLO_1
 62
     7
100
AcDbVertex
100
AcDb2dVertex
 10
16.255855
 20
16.195222
 30
0.0
  0
VERTEX
  5
98
100
AcDbEntity
  8
LIVELLO_1
 62
     7
100
AcDbVertex
100
AcDb2dVertex
 10
16.255855
 20
15.464689
 30
0.0
  0
VERTEX
  5
99
100
AcDbEntity
  8
LIVELLO_1
 62
     7
100
AcDbVertex
100
AcDb2dVertex
 10
14.788589
 20
15.464689
 30
0.0
  0
SEQEND
  5
9A
100
AcDbEntity
  8
LIVELLO_1
 62
     7
  0
POLYLINE
  5
8F
100
AcDbEntity
  8
LIVELLO_1
 62
     7
100
AcDb2dPolyline
 66
     1
 10
0.0
 20
0.0
 30
0.0
 70
     1
  0
VERTEX
  5
90
100
AcDbEntity
  8
LIVELLO_1
 62
     7
100
AcDbVertex
100
AcDb2dVertex
 10
-27.544055
 20
16.195222
 30
0.0
  0
VERTEX
  5
91
100
AcDbEntity
  8
LIVELLO_1
 62
     7
100
AcDbVertex
100
AcDb2dVertex
 10
-26.07765
 20
16.195222
 30
0.0
  0
VERTEX
  5
92
100
AcDbEntity
  8
LIVELLO_1
 62
     7
100
AcDbVertex
100
AcDb2dVertex
 10
-26.07765
 20
15.464689
 30
0.0
  0
VERTEX
  5
93
100
AcDbEntity
  8
LIVELLO_1
 62
     7
100
AcDbVertex
100
AcDb2dVertex
 10
-27.544055
 20
15.464689
 30
0.0
  0
SEQEND
  5
94
100
AcDbEntity
  8
LIVELLO_1
 62
     7
  0
POLYLINE
  5
89
100
AcDbEntity
  8
LIVELLO_1
 62
     7
100
AcDb2dPolyline
 66
     1
 10
0.0
 20
0.0
 30
0.0
 70
     1
  0
VERTEX
  5
8A
100
AcDbEntity
  8
LIVELLO_1
 62
     7
100
AcDbVertex
100
AcDb2dVertex
 10
-9.409762
 20
17.76119
 30
0.0
  0
VERTEX
  5
8B
100
AcDbEntity
  8
LIVELLO_1
 62
     7
100
AcDbVertex
100
AcDb2dVertex
 10
-2.073258
 20
17.76119
 30
0.0
  0
VERTEX
  5
8C
100
AcDbEntity
  8
LIVELLO_1
 62
     7
100
AcDbVertex
100
AcDb2dVertex
 10
-2.805858
 20
14.651991
 30
0.0
  0
VERTEX
  5
8D
100
AcDbEntity
  8
LIVELLO_1
 62
     7
100
AcDbVertex
100
AcDb2dVertex
 10
-8.675095
 20
14.651991
 30
0.0
  0
SEQEND
  5
8E
100
AcDbEntity
  8
LIVELLO_1
 62
     7
  0
LINE
  5
88
100
AcDbEntity
  8
LIVELLO_1
 62
     7
100
AcDbLine
 10
-23.85832
 20
-36.123204
 30
0.0
 11
12.532396
 21
-36.123204
 31
0.0
  0
SPLINE
  5
87
100
AcDbEntity
  8
LIVELLO_1
 62
     7
100
AcDbSpline
210
0.0
220
0.0
230
1.0
 70
     8
 71
     3
 72
    23
 73
    19
 74
     0
 42
0.00000001
 43
0.00000001
 40
0.0
 40
0.0
 40
0.0
 40
0.0
 40
1.0
 40
1.0
 40
1.0
 40
2.0
 40
2.0
 40
2.0
 40
3.0
 40
3.0
 40
3.0
 40
4.0
 40
4.0
 40
4.0
 40
5.0
 40
5.0
 40
5.0
 40
6.0
 40
6.0
 40
6.0
 40
6.0
 10
10.783665635850694
 20
-38.062448459201384
 30
0.0
 10
10.783665635850694
 20
-38.062448459201384
 30
0.0
 10
10.38575710720486
 20
-51.565844726562496
 30
0.0
 10
10.38575710720486
 20
-51.565844726562496
 30
0.0
 10
10.38575710720486
 20
-51.968231879340273
 30
0.0
 10
10.056405978732638
 20
-52.296549479166664
 30
0.0
 10
9.6519517686631939
 20
-52.296549479166664
 30
0.0
 10
9.6519517686631939
 20
-52.296549479166664
 30
0.0
 10
-20.939979383680555
 20
-52.296549479166664
 30
0.0
 10
-20.939979383680555
 20
-52.296549479166664
 30
0.0
 10
-21.34632839626736
 20
-52.296549479166664
 30
0.0
 10
-21.673612467447914
 20
-51.968231879340273
 30
0.0
 10
-21.673612467447914
 20
-51.565844726562496
 30
0.0
 10
-21.673612467447914
 20
-51.565844726562496
 30
0.0
 10
-22.073932562934026
 20
-38.062448459201384
 30
0.0
 10
-22.073932562934026
 20
-38.062448459201384
 30
0.0
 10
-22.073932562934026
 20
-38.062448459201384
 30
0.0
 10
10.783665635850694
 20
-38.062448459201384
 30
0.0
 10
10.783665635850694
 20
-38.062448459201384
 30
0.0
  0
CIRCLE
  5
86
100
AcDbEntity
  8
LIVELLO_1
 62
     7
100
AcDbCircle
 10
-5.681996
 20
-29.806622
 30
0.0
 40
2.708879
  0
CIRCLE
  5
85
100
AcDbEntity
  8
LIVELLO_1
 62
     7
100
AcDbCircle
 10
-5.682513
 20
-29.806622
 30
0.0
 40
0.903476
  0
SPLINE
  5
84
100
AcDbEntity
  8
LIVELLO_1
 62
     7
100
AcDbSpline
210
0.0
220
0.0
230
1.0
 70
     8
 71
     3
 72
    23
 73
    19
 74
     0
 42
0.00000001
 43
0.00000001
 40
0.0
 40
0.0
 40
0.0
 40
0.0
 40
1.0
 40
1.0
 40
1.0
 40
2.0
 40
2.0
 40
2.0
 40
3.0
 40
3.0
 40
3.0
 40
4.0
 40
4.0
 40
4.0
 40
5.0
 40
5.0
 40
5.0
 40
6.0
 40
6.0
 40
6.0
 40
6.0
 10
19.733334689670137
 20
26.349468315972221
 30
0.0
 10
19.733334689670137
 20
26.349468315972221
 30
0.0
 10
19.733334689670137
 20
18.345994737413193
 30
0.0
 10
19.733334689670137
 20
18.345994737413193
 30
0.0
 10
19.733334689670137
 20
18.021811252170139
 30
0.0
 10
19.469784884982637
 20
17.761189778645832
 30
0.0
 10
19.145256890190971
 20
17.761189778645832
 30
0.0
 10
19.145256890190971
 20
17.761189778645832
 30
0.0
 10
-30.607950846354164
 20
17.761189778645832
 30
0.0
 10
-30.607950846354164
 20
17.761189778645832
 30
0.0
 10
-30.932134331597219
 20
17.761189778645832
 30
0.0
 10
-31.19482286241319
 20
18.021811252170139
 30
0.0
 10
-31.19482286241319
 20
18.345994737413193
 30
0.0
 10
-31.19482286241319
 20
18.345994737413193
 30
0.0
 10
-31.19482286241319
 20
26.349468315972221
 30
0.0
 10
-31.19482286241319
 20
26.349468315972221
 30
0.0
 10
-31.19482286241319
 20
26.349468315972221
 30
0.0
 10
19.733334689670137
 20
26.349468315972221
 30
0.0
 10
19.733334689670137
 20
26.349468315972221
 30
0.0
  0
SPLINE
  5
83
100
AcDbEntity
  8
LIVELLO_1
 62
     7
100
AcDbSpline
210
0.0
220
0.0
230
1.0
 70
     8
 71
     3
 72
    20
 73
    16
 74
     0
 42
0.00000001
 43
0.00000001
 40
0.0
 40
0.0
 40
0.0
 40
0.0
 40
1.0
 40
1.0
 40
1.0
 40
2.0
 40
2.0
 40
2.0
 40
3.0
 40
3.0
 40
3.0
 40
4.0
 40
4.0
 40
4.0
 40
5.0
 40
5.0
 40
5.0
 40
5.0
 10
-15.81057671440972
 20
16.195221625434026
 30
0.0
 10
-15.81057671440972
 20
16.195221625434026
 30
0.0
 10
-15.81057671440972
 20
-33.560053168402774
 30
0.0
 10
-15.81057671440972
 20
-33.560053168402774
 30
0.0
 10
-15.81057671440972
 20
-33.777783203124997
 30
0.0
 10
-15.987137858072915
 20
-33.952105034722216
 30
0.0
 10
-16.233289930555554
 20
-33.952105034722216
 30
0.0
 10
-16.451881239149305
 20
-33.952105034722216
 30
0.0
 10
-16.628442382812498
 20
-33.777783203124997
 30
0.0
 10
-16.628442382812498
 20
-33.560053168402774
 30
0.0
 10
-16.628442382812498
 20
-33.560053168402774
 30
0.0
 10
-16.628442382812498
 20
16.195221625434026
 30
0.0
 10
-16.628442382812498
 20
16.195221625434026
 30
0.0
 10
-16.628442382812498
 20
16.195221625434026
 30
0.0
 10
-15.81057671440972
 20
16.195221625434026
 30
0.0
 10
-15.81057671440972
 20
16.195221625434026
 30
0.0
  0
SPLINE
  5
82
100
AcDbEntity
  8
LIVELLO_1
 62
     7
100
AcDbSpline
210
0.0
220
0.0
230
1.0
 70
     8
 71
     3
 72
    20
 73
    16
 74
     0
 42
0.00000001
 43
0.00000001
 40
0.0
 40
0.0
 40
0.0
 40
0.0
 40
1.0
 40
1.0
 40
1.0
 40
2.0
 40
2.0
 40
2.0
 40
3.0
 40
3.0
 40
3.0
 40
4.0
 40
4.0
 40
4.0
 40
5.0
 40
5.0
 40
5.0
 40
5.0
 10
-12.298301866319443
 20
16.195221625434026
 30
0.0
 10
-12.298301866319443
 20
16.195221625434026
 30
0.0
 10
-12.298301866319443
 20
-33.560053168402774
 30
0.0
 10
-12.298301866319443
 20
-33.560053168402774
 30
0.0
 10
-12.298301866319443
 20
-33.777783203124997
 30
0.0
 10
-12.476757812499999
 20
-33.952105034722216
 30
0.0
 10
-12.71894802517361
 20
-33.952105034722216
 30
0.0
 10
-12.93753933376736
 20
-33.952105034722216
 30
0.0
 10
-13.115995279947915
 20
-33.777783203124997
 30
0.0
 10
-13.115995279947915
 20
-33.560053168402774
 30
0.0
 10
-13.115995279947915
 20
-33.560053168402774
 30
0.0
 10
-13.115995279947915
 20
16.195221625434026
 30
0.0
 10
-13.115995279947915
 20
16.195221625434026
 30
0.0
 10
-13.115995279947915
 20
16.195221625434026
 30
0.0
 10
-12.298301866319443
 20
16.195221625434026
 30
0.0
 10
-12.298301866319443
 20
16.195221625434026
 30
0.0
  0
SPLINE
  5
81
100
AcDbEntity
  8
LIVELLO_1
 62
     7
100
AcDbSpline
210
0.0
220
0.0
230
1.0
 70
     8
 71
     3
 72
    23
 73
    19
 74
     0
 42
0.00000001
 43
0.00000001
 40
0.0
 40
0.0
 40
0.0
 40
0.0
 40
1.0
 40
1.0
 40
1.0
 40
2.0
 40
2.0
 40
2.0
 40
3.0
 40
3.0
 40
3.0
 40
4.0
 40
4.0
 40
4.0
 40
5.0
 40
5.0
 40
5.0
 40
6.0
 40
6.0
 40
6.0
 40
6.0
 10
-8.7858547634548607
 20
15.091240776909721
 30
0.0
 10
-8.7858547634548607
 20
15.091240776909721
 30
0.0
 10
-8.7858547634548607
 20
-33.560053168402774
 30
0.0
 10
-8.7858547634548607
 20
-33.560053168402774
 30
0.0
 10
-8.7858547634548607
 20
-33.777783203124997
 30
0.0
 10
-8.9624159071180554
 20
-33.952105034722216
 30
0.0
 10
-9.2066731770833332
 20
-33.952105034722216
 30
0.0
 10
-9.4271592881944439
 20
-33.952105034722216
 30
0.0
 10
-9.6037204318576386
 20
-33.777783203124997
 30
0.0
 10
-9.6037204318576386
 20
-33.560053168402774
 30
0.0
 10
-9.6037204318576386
 20
-33.560053168402774
 30
0.0
 10
-9.6037204318576386
 20
16.195221625434026
 30
0.0
 10
-9.6037204318576386
 20
16.195221625434026
 30
0.0
 10
-9.6037204318576386
 20
16.195221625434026
 30
0.0
 10
-9.0630126953124996
 20
16.195221625434026
 30
0.0
 10
-9.0630126953124996
 20
16.195221625434026
 30
0.0
 10
-9.0630126953124996
 20
16.195221625434026
 30
0.0
 10
-8.7858547634548607
 20
15.091240776909721
 30
0.0
 10
-8.7858547634548607
 20
15.091240776909721
 30
0.0
  0
SPLINE
  5
80
100
AcDbEntity
  8
LIVELLO_1
 62
     7
100
AcDbSpline
210
0.0
220
0.0
230
1.0
 70
     8
 71
     3
 72
    20
 73
    16
 74
     0
 42
0.00000001
 43
0.00000001
 40
0.0
 40
0.0
 40
0.0
 40
0.0
 40
1.0
 40
1.0
 40
1.0
 40
2.0
 40
2.0
 40
2.0
 40
3.0
 40
3.0
 40
3.0
 40
4.0
 40
4.0
 40
4.0
 40
5.0
 40
5.0
 40
5.0
 40
5.0
 10
-5.2746134440104164
 20
14.651991102430554
 30
0.0
 10
-5.2746134440104164
 20
14.651991102430554
 30
0.0
 10
-5.2746134440104164
 20
-27.144940863715274
 30
0.0
 10
-5.2746134440104164
 20
-27.144940863715274
 30
0.0
 10
-5.4079386393229161
 20
-27.124270290798609
 30
0.0
 10
-5.5435031467013882
 20
-27.114279513888885
 30
0.0
 10
-5.6819959852430548
 20
-27.114279513888885
 30
0.0
 10
-5.8215223524305548
 20
-27.114279513888885
 30
0.0
 10
-5.9579481336805546
 20
-27.124270290798609
 30
0.0
 10
-6.0914455837673609
 20
-27.144940863715274
 30
0.0
 10
-6.0914455837673609
 20
-27.144940863715274
 30
0.0
 10
-6.0914455837673609
 20
14.651991102430554
 30
0.0
 10
-6.0914455837673609
 20
14.651991102430554
 30
0.0
 10
-6.0914455837673609
 20
14.651991102430554
 30
0.0
 10
-5.2746134440104164
 20
14.651991102430554
 30
0.0
 10
-5.2746134440104164
 20
14.651991102430554
 30
0.0
  0
SPLINE
  5
7F
100
AcDbEntity
  8
LIVELLO_1
 62
     7
100
AcDbSpline
210
0.0
220
0.0
230
1.0
 70
     8
 71
     3
 72
    23
 73
    19
 74
     0
 42
0.00000001
 43
0.00000001
 40
0.0
 40
0.0
 40
0.0
 40
0.0
 40
1.0
 40
1.0
 40
1.0
 40
2.0
 40
2.0
 40
2.0
 40
3.0
 40
3.0
 40
3.0
 40
4.0
 40
4.0
 40
4.0
 40
5.0
 40
5.0
 40
5.0
 40
6.0
 40
6.0
 40
6.0
 40
6.0
 10
-5.2746134440104164
 20
-32.470369466145833
 30
0.0
 10
-5.2746134440104164
 20
-32.470369466145833
 30
0.0
 10
-5.2746134440104164
 20
-33.560053168402774
 30
0.0
 10
-5.2746134440104164
 20
-33.560053168402774
 30
0.0
 10
-5.2746134440104164
 20
-33.777783203124997
 30
0.0
 10
-5.4522081163194436
 20
-33.952105034722216
 30
0.0
 10
-5.6962931315104157
 20
-33.952105034722216
 30
0.0
 10
-5.9148844401041663
 20
-33.952105034722216
 30
0.0
 10
-6.0914455837673609
 20
-33.777783203124997
 30
0.0
 10
-6.0914455837673609
 20
-33.560053168402774
 30
0.0
 10
-6.0914455837673609
 20
-33.560053168402774
 30
0.0
 10
-6.0914455837673609
 20
-32.470369466145833
 30
0.0
 10
-6.0914455837673609
 20
-32.470369466145833
 30
0.0
 10
-5.9579481336805546
 20
-32.491040039062497
 30
0.0
 10
-5.8215223524305548
 20
-32.498963758680553
 30
0.0
 10
-5.6819959852430548
 20
-32.498963758680553
 30
0.0
 10
-5.5435031467013882
 20
-32.498963758680553
 30
0.0
 10
-5.4079386393229161
 20
-32.491040039062497
 30
0.0
 10
-5.2746134440104164
 20
-32.470369466145833
 30
0.0
  0
SPLINE
  5
7E
100
AcDbEntity
  8
LIVELLO_1
 62
     7
100
AcDbSpline
210
0.0
220
0.0
230
1.0
 70
     8
 71
     3
 72
    23
 73
    19
 74
     0
 42
0.00000001
 43
0.00000001
 40
0.0
 40
0.0
 40
0.0
 40
0.0
 40
1.0
 40
1.0
 40
1.0
 40
2.0
 40
2.0
 40
2.0
 40
3.0
 40
3.0
 40
3.0
 40
4.0
 40
4.0
 40
4.0
 40
5.0
 40
5.0
 40
5.0
 40
6.0
 40
6.0
 40
6.0
 40
6.0
 10
-1.760271538628472
 20
16.195221625434026
 30
0.0
 10
-1.760271538628472
 20
16.195221625434026
 30
0.0
 10
-1.760271538628472
 20
-33.560053168402774
 30
0.0
 10
-1.760271538628472
 20
-33.560053168402774
 30
0.0
 10
-1.760271538628472
 20
-33.777783203124997
 30
0.0
 10
-1.9397610134548608
 20
-33.952105034722216
 30
0.0
 10
-2.1819512261284721
 20
-33.952105034722216
 30
0.0
 10
-2.4005425347222218
 20
-33.952105034722216
 30
0.0
 10
-2.5789984809027775
 20
-33.777783203124997
 30
0.0
 10
-2.5789984809027775
 20
-33.560053168402774
 30
0.0
 10
-2.5789984809027775
 20
-33.560053168402774
 30
0.0
 10
-2.5789984809027775
 20
15.554950629340276
 30
0.0
 10
-2.5789984809027775
 20
15.554950629340276
 30
0.0
 10
-2.5789984809027775
 20
15.554950629340276
 30
0.0
 10
-2.4179402669270833
 20
16.195221625434026
 30
0.0
 10
-2.4179402669270833
 20
16.195221625434026
 30
0.0
 10
-2.4179402669270833
 20
16.195221625434026
 30
0.0
 10
-1.760271538628472
 20
16.195221625434026
 30
0.0
 10
-1.760271538628472
 20
16.195221625434026
 30
0.0
  0
SPLINE
  5
7D
100
AcDbEntity
  8
LIVELLO_1
 62
     7
100
AcDbSpline
210
0.0
220
0.0
230
1.0
 70
     8
 71
     3
 72
    20
 73
    16
 74
     0
 42
0.00000001
 43
0.00000001
 40
0.0
 40
0.0
 40
0.0
 40
0.0
 40
1.0
 40
1.0
 40
1.0
 40
2.0
 40
2.0
 40
2.0
 40
3.0
 40
3.0
 40
3.0
 40
4.0
 40
4.0
 40
4.0
 40
5.0
 40
5.0
 40
5.0
 40
5.0
 10
1.7499362521701387
 20
16.195221625434026
 30
0.0
 10
1.7499362521701387
 20
16.195221625434026
 30
0.0
 10
1.7499362521701387
 20
-33.560053168402774
 30
0.0
 10
1.7499362521701387
 20
-33.560053168402774
 30
0.0
 10
1.7499362521701387
 20
-33.777783203124997
 30
0.0
 10
1.5745808919270832
 20
-33.952105034722216
 30
0.0
 10
1.3303236219618055
 20
-33.952105034722216
 30
0.0
 10
1.1096652560763889
 20
-33.952105034722216
 30
0.0
 10
0.9353434244791666
 20
-33.777783203124997
 30
0.0
 10
0.9353434244791666
 20
-33.560053168402774
 30
0.0
 10
0.9353434244791666
 20
-33.560053168402774
 30
0.0
 10
0.9353434244791666
 20
16.195221625434026
 30
0.0
 10
0.9353434244791666
 20
16.195221625434026
 30
0.0
 10
0.9353434244791666
 20
16.195221625434026
 30
0.0
 10
1.7499362521701387
 20
16.195221625434026
 30
0.0
 10
1.7499362521701387
 20
16.195221625434026
 30
0.0
  0
SPLINE
  5
7C
100
AcDbEntity
  8
LIVELLO_1
 62
     7
100
AcDbSpline
210
0.0
220
0.0
230
1.0
 70
     8
 71
     3
 72
    20
 73
    16
 74
     0
 42
0.00000001
 43
0.00000001
 40
0.0
 40
0.0
 40
0.0
 40
0.0
 40
1.0
 40
1.0
 40
1.0
 40
2.0
 40
2.0
 40
2.0
 40
3.0
 40
3.0
 40
3.0
 40
4.0
 40
4.0
 40
4.0
 40
5.0
 40
5.0
 40
5.0
 40
5.0
 10
5.2644504123263882
 20
16.195221625434026
 30
0.0
 10
5.2644504123263882
 20
16.195221625434026
 30
0.0
 10
5.2644504123263882
 20
-33.560053168402774
 30
0.0
 10
5.2644504123263882
 20
-33.560053168402774
 30
0.0
 10
5.2644504123263882
 20
-33.777783203124997
 30
0.0
 10
5.0858222113715277
 20
-33.952105034722216
 30
0.0
 10
4.8407036675347221
 20
-33.952105034722216
 30
0.0
 10
4.623145887586805
 20
-33.952105034722216
 30
0.0
 10
4.445551215277777
 20
-33.777783203124997
 30
0.0
 10
4.445551215277777
 20
-33.560053168402774
 30
0.0
 10
4.445551215277777
 20
-33.560053168402774
 30
0.0
 10
4.445551215277777
 20
16.195221625434026
 30
0.0
 10
4.445551215277777
 20
16.195221625434026
 30
0.0
 10
4.445551215277777
 20
16.195221625434026
 30
0.0
 10
5.2644504123263882
 20
16.195221625434026
 30
0.0
 10
5.2644504123263882
 20
16.195221625434026
 30
0.0
  0
SPLINE
  5
7B
100
AcDbEntity
  8
LIVELLO_1
 62
     7
100
AcDbSpline
210
0.0
220
0.0
230
1.0
 70
     8
 71
     3
 72
    41
 73
    37
 74
     0
 42
0.00000001
 43
0.00000001
 40
0.0
 40
0.0
 40
0.0
 40
0.0
 40
1.0
 40
1.0
 40
1.0
 40
2.0
 40
2.0
 40
2.0
 40
3.0
 40
3.0
 40
3.0
 40
4.0
 40
4.0
 40
4.0
 40
5.0
 40
5.0
 40
5.0
 40
6.0
 40
6.0
 40
6.0
 40
7.0
 40
7.0
 40
7.0
 40
8.0
 40
8.0
 40
8.0
 40
9.0
 40
9.0
 40
9.0
 40
10.0
 40
10.0
 40
10.0
 40
11.0
 40
11.0
 40
11.0
 40
12.0
 40
12.0
 40
12.0
 40
12.0
 10
5.2644504123263882
 20
16.195221625434026
 30
0.0
 10
5.2644504123263882
 20
16.195221625434026
 30
0.0
 10
13.320289442274305
 20
16.195221625434026
 30
0.0
 10
13.320289442274305
 20
16.195221625434026
 30
0.0
 10
13.320289442274305
 20
16.195221625434026
 30
0.0
 10
12.587517632378471
 20
-37.334155273437496
 30
0.0
 10
12.587517632378471
 20
-37.334155273437496
 30
0.0
 10
12.587517632378471
 20
-37.736197916666661
 30
0.0
 10
12.258166503906249
 20
-38.062448459201384
 30
0.0
 10
11.851989746093748
 20
-38.062448459201384
 30
0.0
 10
11.851989746093748
 20
-38.062448459201384
 30
0.0
 10
-23.141050889756944
 20
-38.062448459201384
 30
0.0
 10
-23.141050889756944
 20
-38.062448459201384
 30
0.0
 10
-23.548433430989583
 20
-38.062448459201384
 30
0.0
 10
-23.875717502170136
 20
-37.736197916666661
 30
0.0
 10
-23.875717502170136
 20
-37.334155273437496
 30
0.0
 10
-23.875717502170136
 20
-37.334155273437496
 30
0.0
 10
-24.609350585937499
 20
16.195221625434026
 30
0.0
 10
-24.609350585937499
 20
16.195221625434026
 30
0.0
 10
-24.609350585937499
 20
16.195221625434026
 30
0.0
 10
-16.628442382812498
 20
16.195221625434026
 30
0.0
 10
-16.628442382812498
 20
16.195221625434026
 30
0.0
 10
-16.628442382812498
 20
16.195221625434026
 30
0.0
 10
-9.0383802625868039
 20
16.195221625434026
 30
0.0
 10
-9.0383802625868039
 20
16.195221625434026
 30
0.0
 10
-9.0383802625868039
 20
16.195221625434026
 30
0.0
 10
-8.6750949435763882
 20
14.651991102430554
 30
0.0
 10
-8.6750949435763882
 20
14.651991102430554
 30
0.0
 10
-8.6750949435763882
 20
14.651991102430554
 30
0.0
 10
-2.8058580186631943
 20
14.651991102430554
 30
0.0
 10
-2.8058580186631943
 20
14.651991102430554
 30
0.0
 10
-2.8058580186631943
 20
14.651991102430554
 30
0.0
 10
-2.4425726996527777
 20
16.195221625434026
 30
0.0
 10
-2.4425726996527777
 20
16.195221625434026
 30
0.0
 10
-2.4425726996527777
 20
16.195221625434026
 30
0.0
 10
5.2644504123263882
 20
16.195221625434026
 30
0.0
 10
5.2644504123263882
 20
16.195221625434026
 30
0.0
  0
POLYLINE
  5
75
100
AcDbEntity
  8
LIVELLO_1
 62
     7
100
AcDb2dPolyline
 66
     1
 10
0.0
 20
0.0
 30
0.0
 70
     1
  0
VERTEX
  5
76
100
AcDbEntity
  8
LIVELLO_1
 62
     7
100
AcDbVertex
100
AcDb2dVertex
 10
-20.117118
 20
-52.236949
 30
0.0
  0
VERTEX
  5
77
100
AcDbEntity
  8
LIVELLO_1
 62
     7
100
AcDbVertex
100
AcDb2dVertex
 10
-8.190715
 20
-52.236949
 30
0.0
  0
VERTEX
  5
78
100
AcDbEntity
  8
LIVELLO_1
 62
     7
100
AcDbVertex
100
AcDb2dVertex
 10
-8.190715
 20
-55.955585
 30
0.0
  0
VERTEX
  5
79
100
AcDbEntity
  8
LIVELLO_1
 62
     7
100
AcDbVertex
100
AcDb2dVertex
 10
-20.117118
 20
-55.955585
 30
0.0
  0
SEQEND
  5
7A
100
AcDbEntity
  8
LIVELLO_1
 62
     7
  0
SPLINE
  5
74
100
AcDbEntity
  8
LIVELLO_1
 62
     7
100
AcDbSpline
210
0.0
220
0.0
230
1.0
 70
     8
 71
     3
 72
    23
 73
    19
 74
     0
 42
0.00000001
 43
0.00000001
 40
0.0
 40
0.0
 40
0.0
 40
0.0
 40
1.0
 40
1.0
 40
1.0
 40
2.0
 40
2.0
 40
2.0
 40
3.0
 40
3.0
 40
3.0
 40
4.0
 40
4.0
 40
4.0
 40
5.0
 40
5.0
 40
5.0
 40
6.0
 40
6.0
 40
6.0
 40
6.0
 10
-19.413113064236111
 20
-55.955585394965276
 30
0.0
 10
-19.413113064236111
 20
-55.955585394965276
 30
0.0
 10
-19.413113064236111
 20
-56.06031629774305
 30
0.0
 10
-19.413113064236111
 20
-56.06031629774305
 30
0.0
 10
-19.413113064236111
 20
-56.815481228298609
 30
0.0
 10
-18.795407443576387
 20
-57.429052734374991
 30
0.0
 10
-18.036108398437499
 20
-57.429052734374991
 30
0.0
 10
-18.036108398437499
 20
-57.429052734374991
 30
0.0
 10
-10.272757975260415
 20
-57.429052734374991
 30
0.0
 10
-10.272757975260415
 20
-57.429052734374991
 30
0.0
 10
-9.5134589301215264
 20
-57.429052734374991
 30
0.0
 10
-8.8967868381076389
 20
-56.815481228298609
 30
0.0
 10
-8.8967868381076389
 20
-56.06031629774305
 30
0.0
 10
-8.8967868381076389
 20
-56.06031629774305
 30
0.0
 10
-8.8967868381076389
 20
-55.955585394965276
 30
0.0
 10
-8.8967868381076389
 20
-55.955585394965276
 30
0.0
 10
-8.8967868381076389
 20
-55.955585394965276
 30
0.0
 10
-19.413113064236111
 20
-55.955585394965276
 30
0.0
 10
-19.413113064236111
 20
-55.955585394965276
 30
0.0
  0
SPLINE
  5
73
100
AcDbEntity
  8
LIVELLO_1
 62
     7
100
AcDbSpline
210
0.0
220
0.0
230
1.0
 70
     8
 71
     3
 72
    20
 73
    16
 74
     0
 42
0.00000001
 43
0.00000001
 40
0.0
 40
0.0
 40
0.0
 40
0.0
 40
1.0
 40
1.0
 40
1.0
 40
2.0
 40
2.0
 40
2.0
 40
3.0
 40
3.0
 40
3.0
 40
4.0
 40
4.0
 40
4.0
 40
5.0
 40
5.0
 40
5.0
 40
5.0
 10
17.826818847656249
 20
17.761189778645832
 30
0.0
 10
17.826818847656249
 20
17.761189778645832
 30
0.0
 10
17.826818847656249
 20
-67.845987955729157
 30
0.0
 10
17.826818847656249
 20
-67.845987955729157
 30
0.0
 10
17.826818847656249
 20
-68.168104383680543
 30
0.0
 10
17.563269042968749
 20
-68.426831054687497
 30
0.0
 10
17.239085557725694
 20
-68.426831054687497
 30
0.0
 10
17.239085557725694
 20
-68.426831054687497
 30
0.0
 10
-28.700401475694441
 20
-68.426831054687497
 30
0.0
 10
-28.700401475694441
 20
-68.426831054687497
 30
0.0
 10
-29.024584960937496
 20
-68.426831054687497
 30
0.0
 10
-29.286239963107636
 20
-68.168104383680543
 30
0.0
 10
-29.286239963107636
 20
-67.845987955729157
 30
0.0
 10
-29.286239963107636
 20
-67.845987955729157
 30
0.0
 10
-29.286239963107636
 20
17.761189778645832
 30
0.0
 10
-29.286239963107636
 20
17.761189778645832
 30
0.0
  0
SPLINE
  5
72
100
AcDbEntity
  8
LIVELLO_1
 62
     7
100
AcDbSpline
210
0.0
220
0.0
230
1.0
 70
     8
 71
     3
 72
    20
 73
    16
 74
     0
 42
0.00000001
 43
0.00000001
 40
0.0
 40
0.0
 40
0.0
 40
0.0
 40
1.0
 40
1.0
 40
1.0
 40
2.0
 40
2.0
 40
2.0
 40
3.0
 40
3.0
 40
3.0
 40
4.0
 40
4.0
 40
4.0
 40
5.0
 40
5.0
 40
5.0
 40
5.0
 10
-28.277688259548608
 20
16.195221625434026
 30
0.0
 10
-28.602905273437496
 20
16.195221625434026
 30
0.0
 10
-28.865593804253468
 20
16.455843098958333
 30
0.0
 10
-28.865593804253468
 20
16.776064724392359
 30
0.0
 10
-28.865593804253468
 20
16.776064724392359
 30
0.0
 10
-28.865593804253468
 20
17.761189778645832
 30
0.0
 10
-28.865593804253468
 20
17.761189778645832
 30
0.0
 10
-28.865593804253468
 20
17.761189778645832
 30
0.0
 10
-9.4097615559895829
 20
17.761189778645832
 30
0.0
 10
-9.4097615559895829
 20
17.761189778645832
 30
0.0
 10
-9.4097615559895829
 20
17.761189778645832
 30
0.0
 10
-9.0383802625868039
 20
16.195221625434026
 30
0.0
 10
-9.0383802625868039
 20
16.195221625434026
 30
0.0
 10
-9.0383802625868039
 20
16.195221625434026
 30
0.0
 10
-28.277688259548608
 20
16.195221625434026
 30
0.0
 10
-28.277688259548608
 20
16.195221625434026
 30
0.0
  0
SPLINE
  5
71
100
AcDbEntity
  8
LIVELLO_1
 62
     7
100
AcDbSpline
210
0.0
220
0.0
230
1.0
 70
     8
 71
     3
 72
    20
 73
    16
 74
     0
 42
0.00000001
 43
0.00000001
 40
0.0
 40
0.0
 40
0.0
 40
0.0
 40
1.0
 40
1.0
 40
1.0
 40
2.0
 40
2.0
 40
2.0
 40
3.0
 40
3.0
 40
3.0
 40
4.0
 40
4.0
 40
4.0
 40
5.0
 40
5.0
 40
5.0
 40
5.0
 10
-2.0732584635416664
 20
17.761189778645832
 30
0.0
 10
-2.0732584635416664
 20
17.761189778645832
 30
0.0
 10
17.576360405815972
 20
17.761189778645832
 30
0.0
 10
17.576360405815972
 20
17.761189778645832
 30
0.0
 10
17.576360405815972
 20
17.761189778645832
 30
0.0
 10
17.576360405815972
 20
16.776064724392359
 30
0.0
 10
17.576360405815972
 20
16.776064724392359
 30
0.0
 10
17.576360405815972
 20
16.455843098958333
 30
0.0
 10
17.312810601128472
 20
16.195221625434026
 30
0.0
 10
16.988627115885414
 20
16.195221625434026
 30
0.0
 10
16.988627115885414
 20
16.195221625434026
 30
0.0
 10
-2.4425726996527777
 20
16.195221625434026
 30
0.0
 10
-2.4425726996527777
 20
16.195221625434026
 30
0.0
 10
-2.4425726996527777
 20
16.195221625434026
 30
0.0
 10
-2.0732584635416664
 20
17.761189778645832
 30
0.0
 10
-2.0732584635416664
 20
17.761189778645832
 30
0.0
  0
INSERT
  5
43
100
AcDbEntity
  8
LIVELLO_1
 62
     7
100
AcDbBlockReference
  2
AI9-BLK2
 10
-4.903146
 20
-77.592335
 30
0.0
  0
POLYLINE
  5
3C
100
AcDbEntity
  8
LIVELLO_1
 62
     7
100
AcDb2dPolyline
 66
     1
 10
0.0
 20
0.0
 30
0.0
 70
     1
  0
VERTEX
  5
3D
100
AcDbEntity
  8
LIVELLO_1
 62
     7
100
AcDbVertex
100
AcDb2dVertex
 10
-29.319141
 20
-68.40616
 30
0.0
  0
VERTEX
  5
3E
100
AcDbEntity
  8
LIVELLO_1
 62
     7
100
AcDbVertex
100
AcDb2dVertex
 10
17.955321
 20
-68.40616
 30
0.0
  0
VERTEX
  5
3F
100
AcDbEntity
  8
LIVELLO_1
 62
     7
100
AcDbVertex
100
AcDb2dVertex
 10
17.955321
 20
-84.959155
 30
0.0
  0
VERTEX
  5
40
100
AcDbEntity
  8
LIVELLO_1
 62
     7
100
AcDbVertex
100
AcDb2dVertex
 10
-29.319141
 20
-84.959155
 30
0.0
  0
SEQEND
  5
41
100
AcDbEntity
  8
LIVELLO_1
 62
     7
  0
LINE
  5
3B
100
AcDbEntity
  8
LIVELLO_1
 62
     7
100
AcDbLine
 10
-47.847381
 20
26.349468
 30
0.0
 11
36.481322
 21
26.349468
 31
0.0
  0
LINE
  5
3A
100
AcDbEntity
  8
LIVELLO_1
 62
     7
100
AcDbLine
 10
17.586696
 20
-99.587375
 30
0.0
 11
17.586696
 21
-89.81674
 31
0.0
  0
LINE
  5
39
100
AcDbEntity
  8
LIVELLO_1
 62
     7
100
AcDbLine
 10
-28.519706
 20
-99.591509
 30
0.0
 11
-28.519706
 21
-89.820874
 31
0.0
  0
LINE
  5
38
100
AcDbEntity
  8
LIVELLO_1
 62
     7
100
AcDbLine
 10
40.70053
 20
28.791697
 30
0.0
 11
51.80304
 21
28.791697
 31
0.0
  0
SPLINE
  5
37
100
AcDbEntity
  8
LIVELLO_1
 62
     7
100
AcDbSpline
210
0.0
220
0.0
230
1.0
 70
     8
 71
     3
 72
    23
 73
    19
 74
     0
 42
0.00000001
 43
0.00000001
 40
0.0
 40
0.0
 40
0.0
 40
0.0
 40
1.0
 40
1.0
 40
1.0
 40
2.0
 40
2.0
 40
2.0
 40
3.0
 40
3.0
 40
3.0
 40
4.0
 40
4.0
 40
4.0
 40
5.0
 40
5.0
 40
5.0
 40
6.0
 40
6.0
 40
6.0
 40
6.0
 10
-30.536120605468746
 20
26.421298556857636
 30
0.0
 10
-30.536120605468746
 20
26.421298556857636
 30
0.0
 10
-30.536120605468746
 20
26.349468315972221
 30
0.0
 10
-30.536120605468746
 20
26.349468315972221
 30
0.0
 10
-30.536120605468746
 20
26.349468315972221
 30
0.0
 10
-36.26789822048611
 20
26.349468315972221
 30
0.0
 10
-36.26789822048611
 20
26.349468315972221
 30
0.0
 10
-36.26789822048611
 20
26.349468315972221
 30
0.0
 10
-36.7049085828993
 20
28.840961371527776
 30
0.0
 10
-30.536120605468746
 20
28.840961371527776
 30
0.0
 10
-30.536120605468746
 20
28.840961371527776
 30
0.0
 10
17.642161729600694
 20
28.840961371527776
 30
0.0
 10
17.642161729600694
 20
28.840961371527776
 30
0.0
 10
23.814050292968748
 20
28.840961371527776
 30
0.0
 10
24.814506022135415
 20
26.349468315972221
 30
0.0
 10
24.814506022135415
 20
26.349468315972221
 30
0.0
 10
24.814506022135415
 20
26.349468315972221
 30
0.0
 10
-30.536120605468746
 20
26.421298556857636
 30
0.0
 10
-30.536120605468746
 20
26.421298556857636
 30
0.0
  0
LINE
  5
36
100
AcDbEntity
  8
LIVELLO_1
 62
     7
100
AcDbLine
 10
17.239086
 20
-94.567527
 30
0.0
 11
8.606365
 21
-94.567527
 31
0.0
  0
LINE
  5
35
100
AcDbEntity
  8
LIVELLO_1
 62
     7
100
AcDbLine
 10
-19.51371
 20
-94.567527
 30
0.0
 11
-28.330915
 21
-94.567527
 31
0.0
  0
MTEXT
  5
34
100
AcDbEntity
  8
LIVELLO_1
 62
     7
100
AcDbMText
 10
52.798328
 20
33.49863
 30
0.0
 40
8.639854
 41
0.0
 71
     1
 72
     2
  1
\fMyriad Roman|b0|i0;\H8.6399;\W1.01;\C7;\U+0032
  7
STD
210
0.0
220
0.0
230
1.0
 73
     1
 44
1.0
  0
LINE
  5
33
100
AcDbEntity
  8
LIVELLO_1
 62
     7
100
AcDbLine
 10
40.70053
 20
26.349468
 30
0.0
 11
51.80304
 21
26.349468
 31
0.0
  0
LINE
  5
32
100
AcDbEntity
  8
LIVELLO_1
 62
     7
100
AcDbLine
 10
41.094649
 20
-68.145711
 30
0.0
 11
50.92454
 21
-68.145711
 31
0.0
  0
LINE
  5
31
100
AcDbEntity
  8
LIVELLO_1
 62
     7
100
AcDbLine
 10
46.009767
 20
-37.756868
 30
0.0
 11
46.009767
 21
-68.145711
 31
0.0
  0
LINE
  5
30
100
AcDbEntity
  8
LIVELLO_1
 62
     7
100
AcDbLine
 10
46.009767
 20
26.429567
 30
0.0
 11
46.009767
 21
-9.814044
 31
0.0
  0
LINE
  5
2F
100
AcDbEntity
  8
LIVELLO_1
 62
     7
100
AcDbLine
 10
41.094649
 20
26.429567
 30
0.0
 11
50.92454
 21
26.429567
 31
0.0
  0
MTEXT
  5
2E
100
AcDbEntity
  8
LIVELLO_1
 62
     7
100
AcDbMText
 10
37.802861
 20
-17.33764
 30
0.0
 40
7.649294
 41
0.0
 71
     1
 72
     2
  1
\fMyriad Roman|b0|i0;\H7.6493;\W1.01;\C7;\U+0032\U+0033\U+0033
  7
STD
210
0.0
220
0.0
230
1.0
 73
     1
 44
1.0
  0
MTEXT
  5
2D
100
AcDbEntity
  8
LIVELLO_1
 62
     7
100
AcDbMText
 10
-15.895671
 20
-90.621006
 30
0.0
 40
7.036082
 41
0.0
 71
     1
 72
     2
  1
\fArial Narrow|b0|i0;\H7.0361;\C7;\U+00D8
  7
STD
210
0.0
220
0.0
230
1.0
 73
     1
 44
1.0
  0
MTEXT
  5
2C
100
AcDbEntity
  8
LIVELLO_1
 62
     7
100
AcDbMText
 10
-7.704439
 20
-90.621006
 30
0.0
 40
7.036082
 41
0.0
 71
     1
 72
     2
  1
\fArial Narrow|b0|i0;\H7.0361;\C7;\U+0031\U+0032\U+0034
  7
STD
210
0.0
220
0.0
230
1.0
 73
     1
 44
1.0
  0
ENDBLK
  5
C9
100
AcDbEntity
  8
LIVELLO_1
100
AcDbBlockEnd
  0
BLOCK
  5
44
100
AcDbEntity
  8
LIVELLO_1
 62
     7
100
AcDbBlockBegin
  2
AI9-BLK2
 70
     0
 10
0.0
 20
0.0
 30
0.0
  3
AI9-BLK2
  1

  0
SPLINE
  5
6F
100
AcDbEntity
  8
LIVELLO_1
 62
     7
100
AcDbSpline
210
0.0
220
0.0
230
1.0
 70
     8
 71
     3
 72
    17
 73
    13
 74
     0
 42
0.00000001
 43
0.00000001
 40
0.0
 40
0.0
 40
0.0
 40
0.0
 40
1.0
 40
1.0
 40
1.0
 40
2.0
 40
2.0
 40
2.0
 40
3.0
 40
3.0
 40
3.0
 40
4.0
 40
4.0
 40
4.0
 40
4.0
 10
22.048869493272566
 20
-7.1659708658854164
 30
0.0
 10
23.072751871744789
 20
-7.4694837782118046
 30
0.0
 10
23.738688829210066
 20
-7.7754082573784711
 30
0.0
 10
24.812869601779511
 20
-7.7754082573784711
 30
0.0
 10
26.245340304904513
 20
-7.7754082573784711
 30
0.0
 10
27.474550374348954
 20
-6.7081176757812493
 30
0.0
 10
27.474550374348954
 20
-5.2818481445312493
 30
0.0
 10
27.474550374348954
 20
-4.8243394639756936
 30
0.0
 10
27.424596489800344
 20
-4.5697469075520827
 30
0.0
 10
27.474550374348954
 20
-4.112238226996527
 30
0.0
 10
25.068495686848955
 20
-4.112238226996527
 30
0.0
 10
22.252819146050346
 20
-4.773007541232638
 30
0.0
 10
22.048869493272566
 20
-7.1659708658854164
 30
0.0
  0
SPLINE
  5
6E
100
AcDbEntity
  8
LIVELLO_1
 62
     7
100
AcDbSpline
210
0.0
220
0.0
230
1.0
 70
     8
 71
     3
 72
    20
 73
    16
 74
     0
 42
0.00000001
 43
0.00000001
 40
0.0
 40
0.0
 40
0.0
 40
0.0
 40
1.0
 40
1.0
 40
1.0
 40
2.0
 40
2.0
 40
2.0
 40
3.0
 40
3.0
 40
3.0
 40
4.0
 40
4.0
 40
4.0
 40
5.0
 40
5.0
 40
5.0
 40
5.0
 10
28.246251763237844
 20
9.0115085177951375
 30
0.0
 10
28.246251763237844
 20
9.0115085177951375
 30
0.0
 10
23.683222791883679
 20
8.7017944335937489
 30
0.0
 10
23.683222791883679
 20
8.7017944335937489
 30
0.0
 10
23.773484293619788
 20
7.6593085394965268
 30
0.0
 10
23.821715630425345
 20
7.133931477864583
 30
0.0
 10
23.911977132161457
 20
6.0893785264756941
 30
0.0
 10
24.288526068793402
 20
1.8209052191840276
 30
0.0
 10
29.830651177300343
 20
2.0403578016493054
 30
0.0
 10
34.156657579210069
 20
2.0648179796006945
 30
0.0
 10
33.894830322265619
 20
5.026222059461805
 30
0.0
 10
32.271845838758679
 20
7.4315877278645823
 30
0.0
 10
29.390367974175344
 20
8.0572170681423607
 30
0.0
 10
29.390367974175344
 20
8.0572170681423607
 30
0.0
 10
28.246251763237844
 20
9.0115085177951375
 30
0.0
 10
28.246251763237844
 20
9.0115085177951375
 30
0.0
  0
POLYLINE
  5
67
100
AcDbEntity
  8
LIVELLO_1
 62
     7
100
AcDb2dPolyline
 66
     1
 10
0.0
 20
0.0
 30
0.0
 70
     1
  0
VERTEX
  5
68
100
AcDbEntity
  8
LIVELLO_1
 62
     7
100
AcDbVertex
100
AcDb2dVertex
 10
-5.155155
 20
-7.110505
 30
0.0
  0
VERTEX
  5
69
100
AcDbEntity
  8
LIVELLO_1
 62
     7
100
AcDbVertex
100
AcDb2dVertex
 10
-6.562993
 20
-7.812271
 30
0.0
  0
VERTEX
  5
6A
100
AcDbEntity
  8
LIVELLO_1
 62
     7
100
AcDbVertex
100
AcDb2dVertex
 10
-6.91491
 20
-9.209946
 30
0.0
  0
VERTEX
  5
6B
100
AcDbEntity
  8
LIVELLO_1
 62
     7
100
AcDbVertex
100
AcDb2dVertex
 10
-5.155155
 20
-9.909645
 30
0.0
  0
VERTEX
  5
6C
100
AcDbEntity
  8
LIVELLO_1
 62
     7
100
AcDbVertex
100
AcDb2dVertex
 10
-4.453217
 20
-8.161259
 30
0.0
  0
SEQEND
  5
6D
100
AcDbEntity
  8
LIVELLO_1
 62
     7
  0
SPLINE
  5
66
100
AcDbEntity
  8
LIVELLO_1
 62
     7
100
AcDbSpline
210
0.0
220
0.0
230
1.0
 70
     8
 71
     3
 72
    17
 73
    13
 74
     0
 42
0.00000001
 43
0.00000001
 40
0.0
 40
0.0
 40
0.0
 40
0.0
 40
1.0
 40
1.0
 40
1.0
 40
2.0
 40
2.0
 40
2.0
 40
3.0
 40
3.0
 40
3.0
 40
4.0
 40
4.0
 40
4.0
 40
4.0
 10
-11.67189737955729
 20
4.7430352105034714
 30
0.0
 10
-11.67189737955729
 20
4.7430352105034714
 30
0.0
 10
-10.535015869140624
 20
4.6445054796006939
 30
0.0
 10
-10.535015869140624
 20
4.6445054796006939
 30
0.0
 10
-10.535015869140624
 20
4.6445054796006939
 30
0.0
 10
-11.131189643012151
 20
1.8884290907118053
 30
0.0
 10
-11.131189643012151
 20
1.8884290907118053
 30
0.0
 10
-11.870851643880208
 20
2.4796074761284719
 30
0.0
 10
-12.901107449001735
 20
2.8303181966145829
 30
0.0
 10
-12.816013590494791
 20
3.790810818142361
 30
0.0
 10
-12.770882839626735
 20
4.3120537651909716
 30
0.0
 10
-11.885321044921874
 20
4.3223890516493055
 30
0.0
 10
-11.67189737955729
 20
4.7430352105034714
 30
0.0
  0
SPLINE
  5
65
100
AcDbEntity
  8
LIVELLO_1
 62
     7
100
AcDbSpline
210
0.0
220
0.0
230
1.0
 70
     8
 71
     3
 72
    23
 73
    19
 74
     0
 42
0.00000001
 43
0.00000001
 40
0.0
 40
0.0
 40
0.0
 40
0.0
 40
1.0
 40
1.0
 40
1.0
 40
2.0
 40
2.0
 40
2.0
 40
3.0
 40
3.0
 40
3.0
 40
4.0
 40
4.0
 40
4.0
 40
5.0
 40
5.0
 40
5.0
 40
6.0
 40
6.0
 40
6.0
 40
6.0
 10
19.969754367404512
 20
-0.2664781358506944
 30
0.0
 10
19.969754367404512
 20
-0.2664781358506944
 30
0.0
 10
20.166813829210067
 20
-2.0372572157118052
 30
0.0
 10
20.166813829210067
 20
-2.0372572157118052
 30
0.0
 10
19.077130126953122
 20
-2.380044216579861
 30
0.0
 10
18.35366007486979
 20
-2.5812377929687496
 30
0.0
 10
17.272244601779512
 20
-2.8378974066840277
 30
0.0
 10
17.272244601779512
 20
-2.8378974066840277
 30
0.0
 10
15.900407579210068
 20
-2.3655748155381944
 30
0.0
 10
15.900407579210068
 20
-2.3655748155381944
 30
0.0
 10
15.900407579210068
 20
-2.3655748155381944
 30
0.0
 10
15.321631537543402
 20
-0.9127780490451388
 30
0.0
 10
15.321631537543402
 20
-0.9127780490451388
 30
0.0
 10
15.321631537543402
 20
-0.9127780490451388
 30
0.0
 10
17.167513699001734
 20
-0.0180867513020833
 30
0.0
 10
17.167513699001734
 20
-0.0180867513020833
 30
0.0
 10
17.167513699001734
 20
-0.0180867513020833
 30
0.0
 10
18.3291998969184
 20
0.1421101888020833
 30
0.0
 10
19.969754367404512
 20
-0.2664781358506944
 30
0.0
  0
SPLINE
  5
64
100
AcDbEntity
  8
LIVELLO_1
 62
     7
100
AcDbSpline
210
0.0
220
0.0
230
1.0
 70
     8
 71
     3
 72
    17
 73
    13
 74
     0
 42
0.00000001
 43
0.00000001
 40
0.0
 40
0.0
 40
0.0
 40
0.0
 40
1.0
 40
1.0
 40
1.0
 40
2.0
 40
2.0
 40
2.0
 40
3.0
 40
3.0
 40
3.0
 40
4.0
 40
4.0
 40
4.0
 40
4.0
 10
19.462980821397569
 20
9.141044108072915
 30
0.0
 10
20.500299072265623
 20
8.0778876410590268
 30
0.0
 10
21.335734727647566
 20
8.1188842773437493
 30
0.0
 10
22.150155300564233
 20
6.8731377495659718
 30
0.0
 10
21.0267096625434
 20
5.7958563910590275
 30
0.0
 10
20.248807101779512
 20
6.6330145941840275
 30
0.0
 10
18.667852783203124
 20
6.7704739040798607
 30
0.0
 10
17.393167453342013
 20
6.8834730360243048
 30
0.0
 10
14.583003065321179
 20
7.8725599500868046
 30
0.0
 10
14.695657687717013
 20
9.141044108072915
 30
0.0
 10
14.828982883029513
 20
10.661709255642361
 30
0.0
 10
17.931980387369791
 20
9.2723022460937496
 30
0.0
 10
19.462980821397569
 20
9.141044108072915
 30
0.0
  0
SPLINE
  5
63
100
AcDbEntity
  8
LIVELLO_1
 62
     7
100
AcDbSpline
210
0.0
220
0.0
230
1.0
 70
     8
 71
     3
 72
    17
 73
    13
 74
     0
 42
0.00000001
 43
0.00000001
 40
0.0
 40
0.0
 40
0.0
 40
0.0
 40
1.0
 40
1.0
 40
1.0
 40
2.0
 40
2.0
 40
2.0
 40
3.0
 40
3.0
 40
3.0
 40
4.0
 40
4.0
 40
4.0
 40
4.0
 10
25.880160183376734
 20
1.3733873155381944
 30
0.0
 10
26.916444905598954
 20
0.3122979058159722
 30
0.0
 10
27.407026502821179
 20
-0.547597927517361
 30
0.0
 10
28.221791585286457
 20
-1.791277398003472
 30
0.0
 10
27.098001437717013
 20
-2.8685587565104163
 30
0.0
 10
25.90358683268229
 20
-3.0204874674479165
 30
0.0
 10
24.322632514105901
 20
-2.8830281575520829
 30
0.0
 10
23.048291693793402
 20
-2.7720960828993051
 30
0.0
 10
21.559321424696179
 20
-2.1829847547743055
 30
0.0
 10
21.669908989800344
 20
-0.9169121636284722
 30
0.0
 10
21.803578694661457
 20
0.6037529839409722
 30
0.0
 10
24.349159749348956
 20
1.5067125108506942
 30
0.0
 10
25.880160183376734
 20
1.3733873155381944
 30
0.0
  0
SPLINE
  5
62
100
AcDbEntity
  8
LIVELLO_1
 62
     7
100
AcDbSpline
210
0.0
220
0.0
230
1.0
 70
     8
 71
     3
 72
    20
 73
    16
 74
     0
 42
0.00000001
 43
0.00000001
 40
0.0
 40
0.0
 40
0.0
 40
0.0
 40
1.0
 40
1.0
 40
1.0
 40
2.0
 40
2.0
 40
2.0
 40
3.0
 40
3.0
 40
3.0
 40
4.0
 40
4.0
 40
4.0
 40
5.0
 40
5.0
 40
5.0
 40
5.0
 10
22.273489718967014
 20
5.5967298719618048
 30
0.0
 10
21.876270209418401
 20
3.0849107530381943
 30
0.0
 10
20.810357666015623
 20
1.0223320855034721
 30
0.0
 10
18.270633273654511
 20
1.2441962348090276
 30
0.0
 10
16.518113199869791
 20
1.3957804361979165
 30
0.0
 10
15.86044447157118
 20
1.9418280707465276
 30
0.0
 10
15.017774115668402
 20
3.4173624674479162
 30
0.0
 10
15.017774115668402
 20
3.4173624674479162
 30
0.0
 10
15.520758056640624
 20
5.1288859049479161
 30
0.0
 10
15.520758056640624
 20
5.1288859049479161
 30
0.0
 10
17.386277262369791
 20
5.2315497504340271
 30
0.0
 10
18.373297119140624
 20
5.4079386393229161
 30
0.0
 10
20.170947943793401
 20
5.7772528754340273
 30
0.0
 10
20.170947943793401
 20
5.7772528754340273
 30
0.0
 10
22.273489718967014
 20
5.5967298719618048
 30
0.0
 10
22.273489718967014
 20
5.5967298719618048
 30
0.0
  0
SPLINE
  5
61
100
AcDbEntity
  8
LIVELLO_1
 62
     7
100
AcDbSpline
210
0.0
220
0.0
230
1.0
 70
     8
 71
     3
 72
    17
 73
    13
 74
     0
 42
0.00000001
 43
0.00000001
 40
0.0
 40
0.0
 40
0.0
 40
0.0
 40
1.0
 40
1.0
 40
1.0
 40
2.0
 40
2.0
 40
2.0
 40
3.0
 40
3.0
 40
3.0
 40
4.0
 40
4.0
 40
4.0
 40
4.0
 10
-15.892139350043401
 20
9.1531019422743043
 30
0.0
 10
-16.003071424696181
 20
7.8870293511284713
 30
0.0
 10
-17.065022108289931
 20
6.9062106662326386
 30
0.0
 10
-18.341429985894095
 20
7.0167982313368054
 30
0.0
 10
-19.003232828776039
 20
7.0763983832465271
 30
0.0
 10
-19.857099745008679
 20
7.3020521375868048
 30
0.0
 10
-19.799566650390624
 20
7.9607543945312491
 30
0.0
 10
-19.634374321831597
 20
9.838675944010415
 30
0.0
 10
-19.409581841362847
 20
10.92835964626736
 30
0.0
 10
-17.577996826171873
 20
11.279414876302083
 30
0.0
 10
-17.660162353515624
 20
10.368187120225693
 30
0.0
 10
-15.812213134765624
 20
10.06639675564236
 30
0.0
 10
-15.892139350043401
 20
9.1531019422743043
 30
0.0
  0
SPLINE
  5
60
100
AcDbEntity
  8
LIVELLO_1
 62
     7
100
AcDbSpline
210
0.0
220
0.0
230
1.0
 70
     8
 71
     3
 72
    17
 73
    13
 74
     0
 42
0.00000001
 43
0.00000001
 40
0.0
 40
0.0
 40
0.0
 40
0.0
 40
1.0
 40
1.0
 40
1.0
 40
2.0
 40
2.0
 40
2.0
 40
3.0
 40
3.0
 40
3.0
 40
4.0
 40
4.0
 40
4.0
 40
4.0
 10
-21.522458902994789
 20
8.5353963216145825
 30
0.0
 10
-21.633218722873263
 20
7.2672566731770827
 30
0.0
 10
-22.696202935112844
 20
6.2885050455729159
 30
0.0
 10
-23.972783067491317
 20
6.3990926106770827
 30
0.0
 10
-24.634585910373261
 20
6.4566257052951386
 30
0.0
 10
-25.487247043185761
 20
6.6822794596354163
 30
0.0
 10
-25.43074747721354
 20
7.3430487738715273
 30
0.0
 10
-25.26555514865451
 20
9.2189032660590264
 30
0.0
 10
-23.972783067491317
 20
10.487042914496527
 30
0.0
 10
-22.142059326171871
 20
10.83809814453125
 30
0.0
 10
-22.223191324869788
 20
9.9227362738715268
 30
0.0
 10
-21.443393961588541
 20
9.4466240776909718
 30
0.0
 10
-21.522458902994789
 20
8.5353963216145825
 30
0.0
  0
SPLINE
  5
5F
100
AcDbEntity
  8
LIVELLO_1
 62
     7
100
AcDbSpline
210
0.0
220
0.0
230
1.0
 70
     8
 71
     3
 72
    17
 73
    13
 74
     0
 42
0.00000001
 43
0.00000001
 40
0.0
 40
0.0
 40
0.0
 40
0.0
 40
1.0
 40
1.0
 40
1.0
 40
2.0
 40
2.0
 40
2.0
 40
3.0
 40
3.0
 40
3.0
 40
4.0
 40
4.0
 40
4.0
 40
4.0
 10
-28.145827229817705
 20
-1.6658759223090276
 30
0.0
 10
-26.411738416883679
 20
-1.8157375759548608
 30
0.0
 10
-24.830439588758679
 20
-3.1290079752604165
 30
0.0
 10
-24.983401828342011
 20
-4.8529337565104163
 30
0.0
 10
-25.130162896050344
 20
-6.5255276150173609
 30
0.0
 10
-27.313664415147567
 20
-6.794245062934027
 30
0.0
 10
-28.994354248046871
 20
-6.6485175238715275
 30
0.0
 10
-31.341153293185762
 20
-6.4456013997395827
 30
0.0
 10
-34.355784098307289
 20
-5.6718329535590275
 30
0.0
 10
-34.150456407335064
 20
-3.3405368381076386
 30
0.0
 10
-33.954602728949652
 20
-1.1098375108506944
 30
0.0
 10
-30.402192518446178
 20
-1.6228122287326388
 30
0.0
 10
-28.145827229817705
 20
-1.6658759223090276
 30
0.0
  0
SPLINE
  5
5E
100
AcDbEntity
  8
LIVELLO_1
 62
     7
100
AcDbSpline
210
0.0
220
0.0
230
1.0
 70
     8
 71
     3
 72
    20
 73
    16
 74
     0
 42
0.00000001
 43
0.00000001
 40
0.0
 40
0.0
 40
0.0
 40
0.0
 40
1.0
 40
1.0
 40
1.0
 40
2.0
 40
2.0
 40
2.0
 40
3.0
 40
3.0
 40
3.0
 40
4.0
 40
4.0
 40
4.0
 40
5.0
 40
5.0
 40
5.0
 40
5.0
 10
-24.431325276692707
 20
4.907366265190972
 30
0.0
 10
-25.605241563585068
 20
5.0096856011284716
 30
0.0
 10
-26.570729573567707
 20
3.9671997070312495
 30
0.0
 10
-26.671326361762151
 20
2.8058580186631943
 30
0.0
 10
-26.756420220269096
 20
1.8391642252604166
 30
0.0
 10
-26.806718614366318
 20
1.2831258138020831
 30
0.0
 10
-26.889917670355899
 20
0.3184990776909722
 30
0.0
 10
-26.023820665147568
 20
0.2427069769965278
 30
0.0
 10
-25.565278455946178
 20
0.2037773980034722
 30
0.0
 10
-24.699181450737846
 20
0.1297078450520833
 30
0.0
 10
-23.065689425998261
 20
-0.01395263671875
 30
0.0
 10
-20.873919677734374
 20
-0.2048109266493055
 30
0.0
 10
-20.732326253255206
 20
1.4185180664062498
 30
0.0
 10
-20.556798638237844
 20
3.3946248372395829
 30
0.0
 10
-22.443849690755208
 20
4.7347669813368052
 30
0.0
 10
-24.431325276692707
 20
4.907366265190972
 30
0.0
  0
SPLINE
  5
5D
100
AcDbEntity
  8
LIVELLO_1
 62
     7
100
AcDbSpline
210
0.0
220
0.0
230
1.0
 70
     8
 71
     3
 72
    17
 73
    13
 74
     0
 42
0.00000001
 43
0.00000001
 40
0.0
 40
0.0
 40
0.0
 40
0.0
 40
1.0
 40
1.0
 40
1.0
 40
2.0
 40
2.0
 40
2.0
 40
3.0
 40
3.0
 40
3.0
 40
4.0
 40
4.0
 40
4.0
 40
4.0
 10
-16.182560899522567
 20
6.4338880750868048
 30
0.0
 10
-15.144209120008679
 20
5.3752102322048607
 30
0.0
 10
-14.655694580078123
 20
4.515314398871527
 30
0.0
 10
-13.839034695095485
 20
3.2675008138020831
 30
0.0
 10
-14.962480333116318
 20
2.1922865125868052
 30
0.0
 10
-16.156894938151041
 20
2.0403578016493054
 30
0.0
 10
-17.738193766276041
 20
2.1778171115451386
 30
0.0
 10
-19.01253458658854
 20
2.2887491861979163
 30
0.0
 10
-20.503399658203122
 20
2.8775160047743054
 30
0.0
 10
-20.390572781032983
 20
4.1460001627604166
 30
0.0
 10
-20.257247585720485
 20
5.6666653103298605
 30
0.0
 10
-17.710460747612846
 20
6.5675577799479159
 30
0.0
 10
-16.182560899522567
 20
6.4338880750868048
 30
0.0
  0
SPLINE
  5
5C
100
AcDbEntity
  8
LIVELLO_1
 62
     7
100
AcDbSpline
210
0.0
220
0.0
230
1.0
 70
     8
 71
     3
 72
    14
 73
    10
 74
     0
 42
0.00000001
 43
0.00000001
 40
0.0
 40
0.0
 40
0.0
 40
0.0
 40
1.0
 40
1.0
 40
1.0
 40
2.0
 40
2.0
 40
2.0
 40
3.0
 40
3.0
 40
3.0
 40
3.0
 10
-8.1368849012586804
 20
7.7740302191840271
 30
0.0
 10
-8.2846794976128457
 20
6.1017808702256939
 30
0.0
 10
-10.052702501085069
 20
5.2849487304687495
 30
0.0
 10
-11.734425862630207
 20
5.4306762695312498
 30
0.0
 10
-13.41718275282118
 20
5.5781263563368046
 30
0.0
 10
-14.452606201171873
 20
7.2507202148437493
 30
0.0
 10
-14.30584513346354
 20
8.9233140733506939
 30
0.0
 10
-14.09035441080729
 20
11.357274034288194
 30
0.0
 10
-7.9234612358940968
 20
10.207990180121527
 30
0.0
 10
-8.1368849012586804
 20
7.7740302191840271
 30
0.0
  0
SPLINE
  5
5B
100
AcDbEntity
  8
LIVELLO_1
 62
     7
100
AcDbSpline
210
0.0
220
0.0
230
1.0
 70
     8
 71
     3
 72
    20
 73
    16
 74
     0
 42
0.00000001
 43
0.00000001
 40
0.0
 40
0.0
 40
0.0
 40
0.0
 40
1.0
 40
1.0
 40
1.0
 40
2.0
 40
2.0
 40
2.0
 40
3.0
 40
3.0
 40
3.0
 40
4.0
 40
4.0
 40
4.0
 40
5.0
 40
5.0
 40
5.0
 40
5.0
 10
-1.7515726725260414
 20
7.6775675455729155
 30
0.0
 10
-1.8521694607204859
 20
6.5427530924479163
 30
0.0
 10
-2.766325547960069
 20
6.183774142795138
 30
0.0
 10
-3.3780022515190971
 20
5.2704793294270829
 30
0.0
 10
-3.3780022515190971
 20
5.2704793294270829
 30
0.0
 10
-8.0795240614149293
 20
3.4152954101562498
 30
0.0
 10
-8.0795240614149293
 20
3.4152954101562498
 30
0.0
 10
-8.018890380859375
 20
4.110860188802083
 30
0.0
 10
-6.8718458387586798
 20
6.7174194335937498
 30
0.0
 10
-6.8091451009114579
 20
7.412984212239583
 30
0.0
 10
-6.6859829372829855
 20
8.8085923936631936
 30
0.0
 10
-5.4547058105468746
 20
9.754615614149305
 30
0.0
 10
-4.054102240668402
 20
9.6312811957465261
 30
0.0
 10
-2.9130866156684023
 20
9.5327514648437486
 30
0.0
 10
-1.6530429416232637
 20
8.8106594509548604
 30
0.0
 10
-1.7515726725260414
 20
7.6775675455729155
 30
0.0
  0
SPLINE
  5
5A
100
AcDbEntity
  8
LIVELLO_1
 62
     7
100
AcDbSpline
210
0.0
220
0.0
230
1.0
 70
     8
 71
     3
 72
    20
 73
    16
 74
     0
 42
0.00000001
 43
0.00000001
 40
0.0
 40
0.0
 40
0.0
 40
0.0
 40
1.0
 40
1.0
 40
1.0
 40
2.0
 40
2.0
 40
2.0
 40
3.0
 40
3.0
 40
3.0
 40
4.0
 40
4.0
 40
4.0
 40
5.0
 40
5.0
 40
5.0
 40
5.0
 10
-21.43099161783854
 20
-1.1980319552951388
 30
0.0
 10
-18.958102077907984
 20
-2.2015882703993053
 30
0.0
 10
-16.247156439887153
 20
-3.4903984917534721
 30
0.0
 10
-16.483145480685764
 20
-6.1910088433159718
 30
0.0
 10
-16.55411444769965
 20
-6.9751125759548609
 30
0.0
 10
-17.436403401692708
 20
-6.9871704101562493
 30
0.0
 10
-18.008978271484374
 20
-7.4632826063368052
 30
0.0
 10
-18.008978271484374
 20
-7.4632826063368052
 30
0.0
 10
-23.002988688151039
 20
-7.0302341037326386
 30
0.0
 10
-23.002988688151039
 20
-7.0302341037326386
 30
0.0
 10
-22.997821044921874
 20
-5.9756903754340271
 30
0.0
 10
-23.208316379123261
 20
-5.341448296440972
 30
0.0
 10
-23.117882622612846
 20
-4.296895345052083
 30
0.0
 10
-22.994892713758677
 20
-2.9033542209201388
 30
0.0
 10
-22.143092854817706
 20
-2.2753133138020831
 30
0.0
 10
-21.43099161783854
 20
-1.1980319552951388
 30
0.0
  0
SPLINE
  5
59
100
AcDbEntity
  8
LIVELLO_1
 62
     7
100
AcDbSpline
210
0.0
220
0.0
230
1.0
 70
     8
 71
     3
 72
    23
 73
    19
 74
     0
 42
0.00000001
 43
0.00000001
 40
0.0
 40
0.0
 40
0.0
 40
0.0
 40
1.0
 40
1.0
 40
1.0
 40
2.0
 40
2.0
 40
2.0
 40
3.0
 40
3.0
 40
3.0
 40
4.0
 40
4.0
 40
4.0
 40
5.0
 40
5.0
 40
5.0
 40
6.0
 40
6.0
 40
6.0
 40
6.0
 10
12.183838568793401
 20
-6.1069485134548609
 30
0.0
 10
13.596672227647568
 20
-7.1084377712673605
 30
0.0
 10
14.109646945529512
 20
-8.2945841471354154
 30
0.0
 10
14.67326456705729
 20
-9.9241143120659707
 30
0.0
 10
14.67326456705729
 20
-9.9241143120659707
 30
0.0
 10
14.201286485460068
 20
-11.286649576822915
 30
0.0
 10
14.201286485460068
 20
-11.286649576822915
 30
0.0
 10
13.586336941189234
 20
-11.235317654079861
 30
0.0
 10
13.14743177625868
 20
-11.196388075086805
 30
0.0
 10
12.535755072699653
 20
-11.142989095052082
 30
0.0
 10
10.607707383897569
 20
-10.976590983072915
 30
0.0
 10
9.0891092936197904
 20
-9.1748060438368046
 30
0.0
 10
9.2574022081163179
 20
-7.2582994249131936
 30
0.0
 10
9.3333665635850682
 20
-6.3880683051215268
 30
0.0
 10
10.225990804036458
 20
-6.2895385742187493
 30
0.0
 10
10.812001546223957
 20
-5.6391045464409721
 30
0.0
 10
10.812001546223957
 20
-5.6391045464409721
 30
0.0
 10
12.183838568793401
 20
-6.1069485134548609
 30
0.0
 10
12.183838568793401
 20
-6.1069485134548609
 30
0.0
  0
SPLINE
  5
58
100
AcDbEntity
  8
LIVELLO_1
 62
     7
100
AcDbSpline
210
0.0
220
0.0
230
1.0
 70
     8
 71
     3
 72
    17
 73
    13
 74
     0
 42
0.00000001
 43
0.00000001
 40
0.0
 40
0.0
 40
0.0
 40
0.0
 40
1.0
 40
1.0
 40
1.0
 40
2.0
 40
2.0
 40
2.0
 40
3.0
 40
3.0
 40
3.0
 40
4.0
 40
4.0
 40
4.0
 40
4.0
 10
19.462980821397569
 20
-8.7951565212673604
 30
0.0
 10
17.708393690321181
 20
-8.6411607530381929
 30
0.0
 10
16.133296034071179
 20
-8.8895521375868043
 30
0.0
 10
15.292003716362846
 20
-7.4098836263020829
 30
0.0
 10
15.292003716362846
 20
-7.4098836263020829
 30
0.0
 10
15.927968343098957
 20
-4.5986857096354159
 30
0.0
 10
15.927968343098957
 20
-4.5986857096354159
 30
0.0
 10
17.792454020182291
 20
-4.4980889214409716
 30
0.0
 10
18.657517496744791
 20
-5.0193318684895827
 30
0.0
 10
20.455168321397569
 20
-4.6476060655381941
 30
0.0
 10
20.455168321397569
 20
-4.6476060655381941
 30
0.0
 10
22.0033942328559
 20
-9.01495361328125
 30
0.0
 10
19.462980821397569
 20
-8.7951565212673604
 30
0.0
  0
SPLINE
  5
57
100
AcDbEntity
  8
LIVELLO_1
 62
     7
100
AcDbSpline
210
0.0
220
0.0
230
1.0
 70
     8
 71
     3
 72
    14
 73
    10
 74
     0
 42
0.00000001
 43
0.00000001
 40
0.0
 40
0.0
 40
0.0
 40
0.0
 40
1.0
 40
1.0
 40
1.0
 40
2.0
 40
2.0
 40
2.0
 40
3.0
 40
3.0
 40
3.0
 40
3.0
 10
14.039022488064235
 20
1.8557006835937497
 30
0.0
 10
13.41098158094618
 20
1.7323662651909721
 30
0.0
 10
12.925567626953123
 20
1.248330349392361
 30
0.0
 10
12.224835205078124
 20
1.3096530490451388
 30
0.0
 10
10.386187744140624
 20
1.4698499891493053
 30
0.0
 10
9.6473870171440961
 20
3.1135050455729165
 30
0.0
 10
9.0040154351128461
 20
4.839497884114583
 30
0.0
 10
11.233681233723956
 20
5.0837551540798609
 30
0.0
 10
13.06716105143229
 20
3.8707370334201388
 30
0.0
 10
14.039022488064235
 20
1.8557006835937497
 30
0.0
  0
SPLINE
  5
56
100
AcDbEntity
  8
LIVELLO_1
 62
     7
100
AcDbSpline
210
0.0
220
0.0
230
1.0
 70
     8
 71
     3
 72
    23
 73
    19
 74
     0
 42
0.00000001
 43
0.00000001
 40
0.0
 40
0.0
 40
0.0
 40
0.0
 40
1.0
 40
1.0
 40
1.0
 40
2.0
 40
2.0
 40
2.0
 40
3.0
 40
3.0
 40
3.0
 40
4.0
 40
4.0
 40
4.0
 40
5.0
 40
5.0
 40
5.0
 40
6.0
 40
6.0
 40
6.0
 40
6.0
 10
13.064060465494791
 20
8.8371866861979154
 30
0.0
 10
13.001704237196179
 20
8.1395548502604154
 30
0.0
 10
14.054525417751735
 20
8.0472262912326382
 30
0.0
 10
13.993891737196179
 20
7.3513170030381936
 30
0.0
 10
13.823359510633679
 20
5.4348103841145825
 30
0.0
 10
10.906397162543401
 20
6.3908243815104164
 30
0.0
 10
8.9936801486545139
 20
6.7336113823784718
 30
0.0
 10
8.8725850423177075
 20
7.3575181749131939
 30
0.0
 10
8.383209228515625
 20
7.8377644856770825
 30
0.0
 10
8.4457377115885404
 20
8.5353963216145825
 30
0.0
 10
8.5082661946614575
 20
9.2333726671006939
 30
0.0
 10
9.0717115614149293
 20
9.6230129665798607
 30
0.0
 10
9.3004659016927071
 20
10.216258409288194
 30
0.0
 10
9.3004659016927071
 20
10.216258409288194
 30
0.0
 10
12.453761800130208
 20
9.9413397894965261
 30
0.0
 10
12.453761800130208
 20
9.9413397894965261
 30
0.0
 10
12.453761800130208
 20
9.9413397894965261
 30
0.0
 10
13.064060465494791
 20
8.8371866861979154
 30
0.0
 10
13.064060465494791
 20
8.8371866861979154
 30
0.0
  0
SPLINE
  5
55
100
AcDbEntity
  8
LIVELLO_1
 62
     7
100
AcDbSpline
210
0.0
220
0.0
230
1.0
 70
     8
 71
     3
 72
    17
 73
    13
 74
     0
 42
0.00000001
 43
0.00000001
 40
0.0
 40
0.0
 40
0.0
 40
0.0
 40
1.0
 40
1.0
 40
1.0
 40
2.0
 40
2.0
 40
2.0
 40
3.0
 40
3.0
 40
3.0
 40
4.0
 40
4.0
 40
4.0
 40
4.0
 10
11.405074734157985
 20
-0.1741495768229167
 30
0.0
 10
10.243560791015623
 20
-0.3360690646701389
 30
0.0
 10
8.87361857096354
 20
-0.8328518337673611
 30
0.0
 10
8.7680263943142354
 20
-2.0496595594618054
 30
0.0
 10
8.676559109157985
 20
-3.0942125108506944
 30
0.0
 10
8.9034186469184018
 20
-4.5204820421006939
 30
0.0
 10
9.9562398274739579
 20
-4.6107435438368052
 30
0.0
 10
11.972481960720485
 20
-4.7874769422743055
 30
0.0
 10
14.288447401258679
 20
-4.5494208441840271
 30
0.0
 10
14.725630018446179
 20
-2.5688354492187497
 30
0.0
 10
15.040511745876735
 20
-1.01544189453125
 30
0.0
 10
12.762614610460068
 20
-0.8183824327256943
 30
0.0
 10
11.405074734157985
 20
-0.1741495768229167
 30
0.0
  0
SPLINE
  5
54
100
AcDbEntity
  8
LIVELLO_1
 62
     7
100
AcDbSpline
210
0.0
220
0.0
230
1.0
 70
     8
 71
     3
 72
    23
 73
    19
 74
     0
 42
0.00000001
 43
0.00000001
 40
0.0
 40
0.0
 40
0.0
 40
0.0
 40
1.0
 40
1.0
 40
1.0
 40
2.0
 40
2.0
 40
2.0
 40
3.0
 40
3.0
 40
3.0
 40
4.0
 40
4.0
 40
4.0
 40
5.0
 40
5.0
 40
5.0
 40
6.0
 40
6.0
 40
6.0
 40
6.0
 10
6.6778869628906241
 20
8.4761406792534721
 30
0.0
 10
6.6778869628906241
 20
8.4761406792534721
 30
0.0
 10
7.2564907497829854
 20
7.020932345920138
 30
0.0
 10
7.2564907497829854
 20
7.020932345920138
 30
0.0
 10
5.6025004069010409
 20
6.2864379882812491
 30
0.0
 10
4.3875874837239577
 20
5.5147365993923607
 30
0.0
 10
2.5456671820746526
 20
5.6745890299479163
 30
0.0
 10
1.6683736165364582
 20
5.7486585828993046
 30
0.0
 10
0.4002339680989583
 20
4.6651760525173609
 30
0.0
 10
-0.3662997775607639
 20
4.9934936523437496
 30
0.0
 10
-0.3662997775607639
 20
4.9934936523437496
 30
0.0
 10
0.6567213270399305
 20
8.2952731662326382
 30
0.0
 10
0.6567213270399305
 20
8.2952731662326382
 30
0.0
 10
2.1527540418836804
 20
9.2189032660590264
 30
0.0
 10
3.5841912163628469
 20
9.444557020399305
 30
0.0
 10
5.3665113661024302
 20
9.64161648220486
 30
0.0
 10
5.3665113661024302
 20
9.64161648220486
 30
0.0
 10
6.6778869628906241
 20
8.4761406792534721
 30
0.0
 10
6.6778869628906241
 20
8.4761406792534721
 30
0.0
  0
SPLINE
  5
53
100
AcDbEntity
  8
LIVELLO_1
 62
     7
100
AcDbSpline
210
0.0
220
0.0
230
1.0
 70
     8
 71
     3
 72
    23
 73
    19
 74
     0
 42
0.00000001
 43
0.00000001
 40
0.0
 40
0.0
 40
0.0
 40
0.0
 40
1.0
 40
1.0
 40
1.0
 40
2.0
 40
2.0
 40
2.0
 40
3.0
 40
3.0
 40
3.0
 40
4.0
 40
4.0
 40
4.0
 40
5.0
 40
5.0
 40
5.0
 40
6.0
 40
6.0
 40
6.0
 40
6.0
 10
-12.687683783637151
 20
0.1462443033854167
 30
0.0
 10
-12.687683783637151
 20
0.1462443033854167
 30
0.0
 10
-12.490624321831596
 20
-1.6228122287326388
 30
0.0
 10
-12.490624321831596
 20
-1.6228122287326388
 30
0.0
 10
-13.580480278862845
 20
-1.9676662868923609
 30
0.0
 10
-14.303778076171874
 20
-2.1667928059895831
 30
0.0
 10
-15.387432861328124
 20
-2.4251749674479166
 30
0.0
 10
-15.387432861328124
 20
-2.4251749674479166
 30
0.0
 10
-16.758236355251736
 20
-1.9531968858506943
 30
0.0
 10
-16.758236355251736
 20
-1.9531968858506943
 30
0.0
 10
-16.758236355251736
 20
-1.9531968858506943
 30
0.0
 10
-17.335978868272569
 20
-0.4983330620659722
 30
0.0
 10
-17.335978868272569
 20
-0.4983330620659722
 30
0.0
 10
-17.335978868272569
 20
-0.4983330620659722
 30
0.0
 10
-15.490957980685762
 20
0.3946356879340278
 30
0.0
 10
-15.490957980685762
 20
0.3946356879340278
 30
0.0
 10
-15.490957980685762
 20
0.3946356879340278
 30
0.0
 10
-14.329444037543402
 20
0.5544881184895832
 30
0.0
 10
-12.687683783637151
 20
0.1462443033854167
 30
0.0
  0
SPLINE
  5
52
100
AcDbEntity
  8
LIVELLO_1
 62
     7
100
AcDbSpline
210
0.0
220
0.0
230
1.0
 70
     8
 71
     3
 72
    20
 73
    16
 74
     0
 42
0.00000001
 43
0.00000001
 40
0.0
 40
0.0
 40
0.0
 40
0.0
 40
1.0
 40
1.0
 40
1.0
 40
2.0
 40
2.0
 40
2.0
 40
3.0
 40
3.0
 40
3.0
 40
4.0
 40
4.0
 40
4.0
 40
5.0
 40
5.0
 40
5.0
 40
5.0
 10
-6.2407043457031248
 20
1.8370971679687498
 30
0.0
 10
-6.2520731608072913
 20
0.6960815429687499
 30
0.0
 10
-6.0508795844184018
 20
-0.0222208658854167
 30
0.0
 10
-5.7912916395399296
 20
-1.0974351671006943
 30
0.0
 10
-7.1612338595920129
 20
-1.5942179361979165
 30
0.0
 10
-7.7543070475260407
 20
-2.3307793511284722
 30
0.0
 10
-9.1559441460503468
 20
-2.209856499565972
 30
0.0
 10
-9.7705491807725693
 20
-2.1564575195312496
 30
0.0
 10
-10.208593071831597
 20
-2.1195949978298607
 30
0.0
 10
-10.822336832682291
 20
-2.0661960177951388
 30
0.0
 10
-10.855065239800346
 20
-1.4464233398437498
 30
0.0
 10
-11.812457275390624
 20
-1.2758911132812498
 30
0.0
 10
-11.749928792317707
 20
-0.5782592773437499
 30
0.0
 10
-11.543567572699653
 20
1.7716403537326386
 30
0.0
 10
-8.5751010470920139
 20
2.3914130316840274
 30
0.0
 10
-6.2407043457031248
 20
1.8370971679687498
 30
0.0
  0
SPLINE
  5
51
100
AcDbEntity
  8
LIVELLO_1
 62
     7
100
AcDbSpline
210
0.0
220
0.0
230
1.0
 70
     8
 71
     3
 72
    20
 73
    16
 74
     0
 42
0.00000001
 43
0.00000001
 40
0.0
 40
0.0
 40
0.0
 40
0.0
 40
1.0
 40
1.0
 40
1.0
 40
2.0
 40
2.0
 40
2.0
 40
3.0
 40
3.0
 40
3.0
 40
4.0
 40
4.0
 40
4.0
 40
5.0
 40
5.0
 40
5.0
 40
5.0
 10
-11.302410888671874
 20
-4.1838962131076389
 30
0.0
 10
-11.302410888671874
 20
-4.1838962131076389
 30
0.0
 10
-6.7373148600260411
 20
-4.493954806857638
 30
0.0
 10
-6.7373148600260411
 20
-4.493954806857638
 30
0.0
 10
-6.8296434190538191
 20
-5.538507758246527
 30
0.0
 10
-6.8768412272135411
 20
-6.0618177625868048
 30
0.0
 10
-6.9683085123697914
 20
-7.1063707139756938
 30
0.0
 10
-7.3448574490017355
 20
-11.374844021267361
 30
0.0
 10
-12.886810302734373
 20
-11.155391438802083
 30
0.0
 10
-17.210749647352429
 20
-11.130586751302083
 30
0.0
 10
-16.951161702473957
 20
-8.1712497287326382
 30
0.0
 10
-15.326799180772568
 20
-5.7641615125868046
 30
0.0
 10
-12.446527099609375
 20
-5.1381876627604166
 30
0.0
 10
-12.446527099609375
 20
-5.1381876627604166
 30
0.0
 10
-11.302410888671874
 20
-4.1838962131076389
 30
0.0
 10
-11.302410888671874
 20
-4.1838962131076389
 30
0.0
  0
POLYLINE
  5
4A
100
AcDbEntity
  8
LIVELLO_1
 62
     7
100
AcDb2dPolyline
 66
     1
 10
0.0
 20
0.0
 30
0.0
 70
     1
  0
VERTEX
  5
4B
100
AcDbEntity
  8
LIVELLO_1
 62
     7
100
AcDbVertex
100
AcDb2dVertex
 10
-3.895111
 20
-0.264411
 30
0.0
  0
VERTEX
  5
4C
100
AcDbEntity
  8
LIVELLO_1
 62
     7
100
AcDbVertex
100
AcDb2dVertex
 10
-2.552902
 20
-1.080899
 30
0.0
  0
VERTEX
  5
4D
100
AcDbEntity
  8
LIVELLO_1
 62
     7
100
AcDbVertex
100
AcDb2dVertex
 10
-2.325181
 20
-2.509235
 30
0.0
  0
VERTEX
  5
4E
100
AcDbEntity
  8
LIVELLO_1
 62
     7
100
AcDbVertex
100
AcDb2dVertex
 10
-4.139368
 20
-3.051149
 30
0.0
  0
VERTEX
  5
4F
100
AcDbEntity
  8
LIVELLO_1
 62
     7
100
AcDbVertex
100
AcDb2dVertex
 10
-4.687311
 20
-1.249364
 30
0.0
  0
SEQEND
  5
50
100
AcDbEntity
  8
LIVELLO_1
 62
     7
  0
SPLINE
  5
49
100
AcDbEntity
  8
LIVELLO_1
 62
     7
100
AcDbSpline
210
0.0
220
0.0
230
1.0
 70
     8
 71
     3
 72
    23
 73
    19
 74
     0
 42
0.00000001
 43
0.00000001
 40
0.0
 40
0.0
 40
0.0
 40
0.0
 40
1.0
 40
1.0
 40
1.0
 40
2.0
 40
2.0
 40
2.0
 40
3.0
 40
3.0
 40
3.0
 40
4.0
 40
4.0
 40
4.0
 40
5.0
 40
5.0
 40
5.0
 40
6.0
 40
6.0
 40
6.0
 40
6.0
 10
7.4545837402343746
 20
2.5082017686631941
 30
0.0
 10
7.4545837402343746
 20
2.5082017686631941
 30
0.0
 10
8.383209228515625
 20
1.0223320855034721
 30
0.0
 10
8.383209228515625
 20
1.0223320855034721
 30
0.0
 10
7.2061923556857632
 20
0.6857462565104167
 30
0.0
 10
6.5381883409288193
 20
0.1297078450520833
 30
0.0
 10
5.3110453287760411
 20
0.2344387478298611
 30
0.0
 10
4.0857971191406248
 20
0.3433037651909722
 30
0.0
 10
3.4701585557725689
 20
0.3963582356770833
 30
0.0
 10
2.244049072265625
 20
0.5031561957465277
 30
0.0
 10
2.2266513400607635
 20
1.2955281575520832
 30
0.0
 10
2.0018588595920139
 20
1.7530368381076387
 30
0.0
 10
2.0705885145399305
 20
2.5347290039062496
 30
0.0
 10
2.2461161295572913
 20
4.5397745768229161
 30
0.0
 10
4.9129645453559023
 20
4.747169325086805
 30
0.0
 10
6.9149095323350691
 20
4.3981811523437493
 30
0.0
 10
6.9149095323350691
 20
4.3981811523437493
 30
0.0
 10
7.4545837402343746
 20
2.5082017686631941
 30
0.0
 10
7.4545837402343746
 20
2.5082017686631941
 30
0.0
  0
SPLINE
  5
48
100
AcDbEntity
  8
LIVELLO_1
 62
     7
100
AcDbSpline
210
0.0
220
0.0
230
1.0
 70
     8
 71
     3
 72
    26
 73
    22
 74
     0
 42
0.00000001
 43
0.00000001
 40
0.0
 40
0.0
 40
0.0
 40
0.0
 40
1.0
 40
1.0
 40
1.0
 40
2.0
 40
2.0
 40
2.0
 40
3.0
 40
3.0
 40
3.0
 40
4.0
 40
4.0
 40
4.0
 40
5.0
 40
5.0
 40
5.0
 40
6.0
 40
6.0
 40
6.0
 40
7.0
 40
7.0
 40
7.0
 40
7.0
 10
-1.5350484212239581
 20
2.2515421549479164
 30
0.0
 10
-1.5350484212239581
 20
2.2515421549479164
 30
0.0
 10
0.1866380479600694
 20
1.7509697808159721
 30
0.0
 10
0.1866380479600694
 20
1.7509697808159721
 30
0.0
 10
0.1866380479600694
 20
1.7509697808159721
 30
0.0
 10
0.4134975857204861
 20
0.3267673068576389
 30
0.0
 10
0.4134975857204861
 20
0.3267673068576389
 30
0.0
 10
-0.4710306803385416
 20
0.3164320203993055
 30
0.0
 10
-1.0200066460503472
 20
0.1011135525173611
 30
0.0
 10
-1.8941996256510414
 20
0.1769056532118055
 30
0.0
 10
-2.8577928331163194
 20
0.2609659830729166
 30
0.0
 10
-3.0383158365885414
 20
1.2421291775173611
 30
0.0
 10
-3.7001186794704859
 20
1.7385674370659721
 30
0.0
 10
-3.7001186794704859
 20
1.7385674370659721
 30
0.0
 10
-3.5688605414496526
 20
3.2203030056423607
 30
0.0
 10
-3.5688605414496526
 20
3.2203030056423607
 30
0.0
 10
-3.5688605414496526
 20
3.2203030056423607
 30
0.0
 10
-2.1055562337239579
 20
3.7949449327256941
 30
0.0
 10
-2.1055562337239579
 20
3.7949449327256941
 30
0.0
 10
-2.1055562337239579
 20
3.7949449327256941
 30
0.0
 10
-1.5350484212239581
 20
2.2515421549479164
 30
0.0
 10
-1.5350484212239581
 20
2.2515421549479164
 30
0.0
  0
SPLINE
  5
47
100
AcDbEntity
  8
LIVELLO_1
 62
     7
100
AcDbSpline
210
0.0
220
0.0
230
1.0
 70
     8
 71
     3
 72
    17
 73
    13
 74
     0
 42
0.00000001
 43
0.00000001
 40
0.0
 40
0.0
 40
0.0
 40
0.0
 40
1.0
 40
1.0
 40
1.0
 40
2.0
 40
2.0
 40
2.0
 40
3.0
 40
3.0
 40
3.0
 40
4.0
 40
4.0
 40
4.0
 40
4.0
 10
3.9607401529947914
 20
-9.0228773328993039
 30
0.0
 10
2.5529018825954859
 20
-9.9547756618923611
 30
0.0
 10
1.6170416937934027
 20
-10.57454833984375
 30
0.0
 10
-0.0493509928385417
 20
-10.430887858072916
 30
0.0
 10
-2.151720513237847
 20
-10.248297797309027
 30
0.0
 10
-3.7524841308593748
 20
-8.3521172417534721
 30
0.0
 10
-3.5667934841579858
 20
-6.2609442816840275
 30
0.0
 10
-3.3922993977864579
 20
-4.2579657660590273
 30
0.0
 10
-0.4741312662760416
 20
-2.2281155056423607
 30
0.0
 10
0.9142422146267361
 20
-3.4903984917534721
 30
0.0
 10
2.6236985948350693
 20
-5.1319864908854163
 30
0.0
 10
2.8217915852864581
 20
-6.9031100802951384
 30
0.0
 10
3.9607401529947914
 20
-9.0228773328993039
 30
0.0
  0
LINE
  5
46
100
AcDbEntity
  8
LIVELLO_1
 62
     7
100
AcDbLine
 10
-0.487395
 20
-3.371198
 30
0.0
 11
0.914242
 21
-3.490398
 31
0.0
  0
SPLINE
  5
45
100
AcDbEntity
  8
LIVELLO_1
 62
     7
100
AcDbSpline
210
0.0
220
0.0
230
1.0
 70
     8
 71
     3
 72
    14
 73
    10
 74
     0
 42
0.00000001
 43
0.00000001
 40
0.0
 40
0.0
 40
0.0
 40
0.0
 40
1.0
 40
1.0
 40
1.0
 40
2.0
 40
2.0
 40
2.0
 40
3.0
 40
3.0
 40
3.0
 40
3.0
 10
8.3308437771267361
 20
-6.188941786024305
 30
0.0
 10
7.804433186848958
 20
-6.1438110351562498
 30
0.0
 10
7.5109110514322905
 20
-6.467994520399305
 30
0.0
 10
6.9857062445746525
 20
-6.4228637695312498
 30
0.0
 10
4.0940653483072911
 20
-6.1724053276909716
 30
0.0
 10
2.5560024685329861
 20
-3.5806599934895829
 30
0.0
 10
2.1003885904947914
 20
-0.7322550455729167
 30
0.0
 10
5.3735738118489582
 20
-0.6643866644965277
 30
0.0
 10
7.5562140570746523
 20
-2.9608873155381943
 30
0.0
 10
8.3308437771267361
 20
-6.188941786024305
 30
0.0
  0
ENDBLK
  5
70
100
AcDbEntity
  8
LIVELLO_1
100
AcDbBlockEnd
  0
BLOCK
  5
9D
100
AcDbEntity
  8
LIVELLO_1
 62
     7
100
AcDbBlockBegin
  2
AI9-BLK3
 70
     0
 10
0.0
 20
0.0
 30
0.0
  3
AI9-BLK3
  1

  0
INSERT
  5
A1
100
AcDbEntity
  8
LIVELLO_1
 62
     7
100
AcDbBlockReference
  2
AI9-BLK4
 10
0.0
 20
0.0
 30
0.0
  0
SPLINE
  5
9F
100
AcDbEntity
  8
LIVELLO_1
 62
     7
100
AcDbSpline
210
0.0
220
0.0
230
1.0
 70
     8
 71
     3
 72
    29
 73
    25
 74
     0
 42
0.00000001
 43
0.00000001
 40
0.0
 40
0.0
 40
0.0
 40
0.0
 40
1.0
 40
1.0
 40
1.0
 40
2.0
 40
2.0
 40
2.0
 40
3.0
 40
3.0
 40
3.0
 40
4.0
 40
4.0
 40
4.0
 40
5.0
 40
5.0
 40
5.0
 40
6.0
 40
6.0
 40
6.0
 40
7.0
 40
7.0
 40
7.0
 40
8.0
 40
8.0
 40
8.0
 40
8.0
 10
42.216113959418401
 20
55.0448744032118
 30
0.0
 10
42.216113959418401
 20
55.0448744032118
 30
0.0
 10
24.977545166015624
 20
55.0448744032118
 30
0.0
 10
24.977545166015624
 20
55.0448744032118
 30
0.0
 10
25.304140218098954
 20
55.0448744032118
 30
0.0
 10
25.565622965494789
 20
54.784252929687497
 30
0.0
 10
25.565622965494789
 20
54.462136501736104
 30
0.0
 10
25.565622965494789
 20
54.462136501736104
 30
0.0
 10
25.565622965494789
 20
47.059832085503466
 30
0.0
 10
25.565622965494789
 20
47.059832085503466
 30
0.0
 10
25.565622965494789
 20
46.739782714843749
 30
0.0
 10
25.304140218098954
 20
46.479161241319439
 30
0.0
 10
24.977545166015624
 20
46.479161241319439
 30
0.0
 10
24.977545166015624
 20
46.479161241319439
 30
0.0
 10
23.690112982855901
 20
46.479161241319439
 30
0.0
 10
23.690112982855901
 20
46.479161241319439
 30
0.0
 10
23.690112982855901
 20
46.479161241319439
 30
0.0
 10
23.690112982855901
 20
-56.265816243489581
 30
0.0
 10
23.690112982855901
 20
-56.265816243489581
 30
0.0
 10
23.690112982855901
 20
-56.265816243489581
 30
0.0
 10
42.216113959418401
 20
-56.265816243489581
 30
0.0
 10
42.216113959418401
 20
-56.265816243489581
 30
0.0
 10
42.216113959418401
 20
-56.265816243489581
 30
0.0
 10
42.216113959418401
 20
55.0448744032118
 30
0.0
 10
42.216113959418401
 20
55.0448744032118
 30
0.0
  0
SPLINE
  5
9E
100
AcDbEntity
  8
LIVELLO_1
 62
     7
100
AcDbSpline
210
0.0
220
0.0
230
1.0
 70
     8
 71
     3
 72
    29
 73
    25
 74
     0
 42
0.00000001
 43
0.00000001
 40
0.0
 40
0.0
 40
0.0
 40
0.0
 40
1.0
 40
1.0
 40
1.0
 40
2.0
 40
2.0
 40
2.0
 40
3.0
 40
3.0
 40
3.0
 40
4.0
 40
4.0
 40
4.0
 40
5.0
 40
5.0
 40
5.0
 40
6.0
 40
6.0
 40
6.0
 40
7.0
 40
7.0
 40
7.0
 40
8.0
 40
8.0
 40
8.0
 40
8.0
 10
-42.112588840060759
 20
55.0448744032118
 30
0.0
 10
-42.112588840060759
 20
55.0448744032118
 30
0.0
 10
-24.873158772786457
 20
55.0448744032118
 30
0.0
 10
-24.873158772786457
 20
55.0448744032118
 30
0.0
 10
-25.197342258029511
 20
55.0448744032118
 30
0.0
 10
-25.460030788845483
 20
54.784252929687497
 30
0.0
 10
-25.460030788845483
 20
54.462136501736104
 30
0.0
 10
-25.460030788845483
 20
54.462136501736104
 30
0.0
 10
-25.460030788845483
 20
47.059832085503466
 30
0.0
 10
-25.460030788845483
 20
47.059832085503466
 30
0.0
 10
-25.460030788845483
 20
46.739782714843749
 30
0.0
 10
-25.197342258029511
 20
46.479161241319439
 30
0.0
 10
-24.873158772786457
 20
46.479161241319439
 30
0.0
 10
-24.873158772786457
 20
46.479161241319439
 30
0.0
 10
-23.584348551432289
 20
46.479161241319439
 30
0.0
 10
-23.584348551432289
 20
46.479161241319439
 30
0.0
 10
-23.584348551432289
 20
46.479161241319439
 30
0.0
 10
-23.586415608723957
 20
-56.265816243489581
 30
0.0
 10
-23.586415608723957
 20
-56.265816243489581
 30
0.0
 10
-23.586415608723957
 20
-56.265816243489581
 30
0.0
 10
-42.112588840060759
 20
-56.265816243489581
 30
0.0
 10
-42.112588840060759
 20
-56.265816243489581
 30
0.0
 10
-42.112588840060759
 20
-56.265816243489581
 30
0.0
 10
-42.112588840060759
 20
55.0448744032118
 30
0.0
 10
-42.112588840060759
 20
55.0448744032118
 30
0.0
  0
ENDBLK
  5
A8
100
AcDbEntity
  8
LIVELLO_1
100
AcDbBlockEnd
  0
BLOCK
  5
A2
100
AcDbEntity
  8
LIVELLO_1
 62
     7
100
AcDbBlockBegin
  2
AI9-BLK4
 70
     0
 10
0.0
 20
0.0
 30
0.0
  3
AI9-BLK4
  1

  0
INSERT
  5
A4
100
AcDbEntity
  8
LIVELLO_1
 62
     7
100
AcDbBlockReference
  2
AI9-BLK5
 10
-0.044097
 20
-0.016364
 30
0.0
  0
ENDBLK
  5
A7
100
AcDbEntity
  8
LIVELLO_1
100
AcDbBlockEnd
  0
BLOCK
  5
A5
100
AcDbEntity
  8
LIVELLO_1
 62
     7
100
AcDbBlockBegin
  2
AI9-BLK5
 70
     0
 10
0.0
 20
0.0
 30
0.0
  3
AI9-BLK5
  1

  0
ENDBLK
  5
A6
100
AcDbEntity
  8
LIVELLO_1
100
AcDbBlockEnd
  0
ENDSEC
  0
SECTION
  2
ENTITIES
  0
INSERT
  5
2A
100
AcDbEntity
  8
LIVELLO_1
 62
     7
100
AcDbBlockReference
  2
AI9-BLK1
 10
97.677242
 20
157.094632
 30
0.0
  0
ENDSEC
  0
SECTION
  2
OBJECTS
  0
DICTIONARY
  5
19
100
AcDbDictionary
280
     0
281
     1
  3
ACAD_GROUP
350
1A
  3
ACAD_MLINESTYLE
350
1B
  3
ACAD_LAYOUT
350
1E
  3
ACAD_PLOTSETTINGS
350
22
  3
ACAD_PLOTSTYLENAME
350
1F
  3
ACAD_WIPEOUT_VARS
350
23
  0
DICTIONARY
  5
1A
102
{ACAD_REACTORS
330
19
102
}
100
AcDbDictionary
280
     0
281
     1
  0
DICTIONARY
  5
1B
102
{ACAD_REACTORS
330
19
102
}
100
AcDbDictionary
280
     0
281
     1
  3
Standard
350
1C
  0
MLINESTYLE
  5
1C
102
{ACAD_REACTORS
330
1B
102
}
100
AcDbMlineStyle
  2
Standard
 70
     0
  3

 62
     0
 51
90.0
 52
90.0
 71
     2
 49
0.5
 62
   256
  6
ByLayer
 49
-0.5
 62
   256
  6
ByLayer
  0
ACDBDICTIONARYWDFLT
  5
1F
102
{ACAD_REACTORS
330
19
102
}
100
AcDbDictionary
281
     1
  3
Normal
350
1D
100
AcDbDictionaryWithDefault
340
1D
  0
ACDBPLACEHOLDER
  5
1D
102
{ACAD_REACTORS
330
1F
102
}
  0
LAYOUT
  5
20
102
{ACAD_REACTORS
330
1E
102
}
100
AcDbPlotSettings
  1

  2

  4

  6

 40
0.0
 41
0.0
 42
0.0
 43
0.0
 44
0.0
 45
0.0
 46
0.0
 47
0.0
 48
0.0
 49
0.0
140
0.0
141
0.0
142
1.0
143
1.0
 70
  1024
 72
     0
 73
     0
 74
     0
  7

 75
     0
147
1.0
148
0.0
149
0.0
100
AcDbLayout
  1
Model
 70
     0
 71
     0
 10
0.0
 20
0.0
 11
0.0
 21
0.0
 12
0.0
 22
0.0
 32
0.0
 14
0.0
 24
0.0
 34
0.0
 15
0.0
 25
0.0
 35
0.0
146
0.0
 13
0.0
 23
0.0
 33
0.0
 16
0.0
 26
0.0
 36
0.0
 17
0.0
 27
0.0
 37
0.0
 76
     0
330
A
331
0
345
0
346
0
  0
LAYOUT
  5
21
102
{ACAD_REACTORS
330
1E
102
}
100
AcDbPlotSettings
  1

  2

  4

  6

 40
0.0
 41
0.0
 42
0.0
 43
0.0
 44
0.0
 45
0.0
 46
0.0
 47
0.0
 48
0.0
 49
0.0
140
0.0
141
0.0
142
1.0
143
1.0
 70
     0
 72
     0
 73
     0
 74
     0
  7

 75
     0
147
1.0
148
0.0
149
0.0
100
AcDbLayout
  1
Layout1
 70
     0
 71
     0
 10
0.0
 20
0.0
 11
0.0
 21
0.0
 12
0.0
 22
0.0
 32
0.0
 14
0.0
 24
0.0
 34
0.0
 15
0.0
 25
0.0
 35
0.0
146
0.0
 13
0.0
 23
0.0
 33
0.0
 16
0.0
 26
0.0
 36
0.0
 17
0.0
 27
0.0
 37
0.0
 76
     0
330
B
331
0
345
0
346
0
  0
DICTIONARY
  5
1E
102
{ACAD_REACTORS
330
19
102
}
100
AcDbDictionary
280
     0
281
     1
  3
Layout1
350
21
  3
Model
350
20
  0
DICTIONARY
  5
22
102
{ACAD_REACTORS
330
19
102
}
100
AcDbDictionary
280
     0
281
     1
  0
WIPEOUTVARIABLES
  5
23
100
AcDbWipeoutVariables
 70
     1
  0
ENDSEC
  0
EOF
