  0
SECTION
  2
HEADER
  9
$ACADVER
  1
AC1015
  9
$ACADMAINTVER
 70
     6
  9
$DWGCODEPAGE
  3
ANSI_932
  9
$INSBASE
 10
0.0
 20
0.0
 30
0.0
  9
$EXTMIN
 10
17.740691
 20
57.611987
 30
1.000000E+20
  9
$EXTMAX
 10
125.024238
 20
275.767836
 30
-1.000000E+20
  9
$LIMMIN
 10
17.740691
 20
57.611987
  9
$LIMMAX
 10
125.024238
 20
275.767836
  9
$ORTHOMODE
 70
     0
  9
$REGENMODE
 70
     1
  9
$FILLMODE
 70
     1
  9
$QTEXTMODE
 70
     0
  9
$MIRRTEXT
 70
     1
  9
$LTSCALE
 40
1.0
  9
$ATTMODE
 70
     1
  9
$TEXTSIZE
 40
0.2
  9
$TRACEWID
 40
0.05
  9
$TEXTSTYLE
  7
Standard
  9
$CLAYER
  8
0
  9
$CELTYPE
  6
Continuous
  9
$CECOLOR
 62
   256
  9
$CELTSCALE
 40
1.0
  9
$DISPSILH
 70
     0
  9
$DIMSCALE
 40
1.0
  9
$DIMASZ
 40
0.18
  9
$DIMEXO
 40
0.0625
  9
$DIMDLI
 40
0.38
  9
$DIMRND
 40
0.0
  9
$DIMDLE
 40
0.0
  9
$DIMEXE
 40
0.18
  9
$DIMTP
 40
0.0
  9
$DIMTM
 40
0.0
  9
$DIMTXT
 40
0.18
  9
$DIMCEN
 40
0.09
  9
$DIMTSZ
 40
0.0
  9
$DIMTOL
 70
     0
  9
$DIMLIM
 70
     0
  9
$DIMTIH
 70
     1
  9
$DIMTOH
 70
     1
  9
$DIMSE1
 70
     0
  9
$DIMSE2
 70
     0
  9
$DIMTAD
 70
     0
  9
$DIMZIN
 70
     0
  9
$DIMBLK
  1

  9
$DIMASO
 70
     1
  9
$DIMSHO
 70
     1
  9
$DIMPOST
  1

  9
$DIMAPOST
  1

  9
$DIMALT
 70
     0
  9
$DIMALTD
 70
     2
  9
$DIMALTF
 40
25.4
  9
$DIMLFAC
 40
1.0
  9
$DIMTOFL
 70
     0
  9
$DIMTVP
 40
0.0
  9
$DIMTIX
 70
     0
  9
$DIMSOXD
 70
     0
  9
$DIMSAH
 70
     0
  9
$DIMBLK1
  1

  9
$DIMBLK2
  1

  9
$DIMSTYLE
  2
Standard
  9
$DIMCLRD
 70
     0
  9
$DIMCLRE
 70
     0
  9
$DIMCLRT
 70
     0
  9
$DIMTFAC
 40
1.0
  9
$DIMGAP
 40
0.09
  9
$DIMJUST
 70
     0
  9
$DIMSD1
 70
     0
  9
$DIMSD2
 70
     0
  9
$DIMTOLJ
 70
     1
  9
$DIMTZIN
 70
     0
  9
$DIMALTZ
 70
     0
  9
$DIMALTTZ
 70
     0
  9
$DIMUPT
 70
     0
  9
$DIMDEC
 70
     4
  9
$DIMTDEC
 70
     4
  9
$DIMALTU
 70
     2
  9
$DIMALTTD
 70
     2
  9
$DIMTXSTY
  7
Standard
  9
$DIMAUNIT
 70
     0
  9
$DIMADEC
 70
     0
  9
$DIMALTRND
 40
0.0
  9
$DIMAZIN
 70
     0
  9
$DIMDSEP
 70
     0
  9
$DIMATFIT
 70
     3
  9
$DIMFRAC
 70
     0
  9
$DIMLDRBLK
  1

  9
$DIMLUNIT
 70
     2
  9
$DIMLWD
 70
     0
  9
$DIMLWE
 70
     0
  9
$DIMTMOVE
 70
     0
  9
$LUNITS
 70
     2
  9
$LUPREC
 70
     4
  9
$SKETCHINC
 40
0.1
  9
$FILLETRAD
 40
0.0
  9
$AUNITS
 70
     0
  9
$AUPREC
 70
     0
  9
$MENU
  1
acad
  9
$ELEVATION
 40
0.0
  9
$PELEVATION
 40
0.0
  9
$THICKNESS
 40
0.0
  9
$LIMCHECK
 70
     0
  9
$CHAMFERA
 40
0.0
  9
$CHAMFERB
 40
0.0
  9
$CHAMFERC
 40
0.0
  9
$CHAMFERD
 40
0.0
  9
$SKPOLY
 70
     0
  9
$TDCREATE
 40
0.000000000
  9
$TDUCREATE
 40
0.000000000
  9
$TDUPDATE
 40
0.000000000
  9
$TDUUPDATE
 40
0.000000000
  9
$TDINDWG
 40
0.0000000000
  9
$TDUSRTIMER
 40
0.0000000000
  9
$USRTIMER
 70
     1
  9
$ANGBASE
 50
0.0
  9
$ANGDIR
 70
     0
  9
$PDMODE
 70
     0
  9
$PDSIZE
 40
0.0
  9
$PLINEWID
 40
0.0
  9
$SPLFRAME
 70
     0
  9
$SPLINETYPE
 70
     6
  9
$SPLINESEGS
 70
     8
  9
$HANDSEED
  5
11B
  9
$SURFTAB1
 70
     6
  9
$SURFTAB2
 70
     6
  9
$SURFTYPE
 70
     6
  9
$SURFU
 70
     6
  9
$SURFV
 70
     6
  9
$UCSBASE
  2

  9
$UCSNAME
  2

  9
$UCSORG
 10
0.0
 20
0.0
 30
0.0
  9
$UCSXDIR
 10
1.0
 20
0.0
 30
0.0
  9
$UCSYDIR
 10
0.0
 20
1.0
 30
0.0
  9
$UCSORTHOREF
  2

  9
$UCSORTHOVIEW
 70
     0
  9
$UCSORGTOP
 10
0.0
 20
0.0
 30
0.0
  9
$UCSORGBOTTOM
 10
0.0
 20
0.0
 30
0.0
  9
$UCSORGLEFT
 10
0.0
 20
0.0
 30
0.0
  9
$UCSORGRIGHT
 10
0.0
 20
0.0
 30
0.0
  9
$UCSORGFRONT
 10
0.0
 20
0.0
 30
0.0
  9
$UCSORGBACK
 10
0.0
 20
0.0
 30
0.0
  9
$PUCSBASE
  2

  9
$PUCSNAME
  2

  9
$PUCSORG
 10
0.0
 20
0.0
 30
0.0
  9
$PUCSXDIR
 10
1.0
 20
0.0
 30
0.0
  9
$PUCSYDIR
 10
0.0
 20
1.0
 30
0.0
  9
$PUCSORTHOREF
  2

  9
$PUCSORTHOVIEW
 70
     0
  9
$PUCSORGTOP
 10
0.0
 20
0.0
 30
0.0
  9
$PUCSORGBOTTOM
 10
0.0
 20
0.0
 30
0.0
  9
$PUCSORGLEFT
 10
0.0
 20
0.0
 30
0.0
  9
$PUCSORGRIGHT
 10
0.0
 20
0.0
 30
0.0
  9
$PUCSORGFRONT
 10
0.0
 20
0.0
 30
0.0
  9
$PUCSORGBACK
 10
0.0
 20
0.0
 30
0.0
  9
$USERI1
 70
     0
  9
$USERI2
 70
     0
  9
$USERI3
 70
     0
  9
$USERI4
 70
     0
  9
$USERI5
 70
     0
  9
$USERR1
 40
0.0
  9
$USERR2
 40
0.0
  9
$USERR3
 40
0.0
  9
$USERR4
 40
0.0
  9
$USERR5
 40
0.0
  9
$WORLDVIEW
 70
     1
  9
$SHADEDGE
 70
     3
  9
$SHADEDIF
 70
    70
  9
$TILEMODE
 70
     1
  9
$MAXACTVP
 70
    16
  9
$PINSBASE
 10
0.0
 20
0.0
 30
0.0
  9
$PLIMCHECK
 70
     0
  9
$PEXTMIN
 10
1.000000E+20
 20
1.000000E+20
 30
1.000000E+20
  9
$PEXTMAX
 10
-1.000000E+20
 20
-1.000000E+20
 30
-1.000000E+20
  9
$PLIMMIN
 10
0.0
 20
0.0
  9
$PLIMMAX
 10
12.0
 20
9.0
  9
$UNITMODE
 70
     0
  9
$VISRETAIN
 70
     0
  9
$PLINEGEN
 70
     1
  9
$PSLTSCALE
 70
     0
  9
$TREEDEPTH
 70
  3020
  9
$CMLSTYLE
  2
Standard
  9
$CMLJUST
 70
     0
  9
$CMLSCALE
 40
1.0
  9
$PROXYGRAPHICS
 70
     0
  9
$MEASUREMENT
 70
     1
  9
$CELWEIGHT
370
     0
  9
$ENDCAPS
280
     0
  9
$JOINSTYLE
280
     0
  9
$LWDISPLAY
290
     0
  9
$INSUNITS
 70
     0
  9
$HYPERLINKBASE
  1

  9
$STYLESHEET
  1

  9
$XEDIT
290
     1
  9
$CEPSNTYPE
380
     0
  9
$PSTYLEMODE
290
     1
  9
$FINGERPRINTGUID
  2

  9
$VERSIONGUID
  2

  9
$EXTNAMES
290
     1
  9
$PSVPSCALE
 40
0.0
  0
ENDSEC
  0
SECTION
  2
CLASSES
  0
CLASS
  1
LWPOLYLINE
  2
AcDbPolyline
  3
AutoCAD 2000
 90
    32768
280
     0
281
     1
  0
CLASS
  1
IMAGE
  2
AcDbRasterImage
  3
ISM
 90
    32895
280
     0
281
     1
  0
CLASS
  1
OLE2FRAME
  2
AcDbOle2Frame
  3
AutoCAD 2000
 90
    32768
280
     0
281
     1
  0
CLASS
  1
HATCH
  2
AcDbHatch
  3
AutoCAD 2000
 90
    32768
280
     0
281
     1
  0
CLASS
  1
DICTIONARYVAR
  2
AcDbDictionaryVar
  3
AutoCAD 2000
 90
    32768
280
     0
281
     0
  0
CLASS
  1
RASTERVARIABLES
  2
AcDbRasterVariables
  3
ISM
 90
    32768
280
     0
281
     0
  0
CLASS
  1
IMAGEDEF
  2
AcDbRasterImageDef
  3
ISM
 90
    32768
280
     0
281
     0
  0
CLASS
  1
IMAGEDEF_REACTOR
  2
AcDbRasterImageDefReactor
  3
ISM
 90
    32769
280
     0
281
     0
  0
CLASS
  1
IDBUFFER
  2
AcDbIdBuffer
  3
AutoCAD 2000
 90
    32768
280
     0
281
     0
  0
CLASS
  1
SPATIAL_FILTER
  2
AcDbSpatialFilter
  3
AutoCAD 2000
 90
    32768
280
     0
281
     0
  0
CLASS
  1
XRECORD
  2
AcDbXrecord
  3
AutoCAD 2000
 90
    32768
280
     0
281
     0
  0
CLASS
  1
SORTENTSTABLE
  2
AcDbSortentsTable
  3
AutoCAD 2000
 90
    32768
280
     0
281
     0
  0
CLASS
  1
LAYER_INDEX
  2
AcDbLayerIndex
  3
AutoCAD 2000
 90
    32768
280
     0
281
     0
  0
CLASS
  1
SPATIAL_INDEX
  2
AcDbSpatialIndex
  3
AutoCAD 2000
 90
    32768
280
     0
281
     0
  0
CLASS
  1
OBJECT_PTR
  2
CAseDLPNTableRecord
  3
"ASE-LPNTableRecord"
 90
    32769
280
     0
281
     0
  0
CLASS
  1
LAYOUT
  2
AcDbLayout
  3
AutoCAD 2000
 90
        0
280
     0
281
     0
  0
CLASS
  1
PLOTSETTINGS
  2
AcDbPlotSettings
  3
AutoCAD 2000
 90
    32768
280
     0
281
     0
  0
CLASS
  1
ACDBDICTIONARYWDFLT
  2
AcDbDictionaryWithDefault
  3
AutoCAD 2000
 90
        0
280
     0
281
     0
  0
CLASS
  1
ACDBPLACEHOLDER
  2
AcDbPlaceHolder
  3
AutoCAD 2000
 90
        0
280
     0
281
     0
  0
CLASS
  1
VBA_PROJECT
  2
AcDbVbaProject
  3
acadvba
 90
    32768
280
     0
281
     0
  0
CLASS
  1
WIPEOUT
  2
AcDbWipeout
  3
WipeOut|AutoCAD Express Tool|expresstools@autodesk.com
 90
    32895
280
     0
281
     1
  0
CLASS
  1
WIPEOUTVARIABLES
  2
AcDbWipeoutVariables
  3
WipeOut|AutoCAD Express Tool|expresstools@autodesk.com
 90
        0
280
     0
281
     0
  0
CLASS
  1
RTEXT
  2
RText
  3
RText|AutoCAD Express Tool|expresstools@autodesk.com
 90
    32768
280
     0
281
     1
  0
CLASS
  1
ARCALIGNEDTEXT
  2
AcDbArcAlignedText
  3
ATEXT|AutoCAD Express Tool|expresstools@autodesk.com
 90
    32768
280
     0
281
     1
  0
ENDSEC
  0
SECTION
  2
TABLES
  0
TABLE
  2
VPORT
  5
7
100
AcDbSymbolTable
 70
     1
  0
VPORT
  5
15
100
AcDbSymbolTableRecord
100
AcDbViewportTableRecord
  2
*ACTIVE
 70
     0
 10
0.0
 20
0.0
 11
1.0
 21
1.0
 12
6.591288
 22
4.579184
 13
0.0
 23
0.0
 14
1.0
 24
1.0
 15
0.0
 25
0.0
 16
0.0
 26
0.0
 36
1.0
 17
0.0
 27
0.0
 37
0.0
 40
9.158369
 41
0.688564
 42
50.0
 43
0.0
 44
0.0
 50
0.0
 51
0.0
 71
     0
 72
   100
 73
     1
 74
     1
 75
     0
 76
     0
 77
     0
 78
     0
281
     0
 65
     0
110
0.0
120
0.0
130
0.0
111
1.0
121
0.0
131
0.0
112
0.0
122
1.0
132
0.0
345
0
346
0
 79
     0
146
0.0
  0
ENDTAB
  0
TABLE
  2
LTYPE
  5
4
100
AcDbSymbolTable
 70
     3
  0
LTYPE
  5
11
100
AcDbSymbolTableRecord
100
AcDbLinetypeTableRecord
  2
ByBlock
 70
    64
  3

 72
    65
 73
     0
 40
0.0
  0
LTYPE
  5
12
100
AcDbSymbolTableRecord
100
AcDbLinetypeTableRecord
  2
ByLayer
 70
    64
  3

 72
    65
 73
     0
 40
0.0
  0
LTYPE
  5
13
100
AcDbSymbolTableRecord
100
AcDbLinetypeTableRecord
  2
Continuous
 70
    64
  3
Solid line
 72
    65
 73
     0
 40
0.0
  0
ENDTAB
  0
TABLE
  2
LAYER
  5
2
100
AcDbSymbolTable
 70
     2
  0
LAYER
  5
14
100
AcDbSymbolTableRecord
100
AcDbLayerTableRecord
  2
0
 70
     0
 62
     7
  6
Continuous
290
     1
370
    -3
390
1D
  0
LAYER
  5
28
100
AcDbSymbolTableRecord
100
AcDbLayerTableRecord
  2
LIVELLO_1
 70
     0
 62
   160
  6
Continuous
290
     1
370
    -3
390
1D
  0
ENDTAB
  0
TABLE
  2
STYLE
  5
3
100
AcDbSymbolTable
 70
     5
  0
STYLE
  5
17
100
AcDbSymbolTableRecord
100
AcDbTextStyleTableRecord
  2
Standard
 70
     0
 40
0.0
 41
1.0
 50
0.0
 71
     0
 42
0.0
  3
txt
  4

  0
STYLE
  5
24
100
AcDbSymbolTableRecord
100
AcDbTextStyleTableRecord
  2
STD
 70
     0
 40
0.0
 41
1.0
 50
0.0
 71
     0
 42
0.0
  3
txt
  4

  0
STYLE
  5
25
100
AcDbSymbolTableRecord
100
AcDbTextStyleTableRecord
  2
TATESTD
 70
     4
 40
0.0
 41
1.0
 50
0.0
 71
     0
 42
0.0
  3
txt
  4

  0
STYLE
  5
26
100
AcDbSymbolTableRecord
100
AcDbTextStyleTableRecord
  2
KANJISTD
 70
     0
 40
0.0
 41
1.0
 50
0.0
 71
     0
 42
0.0
  3
txt
  4
extfont
  0
STYLE
  5
27
100
AcDbSymbolTableRecord
100
AcDbTextStyleTableRecord
  2
KANJITATE
 70
     4
 40
0.0
 41
1.0
 50
0.0
 71
     0
 42
0.0
  3
txt
  4
extfont
  0
ENDTAB
  0
TABLE
  2
VIEW
  5
5
100
AcDbSymbolTable
 70
     0
  0
ENDTAB
  0
TABLE
  2
UCS
  5
6
100
AcDbSymbolTable
 70
     0
  0
ENDTAB
  0
TABLE
  2
APPID
  5
8
100
AcDbSymbolTable
 70
     1
  0
APPID
  5
16
100
AcDbSymbolTableRecord
100
AcDbRegAppTableRecord
  2
ACAD
 70
     0
  0
ENDTAB
  0
TABLE
  2
DIMSTYLE
  5
9
100
AcDbSymbolTable
 70
     1
100
AcDbDimStyleTable
 71
     0
  0
DIMSTYLE
105
18
100
AcDbSymbolTableRecord
100
AcDbDimStyleTableRecord
  2
Standard
 70
     0
  3

  4

 40
1.0
 41
0.18
 42
0.0625
 43
0.38
 44
0.18
 45
0.0
 46
0.0
 47
0.0
 48
0.0
 71
     0
 72
     0
 73
     1
 74
     1
 75
     0
 76
     0
 77
     0
 78
     0
 79
     0
140
0.18
141
0.09
142
0.0
143
25.4
144
1.0
145
0.0
146
1.0
147
0.09
148
0.0
170
     0
171
     2
172
     0
173
     0
174
     0
175
     0
176
     0
177
     0
178
     0
179
     0
271
     4
272
     4
273
     2
274
     2
275
     0
276
     0
277
     2
278
    46
279
     0
280
     0
281
     0
282
     0
283
     1
284
     0
285
     0
286
     0
288
     0
340
17
341
0
342
0
343
0
344
0
371
    -2
372
    -2
  0
ENDTAB
  0
TABLE
  2
BLOCK_RECORD
  5
1
100
AcDbSymbolTable
 70
     4
  0
BLOCK_RECORD
  5
A
100
AcDbSymbolTableRecord
100
AcDbBlockTableRecord
  2
*MODEL_SPACE
340
20
  0
BLOCK_RECORD
  5
B
100
AcDbSymbolTableRecord
100
AcDbBlockTableRecord
  2
*PAPER_SPACE
340
21
  0
BLOCK_RECORD
  5
29
100
AcDbSymbolTableRecord
100
AcDbBlockTableRecord
  2
AI9-BLK1
340
0
102
{BLKREFS
331
2A
102
}
  0
BLOCK_RECORD
  5
81
100
AcDbSymbolTableRecord
100
AcDbBlockTableRecord
  2
AI9-BLK2
340
0
102
{BLKREFS
331
82
102
}
  0
BLOCK_RECORD
  5
112
100
AcDbSymbolTableRecord
100
AcDbBlockTableRecord
  2
AI9-BLK3
340
0
102
{BLKREFS
331
113
102
}
  0
BLOCK_RECORD
  5
115
100
AcDbSymbolTableRecord
100
AcDbBlockTableRecord
  2
AI9-BLK4
340
0
102
{BLKREFS
331
116
102
}
  0
ENDTAB
  0
ENDSEC
  0
SECTION
  2
BLOCKS
  0
BLOCK
  5
D
100
AcDbEntity
  8
0
100
AcDbBlockBegin
  2
*MODEL_SPACE
 70
     0
 10
0.0
 20
0.0
 30
0.0
  3
*MODEL_SPACE
  1

  0
ENDBLK
  5
E
100
AcDbEntity
  8
0
100
AcDbBlockEnd
  0
BLOCK
  5
F
100
AcDbEntity
 67
     1
  8
0
100
AcDbBlockBegin
  2
*PAPER_SPACE
 70
     0
 10
0.0
 20
0.0
 30
0.0
  3
*PAPER_SPACE
  1

  0
ENDBLK
  5
10
100
AcDbEntity
 67
     1
  8
0
100
AcDbBlockEnd
  0
BLOCK
  5
2B
100
AcDbEntity
  8
LIVELLO_1
 62
     7
100
AcDbBlockBegin
  2
AI9-BLK1
 70
     0
 10
0.0
 20
0.0
 30
0.0
  3
AI9-BLK1
  1

  0
INSERT
  5
113
100
AcDbEntity
  8
LIVELLO_1
 62
     7
100
AcDbBlockReference
  2
AI9-BLK3
 10
-13.889333
 20
-47.797255
 30
0.0
  0
POLYLINE
  5
10C
100
AcDbEntity
  8
LIVELLO_1
 62
     7
100
AcDb2dPolyline
 66
     1
 10
0.0
 20
0.0
 30
0.0
  0
VERTEX
  5
10D
100
AcDbEntity
  8
LIVELLO_1
 62
     7
100
AcDbVertex
100
AcDb2dVertex
 10
-34.899592
 20
-78.779343
 30
0.0
  0
VERTEX
  5
10E
100
AcDbEntity
  8
LIVELLO_1
 62
     7
100
AcDbVertex
100
AcDb2dVertex
 10
-35.099236
 20
1.287949
 30
0.0
  0
VERTEX
  5
10F
100
AcDbEntity
  8
LIVELLO_1
 62
     7
100
AcDbVertex
100
AcDb2dVertex
 10
4.943281
 20
1.287949
 30
0.0
  0
VERTEX
  5
110
100
AcDbEntity
  8
LIVELLO_1
 62
     7
100
AcDbVertex
100
AcDb2dVertex
 10
4.938286
 20
-78.737313
 30
0.0
  0
SEQEND
  5
111
100
AcDbEntity
  8
LIVELLO_1
 62
     7
  0
POLYLINE
  5
106
100
AcDbEntity
  8
LIVELLO_1
 62
     7
100
AcDb2dPolyline
 66
     1
 10
0.0
 20
0.0
 30
0.0
  0
VERTEX
  5
107
100
AcDbEntity
  8
LIVELLO_1
 62
     7
100
AcDbVertex
100
AcDb2dVertex
 10
-34.899592
 20
-78.779343
 30
0.0
  0
VERTEX
  5
108
100
AcDbEntity
  8
LIVELLO_1
 62
     7
100
AcDbVertex
100
AcDb2dVertex
 10
-35.099236
 20
1.287949
 30
0.0
  0
VERTEX
  5
109
100
AcDbEntity
  8
LIVELLO_1
 62
     7
100
AcDbVertex
100
AcDb2dVertex
 10
4.943281
 20
1.287949
 30
0.0
  0
VERTEX
  5
10A
100
AcDbEntity
  8
LIVELLO_1
 62
     7
100
AcDbVertex
100
AcDb2dVertex
 10
4.938286
 20
-78.737313
 30
0.0
  0
SEQEND
  5
10B
100
AcDbEntity
  8
LIVELLO_1
 62
     7
  0
LINE
  5
105
100
AcDbEntity
  8
LIVELLO_1
 62
     7
100
AcDbLine
 10
-34.899592
 20
1.295873
 30
0.0
 11
-34.899592
 21
-72.183019
 31
0.0
  0
LINE
  5
104
100
AcDbEntity
  8
LIVELLO_1
 62
     7
100
AcDbLine
 10
4.938286
 20
-72.145123
 30
0.0
 11
4.938286
 21
1.295873
 31
0.0
  0
LINE
  5
103
100
AcDbEntity
  8
LIVELLO_1
 62
     7
100
AcDbLine
 10
7.355709
 20
1.295873
 30
0.0
 11
17.895979
 21
1.371837
 31
0.0
  0
LINE
  5
102
100
AcDbEntity
  8
LIVELLO_1
 62
     7
100
AcDbLine
 10
-47.919297
 20
1.295873
 30
0.0
 11
-37.318049
 21
1.371837
 31
0.0
  0
LINE
  5
101
100
AcDbEntity
  8
LIVELLO_1
 62
     7
100
AcDbLine
 10
-34.711835
 20
-0.269751
 30
0.0
 11
-34.559045
 21
-2.700094
 31
0.0
  0
LINE
  5
100
100
AcDbEntity
  8
LIVELLO_1
 62
     7
100
AcDbLine
 10
7.081135
 20
1.287949
 30
0.0
 11
4.780501
 21
1.287949
 31
0.0
  0
LINE
  5
FF
100
AcDbEntity
  8
LIVELLO_1
 62
     7
100
AcDbLine
 10
-34.990543
 20
1.287949
 30
0.0
 11
-37.291005
 21
1.287949
 31
0.0
  0
POLYLINE
  5
F9
100
AcDbEntity
  8
LIVELLO_1
 62
     7
100
AcDb2dPolyline
 66
     1
 10
0.0
 20
0.0
 30
0.0
  0
VERTEX
  5
FA
100
AcDbEntity
  8
LIVELLO_1
 62
     7
100
AcDbVertex
100
AcDb2dVertex
 10
-35.253059
 20
-79.168639
 30
0.0
  0
VERTEX
  5
FB
100
AcDbEntity
  8
LIVELLO_1
 62
     7
100
AcDbVertex
100
AcDb2dVertex
 10
4.880408
 20
-78.825163
 30
0.0
  0
VERTEX
  5
FC
100
AcDbEntity
  8
LIVELLO_1
 62
     7
100
AcDbVertex
100
AcDb2dVertex
 10
4.73158
 20
-96.870228
 30
0.0
  0
VERTEX
  5
FD
100
AcDbEntity
  8
LIVELLO_1
 62
     7
100
AcDbVertex
100
AcDb2dVertex
 10
-35.27907
 20
-96.870228
 30
0.0
  0
SEQEND
  5
FE
100
AcDbEntity
  8
LIVELLO_1
 62
     7
  0
INSERT
  5
82
100
AcDbEntity
  8
LIVELLO_1
 62
     7
100
AcDbBlockReference
  2
AI9-BLK2
 10
-15.57743
 20
-92.999836
 30
0.0
  0
LINE
  5
80
100
AcDbEntity
  8
LIVELLO_1
 62
     7
100
AcDbLine
 10
12.643759
 20
96.358804
 30
0.0
 11
12.643759
 21
105.682955
 31
0.0
  0
LINE
  5
7F
100
AcDbEntity
  8
LIVELLO_1
 62
     7
100
AcDbLine
 10
-44.541209
 20
96.354842
 30
0.0
 11
-44.541209
 21
105.678993
 31
0.0
  0
MTEXT
  5
7E
100
AcDbEntity
  8
LIVELLO_1
 62
     7
100
AcDbMText
 10
-31.921824
 20
108.548638
 30
0.0
 40
9.386732
 41
0.0
 71
     1
 72
     2
  1
\fCourier|b0|i0;\H9.3867;\W0.87;\C7;\U+00F8\U+0020\U+0031\U+0035\U+0032
  7
STD
210
0.0
220
0.0
230
1.0
 73
     1
 44
1.0
  0
LINE
  5
7D
100
AcDbEntity
  8
LIVELLO_1
 62
     7
100
AcDbLine
 10
8.856393
 20
52.224375
 30
0.0
 11
21.807196
 21
45.180705
 31
0.0
  0
LINE
  5
7C
100
AcDbEntity
  8
LIVELLO_1
 62
     7
100
AcDbLine
 10
-40.752982
 20
52.224375
 30
0.0
 11
-53.518955
 21
45.180705
 31
0.0
  0
CIRCLE
  5
7B
100
AcDbEntity
  8
LIVELLO_1
 62
     7
100
AcDbCircle
 10
-15.948725
 20
68.608043
 30
0.0
 40
26.374876
  0
CIRCLE
  5
7A
100
AcDbEntity
  8
LIVELLO_1
 62
     7
100
AcDbCircle
 10
-1.116728
 20
60.037765
 30
0.0
 40
0.583004
  0
CIRCLE
  5
79
100
AcDbEntity
  8
LIVELLO_1
 62
     7
100
AcDbCircle
 10
-30.845146
 20
60.079623
 30
0.0
 40
0.583264
  0
ELLIPSE
  5
78
100
AcDbEntity
  8
LIVELLO_1
 62
     7
100
AcDbEllipse
 10
-15.947692
 20
85.670567
 30
0.0
 11
-0.5871303982204861
 21
0.0
 31
0.0
210
0.0
220
0.0
230
1.0
 40
0.989878
 41
0.0
 42
6.2831853071795862
  0
SPLINE
  5
77
100
AcDbEntity
  8
LIVELLO_1
 62
     7
100
AcDbSpline
210
0.0
220
0.0
230
1.0
 70
     8
 71
     3
 72
    17
 73
    13
 74
     0
 42
0.00000001
 43
0.00000001
 40
0.0
 40
0.0
 40
0.0
 40
0.0
 40
1.0
 40
1.0
 40
1.0
 40
2.0
 40
2.0
 40
2.0
 40
3.0
 40
3.0
 40
3.0
 40
4.0
 40
4.0
 40
4.0
 40
4.0
 10
-0.330987548828125
 20
57.023220486111107
 30
0.0
 10
-0.330987548828125
 20
57.023220486111107
 30
0.0
 10
-7.3066168891059018
 20
60.965270996093743
 30
0.0
 10
-7.3066168891059018
 20
60.965270996093743
 30
0.0
 10
-9.4263841417100682
 20
58.604863823784719
 30
0.0
 10
-12.512845187717012
 20
57.117099338107636
 30
0.0
 10
-15.949672444661458
 20
57.117099338107636
 30
0.0
 10
-19.381676567925346
 20
57.117099338107636
 30
0.0
 10
-22.466070556640624
 20
58.600901963975687
 30
0.0
 10
-24.584976535373261
 20
60.957347276475687
 30
0.0
 10
-24.584976535373261
 20
60.957347276475687
 30
0.0
 10
-31.602463785807288
 20
57.001171874999997
 30
0.0
 10
-31.602463785807288
 20
57.001171874999997
 30
0.0
  0
CIRCLE
  5
76
100
AcDbEntity
  8
LIVELLO_1
 62
     7
100
AcDbCircle
 10
-15.948725
 20
68.608043
 30
0.0
 40
19.532055
  0
CIRCLE
  5
75
100
AcDbEntity
  8
LIVELLO_1
 62
     7
100
AcDbCircle
 10
-15.948725
 20
68.608043
 30
0.0
 40
21.291465
  0
LINE
  5
74
100
AcDbEntity
  8
LIVELLO_1
 62
     7
100
AcDbLine
 10
12.310274
 20
101.147659
 30
0.0
 11
0.32203
 21
101.147659
 31
0.0
  0
LINE
  5
73
100
AcDbEntity
  8
LIVELLO_1
 62
     7
100
AcDbLine
 10
-32.416368
 20
101.147659
 30
0.0
 11
-44.360514
 21
101.147659
 31
0.0
  0
MTEXT
  5
72
100
AcDbEntity
  8
LIVELLO_1
 62
     7
100
AcDbMText
 10
-24.838363
 20
34.196607
 30
0.0
 40
9.344377
 41
0.0
 71
     1
 72
     2
  1
\fCourier|b0|i0;\H9.3444;\W1.01;\C7;\U+0039\U+0035
  7
STD
210
0.0
220
0.0
230
1.0
 73
     1
 44
1.0
  0
MTEXT
  5
71
100
AcDbEntity
  8
LIVELLO_1
 62
     7
100
AcDbMText
 10
-10.256997
 20
32.929624
 30
0.0
 40
7.288639
 41
0.0
 71
     1
 72
     2
  1
\fSymbol|b0|i0;\H7.2886;\W1.01;\C7;\U+00B0
  7
STD
210
0.0
220
0.0
230
1.0
 73
     1
 44
1.0
  0
SPLINE
  5
70
100
AcDbEntity
  8
LIVELLO_1
 62
     7
100
AcDbSpline
210
0.0
220
0.0
230
1.0
 70
     8
 71
     3
 72
     8
 73
     4
 74
     0
 42
0.00000001
 43
0.00000001
 40
0.0
 40
0.0
 40
0.0
 40
0.0
 40
1.0
 40
1.0
 40
1.0
 40
1.0
 10
-28.011813015407984
 20
28.553468153211803
 30
0.0
 10
-37.784343126085069
 20
31.449243164062498
 30
0.0
 10
-46.068075222439234
 20
37.777711317274303
 30
0.0
 10
-51.443974473741314
 20
46.12534993489583
 30
0.0
  0
SPLINE
  5
6F
100
AcDbEntity
  8
LIVELLO_1
 62
     7
100
AcDbSpline
210
0.0
220
0.0
230
1.0
 70
     8
 71
     3
 72
     8
 73
     4
 74
     0
 42
0.00000001
 43
0.00000001
 40
0.0
 40
0.0
 40
0.0
 40
0.0
 40
1.0
 40
1.0
 40
1.0
 40
1.0
 10
19.604574245876734
 20
46.131378851996523
 30
0.0
 10
14.226435682508679
 20
37.781673177083327
 30
0.0
 10
5.889821370442708
 20
31.449243164062498
 30
0.0
 10
-3.8856370713975692
 20
28.553468153211803
 30
0.0
  0
LINE
  5
6E
100
AcDbEntity
  8
LIVELLO_1
 62
     7
100
AcDbLine
 10
27.60667
 20
-78.605366
 30
0.0
 11
36.998517
 21
-78.605366
 31
0.0
  0
LINE
  5
6D
100
AcDbEntity
  8
LIVELLO_1
 62
     7
100
AcDbLine
 10
32.301646
 20
-41.921989
 30
0.0
 11
32.301646
 21
-78.605366
 31
0.0
  0
LINE
  5
6C
100
AcDbEntity
  8
LIVELLO_1
 62
     7
100
AcDbLine
 10
32.301646
 20
1.224042
 30
0.0
 11
32.301646
 21
-26.762535
 31
0.0
  0
LINE
  5
6B
100
AcDbEntity
  8
LIVELLO_1
 62
     7
100
AcDbLine
 10
27.60667
 20
1.224042
 30
0.0
 11
36.998517
 21
1.224042
 31
0.0
  0
MTEXT
  5
6A
100
AcDbEntity
  8
LIVELLO_1
 62
     7
100
AcDbMText
 10
23.233293
 20
-29.008831
 30
0.0
 40
9.586918
 41
0.0
 71
     1
 72
     2
  1
\fCourier|b0|i0;\H9.5869;\W1.01;\C7;\U+0032\U+0033\U+0033
  7
STD
210
0.0
220
0.0
230
1.0
 73
     1
 44
1.0
  0
LINE
  5
69
100
AcDbEntity
  8
LIVELLO_1
 62
     7
100
AcDbLine
 10
27.60667
 20
11.686453
 30
0.0
 11
36.998517
 21
11.686453
 31
0.0
  0
MTEXT
  5
68
100
AcDbEntity
  8
LIVELLO_1
 62
     7
100
AcDbMText
 10
38.516426
 20
11.573288
 30
0.0
 40
9.243714
 41
0.0
 71
     1
 72
     2
  1
\fCourier|b0|i0;\H9.2437;\W1.01;\C7;\U+0033\U+0036
  7
STD
210
0.0
220
0.0
230
1.0
 73
     1
 44
1.0
  0
SPLINE
  5
67
100
AcDbEntity
  8
LIVELLO_1
 62
     7
100
AcDbSpline
210
0.0
220
0.0
230
1.0
 70
     8
 71
     3
 72
    17
 73
    13
 74
     0
 42
0.00000001
 43
0.00000001
 40
0.0
 40
0.0
 40
0.0
 40
0.0
 40
1.0
 40
1.0
 40
1.0
 40
2.0
 40
2.0
 40
2.0
 40
3.0
 40
3.0
 40
3.0
 40
4.0
 40
4.0
 40
4.0
 40
4.0
 10
-29.869063991970485
 20
3.5286390516493054
 30
0.0
 10
-29.869063991970485
 20
3.5286390516493054
 30
0.0
 10
-22.611798095703122
 20
9.35601806640625
 30
0.0
 10
-22.611798095703122
 20
9.35601806640625
 30
0.0
 10
-22.611798095703122
 20
9.35601806640625
 30
0.0
 10
-18.185367160373261
 20
8.6589029947916654
 30
0.0
 10
-15.568300374348956
 20
8.6589029947916654
 30
0.0
 10
-12.953128390842013
 20
8.6589029947916654
 30
0.0
 10
-8.52480265299479
 20
9.35601806640625
 30
0.0
 10
-8.52480265299479
 20
9.35601806640625
 30
0.0
 10
-8.52480265299479
 20
9.35601806640625
 30
0.0
 10
-0.1182529025607639
 20
3.5286390516493054
 30
0.0
 10
-0.1182529025607639
 20
3.5286390516493054
 30
0.0
  0
POLYLINE
  5
61
100
AcDbEntity
  8
LIVELLO_1
 62
     7
100
AcDb2dPolyline
 66
     1
 10
0.0
 20
0.0
 30
0.0
 70
     1
  0
VERTEX
  5
62
100
AcDbEntity
  8
LIVELLO_1
 62
     7
100
AcDbVertex
100
AcDb2dVertex
 10
2.363077
 20
-7.095691
 30
0.0
  0
VERTEX
  5
63
100
AcDbEntity
  8
LIVELLO_1
 62
     7
100
AcDbVertex
100
AcDb2dVertex
 10
3.605206
 20
-7.095691
 30
0.0
  0
VERTEX
  5
64
100
AcDbEntity
  8
LIVELLO_1
 62
     7
100
AcDbVertex
100
AcDb2dVertex
 10
3.605206
 20
-7.712708
 30
0.0
  0
VERTEX
  5
65
100
AcDbEntity
  8
LIVELLO_1
 62
     7
100
AcDbVertex
100
AcDb2dVertex
 10
2.363077
 20
-7.712708
 30
0.0
  0
SEQEND
  5
66
100
AcDbEntity
  8
LIVELLO_1
 62
     7
  0
POLYLINE
  5
5B
100
AcDbEntity
  8
LIVELLO_1
 62
     7
100
AcDb2dPolyline
 66
     1
 10
0.0
 20
0.0
 30
0.0
 70
     1
  0
VERTEX
  5
5C
100
AcDbEntity
  8
LIVELLO_1
 62
     7
100
AcDbVertex
100
AcDb2dVertex
 10
-33.444729
 20
-7.095691
 30
0.0
  0
VERTEX
  5
5D
100
AcDbEntity
  8
LIVELLO_1
 62
     7
100
AcDbVertex
100
AcDb2dVertex
 10
-32.204666
 20
-7.095691
 30
0.0
  0
VERTEX
  5
5E
100
AcDbEntity
  8
LIVELLO_1
 62
     7
100
AcDbVertex
100
AcDb2dVertex
 10
-32.204666
 20
-7.712708
 30
0.0
  0
VERTEX
  5
5F
100
AcDbEntity
  8
LIVELLO_1
 62
     7
100
AcDbVertex
100
AcDb2dVertex
 10
-33.444729
 20
-7.712708
 30
0.0
  0
SEQEND
  5
60
100
AcDbEntity
  8
LIVELLO_1
 62
     7
  0
POLYLINE
  5
55
100
AcDbEntity
  8
LIVELLO_1
 62
     7
100
AcDb2dPolyline
 66
     1
 10
0.0
 20
0.0
 30
0.0
 70
     1
  0
VERTEX
  5
56
100
AcDbEntity
  8
LIVELLO_1
 62
     7
100
AcDbVertex
100
AcDb2dVertex
 10
-18.106474
 20
-5.769501
 30
0.0
  0
VERTEX
  5
57
100
AcDbEntity
  8
LIVELLO_1
 62
     7
100
AcDbVertex
100
AcDb2dVertex
 10
-11.898757
 20
-5.769501
 30
0.0
  0
VERTEX
  5
58
100
AcDbEntity
  8
LIVELLO_1
 62
     7
100
AcDbVertex
100
AcDb2dVertex
 10
-12.518874
 20
-8.395698
 30
0.0
  0
VERTEX
  5
59
100
AcDbEntity
  8
LIVELLO_1
 62
     7
100
AcDbVertex
100
AcDb2dVertex
 10
-17.484462
 20
-8.395698
 30
0.0
  0
SEQEND
  5
5A
100
AcDbEntity
  8
LIVELLO_1
 62
     7
  0
LINE
  5
54
100
AcDbEntity
  8
LIVELLO_1
 62
     7
100
AcDbLine
 10
-30.327434
 20
-51.289893
 30
0.0
 11
0.454839
 21
-51.289893
 31
0.0
  0
SPLINE
  5
53
100
AcDbEntity
  8
LIVELLO_1
 62
     7
100
AcDbSpline
210
0.0
220
0.0
230
1.0
 70
     8
 71
     3
 72
    23
 73
    19
 74
     0
 42
0.00000001
 43
0.00000001
 40
0.0
 40
0.0
 40
0.0
 40
0.0
 40
1.0
 40
1.0
 40
1.0
 40
2.0
 40
2.0
 40
2.0
 40
3.0
 40
3.0
 40
3.0
 40
4.0
 40
4.0
 40
4.0
 40
5.0
 40
5.0
 40
5.0
 40
6.0
 40
6.0
 40
6.0
 40
6.0
 10
-1.0229349772135417
 20
-52.927690972222216
 30
0.0
 10
-1.0229349772135417
 20
-52.927690972222216
 30
0.0
 10
-1.3603820800781248
 20
-64.332679578993051
 30
0.0
 10
-1.3603820800781248
 20
-64.332679578993051
 30
0.0
 10
-1.3603820800781248
 20
-64.674088541666663
 30
0.0
 10
-1.6380567762586804
 20
-64.951763237847217
 30
0.0
 10
-1.9823940700954858
 20
-64.951763237847217
 30
0.0
 10
-1.9823940700954858
 20
-64.951763237847217
 30
0.0
 10
-27.859023030598955
 20
-64.951763237847217
 30
0.0
 10
-27.859023030598955
 20
-64.951763237847217
 30
0.0
 10
-28.201465521918401
 20
-64.951763237847217
 30
0.0
 10
-28.479140218098955
 20
-64.674088541666663
 30
0.0
 10
-28.479140218098955
 20
-64.332679578993051
 30
0.0
 10
-28.479140218098955
 20
-64.332679578993051
 30
0.0
 10
-28.817620849609373
 20
-52.927690972222216
 30
0.0
 10
-28.817620849609373
 20
-52.927690972222216
 30
0.0
 10
-28.817620849609373
 20
-52.927690972222216
 30
0.0
 10
-1.0229349772135417
 20
-52.927690972222216
 30
0.0
 10
-1.0229349772135417
 20
-52.927690972222216
 30
0.0
  0
CIRCLE
  5
52
100
AcDbEntity
  8
LIVELLO_1
 62
     7
100
AcDbCircle
 10
-14.953695
 20
-45.882126
 30
0.0
 40
2.291161
  0
CIRCLE
  5
51
100
AcDbEntity
  8
LIVELLO_1
 62
     7
100
AcDbCircle
 10
-14.952748
 20
-45.882126
 30
0.0
 40
0.764381
  0
SPLINE
  5
50
100
AcDbEntity
  8
LIVELLO_1
 62
     7
100
AcDbSpline
210
0.0
220
0.0
230
1.0
 70
     8
 71
     3
 72
    29
 73
    25
 74
     0
 42
0.00000001
 43
0.00000001
 40
0.0
 40
0.0
 40
0.0
 40
0.0
 40
1.0
 40
1.0
 40
1.0
 40
2.0
 40
2.0
 40
2.0
 40
3.0
 40
3.0
 40
3.0
 40
4.0
 40
4.0
 40
4.0
 40
5.0
 40
5.0
 40
5.0
 40
6.0
 40
6.0
 40
6.0
 40
7.0
 40
7.0
 40
7.0
 40
8.0
 40
8.0
 40
8.0
 40
8.0
 10
-36.037851969401039
 20
3.5286390516493054
 30
0.0
 10
-36.037851969401039
 20
3.5286390516493054
 30
0.0
 10
6.0496738009982636
 20
3.5286390516493054
 30
0.0
 10
6.0496738009982636
 20
3.5286390516493054
 30
0.0
 10
6.3242479112413186
 20
3.5286390516493054
 30
0.0
 10
6.546801079644097
 20
3.3069471571180551
 30
0.0
 10
6.546801079644097
 20
3.0373684353298609
 30
0.0
 10
6.546801079644097
 20
3.0373684353298609
 30
0.0
 10
6.546801079644097
 20
-5.2782307942708329
 30
0.0
 10
6.546801079644097
 20
-5.2782307942708329
 30
0.0
 10
6.546801079644097
 20
-5.5498765733506943
 30
0.0
 10
6.3242479112413186
 20
-5.7715684678819441
 30
0.0
 10
6.0496738009982636
 20
-5.7715684678819441
 30
0.0
 10
6.0496738009982636
 20
-5.7715684678819441
 30
0.0
 10
-36.037851969401039
 20
-5.7715684678819441
 30
0.0
 10
-36.037851969401039
 20
-5.7715684678819441
 30
0.0
 10
-36.312426079644091
 20
-5.7715684678819441
 30
0.0
 10
-36.535151502821179
 20
-5.5498765733506943
 30
0.0
 10
-36.535151502821179
 20
-5.2782307942708329
 30
0.0
 10
-36.535151502821179
 20
-5.2782307942708329
 30
0.0
 10
-36.535151502821179
 20
3.0373684353298609
 30
0.0
 10
-36.535151502821179
 20
3.0373684353298609
 30
0.0
 10
-36.535151502821179
 20
3.3069471571180551
 30
0.0
 10
-36.312426079644091
 20
3.5286390516493054
 30
0.0
 10
-36.037851969401039
 20
3.5286390516493054
 30
0.0
  0
SPLINE
  5
4F
100
AcDbEntity
  8
LIVELLO_1
 62
     7
100
AcDbSpline
210
0.0
220
0.0
230
1.0
 70
     8
 71
     3
 72
    41
 73
    37
 74
     0
 42
0.00000001
 43
0.00000001
 40
0.0
 40
0.0
 40
0.0
 40
0.0
 40
1.0
 40
1.0
 40
1.0
 40
2.0
 40
2.0
 40
2.0
 40
3.0
 40
3.0
 40
3.0
 40
4.0
 40
4.0
 40
4.0
 40
5.0
 40
5.0
 40
5.0
 40
6.0
 40
6.0
 40
6.0
 40
7.0
 40
7.0
 40
7.0
 40
8.0
 40
8.0
 40
8.0
 40
9.0
 40
9.0
 40
9.0
 40
10.0
 40
10.0
 40
10.0
 40
11.0
 40
11.0
 40
11.0
 40
12.0
 40
12.0
 40
12.0
 40
12.0
 10
-5.6929341634114579
 20
-7.0956909179687493
 30
0.0
 10
-5.6929341634114579
 20
-7.0956909179687493
 30
0.0
 10
1.1209479437934027
 20
-7.0956909179687493
 30
0.0
 10
1.1209479437934027
 20
-7.0956909179687493
 30
0.0
 10
1.1209479437934027
 20
-7.0956909179687493
 30
0.0
 10
0.5008307562934027
 20
-52.312396918402776
 30
0.0
 10
0.5008307562934027
 20
-52.312396918402776
 30
0.0
 10
0.5008307562934027
 20
-52.65208333333333
 30
0.0
 10
0.2222947862413194
 20
-52.927690972222216
 30
0.0
 10
-0.1192864312065972
 20
-52.927690972222216
 30
0.0
 10
-0.1192864312065972
 20
-52.927690972222216
 30
0.0
 10
-29.721269395616318
 20
-52.927690972222216
 30
0.0
 10
-29.721269395616318
 20
-52.927690972222216
 30
0.0
 10
-30.06371188693576
 20
-52.927690972222216
 30
0.0
 10
-30.341386583116318
 20
-52.65208333333333
 30
0.0
 10
-30.341386583116318
 20
-52.312396918402776
 30
0.0
 10
-30.341386583116318
 20
-52.312396918402776
 30
0.0
 10
-30.963398573133677
 20
-7.0956909179687493
 30
0.0
 10
-30.963398573133677
 20
-7.0956909179687493
 30
0.0
 10
-30.963398573133677
 20
-7.0956909179687493
 30
0.0
 10
-24.213422987196179
 20
-7.0956909179687493
 30
0.0
 10
-24.213422987196179
 20
-7.0956909179687493
 30
0.0
 10
-24.213422987196179
 20
-7.0956909179687493
 30
0.0
 10
-17.794004313151039
 20
-7.0956909179687493
 30
0.0
 10
-17.794004313151039
 20
-7.0956909179687493
 30
0.0
 10
-17.794004313151039
 20
-7.0956909179687493
 30
0.0
 10
-17.484462483723956
 20
-8.3956976996527768
 30
0.0
 10
-17.484462483723956
 20
-8.3956976996527768
 30
0.0
 10
-17.484462483723956
 20
-8.3956976996527768
 30
0.0
 10
-12.518874104817707
 20
-8.3956976996527768
 30
0.0
 10
-12.518874104817707
 20
-8.3956976996527768
 30
0.0
 10
-12.518874104817707
 20
-8.3956976996527768
 30
0.0
 10
-12.211227077907985
 20
-7.0956909179687493
 30
0.0
 10
-12.211227077907985
 20
-7.0956909179687493
 30
0.0
 10
-12.211227077907985
 20
-7.0956909179687493
 30
0.0
 10
-5.6929341634114579
 20
-7.0956909179687493
 30
0.0
 10
-5.6929341634114579
 20
-7.0956909179687493
 30
0.0
  0
SPLINE
  5
4E
100
AcDbEntity
  8
LIVELLO_1
 62
     7
100
AcDbSpline
210
0.0
220
0.0
230
1.0
 70
     8
 71
     3
 72
    20
 73
    16
 74
     0
 42
0.00000001
 43
0.00000001
 40
0.0
 40
0.0
 40
0.0
 40
0.0
 40
1.0
 40
1.0
 40
1.0
 40
2.0
 40
2.0
 40
2.0
 40
3.0
 40
3.0
 40
3.0
 40
4.0
 40
4.0
 40
4.0
 40
5.0
 40
5.0
 40
5.0
 40
5.0
 10
-23.52147555881076
 20
-7.0956909179687493
 30
0.0
 10
-23.52147555881076
 20
-7.0956909179687493
 30
0.0
 10
-23.52147555881076
 20
-49.121204969618049
 30
0.0
 10
-23.52147555881076
 20
-49.121204969618049
 30
0.0
 10
-23.52147555881076
 20
-49.308962673611106
 30
0.0
 10
-23.670303683810761
 20
-49.456757269965273
 30
0.0
 10
-23.87804294162326
 20
-49.456757269965273
 30
0.0
 10
-24.061666531032984
 20
-49.456757269965273
 30
0.0
 10
-24.213422987196179
 20
-49.308962673611106
 30
0.0
 10
-24.213422987196179
 20
-49.121204969618049
 30
0.0
 10
-24.213422987196179
 20
-49.121204969618049
 30
0.0
 10
-24.213422987196179
 20
-7.0956909179687493
 30
0.0
 10
-24.213422987196179
 20
-7.0956909179687493
 30
0.0
 10
-24.213422987196179
 20
-7.0956909179687493
 30
0.0
 10
-23.52147555881076
 20
-7.0956909179687493
 30
0.0
 10
-23.52147555881076
 20
-7.0956909179687493
 30
0.0
  0
SPLINE
  5
4D
100
AcDbEntity
  8
LIVELLO_1
 62
     7
100
AcDbSpline
210
0.0
220
0.0
230
1.0
 70
     8
 71
     3
 72
    20
 73
    16
 74
     0
 42
0.00000001
 43
0.00000001
 40
0.0
 40
0.0
 40
0.0
 40
0.0
 40
1.0
 40
1.0
 40
1.0
 40
2.0
 40
2.0
 40
2.0
 40
3.0
 40
3.0
 40
3.0
 40
4.0
 40
4.0
 40
4.0
 40
5.0
 40
5.0
 40
5.0
 40
5.0
 10
-20.548874918619791
 20
-7.0956909179687493
 30
0.0
 10
-20.548874918619791
 20
-7.0956909179687493
 30
0.0
 10
-20.548874918619791
 20
-49.121204969618049
 30
0.0
 10
-20.548874918619791
 20
-49.121204969618049
 30
0.0
 10
-20.548874918619791
 20
-49.308962673611106
 30
0.0
 10
-20.699597846137152
 20
-49.456757269965273
 30
0.0
 10
-20.905442301432291
 20
-49.456757269965273
 30
0.0
 10
-21.092166476779511
 20
-49.456757269965273
 30
0.0
 10
-21.240822347005206
 20
-49.308962673611106
 30
0.0
 10
-21.240822347005206
 20
-49.121204969618049
 30
0.0
 10
-21.240822347005206
 20
-49.121204969618049
 30
0.0
 10
-21.240822347005206
 20
-7.0956909179687493
 30
0.0
 10
-21.240822347005206
 20
-7.0956909179687493
 30
0.0
 10
-21.240822347005206
 20
-7.0956909179687493
 30
0.0
 10
-20.548874918619791
 20
-7.0956909179687493
 30
0.0
 10
-20.548874918619791
 20
-7.0956909179687493
 30
0.0
  0
SPLINE
  5
4C
100
AcDbEntity
  8
LIVELLO_1
 62
     7
100
AcDbSpline
210
0.0
220
0.0
230
1.0
 70
     8
 71
     3
 72
    23
 73
    19
 74
     0
 42
0.00000001
 43
0.00000001
 40
0.0
 40
0.0
 40
0.0
 40
0.0
 40
1.0
 40
1.0
 40
1.0
 40
2.0
 40
2.0
 40
2.0
 40
3.0
 40
3.0
 40
3.0
 40
4.0
 40
4.0
 40
4.0
 40
5.0
 40
5.0
 40
5.0
 40
6.0
 40
6.0
 40
6.0
 40
6.0
 10
-17.578341335720484
 20
-8.0262112087673607
 30
0.0
 10
-17.578341335720484
 20
-8.0262112087673607
 30
0.0
 10
-17.578341335720484
 20
-49.121204969618049
 30
0.0
 10
-17.578341335720484
 20
-49.121204969618049
 30
0.0
 10
-17.578341335720484
 20
-49.308962673611106
 30
0.0
 10
-17.727169460720486
 20
-49.456757269965273
 30
0.0
 10
-17.934736463758679
 20
-49.456757269965273
 30
0.0
 10
-18.121460639105901
 20
-49.456757269965273
 30
0.0
 10
-18.270288764105903
 20
-49.308962673611106
 30
0.0
 10
-18.270288764105903
 20
-49.121204969618049
 30
0.0
 10
-18.270288764105903
 20
-49.121204969618049
 30
0.0
 10
-18.270288764105903
 20
-7.0956909179687493
 30
0.0
 10
-18.270288764105903
 20
-7.0956909179687493
 30
0.0
 10
-18.270288764105903
 20
-7.0956909179687493
 30
0.0
 10
-17.813985866970484
 20
-7.0956909179687493
 30
0.0
 10
-17.813985866970484
 20
-7.0956909179687493
 30
0.0
 10
-17.813985866970484
 20
-7.0956909179687493
 30
0.0
 10
-17.578341335720484
 20
-8.0262112087673607
 30
0.0
 10
-17.578341335720484
 20
-8.0262112087673607
 30
0.0
  0
SPLINE
  5
4B
100
AcDbEntity
  8
LIVELLO_1
 62
     7
100
AcDbSpline
210
0.0
220
0.0
230
1.0
 70
     8
 71
     3
 72
    20
 73
    16
 74
     0
 42
0.00000001
 43
0.00000001
 40
0.0
 40
0.0
 40
0.0
 40
0.0
 40
1.0
 40
1.0
 40
1.0
 40
2.0
 40
2.0
 40
2.0
 40
3.0
 40
3.0
 40
3.0
 40
4.0
 40
4.0
 40
4.0
 40
5.0
 40
5.0
 40
5.0
 40
5.0
 10
-14.607635498046873
 20
-8.3956976996527768
 30
0.0
 10
-14.607635498046873
 20
-8.3956976996527768
 30
0.0
 10
-14.607635498046873
 20
-43.63351236979166
 30
0.0
 10
-14.607635498046873
 20
-43.63351236979166
 30
0.0
 10
-14.719601101345484
 20
-43.615253363715276
 30
0.0
 10
-14.836389838324651
 20
-43.605262586805551
 30
0.0
 10
-14.953178575303818
 20
-43.605262586805551
 30
0.0
 10
-15.069967312282985
 20
-43.605262586805551
 30
0.0
 10
-15.185894775390624
 20
-43.615253363715276
 30
0.0
 10
-15.297688123914929
 20
-43.63351236979166
 30
0.0
 10
-15.297688123914929
 20
-43.63351236979166
 30
0.0
 10
-15.297688123914929
 20
-8.3956976996527768
 30
0.0
 10
-15.297688123914929
 20
-8.3956976996527768
 30
0.0
 10
-15.297688123914929
 20
-8.3956976996527768
 30
0.0
 10
-14.607635498046873
 20
-8.3956976996527768
 30
0.0
 10
-14.607635498046873
 20
-8.3956976996527768
 30
0.0
  0
SPLINE
  5
4A
100
AcDbEntity
  8
LIVELLO_1
 62
     7
100
AcDbSpline
210
0.0
220
0.0
230
1.0
 70
     8
 71
     3
 72
    23
 73
    19
 74
     0
 42
0.00000001
 43
0.00000001
 40
0.0
 40
0.0
 40
0.0
 40
0.0
 40
1.0
 40
1.0
 40
1.0
 40
2.0
 40
2.0
 40
2.0
 40
3.0
 40
3.0
 40
3.0
 40
4.0
 40
4.0
 40
4.0
 40
5.0
 40
5.0
 40
5.0
 40
6.0
 40
6.0
 40
6.0
 40
6.0
 10
-14.607635498046873
 20
-48.130740017361106
 30
0.0
 10
-14.607635498046873
 20
-48.130740017361106
 30
0.0
 10
-14.607635498046873
 20
-49.121204969618049
 30
0.0
 10
-14.607635498046873
 20
-49.121204969618049
 30
0.0
 10
-14.607635498046873
 20
-49.308962673611106
 30
0.0
 10
-14.756463623046873
 20
-49.456757269965273
 30
0.0
 10
-14.963169352213541
 20
-49.456757269965273
 30
0.0
 10
-15.148859998914929
 20
-49.456757269965273
 30
0.0
 10
-15.297688123914929
 20
-49.308962673611106
 30
0.0
 10
-15.297688123914929
 20
-49.121204969618049
 30
0.0
 10
-15.297688123914929
 20
-49.121204969618049
 30
0.0
 10
-15.297688123914929
 20
-48.130740017361106
 30
0.0
 10
-15.297688123914929
 20
-48.130740017361106
 30
0.0
 10
-15.185894775390624
 20
-48.146587456597217
 30
0.0
 10
-15.069967312282985
 20
-48.154511176215273
 30
0.0
 10
-14.953178575303818
 20
-48.154511176215273
 30
0.0
 10
-14.836389838324651
 20
-48.154511176215273
 30
0.0
 10
-14.719601101345484
 20
-48.146587456597217
 30
0.0
 10
-14.607635498046873
 20
-48.130740017361106
 30
0.0
  0
SPLINE
  5
49
100
AcDbEntity
  8
LIVELLO_1
 62
     7
100
AcDbSpline
210
0.0
220
0.0
230
1.0
 70
     8
 71
     3
 72
    23
 73
    19
 74
     0
 42
0.00000001
 43
0.00000001
 40
0.0
 40
0.0
 40
0.0
 40
0.0
 40
1.0
 40
1.0
 40
1.0
 40
2.0
 40
2.0
 40
2.0
 40
3.0
 40
3.0
 40
3.0
 40
4.0
 40
4.0
 40
4.0
 40
5.0
 40
5.0
 40
5.0
 40
6.0
 40
6.0
 40
6.0
 40
6.0
 10
-11.635207112630207
 20
-7.0956909179687493
 30
0.0
 10
-11.635207112630207
 20
-7.0956909179687493
 30
0.0
 10
-11.635207112630207
 20
-49.121204969618049
 30
0.0
 10
-11.635207112630207
 20
-49.121204969618049
 30
0.0
 10
-11.635207112630207
 20
-49.308962673611106
 30
0.0
 10
-11.785930040147568
 20
-49.456757269965273
 30
0.0
 10
-11.992635769314235
 20
-49.456757269965273
 30
0.0
 10
-12.178326416015624
 20
-49.456757269965273
 30
0.0
 10
-12.327154541015624
 20
-49.308962673611106
 30
0.0
 10
-12.327154541015624
 20
-49.121204969618049
 30
0.0
 10
-12.327154541015624
 20
-49.121204969618049
 30
0.0
 10
-12.327154541015624
 20
-7.6348483615451386
 30
0.0
 10
-12.327154541015624
 20
-7.6348483615451386
 30
0.0
 10
-12.327154541015624
 20
-7.6348483615451386
 30
0.0
 10
-12.19124552408854
 20
-7.0956909179687493
 30
0.0
 10
-12.19124552408854
 20
-7.0956909179687493
 30
0.0
 10
-12.19124552408854
 20
-7.0956909179687493
 30
0.0
 10
-11.635207112630207
 20
-7.0956909179687493
 30
0.0
 10
-11.635207112630207
 20
-7.0956909179687493
 30
0.0
  0
SPLINE
  5
48
100
AcDbEntity
  8
LIVELLO_1
 62
     7
100
AcDbSpline
210
0.0
220
0.0
230
1.0
 70
     8
 71
     3
 72
    20
 73
    16
 74
     0
 42
0.00000001
 43
0.00000001
 40
0.0
 40
0.0
 40
0.0
 40
0.0
 40
1.0
 40
1.0
 40
1.0
 40
2.0
 40
2.0
 40
2.0
 40
3.0
 40
3.0
 40
3.0
 40
4.0
 40
4.0
 40
4.0
 40
5.0
 40
5.0
 40
5.0
 40
5.0
 10
-8.6645012749565957
 20
-7.0956909179687493
 30
0.0
 10
-8.6645012749565957
 20
-7.0956909179687493
 30
0.0
 10
-8.6645012749565957
 20
-49.121204969618049
 30
0.0
 10
-8.6645012749565957
 20
-49.121204969618049
 30
0.0
 10
-8.6645012749565957
 20
-49.308962673611106
 30
0.0
 10
-8.8162577311197907
 20
-49.456757269965273
 30
0.0
 10
-9.02210218641493
 20
-49.456757269965273
 30
0.0
 10
-9.2057257758246518
 20
-49.456757269965273
 30
0.0
 10
-9.3564487033420125
 20
-49.308962673611106
 30
0.0
 10
-9.3564487033420125
 20
-49.121204969618049
 30
0.0
 10
-9.3564487033420125
 20
-49.121204969618049
 30
0.0
 10
-9.3564487033420125
 20
-7.0956909179687493
 30
0.0
 10
-9.3564487033420125
 20
-7.0956909179687493
 30
0.0
 10
-9.3564487033420125
 20
-7.0956909179687493
 30
0.0
 10
-8.6645012749565957
 20
-7.0956909179687493
 30
0.0
 10
-8.6645012749565957
 20
-7.0956909179687493
 30
0.0
  0
SPLINE
  5
47
100
AcDbEntity
  8
LIVELLO_1
 62
     7
100
AcDbSpline
210
0.0
220
0.0
230
1.0
 70
     8
 71
     3
 72
    20
 73
    16
 74
     0
 42
0.00000001
 43
0.00000001
 40
0.0
 40
0.0
 40
0.0
 40
0.0
 40
1.0
 40
1.0
 40
1.0
 40
2.0
 40
2.0
 40
2.0
 40
3.0
 40
3.0
 40
3.0
 40
4.0
 40
4.0
 40
4.0
 40
5.0
 40
5.0
 40
5.0
 40
5.0
 10
-5.6939676920572913
 20
-7.0956909179687493
 30
0.0
 10
-5.6939676920572913
 20
-7.0956909179687493
 30
0.0
 10
-5.6939676920572913
 20
-49.121204969618049
 30
0.0
 10
-5.6939676920572913
 20
-49.121204969618049
 30
0.0
 10
-5.6939676920572913
 20
-49.308962673611106
 30
0.0
 10
-5.8436570909288186
 20
-49.456757269965273
 30
0.0
 10
-6.0513963487413189
 20
-49.456757269965273
 30
0.0
 10
-6.2351921929253464
 20
-49.456757269965273
 30
0.0
 10
-6.385915120442708
 20
-49.308962673611106
 30
0.0
 10
-6.385915120442708
 20
-49.121204969618049
 30
0.0
 10
-6.385915120442708
 20
-49.121204969618049
 30
0.0
 10
-6.385915120442708
 20
-7.0956909179687493
 30
0.0
 10
-6.385915120442708
 20
-7.0956909179687493
 30
0.0
 10
-6.385915120442708
 20
-7.0956909179687493
 30
0.0
 10
-5.6939676920572913
 20
-7.0956909179687493
 30
0.0
 10
-5.6939676920572913
 20
-7.0956909179687493
 30
0.0
  0
POLYLINE
  5
41
100
AcDbEntity
  8
LIVELLO_1
 62
     7
100
AcDb2dPolyline
 66
     1
 10
0.0
 20
0.0
 30
0.0
 70
     1
  0
VERTEX
  5
42
100
AcDbEntity
  8
LIVELLO_1
 62
     7
100
AcDbVertex
100
AcDb2dVertex
 10
-27.163114
 20
-64.903876
 30
0.0
  0
VERTEX
  5
43
100
AcDbEntity
  8
LIVELLO_1
 62
     7
100
AcDbVertex
100
AcDb2dVertex
 10
-17.076046
 20
-64.903876
 30
0.0
  0
VERTEX
  5
44
100
AcDbEntity
  8
LIVELLO_1
 62
     7
100
AcDbVertex
100
AcDb2dVertex
 10
-17.076046
 20
-68.045114
 30
0.0
  0
VERTEX
  5
45
100
AcDbEntity
  8
LIVELLO_1
 62
     7
100
AcDbVertex
100
AcDb2dVertex
 10
-27.163114
 20
-68.045114
 30
0.0
  0
SEQEND
  5
46
100
AcDbEntity
  8
LIVELLO_1
 62
     7
  0
SPLINE
  5
40
100
AcDbEntity
  8
LIVELLO_1
 62
     7
100
AcDbSpline
210
0.0
220
0.0
230
1.0
 70
     8
 71
     3
 72
    23
 73
    19
 74
     0
 42
0.00000001
 43
0.00000001
 40
0.0
 40
0.0
 40
0.0
 40
0.0
 40
1.0
 40
1.0
 40
1.0
 40
2.0
 40
2.0
 40
2.0
 40
3.0
 40
3.0
 40
3.0
 40
4.0
 40
4.0
 40
4.0
 40
5.0
 40
5.0
 40
5.0
 40
6.0
 40
6.0
 40
6.0
 40
6.0
 10
-26.566939968532985
 20
-68.045114474826377
 30
0.0
 10
-26.566939968532985
 20
-68.045114474826377
 30
0.0
 10
-26.566939968532985
 20
-68.130897352430551
 30
0.0
 10
-26.566939968532985
 20
-68.130897352430551
 30
0.0
 10
-26.566939968532985
 20
-68.769962565104166
 30
0.0
 10
-26.045697021484372
 20
-69.287415907118046
 30
0.0
 10
-25.401636420355899
 20
-69.287415907118046
 30
0.0
 10
-25.401636420355899
 20
-69.287415907118046
 30
0.0
 10
-18.837523735894095
 20
-69.287415907118046
 30
0.0
 10
-18.837523735894095
 20
-69.287415907118046
 30
0.0
 10
-18.194324408637151
 20
-69.287415907118046
 30
0.0
 10
-17.674114990234372
 20
-68.769962565104166
 30
0.0
 10
-17.674114990234372
 20
-68.130897352430551
 30
0.0
 10
-17.674114990234372
 20
-68.130897352430551
 30
0.0
 10
-17.674114990234372
 20
-68.045114474826377
 30
0.0
 10
-17.674114990234372
 20
-68.045114474826377
 30
0.0
 10
-17.674114990234372
 20
-68.045114474826377
 30
0.0
 10
-26.566939968532985
 20
-68.045114474826377
 30
0.0
 10
-26.566939968532985
 20
-68.045114474826377
 30
0.0
  0
SPLINE
  5
3F
100
AcDbEntity
  8
LIVELLO_1
 62
     7
100
AcDbSpline
210
0.0
220
0.0
230
1.0
 70
     8
 71
     3
 72
    23
 73
    19
 74
     0
 42
0.00000001
 43
0.00000001
 40
0.0
 40
0.0
 40
0.0
 40
0.0
 40
1.0
 40
1.0
 40
1.0
 40
2.0
 40
2.0
 40
2.0
 40
3.0
 40
3.0
 40
3.0
 40
4.0
 40
4.0
 40
4.0
 40
5.0
 40
5.0
 40
5.0
 40
6.0
 40
6.0
 40
6.0
 40
6.0
 10
4.9322570800781245
 20
-5.7715684678819441
 30
0.0
 10
4.9322570800781245
 20
-5.7715684678819441
 30
0.0
 10
4.9322570800781245
 20
-78.086189778645831
 30
0.0
 10
4.9322570800781245
 20
-78.086189778645831
 30
0.0
 10
4.9322570800781245
 20
-78.359730360243049
 30
0.0
 10
4.7095316569010413
 20
-78.577460394965271
 30
0.0
 10
4.4349575466579854
 20
-78.577460394965271
 30
0.0
 10
4.4349575466579854
 20
-78.577460394965271
 30
0.0
 10
-34.424341498480899
 20
-78.577460394965271
 30
0.0
 10
-34.424341498480899
 20
-78.577460394965271
 30
0.0
 10
-34.697882080078124
 20
-78.577460394965271
 30
0.0
 10
-34.920607503255205
 20
-78.359730360243049
 30
0.0
 10
-34.920607503255205
 20
-78.086189778645831
 30
0.0
 10
-34.920607503255205
 20
-78.086189778645831
 30
0.0
 10
-34.920607503255205
 20
-5.7715684678819441
 30
0.0
 10
-34.920607503255205
 20
-5.7715684678819441
 30
0.0
 10
-34.920607503255205
 20
-5.7715684678819441
 30
0.0
 10
4.9322570800781245
 20
-5.7715684678819441
 30
0.0
 10
4.9322570800781245
 20
-5.7715684678819441
 30
0.0
  0
SPLINE
  5
3E
100
AcDbEntity
  8
LIVELLO_1
 62
     7
100
AcDbSpline
210
0.0
220
0.0
230
1.0
 70
     8
 71
     3
 72
    20
 73
    16
 74
     0
 42
0.00000001
 43
0.00000001
 40
0.0
 40
0.0
 40
0.0
 40
0.0
 40
1.0
 40
1.0
 40
1.0
 40
2.0
 40
2.0
 40
2.0
 40
3.0
 40
3.0
 40
3.0
 40
4.0
 40
4.0
 40
4.0
 40
5.0
 40
5.0
 40
5.0
 40
5.0
 10
-34.066912841796871
 20
-7.0956909179687493
 30
0.0
 10
-34.341486952039929
 20
-7.0956909179687493
 30
0.0
 10
-34.562145317925342
 20
-6.8739990234374995
 30
0.0
 10
-34.562145317925342
 20
-6.602353244357638
 30
0.0
 10
-34.562145317925342
 20
-6.602353244357638
 30
0.0
 10
-34.564040120442705
 20
-5.7715684678819441
 30
0.0
 10
-34.564040120442705
 20
-5.7715684678819441
 30
0.0
 10
-34.564040120442705
 20
-5.7715684678819441
 30
0.0
 10
-18.106474473741319
 20
-5.7695014105902773
 30
0.0
 10
-18.106474473741319
 20
-5.7695014105902773
 30
0.0
 10
-18.106474473741319
 20
-5.7695014105902773
 30
0.0
 10
-17.794004313151039
 20
-7.0956909179687493
 30
0.0
 10
-17.794004313151039
 20
-7.0956909179687493
 30
0.0
 10
-17.794004313151039
 20
-7.0956909179687493
 30
0.0
 10
-34.066912841796871
 20
-7.0956909179687493
 30
0.0
 10
-34.066912841796871
 20
-7.0956909179687493
 30
0.0
  0
SPLINE
  5
3D
100
AcDbEntity
  8
LIVELLO_1
 62
     7
100
AcDbSpline
210
0.0
220
0.0
230
1.0
 70
     8
 71
     3
 72
    20
 73
    16
 74
     0
 42
0.00000001
 43
0.00000001
 40
0.0
 40
0.0
 40
0.0
 40
0.0
 40
1.0
 40
1.0
 40
1.0
 40
2.0
 40
2.0
 40
2.0
 40
3.0
 40
3.0
 40
3.0
 40
4.0
 40
4.0
 40
4.0
 40
5.0
 40
5.0
 40
5.0
 40
5.0
 10
-11.898756917317707
 20
-5.7695014105902773
 30
0.0
 10
-11.898756917317707
 20
-5.7695014105902773
 30
0.0
 10
4.7205559624565971
 20
-5.7715684678819441
 30
0.0
 10
4.7205559624565971
 20
-5.7715684678819441
 30
0.0
 10
4.7205559624565971
 20
-5.7715684678819441
 30
0.0
 10
4.7205559624565971
 20
-6.602353244357638
 30
0.0
 10
4.7205559624565971
 20
-6.602353244357638
 30
0.0
 10
4.7205559624565971
 20
-6.8739990234374995
 30
0.0
 10
4.4998975965711798
 20
-7.0956909179687493
 30
0.0
 10
4.2253234863281248
 20
-7.0956909179687493
 30
0.0
 10
4.2253234863281248
 20
-7.0956909179687493
 30
0.0
 10
-12.211227077907985
 20
-7.0956909179687493
 30
0.0
 10
-12.211227077907985
 20
-7.0956909179687493
 30
0.0
 10
-12.211227077907985
 20
-7.0956909179687493
 30
0.0
 10
-11.898756917317707
 20
-5.7695014105902773
 30
0.0
 10
-11.898756917317707
 20
-5.7695014105902773
 30
0.0
  0
SPLINE
  5
3C
100
AcDbEntity
  8
LIVELLO_1
 62
     7
100
AcDbSpline
210
0.0
220
0.0
230
1.0
 70
     8
 71
     3
 72
    14
 73
    10
 74
     0
 42
0.00000001
 43
0.00000001
 40
0.0
 40
0.0
 40
0.0
 40
0.0
 40
1.0
 40
1.0
 40
1.0
 40
2.0
 40
2.0
 40
2.0
 40
3.0
 40
3.0
 40
3.0
 40
3.0
 10
-35.848199462890619
 20
3.5286390516493054
 30
0.0
 10
-34.267589653862842
 20
9.8133544921874982
 30
0.0
 10
-24.884527587890624
 20
11.68645290798611
 30
0.0
 10
-14.994175211588541
 20
11.68645290798611
 30
0.0
 10
-5.1038228352864579
 20
11.68645290798611
 30
0.0
 10
4.2813062879774302
 20
9.8133544921874982
 30
0.0
 10
5.8598490397135414
 20
3.5286390516493054
 30
0.0
 10
5.8598490397135414
 20
3.5286390516493054
 30
0.0
 10
-35.848199462890619
 20
3.5286390516493054
 30
0.0
 10
-35.848199462890619
 20
3.5286390516493054
 30
0.0
  0
LINE
  5
3B
100
AcDbEntity
  8
LIVELLO_1
 62
     7
100
AcDbLine
 10
32.301646
 20
1.198032
 30
0.0
 11
32.301646
 21
11.686453
 31
0.0
  0
LINE
  5
3A
100
AcDbEntity
  8
LIVELLO_1
 62
     7
100
AcDbLine
 10
6.618804
 20
1.198032
 30
0.0
 11
20.714756
 21
1.198032
 31
0.0
  0
LINE
  5
39
100
AcDbEntity
  8
LIVELLO_1
 62
     7
100
AcDbLine
 10
-50.620252
 20
1.198032
 30
0.0
 11
-36.535152
 21
1.198032
 31
0.0
  0
SPLINE
  5
38
100
AcDbEntity
  8
LIVELLO_1
 62
     7
100
AcDbSpline
210
0.0
220
0.0
230
1.0
 70
     8
 71
     3
 72
    14
 73
    10
 74
     0
 42
0.00000001
 43
0.00000001
 40
0.0
 40
0.0
 40
0.0
 40
0.0
 40
1.0
 40
1.0
 40
1.0
 40
2.0
 40
2.0
 40
2.0
 40
3.0
 40
3.0
 40
3.0
 40
3.0
 10
6.5499016655815963
 20
3.5286390516493054
 30
0.0
 10
6.5499016655815963
 20
3.5286390516493054
 30
0.0
 10
6.6188035753038186
 20
1.1980319552951388
 30
0.0
 10
6.6188035753038186
 20
1.1980319552951388
 30
0.0
 10
6.6188035753038186
 20
1.1980319552951388
 30
0.0
 10
11.381648084852429
 20
1.1980319552951388
 30
0.0
 10
11.381648084852429
 20
1.1980319552951388
 30
0.0
 10
11.381648084852429
 20
1.1980319552951388
 30
0.0
 10
12.445149061414929
 20
3.5286390516493054
 30
0.0
 10
6.5499016655815963
 20
3.5286390516493054
 30
0.0
  0
SPLINE
  5
37
100
AcDbEntity
  8
LIVELLO_1
 62
     7
100
AcDbSpline
210
0.0
220
0.0
230
1.0
 70
     8
 71
     3
 72
    14
 73
    10
 74
     0
 42
0.00000001
 43
0.00000001
 40
0.0
 40
0.0
 40
0.0
 40
0.0
 40
1.0
 40
1.0
 40
1.0
 40
2.0
 40
2.0
 40
2.0
 40
3.0
 40
3.0
 40
3.0
 40
3.0
 10
-36.599058024088535
 20
3.5286390516493054
 30
0.0
 10
-36.599058024088535
 20
3.5286390516493054
 30
0.0
 10
-36.535151502821179
 20
1.1980319552951388
 30
0.0
 10
-36.535151502821179
 20
1.1980319552951388
 30
0.0
 10
-36.535151502821179
 20
1.1980319552951388
 30
0.0
 10
-41.367931450737842
 20
1.1980319552951388
 30
0.0
 10
-41.367931450737842
 20
1.1980319552951388
 30
0.0
 10
-41.367931450737842
 20
1.1980319552951388
 30
0.0
 10
-42.494305419921872
 20
3.5286390516493054
 30
0.0
 10
-36.599058024088535
 20
3.5286390516493054
 30
0.0
  0
LINE
  5
36
100
AcDbEntity
  8
LIVELLO_1
 62
     7
100
AcDbLine
 10
-28.217485
 20
-104.293376
 30
0.0
 11
-36.641949
 21
-104.293376
 31
0.0
  0
LINE
  5
35
100
AcDbEntity
  8
LIVELLO_1
 62
     7
100
AcDbLine
 10
6.898373
 20
-104.293376
 30
0.0
 11
-2.524652
 21
-104.293376
 31
0.0
  0
LINE
  5
34
100
AcDbEntity
  8
LIVELLO_1
 62
     7
100
AcDbLine
 10
7.230825
 20
-107.786013
 30
0.0
 11
7.230825
 21
-101.054297
 31
0.0
  0
LINE
  5
33
100
AcDbEntity
  8
LIVELLO_1
 62
     7
100
AcDbLine
 10
-36.821783
 20
-107.790148
 30
0.0
 11
-36.821783
 21
-101.058086
 31
0.0
  0
MTEXT
  5
32
100
AcDbEntity
  8
LIVELLO_1
 62
     7
100
AcDbMText
 10
-27.851788
 20
-98.078246
 30
0.0
 40
8.22672
 41
0.0
 71
     1
 72
     2
  1
\fCourier|b0|i0;\H8.2267;\W1.01;\C7;\U+00F8\U+0031\U+0033\U+0032
  7
STD
210
0.0
220
0.0
230
1.0
 73
     1
 44
1.0
  0
POLYLINE
  5
2C
100
AcDbEntity
  8
LIVELLO_1
 62
     7
100
AcDb2dPolyline
 66
     1
 10
0.0
 20
0.0
 30
0.0
 70
     1
  0
VERTEX
  5
2D
100
AcDbEntity
  8
LIVELLO_1
 62
     7
100
AcDbVertex
100
AcDb2dVertex
 10
5.069027
 20
-0.163987
 30
0.0
  0
VERTEX
  5
2E
100
AcDbEntity
  8
LIVELLO_1
 62
     7
100
AcDbVertex
100
AcDb2dVertex
 10
6.320286
 20
-0.163987
 30
0.0
  0
VERTEX
  5
2F
100
AcDbEntity
  8
LIVELLO_1
 62
     7
100
AcDbVertex
100
AcDb2dVertex
 10
6.320286
 20
1.563557
 30
0.0
  0
VERTEX
  5
30
100
AcDbEntity
  8
LIVELLO_1
 62
     7
100
AcDbVertex
100
AcDb2dVertex
 10
5.069027
 20
1.563557
 30
0.0
  0
SEQEND
  5
31
100
AcDbEntity
  8
LIVELLO_1
 62
     7
  0
ENDBLK
  5
11A
100
AcDbEntity
  8
LIVELLO_1
100
AcDbBlockEnd
  0
BLOCK
  5
83
100
AcDbEntity
  8
LIVELLO_1
 62
     7
100
AcDbBlockBegin
  2
AI9-BLK2
 70
     0
 10
0.0
 20
0.0
 30
0.0
  3
AI9-BLK2
  1

  0
POLYLINE
  5
F1
100
AcDbEntity
  8
LIVELLO_1
 62
     7
100
AcDb2dPolyline
 66
     1
 10
0.0
 20
0.0
 30
0.0
 70
     1
  0
VERTEX
  5
F2
100
AcDbEntity
  8
LIVELLO_1
 62
     7
100
AcDbVertex
100
AcDb2dVertex
 10
23.352407
 20
-0.379822
 30
0.0
  0
VERTEX
  5
F3
100
AcDbEntity
  8
LIVELLO_1
 62
     7
100
AcDbVertex
100
AcDb2dVertex
 10
22.406901
 20
-1.114661
 30
0.0
  0
VERTEX
  5
F4
100
AcDbEntity
  8
LIVELLO_1
 62
     7
100
AcDbVertex
100
AcDb2dVertex
 10
22.170223
 20
-2.580549
 30
0.0
  0
VERTEX
  5
F5
100
AcDbEntity
  8
LIVELLO_1
 62
     7
100
AcDbVertex
100
AcDb2dVertex
 10
23.352407
 20
-3.315388
 30
0.0
  0
VERTEX
  5
F6
100
AcDbEntity
  8
LIVELLO_1
 62
     7
100
AcDbVertex
100
AcDb2dVertex
 10
23.82473
 20
-1.480185
 30
0.0
  0
SEQEND
  5
F7
100
AcDbEntity
  8
LIVELLO_1
 62
     7
  0
SPLINE
  5
F0
100
AcDbEntity
  8
LIVELLO_1
 62
     7
100
AcDbSpline
210
0.0
220
0.0
230
1.0
 70
     8
 71
     3
 72
    17
 73
    13
 74
     0
 42
0.00000001
 43
0.00000001
 40
0.0
 40
0.0
 40
0.0
 40
0.0
 40
1.0
 40
1.0
 40
1.0
 40
2.0
 40
2.0
 40
2.0
 40
3.0
 40
3.0
 40
3.0
 40
4.0
 40
4.0
 40
4.0
 40
4.0
 10
20.144162326388887
 20
-11.768618435329859
 30
0.0
 10
20.832147894965274
 20
-12.08832329644097
 30
0.0
 10
21.404378255208332
 20
-14.434777832031248
 30
0.0
 10
22.12922634548611
 20
-14.434777832031248
 30
0.0
 10
23.090924750434027
 20
-14.434777832031248
 30
0.0
 10
23.917575412326386
 20
-13.314432779947916
 30
0.0
 10
23.917575412326386
 20
-11.816849772135416
 30
0.0
 10
23.917575412326386
 20
-11.337292480468749
 30
0.0
 10
23.881746419270833
 20
-11.071675618489582
 30
0.0
 10
23.917575412326386
 20
-10.592462836371526
 30
0.0
 10
22.298036024305553
 20
-10.592462836371526
 30
0.0
 10
20.284033203124999
 20
-9.2605889214409718
 30
0.0
 10
20.144162326388887
 20
-11.768618435329859
 30
0.0
  0
SPLINE
  5
EF
100
AcDbEntity
  8
LIVELLO_1
 62
     7
100
AcDbSpline
210
0.0
220
0.0
230
1.0
 70
     8
 71
     3
 72
    17
 73
    13
 74
     0
 42
0.00000001
 43
0.00000001
 40
0.0
 40
0.0
 40
0.0
 40
0.0
 40
1.0
 40
1.0
 40
1.0
 40
2.0
 40
2.0
 40
2.0
 40
3.0
 40
3.0
 40
3.0
 40
4.0
 40
4.0
 40
4.0
 40
4.0
 10
25.468385145399303
 20
14.302486165364583
 30
0.0
 10
24.539759657118054
 20
13.873227267795137
 30
0.0
 10
23.576166449652774
 20
13.074309624565972
 30
0.0
 10
23.576166449652774
 20
11.524705674913193
 30
0.0
 10
23.576166449652774
 20
10.881506347656249
 30
0.0
 10
23.988544379340276
 20
10.34855007595486
 30
0.0
 10
24.401955837673608
 20
10.34855007595486
 30
0.0
 10
25.709025065104164
 20
10.34855007595486
 30
0.0
 10
27.085857476128471
 20
11.416874186197916
 30
0.0
 10
27.085857476128471
 20
13.445690917968749
 30
0.0
 10
27.085857476128471
 20
14.889530436197916
 30
0.0
 10
25.468385145399303
 20
14.302486165364583
 30
0.0
 10
25.468385145399303
 20
14.302486165364583
 30
0.0
  0
SPLINE
  5
EE
100
AcDbEntity
  8
LIVELLO_1
 62
     7
100
AcDbSpline
210
0.0
220
0.0
230
1.0
 70
     8
 71
     3
 72
    26
 73
    22
 74
     0
 42
0.00000001
 43
0.00000001
 40
0.0
 40
0.0
 40
0.0
 40
0.0
 40
1.0
 40
1.0
 40
1.0
 40
2.0
 40
2.0
 40
2.0
 40
3.0
 40
3.0
 40
3.0
 40
4.0
 40
4.0
 40
4.0
 40
5.0
 40
5.0
 40
5.0
 40
6.0
 40
6.0
 40
6.0
 40
7.0
 40
7.0
 40
7.0
 40
7.0
 10
25.366410319010413
 20
7.5924736870659713
 30
0.0
 10
25.366410319010413
 20
7.5924736870659713
 30
0.0
 10
24.18215874565972
 20
7.226949055989583
 30
0.0
 10
24.18215874565972
 20
7.226949055989583
 30
0.0
 10
24.18215874565972
 20
7.226949055989583
 30
0.0
 10
23.944619411892358
 20
5.7610609266493054
 30
0.0
 10
23.944619411892358
 20
5.7610609266493054
 30
0.0
 10
24.537692599826386
 20
5.6652872721354157
 30
0.0
 10
24.892192925347221
 20
5.3917466905381941
 30
0.0
 10
25.483371310763886
 20
5.3917466905381941
 30
0.0
 10
26.131393771701386
 20
5.3917466905381941
 30
0.0
 10
26.310021972656248
 20
6.4001261393229161
 30
0.0
 10
26.784411621093749
 20
6.8614244249131939
 30
0.0
 10
26.784411621093749
 20
6.8614244249131939
 30
0.0
 10
26.784411621093749
 20
8.421363661024305
 30
0.0
 10
26.784411621093749
 20
8.421363661024305
 30
0.0
 10
26.784411621093749
 20
8.421363661024305
 30
0.0
 10
25.838732910156249
 20
9.1562025282118054
 30
0.0
 10
25.838732910156249
 20
9.1562025282118054
 30
0.0
 10
25.838732910156249
 20
9.1562025282118054
 30
0.0
 10
25.366410319010413
 20
7.5924736870659713
 30
0.0
 10
25.366410319010413
 20
7.5924736870659713
 30
0.0
  0
SPLINE
  5
ED
100
AcDbEntity
  8
LIVELLO_1
 62
     7
100
AcDbSpline
210
0.0
220
0.0
230
1.0
 70
     8
 71
     3
 72
    23
 73
    19
 74
     0
 42
0.00000001
 43
0.00000001
 40
0.0
 40
0.0
 40
0.0
 40
0.0
 40
1.0
 40
1.0
 40
1.0
 40
2.0
 40
2.0
 40
2.0
 40
3.0
 40
3.0
 40
3.0
 40
4.0
 40
4.0
 40
4.0
 40
5.0
 40
5.0
 40
5.0
 40
6.0
 40
6.0
 40
6.0
 40
6.0
 10
21.285522460937496
 20
-6.6664320203993048
 30
0.0
 10
21.285522460937496
 20
-6.6664320203993048
 30
0.0
 10
20.574627007378471
 20
-8.1340426974826379
 30
0.0
 10
20.574627007378471
 20
-8.1340426974826379
 30
0.0
 10
21.344433593749997
 20
-8.5936184353298604
 30
0.0
 10
21.758878580729164
 20
-9.2344061957465264
 30
0.0
 10
22.58656277126736
 20
-9.2344061957465264
 30
0.0
 10
23.414419216579859
 20
-9.2344061957465264
 30
0.0
 10
23.18876546223958
 20
-8.8692260742187496
 30
0.0
 10
24.016449652777776
 20
-8.8692260742187496
 30
0.0
 10
24.074327256944443
 20
-8.0424031575520818
 30
0.0
 10
24.889264594184027
 20
-7.9524861653645829
 30
0.0
 10
24.889264594184027
 20
-7.1256632486979159
 30
0.0
 10
24.889264594184027
 20
-5.0148532443576386
 30
0.0
 10
23.116762966579859
 20
-4.5573445638020829
 30
0.0
 10
21.758878580729164
 20
-4.7392456054687493
 30
0.0
 10
21.758878580729164
 20
-4.7392456054687493
 30
0.0
 10
21.285522460937496
 20
-6.6664320203993048
 30
0.0
 10
21.285522460937496
 20
-6.6664320203993048
 30
0.0
  0
SPLINE
  5
EC
100
AcDbEntity
  8
LIVELLO_1
 62
     7
100
AcDbSpline
210
0.0
220
0.0
230
1.0
 70
     8
 71
     3
 72
    17
 73
    13
 74
     0
 42
0.00000001
 43
0.00000001
 40
0.0
 40
0.0
 40
0.0
 40
0.0
 40
1.0
 40
1.0
 40
1.0
 40
2.0
 40
2.0
 40
2.0
 40
3.0
 40
3.0
 40
3.0
 40
4.0
 40
4.0
 40
4.0
 40
4.0
 10
27.09791531032986
 20
-9.0866115993923611
 30
0.0
 10
25.894715711805553
 20
-9.1386325412326386
 30
0.0
 10
24.383007812499997
 20
-9.6199123806423597
 30
0.0
 10
24.383007812499997
 20
-11.48922119140625
 30
0.0
 10
24.383007812499997
 20
-13.572125922309027
 30
0.0
 10
26.133288574218749
 20
-13.731978352864582
 30
0.0
 10
27.476359049479164
 20
-13.731978352864582
 30
0.0
 10
28.268214246961804
 20
-13.731978352864582
 30
0.0
 10
28.540721299913191
 20
-12.28986138237847
 30
0.0
 10
28.540721299913191
 20
-11.059962293836804
 30
0.0
 10
28.540721299913191
 20
-10.101192220052083
 30
0.0
 10
27.714931911892357
 20
-9.0328681098090264
 30
0.0
 10
27.09791531032986
 20
-9.0866115993923611
 30
0.0
  0
SPLINE
  5
EB
100
AcDbEntity
  8
LIVELLO_1
 62
     7
100
AcDbSpline
210
0.0
220
0.0
230
1.0
 70
     8
 71
     3
 72
    20
 73
    16
 74
     0
 42
0.00000001
 43
0.00000001
 40
0.0
 40
0.0
 40
0.0
 40
0.0
 40
1.0
 40
1.0
 40
1.0
 40
2.0
 40
2.0
 40
2.0
 40
3.0
 40
3.0
 40
3.0
 40
4.0
 40
4.0
 40
4.0
 40
5.0
 40
5.0
 40
5.0
 40
5.0
 10
25.215687391493052
 20
-2.2729017469618054
 30
0.0
 10
25.333509657118054
 20
-4.9328599717881936
 30
0.0
 10
25.378468153211802
 20
-7.6227905273437493
 30
0.0
 10
27.094986979166663
 20
-7.6227905273437493
 30
0.0
 10
28.27613796657986
 20
-7.6227905273437493
 30
0.0
 10
28.807371690538194
 20
-6.1589694552951384
 30
0.0
 10
29.457461208767359
 20
-4.6892917209201386
 30
0.0
 10
29.457461208767359
 20
-4.6892917209201386
 30
0.0
 10
28.152286783854166
 20
-2.2729017469618054
 30
0.0
 10
28.152286783854166
 20
-2.2729017469618054
 30
0.0
 10
26.910157606336803
 20
-1.9972941080729165
 30
0.0
 10
28.001563856336801
 20
-0.9589423285590277
 30
0.0
 10
26.816278754340274
 20
-0.40772705078125
 30
0.0
 10
26.816278754340274
 20
-0.40772705078125
 30
0.0
 10
25.215687391493052
 20
-2.2729017469618054
 30
0.0
 10
25.215687391493052
 20
-2.2729017469618054
 30
0.0
  0
SPLINE
  5
EA
100
AcDbEntity
  8
LIVELLO_1
 62
     7
100
AcDbSpline
210
0.0
220
0.0
230
1.0
 70
     8
 71
     3
 72
    14
 73
    10
 74
     0
 42
0.00000001
 43
0.00000001
 40
0.0
 40
0.0
 40
0.0
 40
0.0
 40
1.0
 40
1.0
 40
1.0
 40
2.0
 40
2.0
 40
2.0
 40
3.0
 40
3.0
 40
3.0
 40
3.0
 10
26.385986328124996
 20
1.9807576497395831
 30
0.0
 10
26.797330729166664
 20
1.7971340603298609
 30
0.0
 10
27.094986979166663
 20
1.2459187825520832
 30
0.0
 10
27.566276041666665
 20
1.2459187825520832
 30
0.0
 10
28.807371690538194
 20
1.2459187825520832
 30
0.0
 10
30.397972276475691
 20
3.3229668511284718
 30
0.0
 10
30.533881293402775
 20
5.8072252061631939
 30
0.0
 10
27.753000217013888
 20
7.4667277018229159
 30
0.0
 10
27.152864583333329
 20
3.9999281141493053
 30
0.0
 10
26.385986328124996
 20
1.9807576497395831
 30
0.0
  0
SPLINE
  5
E9
100
AcDbEntity
  8
LIVELLO_1
 62
     7
100
AcDbSpline
210
0.0
220
0.0
230
1.0
 70
     8
 71
     3
 72
    17
 73
    13
 74
     0
 42
0.00000001
 43
0.00000001
 40
0.0
 40
0.0
 40
0.0
 40
0.0
 40
1.0
 40
1.0
 40
1.0
 40
2.0
 40
2.0
 40
2.0
 40
3.0
 40
3.0
 40
3.0
 40
4.0
 40
4.0
 40
4.0
 40
4.0
 10
16.166110568576386
 20
-9.0228773328993039
 30
0.0
 10
16.856163194444441
 20
-9.3443047417534721
 30
0.0
 10
17.300408257378471
 20
-9.6657321506076386
 30
0.0
 10
18.025428602430555
 20
-9.6657321506076386
 30
0.0
 10
18.984887695312498
 20
-9.6657321506076386
 30
0.0
 10
19.812744140624996
 20
-8.5415974934895829
 30
0.0
 10
19.812744140624996
 20
-7.0478040907118054
 30
0.0
 10
19.812744140624996
 20
-6.5685913085937493
 30
0.0
 10
19.778809950086803
 20
-6.2988403320312498
 30
0.0
 10
19.812744140624996
 20
-5.8196275499131938
 30
0.0
 10
18.196133083767361
 20
-5.8196275499131938
 30
0.0
 10
16.303914388020832
 20
-6.514503309461805
 30
0.0
 10
16.166110568576386
 20
-9.0228773328993039
 30
0.0
  0
SPLINE
  5
E8
100
AcDbEntity
  8
LIVELLO_1
 62
     7
100
AcDbSpline
210
0.0
220
0.0
230
1.0
 70
     8
 71
     3
 72
    20
 73
    16
 74
     0
 42
0.00000001
 43
0.00000001
 40
0.0
 40
0.0
 40
0.0
 40
0.0
 40
1.0
 40
1.0
 40
1.0
 40
2.0
 40
2.0
 40
2.0
 40
3.0
 40
3.0
 40
3.0
 40
4.0
 40
4.0
 40
4.0
 40
5.0
 40
5.0
 40
5.0
 40
5.0
 10
20.331920030381944
 20
7.95179714626736
 30
0.0
 10
20.331920030381944
 20
7.95179714626736
 30
0.0
 10
17.263545735677081
 20
7.6265801323784714
 30
0.0
 10
17.263545735677081
 20
7.6265801323784714
 30
0.0
 10
17.325385199652775
 20
6.5320732964409718
 30
0.0
 10
17.357424587673609
 20
5.9829250759548609
 30
0.0
 10
17.418230523003469
 20
4.8846286349826382
 30
0.0
 10
17.671961805555554
 20
0.4053154839409722
 30
0.0
 10
21.395421006944442
 20
0.6347588433159722
 30
0.0
 10
24.303081597222221
 20
0.6626641167534721
 30
0.0
 10
24.126348198784719
 20
3.7680731879340272
 30
0.0
 10
23.037009006076385
 20
6.292294650607638
 30
0.0
 10
21.098798285590277
 20
6.9513414171006938
 30
0.0
 10
21.098798285590277
 20
6.9513414171006938
 30
0.0
 10
20.331920030381944
 20
7.95179714626736
 30
0.0
 10
20.331920030381944
 20
7.95179714626736
 30
0.0
  0
SPLINE
  5
E7
100
AcDbEntity
  8
LIVELLO_1
 62
     7
100
AcDbSpline
210
0.0
220
0.0
230
1.0
 70
     8
 71
     3
 72
    17
 73
    13
 74
     0
 42
0.00000001
 43
0.00000001
 40
0.0
 40
0.0
 40
0.0
 40
0.0
 40
1.0
 40
1.0
 40
1.0
 40
2.0
 40
2.0
 40
2.0
 40
3.0
 40
3.0
 40
3.0
 40
4.0
 40
4.0
 40
4.0
 40
4.0
 10
19.262562391493052
 20
14.418241373697915
 30
0.0
 10
18.093296983506942
 20
14.418241373697915
 30
0.0
 10
16.956932237413191
 20
13.190064832899305
 30
0.0
 10
16.956932237413191
 20
11.374844021267361
 30
0.0
 10
16.956932237413191
 20
9.6133666992187496
 30
0.0
 10
18.402838812934025
 20
9.1320868598090268
 30
0.0
 10
19.538170030381941
 20
9.1320868598090268
 30
0.0
 10
21.119813368055553
 20
9.1320868598090268
 30
0.0
 10
23.184803602430552
 20
9.6653876410590271
 30
0.0
 10
23.184803602430552
 20
12.121740722656249
 30
0.0
 10
23.184803602430552
 20
14.470262315538193
 30
0.0
 10
20.778232150607636
 20
14.260456000434026
 30
0.0
 10
19.262562391493052
 20
14.418241373697915
 30
0.0
  0
POLYLINE
  5
E0
100
AcDbEntity
  8
LIVELLO_1
 62
     7
100
AcDb2dPolyline
 66
     1
 10
0.0
 20
0.0
 30
0.0
 70
     1
  0
VERTEX
  5
E1
100
AcDbEntity
  8
LIVELLO_1
 62
     7
100
AcDbVertex
100
AcDb2dVertex
 10
-11.79239
 20
13.5518
 30
0.0
  0
VERTEX
  5
E2
100
AcDbEntity
  8
LIVELLO_1
 62
     7
100
AcDbVertex
100
AcDb2dVertex
 10
-12.736863
 20
12.818684
 30
0.0
  0
VERTEX
  5
E3
100
AcDbEntity
  8
LIVELLO_1
 62
     7
100
AcDbVertex
100
AcDb2dVertex
 10
-12.974574
 20
11.349006
 30
0.0
  0
VERTEX
  5
E4
100
AcDbEntity
  8
LIVELLO_1
 62
     7
100
AcDbVertex
100
AcDb2dVertex
 10
-11.79239
 20
10.613822
 30
0.0
  0
VERTEX
  5
E5
100
AcDbEntity
  8
LIVELLO_1
 62
     7
100
AcDbVertex
100
AcDb2dVertex
 10
-11.320067
 20
12.451436
 30
0.0
  0
SEQEND
  5
E6
100
AcDbEntity
  8
LIVELLO_1
 62
     7
  0
POLYLINE
  5
D9
100
AcDbEntity
  8
LIVELLO_1
 62
     7
100
AcDb2dPolyline
 66
     1
 10
0.0
 20
0.0
 30
0.0
 70
     1
  0
VERTEX
  5
DA
100
AcDbEntity
  8
LIVELLO_1
 62
     7
100
AcDbVertex
100
AcDb2dVertex
 10
-22.683198
 20
0.496955
 30
0.0
  0
VERTEX
  5
DB
100
AcDbEntity
  8
LIVELLO_1
 62
     7
100
AcDbVertex
100
AcDb2dVertex
 10
-21.781444
 20
-0.361563
 30
0.0
  0
VERTEX
  5
DC
100
AcDbEntity
  8
LIVELLO_1
 62
     7
100
AcDbVertex
100
AcDb2dVertex
 10
-21.628826
 20
-1.85949
 30
0.0
  0
VERTEX
  5
DD
100
AcDbEntity
  8
LIVELLO_1
 62
     7
100
AcDbVertex
100
AcDb2dVertex
 10
-22.847873
 20
-2.42862
 30
0.0
  0
VERTEX
  5
DE
100
AcDbEntity
  8
LIVELLO_1
 62
     7
100
AcDbVertex
100
AcDb2dVertex
 10
-23.214431
 20
-0.537607
 30
0.0
  0
SEQEND
  5
DF
100
AcDbEntity
  8
LIVELLO_1
 62
     7
  0
POLYLINE
  5
D2
100
AcDbEntity
  8
LIVELLO_1
 62
     7
100
AcDb2dPolyline
 66
     1
 10
0.0
 20
0.0
 30
0.0
 70
     1
  0
VERTEX
  5
D3
100
AcDbEntity
  8
LIVELLO_1
 62
     7
100
AcDbVertex
100
AcDb2dVertex
 10
-2.112705
 20
-8.967067
 30
0.0
  0
VERTEX
  5
D4
100
AcDbEntity
  8
LIVELLO_1
 62
     7
100
AcDbVertex
100
AcDb2dVertex
 10
-3.061312
 20
-9.701906
 30
0.0
  0
VERTEX
  5
D5
100
AcDbEntity
  8
LIVELLO_1
 62
     7
100
AcDbVertex
100
AcDb2dVertex
 10
-3.296956
 20
-11.171583
 30
0.0
  0
VERTEX
  5
D6
100
AcDbEntity
  8
LIVELLO_1
 62
     7
100
AcDbVertex
100
AcDb2dVertex
 10
-2.112705
 20
-11.906422
 30
0.0
  0
VERTEX
  5
D7
100
AcDbEntity
  8
LIVELLO_1
 62
     7
100
AcDbVertex
100
AcDb2dVertex
 10
-1.643483
 20
-10.06743
 30
0.0
  0
SEQEND
  5
D8
100
AcDbEntity
  8
LIVELLO_1
 62
     7
  0
SPLINE
  5
D1
100
AcDbEntity
  8
LIVELLO_1
 62
     7
100
AcDbSpline
210
0.0
220
0.0
230
1.0
 70
     8
 71
     3
 72
    17
 73
    13
 74
     0
 42
0.00000001
 43
0.00000001
 40
0.0
 40
0.0
 40
0.0
 40
0.0
 40
1.0
 40
1.0
 40
1.0
 40
2.0
 40
2.0
 40
2.0
 40
3.0
 40
3.0
 40
3.0
 40
4.0
 40
4.0
 40
4.0
 40
4.0
 10
-6.4922824435763884
 20
3.4724839952256943
 30
0.0
 10
-6.4922824435763884
 20
3.4724839952256943
 30
0.0
 10
-5.7272989908854157
 20
3.3687866210937498
 30
0.0
 10
-5.7272989908854157
 20
3.3687866210937498
 30
0.0
 10
-5.7272989908854157
 20
3.3687866210937498
 30
0.0
 10
-6.1267578124999993
 20
0.4749064127604166
 30
0.0
 10
-6.1267578124999993
 20
0.4749064127604166
 30
0.0
 10
-6.6280192057291663
 20
1.0981241861979165
 30
0.0
 10
-7.3189331054687496
 20
1.4674384223090275
 30
0.0
 10
-7.2631225585937491
 20
2.4720282660590276
 30
0.0
 10
-7.2310831705729157
 20
3.0211764865451385
 30
0.0
 10
-6.635942925347222
 20
3.0332343207465273
 30
0.0
 10
-6.4922824435763884
 20
3.4724839952256943
 30
0.0
  0
POLYLINE
  5
CA
100
AcDbEntity
  8
LIVELLO_1
 62
     7
100
AcDb2dPolyline
 66
     1
 10
0.0
 20
0.0
 30
0.0
 70
     1
  0
VERTEX
  5
CB
100
AcDbEntity
  8
LIVELLO_1
 62
     7
100
AcDbVertex
100
AcDb2dVertex
 10
-25.023623
 20
14.418241
 30
0.0
  0
VERTEX
  5
CC
100
AcDbEntity
  8
LIVELLO_1
 62
     7
100
AcDbVertex
100
AcDb2dVertex
 10
-24.124109
 20
13.561446
 30
0.0
  0
VERTEX
  5
CD
100
AcDbEntity
  8
LIVELLO_1
 62
     7
100
AcDbVertex
100
AcDb2dVertex
 10
-23.967185
 20
12.06593
 30
0.0
  0
VERTEX
  5
CE
100
AcDbEntity
  8
LIVELLO_1
 62
     7
100
AcDbVertex
100
AcDb2dVertex
 10
-25.188471
 20
11.492666
 30
0.0
  0
VERTEX
  5
CF
100
AcDbEntity
  8
LIVELLO_1
 62
     7
100
AcDbVertex
100
AcDb2dVertex
 10
-25.556924
 20
13.385746
 30
0.0
  0
SEQEND
  5
D0
100
AcDbEntity
  8
LIVELLO_1
 62
     7
  0
POLYLINE
  5
C3
100
AcDbEntity
  8
LIVELLO_1
 62
     7
100
AcDb2dPolyline
 66
     1
 10
0.0
 20
0.0
 30
0.0
 70
     1
  0
VERTEX
  5
C4
100
AcDbEntity
  8
LIVELLO_1
 62
     7
100
AcDbVertex
100
AcDb2dVertex
 10
-28.07615
 20
14.418241
 30
0.0
  0
VERTEX
  5
C5
100
AcDbEntity
  8
LIVELLO_1
 62
     7
100
AcDbVertex
100
AcDb2dVertex
 10
-29.02269
 20
13.68547
 30
0.0
  0
VERTEX
  5
C6
100
AcDbEntity
  8
LIVELLO_1
 62
     7
100
AcDbVertex
100
AcDb2dVertex
 10
-29.258335
 20
12.217514
 30
0.0
  0
VERTEX
  5
C7
100
AcDbEntity
  8
LIVELLO_1
 62
     7
100
AcDbVertex
100
AcDb2dVertex
 10
-28.07615
 20
11.482676
 30
0.0
  0
VERTEX
  5
C8
100
AcDbEntity
  8
LIVELLO_1
 62
     7
100
AcDbVertex
100
AcDb2dVertex
 10
-27.601933
 20
13.317878
 30
0.0
  0
SEQEND
  5
C9
100
AcDbEntity
  8
LIVELLO_1
 62
     7
  0
SPLINE
  5
C2
100
AcDbEntity
  8
LIVELLO_1
 62
     7
100
AcDbSpline
210
0.0
220
0.0
230
1.0
 70
     8
 71
     3
 72
    14
 73
    10
 74
     0
 42
0.00000001
 43
0.00000001
 40
0.0
 40
0.0
 40
0.0
 40
0.0
 40
1.0
 40
1.0
 40
1.0
 40
2.0
 40
2.0
 40
2.0
 40
3.0
 40
3.0
 40
3.0
 40
3.0
 10
-22.255833604600692
 20
11.654585774739582
 30
0.0
 10
-21.843455674913191
 20
11.472684733072915
 30
0.0
 10
-21.546832953559026
 20
10.921469455295139
 30
0.0
 10
-21.074510362413193
 20
10.921469455295139
 30
0.0
 10
-19.834448242187499
 20
10.921469455295139
 30
0.0
 10
-19.242236328124999
 20
12.573048231336804
 30
0.0
 10
-18.7120361328125
 20
14.316611056857637
 30
0.0
 10
-20.189809841579859
 20
14.773775227864583
 30
0.0
 10
-21.488955349392359
 20
13.673411729600693
 30
0.0
 10
-22.255833604600692
 20
11.654585774739582
 30
0.0
  0
SPLINE
  5
C1
100
AcDbEntity
  8
LIVELLO_1
 62
     7
100
AcDbSpline
210
0.0
220
0.0
230
1.0
 70
     8
 71
     3
 72
    14
 73
    10
 74
     0
 42
0.00000001
 43
0.00000001
 40
0.0
 40
0.0
 40
0.0
 40
0.0
 40
1.0
 40
1.0
 40
1.0
 40
2.0
 40
2.0
 40
2.0
 40
3.0
 40
3.0
 40
3.0
 40
3.0
 10
-7.3189331054687496
 20
11.257021755642359
 30
0.0
 10
-7.7404405381944441
 20
11.129208713107637
 30
0.0
 10
-8.064796278211805
 20
10.622090657552082
 30
0.0
 10
-8.5371188693576379
 20
10.683757866753471
 30
0.0
 10
-9.77339138454861
 20
10.851534016927083
 30
0.0
 10
-10.269657389322916
 20
12.578904893663193
 30
0.0
 10
-10.700983344184026
 20
14.386546495225693
 30
0.0
 10
-9.204261610243055
 20
14.643895128038194
 30
0.0
 10
-7.971089680989583
 20
13.369898817274304
 30
0.0
 10
-7.3189331054687496
 20
11.257021755642359
 30
0.0
  0
SPLINE
  5
C0
100
AcDbEntity
  8
LIVELLO_1
 62
     7
100
AcDbSpline
210
0.0
220
0.0
230
1.0
 70
     8
 71
     3
 72
    17
 73
    13
 74
     0
 42
0.00000001
 43
0.00000001
 40
0.0
 40
0.0
 40
0.0
 40
0.0
 40
1.0
 40
1.0
 40
1.0
 40
2.0
 40
2.0
 40
2.0
 40
3.0
 40
3.0
 40
3.0
 40
4.0
 40
4.0
 40
4.0
 40
4.0
 10
-17.301097276475694
 20
11.214991590711804
 30
0.0
 10
-16.614145236545138
 20
10.895631239149305
 30
0.0
 10
-16.165766059027778
 20
10.575926378038194
 30
0.0
 10
-15.443846299913194
 20
10.575926378038194
 30
0.0
 10
-14.481286621093748
 20
10.575926378038194
 30
0.0
 10
-13.654635959201388
 20
11.694548882378472
 30
0.0
 10
-13.654635959201388
 20
13.190064832899305
 30
0.0
 10
-13.654635959201388
 20
13.673411729600693
 30
0.0
 10
-13.692532009548611
 20
13.936961534288193
 30
0.0
 10
-13.654635959201388
 20
14.418241373697915
 30
0.0
 10
-15.273141818576388
 20
14.418241373697915
 30
0.0
 10
-17.163293457031248
 20
13.725432671440972
 30
0.0
 10
-17.301097276475694
 20
11.214991590711804
 30
0.0
  0
SPLINE
  5
BF
100
AcDbEntity
  8
LIVELLO_1
 62
     7
100
AcDbSpline
210
0.0
220
0.0
230
1.0
 70
     8
 71
     3
 72
    23
 73
    19
 74
     0
 42
0.00000001
 43
0.00000001
 40
0.0
 40
0.0
 40
0.0
 40
0.0
 40
1.0
 40
1.0
 40
1.0
 40
2.0
 40
2.0
 40
2.0
 40
3.0
 40
3.0
 40
3.0
 40
4.0
 40
4.0
 40
4.0
 40
5.0
 40
5.0
 40
5.0
 40
6.0
 40
6.0
 40
6.0
 40
6.0
 10
14.769296603732638
 20
-1.7857652452256942
 30
0.0
 10
14.769296603732638
 20
-1.7857652452256942
 30
0.0
 10
14.90210503472222
 20
-3.6409491644965275
 30
0.0
 10
14.90210503472222
 20
-3.6409491644965275
 30
0.0
 10
14.169160970052083
 20
-4.0044067382812498
 30
0.0
 10
13.681852213541665
 20
-4.2121459960937493
 30
0.0
 10
12.955970594618055
 20
-4.4815524631076382
 30
0.0
 10
12.955970594618055
 20
-4.4815524631076382
 30
0.0
 10
12.036302354600693
 20
-3.9882147894965274
 30
0.0
 10
12.036302354600693
 20
-3.9882147894965274
 30
0.0
 10
12.036302354600693
 20
-3.9882147894965274
 30
0.0
 10
11.646834309895832
 20
-2.4627265082465275
 30
0.0
 10
11.646834309895832
 20
-2.4627265082465275
 30
0.0
 10
11.646834309895832
 20
-2.4627265082465275
 30
0.0
 10
12.887068684895832
 20
-1.5260050455729166
 30
0.0
 10
12.887068684895832
 20
-1.5260050455729166
 30
0.0
 10
12.887068684895832
 20
-1.5260050455729166
 30
0.0
 10
13.667899576822915
 20
-1.3582288953993054
 30
0.0
 10
14.769296603732638
 20
-1.7857652452256942
 30
0.0
  0
SPLINE
  5
BE
100
AcDbEntity
  8
LIVELLO_1
 62
     7
100
AcDbSpline
210
0.0
220
0.0
230
1.0
 70
     8
 71
     3
 72
    17
 73
    13
 74
     0
 42
0.00000001
 43
0.00000001
 40
0.0
 40
0.0
 40
0.0
 40
0.0
 40
1.0
 40
1.0
 40
1.0
 40
2.0
 40
2.0
 40
2.0
 40
3.0
 40
3.0
 40
3.0
 40
4.0
 40
4.0
 40
4.0
 40
4.0
 10
14.595491536458333
 20
14.406528049045138
 30
0.0
 10
15.293467881944443
 20
13.292039659288193
 30
0.0
 10
15.621957736545138
 20
12.391491699218749
 30
0.0
 10
16.169211154513889
 20
11.08338894314236
 30
0.0
 10
15.414218478732638
 20
9.9530531141493039
 30
0.0
 10
14.610477701822916
 20
9.7952677408854161
 30
0.0
 10
13.549043782552083
 20
9.9368611653645829
 30
0.0
 10
12.692248535156249
 20
10.054683430989583
 30
0.0
 10
11.692826334635416
 20
10.673767089843748
 30
0.0
 10
11.765690104166666
 20
12.001851399739582
 30
0.0
 10
11.856468370225693
 20
13.59761962890625
 30
0.0
 10
13.564029947916666
 20
14.546054416232638
 30
0.0
 10
14.595491536458333
 20
14.406528049045138
 30
0.0
  0
SPLINE
  5
BD
100
AcDbEntity
  8
LIVELLO_1
 62
     7
100
AcDbSpline
210
0.0
220
0.0
230
1.0
 70
     8
 71
     3
 72
    17
 73
    13
 74
     0
 42
0.00000001
 43
0.00000001
 40
0.0
 40
0.0
 40
0.0
 40
0.0
 40
1.0
 40
1.0
 40
1.0
 40
2.0
 40
2.0
 40
2.0
 40
3.0
 40
3.0
 40
3.0
 40
4.0
 40
4.0
 40
4.0
 40
4.0
 10
14.428748914930555
 20
8.0858113606770825
 30
0.0
 10
15.126725260416665
 20
6.9733900282118046
 30
0.0
 10
15.687931315104166
 20
7.0133531358506938
 30
0.0
 10
16.236046006944441
 20
5.7073174370659716
 30
0.0
 10
15.480192057291665
 20
4.5769816080729164
 30
0.0
 10
14.956882052951388
 20
5.4558254665798609
 30
0.0
 10
13.894586859809026
 20
5.6015530056423604
 30
0.0
 10
13.038825141059027
 20
5.7173082139756941
 30
0.0
 10
11.150568305121526
 20
6.7556599934895827
 30
0.0
 10
11.226532660590276
 20
8.0858113606770825
 30
0.0
 10
11.317310926649304
 20
9.6812350802951386
 30
0.0
 10
13.401249186197916
 20
8.2256822374131939
 30
0.0
 10
14.428748914930555
 20
8.0858113606770825
 30
0.0
  0
SPLINE
  5
BC
100
AcDbEntity
  8
LIVELLO_1
 62
     7
100
AcDbSpline
210
0.0
220
0.0
230
1.0
 70
     8
 71
     3
 72
    17
 73
    13
 74
     0
 42
0.00000001
 43
0.00000001
 40
0.0
 40
0.0
 40
0.0
 40
0.0
 40
1.0
 40
1.0
 40
1.0
 40
2.0
 40
2.0
 40
2.0
 40
3.0
 40
3.0
 40
3.0
 40
4.0
 40
4.0
 40
4.0
 40
4.0
 10
18.741319444444443
 20
-0.0621839735243055
 30
0.0
 10
19.437228732638886
 20
-1.1766723632812499
 30
0.0
 10
19.767785644531248
 20
-2.0792873806423611
 30
0.0
 10
20.314005533854164
 20
-3.3853230794270832
 30
0.0
 10
19.560046386718749
 20
-4.5156589084201384
 30
0.0
 10
18.756305609809026
 20
-4.6751668294270825
 30
0.0
 10
17.694871690538193
 20
-4.5315063476562498
 30
0.0
 10
16.837215169270831
 20
-4.4157511393229161
 30
0.0
 10
15.837620713975692
 20
-3.7966674804687495
 30
0.0
 10
15.91255154079861
 20
-2.4665161132812496
 30
0.0
 10
16.001435004340276
 20
-0.8710923936631944
 30
0.0
 10
17.71089138454861
 20
0.0756198459201389
 30
0.0
 10
18.741319444444443
 20
-0.0621839735243055
 30
0.0
  0
SPLINE
  5
BB
100
AcDbEntity
  8
LIVELLO_1
 62
     7
100
AcDbSpline
210
0.0
220
0.0
230
1.0
 70
     8
 71
     3
 72
    20
 73
    16
 74
     0
 42
0.00000001
 43
0.00000001
 40
0.0
 40
0.0
 40
0.0
 40
0.0
 40
1.0
 40
1.0
 40
1.0
 40
2.0
 40
2.0
 40
2.0
 40
3.0
 40
3.0
 40
3.0
 40
4.0
 40
4.0
 40
4.0
 40
5.0
 40
5.0
 40
5.0
 40
5.0
 10
16.317005750868056
 20
4.3692423502604161
 30
0.0
 10
16.051388888888887
 20
1.7330552842881943
 30
0.0
 10
15.334464518229165
 20
-0.4314982096354166
 30
0.0
 10
13.627936469184027
 20
-0.19998779296875
 30
0.0
 10
12.448680284288193
 20
-0.0401353624131944
 30
0.0
 10
12.008397081163194
 20
0.5331285264756944
 30
0.0
 10
11.443229166666665
 20
2.0827324761284722
 30
0.0
 10
11.443229166666665
 20
2.0827324761284722
 30
0.0
 10
11.780676269531249
 20
3.8779717339409721
 30
0.0
 10
11.780676269531249
 20
3.8779717339409721
 30
0.0
 10
13.033829752604165
 20
3.9837361653645829
 30
0.0
 10
13.696838378906248
 20
4.1714938693576382
 30
0.0
 10
14.906066894531248
 20
4.5590671115451382
 30
0.0
 10
14.906066894531248
 20
4.5590671115451382
 30
0.0
 10
16.317005750868056
 20
4.3692423502604161
 30
0.0
 10
16.317005750868056
 20
4.3692423502604161
 30
0.0
  0
SPLINE
  5
BA
100
AcDbEntity
  8
LIVELLO_1
 62
     7
100
AcDbSpline
210
0.0
220
0.0
230
1.0
 70
     8
 71
     3
 72
    23
 73
    19
 74
     0
 42
0.00000001
 43
0.00000001
 40
0.0
 40
0.0
 40
0.0
 40
0.0
 40
1.0
 40
1.0
 40
1.0
 40
2.0
 40
2.0
 40
2.0
 40
3.0
 40
3.0
 40
3.0
 40
4.0
 40
4.0
 40
4.0
 40
5.0
 40
5.0
 40
5.0
 40
6.0
 40
6.0
 40
6.0
 40
6.0
 10
8.1111328124999993
 20
12.970612250434026
 30
0.0
 10
8.0691026475694443
 20
12.239562988281248
 30
0.0
 10
8.7751749674479154
 20
12.14378933376736
 30
0.0
 10
8.7331448025173604
 20
11.412740071614582
 30
0.0
 10
8.6203179253472211
 20
9.3997707790798604
 30
0.0
 10
6.6583360460069434
 20
10.404360622829859
 30
0.0
 10
5.3731431749131939
 20
10.761617024739582
 30
0.0
 10
5.2932169596354166
 20
11.418941243489583
 30
0.0
 10
4.9657606336805555
 20
11.923992241753471
 30
0.0
 10
5.0067572699652771
 20
12.655041503906249
 30
0.0
 10
5.0467203776041663
 20
13.385746256510416
 30
0.0
 10
5.4251641167534714
 20
13.795368109809026
 30
0.0
 10
5.5798489040798609
 20
14.418241373697915
 30
0.0
 10
5.5798489040798609
 20
14.418241373697915
 30
0.0
 10
7.7006496853298607
 20
14.130920410156248
 30
0.0
 10
7.7006496853298607
 20
14.130920410156248
 30
0.0
 10
7.7006496853298607
 20
14.130920410156248
 30
0.0
 10
8.1111328124999993
 20
12.970612250434026
 30
0.0
 10
8.1111328124999993
 20
12.970612250434026
 30
0.0
  0
SPLINE
  5
B9
100
AcDbEntity
  8
LIVELLO_1
 62
     7
100
AcDbSpline
210
0.0
220
0.0
230
1.0
 70
     8
 71
     3
 72
    23
 73
    19
 74
     0
 42
0.00000001
 43
0.00000001
 40
0.0
 40
0.0
 40
0.0
 40
0.0
 40
1.0
 40
1.0
 40
1.0
 40
2.0
 40
2.0
 40
2.0
 40
3.0
 40
3.0
 40
3.0
 40
4.0
 40
4.0
 40
4.0
 40
5.0
 40
5.0
 40
5.0
 40
6.0
 40
6.0
 40
6.0
 40
6.0
 10
3.4180514865451386
 20
12.289516872829861
 30
0.0
 10
3.4180514865451386
 20
12.289516872829861
 30
0.0
 10
4.0431640624999998
 20
10.729922146267359
 30
0.0
 10
4.0431640624999998
 20
10.729922146267359
 30
0.0
 10
3.2483805338541663
 20
10.378177897135416
 30
0.0
 10
2.8029296874999998
 20
9.7952677408854161
 30
0.0
 10
1.9771402994791665
 20
9.9068888346354154
 30
0.0
 10
1.1544514973958333
 20
10.018854437934026
 30
0.0
 10
0.7410400390624999
 20
10.072942437065972
 30
0.0
 10
-0.0837158203125
 20
10.186630588107638
 30
0.0
 10
-0.0937065972222222
 20
11.017243109809026
 30
0.0
 10
-0.2454630533854167
 20
11.498522949218749
 30
0.0
 10
-0.1986097547743055
 20
12.319489203559026
 30
0.0
 10
-0.0797539605034722
 20
14.424442545572916
 30
0.0
 10
1.7125569661458331
 20
14.64010552300347
 30
0.0
 10
3.0535603841145829
 20
14.272513834635415
 30
0.0
 10
3.0535603841145829
 20
14.272513834635415
 30
0.0
 10
3.4180514865451386
 20
12.289516872829861
 30
0.0
 10
3.4180514865451386
 20
12.289516872829861
 30
0.0
  0
SPLINE
  5
B8
100
AcDbEntity
  8
LIVELLO_1
 62
     7
100
AcDbSpline
210
0.0
220
0.0
230
1.0
 70
     8
 71
     3
 72
    23
 73
    19
 74
     0
 42
0.00000001
 43
0.00000001
 40
0.0
 40
0.0
 40
0.0
 40
0.0
 40
1.0
 40
1.0
 40
1.0
 40
2.0
 40
2.0
 40
2.0
 40
3.0
 40
3.0
 40
3.0
 40
4.0
 40
4.0
 40
4.0
 40
5.0
 40
5.0
 40
5.0
 40
6.0
 40
6.0
 40
6.0
 40
6.0
 10
-1.9919542100694443
 20
13.194198947482638
 30
0.0
 10
-1.9919542100694443
 20
13.194198947482638
 30
0.0
 10
-1.6004191080729164
 20
11.668366156684026
 30
0.0
 10
-1.6004191080729164
 20
11.668366156684026
 30
0.0
 10
-2.7138739691840277
 20
10.897698296440971
 30
0.0
 10
-3.5315673828124998
 20
10.088789876302082
 30
0.0
 10
-4.7687011718749996
 20
10.256566026475694
 30
0.0
 10
-5.3538506401909718
 20
10.334425184461805
 30
0.0
 10
-5.6234293619791664
 20
10.833619520399305
 30
0.0
 10
-6.1388156467013886
 20
11.17916259765625
 30
0.0
 10
-6.1388156467013886
 20
11.17916259765625
 30
0.0
 10
-6.0349460177951384
 20
13.006441243489583
 30
0.0
 10
-6.0349460177951384
 20
13.006441243489583
 30
0.0
 10
-5.0343180338541664
 20
13.97313503689236
 30
0.0
 10
-4.0677964952256938
 20
14.214636230468749
 30
0.0
 10
-2.8716593424479164
 20
14.418241373697915
 30
0.0
 10
-2.8716593424479164
 20
14.418241373697915
 30
0.0
 10
-1.9919542100694443
 20
13.194198947482638
 30
0.0
 10
-1.9919542100694443
 20
13.194198947482638
 30
0.0
  0
SPLINE
  5
B7
100
AcDbEntity
  8
LIVELLO_1
 62
     7
100
AcDbSpline
210
0.0
220
0.0
230
1.0
 70
     8
 71
     3
 72
    17
 73
    13
 74
     0
 42
0.00000001
 43
0.00000001
 40
0.0
 40
0.0
 40
0.0
 40
0.0
 40
1.0
 40
1.0
 40
1.0
 40
2.0
 40
2.0
 40
2.0
 40
3.0
 40
3.0
 40
3.0
 40
4.0
 40
4.0
 40
4.0
 40
4.0
 10
-9.3289740668402761
 20
8.1016587999131939
 30
0.0
 10
-9.4049384223090264
 20
6.7697848849826379
 30
0.0
 10
-10.117900933159721
 20
5.7431464301215271
 30
0.0
 10
-10.974523925781249
 20
5.8589016384548609
 30
0.0
 10
-11.419974772135415
 20
5.9188462999131941
 30
0.0
 10
-11.99306640625
 20
6.158624945746527
 30
0.0
 10
-11.955170355902776
 20
6.8497111002604161
 30
0.0
 10
-11.843204752604166
 20
8.8185831705729161
 30
0.0
 10
-11.693515353732638
 20
9.9630438910590264
 30
0.0
 10
-10.462238226996528
 20
10.332358127170139
 30
0.0
 10
-10.516153971354166
 20
9.3739325629340264
 30
0.0
 10
-9.2731635199652764
 20
9.0604288736979157
 30
0.0
 10
-9.3289740668402761
 20
8.1016587999131939
 30
0.0
  0
SPLINE
  5
B6
100
AcDbEntity
  8
LIVELLO_1
 62
     7
100
AcDbSpline
210
0.0
220
0.0
230
1.0
 70
     8
 71
     3
 72
    20
 73
    16
 74
     0
 42
0.00000001
 43
0.00000001
 40
0.0
 40
0.0
 40
0.0
 40
0.0
 40
1.0
 40
1.0
 40
1.0
 40
2.0
 40
2.0
 40
2.0
 40
3.0
 40
3.0
 40
3.0
 40
4.0
 40
4.0
 40
4.0
 40
5.0
 40
5.0
 40
5.0
 40
5.0
 10
-26.116063096788192
 20
10.815705023871526
 30
0.0
 10
-24.919925944010416
 20
10.600042046440972
 30
0.0
 10
-23.440085177951385
 20
9.9130900065104157
 30
0.0
 10
-23.544816080729163
 20
8.0517049153645832
 30
0.0
 10
-23.661777072482636
 20
5.9787909613715273
 30
0.0
 10
-25.418086751302081
 20
6.0566501193576388
 30
0.0
 10
-26.754094780815969
 20
6.2385511610243052
 30
0.0
 10
-27.543021647135415
 20
6.3443155924479164
 30
0.0
 10
-27.733707682291666
 20
7.8181274414062489
 30
0.0
 10
-27.665839301215275
 20
9.0421698676215261
 30
0.0
 10
-27.612784830729165
 20
9.9988728841145829
 30
0.0
 10
-26.73118489583333
 20
9.6354153103298597
 30
0.0
 10
-26.116063096788192
 20
9.497611490885415
 30
0.0
 10
-26.116063096788192
 20
9.497611490885415
 30
0.0
 10
-26.116063096788192
 20
10.815705023871526
 30
0.0
 10
-26.116063096788192
 20
10.815705023871526
 30
0.0
  0
POLYLINE
  5
AF
100
AcDbEntity
  8
LIVELLO_1
 62
     7
100
AcDb2dPolyline
 66
     1
 10
0.0
 20
0.0
 30
0.0
 70
     1
  0
VERTEX
  5
B0
100
AcDbEntity
  8
LIVELLO_1
 62
     7
100
AcDbVertex
100
AcDb2dVertex
 10
-21.880318
 20
10.026778
 30
0.0
  0
VERTEX
  5
B1
100
AcDbEntity
  8
LIVELLO_1
 62
     7
100
AcDbVertex
100
AcDb2dVertex
 10
-20.97977
 20
9.16826
 30
0.0
  0
VERTEX
  5
B2
100
AcDbEntity
  8
LIVELLO_1
 62
     7
100
AcDbVertex
100
AcDb2dVertex
 10
-20.828875
 20
7.6724
 30
0.0
  0
VERTEX
  5
B3
100
AcDbEntity
  8
LIVELLO_1
 62
     7
100
AcDbVertex
100
AcDb2dVertex
 10
-22.047061
 20
7.101203
 30
0.0
  0
VERTEX
  5
B4
100
AcDbEntity
  8
LIVELLO_1
 62
     7
100
AcDbVertex
100
AcDb2dVertex
 10
-22.414653
 20
8.99256
 30
0.0
  0
SEQEND
  5
B5
100
AcDbEntity
  8
LIVELLO_1
 62
     7
  0
SPLINE
  5
AE
100
AcDbEntity
  8
LIVELLO_1
 62
     7
100
AcDbSpline
210
0.0
220
0.0
230
1.0
 70
     8
 71
     3
 72
    20
 73
    16
 74
     0
 42
0.00000001
 43
0.00000001
 40
0.0
 40
0.0
 40
0.0
 40
0.0
 40
1.0
 40
1.0
 40
1.0
 40
2.0
 40
2.0
 40
2.0
 40
3.0
 40
3.0
 40
3.0
 40
4.0
 40
4.0
 40
4.0
 40
5.0
 40
5.0
 40
5.0
 40
5.0
 10
-25.98825005425347
 20
0.4370103624131944
 30
0.0
 10
-24.84999050564236
 20
-0.7890991210937499
 30
0.0
 10
-23.991300455729164
 20
-1.4960327148437498
 30
0.0
 10
-23.619746907552081
 20
-3.4769626193576384
 30
0.0
 10
-25.369166395399304
 20
-3.8803833007812498
 30
0.0
 10
-26.249905056423607
 20
-4.8329522026909721
 30
0.0
 10
-27.964356825086803
 20
-4.6014417860243055
 30
0.0
 10
-28.684209526909719
 20
-4.50360107421875
 30
0.0
 10
-29.209414333767359
 20
-3.413228352864583
 30
0.0
 10
-29.145507812499996
 20
-2.2966729058159721
 30
0.0
 10
-29.03578152126736
 20
-0.3815443250868055
 30
0.0
 10
-28.222911241319441
 20
-0.4456231011284722
 30
0.0
 10
-26.986810980902774
 20
-0.6133992513020833
 30
0.0
 10
-26.986810980902774
 20
-0.6133992513020833
 30
0.0
 10
-25.98825005425347
 20
0.4370103624131944
 30
0.0
 10
-25.98825005425347
 20
0.4370103624131944
 30
0.0
  0
SPLINE
  5
AD
100
AcDbEntity
  8
LIVELLO_1
 62
     7
100
AcDbSpline
210
0.0
220
0.0
230
1.0
 70
     8
 71
     3
 72
    20
 73
    16
 74
     0
 42
0.00000001
 43
0.00000001
 40
0.0
 40
0.0
 40
0.0
 40
0.0
 40
1.0
 40
1.0
 40
1.0
 40
2.0
 40
2.0
 40
2.0
 40
3.0
 40
3.0
 40
3.0
 40
4.0
 40
4.0
 40
4.0
 40
5.0
 40
5.0
 40
5.0
 40
5.0
 10
-22.432567003038191
 20
5.2859822591145829
 30
0.0
 10
-21.531846788194443
 20
4.7326999240451384
 30
0.0
 10
-20.617173936631943
 20
3.8080362955729163
 30
0.0
 10
-20.704162597656246
 20
2.2642890082465277
 30
0.0
 10
-20.738096788194444
 20
1.6252237955729165
 30
0.0
 10
-21.181480577256941
 20
1.1480780707465277
 30
0.0
 10
-21.590757921006944
 20
1.2038886176215278
 30
0.0
 10
-22.891798231336804
 20
1.3816555447048611
 30
0.0
 10
-24.203862847222219
 20
2.6298136393229163
 30
0.0
 10
-24.088107638888886
 20
4.6527737087673611
 30
0.0
 10
-24.011282009548609
 20
6.090756564670138
 30
0.0
 10
-22.797058105468746
 20
6.1386433919270829
 30
0.0
 10
-21.872394476996526
 20
6.0149644639756943
 30
0.0
 10
-21.872394476996526
 20
6.0149644639756943
 30
0.0
 10
-22.432567003038191
 20
5.2859822591145829
 30
0.0
 10
-22.432567003038191
 20
5.2859822591145829
 30
0.0
  0
SPLINE
  5
AC
100
AcDbEntity
  8
LIVELLO_1
 62
     7
100
AcDbSpline
210
0.0
220
0.0
230
1.0
 70
     8
 71
     3
 72
    17
 73
    13
 74
     0
 42
0.00000001
 43
0.00000001
 40
0.0
 40
0.0
 40
0.0
 40
0.0
 40
1.0
 40
1.0
 40
1.0
 40
2.0
 40
2.0
 40
2.0
 40
3.0
 40
3.0
 40
3.0
 40
4.0
 40
4.0
 40
4.0
 40
4.0
 10
-18.652091471354165
 20
9.6295586480034707
 30
0.0
 10
-17.458021375868054
 20
9.4118286132812496
 30
0.0
 10
-15.975080023871527
 20
8.72694363064236
 30
0.0
 10
-16.081016710069441
 20
6.8655585394965275
 30
0.0
 10
-16.196771918402778
 20
4.7926445855034716
 30
0.0
 10
-17.955148654513888
 20
4.870503743489583
 30
0.0
 10
-19.290295410156247
 20
5.0503377278645827
 30
0.0
 10
-20.078016493055554
 20
5.1561021592881939
 30
0.0
 10
-20.272836642795138
 20
6.6319810655381941
 30
0.0
 10
-20.201867675781248
 20
7.8539564344618045
 30
0.0
 10
-20.148985460069444
 20
8.8127265082465271
 30
0.0
 10
-19.268246799045137
 20
9.7652954101562486
 30
0.0
 10
-18.652091471354165
 20
9.6295586480034707
 30
0.0
  0
SPLINE
  5
AB
100
AcDbEntity
  8
LIVELLO_1
 62
     7
100
AcDbSpline
210
0.0
220
0.0
230
1.0
 70
     8
 71
     3
 72
    17
 73
    13
 74
     0
 42
0.00000001
 43
0.00000001
 40
0.0
 40
0.0
 40
0.0
 40
0.0
 40
1.0
 40
1.0
 40
1.0
 40
2.0
 40
2.0
 40
2.0
 40
3.0
 40
3.0
 40
3.0
 40
4.0
 40
4.0
 40
4.0
 40
4.0
 10
-13.112377929687499
 20
7.4526028103298607
 30
0.0
 10
-13.187308756510415
 20
6.1207288953993046
 30
0.0
 10
-13.901132541232638
 20
5.0920233832465271
 30
0.0
 10
-14.757927788628471
 20
5.2098456488715277
 30
0.0
 10
-15.205273437499999
 20
5.2697903103298609
 30
0.0
 10
-15.778365071614582
 20
5.5095689561631938
 30
0.0
 10
-15.737540690104165
 20
6.1985880533854161
 30
0.0
 10
-15.626608615451387
 20
8.1695271809895829
 30
0.0
 10
-14.757927788628471
 20
9.497611490885415
 30
0.0
 10
-13.529751247829861
 20
9.8672702365451386
 30
0.0
 10
-13.581772189670138
 20
8.908500162760415
 30
0.0
 10
-13.05846218532986
 20
8.4093058268229157
 30
0.0
 10
-13.112377929687499
 20
7.4526028103298607
 30
0.0
  0
SPLINE
  5
AA
100
AcDbEntity
  8
LIVELLO_1
 62
     7
100
AcDbSpline
210
0.0
220
0.0
230
1.0
 70
     8
 71
     3
 72
    23
 73
    19
 74
     0
 42
0.00000001
 43
0.00000001
 40
0.0
 40
0.0
 40
0.0
 40
0.0
 40
1.0
 40
1.0
 40
1.0
 40
2.0
 40
2.0
 40
2.0
 40
3.0
 40
3.0
 40
3.0
 40
4.0
 40
4.0
 40
4.0
 40
5.0
 40
5.0
 40
5.0
 40
6.0
 40
6.0
 40
6.0
 40
6.0
 10
-17.775486924913192
 20
2.777608235677083
 30
0.0
 10
-17.636649576822915
 20
2.1726494683159721
 30
0.0
 10
-17.448891872829858
 20
1.8250393337673609
 30
0.0
 10
-17.48489312065972
 20
1.18597412109375
 30
0.0
 10
-17.591691080729166
 20
-0.7291544596354166
 30
0.0
 10
-18.709107801649303
 20
-1.5418524848090276
 30
0.0
 10
-19.909379069010416
 20
-2.0214097764756942
 30
0.0
 10
-19.909379069010416
 20
-2.0214097764756942
 30
0.0
 10
-20.448536512586802
 20
-1.7358113606770831
 30
0.0
 10
-20.448536512586802
 20
-1.7358113606770831
 30
0.0
 10
-20.395654296874998
 20
-0.8311292860243055
 30
0.0
 10
-20.368610297309026
 20
-0.3515719943576389
 30
0.0
 10
-20.316761610243052
 20
0.5510430230034722
 30
0.0
 10
-20.243725585937497
 20
1.880849880642361
 30
0.0
 10
-19.322162543402776
 20
2.2921942816840275
 30
0.0
 10
-18.458477105034721
 20
2.2822035047743054
 30
0.0
 10
-18.458477105034721
 20
2.2822035047743054
 30
0.0
 10
-17.775486924913192
 20
2.777608235677083
 30
0.0
 10
-17.775486924913192
 20
2.777608235677083
 30
0.0
  0
SPLINE
  5
A9
100
AcDbEntity
  8
LIVELLO_1
 62
     7
100
AcDbSpline
210
0.0
220
0.0
230
1.0
 70
     8
 71
     3
 72
    20
 73
    16
 74
     0
 42
0.00000001
 43
0.00000001
 40
0.0
 40
0.0
 40
0.0
 40
0.0
 40
1.0
 40
1.0
 40
1.0
 40
2.0
 40
2.0
 40
2.0
 40
3.0
 40
3.0
 40
3.0
 40
4.0
 40
4.0
 40
4.0
 40
5.0
 40
5.0
 40
5.0
 40
5.0
 10
-23.72361653645833
 20
-5.4182739257812491
 30
0.0
 10
-22.868888346354165
 20
-6.1789510091145825
 30
0.0
 10
-21.751643880208331
 20
-6.5424085828993048
 30
0.0
 10
-21.839493815104166
 20
-8.0861558702256939
 30
0.0
 10
-21.932339138454861
 20
-9.7356675889756943
 30
0.0
 10
-23.080589463975691
 20
-10.542508951822915
 30
0.0
 10
-24.144090440538193
 20
-10.400915527343749
 30
0.0
 10
-25.000713433159721
 20
-10.284815809461804
 30
0.0
 10
-25.397071668836805
 20
-8.7293551974826382
 30
0.0
 10
-25.322313096788193
 20
-7.3971367730034716
 30
0.0
 10
-25.26736382378472
 20
-6.4387112087673604
 30
0.0
 10
-24.760073513454859
 20
-5.9753458658854157
 30
0.0
 10
-24.247787814670136
 20
-5.5081909179687498
 30
0.0
 10
-24.247787814670136
 20
-5.5081909179687498
 30
0.0
 10
-23.72361653645833
 20
-5.4182739257812491
 30
0.0
 10
-23.72361653645833
 20
-5.4182739257812491
 30
0.0
  0
SPLINE
  5
A8
100
AcDbEntity
  8
LIVELLO_1
 62
     7
100
AcDbSpline
210
0.0
220
0.0
230
1.0
 70
     8
 71
     3
 72
    17
 73
    13
 74
     0
 42
0.00000001
 43
0.00000001
 40
0.0
 40
0.0
 40
0.0
 40
0.0
 40
1.0
 40
1.0
 40
1.0
 40
2.0
 40
2.0
 40
2.0
 40
3.0
 40
3.0
 40
3.0
 40
4.0
 40
4.0
 40
4.0
 40
4.0
 10
-18.070042588975692
 20
-9.8317857530381936
 30
0.0
 10
-17.333136664496525
 20
-10.842232259114583
 30
0.0
 10
-16.867876519097219
 20
-11.764828830295137
 30
0.0
 10
-16.782954915364581
 20
-13.32855767144097
 30
0.0
 10
-17.663693576388887
 20
-13.637927246093749
 30
0.0
 10
-18.224727376302081
 20
-13.777798122829861
 30
0.0
 10
-19.148357476128471
 20
-13.649985080295137
 30
0.0
 10
-20.213925509982637
 20
-13.50804714626736
 30
0.0
 10
-21.257272677951388
 20
-12.45384792751736
 30
0.0
 10
-21.234362792968749
 20
-10.796067979600693
 30
0.0
 10
-19.759517415364581
 20
-10.404705132378471
 30
0.0
 10
-19.034669325086803
 20
-9.7539265950520821
 30
0.0
 10
-17.535880533854165
 20
-9.5282728407118054
 30
0.0
  0
SPLINE
  5
A7
100
AcDbEntity
  8
LIVELLO_1
 62
     7
100
AcDbSpline
210
0.0
220
0.0
230
1.0
 70
     8
 71
     3
 72
    17
 73
    13
 74
     0
 42
0.00000001
 43
0.00000001
 40
0.0
 40
0.0
 40
0.0
 40
0.0
 40
1.0
 40
1.0
 40
1.0
 40
2.0
 40
2.0
 40
2.0
 40
3.0
 40
3.0
 40
3.0
 40
4.0
 40
4.0
 40
4.0
 40
4.0
 10
-17.561718749999997
 20
-3.2533759223090275
 30
0.0
 10
-16.397448730468749
 20
-3.4111612955729163
 30
0.0
 10
-15.335153537326388
 20
-4.7871324327256941
 30
0.0
 10
-15.437989637586805
 20
-6.5964965820312491
 30
0.0
 10
-15.535830349392359
 20
-8.3538397894965275
 30
0.0
 10
-17.001546223958332
 20
-8.6353040907118039
 30
0.0
 10
-18.133949110243055
 20
-8.4816528320312496
 30
0.0
 10
-19.708530002170136
 20
-8.2701239691840271
 30
0.0
 10
-21.735624186197914
 20
-7.4570814344618048
 30
0.0
 10
-21.598853895399305
 20
-5.0086520724826382
 30
0.0
 10
-21.465011935763886
 20
-2.6683987087673611
 30
0.0
 10
-19.078594292534721
 20
-3.2096232096354163
 30
0.0
 10
-17.561718749999997
 20
-3.2533759223090275
 30
0.0
  0
SPLINE
  5
A6
100
AcDbEntity
  8
LIVELLO_1
 62
     7
100
AcDbSpline
210
0.0
220
0.0
230
1.0
 70
     8
 71
     3
 72
    20
 73
    16
 74
     0
 42
0.00000001
 43
0.00000001
 40
0.0
 40
0.0
 40
0.0
 40
0.0
 40
1.0
 40
1.0
 40
1.0
 40
2.0
 40
2.0
 40
2.0
 40
3.0
 40
3.0
 40
3.0
 40
4.0
 40
4.0
 40
4.0
 40
5.0
 40
5.0
 40
5.0
 40
5.0
 10
-15.06643608940972
 20
3.6443942599826387
 30
0.0
 10
-15.855362955729165
 20
3.7522257486979163
 30
0.0
 10
-16.503385416666664
 20
2.6597859700520829
 30
0.0
 10
-16.573320855034719
 20
1.4357435438368054
 30
0.0
 10
-16.630164930555555
 20
0.4270195855034722
 30
0.0
 10
-16.661170789930555
 20
-0.1600246853298611
 30
0.0
 10
-16.719048394097221
 20
-1.17047119140625
 30
0.0
 10
-16.135965983072914
 20
-1.248330349392361
 30
0.0
 10
-15.82728542751736
 20
-1.2903605143229167
 30
0.0
 10
-15.247303602430554
 20
-1.3702867296006944
 30
0.0
 10
-14.150901963975693
 20
-1.5201483832465277
 30
0.0
 10
-12.67398952907986
 20
-1.7196194118923609
 30
0.0
 10
-12.578215874565972
 20
-0.0163642035590278
 30
0.0
 10
-12.463321940104166
 20
2.0586168077256941
 30
0.0
 10
-13.730428059895832
 20
3.4624932183159718
 30
0.0
 10
-15.06643608940972
 20
3.6443942599826387
 30
0.0
  0
SPLINE
  5
A5
100
AcDbEntity
  8
LIVELLO_1
 62
     7
100
AcDbSpline
210
0.0
220
0.0
230
1.0
 70
     8
 71
     3
 72
    17
 73
    13
 74
     0
 42
0.00000001
 43
0.00000001
 40
0.0
 40
0.0
 40
0.0
 40
0.0
 40
1.0
 40
1.0
 40
1.0
 40
2.0
 40
2.0
 40
2.0
 40
3.0
 40
3.0
 40
3.0
 40
4.0
 40
4.0
 40
4.0
 40
4.0
 10
-9.5237942165798604
 20
5.2480862087673605
 30
0.0
 10
-8.8247843424479164
 20
4.1356648763020827
 30
0.0
 10
-8.4971557617187496
 20
3.2309828016493052
 30
0.0
 10
-7.9490410698784713
 20
1.9249471028645833
 30
0.0
 10
-8.7038614908854157
 20
0.7925442165798611
 30
0.0
 10
-9.5046739366319439
 20
0.6347588433159722
 30
0.0
 10
-10.569208441840276
 20
0.7787638346354165
 30
0.0
 10
-11.425831434461804
 20
0.8965861002604166
 30
0.0
 10
-12.425425889756943
 20
1.5136027018229166
 30
0.0
 10
-12.351528591579861
 20
2.8434095594618052
 30
0.0
 10
-12.26161159939236
 20
4.4391777886284718
 30
0.0
 10
-10.550260416666665
 20
5.3876125759548605
 30
0.0
 10
-9.5237942165798604
 20
5.2480862087673605
 30
0.0
  0
SPLINE
  5
A4
100
AcDbEntity
  8
LIVELLO_1
 62
     7
100
AcDbSpline
210
0.0
220
0.0
230
1.0
 70
     8
 71
     3
 72
    14
 73
    10
 74
     0
 42
0.00000001
 43
0.00000001
 40
0.0
 40
0.0
 40
0.0
 40
0.0
 40
1.0
 40
1.0
 40
1.0
 40
2.0
 40
2.0
 40
2.0
 40
3.0
 40
3.0
 40
3.0
 40
3.0
 10
-4.116716851128472
 20
6.654029676649305
 30
0.0
 10
-4.2176581488715277
 20
4.8984090169270829
 30
0.0
 10
-5.4048380533854159
 20
4.0398912217881939
 30
0.0
 10
-6.5362074110243054
 20
4.19354248046875
 30
0.0
 10
-7.6665432400173605
 20
4.3471937391493052
 30
0.0
 10
-8.3614189995659718
 20
6.1028143988715273
 30
0.0
 10
-8.2606499565972218
 20
7.8601576063368048
 30
0.0
 10
-8.1187120225694436
 20
10.412284342447915
 30
0.0
 10
-3.9759847005208329
 20
9.2061564127604161
 30
0.0
 10
-4.116716851128472
 20
6.654029676649305
 30
0.0
  0
SPLINE
  5
A3
100
AcDbEntity
  8
LIVELLO_1
 62
     7
100
AcDbSpline
210
0.0
220
0.0
230
1.0
 70
     8
 71
     3
 72
    20
 73
    16
 74
     0
 42
0.00000001
 43
0.00000001
 40
0.0
 40
0.0
 40
0.0
 40
0.0
 40
1.0
 40
1.0
 40
1.0
 40
2.0
 40
2.0
 40
2.0
 40
3.0
 40
3.0
 40
3.0
 40
4.0
 40
4.0
 40
4.0
 40
5.0
 40
5.0
 40
5.0
 40
5.0
 10
0.1719102647569444
 20
6.5520548502604159
 30
0.0
 10
0.1059366861979167
 20
5.3617743598090275
 30
0.0
 10
-0.5100463867187499
 20
4.9862589518229159
 30
0.0
 10
-0.9184624565972221
 20
4.0278333875868055
 30
0.0
 10
-0.9184624565972221
 20
4.0278333875868055
 30
0.0
 10
-4.0788208007812496
 20
2.0806654188368054
 30
0.0
 10
-4.0788208007812496
 20
2.0806654188368054
 30
0.0
 10
-4.0359293619791661
 20
2.8117146809895832
 30
0.0
 10
-3.2669840494791664
 20
5.5453979492187493
 30
0.0
 10
-3.2259874131944439
 20
6.2764472113715275
 30
0.0
 10
-3.142271592881944
 20
7.7382012261284716
 30
0.0
 10
-2.3154486762152775
 20
8.7307332356770821
 30
0.0
 10
-1.3728705512152777
 20
8.60292019314236
 30
0.0
 10
-0.6070258246527778
 20
8.4992228190104164
 30
0.0
 10
0.2387451171875
 20
7.7382012261284716
 30
0.0
 10
0.1719102647569444
 20
6.5520548502604159
 30
0.0
  0
SPLINE
  5
A2
100
AcDbEntity
  8
LIVELLO_1
 62
     7
100
AcDbSpline
210
0.0
220
0.0
230
1.0
 70
     8
 71
     3
 72
    20
 73
    16
 74
     0
 42
0.00000001
 43
0.00000001
 40
0.0
 40
0.0
 40
0.0
 40
0.0
 40
1.0
 40
1.0
 40
1.0
 40
2.0
 40
2.0
 40
2.0
 40
3.0
 40
3.0
 40
3.0
 40
4.0
 40
4.0
 40
4.0
 40
5.0
 40
5.0
 40
5.0
 40
5.0
 10
-13.04950493706597
 20
-2.7600382486979163
 30
0.0
 10
-11.390002441406249
 20
-3.8145819769965272
 30
0.0
 10
-9.5656521267361097
 20
-5.1685045030381938
 30
0.0
 10
-9.7263658311631929
 20
-8.0024400499131936
 30
0.0
 10
-9.7723578559027775
 20
-8.8251288519965279
 30
0.0
 10
-10.367498101128472
 20
-8.8351196289062486
 30
0.0
 10
-10.750937228732639
 20
-9.3363810221354164
 30
0.0
 10
-10.750937228732639
 20
-9.3363810221354164
 30
0.0
 10
-14.106976996527777
 20
-8.8809393988715275
 30
0.0
 10
-14.106976996527777
 20
-8.8809393988715275
 30
0.0
 10
-14.10490993923611
 20
-7.7767862955729159
 30
0.0
 10
-14.245642089843749
 20
-7.1115383572048607
 30
0.0
 10
-14.181735568576388
 20
-6.0153089735243048
 30
0.0
 10
-14.101981608072915
 20
-4.5514879014756939
 30
0.0
 10
-13.531818305121526
 20
-3.894508192274305
 30
0.0
 10
-13.04950493706597
 20
-2.7600382486979163
 30
0.0
  0
SPLINE
  5
A1
100
AcDbEntity
  8
LIVELLO_1
 62
     7
100
AcDbSpline
210
0.0
220
0.0
230
1.0
 70
     8
 71
     3
 72
    23
 73
    19
 74
     0
 42
0.00000001
 43
0.00000001
 40
0.0
 40
0.0
 40
0.0
 40
0.0
 40
1.0
 40
1.0
 40
1.0
 40
2.0
 40
2.0
 40
2.0
 40
3.0
 40
3.0
 40
3.0
 40
4.0
 40
4.0
 40
4.0
 40
5.0
 40
5.0
 40
5.0
 40
6.0
 40
6.0
 40
6.0
 40
6.0
 10
9.5379191080729164
 20
-7.9166571723090273
 30
0.0
 10
10.487559678819444
 20
-8.9670667860243043
 30
0.0
 10
10.832069227430555
 20
-10.20902370876736
 30
0.0
 10
11.211546495225694
 20
-11.92054714626736
 30
0.0
 10
11.211546495225694
 20
-11.92054714626736
 30
0.0
 10
10.893047417534721
 20
-13.350261773003471
 30
0.0
 10
10.893047417534721
 20
-13.350261773003471
 30
0.0
 10
10.480669487847221
 20
-13.294451226128471
 30
0.0
 10
10.185941569010415
 20
-13.254488118489583
 30
0.0
 10
9.7727023654513872
 20
-13.198677571614581
 30
0.0
 10
8.4795857747395829
 20
-13.020910644531249
 30
0.0
 10
7.4570814344618048
 20
-11.131620279947915
 30
0.0
 10
7.57197536892361
 20
-9.1207180447048604
 30
0.0
 10
7.6227905273437493
 20
-8.2060451931423604
 30
0.0
 10
8.2208591037326375
 20
-8.1040703667534721
 30
0.0
 10
8.6163560655381932
 20
-7.4233194986979161
 30
0.0
 10
8.6163560655381932
 20
-7.4233194986979161
 30
0.0
 10
9.5379191080729164
 20
-7.9166571723090273
 30
0.0
 10
9.5379191080729164
 20
-7.9166571723090273
 30
0.0
  0
SPLINE
  5
A0
100
AcDbEntity
  8
LIVELLO_1
 62
     7
100
AcDbSpline
210
0.0
220
0.0
230
1.0
 70
     8
 71
     3
 72
    17
 73
    13
 74
     0
 42
0.00000001
 43
0.00000001
 40
0.0
 40
0.0
 40
0.0
 40
0.0
 40
1.0
 40
1.0
 40
1.0
 40
2.0
 40
2.0
 40
2.0
 40
3.0
 40
3.0
 40
3.0
 40
4.0
 40
4.0
 40
4.0
 40
4.0
 10
14.428748914930555
 20
-10.732333713107638
 30
0.0
 10
13.251559787326388
 20
-10.572481282552083
 30
0.0
 10
12.193054199218748
 20
-10.832241482204861
 30
0.0
 10
11.625819227430554
 20
-9.2822930230034721
 30
0.0
 10
11.625819227430554
 20
-9.2822930230034721
 30
0.0
 10
12.05232204861111
 20
-6.3308797200520823
 30
0.0
 10
12.05232204861111
 20
-6.3308797200520823
 30
0.0
 10
13.305475531684026
 20
-6.225115288628472
 30
0.0
 10
13.886490885416665
 20
-6.7721964518229161
 30
0.0
 10
15.094685872395832
 20
-6.3829006618923607
 30
0.0
 10
15.094685872395832
 20
-6.3829006618923607
 30
0.0
 10
16.135104709201386
 20
-10.963844129774305
 30
0.0
 10
14.428748914930555
 20
-10.732333713107638
 30
0.0
  0
SPLINE
  5
9F
100
AcDbEntity
  8
LIVELLO_1
 62
     7
100
AcDbSpline
210
0.0
220
0.0
230
1.0
 70
     8
 71
     3
 72
    14
 73
    10
 74
     0
 42
0.00000001
 43
0.00000001
 40
0.0
 40
0.0
 40
0.0
 40
0.0
 40
1.0
 40
1.0
 40
1.0
 40
2.0
 40
2.0
 40
2.0
 40
3.0
 40
3.0
 40
3.0
 40
3.0
 10
10.783148871527777
 20
0.4411444769965278
 30
0.0
 10
10.363708496093748
 20
0.3133314344618055
 30
0.0
 10
10.038319227430554
 20
-0.1958536783854167
 30
0.0
 10
9.5649631076388886
 20
-0.1300523546006944
 30
0.0
 10
8.3288628472222221
 20
0.0377237955729167
 30
0.0
 10
7.831563313802083
 20
1.7630276150173609
 30
0.0
 10
7.3992038302951384
 20
3.5723917643229162
 30
0.0
 10
8.8969590928819429
 20
3.8280178493923609
 30
0.0
 10
10.133059353298611
 20
2.5578111436631943
 30
0.0
 10
10.783148871527777
 20
0.4411444769965278
 30
0.0
  0
SPLINE
  5
9E
100
AcDbEntity
  8
LIVELLO_1
 62
     7
100
AcDbSpline
210
0.0
220
0.0
230
1.0
 70
     8
 71
     3
 72
    23
 73
    19
 74
     0
 42
0.00000001
 43
0.00000001
 40
0.0
 40
0.0
 40
0.0
 40
0.0
 40
1.0
 40
1.0
 40
1.0
 40
2.0
 40
2.0
 40
2.0
 40
3.0
 40
3.0
 40
3.0
 40
4.0
 40
4.0
 40
4.0
 40
5.0
 40
5.0
 40
5.0
 40
6.0
 40
6.0
 40
6.0
 40
6.0
 10
10.129097493489583
 20
7.7681735568576382
 30
0.0
 10
10.088100857204861
 20
7.0354017469618046
 30
0.0
 10
10.796067979600693
 20
6.9392835828993054
 30
0.0
 10
10.753176540798609
 20
6.2085788302951386
 30
0.0
 10
10.639316134982638
 20
4.1993991427951389
 30
0.0
 10
8.6792290581597218
 20
5.201921929253472
 30
0.0
 10
7.3931749131944438
 20
5.5595228407118054
 30
0.0
 10
7.310320366753472
 20
6.2165025499131943
 30
0.0
 10
6.984758843315972
 20
6.7218980577256939
 30
0.0
 10
7.0257554796006936
 20
7.4526028103298607
 30
0.0
 10
7.0676133897569438
 20
8.1836520724826389
 30
0.0
 10
7.4460571289062489
 20
8.5929294162326375
 30
0.0
 10
7.6009141710069441
 20
9.2161471896701386
 30
0.0
 10
7.6009141710069441
 20
9.2161471896701386
 30
0.0
 10
9.7187866210937486
 20
8.92848171657986
 30
0.0
 10
9.7187866210937486
 20
8.92848171657986
 30
0.0
 10
9.7187866210937486
 20
8.92848171657986
 30
0.0
 10
10.129097493489583
 20
7.7681735568576382
 30
0.0
 10
10.129097493489583
 20
7.7681735568576382
 30
0.0
  0
SPLINE
  5
9D
100
AcDbEntity
  8
LIVELLO_1
 62
     7
100
AcDbSpline
210
0.0
220
0.0
230
1.0
 70
     8
 71
     3
 72
    17
 73
    13
 74
     0
 42
0.00000001
 43
0.00000001
 40
0.0
 40
0.0
 40
0.0
 40
0.0
 40
1.0
 40
1.0
 40
1.0
 40
2.0
 40
2.0
 40
2.0
 40
3.0
 40
3.0
 40
3.0
 40
4.0
 40
4.0
 40
4.0
 40
4.0
 10
10.288949924045138
 20
14.418241373697915
 30
0.0
 10
10.288949924045138
 20
14.418241373697915
 30
0.0
 10
11.052727593315971
 20
14.316611056857637
 30
0.0
 10
11.052727593315971
 20
14.316611056857637
 30
0.0
 10
11.052727593315971
 20
14.316611056857637
 30
0.0
 10
10.652407497829859
 20
11.422730848524305
 30
0.0
 10
10.652407497829859
 20
11.422730848524305
 30
0.0
 10
10.155107964409721
 20
12.04181450737847
 30
0.0
 10
9.4631605360243043
 20
12.411473253038194
 30
0.0
 10
9.5179375542534714
 20
13.419852701822915
 30
0.0
 10
9.5529052734374993
 20
13.96693386501736
 30
0.0
 10
10.144083658854166
 20
13.978991699218749
 30
0.0
 10
10.288949924045138
 20
14.418241373697915
 30
0.0
  0
SPLINE
  5
9C
100
AcDbEntity
  8
LIVELLO_1
 62
     7
100
AcDbSpline
210
0.0
220
0.0
230
1.0
 70
     8
 71
     3
 72
    17
 73
    13
 74
     0
 42
0.00000001
 43
0.00000001
 40
0.0
 40
0.0
 40
0.0
 40
0.0
 40
1.0
 40
1.0
 40
1.0
 40
2.0
 40
2.0
 40
2.0
 40
3.0
 40
3.0
 40
3.0
 40
4.0
 40
4.0
 40
4.0
 40
4.0
 10
9.01374782986111
 20
-1.6875800238715277
 30
0.0
 10
8.2329169379340268
 20
-1.8594902886284721
 30
0.0
 10
7.3142822265624989
 20
-2.3786661783854166
 30
0.0
 10
7.242451985677083
 20
-3.6567966037326385
 30
0.0
 10
7.180440266927083
 20
-4.7550930447048607
 30
0.0
 10
7.3342637803819439
 20
-6.2468193901909714
 30
0.0
 10
8.0422309027777779
 20
-6.344660101996527
 30
0.0
 10
9.3951199001736097
 20
-6.5286282009548602
 30
0.0
 10
10.951958550347221
 20
-6.2788587782118048
 30
0.0
 10
11.245480685763887
 20
-4.2021552191840277
 30
0.0
 10
11.45821533203125
 20
-2.5743476019965277
 30
0.0
 10
9.9273871527777775
 20
-2.364885796440972
 30
0.0
 10
9.01374782986111
 20
-1.6875800238715277
 30
0.0
  0
SPLINE
  5
9B
100
AcDbEntity
  8
LIVELLO_1
 62
     7
100
AcDbSpline
210
0.0
220
0.0
230
1.0
 70
     8
 71
     3
 72
    23
 73
    19
 74
     0
 42
0.00000001
 43
0.00000001
 40
0.0
 40
0.0
 40
0.0
 40
0.0
 40
1.0
 40
1.0
 40
1.0
 40
2.0
 40
2.0
 40
2.0
 40
3.0
 40
3.0
 40
3.0
 40
4.0
 40
4.0
 40
4.0
 40
5.0
 40
5.0
 40
5.0
 40
6.0
 40
6.0
 40
6.0
 40
6.0
 10
5.8384033203124996
 20
7.3888685438368045
 30
0.0
 10
5.8384033203124996
 20
7.3888685438368045
 30
0.0
 10
6.2259765624999996
 20
5.8630357530381936
 30
0.0
 10
6.2259765624999996
 20
5.8630357530381936
 30
0.0
 10
5.1156222873263886
 20
5.0920233832465271
 30
0.0
 10
4.2977566189236107
 20
4.281392415364583
 30
0.0
 10
3.0616563585069443
 20
4.4491685655381943
 30
0.0
 10
2.4725450303819443
 20
4.5290947808159716
 30
0.0
 10
1.620745171440972
 20
3.3908352322048607
 30
0.0
 10
1.1034640842013888
 20
3.7360337999131943
 30
0.0
 10
1.1034640842013888
 20
3.7360337999131943
 30
0.0
 10
1.7914496527777777
 20
7.2011108398437491
 30
0.0
 10
1.7914496527777777
 20
7.2011108398437491
 30
0.0
 10
2.7970730251736109
 20
8.1695271809895829
 30
0.0
 10
3.7596327039930553
 20
8.4072387695312489
 30
0.0
 10
4.9578369140624998
 20
8.6129109700520825
 30
0.0
 10
4.9578369140624998
 20
8.6129109700520825
 30
0.0
 10
5.8384033203124996
 20
7.3888685438368045
 30
0.0
 10
5.8384033203124996
 20
7.3888685438368045
 30
0.0
  0
SPLINE
  5
9A
100
AcDbEntity
  8
LIVELLO_1
 62
     7
100
AcDbSpline
210
0.0
220
0.0
230
1.0
 70
     8
 71
     3
 72
    23
 73
    19
 74
     0
 42
0.00000001
 43
0.00000001
 40
0.0
 40
0.0
 40
0.0
 40
0.0
 40
1.0
 40
1.0
 40
1.0
 40
2.0
 40
2.0
 40
2.0
 40
3.0
 40
3.0
 40
3.0
 40
4.0
 40
4.0
 40
4.0
 40
5.0
 40
5.0
 40
5.0
 40
6.0
 40
6.0
 40
6.0
 40
6.0
 10
-7.1761338975694438
 20
-1.3503051757812499
 30
0.0
 10
-7.1761338975694438
 20
-1.3503051757812499
 30
0.0
 10
-7.0424641927083327
 20
-3.2096232096354163
 30
0.0
 10
-7.0424641927083327
 20
-3.2096232096354163
 30
0.0
 10
-7.7733412000868052
 20
-3.5689466688368054
 30
0.0
 10
-8.2606499565972218
 20
-3.7804755316840275
 30
0.0
 10
-8.9875651041666664
 20
-4.050226508246527
 30
0.0
 10
-8.9875651041666664
 20
-4.050226508246527
 30
0.0
 10
-9.9101616753472221
 20
-3.5548217773437498
 30
0.0
 10
-9.9101616753472221
 20
-3.5548217773437498
 30
0.0
 10
-9.9101616753472221
 20
-3.5548217773437498
 30
0.0
 10
-10.297562662760416
 20
-2.0293334960937499
 30
0.0
 10
-10.297562662760416
 20
-2.0293334960937499
 30
0.0
 10
-10.297562662760416
 20
-2.0293334960937499
 30
0.0
 10
-9.0604288736979157
 20
-1.0926120334201388
 30
0.0
 10
-9.0604288736979157
 20
-1.0926120334201388
 30
0.0
 10
-9.0604288736979157
 20
-1.0926120334201388
 30
0.0
 10
-8.2806315104166668
 20
-0.922768825954861
 30
0.0
 10
-7.1761338975694438
 20
-1.3503051757812499
 30
0.0
  0
SPLINE
  5
99
100
AcDbEntity
  8
LIVELLO_1
 62
     7
100
AcDbSpline
210
0.0
220
0.0
230
1.0
 70
     8
 71
     3
 72
    20
 73
    16
 74
     0
 42
0.00000001
 43
0.00000001
 40
0.0
 40
0.0
 40
0.0
 40
0.0
 40
1.0
 40
1.0
 40
1.0
 40
2.0
 40
2.0
 40
2.0
 40
3.0
 40
3.0
 40
3.0
 40
4.0
 40
4.0
 40
4.0
 40
5.0
 40
5.0
 40
5.0
 40
5.0
 10
-2.8446153428819443
 20
0.42322998046875
 30
0.0
 10
-2.8496107313368051
 20
-0.7732516818576388
 30
0.0
 10
-2.7157687717013888
 20
-1.53013916015625
 30
0.0
 10
-2.5421359592013886
 20
-2.6563408745659718
 30
0.0
 10
-3.4616319444444441
 20
-3.1755167643229165
 30
0.0
 10
-3.8600572374131943
 20
-3.9523857964409719
 30
0.0
 10
-4.8036688910590275
 20
-3.8225056966145829
 30
0.0
 10
-5.2151855468749995
 20
-3.7666951497395829
 30
0.0
 10
-5.5087076822916661
 20
-3.7267320421006942
 30
0.0
 10
-5.9221191406249991
 20
-3.6709214952256941
 30
0.0
 10
-5.9450290256076386
 20
-3.025655110677083
 30
0.0
 10
-6.5859890407986104
 20
-2.8440985785590276
 30
0.0
 10
-6.546198187934027
 20
-2.1130493164062498
 30
0.0
 10
-6.4063273111979164
 20
0.3553615993923611
 30
0.0
 10
-4.411272515190972
 20
1.0061401367187499
 30
0.0
 10
-2.8446153428819443
 20
0.42322998046875
 30
0.0
  0
SPLINE
  5
98
100
AcDbEntity
  8
LIVELLO_1
 62
     7
100
AcDbSpline
210
0.0
220
0.0
230
1.0
 70
     8
 71
     3
 72
    20
 73
    16
 74
     0
 42
0.00000001
 43
0.00000001
 40
0.0
 40
0.0
 40
0.0
 40
0.0
 40
1.0
 40
1.0
 40
1.0
 40
2.0
 40
2.0
 40
2.0
 40
3.0
 40
3.0
 40
3.0
 40
4.0
 40
4.0
 40
4.0
 40
5.0
 40
5.0
 40
5.0
 40
5.0
 10
-6.2456136067708323
 20
-5.8954196506076384
 30
0.0
 10
-6.2456136067708323
 20
-5.8954196506076384
 30
0.0
 10
-3.1781005859374996
 20
-6.2189141167534716
 30
0.0
 10
-3.1781005859374996
 20
-6.2189141167534716
 30
0.0
 10
-3.2401123046874996
 20
-7.3172105577256934
 30
0.0
 10
-3.2709459092881943
 20
-7.8667032877604157
 30
0.0
 10
-3.3329576280381943
 20
-8.9629326714409707
 30
0.0
 10
-3.5854831271701384
 20
-13.442245822482638
 30
0.0
 10
-7.3110093858506939
 20
-13.212457953559026
 30
0.0
 10
-10.217636447482638
 20
-13.184552680121527
 30
0.0
 10
-10.041936577690972
 20
-10.077421061197915
 30
0.0
 10
-8.9494967990451375
 20
-7.553199598524305
 30
0.0
 10
-7.0124918619791661
 20
-6.8958753797743046
 30
0.0
 10
-7.0124918619791661
 20
-6.8958753797743046
 30
0.0
 10
-6.2456136067708323
 20
-5.8954196506076384
 30
0.0
 10
-6.2456136067708323
 20
-5.8954196506076384
 30
0.0
  0
POLYLINE
  5
91
100
AcDbEntity
  8
LIVELLO_1
 62
     7
100
AcDb2dPolyline
 66
     1
 10
0.0
 20
0.0
 30
0.0
 70
     1
  0
VERTEX
  5
92
100
AcDbEntity
  8
LIVELLO_1
 62
     7
100
AcDbVertex
100
AcDb2dVertex
 10
-1.266934
 20
-1.781631
 30
0.0
  0
VERTEX
  5
93
100
AcDbEntity
  8
LIVELLO_1
 62
     7
100
AcDbVertex
100
AcDb2dVertex
 10
-0.367247
 20
-2.642216
 30
0.0
  0
VERTEX
  5
94
100
AcDbEntity
  8
LIVELLO_1
 62
     7
100
AcDbVertex
100
AcDb2dVertex
 10
-0.213596
 20
-4.138076
 30
0.0
  0
VERTEX
  5
95
100
AcDbEntity
  8
LIVELLO_1
 62
     7
100
AcDbVertex
100
AcDb2dVertex
 10
-1.430748
 20
-4.707206
 30
0.0
  0
VERTEX
  5
96
100
AcDbEntity
  8
LIVELLO_1
 62
     7
100
AcDbVertex
100
AcDb2dVertex
 10
-1.799201
 20
-2.814126
 30
0.0
  0
SEQEND
  5
97
100
AcDbEntity
  8
LIVELLO_1
 62
     7
  0
SPLINE
  5
90
100
AcDbEntity
  8
LIVELLO_1
 62
     7
100
AcDbSpline
210
0.0
220
0.0
230
1.0
 70
     8
 71
     3
 72
    23
 73
    19
 74
     0
 42
0.00000001
 43
0.00000001
 40
0.0
 40
0.0
 40
0.0
 40
0.0
 40
1.0
 40
1.0
 40
1.0
 40
2.0
 40
2.0
 40
2.0
 40
3.0
 40
3.0
 40
3.0
 40
4.0
 40
4.0
 40
4.0
 40
5.0
 40
5.0
 40
5.0
 40
6.0
 40
6.0
 40
6.0
 40
6.0
 10
6.358784993489583
 20
1.1260294596354166
 30
0.0
 10
6.358784993489583
 20
1.1260294596354166
 30
0.0
 10
6.984758843315972
 20
-0.4314982096354166
 30
0.0
 10
6.984758843315972
 20
-0.4314982096354166
 30
0.0
 10
6.1918701171874995
 20
-0.7849650065104166
 30
0.0
 10
5.7436631944444443
 20
-1.3682196723090276
 30
0.0
 10
4.9197686089409718
 20
-1.2562540690104165
 30
0.0
 10
4.0950127495659716
 20
-1.1446329752604165
 30
0.0
 10
3.6816012912326386
 20
-1.0884779188368054
 30
0.0
 10
2.8599460177951386
 20
-0.9789238823784722
 30
0.0
 10
2.8459933810763887
 20
-0.1458997938368055
 30
0.0
 10
2.6940646701388888
 20
0.3353800455729166
 30
0.0
 10
2.7421237521701385
 20
1.15806884765625
 30
0.0
 10
2.8599460177951386
 20
3.2588880750868054
 30
0.0
 10
4.6532904730902773
 20
3.4766181098090274
 30
0.0
 10
5.9972222222222218
 20
3.1110934787326388
 30
0.0
 10
5.9972222222222218
 20
3.1110934787326388
 30
0.0
 10
6.358784993489583
 20
1.1260294596354166
 30
0.0
 10
6.358784993489583
 20
1.1260294596354166
 30
0.0
  0
SPLINE
  5
8F
100
AcDbEntity
  8
LIVELLO_1
 62
     7
100
AcDbSpline
210
0.0
220
0.0
230
1.0
 70
     8
 71
     3
 72
    26
 73
    22
 74
     0
 42
0.00000001
 43
0.00000001
 40
0.0
 40
0.0
 40
0.0
 40
0.0
 40
1.0
 40
1.0
 40
1.0
 40
2.0
 40
2.0
 40
2.0
 40
3.0
 40
3.0
 40
3.0
 40
4.0
 40
4.0
 40
4.0
 40
5.0
 40
5.0
 40
5.0
 40
6.0
 40
6.0
 40
6.0
 40
7.0
 40
7.0
 40
7.0
 40
7.0
 10
0.3186713324652777
 20
0.8566229926215278
 30
0.0
 10
0.3186713324652777
 20
0.8566229926215278
 30
0.0
 10
1.47587890625
 20
0.3333129882812499
 30
0.0
 10
1.47587890625
 20
0.3333129882812499
 30
0.0
 10
1.47587890625
 20
0.3333129882812499
 30
0.0
 10
1.6286688910590277
 20
-1.1604804144965277
 30
0.0
 10
1.6286688910590277
 20
-1.1604804144965277
 30
0.0
 10
1.0345621744791667
 20
-1.1746053059895831
 30
0.0
 10
0.6652479383680555
 20
-1.400259060329861
 30
0.0
 10
0.07596435546875
 20
-1.3182657877604165
 30
0.0
 10
-0.5720581054687499
 20
-1.2324829101562498
 30
0.0
 10
-0.6898803710937499
 20
-0.2020548502604166
 30
0.0
 10
-1.1351589626736109
 20
0.3191880967881944
 30
0.0
 10
-1.1351589626736109
 20
0.3191880967881944
 30
0.0
 10
-1.0502373589409721
 20
1.8729261610243053
 30
0.0
 10
-1.0502373589409721
 20
1.8729261610243053
 30
0.0
 10
-1.0502373589409721
 20
1.8729261610243053
 30
0.0
 10
-0.0658013237847222
 20
2.4740953233506944
 30
0.0
 10
-0.0658013237847222
 20
2.4740953233506944
 30
0.0
 10
-0.0658013237847222
 20
2.4740953233506944
 30
0.0
 10
0.3186713324652777
 20
0.8566229926215278
 30
0.0
 10
0.3186713324652777
 20
0.8566229926215278
 30
0.0
  0
SPLINE
  5
8E
100
AcDbEntity
  8
LIVELLO_1
 62
     7
100
AcDbSpline
210
0.0
220
0.0
230
1.0
 70
     8
 71
     3
 72
    17
 73
    13
 74
     0
 42
0.00000001
 43
0.00000001
 40
0.0
 40
0.0
 40
0.0
 40
0.0
 40
1.0
 40
1.0
 40
1.0
 40
2.0
 40
2.0
 40
2.0
 40
3.0
 40
3.0
 40
3.0
 40
4.0
 40
4.0
 40
4.0
 40
4.0
 10
4.0111246744791664
 20
-10.973834906684028
 30
0.0
 10
3.0666517469618051
 20
-11.950519476996528
 30
0.0
 10
2.4355102539062496
 20
-12.601642523871528
 30
0.0
 10
1.3182657877604165
 20
-12.449713812934027
 30
0.0
 10
-0.0937065972222222
 20
-12.258166503906249
 30
0.0
 10
-1.1711602105034722
 20
-10.268968370225693
 30
0.0
 10
-1.0462754991319443
 20
-8.0761650933159714
 30
0.0
 10
-0.927419704861111
 20
-5.9715562608506936
 30
0.0
 10
1.0316338433159722
 20
-3.8445543077256943
 30
0.0
 10
1.9662882486979165
 20
-5.1685045030381938
 30
0.0
 10
3.1124715169270831
 20
-6.8900187174479157
 30
0.0
 10
3.2463134765624999
 20
-8.75140380859375
 30
0.0
 10
4.0111246744791664
 20
-10.973834906684028
 30
0.0
  0
LINE
  5
8D
100
AcDbEntity
  8
LIVELLO_1
 62
     7
100
AcDbLine
 10
1.02061
 20
-5.042759
 30
0.0
 11
1.966288
 21
-5.168505
 31
0.0
  0
SPLINE
  5
8C
100
AcDbEntity
  8
LIVELLO_1
 62
     7
100
AcDbSpline
210
0.0
220
0.0
230
1.0
 70
     8
 71
     3
 72
    14
 73
    10
 74
     0
 42
0.00000001
 43
0.00000001
 40
0.0
 40
0.0
 40
0.0
 40
0.0
 40
1.0
 40
1.0
 40
1.0
 40
2.0
 40
2.0
 40
2.0
 40
3.0
 40
3.0
 40
3.0
 40
3.0
 10
6.947896321614583
 20
-7.99830593532986
 30
0.0
 10
6.5944295247395823
 20
-7.9524861653645829
 30
0.0
 10
6.3996093749999998
 20
-8.2938951280381943
 30
0.0
 10
6.0451090494791657
 20
-8.2460083007812486
 30
0.0
 10
4.1010416666666663
 20
-7.9803914388020827
 30
0.0
 10
3.0685465494791666
 20
-5.2604885525173604
 30
0.0
 10
2.7610717773437496
 20
-2.2729017469618054
 30
0.0
 10
4.9628323025173611
 20
-2.2008992513020833
 30
0.0
 10
6.4276869032118054
 20
-4.6134996202256939
 30
0.0
 10
6.947896321614583
 20
-7.99830593532986
 30
0.0
  0
SPLINE
  5
8B
100
AcDbEntity
  8
LIVELLO_1
 62
     7
100
AcDbSpline
210
0.0
220
0.0
230
1.0
 70
     8
 71
     3
 72
    20
 73
    16
 74
     0
 42
0.00000001
 43
0.00000001
 40
0.0
 40
0.0
 40
0.0
 40
0.0
 40
1.0
 40
1.0
 40
1.0
 40
2.0
 40
2.0
 40
2.0
 40
3.0
 40
3.0
 40
3.0
 40
4.0
 40
4.0
 40
4.0
 40
5.0
 40
5.0
 40
5.0
 40
5.0
 10
-28.091136338975691
 20
4.8405314127604164
 30
0.0
 10
-29.020795355902774
 20
4.4133395724826388
 30
0.0
 10
-29.984388563368054
 20
3.6123548719618053
 30
0.0
 10
-29.984388563368054
 20
2.0627509223090277
 30
0.0
 10
-29.984388563368054
 20
1.4236857096354165
 30
0.0
 10
-29.569943576388887
 20
0.8903849283854166
 30
0.0
 10
-29.159632703993054
 20
0.8903849283854166
 30
0.0
 10
-27.850496419270829
 20
0.8903849283854166
 30
0.0
 10
-26.47659233940972
 20
1.9549194335937499
 30
0.0
 10
-26.47659233940972
 20
3.9878702799479164
 30
0.0
 10
-26.47659233940972
 20
5.4275756835937496
 30
0.0
 10
-27.679791937934024
 20
5.6394490559895827
 30
0.0
 10
-28.60945095486111
 20
5.6394490559895827
 30
0.0
 10
-28.60945095486111
 20
5.6394490559895827
 30
0.0
 10
-28.091136338975691
 20
4.8405314127604164
 30
0.0
 10
-28.091136338975691
 20
4.8405314127604164
 30
0.0
  0
SPLINE
  5
8A
100
AcDbEntity
  8
LIVELLO_1
 62
     7
100
AcDbSpline
210
0.0
220
0.0
230
1.0
 70
     8
 71
     3
 72
    20
 73
    16
 74
     0
 42
0.00000001
 43
0.00000001
 40
0.0
 40
0.0
 40
0.0
 40
0.0
 40
1.0
 40
1.0
 40
1.0
 40
2.0
 40
2.0
 40
2.0
 40
3.0
 40
3.0
 40
3.0
 40
4.0
 40
4.0
 40
4.0
 40
5.0
 40
5.0
 40
5.0
 40
5.0
 10
-28.506614854600691
 20
-6.2109903971354159
 30
0.0
 10
-29.399239095052081
 20
-6.8521226671006934
 30
0.0
 10
-30.534570312499998
 20
-7.0657185872395827
 30
0.0
 10
-30.534570312499998
 20
-8.6135999891493054
 30
0.0
 10
-30.534570312499998
 20
-10.268968370225693
 30
0.0
 10
-29.434206814236109
 20
-11.231528049045139
 30
0.0
 10
-28.36674397786458
 20
-11.231528049045139
 30
0.0
 10
-27.505986870659719
 20
-11.231528049045139
 30
0.0
 10
-27.026774088541664
 20
-9.7356675889756943
 30
0.0
 10
-27.026774088541664
 20
-8.4017266167534714
 30
0.0
 10
-27.026774088541664
 20
-7.4412339952256934
 30
0.0
 10
-27.505986870659719
 20
-6.9041436089409718
 30
0.0
 10
-27.988300238715276
 20
-6.3708428276909714
 30
0.0
 10
-27.988300238715276
 20
-6.3708428276909714
 30
0.0
 10
-28.506614854600691
 20
-6.2109903971354159
 30
0.0
 10
-28.506614854600691
 20
-6.2109903971354159
 30
0.0
  0
POLYLINE
  5
84
100
AcDbEntity
  8
LIVELLO_1
 62
     7
100
AcDb2dPolyline
 66
     1
 10
0.0
 20
0.0
 30
0.0
 70
     1
  0
VERTEX
  5
85
100
AcDbEntity
  8
LIVELLO_1
 62
     7
100
AcDbVertex
100
AcDb2dVertex
 10
-19.284266
 20
14.172606
 30
0.0
  0
VERTEX
  5
86
100
AcDbEntity
  8
LIVELLO_1
 62
     7
100
AcDbVertex
100
AcDb2dVertex
 10
20.514682
 20
14.324535
 30
0.0
  0
VERTEX
  5
87
100
AcDbEntity
  8
LIVELLO_1
 62
     7
100
AcDbVertex
100
AcDb2dVertex
 10
20.436823
 20
-2.680112
 30
0.0
  0
VERTEX
  5
88
100
AcDbEntity
  8
LIVELLO_1
 62
     7
100
AcDbVertex
100
AcDb2dVertex
 10
-19.289262
 20
-2.680112
 30
0.0
  0
SEQEND
  5
89
100
AcDbEntity
  8
LIVELLO_1
 62
     7
  0
ENDBLK
  5
F8
100
AcDbEntity
  8
LIVELLO_1
100
AcDbBlockEnd
  0
BLOCK
  5
114
100
AcDbEntity
  8
LIVELLO_1
 62
     7
100
AcDbBlockBegin
  2
AI9-BLK3
 70
     0
 10
0.0
 20
0.0
 30
0.0
  3
AI9-BLK3
  1

  0
INSERT
  5
116
100
AcDbEntity
  8
LIVELLO_1
 62
     7
100
AcDbBlockReference
  2
AI9-BLK4
 10
0.013522
 20
0.018087
 30
0.0
  0
ENDBLK
  5
119
100
AcDbEntity
  8
LIVELLO_1
100
AcDbBlockEnd
  0
BLOCK
  5
117
100
AcDbEntity
  8
LIVELLO_1
 62
     7
100
AcDbBlockBegin
  2
AI9-BLK4
 70
     0
 10
0.0
 20
0.0
 30
0.0
  3
AI9-BLK4
  1

  0
ENDBLK
  5
118
100
AcDbEntity
  8
LIVELLO_1
100
AcDbBlockEnd
  0
ENDSEC
  0
SECTION
  2
ENTITIES
  0
INSERT
  5
2A
100
AcDbEntity
  8
LIVELLO_1
 62
     7
100
AcDbBlockReference
  2
AI9-BLK1
 10
71.382465
 20
166.689912
 30
0.0
  0
ENDSEC
  0
SECTION
  2
OBJECTS
  0
DICTIONARY
  5
19
100
AcDbDictionary
280
     0
281
     1
  3
ACAD_GROUP
350
1A
  3
ACAD_MLINESTYLE
350
1B
  3
ACAD_LAYOUT
350
1E
  3
ACAD_PLOTSETTINGS
350
22
  3
ACAD_PLOTSTYLENAME
350
1F
  3
ACAD_WIPEOUT_VARS
350
23
  0
DICTIONARY
  5
1A
102
{ACAD_REACTORS
330
19
102
}
100
AcDbDictionary
280
     0
281
     1
  0
DICTIONARY
  5
1B
102
{ACAD_REACTORS
330
19
102
}
100
AcDbDictionary
280
     0
281
     1
  3
Standard
350
1C
  0
MLINESTYLE
  5
1C
102
{ACAD_REACTORS
330
1B
102
}
100
AcDbMlineStyle
  2
Standard
 70
     0
  3

 62
     0
 51
90.0
 52
90.0
 71
     2
 49
0.5
 62
   256
  6
ByLayer
 49
-0.5
 62
   256
  6
ByLayer
  0
ACDBDICTIONARYWDFLT
  5
1F
102
{ACAD_REACTORS
330
19
102
}
100
AcDbDictionary
281
     1
  3
Normal
350
1D
100
AcDbDictionaryWithDefault
340
1D
  0
ACDBPLACEHOLDER
  5
1D
102
{ACAD_REACTORS
330
1F
102
}
  0
LAYOUT
  5
20
102
{ACAD_REACTORS
330
1E
102
}
100
AcDbPlotSettings
  1

  2

  4

  6

 40
0.0
 41
0.0
 42
0.0
 43
0.0
 44
0.0
 45
0.0
 46
0.0
 47
0.0
 48
0.0
 49
0.0
140
0.0
141
0.0
142
1.0
143
1.0
 70
  1024
 72
     0
 73
     0
 74
     0
  7

 75
     0
147
1.0
148
0.0
149
0.0
100
AcDbLayout
  1
Model
 70
     0
 71
     0
 10
0.0
 20
0.0
 11
0.0
 21
0.0
 12
0.0
 22
0.0
 32
0.0
 14
0.0
 24
0.0
 34
0.0
 15
0.0
 25
0.0
 35
0.0
146
0.0
 13
0.0
 23
0.0
 33
0.0
 16
0.0
 26
0.0
 36
0.0
 17
0.0
 27
0.0
 37
0.0
 76
     0
330
A
331
0
345
0
346
0
  0
LAYOUT
  5
21
102
{ACAD_REACTORS
330
1E
102
}
100
AcDbPlotSettings
  1

  2

  4

  6

 40
0.0
 41
0.0
 42
0.0
 43
0.0
 44
0.0
 45
0.0
 46
0.0
 47
0.0
 48
0.0
 49
0.0
140
0.0
141
0.0
142
1.0
143
1.0
 70
     0
 72
     0
 73
     0
 74
     0
  7

 75
     0
147
1.0
148
0.0
149
0.0
100
AcDbLayout
  1
Layout1
 70
     0
 71
     0
 10
0.0
 20
0.0
 11
0.0
 21
0.0
 12
0.0
 22
0.0
 32
0.0
 14
0.0
 24
0.0
 34
0.0
 15
0.0
 25
0.0
 35
0.0
146
0.0
 13
0.0
 23
0.0
 33
0.0
 16
0.0
 26
0.0
 36
0.0
 17
0.0
 27
0.0
 37
0.0
 76
     0
330
B
331
0
345
0
346
0
  0
DICTIONARY
  5
1E
102
{ACAD_REACTORS
330
19
102
}
100
AcDbDictionary
280
     0
281
     1
  3
Layout1
350
21
  3
Model
350
20
  0
DICTIONARY
  5
22
102
{ACAD_REACTORS
330
19
102
}
100
AcDbDictionary
280
     0
281
     1
  0
WIPEOUTVARIABLES
  5
23
100
AcDbWipeoutVariables
 70
     1
  0
ENDSEC
  0
EOF
