  0
SECTION
  2
HEADER
  9
$ACADVER
  1
AC1015
  9
$ACADMAINTVER
 70
     6
  9
$DWGCODEPAGE
  3
ANSI_932
  9
$INSBASE
 10
0.0
 20
0.0
 30
0.0
  9
$EXTMIN
 10
38.576973
 20
50.141298
 30
1.000000E+20
  9
$EXTMAX
 10
149.240503
 20
271.797708
 30
-1.000000E+20
  9
$LIMMIN
 10
38.576973
 20
50.141298
  9
$LIMMAX
 10
149.240503
 20
271.797708
  9
$ORTHOMODE
 70
     0
  9
$REGENMODE
 70
     1
  9
$FILLMODE
 70
     1
  9
$QTEXTMODE
 70
     0
  9
$MIRRTEXT
 70
     1
  9
$LTSCALE
 40
1.0
  9
$ATTMODE
 70
     1
  9
$TEXTSIZE
 40
0.2
  9
$TRACEWID
 40
0.05
  9
$TEXTSTYLE
  7
Standard
  9
$CLAYER
  8
0
  9
$CELTYPE
  6
Continuous
  9
$CECOLOR
 62
   256
  9
$CELTSCALE
 40
1.0
  9
$DISPSILH
 70
     0
  9
$DIMSCALE
 40
1.0
  9
$DIMASZ
 40
0.18
  9
$DIMEXO
 40
0.0625
  9
$DIMDLI
 40
0.38
  9
$DIMRND
 40
0.0
  9
$DIMDLE
 40
0.0
  9
$DIMEXE
 40
0.18
  9
$DIMTP
 40
0.0
  9
$DIMTM
 40
0.0
  9
$DIMTXT
 40
0.18
  9
$DIMCEN
 40
0.09
  9
$DIMTSZ
 40
0.0
  9
$DIMTOL
 70
     0
  9
$DIMLIM
 70
     0
  9
$DIMTIH
 70
     1
  9
$DIMTOH
 70
     1
  9
$DIMSE1
 70
     0
  9
$DIMSE2
 70
     0
  9
$DIMTAD
 70
     0
  9
$DIMZIN
 70
     0
  9
$DIMBLK
  1

  9
$DIMASO
 70
     1
  9
$DIMSHO
 70
     1
  9
$DIMPOST
  1

  9
$DIMAPOST
  1

  9
$DIMALT
 70
     0
  9
$DIMALTD
 70
     2
  9
$DIMALTF
 40
25.4
  9
$DIMLFAC
 40
1.0
  9
$DIMTOFL
 70
     0
  9
$DIMTVP
 40
0.0
  9
$DIMTIX
 70
     0
  9
$DIMSOXD
 70
     0
  9
$DIMSAH
 70
     0
  9
$DIMBLK1
  1

  9
$DIMBLK2
  1

  9
$DIMSTYLE
  2
Standard
  9
$DIMCLRD
 70
     0
  9
$DIMCLRE
 70
     0
  9
$DIMCLRT
 70
     0
  9
$DIMTFAC
 40
1.0
  9
$DIMGAP
 40
0.09
  9
$DIMJUST
 70
     0
  9
$DIMSD1
 70
     0
  9
$DIMSD2
 70
     0
  9
$DIMTOLJ
 70
     1
  9
$DIMTZIN
 70
     0
  9
$DIMALTZ
 70
     0
  9
$DIMALTTZ
 70
     0
  9
$DIMUPT
 70
     0
  9
$DIMDEC
 70
     4
  9
$DIMTDEC
 70
     4
  9
$DIMALTU
 70
     2
  9
$DIMALTTD
 70
     2
  9
$DIMTXSTY
  7
Standard
  9
$DIMAUNIT
 70
     0
  9
$DIMADEC
 70
     0
  9
$DIMALTRND
 40
0.0
  9
$DIMAZIN
 70
     0
  9
$DIMDSEP
 70
     0
  9
$DIMATFIT
 70
     3
  9
$DIMFRAC
 70
     0
  9
$DIMLDRBLK
  1

  9
$DIMLUNIT
 70
     2
  9
$DIMLWD
 70
     0
  9
$DIMLWE
 70
     0
  9
$DIMTMOVE
 70
     0
  9
$LUNITS
 70
     2
  9
$LUPREC
 70
     4
  9
$SKETCHINC
 40
0.1
  9
$FILLETRAD
 40
0.0
  9
$AUNITS
 70
     0
  9
$AUPREC
 70
     0
  9
$MENU
  1
acad
  9
$ELEVATION
 40
0.0
  9
$PELEVATION
 40
0.0
  9
$THICKNESS
 40
0.0
  9
$LIMCHECK
 70
     0
  9
$CHAMFERA
 40
0.0
  9
$CHAMFERB
 40
0.0
  9
$CHAMFERC
 40
0.0
  9
$CHAMFERD
 40
0.0
  9
$SKPOLY
 70
     0
  9
$TDCREATE
 40
0.000000000
  9
$TDUCREATE
 40
0.000000000
  9
$TDUPDATE
 40
0.000000000
  9
$TDUUPDATE
 40
0.000000000
  9
$TDINDWG
 40
0.0000000000
  9
$TDUSRTIMER
 40
0.0000000000
  9
$USRTIMER
 70
     1
  9
$ANGBASE
 50
0.0
  9
$ANGDIR
 70
     0
  9
$PDMODE
 70
     0
  9
$PDSIZE
 40
0.0
  9
$PLINEWID
 40
0.0
  9
$SPLFRAME
 70
     0
  9
$SPLINETYPE
 70
     6
  9
$SPLINESEGS
 70
     8
  9
$HANDSEED
  5
11C
  9
$SURFTAB1
 70
     6
  9
$SURFTAB2
 70
     6
  9
$SURFTYPE
 70
     6
  9
$SURFU
 70
     6
  9
$SURFV
 70
     6
  9
$UCSBASE
  2

  9
$UCSNAME
  2

  9
$UCSORG
 10
0.0
 20
0.0
 30
0.0
  9
$UCSXDIR
 10
1.0
 20
0.0
 30
0.0
  9
$UCSYDIR
 10
0.0
 20
1.0
 30
0.0
  9
$UCSORTHOREF
  2

  9
$UCSORTHOVIEW
 70
     0
  9
$UCSORGTOP
 10
0.0
 20
0.0
 30
0.0
  9
$UCSORGBOTTOM
 10
0.0
 20
0.0
 30
0.0
  9
$UCSORGLEFT
 10
0.0
 20
0.0
 30
0.0
  9
$UCSORGRIGHT
 10
0.0
 20
0.0
 30
0.0
  9
$UCSORGFRONT
 10
0.0
 20
0.0
 30
0.0
  9
$UCSORGBACK
 10
0.0
 20
0.0
 30
0.0
  9
$PUCSBASE
  2

  9
$PUCSNAME
  2

  9
$PUCSORG
 10
0.0
 20
0.0
 30
0.0
  9
$PUCSXDIR
 10
1.0
 20
0.0
 30
0.0
  9
$PUCSYDIR
 10
0.0
 20
1.0
 30
0.0
  9
$PUCSORTHOREF
  2

  9
$PUCSORTHOVIEW
 70
     0
  9
$PUCSORGTOP
 10
0.0
 20
0.0
 30
0.0
  9
$PUCSORGBOTTOM
 10
0.0
 20
0.0
 30
0.0
  9
$PUCSORGLEFT
 10
0.0
 20
0.0
 30
0.0
  9
$PUCSORGRIGHT
 10
0.0
 20
0.0
 30
0.0
  9
$PUCSORGFRONT
 10
0.0
 20
0.0
 30
0.0
  9
$PUCSORGBACK
 10
0.0
 20
0.0
 30
0.0
  9
$USERI1
 70
     0
  9
$USERI2
 70
     0
  9
$USERI3
 70
     0
  9
$USERI4
 70
     0
  9
$USERI5
 70
     0
  9
$USERR1
 40
0.0
  9
$USERR2
 40
0.0
  9
$USERR3
 40
0.0
  9
$USERR4
 40
0.0
  9
$USERR5
 40
0.0
  9
$WORLDVIEW
 70
     1
  9
$SHADEDGE
 70
     3
  9
$SHADEDIF
 70
    70
  9
$TILEMODE
 70
     1
  9
$MAXACTVP
 70
    16
  9
$PINSBASE
 10
0.0
 20
0.0
 30
0.0
  9
$PLIMCHECK
 70
     0
  9
$PEXTMIN
 10
1.000000E+20
 20
1.000000E+20
 30
1.000000E+20
  9
$PEXTMAX
 10
-1.000000E+20
 20
-1.000000E+20
 30
-1.000000E+20
  9
$PLIMMIN
 10
0.0
 20
0.0
  9
$PLIMMAX
 10
12.0
 20
9.0
  9
$UNITMODE
 70
     0
  9
$VISRETAIN
 70
     0
  9
$PLINEGEN
 70
     1
  9
$PSLTSCALE
 70
     0
  9
$TREEDEPTH
 70
  3020
  9
$CMLSTYLE
  2
Standard
  9
$CMLJUST
 70
     0
  9
$CMLSCALE
 40
1.0
  9
$PROXYGRAPHICS
 70
     0
  9
$MEASUREMENT
 70
     1
  9
$CELWEIGHT
370
     0
  9
$ENDCAPS
280
     0
  9
$JOINSTYLE
280
     0
  9
$LWDISPLAY
290
     0
  9
$INSUNITS
 70
     0
  9
$HYPERLINKBASE
  1

  9
$STYLESHEET
  1

  9
$XEDIT
290
     1
  9
$CEPSNTYPE
380
     0
  9
$PSTYLEMODE
290
     1
  9
$FINGERPRINTGUID
  2

  9
$VERSIONGUID
  2

  9
$EXTNAMES
290
     1
  9
$PSVPSCALE
 40
0.0
  0
ENDSEC
  0
SECTION
  2
CLASSES
  0
CLASS
  1
LWPOLYLINE
  2
AcDbPolyline
  3
AutoCAD 2000
 90
    32768
280
     0
281
     1
  0
CLASS
  1
IMAGE
  2
AcDbRasterImage
  3
ISM
 90
    32895
280
     0
281
     1
  0
CLASS
  1
OLE2FRAME
  2
AcDbOle2Frame
  3
AutoCAD 2000
 90
    32768
280
     0
281
     1
  0
CLASS
  1
HATCH
  2
AcDbHatch
  3
AutoCAD 2000
 90
    32768
280
     0
281
     1
  0
CLASS
  1
DICTIONARYVAR
  2
AcDbDictionaryVar
  3
AutoCAD 2000
 90
    32768
280
     0
281
     0
  0
CLASS
  1
RASTERVARIABLES
  2
AcDbRasterVariables
  3
ISM
 90
    32768
280
     0
281
     0
  0
CLASS
  1
IMAGEDEF
  2
AcDbRasterImageDef
  3
ISM
 90
    32768
280
     0
281
     0
  0
CLASS
  1
IMAGEDEF_REACTOR
  2
AcDbRasterImageDefReactor
  3
ISM
 90
    32769
280
     0
281
     0
  0
CLASS
  1
IDBUFFER
  2
AcDbIdBuffer
  3
AutoCAD 2000
 90
    32768
280
     0
281
     0
  0
CLASS
  1
SPATIAL_FILTER
  2
AcDbSpatialFilter
  3
AutoCAD 2000
 90
    32768
280
     0
281
     0
  0
CLASS
  1
XRECORD
  2
AcDbXrecord
  3
AutoCAD 2000
 90
    32768
280
     0
281
     0
  0
CLASS
  1
SORTENTSTABLE
  2
AcDbSortentsTable
  3
AutoCAD 2000
 90
    32768
280
     0
281
     0
  0
CLASS
  1
LAYER_INDEX
  2
AcDbLayerIndex
  3
AutoCAD 2000
 90
    32768
280
     0
281
     0
  0
CLASS
  1
SPATIAL_INDEX
  2
AcDbSpatialIndex
  3
AutoCAD 2000
 90
    32768
280
     0
281
     0
  0
CLASS
  1
OBJECT_PTR
  2
CAseDLPNTableRecord
  3
"ASE-LPNTableRecord"
 90
    32769
280
     0
281
     0
  0
CLASS
  1
LAYOUT
  2
AcDbLayout
  3
AutoCAD 2000
 90
        0
280
     0
281
     0
  0
CLASS
  1
PLOTSETTINGS
  2
AcDbPlotSettings
  3
AutoCAD 2000
 90
    32768
280
     0
281
     0
  0
CLASS
  1
ACDBDICTIONARYWDFLT
  2
AcDbDictionaryWithDefault
  3
AutoCAD 2000
 90
        0
280
     0
281
     0
  0
CLASS
  1
ACDBPLACEHOLDER
  2
AcDbPlaceHolder
  3
AutoCAD 2000
 90
        0
280
     0
281
     0
  0
CLASS
  1
VBA_PROJECT
  2
AcDbVbaProject
  3
acadvba
 90
    32768
280
     0
281
     0
  0
CLASS
  1
WIPEOUT
  2
AcDbWipeout
  3
WipeOut|AutoCAD Express Tool|expresstools@autodesk.com
 90
    32895
280
     0
281
     1
  0
CLASS
  1
WIPEOUTVARIABLES
  2
AcDbWipeoutVariables
  3
WipeOut|AutoCAD Express Tool|expresstools@autodesk.com
 90
        0
280
     0
281
     0
  0
CLASS
  1
RTEXT
  2
RText
  3
RText|AutoCAD Express Tool|expresstools@autodesk.com
 90
    32768
280
     0
281
     1
  0
CLASS
  1
ARCALIGNEDTEXT
  2
AcDbArcAlignedText
  3
ATEXT|AutoCAD Express Tool|expresstools@autodesk.com
 90
    32768
280
     0
281
     1
  0
ENDSEC
  0
SECTION
  2
TABLES
  0
TABLE
  2
VPORT
  5
7
100
AcDbSymbolTable
 70
     1
  0
VPORT
  5
15
100
AcDbSymbolTableRecord
100
AcDbViewportTableRecord
  2
*ACTIVE
 70
     0
 10
0.0
 20
0.0
 11
1.0
 21
1.0
 12
6.591288
 22
4.579184
 13
0.0
 23
0.0
 14
1.0
 24
1.0
 15
0.0
 25
0.0
 16
0.0
 26
0.0
 36
1.0
 17
0.0
 27
0.0
 37
0.0
 40
9.158369
 41
0.688564
 42
50.0
 43
0.0
 44
0.0
 50
0.0
 51
0.0
 71
     0
 72
   100
 73
     1
 74
     1
 75
     0
 76
     0
 77
     0
 78
     0
281
     0
 65
     0
110
0.0
120
0.0
130
0.0
111
1.0
121
0.0
131
0.0
112
0.0
122
1.0
132
0.0
345
0
346
0
 79
     0
146
0.0
  0
ENDTAB
  0
TABLE
  2
LTYPE
  5
4
100
AcDbSymbolTable
 70
     3
  0
LTYPE
  5
11
100
AcDbSymbolTableRecord
100
AcDbLinetypeTableRecord
  2
ByBlock
 70
    64
  3

 72
    65
 73
     0
 40
0.0
  0
LTYPE
  5
12
100
AcDbSymbolTableRecord
100
AcDbLinetypeTableRecord
  2
ByLayer
 70
    64
  3

 72
    65
 73
     0
 40
0.0
  0
LTYPE
  5
13
100
AcDbSymbolTableRecord
100
AcDbLinetypeTableRecord
  2
Continuous
 70
    64
  3
Solid line
 72
    65
 73
     0
 40
0.0
  0
ENDTAB
  0
TABLE
  2
LAYER
  5
2
100
AcDbSymbolTable
 70
     2
  0
LAYER
  5
14
100
AcDbSymbolTableRecord
100
AcDbLayerTableRecord
  2
0
 70
     0
 62
     7
  6
Continuous
290
     1
370
    -3
390
1D
  0
LAYER
  5
28
100
AcDbSymbolTableRecord
100
AcDbLayerTableRecord
  2
LIVELLO_1
 70
     0
 62
   160
  6
Continuous
290
     1
370
    -3
390
1D
  0
ENDTAB
  0
TABLE
  2
STYLE
  5
3
100
AcDbSymbolTable
 70
     5
  0
STYLE
  5
17
100
AcDbSymbolTableRecord
100
AcDbTextStyleTableRecord
  2
Standard
 70
     0
 40
0.0
 41
1.0
 50
0.0
 71
     0
 42
0.0
  3
txt
  4

  0
STYLE
  5
24
100
AcDbSymbolTableRecord
100
AcDbTextStyleTableRecord
  2
STD
 70
     0
 40
0.0
 41
1.0
 50
0.0
 71
     0
 42
0.0
  3
txt
  4

  0
STYLE
  5
25
100
AcDbSymbolTableRecord
100
AcDbTextStyleTableRecord
  2
TATESTD
 70
     4
 40
0.0
 41
1.0
 50
0.0
 71
     0
 42
0.0
  3
txt
  4

  0
STYLE
  5
26
100
AcDbSymbolTableRecord
100
AcDbTextStyleTableRecord
  2
KANJISTD
 70
     0
 40
0.0
 41
1.0
 50
0.0
 71
     0
 42
0.0
  3
txt
  4
extfont
  0
STYLE
  5
27
100
AcDbSymbolTableRecord
100
AcDbTextStyleTableRecord
  2
KANJITATE
 70
     4
 40
0.0
 41
1.0
 50
0.0
 71
     0
 42
0.0
  3
txt
  4
extfont
  0
ENDTAB
  0
TABLE
  2
VIEW
  5
5
100
AcDbSymbolTable
 70
     0
  0
ENDTAB
  0
TABLE
  2
UCS
  5
6
100
AcDbSymbolTable
 70
     0
  0
ENDTAB
  0
TABLE
  2
APPID
  5
8
100
AcDbSymbolTable
 70
     1
  0
APPID
  5
16
100
AcDbSymbolTableRecord
100
AcDbRegAppTableRecord
  2
ACAD
 70
     0
  0
ENDTAB
  0
TABLE
  2
DIMSTYLE
  5
9
100
AcDbSymbolTable
 70
     1
100
AcDbDimStyleTable
 71
     0
  0
DIMSTYLE
105
18
100
AcDbSymbolTableRecord
100
AcDbDimStyleTableRecord
  2
Standard
 70
     0
  3

  4

 40
1.0
 41
0.18
 42
0.0625
 43
0.38
 44
0.18
 45
0.0
 46
0.0
 47
0.0
 48
0.0
 71
     0
 72
     0
 73
     1
 74
     1
 75
     0
 76
     0
 77
     0
 78
     0
 79
     0
140
0.18
141
0.09
142
0.0
143
25.4
144
1.0
145
0.0
146
1.0
147
0.09
148
0.0
170
     0
171
     2
172
     0
173
     0
174
     0
175
     0
176
     0
177
     0
178
     0
179
     0
271
     4
272
     4
273
     2
274
     2
275
     0
276
     0
277
     2
278
    46
279
     0
280
     0
281
     0
282
     0
283
     1
284
     0
285
     0
286
     0
288
     0
340
17
341
0
342
0
343
0
344
0
371
    -2
372
    -2
  0
ENDTAB
  0
TABLE
  2
BLOCK_RECORD
  5
1
100
AcDbSymbolTable
 70
     4
  0
BLOCK_RECORD
  5
A
100
AcDbSymbolTableRecord
100
AcDbBlockTableRecord
  2
*MODEL_SPACE
340
20
  0
BLOCK_RECORD
  5
B
100
AcDbSymbolTableRecord
100
AcDbBlockTableRecord
  2
*PAPER_SPACE
340
21
  0
BLOCK_RECORD
  5
29
100
AcDbSymbolTableRecord
100
AcDbBlockTableRecord
  2
AI9-BLK1
340
0
102
{BLKREFS
331
2A
102
}
  0
BLOCK_RECORD
  5
82
100
AcDbSymbolTableRecord
100
AcDbBlockTableRecord
  2
AI9-BLK2
340
0
102
{BLKREFS
331
83
102
}
  0
BLOCK_RECORD
  5
113
100
AcDbSymbolTableRecord
100
AcDbBlockTableRecord
  2
AI9-BLK3
340
0
102
{BLKREFS
331
114
102
}
  0
BLOCK_RECORD
  5
116
100
AcDbSymbolTableRecord
100
AcDbBlockTableRecord
  2
AI9-BLK4
340
0
102
{BLKREFS
331
117
102
}
  0
ENDTAB
  0
ENDSEC
  0
SECTION
  2
BLOCKS
  0
BLOCK
  5
D
100
AcDbEntity
  8
0
100
AcDbBlockBegin
  2
*MODEL_SPACE
 70
     0
 10
0.0
 20
0.0
 30
0.0
  3
*MODEL_SPACE
  1

  0
ENDBLK
  5
E
100
AcDbEntity
  8
0
100
AcDbBlockEnd
  0
BLOCK
  5
F
100
AcDbEntity
 67
     1
  8
0
100
AcDbBlockBegin
  2
*PAPER_SPACE
 70
     0
 10
0.0
 20
0.0
 30
0.0
  3
*PAPER_SPACE
  1

  0
ENDBLK
  5
10
100
AcDbEntity
 67
     1
  8
0
100
AcDbBlockEnd
  0
BLOCK
  5
2B
100
AcDbEntity
  8
LIVELLO_1
 62
     7
100
AcDbBlockBegin
  2
AI9-BLK1
 70
     0
 10
0.0
 20
0.0
 30
0.0
  3
AI9-BLK1
  1

  0
INSERT
  5
114
100
AcDbEntity
  8
LIVELLO_1
 62
     7
100
AcDbBlockReference
  2
AI9-BLK3
 10
-15.686209
 20
-48.879101
 30
0.0
  0
POLYLINE
  5
10D
100
AcDbEntity
  8
LIVELLO_1
 62
     7
100
AcDb2dPolyline
 66
     1
 10
0.0
 20
0.0
 30
0.0
  0
VERTEX
  5
10E
100
AcDbEntity
  8
LIVELLO_1
 62
     7
100
AcDbVertex
100
AcDb2dVertex
 10
-37.332174
 20
-81.064647
 30
0.0
  0
VERTEX
  5
10F
100
AcDbEntity
  8
LIVELLO_1
 62
     7
100
AcDbVertex
100
AcDb2dVertex
 10
-37.536985
 20
2.027955
 30
0.0
  0
VERTEX
  5
110
100
AcDbEntity
  8
LIVELLO_1
 62
     7
100
AcDbVertex
100
AcDb2dVertex
 10
3.719239
 20
2.027955
 30
0.0
  0
VERTEX
  5
111
100
AcDbEntity
  8
LIVELLO_1
 62
     7
100
AcDbVertex
100
AcDb2dVertex
 10
3.714071
 20
-81.021239
 30
0.0
  0
SEQEND
  5
112
100
AcDbEntity
  8
LIVELLO_1
 62
     7
  0
POLYLINE
  5
107
100
AcDbEntity
  8
LIVELLO_1
 62
     7
100
AcDb2dPolyline
 66
     1
 10
0.0
 20
0.0
 30
0.0
  0
VERTEX
  5
108
100
AcDbEntity
  8
LIVELLO_1
 62
     7
100
AcDbVertex
100
AcDb2dVertex
 10
-37.332174
 20
-81.064647
 30
0.0
  0
VERTEX
  5
109
100
AcDbEntity
  8
LIVELLO_1
 62
     7
100
AcDbVertex
100
AcDb2dVertex
 10
-37.536985
 20
2.027955
 30
0.0
  0
VERTEX
  5
10A
100
AcDbEntity
  8
LIVELLO_1
 62
     7
100
AcDbVertex
100
AcDb2dVertex
 10
3.719239
 20
2.027955
 30
0.0
  0
VERTEX
  5
10B
100
AcDbEntity
  8
LIVELLO_1
 62
     7
100
AcDbVertex
100
AcDb2dVertex
 10
3.714071
 20
-81.021239
 30
0.0
  0
SEQEND
  5
10C
100
AcDbEntity
  8
LIVELLO_1
 62
     7
  0
LINE
  5
106
100
AcDbEntity
  8
LIVELLO_1
 62
     7
100
AcDbLine
 10
-37.332174
 20
2.036224
 30
0.0
 11
-37.332174
 21
-74.218898
 31
0.0
  0
LINE
  5
105
100
AcDbEntity
  8
LIVELLO_1
 62
     7
100
AcDbLine
 10
3.714071
 20
-74.179968
 30
0.0
 11
3.714071
 21
2.036224
 31
0.0
  0
LINE
  5
104
100
AcDbEntity
  8
LIVELLO_1
 62
     7
100
AcDbLine
 10
6.204703
 20
2.036224
 30
0.0
 11
17.064678
 21
2.114427
 31
0.0
  0
LINE
  5
103
100
AcDbEntity
  8
LIVELLO_1
 62
     7
100
AcDbLine
 10
-50.745481
 20
2.036224
 30
0.0
 11
-39.822978
 21
2.114427
 31
0.0
  0
LINE
  5
102
100
AcDbEntity
  8
LIVELLO_1
 62
     7
100
AcDbLine
 10
-37.137699
 20
0.412722
 30
0.0
 11
-36.98043
 21
-2.111844
 31
0.0
  0
LINE
  5
101
100
AcDbEntity
  8
LIVELLO_1
 62
     7
100
AcDbLine
 10
5.921861
 20
2.027955
 30
0.0
 11
3.551463
 21
2.027955
 31
0.0
  0
LINE
  5
100
100
AcDbEntity
  8
LIVELLO_1
 62
     7
100
AcDbLine
 10
-37.424847
 20
2.027955
 30
0.0
 11
-39.795073
 21
2.027955
 31
0.0
  0
POLYLINE
  5
FA
100
AcDbEntity
  8
LIVELLO_1
 62
     7
100
AcDb2dPolyline
 66
     1
 10
0.0
 20
0.0
 30
0.0
  0
VERTEX
  5
FB
100
AcDbEntity
  8
LIVELLO_1
 62
     7
100
AcDbVertex
100
AcDb2dVertex
 10
-37.696493
 20
-81.467723
 30
0.0
  0
VERTEX
  5
FC
100
AcDbEntity
  8
LIVELLO_1
 62
     7
100
AcDbVertex
100
AcDb2dVertex
 10
3.654299
 20
-81.111845
 30
0.0
  0
VERTEX
  5
FD
100
AcDbEntity
  8
LIVELLO_1
 62
     7
100
AcDbVertex
100
AcDb2dVertex
 10
3.501164
 20
-99.839728
 30
0.0
  0
VERTEX
  5
FE
100
AcDbEntity
  8
LIVELLO_1
 62
     7
100
AcDbVertex
100
AcDb2dVertex
 10
-37.722159
 20
-99.839728
 30
0.0
  0
SEQEND
  5
FF
100
AcDbEntity
  8
LIVELLO_1
 62
     7
  0
INSERT
  5
83
100
AcDbEntity
  8
LIVELLO_1
 62
     7
100
AcDbBlockReference
  2
AI9-BLK2
 10
-17.423398
 20
-95.82223
 30
0.0
  0
LINE
  5
81
100
AcDbEntity
  8
LIVELLO_1
 62
     7
100
AcDbLine
 10
12.954679
 20
97.410247
 30
0.0
 11
12.954679
 21
107.089071
 31
0.0
  0
LINE
  5
80
100
AcDbEntity
  8
LIVELLO_1
 62
     7
100
AcDbLine
 10
-45.959555
 20
97.40818
 30
0.0
 11
-45.959555
 21
107.082869
 31
0.0
  0
MTEXT
  5
7F
100
AcDbEntity
  8
LIVELLO_1
 62
     7
100
AcDbMText
 10
-35.227566
 20
110.267603
 30
0.0
 40
9.942288
 41
0.0
 71
     1
 72
     2
  1
\fCourier|b0|i0;\H9.9423;\C7;\U+00F8\U+0020\U+0031\U+0035\U+0032
  7
STD
210
0.0
220
0.0
230
1.0
 73
     1
 44
1.0
  0
LINE
  5
7E
100
AcDbEntity
  8
LIVELLO_1
 62
     7
100
AcDbLine
 10
9.054486
 20
52.193369
 30
0.0
 11
22.397685
 21
44.882876
 31
0.0
  0
LINE
  5
7D
100
AcDbEntity
  8
LIVELLO_1
 62
     7
100
AcDbLine
 10
-42.060568
 20
52.193369
 30
0.0
 11
-55.213426
 21
44.882876
 31
0.0
  0
CIRCLE
  5
7C
100
AcDbEntity
  8
LIVELLO_1
 62
     7
100
AcDbCircle
 10
-16.504074
 20
68.612694
 30
0.0
 40
27.174655
  0
CIRCLE
  5
7B
100
AcDbEntity
  8
LIVELLO_1
 62
     7
100
AcDbCircle
 10
-16.504074
 20
68.612694
 30
0.0
 40
20.124439
  0
CIRCLE
  5
7A
100
AcDbEntity
  8
LIVELLO_1
 62
     7
100
AcDbCircle
 10
-0.43968
 20
59.263049
 30
0.0
 40
0.604102
  0
CIRCLE
  5
79
100
AcDbEntity
  8
LIVELLO_1
 62
     7
100
AcDbCircle
 10
-32.68319
 20
59.293022
 30
0.0
 40
0.604738
  0
CIRCLE
  5
78
100
AcDbEntity
  8
LIVELLO_1
 62
     7
100
AcDbCircle
 10
-16.502007
 20
87.266508
 30
0.0
 40
0.603322
  0
SPLINE
  5
77
100
AcDbEntity
  8
LIVELLO_1
 62
     7
100
AcDbSpline
210
0.0
220
0.0
230
1.0
 70
     8
 71
     3
 72
    53
 73
    49
 74
     0
 42
0.00000001
 43
0.00000001
 40
0.0
 40
0.0
 40
0.0
 40
0.0
 40
1.0
 40
1.0
 40
1.0
 40
2.0
 40
2.0
 40
2.0
 40
3.0
 40
3.0
 40
3.0
 40
4.0
 40
4.0
 40
4.0
 40
5.0
 40
5.0
 40
5.0
 40
6.0
 40
6.0
 40
6.0
 40
7.0
 40
7.0
 40
7.0
 40
8.0
 40
8.0
 40
8.0
 40
9.0
 40
9.0
 40
9.0
 40
10.0
 40
10.0
 40
10.0
 40
11.0
 40
11.0
 40
11.0
 40
12.0
 40
12.0
 40
12.0
 40
13.0
 40
13.0
 40
13.0
 40
14.0
 40
14.0
 40
14.0
 40
15.0
 40
15.0
 40
15.0
 40
16.0
 40
16.0
 40
16.0
 40
16.0
 10
-28.432286919487844
 20
68.612693956163184
 30
0.0
 10
-28.432286919487844
 20
74.371860080295136
 30
0.0
 10
-24.348987494574651
 20
79.176217990451377
 30
0.0
 10
-18.922273084852428
 20
80.29552951388888
 30
0.0
 10
-18.922273084852428
 20
80.29552951388888
 30
0.0
 10
-18.922273084852428
 20
88.591663953993049
 30
0.0
 10
-18.922273084852428
 20
88.591663953993049
 30
0.0
 10
-18.132140435112845
 20
88.692432996961799
 30
0.0
 10
-17.322370741102429
 20
88.743937174479157
 30
0.0
 10
-16.504505072699651
 20
88.743937174479157
 30
0.0
 10
-15.68560587565104
 20
88.743937174479157
 30
0.0
 10
-14.878075493706596
 20
88.692432996961799
 30
0.0
 10
-14.08380872938368
 20
88.591663953993049
 30
0.0
 10
-14.08380872938368
 20
88.591663953993049
 30
0.0
 10
-14.08380872938368
 20
80.29552951388888
 30
0.0
 10
-14.08380872938368
 20
80.29552951388888
 30
0.0
 10
-8.6591613769531239
 20
79.176217990451377
 30
0.0
 10
-4.5799960666232638
 20
74.371860080295136
 30
0.0
 10
-4.5799960666232638
 20
68.612693956163184
 30
0.0
 10
-4.5799960666232638
 20
67.30407443576388
 30
0.0
 10
-4.7887688530815966
 20
66.046959092881934
 30
0.0
 10
-5.1777201334635414
 20
64.869942220052081
 30
0.0
 10
-5.1777201334635414
 20
64.869942220052081
 30
0.0
 10
1.9755038791232638
 20
60.732210286458326
 30
0.0
 10
1.9755038791232638
 20
60.732210286458326
 30
0.0
 10
1.3405727810329859
 20
59.232215711805551
 30
0.0
 10
0.5258076985677083
 20
57.824894205729159
 30
0.0
 10
-0.4484653049045139
 20
56.547108289930549
 30
0.0
 10
-0.4484653049045139
 20
56.547108289930549
 30
0.0
 10
-7.5994500054253464
 20
60.678811306423604
 30
0.0
 10
-7.5994500054253464
 20
60.678811306423604
 30
0.0
 10
-9.7815734863281243
 20
58.230209689670133
 30
0.0
 10
-12.96139662000868
 20
56.685084364149297
 30
0.0
 10
-16.504505072699651
 20
56.685084364149297
 30
0.0
 10
-20.042618136935761
 20
56.685084364149297
 30
0.0
 10
-23.217273627387151
 20
58.226075575086803
 30
0.0
 10
-25.402497694227428
 20
60.672610134548606
 30
0.0
 10
-25.402497694227428
 20
60.672610134548606
 30
0.0
 10
-32.601885986328121
 20
56.52660997178819
 30
0.0
 10
-32.601885986328121
 20
56.52660997178819
 30
0.0
 10
-33.575125461154514
 20
57.806462944878469
 30
0.0
 10
-34.395058186848956
 20
59.209650336371524
 30
0.0
 10
-35.024649386935764
 20
60.711711968315967
 30
0.0
 10
-35.024649386935764
 20
60.711711968315967
 30
0.0
 10
-27.827328152126732
 20
64.857712131076383
 30
0.0
 10
-27.827328152126732
 20
64.857712131076383
 30
0.0
 10
-28.217312961154512
 20
66.038690863715274
 30
0.0
 10
-28.432286919487844
 20
67.302007378472211
 30
0.0
 10
-28.432286919487844
 20
68.612693956163184
 30
0.0
  0
CIRCLE
  5
76
100
AcDbEntity
  8
LIVELLO_1
 62
     7
100
AcDbCircle
 10
-16.503041
 20
68.612694
 30
0.0
 40
21.937248
  0
LINE
  5
75
100
AcDbEntity
  8
LIVELLO_1
 62
     7
100
AcDbLine
 10
12.610858
 20
102.381348
 30
0.0
 11
2.649192
 21
102.381348
 31
0.0
  0
LINE
  5
74
100
AcDbEntity
  8
LIVELLO_1
 62
     7
100
AcDbLine
 10
-35.859052
 20
102.381348
 30
0.0
 11
-45.778515
 21
102.381348
 31
0.0
  0
MTEXT
  5
73
100
AcDbEntity
  8
LIVELLO_1
 62
     7
100
AcDbMText
 10
-32.208112
 20
34.331234
 30
0.0
 40
9.343439
 41
0.0
 71
     1
 72
     2
  1
\fCourier|b0|i0;\H9.3434;\C7;\U+0039\U+0035
  7
STD
210
0.0
220
0.0
230
1.0
 73
     1
 44
1.0
  0
MTEXT
  5
72
100
AcDbEntity
  8
LIVELLO_1
 62
     7
100
AcDbMText
 10
-18.492325
 20
33.125133
 30
0.0
 40
7.618852
 41
0.0
 71
     1
 72
     2
  1
\fSymbol|b0|i0;\H7.6189;\C7;\U+00B0
  7
STD
210
0.0
220
0.0
230
1.0
 73
     1
 44
1.0
  0
MTEXT
  5
71
100
AcDbEntity
  8
LIVELLO_1
 62
     7
100
AcDbMText
 10
-13.913277
 20
34.163594
 30
0.0
 40
9.179934
 41
0.0
 71
     1
 72
     2
  1
\fCourier|b0|i0;\H9.1799;\C7;\U+0078\U+0033
  7
STD
210
0.0
220
0.0
230
1.0
 73
     1
 44
1.0
  0
SPLINE
  5
70
100
AcDbEntity
  8
LIVELLO_1
 62
     7
100
AcDbSpline
210
0.0
220
0.0
230
1.0
 70
     8
 71
     3
 72
     8
 73
     4
 74
     0
 42
0.00000001
 43
0.00000001
 40
0.0
 40
0.0
 40
0.0
 40
0.0
 40
1.0
 40
1.0
 40
1.0
 40
1.0
 10
20.153894721137149
 20
45.868518066406246
 30
0.0
 10
15.676648627387152
 20
38.866533745659716
 30
0.0
 10
9.1809210883246521
 20
33.232941351996523
 30
0.0
 10
1.5474507649739582
 20
29.739270019531247
 30
0.0
  0
SPLINE
  5
6F
100
AcDbEntity
  8
LIVELLO_1
 62
     7
100
AcDbSpline
210
0.0
220
0.0
230
1.0
 70
     8
 71
     3
 72
     8
 73
     4
 74
     0
 42
0.00000001
 43
0.00000001
 40
0.0
 40
0.0
 40
0.0
 40
0.0
 40
1.0
 40
1.0
 40
1.0
 40
1.0
 10
-34.509263102213538
 20
29.733068847656249
 30
0.0
 10
-42.131536865234374
 20
33.222606065538194
 30
0.0
 10
-48.598325602213535
 20
38.856198459201387
 30
0.0
 10
-53.073504638671871
 20
45.862316894531247
 30
0.0
  0
LINE
  5
6E
100
AcDbEntity
  8
LIVELLO_1
 62
     7
100
AcDbLine
 10
6.53905
 20
-109.176971
 30
0.0
 11
6.53905
 21
-102.187561
 31
0.0
  0
LINE
  5
6D
100
AcDbEntity
  8
LIVELLO_1
 62
     7
100
AcDbLine
 10
-38.846638
 20
-109.181105
 30
0.0
 11
-38.846638
 21
-102.191695
 31
0.0
  0
MTEXT
  5
6C
100
AcDbEntity
  8
LIVELLO_1
 62
     7
100
AcDbMText
 10
-27.737928
 20
-100.042277
 30
0.0
 40
7.618852
 41
0.0
 71
     1
 72
     2
  1
\fCourier|b0|i0;\H7.6189;\C7;\U+00F8\U+0031\U+0033\U+0032
  7
STD
210
0.0
220
0.0
230
1.0
 73
     1
 44
1.0
  0
LINE
  5
6B
100
AcDbEntity
  8
LIVELLO_1
 62
     7
100
AcDbLine
 10
6.195401
 20
-105.551697
 30
0.0
 11
-3.511155
 21
-105.551697
 31
0.0
  0
LINE
  5
6A
100
AcDbEntity
  8
LIVELLO_1
 62
     7
100
AcDbLine
 10
-29.98568
 20
-105.551697
 30
0.0
 11
-38.663531
 21
-105.551697
 31
0.0
  0
LINE
  5
69
100
AcDbEntity
  8
LIVELLO_1
 62
     7
100
AcDbLine
 10
27.481957
 20
-80.597492
 30
0.0
 11
37.156474
 21
-80.597492
 31
0.0
  0
LINE
  5
68
100
AcDbEntity
  8
LIVELLO_1
 62
     7
100
AcDbLine
 10
32.321283
 20
-42.553303
 30
0.0
 11
32.321283
 21
-80.597492
 31
0.0
  0
LINE
  5
67
100
AcDbEntity
  8
LIVELLO_1
 62
     7
100
AcDbLine
 10
32.321283
 20
2.192631
 30
0.0
 11
32.321283
 21
-26.833332
 31
0.0
  0
LINE
  5
66
100
AcDbEntity
  8
LIVELLO_1
 62
     7
100
AcDbLine
 10
27.481957
 20
2.192631
 30
0.0
 11
37.156474
 21
2.192631
 31
0.0
  0
SPLINE
  5
65
100
AcDbEntity
  8
LIVELLO_1
 62
     7
100
AcDbSpline
210
0.0
220
0.0
230
1.0
 70
     8
 71
     3
 72
    17
 73
    13
 74
     0
 42
0.00000001
 43
0.00000001
 40
0.0
 40
0.0
 40
0.0
 40
0.0
 40
1.0
 40
1.0
 40
1.0
 40
2.0
 40
2.0
 40
2.0
 40
3.0
 40
3.0
 40
3.0
 40
4.0
 40
4.0
 40
4.0
 40
4.0
 10
-31.749052598741315
 20
4.6019585503472218
 30
0.0
 10
-31.749052598741315
 20
4.6019585503472218
 30
0.0
 10
-24.270783827039928
 20
10.649134657118054
 30
0.0
 10
-24.270783827039928
 20
10.649134657118054
 30
0.0
 10
-24.270783827039928
 20
10.649134657118054
 30
0.0
 10
-19.712233479817705
 20
9.9270426432291661
 30
0.0
 10
-17.014895968967011
 20
9.9270426432291661
 30
0.0
 10
-14.318419731987847
 20
9.9270426432291661
 30
0.0
 10
-9.7588358561197914
 20
10.649134657118054
 30
0.0
 10
-9.7588358561197914
 20
10.649134657118054
 30
0.0
 10
-9.7588358561197914
 20
10.649134657118054
 30
0.0
 10
-1.0944207085503472
 20
4.6019585503472218
 30
0.0
 10
-1.0944207085503472
 20
4.6019585503472218
 30
0.0
  0
POLYLINE
  5
5F
100
AcDbEntity
  8
LIVELLO_1
 62
     7
100
AcDb2dPolyline
 66
     1
 10
0.0
 20
0.0
 30
0.0
 70
     1
  0
VERTEX
  5
60
100
AcDbEntity
  8
LIVELLO_1
 62
     7
100
AcDbVertex
100
AcDb2dVertex
 10
1.471314
 20
-6.422347
 30
0.0
  0
VERTEX
  5
61
100
AcDbEntity
  8
LIVELLO_1
 62
     7
100
AcDbVertex
100
AcDb2dVertex
 10
2.750134
 20
-6.422347
 30
0.0
  0
VERTEX
  5
62
100
AcDbEntity
  8
LIVELLO_1
 62
     7
100
AcDbVertex
100
AcDb2dVertex
 10
2.750134
 20
-7.060206
 30
0.0
  0
VERTEX
  5
63
100
AcDbEntity
  8
LIVELLO_1
 62
     7
100
AcDbVertex
100
AcDb2dVertex
 10
1.471314
 20
-7.060206
 30
0.0
  0
SEQEND
  5
64
100
AcDbEntity
  8
LIVELLO_1
 62
     7
  0
POLYLINE
  5
59
100
AcDbEntity
  8
LIVELLO_1
 62
     7
100
AcDb2dPolyline
 66
     1
 10
0.0
 20
0.0
 30
0.0
 70
     1
  0
VERTEX
  5
5A
100
AcDbEntity
  8
LIVELLO_1
 62
     7
100
AcDbVertex
100
AcDb2dVertex
 10
-35.420663
 20
-6.422347
 30
0.0
  0
VERTEX
  5
5B
100
AcDbEntity
  8
LIVELLO_1
 62
     7
100
AcDbVertex
100
AcDb2dVertex
 10
-34.142016
 20
-6.422347
 30
0.0
  0
VERTEX
  5
5C
100
AcDbEntity
  8
LIVELLO_1
 62
     7
100
AcDbVertex
100
AcDb2dVertex
 10
-34.142016
 20
-7.060206
 30
0.0
  0
VERTEX
  5
5D
100
AcDbEntity
  8
LIVELLO_1
 62
     7
100
AcDbVertex
100
AcDb2dVertex
 10
-35.420663
 20
-7.060206
 30
0.0
  0
SEQEND
  5
5E
100
AcDbEntity
  8
LIVELLO_1
 62
     7
  0
POLYLINE
  5
53
100
AcDbEntity
  8
LIVELLO_1
 62
     7
100
AcDb2dPolyline
 66
     1
 10
0.0
 20
0.0
 30
0.0
 70
     1
  0
VERTEX
  5
54
100
AcDbEntity
  8
LIVELLO_1
 62
     7
100
AcDbVertex
100
AcDb2dVertex
 10
-19.618699
 20
-5.047926
 30
0.0
  0
VERTEX
  5
55
100
AcDbEntity
  8
LIVELLO_1
 62
     7
100
AcDbVertex
100
AcDb2dVertex
 10
-13.222707
 20
-5.047926
 30
0.0
  0
VERTEX
  5
56
100
AcDbEntity
  8
LIVELLO_1
 62
     7
100
AcDbVertex
100
AcDb2dVertex
 10
-13.860567
 20
-7.774202
 30
0.0
  0
VERTEX
  5
57
100
AcDbEntity
  8
LIVELLO_1
 62
     7
100
AcDbVertex
100
AcDb2dVertex
 10
-18.978773
 20
-7.774202
 30
0.0
  0
SEQEND
  5
58
100
AcDbEntity
  8
LIVELLO_1
 62
     7
  0
LINE
  5
52
100
AcDbEntity
  8
LIVELLO_1
 62
     7
100
AcDbLine
 10
-32.211901
 20
-52.285353
 30
0.0
 11
-0.496697
 21
-52.285353
 31
0.0
  0
SPLINE
  5
51
100
AcDbEntity
  8
LIVELLO_1
 62
     7
100
AcDbSpline
210
0.0
220
0.0
230
1.0
 70
     8
 71
     3
 72
    23
 73
    19
 74
     0
 42
0.00000001
 43
0.00000001
 40
0.0
 40
0.0
 40
0.0
 40
0.0
 40
1.0
 40
1.0
 40
1.0
 40
2.0
 40
2.0
 40
2.0
 40
3.0
 40
3.0
 40
3.0
 40
4.0
 40
4.0
 40
4.0
 40
5.0
 40
5.0
 40
5.0
 40
6.0
 40
6.0
 40
6.0
 40
6.0
 10
-2.0152947319878471
 20
-53.988952636718743
 30
0.0
 10
-2.0152947319878471
 20
-53.988952636718743
 30
0.0
 10
-2.3649719238281248
 20
-65.826300726996521
 30
0.0
 10
-2.3649719238281248
 20
-65.826300726996521
 30
0.0
 10
-2.3649719238281248
 20
-66.178044976128461
 30
0.0
 10
-2.6519483778211805
 20
-66.46398790147569
 30
0.0
 10
-3.0059319390190971
 20
-66.46398790147569
 30
0.0
 10
-3.0059319390190971
 20
-66.46398790147569
 30
0.0
 10
-29.666836886935762
 20
-66.46398790147569
 30
0.0
 10
-29.666836886935762
 20
-66.46398790147569
 30
0.0
 10
-30.020648193359371
 20
-66.46398790147569
 30
0.0
 10
-30.305729844835067
 20
-66.178044976128461
 30
0.0
 10
-30.305729844835067
 20
-65.826300726996521
 30
0.0
 10
-30.305729844835067
 20
-65.826300726996521
 30
0.0
 10
-30.655407036675346
 20
-53.988952636718743
 30
0.0
 10
-30.655407036675346
 20
-53.988952636718743
 30
0.0
 10
-30.655407036675346
 20
-53.988952636718743
 30
0.0
 10
-2.0152947319878471
 20
-53.988952636718743
 30
0.0
 10
-2.0152947319878471
 20
-53.988952636718743
 30
0.0
  0
CIRCLE
  5
50
100
AcDbEntity
  8
LIVELLO_1
 62
     7
100
AcDbCircle
 10
-16.368252
 20
-46.764932
 30
0.0
 40
2.359546
  0
CIRCLE
  5
4F
100
AcDbEntity
  8
LIVELLO_1
 62
     7
100
AcDbCircle
 10
-16.367735
 20
-46.764932
 30
0.0
 40
0.785999
  0
SPLINE
  5
4E
100
AcDbEntity
  8
LIVELLO_1
 62
     7
100
AcDbSpline
210
0.0
220
0.0
230
1.0
 70
     8
 71
     3
 72
    29
 73
    25
 74
     0
 42
0.00000001
 43
0.00000001
 40
0.0
 40
0.0
 40
0.0
 40
0.0
 40
1.0
 40
1.0
 40
1.0
 40
2.0
 40
2.0
 40
2.0
 40
3.0
 40
3.0
 40
3.0
 40
4.0
 40
4.0
 40
4.0
 40
5.0
 40
5.0
 40
5.0
 40
6.0
 40
6.0
 40
6.0
 40
7.0
 40
7.0
 40
7.0
 40
8.0
 40
8.0
 40
8.0
 40
8.0
 10
-38.090439860026038
 20
4.6019585503472218
 30
0.0
 10
-38.090439860026038
 20
4.6019585503472218
 30
0.0
 10
5.2705654568142357
 20
4.6019585503472218
 30
0.0
 10
5.2705654568142357
 20
4.6019585503472218
 30
0.0
 10
5.554613579644097
 20
4.6019585503472218
 30
0.0
 10
5.7799228244357632
 20
4.3714816623263886
 30
0.0
 10
5.7799228244357632
 20
4.0917399088541666
 30
0.0
 10
5.7799228244357632
 20
4.0917399088541666
 30
0.0
 10
5.7799228244357632
 20
-4.5377075195312493
 30
0.0
 10
5.7799228244357632
 20
-4.5377075195312493
 30
0.0
 10
5.7799228244357632
 20
-4.819516330295138
 30
0.0
 10
5.554613579644097
 20
-5.0479261610243054
 30
0.0
 10
5.2705654568142357
 20
-5.0479261610243054
 30
0.0
 10
5.2705654568142357
 20
-5.0479261610243054
 30
0.0
 10
-38.090439860026038
 20
-5.0479261610243054
 30
0.0
 10
-38.090439860026038
 20
-5.0479261610243054
 30
0.0
 10
-38.375349256727425
 20
-5.0479261610243054
 30
0.0
 10
-38.604792616102429
 20
-4.819516330295138
 30
0.0
 10
-38.604792616102429
 20
-4.5377075195312493
 30
0.0
 10
-38.604792616102429
 20
-4.5377075195312493
 30
0.0
 10
-38.604792616102429
 20
4.0917399088541666
 30
0.0
 10
-38.604792616102429
 20
4.0917399088541666
 30
0.0
 10
-38.604792616102429
 20
4.3714816623263886
 30
0.0
 10
-38.375349256727425
 20
4.6019585503472218
 30
0.0
 10
-38.090439860026038
 20
4.6019585503472218
 30
0.0
  0
SPLINE
  5
4D
100
AcDbEntity
  8
LIVELLO_1
 62
     7
100
AcDbSpline
210
0.0
220
0.0
230
1.0
 70
     8
 71
     3
 72
    41
 73
    37
 74
     0
 42
0.00000001
 43
0.00000001
 40
0.0
 40
0.0
 40
0.0
 40
0.0
 40
1.0
 40
1.0
 40
1.0
 40
2.0
 40
2.0
 40
2.0
 40
3.0
 40
3.0
 40
3.0
 40
4.0
 40
4.0
 40
4.0
 40
5.0
 40
5.0
 40
5.0
 40
6.0
 40
6.0
 40
6.0
 40
7.0
 40
7.0
 40
7.0
 40
8.0
 40
8.0
 40
8.0
 40
9.0
 40
9.0
 40
9.0
 40
10.0
 40
10.0
 40
10.0
 40
11.0
 40
11.0
 40
11.0
 40
12.0
 40
12.0
 40
12.0
 40
12.0
 10
-6.8279208713107629
 20
-6.4223470052083327
 30
0.0
 10
-6.8279208713107629
 20
-6.4223470052083327
 30
0.0
 10
0.194561767578125
 20
-6.4223470052083327
 30
0.0
 10
0.194561767578125
 20
-6.4223470052083327
 30
0.0
 10
0.194561767578125
 20
-6.4223470052083327
 30
0.0
 10
-0.4463982476128472
 20
-53.349198404947913
 30
0.0
 10
-0.4463982476128472
 20
-53.349198404947913
 30
0.0
 10
-0.4463982476128472
 20
-53.703009711371521
 30
0.0
 10
-0.7323411729600694
 20
-53.988952636718743
 30
0.0
 10
-1.0861524793836805
 20
-53.988952636718743
 30
0.0
 10
-1.0861524793836805
 20
-53.988952636718743
 30
0.0
 10
-31.584377034505206
 20
-53.988952636718743
 30
0.0
 10
-31.584377034505206
 20
-53.988952636718743
 30
0.0
 10
-31.938360595703124
 20
-53.988952636718743
 30
0.0
 10
-32.225337049696179
 20
-53.703009711371521
 30
0.0
 10
-32.225337049696179
 20
-53.349198404947913
 30
0.0
 10
-32.225337049696179
 20
-53.349198404947913
 30
0.0
 10
-32.865263536241315
 20
-6.4223470052083327
 30
0.0
 10
-32.865263536241315
 20
-6.4223470052083327
 30
0.0
 10
-32.865263536241315
 20
-6.4223470052083327
 30
0.0
 10
-25.908582221137152
 20
-6.4223470052083327
 30
0.0
 10
-25.908582221137152
 20
-6.4223470052083327
 30
0.0
 10
-25.908582221137152
 20
-6.4223470052083327
 30
0.0
 10
-19.294687906901039
 20
-6.4223470052083327
 30
0.0
 10
-19.294687906901039
 20
-6.4223470052083327
 30
0.0
 10
-19.294687906901039
 20
-6.4223470052083327
 30
0.0
 10
-18.978772650824652
 20
-7.7742024739583329
 30
0.0
 10
-18.978772650824652
 20
-7.7742024739583329
 30
0.0
 10
-18.978772650824652
 20
-7.7742024739583329
 30
0.0
 10
-13.86056654188368
 20
-7.7742024739583329
 30
0.0
 10
-13.86056654188368
 20
-7.7742024739583329
 30
0.0
 10
-13.86056654188368
 20
-7.7742024739583329
 30
0.0
 10
-13.544823540581596
 20
-6.4223470052083327
 30
0.0
 10
-13.544823540581596
 20
-6.4223470052083327
 30
0.0
 10
-13.544823540581596
 20
-6.4223470052083327
 30
0.0
 10
-6.8279208713107629
 20
-6.4223470052083327
 30
0.0
 10
-6.8279208713107629
 20
-6.4223470052083327
 30
0.0
  0
SPLINE
  5
4C
100
AcDbEntity
  8
LIVELLO_1
 62
     7
100
AcDbSpline
210
0.0
220
0.0
230
1.0
 70
     8
 71
     3
 72
    20
 73
    16
 74
     0
 42
0.00000001
 43
0.00000001
 40
0.0
 40
0.0
 40
0.0
 40
0.0
 40
1.0
 40
1.0
 40
1.0
 40
2.0
 40
2.0
 40
2.0
 40
3.0
 40
3.0
 40
3.0
 40
4.0
 40
4.0
 40
4.0
 40
5.0
 40
5.0
 40
5.0
 40
5.0
 10
-25.193724907769095
 20
-6.4223470052083327
 30
0.0
 10
-25.193724907769095
 20
-6.4223470052083327
 30
0.0
 10
-25.193724907769095
 20
-50.038461642795134
 30
0.0
 10
-25.193724907769095
 20
-50.038461642795134
 30
0.0
 10
-25.193724907769095
 20
-50.227941894531249
 30
0.0
 10
-25.3520270453559
 20
-50.386416286892356
 30
0.0
 10
-25.565106201171872
 20
-50.386416286892356
 30
0.0
 10
-25.754414198133677
 20
-50.386416286892356
 30
0.0
 10
-25.908582221137152
 20
-50.227941894531249
 30
0.0
 10
-25.908582221137152
 20
-50.038461642795134
 30
0.0
 10
-25.908582221137152
 20
-50.038461642795134
 30
0.0
 10
-25.908582221137152
 20
-6.4223470052083327
 30
0.0
 10
-25.908582221137152
 20
-6.4223470052083327
 30
0.0
 10
-25.908582221137152
 20
-6.4223470052083327
 30
0.0
 10
-25.193724907769095
 20
-6.4223470052083327
 30
0.0
 10
-25.193724907769095
 20
-6.4223470052083327
 30
0.0
  0
SPLINE
  5
4B
100
AcDbEntity
  8
LIVELLO_1
 62
     7
100
AcDbSpline
210
0.0
220
0.0
230
1.0
 70
     8
 71
     3
 72
    20
 73
    16
 74
     0
 42
0.00000001
 43
0.00000001
 40
0.0
 40
0.0
 40
0.0
 40
0.0
 40
1.0
 40
1.0
 40
1.0
 40
2.0
 40
2.0
 40
2.0
 40
3.0
 40
3.0
 40
3.0
 40
4.0
 40
4.0
 40
4.0
 40
5.0
 40
5.0
 40
5.0
 40
5.0
 10
-22.134996880425344
 20
-6.4223470052083327
 30
0.0
 10
-22.134996880425344
 20
-6.4223470052083327
 30
0.0
 10
-22.134996880425344
 20
-50.038461642795134
 30
0.0
 10
-22.134996880425344
 20
-50.038461642795134
 30
0.0
 10
-22.134996880425344
 20
-50.227941894531249
 30
0.0
 10
-22.288303629557291
 20
-50.386416286892356
 30
0.0
 10
-22.501382785373263
 20
-50.386416286892356
 30
0.0
 10
-22.690690782335068
 20
-50.386416286892356
 30
0.0
 10
-22.848992919921873
 20
-50.227941894531249
 30
0.0
 10
-22.848992919921873
 20
-50.038461642795134
 30
0.0
 10
-22.848992919921873
 20
-50.038461642795134
 30
0.0
 10
-22.848992919921873
 20
-6.4223470052083327
 30
0.0
 10
-22.848992919921873
 20
-6.4223470052083327
 30
0.0
 10
-22.848992919921873
 20
-6.4223470052083327
 30
0.0
 10
-22.134996880425344
 20
-6.4223470052083327
 30
0.0
 10
-22.134996880425344
 20
-6.4223470052083327
 30
0.0
  0
SPLINE
  5
4A
100
AcDbEntity
  8
LIVELLO_1
 62
     7
100
AcDbSpline
210
0.0
220
0.0
230
1.0
 70
     8
 71
     3
 72
    23
 73
    19
 74
     0
 42
0.00000001
 43
0.00000001
 40
0.0
 40
0.0
 40
0.0
 40
0.0
 40
1.0
 40
1.0
 40
1.0
 40
2.0
 40
2.0
 40
2.0
 40
3.0
 40
3.0
 40
3.0
 40
4.0
 40
4.0
 40
4.0
 40
5.0
 40
5.0
 40
5.0
 40
6.0
 40
6.0
 40
6.0
 40
6.0
 10
-19.075407579210069
 20
-7.3914523654513884
 30
0.0
 10
-19.075407579210069
 20
-7.3914523654513884
 30
0.0
 10
-19.075407579210069
 20
-50.038461642795134
 30
0.0
 10
-19.075407579210069
 20
-50.038461642795134
 30
0.0
 10
-19.075407579210069
 20
-50.227941894531249
 30
0.0
 10
-19.229747856987846
 20
-50.386416286892356
 30
0.0
 10
-19.441793484157984
 20
-50.386416286892356
 30
0.0
 10
-19.632135009765623
 20
-50.386416286892356
 30
0.0
 10
-19.785269504123264
 20
-50.227941894531249
 30
0.0
 10
-19.785269504123264
 20
-50.038461642795134
 30
0.0
 10
-19.785269504123264
 20
-50.038461642795134
 30
0.0
 10
-19.785269504123264
 20
-6.4223470052083327
 30
0.0
 10
-19.785269504123264
 20
-6.4223470052083327
 30
0.0
 10
-19.785269504123264
 20
-6.4223470052083327
 30
0.0
 10
-19.315186225043401
 20
-6.4223470052083327
 30
0.0
 10
-19.315186225043401
 20
-6.4223470052083327
 30
0.0
 10
-19.315186225043401
 20
-6.4223470052083327
 30
0.0
 10
-19.075407579210069
 20
-7.3914523654513884
 30
0.0
 10
-19.075407579210069
 20
-7.3914523654513884
 30
0.0
  0
SPLINE
  5
49
100
AcDbEntity
  8
LIVELLO_1
 62
     7
100
AcDbSpline
210
0.0
220
0.0
230
1.0
 70
     8
 71
     3
 72
    20
 73
    16
 74
     0
 42
0.00000001
 43
0.00000001
 40
0.0
 40
0.0
 40
0.0
 40
0.0
 40
1.0
 40
1.0
 40
1.0
 40
2.0
 40
2.0
 40
2.0
 40
3.0
 40
3.0
 40
3.0
 40
4.0
 40
4.0
 40
4.0
 40
5.0
 40
5.0
 40
5.0
 40
5.0
 10
-16.011856418185761
 20
-7.7742024739583329
 30
0.0
 10
-16.011856418185761
 20
-7.7742024739583329
 30
0.0
 10
-16.011856418185761
 20
-44.431568739149299
 30
0.0
 10
-16.011856418185761
 20
-44.431568739149299
 30
0.0
 10
-16.127956136067706
 20
-44.415376790364576
 30
0.0
 10
-16.248362223307289
 20
-44.405041503906247
 30
0.0
 10
-16.367734781901039
 20
-44.405041503906247
 30
0.0
 10
-16.488140869140622
 20
-44.405041503906247
 30
0.0
 10
-16.608546956380206
 20
-44.415376790364576
 30
0.0
 10
-16.723613145616319
 20
-44.431568739149299
 30
0.0
 10
-16.723613145616319
 20
-44.431568739149299
 30
0.0
 10
-16.723613145616319
 20
-7.7742024739583329
 30
0.0
 10
-16.723613145616319
 20
-7.7742024739583329
 30
0.0
 10
-16.723613145616319
 20
-7.7742024739583329
 30
0.0
 10
-16.011856418185761
 20
-7.7742024739583329
 30
0.0
 10
-16.011856418185761
 20
-7.7742024739583329
 30
0.0
  0
SPLINE
  5
48
100
AcDbEntity
  8
LIVELLO_1
 62
     7
100
AcDbSpline
210
0.0
220
0.0
230
1.0
 70
     8
 71
     3
 72
    23
 73
    19
 74
     0
 42
0.00000001
 43
0.00000001
 40
0.0
 40
0.0
 40
0.0
 40
0.0
 40
1.0
 40
1.0
 40
1.0
 40
2.0
 40
2.0
 40
2.0
 40
3.0
 40
3.0
 40
3.0
 40
4.0
 40
4.0
 40
4.0
 40
5.0
 40
5.0
 40
5.0
 40
6.0
 40
6.0
 40
6.0
 40
6.0
 10
-16.011856418185761
 20
-49.100362141927079
 30
0.0
 10
-16.011856418185761
 20
-49.100362141927079
 30
0.0
 10
-16.011856418185761
 20
-50.038461642795134
 30
0.0
 10
-16.011856418185761
 20
-50.038461642795134
 30
0.0
 10
-16.011856418185761
 20
-50.227941894531249
 30
0.0
 10
-16.168091498480901
 20
-50.386416286892356
 30
0.0
 10
-16.379103597005209
 20
-50.386416286892356
 30
0.0
 10
-16.572545708550347
 20
-50.386416286892356
 30
0.0
 10
-16.723613145616319
 20
-50.227941894531249
 30
0.0
 10
-16.723613145616319
 20
-50.038461642795134
 30
0.0
 10
-16.723613145616319
 20
-50.038461642795134
 30
0.0
 10
-16.723613145616319
 20
-49.100362141927079
 30
0.0
 10
-16.723613145616319
 20
-49.100362141927079
 30
0.0
 10
-16.608546956380206
 20
-49.118965657552081
 30
0.0
 10
-16.488140869140622
 20
-49.127233886718749
 30
0.0
 10
-16.367734781901039
 20
-49.127233886718749
 30
0.0
 10
-16.248362223307289
 20
-49.127233886718749
 30
0.0
 10
-16.127956136067706
 20
-49.118965657552081
 30
0.0
 10
-16.011856418185761
 20
-49.100362141927079
 30
0.0
  0
SPLINE
  5
47
100
AcDbEntity
  8
LIVELLO_1
 62
     7
100
AcDbSpline
210
0.0
220
0.0
230
1.0
 70
     8
 71
     3
 72
    23
 73
    19
 74
     0
 42
0.00000001
 43
0.00000001
 40
0.0
 40
0.0
 40
0.0
 40
0.0
 40
1.0
 40
1.0
 40
1.0
 40
2.0
 40
2.0
 40
2.0
 40
3.0
 40
3.0
 40
3.0
 40
4.0
 40
4.0
 40
4.0
 40
5.0
 40
5.0
 40
5.0
 40
6.0
 40
6.0
 40
6.0
 40
6.0
 10
-12.953128390842013
 20
-6.4223470052083327
 30
0.0
 10
-12.953128390842013
 20
-6.4223470052083327
 30
0.0
 10
-12.953128390842013
 20
-50.038461642795134
 30
0.0
 10
-12.953128390842013
 20
-50.038461642795134
 30
0.0
 10
-12.953128390842013
 20
-50.227941894531249
 30
0.0
 10
-13.10436808268229
 20
-50.386416286892356
 30
0.0
 10
-13.319514295789929
 20
-50.386416286892356
 30
0.0
 10
-13.508822292751734
 20
-50.386416286892356
 30
0.0
 10
-13.665057373046874
 20
-50.227941894531249
 30
0.0
 10
-13.665057373046874
 20
-50.038461642795134
 30
0.0
 10
-13.665057373046874
 20
-50.038461642795134
 30
0.0
 10
-13.665057373046874
 20
-6.9840698242187491
 30
0.0
 10
-13.665057373046874
 20
-6.9840698242187491
 30
0.0
 10
-13.665057373046874
 20
-6.9840698242187491
 30
0.0
 10
-13.526220024956595
 20
-6.4223470052083327
 30
0.0
 10
-13.526220024956595
 20
-6.4223470052083327
 30
0.0
 10
-13.526220024956595
 20
-6.4223470052083327
 30
0.0
 10
-12.953128390842013
 20
-6.4223470052083327
 30
0.0
 10
-12.953128390842013
 20
-6.4223470052083327
 30
0.0
  0
SPLINE
  5
46
100
AcDbEntity
  8
LIVELLO_1
 62
     7
100
AcDbSpline
210
0.0
220
0.0
230
1.0
 70
     8
 71
     3
 72
    20
 73
    16
 74
     0
 42
0.00000001
 43
0.00000001
 40
0.0
 40
0.0
 40
0.0
 40
0.0
 40
1.0
 40
1.0
 40
1.0
 40
2.0
 40
2.0
 40
2.0
 40
3.0
 40
3.0
 40
3.0
 40
4.0
 40
4.0
 40
4.0
 40
5.0
 40
5.0
 40
5.0
 40
5.0
 10
-9.8895772298177071
 20
-6.4223470052083327
 30
0.0
 10
-9.8895772298177071
 20
-6.4223470052083327
 30
0.0
 10
-9.8895772298177071
 20
-50.038461642795134
 30
0.0
 10
-9.8895772298177071
 20
-50.038461642795134
 30
0.0
 10
-9.8895772298177071
 20
-50.227941894531249
 30
0.0
 10
-10.044778781467013
 20
-50.386416286892356
 30
0.0
 10
-10.257857937282985
 20
-50.386416286892356
 30
0.0
 10
-10.44716593424479
 20
-50.386416286892356
 30
0.0
 10
-10.601506212022569
 20
-50.227941894531249
 30
0.0
 10
-10.601506212022569
 20
-50.038461642795134
 30
0.0
 10
-10.601506212022569
 20
-50.038461642795134
 30
0.0
 10
-10.601506212022569
 20
-6.4223470052083327
 30
0.0
 10
-10.601506212022569
 20
-6.4223470052083327
 30
0.0
 10
-10.601506212022569
 20
-6.4223470052083327
 30
0.0
 10
-9.8895772298177071
 20
-6.4223470052083327
 30
0.0
 10
-9.8895772298177071
 20
-6.4223470052083327
 30
0.0
  0
SPLINE
  5
45
100
AcDbEntity
  8
LIVELLO_1
 62
     7
100
AcDbSpline
210
0.0
220
0.0
230
1.0
 70
     8
 71
     3
 72
    20
 73
    16
 74
     0
 42
0.00000001
 43
0.00000001
 40
0.0
 40
0.0
 40
0.0
 40
0.0
 40
1.0
 40
1.0
 40
1.0
 40
2.0
 40
2.0
 40
2.0
 40
3.0
 40
3.0
 40
3.0
 40
4.0
 40
4.0
 40
4.0
 40
5.0
 40
5.0
 40
5.0
 40
5.0
 10
-6.8279208713107629
 20
-6.4223470052083327
 30
0.0
 10
-6.8279208713107629
 20
-6.4223470052083327
 30
0.0
 10
-6.8279208713107629
 20
-50.038461642795134
 30
0.0
 10
-6.8279208713107629
 20
-50.038461642795134
 30
0.0
 10
-6.8279208713107629
 20
-50.227941894531249
 30
0.0
 10
-6.9812276204427075
 20
-50.386416286892356
 30
0.0
 10
-7.1941345214843739
 20
-50.386416286892356
 30
0.0
 10
-7.3886101616753468
 20
-50.386416286892356
 30
0.0
 10
-7.5419169108072905
 20
-50.227941894531249
 30
0.0
 10
-7.5419169108072905
 20
-50.038461642795134
 30
0.0
 10
-7.5419169108072905
 20
-50.038461642795134
 30
0.0
 10
-7.5419169108072905
 20
-6.4223470052083327
 30
0.0
 10
-7.5419169108072905
 20
-6.4223470052083327
 30
0.0
 10
-7.5419169108072905
 20
-6.4223470052083327
 30
0.0
 10
-6.8279208713107629
 20
-6.4223470052083327
 30
0.0
 10
-6.8279208713107629
 20
-6.4223470052083327
 30
0.0
  0
POLYLINE
  5
3F
100
AcDbEntity
  8
LIVELLO_1
 62
     7
100
AcDb2dPolyline
 66
     1
 10
0.0
 20
0.0
 30
0.0
 70
     1
  0
VERTEX
  5
40
100
AcDbEntity
  8
LIVELLO_1
 62
     7
100
AcDbVertex
100
AcDb2dVertex
 10
-28.950774
 20
-66.41679
 30
0.0
  0
VERTEX
  5
41
100
AcDbEntity
  8
LIVELLO_1
 62
     7
100
AcDbVertex
100
AcDb2dVertex
 10
-18.554854
 20
-66.41679
 30
0.0
  0
VERTEX
  5
42
100
AcDbEntity
  8
LIVELLO_1
 62
     7
100
AcDbVertex
100
AcDb2dVertex
 10
-18.554854
 20
-69.67585
 30
0.0
  0
VERTEX
  5
43
100
AcDbEntity
  8
LIVELLO_1
 62
     7
100
AcDbVertex
100
AcDb2dVertex
 10
-28.950774
 20
-69.67585
 30
0.0
  0
SEQEND
  5
44
100
AcDbEntity
  8
LIVELLO_1
 62
     7
  0
SPLINE
  5
3E
100
AcDbEntity
  8
LIVELLO_1
 62
     7
100
AcDbSpline
210
0.0
220
0.0
230
1.0
 70
     8
 71
     3
 72
    23
 73
    19
 74
     0
 42
0.00000001
 43
0.00000001
 40
0.0
 40
0.0
 40
0.0
 40
0.0
 40
1.0
 40
1.0
 40
1.0
 40
2.0
 40
2.0
 40
2.0
 40
3.0
 40
3.0
 40
3.0
 40
4.0
 40
4.0
 40
4.0
 40
5.0
 40
5.0
 40
5.0
 40
6.0
 40
6.0
 40
6.0
 40
6.0
 10
-28.335479736328121
 20
-69.675850423177081
 30
0.0
 10
-28.335479736328121
 20
-69.675850423177081
 30
0.0
 10
-28.335479736328121
 20
-69.764389377170133
 30
0.0
 10
-28.335479736328121
 20
-69.764389377170133
 30
0.0
 10
-28.335479736328121
 20
-70.428948296440964
 30
0.0
 10
-27.798561604817706
 20
-70.966038682725681
 30
0.0
 10
-27.1348639594184
 20
-70.966038682725681
 30
0.0
 10
-27.1348639594184
 20
-70.966038682725681
 30
0.0
 10
-20.368696424696179
 20
-70.966038682725681
 30
0.0
 10
-20.368696424696179
 20
-70.966038682725681
 30
0.0
 10
-19.707238091362846
 20
-70.966038682725681
 30
0.0
 10
-19.172214762369791
 20
-70.428948296440964
 30
0.0
 10
-19.172214762369791
 20
-69.764389377170133
 30
0.0
 10
-19.172214762369791
 20
-69.764389377170133
 30
0.0
 10
-19.172214762369791
 20
-69.675850423177081
 30
0.0
 10
-19.172214762369791
 20
-69.675850423177081
 30
0.0
 10
-19.172214762369791
 20
-69.675850423177081
 30
0.0
 10
-28.335479736328121
 20
-69.675850423177081
 30
0.0
 10
-28.335479736328121
 20
-69.675850423177081
 30
0.0
  0
SPLINE
  5
3D
100
AcDbEntity
  8
LIVELLO_1
 62
     7
100
AcDbSpline
210
0.0
220
0.0
230
1.0
 70
     8
 71
     3
 72
    20
 73
    16
 74
     0
 42
0.00000001
 43
0.00000001
 40
0.0
 40
0.0
 40
0.0
 40
0.0
 40
1.0
 40
1.0
 40
1.0
 40
2.0
 40
2.0
 40
2.0
 40
3.0
 40
3.0
 40
3.0
 40
4.0
 40
4.0
 40
4.0
 40
5.0
 40
5.0
 40
5.0
 40
5.0
 10
4.1214538574218746
 20
-5.0479261610243054
 30
0.0
 10
4.1214538574218746
 20
-5.0479261610243054
 30
0.0
 10
4.1214538574218746
 20
-80.099675835503461
 30
0.0
 10
4.1214538574218746
 20
-80.099675835503461
 30
0.0
 10
4.1214538574218746
 20
-80.379417588975684
 30
0.0
 10
3.889943440755208
 20
-80.609894476996516
 30
0.0
 10
3.6081346299913193
 20
-80.609894476996516
 30
0.0
 10
3.6081346299913193
 20
-80.609894476996516
 30
0.0
 10
-36.429903835720481
 20
-80.609894476996516
 30
0.0
 10
-36.429903835720481
 20
-80.609894476996516
 30
0.0
 10
-36.710851372612844
 20
-80.609894476996516
 30
0.0
 10
-36.940294731987841
 20
-80.379417588975684
 30
0.0
 10
-36.940294731987841
 20
-80.099675835503461
 30
0.0
 10
-36.940294731987841
 20
-80.099675835503461
 30
0.0
 10
-36.940294731987841
 20
-5.0479261610243054
 30
0.0
 10
-36.940294731987841
 20
-5.0479261610243054
 30
0.0
  0
SPLINE
  5
3C
100
AcDbEntity
  8
LIVELLO_1
 62
     7
100
AcDbSpline
210
0.0
220
0.0
230
1.0
 70
     8
 71
     3
 72
    20
 73
    16
 74
     0
 42
0.00000001
 43
0.00000001
 40
0.0
 40
0.0
 40
0.0
 40
0.0
 40
1.0
 40
1.0
 40
1.0
 40
2.0
 40
2.0
 40
2.0
 40
3.0
 40
3.0
 40
3.0
 40
4.0
 40
4.0
 40
4.0
 40
5.0
 40
5.0
 40
5.0
 40
5.0
 10
-36.061623128255206
 20
-6.4223470052083327
 30
0.0
 10
-36.343604193793396
 20
-6.4223470052083327
 30
0.0
 10
-36.572014024522566
 20
-6.194109429253472
 30
0.0
 10
-36.572014024522566
 20
-5.9100613064236107
 30
0.0
 10
-36.572014024522566
 20
-5.9100613064236107
 30
0.0
 10
-36.574081081814235
 20
-5.0479261610243054
 30
0.0
 10
-36.574081081814235
 20
-5.0479261610243054
 30
0.0
 10
-36.574081081814235
 20
-5.0479261610243054
 30
0.0
 10
-19.618699137369791
 20
-5.0479261610243054
 30
0.0
 10
-19.618699137369791
 20
-5.0479261610243054
 30
0.0
 10
-19.618699137369791
 20
-5.0479261610243054
 30
0.0
 10
-19.294687906901039
 20
-6.4223470052083327
 30
0.0
 10
-19.294687906901039
 20
-6.4223470052083327
 30
0.0
 10
-19.294687906901039
 20
-6.4223470052083327
 30
0.0
 10
-36.061623128255206
 20
-6.4223470052083327
 30
0.0
 10
-36.061623128255206
 20
-6.4223470052083327
 30
0.0
  0
SPLINE
  5
3B
100
AcDbEntity
  8
LIVELLO_1
 62
     7
100
AcDbSpline
210
0.0
220
0.0
230
1.0
 70
     8
 71
     3
 72
    20
 73
    16
 74
     0
 42
0.00000001
 43
0.00000001
 40
0.0
 40
0.0
 40
0.0
 40
0.0
 40
1.0
 40
1.0
 40
1.0
 40
2.0
 40
2.0
 40
2.0
 40
3.0
 40
3.0
 40
3.0
 40
4.0
 40
4.0
 40
4.0
 40
5.0
 40
5.0
 40
5.0
 40
5.0
 10
-13.222707112630207
 20
-5.0479261610243054
 30
0.0
 10
-13.222707112630207
 20
-5.0479261610243054
 30
0.0
 10
3.9002787272135415
 20
-5.0479261610243054
 30
0.0
 10
3.9002787272135415
 20
-5.0479261610243054
 30
0.0
 10
3.9002787272135415
 20
-5.0479261610243054
 30
0.0
 10
3.9002787272135415
 20
-5.9100613064236107
 30
0.0
 10
3.9002787272135415
 20
-5.9100613064236107
 30
0.0
 10
3.9002787272135415
 20
-6.194109429253472
 30
0.0
 10
3.6749694824218748
 20
-6.4223470052083327
 30
0.0
 10
3.3910936143663193
 20
-6.4223470052083327
 30
0.0
 10
3.3910936143663193
 20
-6.4223470052083327
 30
0.0
 10
-13.544823540581596
 20
-6.4223470052083327
 30
0.0
 10
-13.544823540581596
 20
-6.4223470052083327
 30
0.0
 10
-13.544823540581596
 20
-6.4223470052083327
 30
0.0
 10
-13.222707112630207
 20
-5.0479261610243054
 30
0.0
 10
-13.222707112630207
 20
-5.0479261610243054
 30
0.0
  0
SPLINE
  5
3A
100
AcDbEntity
  8
LIVELLO_1
 62
     7
100
AcDbSpline
210
0.0
220
0.0
230
1.0
 70
     8
 71
     3
 72
    14
 73
    10
 74
     0
 42
0.00000001
 43
0.00000001
 40
0.0
 40
0.0
 40
0.0
 40
0.0
 40
1.0
 40
1.0
 40
1.0
 40
2.0
 40
2.0
 40
2.0
 40
3.0
 40
3.0
 40
3.0
 40
3.0
 10
-37.896997748480899
 20
4.6019585503472218
 30
0.0
 10
-36.268501112196176
 20
11.122318522135416
 30
0.0
 10
-26.601046413845484
 20
13.070864529079859
 30
0.0
 10
-16.412004258897568
 20
13.070864529079859
 30
0.0
 10
-6.2208950466579855
 20
13.070864529079859
 30
0.0
 10
3.4475931803385413
 20
11.122318522135416
 30
0.0
 10
5.074022759331597
 20
4.6019585503472218
 30
0.0
 10
5.074022759331597
 20
4.6019585503472218
 30
0.0
 10
-37.896997748480899
 20
4.6019585503472218
 30
0.0
 10
-37.896997748480899
 20
4.6019585503472218
 30
0.0
  0
MTEXT
  5
39
100
AcDbEntity
  8
LIVELLO_1
 62
     7
100
AcDbMText
 10
22.316381
 20
-28.262885
 30
0.0
 40
10.698217
 41
0.0
 71
     1
 72
     2
  1
\fCourier|b0|i0;\H10.6982;\C7;\U+0032\U+0033\U+0033
  7
STD
210
0.0
220
0.0
230
1.0
 73
     1
 44
1.0
  0
LINE
  5
38
100
AcDbEntity
  8
LIVELLO_1
 62
     7
100
AcDbLine
 10
27.481957
 20
13.079133
 30
0.0
 11
37.156474
 21
13.079133
 31
0.0
  0
MTEXT
  5
37
100
AcDbEntity
  8
LIVELLO_1
 62
     7
100
AcDbMText
 10
38.563796
 20
14.169274
 30
0.0
 40
10.397067
 41
0.0
 71
     1
 72
     2
  1
\fCourier|b0|i0;\H10.3971;\C7;\U+0033\U+0036
  7
STD
210
0.0
220
0.0
230
1.0
 73
     1
 44
1.0
  0
LINE
  5
36
100
AcDbEntity
  8
LIVELLO_1
 62
     7
100
AcDbLine
 10
32.321283
 20
2.192631
 30
0.0
 11
32.321283
 21
13.079133
 31
0.0
  0
LINE
  5
35
100
AcDbEntity
  8
LIVELLO_1
 62
     7
100
AcDbLine
 10
8.984551
 20
2.192631
 30
0.0
 11
20.381271
 21
2.192631
 31
0.0
  0
LINE
  5
34
100
AcDbEntity
  8
LIVELLO_1
 62
     7
100
AcDbLine
 10
-53.117774
 20
2.192631
 30
0.0
 11
-41.721054
 21
2.192631
 31
0.0
  0
SPLINE
  5
33
100
AcDbEntity
  8
LIVELLO_1
 62
     7
100
AcDbSpline
210
0.0
220
0.0
230
1.0
 70
     8
 71
     3
 72
    14
 73
    10
 74
     0
 42
0.00000001
 43
0.00000001
 40
0.0
 40
0.0
 40
0.0
 40
0.0
 40
1.0
 40
1.0
 40
1.0
 40
2.0
 40
2.0
 40
2.0
 40
3.0
 40
3.0
 40
3.0
 40
3.0
 10
5.7838846842447911
 20
4.6122938368055548
 30
0.0
 10
5.7838846842447911
 20
4.6122938368055548
 30
0.0
 10
5.8579542371961804
 20
2.1926310221354166
 30
0.0
 10
5.8579542371961804
 20
2.1926310221354166
 30
0.0
 10
5.8579542371961804
 20
2.1926310221354166
 30
0.0
 10
10.765320502387151
 20
2.1926310221354166
 30
0.0
 10
10.765320502387151
 20
2.1926310221354166
 30
0.0
 10
10.765320502387151
 20
2.1926310221354166
 30
0.0
 10
11.860860866970485
 20
4.6122938368055548
 30
0.0
 10
5.7838846842447911
 20
4.6122938368055548
 30
0.0
  0
SPLINE
  5
32
100
AcDbEntity
  8
LIVELLO_1
 62
     7
100
AcDbSpline
210
0.0
220
0.0
230
1.0
 70
     8
 71
     3
 72
    14
 73
    10
 74
     0
 42
0.00000001
 43
0.00000001
 40
0.0
 40
0.0
 40
0.0
 40
0.0
 40
1.0
 40
1.0
 40
1.0
 40
2.0
 40
2.0
 40
2.0
 40
3.0
 40
3.0
 40
3.0
 40
3.0
 10
-38.669560411241314
 20
4.6122938368055548
 30
0.0
 10
-38.669560411241314
 20
4.6122938368055548
 30
0.0
 10
-38.604792616102429
 20
2.1926310221354166
 30
0.0
 10
-38.604792616102429
 20
2.1926310221354166
 30
0.0
 10
-38.604792616102429
 20
2.1926310221354166
 30
0.0
 10
-43.583127848307285
 20
2.1926310221354166
 30
0.0
 10
-43.583127848307285
 20
2.1926310221354166
 30
0.0
 10
-43.583127848307285
 20
2.1926310221354166
 30
0.0
 10
-44.744641791449652
 20
4.6122938368055548
 30
0.0
 10
-38.669560411241314
 20
4.6122938368055548
 30
0.0
  0
POLYLINE
  5
2C
100
AcDbEntity
  8
LIVELLO_1
 62
     7
100
AcDb2dPolyline
 66
     1
 10
0.0
 20
0.0
 30
0.0
 70
     1
  0
VERTEX
  5
2D
100
AcDbEntity
  8
LIVELLO_1
 62
     7
100
AcDbVertex
100
AcDb2dVertex
 10
4.191389
 20
0.579465
 30
0.0
  0
VERTEX
  5
2E
100
AcDbEntity
  8
LIVELLO_1
 62
     7
100
AcDbVertex
100
AcDb2dVertex
 10
5.480544
 20
0.579465
 30
0.0
  0
VERTEX
  5
2F
100
AcDbEntity
  8
LIVELLO_1
 62
     7
100
AcDbVertex
100
AcDb2dVertex
 10
5.480544
 20
2.371604
 30
0.0
  0
VERTEX
  5
30
100
AcDbEntity
  8
LIVELLO_1
 62
     7
100
AcDbVertex
100
AcDb2dVertex
 10
4.191389
 20
2.371604
 30
0.0
  0
SEQEND
  5
31
100
AcDbEntity
  8
LIVELLO_1
 62
     7
  0
ENDBLK
  5
11B
100
AcDbEntity
  8
LIVELLO_1
100
AcDbBlockEnd
  0
BLOCK
  5
84
100
AcDbEntity
  8
LIVELLO_1
 62
     7
100
AcDbBlockBegin
  2
AI9-BLK2
 70
     0
 10
0.0
 20
0.0
 30
0.0
  3
AI9-BLK2
  1

  0
POLYLINE
  5
F2
100
AcDbEntity
  8
LIVELLO_1
 62
     7
100
AcDb2dPolyline
 66
     1
 10
0.0
 20
0.0
 30
0.0
 70
     1
  0
VERTEX
  5
F3
100
AcDbEntity
  8
LIVELLO_1
 62
     7
100
AcDbVertex
100
AcDb2dVertex
 10
24.060288
 20
-0.394291
 30
0.0
  0
VERTEX
  5
F4
100
AcDbEntity
  8
LIVELLO_1
 62
     7
100
AcDbVertex
100
AcDb2dVertex
 10
23.086015
 20
-1.15738
 30
0.0
  0
VERTEX
  5
F5
100
AcDbEntity
  8
LIVELLO_1
 62
     7
100
AcDbVertex
100
AcDb2dVertex
 10
22.841069
 20
-2.680112
 30
0.0
  0
VERTEX
  5
F6
100
AcDbEntity
  8
LIVELLO_1
 62
     7
100
AcDbVertex
100
AcDb2dVertex
 10
24.060288
 20
-3.439411
 30
0.0
  0
VERTEX
  5
F7
100
AcDbEntity
  8
LIVELLO_1
 62
     7
100
AcDbVertex
100
AcDb2dVertex
 10
24.545875
 20
-1.535996
 30
0.0
  0
SEQEND
  5
F8
100
AcDbEntity
  8
LIVELLO_1
 62
     7
  0
SPLINE
  5
F1
100
AcDbEntity
  8
LIVELLO_1
 62
     7
100
AcDbSpline
210
0.0
220
0.0
230
1.0
 70
     8
 71
     3
 72
    17
 73
    13
 74
     0
 42
0.00000001
 43
0.00000001
 40
0.0
 40
0.0
 40
0.0
 40
0.0
 40
1.0
 40
1.0
 40
1.0
 40
2.0
 40
2.0
 40
2.0
 40
3.0
 40
3.0
 40
3.0
 40
4.0
 40
4.0
 40
4.0
 40
4.0
 10
20.753685845269096
 20
-12.212691243489582
 30
0.0
 10
21.463547770182291
 20
-12.546176486545138
 30
0.0
 10
22.053003607855899
 20
-14.980136447482638
 30
0.0
 10
22.799900309244791
 20
-14.980136447482638
 30
0.0
 10
23.790709771050345
 20
-14.980136447482638
 30
0.0
 10
24.642509629991316
 20
-13.819828287760416
 30
0.0
 10
24.642509629991316
 20
-12.26436767578125
 30
0.0
 10
24.642509629991316
 20
-11.766206868489583
 30
0.0
 10
24.604441324869789
 20
-11.490599229600694
 30
0.0
 10
24.642509629991316
 20
-10.992782931857638
 30
0.0
 10
22.973877631293401
 20
-10.992782931857638
 30
0.0
 10
20.898724365234372
 20
-9.6099216037326372
 30
0.0
 10
20.753685845269096
 20
-12.212691243489582
 30
0.0
  0
SPLINE
  5
F0
100
AcDbEntity
  8
LIVELLO_1
 62
     7
100
AcDbSpline
210
0.0
220
0.0
230
1.0
 70
     8
 71
     3
 72
    17
 73
    13
 74
     0
 42
0.00000001
 43
0.00000001
 40
0.0
 40
0.0
 40
0.0
 40
0.0
 40
1.0
 40
1.0
 40
1.0
 40
2.0
 40
2.0
 40
2.0
 40
3.0
 40
3.0
 40
3.0
 40
4.0
 40
4.0
 40
4.0
 40
4.0
 10
26.240172661675345
 20
14.841988118489581
 30
0.0
 10
25.28346964518229
 20
14.397570800781249
 30
0.0
 10
24.290593126085067
 20
13.566269259982638
 30
0.0
 10
24.290593126085067
 20
11.959476725260416
 30
0.0
 10
24.290593126085067
 20
11.292850748697916
 30
0.0
 10
24.715545654296871
 20
10.739223904079861
 30
0.0
 10
25.14153171115451
 20
10.739223904079861
 30
0.0
 10
26.488219536675345
 20
10.739223904079861
 30
0.0
 10
27.906909857855901
 20
11.848200141059026
 30
0.0
 10
27.906909857855901
 20
13.953153483072915
 30
0.0
 10
27.906909857855901
 20
15.451081000434026
 30
0.0
 10
26.240172661675345
 20
14.841988118489581
 30
0.0
 10
26.240172661675345
 20
14.841988118489581
 30
0.0
  0
SPLINE
  5
EF
100
AcDbEntity
  8
LIVELLO_1
 62
     7
100
AcDbSpline
210
0.0
220
0.0
230
1.0
 70
     8
 71
     3
 72
    26
 73
    22
 74
     0
 42
0.00000001
 43
0.00000001
 40
0.0
 40
0.0
 40
0.0
 40
0.0
 40
1.0
 40
1.0
 40
1.0
 40
2.0
 40
2.0
 40
2.0
 40
3.0
 40
3.0
 40
3.0
 40
4.0
 40
4.0
 40
4.0
 40
5.0
 40
5.0
 40
5.0
 40
6.0
 40
6.0
 40
6.0
 40
7.0
 40
7.0
 40
7.0
 40
7.0
 10
26.135269504123261
 20
7.8791056315104155
 30
0.0
 10
26.135269504123261
 20
7.8791056315104155
 30
0.0
 10
24.915188937717012
 20
7.4987670898437493
 30
0.0
 10
24.915188937717012
 20
7.4987670898437493
 30
0.0
 10
24.915188937717012
 20
7.4987670898437493
 30
0.0
 10
24.670242648654511
 20
5.9760348849826386
 30
0.0
 10
24.670242648654511
 20
5.9760348849826386
 30
0.0
 10
25.280369059244791
 20
5.8792277018229164
 30
0.0
 10
25.6465827094184
 20
5.5953518337673609
 30
0.0
 10
26.255675591362845
 20
5.5953518337673609
 30
0.0
 10
26.923335096571179
 20
5.5953518337673609
 30
0.0
 10
27.107475450303816
 20
6.6405938042534718
 30
0.0
 10
27.595128716362844
 20
7.1201510959201384
 30
0.0
 10
27.595128716362844
 20
7.1201510959201384
 30
0.0
 10
27.595128716362844
 20
8.7372789171006939
 30
0.0
 10
27.595128716362844
 20
8.7372789171006939
 30
0.0
 10
27.595128716362844
 20
8.7372789171006939
 30
0.0
 10
26.620855712890624
 20
9.5007120768229161
 30
0.0
 10
26.620855712890624
 20
9.5007120768229161
 30
0.0
 10
26.620855712890624
 20
9.5007120768229161
 30
0.0
 10
26.135269504123261
 20
7.8791056315104155
 30
0.0
 10
26.135269504123261
 20
7.8791056315104155
 30
0.0
  0
SPLINE
  5
EE
100
AcDbEntity
  8
LIVELLO_1
 62
     7
100
AcDbSpline
210
0.0
220
0.0
230
1.0
 70
     8
 71
     3
 72
    23
 73
    19
 74
     0
 42
0.00000001
 43
0.00000001
 40
0.0
 40
0.0
 40
0.0
 40
0.0
 40
1.0
 40
1.0
 40
1.0
 40
2.0
 40
2.0
 40
2.0
 40
3.0
 40
3.0
 40
3.0
 40
4.0
 40
4.0
 40
4.0
 40
5.0
 40
5.0
 40
5.0
 40
6.0
 40
6.0
 40
6.0
 40
6.0
 10
21.930702718098956
 20
-6.9206800672743052
 30
0.0
 10
21.930702718098956
 20
-6.9206800672743052
 30
0.0
 10
21.198103162977429
 20
-8.44134521484375
 30
0.0
 10
21.198103162977429
 20
-8.44134521484375
 30
0.0
 10
21.991336398654511
 20
-8.9205579969618043
 30
0.0
 10
22.418355984157984
 20
-9.5854614257812489
 30
0.0
 10
23.271189371744789
 20
-9.5854614257812489
 30
0.0
 10
24.124022759331595
 20
-9.5854614257812489
 30
0.0
 10
23.891478814019095
 20
-9.2027113172743054
 30
0.0
 10
24.744312201605901
 20
-9.2027113172743054
 30
0.0
 10
24.80408460828993
 20
-8.3466050889756929
 30
0.0
 10
25.643482123480901
 20
-8.2539320203993043
 30
0.0
 10
25.643482123480901
 20
-7.3961032443576382
 30
0.0
 10
25.643482123480901
 20
-5.2046780056423607
 30
0.0
 10
23.817409261067706
 20
-4.7295993381076382
 30
0.0
 10
22.418355984157984
 20
-4.9208021375868052
 30
0.0
 10
22.418355984157984
 20
-4.9208021375868052
 30
0.0
 10
21.930702718098956
 20
-6.9206800672743052
 30
0.0
 10
21.930702718098956
 20
-6.9206800672743052
 30
0.0
  0
SPLINE
  5
ED
100
AcDbEntity
  8
LIVELLO_1
 62
     7
100
AcDbSpline
210
0.0
220
0.0
230
1.0
 70
     8
 71
     3
 72
    17
 73
    13
 74
     0
 42
0.00000001
 43
0.00000001
 40
0.0
 40
0.0
 40
0.0
 40
0.0
 40
1.0
 40
1.0
 40
1.0
 40
2.0
 40
2.0
 40
2.0
 40
3.0
 40
3.0
 40
3.0
 40
4.0
 40
4.0
 40
4.0
 40
4.0
 10
27.919139946831596
 20
-9.4311211480034718
 30
0.0
 10
26.679422336154513
 20
-9.4845201280381932
 30
0.0
 10
25.12189466688368
 20
-9.9844034830729154
 30
0.0
 10
25.12189466688368
 20
-11.924681260850694
 30
0.0
 10
25.12189466688368
 20
-14.083033582899304
 30
0.0
 10
26.925402153862844
 20
-14.251843261718749
 30
0.0
 10
28.309124755859372
 20
-14.251843261718749
 30
0.0
 10
29.124751112196179
 20
-14.251843261718749
 30
0.0
 10
29.405870903862844
 20
-12.753915744357638
 30
0.0
 10
29.405870903862844
 20
-11.48026394314236
 30
0.0
 10
29.405870903862844
 20
-10.482219780815971
 30
0.0
 10
28.554932318793401
 20
-9.3753106011284721
 30
0.0
 10
27.919139946831596
 20
-9.4311211480034718
 30
0.0
  0
SPLINE
  5
EC
100
AcDbEntity
  8
LIVELLO_1
 62
     7
100
AcDbSpline
210
0.0
220
0.0
230
1.0
 70
     8
 71
     3
 72
    20
 73
    16
 74
     0
 42
0.00000001
 43
0.00000001
 40
0.0
 40
0.0
 40
0.0
 40
0.0
 40
1.0
 40
1.0
 40
1.0
 40
2.0
 40
2.0
 40
2.0
 40
3.0
 40
3.0
 40
3.0
 40
4.0
 40
4.0
 40
4.0
 40
5.0
 40
5.0
 40
5.0
 40
5.0
 10
25.97989569769965
 20
-2.359029134114583
 30
0.0
 10
26.101335313585068
 20
-5.1202731662326384
 30
0.0
 10
26.147671847873262
 20
-7.9125230577256938
 30
0.0
 10
27.915005832248262
 20
-7.9125230577256938
 30
0.0
 10
29.133019341362843
 20
-7.9125230577256938
 30
0.0
 10
29.680445014105899
 20
-6.3918579101562498
 30
0.0
 10
30.350171576605899
 20
-4.8674031575520829
 30
0.0
 10
30.350171576605899
 20
-4.8674031575520829
 30
0.0
 10
29.005550808376732
 20
-2.359029134114583
 30
0.0
 10
29.005550808376732
 20
-2.359029134114583
 30
0.0
 10
27.725697835286457
 20
-2.0730862087673607
 30
0.0
 10
28.84914347330729
 20
-0.9951158311631944
 30
0.0
 10
27.629062906901041
 20
-0.4228854709201388
 30
0.0
 10
27.629062906901041
 20
-0.4228854709201388
 30
0.0
 10
25.97989569769965
 20
-2.359029134114583
 30
0.0
 10
25.97989569769965
 20
-2.359029134114583
 30
0.0
  0
SPLINE
  5
EB
100
AcDbEntity
  8
LIVELLO_1
 62
     7
100
AcDbSpline
210
0.0
220
0.0
230
1.0
 70
     8
 71
     3
 72
    14
 73
    10
 74
     0
 42
0.00000001
 43
0.00000001
 40
0.0
 40
0.0
 40
0.0
 40
0.0
 40
1.0
 40
1.0
 40
1.0
 40
2.0
 40
2.0
 40
2.0
 40
3.0
 40
3.0
 40
3.0
 40
3.0
 10
27.185679117838539
 20
2.054482693142361
 30
0.0
 10
27.609598117404513
 20
1.8629353841145833
 30
0.0
 10
27.915005832248262
 20
1.2910495334201388
 30
0.0
 10
28.401625569661455
 20
1.2910495334201388
 30
0.0
 10
29.680445014105899
 20
1.2910495334201388
 30
0.0
 10
31.319276936848954
 20
3.4473347981770832
 30
0.0
 10
31.459147813585066
 20
6.0252997504340273
 30
0.0
 10
28.594034152560763
 20
7.7475029839409713
 30
0.0
 10
27.975811767578122
 20
4.1508232964409721
 30
0.0
 10
27.185679117838539
 20
2.054482693142361
 30
0.0
  0
SPLINE
  5
EA
100
AcDbEntity
  8
LIVELLO_1
 62
     7
100
AcDbSpline
210
0.0
220
0.0
230
1.0
 70
     8
 71
     3
 72
    17
 73
    13
 74
     0
 42
0.00000001
 43
0.00000001
 40
0.0
 40
0.0
 40
0.0
 40
0.0
 40
1.0
 40
1.0
 40
1.0
 40
2.0
 40
2.0
 40
2.0
 40
3.0
 40
3.0
 40
3.0
 40
4.0
 40
4.0
 40
4.0
 40
4.0
 10
16.65608927408854
 20
-9.3649753146701382
 30
0.0
 10
17.366984727647569
 20
-9.6984605577256939
 30
0.0
 10
17.824837917751733
 20
-10.03194580078125
 30
0.0
 10
18.571734619140624
 20
-10.03194580078125
 30
0.0
 10
19.560304768880208
 20
-10.03194580078125
 30
0.0
 10
20.413138156467014
 20
-8.8650919596354161
 30
0.0
 10
20.413138156467014
 20
-7.3158325195312495
 30
0.0
 10
20.413138156467014
 20
-6.8180162217881941
 30
0.0
 10
20.378170437282986
 20
-6.5379299587673607
 30
0.0
 10
20.413138156467014
 20
-6.0401136610243054
 30
0.0
 10
18.747606743706594
 20
-6.0401136610243054
 30
0.0
 10
16.798027208116316
 20
-6.7622056749131936
 30
0.0
 10
16.65608927408854
 20
-9.3649753146701382
 30
0.0
  0
SPLINE
  5
E9
100
AcDbEntity
  8
LIVELLO_1
 62
     7
100
AcDbSpline
210
0.0
220
0.0
230
1.0
 70
     8
 71
     3
 72
    20
 73
    16
 74
     0
 42
0.00000001
 43
0.00000001
 40
0.0
 40
0.0
 40
0.0
 40
0.0
 40
1.0
 40
1.0
 40
1.0
 40
2.0
 40
2.0
 40
2.0
 40
3.0
 40
3.0
 40
3.0
 40
4.0
 40
4.0
 40
4.0
 40
5.0
 40
5.0
 40
5.0
 40
5.0
 10
20.947127956814235
 20
8.2515204535590279
 30
0.0
 10
20.947127956814235
 20
8.2515204535590279
 30
0.0
 10
17.786769612630206
 20
7.9142456054687491
 30
0.0
 10
17.786769612630206
 20
7.9142456054687491
 30
0.0
 10
17.849470350477429
 20
6.7763305664062496
 30
0.0
 10
17.883404541015622
 20
6.2085788302951386
 30
0.0
 10
17.946105278862845
 20
5.0685967339409714
 30
0.0
 10
18.207415771484374
 20
0.4184068467881944
 30
0.0
 10
22.043874104817707
 20
0.6592190212673611
 30
0.0
 10
25.039556884765624
 20
0.6860907660590278
 30
0.0
 10
24.857483588324651
 20
3.9103556315104164
 30
0.0
 10
23.735071478949649
 20
6.5296617296006936
 30
0.0
 10
21.738294135199652
 20
7.2124796549479164
 30
0.0
 10
21.738294135199652
 20
7.2124796549479164
 30
0.0
 10
20.947127956814235
 20
8.2515204535590279
 30
0.0
 10
20.947127956814235
 20
8.2515204535590279
 30
0.0
  0
SPLINE
  5
E8
100
AcDbEntity
  8
LIVELLO_1
 62
     7
100
AcDbSpline
210
0.0
220
0.0
230
1.0
 70
     8
 71
     3
 72
    17
 73
    13
 74
     0
 42
0.00000001
 43
0.00000001
 40
0.0
 40
0.0
 40
0.0
 40
0.0
 40
1.0
 40
1.0
 40
1.0
 40
2.0
 40
2.0
 40
2.0
 40
3.0
 40
3.0
 40
3.0
 40
4.0
 40
4.0
 40
4.0
 40
4.0
 10
19.846419949001735
 20
14.963599989149305
 30
0.0
 10
18.64167005750868
 20
14.963599989149305
 30
0.0
 10
17.469820827907984
 20
13.68788113064236
 30
0.0
 10
17.469820827907984
 20
11.805136447482639
 30
0.0
 10
17.469820827907984
 20
9.9757907443576386
 30
0.0
 10
18.95948011610243
 20
9.4759073893229164
 30
0.0
 10
20.130295817057291
 20
9.4759073893229164
 30
0.0
 10
21.758792453342011
 20
9.4759073893229164
 30
0.0
 10
23.887344699435761
 20
10.031601291232638
 30
0.0
 10
23.887344699435761
 20
12.578904893663193
 30
0.0
 10
23.887344699435761
 20
15.016998969184026
 30
0.0
 10
21.408081732855901
 20
14.796857367621527
 30
0.0
 10
19.846419949001735
 20
14.963599989149305
 30
0.0
  0
POLYLINE
  5
E1
100
AcDbEntity
  8
LIVELLO_1
 62
     7
100
AcDb2dPolyline
 66
     1
 10
0.0
 20
0.0
 30
0.0
 70
     1
  0
VERTEX
  5
E2
100
AcDbEntity
  8
LIVELLO_1
 62
     7
100
AcDbVertex
100
AcDb2dVertex
 10
-12.149732
 20
14.062363
 30
0.0
  0
VERTEX
  5
E3
100
AcDbEntity
  8
LIVELLO_1
 62
     7
100
AcDbVertex
100
AcDb2dVertex
 10
-13.122972
 20
13.300997
 30
0.0
  0
VERTEX
  5
E4
100
AcDbEntity
  8
LIVELLO_1
 62
     7
100
AcDbVertex
100
AcDb2dVertex
 10
-13.367918
 20
11.778265
 30
0.0
  0
VERTEX
  5
E5
100
AcDbEntity
  8
LIVELLO_1
 62
     7
100
AcDbVertex
100
AcDb2dVertex
 10
-12.149732
 20
11.014832
 30
0.0
  0
VERTEX
  5
E6
100
AcDbEntity
  8
LIVELLO_1
 62
     7
100
AcDbVertex
100
AcDb2dVertex
 10
-11.663112
 20
12.920314
 30
0.0
  0
SEQEND
  5
E7
100
AcDbEntity
  8
LIVELLO_1
 62
     7
  0
POLYLINE
  5
DA
100
AcDbEntity
  8
LIVELLO_1
 62
     7
100
AcDb2dPolyline
 66
     1
 10
0.0
 20
0.0
 30
0.0
 70
     1
  0
VERTEX
  5
DB
100
AcDbEntity
  8
LIVELLO_1
 62
     7
100
AcDbVertex
100
AcDb2dVertex
 10
-23.37058
 20
0.515214
 30
0.0
  0
VERTEX
  5
DC
100
AcDbEntity
  8
LIVELLO_1
 62
     7
100
AcDbVertex
100
AcDb2dVertex
 10
-22.44161
 20
-0.377755
 30
0.0
  0
VERTEX
  5
DD
100
AcDbEntity
  8
LIVELLO_1
 62
     7
100
AcDbVertex
100
AcDb2dVertex
 10
-22.284342
 20
-1.931148
 30
0.0
  0
VERTEX
  5
DE
100
AcDbEntity
  8
LIVELLO_1
 62
     7
100
AcDbVertex
100
AcDb2dVertex
 10
-23.541457
 20
-2.519571
 30
0.0
  0
VERTEX
  5
DF
100
AcDbEntity
  8
LIVELLO_1
 62
     7
100
AcDbVertex
100
AcDb2dVertex
 10
-23.918006
 20
-0.558622
 30
0.0
  0
SEQEND
  5
E0
100
AcDbEntity
  8
LIVELLO_1
 62
     7
  0
POLYLINE
  5
D3
100
AcDbEntity
  8
LIVELLO_1
 62
     7
100
AcDb2dPolyline
 66
     1
 10
0.0
 20
0.0
 30
0.0
 70
     1
  0
VERTEX
  5
D4
100
AcDbEntity
  8
LIVELLO_1
 62
     7
100
AcDbVertex
100
AcDb2dVertex
 10
-2.177731
 20
-9.307442
 30
0.0
  0
VERTEX
  5
D5
100
AcDbEntity
  8
LIVELLO_1
 62
     7
100
AcDbVertex
100
AcDb2dVertex
 10
-3.154071
 20
-10.068808
 30
0.0
  0
VERTEX
  5
D6
100
AcDbEntity
  8
LIVELLO_1
 62
     7
100
AcDbVertex
100
AcDb2dVertex
 10
-3.39695
 20
-11.593608
 30
0.0
  0
VERTEX
  5
D7
100
AcDbEntity
  8
LIVELLO_1
 62
     7
100
AcDbVertex
100
AcDb2dVertex
 10
-2.177731
 20
-12.356696
 30
0.0
  0
VERTEX
  5
D8
100
AcDbEntity
  8
LIVELLO_1
 62
     7
100
AcDbVertex
100
AcDb2dVertex
 10
-1.693178
 20
-10.449491
 30
0.0
  0
SEQEND
  5
D9
100
AcDbEntity
  8
LIVELLO_1
 62
     7
  0
SPLINE
  5
D2
100
AcDbEntity
  8
LIVELLO_1
 62
     7
100
AcDbSpline
210
0.0
220
0.0
230
1.0
 70
     8
 71
     3
 72
    17
 73
    13
 74
     0
 42
0.00000001
 43
0.00000001
 40
0.0
 40
0.0
 40
0.0
 40
0.0
 40
1.0
 40
1.0
 40
1.0
 40
2.0
 40
2.0
 40
2.0
 40
3.0
 40
3.0
 40
3.0
 40
4.0
 40
4.0
 40
4.0
 40
4.0
 10
-6.6899447970920134
 20
3.6037421332465276
 30
0.0
 10
-6.6899447970920134
 20
3.6037421332465276
 30
0.0
 10
-5.9010179307725688
 20
3.4945326063368052
 30
0.0
 10
-5.9010179307725688
 20
3.4945326063368052
 30
0.0
 10
-5.9010179307725688
 20
3.4945326063368052
 30
0.0
 10
-6.3125345865885407
 20
0.4924763997395833
 30
0.0
 10
-6.3125345865885407
 20
0.4924763997395833
 30
0.0
 10
-6.8289543999565963
 20
1.136709255642361
 30
0.0
 10
-7.540883382161458
 20
1.5215264214409721
 30
0.0
 10
-7.4842115614149298
 20
2.5647013346354166
 30
0.0
 10
-7.4502773708767354
 20
3.134520128038194
 30
0.0
 10
-6.8372226291232634
 20
3.1469224717881943
 30
0.0
 10
-6.6899447970920134
 20
3.6037421332465276
 30
0.0
  0
POLYLINE
  5
CB
100
AcDbEntity
  8
LIVELLO_1
 62
     7
100
AcDb2dPolyline
 66
     1
 10
0.0
 20
0.0
 30
0.0
 70
     1
  0
VERTEX
  5
CC
100
AcDbEntity
  8
LIVELLO_1
 62
     7
100
AcDbVertex
100
AcDb2dVertex
 10
-25.782147
 20
14.9636
 30
0.0
  0
VERTEX
  5
CD
100
AcDbEntity
  8
LIVELLO_1
 62
     7
100
AcDbVertex
100
AcDb2dVertex
 10
-24.855244
 20
14.072698
 30
0.0
  0
VERTEX
  5
CE
100
AcDbEntity
  8
LIVELLO_1
 62
     7
100
AcDbVertex
100
AcDb2dVertex
 10
-24.693669
 20
12.521027
 30
0.0
  0
VERTEX
  5
CF
100
AcDbEntity
  8
LIVELLO_1
 62
     7
100
AcDbVertex
100
AcDb2dVertex
 10
-25.951818
 20
11.926404
 30
0.0
  0
VERTEX
  5
D0
100
AcDbEntity
  8
LIVELLO_1
 62
     7
100
AcDbVertex
100
AcDb2dVertex
 10
-26.331468
 20
13.891486
 30
0.0
  0
SEQEND
  5
D1
100
AcDbEntity
  8
LIVELLO_1
 62
     7
  0
POLYLINE
  5
C4
100
AcDbEntity
  8
LIVELLO_1
 62
     7
100
AcDb2dPolyline
 66
     1
 10
0.0
 20
0.0
 30
0.0
 70
     1
  0
VERTEX
  5
C5
100
AcDbEntity
  8
LIVELLO_1
 62
     7
100
AcDbVertex
100
AcDb2dVertex
 10
-28.927175
 20
14.9636
 30
0.0
  0
VERTEX
  5
C6
100
AcDbEntity
  8
LIVELLO_1
 62
     7
100
AcDbVertex
100
AcDb2dVertex
 10
-29.901448
 20
14.202234
 30
0.0
  0
VERTEX
  5
C7
100
AcDbEntity
  8
LIVELLO_1
 62
     7
100
AcDbVertex
100
AcDb2dVertex
 10
-30.145188
 20
12.677435
 30
0.0
  0
VERTEX
  5
C8
100
AcDbEntity
  8
LIVELLO_1
 62
     7
100
AcDbVertex
100
AcDb2dVertex
 10
-28.927175
 20
11.916069
 30
0.0
  0
VERTEX
  5
C9
100
AcDbEntity
  8
LIVELLO_1
 62
     7
100
AcDbVertex
100
AcDb2dVertex
 10
-28.439522
 20
13.819484
 30
0.0
  0
SEQEND
  5
CA
100
AcDbEntity
  8
LIVELLO_1
 62
     7
  0
SPLINE
  5
C3
100
AcDbEntity
  8
LIVELLO_1
 62
     7
100
AcDbSpline
210
0.0
220
0.0
230
1.0
 70
     8
 71
     3
 72
    14
 73
    10
 74
     0
 42
0.00000001
 43
0.00000001
 40
0.0
 40
0.0
 40
0.0
 40
0.0
 40
1.0
 40
1.0
 40
1.0
 40
2.0
 40
2.0
 40
2.0
 40
3.0
 40
3.0
 40
3.0
 40
3.0
 10
-22.930297173394095
 20
12.093146430121527
 30
0.0
 10
-22.505516899956596
 20
11.904010687934028
 30
0.0
 10
-22.199936930338538
 20
11.333847384982638
 30
0.0
 10
-21.713317192925345
 20
11.333847384982638
 30
0.0
 10
-20.435531277126735
 20
11.333847384982638
 30
0.0
 10
-19.825577121310761
 20
13.047782389322915
 30
0.0
 10
-19.279184977213539
 20
14.856457519531249
 30
0.0
 10
-20.801744927300344
 20
15.331880696614581
 30
0.0
 10
-22.140164523654512
 20
14.189831542968749
 30
0.0
 10
-22.930297173394095
 20
12.093146430121527
 30
0.0
  0
SPLINE
  5
C2
100
AcDbEntity
  8
LIVELLO_1
 62
     7
100
AcDbSpline
210
0.0
220
0.0
230
1.0
 70
     8
 71
     3
 72
    14
 73
    10
 74
     0
 42
0.00000001
 43
0.00000001
 40
0.0
 40
0.0
 40
0.0
 40
0.0
 40
1.0
 40
1.0
 40
1.0
 40
2.0
 40
2.0
 40
2.0
 40
3.0
 40
3.0
 40
3.0
 40
3.0
 10
-7.540883382161458
 20
11.68180202907986
 30
0.0
 10
-7.9759989420572905
 20
11.549854871961804
 30
0.0
 10
-8.3093119303385414
 20
11.021032714843749
 30
0.0
 10
-8.7959316677517361
 20
11.087178548177082
 30
0.0
 10
-10.069583468967013
 20
11.261844889322916
 30
0.0
 10
-10.580835639105901
 20
13.053983561197915
 30
0.0
 10
-11.026286485460069
 20
14.928460015190971
 30
0.0
 10
-9.4832282172309021
 20
15.19786648220486
 30
0.0
 10
-8.212677001953125
 20
13.874949815538193
 30
0.0
 10
-7.540883382161458
 20
11.68180202907986
 30
0.0
  0
SPLINE
  5
C1
100
AcDbEntity
  8
LIVELLO_1
 62
     7
100
AcDbSpline
210
0.0
220
0.0
230
1.0
 70
     8
 71
     3
 72
    17
 73
    13
 74
     0
 42
0.00000001
 43
0.00000001
 40
0.0
 40
0.0
 40
0.0
 40
0.0
 40
1.0
 40
1.0
 40
1.0
 40
2.0
 40
2.0
 40
2.0
 40
3.0
 40
3.0
 40
3.0
 40
4.0
 40
4.0
 40
4.0
 40
4.0
 10
-17.825526936848956
 20
11.636326768663194
 30
0.0
 10
-17.117732069227429
 20
11.305253092447916
 30
0.0
 10
-16.655744764539929
 20
10.973834906684028
 30
0.0
 10
-15.91194864908854
 20
10.973834906684028
 30
0.0
 10
-14.920277913411457
 20
10.973834906684028
 30
0.0
 10
-14.068478054470486
 20
12.136210123697916
 30
0.0
 10
-14.068478054470486
 20
13.68788113064236
 30
0.0
 10
-14.068478054470486
 20
14.189831542968749
 30
0.0
 10
-14.107579888237845
 20
14.463372124565971
 30
0.0
 10
-14.068478054470486
 20
14.963599989149305
 30
0.0
 10
-15.736076524522568
 20
14.963599989149305
 30
0.0
 10
-17.683589002821179
 20
14.245297580295137
 30
0.0
 10
-17.825526936848956
 20
11.636326768663194
 30
0.0
  0
SPLINE
  5
C0
100
AcDbEntity
  8
LIVELLO_1
 62
     7
100
AcDbSpline
210
0.0
220
0.0
230
1.0
 70
     8
 71
     3
 72
    23
 73
    19
 74
     0
 42
0.00000001
 43
0.00000001
 40
0.0
 40
0.0
 40
0.0
 40
0.0
 40
1.0
 40
1.0
 40
1.0
 40
2.0
 40
2.0
 40
2.0
 40
3.0
 40
3.0
 40
3.0
 40
4.0
 40
4.0
 40
4.0
 40
5.0
 40
5.0
 40
5.0
 40
6.0
 40
6.0
 40
6.0
 40
6.0
 10
15.216900634765624
 20
-1.852944607204861
 30
0.0
 10
15.216900634765624
 20
-1.852944607204861
 30
0.0
 10
15.353670925564234
 20
-3.7808200412326385
 30
0.0
 10
15.353670925564234
 20
-3.7808200412326385
 30
0.0
 10
14.597472466362845
 20
-4.1553019205729163
 30
0.0
 10
14.09655558268229
 20
-4.3713094075520829
 30
0.0
 10
13.348625352647568
 20
-4.6513956705729163
 30
0.0
 10
13.348625352647568
 20
-4.6513956705729163
 30
0.0
 10
12.401051839192707
 20
-4.1408325195312496
 30
0.0
 10
12.401051839192707
 20
-4.1408325195312496
 30
0.0
 10
12.401051839192707
 20
-4.1408325195312496
 30
0.0
 10
11.999870469835068
 20
-2.5567776150173609
 30
0.0
 10
11.999870469835068
 20
-2.5567776150173609
 30
0.0
 10
11.999870469835068
 20
-2.5567776150173609
 30
0.0
 10
13.276622856987846
 20
-1.5856051974826388
 30
0.0
 10
13.276622856987846
 20
-1.5856051974826388
 30
0.0
 10
13.276622856987846
 20
-1.5856051974826388
 30
0.0
 10
14.08105265299479
 20
-1.4105943467881943
 30
0.0
 10
15.216900634765624
 20
-1.852944607204861
 30
0.0
  0
SPLINE
  5
BF
100
AcDbEntity
  8
LIVELLO_1
 62
     7
100
AcDbSpline
210
0.0
220
0.0
230
1.0
 70
     8
 71
     3
 72
    17
 73
    13
 74
     0
 42
0.00000001
 43
0.00000001
 40
0.0
 40
0.0
 40
0.0
 40
0.0
 40
1.0
 40
1.0
 40
1.0
 40
2.0
 40
2.0
 40
2.0
 40
3.0
 40
3.0
 40
3.0
 40
4.0
 40
4.0
 40
4.0
 40
4.0
 10
15.037755669487845
 20
14.949130588107638
 30
0.0
 10
15.75691935221354
 20
13.792612033420138
 30
0.0
 10
16.095399983723958
 20
12.858646647135416
 30
0.0
 10
16.659189860026039
 20
11.500590006510416
 30
0.0
 10
15.881459554036457
 20
10.327879503038194
 30
0.0
 10
15.053258599175345
 20
10.163203938802083
 30
0.0
 10
13.959613037109374
 20
10.311343044704859
 30
0.0
 10
13.076979573567707
 20
10.434677463107638
 30
0.0
 10
12.047068277994791
 20
11.076843261718748
 30
0.0
 10
12.122171359592013
 20
12.455225965711804
 30
0.0
 10
12.215877956814236
 20
14.111627875434026
 30
0.0
 10
13.975115966796874
 20
15.095202636718749
 30
0.0
 10
15.037755669487845
 20
14.949130588107638
 30
0.0
  0
SPLINE
  5
BE
100
AcDbEntity
  8
LIVELLO_1
 62
     7
100
AcDbSpline
210
0.0
220
0.0
230
1.0
 70
     8
 71
     3
 72
    17
 73
    13
 74
     0
 42
0.00000001
 43
0.00000001
 40
0.0
 40
0.0
 40
0.0
 40
0.0
 40
1.0
 40
1.0
 40
1.0
 40
2.0
 40
2.0
 40
2.0
 40
3.0
 40
3.0
 40
3.0
 40
4.0
 40
4.0
 40
4.0
 40
4.0
 10
14.866017659505207
 20
8.3917358398437489
 30
0.0
 10
15.585181342230902
 20
7.2372843424479161
 30
0.0
 10
16.163268364800345
 20
7.2786254882812491
 30
0.0
 10
16.728091769748261
 20
5.9226359049479163
 30
0.0
 10
15.949327935112846
 20
4.7495808919270832
 30
0.0
 10
15.410170491536457
 20
5.6632202148437498
 30
0.0
 10
14.315663655598957
 20
5.8134263780381943
 30
0.0
 10
13.433891465928818
 20
5.9329711914062493
 30
0.0
 10
11.488446044921874
 20
7.0109415690104164
 30
0.0
 10
11.566649712456597
 20
8.3917358398437489
 30
0.0
 10
11.660356309678818
 20
10.045726182725694
 30
0.0
 10
13.807339816623262
 20
8.5357408311631939
 30
0.0
 10
14.866017659505207
 20
8.3917358398437489
 30
0.0
  0
SPLINE
  5
BD
100
AcDbEntity
  8
LIVELLO_1
 62
     7
100
AcDbSpline
210
0.0
220
0.0
230
1.0
 70
     8
 71
     3
 72
    17
 73
    13
 74
     0
 42
0.00000001
 43
0.00000001
 40
0.0
 40
0.0
 40
0.0
 40
0.0
 40
1.0
 40
1.0
 40
1.0
 40
2.0
 40
2.0
 40
2.0
 40
3.0
 40
3.0
 40
3.0
 40
4.0
 40
4.0
 40
4.0
 40
4.0
 10
19.309329562717011
 20
-0.0649400499131944
 30
0.0
 10
20.026426188151039
 20
-1.2235256618923609
 30
0.0
 10
20.366973876953121
 20
-2.157491048177083
 30
0.0
 10
20.929557969835066
 20
-3.5134806315104163
 30
0.0
 10
20.151827663845484
 20
-4.6861911349826384
 30
0.0
 10
19.32379896375868
 20
-4.8529337565104163
 30
0.0
 10
18.231186930338541
 20
-4.7027275933159718
 30
0.0
 10
17.348381212022566
 20
-4.5835272894965273
 30
0.0
 10
16.317608642578122
 20
-3.9413614908854164
 30
0.0
 10
16.39374525282118
 20
-2.5629787868923608
 30
0.0
 10
16.486418321397569
 20
-0.9045098198784721
 30
0.0
 10
18.247551133897566
 20
0.07906494140625
 30
0.0
 10
19.309329562717011
 20
-0.0649400499131944
 30
0.0
  0
SPLINE
  5
BC
100
AcDbEntity
  8
LIVELLO_1
 62
     7
100
AcDbSpline
210
0.0
220
0.0
230
1.0
 70
     8
 71
     3
 72
    20
 73
    16
 74
     0
 42
0.00000001
 43
0.00000001
 40
0.0
 40
0.0
 40
0.0
 40
0.0
 40
1.0
 40
1.0
 40
1.0
 40
2.0
 40
2.0
 40
2.0
 40
3.0
 40
3.0
 40
3.0
 40
4.0
 40
4.0
 40
4.0
 40
5.0
 40
5.0
 40
5.0
 40
5.0
 10
16.811463080512151
 20
4.5335734049479166
 30
0.0
 10
16.537750244140625
 20
1.7992011176215277
 30
0.0
 10
15.799121771918401
 20
-0.4497572157118055
 30
0.0
 10
14.040917290581596
 20
-0.2068779839409722
 30
0.0
 10
12.826004367404513
 20
-0.0422024197048611
 30
0.0
 10
12.37228529188368
 20
0.55035400390625
 30
0.0
 10
11.789891899956595
 20
2.1612806532118052
 30
0.0
 10
11.789891899956595
 20
2.1612806532118052
 30
0.0
 10
12.137674289279513
 20
4.0233547634548605
 30
0.0
 10
12.137674289279513
 20
4.0233547634548605
 30
0.0
 10
13.428723822699652
 20
4.1325642903645834
 30
0.0
 10
14.111886257595485
 20
4.327901204427083
 30
0.0
 10
15.357805040147568
 20
4.7313218858506936
 30
0.0
 10
15.357805040147568
 20
4.7313218858506936
 30
0.0
 10
16.811463080512151
 20
4.5335734049479166
 30
0.0
 10
16.811463080512151
 20
4.5335734049479166
 30
0.0
  0
SPLINE
  5
BB
100
AcDbEntity
  8
LIVELLO_1
 62
     7
100
AcDbSpline
210
0.0
220
0.0
230
1.0
 70
     8
 71
     3
 72
    23
 73
    19
 74
     0
 42
0.00000001
 43
0.00000001
 40
0.0
 40
0.0
 40
0.0
 40
0.0
 40
1.0
 40
1.0
 40
1.0
 40
2.0
 40
2.0
 40
2.0
 40
3.0
 40
3.0
 40
3.0
 40
4.0
 40
4.0
 40
4.0
 40
5.0
 40
5.0
 40
5.0
 40
6.0
 40
6.0
 40
6.0
 40
6.0
 10
8.3568542480468739
 20
13.459471299913194
 30
0.0
 10
8.3136182996961789
 20
12.702239312065972
 30
0.0
 10
9.0410502115885407
 20
12.601298014322916
 30
0.0
 10
8.9967807345920132
 20
11.841998969184028
 30
0.0
 10
8.8815422905815957
 20
9.7535820855034707
 30
0.0
 10
6.8599602593315963
 20
10.796756998697916
 30
0.0
 10
5.5360100640190968
 20
11.16710476345486
 30
0.0
 10
5.4536722819010413
 20
11.850267198350693
 30
0.0
 10
5.1162251790364577
 20
12.37288818359375
 30
0.0
 10
5.1584275987413193
 20
13.132187228732638
 30
0.0
 10
5.1995964898003466
 20
13.891486273871527
 30
0.0
 10
5.5895812988281248
 20
14.315233018663193
 30
0.0
 10
5.7489169650607632
 20
14.963599989149305
 30
0.0
 10
5.7489169650607632
 20
14.963599989149305
 30
0.0
 10
7.9331075032552079
 20
14.665254720052083
 30
0.0
 10
7.9331075032552079
 20
14.665254720052083
 30
0.0
 10
7.9331075032552079
 20
14.665254720052083
 30
0.0
 10
8.3568542480468739
 20
13.459471299913194
 30
0.0
 10
8.3568542480468739
 20
13.459471299913194
 30
0.0
  0
SPLINE
  5
BA
100
AcDbEntity
  8
LIVELLO_1
 62
     7
100
AcDbSpline
210
0.0
220
0.0
230
1.0
 70
     8
 71
     3
 72
    23
 73
    19
 74
     0
 42
0.00000001
 43
0.00000001
 40
0.0
 40
0.0
 40
0.0
 40
0.0
 40
1.0
 40
1.0
 40
1.0
 40
2.0
 40
2.0
 40
2.0
 40
3.0
 40
3.0
 40
3.0
 40
4.0
 40
4.0
 40
4.0
 40
5.0
 40
5.0
 40
5.0
 40
6.0
 40
6.0
 40
6.0
 40
6.0
 10
3.5216627332899302
 20
12.753571234809026
 30
0.0
 10
3.5216627332899302
 20
12.753571234809026
 30
0.0
 10
4.1646898057725688
 20
11.134376356336805
 30
0.0
 10
4.1646898057725688
 20
11.134376356336805
 30
0.0
 10
3.3468241373697913
 20
10.770229763454861
 30
0.0
 10
2.8869038899739579
 20
10.163203938802083
 30
0.0
 10
2.0371710883246528
 20
10.280337185329859
 30
0.0
 10
1.1893330891927083
 20
10.395747884114583
 30
0.0
 10
0.7635192871093749
 20
10.453280978732638
 30
0.0
 10
-0.0862135145399306
 20
10.570414225260416
 30
0.0
 10
-0.0965488009982639
 20
11.432721625434027
 30
0.0
 10
-0.2529561360677083
 20
11.932604980468749
 30
0.0
 10
-0.2055860731336806
 20
12.784577094184026
 30
0.0
 10
-0.0822516547309028
 20
14.969456651475694
 30
0.0
 10
1.7644917805989582
 20
15.192009819878471
 30
0.0
 10
3.146147325303819
 20
14.81339382595486
 30
0.0
 10
3.146147325303819
 20
14.81339382595486
 30
0.0
 10
3.5216627332899302
 20
12.753571234809026
 30
0.0
 10
3.5216627332899302
 20
12.753571234809026
 30
0.0
  0
SPLINE
  5
B9
100
AcDbEntity
  8
LIVELLO_1
 62
     7
100
AcDbSpline
210
0.0
220
0.0
230
1.0
 70
     8
 71
     3
 72
    23
 73
    19
 74
     0
 42
0.00000001
 43
0.00000001
 40
0.0
 40
0.0
 40
0.0
 40
0.0
 40
1.0
 40
1.0
 40
1.0
 40
2.0
 40
2.0
 40
2.0
 40
3.0
 40
3.0
 40
3.0
 40
4.0
 40
4.0
 40
4.0
 40
5.0
 40
5.0
 40
5.0
 40
6.0
 40
6.0
 40
6.0
 40
6.0
 10
-2.0523295084635413
 20
13.692015245225694
 30
0.0
 10
-2.0523295084635413
 20
13.692015245225694
 30
0.0
 10
-1.6490810818142361
 20
12.109682888454859
 30
0.0
 10
-1.6490810818142361
 20
12.109682888454859
 30
0.0
 10
-2.7961256239149304
 20
11.307320149739581
 30
0.0
 10
-3.6386237250434026
 20
10.467750379774305
 30
0.0
 10
-4.9133090549045138
 20
10.642416720920139
 30
0.0
 10
-5.5162007649739575
 20
10.724754503038193
 30
0.0
 10
-5.794908989800347
 20
11.24117431640625
 30
0.0
 10
-6.3247646755642357
 20
11.601531304253472
 30
0.0
 10
-6.3247646755642357
 20
11.601531304253472
 30
0.0
 10
-6.2177944607204854
 20
13.498400878906249
 30
0.0
 10
-6.2177944607204854
 20
13.498400878906249
 30
0.0
 10
-5.1870218912760411
 20
14.502646213107637
 30
0.0
 10
-4.1920783148871523
 20
14.749315049913193
 30
0.0
 10
-2.9585618760850694
 20
14.963599989149305
 30
0.0
 10
-2.9585618760850694
 20
14.963599989149305
 30
0.0
 10
-2.0523295084635413
 20
13.692015245225694
 30
0.0
 10
-2.0523295084635413
 20
13.692015245225694
 30
0.0
  0
SPLINE
  5
B8
100
AcDbEntity
  8
LIVELLO_1
 62
     7
100
AcDbSpline
210
0.0
220
0.0
230
1.0
 70
     8
 71
     3
 72
    17
 73
    13
 74
     0
 42
0.00000001
 43
0.00000001
 40
0.0
 40
0.0
 40
0.0
 40
0.0
 40
1.0
 40
1.0
 40
1.0
 40
2.0
 40
2.0
 40
2.0
 40
3.0
 40
3.0
 40
3.0
 40
4.0
 40
4.0
 40
4.0
 40
4.0
 10
-9.6117302788628471
 20
8.405860731336805
 30
0.0
 10
-9.6899339463975682
 20
7.025410970052083
 30
0.0
 10
-10.424428304036457
 20
5.9574313693576384
 30
0.0
 10
-11.30723402235243
 20
6.0790432400173602
 30
0.0
 10
-11.765948486328124
 20
6.1427775065104164
 30
0.0
 10
-12.356610107421874
 20
6.3915134006076384
 30
0.0
 10
-12.317508273654513
 20
7.1077487521701386
 30
0.0
 10
-12.202269829644097
 20
9.1506903754340261
 30
0.0
 10
-12.047929551866318
 20
10.340281846788194
 30
0.0
 10
-10.779445393880208
 20
10.72062038845486
 30
0.0
 10
-10.834911431206596
 20
9.7270548502604157
 30
0.0
 10
-9.5541971842447904
 20
9.4018378363715271
 30
0.0
 10
-9.6117302788628471
 20
8.405860731336805
 30
0.0
  0
SPLINE
  5
B7
100
AcDbEntity
  8
LIVELLO_1
 62
     7
100
AcDbSpline
210
0.0
220
0.0
230
1.0
 70
     8
 71
     3
 72
    20
 73
    16
 74
     0
 42
0.00000001
 43
0.00000001
 40
0.0
 40
0.0
 40
0.0
 40
0.0
 40
1.0
 40
1.0
 40
1.0
 40
2.0
 40
2.0
 40
2.0
 40
3.0
 40
3.0
 40
3.0
 40
4.0
 40
4.0
 40
4.0
 40
5.0
 40
5.0
 40
5.0
 40
5.0
 10
-26.907659912109374
 20
11.22291531032986
 30
0.0
 10
-25.676210530598954
 20
10.998639594184027
 30
0.0
 10
-24.15054999457465
 20
10.288605414496526
 30
0.0
 10
-24.258553738064233
 20
8.3545288085937486
 30
0.0
 10
-24.378959825303816
 20
6.204444715711805
 30
0.0
 10
-26.188496229383677
 20
6.2847154405381938
 30
0.0
 10
-27.564984130859372
 20
6.4717841254340271
 30
0.0
 10
-28.377682156032982
 20
6.5851277669270827
 30
0.0
 10
-28.574224853515624
 20
8.1116495768229164
 30
0.0
 10
-28.504289415147568
 20
9.3832343207465261
 30
0.0
 10
-28.449684651692706
 20
10.377144368489583
 30
0.0
 10
-27.541385226779511
 20
9.9985283745659714
 30
0.0
 10
-26.907659912109374
 20
9.8545233832465264
 30
0.0
 10
-26.907659912109374
 20
9.8545233832465264
 30
0.0
 10
-26.907659912109374
 20
11.22291531032986
 30
0.0
 10
-26.907659912109374
 20
11.22291531032986
 30
0.0
  0
POLYLINE
  5
B0
100
AcDbEntity
  8
LIVELLO_1
 62
     7
100
AcDb2dPolyline
 66
     1
 10
0.0
 20
0.0
 30
0.0
 70
     1
  0
VERTEX
  5
B1
100
AcDbEntity
  8
LIVELLO_1
 62
     7
100
AcDbVertex
100
AcDb2dVertex
 10
-22.543585
 20
10.406083
 30
0.0
  0
VERTEX
  5
B2
100
AcDbEntity
  8
LIVELLO_1
 62
     7
100
AcDbVertex
100
AcDb2dVertex
 10
-21.615649
 20
9.513114
 30
0.0
  0
VERTEX
  5
B3
100
AcDbEntity
  8
LIVELLO_1
 62
     7
100
AcDbVertex
100
AcDb2dVertex
 10
-21.460275
 20
7.961443
 30
0.0
  0
VERTEX
  5
B4
100
AcDbEntity
  8
LIVELLO_1
 62
     7
100
AcDbVertex
100
AcDb2dVertex
 10
-22.715323
 20
7.368887
 30
0.0
  0
VERTEX
  5
B5
100
AcDbEntity
  8
LIVELLO_1
 62
     7
100
AcDbVertex
100
AcDb2dVertex
 10
-23.093939
 20
9.331902
 30
0.0
  0
SEQEND
  5
B6
100
AcDbEntity
  8
LIVELLO_1
 62
     7
  0
SPLINE
  5
AF
100
AcDbEntity
  8
LIVELLO_1
 62
     7
100
AcDbSpline
210
0.0
220
0.0
230
1.0
 70
     8
 71
     3
 72
    20
 73
    16
 74
     0
 42
0.00000001
 43
0.00000001
 40
0.0
 40
0.0
 40
0.0
 40
0.0
 40
1.0
 40
1.0
 40
1.0
 40
2.0
 40
2.0
 40
2.0
 40
3.0
 40
3.0
 40
3.0
 40
4.0
 40
4.0
 40
4.0
 40
5.0
 40
5.0
 40
5.0
 40
5.0
 10
-26.775885009765624
 20
0.4535468207465278
 30
0.0
 10
-25.603174506293399
 20
-0.8180379231770832
 30
0.0
 10
-24.718301730685763
 20
-1.5525322808159721
 30
0.0
 10
-24.335723876953121
 20
-3.6082207573784717
 30
0.0
 10
-26.138025580512149
 20
-4.0299004448784714
 30
0.0
 10
-27.045463731553816
 20
-5.0176093207465273
 30
0.0
 10
-28.811936442057288
 20
-4.7747300889756943
 30
0.0
 10
-29.553665500217011
 20
-4.6737887912326386
 30
0.0
 10
-30.09471774631076
 20
-3.5420749240451386
 30
0.0
 10
-30.029949951171872
 20
-2.3838338216145831
 30
0.0
 10
-29.916778564453121
 20
-0.3963582356770833
 30
0.0
 10
-29.078414577907985
 20
-0.4621595594618055
 30
0.0
 10
-27.804762776692705
 20
-0.6368259006076389
 30
0.0
 10
-27.804762776692705
 20
-0.6368259006076389
 30
0.0
 10
-26.775885009765624
 20
0.4535468207465278
 30
0.0
 10
-26.775885009765624
 20
0.4535468207465278
 30
0.0
  0
SPLINE
  5
AE
100
AcDbEntity
  8
LIVELLO_1
 62
     7
100
AcDbSpline
210
0.0
220
0.0
230
1.0
 70
     8
 71
     3
 72
    20
 73
    16
 74
     0
 42
0.00000001
 43
0.00000001
 40
0.0
 40
0.0
 40
0.0
 40
0.0
 40
1.0
 40
1.0
 40
1.0
 40
2.0
 40
2.0
 40
2.0
 40
3.0
 40
3.0
 40
3.0
 40
4.0
 40
4.0
 40
4.0
 40
5.0
 40
5.0
 40
5.0
 40
5.0
 10
-23.112370469835067
 20
5.4844197591145827
 30
0.0
 10
-22.184434000651038
 20
4.9121893988715275
 30
0.0
 10
-21.243233913845483
 20
3.9492852105034717
 30
0.0
 10
-21.331600613064236
 20
2.34869384765625
 30
0.0
 10
-21.366568332248264
 20
1.6837904188368054
 30
0.0
 10
-21.823387993706596
 20
1.1921752929687499
 30
0.0
 10
-22.245239935980901
 20
1.2476413302951388
 30
0.0
 10
-23.585726589626734
 20
1.4329874674479166
 30
0.0
 10
-24.937582058376734
 20
2.7290323893229163
 30
0.0
 10
-24.818209499782984
 20
4.8277845594618052
 30
0.0
 10
-24.738972303602427
 20
6.3195109049479159
 30
0.0
 10
-23.488919406467012
 20
6.3711873372395829
 30
0.0
 10
-22.535316975911456
 20
6.2413072374131939
 30
0.0
 10
-22.535316975911456
 20
6.2413072374131939
 30
0.0
 10
-23.112370469835067
 20
5.4844197591145827
 30
0.0
 10
-23.112370469835067
 20
5.4844197591145827
 30
0.0
  0
SPLINE
  5
AD
100
AcDbEntity
  8
LIVELLO_1
 62
     7
100
AcDbSpline
210
0.0
220
0.0
230
1.0
 70
     8
 71
     3
 72
    17
 73
    13
 74
     0
 42
0.00000001
 43
0.00000001
 40
0.0
 40
0.0
 40
0.0
 40
0.0
 40
1.0
 40
1.0
 40
1.0
 40
2.0
 40
2.0
 40
2.0
 40
3.0
 40
3.0
 40
3.0
 40
4.0
 40
4.0
 40
4.0
 40
4.0
 10
-19.218551296657985
 20
9.9923272026909711
 30
0.0
 10
-17.987101915147569
 20
9.7680514865451382
 30
0.0
 10
-16.459374321831596
 20
9.0562947591145821
 30
0.0
 10
-16.568411593967014
 20
7.124285210503472
 30
0.0
 10
-16.687784152560763
 20
4.9717895507812493
 30
0.0
 10
-18.499387613932289
 20
5.0541273328993048
 30
0.0
 10
-19.874841986762149
 20
5.2394734700520829
 30
0.0
 10
-20.686506483289929
 20
5.3504055447048602
 30
0.0
 10
-20.888216824001734
 20
6.881405978732638
 30
0.0
 10
-20.814147271050345
 20
8.1509236653645818
 30
0.0
 10
-20.759542507595484
 20
9.1448337131076389
 30
0.0
 10
-19.852276611328122
 20
10.134265136718749
 30
0.0
 10
-19.218551296657985
 20
9.9923272026909711
 30
0.0
  0
SPLINE
  5
AC
100
AcDbEntity
  8
LIVELLO_1
 62
     7
100
AcDbSpline
210
0.0
220
0.0
230
1.0
 70
     8
 71
     3
 72
    17
 73
    13
 74
     0
 42
0.00000001
 43
0.00000001
 40
0.0
 40
0.0
 40
0.0
 40
0.0
 40
1.0
 40
1.0
 40
1.0
 40
2.0
 40
2.0
 40
2.0
 40
3.0
 40
3.0
 40
3.0
 40
4.0
 40
4.0
 40
4.0
 40
4.0
 10
-13.509855821397569
 20
7.7330335828993046
 30
0.0
 10
-13.587025960286457
 20
6.3505167643229159
 30
0.0
 10
-14.322553846571179
 20
5.284604220920138
 30
0.0
 10
-15.205187310112846
 20
5.4062160915798607
 30
0.0
 10
-15.666141086154513
 20
5.4678833007812493
 30
0.0
 10
-16.256630452473956
 20
5.7166191948784721
 30
0.0
 10
-16.214428032769096
 20
6.4328545464409714
 30
0.0
 10
-16.100223117404511
 20
8.4778632269965275
 30
0.0
 10
-15.205187310112846
 20
9.8565904405381932
 30
0.0
 10
-13.939803738064235
 20
10.239340549045139
 30
0.0
 10
-13.993374972873262
 20
9.2433634440104164
 30
0.0
 10
-13.454217529296875
 20
8.72694363064236
 30
0.0
 10
-13.509855821397569
 20
7.7330335828993046
 30
0.0
  0
SPLINE
  5
AB
100
AcDbEntity
  8
LIVELLO_1
 62
     7
100
AcDbSpline
210
0.0
220
0.0
230
1.0
 70
     8
 71
     3
 72
    23
 73
    19
 74
     0
 42
0.00000001
 43
0.00000001
 40
0.0
 40
0.0
 40
0.0
 40
0.0
 40
1.0
 40
1.0
 40
1.0
 40
2.0
 40
2.0
 40
2.0
 40
3.0
 40
3.0
 40
3.0
 40
4.0
 40
4.0
 40
4.0
 40
5.0
 40
5.0
 40
5.0
 40
6.0
 40
6.0
 40
6.0
 40
6.0
 10
-18.314213731553817
 20
2.8833726671006943
 30
0.0
 10
-18.171242268880206
 20
2.2539537217881942
 30
0.0
 10
-17.977800157335068
 20
1.8939412434895833
 30
0.0
 10
-18.014834933810761
 20
1.2314493815104166
 30
0.0
 10
-18.124905734592012
 20
-0.758437771267361
 30
0.0
 10
-19.277117919921874
 20
-1.601797146267361
 30
0.0
 10
-20.512701416015624
 20
-2.0978908962673608
 30
0.0
 10
-20.512701416015624
 20
-2.0978908962673608
 30
0.0
 10
-21.068223063151041
 20
-1.8016126844618054
 30
0.0
 10
-21.068223063151041
 20
-1.8016126844618054
 30
0.0
 10
-21.013790554470486
 20
-0.8631686740451389
 30
0.0
 10
-20.985885281032985
 20
-0.36741943359375
 30
0.0
 10
-20.933519829644094
 20
0.5727471245659722
 30
0.0
 10
-20.85738321940104
 20
1.9514743381076387
 30
0.0
 10
-19.907742648654512
 20
2.3793551974826386
 30
0.0
 10
-19.018908013237844
 20
2.3690199110243055
 30
0.0
 10
-19.018908013237844
 20
2.3690199110243055
 30
0.0
 10
-18.314213731553817
 20
2.8833726671006943
 30
0.0
 10
-18.314213731553817
 20
2.8833726671006943
 30
0.0
  0
SPLINE
  5
AA
100
AcDbEntity
  8
LIVELLO_1
 62
     7
100
AcDbSpline
210
0.0
220
0.0
230
1.0
 70
     8
 71
     3
 72
    20
 73
    16
 74
     0
 42
0.00000001
 43
0.00000001
 40
0.0
 40
0.0
 40
0.0
 40
0.0
 40
1.0
 40
1.0
 40
1.0
 40
2.0
 40
2.0
 40
2.0
 40
3.0
 40
3.0
 40
3.0
 40
4.0
 40
4.0
 40
4.0
 40
5.0
 40
5.0
 40
5.0
 40
5.0
 10
-24.442694091796874
 20
-5.6246351453993046
 30
0.0
 10
-23.561955430772567
 20
-6.4125284830729159
 30
0.0
 10
-22.410776774088539
 20
-6.7911444769965268
 30
0.0
 10
-22.502416314019094
 20
-8.3938028971354157
 30
0.0
 10
-22.596984185112845
 20
-10.106015353732637
 30
0.0
 10
-23.780202229817707
 20
-10.943173556857637
 30
0.0
 10
-24.875742594401039
 20
-10.792967393663194
 30
0.0
 10
-25.758548312717011
 20
-10.673767089843748
 30
0.0
 10
-26.166964382595484
 20
-9.0607733832465271
 30
0.0
 10
-26.090827772352426
 20
-7.677912055121527
 30
0.0
 10
-26.033122422960066
 20
-6.6840020073784716
 30
0.0
 10
-25.510501437717011
 20
-6.2006551106770829
 30
0.0
 10
-24.982712809244788
 20
-5.7169637044270827
 30
0.0
 10
-24.982712809244788
 20
-5.7169637044270827
 30
0.0
 10
-24.442694091796874
 20
-5.6246351453993046
 30
0.0
 10
-24.442694091796874
 20
-5.6246351453993046
 30
0.0
  0
SPLINE
  5
A9
100
AcDbEntity
  8
LIVELLO_1
 62
     7
100
AcDbSpline
210
0.0
220
0.0
230
1.0
 70
     8
 71
     3
 72
    17
 73
    13
 74
     0
 42
0.00000001
 43
0.00000001
 40
0.0
 40
0.0
 40
0.0
 40
0.0
 40
1.0
 40
1.0
 40
1.0
 40
2.0
 40
2.0
 40
2.0
 40
3.0
 40
3.0
 40
3.0
 40
4.0
 40
4.0
 40
4.0
 40
4.0
 10
-18.617726643880207
 20
-10.204545084635416
 30
0.0
 10
-17.858427598741319
 20
-11.25392116970486
 30
0.0
 10
-17.379042561848955
 20
-12.210624186197915
 30
0.0
 10
-17.291537136501734
 20
-13.834297688802081
 30
0.0
 10
-18.198975287543401
 20
-14.15296902126736
 30
0.0
 10
-18.777234564887152
 20
-14.299041069878472
 30
0.0
 10
-19.728769938151039
 20
-14.167438422309026
 30
0.0
 10
-20.826549614800346
 20
-14.019299316406249
 30
0.0
 10
-21.901591661241316
 20
-12.924792480468749
 30
0.0
 10
-21.877820502387152
 20
-11.20465630425347
 30
0.0
 10
-20.359394666883677
 20
-10.797101508246527
 30
0.0
 10
-19.611464436848955
 20
-10.12220730251736
 30
0.0
 10
-18.067372639973957
 20
-9.8875962999131932
 30
0.0
  0
SPLINE
  5
A8
100
AcDbEntity
  8
LIVELLO_1
 62
     7
100
AcDbSpline
210
0.0
220
0.0
230
1.0
 70
     8
 71
     3
 72
    17
 73
    13
 74
     0
 42
0.00000001
 43
0.00000001
 40
0.0
 40
0.0
 40
0.0
 40
0.0
 40
1.0
 40
1.0
 40
1.0
 40
2.0
 40
2.0
 40
2.0
 40
3.0
 40
3.0
 40
3.0
 40
4.0
 40
4.0
 40
4.0
 40
4.0
 10
-18.094072129991318
 20
-3.3777438693576385
 30
0.0
 10
-16.894489881727431
 20
-3.5403523763020832
 30
0.0
 10
-15.799810791015624
 20
-4.9700670030381939
 30
0.0
 10
-15.905919731987845
 20
-6.8466105143229159
 30
0.0
 10
-16.006688774956597
 20
-8.6697550455729164
 30
0.0
 10
-17.517879909939236
 20
-8.963966200086805
 30
0.0
 10
-18.683527967664929
 20
-8.8034247504340275
 30
0.0
 10
-20.305995686848956
 20
-8.5812160915798597
 30
0.0
 10
-22.394412570529511
 20
-7.7416463216145823
 30
0.0
 10
-22.253335910373263
 20
-5.2005438910590271
 30
0.0
 10
-22.115532090928816
 20
-2.7686509874131944
 30
0.0
 10
-19.656767442491319
 20
-3.3322686089409719
 30
0.0
 10
-18.094072129991318
 20
-3.3777438693576385
 30
0.0
  0
SPLINE
  5
A7
100
AcDbEntity
  8
LIVELLO_1
 62
     7
100
AcDbSpline
210
0.0
220
0.0
230
1.0
 70
     8
 71
     3
 72
    20
 73
    16
 74
     0
 42
0.00000001
 43
0.00000001
 40
0.0
 40
0.0
 40
0.0
 40
0.0
 40
1.0
 40
1.0
 40
1.0
 40
2.0
 40
2.0
 40
2.0
 40
3.0
 40
3.0
 40
3.0
 40
4.0
 40
4.0
 40
4.0
 40
5.0
 40
5.0
 40
5.0
 40
5.0
 10
-15.524203152126734
 20
3.7804755316840275
 30
0.0
 10
-16.335867648654514
 20
3.893819173177083
 30
0.0
 10
-17.003527153862844
 20
2.7600382486979163
 30
0.0
 10
-17.076563178168403
 20
1.4905205620659721
 30
0.0
 10
-17.135302056206594
 20
0.4411444769965278
 30
0.0
 10
-17.167169189453123
 20
-0.1679484049479167
 30
0.0
 10
-17.225735812717012
 20
-1.2152574327256944
 30
0.0
 10
-16.624911159939234
 20
-1.2955281575520832
 30
0.0
 10
-16.307101101345484
 20
-1.3406589084201388
 30
0.0
 10
-15.709377034505208
 20
-1.4229966905381943
 30
0.0
 10
-14.579730224609374
 20
-1.5794040256076387
 30
0.0
 10
-13.058203803168402
 20
-1.7850762261284721
 30
0.0
 10
-12.960363091362845
 20
-0.0177422417534722
 30
0.0
 10
-12.841162787543402
 20
2.1364759657118055
 30
0.0
 10
-14.146681722005207
 20
3.5934068467881941
 30
0.0
 10
-15.524203152126734
 20
3.7804755316840275
 30
0.0
  0
SPLINE
  5
A6
100
AcDbEntity
  8
LIVELLO_1
 62
     7
100
AcDbSpline
210
0.0
220
0.0
230
1.0
 70
     8
 71
     3
 72
    17
 73
    13
 74
     0
 42
0.00000001
 43
0.00000001
 40
0.0
 40
0.0
 40
0.0
 40
0.0
 40
1.0
 40
1.0
 40
1.0
 40
2.0
 40
2.0
 40
2.0
 40
3.0
 40
3.0
 40
3.0
 40
4.0
 40
4.0
 40
4.0
 40
4.0
 10
-9.8124070909288186
 20
5.4451456705729164
 30
0.0
 10
-9.0922098795572914
 20
4.2910386827256941
 30
0.0
 10
-8.7547627766927079
 20
3.3505276150173606
 30
0.0
 10
-8.1899393717447904
 20
1.9966050889756943
 30
0.0
 10
-8.9676696777343743
 20
0.8238945855034722
 30
0.0
 10
-9.792770046657985
 20
0.6592190212673611
 30
0.0
 10
-10.889516194661457
 20
0.8073581271701388
 30
0.0
 10
-11.772149658203125
 20
0.928969997829861
 30
0.0
 10
-12.80206095377604
 20
1.570791286892361
 30
0.0
 10
-12.725924343532984
 20
2.9515855577256942
 30
0.0
 10
-12.633251274956596
 20
4.6055759006076382
 30
0.0
 10
-10.869879150390624
 20
5.5912177191840273
 30
0.0
 10
-9.8124070909288186
 20
5.4451456705729164
 30
0.0
  0
SPLINE
  5
A5
100
AcDbEntity
  8
LIVELLO_1
 62
     7
100
AcDbSpline
210
0.0
220
0.0
230
1.0
 70
     8
 71
     3
 72
    14
 73
    10
 74
     0
 42
0.00000001
 43
0.00000001
 40
0.0
 40
0.0
 40
0.0
 40
0.0
 40
1.0
 40
1.0
 40
1.0
 40
2.0
 40
2.0
 40
2.0
 40
3.0
 40
3.0
 40
3.0
 40
3.0
 10
-4.2415154351128468
 20
6.9041436089409718
 30
0.0
 10
-4.345385064019097
 20
5.083066134982638
 30
0.0
 10
-5.5687384711371521
 20
4.1921644422743052
 30
0.0
 10
-6.7342142740885409
 20
4.3506388346354159
 30
0.0
 10
-7.898828803168402
 20
4.5111802842881943
 30
0.0
 10
-8.6148918999565964
 20
6.3319132486979157
 30
0.0
 10
-8.5110222710503471
 20
8.1550577799479154
 30
0.0
 10
-8.3649502224392354
 20
10.80709228515625
 30
0.0
 10
-4.0964769151475693
 20
9.5520439995659707
 30
0.0
 10
-4.2415154351128468
 20
6.9041436089409718
 30
0.0
  0
SPLINE
  5
A4
100
AcDbEntity
  8
LIVELLO_1
 62
     7
100
AcDbSpline
210
0.0
220
0.0
230
1.0
 70
     8
 71
     3
 72
    20
 73
    16
 74
     0
 42
0.00000001
 43
0.00000001
 40
0.0
 40
0.0
 40
0.0
 40
0.0
 40
1.0
 40
1.0
 40
1.0
 40
2.0
 40
2.0
 40
2.0
 40
3.0
 40
3.0
 40
3.0
 40
4.0
 40
4.0
 40
4.0
 40
5.0
 40
5.0
 40
5.0
 40
5.0
 10
0.1771640353732639
 20
6.7970011393229157
 30
0.0
 10
0.1091233995225694
 20
5.5626234266493046
 30
0.0
 10
-0.5266689724392361
 20
5.1736721462673607
 30
0.0
 10
-0.9462816026475693
 20
4.1776950412326386
 30
0.0
 10
-0.9462816026475693
 20
4.1776950412326386
 30
0.0
 10
-4.2024136013454854
 20
2.1571465386284721
 30
0.0
 10
-4.2024136013454854
 20
2.1571465386284721
 30
0.0
 10
-4.1581441243489579
 20
2.9164455837673606
 30
0.0
 10
-3.3661166720920135
 20
5.7538262261284716
 30
0.0
 10
-3.3239142523871523
 20
6.5110582139756943
 30
0.0
 10
-3.2364088270399303
 20
8.0313788519965268
 30
0.0
 10
-2.3856424967447913
 20
9.0604288736979157
 30
0.0
 10
-1.4144700792100693
 20
8.9264146592881932
 30
0.0
 10
-0.6253709581163194
 20
8.8196166992187486
 30
0.0
 10
0.2460659450954861
 20
8.0313788519965268
 30
0.0
 10
0.1771640353732639
 20
6.7970011393229157
 30
0.0
  0
SPLINE
  5
A3
100
AcDbEntity
  8
LIVELLO_1
 62
     7
100
AcDbSpline
210
0.0
220
0.0
230
1.0
 70
     8
 71
     3
 72
    20
 73
    16
 74
     0
 42
0.00000001
 43
0.00000001
 40
0.0
 40
0.0
 40
0.0
 40
0.0
 40
1.0
 40
1.0
 40
1.0
 40
2.0
 40
2.0
 40
2.0
 40
3.0
 40
3.0
 40
3.0
 40
4.0
 40
4.0
 40
4.0
 40
5.0
 40
5.0
 40
5.0
 40
5.0
 10
-13.445949300130208
 20
-2.8654581705729165
 30
0.0
 10
-11.73511488172743
 20
-3.9599650065104162
 30
0.0
 10
-9.8566765679253461
 20
-5.3652194552951382
 30
0.0
 10
-10.021179877387151
 20
-8.3056084526909721
 30
0.0
 10
-10.06854994032118
 20
-9.1593031141493046
 30
0.0
 10
-10.681604682074651
 20
-9.1696384006076386
 30
0.0
 10
-11.076757134331595
 20
-9.6901923285590268
 30
0.0
 10
-11.076757134331595
 20
-9.6901923285590268
 30
0.0
 10
-14.534427218967013
 20
-9.2168362087673597
 30
0.0
 10
-14.534427218967013
 20
-9.2168362087673597
 30
0.0
 10
-14.532360161675346
 20
-8.0709974500868054
 30
0.0
 10
-14.677398681640623
 20
-7.3816338433159716
 30
0.0
 10
-14.611597357855901
 20
-6.2437188042534713
 30
0.0
 10
-14.529259575737846
 20
-4.7254652235243055
 30
0.0
 10
-13.941870795355902
 20
-4.0423027886284721
 30
0.0
 10
-13.445949300130208
 20
-2.8654581705729165
 30
0.0
  0
SPLINE
  5
A2
100
AcDbEntity
  8
LIVELLO_1
 62
     7
100
AcDbSpline
210
0.0
220
0.0
230
1.0
 70
     8
 71
     3
 72
    23
 73
    19
 74
     0
 42
0.00000001
 43
0.00000001
 40
0.0
 40
0.0
 40
0.0
 40
0.0
 40
1.0
 40
1.0
 40
1.0
 40
2.0
 40
2.0
 40
2.0
 40
3.0
 40
3.0
 40
3.0
 40
4.0
 40
4.0
 40
4.0
 40
5.0
 40
5.0
 40
5.0
 40
6.0
 40
6.0
 40
6.0
 40
6.0
 10
9.82704874674479
 20
-8.2170694986979154
 30
0.0
 10
10.805455864800345
 20
-9.3053751627604164
 30
0.0
 10
11.16030069986979
 20
-10.595563422309027
 30
0.0
 10
11.551319037543403
 20
-12.371165635850693
 30
0.0
 10
11.551319037543403
 20
-12.371165635850693
 30
0.0
 10
11.223173692491319
 20
-13.854623752170138
 30
0.0
 10
11.223173692491319
 20
-13.854623752170138
 30
0.0
 10
10.798221164279513
 20
-13.797090657552083
 30
0.0
 10
10.49367472330729
 20
-13.75609402126736
 30
0.0
 10
10.068722195095486
 20
-13.698216417100694
 30
0.0
 10
8.7365037706163182
 20
-13.515281846788193
 30
0.0
 10
7.6829935709635411
 20
-11.554333496093749
 30
0.0
 10
7.8013326009114579
 20
-9.4679836697048607
 30
0.0
 10
7.8538703070746525
 20
-8.5174818250868043
 30
0.0
 10
8.4700256347656246
 20
-8.4124064127604168
 30
0.0
 10
8.8774081759982639
 20
-7.7047837999131934
 30
0.0
 10
8.8774081759982639
 20
-7.7047837999131934
 30
0.0
 10
9.82704874674479
 20
-8.2170694986979154
 30
0.0
 10
9.82704874674479
 20
-8.2170694986979154
 30
0.0
  0
SPLINE
  5
A1
100
AcDbEntity
  8
LIVELLO_1
 62
     7
100
AcDbSpline
210
0.0
220
0.0
230
1.0
 70
     8
 71
     3
 72
    17
 73
    13
 74
     0
 42
0.00000001
 43
0.00000001
 40
0.0
 40
0.0
 40
0.0
 40
0.0
 40
1.0
 40
1.0
 40
1.0
 40
2.0
 40
2.0
 40
2.0
 40
3.0
 40
3.0
 40
3.0
 40
4.0
 40
4.0
 40
4.0
 40
4.0
 10
14.866017659505207
 20
-11.138854980468748
 30
0.0
 10
13.652999538845485
 20
-10.974179416232637
 30
0.0
 10
12.562626817491319
 20
-11.243585883246526
 30
0.0
 10
11.978166368272568
 20
-9.6347262912326386
 30
0.0
 10
11.978166368272568
 20
-9.6347262912326386
 30
0.0
 10
12.41758829752604
 20
-6.5710028754340275
 30
0.0
 10
12.41758829752604
 20
-6.5710028754340275
 30
0.0
 10
13.708637830946179
 20
-6.4617933485243046
 30
0.0
 10
14.308428955078124
 20
-7.0278225368923604
 30
0.0
 10
15.552280680338541
 20
-6.6244018554687498
 30
0.0
 10
15.552280680338541
 20
-6.6244018554687498
 30
0.0
 10
16.624222140842011
 20
-11.379322645399304
 30
0.0
 10
14.866017659505207
 20
-11.138854980468748
 30
0.0
  0
SPLINE
  5
A0
100
AcDbEntity
  8
LIVELLO_1
 62
     7
100
AcDbSpline
210
0.0
220
0.0
230
1.0
 70
     8
 71
     3
 72
    14
 73
    10
 74
     0
 42
0.00000001
 43
0.00000001
 40
0.0
 40
0.0
 40
0.0
 40
0.0
 40
1.0
 40
1.0
 40
1.0
 40
2.0
 40
2.0
 40
2.0
 40
3.0
 40
3.0
 40
3.0
 40
3.0
 10
11.110002305772568
 20
0.4576809353298611
 30
0.0
 10
10.677815077039929
 20
0.32401123046875
 30
0.0
 10
10.342435031467012
 20
-0.2027438693576389
 30
0.0
 10
9.854781765407985
 20
-0.13487548828125
 30
0.0
 10
8.5811299641927068
 20
0.0380683051215278
 30
0.0
 10
8.0688442654079857
 20
1.8302069769965277
 30
0.0
 10
7.622359890407985
 20
3.7064059787326387
 30
0.0
 10
9.1666239420572904
 20
3.972022840711805
 30
0.0
 10
10.440275743272569
 20
2.6532402886284721
 30
0.0
 10
11.110002305772568
 20
0.4576809353298611
 30
0.0
  0
SPLINE
  5
9F
100
AcDbEntity
  8
LIVELLO_1
 62
     7
100
AcDbSpline
210
0.0
220
0.0
230
1.0
 70
     8
 71
     3
 72
    23
 73
    19
 74
     0
 42
0.00000001
 43
0.00000001
 40
0.0
 40
0.0
 40
0.0
 40
0.0
 40
1.0
 40
1.0
 40
1.0
 40
2.0
 40
2.0
 40
2.0
 40
3.0
 40
3.0
 40
3.0
 40
4.0
 40
4.0
 40
4.0
 40
5.0
 40
5.0
 40
5.0
 40
6.0
 40
6.0
 40
6.0
 40
6.0
 10
10.436141628689235
 20
8.06031765407986
 30
0.0
 10
10.393939208984374
 20
7.3010186089409714
 30
0.0
 10
11.122232394748263
 20
7.2024888780381939
 30
0.0
 10
11.078996446397568
 20
6.4431898328993054
 30
0.0
 10
10.961863199869791
 20
4.3568400065104163
 30
0.0
 10
8.9423482259114575
 20
5.3979478624131936
 30
0.0
 10
7.6161587185329855
 20
5.7682956271701382
 30
0.0
 10
7.5317538791232632
 20
6.4493910047743048
 30
0.0
 10
7.1963738335503464
 20
6.9740790473090275
 30
0.0
 10
7.238576253255208
 20
7.7330335828993046
 30
0.0
 10
7.2818122016059021
 20
8.4902655707465264
 30
0.0
 10
7.6717970106336795
 20
8.9164238823784707
 30
0.0
 10
7.8311326768663188
 20
9.5623792860243046
 30
0.0
 10
7.8311326768663188
 20
9.5623792860243046
 30
0.0
 10
10.013256157769096
 20
9.2640340169270825
 30
0.0
 10
10.013256157769096
 20
9.2640340169270825
 30
0.0
 10
10.013256157769096
 20
9.2640340169270825
 30
0.0
 10
10.436141628689235
 20
8.06031765407986
 30
0.0
 10
10.436141628689235
 20
8.06031765407986
 30
0.0
  0
SPLINE
  5
9E
100
AcDbEntity
  8
LIVELLO_1
 62
     7
100
AcDbSpline
210
0.0
220
0.0
230
1.0
 70
     8
 71
     3
 72
    17
 73
    13
 74
     0
 42
0.00000001
 43
0.00000001
 40
0.0
 40
0.0
 40
0.0
 40
0.0
 40
1.0
 40
1.0
 40
1.0
 40
2.0
 40
2.0
 40
2.0
 40
3.0
 40
3.0
 40
3.0
 40
4.0
 40
4.0
 40
4.0
 40
4.0
 10
10.60064493815104
 20
14.963599989149305
 30
0.0
 10
10.60064493815104
 20
14.963599989149305
 30
0.0
 10
11.387677001953124
 20
14.856457519531249
 30
0.0
 10
11.387677001953124
 20
14.856457519531249
 30
0.0
 10
11.387677001953124
 20
14.856457519531249
 30
0.0
 10
10.974093288845484
 20
11.85233425564236
 30
0.0
 10
10.974093288845484
 20
11.85233425564236
 30
0.0
 10
10.461807590060763
 20
12.496567111545138
 30
0.0
 10
9.7498786078559014
 20
12.87897271050347
 30
0.0
 10
9.8063781738281239
 20
13.926281738281249
 30
0.0
 10
9.84255167643229
 20
14.494377983940971
 30
0.0
 10
10.451472303602429
 20
14.50678032769097
 30
0.0
 10
10.60064493815104
 20
14.963599989149305
 30
0.0
  0
SPLINE
  5
9D
100
AcDbEntity
  8
LIVELLO_1
 62
     7
100
AcDbSpline
210
0.0
220
0.0
230
1.0
 70
     8
 71
     3
 72
    17
 73
    13
 74
     0
 42
0.00000001
 43
0.00000001
 40
0.0
 40
0.0
 40
0.0
 40
0.0
 40
1.0
 40
1.0
 40
1.0
 40
2.0
 40
2.0
 40
2.0
 40
3.0
 40
3.0
 40
3.0
 40
4.0
 40
4.0
 40
4.0
 40
4.0
 10
9.2868577745225682
 20
-1.7520033094618055
 30
0.0
 10
8.4824279785156236
 20
-1.9311482747395832
 30
0.0
 10
7.5358879937065968
 20
-2.4682386610243054
 30
0.0
 10
7.4618184407552075
 20
-3.7973564995659719
 30
0.0
 10
7.3970506456163188
 20
-4.9352715386284718
 30
0.0
 10
7.5565585666232629
 20
-6.4845309787326384
 30
0.0
 10
8.2848517523871514
 20
-6.5854722764756941
 30
0.0
 10
9.6799431694878457
 20
-6.7766750759548602
 30
0.0
 10
11.283807373046875
 20
-6.5176038953993052
 30
0.0
 10
11.58628675672743
 20
-4.3613186306423604
 30
0.0
 10
11.805394829644095
 20
-2.6697767469618054
 30
0.0
 10
10.227196587456596
 20
-2.4537692599826388
 30
0.0
 10
9.2868577745225682
 20
-1.7520033094618055
 30
0.0
  0
SPLINE
  5
9C
100
AcDbEntity
  8
LIVELLO_1
 62
     7
100
AcDbSpline
210
0.0
220
0.0
230
1.0
 70
     8
 71
     3
 72
    23
 73
    19
 74
     0
 42
0.00000001
 43
0.00000001
 40
0.0
 40
0.0
 40
0.0
 40
0.0
 40
1.0
 40
1.0
 40
1.0
 40
2.0
 40
2.0
 40
2.0
 40
3.0
 40
3.0
 40
3.0
 40
4.0
 40
4.0
 40
4.0
 40
5.0
 40
5.0
 40
5.0
 40
6.0
 40
6.0
 40
6.0
 40
6.0
 10
6.0153951009114577
 20
7.6672322591145825
 30
0.0
 10
6.0153951009114577
 20
7.6672322591145825
 30
0.0
 10
6.4145094129774298
 20
6.0831773546006938
 30
0.0
 10
6.4145094129774298
 20
6.0831773546006938
 30
0.0
 10
5.2705654568142357
 20
5.284604220920138
 30
0.0
 10
4.4270338270399305
 20
4.4412448459201386
 30
0.0
 10
3.1544155544704857
 20
4.617978244357638
 30
0.0
 10
2.5463562011718746
 20
4.6982489691840277
 30
0.0
 10
1.6699239095052081
 20
3.5172702365451385
 30
0.0
 10
1.1369676378038194
 20
3.8772827148437496
 30
0.0
 10
1.1369676378038194
 20
3.8772827148437496
 30
0.0
 10
1.8457960340711803
 20
7.4718953450520829
 30
0.0
 10
1.8457960340711803
 20
7.4718953450520829
 30
0.0
 10
2.8817362467447913
 20
8.4778632269965275
 30
0.0
 10
3.8734069824218746
 20
8.7228095160590264
 30
0.0
 10
5.1079569498697914
 20
8.9367499457465271
 30
0.0
 10
5.1079569498697914
 20
8.9367499457465271
 30
0.0
 10
6.0153951009114577
 20
7.6672322591145825
 30
0.0
 10
6.0153951009114577
 20
7.6672322591145825
 30
0.0
  0
SPLINE
  5
9B
100
AcDbEntity
  8
LIVELLO_1
 62
     7
100
AcDbSpline
210
0.0
220
0.0
230
1.0
 70
     8
 71
     3
 72
    23
 73
    19
 74
     0
 42
0.00000001
 43
0.00000001
 40
0.0
 40
0.0
 40
0.0
 40
0.0
 40
1.0
 40
1.0
 40
1.0
 40
2.0
 40
2.0
 40
2.0
 40
3.0
 40
3.0
 40
3.0
 40
4.0
 40
4.0
 40
4.0
 40
5.0
 40
5.0
 40
5.0
 40
6.0
 40
6.0
 40
6.0
 40
6.0
 10
-7.3948113335503463
 20
-1.4023261176215276
 30
0.0
 10
-7.3948113335503463
 20
-1.4023261176215276
 30
0.0
 10
-7.2558017306857634
 20
-3.3322686089409719
 30
0.0
 10
-7.2558017306857634
 20
-3.3322686089409719
 30
0.0
 10
-8.0088996039496525
 20
-3.7046834309895829
 30
0.0
 10
-8.5110222710503471
 20
-3.924825032552083
 30
0.0
 10
-9.2599860297309018
 20
-4.2049112955729164
 30
0.0
 10
-9.2599860297309018
 20
-4.2049112955729164
 30
0.0
 10
-10.209454345703124
 20
-3.6905585394965272
 30
0.0
 10
-10.209454345703124
 20
-3.6905585394965272
 30
0.0
 10
-10.209454345703124
 20
-3.6905585394965272
 30
0.0
 10
-10.60960218641493
 20
-2.1061591254340275
 30
0.0
 10
-10.60960218641493
 20
-2.1061591254340275
 30
0.0
 10
-10.60960218641493
 20
-2.1061591254340275
 30
0.0
 10
-9.3350891113281236
 20
-1.1349867078993054
 30
0.0
 10
-9.3350891113281236
 20
-1.1349867078993054
 30
0.0
 10
-9.3350891113281236
 20
-1.1349867078993054
 30
0.0
 10
-8.5315205891927075
 20
-0.959975857204861
 30
0.0
 10
-7.3948113335503463
 20
-1.4023261176215276
 30
0.0
  0
SPLINE
  5
9A
100
AcDbEntity
  8
LIVELLO_1
 62
     7
100
AcDbSpline
210
0.0
220
0.0
230
1.0
 70
     8
 71
     3
 72
    20
 73
    16
 74
     0
 42
0.00000001
 43
0.00000001
 40
0.0
 40
0.0
 40
0.0
 40
0.0
 40
1.0
 40
1.0
 40
1.0
 40
2.0
 40
2.0
 40
2.0
 40
3.0
 40
3.0
 40
3.0
 40
4.0
 40
4.0
 40
4.0
 40
5.0
 40
5.0
 40
5.0
 40
5.0
 10
-2.9308288574218748
 20
0.4370103624131944
 30
0.0
 10
-2.9359965006510413
 20
-0.8035685221354166
 30
0.0
 10
-2.7981926812065971
 20
-1.5876722547743054
 30
0.0
 10
-2.6192199707031247
 20
-2.7583157009548609
 30
0.0
 10
-3.5676547580295135
 20
-3.2974731445312497
 30
0.0
 10
-3.9781378851996525
 20
-4.1019029405381939
 30
0.0
 10
-4.9493103027343741
 20
-3.9682332356770829
 30
0.0
 10
-5.3732293023003468
 20
-3.9086330837673606
 30
0.0
 10
-5.6757086859809025
 20
-3.8693589952256939
 30
0.0
 10
-6.1015224880642354
 20
-3.8097588433159717
 30
0.0
 10
-6.1252936469184025
 20
-3.1389987521701386
 30
0.0
 10
-6.7857184516059021
 20
-2.953652615017361
 30
0.0
 10
-6.7455830891927073
 20
-2.1946980794270829
 30
0.0
 10
-6.6005445692274298
 20
0.3670749240451389
 30
0.0
 10
-4.5450283474392359
 20
1.0419691297743054
 30
0.0
 10
-2.9308288574218748
 20
0.4370103624131944
 30
0.0
  0
SPLINE
  5
99
100
AcDbEntity
  8
LIVELLO_1
 62
     7
100
AcDbSpline
210
0.0
220
0.0
230
1.0
 70
     8
 71
     3
 72
    20
 73
    16
 74
     0
 42
0.00000001
 43
0.00000001
 40
0.0
 40
0.0
 40
0.0
 40
0.0
 40
1.0
 40
1.0
 40
1.0
 40
2.0
 40
2.0
 40
2.0
 40
3.0
 40
3.0
 40
3.0
 40
4.0
 40
4.0
 40
4.0
 40
5.0
 40
5.0
 40
5.0
 40
5.0
 10
-6.4348354763454854
 20
-6.1203843858506941
 30
0.0
 10
-6.4348354763454854
 20
-6.1203843858506941
 30
0.0
 10
-3.2744771321614579
 20
-6.4555921766493052
 30
0.0
 10
-3.2744771321614579
 20
-6.4555921766493052
 30
0.0
 10
-3.3382113986545137
 20
-7.5935072157118046
 30
0.0
 10
-3.3700785319010413
 20
-8.1657375759548607
 30
0.0
 10
-3.4339850531684024
 20
-9.3012410481770829
 30
0.0
 10
-3.694262017144097
 20
-13.95143093532986
 30
0.0
 10
-7.5326151529947909
 20
-13.71268581814236
 30
0.0
 10
-10.52743665907118
 20
-13.684091525607638
 30
0.0
 10
-10.34639689127604
 20
-10.459826660156249
 30
0.0
 10
-9.2208841959635404
 20
-7.8405205620659713
 30
0.0
 10
-7.2260016547309025
 20
-7.1573581271701379
 30
0.0
 10
-7.2260016547309025
 20
-7.1573581271701379
 30
0.0
 10
-6.4348354763454854
 20
-6.1203843858506941
 30
0.0
 10
-6.4348354763454854
 20
-6.1203843858506941
 30
0.0
  0
POLYLINE
  5
92
100
AcDbEntity
  8
LIVELLO_1
 62
     7
100
AcDb2dPolyline
 66
     1
 10
0.0
 20
0.0
 30
0.0
 70
     1
  0
VERTEX
  5
93
100
AcDbEntity
  8
LIVELLO_1
 62
     7
100
AcDbVertex
100
AcDb2dVertex
 10
-1.305433
 20
-1.84881
 30
0.0
  0
VERTEX
  5
94
100
AcDbEntity
  8
LIVELLO_1
 62
     7
100
AcDbVertex
100
AcDb2dVertex
 10
-0.37853
 20
-2.741779
 30
0.0
  0
VERTEX
  5
95
100
AcDbEntity
  8
LIVELLO_1
 62
     7
100
AcDbVertex
100
AcDb2dVertex
 10
-0.220055
 20
-4.295173
 30
0.0
  0
VERTEX
  5
96
100
AcDbEntity
  8
LIVELLO_1
 62
     7
100
AcDbVertex
100
AcDb2dVertex
 10
-1.47407
 20
-4.887729
 30
0.0
  0
VERTEX
  5
97
100
AcDbEntity
  8
LIVELLO_1
 62
     7
100
AcDbVertex
100
AcDb2dVertex
 10
-1.85372
 20
-2.922991
 30
0.0
  0
SEQEND
  5
98
100
AcDbEntity
  8
LIVELLO_1
 62
     7
  0
SPLINE
  5
91
100
AcDbEntity
  8
LIVELLO_1
 62
     7
100
AcDbSpline
210
0.0
220
0.0
230
1.0
 70
     8
 71
     3
 72
    23
 73
    19
 74
     0
 42
0.00000001
 43
0.00000001
 40
0.0
 40
0.0
 40
0.0
 40
0.0
 40
1.0
 40
1.0
 40
1.0
 40
2.0
 40
2.0
 40
2.0
 40
3.0
 40
3.0
 40
3.0
 40
4.0
 40
4.0
 40
4.0
 40
5.0
 40
5.0
 40
5.0
 40
6.0
 40
6.0
 40
6.0
 40
6.0
 10
6.5514519585503468
 20
1.1673706054687498
 30
0.0
 10
6.5514519585503468
 20
1.1673706054687498
 30
0.0
 10
7.1963738335503464
 20
-0.4497572157118055
 30
0.0
 10
7.1963738335503464
 20
-0.4497572157118055
 30
0.0
 10
6.379541693793402
 20
-0.8139038085937499
 30
0.0
 10
5.9177266438802079
 20
-1.4209296332465275
 30
0.0
 10
5.06885511610243
 20
-1.3055189344618054
 30
0.0
 10
4.2191223144531245
 20
-1.1904527452256943
 30
0.0
 10
3.7933085123697912
 20
-1.1308525933159721
 30
0.0
 10
2.9465040418836801
 20
-1.01544189453125
 30
0.0
 10
2.9322068956163192
 20
-0.1514119466145833
 30
0.0
 10
2.7757995605468748
 20
0.3464043511284722
 30
0.0
 10
2.8242031521267359
 20
1.2004435221354166
 30
0.0
 10
2.9465040418836801
 20
3.3815334743923606
 30
0.0
 10
4.794281005859375
 20
3.6078762478298607
 30
0.0
 10
6.178003607855902
 20
3.227193196614583
 30
0.0
 10
6.178003607855902
 20
3.227193196614583
 30
0.0
 10
6.5514519585503468
 20
1.1673706054687498
 30
0.0
 10
6.5514519585503468
 20
1.1673706054687498
 30
0.0
  0
SPLINE
  5
90
100
AcDbEntity
  8
LIVELLO_1
 62
     7
100
AcDbSpline
210
0.0
220
0.0
230
1.0
 70
     8
 71
     3
 72
    26
 73
    22
 74
     0
 42
0.00000001
 43
0.00000001
 40
0.0
 40
0.0
 40
0.0
 40
0.0
 40
1.0
 40
1.0
 40
1.0
 40
2.0
 40
2.0
 40
2.0
 40
3.0
 40
3.0
 40
3.0
 40
4.0
 40
4.0
 40
4.0
 40
5.0
 40
5.0
 40
5.0
 40
6.0
 40
6.0
 40
6.0
 40
7.0
 40
7.0
 40
7.0
 40
7.0
 10
0.3282314724392361
 20
0.8876288519965278
 30
0.0
 10
0.3282314724392361
 20
0.8876288519965278
 30
0.0
 10
1.520751274956597
 20
0.3443372938368055
 30
0.0
 10
1.520751274956597
 20
0.3443372938368055
 30
0.0
 10
1.520751274956597
 20
0.3443372938368055
 30
0.0
 10
1.6780198838975693
 20
-1.2049221462673609
 30
0.0
 10
1.6780198838975693
 20
-1.2049221462673609
 30
0.0
 10
1.0649651421440971
 20
-1.2193915473090278
 30
0.0
 10
0.6853156195746527
 20
-1.4536580403645831
 30
0.0
 10
0.078289794921875
 20
-1.369597710503472
 30
0.0
 10
-0.5893697102864582
 20
-1.2789916992187498
 30
0.0
 10
-0.710809326171875
 20
-0.2110120985243055
 30
0.0
 10
-1.1695237901475692
 20
0.33021240234375
 30
0.0
 10
-1.1695237901475692
 20
0.33021240234375
 30
0.0
 10
-1.0821906195746527
 20
1.943206108940972
 30
0.0
 10
-1.0821906195746527
 20
1.943206108940972
 30
0.0
 10
-1.0821906195746527
 20
1.943206108940972
 30
0.0
 10
-0.0688157823350694
 20
2.5688354492187497
 30
0.0
 10
-0.0688157823350694
 20
2.5688354492187497
 30
0.0
 10
-0.0688157823350694
 20
2.5688354492187497
 30
0.0
 10
0.3282314724392361
 20
0.8876288519965278
 30
0.0
 10
0.3282314724392361
 20
0.8876288519965278
 30
0.0
  0
SPLINE
  5
8F
100
AcDbEntity
  8
LIVELLO_1
 62
     7
100
AcDbSpline
210
0.0
220
0.0
230
1.0
 70
     8
 71
     3
 72
    17
 73
    13
 74
     0
 42
0.00000001
 43
0.00000001
 40
0.0
 40
0.0
 40
0.0
 40
0.0
 40
1.0
 40
1.0
 40
1.0
 40
2.0
 40
2.0
 40
2.0
 40
3.0
 40
3.0
 40
3.0
 40
4.0
 40
4.0
 40
4.0
 40
4.0
 10
4.1328226725260411
 20
-11.389657931857638
 30
0.0
 10
3.1595831976996527
 20
-12.402171495225693
 30
0.0
 10
2.5093214246961804
 20
-13.079132758246526
 30
0.0
 10
1.3581427680121527
 20
-12.920658365885416
 30
0.0
 10
-0.0965488009982639
 20
-12.722909884982638
 30
0.0
 10
-1.2065585666232639
 20
-10.659297688802083
 30
0.0
 10
-1.0780565049913193
 20
-8.3817450629340264
 30
0.0
 10
-0.9555833604600693
 20
-6.1985880533854161
 30
0.0
 10
1.0628980848524305
 20
-3.9906263563368052
 30
0.0
 10
2.0258022732204859
 20
-5.3652194552951382
 30
0.0
 10
3.2067810058593746
 20
-7.1511569552951384
 30
0.0
 10
3.3437235514322912
 20
-9.0831665039062486
 30
0.0
 10
4.1328226725260411
 20
-11.389657931857638
 30
0.0
  0
LINE
  5
8E
100
AcDbEntity
  8
LIVELLO_1
 62
     7
100
AcDbLine
 10
1.051529
 20
-5.233617
 30
0.0
 11
2.025802
 21
-5.365219
 31
0.0
  0
SPLINE
  5
8D
100
AcDbEntity
  8
LIVELLO_1
 62
     7
100
AcDbSpline
210
0.0
220
0.0
230
1.0
 70
     8
 71
     3
 72
    14
 73
    10
 74
     0
 42
0.00000001
 43
0.00000001
 40
0.0
 40
0.0
 40
0.0
 40
0.0
 40
1.0
 40
1.0
 40
1.0
 40
2.0
 40
2.0
 40
2.0
 40
3.0
 40
3.0
 40
3.0
 40
3.0
 10
7.1583055284288184
 20
-8.3014743381076386
 30
0.0
 10
6.7941589355468741
 20
-8.2539320203993043
 30
0.0
 10
6.5926208496093741
 20
-8.6080878363715279
 30
0.0
 10
6.2283020019531241
 20
-8.5584784613715268
 30
0.0
 10
4.2253234863281248
 20
-8.2828708224826375
 30
0.0
 10
3.161650254991319
 20
-5.4599595811631936
 30
0.0
 10
2.8447014702690971
 20
-2.359029134114583
 30
0.0
 10
5.1120910644531241
 20
-2.2849595811631942
 30
0.0
 10
6.6224209255642359
 20
-4.7871324327256941
 30
0.0
 10
7.1583055284288184
 20
-8.3014743381076386
 30
0.0
  0
SPLINE
  5
8C
100
AcDbEntity
  8
LIVELLO_1
 62
     7
100
AcDbSpline
210
0.0
220
0.0
230
1.0
 70
     8
 71
     3
 72
    20
 73
    16
 74
     0
 42
0.00000001
 43
0.00000001
 40
0.0
 40
0.0
 40
0.0
 40
0.0
 40
1.0
 40
1.0
 40
1.0
 40
2.0
 40
2.0
 40
2.0
 40
3.0
 40
3.0
 40
3.0
 40
4.0
 40
4.0
 40
4.0
 40
5.0
 40
5.0
 40
5.0
 40
5.0
 10
-28.942505560980901
 20
5.0234659830729163
 30
0.0
 10
-29.900414360894093
 20
4.5790486653645832
 30
0.0
 10
-30.89311862521701
 20
3.7477471245659717
 30
0.0
 10
-30.89311862521701
 20
2.1385430230034719
 30
0.0
 10
-30.89311862521701
 20
1.4760511610243054
 30
0.0
 10
-30.466099039713537
 20
0.922768825954861
 30
0.0
 10
-30.043385823567707
 20
0.922768825954861
 30
0.0
 10
-28.694630940755207
 20
0.922768825954861
 30
0.0
 10
-27.279041205512151
 20
2.0276109483506941
 30
0.0
 10
-27.279041205512151
 20
4.1366984049479161
 30
0.0
 10
-27.279041205512151
 20
5.6325588650173604
 30
0.0
 10
-28.518758816189234
 20
5.8527004665798605
 30
0.0
 10
-29.476495361328123
 20
5.8527004665798605
 30
0.0
 10
-29.476495361328123
 20
5.8527004665798605
 30
0.0
 10
-28.942505560980901
 20
5.0234659830729163
 30
0.0
 10
-28.942505560980901
 20
5.0234659830729163
 30
0.0
  0
SPLINE
  5
8B
100
AcDbEntity
  8
LIVELLO_1
 62
     7
100
AcDbSpline
210
0.0
220
0.0
230
1.0
 70
     8
 71
     3
 72
    20
 73
    16
 74
     0
 42
0.00000001
 43
0.00000001
 40
0.0
 40
0.0
 40
0.0
 40
0.0
 40
1.0
 40
1.0
 40
1.0
 40
2.0
 40
2.0
 40
2.0
 40
3.0
 40
3.0
 40
3.0
 40
4.0
 40
4.0
 40
4.0
 40
5.0
 40
5.0
 40
5.0
 40
5.0
 10
-29.370558675130205
 20
-6.4476684570312495
 30
0.0
 10
-30.290226915147567
 20
-7.1122273763020827
 30
0.0
 10
-31.460009087456594
 20
-7.3344360351562496
 30
0.0
 10
-31.460009087456594
 20
-8.9391615125868054
 30
0.0
 10
-31.460009087456594
 20
-10.659297688802083
 30
0.0
 10
-30.32726169162326
 20
-11.657341851128471
 30
0.0
 10
-29.22655368381076
 20
-11.657341851128471
 30
0.0
 10
-28.339613850911455
 20
-11.657341851128471
 30
0.0
 10
-27.845931667751735
 20
-10.106015353732637
 30
0.0
 10
-27.845931667751735
 20
-8.7190199110243043
 30
0.0
 10
-27.845931667751735
 20
-7.723042805989583
 30
0.0
 10
-28.339613850911455
 20
-7.1676934136284718
 30
0.0
 10
-28.836568874782984
 20
-6.6140665690104159
 30
0.0
 10
-28.836568874782984
 20
-6.6140665690104159
 30
0.0
 10
-29.370558675130205
 20
-6.4476684570312495
 30
0.0
 10
-29.370558675130205
 20
-6.4476684570312495
 30
0.0
  0
POLYLINE
  5
85
100
AcDbEntity
  8
LIVELLO_1
 62
     7
100
AcDb2dPolyline
 66
     1
 10
0.0
 20
0.0
 30
0.0
 70
     1
  0
VERTEX
  5
86
100
AcDbEntity
  8
LIVELLO_1
 62
     7
100
AcDbVertex
100
AcDb2dVertex
 10
-19.868641
 20
14.708318
 30
0.0
  0
VERTEX
  5
87
100
AcDbEntity
  8
LIVELLO_1
 62
     7
100
AcDbVertex
100
AcDb2dVertex
 10
21.136436
 20
14.864726
 30
0.0
  0
VERTEX
  5
88
100
AcDbEntity
  8
LIVELLO_1
 62
     7
100
AcDbVertex
100
AcDb2dVertex
 10
21.056165
 20
-2.78312
 30
0.0
  0
VERTEX
  5
89
100
AcDbEntity
  8
LIVELLO_1
 62
     7
100
AcDbVertex
100
AcDb2dVertex
 10
-19.873808
 20
-2.78312
 30
0.0
  0
SEQEND
  5
8A
100
AcDbEntity
  8
LIVELLO_1
 62
     7
  0
ENDBLK
  5
F9
100
AcDbEntity
  8
LIVELLO_1
100
AcDbBlockEnd
  0
BLOCK
  5
115
100
AcDbEntity
  8
LIVELLO_1
 62
     7
100
AcDbBlockBegin
  2
AI9-BLK3
 70
     0
 10
0.0
 20
0.0
 30
0.0
  3
AI9-BLK3
  1

  0
INSERT
  5
117
100
AcDbEntity
  8
LIVELLO_1
 62
     7
100
AcDbBlockReference
  2
AI9-BLK4
 10
0.013867
 20
-0.01335
 30
0.0
  0
ENDBLK
  5
11A
100
AcDbEntity
  8
LIVELLO_1
100
AcDbBlockEnd
  0
BLOCK
  5
118
100
AcDbEntity
  8
LIVELLO_1
 62
     7
100
AcDbBlockBegin
  2
AI9-BLK4
 70
     0
 10
0.0
 20
0.0
 30
0.0
  3
AI9-BLK4
  1

  0
ENDBLK
  5
119
100
AcDbEntity
  8
LIVELLO_1
100
AcDbBlockEnd
  0
ENDSEC
  0
SECTION
  2
ENTITIES
  0
INSERT
  5
2A
100
AcDbEntity
  8
LIVELLO_1
 62
     7
100
AcDbBlockReference
  2
AI9-BLK1
 10
93.908738
 20
160.969503
 30
0.0
  0
ENDSEC
  0
SECTION
  2
OBJECTS
  0
DICTIONARY
  5
19
100
AcDbDictionary
280
     0
281
     1
  3
ACAD_GROUP
350
1A
  3
ACAD_MLINESTYLE
350
1B
  3
ACAD_LAYOUT
350
1E
  3
ACAD_PLOTSETTINGS
350
22
  3
ACAD_PLOTSTYLENAME
350
1F
  3
ACAD_WIPEOUT_VARS
350
23
  0
DICTIONARY
  5
1A
102
{ACAD_REACTORS
330
19
102
}
100
AcDbDictionary
280
     0
281
     1
  0
DICTIONARY
  5
1B
102
{ACAD_REACTORS
330
19
102
}
100
AcDbDictionary
280
     0
281
     1
  3
Standard
350
1C
  0
MLINESTYLE
  5
1C
102
{ACAD_REACTORS
330
1B
102
}
100
AcDbMlineStyle
  2
Standard
 70
     0
  3

 62
     0
 51
90.0
 52
90.0
 71
     2
 49
0.5
 62
   256
  6
ByLayer
 49
-0.5
 62
   256
  6
ByLayer
  0
ACDBDICTIONARYWDFLT
  5
1F
102
{ACAD_REACTORS
330
19
102
}
100
AcDbDictionary
281
     1
  3
Normal
350
1D
100
AcDbDictionaryWithDefault
340
1D
  0
ACDBPLACEHOLDER
  5
1D
102
{ACAD_REACTORS
330
1F
102
}
  0
LAYOUT
  5
20
102
{ACAD_REACTORS
330
1E
102
}
100
AcDbPlotSettings
  1

  2

  4

  6

 40
0.0
 41
0.0
 42
0.0
 43
0.0
 44
0.0
 45
0.0
 46
0.0
 47
0.0
 48
0.0
 49
0.0
140
0.0
141
0.0
142
1.0
143
1.0
 70
  1024
 72
     0
 73
     0
 74
     0
  7

 75
     0
147
1.0
148
0.0
149
0.0
100
AcDbLayout
  1
Model
 70
     0
 71
     0
 10
0.0
 20
0.0
 11
0.0
 21
0.0
 12
0.0
 22
0.0
 32
0.0
 14
0.0
 24
0.0
 34
0.0
 15
0.0
 25
0.0
 35
0.0
146
0.0
 13
0.0
 23
0.0
 33
0.0
 16
0.0
 26
0.0
 36
0.0
 17
0.0
 27
0.0
 37
0.0
 76
     0
330
A
331
0
345
0
346
0
  0
LAYOUT
  5
21
102
{ACAD_REACTORS
330
1E
102
}
100
AcDbPlotSettings
  1

  2

  4

  6

 40
0.0
 41
0.0
 42
0.0
 43
0.0
 44
0.0
 45
0.0
 46
0.0
 47
0.0
 48
0.0
 49
0.0
140
0.0
141
0.0
142
1.0
143
1.0
 70
     0
 72
     0
 73
     0
 74
     0
  7

 75
     0
147
1.0
148
0.0
149
0.0
100
AcDbLayout
  1
Layout1
 70
     0
 71
     0
 10
0.0
 20
0.0
 11
0.0
 21
0.0
 12
0.0
 22
0.0
 32
0.0
 14
0.0
 24
0.0
 34
0.0
 15
0.0
 25
0.0
 35
0.0
146
0.0
 13
0.0
 23
0.0
 33
0.0
 16
0.0
 26
0.0
 36
0.0
 17
0.0
 27
0.0
 37
0.0
 76
     0
330
B
331
0
345
0
346
0
  0
DICTIONARY
  5
1E
102
{ACAD_REACTORS
330
19
102
}
100
AcDbDictionary
280
     0
281
     1
  3
Layout1
350
21
  3
Model
350
20
  0
DICTIONARY
  5
22
102
{ACAD_REACTORS
330
19
102
}
100
AcDbDictionary
280
     0
281
     1
  0
WIPEOUTVARIABLES
  5
23
100
AcDbWipeoutVariables
 70
     1
  0
ENDSEC
  0
EOF
