  0
SECTION
  2
HEADER
  9
$ACADVER
  1
AC1015
  9
$ACADMAINTVER
 70
     6
  9
$DWGCODEPAGE
  3
ANSI_932
  9
$INSBASE
 10
0.0
 20
0.0
 30
0.0
  9
$EXTMIN
 10
18.697222
 20
0.0
 30
1.000000E+20
  9
$EXTMAX
 10
161.773071
 20
284.244838
 30
-1.000000E+20
  9
$LIMMIN
 10
18.697222
 20
0.0
  9
$LIMMAX
 10
161.773071
 20
284.244838
  9
$ORTHOMODE
 70
     0
  9
$REGENMODE
 70
     1
  9
$FILLMODE
 70
     1
  9
$QTEXTMODE
 70
     0
  9
$MIRRTEXT
 70
     1
  9
$LTSCALE
 40
1.0
  9
$ATTMODE
 70
     1
  9
$TEXTSIZE
 40
0.2
  9
$TRACEWID
 40
0.05
  9
$TEXTSTYLE
  7
Standard
  9
$CLAYER
  8
0
  9
$CELTYPE
  6
Continuous
  9
$CECOLOR
 62
   256
  9
$CELTSCALE
 40
1.0
  9
$DISPSILH
 70
     0
  9
$DIMSCALE
 40
1.0
  9
$DIMASZ
 40
0.18
  9
$DIMEXO
 40
0.0625
  9
$DIMDLI
 40
0.38
  9
$DIMRND
 40
0.0
  9
$DIMDLE
 40
0.0
  9
$DIMEXE
 40
0.18
  9
$DIMTP
 40
0.0
  9
$DIMTM
 40
0.0
  9
$DIMTXT
 40
0.18
  9
$DIMCEN
 40
0.09
  9
$DIMTSZ
 40
0.0
  9
$DIMTOL
 70
     0
  9
$DIMLIM
 70
     0
  9
$DIMTIH
 70
     1
  9
$DIMTOH
 70
     1
  9
$DIMSE1
 70
     0
  9
$DIMSE2
 70
     0
  9
$DIMTAD
 70
     0
  9
$DIMZIN
 70
     0
  9
$DIMBLK
  1

  9
$DIMASO
 70
     1
  9
$DIMSHO
 70
     1
  9
$DIMPOST
  1

  9
$DIMAPOST
  1

  9
$DIMALT
 70
     0
  9
$DIMALTD
 70
     2
  9
$DIMALTF
 40
25.4
  9
$DIMLFAC
 40
1.0
  9
$DIMTOFL
 70
     0
  9
$DIMTVP
 40
0.0
  9
$DIMTIX
 70
     0
  9
$DIMSOXD
 70
     0
  9
$DIMSAH
 70
     0
  9
$DIMBLK1
  1

  9
$DIMBLK2
  1

  9
$DIMSTYLE
  2
Standard
  9
$DIMCLRD
 70
     0
  9
$DIMCLRE
 70
     0
  9
$DIMCLRT
 70
     0
  9
$DIMTFAC
 40
1.0
  9
$DIMGAP
 40
0.09
  9
$DIMJUST
 70
     0
  9
$DIMSD1
 70
     0
  9
$DIMSD2
 70
     0
  9
$DIMTOLJ
 70
     1
  9
$DIMTZIN
 70
     0
  9
$DIMALTZ
 70
     0
  9
$DIMALTTZ
 70
     0
  9
$DIMUPT
 70
     0
  9
$DIMDEC
 70
     4
  9
$DIMTDEC
 70
     4
  9
$DIMALTU
 70
     2
  9
$DIMALTTD
 70
     2
  9
$DIMTXSTY
  7
Standard
  9
$DIMAUNIT
 70
     0
  9
$DIMADEC
 70
     0
  9
$DIMALTRND
 40
0.0
  9
$DIMAZIN
 70
     0
  9
$DIMDSEP
 70
     0
  9
$DIMATFIT
 70
     3
  9
$DIMFRAC
 70
     0
  9
$DIMLDRBLK
  1

  9
$DIMLUNIT
 70
     2
  9
$DIMLWD
 70
     0
  9
$DIMLWE
 70
     0
  9
$DIMTMOVE
 70
     0
  9
$LUNITS
 70
     2
  9
$LUPREC
 70
     4
  9
$SKETCHINC
 40
0.1
  9
$FILLETRAD
 40
0.0
  9
$AUNITS
 70
     0
  9
$AUPREC
 70
     0
  9
$MENU
  1
acad
  9
$ELEVATION
 40
0.0
  9
$PELEVATION
 40
0.0
  9
$THICKNESS
 40
0.0
  9
$LIMCHECK
 70
     0
  9
$CHAMFERA
 40
0.0
  9
$CHAMFERB
 40
0.0
  9
$CHAMFERC
 40
0.0
  9
$CHAMFERD
 40
0.0
  9
$SKPOLY
 70
     0
  9
$TDCREATE
 40
0.000000000
  9
$TDUCREATE
 40
0.000000000
  9
$TDUPDATE
 40
0.000000000
  9
$TDUUPDATE
 40
0.000000000
  9
$TDINDWG
 40
0.0000000000
  9
$TDUSRTIMER
 40
0.0000000000
  9
$USRTIMER
 70
     1
  9
$ANGBASE
 50
0.0
  9
$ANGDIR
 70
     0
  9
$PDMODE
 70
     0
  9
$PDSIZE
 40
0.0
  9
$PLINEWID
 40
0.0
  9
$SPLFRAME
 70
     0
  9
$SPLINETYPE
 70
     6
  9
$SPLINESEGS
 70
     8
  9
$HANDSEED
  5
DB
  9
$SURFTAB1
 70
     6
  9
$SURFTAB2
 70
     6
  9
$SURFTYPE
 70
     6
  9
$SURFU
 70
     6
  9
$SURFV
 70
     6
  9
$UCSBASE
  2

  9
$UCSNAME
  2

  9
$UCSORG
 10
0.0
 20
0.0
 30
0.0
  9
$UCSXDIR
 10
1.0
 20
0.0
 30
0.0
  9
$UCSYDIR
 10
0.0
 20
1.0
 30
0.0
  9
$UCSORTHOREF
  2

  9
$UCSORTHOVIEW
 70
     0
  9
$UCSORGTOP
 10
0.0
 20
0.0
 30
0.0
  9
$UCSORGBOTTOM
 10
0.0
 20
0.0
 30
0.0
  9
$UCSORGLEFT
 10
0.0
 20
0.0
 30
0.0
  9
$UCSORGRIGHT
 10
0.0
 20
0.0
 30
0.0
  9
$UCSORGFRONT
 10
0.0
 20
0.0
 30
0.0
  9
$UCSORGBACK
 10
0.0
 20
0.0
 30
0.0
  9
$PUCSBASE
  2

  9
$PUCSNAME
  2

  9
$PUCSORG
 10
0.0
 20
0.0
 30
0.0
  9
$PUCSXDIR
 10
1.0
 20
0.0
 30
0.0
  9
$PUCSYDIR
 10
0.0
 20
1.0
 30
0.0
  9
$PUCSORTHOREF
  2

  9
$PUCSORTHOVIEW
 70
     0
  9
$PUCSORGTOP
 10
0.0
 20
0.0
 30
0.0
  9
$PUCSORGBOTTOM
 10
0.0
 20
0.0
 30
0.0
  9
$PUCSORGLEFT
 10
0.0
 20
0.0
 30
0.0
  9
$PUCSORGRIGHT
 10
0.0
 20
0.0
 30
0.0
  9
$PUCSORGFRONT
 10
0.0
 20
0.0
 30
0.0
  9
$PUCSORGBACK
 10
0.0
 20
0.0
 30
0.0
  9
$USERI1
 70
     0
  9
$USERI2
 70
     0
  9
$USERI3
 70
     0
  9
$USERI4
 70
     0
  9
$USERI5
 70
     0
  9
$USERR1
 40
0.0
  9
$USERR2
 40
0.0
  9
$USERR3
 40
0.0
  9
$USERR4
 40
0.0
  9
$USERR5
 40
0.0
  9
$WORLDVIEW
 70
     1
  9
$SHADEDGE
 70
     3
  9
$SHADEDIF
 70
    70
  9
$TILEMODE
 70
     1
  9
$MAXACTVP
 70
    16
  9
$PINSBASE
 10
0.0
 20
0.0
 30
0.0
  9
$PLIMCHECK
 70
     0
  9
$PEXTMIN
 10
1.000000E+20
 20
1.000000E+20
 30
1.000000E+20
  9
$PEXTMAX
 10
-1.000000E+20
 20
-1.000000E+20
 30
-1.000000E+20
  9
$PLIMMIN
 10
0.0
 20
0.0
  9
$PLIMMAX
 10
12.0
 20
9.0
  9
$UNITMODE
 70
     0
  9
$VISRETAIN
 70
     0
  9
$PLINEGEN
 70
     1
  9
$PSLTSCALE
 70
     0
  9
$TREEDEPTH
 70
  3020
  9
$CMLSTYLE
  2
Standard
  9
$CMLJUST
 70
     0
  9
$CMLSCALE
 40
1.0
  9
$PROXYGRAPHICS
 70
     0
  9
$MEASUREMENT
 70
     1
  9
$CELWEIGHT
370
     0
  9
$ENDCAPS
280
     0
  9
$JOINSTYLE
280
     0
  9
$LWDISPLAY
290
     0
  9
$INSUNITS
 70
     0
  9
$HYPERLINKBASE
  1

  9
$STYLESHEET
  1

  9
$XEDIT
290
     1
  9
$CEPSNTYPE
380
     0
  9
$PSTYLEMODE
290
     1
  9
$FINGERPRINTGUID
  2

  9
$VERSIONGUID
  2

  9
$EXTNAMES
290
     1
  9
$PSVPSCALE
 40
0.0
  0
ENDSEC
  0
SECTION
  2
CLASSES
  0
CLASS
  1
LWPOLYLINE
  2
AcDbPolyline
  3
AutoCAD 2000
 90
    32768
280
     0
281
     1
  0
CLASS
  1
IMAGE
  2
AcDbRasterImage
  3
ISM
 90
    32895
280
     0
281
     1
  0
CLASS
  1
OLE2FRAME
  2
AcDbOle2Frame
  3
AutoCAD 2000
 90
    32768
280
     0
281
     1
  0
CLASS
  1
HATCH
  2
AcDbHatch
  3
AutoCAD 2000
 90
    32768
280
     0
281
     1
  0
CLASS
  1
DICTIONARYVAR
  2
AcDbDictionaryVar
  3
AutoCAD 2000
 90
    32768
280
     0
281
     0
  0
CLASS
  1
RASTERVARIABLES
  2
AcDbRasterVariables
  3
ISM
 90
    32768
280
     0
281
     0
  0
CLASS
  1
IMAGEDEF
  2
AcDbRasterImageDef
  3
ISM
 90
    32768
280
     0
281
     0
  0
CLASS
  1
IMAGEDEF_REACTOR
  2
AcDbRasterImageDefReactor
  3
ISM
 90
    32769
280
     0
281
     0
  0
CLASS
  1
IDBUFFER
  2
AcDbIdBuffer
  3
AutoCAD 2000
 90
    32768
280
     0
281
     0
  0
CLASS
  1
SPATIAL_FILTER
  2
AcDbSpatialFilter
  3
AutoCAD 2000
 90
    32768
280
     0
281
     0
  0
CLASS
  1
XRECORD
  2
AcDbXrecord
  3
AutoCAD 2000
 90
    32768
280
     0
281
     0
  0
CLASS
  1
SORTENTSTABLE
  2
AcDbSortentsTable
  3
AutoCAD 2000
 90
    32768
280
     0
281
     0
  0
CLASS
  1
LAYER_INDEX
  2
AcDbLayerIndex
  3
AutoCAD 2000
 90
    32768
280
     0
281
     0
  0
CLASS
  1
SPATIAL_INDEX
  2
AcDbSpatialIndex
  3
AutoCAD 2000
 90
    32768
280
     0
281
     0
  0
CLASS
  1
OBJECT_PTR
  2
CAseDLPNTableRecord
  3
"ASE-LPNTableRecord"
 90
    32769
280
     0
281
     0
  0
CLASS
  1
LAYOUT
  2
AcDbLayout
  3
AutoCAD 2000
 90
        0
280
     0
281
     0
  0
CLASS
  1
PLOTSETTINGS
  2
AcDbPlotSettings
  3
AutoCAD 2000
 90
    32768
280
     0
281
     0
  0
CLASS
  1
ACDBDICTIONARYWDFLT
  2
AcDbDictionaryWithDefault
  3
AutoCAD 2000
 90
        0
280
     0
281
     0
  0
CLASS
  1
ACDBPLACEHOLDER
  2
AcDbPlaceHolder
  3
AutoCAD 2000
 90
        0
280
     0
281
     0
  0
CLASS
  1
VBA_PROJECT
  2
AcDbVbaProject
  3
acadvba
 90
    32768
280
     0
281
     0
  0
CLASS
  1
WIPEOUT
  2
AcDbWipeout
  3
WipeOut|AutoCAD Express Tool|expresstools@autodesk.com
 90
    32895
280
     0
281
     1
  0
CLASS
  1
WIPEOUTVARIABLES
  2
AcDbWipeoutVariables
  3
WipeOut|AutoCAD Express Tool|expresstools@autodesk.com
 90
        0
280
     0
281
     0
  0
CLASS
  1
RTEXT
  2
RText
  3
RText|AutoCAD Express Tool|expresstools@autodesk.com
 90
    32768
280
     0
281
     1
  0
CLASS
  1
ARCALIGNEDTEXT
  2
AcDbArcAlignedText
  3
ATEXT|AutoCAD Express Tool|expresstools@autodesk.com
 90
    32768
280
     0
281
     1
  0
ENDSEC
  0
SECTION
  2
TABLES
  0
TABLE
  2
VPORT
  5
7
100
AcDbSymbolTable
 70
     1
  0
VPORT
  5
15
100
AcDbSymbolTableRecord
100
AcDbViewportTableRecord
  2
*ACTIVE
 70
     0
 10
0.0
 20
0.0
 11
1.0
 21
1.0
 12
6.591288
 22
4.579184
 13
0.0
 23
0.0
 14
1.0
 24
1.0
 15
0.0
 25
0.0
 16
0.0
 26
0.0
 36
1.0
 17
0.0
 27
0.0
 37
0.0
 40
9.158369
 41
0.688564
 42
50.0
 43
0.0
 44
0.0
 50
0.0
 51
0.0
 71
     0
 72
   100
 73
     1
 74
     1
 75
     0
 76
     0
 77
     0
 78
     0
281
     0
 65
     0
110
0.0
120
0.0
130
0.0
111
1.0
121
0.0
131
0.0
112
0.0
122
1.0
132
0.0
345
0
346
0
 79
     0
146
0.0
  0
ENDTAB
  0
TABLE
  2
LTYPE
  5
4
100
AcDbSymbolTable
 70
     3
  0
LTYPE
  5
11
100
AcDbSymbolTableRecord
100
AcDbLinetypeTableRecord
  2
ByBlock
 70
    64
  3

 72
    65
 73
     0
 40
0.0
  0
LTYPE
  5
12
100
AcDbSymbolTableRecord
100
AcDbLinetypeTableRecord
  2
ByLayer
 70
    64
  3

 72
    65
 73
     0
 40
0.0
  0
LTYPE
  5
13
100
AcDbSymbolTableRecord
100
AcDbLinetypeTableRecord
  2
Continuous
 70
    64
  3
Solid line
 72
    65
 73
     0
 40
0.0
  0
ENDTAB
  0
TABLE
  2
LAYER
  5
2
100
AcDbSymbolTable
 70
     2
  0
LAYER
  5
14
100
AcDbSymbolTableRecord
100
AcDbLayerTableRecord
  2
0
 70
     0
 62
     7
  6
Continuous
290
     1
370
    -3
390
1D
  0
LAYER
  5
28
100
AcDbSymbolTableRecord
100
AcDbLayerTableRecord
  2
LIVELLO_1
 70
     0
 62
   160
  6
Continuous
290
     1
370
    -3
390
1D
  0
ENDTAB
  0
TABLE
  2
STYLE
  5
3
100
AcDbSymbolTable
 70
     5
  0
STYLE
  5
17
100
AcDbSymbolTableRecord
100
AcDbTextStyleTableRecord
  2
Standard
 70
     0
 40
0.0
 41
1.0
 50
0.0
 71
     0
 42
0.0
  3
txt
  4

  0
STYLE
  5
24
100
AcDbSymbolTableRecord
100
AcDbTextStyleTableRecord
  2
STD
 70
     0
 40
0.0
 41
1.0
 50
0.0
 71
     0
 42
0.0
  3
txt
  4

  0
STYLE
  5
25
100
AcDbSymbolTableRecord
100
AcDbTextStyleTableRecord
  2
TATESTD
 70
     4
 40
0.0
 41
1.0
 50
0.0
 71
     0
 42
0.0
  3
txt
  4

  0
STYLE
  5
26
100
AcDbSymbolTableRecord
100
AcDbTextStyleTableRecord
  2
KANJISTD
 70
     0
 40
0.0
 41
1.0
 50
0.0
 71
     0
 42
0.0
  3
txt
  4
extfont
  0
STYLE
  5
27
100
AcDbSymbolTableRecord
100
AcDbTextStyleTableRecord
  2
KANJITATE
 70
     4
 40
0.0
 41
1.0
 50
0.0
 71
     0
 42
0.0
  3
txt
  4
extfont
  0
ENDTAB
  0
TABLE
  2
VIEW
  5
5
100
AcDbSymbolTable
 70
     0
  0
ENDTAB
  0
TABLE
  2
UCS
  5
6
100
AcDbSymbolTable
 70
     0
  0
ENDTAB
  0
TABLE
  2
APPID
  5
8
100
AcDbSymbolTable
 70
     1
  0
APPID
  5
16
100
AcDbSymbolTableRecord
100
AcDbRegAppTableRecord
  2
ACAD
 70
     0
  0
ENDTAB
  0
TABLE
  2
DIMSTYLE
  5
9
100
AcDbSymbolTable
 70
     1
100
AcDbDimStyleTable
 71
     0
  0
DIMSTYLE
105
18
100
AcDbSymbolTableRecord
100
AcDbDimStyleTableRecord
  2
Standard
 70
     0
  3

  4

 40
1.0
 41
0.18
 42
0.0625
 43
0.38
 44
0.18
 45
0.0
 46
0.0
 47
0.0
 48
0.0
 71
     0
 72
     0
 73
     1
 74
     1
 75
     0
 76
     0
 77
     0
 78
     0
 79
     0
140
0.18
141
0.09
142
0.0
143
25.4
144
1.0
145
0.0
146
1.0
147
0.09
148
0.0
170
     0
171
     2
172
     0
173
     0
174
     0
175
     0
176
     0
177
     0
178
     0
179
     0
271
     4
272
     4
273
     2
274
     2
275
     0
276
     0
277
     2
278
    46
279
     0
280
     0
281
     0
282
     0
283
     1
284
     0
285
     0
286
     0
288
     0
340
17
341
0
342
0
343
0
344
0
371
    -2
372
    -2
  0
ENDTAB
  0
TABLE
  2
BLOCK_RECORD
  5
1
100
AcDbSymbolTable
 70
     4
  0
BLOCK_RECORD
  5
A
100
AcDbSymbolTableRecord
100
AcDbBlockTableRecord
  2
*MODEL_SPACE
340
20
  0
BLOCK_RECORD
  5
B
100
AcDbSymbolTableRecord
100
AcDbBlockTableRecord
  2
*PAPER_SPACE
340
21
  0
BLOCK_RECORD
  5
29
100
AcDbSymbolTableRecord
100
AcDbBlockTableRecord
  2
AI9-BLK1
340
0
102
{BLKREFS
331
2A
102
}
  0
BLOCK_RECORD
  5
54
100
AcDbSymbolTableRecord
100
AcDbBlockTableRecord
  2
AI9-BLK2
340
0
102
{BLKREFS
331
55
102
}
  0
BLOCK_RECORD
  5
57
100
AcDbSymbolTableRecord
100
AcDbBlockTableRecord
  2
AI9-BLK3
340
0
102
{BLKREFS
331
58
102
}
  0
BLOCK_RECORD
  5
5A
100
AcDbSymbolTableRecord
100
AcDbBlockTableRecord
  2
AI9-BLK4
340
0
102
{BLKREFS
331
5B
102
}
  0
ENDTAB
  0
ENDSEC
  0
SECTION
  2
BLOCKS
  0
BLOCK
  5
D
100
AcDbEntity
  8
0
100
AcDbBlockBegin
  2
*MODEL_SPACE
 70
     0
 10
0.0
 20
0.0
 30
0.0
  3
*MODEL_SPACE
  1

  0
ENDBLK
  5
E
100
AcDbEntity
  8
0
100
AcDbBlockEnd
  0
BLOCK
  5
F
100
AcDbEntity
 67
     1
  8
0
100
AcDbBlockBegin
  2
*PAPER_SPACE
 70
     0
 10
0.0
 20
0.0
 30
0.0
  3
*PAPER_SPACE
  1

  0
ENDBLK
  5
10
100
AcDbEntity
 67
     1
  8
0
100
AcDbBlockEnd
  0
BLOCK
  5
2B
100
AcDbEntity
  8
LIVELLO_1
 62
     7
100
AcDbBlockBegin
  2
AI9-BLK1
 70
     0
 10
0.0
 20
0.0
 30
0.0
  3
AI9-BLK1
  1

  0
POLYLINE
  5
D4
100
AcDbEntity
  8
LIVELLO_1
 62
     7
100
AcDb2dPolyline
 66
     1
 10
0.0
 20
0.0
 30
0.0
 70
     1
  0
VERTEX
  5
D5
100
AcDbEntity
  8
LIVELLO_1
 62
     7
100
AcDbVertex
100
AcDb2dVertex
 10
-37.100406
 20
-139.782166
 30
0.0
  0
VERTEX
  5
D6
100
AcDbEntity
  8
LIVELLO_1
 62
     7
100
AcDbVertex
100
AcDb2dVertex
 10
-11.647868
 20
-139.782166
 30
0.0
  0
VERTEX
  5
D7
100
AcDbEntity
  8
LIVELLO_1
 62
     7
100
AcDbVertex
100
AcDb2dVertex
 10
-11.647868
 20
-141.840955
 30
0.0
  0
VERTEX
  5
D8
100
AcDbEntity
  8
LIVELLO_1
 62
     7
100
AcDbVertex
100
AcDb2dVertex
 10
-37.100406
 20
-141.840955
 30
0.0
  0
SEQEND
  5
D9
100
AcDbEntity
  8
LIVELLO_1
 62
     7
  0
POLYLINE
  5
CE
100
AcDbEntity
  8
LIVELLO_1
 62
     7
100
AcDb2dPolyline
 66
     1
 10
0.0
 20
0.0
 30
0.0
 70
     1
  0
VERTEX
  5
CF
100
AcDbEntity
  8
LIVELLO_1
 62
     7
100
AcDbVertex
100
AcDb2dVertex
 10
7.650351
 20
-135.372099
 30
0.0
  0
VERTEX
  5
D0
100
AcDbEntity
  8
LIVELLO_1
 62
     7
100
AcDbVertex
100
AcDb2dVertex
 10
13.748515
 20
-135.372099
 30
0.0
  0
VERTEX
  5
D1
100
AcDbEntity
  8
LIVELLO_1
 62
     7
100
AcDbVertex
100
AcDb2dVertex
 10
13.748515
 20
-136.113483
 30
0.0
  0
VERTEX
  5
D2
100
AcDbEntity
  8
LIVELLO_1
 62
     7
100
AcDbVertex
100
AcDb2dVertex
 10
7.650351
 20
-136.113483
 30
0.0
  0
SEQEND
  5
D3
100
AcDbEntity
  8
LIVELLO_1
 62
     7
  0
SPLINE
  5
CD
100
AcDbEntity
  8
LIVELLO_1
 62
     7
100
AcDbSpline
210
0.0
220
0.0
230
1.0
 70
     8
 71
     3
 72
    29
 73
    25
 74
     0
 42
0.00000001
 43
0.00000001
 40
0.0
 40
0.0
 40
0.0
 40
0.0
 40
1.0
 40
1.0
 40
1.0
 40
2.0
 40
2.0
 40
2.0
 40
3.0
 40
3.0
 40
3.0
 40
4.0
 40
4.0
 40
4.0
 40
5.0
 40
5.0
 40
5.0
 40
6.0
 40
6.0
 40
6.0
 40
7.0
 40
7.0
 40
7.0
 40
8.0
 40
8.0
 40
8.0
 40
8.0
 10
7.7978013780381934
 20
-136.113483344184
 30
0.0
 10
7.7978013780381934
 20
-136.113483344184
 30
0.0
 10
8.0396470811631939
 20
-136.113483344184
 30
0.0
 10
8.0396470811631939
 20
-136.113483344184
 30
0.0
 10
8.5192043728298597
 20
-136.113483344184
 30
0.0
 10
8.9074666341145825
 20
-136.48727620442708
 30
0.0
 10
8.9074666341145825
 20
-136.95133056640623
 30
0.0
 10
8.9074666341145825
 20
-136.95133056640623
 30
0.0
 10
8.9074666341145825
 20
-137.55422227647568
 30
0.0
 10
8.9074666341145825
 20
-137.55422227647568
 30
0.0
 10
8.9074666341145825
 20
-138.01827663845484
 30
0.0
 10
8.5192043728298597
 20
-138.39206949869791
 30
0.0
 10
8.0396470811631939
 20
-138.39206949869791
 30
0.0
 10
8.0396470811631939
 20
-138.39206949869791
 30
0.0
 10
7.7978013780381934
 20
-138.39206949869791
 30
0.0
 10
7.7978013780381934
 20
-138.39206949869791
 30
0.0
 10
7.3160047743055552
 20
-138.39206949869791
 30
0.0
 10
6.924641927083333
 20
-138.01827663845484
 30
0.0
 10
6.924641927083333
 20
-137.55422227647568
 30
0.0
 10
6.924641927083333
 20
-137.55422227647568
 30
0.0
 10
6.924641927083333
 20
-136.95133056640623
 30
0.0
 10
6.924641927083333
 20
-136.95133056640623
 30
0.0
 10
6.924641927083333
 20
-136.48727620442708
 30
0.0
 10
7.3160047743055552
 20
-136.113483344184
 30
0.0
 10
7.7978013780381934
 20
-136.113483344184
 30
0.0
  0
SPLINE
  5
CC
100
AcDbEntity
  8
LIVELLO_1
 62
     7
100
AcDbSpline
210
0.0
220
0.0
230
1.0
 70
     8
 71
     3
 72
    29
 73
    25
 74
     0
 42
0.00000001
 43
0.00000001
 40
0.0
 40
0.0
 40
0.0
 40
0.0
 40
1.0
 40
1.0
 40
1.0
 40
2.0
 40
2.0
 40
2.0
 40
3.0
 40
3.0
 40
3.0
 40
4.0
 40
4.0
 40
4.0
 40
5.0
 40
5.0
 40
5.0
 40
6.0
 40
6.0
 40
6.0
 40
7.0
 40
7.0
 40
7.0
 40
8.0
 40
8.0
 40
8.0
 40
8.0
 10
9.7806260850694429
 20
-136.113483344184
 30
0.0
 10
9.7806260850694429
 20
-136.113483344184
 30
0.0
 10
11.620479329427083
 20
-136.113483344184
 30
0.0
 10
11.620479329427083
 20
-136.113483344184
 30
0.0
 10
12.102103678385415
 20
-136.113483344184
 30
0.0
 10
12.489332411024304
 20
-136.48727620442708
 30
0.0
 10
12.489332411024304
 20
-136.95133056640623
 30
0.0
 10
12.489332411024304
 20
-136.95133056640623
 30
0.0
 10
12.489332411024304
 20
-137.55422227647568
 30
0.0
 10
12.489332411024304
 20
-137.55422227647568
 30
0.0
 10
12.489332411024304
 20
-138.01827663845484
 30
0.0
 10
12.102103678385415
 20
-138.39206949869791
 30
0.0
 10
11.620479329427083
 20
-138.39206949869791
 30
0.0
 10
11.620479329427083
 20
-138.39206949869791
 30
0.0
 10
9.7806260850694429
 20
-138.39206949869791
 30
0.0
 10
9.7806260850694429
 20
-138.39206949869791
 30
0.0
 10
9.2990017361111104
 20
-138.39206949869791
 30
0.0
 10
8.9074666341145825
 20
-138.01827663845484
 30
0.0
 10
8.9074666341145825
 20
-137.55422227647568
 30
0.0
 10
8.9074666341145825
 20
-137.55422227647568
 30
0.0
 10
8.9074666341145825
 20
-136.95133056640623
 30
0.0
 10
8.9074666341145825
 20
-136.95133056640623
 30
0.0
 10
8.9074666341145825
 20
-136.48727620442708
 30
0.0
 10
9.2990017361111104
 20
-136.113483344184
 30
0.0
 10
9.7806260850694429
 20
-136.113483344184
 30
0.0
  0
POLYLINE
  5
C6
100
AcDbEntity
  8
LIVELLO_1
 62
     7
100
AcDb2dPolyline
 66
     1
 10
0.0
 20
0.0
 30
0.0
 70
     1
  0
VERTEX
  5
C7
100
AcDbEntity
  8
LIVELLO_1
 62
     7
100
AcDbVertex
100
AcDb2dVertex
 10
6.924642
 20
-136.113483
 30
0.0
  0
VERTEX
  5
C8
100
AcDbEntity
  8
LIVELLO_1
 62
     7
100
AcDbVertex
100
AcDb2dVertex
 10
14.472157
 20
-136.113483
 30
0.0
  0
VERTEX
  5
C9
100
AcDbEntity
  8
LIVELLO_1
 62
     7
100
AcDbVertex
100
AcDb2dVertex
 10
14.472157
 20
-138.392069
 30
0.0
  0
VERTEX
  5
CA
100
AcDbEntity
  8
LIVELLO_1
 62
     7
100
AcDbVertex
100
AcDb2dVertex
 10
6.924642
 20
-138.392069
 30
0.0
  0
SEQEND
  5
CB
100
AcDbEntity
  8
LIVELLO_1
 62
     7
  0
SPLINE
  5
C5
100
AcDbEntity
  8
LIVELLO_1
 62
     7
100
AcDbSpline
210
0.0
220
0.0
230
1.0
 70
     8
 71
     3
 72
    29
 73
    25
 74
     0
 42
0.00000001
 43
0.00000001
 40
0.0
 40
0.0
 40
0.0
 40
0.0
 40
1.0
 40
1.0
 40
1.0
 40
2.0
 40
2.0
 40
2.0
 40
3.0
 40
3.0
 40
3.0
 40
4.0
 40
4.0
 40
4.0
 40
5.0
 40
5.0
 40
5.0
 40
6.0
 40
6.0
 40
6.0
 40
7.0
 40
7.0
 40
7.0
 40
8.0
 40
8.0
 40
8.0
 40
8.0
 10
13.361458333333331
 20
-136.113483344184
 30
0.0
 10
13.361458333333331
 20
-136.113483344184
 30
0.0
 10
13.603304036458333
 20
-136.113483344184
 30
0.0
 10
13.603304036458333
 20
-136.113483344184
 30
0.0
 10
14.085100640190971
 20
-136.113483344184
 30
0.0
 10
14.472157118055554
 20
-136.48727620442708
 30
0.0
 10
14.472157118055554
 20
-136.95133056640623
 30
0.0
 10
14.472157118055554
 20
-136.95133056640623
 30
0.0
 10
14.472157118055554
 20
-137.55422227647568
 30
0.0
 10
14.472157118055554
 20
-137.55422227647568
 30
0.0
 10
14.472157118055554
 20
-138.01827663845484
 30
0.0
 10
14.085100640190971
 20
-138.39206949869791
 30
0.0
 10
13.603304036458333
 20
-138.39206949869791
 30
0.0
 10
13.603304036458333
 20
-138.39206949869791
 30
0.0
 10
13.361458333333331
 20
-138.39206949869791
 30
0.0
 10
13.361458333333331
 20
-138.39206949869791
 30
0.0
 10
12.881901041666666
 20
-138.39206949869791
 30
0.0
 10
12.489332411024304
 20
-138.01827663845484
 30
0.0
 10
12.489332411024304
 20
-137.55422227647568
 30
0.0
 10
12.489332411024304
 20
-137.55422227647568
 30
0.0
 10
12.489332411024304
 20
-136.95133056640623
 30
0.0
 10
12.489332411024304
 20
-136.95133056640623
 30
0.0
 10
12.489332411024304
 20
-136.48727620442708
 30
0.0
 10
12.881901041666666
 20
-136.113483344184
 30
0.0
 10
13.361458333333331
 20
-136.113483344184
 30
0.0
  0
SPLINE
  5
C4
100
AcDbEntity
  8
LIVELLO_1
 62
     7
100
AcDbSpline
210
0.0
220
0.0
230
1.0
 70
     8
 71
     3
 72
    23
 73
    19
 74
     0
 42
0.00000001
 43
0.00000001
 40
0.0
 40
0.0
 40
0.0
 40
0.0
 40
1.0
 40
1.0
 40
1.0
 40
2.0
 40
2.0
 40
2.0
 40
3.0
 40
3.0
 40
3.0
 40
4.0
 40
4.0
 40
4.0
 40
5.0
 40
5.0
 40
5.0
 40
6.0
 40
6.0
 40
6.0
 40
6.0
 10
14.026706271701388
 20
-138.39206949869791
 30
0.0
 10
14.026706271701388
 20
-138.39206949869791
 30
0.0
 10
14.026706271701388
 20
-138.45821533203124
 30
0.0
 10
14.026706271701388
 20
-138.45821533203124
 30
0.0
 10
14.026706271701388
 20
-138.9222696940104
 30
0.0
 10
13.636376953125
 20
-139.29606255425347
 30
0.0
 10
13.15458034939236
 20
-139.29606255425347
 30
0.0
 10
13.15458034939236
 20
-139.29606255425347
 30
0.0
 10
8.2442857530381932
 20
-139.29606255425347
 30
0.0
 10
8.2442857530381932
 20
-139.29606255425347
 30
0.0
 10
7.7604220920138882
 20
-139.29606255425347
 30
0.0
 10
7.3711263020833329
 20
-138.9222696940104
 30
0.0
 10
7.3711263020833329
 20
-138.45821533203124
 30
0.0
 10
7.3711263020833329
 20
-138.45821533203124
 30
0.0
 10
7.3711263020833329
 20
-138.39206949869791
 30
0.0
 10
7.3711263020833329
 20
-138.39206949869791
 30
0.0
 10
7.3711263020833329
 20
-138.39206949869791
 30
0.0
 10
14.026706271701388
 20
-138.39206949869791
 30
0.0
 10
14.026706271701388
 20
-138.39206949869791
 30
0.0
  0
SPLINE
  5
C3
100
AcDbEntity
  8
LIVELLO_1
 62
     7
100
AcDbSpline
210
0.0
220
0.0
230
1.0
 70
     8
 71
     3
 72
    23
 73
    19
 74
     0
 42
0.00000001
 43
0.00000001
 40
0.0
 40
0.0
 40
0.0
 40
0.0
 40
1.0
 40
1.0
 40
1.0
 40
2.0
 40
2.0
 40
2.0
 40
3.0
 40
3.0
 40
3.0
 40
4.0
 40
4.0
 40
4.0
 40
5.0
 40
5.0
 40
5.0
 40
6.0
 40
6.0
 40
6.0
 40
6.0
 10
6.6166503906249998
 20
-135.38966878255206
 30
0.0
 10
6.6166503906249998
 20
-135.38966878255206
 30
0.0
 10
15.682935926649304
 20
-135.38966878255206
 30
0.0
 10
15.682935926649304
 20
-135.38966878255206
 30
0.0
 10
15.682935926649304
 20
-135.38966878255206
 30
0.0
 10
15.542376030815971
 20
-139.13345404730902
 30
0.0
 10
15.542376030815971
 20
-139.13345404730902
 30
0.0
 10
15.542376030815971
 20
-139.43903401692708
 30
0.0
 10
15.280548773871526
 20
-139.68983696831597
 30
0.0
 10
14.959293619791666
 20
-139.68983696831597
 30
0.0
 10
14.959293619791666
 20
-139.68983696831597
 30
0.0
 10
5.5829494900173602
 20
-139.68983696831597
 30
0.0
 10
5.5829494900173602
 20
-139.68983696831597
 30
0.0
 10
5.5829494900173602
 20
-139.68983696831597
 30
0.0
 10
6.0359795464409718
 20
-135.94639621310762
 30
0.0
 10
6.0359795464409718
 20
-135.94639621310762
 30
0.0
 10
6.0359795464409718
 20
-135.63840467664929
 30
0.0
 10
6.2988403320312498
 20
-135.38966878255206
 30
0.0
 10
6.6166503906249998
 20
-135.38966878255206
 30
0.0
  0
SPLINE
  5
C2
100
AcDbEntity
  8
LIVELLO_1
 62
     7
100
AcDbSpline
210
0.0
220
0.0
230
1.0
 70
     8
 71
     3
 72
    20
 73
    16
 74
     0
 42
0.00000001
 43
0.00000001
 40
0.0
 40
0.0
 40
0.0
 40
0.0
 40
1.0
 40
1.0
 40
1.0
 40
2.0
 40
2.0
 40
2.0
 40
3.0
 40
3.0
 40
3.0
 40
4.0
 40
4.0
 40
4.0
 40
5.0
 40
5.0
 40
5.0
 40
5.0
 10
16.793634711371528
 20
-95.691144476996513
 30
0.0
 10
16.793634711371528
 20
-95.691144476996513
 30
0.0
 10
15.635738118489583
 20
-137.93456081814236
 30
0.0
 10
15.635738118489583
 20
-137.93456081814236
 30
0.0
 10
15.626780870225693
 20
-138.14367811414928
 30
0.0
 10
15.797313096788193
 20
-138.3107652452257
 30
0.0
 10
16.009530978732638
 20
-138.3107652452257
 30
0.0
 10
16.251376681857636
 20
-138.3107652452257
 30
0.0
 10
16.433966742621525
 20
-138.14367811414928
 30
0.0
 10
16.441545952690969
 20
-137.93456081814236
 30
0.0
 10
16.441545952690969
 20
-137.93456081814236
 30
0.0
 10
17.601854112413193
 20
-95.691144476996513
 30
0.0
 10
17.601854112413193
 20
-95.691144476996513
 30
0.0
 10
17.601854112413193
 20
-95.691144476996513
 30
0.0
 10
16.793634711371528
 20
-95.691144476996513
 30
0.0
 10
16.793634711371528
 20
-95.691144476996513
 30
0.0
  0
SPLINE
  5
C1
100
AcDbEntity
  8
LIVELLO_1
 62
     7
100
AcDbSpline
210
0.0
220
0.0
230
1.0
 70
     8
 71
     3
 72
    20
 73
    16
 74
     0
 42
0.00000001
 43
0.00000001
 40
0.0
 40
0.0
 40
0.0
 40
0.0
 40
1.0
 40
1.0
 40
1.0
 40
2.0
 40
2.0
 40
2.0
 40
3.0
 40
3.0
 40
3.0
 40
4.0
 40
4.0
 40
4.0
 40
5.0
 40
5.0
 40
5.0
 40
5.0
 10
-65.54208034939235
 20
-95.691144476996513
 30
0.0
 10
-65.54208034939235
 20
-95.691144476996513
 30
0.0
 10
-64.384011501736111
 20
-137.93456081814236
 30
0.0
 10
-64.384011501736111
 20
-137.93456081814236
 30
0.0
 10
-64.37643229166666
 20
-138.14367811414928
 30
0.0
 10
-64.545758734809027
 20
-138.3107652452257
 30
0.0
 10
-64.762455240885416
 20
-138.3107652452257
 30
0.0
 10
-65.00430094401041
 20
-138.3107652452257
 30
0.0
 10
-65.182412380642361
 20
-138.14367811414928
 30
0.0
 10
-65.190163845486111
 20
-137.93456081814236
 30
0.0
 10
-65.190163845486111
 20
-137.93456081814236
 30
0.0
 10
-66.350472005208331
 20
-95.691144476996513
 30
0.0
 10
-66.350472005208331
 20
-95.691144476996513
 30
0.0
 10
-66.350472005208331
 20
-95.691144476996513
 30
0.0
 10
-65.54208034939235
 20
-95.691144476996513
 30
0.0
 10
-65.54208034939235
 20
-95.691144476996513
 30
0.0
  0
POLYLINE
  5
BB
100
AcDbEntity
  8
LIVELLO_1
 62
     7
100
AcDb2dPolyline
 66
     1
 10
0.0
 20
0.0
 30
0.0
 70
     1
  0
VERTEX
  5
BC
100
AcDbEntity
  8
LIVELLO_1
 62
     7
100
AcDbVertex
100
AcDb2dVertex
 10
18.983337
 20
-95.691144
 30
0.0
  0
VERTEX
  5
BD
100
AcDbEntity
  8
LIVELLO_1
 62
     7
100
AcDbVertex
100
AcDb2dVertex
 10
20.980459
 20
-95.691144
 30
0.0
  0
VERTEX
  5
BE
100
AcDbEntity
  8
LIVELLO_1
 62
     7
100
AcDbVertex
100
AcDb2dVertex
 10
20.980459
 20
-96.944815
 30
0.0
  0
VERTEX
  5
BF
100
AcDbEntity
  8
LIVELLO_1
 62
     7
100
AcDbVertex
100
AcDb2dVertex
 10
18.983337
 20
-96.944815
 30
0.0
  0
SEQEND
  5
C0
100
AcDbEntity
  8
LIVELLO_1
 62
     7
  0
POLYLINE
  5
B5
100
AcDbEntity
  8
LIVELLO_1
 62
     7
100
AcDb2dPolyline
 66
     1
 10
0.0
 20
0.0
 30
0.0
 70
     1
  0
VERTEX
  5
B6
100
AcDbEntity
  8
LIVELLO_1
 62
     7
100
AcDbVertex
100
AcDb2dVertex
 10
-69.730972
 20
-95.691144
 30
0.0
  0
VERTEX
  5
B7
100
AcDbEntity
  8
LIVELLO_1
 62
     7
100
AcDbVertex
100
AcDb2dVertex
 10
-67.731783
 20
-95.691144
 30
0.0
  0
VERTEX
  5
B8
100
AcDbEntity
  8
LIVELLO_1
 62
     7
100
AcDbVertex
100
AcDb2dVertex
 10
-67.731783
 20
-96.944815
 30
0.0
  0
VERTEX
  5
B9
100
AcDbEntity
  8
LIVELLO_1
 62
     7
100
AcDbVertex
100
AcDb2dVertex
 10
-69.730972
 20
-96.944815
 30
0.0
  0
SEQEND
  5
BA
100
AcDbEntity
  8
LIVELLO_1
 62
     7
  0
SPLINE
  5
B4
100
AcDbEntity
  8
LIVELLO_1
 62
     7
100
AcDbSpline
210
0.0
220
0.0
230
1.0
 70
     8
 71
     3
 72
    53
 73
    49
 74
     0
 42
0.00000001
 43
0.00000001
 40
0.0
 40
0.0
 40
0.0
 40
0.0
 40
1.0
 40
1.0
 40
1.0
 40
2.0
 40
2.0
 40
2.0
 40
3.0
 40
3.0
 40
3.0
 40
4.0
 40
4.0
 40
4.0
 40
5.0
 40
5.0
 40
5.0
 40
6.0
 40
6.0
 40
6.0
 40
7.0
 40
7.0
 40
7.0
 40
8.0
 40
8.0
 40
8.0
 40
9.0
 40
9.0
 40
9.0
 40
10.0
 40
10.0
 40
10.0
 40
11.0
 40
11.0
 40
11.0
 40
12.0
 40
12.0
 40
12.0
 40
13.0
 40
13.0
 40
13.0
 40
14.0
 40
14.0
 40
14.0
 40
15.0
 40
15.0
 40
15.0
 40
16.0
 40
16.0
 40
16.0
 40
16.0
 10
-64.291682942708334
 20
-139.13345404730902
 30
0.0
 10
-64.291682942708334
 20
-139.13345404730902
 30
0.0
 10
-65.54208034939235
 20
-95.715260145399299
 30
0.0
 10
-65.54208034939235
 20
-95.715260145399299
 30
0.0
 10
-65.240806749131934
 20
-95.79897596571179
 30
0.0
 10
-65.013085937499994
 20
-96.069415961371519
 30
0.0
 10
-65.013085937499994
 20
-96.388431803385402
 30
0.0
 10
-65.013085937499994
 20
-96.388431803385402
 30
0.0
 10
-65.013085937499994
 20
-97.29690348307291
 30
0.0
 10
-65.013085937499994
 20
-97.29690348307291
 30
0.0
 10
-65.013085937499994
 20
-97.29690348307291
 30
0.0
 10
-59.412049696180553
 20
-97.29690348307291
 30
0.0
 10
-59.412049696180553
 20
-97.29690348307291
 30
0.0
 10
-59.412049696180553
 20
-97.29690348307291
 30
0.0
 10
-59.412049696180553
 20
-96.388431803385402
 30
0.0
 10
-59.412049696180553
 20
-96.388431803385402
 30
0.0
 10
-59.412049696180553
 20
-96.005681694878461
 30
0.0
 10
-59.08872748480902
 20
-95.691144476996513
 30
0.0
 10
-58.689613172743051
 20
-95.691144476996513
 30
0.0
 10
-58.689613172743051
 20
-95.691144476996513
 30
0.0
 10
9.9378946940104154
 20
-95.691144476996513
 30
0.0
 10
9.9378946940104154
 20
-95.691144476996513
 30
0.0
 10
10.340454101562498
 20
-95.691144476996513
 30
0.0
 10
10.662570529513888
 20
-96.005681694878461
 30
0.0
 10
10.662570529513888
 20
-96.388431803385402
 30
0.0
 10
10.662570529513888
 20
-96.388431803385402
 30
0.0
 10
10.662570529513888
 20
-97.29690348307291
 30
0.0
 10
10.662570529513888
 20
-97.29690348307291
 30
0.0
 10
10.662570529513888
 20
-97.29690348307291
 30
0.0
 10
16.264468044704859
 20
-97.29690348307291
 30
0.0
 10
16.264468044704859
 20
-97.29690348307291
 30
0.0
 10
16.264468044704859
 20
-97.29690348307291
 30
0.0
 10
16.264468044704859
 20
-96.388431803385402
 30
0.0
 10
16.264468044704859
 20
-96.388431803385402
 30
0.0
 10
16.264468044704859
 20
-96.069415961371519
 30
0.0
 10
16.491155327690972
 20
-95.79897596571179
 30
0.0
 10
16.793634711371528
 20
-95.715260145399299
 30
0.0
 10
16.793634711371528
 20
-95.715260145399299
 30
0.0
 10
15.542376030815971
 20
-139.13345404730902
 30
0.0
 10
15.542376030815971
 20
-139.13345404730902
 30
0.0
 10
15.542376030815971
 20
-139.43903401692708
 30
0.0
 10
15.280548773871526
 20
-139.68983696831597
 30
0.0
 10
14.959293619791666
 20
-139.68983696831597
 30
0.0
 10
14.959293619791666
 20
-139.68983696831597
 30
0.0
 10
-63.707739257812491
 20
-139.68983696831597
 30
0.0
 10
-63.707739257812491
 20
-139.68983696831597
 30
0.0
 10
-64.028822157118043
 20
-139.68983696831597
 30
0.0
 10
-64.291682942708334
 20
-139.43903401692708
 30
0.0
 10
-64.291682942708334
 20
-139.13345404730902
 30
0.0
  0
SPLINE
  5
B3
100
AcDbEntity
  8
LIVELLO_1
 62
     7
100
AcDbSpline
210
0.0
220
0.0
230
1.0
 70
     8
 71
     3
 72
    53
 73
    49
 74
     0
 42
0.00000001
 43
0.00000001
 40
0.0
 40
0.0
 40
0.0
 40
0.0
 40
1.0
 40
1.0
 40
1.0
 40
2.0
 40
2.0
 40
2.0
 40
3.0
 40
3.0
 40
3.0
 40
4.0
 40
4.0
 40
4.0
 40
5.0
 40
5.0
 40
5.0
 40
6.0
 40
6.0
 40
6.0
 40
7.0
 40
7.0
 40
7.0
 40
8.0
 40
8.0
 40
8.0
 40
9.0
 40
9.0
 40
9.0
 40
10.0
 40
10.0
 40
10.0
 40
11.0
 40
11.0
 40
11.0
 40
12.0
 40
12.0
 40
12.0
 40
13.0
 40
13.0
 40
13.0
 40
14.0
 40
14.0
 40
14.0
 40
15.0
 40
15.0
 40
15.0
 40
16.0
 40
16.0
 40
16.0
 40
16.0
 10
-70.456853569878461
 20
-93.810466851128467
 30
0.0
 10
-70.456853569878461
 20
-93.810466851128467
 30
0.0
 10
21.708407931857636
 20
-93.810466851128467
 30
0.0
 10
21.708407931857636
 20
-93.810466851128467
 30
0.0
 10
21.708407931857636
 20
-93.810466851128467
 30
0.0
 10
21.708407931857636
 20
-95.691144476996513
 30
0.0
 10
21.708407931857636
 20
-95.691144476996513
 30
0.0
 10
21.708407931857636
 20
-95.691144476996513
 30
0.0
 10
16.991727701822914
 20
-95.691144476996513
 30
0.0
 10
16.991727701822914
 20
-95.691144476996513
 30
0.0
 10
16.591407606336805
 20
-95.691144476996513
 30
0.0
 10
16.264468044704859
 20
-96.005681694878461
 30
0.0
 10
16.264468044704859
 20
-96.388431803385402
 30
0.0
 10
16.264468044704859
 20
-96.388431803385402
 30
0.0
 10
16.264468044704859
 20
-97.29690348307291
 30
0.0
 10
16.264468044704859
 20
-97.29690348307291
 30
0.0
 10
16.264468044704859
 20
-97.29690348307291
 30
0.0
 10
10.662570529513888
 20
-97.29690348307291
 30
0.0
 10
10.662570529513888
 20
-97.29690348307291
 30
0.0
 10
10.662570529513888
 20
-97.29690348307291
 30
0.0
 10
10.662570529513888
 20
-96.388431803385402
 30
0.0
 10
10.662570529513888
 20
-96.388431803385402
 30
0.0
 10
10.662570529513888
 20
-96.005681694878461
 30
0.0
 10
10.340454101562498
 20
-95.691144476996513
 30
0.0
 10
9.9378946940104154
 20
-95.691144476996513
 30
0.0
 10
9.9378946940104154
 20
-95.691144476996513
 30
0.0
 10
-58.689613172743051
 20
-95.691144476996513
 30
0.0
 10
-58.689613172743051
 20
-95.691144476996513
 30
0.0
 10
-59.08872748480902
 20
-95.691144476996513
 30
0.0
 10
-59.412049696180553
 20
-96.005681694878461
 30
0.0
 10
-59.412049696180553
 20
-96.388431803385402
 30
0.0
 10
-59.412049696180553
 20
-96.388431803385402
 30
0.0
 10
-59.412049696180553
 20
-97.29690348307291
 30
0.0
 10
-59.412049696180553
 20
-97.29690348307291
 30
0.0
 10
-59.412049696180553
 20
-97.29690348307291
 30
0.0
 10
-65.013085937499994
 20
-97.29690348307291
 30
0.0
 10
-65.013085937499994
 20
-97.29690348307291
 30
0.0
 10
-65.013085937499994
 20
-97.29690348307291
 30
0.0
 10
-65.013085937499994
 20
-96.388431803385402
 30
0.0
 10
-65.013085937499994
 20
-96.388431803385402
 30
0.0
 10
-65.013085937499994
 20
-96.005681694878461
 30
0.0
 10
-65.341920301649296
 20
-95.691144476996513
 30
0.0
 10
-65.741206868489584
 20
-95.691144476996513
 30
0.0
 10
-65.741206868489584
 20
-95.691144476996513
 30
0.0
 10
-70.456853569878461
 20
-95.691144476996513
 30
0.0
 10
-70.456853569878461
 20
-95.691144476996513
 30
0.0
 10
-70.456853569878461
 20
-95.691144476996513
 30
0.0
 10
-70.456853569878461
 20
-93.810466851128467
 30
0.0
 10
-70.456853569878461
 20
-93.810466851128467
 30
0.0
  0
SPLINE
  5
B2
100
AcDbEntity
  8
LIVELLO_1
 62
     7
100
AcDbSpline
210
0.0
220
0.0
230
1.0
 70
     8
 71
     3
 72
    29
 73
    25
 74
     0
 42
0.00000001
 43
0.00000001
 40
0.0
 40
0.0
 40
0.0
 40
0.0
 40
1.0
 40
1.0
 40
1.0
 40
2.0
 40
2.0
 40
2.0
 40
3.0
 40
3.0
 40
3.0
 40
4.0
 40
4.0
 40
4.0
 40
5.0
 40
5.0
 40
5.0
 40
6.0
 40
6.0
 40
6.0
 40
7.0
 40
7.0
 40
7.0
 40
8.0
 40
8.0
 40
8.0
 40
8.0
 10
-70.456853569878461
 20
-88.98251003689235
 30
0.0
 10
-70.456853569878461
 20
-88.98251003689235
 30
0.0
 10
21.708407931857636
 20
-88.98251003689235
 30
0.0
 10
21.708407931857636
 20
-88.98251003689235
 30
0.0
 10
22.02604573567708
 20
-88.98251003689235
 30
0.0
 10
22.284772406684027
 20
-89.233312988281241
 30
0.0
 10
22.284772406684027
 20
-89.541304524739573
 30
0.0
 10
22.284772406684027
 20
-89.541304524739573
 30
0.0
 10
22.284772406684027
 20
-93.252016872829856
 30
0.0
 10
22.284772406684027
 20
-93.252016872829856
 30
0.0
 10
22.284772406684027
 20
-93.559663899739576
 30
0.0
 10
22.02604573567708
 20
-93.810466851128467
 30
0.0
 10
21.708407931857636
 20
-93.810466851128467
 30
0.0
 10
21.708407931857636
 20
-93.810466851128467
 30
0.0
 10
-70.456853569878461
 20
-93.810466851128467
 30
0.0
 10
-70.456853569878461
 20
-93.810466851128467
 30
0.0
 10
-70.774663628472211
 20
-93.810466851128467
 30
0.0
 10
-71.033218044704853
 20
-93.559663899739576
 30
0.0
 10
-71.033218044704853
 20
-93.252016872829856
 30
0.0
 10
-71.033218044704853
 20
-93.252016872829856
 30
0.0
 10
-71.033218044704853
 20
-89.541304524739573
 30
0.0
 10
-71.033218044704853
 20
-89.541304524739573
 30
0.0
 10
-71.033218044704853
 20
-89.233312988281241
 30
0.0
 10
-70.774663628472211
 20
-88.98251003689235
 30
0.0
 10
-70.456853569878461
 20
-88.98251003689235
 30
0.0
  0
SPLINE
  5
B1
100
AcDbEntity
  8
LIVELLO_1
 62
     7
100
AcDbSpline
210
0.0
220
0.0
230
1.0
 70
     8
 71
     3
 72
    20
 73
    16
 74
     0
 42
0.00000001
 43
0.00000001
 40
0.0
 40
0.0
 40
0.0
 40
0.0
 40
1.0
 40
1.0
 40
1.0
 40
2.0
 40
2.0
 40
2.0
 40
3.0
 40
3.0
 40
3.0
 40
4.0
 40
4.0
 40
4.0
 40
5.0
 40
5.0
 40
5.0
 40
5.0
 10
-60.356867133246524
 20
-97.29690348307291
 30
0.0
 10
-60.356867133246524
 20
-97.29690348307291
 30
0.0
 10
-60.356867133246524
 20
-137.93456081814236
 30
0.0
 10
-60.356867133246524
 20
-137.93456081814236
 30
0.0
 10
-60.356867133246524
 20
-138.14367811414928
 30
0.0
 10
-60.534978569878469
 20
-138.3107652452257
 30
0.0
 10
-60.749435763888883
 20
-138.3107652452257
 30
0.0
 10
-60.991281467013884
 20
-138.3107652452257
 30
0.0
 10
-61.165086534288186
 20
-138.14367811414928
 30
0.0
 10
-61.165086534288186
 20
-137.93456081814236
 30
0.0
 10
-61.165086534288186
 20
-137.93456081814236
 30
0.0
 10
-61.165086534288186
 20
-97.29690348307291
 30
0.0
 10
-61.165086534288186
 20
-97.29690348307291
 30
0.0
 10
-61.165086534288186
 20
-97.29690348307291
 30
0.0
 10
-60.356867133246524
 20
-97.29690348307291
 30
0.0
 10
-60.356867133246524
 20
-97.29690348307291
 30
0.0
  0
SPLINE
  5
B0
100
AcDbEntity
  8
LIVELLO_1
 62
     7
100
AcDbSpline
210
0.0
220
0.0
230
1.0
 70
     8
 71
     3
 72
    20
 73
    16
 74
     0
 42
0.00000001
 43
0.00000001
 40
0.0
 40
0.0
 40
0.0
 40
0.0
 40
1.0
 40
1.0
 40
1.0
 40
2.0
 40
2.0
 40
2.0
 40
3.0
 40
3.0
 40
3.0
 40
4.0
 40
4.0
 40
4.0
 40
5.0
 40
5.0
 40
5.0
 40
5.0
 10
-56.076508246527773
 20
-95.691144476996513
 30
0.0
 10
-56.076508246527773
 20
-95.691144476996513
 30
0.0
 10
-56.076508246527773
 20
-137.93456081814236
 30
0.0
 10
-56.076508246527773
 20
-137.93456081814236
 30
0.0
 10
-56.076508246527773
 20
-138.14367811414928
 30
0.0
 10
-56.250313313802081
 20
-138.3107652452257
 30
0.0
 10
-56.469249131944437
 20
-138.3107652452257
 30
0.0
 10
-56.711094835069439
 20
-138.3107652452257
 30
0.0
 10
-56.884899902343747
 20
-138.14367811414928
 30
0.0
 10
-56.884899902343747
 20
-137.93456081814236
 30
0.0
 10
-56.884899902343747
 20
-137.93456081814236
 30
0.0
 10
-56.884899902343747
 20
-95.691144476996513
 30
0.0
 10
-56.884899902343747
 20
-95.691144476996513
 30
0.0
 10
-56.884899902343747
 20
-95.691144476996513
 30
0.0
 10
-56.076508246527773
 20
-95.691144476996513
 30
0.0
 10
-56.076508246527773
 20
-95.691144476996513
 30
0.0
  0
SPLINE
  5
AF
100
AcDbEntity
  8
LIVELLO_1
 62
     7
100
AcDbSpline
210
0.0
220
0.0
230
1.0
 70
     8
 71
     3
 72
    20
 73
    16
 74
     0
 42
0.00000001
 43
0.00000001
 40
0.0
 40
0.0
 40
0.0
 40
0.0
 40
1.0
 40
1.0
 40
1.0
 40
2.0
 40
2.0
 40
2.0
 40
3.0
 40
3.0
 40
3.0
 40
4.0
 40
4.0
 40
4.0
 40
5.0
 40
5.0
 40
5.0
 40
5.0
 10
-51.796321614583327
 20
-95.691144476996513
 30
0.0
 10
-51.796321614583327
 20
-95.691144476996513
 30
0.0
 10
-51.796321614583327
 20
-137.93456081814236
 30
0.0
 10
-51.796321614583327
 20
-137.93456081814236
 30
0.0
 10
-51.796321614583327
 20
-138.14367811414928
 30
0.0
 10
-51.970126681857636
 20
-138.3107652452257
 30
0.0
 10
-52.187856716579859
 20
-138.3107652452257
 30
0.0
 10
-52.429874674479159
 20
-138.3107652452257
 30
0.0
 10
-52.603507486979161
 20
-138.14367811414928
 30
0.0
 10
-52.603507486979161
 20
-137.93456081814236
 30
0.0
 10
-52.603507486979161
 20
-137.93456081814236
 30
0.0
 10
-52.603507486979161
 20
-95.691144476996513
 30
0.0
 10
-52.603507486979161
 20
-95.691144476996513
 30
0.0
 10
-52.603507486979161
 20
-95.691144476996513
 30
0.0
 10
-51.796321614583327
 20
-95.691144476996513
 30
0.0
 10
-51.796321614583327
 20
-95.691144476996513
 30
0.0
  0
SPLINE
  5
AE
100
AcDbEntity
  8
LIVELLO_1
 62
     7
100
AcDbSpline
210
0.0
220
0.0
230
1.0
 70
     8
 71
     3
 72
    20
 73
    16
 74
     0
 42
0.00000001
 43
0.00000001
 40
0.0
 40
0.0
 40
0.0
 40
0.0
 40
1.0
 40
1.0
 40
1.0
 40
2.0
 40
2.0
 40
2.0
 40
3.0
 40
3.0
 40
3.0
 40
4.0
 40
4.0
 40
4.0
 40
5.0
 40
5.0
 40
5.0
 40
5.0
 10
-47.515101453993054
 20
-95.691144476996513
 30
0.0
 10
-47.515101453993054
 20
-95.691144476996513
 30
0.0
 10
-47.515101453993054
 20
-137.93456081814236
 30
0.0
 10
-47.515101453993054
 20
-137.93456081814236
 30
0.0
 10
-47.515101453993054
 20
-138.14367811414928
 30
0.0
 10
-47.688906521267356
 20
-138.3107652452257
 30
0.0
 10
-47.907670084635413
 20
-138.3107652452257
 30
0.0
 10
-48.14968804253472
 20
-138.3107652452257
 30
0.0
 10
-48.323320855034716
 20
-138.14367811414928
 30
0.0
 10
-48.323320855034716
 20
-137.93456081814236
 30
0.0
 10
-48.323320855034716
 20
-137.93456081814236
 30
0.0
 10
-48.323320855034716
 20
-95.691144476996513
 30
0.0
 10
-48.323320855034716
 20
-95.691144476996513
 30
0.0
 10
-48.323320855034716
 20
-95.691144476996513
 30
0.0
 10
-47.515101453993054
 20
-95.691144476996513
 30
0.0
 10
-47.515101453993054
 20
-95.691144476996513
 30
0.0
  0
SPLINE
  5
AD
100
AcDbEntity
  8
LIVELLO_1
 62
     7
100
AcDbSpline
210
0.0
220
0.0
230
1.0
 70
     8
 71
     3
 72
    20
 73
    16
 74
     0
 42
0.00000001
 43
0.00000001
 40
0.0
 40
0.0
 40
0.0
 40
0.0
 40
1.0
 40
1.0
 40
1.0
 40
2.0
 40
2.0
 40
2.0
 40
3.0
 40
3.0
 40
3.0
 40
4.0
 40
4.0
 40
4.0
 40
5.0
 40
5.0
 40
5.0
 40
5.0
 10
-43.234914822048609
 20
-95.691144476996513
 30
0.0
 10
-43.234914822048609
 20
-95.691144476996513
 30
0.0
 10
-43.234914822048609
 20
-137.93456081814236
 30
0.0
 10
-43.234914822048609
 20
-137.93456081814236
 30
0.0
 10
-43.234914822048609
 20
-138.14367811414928
 30
0.0
 10
-43.408547634548604
 20
-138.3107652452257
 30
0.0
 10
-43.627483452690967
 20
-138.3107652452257
 30
0.0
 10
-43.869329155815969
 20
-138.3107652452257
 30
0.0
 10
-44.043134223090277
 20
-138.14367811414928
 30
0.0
 10
-44.043134223090277
 20
-137.93456081814236
 30
0.0
 10
-44.043134223090277
 20
-137.93456081814236
 30
0.0
 10
-44.043134223090277
 20
-95.691144476996513
 30
0.0
 10
-44.043134223090277
 20
-95.691144476996513
 30
0.0
 10
-44.043134223090277
 20
-95.691144476996513
 30
0.0
 10
-43.234914822048609
 20
-95.691144476996513
 30
0.0
 10
-43.234914822048609
 20
-95.691144476996513
 30
0.0
  0
SPLINE
  5
AC
100
AcDbEntity
  8
LIVELLO_1
 62
     7
100
AcDbSpline
210
0.0
220
0.0
230
1.0
 70
     8
 71
     3
 72
    20
 73
    16
 74
     0
 42
0.00000001
 43
0.00000001
 40
0.0
 40
0.0
 40
0.0
 40
0.0
 40
1.0
 40
1.0
 40
1.0
 40
2.0
 40
2.0
 40
2.0
 40
3.0
 40
3.0
 40
3.0
 40
4.0
 40
4.0
 40
4.0
 40
5.0
 40
5.0
 40
5.0
 40
5.0
 10
-38.954555935329857
 20
-95.691144476996513
 30
0.0
 10
-38.954555935329857
 20
-95.691144476996513
 30
0.0
 10
-38.954555935329857
 20
-137.93456081814236
 30
0.0
 10
-38.954555935329857
 20
-137.93456081814236
 30
0.0
 10
-38.954555935329857
 20
-138.14367811414928
 30
0.0
 10
-39.128361002604166
 20
-138.3107652452257
 30
0.0
 10
-39.346091037326389
 20
-138.3107652452257
 30
0.0
 10
-39.588108995225689
 20
-138.3107652452257
 30
0.0
 10
-39.761914062499997
 20
-138.14367811414928
 30
0.0
 10
-39.761914062499997
 20
-137.93456081814236
 30
0.0
 10
-39.761914062499997
 20
-137.93456081814236
 30
0.0
 10
-39.761914062499997
 20
-95.691144476996513
 30
0.0
 10
-39.761914062499997
 20
-95.691144476996513
 30
0.0
 10
-39.761914062499997
 20
-95.691144476996513
 30
0.0
 10
-38.954555935329857
 20
-95.691144476996513
 30
0.0
 10
-38.954555935329857
 20
-95.691144476996513
 30
0.0
  0
SPLINE
  5
AB
100
AcDbEntity
  8
LIVELLO_1
 62
     7
100
AcDbSpline
210
0.0
220
0.0
230
1.0
 70
     8
 71
     3
 72
    20
 73
    16
 74
     0
 42
0.00000001
 43
0.00000001
 40
0.0
 40
0.0
 40
0.0
 40
0.0
 40
1.0
 40
1.0
 40
1.0
 40
2.0
 40
2.0
 40
2.0
 40
3.0
 40
3.0
 40
3.0
 40
4.0
 40
4.0
 40
4.0
 40
5.0
 40
5.0
 40
5.0
 40
5.0
 10
-34.673335774739577
 20
-95.691144476996513
 30
0.0
 10
-34.673335774739577
 20
-95.691144476996513
 30
0.0
 10
-34.673335774739577
 20
-137.93456081814236
 30
0.0
 10
-34.673335774739577
 20
-137.93456081814236
 30
0.0
 10
-34.673335774739577
 20
-138.14367811414928
 30
0.0
 10
-34.847140842013886
 20
-138.3107652452257
 30
0.0
 10
-35.065904405381943
 20
-138.3107652452257
 30
0.0
 10
-35.303443739149301
 20
-138.3107652452257
 30
0.0
 10
-35.481555175781246
 20
-138.14367811414928
 30
0.0
 10
-35.481555175781246
 20
-137.93456081814236
 30
0.0
 10
-35.481555175781246
 20
-137.93456081814236
 30
0.0
 10
-35.481555175781246
 20
-95.691144476996513
 30
0.0
 10
-35.481555175781246
 20
-95.691144476996513
 30
0.0
 10
-35.481555175781246
 20
-95.691144476996513
 30
0.0
 10
-34.673335774739577
 20
-95.691144476996513
 30
0.0
 10
-34.673335774739577
 20
-95.691144476996513
 30
0.0
  0
SPLINE
  5
AA
100
AcDbEntity
  8
LIVELLO_1
 62
     7
100
AcDbSpline
210
0.0
220
0.0
230
1.0
 70
     8
 71
     3
 72
    20
 73
    16
 74
     0
 42
0.00000001
 43
0.00000001
 40
0.0
 40
0.0
 40
0.0
 40
0.0
 40
1.0
 40
1.0
 40
1.0
 40
2.0
 40
2.0
 40
2.0
 40
3.0
 40
3.0
 40
3.0
 40
4.0
 40
4.0
 40
4.0
 40
5.0
 40
5.0
 40
5.0
 40
5.0
 10
-30.393149142795135
 20
-95.691144476996513
 30
0.0
 10
-30.393149142795135
 20
-95.691144476996513
 30
0.0
 10
-30.393149142795135
 20
-137.93456081814236
 30
0.0
 10
-30.393149142795135
 20
-137.93456081814236
 30
0.0
 10
-30.393149142795135
 20
-138.14367811414928
 30
0.0
 10
-30.56695421006944
 20
-138.3107652452257
 30
0.0
 10
-30.785717773437497
 20
-138.3107652452257
 30
0.0
 10
-31.023257107204859
 20
-138.3107652452257
 30
0.0
 10
-31.201368543836804
 20
-138.14367811414928
 30
0.0
 10
-31.201368543836804
 20
-137.93456081814236
 30
0.0
 10
-31.201368543836804
 20
-137.93456081814236
 30
0.0
 10
-31.201368543836804
 20
-95.691144476996513
 30
0.0
 10
-31.201368543836804
 20
-95.691144476996513
 30
0.0
 10
-31.201368543836804
 20
-95.691144476996513
 30
0.0
 10
-30.393149142795135
 20
-95.691144476996513
 30
0.0
 10
-30.393149142795135
 20
-95.691144476996513
 30
0.0
  0
SPLINE
  5
A9
100
AcDbEntity
  8
LIVELLO_1
 62
     7
100
AcDbSpline
210
0.0
220
0.0
230
1.0
 70
     8
 71
     3
 72
    20
 73
    16
 74
     0
 42
0.00000001
 43
0.00000001
 40
0.0
 40
0.0
 40
0.0
 40
0.0
 40
1.0
 40
1.0
 40
1.0
 40
2.0
 40
2.0
 40
2.0
 40
3.0
 40
3.0
 40
3.0
 40
4.0
 40
4.0
 40
4.0
 40
5.0
 40
5.0
 40
5.0
 40
5.0
 10
-26.112962510850693
 20
-95.691144476996513
 30
0.0
 10
-26.112962510850693
 20
-95.691144476996513
 30
0.0
 10
-26.112962510850693
 20
-137.93456081814236
 30
0.0
 10
-26.112962510850693
 20
-137.93456081814236
 30
0.0
 10
-26.112962510850693
 20
-138.14367811414928
 30
0.0
 10
-26.286595323350692
 20
-138.3107652452257
 30
0.0
 10
-26.504325358072915
 20
-138.3107652452257
 30
0.0
 10
-26.744104003906248
 20
-138.3107652452257
 30
0.0
 10
-26.918942599826387
 20
-138.14367811414928
 30
0.0
 10
-26.918942599826387
 20
-137.93456081814236
 30
0.0
 10
-26.918942599826387
 20
-137.93456081814236
 30
0.0
 10
-26.918942599826387
 20
-95.691144476996513
 30
0.0
 10
-26.918942599826387
 20
-95.691144476996513
 30
0.0
 10
-26.918942599826387
 20
-95.691144476996513
 30
0.0
 10
-26.112962510850693
 20
-95.691144476996513
 30
0.0
 10
-26.112962510850693
 20
-95.691144476996513
 30
0.0
  0
SPLINE
  5
A8
100
AcDbEntity
  8
LIVELLO_1
 62
     7
100
AcDbSpline
210
0.0
220
0.0
230
1.0
 70
     8
 71
     3
 72
    20
 73
    16
 74
     0
 42
0.00000001
 43
0.00000001
 40
0.0
 40
0.0
 40
0.0
 40
0.0
 40
1.0
 40
1.0
 40
1.0
 40
2.0
 40
2.0
 40
2.0
 40
3.0
 40
3.0
 40
3.0
 40
4.0
 40
4.0
 40
4.0
 40
5.0
 40
5.0
 40
5.0
 40
5.0
 10
-21.829330783420136
 20
-95.691144476996513
 30
0.0
 10
-21.829330783420136
 20
-95.691144476996513
 30
0.0
 10
-21.829330783420136
 20
-137.93456081814236
 30
0.0
 10
-21.829330783420136
 20
-137.93456081814236
 30
0.0
 10
-21.829330783420136
 20
-138.14367811414928
 30
0.0
 10
-22.006408691406246
 20
-138.3107652452257
 30
0.0
 10
-22.224138726128469
 20
-138.3107652452257
 30
0.0
 10
-22.461678059895831
 20
-138.3107652452257
 30
0.0
 10
-22.639961751302081
 20
-138.14367811414928
 30
0.0
 10
-22.639961751302081
 20
-137.93456081814236
 30
0.0
 10
-22.639961751302081
 20
-137.93456081814236
 30
0.0
 10
-22.639961751302081
 20
-95.691144476996513
 30
0.0
 10
-22.639961751302081
 20
-95.691144476996513
 30
0.0
 10
-22.639961751302081
 20
-95.691144476996513
 30
0.0
 10
-21.829330783420136
 20
-95.691144476996513
 30
0.0
 10
-21.829330783420136
 20
-95.691144476996513
 30
0.0
  0
SPLINE
  5
A7
100
AcDbEntity
  8
LIVELLO_1
 62
     7
100
AcDbSpline
210
0.0
220
0.0
230
1.0
 70
     8
 71
     3
 72
    20
 73
    16
 74
     0
 42
0.00000001
 43
0.00000001
 40
0.0
 40
0.0
 40
0.0
 40
0.0
 40
1.0
 40
1.0
 40
1.0
 40
2.0
 40
2.0
 40
2.0
 40
3.0
 40
3.0
 40
3.0
 40
4.0
 40
4.0
 40
4.0
 40
5.0
 40
5.0
 40
5.0
 40
5.0
 10
-17.54690483940972
 20
-95.691144476996513
 30
0.0
 10
-17.54690483940972
 20
-95.691144476996513
 30
0.0
 10
-17.54690483940972
 20
-137.93456081814236
 30
0.0
 10
-17.54690483940972
 20
-137.93456081814236
 30
0.0
 10
-17.54690483940972
 20
-138.14367811414928
 30
0.0
 10
-17.72518853081597
 20
-138.3107652452257
 30
0.0
 10
-17.939645724826388
 20
-138.3107652452257
 30
0.0
 10
-18.181491427951386
 20
-138.3107652452257
 30
0.0
 10
-18.359775119357636
 20
-138.14367811414928
 30
0.0
 10
-18.359775119357636
 20
-137.93456081814236
 30
0.0
 10
-18.359775119357636
 20
-137.93456081814236
 30
0.0
 10
-18.359775119357636
 20
-95.691144476996513
 30
0.0
 10
-18.359775119357636
 20
-95.691144476996513
 30
0.0
 10
-18.359775119357636
 20
-95.691144476996513
 30
0.0
 10
-17.54690483940972
 20
-95.691144476996513
 30
0.0
 10
-17.54690483940972
 20
-95.691144476996513
 30
0.0
  0
SPLINE
  5
A6
100
AcDbEntity
  8
LIVELLO_1
 62
     7
100
AcDbSpline
210
0.0
220
0.0
230
1.0
 70
     8
 71
     3
 72
    20
 73
    16
 74
     0
 42
0.00000001
 43
0.00000001
 40
0.0
 40
0.0
 40
0.0
 40
0.0
 40
1.0
 40
1.0
 40
1.0
 40
2.0
 40
2.0
 40
2.0
 40
3.0
 40
3.0
 40
3.0
 40
4.0
 40
4.0
 40
4.0
 40
5.0
 40
5.0
 40
5.0
 40
5.0
 10
-13.266718207465276
 20
-95.691144476996513
 30
0.0
 10
-13.266718207465276
 20
-95.691144476996513
 30
0.0
 10
-13.266718207465276
 20
-137.93456081814236
 30
0.0
 10
-13.266718207465276
 20
-137.93456081814236
 30
0.0
 10
-13.266718207465276
 20
-138.14367811414928
 30
0.0
 10
-13.445001898871526
 20
-138.3107652452257
 30
0.0
 10
-13.658253309461804
 20
-138.3107652452257
 30
0.0
 10
-13.902338324652776
 20
-138.3107652452257
 30
0.0
 10
-14.079416232638888
 20
-138.14367811414928
 30
0.0
 10
-14.079416232638888
 20
-137.93456081814236
 30
0.0
 10
-14.079416232638888
 20
-137.93456081814236
 30
0.0
 10
-14.079416232638888
 20
-95.691144476996513
 30
0.0
 10
-14.079416232638888
 20
-95.691144476996513
 30
0.0
 10
-14.079416232638888
 20
-95.691144476996513
 30
0.0
 10
-13.266718207465276
 20
-95.691144476996513
 30
0.0
 10
-13.266718207465276
 20
-95.691144476996513
 30
0.0
  0
SPLINE
  5
A5
100
AcDbEntity
  8
LIVELLO_1
 62
     7
100
AcDbSpline
210
0.0
220
0.0
230
1.0
 70
     8
 71
     3
 72
    20
 73
    16
 74
     0
 42
0.00000001
 43
0.00000001
 40
0.0
 40
0.0
 40
0.0
 40
0.0
 40
1.0
 40
1.0
 40
1.0
 40
2.0
 40
2.0
 40
2.0
 40
3.0
 40
3.0
 40
3.0
 40
4.0
 40
4.0
 40
4.0
 40
5.0
 40
5.0
 40
5.0
 40
5.0
 10
-8.9877373589409721
 20
-95.691144476996513
 30
0.0
 10
-8.9877373589409721
 20
-95.691144476996513
 30
0.0
 10
-8.9877373589409721
 20
-137.93456081814236
 30
0.0
 10
-8.9877373589409721
 20
-137.93456081814236
 30
0.0
 10
-8.9877373589409721
 20
-138.14367811414928
 30
0.0
 10
-9.1646430121527764
 20
-138.3107652452257
 30
0.0
 10
-9.37806667751736
 20
-138.3107652452257
 30
0.0
 10
-9.6200846354166654
 20
-138.3107652452257
 30
0.0
 10
-9.7981960720486097
 20
-138.14367811414928
 30
0.0
 10
-9.7981960720486097
 20
-137.93456081814236
 30
0.0
 10
-9.7981960720486097
 20
-137.93456081814236
 30
0.0
 10
-9.7981960720486097
 20
-95.691144476996513
 30
0.0
 10
-9.7981960720486097
 20
-95.691144476996513
 30
0.0
 10
-9.7981960720486097
 20
-95.691144476996513
 30
0.0
 10
-8.9877373589409721
 20
-95.691144476996513
 30
0.0
 10
-8.9877373589409721
 20
-95.691144476996513
 30
0.0
  0
SPLINE
  5
A4
100
AcDbEntity
  8
LIVELLO_1
 62
     7
100
AcDbSpline
210
0.0
220
0.0
230
1.0
 70
     8
 71
     3
 72
    20
 73
    16
 74
     0
 42
0.00000001
 43
0.00000001
 40
0.0
 40
0.0
 40
0.0
 40
0.0
 40
1.0
 40
1.0
 40
1.0
 40
2.0
 40
2.0
 40
2.0
 40
3.0
 40
3.0
 40
3.0
 40
4.0
 40
4.0
 40
4.0
 40
5.0
 40
5.0
 40
5.0
 40
5.0
 10
-4.7053114149305548
 20
-95.691144476996513
 30
0.0
 10
-4.7053114149305548
 20
-95.691144476996513
 30
0.0
 10
-4.7053114149305548
 20
-137.93456081814236
 30
0.0
 10
-4.7053114149305548
 20
-137.93456081814236
 30
0.0
 10
-4.7053114149305548
 20
-138.14367811414928
 30
0.0
 10
-4.8834228515625
 20
-138.3107652452257
 30
0.0
 10
-5.0978800455729161
 20
-138.3107652452257
 30
0.0
 10
-5.3397257486979166
 20
-138.3107652452257
 30
0.0
 10
-5.5135308159722216
 20
-138.14367811414928
 30
0.0
 10
-5.5135308159722216
 20
-137.93456081814236
 30
0.0
 10
-5.5135308159722216
 20
-137.93456081814236
 30
0.0
 10
-5.5135308159722216
 20
-95.691144476996513
 30
0.0
 10
-5.5135308159722216
 20
-95.691144476996513
 30
0.0
 10
-5.5135308159722216
 20
-95.691144476996513
 30
0.0
 10
-4.7053114149305548
 20
-95.691144476996513
 30
0.0
 10
-4.7053114149305548
 20
-95.691144476996513
 30
0.0
  0
SPLINE
  5
A3
100
AcDbEntity
  8
LIVELLO_1
 62
     7
100
AcDbSpline
210
0.0
220
0.0
230
1.0
 70
     8
 71
     3
 72
    20
 73
    16
 74
     0
 42
0.00000001
 43
0.00000001
 40
0.0
 40
0.0
 40
0.0
 40
0.0
 40
1.0
 40
1.0
 40
1.0
 40
2.0
 40
2.0
 40
2.0
 40
3.0
 40
3.0
 40
3.0
 40
4.0
 40
4.0
 40
4.0
 40
5.0
 40
5.0
 40
5.0
 40
5.0
 10
-0.4249525282118055
 20
-95.691144476996513
 30
0.0
 10
-0.4249525282118055
 20
-95.691144476996513
 30
0.0
 10
-0.4249525282118055
 20
-137.93456081814236
 30
0.0
 10
-0.4249525282118055
 20
-137.93456081814236
 30
0.0
 10
-0.4249525282118055
 20
-138.14367811414928
 30
0.0
 10
-0.6032362196180555
 20
-138.3107652452257
 30
0.0
 10
-0.8164876302083333
 20
-138.3107652452257
 30
0.0
 10
-1.0595391167534722
 20
-138.3107652452257
 30
0.0
 10
-1.2333441840277777
 20
-138.14367811414928
 30
0.0
 10
-1.2333441840277777
 20
-137.93456081814236
 30
0.0
 10
-1.2333441840277777
 20
-137.93456081814236
 30
0.0
 10
-1.2333441840277777
 20
-95.691144476996513
 30
0.0
 10
-1.2333441840277777
 20
-95.691144476996513
 30
0.0
 10
-1.2333441840277777
 20
-95.691144476996513
 30
0.0
 10
-0.4249525282118055
 20
-95.691144476996513
 30
0.0
 10
-0.4249525282118055
 20
-95.691144476996513
 30
0.0
  0
SPLINE
  5
A2
100
AcDbEntity
  8
LIVELLO_1
 62
     7
100
AcDbSpline
210
0.0
220
0.0
230
1.0
 70
     8
 71
     3
 72
    20
 73
    16
 74
     0
 42
0.00000001
 43
0.00000001
 40
0.0
 40
0.0
 40
0.0
 40
0.0
 40
1.0
 40
1.0
 40
1.0
 40
2.0
 40
2.0
 40
2.0
 40
3.0
 40
3.0
 40
3.0
 40
4.0
 40
4.0
 40
4.0
 40
5.0
 40
5.0
 40
5.0
 40
5.0
 10
3.8540283203124996
 20
-95.691144476996513
 30
0.0
 10
3.8540283203124996
 20
-95.691144476996513
 30
0.0
 10
3.8540283203124996
 20
-137.93456081814236
 30
0.0
 10
3.8540283203124996
 20
-137.93456081814236
 30
0.0
 10
3.8540283203124996
 20
-138.14367811414928
 30
0.0
 10
3.6769504123263888
 20
-138.3107652452257
 30
0.0
 10
3.4636990017361109
 20
-138.3107652452257
 30
0.0
 10
3.2216810438368051
 20
-138.3107652452257
 30
0.0
 10
3.0480482313368054
 20
-138.14367811414928
 30
0.0
 10
3.0480482313368054
 20
-137.93456081814236
 30
0.0
 10
3.0480482313368054
 20
-137.93456081814236
 30
0.0
 10
3.0480482313368054
 20
-95.691144476996513
 30
0.0
 10
3.0480482313368054
 20
-95.691144476996513
 30
0.0
 10
3.0480482313368054
 20
-95.691144476996513
 30
0.0
 10
3.8540283203124996
 20
-95.691144476996513
 30
0.0
 10
3.8540283203124996
 20
-95.691144476996513
 30
0.0
  0
SPLINE
  5
A1
100
AcDbEntity
  8
LIVELLO_1
 62
     7
100
AcDbSpline
210
0.0
220
0.0
230
1.0
 70
     8
 71
     3
 72
    20
 73
    16
 74
     0
 42
0.00000001
 43
0.00000001
 40
0.0
 40
0.0
 40
0.0
 40
0.0
 40
1.0
 40
1.0
 40
1.0
 40
2.0
 40
2.0
 40
2.0
 40
3.0
 40
3.0
 40
3.0
 40
4.0
 40
4.0
 40
4.0
 40
5.0
 40
5.0
 40
5.0
 40
5.0
 10
8.1364542643229161
 20
-95.691144476996513
 30
0.0
 10
8.1364542643229161
 20
-95.691144476996513
 30
0.0
 10
8.1364542643229161
 20
-133.79734564887153
 30
0.0
 10
8.1364542643229161
 20
-133.79734564887153
 30
0.0
 10
8.1364542643229161
 20
-134.00646294487845
 30
0.0
 10
7.9628214518229159
 20
-134.1756171332465
 30
0.0
 10
7.7438856336805548
 20
-134.1756171332465
 30
0.0
 10
7.5018676757812495
 20
-134.1756171332465
 30
0.0
 10
7.3282348632812493
 20
-134.00646294487845
 30
0.0
 10
7.3282348632812493
 20
-133.79734564887153
 30
0.0
 10
7.3282348632812493
 20
-133.79734564887153
 30
0.0
 10
7.3282348632812493
 20
-95.691144476996513
 30
0.0
 10
7.3282348632812493
 20
-95.691144476996513
 30
0.0
 10
7.3282348632812493
 20
-95.691144476996513
 30
0.0
 10
8.1364542643229161
 20
-95.691144476996513
 30
0.0
 10
8.1364542643229161
 20
-95.691144476996513
 30
0.0
  0
SPLINE
  5
A0
100
AcDbEntity
  8
LIVELLO_1
 62
     7
100
AcDbSpline
210
0.0
220
0.0
230
1.0
 70
     8
 71
     3
 72
    20
 73
    16
 74
     0
 42
0.00000001
 43
0.00000001
 40
0.0
 40
0.0
 40
0.0
 40
0.0
 40
1.0
 40
1.0
 40
1.0
 40
2.0
 40
2.0
 40
2.0
 40
3.0
 40
3.0
 40
3.0
 40
4.0
 40
4.0
 40
4.0
 40
5.0
 40
5.0
 40
5.0
 40
5.0
 10
12.41664089626736
 20
-97.29690348307291
 30
0.0
 10
12.41664089626736
 20
-97.29690348307291
 30
0.0
 10
12.41664089626736
 20
-133.79734564887153
 30
0.0
 10
12.41664089626736
 20
-133.79734564887153
 30
0.0
 10
12.41664089626736
 20
-134.00646294487845
 30
0.0
 10
12.243008083767361
 20
-134.1756171332465
 30
0.0
 10
12.024072265625
 20
-134.1756171332465
 30
0.0
 10
11.782226562499998
 20
-134.1756171332465
 30
0.0
 10
11.608421495225693
 20
-134.00646294487845
 30
0.0
 10
11.608421495225693
 20
-133.79734564887153
 30
0.0
 10
11.608421495225693
 20
-133.79734564887153
 30
0.0
 10
11.608421495225693
 20
-97.29690348307291
 30
0.0
 10
11.608421495225693
 20
-97.29690348307291
 30
0.0
 10
11.608421495225693
 20
-97.29690348307291
 30
0.0
 10
12.41664089626736
 20
-97.29690348307291
 30
0.0
 10
12.41664089626736
 20
-97.29690348307291
 30
0.0
  0
LINE
  5
9F
100
AcDbEntity
  8
LIVELLO_1
 62
     7
100
AcDbLine
 10
22.152825
 20
-98.216055
 30
0.0
 11
22.152825
 21
-98.216055
 31
0.0
  0
LINE
  5
9E
100
AcDbEntity
  8
LIVELLO_1
 62
     7
100
AcDbLine
 10
23.313133
 20
-72.611761
 30
0.0
 11
23.313133
 21
-63.114322
 31
0.0
  0
LINE
  5
9D
100
AcDbEntity
  8
LIVELLO_1
 62
     7
100
AcDbLine
 10
-13.947469
 20
-68.661614
 30
0.0
 11
23.313133
 21
-68.661614
 31
0.0
  0
LINE
  5
9C
100
AcDbEntity
  8
LIVELLO_1
 62
     7
100
AcDbLine
 10
-71.24423
 20
-72.611761
 30
0.0
 11
-71.24423
 21
-63.114322
 31
0.0
  0
LINE
  5
9B
100
AcDbEntity
  8
LIVELLO_1
 62
     7
100
AcDbLine
 10
-38.195774
 20
-68.661614
 30
0.0
 11
-71.24423
 21
-68.661614
 31
0.0
  0
LINE
  5
9A
100
AcDbEntity
  8
LIVELLO_1
 62
     7
100
AcDbLine
 10
-15.366159
 20
79.390675
 30
0.0
 11
-12.059212
 21
79.390675
 31
0.0
  0
LINE
  5
99
100
AcDbEntity
  8
LIVELLO_1
 62
     7
100
AcDbLine
 10
25.686115
 20
79.430294
 30
0.0
 11
45.731403
 21
79.430294
 31
0.0
  0
LINE
  5
98
100
AcDbEntity
  8
LIVELLO_1
 62
     7
100
AcDbLine
 10
-12.239563
 20
84.387958
 30
0.0
 11
-12.239563
 21
74.767357
 31
0.0
  0
SPLINE
  5
97
100
AcDbEntity
  8
LIVELLO_1
 62
     7
100
AcDbSpline
210
0.0
220
0.0
230
1.0
 70
     8
 71
     3
 72
    20
 73
    16
 74
     0
 42
0.00000001
 43
0.00000001
 40
0.0
 40
0.0
 40
0.0
 40
0.0
 40
1.0
 40
1.0
 40
1.0
 40
2.0
 40
2.0
 40
2.0
 40
3.0
 40
3.0
 40
3.0
 40
4.0
 40
4.0
 40
4.0
 40
5.0
 40
5.0
 40
5.0
 40
5.0
 10
16.188675944010416
 20
8.2282660590277779
 30
0.0
 10
16.188675944010416
 20
8.2282660590277779
 30
0.0
 10
16.181096733940972
 20
35.062114800347217
 30
0.0
 10
16.181096733940972
 20
35.062114800347217
 30
0.0
 10
16.181096733940972
 20
35.062114800347217
 30
0.0
 10
17.312810601128472
 20
35.079684787326386
 30
0.0
 10
17.312810601128472
 20
35.079684787326386
 30
0.0
 10
17.312810601128472
 20
35.079684787326386
 30
0.0
 10
17.195332845052082
 20
8.2282660590277779
 30
0.0
 10
17.195332845052082
 20
8.2282660590277779
 30
0.0
 10
17.195332845052082
 20
7.9598931206597214
 30
0.0
 10
16.974157714843749
 20
7.7444023980034711
 30
0.0
 10
16.675123426649304
 20
7.7444023980034711
 30
0.0
 10
16.404338921440971
 20
7.7444023980034711
 30
0.0
 10
16.188675944010416
 20
7.9598931206597214
 30
0.0
 10
16.188675944010416
 20
8.2282660590277779
 30
0.0
  0
LINE
  5
96
100
AcDbEntity
  8
LIVELLO_1
 62
     7
100
AcDbLine
 10
16.749537
 20
35.264514
 30
0.0
 11
-36.395539
 21
35.264514
 31
0.0
  0
LINE
  5
95
100
AcDbEntity
  8
LIVELLO_1
 62
     7
100
AcDbLine
 10
16.823263
 20
46.039739
 30
0.0
 11
-36.465991
 21
46.039739
 31
0.0
  0
SPLINE
  5
94
100
AcDbEntity
  8
LIVELLO_1
 62
     7
100
AcDbSpline
210
0.0
220
0.0
230
1.0
 70
     8
 71
     3
 72
    20
 73
    16
 74
     0
 42
0.00000001
 43
0.00000001
 40
0.0
 40
0.0
 40
0.0
 40
0.0
 40
1.0
 40
1.0
 40
1.0
 40
2.0
 40
2.0
 40
2.0
 40
3.0
 40
3.0
 40
3.0
 40
4.0
 40
4.0
 40
4.0
 40
5.0
 40
5.0
 40
5.0
 40
5.0
 10
1.1542792426215276
 20
13.777625868055555
 30
0.0
 10
1.1542792426215276
 20
13.777625868055555
 30
0.0
 10
1.1542792426215276
 20
35.136873372395833
 30
0.0
 10
1.1542792426215276
 20
35.136873372395833
 30
0.0
 10
1.1542792426215276
 20
35.136873372395833
 30
0.0
 10
2.1593858506944441
 20
35.136873372395833
 30
0.0
 10
2.1593858506944441
 20
35.136873372395833
 30
0.0
 10
2.1593858506944441
 20
35.136873372395833
 30
0.0
 10
2.1593858506944441
 20
13.777625868055555
 30
0.0
 10
2.1593858506944441
 20
13.777625868055555
 30
0.0
 10
2.1593858506944441
 20
13.504946560329859
 30
0.0
 10
1.9426893446180553
 20
13.289283582899305
 30
0.0
 10
1.6414157443576387
 20
13.289283582899305
 30
0.0
 10
1.3730428059895832
 20
13.289283582899305
 30
0.0
 10
1.1542792426215276
 20
13.504946560329859
 30
0.0
 10
1.1542792426215276
 20
13.777625868055555
 30
0.0
  0
POLYLINE
  5
8E
100
AcDbEntity
  8
LIVELLO_1
 62
     7
100
AcDb2dPolyline
 66
     1
 10
0.0
 20
0.0
 30
0.0
 70
     1
  0
VERTEX
  5
8F
100
AcDbEntity
  8
LIVELLO_1
 62
     7
100
AcDbVertex
100
AcDb2dVertex
 10
2.159386
 20
49.662257
 30
0.0
  0
VERTEX
  5
90
100
AcDbEntity
  8
LIVELLO_1
 62
     7
100
AcDbVertex
100
AcDb2dVertex
 10
2.159386
 20
46.195974
 30
0.0
  0
VERTEX
  5
91
100
AcDbEntity
  8
LIVELLO_1
 62
     7
100
AcDbVertex
100
AcDb2dVertex
 10
1.154279
 20
46.195974
 30
0.0
  0
VERTEX
  5
92
100
AcDbEntity
  8
LIVELLO_1
 62
     7
100
AcDbVertex
100
AcDb2dVertex
 10
1.154279
 20
49.662257
 30
0.0
  0
SEQEND
  5
93
100
AcDbEntity
  8
LIVELLO_1
 62
     7
  0
SPLINE
  5
8D
100
AcDbEntity
  8
LIVELLO_1
 62
     7
100
AcDbSpline
210
0.0
220
0.0
230
1.0
 70
     8
 71
     3
 72
    20
 73
    16
 74
     0
 42
0.00000001
 43
0.00000001
 40
0.0
 40
0.0
 40
0.0
 40
0.0
 40
1.0
 40
1.0
 40
1.0
 40
2.0
 40
2.0
 40
2.0
 40
3.0
 40
3.0
 40
3.0
 40
4.0
 40
4.0
 40
4.0
 40
5.0
 40
5.0
 40
5.0
 40
5.0
 10
10.803302680121528
 20
8.4349717881944439
 30
0.0
 10
10.803302680121528
 20
8.4349717881944439
 30
0.0
 10
10.803302680121528
 20
35.136873372395833
 30
0.0
 10
10.803302680121528
 20
35.136873372395833
 30
0.0
 10
10.803302680121528
 20
35.136873372395833
 30
0.0
 10
11.809615071614582
 20
35.136873372395833
 30
0.0
 10
11.809615071614582
 20
35.136873372395833
 30
0.0
 10
11.809615071614582
 20
35.136873372395833
 30
0.0
 10
11.809615071614582
 20
8.4349717881944439
 30
0.0
 10
11.809615071614582
 20
8.4349717881944439
 30
0.0
 10
11.809615071614582
 20
8.16229248046875
 30
0.0
 10
11.591885036892361
 20
7.9468017578124996
 30
0.0
 10
11.291644965277778
 20
7.9468017578124996
 30
0.0
 10
11.021204969618054
 20
7.9468017578124996
 30
0.0
 10
10.803302680121528
 20
8.16229248046875
 30
0.0
 10
10.803302680121528
 20
8.4349717881944439
 30
0.0
  0
POLYLINE
  5
87
100
AcDbEntity
  8
LIVELLO_1
 62
     7
100
AcDb2dPolyline
 66
     1
 10
0.0
 20
0.0
 30
0.0
 70
     1
  0
VERTEX
  5
88
100
AcDbEntity
  8
LIVELLO_1
 62
     7
100
AcDbVertex
100
AcDb2dVertex
 10
11.809615
 20
48.04134
 30
0.0
  0
VERTEX
  5
89
100
AcDbEntity
  8
LIVELLO_1
 62
     7
100
AcDbVertex
100
AcDb2dVertex
 10
11.809615
 20
46.195974
 30
0.0
  0
VERTEX
  5
8A
100
AcDbEntity
  8
LIVELLO_1
 62
     7
100
AcDbVertex
100
AcDb2dVertex
 10
10.803303
 20
46.195974
 30
0.0
  0
VERTEX
  5
8B
100
AcDbEntity
  8
LIVELLO_1
 62
     7
100
AcDbVertex
100
AcDb2dVertex
 10
10.803303
 20
48.04134
 30
0.0
  0
SEQEND
  5
8C
100
AcDbEntity
  8
LIVELLO_1
 62
     7
  0
SPLINE
  5
86
100
AcDbEntity
  8
LIVELLO_1
 62
     7
100
AcDbSpline
210
0.0
220
0.0
230
1.0
 70
     8
 71
     3
 72
    20
 73
    16
 74
     0
 42
0.00000001
 43
0.00000001
 40
0.0
 40
0.0
 40
0.0
 40
0.0
 40
1.0
 40
1.0
 40
1.0
 40
2.0
 40
2.0
 40
2.0
 40
3.0
 40
3.0
 40
3.0
 40
4.0
 40
4.0
 40
4.0
 40
5.0
 40
5.0
 40
5.0
 40
5.0
 10
5.4740844726562496
 20
13.777625868055555
 30
0.0
 10
5.4740844726562496
 20
13.777625868055555
 30
0.0
 10
5.4740844726562496
 20
35.136873372395833
 30
0.0
 10
5.4740844726562496
 20
35.136873372395833
 30
0.0
 10
5.4740844726562496
 20
35.136873372395833
 30
0.0
 10
6.4814303927951382
 20
35.136873372395833
 30
0.0
 10
6.4814303927951382
 20
35.136873372395833
 30
0.0
 10
6.4814303927951382
 20
35.136873372395833
 30
0.0
 10
6.4814303927951382
 20
13.777625868055555
 30
0.0
 10
6.4814303927951382
 20
13.777625868055555
 30
0.0
 10
6.4814303927951382
 20
13.504946560329859
 30
0.0
 10
6.2647338867187496
 20
13.289283582899305
 30
0.0
 10
5.963460286458333
 20
13.289283582899305
 30
0.0
 10
5.6950873480902775
 20
13.289283582899305
 30
0.0
 10
5.4740844726562496
 20
13.504946560329859
 30
0.0
 10
5.4740844726562496
 20
13.777625868055555
 30
0.0
  0
POLYLINE
  5
80
100
AcDbEntity
  8
LIVELLO_1
 62
     7
100
AcDb2dPolyline
 66
     1
 10
0.0
 20
0.0
 30
0.0
 70
     1
  0
VERTEX
  5
81
100
AcDbEntity
  8
LIVELLO_1
 62
     7
100
AcDbVertex
100
AcDb2dVertex
 10
6.48143
 20
49.662257
 30
0.0
  0
VERTEX
  5
82
100
AcDbEntity
  8
LIVELLO_1
 62
     7
100
AcDbVertex
100
AcDb2dVertex
 10
6.48143
 20
46.195974
 30
0.0
  0
VERTEX
  5
83
100
AcDbEntity
  8
LIVELLO_1
 62
     7
100
AcDbVertex
100
AcDb2dVertex
 10
5.474084
 20
46.195974
 30
0.0
  0
VERTEX
  5
84
100
AcDbEntity
  8
LIVELLO_1
 62
     7
100
AcDbVertex
100
AcDb2dVertex
 10
5.474084
 20
49.662257
 30
0.0
  0
SEQEND
  5
85
100
AcDbEntity
  8
LIVELLO_1
 62
     7
  0
SPLINE
  5
7F
100
AcDbEntity
  8
LIVELLO_1
 62
     7
100
AcDbSpline
210
0.0
220
0.0
230
1.0
 70
     8
 71
     3
 72
    20
 73
    16
 74
     0
 42
0.00000001
 43
0.00000001
 40
0.0
 40
0.0
 40
0.0
 40
0.0
 40
1.0
 40
1.0
 40
1.0
 40
2.0
 40
2.0
 40
2.0
 40
3.0
 40
3.0
 40
3.0
 40
4.0
 40
4.0
 40
4.0
 40
5.0
 40
5.0
 40
5.0
 40
5.0
 10
-3.1700046115451386
 20
8.4349717881944439
 30
0.0
 10
-3.1700046115451386
 20
8.4349717881944439
 30
0.0
 10
-4.1068983289930552
 20
35.136873372395833
 30
0.0
 10
-4.1068983289930552
 20
35.136873372395833
 30
0.0
 10
-4.1068983289930552
 20
35.136873372395833
 30
0.0
 10
-3.0995524088541662
 20
35.136873372395833
 30
0.0
 10
-3.0995524088541662
 20
35.136873372395833
 30
0.0
 10
-3.0995524088541662
 20
35.136873372395833
 30
0.0
 10
-2.1636922200520829
 20
8.4349717881944439
 30
0.0
 10
-2.1636922200520829
 20
8.4349717881944439
 30
0.0
 10
-2.1538736979166666
 20
8.16229248046875
 30
0.0
 10
-2.3660915798611111
 20
7.9468017578124996
 30
0.0
 10
-2.6344645182291666
 20
7.9468017578124996
 30
0.0
 10
-2.9357381184895832
 20
7.9468017578124996
 30
0.0
 10
-3.1612196180555552
 20
8.16229248046875
 30
0.0
 10
-3.1700046115451386
 20
8.4349717881944439
 30
0.0
  0
POLYLINE
  5
79
100
AcDbEntity
  8
LIVELLO_1
 62
     7
100
AcDb2dPolyline
 66
     1
 10
0.0
 20
0.0
 30
0.0
 70
     1
  0
VERTEX
  5
7A
100
AcDbEntity
  8
LIVELLO_1
 62
     7
100
AcDbVertex
100
AcDb2dVertex
 10
-3.60667
 20
49.662257
 30
0.0
  0
VERTEX
  5
7B
100
AcDbEntity
  8
LIVELLO_1
 62
     7
100
AcDbVertex
100
AcDb2dVertex
 10
-3.487815
 20
46.191496
 30
0.0
  0
VERTEX
  5
7C
100
AcDbEntity
  8
LIVELLO_1
 62
     7
100
AcDbVertex
100
AcDb2dVertex
 10
-4.494127
 20
46.191496
 30
0.0
  0
VERTEX
  5
7D
100
AcDbEntity
  8
LIVELLO_1
 62
     7
100
AcDbVertex
100
AcDb2dVertex
 10
-4.614016
 20
49.662257
 30
0.0
  0
SEQEND
  5
7E
100
AcDbEntity
  8
LIVELLO_1
 62
     7
  0
LINE
  5
78
100
AcDbEntity
  8
LIVELLO_1
 62
     7
100
AcDbLine
 10
16.462906
 20
47.526643
 30
0.0
 11
16.462906
 21
49.618332
 31
0.0
  0
SPLINE
  5
77
100
AcDbEntity
  8
LIVELLO_1
 62
     7
100
AcDbSpline
210
0.0
220
0.0
230
1.0
 70
     8
 71
     3
 72
    20
 73
    16
 74
     0
 42
0.00000001
 43
0.00000001
 40
0.0
 40
0.0
 40
0.0
 40
0.0
 40
1.0
 40
1.0
 40
1.0
 40
2.0
 40
2.0
 40
2.0
 40
3.0
 40
3.0
 40
3.0
 40
4.0
 40
4.0
 40
4.0
 40
5.0
 40
5.0
 40
5.0
 40
5.0
 10
36.880608452690971
 20
49.662257215711804
 30
0.0
 10
36.880608452690971
 20
49.662257215711804
 30
0.0
 10
35.436424424913191
 20
8.4349717881944439
 30
0.0
 10
35.436424424913191
 20
8.4349717881944439
 30
0.0
 10
35.425744628906244
 20
8.16229248046875
 30
0.0
 10
35.636928982204857
 20
7.9468017578124996
 30
0.0
 10
35.904957411024306
 20
7.9468017578124996
 30
0.0
 10
36.206403266059027
 20
7.9468017578124996
 30
0.0
 10
36.431712510850694
 20
8.16229248046875
 30
0.0
 10
36.440669759114577
 20
8.4349717881944439
 30
0.0
 10
36.440669759114577
 20
8.4349717881944439
 30
0.0
 10
37.886920844184026
 20
49.662257215711804
 30
0.0
 10
37.886920844184026
 20
49.662257215711804
 30
0.0
 10
37.886920844184026
 20
49.662257215711804
 30
0.0
 10
36.880608452690971
 20
49.662257215711804
 30
0.0
 10
36.880608452690971
 20
49.662257215711804
 30
0.0
  0
SPLINE
  5
76
100
AcDbEntity
  8
LIVELLO_1
 62
     7
100
AcDbSpline
210
0.0
220
0.0
230
1.0
 70
     8
 71
     3
 72
    23
 73
    19
 74
     0
 42
0.00000001
 43
0.00000001
 40
0.0
 40
0.0
 40
0.0
 40
0.0
 40
1.0
 40
1.0
 40
1.0
 40
2.0
 40
2.0
 40
2.0
 40
3.0
 40
3.0
 40
3.0
 40
4.0
 40
4.0
 40
4.0
 40
5.0
 40
5.0
 40
5.0
 40
6.0
 40
6.0
 40
6.0
 40
6.0
 10
9.0580173068576375
 20
11.723315429687499
 30
0.0
 10
9.0580173068576375
 20
11.723315429687499
 30
0.0
 10
-2.2241536458333333
 20
11.723315429687499
 30
0.0
 10
-2.2241536458333333
 20
11.723315429687499
 30
0.0
 10
-2.2241536458333333
 20
11.723315429687499
 30
0.0
 10
-2.0482815212673611
 20
6.8888129340277775
 30
0.0
 10
-2.0482815212673611
 20
6.8888129340277775
 30
0.0
 10
-2.0482815212673611
 20
6.4884928385416663
 30
0.0
 10
-1.7259928385416665
 20
6.1629313151041663
 30
0.0
 10
-1.3256727430555555
 20
6.1629313151041663
 30
0.0
 10
-1.3256727430555555
 20
6.1629313151041663
 30
0.0
 10
10.348033311631944
 20
6.1629313151041663
 30
0.0
 10
10.348033311631944
 20
6.1629313151041663
 30
0.0
 10
10.348033311631944
 20
6.1629313151041663
 30
0.0
 10
9.7783867730034721
 20
11.003979492187499
 30
0.0
 10
9.7783867730034721
 20
11.003979492187499
 30
0.0
 10
9.7783867730034721
 20
11.399993218315972
 30
0.0
 10
9.4540310329861104
 20
11.723315429687499
 30
0.0
 10
9.0580173068576375
 20
11.723315429687499
 30
0.0
  0
POLYLINE
  5
70
100
AcDbEntity
  8
LIVELLO_1
 62
     7
100
AcDb2dPolyline
 66
     1
 10
0.0
 20
0.0
 30
0.0
 70
     1
  0
VERTEX
  5
71
100
AcDbEntity
  8
LIVELLO_1
 62
     7
100
AcDbVertex
100
AcDb2dVertex
 10
-8.818239
 20
49.662257
 30
0.0
  0
VERTEX
  5
72
100
AcDbEntity
  8
LIVELLO_1
 62
     7
100
AcDbVertex
100
AcDb2dVertex
 10
-6.329502
 20
49.662257
 30
0.0
  0
VERTEX
  5
73
100
AcDbEntity
  8
LIVELLO_1
 62
     7
100
AcDbVertex
100
AcDb2dVertex
 10
-6.329502
 20
48.04134
 30
0.0
  0
VERTEX
  5
74
100
AcDbEntity
  8
LIVELLO_1
 62
     7
100
AcDbVertex
100
AcDb2dVertex
 10
-8.818239
 20
48.04134
 30
0.0
  0
SEQEND
  5
75
100
AcDbEntity
  8
LIVELLO_1
 62
     7
  0
POLYLINE
  5
6A
100
AcDbEntity
  8
LIVELLO_1
 62
     7
100
AcDb2dPolyline
 66
     1
 10
0.0
 20
0.0
 30
0.0
 70
     1
  0
VERTEX
  5
6B
100
AcDbEntity
  8
LIVELLO_1
 62
     7
100
AcDbVertex
100
AcDb2dVertex
 10
39.603612
 20
49.662257
 30
0.0
  0
VERTEX
  5
6C
100
AcDbEntity
  8
LIVELLO_1
 62
     7
100
AcDbVertex
100
AcDb2dVertex
 10
42.089937
 20
49.662257
 30
0.0
  0
VERTEX
  5
6D
100
AcDbEntity
  8
LIVELLO_1
 62
     7
100
AcDbVertex
100
AcDb2dVertex
 10
42.089937
 20
48.04134
 30
0.0
  0
VERTEX
  5
6E
100
AcDbEntity
  8
LIVELLO_1
 62
     7
100
AcDbVertex
100
AcDb2dVertex
 10
39.603612
 20
48.04134
 30
0.0
  0
SEQEND
  5
6F
100
AcDbEntity
  8
LIVELLO_1
 62
     7
  0
SPLINE
  5
69
100
AcDbEntity
  8
LIVELLO_1
 62
     7
100
AcDbSpline
210
0.0
220
0.0
230
1.0
 70
     8
 71
     3
 72
    23
 73
    19
 74
     0
 42
0.00000001
 43
0.00000001
 40
0.0
 40
0.0
 40
0.0
 40
0.0
 40
1.0
 40
1.0
 40
1.0
 40
2.0
 40
2.0
 40
2.0
 40
3.0
 40
3.0
 40
3.0
 40
4.0
 40
4.0
 40
4.0
 40
5.0
 40
5.0
 40
5.0
 40
6.0
 40
6.0
 40
6.0
 40
6.0
 10
35.316879611545133
 20
6.8888129340277775
 30
0.0
 10
35.316879611545133
 20
6.8888129340277775
 30
0.0
 10
36.880608452690971
 20
49.627117241753467
 30
0.0
 10
36.880608452690971
 20
49.627117241753467
 30
0.0
 10
36.498891872829859
 20
49.51928575303819
 30
0.0
 10
-3.2304660373263885
 20
49.51928575303819
 30
0.0
 10
-3.6066704644097221
 20
49.627117241753467
 30
0.0
 10
-3.6066704644097221
 20
49.627117241753467
 30
0.0
 10
-2.0482815212673611
 20
6.8888129340277775
 30
0.0
 10
-2.0482815212673611
 20
6.8888129340277775
 30
0.0
 10
-2.0482815212673611
 20
6.4884928385416663
 30
0.0
 10
-1.7259928385416665
 20
6.1629313151041663
 30
0.0
 10
-1.3256727430555555
 20
6.1629313151041663
 30
0.0
 10
-1.3256727430555555
 20
6.1629313151041663
 30
0.0
 10
34.598577202690969
 20
6.1629313151041663
 30
0.0
 10
34.598577202690969
 20
6.1629313151041663
 30
0.0
 10
34.994418674045136
 20
6.1629313151041663
 30
0.0
 10
35.316879611545133
 20
6.4884928385416663
 30
0.0
 10
35.316879611545133
 20
6.8888129340277775
 30
0.0
  0
POLYLINE
  5
61
100
AcDbEntity
  8
LIVELLO_1
 62
     7
100
AcDb2dPolyline
 66
     1
 10
0.0
 20
0.0
 30
0.0
 70
     1
  0
VERTEX
  5
62
100
AcDbEntity
  8
LIVELLO_1
 62
     7
100
AcDbVertex
100
AcDb2dVertex
 10
42.992897
 20
52.092772
 30
0.0
  0
VERTEX
  5
63
100
AcDbEntity
  8
LIVELLO_1
 62
     7
100
AcDbVertex
100
AcDb2dVertex
 10
-9.722232
 20
52.092772
 30
0.0
  0
VERTEX
  5
64
100
AcDbEntity
  8
LIVELLO_1
 62
     7
100
AcDbVertex
100
AcDb2dVertex
 10
-9.722232
 20
49.662257
 30
0.0
  0
VERTEX
  5
65
100
AcDbEntity
  8
LIVELLO_1
 62
     7
100
AcDbVertex
100
AcDb2dVertex
 10
-3.855062
 20
49.662257
 30
0.0
  0
VERTEX
  5
66
100
AcDbEntity
  8
LIVELLO_1
 62
     7
100
AcDbVertex
100
AcDb2dVertex
 10
37.123488
 20
49.662257
 30
0.0
  0
VERTEX
  5
67
100
AcDbEntity
  8
LIVELLO_1
 62
     7
100
AcDbVertex
100
AcDb2dVertex
 10
42.992897
 20
49.662257
 30
0.0
  0
SEQEND
  5
68
100
AcDbEntity
  8
LIVELLO_1
 62
     7
  0
SPLINE
  5
60
100
AcDbEntity
  8
LIVELLO_1
 62
     7
100
AcDbSpline
210
0.0
220
0.0
230
1.0
 70
     8
 71
     3
 72
    29
 73
    25
 74
     0
 42
0.00000001
 43
0.00000001
 40
0.0
 40
0.0
 40
0.0
 40
0.0
 40
1.0
 40
1.0
 40
1.0
 40
2.0
 40
2.0
 40
2.0
 40
3.0
 40
3.0
 40
3.0
 40
4.0
 40
4.0
 40
4.0
 40
5.0
 40
5.0
 40
5.0
 40
6.0
 40
6.0
 40
6.0
 40
7.0
 40
7.0
 40
7.0
 40
8.0
 40
8.0
 40
8.0
 40
8.0
 10
-11.519193522135415
 20
57.774079047309023
 30
0.0
 10
-11.519193522135415
 20
57.774079047309023
 30
0.0
 10
44.787791612413187
 20
57.774079047309023
 30
0.0
 10
44.787791612413187
 20
57.774079047309023
 30
0.0
 10
45.189145236545137
 20
57.774079047309023
 30
0.0
 10
45.511261664496523
 20
57.450756835937497
 30
0.0
 10
45.511261664496523
 20
57.050436740451381
 30
0.0
 10
45.511261664496523
 20
57.050436740451381
 30
0.0
 10
45.511261664496523
 20
52.812108018663189
 30
0.0
 10
45.511261664496523
 20
52.812108018663189
 30
0.0
 10
45.511261664496523
 20
52.41178792317708
 30
0.0
 10
45.189145236545137
 20
52.09277208116319
 30
0.0
 10
44.787791612413187
 20
52.09277208116319
 30
0.0
 10
44.787791612413187
 20
52.09277208116319
 30
0.0
 10
-11.519193522135415
 20
52.09277208116319
 30
0.0
 10
-11.519193522135415
 20
52.09277208116319
 30
0.0
 10
-11.915207248263888
 20
52.09277208116319
 30
0.0
 10
-12.239562988281248
 20
52.41178792317708
 30
0.0
 10
-12.239562988281248
 20
52.812108018663189
 30
0.0
 10
-12.239562988281248
 20
52.812108018663189
 30
0.0
 10
-12.239562988281248
 20
57.050436740451381
 30
0.0
 10
-12.239562988281248
 20
57.050436740451381
 30
0.0
 10
-12.239562988281248
 20
57.450756835937497
 30
0.0
 10
-11.915207248263888
 20
57.774079047309023
 30
0.0
 10
-11.519193522135415
 20
57.774079047309023
 30
0.0
  0
INSERT
  5
55
100
AcDbEntity
  8
LIVELLO_1
 62
     7
100
AcDbBlockReference
  2
AI9-BLK2
 10
-53.5609
 20
57.743245
 30
0.0
  0
LINE
  5
53
100
AcDbEntity
  8
LIVELLO_1
 62
     7
100
AcDbLine
 10
-35.636757
 20
114.699114
 30
0.0
 11
-36.472537
 21
-26.523618
 31
0.0
  0
LINE
  5
52
100
AcDbEntity
  8
LIVELLO_1
 62
     7
100
AcDbLine
 10
54.880199
 20
6.107982
 30
0.0
 11
64.436894
 21
6.107982
 31
0.0
  0
LINE
  5
51
100
AcDbEntity
  8
LIVELLO_1
 62
     7
100
AcDbLine
 10
59.657513
 20
24.94008
 30
0.0
 11
59.657513
 21
6.107982
 31
0.0
  0
LINE
  5
50
100
AcDbEntity
  8
LIVELLO_1
 62
     7
100
AcDbLine
 10
59.657513
 20
57.774079
 30
0.0
 11
59.657513
 21
40.470742
 31
0.0
  0
LINE
  5
4F
100
AcDbEntity
  8
LIVELLO_1
 62
     7
100
AcDbLine
 10
54.880199
 20
57.774079
 30
0.0
 11
64.436894
 21
57.774079
 31
0.0
  0
POLYLINE
  5
49
100
AcDbEntity
  8
LIVELLO_1
 62
     7
100
AcDb2dPolyline
 66
     1
 10
0.0
 20
0.0
 30
0.0
 70
     1
  0
VERTEX
  5
4A
100
AcDbEntity
  8
LIVELLO_1
 62
     7
100
AcDbVertex
100
AcDb2dVertex
 10
9.915846
 20
49.662257
 30
0.0
  0
VERTEX
  5
4B
100
AcDbEntity
  8
LIVELLO_1
 62
     7
100
AcDbVertex
100
AcDb2dVertex
 10
12.402344
 20
49.662257
 30
0.0
  0
VERTEX
  5
4C
100
AcDbEntity
  8
LIVELLO_1
 62
     7
100
AcDbVertex
100
AcDb2dVertex
 10
12.402344
 20
48.04134
 30
0.0
  0
VERTEX
  5
4D
100
AcDbEntity
  8
LIVELLO_1
 62
     7
100
AcDbVertex
100
AcDb2dVertex
 10
9.915846
 20
48.04134
 30
0.0
  0
SEQEND
  5
4E
100
AcDbEntity
  8
LIVELLO_1
 62
     7
  0
POLYLINE
  5
43
100
AcDbEntity
  8
LIVELLO_1
 62
     7
100
AcDb2dPolyline
 66
     1
 10
0.0
 20
0.0
 30
0.0
 70
     1
  0
VERTEX
  5
44
100
AcDbEntity
  8
LIVELLO_1
 62
     7
100
AcDbVertex
100
AcDb2dVertex
 10
20.868494
 20
49.662257
 30
0.0
  0
VERTEX
  5
45
100
AcDbEntity
  8
LIVELLO_1
 62
     7
100
AcDbVertex
100
AcDb2dVertex
 10
23.357231
 20
49.662257
 30
0.0
  0
VERTEX
  5
46
100
AcDbEntity
  8
LIVELLO_1
 62
     7
100
AcDbVertex
100
AcDb2dVertex
 10
23.357231
 20
48.04134
 30
0.0
  0
VERTEX
  5
47
100
AcDbEntity
  8
LIVELLO_1
 62
     7
100
AcDbVertex
100
AcDb2dVertex
 10
20.868494
 20
48.04134
 30
0.0
  0
SEQEND
  5
48
100
AcDbEntity
  8
LIVELLO_1
 62
     7
  0
SPLINE
  5
42
100
AcDbEntity
  8
LIVELLO_1
 62
     7
100
AcDbSpline
210
0.0
220
0.0
230
1.0
 70
     8
 71
     3
 72
    20
 73
    16
 74
     0
 42
0.00000001
 43
0.00000001
 40
0.0
 40
0.0
 40
0.0
 40
0.0
 40
1.0
 40
1.0
 40
1.0
 40
2.0
 40
2.0
 40
2.0
 40
3.0
 40
3.0
 40
3.0
 40
4.0
 40
4.0
 40
4.0
 40
5.0
 40
5.0
 40
5.0
 40
5.0
 10
31.110073513454857
 20
49.662257215711804
 30
0.0
 10
31.110073513454857
 20
49.662257215711804
 30
0.0
 10
32.11431884765625
 20
49.662257215711804
 30
0.0
 10
32.11431884765625
 20
49.662257215711804
 30
0.0
 10
32.11431884765625
 20
49.662257215711804
 30
0.0
 10
32.11431884765625
 20
8.4349717881944439
 30
0.0
 10
32.11431884765625
 20
8.4349717881944439
 30
0.0
 10
32.11431884765625
 20
8.16229248046875
 30
0.0
 10
31.897622341579858
 20
7.9468017578124996
 30
0.0
 10
31.598588053385413
 20
7.9468017578124996
 30
0.0
 10
31.33021511501736
 20
7.9468017578124996
 30
0.0
 10
31.110073513454857
 20
8.16229248046875
 30
0.0
 10
31.110073513454857
 20
8.4349717881944439
 30
0.0
 10
31.110073513454857
 20
8.4349717881944439
 30
0.0
 10
31.110073513454857
 20
49.662257215711804
 30
0.0
 10
31.110073513454857
 20
49.662257215711804
 30
0.0
  0
SPLINE
  5
41
100
AcDbEntity
  8
LIVELLO_1
 62
     7
100
AcDbSpline
210
0.0
220
0.0
230
1.0
 70
     8
 71
     3
 72
    20
 73
    16
 74
     0
 42
0.00000001
 43
0.00000001
 40
0.0
 40
0.0
 40
0.0
 40
0.0
 40
1.0
 40
1.0
 40
1.0
 40
2.0
 40
2.0
 40
2.0
 40
3.0
 40
3.0
 40
3.0
 40
4.0
 40
4.0
 40
4.0
 40
5.0
 40
5.0
 40
5.0
 40
5.0
 10
22.467362467447913
 20
48.041339789496526
 30
0.0
 10
22.467362467447913
 20
48.041339789496526
 30
0.0
 10
22.467362467447913
 20
8.4349717881944439
 30
0.0
 10
22.467362467447913
 20
8.4349717881944439
 30
0.0
 10
22.467362467447913
 20
8.16229248046875
 30
0.0
 10
22.247220865885414
 20
7.9468017578124996
 30
0.0
 10
21.947153049045138
 20
7.9468017578124996
 30
0.0
 10
21.677746582031247
 20
7.9468017578124996
 30
0.0
 10
21.461050075954859
 20
8.16229248046875
 30
0.0
 10
21.461050075954859
 20
8.4349717881944439
 30
0.0
 10
21.461050075954859
 20
8.4349717881944439
 30
0.0
 10
21.461050075954859
 20
48.041339789496526
 30
0.0
 10
21.461050075954859
 20
48.041339789496526
 30
0.0
 10
21.461050075954859
 20
48.041339789496526
 30
0.0
 10
22.467362467447913
 20
48.041339789496526
 30
0.0
 10
22.467362467447913
 20
48.041339789496526
 30
0.0
  0
SPLINE
  5
40
100
AcDbEntity
  8
LIVELLO_1
 62
     7
100
AcDbSpline
210
0.0
220
0.0
230
1.0
 70
     8
 71
     3
 72
    20
 73
    16
 74
     0
 42
0.00000001
 43
0.00000001
 40
0.0
 40
0.0
 40
0.0
 40
0.0
 40
1.0
 40
1.0
 40
1.0
 40
2.0
 40
2.0
 40
2.0
 40
3.0
 40
3.0
 40
3.0
 40
4.0
 40
4.0
 40
4.0
 40
5.0
 40
5.0
 40
5.0
 40
5.0
 10
26.787167697482637
 20
49.662257215711804
 30
0.0
 10
26.787167697482637
 20
49.662257215711804
 30
0.0
 10
27.794513617621526
 20
49.662257215711804
 30
0.0
 10
27.794513617621526
 20
49.662257215711804
 30
0.0
 10
27.794513617621526
 20
49.662257215711804
 30
0.0
 10
27.794513617621526
 20
8.4349717881944439
 30
0.0
 10
27.794513617621526
 20
8.4349717881944439
 30
0.0
 10
27.794513617621526
 20
8.16229248046875
 30
0.0
 10
27.575405544704857
 20
7.9468017578124996
 30
0.0
 10
27.274304199218747
 20
7.9468017578124996
 30
0.0
 10
27.005931260850691
 20
7.9468017578124996
 30
0.0
 10
26.787167697482637
 20
8.16229248046875
 30
0.0
 10
26.787167697482637
 20
8.4349717881944439
 30
0.0
 10
26.787167697482637
 20
8.4349717881944439
 30
0.0
 10
26.787167697482637
 20
49.662257215711804
 30
0.0
 10
26.787167697482637
 20
49.662257215711804
 30
0.0
  0
LINE
  5
3F
100
AcDbEntity
  8
LIVELLO_1
 62
     7
100
AcDbLine
 10
-31.260796
 20
79.4346
 30
0.0
 11
-36.472537
 21
79.4346
 31
0.0
  0
LINE
  5
3E
100
AcDbEntity
  8
LIVELLO_1
 62
     7
100
AcDbLine
 10
-36.472537
 20
-31.303343
 30
0.0
 11
-36.472537
 21
-21.744237
 31
0.0
  0
LINE
  5
3D
100
AcDbEntity
  8
LIVELLO_1
 62
     7
100
AcDbLine
 10
-12.440929
 20
79.4346
 30
0.0
 11
0.509702
 21
79.4346
 31
0.0
  0
LINE
  5
3C
100
AcDbEntity
  8
LIVELLO_1
 62
     7
100
AcDbLine
 10
45.61048
 20
74.655219
 30
0.0
 11
45.61048
 21
84.211914
 31
0.0
  0
SPLINE
  5
3B
100
AcDbEntity
  8
LIVELLO_1
 62
     7
100
AcDbSpline
210
0.0
220
0.0
230
1.0
 70
     8
 71
     3
 72
    11
 73
     7
 74
     0
 42
0.00000001
 43
0.00000001
 40
0.0
 40
0.0
 40
0.0
 40
0.0
 40
1.0
 40
1.0
 40
1.0
 40
2.0
 40
2.0
 40
2.0
 40
2.0
 10
13.784860568576388
 20
40.659878200954857
 30
0.0
 10
13.836537000868054
 20
39.168496365017354
 30
0.0
 10
15.078149414062498
 20
37.991824001736106
 30
0.0
 10
16.566947428385415
 20
38.020418294270833
 30
0.0
 10
18.059362792968749
 20
38.04470621744791
 30
0.0
 10
19.256188964843748
 20
39.263236490885411
 30
0.0
 10
19.256188964843748
 20
40.754446072048609
 30
0.0
  0
CIRCLE
  5
3A
100
AcDbEntity
  8
LIVELLO_1
 62
     7
100
AcDbCircle
 10
16.525434
 20
40.666424
 30
0.0
 40
1.002977
  0
CIRCLE
  5
39
100
AcDbEntity
  8
LIVELLO_1
 62
     7
100
AcDbCircle
 10
16.525951
 20
40.663065
 30
0.0
 40
1.740431
  0
LINE
  5
38
100
AcDbEntity
  8
LIVELLO_1
 62
     7
100
AcDbLine
 10
13.784861
 20
40.659878
 30
0.0
 11
13.597792
 21
49.618332
 31
0.0
  0
LINE
  5
37
100
AcDbEntity
  8
LIVELLO_1
 62
     7
100
AcDbLine
 10
19.260323
 20
40.569617
 30
0.0
 11
19.575894
 21
49.385272
 31
0.0
  0
SPLINE
  5
36
100
AcDbEntity
  8
LIVELLO_1
 62
     7
100
AcDbSpline
210
0.0
220
0.0
230
1.0
 70
     8
 71
     3
 72
    14
 73
    10
 74
     0
 42
0.00000001
 43
0.00000001
 40
0.0
 40
0.0
 40
0.0
 40
0.0
 40
1.0
 40
1.0
 40
1.0
 40
2.0
 40
2.0
 40
2.0
 40
3.0
 40
3.0
 40
3.0
 40
3.0
 10
16.528706868489582
 20
35.191822645399306
 30
0.0
 10
18.47828640407986
 20
35.191822645399306
 30
0.0
 10
20.285583496093746
 20
36.238787163628466
 30
0.0
 10
21.265368652343749
 20
37.932396104600691
 30
0.0
 10
22.240675184461804
 20
39.623937988281249
 30
0.0
 10
22.240675184461804
 20
41.708909776475693
 30
0.0
 10
21.265368652343749
 20
43.400451660156243
 30
0.0
 10
20.285583496093746
 20
45.094060601128469
 30
0.0
 10
18.47828640407986
 20
46.13430718315972
 30
0.0
 10
16.528706868489582
 20
46.13430718315972
 30
0.0
  0
POLYLINE
  5
30
100
AcDbEntity
  8
LIVELLO_1
 62
     7
100
AcDb2dPolyline
 66
     1
 10
0.0
 20
0.0
 30
0.0
 70
     1
  0
VERTEX
  5
31
100
AcDbEntity
  8
LIVELLO_1
 62
     7
100
AcDbVertex
100
AcDb2dVertex
 10
-4.829507
 20
35.691189
 30
0.0
  0
VERTEX
  5
32
100
AcDbEntity
  8
LIVELLO_1
 62
     7
100
AcDbVertex
100
AcDb2dVertex
 10
-2.009696
 20
35.691189
 30
0.0
  0
VERTEX
  5
33
100
AcDbEntity
  8
LIVELLO_1
 62
     7
100
AcDbVertex
100
AcDb2dVertex
 10
-2.009696
 20
45.672492
 30
0.0
  0
VERTEX
  5
34
100
AcDbEntity
  8
LIVELLO_1
 62
     7
100
AcDbVertex
100
AcDb2dVertex
 10
-4.829507
 20
45.672492
 30
0.0
  0
SEQEND
  5
35
100
AcDbEntity
  8
LIVELLO_1
 62
     7
  0
MTEXT
  5
2F
100
AcDbEntity
  8
LIVELLO_1
 62
     7
100
AcDbMText
 10
48.165363
 20
39.046362
 30
0.0
 40
10.473774
 41
0.0
 71
     1
 72
     2
  1
\fArial Narrow|b0|i0;\H10.4738;\C7;\U+0031\U+0036\U+0034
  7
STD
210
0.0
220
0.0
230
1.0
 73
     1
 44
1.0
  0
MTEXT
  5
2E
100
AcDbEntity
  8
LIVELLO_1
 62
     7
100
AcDbMText
 10
1.080726
 20
85.948237
 30
0.0
 40
10.473774
 41
0.0
 71
     1
 72
     2
  1
\fArial Narrow|b0|i0;\H10.4738;\C7;\U+0031\U+0035\U+0031
  7
STD
210
0.0
220
0.0
230
1.0
 73
     1
 44
1.0
  0
MTEXT
  5
2D
100
AcDbEntity
  8
LIVELLO_1
 62
     7
100
AcDbMText
 10
-30.686499
 20
85.948237
 30
0.0
 40
10.473774
 41
0.0
 71
     1
 72
     2
  1
\fArial Narrow|b0|i0;\H10.4738;\C7;\U+0036\U+0039
  7
STD
210
0.0
220
0.0
230
1.0
 73
     1
 44
1.0
  0
MTEXT
  5
2C
100
AcDbEntity
  8
LIVELLO_1
 62
     7
100
AcDbMText
 10
-36.845124
 20
-62.548298
 30
0.0
 40
10.473774
 41
0.0
 71
     1
 72
     2
  1
\fArial Narrow|b0|i0;\H10.4738;\C7;\U+0033\U+0032\U+0035
  7
STD
210
0.0
220
0.0
230
1.0
 73
     1
 44
1.0
  0
ENDBLK
  5
DA
100
AcDbEntity
  8
LIVELLO_1
100
AcDbBlockEnd
  0
BLOCK
  5
56
100
AcDbEntity
  8
LIVELLO_1
 62
     7
100
AcDbBlockBegin
  2
AI9-BLK2
 70
     0
 10
0.0
 20
0.0
 30
0.0
  3
AI9-BLK2
  1

  0
INSERT
  5
58
100
AcDbEntity
  8
LIVELLO_1
 62
     7
100
AcDbBlockReference
  2
AI9-BLK3
 10
0.0
 20
-13.763329
 30
0.0
  0
ENDBLK
  5
5F
100
AcDbEntity
  8
LIVELLO_1
100
AcDbBlockEnd
  0
BLOCK
  5
59
100
AcDbEntity
  8
LIVELLO_1
 62
     7
100
AcDbBlockBegin
  2
AI9-BLK3
 70
     0
 10
0.0
 20
0.0
 30
0.0
  3
AI9-BLK3
  1

  0
INSERT
  5
5B
100
AcDbEntity
  8
LIVELLO_1
 62
     7
100
AcDbBlockReference
  2
AI9-BLK4
 10
0.020326
 20
-0.131947
 30
0.0
  0
ENDBLK
  5
5E
100
AcDbEntity
  8
LIVELLO_1
100
AcDbBlockEnd
  0
BLOCK
  5
5C
100
AcDbEntity
  8
LIVELLO_1
 62
     7
100
AcDbBlockBegin
  2
AI9-BLK4
 70
     0
 10
0.0
 20
0.0
 30
0.0
  3
AI9-BLK4
  1

  0
ENDBLK
  5
5D
100
AcDbEntity
  8
LIVELLO_1
100
AcDbBlockEnd
  0
ENDSEC
  0
SECTION
  2
ENTITIES
  0
INSERT
  5
2A
100
AcDbEntity
  8
LIVELLO_1
 62
     7
100
AcDbBlockReference
  2
AI9-BLK1
 10
90.235147
 20
142.122419
 30
0.0
  0
ENDSEC
  0
SECTION
  2
OBJECTS
  0
DICTIONARY
  5
19
100
AcDbDictionary
280
     0
281
     1
  3
ACAD_GROUP
350
1A
  3
ACAD_MLINESTYLE
350
1B
  3
ACAD_LAYOUT
350
1E
  3
ACAD_PLOTSETTINGS
350
22
  3
ACAD_PLOTSTYLENAME
350
1F
  3
ACAD_WIPEOUT_VARS
350
23
  0
DICTIONARY
  5
1A
102
{ACAD_REACTORS
330
19
102
}
100
AcDbDictionary
280
     0
281
     1
  0
DICTIONARY
  5
1B
102
{ACAD_REACTORS
330
19
102
}
100
AcDbDictionary
280
     0
281
     1
  3
Standard
350
1C
  0
MLINESTYLE
  5
1C
102
{ACAD_REACTORS
330
1B
102
}
100
AcDbMlineStyle
  2
Standard
 70
     0
  3

 62
     0
 51
90.0
 52
90.0
 71
     2
 49
0.5
 62
   256
  6
ByLayer
 49
-0.5
 62
   256
  6
ByLayer
  0
ACDBDICTIONARYWDFLT
  5
1F
102
{ACAD_REACTORS
330
19
102
}
100
AcDbDictionary
281
     1
  3
Normal
350
1D
100
AcDbDictionaryWithDefault
340
1D
  0
ACDBPLACEHOLDER
  5
1D
102
{ACAD_REACTORS
330
1F
102
}
  0
LAYOUT
  5
20
102
{ACAD_REACTORS
330
1E
102
}
100
AcDbPlotSettings
  1

  2

  4

  6

 40
0.0
 41
0.0
 42
0.0
 43
0.0
 44
0.0
 45
0.0
 46
0.0
 47
0.0
 48
0.0
 49
0.0
140
0.0
141
0.0
142
1.0
143
1.0
 70
  1024
 72
     0
 73
     0
 74
     0
  7

 75
     0
147
1.0
148
0.0
149
0.0
100
AcDbLayout
  1
Model
 70
     0
 71
     0
 10
0.0
 20
0.0
 11
0.0
 21
0.0
 12
0.0
 22
0.0
 32
0.0
 14
0.0
 24
0.0
 34
0.0
 15
0.0
 25
0.0
 35
0.0
146
0.0
 13
0.0
 23
0.0
 33
0.0
 16
0.0
 26
0.0
 36
0.0
 17
0.0
 27
0.0
 37
0.0
 76
     0
330
A
331
0
345
0
346
0
  0
LAYOUT
  5
21
102
{ACAD_REACTORS
330
1E
102
}
100
AcDbPlotSettings
  1

  2

  4

  6

 40
0.0
 41
0.0
 42
0.0
 43
0.0
 44
0.0
 45
0.0
 46
0.0
 47
0.0
 48
0.0
 49
0.0
140
0.0
141
0.0
142
1.0
143
1.0
 70
     0
 72
     0
 73
     0
 74
     0
  7

 75
     0
147
1.0
148
0.0
149
0.0
100
AcDbLayout
  1
Layout1
 70
     0
 71
     0
 10
0.0
 20
0.0
 11
0.0
 21
0.0
 12
0.0
 22
0.0
 32
0.0
 14
0.0
 24
0.0
 34
0.0
 15
0.0
 25
0.0
 35
0.0
146
0.0
 13
0.0
 23
0.0
 33
0.0
 16
0.0
 26
0.0
 36
0.0
 17
0.0
 27
0.0
 37
0.0
 76
     0
330
B
331
0
345
0
346
0
  0
DICTIONARY
  5
1E
102
{ACAD_REACTORS
330
19
102
}
100
AcDbDictionary
280
     0
281
     1
  3
Layout1
350
21
  3
Model
350
20
  0
DICTIONARY
  5
22
102
{ACAD_REACTORS
330
19
102
}
100
AcDbDictionary
280
     0
281
     1
  0
WIPEOUTVARIABLES
  5
23
100
AcDbWipeoutVariables
 70
     1
  0
ENDSEC
  0
EOF
