  0
SECTION
  2
HEADER
  9
$ACADVER
  1
AC1015
  9
$ACADMAINTVER
 70
     6
  9
$DWGCODEPAGE
  3
ANSI_932
  9
$INSBASE
 10
0.0
 20
0.0
 30
0.0
  9
$EXTMIN
 10
0.0
 20
3.780303
 30
1.000000E+20
  9
$EXTMAX
 10
210.961111
 20
216.692889
 30
-1.000000E+20
  9
$LIMMIN
 10
0.0
 20
3.780303
  9
$LIMMAX
 10
210.961111
 20
216.692889
  9
$ORTHOMODE
 70
     0
  9
$REGENMODE
 70
     1
  9
$FILLMODE
 70
     1
  9
$QTEXTMODE
 70
     0
  9
$MIRRTEXT
 70
     1
  9
$LTSCALE
 40
1.0
  9
$ATTMODE
 70
     1
  9
$TEXTSIZE
 40
0.2
  9
$TRACEWID
 40
0.05
  9
$TEXTSTYLE
  7
Standard
  9
$CLAYER
  8
0
  9
$CELTYPE
  6
Continuous
  9
$CECOLOR
 62
   256
  9
$CELTSCALE
 40
1.0
  9
$DISPSILH
 70
     0
  9
$DIMSCALE
 40
1.0
  9
$DIMASZ
 40
0.18
  9
$DIMEXO
 40
0.0625
  9
$DIMDLI
 40
0.38
  9
$DIMRND
 40
0.0
  9
$DIMDLE
 40
0.0
  9
$DIMEXE
 40
0.18
  9
$DIMTP
 40
0.0
  9
$DIMTM
 40
0.0
  9
$DIMTXT
 40
0.18
  9
$DIMCEN
 40
0.09
  9
$DIMTSZ
 40
0.0
  9
$DIMTOL
 70
     0
  9
$DIMLIM
 70
     0
  9
$DIMTIH
 70
     1
  9
$DIMTOH
 70
     1
  9
$DIMSE1
 70
     0
  9
$DIMSE2
 70
     0
  9
$DIMTAD
 70
     0
  9
$DIMZIN
 70
     0
  9
$DIMBLK
  1

  9
$DIMASO
 70
     1
  9
$DIMSHO
 70
     1
  9
$DIMPOST
  1

  9
$DIMAPOST
  1

  9
$DIMALT
 70
     0
  9
$DIMALTD
 70
     2
  9
$DIMALTF
 40
25.4
  9
$DIMLFAC
 40
1.0
  9
$DIMTOFL
 70
     0
  9
$DIMTVP
 40
0.0
  9
$DIMTIX
 70
     0
  9
$DIMSOXD
 70
     0
  9
$DIMSAH
 70
     0
  9
$DIMBLK1
  1

  9
$DIMBLK2
  1

  9
$DIMSTYLE
  2
Standard
  9
$DIMCLRD
 70
     0
  9
$DIMCLRE
 70
     0
  9
$DIMCLRT
 70
     0
  9
$DIMTFAC
 40
1.0
  9
$DIMGAP
 40
0.09
  9
$DIMJUST
 70
     0
  9
$DIMSD1
 70
     0
  9
$DIMSD2
 70
     0
  9
$DIMTOLJ
 70
     1
  9
$DIMTZIN
 70
     0
  9
$DIMALTZ
 70
     0
  9
$DIMALTTZ
 70
     0
  9
$DIMUPT
 70
     0
  9
$DIMDEC
 70
     4
  9
$DIMTDEC
 70
     4
  9
$DIMALTU
 70
     2
  9
$DIMALTTD
 70
     2
  9
$DIMTXSTY
  7
Standard
  9
$DIMAUNIT
 70
     0
  9
$DIMADEC
 70
     0
  9
$DIMALTRND
 40
0.0
  9
$DIMAZIN
 70
     0
  9
$DIMDSEP
 70
     0
  9
$DIMATFIT
 70
     3
  9
$DIMFRAC
 70
     0
  9
$DIMLDRBLK
  1

  9
$DIMLUNIT
 70
     2
  9
$DIMLWD
 70
     0
  9
$DIMLWE
 70
     0
  9
$DIMTMOVE
 70
     0
  9
$LUNITS
 70
     2
  9
$LUPREC
 70
     4
  9
$SKETCHINC
 40
0.1
  9
$FILLETRAD
 40
0.0
  9
$AUNITS
 70
     0
  9
$AUPREC
 70
     0
  9
$MENU
  1
acad
  9
$ELEVATION
 40
0.0
  9
$PELEVATION
 40
0.0
  9
$THICKNESS
 40
0.0
  9
$LIMCHECK
 70
     0
  9
$CHAMFERA
 40
0.0
  9
$CHAMFERB
 40
0.0
  9
$CHAMFERC
 40
0.0
  9
$CHAMFERD
 40
0.0
  9
$SKPOLY
 70
     0
  9
$TDCREATE
 40
0.000000000
  9
$TDUCREATE
 40
0.000000000
  9
$TDUPDATE
 40
0.000000000
  9
$TDUUPDATE
 40
0.000000000
  9
$TDINDWG
 40
0.0000000000
  9
$TDUSRTIMER
 40
0.0000000000
  9
$USRTIMER
 70
     1
  9
$ANGBASE
 50
0.0
  9
$ANGDIR
 70
     0
  9
$PDMODE
 70
     0
  9
$PDSIZE
 40
0.0
  9
$PLINEWID
 40
0.0
  9
$SPLFRAME
 70
     0
  9
$SPLINETYPE
 70
     6
  9
$SPLINESEGS
 70
     8
  9
$HANDSEED
  5
148
  9
$SURFTAB1
 70
     6
  9
$SURFTAB2
 70
     6
  9
$SURFTYPE
 70
     6
  9
$SURFU
 70
     6
  9
$SURFV
 70
     6
  9
$UCSBASE
  2

  9
$UCSNAME
  2

  9
$UCSORG
 10
0.0
 20
0.0
 30
0.0
  9
$UCSXDIR
 10
1.0
 20
0.0
 30
0.0
  9
$UCSYDIR
 10
0.0
 20
1.0
 30
0.0
  9
$UCSORTHOREF
  2

  9
$UCSORTHOVIEW
 70
     0
  9
$UCSORGTOP
 10
0.0
 20
0.0
 30
0.0
  9
$UCSORGBOTTOM
 10
0.0
 20
0.0
 30
0.0
  9
$UCSORGLEFT
 10
0.0
 20
0.0
 30
0.0
  9
$UCSORGRIGHT
 10
0.0
 20
0.0
 30
0.0
  9
$UCSORGFRONT
 10
0.0
 20
0.0
 30
0.0
  9
$UCSORGBACK
 10
0.0
 20
0.0
 30
0.0
  9
$PUCSBASE
  2

  9
$PUCSNAME
  2

  9
$PUCSORG
 10
0.0
 20
0.0
 30
0.0
  9
$PUCSXDIR
 10
1.0
 20
0.0
 30
0.0
  9
$PUCSYDIR
 10
0.0
 20
1.0
 30
0.0
  9
$PUCSORTHOREF
  2

  9
$PUCSORTHOVIEW
 70
     0
  9
$PUCSORGTOP
 10
0.0
 20
0.0
 30
0.0
  9
$PUCSORGBOTTOM
 10
0.0
 20
0.0
 30
0.0
  9
$PUCSORGLEFT
 10
0.0
 20
0.0
 30
0.0
  9
$PUCSORGRIGHT
 10
0.0
 20
0.0
 30
0.0
  9
$PUCSORGFRONT
 10
0.0
 20
0.0
 30
0.0
  9
$PUCSORGBACK
 10
0.0
 20
0.0
 30
0.0
  9
$USERI1
 70
     0
  9
$USERI2
 70
     0
  9
$USERI3
 70
     0
  9
$USERI4
 70
     0
  9
$USERI5
 70
     0
  9
$USERR1
 40
0.0
  9
$USERR2
 40
0.0
  9
$USERR3
 40
0.0
  9
$USERR4
 40
0.0
  9
$USERR5
 40
0.0
  9
$WORLDVIEW
 70
     1
  9
$SHADEDGE
 70
     3
  9
$SHADEDIF
 70
    70
  9
$TILEMODE
 70
     1
  9
$MAXACTVP
 70
    16
  9
$PINSBASE
 10
0.0
 20
0.0
 30
0.0
  9
$PLIMCHECK
 70
     0
  9
$PEXTMIN
 10
1.000000E+20
 20
1.000000E+20
 30
1.000000E+20
  9
$PEXTMAX
 10
-1.000000E+20
 20
-1.000000E+20
 30
-1.000000E+20
  9
$PLIMMIN
 10
0.0
 20
0.0
  9
$PLIMMAX
 10
12.0
 20
9.0
  9
$UNITMODE
 70
     0
  9
$VISRETAIN
 70
     0
  9
$PLINEGEN
 70
     1
  9
$PSLTSCALE
 70
     0
  9
$TREEDEPTH
 70
  3020
  9
$CMLSTYLE
  2
Standard
  9
$CMLJUST
 70
     0
  9
$CMLSCALE
 40
1.0
  9
$PROXYGRAPHICS
 70
     0
  9
$MEASUREMENT
 70
     1
  9
$CELWEIGHT
370
     0
  9
$ENDCAPS
280
     0
  9
$JOINSTYLE
280
     0
  9
$LWDISPLAY
290
     0
  9
$INSUNITS
 70
     0
  9
$HYPERLINKBASE
  1

  9
$STYLESHEET
  1

  9
$XEDIT
290
     1
  9
$CEPSNTYPE
380
     0
  9
$PSTYLEMODE
290
     1
  9
$FINGERPRINTGUID
  2

  9
$VERSIONGUID
  2

  9
$EXTNAMES
290
     1
  9
$PSVPSCALE
 40
0.0
  0
ENDSEC
  0
SECTION
  2
CLASSES
  0
CLASS
  1
LWPOLYLINE
  2
AcDbPolyline
  3
AutoCAD 2000
 90
    32768
280
     0
281
     1
  0
CLASS
  1
IMAGE
  2
AcDbRasterImage
  3
ISM
 90
    32895
280
     0
281
     1
  0
CLASS
  1
OLE2FRAME
  2
AcDbOle2Frame
  3
AutoCAD 2000
 90
    32768
280
     0
281
     1
  0
CLASS
  1
HATCH
  2
AcDbHatch
  3
AutoCAD 2000
 90
        0
280
     0
281
     1
  0
CLASS
  1
DICTIONARYVAR
  2
AcDbDictionaryVar
  3
AutoCAD 2000
 90
    32768
280
     0
281
     0
  0
CLASS
  1
RASTERVARIABLES
  2
AcDbRasterVariables
  3
ISM
 90
    32768
280
     0
281
     0
  0
CLASS
  1
IMAGEDEF
  2
AcDbRasterImageDef
  3
ISM
 90
    32768
280
     0
281
     0
  0
CLASS
  1
IMAGEDEF_REACTOR
  2
AcDbRasterImageDefReactor
  3
ISM
 90
    32769
280
     0
281
     0
  0
CLASS
  1
IDBUFFER
  2
AcDbIdBuffer
  3
AutoCAD 2000
 90
    32768
280
     0
281
     0
  0
CLASS
  1
SPATIAL_FILTER
  2
AcDbSpatialFilter
  3
AutoCAD 2000
 90
    32768
280
     0
281
     0
  0
CLASS
  1
XRECORD
  2
AcDbXrecord
  3
AutoCAD 2000
 90
    32768
280
     0
281
     0
  0
CLASS
  1
SORTENTSTABLE
  2
AcDbSortentsTable
  3
AutoCAD 2000
 90
    32768
280
     0
281
     0
  0
CLASS
  1
LAYER_INDEX
  2
AcDbLayerIndex
  3
AutoCAD 2000
 90
    32768
280
     0
281
     0
  0
CLASS
  1
SPATIAL_INDEX
  2
AcDbSpatialIndex
  3
AutoCAD 2000
 90
    32768
280
     0
281
     0
  0
CLASS
  1
OBJECT_PTR
  2
CAseDLPNTableRecord
  3
"ASE-LPNTableRecord"
 90
    32769
280
     0
281
     0
  0
CLASS
  1
LAYOUT
  2
AcDbLayout
  3
AutoCAD 2000
 90
        0
280
     0
281
     0
  0
CLASS
  1
PLOTSETTINGS
  2
AcDbPlotSettings
  3
AutoCAD 2000
 90
    32768
280
     0
281
     0
  0
CLASS
  1
ACDBDICTIONARYWDFLT
  2
AcDbDictionaryWithDefault
  3
AutoCAD 2000
 90
        0
280
     0
281
     0
  0
CLASS
  1
ACDBPLACEHOLDER
  2
AcDbPlaceHolder
  3
AutoCAD 2000
 90
        0
280
     0
281
     0
  0
CLASS
  1
VBA_PROJECT
  2
AcDbVbaProject
  3
acadvba
 90
    32768
280
     0
281
     0
  0
CLASS
  1
WIPEOUT
  2
AcDbWipeout
  3
WipeOut|AutoCAD Express Tool|expresstools@autodesk.com
 90
    32895
280
     0
281
     1
  0
CLASS
  1
WIPEOUTVARIABLES
  2
AcDbWipeoutVariables
  3
WipeOut|AutoCAD Express Tool|expresstools@autodesk.com
 90
        0
280
     0
281
     0
  0
CLASS
  1
RTEXT
  2
RText
  3
RText|AutoCAD Express Tool|expresstools@autodesk.com
 90
    32768
280
     0
281
     1
  0
CLASS
  1
ARCALIGNEDTEXT
  2
AcDbArcAlignedText
  3
ATEXT|AutoCAD Express Tool|expresstools@autodesk.com
 90
    32768
280
     0
281
     1
  0
ENDSEC
  0
SECTION
  2
TABLES
  0
TABLE
  2
VPORT
  5
7
100
AcDbSymbolTable
 70
     1
  0
VPORT
  5
15
100
AcDbSymbolTableRecord
100
AcDbViewportTableRecord
  2
*ACTIVE
 70
     0
 10
0.0
 20
0.0
 11
1.0
 21
1.0
 12
6.591288
 22
4.579184
 13
0.0
 23
0.0
 14
1.0
 24
1.0
 15
0.0
 25
0.0
 16
0.0
 26
0.0
 36
1.0
 17
0.0
 27
0.0
 37
0.0
 40
9.158369
 41
0.688564
 42
50.0
 43
0.0
 44
0.0
 50
0.0
 51
0.0
 71
     0
 72
   100
 73
     1
 74
     1
 75
     0
 76
     0
 77
     0
 78
     0
281
     0
 65
     0
110
0.0
120
0.0
130
0.0
111
1.0
121
0.0
131
0.0
112
0.0
122
1.0
132
0.0
345
0
346
0
 79
     0
146
0.0
  0
ENDTAB
  0
TABLE
  2
LTYPE
  5
4
100
AcDbSymbolTable
 70
     3
  0
LTYPE
  5
11
100
AcDbSymbolTableRecord
100
AcDbLinetypeTableRecord
  2
ByBlock
 70
    64
  3

 72
    65
 73
     0
 40
0.0
  0
LTYPE
  5
12
100
AcDbSymbolTableRecord
100
AcDbLinetypeTableRecord
  2
ByLayer
 70
    64
  3

 72
    65
 73
     0
 40
0.0
  0
LTYPE
  5
13
100
AcDbSymbolTableRecord
100
AcDbLinetypeTableRecord
  2
Continuous
 70
    64
  3
Solid line
 72
    65
 73
     0
 40
0.0
  0
ENDTAB
  0
TABLE
  2
LAYER
  5
2
100
AcDbSymbolTable
 70
     2
  0
LAYER
  5
14
100
AcDbSymbolTableRecord
100
AcDbLayerTableRecord
  2
0
 70
     0
 62
     7
  6
Continuous
290
     1
370
    -3
390
1D
  0
LAYER
  5
28
100
AcDbSymbolTableRecord
100
AcDbLayerTableRecord
  2
LIVELLO_1
 70
     0
 62
   160
  6
Continuous
290
     1
370
    -3
390
1D
  0
ENDTAB
  0
TABLE
  2
STYLE
  5
3
100
AcDbSymbolTable
 70
     5
  0
STYLE
  5
17
100
AcDbSymbolTableRecord
100
AcDbTextStyleTableRecord
  2
Standard
 70
     0
 40
0.0
 41
1.0
 50
0.0
 71
     0
 42
0.0
  3
txt
  4

  0
STYLE
  5
24
100
AcDbSymbolTableRecord
100
AcDbTextStyleTableRecord
  2
STD
 70
     0
 40
0.0
 41
1.0
 50
0.0
 71
     0
 42
0.0
  3
txt
  4

  0
STYLE
  5
25
100
AcDbSymbolTableRecord
100
AcDbTextStyleTableRecord
  2
TATESTD
 70
     4
 40
0.0
 41
1.0
 50
0.0
 71
     0
 42
0.0
  3
txt
  4

  0
STYLE
  5
26
100
AcDbSymbolTableRecord
100
AcDbTextStyleTableRecord
  2
KANJISTD
 70
     0
 40
0.0
 41
1.0
 50
0.0
 71
     0
 42
0.0
  3
txt
  4
extfont
  0
STYLE
  5
27
100
AcDbSymbolTableRecord
100
AcDbTextStyleTableRecord
  2
KANJITATE
 70
     4
 40
0.0
 41
1.0
 50
0.0
 71
     0
 42
0.0
  3
txt
  4
extfont
  0
ENDTAB
  0
TABLE
  2
VIEW
  5
5
100
AcDbSymbolTable
 70
     0
  0
ENDTAB
  0
TABLE
  2
UCS
  5
6
100
AcDbSymbolTable
 70
     0
  0
ENDTAB
  0
TABLE
  2
APPID
  5
8
100
AcDbSymbolTable
 70
     1
  0
APPID
  5
16
100
AcDbSymbolTableRecord
100
AcDbRegAppTableRecord
  2
ACAD
 70
     0
  0
ENDTAB
  0
TABLE
  2
DIMSTYLE
  5
9
100
AcDbSymbolTable
 70
     1
100
AcDbDimStyleTable
 71
     0
  0
DIMSTYLE
105
18
100
AcDbSymbolTableRecord
100
AcDbDimStyleTableRecord
  2
Standard
 70
     0
  3

  4

 40
1.0
 41
0.18
 42
0.0625
 43
0.38
 44
0.18
 45
0.0
 46
0.0
 47
0.0
 48
0.0
 71
     0
 72
     0
 73
     1
 74
     1
 75
     0
 76
     0
 77
     0
 78
     0
 79
     0
140
0.18
141
0.09
142
0.0
143
25.4
144
1.0
145
0.0
146
1.0
147
0.09
148
0.0
170
     0
171
     2
172
     0
173
     0
174
     0
175
     0
176
     0
177
     0
178
     0
179
     0
271
     4
272
     4
273
     2
274
     2
275
     0
276
     0
277
     2
278
    46
279
     0
280
     0
281
     0
282
     0
283
     1
284
     0
285
     0
286
     0
288
     0
340
17
341
0
342
0
343
0
344
0
371
    -2
372
    -2
  0
ENDTAB
  0
TABLE
  2
BLOCK_RECORD
  5
1
100
AcDbSymbolTable
 70
     1
  0
BLOCK_RECORD
  5
A
100
AcDbSymbolTableRecord
100
AcDbBlockTableRecord
  2
*MODEL_SPACE
340
20
  0
BLOCK_RECORD
  5
B
100
AcDbSymbolTableRecord
100
AcDbBlockTableRecord
  2
*PAPER_SPACE
340
21
  0
BLOCK_RECORD
  5
29
100
AcDbSymbolTableRecord
100
AcDbBlockTableRecord
  2
AI9-BLK1
340
0
102
{BLKREFS
331
2A
102
}
  0
ENDTAB
  0
ENDSEC
  0
SECTION
  2
BLOCKS
  0
BLOCK
  5
D
100
AcDbEntity
  8
0
100
AcDbBlockBegin
  2
*MODEL_SPACE
 70
     0
 10
0.0
 20
0.0
 30
0.0
  3
*MODEL_SPACE
  1

  0
ENDBLK
  5
E
100
AcDbEntity
  8
0
100
AcDbBlockEnd
  0
BLOCK
  5
F
100
AcDbEntity
 67
     1
  8
0
100
AcDbBlockBegin
  2
*PAPER_SPACE
 70
     0
 10
0.0
 20
0.0
 30
0.0
  3
*PAPER_SPACE
  1

  0
ENDBLK
  5
10
100
AcDbEntity
 67
     1
  8
0
100
AcDbBlockEnd
  0
BLOCK
  5
2B
100
AcDbEntity
  8
LIVELLO_1
 62
     7
100
AcDbBlockBegin
  2
AI9-BLK1
 70
     0
 10
0.0
 20
0.0
 30
0.0
  3
AI9-BLK1
  1

  0
HATCH
  5
146
100
AcDbEntity
  8
LIVELLO_1
 62
   255
100
AcDbHatch
 10
0.0
 20
0.0
 30
0.0
210
0.0
220
0.0
230
1.0
  2
SOLID
 70
     1
 71
     0
 91
        1
 92
        1
 93
        1
 72
     4
 94
        3
 73
     0
 74
     0
 95
       20
 96
       16
 40
0.0
 40
0.0
 40
0.0
 40
0.0
 40
1.0
 40
1.0
 40
1.0
 40
2.0
 40
2.0
 40
2.0
 40
3.0
 40
3.0
 40
3.0
 40
4.0
 40
4.0
 40
4.0
 40
5.0
 40
5.0
 40
5.0
 40
5.0
 10
50.073429361979159
 20
17.362161593967013
 10
50.073429361979159
 20
17.362161593967013
 10
20.668161349826388
 20
86.291976589626728
 10
20.668161349826388
 20
86.291976589626728
 10
20.668161349826388
 20
86.291976589626728
 10
29.944080946180552
 20
86.098878987630201
 10
42.090798611111104
 20
79.286891682942695
 10
54.235104709201387
 20
72.472665066189236
 10
62.57154676649305
 20
63.626693386501728
 10
62.57154676649305
 20
63.626693386501728
 10
62.57154676649305
 20
63.626693386501728
 10
61.301684570312496
 20
17.362161593967013
 10
61.301684570312496
 20
17.362161593967013
 10
61.301684570312496
 20
17.362161593967013
 10
50.073429361979159
 20
17.362161593967013
 10
50.073429361979159
 20
17.362161593967013
 97
        0
 75
     2
 76
     1
 98
        1
 10
0.0
 20
0.0
  0
HATCH
  5
145
100
AcDbEntity
  8
LIVELLO_1
 62
   255
100
AcDbHatch
 10
0.0
 20
0.0
 30
0.0
210
0.0
220
0.0
230
1.0
  2
SOLID
 70
     1
 71
     0
 91
        1
 92
        1
 93
        1
 72
     4
 94
        3
 73
     0
 74
     0
 95
       20
 96
       16
 40
0.0
 40
0.0
 40
0.0
 40
0.0
 40
1.0
 40
1.0
 40
1.0
 40
2.0
 40
2.0
 40
2.0
 40
3.0
 40
3.0
 40
3.0
 40
4.0
 40
4.0
 40
4.0
 40
5.0
 40
5.0
 40
5.0
 40
5.0
 10
75.785555013020826
 20
17.362161593967013
 10
75.785555013020826
 20
17.362161593967013
 10
105.1908230251736
 20
86.291976589626728
 10
105.1908230251736
 20
86.291976589626728
 10
105.1908230251736
 20
86.291976589626728
 10
95.914903428819429
 20
86.098878987630201
 10
83.76818576388888
 20
79.286891682942695
 10
71.625257703993043
 20
72.472665066189236
 10
63.28881564670138
 20
63.626693386501728
 10
63.28881564670138
 20
63.626693386501728
 10
63.28881564670138
 20
63.626693386501728
 10
64.555232747395834
 20
17.362161593967013
 10
64.555232747395834
 20
17.362161593967013
 10
64.555232747395834
 20
17.362161593967013
 10
75.785555013020826
 20
17.362161593967013
 10
75.785555013020826
 20
17.362161593967013
 97
        0
 75
     2
 76
     1
 98
        1
 10
0.0
 20
0.0
  0
SPLINE
  5
144
100
AcDbEntity
  8
LIVELLO_1
 62
     7
100
AcDbSpline
210
0.0
220
0.0
230
1.0
 70
     8
 71
     3
 72
    17
 73
    13
 74
     0
 42
0.00000001
 43
0.00000001
 40
0.0
 40
0.0
 40
0.0
 40
0.0
 40
1.0
 40
1.0
 40
1.0
 40
2.0
 40
2.0
 40
2.0
 40
3.0
 40
3.0
 40
3.0
 40
4.0
 40
4.0
 40
4.0
 40
4.0
 10
60.437310112847214
 20
64.280055745442709
 30
0.0
 10
50.409326171874994
 20
75.811307101779505
 30
0.0
 10
36.459790039062497
 20
83.837862820095481
 30
0.0
 10
20.668161349826388
 20
86.291976589626728
 30
0.0
 10
20.668161349826388
 20
86.291976589626728
 30
0.0
 10
20.738785807291666
 20
86.963253445095475
 30
0.0
 10
20.738785807291666
 20
86.963253445095475
 30
0.0
 10
36.906618923611106
 20
84.459874810112836
 30
0.0
 10
51.162424045138884
 20
76.170630560980896
 30
0.0
 10
61.327522786458324
 20
64.280055745442709
 30
0.0
 10
61.327522786458324
 20
64.280055745442709
 30
0.0
 10
60.437310112847214
 20
64.280055745442709
 30
0.0
 10
60.437310112847214
 20
64.280055745442709
 30
0.0
  0
SPLINE
  5
143
100
AcDbEntity
  8
LIVELLO_1
 62
     7
100
AcDbSpline
210
0.0
220
0.0
230
1.0
 70
     8
 71
     3
 72
    17
 73
    13
 74
     0
 42
0.00000001
 43
0.00000001
 40
0.0
 40
0.0
 40
0.0
 40
0.0
 40
1.0
 40
1.0
 40
1.0
 40
2.0
 40
2.0
 40
2.0
 40
3.0
 40
3.0
 40
3.0
 40
4.0
 40
4.0
 40
4.0
 40
4.0
 10
60.437310112847214
 20
64.280055745442709
 30
0.0
 10
50.409326171874994
 20
75.811307101779505
 30
0.0
 10
36.459790039062497
 20
83.837862820095481
 30
0.0
 10
20.668161349826388
 20
86.291976589626728
 30
0.0
 10
20.668161349826388
 20
86.291976589626728
 30
0.0
 10
20.738785807291666
 20
86.963253445095475
 30
0.0
 10
20.738785807291666
 20
86.963253445095475
 30
0.0
 10
36.906618923611106
 20
84.459874810112836
 30
0.0
 10
51.162424045138884
 20
76.170630560980896
 30
0.0
 10
61.327522786458324
 20
64.280055745442709
 30
0.0
 10
61.327522786458324
 20
64.280055745442709
 30
0.0
 10
60.437310112847214
 20
64.280055745442709
 30
0.0
 10
60.437310112847214
 20
64.280055745442709
 30
0.0
  0
SPLINE
  5
142
100
AcDbEntity
  8
LIVELLO_1
 62
     7
100
AcDbSpline
210
0.0
220
0.0
230
1.0
 70
     8
 71
     3
 72
    17
 73
    13
 74
     0
 42
0.00000001
 43
0.00000001
 40
0.0
 40
0.0
 40
0.0
 40
0.0
 40
1.0
 40
1.0
 40
1.0
 40
2.0
 40
2.0
 40
2.0
 40
3.0
 40
3.0
 40
3.0
 40
4.0
 40
4.0
 40
4.0
 40
4.0
 10
64.532495117187494
 20
64.280055745442709
 30
0.0
 10
74.6965603298611
 20
76.170630560980896
 30
0.0
 10
88.952365451388886
 20
84.459874810112836
 30
0.0
 10
105.12019856770833
 20
86.963253445095475
 30
0.0
 10
105.12019856770833
 20
86.963253445095475
 30
0.0
 10
105.1908230251736
 20
86.291976589626728
 30
0.0
 10
105.1908230251736
 20
86.291976589626728
 30
0.0
 10
89.399194335937494
 20
83.837862820095481
 30
0.0
 10
75.447591145833329
 20
75.811307101779505
 30
0.0
 10
65.419607204861109
 20
64.280055745442709
 30
0.0
 10
65.419607204861109
 20
64.280055745442709
 30
0.0
 10
64.532495117187494
 20
64.280055745442709
 30
0.0
 10
64.532495117187494
 20
64.280055745442709
 30
0.0
  0
SPLINE
  5
141
100
AcDbEntity
  8
LIVELLO_1
 62
     7
100
AcDbSpline
210
0.0
220
0.0
230
1.0
 70
     8
 71
     3
 72
    17
 73
    13
 74
     0
 42
0.00000001
 43
0.00000001
 40
0.0
 40
0.0
 40
0.0
 40
0.0
 40
1.0
 40
1.0
 40
1.0
 40
2.0
 40
2.0
 40
2.0
 40
3.0
 40
3.0
 40
3.0
 40
4.0
 40
4.0
 40
4.0
 40
4.0
 10
64.532495117187494
 20
64.280055745442709
 30
0.0
 10
74.6965603298611
 20
76.170630560980896
 30
0.0
 10
88.952365451388886
 20
84.459874810112836
 30
0.0
 10
105.12019856770833
 20
86.963253445095475
 30
0.0
 10
105.12019856770833
 20
86.963253445095475
 30
0.0
 10
105.1908230251736
 20
86.291976589626728
 30
0.0
 10
105.1908230251736
 20
86.291976589626728
 30
0.0
 10
89.399194335937494
 20
83.837862820095481
 30
0.0
 10
75.447591145833329
 20
75.811307101779505
 30
0.0
 10
65.419607204861109
 20
64.280055745442709
 30
0.0
 10
65.419607204861109
 20
64.280055745442709
 30
0.0
 10
64.532495117187494
 20
64.280055745442709
 30
0.0
 10
64.532495117187494
 20
64.280055745442709
 30
0.0
  0
POLYLINE
  5
13B
100
AcDbEntity
  8
LIVELLO_1
 62
     7
100
AcDb2dPolyline
 66
     1
 10
0.0
 20
0.0
 30
0.0
 70
     1
  0
VERTEX
  5
13C
100
AcDbEntity
  8
LIVELLO_1
 62
     7
100
AcDbVertex
100
AcDb2dVertex
 10
59.533662
 20
13.264565
 30
0.0
  0
VERTEX
  5
13D
100
AcDbEntity
  8
LIVELLO_1
 62
     7
100
AcDbVertex
100
AcDb2dVertex
 10
60.791121
 20
13.264565
 30
0.0
  0
VERTEX
  5
13E
100
AcDbEntity
  8
LIVELLO_1
 62
     7
100
AcDbVertex
100
AcDb2dVertex
 10
60.791121
 20
12.444977
 30
0.0
  0
VERTEX
  5
13F
100
AcDbEntity
  8
LIVELLO_1
 62
     7
100
AcDbVertex
100
AcDb2dVertex
 10
59.533662
 20
12.444977
 30
0.0
  0
SEQEND
  5
140
100
AcDbEntity
  8
LIVELLO_1
 62
     7
  0
POLYLINE
  5
135
100
AcDbEntity
  8
LIVELLO_1
 62
     7
100
AcDb2dPolyline
 66
     1
 10
0.0
 20
0.0
 30
0.0
 70
     1
  0
VERTEX
  5
136
100
AcDbEntity
  8
LIVELLO_1
 62
     7
100
AcDbVertex
100
AcDb2dVertex
 10
65.068207
 20
13.264565
 30
0.0
  0
VERTEX
  5
137
100
AcDbEntity
  8
LIVELLO_1
 62
     7
100
AcDbVertex
100
AcDb2dVertex
 10
66.325323
 20
13.264565
 30
0.0
  0
VERTEX
  5
138
100
AcDbEntity
  8
LIVELLO_1
 62
     7
100
AcDbVertex
100
AcDb2dVertex
 10
66.325323
 20
12.444977
 30
0.0
  0
VERTEX
  5
139
100
AcDbEntity
  8
LIVELLO_1
 62
     7
100
AcDbVertex
100
AcDb2dVertex
 10
65.068207
 20
12.444977
 30
0.0
  0
SEQEND
  5
13A
100
AcDbEntity
  8
LIVELLO_1
 62
     7
  0
SPLINE
  5
134
100
AcDbEntity
  8
LIVELLO_1
 62
     7
100
AcDbSpline
210
0.0
220
0.0
230
1.0
 70
     8
 71
     3
 72
    20
 73
    16
 74
     0
 42
0.00000001
 43
0.00000001
 40
0.0
 40
0.0
 40
0.0
 40
0.0
 40
1.0
 40
1.0
 40
1.0
 40
2.0
 40
2.0
 40
2.0
 40
3.0
 40
3.0
 40
3.0
 40
4.0
 40
4.0
 40
4.0
 40
5.0
 40
5.0
 40
5.0
 40
5.0
 10
70.243429904513889
 20
13.264565022786456
 30
0.0
 10
70.243429904513889
 20
13.264565022786456
 30
0.0
 10
70.75054796006944
 20
13.264565022786456
 30
0.0
 10
70.75054796006944
 20
13.264565022786456
 30
0.0
 10
70.75054796006944
 20
13.264565022786456
 30
0.0
 10
70.75054796006944
 20
-7.5662048339843739
 30
0.0
 10
70.75054796006944
 20
-7.5662048339843739
 30
0.0
 10
70.75054796006944
 20
-7.7033196343315966
 30
0.0
 10
70.640649414062494
 20
-7.8111511230468746
 30
0.0
 10
70.489065212673609
 20
-7.8111511230468746
 30
0.0
 10
70.35332845052082
 20
-7.8111511230468746
 30
0.0
 10
70.243429904513889
 20
-7.7033196343315966
 30
0.0
 10
70.243429904513889
 20
-7.5662048339843739
 30
0.0
 10
70.243429904513889
 20
-7.5662048339843739
 30
0.0
 10
70.243429904513889
 20
13.264565022786456
 30
0.0
 10
70.243429904513889
 20
13.264565022786456
 30
0.0
  0
SPLINE
  5
133
100
AcDbEntity
  8
LIVELLO_1
 62
     7
100
AcDbSpline
210
0.0
220
0.0
230
1.0
 70
     8
 71
     3
 72
    20
 73
    16
 74
     0
 42
0.00000001
 43
0.00000001
 40
0.0
 40
0.0
 40
0.0
 40
0.0
 40
1.0
 40
1.0
 40
1.0
 40
2.0
 40
2.0
 40
2.0
 40
3.0
 40
3.0
 40
3.0
 40
4.0
 40
4.0
 40
4.0
 40
5.0
 40
5.0
 40
5.0
 40
5.0
 10
55.108436414930551
 20
13.264565022786456
 30
0.0
 10
55.108436414930551
 20
13.264565022786456
 30
0.0
 10
55.615898980034714
 20
13.264565022786456
 30
0.0
 10
55.615898980034714
 20
13.264565022786456
 30
0.0
 10
55.615898980034714
 20
13.264565022786456
 30
0.0
 10
55.615898980034714
 20
-4.8676615397135414
 30
0.0
 10
55.615898980034714
 20
-4.8676615397135414
 30
0.0
 10
55.615898980034714
 20
-5.0023647732204859
 30
0.0
 10
55.505655924479164
 20
-5.1122633192274298
 30
0.0
 10
55.354416232638883
 20
-5.1122633192274298
 30
0.0
 10
55.218334960937497
 20
-5.1122633192274298
 30
0.0
 10
55.108436414930551
 20
-5.0023647732204859
 30
0.0
 10
55.108436414930551
 20
-4.8676615397135414
 30
0.0
 10
55.108436414930551
 20
-4.8676615397135414
 30
0.0
 10
55.108436414930551
 20
13.264565022786456
 30
0.0
 10
55.108436414930551
 20
13.264565022786456
 30
0.0
  0
SPLINE
  5
132
100
AcDbEntity
  8
LIVELLO_1
 62
     7
100
AcDbSpline
210
0.0
220
0.0
230
1.0
 70
     8
 71
     3
 72
    20
 73
    16
 74
     0
 42
0.00000001
 43
0.00000001
 40
0.0
 40
0.0
 40
0.0
 40
0.0
 40
1.0
 40
1.0
 40
1.0
 40
2.0
 40
2.0
 40
2.0
 40
3.0
 40
3.0
 40
3.0
 40
4.0
 40
4.0
 40
4.0
 40
5.0
 40
5.0
 40
5.0
 40
5.0
 10
65.8753933376736
 20
12.444976806640623
 30
0.0
 10
65.8753933376736
 20
12.444976806640623
 30
0.0
 10
65.8753933376736
 20
-7.5662048339843739
 30
0.0
 10
65.8753933376736
 20
-7.5662048339843739
 30
0.0
 10
65.8753933376736
 20
-7.7033196343315966
 30
0.0
 10
65.764116753472223
 20
-7.8111511230468746
 30
0.0
 10
65.612532552083323
 20
-7.8111511230468746
 30
0.0
 10
65.476795789930549
 20
-7.8111511230468746
 30
0.0
 10
65.366552734374991
 20
-7.7033196343315966
 30
0.0
 10
65.366552734374991
 20
-7.5662048339843739
 30
0.0
 10
65.366552734374991
 20
-7.5662048339843739
 30
0.0
 10
65.366552734374991
 20
12.444976806640623
 30
0.0
 10
65.366552734374991
 20
12.444976806640623
 30
0.0
 10
65.366552734374991
 20
12.444976806640623
 30
0.0
 10
65.8753933376736
 20
12.444976806640623
 30
0.0
 10
65.8753933376736
 20
12.444976806640623
 30
0.0
  0
SPLINE
  5
131
100
AcDbEntity
  8
LIVELLO_1
 62
     7
100
AcDbSpline
210
0.0
220
0.0
230
1.0
 70
     8
 71
     3
 72
    23
 73
    19
 74
     0
 42
0.00000001
 43
0.00000001
 40
0.0
 40
0.0
 40
0.0
 40
0.0
 40
1.0
 40
1.0
 40
1.0
 40
2.0
 40
2.0
 40
2.0
 40
3.0
 40
3.0
 40
3.0
 40
4.0
 40
4.0
 40
4.0
 40
5.0
 40
5.0
 40
5.0
 40
6.0
 40
6.0
 40
6.0
 40
6.0
 10
63.182017686631937
 20
10.516412353515625
 30
0.0
 10
63.182017686631937
 20
10.516412353515625
 30
0.0
 10
63.182017686631937
 20
-7.5662048339843739
 30
0.0
 10
63.182017686631937
 20
-7.5662048339843739
 30
0.0
 10
63.182017686631937
 20
-7.7033196343315966
 30
0.0
 10
63.072119140624991
 20
-7.8111511230468746
 30
0.0
 10
62.920534939236106
 20
-7.8111511230468746
 30
0.0
 10
62.784798177083324
 20
-7.8111511230468746
 30
0.0
 10
62.674555121527774
 20
-7.7033196343315966
 30
0.0
 10
62.674555121527774
 20
-7.5662048339843739
 30
0.0
 10
62.674555121527774
 20
-7.5662048339843739
 30
0.0
 10
62.674555121527774
 20
10.516412353515625
 30
0.0
 10
62.674555121527774
 20
10.516412353515625
 30
0.0
 10
62.756548394097216
 20
10.502976481119791
 30
0.0
 10
62.841986762152771
 20
10.49643079969618
 30
0.0
 10
62.929492187499996
 20
10.49643079969618
 30
0.0
 10
63.01699761284722
 20
10.49643079969618
 30
0.0
 10
63.100024414062496
 20
10.502976481119791
 30
0.0
 10
63.182017686631937
 20
10.516412353515625
 30
0.0
  0
SPLINE
  5
130
100
AcDbEntity
  8
LIVELLO_1
 62
     7
100
AcDbSpline
210
0.0
220
0.0
230
1.0
 70
     8
 71
     3
 72
    20
 73
    16
 74
     0
 42
0.00000001
 43
0.00000001
 40
0.0
 40
0.0
 40
0.0
 40
0.0
 40
1.0
 40
1.0
 40
1.0
 40
2.0
 40
2.0
 40
2.0
 40
3.0
 40
3.0
 40
3.0
 40
4.0
 40
4.0
 40
4.0
 40
5.0
 40
5.0
 40
5.0
 40
5.0
 10
60.49002007378472
 20
12.444976806640623
 30
0.0
 10
60.49002007378472
 20
12.444976806640623
 30
0.0
 10
60.49002007378472
 20
-7.5662048339843739
 30
0.0
 10
60.49002007378472
 20
-7.5662048339843739
 30
0.0
 10
60.49002007378472
 20
-7.7033196343315966
 30
0.0
 10
60.382533094618047
 20
-7.8111511230468746
 30
0.0
 10
60.230948893229161
 20
-7.8111511230468746
 30
0.0
 10
60.092800564236107
 20
-7.8111511230468746
 30
0.0
 10
59.98255750868055
 20
-7.7033196343315966
 30
0.0
 10
59.98255750868055
 20
-7.5662048339843739
 30
0.0
 10
59.98255750868055
 20
-7.5662048339843739
 30
0.0
 10
59.98255750868055
 20
12.444976806640623
 30
0.0
 10
59.98255750868055
 20
12.444976806640623
 30
0.0
 10
59.98255750868055
 20
12.444976806640623
 30
0.0
 10
60.49002007378472
 20
12.444976806640623
 30
0.0
 10
60.49002007378472
 20
12.444976806640623
 30
0.0
  0
SPLINE
  5
12F
100
AcDbEntity
  8
LIVELLO_1
 62
     7
100
AcDbSpline
210
0.0
220
0.0
230
1.0
 70
     8
 71
     3
 72
    20
 73
    16
 74
     0
 42
0.00000001
 43
0.00000001
 40
0.0
 40
0.0
 40
0.0
 40
0.0
 40
1.0
 40
1.0
 40
1.0
 40
2.0
 40
2.0
 40
2.0
 40
3.0
 40
3.0
 40
3.0
 40
4.0
 40
4.0
 40
4.0
 40
5.0
 40
5.0
 40
5.0
 40
5.0
 10
57.291937934027771
 20
13.264565022786456
 30
0.0
 10
57.291937934027771
 20
13.264565022786456
 30
0.0
 10
57.800434027777776
 20
13.264565022786456
 30
0.0
 10
57.800434027777776
 20
13.264565022786456
 30
0.0
 10
57.800434027777776
 20
13.264565022786456
 30
0.0
 10
57.800434027777776
 20
-4.8676615397135414
 30
0.0
 10
57.800434027777776
 20
-4.8676615397135414
 30
0.0
 10
57.800434027777776
 20
-5.0023647732204859
 30
0.0
 10
57.69053548177083
 20
-5.1122633192274298
 30
0.0
 10
57.537573242187491
 20
-5.1122633192274298
 30
0.0
 10
57.402870008680551
 20
-5.1122633192274298
 30
0.0
 10
57.291937934027771
 20
-5.0023647732204859
 30
0.0
 10
57.291937934027771
 20
-4.8676615397135414
 30
0.0
 10
57.291937934027771
 20
-4.8676615397135414
 30
0.0
 10
57.291937934027771
 20
13.264565022786456
 30
0.0
 10
57.291937934027771
 20
13.264565022786456
 30
0.0
  0
SPLINE
  5
12E
100
AcDbEntity
  8
LIVELLO_1
 62
     7
100
AcDbSpline
210
0.0
220
0.0
230
1.0
 70
     8
 71
     3
 72
    20
 73
    16
 74
     0
 42
0.00000001
 43
0.00000001
 40
0.0
 40
0.0
 40
0.0
 40
0.0
 40
1.0
 40
1.0
 40
1.0
 40
2.0
 40
2.0
 40
2.0
 40
3.0
 40
3.0
 40
3.0
 40
4.0
 40
4.0
 40
4.0
 40
5.0
 40
5.0
 40
5.0
 40
5.0
 10
68.058550347222223
 20
13.264565022786456
 30
0.0
 10
68.058550347222223
 20
13.264565022786456
 30
0.0
 10
68.567390950520831
 20
13.264565022786456
 30
0.0
 10
68.567390950520831
 20
13.264565022786456
 30
0.0
 10
68.567390950520831
 20
13.264565022786456
 30
0.0
 10
68.567390950520831
 20
-7.5662048339843739
 30
0.0
 10
68.567390950520831
 20
-7.5662048339843739
 30
0.0
 10
68.567390950520831
 20
-7.7033196343315966
 30
0.0
 10
68.45611436631944
 20
-7.8111511230468746
 30
0.0
 10
68.304530164930554
 20
-7.8111511230468746
 30
0.0
 10
68.168793402777766
 20
-7.8111511230468746
 30
0.0
 10
68.058550347222223
 20
-7.7033196343315966
 30
0.0
 10
68.058550347222223
 20
-7.5662048339843739
 30
0.0
 10
68.058550347222223
 20
-7.5662048339843739
 30
0.0
 10
68.058550347222223
 20
13.264565022786456
 30
0.0
 10
68.058550347222223
 20
13.264565022786456
 30
0.0
  0
POLYLINE
  5
128
100
AcDbEntity
  8
LIVELLO_1
 62
     7
100
AcDb2dPolyline
 66
     1
 10
0.0
 20
0.0
 30
0.0
 70
     1
  0
VERTEX
  5
129
100
AcDbEntity
  8
LIVELLO_1
 62
     7
100
AcDbVertex
100
AcDb2dVertex
 10
58.451557
 20
-5.902568
 30
0.0
  0
VERTEX
  5
12A
100
AcDbEntity
  8
LIVELLO_1
 62
     7
100
AcDbVertex
100
AcDb2dVertex
 10
54.615443
 20
-5.902568
 30
0.0
  0
VERTEX
  5
12B
100
AcDbEntity
  8
LIVELLO_1
 62
     7
100
AcDbVertex
100
AcDb2dVertex
 10
54.615443
 20
-6.769354
 30
0.0
  0
VERTEX
  5
12C
100
AcDbEntity
  8
LIVELLO_1
 62
     7
100
AcDbVertex
100
AcDb2dVertex
 10
58.451557
 20
-6.769354
 30
0.0
  0
SEQEND
  5
12D
100
AcDbEntity
  8
LIVELLO_1
 62
     7
  0
POLYLINE
  5
122
100
AcDbEntity
  8
LIVELLO_1
 62
     7
100
AcDb2dPolyline
 66
     1
 10
0.0
 20
0.0
 30
0.0
 70
     1
  0
VERTEX
  5
123
100
AcDbEntity
  8
LIVELLO_1
 62
     7
100
AcDbVertex
100
AcDb2dVertex
 10
58.451557
 20
-8.25798
 30
0.0
  0
VERTEX
  5
124
100
AcDbEntity
  8
LIVELLO_1
 62
     7
100
AcDbVertex
100
AcDb2dVertex
 10
54.615443
 20
-8.25798
 30
0.0
  0
VERTEX
  5
125
100
AcDbEntity
  8
LIVELLO_1
 62
     7
100
AcDbVertex
100
AcDb2dVertex
 10
54.615443
 20
-8.740638
 30
0.0
  0
VERTEX
  5
126
100
AcDbEntity
  8
LIVELLO_1
 62
     7
100
AcDbVertex
100
AcDb2dVertex
 10
58.451557
 20
-8.740638
 30
0.0
  0
SEQEND
  5
127
100
AcDbEntity
  8
LIVELLO_1
 62
     7
  0
SPLINE
  5
121
100
AcDbEntity
  8
LIVELLO_1
 62
     7
100
AcDbSpline
210
0.0
220
0.0
230
1.0
 70
     8
 71
     3
 72
    29
 73
    25
 74
     0
 42
0.00000001
 43
0.00000001
 40
0.0
 40
0.0
 40
0.0
 40
0.0
 40
1.0
 40
1.0
 40
1.0
 40
2.0
 40
2.0
 40
2.0
 40
3.0
 40
3.0
 40
3.0
 40
4.0
 40
4.0
 40
4.0
 40
5.0
 40
5.0
 40
5.0
 40
6.0
 40
6.0
 40
6.0
 40
7.0
 40
7.0
 40
7.0
 40
8.0
 40
8.0
 40
8.0
 40
8.0
 10
54.707771809895831
 20
-6.7693542480468745
 30
0.0
 10
54.707771809895831
 20
-6.7693542480468745
 30
0.0
 10
54.860389539930551
 20
-6.7693542480468745
 30
0.0
 10
54.860389539930551
 20
-6.7693542480468745
 30
0.0
 10
55.16114637586805
 20
-6.7693542480468745
 30
0.0
 10
55.407126193576381
 20
-7.0163675944010411
 30
0.0
 10
55.407126193576381
 20
-7.3171244303385414
 30
0.0
 10
55.407126193576381
 20
-7.3171244303385414
 30
0.0
 10
55.407126193576381
 20
-7.7102098253038189
 30
0.0
 10
55.407126193576381
 20
-7.7102098253038189
 30
0.0
 10
55.407126193576381
 20
-8.0130337185329861
 30
0.0
 10
55.16114637586805
 20
-8.257980007595485
 30
0.0
 10
54.860389539930551
 20
-8.257980007595485
 30
0.0
 10
54.860389539930551
 20
-8.257980007595485
 30
0.0
 10
54.707771809895831
 20
-8.257980007595485
 30
0.0
 10
54.707771809895831
 20
-8.257980007595485
 30
0.0
 10
54.404603407118053
 20
-8.257980007595485
 30
0.0
 10
54.161035156249994
 20
-8.0130337185329861
 30
0.0
 10
54.161035156249994
 20
-7.7102098253038189
 30
0.0
 10
54.161035156249994
 20
-7.7102098253038189
 30
0.0
 10
54.161035156249994
 20
-7.3171244303385414
 30
0.0
 10
54.161035156249994
 20
-7.3171244303385414
 30
0.0
 10
54.161035156249994
 20
-7.0163675944010411
 30
0.0
 10
54.404603407118053
 20
-6.7693542480468745
 30
0.0
 10
54.707771809895831
 20
-6.7693542480468745
 30
0.0
  0
SPLINE
  5
120
100
AcDbEntity
  8
LIVELLO_1
 62
     7
100
AcDbSpline
210
0.0
220
0.0
230
1.0
 70
     8
 71
     3
 72
    29
 73
    25
 74
     0
 42
0.00000001
 43
0.00000001
 40
0.0
 40
0.0
 40
0.0
 40
0.0
 40
1.0
 40
1.0
 40
1.0
 40
2.0
 40
2.0
 40
2.0
 40
3.0
 40
3.0
 40
3.0
 40
4.0
 40
4.0
 40
4.0
 40
5.0
 40
5.0
 40
5.0
 40
6.0
 40
6.0
 40
6.0
 40
7.0
 40
7.0
 40
7.0
 40
8.0
 40
8.0
 40
8.0
 40
8.0
 10
55.953862847222219
 20
-6.7693542480468745
 30
0.0
 10
55.953862847222219
 20
-6.7693542480468745
 30
0.0
 10
57.113481987847216
 20
-6.7693542480468745
 30
0.0
 10
57.113481987847216
 20
-6.7693542480468745
 30
0.0
 10
57.414238823784714
 20
-6.7693542480468745
 30
0.0
 10
57.660218641493053
 20
-7.0163675944010411
 30
0.0
 10
57.660218641493053
 20
-7.3171244303385414
 30
0.0
 10
57.660218641493053
 20
-7.3171244303385414
 30
0.0
 10
57.660218641493053
 20
-7.7102098253038189
 30
0.0
 10
57.660218641493053
 20
-7.7102098253038189
 30
0.0
 10
57.660218641493053
 20
-8.0130337185329861
 30
0.0
 10
57.414238823784714
 20
-8.257980007595485
 30
0.0
 10
57.113481987847216
 20
-8.257980007595485
 30
0.0
 10
57.113481987847216
 20
-8.257980007595485
 30
0.0
 10
55.953862847222219
 20
-8.257980007595485
 30
0.0
 10
55.953862847222219
 20
-8.257980007595485
 30
0.0
 10
55.652761501736109
 20
-8.257980007595485
 30
0.0
 10
55.407126193576381
 20
-8.0130337185329861
 30
0.0
 10
55.407126193576381
 20
-7.7102098253038189
 30
0.0
 10
55.407126193576381
 20
-7.7102098253038189
 30
0.0
 10
55.407126193576381
 20
-7.3171244303385414
 30
0.0
 10
55.407126193576381
 20
-7.3171244303385414
 30
0.0
 10
55.407126193576381
 20
-7.0163675944010411
 30
0.0
 10
55.652761501736109
 20
-6.7693542480468745
 30
0.0
 10
55.953862847222219
 20
-6.7693542480468745
 30
0.0
  0
POLYLINE
  5
11A
100
AcDbEntity
  8
LIVELLO_1
 62
     7
100
AcDb2dPolyline
 66
     1
 10
0.0
 20
0.0
 30
0.0
 70
     1
  0
VERTEX
  5
11B
100
AcDbEntity
  8
LIVELLO_1
 62
     7
100
AcDbVertex
100
AcDb2dVertex
 10
54.161035
 20
-6.769354
 30
0.0
  0
VERTEX
  5
11C
100
AcDbEntity
  8
LIVELLO_1
 62
     7
100
AcDbVertex
100
AcDb2dVertex
 10
58.90631
 20
-6.769354
 30
0.0
  0
VERTEX
  5
11D
100
AcDbEntity
  8
LIVELLO_1
 62
     7
100
AcDbVertex
100
AcDb2dVertex
 10
58.90631
 20
-8.25798
 30
0.0
  0
VERTEX
  5
11E
100
AcDbEntity
  8
LIVELLO_1
 62
     7
100
AcDbVertex
100
AcDb2dVertex
 10
54.161035
 20
-8.25798
 30
0.0
  0
SEQEND
  5
11F
100
AcDbEntity
  8
LIVELLO_1
 62
     7
  0
SPLINE
  5
119
100
AcDbEntity
  8
LIVELLO_1
 62
     7
100
AcDbSpline
210
0.0
220
0.0
230
1.0
 70
     8
 71
     3
 72
    29
 73
    25
 74
     0
 42
0.00000001
 43
0.00000001
 40
0.0
 40
0.0
 40
0.0
 40
0.0
 40
1.0
 40
1.0
 40
1.0
 40
2.0
 40
2.0
 40
2.0
 40
3.0
 40
3.0
 40
3.0
 40
4.0
 40
4.0
 40
4.0
 40
5.0
 40
5.0
 40
5.0
 40
6.0
 40
6.0
 40
6.0
 40
7.0
 40
7.0
 40
7.0
 40
8.0
 40
8.0
 40
8.0
 40
8.0
 10
58.206955295138883
 20
-6.7693542480468745
 30
0.0
 10
58.206955295138883
 20
-6.7693542480468745
 30
0.0
 10
58.359573025173603
 20
-6.7693542480468745
 30
0.0
 10
58.359573025173603
 20
-6.7693542480468745
 30
0.0
 10
58.66239691840277
 20
-6.7693542480468745
 30
0.0
 10
58.90630967881944
 20
-7.0163675944010411
 30
0.0
 10
58.90630967881944
 20
-7.3171244303385414
 30
0.0
 10
58.90630967881944
 20
-7.3171244303385414
 30
0.0
 10
58.90630967881944
 20
-7.7102098253038189
 30
0.0
 10
58.90630967881944
 20
-7.7102098253038189
 30
0.0
 10
58.90630967881944
 20
-8.0130337185329861
 30
0.0
 10
58.66239691840277
 20
-8.257980007595485
 30
0.0
 10
58.359573025173603
 20
-8.257980007595485
 30
0.0
 10
58.359573025173603
 20
-8.257980007595485
 30
0.0
 10
58.206955295138883
 20
-8.257980007595485
 30
0.0
 10
58.206955295138883
 20
-8.257980007595485
 30
0.0
 10
57.903786892361104
 20
-8.257980007595485
 30
0.0
 10
57.660218641493053
 20
-8.0130337185329861
 30
0.0
 10
57.660218641493053
 20
-7.7102098253038189
 30
0.0
 10
57.660218641493053
 20
-7.7102098253038189
 30
0.0
 10
57.660218641493053
 20
-7.3171244303385414
 30
0.0
 10
57.660218641493053
 20
-7.3171244303385414
 30
0.0
 10
57.660218641493053
 20
-7.0163675944010411
 30
0.0
 10
57.903786892361104
 20
-6.7693542480468745
 30
0.0
 10
58.206955295138883
 20
-6.7693542480468745
 30
0.0
  0
SPLINE
  5
118
100
AcDbEntity
  8
LIVELLO_1
 62
     7
100
AcDbSpline
210
0.0
220
0.0
230
1.0
 70
     8
 71
     3
 72
    20
 73
    16
 74
     0
 42
0.00000001
 43
0.00000001
 40
0.0
 40
0.0
 40
0.0
 40
0.0
 40
1.0
 40
1.0
 40
1.0
 40
2.0
 40
2.0
 40
2.0
 40
3.0
 40
3.0
 40
3.0
 40
4.0
 40
4.0
 40
4.0
 40
5.0
 40
5.0
 40
5.0
 40
5.0
 10
52.700314670138887
 20
13.264565022786456
 30
0.0
 10
52.700314670138887
 20
13.264565022786456
 30
0.0
 10
53.429985894097214
 20
-7.5662048339843739
 30
0.0
 10
53.429985894097214
 20
-7.5662048339843739
 30
0.0
 10
53.434464518229163
 20
-7.7033196343315966
 30
0.0
 10
53.329044596354159
 20
-7.8111511230468746
 30
0.0
 10
53.193307834201384
 20
-7.8111511230468746
 30
0.0
 10
53.041723632812499
 20
-7.8111511230468746
 30
0.0
 10
52.925968424479159
 20
-7.7033196343315966
 30
0.0
 10
52.921489800347217
 20
-7.5662048339843739
 30
0.0
 10
52.921489800347217
 20
-7.5662048339843739
 30
0.0
 10
52.192852105034717
 20
13.264565022786456
 30
0.0
 10
52.192852105034717
 20
13.264565022786456
 30
0.0
 10
52.192852105034717
 20
13.264565022786456
 30
0.0
 10
52.700314670138887
 20
13.264565022786456
 30
0.0
 10
52.700314670138887
 20
13.264565022786456
 30
0.0
  0
SPLINE
  5
117
100
AcDbEntity
  8
LIVELLO_1
 62
     7
100
AcDbSpline
210
0.0
220
0.0
230
1.0
 70
     8
 71
     3
 72
    20
 73
    16
 74
     0
 42
0.00000001
 43
0.00000001
 40
0.0
 40
0.0
 40
0.0
 40
0.0
 40
1.0
 40
1.0
 40
1.0
 40
2.0
 40
2.0
 40
2.0
 40
3.0
 40
3.0
 40
3.0
 40
4.0
 40
4.0
 40
4.0
 40
5.0
 40
5.0
 40
5.0
 40
5.0
 10
73.158669704861111
 20
13.264565022786456
 30
0.0
 10
73.158669704861111
 20
13.264565022786456
 30
0.0
 10
72.426586914062497
 20
-7.5662048339843739
 30
0.0
 10
72.426586914062497
 20
-7.5662048339843739
 30
0.0
 10
72.422108289930549
 20
-7.7033196343315966
 30
0.0
 10
72.527872721354157
 20
-7.8111511230468746
 30
0.0
 10
72.666021050347211
 20
-7.8111511230468746
 30
0.0
 10
72.8172607421875
 20
-7.8111511230468746
 30
0.0
 10
72.930948893229157
 20
-7.7033196343315966
 30
0.0
 10
72.935427517361106
 20
-7.5662048339843739
 30
0.0
 10
72.935427517361106
 20
-7.5662048339843739
 30
0.0
 10
73.663720703124994
 20
13.264565022786456
 30
0.0
 10
73.663720703124994
 20
13.264565022786456
 30
0.0
 10
73.663720703124994
 20
13.264565022786456
 30
0.0
 10
73.158669704861111
 20
13.264565022786456
 30
0.0
 10
73.158669704861111
 20
13.264565022786456
 30
0.0
  0
SPLINE
  5
116
100
AcDbEntity
  8
LIVELLO_1
 62
     7
100
AcDbSpline
210
0.0
220
0.0
230
1.0
 70
     8
 71
     3
 72
    23
 73
    19
 74
     0
 42
0.00000001
 43
0.00000001
 40
0.0
 40
0.0
 40
0.0
 40
0.0
 40
1.0
 40
1.0
 40
1.0
 40
2.0
 40
2.0
 40
2.0
 40
3.0
 40
3.0
 40
3.0
 40
4.0
 40
4.0
 40
4.0
 40
5.0
 40
5.0
 40
5.0
 40
6.0
 40
6.0
 40
6.0
 40
6.0
 10
59.099235026041661
 20
-5.9025682237413193
 30
0.0
 10
59.099235026041661
 20
-5.9025682237413193
 30
0.0
 10
53.399669053819437
 20
-5.9025682237413193
 30
0.0
 10
53.399669053819437
 20
-5.9025682237413193
 30
0.0
 10
53.399669053819437
 20
-5.9025682237413193
 30
0.0
 10
53.489586046006941
 20
-8.3475524902343743
 30
0.0
 10
53.489586046006941
 20
-8.3475524902343743
 30
0.0
 10
53.489586046006941
 20
-8.5497795952690971
 30
0.0
 10
53.652539062499997
 20
-8.7137661404079854
 30
0.0
 10
53.855455186631943
 20
-8.7137661404079854
 30
0.0
 10
53.855455186631943
 20
-8.7137661404079854
 30
0.0
 10
59.75242513020833
 20
-8.7137661404079854
 30
0.0
 10
59.75242513020833
 20
-8.7137661404079854
 30
0.0
 10
59.75242513020833
 20
-8.7137661404079854
 30
0.0
 10
59.465104166666663
 20
-6.2687818739149304
 30
0.0
 10
59.465104166666663
 20
-6.2687818739149304
 30
0.0
 10
59.465104166666663
 20
-6.0689663357204857
 30
0.0
 10
59.301462131076384
 20
-5.9025682237413193
 30
0.0
 10
59.099235026041661
 20
-5.9025682237413193
 30
0.0
  0
POLYLINE
  5
110
100
AcDbEntity
  8
LIVELLO_1
 62
     7
100
AcDb2dPolyline
 66
     1
 10
0.0
 20
0.0
 30
0.0
 70
     1
  0
VERTEX
  5
111
100
AcDbEntity
  8
LIVELLO_1
 62
     7
100
AcDbVertex
100
AcDb2dVertex
 10
50.068951
 20
13.264565
 30
0.0
  0
VERTEX
  5
112
100
AcDbEntity
  8
LIVELLO_1
 62
     7
100
AcDbVertex
100
AcDb2dVertex
 10
51.326411
 20
13.264565
 30
0.0
  0
VERTEX
  5
113
100
AcDbEntity
  8
LIVELLO_1
 62
     7
100
AcDbVertex
100
AcDb2dVertex
 10
51.326411
 20
12.444977
 30
0.0
  0
VERTEX
  5
114
100
AcDbEntity
  8
LIVELLO_1
 62
     7
100
AcDbVertex
100
AcDb2dVertex
 10
50.068951
 20
12.444977
 30
0.0
  0
SEQEND
  5
115
100
AcDbEntity
  8
LIVELLO_1
 62
     7
  0
POLYLINE
  5
10A
100
AcDbEntity
  8
LIVELLO_1
 62
     7
100
AcDb2dPolyline
 66
     1
 10
0.0
 20
0.0
 30
0.0
 70
     1
  0
VERTEX
  5
10B
100
AcDbEntity
  8
LIVELLO_1
 62
     7
100
AcDbVertex
100
AcDb2dVertex
 10
74.532574
 20
13.264565
 30
0.0
  0
VERTEX
  5
10C
100
AcDbEntity
  8
LIVELLO_1
 62
     7
100
AcDbVertex
100
AcDb2dVertex
 10
75.791067
 20
13.264565
 30
0.0
  0
VERTEX
  5
10D
100
AcDbEntity
  8
LIVELLO_1
 62
     7
100
AcDbVertex
100
AcDb2dVertex
 10
75.791067
 20
12.444977
 30
0.0
  0
VERTEX
  5
10E
100
AcDbEntity
  8
LIVELLO_1
 62
     7
100
AcDbVertex
100
AcDb2dVertex
 10
74.532574
 20
12.444977
 30
0.0
  0
SEQEND
  5
10F
100
AcDbEntity
  8
LIVELLO_1
 62
     7
  0
SPLINE
  5
109
100
AcDbEntity
  8
LIVELLO_1
 62
     7
100
AcDbSpline
210
0.0
220
0.0
230
1.0
 70
     8
 71
     3
 72
    23
 73
    19
 74
     0
 42
0.00000001
 43
0.00000001
 40
0.0
 40
0.0
 40
0.0
 40
0.0
 40
1.0
 40
1.0
 40
1.0
 40
2.0
 40
2.0
 40
2.0
 40
3.0
 40
3.0
 40
3.0
 40
4.0
 40
4.0
 40
4.0
 40
5.0
 40
5.0
 40
5.0
 40
6.0
 40
6.0
 40
6.0
 40
6.0
 10
72.367331271701389
 20
-8.3475524902343743
 30
0.0
 10
72.367331271701389
 20
-8.3475524902343743
 30
0.0
 10
73.158669704861111
 20
13.24665052625868
 30
0.0
 10
73.158669704861111
 20
13.24665052625868
 30
0.0
 10
72.965744357638883
 20
13.192907036675345
 30
0.0
 10
52.894618055555554
 20
13.192907036675345
 30
0.0
 10
52.700314670138887
 20
13.24665052625868
 30
0.0
 10
52.700314670138887
 20
13.24665052625868
 30
0.0
 10
53.489586046006941
 20
-8.3475524902343743
 30
0.0
 10
53.489586046006941
 20
-8.3475524902343743
 30
0.0
 10
53.489586046006941
 20
-8.5497795952690971
 30
0.0
 10
53.652539062499997
 20
-8.7137661404079854
 30
0.0
 10
53.855455186631943
 20
-8.7137661404079854
 30
0.0
 10
53.855455186631943
 20
-8.7137661404079854
 30
0.0
 10
72.004562717013883
 20
-8.7137661404079854
 30
0.0
 10
72.004562717013883
 20
-8.7137661404079854
 30
0.0
 10
72.204378255208326
 20
-8.7137661404079854
 30
0.0
 10
72.367331271701389
 20
-8.5497795952690971
 30
0.0
 10
72.367331271701389
 20
-8.3475524902343743
 30
0.0
  0
POLYLINE
  5
101
100
AcDbEntity
  8
LIVELLO_1
 62
     7
100
AcDb2dPolyline
 66
     1
 10
0.0
 20
0.0
 30
0.0
 70
     1
  0
VERTEX
  5
102
100
AcDbEntity
  8
LIVELLO_1
 62
     7
100
AcDbVertex
100
AcDb2dVertex
 10
76.24582
 20
14.492742
 30
0.0
  0
VERTEX
  5
103
100
AcDbEntity
  8
LIVELLO_1
 62
     7
100
AcDbVertex
100
AcDb2dVertex
 10
49.611098
 20
14.492742
 30
0.0
  0
VERTEX
  5
104
100
AcDbEntity
  8
LIVELLO_1
 62
     7
100
AcDbVertex
100
AcDb2dVertex
 10
49.613165
 20
13.264565
 30
0.0
  0
VERTEX
  5
105
100
AcDbEntity
  8
LIVELLO_1
 62
     7
100
AcDbVertex
100
AcDb2dVertex
 10
52.57698
 20
13.264565
 30
0.0
  0
VERTEX
  5
106
100
AcDbEntity
  8
LIVELLO_1
 62
     7
100
AcDbVertex
100
AcDb2dVertex
 10
73.279937
 20
13.264565
 30
0.0
  0
VERTEX
  5
107
100
AcDbEntity
  8
LIVELLO_1
 62
     7
100
AcDbVertex
100
AcDb2dVertex
 10
76.24582
 20
13.264565
 30
0.0
  0
SEQEND
  5
108
100
AcDbEntity
  8
LIVELLO_1
 62
     7
  0
SPLINE
  5
100
100
AcDbEntity
  8
LIVELLO_1
 62
     7
100
AcDbSpline
210
0.0
220
0.0
230
1.0
 70
     8
 71
     3
 72
    29
 73
    25
 74
     0
 42
0.00000001
 43
0.00000001
 40
0.0
 40
0.0
 40
0.0
 40
0.0
 40
1.0
 40
1.0
 40
1.0
 40
2.0
 40
2.0
 40
2.0
 40
3.0
 40
3.0
 40
3.0
 40
4.0
 40
4.0
 40
4.0
 40
5.0
 40
5.0
 40
5.0
 40
6.0
 40
6.0
 40
6.0
 40
7.0
 40
7.0
 40
7.0
 40
8.0
 40
8.0
 40
8.0
 40
8.0
 10
48.705037434895829
 20
17.362161593967013
 30
0.0
 10
48.705037434895829
 20
17.362161593967013
 30
0.0
 10
77.153946940104163
 20
17.362161593967013
 30
0.0
 10
77.153946940104163
 20
17.362161593967013
 30
0.0
 10
77.353762478298606
 20
17.362161593967013
 30
0.0
 10
77.517749023437489
 20
17.198175048828123
 30
0.0
 10
77.517749023437489
 20
16.9959479437934
 30
0.0
 10
77.517749023437489
 20
16.9959479437934
 30
0.0
 10
77.517749023437489
 20
14.854132080078124
 30
0.0
 10
77.517749023437489
 20
14.854132080078124
 30
0.0
 10
77.517749023437489
 20
14.652249484592012
 30
0.0
 10
77.353762478298606
 20
14.490329996744791
 30
0.0
 10
77.153946940104163
 20
14.490329996744791
 30
0.0
 10
77.153946940104163
 20
14.490329996744791
 30
0.0
 10
48.705037434895829
 20
14.490329996744791
 30
0.0
 10
48.705037434895829
 20
14.490329996744791
 30
0.0
 10
48.505221896701386
 20
14.490329996744791
 30
0.0
 10
48.339168294270827
 20
14.652249484592012
 30
0.0
 10
48.339168294270827
 20
14.854132080078124
 30
0.0
 10
48.339168294270827
 20
14.854132080078124
 30
0.0
 10
48.339168294270827
 20
16.9959479437934
 30
0.0
 10
48.339168294270827
 20
16.9959479437934
 30
0.0
 10
48.339168294270827
 20
17.198175048828123
 30
0.0
 10
48.505221896701386
 20
17.362161593967013
 30
0.0
 10
48.705037434895829
 20
17.362161593967013
 30
0.0
  0
CIRCLE
  5
FF
100
AcDbEntity
  8
LIVELLO_1
 62
     7
100
AcDbCircle
 10
62.929492
 20
12.121827
 30
0.0
 40
0.512975
  0
SPLINE
  5
FE
100
AcDbEntity
  8
LIVELLO_1
 62
     7
100
AcDbSpline
210
0.0
220
0.0
230
1.0
 70
     8
 71
     3
 72
    20
 73
    16
 74
     0
 42
0.00000001
 43
0.00000001
 40
0.0
 40
0.0
 40
0.0
 40
0.0
 40
1.0
 40
1.0
 40
1.0
 40
2.0
 40
2.0
 40
2.0
 40
3.0
 40
3.0
 40
3.0
 40
4.0
 40
4.0
 40
4.0
 40
5.0
 40
5.0
 40
5.0
 40
5.0
 10
61.525271267361106
 20
11.901685248480902
 30
0.0
 10
61.525271267361106
 20
11.901685248480902
 30
0.0
 10
61.525271267361106
 20
13.264565022786456
 30
0.0
 10
61.525271267361106
 20
13.264565022786456
 30
0.0
 10
61.525271267361106
 20
13.264565022786456
 30
0.0
 10
64.334057617187497
 20
13.264565022786456
 30
0.0
 10
64.334057617187497
 20
13.264565022786456
 30
0.0
 10
64.334057617187497
 20
13.264565022786456
 30
0.0
 10
64.334057617187497
 20
11.901685248480902
 30
0.0
 10
64.334057617187497
 20
11.901685248480902
 30
0.0
 10
64.334057617187497
 20
11.12274915907118
 30
0.0
 10
63.704294162326384
 20
10.49643079969618
 30
0.0
 10
62.929492187499996
 20
10.49643079969618
 30
0.0
 10
62.152623155381939
 20
10.49643079969618
 30
0.0
 10
61.525271267361106
 20
11.12274915907118
 30
0.0
 10
61.525271267361106
 20
11.901685248480902
 30
0.0
  0
POLYLINE
  5
F8
100
AcDbEntity
  8
LIVELLO_1
 62
     7
100
AcDb2dPolyline
 66
     1
 10
0.0
 20
0.0
 30
0.0
 70
     1
  0
VERTEX
  5
F9
100
AcDbEntity
  8
LIVELLO_1
 62
     7
100
AcDbVertex
100
AcDb2dVertex
 10
67.541097
 20
-8.740638
 30
0.0
  0
VERTEX
  5
FA
100
AcDbEntity
  8
LIVELLO_1
 62
     7
100
AcDbVertex
100
AcDb2dVertex
 10
69.286727
 20
-8.740638
 30
0.0
  0
VERTEX
  5
FB
100
AcDbEntity
  8
LIVELLO_1
 62
     7
100
AcDbVertex
100
AcDb2dVertex
 10
69.286727
 20
-9.979839
 30
0.0
  0
VERTEX
  5
FC
100
AcDbEntity
  8
LIVELLO_1
 62
     7
100
AcDbVertex
100
AcDb2dVertex
 10
67.541097
 20
-9.979839
 30
0.0
  0
SEQEND
  5
FD
100
AcDbEntity
  8
LIVELLO_1
 62
     7
  0
POLYLINE
  5
F2
100
AcDbEntity
  8
LIVELLO_1
 62
     7
100
AcDb2dPolyline
 66
     1
 10
0.0
 20
0.0
 30
0.0
 70
     1
  0
VERTEX
  5
F3
100
AcDbEntity
  8
LIVELLO_1
 62
     7
100
AcDbVertex
100
AcDb2dVertex
 10
56.57019
 20
-8.740638
 30
0.0
  0
VERTEX
  5
F4
100
AcDbEntity
  8
LIVELLO_1
 62
     7
100
AcDbVertex
100
AcDb2dVertex
 10
58.31582
 20
-8.740638
 30
0.0
  0
VERTEX
  5
F5
100
AcDbEntity
  8
LIVELLO_1
 62
     7
100
AcDbVertex
100
AcDb2dVertex
 10
58.31582
 20
-9.979839
 30
0.0
  0
VERTEX
  5
F6
100
AcDbEntity
  8
LIVELLO_1
 62
     7
100
AcDbVertex
100
AcDb2dVertex
 10
56.57019
 20
-9.979839
 30
0.0
  0
SEQEND
  5
F7
100
AcDbEntity
  8
LIVELLO_1
 62
     7
  0
POLYLINE
  5
EC
100
AcDbEntity
  8
LIVELLO_1
 62
     7
100
AcDb2dPolyline
 66
     1
 10
0.0
 20
0.0
 30
0.0
 70
     1
  0
VERTEX
  5
ED
100
AcDbEntity
  8
LIVELLO_1
 62
     7
100
AcDbVertex
100
AcDb2dVertex
 10
60.595785
 20
-8.740638
 30
0.0
  0
VERTEX
  5
EE
100
AcDbEntity
  8
LIVELLO_1
 62
     7
100
AcDbVertex
100
AcDb2dVertex
 10
65.263544
 20
-8.740638
 30
0.0
  0
VERTEX
  5
EF
100
AcDbEntity
  8
LIVELLO_1
 62
     7
100
AcDbVertex
100
AcDb2dVertex
 10
65.263544
 20
-9.979839
 30
0.0
  0
VERTEX
  5
F0
100
AcDbEntity
  8
LIVELLO_1
 62
     7
100
AcDbVertex
100
AcDb2dVertex
 10
60.595785
 20
-9.979839
 30
0.0
  0
SEQEND
  5
F1
100
AcDbEntity
  8
LIVELLO_1
 62
     7
  0
LINE
  5
EB
100
AcDbEntity
  8
LIVELLO_1
 62
     7
100
AcDbLine
 10
67.104603
 20
-12.640486
 30
0.0
 11
67.104603
 21
-11.508772
 31
0.0
  0
LINE
  5
EA
100
AcDbEntity
  8
LIVELLO_1
 62
     7
100
AcDbLine
 10
58.752314
 20
-12.640486
 30
0.0
 11
58.752314
 21
-11.508772
 31
0.0
  0
LINE
  5
E9
100
AcDbEntity
  8
LIVELLO_1
 62
     7
100
AcDbLine
 10
57.3288
 20
-11.508772
 30
0.0
 11
68.528117
 21
-11.508772
 31
0.0
  0
POLYLINE
  5
E3
100
AcDbEntity
  8
LIVELLO_1
 62
     7
100
AcDb2dPolyline
 66
     1
 10
0.0
 20
0.0
 30
0.0
 70
     1
  0
VERTEX
  5
E4
100
AcDbEntity
  8
LIVELLO_1
 62
     7
100
AcDbVertex
100
AcDb2dVertex
 10
55.85051
 20
-9.979839
 30
0.0
  0
VERTEX
  5
E5
100
AcDbEntity
  8
LIVELLO_1
 62
     7
100
AcDbVertex
100
AcDb2dVertex
 10
70.008819
 20
-9.979839
 30
0.0
  0
VERTEX
  5
E6
100
AcDbEntity
  8
LIVELLO_1
 62
     7
100
AcDbVertex
100
AcDb2dVertex
 10
70.008819
 20
-12.640486
 30
0.0
  0
VERTEX
  5
E7
100
AcDbEntity
  8
LIVELLO_1
 62
     7
100
AcDbVertex
100
AcDb2dVertex
 10
55.85051
 20
-12.640486
 30
0.0
  0
SEQEND
  5
E8
100
AcDbEntity
  8
LIVELLO_1
 62
     7
  0
POLYLINE
  5
DD
100
AcDbEntity
  8
LIVELLO_1
 62
     7
100
AcDb2dPolyline
 66
     1
 10
0.0
 20
0.0
 30
0.0
 70
     1
  0
VERTEX
  5
DE
100
AcDbEntity
  8
LIVELLO_1
 62
     7
100
AcDbVertex
100
AcDb2dVertex
 10
56.565712
 20
-12.640486
 30
0.0
  0
VERTEX
  5
DF
100
AcDbEntity
  8
LIVELLO_1
 62
     7
100
AcDbVertex
100
AcDb2dVertex
 10
69.291206
 20
-12.640486
 30
0.0
  0
VERTEX
  5
E0
100
AcDbEntity
  8
LIVELLO_1
 62
     7
100
AcDbVertex
100
AcDb2dVertex
 10
69.050049
 20
-23.287209
 30
0.0
  0
VERTEX
  5
E1
100
AcDbEntity
  8
LIVELLO_1
 62
     7
100
AcDbVertex
100
AcDb2dVertex
 10
56.806868
 20
-23.287209
 30
0.0
  0
SEQEND
  5
E2
100
AcDbEntity
  8
LIVELLO_1
 62
     7
  0
POLYLINE
  5
D4
100
AcDbEntity
  8
LIVELLO_1
 62
     7
100
AcDb2dPolyline
 66
     1
 10
0.0
 20
0.0
 30
0.0
 70
     1
  0
VERTEX
  5
D5
100
AcDbEntity
  8
LIVELLO_1
 62
     7
100
AcDbVertex
100
AcDb2dVertex
 10
57.925146
 20
-23.287209
 30
0.0
  0
VERTEX
  5
D6
100
AcDbEntity
  8
LIVELLO_1
 62
     7
100
AcDbVertex
100
AcDb2dVertex
 10
67.931771
 20
-23.287209
 30
0.0
  0
VERTEX
  5
D7
100
AcDbEntity
  8
LIVELLO_1
 62
     7
100
AcDbVertex
100
AcDb2dVertex
 10
67.931771
 20
-99.273613
 30
0.0
  0
VERTEX
  5
D8
100
AcDbEntity
  8
LIVELLO_1
 62
     7
100
AcDbVertex
100
AcDb2dVertex
 10
65.886418
 20
-97.771552
 30
0.0
  0
VERTEX
  5
D9
100
AcDbEntity
  8
LIVELLO_1
 62
     7
100
AcDbVertex
100
AcDb2dVertex
 10
62.288704
 20
-99.273613
 30
0.0
  0
VERTEX
  5
DA
100
AcDbEntity
  8
LIVELLO_1
 62
     7
100
AcDbVertex
100
AcDb2dVertex
 10
59.359684
 20
-98.400281
 30
0.0
  0
VERTEX
  5
DB
100
AcDbEntity
  8
LIVELLO_1
 62
     7
100
AcDbVertex
100
AcDb2dVertex
 10
57.925146
 20
-99.273613
 30
0.0
  0
SEQEND
  5
DC
100
AcDbEntity
  8
LIVELLO_1
 62
     7
  0
SPLINE
  5
D3
100
AcDbEntity
  8
LIVELLO_1
 62
     7
100
AcDbSpline
210
0.0
220
0.0
230
1.0
 70
     8
 71
     3
 72
    29
 73
    25
 74
     0
 42
0.00000001
 43
0.00000001
 40
0.0
 40
0.0
 40
0.0
 40
0.0
 40
1.0
 40
1.0
 40
1.0
 40
2.0
 40
2.0
 40
2.0
 40
3.0
 40
3.0
 40
3.0
 40
4.0
 40
4.0
 40
4.0
 40
5.0
 40
5.0
 40
5.0
 40
6.0
 40
6.0
 40
6.0
 40
7.0
 40
7.0
 40
7.0
 40
8.0
 40
8.0
 40
8.0
 40
8.0
 10
61.44879014756944
 20
68.855659315321176
 30
0.0
 10
61.44879014756944
 20
68.855659315321176
 30
0.0
 10
64.410194227430551
 20
68.855659315321176
 30
0.0
 10
64.410194227430551
 20
68.855659315321176
 30
0.0
 10
64.7436794704861
 20
68.855659315321176
 30
0.0
 10
65.013085937499994
 20
68.584013536241315
 30
0.0
 10
65.013085937499994
 20
68.251734076605899
 30
0.0
 10
65.013085937499994
 20
68.251734076605899
 30
0.0
 10
65.013085937499994
 20
-9.1089185926649296
 30
0.0
 10
65.013085937499994
 20
-9.1089185926649296
 30
0.0
 10
65.013085937499994
 20
-9.4410257975260414
 30
0.0
 10
64.7436794704861
 20
-9.7128438313802068
 30
0.0
 10
64.410194227430551
 20
-9.7128438313802068
 30
0.0
 10
64.410194227430551
 20
-9.7128438313802068
 30
0.0
 10
61.44879014756944
 20
-9.7128438313802068
 30
0.0
 10
61.44879014756944
 20
-9.7128438313802068
 30
0.0
 10
61.115304904513884
 20
-9.7128438313802068
 30
0.0
 10
60.847276475694436
 20
-9.4410257975260414
 30
0.0
 10
60.847276475694436
 20
-9.1089185926649296
 30
0.0
 10
60.847276475694436
 20
-9.1089185926649296
 30
0.0
 10
60.847276475694436
 20
68.251734076605899
 30
0.0
 10
60.847276475694436
 20
68.251734076605899
 30
0.0
 10
60.847276475694436
 20
68.584013536241315
 30
0.0
 10
61.115304904513884
 20
68.855659315321176
 30
0.0
 10
61.44879014756944
 20
68.855659315321176
 30
0.0
  0
SPLINE
  5
D2
100
AcDbEntity
  8
LIVELLO_1
 62
     7
100
AcDbSpline
210
0.0
220
0.0
230
1.0
 70
     8
 71
     3
 72
    29
 73
    25
 74
     0
 42
0.00000001
 43
0.00000001
 40
0.0
 40
0.0
 40
0.0
 40
0.0
 40
1.0
 40
1.0
 40
1.0
 40
2.0
 40
2.0
 40
2.0
 40
3.0
 40
3.0
 40
3.0
 40
4.0
 40
4.0
 40
4.0
 40
5.0
 40
5.0
 40
5.0
 40
6.0
 40
6.0
 40
6.0
 40
7.0
 40
7.0
 40
7.0
 40
8.0
 40
8.0
 40
8.0
 40
8.0
 10
61.44879014756944
 20
68.855659315321176
 30
0.0
 10
61.44879014756944
 20
68.855659315321176
 30
0.0
 10
64.410194227430551
 20
68.855659315321176
 30
0.0
 10
64.410194227430551
 20
68.855659315321176
 30
0.0
 10
64.7436794704861
 20
68.855659315321176
 30
0.0
 10
65.013085937499994
 20
68.584013536241315
 30
0.0
 10
65.013085937499994
 20
68.251734076605899
 30
0.0
 10
65.013085937499994
 20
68.251734076605899
 30
0.0
 10
65.013085937499994
 20
-9.1089185926649296
 30
0.0
 10
65.013085937499994
 20
-9.1089185926649296
 30
0.0
 10
65.013085937499994
 20
-9.4410257975260414
 30
0.0
 10
64.7436794704861
 20
-9.7128438313802068
 30
0.0
 10
64.410194227430551
 20
-9.7128438313802068
 30
0.0
 10
64.410194227430551
 20
-9.7128438313802068
 30
0.0
 10
61.44879014756944
 20
-9.7128438313802068
 30
0.0
 10
61.44879014756944
 20
-9.7128438313802068
 30
0.0
 10
61.115304904513884
 20
-9.7128438313802068
 30
0.0
 10
60.847276475694436
 20
-9.4410257975260414
 30
0.0
 10
60.847276475694436
 20
-9.1089185926649296
 30
0.0
 10
60.847276475694436
 20
-9.1089185926649296
 30
0.0
 10
60.847276475694436
 20
68.251734076605899
 30
0.0
 10
60.847276475694436
 20
68.251734076605899
 30
0.0
 10
60.847276475694436
 20
68.584013536241315
 30
0.0
 10
61.115304904513884
 20
68.855659315321176
 30
0.0
 10
61.44879014756944
 20
68.855659315321176
 30
0.0
  0
SPLINE
  5
D1
100
AcDbEntity
  8
LIVELLO_1
 62
     7
100
AcDbSpline
210
0.0
220
0.0
230
1.0
 70
     8
 71
     3
 72
    17
 73
    13
 74
     0
 42
0.00000001
 43
0.00000001
 40
0.0
 40
0.0
 40
0.0
 40
0.0
 40
1.0
 40
1.0
 40
1.0
 40
2.0
 40
2.0
 40
2.0
 40
3.0
 40
3.0
 40
3.0
 40
4.0
 40
4.0
 40
4.0
 40
4.0
 10
59.149877929687491
 20
66.769998508029502
 30
0.0
 10
59.149877929687491
 20
68.857898627387144
 30
0.0
 10
60.841419813368049
 20
70.553057861328114
 30
0.0
 10
62.929492187499996
 20
70.553057861328114
 30
0.0
 10
65.017564561631943
 20
70.553057861328114
 30
0.0
 10
66.709450954861111
 20
68.857898627387144
 30
0.0
 10
66.709450954861111
 20
66.769998508029502
 30
0.0
 10
66.709450954861111
 20
64.684165445963529
 30
0.0
 10
65.017564561631943
 20
62.993484836154508
 30
0.0
 10
62.929492187499996
 20
62.993484836154508
 30
0.0
 10
60.841419813368049
 20
62.993484836154508
 30
0.0
 10
59.149877929687491
 20
64.684165445963529
 30
0.0
 10
59.149877929687491
 20
66.769998508029502
 30
0.0
  0
CIRCLE
  5
D0
100
AcDbEntity
  8
LIVELLO_1
 62
     7
100
AcDbCircle
 10
62.929664
 20
66.769999
 30
0.0
 40
3.779787
  0
CIRCLE
  5
CF
100
AcDbEntity
  8
LIVELLO_1
 62
     7
100
AcDbCircle
 10
62.929664
 20
66.769999
 30
0.0
 40
0.657841
  0
CIRCLE
  5
CE
100
AcDbEntity
  8
LIVELLO_1
 62
     7
100
AcDbCircle
 10
62.929492
 20
10.397557
 30
0.0
 40
0.512975
  0
CIRCLE
  5
CD
100
AcDbEntity
  8
LIVELLO_1
 62
     7
100
AcDbCircle
 10
62.929664
 20
66.769999
 30
0.0
 40
1.200099
  0
POLYLINE
  5
C7
100
AcDbEntity
  8
LIVELLO_1
 62
     7
100
AcDb2dPolyline
 66
     1
 10
0.0
 20
0.0
 30
0.0
 70
     1
  0
VERTEX
  5
C8
100
AcDbEntity
  8
LIVELLO_1
 62
     7
100
AcDbVertex
100
AcDb2dVertex
 10
-51.84507
 20
-9.288408
 30
0.0
  0
VERTEX
  5
C9
100
AcDbEntity
  8
LIVELLO_1
 62
     7
100
AcDbVertex
100
AcDb2dVertex
 10
-50.100473
 20
-9.288408
 30
0.0
  0
VERTEX
  5
CA
100
AcDbEntity
  8
LIVELLO_1
 62
     7
100
AcDbVertex
100
AcDb2dVertex
 10
-50.100473
 20
-10.525542
 30
0.0
  0
VERTEX
  5
CB
100
AcDbEntity
  8
LIVELLO_1
 62
     7
100
AcDbVertex
100
AcDb2dVertex
 10
-51.84507
 20
-10.525542
 30
0.0
  0
SEQEND
  5
CC
100
AcDbEntity
  8
LIVELLO_1
 62
     7
  0
POLYLINE
  5
C1
100
AcDbEntity
  8
LIVELLO_1
 62
     7
100
AcDb2dPolyline
 66
     1
 10
0.0
 20
0.0
 30
0.0
 70
     1
  0
VERTEX
  5
C2
100
AcDbEntity
  8
LIVELLO_1
 62
     7
100
AcDbVertex
100
AcDb2dVertex
 10
-62.816149
 20
-9.288408
 30
0.0
  0
VERTEX
  5
C3
100
AcDbEntity
  8
LIVELLO_1
 62
     7
100
AcDbVertex
100
AcDb2dVertex
 10
-61.069485
 20
-9.288408
 30
0.0
  0
VERTEX
  5
C4
100
AcDbEntity
  8
LIVELLO_1
 62
     7
100
AcDbVertex
100
AcDb2dVertex
 10
-61.069485
 20
-10.525542
 30
0.0
  0
VERTEX
  5
C5
100
AcDbEntity
  8
LIVELLO_1
 62
     7
100
AcDbVertex
100
AcDb2dVertex
 10
-62.816149
 20
-10.525542
 30
0.0
  0
SEQEND
  5
C6
100
AcDbEntity
  8
LIVELLO_1
 62
     7
  0
POLYLINE
  5
BB
100
AcDbEntity
  8
LIVELLO_1
 62
     7
100
AcDb2dPolyline
 66
     1
 10
0.0
 20
0.0
 30
0.0
 70
     1
  0
VERTEX
  5
BC
100
AcDbEntity
  8
LIVELLO_1
 62
     7
100
AcDbVertex
100
AcDb2dVertex
 10
-58.790554
 20
-9.288408
 30
0.0
  0
VERTEX
  5
BD
100
AcDbEntity
  8
LIVELLO_1
 62
     7
100
AcDbVertex
100
AcDb2dVertex
 10
-54.123828
 20
-9.288408
 30
0.0
  0
VERTEX
  5
BE
100
AcDbEntity
  8
LIVELLO_1
 62
     7
100
AcDbVertex
100
AcDb2dVertex
 10
-54.123828
 20
-10.525542
 30
0.0
  0
VERTEX
  5
BF
100
AcDbEntity
  8
LIVELLO_1
 62
     7
100
AcDbVertex
100
AcDb2dVertex
 10
-58.790554
 20
-10.525542
 30
0.0
  0
SEQEND
  5
C0
100
AcDbEntity
  8
LIVELLO_1
 62
     7
  0
LINE
  5
BA
100
AcDbEntity
  8
LIVELLO_1
 62
     7
100
AcDbLine
 10
-52.279496
 20
-13.186189
 30
0.0
 11
-52.279496
 21
-12.054475
 31
0.0
  0
LINE
  5
B9
100
AcDbEntity
  8
LIVELLO_1
 62
     7
100
AcDbLine
 10
-60.634886
 20
-13.186189
 30
0.0
 11
-60.634886
 21
-12.054475
 31
0.0
  0
LINE
  5
B8
100
AcDbEntity
  8
LIVELLO_1
 62
     7
100
AcDbLine
 10
-62.055127
 20
-12.054475
 30
0.0
 11
-50.859428
 21
-12.054475
 31
0.0
  0
POLYLINE
  5
B2
100
AcDbEntity
  8
LIVELLO_1
 62
     7
100
AcDb2dPolyline
 66
     1
 10
0.0
 20
0.0
 30
0.0
 70
     1
  0
VERTEX
  5
B3
100
AcDbEntity
  8
LIVELLO_1
 62
     7
100
AcDbVertex
100
AcDb2dVertex
 10
-63.535829
 20
-10.525542
 30
0.0
  0
VERTEX
  5
B4
100
AcDbEntity
  8
LIVELLO_1
 62
     7
100
AcDbVertex
100
AcDb2dVertex
 10
-49.378726
 20
-10.525542
 30
0.0
  0
VERTEX
  5
B5
100
AcDbEntity
  8
LIVELLO_1
 62
     7
100
AcDbVertex
100
AcDb2dVertex
 10
-49.378726
 20
-13.186189
 30
0.0
  0
VERTEX
  5
B6
100
AcDbEntity
  8
LIVELLO_1
 62
     7
100
AcDbVertex
100
AcDb2dVertex
 10
-63.535829
 20
-13.186189
 30
0.0
  0
SEQEND
  5
B7
100
AcDbEntity
  8
LIVELLO_1
 62
     7
  0
POLYLINE
  5
AC
100
AcDbEntity
  8
LIVELLO_1
 62
     7
100
AcDb2dPolyline
 66
     1
 10
0.0
 20
0.0
 30
0.0
 70
     1
  0
VERTEX
  5
AD
100
AcDbEntity
  8
LIVELLO_1
 62
     7
100
AcDbVertex
100
AcDb2dVertex
 10
-62.820627
 20
-13.186189
 30
0.0
  0
VERTEX
  5
AE
100
AcDbEntity
  8
LIVELLO_1
 62
     7
100
AcDbVertex
100
AcDb2dVertex
 10
-50.095995
 20
-13.186189
 30
0.0
  0
VERTEX
  5
AF
100
AcDbEntity
  8
LIVELLO_1
 62
     7
100
AcDbVertex
100
AcDb2dVertex
 10
-50.335084
 20
-23.830501
 30
0.0
  0
VERTEX
  5
B0
100
AcDbEntity
  8
LIVELLO_1
 62
     7
100
AcDbVertex
100
AcDb2dVertex
 10
-62.579298
 20
-23.830501
 30
0.0
  0
SEQEND
  5
B1
100
AcDbEntity
  8
LIVELLO_1
 62
     7
  0
POLYLINE
  5
A3
100
AcDbEntity
  8
LIVELLO_1
 62
     7
100
AcDb2dPolyline
 66
     1
 10
0.0
 20
0.0
 30
0.0
 70
     1
  0
VERTEX
  5
A4
100
AcDbEntity
  8
LIVELLO_1
 62
     7
100
AcDbVertex
100
AcDb2dVertex
 10
-61.462226
 20
-23.830501
 30
0.0
  0
VERTEX
  5
A5
100
AcDbEntity
  8
LIVELLO_1
 62
     7
100
AcDbVertex
100
AcDb2dVertex
 10
-51.454396
 20
-23.830501
 30
0.0
  0
VERTEX
  5
A6
100
AcDbEntity
  8
LIVELLO_1
 62
     7
100
AcDbVertex
100
AcDb2dVertex
 10
-51.454396
 20
-90.474839
 30
0.0
  0
VERTEX
  5
A7
100
AcDbEntity
  8
LIVELLO_1
 62
     7
100
AcDbVertex
100
AcDb2dVertex
 10
-53.498543
 20
-88.970366
 30
0.0
  0
VERTEX
  5
A8
100
AcDbEntity
  8
LIVELLO_1
 62
     7
100
AcDbVertex
100
AcDb2dVertex
 10
-57.09884
 20
-90.474839
 30
0.0
  0
VERTEX
  5
A9
100
AcDbEntity
  8
LIVELLO_1
 62
     7
100
AcDbVertex
100
AcDb2dVertex
 10
-60.025449
 20
-89.601508
 30
0.0
  0
VERTEX
  5
AA
100
AcDbEntity
  8
LIVELLO_1
 62
     7
100
AcDbVertex
100
AcDb2dVertex
 10
-61.462226
 20
-90.474839
 30
0.0
  0
SEQEND
  5
AB
100
AcDbEntity
  8
LIVELLO_1
 62
     7
  0
POLYLINE
  5
9D
100
AcDbEntity
  8
LIVELLO_1
 62
     7
100
AcDb2dPolyline
 66
     1
 10
0.0
 20
0.0
 30
0.0
 70
     1
  0
VERTEX
  5
9E
100
AcDbEntity
  8
LIVELLO_1
 62
     7
100
AcDbVertex
100
AcDb2dVertex
 10
-37.613897
 20
-6.648087
 30
0.0
  0
VERTEX
  5
9F
100
AcDbEntity
  8
LIVELLO_1
 62
     7
100
AcDbVertex
100
AcDb2dVertex
 10
-34.024797
 20
-6.648087
 30
0.0
  0
VERTEX
  5
A0
100
AcDbEntity
  8
LIVELLO_1
 62
     7
100
AcDbVertex
100
AcDb2dVertex
 10
-34.024797
 20
-7.101461
 30
0.0
  0
VERTEX
  5
A1
100
AcDbEntity
  8
LIVELLO_1
 62
     7
100
AcDbVertex
100
AcDb2dVertex
 10
-37.613897
 20
-7.101461
 30
0.0
  0
SEQEND
  5
A2
100
AcDbEntity
  8
LIVELLO_1
 62
     7
  0
SPLINE
  5
9C
100
AcDbEntity
  8
LIVELLO_1
 62
     7
100
AcDbSpline
210
0.0
220
0.0
230
1.0
 70
     8
 71
     3
 72
    29
 73
    25
 74
     0
 42
0.00000001
 43
0.00000001
 40
0.0
 40
0.0
 40
0.0
 40
0.0
 40
1.0
 40
1.0
 40
1.0
 40
2.0
 40
2.0
 40
2.0
 40
3.0
 40
3.0
 40
3.0
 40
4.0
 40
4.0
 40
4.0
 40
5.0
 40
5.0
 40
5.0
 40
6.0
 40
6.0
 40
6.0
 40
7.0
 40
7.0
 40
7.0
 40
8.0
 40
8.0
 40
8.0
 40
8.0
 10
-37.526219346788189
 20
-7.1014614529079854
 30
0.0
 10
-37.526219346788189
 20
-7.1014614529079854
 30
0.0
 10
-37.383764648437499
 20
-7.1014614529079854
 30
0.0
 10
-37.383764648437499
 20
-7.1014614529079854
 30
0.0
 10
-37.100750054253467
 20
-7.1014614529079854
 30
0.0
 10
-36.871823459201387
 20
-7.3305603027343746
 30
0.0
 10
-36.871823459201387
 20
-7.6134026421440968
 30
0.0
 10
-36.871823459201387
 20
-7.6134026421440968
 30
0.0
 10
-36.871823459201387
 20
-7.9816833496093746
 30
0.0
 10
-36.871823459201387
 20
-7.9816833496093746
 30
0.0
 10
-36.871823459201387
 20
-8.2645256890190968
 30
0.0
 10
-37.100750054253467
 20
-8.4912129720052079
 30
0.0
 10
-37.383764648437499
 20
-8.4912129720052079
 30
0.0
 10
-37.383764648437499
 20
-8.4912129720052079
 30
0.0
 10
-37.526219346788189
 20
-8.4912129720052079
 30
0.0
 10
-37.526219346788189
 20
-8.4912129720052079
 30
0.0
 10
-37.809061686197914
 20
-8.4912129720052079
 30
0.0
 10
-38.039194064670134
 20
-8.2645256890190968
 30
0.0
 10
-38.039194064670134
 20
-7.9816833496093746
 30
0.0
 10
-38.039194064670134
 20
-7.9816833496093746
 30
0.0
 10
-38.039194064670134
 20
-7.6134026421440968
 30
0.0
 10
-38.039194064670134
 20
-7.6134026421440968
 30
0.0
 10
-38.039194064670134
 20
-7.3305603027343746
 30
0.0
 10
-37.809061686197914
 20
-7.1014614529079854
 30
0.0
 10
-37.526219346788189
 20
-7.1014614529079854
 30
0.0
  0
SPLINE
  5
9B
100
AcDbEntity
  8
LIVELLO_1
 62
     7
100
AcDbSpline
210
0.0
220
0.0
230
1.0
 70
     8
 71
     3
 72
    29
 73
    25
 74
     0
 42
0.00000001
 43
0.00000001
 40
0.0
 40
0.0
 40
0.0
 40
0.0
 40
1.0
 40
1.0
 40
1.0
 40
2.0
 40
2.0
 40
2.0
 40
3.0
 40
3.0
 40
3.0
 40
4.0
 40
4.0
 40
4.0
 40
5.0
 40
5.0
 40
5.0
 40
6.0
 40
6.0
 40
6.0
 40
7.0
 40
7.0
 40
7.0
 40
8.0
 40
8.0
 40
8.0
 40
8.0
 10
-36.36091579861111
 20
-7.1014614529079854
 30
0.0
 10
-36.36091579861111
 20
-7.1014614529079854
 30
0.0
 10
-35.277605523003466
 20
-7.1014614529079854
 30
0.0
 10
-35.277605523003466
 20
-7.1014614529079854
 30
0.0
 10
-34.994763183593747
 20
-7.1014614529079854
 30
0.0
 10
-34.763597276475693
 20
-7.3305603027343746
 30
0.0
 10
-34.763597276475693
 20
-7.6134026421440968
 30
0.0
 10
-34.763597276475693
 20
-7.6134026421440968
 30
0.0
 10
-34.763597276475693
 20
-7.9816833496093746
 30
0.0
 10
-34.763597276475693
 20
-7.9816833496093746
 30
0.0
 10
-34.763597276475693
 20
-8.2645256890190968
 30
0.0
 10
-34.994763183593747
 20
-8.4912129720052079
 30
0.0
 10
-35.277605523003466
 20
-8.4912129720052079
 30
0.0
 10
-35.277605523003466
 20
-8.4912129720052079
 30
0.0
 10
-36.36091579861111
 20
-8.4912129720052079
 30
0.0
 10
-36.36091579861111
 20
-8.4912129720052079
 30
0.0
 10
-36.643930392795134
 20
-8.4912129720052079
 30
0.0
 10
-36.871823459201387
 20
-8.2645256890190968
 30
0.0
 10
-36.871823459201387
 20
-7.9816833496093746
 30
0.0
 10
-36.871823459201387
 20
-7.9816833496093746
 30
0.0
 10
-36.871823459201387
 20
-7.6134026421440968
 30
0.0
 10
-36.871823459201387
 20
-7.6134026421440968
 30
0.0
 10
-36.871823459201387
 20
-7.3305603027343746
 30
0.0
 10
-36.643930392795134
 20
-7.1014614529079854
 30
0.0
 10
-36.36091579861111
 20
-7.1014614529079854
 30
0.0
  0
POLYLINE
  5
95
100
AcDbEntity
  8
LIVELLO_1
 62
     7
100
AcDb2dPolyline
 66
     1
 10
0.0
 20
0.0
 30
0.0
 70
     1
  0
VERTEX
  5
96
100
AcDbEntity
  8
LIVELLO_1
 62
     7
100
AcDbVertex
100
AcDb2dVertex
 10
-38.039194
 20
-7.101461
 30
0.0
  0
VERTEX
  5
97
100
AcDbEntity
  8
LIVELLO_1
 62
     7
100
AcDbVertex
100
AcDb2dVertex
 10
-33.597088
 20
-7.101461
 30
0.0
  0
VERTEX
  5
98
100
AcDbEntity
  8
LIVELLO_1
 62
     7
100
AcDbVertex
100
AcDb2dVertex
 10
-33.597088
 20
-8.491213
 30
0.0
  0
VERTEX
  5
99
100
AcDbEntity
  8
LIVELLO_1
 62
     7
100
AcDbVertex
100
AcDb2dVertex
 10
-38.039194
 20
-8.491213
 30
0.0
  0
SEQEND
  5
9A
100
AcDbEntity
  8
LIVELLO_1
 62
     7
  0
SPLINE
  5
94
100
AcDbEntity
  8
LIVELLO_1
 62
     7
100
AcDbSpline
210
0.0
220
0.0
230
1.0
 70
     8
 71
     3
 72
    29
 73
    25
 74
     0
 42
0.00000001
 43
0.00000001
 40
0.0
 40
0.0
 40
0.0
 40
0.0
 40
1.0
 40
1.0
 40
1.0
 40
2.0
 40
2.0
 40
2.0
 40
3.0
 40
3.0
 40
3.0
 40
4.0
 40
4.0
 40
4.0
 40
5.0
 40
5.0
 40
5.0
 40
6.0
 40
6.0
 40
6.0
 40
7.0
 40
7.0
 40
7.0
 40
8.0
 40
8.0
 40
8.0
 40
8.0
 10
-34.252689615885416
 20
-7.1014614529079854
 30
0.0
 10
-34.252689615885416
 20
-7.1014614529079854
 30
0.0
 10
-34.110234917534719
 20
-7.1014614529079854
 30
0.0
 10
-34.110234917534719
 20
-7.1014614529079854
 30
0.0
 10
-33.827220323350694
 20
-7.1014614529079854
 30
0.0
 10
-33.597087944878467
 20
-7.3305603027343746
 30
0.0
 10
-33.597087944878467
 20
-7.6134026421440968
 30
0.0
 10
-33.597087944878467
 20
-7.6134026421440968
 30
0.0
 10
-33.597087944878467
 20
-7.9816833496093746
 30
0.0
 10
-33.597087944878467
 20
-7.9816833496093746
 30
0.0
 10
-33.597087944878467
 20
-8.2645256890190968
 30
0.0
 10
-33.827220323350694
 20
-8.4912129720052079
 30
0.0
 10
-34.110234917534719
 20
-8.4912129720052079
 30
0.0
 10
-34.110234917534719
 20
-8.4912129720052079
 30
0.0
 10
-34.252689615885416
 20
-8.4912129720052079
 30
0.0
 10
-34.252689615885416
 20
-8.4912129720052079
 30
0.0
 10
-34.53570421006944
 20
-8.4912129720052079
 30
0.0
 10
-34.763597276475693
 20
-8.2645256890190968
 30
0.0
 10
-34.763597276475693
 20
-7.9816833496093746
 30
0.0
 10
-34.763597276475693
 20
-7.9816833496093746
 30
0.0
 10
-34.763597276475693
 20
-7.6134026421440968
 30
0.0
 10
-34.763597276475693
 20
-7.6134026421440968
 30
0.0
 10
-34.763597276475693
 20
-7.3305603027343746
 30
0.0
 10
-34.53570421006944
 20
-7.1014614529079854
 30
0.0
 10
-34.252689615885416
 20
-7.1014614529079854
 30
0.0
  0
SPLINE
  5
93
100
AcDbEntity
  8
LIVELLO_1
 62
     7
100
AcDbSpline
210
0.0
220
0.0
230
1.0
 70
     8
 71
     3
 72
    23
 73
    19
 74
     0
 42
0.00000001
 43
0.00000001
 40
0.0
 40
0.0
 40
0.0
 40
0.0
 40
1.0
 40
1.0
 40
1.0
 40
2.0
 40
2.0
 40
2.0
 40
3.0
 40
3.0
 40
3.0
 40
4.0
 40
4.0
 40
4.0
 40
5.0
 40
5.0
 40
5.0
 40
6.0
 40
6.0
 40
6.0
 40
6.0
 10
-33.862015787760413
 20
-8.4912129720052079
 30
0.0
 10
-33.862015787760413
 20
-8.4912129720052079
 30
0.0
 10
-33.862015787760413
 20
-8.5339321560329857
 30
0.0
 10
-33.862015787760413
 20
-8.5339321560329857
 30
0.0
 10
-33.862015787760413
 20
-8.8167744954427079
 30
0.0
 10
-34.092148166232633
 20
-9.0458733452690971
 30
0.0
 10
-34.373956976996524
 20
-9.0458733452690971
 30
0.0
 10
-34.373956976996524
 20
-9.0458733452690971
 30
0.0
 10
-37.264736599392357
 20
-9.0458733452690971
 30
0.0
 10
-37.264736599392357
 20
-9.0458733452690971
 30
0.0
 10
-37.547578938802083
 20
-9.0458733452690971
 30
0.0
 10
-37.776505533854163
 20
-8.8167744954427079
 30
0.0
 10
-37.776505533854163
 20
-8.5339321560329857
 30
0.0
 10
-37.776505533854163
 20
-8.5339321560329857
 30
0.0
 10
-37.776505533854163
 20
-8.4912129720052079
 30
0.0
 10
-37.776505533854163
 20
-8.4912129720052079
 30
0.0
 10
-37.776505533854163
 20
-8.4912129720052079
 30
0.0
 10
-33.862015787760413
 20
-8.4912129720052079
 30
0.0
 10
-33.862015787760413
 20
-8.4912129720052079
 30
0.0
  0
SPLINE
  5
92
100
AcDbEntity
  8
LIVELLO_1
 62
     7
100
AcDbSpline
210
0.0
220
0.0
230
1.0
 70
     8
 71
     3
 72
    23
 73
    19
 74
     0
 42
0.00000001
 43
0.00000001
 40
0.0
 40
0.0
 40
0.0
 40
0.0
 40
1.0
 40
1.0
 40
1.0
 40
2.0
 40
2.0
 40
2.0
 40
3.0
 40
3.0
 40
3.0
 40
4.0
 40
4.0
 40
4.0
 40
5.0
 40
5.0
 40
5.0
 40
6.0
 40
6.0
 40
6.0
 40
6.0
 10
-38.221095106336804
 20
-6.6594557020399296
 30
0.0
 10
-38.221095106336804
 20
-6.6594557020399296
 30
0.0
 10
-32.886537000868053
 20
-6.6594557020399296
 30
0.0
 10
-32.886537000868053
 20
-6.6594557020399296
 30
0.0
 10
-32.886537000868053
 20
-6.6594557020399296
 30
0.0
 10
-32.969563802083329
 20
-8.9449320475260414
 30
0.0
 10
-32.969563802083329
 20
-8.9449320475260414
 30
0.0
 10
-32.969563802083329
 20
-9.1357903374565961
 30
0.0
 10
-33.121148003472221
 20
-9.2884080674913179
 30
0.0
 10
-33.312006293402774
 20
-9.2884080674913179
 30
0.0
 10
-33.312006293402774
 20
-9.2884080674913179
 30
0.0
 10
-38.829671223958329
 20
-9.2884080674913179
 30
0.0
 10
-38.829671223958329
 20
-9.2884080674913179
 30
0.0
 10
-38.829671223958329
 20
-9.2884080674913179
 30
0.0
 10
-38.561298285590276
 20
-7.0005201551649296
 30
0.0
 10
-38.561298285590276
 20
-7.0005201551649296
 30
0.0
 10
-38.561298285590276
 20
-6.8120734320746523
 30
0.0
 10
-38.409714084201383
 20
-6.6594557020399296
 30
0.0
 10
-38.221095106336804
 20
-6.6594557020399296
 30
0.0
  0
SPLINE
  5
91
100
AcDbEntity
  8
LIVELLO_1
 62
     7
100
AcDbSpline
210
0.0
220
0.0
230
1.0
 70
     8
 71
     3
 72
    20
 73
    16
 74
     0
 42
0.00000001
 43
0.00000001
 40
0.0
 40
0.0
 40
0.0
 40
0.0
 40
1.0
 40
1.0
 40
1.0
 40
2.0
 40
2.0
 40
2.0
 40
3.0
 40
3.0
 40
3.0
 40
4.0
 40
4.0
 40
4.0
 40
5.0
 40
5.0
 40
5.0
 40
5.0
 10
-32.234380425347219
 20
12.71679484049479
 30
0.0
 10
-32.234380425347219
 20
12.71679484049479
 30
0.0
 10
-32.914614529079856
 20
-8.2107821994357639
 30
0.0
 10
-32.914614529079856
 20
-8.2107821994357639
 30
0.0
 10
-32.919093153211804
 20
-8.3410068088107625
 30
0.0
 10
-32.820391167534716
 20
-8.4464267306857632
 30
0.0
 10
-32.691200086805551
 20
-8.4464267306857632
 30
0.0
 10
-32.550812445746523
 20
-8.4464267306857632
 30
0.0
 10
-32.445392523871526
 20
-8.3410068088107625
 30
0.0
 10
-32.43867458767361
 20
-8.2107821994357639
 30
0.0
 10
-32.43867458767361
 20
-8.2107821994357639
 30
0.0
 10
-31.758268229166664
 20
12.71679484049479
 30
0.0
 10
-31.758268229166664
 20
12.71679484049479
 30
0.0
 10
-31.758268229166664
 20
12.71679484049479
 30
0.0
 10
-32.234380425347219
 20
12.71679484049479
 30
0.0
 10
-32.234380425347219
 20
12.71679484049479
 30
0.0
  0
SPLINE
  5
90
100
AcDbEntity
  8
LIVELLO_1
 62
     7
100
AcDbSpline
210
0.0
220
0.0
230
1.0
 70
     8
 71
     3
 72
    20
 73
    16
 74
     0
 42
0.00000001
 43
0.00000001
 40
0.0
 40
0.0
 40
0.0
 40
0.0
 40
1.0
 40
1.0
 40
1.0
 40
2.0
 40
2.0
 40
2.0
 40
3.0
 40
3.0
 40
3.0
 40
4.0
 40
4.0
 40
4.0
 40
5.0
 40
5.0
 40
5.0
 40
5.0
 10
-80.682413736979157
 20
12.71679484049479
 30
0.0
 10
-80.682413736979157
 20
12.71679484049479
 30
0.0
 10
-80.002007378472214
 20
-8.2107821994357639
 30
0.0
 10
-80.002007378472214
 20
-8.2107821994357639
 30
0.0
 10
-79.997528754340266
 20
-8.3410068088107625
 30
0.0
 10
-80.094163682725693
 20
-8.4464267306857632
 30
0.0
 10
-80.223182508680551
 20
-8.4464267306857632
 30
0.0
 10
-80.365809461805554
 20
-8.4464267306857632
 30
0.0
 10
-80.473468695746519
 20
-8.3410068088107625
 30
0.0
 10
-80.477947319878467
 20
-8.2107821994357639
 30
0.0
 10
-80.477947319878467
 20
-8.2107821994357639
 30
0.0
 10
-81.15835367838541
 20
12.71679484049479
 30
0.0
 10
-81.15835367838541
 20
12.71679484049479
 30
0.0
 10
-81.15835367838541
 20
12.71679484049479
 30
0.0
 10
-80.682413736979157
 20
12.71679484049479
 30
0.0
 10
-80.682413736979157
 20
12.71679484049479
 30
0.0
  0
POLYLINE
  5
8A
100
AcDbEntity
  8
LIVELLO_1
 62
     7
100
AcDb2dPolyline
 66
     1
 10
0.0
 20
0.0
 30
0.0
 70
     1
  0
VERTEX
  5
8B
100
AcDbEntity
  8
LIVELLO_1
 62
     7
100
AcDbVertex
100
AcDb2dVertex
 10
-30.944537
 20
12.716795
 30
0.0
  0
VERTEX
  5
8C
100
AcDbEntity
  8
LIVELLO_1
 62
     7
100
AcDbVertex
100
AcDb2dVertex
 10
-29.76907
 20
12.716795
 30
0.0
  0
VERTEX
  5
8D
100
AcDbEntity
  8
LIVELLO_1
 62
     7
100
AcDbVertex
100
AcDb2dVertex
 10
-29.76907
 20
11.953362
 30
0.0
  0
VERTEX
  5
8E
100
AcDbEntity
  8
LIVELLO_1
 62
     7
100
AcDbVertex
100
AcDb2dVertex
 10
-30.944537
 20
11.953362
 30
0.0
  0
SEQEND
  5
8F
100
AcDbEntity
  8
LIVELLO_1
 62
     7
  0
POLYLINE
  5
84
100
AcDbEntity
  8
LIVELLO_1
 62
     7
100
AcDb2dPolyline
 66
     1
 10
0.0
 20
0.0
 30
0.0
 70
     1
  0
VERTEX
  5
85
100
AcDbEntity
  8
LIVELLO_1
 62
     7
100
AcDbVertex
100
AcDb2dVertex
 10
-83.145312
 20
12.716795
 30
0.0
  0
VERTEX
  5
86
100
AcDbEntity
  8
LIVELLO_1
 62
     7
100
AcDbVertex
100
AcDb2dVertex
 10
-81.970018
 20
12.716795
 30
0.0
  0
VERTEX
  5
87
100
AcDbEntity
  8
LIVELLO_1
 62
     7
100
AcDbVertex
100
AcDb2dVertex
 10
-81.970018
 20
11.953362
 30
0.0
  0
VERTEX
  5
88
100
AcDbEntity
  8
LIVELLO_1
 62
     7
100
AcDbVertex
100
AcDb2dVertex
 10
-83.145312
 20
11.953362
 30
0.0
  0
SEQEND
  5
89
100
AcDbEntity
  8
LIVELLO_1
 62
     7
  0
SPLINE
  5
83
100
AcDbEntity
  8
LIVELLO_1
 62
     7
100
AcDbSpline
210
0.0
220
0.0
230
1.0
 70
     8
 71
     3
 72
    53
 73
    49
 74
     0
 42
0.00000001
 43
0.00000001
 40
0.0
 40
0.0
 40
0.0
 40
0.0
 40
1.0
 40
1.0
 40
1.0
 40
2.0
 40
2.0
 40
2.0
 40
3.0
 40
3.0
 40
3.0
 40
4.0
 40
4.0
 40
4.0
 40
5.0
 40
5.0
 40
5.0
 40
6.0
 40
6.0
 40
6.0
 40
7.0
 40
7.0
 40
7.0
 40
8.0
 40
8.0
 40
8.0
 40
9.0
 40
9.0
 40
9.0
 40
10.0
 40
10.0
 40
10.0
 40
11.0
 40
11.0
 40
11.0
 40
12.0
 40
12.0
 40
12.0
 40
13.0
 40
13.0
 40
13.0
 40
14.0
 40
14.0
 40
14.0
 40
15.0
 40
15.0
 40
15.0
 40
16.0
 40
16.0
 40
16.0
 40
16.0
 10
-79.944818793402774
 20
-8.9449320475260414
 30
0.0
 10
-79.944818793402774
 20
-8.9449320475260414
 30
0.0
 10
-80.682413736979157
 20
12.700947401258679
 30
0.0
 10
-80.682413736979157
 20
12.700947401258679
 30
0.0
 10
-80.503785536024296
 20
12.649270968967013
 30
0.0
 10
-80.37252739800347
 20
12.485628933376734
 30
0.0
 10
-80.37252739800347
 20
12.290292019314235
 30
0.0
 10
-80.37252739800347
 20
12.290292019314235
 30
0.0
 10
-80.37252739800347
 20
11.738043212890624
 30
0.0
 10
-80.37252739800347
 20
11.738043212890624
 30
0.0
 10
-80.37252739800347
 20
11.738043212890624
 30
0.0
 10
-77.077638075086796
 20
11.738043212890624
 30
0.0
 10
-77.077638075086796
 20
11.738043212890624
 30
0.0
 10
-77.077638075086796
 20
11.738043212890624
 30
0.0
 10
-77.077638075086796
 20
12.290292019314235
 30
0.0
 10
-77.077638075086796
 20
12.290292019314235
 30
0.0
 10
-77.077638075086796
 20
12.525936550564236
 30
0.0
 10
-76.884540473090269
 20
12.71679484049479
 30
0.0
 10
-76.647690158420133
 20
12.71679484049479
 30
0.0
 10
-76.647690158420133
 20
12.71679484049479
 30
0.0
 10
-36.26669243706597
 20
12.71679484049479
 30
0.0
 10
-36.26669243706597
 20
12.71679484049479
 30
0.0
 10
-36.029842122395827
 20
12.71679484049479
 30
0.0
 10
-35.841223144531249
 20
12.525936550564236
 30
0.0
 10
-35.841223144531249
 20
12.290292019314235
 30
0.0
 10
-35.841223144531249
 20
12.290292019314235
 30
0.0
 10
-35.841223144531249
 20
11.738043212890624
 30
0.0
 10
-35.841223144531249
 20
11.738043212890624
 30
0.0
 10
-35.841223144531249
 20
11.738043212890624
 30
0.0
 10
-32.544094509548607
 20
11.738043212890624
 30
0.0
 10
-32.544094509548607
 20
11.738043212890624
 30
0.0
 10
-32.544094509548607
 20
11.738043212890624
 30
0.0
 10
-32.544094509548607
 20
12.290292019314235
 30
0.0
 10
-32.544094509548607
 20
12.290292019314235
 30
0.0
 10
-32.544094509548607
 20
12.485628933376734
 30
0.0
 10
-32.4105970594618
 20
12.649270968967013
 30
0.0
 10
-32.234380425347219
 20
12.700947401258679
 30
0.0
 10
-32.234380425347219
 20
12.700947401258679
 30
0.0
 10
-32.969563802083329
 20
-8.9449320475260414
 30
0.0
 10
-32.969563802083329
 20
-8.9449320475260414
 30
0.0
 10
-32.969563802083329
 20
-9.1357903374565961
 30
0.0
 10
-33.121148003472221
 20
-9.2884080674913179
 30
0.0
 10
-33.312006293402774
 20
-9.2884080674913179
 30
0.0
 10
-33.312006293402774
 20
-9.2884080674913179
 30
0.0
 10
-79.602376302083329
 20
-9.2884080674913179
 30
0.0
 10
-79.602376302083329
 20
-9.2884080674913179
 30
0.0
 10
-79.793234592013889
 20
-9.2884080674913179
 30
0.0
 10
-79.944818793402774
 20
-9.1357903374565961
 30
0.0
 10
-79.944818793402774
 20
-8.9449320475260414
 30
0.0
  0
SPLINE
  5
82
100
AcDbEntity
  8
LIVELLO_1
 62
     7
100
AcDbSpline
210
0.0
220
0.0
230
1.0
 70
     8
 71
     3
 72
    53
 73
    49
 74
     0
 42
0.00000001
 43
0.00000001
 40
0.0
 40
0.0
 40
0.0
 40
0.0
 40
1.0
 40
1.0
 40
1.0
 40
2.0
 40
2.0
 40
2.0
 40
3.0
 40
3.0
 40
3.0
 40
4.0
 40
4.0
 40
4.0
 40
5.0
 40
5.0
 40
5.0
 40
6.0
 40
6.0
 40
6.0
 40
7.0
 40
7.0
 40
7.0
 40
8.0
 40
8.0
 40
8.0
 40
9.0
 40
9.0
 40
9.0
 40
10.0
 40
10.0
 40
10.0
 40
11.0
 40
11.0
 40
11.0
 40
12.0
 40
12.0
 40
12.0
 40
13.0
 40
13.0
 40
13.0
 40
14.0
 40
14.0
 40
14.0
 40
15.0
 40
15.0
 40
15.0
 40
16.0
 40
16.0
 40
16.0
 40
16.0
 10
-83.573021104600684
 20
13.866423204210069
 30
0.0
 10
-83.573021104600684
 20
13.866423204210069
 30
0.0
 10
-29.341361490885415
 20
13.866423204210069
 30
0.0
 10
-29.341361490885415
 20
13.866423204210069
 30
0.0
 10
-29.341361490885415
 20
13.866423204210069
 30
0.0
 10
-29.341361490885415
 20
12.71679484049479
 30
0.0
 10
-29.341361490885415
 20
12.71679484049479
 30
0.0
 10
-29.341361490885415
 20
12.71679484049479
 30
0.0
 10
-32.116385904947911
 20
12.71679484049479
 30
0.0
 10
-32.116385904947911
 20
12.71679484049479
 30
0.0
 10
-32.35099690755208
 20
12.71679484049479
 30
0.0
 10
-32.544094509548607
 20
12.525936550564236
 30
0.0
 10
-32.544094509548607
 20
12.290292019314235
 30
0.0
 10
-32.544094509548607
 20
12.290292019314235
 30
0.0
 10
-32.544094509548607
 20
11.738043212890624
 30
0.0
 10
-32.544094509548607
 20
11.738043212890624
 30
0.0
 10
-32.544094509548607
 20
11.738043212890624
 30
0.0
 10
-35.841223144531249
 20
11.738043212890624
 30
0.0
 10
-35.841223144531249
 20
11.738043212890624
 30
0.0
 10
-35.841223144531249
 20
11.738043212890624
 30
0.0
 10
-35.841223144531249
 20
12.290292019314235
 30
0.0
 10
-35.841223144531249
 20
12.290292019314235
 30
0.0
 10
-35.841223144531249
 20
12.525936550564236
 30
0.0
 10
-36.029842122395827
 20
12.71679484049479
 30
0.0
 10
-36.26669243706597
 20
12.71679484049479
 30
0.0
 10
-36.26669243706597
 20
12.71679484049479
 30
0.0
 10
-76.647690158420133
 20
12.71679484049479
 30
0.0
 10
-76.647690158420133
 20
12.71679484049479
 30
0.0
 10
-76.884540473090269
 20
12.71679484049479
 30
0.0
 10
-77.077638075086796
 20
12.525936550564236
 30
0.0
 10
-77.077638075086796
 20
12.290292019314235
 30
0.0
 10
-77.077638075086796
 20
12.290292019314235
 30
0.0
 10
-77.077638075086796
 20
11.738043212890624
 30
0.0
 10
-77.077638075086796
 20
11.738043212890624
 30
0.0
 10
-77.077638075086796
 20
11.738043212890624
 30
0.0
 10
-80.37252739800347
 20
11.738043212890624
 30
0.0
 10
-80.37252739800347
 20
11.738043212890624
 30
0.0
 10
-80.37252739800347
 20
11.738043212890624
 30
0.0
 10
-80.37252739800347
 20
12.290292019314235
 30
0.0
 10
-80.37252739800347
 20
12.290292019314235
 30
0.0
 10
-80.37252739800347
 20
12.525936550564236
 30
0.0
 10
-80.563385687934016
 20
12.71679484049479
 30
0.0
 10
-80.797996690538184
 20
12.71679484049479
 30
0.0
 10
-80.797996690538184
 20
12.71679484049479
 30
0.0
 10
-83.573021104600684
 20
12.71679484049479
 30
0.0
 10
-83.573021104600684
 20
12.71679484049479
 30
0.0
 10
-83.573021104600684
 20
12.71679484049479
 30
0.0
 10
-83.573021104600684
 20
13.866423204210069
 30
0.0
 10
-83.573021104600684
 20
13.866423204210069
 30
0.0
  0
SPLINE
  5
81
100
AcDbEntity
  8
LIVELLO_1
 62
     7
100
AcDbSpline
210
0.0
220
0.0
230
1.0
 70
     8
 71
     3
 72
    29
 73
    25
 74
     0
 42
0.00000001
 43
0.00000001
 40
0.0
 40
0.0
 40
0.0
 40
0.0
 40
1.0
 40
1.0
 40
1.0
 40
2.0
 40
2.0
 40
2.0
 40
3.0
 40
3.0
 40
3.0
 40
4.0
 40
4.0
 40
4.0
 40
5.0
 40
5.0
 40
5.0
 40
6.0
 40
6.0
 40
6.0
 40
7.0
 40
7.0
 40
7.0
 40
8.0
 40
8.0
 40
8.0
 40
8.0
 10
-83.573021104600684
 20
16.814391411675345
 30
0.0
 10
-83.573021104600684
 20
16.814391411675345
 30
0.0
 10
-29.341361490885415
 20
16.814391411675345
 30
0.0
 10
-29.341361490885415
 20
16.814391411675345
 30
0.0
 10
-29.152742513020829
 20
16.814391411675345
 30
0.0
 10
-29.001158311631944
 20
16.661429172092014
 30
0.0
 10
-29.001158311631944
 20
16.472982449001734
 30
0.0
 10
-29.001158311631944
 20
16.472982449001734
 30
0.0
 10
-29.001158311631944
 20
14.207487657335069
 30
0.0
 10
-29.001158311631944
 20
14.207487657335069
 30
0.0
 10
-29.001158311631944
 20
14.01904093424479
 30
0.0
 10
-29.152742513020829
 20
13.866423204210069
 30
0.0
 10
-29.341361490885415
 20
13.866423204210069
 30
0.0
 10
-29.341361490885415
 20
13.866423204210069
 30
0.0
 10
-83.573021104600684
 20
13.866423204210069
 30
0.0
 10
-83.573021104600684
 20
13.866423204210069
 30
0.0
 10
-83.761640082465277
 20
13.866423204210069
 30
0.0
 10
-83.91546359592013
 20
14.01904093424479
 30
0.0
 10
-83.91546359592013
 20
14.207487657335069
 30
0.0
 10
-83.91546359592013
 20
14.207487657335069
 30
0.0
 10
-83.91546359592013
 20
16.472982449001734
 30
0.0
 10
-83.91546359592013
 20
16.472982449001734
 30
0.0
 10
-83.91546359592013
 20
16.661429172092014
 30
0.0
 10
-83.761640082465277
 20
16.814391411675345
 30
0.0
 10
-83.573021104600684
 20
16.814391411675345
 30
0.0
  0
SPLINE
  5
80
100
AcDbEntity
  8
LIVELLO_1
 62
     7
100
AcDbSpline
210
0.0
220
0.0
230
1.0
 70
     8
 71
     3
 72
    20
 73
    16
 74
     0
 42
0.00000001
 43
0.00000001
 40
0.0
 40
0.0
 40
0.0
 40
0.0
 40
1.0
 40
1.0
 40
1.0
 40
2.0
 40
2.0
 40
2.0
 40
3.0
 40
3.0
 40
3.0
 40
4.0
 40
4.0
 40
4.0
 40
5.0
 40
5.0
 40
5.0
 40
5.0
 10
-77.630059136284714
 20
11.738043212890624
 30
0.0
 10
-77.630059136284714
 20
11.738043212890624
 30
0.0
 10
-77.630059136284714
 20
-8.2107821994357639
 30
0.0
 10
-77.630059136284714
 20
-8.2107821994357639
 30
0.0
 10
-77.630059136284714
 20
-8.3410068088107625
 30
0.0
 10
-77.735479058159711
 20
-8.4464267306857632
 30
0.0
 10
-77.86346435546875
 20
-8.4464267306857632
 30
0.0
 10
-78.003851996527771
 20
-8.4464267306857632
 30
0.0
 10
-78.108238389756934
 20
-8.3410068088107625
 30
0.0
 10
-78.108238389756934
 20
-8.2107821994357639
 30
0.0
 10
-78.108238389756934
 20
-8.2107821994357639
 30
0.0
 10
-78.108238389756934
 20
11.738043212890624
 30
0.0
 10
-78.108238389756934
 20
11.738043212890624
 30
0.0
 10
-78.108238389756934
 20
11.738043212890624
 30
0.0
 10
-77.630059136284714
 20
11.738043212890624
 30
0.0
 10
-77.630059136284714
 20
11.738043212890624
 30
0.0
  0
SPLINE
  5
7F
100
AcDbEntity
  8
LIVELLO_1
 62
     7
100
AcDbSpline
210
0.0
220
0.0
230
1.0
 70
     8
 71
     3
 72
    20
 73
    16
 74
     0
 42
0.00000001
 43
0.00000001
 40
0.0
 40
0.0
 40
0.0
 40
0.0
 40
1.0
 40
1.0
 40
1.0
 40
2.0
 40
2.0
 40
2.0
 40
3.0
 40
3.0
 40
3.0
 40
4.0
 40
4.0
 40
4.0
 40
5.0
 40
5.0
 40
5.0
 40
5.0
 10
-75.112038845486097
 20
12.71679484049479
 30
0.0
 10
-75.112038845486097
 20
12.71679484049479
 30
0.0
 10
-75.112038845486097
 20
-8.2107821994357639
 30
0.0
 10
-75.112038845486097
 20
-8.2107821994357639
 30
0.0
 10
-75.112038845486097
 20
-8.3410068088107625
 30
0.0
 10
-75.215219455295127
 20
-8.4464267306857632
 30
0.0
 10
-75.342171223958331
 20
-8.4464267306857632
 30
0.0
 10
-75.484625922309021
 20
-8.4464267306857632
 30
0.0
 10
-75.58797878689235
 20
-8.3410068088107625
 30
0.0
 10
-75.58797878689235
 20
-8.2107821994357639
 30
0.0
 10
-75.58797878689235
 20
-8.2107821994357639
 30
0.0
 10
-75.58797878689235
 20
12.71679484049479
 30
0.0
 10
-75.58797878689235
 20
12.71679484049479
 30
0.0
 10
-75.58797878689235
 20
12.71679484049479
 30
0.0
 10
-75.112038845486097
 20
12.71679484049479
 30
0.0
 10
-75.112038845486097
 20
12.71679484049479
 30
0.0
  0
SPLINE
  5
7E
100
AcDbEntity
  8
LIVELLO_1
 62
     7
100
AcDbSpline
210
0.0
220
0.0
230
1.0
 70
     8
 71
     3
 72
    20
 73
    16
 74
     0
 42
0.00000001
 43
0.00000001
 40
0.0
 40
0.0
 40
0.0
 40
0.0
 40
1.0
 40
1.0
 40
1.0
 40
2.0
 40
2.0
 40
2.0
 40
3.0
 40
3.0
 40
3.0
 40
4.0
 40
4.0
 40
4.0
 40
5.0
 40
5.0
 40
5.0
 40
5.0
 10
-72.591779242621527
 20
12.71679484049479
 30
0.0
 10
-72.591779242621527
 20
12.71679484049479
 30
0.0
 10
-72.591779242621527
 20
-8.2107821994357639
 30
0.0
 10
-72.591779242621527
 20
-8.2107821994357639
 30
0.0
 10
-72.591779242621527
 20
-8.3410068088107625
 30
0.0
 10
-72.698404947916657
 20
-8.4464267306857632
 30
0.0
 10
-72.821911621093747
 20
-8.4464267306857632
 30
0.0
 10
-72.96453857421875
 20
-8.4464267306857632
 30
0.0
 10
-73.069958496093747
 20
-8.3410068088107625
 30
0.0
 10
-73.069958496093747
 20
-8.2107821994357639
 30
0.0
 10
-73.069958496093747
 20
-8.2107821994357639
 30
0.0
 10
-73.069958496093747
 20
12.71679484049479
 30
0.0
 10
-73.069958496093747
 20
12.71679484049479
 30
0.0
 10
-73.069958496093747
 20
12.71679484049479
 30
0.0
 10
-72.591779242621527
 20
12.71679484049479
 30
0.0
 10
-72.591779242621527
 20
12.71679484049479
 30
0.0
  0
SPLINE
  5
7D
100
AcDbEntity
  8
LIVELLO_1
 62
     7
100
AcDbSpline
210
0.0
220
0.0
230
1.0
 70
     8
 71
     3
 72
    20
 73
    16
 74
     0
 42
0.00000001
 43
0.00000001
 40
0.0
 40
0.0
 40
0.0
 40
0.0
 40
1.0
 40
1.0
 40
1.0
 40
2.0
 40
2.0
 40
2.0
 40
3.0
 40
3.0
 40
3.0
 40
4.0
 40
4.0
 40
4.0
 40
5.0
 40
5.0
 40
5.0
 40
5.0
 10
-70.074964735243043
 20
12.71679484049479
 30
0.0
 10
-70.074964735243043
 20
12.71679484049479
 30
0.0
 10
-70.074964735243043
 20
-8.2107821994357639
 30
0.0
 10
-70.074964735243043
 20
-8.2107821994357639
 30
0.0
 10
-70.074964735243043
 20
-8.3410068088107625
 30
0.0
 10
-70.178145345052073
 20
-8.4464267306857632
 30
0.0
 10
-70.305097113715277
 20
-8.4464267306857632
 30
0.0
 10
-70.447551812065967
 20
-8.4464267306857632
 30
0.0
 10
-70.548665364583329
 20
-8.3410068088107625
 30
0.0
 10
-70.548665364583329
 20
-8.2107821994357639
 30
0.0
 10
-70.548665364583329
 20
-8.2107821994357639
 30
0.0
 10
-70.550904676649296
 20
12.71679484049479
 30
0.0
 10
-70.550904676649296
 20
12.71679484049479
 30
0.0
 10
-70.550904676649296
 20
12.71679484049479
 30
0.0
 10
-70.074964735243043
 20
12.71679484049479
 30
0.0
 10
-70.074964735243043
 20
12.71679484049479
 30
0.0
  0
SPLINE
  5
7C
100
AcDbEntity
  8
LIVELLO_1
 62
     7
100
AcDbSpline
210
0.0
220
0.0
230
1.0
 70
     8
 71
     3
 72
    20
 73
    16
 74
     0
 42
0.00000001
 43
0.00000001
 40
0.0
 40
0.0
 40
0.0
 40
0.0
 40
1.0
 40
1.0
 40
1.0
 40
2.0
 40
2.0
 40
2.0
 40
3.0
 40
3.0
 40
3.0
 40
4.0
 40
4.0
 40
4.0
 40
5.0
 40
5.0
 40
5.0
 40
5.0
 10
-67.554705132378473
 20
12.71679484049479
 30
0.0
 10
-67.554705132378473
 20
12.71679484049479
 30
0.0
 10
-67.554705132378473
 20
-8.2107821994357639
 30
0.0
 10
-67.554705132378473
 20
-8.2107821994357639
 30
0.0
 10
-67.554705132378473
 20
-8.3410068088107625
 30
0.0
 10
-67.657885742187489
 20
-8.4464267306857632
 30
0.0
 10
-67.784837510850693
 20
-8.4464267306857632
 30
0.0
 10
-67.927292209201383
 20
-8.4464267306857632
 30
0.0
 10
-68.032884385850693
 20
-8.3410068088107625
 30
0.0
 10
-68.032884385850693
 20
-8.2107821994357639
 30
0.0
 10
-68.032884385850693
 20
-8.2107821994357639
 30
0.0
 10
-68.032884385850693
 20
12.71679484049479
 30
0.0
 10
-68.032884385850693
 20
12.71679484049479
 30
0.0
 10
-68.032884385850693
 20
12.71679484049479
 30
0.0
 10
-67.554705132378473
 20
12.71679484049479
 30
0.0
 10
-67.554705132378473
 20
12.71679484049479
 30
0.0
  0
SPLINE
  5
7B
100
AcDbEntity
  8
LIVELLO_1
 62
     7
100
AcDbSpline
210
0.0
220
0.0
230
1.0
 70
     8
 71
     3
 72
    20
 73
    16
 74
     0
 42
0.00000001
 43
0.00000001
 40
0.0
 40
0.0
 40
0.0
 40
0.0
 40
1.0
 40
1.0
 40
1.0
 40
2.0
 40
2.0
 40
2.0
 40
3.0
 40
3.0
 40
3.0
 40
4.0
 40
4.0
 40
4.0
 40
5.0
 40
5.0
 40
5.0
 40
5.0
 10
-65.035479058159723
 20
12.71679484049479
 30
0.0
 10
-65.035479058159723
 20
12.71679484049479
 30
0.0
 10
-65.035479058159723
 20
-8.2107821994357639
 30
0.0
 10
-65.035479058159723
 20
-8.2107821994357639
 30
0.0
 10
-65.035479058159723
 20
-8.3410068088107625
 30
0.0
 10
-65.141071234809019
 20
-8.4464267306857632
 30
0.0
 10
-65.266817220052076
 20
-8.4464267306857632
 30
0.0
 10
-65.409444173177079
 20
-8.4464267306857632
 30
0.0
 10
-65.511591254340274
 20
-8.3410068088107625
 30
0.0
 10
-65.511591254340274
 20
-8.2107821994357639
 30
0.0
 10
-65.511591254340274
 20
-8.2107821994357639
 30
0.0
 10
-65.511591254340274
 20
12.71679484049479
 30
0.0
 10
-65.511591254340274
 20
12.71679484049479
 30
0.0
 10
-65.511591254340274
 20
12.71679484049479
 30
0.0
 10
-65.035479058159723
 20
12.71679484049479
 30
0.0
 10
-65.035479058159723
 20
12.71679484049479
 30
0.0
  0
SPLINE
  5
7A
100
AcDbEntity
  8
LIVELLO_1
 62
     7
100
AcDbSpline
210
0.0
220
0.0
230
1.0
 70
     8
 71
     3
 72
    20
 73
    16
 74
     0
 42
0.00000001
 43
0.00000001
 40
0.0
 40
0.0
 40
0.0
 40
0.0
 40
1.0
 40
1.0
 40
1.0
 40
2.0
 40
2.0
 40
2.0
 40
3.0
 40
3.0
 40
3.0
 40
4.0
 40
4.0
 40
4.0
 40
5.0
 40
5.0
 40
5.0
 40
5.0
 10
-62.517631022135411
 20
12.71679484049479
 30
0.0
 10
-62.517631022135411
 20
12.71679484049479
 30
0.0
 10
-62.517631022135411
 20
-8.2107821994357639
 30
0.0
 10
-62.517631022135411
 20
-8.2107821994357639
 30
0.0
 10
-62.517631022135411
 20
-8.3410068088107625
 30
0.0
 10
-62.620811631944441
 20
-8.4464267306857632
 30
0.0
 10
-62.747763400607631
 20
-8.4464267306857632
 30
0.0
 10
-62.890218098958329
 20
-8.4464267306857632
 30
0.0
 10
-62.99133165147569
 20
-8.3410068088107625
 30
0.0
 10
-62.99133165147569
 20
-8.2107821994357639
 30
0.0
 10
-62.99133165147569
 20
-8.2107821994357639
 30
0.0
 10
-62.99133165147569
 20
12.71679484049479
 30
0.0
 10
-62.99133165147569
 20
12.71679484049479
 30
0.0
 10
-62.99133165147569
 20
12.71679484049479
 30
0.0
 10
-62.517631022135411
 20
12.71679484049479
 30
0.0
 10
-62.517631022135411
 20
12.71679484049479
 30
0.0
  0
SPLINE
  5
79
100
AcDbEntity
  8
LIVELLO_1
 62
     7
100
AcDbSpline
210
0.0
220
0.0
230
1.0
 70
     8
 71
     3
 72
    20
 73
    16
 74
     0
 42
0.00000001
 43
0.00000001
 40
0.0
 40
0.0
 40
0.0
 40
0.0
 40
1.0
 40
1.0
 40
1.0
 40
2.0
 40
2.0
 40
2.0
 40
3.0
 40
3.0
 40
3.0
 40
4.0
 40
4.0
 40
4.0
 40
5.0
 40
5.0
 40
5.0
 40
5.0
 10
-59.997371419270827
 20
12.71679484049479
 30
0.0
 10
-59.997371419270827
 20
12.71679484049479
 30
0.0
 10
-59.997371419270827
 20
-8.2107821994357639
 30
0.0
 10
-59.997371419270827
 20
-8.2107821994357639
 30
0.0
 10
-59.997371419270827
 20
-8.3410068088107625
 30
0.0
 10
-60.103997124565964
 20
-8.4464267306857632
 30
0.0
 10
-60.227503797743047
 20
-8.4464267306857632
 30
0.0
 10
-60.369958496093744
 20
-8.4464267306857632
 30
0.0
 10
-60.47331136067708
 20
-8.3410068088107625
 30
0.0
 10
-60.47331136067708
 20
-8.2107821994357639
 30
0.0
 10
-60.47331136067708
 20
-8.2107821994357639
 30
0.0
 10
-60.47331136067708
 20
12.71679484049479
 30
0.0
 10
-60.47331136067708
 20
12.71679484049479
 30
0.0
 10
-60.47331136067708
 20
12.71679484049479
 30
0.0
 10
-59.997371419270827
 20
12.71679484049479
 30
0.0
 10
-59.997371419270827
 20
12.71679484049479
 30
0.0
  0
SPLINE
  5
78
100
AcDbEntity
  8
LIVELLO_1
 62
     7
100
AcDbSpline
210
0.0
220
0.0
230
1.0
 70
     8
 71
     3
 72
    20
 73
    16
 74
     0
 42
0.00000001
 43
0.00000001
 40
0.0
 40
0.0
 40
0.0
 40
0.0
 40
1.0
 40
1.0
 40
1.0
 40
2.0
 40
2.0
 40
2.0
 40
3.0
 40
3.0
 40
3.0
 40
4.0
 40
4.0
 40
4.0
 40
5.0
 40
5.0
 40
5.0
 40
5.0
 10
-57.478145345052077
 20
12.71679484049479
 30
0.0
 10
-57.478145345052077
 20
12.71679484049479
 30
0.0
 10
-57.478145345052077
 20
-8.2107821994357639
 30
0.0
 10
-57.478145345052077
 20
-8.2107821994357639
 30
0.0
 10
-57.478145345052077
 20
-8.3410068088107625
 30
0.0
 10
-57.581498209635413
 20
-8.4464267306857632
 30
0.0
 10
-57.710517035590271
 20
-8.4464267306857632
 30
0.0
 10
-57.853143988715274
 20
-8.4464267306857632
 30
0.0
 10
-57.954257541232636
 20
-8.3410068088107625
 30
0.0
 10
-57.954257541232636
 20
-8.2107821994357639
 30
0.0
 10
-57.954257541232636
 20
-8.2107821994357639
 30
0.0
 10
-57.954257541232636
 20
12.71679484049479
 30
0.0
 10
-57.954257541232636
 20
12.71679484049479
 30
0.0
 10
-57.954257541232636
 20
12.71679484049479
 30
0.0
 10
-57.478145345052077
 20
12.71679484049479
 30
0.0
 10
-57.478145345052077
 20
12.71679484049479
 30
0.0
  0
SPLINE
  5
77
100
AcDbEntity
  8
LIVELLO_1
 62
     7
100
AcDbSpline
210
0.0
220
0.0
230
1.0
 70
     8
 71
     3
 72
    20
 73
    16
 74
     0
 42
0.00000001
 43
0.00000001
 40
0.0
 40
0.0
 40
0.0
 40
0.0
 40
1.0
 40
1.0
 40
1.0
 40
2.0
 40
2.0
 40
2.0
 40
3.0
 40
3.0
 40
3.0
 40
4.0
 40
4.0
 40
4.0
 40
5.0
 40
5.0
 40
5.0
 40
5.0
 10
-54.960297309027773
 20
12.71679484049479
 30
0.0
 10
-54.960297309027773
 20
12.71679484049479
 30
0.0
 10
-54.960297309027773
 20
-8.2107821994357639
 30
0.0
 10
-54.960297309027773
 20
-8.2107821994357639
 30
0.0
 10
-54.960297309027773
 20
-8.3410068088107625
 30
0.0
 10
-55.063477918836803
 20
-8.4464267306857632
 30
0.0
 10
-55.190429687499993
 20
-8.4464267306857632
 30
0.0
 10
-55.33288438585069
 20
-8.4464267306857632
 30
0.0
 10
-55.436237250434026
 20
-8.3410068088107625
 30
0.0
 10
-55.436237250434026
 20
-8.2107821994357639
 30
0.0
 10
-55.436237250434026
 20
-8.2107821994357639
 30
0.0
 10
-55.436237250434026
 20
12.71679484049479
 30
0.0
 10
-55.436237250434026
 20
12.71679484049479
 30
0.0
 10
-55.436237250434026
 20
12.71679484049479
 30
0.0
 10
-54.960297309027773
 20
12.71679484049479
 30
0.0
 10
-54.960297309027773
 20
12.71679484049479
 30
0.0
  0
SPLINE
  5
76
100
AcDbEntity
  8
LIVELLO_1
 62
     7
100
AcDbSpline
210
0.0
220
0.0
230
1.0
 70
     8
 71
     3
 72
    20
 73
    16
 74
     0
 42
0.00000001
 43
0.00000001
 40
0.0
 40
0.0
 40
0.0
 40
0.0
 40
1.0
 40
1.0
 40
1.0
 40
2.0
 40
2.0
 40
2.0
 40
3.0
 40
3.0
 40
3.0
 40
4.0
 40
4.0
 40
4.0
 40
5.0
 40
5.0
 40
5.0
 40
5.0
 10
-52.441071234809023
 20
12.71679484049479
 30
0.0
 10
-52.441071234809023
 20
12.71679484049479
 30
0.0
 10
-52.441071234809023
 20
-8.2107821994357639
 30
0.0
 10
-52.441071234809023
 20
-8.2107821994357639
 30
0.0
 10
-52.441071234809023
 20
-8.3410068088107625
 30
0.0
 10
-52.544424099392359
 20
-8.4464267306857632
 30
0.0
 10
-52.672409396701383
 20
-8.4464267306857632
 30
0.0
 10
-52.81486409505208
 20
-8.4464267306857632
 30
0.0
 10
-52.917011176215276
 20
-8.3410068088107625
 30
0.0
 10
-52.917011176215276
 20
-8.2107821994357639
 30
0.0
 10
-52.917011176215276
 20
-8.2107821994357639
 30
0.0
 10
-52.917011176215276
 20
12.71679484049479
 30
0.0
 10
-52.917011176215276
 20
12.71679484049479
 30
0.0
 10
-52.917011176215276
 20
12.71679484049479
 30
0.0
 10
-52.441071234809023
 20
12.71679484049479
 30
0.0
 10
-52.441071234809023
 20
12.71679484049479
 30
0.0
  0
SPLINE
  5
75
100
AcDbEntity
  8
LIVELLO_1
 62
     7
100
AcDbSpline
210
0.0
220
0.0
230
1.0
 70
     8
 71
     3
 72
    20
 73
    16
 74
     0
 42
0.00000001
 43
0.00000001
 40
0.0
 40
0.0
 40
0.0
 40
0.0
 40
1.0
 40
1.0
 40
1.0
 40
2.0
 40
2.0
 40
2.0
 40
3.0
 40
3.0
 40
3.0
 40
4.0
 40
4.0
 40
4.0
 40
5.0
 40
5.0
 40
5.0
 40
5.0
 10
-49.923050944010413
 20
12.71679484049479
 30
0.0
 10
-49.923050944010413
 20
12.71679484049479
 30
0.0
 10
-49.923050944010413
 20
-8.2107821994357639
 30
0.0
 10
-49.923050944010413
 20
-8.2107821994357639
 30
0.0
 10
-49.923050944010413
 20
-8.3410068088107625
 30
0.0
 10
-50.024164496527774
 20
-8.4464267306857632
 30
0.0
 10
-50.153183322482633
 20
-8.4464267306857632
 30
0.0
 10
-50.295810275607636
 20
-8.4464267306857632
 30
0.0
 10
-50.396923828124997
 20
-8.3410068088107625
 30
0.0
 10
-50.396923828124997
 20
-8.2107821994357639
 30
0.0
 10
-50.396923828124997
 20
-8.2107821994357639
 30
0.0
 10
-50.396923828124997
 20
12.71679484049479
 30
0.0
 10
-50.396923828124997
 20
12.71679484049479
 30
0.0
 10
-50.396923828124997
 20
12.71679484049479
 30
0.0
 10
-49.923050944010413
 20
12.71679484049479
 30
0.0
 10
-49.923050944010413
 20
12.71679484049479
 30
0.0
  0
SPLINE
  5
74
100
AcDbEntity
  8
LIVELLO_1
 62
     7
100
AcDbSpline
210
0.0
220
0.0
230
1.0
 70
     8
 71
     3
 72
    20
 73
    16
 74
     0
 42
0.00000001
 43
0.00000001
 40
0.0
 40
0.0
 40
0.0
 40
0.0
 40
1.0
 40
1.0
 40
1.0
 40
2.0
 40
2.0
 40
2.0
 40
3.0
 40
3.0
 40
3.0
 40
4.0
 40
4.0
 40
4.0
 40
5.0
 40
5.0
 40
5.0
 40
5.0
 10
-47.402791341145829
 20
12.71679484049479
 30
0.0
 10
-47.402791341145829
 20
12.71679484049479
 30
0.0
 10
-47.402791341145829
 20
-8.2107821994357639
 30
0.0
 10
-47.402791341145829
 20
-8.2107821994357639
 30
0.0
 10
-47.402791341145829
 20
-8.3410068088107625
 30
0.0
 10
-47.50511067708333
 20
-8.4464267306857632
 30
0.0
 10
-47.632923719618049
 20
-8.4464267306857632
 30
0.0
 10
-47.775550672743051
 20
-8.4464267306857632
 30
0.0
 10
-47.878903537326387
 20
-8.3410068088107625
 30
0.0
 10
-47.878903537326387
 20
-8.2107821994357639
 30
0.0
 10
-47.878903537326387
 20
-8.2107821994357639
 30
0.0
 10
-47.878903537326387
 20
12.71679484049479
 30
0.0
 10
-47.878903537326387
 20
12.71679484049479
 30
0.0
 10
-47.878903537326387
 20
12.71679484049479
 30
0.0
 10
-47.402791341145829
 20
12.71679484049479
 30
0.0
 10
-47.402791341145829
 20
12.71679484049479
 30
0.0
  0
SPLINE
  5
73
100
AcDbEntity
  8
LIVELLO_1
 62
     7
100
AcDbSpline
210
0.0
220
0.0
230
1.0
 70
     8
 71
     3
 72
    20
 73
    16
 74
     0
 42
0.00000001
 43
0.00000001
 40
0.0
 40
0.0
 40
0.0
 40
0.0
 40
1.0
 40
1.0
 40
1.0
 40
2.0
 40
2.0
 40
2.0
 40
3.0
 40
3.0
 40
3.0
 40
4.0
 40
4.0
 40
4.0
 40
5.0
 40
5.0
 40
5.0
 40
5.0
 10
-44.883737521701384
 20
12.71679484049479
 30
0.0
 10
-44.883737521701384
 20
12.71679484049479
 30
0.0
 10
-44.883737521701384
 20
-8.2107821994357639
 30
0.0
 10
-44.883737521701384
 20
-8.2107821994357639
 30
0.0
 10
-44.883737521701384
 20
-8.3410068088107625
 30
0.0
 10
-44.98709038628472
 20
-8.4464267306857632
 30
0.0
 10
-45.116109212239579
 20
-8.4464267306857632
 30
0.0
 10
-45.258736165364581
 20
-8.4464267306857632
 30
0.0
 10
-45.359677463107637
 20
-8.3410068088107625
 30
0.0
 10
-45.359677463107637
 20
-8.2107821994357639
 30
0.0
 10
-45.359677463107637
 20
-8.2107821994357639
 30
0.0
 10
-45.359677463107637
 20
12.71679484049479
 30
0.0
 10
-45.359677463107637
 20
12.71679484049479
 30
0.0
 10
-45.359677463107637
 20
12.71679484049479
 30
0.0
 10
-44.883737521701384
 20
12.71679484049479
 30
0.0
 10
-44.883737521701384
 20
12.71679484049479
 30
0.0
  0
SPLINE
  5
72
100
AcDbEntity
  8
LIVELLO_1
 62
     7
100
AcDbSpline
210
0.0
220
0.0
230
1.0
 70
     8
 71
     3
 72
    20
 73
    16
 74
     0
 42
0.00000001
 43
0.00000001
 40
0.0
 40
0.0
 40
0.0
 40
0.0
 40
1.0
 40
1.0
 40
1.0
 40
2.0
 40
2.0
 40
2.0
 40
3.0
 40
3.0
 40
3.0
 40
4.0
 40
4.0
 40
4.0
 40
5.0
 40
5.0
 40
5.0
 40
5.0
 10
-42.365717230902774
 20
12.71679484049479
 30
0.0
 10
-42.365717230902774
 20
12.71679484049479
 30
0.0
 10
-42.365717230902774
 20
-8.2107821994357639
 30
0.0
 10
-42.365717230902774
 20
-8.2107821994357639
 30
0.0
 10
-42.365717230902774
 20
-8.3410068088107625
 30
0.0
 10
-42.466830783420136
 20
-8.4464267306857632
 30
0.0
 10
-42.595849609374994
 20
-8.4464267306857632
 30
0.0
 10
-42.738476562499997
 20
-8.4464267306857632
 30
0.0
 10
-42.841829427083333
 20
-8.3410068088107625
 30
0.0
 10
-42.841829427083333
 20
-8.2107821994357639
 30
0.0
 10
-42.841829427083333
 20
-8.2107821994357639
 30
0.0
 10
-42.841829427083333
 20
12.71679484049479
 30
0.0
 10
-42.841829427083333
 20
12.71679484049479
 30
0.0
 10
-42.841829427083333
 20
12.71679484049479
 30
0.0
 10
-42.365717230902774
 20
12.71679484049479
 30
0.0
 10
-42.365717230902774
 20
12.71679484049479
 30
0.0
  0
SPLINE
  5
71
100
AcDbEntity
  8
LIVELLO_1
 62
     7
100
AcDbSpline
210
0.0
220
0.0
230
1.0
 70
     8
 71
     3
 72
    20
 73
    16
 74
     0
 42
0.00000001
 43
0.00000001
 40
0.0
 40
0.0
 40
0.0
 40
0.0
 40
1.0
 40
1.0
 40
1.0
 40
2.0
 40
2.0
 40
2.0
 40
3.0
 40
3.0
 40
3.0
 40
4.0
 40
4.0
 40
4.0
 40
5.0
 40
5.0
 40
5.0
 40
5.0
 10
-39.84666341145833
 20
12.71679484049479
 30
0.0
 10
-39.84666341145833
 20
12.71679484049479
 30
0.0
 10
-39.84666341145833
 20
-8.2107821994357639
 30
0.0
 10
-39.84666341145833
 20
-8.2107821994357639
 30
0.0
 10
-39.84666341145833
 20
-8.3410068088107625
 30
0.0
 10
-39.950016276041666
 20
-8.4464267306857632
 30
0.0
 10
-40.07559000651041
 20
-8.4464267306857632
 30
0.0
 10
-40.218216959635413
 20
-8.4464267306857632
 30
0.0
 10
-40.322603352864583
 20
-8.3410068088107625
 30
0.0
 10
-40.322603352864583
 20
-8.2107821994357639
 30
0.0
 10
-40.322603352864583
 20
-8.2107821994357639
 30
0.0
 10
-40.322603352864583
 20
12.71679484049479
 30
0.0
 10
-40.322603352864583
 20
12.71679484049479
 30
0.0
 10
-40.322603352864583
 20
12.71679484049479
 30
0.0
 10
-39.84666341145833
 20
12.71679484049479
 30
0.0
 10
-39.84666341145833
 20
12.71679484049479
 30
0.0
  0
SPLINE
  5
70
100
AcDbEntity
  8
LIVELLO_1
 62
     7
100
AcDbSpline
210
0.0
220
0.0
230
1.0
 70
     8
 71
     3
 72
    20
 73
    16
 74
     0
 42
0.00000001
 43
0.00000001
 40
0.0
 40
0.0
 40
0.0
 40
0.0
 40
1.0
 40
1.0
 40
1.0
 40
2.0
 40
2.0
 40
2.0
 40
3.0
 40
3.0
 40
3.0
 40
4.0
 40
4.0
 40
4.0
 40
5.0
 40
5.0
 40
5.0
 40
5.0
 10
-37.32864312065972
 20
12.71679484049479
 30
0.0
 10
-37.32864312065972
 20
12.71679484049479
 30
0.0
 10
-37.32864312065972
 20
-5.6872497558593746
 30
0.0
 10
-37.32864312065972
 20
-5.6872497558593746
 30
0.0
 10
-37.32864312065972
 20
-5.8150627983940968
 30
0.0
 10
-37.429756673177081
 20
-5.9160040961371525
 30
0.0
 10
-37.55877549913194
 20
-5.9160040961371525
 30
0.0
 10
-37.701402452256943
 20
-5.9160040961371525
 30
0.0
 10
-37.802343749999999
 20
-5.8150627983940968
 30
0.0
 10
-37.802343749999999
 20
-5.6872497558593746
 30
0.0
 10
-37.802343749999999
 20
-5.6872497558593746
 30
0.0
 10
-37.802343749999999
 20
12.71679484049479
 30
0.0
 10
-37.802343749999999
 20
12.71679484049479
 30
0.0
 10
-37.802343749999999
 20
12.71679484049479
 30
0.0
 10
-37.32864312065972
 20
12.71679484049479
 30
0.0
 10
-37.32864312065972
 20
12.71679484049479
 30
0.0
  0
SPLINE
  5
6F
100
AcDbEntity
  8
LIVELLO_1
 62
     7
100
AcDbSpline
210
0.0
220
0.0
230
1.0
 70
     8
 71
     3
 72
    20
 73
    16
 74
     0
 42
0.00000001
 43
0.00000001
 40
0.0
 40
0.0
 40
0.0
 40
0.0
 40
1.0
 40
1.0
 40
1.0
 40
2.0
 40
2.0
 40
2.0
 40
3.0
 40
3.0
 40
3.0
 40
4.0
 40
4.0
 40
4.0
 40
5.0
 40
5.0
 40
5.0
 40
5.0
 10
-34.809589301215276
 20
11.738043212890624
 30
0.0
 10
-34.809589301215276
 20
11.738043212890624
 30
0.0
 10
-34.809589301215276
 20
-5.6872497558593746
 30
0.0
 10
-34.809589301215276
 20
-5.6872497558593746
 30
0.0
 10
-34.809589301215276
 20
-5.8150627983940968
 30
0.0
 10
-34.910530598958331
 20
-5.9160040961371525
 30
0.0
 10
-35.038515896267356
 20
-5.9160040961371525
 30
0.0
 10
-35.181142849392359
 20
-5.9160040961371525
 30
0.0
 10
-35.284495713975694
 20
-5.8150627983940968
 30
0.0
 10
-35.284495713975694
 20
-5.6872497558593746
 30
0.0
 10
-35.284495713975694
 20
-5.6872497558593746
 30
0.0
 10
-35.284495713975694
 20
11.738043212890624
 30
0.0
 10
-35.284495713975694
 20
11.738043212890624
 30
0.0
 10
-35.284495713975694
 20
11.738043212890624
 30
0.0
 10
-34.809589301215276
 20
11.738043212890624
 30
0.0
 10
-34.809589301215276
 20
11.738043212890624
 30
0.0
  0
SPLINE
  5
6E
100
AcDbEntity
  8
LIVELLO_1
 62
     7
100
AcDbSpline
210
0.0
220
0.0
230
1.0
 70
     8
 71
     3
 72
    29
 73
    25
 74
     0
 42
0.00000001
 43
0.00000001
 40
0.0
 40
0.0
 40
0.0
 40
0.0
 40
1.0
 40
1.0
 40
1.0
 40
2.0
 40
2.0
 40
2.0
 40
3.0
 40
3.0
 40
3.0
 40
4.0
 40
4.0
 40
4.0
 40
5.0
 40
5.0
 40
5.0
 40
6.0
 40
6.0
 40
6.0
 40
7.0
 40
7.0
 40
7.0
 40
8.0
 40
8.0
 40
8.0
 40
8.0
 10
-102.22717963324652
 20
67.878974745008676
 30
0.0
 10
-102.22717963324652
 20
67.878974745008676
 30
0.0
 10
-99.197390407986106
 20
67.878974745008676
 30
0.0
 10
-99.197390407986106
 20
67.878974745008676
 30
0.0
 10
-98.997574869791663
 20
67.878974745008676
 30
0.0
 10
-98.835827636718747
 20
67.717399766710059
 30
0.0
 10
-98.835827636718747
 20
67.517584228515616
 30
0.0
 10
-98.835827636718747
 20
67.517584228515616
 30
0.0
 10
-98.835827636718747
 20
66.147986518012146
 30
0.0
 10
-98.835827636718747
 20
66.147986518012146
 30
0.0
 10
-98.835827636718747
 20
65.948170979817704
 30
0.0
 10
-98.997574869791663
 20
65.786596001519086
 30
0.0
 10
-99.197390407986106
 20
65.786596001519086
 30
0.0
 10
-99.197390407986106
 20
65.786596001519086
 30
0.0
 10
-102.22717963324652
 20
65.786596001519086
 30
0.0
 10
-102.22717963324652
 20
65.786596001519086
 30
0.0
 10
-102.42716742621526
 20
65.786596001519086
 30
0.0
 10
-102.58874240451388
 20
65.948170979817704
 30
0.0
 10
-102.58874240451388
 20
66.147986518012146
 30
0.0
 10
-102.58874240451388
 20
66.147986518012146
 30
0.0
 10
-102.58874240451388
 20
67.517584228515616
 30
0.0
 10
-102.58874240451388
 20
67.517584228515616
 30
0.0
 10
-102.58874240451388
 20
67.717399766710059
 30
0.0
 10
-102.42716742621526
 20
67.878974745008676
 30
0.0
 10
-102.22717963324652
 20
67.878974745008676
 30
0.0
  0
SPLINE
  5
6D
100
AcDbEntity
  8
LIVELLO_1
 62
     7
100
AcDbSpline
210
0.0
220
0.0
230
1.0
 70
     8
 71
     3
 72
    29
 73
    25
 74
     0
 42
0.00000001
 43
0.00000001
 40
0.0
 40
0.0
 40
0.0
 40
0.0
 40
1.0
 40
1.0
 40
1.0
 40
2.0
 40
2.0
 40
2.0
 40
3.0
 40
3.0
 40
3.0
 40
4.0
 40
4.0
 40
4.0
 40
5.0
 40
5.0
 40
5.0
 40
6.0
 40
6.0
 40
6.0
 40
7.0
 40
7.0
 40
7.0
 40
8.0
 40
8.0
 40
8.0
 40
8.0
 10
-102.22717963324652
 20
65.786596001519086
 30
0.0
 10
-102.22717963324652
 20
65.786596001519086
 30
0.0
 10
-99.197390407986106
 20
65.786596001519086
 30
0.0
 10
-99.197390407986106
 20
65.786596001519086
 30
0.0
 10
-98.997574869791663
 20
65.786596001519086
 30
0.0
 10
-98.835827636718747
 20
65.620370144314236
 30
0.0
 10
-98.835827636718747
 20
65.420554606119779
 30
0.0
 10
-98.835827636718747
 20
65.420554606119779
 30
0.0
 10
-98.835827636718747
 20
63.882663981119784
 30
0.0
 10
-98.835827636718747
 20
63.882663981119784
 30
0.0
 10
-98.835827636718747
 20
63.680609130859366
 30
0.0
 10
-98.997574869791663
 20
63.518861897786451
 30
0.0
 10
-99.197390407986106
 20
63.518861897786451
 30
0.0
 10
-99.197390407986106
 20
63.518861897786451
 30
0.0
 10
-102.22717963324652
 20
63.518861897786451
 30
0.0
 10
-102.22717963324652
 20
63.518861897786451
 30
0.0
 10
-102.42716742621526
 20
63.518861897786451
 30
0.0
 10
-102.58874240451388
 20
63.680609130859366
 30
0.0
 10
-102.58874240451388
 20
63.882663981119784
 30
0.0
 10
-102.58874240451388
 20
63.882663981119784
 30
0.0
 10
-102.58874240451388
 20
65.420554606119779
 30
0.0
 10
-102.58874240451388
 20
65.420554606119779
 30
0.0
 10
-102.58874240451388
 20
65.620370144314236
 30
0.0
 10
-102.42716742621526
 20
65.786596001519086
 30
0.0
 10
-102.22717963324652
 20
65.786596001519086
 30
0.0
  0
SPLINE
  5
6C
100
AcDbEntity
  8
LIVELLO_1
 62
     7
100
AcDbSpline
210
0.0
220
0.0
230
1.0
 70
     8
 71
     3
 72
    29
 73
    25
 74
     0
 42
0.00000001
 43
0.00000001
 40
0.0
 40
0.0
 40
0.0
 40
0.0
 40
1.0
 40
1.0
 40
1.0
 40
2.0
 40
2.0
 40
2.0
 40
3.0
 40
3.0
 40
3.0
 40
4.0
 40
4.0
 40
4.0
 40
5.0
 40
5.0
 40
5.0
 40
6.0
 40
6.0
 40
6.0
 40
7.0
 40
7.0
 40
7.0
 40
8.0
 40
8.0
 40
8.0
 40
8.0
 10
-102.22717963324652
 20
70.146708848741312
 30
0.0
 10
-102.22717963324652
 20
70.146708848741312
 30
0.0
 10
-99.197390407986106
 20
70.146708848741312
 30
0.0
 10
-99.197390407986106
 20
70.146708848741312
 30
0.0
 10
-98.997574869791663
 20
70.146708848741312
 30
0.0
 10
-98.835827636718747
 20
69.985133870442695
 30
0.0
 10
-98.835827636718747
 20
69.783079020182285
 30
0.0
 10
-98.835827636718747
 20
69.783079020182285
 30
0.0
 10
-98.835827636718747
 20
68.242776828342002
 30
0.0
 10
-98.835827636718747
 20
68.242776828342002
 30
0.0
 10
-98.835827636718747
 20
68.040721978081592
 30
0.0
 10
-98.997574869791663
 20
67.878974745008676
 30
0.0
 10
-99.197390407986106
 20
67.878974745008676
 30
0.0
 10
-99.197390407986106
 20
67.878974745008676
 30
0.0
 10
-102.22717963324652
 20
67.878974745008676
 30
0.0
 10
-102.22717963324652
 20
67.878974745008676
 30
0.0
 10
-102.42716742621526
 20
67.878974745008676
 30
0.0
 10
-102.58874240451388
 20
68.040721978081592
 30
0.0
 10
-102.58874240451388
 20
68.242776828342002
 30
0.0
 10
-102.58874240451388
 20
68.242776828342002
 30
0.0
 10
-102.58874240451388
 20
69.783079020182285
 30
0.0
 10
-102.58874240451388
 20
69.783079020182285
 30
0.0
 10
-102.58874240451388
 20
69.985133870442695
 30
0.0
 10
-102.42716742621526
 20
70.146708848741312
 30
0.0
 10
-102.22717963324652
 20
70.146708848741312
 30
0.0
  0
SPLINE
  5
6B
100
AcDbEntity
  8
LIVELLO_1
 62
     7
100
AcDbSpline
210
0.0
220
0.0
230
1.0
 70
     8
 71
     3
 72
    29
 73
    25
 74
     0
 42
0.00000001
 43
0.00000001
 40
0.0
 40
0.0
 40
0.0
 40
0.0
 40
1.0
 40
1.0
 40
1.0
 40
2.0
 40
2.0
 40
2.0
 40
3.0
 40
3.0
 40
3.0
 40
4.0
 40
4.0
 40
4.0
 40
5.0
 40
5.0
 40
5.0
 40
6.0
 40
6.0
 40
6.0
 40
7.0
 40
7.0
 40
7.0
 40
8.0
 40
8.0
 40
8.0
 40
8.0
 10
-98.47323133680554
 20
67.878974745008676
 30
0.0
 10
-98.47323133680554
 20
67.878974745008676
 30
0.0
 10
-95.442236328124991
 20
67.878974745008676
 30
0.0
 10
-95.442236328124991
 20
67.878974745008676
 30
0.0
 10
-95.244660101996516
 20
67.878974745008676
 30
0.0
 10
-95.081879340277766
 20
67.717399766710059
 30
0.0
 10
-95.081879340277766
 20
67.517584228515616
 30
0.0
 10
-95.081879340277766
 20
67.517584228515616
 30
0.0
 10
-95.081879340277766
 20
66.147986518012146
 30
0.0
 10
-95.081879340277766
 20
66.147986518012146
 30
0.0
 10
-95.081879340277766
 20
65.948170979817704
 30
0.0
 10
-95.244660101996516
 20
65.786596001519086
 30
0.0
 10
-95.442236328124991
 20
65.786596001519086
 30
0.0
 10
-95.442236328124991
 20
65.786596001519086
 30
0.0
 10
-98.47323133680554
 20
65.786596001519086
 30
0.0
 10
-98.47323133680554
 20
65.786596001519086
 30
0.0
 10
-98.673046874999997
 20
65.786596001519086
 30
0.0
 10
-98.835827636718747
 20
65.948170979817704
 30
0.0
 10
-98.835827636718747
 20
66.147986518012146
 30
0.0
 10
-98.835827636718747
 20
66.147986518012146
 30
0.0
 10
-98.835827636718747
 20
67.517584228515616
 30
0.0
 10
-98.835827636718747
 20
67.517584228515616
 30
0.0
 10
-98.835827636718747
 20
67.717399766710059
 30
0.0
 10
-98.673046874999997
 20
67.878974745008676
 30
0.0
 10
-98.47323133680554
 20
67.878974745008676
 30
0.0
  0
SPLINE
  5
6A
100
AcDbEntity
  8
LIVELLO_1
 62
     7
100
AcDbSpline
210
0.0
220
0.0
230
1.0
 70
     8
 71
     3
 72
    29
 73
    25
 74
     0
 42
0.00000001
 43
0.00000001
 40
0.0
 40
0.0
 40
0.0
 40
0.0
 40
1.0
 40
1.0
 40
1.0
 40
2.0
 40
2.0
 40
2.0
 40
3.0
 40
3.0
 40
3.0
 40
4.0
 40
4.0
 40
4.0
 40
5.0
 40
5.0
 40
5.0
 40
6.0
 40
6.0
 40
6.0
 40
7.0
 40
7.0
 40
7.0
 40
8.0
 40
8.0
 40
8.0
 40
8.0
 10
-98.47323133680554
 20
65.786596001519086
 30
0.0
 10
-98.47323133680554
 20
65.786596001519086
 30
0.0
 10
-95.442236328124991
 20
65.786596001519086
 30
0.0
 10
-95.442236328124991
 20
65.786596001519086
 30
0.0
 10
-95.244660101996516
 20
65.786596001519086
 30
0.0
 10
-95.081879340277766
 20
65.620370144314236
 30
0.0
 10
-95.081879340277766
 20
65.420554606119779
 30
0.0
 10
-95.081879340277766
 20
65.420554606119779
 30
0.0
 10
-95.081879340277766
 20
63.882663981119784
 30
0.0
 10
-95.081879340277766
 20
63.882663981119784
 30
0.0
 10
-95.081879340277766
 20
63.680609130859366
 30
0.0
 10
-95.244660101996516
 20
63.518861897786451
 30
0.0
 10
-95.442236328124991
 20
63.518861897786451
 30
0.0
 10
-95.442236328124991
 20
63.518861897786451
 30
0.0
 10
-98.47323133680554
 20
63.518861897786451
 30
0.0
 10
-98.47323133680554
 20
63.518861897786451
 30
0.0
 10
-98.673046874999997
 20
63.518861897786451
 30
0.0
 10
-98.835827636718747
 20
63.680609130859366
 30
0.0
 10
-98.835827636718747
 20
63.882663981119784
 30
0.0
 10
-98.835827636718747
 20
63.882663981119784
 30
0.0
 10
-98.835827636718747
 20
65.420554606119779
 30
0.0
 10
-98.835827636718747
 20
65.420554606119779
 30
0.0
 10
-98.835827636718747
 20
65.620370144314236
 30
0.0
 10
-98.673046874999997
 20
65.786596001519086
 30
0.0
 10
-98.47323133680554
 20
65.786596001519086
 30
0.0
  0
SPLINE
  5
69
100
AcDbEntity
  8
LIVELLO_1
 62
     7
100
AcDbSpline
210
0.0
220
0.0
230
1.0
 70
     8
 71
     3
 72
    29
 73
    25
 74
     0
 42
0.00000001
 43
0.00000001
 40
0.0
 40
0.0
 40
0.0
 40
0.0
 40
1.0
 40
1.0
 40
1.0
 40
2.0
 40
2.0
 40
2.0
 40
3.0
 40
3.0
 40
3.0
 40
4.0
 40
4.0
 40
4.0
 40
5.0
 40
5.0
 40
5.0
 40
6.0
 40
6.0
 40
6.0
 40
7.0
 40
7.0
 40
7.0
 40
8.0
 40
8.0
 40
8.0
 40
8.0
 10
-98.47323133680554
 20
70.146708848741312
 30
0.0
 10
-98.47323133680554
 20
70.146708848741312
 30
0.0
 10
-95.442236328124991
 20
70.146708848741312
 30
0.0
 10
-95.442236328124991
 20
70.146708848741312
 30
0.0
 10
-95.244660101996516
 20
70.146708848741312
 30
0.0
 10
-95.081879340277766
 20
69.985133870442695
 30
0.0
 10
-95.081879340277766
 20
69.783079020182285
 30
0.0
 10
-95.081879340277766
 20
69.783079020182285
 30
0.0
 10
-95.081879340277766
 20
68.242776828342002
 30
0.0
 10
-95.081879340277766
 20
68.242776828342002
 30
0.0
 10
-95.081879340277766
 20
68.040721978081592
 30
0.0
 10
-95.244660101996516
 20
67.878974745008676
 30
0.0
 10
-95.442236328124991
 20
67.878974745008676
 30
0.0
 10
-95.442236328124991
 20
67.878974745008676
 30
0.0
 10
-98.47323133680554
 20
67.878974745008676
 30
0.0
 10
-98.47323133680554
 20
67.878974745008676
 30
0.0
 10
-98.673046874999997
 20
67.878974745008676
 30
0.0
 10
-98.835827636718747
 20
68.040721978081592
 30
0.0
 10
-98.835827636718747
 20
68.242776828342002
 30
0.0
 10
-98.835827636718747
 20
68.242776828342002
 30
0.0
 10
-98.835827636718747
 20
69.783079020182285
 30
0.0
 10
-98.835827636718747
 20
69.783079020182285
 30
0.0
 10
-98.835827636718747
 20
69.985133870442695
 30
0.0
 10
-98.673046874999997
 20
70.146708848741312
 30
0.0
 10
-98.47323133680554
 20
70.146708848741312
 30
0.0
  0
SPLINE
  5
68
100
AcDbEntity
  8
LIVELLO_1
 62
     7
100
AcDbSpline
210
0.0
220
0.0
230
1.0
 70
     8
 71
     3
 72
    29
 73
    25
 74
     0
 42
0.00000001
 43
0.00000001
 40
0.0
 40
0.0
 40
0.0
 40
0.0
 40
1.0
 40
1.0
 40
1.0
 40
2.0
 40
2.0
 40
2.0
 40
3.0
 40
3.0
 40
3.0
 40
4.0
 40
4.0
 40
4.0
 40
5.0
 40
5.0
 40
5.0
 40
6.0
 40
6.0
 40
6.0
 40
7.0
 40
7.0
 40
7.0
 40
8.0
 40
8.0
 40
8.0
 40
8.0
 10
-13.716992187499999
 20
65.786596001519086
 30
0.0
 10
-13.716992187499999
 20
65.786596001519086
 30
0.0
 10
-10.689442274305554
 20
65.786596001519086
 30
0.0
 10
-10.689442274305554
 20
65.786596001519086
 30
0.0
 10
-10.487387424045139
 20
65.786596001519086
 30
0.0
 10
-10.325640190972221
 20
65.620370144314236
 30
0.0
 10
-10.325640190972221
 20
65.420554606119779
 30
0.0
 10
-10.325640190972221
 20
65.420554606119779
 30
0.0
 10
-10.325640190972221
 20
63.882663981119784
 30
0.0
 10
-10.325640190972221
 20
63.882663981119784
 30
0.0
 10
-10.325640190972221
 20
63.680609130859366
 30
0.0
 10
-10.487387424045139
 20
63.518861897786451
 30
0.0
 10
-10.689442274305554
 20
63.518861897786451
 30
0.0
 10
-10.689442274305554
 20
63.518861897786451
 30
0.0
 10
-13.716992187499999
 20
63.518861897786451
 30
0.0
 10
-13.716992187499999
 20
63.518861897786451
 30
0.0
 10
-13.916807725694444
 20
63.518861897786451
 30
0.0
 10
-14.080794270833332
 20
63.680609130859366
 30
0.0
 10
-14.080794270833332
 20
63.882663981119784
 30
0.0
 10
-14.080794270833332
 20
63.882663981119784
 30
0.0
 10
-14.080794270833332
 20
65.420554606119779
 30
0.0
 10
-14.080794270833332
 20
65.420554606119779
 30
0.0
 10
-14.080794270833332
 20
65.620370144314236
 30
0.0
 10
-13.916807725694444
 20
65.786596001519086
 30
0.0
 10
-13.716992187499999
 20
65.786596001519086
 30
0.0
  0
SPLINE
  5
67
100
AcDbEntity
  8
LIVELLO_1
 62
     7
100
AcDbSpline
210
0.0
220
0.0
230
1.0
 70
     8
 71
     3
 72
    29
 73
    25
 74
     0
 42
0.00000001
 43
0.00000001
 40
0.0
 40
0.0
 40
0.0
 40
0.0
 40
1.0
 40
1.0
 40
1.0
 40
2.0
 40
2.0
 40
2.0
 40
3.0
 40
3.0
 40
3.0
 40
4.0
 40
4.0
 40
4.0
 40
5.0
 40
5.0
 40
5.0
 40
6.0
 40
6.0
 40
6.0
 40
7.0
 40
7.0
 40
7.0
 40
8.0
 40
8.0
 40
8.0
 40
8.0
 10
-13.716992187499999
 20
70.146708848741312
 30
0.0
 10
-13.716992187499999
 20
70.146708848741312
 30
0.0
 10
-10.689442274305554
 20
70.146708848741312
 30
0.0
 10
-10.689442274305554
 20
70.146708848741312
 30
0.0
 10
-10.487387424045139
 20
70.146708848741312
 30
0.0
 10
-10.325640190972221
 20
69.985133870442695
 30
0.0
 10
-10.325640190972221
 20
69.783079020182285
 30
0.0
 10
-10.325640190972221
 20
69.783079020182285
 30
0.0
 10
-10.325640190972221
 20
68.242776828342002
 30
0.0
 10
-10.325640190972221
 20
68.242776828342002
 30
0.0
 10
-10.325640190972221
 20
68.040721978081592
 30
0.0
 10
-10.487387424045139
 20
67.878974745008676
 30
0.0
 10
-10.689442274305554
 20
67.878974745008676
 30
0.0
 10
-10.689442274305554
 20
67.878974745008676
 30
0.0
 10
-13.716992187499999
 20
67.878974745008676
 30
0.0
 10
-13.716992187499999
 20
67.878974745008676
 30
0.0
 10
-13.916807725694444
 20
67.878974745008676
 30
0.0
 10
-14.080794270833332
 20
68.040721978081592
 30
0.0
 10
-14.080794270833332
 20
68.242776828342002
 30
0.0
 10
-14.080794270833332
 20
68.242776828342002
 30
0.0
 10
-14.080794270833332
 20
69.783079020182285
 30
0.0
 10
-14.080794270833332
 20
69.783079020182285
 30
0.0
 10
-14.080794270833332
 20
69.985133870442695
 30
0.0
 10
-13.916807725694444
 20
70.146708848741312
 30
0.0
 10
-13.716992187499999
 20
70.146708848741312
 30
0.0
  0
SPLINE
  5
66
100
AcDbEntity
  8
LIVELLO_1
 62
     7
100
AcDbSpline
210
0.0
220
0.0
230
1.0
 70
     8
 71
     3
 72
    29
 73
    25
 74
     0
 42
0.00000001
 43
0.00000001
 40
0.0
 40
0.0
 40
0.0
 40
0.0
 40
1.0
 40
1.0
 40
1.0
 40
2.0
 40
2.0
 40
2.0
 40
3.0
 40
3.0
 40
3.0
 40
4.0
 40
4.0
 40
4.0
 40
5.0
 40
5.0
 40
5.0
 40
6.0
 40
6.0
 40
6.0
 40
7.0
 40
7.0
 40
7.0
 40
8.0
 40
8.0
 40
8.0
 40
8.0
 10
-17.472146267361108
 20
65.786596001519086
 30
0.0
 10
-17.472146267361108
 20
65.786596001519086
 30
0.0
 10
-14.441151258680554
 20
65.786596001519086
 30
0.0
 10
-14.441151258680554
 20
65.786596001519086
 30
0.0
 10
-14.241335720486109
 20
65.786596001519086
 30
0.0
 10
-14.080794270833332
 20
65.620370144314236
 30
0.0
 10
-14.080794270833332
 20
65.420554606119779
 30
0.0
 10
-14.080794270833332
 20
65.420554606119779
 30
0.0
 10
-14.080794270833332
 20
63.882663981119784
 30
0.0
 10
-14.080794270833332
 20
63.882663981119784
 30
0.0
 10
-14.080794270833332
 20
63.680609130859366
 30
0.0
 10
-14.241335720486109
 20
63.518861897786451
 30
0.0
 10
-14.441151258680554
 20
63.518861897786451
 30
0.0
 10
-14.441151258680554
 20
63.518861897786451
 30
0.0
 10
-17.472146267361108
 20
63.518861897786451
 30
0.0
 10
-17.472146267361108
 20
63.518861897786451
 30
0.0
 10
-17.671961805555554
 20
63.518861897786451
 30
0.0
 10
-17.83250325520833
 20
63.680609130859366
 30
0.0
 10
-17.83250325520833
 20
63.882663981119784
 30
0.0
 10
-17.83250325520833
 20
63.882663981119784
 30
0.0
 10
-17.83250325520833
 20
65.420554606119779
 30
0.0
 10
-17.83250325520833
 20
65.420554606119779
 30
0.0
 10
-17.83250325520833
 20
65.620370144314236
 30
0.0
 10
-17.671961805555554
 20
65.786596001519086
 30
0.0
 10
-17.472146267361108
 20
65.786596001519086
 30
0.0
  0
SPLINE
  5
65
100
AcDbEntity
  8
LIVELLO_1
 62
     7
100
AcDbSpline
210
0.0
220
0.0
230
1.0
 70
     8
 71
     3
 72
    29
 73
    25
 74
     0
 42
0.00000001
 43
0.00000001
 40
0.0
 40
0.0
 40
0.0
 40
0.0
 40
1.0
 40
1.0
 40
1.0
 40
2.0
 40
2.0
 40
2.0
 40
3.0
 40
3.0
 40
3.0
 40
4.0
 40
4.0
 40
4.0
 40
5.0
 40
5.0
 40
5.0
 40
6.0
 40
6.0
 40
6.0
 40
7.0
 40
7.0
 40
7.0
 40
8.0
 40
8.0
 40
8.0
 40
8.0
 10
-17.472146267361108
 20
70.146708848741312
 30
0.0
 10
-17.472146267361108
 20
70.146708848741312
 30
0.0
 10
-14.441151258680554
 20
70.146708848741312
 30
0.0
 10
-14.441151258680554
 20
70.146708848741312
 30
0.0
 10
-14.241335720486109
 20
70.146708848741312
 30
0.0
 10
-14.080794270833332
 20
69.985133870442695
 30
0.0
 10
-14.080794270833332
 20
69.783079020182285
 30
0.0
 10
-14.080794270833332
 20
69.783079020182285
 30
0.0
 10
-14.080794270833332
 20
68.242776828342002
 30
0.0
 10
-14.080794270833332
 20
68.242776828342002
 30
0.0
 10
-14.080794270833332
 20
68.040721978081592
 30
0.0
 10
-14.241335720486109
 20
67.878974745008676
 30
0.0
 10
-14.441151258680554
 20
67.878974745008676
 30
0.0
 10
-14.441151258680554
 20
67.878974745008676
 30
0.0
 10
-17.472146267361108
 20
67.878974745008676
 30
0.0
 10
-17.472146267361108
 20
67.878974745008676
 30
0.0
 10
-17.671961805555554
 20
67.878974745008676
 30
0.0
 10
-17.83250325520833
 20
68.040721978081592
 30
0.0
 10
-17.83250325520833
 20
68.242776828342002
 30
0.0
 10
-17.83250325520833
 20
68.242776828342002
 30
0.0
 10
-17.83250325520833
 20
69.783079020182285
 30
0.0
 10
-17.83250325520833
 20
69.783079020182285
 30
0.0
 10
-17.83250325520833
 20
69.985133870442695
 30
0.0
 10
-17.671961805555554
 20
70.146708848741312
 30
0.0
 10
-17.472146267361108
 20
70.146708848741312
 30
0.0
  0
SPLINE
  5
64
100
AcDbEntity
  8
LIVELLO_1
 62
     7
100
AcDbSpline
210
0.0
220
0.0
230
1.0
 70
     8
 71
     3
 72
    29
 73
    25
 74
     0
 42
0.00000001
 43
0.00000001
 40
0.0
 40
0.0
 40
0.0
 40
0.0
 40
1.0
 40
1.0
 40
1.0
 40
2.0
 40
2.0
 40
2.0
 40
3.0
 40
3.0
 40
3.0
 40
4.0
 40
4.0
 40
4.0
 40
5.0
 40
5.0
 40
5.0
 40
6.0
 40
6.0
 40
6.0
 40
7.0
 40
7.0
 40
7.0
 40
8.0
 40
8.0
 40
8.0
 40
8.0
 10
-13.716992187499999
 20
67.878974745008676
 30
0.0
 10
-13.716992187499999
 20
67.878974745008676
 30
0.0
 10
-10.689442274305554
 20
67.878974745008676
 30
0.0
 10
-10.689442274305554
 20
67.878974745008676
 30
0.0
 10
-10.487387424045139
 20
67.878974745008676
 30
0.0
 10
-10.325640190972221
 20
67.717399766710059
 30
0.0
 10
-10.325640190972221
 20
67.517584228515616
 30
0.0
 10
-10.325640190972221
 20
67.517584228515616
 30
0.0
 10
-10.325640190972221
 20
66.147986518012146
 30
0.0
 10
-10.325640190972221
 20
66.147986518012146
 30
0.0
 10
-10.325640190972221
 20
65.948170979817704
 30
0.0
 10
-10.487387424045139
 20
65.786596001519086
 30
0.0
 10
-10.689442274305554
 20
65.786596001519086
 30
0.0
 10
-10.689442274305554
 20
65.786596001519086
 30
0.0
 10
-13.716992187499999
 20
65.786596001519086
 30
0.0
 10
-13.716992187499999
 20
65.786596001519086
 30
0.0
 10
-13.916807725694444
 20
65.786596001519086
 30
0.0
 10
-14.080794270833332
 20
65.948170979817704
 30
0.0
 10
-14.080794270833332
 20
66.147986518012146
 30
0.0
 10
-14.080794270833332
 20
66.147986518012146
 30
0.0
 10
-14.080794270833332
 20
67.517584228515616
 30
0.0
 10
-14.080794270833332
 20
67.517584228515616
 30
0.0
 10
-14.080794270833332
 20
67.717399766710059
 30
0.0
 10
-13.916807725694444
 20
67.878974745008676
 30
0.0
 10
-13.716992187499999
 20
67.878974745008676
 30
0.0
  0
SPLINE
  5
63
100
AcDbEntity
  8
LIVELLO_1
 62
     7
100
AcDbSpline
210
0.0
220
0.0
230
1.0
 70
     8
 71
     3
 72
    29
 73
    25
 74
     0
 42
0.00000001
 43
0.00000001
 40
0.0
 40
0.0
 40
0.0
 40
0.0
 40
1.0
 40
1.0
 40
1.0
 40
2.0
 40
2.0
 40
2.0
 40
3.0
 40
3.0
 40
3.0
 40
4.0
 40
4.0
 40
4.0
 40
5.0
 40
5.0
 40
5.0
 40
6.0
 40
6.0
 40
6.0
 40
7.0
 40
7.0
 40
7.0
 40
8.0
 40
8.0
 40
8.0
 40
8.0
 10
-17.472146267361108
 20
67.878974745008676
 30
0.0
 10
-17.472146267361108
 20
67.878974745008676
 30
0.0
 10
-14.441151258680554
 20
67.878974745008676
 30
0.0
 10
-14.441151258680554
 20
67.878974745008676
 30
0.0
 10
-14.241335720486109
 20
67.878974745008676
 30
0.0
 10
-14.080794270833332
 20
67.717399766710059
 30
0.0
 10
-14.080794270833332
 20
67.517584228515616
 30
0.0
 10
-14.080794270833332
 20
67.517584228515616
 30
0.0
 10
-14.080794270833332
 20
66.147986518012146
 30
0.0
 10
-14.080794270833332
 20
66.147986518012146
 30
0.0
 10
-14.080794270833332
 20
65.948170979817704
 30
0.0
 10
-14.241335720486109
 20
65.786596001519086
 30
0.0
 10
-14.441151258680554
 20
65.786596001519086
 30
0.0
 10
-14.441151258680554
 20
65.786596001519086
 30
0.0
 10
-17.472146267361108
 20
65.786596001519086
 30
0.0
 10
-17.472146267361108
 20
65.786596001519086
 30
0.0
 10
-17.671961805555554
 20
65.786596001519086
 30
0.0
 10
-17.83250325520833
 20
65.948170979817704
 30
0.0
 10
-17.83250325520833
 20
66.147986518012146
 30
0.0
 10
-17.83250325520833
 20
66.147986518012146
 30
0.0
 10
-17.83250325520833
 20
67.517584228515616
 30
0.0
 10
-17.83250325520833
 20
67.517584228515616
 30
0.0
 10
-17.83250325520833
 20
67.717399766710059
 30
0.0
 10
-17.671961805555554
 20
67.878974745008676
 30
0.0
 10
-17.472146267361108
 20
67.878974745008676
 30
0.0
  0
POLYLINE
  5
5D
100
AcDbEntity
  8
LIVELLO_1
 62
     7
100
AcDb2dPolyline
 66
     1
 10
0.0
 20
0.0
 30
0.0
 70
     1
  0
VERTEX
  5
5E
100
AcDbEntity
  8
LIVELLO_1
 62
     7
100
AcDbVertex
100
AcDb2dVertex
 10
-83.839155
 20
10.835428
 30
0.0
  0
VERTEX
  5
5F
100
AcDbEntity
  8
LIVELLO_1
 62
     7
100
AcDbVertex
100
AcDb2dVertex
 10
-83.839155
 20
9.016762
 30
0.0
  0
VERTEX
  5
60
100
AcDbEntity
  8
LIVELLO_1
 62
     7
100
AcDbVertex
100
AcDb2dVertex
 10
-84.56762
 20
9.016762
 30
0.0
  0
VERTEX
  5
61
100
AcDbEntity
  8
LIVELLO_1
 62
     7
100
AcDbVertex
100
AcDb2dVertex
 10
-84.56762
 20
10.835428
 30
0.0
  0
SEQEND
  5
62
100
AcDbEntity
  8
LIVELLO_1
 62
     7
  0
POLYLINE
  5
57
100
AcDbEntity
  8
LIVELLO_1
 62
     7
100
AcDb2dPolyline
 66
     1
 10
0.0
 20
0.0
 30
0.0
 70
     1
  0
VERTEX
  5
58
100
AcDbEntity
  8
LIVELLO_1
 62
     7
100
AcDbVertex
100
AcDb2dVertex
 10
-81.089796
 20
10.30764
 30
0.0
  0
VERTEX
  5
59
100
AcDbEntity
  8
LIVELLO_1
 62
     7
100
AcDbVertex
100
AcDb2dVertex
 10
-81.089796
 20
9.546618
 30
0.0
  0
VERTEX
  5
5A
100
AcDbEntity
  8
LIVELLO_1
 62
     7
100
AcDbVertex
100
AcDb2dVertex
 10
-82.680569
 20
9.546618
 30
0.0
  0
VERTEX
  5
5B
100
AcDbEntity
  8
LIVELLO_1
 62
     7
100
AcDbVertex
100
AcDb2dVertex
 10
-82.680569
 20
10.30764
 30
0.0
  0
SEQEND
  5
5C
100
AcDbEntity
  8
LIVELLO_1
 62
     7
  0
POLYLINE
  5
51
100
AcDbEntity
  8
LIVELLO_1
 62
     7
100
AcDb2dPolyline
 66
     1
 10
0.0
 20
0.0
 30
0.0
 70
     1
  0
VERTEX
  5
52
100
AcDbEntity
  8
LIVELLO_1
 62
     7
100
AcDbVertex
100
AcDb2dVertex
 10
-29.0754
 20
11.174426
 30
0.0
  0
VERTEX
  5
53
100
AcDbEntity
  8
LIVELLO_1
 62
     7
100
AcDbVertex
100
AcDb2dVertex
 10
-29.0754
 20
9.35576
 30
0.0
  0
VERTEX
  5
54
100
AcDbEntity
  8
LIVELLO_1
 62
     7
100
AcDbVertex
100
AcDb2dVertex
 10
-28.346762
 20
9.35576
 30
0.0
  0
VERTEX
  5
55
100
AcDbEntity
  8
LIVELLO_1
 62
     7
100
AcDbVertex
100
AcDb2dVertex
 10
-28.346762
 20
11.174426
 30
0.0
  0
SEQEND
  5
56
100
AcDbEntity
  8
LIVELLO_1
 62
     7
  0
POLYLINE
  5
4B
100
AcDbEntity
  8
LIVELLO_1
 62
     7
100
AcDb2dPolyline
 66
     1
 10
0.0
 20
0.0
 30
0.0
 70
     1
  0
VERTEX
  5
4C
100
AcDbEntity
  8
LIVELLO_1
 62
     7
100
AcDbVertex
100
AcDb2dVertex
 10
-31.824586
 20
10.30764
 30
0.0
  0
VERTEX
  5
4D
100
AcDbEntity
  8
LIVELLO_1
 62
     7
100
AcDbVertex
100
AcDb2dVertex
 10
-31.824586
 20
9.546618
 30
0.0
  0
VERTEX
  5
4E
100
AcDbEntity
  8
LIVELLO_1
 62
     7
100
AcDbVertex
100
AcDb2dVertex
 10
-30.13959
 20
9.546618
 30
0.0
  0
VERTEX
  5
4F
100
AcDbEntity
  8
LIVELLO_1
 62
     7
100
AcDbVertex
100
AcDb2dVertex
 10
-29.130349
 20
10.30764
 30
0.0
  0
SEQEND
  5
50
100
AcDbEntity
  8
LIVELLO_1
 62
     7
  0
SPLINE
  5
4A
100
AcDbEntity
  8
LIVELLO_1
 62
     7
100
AcDbSpline
210
0.0
220
0.0
230
1.0
 70
     8
 71
     3
 72
    71
 73
    67
 74
     0
 42
0.00000001
 43
0.00000001
 40
0.0
 40
0.0
 40
0.0
 40
0.0
 40
1.0
 40
1.0
 40
1.0
 40
2.0
 40
2.0
 40
2.0
 40
3.0
 40
3.0
 40
3.0
 40
4.0
 40
4.0
 40
4.0
 40
5.0
 40
5.0
 40
5.0
 40
6.0
 40
6.0
 40
6.0
 40
7.0
 40
7.0
 40
7.0
 40
8.0
 40
8.0
 40
8.0
 40
9.0
 40
9.0
 40
9.0
 40
10.0
 40
10.0
 40
10.0
 40
11.0
 40
11.0
 40
11.0
 40
12.0
 40
12.0
 40
12.0
 40
13.0
 40
13.0
 40
13.0
 40
14.0
 40
14.0
 40
14.0
 40
15.0
 40
15.0
 40
15.0
 40
16.0
 40
16.0
 40
16.0
 40
17.0
 40
17.0
 40
17.0
 40
18.0
 40
18.0
 40
18.0
 40
19.0
 40
19.0
 40
19.0
 40
20.0
 40
20.0
 40
20.0
 40
21.0
 40
21.0
 40
21.0
 40
22.0
 40
22.0
 40
22.0
 40
22.0
 10
-76.107671440972211
 20
-10.817341444227429
 30
0.0
 10
-76.107671440972211
 20
-10.817341444227429
 30
0.0
 10
-80.416280110677079
 20
-10.817341444227429
 30
0.0
 10
-80.416280110677079
 20
-10.817341444227429
 30
0.0
 10
-82.278698730468747
 20
-10.71846720377604
 30
0.0
 10
-83.766118706597211
 20
-9.2143385145399304
 30
0.0
 10
-83.839154730902777
 20
-7.3464077419704852
 30
0.0
 10
-83.839154730902777
 20
-7.3464077419704852
 30
0.0
 10
-83.839154730902777
 20
9.6923455132378464
 30
0.0
 10
-83.839154730902777
 20
9.6923455132378464
 30
0.0
 10
-83.839154730902777
 20
9.6923455132378464
 30
0.0
 10
-86.425560167100684
 20
13.078185356987847
 30
0.0
 10
-86.425560167100684
 20
13.078185356987847
 30
0.0
 10
-86.54562174479166
 20
13.23769327799479
 30
0.0
 10
-86.57714436848957
 20
13.403746880425347
 30
0.0
 10
-86.54562174479166
 20
13.554297553168402
 30
0.0
 10
-86.54562174479166
 20
13.554297553168402
 30
0.0
 10
-86.54562174479166
 20
22.948039415147566
 30
0.0
 10
-86.54562174479166
 20
22.948039415147566
 30
0.0
 10
-86.54562174479166
 20
22.948039415147566
 30
0.0
 10
-100.25038384331596
 20
36.655040825737842
 30
0.0
 10
-100.25038384331596
 20
36.655040825737842
 30
0.0
 10
-100.37389051649305
 20
36.738067626953125
 30
0.0
 10
-100.46811387803818
 20
36.868292236328124
 30
0.0
 10
-100.49171278211804
 20
37.052604844835066
 30
0.0
 10
-100.49171278211804
 20
37.052604844835066
 30
0.0
 10
-100.49843071831596
 20
68.489790174696168
 30
0.0
 10
-100.49843071831596
 20
68.489790174696168
 30
0.0
 10
-100.49843071831596
 20
69.284573703342005
 30
0.0
 10
-99.30746120876735
 20
69.284573703342005
 30
0.0
 10
-99.30746120876735
 20
68.489790174696168
 30
0.0
 10
-99.30746120876735
 20
68.489790174696168
 30
0.0
 10
-99.30746120876735
 20
37.393669297960066
 30
0.0
 10
-99.30746120876735
 20
37.393669297960066
 30
0.0
 10
-99.30746120876735
 20
37.393669297960066
 30
0.0
 10
-85.767719184027769
 20
23.855133056640621
 30
0.0
 10
-85.767719184027769
 20
23.855133056640621
 30
0.0
 10
-85.541031901041663
 20
23.792432318793402
 30
0.0
 10
-85.356891547309019
 20
23.601574028862846
 30
0.0
 10
-85.356891547309019
 20
23.284969753689236
 30
0.0
 10
-85.356891547309019
 20
23.284969753689236
 30
0.0
 10
-85.356891547309019
 20
13.639391411675346
 30
0.0
 10
-85.356891547309019
 20
13.639391411675346
 30
0.0
 10
-85.356891547309019
 20
13.639391411675346
 30
0.0
 10
-82.832153320312486
 20
10.334511311848958
 30
0.0
 10
-82.832153320312486
 20
10.334511311848958
 30
0.0
 10
-82.728800455729157
 20
10.202219645182291
 30
0.0
 10
-82.700722927517347
 20
10.148131646050347
 30
0.0
 10
-82.6805691189236
 20
10.094388156467012
 30
0.0
 10
-82.634577094184024
 20
9.9889682345920132
 30
0.0
 10
-82.627859157986109
 20
9.8787251790364579
 30
0.0
 10
-82.648012966579856
 20
9.7822625054253471
 30
0.0
 10
-82.648012966579856
 20
9.7822625054253471
 30
0.0
 10
-82.660415310329853
 20
-7.2251403808593739
 30
0.0
 10
-82.660415310329853
 20
-7.2251403808593739
 30
0.0
 10
-82.660415310329853
 20
-8.5563252766927071
 30
0.0
 10
-81.57934434678819
 20
-9.6387742784288193
 30
0.0
 10
-80.243336317274299
 20
-9.6387742784288193
 30
0.0
 10
-80.243336317274299
 20
-9.6387742784288193
 30
0.0
 10
-76.144706217447904
 20
-9.6387742784288193
 30
0.0
 10
-76.144706217447904
 20
-9.6387742784288193
 30
0.0
 10
-76.144706217447904
 20
-9.6387742784288193
 30
0.0
 10
-75.992088487413184
 20
-9.6342956542968743
 30
0.0
 10
-75.992088487413184
 20
-9.6342956542968743
 30
0.0
 10
-75.314093695746521
 20
-9.74178263346354
 30
0.0
 10
-75.351128472222214
 20
-10.817341444227429
 30
0.0
 10
-76.107671440972211
 20
-10.817341444227429
 30
0.0
  0
SPLINE
  5
49
100
AcDbEntity
  8
LIVELLO_1
 62
     7
100
AcDbSpline
210
0.0
220
0.0
230
1.0
 70
     8
 71
     3
 72
    71
 73
    67
 74
     0
 42
0.00000001
 43
0.00000001
 40
0.0
 40
0.0
 40
0.0
 40
0.0
 40
1.0
 40
1.0
 40
1.0
 40
2.0
 40
2.0
 40
2.0
 40
3.0
 40
3.0
 40
3.0
 40
4.0
 40
4.0
 40
4.0
 40
5.0
 40
5.0
 40
5.0
 40
6.0
 40
6.0
 40
6.0
 40
7.0
 40
7.0
 40
7.0
 40
8.0
 40
8.0
 40
8.0
 40
9.0
 40
9.0
 40
9.0
 40
10.0
 40
10.0
 40
10.0
 40
11.0
 40
11.0
 40
11.0
 40
12.0
 40
12.0
 40
12.0
 40
13.0
 40
13.0
 40
13.0
 40
14.0
 40
14.0
 40
14.0
 40
15.0
 40
15.0
 40
15.0
 40
16.0
 40
16.0
 40
16.0
 40
17.0
 40
17.0
 40
17.0
 40
18.0
 40
18.0
 40
18.0
 40
19.0
 40
19.0
 40
19.0
 40
20.0
 40
20.0
 40
20.0
 40
21.0
 40
21.0
 40
21.0
 40
22.0
 40
22.0
 40
22.0
 40
22.0
 10
-76.107671440972211
 20
-10.817341444227429
 30
0.0
 10
-76.107671440972211
 20
-10.817341444227429
 30
0.0
 10
-80.416280110677079
 20
-10.817341444227429
 30
0.0
 10
-80.416280110677079
 20
-10.817341444227429
 30
0.0
 10
-82.278698730468747
 20
-10.71846720377604
 30
0.0
 10
-83.766118706597211
 20
-9.2143385145399304
 30
0.0
 10
-83.839154730902777
 20
-7.3464077419704852
 30
0.0
 10
-83.839154730902777
 20
-7.3464077419704852
 30
0.0
 10
-83.839154730902777
 20
9.6923455132378464
 30
0.0
 10
-83.839154730902777
 20
9.6923455132378464
 30
0.0
 10
-83.839154730902777
 20
9.6923455132378464
 30
0.0
 10
-86.425560167100684
 20
13.078185356987847
 30
0.0
 10
-86.425560167100684
 20
13.078185356987847
 30
0.0
 10
-86.54562174479166
 20
13.23769327799479
 30
0.0
 10
-86.57714436848957
 20
13.403746880425347
 30
0.0
 10
-86.54562174479166
 20
13.554297553168402
 30
0.0
 10
-86.54562174479166
 20
13.554297553168402
 30
0.0
 10
-86.54562174479166
 20
22.948039415147566
 30
0.0
 10
-86.54562174479166
 20
22.948039415147566
 30
0.0
 10
-86.54562174479166
 20
22.948039415147566
 30
0.0
 10
-100.25038384331596
 20
36.655040825737842
 30
0.0
 10
-100.25038384331596
 20
36.655040825737842
 30
0.0
 10
-100.37389051649305
 20
36.738067626953125
 30
0.0
 10
-100.46811387803818
 20
36.868292236328124
 30
0.0
 10
-100.49171278211804
 20
37.052604844835066
 30
0.0
 10
-100.49171278211804
 20
37.052604844835066
 30
0.0
 10
-100.49843071831596
 20
68.489790174696168
 30
0.0
 10
-100.49843071831596
 20
68.489790174696168
 30
0.0
 10
-100.49843071831596
 20
69.284573703342005
 30
0.0
 10
-99.30746120876735
 20
69.284573703342005
 30
0.0
 10
-99.30746120876735
 20
68.489790174696168
 30
0.0
 10
-99.30746120876735
 20
68.489790174696168
 30
0.0
 10
-99.30746120876735
 20
37.393669297960066
 30
0.0
 10
-99.30746120876735
 20
37.393669297960066
 30
0.0
 10
-99.30746120876735
 20
37.393669297960066
 30
0.0
 10
-85.767719184027769
 20
23.855133056640621
 30
0.0
 10
-85.767719184027769
 20
23.855133056640621
 30
0.0
 10
-85.541031901041663
 20
23.792432318793402
 30
0.0
 10
-85.356891547309019
 20
23.601574028862846
 30
0.0
 10
-85.356891547309019
 20
23.284969753689236
 30
0.0
 10
-85.356891547309019
 20
23.284969753689236
 30
0.0
 10
-85.356891547309019
 20
13.639391411675346
 30
0.0
 10
-85.356891547309019
 20
13.639391411675346
 30
0.0
 10
-85.356891547309019
 20
13.639391411675346
 30
0.0
 10
-82.832153320312486
 20
10.334511311848958
 30
0.0
 10
-82.832153320312486
 20
10.334511311848958
 30
0.0
 10
-82.728800455729157
 20
10.202219645182291
 30
0.0
 10
-82.700722927517347
 20
10.148131646050347
 30
0.0
 10
-82.6805691189236
 20
10.094388156467012
 30
0.0
 10
-82.634577094184024
 20
9.9889682345920132
 30
0.0
 10
-82.627859157986109
 20
9.8787251790364579
 30
0.0
 10
-82.648012966579856
 20
9.7822625054253471
 30
0.0
 10
-82.648012966579856
 20
9.7822625054253471
 30
0.0
 10
-82.660415310329853
 20
-7.2251403808593739
 30
0.0
 10
-82.660415310329853
 20
-7.2251403808593739
 30
0.0
 10
-82.660415310329853
 20
-8.5563252766927071
 30
0.0
 10
-81.57934434678819
 20
-9.6387742784288193
 30
0.0
 10
-80.243336317274299
 20
-9.6387742784288193
 30
0.0
 10
-80.243336317274299
 20
-9.6387742784288193
 30
0.0
 10
-76.144706217447904
 20
-9.6387742784288193
 30
0.0
 10
-76.144706217447904
 20
-9.6387742784288193
 30
0.0
 10
-76.144706217447904
 20
-9.6387742784288193
 30
0.0
 10
-75.992088487413184
 20
-9.6342956542968743
 30
0.0
 10
-75.992088487413184
 20
-9.6342956542968743
 30
0.0
 10
-75.314093695746521
 20
-9.74178263346354
 30
0.0
 10
-75.351128472222214
 20
-10.817341444227429
 30
0.0
 10
-76.107671440972211
 20
-10.817341444227429
 30
0.0
  0
SPLINE
  5
48
100
AcDbEntity
  8
LIVELLO_1
 62
     7
100
AcDbSpline
210
0.0
220
0.0
230
1.0
 70
     8
 71
     3
 72
    71
 73
    67
 74
     0
 42
0.00000001
 43
0.00000001
 40
0.0
 40
0.0
 40
0.0
 40
0.0
 40
1.0
 40
1.0
 40
1.0
 40
2.0
 40
2.0
 40
2.0
 40
3.0
 40
3.0
 40
3.0
 40
4.0
 40
4.0
 40
4.0
 40
5.0
 40
5.0
 40
5.0
 40
6.0
 40
6.0
 40
6.0
 40
7.0
 40
7.0
 40
7.0
 40
8.0
 40
8.0
 40
8.0
 40
9.0
 40
9.0
 40
9.0
 40
10.0
 40
10.0
 40
10.0
 40
11.0
 40
11.0
 40
11.0
 40
12.0
 40
12.0
 40
12.0
 40
13.0
 40
13.0
 40
13.0
 40
14.0
 40
14.0
 40
14.0
 40
15.0
 40
15.0
 40
15.0
 40
16.0
 40
16.0
 40
16.0
 40
17.0
 40
17.0
 40
17.0
 40
18.0
 40
18.0
 40
18.0
 40
19.0
 40
19.0
 40
19.0
 40
20.0
 40
20.0
 40
20.0
 40
21.0
 40
21.0
 40
21.0
 40
22.0
 40
22.0
 40
22.0
 40
22.0
 10
-36.808950466579859
 20
-10.817341444227429
 30
0.0
 10
-36.808950466579859
 20
-10.817341444227429
 30
0.0
 10
-32.498102484809024
 20
-10.817341444227429
 30
0.0
 10
-32.498102484809024
 20
-10.817341444227429
 30
0.0
 10
-30.63792317708333
 20
-10.71846720377604
 30
0.0
 10
-29.148263888888888
 20
-9.2143385145399304
 30
0.0
 10
-29.075400119357635
 20
-7.3464077419704852
 30
0.0
 10
-29.075400119357635
 20
-7.3464077419704852
 30
0.0
 10
-29.075400119357635
 20
9.6923455132378464
 30
0.0
 10
-29.075400119357635
 20
9.6923455132378464
 30
0.0
 10
-29.075400119357635
 20
9.6923455132378464
 30
0.0
 10
-26.488822428385415
 20
13.078185356987847
 30
0.0
 10
-26.488822428385415
 20
13.078185356987847
 30
0.0
 10
-26.368760850694443
 20
13.23769327799479
 30
0.0
 10
-26.337238226996526
 20
13.403746880425347
 30
0.0
 10
-26.368760850694443
 20
13.554297553168402
 30
0.0
 10
-26.368760850694443
 20
13.554297553168402
 30
0.0
 10
-26.368760850694443
 20
22.948039415147566
 30
0.0
 10
-26.368760850694443
 20
22.948039415147566
 30
0.0
 10
-26.368760850694443
 20
22.948039415147566
 30
0.0
 10
-12.663998752170137
 20
36.655040825737842
 30
0.0
 10
-12.663998752170137
 20
36.655040825737842
 30
0.0
 10
-12.540492078993054
 20
36.738067626953125
 30
0.0
 10
-12.448508029513889
 20
36.868292236328124
 30
0.0
 10
-12.424909125434027
 20
37.052604844835066
 30
0.0
 10
-12.424909125434027
 20
37.052604844835066
 30
0.0
 10
-12.415951877170137
 20
68.489790174696168
 30
0.0
 10
-12.415951877170137
 20
68.489790174696168
 30
0.0
 10
-12.415951877170137
 20
69.284573703342005
 30
0.0
 10
-13.607093641493055
 20
69.284573703342005
 30
0.0
 10
-13.607093641493055
 20
68.489790174696168
 30
0.0
 10
-13.607093641493055
 20
68.489790174696168
 30
0.0
 10
-13.607093641493055
 20
37.393669297960066
 30
0.0
 10
-13.607093641493055
 20
37.393669297960066
 30
0.0
 10
-13.607093641493055
 20
37.393669297960066
 30
0.0
 10
-27.148902723524301
 20
23.855133056640621
 30
0.0
 10
-27.148902723524301
 20
23.855133056640621
 30
0.0
 10
-27.373522949218746
 20
23.792432318793402
 30
0.0
 10
-27.562141927083331
 20
23.601574028862846
 30
0.0
 10
-27.562141927083331
 20
23.284969753689236
 30
0.0
 10
-27.562141927083331
 20
23.284969753689236
 30
0.0
 10
-27.559730360243051
 20
13.639391411675346
 30
0.0
 10
-27.559730360243051
 20
13.639391411675346
 30
0.0
 10
-27.559730360243051
 20
13.639391411675346
 30
0.0
 10
-30.08222927517361
 20
10.334511311848958
 30
0.0
 10
-30.08222927517361
 20
10.334511311848958
 30
0.0
 10
-30.185582139756942
 20
10.202219645182291
 30
0.0
 10
-30.215898980034719
 20
10.148131646050347
 30
0.0
 10
-30.23605278862847
 20
10.094388156467012
 30
0.0
 10
-30.279805501302082
 20
9.9889682345920132
 30
0.0
 10
-30.286523437499998
 20
9.8787251790364579
 30
0.0
 10
-30.266369628906247
 20
9.7822625054253471
 30
0.0
 10
-30.266369628906247
 20
9.7822625054253471
 30
0.0
 10
-30.256378851996526
 20
-7.2251403808593739
 30
0.0
 10
-30.256378851996526
 20
-7.2251403808593739
 30
0.0
 10
-30.256378851996526
 20
-8.5563252766927071
 30
0.0
 10
-31.337277560763887
 20
-9.6387742784288193
 30
0.0
 10
-32.671046278211804
 20
-9.6387742784288193
 30
0.0
 10
-32.671046278211804
 20
-9.6387742784288193
 30
0.0
 10
-36.769676378038191
 20
-9.6387742784288193
 30
0.0
 10
-36.769676378038191
 20
-9.6387742784288193
 30
0.0
 10
-36.769676378038191
 20
-9.6387742784288193
 30
0.0
 10
-36.922294108072911
 20
-9.6342956542968743
 30
0.0
 10
-36.922294108072911
 20
-9.6342956542968743
 30
0.0
 10
-37.600288899739581
 20
-9.74178263346354
 30
0.0
 10
-37.563254123263889
 20
-10.817341444227429
 30
0.0
 10
-36.808950466579859
 20
-10.817341444227429
 30
0.0
  0
SPLINE
  5
47
100
AcDbEntity
  8
LIVELLO_1
 62
     7
100
AcDbSpline
210
0.0
220
0.0
230
1.0
 70
     8
 71
     3
 72
    71
 73
    67
 74
     0
 42
0.00000001
 43
0.00000001
 40
0.0
 40
0.0
 40
0.0
 40
0.0
 40
1.0
 40
1.0
 40
1.0
 40
2.0
 40
2.0
 40
2.0
 40
3.0
 40
3.0
 40
3.0
 40
4.0
 40
4.0
 40
4.0
 40
5.0
 40
5.0
 40
5.0
 40
6.0
 40
6.0
 40
6.0
 40
7.0
 40
7.0
 40
7.0
 40
8.0
 40
8.0
 40
8.0
 40
9.0
 40
9.0
 40
9.0
 40
10.0
 40
10.0
 40
10.0
 40
11.0
 40
11.0
 40
11.0
 40
12.0
 40
12.0
 40
12.0
 40
13.0
 40
13.0
 40
13.0
 40
14.0
 40
14.0
 40
14.0
 40
15.0
 40
15.0
 40
15.0
 40
16.0
 40
16.0
 40
16.0
 40
17.0
 40
17.0
 40
17.0
 40
18.0
 40
18.0
 40
18.0
 40
19.0
 40
19.0
 40
19.0
 40
20.0
 40
20.0
 40
20.0
 40
21.0
 40
21.0
 40
21.0
 40
22.0
 40
22.0
 40
22.0
 40
22.0
 10
-36.808950466579859
 20
-10.817341444227429
 30
0.0
 10
-36.808950466579859
 20
-10.817341444227429
 30
0.0
 10
-32.498102484809024
 20
-10.817341444227429
 30
0.0
 10
-32.498102484809024
 20
-10.817341444227429
 30
0.0
 10
-30.63792317708333
 20
-10.71846720377604
 30
0.0
 10
-29.148263888888888
 20
-9.2143385145399304
 30
0.0
 10
-29.075400119357635
 20
-7.3464077419704852
 30
0.0
 10
-29.075400119357635
 20
-7.3464077419704852
 30
0.0
 10
-29.075400119357635
 20
9.6923455132378464
 30
0.0
 10
-29.075400119357635
 20
9.6923455132378464
 30
0.0
 10
-29.075400119357635
 20
9.6923455132378464
 30
0.0
 10
-26.488822428385415
 20
13.078185356987847
 30
0.0
 10
-26.488822428385415
 20
13.078185356987847
 30
0.0
 10
-26.368760850694443
 20
13.23769327799479
 30
0.0
 10
-26.337238226996526
 20
13.403746880425347
 30
0.0
 10
-26.368760850694443
 20
13.554297553168402
 30
0.0
 10
-26.368760850694443
 20
13.554297553168402
 30
0.0
 10
-26.368760850694443
 20
22.948039415147566
 30
0.0
 10
-26.368760850694443
 20
22.948039415147566
 30
0.0
 10
-26.368760850694443
 20
22.948039415147566
 30
0.0
 10
-12.663998752170137
 20
36.655040825737842
 30
0.0
 10
-12.663998752170137
 20
36.655040825737842
 30
0.0
 10
-12.540492078993054
 20
36.738067626953125
 30
0.0
 10
-12.448508029513889
 20
36.868292236328124
 30
0.0
 10
-12.424909125434027
 20
37.052604844835066
 30
0.0
 10
-12.424909125434027
 20
37.052604844835066
 30
0.0
 10
-12.415951877170137
 20
68.489790174696168
 30
0.0
 10
-12.415951877170137
 20
68.489790174696168
 30
0.0
 10
-12.415951877170137
 20
69.284573703342005
 30
0.0
 10
-13.607093641493055
 20
69.284573703342005
 30
0.0
 10
-13.607093641493055
 20
68.489790174696168
 30
0.0
 10
-13.607093641493055
 20
68.489790174696168
 30
0.0
 10
-13.607093641493055
 20
37.393669297960066
 30
0.0
 10
-13.607093641493055
 20
37.393669297960066
 30
0.0
 10
-13.607093641493055
 20
37.393669297960066
 30
0.0
 10
-27.148902723524301
 20
23.855133056640621
 30
0.0
 10
-27.148902723524301
 20
23.855133056640621
 30
0.0
 10
-27.373522949218746
 20
23.792432318793402
 30
0.0
 10
-27.562141927083331
 20
23.601574028862846
 30
0.0
 10
-27.562141927083331
 20
23.284969753689236
 30
0.0
 10
-27.562141927083331
 20
23.284969753689236
 30
0.0
 10
-27.559730360243051
 20
13.639391411675346
 30
0.0
 10
-27.559730360243051
 20
13.639391411675346
 30
0.0
 10
-27.559730360243051
 20
13.639391411675346
 30
0.0
 10
-30.08222927517361
 20
10.334511311848958
 30
0.0
 10
-30.08222927517361
 20
10.334511311848958
 30
0.0
 10
-30.185582139756942
 20
10.202219645182291
 30
0.0
 10
-30.215898980034719
 20
10.148131646050347
 30
0.0
 10
-30.23605278862847
 20
10.094388156467012
 30
0.0
 10
-30.279805501302082
 20
9.9889682345920132
 30
0.0
 10
-30.286523437499998
 20
9.8787251790364579
 30
0.0
 10
-30.266369628906247
 20
9.7822625054253471
 30
0.0
 10
-30.266369628906247
 20
9.7822625054253471
 30
0.0
 10
-30.256378851996526
 20
-7.2251403808593739
 30
0.0
 10
-30.256378851996526
 20
-7.2251403808593739
 30
0.0
 10
-30.256378851996526
 20
-8.5563252766927071
 30
0.0
 10
-31.337277560763887
 20
-9.6387742784288193
 30
0.0
 10
-32.671046278211804
 20
-9.6387742784288193
 30
0.0
 10
-32.671046278211804
 20
-9.6387742784288193
 30
0.0
 10
-36.769676378038191
 20
-9.6387742784288193
 30
0.0
 10
-36.769676378038191
 20
-9.6387742784288193
 30
0.0
 10
-36.769676378038191
 20
-9.6387742784288193
 30
0.0
 10
-36.922294108072911
 20
-9.6342956542968743
 30
0.0
 10
-36.922294108072911
 20
-9.6342956542968743
 30
0.0
 10
-37.600288899739581
 20
-9.74178263346354
 30
0.0
 10
-37.563254123263889
 20
-10.817341444227429
 30
0.0
 10
-36.808950466579859
 20
-10.817341444227429
 30
0.0
  0
LINE
  5
46
100
AcDbEntity
  8
LIVELLO_1
 62
     7
100
AcDbLine
 10
3.008602
 20
85.822755
 30
0.0
 11
7.836903
 21
85.822755
 31
0.0
  0
LINE
  5
45
100
AcDbEntity
  8
LIVELLO_1
 62
     7
100
AcDbLine
 10
5.422236
 20
85.822755
 30
0.0
 11
5.422236
 21
81.213217
 31
0.0
  0
LINE
  5
44
100
AcDbEntity
  8
LIVELLO_1
 62
     7
100
AcDbLine
 10
5.422236
 20
72.064077
 30
0.0
 11
5.422236
 21
65.842579
 31
0.0
  0
LINE
  5
43
100
AcDbEntity
  8
LIVELLO_1
 62
     7
100
AcDbLine
 10
3.008602
 20
65.842579
 30
0.0
 11
7.836903
 21
65.842579
 31
0.0
  0
LINE
  5
42
100
AcDbEntity
  8
LIVELLO_1
 62
     7
100
AcDbLine
 10
3.074748
 20
-9.818264
 30
0.0
 11
7.903049
 21
-9.818264
 31
0.0
  0
LINE
  5
41
100
AcDbEntity
  8
LIVELLO_1
 62
     7
100
AcDbLine
 10
5.489415
 20
-1.78499
 30
0.0
 11
5.489415
 21
-9.818264
 31
0.0
  0
LINE
  5
40
100
AcDbEntity
  8
LIVELLO_1
 62
     7
100
AcDbLine
 10
5.489415
 20
16.284536
 30
0.0
 11
5.489415
 21
8.340835
 31
0.0
  0
LINE
  5
3F
100
AcDbEntity
  8
LIVELLO_1
 62
     7
100
AcDbLine
 10
3.074748
 20
16.284536
 30
0.0
 11
7.903049
 21
16.284536
 31
0.0
  0
LINE
  5
3E
100
AcDbEntity
  8
LIVELLO_1
 62
     7
100
AcDbLine
 10
3.008602
 20
16.22149
 30
0.0
 11
7.836903
 21
16.22149
 31
0.0
  0
LINE
  5
3D
100
AcDbEntity
  8
LIVELLO_1
 62
     7
100
AcDbLine
 10
5.422236
 20
38.868859
 30
0.0
 11
5.422236
 21
16.22149
 31
0.0
  0
LINE
  5
3C
100
AcDbEntity
  8
LIVELLO_1
 62
     7
100
AcDbLine
 10
5.422236
 20
65.842579
 30
0.0
 11
5.422236
 21
47.856424
 31
0.0
  0
LINE
  5
3B
100
AcDbEntity
  8
LIVELLO_1
 62
     7
100
AcDbLine
 10
3.008602
 20
65.842579
 30
0.0
 11
7.836903
 21
65.842579
 31
0.0
  0
MTEXT
  5
3A
100
AcDbEntity
  8
LIVELLO_1
 62
     7
100
AcDbMText
 10
-68.795112
 20
-94.528832
 30
0.0
 40
7.783356
 41
0.0
 71
     1
 72
     2
  1
\fArial Narrow|b0|i0;\H7.7834;\C250;\U+00D8\U+0020\U+0036\U+0030
  7
STD
210
0.0
220
0.0
230
1.0
 73
     1
 44
1.0
  0
LINE
  5
39
100
AcDbEntity
  8
LIVELLO_1
 62
     7
100
AcDbLine
 10
-14.080794
 20
97.812031
 30
0.0
 11
-14.080794
 21
102.641538
 31
0.0
  0
LINE
  5
38
100
AcDbEntity
  8
LIVELLO_1
 62
     7
100
AcDbLine
 10
-48.212217
 20
100.227905
 30
0.0
 11
-14.080794
 21
100.227905
 31
0.0
  0
LINE
  5
37
100
AcDbEntity
  8
LIVELLO_1
 62
     7
100
AcDbLine
 10
-98.835828
 20
97.812031
 30
0.0
 11
-98.835828
 21
102.641538
 31
0.0
  0
LINE
  5
36
100
AcDbEntity
  8
LIVELLO_1
 62
     7
100
AcDbLine
 10
-67.428959
 20
100.227905
 30
0.0
 11
-98.835828
 21
100.227905
 31
0.0
  0
LINE
  5
35
100
AcDbEntity
  8
LIVELLO_1
 62
     7
100
AcDbLine
 10
53.101324
 20
100.342454
 30
0.0
 11
20.550339
 21
100.342454
 31
0.0
  0
LINE
  5
34
100
AcDbEntity
  8
LIVELLO_1
 62
     7
100
AcDbLine
 10
20.550339
 20
97.92882
 30
0.0
 11
20.550339
 21
102.755916
 31
0.0
  0
LINE
  5
33
100
AcDbEntity
  8
LIVELLO_1
 62
     7
100
AcDbLine
 10
72.31221
 20
100.342454
 30
0.0
 11
105.308645
 21
100.342454
 31
0.0
  0
LINE
  5
32
100
AcDbEntity
  8
LIVELLO_1
 62
     7
100
AcDbLine
 10
105.308645
 20
97.92882
 30
0.0
 11
105.308645
 21
102.755916
 31
0.0
  0
MTEXT
  5
31
100
AcDbEntity
  8
LIVELLO_1
 62
     7
100
AcDbMText
 10
-66.579054
 20
105.264658
 30
0.0
 40
7.783356
 41
0.0
 71
     1
 72
     2
  1
\fArial Narrow|b0|i0;\H7.7834;\C7;\U+0036\U+0030\U+0030
  7
STD
210
0.0
220
0.0
230
1.0
 73
     1
 44
1.0
  0
MTEXT
  5
30
100
AcDbEntity
  8
LIVELLO_1
 62
     7
100
AcDbMText
 10
54.639214
 20
105.264658
 30
0.0
 40
7.783356
 41
0.0
 71
     1
 72
     2
  1
\fArial Narrow|b0|i0;\H7.7834;\C7;\U+0037\U+0035\U+0030
  7
STD
210
0.0
220
0.0
230
1.0
 73
     1
 44
1.0
  0
MTEXT
  5
2F
100
AcDbEntity
  8
LIVELLO_1
 62
     7
100
AcDbMText
 10
-3.298162
 20
80.347488
 30
0.0
 40
7.783356
 41
0.0
 71
     1
 72
     2
  1
\fArial Narrow|b0|i0;\H7.7834;\C7;\U+0031\U+0037\U+0035
  7
STD
210
0.0
220
0.0
230
1.0
 73
     1
 44
1.0
  0
MTEXT
  5
2E
100
AcDbEntity
  8
LIVELLO_1
 62
     7
100
AcDbMText
 10
-3.298162
 20
48.108629
 30
0.0
 40
7.783356
 41
0.0
 71
     1
 72
     2
  1
\fArial Narrow|b0|i0;\H7.7834;\C7;\U+0033\U+0033\U+0030
  7
STD
210
0.0
220
0.0
230
1.0
 73
     1
 44
1.0
  0
MTEXT
  5
2D
100
AcDbEntity
  8
LIVELLO_1
 62
     7
100
AcDbMText
 10
-3.12074
 20
8.065423
 30
0.0
 40
7.783356
 41
0.0
 71
     1
 72
     2
  1
\fArial Narrow|b0|i0;\H7.7834;\C7;\U+0031\U+0036\U+0034
  7
STD
210
0.0
220
0.0
230
1.0
 73
     1
 44
1.0
  0
SPLINE
  5
2C
100
AcDbEntity
  8
LIVELLO_1
 62
     7
100
AcDbSpline
210
0.0
220
0.0
230
1.0
 70
     8
 71
     3
 72
    35
 73
    31
 74
     0
 42
0.00000001
 43
0.00000001
 40
0.0
 40
0.0
 40
0.0
 40
0.0
 40
1.0
 40
1.0
 40
1.0
 40
2.0
 40
2.0
 40
2.0
 40
3.0
 40
3.0
 40
3.0
 40
4.0
 40
4.0
 40
4.0
 40
5.0
 40
5.0
 40
5.0
 40
6.0
 40
6.0
 40
6.0
 40
7.0
 40
7.0
 40
7.0
 40
8.0
 40
8.0
 40
8.0
 40
9.0
 40
9.0
 40
9.0
 40
10.0
 40
10.0
 40
10.0
 40
10.0
 10
-56.543146430121524
 20
88.373158772786454
 30
0.0
 10
-77.745642089843741
 20
88.373158772786454
 30
0.0
 10
-91.249382866753464
 20
86.657845730251722
 30
0.0
 10
-102.34844699435763
 20
84.807829454210065
 30
0.0
 10
-104.92934027777777
 20
84.381326633029502
 30
0.0
 10
-105.31432969835069
 20
82.513223605685752
 30
0.0
 10
-105.31432969835069
 20
81.572540283203111
 30
0.0
 10
-105.31432969835069
 20
81.572540283203111
 30
0.0
 10
-105.31432969835069
 20
64.401323106553818
 30
0.0
 10
-105.31432969835069
 20
64.401323106553818
 30
0.0
 10
-105.31432969835069
 20
63.503186713324645
 30
0.0
 10
-105.31432969835069
 20
62.189744059244788
 30
0.0
 10
-101.41224229600694
 20
61.536381700303814
 30
0.0
 10
-97.318090820312491
 20
60.851668972439228
 30
0.0
 10
-76.676973470052076
 20
57.771236843532982
 30
0.0
 10
-56.543146430121524
 20
57.771236843532982
 30
0.0
 10
-36.4103529188368
 20
57.771236843532982
 30
0.0
 10
-15.77026909722222
 20
60.851668972439228
 30
0.0
 10
-11.673878309461804
 20
61.536381700303814
 30
0.0
 10
-7.7740302191840271
 20
62.189744059244788
 30
0.0
 10
-7.7740302191840271
 20
63.503186713324645
 30
0.0
 10
-7.7740302191840271
 20
64.401323106553818
 30
0.0
 10
-7.7740302191840271
 20
64.401323106553818
 30
0.0
 10
-7.7740302191840271
 20
81.572540283203111
 30
0.0
 10
-7.7740302191840271
 20
81.572540283203111
 30
0.0
 10
-7.7740302191840271
 20
82.513223605685752
 30
0.0
 10
-8.1590196397569432
 20
84.381326633029502
 30
0.0
 10
-10.737673611111109
 20
84.807829454210065
 30
0.0
 10
-21.837943522135415
 20
86.657845730251722
 30
0.0
 10
-35.33944498697916
 20
88.373158772786454
 30
0.0
 10
-56.543146430121524
 20
88.373158772786454
 30
0.0
  0
ENDBLK
  5
147
100
AcDbEntity
  8
LIVELLO_1
100
AcDbBlockEnd
  0
ENDSEC
  0
SECTION
  2
ENTITIES
  0
INSERT
  5
2A
100
AcDbEntity
  8
LIVELLO_1
 62
     7
100
AcDbBlockReference
  2
AI9-BLK1
 10
105.480556
 20
110.236596
 30
0.0
  0
ENDSEC
  0
SECTION
  2
OBJECTS
  0
DICTIONARY
  5
19
100
AcDbDictionary
280
     0
281
     1
  3
ACAD_GROUP
350
1A
  3
ACAD_MLINESTYLE
350
1B
  3
ACAD_LAYOUT
350
1E
  3
ACAD_PLOTSETTINGS
350
22
  3
ACAD_PLOTSTYLENAME
350
1F
  3
ACAD_WIPEOUT_VARS
350
23
  0
DICTIONARY
  5
1A
102
{ACAD_REACTORS
330
19
102
}
100
AcDbDictionary
280
     0
281
     1
  0
DICTIONARY
  5
1B
102
{ACAD_REACTORS
330
19
102
}
100
AcDbDictionary
280
     0
281
     1
  3
Standard
350
1C
  0
MLINESTYLE
  5
1C
102
{ACAD_REACTORS
330
1B
102
}
100
AcDbMlineStyle
  2
Standard
 70
     0
  3

 62
     0
 51
90.0
 52
90.0
 71
     2
 49
0.5
 62
   256
  6
ByLayer
 49
-0.5
 62
   256
  6
ByLayer
  0
ACDBDICTIONARYWDFLT
  5
1F
102
{ACAD_REACTORS
330
19
102
}
100
AcDbDictionary
281
     1
  3
Normal
350
1D
100
AcDbDictionaryWithDefault
340
1D
  0
ACDBPLACEHOLDER
  5
1D
102
{ACAD_REACTORS
330
1F
102
}
  0
LAYOUT
  5
20
102
{ACAD_REACTORS
330
1E
102
}
100
AcDbPlotSettings
  1

  2

  4

  6

 40
0.0
 41
0.0
 42
0.0
 43
0.0
 44
0.0
 45
0.0
 46
0.0
 47
0.0
 48
0.0
 49
0.0
140
0.0
141
0.0
142
1.0
143
1.0
 70
  1024
 72
     0
 73
     0
 74
     0
  7

 75
     0
147
1.0
148
0.0
149
0.0
100
AcDbLayout
  1
Model
 70
     0
 71
     0
 10
0.0
 20
0.0
 11
0.0
 21
0.0
 12
0.0
 22
0.0
 32
0.0
 14
0.0
 24
0.0
 34
0.0
 15
0.0
 25
0.0
 35
0.0
146
0.0
 13
0.0
 23
0.0
 33
0.0
 16
0.0
 26
0.0
 36
0.0
 17
0.0
 27
0.0
 37
0.0
 76
     0
330
A
331
0
345
0
346
0
  0
LAYOUT
  5
21
102
{ACAD_REACTORS
330
1E
102
}
100
AcDbPlotSettings
  1

  2

  4

  6

 40
0.0
 41
0.0
 42
0.0
 43
0.0
 44
0.0
 45
0.0
 46
0.0
 47
0.0
 48
0.0
 49
0.0
140
0.0
141
0.0
142
1.0
143
1.0
 70
     0
 72
     0
 73
     0
 74
     0
  7

 75
     0
147
1.0
148
0.0
149
0.0
100
AcDbLayout
  1
Layout1
 70
     0
 71
     0
 10
0.0
 20
0.0
 11
0.0
 21
0.0
 12
0.0
 22
0.0
 32
0.0
 14
0.0
 24
0.0
 34
0.0
 15
0.0
 25
0.0
 35
0.0
146
0.0
 13
0.0
 23
0.0
 33
0.0
 16
0.0
 26
0.0
 36
0.0
 17
0.0
 27
0.0
 37
0.0
 76
     0
330
B
331
0
345
0
346
0
  0
DICTIONARY
  5
1E
102
{ACAD_REACTORS
330
19
102
}
100
AcDbDictionary
280
     0
281
     1
  3
Layout1
350
21
  3
Model
350
20
  0
DICTIONARY
  5
22
102
{ACAD_REACTORS
330
19
102
}
100
AcDbDictionary
280
     0
281
     1
  0
WIPEOUTVARIABLES
  5
23
100
AcDbWipeoutVariables
 70
     1
  0
ENDSEC
  0
EOF
