  0
SECTION
  2
HEADER
  9
$ACADVER
  1
AC1015
  9
$ACADMAINTVER
 70
     6
  9
$DWGCODEPAGE
  3
ANSI_932
  9
$INSBASE
 10
0.0
 20
0.0
 30
0.0
  9
$EXTMIN
 10
63.400609
 20
82.364309
 30
1.000000E+20
  9
$EXTMAX
 10
156.678464
 20
240.489197
 30
-1.000000E+20
  9
$LIMMIN
 10
63.400609
 20
82.364309
  9
$LIMMAX
 10
156.678464
 20
240.489197
  9
$ORTHOMODE
 70
     0
  9
$REGENMODE
 70
     1
  9
$FILLMODE
 70
     1
  9
$QTEXTMODE
 70
     0
  9
$MIRRTEXT
 70
     1
  9
$LTSCALE
 40
1.0
  9
$ATTMODE
 70
     1
  9
$TEXTSIZE
 40
0.2
  9
$TRACEWID
 40
0.05
  9
$TEXTSTYLE
  7
Standard
  9
$CLAYER
  8
0
  9
$CELTYPE
  6
Continuous
  9
$CECOLOR
 62
   256
  9
$CELTSCALE
 40
1.0
  9
$DISPSILH
 70
     0
  9
$DIMSCALE
 40
1.0
  9
$DIMASZ
 40
0.18
  9
$DIMEXO
 40
0.0625
  9
$DIMDLI
 40
0.38
  9
$DIMRND
 40
0.0
  9
$DIMDLE
 40
0.0
  9
$DIMEXE
 40
0.18
  9
$DIMTP
 40
0.0
  9
$DIMTM
 40
0.0
  9
$DIMTXT
 40
0.18
  9
$DIMCEN
 40
0.09
  9
$DIMTSZ
 40
0.0
  9
$DIMTOL
 70
     0
  9
$DIMLIM
 70
     0
  9
$DIMTIH
 70
     1
  9
$DIMTOH
 70
     1
  9
$DIMSE1
 70
     0
  9
$DIMSE2
 70
     0
  9
$DIMTAD
 70
     0
  9
$DIMZIN
 70
     0
  9
$DIMBLK
  1

  9
$DIMASO
 70
     1
  9
$DIMSHO
 70
     1
  9
$DIMPOST
  1

  9
$DIMAPOST
  1

  9
$DIMALT
 70
     0
  9
$DIMALTD
 70
     2
  9
$DIMALTF
 40
25.4
  9
$DIMLFAC
 40
1.0
  9
$DIMTOFL
 70
     0
  9
$DIMTVP
 40
0.0
  9
$DIMTIX
 70
     0
  9
$DIMSOXD
 70
     0
  9
$DIMSAH
 70
     0
  9
$DIMBLK1
  1

  9
$DIMBLK2
  1

  9
$DIMSTYLE
  2
Standard
  9
$DIMCLRD
 70
     0
  9
$DIMCLRE
 70
     0
  9
$DIMCLRT
 70
     0
  9
$DIMTFAC
 40
1.0
  9
$DIMGAP
 40
0.09
  9
$DIMJUST
 70
     0
  9
$DIMSD1
 70
     0
  9
$DIMSD2
 70
     0
  9
$DIMTOLJ
 70
     1
  9
$DIMTZIN
 70
     0
  9
$DIMALTZ
 70
     0
  9
$DIMALTTZ
 70
     0
  9
$DIMUPT
 70
     0
  9
$DIMDEC
 70
     4
  9
$DIMTDEC
 70
     4
  9
$DIMALTU
 70
     2
  9
$DIMALTTD
 70
     2
  9
$DIMTXSTY
  7
Standard
  9
$DIMAUNIT
 70
     0
  9
$DIMADEC
 70
     0
  9
$DIMALTRND
 40
0.0
  9
$DIMAZIN
 70
     0
  9
$DIMDSEP
 70
     0
  9
$DIMATFIT
 70
     3
  9
$DIMFRAC
 70
     0
  9
$DIMLDRBLK
  1

  9
$DIMLUNIT
 70
     2
  9
$DIMLWD
 70
     0
  9
$DIMLWE
 70
     0
  9
$DIMTMOVE
 70
     0
  9
$LUNITS
 70
     2
  9
$LUPREC
 70
     4
  9
$SKETCHINC
 40
0.1
  9
$FILLETRAD
 40
0.0
  9
$AUNITS
 70
     0
  9
$AUPREC
 70
     0
  9
$MENU
  1
acad
  9
$ELEVATION
 40
0.0
  9
$PELEVATION
 40
0.0
  9
$THICKNESS
 40
0.0
  9
$LIMCHECK
 70
     0
  9
$CHAMFERA
 40
0.0
  9
$CHAMFERB
 40
0.0
  9
$CHAMFERC
 40
0.0
  9
$CHAMFERD
 40
0.0
  9
$SKPOLY
 70
     0
  9
$TDCREATE
 40
0.000000000
  9
$TDUCREATE
 40
0.000000000
  9
$TDUPDATE
 40
0.000000000
  9
$TDUUPDATE
 40
0.000000000
  9
$TDINDWG
 40
0.0000000000
  9
$TDUSRTIMER
 40
0.0000000000
  9
$USRTIMER
 70
     1
  9
$ANGBASE
 50
0.0
  9
$ANGDIR
 70
     0
  9
$PDMODE
 70
     0
  9
$PDSIZE
 40
0.0
  9
$PLINEWID
 40
0.0
  9
$SPLFRAME
 70
     0
  9
$SPLINETYPE
 70
     6
  9
$SPLINESEGS
 70
     8
  9
$HANDSEED
  5
11E
  9
$SURFTAB1
 70
     6
  9
$SURFTAB2
 70
     6
  9
$SURFTYPE
 70
     6
  9
$SURFU
 70
     6
  9
$SURFV
 70
     6
  9
$UCSBASE
  2

  9
$UCSNAME
  2

  9
$UCSORG
 10
0.0
 20
0.0
 30
0.0
  9
$UCSXDIR
 10
1.0
 20
0.0
 30
0.0
  9
$UCSYDIR
 10
0.0
 20
1.0
 30
0.0
  9
$UCSORTHOREF
  2

  9
$UCSORTHOVIEW
 70
     0
  9
$UCSORGTOP
 10
0.0
 20
0.0
 30
0.0
  9
$UCSORGBOTTOM
 10
0.0
 20
0.0
 30
0.0
  9
$UCSORGLEFT
 10
0.0
 20
0.0
 30
0.0
  9
$UCSORGRIGHT
 10
0.0
 20
0.0
 30
0.0
  9
$UCSORGFRONT
 10
0.0
 20
0.0
 30
0.0
  9
$UCSORGBACK
 10
0.0
 20
0.0
 30
0.0
  9
$PUCSBASE
  2

  9
$PUCSNAME
  2

  9
$PUCSORG
 10
0.0
 20
0.0
 30
0.0
  9
$PUCSXDIR
 10
1.0
 20
0.0
 30
0.0
  9
$PUCSYDIR
 10
0.0
 20
1.0
 30
0.0
  9
$PUCSORTHOREF
  2

  9
$PUCSORTHOVIEW
 70
     0
  9
$PUCSORGTOP
 10
0.0
 20
0.0
 30
0.0
  9
$PUCSORGBOTTOM
 10
0.0
 20
0.0
 30
0.0
  9
$PUCSORGLEFT
 10
0.0
 20
0.0
 30
0.0
  9
$PUCSORGRIGHT
 10
0.0
 20
0.0
 30
0.0
  9
$PUCSORGFRONT
 10
0.0
 20
0.0
 30
0.0
  9
$PUCSORGBACK
 10
0.0
 20
0.0
 30
0.0
  9
$USERI1
 70
     0
  9
$USERI2
 70
     0
  9
$USERI3
 70
     0
  9
$USERI4
 70
     0
  9
$USERI5
 70
     0
  9
$USERR1
 40
0.0
  9
$USERR2
 40
0.0
  9
$USERR3
 40
0.0
  9
$USERR4
 40
0.0
  9
$USERR5
 40
0.0
  9
$WORLDVIEW
 70
     1
  9
$SHADEDGE
 70
     3
  9
$SHADEDIF
 70
    70
  9
$TILEMODE
 70
     1
  9
$MAXACTVP
 70
    16
  9
$PINSBASE
 10
0.0
 20
0.0
 30
0.0
  9
$PLIMCHECK
 70
     0
  9
$PEXTMIN
 10
1.000000E+20
 20
1.000000E+20
 30
1.000000E+20
  9
$PEXTMAX
 10
-1.000000E+20
 20
-1.000000E+20
 30
-1.000000E+20
  9
$PLIMMIN
 10
0.0
 20
0.0
  9
$PLIMMAX
 10
12.0
 20
9.0
  9
$UNITMODE
 70
     0
  9
$VISRETAIN
 70
     0
  9
$PLINEGEN
 70
     1
  9
$PSLTSCALE
 70
     0
  9
$TREEDEPTH
 70
  3020
  9
$CMLSTYLE
  2
Standard
  9
$CMLJUST
 70
     0
  9
$CMLSCALE
 40
1.0
  9
$PROXYGRAPHICS
 70
     0
  9
$MEASUREMENT
 70
     1
  9
$CELWEIGHT
370
     0
  9
$ENDCAPS
280
     0
  9
$JOINSTYLE
280
     0
  9
$LWDISPLAY
290
     0
  9
$INSUNITS
 70
     0
  9
$HYPERLINKBASE
  1

  9
$STYLESHEET
  1

  9
$XEDIT
290
     1
  9
$CEPSNTYPE
380
     0
  9
$PSTYLEMODE
290
     1
  9
$FINGERPRINTGUID
  2

  9
$VERSIONGUID
  2

  9
$EXTNAMES
290
     1
  9
$PSVPSCALE
 40
0.0
  0
ENDSEC
  0
SECTION
  2
CLASSES
  0
CLASS
  1
LWPOLYLINE
  2
AcDbPolyline
  3
AutoCAD 2000
 90
    32768
280
     0
281
     1
  0
CLASS
  1
IMAGE
  2
AcDbRasterImage
  3
ISM
 90
    32895
280
     0
281
     1
  0
CLASS
  1
OLE2FRAME
  2
AcDbOle2Frame
  3
AutoCAD 2000
 90
    32768
280
     0
281
     1
  0
CLASS
  1
HATCH
  2
AcDbHatch
  3
AutoCAD 2000
 90
    32768
280
     0
281
     1
  0
CLASS
  1
DICTIONARYVAR
  2
AcDbDictionaryVar
  3
AutoCAD 2000
 90
    32768
280
     0
281
     0
  0
CLASS
  1
RASTERVARIABLES
  2
AcDbRasterVariables
  3
ISM
 90
    32768
280
     0
281
     0
  0
CLASS
  1
IMAGEDEF
  2
AcDbRasterImageDef
  3
ISM
 90
    32768
280
     0
281
     0
  0
CLASS
  1
IMAGEDEF_REACTOR
  2
AcDbRasterImageDefReactor
  3
ISM
 90
    32769
280
     0
281
     0
  0
CLASS
  1
IDBUFFER
  2
AcDbIdBuffer
  3
AutoCAD 2000
 90
    32768
280
     0
281
     0
  0
CLASS
  1
SPATIAL_FILTER
  2
AcDbSpatialFilter
  3
AutoCAD 2000
 90
    32768
280
     0
281
     0
  0
CLASS
  1
XRECORD
  2
AcDbXrecord
  3
AutoCAD 2000
 90
    32768
280
     0
281
     0
  0
CLASS
  1
SORTENTSTABLE
  2
AcDbSortentsTable
  3
AutoCAD 2000
 90
    32768
280
     0
281
     0
  0
CLASS
  1
LAYER_INDEX
  2
AcDbLayerIndex
  3
AutoCAD 2000
 90
    32768
280
     0
281
     0
  0
CLASS
  1
SPATIAL_INDEX
  2
AcDbSpatialIndex
  3
AutoCAD 2000
 90
    32768
280
     0
281
     0
  0
CLASS
  1
OBJECT_PTR
  2
CAseDLPNTableRecord
  3
"ASE-LPNTableRecord"
 90
    32769
280
     0
281
     0
  0
CLASS
  1
LAYOUT
  2
AcDbLayout
  3
AutoCAD 2000
 90
        0
280
     0
281
     0
  0
CLASS
  1
PLOTSETTINGS
  2
AcDbPlotSettings
  3
AutoCAD 2000
 90
    32768
280
     0
281
     0
  0
CLASS
  1
ACDBDICTIONARYWDFLT
  2
AcDbDictionaryWithDefault
  3
AutoCAD 2000
 90
        0
280
     0
281
     0
  0
CLASS
  1
ACDBPLACEHOLDER
  2
AcDbPlaceHolder
  3
AutoCAD 2000
 90
        0
280
     0
281
     0
  0
CLASS
  1
VBA_PROJECT
  2
AcDbVbaProject
  3
acadvba
 90
    32768
280
     0
281
     0
  0
CLASS
  1
WIPEOUT
  2
AcDbWipeout
  3
WipeOut|AutoCAD Express Tool|expresstools@autodesk.com
 90
    32895
280
     0
281
     1
  0
CLASS
  1
WIPEOUTVARIABLES
  2
AcDbWipeoutVariables
  3
WipeOut|AutoCAD Express Tool|expresstools@autodesk.com
 90
        0
280
     0
281
     0
  0
CLASS
  1
RTEXT
  2
RText
  3
RText|AutoCAD Express Tool|expresstools@autodesk.com
 90
    32768
280
     0
281
     1
  0
CLASS
  1
ARCALIGNEDTEXT
  2
AcDbArcAlignedText
  3
ATEXT|AutoCAD Express Tool|expresstools@autodesk.com
 90
    32768
280
     0
281
     1
  0
ENDSEC
  0
SECTION
  2
TABLES
  0
TABLE
  2
VPORT
  5
7
100
AcDbSymbolTable
 70
     1
  0
VPORT
  5
15
100
AcDbSymbolTableRecord
100
AcDbViewportTableRecord
  2
*ACTIVE
 70
     0
 10
0.0
 20
0.0
 11
1.0
 21
1.0
 12
6.591288
 22
4.579184
 13
0.0
 23
0.0
 14
1.0
 24
1.0
 15
0.0
 25
0.0
 16
0.0
 26
0.0
 36
1.0
 17
0.0
 27
0.0
 37
0.0
 40
9.158369
 41
0.688564
 42
50.0
 43
0.0
 44
0.0
 50
0.0
 51
0.0
 71
     0
 72
   100
 73
     1
 74
     1
 75
     0
 76
     0
 77
     0
 78
     0
281
     0
 65
     0
110
0.0
120
0.0
130
0.0
111
1.0
121
0.0
131
0.0
112
0.0
122
1.0
132
0.0
345
0
346
0
 79
     0
146
0.0
  0
ENDTAB
  0
TABLE
  2
LTYPE
  5
4
100
AcDbSymbolTable
 70
     3
  0
LTYPE
  5
11
100
AcDbSymbolTableRecord
100
AcDbLinetypeTableRecord
  2
ByBlock
 70
    64
  3

 72
    65
 73
     0
 40
0.0
  0
LTYPE
  5
12
100
AcDbSymbolTableRecord
100
AcDbLinetypeTableRecord
  2
ByLayer
 70
    64
  3

 72
    65
 73
     0
 40
0.0
  0
LTYPE
  5
13
100
AcDbSymbolTableRecord
100
AcDbLinetypeTableRecord
  2
Continuous
 70
    64
  3
Solid line
 72
    65
 73
     0
 40
0.0
  0
ENDTAB
  0
TABLE
  2
LAYER
  5
2
100
AcDbSymbolTable
 70
     2
  0
LAYER
  5
14
100
AcDbSymbolTableRecord
100
AcDbLayerTableRecord
  2
0
 70
     0
 62
     7
  6
Continuous
290
     1
370
    -3
390
1D
  0
LAYER
  5
28
100
AcDbSymbolTableRecord
100
AcDbLayerTableRecord
  2
LIVELLO_1
 70
     0
 62
   160
  6
Continuous
290
     1
370
    -3
390
1D
  0
ENDTAB
  0
TABLE
  2
STYLE
  5
3
100
AcDbSymbolTable
 70
     5
  0
STYLE
  5
17
100
AcDbSymbolTableRecord
100
AcDbTextStyleTableRecord
  2
Standard
 70
     0
 40
0.0
 41
1.0
 50
0.0
 71
     0
 42
0.0
  3
txt
  4

  0
STYLE
  5
24
100
AcDbSymbolTableRecord
100
AcDbTextStyleTableRecord
  2
STD
 70
     0
 40
0.0
 41
1.0
 50
0.0
 71
     0
 42
0.0
  3
txt
  4

  0
STYLE
  5
25
100
AcDbSymbolTableRecord
100
AcDbTextStyleTableRecord
  2
TATESTD
 70
     4
 40
0.0
 41
1.0
 50
0.0
 71
     0
 42
0.0
  3
txt
  4

  0
STYLE
  5
26
100
AcDbSymbolTableRecord
100
AcDbTextStyleTableRecord
  2
KANJISTD
 70
     0
 40
0.0
 41
1.0
 50
0.0
 71
     0
 42
0.0
  3
txt
  4
extfont
  0
STYLE
  5
27
100
AcDbSymbolTableRecord
100
AcDbTextStyleTableRecord
  2
KANJITATE
 70
     4
 40
0.0
 41
1.0
 50
0.0
 71
     0
 42
0.0
  3
txt
  4
extfont
  0
ENDTAB
  0
TABLE
  2
VIEW
  5
5
100
AcDbSymbolTable
 70
     0
  0
ENDTAB
  0
TABLE
  2
UCS
  5
6
100
AcDbSymbolTable
 70
     0
  0
ENDTAB
  0
TABLE
  2
APPID
  5
8
100
AcDbSymbolTable
 70
     1
  0
APPID
  5
16
100
AcDbSymbolTableRecord
100
AcDbRegAppTableRecord
  2
ACAD
 70
     0
  0
ENDTAB
  0
TABLE
  2
DIMSTYLE
  5
9
100
AcDbSymbolTable
 70
     1
100
AcDbDimStyleTable
 71
     0
  0
DIMSTYLE
105
18
100
AcDbSymbolTableRecord
100
AcDbDimStyleTableRecord
  2
Standard
 70
     0
  3

  4

 40
1.0
 41
0.18
 42
0.0625
 43
0.38
 44
0.18
 45
0.0
 46
0.0
 47
0.0
 48
0.0
 71
     0
 72
     0
 73
     1
 74
     1
 75
     0
 76
     0
 77
     0
 78
     0
 79
     0
140
0.18
141
0.09
142
0.0
143
25.4
144
1.0
145
0.0
146
1.0
147
0.09
148
0.0
170
     0
171
     2
172
     0
173
     0
174
     0
175
     0
176
     0
177
     0
178
     0
179
     0
271
     4
272
     4
273
     2
274
     2
275
     0
276
     0
277
     2
278
    46
279
     0
280
     0
281
     0
282
     0
283
     1
284
     0
285
     0
286
     0
288
     0
340
17
341
0
342
0
343
0
344
0
371
    -2
372
    -2
  0
ENDTAB
  0
TABLE
  2
BLOCK_RECORD
  5
1
100
AcDbSymbolTable
 70
     5
  0
BLOCK_RECORD
  5
A
100
AcDbSymbolTableRecord
100
AcDbBlockTableRecord
  2
*MODEL_SPACE
340
20
  0
BLOCK_RECORD
  5
B
100
AcDbSymbolTableRecord
100
AcDbBlockTableRecord
  2
*PAPER_SPACE
340
21
  0
BLOCK_RECORD
  5
2A
100
AcDbSymbolTableRecord
100
AcDbBlockTableRecord
  2
AI9-BLK1
340
0
102
{BLKREFS
331
2B
102
}
  0
BLOCK_RECORD
  5
BC
100
AcDbSymbolTableRecord
100
AcDbBlockTableRecord
  2
AI9-BLK2
340
0
102
{BLKREFS
331
BD
102
}
  0
BLOCK_RECORD
  5
F8
100
AcDbSymbolTableRecord
100
AcDbBlockTableRecord
  2
AI9-BLK3
340
0
102
{BLKREFS
331
F9
102
}
  0
BLOCK_RECORD
  5
107
100
AcDbSymbolTableRecord
100
AcDbBlockTableRecord
  2
AI9-BLK4
340
0
102
{BLKREFS
331
108
102
}
  0
BLOCK_RECORD
  5
10A
100
AcDbSymbolTableRecord
100
AcDbBlockTableRecord
  2
AI9-BLK5
340
0
102
{BLKREFS
331
10B
102
}
  0
ENDTAB
  0
ENDSEC
  0
SECTION
  2
BLOCKS
  0
BLOCK
  5
D
100
AcDbEntity
  8
0
100
AcDbBlockBegin
  2
*MODEL_SPACE
 70
     0
 10
0.0
 20
0.0
 30
0.0
  3
*MODEL_SPACE
  1

  0
ENDBLK
  5
E
100
AcDbEntity
  8
0
100
AcDbBlockEnd
  0
BLOCK
  5
F
100
AcDbEntity
 67
     1
  8
0
100
AcDbBlockBegin
  2
*PAPER_SPACE
 70
     0
 10
0.0
 20
0.0
 30
0.0
  3
*PAPER_SPACE
  1

  0
ENDBLK
  5
10
100
AcDbEntity
 67
     1
  8
0
100
AcDbBlockEnd
  0
BLOCK
  5
2C
100
AcDbEntity
  8
LIVELLO_1
 62
     7
100
AcDbBlockBegin
  2
AI9-BLK1
 70
     0
 10
0.0
 20
0.0
 30
0.0
  3
AI9-BLK1
  1

  0
LINE
  5
11C
100
AcDbEntity
  8
LIVELLO_1
 62
     7
100
AcDbLine
 10
-22.842619
 20
-74.264804
 30
0.0
 11
-30.536034
 21
-74.264804
 31
0.0
  0
LINE
  5
11B
100
AcDbEntity
  8
LIVELLO_1
 62
     7
100
AcDbLine
 10
8.202686
 20
-74.264804
 30
0.0
 11
0.397478
 21
-74.264804
 31
0.0
  0
LINE
  5
11A
100
AcDbEntity
  8
LIVELLO_1
 62
     7
100
AcDbLine
 10
-30.713457
 20
-79.062444
 30
0.0
 11
-30.713457
 21
-69.728647
 31
0.0
  0
LINE
  5
119
100
AcDbEntity
  8
LIVELLO_1
 62
     7
100
AcDbLine
 10
8.534104
 20
-79.058999
 30
0.0
 11
8.534104
 21
-69.72589
 31
0.0
  0
LINE
  5
118
100
AcDbEntity
  8
LIVELLO_1
 62
     7
100
AcDbLine
 10
31.704783
 20
9.122871
 30
0.0
 11
41.037202
 21
9.122871
 31
0.0
  0
LINE
  5
117
100
AcDbEntity
  8
LIVELLO_1
 62
     7
100
AcDbLine
 10
36.371509
 20
9.122871
 30
0.0
 11
36.371509
 21
-8.273483
 31
0.0
  0
LINE
  5
116
100
AcDbEntity
  8
LIVELLO_1
 62
     7
100
AcDbLine
 10
36.371509
 20
-23.43931
 30
0.0
 11
36.371509
 21
-47.402361
 31
0.0
  0
LINE
  5
115
100
AcDbEntity
  8
LIVELLO_1
 62
     7
100
AcDbLine
 10
31.704783
 20
-47.402361
 30
0.0
 11
41.037202
 21
-47.402361
 31
0.0
  0
LINE
  5
114
100
AcDbEntity
  8
LIVELLO_1
 62
     7
100
AcDbLine
 10
10.678676
 20
19.164808
 30
0.0
 11
10.678676
 21
28.498088
 31
0.0
  0
LINE
  5
113
100
AcDbEntity
  8
LIVELLO_1
 62
     7
100
AcDbLine
 10
-32.744685
 20
19.160157
 30
0.0
 11
-32.744685
 21
28.49361
 31
0.0
  0
MTEXT
  5
112
100
AcDbEntity
  8
LIVELLO_1
 62
     7
100
AcDbMText
 10
-23.219685
 20
29.24774
 30
0.0
 40
7.349421
 41
0.0
 71
     1
 72
     2
  1
\fCourier|b0|i0;\H7.3494;\C7;\U+00F8\U+0020\U+0038\U+0031
  7
STD
210
0.0
220
0.0
230
1.0
 73
     1
 44
1.0
  0
LINE
  5
111
100
AcDbEntity
  8
LIVELLO_1
 62
     7
100
AcDbLine
 10
10.351048
 20
23.957452
 30
0.0
 11
2.521379
 21
23.957452
 31
0.0
  0
LINE
  5
110
100
AcDbEntity
  8
LIVELLO_1
 62
     7
100
AcDbLine
 10
-24.85111
 20
23.957452
 30
0.0
 11
-32.566918
 21
23.957452
 31
0.0
  0
INSERT
  5
F9
100
AcDbEntity
  8
LIVELLO_1
 62
     7
100
AcDbBlockReference
  2
AI9-BLK3
 10
-11.146434
 20
-27.422788
 30
0.0
  0
INSERT
  5
BD
100
AcDbEntity
  8
LIVELLO_1
 62
     7
100
AcDbBlockReference
  2
AI9-BLK2
 10
-12.628428
 20
-55.677308
 30
0.0
  0
LINE
  5
BB
100
AcDbEntity
  8
LIVELLO_1
 62
     7
100
AcDbLine
 10
9.588304
 20
9.122871
 30
0.0
 11
24.347782
 21
9.122871
 31
0.0
  0
LINE
  5
BA
100
AcDbEntity
  8
LIVELLO_1
 62
     7
100
AcDbLine
 10
-31.770929
 20
9.122871
 30
0.0
 11
-46.528684
 21
9.122871
 31
0.0
  0
SPLINE
  5
B9
100
AcDbEntity
  8
LIVELLO_1
 62
     7
100
AcDbSpline
210
0.0
220
0.0
230
1.0
 70
     8
 71
     3
 72
    47
 73
    43
 74
     0
 42
0.00000001
 43
0.00000001
 40
0.0
 40
0.0
 40
0.0
 40
0.0
 40
1.0
 40
1.0
 40
1.0
 40
2.0
 40
2.0
 40
2.0
 40
3.0
 40
3.0
 40
3.0
 40
4.0
 40
4.0
 40
4.0
 40
5.0
 40
5.0
 40
5.0
 40
6.0
 40
6.0
 40
6.0
 40
7.0
 40
7.0
 40
7.0
 40
8.0
 40
8.0
 40
8.0
 40
9.0
 40
9.0
 40
9.0
 40
10.0
 40
10.0
 40
10.0
 40
11.0
 40
11.0
 40
11.0
 40
12.0
 40
12.0
 40
12.0
 40
13.0
 40
13.0
 40
13.0
 40
14.0
 40
14.0
 40
14.0
 40
14.0
 10
3.128405083550347
 20
-0.4262444390190972
 30
0.0
 10
3.128405083550347
 20
-0.4262444390190972
 30
0.0
 10
3.128405083550347
 20
-2.2075310601128471
 30
0.0
 10
3.128405083550347
 20
-2.2075310601128471
 30
0.0
 10
3.128405083550347
 20
-2.2075310601128471
 30
0.0
 10
5.5906148274739582
 20
-2.2063252766927079
 30
0.0
 10
5.5906148274739582
 20
-2.2063252766927079
 30
0.0
 10
6.1590555826822913
 20
-2.2063252766927079
 30
0.0
 10
6.6203538682725691
 20
-2.6674513075086801
 30
0.0
 10
6.6203538682725691
 20
-3.2383036295572913
 30
0.0
 10
6.6203538682725691
 20
-3.2383036295572913
 30
0.0
 10
6.6203538682725691
 20
-8.8303826226128468
 30
0.0
 10
6.6203538682725691
 20
-8.8303826226128468
 30
0.0
 10
6.6203538682725691
 20
-8.8303826226128468
 30
0.0
 10
8.5323818630642361
 20
-8.8303826226128468
 30
0.0
 10
8.5323818630642361
 20
-8.8303826226128468
 30
0.0
 10
8.5323818630642361
 20
-8.8303826226128468
 30
0.0
 10
8.5323818630642361
 20
-2.2075310601128471
 30
0.0
 10
8.5323818630642361
 20
-2.2075310601128471
 30
0.0
 10
8.5323818630642361
 20
-2.2075310601128471
 30
0.0
 10
10.947393798828124
 20
-2.2075310601128471
 30
0.0
 10
10.947393798828124
 20
-2.2075310601128471
 30
0.0
 10
10.947393798828124
 20
-2.2075310601128471
 30
0.0
 10
10.947393798828124
 20
-0.8172627766927083
 30
0.0
 10
10.947393798828124
 20
-0.8172627766927083
 30
0.0
 10
10.947393798828124
 20
-0.8172627766927083
 30
0.0
 10
10.623210313585069
 20
-0.8172627766927083
 30
0.0
 10
10.623210313585069
 20
-0.8172627766927083
 30
0.0
 10
10.129528130425346
 20
-0.8172627766927083
 30
0.0
 10
9.7181837293836804
 20
-0.4682746039496528
 30
0.0
 10
9.6155198838975693
 20
-0.005426025390625
 30
0.0
 10
9.6155198838975693
 20
-0.005426025390625
 30
0.0
 10
9.5900261773003468
 20
9.12287122938368
 30
0.0
 10
9.5900261773003468
 20
9.12287122938368
 30
0.0
 10
9.5900261773003468
 20
9.12287122938368
 30
0.0
 10
8.5323818630642361
 20
9.12287122938368
 30
0.0
 10
8.5323818630642361
 20
9.12287122938368
 30
0.0
 10
8.5323818630642361
 20
9.12287122938368
 30
0.0
 10
8.5323818630642361
 20
-0.4262444390190972
 30
0.0
 10
8.5323818630642361
 20
-0.4262444390190972
 30
0.0
 10
8.5323818630642361
 20
-0.4262444390190972
 30
0.0
 10
3.128405083550347
 20
-0.4262444390190972
 30
0.0
 10
3.128405083550347
 20
-0.4262444390190972
 30
0.0
  0
SPLINE
  5
B8
100
AcDbEntity
  8
LIVELLO_1
 62
     7
100
AcDbSpline
210
0.0
220
0.0
230
1.0
 70
     8
 71
     3
 72
    47
 73
    43
 74
     0
 42
0.00000001
 43
0.00000001
 40
0.0
 40
0.0
 40
0.0
 40
0.0
 40
1.0
 40
1.0
 40
1.0
 40
2.0
 40
2.0
 40
2.0
 40
3.0
 40
3.0
 40
3.0
 40
4.0
 40
4.0
 40
4.0
 40
5.0
 40
5.0
 40
5.0
 40
6.0
 40
6.0
 40
6.0
 40
7.0
 40
7.0
 40
7.0
 40
8.0
 40
8.0
 40
8.0
 40
9.0
 40
9.0
 40
9.0
 40
10.0
 40
10.0
 40
10.0
 40
11.0
 40
11.0
 40
11.0
 40
12.0
 40
12.0
 40
12.0
 40
13.0
 40
13.0
 40
13.0
 40
14.0
 40
14.0
 40
14.0
 40
14.0
 10
-25.309480116102428
 20
-0.4262444390190972
 30
0.0
 10
-25.309480116102428
 20
-0.4262444390190972
 30
0.0
 10
-25.309480116102428
 20
-2.2075310601128471
 30
0.0
 10
-25.309480116102428
 20
-2.2075310601128471
 30
0.0
 10
-25.309480116102428
 20
-2.2075310601128471
 30
0.0
 10
-27.769795057508677
 20
-2.2063252766927079
 30
0.0
 10
-27.769795057508677
 20
-2.2063252766927079
 30
0.0
 10
-28.339786105685761
 20
-2.2063252766927079
 30
0.0
 10
-28.801256646050344
 20
-2.6674513075086801
 30
0.0
 10
-28.801256646050344
 20
-3.2383036295572913
 30
0.0
 10
-28.801256646050344
 20
-3.2383036295572913
 30
0.0
 10
-28.801256646050344
 20
-8.8303826226128468
 30
0.0
 10
-28.801256646050344
 20
-8.8303826226128468
 30
0.0
 10
-28.801256646050344
 20
-8.8303826226128468
 30
0.0
 10
-30.713456895616318
 20
-8.8303826226128468
 30
0.0
 10
-30.713456895616318
 20
-8.8303826226128468
 30
0.0
 10
-30.713456895616318
 20
-8.8303826226128468
 30
0.0
 10
-30.713456895616318
 20
-2.2075310601128471
 30
0.0
 10
-30.713456895616318
 20
-2.2075310601128471
 30
0.0
 10
-30.713456895616318
 20
-2.2075310601128471
 30
0.0
 10
-33.127090793185758
 20
-2.2075310601128471
 30
0.0
 10
-33.127090793185758
 20
-2.2075310601128471
 30
0.0
 10
-33.127090793185758
 20
-2.2075310601128471
 30
0.0
 10
-33.127090793185758
 20
-0.8172627766927083
 30
0.0
 10
-33.127090793185758
 20
-0.8172627766927083
 30
0.0
 10
-33.127090793185758
 20
-0.8172627766927083
 30
0.0
 10
-32.804113091362844
 20
-0.8172627766927083
 30
0.0
 10
-32.804113091362844
 20
-0.8172627766927083
 30
0.0
 10
-32.310430908203124
 20
-0.8172627766927083
 30
0.0
 10
-31.897536214192705
 20
-0.4682746039496528
 30
0.0
 10
-31.796078152126732
 20
-0.005426025390625
 30
0.0
 10
-31.796078152126732
 20
-0.005426025390625
 30
0.0
 10
-31.769206407335066
 20
9.12287122938368
 30
0.0
 10
-31.769206407335066
 20
9.12287122938368
 30
0.0
 10
-31.769206407335066
 20
9.12287122938368
 30
0.0
 10
-30.713456895616318
 20
9.12287122938368
 30
0.0
 10
-30.713456895616318
 20
9.12287122938368
 30
0.0
 10
-30.713456895616318
 20
9.12287122938368
 30
0.0
 10
-30.713456895616318
 20
-0.4262444390190972
 30
0.0
 10
-30.713456895616318
 20
-0.4262444390190972
 30
0.0
 10
-30.713456895616318
 20
-0.4262444390190972
 30
0.0
 10
-25.309480116102428
 20
-0.4262444390190972
 30
0.0
 10
-25.309480116102428
 20
-0.4262444390190972
 30
0.0
  0
LINE
  5
B7
100
AcDbEntity
  8
LIVELLO_1
 62
     7
100
AcDbLine
 10
-4.351242
 20
-0.426244
 30
0.0
 11
-7.513323
 21
-0.426244
 31
0.0
  0
LINE
  5
B6
100
AcDbEntity
  8
LIVELLO_1
 62
     7
100
AcDbLine
 10
-17.828111
 20
-0.426244
 30
0.0
 11
-14.666202
 21
-0.426244
 31
0.0
  0
SPLINE
  5
B5
100
AcDbEntity
  8
LIVELLO_1
 62
     7
100
AcDbSpline
210
0.0
220
0.0
230
1.0
 70
     8
 71
     3
 72
    20
 73
    16
 74
     0
 42
0.00000001
 43
0.00000001
 40
0.0
 40
0.0
 40
0.0
 40
0.0
 40
1.0
 40
1.0
 40
1.0
 40
2.0
 40
2.0
 40
2.0
 40
3.0
 40
3.0
 40
3.0
 40
4.0
 40
4.0
 40
4.0
 40
5.0
 40
5.0
 40
5.0
 40
5.0
 10
-8.2366204155815961
 20
-25.354094102647569
 30
0.0
 10
-8.2366204155815961
 20
-25.354094102647569
 30
0.0
 10
-8.2438551161024289
 20
-25.562177870008679
 30
0.0
 10
-8.2438551161024289
 20
-25.562177870008679
 30
0.0
 10
-8.2438551161024289
 20
-26.133030192057291
 30
0.0
 10
-8.6794874403211804
 20
-26.595706515842011
 30
0.0
 10
-9.2494784884982639
 20
-26.595706515842011
 30
0.0
 10
-9.2494784884982639
 20
-26.595706515842011
 30
0.0
 10
-12.942448594835069
 20
-26.595706515842011
 30
0.0
 10
-12.942448594835069
 20
-26.595706515842011
 30
0.0
 10
-13.509339057074651
 20
-26.595706515842011
 30
0.0
 10
-13.947382948133679
 20
-26.133030192057291
 30
0.0
 10
-13.947382948133679
 20
-25.562177870008679
 30
0.0
 10
-13.947382948133679
 20
-25.562177870008679
 30
0.0
 10
-13.947382948133679
 20
-25.311719428168402
 30
0.0
 10
-13.947382948133679
 20
-25.311719428168402
 30
0.0
  0
SPLINE
  5
B4
100
AcDbEntity
  8
LIVELLO_1
 62
     7
100
AcDbSpline
210
0.0
220
0.0
230
1.0
 70
     8
 71
     3
 72
    20
 73
    16
 74
     0
 42
0.00000001
 43
0.00000001
 40
0.0
 40
0.0
 40
0.0
 40
0.0
 40
1.0
 40
1.0
 40
1.0
 40
2.0
 40
2.0
 40
2.0
 40
3.0
 40
3.0
 40
3.0
 40
4.0
 40
4.0
 40
4.0
 40
5.0
 40
5.0
 40
5.0
 40
5.0
 10
-8.2116434733072907
 20
-24.567234293619791
 30
0.0
 10
-8.2116434733072907
 20
-24.567234293619791
 30
0.0
 10
-8.2180168999565968
 20
-24.779796685112846
 30
0.0
 10
-8.2180168999565968
 20
-24.779796685112846
 30
0.0
 10
-8.2180168999565968
 20
-25.347548421223955
 30
0.0
 10
-8.6794874403211804
 20
-25.809191216362844
 30
0.0
 10
-9.2494784884982639
 20
-25.809191216362844
 30
0.0
 10
-9.2494784884982639
 20
-25.809191216362844
 30
0.0
 10
-12.942448594835069
 20
-25.809191216362844
 30
0.0
 10
-12.942448594835069
 20
-25.809191216362844
 30
0.0
 10
-13.509339057074651
 20
-25.809191216362844
 30
0.0
 10
-13.972359890407985
 20
-25.347548421223955
 30
0.0
 10
-13.972359890407985
 20
-24.779796685112846
 30
0.0
 10
-13.972359890407985
 20
-24.779796685112846
 30
0.0
 10
-13.972359890407985
 20
-24.526582166883678
 30
0.0
 10
-13.972359890407985
 20
-24.526582166883678
 30
0.0
  0
LINE
  5
B3
100
AcDbEntity
  8
LIVELLO_1
 62
     7
100
AcDbLine
 10
-30.713457
 20
-47.402361
 30
0.0
 11
8.532382
 21
-47.402361
 31
0.0
  0
LINE
  5
B2
100
AcDbEntity
  8
LIVELLO_1
 62
     7
100
AcDbLine
 10
-18.334023
 20
-41.592896
 30
0.0
 11
-14.777995
 21
-43.526284
 31
0.0
  0
LINE
  5
B1
100
AcDbEntity
  8
LIVELLO_1
 62
     7
100
AcDbLine
 10
-14.777995
 20
-41.592896
 30
0.0
 11
-18.334023
 21
-43.526284
 31
0.0
  0
LINE
  5
B0
100
AcDbEntity
  8
LIVELLO_1
 62
     7
100
AcDbLine
 10
-18.334023
 20
-41.592896
 30
0.0
 11
-21.88695
 21
-43.526284
 31
0.0
  0
LINE
  5
AF
100
AcDbEntity
  8
LIVELLO_1
 62
     7
100
AcDbLine
 10
-21.88695
 20
-41.592896
 30
0.0
 11
-18.334023
 21
-43.526284
 31
0.0
  0
POLYLINE
  5
A9
100
AcDbEntity
  8
LIVELLO_1
 62
     7
100
AcDb2dPolyline
 66
     1
 10
0.0
 20
0.0
 30
0.0
 70
     1
  0
VERTEX
  5
AA
100
AcDbEntity
  8
LIVELLO_1
 62
     7
100
AcDbVertex
100
AcDb2dVertex
 10
-21.88695
 20
-41.592896
 30
0.0
  0
VERTEX
  5
AB
100
AcDbEntity
  8
LIVELLO_1
 62
     7
100
AcDbVertex
100
AcDb2dVertex
 10
-18.334023
 20
-41.592896
 30
0.0
  0
VERTEX
  5
AC
100
AcDbEntity
  8
LIVELLO_1
 62
     7
100
AcDbVertex
100
AcDb2dVertex
 10
-18.334023
 20
-43.526284
 30
0.0
  0
VERTEX
  5
AD
100
AcDbEntity
  8
LIVELLO_1
 62
     7
100
AcDbVertex
100
AcDb2dVertex
 10
-21.88695
 20
-43.526284
 30
0.0
  0
SEQEND
  5
AE
100
AcDbEntity
  8
LIVELLO_1
 62
     7
  0
POLYLINE
  5
A3
100
AcDbEntity
  8
LIVELLO_1
 62
     7
100
AcDb2dPolyline
 66
     1
 10
0.0
 20
0.0
 30
0.0
 70
     1
  0
VERTEX
  5
A4
100
AcDbEntity
  8
LIVELLO_1
 62
     7
100
AcDbVertex
100
AcDb2dVertex
 10
-18.334023
 20
-41.592896
 30
0.0
  0
VERTEX
  5
A5
100
AcDbEntity
  8
LIVELLO_1
 62
     7
100
AcDbVertex
100
AcDb2dVertex
 10
-14.777995
 20
-41.592896
 30
0.0
  0
VERTEX
  5
A6
100
AcDbEntity
  8
LIVELLO_1
 62
     7
100
AcDbVertex
100
AcDb2dVertex
 10
-14.777995
 20
-43.526284
 30
0.0
  0
VERTEX
  5
A7
100
AcDbEntity
  8
LIVELLO_1
 62
     7
100
AcDbVertex
100
AcDb2dVertex
 10
-18.334023
 20
-43.526284
 30
0.0
  0
SEQEND
  5
A8
100
AcDbEntity
  8
LIVELLO_1
 62
     7
  0
SPLINE
  5
A2
100
AcDbEntity
  8
LIVELLO_1
 62
     7
100
AcDbSpline
210
0.0
220
0.0
230
1.0
 70
     8
 71
     3
 72
    23
 73
    19
 74
     0
 42
0.00000001
 43
0.00000001
 40
0.0
 40
0.0
 40
0.0
 40
0.0
 40
1.0
 40
1.0
 40
1.0
 40
2.0
 40
2.0
 40
2.0
 40
3.0
 40
3.0
 40
3.0
 40
4.0
 40
4.0
 40
4.0
 40
5.0
 40
5.0
 40
5.0
 40
6.0
 40
6.0
 40
6.0
 40
6.0
 10
-14.777995469835068
 20
-43.526283772786456
 30
0.0
 10
-14.777995469835068
 20
-43.526283772786456
 30
0.0
 10
-14.777995469835068
 20
-43.950030517578121
 30
0.0
 10
-14.777995469835068
 20
-43.950030517578121
 30
0.0
 10
-14.777995469835068
 20
-44.519504801432291
 30
0.0
 10
-15.239466010199651
 20
-44.981147596571176
 30
0.0
 10
-15.81117960611979
 20
-44.981147596571176
 30
0.0
 10
-15.81117960611979
 20
-44.981147596571176
 30
0.0
 10
-20.855488416883677
 20
-44.981147596571176
 30
0.0
 10
-20.855488416883677
 20
-44.981147596571176
 30
0.0
 10
-21.425479465060761
 20
-44.981147596571176
 30
0.0
 10
-21.886950005425344
 20
-44.519504801432291
 30
0.0
 10
-21.886950005425344
 20
-43.950030517578121
 30
0.0
 10
-21.886950005425344
 20
-43.950030517578121
 30
0.0
 10
-21.886950005425344
 20
-43.526283772786456
 30
0.0
 10
-21.886950005425344
 20
-43.526283772786456
 30
0.0
 10
-21.886950005425344
 20
-43.526283772786456
 30
0.0
 10
-14.777995469835068
 20
-43.526283772786456
 30
0.0
 10
-14.777995469835068
 20
-43.526283772786456
 30
0.0
  0
POLYLINE
  5
9C
100
AcDbEntity
  8
LIVELLO_1
 62
     7
100
AcDb2dPolyline
 66
     1
 10
0.0
 20
0.0
 30
0.0
 70
     1
  0
VERTEX
  5
9D
100
AcDbEntity
  8
LIVELLO_1
 62
     7
100
AcDbVertex
100
AcDb2dVertex
 10
-21.88695
 20
-40.616901
 30
0.0
  0
VERTEX
  5
9E
100
AcDbEntity
  8
LIVELLO_1
 62
     7
100
AcDbVertex
100
AcDb2dVertex
 10
-14.777995
 20
-40.616901
 30
0.0
  0
VERTEX
  5
9F
100
AcDbEntity
  8
LIVELLO_1
 62
     7
100
AcDbVertex
100
AcDb2dVertex
 10
-14.777995
 20
-41.592896
 30
0.0
  0
VERTEX
  5
A0
100
AcDbEntity
  8
LIVELLO_1
 62
     7
100
AcDbVertex
100
AcDb2dVertex
 10
-21.88695
 20
-41.592896
 30
0.0
  0
SEQEND
  5
A1
100
AcDbEntity
  8
LIVELLO_1
 62
     7
  0
LINE
  5
9B
100
AcDbEntity
  8
LIVELLO_1
 62
     7
100
AcDbLine
 10
-16.01823
 20
-37.932827
 30
0.0
 11
-16.01823
 21
-39.550299
 31
0.0
  0
LINE
  5
9A
100
AcDbEntity
  8
LIVELLO_1
 62
     7
100
AcDbLine
 10
-16.564277
 20
-37.932827
 30
0.0
 11
-16.564277
 21
-39.550299
 31
0.0
  0
LINE
  5
99
100
AcDbEntity
  8
LIVELLO_1
 62
     7
100
AcDbLine
 10
-20.102218
 20
-37.932827
 30
0.0
 11
-20.102218
 21
-39.550299
 31
0.0
  0
LINE
  5
98
100
AcDbEntity
  8
LIVELLO_1
 62
     7
100
AcDbLine
 10
-20.646716
 20
-37.932827
 30
0.0
 11
-20.646716
 21
-39.550299
 31
0.0
  0
POLYLINE
  5
92
100
AcDbEntity
  8
LIVELLO_1
 62
     7
100
AcDb2dPolyline
 66
     1
 10
0.0
 20
0.0
 30
0.0
 70
     1
  0
VERTEX
  5
93
100
AcDbEntity
  8
LIVELLO_1
 62
     7
100
AcDbVertex
100
AcDb2dVertex
 10
-21.572585
 20
-39.550299
 30
0.0
  0
VERTEX
  5
94
100
AcDbEntity
  8
LIVELLO_1
 62
     7
100
AcDbVertex
100
AcDb2dVertex
 10
-15.093911
 20
-39.550299
 30
0.0
  0
VERTEX
  5
95
100
AcDbEntity
  8
LIVELLO_1
 62
     7
100
AcDbVertex
100
AcDb2dVertex
 10
-15.093911
 20
-40.616901
 30
0.0
  0
VERTEX
  5
96
100
AcDbEntity
  8
LIVELLO_1
 62
     7
100
AcDbVertex
100
AcDb2dVertex
 10
-21.572585
 20
-40.616901
 30
0.0
  0
SEQEND
  5
97
100
AcDbEntity
  8
LIVELLO_1
 62
     7
  0
POLYLINE
  5
8C
100
AcDbEntity
  8
LIVELLO_1
 62
     7
100
AcDb2dPolyline
 66
     1
 10
0.0
 20
0.0
 30
0.0
 70
     1
  0
VERTEX
  5
8D
100
AcDbEntity
  8
LIVELLO_1
 62
     7
100
AcDbVertex
100
AcDb2dVertex
 10
-22.112259
 20
-37.932827
 30
0.0
  0
VERTEX
  5
8E
100
AcDbEntity
  8
LIVELLO_1
 62
     7
100
AcDbVertex
100
AcDb2dVertex
 10
-14.554409
 20
-37.932827
 30
0.0
  0
VERTEX
  5
8F
100
AcDbEntity
  8
LIVELLO_1
 62
     7
100
AcDbVertex
100
AcDb2dVertex
 10
-14.554409
 20
-39.550299
 30
0.0
  0
VERTEX
  5
90
100
AcDbEntity
  8
LIVELLO_1
 62
     7
100
AcDbVertex
100
AcDb2dVertex
 10
-22.112259
 20
-39.550299
 30
0.0
  0
SEQEND
  5
91
100
AcDbEntity
  8
LIVELLO_1
 62
     7
  0
SPLINE
  5
8B
100
AcDbEntity
  8
LIVELLO_1
 62
     7
100
AcDbSpline
210
0.0
220
0.0
230
1.0
 70
     8
 71
     3
 72
    23
 73
    19
 74
     0
 42
0.00000001
 43
0.00000001
 40
0.0
 40
0.0
 40
0.0
 40
0.0
 40
1.0
 40
1.0
 40
1.0
 40
2.0
 40
2.0
 40
2.0
 40
3.0
 40
3.0
 40
3.0
 40
4.0
 40
4.0
 40
4.0
 40
5.0
 40
5.0
 40
5.0
 40
6.0
 40
6.0
 40
6.0
 40
6.0
 10
-1.2713263617621526
 20
-36.726698811848955
 30
0.0
 10
-1.2713263617621526
 20
-36.726698811848955
 30
0.0
 10
-1.2713263617621526
 20
-37.474629041883674
 30
0.0
 10
-1.2713263617621526
 20
-37.474629041883674
 30
0.0
 10
-1.2713263617621526
 20
-38.044103325737844
 30
0.0
 10
-1.7329691569010415
 20
-38.505401611328125
 30
0.0
 10
-2.3014099121093747
 20
-38.505401611328125
 30
0.0
 10
-2.3014099121093747
 20
-38.505401611328125
 30
0.0
 10
-4.4060187445746521
 20
-38.505401611328125
 30
0.0
 10
-4.4060187445746521
 20
-38.505401611328125
 30
0.0
 10
-4.9761820475260414
 20
-38.505401611328125
 30
0.0
 10
-5.4376525878906241
 20
-38.044103325737844
 30
0.0
 10
-5.4376525878906241
 20
-37.474629041883674
 30
0.0
 10
-5.4376525878906241
 20
-37.474629041883674
 30
0.0
 10
-5.4376525878906241
 20
-36.726698811848955
 30
0.0
 10
-5.4376525878906241
 20
-36.726698811848955
 30
0.0
 10
-5.4376525878906241
 20
-36.726698811848955
 30
0.0
 10
-1.2713263617621526
 20
-36.726698811848955
 30
0.0
 10
-1.2713263617621526
 20
-36.726698811848955
 30
0.0
  0
LINE
  5
8A
100
AcDbEntity
  8
LIVELLO_1
 62
     7
100
AcDbLine
 10
-10.53381
 20
-36.726699
 30
0.0
 11
-10.53381
 21
-37.932827
 31
0.0
  0
LINE
  5
89
100
AcDbEntity
  8
LIVELLO_1
 62
     7
100
AcDbLine
 10
-11.615226
 20
-36.726699
 30
0.0
 11
-11.615226
 21
-37.932827
 31
0.0
  0
LINE
  5
88
100
AcDbEntity
  8
LIVELLO_1
 62
     7
100
AcDbLine
 10
-14.314286
 20
-36.726699
 30
0.0
 11
-14.314286
 21
-37.932827
 31
0.0
  0
POLYLINE
  5
82
100
AcDbEntity
  8
LIVELLO_1
 62
     7
100
AcDb2dPolyline
 66
     1
 10
0.0
 20
0.0
 30
0.0
 70
     1
  0
VERTEX
  5
83
100
AcDbEntity
  8
LIVELLO_1
 62
     7
100
AcDbVertex
100
AcDb2dVertex
 10
-22.396307
 20
-36.726699
 30
0.0
  0
VERTEX
  5
84
100
AcDbEntity
  8
LIVELLO_1
 62
     7
100
AcDbVertex
100
AcDb2dVertex
 10
-5.43593
 20
-36.726699
 30
0.0
  0
VERTEX
  5
85
100
AcDbEntity
  8
LIVELLO_1
 62
     7
100
AcDbVertex
100
AcDb2dVertex
 10
-5.43593
 20
-37.932827
 30
0.0
  0
VERTEX
  5
86
100
AcDbEntity
  8
LIVELLO_1
 62
     7
100
AcDbVertex
100
AcDb2dVertex
 10
-22.396307
 20
-37.932827
 30
0.0
  0
SEQEND
  5
87
100
AcDbEntity
  8
LIVELLO_1
 62
     7
  0
SPLINE
  5
81
100
AcDbEntity
  8
LIVELLO_1
 62
     7
100
AcDbSpline
210
0.0
220
0.0
230
1.0
 70
     8
 71
     3
 72
    20
 73
    16
 74
     0
 42
0.00000001
 43
0.00000001
 40
0.0
 40
0.0
 40
0.0
 40
0.0
 40
1.0
 40
1.0
 40
1.0
 40
2.0
 40
2.0
 40
2.0
 40
3.0
 40
3.0
 40
3.0
 40
4.0
 40
4.0
 40
4.0
 40
5.0
 40
5.0
 40
5.0
 40
5.0
 10
2.1338060167100692
 20
3.8236253526475692
 30
0.0
 10
2.1338060167100692
 20
3.8236253526475692
 30
0.0
 10
-4.3512417263454859
 20
3.8236253526475692
 30
0.0
 10
-4.3512417263454859
 20
3.8236253526475692
 30
0.0
 10
-4.3512417263454859
 20
3.8236253526475692
 30
0.0
 10
-4.3512417263454859
 20
-1.4523661295572916
 30
0.0
 10
-4.3512417263454859
 20
-1.4523661295572916
 30
0.0
 10
-4.3512417263454859
 20
-0.8844421386718749
 30
0.0
 10
-3.889943440755208
 20
-0.4229715983072916
 30
0.0
 10
-3.3215026855468746
 20
-0.4229715983072916
 30
0.0
 10
-3.3215026855468746
 20
-0.4229715983072916
 30
0.0
 10
2.0342427571614583
 20
-0.4229715983072916
 30
0.0
 10
2.0342427571614583
 20
-0.4229715983072916
 30
0.0
 10
2.0342427571614583
 20
-0.4229715983072916
 30
0.0
 10
2.1338060167100692
 20
3.8236253526475692
 30
0.0
 10
2.1338060167100692
 20
3.8236253526475692
 30
0.0
  0
SPLINE
  5
80
100
AcDbEntity
  8
LIVELLO_1
 62
     7
100
AcDbSpline
210
0.0
220
0.0
230
1.0
 70
     8
 71
     3
 72
    20
 73
    16
 74
     0
 42
0.00000001
 43
0.00000001
 40
0.0
 40
0.0
 40
0.0
 40
0.0
 40
1.0
 40
1.0
 40
1.0
 40
2.0
 40
2.0
 40
2.0
 40
3.0
 40
3.0
 40
3.0
 40
4.0
 40
4.0
 40
4.0
 40
5.0
 40
5.0
 40
5.0
 40
5.0
 10
-24.312986246744789
 20
3.8236253526475692
 30
0.0
 10
-24.312986246744789
 20
3.8236253526475692
 30
0.0
 10
-17.828110758463541
 20
3.8236253526475692
 30
0.0
 10
-17.828110758463541
 20
3.8236253526475692
 30
0.0
 10
-17.828110758463541
 20
3.8236253526475692
 30
0.0
 10
-17.828110758463541
 20
-1.4523661295572916
 30
0.0
 10
-17.828110758463541
 20
-1.4523661295572916
 30
0.0
 10
-17.828110758463541
 20
-0.8844421386718749
 30
0.0
 10
-18.289581298828125
 20
-0.4229715983072916
 30
0.0
 10
-18.859572347005205
 20
-0.4229715983072916
 30
0.0
 10
-18.859572347005205
 20
-0.4229715983072916
 30
0.0
 10
-24.215317789713538
 20
-0.4229715983072916
 30
0.0
 10
-24.215317789713538
 20
-0.4229715983072916
 30
0.0
 10
-24.215317789713538
 20
-0.4229715983072916
 30
0.0
 10
-24.312986246744789
 20
3.8236253526475692
 30
0.0
 10
-24.312986246744789
 20
3.8236253526475692
 30
0.0
  0
SPLINE
  5
7F
100
AcDbEntity
  8
LIVELLO_1
 62
     7
100
AcDbSpline
210
0.0
220
0.0
230
1.0
 70
     8
 71
     3
 72
    23
 73
    19
 74
     0
 42
0.00000001
 43
0.00000001
 40
0.0
 40
0.0
 40
0.0
 40
0.0
 40
1.0
 40
1.0
 40
1.0
 40
2.0
 40
2.0
 40
2.0
 40
3.0
 40
3.0
 40
3.0
 40
4.0
 40
4.0
 40
4.0
 40
5.0
 40
5.0
 40
5.0
 40
6.0
 40
6.0
 40
6.0
 40
6.0
 10
-9.1016838921440968
 20
3.8236253526475692
 30
0.0
 10
-9.1016838921440968
 20
3.8236253526475692
 30
0.0
 10
-9.1016838921440968
 20
0.6078009711371527
 30
0.0
 10
-9.1016838921440968
 20
0.6078009711371527
 30
0.0
 10
-9.1016838921440968
 20
0.0369486490885417
 30
0.0
 10
-9.5629821777343746
 20
-0.4245218912760416
 30
0.0
 10
-10.133317735460068
 20
-0.4245218912760416
 30
0.0
 10
-10.133317735460068
 20
-0.4245218912760416
 30
0.0
 10
-12.050857883029513
 20
-0.4245218912760416
 30
0.0
 10
-12.050857883029513
 20
-0.4245218912760416
 30
0.0
 10
-12.619470893012151
 20
-0.4245218912760416
 30
0.0
 10
-13.080769178602429
 20
0.0369486490885417
 30
0.0
 10
-13.080769178602429
 20
0.6078009711371527
 30
0.0
 10
-13.080769178602429
 20
0.6078009711371527
 30
0.0
 10
-13.080769178602429
 20
3.8236253526475692
 30
0.0
 10
-13.080769178602429
 20
3.8236253526475692
 30
0.0
 10
-13.080769178602429
 20
3.8236253526475692
 30
0.0
 10
-9.1016838921440968
 20
3.8236253526475692
 30
0.0
 10
-9.1016838921440968
 20
3.8236253526475692
 30
0.0
  0
POLYLINE
  5
79
100
AcDbEntity
  8
LIVELLO_1
 62
     7
100
AcDb2dPolyline
 66
     1
 10
0.0
 20
0.0
 30
0.0
 70
     1
  0
VERTEX
  5
7A
100
AcDbEntity
  8
LIVELLO_1
 62
     7
100
AcDbVertex
100
AcDb2dVertex
 10
6.618631
 20
3.823625
 30
0.0
  0
VERTEX
  5
7B
100
AcDbEntity
  8
LIVELLO_1
 62
     7
100
AcDbVertex
100
AcDb2dVertex
 10
2.133806
 20
3.823625
 30
0.0
  0
VERTEX
  5
7C
100
AcDbEntity
  8
LIVELLO_1
 62
     7
100
AcDbVertex
100
AcDb2dVertex
 10
2.034243
 20
-0.426244
 30
0.0
  0
VERTEX
  5
7D
100
AcDbEntity
  8
LIVELLO_1
 62
     7
100
AcDbVertex
100
AcDb2dVertex
 10
6.618631
 20
-0.426244
 30
0.0
  0
SEQEND
  5
7E
100
AcDbEntity
  8
LIVELLO_1
 62
     7
  0
POLYLINE
  5
73
100
AcDbEntity
  8
LIVELLO_1
 62
     7
100
AcDb2dPolyline
 66
     1
 10
0.0
 20
0.0
 30
0.0
 70
     1
  0
VERTEX
  5
74
100
AcDbEntity
  8
LIVELLO_1
 62
     7
100
AcDbVertex
100
AcDb2dVertex
 10
-28.798328
 20
3.823625
 30
0.0
  0
VERTEX
  5
75
100
AcDbEntity
  8
LIVELLO_1
 62
     7
100
AcDbVertex
100
AcDb2dVertex
 10
-24.312986
 20
3.823625
 30
0.0
  0
VERTEX
  5
76
100
AcDbEntity
  8
LIVELLO_1
 62
     7
100
AcDbVertex
100
AcDb2dVertex
 10
-24.215318
 20
-0.426244
 30
0.0
  0
VERTEX
  5
77
100
AcDbEntity
  8
LIVELLO_1
 62
     7
100
AcDbVertex
100
AcDb2dVertex
 10
-28.798328
 20
-0.426244
 30
0.0
  0
SEQEND
  5
78
100
AcDbEntity
  8
LIVELLO_1
 62
     7
  0
SPLINE
  5
72
100
AcDbEntity
  8
LIVELLO_1
 62
     7
100
AcDbSpline
210
0.0
220
0.0
230
1.0
 70
     8
 71
     3
 72
    41
 73
    37
 74
     0
 42
0.00000001
 43
0.00000001
 40
0.0
 40
0.0
 40
0.0
 40
0.0
 40
1.0
 40
1.0
 40
1.0
 40
2.0
 40
2.0
 40
2.0
 40
3.0
 40
3.0
 40
3.0
 40
4.0
 40
4.0
 40
4.0
 40
5.0
 40
5.0
 40
5.0
 40
6.0
 40
6.0
 40
6.0
 40
7.0
 40
7.0
 40
7.0
 40
8.0
 40
8.0
 40
8.0
 40
9.0
 40
9.0
 40
9.0
 40
10.0
 40
10.0
 40
10.0
 40
11.0
 40
11.0
 40
11.0
 40
12.0
 40
12.0
 40
12.0
 40
12.0
 10
-7.4952358669704857
 20
0.8251864963107638
 30
0.0
 10
-7.4952358669704857
 20
0.8251864963107638
 30
0.0
 10
-8.5253194173177071
 20
-35.694548204210065
 30
0.0
 10
-8.5253194173177071
 20
-35.694548204210065
 30
0.0
 10
-8.5253194173177071
 20
-36.265745035807285
 30
0.0
 10
-8.9883402506510404
 20
-36.726698811848955
 30
0.0
 10
-9.5583312988281239
 20
-36.726698811848955
 30
0.0
 10
-9.5583312988281239
 20
-36.726698811848955
 30
0.0
 10
-12.627394612630207
 20
-36.726698811848955
 30
0.0
 10
-12.627394612630207
 20
-36.726698811848955
 30
0.0
 10
-13.19738566080729
 20
-36.726698811848955
 30
0.0
 10
-13.658856201171874
 20
-36.265745035807285
 30
0.0
 10
-13.658856201171874
 20
-35.694548204210065
 30
0.0
 10
-13.658856201171874
 20
-35.694548204210065
 30
0.0
 10
-14.68876749674479
 20
0.8251864963107638
 30
0.0
 10
-14.68876749674479
 20
0.8251864963107638
 30
0.0
 10
-14.68876749674479
 20
0.8251864963107638
 30
0.0
 10
-13.080769178602429
 20
0.9409417046440971
 30
0.0
 10
-13.080769178602429
 20
0.9409417046440971
 30
0.0
 10
-13.080769178602429
 20
0.9409417046440971
 30
0.0
 10
-13.080769178602429
 20
0.6078009711371527
 30
0.0
 10
-13.080769178602429
 20
0.6078009711371527
 30
0.0
 10
-13.080769178602429
 20
0.0369486490885417
 30
0.0
 10
-12.619470893012151
 20
-0.4245218912760416
 30
0.0
 10
-12.050857883029513
 20
-0.4245218912760416
 30
0.0
 10
-12.050857883029513
 20
-0.4245218912760416
 30
0.0
 10
-10.133317735460068
 20
-0.4245218912760416
 30
0.0
 10
-10.133317735460068
 20
-0.4245218912760416
 30
0.0
 10
-9.5629821777343746
 20
-0.4245218912760416
 30
0.0
 10
-9.1016838921440968
 20
0.0369486490885417
 30
0.0
 10
-9.1016838921440968
 20
0.6078009711371527
 30
0.0
 10
-9.1016838921440968
 20
0.6078009711371527
 30
0.0
 10
-9.1016838921440968
 20
0.9409417046440971
 30
0.0
 10
-9.1016838921440968
 20
0.9409417046440971
 30
0.0
 10
-9.1016838921440968
 20
0.9409417046440971
 30
0.0
 10
-7.4952358669704857
 20
0.8251864963107638
 30
0.0
 10
-7.4952358669704857
 20
0.8251864963107638
 30
0.0
  0
LINE
  5
71
100
AcDbEntity
  8
LIVELLO_1
 62
     7
100
AcDbLine
 10
-2.123298
 20
-33.831785
 30
0.0
 11
-2.738593
 21
-33.831785
 31
0.0
  0
POLYLINE
  5
6C
100
AcDbEntity
  8
LIVELLO_1
 62
     7
100
AcDb2dPolyline
 66
     1
 10
0.0
 20
0.0
 30
0.0
  0
VERTEX
  5
6D
100
AcDbEntity
  8
LIVELLO_1
 62
     7
100
AcDbVertex
100
AcDb2dVertex
 10
-2.437491
 20
-0.426244
 30
0.0
  0
VERTEX
  5
6E
100
AcDbEntity
  8
LIVELLO_1
 62
     7
100
AcDbVertex
100
AcDb2dVertex
 10
-2.738593
 20
-33.831785
 30
0.0
  0
VERTEX
  5
6F
100
AcDbEntity
  8
LIVELLO_1
 62
     7
100
AcDbVertex
100
AcDb2dVertex
 10
-3.382481
 20
-34.724754
 30
0.0
  0
SEQEND
  5
70
100
AcDbEntity
  8
LIVELLO_1
 62
     7
  0
POLYLINE
  5
65
100
AcDbEntity
  8
LIVELLO_1
 62
     7
100
AcDb2dPolyline
 66
     1
 10
0.0
 20
0.0
 30
0.0
  0
VERTEX
  5
66
100
AcDbEntity
  8
LIVELLO_1
 62
     7
100
AcDbVertex
100
AcDb2dVertex
 10
-1.291652
 20
-0.426244
 30
0.0
  0
VERTEX
  5
67
100
AcDbEntity
  8
LIVELLO_1
 62
     7
100
AcDbVertex
100
AcDb2dVertex
 10
-2.123298
 20
-33.831785
 30
0.0
  0
VERTEX
  5
68
100
AcDbEntity
  8
LIVELLO_1
 62
     7
100
AcDbVertex
100
AcDb2dVertex
 10
-2.746516
 20
-34.724754
 30
0.0
  0
VERTEX
  5
69
100
AcDbEntity
  8
LIVELLO_1
 62
     7
100
AcDbVertex
100
AcDb2dVertex
 10
-3.382481
 20
-34.724754
 30
0.0
  0
VERTEX
  5
6A
100
AcDbEntity
  8
LIVELLO_1
 62
     7
100
AcDbVertex
100
AcDb2dVertex
 10
-3.110318
 20
-0.426244
 30
0.0
  0
SEQEND
  5
6B
100
AcDbEntity
  8
LIVELLO_1
 62
     7
  0
LINE
  5
64
100
AcDbEntity
  8
LIVELLO_1
 62
     7
100
AcDbLine
 10
-20.056054
 20
-33.831785
 30
0.0
 11
-19.44076
 21
-33.831785
 31
0.0
  0
POLYLINE
  5
5F
100
AcDbEntity
  8
LIVELLO_1
 62
     7
100
AcDb2dPolyline
 66
     1
 10
0.0
 20
0.0
 30
0.0
  0
VERTEX
  5
60
100
AcDbEntity
  8
LIVELLO_1
 62
     7
100
AcDbVertex
100
AcDb2dVertex
 10
-19.741861
 20
-0.426244
 30
0.0
  0
VERTEX
  5
61
100
AcDbEntity
  8
LIVELLO_1
 62
     7
100
AcDbVertex
100
AcDb2dVertex
 10
-19.44076
 20
-33.831785
 30
0.0
  0
VERTEX
  5
62
100
AcDbEntity
  8
LIVELLO_1
 62
     7
100
AcDbVertex
100
AcDb2dVertex
 10
-18.798594
 20
-34.724754
 30
0.0
  0
SEQEND
  5
63
100
AcDbEntity
  8
LIVELLO_1
 62
     7
  0
POLYLINE
  5
58
100
AcDbEntity
  8
LIVELLO_1
 62
     7
100
AcDb2dPolyline
 66
     1
 10
0.0
 20
0.0
 30
0.0
  0
VERTEX
  5
59
100
AcDbEntity
  8
LIVELLO_1
 62
     7
100
AcDbVertex
100
AcDb2dVertex
 10
-20.88925
 20
-0.426244
 30
0.0
  0
VERTEX
  5
5A
100
AcDbEntity
  8
LIVELLO_1
 62
     7
100
AcDbVertex
100
AcDb2dVertex
 10
-20.056054
 20
-33.831785
 30
0.0
  0
VERTEX
  5
5B
100
AcDbEntity
  8
LIVELLO_1
 62
     7
100
AcDbVertex
100
AcDb2dVertex
 10
-19.434559
 20
-34.724754
 30
0.0
  0
VERTEX
  5
5C
100
AcDbEntity
  8
LIVELLO_1
 62
     7
100
AcDbVertex
100
AcDb2dVertex
 10
-18.798594
 20
-34.724754
 30
0.0
  0
VERTEX
  5
5D
100
AcDbEntity
  8
LIVELLO_1
 62
     7
100
AcDbVertex
100
AcDb2dVertex
 10
-19.070757
 20
-0.426244
 30
0.0
  0
SEQEND
  5
5E
100
AcDbEntity
  8
LIVELLO_1
 62
     7
  0
POLYLINE
  5
53
100
AcDbEntity
  8
LIVELLO_1
 62
     7
100
AcDb2dPolyline
 66
     1
 10
0.0
 20
0.0
 30
0.0
  0
VERTEX
  5
54
100
AcDbEntity
  8
LIVELLO_1
 62
     7
100
AcDbVertex
100
AcDb2dVertex
 10
5.162734
 20
3.823625
 30
0.0
  0
VERTEX
  5
55
100
AcDbEntity
  8
LIVELLO_1
 62
     7
100
AcDbVertex
100
AcDb2dVertex
 10
1.072372
 20
-0.426244
 30
0.0
  0
VERTEX
  5
56
100
AcDbEntity
  8
LIVELLO_1
 62
     7
100
AcDbVertex
100
AcDb2dVertex
 10
0.295159
 20
-35.694548
 30
0.0
  0
SEQEND
  5
57
100
AcDbEntity
  8
LIVELLO_1
 62
     7
  0
POLYLINE
  5
4E
100
AcDbEntity
  8
LIVELLO_1
 62
     7
100
AcDb2dPolyline
 66
     1
 10
0.0
 20
0.0
 30
0.0
  0
VERTEX
  5
4F
100
AcDbEntity
  8
LIVELLO_1
 62
     7
100
AcDbVertex
100
AcDb2dVertex
 10
-27.343637
 20
3.823625
 30
0.0
  0
VERTEX
  5
50
100
AcDbEntity
  8
LIVELLO_1
 62
     7
100
AcDbVertex
100
AcDb2dVertex
 10
-23.252586
 20
-0.426244
 30
0.0
  0
VERTEX
  5
51
100
AcDbEntity
  8
LIVELLO_1
 62
     7
100
AcDbVertex
100
AcDb2dVertex
 10
-22.474339
 20
-35.694548
 30
0.0
  0
SEQEND
  5
52
100
AcDbEntity
  8
LIVELLO_1
 62
     7
  0
POLYLINE
  5
49
100
AcDbEntity
  8
LIVELLO_1
 62
     7
100
AcDb2dPolyline
 66
     1
 10
0.0
 20
0.0
 30
0.0
 70
     1
  0
VERTEX
  5
4A
100
AcDbEntity
  8
LIVELLO_1
 62
     7
100
AcDbVertex
100
AcDb2dVertex
 10
2.133806
 20
3.823625
 30
0.0
  0
VERTEX
  5
4B
100
AcDbEntity
  8
LIVELLO_1
 62
     7
100
AcDbVertex
100
AcDb2dVertex
 10
1.254618
 20
-33.723609
 30
0.0
  0
VERTEX
  5
4C
100
AcDbEntity
  8
LIVELLO_1
 62
     7
100
AcDbVertex
100
AcDb2dVertex
 10
0.34649
 20
-34.588673
 30
0.0
  0
SEQEND
  5
4D
100
AcDbEntity
  8
LIVELLO_1
 62
     7
  0
POLYLINE
  5
44
100
AcDbEntity
  8
LIVELLO_1
 62
     7
100
AcDb2dPolyline
 66
     1
 10
0.0
 20
0.0
 30
0.0
 70
     1
  0
VERTEX
  5
45
100
AcDbEntity
  8
LIVELLO_1
 62
     7
100
AcDbVertex
100
AcDb2dVertex
 10
-24.312986
 20
3.823625
 30
0.0
  0
VERTEX
  5
46
100
AcDbEntity
  8
LIVELLO_1
 62
     7
100
AcDbVertex
100
AcDb2dVertex
 10
-22.525843
 20
-34.588673
 30
0.0
  0
VERTEX
  5
47
100
AcDbEntity
  8
LIVELLO_1
 62
     7
100
AcDbVertex
100
AcDb2dVertex
 10
-23.43397
 20
-33.723609
 30
0.0
  0
SEQEND
  5
48
100
AcDbEntity
  8
LIVELLO_1
 62
     7
  0
SPLINE
  5
43
100
AcDbEntity
  8
LIVELLO_1
 62
     7
100
AcDbSpline
210
0.0
220
0.0
230
1.0
 70
     8
 71
     3
 72
    23
 73
    19
 74
     0
 42
0.00000001
 43
0.00000001
 40
0.0
 40
0.0
 40
0.0
 40
0.0
 40
1.0
 40
1.0
 40
1.0
 40
2.0
 40
2.0
 40
2.0
 40
3.0
 40
3.0
 40
3.0
 40
4.0
 40
4.0
 40
4.0
 40
5.0
 40
5.0
 40
5.0
 40
6.0
 40
6.0
 40
6.0
 40
6.0
 10
-21.444427490234371
 20
-36.726698811848955
 30
0.0
 10
-22.012868245442707
 20
-36.726698811848955
 30
0.0
 10
-22.474338785807291
 20
-36.265745035807285
 30
0.0
 10
-22.474338785807291
 20
-35.694548204210065
 30
0.0
 10
-22.474338785807291
 20
-35.694548204210065
 30
0.0
 10
-24.312986246744789
 20
3.8236253526475692
 30
0.0
 10
-24.312986246744789
 20
3.8236253526475692
 30
0.0
 10
-24.312986246744789
 20
3.8236253526475692
 30
0.0
 10
2.1338060167100692
 20
3.8236253526475692
 30
0.0
 10
2.1338060167100692
 20
3.8236253526475692
 30
0.0
 10
2.1338060167100692
 20
3.8236253526475692
 30
0.0
 10
0.2951585557725694
 20
-35.694548204210065
 30
0.0
 10
0.2951585557725694
 20
-35.694548204210065
 30
0.0
 10
0.2951585557725694
 20
-36.265745035807285
 30
0.0
 10
-0.1664842393663194
 20
-36.726698811848955
 30
0.0
 10
-0.7366475423177082
 20
-36.726698811848955
 30
0.0
 10
-0.7366475423177082
 20
-36.726698811848955
 30
0.0
 10
-21.444427490234371
 20
-36.726698811848955
 30
0.0
 10
-21.444427490234371
 20
-36.726698811848955
 30
0.0
  0
POLYLINE
  5
3D
100
AcDbEntity
  8
LIVELLO_1
 62
     7
100
AcDb2dPolyline
 66
     1
 10
0.0
 20
0.0
 30
0.0
 70
     1
  0
VERTEX
  5
3E
100
AcDbEntity
  8
LIVELLO_1
 62
     7
100
AcDbVertex
100
AcDb2dVertex
 10
9.590026
 20
-2.207531
 30
0.0
  0
VERTEX
  5
3F
100
AcDbEntity
  8
LIVELLO_1
 62
     7
100
AcDbVertex
100
AcDb2dVertex
 10
8.532382
 20
-2.207531
 30
0.0
  0
VERTEX
  5
40
100
AcDbEntity
  8
LIVELLO_1
 62
     7
100
AcDbVertex
100
AcDb2dVertex
 10
8.532382
 20
-47.402361
 30
0.0
  0
VERTEX
  5
41
100
AcDbEntity
  8
LIVELLO_1
 62
     7
100
AcDbVertex
100
AcDb2dVertex
 10
9.590026
 20
-47.402361
 30
0.0
  0
SEQEND
  5
42
100
AcDbEntity
  8
LIVELLO_1
 62
     7
  0
POLYLINE
  5
36
100
AcDbEntity
  8
LIVELLO_1
 62
     7
100
AcDb2dPolyline
 66
     1
 10
0.0
 20
0.0
 30
0.0
 70
     1
  0
VERTEX
  5
37
100
AcDbEntity
  8
LIVELLO_1
 62
     7
100
AcDbVertex
100
AcDb2dVertex
 10
-31.769206
 20
-2.207531
 30
0.0
  0
VERTEX
  5
38
100
AcDbEntity
  8
LIVELLO_1
 62
     7
100
AcDbVertex
100
AcDb2dVertex
 10
-30.713457
 20
-2.207531
 30
0.0
  0
VERTEX
  5
39
100
AcDbEntity
  8
LIVELLO_1
 62
     7
100
AcDbVertex
100
AcDb2dVertex
 10
-30.713457
 20
-8.830383
 30
0.0
  0
VERTEX
  5
3A
100
AcDbEntity
  8
LIVELLO_1
 62
     7
100
AcDbVertex
100
AcDb2dVertex
 10
-30.713457
 20
-47.402361
 30
0.0
  0
VERTEX
  5
3B
100
AcDbEntity
  8
LIVELLO_1
 62
     7
100
AcDbVertex
100
AcDb2dVertex
 10
-31.769206
 20
-47.402361
 30
0.0
  0
SEQEND
  5
3C
100
AcDbEntity
  8
LIVELLO_1
 62
     7
  0
SPLINE
  5
35
100
AcDbEntity
  8
LIVELLO_1
 62
     7
100
AcDbSpline
210
0.0
220
0.0
230
1.0
 70
     8
 71
     3
 72
    29
 73
    25
 74
     0
 42
0.00000001
 43
0.00000001
 40
0.0
 40
0.0
 40
0.0
 40
0.0
 40
1.0
 40
1.0
 40
1.0
 40
2.0
 40
2.0
 40
2.0
 40
3.0
 40
3.0
 40
3.0
 40
4.0
 40
4.0
 40
4.0
 40
5.0
 40
5.0
 40
5.0
 40
6.0
 40
6.0
 40
6.0
 40
7.0
 40
7.0
 40
7.0
 40
8.0
 40
8.0
 40
8.0
 40
8.0
 10
-29.781214057074649
 20
9.12287122938368
 30
0.0
 10
-29.781214057074649
 20
9.12287122938368
 30
0.0
 10
7.6018615722656246
 20
9.12287122938368
 30
0.0
 10
7.6018615722656246
 20
9.12287122938368
 30
0.0
 10
7.8874599880642355
 20
9.12287122938368
 30
0.0
 10
8.1179368760850679
 20
8.8930833604600679
 30
0.0
 10
8.1179368760850679
 20
8.6085184733072904
 30
0.0
 10
8.1179368760850679
 20
8.6085184733072904
 30
0.0
 10
8.1179368760850679
 20
4.3397006564670138
 30
0.0
 10
8.1179368760850679
 20
4.3397006564670138
 30
0.0
 10
8.1179368760850679
 20
4.0537577311197914
 30
0.0
 10
7.8874599880642355
 20
3.8236253526475692
 30
0.0
 10
7.6018615722656246
 20
3.8236253526475692
 30
0.0
 10
7.6018615722656246
 20
3.8236253526475692
 30
0.0
 10
-29.781214057074649
 20
3.8236253526475692
 30
0.0
 10
-29.781214057074649
 20
3.8236253526475692
 30
0.0
 10
-30.066640218098957
 20
3.8236253526475692
 30
0.0
 10
-30.297633870442706
 20
4.0537577311197914
 30
0.0
 10
-30.297633870442706
 20
4.3397006564670138
 30
0.0
 10
-30.297633870442706
 20
4.3397006564670138
 30
0.0
 10
-30.297633870442706
 20
8.6085184733072904
 30
0.0
 10
-30.297633870442706
 20
8.6085184733072904
 30
0.0
 10
-30.297633870442706
 20
8.8930833604600679
 30
0.0
 10
-30.066640218098957
 20
9.12287122938368
 30
0.0
 10
-29.781214057074649
 20
9.12287122938368
 30
0.0
  0
MTEXT
  5
34
100
AcDbEntity
  8
LIVELLO_1
 62
     7
100
AcDbMText
 10
28.859479
 20
-10.939816
 30
0.0
 40
7.349421
 41
0.0
 71
     1
 72
     2
  1
\fCourier|b0|i0;\H7.3494;\C7;\U+0031\U+0031\U+0035
  7
STD
210
0.0
220
0.0
230
1.0
 73
     1
 44
1.0
  0
CIRCLE
  5
33
100
AcDbEntity
  8
LIVELLO_1
 62
     7
100
AcDbCircle
 10
-11.056087
 20
55.396877
 30
0.0
 40
23.426305
  0
CIRCLE
  5
32
100
AcDbEntity
  8
LIVELLO_1
 62
     7
100
AcDbCircle
 10
-11.056087
 20
55.396877
 30
0.0
 40
22.196061
  0
CIRCLE
  5
31
100
AcDbEntity
  8
LIVELLO_1
 62
     7
100
AcDbCircle
 10
-11.056862
 20
55.396877
 30
0.0
 40
21.479567
  0
CIRCLE
  5
30
100
AcDbEntity
  8
LIVELLO_1
 62
     7
100
AcDbCircle
 10
-11.056517
 20
55.396877
 30
0.0
 40
14.097417
  0
CIRCLE
  5
2F
100
AcDbEntity
  8
LIVELLO_1
 62
     7
100
AcDbCircle
 10
-11.057034
 20
55.396877
 30
0.0
 40
13.072329
  0
CIRCLE
  5
2E
100
AcDbEntity
  8
LIVELLO_1
 62
     7
100
AcDbCircle
 10
-28.844406
 20
55.396877
 30
0.0
 40
1.742443
  0
CIRCLE
  5
2D
100
AcDbEntity
  8
LIVELLO_1
 62
     7
100
AcDbCircle
 10
6.73163
 20
55.396877
 30
0.0
 40
1.743218
  0
ENDBLK
  5
11D
100
AcDbEntity
  8
LIVELLO_1
100
AcDbBlockEnd
  0
BLOCK
  5
BE
100
AcDbEntity
  8
LIVELLO_1
 62
     7
100
AcDbBlockBegin
  2
AI9-BLK2
 70
     0
 10
0.0
 20
0.0
 30
0.0
  3
AI9-BLK2
  1

  0
POLYLINE
  5
F0
100
AcDbEntity
  8
LIVELLO_1
 62
     7
100
AcDb2dPolyline
 66
     1
 10
0.0
 20
0.0
 30
0.0
 70
     1
  0
VERTEX
  5
F1
100
AcDbEntity
  8
LIVELLO_1
 62
     7
100
AcDbVertex
100
AcDb2dVertex
 10
-14.239613
 20
4.730977
 30
0.0
  0
VERTEX
  5
F2
100
AcDbEntity
  8
LIVELLO_1
 62
     7
100
AcDbVertex
100
AcDb2dVertex
 10
-13.112033
 20
4.037824
 30
0.0
  0
VERTEX
  5
F3
100
AcDbEntity
  8
LIVELLO_1
 62
     7
100
AcDbVertex
100
AcDb2dVertex
 10
-12.919453
 20
2.833419
 30
0.0
  0
VERTEX
  5
F4
100
AcDbEntity
  8
LIVELLO_1
 62
     7
100
AcDbVertex
100
AcDb2dVertex
 10
-14.445974
 20
2.373499
 30
0.0
  0
VERTEX
  5
F5
100
AcDbEntity
  8
LIVELLO_1
 62
     7
100
AcDbVertex
100
AcDb2dVertex
 10
-14.905895
 20
3.898642
 30
0.0
  0
SEQEND
  5
F6
100
AcDbEntity
  8
LIVELLO_1
 62
     7
  0
POLYLINE
  5
E9
100
AcDbEntity
  8
LIVELLO_1
 62
     7
100
AcDb2dPolyline
 66
     1
 10
0.0
 20
0.0
 30
0.0
 70
     1
  0
VERTEX
  5
EA
100
AcDbEntity
  8
LIVELLO_1
 62
     7
100
AcDbVertex
100
AcDb2dVertex
 10
11.493183
 20
-2.89612
 30
0.0
  0
VERTEX
  5
EB
100
AcDbEntity
  8
LIVELLO_1
 62
     7
100
AcDbVertex
100
AcDb2dVertex
 10
10.311515
 20
-3.487298
 30
0.0
  0
VERTEX
  5
EC
100
AcDbEntity
  8
LIVELLO_1
 62
     7
100
AcDbVertex
100
AcDb2dVertex
 10
10.014893
 20
-4.671377
 30
0.0
  0
VERTEX
  5
ED
100
AcDbEntity
  8
LIVELLO_1
 62
     7
100
AcDbVertex
100
AcDb2dVertex
 10
11.493183
 20
-5.261178
 30
0.0
  0
VERTEX
  5
EE
100
AcDbEntity
  8
LIVELLO_1
 62
     7
100
AcDbVertex
100
AcDb2dVertex
 10
12.085739
 20
-3.782887
 30
0.0
  0
SEQEND
  5
EF
100
AcDbEntity
  8
LIVELLO_1
 62
     7
  0
POLYLINE
  5
E2
100
AcDbEntity
  8
LIVELLO_1
 62
     7
100
AcDb2dPolyline
 66
     1
 10
0.0
 20
0.0
 30
0.0
 70
     1
  0
VERTEX
  5
E3
100
AcDbEntity
  8
LIVELLO_1
 62
     7
100
AcDbVertex
100
AcDb2dVertex
 10
2.001773
 20
-7.133242
 30
0.0
  0
VERTEX
  5
E4
100
AcDbEntity
  8
LIVELLO_1
 62
     7
100
AcDbVertex
100
AcDb2dVertex
 10
3.129525
 20
-7.827774
 30
0.0
  0
VERTEX
  5
E5
100
AcDbEntity
  8
LIVELLO_1
 62
     7
100
AcDbVertex
100
AcDb2dVertex
 10
3.319522
 20
-9.032179
 30
0.0
  0
VERTEX
  5
E6
100
AcDbEntity
  8
LIVELLO_1
 62
     7
100
AcDbVertex
100
AcDb2dVertex
 10
1.795239
 20
-9.492099
 30
0.0
  0
VERTEX
  5
E7
100
AcDbEntity
  8
LIVELLO_1
 62
     7
100
AcDbVertex
100
AcDb2dVertex
 10
1.335319
 20
-7.9673
 30
0.0
  0
SEQEND
  5
E8
100
AcDbEntity
  8
LIVELLO_1
 62
     7
  0
SPLINE
  5
E1
100
AcDbEntity
  8
LIVELLO_1
 62
     7
100
AcDbSpline
210
0.0
220
0.0
230
1.0
 70
     8
 71
     3
 72
    17
 73
    13
 74
     0
 42
0.00000001
 43
0.00000001
 40
0.0
 40
0.0
 40
0.0
 40
0.0
 40
1.0
 40
1.0
 40
1.0
 40
2.0
 40
2.0
 40
2.0
 40
3.0
 40
3.0
 40
3.0
 40
4.0
 40
4.0
 40
4.0
 40
4.0
 10
6.0153089735243048
 20
7.1284193250868046
 30
0.0
 10
6.0153089735243048
 20
7.1284193250868046
 30
0.0
 10
6.9733900282118046
 20
7.0457370334201386
 30
0.0
 10
6.9733900282118046
 20
7.0457370334201386
 30
0.0
 10
6.9733900282118046
 20
7.0457370334201386
 30
0.0
 10
6.4719563802083329
 20
4.7134073893229163
 30
0.0
 10
6.4719563802083329
 20
4.7134073893229163
 30
0.0
 10
5.8470160590277773
 20
5.2153578016493052
 30
0.0
 10
4.9838473849826386
 20
5.5130140516493054
 30
0.0
 10
5.0542995876736105
 20
6.3229560004340275
 30
0.0
 10
5.0932291666666663
 20
6.7656507703993052
 30
0.0
 10
5.8363362630208329
 20
6.7749525282118048
 30
0.0
 10
6.0153089735243048
 20
7.1284193250868046
 30
0.0
  0
SPLINE
  5
E0
100
AcDbEntity
  8
LIVELLO_1
 62
     7
100
AcDbSpline
210
0.0
220
0.0
230
1.0
 70
     8
 71
     3
 72
    20
 73
    16
 74
     0
 42
0.00000001
 43
0.00000001
 40
0.0
 40
0.0
 40
0.0
 40
0.0
 40
1.0
 40
1.0
 40
1.0
 40
2.0
 40
2.0
 40
2.0
 40
3.0
 40
3.0
 40
3.0
 40
4.0
 40
4.0
 40
4.0
 40
5.0
 40
5.0
 40
5.0
 40
5.0
 10
-18.375278049045136
 20
4.6855021158854164
 30
0.0
 10
-16.949525282118053
 20
3.6953816731770832
 30
0.0
 10
-15.876722547743054
 20
3.1259073893229163
 30
0.0
 10
-15.411979166666665
 20
1.5291056315104166
 30
0.0
 10
-17.600303819444441
 20
1.201821560329861
 30
0.0
 10
-18.703595648871527
 20
0.43563232421875
 30
0.0
 10
-20.846617296006944
 20
0.6233900282118055
 30
0.0
 10
-21.746648491753469
 20
0.7012491861979167
 30
0.0
 10
-22.405350748697913
 20
1.5790595160590277
 30
0.0
 10
-22.326285807291665
 20
2.4813300238715277
 30
0.0
 10
-22.191754828559027
 20
4.023699273003472
 30
0.0
 10
-21.169594997829858
 20
3.9703002929687496
 30
0.0
 10
-19.625847710503471
 20
3.8359415690104162
 30
0.0
 10
-19.625847710503471
 20
3.8359415690104162
 30
0.0
 10
-18.375278049045136
 20
4.6855021158854164
 30
0.0
 10
-18.375278049045136
 20
4.6855021158854164
 30
0.0
  0
SPLINE
  5
DF
100
AcDbEntity
  8
LIVELLO_1
 62
     7
100
AcDbSpline
210
0.0
220
0.0
230
1.0
 70
     8
 71
     3
 72
    20
 73
    16
 74
     0
 42
0.00000001
 43
0.00000001
 40
0.0
 40
0.0
 40
0.0
 40
0.0
 40
1.0
 40
1.0
 40
1.0
 40
2.0
 40
2.0
 40
2.0
 40
3.0
 40
3.0
 40
3.0
 40
4.0
 40
4.0
 40
4.0
 40
5.0
 40
5.0
 40
5.0
 40
5.0
 10
-13.92542046440972
 20
8.5894843207465268
 30
0.0
 10
-12.798185221354165
 20
8.1450670030381929
 30
0.0
 10
-11.652518717447915
 20
7.397481282552083
 30
0.0
 10
-11.762072753906249
 20
6.1555243598090268
 30
0.0
 10
-11.806686740451388
 20
5.641171603732638
 30
0.0
 10
-12.358935546874999
 20
5.2563544379340277
 30
0.0
 10
-12.873288302951387
 20
5.3018296983506943
 30
0.0
 10
-14.502473958333333
 20
5.444112141927083
 30
0.0
 10
-16.142339409722222
 20
6.4511135525173602
 30
0.0
 10
-16.000056966145831
 20
8.0796101888020821
 30
0.0
 10
-15.899287923177083
 20
9.23854031032986
 30
0.0
 10
-14.383618164062499
 20
9.2778143988715271
 30
0.0
 10
-13.225377061631944
 20
9.1775621202256943
 30
0.0
 10
-13.225377061631944
 20
9.1775621202256943
 30
0.0
 10
-13.92542046440972
 20
8.5894843207465268
 30
0.0
 10
-13.92542046440972
 20
8.5894843207465268
 30
0.0
  0
SPLINE
  5
DE
100
AcDbEntity
  8
LIVELLO_1
 62
     7
100
AcDbSpline
210
0.0
220
0.0
230
1.0
 70
     8
 71
     3
 72
    17
 73
    13
 74
     0
 42
0.00000001
 43
0.00000001
 40
0.0
 40
0.0
 40
0.0
 40
0.0
 40
1.0
 40
1.0
 40
1.0
 40
2.0
 40
2.0
 40
2.0
 40
3.0
 40
3.0
 40
3.0
 40
4.0
 40
4.0
 40
4.0
 40
4.0
 10
-9.1975436740451375
 20
12.090045844184028
 30
0.0
 10
-7.7015109592013884
 20
11.916413031684026
 30
0.0
 10
-5.8480495876736107
 20
11.365886773003471
 30
0.0
 10
-5.9794799804687493
 20
9.8641696506076375
 30
0.0
 10
-6.1255520290798602
 20
8.1922648111979157
 30
0.0
 10
-8.3226616753472218
 20
8.2549655490451386
 30
0.0
 10
-9.9952555338541664
 20
8.4017266167534714
 30
0.0
 10
-10.981414116753472
 20
8.48785400390625
 30
0.0
 10
-11.223087565104166
 20
9.6733113606770829
 30
0.0
 10
-11.137132432725693
 20
10.660331217447915
 30
0.0
 10
-11.069953070746527
 20
11.433066134982639
 30
0.0
 10
-9.9663167317708332
 20
12.19959988064236
 30
0.0
 10
-9.1975436740451375
 20
12.090045844184028
 30
0.0
  0
SPLINE
  5
DD
100
AcDbEntity
  8
LIVELLO_1
 62
     7
100
AcDbSpline
210
0.0
220
0.0
230
1.0
 70
     8
 71
     3
 72
    23
 73
    19
 74
     0
 42
0.00000001
 43
0.00000001
 40
0.0
 40
0.0
 40
0.0
 40
0.0
 40
1.0
 40
1.0
 40
1.0
 40
2.0
 40
2.0
 40
2.0
 40
3.0
 40
3.0
 40
3.0
 40
4.0
 40
4.0
 40
4.0
 40
5.0
 40
5.0
 40
5.0
 40
6.0
 40
6.0
 40
6.0
 40
6.0
 10
-8.0987304687499986
 20
6.5716918945312495
 30
0.0
 10
-7.925958930121527
 20
6.080421278211805
 30
0.0
 10
-7.6904866536458325
 20
5.8003350151909716
 30
0.0
 10
-7.7366509331597211
 20
5.2877048068576382
 30
0.0
 10
-7.871009657118055
 20
3.7422349717881942
 30
0.0
 10
-9.2679958767361104
 20
3.0883558485243054
 30
0.0
 10
-10.770229763454861
 20
2.700438096788194
 30
0.0
 10
-10.770229763454861
 20
2.700438096788194
 30
0.0
 10
-11.441334364149304
 20
2.9319485134548606
 30
0.0
 10
-11.441334364149304
 20
2.9319485134548606
 30
0.0
 10
-11.377255588107637
 20
3.6609307183159721
 30
0.0
 10
-11.343493652343749
 20
4.0471259223090277
 30
0.0
 10
-11.279587131076388
 20
4.7761081271701382
 30
0.0
 10
-11.186397298177083
 20
5.8475328233506936
 30
0.0
 10
-10.033496093749999
 20
6.1789510091145825
 30
0.0
 10
-8.955008951822915
 20
6.1696492513020829
 30
0.0
 10
-8.955008951822915
 20
6.1696492513020829
 30
0.0
 10
-8.0987304687499986
 20
6.5716918945312495
 30
0.0
 10
-8.0987304687499986
 20
6.5716918945312495
 30
0.0
  0
SPLINE
  5
DC
100
AcDbEntity
  8
LIVELLO_1
 62
     7
100
AcDbSpline
210
0.0
220
0.0
230
1.0
 70
     8
 71
     3
 72
    20
 73
    16
 74
     0
 42
0.00000001
 43
0.00000001
 40
0.0
 40
0.0
 40
0.0
 40
0.0
 40
1.0
 40
1.0
 40
1.0
 40
2.0
 40
2.0
 40
2.0
 40
3.0
 40
3.0
 40
3.0
 40
4.0
 40
4.0
 40
4.0
 40
5.0
 40
5.0
 40
5.0
 40
5.0
 10
-15.543409559461804
 20
-0.0353122287326389
 30
0.0
 10
-14.473535156249998
 20
-0.6468166775173611
 30
0.0
 10
-13.073620605468749
 20
-0.9424058702256943
 30
0.0
 10
-13.182141113281249
 20
-2.1860853407118053
 30
0.0
 10
-13.299618869357637
 20
-3.5138251410590273
 30
0.0
 10
-14.739496527777776
 20
-4.1659817165798607
 30
0.0
 10
-16.068958875868056
 20
-4.048848470052083
 30
0.0
 10
-17.138833279079858
 20
-3.956519911024305
 30
0.0
 10
-17.635443793402775
 20
-2.7038831922743052
 30
0.0
 10
-17.540875922309027
 20
-1.6307359483506942
 30
0.0
 10
-17.473696560329859
 20
-0.8593790690104166
 30
0.0
 10
-16.836009385850694
 20
-0.4842081705729166
 30
0.0
 10
-16.198838975694443
 20
-0.1073147243923611
 30
0.0
 10
-16.198838975694443
 20
-0.1073147243923611
 30
0.0
 10
-15.543409559461804
 20
-0.0353122287326389
 30
0.0
 10
-15.543409559461804
 20
-0.0353122287326389
 30
0.0
  0
SPLINE
  5
DB
100
AcDbEntity
  8
LIVELLO_1
 62
     7
100
AcDbSpline
210
0.0
220
0.0
230
1.0
 70
     8
 71
     3
 72
    20
 73
    16
 74
     0
 42
0.00000001
 43
0.00000001
 40
0.0
 40
0.0
 40
0.0
 40
0.0
 40
1.0
 40
1.0
 40
1.0
 40
2.0
 40
2.0
 40
2.0
 40
3.0
 40
3.0
 40
3.0
 40
4.0
 40
4.0
 40
4.0
 40
5.0
 40
5.0
 40
5.0
 40
5.0
 10
-14.849739583333331
 20
-5.926081000434027
 30
0.0
 10
-13.422264268663193
 20
-6.3966810438368054
 30
0.0
 10
-12.387702094184027
 20
-6.9193020290798604
 30
0.0
 10
-11.681629774305554
 20
-8.2329169379340268
 30
0.0
 10
-13.338031684027776
 20
-9.3842678493923604
 30
0.0
 10
-14.492138671874999
 20
-10.235206434461805
 30
0.0
 10
-16.463939073350694
 20
-10.059851074218749
 30
0.0
 10
-17.579288736979166
 20
-9.9647664388020818
 30
0.0
 10
-17.988910590277776
 20
-8.7179863823784718
 30
0.0
 10
-17.891069878472219
 20
-7.6041870117187491
 30
0.0
 10
-17.748787434895831
 20
-5.9743123372395832
 30
0.0
 10
-15.663126627604166
 20
-5.8537339952256939
 30
0.0
 10
-14.023088921440971
 20
-5.8695814344618054
 30
0.0
 10
-14.023088921440971
 20
-5.8695814344618054
 30
0.0
 10
-14.849739583333331
 20
-5.926081000434027
 30
0.0
 10
-14.849739583333331
 20
-5.926081000434027
 30
0.0
  0
SPLINE
  5
DA
100
AcDbEntity
  8
LIVELLO_1
 62
     7
100
AcDbSpline
210
0.0
220
0.0
230
1.0
 70
     8
 71
     3
 72
    17
 73
    13
 74
     0
 42
0.00000001
 43
0.00000001
 40
0.0
 40
0.0
 40
0.0
 40
0.0
 40
1.0
 40
1.0
 40
1.0
 40
2.0
 40
2.0
 40
2.0
 40
3.0
 40
3.0
 40
3.0
 40
4.0
 40
4.0
 40
4.0
 40
4.0
 10
-8.4702840169270832
 20
-3.5906507703993054
 30
0.0
 10
-7.5473429361979161
 20
-4.4071384006076384
 30
0.0
 10
-6.964777289496527
 20
-5.1485229492187496
 30
0.0
 10
-6.8591851128472214
 20
-6.4121839735243054
 30
0.0
 10
-7.9610989040798605
 20
-6.6595418294270825
 30
0.0
 10
-8.6625203450520818
 20
-6.7708184136284713
 30
0.0
 10
-9.8185221354166661
 20
-6.6705661349826384
 30
0.0
 10
-11.147984483506944
 20
-6.5544664171006941
 30
0.0
 10
-12.456604003906248
 20
-5.7052503797743048
 30
0.0
 10
-12.426114908854165
 20
-4.3678643120659721
 30
0.0
 10
-10.584194607204861
 20
-4.0536716037326386
 30
0.0
 10
-9.6746893988715268
 20
-3.5296725802951388
 30
0.0
 10
-7.8009019639756936
 20
-3.3481160481770829
 30
0.0
  0
SPLINE
  5
D9
100
AcDbEntity
  8
LIVELLO_1
 62
     7
100
AcDbSpline
210
0.0
220
0.0
230
1.0
 70
     8
 71
     3
 72
    17
 73
    13
 74
     0
 42
0.00000001
 43
0.00000001
 40
0.0
 40
0.0
 40
0.0
 40
0.0
 40
1.0
 40
1.0
 40
1.0
 40
2.0
 40
2.0
 40
2.0
 40
3.0
 40
3.0
 40
3.0
 40
4.0
 40
4.0
 40
4.0
 40
4.0
 10
-0.0447862413194444
 20
-7.5242607964409718
 30
0.0
 10
-0.9248358832465277
 20
-7.707539876302083
 30
0.0
 10
-1.5044731987847222
 20
-7.9156236436631939
 30
0.0
 10
-2.4045043945312496
 20
-7.8374199761284711
 30
0.0
 10
-3.6058091905381939
 20
-7.7309665256076379
 30
0.0
 10
-4.5561387803819438
 20
-6.7439466688368048
 30
0.0
 10
-4.4496853298611105
 20
-5.5426418728298605
 30
0.0
 10
-4.4159233940972218
 20
-5.1564466688368054
 30
0.0
 10
-4.3540839301215275
 20
-4.9452623155381943
 30
0.0
 10
-4.3635579427083329
 20
-4.5570000542534714
 30
0.0
 10
-2.3483493381076386
 20
-4.7306328667534716
 30
0.0
 10
-0.0385850694444444
 20
-5.4957885742187491
 30
0.0
 10
-0.0447862413194444
 20
-7.5242607964409718
 30
0.0
  0
SPLINE
  5
D8
100
AcDbEntity
  8
LIVELLO_1
 62
     7
100
AcDbSpline
210
0.0
220
0.0
230
1.0
 70
     8
 71
     3
 72
    17
 73
    13
 74
     0
 42
0.00000001
 43
0.00000001
 40
0.0
 40
0.0
 40
0.0
 40
0.0
 40
1.0
 40
1.0
 40
1.0
 40
2.0
 40
2.0
 40
2.0
 40
3.0
 40
3.0
 40
3.0
 40
4.0
 40
4.0
 40
4.0
 40
4.0
 10
-7.8327690972222213
 20
1.7089396158854164
 30
0.0
 10
-6.3751491970486107
 20
1.5804375542534721
 30
0.0
 10
-5.0470648871527777
 20
0.4714613172743055
 30
0.0
 10
-5.1740166558159721
 20
-0.984780544704861
 30
0.0
 10
-5.2989013671874998
 20
-2.4003702799479165
 30
0.0
 10
-7.1327256944444439
 20
-2.628435601128472
 30
0.0
 10
-8.5469373914930546
 20
-2.5051011827256944
 30
0.0
 10
-10.520115831163194
 20
-2.3345689561631944
 30
0.0
 10
-13.053983561197915
 20
-1.679311794704861
 30
0.0
 10
-12.881039767795137
 20
0.2933498806423611
 30
0.0
 10
-12.71619194878472
 20
2.1795396592881944
 30
0.0
 10
-9.7311889648437493
 20
1.7464911566840275
 30
0.0
 10
-7.8327690972222213
 20
1.7089396158854164
 30
0.0
  0
SPLINE
  5
D7
100
AcDbEntity
  8
LIVELLO_1
 62
     7
100
AcDbSpline
210
0.0
220
0.0
230
1.0
 70
     8
 71
     3
 72
    20
 73
    16
 74
     0
 42
0.00000001
 43
0.00000001
 40
0.0
 40
0.0
 40
0.0
 40
0.0
 40
1.0
 40
1.0
 40
1.0
 40
2.0
 40
2.0
 40
2.0
 40
3.0
 40
3.0
 40
3.0
 40
4.0
 40
4.0
 40
4.0
 40
5.0
 40
5.0
 40
5.0
 40
5.0
 10
-4.7108235677083332
 20
7.2679456922743046
 30
0.0
 10
-5.6978434244791663
 20
7.3554511176215271
 30
0.0
 10
-6.5079576280381941
 20
6.4748847113715273
 30
0.0
 10
-6.5964965820312491
 20
5.4892428927951382
 30
0.0
 10
-6.6667765299479163
 20
4.6727552625868052
 30
0.0
 10
-6.708289930555555
 20
4.2021552191840277
 30
0.0
 10
-6.7785698784722213
 20
3.3887681749131939
 30
0.0
 10
-6.0497599283854164
 20
3.3243448893229162
 30
0.0
 10
-5.6640814887152775
 20
3.2916164822048608
 30
0.0
 10
-4.9352715386284718
 20
3.227537706163194
 30
0.0
 10
-3.5642957899305552
 20
3.1069593641493052
 30
0.0
 10
-1.7194471571180554
 20
2.9474514431423606
 30
0.0
 10
-1.6005913628472221
 20
4.3161878797743052
 30
0.0
 10
-1.4533135308159721
 20
5.9898152669270832
 30
0.0
 10
-3.0387464735243053
 20
7.1222181532118052
 30
0.0
 10
-4.7108235677083332
 20
7.2679456922743046
 30
0.0
  0
SPLINE
  5
D6
100
AcDbEntity
  8
LIVELLO_1
 62
     7
100
AcDbSpline
210
0.0
220
0.0
230
1.0
 70
     8
 71
     3
 72
    17
 73
    13
 74
     0
 42
0.00000001
 43
0.00000001
 40
0.0
 40
0.0
 40
0.0
 40
0.0
 40
1.0
 40
1.0
 40
1.0
 40
2.0
 40
2.0
 40
2.0
 40
3.0
 40
3.0
 40
3.0
 40
4.0
 40
4.0
 40
4.0
 40
4.0
 10
2.2244981553819443
 20
8.5598564995659707
 30
0.0
 10
3.0973130967881941
 20
7.6634426540798604
 30
0.0
 10
3.5088297526041665
 20
6.9361829969618052
 30
0.0
 10
4.1947482638888882
 20
5.8833618164062491
 30
0.0
 10
3.2490695529513887
 20
4.9717895507812493
 30
0.0
 10
2.2449964735243055
 20
4.8432874891493052
 30
0.0
 10
0.9153618706597222
 20
4.959042697482638
 30
0.0
 10
-0.1560628255208333
 20
5.0530938042534714
 30
0.0
 10
-1.408010525173611
 20
5.5515991210937496
 30
0.0
 10
-1.3134426540798609
 20
6.6233683268229164
 30
0.0
 10
-1.2016493055555555
 20
7.909077962239583
 30
0.0
 10
0.9396497938368055
 20
8.6721666124131929
 30
0.0
 10
2.2244981553819443
 20
8.5598564995659707
 30
0.0
  0
SPLINE
  5
D5
100
AcDbEntity
  8
LIVELLO_1
 62
     7
100
AcDbSpline
210
0.0
220
0.0
230
1.0
 70
     8
 71
     3
 72
    14
 73
    10
 74
     0
 42
0.00000001
 43
0.00000001
 40
0.0
 40
0.0
 40
0.0
 40
0.0
 40
1.0
 40
1.0
 40
1.0
 40
2.0
 40
2.0
 40
2.0
 40
3.0
 40
3.0
 40
3.0
 40
3.0
 10
8.9879096137152761
 20
9.6939819335937489
 30
0.0
 10
8.8652642144097218
 20
8.2780476888020829
 30
0.0
 10
7.3785332573784714
 20
7.5883395724826386
 30
0.0
 10
5.9629435221354159
 20
7.7102959526909718
 30
0.0
 10
4.548215060763888
 20
7.8353529188368052
 30
0.0
 10
3.6785007052951384
 20
9.2509426540798607
 30
0.0
 10
3.8021796332465274
 20
10.665154351128471
 30
0.0
 10
3.9827026367187495
 20
12.722220865885415
 30
0.0
 10
9.1677435980902775
 20
11.748981391059028
 30
0.0
 10
8.9879096137152761
 20
9.6939819335937489
 30
0.0
  0
SPLINE
  5
D4
100
AcDbEntity
  8
LIVELLO_1
 62
     7
100
AcDbSpline
210
0.0
220
0.0
230
1.0
 70
     8
 71
     3
 72
    20
 73
    16
 74
     0
 42
0.00000001
 43
0.00000001
 40
0.0
 40
0.0
 40
0.0
 40
0.0
 40
1.0
 40
1.0
 40
1.0
 40
2.0
 40
2.0
 40
2.0
 40
3.0
 40
3.0
 40
3.0
 40
4.0
 40
4.0
 40
4.0
 40
5.0
 40
5.0
 40
5.0
 40
5.0
 10
14.355368381076387
 20
9.6092325846354161
 30
0.0
 10
14.270963541666665
 20
8.6521850585937496
 30
0.0
 10
13.502018229166666
 20
8.3469495985243043
 30
0.0
 10
12.989043511284722
 20
7.5759372287326379
 30
0.0
 10
12.989043511284722
 20
7.5759372287326379
 30
0.0
 10
9.0382080078125
 20
6.0053181966145832
 30
0.0
 10
9.0382080078125
 20
6.0053181966145832
 30
0.0
 10
9.0888509114583318
 20
6.5951185438368052
 30
0.0
 10
10.053133138020833
 20
8.7975680881076386
 30
0.0
 10
10.104809570312499
 20
9.3887464735243054
 30
0.0
 10
10.207128906249999
 20
10.568002658420138
 30
0.0
 10
11.24341362847222
 20
11.367264811197916
 30
0.0
 10
12.420602756076388
 20
11.262533908420139
 30
0.0
 10
13.380061848958333
 20
11.181229654947916
 30
0.0
 10
14.439084201388887
 20
10.568002658420138
 30
0.0
 10
14.355368381076387
 20
9.6092325846354161
 30
0.0
  0
SPLINE
  5
D3
100
AcDbEntity
  8
LIVELLO_1
 62
     7
100
AcDbSpline
210
0.0
220
0.0
230
1.0
 70
     8
 71
     3
 72
    20
 73
    16
 74
     0
 42
0.00000001
 43
0.00000001
 40
0.0
 40
0.0
 40
0.0
 40
0.0
 40
1.0
 40
1.0
 40
1.0
 40
2.0
 40
2.0
 40
2.0
 40
3.0
 40
3.0
 40
3.0
 40
4.0
 40
4.0
 40
4.0
 40
5.0
 40
5.0
 40
5.0
 40
5.0
 10
-2.1886691623263888
 20
2.1061591254340275
 30
0.0
 10
-0.1092095269097222
 20
1.2569430881076389
 30
0.0
 10
2.1700656467013886
 20
0.1662258572048611
 30
0.0
 10
1.969561089409722
 20
-2.1171834309895829
 30
0.0
 10
1.911855740017361
 20
-2.7803643120659718
 30
0.0
 10
1.1687486436631944
 20
-2.7896660698784719
 30
0.0
 10
0.6885023328993055
 20
-3.1917087131076385
 30
0.0
 10
0.6885023328993055
 20
-3.1917087131076385
 30
0.0
 10
-3.5110690646701386
 20
-2.8254950629340274
 30
0.0
 10
-3.5110690646701386
 20
-2.8254950629340274
 30
0.0
 10
-3.5064181857638888
 20
-1.9356268988715275
 30
0.0
 10
-3.6824625651041663
 20
-1.400603569878472
 30
0.0
 10
-3.6058091905381939
 20
-0.5172810872395833
 30
0.0
 10
-3.5019395616319442
 20
0.6609415690104166
 30
0.0
 10
-2.7875990125868051
 20
1.1942423502604165
 30
0.0
 10
-2.1886691623263888
 20
2.1061591254340275
 30
0.0
  0
SPLINE
  5
D2
100
AcDbEntity
  8
LIVELLO_1
 62
     7
100
AcDbSpline
210
0.0
220
0.0
230
1.0
 70
     8
 71
     3
 72
    17
 73
    13
 74
     0
 42
0.00000001
 43
0.00000001
 40
0.0
 40
0.0
 40
0.0
 40
0.0
 40
1.0
 40
1.0
 40
1.0
 40
2.0
 40
2.0
 40
2.0
 40
3.0
 40
3.0
 40
3.0
 40
4.0
 40
4.0
 40
4.0
 40
4.0
 10
9.2445692274305546
 20
-11.192253960503471
 30
0.0
 10
8.0801269531249993
 20
-11.758627658420139
 30
0.0
 10
7.1525349934895823
 20
-12.19684380425347
 30
0.0
 10
5.8244506835937493
 20
-12.082466634114581
 30
0.0
 10
4.9421617296006941
 20
-12.002195909288194
 30
0.0
 10
4.4253974066840271
 20
-11.960165744357639
 30
0.0
 10
3.5422471788194443
 20
-11.881962076822916
 30
0.0
 10
4.3861233181423609
 20
-9.8769165039062496
 30
0.0
 10
5.5522881401909716
 20
-6.7125962999131934
 30
0.0
 10
7.4651774088541663
 20
-7.7698961046006936
 30
0.0
 10
8.7398627387152779
 20
-8.4771742078993046
 30
0.0
 10
8.8439046223958329
 20
-9.8221394856770825
 30
0.0
 10
9.2445692274305546
 20
-11.192253960503471
 30
0.0
  0
SPLINE
  5
D1
100
AcDbEntity
  8
LIVELLO_1
 62
     7
100
AcDbSpline
210
0.0
220
0.0
230
1.0
 70
     8
 71
     3
 72
    20
 73
    16
 74
     0
 42
0.00000001
 43
0.00000001
 40
0.0
 40
0.0
 40
0.0
 40
0.0
 40
1.0
 40
1.0
 40
1.0
 40
2.0
 40
2.0
 40
2.0
 40
3.0
 40
3.0
 40
3.0
 40
4.0
 40
4.0
 40
4.0
 40
5.0
 40
5.0
 40
5.0
 40
5.0
 10
14.763612196180555
 20
-7.2228149414062495
 30
0.0
 10
14.763612196180555
 20
-7.2228149414062495
 30
0.0
 10
14.557250976562498
 20
-9.5799492730034714
 30
0.0
 10
14.557250976562498
 20
-9.5799492730034714
 30
0.0
 10
13.150962999131943
 20
-9.5313734266493046
 30
0.0
 10
12.342399088541665
 20
-9.4593709309895821
 30
0.0
 10
10.948513454861111
 20
-9.2623114691840271
 30
0.0
 10
10.884779188368055
 20
-8.2925170898437486
 30
0.0
 10
10.782115342881944
 20
-7.7654174804687495
 30
0.0
 10
10.566452365451388
 20
-6.8535007052951382
 30
0.0
 10
11.789461263020833
 20
-6.442156304253472
 30
0.0
 10
12.625241427951387
 20
-6.219947645399305
 30
0.0
 10
13.956770833333332
 20
-6.2588772243923607
 30
0.0
 10
13.956770833333332
 20
-6.2588772243923607
 30
0.0
 10
14.763612196180555
 20
-7.2228149414062495
 30
0.0
 10
14.763612196180555
 20
-7.2228149414062495
 30
0.0
  0
SPLINE
  5
D0
100
AcDbEntity
  8
LIVELLO_1
 62
     7
100
AcDbSpline
210
0.0
220
0.0
230
1.0
 70
     8
 71
     3
 72
    23
 73
    19
 74
     0
 42
0.00000001
 43
0.00000001
 40
0.0
 40
0.0
 40
0.0
 40
0.0
 40
1.0
 40
1.0
 40
1.0
 40
2.0
 40
2.0
 40
2.0
 40
3.0
 40
3.0
 40
3.0
 40
4.0
 40
4.0
 40
4.0
 40
5.0
 40
5.0
 40
5.0
 40
6.0
 40
6.0
 40
6.0
 40
6.0
 10
22.400699869791666
 20
-4.7919555664062496
 30
0.0
 10
22.764157443576387
 20
-5.7162746853298607
 30
0.0
 10
23.456277126736108
 20
-6.2964287651909716
 30
0.0
 10
23.366360134548611
 20
-7.3275458441840273
 30
0.0
 10
23.225800238715276
 20
-8.9477742513020821
 30
0.0
 10
21.978331163194444
 20
-10.472918023003471
 30
0.0
 10
20.357069227430554
 20
-10.329257541232638
 30
0.0
 10
19.25222710503472
 20
-10.235206434461805
 30
0.0
 10
18.588701714409719
 20
-10.175950792100693
 30
0.0
 10
17.483515082465278
 20
-10.080177137586805
 30
0.0
 10
17.483515082465278
 20
-10.080177137586805
 30
0.0
 10
17.74189724392361
 20
-7.1318644205729163
 30
0.0
 10
17.74189724392361
 20
-7.1318644205729163
 30
0.0
 10
18.883601888020831
 20
-5.9698337131076382
 30
0.0
 10
19.966050889756943
 20
-5.470639377170138
 30
0.0
 10
21.517032877604166
 20
-4.7151299370659716
 30
0.0
 10
21.517032877604166
 20
-4.7151299370659716
 30
0.0
 10
22.400699869791666
 20
-4.7919555664062496
 30
0.0
 10
22.400699869791666
 20
-4.7919555664062496
 30
0.0
  0
SPLINE
  5
CF
100
AcDbEntity
  8
LIVELLO_1
 62
     7
100
AcDbSpline
210
0.0
220
0.0
230
1.0
 70
     8
 71
     3
 72
    23
 73
    19
 74
     0
 42
0.00000001
 43
0.00000001
 40
0.0
 40
0.0
 40
0.0
 40
0.0
 40
1.0
 40
1.0
 40
1.0
 40
2.0
 40
2.0
 40
2.0
 40
3.0
 40
3.0
 40
3.0
 40
4.0
 40
4.0
 40
4.0
 40
5.0
 40
5.0
 40
5.0
 40
6.0
 40
6.0
 40
6.0
 40
6.0
 10
21.443307834201388
 20
10.28653835720486
 30
0.0
 10
21.443307834201388
 20
10.28653835720486
 30
0.0
 10
21.928032769097221
 20
9.0556057400173611
 30
0.0
 10
21.928032769097221
 20
9.0556057400173611
 30
0.0
 10
20.537592230902774
 20
8.4330769856770829
 30
0.0
 10
19.516121419270831
 20
7.7809204101562495
 30
0.0
 10
17.968584526909719
 20
7.9166571723090273
 30
0.0
 10
17.232023111979164
 20
7.9810804578993046
 30
0.0
 10
16.165077039930555
 20
7.0629625108506939
 30
0.0
 10
15.521533203124999
 20
7.341326226128472
 30
0.0
 10
15.521533203124999
 20
7.341326226128472
 30
0.0
 10
16.381773546006944
 20
10.133231608072915
 30
0.0
 10
16.381773546006944
 20
10.133231608072915
 30
0.0
 10
17.636821831597221
 20
10.913890245225694
 30
0.0
 10
18.842260742187499
 20
11.106126573350693
 30
0.0
 10
20.341566297743054
 20
11.270457628038194
 30
0.0
 10
20.341566297743054
 20
11.270457628038194
 30
0.0
 10
21.443307834201388
 20
10.28653835720486
 30
0.0
 10
21.443307834201388
 20
10.28653835720486
 30
0.0
  0
SPLINE
  5
CE
100
AcDbEntity
  8
LIVELLO_1
 62
     7
100
AcDbSpline
210
0.0
220
0.0
230
1.0
 70
     8
 71
     3
 72
    23
 73
    19
 74
     0
 42
0.00000001
 43
0.00000001
 40
0.0
 40
0.0
 40
0.0
 40
0.0
 40
1.0
 40
1.0
 40
1.0
 40
2.0
 40
2.0
 40
2.0
 40
3.0
 40
3.0
 40
3.0
 40
4.0
 40
4.0
 40
4.0
 40
5.0
 40
5.0
 40
5.0
 40
6.0
 40
6.0
 40
6.0
 40
6.0
 10
5.1619588216145829
 20
3.2416625976562496
 30
0.0
 10
5.1619588216145829
 20
3.2416625976562496
 30
0.0
 10
5.3287014431423607
 20
1.7464911566840275
 30
0.0
 10
5.3287014431423607
 20
1.7464911566840275
 30
0.0
 10
4.4121337890624996
 20
1.4540025499131943
 30
0.0
 10
3.8037299262152775
 20
1.2848483615451387
 30
0.0
 10
2.893880208333333
 20
1.0674628363715277
 30
0.0
 10
2.893880208333333
 20
1.0674628363715277
 30
0.0
 10
1.7406344943576388
 20
1.4646823459201388
 30
0.0
 10
1.7406344943576388
 20
1.4646823459201388
 30
0.0
 10
1.7406344943576388
 20
1.4646823459201388
 30
0.0
 10
1.2540147569444444
 20
2.6959594726562499
 30
0.0
 10
1.2540147569444444
 20
2.6959594726562499
 30
0.0
 10
1.2540147569444444
 20
2.6959594726562499
 30
0.0
 10
2.8056857638888886
 20
3.4511244032118054
 30
0.0
 10
2.8056857638888886
 20
3.4511244032118054
 30
0.0
 10
2.8056857638888886
 20
3.4511244032118054
 30
0.0
 10
3.7809922960069442
 20
3.5858276367187498
 30
0.0
 10
5.1619588216145829
 20
3.2416625976562496
 30
0.0
  0
SPLINE
  5
CD
100
AcDbEntity
  8
LIVELLO_1
 62
     7
100
AcDbSpline
210
0.0
220
0.0
230
1.0
 70
     8
 71
     3
 72
    20
 73
    16
 74
     0
 42
0.00000001
 43
0.00000001
 40
0.0
 40
0.0
 40
0.0
 40
0.0
 40
1.0
 40
1.0
 40
1.0
 40
2.0
 40
2.0
 40
2.0
 40
3.0
 40
3.0
 40
3.0
 40
4.0
 40
4.0
 40
4.0
 40
5.0
 40
5.0
 40
5.0
 40
5.0
 10
10.583333333333332
 20
4.6727552625868052
 30
0.0
 10
10.572653537326389
 20
3.707784016927083
 30
0.0
 10
10.742152235243054
 20
3.1007581922743053
 30
0.0
 10
10.958159722222222
 20
2.1888414171006945
 30
0.0
 10
9.8099093967013875
 20
1.7712958441840276
 30
0.0
 10
9.3086480034722214
 20
1.1456665039062499
 30
0.0
 10
8.1314588758680539
 20
1.2490193684895832
 30
0.0
 10
7.6140055338541659
 20
1.2941501193576388
 30
0.0
 10
7.2469306098090271
 20
1.3255004882812498
 30
0.0
 10
6.7317165798611107
 20
1.372353786892361
 30
0.0
 10
6.7027777777777775
 20
1.8949747721354164
 30
0.0
 10
5.8986924913194443
 20
2.038979763454861
 30
0.0
 10
5.9496799045138884
 20
2.628435601128472
 30
0.0
 10
6.1241739908854163
 20
4.617978244357638
 30
0.0
 10
8.6179063585069429
 20
5.1405992296006939
 30
0.0
 10
10.583333333333332
 20
4.6727552625868052
 30
0.0
  0
SPLINE
  5
CC
100
AcDbEntity
  8
LIVELLO_1
 62
     7
100
AcDbSpline
210
0.0
220
0.0
230
1.0
 70
     8
 71
     3
 72
    20
 73
    16
 74
     0
 42
0.00000001
 43
0.00000001
 40
0.0
 40
0.0
 40
0.0
 40
0.0
 40
1.0
 40
1.0
 40
1.0
 40
2.0
 40
2.0
 40
2.0
 40
3.0
 40
3.0
 40
3.0
 40
4.0
 40
4.0
 40
4.0
 40
5.0
 40
5.0
 40
5.0
 40
5.0
 10
6.3267456054687496
 20
-0.42012939453125
 30
0.0
 10
6.3267456054687496
 20
-0.42012939453125
 30
0.0
 10
10.164065212673611
 20
-0.6829901801215277
 30
0.0
 10
10.164065212673611
 20
-0.6829901801215277
 30
0.0
 10
10.086550564236111
 20
-1.5663126627604165
 30
0.0
 10
10.048654513888888
 20
-2.00762939453125
 30
0.0
 10
9.970450846354165
 20
-2.891640896267361
 30
0.0
 10
9.6541910807291664
 20
-6.5014119466145823
 30
0.0
 10
4.9940104166666659
 20
-6.3153767903645823
 30
0.0
 10
1.3580566406249999
 20
-6.2964287651909716
 30
0.0
 10
1.5769924587673609
 20
-3.790810818142361
 30
0.0
 10
2.9433173285590275
 20
-1.7575154622395832
 30
0.0
 10
5.3653917100694439
 20
-1.2273152669270833
 30
0.0
 10
5.3653917100694439
 20
-1.2273152669270833
 30
0.0
 10
6.3267456054687496
 20
-0.42012939453125
 30
0.0
 10
6.3267456054687496
 20
-0.42012939453125
 30
0.0
  0
POLYLINE
  5
C5
100
AcDbEntity
  8
LIVELLO_1
 62
     7
100
AcDb2dPolyline
 66
     1
 10
0.0
 20
0.0
 30
0.0
 70
     1
  0
VERTEX
  5
C6
100
AcDbEntity
  8
LIVELLO_1
 62
     7
100
AcDbVertex
100
AcDb2dVertex
 10
12.554961
 20
2.895775
 30
0.0
  0
VERTEX
  5
C7
100
AcDbEntity
  8
LIVELLO_1
 62
     7
100
AcDbVertex
100
AcDb2dVertex
 10
13.681163
 20
2.201244
 30
0.0
  0
VERTEX
  5
C8
100
AcDbEntity
  8
LIVELLO_1
 62
     7
100
AcDbVertex
100
AcDb2dVertex
 10
13.873744
 20
0.996838
 30
0.0
  0
VERTEX
  5
C9
100
AcDbEntity
  8
LIVELLO_1
 62
     7
100
AcDbVertex
100
AcDb2dVertex
 10
12.3486
 20
0.537263
 30
0.0
  0
VERTEX
  5
CA
100
AcDbEntity
  8
LIVELLO_1
 62
     7
100
AcDbVertex
100
AcDb2dVertex
 10
11.88868
 20
2.062406
 30
0.0
  0
SEQEND
  5
CB
100
AcDbEntity
  8
LIVELLO_1
 62
     7
  0
SPLINE
  5
C4
100
AcDbEntity
  8
LIVELLO_1
 62
     7
100
AcDbSpline
210
0.0
220
0.0
230
1.0
 70
     8
 71
     3
 72
    23
 73
    19
 74
     0
 42
0.00000001
 43
0.00000001
 40
0.0
 40
0.0
 40
0.0
 40
0.0
 40
1.0
 40
1.0
 40
1.0
 40
2.0
 40
2.0
 40
2.0
 40
3.0
 40
3.0
 40
3.0
 40
4.0
 40
4.0
 40
4.0
 40
5.0
 40
5.0
 40
5.0
 40
6.0
 40
6.0
 40
6.0
 40
6.0
 10
22.094775390624999
 20
5.2391289605034714
 30
0.0
 10
22.094775390624999
 20
5.2391289605034714
 30
0.0
 10
22.876812065972221
 20
3.9830471462673609
 30
0.0
 10
22.876812065972221
 20
3.9830471462673609
 30
0.0
 10
21.886691623263886
 20
3.6984822591145829
 30
0.0
 10
21.325830078124998
 20
3.2292602539062498
 30
0.0
 10
20.294368489583331
 20
3.3181437174479163
 30
0.0
 10
19.262906901041664
 20
3.4073716905381941
 30
0.0
 10
18.747520616319441
 20
3.4528469509548607
 30
0.0
 10
17.716059027777778
 20
3.5451755099826388
 30
0.0
 10
17.700900607638886
 20
4.2128350151909721
 30
0.0
 10
17.511075846354164
 20
4.5993747287326388
 30
0.0
 10
17.568264431423611
 20
5.2625556098090271
 30
0.0
 10
17.71743706597222
 20
6.9596096462673609
 30
0.0
 10
19.959849717881944
 20
7.1318644205729163
 30
0.0
 10
21.641056315104166
 20
6.8376532660590268
 30
0.0
 10
21.641056315104166
 20
6.8376532660590268
 30
0.0
 10
22.094775390624999
 20
5.2391289605034714
 30
0.0
 10
22.094775390624999
 20
5.2391289605034714
 30
0.0
  0
SPLINE
  5
C3
100
AcDbEntity
  8
LIVELLO_1
 62
     7
100
AcDbSpline
210
0.0
220
0.0
230
1.0
 70
     8
 71
     3
 72
    26
 73
    22
 74
     0
 42
0.00000001
 43
0.00000001
 40
0.0
 40
0.0
 40
0.0
 40
0.0
 40
1.0
 40
1.0
 40
1.0
 40
2.0
 40
2.0
 40
2.0
 40
3.0
 40
3.0
 40
3.0
 40
4.0
 40
4.0
 40
4.0
 40
5.0
 40
5.0
 40
5.0
 40
6.0
 40
6.0
 40
6.0
 40
7.0
 40
7.0
 40
7.0
 40
7.0
 10
14.538302951388888
 20
5.0231214735243048
 30
0.0
 10
14.538302951388888
 20
5.0231214735243048
 30
0.0
 10
15.985932074652776
 20
4.5976521809895825
 30
0.0
 10
15.985932074652776
 20
4.5976521809895825
 30
0.0
 10
15.985932074652776
 20
4.5976521809895825
 30
0.0
 10
16.176790364583333
 20
3.3949693467881943
 30
0.0
 10
16.176790364583333
 20
3.3949693467881943
 30
0.0
 10
15.433338758680554
 20
3.3853230794270832
 30
0.0
 10
14.972384982638888
 20
3.2023885091145829
 30
0.0
 10
14.235823567708332
 20
3.2668117947048607
 30
0.0
 10
13.424503580729166
 20
3.3367472330729164
 30
0.0
 10
13.276019965277776
 20
4.1673597547743055
 30
0.0
 10
12.718603515624999
 20
4.586972384982638
 30
0.0
 10
12.718603515624999
 20
4.586972384982638
 30
0.0
 10
12.82746853298611
 20
5.8396091037326388
 30
0.0
 10
12.82746853298611
 20
5.8396091037326388
 30
0.0
 10
12.82746853298611
 20
5.8396091037326388
 30
0.0
 10
14.057367621527776
 20
6.3260565863715268
 30
0.0
 10
14.057367621527776
 20
6.3260565863715268
 30
0.0
 10
14.057367621527776
 20
6.3260565863715268
 30
0.0
 10
14.538302951388888
 20
5.0231214735243048
 30
0.0
 10
14.538302951388888
 20
5.0231214735243048
 30
0.0
  0
SPLINE
  5
C2
100
AcDbEntity
  8
LIVELLO_1
 62
     7
100
AcDbSpline
210
0.0
220
0.0
230
1.0
 70
     8
 71
     3
 72
    17
 73
    13
 74
     0
 42
0.00000001
 43
0.00000001
 40
0.0
 40
0.0
 40
0.0
 40
0.0
 40
1.0
 40
1.0
 40
1.0
 40
2.0
 40
2.0
 40
2.0
 40
3.0
 40
3.0
 40
3.0
 40
4.0
 40
4.0
 40
4.0
 40
4.0
 10
19.158865017361109
 20
-4.5118693033854163
 30
0.0
 10
17.977197265624998
 20
-5.2987291124131941
 30
0.0
 10
17.187236870659721
 20
-5.8241061740451388
 30
0.0
 10
15.787494574652776
 20
-5.7021497938368046
 30
0.0
 10
14.019127061631943
 20
-5.5474650065104161
 30
0.0
 10
12.675539822048609
 20
-3.9441175672743052
 30
0.0
 10
12.830224609375
 20
-2.1764390733506942
 30
0.0
 10
12.978363715277776
 20
-0.4824856228298611
 30
0.0
 10
15.429893663194443
 20
1.2331719292534722
 30
0.0
 10
16.597436523437498
 20
0.1662258572048611
 30
0.0
 10
18.035763888888887
 20
-1.2207695855034721
 30
0.0
 10
18.200783962673608
 20
-2.7193861219618052
 30
0.0
 10
19.158865017361109
 20
-4.5118693033854163
 30
0.0
  0
LINE
  5
C1
100
AcDbEntity
  8
LIVELLO_1
 62
     7
100
AcDbLine
 10
15.420592
 20
0.268201
 30
0.0
 11
16.597437
 21
0.166226
 31
0.0
  0
SPLINE
  5
C0
100
AcDbEntity
  8
LIVELLO_1
 62
     7
100
AcDbSpline
210
0.0
220
0.0
230
1.0
 70
     8
 71
     3
 72
    14
 73
    10
 74
     0
 42
0.00000001
 43
0.00000001
 40
0.0
 40
0.0
 40
0.0
 40
0.0
 40
1.0
 40
1.0
 40
1.0
 40
2.0
 40
2.0
 40
2.0
 40
3.0
 40
3.0
 40
3.0
 40
3.0
 10
22.833059353298609
 20
-2.1158053927951386
 30
0.0
 10
22.391398111979164
 20
-2.0765313042534719
 30
0.0
 10
22.145073784722221
 20
-2.3535169813368055
 30
0.0
 10
21.702034505208331
 20
-2.312520345052083
 30
0.0
 10
19.270830620659719
 20
-2.101335991753472
 30
0.0
 10
17.978919813368055
 20
0.0911227756076389
 30
0.0
 10
17.594102647569443
 20
2.5002780490451388
 30
0.0
 10
20.347767469618052
 20
2.5564331054687499
 30
0.0
 10
22.181591796874997
 20
0.6137437608506944
 30
0.0
 10
22.833059353298609
 20
-2.1158053927951386
 30
0.0
  0
SPLINE
  5
BF
100
AcDbEntity
  8
LIVELLO_1
 62
     7
100
AcDbSpline
210
0.0
220
0.0
230
1.0
 70
     8
 71
     3
 72
    20
 73
    16
 74
     0
 42
0.00000001
 43
0.00000001
 40
0.0
 40
0.0
 40
0.0
 40
0.0
 40
1.0
 40
1.0
 40
1.0
 40
2.0
 40
2.0
 40
2.0
 40
3.0
 40
3.0
 40
3.0
 40
4.0
 40
4.0
 40
4.0
 40
5.0
 40
5.0
 40
5.0
 40
5.0
 10
-21.006814236111108
 20
8.2311943901909714
 30
0.0
 10
-22.169017198350691
 20
7.8870293511284713
 30
0.0
 10
-23.374283854166663
 20
7.2427964952256936
 30
0.0
 10
-23.374283854166663
 20
5.9929158528645825
 30
0.0
 10
-23.374283854166663
 20
5.476496039496527
 30
0.0
 10
-22.858208550347221
 20
5.046892632378472
 30
0.0
 10
-22.341099717881942
 20
5.046892632378472
 30
0.0
 10
-20.705712890624998
 20
5.046892632378472
 30
0.0
 10
-18.983681911892358
 20
5.9085110134548602
 30
0.0
 10
-18.983681911892358
 20
7.5414862738715271
 30
0.0
 10
-18.983681911892358
 20
8.7052395290798597
 30
0.0
 10
-20.490738932291666
 20
8.8771497938368054
 30
0.0
 10
-21.652252875434026
 20
8.8771497938368054
 30
0.0
 10
-21.652252875434026
 20
8.8771497938368054
 30
0.0
 10
-21.006814236111108
 20
8.2311943901909714
 30
0.0
 10
-21.006814236111108
 20
8.2311943901909714
 30
0.0
  0
ENDBLK
  5
F7
100
AcDbEntity
  8
LIVELLO_1
100
AcDbBlockEnd
  0
BLOCK
  5
FA
100
AcDbEntity
  8
LIVELLO_1
 62
     7
100
AcDbBlockBegin
  2
AI9-BLK3
 70
     0
 10
0.0
 20
0.0
 30
0.0
  3
AI9-BLK3
  1

  0
INSERT
  5
108
100
AcDbEntity
  8
LIVELLO_1
 62
     7
100
AcDbBlockReference
  2
AI9-BLK4
 10
-0.046164
 20
0.0
 30
0.0
  0
POLYLINE
  5
101
100
AcDbEntity
  8
LIVELLO_1
 62
     7
100
AcDb2dPolyline
 66
     1
 10
0.0
 20
0.0
 30
0.0
 70
     1
  0
VERTEX
  5
102
100
AcDbEntity
  8
LIVELLO_1
 62
     7
100
AcDbVertex
100
AcDb2dVertex
 10
-20.624495
 20
-36.528089
 30
0.0
  0
VERTEX
  5
103
100
AcDbEntity
  8
LIVELLO_1
 62
     7
100
AcDbVertex
100
AcDb2dVertex
 10
-35.38225
 20
-36.528089
 30
0.0
  0
VERTEX
  5
104
100
AcDbEntity
  8
LIVELLO_1
 62
     7
100
AcDbVertex
100
AcDb2dVertex
 10
-35.38225
 20
36.545659
 30
0.0
  0
VERTEX
  5
105
100
AcDbEntity
  8
LIVELLO_1
 62
     7
100
AcDbVertex
100
AcDb2dVertex
 10
-20.624495
 20
36.545659
 30
0.0
  0
SEQEND
  5
106
100
AcDbEntity
  8
LIVELLO_1
 62
     7
  0
POLYLINE
  5
FB
100
AcDbEntity
  8
LIVELLO_1
 62
     7
100
AcDb2dPolyline
 66
     1
 10
0.0
 20
0.0
 30
0.0
 70
     1
  0
VERTEX
  5
FC
100
AcDbEntity
  8
LIVELLO_1
 62
     7
100
AcDbVertex
100
AcDb2dVertex
 10
20.734738
 20
-36.528089
 30
0.0
  0
VERTEX
  5
FD
100
AcDbEntity
  8
LIVELLO_1
 62
     7
100
AcDbVertex
100
AcDb2dVertex
 10
35.492493
 20
-36.528089
 30
0.0
  0
VERTEX
  5
FE
100
AcDbEntity
  8
LIVELLO_1
 62
     7
100
AcDbVertex
100
AcDb2dVertex
 10
35.492493
 20
36.545659
 30
0.0
  0
VERTEX
  5
FF
100
AcDbEntity
  8
LIVELLO_1
 62
     7
100
AcDbVertex
100
AcDb2dVertex
 10
20.734738
 20
36.545659
 30
0.0
  0
SEQEND
  5
100
100
AcDbEntity
  8
LIVELLO_1
 62
     7
  0
ENDBLK
  5
10F
100
AcDbEntity
  8
LIVELLO_1
100
AcDbBlockEnd
  0
BLOCK
  5
109
100
AcDbEntity
  8
LIVELLO_1
 62
     7
100
AcDbBlockBegin
  2
AI9-BLK4
 70
     0
 10
0.0
 20
0.0
 30
0.0
  3
AI9-BLK4
  1

  0
INSERT
  5
10B
100
AcDbEntity
  8
LIVELLO_1
 62
     7
100
AcDbBlockReference
  2
AI9-BLK5
 10
0.0
 20
0.000172
 30
0.0
  0
ENDBLK
  5
10E
100
AcDbEntity
  8
LIVELLO_1
100
AcDbBlockEnd
  0
BLOCK
  5
10C
100
AcDbEntity
  8
LIVELLO_1
 62
     7
100
AcDbBlockBegin
  2
AI9-BLK5
 70
     0
 10
0.0
 20
0.0
 30
0.0
  3
AI9-BLK5
  1

  0
ENDBLK
  5
10D
100
AcDbEntity
  8
LIVELLO_1
100
AcDbBlockEnd
  0
ENDSEC
  0
SECTION
  2
ENTITIES
  0
INSERT
  5
2B
100
AcDbEntity
  8
LIVELLO_1
 62
     7
100
AcDbBlockReference
  2
AI9-BLK1
 10
110.039537
 20
161.426753
 30
0.0
  0
MTEXT
  5
29
100
AcDbEntity
  8
LIVELLO_1
 62
     7
100
AcDbMText
 10
86.572149
 20
92.737146
 30
0.0
 40
7.349421
 41
0.0
 71
     1
 72
     2
  1
\fCourier|b0|i0;\H7.3494;\C7;\U+00F8\U+0020\U+0038\U+0035
  7
STD
210
0.0
220
0.0
230
1.0
 73
     1
 44
1.0
  0
ENDSEC
  0
SECTION
  2
OBJECTS
  0
DICTIONARY
  5
19
100
AcDbDictionary
280
     0
281
     1
  3
ACAD_GROUP
350
1A
  3
ACAD_MLINESTYLE
350
1B
  3
ACAD_LAYOUT
350
1E
  3
ACAD_PLOTSETTINGS
350
22
  3
ACAD_PLOTSTYLENAME
350
1F
  3
ACAD_WIPEOUT_VARS
350
23
  0
DICTIONARY
  5
1A
102
{ACAD_REACTORS
330
19
102
}
100
AcDbDictionary
280
     0
281
     1
  0
DICTIONARY
  5
1B
102
{ACAD_REACTORS
330
19
102
}
100
AcDbDictionary
280
     0
281
     1
  3
Standard
350
1C
  0
MLINESTYLE
  5
1C
102
{ACAD_REACTORS
330
1B
102
}
100
AcDbMlineStyle
  2
Standard
 70
     0
  3

 62
     0
 51
90.0
 52
90.0
 71
     2
 49
0.5
 62
   256
  6
ByLayer
 49
-0.5
 62
   256
  6
ByLayer
  0
ACDBDICTIONARYWDFLT
  5
1F
102
{ACAD_REACTORS
330
19
102
}
100
AcDbDictionary
281
     1
  3
Normal
350
1D
100
AcDbDictionaryWithDefault
340
1D
  0
ACDBPLACEHOLDER
  5
1D
102
{ACAD_REACTORS
330
1F
102
}
  0
LAYOUT
  5
20
102
{ACAD_REACTORS
330
1E
102
}
100
AcDbPlotSettings
  1

  2

  4

  6

 40
0.0
 41
0.0
 42
0.0
 43
0.0
 44
0.0
 45
0.0
 46
0.0
 47
0.0
 48
0.0
 49
0.0
140
0.0
141
0.0
142
1.0
143
1.0
 70
  1024
 72
     0
 73
     0
 74
     0
  7

 75
     0
147
1.0
148
0.0
149
0.0
100
AcDbLayout
  1
Model
 70
     0
 71
     0
 10
0.0
 20
0.0
 11
0.0
 21
0.0
 12
0.0
 22
0.0
 32
0.0
 14
0.0
 24
0.0
 34
0.0
 15
0.0
 25
0.0
 35
0.0
146
0.0
 13
0.0
 23
0.0
 33
0.0
 16
0.0
 26
0.0
 36
0.0
 17
0.0
 27
0.0
 37
0.0
 76
     0
330
A
331
0
345
0
346
0
  0
LAYOUT
  5
21
102
{ACAD_REACTORS
330
1E
102
}
100
AcDbPlotSettings
  1

  2

  4

  6

 40
0.0
 41
0.0
 42
0.0
 43
0.0
 44
0.0
 45
0.0
 46
0.0
 47
0.0
 48
0.0
 49
0.0
140
0.0
141
0.0
142
1.0
143
1.0
 70
     0
 72
     0
 73
     0
 74
     0
  7

 75
     0
147
1.0
148
0.0
149
0.0
100
AcDbLayout
  1
Layout1
 70
     0
 71
     0
 10
0.0
 20
0.0
 11
0.0
 21
0.0
 12
0.0
 22
0.0
 32
0.0
 14
0.0
 24
0.0
 34
0.0
 15
0.0
 25
0.0
 35
0.0
146
0.0
 13
0.0
 23
0.0
 33
0.0
 16
0.0
 26
0.0
 36
0.0
 17
0.0
 27
0.0
 37
0.0
 76
     0
330
B
331
0
345
0
346
0
  0
DICTIONARY
  5
1E
102
{ACAD_REACTORS
330
19
102
}
100
AcDbDictionary
280
     0
281
     1
  3
Layout1
350
21
  3
Model
350
20
  0
DICTIONARY
  5
22
102
{ACAD_REACTORS
330
19
102
}
100
AcDbDictionary
280
     0
281
     1
  0
WIPEOUTVARIABLES
  5
23
100
AcDbWipeoutVariables
 70
     1
  0
ENDSEC
  0
EOF
