  0
SECTION
  2
HEADER
  9
$ACADVER
  1
AC1015
  9
$ACADMAINTVER
 70
     6
  9
$DWGCODEPAGE
  3
ANSI_932
  9
$INSBASE
 10
0.0
 20
0.0
 30
0.0
  9
$EXTMIN
 10
65.544664
 20
86.04126
 30
1.000000E+20
  9
$EXTMAX
 10
160.879069
 20
263.577882
 30
-1.000000E+20
  9
$LIMMIN
 10
65.544664
 20
86.04126
  9
$LIMMAX
 10
160.879069
 20
263.577882
  9
$ORTHOMODE
 70
     0
  9
$REGENMODE
 70
     1
  9
$FILLMODE
 70
     1
  9
$QTEXTMODE
 70
     0
  9
$MIRRTEXT
 70
     1
  9
$LTSCALE
 40
1.0
  9
$ATTMODE
 70
     1
  9
$TEXTSIZE
 40
0.2
  9
$TRACEWID
 40
0.05
  9
$TEXTSTYLE
  7
Standard
  9
$CLAYER
  8
0
  9
$CELTYPE
  6
Continuous
  9
$CECOLOR
 62
   256
  9
$CELTSCALE
 40
1.0
  9
$DISPSILH
 70
     0
  9
$DIMSCALE
 40
1.0
  9
$DIMASZ
 40
0.18
  9
$DIMEXO
 40
0.0625
  9
$DIMDLI
 40
0.38
  9
$DIMRND
 40
0.0
  9
$DIMDLE
 40
0.0
  9
$DIMEXE
 40
0.18
  9
$DIMTP
 40
0.0
  9
$DIMTM
 40
0.0
  9
$DIMTXT
 40
0.18
  9
$DIMCEN
 40
0.09
  9
$DIMTSZ
 40
0.0
  9
$DIMTOL
 70
     0
  9
$DIMLIM
 70
     0
  9
$DIMTIH
 70
     1
  9
$DIMTOH
 70
     1
  9
$DIMSE1
 70
     0
  9
$DIMSE2
 70
     0
  9
$DIMTAD
 70
     0
  9
$DIMZIN
 70
     0
  9
$DIMBLK
  1

  9
$DIMASO
 70
     1
  9
$DIMSHO
 70
     1
  9
$DIMPOST
  1

  9
$DIMAPOST
  1

  9
$DIMALT
 70
     0
  9
$DIMALTD
 70
     2
  9
$DIMALTF
 40
25.4
  9
$DIMLFAC
 40
1.0
  9
$DIMTOFL
 70
     0
  9
$DIMTVP
 40
0.0
  9
$DIMTIX
 70
     0
  9
$DIMSOXD
 70
     0
  9
$DIMSAH
 70
     0
  9
$DIMBLK1
  1

  9
$DIMBLK2
  1

  9
$DIMSTYLE
  2
Standard
  9
$DIMCLRD
 70
     0
  9
$DIMCLRE
 70
     0
  9
$DIMCLRT
 70
     0
  9
$DIMTFAC
 40
1.0
  9
$DIMGAP
 40
0.09
  9
$DIMJUST
 70
     0
  9
$DIMSD1
 70
     0
  9
$DIMSD2
 70
     0
  9
$DIMTOLJ
 70
     1
  9
$DIMTZIN
 70
     0
  9
$DIMALTZ
 70
     0
  9
$DIMALTTZ
 70
     0
  9
$DIMUPT
 70
     0
  9
$DIMDEC
 70
     4
  9
$DIMTDEC
 70
     4
  9
$DIMALTU
 70
     2
  9
$DIMALTTD
 70
     2
  9
$DIMTXSTY
  7
Standard
  9
$DIMAUNIT
 70
     0
  9
$DIMADEC
 70
     0
  9
$DIMALTRND
 40
0.0
  9
$DIMAZIN
 70
     0
  9
$DIMDSEP
 70
     0
  9
$DIMATFIT
 70
     3
  9
$DIMFRAC
 70
     0
  9
$DIMLDRBLK
  1

  9
$DIMLUNIT
 70
     2
  9
$DIMLWD
 70
     0
  9
$DIMLWE
 70
     0
  9
$DIMTMOVE
 70
     0
  9
$LUNITS
 70
     2
  9
$LUPREC
 70
     4
  9
$SKETCHINC
 40
0.1
  9
$FILLETRAD
 40
0.0
  9
$AUNITS
 70
     0
  9
$AUPREC
 70
     0
  9
$MENU
  1
acad
  9
$ELEVATION
 40
0.0
  9
$PELEVATION
 40
0.0
  9
$THICKNESS
 40
0.0
  9
$LIMCHECK
 70
     0
  9
$CHAMFERA
 40
0.0
  9
$CHAMFERB
 40
0.0
  9
$CHAMFERC
 40
0.0
  9
$CHAMFERD
 40
0.0
  9
$SKPOLY
 70
     0
  9
$TDCREATE
 40
0.000000000
  9
$TDUCREATE
 40
0.000000000
  9
$TDUPDATE
 40
0.000000000
  9
$TDUUPDATE
 40
0.000000000
  9
$TDINDWG
 40
0.0000000000
  9
$TDUSRTIMER
 40
0.0000000000
  9
$USRTIMER
 70
     1
  9
$ANGBASE
 50
0.0
  9
$ANGDIR
 70
     0
  9
$PDMODE
 70
     0
  9
$PDSIZE
 40
0.0
  9
$PLINEWID
 40
0.0
  9
$SPLFRAME
 70
     0
  9
$SPLINETYPE
 70
     6
  9
$SPLINESEGS
 70
     8
  9
$HANDSEED
  5
137
  9
$SURFTAB1
 70
     6
  9
$SURFTAB2
 70
     6
  9
$SURFTYPE
 70
     6
  9
$SURFU
 70
     6
  9
$SURFV
 70
     6
  9
$UCSBASE
  2

  9
$UCSNAME
  2

  9
$UCSORG
 10
0.0
 20
0.0
 30
0.0
  9
$UCSXDIR
 10
1.0
 20
0.0
 30
0.0
  9
$UCSYDIR
 10
0.0
 20
1.0
 30
0.0
  9
$UCSORTHOREF
  2

  9
$UCSORTHOVIEW
 70
     0
  9
$UCSORGTOP
 10
0.0
 20
0.0
 30
0.0
  9
$UCSORGBOTTOM
 10
0.0
 20
0.0
 30
0.0
  9
$UCSORGLEFT
 10
0.0
 20
0.0
 30
0.0
  9
$UCSORGRIGHT
 10
0.0
 20
0.0
 30
0.0
  9
$UCSORGFRONT
 10
0.0
 20
0.0
 30
0.0
  9
$UCSORGBACK
 10
0.0
 20
0.0
 30
0.0
  9
$PUCSBASE
  2

  9
$PUCSNAME
  2

  9
$PUCSORG
 10
0.0
 20
0.0
 30
0.0
  9
$PUCSXDIR
 10
1.0
 20
0.0
 30
0.0
  9
$PUCSYDIR
 10
0.0
 20
1.0
 30
0.0
  9
$PUCSORTHOREF
  2

  9
$PUCSORTHOVIEW
 70
     0
  9
$PUCSORGTOP
 10
0.0
 20
0.0
 30
0.0
  9
$PUCSORGBOTTOM
 10
0.0
 20
0.0
 30
0.0
  9
$PUCSORGLEFT
 10
0.0
 20
0.0
 30
0.0
  9
$PUCSORGRIGHT
 10
0.0
 20
0.0
 30
0.0
  9
$PUCSORGFRONT
 10
0.0
 20
0.0
 30
0.0
  9
$PUCSORGBACK
 10
0.0
 20
0.0
 30
0.0
  9
$USERI1
 70
     0
  9
$USERI2
 70
     0
  9
$USERI3
 70
     0
  9
$USERI4
 70
     0
  9
$USERI5
 70
     0
  9
$USERR1
 40
0.0
  9
$USERR2
 40
0.0
  9
$USERR3
 40
0.0
  9
$USERR4
 40
0.0
  9
$USERR5
 40
0.0
  9
$WORLDVIEW
 70
     1
  9
$SHADEDGE
 70
     3
  9
$SHADEDIF
 70
    70
  9
$TILEMODE
 70
     1
  9
$MAXACTVP
 70
    16
  9
$PINSBASE
 10
0.0
 20
0.0
 30
0.0
  9
$PLIMCHECK
 70
     0
  9
$PEXTMIN
 10
1.000000E+20
 20
1.000000E+20
 30
1.000000E+20
  9
$PEXTMAX
 10
-1.000000E+20
 20
-1.000000E+20
 30
-1.000000E+20
  9
$PLIMMIN
 10
0.0
 20
0.0
  9
$PLIMMAX
 10
12.0
 20
9.0
  9
$UNITMODE
 70
     0
  9
$VISRETAIN
 70
     0
  9
$PLINEGEN
 70
     1
  9
$PSLTSCALE
 70
     0
  9
$TREEDEPTH
 70
  3020
  9
$CMLSTYLE
  2
Standard
  9
$CMLJUST
 70
     0
  9
$CMLSCALE
 40
1.0
  9
$PROXYGRAPHICS
 70
     0
  9
$MEASUREMENT
 70
     1
  9
$CELWEIGHT
370
     0
  9
$ENDCAPS
280
     0
  9
$JOINSTYLE
280
     0
  9
$LWDISPLAY
290
     0
  9
$INSUNITS
 70
     0
  9
$HYPERLINKBASE
  1

  9
$STYLESHEET
  1

  9
$XEDIT
290
     1
  9
$CEPSNTYPE
380
     0
  9
$PSTYLEMODE
290
     1
  9
$FINGERPRINTGUID
  2

  9
$VERSIONGUID
  2

  9
$EXTNAMES
290
     1
  9
$PSVPSCALE
 40
0.0
  0
ENDSEC
  0
SECTION
  2
CLASSES
  0
CLASS
  1
LWPOLYLINE
  2
AcDbPolyline
  3
AutoCAD 2000
 90
    32768
280
     0
281
     1
  0
CLASS
  1
IMAGE
  2
AcDbRasterImage
  3
ISM
 90
    32895
280
     0
281
     1
  0
CLASS
  1
OLE2FRAME
  2
AcDbOle2Frame
  3
AutoCAD 2000
 90
    32768
280
     0
281
     1
  0
CLASS
  1
HATCH
  2
AcDbHatch
  3
AutoCAD 2000
 90
    32768
280
     0
281
     1
  0
CLASS
  1
DICTIONARYVAR
  2
AcDbDictionaryVar
  3
AutoCAD 2000
 90
    32768
280
     0
281
     0
  0
CLASS
  1
RASTERVARIABLES
  2
AcDbRasterVariables
  3
ISM
 90
    32768
280
     0
281
     0
  0
CLASS
  1
IMAGEDEF
  2
AcDbRasterImageDef
  3
ISM
 90
    32768
280
     0
281
     0
  0
CLASS
  1
IMAGEDEF_REACTOR
  2
AcDbRasterImageDefReactor
  3
ISM
 90
    32769
280
     0
281
     0
  0
CLASS
  1
IDBUFFER
  2
AcDbIdBuffer
  3
AutoCAD 2000
 90
    32768
280
     0
281
     0
  0
CLASS
  1
SPATIAL_FILTER
  2
AcDbSpatialFilter
  3
AutoCAD 2000
 90
    32768
280
     0
281
     0
  0
CLASS
  1
XRECORD
  2
AcDbXrecord
  3
AutoCAD 2000
 90
    32768
280
     0
281
     0
  0
CLASS
  1
SORTENTSTABLE
  2
AcDbSortentsTable
  3
AutoCAD 2000
 90
    32768
280
     0
281
     0
  0
CLASS
  1
LAYER_INDEX
  2
AcDbLayerIndex
  3
AutoCAD 2000
 90
    32768
280
     0
281
     0
  0
CLASS
  1
SPATIAL_INDEX
  2
AcDbSpatialIndex
  3
AutoCAD 2000
 90
    32768
280
     0
281
     0
  0
CLASS
  1
OBJECT_PTR
  2
CAseDLPNTableRecord
  3
"ASE-LPNTableRecord"
 90
    32769
280
     0
281
     0
  0
CLASS
  1
LAYOUT
  2
AcDbLayout
  3
AutoCAD 2000
 90
        0
280
     0
281
     0
  0
CLASS
  1
PLOTSETTINGS
  2
AcDbPlotSettings
  3
AutoCAD 2000
 90
    32768
280
     0
281
     0
  0
CLASS
  1
ACDBDICTIONARYWDFLT
  2
AcDbDictionaryWithDefault
  3
AutoCAD 2000
 90
        0
280
     0
281
     0
  0
CLASS
  1
ACDBPLACEHOLDER
  2
AcDbPlaceHolder
  3
AutoCAD 2000
 90
        0
280
     0
281
     0
  0
CLASS
  1
VBA_PROJECT
  2
AcDbVbaProject
  3
acadvba
 90
    32768
280
     0
281
     0
  0
CLASS
  1
WIPEOUT
  2
AcDbWipeout
  3
WipeOut|AutoCAD Express Tool|expresstools@autodesk.com
 90
    32895
280
     0
281
     1
  0
CLASS
  1
WIPEOUTVARIABLES
  2
AcDbWipeoutVariables
  3
WipeOut|AutoCAD Express Tool|expresstools@autodesk.com
 90
        0
280
     0
281
     0
  0
CLASS
  1
RTEXT
  2
RText
  3
RText|AutoCAD Express Tool|expresstools@autodesk.com
 90
    32768
280
     0
281
     1
  0
CLASS
  1
ARCALIGNEDTEXT
  2
AcDbArcAlignedText
  3
ATEXT|AutoCAD Express Tool|expresstools@autodesk.com
 90
    32768
280
     0
281
     1
  0
ENDSEC
  0
SECTION
  2
TABLES
  0
TABLE
  2
VPORT
  5
7
100
AcDbSymbolTable
 70
     1
  0
VPORT
  5
15
100
AcDbSymbolTableRecord
100
AcDbViewportTableRecord
  2
*ACTIVE
 70
     0
 10
0.0
 20
0.0
 11
1.0
 21
1.0
 12
6.591288
 22
4.579184
 13
0.0
 23
0.0
 14
1.0
 24
1.0
 15
0.0
 25
0.0
 16
0.0
 26
0.0
 36
1.0
 17
0.0
 27
0.0
 37
0.0
 40
9.158369
 41
0.688564
 42
50.0
 43
0.0
 44
0.0
 50
0.0
 51
0.0
 71
     0
 72
   100
 73
     1
 74
     1
 75
     0
 76
     0
 77
     0
 78
     0
281
     0
 65
     0
110
0.0
120
0.0
130
0.0
111
1.0
121
0.0
131
0.0
112
0.0
122
1.0
132
0.0
345
0
346
0
 79
     0
146
0.0
  0
ENDTAB
  0
TABLE
  2
LTYPE
  5
4
100
AcDbSymbolTable
 70
     3
  0
LTYPE
  5
11
100
AcDbSymbolTableRecord
100
AcDbLinetypeTableRecord
  2
ByBlock
 70
    64
  3

 72
    65
 73
     0
 40
0.0
  0
LTYPE
  5
12
100
AcDbSymbolTableRecord
100
AcDbLinetypeTableRecord
  2
ByLayer
 70
    64
  3

 72
    65
 73
     0
 40
0.0
  0
LTYPE
  5
13
100
AcDbSymbolTableRecord
100
AcDbLinetypeTableRecord
  2
Continuous
 70
    64
  3
Solid line
 72
    65
 73
     0
 40
0.0
  0
ENDTAB
  0
TABLE
  2
LAYER
  5
2
100
AcDbSymbolTable
 70
     2
  0
LAYER
  5
14
100
AcDbSymbolTableRecord
100
AcDbLayerTableRecord
  2
0
 70
     0
 62
     7
  6
Continuous
290
     1
370
    -3
390
1D
  0
LAYER
  5
28
100
AcDbSymbolTableRecord
100
AcDbLayerTableRecord
  2
LIVELLO_1
 70
     0
 62
   160
  6
Continuous
290
     1
370
    -3
390
1D
  0
ENDTAB
  0
TABLE
  2
STYLE
  5
3
100
AcDbSymbolTable
 70
     5
  0
STYLE
  5
17
100
AcDbSymbolTableRecord
100
AcDbTextStyleTableRecord
  2
Standard
 70
     0
 40
0.0
 41
1.0
 50
0.0
 71
     0
 42
0.0
  3
txt
  4

  0
STYLE
  5
24
100
AcDbSymbolTableRecord
100
AcDbTextStyleTableRecord
  2
STD
 70
     0
 40
0.0
 41
1.0
 50
0.0
 71
     0
 42
0.0
  3
txt
  4

  0
STYLE
  5
25
100
AcDbSymbolTableRecord
100
AcDbTextStyleTableRecord
  2
TATESTD
 70
     4
 40
0.0
 41
1.0
 50
0.0
 71
     0
 42
0.0
  3
txt
  4

  0
STYLE
  5
26
100
AcDbSymbolTableRecord
100
AcDbTextStyleTableRecord
  2
KANJISTD
 70
     0
 40
0.0
 41
1.0
 50
0.0
 71
     0
 42
0.0
  3
txt
  4
extfont
  0
STYLE
  5
27
100
AcDbSymbolTableRecord
100
AcDbTextStyleTableRecord
  2
KANJITATE
 70
     4
 40
0.0
 41
1.0
 50
0.0
 71
     0
 42
0.0
  3
txt
  4
extfont
  0
ENDTAB
  0
TABLE
  2
VIEW
  5
5
100
AcDbSymbolTable
 70
     0
  0
ENDTAB
  0
TABLE
  2
UCS
  5
6
100
AcDbSymbolTable
 70
     0
  0
ENDTAB
  0
TABLE
  2
APPID
  5
8
100
AcDbSymbolTable
 70
     1
  0
APPID
  5
16
100
AcDbSymbolTableRecord
100
AcDbRegAppTableRecord
  2
ACAD
 70
     0
  0
ENDTAB
  0
TABLE
  2
DIMSTYLE
  5
9
100
AcDbSymbolTable
 70
     1
100
AcDbDimStyleTable
 71
     0
  0
DIMSTYLE
105
18
100
AcDbSymbolTableRecord
100
AcDbDimStyleTableRecord
  2
Standard
 70
     0
  3

  4

 40
1.0
 41
0.18
 42
0.0625
 43
0.38
 44
0.18
 45
0.0
 46
0.0
 47
0.0
 48
0.0
 71
     0
 72
     0
 73
     1
 74
     1
 75
     0
 76
     0
 77
     0
 78
     0
 79
     0
140
0.18
141
0.09
142
0.0
143
25.4
144
1.0
145
0.0
146
1.0
147
0.09
148
0.0
170
     0
171
     2
172
     0
173
     0
174
     0
175
     0
176
     0
177
     0
178
     0
179
     0
271
     4
272
     4
273
     2
274
     2
275
     0
276
     0
277
     2
278
    46
279
     0
280
     0
281
     0
282
     0
283
     1
284
     0
285
     0
286
     0
288
     0
340
17
341
0
342
0
343
0
344
0
371
    -2
372
    -2
  0
ENDTAB
  0
TABLE
  2
BLOCK_RECORD
  5
1
100
AcDbSymbolTable
 70
     5
  0
BLOCK_RECORD
  5
A
100
AcDbSymbolTableRecord
100
AcDbBlockTableRecord
  2
*MODEL_SPACE
340
20
  0
BLOCK_RECORD
  5
B
100
AcDbSymbolTableRecord
100
AcDbBlockTableRecord
  2
*PAPER_SPACE
340
21
  0
BLOCK_RECORD
  5
29
100
AcDbSymbolTableRecord
100
AcDbBlockTableRecord
  2
AI9-BLK1
340
0
102
{BLKREFS
331
2A
102
}
  0
BLOCK_RECORD
  5
ED
100
AcDbSymbolTableRecord
100
AcDbBlockTableRecord
  2
AI9-BLK2
340
0
102
{BLKREFS
331
EE
102
}
  0
BLOCK_RECORD
  5
11E
100
AcDbSymbolTableRecord
100
AcDbBlockTableRecord
  2
AI9-BLK3
340
0
102
{BLKREFS
331
11F
102
}
  0
BLOCK_RECORD
  5
12D
100
AcDbSymbolTableRecord
100
AcDbBlockTableRecord
  2
AI9-BLK4
340
0
102
{BLKREFS
331
12E
102
}
  0
BLOCK_RECORD
  5
130
100
AcDbSymbolTableRecord
100
AcDbBlockTableRecord
  2
AI9-BLK5
340
0
102
{BLKREFS
331
131
102
}
  0
ENDTAB
  0
ENDSEC
  0
SECTION
  2
BLOCKS
  0
BLOCK
  5
D
100
AcDbEntity
  8
0
100
AcDbBlockBegin
  2
*MODEL_SPACE
 70
     0
 10
0.0
 20
0.0
 30
0.0
  3
*MODEL_SPACE
  1

  0
ENDBLK
  5
E
100
AcDbEntity
  8
0
100
AcDbBlockEnd
  0
BLOCK
  5
F
100
AcDbEntity
 67
     1
  8
0
100
AcDbBlockBegin
  2
*PAPER_SPACE
 70
     0
 10
0.0
 20
0.0
 30
0.0
  3
*PAPER_SPACE
  1

  0
ENDBLK
  5
10
100
AcDbEntity
 67
     1
  8
0
100
AcDbBlockEnd
  0
BLOCK
  5
2B
100
AcDbEntity
  8
LIVELLO_1
 62
     7
100
AcDbBlockBegin
  2
AI9-BLK1
 70
     0
 10
0.0
 20
0.0
 30
0.0
  3
AI9-BLK1
  1

  0
INSERT
  5
11F
100
AcDbEntity
  8
LIVELLO_1
 62
     7
100
AcDbBlockReference
  2
AI9-BLK3
 10
-9.811804
 20
-33.269201
 30
0.0
  0
INSERT
  5
EE
100
AcDbEntity
  8
LIVELLO_1
 62
     7
100
AcDbBlockReference
  2
AI9-BLK2
 10
-7.086734
 20
-58.52623
 30
0.0
  0
LINE
  5
EC
100
AcDbEntity
  8
LIVELLO_1
 62
     7
100
AcDbLine
 10
12.165838
 20
4.665951
 30
0.0
 11
27.899934
 21
4.665951
 31
0.0
  0
LINE
  5
EB
100
AcDbEntity
  8
LIVELLO_1
 62
     7
100
AcDbLine
 10
-31.932762
 20
4.665951
 30
0.0
 11
-47.667202
 21
4.665951
 31
0.0
  0
LINE
  5
EA
100
AcDbEntity
  8
LIVELLO_1
 62
     7
100
AcDbLine
 10
-30.806388
 20
-56.935973
 30
0.0
 11
11.039292
 21
-56.935973
 31
0.0
  0
POLYLINE
  5
E4
100
AcDbEntity
  8
LIVELLO_1
 62
     7
100
AcDb2dPolyline
 66
     1
 10
0.0
 20
0.0
 30
0.0
 70
     1
  0
VERTEX
  5
E5
100
AcDbEntity
  8
LIVELLO_1
 62
     7
100
AcDbVertex
100
AcDb2dVertex
 10
12.165838
 20
-5.689489
 30
0.0
  0
VERTEX
  5
E6
100
AcDbEntity
  8
LIVELLO_1
 62
     7
100
AcDbVertex
100
AcDb2dVertex
 10
11.039292
 20
-5.689489
 30
0.0
  0
VERTEX
  5
E7
100
AcDbEntity
  8
LIVELLO_1
 62
     7
100
AcDbVertex
100
AcDb2dVertex
 10
11.039292
 20
-56.935973
 30
0.0
  0
VERTEX
  5
E8
100
AcDbEntity
  8
LIVELLO_1
 62
     7
100
AcDbVertex
100
AcDb2dVertex
 10
12.165838
 20
-56.935973
 30
0.0
  0
SEQEND
  5
E9
100
AcDbEntity
  8
LIVELLO_1
 62
     7
  0
POLYLINE
  5
DE
100
AcDbEntity
  8
LIVELLO_1
 62
     7
100
AcDb2dPolyline
 66
     1
 10
0.0
 20
0.0
 30
0.0
 70
     1
  0
VERTEX
  5
DF
100
AcDbEntity
  8
LIVELLO_1
 62
     7
100
AcDbVertex
100
AcDb2dVertex
 10
-31.932762
 20
-5.689489
 30
0.0
  0
VERTEX
  5
E0
100
AcDbEntity
  8
LIVELLO_1
 62
     7
100
AcDbVertex
100
AcDb2dVertex
 10
-30.806388
 20
-5.689489
 30
0.0
  0
VERTEX
  5
E1
100
AcDbEntity
  8
LIVELLO_1
 62
     7
100
AcDbVertex
100
AcDb2dVertex
 10
-30.806388
 20
-56.935973
 30
0.0
  0
VERTEX
  5
E2
100
AcDbEntity
  8
LIVELLO_1
 62
     7
100
AcDbVertex
100
AcDb2dVertex
 10
-31.932762
 20
-56.935973
 30
0.0
  0
SEQEND
  5
E3
100
AcDbEntity
  8
LIVELLO_1
 62
     7
  0
LINE
  5
DD
100
AcDbEntity
  8
LIVELLO_1
 62
     7
100
AcDbLine
 10
-2.69906
 20
-3.787452
 30
0.0
 11
-6.070431
 21
-3.787452
 31
0.0
  0
LINE
  5
DC
100
AcDbEntity
  8
LIVELLO_1
 62
     7
100
AcDbLine
 10
-17.067864
 20
-3.787452
 30
0.0
 11
-13.696494
 21
-3.787452
 31
0.0
  0
SPLINE
  5
DB
100
AcDbEntity
  8
LIVELLO_1
 62
     7
100
AcDbSpline
210
0.0
220
0.0
230
1.0
 70
     8
 71
     3
 72
    20
 73
    16
 74
     0
 42
0.00000001
 43
0.00000001
 40
0.0
 40
0.0
 40
0.0
 40
0.0
 40
1.0
 40
1.0
 40
1.0
 40
2.0
 40
2.0
 40
2.0
 40
3.0
 40
3.0
 40
3.0
 40
4.0
 40
4.0
 40
4.0
 40
5.0
 40
5.0
 40
5.0
 40
5.0
 10
-6.840753851996527
 20
-30.366363525390621
 30
0.0
 10
-6.840753851996527
 20
-30.366363525390621
 30
0.0
 10
-6.8490220811631941
 20
-30.591328260633677
 30
0.0
 10
-6.8490220811631941
 20
-30.591328260633677
 30
0.0
 10
-6.8490220811631941
 20
-31.198698594835065
 30
0.0
 10
-7.3127319335937493
 20
-31.691002739800343
 30
0.0
 10
-7.9202745225694438
 20
-31.691002739800343
 30
0.0
 10
-7.9202745225694438
 20
-31.691002739800343
 30
0.0
 10
-11.857329644097222
 20
-31.691002739800343
 30
0.0
 10
-11.857329644097222
 20
-31.691002739800343
 30
0.0
 10
-12.46314968532986
 20
-31.691002739800343
 30
0.0
 10
-12.92978786892361
 20
-31.198698594835065
 30
0.0
 10
-12.92978786892361
 20
-30.591328260633677
 30
0.0
 10
-12.92978786892361
 20
-30.591328260633677
 30
0.0
 10
-12.92978786892361
 20
-30.323644341362844
 30
0.0
 10
-12.92978786892361
 20
-30.323644341362844
 30
0.0
  0
SPLINE
  5
DA
100
AcDbEntity
  8
LIVELLO_1
 62
     7
100
AcDbSpline
210
0.0
220
0.0
230
1.0
 70
     8
 71
     3
 72
    20
 73
    16
 74
     0
 42
0.00000001
 43
0.00000001
 40
0.0
 40
0.0
 40
0.0
 40
0.0
 40
1.0
 40
1.0
 40
1.0
 40
2.0
 40
2.0
 40
2.0
 40
3.0
 40
3.0
 40
3.0
 40
4.0
 40
4.0
 40
4.0
 40
5.0
 40
5.0
 40
5.0
 40
5.0
 10
-6.8159491644965273
 20
-29.530583360460067
 30
0.0
 10
-6.8159491644965273
 20
-29.530583360460067
 30
0.0
 10
-6.8211168077256934
 20
-29.755203586154511
 30
0.0
 10
-6.8211168077256934
 20
-29.755203586154511
 30
0.0
 10
-6.8211168077256934
 20
-30.360851372612846
 30
0.0
 10
-7.3127319335937493
 20
-30.854878065321177
 30
0.0
 10
-7.9202745225694438
 20
-30.854878065321177
 30
0.0
 10
-7.9202745225694438
 20
-30.854878065321177
 30
0.0
 10
-11.857329644097222
 20
-30.854878065321177
 30
0.0
 10
-11.857329644097222
 20
-30.854878065321177
 30
0.0
 10
-12.46314968532986
 20
-30.854878065321177
 30
0.0
 10
-12.956315104166665
 20
-30.360851372612846
 30
0.0
 10
-12.956315104166665
 20
-29.755203586154511
 30
0.0
 10
-12.956315104166665
 20
-29.755203586154511
 30
0.0
 10
-12.956315104166665
 20
-29.484074571397567
 30
0.0
 10
-12.956315104166665
 20
-29.484074571397567
 30
0.0
  0
LINE
  5
D9
100
AcDbEntity
  8
LIVELLO_1
 62
     7
100
AcDbLine
 10
-17.606333
 20
-47.682102
 30
0.0
 11
-13.818106
 21
-49.743992
 31
0.0
  0
LINE
  5
D8
100
AcDbEntity
  8
LIVELLO_1
 62
     7
100
AcDbLine
 10
-13.818106
 20
-47.682102
 30
0.0
 11
-17.606333
 21
-49.743992
 31
0.0
  0
LINE
  5
D7
100
AcDbEntity
  8
LIVELLO_1
 62
     7
100
AcDbLine
 10
-17.606333
 20
-47.682102
 30
0.0
 11
-21.395766
 21
-49.743992
 31
0.0
  0
LINE
  5
D6
100
AcDbEntity
  8
LIVELLO_1
 62
     7
100
AcDbLine
 10
-21.395766
 20
-47.682102
 30
0.0
 11
-17.606333
 21
-49.743992
 31
0.0
  0
POLYLINE
  5
D0
100
AcDbEntity
  8
LIVELLO_1
 62
     7
100
AcDb2dPolyline
 66
     1
 10
0.0
 20
0.0
 30
0.0
 70
     1
  0
VERTEX
  5
D1
100
AcDbEntity
  8
LIVELLO_1
 62
     7
100
AcDbVertex
100
AcDb2dVertex
 10
-21.395766
 20
-47.682102
 30
0.0
  0
VERTEX
  5
D2
100
AcDbEntity
  8
LIVELLO_1
 62
     7
100
AcDbVertex
100
AcDb2dVertex
 10
-17.606333
 20
-47.682102
 30
0.0
  0
VERTEX
  5
D3
100
AcDbEntity
  8
LIVELLO_1
 62
     7
100
AcDbVertex
100
AcDb2dVertex
 10
-17.606333
 20
-49.743992
 30
0.0
  0
VERTEX
  5
D4
100
AcDbEntity
  8
LIVELLO_1
 62
     7
100
AcDbVertex
100
AcDb2dVertex
 10
-21.395766
 20
-49.743992
 30
0.0
  0
SEQEND
  5
D5
100
AcDbEntity
  8
LIVELLO_1
 62
     7
  0
POLYLINE
  5
CA
100
AcDbEntity
  8
LIVELLO_1
 62
     7
100
AcDb2dPolyline
 66
     1
 10
0.0
 20
0.0
 30
0.0
 70
     1
  0
VERTEX
  5
CB
100
AcDbEntity
  8
LIVELLO_1
 62
     7
100
AcDbVertex
100
AcDb2dVertex
 10
-17.606333
 20
-47.682102
 30
0.0
  0
VERTEX
  5
CC
100
AcDbEntity
  8
LIVELLO_1
 62
     7
100
AcDbVertex
100
AcDb2dVertex
 10
-13.818106
 20
-47.682102
 30
0.0
  0
VERTEX
  5
CD
100
AcDbEntity
  8
LIVELLO_1
 62
     7
100
AcDbVertex
100
AcDb2dVertex
 10
-13.818106
 20
-49.743992
 30
0.0
  0
VERTEX
  5
CE
100
AcDbEntity
  8
LIVELLO_1
 62
     7
100
AcDbVertex
100
AcDb2dVertex
 10
-17.606333
 20
-49.743992
 30
0.0
  0
SEQEND
  5
CF
100
AcDbEntity
  8
LIVELLO_1
 62
     7
  0
SPLINE
  5
C9
100
AcDbEntity
  8
LIVELLO_1
 62
     7
100
AcDbSpline
210
0.0
220
0.0
230
1.0
 70
     8
 71
     3
 72
    23
 73
    19
 74
     0
 42
0.00000001
 43
0.00000001
 40
0.0
 40
0.0
 40
0.0
 40
0.0
 40
1.0
 40
1.0
 40
1.0
 40
2.0
 40
2.0
 40
2.0
 40
3.0
 40
3.0
 40
3.0
 40
4.0
 40
4.0
 40
4.0
 40
5.0
 40
5.0
 40
5.0
 40
6.0
 40
6.0
 40
6.0
 40
6.0
 10
-13.81810574001736
 20
-49.743992106119784
 30
0.0
 10
-13.81810574001736
 20
-49.743992106119784
 30
0.0
 10
-13.81810574001736
 20
-50.197366672092009
 30
0.0
 10
-13.81810574001736
 20
-50.197366672092009
 30
0.0
 10
-13.81810574001736
 20
-50.804737006293401
 30
0.0
 10
-14.307653808593749
 20
-51.295318603515618
 30
0.0
 10
-14.916918945312499
 20
-51.295318603515618
 30
0.0
 10
-14.916918945312499
 20
-51.295318603515618
 30
0.0
 10
-20.296607801649305
 20
-51.295318603515618
 30
0.0
 10
-20.296607801649305
 20
-51.295318603515618
 30
0.0
 10
-20.904150390624999
 20
-51.295318603515618
 30
0.0
 10
-21.395765516493054
 20
-50.804737006293401
 30
0.0
 10
-21.395765516493054
 20
-50.197366672092009
 30
0.0
 10
-21.395765516493054
 20
-50.197366672092009
 30
0.0
 10
-21.395765516493054
 20
-49.743992106119784
 30
0.0
 10
-21.395765516493054
 20
-49.743992106119784
 30
0.0
 10
-21.395765516493054
 20
-49.743992106119784
 30
0.0
 10
-13.81810574001736
 20
-49.743992106119784
 30
0.0
 10
-13.81810574001736
 20
-49.743992106119784
 30
0.0
  0
POLYLINE
  5
C3
100
AcDbEntity
  8
LIVELLO_1
 62
     7
100
AcDb2dPolyline
 66
     1
 10
0.0
 20
0.0
 30
0.0
 70
     1
  0
VERTEX
  5
C4
100
AcDbEntity
  8
LIVELLO_1
 62
     7
100
AcDbVertex
100
AcDb2dVertex
 10
-21.395766
 20
-46.642717
 30
0.0
  0
VERTEX
  5
C5
100
AcDbEntity
  8
LIVELLO_1
 62
     7
100
AcDbVertex
100
AcDb2dVertex
 10
-13.818106
 20
-46.642717
 30
0.0
  0
VERTEX
  5
C6
100
AcDbEntity
  8
LIVELLO_1
 62
     7
100
AcDbVertex
100
AcDb2dVertex
 10
-13.818106
 20
-47.682102
 30
0.0
  0
VERTEX
  5
C7
100
AcDbEntity
  8
LIVELLO_1
 62
     7
100
AcDbVertex
100
AcDb2dVertex
 10
-21.395766
 20
-47.682102
 30
0.0
  0
SEQEND
  5
C8
100
AcDbEntity
  8
LIVELLO_1
 62
     7
  0
LINE
  5
C2
100
AcDbEntity
  8
LIVELLO_1
 62
     7
100
AcDbLine
 10
-15.138439
 20
-43.780532
 30
0.0
 11
-15.138439
 21
-45.504113
 31
0.0
  0
LINE
  5
C1
100
AcDbEntity
  8
LIVELLO_1
 62
     7
100
AcDbLine
 10
-15.720143
 20
-43.780532
 30
0.0
 11
-15.720143
 21
-45.504113
 31
0.0
  0
LINE
  5
C0
100
AcDbEntity
  8
LIVELLO_1
 62
     7
100
AcDbLine
 10
-19.4908
 20
-43.780532
 30
0.0
 11
-19.4908
 21
-45.504113
 31
0.0
  0
LINE
  5
BF
100
AcDbEntity
  8
LIVELLO_1
 62
     7
100
AcDbLine
 10
-20.073538
 20
-43.780532
 30
0.0
 11
-20.073538
 21
-45.504113
 31
0.0
  0
POLYLINE
  5
B9
100
AcDbEntity
  8
LIVELLO_1
 62
     7
100
AcDb2dPolyline
 66
     1
 10
0.0
 20
0.0
 30
0.0
 70
     1
  0
VERTEX
  5
BA
100
AcDbEntity
  8
LIVELLO_1
 62
     7
100
AcDbVertex
100
AcDb2dVertex
 10
-21.061764
 20
-45.504113
 30
0.0
  0
VERTEX
  5
BB
100
AcDbEntity
  8
LIVELLO_1
 62
     7
100
AcDbVertex
100
AcDb2dVertex
 10
-14.151763
 20
-45.504113
 30
0.0
  0
VERTEX
  5
BC
100
AcDbEntity
  8
LIVELLO_1
 62
     7
100
AcDbVertex
100
AcDb2dVertex
 10
-14.151763
 20
-46.642717
 30
0.0
  0
VERTEX
  5
BD
100
AcDbEntity
  8
LIVELLO_1
 62
     7
100
AcDbVertex
100
AcDb2dVertex
 10
-21.061764
 20
-46.642717
 30
0.0
  0
SEQEND
  5
BE
100
AcDbEntity
  8
LIVELLO_1
 62
     7
  0
POLYLINE
  5
B3
100
AcDbEntity
  8
LIVELLO_1
 62
     7
100
AcDb2dPolyline
 66
     1
 10
0.0
 20
0.0
 30
0.0
 70
     1
  0
VERTEX
  5
B4
100
AcDbEntity
  8
LIVELLO_1
 62
     7
100
AcDbVertex
100
AcDb2dVertex
 10
-21.634855
 20
-43.780532
 30
0.0
  0
VERTEX
  5
B5
100
AcDbEntity
  8
LIVELLO_1
 62
     7
100
AcDbVertex
100
AcDb2dVertex
 10
-13.577121
 20
-43.780532
 30
0.0
  0
VERTEX
  5
B6
100
AcDbEntity
  8
LIVELLO_1
 62
     7
100
AcDbVertex
100
AcDb2dVertex
 10
-13.577121
 20
-45.504113
 30
0.0
  0
VERTEX
  5
B7
100
AcDbEntity
  8
LIVELLO_1
 62
     7
100
AcDbVertex
100
AcDb2dVertex
 10
-21.634855
 20
-45.504113
 30
0.0
  0
SEQEND
  5
B8
100
AcDbEntity
  8
LIVELLO_1
 62
     7
  0
SPLINE
  5
B2
100
AcDbEntity
  8
LIVELLO_1
 62
     7
100
AcDbSpline
210
0.0
220
0.0
230
1.0
 70
     8
 71
     3
 72
    23
 73
    19
 74
     0
 42
0.00000001
 43
0.00000001
 40
0.0
 40
0.0
 40
0.0
 40
0.0
 40
1.0
 40
1.0
 40
1.0
 40
2.0
 40
2.0
 40
2.0
 40
3.0
 40
3.0
 40
3.0
 40
4.0
 40
4.0
 40
4.0
 40
5.0
 40
5.0
 40
5.0
 40
6.0
 40
6.0
 40
6.0
 40
6.0
 10
0.5872165256076388
 20
-42.494822184244789
 30
0.0
 10
0.5872165256076388
 20
-42.494822184244789
 30
0.0
 10
0.5872165256076388
 20
-43.291672770182288
 30
0.0
 10
0.5872165256076388
 20
-43.291672770182288
 30
0.0
 10
0.5872165256076388
 20
-43.899043104383679
 30
0.0
 10
0.0938788519965278
 20
-44.391691758897565
 30
0.0
 10
-0.5117689344618055
 20
-44.391691758897565
 30
0.0
 10
-0.5117689344618055
 20
-44.391691758897565
 30
0.0
 10
-2.7565931532118051
 20
-44.391691758897565
 30
0.0
 10
-2.7565931532118051
 20
-44.391691758897565
 30
0.0
 10
-3.3643079969618053
 20
-44.391691758897565
 30
0.0
 10
-3.8555786132812497
 20
-43.899043104383679
 30
0.0
 10
-3.8555786132812497
 20
-43.291672770182288
 30
0.0
 10
-3.8555786132812497
 20
-43.291672770182288
 30
0.0
 10
-3.8555786132812497
 20
-42.494822184244789
 30
0.0
 10
-3.8555786132812497
 20
-42.494822184244789
 30
0.0
 10
-3.8555786132812497
 20
-42.494822184244789
 30
0.0
 10
0.5872165256076388
 20
-42.494822184244789
 30
0.0
 10
0.5872165256076388
 20
-42.494822184244789
 30
0.0
  0
LINE
  5
B1
100
AcDbEntity
  8
LIVELLO_1
 62
     7
100
AcDbLine
 10
-9.289355
 20
-42.494822
 30
0.0
 11
-9.289355
 21
-43.780532
 31
0.0
  0
LINE
  5
B0
100
AcDbEntity
  8
LIVELLO_1
 62
     7
100
AcDbLine
 10
-10.445013
 20
-42.494822
 30
0.0
 11
-10.445013
 21
-43.780532
 31
0.0
  0
LINE
  5
AF
100
AcDbEntity
  8
LIVELLO_1
 62
     7
100
AcDbLine
 10
-13.321151
 20
-42.494822
 30
0.0
 11
-13.321151
 21
-43.780532
 31
0.0
  0
POLYLINE
  5
A9
100
AcDbEntity
  8
LIVELLO_1
 62
     7
100
AcDb2dPolyline
 66
     1
 10
0.0
 20
0.0
 30
0.0
 70
     1
  0
VERTEX
  5
AA
100
AcDbEntity
  8
LIVELLO_1
 62
     7
100
AcDbVertex
100
AcDb2dVertex
 10
-21.937679
 20
-42.494822
 30
0.0
  0
VERTEX
  5
AB
100
AcDbEntity
  8
LIVELLO_1
 62
     7
100
AcDbVertex
100
AcDb2dVertex
 10
-3.855579
 20
-42.494822
 30
0.0
  0
VERTEX
  5
AC
100
AcDbEntity
  8
LIVELLO_1
 62
     7
100
AcDbVertex
100
AcDb2dVertex
 10
-3.855579
 20
-43.780532
 30
0.0
  0
VERTEX
  5
AD
100
AcDbEntity
  8
LIVELLO_1
 62
     7
100
AcDbVertex
100
AcDb2dVertex
 10
-21.937679
 20
-43.780532
 30
0.0
  0
SEQEND
  5
AE
100
AcDbEntity
  8
LIVELLO_1
 62
     7
  0
SPLINE
  5
A8
100
AcDbEntity
  8
LIVELLO_1
 62
     7
100
AcDbSpline
210
0.0
220
0.0
230
1.0
 70
     8
 71
     3
 72
    20
 73
    16
 74
     0
 42
0.00000001
 43
0.00000001
 40
0.0
 40
0.0
 40
0.0
 40
0.0
 40
1.0
 40
1.0
 40
1.0
 40
2.0
 40
2.0
 40
2.0
 40
3.0
 40
3.0
 40
3.0
 40
4.0
 40
4.0
 40
4.0
 40
5.0
 40
5.0
 40
5.0
 40
5.0
 10
4.2142130533854161
 20
0.7431932237413194
 30
0.0
 10
4.2142130533854161
 20
0.7431932237413194
 30
0.0
 10
-2.6990600585937496
 20
0.7431932237413194
 30
0.0
 10
-2.6990600585937496
 20
0.7431932237413194
 30
0.0
 10
-2.6990600585937496
 20
0.7431932237413194
 30
0.0
 10
-2.6990600585937496
 20
-4.885403781467013
 30
0.0
 10
-2.6990600585937496
 20
-4.885403781467013
 30
0.0
 10
-2.6990600585937496
 20
-4.2761386447482632
 30
0.0
 10
-2.2057223849826388
 20
-3.7838344997829858
 30
0.0
 10
-1.6000745985243054
 20
-3.7838344997829858
 30
0.0
 10
-1.6000745985243054
 20
-3.7838344997829858
 30
0.0
 10
4.1091376410590277
 20
-3.7838344997829858
 30
0.0
 10
4.1091376410590277
 20
-3.7838344997829858
 30
0.0
 10
4.1091376410590277
 20
-3.7838344997829858
 30
0.0
 10
4.2142130533854161
 20
0.7431932237413194
 30
0.0
 10
4.2142130533854161
 20
0.7431932237413194
 30
0.0
  0
SPLINE
  5
A7
100
AcDbEntity
  8
LIVELLO_1
 62
     7
100
AcDbSpline
210
0.0
220
0.0
230
1.0
 70
     8
 71
     3
 72
    20
 73
    16
 74
     0
 42
0.00000001
 43
0.00000001
 40
0.0
 40
0.0
 40
0.0
 40
0.0
 40
1.0
 40
1.0
 40
1.0
 40
2.0
 40
2.0
 40
2.0
 40
3.0
 40
3.0
 40
3.0
 40
4.0
 40
4.0
 40
4.0
 40
5.0
 40
5.0
 40
5.0
 40
5.0
 10
-23.981481933593749
 20
0.7431932237413194
 30
0.0
 10
-23.981481933593749
 20
0.7431932237413194
 30
0.0
 10
-17.067864312065971
 20
0.7431932237413194
 30
0.0
 10
-17.067864312065971
 20
0.7431932237413194
 30
0.0
 10
-17.067864312065971
 20
0.7431932237413194
 30
0.0
 10
-17.067864312065971
 20
-4.885403781467013
 30
0.0
 10
-17.067864312065971
 20
-4.885403781467013
 30
0.0
 10
-17.067864312065971
 20
-4.2761386447482632
 30
0.0
 10
-17.56120198567708
 20
-3.7838344997829858
 30
0.0
 10
-18.16702202690972
 20
-3.7838344997829858
 30
0.0
 10
-18.16702202690972
 20
-3.7838344997829858
 30
0.0
 10
-23.877784559461805
 20
-3.7838344997829858
 30
0.0
 10
-23.877784559461805
 20
-3.7838344997829858
 30
0.0
 10
-23.877784559461805
 20
-3.7838344997829858
 30
0.0
 10
-23.981481933593749
 20
0.7431932237413194
 30
0.0
 10
-23.981481933593749
 20
0.7431932237413194
 30
0.0
  0
SPLINE
  5
A6
100
AcDbEntity
  8
LIVELLO_1
 62
     7
100
AcDbSpline
210
0.0
220
0.0
230
1.0
 70
     8
 71
     3
 72
    23
 73
    19
 74
     0
 42
0.00000001
 43
0.00000001
 40
0.0
 40
0.0
 40
0.0
 40
0.0
 40
1.0
 40
1.0
 40
1.0
 40
2.0
 40
2.0
 40
2.0
 40
3.0
 40
3.0
 40
3.0
 40
4.0
 40
4.0
 40
4.0
 40
5.0
 40
5.0
 40
5.0
 40
6.0
 40
6.0
 40
6.0
 40
6.0
 10
-7.7643839518229161
 20
0.7431932237413194
 30
0.0
 10
-7.7643839518229161
 20
0.7431932237413194
 30
0.0
 10
-7.7643839518229161
 20
-2.6876051161024304
 30
0.0
 10
-7.7643839518229161
 20
-2.6876051161024304
 30
0.0
 10
-7.7643839518229161
 20
-3.2949754503038191
 30
0.0
 10
-8.2577216254340264
 20
-3.7874518500434022
 30
0.0
 10
-8.8635416666666664
 20
-3.7874518500434022
 30
0.0
 10
-8.8635416666666664
 20
-3.7874518500434022
 30
0.0
 10
-10.907172309027777
 20
-3.7874518500434022
 30
0.0
 10
-10.907172309027777
 20
-3.7874518500434022
 30
0.0
 10
-11.51471489800347
 20
-3.7874518500434022
 30
0.0
 10
-12.006330023871527
 20
-3.2949754503038191
 30
0.0
 10
-12.006330023871527
 20
-2.6876051161024304
 30
0.0
 10
-12.006330023871527
 20
-2.6876051161024304
 30
0.0
 10
-12.006330023871527
 20
0.7431932237413194
 30
0.0
 10
-12.006330023871527
 20
0.7431932237413194
 30
0.0
 10
-12.006330023871527
 20
0.7431932237413194
 30
0.0
 10
-7.7643839518229161
 20
0.7431932237413194
 30
0.0
 10
-7.7643839518229161
 20
0.7431932237413194
 30
0.0
  0
POLYLINE
  5
A0
100
AcDbEntity
  8
LIVELLO_1
 62
     7
100
AcDb2dPolyline
 66
     1
 10
0.0
 20
0.0
 30
0.0
 70
     1
  0
VERTEX
  5
A1
100
AcDbEntity
  8
LIVELLO_1
 62
     7
100
AcDbVertex
100
AcDb2dVertex
 10
8.997384
 20
0.743193
 30
0.0
  0
VERTEX
  5
A2
100
AcDbEntity
  8
LIVELLO_1
 62
     7
100
AcDbVertex
100
AcDb2dVertex
 10
4.214213
 20
0.743193
 30
0.0
  0
VERTEX
  5
A3
100
AcDbEntity
  8
LIVELLO_1
 62
     7
100
AcDbVertex
100
AcDb2dVertex
 10
4.109138
 20
-3.787452
 30
0.0
  0
VERTEX
  5
A4
100
AcDbEntity
  8
LIVELLO_1
 62
     7
100
AcDbVertex
100
AcDb2dVertex
 10
8.997384
 20
-3.787452
 30
0.0
  0
SEQEND
  5
A5
100
AcDbEntity
  8
LIVELLO_1
 62
     7
  0
POLYLINE
  5
9A
100
AcDbEntity
  8
LIVELLO_1
 62
     7
100
AcDb2dPolyline
 66
     1
 10
0.0
 20
0.0
 30
0.0
 70
     1
  0
VERTEX
  5
9B
100
AcDbEntity
  8
LIVELLO_1
 62
     7
100
AcDbVertex
100
AcDb2dVertex
 10
-28.764136
 20
0.743193
 30
0.0
  0
VERTEX
  5
9C
100
AcDbEntity
  8
LIVELLO_1
 62
     7
100
AcDbVertex
100
AcDb2dVertex
 10
-23.981482
 20
0.743193
 30
0.0
  0
VERTEX
  5
9D
100
AcDbEntity
  8
LIVELLO_1
 62
     7
100
AcDbVertex
100
AcDb2dVertex
 10
-23.877785
 20
-3.787452
 30
0.0
  0
VERTEX
  5
9E
100
AcDbEntity
  8
LIVELLO_1
 62
     7
100
AcDbVertex
100
AcDb2dVertex
 10
-28.764136
 20
-3.787452
 30
0.0
  0
SEQEND
  5
9F
100
AcDbEntity
  8
LIVELLO_1
 62
     7
  0
SPLINE
  5
99
100
AcDbEntity
  8
LIVELLO_1
 62
     7
100
AcDbSpline
210
0.0
220
0.0
230
1.0
 70
     8
 71
     3
 72
    41
 73
    37
 74
     0
 42
0.00000001
 43
0.00000001
 40
0.0
 40
0.0
 40
0.0
 40
0.0
 40
1.0
 40
1.0
 40
1.0
 40
2.0
 40
2.0
 40
2.0
 40
3.0
 40
3.0
 40
3.0
 40
4.0
 40
4.0
 40
4.0
 40
5.0
 40
5.0
 40
5.0
 40
6.0
 40
6.0
 40
6.0
 40
7.0
 40
7.0
 40
7.0
 40
8.0
 40
8.0
 40
8.0
 40
9.0
 40
9.0
 40
9.0
 40
10.0
 40
10.0
 40
10.0
 40
11.0
 40
11.0
 40
11.0
 40
12.0
 40
12.0
 40
12.0
 40
12.0
 10
-6.0525160047743052
 20
-2.4573004828559024
 30
0.0
 10
-6.0525160047743052
 20
-2.4573004828559024
 30
0.0
 10
-7.1515014648437489
 20
-41.393080647786455
 30
0.0
 10
-7.1515014648437489
 20
-41.393080647786455
 30
0.0
 10
-7.1515014648437489
 20
-42.002173529730896
 30
0.0
 10
-7.6413940429687495
 20
-42.494822184244789
 30
0.0
 10
-8.2504869249131936
 20
-42.494822184244789
 30
0.0
 10
-8.2504869249131936
 20
-42.494822184244789
 30
0.0
 10
-11.521777343749999
 20
-42.494822184244789
 30
0.0
 10
-11.521777343749999
 20
-42.494822184244789
 30
0.0
 10
-12.129147677951387
 20
-42.494822184244789
 30
0.0
 10
-12.62093505859375
 20
-42.002173529730896
 30
0.0
 10
-12.62093505859375
 20
-41.393080647786455
 30
0.0
 10
-12.62093505859375
 20
-41.393080647786455
 30
0.0
 10
-13.72043728298611
 20
-2.4573004828559024
 30
0.0
 10
-13.72043728298611
 20
-2.4573004828559024
 30
0.0
 10
-13.72043728298611
 20
-2.4573004828559024
 30
0.0
 10
-12.006330023871527
 20
-2.3332770453559024
 30
0.0
 10
-12.006330023871527
 20
-2.3332770453559024
 30
0.0
 10
-12.006330023871527
 20
-2.3332770453559024
 30
0.0
 10
-12.006330023871527
 20
-2.6876051161024304
 30
0.0
 10
-12.006330023871527
 20
-2.6876051161024304
 30
0.0
 10
-12.006330023871527
 20
-3.2949754503038191
 30
0.0
 10
-11.51471489800347
 20
-3.7874518500434022
 30
0.0
 10
-10.907172309027777
 20
-3.7874518500434022
 30
0.0
 10
-10.907172309027777
 20
-3.7874518500434022
 30
0.0
 10
-8.8635416666666664
 20
-3.7874518500434022
 30
0.0
 10
-8.8635416666666664
 20
-3.7874518500434022
 30
0.0
 10
-8.2577216254340264
 20
-3.7874518500434022
 30
0.0
 10
-7.7643839518229161
 20
-3.2949754503038191
 30
0.0
 10
-7.7643839518229161
 20
-2.6876051161024304
 30
0.0
 10
-7.7643839518229161
 20
-2.6876051161024304
 30
0.0
 10
-7.7643839518229161
 20
-2.3332770453559024
 30
0.0
 10
-7.7643839518229161
 20
-2.3332770453559024
 30
0.0
 10
-7.7643839518229161
 20
-2.3332770453559024
 30
0.0
 10
-6.0525160047743052
 20
-2.4573004828559024
 30
0.0
 10
-6.0525160047743052
 20
-2.4573004828559024
 30
0.0
  0
LINE
  5
98
100
AcDbEntity
  8
LIVELLO_1
 62
     7
100
AcDbLine
 10
-0.322978
 20
-39.407672
 30
0.0
 11
-0.979613
 21
-39.407672
 31
0.0
  0
POLYLINE
  5
93
100
AcDbEntity
  8
LIVELLO_1
 62
     7
100
AcDb2dPolyline
 66
     1
 10
0.0
 20
0.0
 30
0.0
  0
VERTEX
  5
94
100
AcDbEntity
  8
LIVELLO_1
 62
     7
100
AcDbVertex
100
AcDb2dVertex
 10
-0.660597
 20
-3.787452
 30
0.0
  0
VERTEX
  5
95
100
AcDbEntity
  8
LIVELLO_1
 62
     7
100
AcDbVertex
100
AcDb2dVertex
 10
-0.979613
 20
-39.407672
 30
0.0
  0
VERTEX
  5
96
100
AcDbEntity
  8
LIVELLO_1
 62
     7
100
AcDbVertex
100
AcDb2dVertex
 10
-1.664842
 20
-40.35714
 30
0.0
  0
SEQEND
  5
97
100
AcDbEntity
  8
LIVELLO_1
 62
     7
  0
POLYLINE
  5
8C
100
AcDbEntity
  8
LIVELLO_1
 62
     7
100
AcDb2dPolyline
 66
     1
 10
0.0
 20
0.0
 30
0.0
  0
VERTEX
  5
8D
100
AcDbEntity
  8
LIVELLO_1
 62
     7
100
AcDbVertex
100
AcDb2dVertex
 10
0.564134
 20
-3.787452
 30
0.0
  0
VERTEX
  5
8E
100
AcDbEntity
  8
LIVELLO_1
 62
     7
100
AcDbVertex
100
AcDb2dVertex
 10
-0.322978
 20
-39.407672
 30
0.0
  0
VERTEX
  5
8F
100
AcDbEntity
  8
LIVELLO_1
 62
     7
100
AcDbVertex
100
AcDb2dVertex
 10
-0.988915
 20
-40.35714
 30
0.0
  0
VERTEX
  5
90
100
AcDbEntity
  8
LIVELLO_1
 62
     7
100
AcDbVertex
100
AcDb2dVertex
 10
-1.664842
 20
-40.35714
 30
0.0
  0
VERTEX
  5
91
100
AcDbEntity
  8
LIVELLO_1
 62
     7
100
AcDbVertex
100
AcDb2dVertex
 10
-1.37511
 20
-3.787452
 30
0.0
  0
SEQEND
  5
92
100
AcDbEntity
  8
LIVELLO_1
 62
     7
  0
LINE
  5
8B
100
AcDbEntity
  8
LIVELLO_1
 62
     7
100
AcDbLine
 10
-19.443774
 20
-39.407672
 30
0.0
 11
-18.787828
 21
-39.407672
 31
0.0
  0
POLYLINE
  5
86
100
AcDbEntity
  8
LIVELLO_1
 62
     7
100
AcDb2dPolyline
 66
     1
 10
0.0
 20
0.0
 30
0.0
  0
VERTEX
  5
87
100
AcDbEntity
  8
LIVELLO_1
 62
     7
100
AcDbVertex
100
AcDb2dVertex
 10
-19.108394
 20
-3.787452
 30
0.0
  0
VERTEX
  5
88
100
AcDbEntity
  8
LIVELLO_1
 62
     7
100
AcDbVertex
100
AcDb2dVertex
 10
-18.787828
 20
-39.407672
 30
0.0
  0
VERTEX
  5
89
100
AcDbEntity
  8
LIVELLO_1
 62
     7
100
AcDbVertex
100
AcDb2dVertex
 10
-18.102254
 20
-40.35714
 30
0.0
  0
SEQEND
  5
8A
100
AcDbEntity
  8
LIVELLO_1
 62
     7
  0
POLYLINE
  5
7F
100
AcDbEntity
  8
LIVELLO_1
 62
     7
100
AcDb2dPolyline
 66
     1
 10
0.0
 20
0.0
 30
0.0
  0
VERTEX
  5
80
100
AcDbEntity
  8
LIVELLO_1
 62
     7
100
AcDbVertex
100
AcDb2dVertex
 10
-20.33037
 20
-3.787452
 30
0.0
  0
VERTEX
  5
81
100
AcDbEntity
  8
LIVELLO_1
 62
     7
100
AcDbVertex
100
AcDb2dVertex
 10
-19.443774
 20
-39.407672
 30
0.0
  0
VERTEX
  5
82
100
AcDbEntity
  8
LIVELLO_1
 62
     7
100
AcDbVertex
100
AcDb2dVertex
 10
-18.777837
 20
-40.35714
 30
0.0
  0
VERTEX
  5
83
100
AcDbEntity
  8
LIVELLO_1
 62
     7
100
AcDbVertex
100
AcDb2dVertex
 10
-18.102254
 20
-40.35714
 30
0.0
  0
VERTEX
  5
84
100
AcDbEntity
  8
LIVELLO_1
 62
     7
100
AcDbVertex
100
AcDb2dVertex
 10
-18.391987
 20
-3.787452
 30
0.0
  0
SEQEND
  5
85
100
AcDbEntity
  8
LIVELLO_1
 62
     7
  0
POLYLINE
  5
7A
100
AcDbEntity
  8
LIVELLO_1
 62
     7
100
AcDb2dPolyline
 66
     1
 10
0.0
 20
0.0
 30
0.0
  0
VERTEX
  5
7B
100
AcDbEntity
  8
LIVELLO_1
 62
     7
100
AcDbVertex
100
AcDb2dVertex
 10
7.446746
 20
0.743193
 30
0.0
  0
VERTEX
  5
7C
100
AcDbEntity
  8
LIVELLO_1
 62
     7
100
AcDbVertex
100
AcDb2dVertex
 10
3.084566
 20
-3.787452
 30
0.0
  0
VERTEX
  5
7D
100
AcDbEntity
  8
LIVELLO_1
 62
     7
100
AcDbVertex
100
AcDb2dVertex
 10
2.255676
 20
-41.393081
 30
0.0
  0
SEQEND
  5
7E
100
AcDbEntity
  8
LIVELLO_1
 62
     7
  0
POLYLINE
  5
75
100
AcDbEntity
  8
LIVELLO_1
 62
     7
100
AcDb2dPolyline
 66
     1
 10
0.0
 20
0.0
 30
0.0
  0
VERTEX
  5
76
100
AcDbEntity
  8
LIVELLO_1
 62
     7
100
AcDbVertex
100
AcDb2dVertex
 10
-27.213843
 20
0.743193
 30
0.0
  0
VERTEX
  5
77
100
AcDbEntity
  8
LIVELLO_1
 62
     7
100
AcDbVertex
100
AcDb2dVertex
 10
-22.851491
 20
-3.787452
 30
0.0
  0
VERTEX
  5
78
100
AcDbEntity
  8
LIVELLO_1
 62
     7
100
AcDbVertex
100
AcDb2dVertex
 10
-22.022601
 20
-41.393081
 30
0.0
  0
SEQEND
  5
79
100
AcDbEntity
  8
LIVELLO_1
 62
     7
  0
POLYLINE
  5
70
100
AcDbEntity
  8
LIVELLO_1
 62
     7
100
AcDb2dPolyline
 66
     1
 10
0.0
 20
0.0
 30
0.0
 70
     1
  0
VERTEX
  5
71
100
AcDbEntity
  8
LIVELLO_1
 62
     7
100
AcDbVertex
100
AcDb2dVertex
 10
4.214213
 20
0.743193
 30
0.0
  0
VERTEX
  5
72
100
AcDbEntity
  8
LIVELLO_1
 62
     7
100
AcDbVertex
100
AcDb2dVertex
 10
3.278525
 20
-39.292606
 30
0.0
  0
VERTEX
  5
73
100
AcDbEntity
  8
LIVELLO_1
 62
     7
100
AcDbVertex
100
AcDb2dVertex
 10
2.310453
 20
-40.21348
 30
0.0
  0
SEQEND
  5
74
100
AcDbEntity
  8
LIVELLO_1
 62
     7
  0
POLYLINE
  5
6B
100
AcDbEntity
  8
LIVELLO_1
 62
     7
100
AcDb2dPolyline
 66
     1
 10
0.0
 20
0.0
 30
0.0
 70
     1
  0
VERTEX
  5
6C
100
AcDbEntity
  8
LIVELLO_1
 62
     7
100
AcDbVertex
100
AcDb2dVertex
 10
-23.981482
 20
0.743193
 30
0.0
  0
VERTEX
  5
6D
100
AcDbEntity
  8
LIVELLO_1
 62
     7
100
AcDbVertex
100
AcDb2dVertex
 10
-22.07755
 20
-40.21348
 30
0.0
  0
VERTEX
  5
6E
100
AcDbEntity
  8
LIVELLO_1
 62
     7
100
AcDbVertex
100
AcDb2dVertex
 10
-23.043727
 20
-39.292606
 30
0.0
  0
SEQEND
  5
6F
100
AcDbEntity
  8
LIVELLO_1
 62
     7
  0
SPLINE
  5
6A
100
AcDbEntity
  8
LIVELLO_1
 62
     7
100
AcDbSpline
210
0.0
220
0.0
230
1.0
 70
     8
 71
     3
 72
    23
 73
    19
 74
     0
 42
0.00000001
 43
0.00000001
 40
0.0
 40
0.0
 40
0.0
 40
0.0
 40
1.0
 40
1.0
 40
1.0
 40
2.0
 40
2.0
 40
2.0
 40
3.0
 40
3.0
 40
3.0
 40
4.0
 40
4.0
 40
4.0
 40
5.0
 40
5.0
 40
5.0
 40
6.0
 40
6.0
 40
6.0
 40
6.0
 10
-20.923615180121526
 20
-42.494822184244789
 30
0.0
 10
-21.530985514322914
 20
-42.494822184244789
 30
0.0
 10
-22.022600640190969
 20
-42.002173529730896
 30
0.0
 10
-22.022600640190969
 20
-41.393080647786455
 30
0.0
 10
-22.022600640190969
 20
-41.393080647786455
 30
0.0
 10
-23.981481933593749
 20
0.7431932237413194
 30
0.0
 10
-23.981481933593749
 20
0.7431932237413194
 30
0.0
 10
-23.981481933593749
 20
0.7431932237413194
 30
0.0
 10
4.2142130533854161
 20
0.7431932237413194
 30
0.0
 10
4.2142130533854161
 20
0.7431932237413194
 30
0.0
 10
4.2142130533854161
 20
0.7431932237413194
 30
0.0
 10
2.25567626953125
 20
-41.393080647786455
 30
0.0
 10
2.25567626953125
 20
-41.393080647786455
 30
0.0
 10
2.25567626953125
 20
-42.002173529730896
 30
0.0
 10
1.7644056532118053
 20
-42.494822184244789
 30
0.0
 10
1.1563462999131944
 20
-42.494822184244789
 30
0.0
 10
1.1563462999131944
 20
-42.494822184244789
 30
0.0
 10
-20.923615180121526
 20
-42.494822184244789
 30
0.0
 10
-20.923615180121526
 20
-42.494822184244789
 30
0.0
  0
SPLINE
  5
69
100
AcDbEntity
  8
LIVELLO_1
 62
     7
100
AcDbSpline
210
0.0
220
0.0
230
1.0
 70
     8
 71
     3
 72
    47
 73
    43
 74
     0
 42
0.00000001
 43
0.00000001
 40
0.0
 40
0.0
 40
0.0
 40
0.0
 40
1.0
 40
1.0
 40
1.0
 40
2.0
 40
2.0
 40
2.0
 40
3.0
 40
3.0
 40
3.0
 40
4.0
 40
4.0
 40
4.0
 40
5.0
 40
5.0
 40
5.0
 40
6.0
 40
6.0
 40
6.0
 40
7.0
 40
7.0
 40
7.0
 40
8.0
 40
8.0
 40
8.0
 40
9.0
 40
9.0
 40
9.0
 40
10.0
 40
10.0
 40
10.0
 40
11.0
 40
11.0
 40
11.0
 40
12.0
 40
12.0
 40
12.0
 40
13.0
 40
13.0
 40
13.0
 40
14.0
 40
14.0
 40
14.0
 40
14.0
 10
8.3314466688368043
 20
-5.6894890679253471
 30
0.0
 10
8.3314466688368043
 20
-5.6894890679253471
 30
0.0
 10
4.9115003797743055
 20
-5.6894890679253471
 30
0.0
 10
4.9115003797743055
 20
-5.6894890679253471
 30
0.0
 10
4.9115003797743055
 20
-5.6894890679253471
 30
0.0
 10
4.9115003797743055
 20
-3.7874518500434022
 30
0.0
 10
4.9115003797743055
 20
-3.7874518500434022
 30
0.0
 10
4.9115003797743055
 20
-3.7874518500434022
 30
0.0
 10
11.039291720920138
 20
-3.7874518500434022
 30
0.0
 10
11.039291720920138
 20
-3.7874518500434022
 30
0.0
 10
11.039291720920138
 20
-3.7874518500434022
 30
0.0
 10
11.039291720920138
 20
6.3910827636718741
 30
0.0
 10
11.039291720920138
 20
6.3910827636718741
 30
0.0
 10
11.039291720920138
 20
6.3910827636718741
 30
0.0
 10
13.665143500434027
 20
6.3910827636718741
 30
0.0
 10
13.665143500434027
 20
6.3910827636718741
 30
0.0
 10
13.665143500434027
 20
6.3910827636718741
 30
0.0
 10
17.542598470052081
 20
5.443509250217013
 30
0.0
 10
17.542598470052081
 20
5.443509250217013
 30
0.0
 10
17.542598470052081
 20
5.443509250217013
 30
0.0
 10
17.542598470052081
 20
4.6659511990017357
 30
0.0
 10
17.542598470052081
 20
4.6659511990017357
 30
0.0
 10
17.542598470052081
 20
4.6659511990017357
 30
0.0
 10
12.16583794487847
 20
4.6659511990017357
 30
0.0
 10
12.16583794487847
 20
4.6659511990017357
 30
0.0
 10
12.16583794487847
 20
4.6659511990017357
 30
0.0
 10
12.16583794487847
 20
-5.6894890679253471
 30
0.0
 10
12.16583794487847
 20
-5.6894890679253471
 30
0.0
 10
12.16583794487847
 20
-5.6894890679253471
 30
0.0
 10
11.039291720920138
 20
-5.6894890679253471
 30
0.0
 10
11.039291720920138
 20
-5.6894890679253471
 30
0.0
 10
11.039291720920138
 20
-5.6894890679253471
 30
0.0
 10
11.039291720920138
 20
-12.731436496310764
 30
0.0
 10
11.039291720920138
 20
-12.731436496310764
 30
0.0
 10
11.039291720920138
 20
-12.731436496310764
 30
0.0
 10
9.4300876193576375
 20
-12.731436496310764
 30
0.0
 10
9.4300876193576375
 20
-12.731436496310764
 30
0.0
 10
9.4300876193576375
 20
-12.731436496310764
 30
0.0
 10
9.4300876193576375
 20
-6.7877855088975689
 30
0.0
 10
9.4300876193576375
 20
-6.7877855088975689
 30
0.0
 10
9.4300876193576375
 20
-6.1819654676649298
 30
0.0
 10
8.9370944552951386
 20
-5.6894890679253471
 30
0.0
 10
8.3314466688368043
 20
-5.6894890679253471
 30
0.0
  0
POLYLINE
  5
5A
100
AcDbEntity
  8
LIVELLO_1
 62
     7
100
AcDb2dPolyline
 66
     1
 10
0.0
 20
0.0
 30
0.0
 70
     1
  0
VERTEX
  5
5B
100
AcDbEntity
  8
LIVELLO_1
 62
     7
100
AcDbVertex
100
AcDb2dVertex
 10
-31.932762
 20
4.665951
 30
0.0
  0
VERTEX
  5
5C
100
AcDbEntity
  8
LIVELLO_1
 62
     7
100
AcDbVertex
100
AcDb2dVertex
 10
-37.309695
 20
4.665951
 30
0.0
  0
VERTEX
  5
5D
100
AcDbEntity
  8
LIVELLO_1
 62
     7
100
AcDbVertex
100
AcDb2dVertex
 10
-37.309695
 20
5.443509
 30
0.0
  0
VERTEX
  5
5E
100
AcDbEntity
  8
LIVELLO_1
 62
     7
100
AcDbVertex
100
AcDb2dVertex
 10
-33.431896
 20
6.391083
 30
0.0
  0
VERTEX
  5
5F
100
AcDbEntity
  8
LIVELLO_1
 62
     7
100
AcDbVertex
100
AcDb2dVertex
 10
-30.806388
 20
6.391083
 30
0.0
  0
VERTEX
  5
60
100
AcDbEntity
  8
LIVELLO_1
 62
     7
100
AcDbVertex
100
AcDb2dVertex
 10
-30.806388
 20
-3.787452
 30
0.0
  0
VERTEX
  5
61
100
AcDbEntity
  8
LIVELLO_1
 62
     7
100
AcDbVertex
100
AcDb2dVertex
 10
-24.678425
 20
-3.787452
 30
0.0
  0
VERTEX
  5
62
100
AcDbEntity
  8
LIVELLO_1
 62
     7
100
AcDbVertex
100
AcDb2dVertex
 10
-24.678425
 20
-9.694068
 30
0.0
  0
VERTEX
  5
63
100
AcDbEntity
  8
LIVELLO_1
 62
     7
100
AcDbVertex
100
AcDb2dVertex
 10
-25.502836
 20
-10.517446
 30
0.0
  0
VERTEX
  5
64
100
AcDbEntity
  8
LIVELLO_1
 62
     7
100
AcDbVertex
100
AcDb2dVertex
 10
-27.781422
 20
-10.517446
 30
0.0
  0
VERTEX
  5
65
100
AcDbEntity
  8
LIVELLO_1
 62
     7
100
AcDbVertex
100
AcDb2dVertex
 10
-28.603939
 20
-9.694068
 30
0.0
  0
VERTEX
  5
66
100
AcDbEntity
  8
LIVELLO_1
 62
     7
100
AcDbVertex
100
AcDb2dVertex
 10
-28.603939
 20
-5.689489
 30
0.0
  0
VERTEX
  5
67
100
AcDbEntity
  8
LIVELLO_1
 62
     7
100
AcDbVertex
100
AcDb2dVertex
 10
-31.932762
 20
-5.689489
 30
0.0
  0
SEQEND
  5
68
100
AcDbEntity
  8
LIVELLO_1
 62
     7
  0
SPLINE
  5
59
100
AcDbEntity
  8
LIVELLO_1
 62
     7
100
AcDbSpline
210
0.0
220
0.0
230
1.0
 70
     8
 71
     3
 72
    29
 73
    25
 74
     0
 42
0.00000001
 43
0.00000001
 40
0.0
 40
0.0
 40
0.0
 40
0.0
 40
1.0
 40
1.0
 40
1.0
 40
2.0
 40
2.0
 40
2.0
 40
3.0
 40
3.0
 40
3.0
 40
4.0
 40
4.0
 40
4.0
 40
5.0
 40
5.0
 40
5.0
 40
6.0
 40
6.0
 40
6.0
 40
7.0
 40
7.0
 40
7.0
 40
8.0
 40
8.0
 40
8.0
 40
8.0
 10
-29.811961534288191
 20
6.3910827636718741
 30
0.0
 10
-29.811961534288191
 20
6.3910827636718741
 30
0.0
 10
10.045037163628471
 20
6.3910827636718741
 30
0.0
 10
10.045037163628471
 20
6.3910827636718741
 30
0.0
 10
10.347861056857639
 20
6.3910827636718741
 30
0.0
 10
10.59659695095486
 20
6.1447584364149304
 30
0.0
 10
10.59659695095486
 20
5.8422790527343746
 30
0.0
 10
10.59659695095486
 20
5.8422790527343746
 30
0.0
 10
10.59659695095486
 20
1.2919969346788194
 30
0.0
 10
10.59659695095486
 20
1.2919969346788194
 30
0.0
 10
10.59659695095486
 20
0.9874504937065971
 30
0.0
 10
10.347861056857639
 20
0.7431932237413194
 30
0.0
 10
10.045037163628471
 20
0.7431932237413194
 30
0.0
 10
10.045037163628471
 20
0.7431932237413194
 30
0.0
 10
-29.811961534288191
 20
0.7431932237413194
 30
0.0
 10
-29.811961534288191
 20
0.7431932237413194
 30
0.0
 10
-30.114613172743052
 20
0.7431932237413194
 30
0.0
 10
-30.361798773871524
 20
0.9874504937065971
 30
0.0
 10
-30.361798773871524
 20
1.2919969346788194
 30
0.0
 10
-30.361798773871524
 20
1.2919969346788194
 30
0.0
 10
-30.361798773871524
 20
5.8422790527343746
 30
0.0
 10
-30.361798773871524
 20
5.8422790527343746
 30
0.0
 10
-30.361798773871524
 20
6.1447584364149304
 30
0.0
 10
-30.114613172743052
 20
6.3910827636718741
 30
0.0
 10
-29.811961534288191
 20
6.3910827636718741
 30
0.0
  0
LINE
  5
58
100
AcDbEntity
  8
LIVELLO_1
 62
     7
100
AcDbLine
 10
9.499334
 20
-80.800494
 30
0.0
 11
2.809303
 21
-80.800494
 31
0.0
  0
LINE
  5
57
100
AcDbEntity
  8
LIVELLO_1
 62
     7
100
AcDbLine
 10
-22.864754
 20
-80.800494
 30
0.0
 11
-28.789285
 21
-80.762598
 31
0.0
  0
LINE
  5
56
100
AcDbEntity
  8
LIVELLO_1
 62
     7
100
AcDbLine
 10
9.384957
 20
-85.078958
 30
0.0
 11
9.384957
 21
-76.67327
 31
0.0
  0
LINE
  5
55
100
AcDbEntity
  8
LIVELLO_1
 62
     7
100
AcDbLine
 10
-28.951204
 20
-85.082404
 30
0.0
 11
-28.951204
 21
-76.67706
 31
0.0
  0
MTEXT
  5
54
100
AcDbEntity
  8
LIVELLO_1
 62
     7
100
AcDbMText
 10
40.915849
 20
10.846706
 30
0.0
 40
8.372524
 41
0.0
 71
     1
 72
     2
  1
\fCourier|b0|i0;\H8.3725;\C7;\U+0032
  7
STD
210
0.0
220
0.0
230
1.0
 73
     1
 44
1.0
  0
LINE
  5
53
100
AcDbEntity
  8
LIVELLO_1
 62
     7
100
AcDbLine
 10
31.980649
 20
3.948682
 30
0.0
 11
39.422055
 21
3.948682
 31
0.0
  0
LINE
  5
52
100
AcDbEntity
  8
LIVELLO_1
 62
     7
100
AcDbLine
 10
31.980649
 20
5.824192
 30
0.0
 11
39.422055
 21
5.824192
 31
0.0
  0
LINE
  5
51
100
AcDbEntity
  8
LIVELLO_1
 62
     7
100
AcDbLine
 10
31.404285
 20
4.000014
 30
0.0
 11
39.809629
 21
4.000014
 31
0.0
  0
LINE
  5
50
100
AcDbEntity
  8
LIVELLO_1
 62
     7
100
AcDbLine
 10
35.606268
 20
4.000014
 30
0.0
 11
35.606268
 21
-11.670692
 31
0.0
  0
LINE
  5
4F
100
AcDbEntity
  8
LIVELLO_1
 62
     7
100
AcDbLine
 10
35.606268
 20
-25.331012
 30
0.0
 11
35.606268
 21
-46.913846
 31
0.0
  0
LINE
  5
4E
100
AcDbEntity
  8
LIVELLO_1
 62
     7
100
AcDbLine
 10
31.404285
 20
-46.913846
 30
0.0
 11
39.809629
 21
-46.913846
 31
0.0
  0
MTEXT
  5
4D
100
AcDbEntity
  8
LIVELLO_1
 62
     7
100
AcDbMText
 10
26.902923
 20
-14.18243
 30
0.0
 40
8.372524
 41
0.0
 71
     1
 72
     2
  1
\fCourier|b0|i0;\H8.3725;\C7;\U+0031\U+0031\U+0035
  7
STD
210
0.0
220
0.0
230
1.0
 73
     1
 44
1.0
  0
CIRCLE
  5
4C
100
AcDbEntity
  8
LIVELLO_1
 62
     7
100
AcDbCircle
 10
5.531273
 20
62.446231
 30
0.0
 40
2.611382
  0
CIRCLE
  5
4B
100
AcDbEntity
  8
LIVELLO_1
 62
     7
100
AcDbCircle
 10
5.531273
 20
62.446231
 30
0.0
 40
1.827623
  0
CIRCLE
  5
4A
100
AcDbEntity
  8
LIVELLO_1
 62
     7
100
AcDbCircle
 10
-26.331812
 20
62.446231
 30
0.0
 40
2.611469
  0
CIRCLE
  5
49
100
AcDbEntity
  8
LIVELLO_1
 62
     7
100
AcDbCircle
 10
-26.332157
 20
62.446231
 30
0.0
 40
1.828226
  0
CIRCLE
  5
48
100
AcDbEntity
  8
LIVELLO_1
 62
     7
100
AcDbCircle
 10
-10.400743
 20
62.446231
 30
0.0
 40
12.275392
  0
POLYLINE
  5
41
100
AcDbEntity
  8
LIVELLO_1
 62
     7
100
AcDb2dPolyline
 66
     1
 10
0.0
 20
0.0
 30
0.0
  0
VERTEX
  5
42
100
AcDbEntity
  8
LIVELLO_1
 62
     7
100
AcDbVertex
100
AcDb2dVertex
 10
-34.243216
 20
38.603759
 30
0.0
  0
VERTEX
  5
43
100
AcDbEntity
  8
LIVELLO_1
 62
     7
100
AcDbVertex
100
AcDb2dVertex
 10
13.443279
 20
38.603759
 30
0.0
  0
VERTEX
  5
44
100
AcDbEntity
  8
LIVELLO_1
 62
     7
100
AcDbVertex
100
AcDb2dVertex
 10
13.443279
 20
86.290599
 30
0.0
  0
VERTEX
  5
45
100
AcDbEntity
  8
LIVELLO_1
 62
     7
100
AcDbVertex
100
AcDb2dVertex
 10
-34.243216
 20
86.290599
 30
0.0
  0
VERTEX
  5
46
100
AcDbEntity
  8
LIVELLO_1
 62
     7
100
AcDbVertex
100
AcDb2dVertex
 10
-34.243216
 20
38.603759
 30
0.0
  0
SEQEND
  5
47
100
AcDbEntity
  8
LIVELLO_1
 62
     7
  0
POLYLINE
  5
3A
100
AcDbEntity
  8
LIVELLO_1
 62
     7
100
AcDb2dPolyline
 66
     1
 10
0.0
 20
0.0
 30
0.0
  0
VERTEX
  5
3B
100
AcDbEntity
  8
LIVELLO_1
 62
     7
100
AcDbVertex
100
AcDb2dVertex
 10
-36.567794
 20
36.27832
 30
0.0
  0
VERTEX
  5
3C
100
AcDbEntity
  8
LIVELLO_1
 62
     7
100
AcDbVertex
100
AcDb2dVertex
 10
15.766996
 20
36.27832
 30
0.0
  0
VERTEX
  5
3D
100
AcDbEntity
  8
LIVELLO_1
 62
     7
100
AcDbVertex
100
AcDb2dVertex
 10
15.766996
 20
88.612421
 30
0.0
  0
VERTEX
  5
3E
100
AcDbEntity
  8
LIVELLO_1
 62
     7
100
AcDbVertex
100
AcDb2dVertex
 10
-36.567794
 20
88.612421
 30
0.0
  0
VERTEX
  5
3F
100
AcDbEntity
  8
LIVELLO_1
 62
     7
100
AcDbVertex
100
AcDb2dVertex
 10
-36.567794
 20
36.27832
 30
0.0
  0
SEQEND
  5
40
100
AcDbEntity
  8
LIVELLO_1
 62
     7
  0
LINE
  5
39
100
AcDbEntity
  8
LIVELLO_1
 62
     7
100
AcDbLine
 10
15.712564
 20
23.668064
 30
0.0
 11
15.712564
 21
30.722242
 31
0.0
  0
LINE
  5
38
100
AcDbEntity
  8
LIVELLO_1
 62
     7
100
AcDbLine
 10
-36.525075
 20
23.480479
 30
0.0
 11
-36.525075
 21
30.534484
 31
0.0
  0
LINE
  5
37
100
AcDbEntity
  8
LIVELLO_1
 62
     7
100
AcDbLine
 10
5.584328
 20
26.953307
 30
0.0
 11
15.814194
 21
26.953307
 31
0.0
  0
LINE
  5
36
100
AcDbEntity
  8
LIVELLO_1
 62
     7
100
AcDbLine
 10
-36.458929
 20
26.953307
 30
0.0
 11
-26.226995
 21
26.953307
 31
0.0
  0
MTEXT
  5
35
100
AcDbEntity
  8
LIVELLO_1
 62
     7
100
AcDbMText
 10
-15.327058
 20
31.142372
 30
0.0
 40
7.298263
 41
0.0
 71
     1
 72
     2
  1
\fMyriad Roman|b0|i0;\H7.2983;\C7;\U+0031\U+0030
  7
STD
210
0.0
220
0.0
230
1.0
 73
     1
 44
1.0
  0
MTEXT
  5
34
100
AcDbEntity
  8
LIVELLO_1
 62
     7
100
AcDbMText
 10
-5.253943
 20
31.142372
 30
0.0
 40
7.298263
 41
0.0
 71
     1
 72
     2
  1
\fMyriad Roman|b0|i0;\H7.2983;\C7;\U+0030
  7
STD
210
0.0
220
0.0
230
1.0
 73
     1
 44
1.0
  0
POLYLINE
  5
2E
100
AcDbEntity
  8
LIVELLO_1
 62
     7
100
AcDb2dPolyline
 66
     1
 10
0.0
 20
0.0
 30
0.0
 70
     1
  0
VERTEX
  5
2F
100
AcDbEntity
  8
LIVELLO_1
 62
     7
100
AcDbVertex
100
AcDb2dVertex
 10
-17.0484
 20
25.077797
 30
0.0
  0
VERTEX
  5
30
100
AcDbEntity
  8
LIVELLO_1
 62
     7
100
AcDbVertex
100
AcDb2dVertex
 10
-20.902428
 20
25.077797
 30
0.0
  0
VERTEX
  5
31
100
AcDbEntity
  8
LIVELLO_1
 62
     7
100
AcDbVertex
100
AcDb2dVertex
 10
-20.902428
 20
28.827267
 30
0.0
  0
VERTEX
  5
32
100
AcDbEntity
  8
LIVELLO_1
 62
     7
100
AcDbVertex
100
AcDb2dVertex
 10
-17.0484
 20
28.827267
 30
0.0
  0
SEQEND
  5
33
100
AcDbEntity
  8
LIVELLO_1
 62
     7
  0
MTEXT
  5
2D
100
AcDbEntity
  8
LIVELLO_1
 62
     7
100
AcDbMText
 10
-18.058329
 20
-76.413355
 30
0.0
 40
6.74703
 41
0.0
 71
     1
 72
     2
  1
\fArial Narrow|b0|i0;\H6.7470;\C7;\U+00D8
  7
STD
210
0.0
220
0.0
230
1.0
 73
     1
 44
1.0
  0
MTEXT
  5
2C
100
AcDbEntity
  8
LIVELLO_1
 62
     7
100
AcDbMText
 10
-10.203339
 20
-76.413355
 30
0.0
 40
6.74703
 41
0.0
 71
     1
 72
     2
  1
\fArial Narrow|b0|i0;\H6.7470;\C7;\U+0038\U+0035
  7
STD
210
0.0
220
0.0
230
1.0
 73
     1
 44
1.0
  0
ENDBLK
  5
136
100
AcDbEntity
  8
LIVELLO_1
100
AcDbBlockEnd
  0
BLOCK
  5
EF
100
AcDbEntity
  8
LIVELLO_1
 62
     7
100
AcDbBlockBegin
  2
AI9-BLK2
 70
     0
 10
0.0
 20
0.0
 30
0.0
  3
AI9-BLK2
  1

  0
SPLINE
  5
11C
100
AcDbEntity
  8
LIVELLO_1
 62
     7
100
AcDbSpline
210
0.0
220
0.0
230
1.0
 70
     8
 71
     3
 72
    17
 73
    13
 74
     0
 42
0.00000001
 43
0.00000001
 40
0.0
 40
0.0
 40
0.0
 40
0.0
 40
1.0
 40
1.0
 40
1.0
 40
2.0
 40
2.0
 40
2.0
 40
3.0
 40
3.0
 40
3.0
 40
4.0
 40
4.0
 40
4.0
 40
4.0
 10
16.873044162326387
 20
-5.9162624782986102
 30
0.0
 10
17.811832682291666
 20
-6.197382269965277
 30
0.0
 10
18.421959092881941
 20
-6.4788465711805552
 30
0.0
 10
19.406222873263886
 20
-6.4788465711805552
 30
0.0
 10
20.718804253472221
 20
-6.4788465711805552
 30
0.0
 10
21.843627929687496
 20
-5.4928602430555546
 30
0.0
 10
21.843627929687496
 20
-4.1799343532986111
 30
0.0
 10
21.843627929687496
 20
-3.7585991753472219
 30
0.0
 10
21.798497178819442
 20
-3.5232991536458331
 30
0.0
 10
21.843627929687496
 20
-3.1016194661458329
 30
0.0
 10
19.640489366319443
 20
-3.1016194661458329
 30
0.0
 10
17.05976833767361
 20
-3.7110568576388885
 30
0.0
 10
16.873044162326387
 20
-5.9162624782986102
 30
0.0
  0
SPLINE
  5
11B
100
AcDbEntity
  8
LIVELLO_1
 62
     7
100
AcDbSpline
210
0.0
220
0.0
230
1.0
 70
     8
 71
     3
 72
    20
 73
    16
 74
     0
 42
0.00000001
 43
0.00000001
 40
0.0
 40
0.0
 40
0.0
 40
0.0
 40
1.0
 40
1.0
 40
1.0
 40
2.0
 40
2.0
 40
2.0
 40
3.0
 40
3.0
 40
3.0
 40
4.0
 40
4.0
 40
4.0
 40
5.0
 40
5.0
 40
5.0
 40
5.0
 10
22.552973090277774
 20
8.9930772569444439
 30
0.0
 10
22.552973090277774
 20
8.9930772569444439
 30
0.0
 10
18.36856011284722
 20
8.7078233506944436
 30
0.0
 10
18.36856011284722
 20
8.7078233506944436
 30
0.0
 10
18.453653971354164
 20
7.7459526909722216
 30
0.0
 10
18.498095703124999
 20
7.2629503038194434
 30
0.0
 10
18.581122504340275
 20
6.3010796440972214
 30
0.0
 10
18.924254014756944
 20
2.3674696180555554
 30
0.0
 10
24.005425347222221
 20
2.5676296657986111
 30
0.0
 10
27.966251627604166
 20
2.5903672960069444
 30
0.0
 10
27.727162000868052
 20
5.3216389973958327
 30
0.0
 10
26.240258789062498
 20
7.5371799045138879
 30
0.0
 10
23.59959309895833
 20
8.11457790798611
 30
0.0
 10
23.59959309895833
 20
8.11457790798611
 30
0.0
 10
22.552973090277774
 20
8.9930772569444439
 30
0.0
 10
22.552973090277774
 20
8.9930772569444439
 30
0.0
  0
SPLINE
  5
11A
100
AcDbEntity
  8
LIVELLO_1
 62
     7
100
AcDbSpline
210
0.0
220
0.0
230
1.0
 70
     8
 71
     3
 72
    17
 73
    13
 74
     0
 42
0.00000001
 43
0.00000001
 40
0.0
 40
0.0
 40
0.0
 40
0.0
 40
1.0
 40
1.0
 40
1.0
 40
2.0
 40
2.0
 40
2.0
 40
3.0
 40
3.0
 40
3.0
 40
4.0
 40
4.0
 40
4.0
 40
4.0
 10
21.094319661458332
 20
14.673006184895833
 30
0.0
 10
19.50027398003472
 20
14.673006184895833
 30
0.0
 10
17.951703559027777
 20
13.594691297743054
 30
0.0
 10
17.951703559027777
 20
12.000301106770833
 30
0.0
 10
17.951703559027777
 20
10.454486762152778
 30
0.0
 10
19.922642686631942
 20
10.031084526909721
 30
0.0
 10
21.469835069444443
 20
10.031084526909721
 30
0.0
 10
23.627842881944442
 20
10.031084526909721
 30
0.0
 10
26.441452365451386
 20
10.500306532118055
 30
0.0
 10
26.441452365451386
 20
12.657625325520833
 30
0.0
 10
26.441452365451386
 20
14.720893012152777
 30
0.0
 10
23.158620876736109
 20
14.534857855902777
 30
0.0
 10
21.094319661458332
 20
14.673006184895833
 30
0.0
  0
POLYLINE
  5
113
100
AcDbEntity
  8
LIVELLO_1
 62
     7
100
AcDb2dPolyline
 66
     1
 10
0.0
 20
0.0
 30
0.0
 70
     1
  0
VERTEX
  5
114
100
AcDbEntity
  8
LIVELLO_1
 62
     7
100
AcDbVertex
100
AcDb2dVertex
 10
-8.051705
 20
-5.864242
 30
0.0
  0
VERTEX
  5
115
100
AcDbEntity
  8
LIVELLO_1
 62
     7
100
AcDbVertex
100
AcDb2dVertex
 10
-9.342754
 20
-6.51123
 30
0.0
  0
VERTEX
  5
116
100
AcDbEntity
  8
LIVELLO_1
 62
     7
100
AcDbVertex
100
AcDb2dVertex
 10
-9.665904
 20
-7.800385
 30
0.0
  0
VERTEX
  5
117
100
AcDbEntity
  8
LIVELLO_1
 62
     7
100
AcDbVertex
100
AcDb2dVertex
 10
-8.051705
 20
-8.444963
 30
0.0
  0
VERTEX
  5
118
100
AcDbEntity
  8
LIVELLO_1
 62
     7
100
AcDbVertex
100
AcDb2dVertex
 10
-7.407817
 20
-6.833347
 30
0.0
  0
SEQEND
  5
119
100
AcDbEntity
  8
LIVELLO_1
 62
     7
  0
SPLINE
  5
112
100
AcDbEntity
  8
LIVELLO_1
 62
     7
100
AcDbSpline
210
0.0
220
0.0
230
1.0
 70
     8
 71
     3
 72
    17
 73
    13
 74
     0
 42
0.00000001
 43
0.00000001
 40
0.0
 40
0.0
 40
0.0
 40
0.0
 40
1.0
 40
1.0
 40
1.0
 40
2.0
 40
2.0
 40
2.0
 40
3.0
 40
3.0
 40
3.0
 40
4.0
 40
4.0
 40
4.0
 40
4.0
 10
-14.023777940538194
 20
5.0594672309027775
 30
0.0
 10
-14.023777940538194
 20
5.0594672309027775
 30
0.0
 10
-12.978880479600694
 20
4.9692057291666663
 30
0.0
 10
-12.978880479600694
 20
4.9692057291666663
 30
0.0
 10
-12.978880479600694
 20
4.9692057291666663
 30
0.0
 10
-13.525272623697916
 20
2.4277587890624996
 30
0.0
 10
-13.525272623697916
 20
2.4277587890624996
 30
0.0
 10
-14.205334472656249
 20
2.9731174045138888
 30
0.0
 10
-15.148429361979165
 20
3.2990234374999998
 30
0.0
 10
-15.072292751736109
 20
4.1826904296874998
 30
0.0
 10
-15.02888454861111
 20
4.6629367404513884
 30
0.0
 10
-14.219287109374999
 20
4.6732720269097214
 30
0.0
 10
-14.023777940538194
 20
5.0594672309027775
 30
0.0
  0
SPLINE
  5
111
100
AcDbEntity
  8
LIVELLO_1
 62
     7
100
AcDbSpline
210
0.0
220
0.0
230
1.0
 70
     8
 71
     3
 72
    23
 73
    19
 74
     0
 42
0.00000001
 43
0.00000001
 40
0.0
 40
0.0
 40
0.0
 40
0.0
 40
1.0
 40
1.0
 40
1.0
 40
2.0
 40
2.0
 40
2.0
 40
3.0
 40
3.0
 40
3.0
 40
4.0
 40
4.0
 40
4.0
 40
5.0
 40
5.0
 40
5.0
 40
6.0
 40
6.0
 40
6.0
 40
6.0
 10
14.968250868055554
 20
0.4440728081597222
 30
0.0
 10
14.968250868055554
 20
0.4440728081597222
 30
0.0
 10
15.149807400173609
 20
-1.1889024522569442
 30
0.0
 10
15.149807400173609
 20
-1.1889024522569442
 30
0.0
 10
14.152452256944443
 20
-1.5058512369791666
 30
0.0
 10
13.488237847222221
 20
-1.6898193359374998
 30
0.0
 10
12.496739366319444
 20
-1.9254638671874997
 30
0.0
 10
12.496739366319444
 20
-1.9254638671874997
 30
0.0
 10
11.240313042534721
 20
-1.4934488932291665
 30
0.0
 10
11.240313042534721
 20
-1.4934488932291665
 30
0.0
 10
11.240313042534721
 20
-1.4934488932291665
 30
0.0
 10
10.709423828124999
 20
-0.1526177300347222
 30
0.0
 10
10.709423828124999
 20
-0.1526177300347222
 30
0.0
 10
10.709423828124999
 20
-0.1526177300347222
 30
0.0
 10
12.400621202256943
 20
0.6704155815972221
 30
0.0
 10
12.400621202256943
 20
0.6704155815972221
 30
0.0
 10
12.400621202256943
 20
0.6704155815972221
 30
0.0
 10
13.464122178819443
 20
0.8175211588541665
 30
0.0
 10
14.968250868055554
 20
0.4440728081597222
 30
0.0
  0
SPLINE
  5
110
100
AcDbEntity
  8
LIVELLO_1
 62
     7
100
AcDbSpline
210
0.0
220
0.0
230
1.0
 70
     8
 71
     3
 72
    17
 73
    13
 74
     0
 42
0.00000001
 43
0.00000001
 40
0.0
 40
0.0
 40
0.0
 40
0.0
 40
1.0
 40
1.0
 40
1.0
 40
2.0
 40
2.0
 40
2.0
 40
3.0
 40
3.0
 40
3.0
 40
4.0
 40
4.0
 40
4.0
 40
4.0
 10
14.730883789062499
 20
14.662670898437499
 30
0.0
 10
15.681041124131943
 20
13.684952799479165
 30
0.0
 10
16.129248046874999
 20
12.892925347222221
 30
0.0
 10
16.876489257812498
 20
11.743641493055554
 30
0.0
 10
15.847439236111109
 20
10.750420464409721
 30
0.0
 10
14.752243381076388
 20
10.611927625868054
 30
0.0
 10
13.30530327690972
 20
10.737673611111109
 30
0.0
 10
12.136726888020831
 20
10.84033745659722
 30
0.0
 10
10.773502604166666
 20
11.383973524305555
 30
0.0
 10
10.873410373263887
 20
12.551516384548609
 30
0.0
 10
10.996055772569443
 20
13.954014756944444
 30
0.0
 10
13.329074435763888
 20
14.784627278645832
 30
0.0
 10
14.730883789062499
 20
14.662670898437499
 30
0.0
  0
SPLINE
  5
10F
100
AcDbEntity
  8
LIVELLO_1
 62
     7
100
AcDbSpline
210
0.0
220
0.0
230
1.0
 70
     8
 71
     3
 72
    17
 73
    13
 74
     0
 42
0.00000001
 43
0.00000001
 40
0.0
 40
0.0
 40
0.0
 40
0.0
 40
1.0
 40
1.0
 40
1.0
 40
2.0
 40
2.0
 40
2.0
 40
3.0
 40
3.0
 40
3.0
 40
4.0
 40
4.0
 40
4.0
 40
4.0
 10
14.503851996527777
 20
9.1136555989583332
 30
0.0
 10
15.45400933159722
 20
8.1355929904513875
 30
0.0
 10
16.219854058159722
 20
8.1714219835069439
 30
0.0
 10
16.96675075954861
 20
7.023516167534722
 30
0.0
 10
15.938734266493054
 20
6.0302951388888886
 30
0.0
 10
15.22422146267361
 20
6.8026855468749998
 30
0.0
 10
13.777281358506944
 20
6.9294650607638886
 30
0.0
 10
12.607326931423611
 20
7.0310953776041663
 30
0.0
 10
10.035907660590278
 20
7.9447347005208329
 30
0.0
 10
10.136504448784722
 20
9.1136555989583332
 30
0.0
 10
10.260527886284722
 20
10.512708875868055
 30
0.0
 10
13.102387152777776
 20
9.2338894314236111
 30
0.0
 10
14.503851996527777
 20
9.1136555989583332
 30
0.0
  0
SPLINE
  5
10E
100
AcDbEntity
  8
LIVELLO_1
 62
     7
100
AcDbSpline
210
0.0
220
0.0
230
1.0
 70
     8
 71
     3
 72
    17
 73
    13
 74
     0
 42
0.00000001
 43
0.00000001
 40
0.0
 40
0.0
 40
0.0
 40
0.0
 40
1.0
 40
1.0
 40
1.0
 40
2.0
 40
2.0
 40
2.0
 40
3.0
 40
3.0
 40
3.0
 40
4.0
 40
4.0
 40
4.0
 40
4.0
 10
20.381184895833332
 20
1.9550916883680554
 30
0.0
 10
21.332720269097219
 20
0.977029079861111
 30
0.0
 10
21.782305230034719
 20
0.1856906467013889
 30
0.0
 10
22.528857421874999
 20
-0.9642822265625
 30
0.0
 10
21.499118381076386
 20
-1.9575032552083331
 30
0.0
 10
20.407023111979164
 20
-2.0973741319444441
 30
0.0
 10
18.958360460069443
 20
-1.9699055989583332
 30
0.0
 10
17.788750542534721
 20
-1.8655192057291665
 30
0.0
 10
16.423114691840276
 20
-1.3236056857638887
 30
0.0
 10
16.526123046875
 20
-0.1564073350694444
 30
0.0
 10
16.648079427083331
 20
1.2464355468749999
 30
0.0
 10
18.981098090277776
 20
2.0770480685763886
 30
0.0
 10
20.381184895833332
 20
1.9550916883680554
 30
0.0
  0
SPLINE
  5
10D
100
AcDbEntity
  8
LIVELLO_1
 62
     7
100
AcDbSpline
210
0.0
220
0.0
230
1.0
 70
     8
 71
     3
 72
    20
 73
    16
 74
     0
 42
0.00000001
 43
0.00000001
 40
0.0
 40
0.0
 40
0.0
 40
0.0
 40
1.0
 40
1.0
 40
1.0
 40
2.0
 40
2.0
 40
2.0
 40
3.0
 40
3.0
 40
3.0
 40
4.0
 40
4.0
 40
4.0
 40
5.0
 40
5.0
 40
5.0
 40
5.0
 10
17.081127929687497
 20
5.8459825303819439
 30
0.0
 10
16.716292317708334
 20
3.5312228732638884
 30
0.0
 10
15.73926323784722
 20
1.6326307508680553
 30
0.0
 10
13.412445746527776
 20
1.8345133463541665
 30
0.0
 10
11.804619683159721
 20
1.9740397135416665
 30
0.0
 10
11.203795030381944
 20
2.4773681640624998
 30
0.0
 10
10.432438151041666
 20
3.8378363715277772
 30
0.0
 10
10.432438151041666
 20
3.8378363715277772
 30
0.0
 10
10.892702907986109
 20
5.4156901041666661
 30
0.0
 10
10.892702907986109
 20
5.4156901041666661
 30
0.0
 10
12.600436740451388
 20
5.509396701388888
 30
0.0
 10
13.504085286458333
 20
5.6723497178819438
 30
0.0
 10
15.151529947916666
 20
6.0141031901041657
 30
0.0
 10
15.151529947916666
 20
6.0141031901041657
 30
0.0
 10
17.081127929687497
 20
5.8459825303819439
 30
0.0
 10
17.081127929687497
 20
5.8459825303819439
 30
0.0
  0
SPLINE
  5
10C
100
AcDbEntity
  8
LIVELLO_1
 62
     7
100
AcDbSpline
210
0.0
220
0.0
230
1.0
 70
     8
 71
     3
 72
    23
 73
    19
 74
     0
 42
0.00000001
 43
0.00000001
 40
0.0
 40
0.0
 40
0.0
 40
0.0
 40
1.0
 40
1.0
 40
1.0
 40
2.0
 40
2.0
 40
2.0
 40
3.0
 40
3.0
 40
3.0
 40
4.0
 40
4.0
 40
4.0
 40
5.0
 40
5.0
 40
5.0
 40
6.0
 40
6.0
 40
6.0
 40
6.0
 10
-0.5084960937499999
 20
12.804730902777777
 30
0.0
 10
-0.5084960937499999
 20
12.804730902777777
 30
0.0
 10
0.3417534722222222
 20
11.435649956597221
 30
0.0
 10
0.3417534722222222
 20
11.435649956597221
 30
0.0
 10
-0.7369059244791666
 20
11.125591362847221
 30
0.0
 10
-1.349099392361111
 20
10.613650173611109
 30
0.0
 10
-2.4727172851562496
 20
10.710801866319443
 30
0.0
 10
-3.597368706597222
 20
10.808298068576388
 30
0.0
 10
-4.1596082899305555
 20
10.858251953124999
 30
0.0
 10
-5.2823649088541664
 20
10.957126193576388
 30
0.0
 10
-5.3002794053819438
 20
11.686797417534722
 30
0.0
 10
-5.5056070963541659
 20
12.108477105034721
 30
0.0
 10
-5.4420450846354163
 20
12.830913628472221
 30
0.0
 10
-5.2806423611111111
 20
14.676451280381944
 30
0.0
 10
-2.8375528971354163
 20
14.869721137152776
 30
0.0
 10
-1.0045898437499998
 20
14.547260199652776
 30
0.0
 10
-1.0045898437499998
 20
14.547260199652776
 30
0.0
 10
-0.5084960937499999
 20
12.804730902777777
 30
0.0
 10
-0.5084960937499999
 20
12.804730902777777
 30
0.0
  0
SPLINE
  5
10B
100
AcDbEntity
  8
LIVELLO_1
 62
     7
100
AcDbSpline
210
0.0
220
0.0
230
1.0
 70
     8
 71
     3
 72
    17
 73
    13
 74
     0
 42
0.00000001
 43
0.00000001
 40
0.0
 40
0.0
 40
0.0
 40
0.0
 40
1.0
 40
1.0
 40
1.0
 40
2.0
 40
2.0
 40
2.0
 40
3.0
 40
3.0
 40
3.0
 40
4.0
 40
4.0
 40
4.0
 40
4.0
 10
-17.888486056857637
 20
9.1260579427083321
 30
0.0
 10
-17.990116373697916
 20
7.958859592013888
 30
0.0
 10
-18.964389377170136
 20
7.0555555555555554
 30
0.0
 10
-20.132276746961804
 20
7.1564968532986102
 30
0.0
 10
-20.739819335937497
 20
7.209551323784722
 30
0.0
 10
-21.521511501736111
 20
7.4186686197916663
 30
0.0
 10
-21.468629286024303
 20
8.026038953993055
 30
0.0
 10
-21.316356065538191
 20
9.7547878689236107
 30
0.0
 10
-21.111717393663191
 20
10.762478298611111
 30
0.0
 10
-19.433439127604164
 20
11.08493923611111
 30
0.0
 10
-19.509747992621527
 20
10.243646918402776
 30
0.0
 10
-17.814071994357636
 20
9.9656277126736104
 30
0.0
 10
-17.888486056857637
 20
9.1260579427083321
 30
0.0
  0
SPLINE
  5
10A
100
AcDbEntity
  8
LIVELLO_1
 62
     7
100
AcDbSpline
210
0.0
220
0.0
230
1.0
 70
     8
 71
     3
 72
    17
 73
    13
 74
     0
 42
0.00000001
 43
0.00000001
 40
0.0
 40
0.0
 40
0.0
 40
0.0
 40
1.0
 40
1.0
 40
1.0
 40
2.0
 40
2.0
 40
2.0
 40
3.0
 40
3.0
 40
3.0
 40
4.0
 40
4.0
 40
4.0
 40
4.0
 10
-23.050100368923609
 20
8.5538275824652779
 30
0.0
 10
-23.150180392795136
 20
7.3866292317708329
 30
0.0
 10
-24.121697319878471
 20
6.4836697048611107
 30
0.0
 10
-25.293202039930552
 20
6.5846110026041664
 30
0.0
 10
-25.899022081163192
 20
6.6393880208333327
 30
0.0
 10
-26.681058756510414
 20
6.848505316840277
 30
0.0
 10
-26.628693305121526
 20
7.4558756510416657
 30
0.0
 10
-26.476420084635414
 20
9.1846245659722214
 30
0.0
 10
-25.293202039930552
 20
10.351478407118055
 30
0.0
 10
-23.615957302517359
 20
10.6753173828125
 30
0.0
 10
-23.688476562499996
 20
9.8347140842013872
 30
0.0
 10
-22.97413601345486
 20
9.3971869574652764
 30
0.0
 10
-23.050100368923609
 20
8.5538275824652779
 30
0.0
  0
SPLINE
  5
109
100
AcDbEntity
  8
LIVELLO_1
 62
     7
100
AcDbSpline
210
0.0
220
0.0
230
1.0
 70
     8
 71
     3
 72
    20
 73
    16
 74
     0
 42
0.00000001
 43
0.00000001
 40
0.0
 40
0.0
 40
0.0
 40
0.0
 40
1.0
 40
1.0
 40
1.0
 40
2.0
 40
2.0
 40
2.0
 40
3.0
 40
3.0
 40
3.0
 40
4.0
 40
4.0
 40
4.0
 40
5.0
 40
5.0
 40
5.0
 40
5.0
 10
-25.714881727430551
 20
5.2100179036458325
 30
0.0
 10
-26.788201226128471
 20
5.3040690104166659
 30
0.0
 10
-27.672729492187496
 20
4.3477105034722214
 30
0.0
 10
-27.765747070312496
 20
3.2707736545138886
 30
0.0
 10
-27.843606228298608
 20
2.3850396050347218
 30
0.0
 10
-27.888736979166666
 20
1.8699978298611108
 30
0.0
 10
-27.966768391927079
 20
0.9821967230902777
 30
0.0
 10
-27.172329372829857
 20
0.9132948133680555
 30
0.0
 10
-26.753750271267357
 20
0.8781548394097222
 30
0.0
 10
-25.957416449652776
 20
0.8071858723958333
 30
0.0
 10
-24.462589518229166
 20
0.675927734375
 30
0.0
 10
-22.453409830729164
 20
0.5005723741319444
 30
0.0
 10
-22.323185221354166
 20
1.9953993055555554
 30
0.0
 10
-22.163677300347221
 20
3.8181993272569441
 30
0.0
 10
-23.891392686631942
 20
5.0508544921874998
 30
0.0
 10
-25.714881727430551
 20
5.2100179036458325
 30
0.0
  0
SPLINE
  5
108
100
AcDbEntity
  8
LIVELLO_1
 62
     7
100
AcDbSpline
210
0.0
220
0.0
230
1.0
 70
     8
 71
     3
 72
    17
 73
    13
 74
     0
 42
0.00000001
 43
0.00000001
 40
0.0
 40
0.0
 40
0.0
 40
0.0
 40
1.0
 40
1.0
 40
1.0
 40
2.0
 40
2.0
 40
2.0
 40
3.0
 40
3.0
 40
3.0
 40
4.0
 40
4.0
 40
4.0
 40
4.0
 10
-18.153069390190971
 20
6.6180284288194438
 30
0.0
 10
-17.202739800347221
 20
5.6423773871527771
 30
0.0
 10
-16.754705132378472
 20
4.8489718967013884
 30
0.0
 10
-16.008152940538192
 20
3.7010660807291664
 30
0.0
 10
-17.036341688368054
 20
2.7075005425347221
 30
0.0
 10
-18.131882052951386
 20
2.5676296657986111
 30
0.0
 10
-19.580544704861108
 20
2.6947536892361108
 30
0.0
 10
-20.746881781684024
 20
2.7963840060763885
 30
0.0
 10
-22.114067925347221
 20
3.3396755642361109
 30
0.0
 10
-22.011576334635414
 20
4.5085964626736104
 30
0.0
 10
-21.887380642361109
 20
5.9097167968749993
 30
0.0
 10
-19.55574001736111
 20
6.7403293185763884
 30
0.0
 10
-18.153069390190971
 20
6.6180284288194438
 30
0.0
  0
SPLINE
  5
107
100
AcDbEntity
  8
LIVELLO_1
 62
     7
100
AcDbSpline
210
0.0
220
0.0
230
1.0
 70
     8
 71
     3
 72
    14
 73
    10
 74
     0
 42
0.00000001
 43
0.00000001
 40
0.0
 40
0.0
 40
0.0
 40
0.0
 40
1.0
 40
1.0
 40
1.0
 40
2.0
 40
2.0
 40
2.0
 40
3.0
 40
3.0
 40
3.0
 40
3.0
 10
-10.784526909722221
 20
7.8527506510416663
 30
0.0
 10
-10.91905788845486
 20
6.3114149305555554
 30
0.0
 10
-12.538769531249999
 20
5.5590060763888882
 30
0.0
 10
-14.080622016059026
 20
5.6937093098958327
 30
0.0
 10
-15.623163519965276
 20
5.8284125434027771
 30
0.0
 10
-16.570737033420137
 20
7.3707817925347214
 30
0.0
 10
-16.434138997395831
 20
8.9134955512152771
 30
0.0
 10
-16.238629828559027
 20
11.155563693576388
 30
0.0
 10
-10.587122938368054
 20
10.096885850694443
 30
0.0
 10
-10.784526909722221
 20
7.8527506510416663
 30
0.0
  0
SPLINE
  5
106
100
AcDbEntity
  8
LIVELLO_1
 62
     7
100
AcDbSpline
210
0.0
220
0.0
230
1.0
 70
     8
 71
     3
 72
    20
 73
    16
 74
     0
 42
0.00000001
 43
0.00000001
 40
0.0
 40
0.0
 40
0.0
 40
0.0
 40
1.0
 40
1.0
 40
1.0
 40
2.0
 40
2.0
 40
2.0
 40
3.0
 40
3.0
 40
3.0
 40
4.0
 40
4.0
 40
4.0
 40
5.0
 40
5.0
 40
5.0
 40
5.0
 10
-4.9345825195312498
 20
7.7642116970486104
 30
0.0
 10
-5.0265665690104164
 20
6.7193142361111109
 30
0.0
 10
-5.8625189887152773
 20
6.387896050347222
 30
0.0
 10
-6.4232082790798604
 20
5.5483262803819438
 30
0.0
 10
-6.4232082790798604
 20
5.5483262803819438
 30
0.0
 10
-10.730438910590276
 20
3.8357693142361109
 30
0.0
 10
-10.730438910590276
 20
3.8357693142361109
 30
0.0
 10
-10.673767089843748
 20
4.4769015842013884
 30
0.0
 10
-9.6226684570312493
 20
6.8784776475694436
 30
0.0
 10
-9.5659966362847211
 20
7.5213324652777773
 30
0.0
 10
-9.4533420138888875
 20
8.8056640625
 30
0.0
 10
-8.3252454969618039
 20
9.6769287109374993
 30
0.0
 10
-7.0412584092881936
 20
9.5653076171875
 30
0.0
 10
-5.9989447699652771
 20
9.4750461154513879
 30
0.0
 10
-4.8413926866319441
 20
8.8073866102430554
 30
0.0
 10
-4.9345825195312498
 20
7.7642116970486104
 30
0.0
  0
SPLINE
  5
105
100
AcDbEntity
  8
LIVELLO_1
 62
     7
100
AcDbSpline
210
0.0
220
0.0
230
1.0
 70
     8
 71
     3
 72
    20
 73
    16
 74
     0
 42
0.00000001
 43
0.00000001
 40
0.0
 40
0.0
 40
0.0
 40
0.0
 40
1.0
 40
1.0
 40
1.0
 40
2.0
 40
2.0
 40
2.0
 40
3.0
 40
3.0
 40
3.0
 40
4.0
 40
4.0
 40
4.0
 40
5.0
 40
5.0
 40
5.0
 40
5.0
 10
-22.963456217447913
 20
-0.4130669487847222
 30
0.0
 10
-20.699856228298611
 20
-1.3411756727430555
 30
0.0
 10
-18.215081108940971
 20
-2.5280110677083329
 30
0.0
 10
-18.4329833984375
 20
-5.0181260850694436
 30
0.0
 10
-18.494133843315971
 20
-5.7405626085069441
 30
0.0
 10
-19.303214518229165
 20
-5.7515869140624991
 30
0.0
 10
-19.829625108506942
 20
-6.1904920789930546
 30
0.0
 10
-19.829625108506942
 20
-6.1904920789930546
 30
0.0
 10
-24.405056423611107
 20
-5.788449435763888
 30
0.0
 10
-24.405056423611107
 20
-5.788449435763888
 30
0.0
 10
-24.401439073350691
 20
-4.8193440755208332
 30
0.0
 10
-24.593503146701387
 20
-4.2371229383680555
 30
0.0
 10
-24.508581542968749
 20
-3.271807183159722
 30
0.0
 10
-24.396271430121526
 20
-1.9874755859374997
 30
0.0
 10
-23.617679850260416
 20
-1.408010525173611
 30
0.0
 10
-22.963456217447913
 20
-0.4130669487847222
 30
0.0
  0
SPLINE
  5
104
100
AcDbEntity
  8
LIVELLO_1
 62
     7
100
AcDbSpline
210
0.0
220
0.0
230
1.0
 70
     8
 71
     3
 72
    23
 73
    19
 74
     0
 42
0.00000001
 43
0.00000001
 40
0.0
 40
0.0
 40
0.0
 40
0.0
 40
1.0
 40
1.0
 40
1.0
 40
2.0
 40
2.0
 40
2.0
 40
3.0
 40
3.0
 40
3.0
 40
4.0
 40
4.0
 40
4.0
 40
5.0
 40
5.0
 40
5.0
 40
6.0
 40
6.0
 40
6.0
 40
6.0
 10
7.834836154513888
 20
-4.941644965277777
 30
0.0
 10
9.1305365668402771
 20
-5.8625189887152773
 30
0.0
 10
9.6001030815972221
 20
-6.9577148437499989
 30
0.0
 10
10.115144856770833
 20
-8.4594319661458321
 30
0.0
 10
10.115144856770833
 20
-8.4594319661458321
 30
0.0
 10
9.6831298828124996
 20
-9.7148247612847207
 30
0.0
 10
9.6831298828124996
 20
-9.7148247612847207
 30
0.0
 10
9.1208902994791661
 20
-9.6655598958333329
 30
0.0
 10
8.71919216579861
 20
-9.6300754123263879
 30
0.0
 10
8.1562635633680554
 20
-9.5818440755208325
 30
0.0
 10
6.3899631076388888
 20
-9.427848307291665
 30
0.0
 10
4.9984890407986109
 20
-7.7686903211805545
 30
0.0
 10
5.152829318576388
 20
-6.0006673177083325
 30
0.0
 10
5.2234537760416666
 20
-5.1986490885416661
 30
0.0
 10
6.0399414062499996
 20
-5.1083875868055548
 30
0.0
 10
6.5784098307291661
 20
-4.5058403862847216
 30
0.0
 10
6.5784098307291661
 20
-4.5058403862847216
 30
0.0
 10
7.834836154513888
 20
-4.941644965277777
 30
0.0
 10
7.834836154513888
 20
-4.941644965277777
 30
0.0
  0
SPLINE
  5
103
100
AcDbEntity
  8
LIVELLO_1
 62
     7
100
AcDbSpline
210
0.0
220
0.0
230
1.0
 70
     8
 71
     3
 72
    17
 73
    13
 74
     0
 42
0.00000001
 43
0.00000001
 40
0.0
 40
0.0
 40
0.0
 40
0.0
 40
1.0
 40
1.0
 40
1.0
 40
2.0
 40
2.0
 40
2.0
 40
3.0
 40
3.0
 40
3.0
 40
4.0
 40
4.0
 40
4.0
 40
4.0
 10
14.503851996527777
 20
-7.416257052951388
 30
0.0
 10
12.896714952256943
 20
-7.2743191189236107
 30
0.0
 10
11.451841905381944
 20
-7.5047960069444439
 30
0.0
 10
10.682896592881944
 20
-6.1426052517361107
 30
0.0
 10
10.682896592881944
 20
-6.1426052517361107
 30
0.0
 10
11.265117730034721
 20
-3.5498263888888886
 30
0.0
 10
11.265117730034721
 20
-3.5498263888888886
 30
0.0
 10
12.971473524305555
 20
-3.457497829861111
 30
0.0
 10
13.765223524305554
 20
-3.9373996310763886
 30
0.0
 10
15.414735243055555
 20
-3.5939236111111108
 30
0.0
 10
15.414735243055555
 20
-3.5939236111111108
 30
0.0
 10
16.829980468749998
 20
-7.6195176866319434
 30
0.0
 10
14.503851996527777
 20
-7.416257052951388
 30
0.0
  0
SPLINE
  5
102
100
AcDbEntity
  8
LIVELLO_1
 62
     7
100
AcDbSpline
210
0.0
220
0.0
230
1.0
 70
     8
 71
     3
 72
    14
 73
    10
 74
     0
 42
0.00000001
 43
0.00000001
 40
0.0
 40
0.0
 40
0.0
 40
0.0
 40
1.0
 40
1.0
 40
1.0
 40
2.0
 40
2.0
 40
2.0
 40
3.0
 40
3.0
 40
3.0
 40
3.0
 10
9.5346462673611097
 20
2.3974419487847221
 30
0.0
 10
8.9596598307291657
 20
2.2861653645833333
 30
0.0
 10
8.5148980034722221
 20
1.8414035373263886
 30
0.0
 10
7.8734212239583323
 20
1.8948025173611109
 30
0.0
 10
6.1870469835069439
 20
2.0436306423611108
 30
0.0
 10
5.5104302300347214
 20
3.5577501085069443
 30
0.0
 10
4.9206298828124995
 20
5.1462836371527771
 30
0.0
 10
6.9628824869791659
 20
5.3729709201388882
 30
0.0
 10
8.646156141493055
 20
4.2553819444444443
 30
0.0
 10
9.5346462673611097
 20
2.3974419487847221
 30
0.0
  0
SPLINE
  5
101
100
AcDbEntity
  8
LIVELLO_1
 62
     7
100
AcDbSpline
210
0.0
220
0.0
230
1.0
 70
     8
 71
     3
 72
    23
 73
    19
 74
     0
 42
0.00000001
 43
0.00000001
 40
0.0
 40
0.0
 40
0.0
 40
0.0
 40
1.0
 40
1.0
 40
1.0
 40
2.0
 40
2.0
 40
2.0
 40
3.0
 40
3.0
 40
3.0
 40
4.0
 40
4.0
 40
4.0
 40
5.0
 40
5.0
 40
5.0
 40
6.0
 40
6.0
 40
6.0
 40
6.0
 10
8.6409884982638889
 20
8.832191297743055
 30
0.0
 10
8.5862114800347218
 20
8.1907145182291661
 30
0.0
 10
9.5494601779513886
 20
8.1038981119791664
 30
0.0
 10
9.4926161024305546
 20
7.4648328993055548
 30
0.0
 10
9.3372422960069432
 20
5.6971544053819443
 30
0.0
 10
6.6631591796874998
 20
6.5777208116319441
 30
0.0
 10
4.9120171440972218
 20
6.8926025390624996
 30
0.0
 10
4.7993625217013882
 20
7.4682779947916664
 30
0.0
 10
4.3532226562499998
 20
7.9126953124999995
 30
0.0
 10
4.4097222222222214
 20
8.5538275824652779
 30
0.0
 10
4.4672553168402773
 20
9.1970269097222221
 30
0.0
 10
4.9826416015624995
 20
9.5580729166666654
 30
0.0
 10
5.1924479166666666
 20
10.105498589409722
 30
0.0
 10
5.1924479166666666
 20
10.105498589409722
 30
0.0
 10
8.0839165581597214
 20
9.8519395616319443
 30
0.0
 10
8.0839165581597214
 20
9.8519395616319443
 30
0.0
 10
8.0839165581597214
 20
9.8519395616319443
 30
0.0
 10
8.6409884982638889
 20
8.832191297743055
 30
0.0
 10
8.6409884982638889
 20
8.832191297743055
 30
0.0
  0
SPLINE
  5
100
100
AcDbEntity
  8
LIVELLO_1
 62
     7
100
AcDbSpline
210
0.0
220
0.0
230
1.0
 70
     8
 71
     3
 72
    17
 73
    13
 74
     0
 42
0.00000001
 43
0.00000001
 40
0.0
 40
0.0
 40
0.0
 40
0.0
 40
1.0
 40
1.0
 40
1.0
 40
2.0
 40
2.0
 40
2.0
 40
3.0
 40
3.0
 40
3.0
 40
4.0
 40
4.0
 40
4.0
 40
4.0
 10
7.1234239366319434
 20
0.5288221571180555
 30
0.0
 10
6.0561333550347216
 20
0.378271484375
 30
0.0
 10
4.8028076171874998
 20
-0.0785481770833333
 30
0.0
 10
4.7070339626736111
 20
-1.2030273437499999
 30
0.0
 10
4.619873046875
 20
-2.1648980034722221
 30
0.0
 10
4.8303683810763882
 20
-3.4771348741319441
 30
0.0
 10
5.7932725694444436
 20
-3.5618842230902774
 30
0.0
 10
7.6415662977430552
 20
-3.7231146918402773
 30
0.0
 10
9.7630560980902761
 20
-3.5057291666666663
 30
0.0
 10
10.164065212673611
 20
-1.6794840494791665
 30
0.0
 10
10.452764214409722
 20
-0.2487358940972222
 30
0.0
 10
8.3646918402777768
 20
-0.0661458333333333
 30
0.0
 10
7.1234239366319434
 20
0.5288221571180555
 30
0.0
  0
SPLINE
  5
FF
100
AcDbEntity
  8
LIVELLO_1
 62
     7
100
AcDbSpline
210
0.0
220
0.0
230
1.0
 70
     8
 71
     3
 72
    23
 73
    19
 74
     0
 42
0.00000001
 43
0.00000001
 40
0.0
 40
0.0
 40
0.0
 40
0.0
 40
1.0
 40
1.0
 40
1.0
 40
2.0
 40
2.0
 40
2.0
 40
3.0
 40
3.0
 40
3.0
 40
4.0
 40
4.0
 40
4.0
 40
5.0
 40
5.0
 40
5.0
 40
6.0
 40
6.0
 40
6.0
 40
6.0
 10
2.7901828342013886
 20
8.5007731119791661
 30
0.0
 10
2.7901828342013886
 20
8.5007731119791661
 30
0.0
 10
3.3196940104166663
 20
7.1582194010416664
 30
0.0
 10
3.3196940104166663
 20
7.1582194010416664
 30
0.0
 10
1.8035074869791665
 20
6.4819471571180554
 30
0.0
 10
0.6893636067708333
 20
5.7715684678819441
 30
0.0
 10
-0.9947713216145833
 20
5.918329535590277
 30
0.0
 10
-1.7988566080729165
 20
5.9879204644097213
 30
0.0
 10
-2.9607150607638886
 20
4.9871202256944436
 30
0.0
 10
-3.6629977756076384
 20
5.2913221571180546
 30
0.0
 10
-3.6629977756076384
 20
5.2913221571180546
 30
0.0
 10
-2.7250705295138888
 20
8.336097547743055
 30
0.0
 10
-2.7250705295138888
 20
8.336097547743055
 30
0.0
 10
-1.3577121310763887
 20
9.1863471137152768
 30
0.0
 10
-0.0444417317708333
 20
9.3951199001736097
 30
0.0
 10
1.5892225477430555
 20
9.5742648654513882
 30
0.0
 10
1.5892225477430555
 20
9.5742648654513882
 30
0.0
 10
2.7901828342013886
 20
8.5007731119791661
 30
0.0
 10
2.7901828342013886
 20
8.5007731119791661
 30
0.0
  0
SPLINE
  5
FE
100
AcDbEntity
  8
LIVELLO_1
 62
     7
100
AcDbSpline
210
0.0
220
0.0
230
1.0
 70
     8
 71
     3
 72
    23
 73
    19
 74
     0
 42
0.00000001
 43
0.00000001
 40
0.0
 40
0.0
 40
0.0
 40
0.0
 40
1.0
 40
1.0
 40
1.0
 40
2.0
 40
2.0
 40
2.0
 40
3.0
 40
3.0
 40
3.0
 40
4.0
 40
4.0
 40
4.0
 40
5.0
 40
5.0
 40
5.0
 40
6.0
 40
6.0
 40
6.0
 40
6.0
 10
-14.954470486111109
 20
0.824755859375
 30
0.0
 10
-14.954470486111109
 20
0.824755859375
 30
0.0
 10
-14.772913953993054
 20
-0.8095974392361111
 30
0.0
 10
-14.772913953993054
 20
-0.8095974392361111
 30
0.0
 10
-15.770096842447915
 20
-1.1255126953124999
 30
0.0
 10
-16.434138997395831
 20
-1.3091362847222221
 30
0.0
 10
-17.424259440104166
 20
-1.5465033637152776
 30
0.0
 10
-17.424259440104166
 20
-1.5465033637152776
 30
0.0
 10
-18.680858018663194
 20
-1.1127658420138888
 30
0.0
 10
-18.680858018663194
 20
-1.1127658420138888
 30
0.0
 10
-18.680858018663194
 20
-1.1127658420138888
 30
0.0
 10
-19.21226399739583
 20
0.2284098307291667
 30
0.0
 10
-19.21226399739583
 20
0.2284098307291667
 30
0.0
 10
-19.21226399739583
 20
0.2284098307291667
 30
0.0
 10
-17.522616916232636
 20
1.0497205946180554
 30
0.0
 10
-17.522616916232636
 20
1.0497205946180554
 30
0.0
 10
-17.522616916232636
 20
1.0497205946180554
 30
0.0
 10
-16.458082411024304
 20
1.1985487196180555
 30
0.0
 10
-14.954470486111109
 20
0.824755859375
 30
0.0
  0
SPLINE
  5
FD
100
AcDbEntity
  8
LIVELLO_1
 62
     7
100
AcDbSpline
210
0.0
220
0.0
230
1.0
 70
     8
 71
     3
 72
    20
 73
    16
 74
     0
 42
0.00000001
 43
0.00000001
 40
0.0
 40
0.0
 40
0.0
 40
0.0
 40
1.0
 40
1.0
 40
1.0
 40
2.0
 40
2.0
 40
2.0
 40
3.0
 40
3.0
 40
3.0
 40
4.0
 40
4.0
 40
4.0
 40
5.0
 40
5.0
 40
5.0
 40
5.0
 10
-9.0452704535590271
 20
2.3833170572916664
 30
0.0
 10
-9.0568115234374993
 20
1.3315294053819444
 30
0.0
 10
-8.8716376410590279
 20
0.6669704861111111
 30
0.0
 10
-8.6359931098090268
 20
-0.3228054470486111
 30
0.0
 10
-9.8891465928819429
 20
-0.7796251085069443
 30
0.0
 10
-10.434677463107638
 20
-1.4600314670138888
 30
0.0
 10
-11.718664550781249
 20
-1.3501329210069444
 30
0.0
 10
-12.281076388888888
 20
-1.2988009982638888
 30
0.0
 10
-12.682257758246527
 20
-1.2646945529513889
 30
0.0
 10
-13.243636067708332
 20
-1.2150851779513887
 30
0.0
 10
-13.274641927083332
 20
-0.644921875
 30
0.0
 10
-14.150557454427082
 20
-0.4874810112847222
 30
0.0
 10
-14.094746907552082
 20
0.1536512586805555
 30
0.0
 10
-13.904233127170137
 20
2.3216498480902774
 30
0.0
 10
-11.185536024305554
 20
2.8918131510416663
 30
0.0
 10
-9.0452704535590271
 20
2.3833170572916664
 30
0.0
  0
SPLINE
  5
FC
100
AcDbEntity
  8
LIVELLO_1
 62
     7
100
AcDbSpline
210
0.0
220
0.0
230
1.0
 70
     8
 71
     3
 72
    20
 73
    16
 74
     0
 42
0.00000001
 43
0.00000001
 40
0.0
 40
0.0
 40
0.0
 40
0.0
 40
1.0
 40
1.0
 40
1.0
 40
2.0
 40
2.0
 40
2.0
 40
3.0
 40
3.0
 40
3.0
 40
4.0
 40
4.0
 40
4.0
 40
5.0
 40
5.0
 40
5.0
 40
5.0
 10
-13.684608289930555
 20
-3.1670762803819441
 30
0.0
 10
-13.684608289930555
 20
-3.1670762803819441
 30
0.0
 10
-9.50209011501736
 20
-3.452330186631944
 30
0.0
 10
-9.50209011501736
 20
-3.452330186631944
 30
0.0
 10
-9.5880452473958329
 20
-4.4159233940972218
 30
0.0
 10
-9.6280083550347211
 20
-4.899614800347222
 30
0.0
 10
-9.7129299587673597
 20
-5.860796440972222
 30
0.0
 10
-10.057267252604166
 20
-9.7947509765624989
 30
0.0
 10
-15.137921820746527
 20
-9.5945909288194429
 30
0.0
 10
-19.098059082031249
 20
-9.5697862413194432
 30
0.0
 10
-18.858969455295139
 20
-6.8405815972222213
 30
0.0
 10
-17.372066243489581
 20
-4.6246961805555555
 30
0.0
 10
-14.731400553385415
 20
-4.0455756293402771
 30
0.0
 10
-14.731400553385415
 20
-4.0455756293402771
 30
0.0
 10
-13.684608289930555
 20
-3.1670762803819441
 30
0.0
 10
-13.684608289930555
 20
-3.1670762803819441
 30
0.0
  0
POLYLINE
  5
F5
100
AcDbEntity
  8
LIVELLO_1
 62
     7
100
AcDb2dPolyline
 66
     1
 10
0.0
 20
0.0
 30
0.0
 70
     1
  0
VERTEX
  5
F6
100
AcDbEntity
  8
LIVELLO_1
 62
     7
100
AcDbVertex
100
AcDb2dVertex
 10
-6.896048
 20
0.444073
 30
0.0
  0
VERTEX
  5
F7
100
AcDbEntity
  8
LIVELLO_1
 62
     7
100
AcDbVertex
100
AcDb2dVertex
 10
-5.668732
 20
-0.310403
 30
0.0
  0
VERTEX
  5
F8
100
AcDbEntity
  8
LIVELLO_1
 62
     7
100
AcDbVertex
100
AcDb2dVertex
 10
-5.459615
 20
-1.62264
 30
0.0
  0
VERTEX
  5
F9
100
AcDbEntity
  8
LIVELLO_1
 62
     7
100
AcDbVertex
100
AcDb2dVertex
 10
-7.121012
 20
-2.123901
 30
0.0
  0
VERTEX
  5
FA
100
AcDbEntity
  8
LIVELLO_1
 62
     7
100
AcDbVertex
100
AcDb2dVertex
 10
-7.622274
 20
-0.462676
 30
0.0
  0
SEQEND
  5
FB
100
AcDbEntity
  8
LIVELLO_1
 62
     7
  0
SPLINE
  5
F4
100
AcDbEntity
  8
LIVELLO_1
 62
     7
100
AcDbSpline
210
0.0
220
0.0
230
1.0
 70
     8
 71
     3
 72
    23
 73
    19
 74
     0
 42
0.00000001
 43
0.00000001
 40
0.0
 40
0.0
 40
0.0
 40
0.0
 40
1.0
 40
1.0
 40
1.0
 40
2.0
 40
2.0
 40
2.0
 40
3.0
 40
3.0
 40
3.0
 40
4.0
 40
4.0
 40
4.0
 40
5.0
 40
5.0
 40
5.0
 40
6.0
 40
6.0
 40
6.0
 40
6.0
 10
3.5009060329861108
 20
2.9999891493055553
 30
0.0
 10
3.5009060329861108
 20
2.9999891493055553
 30
0.0
 10
4.3515001085069445
 20
1.6326307508680553
 30
0.0
 10
4.3515001085069445
 20
1.6326307508680553
 30
0.0
 10
3.2724962022569439
 20
1.320849609375
 30
0.0
 10
2.6637478298611108
 20
0.8089084201388889
 30
0.0
 10
1.5389241536458331
 20
0.9064046223958333
 30
0.0
 10
0.4141004774305555
 20
1.0039008246527776
 30
0.0
 10
-0.1477945963541666
 20
1.0531656901041666
 30
0.0
 10
-1.2710679796006943
 20
1.1506618923611109
 30
0.0
 10
-1.2888102213541666
 20
1.8803331163194443
 30
0.0
 10
-1.4960327148437498
 20
2.3054578993055554
 30
0.0
 10
-1.4322984483506944
 20
3.0265163845486107
 30
0.0
 10
-1.2693454318576387
 20
4.8734320746527775
 30
0.0
 10
1.1740885416666667
 20
5.0629123263888882
 30
0.0
 10
3.007912868923611
 20
4.7425184461805552
 30
0.0
 10
3.007912868923611
 20
4.7425184461805552
 30
0.0
 10
3.5009060329861108
 20
2.9999891493055553
 30
0.0
 10
3.5009060329861108
 20
2.9999891493055553
 30
0.0
  0
SPLINE
  5
F3
100
AcDbEntity
  8
LIVELLO_1
 62
     7
100
AcDbSpline
210
0.0
220
0.0
230
1.0
 70
     8
 71
     3
 72
    26
 73
    22
 74
     0
 42
0.00000001
 43
0.00000001
 40
0.0
 40
0.0
 40
0.0
 40
0.0
 40
1.0
 40
1.0
 40
1.0
 40
2.0
 40
2.0
 40
2.0
 40
3.0
 40
3.0
 40
3.0
 40
4.0
 40
4.0
 40
4.0
 40
5.0
 40
5.0
 40
5.0
 40
6.0
 40
6.0
 40
6.0
 40
7.0
 40
7.0
 40
7.0
 40
7.0
 10
-4.7359727647569443
 20
2.7643446180555551
 30
0.0
 10
-4.7359727647569443
 20
2.7643446180555551
 30
0.0
 10
-3.1572577582465273
 20
2.3033908420138887
 30
0.0
 10
-3.1572577582465273
 20
2.3033908420138887
 30
0.0
 10
-3.1572577582465273
 20
2.3033908420138887
 30
0.0
 10
-2.9483127170138888
 20
0.9897759331597221
 30
0.0
 10
-2.9483127170138888
 20
0.9897759331597221
 30
0.0
 10
-3.7585991753472219
 20
0.9787516276041666
 30
0.0
 10
-4.2614108615451389
 20
0.7823811848958333
 30
0.0
 10
-5.0648071289062493
 20
0.849905056423611
 30
0.0
 10
-5.949335394965277
 20
0.927419704861111
 30
0.0
 10
-6.111427137586805
 20
1.8324462890624997
 30
0.0
 10
-6.7206922743055548
 20
2.2913330078124998
 30
0.0
 10
-6.7206922743055548
 20
2.2913330078124998
 30
0.0
 10
-6.5994249131944436
 20
3.6549018012152774
 30
0.0
 10
-6.5994249131944436
 20
3.6549018012152774
 30
0.0
 10
-6.5994249131944436
 20
3.6549018012152774
 30
0.0
 10
-5.2585937499999993
 20
4.1861355251736105
 30
0.0
 10
-5.2585937499999993
 20
4.1861355251736105
 30
0.0
 10
-5.2585937499999993
 20
4.1861355251736105
 30
0.0
 10
-4.7359727647569443
 20
2.7643446180555551
 30
0.0
 10
-4.7359727647569443
 20
2.7643446180555551
 30
0.0
  0
SPLINE
  5
F2
100
AcDbEntity
  8
LIVELLO_1
 62
     7
100
AcDbSpline
210
0.0
220
0.0
230
1.0
 70
     8
 71
     3
 72
    17
 73
    13
 74
     0
 42
0.00000001
 43
0.00000001
 40
0.0
 40
0.0
 40
0.0
 40
0.0
 40
1.0
 40
1.0
 40
1.0
 40
2.0
 40
2.0
 40
2.0
 40
3.0
 40
3.0
 40
3.0
 40
4.0
 40
4.0
 40
4.0
 40
4.0
 10
0.2997233072916666
 20
-7.6267523871527771
 30
0.0
 10
-0.989431423611111
 20
-8.4859592013888889
 30
0.0
 10
-1.8474324544270833
 20
-9.0578450520833318
 30
0.0
 10
-3.3742987738715273
 20
-8.9231418185763882
 30
0.0
 10
-5.3002794053819438
 20
-8.7550211588541664
 30
0.0
 10
-6.7658230251736109
 20
-7.0087022569444439
 30
0.0
 10
-6.5975301106770825
 20
-5.0815158420138884
 30
0.0
 10
-6.4338880750868048
 20
-3.2363226996527774
 30
0.0
 10
-3.7646280924479165
 20
-1.3659803602430554
 30
0.0
 10
-2.4895982530381944
 20
-2.5280110677083329
 30
0.0
 10
-0.9222520616319444
 20
-4.0421305338541664
 30
0.0
 10
-0.7412122938368055
 20
-5.674761284722222
 30
0.0
 10
0.2997233072916666
 20
-7.6267523871527771
 30
0.0
  0
LINE
  5
F1
100
AcDbEntity
  8
LIVELLO_1
 62
     7
100
AcDbLine
 10
-3.775308
 20
-2.416045
 30
0.0
 11
-2.489598
 21
-2.528011
 31
0.0
  0
SPLINE
  5
F0
100
AcDbEntity
  8
LIVELLO_1
 62
     7
100
AcDbSpline
210
0.0
220
0.0
230
1.0
 70
     8
 71
     3
 72
    14
 73
    10
 74
     0
 42
0.00000001
 43
0.00000001
 40
0.0
 40
0.0
 40
0.0
 40
0.0
 40
1.0
 40
1.0
 40
1.0
 40
2.0
 40
2.0
 40
2.0
 40
3.0
 40
3.0
 40
3.0
 40
3.0
 10
4.3043023003472216
 20
-5.0146809895833329
 30
0.0
 10
3.8233669704861106
 20
-4.9740288628472218
 30
0.0
 10
3.5553385416666665
 20
-5.2751302083333327
 30
0.0
 10
3.0723361545138888
 20
-5.2306884765624995
 30
0.0
 10
0.4230577256944444
 20
-5.0005560980902777
 30
0.0
 10
-0.9858140733506944
 20
-2.6110378689236109
 30
0.0
 10
-1.4028428819444443
 20
0.0137803819444444
 30
0.0
 10
1.5947347005208332
 20
0.0754475911458333
 30
0.0
 10
3.5949571397569442
 20
-2.0408745659722221
 30
0.0
 10
4.3043023003472216
 20
-5.0146809895833329
 30
0.0
  0
ENDBLK
  5
11D
100
AcDbEntity
  8
LIVELLO_1
100
AcDbBlockEnd
  0
BLOCK
  5
120
100
AcDbEntity
  8
LIVELLO_1
 62
     7
100
AcDbBlockBegin
  2
AI9-BLK3
 70
     0
 10
0.0
 20
0.0
 30
0.0
  3
AI9-BLK3
  1

  0
INSERT
  5
12E
100
AcDbEntity
  8
LIVELLO_1
 62
     7
100
AcDbBlockReference
  2
AI9-BLK4
 10
0.019809
 20
4.448135
 30
0.0
  0
POLYLINE
  5
127
100
AcDbEntity
  8
LIVELLO_1
 62
     7
100
AcDb2dPolyline
 66
     1
 10
0.0
 20
0.0
 30
0.0
 70
     1
  0
VERTEX
  5
128
100
AcDbEntity
  8
LIVELLO_1
 62
     7
100
AcDbVertex
100
AcDb2dVertex
 10
-22.120958
 20
-39.97551
 30
0.0
  0
VERTEX
  5
129
100
AcDbEntity
  8
LIVELLO_1
 62
     7
100
AcDbVertex
100
AcDb2dVertex
 10
-37.855398
 20
-39.97551
 30
0.0
  0
VERTEX
  5
12A
100
AcDbEntity
  8
LIVELLO_1
 62
     7
100
AcDbVertex
100
AcDb2dVertex
 10
-37.855398
 20
37.935152
 30
0.0
  0
VERTEX
  5
12B
100
AcDbEntity
  8
LIVELLO_1
 62
     7
100
AcDbVertex
100
AcDb2dVertex
 10
-22.120958
 20
37.935152
 30
0.0
  0
SEQEND
  5
12C
100
AcDbEntity
  8
LIVELLO_1
 62
     7
  0
POLYLINE
  5
121
100
AcDbEntity
  8
LIVELLO_1
 62
     7
100
AcDb2dPolyline
 66
     1
 10
0.0
 20
0.0
 30
0.0
 70
     1
  0
VERTEX
  5
122
100
AcDbEntity
  8
LIVELLO_1
 62
     7
100
AcDbVertex
100
AcDb2dVertex
 10
21.977642
 20
-39.97551
 30
0.0
  0
VERTEX
  5
123
100
AcDbEntity
  8
LIVELLO_1
 62
     7
100
AcDbVertex
100
AcDb2dVertex
 10
37.711738
 20
-39.97551
 30
0.0
  0
VERTEX
  5
124
100
AcDbEntity
  8
LIVELLO_1
 62
     7
100
AcDbVertex
100
AcDb2dVertex
 10
37.711738
 20
37.935152
 30
0.0
  0
VERTEX
  5
125
100
AcDbEntity
  8
LIVELLO_1
 62
     7
100
AcDbVertex
100
AcDb2dVertex
 10
21.977642
 20
37.935152
 30
0.0
  0
SEQEND
  5
126
100
AcDbEntity
  8
LIVELLO_1
 62
     7
  0
ENDBLK
  5
135
100
AcDbEntity
  8
LIVELLO_1
100
AcDbBlockEnd
  0
BLOCK
  5
12F
100
AcDbEntity
  8
LIVELLO_1
 62
     7
100
AcDbBlockBegin
  2
AI9-BLK4
 70
     0
 10
0.0
 20
0.0
 30
0.0
  3
AI9-BLK4
  1

  0
INSERT
  5
131
100
AcDbEntity
  8
LIVELLO_1
 62
     7
100
AcDbBlockReference
  2
AI9-BLK5
 10
-0.029111
 20
0.032728
 30
0.0
  0
ENDBLK
  5
134
100
AcDbEntity
  8
LIVELLO_1
100
AcDbBlockEnd
  0
BLOCK
  5
132
100
AcDbEntity
  8
LIVELLO_1
 62
     7
100
AcDbBlockBegin
  2
AI9-BLK5
 70
     0
 10
0.0
 20
0.0
 30
0.0
  3
AI9-BLK5
  1

  0
ENDBLK
  5
133
100
AcDbEntity
  8
LIVELLO_1
100
AcDbBlockEnd
  0
ENDSEC
  0
SECTION
  2
ENTITIES
  0
INSERT
  5
2A
100
AcDbEntity
  8
LIVELLO_1
 62
     7
100
AcDbBlockReference
  2
AI9-BLK1
 10
113.211867
 20
174.809571
 30
0.0
  0
ENDSEC
  0
SECTION
  2
OBJECTS
  0
DICTIONARY
  5
19
100
AcDbDictionary
280
     0
281
     1
  3
ACAD_GROUP
350
1A
  3
ACAD_MLINESTYLE
350
1B
  3
ACAD_LAYOUT
350
1E
  3
ACAD_PLOTSETTINGS
350
22
  3
ACAD_PLOTSTYLENAME
350
1F
  3
ACAD_WIPEOUT_VARS
350
23
  0
DICTIONARY
  5
1A
102
{ACAD_REACTORS
330
19
102
}
100
AcDbDictionary
280
     0
281
     1
  0
DICTIONARY
  5
1B
102
{ACAD_REACTORS
330
19
102
}
100
AcDbDictionary
280
     0
281
     1
  3
Standard
350
1C
  0
MLINESTYLE
  5
1C
102
{ACAD_REACTORS
330
1B
102
}
100
AcDbMlineStyle
  2
Standard
 70
     0
  3

 62
     0
 51
90.0
 52
90.0
 71
     2
 49
0.5
 62
   256
  6
ByLayer
 49
-0.5
 62
   256
  6
ByLayer
  0
ACDBDICTIONARYWDFLT
  5
1F
102
{ACAD_REACTORS
330
19
102
}
100
AcDbDictionary
281
     1
  3
Normal
350
1D
100
AcDbDictionaryWithDefault
340
1D
  0
ACDBPLACEHOLDER
  5
1D
102
{ACAD_REACTORS
330
1F
102
}
  0
LAYOUT
  5
20
102
{ACAD_REACTORS
330
1E
102
}
100
AcDbPlotSettings
  1

  2

  4

  6

 40
0.0
 41
0.0
 42
0.0
 43
0.0
 44
0.0
 45
0.0
 46
0.0
 47
0.0
 48
0.0
 49
0.0
140
0.0
141
0.0
142
1.0
143
1.0
 70
  1024
 72
     0
 73
     0
 74
     0
  7

 75
     0
147
1.0
148
0.0
149
0.0
100
AcDbLayout
  1
Model
 70
     0
 71
     0
 10
0.0
 20
0.0
 11
0.0
 21
0.0
 12
0.0
 22
0.0
 32
0.0
 14
0.0
 24
0.0
 34
0.0
 15
0.0
 25
0.0
 35
0.0
146
0.0
 13
0.0
 23
0.0
 33
0.0
 16
0.0
 26
0.0
 36
0.0
 17
0.0
 27
0.0
 37
0.0
 76
     0
330
A
331
0
345
0
346
0
  0
LAYOUT
  5
21
102
{ACAD_REACTORS
330
1E
102
}
100
AcDbPlotSettings
  1

  2

  4

  6

 40
0.0
 41
0.0
 42
0.0
 43
0.0
 44
0.0
 45
0.0
 46
0.0
 47
0.0
 48
0.0
 49
0.0
140
0.0
141
0.0
142
1.0
143
1.0
 70
     0
 72
     0
 73
     0
 74
     0
  7

 75
     0
147
1.0
148
0.0
149
0.0
100
AcDbLayout
  1
Layout1
 70
     0
 71
     0
 10
0.0
 20
0.0
 11
0.0
 21
0.0
 12
0.0
 22
0.0
 32
0.0
 14
0.0
 24
0.0
 34
0.0
 15
0.0
 25
0.0
 35
0.0
146
0.0
 13
0.0
 23
0.0
 33
0.0
 16
0.0
 26
0.0
 36
0.0
 17
0.0
 27
0.0
 37
0.0
 76
     0
330
B
331
0
345
0
346
0
  0
DICTIONARY
  5
1E
102
{ACAD_REACTORS
330
19
102
}
100
AcDbDictionary
280
     0
281
     1
  3
Layout1
350
21
  3
Model
350
20
  0
DICTIONARY
  5
22
102
{ACAD_REACTORS
330
19
102
}
100
AcDbDictionary
280
     0
281
     1
  0
WIPEOUTVARIABLES
  5
23
100
AcDbWipeoutVariables
 70
     1
  0
ENDSEC
  0
EOF
