  0
SECTION
  2
HEADER
  9
$ACADVER
  1
AC1015
  9
$ACADMAINTVER
 70
     6
  9
$DWGCODEPAGE
  3
ANSI_932
  9
$INSBASE
 10
0.0
 20
0.0
 30
0.0
  9
$EXTMIN
 10
57.205466
 20
51.577214
 30
1.000000E+20
  9
$EXTMAX
 10
149.574677
 20
222.505971
 30
-1.000000E+20
  9
$LIMMIN
 10
57.205466
 20
51.577214
  9
$LIMMAX
 10
149.574677
 20
222.505971
  9
$ORTHOMODE
 70
     0
  9
$REGENMODE
 70
     1
  9
$FILLMODE
 70
     1
  9
$QTEXTMODE
 70
     0
  9
$MIRRTEXT
 70
     1
  9
$LTSCALE
 40
1.0
  9
$ATTMODE
 70
     1
  9
$TEXTSIZE
 40
0.2
  9
$TRACEWID
 40
0.05
  9
$TEXTSTYLE
  7
Standard
  9
$CLAYER
  8
0
  9
$CELTYPE
  6
Continuous
  9
$CECOLOR
 62
   256
  9
$CELTSCALE
 40
1.0
  9
$DISPSILH
 70
     0
  9
$DIMSCALE
 40
1.0
  9
$DIMASZ
 40
0.18
  9
$DIMEXO
 40
0.0625
  9
$DIMDLI
 40
0.38
  9
$DIMRND
 40
0.0
  9
$DIMDLE
 40
0.0
  9
$DIMEXE
 40
0.18
  9
$DIMTP
 40
0.0
  9
$DIMTM
 40
0.0
  9
$DIMTXT
 40
0.18
  9
$DIMCEN
 40
0.09
  9
$DIMTSZ
 40
0.0
  9
$DIMTOL
 70
     0
  9
$DIMLIM
 70
     0
  9
$DIMTIH
 70
     1
  9
$DIMTOH
 70
     1
  9
$DIMSE1
 70
     0
  9
$DIMSE2
 70
     0
  9
$DIMTAD
 70
     0
  9
$DIMZIN
 70
     0
  9
$DIMBLK
  1

  9
$DIMASO
 70
     1
  9
$DIMSHO
 70
     1
  9
$DIMPOST
  1

  9
$DIMAPOST
  1

  9
$DIMALT
 70
     0
  9
$DIMALTD
 70
     2
  9
$DIMALTF
 40
25.4
  9
$DIMLFAC
 40
1.0
  9
$DIMTOFL
 70
     0
  9
$DIMTVP
 40
0.0
  9
$DIMTIX
 70
     0
  9
$DIMSOXD
 70
     0
  9
$DIMSAH
 70
     0
  9
$DIMBLK1
  1

  9
$DIMBLK2
  1

  9
$DIMSTYLE
  2
Standard
  9
$DIMCLRD
 70
     0
  9
$DIMCLRE
 70
     0
  9
$DIMCLRT
 70
     0
  9
$DIMTFAC
 40
1.0
  9
$DIMGAP
 40
0.09
  9
$DIMJUST
 70
     0
  9
$DIMSD1
 70
     0
  9
$DIMSD2
 70
     0
  9
$DIMTOLJ
 70
     1
  9
$DIMTZIN
 70
     0
  9
$DIMALTZ
 70
     0
  9
$DIMALTTZ
 70
     0
  9
$DIMUPT
 70
     0
  9
$DIMDEC
 70
     4
  9
$DIMTDEC
 70
     4
  9
$DIMALTU
 70
     2
  9
$DIMALTTD
 70
     2
  9
$DIMTXSTY
  7
Standard
  9
$DIMAUNIT
 70
     0
  9
$DIMADEC
 70
     0
  9
$DIMALTRND
 40
0.0
  9
$DIMAZIN
 70
     0
  9
$DIMDSEP
 70
     0
  9
$DIMATFIT
 70
     3
  9
$DIMFRAC
 70
     0
  9
$DIMLDRBLK
  1

  9
$DIMLUNIT
 70
     2
  9
$DIMLWD
 70
     0
  9
$DIMLWE
 70
     0
  9
$DIMTMOVE
 70
     0
  9
$LUNITS
 70
     2
  9
$LUPREC
 70
     4
  9
$SKETCHINC
 40
0.1
  9
$FILLETRAD
 40
0.0
  9
$AUNITS
 70
     0
  9
$AUPREC
 70
     0
  9
$MENU
  1
acad
  9
$ELEVATION
 40
0.0
  9
$PELEVATION
 40
0.0
  9
$THICKNESS
 40
0.0
  9
$LIMCHECK
 70
     0
  9
$CHAMFERA
 40
0.0
  9
$CHAMFERB
 40
0.0
  9
$CHAMFERC
 40
0.0
  9
$CHAMFERD
 40
0.0
  9
$SKPOLY
 70
     0
  9
$TDCREATE
 40
0.000000000
  9
$TDUCREATE
 40
0.000000000
  9
$TDUPDATE
 40
0.000000000
  9
$TDUUPDATE
 40
0.000000000
  9
$TDINDWG
 40
0.0000000000
  9
$TDUSRTIMER
 40
0.0000000000
  9
$USRTIMER
 70
     1
  9
$ANGBASE
 50
0.0
  9
$ANGDIR
 70
     0
  9
$PDMODE
 70
     0
  9
$PDSIZE
 40
0.0
  9
$PLINEWID
 40
0.0
  9
$SPLFRAME
 70
     0
  9
$SPLINETYPE
 70
     6
  9
$SPLINESEGS
 70
     8
  9
$HANDSEED
  5
124
  9
$SURFTAB1
 70
     6
  9
$SURFTAB2
 70
     6
  9
$SURFTYPE
 70
     6
  9
$SURFU
 70
     6
  9
$SURFV
 70
     6
  9
$UCSBASE
  2

  9
$UCSNAME
  2

  9
$UCSORG
 10
0.0
 20
0.0
 30
0.0
  9
$UCSXDIR
 10
1.0
 20
0.0
 30
0.0
  9
$UCSYDIR
 10
0.0
 20
1.0
 30
0.0
  9
$UCSORTHOREF
  2

  9
$UCSORTHOVIEW
 70
     0
  9
$UCSORGTOP
 10
0.0
 20
0.0
 30
0.0
  9
$UCSORGBOTTOM
 10
0.0
 20
0.0
 30
0.0
  9
$UCSORGLEFT
 10
0.0
 20
0.0
 30
0.0
  9
$UCSORGRIGHT
 10
0.0
 20
0.0
 30
0.0
  9
$UCSORGFRONT
 10
0.0
 20
0.0
 30
0.0
  9
$UCSORGBACK
 10
0.0
 20
0.0
 30
0.0
  9
$PUCSBASE
  2

  9
$PUCSNAME
  2

  9
$PUCSORG
 10
0.0
 20
0.0
 30
0.0
  9
$PUCSXDIR
 10
1.0
 20
0.0
 30
0.0
  9
$PUCSYDIR
 10
0.0
 20
1.0
 30
0.0
  9
$PUCSORTHOREF
  2

  9
$PUCSORTHOVIEW
 70
     0
  9
$PUCSORGTOP
 10
0.0
 20
0.0
 30
0.0
  9
$PUCSORGBOTTOM
 10
0.0
 20
0.0
 30
0.0
  9
$PUCSORGLEFT
 10
0.0
 20
0.0
 30
0.0
  9
$PUCSORGRIGHT
 10
0.0
 20
0.0
 30
0.0
  9
$PUCSORGFRONT
 10
0.0
 20
0.0
 30
0.0
  9
$PUCSORGBACK
 10
0.0
 20
0.0
 30
0.0
  9
$USERI1
 70
     0
  9
$USERI2
 70
     0
  9
$USERI3
 70
     0
  9
$USERI4
 70
     0
  9
$USERI5
 70
     0
  9
$USERR1
 40
0.0
  9
$USERR2
 40
0.0
  9
$USERR3
 40
0.0
  9
$USERR4
 40
0.0
  9
$USERR5
 40
0.0
  9
$WORLDVIEW
 70
     1
  9
$SHADEDGE
 70
     3
  9
$SHADEDIF
 70
    70
  9
$TILEMODE
 70
     1
  9
$MAXACTVP
 70
    16
  9
$PINSBASE
 10
0.0
 20
0.0
 30
0.0
  9
$PLIMCHECK
 70
     0
  9
$PEXTMIN
 10
1.000000E+20
 20
1.000000E+20
 30
1.000000E+20
  9
$PEXTMAX
 10
-1.000000E+20
 20
-1.000000E+20
 30
-1.000000E+20
  9
$PLIMMIN
 10
0.0
 20
0.0
  9
$PLIMMAX
 10
12.0
 20
9.0
  9
$UNITMODE
 70
     0
  9
$VISRETAIN
 70
     0
  9
$PLINEGEN
 70
     1
  9
$PSLTSCALE
 70
     0
  9
$TREEDEPTH
 70
  3020
  9
$CMLSTYLE
  2
Standard
  9
$CMLJUST
 70
     0
  9
$CMLSCALE
 40
1.0
  9
$PROXYGRAPHICS
 70
     0
  9
$MEASUREMENT
 70
     1
  9
$CELWEIGHT
370
     0
  9
$ENDCAPS
280
     0
  9
$JOINSTYLE
280
     0
  9
$LWDISPLAY
290
     0
  9
$INSUNITS
 70
     0
  9
$HYPERLINKBASE
  1

  9
$STYLESHEET
  1

  9
$XEDIT
290
     1
  9
$CEPSNTYPE
380
     0
  9
$PSTYLEMODE
290
     1
  9
$FINGERPRINTGUID
  2

  9
$VERSIONGUID
  2

  9
$EXTNAMES
290
     1
  9
$PSVPSCALE
 40
0.0
  0
ENDSEC
  0
SECTION
  2
CLASSES
  0
CLASS
  1
LWPOLYLINE
  2
AcDbPolyline
  3
AutoCAD 2000
 90
    32768
280
     0
281
     1
  0
CLASS
  1
IMAGE
  2
AcDbRasterImage
  3
ISM
 90
    32895
280
     0
281
     1
  0
CLASS
  1
OLE2FRAME
  2
AcDbOle2Frame
  3
AutoCAD 2000
 90
    32768
280
     0
281
     1
  0
CLASS
  1
HATCH
  2
AcDbHatch
  3
AutoCAD 2000
 90
    32768
280
     0
281
     1
  0
CLASS
  1
DICTIONARYVAR
  2
AcDbDictionaryVar
  3
AutoCAD 2000
 90
    32768
280
     0
281
     0
  0
CLASS
  1
RASTERVARIABLES
  2
AcDbRasterVariables
  3
ISM
 90
    32768
280
     0
281
     0
  0
CLASS
  1
IMAGEDEF
  2
AcDbRasterImageDef
  3
ISM
 90
    32768
280
     0
281
     0
  0
CLASS
  1
IMAGEDEF_REACTOR
  2
AcDbRasterImageDefReactor
  3
ISM
 90
    32769
280
     0
281
     0
  0
CLASS
  1
IDBUFFER
  2
AcDbIdBuffer
  3
AutoCAD 2000
 90
    32768
280
     0
281
     0
  0
CLASS
  1
SPATIAL_FILTER
  2
AcDbSpatialFilter
  3
AutoCAD 2000
 90
    32768
280
     0
281
     0
  0
CLASS
  1
XRECORD
  2
AcDbXrecord
  3
AutoCAD 2000
 90
    32768
280
     0
281
     0
  0
CLASS
  1
SORTENTSTABLE
  2
AcDbSortentsTable
  3
AutoCAD 2000
 90
    32768
280
     0
281
     0
  0
CLASS
  1
LAYER_INDEX
  2
AcDbLayerIndex
  3
AutoCAD 2000
 90
    32768
280
     0
281
     0
  0
CLASS
  1
SPATIAL_INDEX
  2
AcDbSpatialIndex
  3
AutoCAD 2000
 90
    32768
280
     0
281
     0
  0
CLASS
  1
OBJECT_PTR
  2
CAseDLPNTableRecord
  3
"ASE-LPNTableRecord"
 90
    32769
280
     0
281
     0
  0
CLASS
  1
LAYOUT
  2
AcDbLayout
  3
AutoCAD 2000
 90
        0
280
     0
281
     0
  0
CLASS
  1
PLOTSETTINGS
  2
AcDbPlotSettings
  3
AutoCAD 2000
 90
    32768
280
     0
281
     0
  0
CLASS
  1
ACDBDICTIONARYWDFLT
  2
AcDbDictionaryWithDefault
  3
AutoCAD 2000
 90
        0
280
     0
281
     0
  0
CLASS
  1
ACDBPLACEHOLDER
  2
AcDbPlaceHolder
  3
AutoCAD 2000
 90
        0
280
     0
281
     0
  0
CLASS
  1
VBA_PROJECT
  2
AcDbVbaProject
  3
acadvba
 90
    32768
280
     0
281
     0
  0
CLASS
  1
WIPEOUT
  2
AcDbWipeout
  3
WipeOut|AutoCAD Express Tool|expresstools@autodesk.com
 90
    32895
280
     0
281
     1
  0
CLASS
  1
WIPEOUTVARIABLES
  2
AcDbWipeoutVariables
  3
WipeOut|AutoCAD Express Tool|expresstools@autodesk.com
 90
        0
280
     0
281
     0
  0
CLASS
  1
RTEXT
  2
RText
  3
RText|AutoCAD Express Tool|expresstools@autodesk.com
 90
    32768
280
     0
281
     1
  0
CLASS
  1
ARCALIGNEDTEXT
  2
AcDbArcAlignedText
  3
ATEXT|AutoCAD Express Tool|expresstools@autodesk.com
 90
    32768
280
     0
281
     1
  0
ENDSEC
  0
SECTION
  2
TABLES
  0
TABLE
  2
VPORT
  5
7
100
AcDbSymbolTable
 70
     1
  0
VPORT
  5
15
100
AcDbSymbolTableRecord
100
AcDbViewportTableRecord
  2
*ACTIVE
 70
     0
 10
0.0
 20
0.0
 11
1.0
 21
1.0
 12
6.591288
 22
4.579184
 13
0.0
 23
0.0
 14
1.0
 24
1.0
 15
0.0
 25
0.0
 16
0.0
 26
0.0
 36
1.0
 17
0.0
 27
0.0
 37
0.0
 40
9.158369
 41
0.688564
 42
50.0
 43
0.0
 44
0.0
 50
0.0
 51
0.0
 71
     0
 72
   100
 73
     1
 74
     1
 75
     0
 76
     0
 77
     0
 78
     0
281
     0
 65
     0
110
0.0
120
0.0
130
0.0
111
1.0
121
0.0
131
0.0
112
0.0
122
1.0
132
0.0
345
0
346
0
 79
     0
146
0.0
  0
ENDTAB
  0
TABLE
  2
LTYPE
  5
4
100
AcDbSymbolTable
 70
     3
  0
LTYPE
  5
11
100
AcDbSymbolTableRecord
100
AcDbLinetypeTableRecord
  2
ByBlock
 70
    64
  3

 72
    65
 73
     0
 40
0.0
  0
LTYPE
  5
12
100
AcDbSymbolTableRecord
100
AcDbLinetypeTableRecord
  2
ByLayer
 70
    64
  3

 72
    65
 73
     0
 40
0.0
  0
LTYPE
  5
13
100
AcDbSymbolTableRecord
100
AcDbLinetypeTableRecord
  2
Continuous
 70
    64
  3
Solid line
 72
    65
 73
     0
 40
0.0
  0
ENDTAB
  0
TABLE
  2
LAYER
  5
2
100
AcDbSymbolTable
 70
     2
  0
LAYER
  5
14
100
AcDbSymbolTableRecord
100
AcDbLayerTableRecord
  2
0
 70
     0
 62
     7
  6
Continuous
290
     1
370
    -3
390
1D
  0
LAYER
  5
28
100
AcDbSymbolTableRecord
100
AcDbLayerTableRecord
  2
LIVELLO_1
 70
     0
 62
   160
  6
Continuous
290
     1
370
    -3
390
1D
  0
ENDTAB
  0
TABLE
  2
STYLE
  5
3
100
AcDbSymbolTable
 70
     5
  0
STYLE
  5
17
100
AcDbSymbolTableRecord
100
AcDbTextStyleTableRecord
  2
Standard
 70
     0
 40
0.0
 41
1.0
 50
0.0
 71
     0
 42
0.0
  3
txt
  4

  0
STYLE
  5
24
100
AcDbSymbolTableRecord
100
AcDbTextStyleTableRecord
  2
STD
 70
     0
 40
0.0
 41
1.0
 50
0.0
 71
     0
 42
0.0
  3
txt
  4

  0
STYLE
  5
25
100
AcDbSymbolTableRecord
100
AcDbTextStyleTableRecord
  2
TATESTD
 70
     4
 40
0.0
 41
1.0
 50
0.0
 71
     0
 42
0.0
  3
txt
  4

  0
STYLE
  5
26
100
AcDbSymbolTableRecord
100
AcDbTextStyleTableRecord
  2
KANJISTD
 70
     0
 40
0.0
 41
1.0
 50
0.0
 71
     0
 42
0.0
  3
txt
  4
extfont
  0
STYLE
  5
27
100
AcDbSymbolTableRecord
100
AcDbTextStyleTableRecord
  2
KANJITATE
 70
     4
 40
0.0
 41
1.0
 50
0.0
 71
     0
 42
0.0
  3
txt
  4
extfont
  0
ENDTAB
  0
TABLE
  2
VIEW
  5
5
100
AcDbSymbolTable
 70
     0
  0
ENDTAB
  0
TABLE
  2
UCS
  5
6
100
AcDbSymbolTable
 70
     0
  0
ENDTAB
  0
TABLE
  2
APPID
  5
8
100
AcDbSymbolTable
 70
     1
  0
APPID
  5
16
100
AcDbSymbolTableRecord
100
AcDbRegAppTableRecord
  2
ACAD
 70
     0
  0
ENDTAB
  0
TABLE
  2
DIMSTYLE
  5
9
100
AcDbSymbolTable
 70
     1
100
AcDbDimStyleTable
 71
     0
  0
DIMSTYLE
105
18
100
AcDbSymbolTableRecord
100
AcDbDimStyleTableRecord
  2
Standard
 70
     0
  3

  4

 40
1.0
 41
0.18
 42
0.0625
 43
0.38
 44
0.18
 45
0.0
 46
0.0
 47
0.0
 48
0.0
 71
     0
 72
     0
 73
     1
 74
     1
 75
     0
 76
     0
 77
     0
 78
     0
 79
     0
140
0.18
141
0.09
142
0.0
143
25.4
144
1.0
145
0.0
146
1.0
147
0.09
148
0.0
170
     0
171
     2
172
     0
173
     0
174
     0
175
     0
176
     0
177
     0
178
     0
179
     0
271
     4
272
     4
273
     2
274
     2
275
     0
276
     0
277
     2
278
    46
279
     0
280
     0
281
     0
282
     0
283
     1
284
     0
285
     0
286
     0
288
     0
340
17
341
0
342
0
343
0
344
0
371
    -2
372
    -2
  0
ENDTAB
  0
TABLE
  2
BLOCK_RECORD
  5
1
100
AcDbSymbolTable
 70
     5
  0
BLOCK_RECORD
  5
A
100
AcDbSymbolTableRecord
100
AcDbBlockTableRecord
  2
*MODEL_SPACE
340
20
  0
BLOCK_RECORD
  5
B
100
AcDbSymbolTableRecord
100
AcDbBlockTableRecord
  2
*PAPER_SPACE
340
21
  0
BLOCK_RECORD
  5
29
100
AcDbSymbolTableRecord
100
AcDbBlockTableRecord
  2
AI9-BLK1
340
0
102
{BLKREFS
331
2A
102
}
  0
BLOCK_RECORD
  5
CE
100
AcDbSymbolTableRecord
100
AcDbBlockTableRecord
  2
AI9-BLK2
340
0
102
{BLKREFS
331
CF
102
}
  0
BLOCK_RECORD
  5
FF
100
AcDbSymbolTableRecord
100
AcDbBlockTableRecord
  2
AI9-BLK3
340
0
102
{BLKREFS
331
100
102
}
  0
BLOCK_RECORD
  5
10E
100
AcDbSymbolTableRecord
100
AcDbBlockTableRecord
  2
AI9-BLK4
340
0
102
{BLKREFS
331
10F
102
}
  0
BLOCK_RECORD
  5
111
100
AcDbSymbolTableRecord
100
AcDbBlockTableRecord
  2
AI9-BLK5
340
0
102
{BLKREFS
331
112
102
}
  0
ENDTAB
  0
ENDSEC
  0
SECTION
  2
BLOCKS
  0
BLOCK
  5
D
100
AcDbEntity
  8
0
100
AcDbBlockBegin
  2
*MODEL_SPACE
 70
     0
 10
0.0
 20
0.0
 30
0.0
  3
*MODEL_SPACE
  1

  0
ENDBLK
  5
E
100
AcDbEntity
  8
0
100
AcDbBlockEnd
  0
BLOCK
  5
F
100
AcDbEntity
 67
     1
  8
0
100
AcDbBlockBegin
  2
*PAPER_SPACE
 70
     0
 10
0.0
 20
0.0
 30
0.0
  3
*PAPER_SPACE
  1

  0
ENDBLK
  5
10
100
AcDbEntity
 67
     1
  8
0
100
AcDbBlockEnd
  0
BLOCK
  5
2B
100
AcDbEntity
  8
LIVELLO_1
 62
     7
100
AcDbBlockBegin
  2
AI9-BLK1
 70
     0
 10
0.0
 20
0.0
 30
0.0
  3
AI9-BLK1
  1

  0
LINE
  5
122
100
AcDbEntity
  8
LIVELLO_1
 62
     7
100
AcDbLine
 10
-30.311156
 20
-85.464379
 30
0.0
 11
-30.311156
 21
-75.953159
 31
0.0
  0
LINE
  5
121
100
AcDbEntity
  8
LIVELLO_1
 62
     7
100
AcDbLine
 10
8.818066
 20
-85.461278
 30
0.0
 11
8.818066
 21
-75.949714
 31
0.0
  0
LINE
  5
120
100
AcDbEntity
  8
LIVELLO_1
 62
     7
100
AcDbLine
 10
28.675941
 20
4.40266
 30
0.0
 11
38.187161
 21
4.40266
 31
0.0
  0
LINE
  5
11F
100
AcDbEntity
  8
LIVELLO_1
 62
     7
100
AcDbLine
 10
28.675941
 20
5.454792
 30
0.0
 11
38.187161
 21
5.454792
 31
0.0
  0
CIRCLE
  5
11E
100
AcDbEntity
  8
LIVELLO_1
 62
     7
100
AcDbCircle
 10
-11.838554
 20
59.648211
 30
0.0
 40
25.607222
  0
CIRCLE
  5
11D
100
AcDbEntity
  8
LIVELLO_1
 62
     7
100
AcDbCircle
 10
-11.838209
 20
59.648211
 30
0.0
 40
22.707141
  0
CIRCLE
  5
11C
100
AcDbEntity
  8
LIVELLO_1
 62
     7
100
AcDbCircle
 10
-11.838554
 20
59.648211
 30
0.0
 40
19.623436
  0
CIRCLE
  5
11B
100
AcDbEntity
  8
LIVELLO_1
 62
     7
100
AcDbCircle
 10
-11.838726
 20
59.648211
 30
0.0
 40
18.9904
  0
CIRCLE
  5
11A
100
AcDbEntity
  8
LIVELLO_1
 62
     7
100
AcDbCircle
 10
-11.839501
 20
59.648211
 30
0.0
 40
12.46358
  0
CIRCLE
  5
119
100
AcDbEntity
  8
LIVELLO_1
 62
     7
100
AcDbCircle
 10
-11.838382
 20
59.648211
 30
0.0
 40
11.55709
  0
CIRCLE
  5
118
100
AcDbEntity
  8
LIVELLO_1
 62
     7
100
AcDbCircle
 10
-27.565673
 20
59.648211
 30
0.0
 40
1.541077
  0
CIRCLE
  5
117
100
AcDbEntity
  8
LIVELLO_1
 62
     7
100
AcDbCircle
 10
3.888307
 20
59.648211
 30
0.0
 40
1.54013
  0
INSERT
  5
100
100
AcDbEntity
  8
LIVELLO_1
 62
     7
100
AcDbBlockReference
  2
AI9-BLK3
 10
-10.798652
 20
-32.049896
 30
0.0
  0
INSERT
  5
CF
100
AcDbEntity
  8
LIVELLO_1
 62
     7
100
AcDbBlockReference
  2
AI9-BLK2
 10
-8.273483
 20
-60.826778
 30
0.0
  0
LINE
  5
CD
100
AcDbEntity
  8
LIVELLO_1
 62
     7
100
AcDbLine
 10
9.872266
 20
4.40266
 30
0.0
 11
24.587302
 21
4.40266
 31
0.0
  0
LINE
  5
CC
100
AcDbEntity
  8
LIVELLO_1
 62
     7
100
AcDbLine
 10
-31.362255
 20
4.40266
 30
0.0
 11
-46.076946
 21
4.40266
 31
0.0
  0
LINE
  5
CB
100
AcDbEntity
  8
LIVELLO_1
 62
     7
100
AcDbLine
 10
-30.311156
 20
-53.202093
 30
0.0
 11
8.819789
 21
-53.202093
 31
0.0
  0
POLYLINE
  5
C5
100
AcDbEntity
  8
LIVELLO_1
 62
     7
100
AcDb2dPolyline
 66
     1
 10
0.0
 20
0.0
 30
0.0
 70
     1
  0
VERTEX
  5
C6
100
AcDbEntity
  8
LIVELLO_1
 62
     7
100
AcDbVertex
100
AcDb2dVertex
 10
9.872266
 20
-5.282537
 30
0.0
  0
VERTEX
  5
C7
100
AcDbEntity
  8
LIVELLO_1
 62
     7
100
AcDbVertex
100
AcDb2dVertex
 10
8.819789
 20
-5.282537
 30
0.0
  0
VERTEX
  5
C8
100
AcDbEntity
  8
LIVELLO_1
 62
     7
100
AcDbVertex
100
AcDb2dVertex
 10
8.819789
 20
-53.202093
 30
0.0
  0
VERTEX
  5
C9
100
AcDbEntity
  8
LIVELLO_1
 62
     7
100
AcDbVertex
100
AcDb2dVertex
 10
9.872266
 20
-53.202093
 30
0.0
  0
SEQEND
  5
CA
100
AcDbEntity
  8
LIVELLO_1
 62
     7
  0
POLYLINE
  5
BF
100
AcDbEntity
  8
LIVELLO_1
 62
     7
100
AcDb2dPolyline
 66
     1
 10
0.0
 20
0.0
 30
0.0
 70
     1
  0
VERTEX
  5
C0
100
AcDbEntity
  8
LIVELLO_1
 62
     7
100
AcDbVertex
100
AcDb2dVertex
 10
-31.362255
 20
-5.282537
 30
0.0
  0
VERTEX
  5
C1
100
AcDbEntity
  8
LIVELLO_1
 62
     7
100
AcDbVertex
100
AcDb2dVertex
 10
-30.311156
 20
-5.282537
 30
0.0
  0
VERTEX
  5
C2
100
AcDbEntity
  8
LIVELLO_1
 62
     7
100
AcDbVertex
100
AcDb2dVertex
 10
-30.311156
 20
-53.202093
 30
0.0
  0
VERTEX
  5
C3
100
AcDbEntity
  8
LIVELLO_1
 62
     7
100
AcDbVertex
100
AcDb2dVertex
 10
-31.362255
 20
-53.202093
 30
0.0
  0
SEQEND
  5
C4
100
AcDbEntity
  8
LIVELLO_1
 62
     7
  0
LINE
  5
BE
100
AcDbEntity
  8
LIVELLO_1
 62
     7
100
AcDbLine
 10
-4.027144
 20
-3.505212
 30
0.0
 11
-7.179234
 21
-3.505212
 31
0.0
  0
LINE
  5
BD
100
AcDbEntity
  8
LIVELLO_1
 62
     7
100
AcDbLine
 10
-17.464223
 20
-3.505212
 30
0.0
 11
-14.312305
 21
-3.505212
 31
0.0
  0
SPLINE
  5
BC
100
AcDbEntity
  8
LIVELLO_1
 62
     7
100
AcDbSpline
210
0.0
220
0.0
230
1.0
 70
     8
 71
     3
 72
    20
 73
    16
 74
     0
 42
0.00000001
 43
0.00000001
 40
0.0
 40
0.0
 40
0.0
 40
0.0
 40
1.0
 40
1.0
 40
1.0
 40
2.0
 40
2.0
 40
2.0
 40
3.0
 40
3.0
 40
3.0
 40
4.0
 40
4.0
 40
4.0
 40
5.0
 40
5.0
 40
5.0
 40
5.0
 10
-7.9018432617187493
 20
-28.358475748697913
 30
0.0
 10
-7.9018432617187493
 20
-28.358475748697913
 30
0.0
 10
-7.9076999240451382
 20
-28.567248535156246
 30
0.0
 10
-7.9076999240451382
 20
-28.567248535156246
 30
0.0
 10
-7.9076999240451382
 20
-29.136378309461804
 30
0.0
 10
-8.3426432291666668
 20
-29.596987575954859
 30
0.0
 10
-8.9095336914062493
 20
-29.596987575954859
 30
0.0
 10
-8.9095336914062493
 20
-29.596987575954859
 30
0.0
 10
-12.591479492187499
 20
-29.596987575954859
 30
0.0
 10
-12.591479492187499
 20
-29.596987575954859
 30
0.0
 10
-13.158197699652776
 20
-29.596987575954859
 30
0.0
 10
-13.594174533420137
 20
-29.136378309461804
 30
0.0
 10
-13.594174533420137
 20
-28.567248535156246
 30
0.0
 10
-13.594174533420137
 20
-28.567248535156246
 30
0.0
 10
-13.594174533420137
 20
-28.315756564670135
 30
0.0
 10
-13.594174533420137
 20
-28.315756564670135
 30
0.0
  0
SPLINE
  5
BB
100
AcDbEntity
  8
LIVELLO_1
 62
     7
100
AcDbSpline
210
0.0
220
0.0
230
1.0
 70
     8
 71
     3
 72
    20
 73
    16
 74
     0
 42
0.00000001
 43
0.00000001
 40
0.0
 40
0.0
 40
0.0
 40
0.0
 40
1.0
 40
1.0
 40
1.0
 40
2.0
 40
2.0
 40
2.0
 40
3.0
 40
3.0
 40
3.0
 40
4.0
 40
4.0
 40
4.0
 40
5.0
 40
5.0
 40
5.0
 40
5.0
 10
-7.8765218098958325
 20
-27.57609456380208
 30
0.0
 10
-7.8765218098958325
 20
-27.57609456380208
 30
0.0
 10
-7.881344943576388
 20
-27.785900878906247
 30
0.0
 10
-7.881344943576388
 20
-27.785900878906247
 30
0.0
 10
-7.881344943576388
 20
-28.351930067274303
 30
0.0
 10
-8.3426432291666668
 20
-28.812539333767358
 30
0.0
 10
-8.9095336914062493
 20
-28.812539333767358
 30
0.0
 10
-8.9095336914062493
 20
-28.812539333767358
 30
0.0
 10
-12.591479492187499
 20
-28.812539333767358
 30
0.0
 10
-12.591479492187499
 20
-28.812539333767358
 30
0.0
 10
-13.158197699652776
 20
-28.812539333767358
 30
0.0
 10
-13.620357259114583
 20
-28.351930067274303
 30
0.0
 10
-13.620357259114583
 20
-27.785900878906247
 30
0.0
 10
-13.620357259114583
 20
-27.785900878906247
 30
0.0
 10
-13.620357259114583
 20
-27.533030870225691
 30
0.0
 10
-13.620357259114583
 20
-27.533030870225691
 30
0.0
  0
LINE
  5
BA
100
AcDbEntity
  8
LIVELLO_1
 62
     7
100
AcDbLine
 10
-17.966345
 20
-44.546979
 30
0.0
 11
-14.423065
 21
-46.476922
 31
0.0
  0
LINE
  5
B9
100
AcDbEntity
  8
LIVELLO_1
 62
     7
100
AcDbLine
 10
-14.423065
 20
-44.546979
 30
0.0
 11
-17.966345
 21
-46.476922
 31
0.0
  0
LINE
  5
B8
100
AcDbEntity
  8
LIVELLO_1
 62
     7
100
AcDbLine
 10
-17.966345
 20
-44.546979
 30
0.0
 11
-21.510659
 21
-46.476922
 31
0.0
  0
LINE
  5
B7
100
AcDbEntity
  8
LIVELLO_1
 62
     7
100
AcDbLine
 10
-21.510659
 20
-44.546979
 30
0.0
 11
-17.966345
 21
-46.476922
 31
0.0
  0
POLYLINE
  5
B1
100
AcDbEntity
  8
LIVELLO_1
 62
     7
100
AcDb2dPolyline
 66
     1
 10
0.0
 20
0.0
 30
0.0
 70
     1
  0
VERTEX
  5
B2
100
AcDbEntity
  8
LIVELLO_1
 62
     7
100
AcDbVertex
100
AcDb2dVertex
 10
-21.510659
 20
-44.546979
 30
0.0
  0
VERTEX
  5
B3
100
AcDbEntity
  8
LIVELLO_1
 62
     7
100
AcDbVertex
100
AcDb2dVertex
 10
-17.966345
 20
-44.546979
 30
0.0
  0
VERTEX
  5
B4
100
AcDbEntity
  8
LIVELLO_1
 62
     7
100
AcDbVertex
100
AcDb2dVertex
 10
-17.966345
 20
-46.476922
 30
0.0
  0
VERTEX
  5
B5
100
AcDbEntity
  8
LIVELLO_1
 62
     7
100
AcDbVertex
100
AcDb2dVertex
 10
-21.510659
 20
-46.476922
 30
0.0
  0
SEQEND
  5
B6
100
AcDbEntity
  8
LIVELLO_1
 62
     7
  0
POLYLINE
  5
AB
100
AcDbEntity
  8
LIVELLO_1
 62
     7
100
AcDb2dPolyline
 66
     1
 10
0.0
 20
0.0
 30
0.0
 70
     1
  0
VERTEX
  5
AC
100
AcDbEntity
  8
LIVELLO_1
 62
     7
100
AcDbVertex
100
AcDb2dVertex
 10
-17.966345
 20
-44.546979
 30
0.0
  0
VERTEX
  5
AD
100
AcDbEntity
  8
LIVELLO_1
 62
     7
100
AcDbVertex
100
AcDb2dVertex
 10
-14.423065
 20
-44.546979
 30
0.0
  0
VERTEX
  5
AE
100
AcDbEntity
  8
LIVELLO_1
 62
     7
100
AcDbVertex
100
AcDb2dVertex
 10
-14.423065
 20
-46.476922
 30
0.0
  0
VERTEX
  5
AF
100
AcDbEntity
  8
LIVELLO_1
 62
     7
100
AcDbVertex
100
AcDb2dVertex
 10
-17.966345
 20
-46.476922
 30
0.0
  0
SEQEND
  5
B0
100
AcDbEntity
  8
LIVELLO_1
 62
     7
  0
SPLINE
  5
AA
100
AcDbEntity
  8
LIVELLO_1
 62
     7
100
AcDbSpline
210
0.0
220
0.0
230
1.0
 70
     8
 71
     3
 72
    23
 73
    19
 74
     0
 42
0.00000001
 43
0.00000001
 40
0.0
 40
0.0
 40
0.0
 40
0.0
 40
1.0
 40
1.0
 40
1.0
 40
2.0
 40
2.0
 40
2.0
 40
3.0
 40
3.0
 40
3.0
 40
4.0
 40
4.0
 40
4.0
 40
5.0
 40
5.0
 40
5.0
 40
6.0
 40
6.0
 40
6.0
 40
6.0
 10
-14.423064507378472
 20
-46.476921929253471
 30
0.0
 10
-14.423064507378472
 20
-46.476921929253471
 30
0.0
 10
-14.423064507378472
 20
-46.899635145399301
 30
0.0
 10
-14.423064507378472
 20
-46.899635145399301
 30
0.0
 10
-14.423064507378472
 20
-47.467042371961803
 30
0.0
 10
-14.885224066840276
 20
-47.927651638454854
 30
0.0
 10
-15.451253255208332
 20
-47.927651638454854
 30
0.0
 10
-15.451253255208332
 20
-47.927651638454854
 30
0.0
 10
-20.481781684027776
 20
-47.927651638454854
 30
0.0
 10
-20.481781684027776
 20
-47.927651638454854
 30
0.0
 10
-21.051600477430554
 20
-47.927651638454854
 30
0.0
 10
-21.510659450954858
 20
-47.467042371961803
 30
0.0
 10
-21.510659450954858
 20
-46.899635145399301
 30
0.0
 10
-21.510659450954858
 20
-46.899635145399301
 30
0.0
 10
-21.510659450954858
 20
-46.476921929253471
 30
0.0
 10
-21.510659450954858
 20
-46.476921929253471
 30
0.0
 10
-21.510659450954858
 20
-46.476921929253471
 30
0.0
 10
-14.423064507378472
 20
-46.476921929253471
 30
0.0
 10
-14.423064507378472
 20
-46.476921929253471
 30
0.0
  0
POLYLINE
  5
A4
100
AcDbEntity
  8
LIVELLO_1
 62
     7
100
AcDb2dPolyline
 66
     1
 10
0.0
 20
0.0
 30
0.0
 70
     1
  0
VERTEX
  5
A5
100
AcDbEntity
  8
LIVELLO_1
 62
     7
100
AcDbVertex
100
AcDb2dVertex
 10
-21.510659
 20
-43.576152
 30
0.0
  0
VERTEX
  5
A6
100
AcDbEntity
  8
LIVELLO_1
 62
     7
100
AcDbVertex
100
AcDb2dVertex
 10
-14.423065
 20
-43.576152
 30
0.0
  0
VERTEX
  5
A7
100
AcDbEntity
  8
LIVELLO_1
 62
     7
100
AcDbVertex
100
AcDb2dVertex
 10
-14.423065
 20
-44.546979
 30
0.0
  0
VERTEX
  5
A8
100
AcDbEntity
  8
LIVELLO_1
 62
     7
100
AcDbVertex
100
AcDb2dVertex
 10
-21.510659
 20
-44.546979
 30
0.0
  0
SEQEND
  5
A9
100
AcDbEntity
  8
LIVELLO_1
 62
     7
  0
LINE
  5
A3
100
AcDbEntity
  8
LIVELLO_1
 62
     7
100
AcDbLine
 10
-15.660715
 20
-40.900001
 30
0.0
 11
-15.660715
 21
-42.512995
 31
0.0
  0
LINE
  5
A2
100
AcDbEntity
  8
LIVELLO_1
 62
     7
100
AcDbLine
 10
-16.204351
 20
-40.900001
 30
0.0
 11
-16.204351
 21
-42.512995
 31
0.0
  0
LINE
  5
A1
100
AcDbEntity
  8
LIVELLO_1
 62
     7
100
AcDbLine
 10
-19.729373
 20
-40.900001
 30
0.0
 11
-19.729373
 21
-42.512995
 31
0.0
  0
LINE
  5
A0
100
AcDbEntity
  8
LIVELLO_1
 62
     7
100
AcDbLine
 10
-20.272837
 20
-40.900001
 30
0.0
 11
-20.272837
 21
-42.512995
 31
0.0
  0
POLYLINE
  5
9A
100
AcDbEntity
  8
LIVELLO_1
 62
     7
100
AcDb2dPolyline
 66
     1
 10
0.0
 20
0.0
 30
0.0
 70
     1
  0
VERTEX
  5
9B
100
AcDbEntity
  8
LIVELLO_1
 62
     7
100
AcDbVertex
100
AcDb2dVertex
 10
-21.198189
 20
-42.512995
 30
0.0
  0
VERTEX
  5
9C
100
AcDbEntity
  8
LIVELLO_1
 62
     7
100
AcDbVertex
100
AcDb2dVertex
 10
-14.736396
 20
-42.512995
 30
0.0
  0
VERTEX
  5
9D
100
AcDbEntity
  8
LIVELLO_1
 62
     7
100
AcDbVertex
100
AcDb2dVertex
 10
-14.736396
 20
-43.576152
 30
0.0
  0
VERTEX
  5
9E
100
AcDbEntity
  8
LIVELLO_1
 62
     7
100
AcDbVertex
100
AcDb2dVertex
 10
-21.198189
 20
-43.576152
 30
0.0
  0
SEQEND
  5
9F
100
AcDbEntity
  8
LIVELLO_1
 62
     7
  0
POLYLINE
  5
94
100
AcDbEntity
  8
LIVELLO_1
 62
     7
100
AcDb2dPolyline
 66
     1
 10
0.0
 20
0.0
 30
0.0
 70
     1
  0
VERTEX
  5
95
100
AcDbEntity
  8
LIVELLO_1
 62
     7
100
AcDbVertex
100
AcDb2dVertex
 10
-21.733729
 20
-40.900001
 30
0.0
  0
VERTEX
  5
96
100
AcDbEntity
  8
LIVELLO_1
 62
     7
100
AcDbVertex
100
AcDb2dVertex
 10
-14.199822
 20
-40.900001
 30
0.0
  0
VERTEX
  5
97
100
AcDbEntity
  8
LIVELLO_1
 62
     7
100
AcDbVertex
100
AcDb2dVertex
 10
-14.199822
 20
-42.512995
 30
0.0
  0
VERTEX
  5
98
100
AcDbEntity
  8
LIVELLO_1
 62
     7
100
AcDbVertex
100
AcDb2dVertex
 10
-21.733729
 20
-42.512995
 30
0.0
  0
SEQEND
  5
99
100
AcDbEntity
  8
LIVELLO_1
 62
     7
  0
SPLINE
  5
93
100
AcDbEntity
  8
LIVELLO_1
 62
     7
100
AcDbSpline
210
0.0
220
0.0
230
1.0
 70
     8
 71
     3
 72
    23
 73
    19
 74
     0
 42
0.00000001
 43
0.00000001
 40
0.0
 40
0.0
 40
0.0
 40
0.0
 40
1.0
 40
1.0
 40
1.0
 40
2.0
 40
2.0
 40
2.0
 40
3.0
 40
3.0
 40
3.0
 40
4.0
 40
4.0
 40
4.0
 40
5.0
 40
5.0
 40
5.0
 40
6.0
 40
6.0
 40
6.0
 40
6.0
 10
-0.9554972330729166
 20
-39.698007541232634
 30
0.0
 10
-0.9554972330729166
 20
-39.698007541232634
 30
0.0
 10
-0.9554972330729166
 20
-40.442492675781246
 30
0.0
 10
-0.9554972330729166
 20
-40.442492675781246
 30
0.0
 10
-0.9554972330729166
 20
-41.011277940538193
 30
0.0
 10
-1.416106499565972
 20
-41.472231716579856
 30
0.0
 10
-1.981963433159722
 20
-41.472231716579856
 30
0.0
 10
-1.981963433159722
 20
-41.472231716579856
 30
0.0
 10
-4.081232367621527
 20
-41.472231716579856
 30
0.0
 10
-4.081232367621527
 20
-41.472231716579856
 30
0.0
 10
-4.6510511610243048
 20
-41.472231716579856
 30
0.0
 10
-5.1094211154513882
 20
-41.011277940538193
 30
0.0
 10
-5.1094211154513882
 20
-40.442492675781246
 30
0.0
 10
-5.1094211154513882
 20
-40.442492675781246
 30
0.0
 10
-5.1094211154513882
 20
-39.698007541232634
 30
0.0
 10
-5.1094211154513882
 20
-39.698007541232634
 30
0.0
 10
-5.1094211154513882
 20
-39.698007541232634
 30
0.0
 10
-0.9554972330729166
 20
-39.698007541232634
 30
0.0
 10
-0.9554972330729166
 20
-39.698007541232634
 30
0.0
  0
LINE
  5
92
100
AcDbEntity
  8
LIVELLO_1
 62
     7
100
AcDbLine
 10
-10.190937
 20
-39.698008
 30
0.0
 11
-10.190937
 21
-40.900001
 31
0.0
  0
LINE
  5
91
100
AcDbEntity
  8
LIVELLO_1
 62
     7
100
AcDbLine
 10
-11.269424
 20
-39.698008
 30
0.0
 11
-11.269424
 21
-40.900001
 31
0.0
  0
LINE
  5
90
100
AcDbEntity
  8
LIVELLO_1
 62
     7
100
AcDbLine
 10
-13.959871
 20
-39.698008
 30
0.0
 11
-13.959871
 21
-40.900001
 31
0.0
  0
POLYLINE
  5
8A
100
AcDbEntity
  8
LIVELLO_1
 62
     7
100
AcDb2dPolyline
 66
     1
 10
0.0
 20
0.0
 30
0.0
 70
     1
  0
VERTEX
  5
8B
100
AcDbEntity
  8
LIVELLO_1
 62
     7
100
AcDbVertex
100
AcDb2dVertex
 10
-22.017605
 20
-39.698008
 30
0.0
  0
VERTEX
  5
8C
100
AcDbEntity
  8
LIVELLO_1
 62
     7
100
AcDbVertex
100
AcDb2dVertex
 10
-5.107699
 20
-39.698008
 30
0.0
  0
VERTEX
  5
8D
100
AcDbEntity
  8
LIVELLO_1
 62
     7
100
AcDbVertex
100
AcDb2dVertex
 10
-5.107699
 20
-40.900001
 30
0.0
  0
VERTEX
  5
8E
100
AcDbEntity
  8
LIVELLO_1
 62
     7
100
AcDbVertex
100
AcDb2dVertex
 10
-22.017605
 20
-40.900001
 30
0.0
  0
SEQEND
  5
8F
100
AcDbEntity
  8
LIVELLO_1
 62
     7
  0
SPLINE
  5
89
100
AcDbEntity
  8
LIVELLO_1
 62
     7
100
AcDbSpline
210
0.0
220
0.0
230
1.0
 70
     8
 71
     3
 72
    20
 73
    16
 74
     0
 42
0.00000001
 43
0.00000001
 40
0.0
 40
0.0
 40
0.0
 40
0.0
 40
1.0
 40
1.0
 40
1.0
 40
2.0
 40
2.0
 40
2.0
 40
3.0
 40
3.0
 40
3.0
 40
4.0
 40
4.0
 40
4.0
 40
5.0
 40
5.0
 40
5.0
 40
5.0
 10
2.4384385850694441
 20
0.73018798828125
 30
0.0
 10
2.4384385850694441
 20
0.73018798828125
 30
0.0
 10
-4.0271443684895827
 20
0.73018798828125
 30
0.0
 10
-4.0271443684895827
 20
0.73018798828125
 30
0.0
 10
-4.0271443684895827
 20
0.73018798828125
 30
0.0
 10
-4.0271443684895827
 20
-4.530128309461805
 30
0.0
 10
-4.0271443684895827
 20
-4.530128309461805
 30
0.0
 10
-4.0271443684895827
 20
-3.9609985351562496
 30
0.0
 10
-3.5672241210937496
 20
-3.5017673068576385
 30
0.0
 10
-3.0006781684027777
 20
-3.5017673068576385
 30
0.0
 10
-3.0006781684027777
 20
-3.5017673068576385
 30
0.0
 10
2.3399088541666666
 20
-3.5017673068576385
 30
0.0
 10
2.3399088541666666
 20
-3.5017673068576385
 30
0.0
 10
2.3399088541666666
 20
-3.5017673068576385
 30
0.0
 10
2.4384385850694441
 20
0.73018798828125
 30
0.0
 10
2.4384385850694441
 20
0.73018798828125
 30
0.0
  0
SPLINE
  5
88
100
AcDbEntity
  8
LIVELLO_1
 62
     7
100
AcDbSpline
210
0.0
220
0.0
230
1.0
 70
     8
 71
     3
 72
    20
 73
    16
 74
     0
 42
0.00000001
 43
0.00000001
 40
0.0
 40
0.0
 40
0.0
 40
0.0
 40
1.0
 40
1.0
 40
1.0
 40
2.0
 40
2.0
 40
2.0
 40
3.0
 40
3.0
 40
3.0
 40
4.0
 40
4.0
 40
4.0
 40
5.0
 40
5.0
 40
5.0
 40
5.0
 10
-23.931011284722221
 20
0.73018798828125
 30
0.0
 10
-23.931011284722221
 20
0.73018798828125
 30
0.0
 10
-17.464222547743056
 20
0.73018798828125
 30
0.0
 10
-17.464222547743056
 20
0.73018798828125
 30
0.0
 10
-17.464222547743056
 20
0.73018798828125
 30
0.0
 10
-17.464222547743056
 20
-4.530128309461805
 30
0.0
 10
-17.464222547743056
 20
-4.530128309461805
 30
0.0
 10
-17.464222547743056
 20
-3.9609985351562496
 30
0.0
 10
-17.924142795138888
 20
-3.5017673068576385
 30
0.0
 10
-18.492411295572914
 20
-3.5017673068576385
 30
0.0
 10
-18.492411295572914
 20
-3.5017673068576385
 30
0.0
 10
-23.831620279947913
 20
-3.5017673068576385
 30
0.0
 10
-23.831620279947913
 20
-3.5017673068576385
 30
0.0
 10
-23.831620279947913
 20
-3.5017673068576385
 30
0.0
 10
-23.931011284722221
 20
0.73018798828125
 30
0.0
 10
-23.931011284722221
 20
0.73018798828125
 30
0.0
  0
SPLINE
  5
87
100
AcDbEntity
  8
LIVELLO_1
 62
     7
100
AcDbSpline
210
0.0
220
0.0
230
1.0
 70
     8
 71
     3
 72
    23
 73
    19
 74
     0
 42
0.00000001
 43
0.00000001
 40
0.0
 40
0.0
 40
0.0
 40
0.0
 40
1.0
 40
1.0
 40
1.0
 40
2.0
 40
2.0
 40
2.0
 40
3.0
 40
3.0
 40
3.0
 40
4.0
 40
4.0
 40
4.0
 40
5.0
 40
5.0
 40
5.0
 40
6.0
 40
6.0
 40
6.0
 40
6.0
 10
-8.7644951714409718
 20
0.73018798828125
 30
0.0
 10
-8.7644951714409718
 20
0.73018798828125
 30
0.0
 10
-8.7644951714409718
 20
-2.4754733615451388
 30
0.0
 10
-8.7644951714409718
 20
-2.4754733615451388
 30
0.0
 10
-8.7644951714409718
 20
-3.0428805881076384
 30
0.0
 10
-9.2242431640625
 20
-3.5052124023437496
 30
0.0
 10
-9.7926839192708321
 20
-3.5052124023437496
 30
0.0
 10
-9.7926839192708321
 20
-3.5052124023437496
 30
0.0
 10
-11.703850640190971
 20
-3.5052124023437496
 30
0.0
 10
-11.703850640190971
 20
-3.5052124023437496
 30
0.0
 10
-12.271774631076388
 20
-3.5052124023437496
 30
0.0
 10
-12.730316840277776
 20
-3.0428805881076384
 30
0.0
 10
-12.730316840277776
 20
-2.4754733615451388
 30
0.0
 10
-12.730316840277776
 20
-2.4754733615451388
 30
0.0
 10
-12.730316840277776
 20
0.73018798828125
 30
0.0
 10
-12.730316840277776
 20
0.73018798828125
 30
0.0
 10
-12.730316840277776
 20
0.73018798828125
 30
0.0
 10
-8.7644951714409718
 20
0.73018798828125
 30
0.0
 10
-8.7644951714409718
 20
0.73018798828125
 30
0.0
  0
POLYLINE
  5
81
100
AcDbEntity
  8
LIVELLO_1
 62
     7
100
AcDb2dPolyline
 66
     1
 10
0.0
 20
0.0
 30
0.0
 70
     1
  0
VERTEX
  5
82
100
AcDbEntity
  8
LIVELLO_1
 62
     7
100
AcDbVertex
100
AcDb2dVertex
 10
6.909828
 20
0.730188
 30
0.0
  0
VERTEX
  5
83
100
AcDbEntity
  8
LIVELLO_1
 62
     7
100
AcDbVertex
100
AcDb2dVertex
 10
2.438439
 20
0.730188
 30
0.0
  0
VERTEX
  5
84
100
AcDbEntity
  8
LIVELLO_1
 62
     7
100
AcDbVertex
100
AcDb2dVertex
 10
2.339909
 20
-3.505212
 30
0.0
  0
VERTEX
  5
85
100
AcDbEntity
  8
LIVELLO_1
 62
     7
100
AcDbVertex
100
AcDb2dVertex
 10
6.909828
 20
-3.505212
 30
0.0
  0
SEQEND
  5
86
100
AcDbEntity
  8
LIVELLO_1
 62
     7
  0
POLYLINE
  5
7B
100
AcDbEntity
  8
LIVELLO_1
 62
     7
100
AcDb2dPolyline
 66
     1
 10
0.0
 20
0.0
 30
0.0
 70
     1
  0
VERTEX
  5
7C
100
AcDbEntity
  8
LIVELLO_1
 62
     7
100
AcDbVertex
100
AcDb2dVertex
 10
-28.401367
 20
0.730188
 30
0.0
  0
VERTEX
  5
7D
100
AcDbEntity
  8
LIVELLO_1
 62
     7
100
AcDbVertex
100
AcDb2dVertex
 10
-23.931011
 20
0.730188
 30
0.0
  0
VERTEX
  5
7E
100
AcDbEntity
  8
LIVELLO_1
 62
     7
100
AcDbVertex
100
AcDb2dVertex
 10
-23.83162
 20
-3.505212
 30
0.0
  0
VERTEX
  5
7F
100
AcDbEntity
  8
LIVELLO_1
 62
     7
100
AcDbVertex
100
AcDb2dVertex
 10
-28.401367
 20
-3.505212
 30
0.0
  0
SEQEND
  5
80
100
AcDbEntity
  8
LIVELLO_1
 62
     7
  0
SPLINE
  5
7A
100
AcDbEntity
  8
LIVELLO_1
 62
     7
100
AcDbSpline
210
0.0
220
0.0
230
1.0
 70
     8
 71
     3
 72
    41
 73
    37
 74
     0
 42
0.00000001
 43
0.00000001
 40
0.0
 40
0.0
 40
0.0
 40
0.0
 40
1.0
 40
1.0
 40
1.0
 40
2.0
 40
2.0
 40
2.0
 40
3.0
 40
3.0
 40
3.0
 40
4.0
 40
4.0
 40
4.0
 40
5.0
 40
5.0
 40
5.0
 40
6.0
 40
6.0
 40
6.0
 40
7.0
 40
7.0
 40
7.0
 40
8.0
 40
8.0
 40
8.0
 40
9.0
 40
9.0
 40
9.0
 40
10.0
 40
10.0
 40
10.0
 40
11.0
 40
11.0
 40
11.0
 40
12.0
 40
12.0
 40
12.0
 40
12.0
 10
-7.1632147894965268
 20
-2.2587768554687497
 30
0.0
 10
-7.1632147894965268
 20
-2.2587768554687497
 30
0.0
 10
-8.1896809895833318
 20
-38.66964653862847
 30
0.0
 10
-8.1896809895833318
 20
-38.66964653862847
 30
0.0
 10
-8.1896809895833318
 20
-39.235675726996526
 30
0.0
 10
-8.6496012369791657
 20
-39.698007541232634
 30
0.0
 10
-9.2178697374131939
 20
-39.698007541232634
 30
0.0
 10
-9.2178697374131939
 20
-39.698007541232634
 30
0.0
 10
-12.278148057725693
 20
-39.698007541232634
 30
0.0
 10
-12.278148057725693
 20
-39.698007541232634
 30
0.0
 10
-12.845038519965277
 20
-39.698007541232634
 30
0.0
 10
-13.306336805555555
 20
-39.235675726996526
 30
0.0
 10
-13.306336805555555
 20
-38.66964653862847
 30
0.0
 10
-13.306336805555555
 20
-38.66964653862847
 30
0.0
 10
-14.33280300564236
 20
-2.2587768554687497
 30
0.0
 10
-14.33280300564236
 20
-2.2587768554687497
 30
0.0
 10
-14.33280300564236
 20
-2.2587768554687497
 30
0.0
 10
-12.730316840277776
 20
-2.1437106662326388
 30
0.0
 10
-12.730316840277776
 20
-2.1437106662326388
 30
0.0
 10
-12.730316840277776
 20
-2.1437106662326388
 30
0.0
 10
-12.730316840277776
 20
-2.4754733615451388
 30
0.0
 10
-12.730316840277776
 20
-2.4754733615451388
 30
0.0
 10
-12.730316840277776
 20
-3.0428805881076384
 30
0.0
 10
-12.271774631076388
 20
-3.5052124023437496
 30
0.0
 10
-11.703850640190971
 20
-3.5052124023437496
 30
0.0
 10
-11.703850640190971
 20
-3.5052124023437496
 30
0.0
 10
-9.7926839192708321
 20
-3.5052124023437496
 30
0.0
 10
-9.7926839192708321
 20
-3.5052124023437496
 30
0.0
 10
-9.2242431640625
 20
-3.5052124023437496
 30
0.0
 10
-8.7644951714409718
 20
-3.0428805881076384
 30
0.0
 10
-8.7644951714409718
 20
-2.4754733615451388
 30
0.0
 10
-8.7644951714409718
 20
-2.4754733615451388
 30
0.0
 10
-8.7644951714409718
 20
-2.1437106662326388
 30
0.0
 10
-8.7644951714409718
 20
-2.1437106662326388
 30
0.0
 10
-8.7644951714409718
 20
-2.1437106662326388
 30
0.0
 10
-7.1632147894965268
 20
-2.2587768554687497
 30
0.0
 10
-7.1632147894965268
 20
-2.2587768554687497
 30
0.0
  0
LINE
  5
79
100
AcDbEntity
  8
LIVELLO_1
 62
     7
100
AcDbLine
 10
-1.805919
 20
-36.811018
 30
0.0
 11
-2.419491
 21
-36.811018
 31
0.0
  0
POLYLINE
  5
74
100
AcDbEntity
  8
LIVELLO_1
 62
     7
100
AcDb2dPolyline
 66
     1
 10
0.0
 20
0.0
 30
0.0
  0
VERTEX
  5
75
100
AcDbEntity
  8
LIVELLO_1
 62
     7
100
AcDbVertex
100
AcDb2dVertex
 10
-2.120801
 20
-3.505212
 30
0.0
  0
VERTEX
  5
76
100
AcDbEntity
  8
LIVELLO_1
 62
     7
100
AcDbVertex
100
AcDb2dVertex
 10
-2.419491
 20
-36.811018
 30
0.0
  0
VERTEX
  5
77
100
AcDbEntity
  8
LIVELLO_1
 62
     7
100
AcDbVertex
100
AcDb2dVertex
 10
-3.059762
 20
-37.700541
 30
0.0
  0
SEQEND
  5
78
100
AcDbEntity
  8
LIVELLO_1
 62
     7
  0
POLYLINE
  5
6D
100
AcDbEntity
  8
LIVELLO_1
 62
     7
100
AcDb2dPolyline
 66
     1
 10
0.0
 20
0.0
 30
0.0
  0
VERTEX
  5
6E
100
AcDbEntity
  8
LIVELLO_1
 62
     7
100
AcDbVertex
100
AcDb2dVertex
 10
-0.977029
 20
-3.505212
 30
0.0
  0
VERTEX
  5
6F
100
AcDbEntity
  8
LIVELLO_1
 62
     7
100
AcDbVertex
100
AcDb2dVertex
 10
-1.805919
 20
-36.811018
 30
0.0
  0
VERTEX
  5
70
100
AcDbEntity
  8
LIVELLO_1
 62
     7
100
AcDbVertex
100
AcDb2dVertex
 10
-2.425864
 20
-37.700541
 30
0.0
  0
VERTEX
  5
71
100
AcDbEntity
  8
LIVELLO_1
 62
     7
100
AcDbVertex
100
AcDb2dVertex
 10
-3.059762
 20
-37.700541
 30
0.0
  0
VERTEX
  5
72
100
AcDbEntity
  8
LIVELLO_1
 62
     7
100
AcDbVertex
100
AcDb2dVertex
 10
-2.78846
 20
-3.505212
 30
0.0
  0
SEQEND
  5
73
100
AcDbEntity
  8
LIVELLO_1
 62
     7
  0
LINE
  5
6C
100
AcDbEntity
  8
LIVELLO_1
 62
     7
100
AcDbLine
 10
-19.68562
 20
-36.811018
 30
0.0
 11
-19.071876
 21
-36.811018
 31
0.0
  0
POLYLINE
  5
67
100
AcDbEntity
  8
LIVELLO_1
 62
     7
100
AcDb2dPolyline
 66
     1
 10
0.0
 20
0.0
 30
0.0
  0
VERTEX
  5
68
100
AcDbEntity
  8
LIVELLO_1
 62
     7
100
AcDbVertex
100
AcDb2dVertex
 10
-19.372289
 20
-3.505212
 30
0.0
  0
VERTEX
  5
69
100
AcDbEntity
  8
LIVELLO_1
 62
     7
100
AcDbVertex
100
AcDb2dVertex
 10
-19.071876
 20
-36.811018
 30
0.0
  0
VERTEX
  5
6A
100
AcDbEntity
  8
LIVELLO_1
 62
     7
100
AcDbVertex
100
AcDb2dVertex
 10
-18.430227
 20
-37.700541
 30
0.0
  0
SEQEND
  5
6B
100
AcDbEntity
  8
LIVELLO_1
 62
     7
  0
POLYLINE
  5
60
100
AcDbEntity
  8
LIVELLO_1
 62
     7
100
AcDb2dPolyline
 66
     1
 10
0.0
 20
0.0
 30
0.0
  0
VERTEX
  5
61
100
AcDbEntity
  8
LIVELLO_1
 62
     7
100
AcDbVertex
100
AcDb2dVertex
 10
-20.51451
 20
-3.505212
 30
0.0
  0
VERTEX
  5
62
100
AcDbEntity
  8
LIVELLO_1
 62
     7
100
AcDbVertex
100
AcDb2dVertex
 10
-19.68562
 20
-36.811018
 30
0.0
  0
VERTEX
  5
63
100
AcDbEntity
  8
LIVELLO_1
 62
     7
100
AcDbVertex
100
AcDb2dVertex
 10
-19.065503
 20
-37.700541
 30
0.0
  0
VERTEX
  5
64
100
AcDbEntity
  8
LIVELLO_1
 62
     7
100
AcDbVertex
100
AcDb2dVertex
 10
-18.430227
 20
-37.700541
 30
0.0
  0
VERTEX
  5
65
100
AcDbEntity
  8
LIVELLO_1
 62
     7
100
AcDbVertex
100
AcDb2dVertex
 10
-18.701184
 20
-3.505212
 30
0.0
  0
SEQEND
  5
66
100
AcDbEntity
  8
LIVELLO_1
 62
     7
  0
POLYLINE
  5
5B
100
AcDbEntity
  8
LIVELLO_1
 62
     7
100
AcDb2dPolyline
 66
     1
 10
0.0
 20
0.0
 30
0.0
  0
VERTEX
  5
5C
100
AcDbEntity
  8
LIVELLO_1
 62
     7
100
AcDbVertex
100
AcDb2dVertex
 10
5.459443
 20
0.730188
 30
0.0
  0
VERTEX
  5
5D
100
AcDbEntity
  8
LIVELLO_1
 62
     7
100
AcDbVertex
100
AcDb2dVertex
 10
1.382
 20
-3.505212
 30
0.0
  0
VERTEX
  5
5E
100
AcDbEntity
  8
LIVELLO_1
 62
     7
100
AcDbVertex
100
AcDb2dVertex
 10
0.604959
 20
-38.669647
 30
0.0
  0
SEQEND
  5
5F
100
AcDbEntity
  8
LIVELLO_1
 62
     7
  0
POLYLINE
  5
56
100
AcDbEntity
  8
LIVELLO_1
 62
     7
100
AcDb2dPolyline
 66
     1
 10
0.0
 20
0.0
 30
0.0
  0
VERTEX
  5
57
100
AcDbEntity
  8
LIVELLO_1
 62
     7
100
AcDbVertex
100
AcDb2dVertex
 10
-26.952532
 20
0.730188
 30
0.0
  0
VERTEX
  5
58
100
AcDbEntity
  8
LIVELLO_1
 62
     7
100
AcDbVertex
100
AcDb2dVertex
 10
-22.871989
 20
-3.505212
 30
0.0
  0
VERTEX
  5
59
100
AcDbEntity
  8
LIVELLO_1
 62
     7
100
AcDbVertex
100
AcDb2dVertex
 10
-22.098048
 20
-38.669647
 30
0.0
  0
SEQEND
  5
5A
100
AcDbEntity
  8
LIVELLO_1
 62
     7
  0
POLYLINE
  5
51
100
AcDbEntity
  8
LIVELLO_1
 62
     7
100
AcDb2dPolyline
 66
     1
 10
0.0
 20
0.0
 30
0.0
 70
     1
  0
VERTEX
  5
52
100
AcDbEntity
  8
LIVELLO_1
 62
     7
100
AcDbVertex
100
AcDb2dVertex
 10
2.438439
 20
0.730188
 30
0.0
  0
VERTEX
  5
53
100
AcDbEntity
  8
LIVELLO_1
 62
     7
100
AcDbVertex
100
AcDb2dVertex
 10
1.561662
 20
-36.702842
 30
0.0
  0
VERTEX
  5
54
100
AcDbEntity
  8
LIVELLO_1
 62
     7
100
AcDbVertex
100
AcDb2dVertex
 10
0.655257
 20
-37.565149
 30
0.0
  0
SEQEND
  5
55
100
AcDbEntity
  8
LIVELLO_1
 62
     7
  0
POLYLINE
  5
4C
100
AcDbEntity
  8
LIVELLO_1
 62
     7
100
AcDb2dPolyline
 66
     1
 10
0.0
 20
0.0
 30
0.0
 70
     1
  0
VERTEX
  5
4D
100
AcDbEntity
  8
LIVELLO_1
 62
     7
100
AcDbVertex
100
AcDb2dVertex
 10
-23.931011
 20
0.730188
 30
0.0
  0
VERTEX
  5
4E
100
AcDbEntity
  8
LIVELLO_1
 62
     7
100
AcDbVertex
100
AcDb2dVertex
 10
-22.148174
 20
-37.565149
 30
0.0
  0
VERTEX
  5
4F
100
AcDbEntity
  8
LIVELLO_1
 62
     7
100
AcDbVertex
100
AcDb2dVertex
 10
-23.052684
 20
-36.702842
 30
0.0
  0
SEQEND
  5
50
100
AcDbEntity
  8
LIVELLO_1
 62
     7
  0
SPLINE
  5
4B
100
AcDbEntity
  8
LIVELLO_1
 62
     7
100
AcDbSpline
210
0.0
220
0.0
230
1.0
 70
     8
 71
     3
 72
    23
 73
    19
 74
     0
 42
0.00000001
 43
0.00000001
 40
0.0
 40
0.0
 40
0.0
 40
0.0
 40
1.0
 40
1.0
 40
1.0
 40
2.0
 40
2.0
 40
2.0
 40
3.0
 40
3.0
 40
3.0
 40
4.0
 40
4.0
 40
4.0
 40
5.0
 40
5.0
 40
5.0
 40
6.0
 40
6.0
 40
6.0
 40
6.0
 10
-21.068481445312496
 20
-39.698007541232634
 30
0.0
 10
-21.637266710069444
 20
-39.698007541232634
 30
0.0
 10
-22.098048231336804
 20
-39.235675726996526
 30
0.0
 10
-22.098048231336804
 20
-38.66964653862847
 30
0.0
 10
-22.098048231336804
 20
-38.66964653862847
 30
0.0
 10
-23.931011284722221
 20
0.73018798828125
 30
0.0
 10
-23.931011284722221
 20
0.73018798828125
 30
0.0
 10
-23.931011284722221
 20
0.73018798828125
 30
0.0
 10
2.4384385850694441
 20
0.73018798828125
 30
0.0
 10
2.4384385850694441
 20
0.73018798828125
 30
0.0
 10
2.4384385850694441
 20
0.73018798828125
 30
0.0
 10
0.6049587673611111
 20
-38.66964653862847
 30
0.0
 10
0.6049587673611111
 20
-38.66964653862847
 30
0.0
 10
0.6049587673611111
 20
-39.235675726996526
 30
0.0
 10
0.1443495008680555
 20
-39.698007541232634
 30
0.0
 10
-0.4230577256944444
 20
-39.698007541232634
 30
0.0
 10
-0.4230577256944444
 20
-39.698007541232634
 30
0.0
 10
-21.068481445312496
 20
-39.698007541232634
 30
0.0
 10
-21.068481445312496
 20
-39.698007541232634
 30
0.0
  0
SPLINE
  5
4A
100
AcDbEntity
  8
LIVELLO_1
 62
     7
100
AcDbSpline
210
0.0
220
0.0
230
1.0
 70
     8
 71
     3
 72
    47
 73
    43
 74
     0
 42
0.00000001
 43
0.00000001
 40
0.0
 40
0.0
 40
0.0
 40
0.0
 40
1.0
 40
1.0
 40
1.0
 40
2.0
 40
2.0
 40
2.0
 40
3.0
 40
3.0
 40
3.0
 40
4.0
 40
4.0
 40
4.0
 40
5.0
 40
5.0
 40
5.0
 40
6.0
 40
6.0
 40
6.0
 40
7.0
 40
7.0
 40
7.0
 40
8.0
 40
8.0
 40
8.0
 40
9.0
 40
9.0
 40
9.0
 40
10.0
 40
10.0
 40
10.0
 40
11.0
 40
11.0
 40
11.0
 40
12.0
 40
12.0
 40
12.0
 40
13.0
 40
13.0
 40
13.0
 40
14.0
 40
14.0
 40
14.0
 40
14.0
 10
6.2852322048611109
 20
-5.2825371636284721
 30
0.0
 10
6.2852322048611109
 20
-5.2825371636284721
 30
0.0
 10
3.0895616319444441
 20
-5.2825371636284721
 30
0.0
 10
3.0895616319444441
 20
-5.2825371636284721
 30
0.0
 10
3.0895616319444441
 20
-5.2825371636284721
 30
0.0
 10
3.0895616319444441
 20
-3.5052124023437496
 30
0.0
 10
3.0895616319444441
 20
-3.5052124023437496
 30
0.0
 10
3.0895616319444441
 20
-3.5052124023437496
 30
0.0
 10
8.8197889539930543
 20
-3.5052124023437496
 30
0.0
 10
8.8197889539930543
 20
-3.5052124023437496
 30
0.0
 10
8.8197889539930543
 20
-3.5052124023437496
 30
0.0
 10
8.8197889539930543
 20
6.0139309353298609
 30
0.0
 10
8.8197889539930543
 20
6.0139309353298609
 30
0.0
 10
8.8197889539930543
 20
6.0139309353298609
 30
0.0
 10
11.275108506944443
 20
6.0139309353298609
 30
0.0
 10
11.275108506944443
 20
6.0139309353298609
 30
0.0
 10
11.275108506944443
 20
6.0139309353298609
 30
0.0
 10
14.901416015624999
 20
5.1278523763020827
 30
0.0
 10
14.901416015624999
 20
5.1278523763020827
 30
0.0
 10
14.901416015624999
 20
5.1278523763020827
 30
0.0
 10
14.901416015624999
 20
4.4026597764756943
 30
0.0
 10
14.901416015624999
 20
4.4026597764756943
 30
0.0
 10
14.901416015624999
 20
4.4026597764756943
 30
0.0
 10
9.8722656249999989
 20
4.4026597764756943
 30
0.0
 10
9.8722656249999989
 20
4.4026597764756943
 30
0.0
 10
9.8722656249999989
 20
4.4026597764756943
 30
0.0
 10
9.8722656249999989
 20
-5.2825371636284721
 30
0.0
 10
9.8722656249999989
 20
-5.2825371636284721
 30
0.0
 10
9.8722656249999989
 20
-5.2825371636284721
 30
0.0
 10
8.8197889539930543
 20
-5.2825371636284721
 30
0.0
 10
8.8197889539930543
 20
-5.2825371636284721
 30
0.0
 10
8.8197889539930543
 20
-5.2825371636284721
 30
0.0
 10
8.8197889539930543
 20
-11.867148166232639
 30
0.0
 10
8.8197889539930543
 20
-11.867148166232639
 30
0.0
 10
8.8197889539930543
 20
-11.867148166232639
 30
0.0
 10
7.313593207465277
 20
-11.867148166232639
 30
0.0
 10
7.313593207465277
 20
-11.867148166232639
 30
0.0
 10
7.313593207465277
 20
-11.867148166232639
 30
0.0
 10
7.313593207465277
 20
-6.3091756184895829
 30
0.0
 10
7.313593207465277
 20
-6.3091756184895829
 30
0.0
 10
7.313593207465277
 20
-5.7428019205729157
 30
0.0
 10
6.8533284505208325
 20
-5.2825371636284721
 30
0.0
 10
6.2852322048611109
 20
-5.2825371636284721
 30
0.0
  0
POLYLINE
  5
3B
100
AcDbEntity
  8
LIVELLO_1
 62
     7
100
AcDb2dPolyline
 66
     1
 10
0.0
 20
0.0
 30
0.0
 70
     1
  0
VERTEX
  5
3C
100
AcDbEntity
  8
LIVELLO_1
 62
     7
100
AcDbVertex
100
AcDb2dVertex
 10
-31.362255
 20
4.40266
 30
0.0
  0
VERTEX
  5
3D
100
AcDbEntity
  8
LIVELLO_1
 62
     7
100
AcDbVertex
100
AcDb2dVertex
 10
-36.391233
 20
4.40266
 30
0.0
  0
VERTEX
  5
3E
100
AcDbEntity
  8
LIVELLO_1
 62
     7
100
AcDbVertex
100
AcDb2dVertex
 10
-36.391233
 20
5.127852
 30
0.0
  0
VERTEX
  5
3F
100
AcDbEntity
  8
LIVELLO_1
 62
     7
100
AcDbVertex
100
AcDb2dVertex
 10
-32.766648
 20
6.013931
 30
0.0
  0
VERTEX
  5
40
100
AcDbEntity
  8
LIVELLO_1
 62
     7
100
AcDbVertex
100
AcDb2dVertex
 10
-30.311156
 20
6.013931
 30
0.0
  0
VERTEX
  5
41
100
AcDbEntity
  8
LIVELLO_1
 62
     7
100
AcDbVertex
100
AcDb2dVertex
 10
-30.311156
 20
-3.505212
 30
0.0
  0
VERTEX
  5
42
100
AcDbEntity
  8
LIVELLO_1
 62
     7
100
AcDbVertex
100
AcDb2dVertex
 10
-24.580584
 20
-3.505212
 30
0.0
  0
VERTEX
  5
43
100
AcDbEntity
  8
LIVELLO_1
 62
     7
100
AcDbVertex
100
AcDb2dVertex
 10
-24.580584
 20
-9.025289
 30
0.0
  0
VERTEX
  5
44
100
AcDbEntity
  8
LIVELLO_1
 62
     7
100
AcDbVertex
100
AcDb2dVertex
 10
-25.350563
 20
-9.796646
 30
0.0
  0
VERTEX
  5
45
100
AcDbEntity
  8
LIVELLO_1
 62
     7
100
AcDbVertex
100
AcDb2dVertex
 10
-27.480838
 20
-9.796646
 30
0.0
  0
VERTEX
  5
46
100
AcDbEntity
  8
LIVELLO_1
 62
     7
100
AcDbVertex
100
AcDb2dVertex
 10
-28.253228
 20
-9.025289
 30
0.0
  0
VERTEX
  5
47
100
AcDbEntity
  8
LIVELLO_1
 62
     7
100
AcDbVertex
100
AcDb2dVertex
 10
-28.253228
 20
-5.282537
 30
0.0
  0
VERTEX
  5
48
100
AcDbEntity
  8
LIVELLO_1
 62
     7
100
AcDbVertex
100
AcDb2dVertex
 10
-31.362255
 20
-5.282537
 30
0.0
  0
SEQEND
  5
49
100
AcDbEntity
  8
LIVELLO_1
 62
     7
  0
SPLINE
  5
3A
100
AcDbEntity
  8
LIVELLO_1
 62
     7
100
AcDbSpline
210
0.0
220
0.0
230
1.0
 70
     8
 71
     3
 72
    29
 73
    25
 74
     0
 42
0.00000001
 43
0.00000001
 40
0.0
 40
0.0
 40
0.0
 40
0.0
 40
1.0
 40
1.0
 40
1.0
 40
2.0
 40
2.0
 40
2.0
 40
3.0
 40
3.0
 40
3.0
 40
4.0
 40
4.0
 40
4.0
 40
5.0
 40
5.0
 40
5.0
 40
6.0
 40
6.0
 40
6.0
 40
7.0
 40
7.0
 40
7.0
 40
8.0
 40
8.0
 40
8.0
 40
8.0
 10
-29.380807834201388
 20
6.0139309353298609
 30
0.0
 10
-29.380807834201388
 20
6.0139309353298609
 30
0.0
 10
7.8892686631944438
 20
6.0139309353298609
 30
0.0
 10
7.8892686631944438
 20
6.0139309353298609
 30
0.0
 10
8.1734890407986107
 20
6.0139309353298609
 30
0.0
 10
8.4036214192708325
 20
5.785865614149305
 30
0.0
 10
8.4036214192708325
 20
5.5009562174479161
 30
0.0
 10
8.4036214192708325
 20
5.5009562174479161
 30
0.0
 10
8.4036214192708325
 20
1.2448852539062498
 30
0.0
 10
8.4036214192708325
 20
1.2448852539062498
 30
0.0
 10
8.4036214192708325
 20
0.9613538953993055
 30
0.0
 10
8.1734890407986107
 20
0.73018798828125
 30
0.0
 10
7.8892686631944438
 20
0.73018798828125
 30
0.0
 10
7.8892686631944438
 20
0.73018798828125
 30
0.0
 10
-29.380807834201388
 20
0.73018798828125
 30
0.0
 10
-29.380807834201388
 20
0.73018798828125
 30
0.0
 10
-29.666233995225692
 20
0.73018798828125
 30
0.0
 10
-29.89498833550347
 20
0.9613538953993055
 30
0.0
 10
-29.89498833550347
 20
1.2448852539062498
 30
0.0
 10
-29.89498833550347
 20
1.2448852539062498
 30
0.0
 10
-29.89498833550347
 20
5.5009562174479161
 30
0.0
 10
-29.89498833550347
 20
5.5009562174479161
 30
0.0
 10
-29.89498833550347
 20
5.785865614149305
 30
0.0
 10
-29.666233995225692
 20
6.0139309353298609
 30
0.0
 10
-29.380807834201388
 20
6.0139309353298609
 30
0.0
  0
MTEXT
  5
39
100
AcDbEntity
  8
LIVELLO_1
 62
     7
100
AcDbMText
 10
40.145009
 20
10.455629
 30
0.0
 40
7.489574
 41
0.0
 71
     1
 72
     2
  1
\fCourier|b0|i0;\H7.4896;\C7;\U+0033
  7
STD
210
0.0
220
0.0
230
1.0
 73
     1
 44
1.0
  0
MTEXT
  5
38
100
AcDbEntity
  8
LIVELLO_1
 62
     7
100
AcDbMText
 10
-21.362176
 20
-75.15052
 30
0.0
 40
7.48957
 41
0.0
 71
     1
 72
     2
  1
\fCourier|b0|i0;\H7.4896;\W0.92;\C7;\U+00F8\U+0020\U+0038\U+0030
  7
STD
210
0.0
220
0.0
230
1.0
 73
     1
 44
1.0
  0
LINE
  5
37
100
AcDbEntity
  8
LIVELLO_1
 62
     7
100
AcDbLine
 10
8.481481
 20
-80.575788
 30
0.0
 11
1.393369
 21
-80.575788
 31
0.0
  0
LINE
  5
36
100
AcDbEntity
  8
LIVELLO_1
 62
     7
100
AcDbLine
 10
-22.290112
 20
-80.575788
 30
0.0
 11
-30.129944
 21
-80.575788
 31
0.0
  0
LINE
  5
35
100
AcDbEntity
  8
LIVELLO_1
 62
     7
100
AcDbLine
 10
28.726929
 20
4.321011
 30
0.0
 11
38.237115
 21
4.321011
 31
0.0
  0
LINE
  5
34
100
AcDbEntity
  8
LIVELLO_1
 62
     7
100
AcDbLine
 10
33.483228
 20
4.321011
 30
0.0
 11
33.483228
 21
-13.405383
 31
0.0
  0
LINE
  5
33
100
AcDbEntity
  8
LIVELLO_1
 62
     7
100
AcDbLine
 10
33.483228
 20
-28.862149
 30
0.0
 11
33.483228
 21
-53.281675
 31
0.0
  0
LINE
  5
32
100
AcDbEntity
  8
LIVELLO_1
 62
     7
100
AcDbLine
 10
28.726929
 20
-53.281675
 30
0.0
 11
38.237115
 21
-53.281675
 31
0.0
  0
MTEXT
  5
31
100
AcDbEntity
  8
LIVELLO_1
 62
     7
100
AcDbMText
 10
25.82857
 20
-16.122593
 30
0.0
 40
7.489574
 41
0.0
 71
     1
 72
     2
  1
\fCourier|b0|i0;\H7.4896;\C7;\U+0031\U+0031\U+0035
  7
STD
210
0.0
220
0.0
230
1.0
 73
     1
 44
1.0
  0
LINE
  5
30
100
AcDbEntity
  8
LIVELLO_1
 62
     7
100
AcDbLine
 10
-36.671663
 20
19.811711
 30
0.0
 11
-36.671663
 21
29.32293
 31
0.0
  0
LINE
  5
2F
100
AcDbEntity
  8
LIVELLO_1
 62
     7
100
AcDbLine
 10
14.622363
 20
19.814983
 30
0.0
 11
14.622363
 21
29.327581
 31
0.0
  0
LINE
  5
2E
100
AcDbEntity
  8
LIVELLO_1
 62
     7
100
AcDbLine
 10
-27.57575
 20
24.700473
 30
0.0
 11
-36.490796
 21
24.700473
 31
0.0
  0
LINE
  5
2D
100
AcDbEntity
  8
LIVELLO_1
 62
     7
100
AcDbLine
 10
14.284744
 20
24.700473
 30
0.0
 11
4.530301
 21
24.700473
 31
0.0
  0
MTEXT
  5
2C
100
AcDbEntity
  8
LIVELLO_1
 62
     7
100
AcDbMText
 10
-26.000652
 20
30.241674
 30
0.0
 40
7.489574
 41
0.0
 71
     1
 72
     2
  1
\fCourier|b0|i0;\H7.4896;\C7;\U+00F8\U+0020\U+0031\U+0030\U+0030
  7
STD
210
0.0
220
0.0
230
1.0
 73
     1
 44
1.0
  0
ENDBLK
  5
123
100
AcDbEntity
  8
LIVELLO_1
100
AcDbBlockEnd
  0
BLOCK
  5
D0
100
AcDbEntity
  8
LIVELLO_1
 62
     7
100
AcDbBlockBegin
  2
AI9-BLK2
 70
     0
 10
0.0
 20
0.0
 30
0.0
  3
AI9-BLK2
  1

  0
SPLINE
  5
FD
100
AcDbEntity
  8
LIVELLO_1
 62
     7
100
AcDbSpline
210
0.0
220
0.0
230
1.0
 70
     8
 71
     3
 72
    17
 73
    13
 74
     0
 42
0.00000001
 43
0.00000001
 40
0.0
 40
0.0
 40
0.0
 40
0.0
 40
1.0
 40
1.0
 40
1.0
 40
2.0
 40
2.0
 40
2.0
 40
3.0
 40
3.0
 40
3.0
 40
4.0
 40
4.0
 40
4.0
 40
4.0
 10
15.777934434678818
 20
-7.8499945746527775
 30
0.0
 10
16.654022216796875
 20
-8.1111328124999993
 30
0.0
 10
17.225563557942706
 20
-8.3757161458333318
 30
0.0
 10
18.145748562282986
 20
-8.3757161458333318
 30
0.0
 10
19.373236083984374
 20
-8.3757161458333318
 30
0.0
 10
20.426057264539928
 20
-7.4544976128472218
 30
0.0
 10
20.426057264539928
 20
-6.2256320529513882
 30
0.0
 10
20.426057264539928
 20
-5.8301350911458325
 30
0.0
 10
20.380582004123262
 20
-5.6117160373263886
 30
0.0
 10
20.426057264539928
 20
-5.2162190755208329
 30
0.0
 10
18.363823106553816
 20
-5.2162190755208329
 30
0.0
 10
15.952600775824651
 20
-5.7887939453124995
 30
0.0
 10
15.777934434678818
 20
-7.8499945746527775
 30
0.0
  0
SPLINE
  5
FC
100
AcDbEntity
  8
LIVELLO_1
 62
     7
100
AcDbSpline
210
0.0
220
0.0
230
1.0
 70
     8
 71
     3
 72
    20
 73
    16
 74
     0
 42
0.00000001
 43
0.00000001
 40
0.0
 40
0.0
 40
0.0
 40
0.0
 40
1.0
 40
1.0
 40
1.0
 40
2.0
 40
2.0
 40
2.0
 40
3.0
 40
3.0
 40
3.0
 40
4.0
 40
4.0
 40
4.0
 40
5.0
 40
5.0
 40
5.0
 40
5.0
 10
21.087515597873264
 20
6.0909288194444438
 30
0.0
 10
21.087515597873264
 20
6.0909288194444438
 30
0.0
 10
17.17664320203993
 20
5.8263454861111104
 30
0.0
 10
17.17664320203993
 20
5.8263454861111104
 30
0.0
 10
17.254846869574653
 20
4.9257975260416664
 30
0.0
 10
17.295498996310762
 20
4.475179036458333
 30
0.0
 10
17.373013644748262
 20
3.5739420572916663
 30
0.0
 10
17.695474582248263
 20
-0.1043863932291667
 30
0.0
 10
22.445916748046873
 20
0.0847493489583333
 30
0.0
 10
26.15042792426215
 20
0.1057644314236111
 30
0.0
 10
25.926496717664929
 20
2.6578911675347219
 30
0.0
 10
24.534678141276039
 20
4.7297715928819439
 30
0.0
 10
22.067300754123263
 20
5.271685112847222
 30
0.0
 10
22.067300754123263
 20
5.271685112847222
 30
0.0
 10
21.087515597873264
 20
6.0909288194444438
 30
0.0
 10
21.087515597873264
 20
6.0909288194444438
 30
0.0
  0
SPLINE
  5
FB
100
AcDbEntity
  8
LIVELLO_1
 62
     7
100
AcDbSpline
210
0.0
220
0.0
230
1.0
 70
     8
 71
     3
 72
    17
 73
    13
 74
     0
 42
0.00000001
 43
0.00000001
 40
0.0
 40
0.0
 40
0.0
 40
0.0
 40
1.0
 40
1.0
 40
1.0
 40
2.0
 40
2.0
 40
2.0
 40
3.0
 40
3.0
 40
3.0
 40
4.0
 40
4.0
 40
4.0
 40
4.0
 10
19.724635823567706
 20
11.403955078125
 30
0.0
 10
18.234287516276041
 20
11.403955078125
 30
0.0
 10
16.786313883463539
 20
10.395231119791665
 30
0.0
 10
16.786313883463539
 20
8.9045383029513889
 30
0.0
 10
16.786313883463539
 20
7.4572536892361105
 30
0.0
 10
18.628061930338539
 20
7.0617567274305548
 30
0.0
 10
20.07569105360243
 20
7.0617567274305548
 30
0.0
 10
22.092794460720484
 20
7.0617567274305548
 30
0.0
 10
24.72415839301215
 20
7.5003173828124989
 30
0.0
 10
24.72415839301215
 20
9.5181098090277771
 30
0.0
 10
24.72415839301215
 20
11.446674262152778
 30
0.0
 10
21.653544786241316
 20
11.271663411458333
 30
0.0
 10
19.724635823567706
 20
11.403955078125
 30
0.0
  0
POLYLINE
  5
F4
100
AcDbEntity
  8
LIVELLO_1
 62
     7
100
AcDb2dPolyline
 66
     1
 10
0.0
 20
0.0
 30
0.0
 70
     1
  0
VERTEX
  5
F5
100
AcDbEntity
  8
LIVELLO_1
 62
     7
100
AcDbVertex
100
AcDb2dVertex
 10
-7.52917
 20
-7.801763
 30
0.0
  0
VERTEX
  5
F6
100
AcDbEntity
  8
LIVELLO_1
 62
     7
100
AcDbVertex
100
AcDb2dVertex
 10
-8.736504
 20
-8.406033
 30
0.0
  0
VERTEX
  5
F7
100
AcDbEntity
  8
LIVELLO_1
 62
     7
100
AcDbVertex
100
AcDb2dVertex
 10
-9.038639
 20
-9.611127
 30
0.0
  0
VERTEX
  5
F8
100
AcDbEntity
  8
LIVELLO_1
 62
     7
100
AcDbVertex
100
AcDb2dVertex
 10
-7.52917
 20
-10.215053
 30
0.0
  0
VERTEX
  5
F9
100
AcDbEntity
  8
LIVELLO_1
 62
     7
100
AcDbVertex
100
AcDb2dVertex
 10
-6.928001
 20
-8.707479
 30
0.0
  0
SEQEND
  5
FA
100
AcDbEntity
  8
LIVELLO_1
 62
     7
  0
SPLINE
  5
F3
100
AcDbEntity
  8
LIVELLO_1
 62
     7
100
AcDbSpline
210
0.0
220
0.0
230
1.0
 70
     8
 71
     3
 72
    17
 73
    13
 74
     0
 42
0.00000001
 43
0.00000001
 40
0.0
 40
0.0
 40
0.0
 40
0.0
 40
1.0
 40
1.0
 40
1.0
 40
2.0
 40
2.0
 40
2.0
 40
3.0
 40
3.0
 40
3.0
 40
4.0
 40
4.0
 40
4.0
 40
4.0
 10
-13.114531114366319
 20
2.4153564453124998
 30
0.0
 10
-13.114531114366319
 20
2.4153564453124998
 30
0.0
 10
-12.138018798828124
 20
2.3292290581597221
 30
0.0
 10
-12.138018798828124
 20
2.3292290581597221
 30
0.0
 10
-12.138018798828124
 20
2.3292290581597221
 30
0.0
 10
-12.648926459418401
 20
-0.0458197699652778
 30
0.0
 10
-12.648926459418401
 20
-0.0458197699652778
 30
0.0
 10
-13.28420206705729
 20
0.4612982855902778
 30
0.0
 10
-14.165629747178818
 20
0.7675672743055555
 30
0.0
 10
-14.093799506293401
 20
1.5930121527777776
 30
0.0
 10
-14.054869927300347
 20
2.0408745659722221
 30
0.0
 10
-13.296948920355902
 20
2.0518988715277775
 30
0.0
 10
-13.114531114366319
 20
2.4153564453124998
 30
0.0
  0
SPLINE
  5
F2
100
AcDbEntity
  8
LIVELLO_1
 62
     7
100
AcDbSpline
210
0.0
220
0.0
230
1.0
 70
     8
 71
     3
 72
    23
 73
    19
 74
     0
 42
0.00000001
 43
0.00000001
 40
0.0
 40
0.0
 40
0.0
 40
0.0
 40
1.0
 40
1.0
 40
1.0
 40
2.0
 40
2.0
 40
2.0
 40
3.0
 40
3.0
 40
3.0
 40
4.0
 40
4.0
 40
4.0
 40
5.0
 40
5.0
 40
5.0
 40
6.0
 40
6.0
 40
6.0
 40
6.0
 10
13.995442030164929
 20
-1.9027262369791664
 30
0.0
 10
13.995442030164929
 20
-1.9027262369791664
 30
0.0
 10
14.164940728081596
 20
-3.4285590277777773
 30
0.0
 10
14.164940728081596
 20
-3.4285590277777773
 30
0.0
 10
13.231319851345486
 20
-3.7262152777777775
 30
0.0
 10
12.613269721137153
 20
-3.8981255425347219
 30
0.0
 10
11.685505506727429
 20
-4.1196451822916664
 30
0.0
 10
11.685505506727429
 20
-4.1196451822916664
 30
0.0
 10
10.509005398220484
 20
-3.7131239149305553
 30
0.0
 10
10.509005398220484
 20
-3.7131239149305553
 30
0.0
 10
10.509005398220484
 20
-3.7131239149305553
 30
0.0
 10
10.014117431640624
 20
-2.4604871961805554
 30
0.0
 10
10.014117431640624
 20
-2.4604871961805554
 30
0.0
 10
10.014117431640624
 20
-2.4604871961805554
 30
0.0
 10
11.594554985894096
 20
-1.690508355034722
 30
0.0
 10
11.594554985894096
 20
-1.690508355034722
 30
0.0
 10
11.594554985894096
 20
-1.690508355034722
 30
0.0
 10
12.588465033637151
 20
-1.5537380642361109
 30
0.0
 10
13.995442030164929
 20
-1.9027262369791664
 30
0.0
  0
SPLINE
  5
F1
100
AcDbEntity
  8
LIVELLO_1
 62
     7
100
AcDbSpline
210
0.0
220
0.0
230
1.0
 70
     8
 71
     3
 72
    17
 73
    13
 74
     0
 42
0.00000001
 43
0.00000001
 40
0.0
 40
0.0
 40
0.0
 40
0.0
 40
1.0
 40
1.0
 40
1.0
 40
2.0
 40
2.0
 40
2.0
 40
3.0
 40
3.0
 40
3.0
 40
4.0
 40
4.0
 40
4.0
 40
4.0
 10
13.773577880859374
 20
11.392586263020831
 30
0.0
 10
14.663101535373263
 20
10.477568901909722
 30
0.0
 10
15.082025146484373
 20
9.7365288628472211
 30
0.0
 10
15.779312472873263
 20
8.6637261284722218
 30
0.0
 10
14.817786322699652
 20
7.7345838758680552
 30
0.0
 10
13.794592963324652
 20
7.6036702473958329
 30
0.0
 10
12.44204847547743
 20
7.7235595703124993
 30
0.0
 10
11.347886149088541
 20
7.8186442057291661
 30
0.0
 10
10.071650526258679
 20
8.3274848090277764
 30
0.0
 10
10.16656290690104
 20
9.4195800781249996
 30
0.0
 10
10.281973605685764
 20
10.729405381944444
 30
0.0
 10
12.462719048394096
 20
11.505929904513888
 30
0.0
 10
13.773577880859374
 20
11.392586263020831
 30
0.0
  0
SPLINE
  5
F0
100
AcDbEntity
  8
LIVELLO_1
 62
     7
100
AcDbSpline
210
0.0
220
0.0
230
1.0
 70
     8
 71
     3
 72
    17
 73
    13
 74
     0
 42
0.00000001
 43
0.00000001
 40
0.0
 40
0.0
 40
0.0
 40
0.0
 40
1.0
 40
1.0
 40
1.0
 40
2.0
 40
2.0
 40
2.0
 40
3.0
 40
3.0
 40
3.0
 40
4.0
 40
4.0
 40
4.0
 40
4.0
 10
13.56170450846354
 20
6.2025499131944439
 30
0.0
 10
14.449505615234374
 20
5.2892550998263888
 30
0.0
 10
15.166085476345485
 20
5.3230170355902775
 30
0.0
 10
15.864061821831596
 20
4.2502143012152773
 30
0.0
 10
14.902880181206596
 20
3.3210720486111107
 30
0.0
 10
14.235220675998262
 20
4.0445421006944438
 30
0.0
 10
12.880264621310763
 20
4.1606418185763889
 30
0.0
 10
11.78816935221354
 20
4.2567599826388882
 30
0.0
 10
9.3829759385850693
 20
5.110799153645833
 30
0.0
 10
9.4770270453559018
 20
6.2025499131944439
 30
0.0
 10
9.5917487250434021
 20
7.5127197265624996
 30
0.0
 10
12.250501166449652
 20
6.3176161024305548
 30
0.0
 10
13.56170450846354
 20
6.2025499131944439
 30
0.0
  0
SPLINE
  5
EF
100
AcDbEntity
  8
LIVELLO_1
 62
     7
100
AcDbSpline
210
0.0
220
0.0
230
1.0
 70
     8
 71
     3
 72
    17
 73
    13
 74
     0
 42
0.00000001
 43
0.00000001
 40
0.0
 40
0.0
 40
0.0
 40
0.0
 40
1.0
 40
1.0
 40
1.0
 40
2.0
 40
2.0
 40
2.0
 40
3.0
 40
3.0
 40
3.0
 40
4.0
 40
4.0
 40
4.0
 40
4.0
 10
19.058354356553817
 20
-0.4905815972222222
 30
0.0
 10
19.948222520616319
 20
-1.4038764105902777
 30
0.0
 10
20.366801622178819
 20
-2.1445719401041665
 30
0.0
 10
21.064433458116319
 20
-3.219441731770833
 30
0.0
 10
20.103251817491319
 20
-4.1489284939236111
 30
0.0
 10
19.080402967664927
 20
-4.2791531032986105
 30
0.0
 10
17.725102403428817
 20
-4.1599527994791661
 30
0.0
 10
16.633351643880207
 20
-4.0621120876736105
 30
0.0
 10
15.35659925672743
 20
-3.5556830512152775
 30
0.0
 10
15.452717420789929
 20
-2.4639322916666666
 30
0.0
 10
15.567783610026041
 20
-1.1534179687499999
 30
0.0
 10
17.748184543185761
 20
-0.3737928602430555
 30
0.0
 10
19.058354356553817
 20
-0.4905815972222222
 30
0.0
  0
SPLINE
  5
EE
100
AcDbEntity
  8
LIVELLO_1
 62
     7
100
AcDbSpline
210
0.0
220
0.0
230
1.0
 70
     8
 71
     3
 72
    20
 73
    16
 74
     0
 42
0.00000001
 43
0.00000001
 40
0.0
 40
0.0
 40
0.0
 40
0.0
 40
1.0
 40
1.0
 40
1.0
 40
2.0
 40
2.0
 40
2.0
 40
3.0
 40
3.0
 40
3.0
 40
4.0
 40
4.0
 40
4.0
 40
5.0
 40
5.0
 40
5.0
 40
5.0
 10
15.970170762803818
 20
3.1491617838541663
 30
0.0
 10
15.628761800130206
 20
0.9839192708333332
 30
0.0
 10
14.716500515407985
 20
-0.7916829427083333
 30
0.0
 10
12.54126722547743
 20
-0.6032362196180555
 30
0.0
 10
11.03748304578993
 20
-0.4712890625
 30
0.0
 10
10.474898952907985
 20
-0.0027560763888889
 30
0.0
 10
9.755218505859375
 20
1.2712402343749998
 30
0.0
 10
9.755218505859375
 20
1.2712402343749998
 30
0.0
 10
10.185683186848957
 20
2.7471191406249997
 30
0.0
 10
10.185683186848957
 20
2.7471191406249997
 30
0.0
 10
11.781968180338541
 20
2.8342800564236108
 30
0.0
 10
12.627394612630207
 20
2.9862087673611106
 30
0.0
 10
14.166663275824652
 20
3.3066026475694441
 30
0.0
 10
14.166663275824652
 20
3.3066026475694441
 30
0.0
 10
15.970170762803818
 20
3.1491617838541663
 30
0.0
 10
15.970170762803818
 20
3.1491617838541663
 30
0.0
  0
SPLINE
  5
ED
100
AcDbEntity
  8
LIVELLO_1
 62
     7
100
AcDbSpline
210
0.0
220
0.0
230
1.0
 70
     8
 71
     3
 72
    23
 73
    19
 74
     0
 42
0.00000001
 43
0.00000001
 40
0.0
 40
0.0
 40
0.0
 40
0.0
 40
1.0
 40
1.0
 40
1.0
 40
2.0
 40
2.0
 40
2.0
 40
3.0
 40
3.0
 40
3.0
 40
4.0
 40
4.0
 40
4.0
 40
5.0
 40
5.0
 40
5.0
 40
6.0
 40
6.0
 40
6.0
 40
6.0
 10
-0.4774041069878472
 20
9.6555691189236104
 30
0.0
 10
-0.4774041069878472
 20
9.6555691189236104
 30
0.0
 10
0.3187574598524305
 20
8.3736490885416668
 30
0.0
 10
0.3187574598524305
 20
8.3736490885416668
 30
0.0
 10
-0.6901387532552082
 20
8.0849500868055539
 30
0.0
 10
-1.2621968587239583
 20
7.6053927951388882
 30
0.0
 10
-2.3136400010850693
 20
7.6963433159722214
 30
0.0
 10
-3.3633605957031247
 20
7.7903944227430548
 30
0.0
 10
-3.8892544216579856
 20
7.8351806640624995
 30
0.0
 10
-4.9405253092447916
 20
7.9292317708333329
 30
0.0
 10
-4.9565450032552079
 20
8.6096381293402775
 30
0.0
 10
-5.1491258409288188
 20
9.0065131293402771
 30
0.0
 10
-5.0902147081163189
 20
9.6810628255208329
 30
0.0
 10
-4.936391194661458
 20
11.40740017361111
 30
0.0
 10
-2.6531541612413192
 20
11.585856119791666
 30
0.0
 10
-0.9395636664496527
 20
11.284065755208331
 30
0.0
 10
-0.9395636664496527
 20
11.284065755208331
 30
0.0
 10
-0.4774041069878472
 20
9.6555691189236104
 30
0.0
 10
-0.4774041069878472
 20
9.6555691189236104
 30
0.0
  0
SPLINE
  5
EC
100
AcDbEntity
  8
LIVELLO_1
 62
     7
100
AcDbSpline
210
0.0
220
0.0
230
1.0
 70
     8
 71
     3
 72
    17
 73
    13
 74
     0
 42
0.00000001
 43
0.00000001
 40
0.0
 40
0.0
 40
0.0
 40
0.0
 40
1.0
 40
1.0
 40
1.0
 40
2.0
 40
2.0
 40
2.0
 40
3.0
 40
3.0
 40
3.0
 40
4.0
 40
4.0
 40
4.0
 40
4.0
 10
-16.727919514973959
 20
6.2152967664930552
 30
0.0
 10
-16.823004150390624
 20
5.1235460069444443
 30
0.0
 10
-17.733715142144096
 20
4.2784640842013886
 30
0.0
 10
-18.825638156467011
 20
4.3728597005208325
 30
0.0
 10
-19.393906656901041
 20
4.4238471137152775
 30
0.0
 10
-20.126333957248264
 20
4.6181504991319438
 30
0.0
 10
-20.076207817925347
 20
5.1872802734374996
 30
0.0
 10
-19.933408610026039
 20
6.8037190755208323
 30
0.0
 10
-19.741344536675346
 20
7.7438856336805548
 30
0.0
 10
-18.174515109592011
 20
8.0467095269097211
 30
0.0
 10
-18.243072509765625
 20
7.261227756076388
 30
0.0
 10
-16.659362114800345
 20
7.0011230468749996
 30
0.0
 10
-16.727919514973959
 20
6.2152967664930552
 30
0.0
  0
SPLINE
  5
EB
100
AcDbEntity
  8
LIVELLO_1
 62
     7
100
AcDbSpline
210
0.0
220
0.0
230
1.0
 70
     8
 71
     3
 72
    17
 73
    13
 74
     0
 42
0.00000001
 43
0.00000001
 40
0.0
 40
0.0
 40
0.0
 40
0.0
 40
1.0
 40
1.0
 40
1.0
 40
2.0
 40
2.0
 40
2.0
 40
3.0
 40
3.0
 40
3.0
 40
4.0
 40
4.0
 40
4.0
 40
4.0
 10
-21.552947998046871
 20
5.6816514756944443
 30
0.0
 10
-21.647688123914929
 20
4.5899007161458325
 30
0.0
 10
-22.558743625217012
 20
3.7448187934027772
 30
0.0
 10
-23.652044677734374
 20
3.840247938368055
 30
0.0
 10
-24.220485432942706
 20
3.8884792751736108
 30
0.0
 10
-24.949812147352429
 20
4.0845052083333329
 30
0.0
 10
-24.899513753255206
 20
4.6546685112847221
 30
0.0
 10
-24.758609347873261
 20
6.2693847656249995
 30
0.0
 10
-23.652044677734374
 20
7.3632025824652771
 30
0.0
 10
-22.083664957682291
 20
7.6660264756944434
 30
0.0
 10
-22.152394612630207
 20
6.878822157118055
 30
0.0
 10
-21.484390597873261
 20
6.4671332465277773
 30
0.0
 10
-21.552947998046871
 20
5.6816514756944443
 30
0.0
  0
SPLINE
  5
EA
100
AcDbEntity
  8
LIVELLO_1
 62
     7
100
AcDbSpline
210
0.0
220
0.0
230
1.0
 70
     8
 71
     3
 72
    20
 73
    16
 74
     0
 42
0.00000001
 43
0.00000001
 40
0.0
 40
0.0
 40
0.0
 40
0.0
 40
1.0
 40
1.0
 40
1.0
 40
2.0
 40
2.0
 40
2.0
 40
3.0
 40
3.0
 40
3.0
 40
4.0
 40
4.0
 40
4.0
 40
5.0
 40
5.0
 40
5.0
 40
5.0
 10
-24.045130072699649
 20
2.5552273220486108
 30
0.0
 10
-25.05092569986979
 20
2.6420437282986109
 30
0.0
 10
-25.876542833116318
 20
1.7476969401041664
 30
0.0
 10
-25.965081787109373
 20
0.7417290581597221
 30
0.0
 10
-26.038290066189234
 20
-0.0871609157986111
 30
0.0
 10
-26.078942192925346
 20
-0.5684407552083333
 30
0.0
 10
-26.150772433810761
 20
-1.3990532769097221
 30
0.0
 10
-25.410249159071178
 20
-1.4645100911458333
 30
0.0
 10
-25.014924452039928
 20
-1.4993055555555554
 30
0.0
 10
-24.272334120008679
 20
-1.563039822048611
 30
0.0
 10
-22.875003390842011
 20
-1.687063259548611
 30
0.0
 10
-20.996565077039929
 20
-1.8500162760416665
 30
0.0
 10
-20.873919677734374
 20
-0.4506184895833333
 30
0.0
 10
-20.72560831705729
 20
1.253325737847222
 30
0.0
 10
-22.341013590494789
 20
2.4060546874999997
 30
0.0
 10
-24.045130072699649
 20
2.5552273220486108
 30
0.0
  0
SPLINE
  5
E9
100
AcDbEntity
  8
LIVELLO_1
 62
     7
100
AcDbSpline
210
0.0
220
0.0
230
1.0
 70
     8
 71
     3
 72
    17
 73
    13
 74
     0
 42
0.00000001
 43
0.00000001
 40
0.0
 40
0.0
 40
0.0
 40
0.0
 40
1.0
 40
1.0
 40
1.0
 40
2.0
 40
2.0
 40
2.0
 40
3.0
 40
3.0
 40
3.0
 40
4.0
 40
4.0
 40
4.0
 40
4.0
 10
-16.976655409071178
 20
3.870564778645833
 30
0.0
 10
-16.087993028428819
 20
2.9572699652777774
 30
0.0
 10
-15.668897162543402
 20
2.2165744357638886
 30
0.0
 10
-14.970576307508679
 20
1.1417046440972221
 30
0.0
 10
-15.931757948133679
 20
0.2142849392361111
 30
0.0
 10
-16.955123562282985
 20
0.0847493489583333
 30
0.0
 10
-18.309907362196178
 20
0.2015380859375
 30
0.0
 10
-19.401830376519097
 20
0.2969672309027778
 30
0.0
 10
-20.67789374457465
 20
0.8054633246527777
 30
0.0
 10
-20.583842637803819
 20
1.8972140842013887
 30
0.0
 10
-20.467570665147569
 20
3.2077284071180552
 30
0.0
 10
-18.286997477213539
 20
3.9856309678819439
 30
0.0
 10
-16.976655409071178
 20
3.870564778645833
 30
0.0
  0
SPLINE
  5
E8
100
AcDbEntity
  8
LIVELLO_1
 62
     7
100
AcDbSpline
210
0.0
220
0.0
230
1.0
 70
     8
 71
     3
 72
    14
 73
    10
 74
     0
 42
0.00000001
 43
0.00000001
 40
0.0
 40
0.0
 40
0.0
 40
0.0
 40
1.0
 40
1.0
 40
1.0
 40
2.0
 40
2.0
 40
2.0
 40
3.0
 40
3.0
 40
3.0
 40
3.0
 10
-10.083536105685763
 20
5.0246717664930554
 30
0.0
 10
-10.210832383897568
 20
3.5839328342013888
 30
0.0
 10
-11.725124104817708
 20
2.8807888454861108
 30
0.0
 10
-13.166207546657985
 20
3.0051567925347218
 30
0.0
 10
-14.607980007595485
 20
3.1326253255208329
 30
0.0
 10
-15.494230821397569
 20
4.5754313151041659
 30
0.0
 10
-15.369690619574651
 20
6.0165147569444439
 30
0.0
 10
-15.185722520616318
 20
8.1142333984374986
 30
0.0
 10
-9.9002570258246525
 20
7.1223904079861109
 30
0.0
 10
-10.083536105685763
 20
5.0246717664930554
 30
0.0
  0
SPLINE
  5
E7
100
AcDbEntity
  8
LIVELLO_1
 62
     7
100
AcDbSpline
210
0.0
220
0.0
230
1.0
 70
     8
 71
     3
 72
    20
 73
    16
 74
     0
 42
0.00000001
 43
0.00000001
 40
0.0
 40
0.0
 40
0.0
 40
0.0
 40
1.0
 40
1.0
 40
1.0
 40
2.0
 40
2.0
 40
2.0
 40
3.0
 40
3.0
 40
3.0
 40
4.0
 40
4.0
 40
4.0
 40
5.0
 40
5.0
 40
5.0
 40
5.0
 10
-4.6137580023871525
 20
4.9419894748263884
 30
0.0
 10
-4.7021247016059027
 20
3.9666829427083328
 30
0.0
 10
-5.4839891221788193
 20
3.6552463107638884
 30
0.0
 10
-6.006093343098958
 20
2.8680419921874996
 30
0.0
 10
-6.006093343098958
 20
2.8680419921874996
 30
0.0
 10
-10.034098985460069
 20
1.2691731770833332
 30
0.0
 10
-10.034098985460069
 20
1.2691731770833332
 30
0.0
 10
-9.98207804361979
 20
1.8703423394097221
 30
0.0
 10
-8.9995368109809011
 20
4.1148220486111109
 30
0.0
 10
-8.9468268500434025
 20
4.7153021918402773
 30
0.0
 10
-8.84261271158854
 20
5.9159179687499996
 30
0.0
 10
-7.7865186903211798
 20
6.7303385416666659
 30
0.0
 10
-6.585558403862847
 20
6.6269856770833329
 30
0.0
 10
-5.6092183430989575
 20
6.5408582899305552
 30
0.0
 10
-4.5309034559461798
 20
5.916951497395833
 30
0.0
 10
-4.6137580023871525
 20
4.9419894748263884
 30
0.0
  0
SPLINE
  5
E6
100
AcDbEntity
  8
LIVELLO_1
 62
     7
100
AcDbSpline
210
0.0
220
0.0
230
1.0
 70
     8
 71
     3
 72
    20
 73
    16
 74
     0
 42
0.00000001
 43
0.00000001
 40
0.0
 40
0.0
 40
0.0
 40
0.0
 40
1.0
 40
1.0
 40
1.0
 40
2.0
 40
2.0
 40
2.0
 40
3.0
 40
3.0
 40
3.0
 40
4.0
 40
4.0
 40
4.0
 40
5.0
 40
5.0
 40
5.0
 40
5.0
 10
-21.473194037543401
 20
-2.7057779947916663
 30
0.0
 10
-19.357905409071179
 20
-3.5715304904513885
 30
0.0
 10
-17.031776936848956
 20
-4.6842963324652773
 30
0.0
 10
-17.235726589626733
 20
-7.0097357855902773
 30
0.0
 10
-17.294465467664928
 20
-7.685663519965277
 30
0.0
 10
-18.051697455512151
 20
-7.695309787326388
 30
0.0
 10
-18.541762288411455
 20
-8.1066541883680543
 30
0.0
 10
-18.541762288411455
 20
-8.1066541883680543
 30
0.0
 10
-22.820915391710066
 20
-7.7318277994791655
 30
0.0
 10
-22.820915391710066
 20
-7.7318277994791655
 30
0.0
 10
-22.817814805772567
 20
-6.8233561197916659
 30
0.0
 10
-22.996270751953123
 20
-6.2779975043402771
 30
0.0
 10
-22.917550320095483
 20
-5.3774495442708332
 30
0.0
 10
-22.812819417317705
 20
-4.1758002387152775
 30
0.0
 10
-22.085215250651039
 20
-3.6352647569444443
 30
0.0
 10
-21.473194037543401
 20
-2.7057779947916663
 30
0.0
  0
SPLINE
  5
E5
100
AcDbEntity
  8
LIVELLO_1
 62
     7
100
AcDbSpline
210
0.0
220
0.0
230
1.0
 70
     8
 71
     3
 72
    23
 73
    19
 74
     0
 42
0.00000001
 43
0.00000001
 40
0.0
 40
0.0
 40
0.0
 40
0.0
 40
1.0
 40
1.0
 40
1.0
 40
2.0
 40
2.0
 40
2.0
 40
3.0
 40
3.0
 40
3.0
 40
4.0
 40
4.0
 40
4.0
 40
5.0
 40
5.0
 40
5.0
 40
6.0
 40
6.0
 40
6.0
 40
6.0
 10
7.3243591308593743
 20
-6.9380777994791663
 30
0.0
 10
8.5356547037760411
 20
-7.8007297092013879
 30
0.0
 10
8.9766269259982625
 20
-8.8218560112847211
 30
0.0
 10
9.459457058376735
 20
-10.226421440972221
 30
0.0
 10
9.459457058376735
 20
-10.226421440972221
 30
0.0
 10
9.05310804578993
 20
-11.40119900173611
 30
0.0
 10
9.05310804578993
 20
-11.40119900173611
 30
0.0
 10
8.5268697102864568
 20
-11.356412760416665
 30
0.0
 10
8.1516988118489575
 20
-11.323339843749999
 30
0.0
 10
7.6263217502170129
 20
-11.276831054687499
 30
0.0
 10
5.9742262098524304
 20
-11.132137044270833
 30
0.0
 10
4.67353040907118
 20
-9.5825330946180554
 30
0.0
 10
4.8187411838107632
 20
-7.927853732638888
 30
0.0
 10
4.8838534884982634
 20
-7.178545464409722
 30
0.0
 10
5.6483201768663189
 20
-7.0941406249999996
 30
0.0
 10
6.1511318630642355
 20
-6.5350016276041663
 30
0.0
 10
6.1511318630642355
 20
-6.5350016276041663
 30
0.0
 10
7.3243591308593743
 20
-6.9380777994791663
 30
0.0
 10
7.3243591308593743
 20
-6.9380777994791663
 30
0.0
  0
SPLINE
  5
E4
100
AcDbEntity
  8
LIVELLO_1
 62
     7
100
AcDbSpline
210
0.0
220
0.0
230
1.0
 70
     8
 71
     3
 72
    17
 73
    13
 74
     0
 42
0.00000001
 43
0.00000001
 40
0.0
 40
0.0
 40
0.0
 40
0.0
 40
1.0
 40
1.0
 40
1.0
 40
2.0
 40
2.0
 40
2.0
 40
3.0
 40
3.0
 40
3.0
 40
4.0
 40
4.0
 40
4.0
 40
4.0
 10
13.56170450846354
 20
-9.2524929470486104
 30
0.0
 10
12.058953857421875
 20
-9.1215793185763889
 30
0.0
 10
10.708476426866319
 20
-9.3355197482638879
 30
0.0
 10
9.9879347059461789
 20
-8.0601453993055543
 30
0.0
 10
9.9879347059461789
 20
-8.0601453993055543
 30
0.0
 10
10.532776557074651
 20
-5.6389322916666664
 30
0.0
 10
10.532776557074651
 20
-5.6389322916666664
 30
0.0
 10
12.130956353081595
 20
-5.5493598090277771
 30
0.0
 10
12.870618353949652
 20
-5.9992892795138886
 30
0.0
 10
14.411954074435762
 20
-5.6785508897569441
 30
0.0
 10
14.411954074435762
 20
-5.6785508897569441
 30
0.0
 10
15.739004855685762
 20
-9.4436957465277764
 30
0.0
 10
13.56170450846354
 20
-9.2524929470486104
 30
0.0
  0
SPLINE
  5
E3
100
AcDbEntity
  8
LIVELLO_1
 62
     7
100
AcDbSpline
210
0.0
220
0.0
230
1.0
 70
     8
 71
     3
 72
    14
 73
    10
 74
     0
 42
0.00000001
 43
0.00000001
 40
0.0
 40
0.0
 40
0.0
 40
0.0
 40
1.0
 40
1.0
 40
1.0
 40
2.0
 40
2.0
 40
2.0
 40
3.0
 40
3.0
 40
3.0
 40
3.0
 10
8.9144429524739568
 20
-0.0761366102430556
 30
0.0
 10
8.375457763671875
 20
-0.1794894748263889
 30
0.0
 10
7.9611850314670134
 20
-0.5987575954861111
 30
0.0
 10
7.3619106716579852
 20
-0.5446695963541666
 30
0.0
 10
5.7854349772135407
 20
-0.4075547960069444
 30
0.0
 10
5.1518819173177075
 20
1.0094129774305554
 30
0.0
 10
4.600494384765625
 20
2.4949381510416666
 30
0.0
 10
6.5097663031684023
 20
2.7054334852430553
 30
0.0
 10
8.0831414116753457
 20
1.6619140625
 30
0.0
 10
8.9144429524739568
 20
-0.0761366102430556
 30
0.0
  0
SPLINE
  5
E2
100
AcDbEntity
  8
LIVELLO_1
 62
     7
100
AcDbSpline
210
0.0
220
0.0
230
1.0
 70
     8
 71
     3
 72
    23
 73
    19
 74
     0
 42
0.00000001
 43
0.00000001
 40
0.0
 40
0.0
 40
0.0
 40
0.0
 40
1.0
 40
1.0
 40
1.0
 40
2.0
 40
2.0
 40
2.0
 40
3.0
 40
3.0
 40
3.0
 40
4.0
 40
4.0
 40
4.0
 40
5.0
 40
5.0
 40
5.0
 40
6.0
 40
6.0
 40
6.0
 40
6.0
 10
8.0784905327690968
 20
5.9414116753472213
 30
0.0
 10
8.0281921386718746
 20
5.3402425130208329
 30
0.0
 10
8.9271898057725689
 20
5.2623833550347214
 30
0.0
 10
8.8751688639322914
 20
4.661214192708333
 30
0.0
 10
8.7296135796440968
 20
3.0099799262152773
 30
0.0
 10
6.2293355305989575
 20
3.8340467664930551
 30
0.0
 10
4.5922261555989579
 20
4.1272243923611107
 30
0.0
 10
4.4880120171440971
 20
4.6660373263888886
 30
0.0
 10
4.0694329155815971
 20
5.0822048611111104
 30
0.0
 10
4.1236931694878471
 20
5.6833740234374996
 30
0.0
 10
4.1764031304253466
 20
6.2838541666666661
 30
0.0
 10
4.6592332628038191
 20
6.6190619574652771
 30
0.0
 10
4.8545701768663188
 20
7.132036675347222
 30
0.0
 10
4.8545701768663188
 20
7.132036675347222
 30
0.0
 10
7.5579366048177077
 20
6.8946695963541664
 30
0.0
 10
7.5579366048177077
 20
6.8946695963541664
 30
0.0
 10
7.5579366048177077
 20
6.8946695963541664
 30
0.0
 10
8.0784905327690968
 20
5.9414116753472213
 30
0.0
 10
8.0784905327690968
 20
5.9414116753472213
 30
0.0
  0
SPLINE
  5
E1
100
AcDbEntity
  8
LIVELLO_1
 62
     7
100
AcDbSpline
210
0.0
220
0.0
230
1.0
 70
     8
 71
     3
 72
    17
 73
    13
 74
     0
 42
0.00000001
 43
0.00000001
 40
0.0
 40
0.0
 40
0.0
 40
0.0
 40
1.0
 40
1.0
 40
1.0
 40
2.0
 40
2.0
 40
2.0
 40
3.0
 40
3.0
 40
3.0
 40
4.0
 40
4.0
 40
4.0
 40
4.0
 10
6.6589389377170134
 20
-1.8245225694444442
 30
0.0
 10
5.6626173231336798
 20
-1.9630154079861108
 30
0.0
 10
4.4911126030815964
 20
-2.3919297960069441
 30
0.0
 10
4.3994730631510413
 20
-3.4406168619791662
 30
0.0
 10
4.3198913574218745
 20
-4.3428873697916659
 30
0.0
 10
4.5148837619357636
 20
-5.5703748914930546
 30
0.0
 10
5.4164652506510409
 20
-5.6482340494791661
 30
0.0
 10
7.1434916178385413
 20
-5.7998182508680554
 30
0.0
 10
9.1278666178385404
 20
-5.5958685980902771
 30
0.0
 10
9.5033820258246511
 20
-3.8888237847222218
 30
0.0
 10
9.7729607476128457
 20
-2.5500596788194443
 30
0.0
 10
7.8209696451822905
 20
-2.3791829427083333
 30
0.0
 10
6.6589389377170134
 20
-1.8245225694444442
 30
0.0
  0
SPLINE
  5
E0
100
AcDbEntity
  8
LIVELLO_1
 62
     7
100
AcDbSpline
210
0.0
220
0.0
230
1.0
 70
     8
 71
     3
 72
    23
 73
    19
 74
     0
 42
0.00000001
 43
0.00000001
 40
0.0
 40
0.0
 40
0.0
 40
0.0
 40
1.0
 40
1.0
 40
1.0
 40
2.0
 40
2.0
 40
2.0
 40
3.0
 40
3.0
 40
3.0
 40
4.0
 40
4.0
 40
4.0
 40
5.0
 40
5.0
 40
5.0
 40
6.0
 40
6.0
 40
6.0
 40
6.0
 10
2.6069898817274302
 20
5.6289415147569439
 30
0.0
 10
2.6069898817274302
 20
5.6289415147569439
 30
0.0
 10
3.1036003960503469
 20
4.3756157769097221
 30
0.0
 10
3.1036003960503469
 20
4.3756157769097221
 30
0.0
 10
1.6864603678385415
 20
3.7430962456597219
 30
0.0
 10
0.6439744737413193
 20
3.0785373263888887
 30
0.0
 10
-0.9316399468315971
 20
3.2156521267361109
 30
0.0
 10
-1.6823262532552081
 20
3.2824869791666664
 30
0.0
 10
-2.7709764268663193
 20
2.3467990451388885
 30
0.0
 10
-3.4270948621961801
 20
2.6289523654513887
 30
0.0
 10
-3.4270948621961801
 20
2.6289523654513887
 30
0.0
 10
-2.5503180609809024
 20
5.4756347656249993
 30
0.0
 10
-2.5503180609809024
 20
5.4756347656249993
 30
0.0
 10
-1.2713263617621526
 20
6.2711073133680548
 30
0.0
 10
-0.0421162923177083
 20
6.4657552083333325
 30
0.0
 10
1.4856113009982637
 20
6.6362874348958325
 30
0.0
 10
1.4856113009982637
 20
6.6362874348958325
 30
0.0
 10
2.6069898817274302
 20
5.6289415147569439
 30
0.0
 10
2.6069898817274302
 20
5.6289415147569439
 30
0.0
  0
SPLINE
  5
DF
100
AcDbEntity
  8
LIVELLO_1
 62
     7
100
AcDbSpline
210
0.0
220
0.0
230
1.0
 70
     8
 71
     3
 72
    23
 73
    19
 74
     0
 42
0.00000001
 43
0.00000001
 40
0.0
 40
0.0
 40
0.0
 40
0.0
 40
1.0
 40
1.0
 40
1.0
 40
2.0
 40
2.0
 40
2.0
 40
3.0
 40
3.0
 40
3.0
 40
4.0
 40
4.0
 40
4.0
 40
5.0
 40
5.0
 40
5.0
 40
6.0
 40
6.0
 40
6.0
 40
6.0
 10
-13.982522922092013
 20
-1.5458143446180554
 30
0.0
 10
-13.982522922092013
 20
-1.5458143446180554
 30
0.0
 10
-13.812679714626736
 20
-3.0726806640624997
 30
0.0
 10
-13.812679714626736
 20
-3.0726806640624997
 30
0.0
 10
-14.748195393880208
 20
-3.3689588758680551
 30
0.0
 10
-15.368312581380208
 20
-3.5429361979166663
 30
0.0
 10
-16.296076795789929
 20
-3.762733289930555
 30
0.0
 10
-16.296076795789929
 20
-3.762733289930555
 30
0.0
 10
-17.470682101779513
 20
-3.3582790798611106
 30
0.0
 10
-17.470682101779513
 20
-3.3582790798611106
 30
0.0
 10
-17.470682101779513
 20
-3.3582790798611106
 30
0.0
 10
-17.965742323133679
 20
-2.1052978515624998
 30
0.0
 10
-17.965742323133679
 20
-2.1052978515624998
 30
0.0
 10
-17.965742323133679
 20
-2.1052978515624998
 30
0.0
 10
-16.385304768880207
 20
-1.3353190104166666
 30
0.0
 10
-16.385304768880207
 20
-1.3353190104166666
 30
0.0
 10
-16.385304768880207
 20
-1.3353190104166666
 30
0.0
 10
-15.389844428168402
 20
-1.1964816623263888
 30
0.0
 10
-13.982522922092013
 20
-1.5458143446180554
 30
0.0
  0
SPLINE
  5
DE
100
AcDbEntity
  8
LIVELLO_1
 62
     7
100
AcDbSpline
210
0.0
220
0.0
230
1.0
 70
     8
 71
     3
 72
    20
 73
    16
 74
     0
 42
0.00000001
 43
0.00000001
 40
0.0
 40
0.0
 40
0.0
 40
0.0
 40
1.0
 40
1.0
 40
1.0
 40
2.0
 40
2.0
 40
2.0
 40
3.0
 40
3.0
 40
3.0
 40
4.0
 40
4.0
 40
4.0
 40
5.0
 40
5.0
 40
5.0
 40
5.0
 10
-8.4591735839843736
 20
-0.0906060112847222
 30
0.0
 10
-8.4688198513454847
 20
-1.0738362630208331
 30
0.0
 10
-8.2974263509114579
 20
-1.6936089409722221
 30
0.0
 10
-8.0772847493489568
 20
-2.6196506076388886
 30
0.0
 10
-9.2475836859809011
 20
-3.048909505208333
 30
0.0
 10
-9.7567687988281246
 20
-3.6828070746527772
 30
0.0
 10
-10.958590359157984
 20
-3.5777316623263884
 30
0.0
 10
-11.483967420789929
 20
-3.5332899305555552
 30
0.0
 10
-11.85913831922743
 20
-3.4981499565972221
 30
0.0
 10
-12.384515380859375
 20
-3.4554307725694442
 30
0.0
 10
-12.413798692491318
 20
-2.9224745008680553
 30
0.0
 10
-13.233042399088541
 20
-2.7743353949652776
 30
0.0
 10
-13.181365966796873
 20
-2.1738552517361107
 30
0.0
 10
-13.00359903971354
 20
-0.1477945963541666
 30
0.0
 10
-10.462152099609375
 20
0.3861952039930555
 30
0.0
 10
-8.4591735839843736
 20
-0.0906060112847222
 30
0.0
  0
SPLINE
  5
DD
100
AcDbEntity
  8
LIVELLO_1
 62
     7
100
AcDbSpline
210
0.0
220
0.0
230
1.0
 70
     8
 71
     3
 72
    20
 73
    16
 74
     0
 42
0.00000001
 43
0.00000001
 40
0.0
 40
0.0
 40
0.0
 40
0.0
 40
1.0
 40
1.0
 40
1.0
 40
2.0
 40
2.0
 40
2.0
 40
3.0
 40
3.0
 40
3.0
 40
4.0
 40
4.0
 40
4.0
 40
5.0
 40
5.0
 40
5.0
 40
5.0
 10
-12.796376546223957
 20
-5.2802978515624996
 30
0.0
 10
-12.796376546223957
 20
-5.2802978515624996
 30
0.0
 10
-8.8856764051649293
 20
-5.544881184895833
 30
0.0
 10
-8.8856764051649293
 20
-5.544881184895833
 30
0.0
 10
-8.9652581108940961
 20
-6.4488742404513886
 30
0.0
 10
-9.0041876898871518
 20
-6.8984592013888886
 30
0.0
 10
-9.08411390516493
 20
-7.7972846137152771
 30
0.0
 10
-9.4060580783420136
 20
-11.476302083333332
 30
0.0
 10
-14.154605441623263
 20
-11.28992241753472
 30
0.0
 10
-17.861355929904512
 20
-11.265806749131944
 30
0.0
 10
-17.635874430338539
 20
-8.7154025607638879
 30
0.0
 10
-16.244917127821179
 20
-6.641110568576388
 30
0.0
 10
-13.775128173828124
 20
-6.1012641059027768
 30
0.0
 10
-13.775128173828124
 20
-6.1012641059027768
 30
0.0
 10
-12.796376546223957
 20
-5.2802978515624996
 30
0.0
 10
-12.796376546223957
 20
-5.2802978515624996
 30
0.0
  0
POLYLINE
  5
D6
100
AcDbEntity
  8
LIVELLO_1
 62
     7
100
AcDb2dPolyline
 66
     1
 10
0.0
 20
0.0
 30
0.0
 70
     1
  0
VERTEX
  5
D7
100
AcDbEntity
  8
LIVELLO_1
 62
     7
100
AcDbVertex
100
AcDb2dVertex
 10
-6.448271
 20
-1.902726
 30
0.0
  0
VERTEX
  5
D8
100
AcDbEntity
  8
LIVELLO_1
 62
     7
100
AcDbVertex
100
AcDb2dVertex
 10
-5.30071
 20
-2.607593
 30
0.0
  0
VERTEX
  5
D9
100
AcDbEntity
  8
LIVELLO_1
 62
     7
100
AcDbVertex
100
AcDb2dVertex
 10
-5.106234
 20
-3.834391
 30
0.0
  0
VERTEX
  5
DA
100
AcDbEntity
  8
LIVELLO_1
 62
     7
100
AcDbVertex
100
AcDb2dVertex
 10
-6.658767
 20
-4.304647
 30
0.0
  0
VERTEX
  5
DB
100
AcDbEntity
  8
LIVELLO_1
 62
     7
100
AcDbVertex
100
AcDb2dVertex
 10
-7.129194
 20
-2.750564
 30
0.0
  0
SEQEND
  5
DC
100
AcDbEntity
  8
LIVELLO_1
 62
     7
  0
SPLINE
  5
D5
100
AcDbEntity
  8
LIVELLO_1
 62
     7
100
AcDbSpline
210
0.0
220
0.0
230
1.0
 70
     8
 71
     3
 72
    23
 73
    19
 74
     0
 42
0.00000001
 43
0.00000001
 40
0.0
 40
0.0
 40
0.0
 40
0.0
 40
1.0
 40
1.0
 40
1.0
 40
2.0
 40
2.0
 40
2.0
 40
3.0
 40
3.0
 40
3.0
 40
4.0
 40
4.0
 40
4.0
 40
5.0
 40
5.0
 40
5.0
 40
6.0
 40
6.0
 40
6.0
 40
6.0
 10
3.2715488009982634
 20
0.4867919921875
 30
0.0
 10
3.2715488009982634
 20
0.4867919921875
 30
0.0
 10
4.0678826226128466
 20
-0.7916829427083333
 30
0.0
 10
4.0678826226128466
 20
-0.7916829427083333
 30
0.0
 10
3.0613979763454857
 20
-1.0831380208333332
 30
0.0
 10
2.4883063422309024
 20
-1.563039822048611
 30
0.0
 10
1.4370354546440971
 20
-1.4693332248263888
 30
0.0
 10
0.3857645670572916
 20
-1.3783827039930554
 30
0.0
 10
-0.1394402398003472
 20
-1.3318739149305554
 30
0.0
 10
-1.1889885796440971
 20
-1.2412679036458332
 30
0.0
 10
-1.2058695475260415
 20
-0.5591389973958333
 30
0.0
 10
-1.3979336208767359
 20
-0.1639865451388889
 30
0.0
 10
-1.3412618001302081
 20
0.5140082465277778
 30
0.0
 10
-1.187438286675347
 20
2.2386230468749999
 30
0.0
 10
1.0959710015190971
 20
2.418801540798611
 30
0.0
 10
2.8111117892795137
 20
2.1159776475694443
 30
0.0
 10
2.8111117892795137
 20
2.1159776475694443
 30
0.0
 10
3.2715488009982634
 20
0.4867919921875
 30
0.0
 10
3.2715488009982634
 20
0.4867919921875
 30
0.0
  0
SPLINE
  5
D4
100
AcDbEntity
  8
LIVELLO_1
 62
     7
100
AcDbSpline
210
0.0
220
0.0
230
1.0
 70
     8
 71
     3
 72
    26
 73
    22
 74
     0
 42
0.00000001
 43
0.00000001
 40
0.0
 40
0.0
 40
0.0
 40
0.0
 40
1.0
 40
1.0
 40
1.0
 40
2.0
 40
2.0
 40
2.0
 40
3.0
 40
3.0
 40
3.0
 40
4.0
 40
4.0
 40
4.0
 40
5.0
 40
5.0
 40
5.0
 40
6.0
 40
6.0
 40
6.0
 40
7.0
 40
7.0
 40
7.0
 40
7.0
 10
-4.4297899034288193
 20
0.266650390625
 30
0.0
 10
-4.4297899034288193
 20
0.266650390625
 30
0.0
 10
-2.9533942328559024
 20
-0.1639865451388889
 30
0.0
 10
-2.9533942328559024
 20
-0.1639865451388889
 30
0.0
 10
-2.9533942328559024
 20
-0.1639865451388889
 30
0.0
 10
-2.7590908474392357
 20
-1.392507595486111
 30
0.0
 10
-2.7590908474392357
 20
-1.392507595486111
 30
0.0
 10
-3.5168395996093746
 20
-1.4004313151041665
 30
0.0
 10
-3.9848558213975691
 20
-1.5871554904513887
 30
0.0
 10
-4.7364034016927077
 20
-1.5213541666666666
 30
0.0
 10
-5.562365044487847
 20
-1.4500406901041665
 30
0.0
 10
-5.7153272840711802
 20
-0.6053032769097222
 30
0.0
 10
-6.2834235297309018
 20
-0.1750108506944444
 30
0.0
 10
-6.2834235297309018
 20
-0.1750108506944444
 30
0.0
 10
-6.1726637098524302
 20
1.1007080078125
 30
0.0
 10
-6.1726637098524302
 20
1.1007080078125
 30
0.0
 10
-6.1726637098524302
 20
1.1007080078125
 30
0.0
 10
-4.9174431694878464
 20
1.5961127387152776
 30
0.0
 10
-4.9174431694878464
 20
1.5961127387152776
 30
0.0
 10
-4.9174431694878464
 20
1.5961127387152776
 30
0.0
 10
-4.4297899034288193
 20
0.266650390625
 30
0.0
 10
-4.4297899034288193
 20
0.266650390625
 30
0.0
  0
SPLINE
  5
D3
100
AcDbEntity
  8
LIVELLO_1
 62
     7
100
AcDbSpline
210
0.0
220
0.0
230
1.0
 70
     8
 71
     3
 72
    17
 73
    13
 74
     0
 42
0.00000001
 43
0.00000001
 40
0.0
 40
0.0
 40
0.0
 40
0.0
 40
1.0
 40
1.0
 40
1.0
 40
2.0
 40
2.0
 40
2.0
 40
3.0
 40
3.0
 40
3.0
 40
4.0
 40
4.0
 40
4.0
 40
4.0
 10
0.2796556260850694
 20
-9.4516194661458321
 30
0.0
 10
-0.9244052463107638
 20
-10.251915147569443
 30
0.0
 10
-1.7293518066406248
 20
-10.785560438368055
 30
0.0
 10
-3.1544155544704857
 20
-10.662915039062499
 30
0.0
 10
-4.9582675509982632
 20
-10.505474175347221
 30
0.0
 10
-6.327176242404513
 20
-8.8714653862847221
 30
0.0
 10
-6.16956312391493
 20
-7.0703694661458325
 30
0.0
 10
-6.0186679416232636
 20
-5.344032118055555
 30
0.0
 10
-3.5201124403211801
 20
-3.5953016493055552
 30
0.0
 10
-2.3303487141927079
 20
-4.6842963324652773
 30
0.0
 10
-0.8648050944010416
 20
-6.0964409722222213
 30
0.0
 10
-0.6965121799045139
 20
-7.6250298394097218
 30
0.0
 10
0.2796556260850694
 20
-9.4516194661458321
 30
0.0
  0
LINE
  5
D2
100
AcDbEntity
  8
LIVELLO_1
 62
     7
100
AcDbLine
 10
-3.529759
 20
-4.579221
 30
0.0
 11
-2.330349
 21
-4.684296
 31
0.0
  0
SPLINE
  5
D1
100
AcDbEntity
  8
LIVELLO_1
 62
     7
100
AcDbSpline
210
0.0
220
0.0
230
1.0
 70
     8
 71
     3
 72
    14
 73
    10
 74
     0
 42
0.00000001
 43
0.00000001
 40
0.0
 40
0.0
 40
0.0
 40
0.0
 40
1.0
 40
1.0
 40
1.0
 40
2.0
 40
2.0
 40
2.0
 40
3.0
 40
3.0
 40
3.0
 40
3.0
 10
4.0239576551649305
 20
-7.008013237847222
 30
0.0
 10
3.5736836751302081
 20
-6.9687391493055548
 30
0.0
 10
3.3235697428385413
 20
-7.2488254123263882
 30
0.0
 10
2.8715732150607636
 20
-7.2105848524305545
 30
0.0
 10
0.3936882866753472
 20
-6.9935438368055554
 30
0.0
 10
-0.9244052463107638
 20
-4.7607774522569439
 30
0.0
 10
-1.3133565266927083
 20
-2.3058024088541664
 30
0.0
 10
1.4912957085503471
 20
-2.2472357855902776
 30
0.0
 10
3.3602600097656246
 20
-4.2267876519097216
 30
0.0
 10
4.0239576551649305
 20
-7.008013237847222
 30
0.0
  0
ENDBLK
  5
FE
100
AcDbEntity
  8
LIVELLO_1
100
AcDbBlockEnd
  0
BLOCK
  5
101
100
AcDbEntity
  8
LIVELLO_1
 62
     7
100
AcDbBlockBegin
  2
AI9-BLK3
 70
     0
 10
0.0
 20
0.0
 30
0.0
  3
AI9-BLK3
  1

  0
INSERT
  5
10F
100
AcDbEntity
  8
LIVELLO_1
 62
     7
100
AcDbBlockReference
  2
AI9-BLK4
 10
-0.047198
 20
-0.026527
 30
0.0
  0
POLYLINE
  5
108
100
AcDbEntity
  8
LIVELLO_1
 62
     7
100
AcDb2dPolyline
 66
     1
 10
0.0
 20
0.0
 30
0.0
 70
     1
  0
VERTEX
  5
109
100
AcDbEntity
  8
LIVELLO_1
 62
     7
100
AcDbVertex
100
AcDb2dVertex
 10
-20.563603
 20
-36.401912
 30
0.0
  0
VERTEX
  5
10A
100
AcDbEntity
  8
LIVELLO_1
 62
     7
100
AcDbVertex
100
AcDb2dVertex
 10
-35.278295
 20
-36.401912
 30
0.0
  0
VERTEX
  5
10B
100
AcDbEntity
  8
LIVELLO_1
 62
     7
100
AcDbVertex
100
AcDb2dVertex
 10
-35.278295
 20
36.451177
 30
0.0
  0
VERTEX
  5
10C
100
AcDbEntity
  8
LIVELLO_1
 62
     7
100
AcDbVertex
100
AcDb2dVertex
 10
-20.563603
 20
36.451177
 30
0.0
  0
SEQEND
  5
10D
100
AcDbEntity
  8
LIVELLO_1
 62
     7
  0
POLYLINE
  5
102
100
AcDbEntity
  8
LIVELLO_1
 62
     7
100
AcDb2dPolyline
 66
     1
 10
0.0
 20
0.0
 30
0.0
 70
     1
  0
VERTEX
  5
103
100
AcDbEntity
  8
LIVELLO_1
 62
     7
100
AcDbVertex
100
AcDb2dVertex
 10
20.670917
 20
-36.401912
 30
0.0
  0
VERTEX
  5
104
100
AcDbEntity
  8
LIVELLO_1
 62
     7
100
AcDbVertex
100
AcDb2dVertex
 10
35.385954
 20
-36.401912
 30
0.0
  0
VERTEX
  5
105
100
AcDbEntity
  8
LIVELLO_1
 62
     7
100
AcDbVertex
100
AcDb2dVertex
 10
35.385954
 20
36.451177
 30
0.0
  0
VERTEX
  5
106
100
AcDbEntity
  8
LIVELLO_1
 62
     7
100
AcDbVertex
100
AcDb2dVertex
 10
20.670917
 20
36.451177
 30
0.0
  0
SEQEND
  5
107
100
AcDbEntity
  8
LIVELLO_1
 62
     7
  0
ENDBLK
  5
116
100
AcDbEntity
  8
LIVELLO_1
100
AcDbBlockEnd
  0
BLOCK
  5
110
100
AcDbEntity
  8
LIVELLO_1
 62
     7
100
AcDbBlockBegin
  2
AI9-BLK4
 70
     0
 10
0.0
 20
0.0
 30
0.0
  3
AI9-BLK4
  1

  0
INSERT
  5
112
100
AcDbEntity
  8
LIVELLO_1
 62
     7
100
AcDbBlockReference
  2
AI9-BLK5
 10
0.000086
 20
0.0
 30
0.0
  0
ENDBLK
  5
115
100
AcDbEntity
  8
LIVELLO_1
100
AcDbBlockEnd
  0
BLOCK
  5
113
100
AcDbEntity
  8
LIVELLO_1
 62
     7
100
AcDbBlockBegin
  2
AI9-BLK5
 70
     0
 10
0.0
 20
0.0
 30
0.0
  3
AI9-BLK5
  1

  0
ENDBLK
  5
114
100
AcDbEntity
  8
LIVELLO_1
100
AcDbBlockEnd
  0
ENDSEC
  0
SECTION
  2
ENTITIES
  0
INSERT
  5
2A
100
AcDbEntity
  8
LIVELLO_1
 62
     7
100
AcDbBlockReference
  2
AI9-BLK1
 10
103.390072
 20
137.041592
 30
0.0
  0
ENDSEC
  0
SECTION
  2
OBJECTS
  0
DICTIONARY
  5
19
100
AcDbDictionary
280
     0
281
     1
  3
ACAD_GROUP
350
1A
  3
ACAD_MLINESTYLE
350
1B
  3
ACAD_LAYOUT
350
1E
  3
ACAD_PLOTSETTINGS
350
22
  3
ACAD_PLOTSTYLENAME
350
1F
  3
ACAD_WIPEOUT_VARS
350
23
  0
DICTIONARY
  5
1A
102
{ACAD_REACTORS
330
19
102
}
100
AcDbDictionary
280
     0
281
     1
  0
DICTIONARY
  5
1B
102
{ACAD_REACTORS
330
19
102
}
100
AcDbDictionary
280
     0
281
     1
  3
Standard
350
1C
  0
MLINESTYLE
  5
1C
102
{ACAD_REACTORS
330
1B
102
}
100
AcDbMlineStyle
  2
Standard
 70
     0
  3

 62
     0
 51
90.0
 52
90.0
 71
     2
 49
0.5
 62
   256
  6
ByLayer
 49
-0.5
 62
   256
  6
ByLayer
  0
ACDBDICTIONARYWDFLT
  5
1F
102
{ACAD_REACTORS
330
19
102
}
100
AcDbDictionary
281
     1
  3
Normal
350
1D
100
AcDbDictionaryWithDefault
340
1D
  0
ACDBPLACEHOLDER
  5
1D
102
{ACAD_REACTORS
330
1F
102
}
  0
LAYOUT
  5
20
102
{ACAD_REACTORS
330
1E
102
}
100
AcDbPlotSettings
  1

  2

  4

  6

 40
0.0
 41
0.0
 42
0.0
 43
0.0
 44
0.0
 45
0.0
 46
0.0
 47
0.0
 48
0.0
 49
0.0
140
0.0
141
0.0
142
1.0
143
1.0
 70
  1024
 72
     0
 73
     0
 74
     0
  7

 75
     0
147
1.0
148
0.0
149
0.0
100
AcDbLayout
  1
Model
 70
     0
 71
     0
 10
0.0
 20
0.0
 11
0.0
 21
0.0
 12
0.0
 22
0.0
 32
0.0
 14
0.0
 24
0.0
 34
0.0
 15
0.0
 25
0.0
 35
0.0
146
0.0
 13
0.0
 23
0.0
 33
0.0
 16
0.0
 26
0.0
 36
0.0
 17
0.0
 27
0.0
 37
0.0
 76
     0
330
A
331
0
345
0
346
0
  0
LAYOUT
  5
21
102
{ACAD_REACTORS
330
1E
102
}
100
AcDbPlotSettings
  1

  2

  4

  6

 40
0.0
 41
0.0
 42
0.0
 43
0.0
 44
0.0
 45
0.0
 46
0.0
 47
0.0
 48
0.0
 49
0.0
140
0.0
141
0.0
142
1.0
143
1.0
 70
     0
 72
     0
 73
     0
 74
     0
  7

 75
     0
147
1.0
148
0.0
149
0.0
100
AcDbLayout
  1
Layout1
 70
     0
 71
     0
 10
0.0
 20
0.0
 11
0.0
 21
0.0
 12
0.0
 22
0.0
 32
0.0
 14
0.0
 24
0.0
 34
0.0
 15
0.0
 25
0.0
 35
0.0
146
0.0
 13
0.0
 23
0.0
 33
0.0
 16
0.0
 26
0.0
 36
0.0
 17
0.0
 27
0.0
 37
0.0
 76
     0
330
B
331
0
345
0
346
0
  0
DICTIONARY
  5
1E
102
{ACAD_REACTORS
330
19
102
}
100
AcDbDictionary
280
     0
281
     1
  3
Layout1
350
21
  3
Model
350
20
  0
DICTIONARY
  5
22
102
{ACAD_REACTORS
330
19
102
}
100
AcDbDictionary
280
     0
281
     1
  0
WIPEOUTVARIABLES
  5
23
100
AcDbWipeoutVariables
 70
     1
  0
ENDSEC
  0
EOF
