  0
SECTION
  2
HEADER
  9
$ACADVER
  1
AC1015
  9
$ACADMAINTVER
 70
     6
  9
$DWGCODEPAGE
  3
ANSI_932
  9
$INSBASE
 10
0.0
 20
0.0
 30
0.0
  9
$EXTMIN
 10
46.02837
 20
99.964613
 30
1.000000E+20
  9
$EXTMAX
 10
138.631331
 20
272.409212
 30
-1.000000E+20
  9
$LIMMIN
 10
46.02837
 20
99.964613
  9
$LIMMAX
 10
138.631331
 20
272.409212
  9
$ORTHOMODE
 70
     0
  9
$REGENMODE
 70
     1
  9
$FILLMODE
 70
     1
  9
$QTEXTMODE
 70
     0
  9
$MIRRTEXT
 70
     1
  9
$LTSCALE
 40
1.0
  9
$ATTMODE
 70
     1
  9
$TEXTSIZE
 40
0.2
  9
$TRACEWID
 40
0.05
  9
$TEXTSTYLE
  7
Standard
  9
$CLAYER
  8
0
  9
$CELTYPE
  6
Continuous
  9
$CECOLOR
 62
   256
  9
$CELTSCALE
 40
1.0
  9
$DISPSILH
 70
     0
  9
$DIMSCALE
 40
1.0
  9
$DIMASZ
 40
0.18
  9
$DIMEXO
 40
0.0625
  9
$DIMDLI
 40
0.38
  9
$DIMRND
 40
0.0
  9
$DIMDLE
 40
0.0
  9
$DIMEXE
 40
0.18
  9
$DIMTP
 40
0.0
  9
$DIMTM
 40
0.0
  9
$DIMTXT
 40
0.18
  9
$DIMCEN
 40
0.09
  9
$DIMTSZ
 40
0.0
  9
$DIMTOL
 70
     0
  9
$DIMLIM
 70
     0
  9
$DIMTIH
 70
     1
  9
$DIMTOH
 70
     1
  9
$DIMSE1
 70
     0
  9
$DIMSE2
 70
     0
  9
$DIMTAD
 70
     0
  9
$DIMZIN
 70
     0
  9
$DIMBLK
  1

  9
$DIMASO
 70
     1
  9
$DIMSHO
 70
     1
  9
$DIMPOST
  1

  9
$DIMAPOST
  1

  9
$DIMALT
 70
     0
  9
$DIMALTD
 70
     2
  9
$DIMALTF
 40
25.4
  9
$DIMLFAC
 40
1.0
  9
$DIMTOFL
 70
     0
  9
$DIMTVP
 40
0.0
  9
$DIMTIX
 70
     0
  9
$DIMSOXD
 70
     0
  9
$DIMSAH
 70
     0
  9
$DIMBLK1
  1

  9
$DIMBLK2
  1

  9
$DIMSTYLE
  2
Standard
  9
$DIMCLRD
 70
     0
  9
$DIMCLRE
 70
     0
  9
$DIMCLRT
 70
     0
  9
$DIMTFAC
 40
1.0
  9
$DIMGAP
 40
0.09
  9
$DIMJUST
 70
     0
  9
$DIMSD1
 70
     0
  9
$DIMSD2
 70
     0
  9
$DIMTOLJ
 70
     1
  9
$DIMTZIN
 70
     0
  9
$DIMALTZ
 70
     0
  9
$DIMALTTZ
 70
     0
  9
$DIMUPT
 70
     0
  9
$DIMDEC
 70
     4
  9
$DIMTDEC
 70
     4
  9
$DIMALTU
 70
     2
  9
$DIMALTTD
 70
     2
  9
$DIMTXSTY
  7
Standard
  9
$DIMAUNIT
 70
     0
  9
$DIMADEC
 70
     0
  9
$DIMALTRND
 40
0.0
  9
$DIMAZIN
 70
     0
  9
$DIMDSEP
 70
     0
  9
$DIMATFIT
 70
     3
  9
$DIMFRAC
 70
     0
  9
$DIMLDRBLK
  1

  9
$DIMLUNIT
 70
     2
  9
$DIMLWD
 70
     0
  9
$DIMLWE
 70
     0
  9
$DIMTMOVE
 70
     0
  9
$LUNITS
 70
     2
  9
$LUPREC
 70
     4
  9
$SKETCHINC
 40
0.1
  9
$FILLETRAD
 40
0.0
  9
$AUNITS
 70
     0
  9
$AUPREC
 70
     0
  9
$MENU
  1
acad
  9
$ELEVATION
 40
0.0
  9
$PELEVATION
 40
0.0
  9
$THICKNESS
 40
0.0
  9
$LIMCHECK
 70
     0
  9
$CHAMFERA
 40
0.0
  9
$CHAMFERB
 40
0.0
  9
$CHAMFERC
 40
0.0
  9
$CHAMFERD
 40
0.0
  9
$SKPOLY
 70
     0
  9
$TDCREATE
 40
0.000000000
  9
$TDUCREATE
 40
0.000000000
  9
$TDUPDATE
 40
0.000000000
  9
$TDUUPDATE
 40
0.000000000
  9
$TDINDWG
 40
0.0000000000
  9
$TDUSRTIMER
 40
0.0000000000
  9
$USRTIMER
 70
     1
  9
$ANGBASE
 50
0.0
  9
$ANGDIR
 70
     0
  9
$PDMODE
 70
     0
  9
$PDSIZE
 40
0.0
  9
$PLINEWID
 40
0.0
  9
$SPLFRAME
 70
     0
  9
$SPLINETYPE
 70
     6
  9
$SPLINESEGS
 70
     8
  9
$HANDSEED
  5
123
  9
$SURFTAB1
 70
     6
  9
$SURFTAB2
 70
     6
  9
$SURFTYPE
 70
     6
  9
$SURFU
 70
     6
  9
$SURFV
 70
     6
  9
$UCSBASE
  2

  9
$UCSNAME
  2

  9
$UCSORG
 10
0.0
 20
0.0
 30
0.0
  9
$UCSXDIR
 10
1.0
 20
0.0
 30
0.0
  9
$UCSYDIR
 10
0.0
 20
1.0
 30
0.0
  9
$UCSORTHOREF
  2

  9
$UCSORTHOVIEW
 70
     0
  9
$UCSORGTOP
 10
0.0
 20
0.0
 30
0.0
  9
$UCSORGBOTTOM
 10
0.0
 20
0.0
 30
0.0
  9
$UCSORGLEFT
 10
0.0
 20
0.0
 30
0.0
  9
$UCSORGRIGHT
 10
0.0
 20
0.0
 30
0.0
  9
$UCSORGFRONT
 10
0.0
 20
0.0
 30
0.0
  9
$UCSORGBACK
 10
0.0
 20
0.0
 30
0.0
  9
$PUCSBASE
  2

  9
$PUCSNAME
  2

  9
$PUCSORG
 10
0.0
 20
0.0
 30
0.0
  9
$PUCSXDIR
 10
1.0
 20
0.0
 30
0.0
  9
$PUCSYDIR
 10
0.0
 20
1.0
 30
0.0
  9
$PUCSORTHOREF
  2

  9
$PUCSORTHOVIEW
 70
     0
  9
$PUCSORGTOP
 10
0.0
 20
0.0
 30
0.0
  9
$PUCSORGBOTTOM
 10
0.0
 20
0.0
 30
0.0
  9
$PUCSORGLEFT
 10
0.0
 20
0.0
 30
0.0
  9
$PUCSORGRIGHT
 10
0.0
 20
0.0
 30
0.0
  9
$PUCSORGFRONT
 10
0.0
 20
0.0
 30
0.0
  9
$PUCSORGBACK
 10
0.0
 20
0.0
 30
0.0
  9
$USERI1
 70
     0
  9
$USERI2
 70
     0
  9
$USERI3
 70
     0
  9
$USERI4
 70
     0
  9
$USERI5
 70
     0
  9
$USERR1
 40
0.0
  9
$USERR2
 40
0.0
  9
$USERR3
 40
0.0
  9
$USERR4
 40
0.0
  9
$USERR5
 40
0.0
  9
$WORLDVIEW
 70
     1
  9
$SHADEDGE
 70
     3
  9
$SHADEDIF
 70
    70
  9
$TILEMODE
 70
     1
  9
$MAXACTVP
 70
    16
  9
$PINSBASE
 10
0.0
 20
0.0
 30
0.0
  9
$PLIMCHECK
 70
     0
  9
$PEXTMIN
 10
1.000000E+20
 20
1.000000E+20
 30
1.000000E+20
  9
$PEXTMAX
 10
-1.000000E+20
 20
-1.000000E+20
 30
-1.000000E+20
  9
$PLIMMIN
 10
0.0
 20
0.0
  9
$PLIMMAX
 10
12.0
 20
9.0
  9
$UNITMODE
 70
     0
  9
$VISRETAIN
 70
     0
  9
$PLINEGEN
 70
     1
  9
$PSLTSCALE
 70
     0
  9
$TREEDEPTH
 70
  3020
  9
$CMLSTYLE
  2
Standard
  9
$CMLJUST
 70
     0
  9
$CMLSCALE
 40
1.0
  9
$PROXYGRAPHICS
 70
     0
  9
$MEASUREMENT
 70
     1
  9
$CELWEIGHT
370
     0
  9
$ENDCAPS
280
     0
  9
$JOINSTYLE
280
     0
  9
$LWDISPLAY
290
     0
  9
$INSUNITS
 70
     0
  9
$HYPERLINKBASE
  1

  9
$STYLESHEET
  1

  9
$XEDIT
290
     1
  9
$CEPSNTYPE
380
     0
  9
$PSTYLEMODE
290
     1
  9
$FINGERPRINTGUID
  2

  9
$VERSIONGUID
  2

  9
$EXTNAMES
290
     1
  9
$PSVPSCALE
 40
0.0
  0
ENDSEC
  0
SECTION
  2
CLASSES
  0
CLASS
  1
LWPOLYLINE
  2
AcDbPolyline
  3
AutoCAD 2000
 90
    32768
280
     0
281
     1
  0
CLASS
  1
IMAGE
  2
AcDbRasterImage
  3
ISM
 90
    32895
280
     0
281
     1
  0
CLASS
  1
OLE2FRAME
  2
AcDbOle2Frame
  3
AutoCAD 2000
 90
    32768
280
     0
281
     1
  0
CLASS
  1
HATCH
  2
AcDbHatch
  3
AutoCAD 2000
 90
    32768
280
     0
281
     1
  0
CLASS
  1
DICTIONARYVAR
  2
AcDbDictionaryVar
  3
AutoCAD 2000
 90
    32768
280
     0
281
     0
  0
CLASS
  1
RASTERVARIABLES
  2
AcDbRasterVariables
  3
ISM
 90
    32768
280
     0
281
     0
  0
CLASS
  1
IMAGEDEF
  2
AcDbRasterImageDef
  3
ISM
 90
    32768
280
     0
281
     0
  0
CLASS
  1
IMAGEDEF_REACTOR
  2
AcDbRasterImageDefReactor
  3
ISM
 90
    32769
280
     0
281
     0
  0
CLASS
  1
IDBUFFER
  2
AcDbIdBuffer
  3
AutoCAD 2000
 90
    32768
280
     0
281
     0
  0
CLASS
  1
SPATIAL_FILTER
  2
AcDbSpatialFilter
  3
AutoCAD 2000
 90
    32768
280
     0
281
     0
  0
CLASS
  1
XRECORD
  2
AcDbXrecord
  3
AutoCAD 2000
 90
    32768
280
     0
281
     0
  0
CLASS
  1
SORTENTSTABLE
  2
AcDbSortentsTable
  3
AutoCAD 2000
 90
    32768
280
     0
281
     0
  0
CLASS
  1
LAYER_INDEX
  2
AcDbLayerIndex
  3
AutoCAD 2000
 90
    32768
280
     0
281
     0
  0
CLASS
  1
SPATIAL_INDEX
  2
AcDbSpatialIndex
  3
AutoCAD 2000
 90
    32768
280
     0
281
     0
  0
CLASS
  1
OBJECT_PTR
  2
CAseDLPNTableRecord
  3
"ASE-LPNTableRecord"
 90
    32769
280
     0
281
     0
  0
CLASS
  1
LAYOUT
  2
AcDbLayout
  3
AutoCAD 2000
 90
        0
280
     0
281
     0
  0
CLASS
  1
PLOTSETTINGS
  2
AcDbPlotSettings
  3
AutoCAD 2000
 90
    32768
280
     0
281
     0
  0
CLASS
  1
ACDBDICTIONARYWDFLT
  2
AcDbDictionaryWithDefault
  3
AutoCAD 2000
 90
        0
280
     0
281
     0
  0
CLASS
  1
ACDBPLACEHOLDER
  2
AcDbPlaceHolder
  3
AutoCAD 2000
 90
        0
280
     0
281
     0
  0
CLASS
  1
VBA_PROJECT
  2
AcDbVbaProject
  3
acadvba
 90
    32768
280
     0
281
     0
  0
CLASS
  1
WIPEOUT
  2
AcDbWipeout
  3
WipeOut|AutoCAD Express Tool|expresstools@autodesk.com
 90
    32895
280
     0
281
     1
  0
CLASS
  1
WIPEOUTVARIABLES
  2
AcDbWipeoutVariables
  3
WipeOut|AutoCAD Express Tool|expresstools@autodesk.com
 90
        0
280
     0
281
     0
  0
CLASS
  1
RTEXT
  2
RText
  3
RText|AutoCAD Express Tool|expresstools@autodesk.com
 90
    32768
280
     0
281
     1
  0
CLASS
  1
ARCALIGNEDTEXT
  2
AcDbArcAlignedText
  3
ATEXT|AutoCAD Express Tool|expresstools@autodesk.com
 90
    32768
280
     0
281
     1
  0
ENDSEC
  0
SECTION
  2
TABLES
  0
TABLE
  2
VPORT
  5
7
100
AcDbSymbolTable
 70
     1
  0
VPORT
  5
15
100
AcDbSymbolTableRecord
100
AcDbViewportTableRecord
  2
*ACTIVE
 70
     0
 10
0.0
 20
0.0
 11
1.0
 21
1.0
 12
6.591288
 22
4.579184
 13
0.0
 23
0.0
 14
1.0
 24
1.0
 15
0.0
 25
0.0
 16
0.0
 26
0.0
 36
1.0
 17
0.0
 27
0.0
 37
0.0
 40
9.158369
 41
0.688564
 42
50.0
 43
0.0
 44
0.0
 50
0.0
 51
0.0
 71
     0
 72
   100
 73
     1
 74
     1
 75
     0
 76
     0
 77
     0
 78
     0
281
     0
 65
     0
110
0.0
120
0.0
130
0.0
111
1.0
121
0.0
131
0.0
112
0.0
122
1.0
132
0.0
345
0
346
0
 79
     0
146
0.0
  0
ENDTAB
  0
TABLE
  2
LTYPE
  5
4
100
AcDbSymbolTable
 70
     3
  0
LTYPE
  5
11
100
AcDbSymbolTableRecord
100
AcDbLinetypeTableRecord
  2
ByBlock
 70
    64
  3

 72
    65
 73
     0
 40
0.0
  0
LTYPE
  5
12
100
AcDbSymbolTableRecord
100
AcDbLinetypeTableRecord
  2
ByLayer
 70
    64
  3

 72
    65
 73
     0
 40
0.0
  0
LTYPE
  5
13
100
AcDbSymbolTableRecord
100
AcDbLinetypeTableRecord
  2
Continuous
 70
    64
  3
Solid line
 72
    65
 73
     0
 40
0.0
  0
ENDTAB
  0
TABLE
  2
LAYER
  5
2
100
AcDbSymbolTable
 70
     2
  0
LAYER
  5
14
100
AcDbSymbolTableRecord
100
AcDbLayerTableRecord
  2
0
 70
     0
 62
     7
  6
Continuous
290
     1
370
    -3
390
1D
  0
LAYER
  5
28
100
AcDbSymbolTableRecord
100
AcDbLayerTableRecord
  2
LIVELLO_1
 70
     0
 62
   160
  6
Continuous
290
     1
370
    -3
390
1D
  0
ENDTAB
  0
TABLE
  2
STYLE
  5
3
100
AcDbSymbolTable
 70
     5
  0
STYLE
  5
17
100
AcDbSymbolTableRecord
100
AcDbTextStyleTableRecord
  2
Standard
 70
     0
 40
0.0
 41
1.0
 50
0.0
 71
     0
 42
0.0
  3
txt
  4

  0
STYLE
  5
24
100
AcDbSymbolTableRecord
100
AcDbTextStyleTableRecord
  2
STD
 70
     0
 40
0.0
 41
1.0
 50
0.0
 71
     0
 42
0.0
  3
txt
  4

  0
STYLE
  5
25
100
AcDbSymbolTableRecord
100
AcDbTextStyleTableRecord
  2
TATESTD
 70
     4
 40
0.0
 41
1.0
 50
0.0
 71
     0
 42
0.0
  3
txt
  4

  0
STYLE
  5
26
100
AcDbSymbolTableRecord
100
AcDbTextStyleTableRecord
  2
KANJISTD
 70
     0
 40
0.0
 41
1.0
 50
0.0
 71
     0
 42
0.0
  3
txt
  4
extfont
  0
STYLE
  5
27
100
AcDbSymbolTableRecord
100
AcDbTextStyleTableRecord
  2
KANJITATE
 70
     4
 40
0.0
 41
1.0
 50
0.0
 71
     0
 42
0.0
  3
txt
  4
extfont
  0
ENDTAB
  0
TABLE
  2
VIEW
  5
5
100
AcDbSymbolTable
 70
     0
  0
ENDTAB
  0
TABLE
  2
UCS
  5
6
100
AcDbSymbolTable
 70
     0
  0
ENDTAB
  0
TABLE
  2
APPID
  5
8
100
AcDbSymbolTable
 70
     1
  0
APPID
  5
16
100
AcDbSymbolTableRecord
100
AcDbRegAppTableRecord
  2
ACAD
 70
     0
  0
ENDTAB
  0
TABLE
  2
DIMSTYLE
  5
9
100
AcDbSymbolTable
 70
     1
100
AcDbDimStyleTable
 71
     0
  0
DIMSTYLE
105
18
100
AcDbSymbolTableRecord
100
AcDbDimStyleTableRecord
  2
Standard
 70
     0
  3

  4

 40
1.0
 41
0.18
 42
0.0625
 43
0.38
 44
0.18
 45
0.0
 46
0.0
 47
0.0
 48
0.0
 71
     0
 72
     0
 73
     1
 74
     1
 75
     0
 76
     0
 77
     0
 78
     0
 79
     0
140
0.18
141
0.09
142
0.0
143
25.4
144
1.0
145
0.0
146
1.0
147
0.09
148
0.0
170
     0
171
     2
172
     0
173
     0
174
     0
175
     0
176
     0
177
     0
178
     0
179
     0
271
     4
272
     4
273
     2
274
     2
275
     0
276
     0
277
     2
278
    46
279
     0
280
     0
281
     0
282
     0
283
     1
284
     0
285
     0
286
     0
288
     0
340
17
341
0
342
0
343
0
344
0
371
    -2
372
    -2
  0
ENDTAB
  0
TABLE
  2
BLOCK_RECORD
  5
1
100
AcDbSymbolTable
 70
     5
  0
BLOCK_RECORD
  5
A
100
AcDbSymbolTableRecord
100
AcDbBlockTableRecord
  2
*MODEL_SPACE
340
20
  0
BLOCK_RECORD
  5
B
100
AcDbSymbolTableRecord
100
AcDbBlockTableRecord
  2
*PAPER_SPACE
340
21
  0
BLOCK_RECORD
  5
29
100
AcDbSymbolTableRecord
100
AcDbBlockTableRecord
  2
AI9-BLK1
340
0
102
{BLKREFS
331
2A
102
}
  0
BLOCK_RECORD
  5
CE
100
AcDbSymbolTableRecord
100
AcDbBlockTableRecord
  2
AI9-BLK2
340
0
102
{BLKREFS
331
CF
102
}
  0
BLOCK_RECORD
  5
FF
100
AcDbSymbolTableRecord
100
AcDbBlockTableRecord
  2
AI9-BLK3
340
0
102
{BLKREFS
331
100
102
}
  0
BLOCK_RECORD
  5
10E
100
AcDbSymbolTableRecord
100
AcDbBlockTableRecord
  2
AI9-BLK4
340
0
102
{BLKREFS
331
10F
102
}
  0
BLOCK_RECORD
  5
111
100
AcDbSymbolTableRecord
100
AcDbBlockTableRecord
  2
AI9-BLK5
340
0
102
{BLKREFS
331
112
102
}
  0
ENDTAB
  0
ENDSEC
  0
SECTION
  2
BLOCKS
  0
BLOCK
  5
D
100
AcDbEntity
  8
0
100
AcDbBlockBegin
  2
*MODEL_SPACE
 70
     0
 10
0.0
 20
0.0
 30
0.0
  3
*MODEL_SPACE
  1

  0
ENDBLK
  5
E
100
AcDbEntity
  8
0
100
AcDbBlockEnd
  0
BLOCK
  5
F
100
AcDbEntity
 67
     1
  8
0
100
AcDbBlockBegin
  2
*PAPER_SPACE
 70
     0
 10
0.0
 20
0.0
 30
0.0
  3
*PAPER_SPACE
  1

  0
ENDBLK
  5
10
100
AcDbEntity
 67
     1
  8
0
100
AcDbBlockEnd
  0
BLOCK
  5
2B
100
AcDbEntity
  8
LIVELLO_1
 62
     7
100
AcDbBlockBegin
  2
AI9-BLK1
 70
     0
 10
0.0
 20
0.0
 30
0.0
  3
AI9-BLK1
  1

  0
MTEXT
  5
121
100
AcDbEntity
  8
LIVELLO_1
 62
     7
100
AcDbMText
 10
-27.372059
 20
34.790408
 30
0.0
 40
8.132604
 41
0.0
 71
     1
 72
     2
  1
\fCourier|b0|i0;\H8.1326;\W0.90;\C7;\U+00F8\U+0020\U+0031\U+0030\U+0030
  7
STD
210
0.0
220
0.0
230
1.0
 73
     1
 44
1.0
  0
LINE
  5
120
100
AcDbEntity
  8
LIVELLO_1
 62
     7
100
AcDbLine
 10
9.796043
 20
25.785162
 30
0.0
 11
9.796043
 21
33.014178
 31
0.0
  0
LINE
  5
11F
100
AcDbEntity
  8
LIVELLO_1
 62
     7
100
AcDbLine
 10
-34.901659
 20
25.590858
 30
0.0
 11
-34.901659
 21
32.821425
 31
0.0
  0
LINE
  5
11E
100
AcDbEntity
  8
LIVELLO_1
 62
     7
100
AcDbLine
 10
3.543539
 20
29.150331
 30
0.0
 11
9.883893
 21
29.150331
 31
0.0
  0
LINE
  5
11D
100
AcDbEntity
  8
LIVELLO_1
 62
     7
100
AcDbLine
 10
-34.845849
 20
29.150331
 30
0.0
 11
-28.503773
 21
29.150331
 31
0.0
  0
CIRCLE
  5
11C
100
AcDbEntity
  8
LIVELLO_1
 62
     7
100
AcDbCircle
 10
-12.281852
 20
61.839981
 30
0.0
 40
22.972413
  0
CIRCLE
  5
11B
100
AcDbEntity
  8
LIVELLO_1
 62
     7
100
AcDbCircle
 10
5.375727
 20
61.839981
 30
0.0
 40
1.455467
  0
CIRCLE
  5
11A
100
AcDbEntity
  8
LIVELLO_1
 62
     7
100
AcDbCircle
 10
-29.939947
 20
61.839981
 30
0.0
 40
1.45495
  0
CIRCLE
  5
119
100
AcDbEntity
  8
LIVELLO_1
 62
     7
100
AcDbCircle
 10
-12.283574
 20
61.839981
 30
0.0
 40
10.91389
  0
CIRCLE
  5
118
100
AcDbEntity
  8
LIVELLO_1
 62
     7
100
AcDbCircle
 10
-12.282713
 20
61.839981
 30
0.0
 40
11.769652
  0
CIRCLE
  5
117
100
AcDbEntity
  8
LIVELLO_1
 62
     7
100
AcDbCircle
 10
-12.281852
 20
61.839981
 30
0.0
 40
24.182848
  0
INSERT
  5
100
100
AcDbEntity
  8
LIVELLO_1
 62
     7
100
AcDbBlockReference
  2
AI9-BLK3
 10
-9.531029
 20
-32.062642
 30
0.0
  0
INSERT
  5
CF
100
AcDbEntity
  8
LIVELLO_1
 62
     7
100
AcDbBlockReference
  2
AI9-BLK2
 10
-6.88399
 20
-56.596029
 30
0.0
  0
LINE
  5
CD
100
AcDbEntity
  8
LIVELLO_1
 62
     7
100
AcDbLine
 10
11.816591
 20
4.784893
 30
0.0
 11
27.099896
 21
4.784893
 31
0.0
  0
LINE
  5
CC
100
AcDbEntity
  8
LIVELLO_1
 62
     7
100
AcDbLine
 10
-31.018003
 20
4.784893
 30
0.0
 11
-46.30148
 21
4.784893
 31
0.0
  0
LINE
  5
CB
100
AcDbEntity
  8
LIVELLO_1
 62
     7
100
AcDbLine
 10
-29.923841
 20
-55.051765
 30
0.0
 11
10.722429
 21
-55.051765
 31
0.0
  0
POLYLINE
  5
C5
100
AcDbEntity
  8
LIVELLO_1
 62
     7
100
AcDb2dPolyline
 66
     1
 10
0.0
 20
0.0
 30
0.0
 70
     1
  0
VERTEX
  5
C6
100
AcDbEntity
  8
LIVELLO_1
 62
     7
100
AcDbVertex
100
AcDb2dVertex
 10
11.816591
 20
-5.273752
 30
0.0
  0
VERTEX
  5
C7
100
AcDbEntity
  8
LIVELLO_1
 62
     7
100
AcDbVertex
100
AcDb2dVertex
 10
10.722429
 20
-5.273752
 30
0.0
  0
VERTEX
  5
C8
100
AcDbEntity
  8
LIVELLO_1
 62
     7
100
AcDbVertex
100
AcDb2dVertex
 10
10.722429
 20
-55.051765
 30
0.0
  0
VERTEX
  5
C9
100
AcDbEntity
  8
LIVELLO_1
 62
     7
100
AcDbVertex
100
AcDb2dVertex
 10
11.816591
 20
-55.051765
 30
0.0
  0
SEQEND
  5
CA
100
AcDbEntity
  8
LIVELLO_1
 62
     7
  0
POLYLINE
  5
BF
100
AcDbEntity
  8
LIVELLO_1
 62
     7
100
AcDb2dPolyline
 66
     1
 10
0.0
 20
0.0
 30
0.0
 70
     1
  0
VERTEX
  5
C0
100
AcDbEntity
  8
LIVELLO_1
 62
     7
100
AcDbVertex
100
AcDb2dVertex
 10
-31.018003
 20
-5.273752
 30
0.0
  0
VERTEX
  5
C1
100
AcDbEntity
  8
LIVELLO_1
 62
     7
100
AcDbVertex
100
AcDb2dVertex
 10
-29.923841
 20
-5.273752
 30
0.0
  0
VERTEX
  5
C2
100
AcDbEntity
  8
LIVELLO_1
 62
     7
100
AcDbVertex
100
AcDb2dVertex
 10
-29.923841
 20
-55.051765
 30
0.0
  0
VERTEX
  5
C3
100
AcDbEntity
  8
LIVELLO_1
 62
     7
100
AcDbVertex
100
AcDb2dVertex
 10
-31.018003
 20
-55.051765
 30
0.0
  0
SEQEND
  5
C4
100
AcDbEntity
  8
LIVELLO_1
 62
     7
  0
LINE
  5
BE
100
AcDbEntity
  8
LIVELLO_1
 62
     7
100
AcDbLine
 10
-2.622148
 20
-3.42787
 30
0.0
 11
-5.896884
 21
-3.42787
 31
0.0
  0
LINE
  5
BD
100
AcDbEntity
  8
LIVELLO_1
 62
     7
100
AcDbLine
 10
-16.579264
 20
-3.42787
 30
0.0
 11
-13.304528
 21
-3.42787
 31
0.0
  0
SPLINE
  5
BC
100
AcDbEntity
  8
LIVELLO_1
 62
     7
100
AcDbSpline
210
0.0
220
0.0
230
1.0
 70
     8
 71
     3
 72
    20
 73
    16
 74
     0
 42
0.00000001
 43
0.00000001
 40
0.0
 40
0.0
 40
0.0
 40
0.0
 40
1.0
 40
1.0
 40
1.0
 40
2.0
 40
2.0
 40
2.0
 40
3.0
 40
3.0
 40
3.0
 40
4.0
 40
4.0
 40
4.0
 40
5.0
 40
5.0
 40
5.0
 40
5.0
 10
-6.6451585557725688
 20
-29.246621365017358
 30
0.0
 10
-6.6451585557725688
 20
-29.246621365017358
 30
0.0
 10
-6.6529100206163188
 20
-29.463490125868052
 30
0.0
 10
-6.6529100206163188
 20
-29.463490125868052
 30
0.0
 10
-6.6529100206163188
 20
-30.053462727864581
 30
0.0
 10
-7.1035285101996521
 20
-30.530091688368053
 30
0.0
 10
-7.6936733669704855
 20
-30.530091688368053
 30
0.0
 10
-7.6936733669704855
 20
-30.530091688368053
 30
0.0
 10
-11.51807386610243
 20
-30.530091688368053
 30
0.0
 10
-11.51807386610243
 20
-30.530091688368053
 30
0.0
 10
-12.106323920355901
 20
-30.530091688368053
 30
0.0
 10
-12.559698486328124
 20
-30.053462727864581
 30
0.0
 10
-12.559698486328124
 20
-29.463490125868052
 30
0.0
 10
-12.559698486328124
 20
-29.463490125868052
 30
0.0
 10
-12.559698486328124
 20
-29.201835123697915
 30
0.0
 10
-12.559698486328124
 20
-29.201835123697915
 30
0.0
  0
SPLINE
  5
BB
100
AcDbEntity
  8
LIVELLO_1
 62
     7
100
AcDbSpline
210
0.0
220
0.0
230
1.0
 70
     8
 71
     3
 72
    20
 73
    16
 74
     0
 42
0.00000001
 43
0.00000001
 40
0.0
 40
0.0
 40
0.0
 40
0.0
 40
1.0
 40
1.0
 40
1.0
 40
2.0
 40
2.0
 40
2.0
 40
3.0
 40
3.0
 40
3.0
 40
4.0
 40
4.0
 40
4.0
 40
5.0
 40
5.0
 40
5.0
 40
5.0
 10
-6.6210428873697911
 20
-28.432889811197914
 30
0.0
 10
-6.6210428873697911
 20
-28.432889811197914
 30
0.0
 10
-6.626210530598958
 20
-28.651308865017359
 30
0.0
 10
-6.626210530598958
 20
-28.651308865017359
 30
0.0
 10
-6.626210530598958
 20
-29.24145372178819
 30
0.0
 10
-7.1035285101996521
 20
-29.718082682291666
 30
0.0
 10
-7.6936733669704855
 20
-29.718082682291666
 30
0.0
 10
-7.6936733669704855
 20
-29.718082682291666
 30
0.0
 10
-11.51807386610243
 20
-29.718082682291666
 30
0.0
 10
-11.51807386610243
 20
-29.718082682291666
 30
0.0
 10
-12.106323920355901
 20
-29.718082682291666
 30
0.0
 10
-12.585536702473958
 20
-29.24145372178819
 30
0.0
 10
-12.585536702473958
 20
-28.651308865017359
 30
0.0
 10
-12.585536702473958
 20
-28.651308865017359
 30
0.0
 10
-12.585536702473958
 20
-28.388103569878471
 30
0.0
 10
-12.585536702473958
 20
-28.388103569878471
 30
0.0
  0
LINE
  5
BA
100
AcDbEntity
  8
LIVELLO_1
 62
     7
100
AcDbLine
 10
-17.102229
 20
-46.064544
 30
0.0
 11
-13.422523
 21
-48.065455
 31
0.0
  0
LINE
  5
B9
100
AcDbEntity
  8
LIVELLO_1
 62
     7
100
AcDbLine
 10
-13.422523
 20
-46.064544
 30
0.0
 11
-17.102229
 21
-48.065455
 31
0.0
  0
LINE
  5
B8
100
AcDbEntity
  8
LIVELLO_1
 62
     7
100
AcDbLine
 10
-17.102229
 20
-46.064544
 30
0.0
 11
-20.782969
 21
-48.065455
 31
0.0
  0
LINE
  5
B7
100
AcDbEntity
  8
LIVELLO_1
 62
     7
100
AcDbLine
 10
-20.782969
 20
-46.064544
 30
0.0
 11
-17.102229
 21
-48.065455
 31
0.0
  0
POLYLINE
  5
B1
100
AcDbEntity
  8
LIVELLO_1
 62
     7
100
AcDb2dPolyline
 66
     1
 10
0.0
 20
0.0
 30
0.0
 70
     1
  0
VERTEX
  5
B2
100
AcDbEntity
  8
LIVELLO_1
 62
     7
100
AcDbVertex
100
AcDb2dVertex
 10
-20.782969
 20
-46.064544
 30
0.0
  0
VERTEX
  5
B3
100
AcDbEntity
  8
LIVELLO_1
 62
     7
100
AcDbVertex
100
AcDb2dVertex
 10
-17.102229
 20
-46.064544
 30
0.0
  0
VERTEX
  5
B4
100
AcDbEntity
  8
LIVELLO_1
 62
     7
100
AcDbVertex
100
AcDb2dVertex
 10
-17.102229
 20
-48.065455
 30
0.0
  0
VERTEX
  5
B5
100
AcDbEntity
  8
LIVELLO_1
 62
     7
100
AcDbVertex
100
AcDb2dVertex
 10
-20.782969
 20
-48.065455
 30
0.0
  0
SEQEND
  5
B6
100
AcDbEntity
  8
LIVELLO_1
 62
     7
  0
POLYLINE
  5
AB
100
AcDbEntity
  8
LIVELLO_1
 62
     7
100
AcDb2dPolyline
 66
     1
 10
0.0
 20
0.0
 30
0.0
 70
     1
  0
VERTEX
  5
AC
100
AcDbEntity
  8
LIVELLO_1
 62
     7
100
AcDbVertex
100
AcDb2dVertex
 10
-17.102229
 20
-46.064544
 30
0.0
  0
VERTEX
  5
AD
100
AcDbEntity
  8
LIVELLO_1
 62
     7
100
AcDbVertex
100
AcDb2dVertex
 10
-13.422523
 20
-46.064544
 30
0.0
  0
VERTEX
  5
AE
100
AcDbEntity
  8
LIVELLO_1
 62
     7
100
AcDbVertex
100
AcDb2dVertex
 10
-13.422523
 20
-48.065455
 30
0.0
  0
VERTEX
  5
AF
100
AcDbEntity
  8
LIVELLO_1
 62
     7
100
AcDbVertex
100
AcDb2dVertex
 10
-17.102229
 20
-48.065455
 30
0.0
  0
SEQEND
  5
B0
100
AcDbEntity
  8
LIVELLO_1
 62
     7
  0
SPLINE
  5
AA
100
AcDbEntity
  8
LIVELLO_1
 62
     7
100
AcDbSpline
210
0.0
220
0.0
230
1.0
 70
     8
 71
     3
 72
    23
 73
    19
 74
     0
 42
0.00000001
 43
0.00000001
 40
0.0
 40
0.0
 40
0.0
 40
0.0
 40
1.0
 40
1.0
 40
1.0
 40
2.0
 40
2.0
 40
2.0
 40
3.0
 40
3.0
 40
3.0
 40
4.0
 40
4.0
 40
4.0
 40
5.0
 40
5.0
 40
5.0
 40
6.0
 40
6.0
 40
6.0
 40
6.0
 10
-13.422522650824652
 20
-48.065455457899304
 30
0.0
 10
-13.422522650824652
 20
-48.065455457899304
 30
0.0
 10
-13.422522650824652
 20
-48.506083170572914
 30
0.0
 10
-13.422522650824652
 20
-48.506083170572914
 30
0.0
 10
-13.422522650824652
 20
-49.095883517795137
 30
0.0
 10
-13.89811808268229
 20
-49.574062771267357
 30
0.0
 10
-14.489985487196179
 20
-49.574062771267357
 30
0.0
 10
-14.489985487196179
 20
-49.574062771267357
 30
0.0
 10
-19.715506320529514
 20
-49.574062771267357
 30
0.0
 10
-19.715506320529514
 20
-49.574062771267357
 30
0.0
 10
-20.305478922526039
 20
-49.574062771267357
 30
0.0
 10
-20.782969156901039
 20
-49.095883517795137
 30
0.0
 10
-20.782969156901039
 20
-48.506083170572914
 30
0.0
 10
-20.782969156901039
 20
-48.506083170572914
 30
0.0
 10
-20.782969156901039
 20
-48.065455457899304
 30
0.0
 10
-20.782969156901039
 20
-48.065455457899304
 30
0.0
 10
-20.782969156901039
 20
-48.065455457899304
 30
0.0
 10
-13.422522650824652
 20
-48.065455457899304
 30
0.0
 10
-13.422522650824652
 20
-48.065455457899304
 30
0.0
  0
POLYLINE
  5
A4
100
AcDbEntity
  8
LIVELLO_1
 62
     7
100
AcDb2dPolyline
 66
     1
 10
0.0
 20
0.0
 30
0.0
 70
     1
  0
VERTEX
  5
A5
100
AcDbEntity
  8
LIVELLO_1
 62
     7
100
AcDbVertex
100
AcDb2dVertex
 10
-20.782969
 20
-45.053064
 30
0.0
  0
VERTEX
  5
A6
100
AcDbEntity
  8
LIVELLO_1
 62
     7
100
AcDbVertex
100
AcDb2dVertex
 10
-13.422523
 20
-45.053064
 30
0.0
  0
VERTEX
  5
A7
100
AcDbEntity
  8
LIVELLO_1
 62
     7
100
AcDbVertex
100
AcDb2dVertex
 10
-13.422523
 20
-46.064544
 30
0.0
  0
VERTEX
  5
A8
100
AcDbEntity
  8
LIVELLO_1
 62
     7
100
AcDbVertex
100
AcDb2dVertex
 10
-20.782969
 20
-46.064544
 30
0.0
  0
SEQEND
  5
A9
100
AcDbEntity
  8
LIVELLO_1
 62
     7
  0
LINE
  5
A3
100
AcDbEntity
  8
LIVELLO_1
 62
     7
100
AcDbLine
 10
-14.704787
 20
-42.272872
 30
0.0
 11
-14.704787
 21
-43.950289
 31
0.0
  0
LINE
  5
A2
100
AcDbEntity
  8
LIVELLO_1
 62
     7
100
AcDbLine
 10
-15.270127
 20
-42.272872
 30
0.0
 11
-15.270127
 21
-43.950289
 31
0.0
  0
LINE
  5
A1
100
AcDbEntity
  8
LIVELLO_1
 62
     7
100
AcDbLine
 10
-18.932781
 20
-42.272872
 30
0.0
 11
-18.932781
 21
-43.950289
 31
0.0
  0
LINE
  5
A0
100
AcDbEntity
  8
LIVELLO_1
 62
     7
100
AcDbLine
 10
-19.498638
 20
-42.272872
 30
0.0
 11
-19.498638
 21
-43.950289
 31
0.0
  0
POLYLINE
  5
9A
100
AcDbEntity
  8
LIVELLO_1
 62
     7
100
AcDb2dPolyline
 66
     1
 10
0.0
 20
0.0
 30
0.0
 70
     1
  0
VERTEX
  5
9B
100
AcDbEntity
  8
LIVELLO_1
 62
     7
100
AcDbVertex
100
AcDb2dVertex
 10
-20.458441
 20
-43.950289
 30
0.0
  0
VERTEX
  5
9C
100
AcDbEntity
  8
LIVELLO_1
 62
     7
100
AcDbVertex
100
AcDb2dVertex
 10
-13.746706
 20
-43.950289
 30
0.0
  0
VERTEX
  5
9D
100
AcDbEntity
  8
LIVELLO_1
 62
     7
100
AcDbVertex
100
AcDb2dVertex
 10
-13.746706
 20
-45.053064
 30
0.0
  0
VERTEX
  5
9E
100
AcDbEntity
  8
LIVELLO_1
 62
     7
100
AcDbVertex
100
AcDb2dVertex
 10
-20.458441
 20
-45.053064
 30
0.0
  0
SEQEND
  5
9F
100
AcDbEntity
  8
LIVELLO_1
 62
     7
  0
POLYLINE
  5
94
100
AcDbEntity
  8
LIVELLO_1
 62
     7
100
AcDb2dPolyline
 66
     1
 10
0.0
 20
0.0
 30
0.0
 70
     1
  0
VERTEX
  5
95
100
AcDbEntity
  8
LIVELLO_1
 62
     7
100
AcDbVertex
100
AcDb2dVertex
 10
-21.014996
 20
-42.272872
 30
0.0
  0
VERTEX
  5
96
100
AcDbEntity
  8
LIVELLO_1
 62
     7
100
AcDbVertex
100
AcDb2dVertex
 10
-13.188601
 20
-42.272872
 30
0.0
  0
VERTEX
  5
97
100
AcDbEntity
  8
LIVELLO_1
 62
     7
100
AcDbVertex
100
AcDb2dVertex
 10
-13.188601
 20
-43.950289
 30
0.0
  0
VERTEX
  5
98
100
AcDbEntity
  8
LIVELLO_1
 62
     7
100
AcDbVertex
100
AcDb2dVertex
 10
-21.014996
 20
-43.950289
 30
0.0
  0
SEQEND
  5
99
100
AcDbEntity
  8
LIVELLO_1
 62
     7
  0
SPLINE
  5
93
100
AcDbEntity
  8
LIVELLO_1
 62
     7
100
AcDbSpline
210
0.0
220
0.0
230
1.0
 70
     8
 71
     3
 72
    23
 73
    19
 74
     0
 42
0.00000001
 43
0.00000001
 40
0.0
 40
0.0
 40
0.0
 40
0.0
 40
1.0
 40
1.0
 40
1.0
 40
2.0
 40
2.0
 40
2.0
 40
3.0
 40
3.0
 40
3.0
 40
4.0
 40
4.0
 40
4.0
 40
5.0
 40
5.0
 40
5.0
 40
6.0
 40
6.0
 40
6.0
 40
6.0
 10
0.5699049207899305
 20
-41.024024793836801
 30
0.0
 10
0.5699049207899305
 20
-41.024024793836801
 30
0.0
 10
0.5699049207899305
 20
-41.799860297309024
 30
0.0
 10
0.5699049207899305
 20
-41.799860297309024
 30
0.0
 10
0.5699049207899305
 20
-42.390005154079859
 30
0.0
 10
0.0908643934461806
 20
-42.866461859809021
 30
0.0
 10
-0.4973856608072916
 20
-42.866461859809021
 30
0.0
 10
-0.4973856608072916
 20
-42.866461859809021
 30
0.0
 10
-2.6779588487413193
 20
-42.866461859809021
 30
0.0
 10
-2.6779588487413193
 20
-42.866461859809021
 30
0.0
 10
-3.2681037055121527
 20
-42.866461859809021
 30
0.0
 10
-3.7455939398871525
 20
-42.390005154079859
 30
0.0
 10
-3.7455939398871525
 20
-41.799860297309024
 30
0.0
 10
-3.7455939398871525
 20
-41.799860297309024
 30
0.0
 10
-3.7455939398871525
 20
-41.024024793836801
 30
0.0
 10
-3.7455939398871525
 20
-41.024024793836801
 30
0.0
 10
-3.7455939398871525
 20
-41.024024793836801
 30
0.0
 10
0.5699049207899305
 20
-41.024024793836801
 30
0.0
 10
0.5699049207899305
 20
-41.024024793836801
 30
0.0
  0
LINE
  5
92
100
AcDbEntity
  8
LIVELLO_1
 62
     7
100
AcDbLine
 10
-9.023652
 20
-41.024025
 30
0.0
 11
-9.023652
 21
-42.272872
 31
0.0
  0
LINE
  5
91
100
AcDbEntity
  8
LIVELLO_1
 62
     7
100
AcDbLine
 10
-10.146065
 20
-41.024025
 30
0.0
 11
-10.146065
 21
-42.272872
 31
0.0
  0
LINE
  5
90
100
AcDbEntity
  8
LIVELLO_1
 62
     7
100
AcDbLine
 10
-12.939865
 20
-41.024025
 30
0.0
 11
-12.939865
 21
-42.272872
 31
0.0
  0
POLYLINE
  5
8A
100
AcDbEntity
  8
LIVELLO_1
 62
     7
100
AcDb2dPolyline
 66
     1
 10
0.0
 20
0.0
 30
0.0
 70
     1
  0
VERTEX
  5
8B
100
AcDbEntity
  8
LIVELLO_1
 62
     7
100
AcDbVertex
100
AcDb2dVertex
 10
-21.30938
 20
-41.024025
 30
0.0
  0
VERTEX
  5
8C
100
AcDbEntity
  8
LIVELLO_1
 62
     7
100
AcDbVertex
100
AcDb2dVertex
 10
-3.745594
 20
-41.024025
 30
0.0
  0
VERTEX
  5
8D
100
AcDbEntity
  8
LIVELLO_1
 62
     7
100
AcDbVertex
100
AcDb2dVertex
 10
-3.745594
 20
-42.272872
 30
0.0
  0
VERTEX
  5
8E
100
AcDbEntity
  8
LIVELLO_1
 62
     7
100
AcDbVertex
100
AcDb2dVertex
 10
-21.30938
 20
-42.272872
 30
0.0
  0
SEQEND
  5
8F
100
AcDbEntity
  8
LIVELLO_1
 62
     7
  0
SPLINE
  5
89
100
AcDbEntity
  8
LIVELLO_1
 62
     7
100
AcDbSpline
210
0.0
220
0.0
230
1.0
 70
     8
 71
     3
 72
    20
 73
    16
 74
     0
 42
0.00000001
 43
0.00000001
 40
0.0
 40
0.0
 40
0.0
 40
0.0
 40
1.0
 40
1.0
 40
1.0
 40
2.0
 40
2.0
 40
2.0
 40
3.0
 40
3.0
 40
3.0
 40
4.0
 40
4.0
 40
4.0
 40
5.0
 40
5.0
 40
5.0
 40
5.0
 10
4.0932040744357634
 20
0.9711724175347222
 30
0.0
 10
4.0932040744357634
 20
0.9711724175347222
 30
0.0
 10
-2.6221483018663192
 20
0.9711724175347222
 30
0.0
 10
-2.6221483018663192
 20
0.9711724175347222
 30
0.0
 10
-2.6221483018663192
 20
0.9711724175347222
 30
0.0
 10
-2.6221483018663192
 20
-4.4942993164062495
 30
0.0
 10
-2.6221483018663192
 20
-4.4942993164062495
 30
0.0
 10
-2.6221483018663192
 20
-3.9043267144097218
 30
0.0
 10
-2.1429355197482636
 20
-3.4261474609374996
 30
0.0
 10
-1.5546854654947915
 20
-3.4261474609374996
 30
0.0
 10
-1.5546854654947915
 20
-3.4261474609374996
 30
0.0
 10
3.9908847384982633
 20
-3.4261474609374996
 30
0.0
 10
3.9908847384982633
 20
-3.4261474609374996
 30
0.0
 10
3.9908847384982633
 20
-3.4261474609374996
 30
0.0
 10
4.0932040744357634
 20
0.9711724175347222
 30
0.0
 10
4.0932040744357634
 20
0.9711724175347222
 30
0.0
  0
SPLINE
  5
88
100
AcDbEntity
  8
LIVELLO_1
 62
     7
100
AcDbSpline
210
0.0
220
0.0
230
1.0
 70
     8
 71
     3
 72
    20
 73
    16
 74
     0
 42
0.00000001
 43
0.00000001
 40
0.0
 40
0.0
 40
0.0
 40
0.0
 40
1.0
 40
1.0
 40
1.0
 40
2.0
 40
2.0
 40
2.0
 40
3.0
 40
3.0
 40
3.0
 40
4.0
 40
4.0
 40
4.0
 40
5.0
 40
5.0
 40
5.0
 40
5.0
 10
-23.294616021050345
 20
0.9711724175347222
 30
0.0
 10
-23.294616021050345
 20
0.9711724175347222
 30
0.0
 10
-16.579263644748263
 20
0.9711724175347222
 30
0.0
 10
-16.579263644748263
 20
0.9711724175347222
 30
0.0
 10
-16.579263644748263
 20
0.9711724175347222
 30
0.0
 10
-16.579263644748263
 20
-4.4942993164062495
 30
0.0
 10
-16.579263644748263
 20
-4.4942993164062495
 30
0.0
 10
-16.579263644748263
 20
-3.9043267144097218
 30
0.0
 10
-17.058304172092011
 20
-3.4261474609374996
 30
0.0
 10
-17.646726481119789
 20
-3.4261474609374996
 30
0.0
 10
-17.646726481119789
 20
-3.4261474609374996
 30
0.0
 10
-23.194019232855901
 20
-3.4261474609374996
 30
0.0
 10
-23.194019232855901
 20
-3.4261474609374996
 30
0.0
 10
-23.194019232855901
 20
-3.4261474609374996
 30
0.0
 10
-23.294616021050345
 20
0.9711724175347222
 30
0.0
 10
-23.294616021050345
 20
0.9711724175347222
 30
0.0
  0
SPLINE
  5
87
100
AcDbEntity
  8
LIVELLO_1
 62
     7
100
AcDbSpline
210
0.0
220
0.0
230
1.0
 70
     8
 71
     3
 72
    23
 73
    19
 74
     0
 42
0.00000001
 43
0.00000001
 40
0.0
 40
0.0
 40
0.0
 40
0.0
 40
1.0
 40
1.0
 40
1.0
 40
2.0
 40
2.0
 40
2.0
 40
3.0
 40
3.0
 40
3.0
 40
4.0
 40
4.0
 40
4.0
 40
5.0
 40
5.0
 40
5.0
 40
6.0
 40
6.0
 40
6.0
 40
6.0
 10
-7.5424336751302077
 20
0.9711724175347222
 30
0.0
 10
-7.5424336751302077
 20
0.9711724175347222
 30
0.0
 10
-7.5424336751302077
 20
-2.3595458984374997
 30
0.0
 10
-7.5424336751302077
 20
-2.3595458984374997
 30
0.0
 10
-7.5424336751302077
 20
-2.9479682074652773
 30
0.0
 10
-8.0213019476996514
 20
-3.4278700086805554
 30
0.0
 10
-8.6097242567274304
 20
-3.4278700086805554
 30
0.0
 10
-8.6097242567274304
 20
-3.4278700086805554
 30
0.0
 10
-10.595132785373263
 20
-3.4278700086805554
 30
0.0
 10
-10.595132785373263
 20
-3.4278700086805554
 30
0.0
 10
-11.185105387369791
 20
-3.4278700086805554
 30
0.0
 10
-11.66259562174479
 20
-2.9479682074652773
 30
0.0
 10
-11.66259562174479
 20
-2.3595458984374997
 30
0.0
 10
-11.66259562174479
 20
-2.3595458984374997
 30
0.0
 10
-11.66259562174479
 20
0.9711724175347222
 30
0.0
 10
-11.66259562174479
 20
0.9711724175347222
 30
0.0
 10
-11.66259562174479
 20
0.9711724175347222
 30
0.0
 10
-7.5424336751302077
 20
0.9711724175347222
 30
0.0
 10
-7.5424336751302077
 20
0.9711724175347222
 30
0.0
  0
POLYLINE
  5
81
100
AcDbEntity
  8
LIVELLO_1
 62
     7
100
AcDb2dPolyline
 66
     1
 10
0.0
 20
0.0
 30
0.0
 70
     1
  0
VERTEX
  5
82
100
AcDbEntity
  8
LIVELLO_1
 62
     7
100
AcDbVertex
100
AcDb2dVertex
 10
8.738915
 20
0.971172
 30
0.0
  0
VERTEX
  5
83
100
AcDbEntity
  8
LIVELLO_1
 62
     7
100
AcDbVertex
100
AcDb2dVertex
 10
4.093204
 20
0.971172
 30
0.0
  0
VERTEX
  5
84
100
AcDbEntity
  8
LIVELLO_1
 62
     7
100
AcDbVertex
100
AcDb2dVertex
 10
3.990885
 20
-3.42787
 30
0.0
  0
VERTEX
  5
85
100
AcDbEntity
  8
LIVELLO_1
 62
     7
100
AcDbVertex
100
AcDb2dVertex
 10
8.738915
 20
-3.42787
 30
0.0
  0
SEQEND
  5
86
100
AcDbEntity
  8
LIVELLO_1
 62
     7
  0
POLYLINE
  5
7B
100
AcDbEntity
  8
LIVELLO_1
 62
     7
100
AcDb2dPolyline
 66
     1
 10
0.0
 20
0.0
 30
0.0
 70
     1
  0
VERTEX
  5
7C
100
AcDbEntity
  8
LIVELLO_1
 62
     7
100
AcDbVertex
100
AcDb2dVertex
 10
-27.9405
 20
0.971172
 30
0.0
  0
VERTEX
  5
7D
100
AcDbEntity
  8
LIVELLO_1
 62
     7
100
AcDbVertex
100
AcDb2dVertex
 10
-23.294616
 20
0.971172
 30
0.0
  0
VERTEX
  5
7E
100
AcDbEntity
  8
LIVELLO_1
 62
     7
100
AcDbVertex
100
AcDb2dVertex
 10
-23.194019
 20
-3.42787
 30
0.0
  0
VERTEX
  5
7F
100
AcDbEntity
  8
LIVELLO_1
 62
     7
100
AcDbVertex
100
AcDb2dVertex
 10
-27.9405
 20
-3.42787
 30
0.0
  0
SEQEND
  5
80
100
AcDbEntity
  8
LIVELLO_1
 62
     7
  0
SPLINE
  5
7A
100
AcDbEntity
  8
LIVELLO_1
 62
     7
100
AcDbSpline
210
0.0
220
0.0
230
1.0
 70
     8
 71
     3
 72
    41
 73
    37
 74
     0
 42
0.00000001
 43
0.00000001
 40
0.0
 40
0.0
 40
0.0
 40
0.0
 40
1.0
 40
1.0
 40
1.0
 40
2.0
 40
2.0
 40
2.0
 40
3.0
 40
3.0
 40
3.0
 40
4.0
 40
4.0
 40
4.0
 40
5.0
 40
5.0
 40
5.0
 40
6.0
 40
6.0
 40
6.0
 40
7.0
 40
7.0
 40
7.0
 40
8.0
 40
8.0
 40
8.0
 40
9.0
 40
9.0
 40
9.0
 40
10.0
 40
10.0
 40
10.0
 40
11.0
 40
11.0
 40
11.0
 40
12.0
 40
12.0
 40
12.0
 40
12.0
 10
-5.8796583387586798
 20
-2.1340643988715278
 30
0.0
 10
-5.8796583387586798
 20
-2.1340643988715278
 30
0.0
 10
-6.9469489203559025
 20
-39.957423231336804
 30
0.0
 10
-6.9469489203559025
 20
-39.957423231336804
 30
0.0
 10
-6.9469489203559025
 20
-40.547568088107639
 30
0.0
 10
-7.422716606987847
 20
-41.024024793836801
 30
0.0
 10
-8.0145840115017357
 20
-41.024024793836801
 30
0.0
 10
-8.0145840115017357
 20
-41.024024793836801
 30
0.0
 10
-11.191995578342013
 20
-41.024024793836801
 30
0.0
 10
-11.191995578342013
 20
-41.024024793836801
 30
0.0
 10
-11.782140435112845
 20
-41.024024793836801
 30
0.0
 10
-12.25945841471354
 20
-40.547568088107639
 30
0.0
 10
-12.25945841471354
 20
-39.957423231336804
 30
0.0
 10
-12.25945841471354
 20
-39.957423231336804
 30
0.0
 10
-13.327954779730902
 20
-2.1340643988715278
 30
0.0
 10
-13.327954779730902
 20
-2.1340643988715278
 30
0.0
 10
-13.327954779730902
 20
-2.1340643988715278
 30
0.0
 10
-11.66259562174479
 20
-2.0155531141493053
 30
0.0
 10
-11.66259562174479
 20
-2.0155531141493053
 30
0.0
 10
-11.66259562174479
 20
-2.0155531141493053
 30
0.0
 10
-11.66259562174479
 20
-2.3595458984374997
 30
0.0
 10
-11.66259562174479
 20
-2.3595458984374997
 30
0.0
 10
-11.66259562174479
 20
-2.9479682074652773
 30
0.0
 10
-11.185105387369791
 20
-3.4278700086805554
 30
0.0
 10
-10.595132785373263
 20
-3.4278700086805554
 30
0.0
 10
-10.595132785373263
 20
-3.4278700086805554
 30
0.0
 10
-8.6097242567274304
 20
-3.4278700086805554
 30
0.0
 10
-8.6097242567274304
 20
-3.4278700086805554
 30
0.0
 10
-8.0213019476996514
 20
-3.4278700086805554
 30
0.0
 10
-7.5424336751302077
 20
-2.9479682074652773
 30
0.0
 10
-7.5424336751302077
 20
-2.3595458984374997
 30
0.0
 10
-7.5424336751302077
 20
-2.3595458984374997
 30
0.0
 10
-7.5424336751302077
 20
-2.0155531141493053
 30
0.0
 10
-7.5424336751302077
 20
-2.0155531141493053
 30
0.0
 10
-7.5424336751302077
 20
-2.0155531141493053
 30
0.0
 10
-5.8796583387586798
 20
-2.1340643988715278
 30
0.0
 10
-5.8796583387586798
 20
-2.1340643988715278
 30
0.0
  0
LINE
  5
79
100
AcDbEntity
  8
LIVELLO_1
 62
     7
100
AcDbLine
 10
-0.314279
 20
-38.025414
 30
0.0
 11
-0.951622
 21
-38.025414
 31
0.0
  0
POLYLINE
  5
74
100
AcDbEntity
  8
LIVELLO_1
 62
     7
100
AcDb2dPolyline
 66
     1
 10
0.0
 20
0.0
 30
0.0
  0
VERTEX
  5
75
100
AcDbEntity
  8
LIVELLO_1
 62
     7
100
AcDbVertex
100
AcDb2dVertex
 10
-0.64208
 20
-3.42787
 30
0.0
  0
VERTEX
  5
76
100
AcDbEntity
  8
LIVELLO_1
 62
     7
100
AcDbVertex
100
AcDb2dVertex
 10
-0.951622
 20
-38.025414
 30
0.0
  0
VERTEX
  5
77
100
AcDbEntity
  8
LIVELLO_1
 62
     7
100
AcDbVertex
100
AcDb2dVertex
 10
-1.617558
 20
-38.949388
 30
0.0
  0
SEQEND
  5
78
100
AcDbEntity
  8
LIVELLO_1
 62
     7
  0
POLYLINE
  5
6D
100
AcDbEntity
  8
LIVELLO_1
 62
     7
100
AcDb2dPolyline
 66
     1
 10
0.0
 20
0.0
 30
0.0
  0
VERTEX
  5
6E
100
AcDbEntity
  8
LIVELLO_1
 62
     7
100
AcDbVertex
100
AcDb2dVertex
 10
0.547512
 20
-3.42787
 30
0.0
  0
VERTEX
  5
6F
100
AcDbEntity
  8
LIVELLO_1
 62
     7
100
AcDbVertex
100
AcDb2dVertex
 10
-0.314279
 20
-38.025414
 30
0.0
  0
VERTEX
  5
70
100
AcDbEntity
  8
LIVELLO_1
 62
     7
100
AcDbVertex
100
AcDb2dVertex
 10
-0.961096
 20
-38.949388
 30
0.0
  0
VERTEX
  5
71
100
AcDbEntity
  8
LIVELLO_1
 62
     7
100
AcDbVertex
100
AcDb2dVertex
 10
-1.617558
 20
-38.949388
 30
0.0
  0
VERTEX
  5
72
100
AcDbEntity
  8
LIVELLO_1
 62
     7
100
AcDbVertex
100
AcDb2dVertex
 10
-1.336266
 20
-3.42787
 30
0.0
  0
SEQEND
  5
73
100
AcDbEntity
  8
LIVELLO_1
 62
     7
  0
LINE
  5
6C
100
AcDbEntity
  8
LIVELLO_1
 62
     7
100
AcDbLine
 10
-18.886961
 20
-38.025414
 30
0.0
 11
-18.249618
 21
-38.025414
 31
0.0
  0
POLYLINE
  5
67
100
AcDbEntity
  8
LIVELLO_1
 62
     7
100
AcDb2dPolyline
 66
     1
 10
0.0
 20
0.0
 30
0.0
  0
VERTEX
  5
68
100
AcDbEntity
  8
LIVELLO_1
 62
     7
100
AcDbVertex
100
AcDb2dVertex
 10
-18.561055
 20
-3.42787
 30
0.0
  0
VERTEX
  5
69
100
AcDbEntity
  8
LIVELLO_1
 62
     7
100
AcDbVertex
100
AcDb2dVertex
 10
-18.249618
 20
-38.025414
 30
0.0
  0
VERTEX
  5
6A
100
AcDbEntity
  8
LIVELLO_1
 62
     7
100
AcDbVertex
100
AcDb2dVertex
 10
-17.583853
 20
-38.949388
 30
0.0
  0
SEQEND
  5
6B
100
AcDbEntity
  8
LIVELLO_1
 62
     7
  0
POLYLINE
  5
60
100
AcDbEntity
  8
LIVELLO_1
 62
     7
100
AcDb2dPolyline
 66
     1
 10
0.0
 20
0.0
 30
0.0
  0
VERTEX
  5
61
100
AcDbEntity
  8
LIVELLO_1
 62
     7
100
AcDbVertex
100
AcDb2dVertex
 10
-19.748062
 20
-3.42787
 30
0.0
  0
VERTEX
  5
62
100
AcDbEntity
  8
LIVELLO_1
 62
     7
100
AcDbVertex
100
AcDb2dVertex
 10
-18.886961
 20
-38.025414
 30
0.0
  0
VERTEX
  5
63
100
AcDbEntity
  8
LIVELLO_1
 62
     7
100
AcDbVertex
100
AcDb2dVertex
 10
-18.240144
 20
-38.949388
 30
0.0
  0
VERTEX
  5
64
100
AcDbEntity
  8
LIVELLO_1
 62
     7
100
AcDbVertex
100
AcDb2dVertex
 10
-17.583853
 20
-38.949388
 30
0.0
  0
VERTEX
  5
65
100
AcDbEntity
  8
LIVELLO_1
 62
     7
100
AcDbVertex
100
AcDb2dVertex
 10
-17.865146
 20
-3.42787
 30
0.0
  0
SEQEND
  5
66
100
AcDbEntity
  8
LIVELLO_1
 62
     7
  0
POLYLINE
  5
5B
100
AcDbEntity
  8
LIVELLO_1
 62
     7
100
AcDb2dPolyline
 66
     1
 10
0.0
 20
0.0
 30
0.0
  0
VERTEX
  5
5C
100
AcDbEntity
  8
LIVELLO_1
 62
     7
100
AcDbVertex
100
AcDb2dVertex
 10
7.23272
 20
0.971172
 30
0.0
  0
VERTEX
  5
5D
100
AcDbEntity
  8
LIVELLO_1
 62
     7
100
AcDbVertex
100
AcDb2dVertex
 10
2.995597
 20
-3.42787
 30
0.0
  0
VERTEX
  5
5E
100
AcDbEntity
  8
LIVELLO_1
 62
     7
100
AcDbVertex
100
AcDb2dVertex
 10
2.19065
 20
-39.957423
 30
0.0
  0
SEQEND
  5
5F
100
AcDbEntity
  8
LIVELLO_1
 62
     7
  0
POLYLINE
  5
56
100
AcDbEntity
  8
LIVELLO_1
 62
     7
100
AcDb2dPolyline
 66
     1
 10
0.0
 20
0.0
 30
0.0
  0
VERTEX
  5
57
100
AcDbEntity
  8
LIVELLO_1
 62
     7
100
AcDbVertex
100
AcDb2dVertex
 10
-26.434304
 20
0.971172
 30
0.0
  0
VERTEX
  5
58
100
AcDbEntity
  8
LIVELLO_1
 62
     7
100
AcDbVertex
100
AcDb2dVertex
 10
-22.197009
 20
-3.42787
 30
0.0
  0
VERTEX
  5
59
100
AcDbEntity
  8
LIVELLO_1
 62
     7
100
AcDbVertex
100
AcDb2dVertex
 10
-21.39189
 20
-39.957423
 30
0.0
  0
SEQEND
  5
5A
100
AcDbEntity
  8
LIVELLO_1
 62
     7
  0
POLYLINE
  5
51
100
AcDbEntity
  8
LIVELLO_1
 62
     7
100
AcDb2dPolyline
 66
     1
 10
0.0
 20
0.0
 30
0.0
 70
     1
  0
VERTEX
  5
52
100
AcDbEntity
  8
LIVELLO_1
 62
     7
100
AcDbVertex
100
AcDb2dVertex
 10
4.093204
 20
0.971172
 30
0.0
  0
VERTEX
  5
53
100
AcDbEntity
  8
LIVELLO_1
 62
     7
100
AcDbVertex
100
AcDb2dVertex
 10
3.184043
 20
-37.915343
 30
0.0
  0
VERTEX
  5
54
100
AcDbEntity
  8
LIVELLO_1
 62
     7
100
AcDbVertex
100
AcDb2dVertex
 10
2.243877
 20
-38.809862
 30
0.0
  0
SEQEND
  5
55
100
AcDbEntity
  8
LIVELLO_1
 62
     7
  0
POLYLINE
  5
4C
100
AcDbEntity
  8
LIVELLO_1
 62
     7
100
AcDb2dPolyline
 66
     1
 10
0.0
 20
0.0
 30
0.0
 70
     1
  0
VERTEX
  5
4D
100
AcDbEntity
  8
LIVELLO_1
 62
     7
100
AcDbVertex
100
AcDb2dVertex
 10
-23.294616
 20
0.971172
 30
0.0
  0
VERTEX
  5
4E
100
AcDbEntity
  8
LIVELLO_1
 62
     7
100
AcDbVertex
100
AcDb2dVertex
 10
-21.445117
 20
-38.809862
 30
0.0
  0
VERTEX
  5
4F
100
AcDbEntity
  8
LIVELLO_1
 62
     7
100
AcDbVertex
100
AcDb2dVertex
 10
-22.383733
 20
-37.915343
 30
0.0
  0
SEQEND
  5
50
100
AcDbEntity
  8
LIVELLO_1
 62
     7
  0
SPLINE
  5
4B
100
AcDbEntity
  8
LIVELLO_1
 62
     7
100
AcDbSpline
210
0.0
220
0.0
230
1.0
 70
     8
 71
     3
 72
    23
 73
    19
 74
     0
 42
0.00000001
 43
0.00000001
 40
0.0
 40
0.0
 40
0.0
 40
0.0
 40
1.0
 40
1.0
 40
1.0
 40
2.0
 40
2.0
 40
2.0
 40
3.0
 40
3.0
 40
3.0
 40
4.0
 40
4.0
 40
4.0
 40
5.0
 40
5.0
 40
5.0
 40
6.0
 40
6.0
 40
6.0
 40
6.0
 10
-20.324254692925347
 20
-41.024024793836801
 30
0.0
 10
-20.914571804470484
 20
-41.024024793836801
 30
0.0
 10
-21.391889784071179
 20
-40.547568088107639
 30
0.0
 10
-21.391889784071179
 20
-39.957423231336804
 30
0.0
 10
-21.391889784071179
 20
-39.957423231336804
 30
0.0
 10
-23.294616021050345
 20
0.9711724175347222
 30
0.0
 10
-23.294616021050345
 20
0.9711724175347222
 30
0.0
 10
-23.294616021050345
 20
0.9711724175347222
 30
0.0
 10
4.0932040744357634
 20
0.9711724175347222
 30
0.0
 10
4.0932040744357634
 20
0.9711724175347222
 30
0.0
 10
4.0932040744357634
 20
0.9711724175347222
 30
0.0
 10
2.1906500922309027
 20
-39.957423231336804
 30
0.0
 10
2.1906500922309027
 20
-39.957423231336804
 30
0.0
 10
2.1906500922309027
 20
-40.547568088107639
 30
0.0
 10
1.7131598578559026
 20
-41.024024793836801
 30
0.0
 10
1.1230150010850692
 20
-41.024024793836801
 30
0.0
 10
1.1230150010850692
 20
-41.024024793836801
 30
0.0
 10
-20.324254692925347
 20
-41.024024793836801
 30
0.0
 10
-20.324254692925347
 20
-41.024024793836801
 30
0.0
  0
SPLINE
  5
4A
100
AcDbEntity
  8
LIVELLO_1
 62
     7
100
AcDbSpline
210
0.0
220
0.0
230
1.0
 70
     8
 71
     3
 72
    47
 73
    43
 74
     0
 42
0.00000001
 43
0.00000001
 40
0.0
 40
0.0
 40
0.0
 40
0.0
 40
1.0
 40
1.0
 40
1.0
 40
2.0
 40
2.0
 40
2.0
 40
3.0
 40
3.0
 40
3.0
 40
4.0
 40
4.0
 40
4.0
 40
5.0
 40
5.0
 40
5.0
 40
6.0
 40
6.0
 40
6.0
 40
7.0
 40
7.0
 40
7.0
 40
8.0
 40
8.0
 40
8.0
 40
9.0
 40
9.0
 40
9.0
 40
10.0
 40
10.0
 40
10.0
 40
11.0
 40
11.0
 40
11.0
 40
12.0
 40
12.0
 40
12.0
 40
13.0
 40
13.0
 40
13.0
 40
14.0
 40
14.0
 40
14.0
 40
14.0
 10
8.0920986599392357
 20
-5.2737521701388888
 30
0.0
 10
8.0920986599392357
 20
-5.2737521701388888
 30
0.0
 10
4.7701653374565964
 20
-5.2737521701388888
 30
0.0
 10
4.7701653374565964
 20
-5.2737521701388888
 30
0.0
 10
4.7701653374565964
 20
-5.2737521701388888
 30
0.0
 10
4.7701653374565964
 20
-3.4278700086805554
 30
0.0
 10
4.7701653374565964
 20
-3.4278700086805554
 30
0.0
 10
4.7701653374565964
 20
-3.4278700086805554
 30
0.0
 10
10.722429063585068
 20
-3.4278700086805554
 30
0.0
 10
10.722429063585068
 20
-3.4278700086805554
 30
0.0
 10
10.722429063585068
 20
-3.4278700086805554
 30
0.0
 10
10.722429063585068
 20
6.4605875651041664
 30
0.0
 10
10.722429063585068
 20
6.4605875651041664
 30
0.0
 10
10.722429063585068
 20
6.4605875651041664
 30
0.0
 10
13.273005506727429
 20
6.4605875651041664
 30
0.0
 10
13.273005506727429
 20
6.4605875651041664
 30
0.0
 10
13.273005506727429
 20
6.4605875651041664
 30
0.0
 10
17.039528401692706
 20
5.538507758246527
 30
0.0
 10
17.039528401692706
 20
5.538507758246527
 30
0.0
 10
17.039528401692706
 20
5.538507758246527
 30
0.0
 10
17.039528401692706
 20
4.7848931206597216
 30
0.0
 10
17.039528401692706
 20
4.7848931206597216
 30
0.0
 10
17.039528401692706
 20
4.7848931206597216
 30
0.0
 10
11.816591389973958
 20
4.7848931206597216
 30
0.0
 10
11.816591389973958
 20
4.7848931206597216
 30
0.0
 10
11.816591389973958
 20
4.7848931206597216
 30
0.0
 10
11.816591389973958
 20
-5.2737521701388888
 30
0.0
 10
11.816591389973958
 20
-5.2737521701388888
 30
0.0
 10
11.816591389973958
 20
-5.2737521701388888
 30
0.0
 10
10.722429063585068
 20
-5.2737521701388888
 30
0.0
 10
10.722429063585068
 20
-5.2737521701388888
 30
0.0
 10
10.722429063585068
 20
-5.2737521701388888
 30
0.0
 10
10.722429063585068
 20
-12.113817003038193
 30
0.0
 10
10.722429063585068
 20
-12.113817003038193
 30
0.0
 10
10.722429063585068
 20
-12.113817003038193
 30
0.0
 10
9.1595614963107632
 20
-12.113817003038193
 30
0.0
 10
9.1595614963107632
 20
-12.113817003038193
 30
0.0
 10
9.1595614963107632
 20
-12.113817003038193
 30
0.0
 10
9.1595614963107632
 20
-6.3420762803819439
 30
0.0
 10
9.1595614963107632
 20
-6.3420762803819439
 30
0.0
 10
9.1595614963107632
 20
-5.7536539713541659
 30
0.0
 10
8.6805209689670129
 20
-5.2737521701388888
 30
0.0
 10
8.0920986599392357
 20
-5.2737521701388888
 30
0.0
  0
POLYLINE
  5
3B
100
AcDbEntity
  8
LIVELLO_1
 62
     7
100
AcDb2dPolyline
 66
     1
 10
0.0
 20
0.0
 30
0.0
 70
     1
  0
VERTEX
  5
3C
100
AcDbEntity
  8
LIVELLO_1
 62
     7
100
AcDbVertex
100
AcDb2dVertex
 10
-31.018003
 20
4.784893
 30
0.0
  0
VERTEX
  5
3D
100
AcDbEntity
  8
LIVELLO_1
 62
     7
100
AcDbVertex
100
AcDb2dVertex
 10
-36.24094
 20
4.784893
 30
0.0
  0
VERTEX
  5
3E
100
AcDbEntity
  8
LIVELLO_1
 62
     7
100
AcDbVertex
100
AcDb2dVertex
 10
-36.24094
 20
5.538508
 30
0.0
  0
VERTEX
  5
3F
100
AcDbEntity
  8
LIVELLO_1
 62
     7
100
AcDbVertex
100
AcDb2dVertex
 10
-32.474245
 20
6.460588
 30
0.0
  0
VERTEX
  5
40
100
AcDbEntity
  8
LIVELLO_1
 62
     7
100
AcDbVertex
100
AcDb2dVertex
 10
-29.923841
 20
6.460588
 30
0.0
  0
VERTEX
  5
41
100
AcDbEntity
  8
LIVELLO_1
 62
     7
100
AcDbVertex
100
AcDb2dVertex
 10
-29.923841
 20
-3.42787
 30
0.0
  0
VERTEX
  5
42
100
AcDbEntity
  8
LIVELLO_1
 62
     7
100
AcDbVertex
100
AcDb2dVertex
 10
-23.971405
 20
-3.42787
 30
0.0
  0
VERTEX
  5
43
100
AcDbEntity
  8
LIVELLO_1
 62
     7
100
AcDbVertex
100
AcDb2dVertex
 10
-23.971405
 20
-9.163437
 30
0.0
  0
VERTEX
  5
44
100
AcDbEntity
  8
LIVELLO_1
 62
     7
100
AcDbVertex
100
AcDb2dVertex
 10
-24.772217
 20
-9.965111
 30
0.0
  0
VERTEX
  5
45
100
AcDbEntity
  8
LIVELLO_1
 62
     7
100
AcDbVertex
100
AcDb2dVertex
 10
-26.985691
 20
-9.965111
 30
0.0
  0
VERTEX
  5
46
100
AcDbEntity
  8
LIVELLO_1
 62
     7
100
AcDbVertex
100
AcDb2dVertex
 10
-27.784609
 20
-9.163437
 30
0.0
  0
VERTEX
  5
47
100
AcDbEntity
  8
LIVELLO_1
 62
     7
100
AcDbVertex
100
AcDb2dVertex
 10
-27.784609
 20
-5.273752
 30
0.0
  0
VERTEX
  5
48
100
AcDbEntity
  8
LIVELLO_1
 62
     7
100
AcDbVertex
100
AcDb2dVertex
 10
-31.018003
 20
-5.273752
 30
0.0
  0
SEQEND
  5
49
100
AcDbEntity
  8
LIVELLO_1
 62
     7
  0
SPLINE
  5
3A
100
AcDbEntity
  8
LIVELLO_1
 62
     7
100
AcDbSpline
210
0.0
220
0.0
230
1.0
 70
     8
 71
     3
 72
    29
 73
    25
 74
     0
 42
0.00000001
 43
0.00000001
 40
0.0
 40
0.0
 40
0.0
 40
0.0
 40
1.0
 40
1.0
 40
1.0
 40
2.0
 40
2.0
 40
2.0
 40
3.0
 40
3.0
 40
3.0
 40
4.0
 40
4.0
 40
4.0
 40
5.0
 40
5.0
 40
5.0
 40
6.0
 40
6.0
 40
6.0
 40
7.0
 40
7.0
 40
7.0
 40
8.0
 40
8.0
 40
8.0
 40
8.0
 10
-28.958008490668401
 20
6.4605875651041664
 30
0.0
 10
-28.958008490668401
 20
6.4605875651041664
 30
0.0
 10
9.7565965440538189
 20
6.4605875651041664
 30
0.0
 10
9.7565965440538189
 20
6.4605875651041664
 30
0.0
 10
10.050807698567708
 20
6.4605875651041664
 30
0.0
 10
10.292481146918401
 20
6.219947645399305
 30
0.0
 10
10.292481146918401
 20
5.9255642361111107
 30
0.0
 10
10.292481146918401
 20
5.9255642361111107
 30
0.0
 10
10.292481146918401
 20
1.5043009440104165
 30
0.0
 10
10.292481146918401
 20
1.5043009440104165
 30
0.0
 10
10.292481146918401
 20
1.2102620442708332
 30
0.0
 10
10.050807698567708
 20
0.9711724175347222
 30
0.0
 10
9.7565965440538189
 20
0.9711724175347222
 30
0.0
 10
9.7565965440538189
 20
0.9711724175347222
 30
0.0
 10
-28.958008490668401
 20
0.9711724175347222
 30
0.0
 10
-28.958008490668401
 20
0.9711724175347222
 30
0.0
 10
-29.252047390407984
 20
0.9711724175347222
 30
0.0
 10
-29.492170545789929
 20
1.2102620442708332
 30
0.0
 10
-29.492170545789929
 20
1.5043009440104165
 30
0.0
 10
-29.492170545789929
 20
1.5043009440104165
 30
0.0
 10
-29.492170545789929
 20
5.9255642361111107
 30
0.0
 10
-29.492170545789929
 20
5.9255642361111107
 30
0.0
 10
-29.492170545789929
 20
6.219947645399305
 30
0.0
 10
-29.252047390407984
 20
6.4605875651041664
 30
0.0
 10
-28.958008490668401
 20
6.4605875651041664
 30
0.0
  0
LINE
  5
39
100
AcDbEntity
  8
LIVELLO_1
 62
     7
100
AcDbLine
 10
9.226569
 20
-78.231401
 30
0.0
 11
2.728085
 21
-78.231401
 31
0.0
  0
LINE
  5
38
100
AcDbEntity
  8
LIVELLO_1
 62
     7
100
AcDbLine
 10
-22.209928
 20
-78.231401
 30
0.0
 11
-27.964443
 21
-78.19695
 31
0.0
  0
LINE
  5
37
100
AcDbEntity
  8
LIVELLO_1
 62
     7
100
AcDbLine
 10
9.115809
 20
-82.389286
 30
0.0
 11
9.115809
 21
-74.226477
 31
0.0
  0
LINE
  5
36
100
AcDbEntity
  8
LIVELLO_1
 62
     7
100
AcDbLine
 10
-28.121712
 20
-82.393076
 30
0.0
 11
-28.121712
 21
-74.2282
 31
0.0
  0
MTEXT
  5
35
100
AcDbEntity
  8
LIVELLO_1
 62
     7
100
AcDbMText
 10
39.743397
 20
10.784604
 30
0.0
 40
8.132569
 41
0.0
 71
     1
 72
     2
  1
\fCourier|b0|i0;\H8.1326;\C7;\U+0032
  7
STD
210
0.0
220
0.0
230
1.0
 73
     1
 44
1.0
  0
LINE
  5
34
100
AcDbEntity
  8
LIVELLO_1
 62
     7
100
AcDbLine
 10
31.063479
 20
4.086745
 30
0.0
 11
38.291633
 21
4.086745
 31
0.0
  0
LINE
  5
33
100
AcDbEntity
  8
LIVELLO_1
 62
     7
100
AcDbLine
 10
31.063479
 20
5.908339
 30
0.0
 11
38.291633
 21
5.908339
 31
0.0
  0
LINE
  5
32
100
AcDbEntity
  8
LIVELLO_1
 62
     7
100
AcDbLine
 10
30.503995
 20
4.136526
 30
0.0
 11
38.668527
 21
4.136526
 31
0.0
  0
LINE
  5
31
100
AcDbEntity
  8
LIVELLO_1
 62
     7
100
AcDbLine
 10
34.5854
 20
4.136526
 30
0.0
 11
34.5854
 21
-11.083389
 31
0.0
  0
LINE
  5
30
100
AcDbEntity
  8
LIVELLO_1
 62
     7
100
AcDbLine
 10
34.5854
 20
-24.352346
 30
0.0
 11
34.5854
 21
-45.317992
 31
0.0
  0
LINE
  5
2F
100
AcDbEntity
  8
LIVELLO_1
 62
     7
100
AcDbLine
 10
30.503995
 20
-45.317992
 30
0.0
 11
38.668527
 21
-45.317992
 31
0.0
  0
MTEXT
  5
2E
100
AcDbEntity
  8
LIVELLO_1
 62
     7
100
AcDbMText
 10
26.132169
 20
-13.527091
 30
0.0
 40
8.132569
 41
0.0
 71
     1
 72
     2
  1
\fCourier|b0|i0;\H8.1326;\C7;\U+0031\U+0031\U+0035
  7
STD
210
0.0
220
0.0
230
1.0
 73
     1
 44
1.0
  0
MTEXT
  5
2D
100
AcDbEntity
  8
LIVELLO_1
 62
     7
100
AcDbMText
 10
-17.536828
 20
-74.223666
 30
0.0
 40
6.55366
 41
0.0
 71
     1
 72
     2
  1
\fArial Narrow|b0|i0;\H6.5537;\C7;\U+00D8
  7
STD
210
0.0
220
0.0
230
1.0
 73
     1
 44
1.0
  0
MTEXT
  5
2C
100
AcDbEntity
  8
LIVELLO_1
 62
     7
100
AcDbMText
 10
-9.907147
 20
-74.223666
 30
0.0
 40
6.55366
 41
0.0
 71
     1
 72
     2
  1
\fArial Narrow|b0|i0;\H6.5537;\C7;\U+0038\U+0035
  7
STD
210
0.0
220
0.0
230
1.0
 73
     1
 44
1.0
  0
ENDBLK
  5
122
100
AcDbEntity
  8
LIVELLO_1
100
AcDbBlockEnd
  0
BLOCK
  5
D0
100
AcDbEntity
  8
LIVELLO_1
 62
     7
100
AcDbBlockBegin
  2
AI9-BLK2
 70
     0
 10
0.0
 20
0.0
 30
0.0
  3
AI9-BLK2
  1

  0
SPLINE
  5
FD
100
AcDbEntity
  8
LIVELLO_1
 62
     7
100
AcDbSpline
210
0.0
220
0.0
230
1.0
 70
     8
 71
     3
 72
    17
 73
    13
 74
     0
 42
0.00000001
 43
0.00000001
 40
0.0
 40
0.0
 40
0.0
 40
0.0
 40
1.0
 40
1.0
 40
1.0
 40
2.0
 40
2.0
 40
2.0
 40
3.0
 40
3.0
 40
3.0
 40
4.0
 40
4.0
 40
4.0
 40
4.0
 10
16.389266628689235
 20
-5.7479695638020827
 30
0.0
 10
17.301183403862847
 20
-6.0197875976562498
 30
0.0
 10
17.893912082248264
 20
-6.2933281792534714
 30
0.0
 10
18.850270589192707
 20
-6.2933281792534714
 30
0.0
 10
20.124955919053818
 20
-6.2933281792534714
 30
0.0
 10
21.217395697699651
 20
-5.336969672309027
 30
0.0
 10
21.217395697699651
 20
-4.0622843424479163
 30
0.0
 10
21.217395697699651
 20
-3.651284450954861
 30
0.0
 10
21.173642985026039
 20
-3.4239081488715275
 30
0.0
 10
21.217395697699651
 20
-3.0125637478298608
 30
0.0
 10
19.077474636501734
 20
-3.0125637478298608
 30
0.0
 10
16.570995415581596
 20
-3.6044311523437496
 30
0.0
 10
16.389266628689235
 20
-5.7479695638020827
 30
0.0
  0
SPLINE
  5
FC
100
AcDbEntity
  8
LIVELLO_1
 62
     7
100
AcDbSpline
210
0.0
220
0.0
230
1.0
 70
     8
 71
     3
 72
    20
 73
    16
 74
     0
 42
0.00000001
 43
0.00000001
 40
0.0
 40
0.0
 40
0.0
 40
0.0
 40
1.0
 40
1.0
 40
1.0
 40
2.0
 40
2.0
 40
2.0
 40
3.0
 40
3.0
 40
3.0
 40
4.0
 40
4.0
 40
4.0
 40
5.0
 40
5.0
 40
5.0
 40
5.0
 10
21.906414794921872
 20
8.7352118598090271
 30
0.0
 10
21.906414794921872
 20
8.7352118598090271
 30
0.0
 10
17.842235649956596
 20
8.4582261827256939
 30
0.0
 10
17.842235649956596
 20
8.4582261827256939
 30
0.0
 10
17.924745686848958
 20
7.5225382486979155
 30
0.0
 10
17.967637125651041
 20
7.0546942816840268
 30
0.0
 10
18.048596869574652
 20
6.1186618381076388
 30
0.0
 10
18.381565348307291
 20
2.2980509440104164
 30
0.0
 10
23.317181396484372
 20
2.4940768771701385
 30
0.0
 10
27.16466403537326
 20
2.514402940538194
 30
0.0
 10
26.932464599609371
 20
5.1674709743923604
 30
0.0
 10
25.488280571831595
 20
7.3192776150173602
 30
0.0
 10
22.923062472873262
 20
7.8801391601562489
 30
0.0
 10
22.923062472873262
 20
7.8801391601562489
 30
0.0
 10
21.906414794921872
 20
8.7352118598090271
 30
0.0
 10
21.906414794921872
 20
8.7352118598090271
 30
0.0
  0
SPLINE
  5
FB
100
AcDbEntity
  8
LIVELLO_1
 62
     7
100
AcDbSpline
210
0.0
220
0.0
230
1.0
 70
     8
 71
     3
 72
    17
 73
    13
 74
     0
 42
0.00000001
 43
0.00000001
 40
0.0
 40
0.0
 40
0.0
 40
0.0
 40
1.0
 40
1.0
 40
1.0
 40
2.0
 40
2.0
 40
2.0
 40
3.0
 40
3.0
 40
3.0
 40
4.0
 40
4.0
 40
4.0
 40
4.0
 10
20.489791531032985
 20
14.252532280815972
 30
0.0
 10
18.941393364800344
 20
14.252532280815972
 30
0.0
 10
17.437092420789931
 20
13.204878743489582
 30
0.0
 10
17.437092420789931
 20
11.654930284288193
 30
0.0
 10
17.437092420789931
 20
10.152868652343749
 30
0.0
 10
19.351704237196177
 20
9.7418687608506929
 30
0.0
 10
20.854627143012152
 20
9.7418687608506929
 30
0.0
 10
22.950623236762151
 20
9.7418687608506929
 30
0.0
 10
25.683272976345485
 20
10.199377441406249
 30
0.0
 10
25.683272976345485
 20
12.292961968315971
 30
0.0
 10
25.683272976345485
 20
14.297318522135415
 30
0.0
 10
22.494837103949649
 20
14.114728461371527
 30
0.0
 10
20.489791531032985
 20
14.252532280815972
 30
0.0
  0
POLYLINE
  5
F4
100
AcDbEntity
  8
LIVELLO_1
 62
     7
100
AcDb2dPolyline
 66
     1
 10
0.0
 20
0.0
 30
0.0
 70
     1
  0
VERTEX
  5
F5
100
AcDbEntity
  8
LIVELLO_1
 62
     7
100
AcDbVertex
100
AcDb2dVertex
 10
-7.820797
 20
-5.700083
 30
0.0
  0
VERTEX
  5
F6
100
AcDbEntity
  8
LIVELLO_1
 62
     7
100
AcDbVertex
100
AcDb2dVertex
 10
-9.075157
 20
-6.326401
 30
0.0
  0
VERTEX
  5
F7
100
AcDbEntity
  8
LIVELLO_1
 62
     7
100
AcDbVertex
100
AcDb2dVertex
 10
-9.389005
 20
-7.578349
 30
0.0
  0
VERTEX
  5
F8
100
AcDbEntity
  8
LIVELLO_1
 62
     7
100
AcDbVertex
100
AcDb2dVertex
 10
-7.820797
 20
-8.204667
 30
0.0
  0
VERTEX
  5
F9
100
AcDbEntity
  8
LIVELLO_1
 62
     7
100
AcDbVertex
100
AcDb2dVertex
 10
-7.195685
 20
-6.63956
 30
0.0
  0
SEQEND
  5
FA
100
AcDbEntity
  8
LIVELLO_1
 62
     7
  0
SPLINE
  5
F3
100
AcDbEntity
  8
LIVELLO_1
 62
     7
100
AcDbSpline
210
0.0
220
0.0
230
1.0
 70
     8
 71
     3
 72
    17
 73
    13
 74
     0
 42
0.00000001
 43
0.00000001
 40
0.0
 40
0.0
 40
0.0
 40
0.0
 40
1.0
 40
1.0
 40
1.0
 40
2.0
 40
2.0
 40
2.0
 40
3.0
 40
3.0
 40
3.0
 40
4.0
 40
4.0
 40
4.0
 40
4.0
 10
-13.621821424696179
 20
4.9146009657118048
 30
0.0
 10
-13.621821424696179
 20
4.9146009657118048
 30
0.0
 10
-12.606896294487846
 20
4.8250284830729164
 30
0.0
 10
-12.606896294487846
 20
4.8250284830729164
 30
0.0
 10
-12.606896294487846
 20
4.8250284830729164
 30
0.0
 10
-13.137613254123263
 20
2.3583401150173611
 30
0.0
 10
-13.137613254123263
 20
2.3583401150173611
 30
0.0
 10
-13.798210313585068
 20
2.886128743489583
 30
0.0
 10
-14.714433458116318
 20
3.2010104709201386
 30
0.0
 10
-14.640363905164929
 20
4.0612508138020829
 30
0.0
 10
-14.598161485460068
 20
4.5273722330729163
 30
0.0
 10
-13.811990695529513
 20
4.5377075195312493
 30
0.0
 10
-13.621821424696179
 20
4.9146009657118048
 30
0.0
  0
SPLINE
  5
F2
100
AcDbEntity
  8
LIVELLO_1
 62
     7
100
AcDbSpline
210
0.0
220
0.0
230
1.0
 70
     8
 71
     3
 72
    23
 73
    19
 74
     0
 42
0.00000001
 43
0.00000001
 40
0.0
 40
0.0
 40
0.0
 40
0.0
 40
1.0
 40
1.0
 40
1.0
 40
2.0
 40
2.0
 40
2.0
 40
3.0
 40
3.0
 40
3.0
 40
4.0
 40
4.0
 40
4.0
 40
5.0
 40
5.0
 40
5.0
 40
6.0
 40
6.0
 40
6.0
 40
6.0
 10
14.539078097873263
 20
0.4280531141493055
 30
0.0
 10
14.539078097873263
 20
0.4280531141493055
 30
0.0
 10
14.715466986762152
 20
-1.15496826171875
 30
0.0
 10
14.715466986762152
 20
-1.15496826171875
 30
0.0
 10
13.746878390842012
 20
-1.4629597981770832
 30
0.0
 10
13.101784261067706
 20
-1.6434828016493055
 30
0.0
 10
12.138363308376736
 20
-1.8722371419270831
 30
0.0
 10
12.138363308376736
 20
-1.8722371419270831
 30
0.0
 10
10.917765977647569
 20
-1.4522800021701388
 30
0.0
 10
10.917765977647569
 20
-1.4522800021701388
 30
0.0
 10
10.917765977647569
 20
-1.4522800021701388
 30
0.0
 10
10.402551947699651
 20
-0.1483113606770833
 30
0.0
 10
10.402551947699651
 20
-0.1483113606770833
 30
0.0
 10
10.402551947699651
 20
-0.1483113606770833
 30
0.0
 10
12.044656711154513
 20
0.6495727539062499
 30
0.0
 10
12.044656711154513
 20
0.6495727539062499
 30
0.0
 10
12.044656711154513
 20
0.6495727539062499
 30
0.0
 10
13.078529866536456
 20
0.7925442165798611
 30
0.0
 10
14.539078097873263
 20
0.4280531141493055
 30
0.0
  0
SPLINE
  5
F1
100
AcDbEntity
  8
LIVELLO_1
 62
     7
100
AcDbSpline
210
0.0
220
0.0
230
1.0
 70
     8
 71
     3
 72
    17
 73
    13
 74
     0
 42
0.00000001
 43
0.00000001
 40
0.0
 40
0.0
 40
0.0
 40
0.0
 40
1.0
 40
1.0
 40
1.0
 40
2.0
 40
2.0
 40
2.0
 40
3.0
 40
3.0
 40
3.0
 40
4.0
 40
4.0
 40
4.0
 40
4.0
 10
14.30860120985243
 20
14.240474446614583
 30
0.0
 10
15.231542290581595
 20
13.290661621093749
 30
0.0
 10
15.666830105251735
 20
12.519993760850694
 30
0.0
 10
16.392883978949651
 20
11.405505371093749
 30
0.0
 10
15.393289523654513
 20
10.441912163628471
 30
0.0
 10
14.329271782769096
 20
10.305830891927082
 30
0.0
 10
12.923845079210068
 20
10.429854329427082
 30
0.0
 10
11.789030626085069
 20
10.52803955078125
 30
0.0
 10
10.464563666449651
 20
11.056172688802082
 30
0.0
 10
10.561715359157985
 20
12.191676161024304
 30
0.0
 10
10.681260172526041
 20
13.552144368489582
 30
0.0
 10
12.946927218967012
 20
14.359330240885415
 30
0.0
 10
14.30860120985243
 20
14.240474446614583
 30
0.0
  0
SPLINE
  5
F0
100
AcDbEntity
  8
LIVELLO_1
 62
     7
100
AcDbSpline
210
0.0
220
0.0
230
1.0
 70
     8
 71
     3
 72
    17
 73
    13
 74
     0
 42
0.00000001
 43
0.00000001
 40
0.0
 40
0.0
 40
0.0
 40
0.0
 40
1.0
 40
1.0
 40
1.0
 40
2.0
 40
2.0
 40
2.0
 40
3.0
 40
3.0
 40
3.0
 40
4.0
 40
4.0
 40
4.0
 40
4.0
 10
14.088459608289929
 20
8.8506225585937486
 30
0.0
 10
15.011400689019096
 20
7.8994316948784711
 30
0.0
 10
15.754507785373262
 20
7.9373277452256934
 30
0.0
 10
16.480561659071178
 20
6.8204277886284714
 30
0.0
 10
15.482000732421874
 20
5.8540785047743054
 30
0.0
 10
14.787641737196179
 20
6.6071763780381936
 30
0.0
 10
13.382215033637152
 20
6.7274102105034714
 30
0.0
 10
12.245850287543401
 20
6.8293850368923605
 30
0.0
 10
9.7479838053385404
 20
7.7151190863715273
 30
0.0
 10
9.8459967719184025
 20
8.8506225585937486
 30
0.0
 10
9.9664028591579861
 20
10.211435275607638
 30
0.0
 10
12.726613362630207
 20
8.9691338433159711
 30
0.0
 10
14.088459608289929
 20
8.8506225585937486
 30
0.0
  0
SPLINE
  5
EF
100
AcDbEntity
  8
LIVELLO_1
 62
     7
100
AcDbSpline
210
0.0
220
0.0
230
1.0
 70
     8
 71
     3
 72
    17
 73
    13
 74
     0
 42
0.00000001
 43
0.00000001
 40
0.0
 40
0.0
 40
0.0
 40
0.0
 40
1.0
 40
1.0
 40
1.0
 40
2.0
 40
2.0
 40
2.0
 40
3.0
 40
3.0
 40
3.0
 40
4.0
 40
4.0
 40
4.0
 40
4.0
 10
19.797327338324649
 20
1.8970418294270832
 30
0.0
 10
20.720957438151039
 20
0.9489515516493055
 30
0.0
 10
21.158140055338539
 20
0.17828369140625
 30
0.0
 10
21.883332655164928
 20
-0.9379272460937499
 30
0.0
 10
20.882876925998261
 20
-1.9015204535590275
 30
0.0
 10
19.822304280598956
 20
-2.0372572157118052
 30
0.0
 10
18.414982774522567
 20
-1.9135782877604164
 30
0.0
 10
17.278790283203122
 20
-1.8136705186631943
 30
0.0
 10
15.952428521050345
 20
-1.2872599283854165
 30
0.0
 10
16.052164035373263
 20
-0.1517564561631944
 30
0.0
 10
16.170847574869789
 20
1.2090562608506943
 30
0.0
 10
18.437375895182289
 20
2.0158976236979167
 30
0.0
 10
19.797327338324649
 20
1.8970418294270832
 30
0.0
  0
SPLINE
  5
EE
100
AcDbEntity
  8
LIVELLO_1
 62
     7
100
AcDbSpline
210
0.0
220
0.0
230
1.0
 70
     8
 71
     3
 72
    20
 73
    16
 74
     0
 42
0.00000001
 43
0.00000001
 40
0.0
 40
0.0
 40
0.0
 40
0.0
 40
1.0
 40
1.0
 40
1.0
 40
2.0
 40
2.0
 40
2.0
 40
3.0
 40
3.0
 40
3.0
 40
4.0
 40
4.0
 40
4.0
 40
5.0
 40
5.0
 40
5.0
 40
5.0
 10
16.591493733723958
 20
5.676656087239583
 30
0.0
 10
16.236993408203123
 20
3.4280422634548606
 30
0.0
 10
15.288386366102429
 20
1.5821601019965277
 30
0.0
 10
13.027714708116319
 20
1.7802530924479165
 30
0.0
 10
11.466741943359374
 20
1.9177124023437497
 30
0.0
 10
10.882626003689236
 20
2.4027818467881943
 30
0.0
 10
10.133317735460068
 20
3.7256985134548608
 30
0.0
 10
10.133317735460068
 20
3.7256985134548608
 30
0.0
 10
10.580663384331597
 20
5.2584214952256936
 30
0.0
 10
10.580663384331597
 20
5.2584214952256936
 30
0.0
 10
12.23896009657118
 20
5.3514390733506936
 30
0.0
 10
13.117287190755206
 20
5.5099134657118052
 30
0.0
 10
14.717189534505208
 20
5.8399536132812493
 30
0.0
 10
14.717189534505208
 20
5.8399536132812493
 30
0.0
 10
16.591493733723958
 20
5.676656087239583
 30
0.0
 10
16.591493733723958
 20
5.676656087239583
 30
0.0
  0
SPLINE
  5
ED
100
AcDbEntity
  8
LIVELLO_1
 62
     7
100
AcDbSpline
210
0.0
220
0.0
230
1.0
 70
     8
 71
     3
 72
    23
 73
    19
 74
     0
 42
0.00000001
 43
0.00000001
 40
0.0
 40
0.0
 40
0.0
 40
0.0
 40
1.0
 40
1.0
 40
1.0
 40
2.0
 40
2.0
 40
2.0
 40
3.0
 40
3.0
 40
3.0
 40
4.0
 40
4.0
 40
4.0
 40
5.0
 40
5.0
 40
5.0
 40
6.0
 40
6.0
 40
6.0
 40
6.0
 10
-0.4941128200954861
 20
12.435933430989582
 30
0.0
 10
-0.4941128200954861
 20
12.435933430989582
 30
0.0
 10
0.3316765679253472
 20
11.105782063802081
 30
0.0
 10
0.3316765679253472
 20
11.105782063802081
 30
0.0
 10
-0.7159769694010416
 20
10.805025227864583
 30
0.0
 10
-1.3102559407552081
 20
10.307553439670137
 30
0.0
 10
-2.4018344455295138
 20
10.402293565538194
 30
0.0
 10
-3.4942742241753471
 20
10.498756239149305
 30
0.0
 10
-4.0404941134982639
 20
10.545265028211805
 30
0.0
 10
-5.1312113444010414
 20
10.64310574001736
 30
0.0
 10
-5.1484368218315968
 20
11.348661295572915
 30
0.0
 10
-5.34790785047743
 20
11.761383734809026
 30
0.0
 10
-5.2860683865017357
 20
12.461427137586805
 30
0.0
 10
-5.1294887966579861
 20
14.255977376302083
 30
0.0
 10
-2.756334771050347
 20
14.441668023003471
 30
0.0
 10
-0.9757371690538194
 20
14.128508843315972
 30
0.0
 10
-0.9757371690538194
 20
14.128508843315972
 30
0.0
 10
-0.4941128200954861
 20
12.435933430989582
 30
0.0
 10
-0.4941128200954861
 20
12.435933430989582
 30
0.0
  0
SPLINE
  5
EC
100
AcDbEntity
  8
LIVELLO_1
 62
     7
100
AcDbSpline
210
0.0
220
0.0
230
1.0
 70
     8
 71
     3
 72
    17
 73
    13
 74
     0
 42
0.00000001
 43
0.00000001
 40
0.0
 40
0.0
 40
0.0
 40
0.0
 40
1.0
 40
1.0
 40
1.0
 40
2.0
 40
2.0
 40
2.0
 40
3.0
 40
3.0
 40
3.0
 40
4.0
 40
4.0
 40
4.0
 40
4.0
 10
-17.375597466362844
 20
8.8626803927951379
 30
0.0
 10
-17.474643961588541
 20
7.7271769205729157
 30
0.0
 10
-18.420839436848958
 20
6.8497111002604161
 30
0.0
 10
-19.555309380425346
 20
6.9496188693576384
 30
0.0
 10
-20.14545423719618
 20
7.0009507921006939
 30
0.0
 10
-20.90509779188368
 20
7.2042114257812493
 30
0.0
 10
-20.853421359592012
 20
7.7943562825520827
 30
0.0
 10
-20.705282253689234
 20
9.4734958224826382
 30
0.0
 10
-20.506672498914927
 20
10.452247450086805
 30
0.0
 10
-18.876625569661456
 20
10.765406629774304
 30
0.0
 10
-18.950695122612846
 20
9.9482299804687493
 30
0.0
 10
-17.303422715928818
 20
9.6781344943576375
 30
0.0
 10
-17.375597466362844
 20
8.8626803927951379
 30
0.0
  0
SPLINE
  5
EB
100
AcDbEntity
  8
LIVELLO_1
 62
     7
100
AcDbSpline
210
0.0
220
0.0
230
1.0
 70
     8
 71
     3
 72
    17
 73
    13
 74
     0
 42
0.00000001
 43
0.00000001
 40
0.0
 40
0.0
 40
0.0
 40
0.0
 40
1.0
 40
1.0
 40
1.0
 40
2.0
 40
2.0
 40
2.0
 40
3.0
 40
3.0
 40
3.0
 40
4.0
 40
4.0
 40
4.0
 40
4.0
 10
-22.389589436848958
 20
8.3087090386284714
 30
0.0
 10
-22.486913384331594
 20
7.1732055664062493
 30
0.0
 10
-23.430352783203123
 20
6.2940171983506943
 30
0.0
 10
-24.568440077039927
 20
6.3959920247395825
 30
0.0
 10
-25.156862386067704
 20
6.4456013997395827
 30
0.0
 10
-25.916333685980902
 20
6.6502400716145829
 30
0.0
 10
-25.865690782335069
 20
7.2407294379340268
 30
0.0
 10
-25.71755167643229
 20
8.9195244683159718
 30
0.0
 10
-24.568440077039927
 20
10.055027940538194
 30
0.0
 10
-22.939254421657985
 20
10.369565158420137
 30
0.0
 10
-23.009706624348958
 20
9.5506659613715268
 30
0.0
 10
-22.315692138671874
 20
9.1258856879340264
 30
0.0
 10
-22.389589436848958
 20
8.3087090386284714
 30
0.0
  0
SPLINE
  5
EA
100
AcDbEntity
  8
LIVELLO_1
 62
     7
100
AcDbSpline
210
0.0
220
0.0
230
1.0
 70
     8
 71
     3
 72
    20
 73
    16
 74
     0
 42
0.00000001
 43
0.00000001
 40
0.0
 40
0.0
 40
0.0
 40
0.0
 40
1.0
 40
1.0
 40
1.0
 40
2.0
 40
2.0
 40
2.0
 40
3.0
 40
3.0
 40
3.0
 40
4.0
 40
4.0
 40
4.0
 40
5.0
 40
5.0
 40
5.0
 40
5.0
 10
-24.977889675564235
 20
5.0606730143229166
 30
0.0
 10
-26.020375569661457
 20
5.1519680447048604
 30
0.0
 10
-26.879754638671873
 20
4.2211032443576384
 30
0.0
 10
-26.970016140407985
 20
3.1768948025173609
 30
0.0
 10
-27.045635986328122
 20
2.3135538736979164
 30
0.0
 10
-27.08956095377604
 20
1.8143595377604165
 30
0.0
 10
-27.165180799696177
 20
0.9541191948784722
 30
0.0
 10
-26.393651665581594
 20
0.8855617947048611
 30
0.0
 10
-25.986785888671871
 20
0.8493882921006943
 30
0.0
 10
-25.213534206814234
 20
0.7822089301215277
 30
0.0
 10
-23.761426459418402
 20
0.6568074544270833
 30
0.0
 10
-21.809952121310761
 20
0.4845526801215278
 30
0.0
 10
-21.683517116970485
 20
1.9366604275173609
 30
0.0
 10
-21.528487820095485
 20
3.7067504882812496
 30
0.0
 10
-23.206766086154513
 20
4.9042656792534718
 30
0.0
 10
-24.977889675564235
 20
5.0606730143229166
 30
0.0
  0
SPLINE
  5
E9
100
AcDbEntity
  8
LIVELLO_1
 62
     7
100
AcDbSpline
210
0.0
220
0.0
230
1.0
 70
     8
 71
     3
 72
    17
 73
    13
 74
     0
 42
0.00000001
 43
0.00000001
 40
0.0
 40
0.0
 40
0.0
 40
0.0
 40
1.0
 40
1.0
 40
1.0
 40
2.0
 40
2.0
 40
2.0
 40
3.0
 40
3.0
 40
3.0
 40
4.0
 40
4.0
 40
4.0
 40
4.0
 10
-17.632946099175346
 20
6.426653374565972
 30
0.0
 10
-16.709832763671873
 20
5.4771850585937498
 30
0.0
 10
-16.274544949001733
 20
4.7099622938368055
 30
0.0
 10
-15.549524603949651
 20
3.5930623372395831
 30
0.0
 10
-16.548085530598957
 20
2.628091091579861
 30
0.0
 10
-17.612103271484372
 20
2.4940768771701385
 30
0.0
 10
-19.019424777560761
 20
2.6163777669270831
 30
0.0
 10
-20.152344428168401
 20
2.715941026475694
 30
0.0
 10
-21.480428738064234
 20
3.2423516167534721
 30
0.0
 10
-21.380693223741318
 20
4.3778550889756938
 30
0.0
 10
-21.260114881727429
 20
5.738667805989583
 30
0.0
 10
-18.995481363932289
 20
6.5468872070312498
 30
0.0
 10
-17.632946099175346
 20
6.426653374565972
 30
0.0
  0
SPLINE
  5
E8
100
AcDbEntity
  8
LIVELLO_1
 62
     7
100
AcDbSpline
210
0.0
220
0.0
230
1.0
 70
     8
 71
     3
 72
    14
 73
    10
 74
     0
 42
0.00000001
 43
0.00000001
 40
0.0
 40
0.0
 40
0.0
 40
0.0
 40
1.0
 40
1.0
 40
1.0
 40
2.0
 40
2.0
 40
2.0
 40
3.0
 40
3.0
 40
3.0
 40
3.0
 10
-10.475415717230902
 20
7.6272691514756934
 30
0.0
 10
-10.606157090928818
 20
6.1289971245659718
 30
0.0
 10
-12.179359944661456
 20
5.3979478624131936
 30
0.0
 10
-13.676942952473958
 20
5.5285169813368054
 30
0.0
 10
-15.175387234157984
 20
5.661153157552083
 30
0.0
 10
-16.095744493272569
 20
7.1577026367187493
 30
0.0
 10
-15.963280571831596
 20
8.6580417209201386
 30
0.0
 10
-15.773283555772569
 20
10.834308539496528
 30
0.0
 10
-10.283696153428819
 20
9.8052585177951386
 30
0.0
 10
-10.475415717230902
 20
7.6272691514756934
 30
0.0
  0
SPLINE
  5
E7
100
AcDbEntity
  8
LIVELLO_1
 62
     7
100
AcDbSpline
210
0.0
220
0.0
230
1.0
 70
     8
 71
     3
 72
    20
 73
    16
 74
     0
 42
0.00000001
 43
0.00000001
 40
0.0
 40
0.0
 40
0.0
 40
0.0
 40
1.0
 40
1.0
 40
1.0
 40
2.0
 40
2.0
 40
2.0
 40
3.0
 40
3.0
 40
3.0
 40
4.0
 40
4.0
 40
4.0
 40
5.0
 40
5.0
 40
5.0
 40
5.0
 10
-4.7932474772135416
 20
7.5380411783854155
 30
0.0
 10
-4.8826477050781243
 20
6.5265611436631943
 30
0.0
 10
-5.6944844563802075
 20
6.2030666775173602
 30
0.0
 10
-6.2389817979600686
 20
5.3858900282118052
 30
0.0
 10
-6.2389817979600686
 20
5.3858900282118052
 30
0.0
 10
-10.422878011067708
 20
3.723975965711805
 30
0.0
 10
-10.422878011067708
 20
3.723975965711805
 30
0.0
 10
-10.367928738064235
 20
4.34857177734375
 30
0.0
 10
-9.3468024359809014
 20
6.6812459309895829
 30
0.0
 10
-9.2918531629774304
 20
7.3037746853298602
 30
0.0
 10
-9.1826436360677075
 20
8.5512437608506939
 30
0.0
 10
-8.0867587619357639
 20
9.3994262695312489
 30
0.0
 10
-6.8394619411892359
 20
9.289527723524305
 30
0.0
 10
-5.8271206325954852
 20
9.1999552408854157
 30
0.0
 10
-4.7028137207031246
 20
8.5533108181423607
 30
0.0
 10
-4.7932474772135416
 20
7.5380411783854155
 30
0.0
  0
SPLINE
  5
E6
100
AcDbEntity
  8
LIVELLO_1
 62
     7
100
AcDbSpline
210
0.0
220
0.0
230
1.0
 70
     8
 71
     3
 72
    20
 73
    16
 74
     0
 42
0.00000001
 43
0.00000001
 40
0.0
 40
0.0
 40
0.0
 40
0.0
 40
1.0
 40
1.0
 40
1.0
 40
2.0
 40
2.0
 40
2.0
 40
3.0
 40
3.0
 40
3.0
 40
4.0
 40
4.0
 40
4.0
 40
5.0
 40
5.0
 40
5.0
 40
5.0
 10
-22.305356852213539
 20
-0.4049709743923611
 30
0.0
 10
-20.106869167751736
 20
-1.3027628580729165
 30
0.0
 10
-17.693063015407983
 20
-2.4589369032118054
 30
0.0
 10
-17.904764133029513
 20
-4.8760158962673605
 30
0.0
 10
-17.964019775390625
 20
-5.5760592990451388
 30
0.0
 10
-18.75019056532118
 20
-5.5863945855034718
 30
0.0
 10
-19.261098225911457
 20
-6.013241916232638
 30
0.0
 10
-19.261098225911457
 20
-6.013241916232638
 30
0.0
 10
-23.705615912543401
 20
-5.6242906358506941
 30
0.0
 10
-23.705615912543401
 20
-5.6242906358506941
 30
0.0
 10
-23.702343071831596
 20
-4.6830905490451382
 30
0.0
 10
-23.888894992404513
 20
-4.1156833224826386
 30
0.0
 10
-23.806212700737845
 20
-3.1813734266493054
 30
0.0
 10
-23.697175428602428
 20
-1.9325263129340275
 30
0.0
 10
-22.941149224175344
 20
-1.3699422200520832
 30
0.0
 10
-22.305356852213539
 20
-0.4049709743923611
 30
0.0
  0
SPLINE
  5
E5
100
AcDbEntity
  8
LIVELLO_1
 62
     7
100
AcDbSpline
210
0.0
220
0.0
230
1.0
 70
     8
 71
     3
 72
    23
 73
    19
 74
     0
 42
0.00000001
 43
0.00000001
 40
0.0
 40
0.0
 40
0.0
 40
0.0
 40
1.0
 40
1.0
 40
1.0
 40
2.0
 40
2.0
 40
2.0
 40
3.0
 40
3.0
 40
3.0
 40
4.0
 40
4.0
 40
4.0
 40
5.0
 40
5.0
 40
5.0
 40
6.0
 40
6.0
 40
6.0
 40
6.0
 10
7.6104743109809023
 20
-4.8019463433159721
 30
0.0
 10
8.8689676920572911
 20
-5.6966376410590271
 30
0.0
 10
9.3247538248697914
 20
-6.7577270507812495
 30
0.0
 10
9.8254984537760404
 20
-8.2170694986979154
 30
0.0
 10
9.8254984537760404
 20
-8.2170694986979154
 30
0.0
 10
9.4057135687934021
 20
-9.4380113389756932
 30
0.0
 10
9.4057135687934021
 20
-9.4380113389756932
 30
0.0
 10
8.8594936794704857
 20
-9.3884019639756939
 30
0.0
 10
8.4689921061197904
 20
-9.3556735568576386
 30
0.0
 10
7.9225999620225691
 20
-9.3074422200520832
 30
0.0
 10
6.2065979003906246
 20
-9.1579250759548607
 30
0.0
 10
4.8554314507378464
 20
-7.5459648980034713
 30
0.0
 10
5.0051208496093746
 20
-5.8306518554687496
 30
0.0
 10
5.0738505045572913
 20
-5.0496487087673607
 30
0.0
 10
5.8667392306857638
 20
-4.9638658311631936
 30
0.0
 10
6.3898769802517359
 20
-4.380266655815972
 30
0.0
 10
6.3898769802517359
 20
-4.380266655815972
 30
0.0
 10
7.6104743109809023
 20
-4.8019463433159721
 30
0.0
 10
7.6104743109809023
 20
-4.8019463433159721
 30
0.0
  0
SPLINE
  5
E4
100
AcDbEntity
  8
LIVELLO_1
 62
     7
100
AcDbSpline
210
0.0
220
0.0
230
1.0
 70
     8
 71
     3
 72
    17
 73
    13
 74
     0
 42
0.00000001
 43
0.00000001
 40
0.0
 40
0.0
 40
0.0
 40
0.0
 40
1.0
 40
1.0
 40
1.0
 40
2.0
 40
2.0
 40
2.0
 40
3.0
 40
3.0
 40
3.0
 40
4.0
 40
4.0
 40
4.0
 40
4.0
 10
14.088459608289929
 20
-7.2052449544270827
 30
0.0
 10
12.527142333984374
 20
-7.0695081922743048
 30
0.0
 10
11.123438178168401
 20
-7.2913723415798604
 30
0.0
 10
10.376713731553819
 20
-5.9684556749131943
 30
0.0
 10
10.376713731553819
 20
-5.9684556749131943
 30
0.0
 10
10.942053900824652
 20
-3.449746365017361
 30
0.0
 10
10.942053900824652
 20
-3.449746365017361
 30
0.0
 10
12.599489339192708
 20
-3.3601738823784717
 30
0.0
 10
13.370846218532986
 20
-3.8249172634548607
 30
0.0
 10
14.972643364800346
 20
-3.4928100585937498
 30
0.0
 10
14.972643364800346
 20
-3.4928100585937498
 30
0.0
 10
16.348097737630209
 20
-7.4029934353298605
 30
0.0
 10
14.088459608289929
 20
-7.2052449544270827
 30
0.0
  0
SPLINE
  5
E3
100
AcDbEntity
  8
LIVELLO_1
 62
     7
100
AcDbSpline
210
0.0
220
0.0
230
1.0
 70
     8
 71
     3
 72
    14
 73
    10
 74
     0
 42
0.00000001
 43
0.00000001
 40
0.0
 40
0.0
 40
0.0
 40
0.0
 40
1.0
 40
1.0
 40
1.0
 40
2.0
 40
2.0
 40
2.0
 40
3.0
 40
3.0
 40
3.0
 40
3.0
 10
9.26119181315104
 20
2.3273342556423611
 30
0.0
 10
8.7029140896267361
 20
2.2205362955729164
 30
0.0
 10
8.2710713704427068
 20
1.7854207356770833
 30
0.0
 10
7.647509087456597
 20
1.8405422634548609
 30
0.0
 10
6.0097106933593745
 20
1.9848917643229165
 30
0.0
 10
5.3525587293836798
 20
3.4556030273437495
 30
0.0
 10
4.7796393500434027
 20
4.9990058051215271
 30
0.0
 10
6.7631530761718741
 20
5.217424858940972
 30
0.0
 10
8.3983676486545136
 20
4.13153076171875
 30
0.0
 10
9.26119181315104
 20
2.3273342556423611
 30
0.0
  0
SPLINE
  5
E2
100
AcDbEntity
  8
LIVELLO_1
 62
     7
100
AcDbSpline
210
0.0
220
0.0
230
1.0
 70
     8
 71
     3
 72
    23
 73
    19
 74
     0
 42
0.00000001
 43
0.00000001
 40
0.0
 40
0.0
 40
0.0
 40
0.0
 40
1.0
 40
1.0
 40
1.0
 40
2.0
 40
2.0
 40
2.0
 40
3.0
 40
3.0
 40
3.0
 40
4.0
 40
4.0
 40
4.0
 40
5.0
 40
5.0
 40
5.0
 40
6.0
 40
6.0
 40
6.0
 40
6.0
 10
8.3933722601996514
 20
8.5770819769965279
 30
0.0
 10
8.3398010253906243
 20
7.9542087131076382
 30
0.0
 10
9.2756612141927075
 20
7.8715264214409713
 30
0.0
 10
9.2207119411892347
 20
7.2472751193576386
 30
0.0
 10
9.0692999945746511
 20
5.5319620768229161
 30
0.0
 10
6.4723870171440963
 20
6.3887573242187496
 30
0.0
 10
4.771026611328125
 20
6.6950263129340275
 30
0.0
 10
4.6618170844184021
 20
7.2524427625868046
 30
0.0
 10
4.228424072265625
 20
7.6844577365451379
 30
0.0
 10
4.283373345269097
 20
8.3087090386284714
 30
0.0
 10
4.3391838921440966
 20
8.9315823025173611
 30
0.0
 10
4.8397562662760416
 20
9.2809149848090264
 30
0.0
 10
5.0437059190538189
 20
9.81214870876736
 30
0.0
 10
5.0437059190538189
 20
9.81214870876736
 30
0.0
 10
7.8521477593315963
 20
9.5682359483506936
 30
0.0
 10
7.8521477593315963
 20
9.5682359483506936
 30
0.0
 10
7.8521477593315963
 20
9.5682359483506936
 30
0.0
 10
8.3933722601996514
 20
8.5770819769965279
 30
0.0
 10
8.3933722601996514
 20
8.5770819769965279
 30
0.0
  0
SPLINE
  5
E1
100
AcDbEntity
  8
LIVELLO_1
 62
     7
100
AcDbSpline
210
0.0
220
0.0
230
1.0
 70
     8
 71
     3
 72
    17
 73
    13
 74
     0
 42
0.00000001
 43
0.00000001
 40
0.0
 40
0.0
 40
0.0
 40
0.0
 40
1.0
 40
1.0
 40
1.0
 40
2.0
 40
2.0
 40
2.0
 40
3.0
 40
3.0
 40
3.0
 40
4.0
 40
4.0
 40
4.0
 40
4.0
 10
6.918871392144097
 20
0.5124579535590277
 30
0.0
 10
5.8824144151475686
 20
0.36741943359375
 30
0.0
 10
4.6652621799045138
 20
-0.0763088650173611
 30
0.0
 10
4.5724168565538195
 20
-1.1684041341145832
 30
0.0
 10
4.4873229980468743
 20
-2.1044365776909721
 30
0.0
 10
4.6919616699218745
 20
-3.3791219075520829
 30
0.0
 10
5.62696058485243
 20
-3.4618041992187498
 30
0.0
 10
7.4220275878906241
 20
-3.6199340820312496
 30
0.0
 10
9.4830559624565964
 20
-3.4070271809895831
 30
0.0
 10
9.8726962619357632
 20
-1.633147515190972
 30
0.0
 10
10.153127034505207
 20
-0.2430514865451389
 30
0.0
 10
8.1248270670572911
 20
-0.0639065212673611
 30
0.0
 10
6.918871392144097
 20
0.5124579535590277
 30
0.0
  0
SPLINE
  5
E0
100
AcDbEntity
  8
LIVELLO_1
 62
     7
100
AcDbSpline
210
0.0
220
0.0
230
1.0
 70
     8
 71
     3
 72
    23
 73
    19
 74
     0
 42
0.00000001
 43
0.00000001
 40
0.0
 40
0.0
 40
0.0
 40
0.0
 40
1.0
 40
1.0
 40
1.0
 40
2.0
 40
2.0
 40
2.0
 40
3.0
 40
3.0
 40
3.0
 40
4.0
 40
4.0
 40
4.0
 40
5.0
 40
5.0
 40
5.0
 40
6.0
 40
6.0
 40
6.0
 40
6.0
 10
2.7101704915364579
 20
8.2535875108506929
 30
0.0
 10
2.7101704915364579
 20
8.2535875108506929
 30
0.0
 10
3.2245232476128471
 20
6.9513414171006938
 30
0.0
 10
3.2245232476128471
 20
6.9513414171006938
 30
0.0
 10
1.7519171820746526
 20
6.2940171983506943
 30
0.0
 10
0.6696404351128472
 20
5.6046535915798605
 30
0.0
 10
-0.9662631564670138
 20
5.7469360351562493
 30
0.0
 10
-1.7472663031684026
 20
5.8158379448784716
 30
0.0
 10
-2.8758795844184024
 20
4.8439765082465271
 30
0.0
 10
-3.5580084906684024
 20
5.139910210503472
 30
0.0
 10
-3.5580084906684024
 20
5.139910210503472
 30
0.0
 10
-2.6471252441406246
 20
8.0937350802951382
 30
0.0
 10
-2.6471252441406246
 20
8.0937350802951382
 30
0.0
 10
-1.318868679470486
 20
8.9195244683159718
 30
0.0
 10
-0.0431498209635417
 20
9.1241631401909711
 30
0.0
 10
1.543661159939236
 20
9.2977959526909721
 30
0.0
 10
1.543661159939236
 20
9.2977959526909721
 30
0.0
 10
2.7101704915364579
 20
8.2535875108506929
 30
0.0
 10
2.7101704915364579
 20
8.2535875108506929
 30
0.0
  0
SPLINE
  5
DF
100
AcDbEntity
  8
LIVELLO_1
 62
     7
100
AcDbSpline
210
0.0
220
0.0
230
1.0
 70
     8
 71
     3
 72
    23
 73
    19
 74
     0
 42
0.00000001
 43
0.00000001
 40
0.0
 40
0.0
 40
0.0
 40
0.0
 40
1.0
 40
1.0
 40
1.0
 40
2.0
 40
2.0
 40
2.0
 40
3.0
 40
3.0
 40
3.0
 40
4.0
 40
4.0
 40
4.0
 40
5.0
 40
5.0
 40
5.0
 40
6.0
 40
6.0
 40
6.0
 40
6.0
 10
-14.52598673502604
 20
0.7994344075520833
 30
0.0
 10
-14.52598673502604
 20
0.7994344075520833
 30
0.0
 10
-14.349597846137151
 20
-0.7866875542534721
 30
0.0
 10
-14.349597846137151
 20
-0.7866875542534721
 30
0.0
 10
-15.318186442057291
 20
-1.0946790907118054
 30
0.0
 10
-15.963280571831596
 20
-1.2738240559895833
 30
0.0
 10
-16.924978976779514
 20
-1.5039564344618055
 30
0.0
 10
-16.924978976779514
 20
-1.5039564344618055
 30
0.0
 10
-18.14557630750868
 20
-1.0808987087673609
 30
0.0
 10
-18.14557630750868
 20
-1.0808987087673609
 30
0.0
 10
-18.14557630750868
 20
-1.0808987087673609
 30
0.0
 10
-18.661651611328125
 20
0.2213473849826389
 30
0.0
 10
-18.661651611328125
 20
0.2213473849826389
 30
0.0
 10
-18.661651611328125
 20
0.2213473849826389
 30
0.0
 10
-17.02040812174479
 20
1.0199205186631943
 30
0.0
 10
-17.02040812174479
 20
1.0199205186631943
 30
0.0
 10
-17.02040812174479
 20
1.0199205186631943
 30
0.0
 10
-15.986362711588541
 20
1.1622029622395833
 30
0.0
 10
-14.52598673502604
 20
0.7994344075520833
 30
0.0
  0
SPLINE
  5
DE
100
AcDbEntity
  8
LIVELLO_1
 62
     7
100
AcDbSpline
210
0.0
220
0.0
230
1.0
 70
     8
 71
     3
 72
    20
 73
    16
 74
     0
 42
0.00000001
 43
0.00000001
 40
0.0
 40
0.0
 40
0.0
 40
0.0
 40
1.0
 40
1.0
 40
1.0
 40
2.0
 40
2.0
 40
2.0
 40
3.0
 40
3.0
 40
3.0
 40
4.0
 40
4.0
 40
4.0
 40
5.0
 40
5.0
 40
5.0
 40
5.0
 10
-8.7861131456163193
 20
2.3114868164062496
 30
0.0
 10
-8.7971374511718743
 20
1.2913940429687498
 30
0.0
 10
-8.6174757215711804
 20
0.64647216796875
 30
0.0
 10
-8.3887213812934025
 20
-0.3153984917534722
 30
0.0
 10
-9.6057013617621525
 20
-0.7591267903645833
 30
0.0
 10
-10.13555704752604
 20
-1.4198961046006944
 30
0.0
 10
-11.382853868272569
 20
-1.3113755967881944
 30
0.0
 10
-11.929246012369791
 20
-1.2631442599826388
 30
0.0
 10
-12.318714057074653
 20
-1.2290378146701388
 30
0.0
 10
-12.86407267252604
 20
-1.1808064778645833
 30
0.0
 10
-12.894217258029514
 20
-0.6299357096354166
 30
0.0
 10
-13.744983588324651
 20
-0.4752509223090277
 30
0.0
 10
-13.690723334418401
 20
0.1493448893229167
 30
0.0
 10
-13.505893961588541
 20
2.2532647026909722
 30
0.0
 10
-10.865056016710069
 20
2.808614095052083
 30
0.0
 10
-8.7861131456163193
 20
2.3114868164062496
 30
0.0
  0
SPLINE
  5
DD
100
AcDbEntity
  8
LIVELLO_1
 62
     7
100
AcDbSpline
210
0.0
220
0.0
230
1.0
 70
     8
 71
     3
 72
    20
 73
    16
 74
     0
 42
0.00000001
 43
0.00000001
 40
0.0
 40
0.0
 40
0.0
 40
0.0
 40
1.0
 40
1.0
 40
1.0
 40
2.0
 40
2.0
 40
2.0
 40
3.0
 40
3.0
 40
3.0
 40
4.0
 40
4.0
 40
4.0
 40
5.0
 40
5.0
 40
5.0
 40
5.0
 10
-13.292470296223957
 20
-3.078020562065972
 30
0.0
 10
-13.292470296223957
 20
-3.078020562065972
 30
0.0
 10
-9.2298414442274304
 20
-3.3550062391493052
 30
0.0
 10
-9.2298414442274304
 20
-3.3550062391493052
 30
0.0
 10
-9.313385009765625
 20
-4.2910386827256941
 30
0.0
 10
-9.3519700792100693
 20
-4.7588826497395829
 30
0.0
 10
-9.4344801161024296
 20
-5.6949150933159718
 30
0.0
 10
-9.7691711425781236
 20
-9.5155259874131932
 30
0.0
 10
-14.704098171657984
 20
-9.3198445638020821
 30
0.0
 10
-18.550719536675345
 20
-9.2971069335937493
 30
0.0
 10
-18.318347846137151
 20
-6.6461059570312493
 30
0.0
 10
-16.87433607313368
 20
-4.493954806857638
 30
0.0
 10
-14.309290228949651
 20
-3.9330932617187497
 30
0.0
 10
-14.309290228949651
 20
-3.9330932617187497
 30
0.0
 10
-13.292470296223957
 20
-3.078020562065972
 30
0.0
 10
-13.292470296223957
 20
-3.078020562065972
 30
0.0
  0
POLYLINE
  5
D6
100
AcDbEntity
  8
LIVELLO_1
 62
     7
100
AcDb2dPolyline
 66
     1
 10
0.0
 20
0.0
 30
0.0
 70
     1
  0
VERTEX
  5
D7
100
AcDbEntity
  8
LIVELLO_1
 62
     7
100
AcDbVertex
100
AcDb2dVertex
 10
-6.698385
 20
0.429776
 30
0.0
  0
VERTEX
  5
D8
100
AcDbEntity
  8
LIVELLO_1
 62
     7
100
AcDbVertex
100
AcDb2dVertex
 10
-5.506382
 20
-0.301618
 30
0.0
  0
VERTEX
  5
D9
100
AcDbEntity
  8
LIVELLO_1
 62
     7
100
AcDbVertex
100
AcDb2dVertex
 10
-5.303294
 20
-1.578026
 30
0.0
  0
VERTEX
  5
DA
100
AcDbEntity
  8
LIVELLO_1
 62
     7
100
AcDbVertex
100
AcDb2dVertex
 10
-6.916977
 20
-2.063095
 30
0.0
  0
VERTEX
  5
DB
100
AcDbEntity
  8
LIVELLO_1
 62
     7
100
AcDbVertex
100
AcDb2dVertex
 10
-7.403769
 20
-0.451135
 30
0.0
  0
SEQEND
  5
DC
100
AcDbEntity
  8
LIVELLO_1
 62
     7
  0
SPLINE
  5
D5
100
AcDbEntity
  8
LIVELLO_1
 62
     7
100
AcDbSpline
210
0.0
220
0.0
230
1.0
 70
     8
 71
     3
 72
    23
 73
    19
 74
     0
 42
0.00000001
 43
0.00000001
 40
0.0
 40
0.0
 40
0.0
 40
0.0
 40
1.0
 40
1.0
 40
1.0
 40
2.0
 40
2.0
 40
2.0
 40
3.0
 40
3.0
 40
3.0
 40
4.0
 40
4.0
 40
4.0
 40
5.0
 40
5.0
 40
5.0
 40
6.0
 40
6.0
 40
6.0
 40
6.0
 10
3.4009121365017356
 20
2.9119669596354165
 30
0.0
 10
3.4009121365017356
 20
2.9119669596354165
 30
0.0
 10
4.2265292697482639
 20
1.5821601019965277
 30
0.0
 10
4.2265292697482639
 20
1.5821601019965277
 30
0.0
 10
3.1788757324218748
 20
1.2810587565104166
 30
0.0
 10
2.5870083279079861
 20
0.7822089301215277
 30
0.0
 10
1.4945685492621525
 20
0.8786716037326389
 30
0.0
 10
0.402301025390625
 20
0.9751342773437499
 30
0.0
 10
-0.1439188639322916
 20
1.0230211046006943
 30
0.0
 10
-1.2346360948350694
 20
1.1177612304687499
 30
0.0
 10
-1.2516893174913193
 20
1.8250393337673609
 30
0.0
 10
-1.4530551486545138
 20
2.2360392252604164
 30
0.0
 10
-1.3910434299045138
 20
2.9395277235243054
 30
0.0
 10
-1.2329135470920138
 20
4.7320109049479164
 30
0.0
 10
1.1404127332899305
 20
4.917701551649305
 30
0.0
 10
2.9216993543836804
 20
4.6048868815104163
 30
0.0
 10
2.9216993543836804
 20
4.6048868815104163
 30
0.0
 10
3.4009121365017356
 20
2.9119669596354165
 30
0.0
 10
3.4009121365017356
 20
2.9119669596354165
 30
0.0
  0
SPLINE
  5
D4
100
AcDbEntity
  8
LIVELLO_1
 62
     7
100
AcDbSpline
210
0.0
220
0.0
230
1.0
 70
     8
 71
     3
 72
    26
 73
    22
 74
     0
 42
0.00000001
 43
0.00000001
 40
0.0
 40
0.0
 40
0.0
 40
0.0
 40
1.0
 40
1.0
 40
1.0
 40
2.0
 40
2.0
 40
2.0
 40
3.0
 40
3.0
 40
3.0
 40
4.0
 40
4.0
 40
4.0
 40
5.0
 40
5.0
 40
5.0
 40
6.0
 40
6.0
 40
6.0
 40
7.0
 40
7.0
 40
7.0
 40
7.0
 10
-4.600494384765625
 20
2.6832126193576387
 30
0.0
 10
-4.600494384765625
 20
2.6832126193576387
 30
0.0
 10
-3.0667378743489579
 20
2.2343166775173611
 30
0.0
 10
-3.0667378743489579
 20
2.2343166775173611
 30
0.0
 10
-3.0667378743489579
 20
2.2343166775173611
 30
0.0
 10
-2.8638217502170136
 20
0.9613538953993055
 30
0.0
 10
-2.8638217502170136
 20
0.9613538953993055
 30
0.0
 10
-3.6508538140190967
 20
0.9510186089409721
 30
0.0
 10
-4.1395406087239577
 20
0.7580932617187499
 30
0.0
 10
-4.9196824815538189
 20
0.8249281141493055
 30
0.0
 10
-5.7788892957899298
 20
0.9010647243923611
 30
0.0
 10
-5.9361579047309023
 20
1.7781860351562497
 30
0.0
 10
-6.5280253092447911
 20
2.2239813910590276
 30
0.0
 10
-6.5280253092447911
 20
2.2239813910590276
 30
0.0
 10
-6.4102030436197914
 20
3.5486206054687495
 30
0.0
 10
-6.4102030436197914
 20
3.5486206054687495
 30
0.0
 10
-6.4102030436197914
 20
3.5486206054687495
 30
0.0
 10
-5.1079569498697914
 20
4.0646959092881945
 30
0.0
 10
-5.1079569498697914
 20
4.0646959092881945
 30
0.0
 10
-5.1079569498697914
 20
4.0646959092881945
 30
0.0
 10
-4.600494384765625
 20
2.6832126193576387
 30
0.0
 10
-4.600494384765625
 20
2.6832126193576387
 30
0.0
  0
SPLINE
  5
D3
100
AcDbEntity
  8
LIVELLO_1
 62
     7
100
AcDbSpline
210
0.0
220
0.0
230
1.0
 70
     8
 71
     3
 72
    17
 73
    13
 74
     0
 42
0.00000001
 43
0.00000001
 40
0.0
 40
0.0
 40
0.0
 40
0.0
 40
1.0
 40
1.0
 40
1.0
 40
2.0
 40
2.0
 40
2.0
 40
3.0
 40
3.0
 40
3.0
 40
4.0
 40
4.0
 40
4.0
 40
4.0
 10
0.2911966959635416
 20
-7.4102281358506934
 30
0.0
 10
-0.9610955132378471
 20
-8.2442857530381932
 30
0.0
 10
-1.7946363661024305
 20
-8.7982571072048597
 30
0.0
 10
-3.277577718098958
 20
-8.669410536024305
 30
0.0
 10
-5.1484368218315968
 20
-8.5057685004340264
 30
0.0
 10
-6.571950276692708
 20
-6.809747992621527
 30
0.0
 10
-6.4084804958767352
 20
-4.9376831054687491
 30
0.0
 10
-6.2493170844184025
 20
-3.1438218858506941
 30
0.0
 10
-3.6568827311197913
 20
-1.3268785264756944
 30
0.0
 10
-2.4183709038628471
 20
-2.4589369032118054
 30
0.0
 10
-0.895638699001736
 20
-3.9279256184895828
 30
0.0
 10
-0.7202833387586805
 20
-5.5161146375868046
 30
0.0
 10
0.2911966959635416
 20
-7.4102281358506934
 30
0.0
  0
LINE
  5
D2
100
AcDbEntity
  8
LIVELLO_1
 62
     7
100
AcDbLine
 10
-3.667218
 20
-2.348694
 30
0.0
 11
-2.418371
 21
-2.458937
 31
0.0
  0
SPLINE
  5
D1
100
AcDbEntity
  8
LIVELLO_1
 62
     7
100
AcDbSpline
210
0.0
220
0.0
230
1.0
 70
     8
 71
     3
 72
    14
 73
    10
 74
     0
 42
0.00000001
 43
0.00000001
 40
0.0
 40
0.0
 40
0.0
 40
0.0
 40
1.0
 40
1.0
 40
1.0
 40
2.0
 40
2.0
 40
2.0
 40
3.0
 40
3.0
 40
3.0
 40
3.0
 10
4.1810540093315964
 20
-4.8725708007812498
 30
0.0
 10
3.7138990614149301
 20
-4.8312296549479159
 30
0.0
 10
3.4532775878906246
 20
-5.1237182617187491
 30
0.0
 10
2.9844000922309024
 20
-5.0840996636284714
 30
0.0
 10
0.4107415093315972
 20
-4.8584459092881938
 30
0.0
 10
-0.957650417751736
 20
-2.5381740993923607
 30
0.0
 10
-1.3627936469184025
 20
0.0132636176215278
 30
0.0
 10
1.5488288031684025
 20
0.0718302408854167
 30
0.0
 10
3.4918626573350693
 20
-1.9821356879340275
 30
0.0
 10
4.1810540093315964
 20
-4.8725708007812498
 30
0.0
  0
ENDBLK
  5
FE
100
AcDbEntity
  8
LIVELLO_1
100
AcDbBlockEnd
  0
BLOCK
  5
101
100
AcDbEntity
  8
LIVELLO_1
 62
     7
100
AcDbBlockBegin
  2
AI9-BLK3
 70
     0
 10
0.0
 20
0.0
 30
0.0
  3
AI9-BLK3
  1

  0
INSERT
  5
10F
100
AcDbEntity
  8
LIVELLO_1
 62
     7
100
AcDbBlockReference
  2
AI9-BLK4
 10
0.019379
 20
4.319633
 30
0.0
  0
POLYLINE
  5
108
100
AcDbEntity
  8
LIVELLO_1
 62
     7
100
AcDb2dPolyline
 66
     1
 10
0.0
 20
0.0
 30
0.0
 70
     1
  0
VERTEX
  5
109
100
AcDbEntity
  8
LIVELLO_1
 62
     7
100
AcDbVertex
100
AcDb2dVertex
 10
-21.486974
 20
-38.829671
 30
0.0
  0
VERTEX
  5
10A
100
AcDbEntity
  8
LIVELLO_1
 62
     7
100
AcDbVertex
100
AcDb2dVertex
 10
-36.770452
 20
-38.829671
 30
0.0
  0
VERTEX
  5
10B
100
AcDbEntity
  8
LIVELLO_1
 62
     7
100
AcDbVertex
100
AcDb2dVertex
 10
-36.770452
 20
36.847536
 30
0.0
  0
VERTEX
  5
10C
100
AcDbEntity
  8
LIVELLO_1
 62
     7
100
AcDbVertex
100
AcDb2dVertex
 10
-21.486974
 20
36.847536
 30
0.0
  0
SEQEND
  5
10D
100
AcDbEntity
  8
LIVELLO_1
 62
     7
  0
POLYLINE
  5
102
100
AcDbEntity
  8
LIVELLO_1
 62
     7
100
AcDb2dPolyline
 66
     1
 10
0.0
 20
0.0
 30
0.0
 70
     1
  0
VERTEX
  5
103
100
AcDbEntity
  8
LIVELLO_1
 62
     7
100
AcDbVertex
100
AcDb2dVertex
 10
21.34762
 20
-38.829671
 30
0.0
  0
VERTEX
  5
104
100
AcDbEntity
  8
LIVELLO_1
 62
     7
100
AcDbVertex
100
AcDb2dVertex
 10
36.630925
 20
-38.829671
 30
0.0
  0
VERTEX
  5
105
100
AcDbEntity
  8
LIVELLO_1
 62
     7
100
AcDbVertex
100
AcDb2dVertex
 10
36.630925
 20
36.847536
 30
0.0
  0
VERTEX
  5
106
100
AcDbEntity
  8
LIVELLO_1
 62
     7
100
AcDbVertex
100
AcDb2dVertex
 10
21.34762
 20
36.847536
 30
0.0
  0
SEQEND
  5
107
100
AcDbEntity
  8
LIVELLO_1
 62
     7
  0
ENDBLK
  5
116
100
AcDbEntity
  8
LIVELLO_1
100
AcDbBlockEnd
  0
BLOCK
  5
110
100
AcDbEntity
  8
LIVELLO_1
 62
     7
100
AcDbBlockBegin
  2
AI9-BLK4
 70
     0
 10
0.0
 20
0.0
 30
0.0
  3
AI9-BLK4
  1

  0
INSERT
  5
112
100
AcDbEntity
  8
LIVELLO_1
 62
     7
100
AcDbBlockReference
  2
AI9-BLK5
 10
-0.028422
 20
0.031867
 30
0.0
  0
ENDBLK
  5
115
100
AcDbEntity
  8
LIVELLO_1
100
AcDbBlockEnd
  0
BLOCK
  5
113
100
AcDbEntity
  8
LIVELLO_1
 62
     7
100
AcDbBlockBegin
  2
AI9-BLK5
 70
     0
 10
0.0
 20
0.0
 30
0.0
  3
AI9-BLK5
  1

  0
ENDBLK
  5
114
100
AcDbEntity
  8
LIVELLO_1
100
AcDbBlockEnd
  0
ENDSEC
  0
SECTION
  2
ENTITIES
  0
INSERT
  5
2A
100
AcDbEntity
  8
LIVELLO_1
 62
     7
100
AcDbBlockReference
  2
AI9-BLK1
 10
92.329851
 20
186.186913
 30
0.0
  0
ENDSEC
  0
SECTION
  2
OBJECTS
  0
DICTIONARY
  5
19
100
AcDbDictionary
280
     0
281
     1
  3
ACAD_GROUP
350
1A
  3
ACAD_MLINESTYLE
350
1B
  3
ACAD_LAYOUT
350
1E
  3
ACAD_PLOTSETTINGS
350
22
  3
ACAD_PLOTSTYLENAME
350
1F
  3
ACAD_WIPEOUT_VARS
350
23
  0
DICTIONARY
  5
1A
102
{ACAD_REACTORS
330
19
102
}
100
AcDbDictionary
280
     0
281
     1
  0
DICTIONARY
  5
1B
102
{ACAD_REACTORS
330
19
102
}
100
AcDbDictionary
280
     0
281
     1
  3
Standard
350
1C
  0
MLINESTYLE
  5
1C
102
{ACAD_REACTORS
330
1B
102
}
100
AcDbMlineStyle
  2
Standard
 70
     0
  3

 62
     0
 51
90.0
 52
90.0
 71
     2
 49
0.5
 62
   256
  6
ByLayer
 49
-0.5
 62
   256
  6
ByLayer
  0
ACDBDICTIONARYWDFLT
  5
1F
102
{ACAD_REACTORS
330
19
102
}
100
AcDbDictionary
281
     1
  3
Normal
350
1D
100
AcDbDictionaryWithDefault
340
1D
  0
ACDBPLACEHOLDER
  5
1D
102
{ACAD_REACTORS
330
1F
102
}
  0
LAYOUT
  5
20
102
{ACAD_REACTORS
330
1E
102
}
100
AcDbPlotSettings
  1

  2

  4

  6

 40
0.0
 41
0.0
 42
0.0
 43
0.0
 44
0.0
 45
0.0
 46
0.0
 47
0.0
 48
0.0
 49
0.0
140
0.0
141
0.0
142
1.0
143
1.0
 70
  1024
 72
     0
 73
     0
 74
     0
  7

 75
     0
147
1.0
148
0.0
149
0.0
100
AcDbLayout
  1
Model
 70
     0
 71
     0
 10
0.0
 20
0.0
 11
0.0
 21
0.0
 12
0.0
 22
0.0
 32
0.0
 14
0.0
 24
0.0
 34
0.0
 15
0.0
 25
0.0
 35
0.0
146
0.0
 13
0.0
 23
0.0
 33
0.0
 16
0.0
 26
0.0
 36
0.0
 17
0.0
 27
0.0
 37
0.0
 76
     0
330
A
331
0
345
0
346
0
  0
LAYOUT
  5
21
102
{ACAD_REACTORS
330
1E
102
}
100
AcDbPlotSettings
  1

  2

  4

  6

 40
0.0
 41
0.0
 42
0.0
 43
0.0
 44
0.0
 45
0.0
 46
0.0
 47
0.0
 48
0.0
 49
0.0
140
0.0
141
0.0
142
1.0
143
1.0
 70
     0
 72
     0
 73
     0
 74
     0
  7

 75
     0
147
1.0
148
0.0
149
0.0
100
AcDbLayout
  1
Layout1
 70
     0
 71
     0
 10
0.0
 20
0.0
 11
0.0
 21
0.0
 12
0.0
 22
0.0
 32
0.0
 14
0.0
 24
0.0
 34
0.0
 15
0.0
 25
0.0
 35
0.0
146
0.0
 13
0.0
 23
0.0
 33
0.0
 16
0.0
 26
0.0
 36
0.0
 17
0.0
 27
0.0
 37
0.0
 76
     0
330
B
331
0
345
0
346
0
  0
DICTIONARY
  5
1E
102
{ACAD_REACTORS
330
19
102
}
100
AcDbDictionary
280
     0
281
     1
  3
Layout1
350
21
  3
Model
350
20
  0
DICTIONARY
  5
22
102
{ACAD_REACTORS
330
19
102
}
100
AcDbDictionary
280
     0
281
     1
  0
WIPEOUTVARIABLES
  5
23
100
AcDbWipeoutVariables
 70
     1
  0
ENDSEC
  0
EOF
