  0
SECTION
  2
HEADER
  9
$ACADVER
  1
AC1015
  9
$ACADMAINTVER
 70
     6
  9
$DWGCODEPAGE
  3
ANSI_932
  9
$INSBASE
 10
0.0
 20
0.0
 30
0.0
  9
$EXTMIN
 10
22.677858
 20
46.745467
 30
1.000000E+20
  9
$EXTMAX
 10
160.177648
 20
269.722555
 30
-1.000000E+20
  9
$LIMMIN
 10
22.677858
 20
46.745467
  9
$LIMMAX
 10
160.177648
 20
269.722555
  9
$ORTHOMODE
 70
     0
  9
$REGENMODE
 70
     1
  9
$FILLMODE
 70
     1
  9
$QTEXTMODE
 70
     0
  9
$MIRRTEXT
 70
     1
  9
$LTSCALE
 40
1.0
  9
$ATTMODE
 70
     1
  9
$TEXTSIZE
 40
0.2
  9
$TRACEWID
 40
0.05
  9
$TEXTSTYLE
  7
Standard
  9
$CLAYER
  8
0
  9
$CELTYPE
  6
Continuous
  9
$CECOLOR
 62
   256
  9
$CELTSCALE
 40
1.0
  9
$DISPSILH
 70
     0
  9
$DIMSCALE
 40
1.0
  9
$DIMASZ
 40
0.18
  9
$DIMEXO
 40
0.0625
  9
$DIMDLI
 40
0.38
  9
$DIMRND
 40
0.0
  9
$DIMDLE
 40
0.0
  9
$DIMEXE
 40
0.18
  9
$DIMTP
 40
0.0
  9
$DIMTM
 40
0.0
  9
$DIMTXT
 40
0.18
  9
$DIMCEN
 40
0.09
  9
$DIMTSZ
 40
0.0
  9
$DIMTOL
 70
     0
  9
$DIMLIM
 70
     0
  9
$DIMTIH
 70
     1
  9
$DIMTOH
 70
     1
  9
$DIMSE1
 70
     0
  9
$DIMSE2
 70
     0
  9
$DIMTAD
 70
     0
  9
$DIMZIN
 70
     0
  9
$DIMBLK
  1

  9
$DIMASO
 70
     1
  9
$DIMSHO
 70
     1
  9
$DIMPOST
  1

  9
$DIMAPOST
  1

  9
$DIMALT
 70
     0
  9
$DIMALTD
 70
     2
  9
$DIMALTF
 40
25.4
  9
$DIMLFAC
 40
1.0
  9
$DIMTOFL
 70
     0
  9
$DIMTVP
 40
0.0
  9
$DIMTIX
 70
     0
  9
$DIMSOXD
 70
     0
  9
$DIMSAH
 70
     0
  9
$DIMBLK1
  1

  9
$DIMBLK2
  1

  9
$DIMSTYLE
  2
Standard
  9
$DIMCLRD
 70
     0
  9
$DIMCLRE
 70
     0
  9
$DIMCLRT
 70
     0
  9
$DIMTFAC
 40
1.0
  9
$DIMGAP
 40
0.09
  9
$DIMJUST
 70
     0
  9
$DIMSD1
 70
     0
  9
$DIMSD2
 70
     0
  9
$DIMTOLJ
 70
     1
  9
$DIMTZIN
 70
     0
  9
$DIMALTZ
 70
     0
  9
$DIMALTTZ
 70
     0
  9
$DIMUPT
 70
     0
  9
$DIMDEC
 70
     4
  9
$DIMTDEC
 70
     4
  9
$DIMALTU
 70
     2
  9
$DIMALTTD
 70
     2
  9
$DIMTXSTY
  7
Standard
  9
$DIMAUNIT
 70
     0
  9
$DIMADEC
 70
     0
  9
$DIMALTRND
 40
0.0
  9
$DIMAZIN
 70
     0
  9
$DIMDSEP
 70
     0
  9
$DIMATFIT
 70
     3
  9
$DIMFRAC
 70
     0
  9
$DIMLDRBLK
  1

  9
$DIMLUNIT
 70
     2
  9
$DIMLWD
 70
     0
  9
$DIMLWE
 70
     0
  9
$DIMTMOVE
 70
     0
  9
$LUNITS
 70
     2
  9
$LUPREC
 70
     4
  9
$SKETCHINC
 40
0.1
  9
$FILLETRAD
 40
0.0
  9
$AUNITS
 70
     0
  9
$AUPREC
 70
     0
  9
$MENU
  1
acad
  9
$ELEVATION
 40
0.0
  9
$PELEVATION
 40
0.0
  9
$THICKNESS
 40
0.0
  9
$LIMCHECK
 70
     0
  9
$CHAMFERA
 40
0.0
  9
$CHAMFERB
 40
0.0
  9
$CHAMFERC
 40
0.0
  9
$CHAMFERD
 40
0.0
  9
$SKPOLY
 70
     0
  9
$TDCREATE
 40
0.000000000
  9
$TDUCREATE
 40
0.000000000
  9
$TDUPDATE
 40
0.000000000
  9
$TDUUPDATE
 40
0.000000000
  9
$TDINDWG
 40
0.0000000000
  9
$TDUSRTIMER
 40
0.0000000000
  9
$USRTIMER
 70
     1
  9
$ANGBASE
 50
0.0
  9
$ANGDIR
 70
     0
  9
$PDMODE
 70
     0
  9
$PDSIZE
 40
0.0
  9
$PLINEWID
 40
0.0
  9
$SPLFRAME
 70
     0
  9
$SPLINETYPE
 70
     6
  9
$SPLINESEGS
 70
     8
  9
$HANDSEED
  5
138
  9
$SURFTAB1
 70
     6
  9
$SURFTAB2
 70
     6
  9
$SURFTYPE
 70
     6
  9
$SURFU
 70
     6
  9
$SURFV
 70
     6
  9
$UCSBASE
  2

  9
$UCSNAME
  2

  9
$UCSORG
 10
0.0
 20
0.0
 30
0.0
  9
$UCSXDIR
 10
1.0
 20
0.0
 30
0.0
  9
$UCSYDIR
 10
0.0
 20
1.0
 30
0.0
  9
$UCSORTHOREF
  2

  9
$UCSORTHOVIEW
 70
     0
  9
$UCSORGTOP
 10
0.0
 20
0.0
 30
0.0
  9
$UCSORGBOTTOM
 10
0.0
 20
0.0
 30
0.0
  9
$UCSORGLEFT
 10
0.0
 20
0.0
 30
0.0
  9
$UCSORGRIGHT
 10
0.0
 20
0.0
 30
0.0
  9
$UCSORGFRONT
 10
0.0
 20
0.0
 30
0.0
  9
$UCSORGBACK
 10
0.0
 20
0.0
 30
0.0
  9
$PUCSBASE
  2

  9
$PUCSNAME
  2

  9
$PUCSORG
 10
0.0
 20
0.0
 30
0.0
  9
$PUCSXDIR
 10
1.0
 20
0.0
 30
0.0
  9
$PUCSYDIR
 10
0.0
 20
1.0
 30
0.0
  9
$PUCSORTHOREF
  2

  9
$PUCSORTHOVIEW
 70
     0
  9
$PUCSORGTOP
 10
0.0
 20
0.0
 30
0.0
  9
$PUCSORGBOTTOM
 10
0.0
 20
0.0
 30
0.0
  9
$PUCSORGLEFT
 10
0.0
 20
0.0
 30
0.0
  9
$PUCSORGRIGHT
 10
0.0
 20
0.0
 30
0.0
  9
$PUCSORGFRONT
 10
0.0
 20
0.0
 30
0.0
  9
$PUCSORGBACK
 10
0.0
 20
0.0
 30
0.0
  9
$USERI1
 70
     0
  9
$USERI2
 70
     0
  9
$USERI3
 70
     0
  9
$USERI4
 70
     0
  9
$USERI5
 70
     0
  9
$USERR1
 40
0.0
  9
$USERR2
 40
0.0
  9
$USERR3
 40
0.0
  9
$USERR4
 40
0.0
  9
$USERR5
 40
0.0
  9
$WORLDVIEW
 70
     1
  9
$SHADEDGE
 70
     3
  9
$SHADEDIF
 70
    70
  9
$TILEMODE
 70
     1
  9
$MAXACTVP
 70
    16
  9
$PINSBASE
 10
0.0
 20
0.0
 30
0.0
  9
$PLIMCHECK
 70
     0
  9
$PEXTMIN
 10
1.000000E+20
 20
1.000000E+20
 30
1.000000E+20
  9
$PEXTMAX
 10
-1.000000E+20
 20
-1.000000E+20
 30
-1.000000E+20
  9
$PLIMMIN
 10
0.0
 20
0.0
  9
$PLIMMAX
 10
12.0
 20
9.0
  9
$UNITMODE
 70
     0
  9
$VISRETAIN
 70
     0
  9
$PLINEGEN
 70
     1
  9
$PSLTSCALE
 70
     0
  9
$TREEDEPTH
 70
  3020
  9
$CMLSTYLE
  2
Standard
  9
$CMLJUST
 70
     0
  9
$CMLSCALE
 40
1.0
  9
$PROXYGRAPHICS
 70
     0
  9
$MEASUREMENT
 70
     1
  9
$CELWEIGHT
370
     0
  9
$ENDCAPS
280
     0
  9
$JOINSTYLE
280
     0
  9
$LWDISPLAY
290
     0
  9
$INSUNITS
 70
     0
  9
$HYPERLINKBASE
  1

  9
$STYLESHEET
  1

  9
$XEDIT
290
     1
  9
$CEPSNTYPE
380
     0
  9
$PSTYLEMODE
290
     1
  9
$FINGERPRINTGUID
  2

  9
$VERSIONGUID
  2

  9
$EXTNAMES
290
     1
  9
$PSVPSCALE
 40
0.0
  0
ENDSEC
  0
SECTION
  2
CLASSES
  0
CLASS
  1
LWPOLYLINE
  2
AcDbPolyline
  3
AutoCAD 2000
 90
    32768
280
     0
281
     1
  0
CLASS
  1
IMAGE
  2
AcDbRasterImage
  3
ISM
 90
    32895
280
     0
281
     1
  0
CLASS
  1
OLE2FRAME
  2
AcDbOle2Frame
  3
AutoCAD 2000
 90
    32768
280
     0
281
     1
  0
CLASS
  1
HATCH
  2
AcDbHatch
  3
AutoCAD 2000
 90
    32768
280
     0
281
     1
  0
CLASS
  1
DICTIONARYVAR
  2
AcDbDictionaryVar
  3
AutoCAD 2000
 90
    32768
280
     0
281
     0
  0
CLASS
  1
RASTERVARIABLES
  2
AcDbRasterVariables
  3
ISM
 90
    32768
280
     0
281
     0
  0
CLASS
  1
IMAGEDEF
  2
AcDbRasterImageDef
  3
ISM
 90
    32768
280
     0
281
     0
  0
CLASS
  1
IMAGEDEF_REACTOR
  2
AcDbRasterImageDefReactor
  3
ISM
 90
    32769
280
     0
281
     0
  0
CLASS
  1
IDBUFFER
  2
AcDbIdBuffer
  3
AutoCAD 2000
 90
    32768
280
     0
281
     0
  0
CLASS
  1
SPATIAL_FILTER
  2
AcDbSpatialFilter
  3
AutoCAD 2000
 90
    32768
280
     0
281
     0
  0
CLASS
  1
XRECORD
  2
AcDbXrecord
  3
AutoCAD 2000
 90
    32768
280
     0
281
     0
  0
CLASS
  1
SORTENTSTABLE
  2
AcDbSortentsTable
  3
AutoCAD 2000
 90
    32768
280
     0
281
     0
  0
CLASS
  1
LAYER_INDEX
  2
AcDbLayerIndex
  3
AutoCAD 2000
 90
    32768
280
     0
281
     0
  0
CLASS
  1
SPATIAL_INDEX
  2
AcDbSpatialIndex
  3
AutoCAD 2000
 90
    32768
280
     0
281
     0
  0
CLASS
  1
OBJECT_PTR
  2
CAseDLPNTableRecord
  3
"ASE-LPNTableRecord"
 90
    32769
280
     0
281
     0
  0
CLASS
  1
LAYOUT
  2
AcDbLayout
  3
AutoCAD 2000
 90
        0
280
     0
281
     0
  0
CLASS
  1
PLOTSETTINGS
  2
AcDbPlotSettings
  3
AutoCAD 2000
 90
    32768
280
     0
281
     0
  0
CLASS
  1
ACDBDICTIONARYWDFLT
  2
AcDbDictionaryWithDefault
  3
AutoCAD 2000
 90
        0
280
     0
281
     0
  0
CLASS
  1
ACDBPLACEHOLDER
  2
AcDbPlaceHolder
  3
AutoCAD 2000
 90
        0
280
     0
281
     0
  0
CLASS
  1
VBA_PROJECT
  2
AcDbVbaProject
  3
acadvba
 90
    32768
280
     0
281
     0
  0
CLASS
  1
WIPEOUT
  2
AcDbWipeout
  3
WipeOut|AutoCAD Express Tool|expresstools@autodesk.com
 90
    32895
280
     0
281
     1
  0
CLASS
  1
WIPEOUTVARIABLES
  2
AcDbWipeoutVariables
  3
WipeOut|AutoCAD Express Tool|expresstools@autodesk.com
 90
        0
280
     0
281
     0
  0
CLASS
  1
RTEXT
  2
RText
  3
RText|AutoCAD Express Tool|expresstools@autodesk.com
 90
    32768
280
     0
281
     1
  0
CLASS
  1
ARCALIGNEDTEXT
  2
AcDbArcAlignedText
  3
ATEXT|AutoCAD Express Tool|expresstools@autodesk.com
 90
    32768
280
     0
281
     1
  0
ENDSEC
  0
SECTION
  2
TABLES
  0
TABLE
  2
VPORT
  5
7
100
AcDbSymbolTable
 70
     1
  0
VPORT
  5
15
100
AcDbSymbolTableRecord
100
AcDbViewportTableRecord
  2
*ACTIVE
 70
     0
 10
0.0
 20
0.0
 11
1.0
 21
1.0
 12
6.591288
 22
4.579184
 13
0.0
 23
0.0
 14
1.0
 24
1.0
 15
0.0
 25
0.0
 16
0.0
 26
0.0
 36
1.0
 17
0.0
 27
0.0
 37
0.0
 40
9.158369
 41
0.688564
 42
50.0
 43
0.0
 44
0.0
 50
0.0
 51
0.0
 71
     0
 72
   100
 73
     1
 74
     1
 75
     0
 76
     0
 77
     0
 78
     0
281
     0
 65
     0
110
0.0
120
0.0
130
0.0
111
1.0
121
0.0
131
0.0
112
0.0
122
1.0
132
0.0
345
0
346
0
 79
     0
146
0.0
  0
ENDTAB
  0
TABLE
  2
LTYPE
  5
4
100
AcDbSymbolTable
 70
     3
  0
LTYPE
  5
11
100
AcDbSymbolTableRecord
100
AcDbLinetypeTableRecord
  2
ByBlock
 70
    64
  3

 72
    65
 73
     0
 40
0.0
  0
LTYPE
  5
12
100
AcDbSymbolTableRecord
100
AcDbLinetypeTableRecord
  2
ByLayer
 70
    64
  3

 72
    65
 73
     0
 40
0.0
  0
LTYPE
  5
13
100
AcDbSymbolTableRecord
100
AcDbLinetypeTableRecord
  2
Continuous
 70
    64
  3
Solid line
 72
    65
 73
     0
 40
0.0
  0
ENDTAB
  0
TABLE
  2
LAYER
  5
2
100
AcDbSymbolTable
 70
     2
  0
LAYER
  5
14
100
AcDbSymbolTableRecord
100
AcDbLayerTableRecord
  2
0
 70
     0
 62
     7
  6
Continuous
290
     1
370
    -3
390
1D
  0
LAYER
  5
28
100
AcDbSymbolTableRecord
100
AcDbLayerTableRecord
  2
LIVELLO_1
 70
     0
 62
   160
  6
Continuous
290
     1
370
    -3
390
1D
  0
ENDTAB
  0
TABLE
  2
STYLE
  5
3
100
AcDbSymbolTable
 70
     5
  0
STYLE
  5
17
100
AcDbSymbolTableRecord
100
AcDbTextStyleTableRecord
  2
Standard
 70
     0
 40
0.0
 41
1.0
 50
0.0
 71
     0
 42
0.0
  3
txt
  4

  0
STYLE
  5
24
100
AcDbSymbolTableRecord
100
AcDbTextStyleTableRecord
  2
STD
 70
     0
 40
0.0
 41
1.0
 50
0.0
 71
     0
 42
0.0
  3
txt
  4

  0
STYLE
  5
25
100
AcDbSymbolTableRecord
100
AcDbTextStyleTableRecord
  2
TATESTD
 70
     4
 40
0.0
 41
1.0
 50
0.0
 71
     0
 42
0.0
  3
txt
  4

  0
STYLE
  5
26
100
AcDbSymbolTableRecord
100
AcDbTextStyleTableRecord
  2
KANJISTD
 70
     0
 40
0.0
 41
1.0
 50
0.0
 71
     0
 42
0.0
  3
txt
  4
extfont
  0
STYLE
  5
27
100
AcDbSymbolTableRecord
100
AcDbTextStyleTableRecord
  2
KANJITATE
 70
     4
 40
0.0
 41
1.0
 50
0.0
 71
     0
 42
0.0
  3
txt
  4
extfont
  0
ENDTAB
  0
TABLE
  2
VIEW
  5
5
100
AcDbSymbolTable
 70
     0
  0
ENDTAB
  0
TABLE
  2
UCS
  5
6
100
AcDbSymbolTable
 70
     0
  0
ENDTAB
  0
TABLE
  2
APPID
  5
8
100
AcDbSymbolTable
 70
     1
  0
APPID
  5
16
100
AcDbSymbolTableRecord
100
AcDbRegAppTableRecord
  2
ACAD
 70
     0
  0
ENDTAB
  0
TABLE
  2
DIMSTYLE
  5
9
100
AcDbSymbolTable
 70
     1
100
AcDbDimStyleTable
 71
     0
  0
DIMSTYLE
105
18
100
AcDbSymbolTableRecord
100
AcDbDimStyleTableRecord
  2
Standard
 70
     0
  3

  4

 40
1.0
 41
0.18
 42
0.0625
 43
0.38
 44
0.18
 45
0.0
 46
0.0
 47
0.0
 48
0.0
 71
     0
 72
     0
 73
     1
 74
     1
 75
     0
 76
     0
 77
     0
 78
     0
 79
     0
140
0.18
141
0.09
142
0.0
143
25.4
144
1.0
145
0.0
146
1.0
147
0.09
148
0.0
170
     0
171
     2
172
     0
173
     0
174
     0
175
     0
176
     0
177
     0
178
     0
179
     0
271
     4
272
     4
273
     2
274
     2
275
     0
276
     0
277
     2
278
    46
279
     0
280
     0
281
     0
282
     0
283
     1
284
     0
285
     0
286
     0
288
     0
340
17
341
0
342
0
343
0
344
0
371
    -2
372
    -2
  0
ENDTAB
  0
TABLE
  2
BLOCK_RECORD
  5
1
100
AcDbSymbolTable
 70
     9
  0
BLOCK_RECORD
  5
A
100
AcDbSymbolTableRecord
100
AcDbBlockTableRecord
  2
*MODEL_SPACE
340
20
  0
BLOCK_RECORD
  5
B
100
AcDbSymbolTableRecord
100
AcDbBlockTableRecord
  2
*PAPER_SPACE
340
21
  0
BLOCK_RECORD
  5
29
100
AcDbSymbolTableRecord
100
AcDbBlockTableRecord
  2
AI9-BLK1
340
0
102
{BLKREFS
331
2A
102
}
  0
BLOCK_RECORD
  5
43
100
AcDbSymbolTableRecord
100
AcDbBlockTableRecord
  2
AI9-BLK2
340
0
102
{BLKREFS
331
44
102
}
  0
BLOCK_RECORD
  5
71
100
AcDbSymbolTableRecord
100
AcDbBlockTableRecord
  2
AI9-BLK3
340
0
102
{BLKREFS
331
72
102
}
  0
BLOCK_RECORD
  5
74
100
AcDbSymbolTableRecord
100
AcDbBlockTableRecord
  2
AI9-BLK4
340
0
102
{BLKREFS
331
75
102
}
  0
BLOCK_RECORD
  5
77
100
AcDbSymbolTableRecord
100
AcDbBlockTableRecord
  2
AI9-BLK5
340
0
102
{BLKREFS
331
78
102
}
  0
BLOCK_RECORD
  5
7D
100
AcDbSymbolTableRecord
100
AcDbBlockTableRecord
  2
AI9-BLK6
340
0
102
{BLKREFS
331
7E
102
}
  0
BLOCK_RECORD
  5
80
100
AcDbSymbolTableRecord
100
AcDbBlockTableRecord
  2
AI9-BLK7
340
0
102
{BLKREFS
331
81
102
}
  0
BLOCK_RECORD
  5
83
100
AcDbSymbolTableRecord
100
AcDbBlockTableRecord
  2
AI9-BLK8
340
0
102
{BLKREFS
331
84
102
}
  0
BLOCK_RECORD
  5
12A
100
AcDbSymbolTableRecord
100
AcDbBlockTableRecord
  2
AI9-BLK9
340
0
102
{BLKREFS
331
12B
102
}
  0
ENDTAB
  0
ENDSEC
  0
SECTION
  2
BLOCKS
  0
BLOCK
  5
D
100
AcDbEntity
  8
0
100
AcDbBlockBegin
  2
*MODEL_SPACE
 70
     0
 10
0.0
 20
0.0
 30
0.0
  3
*MODEL_SPACE
  1

  0
ENDBLK
  5
E
100
AcDbEntity
  8
0
100
AcDbBlockEnd
  0
BLOCK
  5
F
100
AcDbEntity
 67
     1
  8
0
100
AcDbBlockBegin
  2
*PAPER_SPACE
 70
     0
 10
0.0
 20
0.0
 30
0.0
  3
*PAPER_SPACE
  1

  0
ENDBLK
  5
10
100
AcDbEntity
 67
     1
  8
0
100
AcDbBlockEnd
  0
BLOCK
  5
2B
100
AcDbEntity
  8
LIVELLO_1
 62
     7
100
AcDbBlockBegin
  2
AI9-BLK1
 70
     0
 10
0.0
 20
0.0
 30
0.0
  3
AI9-BLK1
  1

  0
LINE
  5
136
100
AcDbEntity
  8
LIVELLO_1
 62
     7
100
AcDbLine
 10
48.438645
 20
-81.693291
 30
0.0
 11
58.233741
 21
-81.693291
 31
0.0
  0
LINE
  5
135
100
AcDbEntity
  8
LIVELLO_1
 62
     7
100
AcDbLine
 10
53.336538
 20
-53.709814
 30
0.0
 11
53.336538
 21
-81.693291
 31
0.0
  0
LINE
  5
134
100
AcDbEntity
  8
LIVELLO_1
 62
     7
100
AcDbLine
 10
53.336538
 20
-13.221674
 30
0.0
 11
53.336538
 21
-37.795884
 31
0.0
  0
LINE
  5
133
100
AcDbEntity
  8
LIVELLO_1
 62
     7
100
AcDbLine
 10
48.438645
 20
-13.221674
 30
0.0
 11
58.233741
 21
-13.221674
 31
0.0
  0
MTEXT
  5
132
100
AcDbEntity
  8
LIVELLO_1
 62
     7
100
AcDbMText
 10
44.195321
 20
-40.594422
 30
0.0
 40
7.711415
 41
0.0
 71
     1
 72
     2
  1
\fCourier|b0|i0;\H7.7114;\C7;\U+0031\U+0031\U+0035
  7
STD
210
0.0
220
0.0
230
1.0
 73
     1
 44
1.0
  0
LINE
  5
131
100
AcDbEntity
  8
LIVELLO_1
 62
     7
100
AcDbLine
 10
48.438645
 20
-11.305167
 30
0.0
 11
58.233741
 21
-11.305167
 31
0.0
  0
MTEXT
  5
130
100
AcDbEntity
  8
LIVELLO_1
 62
     7
100
AcDbMText
 10
62.531498
 20
-8.272192
 30
0.0
 40
7.711415
 41
0.0
 71
     1
 72
     2
  1
\fCourier|b0|i0;\H7.7114;\C7;\U+0033
  7
STD
210
0.0
220
0.0
230
1.0
 73
     1
 44
1.0
  0
LINE
  5
12F
100
AcDbEntity
  8
LIVELLO_1
 62
     7
100
AcDbLine
 10
48.438645
 20
3.245538
 30
0.0
 11
58.233741
 21
3.245538
 31
0.0
  0
MTEXT
  5
12E
100
AcDbEntity
  8
LIVELLO_1
 62
     7
100
AcDbMText
 10
47.665911
 20
0.153823
 30
0.0
 40
7.711415
 41
0.0
 71
     1
 72
     2
  1
\fCourier|b0|i0;\H7.7114;\C7;\U+0032\U+0034
  7
STD
210
0.0
220
0.0
230
1.0
 73
     1
 44
1.0
  0
INSERT
  5
12B
100
AcDbEntity
  8
LIVELLO_1
 62
     7
100
AcDbBlockReference
  2
AI9-BLK9
 10
-4.961713
 20
-81.693291
 30
0.0
  0
LINE
  5
129
100
AcDbEntity
  8
LIVELLO_1
 62
     7
100
AcDbLine
 10
-3.462924
 20
3.198341
 30
0.0
 11
-3.462924
 21
0.151843
 31
0.0
  0
LINE
  5
128
100
AcDbEntity
  8
LIVELLO_1
 62
     7
100
AcDbLine
 10
-6.462913
 20
3.198341
 30
0.0
 11
-6.462913
 21
0.151843
 31
0.0
  0
SPLINE
  5
127
100
AcDbEntity
  8
LIVELLO_1
 62
     7
100
AcDbSpline
210
0.0
220
0.0
230
1.0
 70
     8
 71
     3
 72
    32
 73
    28
 74
     0
 42
0.00000001
 43
0.00000001
 40
0.0
 40
0.0
 40
0.0
 40
0.0
 40
1.0
 40
1.0
 40
1.0
 40
2.0
 40
2.0
 40
2.0
 40
3.0
 40
3.0
 40
3.0
 40
4.0
 40
4.0
 40
4.0
 40
5.0
 40
5.0
 40
5.0
 40
6.0
 40
6.0
 40
6.0
 40
7.0
 40
7.0
 40
7.0
 40
8.0
 40
8.0
 40
8.0
 40
9.0
 40
9.0
 40
9.0
 40
9.0
 10
-4.1367845323350689
 20
-5.5446228027343745
 30
0.0
 10
-2.9769931369357638
 20
-5.898950873480902
 30
0.0
 10
-2.1310499403211804
 20
-6.9784715440538188
 30
0.0
 10
-2.1310499403211804
 20
-8.2538458930121514
 30
0.0
 10
-2.1310499403211804
 20
-8.2538458930121514
 30
0.0
 10
-2.1310499403211804
 20
-11.305166965060764
 30
0.0
 10
-2.1310499403211804
 20
-11.305166965060764
 30
0.0
 10
-2.1310499403211804
 20
-11.305166965060764
 30
0.0
 10
-7.7947869194878461
 20
-11.305166965060764
 30
0.0
 10
-7.7947869194878461
 20
-11.305166965060764
 30
0.0
 10
-7.7947869194878461
 20
-11.305166965060764
 30
0.0
 10
-7.7947869194878461
 20
-8.2538458930121514
 30
0.0
 10
-7.7947869194878461
 20
-8.2538458930121514
 30
0.0
 10
-7.7947869194878461
 20
-6.9784715440538188
 30
0.0
 10
-6.9521165635850686
 20
-5.9005011664496525
 30
0.0
 10
-5.7933586968315964
 20
-5.5463453504774298
 30
0.0
 10
-5.7933586968315964
 20
-5.5463453504774298
 30
0.0
 10
-5.7933586968315964
 20
-5.0958991156684021
 30
0.0
 10
-5.7933586968315964
 20
-5.0958991156684021
 30
0.0
 10
-5.7933586968315964
 20
-4.6404574924045132
 30
0.0
 10
-5.4212883843315964
 20
-4.2694207085503466
 30
0.0
 10
-4.9641242133246521
 20
-4.2694207085503466
 30
0.0
 10
-4.5062710232204859
 20
-4.2694207085503466
 30
0.0
 10
-4.1367845323350689
 20
-4.6404574924045132
 30
0.0
 10
-4.1367845323350689
 20
-5.0958991156684021
 30
0.0
 10
-4.1367845323350689
 20
-5.0958991156684021
 30
0.0
 10
-4.1367845323350689
 20
-5.5446228027343745
 30
0.0
 10
-4.1367845323350689
 20
-5.5446228027343745
 30
0.0
  0
CIRCLE
  5
126
100
AcDbEntity
  8
LIVELLO_1
 62
     7
100
AcDbCircle
 10
-4.962918
 20
-8.786802
 30
0.0
 40
0.795817
  0
SPLINE
  5
125
100
AcDbEntity
  8
LIVELLO_1
 62
     7
100
AcDbSpline
210
0.0
220
0.0
230
1.0
 70
     8
 71
     3
 72
    11
 73
     7
 74
     0
 42
0.00000001
 43
0.00000001
 40
0.0
 40
0.0
 40
0.0
 40
0.0
 40
1.0
 40
1.0
 40
1.0
 40
2.0
 40
2.0
 40
2.0
 40
2.0
 10
-15.729014078776041
 20
-11.264859347873262
 30
0.0
 10
-15.729014078776041
 20
-6.4015903049045138
 30
0.0
 10
-11.33979017469618
 20
-3.4310567220052079
 30
0.0
 10
-4.9878953721788193
 20
-3.4310567220052079
 30
0.0
 10
1.3615878634982637
 20
-3.4310567220052079
 30
0.0
 10
5.8031772189670132
 20
-6.3981452094184021
 30
0.0
 10
5.8031772189670132
 20
-11.263136800130207
 30
0.0
  0
SPLINE
  5
124
100
AcDbEntity
  8
LIVELLO_1
 62
     7
100
AcDbSpline
210
0.0
220
0.0
230
1.0
 70
     8
 71
     3
 72
    11
 73
     7
 74
     0
 42
0.00000001
 43
0.00000001
 40
0.0
 40
0.0
 40
0.0
 40
0.0
 40
1.0
 40
1.0
 40
1.0
 40
2.0
 40
2.0
 40
2.0
 40
2.0
 10
-18.200181070963541
 20
-11.254868570963541
 30
0.0
 10
-18.200181070963541
 20
-4.2694207085503466
 30
0.0
 10
-12.729713948567706
 20
-1.0659986707899305
 30
0.0
 10
-4.9742872450086804
 20
-1.0659986707899305
 30
0.0
 10
2.7820007324218747
 20
-1.0659986707899305
 30
0.0
 10
8.2743442111545136
 20
-4.2676981608072913
 30
0.0
 10
8.2743442111545136
 20
-11.251423475477429
 30
0.0
  0
SPLINE
  5
123
100
AcDbEntity
  8
LIVELLO_1
 62
     7
100
AcDbSpline
210
0.0
220
0.0
230
1.0
 70
     8
 71
     3
 72
    11
 73
     7
 74
     0
 42
0.00000001
 43
0.00000001
 40
0.0
 40
0.0
 40
0.0
 40
0.0
 40
1.0
 40
1.0
 40
1.0
 40
2.0
 40
2.0
 40
2.0
 40
2.0
 10
-18.928129747178819
 20
-11.242810736762152
 30
0.0
 10
-18.928129747178819
 20
-3.339933946397569
 30
0.0
 10
-13.222362603081596
 20
0.2615688747829861
 30
0.0
 10
-4.9641242133246521
 20
0.2615688747829861
 30
0.0
 10
3.2948031955295134
 20
0.2615688747829861
 30
0.0
 10
9.0040154351128461
 20
-3.3432067871093749
 30
0.0
 10
9.0040154351128461
 20
-11.246255832248263
 30
0.0
  0
SPLINE
  5
122
100
AcDbEntity
  8
LIVELLO_1
 62
     7
100
AcDbSpline
210
0.0
220
0.0
230
1.0
 70
     8
 71
     3
 72
    11
 73
     7
 74
     0
 42
0.00000001
 43
0.00000001
 40
0.0
 40
0.0
 40
0.0
 40
0.0
 40
1.0
 40
1.0
 40
1.0
 40
2.0
 40
2.0
 40
2.0
 40
2.0
 10
-27.72518107096354
 20
-11.242810736762152
 30
0.0
 10
-27.72518107096354
 20
-6.4015903049045138
 30
0.0
 10
-18.425490315755205
 20
3.2455383300781246
 30
0.0
 10
-4.9641242133246521
 20
3.2455383300781246
 30
0.0
 10
8.4996534559461789
 20
3.2455383300781246
 30
0.0
 10
17.797621663411455
 20
-6.4015903049045138
 30
0.0
 10
17.797621663411455
 20
-11.242810736762152
 30
0.0
  0
LINE
  5
121
100
AcDbEntity
  8
LIVELLO_1
 62
     7
100
AcDbLine
 10
19.546008
 20
-13.221674
 30
0.0
 11
37.035724
 21
-13.221674
 31
0.0
  0
LINE
  5
120
100
AcDbEntity
  8
LIVELLO_1
 62
     7
100
AcDbLine
 10
-29.469433
 20
-13.221674
 30
0.0
 11
-46.958805
 21
-13.221674
 31
0.0
  0
LINE
  5
11F
100
AcDbEntity
  8
LIVELLO_1
 62
     7
100
AcDbLine
 10
-28.21938
 20
-81.693291
 30
0.0
 11
18.295093
 21
-81.693291
 31
0.0
  0
POLYLINE
  5
119
100
AcDbEntity
  8
LIVELLO_1
 62
     7
100
AcDb2dPolyline
 66
     1
 10
0.0
 20
0.0
 30
0.0
 70
     1
  0
VERTEX
  5
11A
100
AcDbEntity
  8
LIVELLO_1
 62
     7
100
AcDbVertex
100
AcDb2dVertex
 10
19.546008
 20
-24.732771
 30
0.0
  0
VERTEX
  5
11B
100
AcDbEntity
  8
LIVELLO_1
 62
     7
100
AcDbVertex
100
AcDb2dVertex
 10
18.295093
 20
-24.732771
 30
0.0
  0
VERTEX
  5
11C
100
AcDbEntity
  8
LIVELLO_1
 62
     7
100
AcDbVertex
100
AcDb2dVertex
 10
18.295093
 20
-81.693291
 30
0.0
  0
VERTEX
  5
11D
100
AcDbEntity
  8
LIVELLO_1
 62
     7
100
AcDbVertex
100
AcDb2dVertex
 10
19.546008
 20
-81.693291
 30
0.0
  0
SEQEND
  5
11E
100
AcDbEntity
  8
LIVELLO_1
 62
     7
  0
POLYLINE
  5
113
100
AcDbEntity
  8
LIVELLO_1
 62
     7
100
AcDb2dPolyline
 66
     1
 10
0.0
 20
0.0
 30
0.0
 70
     1
  0
VERTEX
  5
114
100
AcDbEntity
  8
LIVELLO_1
 62
     7
100
AcDbVertex
100
AcDb2dVertex
 10
-29.469433
 20
-24.732771
 30
0.0
  0
VERTEX
  5
115
100
AcDbEntity
  8
LIVELLO_1
 62
     7
100
AcDbVertex
100
AcDb2dVertex
 10
-28.21938
 20
-24.732771
 30
0.0
  0
VERTEX
  5
116
100
AcDbEntity
  8
LIVELLO_1
 62
     7
100
AcDbVertex
100
AcDb2dVertex
 10
-28.21938
 20
-81.693291
 30
0.0
  0
VERTEX
  5
117
100
AcDbEntity
  8
LIVELLO_1
 62
     7
100
AcDbVertex
100
AcDb2dVertex
 10
-29.469433
 20
-81.693291
 30
0.0
  0
SEQEND
  5
118
100
AcDbEntity
  8
LIVELLO_1
 62
     7
  0
LINE
  5
112
100
AcDbEntity
  8
LIVELLO_1
 62
     7
100
AcDbLine
 10
3.023157
 20
-22.619205
 30
0.0
 11
-0.725106
 21
-22.619205
 31
0.0
  0
LINE
  5
111
100
AcDbEntity
  8
LIVELLO_1
 62
     7
100
AcDbLine
 10
-12.947272
 20
-22.619205
 30
0.0
 11
-9.20073
 21
-22.619205
 31
0.0
  0
SPLINE
  5
110
100
AcDbEntity
  8
LIVELLO_1
 62
     7
100
AcDbSpline
210
0.0
220
0.0
230
1.0
 70
     8
 71
     3
 72
    20
 73
    16
 74
     0
 42
0.00000001
 43
0.00000001
 40
0.0
 40
0.0
 40
0.0
 40
0.0
 40
1.0
 40
1.0
 40
1.0
 40
2.0
 40
2.0
 40
2.0
 40
3.0
 40
3.0
 40
3.0
 40
4.0
 40
4.0
 40
4.0
 40
5.0
 40
5.0
 40
5.0
 40
5.0
 10
-1.5820739746093748
 20
-52.162965901692701
 30
0.0
 10
-1.5820739746093748
 20
-52.162965901692701
 30
0.0
 10
-1.5887919108072914
 20
-52.412735324435758
 30
0.0
 10
-1.5887919108072914
 20
-52.412735324435758
 30
0.0
 10
-1.5887919108072914
 20
-53.087629530164925
 30
0.0
 10
-2.104867214626736
 20
-53.634021674262151
 30
0.0
 10
-2.7806226942274304
 20
-53.634021674262151
 30
0.0
 10
-2.7806226942274304
 20
-53.634021674262151
 30
0.0
 10
-7.1570997450086802
 20
-53.634021674262151
 30
0.0
 10
-7.1570997450086802
 20
-53.634021674262151
 30
0.0
 10
-7.830960422092013
 20
-53.634021674262151
 30
0.0
 10
-8.3480692545572914
 20
-53.087629530164925
 30
0.0
 10
-8.3480692545572914
 20
-52.412735324435758
 30
0.0
 10
-8.3480692545572914
 20
-52.412735324435758
 30
0.0
 10
-8.3480692545572914
 20
-52.112322998046871
 30
0.0
 10
-8.3480692545572914
 20
-52.112322998046871
 30
0.0
  0
SPLINE
  5
10F
100
AcDbEntity
  8
LIVELLO_1
 62
     7
100
AcDbSpline
210
0.0
220
0.0
230
1.0
 70
     8
 71
     3
 72
    20
 73
    16
 74
     0
 42
0.00000001
 43
0.00000001
 40
0.0
 40
0.0
 40
0.0
 40
0.0
 40
1.0
 40
1.0
 40
1.0
 40
2.0
 40
2.0
 40
2.0
 40
3.0
 40
3.0
 40
3.0
 40
4.0
 40
4.0
 40
4.0
 40
5.0
 40
5.0
 40
5.0
 40
5.0
 10
-1.5524461534288192
 20
-51.231756591796874
 30
0.0
 10
-1.5524461534288192
 20
-51.231756591796874
 30
0.0
 10
-1.559164089626736
 20
-51.481526014539924
 30
0.0
 10
-1.559164089626736
 20
-51.481526014539924
 30
0.0
 10
-1.559164089626736
 20
-52.156420220269091
 30
0.0
 10
-2.104867214626736
 20
-52.702812364366316
 30
0.0
 10
-2.7806226942274304
 20
-52.702812364366316
 30
0.0
 10
-2.7806226942274304
 20
-52.702812364366316
 30
0.0
 10
-7.1570997450086802
 20
-52.702812364366316
 30
0.0
 10
-7.1570997450086802
 20
-52.702812364366316
 30
0.0
 10
-7.830960422092013
 20
-52.702812364366316
 30
0.0
 10
-8.3783860948350686
 20
-52.156420220269091
 30
0.0
 10
-8.3783860948350686
 20
-51.481526014539924
 30
0.0
 10
-8.3783860948350686
 20
-51.481526014539924
 30
0.0
 10
-8.3783860948350686
 20
-51.181458197699648
 30
0.0
 10
-8.3783860948350686
 20
-51.181458197699648
 30
0.0
  0
LINE
  5
10E
100
AcDbEntity
  8
LIVELLO_1
 62
     7
100
AcDbLine
 10
-13.547063
 20
-71.406925
 30
0.0
 11
-9.334056
 21
-73.699291
 31
0.0
  0
LINE
  5
10D
100
AcDbEntity
  8
LIVELLO_1
 62
     7
100
AcDbLine
 10
-9.334056
 20
-71.406925
 30
0.0
 11
-13.547063
 21
-73.699291
 31
0.0
  0
LINE
  5
10C
100
AcDbEntity
  8
LIVELLO_1
 62
     7
100
AcDbLine
 10
-13.547063
 20
-71.406925
 30
0.0
 11
-17.758348
 21
-73.699291
 31
0.0
  0
LINE
  5
10B
100
AcDbEntity
  8
LIVELLO_1
 62
     7
100
AcDbLine
 10
-17.758348
 20
-71.406925
 30
0.0
 11
-13.547063
 21
-73.699291
 31
0.0
  0
POLYLINE
  5
105
100
AcDbEntity
  8
LIVELLO_1
 62
     7
100
AcDb2dPolyline
 66
     1
 10
0.0
 20
0.0
 30
0.0
 70
     1
  0
VERTEX
  5
106
100
AcDbEntity
  8
LIVELLO_1
 62
     7
100
AcDbVertex
100
AcDb2dVertex
 10
-17.758348
 20
-71.406925
 30
0.0
  0
VERTEX
  5
107
100
AcDbEntity
  8
LIVELLO_1
 62
     7
100
AcDbVertex
100
AcDb2dVertex
 10
-13.547063
 20
-71.406925
 30
0.0
  0
VERTEX
  5
108
100
AcDbEntity
  8
LIVELLO_1
 62
     7
100
AcDbVertex
100
AcDb2dVertex
 10
-13.547063
 20
-73.699291
 30
0.0
  0
VERTEX
  5
109
100
AcDbEntity
  8
LIVELLO_1
 62
     7
100
AcDbVertex
100
AcDb2dVertex
 10
-17.758348
 20
-73.699291
 30
0.0
  0
SEQEND
  5
10A
100
AcDbEntity
  8
LIVELLO_1
 62
     7
  0
POLYLINE
  5
FF
100
AcDbEntity
  8
LIVELLO_1
 62
     7
100
AcDb2dPolyline
 66
     1
 10
0.0
 20
0.0
 30
0.0
 70
     1
  0
VERTEX
  5
100
100
AcDbEntity
  8
LIVELLO_1
 62
     7
100
AcDbVertex
100
AcDb2dVertex
 10
-13.547063
 20
-71.406925
 30
0.0
  0
VERTEX
  5
101
100
AcDbEntity
  8
LIVELLO_1
 62
     7
100
AcDbVertex
100
AcDb2dVertex
 10
-9.334056
 20
-71.406925
 30
0.0
  0
VERTEX
  5
102
100
AcDbEntity
  8
LIVELLO_1
 62
     7
100
AcDbVertex
100
AcDb2dVertex
 10
-9.334056
 20
-73.699291
 30
0.0
  0
VERTEX
  5
103
100
AcDbEntity
  8
LIVELLO_1
 62
     7
100
AcDbVertex
100
AcDb2dVertex
 10
-13.547063
 20
-73.699291
 30
0.0
  0
SEQEND
  5
104
100
AcDbEntity
  8
LIVELLO_1
 62
     7
  0
SPLINE
  5
FE
100
AcDbEntity
  8
LIVELLO_1
 62
     7
100
AcDbSpline
210
0.0
220
0.0
230
1.0
 70
     8
 71
     3
 72
    23
 73
    19
 74
     0
 42
0.00000001
 43
0.00000001
 40
0.0
 40
0.0
 40
0.0
 40
0.0
 40
1.0
 40
1.0
 40
1.0
 40
2.0
 40
2.0
 40
2.0
 40
3.0
 40
3.0
 40
3.0
 40
4.0
 40
4.0
 40
4.0
 40
5.0
 40
5.0
 40
5.0
 40
6.0
 40
6.0
 40
6.0
 40
6.0
 10
-9.3340555826822911
 20
-73.699291314019092
 30
0.0
 10
-9.3340555826822911
 20
-73.699291314019092
 30
0.0
 10
-9.3340555826822911
 20
-74.201930745442695
 30
0.0
 10
-9.3340555826822911
 20
-74.201930745442695
 30
0.0
 10
-9.3340555826822911
 20
-74.876824951171869
 30
0.0
 10
-9.8814812554253457
 20
-75.424939643012152
 30
0.0
 10
-10.557064480251736
 20
-75.424939643012152
 30
0.0
 10
-10.557064480251736
 20
-75.424939643012152
 30
0.0
 10
-16.537061225043402
 20
-75.424939643012152
 30
0.0
 10
-16.537061225043402
 20
-75.424939643012152
 30
0.0
 10
-17.210921902126735
 20
-75.424939643012152
 30
0.0
 10
-17.758347574869791
 20
-74.876824951171869
 30
0.0
 10
-17.758347574869791
 20
-74.201930745442695
 30
0.0
 10
-17.758347574869791
 20
-74.201930745442695
 30
0.0
 10
-17.758347574869791
 20
-73.699291314019092
 30
0.0
 10
-17.758347574869791
 20
-73.699291314019092
 30
0.0
 10
-17.758347574869791
 20
-73.699291314019092
 30
0.0
 10
-9.3340555826822911
 20
-73.699291314019092
 30
0.0
 10
-9.3340555826822911
 20
-73.699291314019092
 30
0.0
  0
POLYLINE
  5
F8
100
AcDbEntity
  8
LIVELLO_1
 62
     7
100
AcDb2dPolyline
 66
     1
 10
0.0
 20
0.0
 30
0.0
 70
     1
  0
VERTEX
  5
F9
100
AcDbEntity
  8
LIVELLO_1
 62
     7
100
AcDbVertex
100
AcDb2dVertex
 10
-17.758348
 20
-70.253162
 30
0.0
  0
VERTEX
  5
FA
100
AcDbEntity
  8
LIVELLO_1
 62
     7
100
AcDbVertex
100
AcDb2dVertex
 10
-9.334056
 20
-70.253162
 30
0.0
  0
VERTEX
  5
FB
100
AcDbEntity
  8
LIVELLO_1
 62
     7
100
AcDbVertex
100
AcDb2dVertex
 10
-9.334056
 20
-71.406925
 30
0.0
  0
VERTEX
  5
FC
100
AcDbEntity
  8
LIVELLO_1
 62
     7
100
AcDbVertex
100
AcDb2dVertex
 10
-17.758348
 20
-71.406925
 30
0.0
  0
SEQEND
  5
FD
100
AcDbEntity
  8
LIVELLO_1
 62
     7
  0
LINE
  5
F7
100
AcDbEntity
  8
LIVELLO_1
 62
     7
100
AcDbLine
 10
-10.804078
 20
-67.069894
 30
0.0
 11
-10.804078
 21
-68.986401
 31
0.0
  0
LINE
  5
F6
100
AcDbEntity
  8
LIVELLO_1
 62
     7
100
AcDbLine
 10
-11.450205
 20
-67.069894
 30
0.0
 11
-11.450205
 21
-68.986401
 31
0.0
  0
LINE
  5
F5
100
AcDbEntity
  8
LIVELLO_1
 62
     7
100
AcDbLine
 10
-15.642025
 20
-67.069894
 30
0.0
 11
-15.642025
 21
-68.986401
 31
0.0
  0
LINE
  5
F4
100
AcDbEntity
  8
LIVELLO_1
 62
     7
100
AcDbLine
 10
-16.289876
 20
-67.069894
 30
0.0
 11
-16.289876
 21
-68.986401
 31
0.0
  0
POLYLINE
  5
EE
100
AcDbEntity
  8
LIVELLO_1
 62
     7
100
AcDb2dPolyline
 66
     1
 10
0.0
 20
0.0
 30
0.0
 70
     1
  0
VERTEX
  5
EF
100
AcDbEntity
  8
LIVELLO_1
 62
     7
100
AcDbVertex
100
AcDb2dVertex
 10
-17.385416
 20
-68.986401
 30
0.0
  0
VERTEX
  5
F0
100
AcDbEntity
  8
LIVELLO_1
 62
     7
100
AcDbVertex
100
AcDb2dVertex
 10
-9.705092
 20
-68.986401
 30
0.0
  0
VERTEX
  5
F1
100
AcDbEntity
  8
LIVELLO_1
 62
     7
100
AcDbVertex
100
AcDb2dVertex
 10
-9.705092
 20
-70.253162
 30
0.0
  0
VERTEX
  5
F2
100
AcDbEntity
  8
LIVELLO_1
 62
     7
100
AcDbVertex
100
AcDb2dVertex
 10
-17.385416
 20
-70.253162
 30
0.0
  0
SEQEND
  5
F3
100
AcDbEntity
  8
LIVELLO_1
 62
     7
  0
POLYLINE
  5
E8
100
AcDbEntity
  8
LIVELLO_1
 62
     7
100
AcDb2dPolyline
 66
     1
 10
0.0
 20
0.0
 30
0.0
 70
     1
  0
VERTEX
  5
E9
100
AcDbEntity
  8
LIVELLO_1
 62
     7
100
AcDbVertex
100
AcDb2dVertex
 10
-18.023964
 20
-67.069894
 30
0.0
  0
VERTEX
  5
EA
100
AcDbEntity
  8
LIVELLO_1
 62
     7
100
AcDbVertex
100
AcDb2dVertex
 10
-9.068266
 20
-67.069894
 30
0.0
  0
VERTEX
  5
EB
100
AcDbEntity
  8
LIVELLO_1
 62
     7
100
AcDbVertex
100
AcDb2dVertex
 10
-9.068266
 20
-68.986401
 30
0.0
  0
VERTEX
  5
EC
100
AcDbEntity
  8
LIVELLO_1
 62
     7
100
AcDbVertex
100
AcDb2dVertex
 10
-18.023964
 20
-68.986401
 30
0.0
  0
SEQEND
  5
ED
100
AcDbEntity
  8
LIVELLO_1
 62
     7
  0
SPLINE
  5
E7
100
AcDbEntity
  8
LIVELLO_1
 62
     7
100
AcDbSpline
210
0.0
220
0.0
230
1.0
 70
     8
 71
     3
 72
    23
 73
    19
 74
     0
 42
0.00000001
 43
0.00000001
 40
0.0
 40
0.0
 40
0.0
 40
0.0
 40
1.0
 40
1.0
 40
1.0
 40
2.0
 40
2.0
 40
2.0
 40
3.0
 40
3.0
 40
3.0
 40
4.0
 40
4.0
 40
4.0
 40
5.0
 40
5.0
 40
5.0
 40
6.0
 40
6.0
 40
6.0
 40
6.0
 10
6.6753031412760411
 20
-65.641212972005206
 30
0.0
 10
6.6753031412760411
 20
-65.641212972005206
 30
0.0
 10
6.6753031412760411
 20
-66.528325059678806
 30
0.0
 10
6.6753031412760411
 20
-66.528325059678806
 30
0.0
 10
6.6753031412760411
 20
-67.203219265407981
 30
0.0
 10
6.1278774685329855
 20
-67.749611409505206
 30
0.0
 10
5.4522942437065964
 20
-67.749611409505206
 30
0.0
 10
5.4522942437065964
 20
-67.749611409505206
 30
0.0
 10
2.9582173665364579
 20
-67.749611409505206
 30
0.0
 10
2.9582173665364579
 20
-67.749611409505206
 30
0.0
 10
2.2826341417100693
 20
-67.749611409505206
 30
0.0
 10
1.7369310167100693
 20
-67.203219265407981
 30
0.0
 10
1.7369310167100693
 20
-66.528325059678806
 30
0.0
 10
1.7369310167100693
 20
-66.528325059678806
 30
0.0
 10
1.7369310167100693
 20
-65.641212972005206
 30
0.0
 10
1.7369310167100693
 20
-65.641212972005206
 30
0.0
 10
1.7369310167100693
 20
-65.641212972005206
 30
0.0
 10
6.6753031412760411
 20
-65.641212972005206
 30
0.0
 10
6.6753031412760411
 20
-65.641212972005206
 30
0.0
  0
LINE
  5
E6
100
AcDbEntity
  8
LIVELLO_1
 62
     7
100
AcDbLine
 10
-4.303699
 20
-65.641213
 30
0.0
 11
-4.303699
 21
-67.069894
 31
0.0
  0
LINE
  5
E5
100
AcDbEntity
  8
LIVELLO_1
 62
     7
100
AcDbLine
 10
-5.585792
 20
-65.641213
 30
0.0
 11
-5.585792
 21
-67.069894
 31
0.0
  0
LINE
  5
E4
100
AcDbEntity
  8
LIVELLO_1
 62
     7
100
AcDbLine
 10
-8.783357
 20
-65.641213
 30
0.0
 11
-8.783357
 21
-67.069894
 31
0.0
  0
POLYLINE
  5
DE
100
AcDbEntity
  8
LIVELLO_1
 62
     7
100
AcDb2dPolyline
 66
     1
 10
0.0
 20
0.0
 30
0.0
 70
     1
  0
VERTEX
  5
DF
100
AcDbEntity
  8
LIVELLO_1
 62
     7
100
AcDbVertex
100
AcDb2dVertex
 10
-18.362962
 20
-65.641213
 30
0.0
  0
VERTEX
  5
E0
100
AcDbEntity
  8
LIVELLO_1
 62
     7
100
AcDbVertex
100
AcDb2dVertex
 10
1.738654
 20
-65.641213
 30
0.0
  0
VERTEX
  5
E1
100
AcDbEntity
  8
LIVELLO_1
 62
     7
100
AcDbVertex
100
AcDb2dVertex
 10
1.738654
 20
-67.069894
 30
0.0
  0
VERTEX
  5
E2
100
AcDbEntity
  8
LIVELLO_1
 62
     7
100
AcDbVertex
100
AcDb2dVertex
 10
-18.362962
 20
-67.069894
 30
0.0
  0
SEQEND
  5
E3
100
AcDbEntity
  8
LIVELLO_1
 62
     7
  0
SPLINE
  5
DD
100
AcDbEntity
  8
LIVELLO_1
 62
     7
100
AcDbSpline
210
0.0
220
0.0
230
1.0
 70
     8
 71
     3
 72
    20
 73
    16
 74
     0
 42
0.00000001
 43
0.00000001
 40
0.0
 40
0.0
 40
0.0
 40
0.0
 40
1.0
 40
1.0
 40
1.0
 40
2.0
 40
2.0
 40
2.0
 40
3.0
 40
3.0
 40
3.0
 40
4.0
 40
4.0
 40
4.0
 40
5.0
 40
5.0
 40
5.0
 40
5.0
 10
10.708476426866319
 20
-17.585576036241317
 30
0.0
 10
10.708476426866319
 20
-17.585576036241317
 30
0.0
 10
3.0231574164496524
 20
-17.585576036241317
 30
0.0
 10
3.0231574164496524
 20
-17.585576036241317
 30
0.0
 10
3.0231574164496524
 20
-17.585576036241317
 30
0.0
 10
3.0231574164496524
 20
-23.837046305338539
 30
0.0
 10
3.0231574164496524
 20
-23.837046305338539
 30
0.0
 10
3.0231574164496524
 20
-23.162496609157984
 30
0.0
 10
3.5714443630642356
 20
-22.61575995551215
 30
0.0
 10
4.2444437662760413
 20
-22.61575995551215
 30
0.0
 10
4.2444437662760413
 20
-22.61575995551215
 30
0.0
 10
10.59289347330729
 20
-22.61575995551215
 30
0.0
 10
10.59289347330729
 20
-22.61575995551215
 30
0.0
 10
10.59289347330729
 20
-22.61575995551215
 30
0.0
 10
10.708476426866319
 20
-17.585576036241317
 30
0.0
 10
10.708476426866319
 20
-17.585576036241317
 30
0.0
  0
SPLINE
  5
DC
100
AcDbEntity
  8
LIVELLO_1
 62
     7
100
AcDbSpline
210
0.0
220
0.0
230
1.0
 70
     8
 71
     3
 72
    20
 73
    16
 74
     0
 42
0.00000001
 43
0.00000001
 40
0.0
 40
0.0
 40
0.0
 40
0.0
 40
1.0
 40
1.0
 40
1.0
 40
2.0
 40
2.0
 40
2.0
 40
3.0
 40
3.0
 40
3.0
 40
4.0
 40
4.0
 40
4.0
 40
5.0
 40
5.0
 40
5.0
 40
5.0
 10
-20.634313286675344
 20
-17.585576036241317
 30
0.0
 10
-20.634313286675344
 20
-17.585576036241317
 30
0.0
 10
-12.947271728515624
 20
-17.585576036241317
 30
0.0
 10
-12.947271728515624
 20
-17.585576036241317
 30
0.0
 10
-12.947271728515624
 20
-17.585576036241317
 30
0.0
 10
-12.947271728515624
 20
-23.837046305338539
 30
0.0
 10
-12.947271728515624
 20
-23.837046305338539
 30
0.0
 10
-12.947271728515624
 20
-23.162496609157984
 30
0.0
 10
-13.495558675130207
 20
-22.61575995551215
 30
0.0
 10
-14.170280626085068
 20
-22.61575995551215
 30
0.0
 10
-14.170280626085068
 20
-22.61575995551215
 30
0.0
 10
-20.517180040147569
 20
-22.61575995551215
 30
0.0
 10
-20.517180040147569
 20
-22.61575995551215
 30
0.0
 10
-20.517180040147569
 20
-22.61575995551215
 30
0.0
 10
-20.634313286675344
 20
-17.585576036241317
 30
0.0
 10
-20.634313286675344
 20
-17.585576036241317
 30
0.0
  0
SPLINE
  5
DB
100
AcDbEntity
  8
LIVELLO_1
 62
     7
100
AcDbSpline
210
0.0
220
0.0
230
1.0
 70
     8
 71
     3
 72
    23
 73
    19
 74
     0
 42
0.00000001
 43
0.00000001
 40
0.0
 40
0.0
 40
0.0
 40
0.0
 40
1.0
 40
1.0
 40
1.0
 40
2.0
 40
2.0
 40
2.0
 40
3.0
 40
3.0
 40
3.0
 40
4.0
 40
4.0
 40
4.0
 40
5.0
 40
5.0
 40
5.0
 40
6.0
 40
6.0
 40
6.0
 40
6.0
 10
-2.6076789008246526
 20
-17.585576036241317
 30
0.0
 10
-2.6076789008246526
 20
-17.585576036241317
 30
0.0
 10
-2.6076789008246526
 20
-21.397918701171871
 30
0.0
 10
-2.6076789008246526
 20
-21.397918701171871
 30
0.0
 10
-2.6076789008246526
 20
-22.071090359157985
 30
0.0
 10
-3.1533820258246523
 20
-22.619205050998261
 30
0.0
 10
-3.8289652506510414
 20
-22.619205050998261
 30
0.0
 10
-3.8289652506510414
 20
-22.619205050998261
 30
0.0
 10
-6.1003167046440963
 20
-22.619205050998261
 30
0.0
 10
-6.1003167046440963
 20
-22.619205050998261
 30
0.0
 10
-6.7758999294704854
 20
-22.619205050998261
 30
0.0
 10
-7.3233256022135409
 20
-22.071090359157985
 30
0.0
 10
-7.3233256022135409
 20
-21.397918701171871
 30
0.0
 10
-7.3233256022135409
 20
-21.397918701171871
 30
0.0
 10
-7.3233256022135409
 20
-17.585576036241317
 30
0.0
 10
-7.3233256022135409
 20
-17.585576036241317
 30
0.0
 10
-7.3233256022135409
 20
-17.585576036241317
 30
0.0
 10
-2.6076789008246526
 20
-17.585576036241317
 30
0.0
 10
-2.6076789008246526
 20
-17.585576036241317
 30
0.0
  0
POLYLINE
  5
D5
100
AcDbEntity
  8
LIVELLO_1
 62
     7
100
AcDb2dPolyline
 66
     1
 10
0.0
 20
0.0
 30
0.0
 70
     1
  0
VERTEX
  5
D6
100
AcDbEntity
  8
LIVELLO_1
 62
     7
100
AcDbVertex
100
AcDb2dVertex
 10
16.023742
 20
-17.585576
 30
0.0
  0
VERTEX
  5
D7
100
AcDbEntity
  8
LIVELLO_1
 62
     7
100
AcDbVertex
100
AcDb2dVertex
 10
10.708476
 20
-17.585576
 30
0.0
  0
VERTEX
  5
D8
100
AcDbEntity
  8
LIVELLO_1
 62
     7
100
AcDbVertex
100
AcDb2dVertex
 10
10.592893
 20
-22.619205
 30
0.0
  0
VERTEX
  5
D9
100
AcDbEntity
  8
LIVELLO_1
 62
     7
100
AcDbVertex
100
AcDb2dVertex
 10
16.023742
 20
-22.619205
 30
0.0
  0
SEQEND
  5
DA
100
AcDbEntity
  8
LIVELLO_1
 62
     7
  0
POLYLINE
  5
CF
100
AcDbEntity
  8
LIVELLO_1
 62
     7
100
AcDb2dPolyline
 66
     1
 10
0.0
 20
0.0
 30
0.0
 70
     1
  0
VERTEX
  5
D0
100
AcDbEntity
  8
LIVELLO_1
 62
     7
100
AcDbVertex
100
AcDb2dVertex
 10
-25.949751
 20
-17.585576
 30
0.0
  0
VERTEX
  5
D1
100
AcDbEntity
  8
LIVELLO_1
 62
     7
100
AcDbVertex
100
AcDb2dVertex
 10
-20.634313
 20
-17.585576
 30
0.0
  0
VERTEX
  5
D2
100
AcDbEntity
  8
LIVELLO_1
 62
     7
100
AcDbVertex
100
AcDb2dVertex
 10
-20.51718
 20
-22.619205
 30
0.0
  0
VERTEX
  5
D3
100
AcDbEntity
  8
LIVELLO_1
 62
     7
100
AcDbVertex
100
AcDb2dVertex
 10
-25.949751
 20
-22.619205
 30
0.0
  0
SEQEND
  5
D4
100
AcDbEntity
  8
LIVELLO_1
 62
     7
  0
SPLINE
  5
CE
100
AcDbEntity
  8
LIVELLO_1
 62
     7
100
AcDbSpline
210
0.0
220
0.0
230
1.0
 70
     8
 71
     3
 72
    41
 73
    37
 74
     0
 42
0.00000001
 43
0.00000001
 40
0.0
 40
0.0
 40
0.0
 40
0.0
 40
1.0
 40
1.0
 40
1.0
 40
2.0
 40
2.0
 40
2.0
 40
3.0
 40
3.0
 40
3.0
 40
4.0
 40
4.0
 40
4.0
 40
5.0
 40
5.0
 40
5.0
 40
6.0
 40
6.0
 40
6.0
 40
7.0
 40
7.0
 40
7.0
 40
8.0
 40
8.0
 40
8.0
 40
9.0
 40
9.0
 40
9.0
 40
10.0
 40
10.0
 40
10.0
 40
11.0
 40
11.0
 40
11.0
 40
12.0
 40
12.0
 40
12.0
 40
12.0
 10
-0.7023688422309027
 20
-21.138158501519094
 30
0.0
 10
-0.7023688422309027
 20
-21.138158501519094
 30
0.0
 10
-1.9252054850260414
 20
-64.419926622178806
 30
0.0
 10
-1.9252054850260414
 20
-64.419926622178806
 30
0.0
 10
-1.9252054850260414
 20
-65.093098280164924
 30
0.0
 10
-2.4709086100260413
 20
-65.641212972005206
 30
0.0
 10
-3.1466640896267357
 20
-65.641212972005206
 30
0.0
 10
-3.1466640896267357
 20
-65.641212972005206
 30
0.0
 10
-6.7843404134114573
 20
-65.641212972005206
 30
0.0
 10
-6.7843404134114573
 20
-65.641212972005206
 30
0.0
 10
-7.4599236382378464
 20
-65.641212972005206
 30
0.0
 10
-8.0073493109809029
 20
-65.093098280164924
 30
0.0
 10
-8.0073493109809029
 20
-64.419926622178806
 30
0.0
 10
-8.0073493109809029
 20
-64.419926622178806
 30
0.0
 10
-9.2286356608072904
 20
-21.138158501519094
 30
0.0
 10
-9.2286356608072904
 20
-21.138158501519094
 30
0.0
 10
-9.2286356608072904
 20
-21.138158501519094
 30
0.0
 10
-7.3233256022135409
 20
-21.003110758463539
 30
0.0
 10
-7.3233256022135409
 20
-21.003110758463539
 30
0.0
 10
-7.3233256022135409
 20
-21.003110758463539
 30
0.0
 10
-7.3233256022135409
 20
-21.397918701171871
 30
0.0
 10
-7.3233256022135409
 20
-21.397918701171871
 30
0.0
 10
-7.3233256022135409
 20
-22.071090359157985
 30
0.0
 10
-6.7758999294704854
 20
-22.619205050998261
 30
0.0
 10
-6.1003167046440963
 20
-22.619205050998261
 30
0.0
 10
-6.1003167046440963
 20
-22.619205050998261
 30
0.0
 10
-3.8289652506510414
 20
-22.619205050998261
 30
0.0
 10
-3.8289652506510414
 20
-22.619205050998261
 30
0.0
 10
-3.1533820258246523
 20
-22.619205050998261
 30
0.0
 10
-2.6076789008246526
 20
-22.071090359157985
 30
0.0
 10
-2.6076789008246526
 20
-21.397918701171871
 30
0.0
 10
-2.6076789008246526
 20
-21.397918701171871
 30
0.0
 10
-2.6076789008246526
 20
-21.003110758463539
 30
0.0
 10
-2.6076789008246526
 20
-21.003110758463539
 30
0.0
 10
-2.6076789008246526
 20
-21.003110758463539
 30
0.0
 10
-0.7023688422309027
 20
-21.138158501519094
 30
0.0
 10
-0.7023688422309027
 20
-21.138158501519094
 30
0.0
  0
LINE
  5
CD
100
AcDbEntity
  8
LIVELLO_1
 62
     7
100
AcDbLine
 10
5.664857
 20
-62.209898
 30
0.0
 11
4.934324
 21
-62.209898
 31
0.0
  0
POLYLINE
  5
C8
100
AcDbEntity
  8
LIVELLO_1
 62
     7
100
AcDb2dPolyline
 66
     1
 10
0.0
 20
0.0
 30
0.0
  0
VERTEX
  5
C9
100
AcDbEntity
  8
LIVELLO_1
 62
     7
100
AcDbVertex
100
AcDb2dVertex
 10
5.291236
 20
-22.619205
 30
0.0
  0
VERTEX
  5
CA
100
AcDbEntity
  8
LIVELLO_1
 62
     7
100
AcDbVertex
100
AcDb2dVertex
 10
4.934324
 20
-62.209898
 30
0.0
  0
VERTEX
  5
CB
100
AcDbEntity
  8
LIVELLO_1
 62
     7
100
AcDbVertex
100
AcDb2dVertex
 10
4.171925
 20
-63.267887
 30
0.0
  0
SEQEND
  5
CC
100
AcDbEntity
  8
LIVELLO_1
 62
     7
  0
POLYLINE
  5
C1
100
AcDbEntity
  8
LIVELLO_1
 62
     7
100
AcDb2dPolyline
 66
     1
 10
0.0
 20
0.0
 30
0.0
  0
VERTEX
  5
C2
100
AcDbEntity
  8
LIVELLO_1
 62
     7
100
AcDbVertex
100
AcDb2dVertex
 10
6.650843
 20
-22.619205
 30
0.0
  0
VERTEX
  5
C3
100
AcDbEntity
  8
LIVELLO_1
 62
     7
100
AcDbVertex
100
AcDb2dVertex
 10
5.664857
 20
-62.209898
 30
0.0
  0
VERTEX
  5
C4
100
AcDbEntity
  8
LIVELLO_1
 62
     7
100
AcDbVertex
100
AcDb2dVertex
 10
4.926745
 20
-63.267887
 30
0.0
  0
VERTEX
  5
C5
100
AcDbEntity
  8
LIVELLO_1
 62
     7
100
AcDbVertex
100
AcDb2dVertex
 10
4.171925
 20
-63.267887
 30
0.0
  0
VERTEX
  5
C6
100
AcDbEntity
  8
LIVELLO_1
 62
     7
100
AcDbVertex
100
AcDb2dVertex
 10
4.494902
 20
-22.619205
 30
0.0
  0
SEQEND
  5
C7
100
AcDbEntity
  8
LIVELLO_1
 62
     7
  0
LINE
  5
C0
100
AcDbEntity
  8
LIVELLO_1
 62
     7
100
AcDbLine
 10
-15.588971
 20
-62.209898
 30
0.0
 11
-14.857749
 21
-62.209898
 31
0.0
  0
POLYLINE
  5
BB
100
AcDbEntity
  8
LIVELLO_1
 62
     7
100
AcDb2dPolyline
 66
     1
 10
0.0
 20
0.0
 30
0.0
  0
VERTEX
  5
BC
100
AcDbEntity
  8
LIVELLO_1
 62
     7
100
AcDbVertex
100
AcDb2dVertex
 10
-15.21535
 20
-22.619205
 30
0.0
  0
VERTEX
  5
BD
100
AcDbEntity
  8
LIVELLO_1
 62
     7
100
AcDbVertex
100
AcDb2dVertex
 10
-14.857749
 20
-62.209898
 30
0.0
  0
VERTEX
  5
BE
100
AcDbEntity
  8
LIVELLO_1
 62
     7
100
AcDbVertex
100
AcDb2dVertex
 10
-14.096039
 20
-63.267887
 30
0.0
  0
SEQEND
  5
BF
100
AcDbEntity
  8
LIVELLO_1
 62
     7
  0
POLYLINE
  5
B4
100
AcDbEntity
  8
LIVELLO_1
 62
     7
100
AcDb2dPolyline
 66
     1
 10
0.0
 20
0.0
 30
0.0
  0
VERTEX
  5
B5
100
AcDbEntity
  8
LIVELLO_1
 62
     7
100
AcDbVertex
100
AcDb2dVertex
 10
-16.574957
 20
-22.619205
 30
0.0
  0
VERTEX
  5
B6
100
AcDbEntity
  8
LIVELLO_1
 62
     7
100
AcDbVertex
100
AcDb2dVertex
 10
-15.588971
 20
-62.209898
 30
0.0
  0
VERTEX
  5
B7
100
AcDbEntity
  8
LIVELLO_1
 62
     7
100
AcDbVertex
100
AcDb2dVertex
 10
-14.851031
 20
-63.267887
 30
0.0
  0
VERTEX
  5
B8
100
AcDbEntity
  8
LIVELLO_1
 62
     7
100
AcDbVertex
100
AcDb2dVertex
 10
-14.096039
 20
-63.267887
 30
0.0
  0
VERTEX
  5
B9
100
AcDbEntity
  8
LIVELLO_1
 62
     7
100
AcDbVertex
100
AcDb2dVertex
 10
-14.420739
 20
-22.619205
 30
0.0
  0
SEQEND
  5
BA
100
AcDbEntity
  8
LIVELLO_1
 62
     7
  0
POLYLINE
  5
AF
100
AcDbEntity
  8
LIVELLO_1
 62
     7
100
AcDb2dPolyline
 66
     1
 10
0.0
 20
0.0
 30
0.0
  0
VERTEX
  5
B0
100
AcDbEntity
  8
LIVELLO_1
 62
     7
100
AcDbVertex
100
AcDb2dVertex
 10
14.301539
 20
-17.585576
 30
0.0
  0
VERTEX
  5
B1
100
AcDbEntity
  8
LIVELLO_1
 62
     7
100
AcDbVertex
100
AcDb2dVertex
 10
9.451017
 20
-22.619205
 30
0.0
  0
VERTEX
  5
B2
100
AcDbEntity
  8
LIVELLO_1
 62
     7
100
AcDbVertex
100
AcDb2dVertex
 10
8.52997
 20
-64.419927
 30
0.0
  0
SEQEND
  5
B3
100
AcDbEntity
  8
LIVELLO_1
 62
     7
  0
POLYLINE
  5
AA
100
AcDbEntity
  8
LIVELLO_1
 62
     7
100
AcDb2dPolyline
 66
     1
 10
0.0
 20
0.0
 30
0.0
  0
VERTEX
  5
AB
100
AcDbEntity
  8
LIVELLO_1
 62
     7
100
AcDbVertex
100
AcDb2dVertex
 10
-24.225825
 20
-17.585576
 30
0.0
  0
VERTEX
  5
AC
100
AcDbEntity
  8
LIVELLO_1
 62
     7
100
AcDbVertex
100
AcDb2dVertex
 10
-19.376853
 20
-22.619205
 30
0.0
  0
VERTEX
  5
AD
100
AcDbEntity
  8
LIVELLO_1
 62
     7
100
AcDbVertex
100
AcDb2dVertex
 10
-18.454085
 20
-64.419927
 30
0.0
  0
SEQEND
  5
AE
100
AcDbEntity
  8
LIVELLO_1
 62
     7
  0
POLYLINE
  5
A5
100
AcDbEntity
  8
LIVELLO_1
 62
     7
100
AcDb2dPolyline
 66
     1
 10
0.0
 20
0.0
 30
0.0
 70
     1
  0
VERTEX
  5
A6
100
AcDbEntity
  8
LIVELLO_1
 62
     7
100
AcDbVertex
100
AcDb2dVertex
 10
10.708476
 20
-17.585576
 30
0.0
  0
VERTEX
  5
A7
100
AcDbEntity
  8
LIVELLO_1
 62
     7
100
AcDbVertex
100
AcDb2dVertex
 10
9.666852
 20
-62.08174
 30
0.0
  0
VERTEX
  5
A8
100
AcDbEntity
  8
LIVELLO_1
 62
     7
100
AcDbVertex
100
AcDb2dVertex
 10
8.590604
 20
-63.107345
 30
0.0
  0
SEQEND
  5
A9
100
AcDbEntity
  8
LIVELLO_1
 62
     7
  0
POLYLINE
  5
A0
100
AcDbEntity
  8
LIVELLO_1
 62
     7
100
AcDb2dPolyline
 66
     1
 10
0.0
 20
0.0
 30
0.0
 70
     1
  0
VERTEX
  5
A1
100
AcDbEntity
  8
LIVELLO_1
 62
     7
100
AcDbVertex
100
AcDb2dVertex
 10
-20.634313
 20
-17.585576
 30
0.0
  0
VERTEX
  5
A2
100
AcDbEntity
  8
LIVELLO_1
 62
     7
100
AcDbVertex
100
AcDb2dVertex
 10
-18.516441
 20
-63.107345
 30
0.0
  0
VERTEX
  5
A3
100
AcDbEntity
  8
LIVELLO_1
 62
     7
100
AcDbVertex
100
AcDb2dVertex
 10
-19.592689
 20
-62.08174
 30
0.0
  0
SEQEND
  5
A4
100
AcDbEntity
  8
LIVELLO_1
 62
     7
  0
SPLINE
  5
9F
100
AcDbEntity
  8
LIVELLO_1
 62
     7
100
AcDbSpline
210
0.0
220
0.0
230
1.0
 70
     8
 71
     3
 72
    23
 73
    19
 74
     0
 42
0.00000001
 43
0.00000001
 40
0.0
 40
0.0
 40
0.0
 40
0.0
 40
1.0
 40
1.0
 40
1.0
 40
2.0
 40
2.0
 40
2.0
 40
3.0
 40
3.0
 40
3.0
 40
4.0
 40
4.0
 40
4.0
 40
5.0
 40
5.0
 40
5.0
 40
6.0
 40
6.0
 40
6.0
 40
6.0
 10
-17.232798258463539
 20
-65.641212972005206
 30
0.0
 10
-17.908381483289929
 20
-65.641212972005206
 30
0.0
 10
-18.454084608289929
 20
-65.093098280164924
 30
0.0
 10
-18.454084608289929
 20
-64.419926622178806
 30
0.0
 10
-18.454084608289929
 20
-64.419926622178806
 30
0.0
 10
-20.634313286675344
 20
-17.585576036241317
 30
0.0
 10
-20.634313286675344
 20
-17.585576036241317
 30
0.0
 10
-20.634313286675344
 20
-17.585576036241317
 30
0.0
 10
10.708476426866319
 20
-17.585576036241317
 30
0.0
 10
10.708476426866319
 20
-17.585576036241317
 30
0.0
 10
10.708476426866319
 20
-17.585576036241317
 30
0.0
 10
8.5299702962239579
 20
-64.419926622178806
 30
0.0
 10
8.5299702962239579
 20
-64.419926622178806
 30
0.0
 10
8.5299702962239579
 20
-65.093098280164924
 30
0.0
 10
7.9825446234809023
 20
-65.641212972005206
 30
0.0
 10
7.3095452202690963
 20
-65.641212972005206
 30
0.0
 10
7.3095452202690963
 20
-65.641212972005206
 30
0.0
 10
-17.232798258463539
 20
-65.641212972005206
 30
0.0
 10
-17.232798258463539
 20
-65.641212972005206
 30
0.0
  0
SPLINE
  5
9E
100
AcDbEntity
  8
LIVELLO_1
 62
     7
100
AcDbSpline
210
0.0
220
0.0
230
1.0
 70
     8
 71
     3
 72
    47
 73
    43
 74
     0
 42
0.00000001
 43
0.00000001
 40
0.0
 40
0.0
 40
0.0
 40
0.0
 40
1.0
 40
1.0
 40
1.0
 40
2.0
 40
2.0
 40
2.0
 40
3.0
 40
3.0
 40
3.0
 40
4.0
 40
4.0
 40
4.0
 40
5.0
 40
5.0
 40
5.0
 40
6.0
 40
6.0
 40
6.0
 40
7.0
 40
7.0
 40
7.0
 40
8.0
 40
8.0
 40
8.0
 40
9.0
 40
9.0
 40
9.0
 40
10.0
 40
10.0
 40
10.0
 40
11.0
 40
11.0
 40
11.0
 40
12.0
 40
12.0
 40
12.0
 40
13.0
 40
13.0
 40
13.0
 40
14.0
 40
14.0
 40
14.0
 40
14.0
 10
15.282357449001735
 20
-24.732771131727429
 30
0.0
 10
15.282357449001735
 20
-24.732771131727429
 30
0.0
 10
11.482761637369791
 20
-24.732771131727429
 30
0.0
 10
11.482761637369791
 20
-24.732771131727429
 30
0.0
 10
11.482761637369791
 20
-24.732771131727429
 30
0.0
 10
11.482761637369791
 20
-22.619205050998261
 30
0.0
 10
11.482761637369791
 20
-22.619205050998261
 30
0.0
 10
11.482761637369791
 20
-22.619205050998261
 30
0.0
 10
18.295093451605901
 20
-22.619205050998261
 30
0.0
 10
18.295093451605901
 20
-22.619205050998261
 30
0.0
 10
18.295093451605901
 20
-22.619205050998261
 30
0.0
 10
18.295093451605901
 20
-11.303788926866318
 30
0.0
 10
18.295093451605901
 20
-11.303788926866318
 30
0.0
 10
18.295093451605901
 20
-11.303788926866318
 30
0.0
 10
21.2127448187934
 20
-11.303788926866318
 30
0.0
 10
21.2127448187934
 20
-11.303788926866318
 30
0.0
 10
21.2127448187934
 20
-11.303788926866318
 30
0.0
 10
25.524281819661457
 20
-12.359710693359373
 30
0.0
 10
25.524281819661457
 20
-12.359710693359373
 30
0.0
 10
25.524281819661457
 20
-12.359710693359373
 30
0.0
 10
25.524281819661457
 20
-13.221673583984375
 30
0.0
 10
25.524281819661457
 20
-13.221673583984375
 30
0.0
 10
25.524281819661457
 20
-13.221673583984375
 30
0.0
 10
19.546007622612844
 20
-13.221673583984375
 30
0.0
 10
19.546007622612844
 20
-13.221673583984375
 30
0.0
 10
19.546007622612844
 20
-13.221673583984375
 30
0.0
 10
19.546007622612844
 20
-24.732771131727429
 30
0.0
 10
19.546007622612844
 20
-24.732771131727429
 30
0.0
 10
19.546007622612844
 20
-24.732771131727429
 30
0.0
 10
18.295093451605901
 20
-24.732771131727429
 30
0.0
 10
18.295093451605901
 20
-24.732771131727429
 30
0.0
 10
18.295093451605901
 20
-24.732771131727429
 30
0.0
 10
18.295093451605901
 20
-32.560028076171875
 30
0.0
 10
18.295093451605901
 20
-32.560028076171875
 30
0.0
 10
18.295093451605901
 20
-32.560028076171875
 30
0.0
 10
16.503643798828122
 20
-32.560028076171875
 30
0.0
 10
16.503643798828122
 20
-32.560028076171875
 30
0.0
 10
16.503643798828122
 20
-32.560028076171875
 30
0.0
 10
16.503643798828122
 20
-25.954057481553818
 30
0.0
 10
16.503643798828122
 20
-25.954057481553818
 30
0.0
 10
16.503643798828122
 20
-25.279507785373262
 30
0.0
 10
15.956562635633679
 20
-24.732771131727429
 30
0.0
 10
15.282357449001735
 20
-24.732771131727429
 30
0.0
  0
POLYLINE
  5
8F
100
AcDbEntity
  8
LIVELLO_1
 62
     7
100
AcDb2dPolyline
 66
     1
 10
0.0
 20
0.0
 30
0.0
 70
     1
  0
VERTEX
  5
90
100
AcDbEntity
  8
LIVELLO_1
 62
     7
100
AcDbVertex
100
AcDb2dVertex
 10
-29.469433
 20
-13.221674
 30
0.0
  0
VERTEX
  5
91
100
AcDbEntity
  8
LIVELLO_1
 62
     7
100
AcDbVertex
100
AcDb2dVertex
 10
-35.448568
 20
-13.221674
 30
0.0
  0
VERTEX
  5
92
100
AcDbEntity
  8
LIVELLO_1
 62
     7
100
AcDbVertex
100
AcDb2dVertex
 10
-35.448568
 20
-12.359711
 30
0.0
  0
VERTEX
  5
93
100
AcDbEntity
  8
LIVELLO_1
 62
     7
100
AcDbVertex
100
AcDb2dVertex
 10
-31.138582
 20
-11.303789
 30
0.0
  0
VERTEX
  5
94
100
AcDbEntity
  8
LIVELLO_1
 62
     7
100
AcDbVertex
100
AcDb2dVertex
 10
-28.21938
 20
-11.303789
 30
0.0
  0
VERTEX
  5
95
100
AcDbEntity
  8
LIVELLO_1
 62
     7
100
AcDbVertex
100
AcDb2dVertex
 10
-28.21938
 20
-22.619205
 30
0.0
  0
VERTEX
  5
96
100
AcDbEntity
  8
LIVELLO_1
 62
     7
100
AcDbVertex
100
AcDb2dVertex
 10
-21.406187
 20
-22.619205
 30
0.0
  0
VERTEX
  5
97
100
AcDbEntity
  8
LIVELLO_1
 62
     7
100
AcDbVertex
100
AcDb2dVertex
 10
-21.406187
 20
-29.181078
 30
0.0
  0
VERTEX
  5
98
100
AcDbEntity
  8
LIVELLO_1
 62
     7
100
AcDbVertex
100
AcDb2dVertex
 10
-22.323788
 20
-30.098852
 30
0.0
  0
VERTEX
  5
99
100
AcDbEntity
  8
LIVELLO_1
 62
     7
100
AcDbVertex
100
AcDb2dVertex
 10
-24.855761
 20
-30.098852
 30
0.0
  0
VERTEX
  5
9A
100
AcDbEntity
  8
LIVELLO_1
 62
     7
100
AcDbVertex
100
AcDb2dVertex
 10
-25.771812
 20
-29.181078
 30
0.0
  0
VERTEX
  5
9B
100
AcDbEntity
  8
LIVELLO_1
 62
     7
100
AcDbVertex
100
AcDb2dVertex
 10
-25.771812
 20
-24.732771
 30
0.0
  0
VERTEX
  5
9C
100
AcDbEntity
  8
LIVELLO_1
 62
     7
100
AcDbVertex
100
AcDb2dVertex
 10
-29.469433
 20
-24.732771
 30
0.0
  0
SEQEND
  5
9D
100
AcDbEntity
  8
LIVELLO_1
 62
     7
  0
SPLINE
  5
8E
100
AcDbEntity
  8
LIVELLO_1
 62
     7
100
AcDbSpline
210
0.0
220
0.0
230
1.0
 70
     8
 71
     3
 72
    29
 73
    25
 74
     0
 42
0.00000001
 43
0.00000001
 40
0.0
 40
0.0
 40
0.0
 40
0.0
 40
1.0
 40
1.0
 40
1.0
 40
2.0
 40
2.0
 40
2.0
 40
3.0
 40
3.0
 40
3.0
 40
4.0
 40
4.0
 40
4.0
 40
5.0
 40
5.0
 40
5.0
 40
6.0
 40
6.0
 40
6.0
 40
7.0
 40
7.0
 40
7.0
 40
8.0
 40
8.0
 40
8.0
 40
8.0
 10
-27.113676622178819
 20
-11.303788926866318
 30
0.0
 10
-27.113676622178819
 20
-11.303788926866318
 30
0.0
 10
17.189562310112844
 20
-11.303788926866318
 30
0.0
 10
17.189562310112844
 20
-11.303788926866318
 30
0.0
 10
17.526148139105903
 20
-11.303788926866318
 30
0.0
 10
17.799344211154512
 20
-11.576984998914929
 30
0.0
 10
17.799344211154512
 20
-11.912537299262151
 30
0.0
 10
17.799344211154512
 20
-11.912537299262151
 30
0.0
 10
17.799344211154512
 20
-16.974760606553819
 30
0.0
 10
17.799344211154512
 20
-16.974760606553819
 30
0.0
 10
17.799344211154512
 20
-17.310657416449651
 30
0.0
 10
17.526148139105903
 20
-17.585576036241317
 30
0.0
 10
17.189562310112844
 20
-17.585576036241317
 30
0.0
 10
17.189562310112844
 20
-17.585576036241317
 30
0.0
 10
-27.113676622178819
 20
-17.585576036241317
 30
0.0
 10
-27.113676622178819
 20
-17.585576036241317
 30
0.0
 10
-27.450262451171874
 20
-17.585576036241317
 30
0.0
 10
-27.72518107096354
 20
-17.310657416449651
 30
0.0
 10
-27.72518107096354
 20
-16.974760606553819
 30
0.0
 10
-27.72518107096354
 20
-16.974760606553819
 30
0.0
 10
-27.72518107096354
 20
-11.912537299262151
 30
0.0
 10
-27.72518107096354
 20
-11.912537299262151
 30
0.0
 10
-27.72518107096354
 20
-11.576984998914929
 30
0.0
 10
-27.450262451171874
 20
-11.303788926866318
 30
0.0
 10
-27.113676622178819
 20
-11.303788926866318
 30
0.0
  0
LINE
  5
8D
100
AcDbEntity
  8
LIVELLO_1
 62
     7
100
AcDbLine
 10
-16.797683
 20
-106.456637
 30
0.0
 11
-28.030417
 21
-106.456637
 31
0.0
  0
LINE
  5
8C
100
AcDbEntity
  8
LIVELLO_1
 62
     7
100
AcDbLine
 10
17.947828
 20
-106.456637
 30
0.0
 11
7.547257
 21
-106.456637
 31
0.0
  0
LINE
  5
8B
100
AcDbEntity
  8
LIVELLO_1
 62
     7
100
AcDbLine
 10
18.295093
 20
-111.485443
 30
0.0
 11
18.295093
 21
-101.693104
 31
0.0
  0
LINE
  5
8A
100
AcDbEntity
  8
LIVELLO_1
 62
     7
100
AcDbLine
 10
-28.21938
 20
-111.488544
 30
0.0
 11
-28.21938
 21
-101.696204
 31
0.0
  0
MTEXT
  5
89
100
AcDbEntity
  8
LIVELLO_1
 62
     7
100
AcDbMText
 10
-16.761509
 20
-100.876358
 30
0.0
 40
7.711415
 41
0.0
 71
     1
 72
     2
  1
\fCourier|b0|i0;\H7.7114;\C7;\U+00F8\U+0020\U+0038\U+0030
  7
STD
210
0.0
220
0.0
230
1.0
 73
     1
 44
1.0
  0
INSERT
  5
7E
100
AcDbEntity
  8
LIVELLO_1
 62
     7
100
AcDbBlockReference
  2
AI9-BLK6
 10
-37.399784
 20
-56.870344
 30
0.0
  0
INSERT
  5
72
100
AcDbEntity
  8
LIVELLO_1
 62
     7
100
AcDbBlockReference
  2
AI9-BLK3
 10
28.884111
 20
-56.871033
 30
0.0
  0
INSERT
  5
44
100
AcDbEntity
  8
LIVELLO_1
 62
     7
100
AcDbBlockReference
  2
AI9-BLK2
 10
-7.284568
 20
-94.175044
 30
0.0
  0
LINE
  5
42
100
AcDbEntity
  8
LIVELLO_1
 62
     7
100
AcDbLine
 10
-20.652917
 20
105.473407
 30
0.0
 11
-34.334252
 21
105.473407
 31
0.0
  0
LINE
  5
41
100
AcDbEntity
  8
LIVELLO_1
 62
     7
100
AcDbLine
 10
26.005906
 20
105.473407
 30
0.0
 11
13.485912
 21
105.473407
 31
0.0
  0
CIRCLE
  5
40
100
AcDbEntity
  8
LIVELLO_1
 62
     7
100
AcDbCircle
 10
-4.084419
 20
66.596021
 30
0.0
 40
30.437935
  0
CIRCLE
  5
3F
100
AcDbEntity
  8
LIVELLO_1
 62
     7
100
AcDbCircle
 10
-4.08373
 20
66.596021
 30
0.0
 40
26.98905
  0
CIRCLE
  5
3E
100
AcDbEntity
  8
LIVELLO_1
 62
     7
100
AcDbCircle
 10
-4.084591
 20
66.596021
 30
0.0
 40
23.326053
  0
CIRCLE
  5
3D
100
AcDbEntity
  8
LIVELLO_1
 62
     7
100
AcDbCircle
 10
-4.084505
 20
66.596021
 30
0.0
 40
22.571146
  0
CIRCLE
  5
3C
100
AcDbEntity
  8
LIVELLO_1
 62
     7
100
AcDbCircle
 10
-22.777163
 20
66.596021
 30
0.0
 40
1.831585
  0
CIRCLE
  5
3B
100
AcDbEntity
  8
LIVELLO_1
 62
     7
100
AcDbCircle
 10
14.608927
 20
66.596021
 30
0.0
 40
1.830638
  0
SPLINE
  5
3A
100
AcDbEntity
  8
LIVELLO_1
 62
     7
100
AcDbSpline
210
0.0
220
0.0
230
1.0
 70
     8
 71
     3
 72
    41
 73
    37
 74
     0
 42
0.00000001
 43
0.00000001
 40
0.0
 40
0.0
 40
0.0
 40
0.0
 40
1.0
 40
1.0
 40
1.0
 40
2.0
 40
2.0
 40
2.0
 40
3.0
 40
3.0
 40
3.0
 40
4.0
 40
4.0
 40
4.0
 40
5.0
 40
5.0
 40
5.0
 40
6.0
 40
6.0
 40
6.0
 40
7.0
 40
7.0
 40
7.0
 40
8.0
 40
8.0
 40
8.0
 40
9.0
 40
9.0
 40
9.0
 40
10.0
 40
10.0
 40
10.0
 40
11.0
 40
11.0
 40
11.0
 40
12.0
 40
12.0
 40
12.0
 40
12.0
 10
12.796893310546874
 20
81.582358805338529
 30
0.0
 10
12.796893310546874
 20
81.582358805338529
 30
0.0
 10
-2.1875495062934025
 20
66.596021185980902
 30
0.0
 10
-2.1875495062934025
 20
66.596021185980902
 30
0.0
 10
-2.1875495062934025
 20
66.596021185980902
 30
0.0
 10
12.796893310546874
 20
51.611578369140624
 30
0.0
 10
12.796893310546874
 20
51.611578369140624
 30
0.0
 10
12.203131103515624
 20
50.943574354383678
 30
0.0
 10
11.570611572265625
 20
50.311054823133674
 30
0.0
 10
10.900023735894097
 20
49.717292616102426
 30
0.0
 10
10.900023735894097
 20
49.717292616102426
 30
0.0
 10
-4.08441908094618
 20
64.701735432942698
 30
0.0
 10
-4.08441908094618
 20
64.701735432942698
 30
0.0
 10
-4.08441908094618
 20
64.701735432942698
 30
0.0
 10
-19.069034152560761
 20
49.717292616102426
 30
0.0
 10
-19.069034152560761
 20
49.717292616102426
 30
0.0
 10
-19.737899441189235
 20
50.311054823133674
 30
0.0
 10
-20.372141520182289
 20
50.943574354383678
 30
0.0
 10
-20.964181179470483
 20
51.611578369140624
 30
0.0
 10
-20.964181179470483
 20
51.611578369140624
 30
0.0
 10
-5.9814609103732632
 20
66.596021185980902
 30
0.0
 10
-5.9814609103732632
 20
66.596021185980902
 30
0.0
 10
-5.9814609103732632
 20
66.596021185980902
 30
0.0
 10
-20.964181179470483
 20
81.582358805338529
 30
0.0
 10
-20.964181179470483
 20
81.582358805338529
 30
0.0
 10
-20.372141520182289
 20
82.251913113064234
 30
0.0
 10
-19.737899441189235
 20
82.884604899088529
 30
0.0
 10
-19.069034152560761
 20
83.480089653862834
 30
0.0
 10
-19.069034152560761
 20
83.480089653862834
 30
0.0
 10
-4.08441908094618
 20
68.493924289279505
 30
0.0
 10
-4.08441908094618
 20
68.493924289279505
 30
0.0
 10
-4.08441908094618
 20
68.493924289279505
 30
0.0
 10
10.900023735894097
 20
83.480089653862834
 30
0.0
 10
10.900023735894097
 20
83.480089653862834
 30
0.0
 10
11.568889024522568
 20
82.884604899088529
 30
0.0
 10
12.203131103515624
 20
82.251913113064234
 30
0.0
 10
12.796893310546874
 20
81.582358805338529
 30
0.0
  0
SPLINE
  5
39
100
AcDbEntity
  8
LIVELLO_1
 62
     7
100
AcDbSpline
210
0.0
220
0.0
230
1.0
 70
     8
 71
     3
 72
    17
 73
    13
 74
     0
 42
0.00000001
 43
0.00000001
 40
0.0
 40
0.0
 40
0.0
 40
0.0
 40
1.0
 40
1.0
 40
1.0
 40
2.0
 40
2.0
 40
2.0
 40
3.0
 40
3.0
 40
3.0
 40
4.0
 40
4.0
 40
4.0
 40
4.0
 10
-18.007083468967011
 20
66.596021185980902
 30
0.0
 10
-18.007083468967011
 20
69.959812418619791
 30
0.0
 10
-16.816975233289931
 20
73.043345133463532
 30
0.0
 10
-14.832427978515623
 20
75.447160508897568
 30
0.0
 10
-14.832427978515623
 20
75.447160508897568
 30
0.0
 10
-5.9814609103732632
 20
66.596021185980902
 30
0.0
 10
-5.9814609103732632
 20
66.596021185980902
 30
0.0
 10
-5.9814609103732632
 20
66.596021185980902
 30
0.0
 10
-14.832427978515623
 20
57.745054117838535
 30
0.0
 10
-14.832427978515623
 20
57.745054117838535
 30
0.0
 10
-16.816975233289931
 20
60.152314588758678
 30
0.0
 10
-18.007083468967011
 20
63.235847303602426
 30
0.0
 10
-18.007083468967011
 20
66.596021185980902
 30
0.0
  0
SPLINE
  5
38
100
AcDbEntity
  8
LIVELLO_1
 62
     7
100
AcDbSpline
210
0.0
220
0.0
230
1.0
 70
     8
 71
     3
 72
    17
 73
    13
 74
     0
 42
0.00000001
 43
0.00000001
 40
0.0
 40
0.0
 40
0.0
 40
0.0
 40
1.0
 40
1.0
 40
1.0
 40
2.0
 40
2.0
 40
2.0
 40
3.0
 40
3.0
 40
3.0
 40
4.0
 40
4.0
 40
4.0
 40
4.0
 10
4.7682705349392354
 20
55.849045817057288
 30
0.0
 10
2.3618713378906246
 20
53.863637288411454
 30
0.0
 10
-0.7233839246961805
 20
52.674390326605895
 30
0.0
 10
-4.08441908094618
 20
52.674390326605895
 30
0.0
 10
-7.4456264919704855
 20
52.674390326605895
 30
0.0
 10
-10.529159206814235
 20
53.863637288411454
 30
0.0
 10
-12.935558403862846
 20
55.849045817057288
 30
0.0
 10
-12.935558403862846
 20
55.849045817057288
 30
0.0
 10
-4.08441908094618
 20
64.701735432942698
 30
0.0
 10
-4.08441908094618
 20
64.701735432942698
 30
0.0
 10
-4.08441908094618
 20
64.701735432942698
 30
0.0
 10
4.7682705349392354
 20
55.849045817057288
 30
0.0
 10
4.7682705349392354
 20
55.849045817057288
 30
0.0
  0
SPLINE
  5
37
100
AcDbEntity
  8
LIVELLO_1
 62
     7
100
AcDbSpline
210
0.0
220
0.0
230
1.0
 70
     8
 71
     3
 72
    17
 73
    13
 74
     0
 42
0.00000001
 43
0.00000001
 40
0.0
 40
0.0
 40
0.0
 40
0.0
 40
1.0
 40
1.0
 40
1.0
 40
2.0
 40
2.0
 40
2.0
 40
3.0
 40
3.0
 40
3.0
 40
4.0
 40
4.0
 40
4.0
 40
4.0
 10
6.6651401095920129
 20
75.447160508897568
 30
0.0
 10
8.6479648166232632
 20
73.043345133463532
 30
0.0
 10
9.8397956000434021
 20
69.959812418619791
 30
0.0
 10
9.8397956000434021
 20
66.596021185980902
 30
0.0
 10
9.8397956000434021
 20
63.235847303602426
 30
0.0
 10
8.6479648166232632
 20
60.152314588758678
 30
0.0
 10
6.6651401095920129
 20
57.745054117838535
 30
0.0
 10
6.6651401095920129
 20
57.745054117838535
 30
0.0
 10
-2.1875495062934025
 20
66.596021185980902
 30
0.0
 10
-2.1875495062934025
 20
66.596021185980902
 30
0.0
 10
-2.1875495062934025
 20
66.596021185980902
 30
0.0
 10
6.6651401095920129
 20
75.447160508897568
 30
0.0
 10
6.6651401095920129
 20
75.447160508897568
 30
0.0
  0
SPLINE
  5
36
100
AcDbEntity
  8
LIVELLO_1
 62
     7
100
AcDbSpline
210
0.0
220
0.0
230
1.0
 70
     8
 71
     3
 72
    17
 73
    13
 74
     0
 42
0.00000001
 43
0.00000001
 40
0.0
 40
0.0
 40
0.0
 40
0.0
 40
1.0
 40
1.0
 40
1.0
 40
2.0
 40
2.0
 40
2.0
 40
3.0
 40
3.0
 40
3.0
 40
4.0
 40
4.0
 40
4.0
 40
4.0
 10
-12.935558403862846
 20
77.346613905164929
 30
0.0
 10
-10.529159206814235
 20
79.328577338324649
 30
0.0
 10
-7.4456264919704855
 20
80.521269395616315
 30
0.0
 10
-4.08441908094618
 20
80.521269395616315
 30
0.0
 10
-0.7233839246961805
 20
80.521269395616315
 30
0.0
 10
2.3618713378906246
 20
79.328577338324649
 30
0.0
 10
4.7682705349392354
 20
77.346613905164929
 30
0.0
 10
4.7682705349392354
 20
77.346613905164929
 30
0.0
 10
-4.08441908094618
 20
68.493924289279505
 30
0.0
 10
-4.08441908094618
 20
68.493924289279505
 30
0.0
 10
-4.08441908094618
 20
68.493924289279505
 30
0.0
 10
-12.935558403862846
 20
77.346613905164929
 30
0.0
 10
-12.935558403862846
 20
77.346613905164929
 30
0.0
  0
LINE
  5
35
100
AcDbEntity
  8
LIVELLO_1
 62
     7
100
AcDbLine
 10
17.289815
 20
41.691081
 30
0.0
 11
28.581804
 21
30.392546
 31
0.0
  0
SPLINE
  5
34
100
AcDbEntity
  8
LIVELLO_1
 62
     7
100
AcDbSpline
210
0.0
220
0.0
230
1.0
 70
     8
 71
     3
 72
     8
 73
     4
 74
     0
 42
0.00000001
 43
0.00000001
 40
0.0
 40
0.0
 40
0.0
 40
0.0
 40
1.0
 40
1.0
 40
1.0
 40
1.0
 10
26.123039415147566
 20
32.556755235460066
 30
0.0
 10
22.599395751953121
 20
29.230171034071176
 30
0.0
 10
18.48664076063368
 20
26.475472683376733
 30
0.0
 10
14.036783175998263
 20
24.439421251085069
 30
0.0
  0
SPLINE
  5
33
100
AcDbEntity
  8
LIVELLO_1
 62
     7
100
AcDbSpline
210
0.0
220
0.0
230
1.0
 70
     8
 71
     3
 72
     8
 73
     4
 74
     0
 42
0.00000001
 43
0.00000001
 40
0.0
 40
0.0
 40
0.0
 40
0.0
 40
1.0
 40
1.0
 40
1.0
 40
1.0
 10
-34.290499538845481
 20
32.556755235460066
 30
0.0
 10
-30.76909518771701
 20
29.230171034071176
 30
0.0
 10
-26.655651177300346
 20
26.475472683376733
 30
0.0
 10
-22.2049323187934
 20
24.439421251085069
 30
0.0
  0
LINE
  5
32
100
AcDbEntity
  8
LIVELLO_1
 62
     7
100
AcDbLine
 10
-25.457102
 20
41.691081
 30
0.0
 11
-36.750814
 21
30.392546
 31
0.0
  0
MTEXT
  5
31
100
AcDbEntity
  8
LIVELLO_1
 62
     7
100
AcDbMText
 10
-17.502894
 20
27.310822
 30
0.0
 40
7.711415
 41
0.0
 71
     1
 72
     2
  1
\fCourier|b0|i0;\H7.7114;\C7;\U+0036\U+0033
  7
STD
210
0.0
220
0.0
230
1.0
 73
     1
 44
1.0
  0
MTEXT
  5
30
100
AcDbEntity
  8
LIVELLO_1
 62
     7
100
AcDbMText
 10
-6.650326
 20
27.713898
 30
0.0
 40
7.711415
 41
0.0
 71
     1
 72
     2
  1
\fSymbol|b0|i0;\H7.7114;\C7;\U+00B0
  7
STD
210
0.0
220
0.0
230
1.0
 73
     1
 44
1.0
  0
MTEXT
  5
2F
100
AcDbEntity
  8
LIVELLO_1
 62
     7
100
AcDbMText
 10
-2.727568
 20
27.310822
 30
0.0
 40
7.711415
 41
0.0
 71
     1
 72
     2
  1
\fCourier|b0|i0;\H7.7114;\C7;\U+0078\U+0034
  7
STD
210
0.0
220
0.0
230
1.0
 73
     1
 44
1.0
  0
LINE
  5
2E
100
AcDbEntity
  8
LIVELLO_1
 62
     7
100
AcDbLine
 10
26.353516
 20
100.446496
 30
0.0
 11
26.353516
 21
110.238835
 31
0.0
  0
LINE
  5
2D
100
AcDbEntity
  8
LIVELLO_1
 62
     7
100
AcDbLine
 10
-34.522354
 20
100.443223
 30
0.0
 11
-34.522354
 21
110.235562
 31
0.0
  0
MTEXT
  5
2C
100
AcDbEntity
  8
LIVELLO_1
 62
     7
100
AcDbMText
 10
-17.20007
 20
111.053858
 30
0.0
 40
7.711415
 41
0.0
 71
     1
 72
     2
  1
\fCourier|b0|i0;\H7.7114;\C7;\U+00F8\U+0020\U+0031\U+0030\U+0030
  7
STD
210
0.0
220
0.0
230
1.0
 73
     1
 44
1.0
  0
ENDBLK
  5
137
100
AcDbEntity
  8
LIVELLO_1
100
AcDbBlockEnd
  0
BLOCK
  5
45
100
AcDbEntity
  8
LIVELLO_1
 62
     7
100
AcDbBlockBegin
  2
AI9-BLK2
 70
     0
 10
0.0
 20
0.0
 30
0.0
  3
AI9-BLK2
  1

  0
POLYLINE
  5
69
100
AcDbEntity
  8
LIVELLO_1
 62
     7
100
AcDb2dPolyline
 66
     1
 10
0.0
 20
0.0
 30
0.0
 70
     1
  0
VERTEX
  5
6A
100
AcDbEntity
  8
LIVELLO_1
 62
     7
100
AcDbVertex
100
AcDb2dVertex
 10
-14.979275
 20
10.566969
 30
0.0
  0
VERTEX
  5
6B
100
AcDbEntity
  8
LIVELLO_1
 62
     7
100
AcDbVertex
100
AcDb2dVertex
 10
-16.418292
 20
9.851767
 30
0.0
  0
VERTEX
  5
6C
100
AcDbEntity
  8
LIVELLO_1
 62
     7
100
AcDbVertex
100
AcDb2dVertex
 10
-16.778476
 20
8.419641
 30
0.0
  0
VERTEX
  5
6D
100
AcDbEntity
  8
LIVELLO_1
 62
     7
100
AcDbVertex
100
AcDb2dVertex
 10
-14.979275
 20
7.704439
 30
0.0
  0
VERTEX
  5
6E
100
AcDbEntity
  8
LIVELLO_1
 62
     7
100
AcDbVertex
100
AcDb2dVertex
 10
-14.259939
 20
9.494166
 30
0.0
  0
SEQEND
  5
6F
100
AcDbEntity
  8
LIVELLO_1
 62
     7
  0
SPLINE
  5
68
100
AcDbEntity
  8
LIVELLO_1
 62
     7
100
AcDbSpline
210
0.0
220
0.0
230
1.0
 70
     8
 71
     3
 72
    17
 73
    13
 74
     0
 42
0.00000001
 43
0.00000001
 40
0.0
 40
0.0
 40
0.0
 40
0.0
 40
1.0
 40
1.0
 40
1.0
 40
2.0
 40
2.0
 40
2.0
 40
3.0
 40
3.0
 40
3.0
 40
4.0
 40
4.0
 40
4.0
 40
4.0
 10
-6.9177517361111107
 20
0.7408677842881943
 30
0.0
 10
-6.9177517361111107
 20
0.7408677842881943
 30
0.0
 10
-5.7538262261284716
 20
0.6395819769965278
 30
0.0
 10
-5.7538262261284716
 20
0.6395819769965278
 30
0.0
 10
-5.7538262261284716
 20
0.6395819769965278
 30
0.0
 10
-6.3603352864583327
 20
-2.1805731879340278
 30
0.0
 10
-6.3603352864583327
 20
-2.1805731879340278
 30
0.0
 10
-7.1210123697916661
 20
-1.57664794921875
 30
0.0
 10
-8.1728000217013879
 20
-1.214223904079861
 30
0.0
 10
-8.0868448893229168
 20
-0.2358167860243055
 30
0.0
 10
-8.0403361002604168
 20
0.2988620334201388
 30
0.0
 10
-7.135309516059027
 20
0.3126424153645833
 30
0.0
 10
-6.9177517361111107
 20
0.7408677842881943
 30
0.0
  0
SPLINE
  5
67
100
AcDbEntity
  8
LIVELLO_1
 62
     7
100
AcDbSpline
210
0.0
220
0.0
230
1.0
 70
     8
 71
     3
 72
    14
 73
    10
 74
     0
 42
0.00000001
 43
0.00000001
 40
0.0
 40
0.0
 40
0.0
 40
0.0
 40
1.0
 40
1.0
 40
1.0
 40
2.0
 40
2.0
 40
2.0
 40
3.0
 40
3.0
 40
3.0
 40
3.0
 10
-8.1728000217013879
 20
8.328346082899305
 30
0.0
 10
-8.815482584635415
 20
8.2053561740451375
 30
0.0
 10
-9.3114040798611111
 20
7.7096069335937489
 30
0.0
 10
-10.027467176649305
 20
7.770240614149305
 30
0.0
 10
-11.908317057291665
 20
7.935605197482638
 30
0.0
 10
-12.664171006944443
 20
9.6188788519965271
 30
0.0
 10
-13.321150716145832
 20
11.381734212239582
 30
0.0
 10
-11.04308132595486
 20
11.631503634982638
 30
0.0
 10
-9.1646430121527764
 20
10.389891221788194
 30
0.0
 10
-8.1728000217013879
 20
8.328346082899305
 30
0.0
  0
SPLINE
  5
66
100
AcDbEntity
  8
LIVELLO_1
 62
     7
100
AcDbSpline
210
0.0
220
0.0
230
1.0
 70
     8
 71
     3
 72
    17
 73
    13
 74
     0
 42
0.00000001
 43
0.00000001
 40
0.0
 40
0.0
 40
0.0
 40
0.0
 40
1.0
 40
1.0
 40
1.0
 40
2.0
 40
2.0
 40
2.0
 40
3.0
 40
3.0
 40
3.0
 40
4.0
 40
4.0
 40
4.0
 40
4.0
 10
-23.362226019965277
 20
8.2897610134548607
 30
0.0
 10
-22.315606011284721
 20
7.9776353624131939
 30
0.0
 10
-21.633993869357639
 20
7.6655097113715271
 30
0.0
 10
-20.535869683159721
 20
7.6655097113715271
 30
0.0
 10
-19.070842827690971
 20
7.6655097113715271
 30
0.0
 10
-17.815794542100694
 20
8.7569159613715275
 30
0.0
 10
-17.815794542100694
 20
10.214535861545137
 30
0.0
 10
-17.815794542100694
 20
10.683413357204859
 30
0.0
 10
-17.867298719618052
 20
10.943173556857637
 30
0.0
 10
-17.815794542100694
 20
11.412051052517359
 30
0.0
 10
-20.273525661892361
 20
11.412051052517359
 30
0.0
 10
-23.153108723958333
 20
10.735778808593748
 30
0.0
 10
-23.362226019965277
 20
8.2897610134548607
 30
0.0
  0
SPLINE
  5
65
100
AcDbEntity
  8
LIVELLO_1
 62
     7
100
AcDbSpline
210
0.0
220
0.0
230
1.0
 70
     8
 71
     3
 72
    23
 73
    19
 74
     0
 42
0.00000001
 43
0.00000001
 40
0.0
 40
0.0
 40
0.0
 40
0.0
 40
1.0
 40
1.0
 40
1.0
 40
2.0
 40
2.0
 40
2.0
 40
3.0
 40
3.0
 40
3.0
 40
4.0
 40
4.0
 40
4.0
 40
5.0
 40
5.0
 40
5.0
 40
6.0
 40
6.0
 40
6.0
 40
6.0
 10
25.433934190538192
 20
-4.3837117513020827
 30
0.0
 10
25.433934190538192
 20
-4.3837117513020827
 30
0.0
 10
25.635472276475692
 20
-6.1954874674479159
 30
0.0
 10
25.635472276475692
 20
-6.1954874674479159
 30
0.0
 10
24.519605848524304
 20
-6.546198187934027
 30
0.0
 10
23.780632866753471
 20
-6.752214898003472
 30
0.0
 10
22.674068196614581
 20
-7.0154201931423605
 30
0.0
 10
22.674068196614581
 20
-7.0154201931423605
 30
0.0
 10
21.273292371961805
 20
-6.5344848632812491
 30
0.0
 10
21.273292371961805
 20
-6.5344848632812491
 30
0.0
 10
21.273292371961805
 20
-6.5344848632812491
 30
0.0
 10
20.681941731770831
 20
-5.0451700846354166
 30
0.0
 10
20.681941731770831
 20
-5.0451700846354166
 30
0.0
 10
20.681941731770831
 20
-5.0451700846354166
 30
0.0
 10
22.56864827473958
 20
-4.1308417426215271
 30
0.0
 10
22.56864827473958
 20
-4.1308417426215271
 30
0.0
 10
22.56864827473958
 20
-4.1308417426215271
 30
0.0
 10
23.753761121961805
 20
-3.9671997070312495
 30
0.0
 10
25.433934190538192
 20
-4.3837117513020827
 30
0.0
  0
SPLINE
  5
64
100
AcDbEntity
  8
LIVELLO_1
 62
     7
100
AcDbSpline
210
0.0
220
0.0
230
1.0
 70
     8
 71
     3
 72
    17
 73
    13
 74
     0
 42
0.00000001
 43
0.00000001
 40
0.0
 40
0.0
 40
0.0
 40
0.0
 40
1.0
 40
1.0
 40
1.0
 40
2.0
 40
2.0
 40
2.0
 40
3.0
 40
3.0
 40
3.0
 40
4.0
 40
4.0
 40
4.0
 40
4.0
 10
25.168317328559027
 20
11.400337727864581
 30
0.0
 10
26.228373209635414
 20
10.314099121093749
 30
0.0
 10
26.730323621961801
 20
9.4352552625868054
 30
0.0
 10
27.561969672309026
 20
8.1598809136284718
 30
0.0
 10
26.41578640407986
 20
7.0581393771701384
 30
0.0
 10
25.192777506510414
 20
6.9031100802951384
 30
0.0
 10
23.575649685329861
 20
7.0429809570312489
 30
0.0
 10
22.272714572482638
 20
7.1559800889756939
 30
0.0
 10
20.74946560329861
 20
7.7599053276909711
 30
0.0
 10
20.864187282986109
 20
9.0573282877604164
 30
0.0
 10
21.001646592881944
 20
10.610721842447916
 30
0.0
 10
23.604588487413192
 20
11.537108018663194
 30
0.0
 10
25.168317328559027
 20
11.400337727864581
 30
0.0
  0
SPLINE
  5
63
100
AcDbEntity
  8
LIVELLO_1
 62
     7
100
AcDbSpline
210
0.0
220
0.0
230
1.0
 70
     8
 71
     3
 72
    17
 73
    13
 74
     0
 42
0.00000001
 43
0.00000001
 40
0.0
 40
0.0
 40
0.0
 40
0.0
 40
1.0
 40
1.0
 40
1.0
 40
2.0
 40
2.0
 40
2.0
 40
3.0
 40
3.0
 40
3.0
 40
4.0
 40
4.0
 40
4.0
 40
4.0
 10
24.914413791232636
 20
5.2398179796006943
 30
0.0
 10
25.974469672309027
 20
4.1535793728298609
 30
0.0
 10
26.828164333767358
 20
4.1938869900173605
 30
0.0
 10
27.661532931857636
 20
2.9202351888020832
 30
0.0
 10
26.513627115885413
 20
1.8171156141493054
 30
0.0
 10
25.71815456814236
 20
2.6742553710937496
 30
0.0
 10
24.102060275607638
 20
2.8158487955729163
 30
0.0
 10
22.797402615017358
 20
2.9288479275173609
 30
0.0
 10
19.927121310763887
 20
3.9427395290798608
 30
0.0
 10
20.039259168836804
 20
5.2398179796006943
 30
0.0
 10
20.178441026475692
 20
6.7952785915798604
 30
0.0
 10
23.350684950086805
 20
5.3765882703993046
 30
0.0
 10
24.914413791232636
 20
5.2398179796006943
 30
0.0
  0
SPLINE
  5
62
100
AcDbEntity
  8
LIVELLO_1
 62
     7
100
AcDbSpline
210
0.0
220
0.0
230
1.0
 70
     8
 71
     3
 72
    20
 73
    16
 74
     0
 42
0.00000001
 43
0.00000001
 40
0.0
 40
0.0
 40
0.0
 40
0.0
 40
1.0
 40
1.0
 40
1.0
 40
2.0
 40
2.0
 40
2.0
 40
3.0
 40
3.0
 40
3.0
 40
4.0
 40
4.0
 40
4.0
 40
5.0
 40
5.0
 40
5.0
 40
5.0
 10
27.788656955295135
 20
1.6131659613715277
 30
0.0
 10
27.383169216579859
 20
-0.9561862521701388
 30
0.0
 10
26.292451985677079
 20
-3.0645846896701388
 30
0.0
 10
23.695539008246527
 20
-2.8403089735243054
 30
0.0
 10
21.903400336371526
 20
-2.684935167100694
 30
0.0
 10
21.231951226128469
 20
-2.1268296983506945
 30
0.0
 10
20.371538628472219
 20
-0.6151217990451389
 30
0.0
 10
20.371538628472219
 20
-0.6151217990451389
 30
0.0
 10
20.885202365451388
 20
1.1356757269965276
 30
0.0
 10
20.885202365451388
 20
1.1356757269965276
 30
0.0
 10
22.792234971788194
 20
1.2404066297743055
 30
0.0
 10
23.800269911024305
 20
1.4209296332465275
 30
0.0
 10
25.637194824218749
 20
1.7985120985243055
 30
0.0
 10
25.637194824218749
 20
1.7985120985243055
 30
0.0
 10
27.788656955295135
 20
1.6131659613715277
 30
0.0
 10
27.788656955295135
 20
1.6131659613715277
 30
0.0
  0
SPLINE
  5
61
100
AcDbEntity
  8
LIVELLO_1
 62
     7
100
AcDbSpline
210
0.0
220
0.0
230
1.0
 70
     8
 71
     3
 72
    23
 73
    19
 74
     0
 42
0.00000001
 43
0.00000001
 40
0.0
 40
0.0
 40
0.0
 40
0.0
 40
1.0
 40
1.0
 40
1.0
 40
2.0
 40
2.0
 40
2.0
 40
3.0
 40
3.0
 40
3.0
 40
4.0
 40
4.0
 40
4.0
 40
5.0
 40
5.0
 40
5.0
 40
6.0
 40
6.0
 40
6.0
 40
6.0
 10
15.300013563368054
 20
10.001973470052082
 30
0.0
 10
15.237657335069443
 20
9.2867716471354154
 30
0.0
 10
16.313732910156247
 20
9.19203152126736
 30
0.0
 10
16.249654134114582
 20
8.4802747938368039
 30
0.0
 10
16.076021321614583
 20
6.5203599717881939
 30
0.0
 10
13.093602159288194
 20
7.4984225802951379
 30
0.0
 10
11.138510470920139
 20
7.847755262586805
 30
0.0
 10
11.01362575954861
 20
8.4871649848090271
 30
0.0
 10
10.51598171657986
 20
8.9798136393229164
 30
0.0
 10
10.578510199652778
 20
9.6915703667534707
 30
0.0
 10
10.640866427951387
 20
10.405049641927082
 30
0.0
 10
11.216886393229165
 20
10.803302680121528
 30
0.0
 10
11.453047688802082
 20
11.412051052517359
 30
0.0
 10
11.453047688802082
 20
11.412051052517359
 30
0.0
 10
14.676623535156249
 20
11.131964789496527
 30
0.0
 10
14.676623535156249
 20
11.131964789496527
 30
0.0
 10
14.676623535156249
 20
11.131964789496527
 30
0.0
 10
15.300013563368054
 20
10.001973470052082
 30
0.0
 10
15.300013563368054
 20
10.001973470052082
 30
0.0
  0
SPLINE
  5
60
100
AcDbEntity
  8
LIVELLO_1
 62
     7
100
AcDbSpline
210
0.0
220
0.0
230
1.0
 70
     8
 71
     3
 72
    23
 73
    19
 74
     0
 42
0.00000001
 43
0.00000001
 40
0.0
 40
0.0
 40
0.0
 40
0.0
 40
1.0
 40
1.0
 40
1.0
 40
2.0
 40
2.0
 40
2.0
 40
3.0
 40
3.0
 40
3.0
 40
4.0
 40
4.0
 40
4.0
 40
5.0
 40
5.0
 40
5.0
 40
6.0
 40
6.0
 40
6.0
 40
6.0
 10
8.1612589518229157
 20
9.3356920030381936
 30
0.0
 10
8.1612589518229157
 20
9.3356920030381936
 30
0.0
 10
9.1108995225694436
 20
7.8191609700520823
 30
0.0
 10
9.1108995225694436
 20
7.8191609700520823
 30
0.0
 10
7.9082166883680545
 20
7.4732733832465268
 30
0.0
 10
7.2257432725694439
 20
6.9048326280381938
 30
0.0
 10
5.9724175347222213
 20
7.0143866644965271
 30
0.0
 10
4.7173692491319441
 20
7.1225626627604157
 30
0.0
 10
4.088983832465277
 20
7.1780287000868048
 30
0.0
 10
2.8365193684895829
 20
7.2875827365451382
 30
0.0
 10
2.816365559895833
 20
8.095802137586805
 30
0.0
 10
2.5860609266493055
 20
8.5646796332465271
 30
0.0
 10
2.6577189127604166
 20
9.3677313910590261
 30
0.0
 10
2.8382419162326387
 20
11.415496148003472
 30
0.0
 10
5.5641737196180552
 20
11.629781087239582
 30
0.0
 10
7.6112494574652771
 20
11.27218017578125
 30
0.0
 10
7.6112494574652771
 20
11.27218017578125
 30
0.0
 10
8.1612589518229157
 20
9.3356920030381936
 30
0.0
 10
8.1612589518229157
 20
9.3356920030381936
 30
0.0
  0
SPLINE
  5
5F
100
AcDbEntity
  8
LIVELLO_1
 62
     7
100
AcDbSpline
210
0.0
220
0.0
230
1.0
 70
     8
 71
     3
 72
    23
 73
    19
 74
     0
 42
0.00000001
 43
0.00000001
 40
0.0
 40
0.0
 40
0.0
 40
0.0
 40
1.0
 40
1.0
 40
1.0
 40
2.0
 40
2.0
 40
2.0
 40
3.0
 40
3.0
 40
3.0
 40
4.0
 40
4.0
 40
4.0
 40
5.0
 40
5.0
 40
5.0
 40
6.0
 40
6.0
 40
6.0
 40
6.0
 10
-0.0664903428819444
 20
10.21798095703125
 30
0.0
 10
-0.0664903428819444
 20
10.21798095703125
 30
0.0
 10
0.5246880425347221
 20
8.7300442165798611
 30
0.0
 10
0.5246880425347221
 20
8.7300442165798611
 30
0.0
 10
-1.1654758029513888
 20
7.9793579101562493
 30
0.0
 10
-2.4105333116319443
 20
7.1897420247395827
 30
0.0
 10
-4.2896606445312493
 20
7.3533840603298604
 30
0.0
 10
-5.1862467447916663
 20
7.4312432183159718
 30
0.0
 10
-5.5969021267361105
 20
7.9152791341145825
 30
0.0
 10
-6.3787665473090271
 20
8.2542765299479157
 30
0.0
 10
-6.3787665473090271
 20
8.2542765299479157
 30
0.0
 10
-6.2211534288194441
 20
10.035735405815972
 30
0.0
 10
-6.2211534288194441
 20
10.035735405815972
 30
0.0
 10
-4.6953206380208332
 20
10.980380588107638
 30
0.0
 10
-3.2311550564236109
 20
11.211546495225694
 30
0.0
 10
-1.4068047417534721
 20
11.412051052517359
 30
0.0
 10
-1.4068047417534721
 20
11.412051052517359
 30
0.0
 10
-0.0664903428819444
 20
10.21798095703125
 30
0.0
 10
-0.0664903428819444
 20
10.21798095703125
 30
0.0
  0
SPLINE
  5
5E
100
AcDbEntity
  8
LIVELLO_1
 62
     7
100
AcDbSpline
210
0.0
220
0.0
230
1.0
 70
     8
 71
     3
 72
    17
 73
    13
 74
     0
 42
0.00000001
 43
0.00000001
 40
0.0
 40
0.0
 40
0.0
 40
0.0
 40
1.0
 40
1.0
 40
1.0
 40
2.0
 40
2.0
 40
2.0
 40
3.0
 40
3.0
 40
3.0
 40
4.0
 40
4.0
 40
4.0
 40
4.0
 10
-11.230322265624999
 20
5.2532538519965275
 30
0.0
 10
-11.346594238281249
 20
3.956175401475694
 30
0.0
 10
-12.43214382595486
 20
2.953997124565972
 30
0.0
 10
-13.732667371961805
 20
3.0669962565104165
 30
0.0
 10
-14.411695692274304
 20
3.1262518988715273
 30
0.0
 10
-15.286405436197915
 20
3.3591403537326388
 30
0.0
 10
-15.225599500868054
 20
4.0319675021701382
 30
0.0
 10
-15.057823350694443
 20
5.9515747070312495
 30
0.0
 10
-14.827518717447916
 20
7.0684746636284714
 30
0.0
 10
-12.956831868489582
 20
7.4277981228298602
 30
0.0
 10
-13.038652886284721
 20
6.4948662651909714
 30
0.0
 10
-11.148501247829859
 20
6.1861857096354163
 30
0.0
 10
-11.230322265624999
 20
5.2532538519965275
 30
0.0
  0
SPLINE
  5
5D
100
AcDbEntity
  8
LIVELLO_1
 62
     7
100
AcDbSpline
210
0.0
220
0.0
230
1.0
 70
     8
 71
     3
 72
    17
 73
    13
 74
     0
 42
0.00000001
 43
0.00000001
 40
0.0
 40
0.0
 40
0.0
 40
0.0
 40
1.0
 40
1.0
 40
1.0
 40
2.0
 40
2.0
 40
2.0
 40
3.0
 40
3.0
 40
3.0
 40
4.0
 40
4.0
 40
4.0
 40
4.0
 10
-25.416880967881941
 20
6.7411905924479161
 30
0.0
 10
-23.597526041666665
 20
6.5303507486979164
 30
0.0
 10
-21.344778103298609
 20
5.8657918294270832
 30
0.0
 10
-21.505836317274305
 20
4.048848470052083
 30
0.0
 10
-21.683775499131944
 20
2.0262329101562497
 30
0.0
 10
-24.356652832031248
 20
2.1023695203993054
 30
0.0
 10
-26.387708875868054
 20
2.2794474283854163
 30
0.0
 10
-27.586946614583329
 20
2.3838338216145831
 30
0.0
 10
-27.882191297743052
 20
3.8194051106770828
 30
0.0
 10
-27.776771375868051
 20
5.0120971679687498
 30
0.0
 10
-27.694089084201387
 20
5.9467515733506939
 30
0.0
 10
-26.352224392361109
 20
6.8745157877604157
 30
0.0
 10
-25.416880967881941
 20
6.7411905924479161
 30
0.0
  0
SPLINE
  5
5C
100
AcDbEntity
  8
LIVELLO_1
 62
     7
100
AcDbSpline
210
0.0
220
0.0
230
1.0
 70
     8
 71
     3
 72
    17
 73
    13
 74
     0
 42
0.00000001
 43
0.00000001
 40
0.0
 40
0.0
 40
0.0
 40
0.0
 40
1.0
 40
1.0
 40
1.0
 40
2.0
 40
2.0
 40
2.0
 40
3.0
 40
3.0
 40
3.0
 40
4.0
 40
4.0
 40
4.0
 40
4.0
 10
-16.989316134982637
 20
4.6190117730034714
 30
0.0
 10
-17.101453993055554
 20
3.3236558702256942
 30
0.0
 10
-18.187003580729165
 20
2.3197550455729163
 30
0.0
 10
-19.491661241319441
 20
2.4344767252604163
 30
0.0
 10
-20.169828287760414
 20
2.4937323676215275
 30
0.0
 10
-21.04281548394097
 20
2.7262763129340275
 30
0.0
 10
-20.98200954861111
 20
3.3994479709201384
 30
0.0
 10
-20.814233398437498
 20
5.3173326280381943
 30
0.0
 10
-19.491661241319441
 20
6.6147555881076379
 30
0.0
 10
-17.620974392361109
 20
6.9758015950520829
 30
0.0
 10
-17.702795410156249
 20
6.0411471896701388
 30
0.0
 10
-16.906633843315969
 20
5.5536661783854164
 30
0.0
 10
-16.989316134982637
 20
4.6190117730034714
 30
0.0
  0
SPLINE
  5
5B
100
AcDbEntity
  8
LIVELLO_1
 62
     7
100
AcDbSpline
210
0.0
220
0.0
230
1.0
 70
     8
 71
     3
 72
    20
 73
    16
 74
     0
 42
0.00000001
 43
0.00000001
 40
0.0
 40
0.0
 40
0.0
 40
0.0
 40
1.0
 40
1.0
 40
1.0
 40
2.0
 40
2.0
 40
2.0
 40
3.0
 40
3.0
 40
3.0
 40
4.0
 40
4.0
 40
4.0
 40
5.0
 40
5.0
 40
5.0
 40
5.0
 10
-19.963122558593749
 20
0.9079549153645833
 30
0.0
 10
-21.162532552083331
 20
1.012685818142361
 30
0.0
 10
-22.147657606336804
 20
-0.0518486870659722
 30
0.0
 10
-22.253077528211804
 20
-1.2445407443576388
 30
0.0
 10
-22.340927463107636
 20
-2.2294935438368055
 30
0.0
 10
-22.390536838107636
 20
-2.8013793945312497
 30
0.0
 10
-22.476664225260414
 20
-3.7849541558159721
 30
0.0
 10
-21.591102430555555
 20
-3.8624688042534721
 30
0.0
 10
-21.121191406249999
 20
-3.9031209309895831
 30
0.0
 10
-20.234768337673611
 20
-3.9789130316840273
 30
0.0
 10
-18.565619574652775
 20
-4.1256740993923611
 30
0.0
 10
-16.325446234809025
 20
-4.3196329752604159
 30
0.0
 10
-16.178685167100692
 20
-2.6615085177951388
 30
0.0
 10
-16.001607259114582
 20
-0.6388929578993055
 30
0.0
 10
-17.929654947916664
 20
0.7325995551215278
 30
0.0
 10
-19.963122558593749
 20
0.9079549153645833
 30
0.0
  0
SPLINE
  5
5A
100
AcDbEntity
  8
LIVELLO_1
 62
     7
100
AcDbSpline
210
0.0
220
0.0
230
1.0
 70
     8
 71
     3
 72
    17
 73
    13
 74
     0
 42
0.00000001
 43
0.00000001
 40
0.0
 40
0.0
 40
0.0
 40
0.0
 40
1.0
 40
1.0
 40
1.0
 40
2.0
 40
2.0
 40
2.0
 40
3.0
 40
3.0
 40
3.0
 40
4.0
 40
4.0
 40
4.0
 40
4.0
 10
-11.526255967881943
 20
2.4716837565104166
 30
0.0
 10
-10.466200086805555
 20
1.3854451497395832
 30
0.0
 10
-9.9668334960937486
 20
0.5066012912326389
 30
0.0
 10
-9.1308810763888886
 20
-0.7687730577256944
 30
0.0
 10
-10.280509440104165
 20
-1.8701700846354166
 30
0.0
 10
-11.501795789930554
 20
-2.0255438910590278
 30
0.0
 10
-13.118751356336805
 20
-1.8853285047743054
 30
0.0
 10
-14.421858723958332
 20
-1.772329372829861
 30
0.0
 10
-15.94510769314236
 20
-1.1684041341145832
 30
0.0
 10
-15.830386013454859
 20
0.12867431640625
 30
0.0
 10
-15.692926703559026
 20
1.6837904188368054
 30
0.0
 10
-13.089984809027776
 20
2.6084540473090274
 30
0.0
 10
-11.526255967881943
 20
2.4716837565104166
 30
0.0
  0
SPLINE
  5
59
100
AcDbEntity
  8
LIVELLO_1
 62
     7
100
AcDbSpline
210
0.0
220
0.0
230
1.0
 70
     8
 71
     3
 72
    14
 73
    10
 74
     0
 42
0.00000001
 43
0.00000001
 40
0.0
 40
0.0
 40
0.0
 40
0.0
 40
1.0
 40
1.0
 40
1.0
 40
2.0
 40
2.0
 40
2.0
 40
3.0
 40
3.0
 40
3.0
 40
3.0
 10
-3.3045355902777773
 20
3.8431762695312495
 30
0.0
 10
-3.4545694986979165
 20
2.1292412651909722
 30
0.0
 10
-5.2596272786458327
 20
1.2941501193576388
 30
0.0
 10
-6.980280219184027
 20
1.4443562825520833
 30
0.0
 10
-8.7007609049479164
 20
1.5945624457465277
 30
0.0
 10
-9.7592664930555539
 20
3.3067749023437498
 30
0.0
 10
-9.6092325846354161
 20
5.0172648111979159
 30
0.0
 10
-9.3899522569444436
 20
7.5053127712673602
 30
0.0
 10
-3.0852552625868053
 20
6.3312242296006938
 30
0.0
 10
-3.3045355902777773
 20
3.8431762695312495
 30
0.0
  0
SPLINE
  5
58
100
AcDbEntity
  8
LIVELLO_1
 62
     7
100
AcDbSpline
210
0.0
220
0.0
230
1.0
 70
     8
 71
     3
 72
    20
 73
    16
 74
     0
 42
0.00000001
 43
0.00000001
 40
0.0
 40
0.0
 40
0.0
 40
0.0
 40
1.0
 40
1.0
 40
1.0
 40
2.0
 40
2.0
 40
2.0
 40
3.0
 40
3.0
 40
3.0
 40
4.0
 40
4.0
 40
4.0
 40
5.0
 40
5.0
 40
5.0
 40
5.0
 10
3.225298394097222
 20
3.7401679144965274
 30
0.0
 10
3.1216010199652775
 20
2.5829603407118054
 30
0.0
 10
2.186257595486111
 20
2.2153686523437499
 30
0.0
 10
1.5637288411458332
 20
1.2807142469618054
 30
0.0
 10
1.5637288411458332
 20
1.2807142469618054
 30
0.0
 10
-3.2437296549479164
 20
-0.6185668945312499
 30
0.0
 10
-3.2437296549479164
 20
-0.6185668945312499
 30
0.0
 10
-3.1796508789062496
 20
0.0949123806423611
 30
0.0
 10
-2.0081461588541667
 20
2.7600382486979163
 30
0.0
 10
-1.9457899305555553
 20
3.4721394856770829
 30
0.0
 10
-1.8209052191840276
 20
4.8973754882812495
 30
0.0
 10
-0.5608615451388889
 20
5.8675143771701386
 30
0.0
 10
0.8729871961805554
 20
5.7407348632812498
 30
0.0
 10
2.0362236870659722
 20
5.641171603732638
 30
0.0
 10
3.325722927517361
 20
4.8990980360243048
 30
0.0
 10
3.225298394097222
 20
3.7401679144965274
 30
0.0
  0
SPLINE
  5
57
100
AcDbEntity
  8
LIVELLO_1
 62
     7
100
AcDbSpline
210
0.0
220
0.0
230
1.0
 70
     8
 71
     3
 72
    20
 73
    16
 74
     0
 42
0.00000001
 43
0.00000001
 40
0.0
 40
0.0
 40
0.0
 40
0.0
 40
1.0
 40
1.0
 40
1.0
 40
2.0
 40
2.0
 40
2.0
 40
3.0
 40
3.0
 40
3.0
 40
4.0
 40
4.0
 40
4.0
 40
5.0
 40
5.0
 40
5.0
 40
5.0
 10
-16.894748263888886
 20
-5.336969672309027
 30
0.0
 10
-14.367081705729165
 20
-6.3656751844618054
 30
0.0
 10
-11.592918565538193
 20
-7.6834242078993045
 30
0.0
 10
-11.837520345052083
 20
-10.446390787760416
 30
0.0
 10
-11.906766764322915
 20
-11.24771999782986
 30
0.0
 10
-12.811793348524304
 20
-11.257710774739582
 30
0.0
 10
-13.395392523871527
 20
-11.746914333767361
 30
0.0
 10
-13.395392523871527
 20
-11.746914333767361
 30
0.0
 10
-18.503263346354164
 20
-11.301463487413194
 30
0.0
 10
-18.503263346354164
 20
-11.301463487413194
 30
0.0
 10
-18.497234429253471
 20
-10.225560167100694
 30
0.0
 10
-18.711519368489583
 20
-9.5775377061631932
 30
0.0
 10
-18.618846299913194
 20
-8.50990261501736
 30
0.0
 10
-18.492239040798609
 20
-7.0825995551215275
 30
0.0
 10
-17.622696940104166
 20
-6.4418117947048605
 30
0.0
 10
-16.894748263888886
 20
-5.336969672309027
 30
0.0
  0
SPLINE
  5
56
100
AcDbEntity
  8
LIVELLO_1
 62
     7
100
AcDbSpline
210
0.0
220
0.0
230
1.0
 70
     8
 71
     3
 72
    14
 73
    10
 74
     0
 42
0.00000001
 43
0.00000001
 40
0.0
 40
0.0
 40
0.0
 40
0.0
 40
1.0
 40
1.0
 40
1.0
 40
2.0
 40
2.0
 40
2.0
 40
3.0
 40
3.0
 40
3.0
 40
3.0
 10
19.369532606336804
 20
-2.2143351236979165
 30
0.0
 10
18.726850043402777
 20
-2.3393920898437499
 30
0.0
 10
18.232651095920136
 20
-2.8334187825520831
 30
0.0
 10
17.514865451388886
 20
-2.7710625542534721
 30
0.0
 10
15.635738118489583
 20
-2.6091430664062498
 30
0.0
 10
14.88005642361111
 20
-0.9272474500868054
 30
0.0
 10
14.223765733506943
 20
0.8369859483506944
 30
0.0
 10
16.501146104600693
 20
1.0884779188368054
 30
0.0
 10
18.377689615885416
 20
-0.1514119466145833
 30
0.0
 10
19.369532606336804
 20
-2.2143351236979165
 30
0.0
  0
SPLINE
  5
55
100
AcDbEntity
  8
LIVELLO_1
 62
     7
100
AcDbSpline
210
0.0
220
0.0
230
1.0
 70
     8
 71
     3
 72
    23
 73
    19
 74
     0
 42
0.00000001
 43
0.00000001
 40
0.0
 40
0.0
 40
0.0
 40
0.0
 40
1.0
 40
1.0
 40
1.0
 40
2.0
 40
2.0
 40
2.0
 40
3.0
 40
3.0
 40
3.0
 40
4.0
 40
4.0
 40
4.0
 40
5.0
 40
5.0
 40
5.0
 40
6.0
 40
6.0
 40
6.0
 40
6.0
 10
18.373555501302082
 20
4.9276923285590275
 30
0.0
 10
18.311027018229165
 20
4.2159356011284714
 30
0.0
 10
19.38400200737847
 20
4.1215399848090275
 30
0.0
 10
19.321473524305553
 20
3.4080607096354165
 30
0.0
 10
19.148529730902776
 20
1.4478013780381944
 30
0.0
 10
16.16714409722222
 20
2.42620849609375
 30
0.0
 10
14.211191134982638
 20
2.7769192165798611
 30
0.0
 10
14.086306423611109
 20
3.4163289388020832
 30
0.0
 10
13.587801106770833
 20
3.9072550455729163
 30
0.0
 10
13.650329589843748
 20
4.6207343207465277
 30
0.0
 10
13.71268581814236
 20
5.3342135959201382
 30
0.0
 10
14.291289605034722
 20
5.7324666341145827
 30
0.0
 10
14.524867078993054
 20
6.3412150065104163
 30
0.0
 10
14.524867078993054
 20
6.3412150065104163
 30
0.0
 10
17.749304199218749
 20
6.059750705295138
 30
0.0
 10
17.749304199218749
 20
6.059750705295138
 30
0.0
 10
17.749304199218749
 20
6.059750705295138
 30
0.0
 10
18.373555501302082
 20
4.9276923285590275
 30
0.0
 10
18.373555501302082
 20
4.9276923285590275
 30
0.0
  0
SPLINE
  5
54
100
AcDbEntity
  8
LIVELLO_1
 62
     7
100
AcDbSpline
210
0.0
220
0.0
230
1.0
 70
     8
 71
     3
 72
    17
 73
    13
 74
     0
 42
0.00000001
 43
0.00000001
 40
0.0
 40
0.0
 40
0.0
 40
0.0
 40
1.0
 40
1.0
 40
1.0
 40
2.0
 40
2.0
 40
2.0
 40
3.0
 40
3.0
 40
3.0
 40
4.0
 40
4.0
 40
4.0
 40
4.0
 10
18.614712185329861
 20
11.412051052517359
 30
0.0
 10
18.614712185329861
 20
11.412051052517359
 30
0.0
 10
19.778637695312497
 20
11.310765245225694
 30
0.0
 10
19.778637695312497
 20
11.310765245225694
 30
0.0
 10
19.778637695312497
 20
11.310765245225694
 30
0.0
 10
19.167994520399304
 20
8.4906100802951379
 30
0.0
 10
19.167994520399304
 20
8.4906100802951379
 30
0.0
 10
18.40972900390625
 20
9.0959133572048607
 30
0.0
 10
17.35966389973958
 20
9.4552368164062486
 30
0.0
 10
17.444068739149305
 20
10.437089029947916
 30
0.0
 10
17.492127821180553
 20
10.971767849392361
 30
0.0
 10
18.397154405381944
 20
10.982103135850693
 30
0.0
 10
18.614712185329861
 20
11.412051052517359
 30
0.0
  0
SPLINE
  5
53
100
AcDbEntity
  8
LIVELLO_1
 62
     7
100
AcDbSpline
210
0.0
220
0.0
230
1.0
 70
     8
 71
     3
 72
    17
 73
    13
 74
     0
 42
0.00000001
 43
0.00000001
 40
0.0
 40
0.0
 40
0.0
 40
0.0
 40
1.0
 40
1.0
 40
1.0
 40
2.0
 40
2.0
 40
2.0
 40
3.0
 40
3.0
 40
3.0
 40
4.0
 40
4.0
 40
4.0
 40
4.0
 10
16.678224012586803
 20
-4.2893161349826388
 30
0.0
 10
15.490699598524305
 20
-4.4564032660590271
 30
0.0
 10
14.091301812065971
 20
-4.9624877929687496
 30
0.0
 10
13.98088650173611
 20
-6.2106458875868054
 30
0.0
 10
13.886490885416665
 20
-7.2782809787326386
 30
0.0
 10
14.120068359374999
 20
-8.73590087890625
 30
0.0
 10
15.196316189236109
 20
-8.8302964952256939
 30
0.0
 10
17.255966525607636
 20
-9.0108194986979164
 30
0.0
 10
19.623436143663191
 20
-8.7662177191840271
 30
0.0
 10
20.073021104600691
 20
-6.7401570638020827
 30
0.0
 10
20.394448513454858
 20
-5.1512790256076384
 30
0.0
 10
18.063152398003471
 20
-4.948707411024305
 30
0.0
 10
16.678224012586803
 20
-4.2893161349826388
 30
0.0
  0
SPLINE
  5
52
100
AcDbEntity
  8
LIVELLO_1
 62
     7
100
AcDbSpline
210
0.0
220
0.0
230
1.0
 70
     8
 71
     3
 72
    23
 73
    19
 74
     0
 42
0.00000001
 43
0.00000001
 40
0.0
 40
0.0
 40
0.0
 40
0.0
 40
1.0
 40
1.0
 40
1.0
 40
2.0
 40
2.0
 40
2.0
 40
3.0
 40
3.0
 40
3.0
 40
4.0
 40
4.0
 40
4.0
 40
5.0
 40
5.0
 40
5.0
 40
6.0
 40
6.0
 40
6.0
 40
6.0
 10
11.843549262152777
 20
4.5566555447048609
 30
0.0
 10
11.843549262152777
 20
4.5566555447048609
 30
0.0
 10
12.43489990234375
 20
3.0704413519965277
 30
0.0
 10
12.43489990234375
 20
3.0704413519965277
 30
0.0
 10
10.744563802083333
 20
2.318032497829861
 30
0.0
 10
9.4996785481770818
 20
1.5287611219618054
 30
0.0
 10
7.6205512152777768
 20
1.6941257052951388
 30
0.0
 10
6.7222425672743054
 20
1.7716403537326386
 30
0.0
 10
5.426714409722222
 20
0.6599080403645833
 30
0.0
 10
4.64312744140625
 20
0.9989054361979166
 30
0.0
 10
4.64312744140625
 20
0.9989054361979166
 30
0.0
 10
5.6890584309895829
 20
4.3761325412326384
 30
0.0
 10
5.6890584309895829
 20
4.3761325412326384
 30
0.0
 10
7.2164415147569434
 20
5.3190551757812496
 30
0.0
 10
8.6807793511284714
 20
5.5502210828993048
 30
0.0
 10
10.503407118055554
 20
5.7527926974826382
 30
0.0
 10
10.503407118055554
 20
5.7527926974826382
 30
0.0
 10
11.843549262152777
 20
4.5566555447048609
 30
0.0
 10
11.843549262152777
 20
4.5566555447048609
 30
0.0
  0
SPLINE
  5
51
100
AcDbEntity
  8
LIVELLO_1
 62
     7
100
AcDbSpline
210
0.0
220
0.0
230
1.0
 70
     8
 71
     3
 72
    23
 73
    19
 74
     0
 42
0.00000001
 43
0.00000001
 40
0.0
 40
0.0
 40
0.0
 40
0.0
 40
1.0
 40
1.0
 40
1.0
 40
2.0
 40
2.0
 40
2.0
 40
3.0
 40
3.0
 40
3.0
 40
4.0
 40
4.0
 40
4.0
 40
5.0
 40
5.0
 40
5.0
 40
6.0
 40
6.0
 40
6.0
 40
6.0
 10
-7.9543809678819439
 20
-3.9603095160590276
 30
0.0
 10
-7.9543809678819439
 20
-3.9603095160590276
 30
0.0
 10
-7.7528428819444439
 20
-5.7720852322048604
 30
0.0
 10
-7.7528428819444439
 20
-5.7720852322048604
 30
0.0
 10
-8.8687093098958325
 20
-6.1245185004340268
 30
0.0
 10
-9.6075100368923607
 20
-6.3305352105034718
 30
0.0
 10
-10.71407470703125
 20
-6.5933959960937498
 30
0.0
 10
-10.71407470703125
 20
-6.5933959960937498
 30
0.0
 10
-12.11588406032986
 20
-6.1110826280381936
 30
0.0
 10
-12.11588406032986
 20
-6.1110826280381936
 30
0.0
 10
-12.11588406032986
 20
-6.1110826280381936
 30
0.0
 10
-12.706201171875
 20
-4.623145887586805
 30
0.0
 10
-12.706201171875
 20
-4.623145887586805
 30
0.0
 10
-12.706201171875
 20
-4.623145887586805
 30
0.0
 10
-10.823800998263888
 20
-3.7091620551215274
 30
0.0
 10
-10.823800998263888
 20
-3.7091620551215274
 30
0.0
 10
-10.823800998263888
 20
-3.7091620551215274
 30
0.0
 10
-9.6345540364583329
 20
-3.5455200195312497
 30
0.0
 10
-7.9543809678819439
 20
-3.9603095160590276
 30
0.0
  0
SPLINE
  5
50
100
AcDbEntity
  8
LIVELLO_1
 62
     7
100
AcDbSpline
210
0.0
220
0.0
230
1.0
 70
     8
 71
     3
 72
    20
 73
    16
 74
     0
 42
0.00000001
 43
0.00000001
 40
0.0
 40
0.0
 40
0.0
 40
0.0
 40
1.0
 40
1.0
 40
1.0
 40
2.0
 40
2.0
 40
2.0
 40
3.0
 40
3.0
 40
3.0
 40
4.0
 40
4.0
 40
4.0
 40
5.0
 40
5.0
 40
5.0
 40
5.0
 10
-1.3637410481770833
 20
-2.2329386393229163
 30
0.0
 10
-1.3764879014756943
 20
-3.3987589518229164
 30
0.0
 10
-1.1697821723090276
 20
-4.1339423285590273
 30
0.0
 10
-0.9048543294270832
 20
-5.2356838650173607
 30
0.0
 10
-2.3033908420138887
 20
-5.7417683919270832
 30
0.0
 10
-2.9114501953124998
 20
-6.4972778320312496
 30
0.0
 10
-4.3452989366319441
 20
-6.374287923177083
 30
0.0
 10
-4.971961805555555
 20
-6.3167548285590271
 30
0.0
 10
-5.4198242187499996
 20
-6.2798923068576382
 30
0.0
 10
-6.0482096354166659
 20
-6.2258043077256939
 30
0.0
 10
-6.0819715711805546
 20
-5.5932847764756941
 30
0.0
 10
-7.0603786892361109
 20
-5.4179294162326386
 30
0.0
 10
-6.9978502061631938
 20
-4.7041056315104166
 30
0.0
 10
-6.7852878146701379
 20
-2.2987399631076388
 30
0.0
 10
-3.752398003472222
 20
-1.6662204318576388
 30
0.0
 10
-1.3637410481770833
 20
-2.2329386393229163
 30
0.0
  0
POLYLINE
  5
49
100
AcDbEntity
  8
LIVELLO_1
 62
     7
100
AcDb2dPolyline
 66
     1
 10
0.0
 20
0.0
 30
0.0
 70
     1
  0
VERTEX
  5
4A
100
AcDbEntity
  8
LIVELLO_1
 62
     7
100
AcDbVertex
100
AcDb2dVertex
 10
1.034907
 20
-4.381989
 30
0.0
  0
VERTEX
  5
4B
100
AcDbEntity
  8
LIVELLO_1
 62
     7
100
AcDbVertex
100
AcDb2dVertex
 10
2.406399
 20
-5.220525
 30
0.0
  0
VERTEX
  5
4C
100
AcDbEntity
  8
LIVELLO_1
 62
     7
100
AcDbVertex
100
AcDb2dVertex
 10
2.638426
 20
-6.677801
 30
0.0
  0
VERTEX
  5
4D
100
AcDbEntity
  8
LIVELLO_1
 62
     7
100
AcDbVertex
100
AcDb2dVertex
 10
0.783587
 20
-7.232806
 30
0.0
  0
VERTEX
  5
4E
100
AcDbEntity
  8
LIVELLO_1
 62
     7
100
AcDbVertex
100
AcDb2dVertex
 10
0.224448
 20
-5.388991
 30
0.0
  0
SEQEND
  5
4F
100
AcDbEntity
  8
LIVELLO_1
 62
     7
  0
SPLINE
  5
48
100
AcDbEntity
  8
LIVELLO_1
 62
     7
100
AcDbSpline
210
0.0
220
0.0
230
1.0
 70
     8
 71
     3
 72
    23
 73
    19
 74
     0
 42
0.00000001
 43
0.00000001
 40
0.0
 40
0.0
 40
0.0
 40
0.0
 40
1.0
 40
1.0
 40
1.0
 40
2.0
 40
2.0
 40
2.0
 40
3.0
 40
3.0
 40
3.0
 40
4.0
 40
4.0
 40
4.0
 40
5.0
 40
5.0
 40
5.0
 40
6.0
 40
6.0
 40
6.0
 40
6.0
 10
12.63643798828125
 20
-1.5463311089409721
 30
0.0
 10
12.63643798828125
 20
-1.5463311089409721
 30
0.0
 10
13.586078559027776
 20
-3.0645846896701388
 30
0.0
 10
13.586078559027776
 20
-3.0645846896701388
 30
0.0
 10
12.383395724826388
 20
-3.4087497287326385
 30
0.0
 10
11.701094563802082
 20
-3.9789130316840273
 30
0.0
 10
10.446046278211805
 20
-3.8724595811631941
 30
0.0
 10
9.1927205403645829
 20
-3.7611829969618054
 30
0.0
 10
8.5669189453124996
 20
-3.7057169596354163
 30
0.0
 10
7.3118706597222216
 20
-3.5975409613715272
 30
0.0
 10
7.2915445963541661
 20
-2.7862209743923607
 30
0.0
 10
7.0612399631076386
 20
-2.3190660264756944
 30
0.0
 10
7.1330702039930545
 20
-1.5160142686631943
 30
0.0
 10
7.313593207465277
 20
0.5334730360243055
 30
0.0
 10
10.041247558593749
 20
0.7443128797743055
 30
0.0
 10
12.08487820095486
 20
0.3884345160590277
 30
0.0
 10
12.08487820095486
 20
0.3884345160590277
 30
0.0
 10
12.63643798828125
 20
-1.5463311089409721
 30
0.0
 10
12.63643798828125
 20
-1.5463311089409721
 30
0.0
  0
SPLINE
  5
47
100
AcDbEntity
  8
LIVELLO_1
 62
     7
100
AcDbSpline
210
0.0
220
0.0
230
1.0
 70
     8
 71
     3
 72
    26
 73
    22
 74
     0
 42
0.00000001
 43
0.00000001
 40
0.0
 40
0.0
 40
0.0
 40
0.0
 40
1.0
 40
1.0
 40
1.0
 40
2.0
 40
2.0
 40
2.0
 40
3.0
 40
3.0
 40
3.0
 40
4.0
 40
4.0
 40
4.0
 40
5.0
 40
5.0
 40
5.0
 40
6.0
 40
6.0
 40
6.0
 40
7.0
 40
7.0
 40
7.0
 40
7.0
 10
3.4463012695312498
 20
-1.8095364040798609
 30
0.0
 10
3.4463012695312498
 20
-1.8095364040798609
 30
0.0
 10
5.2065728081597218
 20
-2.3207885742187497
 30
0.0
 10
5.2065728081597218
 20
-2.3207885742187497
 30
0.0
 10
5.2065728081597218
 20
-2.3207885742187497
 30
0.0
 10
5.4385999891493046
 20
-3.7780639648437497
 30
0.0
 10
5.4385999891493046
 20
-3.7780639648437497
 30
0.0
 10
4.5361572265624996
 20
-3.7883992513020828
 30
0.0
 10
3.9735731336805551
 20
-4.0092298719618054
 30
0.0
 10
3.0787095811631944
 20
-3.9317152235243054
 30
0.0
 10
2.0934122721354167
 20
-3.8455878363715272
 30
0.0
 10
1.9096164279513888
 20
-2.8437540690104166
 30
0.0
 10
1.2331719292534722
 20
-2.3325018988715276
 30
0.0
 10
1.2331719292534722
 20
-2.3325018988715276
 30
0.0
 10
1.3673583984375
 20
-0.8194159613715277
 30
0.0
 10
1.3673583984375
 20
-0.8194159613715277
 30
0.0
 10
1.3673583984375
 20
-0.8194159613715277
 30
0.0
 10
2.8627020941840273
 20
-0.2289265950520833
 30
0.0
 10
2.8627020941840273
 20
-0.2289265950520833
 30
0.0
 10
2.8627020941840273
 20
-0.2289265950520833
 30
0.0
 10
3.4463012695312498
 20
-1.8095364040798609
 30
0.0
 10
3.4463012695312498
 20
-1.8095364040798609
 30
0.0
  0
SPLINE
  5
46
100
AcDbEntity
  8
LIVELLO_1
 62
     7
100
AcDbSpline
210
0.0
220
0.0
230
1.0
 70
     8
 71
     3
 72
    14
 73
    10
 74
     0
 42
0.00000001
 43
0.00000001
 40
0.0
 40
0.0
 40
0.0
 40
0.0
 40
1.0
 40
1.0
 40
1.0
 40
2.0
 40
2.0
 40
2.0
 40
3.0
 40
3.0
 40
3.0
 40
3.0
 10
13.534746636284721
 20
-10.442945692274305
 30
0.0
 10
12.997483995225693
 20
-10.397470431857638
 30
0.0
 10
12.695521375868054
 20
-10.728199598524304
 30
0.0
 10
12.159981282552081
 20
-10.682379828559027
 30
0.0
 10
9.2020222981770825
 20
-10.42606472439236
 30
0.0
 10
7.6289916992187496
 20
-7.7743747287326386
 30
0.0
 10
7.1651095920138879
 20
-4.8594794379340271
 30
0.0
 10
10.510125054253471
 20
-4.793678114149305
 30
0.0
 10
12.741857910156249
 20
-7.1418551974826379
 30
0.0
 10
13.534746636284721
 20
-10.442945692274305
 30
0.0
  0
ENDBLK
  5
70
100
AcDbEntity
  8
LIVELLO_1
100
AcDbBlockEnd
  0
BLOCK
  5
73
100
AcDbEntity
  8
LIVELLO_1
 62
     7
100
AcDbBlockBegin
  2
AI9-BLK3
 70
     0
 10
0.0
 20
0.0
 30
0.0
  3
AI9-BLK3
  1

  0
INSERT
  5
75
100
AcDbEntity
  8
LIVELLO_1
 62
     7
100
AcDbBlockReference
  2
AI9-BLK4
 10
-0.060117
 20
0.0
 30
0.0
  0
ENDBLK
  5
7C
100
AcDbEntity
  8
LIVELLO_1
100
AcDbBlockEnd
  0
BLOCK
  5
76
100
AcDbEntity
  8
LIVELLO_1
 62
     7
100
AcDbBlockBegin
  2
AI9-BLK4
 70
     0
 10
0.0
 20
0.0
 30
0.0
  3
AI9-BLK4
  1

  0
INSERT
  5
78
100
AcDbEntity
  8
LIVELLO_1
 62
     7
100
AcDbBlockReference
  2
AI9-BLK5
 10
-0.000172
 20
0.0
 30
0.0
  0
ENDBLK
  5
7B
100
AcDbEntity
  8
LIVELLO_1
100
AcDbBlockEnd
  0
BLOCK
  5
79
100
AcDbEntity
  8
LIVELLO_1
 62
     7
100
AcDbBlockBegin
  2
AI9-BLK5
 70
     0
 10
0.0
 20
0.0
 30
0.0
  3
AI9-BLK5
  1

  0
ENDBLK
  5
7A
100
AcDbEntity
  8
LIVELLO_1
100
AcDbBlockEnd
  0
BLOCK
  5
7F
100
AcDbEntity
  8
LIVELLO_1
 62
     7
100
AcDbBlockBegin
  2
AI9-BLK6
 70
     0
 10
0.0
 20
0.0
 30
0.0
  3
AI9-BLK6
  1

  0
INSERT
  5
81
100
AcDbEntity
  8
LIVELLO_1
 62
     7
100
AcDbBlockReference
  2
AI9-BLK7
 10
0.0
 20
0.0
 30
0.0
  0
ENDBLK
  5
88
100
AcDbEntity
  8
LIVELLO_1
100
AcDbBlockEnd
  0
BLOCK
  5
82
100
AcDbEntity
  8
LIVELLO_1
 62
     7
100
AcDbBlockBegin
  2
AI9-BLK7
 70
     0
 10
0.0
 20
0.0
 30
0.0
  3
AI9-BLK7
  1

  0
INSERT
  5
84
100
AcDbEntity
  8
LIVELLO_1
 62
     7
100
AcDbBlockReference
  2
AI9-BLK8
 10
-0.000431
 20
-0.000689
 30
0.0
  0
ENDBLK
  5
87
100
AcDbEntity
  8
LIVELLO_1
100
AcDbBlockEnd
  0
BLOCK
  5
85
100
AcDbEntity
  8
LIVELLO_1
 62
     7
100
AcDbBlockBegin
  2
AI9-BLK8
 70
     0
 10
0.0
 20
0.0
 30
0.0
  3
AI9-BLK8
  1

  0
ENDBLK
  5
86
100
AcDbEntity
  8
LIVELLO_1
100
AcDbBlockEnd
  0
BLOCK
  5
12C
100
AcDbEntity
  8
LIVELLO_1
 62
     7
100
AcDbBlockBegin
  2
AI9-BLK9
 70
     0
 10
0.0
 20
0.0
 30
0.0
  3
AI9-BLK9
  1

  0
ENDBLK
  5
12D
100
AcDbEntity
  8
LIVELLO_1
100
AcDbBlockEnd
  0
ENDSEC
  0
SECTION
  2
ENTITIES
  0
INSERT
  5
2A
100
AcDbEntity
  8
LIVELLO_1
 62
     7
100
AcDbBlockReference
  2
AI9-BLK1
 10
91.427753
 20
158.234011
 30
0.0
  0
ENDSEC
  0
SECTION
  2
OBJECTS
  0
DICTIONARY
  5
19
100
AcDbDictionary
280
     0
281
     1
  3
ACAD_GROUP
350
1A
  3
ACAD_MLINESTYLE
350
1B
  3
ACAD_LAYOUT
350
1E
  3
ACAD_PLOTSETTINGS
350
22
  3
ACAD_PLOTSTYLENAME
350
1F
  3
ACAD_WIPEOUT_VARS
350
23
  0
DICTIONARY
  5
1A
102
{ACAD_REACTORS
330
19
102
}
100
AcDbDictionary
280
     0
281
     1
  0
DICTIONARY
  5
1B
102
{ACAD_REACTORS
330
19
102
}
100
AcDbDictionary
280
     0
281
     1
  3
Standard
350
1C
  0
MLINESTYLE
  5
1C
102
{ACAD_REACTORS
330
1B
102
}
100
AcDbMlineStyle
  2
Standard
 70
     0
  3

 62
     0
 51
90.0
 52
90.0
 71
     2
 49
0.5
 62
   256
  6
ByLayer
 49
-0.5
 62
   256
  6
ByLayer
  0
ACDBDICTIONARYWDFLT
  5
1F
102
{ACAD_REACTORS
330
19
102
}
100
AcDbDictionary
281
     1
  3
Normal
350
1D
100
AcDbDictionaryWithDefault
340
1D
  0
ACDBPLACEHOLDER
  5
1D
102
{ACAD_REACTORS
330
1F
102
}
  0
LAYOUT
  5
20
102
{ACAD_REACTORS
330
1E
102
}
100
AcDbPlotSettings
  1

  2

  4

  6

 40
0.0
 41
0.0
 42
0.0
 43
0.0
 44
0.0
 45
0.0
 46
0.0
 47
0.0
 48
0.0
 49
0.0
140
0.0
141
0.0
142
1.0
143
1.0
 70
  1024
 72
     0
 73
     0
 74
     0
  7

 75
     0
147
1.0
148
0.0
149
0.0
100
AcDbLayout
  1
Model
 70
     0
 71
     0
 10
0.0
 20
0.0
 11
0.0
 21
0.0
 12
0.0
 22
0.0
 32
0.0
 14
0.0
 24
0.0
 34
0.0
 15
0.0
 25
0.0
 35
0.0
146
0.0
 13
0.0
 23
0.0
 33
0.0
 16
0.0
 26
0.0
 36
0.0
 17
0.0
 27
0.0
 37
0.0
 76
     0
330
A
331
0
345
0
346
0
  0
LAYOUT
  5
21
102
{ACAD_REACTORS
330
1E
102
}
100
AcDbPlotSettings
  1

  2

  4

  6

 40
0.0
 41
0.0
 42
0.0
 43
0.0
 44
0.0
 45
0.0
 46
0.0
 47
0.0
 48
0.0
 49
0.0
140
0.0
141
0.0
142
1.0
143
1.0
 70
     0
 72
     0
 73
     0
 74
     0
  7

 75
     0
147
1.0
148
0.0
149
0.0
100
AcDbLayout
  1
Layout1
 70
     0
 71
     0
 10
0.0
 20
0.0
 11
0.0
 21
0.0
 12
0.0
 22
0.0
 32
0.0
 14
0.0
 24
0.0
 34
0.0
 15
0.0
 25
0.0
 35
0.0
146
0.0
 13
0.0
 23
0.0
 33
0.0
 16
0.0
 26
0.0
 36
0.0
 17
0.0
 27
0.0
 37
0.0
 76
     0
330
B
331
0
345
0
346
0
  0
DICTIONARY
  5
1E
102
{ACAD_REACTORS
330
19
102
}
100
AcDbDictionary
280
     0
281
     1
  3
Layout1
350
21
  3
Model
350
20
  0
DICTIONARY
  5
22
102
{ACAD_REACTORS
330
19
102
}
100
AcDbDictionary
280
     0
281
     1
  0
WIPEOUTVARIABLES
  5
23
100
AcDbWipeoutVariables
 70
     1
  0
ENDSEC
  0
EOF
