  0
SECTION
  2
HEADER
  9
$ACADVER
  1
AC1015
  9
$ACADMAINTVER
 70
     6
  9
$DWGCODEPAGE
  3
ANSI_932
  9
$INSBASE
 10
0.0
 20
0.0
 30
0.0
  9
$EXTMIN
 10
-0.268373
 20
1.780425
 30
1.000000E+20
  9
$EXTMAX
 10
171.759714
 20
173.220435
 30
-1.000000E+20
  9
$LIMMIN
 10
-0.268373
 20
1.780425
  9
$LIMMAX
 10
171.759714
 20
173.220435
  9
$ORTHOMODE
 70
     0
  9
$REGENMODE
 70
     1
  9
$FILLMODE
 70
     1
  9
$QTEXTMODE
 70
     0
  9
$MIRRTEXT
 70
     1
  9
$LTSCALE
 40
1.0
  9
$ATTMODE
 70
     1
  9
$TEXTSIZE
 40
0.2
  9
$TRACEWID
 40
0.05
  9
$TEXTSTYLE
  7
Standard
  9
$CLAYER
  8
0
  9
$CELTYPE
  6
Continuous
  9
$CECOLOR
 62
   256
  9
$CELTSCALE
 40
1.0
  9
$DISPSILH
 70
     0
  9
$DIMSCALE
 40
1.0
  9
$DIMASZ
 40
0.18
  9
$DIMEXO
 40
0.0625
  9
$DIMDLI
 40
0.38
  9
$DIMRND
 40
0.0
  9
$DIMDLE
 40
0.0
  9
$DIMEXE
 40
0.18
  9
$DIMTP
 40
0.0
  9
$DIMTM
 40
0.0
  9
$DIMTXT
 40
0.18
  9
$DIMCEN
 40
0.09
  9
$DIMTSZ
 40
0.0
  9
$DIMTOL
 70
     0
  9
$DIMLIM
 70
     0
  9
$DIMTIH
 70
     1
  9
$DIMTOH
 70
     1
  9
$DIMSE1
 70
     0
  9
$DIMSE2
 70
     0
  9
$DIMTAD
 70
     0
  9
$DIMZIN
 70
     0
  9
$DIMBLK
  1

  9
$DIMASO
 70
     1
  9
$DIMSHO
 70
     1
  9
$DIMPOST
  1

  9
$DIMAPOST
  1

  9
$DIMALT
 70
     0
  9
$DIMALTD
 70
     2
  9
$DIMALTF
 40
25.4
  9
$DIMLFAC
 40
1.0
  9
$DIMTOFL
 70
     0
  9
$DIMTVP
 40
0.0
  9
$DIMTIX
 70
     0
  9
$DIMSOXD
 70
     0
  9
$DIMSAH
 70
     0
  9
$DIMBLK1
  1

  9
$DIMBLK2
  1

  9
$DIMSTYLE
  2
Standard
  9
$DIMCLRD
 70
     0
  9
$DIMCLRE
 70
     0
  9
$DIMCLRT
 70
     0
  9
$DIMTFAC
 40
1.0
  9
$DIMGAP
 40
0.09
  9
$DIMJUST
 70
     0
  9
$DIMSD1
 70
     0
  9
$DIMSD2
 70
     0
  9
$DIMTOLJ
 70
     1
  9
$DIMTZIN
 70
     0
  9
$DIMALTZ
 70
     0
  9
$DIMALTTZ
 70
     0
  9
$DIMUPT
 70
     0
  9
$DIMDEC
 70
     4
  9
$DIMTDEC
 70
     4
  9
$DIMALTU
 70
     2
  9
$DIMALTTD
 70
     2
  9
$DIMTXSTY
  7
Standard
  9
$DIMAUNIT
 70
     0
  9
$DIMADEC
 70
     0
  9
$DIMALTRND
 40
0.0
  9
$DIMAZIN
 70
     0
  9
$DIMDSEP
 70
     0
  9
$DIMATFIT
 70
     3
  9
$DIMFRAC
 70
     0
  9
$DIMLDRBLK
  1

  9
$DIMLUNIT
 70
     2
  9
$DIMLWD
 70
     0
  9
$DIMLWE
 70
     0
  9
$DIMTMOVE
 70
     0
  9
$LUNITS
 70
     2
  9
$LUPREC
 70
     4
  9
$SKETCHINC
 40
0.1
  9
$FILLETRAD
 40
0.0
  9
$AUNITS
 70
     0
  9
$AUPREC
 70
     0
  9
$MENU
  1
acad
  9
$ELEVATION
 40
0.0
  9
$PELEVATION
 40
0.0
  9
$THICKNESS
 40
0.0
  9
$LIMCHECK
 70
     0
  9
$CHAMFERA
 40
0.0
  9
$CHAMFERB
 40
0.0
  9
$CHAMFERC
 40
0.0
  9
$CHAMFERD
 40
0.0
  9
$SKPOLY
 70
     0
  9
$TDCREATE
 40
0.000000000
  9
$TDUCREATE
 40
0.000000000
  9
$TDUPDATE
 40
0.000000000
  9
$TDUUPDATE
 40
0.000000000
  9
$TDINDWG
 40
0.0000000000
  9
$TDUSRTIMER
 40
0.0000000000
  9
$USRTIMER
 70
     1
  9
$ANGBASE
 50
0.0
  9
$ANGDIR
 70
     0
  9
$PDMODE
 70
     0
  9
$PDSIZE
 40
0.0
  9
$PLINEWID
 40
0.0
  9
$SPLFRAME
 70
     0
  9
$SPLINETYPE
 70
     6
  9
$SPLINESEGS
 70
     8
  9
$HANDSEED
  5
E5
  9
$SURFTAB1
 70
     6
  9
$SURFTAB2
 70
     6
  9
$SURFTYPE
 70
     6
  9
$SURFU
 70
     6
  9
$SURFV
 70
     6
  9
$UCSBASE
  2

  9
$UCSNAME
  2

  9
$UCSORG
 10
0.0
 20
0.0
 30
0.0
  9
$UCSXDIR
 10
1.0
 20
0.0
 30
0.0
  9
$UCSYDIR
 10
0.0
 20
1.0
 30
0.0
  9
$UCSORTHOREF
  2

  9
$UCSORTHOVIEW
 70
     0
  9
$UCSORGTOP
 10
0.0
 20
0.0
 30
0.0
  9
$UCSORGBOTTOM
 10
0.0
 20
0.0
 30
0.0
  9
$UCSORGLEFT
 10
0.0
 20
0.0
 30
0.0
  9
$UCSORGRIGHT
 10
0.0
 20
0.0
 30
0.0
  9
$UCSORGFRONT
 10
0.0
 20
0.0
 30
0.0
  9
$UCSORGBACK
 10
0.0
 20
0.0
 30
0.0
  9
$PUCSBASE
  2

  9
$PUCSNAME
  2

  9
$PUCSORG
 10
0.0
 20
0.0
 30
0.0
  9
$PUCSXDIR
 10
1.0
 20
0.0
 30
0.0
  9
$PUCSYDIR
 10
0.0
 20
1.0
 30
0.0
  9
$PUCSORTHOREF
  2

  9
$PUCSORTHOVIEW
 70
     0
  9
$PUCSORGTOP
 10
0.0
 20
0.0
 30
0.0
  9
$PUCSORGBOTTOM
 10
0.0
 20
0.0
 30
0.0
  9
$PUCSORGLEFT
 10
0.0
 20
0.0
 30
0.0
  9
$PUCSORGRIGHT
 10
0.0
 20
0.0
 30
0.0
  9
$PUCSORGFRONT
 10
0.0
 20
0.0
 30
0.0
  9
$PUCSORGBACK
 10
0.0
 20
0.0
 30
0.0
  9
$USERI1
 70
     0
  9
$USERI2
 70
     0
  9
$USERI3
 70
     0
  9
$USERI4
 70
     0
  9
$USERI5
 70
     0
  9
$USERR1
 40
0.0
  9
$USERR2
 40
0.0
  9
$USERR3
 40
0.0
  9
$USERR4
 40
0.0
  9
$USERR5
 40
0.0
  9
$WORLDVIEW
 70
     1
  9
$SHADEDGE
 70
     3
  9
$SHADEDIF
 70
    70
  9
$TILEMODE
 70
     1
  9
$MAXACTVP
 70
    16
  9
$PINSBASE
 10
0.0
 20
0.0
 30
0.0
  9
$PLIMCHECK
 70
     0
  9
$PEXTMIN
 10
1.000000E+20
 20
1.000000E+20
 30
1.000000E+20
  9
$PEXTMAX
 10
-1.000000E+20
 20
-1.000000E+20
 30
-1.000000E+20
  9
$PLIMMIN
 10
0.0
 20
0.0
  9
$PLIMMAX
 10
12.0
 20
9.0
  9
$UNITMODE
 70
     0
  9
$VISRETAIN
 70
     0
  9
$PLINEGEN
 70
     1
  9
$PSLTSCALE
 70
     0
  9
$TREEDEPTH
 70
  3020
  9
$CMLSTYLE
  2
Standard
  9
$CMLJUST
 70
     0
  9
$CMLSCALE
 40
1.0
  9
$PROXYGRAPHICS
 70
     0
  9
$MEASUREMENT
 70
     1
  9
$CELWEIGHT
370
     0
  9
$ENDCAPS
280
     0
  9
$JOINSTYLE
280
     0
  9
$LWDISPLAY
290
     0
  9
$INSUNITS
 70
     0
  9
$HYPERLINKBASE
  1

  9
$STYLESHEET
  1

  9
$XEDIT
290
     1
  9
$CEPSNTYPE
380
     0
  9
$PSTYLEMODE
290
     1
  9
$FINGERPRINTGUID
  2

  9
$VERSIONGUID
  2

  9
$EXTNAMES
290
     1
  9
$PSVPSCALE
 40
0.0
  0
ENDSEC
  0
SECTION
  2
CLASSES
  0
CLASS
  1
LWPOLYLINE
  2
AcDbPolyline
  3
AutoCAD 2000
 90
    32768
280
     0
281
     1
  0
CLASS
  1
IMAGE
  2
AcDbRasterImage
  3
ISM
 90
    32895
280
     0
281
     1
  0
CLASS
  1
OLE2FRAME
  2
AcDbOle2Frame
  3
AutoCAD 2000
 90
    32768
280
     0
281
     1
  0
CLASS
  1
HATCH
  2
AcDbHatch
  3
AutoCAD 2000
 90
    32768
280
     0
281
     1
  0
CLASS
  1
DICTIONARYVAR
  2
AcDbDictionaryVar
  3
AutoCAD 2000
 90
    32768
280
     0
281
     0
  0
CLASS
  1
RASTERVARIABLES
  2
AcDbRasterVariables
  3
ISM
 90
    32768
280
     0
281
     0
  0
CLASS
  1
IMAGEDEF
  2
AcDbRasterImageDef
  3
ISM
 90
    32768
280
     0
281
     0
  0
CLASS
  1
IMAGEDEF_REACTOR
  2
AcDbRasterImageDefReactor
  3
ISM
 90
    32769
280
     0
281
     0
  0
CLASS
  1
IDBUFFER
  2
AcDbIdBuffer
  3
AutoCAD 2000
 90
    32768
280
     0
281
     0
  0
CLASS
  1
SPATIAL_FILTER
  2
AcDbSpatialFilter
  3
AutoCAD 2000
 90
    32768
280
     0
281
     0
  0
CLASS
  1
XRECORD
  2
AcDbXrecord
  3
AutoCAD 2000
 90
    32768
280
     0
281
     0
  0
CLASS
  1
SORTENTSTABLE
  2
AcDbSortentsTable
  3
AutoCAD 2000
 90
    32768
280
     0
281
     0
  0
CLASS
  1
LAYER_INDEX
  2
AcDbLayerIndex
  3
AutoCAD 2000
 90
    32768
280
     0
281
     0
  0
CLASS
  1
SPATIAL_INDEX
  2
AcDbSpatialIndex
  3
AutoCAD 2000
 90
    32768
280
     0
281
     0
  0
CLASS
  1
OBJECT_PTR
  2
CAseDLPNTableRecord
  3
"ASE-LPNTableRecord"
 90
    32769
280
     0
281
     0
  0
CLASS
  1
LAYOUT
  2
AcDbLayout
  3
AutoCAD 2000
 90
        0
280
     0
281
     0
  0
CLASS
  1
PLOTSETTINGS
  2
AcDbPlotSettings
  3
AutoCAD 2000
 90
    32768
280
     0
281
     0
  0
CLASS
  1
ACDBDICTIONARYWDFLT
  2
AcDbDictionaryWithDefault
  3
AutoCAD 2000
 90
        0
280
     0
281
     0
  0
CLASS
  1
ACDBPLACEHOLDER
  2
AcDbPlaceHolder
  3
AutoCAD 2000
 90
        0
280
     0
281
     0
  0
CLASS
  1
VBA_PROJECT
  2
AcDbVbaProject
  3
acadvba
 90
    32768
280
     0
281
     0
  0
CLASS
  1
WIPEOUT
  2
AcDbWipeout
  3
WipeOut|AutoCAD Express Tool|expresstools@autodesk.com
 90
    32895
280
     0
281
     1
  0
CLASS
  1
WIPEOUTVARIABLES
  2
AcDbWipeoutVariables
  3
WipeOut|AutoCAD Express Tool|expresstools@autodesk.com
 90
        0
280
     0
281
     0
  0
CLASS
  1
RTEXT
  2
RText
  3
RText|AutoCAD Express Tool|expresstools@autodesk.com
 90
    32768
280
     0
281
     1
  0
CLASS
  1
ARCALIGNEDTEXT
  2
AcDbArcAlignedText
  3
ATEXT|AutoCAD Express Tool|expresstools@autodesk.com
 90
    32768
280
     0
281
     1
  0
ENDSEC
  0
SECTION
  2
TABLES
  0
TABLE
  2
VPORT
  5
7
100
AcDbSymbolTable
 70
     1
  0
VPORT
  5
15
100
AcDbSymbolTableRecord
100
AcDbViewportTableRecord
  2
*ACTIVE
 70
     0
 10
0.0
 20
0.0
 11
1.0
 21
1.0
 12
6.591288
 22
4.579184
 13
0.0
 23
0.0
 14
1.0
 24
1.0
 15
0.0
 25
0.0
 16
0.0
 26
0.0
 36
1.0
 17
0.0
 27
0.0
 37
0.0
 40
9.158369
 41
0.688564
 42
50.0
 43
0.0
 44
0.0
 50
0.0
 51
0.0
 71
     0
 72
   100
 73
     1
 74
     1
 75
     0
 76
     0
 77
     0
 78
     0
281
     0
 65
     0
110
0.0
120
0.0
130
0.0
111
1.0
121
0.0
131
0.0
112
0.0
122
1.0
132
0.0
345
0
346
0
 79
     0
146
0.0
  0
ENDTAB
  0
TABLE
  2
LTYPE
  5
4
100
AcDbSymbolTable
 70
     3
  0
LTYPE
  5
11
100
AcDbSymbolTableRecord
100
AcDbLinetypeTableRecord
  2
ByBlock
 70
    64
  3

 72
    65
 73
     0
 40
0.0
  0
LTYPE
  5
12
100
AcDbSymbolTableRecord
100
AcDbLinetypeTableRecord
  2
ByLayer
 70
    64
  3

 72
    65
 73
     0
 40
0.0
  0
LTYPE
  5
13
100
AcDbSymbolTableRecord
100
AcDbLinetypeTableRecord
  2
Continuous
 70
    64
  3
Solid line
 72
    65
 73
     0
 40
0.0
  0
ENDTAB
  0
TABLE
  2
LAYER
  5
2
100
AcDbSymbolTable
 70
     2
  0
LAYER
  5
14
100
AcDbSymbolTableRecord
100
AcDbLayerTableRecord
  2
0
 70
     0
 62
     7
  6
Continuous
290
     1
370
    -3
390
1D
  0
LAYER
  5
28
100
AcDbSymbolTableRecord
100
AcDbLayerTableRecord
  2
LIVELLO_1
 70
     0
 62
   160
  6
Continuous
290
     1
370
    -3
390
1D
  0
ENDTAB
  0
TABLE
  2
STYLE
  5
3
100
AcDbSymbolTable
 70
     5
  0
STYLE
  5
17
100
AcDbSymbolTableRecord
100
AcDbTextStyleTableRecord
  2
Standard
 70
     0
 40
0.0
 41
1.0
 50
0.0
 71
     0
 42
0.0
  3
txt
  4

  0
STYLE
  5
24
100
AcDbSymbolTableRecord
100
AcDbTextStyleTableRecord
  2
STD
 70
     0
 40
0.0
 41
1.0
 50
0.0
 71
     0
 42
0.0
  3
txt
  4

  0
STYLE
  5
25
100
AcDbSymbolTableRecord
100
AcDbTextStyleTableRecord
  2
TATESTD
 70
     4
 40
0.0
 41
1.0
 50
0.0
 71
     0
 42
0.0
  3
txt
  4

  0
STYLE
  5
26
100
AcDbSymbolTableRecord
100
AcDbTextStyleTableRecord
  2
KANJISTD
 70
     0
 40
0.0
 41
1.0
 50
0.0
 71
     0
 42
0.0
  3
txt
  4
extfont
  0
STYLE
  5
27
100
AcDbSymbolTableRecord
100
AcDbTextStyleTableRecord
  2
KANJITATE
 70
     4
 40
0.0
 41
1.0
 50
0.0
 71
     0
 42
0.0
  3
txt
  4
extfont
  0
ENDTAB
  0
TABLE
  2
VIEW
  5
5
100
AcDbSymbolTable
 70
     0
  0
ENDTAB
  0
TABLE
  2
UCS
  5
6
100
AcDbSymbolTable
 70
     0
  0
ENDTAB
  0
TABLE
  2
APPID
  5
8
100
AcDbSymbolTable
 70
     1
  0
APPID
  5
16
100
AcDbSymbolTableRecord
100
AcDbRegAppTableRecord
  2
ACAD
 70
     0
  0
ENDTAB
  0
TABLE
  2
DIMSTYLE
  5
9
100
AcDbSymbolTable
 70
     1
100
AcDbDimStyleTable
 71
     0
  0
DIMSTYLE
105
18
100
AcDbSymbolTableRecord
100
AcDbDimStyleTableRecord
  2
Standard
 70
     0
  3

  4

 40
1.0
 41
0.18
 42
0.0625
 43
0.38
 44
0.18
 45
0.0
 46
0.0
 47
0.0
 48
0.0
 71
     0
 72
     0
 73
     1
 74
     1
 75
     0
 76
     0
 77
     0
 78
     0
 79
     0
140
0.18
141
0.09
142
0.0
143
25.4
144
1.0
145
0.0
146
1.0
147
0.09
148
0.0
170
     0
171
     2
172
     0
173
     0
174
     0
175
     0
176
     0
177
     0
178
     0
179
     0
271
     4
272
     4
273
     2
274
     2
275
     0
276
     0
277
     2
278
    46
279
     0
280
     0
281
     0
282
     0
283
     1
284
     0
285
     0
286
     0
288
     0
340
17
341
0
342
0
343
0
344
0
371
    -2
372
    -2
  0
ENDTAB
  0
TABLE
  2
BLOCK_RECORD
  5
1
100
AcDbSymbolTable
 70
     1
  0
BLOCK_RECORD
  5
A
100
AcDbSymbolTableRecord
100
AcDbBlockTableRecord
  2
*MODEL_SPACE
340
20
  0
BLOCK_RECORD
  5
B
100
AcDbSymbolTableRecord
100
AcDbBlockTableRecord
  2
*PAPER_SPACE
340
21
  0
BLOCK_RECORD
  5
29
100
AcDbSymbolTableRecord
100
AcDbBlockTableRecord
  2
AI9-BLK1
340
0
102
{BLKREFS
331
2A
102
}
  0
ENDTAB
  0
ENDSEC
  0
SECTION
  2
BLOCKS
  0
BLOCK
  5
D
100
AcDbEntity
  8
0
100
AcDbBlockBegin
  2
*MODEL_SPACE
 70
     0
 10
0.0
 20
0.0
 30
0.0
  3
*MODEL_SPACE
  1

  0
ENDBLK
  5
E
100
AcDbEntity
  8
0
100
AcDbBlockEnd
  0
BLOCK
  5
F
100
AcDbEntity
 67
     1
  8
0
100
AcDbBlockBegin
  2
*PAPER_SPACE
 70
     0
 10
0.0
 20
0.0
 30
0.0
  3
*PAPER_SPACE
  1

  0
ENDBLK
  5
10
100
AcDbEntity
 67
     1
  8
0
100
AcDbBlockEnd
  0
BLOCK
  5
2B
100
AcDbEntity
  8
LIVELLO_1
 62
     7
100
AcDbBlockBegin
  2
AI9-BLK1
 70
     0
 10
0.0
 20
0.0
 30
0.0
  3
AI9-BLK1
  1

  0
POLYLINE
  5
DE
100
AcDbEntity
  8
LIVELLO_1
 62
     7
100
AcDb2dPolyline
 66
     1
 10
0.0
 20
0.0
 30
0.0
 70
     1
  0
VERTEX
  5
DF
100
AcDbEntity
  8
LIVELLO_1
 62
     7
100
AcDbVertex
100
AcDb2dVertex
 10
42.43083
 20
-34.682293
 30
0.0
  0
VERTEX
  5
E0
100
AcDbEntity
  8
LIVELLO_1
 62
     7
100
AcDbVertex
100
AcDb2dVertex
 10
37.157422
 20
-34.682293
 30
0.0
  0
VERTEX
  5
E1
100
AcDbEntity
  8
LIVELLO_1
 62
     7
100
AcDbVertex
100
AcDb2dVertex
 10
37.157422
 20
-33.495113
 30
0.0
  0
VERTEX
  5
E2
100
AcDbEntity
  8
LIVELLO_1
 62
     7
100
AcDbVertex
100
AcDb2dVertex
 10
42.43083
 20
-33.495113
 30
0.0
  0
SEQEND
  5
E3
100
AcDbEntity
  8
LIVELLO_1
 62
     7
  0
LINE
  5
DD
100
AcDbEntity
  8
LIVELLO_1
 62
     7
100
AcDbLine
 10
38.564743
 20
21.47483
 30
0.0
 11
33.930401
 21
21.47483
 31
0.0
  0
LINE
  5
DC
100
AcDbEntity
  8
LIVELLO_1
 62
     7
100
AcDbLine
 10
18.804365
 20
21.47483
 30
0.0
 11
23.441808
 21
21.47483
 31
0.0
  0
SPLINE
  5
DB
100
AcDbEntity
  8
LIVELLO_1
 62
     7
100
AcDbSpline
210
0.0
220
0.0
230
1.0
 70
     8
 71
     3
 72
    20
 73
    16
 74
     0
 42
0.00000001
 43
0.00000001
 40
0.0
 40
0.0
 40
0.0
 40
0.0
 40
1.0
 40
1.0
 40
1.0
 40
2.0
 40
2.0
 40
2.0
 40
3.0
 40
3.0
 40
3.0
 40
4.0
 40
4.0
 40
4.0
 40
5.0
 40
5.0
 40
5.0
 40
5.0
 10
32.865866427951389
 20
-15.061785210503471
 30
0.0
 10
32.865866427951389
 20
-15.061785210503471
 30
0.0
 10
32.85725368923611
 20
-15.367709689670138
 30
0.0
 10
32.85725368923611
 20
-15.367709689670138
 30
0.0
 10
32.85725368923611
 20
-16.203489854600694
 30
0.0
 10
32.220255533854164
 20
-16.878384060329861
 30
0.0
 10
31.383786349826387
 20
-16.878384060329861
 30
0.0
 10
31.383786349826387
 20
-16.878384060329861
 30
0.0
 10
25.971196831597219
 20
-16.878384060329861
 30
0.0
 10
25.971196831597219
 20
-16.878384060329861
 30
0.0
 10
25.134727647569441
 20
-16.878384060329861
 30
0.0
 10
24.497729492187499
 20
-16.203489854600694
 30
0.0
 10
24.497729492187499
 20
-15.367709689670138
 30
0.0
 10
24.497729492187499
 20
-15.367709689670138
 30
0.0
 10
24.497729492187499
 20
-14.999084472656248
 30
0.0
 10
24.497729492187499
 20
-14.999084472656248
 30
0.0
  0
SPLINE
  5
DA
100
AcDbEntity
  8
LIVELLO_1
 62
     7
100
AcDbSpline
210
0.0
220
0.0
230
1.0
 70
     8
 71
     3
 72
    20
 73
    16
 74
     0
 42
0.00000001
 43
0.00000001
 40
0.0
 40
0.0
 40
0.0
 40
0.0
 40
1.0
 40
1.0
 40
1.0
 40
2.0
 40
2.0
 40
2.0
 40
3.0
 40
3.0
 40
3.0
 40
4.0
 40
4.0
 40
4.0
 40
5.0
 40
5.0
 40
5.0
 40
5.0
 10
32.90376247829861
 20
-13.909400770399305
 30
0.0
 10
32.90376247829861
 20
-13.909400770399305
 30
0.0
 10
32.895149739583331
 20
-14.217736816406248
 30
0.0
 10
32.895149739583331
 20
-14.217736816406248
 30
0.0
 10
32.895149739583331
 20
-15.053172471788193
 30
0.0
 10
32.220255533854164
 20
-15.730133734809026
 30
0.0
 10
31.383786349826387
 20
-15.730133734809026
 30
0.0
 10
31.383786349826387
 20
-15.730133734809026
 30
0.0
 10
25.971196831597219
 20
-15.730133734809026
 30
0.0
 10
25.971196831597219
 20
-15.730133734809026
 30
0.0
 10
25.134727647569441
 20
-15.730133734809026
 30
0.0
 10
24.459833441840274
 20
-15.053172471788193
 30
0.0
 10
24.459833441840274
 20
-14.217736816406248
 30
0.0
 10
24.459833441840274
 20
-14.217736816406248
 30
0.0
 10
24.459833441840274
 20
-13.846700032552082
 30
0.0
 10
24.459833441840274
 20
-13.846700032552082
 30
0.0
  0
LINE
  5
D9
100
AcDbEntity
  8
LIVELLO_1
 62
     7
100
AcDbLine
 10
18.066425
 20
-38.859816
 30
0.0
 11
23.274721
 21
-41.692029
 31
0.0
  0
LINE
  5
D8
100
AcDbEntity
  8
LIVELLO_1
 62
     7
100
AcDbLine
 10
23.279199
 20
-38.859816
 30
0.0
 11
18.066425
 21
-41.692029
 31
0.0
  0
LINE
  5
D7
100
AcDbEntity
  8
LIVELLO_1
 62
     7
100
AcDbLine
 10
18.066425
 20
-38.859816
 30
0.0
 11
12.854857
 21
-41.692029
 31
0.0
  0
LINE
  5
D6
100
AcDbEntity
  8
LIVELLO_1
 62
     7
100
AcDbLine
 10
12.854857
 20
-38.859816
 30
0.0
 11
18.066425
 21
-41.692029
 31
0.0
  0
POLYLINE
  5
D0
100
AcDbEntity
  8
LIVELLO_1
 62
     7
100
AcDb2dPolyline
 66
     1
 10
0.0
 20
0.0
 30
0.0
 70
     1
  0
VERTEX
  5
D1
100
AcDbEntity
  8
LIVELLO_1
 62
     7
100
AcDbVertex
100
AcDb2dVertex
 10
12.854857
 20
-38.859816
 30
0.0
  0
VERTEX
  5
D2
100
AcDbEntity
  8
LIVELLO_1
 62
     7
100
AcDbVertex
100
AcDb2dVertex
 10
18.066425
 20
-38.859816
 30
0.0
  0
VERTEX
  5
D3
100
AcDbEntity
  8
LIVELLO_1
 62
     7
100
AcDbVertex
100
AcDb2dVertex
 10
18.066425
 20
-41.692029
 30
0.0
  0
VERTEX
  5
D4
100
AcDbEntity
  8
LIVELLO_1
 62
     7
100
AcDbVertex
100
AcDb2dVertex
 10
12.854857
 20
-41.692029
 30
0.0
  0
SEQEND
  5
D5
100
AcDbEntity
  8
LIVELLO_1
 62
     7
  0
POLYLINE
  5
CA
100
AcDbEntity
  8
LIVELLO_1
 62
     7
100
AcDb2dPolyline
 66
     1
 10
0.0
 20
0.0
 30
0.0
 70
     1
  0
VERTEX
  5
CB
100
AcDbEntity
  8
LIVELLO_1
 62
     7
100
AcDbVertex
100
AcDb2dVertex
 10
18.066425
 20
-38.859816
 30
0.0
  0
VERTEX
  5
CC
100
AcDbEntity
  8
LIVELLO_1
 62
     7
100
AcDbVertex
100
AcDb2dVertex
 10
23.279199
 20
-38.859816
 30
0.0
  0
VERTEX
  5
CD
100
AcDbEntity
  8
LIVELLO_1
 62
     7
100
AcDbVertex
100
AcDb2dVertex
 10
23.279199
 20
-41.692029
 30
0.0
  0
VERTEX
  5
CE
100
AcDbEntity
  8
LIVELLO_1
 62
     7
100
AcDbVertex
100
AcDb2dVertex
 10
18.066425
 20
-41.692029
 30
0.0
  0
SEQEND
  5
CF
100
AcDbEntity
  8
LIVELLO_1
 62
     7
  0
SPLINE
  5
C9
100
AcDbEntity
  8
LIVELLO_1
 62
     7
100
AcDbSpline
210
0.0
220
0.0
230
1.0
 70
     8
 71
     3
 72
    23
 73
    19
 74
     0
 42
0.00000001
 43
0.00000001
 40
0.0
 40
0.0
 40
0.0
 40
0.0
 40
1.0
 40
1.0
 40
1.0
 40
2.0
 40
2.0
 40
2.0
 40
3.0
 40
3.0
 40
3.0
 40
4.0
 40
4.0
 40
4.0
 40
5.0
 40
5.0
 40
5.0
 40
6.0
 40
6.0
 40
6.0
 40
6.0
 10
23.274720594618053
 20
-41.692028808593747
 30
0.0
 10
23.274720594618053
 20
-41.692028808593747
 30
0.0
 10
23.274720594618053
 20
-42.314902072482639
 30
0.0
 10
23.274720594618053
 20
-42.314902072482639
 30
0.0
 10
23.274720594618053
 20
-43.150337727864581
 30
0.0
 10
22.597759331597221
 20
-43.82729899088541
 30
0.0
 10
21.764390733506943
 20
-43.82729899088541
 30
0.0
 10
21.764390733506943
 20
-43.82729899088541
 30
0.0
 10
14.366392686631944
 20
-43.82729899088541
 30
0.0
 10
14.366392686631944
 20
-43.82729899088541
 30
0.0
 10
13.533024088541666
 20
-43.82729899088541
 30
0.0
 10
12.854857042100694
 20
-43.150337727864581
 30
0.0
 10
12.854857042100694
 20
-42.314902072482639
 30
0.0
 10
12.854857042100694
 20
-42.314902072482639
 30
0.0
 10
12.854857042100694
 20
-41.692028808593747
 30
0.0
 10
12.854857042100694
 20
-41.692028808593747
 30
0.0
 10
12.854857042100694
 20
-41.692028808593747
 30
0.0
 10
23.274720594618053
 20
-41.692028808593747
 30
0.0
 10
23.274720594618053
 20
-41.692028808593747
 30
0.0
  0
POLYLINE
  5
C3
100
AcDbEntity
  8
LIVELLO_1
 62
     7
100
AcDb2dPolyline
 66
     1
 10
0.0
 20
0.0
 30
0.0
 70
     1
  0
VERTEX
  5
C4
100
AcDbEntity
  8
LIVELLO_1
 62
     7
100
AcDbVertex
100
AcDb2dVertex
 10
23.279199
 20
-38.859816
 30
0.0
  0
VERTEX
  5
C5
100
AcDbEntity
  8
LIVELLO_1
 62
     7
100
AcDbVertex
100
AcDb2dVertex
 10
12.854857
 20
-38.859816
 30
0.0
  0
VERTEX
  5
C6
100
AcDbEntity
  8
LIVELLO_1
 62
     7
100
AcDbVertex
100
AcDb2dVertex
 10
12.854857
 20
-37.429757
 30
0.0
  0
VERTEX
  5
C7
100
AcDbEntity
  8
LIVELLO_1
 62
     7
100
AcDbVertex
100
AcDb2dVertex
 10
23.279199
 20
-37.429757
 30
0.0
  0
SEQEND
  5
C8
100
AcDbEntity
  8
LIVELLO_1
 62
     7
  0
LINE
  5
C2
100
AcDbEntity
  8
LIVELLO_1
 62
     7
100
AcDbLine
 10
21.4595
 20
-33.495113
 30
0.0
 11
21.4595
 21
-35.869473
 31
0.0
  0
LINE
  5
C1
100
AcDbEntity
  8
LIVELLO_1
 62
     7
100
AcDbLine
 10
20.657482
 20
-33.495113
 30
0.0
 11
20.657482
 21
-35.869473
 31
0.0
  0
LINE
  5
C0
100
AcDbEntity
  8
LIVELLO_1
 62
     7
100
AcDbLine
 10
15.47313
 20
-33.495113
 30
0.0
 11
15.47313
 21
-35.869473
 31
0.0
  0
LINE
  5
BF
100
AcDbEntity
  8
LIVELLO_1
 62
     7
100
AcDbLine
 10
14.670078
 20
-33.495113
 30
0.0
 11
14.670078
 21
-35.869473
 31
0.0
  0
POLYLINE
  5
B9
100
AcDbEntity
  8
LIVELLO_1
 62
     7
100
AcDb2dPolyline
 66
     1
 10
0.0
 20
0.0
 30
0.0
 70
     1
  0
VERTEX
  5
BA
100
AcDbEntity
  8
LIVELLO_1
 62
     7
100
AcDbVertex
100
AcDb2dVertex
 10
22.8148
 20
-37.429757
 30
0.0
  0
VERTEX
  5
BB
100
AcDbEntity
  8
LIVELLO_1
 62
     7
100
AcDbVertex
100
AcDb2dVertex
 10
13.31495
 20
-37.429757
 30
0.0
  0
VERTEX
  5
BC
100
AcDbEntity
  8
LIVELLO_1
 62
     7
100
AcDbVertex
100
AcDb2dVertex
 10
13.31495
 20
-35.869473
 30
0.0
  0
VERTEX
  5
BD
100
AcDbEntity
  8
LIVELLO_1
 62
     7
100
AcDbVertex
100
AcDb2dVertex
 10
22.8148
 20
-35.869473
 30
0.0
  0
SEQEND
  5
BE
100
AcDbEntity
  8
LIVELLO_1
 62
     7
  0
POLYLINE
  5
B3
100
AcDbEntity
  8
LIVELLO_1
 62
     7
100
AcDb2dPolyline
 66
     1
 10
0.0
 20
0.0
 30
0.0
 70
     1
  0
VERTEX
  5
B4
100
AcDbEntity
  8
LIVELLO_1
 62
     7
100
AcDbVertex
100
AcDb2dVertex
 10
23.603727
 20
-35.869473
 30
0.0
  0
VERTEX
  5
B5
100
AcDbEntity
  8
LIVELLO_1
 62
     7
100
AcDbVertex
100
AcDb2dVertex
 10
12.526023
 20
-35.869473
 30
0.0
  0
VERTEX
  5
B6
100
AcDbEntity
  8
LIVELLO_1
 62
     7
100
AcDbVertex
100
AcDb2dVertex
 10
12.526023
 20
-33.495113
 30
0.0
  0
VERTEX
  5
B7
100
AcDbEntity
  8
LIVELLO_1
 62
     7
100
AcDbVertex
100
AcDb2dVertex
 10
23.603727
 20
-33.495113
 30
0.0
  0
SEQEND
  5
B8
100
AcDbEntity
  8
LIVELLO_1
 62
     7
  0
LINE
  5
B2
100
AcDbEntity
  8
LIVELLO_1
 62
     7
100
AcDbLine
 10
29.502075
 20
-31.728813
 30
0.0
 11
29.502075
 21
-33.495113
 31
0.0
  0
LINE
  5
B1
100
AcDbEntity
  8
LIVELLO_1
 62
     7
100
AcDbLine
 10
27.915609
 20
-31.728813
 30
0.0
 11
27.915609
 21
-33.495113
 31
0.0
  0
LINE
  5
B0
100
AcDbEntity
  8
LIVELLO_1
 62
     7
100
AcDbLine
 10
23.959606
 20
-31.728813
 30
0.0
 11
23.959606
 21
-33.495113
 31
0.0
  0
POLYLINE
  5
AA
100
AcDbEntity
  8
LIVELLO_1
 62
     7
100
AcDb2dPolyline
 66
     1
 10
0.0
 20
0.0
 30
0.0
 70
     1
  0
VERTEX
  5
AB
100
AcDbEntity
  8
LIVELLO_1
 62
     7
100
AcDbVertex
100
AcDb2dVertex
 10
45.310585
 20
-33.495113
 30
0.0
  0
VERTEX
  5
AC
100
AcDbEntity
  8
LIVELLO_1
 62
     7
100
AcDbVertex
100
AcDb2dVertex
 10
12.108305
 20
-33.495113
 30
0.0
  0
VERTEX
  5
AD
100
AcDbEntity
  8
LIVELLO_1
 62
     7
100
AcDbVertex
100
AcDb2dVertex
 10
12.108305
 20
-31.728813
 30
0.0
  0
VERTEX
  5
AE
100
AcDbEntity
  8
LIVELLO_1
 62
     7
100
AcDbVertex
100
AcDb2dVertex
 10
45.310585
 20
-31.728813
 30
0.0
  0
SEQEND
  5
AF
100
AcDbEntity
  8
LIVELLO_1
 62
     7
  0
SPLINE
  5
A9
100
AcDbEntity
  8
LIVELLO_1
 62
     7
100
AcDbSpline
210
0.0
220
0.0
230
1.0
 70
     8
 71
     3
 72
    20
 73
    16
 74
     0
 42
0.00000001
 43
0.00000001
 40
0.0
 40
0.0
 40
0.0
 40
0.0
 40
1.0
 40
1.0
 40
1.0
 40
2.0
 40
2.0
 40
2.0
 40
3.0
 40
3.0
 40
3.0
 40
4.0
 40
4.0
 40
4.0
 40
5.0
 40
5.0
 40
5.0
 40
5.0
 10
48.077685546874996
 20
27.699084472656246
 30
0.0
 10
48.077685546874996
 20
27.699084472656246
 30
0.0
 10
38.564743381076383
 20
27.699084472656246
 30
0.0
 10
38.564743381076383
 20
27.699084472656246
 30
0.0
 10
38.564743381076383
 20
27.699084472656246
 30
0.0
 10
38.564743381076383
 20
19.964500596788191
 30
0.0
 10
38.564743381076383
 20
19.964500596788191
 30
0.0
 10
38.564743381076383
 20
20.799936252170138
 30
0.0
 10
39.244116210937499
 20
21.477242024739581
 30
0.0
 10
40.079551866319441
 20
21.477242024739581
 30
0.0
 10
40.079551866319441
 20
21.477242024739581
 30
0.0
 10
47.931268988715274
 20
21.477242024739581
 30
0.0
 10
47.931268988715274
 20
21.477242024739581
 30
0.0
 10
47.931268988715274
 20
21.477242024739581
 30
0.0
 10
48.077685546874996
 20
27.699084472656246
 30
0.0
 10
48.077685546874996
 20
27.699084472656246
 30
0.0
  0
SPLINE
  5
A8
100
AcDbEntity
  8
LIVELLO_1
 62
     7
100
AcDbSpline
210
0.0
220
0.0
230
1.0
 70
     8
 71
     3
 72
    20
 73
    16
 74
     0
 42
0.00000001
 43
0.00000001
 40
0.0
 40
0.0
 40
0.0
 40
0.0
 40
1.0
 40
1.0
 40
1.0
 40
2.0
 40
2.0
 40
2.0
 40
3.0
 40
3.0
 40
3.0
 40
4.0
 40
4.0
 40
4.0
 40
5.0
 40
5.0
 40
5.0
 40
5.0
 10
9.2946953667534711
 20
27.699084472656246
 30
0.0
 10
9.2946953667534711
 20
27.699084472656246
 30
0.0
 10
18.804364691840277
 20
27.699084472656246
 30
0.0
 10
18.804364691840277
 20
27.699084472656246
 30
0.0
 10
18.804364691840277
 20
27.699084472656246
 30
0.0
 10
18.804364691840277
 20
19.964500596788191
 30
0.0
 10
18.804364691840277
 20
19.964500596788191
 30
0.0
 10
18.804364691840277
 20
20.799936252170138
 30
0.0
 10
18.12826470269097
 20
21.477242024739581
 30
0.0
 10
17.292829047309027
 20
21.477242024739581
 30
0.0
 10
17.292829047309027
 20
21.477242024739581
 30
0.0
 10
9.4421454535590268
 20
21.477242024739581
 30
0.0
 10
9.4421454535590268
 20
21.477242024739581
 30
0.0
 10
9.4421454535590268
 20
21.477242024739581
 30
0.0
 10
9.2946953667534711
 20
27.699084472656246
 30
0.0
 10
9.2946953667534711
 20
27.699084472656246
 30
0.0
  0
SPLINE
  5
A7
100
AcDbEntity
  8
LIVELLO_1
 62
     7
100
AcDbSpline
210
0.0
220
0.0
230
1.0
 70
     8
 71
     3
 72
    23
 73
    19
 74
     0
 42
0.00000001
 43
0.00000001
 40
0.0
 40
0.0
 40
0.0
 40
0.0
 40
1.0
 40
1.0
 40
1.0
 40
2.0
 40
2.0
 40
2.0
 40
3.0
 40
3.0
 40
3.0
 40
4.0
 40
4.0
 40
4.0
 40
5.0
 40
5.0
 40
5.0
 40
6.0
 40
6.0
 40
6.0
 40
6.0
 10
31.601860894097218
 20
27.699084472656246
 30
0.0
 10
31.601860894097218
 20
27.699084472656246
 30
0.0
 10
31.601860894097218
 20
22.985504828559026
 30
0.0
 10
31.601860894097218
 20
22.985504828559026
 30
0.0
 10
31.601860894097218
 20
22.149724663628469
 30
0.0
 10
30.921454535590275
 20
21.474830457899305
 30
0.0
 10
30.086018880208332
 20
21.474830457899305
 30
0.0
 10
30.086018880208332
 20
21.474830457899305
 30
0.0
 10
27.277577039930552
 20
21.474830457899305
 30
0.0
 10
27.277577039930552
 20
21.474830457899305
 30
0.0
 10
26.442141384548609
 20
21.474830457899305
 30
0.0
 10
25.766213650173608
 20
22.149724663628469
 30
0.0
 10
25.766213650173608
 20
22.985504828559026
 30
0.0
 10
25.766213650173608
 20
22.985504828559026
 30
0.0
 10
25.766213650173608
 20
27.699084472656246
 30
0.0
 10
25.766213650173608
 20
27.699084472656246
 30
0.0
 10
25.766213650173608
 20
27.699084472656246
 30
0.0
 10
31.601860894097218
 20
27.699084472656246
 30
0.0
 10
31.601860894097218
 20
27.699084472656246
 30
0.0
  0
POLYLINE
  5
A1
100
AcDbEntity
  8
LIVELLO_1
 62
     7
100
AcDb2dPolyline
 66
     1
 10
0.0
 20
0.0
 30
0.0
 70
     1
  0
VERTEX
  5
A2
100
AcDbEntity
  8
LIVELLO_1
 62
     7
100
AcDbVertex
100
AcDb2dVertex
 10
54.650928
 20
27.699084
 30
0.0
  0
VERTEX
  5
A3
100
AcDbEntity
  8
LIVELLO_1
 62
     7
100
AcDbVertex
100
AcDb2dVertex
 10
48.077686
 20
27.699084
 30
0.0
  0
VERTEX
  5
A4
100
AcDbEntity
  8
LIVELLO_1
 62
     7
100
AcDbVertex
100
AcDb2dVertex
 10
47.931269
 20
21.47483
 30
0.0
  0
VERTEX
  5
A5
100
AcDbEntity
  8
LIVELLO_1
 62
     7
100
AcDbVertex
100
AcDb2dVertex
 10
54.650928
 20
21.47483
 30
0.0
  0
SEQEND
  5
A6
100
AcDbEntity
  8
LIVELLO_1
 62
     7
  0
POLYLINE
  5
9B
100
AcDbEntity
  8
LIVELLO_1
 62
     7
100
AcDb2dPolyline
 66
     1
 10
0.0
 20
0.0
 30
0.0
 70
     1
  0
VERTEX
  5
9C
100
AcDbEntity
  8
LIVELLO_1
 62
     7
100
AcDbVertex
100
AcDb2dVertex
 10
2.721281
 20
27.699084
 30
0.0
  0
VERTEX
  5
9D
100
AcDbEntity
  8
LIVELLO_1
 62
     7
100
AcDbVertex
100
AcDb2dVertex
 10
9.294695
 20
27.699084
 30
0.0
  0
VERTEX
  5
9E
100
AcDbEntity
  8
LIVELLO_1
 62
     7
100
AcDbVertex
100
AcDb2dVertex
 10
9.442145
 20
21.47483
 30
0.0
  0
VERTEX
  5
9F
100
AcDbEntity
  8
LIVELLO_1
 62
     7
100
AcDbVertex
100
AcDb2dVertex
 10
2.721281
 20
21.47483
 30
0.0
  0
SEQEND
  5
A0
100
AcDbEntity
  8
LIVELLO_1
 62
     7
  0
SPLINE
  5
9A
100
AcDbEntity
  8
LIVELLO_1
 62
     7
100
AcDbSpline
210
0.0
220
0.0
230
1.0
 70
     8
 71
     3
 72
    41
 73
    37
 74
     0
 42
0.00000001
 43
0.00000001
 40
0.0
 40
0.0
 40
0.0
 40
0.0
 40
1.0
 40
1.0
 40
1.0
 40
2.0
 40
2.0
 40
2.0
 40
3.0
 40
3.0
 40
3.0
 40
4.0
 40
4.0
 40
4.0
 40
5.0
 40
5.0
 40
5.0
 40
6.0
 40
6.0
 40
6.0
 40
7.0
 40
7.0
 40
7.0
 40
8.0
 40
8.0
 40
8.0
 40
9.0
 40
9.0
 40
9.0
 40
10.0
 40
10.0
 40
10.0
 40
11.0
 40
11.0
 40
11.0
 40
12.0
 40
12.0
 40
12.0
 40
12.0
 10
33.955205620659719
 20
23.302109103732636
 30
0.0
 10
33.955205620659719
 20
23.302109103732636
 30
0.0
 10
32.443842230902774
 20
-30.21813829210069
 30
0.0
 10
32.443842230902774
 20
-30.21813829210069
 30
0.0
 10
32.443842230902774
 20
-31.051506890190968
 30
0.0
 10
31.768948025173607
 20
-31.728812662760415
 30
0.0
 10
30.935579427083329
 20
-31.728812662760415
 30
0.0
 10
30.935579427083329
 20
-31.728812662760415
 30
0.0
 10
26.43008355034722
 20
-31.728812662760415
 30
0.0
 10
26.43008355034722
 20
-31.728812662760415
 30
0.0
 10
25.594647894965277
 20
-31.728812662760415
 30
0.0
 10
24.91975368923611
 20
-31.051506890190968
 30
0.0
 10
24.91975368923611
 20
-30.21813829210069
 30
0.0
 10
24.91975368923611
 20
-30.21813829210069
 30
0.0
 10
23.408390299479166
 20
23.302109103732636
 30
0.0
 10
23.408390299479166
 20
23.302109103732636
 30
0.0
 10
23.408390299479166
 20
23.302109103732636
 30
0.0
 10
25.766213650173608
 20
23.471607801649302
 30
0.0
 10
25.766213650173608
 20
23.471607801649302
 30
0.0
 10
25.766213650173608
 20
23.471607801649302
 30
0.0
 10
25.766213650173608
 20
22.985504828559026
 30
0.0
 10
25.766213650173608
 20
22.985504828559026
 30
0.0
 10
25.766213650173608
 20
22.149724663628469
 30
0.0
 10
26.442141384548609
 20
21.474830457899305
 30
0.0
 10
27.277577039930552
 20
21.474830457899305
 30
0.0
 10
27.277577039930552
 20
21.474830457899305
 30
0.0
 10
30.086018880208332
 20
21.474830457899305
 30
0.0
 10
30.086018880208332
 20
21.474830457899305
 30
0.0
 10
30.921454535590275
 20
21.474830457899305
 30
0.0
 10
31.601860894097218
 20
22.149724663628469
 30
0.0
 10
31.601860894097218
 20
22.985504828559026
 30
0.0
 10
31.601860894097218
 20
22.985504828559026
 30
0.0
 10
31.601860894097218
 20
23.471607801649302
 30
0.0
 10
31.601860894097218
 20
23.471607801649302
 30
0.0
 10
31.601860894097218
 20
23.471607801649302
 30
0.0
 10
33.955205620659719
 20
23.302109103732636
 30
0.0
 10
33.955205620659719
 20
23.302109103732636
 30
0.0
  0
LINE
  5
99
100
AcDbEntity
  8
LIVELLO_1
 62
     7
100
AcDbLine
 10
41.833105
 20
-27.486178
 30
0.0
 11
40.931179
 21
-27.486178
 31
0.0
  0
POLYLINE
  5
94
100
AcDbEntity
  8
LIVELLO_1
 62
     7
100
AcDb2dPolyline
 66
     1
 10
0.0
 20
0.0
 30
0.0
  0
VERTEX
  5
95
100
AcDbEntity
  8
LIVELLO_1
 62
     7
100
AcDbVertex
100
AcDb2dVertex
 10
41.368707
 20
21.47483
 30
0.0
  0
VERTEX
  5
96
100
AcDbEntity
  8
LIVELLO_1
 62
     7
100
AcDbVertex
100
AcDb2dVertex
 10
40.931179
 20
-27.486178
 30
0.0
  0
VERTEX
  5
97
100
AcDbEntity
  8
LIVELLO_1
 62
     7
100
AcDbVertex
100
AcDb2dVertex
 10
39.988257
 20
-28.794625
 30
0.0
  0
SEQEND
  5
98
100
AcDbEntity
  8
LIVELLO_1
 62
     7
  0
POLYLINE
  5
8D
100
AcDbEntity
  8
LIVELLO_1
 62
     7
100
AcDb2dPolyline
 66
     1
 10
0.0
 20
0.0
 30
0.0
  0
VERTEX
  5
8E
100
AcDbEntity
  8
LIVELLO_1
 62
     7
100
AcDbVertex
100
AcDb2dVertex
 10
43.050258
 20
21.47483
 30
0.0
  0
VERTEX
  5
8F
100
AcDbEntity
  8
LIVELLO_1
 62
     7
100
AcDbVertex
100
AcDb2dVertex
 10
41.833105
 20
-27.486178
 30
0.0
  0
VERTEX
  5
90
100
AcDbEntity
  8
LIVELLO_1
 62
     7
100
AcDbVertex
100
AcDb2dVertex
 10
40.919466
 20
-28.794625
 30
0.0
  0
VERTEX
  5
91
100
AcDbEntity
  8
LIVELLO_1
 62
     7
100
AcDbVertex
100
AcDb2dVertex
 10
39.988257
 20
-28.794625
 30
0.0
  0
VERTEX
  5
92
100
AcDbEntity
  8
LIVELLO_1
 62
     7
100
AcDbVertex
100
AcDb2dVertex
 10
40.388577
 20
21.47483
 30
0.0
  0
SEQEND
  5
93
100
AcDbEntity
  8
LIVELLO_1
 62
     7
  0
LINE
  5
8C
100
AcDbEntity
  8
LIVELLO_1
 62
     7
100
AcDbLine
 10
15.539275
 20
-27.486178
 30
0.0
 11
16.442063
 21
-27.486178
 31
0.0
  0
POLYLINE
  5
87
100
AcDbEntity
  8
LIVELLO_1
 62
     7
100
AcDb2dPolyline
 66
     1
 10
0.0
 20
0.0
 30
0.0
  0
VERTEX
  5
88
100
AcDbEntity
  8
LIVELLO_1
 62
     7
100
AcDbVertex
100
AcDb2dVertex
 10
15.999368
 20
21.47483
 30
0.0
  0
VERTEX
  5
89
100
AcDbEntity
  8
LIVELLO_1
 62
     7
100
AcDbVertex
100
AcDb2dVertex
 10
16.442063
 20
-27.486178
 30
0.0
  0
VERTEX
  5
8A
100
AcDbEntity
  8
LIVELLO_1
 62
     7
100
AcDbVertex
100
AcDb2dVertex
 10
17.383952
 20
-28.794625
 30
0.0
  0
SEQEND
  5
8B
100
AcDbEntity
  8
LIVELLO_1
 62
     7
  0
POLYLINE
  5
80
100
AcDbEntity
  8
LIVELLO_1
 62
     7
100
AcDb2dPolyline
 66
     1
 10
0.0
 20
0.0
 30
0.0
  0
VERTEX
  5
81
100
AcDbEntity
  8
LIVELLO_1
 62
     7
100
AcDbVertex
100
AcDb2dVertex
 10
14.317472
 20
21.47483
 30
0.0
  0
VERTEX
  5
82
100
AcDbEntity
  8
LIVELLO_1
 62
     7
100
AcDbVertex
100
AcDb2dVertex
 10
15.539275
 20
-27.486178
 30
0.0
  0
VERTEX
  5
83
100
AcDbEntity
  8
LIVELLO_1
 62
     7
100
AcDbVertex
100
AcDb2dVertex
 10
16.450675
 20
-28.794625
 30
0.0
  0
VERTEX
  5
84
100
AcDbEntity
  8
LIVELLO_1
 62
     7
100
AcDbVertex
100
AcDb2dVertex
 10
17.383952
 20
-28.794625
 30
0.0
  0
VERTEX
  5
85
100
AcDbEntity
  8
LIVELLO_1
 62
     7
100
AcDbVertex
100
AcDb2dVertex
 10
16.983459
 20
21.47483
 30
0.0
  0
SEQEND
  5
86
100
AcDbEntity
  8
LIVELLO_1
 62
     7
  0
POLYLINE
  5
7B
100
AcDbEntity
  8
LIVELLO_1
 62
     7
100
AcDb2dPolyline
 66
     1
 10
0.0
 20
0.0
 30
0.0
  0
VERTEX
  5
7C
100
AcDbEntity
  8
LIVELLO_1
 62
     7
100
AcDbVertex
100
AcDb2dVertex
 10
52.519792
 20
27.699084
 30
0.0
  0
VERTEX
  5
7D
100
AcDbEntity
  8
LIVELLO_1
 62
     7
100
AcDbVertex
100
AcDb2dVertex
 10
46.519469
 20
21.47483
 30
0.0
  0
VERTEX
  5
7E
100
AcDbEntity
  8
LIVELLO_1
 62
     7
100
AcDbVertex
100
AcDb2dVertex
 10
45.382243
 20
-30.218138
 30
0.0
  0
SEQEND
  5
7F
100
AcDbEntity
  8
LIVELLO_1
 62
     7
  0
POLYLINE
  5
76
100
AcDbEntity
  8
LIVELLO_1
 62
     7
100
AcDb2dPolyline
 66
     1
 10
0.0
 20
0.0
 30
0.0
  0
VERTEX
  5
77
100
AcDbEntity
  8
LIVELLO_1
 62
     7
100
AcDbVertex
100
AcDb2dVertex
 10
4.854484
 20
27.699084
 30
0.0
  0
VERTEX
  5
78
100
AcDbEntity
  8
LIVELLO_1
 62
     7
100
AcDbVertex
100
AcDb2dVertex
 10
10.85274
 20
21.47483
 30
0.0
  0
VERTEX
  5
79
100
AcDbEntity
  8
LIVELLO_1
 62
     7
100
AcDbVertex
100
AcDb2dVertex
 10
11.990999
 20
-30.218138
 30
0.0
  0
SEQEND
  5
7A
100
AcDbEntity
  8
LIVELLO_1
 62
     7
  0
POLYLINE
  5
71
100
AcDbEntity
  8
LIVELLO_1
 62
     7
100
AcDb2dPolyline
 66
     1
 10
0.0
 20
0.0
 30
0.0
 70
     1
  0
VERTEX
  5
72
100
AcDbEntity
  8
LIVELLO_1
 62
     7
100
AcDbVertex
100
AcDb2dVertex
 10
48.077686
 20
27.699084
 30
0.0
  0
VERTEX
  5
73
100
AcDbEntity
  8
LIVELLO_1
 62
     7
100
AcDbVertex
100
AcDb2dVertex
 10
46.788531
 20
-27.327703
 30
0.0
  0
VERTEX
  5
74
100
AcDbEntity
  8
LIVELLO_1
 62
     7
100
AcDbVertex
100
AcDb2dVertex
 10
45.454934
 20
-28.595154
 30
0.0
  0
SEQEND
  5
75
100
AcDbEntity
  8
LIVELLO_1
 62
     7
  0
POLYLINE
  5
6C
100
AcDbEntity
  8
LIVELLO_1
 62
     7
100
AcDb2dPolyline
 66
     1
 10
0.0
 20
0.0
 30
0.0
 70
     1
  0
VERTEX
  5
6D
100
AcDbEntity
  8
LIVELLO_1
 62
     7
100
AcDbVertex
100
AcDb2dVertex
 10
9.294695
 20
27.699084
 30
0.0
  0
VERTEX
  5
6E
100
AcDbEntity
  8
LIVELLO_1
 62
     7
100
AcDbVertex
100
AcDb2dVertex
 10
11.917274
 20
-28.595154
 30
0.0
  0
VERTEX
  5
6F
100
AcDbEntity
  8
LIVELLO_1
 62
     7
100
AcDbVertex
100
AcDb2dVertex
 10
10.583678
 20
-27.327703
 30
0.0
  0
SEQEND
  5
70
100
AcDbEntity
  8
LIVELLO_1
 62
     7
  0
SPLINE
  5
6B
100
AcDbEntity
  8
LIVELLO_1
 62
     7
100
AcDbSpline
210
0.0
220
0.0
230
1.0
 70
     8
 71
     3
 72
    23
 73
    19
 74
     0
 42
0.00000001
 43
0.00000001
 40
0.0
 40
0.0
 40
0.0
 40
0.0
 40
1.0
 40
1.0
 40
1.0
 40
2.0
 40
2.0
 40
2.0
 40
3.0
 40
3.0
 40
3.0
 40
4.0
 40
4.0
 40
4.0
 40
5.0
 40
5.0
 40
5.0
 40
6.0
 40
6.0
 40
6.0
 40
6.0
 10
13.503740776909721
 20
-31.728812662760415
 30
0.0
 10
12.668132866753471
 20
-31.728812662760415
 30
0.0
 10
11.990999348958333
 20
-31.051506890190968
 30
0.0
 10
11.990999348958333
 20
-30.21813829210069
 30
0.0
 10
11.990999348958333
 20
-30.21813829210069
 30
0.0
 10
9.2946953667534711
 20
27.699084472656246
 30
0.0
 10
9.2946953667534711
 20
27.699084472656246
 30
0.0
 10
9.2946953667534711
 20
27.699084472656246
 30
0.0
 10
48.077685546874996
 20
27.699084472656246
 30
0.0
 10
48.077685546874996
 20
27.699084472656246
 30
0.0
 10
48.077685546874996
 20
27.699084472656246
 30
0.0
 10
45.382242838541664
 20
-30.21813829210069
 30
0.0
 10
45.382242838541664
 20
-30.21813829210069
 30
0.0
 10
45.382242838541664
 20
-31.051506890190968
 30
0.0
 10
44.704248046874994
 20
-31.728812662760415
 30
0.0
 10
43.87087944878472
 20
-31.728812662760415
 30
0.0
 10
43.87087944878472
 20
-31.728812662760415
 30
0.0
 10
13.503740776909721
 20
-31.728812662760415
 30
0.0
 10
13.503740776909721
 20
-31.728812662760415
 30
0.0
  0
SPLINE
  5
6A
100
AcDbEntity
  8
LIVELLO_1
 62
     7
100
AcDbSpline
210
0.0
220
0.0
230
1.0
 70
     8
 71
     3
 72
    29
 73
    25
 74
     0
 42
0.00000001
 43
0.00000001
 40
0.0
 40
0.0
 40
0.0
 40
0.0
 40
1.0
 40
1.0
 40
1.0
 40
2.0
 40
2.0
 40
2.0
 40
3.0
 40
3.0
 40
3.0
 40
4.0
 40
4.0
 40
4.0
 40
5.0
 40
5.0
 40
5.0
 40
6.0
 40
6.0
 40
6.0
 40
7.0
 40
7.0
 40
7.0
 40
8.0
 40
8.0
 40
8.0
 40
8.0
 10
1.2769246419270832
 20
35.466052246093746
 30
0.0
 10
1.2769246419270832
 20
35.466052246093746
 30
0.0
 10
56.090977647569439
 20
35.466052246093746
 30
0.0
 10
56.090977647569439
 20
35.466052246093746
 30
0.0
 10
56.508523220486104
 20
35.466052246093746
 30
0.0
 10
56.846142578124997
 20
35.127399359809026
 30
0.0
 10
56.846142578124997
 20
34.710887315538194
 30
0.0
 10
56.846142578124997
 20
34.710887315538194
 30
0.0
 10
56.846142578124997
 20
28.454249403211804
 30
0.0
 10
56.846142578124997
 20
28.454249403211804
 30
0.0
 10
56.846142578124997
 20
28.037392849392358
 30
0.0
 10
56.508523220486104
 20
27.699084472656246
 30
0.0
 10
56.090977647569439
 20
27.699084472656246
 30
0.0
 10
56.090977647569439
 20
27.699084472656246
 30
0.0
 10
1.2769246419270832
 20
27.699084472656246
 30
0.0
 10
1.2769246419270832
 20
27.699084472656246
 30
0.0
 10
0.859206814236111
 20
27.699084472656246
 30
0.0
 10
0.5217597113715278
 20
28.037392849392358
 30
0.0
 10
0.5217597113715278
 20
28.454249403211804
 30
0.0
 10
0.5217597113715278
 20
28.454249403211804
 30
0.0
 10
0.5217597113715278
 20
34.710887315538194
 30
0.0
 10
0.5217597113715278
 20
34.710887315538194
 30
0.0
 10
0.5217597113715278
 20
35.127399359809026
 30
0.0
 10
0.859206814236111
 20
35.466052246093746
 30
0.0
 10
1.2769246419270832
 20
35.466052246093746
 30
0.0
  0
SPLINE
  5
69
100
AcDbEntity
  8
LIVELLO_1
 62
     7
100
AcDbSpline
210
0.0
220
0.0
230
1.0
 70
     8
 71
     3
 72
    23
 73
    19
 74
     0
 42
0.00000001
 43
0.00000001
 40
0.0
 40
0.0
 40
0.0
 40
0.0
 40
1.0
 40
1.0
 40
1.0
 40
2.0
 40
2.0
 40
2.0
 40
3.0
 40
3.0
 40
3.0
 40
4.0
 40
4.0
 40
4.0
 40
5.0
 40
5.0
 40
5.0
 40
6.0
 40
6.0
 40
6.0
 40
6.0
 10
31.913297526041664
 20
-26.435767957899301
 30
0.0
 10
31.913297526041664
 20
-26.435767957899301
 30
0.0
 10
31.913297526041664
 20
-29.838488769531246
 30
0.0
 10
31.913297526041664
 20
-29.838488769531246
 30
0.0
 10
31.913297526041664
 20
-30.893032497829857
 30
0.0
 10
31.070971679687496
 20
-31.748105197482637
 30
0.0
 10
30.026074218749997
 20
-31.748105197482637
 30
0.0
 10
30.026074218749997
 20
-31.748105197482637
 30
0.0
 10
-3.9498019748263884
 20
-31.748105197482637
 30
0.0
 10
-3.9498019748263884
 20
-31.748105197482637
 30
0.0
 10
-3.9498019748263884
 20
-31.748105197482637
 30
0.0
 10
-3.9498019748263884
 20
-24.525807020399302
 30
0.0
 10
-3.9498019748263884
 20
-24.525807020399302
 30
0.0
 10
-3.9498019748263884
 20
-24.525807020399302
 30
0.0
 10
30.026074218749997
 20
-24.525807020399302
 30
0.0
 10
30.026074218749997
 20
-24.525807020399302
 30
0.0
 10
31.070971679687496
 20
-24.525807020399302
 30
0.0
 10
31.913297526041664
 20
-25.380879720052082
 30
0.0
 10
31.913297526041664
 20
-26.435767957899301
 30
0.0
  0
SPLINE
  5
68
100
AcDbEntity
  8
LIVELLO_1
 62
     7
100
AcDbSpline
210
0.0
220
0.0
230
1.0
 70
     8
 71
     3
 72
    23
 73
    19
 74
     0
 42
0.00000001
 43
0.00000001
 40
0.0
 40
0.0
 40
0.0
 40
0.0
 40
1.0
 40
1.0
 40
1.0
 40
2.0
 40
2.0
 40
2.0
 40
3.0
 40
3.0
 40
3.0
 40
4.0
 40
4.0
 40
4.0
 40
5.0
 40
5.0
 40
5.0
 40
6.0
 40
6.0
 40
6.0
 40
6.0
 10
31.913297526041664
 20
-26.435767957899301
 30
0.0
 10
31.913297526041664
 20
-26.435767957899301
 30
0.0
 10
31.913297526041664
 20
-29.838488769531246
 30
0.0
 10
31.913297526041664
 20
-29.838488769531246
 30
0.0
 10
31.913297526041664
 20
-30.893032497829857
 30
0.0
 10
31.070971679687496
 20
-31.748105197482637
 30
0.0
 10
30.026074218749997
 20
-31.748105197482637
 30
0.0
 10
30.026074218749997
 20
-31.748105197482637
 30
0.0
 10
-3.9498019748263884
 20
-31.748105197482637
 30
0.0
 10
-3.9498019748263884
 20
-31.748105197482637
 30
0.0
 10
-3.9498019748263884
 20
-31.748105197482637
 30
0.0
 10
-3.9498019748263884
 20
-24.525807020399302
 30
0.0
 10
-3.9498019748263884
 20
-24.525807020399302
 30
0.0
 10
-3.9498019748263884
 20
-24.525807020399302
 30
0.0
 10
30.026074218749997
 20
-24.525807020399302
 30
0.0
 10
30.026074218749997
 20
-24.525807020399302
 30
0.0
 10
31.070971679687496
 20
-24.525807020399302
 30
0.0
 10
31.913297526041664
 20
-25.380879720052082
 30
0.0
 10
31.913297526041664
 20
-26.435767957899301
 30
0.0
  0
LINE
  5
67
100
AcDbEntity
  8
LIVELLO_1
 62
     7
100
AcDbLine
 10
-11.820984
 20
78.061902
 30
0.0
 11
-53.903687
 21
78.061902
 31
0.0
  0
LINE
  5
66
100
AcDbEntity
  8
LIVELLO_1
 62
     7
100
AcDbLine
 10
-53.903687
 20
73.823573
 30
0.0
 11
-53.903687
 21
82.300231
 31
0.0
  0
LINE
  5
65
100
AcDbEntity
  8
LIVELLO_1
 62
     7
100
AcDbLine
 10
12.899299
 20
78.061902
 30
0.0
 11
56.846143
 21
78.061902
 31
0.0
  0
LINE
  5
64
100
AcDbEntity
  8
LIVELLO_1
 62
     7
100
AcDbLine
 10
56.846143
 20
73.823573
 30
0.0
 11
56.846143
 21
82.300231
 31
0.0
  0
LINE
  5
63
100
AcDbEntity
  8
LIVELLO_1
 62
     7
100
AcDbLine
 10
-43.483651
 20
7.510136
 30
0.0
 11
-43.483651
 21
-2.904732
 31
0.0
  0
SPLINE
  5
62
100
AcDbEntity
  8
LIVELLO_1
 62
     7
100
AcDbSpline
210
0.0
220
0.0
230
1.0
 70
     8
 71
     3
 72
    11
 73
     7
 74
     0
 42
0.00000001
 43
0.00000001
 40
0.0
 40
0.0
 40
0.0
 40
0.0
 40
1.0
 40
1.0
 40
1.0
 40
2.0
 40
2.0
 40
2.0
 40
2.0
 10
-46.35255398220486
 20
-1.0361124674479165
 30
0.0
 10
-50.534555392795134
 20
-1.0361124674479165
 30
0.0
 10
-53.903686523437493
 20
0.5372626410590278
 30
0.0
 10
-53.903686523437493
 20
2.4796074761284719
 30
0.0
 10
-53.903686523437493
 20
4.4219523111979164
 30
0.0
 10
-50.534555392795134
 20
5.9973944769965275
 30
0.0
 10
-46.37219102647569
 20
5.9973944769965275
 30
0.0
  0
SPLINE
  5
61
100
AcDbEntity
  8
LIVELLO_1
 62
     7
100
AcDbSpline
210
0.0
220
0.0
230
1.0
 70
     8
 71
     3
 72
    17
 73
    13
 74
     0
 42
0.00000001
 43
0.00000001
 40
0.0
 40
0.0
 40
0.0
 40
0.0
 40
1.0
 40
1.0
 40
1.0
 40
2.0
 40
2.0
 40
2.0
 40
3.0
 40
3.0
 40
3.0
 40
4.0
 40
4.0
 40
4.0
 40
4.0
 10
-23.558251953124998
 20
-52.421089680989581
 30
0.0
 10
-23.558251953124998
 20
-52.421089680989581
 30
0.0
 10
-46.35255398220486
 20
-53.321982150607631
 30
0.0
 10
-46.35255398220486
 20
-53.321982150607631
 30
0.0
 10
-46.35255398220486
 20
-53.321982150607631
 30
0.0
 10
-48.232025824652773
 20
-55.203348795572914
 30
0.0
 10
-48.232025824652773
 20
-55.203348795572914
 30
0.0
 10
-48.232025824652773
 20
-55.203348795572914
 30
0.0
 10
-25.445303005642359
 20
-53.835990397135411
 30
0.0
 10
-25.445303005642359
 20
-53.835990397135411
 30
0.0
 10
-24.403678385416665
 20
-53.835990397135411
 30
0.0
 10
-23.558251953124998
 20
-53.462886555989577
 30
0.0
 10
-23.558251953124998
 20
-52.421089680989581
 30
0.0
  0
SPLINE
  5
60
100
AcDbEntity
  8
LIVELLO_1
 62
     7
100
AcDbSpline
210
0.0
220
0.0
230
1.0
 70
     8
 71
     3
 72
    17
 73
    13
 74
     0
 42
0.00000001
 43
0.00000001
 40
0.0
 40
0.0
 40
0.0
 40
0.0
 40
1.0
 40
1.0
 40
1.0
 40
2.0
 40
2.0
 40
2.0
 40
3.0
 40
3.0
 40
3.0
 40
4.0
 40
4.0
 40
4.0
 40
4.0
 10
-23.558251953124998
 20
57.367213270399297
 30
0.0
 10
-23.558251953124998
 20
57.367213270399297
 30
0.0
 10
-46.35255398220486
 20
58.267761230468743
 30
0.0
 10
-46.35255398220486
 20
58.267761230468743
 30
0.0
 10
-46.35255398220486
 20
58.267761230468743
 30
0.0
 10
-48.232025824652773
 20
60.14947238498263
 30
0.0
 10
-48.232025824652773
 20
60.14947238498263
 30
0.0
 10
-48.232025824652773
 20
60.14947238498263
 30
0.0
 10
-25.445303005642359
 20
58.782113986545134
 30
0.0
 10
-25.445303005642359
 20
58.782113986545134
 30
0.0
 10
-24.403678385416665
 20
58.782113986545134
 30
0.0
 10
-23.558251953124998
 20
58.4090101453993
 30
0.0
 10
-23.558251953124998
 20
57.367213270399297
 30
0.0
  0
SPLINE
  5
5F
100
AcDbEntity
  8
LIVELLO_1
 62
     7
100
AcDbSpline
210
0.0
220
0.0
230
1.0
 70
     8
 71
     3
 72
    20
 73
    16
 74
     0
 42
0.00000001
 43
0.00000001
 40
0.0
 40
0.0
 40
0.0
 40
0.0
 40
1.0
 40
1.0
 40
1.0
 40
2.0
 40
2.0
 40
2.0
 40
3.0
 40
3.0
 40
3.0
 40
4.0
 40
4.0
 40
4.0
 40
5.0
 40
5.0
 40
5.0
 40
5.0
 10
-23.558251953124998
 20
-28.722966851128469
 30
0.0
 10
-23.558251953124998
 20
-29.384769694010416
 30
0.0
 10
-24.627092827690969
 20
-29.918759494357637
 30
0.0
 10
-25.949837239583331
 20
-29.918759494357637
 30
0.0
 10
-25.949837239583331
 20
-29.918759494357637
 30
0.0
 10
-46.35255398220486
 20
-29.918759494357637
 30
0.0
 10
-46.35255398220486
 20
-29.918759494357637
 30
0.0
 10
-46.35255398220486
 20
-29.918759494357637
 30
0.0
 10
-46.35255398220486
 20
-27.52958577473958
 30
0.0
 10
-46.35255398220486
 20
-27.52958577473958
 30
0.0
 10
-46.35255398220486
 20
-27.52958577473958
 30
0.0
 10
-25.949837239583331
 20
-27.52958577473958
 30
0.0
 10
-25.949837239583331
 20
-27.52958577473958
 30
0.0
 10
-24.627092827690969
 20
-27.52958577473958
 30
0.0
 10
-23.558251953124998
 20
-28.061164008246525
 30
0.0
 10
-23.558251953124998
 20
-28.722966851128469
 30
0.0
  0
SPLINE
  5
5E
100
AcDbEntity
  8
LIVELLO_1
 62
     7
100
AcDbSpline
210
0.0
220
0.0
230
1.0
 70
     8
 71
     3
 72
    20
 73
    16
 74
     0
 42
0.00000001
 43
0.00000001
 40
0.0
 40
0.0
 40
0.0
 40
0.0
 40
1.0
 40
1.0
 40
1.0
 40
2.0
 40
2.0
 40
2.0
 40
3.0
 40
3.0
 40
3.0
 40
4.0
 40
4.0
 40
4.0
 40
5.0
 40
5.0
 40
5.0
 40
5.0
 10
-23.558251953124998
 20
-8.1519571940104161
 30
0.0
 10
-23.558251953124998
 20
-8.8141045464409711
 30
0.0
 10
-24.627092827690969
 20
-9.3501614040798611
 30
0.0
 10
-25.949837239583331
 20
-9.3501614040798611
 30
0.0
 10
-25.949837239583331
 20
-9.3501614040798611
 30
0.0
 10
-46.35255398220486
 20
-9.3501614040798611
 30
0.0
 10
-46.35255398220486
 20
-9.3501614040798611
 30
0.0
 10
-46.35255398220486
 20
-9.3501614040798611
 30
0.0
 10
-46.35255398220486
 20
-6.9561645507812493
 30
0.0
 10
-46.35255398220486
 20
-6.9561645507812493
 30
0.0
 10
-46.35255398220486
 20
-6.9561645507812493
 30
0.0
 10
-25.949837239583331
 20
-6.9561645507812493
 30
0.0
 10
-25.949837239583331
 20
-6.9561645507812493
 30
0.0
 10
-24.627092827690969
 20
-6.9561645507812493
 30
0.0
 10
-23.558251953124998
 20
-7.4922214084201384
 30
0.0
 10
-23.558251953124998
 20
-8.1519571940104161
 30
0.0
  0
SPLINE
  5
5D
100
AcDbEntity
  8
LIVELLO_1
 62
     7
100
AcDbSpline
210
0.0
220
0.0
230
1.0
 70
     8
 71
     3
 72
    20
 73
    16
 74
     0
 42
0.00000001
 43
0.00000001
 40
0.0
 40
0.0
 40
0.0
 40
0.0
 40
1.0
 40
1.0
 40
1.0
 40
2.0
 40
2.0
 40
2.0
 40
3.0
 40
3.0
 40
3.0
 40
4.0
 40
4.0
 40
4.0
 40
5.0
 40
5.0
 40
5.0
 40
5.0
 10
-23.558251953124998
 20
13.100147840711804
 30
0.0
 10
-23.558251953124998
 20
12.43834499782986
 30
0.0
 10
-24.627092827690969
 20
11.90228814019097
 30
0.0
 10
-25.949837239583331
 20
11.90228814019097
 30
0.0
 10
-25.949837239583331
 20
11.90228814019097
 30
0.0
 10
-46.35255398220486
 20
11.90228814019097
 30
0.0
 10
-46.35255398220486
 20
11.90228814019097
 30
0.0
 10
-46.35255398220486
 20
11.90228814019097
 30
0.0
 10
-46.35255398220486
 20
14.295940483940971
 30
0.0
 10
-46.35255398220486
 20
14.295940483940971
 30
0.0
 10
-46.35255398220486
 20
14.295940483940971
 30
0.0
 10
-25.949837239583331
 20
14.295940483940971
 30
0.0
 10
-25.949837239583331
 20
14.295940483940971
 30
0.0
 10
-24.627092827690969
 20
14.295940483940971
 30
0.0
 10
-23.558251953124998
 20
13.759883626302083
 30
0.0
 10
-23.558251953124998
 20
13.100147840711804
 30
0.0
  0
SPLINE
  5
5C
100
AcDbEntity
  8
LIVELLO_1
 62
     7
100
AcDbSpline
210
0.0
220
0.0
230
1.0
 70
     8
 71
     3
 72
    20
 73
    16
 74
     0
 42
0.00000001
 43
0.00000001
 40
0.0
 40
0.0
 40
0.0
 40
0.0
 40
1.0
 40
1.0
 40
1.0
 40
2.0
 40
2.0
 40
2.0
 40
3.0
 40
3.0
 40
3.0
 40
4.0
 40
4.0
 40
4.0
 40
5.0
 40
5.0
 40
5.0
 40
5.0
 10
-23.558251953124998
 20
33.669090440538191
 30
0.0
 10
-23.558251953124998
 20
33.007287597656244
 30
0.0
 10
-24.627092827690969
 20
32.475364854600691
 30
0.0
 10
-25.949837239583331
 20
32.475364854600691
 30
0.0
 10
-25.949837239583331
 20
32.475364854600691
 30
0.0
 10
-46.35255398220486
 20
32.475364854600691
 30
0.0
 10
-46.35255398220486
 20
32.475364854600691
 30
0.0
 10
-46.35255398220486
 20
32.475364854600691
 30
0.0
 10
-46.35255398220486
 20
34.86488308376736
 30
0.0
 10
-46.35255398220486
 20
34.86488308376736
 30
0.0
 10
-46.35255398220486
 20
34.86488308376736
 30
0.0
 10
-25.949837239583331
 20
34.86488308376736
 30
0.0
 10
-25.949837239583331
 20
34.86488308376736
 30
0.0
 10
-24.627092827690969
 20
34.86488308376736
 30
0.0
 10
-23.558251953124998
 20
34.330893283420139
 30
0.0
 10
-23.558251953124998
 20
33.669090440538191
 30
0.0
  0
SPLINE
  5
5B
100
AcDbEntity
  8
LIVELLO_1
 62
     7
100
AcDbSpline
210
0.0
220
0.0
230
1.0
 70
     8
 71
     3
 72
    17
 73
    13
 74
     0
 42
0.00000001
 43
0.00000001
 40
0.0
 40
0.0
 40
0.0
 40
0.0
 40
1.0
 40
1.0
 40
1.0
 40
2.0
 40
2.0
 40
2.0
 40
3.0
 40
3.0
 40
3.0
 40
4.0
 40
4.0
 40
4.0
 40
4.0
 10
-14.972040473090276
 20
45.088548448350693
 30
0.0
 10
-14.972040473090276
 20
45.088548448350693
 30
0.0
 10
-14.972040473090276
 20
-40.144491916232639
 30
0.0
 10
-14.972040473090276
 20
-40.144491916232639
 30
0.0
 10
-14.972040473090276
 20
-41.184221733940966
 30
0.0
 10
-15.816261121961805
 20
-42.026203070746526
 30
0.0
 10
-16.859091525607639
 20
-42.026203070746526
 30
0.0
 10
-16.859091525607639
 20
-42.026203070746526
 30
0.0
 10
-16.859091525607639
 20
46.972326660156249
 30
0.0
 10
-16.859091525607639
 20
46.972326660156249
 30
0.0
 10
-15.816261121961805
 20
46.972326660156249
 30
0.0
 10
-14.972040473090276
 20
46.127933756510416
 30
0.0
 10
-14.972040473090276
 20
45.088548448350693
 30
0.0
  0
SPLINE
  5
5A
100
AcDbEntity
  8
LIVELLO_1
 62
     7
100
AcDbSpline
210
0.0
220
0.0
230
1.0
 70
     8
 71
     3
 72
    17
 73
    13
 74
     0
 42
0.00000001
 43
0.00000001
 40
0.0
 40
0.0
 40
0.0
 40
0.0
 40
1.0
 40
1.0
 40
1.0
 40
2.0
 40
2.0
 40
2.0
 40
3.0
 40
3.0
 40
3.0
 40
4.0
 40
4.0
 40
4.0
 40
4.0
 10
-16.859091525607639
 20
48.853693305121524
 30
0.0
 10
-16.859091525607639
 20
48.853693305121524
 30
0.0
 10
-16.859091525607639
 20
-43.907569715711801
 30
0.0
 10
-16.859091525607639
 20
-43.907569715711801
 30
0.0
 10
-16.859091525607639
 20
-44.949366590711804
 30
0.0
 10
-17.701072862413191
 20
-45.791347927517357
 30
0.0
 10
-18.738391113281249
 20
-45.791347927517357
 30
0.0
 10
-18.738391113281249
 20
-45.791347927517357
 30
0.0
 10
-18.738391113281249
 20
50.73747151692708
 30
0.0
 10
-18.738391113281249
 20
50.73747151692708
 30
0.0
 10
-17.701072862413191
 20
50.73747151692708
 30
0.0
 10
-16.859091525607639
 20
49.89549018012152
 30
0.0
 10
-16.859091525607639
 20
48.853693305121524
 30
0.0
  0
SPLINE
  5
59
100
AcDbEntity
  8
LIVELLO_1
 62
     7
100
AcDbSpline
210
0.0
220
0.0
230
1.0
 70
     8
 71
     3
 72
    17
 73
    13
 74
     0
 42
0.00000001
 43
0.00000001
 40
0.0
 40
0.0
 40
0.0
 40
0.0
 40
1.0
 40
1.0
 40
1.0
 40
2.0
 40
2.0
 40
2.0
 40
3.0
 40
3.0
 40
3.0
 40
4.0
 40
4.0
 40
4.0
 40
4.0
 10
-18.738391113281249
 20
52.618838161892356
 30
0.0
 10
-18.738391113281249
 20
52.618838161892356
 30
0.0
 10
-18.738391113281249
 20
-47.673059082031244
 30
0.0
 10
-18.738391113281249
 20
-47.673059082031244
 30
0.0
 10
-18.738391113281249
 20
-48.714511447482636
 30
0.0
 10
-19.580372450086802
 20
-49.556492784288189
 30
0.0
 10
-20.618896484374996
 20
-49.556492784288189
 30
0.0
 10
-20.618896484374996
 20
-49.556492784288189
 30
0.0
 10
-20.618896484374996
 20
54.500549316406243
 30
0.0
 10
-20.618896484374996
 20
54.500549316406243
 30
0.0
 10
-19.580372450086802
 20
54.500549316406243
 30
0.0
 10
-18.738391113281249
 20
53.65856797960069
 30
0.0
 10
-18.738391113281249
 20
52.618838161892356
 30
0.0
  0
SPLINE
  5
58
100
AcDbEntity
  8
LIVELLO_1
 62
     7
100
AcDbSpline
210
0.0
220
0.0
230
1.0
 70
     8
 71
     3
 72
    23
 73
    19
 74
     0
 42
0.00000001
 43
0.00000001
 40
0.0
 40
0.0
 40
0.0
 40
0.0
 40
1.0
 40
1.0
 40
1.0
 40
2.0
 40
2.0
 40
2.0
 40
3.0
 40
3.0
 40
3.0
 40
4.0
 40
4.0
 40
4.0
 40
5.0
 40
5.0
 40
5.0
 40
6.0
 40
6.0
 40
6.0
 40
6.0
 10
-20.618896484374996
 20
-2.9264363606770831
 30
0.0
 10
-20.618896484374996
 20
-2.9264363606770831
 30
0.0
 10
-20.618896484374996
 20
-50.49838189019097
 30
0.0
 10
-20.618896484374996
 20
-50.49838189019097
 30
0.0
 10
-20.618896484374996
 20
-51.538111707899304
 30
0.0
 10
-21.465184190538192
 20
-52.382160101996526
 30
0.0
 10
-22.505775282118055
 20
-52.382160101996526
 30
0.0
 10
-22.505775282118055
 20
-52.382160101996526
 30
0.0
 10
-46.35255398220486
 20
-53.321982150607631
 30
0.0
 10
-46.35255398220486
 20
-53.321982150607631
 30
0.0
 10
-46.35255398220486
 20
-53.321982150607631
 30
0.0
 10
-46.35255398220486
 20
-1.0426581488715276
 30
0.0
 10
-46.35255398220486
 20
-1.0426581488715276
 30
0.0
 10
-46.35255398220486
 20
-1.0426581488715276
 30
0.0
 10
-22.505775282118055
 20
-1.0426581488715276
 30
0.0
 10
-22.505775282118055
 20
-1.0426581488715276
 30
0.0
 10
-21.465184190538192
 20
-1.0426581488715276
 30
0.0
 10
-20.618896484374996
 20
-1.8891181098090275
 30
0.0
 10
-20.618896484374996
 20
-2.9264363606770831
 30
0.0
  0
POLYLINE
  5
52
100
AcDbEntity
  8
LIVELLO_1
 62
     7
100
AcDb2dPolyline
 66
     1
 10
0.0
 20
0.0
 30
0.0
 70
     1
  0
VERTEX
  5
53
100
AcDbEntity
  8
LIVELLO_1
 62
     7
100
AcDbVertex
100
AcDb2dVertex
 10
-46.352554
 20
58.267761
 30
0.0
  0
VERTEX
  5
54
100
AcDbEntity
  8
LIVELLO_1
 62
     7
100
AcDbVertex
100
AcDb2dVertex
 10
-46.352554
 20
-53.321982
 30
0.0
  0
VERTEX
  5
55
100
AcDbEntity
  8
LIVELLO_1
 62
     7
100
AcDbVertex
100
AcDb2dVertex
 10
-48.232026
 20
-55.203349
 30
0.0
  0
VERTEX
  5
56
100
AcDbEntity
  8
LIVELLO_1
 62
     7
100
AcDbVertex
100
AcDb2dVertex
 10
-48.232026
 20
60.149472
 30
0.0
  0
SEQEND
  5
57
100
AcDbEntity
  8
LIVELLO_1
 62
     7
  0
POLYLINE
  5
4C
100
AcDbEntity
  8
LIVELLO_1
 62
     7
100
AcDb2dPolyline
 66
     1
 10
0.0
 20
0.0
 30
0.0
 70
     1
  0
VERTEX
  5
4D
100
AcDbEntity
  8
LIVELLO_1
 62
     7
100
AcDbVertex
100
AcDb2dVertex
 10
-48.232026
 20
60.149472
 30
0.0
  0
VERTEX
  5
4E
100
AcDbEntity
  8
LIVELLO_1
 62
     7
100
AcDbVertex
100
AcDb2dVertex
 10
-48.232026
 20
-55.203349
 30
0.0
  0
VERTEX
  5
4F
100
AcDbEntity
  8
LIVELLO_1
 62
     7
100
AcDbVertex
100
AcDb2dVertex
 10
-53.903687
 20
-55.203349
 30
0.0
  0
VERTEX
  5
50
100
AcDbEntity
  8
LIVELLO_1
 62
     7
100
AcDbVertex
100
AcDb2dVertex
 10
-53.903687
 20
60.149472
 30
0.0
  0
SEQEND
  5
51
100
AcDbEntity
  8
LIVELLO_1
 62
     7
  0
SPLINE
  5
4B
100
AcDbEntity
  8
LIVELLO_1
 62
     7
100
AcDbSpline
210
0.0
220
0.0
230
1.0
 70
     8
 71
     3
 72
    23
 73
    19
 74
     0
 42
0.00000001
 43
0.00000001
 40
0.0
 40
0.0
 40
0.0
 40
0.0
 40
1.0
 40
1.0
 40
1.0
 40
2.0
 40
2.0
 40
2.0
 40
3.0
 40
3.0
 40
3.0
 40
4.0
 40
4.0
 40
4.0
 40
5.0
 40
5.0
 40
5.0
 40
6.0
 40
6.0
 40
6.0
 40
6.0
 10
-20.618896484374996
 20
55.444505479600693
 30
0.0
 10
-20.618896484374996
 20
55.444505479600693
 30
0.0
 10
-20.618896484374996
 20
7.8725599500868046
 30
0.0
 10
-20.618896484374996
 20
7.8725599500868046
 30
0.0
 10
-20.618896484374996
 20
6.834897189670138
 30
0.0
 10
-21.465184190538192
 20
5.9887817382812498
 30
0.0
 10
-22.505775282118055
 20
5.9887817382812498
 30
0.0
 10
-22.505775282118055
 20
5.9887817382812498
 30
0.0
 10
-46.35255398220486
 20
5.9887817382812498
 30
0.0
 10
-46.35255398220486
 20
5.9887817382812498
 30
0.0
 10
-46.35255398220486
 20
5.9887817382812498
 30
0.0
 10
-46.35255398220486
 20
58.267761230468743
 30
0.0
 10
-46.35255398220486
 20
58.267761230468743
 30
0.0
 10
-46.35255398220486
 20
58.267761230468743
 30
0.0
 10
-22.505775282118055
 20
57.325872124565969
 30
0.0
 10
-22.505775282118055
 20
57.325872124565969
 30
0.0
 10
-21.465184190538192
 20
57.325872124565969
 30
0.0
 10
-20.618896484374996
 20
56.483890787760409
 30
0.0
 10
-20.618896484374996
 20
55.444505479600693
 30
0.0
  0
LINE
  5
4A
100
AcDbEntity
  8
LIVELLO_1
 62
     7
100
AcDbLine
 10
23.32812
 20
-28.319546
 30
0.0
 11
-9.30038
 21
-28.319546
 31
0.0
  0
POLYLINE
  5
44
100
AcDbEntity
  8
LIVELLO_1
 62
     7
100
AcDb2dPolyline
 66
     1
 10
0.0
 20
0.0
 30
0.0
 70
     1
  0
VERTEX
  5
45
100
AcDbEntity
  8
LIVELLO_1
 62
     7
100
AcDbVertex
100
AcDb2dVertex
 10
-3.90536
 20
-19.517327
 30
0.0
  0
VERTEX
  5
46
100
AcDbEntity
  8
LIVELLO_1
 62
     7
100
AcDbVertex
100
AcDb2dVertex
 10
-3.90536
 20
-36.950199
 30
0.0
  0
VERTEX
  5
47
100
AcDbEntity
  8
LIVELLO_1
 62
     7
100
AcDbVertex
100
AcDb2dVertex
 10
-14.97204
 20
-36.950199
 30
0.0
  0
VERTEX
  5
48
100
AcDbEntity
  8
LIVELLO_1
 62
     7
100
AcDbVertex
100
AcDb2dVertex
 10
-14.97204
 20
-19.517327
 30
0.0
  0
SEQEND
  5
49
100
AcDbEntity
  8
LIVELLO_1
 62
     7
  0
CIRCLE
  5
43
100
AcDbEntity
  8
LIVELLO_1
 62
     7
100
AcDbCircle
 10
28.146775
 20
-28.23583
 30
0.0
 40
1.24678
  0
CIRCLE
  5
42
100
AcDbEntity
  8
LIVELLO_1
 62
     7
100
AcDbCircle
 10
28.146775
 20
-28.234797
 30
0.0
 40
2.64101
  0
MTEXT
  5
41
100
AcDbEntity
  8
LIVELLO_1
 62
     7
100
AcDbMText
 10
-12.89637
 20
85.048394
 30
0.0
 40
11.904883
 41
0.0
 71
     1
 72
     2
  1
\fCourier|b0|i0;\H11.9049;\C7;\U+0031\U+0034\U+0038
  7
STD
210
0.0
220
0.0
230
1.0
 73
     1
 44
1.0
  0
MTEXT
  5
40
100
AcDbEntity
  8
LIVELLO_1
 62
     7
100
AcDbMText
 10
-86.013354
 20
8.12923
 30
0.0
 40
11.904883
 41
0.0
 71
     1
 72
     2
  1
\fCourier|b0|i0;\H11.9049;\C7;\U+0031\U+0035\U+0034
  7
STD
210
0.0
220
0.0
230
1.0
 73
     1
 44
1.0
  0
LINE
  5
3F
100
AcDbEntity
  8
LIVELLO_1
 62
     7
100
AcDbLine
 10
-45.040834
 20
-76.813744
 30
0.0
 11
-53.834268
 21
-76.813744
 31
0.0
  0
LINE
  5
3E
100
AcDbEntity
  8
LIVELLO_1
 62
     7
100
AcDbLine
 10
-53.834268
 20
-81.045699
 30
0.0
 11
-53.834268
 21
-72.577654
 31
0.0
  0
LINE
  5
3D
100
AcDbEntity
  8
LIVELLO_1
 62
     7
100
AcDbLine
 10
-23.356542
 20
-76.813744
 30
0.0
 11
-14.906928
 21
-76.813744
 31
0.0
  0
LINE
  5
3C
100
AcDbEntity
  8
LIVELLO_1
 62
     7
100
AcDbLine
 10
-14.906928
 20
-81.045699
 30
0.0
 11
-14.906928
 21
-72.577654
 31
0.0
  0
LINE
  5
3B
100
AcDbEntity
  8
LIVELLO_1
 62
     7
100
AcDbLine
 10
-77.512926
 20
-55.073124
 30
0.0
 11
-69.039541
 21
-55.073124
 31
0.0
  0
LINE
  5
3A
100
AcDbEntity
  8
LIVELLO_1
 62
     7
100
AcDbLine
 10
-73.274597
 20
-8.405861
 30
0.0
 11
-73.272358
 21
-55.073124
 31
0.0
  0
LINE
  5
39
100
AcDbEntity
  8
LIVELLO_1
 62
     7
100
AcDbLine
 10
-73.272358
 20
60.22113
 30
0.0
 11
-73.272358
 21
11.405505
 31
0.0
  0
LINE
  5
38
100
AcDbEntity
  8
LIVELLO_1
 62
     7
100
AcDbLine
 10
-77.512926
 20
60.22113
 30
0.0
 11
-69.039541
 21
60.22113
 31
0.0
  0
MTEXT
  5
37
100
AcDbEntity
  8
LIVELLO_1
 62
     7
100
AcDbMText
 10
-43.056114
 20
-69.831558
 30
0.0
 40
11.904883
 41
0.0
 71
     1
 72
     2
  1
\fCourier|b0|i0;\H11.9049;\C7;\U+0035\U+0033
  7
STD
210
0.0
220
0.0
230
1.0
 73
     1
 44
1.0
  0
LINE
  5
36
100
AcDbEntity
  8
LIVELLO_1
 62
     7
100
AcDbLine
 10
8.830296
 20
49.352888
 30
0.0
 11
0.793061
 21
49.352888
 31
0.0
  0
LINE
  5
35
100
AcDbEntity
  8
LIVELLO_1
 62
     7
100
AcDbLine
 10
0.793061
 20
45.120932
 30
0.0
 11
0.793061
 21
53.588977
 31
0.0
  0
LINE
  5
34
100
AcDbEntity
  8
LIVELLO_1
 62
     7
100
AcDbLine
 10
48.446655
 20
49.352888
 30
0.0
 11
56.846143
 21
49.352888
 31
0.0
  0
LINE
  5
33
100
AcDbEntity
  8
LIVELLO_1
 62
     7
100
AcDbLine
 10
56.846143
 20
45.120932
 30
0.0
 11
56.846143
 21
53.588977
 31
0.0
  0
MTEXT
  5
32
100
AcDbEntity
  8
LIVELLO_1
 62
     7
100
AcDbMText
 10
9.76564
 20
57.049242
 30
0.0
 40
11.904883
 41
0.0
 71
     1
 72
     2
  1
\fCourier|b0|i0;\H11.9049;\C7;\U+00F8\U+0020\U+0037\U+0035
  7
STD
210
0.0
220
0.0
230
1.0
 73
     1
 44
1.0
  0
MTEXT
  5
31
100
AcDbEntity
  8
LIVELLO_1
 62
     7
100
AcDbMText
 10
66.814871
 20
8.12923
 30
0.0
 40
11.904883
 41
0.0
 71
     1
 72
     2
  1
\fCourier|b0|i0;\H11.9049;\C7;\U+0039\U+0032
  7
STD
210
0.0
220
0.0
230
1.0
 73
     1
 44
1.0
  0
LINE
  5
30
100
AcDbEntity
  8
LIVELLO_1
 62
     7
100
AcDbLine
 10
70.755716
 20
-34.693317
 30
0.0
 11
79.222727
 21
-34.693317
 31
0.0
  0
LINE
  5
2F
100
AcDbEntity
  8
LIVELLO_1
 62
     7
100
AcDbLine
 10
74.988704
 20
-8.445135
 30
0.0
 11
74.988704
 21
-34.693317
 31
0.0
  0
LINE
  5
2E
100
AcDbEntity
  8
LIVELLO_1
 62
     7
100
AcDbLine
 10
74.988704
 20
35.466052
 30
0.0
 11
74.988704
 21
11.390347
 31
0.0
  0
LINE
  5
2D
100
AcDbEntity
  8
LIVELLO_1
 62
     7
100
AcDbLine
 10
70.755716
 20
35.466052
 30
0.0
 11
79.222727
 21
35.466052
 31
0.0
  0
SPLINE
  5
2C
100
AcDbEntity
  8
LIVELLO_1
 62
     7
100
AcDbSpline
210
0.0
220
0.0
230
1.0
 70
     8
 71
     3
 72
    38
 73
    34
 74
     0
 42
0.00000001
 43
0.00000001
 40
0.0
 40
0.0
 40
0.0
 40
0.0
 40
1.0
 40
1.0
 40
1.0
 40
2.0
 40
2.0
 40
2.0
 40
3.0
 40
3.0
 40
3.0
 40
4.0
 40
4.0
 40
4.0
 40
5.0
 40
5.0
 40
5.0
 40
6.0
 40
6.0
 40
6.0
 40
7.0
 40
7.0
 40
7.0
 40
8.0
 40
8.0
 40
8.0
 40
9.0
 40
9.0
 40
9.0
 40
10.0
 40
10.0
 40
10.0
 40
11.0
 40
11.0
 40
11.0
 40
11.0
 10
13.357151963975694
 20
-52.373547363281247
 30
0.0
 10
19.372805447048609
 20
-50.767443847656246
 30
0.0
 10
20.326752387152776
 20
-47.15629475911458
 30
0.0
 10
19.222082519531249
 20
-44.057431369357637
 30
0.0
 10
19.222082519531249
 20
-44.057431369357637
 30
0.0
 10
17.070275878906248
 20
-43.981294759114583
 30
0.0
 10
17.070275878906248
 20
-43.981294759114583
 30
0.0
 10
17.91776936848958
 20
-46.362200249565966
 30
0.0
 10
16.310804578993054
 20
-49.567517089843747
 30
0.0
 10
12.86346978081597
 20
-50.522153049045137
 30
0.0
 10
7.328407118055555
 20
-52.058665635850687
 30
0.0
 10
6.6330145941840275
 20
-48.836123318142356
 30
0.0
 10
5.8592461480034714
 20
-44.337517632378471
 30
0.0
 10
4.8620632595486111
 20
-38.95111083984375
 30
0.0
 10
4.5614786783854164
 20
-38.445370822482637
 30
0.0
 10
1.9507853190104165
 20
-35.463640679253466
 30
0.0
 10
0.2797417534722222
 20
-33.564704047309021
 30
0.0
 10
-1.7721571180555553
 20
-32.798514811197911
 30
0.0
 10
-3.8695312499999996
 20
-31.917603895399303
 30
0.0
 10
-3.8695312499999996
 20
-31.917603895399303
 30
0.0
 10
-3.8695312499999996
 20
-34.324347601996521
 30
0.0
 10
-3.8695312499999996
 20
-34.324347601996521
 30
0.0
 10
-1.4564141167534721
 20
-35.216282823350689
 30
0.0
 10
-1.0765923394097221
 20
-35.543911404079857
 30
0.0
 10
0.7486192491319443
 20
-37.618547905815966
 30
0.0
 10
3.4307983398437498
 20
-40.682960340711801
 30
0.0
 10
3.0900783962673608
 20
-42.918138292100693
 30
0.0
 10
4.5702636718749998
 20
-47.694763183593743
 30
0.0
 10
5.4306762695312498
 20
-52.041440158420137
 30
0.0
 10
8.0034735785590279
 20
-54.754108344184026
 30
0.0
 10
13.452753363715276
 20
-52.3473646375868
 30
0.0
 10
13.452753363715276
 20
-52.3473646375868
 30
0.0
 10
13.357151963975694
 20
-52.373547363281247
 30
0.0
 10
13.357151963975694
 20
-52.373547363281247
 30
0.0
  0
ENDBLK
  5
E4
100
AcDbEntity
  8
LIVELLO_1
100
AcDbBlockEnd
  0
ENDSEC
  0
SECTION
  2
ENTITIES
  0
INSERT
  5
2A
100
AcDbEntity
  8
LIVELLO_1
 62
     7
100
AcDbBlockReference
  2
AI9-BLK1
 10
85.745671
 20
87.50043
 30
0.0
  0
ENDSEC
  0
SECTION
  2
OBJECTS
  0
DICTIONARY
  5
19
100
AcDbDictionary
280
     0
281
     1
  3
ACAD_GROUP
350
1A
  3
ACAD_MLINESTYLE
350
1B
  3
ACAD_LAYOUT
350
1E
  3
ACAD_PLOTSETTINGS
350
22
  3
ACAD_PLOTSTYLENAME
350
1F
  3
ACAD_WIPEOUT_VARS
350
23
  0
DICTIONARY
  5
1A
102
{ACAD_REACTORS
330
19
102
}
100
AcDbDictionary
280
     0
281
     1
  0
DICTIONARY
  5
1B
102
{ACAD_REACTORS
330
19
102
}
100
AcDbDictionary
280
     0
281
     1
  3
Standard
350
1C
  0
MLINESTYLE
  5
1C
102
{ACAD_REACTORS
330
1B
102
}
100
AcDbMlineStyle
  2
Standard
 70
     0
  3

 62
     0
 51
90.0
 52
90.0
 71
     2
 49
0.5
 62
   256
  6
ByLayer
 49
-0.5
 62
   256
  6
ByLayer
  0
ACDBDICTIONARYWDFLT
  5
1F
102
{ACAD_REACTORS
330
19
102
}
100
AcDbDictionary
281
     1
  3
Normal
350
1D
100
AcDbDictionaryWithDefault
340
1D
  0
ACDBPLACEHOLDER
  5
1D
102
{ACAD_REACTORS
330
1F
102
}
  0
LAYOUT
  5
20
102
{ACAD_REACTORS
330
1E
102
}
100
AcDbPlotSettings
  1

  2

  4

  6

 40
0.0
 41
0.0
 42
0.0
 43
0.0
 44
0.0
 45
0.0
 46
0.0
 47
0.0
 48
0.0
 49
0.0
140
0.0
141
0.0
142
1.0
143
1.0
 70
  1024
 72
     0
 73
     0
 74
     0
  7

 75
     0
147
1.0
148
0.0
149
0.0
100
AcDbLayout
  1
Model
 70
     0
 71
     0
 10
0.0
 20
0.0
 11
0.0
 21
0.0
 12
0.0
 22
0.0
 32
0.0
 14
0.0
 24
0.0
 34
0.0
 15
0.0
 25
0.0
 35
0.0
146
0.0
 13
0.0
 23
0.0
 33
0.0
 16
0.0
 26
0.0
 36
0.0
 17
0.0
 27
0.0
 37
0.0
 76
     0
330
A
331
0
345
0
346
0
  0
LAYOUT
  5
21
102
{ACAD_REACTORS
330
1E
102
}
100
AcDbPlotSettings
  1

  2

  4

  6

 40
0.0
 41
0.0
 42
0.0
 43
0.0
 44
0.0
 45
0.0
 46
0.0
 47
0.0
 48
0.0
 49
0.0
140
0.0
141
0.0
142
1.0
143
1.0
 70
     0
 72
     0
 73
     0
 74
     0
  7

 75
     0
147
1.0
148
0.0
149
0.0
100
AcDbLayout
  1
Layout1
 70
     0
 71
     0
 10
0.0
 20
0.0
 11
0.0
 21
0.0
 12
0.0
 22
0.0
 32
0.0
 14
0.0
 24
0.0
 34
0.0
 15
0.0
 25
0.0
 35
0.0
146
0.0
 13
0.0
 23
0.0
 33
0.0
 16
0.0
 26
0.0
 36
0.0
 17
0.0
 27
0.0
 37
0.0
 76
     0
330
B
331
0
345
0
346
0
  0
DICTIONARY
  5
1E
102
{ACAD_REACTORS
330
19
102
}
100
AcDbDictionary
280
     0
281
     1
  3
Layout1
350
21
  3
Model
350
20
  0
DICTIONARY
  5
22
102
{ACAD_REACTORS
330
19
102
}
100
AcDbDictionary
280
     0
281
     1
  0
WIPEOUTVARIABLES
  5
23
100
AcDbWipeoutVariables
 70
     1
  0
ENDSEC
  0
EOF
