  0
SECTION
  2
HEADER
  9
$ACADVER
  1
AC1015
  9
$ACADMAINTVER
 70
     6
  9
$DWGCODEPAGE
  3
ANSI_932
  9
$INSBASE
 10
0.0
 20
0.0
 30
0.0
  9
$EXTMIN
 10
0.0
 20
3.348633
 30
1.000000E+20
  9
$EXTMAX
 10
168.046935
 20
237.910371
 30
-1.000000E+20
  9
$LIMMIN
 10
0.0
 20
3.348633
  9
$LIMMAX
 10
168.046935
 20
237.910371
  9
$ORTHOMODE
 70
     0
  9
$REGENMODE
 70
     1
  9
$FILLMODE
 70
     1
  9
$QTEXTMODE
 70
     0
  9
$MIRRTEXT
 70
     1
  9
$LTSCALE
 40
1.0
  9
$ATTMODE
 70
     1
  9
$TEXTSIZE
 40
0.2
  9
$TRACEWID
 40
0.05
  9
$TEXTSTYLE
  7
Standard
  9
$CLAYER
  8
0
  9
$CELTYPE
  6
Continuous
  9
$CECOLOR
 62
   256
  9
$CELTSCALE
 40
1.0
  9
$DISPSILH
 70
     0
  9
$DIMSCALE
 40
1.0
  9
$DIMASZ
 40
0.18
  9
$DIMEXO
 40
0.0625
  9
$DIMDLI
 40
0.38
  9
$DIMRND
 40
0.0
  9
$DIMDLE
 40
0.0
  9
$DIMEXE
 40
0.18
  9
$DIMTP
 40
0.0
  9
$DIMTM
 40
0.0
  9
$DIMTXT
 40
0.18
  9
$DIMCEN
 40
0.09
  9
$DIMTSZ
 40
0.0
  9
$DIMTOL
 70
     0
  9
$DIMLIM
 70
     0
  9
$DIMTIH
 70
     1
  9
$DIMTOH
 70
     1
  9
$DIMSE1
 70
     0
  9
$DIMSE2
 70
     0
  9
$DIMTAD
 70
     0
  9
$DIMZIN
 70
     0
  9
$DIMBLK
  1

  9
$DIMASO
 70
     1
  9
$DIMSHO
 70
     1
  9
$DIMPOST
  1

  9
$DIMAPOST
  1

  9
$DIMALT
 70
     0
  9
$DIMALTD
 70
     2
  9
$DIMALTF
 40
25.4
  9
$DIMLFAC
 40
1.0
  9
$DIMTOFL
 70
     0
  9
$DIMTVP
 40
0.0
  9
$DIMTIX
 70
     0
  9
$DIMSOXD
 70
     0
  9
$DIMSAH
 70
     0
  9
$DIMBLK1
  1

  9
$DIMBLK2
  1

  9
$DIMSTYLE
  2
Standard
  9
$DIMCLRD
 70
     0
  9
$DIMCLRE
 70
     0
  9
$DIMCLRT
 70
     0
  9
$DIMTFAC
 40
1.0
  9
$DIMGAP
 40
0.09
  9
$DIMJUST
 70
     0
  9
$DIMSD1
 70
     0
  9
$DIMSD2
 70
     0
  9
$DIMTOLJ
 70
     1
  9
$DIMTZIN
 70
     0
  9
$DIMALTZ
 70
     0
  9
$DIMALTTZ
 70
     0
  9
$DIMUPT
 70
     0
  9
$DIMDEC
 70
     4
  9
$DIMTDEC
 70
     4
  9
$DIMALTU
 70
     2
  9
$DIMALTTD
 70
     2
  9
$DIMTXSTY
  7
Standard
  9
$DIMAUNIT
 70
     0
  9
$DIMADEC
 70
     0
  9
$DIMALTRND
 40
0.0
  9
$DIMAZIN
 70
     0
  9
$DIMDSEP
 70
     0
  9
$DIMATFIT
 70
     3
  9
$DIMFRAC
 70
     0
  9
$DIMLDRBLK
  1

  9
$DIMLUNIT
 70
     2
  9
$DIMLWD
 70
     0
  9
$DIMLWE
 70
     0
  9
$DIMTMOVE
 70
     0
  9
$LUNITS
 70
     2
  9
$LUPREC
 70
     4
  9
$SKETCHINC
 40
0.1
  9
$FILLETRAD
 40
0.0
  9
$AUNITS
 70
     0
  9
$AUPREC
 70
     0
  9
$MENU
  1
acad
  9
$ELEVATION
 40
0.0
  9
$PELEVATION
 40
0.0
  9
$THICKNESS
 40
0.0
  9
$LIMCHECK
 70
     0
  9
$CHAMFERA
 40
0.0
  9
$CHAMFERB
 40
0.0
  9
$CHAMFERC
 40
0.0
  9
$CHAMFERD
 40
0.0
  9
$SKPOLY
 70
     0
  9
$TDCREATE
 40
0.000000000
  9
$TDUCREATE
 40
0.000000000
  9
$TDUPDATE
 40
0.000000000
  9
$TDUUPDATE
 40
0.000000000
  9
$TDINDWG
 40
0.0000000000
  9
$TDUSRTIMER
 40
0.0000000000
  9
$USRTIMER
 70
     1
  9
$ANGBASE
 50
0.0
  9
$ANGDIR
 70
     0
  9
$PDMODE
 70
     0
  9
$PDSIZE
 40
0.0
  9
$PLINEWID
 40
0.0
  9
$SPLFRAME
 70
     0
  9
$SPLINETYPE
 70
     6
  9
$SPLINESEGS
 70
     8
  9
$HANDSEED
  5
169
  9
$SURFTAB1
 70
     6
  9
$SURFTAB2
 70
     6
  9
$SURFTYPE
 70
     6
  9
$SURFU
 70
     6
  9
$SURFV
 70
     6
  9
$UCSBASE
  2

  9
$UCSNAME
  2

  9
$UCSORG
 10
0.0
 20
0.0
 30
0.0
  9
$UCSXDIR
 10
1.0
 20
0.0
 30
0.0
  9
$UCSYDIR
 10
0.0
 20
1.0
 30
0.0
  9
$UCSORTHOREF
  2

  9
$UCSORTHOVIEW
 70
     0
  9
$UCSORGTOP
 10
0.0
 20
0.0
 30
0.0
  9
$UCSORGBOTTOM
 10
0.0
 20
0.0
 30
0.0
  9
$UCSORGLEFT
 10
0.0
 20
0.0
 30
0.0
  9
$UCSORGRIGHT
 10
0.0
 20
0.0
 30
0.0
  9
$UCSORGFRONT
 10
0.0
 20
0.0
 30
0.0
  9
$UCSORGBACK
 10
0.0
 20
0.0
 30
0.0
  9
$PUCSBASE
  2

  9
$PUCSNAME
  2

  9
$PUCSORG
 10
0.0
 20
0.0
 30
0.0
  9
$PUCSXDIR
 10
1.0
 20
0.0
 30
0.0
  9
$PUCSYDIR
 10
0.0
 20
1.0
 30
0.0
  9
$PUCSORTHOREF
  2

  9
$PUCSORTHOVIEW
 70
     0
  9
$PUCSORGTOP
 10
0.0
 20
0.0
 30
0.0
  9
$PUCSORGBOTTOM
 10
0.0
 20
0.0
 30
0.0
  9
$PUCSORGLEFT
 10
0.0
 20
0.0
 30
0.0
  9
$PUCSORGRIGHT
 10
0.0
 20
0.0
 30
0.0
  9
$PUCSORGFRONT
 10
0.0
 20
0.0
 30
0.0
  9
$PUCSORGBACK
 10
0.0
 20
0.0
 30
0.0
  9
$USERI1
 70
     0
  9
$USERI2
 70
     0
  9
$USERI3
 70
     0
  9
$USERI4
 70
     0
  9
$USERI5
 70
     0
  9
$USERR1
 40
0.0
  9
$USERR2
 40
0.0
  9
$USERR3
 40
0.0
  9
$USERR4
 40
0.0
  9
$USERR5
 40
0.0
  9
$WORLDVIEW
 70
     1
  9
$SHADEDGE
 70
     3
  9
$SHADEDIF
 70
    70
  9
$TILEMODE
 70
     1
  9
$MAXACTVP
 70
    16
  9
$PINSBASE
 10
0.0
 20
0.0
 30
0.0
  9
$PLIMCHECK
 70
     0
  9
$PEXTMIN
 10
1.000000E+20
 20
1.000000E+20
 30
1.000000E+20
  9
$PEXTMAX
 10
-1.000000E+20
 20
-1.000000E+20
 30
-1.000000E+20
  9
$PLIMMIN
 10
0.0
 20
0.0
  9
$PLIMMAX
 10
12.0
 20
9.0
  9
$UNITMODE
 70
     0
  9
$VISRETAIN
 70
     0
  9
$PLINEGEN
 70
     1
  9
$PSLTSCALE
 70
     0
  9
$TREEDEPTH
 70
  3020
  9
$CMLSTYLE
  2
Standard
  9
$CMLJUST
 70
     0
  9
$CMLSCALE
 40
1.0
  9
$PROXYGRAPHICS
 70
     0
  9
$MEASUREMENT
 70
     1
  9
$CELWEIGHT
370
     0
  9
$ENDCAPS
280
     0
  9
$JOINSTYLE
280
     0
  9
$LWDISPLAY
290
     0
  9
$INSUNITS
 70
     0
  9
$HYPERLINKBASE
  1

  9
$STYLESHEET
  1

  9
$XEDIT
290
     1
  9
$CEPSNTYPE
380
     0
  9
$PSTYLEMODE
290
     1
  9
$FINGERPRINTGUID
  2

  9
$VERSIONGUID
  2

  9
$EXTNAMES
290
     1
  9
$PSVPSCALE
 40
0.0
  0
ENDSEC
  0
SECTION
  2
CLASSES
  0
CLASS
  1
LWPOLYLINE
  2
AcDbPolyline
  3
AutoCAD 2000
 90
    32768
280
     0
281
     1
  0
CLASS
  1
IMAGE
  2
AcDbRasterImage
  3
ISM
 90
    32895
280
     0
281
     1
  0
CLASS
  1
OLE2FRAME
  2
AcDbOle2Frame
  3
AutoCAD 2000
 90
    32768
280
     0
281
     1
  0
CLASS
  1
HATCH
  2
AcDbHatch
  3
AutoCAD 2000
 90
    32768
280
     0
281
     1
  0
CLASS
  1
DICTIONARYVAR
  2
AcDbDictionaryVar
  3
AutoCAD 2000
 90
    32768
280
     0
281
     0
  0
CLASS
  1
RASTERVARIABLES
  2
AcDbRasterVariables
  3
ISM
 90
    32768
280
     0
281
     0
  0
CLASS
  1
IMAGEDEF
  2
AcDbRasterImageDef
  3
ISM
 90
    32768
280
     0
281
     0
  0
CLASS
  1
IMAGEDEF_REACTOR
  2
AcDbRasterImageDefReactor
  3
ISM
 90
    32769
280
     0
281
     0
  0
CLASS
  1
IDBUFFER
  2
AcDbIdBuffer
  3
AutoCAD 2000
 90
    32768
280
     0
281
     0
  0
CLASS
  1
SPATIAL_FILTER
  2
AcDbSpatialFilter
  3
AutoCAD 2000
 90
    32768
280
     0
281
     0
  0
CLASS
  1
XRECORD
  2
AcDbXrecord
  3
AutoCAD 2000
 90
    32768
280
     0
281
     0
  0
CLASS
  1
SORTENTSTABLE
  2
AcDbSortentsTable
  3
AutoCAD 2000
 90
    32768
280
     0
281
     0
  0
CLASS
  1
LAYER_INDEX
  2
AcDbLayerIndex
  3
AutoCAD 2000
 90
    32768
280
     0
281
     0
  0
CLASS
  1
SPATIAL_INDEX
  2
AcDbSpatialIndex
  3
AutoCAD 2000
 90
    32768
280
     0
281
     0
  0
CLASS
  1
OBJECT_PTR
  2
CAseDLPNTableRecord
  3
"ASE-LPNTableRecord"
 90
    32769
280
     0
281
     0
  0
CLASS
  1
LAYOUT
  2
AcDbLayout
  3
AutoCAD 2000
 90
        0
280
     0
281
     0
  0
CLASS
  1
PLOTSETTINGS
  2
AcDbPlotSettings
  3
AutoCAD 2000
 90
    32768
280
     0
281
     0
  0
CLASS
  1
ACDBDICTIONARYWDFLT
  2
AcDbDictionaryWithDefault
  3
AutoCAD 2000
 90
        0
280
     0
281
     0
  0
CLASS
  1
ACDBPLACEHOLDER
  2
AcDbPlaceHolder
  3
AutoCAD 2000
 90
        0
280
     0
281
     0
  0
CLASS
  1
VBA_PROJECT
  2
AcDbVbaProject
  3
acadvba
 90
    32768
280
     0
281
     0
  0
CLASS
  1
WIPEOUT
  2
AcDbWipeout
  3
WipeOut|AutoCAD Express Tool|expresstools@autodesk.com
 90
    32895
280
     0
281
     1
  0
CLASS
  1
WIPEOUTVARIABLES
  2
AcDbWipeoutVariables
  3
WipeOut|AutoCAD Express Tool|expresstools@autodesk.com
 90
        0
280
     0
281
     0
  0
CLASS
  1
RTEXT
  2
RText
  3
RText|AutoCAD Express Tool|expresstools@autodesk.com
 90
    32768
280
     0
281
     1
  0
CLASS
  1
ARCALIGNEDTEXT
  2
AcDbArcAlignedText
  3
ATEXT|AutoCAD Express Tool|expresstools@autodesk.com
 90
    32768
280
     0
281
     1
  0
ENDSEC
  0
SECTION
  2
TABLES
  0
TABLE
  2
VPORT
  5
7
100
AcDbSymbolTable
 70
     1
  0
VPORT
  5
15
100
AcDbSymbolTableRecord
100
AcDbViewportTableRecord
  2
*ACTIVE
 70
     0
 10
0.0
 20
0.0
 11
1.0
 21
1.0
 12
6.591288
 22
4.579184
 13
0.0
 23
0.0
 14
1.0
 24
1.0
 15
0.0
 25
0.0
 16
0.0
 26
0.0
 36
1.0
 17
0.0
 27
0.0
 37
0.0
 40
9.158369
 41
0.688564
 42
50.0
 43
0.0
 44
0.0
 50
0.0
 51
0.0
 71
     0
 72
   100
 73
     1
 74
     1
 75
     0
 76
     0
 77
     0
 78
     0
281
     0
 65
     0
110
0.0
120
0.0
130
0.0
111
1.0
121
0.0
131
0.0
112
0.0
122
1.0
132
0.0
345
0
346
0
 79
     0
146
0.0
  0
ENDTAB
  0
TABLE
  2
LTYPE
  5
4
100
AcDbSymbolTable
 70
     3
  0
LTYPE
  5
11
100
AcDbSymbolTableRecord
100
AcDbLinetypeTableRecord
  2
ByBlock
 70
    64
  3

 72
    65
 73
     0
 40
0.0
  0
LTYPE
  5
12
100
AcDbSymbolTableRecord
100
AcDbLinetypeTableRecord
  2
ByLayer
 70
    64
  3

 72
    65
 73
     0
 40
0.0
  0
LTYPE
  5
13
100
AcDbSymbolTableRecord
100
AcDbLinetypeTableRecord
  2
Continuous
 70
    64
  3
Solid line
 72
    65
 73
     0
 40
0.0
  0
ENDTAB
  0
TABLE
  2
LAYER
  5
2
100
AcDbSymbolTable
 70
     2
  0
LAYER
  5
14
100
AcDbSymbolTableRecord
100
AcDbLayerTableRecord
  2
0
 70
     0
 62
     7
  6
Continuous
290
     1
370
    -3
390
1D
  0
LAYER
  5
28
100
AcDbSymbolTableRecord
100
AcDbLayerTableRecord
  2
LIVELLO_1
 70
     0
 62
   160
  6
Continuous
290
     1
370
    -3
390
1D
  0
ENDTAB
  0
TABLE
  2
STYLE
  5
3
100
AcDbSymbolTable
 70
     5
  0
STYLE
  5
17
100
AcDbSymbolTableRecord
100
AcDbTextStyleTableRecord
  2
Standard
 70
     0
 40
0.0
 41
1.0
 50
0.0
 71
     0
 42
0.0
  3
txt
  4

  0
STYLE
  5
24
100
AcDbSymbolTableRecord
100
AcDbTextStyleTableRecord
  2
STD
 70
     0
 40
0.0
 41
1.0
 50
0.0
 71
     0
 42
0.0
  3
txt
  4

  0
STYLE
  5
25
100
AcDbSymbolTableRecord
100
AcDbTextStyleTableRecord
  2
TATESTD
 70
     4
 40
0.0
 41
1.0
 50
0.0
 71
     0
 42
0.0
  3
txt
  4

  0
STYLE
  5
26
100
AcDbSymbolTableRecord
100
AcDbTextStyleTableRecord
  2
KANJISTD
 70
     0
 40
0.0
 41
1.0
 50
0.0
 71
     0
 42
0.0
  3
txt
  4
extfont
  0
STYLE
  5
27
100
AcDbSymbolTableRecord
100
AcDbTextStyleTableRecord
  2
KANJITATE
 70
     4
 40
0.0
 41
1.0
 50
0.0
 71
     0
 42
0.0
  3
txt
  4
extfont
  0
ENDTAB
  0
TABLE
  2
VIEW
  5
5
100
AcDbSymbolTable
 70
     0
  0
ENDTAB
  0
TABLE
  2
UCS
  5
6
100
AcDbSymbolTable
 70
     0
  0
ENDTAB
  0
TABLE
  2
APPID
  5
8
100
AcDbSymbolTable
 70
     1
  0
APPID
  5
16
100
AcDbSymbolTableRecord
100
AcDbRegAppTableRecord
  2
ACAD
 70
     0
  0
ENDTAB
  0
TABLE
  2
DIMSTYLE
  5
9
100
AcDbSymbolTable
 70
     1
100
AcDbDimStyleTable
 71
     0
  0
DIMSTYLE
105
18
100
AcDbSymbolTableRecord
100
AcDbDimStyleTableRecord
  2
Standard
 70
     0
  3

  4

 40
1.0
 41
0.18
 42
0.0625
 43
0.38
 44
0.18
 45
0.0
 46
0.0
 47
0.0
 48
0.0
 71
     0
 72
     0
 73
     1
 74
     1
 75
     0
 76
     0
 77
     0
 78
     0
 79
     0
140
0.18
141
0.09
142
0.0
143
25.4
144
1.0
145
0.0
146
1.0
147
0.09
148
0.0
170
     0
171
     2
172
     0
173
     0
174
     0
175
     0
176
     0
177
     0
178
     0
179
     0
271
     4
272
     4
273
     2
274
     2
275
     0
276
     0
277
     2
278
    46
279
     0
280
     0
281
     0
282
     0
283
     1
284
     0
285
     0
286
     0
288
     0
340
17
341
0
342
0
343
0
344
0
371
    -2
372
    -2
  0
ENDTAB
  0
TABLE
  2
BLOCK_RECORD
  5
1
100
AcDbSymbolTable
 70
     1
  0
BLOCK_RECORD
  5
A
100
AcDbSymbolTableRecord
100
AcDbBlockTableRecord
  2
*MODEL_SPACE
340
20
  0
BLOCK_RECORD
  5
B
100
AcDbSymbolTableRecord
100
AcDbBlockTableRecord
  2
*PAPER_SPACE
340
21
  0
BLOCK_RECORD
  5
29
100
AcDbSymbolTableRecord
100
AcDbBlockTableRecord
  2
AI9-BLK1
340
0
102
{BLKREFS
331
2A
102
}
  0
ENDTAB
  0
ENDSEC
  0
SECTION
  2
BLOCKS
  0
BLOCK
  5
D
100
AcDbEntity
  8
0
100
AcDbBlockBegin
  2
*MODEL_SPACE
 70
     0
 10
0.0
 20
0.0
 30
0.0
  3
*MODEL_SPACE
  1

  0
ENDBLK
  5
E
100
AcDbEntity
  8
0
100
AcDbBlockEnd
  0
BLOCK
  5
F
100
AcDbEntity
 67
     1
  8
0
100
AcDbBlockBegin
  2
*PAPER_SPACE
 70
     0
 10
0.0
 20
0.0
 30
0.0
  3
*PAPER_SPACE
  1

  0
ENDBLK
  5
10
100
AcDbEntity
 67
     1
  8
0
100
AcDbBlockEnd
  0
BLOCK
  5
2B
100
AcDbEntity
  8
LIVELLO_1
 62
     7
100
AcDbBlockBegin
  2
AI9-BLK1
 70
     0
 10
0.0
 20
0.0
 30
0.0
  3
AI9-BLK1
  1

  0
SPLINE
  5
167
100
AcDbEntity
  8
LIVELLO_1
 62
     7
100
AcDbSpline
210
0.0
220
0.0
230
1.0
 70
     8
 71
     3
 72
    11
 73
     7
 74
     0
 42
0.00000001
 43
0.00000001
 40
0.0
 40
0.0
 40
0.0
 40
0.0
 40
1.0
 40
1.0
 40
1.0
 40
2.0
 40
2.0
 40
2.0
 40
2.0
 10
64.2286376953125
 20
-74.760811360677081
 30
0.0
 10
72.8172607421875
 20
-61.985363769531247
 30
0.0
 10
77.831941731770826
 20
-46.628161621093746
 30
0.0
 10
77.831941731770826
 20
-30.075166829427079
 30
0.0
 10
77.831941731770826
 20
-28.950687662760416
 30
0.0
 10
77.807826063368054
 20
-27.831031629774301
 30
0.0
 10
77.76372884114582
 20
-26.718610297309024
 30
0.0
  0
LINE
  5
166
100
AcDbEntity
  8
LIVELLO_1
 62
     7
100
AcDbLine
 10
-39.255313
 20
-94.98869
 30
0.0
 11
-45.186217
 21
-105.249562
 31
0.0
  0
LINE
  5
165
100
AcDbEntity
  8
LIVELLO_1
 62
     7
100
AcDbLine
 10
72.16786
 20
-26.912225
 30
0.0
 11
84.015199
 21
-26.498469
 31
0.0
  0
LINE
  5
164
100
AcDbEntity
  8
LIVELLO_1
 62
     7
100
AcDbLine
 10
-1.855873
 20
-104.704203
 30
0.0
 11
-1.855873
 21
-116.556365
 31
0.0
  0
SPLINE
  5
163
100
AcDbEntity
  8
LIVELLO_1
 62
     7
100
AcDbSpline
210
0.0
220
0.0
230
1.0
 70
     8
 71
     3
 72
    11
 73
     7
 74
     0
 42
0.00000001
 43
0.00000001
 40
0.0
 40
0.0
 40
0.0
 40
0.0
 40
1.0
 40
1.0
 40
1.0
 40
2.0
 40
2.0
 40
2.0
 40
2.0
 10
64.2286376953125
 20
75.483075629340277
 30
0.0
 10
72.8172607421875
 20
62.70986735026041
 30
0.0
 10
77.831941731770826
 20
47.35300971137152
 30
0.0
 10
77.831941731770826
 20
30.804665798611108
 30
0.0
 10
77.831941731770826
 20
29.67553575303819
 30
0.0
 10
77.807826063368054
 20
28.56053059895833
 30
0.0
 10
77.76372884114582
 20
27.443458387586801
 30
0.0
  0
LINE
  5
162
100
AcDbEntity
  8
LIVELLO_1
 62
     7
100
AcDbLine
 10
-39.255313
 20
95.713365
 30
0.0
 11
-45.186217
 21
105.97441
 31
0.0
  0
LINE
  5
161
100
AcDbEntity
  8
LIVELLO_1
 62
     7
100
AcDbLine
 10
72.16786
 20
27.637073
 30
0.0
 11
84.015199
 21
27.225728
 31
0.0
  0
LINE
  5
160
100
AcDbEntity
  8
LIVELLO_1
 62
     7
100
AcDbLine
 10
-1.855873
 20
105.428879
 30
0.0
 11
-1.855873
 21
117.280869
 31
0.0
  0
LINE
  5
15F
100
AcDbEntity
  8
LIVELLO_1
 62
     7
100
AcDbLine
 10
-7.194565
 20
-29.991451
 30
0.0
 11
-39.547285
 21
-29.991451
 31
0.0
  0
POLYLINE
  5
159
100
AcDbEntity
  8
LIVELLO_1
 62
     7
100
AcDb2dPolyline
 66
     1
 10
0.0
 20
0.0
 30
0.0
 70
     1
  0
VERTEX
  5
15A
100
AcDbEntity
  8
LIVELLO_1
 62
     7
100
AcDbVertex
100
AcDb2dVertex
 10
-34.194295
 20
-38.718911
 30
0.0
  0
VERTEX
  5
15B
100
AcDbEntity
  8
LIVELLO_1
 62
     7
100
AcDbVertex
100
AcDb2dVertex
 10
-34.194295
 20
-21.438657
 30
0.0
  0
VERTEX
  5
15C
100
AcDbEntity
  8
LIVELLO_1
 62
     7
100
AcDbVertex
100
AcDb2dVertex
 10
-45.174159
 20
-21.438657
 30
0.0
  0
VERTEX
  5
15D
100
AcDbEntity
  8
LIVELLO_1
 62
     7
100
AcDbVertex
100
AcDb2dVertex
 10
-45.174159
 20
-38.718911
 30
0.0
  0
SEQEND
  5
15E
100
AcDbEntity
  8
LIVELLO_1
 62
     7
  0
CIRCLE
  5
158
100
AcDbEntity
  8
LIVELLO_1
 62
     7
100
AcDbCircle
 10
-2.416907
 20
-30.078784
 30
0.0
 40
1.235583
  0
CIRCLE
  5
157
100
AcDbEntity
  8
LIVELLO_1
 62
     7
100
AcDbCircle
 10
-2.416907
 20
-30.076373
 30
0.0
 40
2.618445
  0
SPLINE
  5
156
100
AcDbEntity
  8
LIVELLO_1
 62
     7
100
AcDbSpline
210
0.0
220
0.0
230
1.0
 70
     8
 71
     3
 72
    23
 73
    19
 74
     0
 42
0.00000001
 43
0.00000001
 40
0.0
 40
0.0
 40
0.0
 40
0.0
 40
1.0
 40
1.0
 40
1.0
 40
2.0
 40
2.0
 40
2.0
 40
3.0
 40
3.0
 40
3.0
 40
4.0
 40
4.0
 40
4.0
 40
5.0
 40
5.0
 40
5.0
 40
6.0
 40
6.0
 40
6.0
 40
6.0
 10
1.294839138454861
 20
-31.745004611545134
 30
0.0
 10
1.294839138454861
 20
-31.745004611545134
 30
0.0
 10
1.294839138454861
 20
-28.414975314670137
 30
0.0
 10
1.294839138454861
 20
-28.414975314670137
 30
0.0
 10
1.294839138454861
 20
-27.379035101996525
 30
0.0
 10
0.4587144639756944
 20
-26.543943956163194
 30
0.0
 10
-0.5699910481770832
 20
-26.543943956163194
 30
0.0
 10
-0.5699910481770832
 20
-26.543943956163194
 30
0.0
 10
-34.194295247395829
 20
-26.543943956163194
 30
0.0
 10
-34.194295247395829
 20
-26.543943956163194
 30
0.0
 10
-34.194295247395829
 20
-26.543943956163194
 30
0.0
 10
-34.194295247395829
 20
-33.608801269531249
 30
0.0
 10
-34.194295247395829
 20
-33.608801269531249
 30
0.0
 10
-34.194295247395829
 20
-33.608801269531249
 30
0.0
 10
-0.5699910481770832
 20
-33.608801269531249
 30
0.0
 10
-0.5699910481770832
 20
-33.608801269531249
 30
0.0
 10
0.4587144639756944
 20
-33.608801269531249
 30
0.0
 10
1.294839138454861
 20
-32.773710123697917
 30
0.0
 10
1.294839138454861
 20
-31.745004611545134
 30
0.0
  0
POLYLINE
  5
150
100
AcDbEntity
  8
LIVELLO_1
 62
     7
100
AcDb2dPolyline
 66
     1
 10
0.0
 20
0.0
 30
0.0
 70
     1
  0
VERTEX
  5
151
100
AcDbEntity
  8
LIVELLO_1
 62
     7
100
AcDbVertex
100
AcDb2dVertex
 10
11.758111
 20
-23.627671
 30
0.0
  0
VERTEX
  5
152
100
AcDbEntity
  8
LIVELLO_1
 62
     7
100
AcDbVertex
100
AcDb2dVertex
 10
6.539136
 20
-23.627671
 30
0.0
  0
VERTEX
  5
153
100
AcDbEntity
  8
LIVELLO_1
 62
     7
100
AcDbVertex
100
AcDb2dVertex
 10
6.539136
 20
-24.799692
 30
0.0
  0
VERTEX
  5
154
100
AcDbEntity
  8
LIVELLO_1
 62
     7
100
AcDbVertex
100
AcDb2dVertex
 10
11.758111
 20
-24.799692
 30
0.0
  0
SEQEND
  5
155
100
AcDbEntity
  8
LIVELLO_1
 62
     7
  0
LINE
  5
14F
100
AcDbEntity
  8
LIVELLO_1
 62
     7
100
AcDbLine
 10
7.933883
 20
-79.26803
 30
0.0
 11
3.337953
 21
-79.26803
 31
0.0
  0
LINE
  5
14E
100
AcDbEntity
  8
LIVELLO_1
 62
     7
100
AcDbLine
 10
-11.643217
 20
-79.26803
 30
0.0
 11
-7.049871
 21
-79.26803
 31
0.0
  0
SPLINE
  5
14D
100
AcDbEntity
  8
LIVELLO_1
 62
     7
100
AcDbSpline
210
0.0
220
0.0
230
1.0
 70
     8
 71
     3
 72
    20
 73
    16
 74
     0
 42
0.00000001
 43
0.00000001
 40
0.0
 40
0.0
 40
0.0
 40
0.0
 40
1.0
 40
1.0
 40
1.0
 40
2.0
 40
2.0
 40
2.0
 40
3.0
 40
3.0
 40
3.0
 40
4.0
 40
4.0
 40
4.0
 40
5.0
 40
5.0
 40
5.0
 40
5.0
 10
2.2889214409722221
 20
-43.068344455295133
 30
0.0
 10
2.2889214409722221
 20
-43.068344455295133
 30
0.0
 10
2.2794474283854163
 20
-42.762075466579859
 30
0.0
 10
2.2794474283854163
 20
-42.762075466579859
 30
0.0
 10
2.2794474283854163
 20
-41.936630588107633
 30
0.0
 10
1.6477891710069443
 20
-41.264492458767357
 30
0.0
 10
0.8187269422743055
 20
-41.264492458767357
 30
0.0
 10
0.8187269422743055
 20
-41.264492458767357
 30
0.0
 10
-4.5485595703124995
 20
-41.264492458767357
 30
0.0
 10
-4.5485595703124995
 20
-41.264492458767357
 30
0.0
 10
-5.3740044487847216
 20
-41.264492458767357
 30
0.0
 10
-6.0079020182291663
 20
-41.936630588107633
 30
0.0
 10
-6.0079020182291663
 20
-42.762075466579859
 30
0.0
 10
-6.0079020182291663
 20
-42.762075466579859
 30
0.0
 10
-6.0079020182291663
 20
-43.128289116753471
 30
0.0
 10
-6.0079020182291663
 20
-43.128289116753471
 30
0.0
  0
SPLINE
  5
14C
100
AcDbEntity
  8
LIVELLO_1
 62
     7
100
AcDbSpline
210
0.0
220
0.0
230
1.0
 70
     8
 71
     3
 72
    20
 73
    16
 74
     0
 42
0.00000001
 43
0.00000001
 40
0.0
 40
0.0
 40
0.0
 40
0.0
 40
1.0
 40
1.0
 40
1.0
 40
2.0
 40
2.0
 40
2.0
 40
3.0
 40
3.0
 40
3.0
 40
4.0
 40
4.0
 40
4.0
 40
5.0
 40
5.0
 40
5.0
 40
5.0
 10
2.3259562174479163
 20
-44.204881456163193
 30
0.0
 10
2.3259562174479163
 20
-44.204881456163193
 30
0.0
 10
2.3164822048611109
 20
-43.898612467447911
 30
0.0
 10
2.3164822048611109
 20
-43.898612467447911
 30
0.0
 10
2.3164822048611109
 20
-43.073167588975693
 30
0.0
 10
1.6477891710069443
 20
-42.403096516927079
 30
0.0
 10
0.8187269422743055
 20
-42.403096516927079
 30
0.0
 10
0.8187269422743055
 20
-42.403096516927079
 30
0.0
 10
-4.5485595703124995
 20
-42.403096516927079
 30
0.0
 10
-4.5485595703124995
 20
-42.403096516927079
 30
0.0
 10
-5.3740044487847216
 20
-42.403096516927079
 30
0.0
 10
-6.0451090494791657
 20
-43.073167588975693
 30
0.0
 10
-6.0451090494791657
 20
-43.898612467447911
 30
0.0
 10
-6.0451090494791657
 20
-43.898612467447911
 30
0.0
 10
-6.0451090494791657
 20
-44.266893174913193
 30
0.0
 10
-6.0451090494791657
 20
-44.266893174913193
 30
0.0
  0
LINE
  5
14B
100
AcDbEntity
  8
LIVELLO_1
 62
     7
100
AcDbLine
 10
-12.3753
 20
-19.48391
 30
0.0
 11
-7.213685
 21
-16.677535
 31
0.0
  0
LINE
  5
14A
100
AcDbEntity
  8
LIVELLO_1
 62
     7
100
AcDbLine
 10
-7.213685
 20
-19.48391
 30
0.0
 11
-12.3753
 21
-16.677535
 31
0.0
  0
LINE
  5
149
100
AcDbEntity
  8
LIVELLO_1
 62
     7
100
AcDbLine
 10
-12.3753
 20
-19.48391
 30
0.0
 11
-17.541737
 21
-16.677535
 31
0.0
  0
LINE
  5
148
100
AcDbEntity
  8
LIVELLO_1
 62
     7
100
AcDbLine
 10
-17.541737
 20
-19.48391
 30
0.0
 11
-12.3753
 21
-16.677535
 31
0.0
  0
POLYLINE
  5
142
100
AcDbEntity
  8
LIVELLO_1
 62
     7
100
AcDb2dPolyline
 66
     1
 10
0.0
 20
0.0
 30
0.0
 70
     1
  0
VERTEX
  5
143
100
AcDbEntity
  8
LIVELLO_1
 62
     7
100
AcDbVertex
100
AcDb2dVertex
 10
-17.541737
 20
-19.48391
 30
0.0
  0
VERTEX
  5
144
100
AcDbEntity
  8
LIVELLO_1
 62
     7
100
AcDbVertex
100
AcDb2dVertex
 10
-12.3753
 20
-19.48391
 30
0.0
  0
VERTEX
  5
145
100
AcDbEntity
  8
LIVELLO_1
 62
     7
100
AcDbVertex
100
AcDb2dVertex
 10
-12.3753
 20
-16.677535
 30
0.0
  0
VERTEX
  5
146
100
AcDbEntity
  8
LIVELLO_1
 62
     7
100
AcDbVertex
100
AcDb2dVertex
 10
-17.541737
 20
-16.677535
 30
0.0
  0
SEQEND
  5
147
100
AcDbEntity
  8
LIVELLO_1
 62
     7
  0
POLYLINE
  5
13C
100
AcDbEntity
  8
LIVELLO_1
 62
     7
100
AcDb2dPolyline
 66
     1
 10
0.0
 20
0.0
 30
0.0
 70
     1
  0
VERTEX
  5
13D
100
AcDbEntity
  8
LIVELLO_1
 62
     7
100
AcDbVertex
100
AcDb2dVertex
 10
-12.3753
 20
-19.48391
 30
0.0
  0
VERTEX
  5
13E
100
AcDbEntity
  8
LIVELLO_1
 62
     7
100
AcDbVertex
100
AcDb2dVertex
 10
-7.213685
 20
-19.48391
 30
0.0
  0
VERTEX
  5
13F
100
AcDbEntity
  8
LIVELLO_1
 62
     7
100
AcDbVertex
100
AcDb2dVertex
 10
-7.213685
 20
-16.677535
 30
0.0
  0
VERTEX
  5
140
100
AcDbEntity
  8
LIVELLO_1
 62
     7
100
AcDbVertex
100
AcDb2dVertex
 10
-12.3753
 20
-16.677535
 30
0.0
  0
SEQEND
  5
141
100
AcDbEntity
  8
LIVELLO_1
 62
     7
  0
SPLINE
  5
13B
100
AcDbEntity
  8
LIVELLO_1
 62
     7
100
AcDbSpline
210
0.0
220
0.0
230
1.0
 70
     8
 71
     3
 72
    23
 73
    19
 74
     0
 42
0.00000001
 43
0.00000001
 40
0.0
 40
0.0
 40
0.0
 40
0.0
 40
1.0
 40
1.0
 40
1.0
 40
2.0
 40
2.0
 40
2.0
 40
3.0
 40
3.0
 40
3.0
 40
4.0
 40
4.0
 40
4.0
 40
5.0
 40
5.0
 40
5.0
 40
6.0
 40
6.0
 40
6.0
 40
6.0
 10
-7.2136854383680546
 20
-16.677534993489584
 30
0.0
 10
-7.2136854383680546
 20
-16.677534993489584
 30
0.0
 10
-7.2136854383680546
 20
-16.060518391927083
 30
0.0
 10
-7.2136854383680546
 20
-16.060518391927083
 30
0.0
 10
-7.2136854383680546
 20
-15.232661946614583
 30
0.0
 10
-7.8847900390624996
 20
-14.565002441406248
 30
0.0
 10
-8.712646484375
 20
-14.565002441406248
 30
0.0
 10
-8.712646484375
 20
-14.565002441406248
 30
0.0
 10
-16.042948404947914
 20
-14.565002441406248
 30
0.0
 10
-16.042948404947914
 20
-14.565002441406248
 30
0.0
 10
-16.870804850260416
 20
-14.565002441406248
 30
0.0
 10
-17.541737196180556
 20
-15.232661946614583
 30
0.0
 10
-17.541737196180556
 20
-16.060518391927083
 30
0.0
 10
-17.541737196180556
 20
-16.060518391927083
 30
0.0
 10
-17.541737196180556
 20
-16.677534993489584
 30
0.0
 10
-17.541737196180556
 20
-16.677534993489584
 30
0.0
 10
-17.541737196180556
 20
-16.677534993489584
 30
0.0
 10
-7.2136854383680546
 20
-16.677534993489584
 30
0.0
 10
-7.2136854383680546
 20
-16.677534993489584
 30
0.0
  0
POLYLINE
  5
135
100
AcDbEntity
  8
LIVELLO_1
 62
     7
100
AcDb2dPolyline
 66
     1
 10
0.0
 20
0.0
 30
0.0
 70
     1
  0
VERTEX
  5
136
100
AcDbEntity
  8
LIVELLO_1
 62
     7
100
AcDbVertex
100
AcDb2dVertex
 10
-7.213685
 20
-19.48391
 30
0.0
  0
VERTEX
  5
137
100
AcDbEntity
  8
LIVELLO_1
 62
     7
100
AcDbVertex
100
AcDb2dVertex
 10
-17.541737
 20
-19.48391
 30
0.0
  0
VERTEX
  5
138
100
AcDbEntity
  8
LIVELLO_1
 62
     7
100
AcDbVertex
100
AcDb2dVertex
 10
-17.541737
 20
-20.9026
 30
0.0
  0
VERTEX
  5
139
100
AcDbEntity
  8
LIVELLO_1
 62
     7
100
AcDbVertex
100
AcDb2dVertex
 10
-7.213685
 20
-20.9026
 30
0.0
  0
SEQEND
  5
13A
100
AcDbEntity
  8
LIVELLO_1
 62
     7
  0
LINE
  5
134
100
AcDbEntity
  8
LIVELLO_1
 62
     7
100
AcDbLine
 10
-9.014092
 20
-24.799692
 30
0.0
 11
-9.014092
 21
-22.44807
 31
0.0
  0
LINE
  5
133
100
AcDbEntity
  8
LIVELLO_1
 62
     7
100
AcDbLine
 10
-9.808359
 20
-24.799692
 30
0.0
 11
-9.808359
 21
-22.44807
 31
0.0
  0
LINE
  5
132
100
AcDbEntity
  8
LIVELLO_1
 62
     7
100
AcDbLine
 10
-14.948442
 20
-24.799692
 30
0.0
 11
-14.948442
 21
-22.44807
 31
0.0
  0
LINE
  5
131
100
AcDbEntity
  8
LIVELLO_1
 62
     7
100
AcDbLine
 10
-15.739091
 20
-24.799692
 30
0.0
 11
-15.739091
 21
-22.44807
 31
0.0
  0
POLYLINE
  5
12B
100
AcDbEntity
  8
LIVELLO_1
 62
     7
100
AcDb2dPolyline
 66
     1
 10
0.0
 20
0.0
 30
0.0
 70
     1
  0
VERTEX
  5
12C
100
AcDbEntity
  8
LIVELLO_1
 62
     7
100
AcDbVertex
100
AcDb2dVertex
 10
-7.669472
 20
-20.9026
 30
0.0
  0
VERTEX
  5
12D
100
AcDbEntity
  8
LIVELLO_1
 62
     7
100
AcDbVertex
100
AcDb2dVertex
 10
-17.086123
 20
-20.9026
 30
0.0
  0
VERTEX
  5
12E
100
AcDbEntity
  8
LIVELLO_1
 62
     7
100
AcDbVertex
100
AcDb2dVertex
 10
-17.086123
 20
-22.44807
 30
0.0
  0
VERTEX
  5
12F
100
AcDbEntity
  8
LIVELLO_1
 62
     7
100
AcDbVertex
100
AcDb2dVertex
 10
-7.669472
 20
-22.44807
 30
0.0
  0
SEQEND
  5
130
100
AcDbEntity
  8
LIVELLO_1
 62
     7
  0
POLYLINE
  5
125
100
AcDbEntity
  8
LIVELLO_1
 62
     7
100
AcDb2dPolyline
 66
     1
 10
0.0
 20
0.0
 30
0.0
 70
     1
  0
VERTEX
  5
126
100
AcDbEntity
  8
LIVELLO_1
 62
     7
100
AcDbVertex
100
AcDb2dVertex
 10
-6.888296
 20
-22.44807
 30
0.0
  0
VERTEX
  5
127
100
AcDbEntity
  8
LIVELLO_1
 62
     7
100
AcDbVertex
100
AcDb2dVertex
 10
-17.868332
 20
-22.44807
 30
0.0
  0
VERTEX
  5
128
100
AcDbEntity
  8
LIVELLO_1
 62
     7
100
AcDbVertex
100
AcDb2dVertex
 10
-17.868332
 20
-24.799692
 30
0.0
  0
VERTEX
  5
129
100
AcDbEntity
  8
LIVELLO_1
 62
     7
100
AcDbVertex
100
AcDb2dVertex
 10
-6.888296
 20
-24.799692
 30
0.0
  0
SEQEND
  5
12A
100
AcDbEntity
  8
LIVELLO_1
 62
     7
  0
LINE
  5
124
100
AcDbEntity
  8
LIVELLO_1
 62
     7
100
AcDbLine
 10
-1.049721
 20
-26.548767
 30
0.0
 11
-1.049721
 21
-24.799692
 31
0.0
  0
LINE
  5
123
100
AcDbEntity
  8
LIVELLO_1
 62
     7
100
AcDbLine
 10
-2.62034
 20
-26.548767
 30
0.0
 11
-2.62034
 21
-24.799692
 31
0.0
  0
LINE
  5
122
100
AcDbEntity
  8
LIVELLO_1
 62
     7
100
AcDbLine
 10
-6.540342
 20
-26.548767
 30
0.0
 11
-6.540342
 21
-24.799692
 31
0.0
  0
POLYLINE
  5
11C
100
AcDbEntity
  8
LIVELLO_1
 62
     7
100
AcDb2dPolyline
 66
     1
 10
0.0
 20
0.0
 30
0.0
 70
     1
  0
VERTEX
  5
11D
100
AcDbEntity
  8
LIVELLO_1
 62
     7
100
AcDbVertex
100
AcDb2dVertex
 10
14.6122
 20
-24.799692
 30
0.0
  0
VERTEX
  5
11E
100
AcDbEntity
  8
LIVELLO_1
 62
     7
100
AcDbVertex
100
AcDb2dVertex
 10
-18.28226
 20
-24.799692
 30
0.0
  0
VERTEX
  5
11F
100
AcDbEntity
  8
LIVELLO_1
 62
     7
100
AcDbVertex
100
AcDb2dVertex
 10
-18.28226
 20
-26.548767
 30
0.0
  0
VERTEX
  5
120
100
AcDbEntity
  8
LIVELLO_1
 62
     7
100
AcDbVertex
100
AcDb2dVertex
 10
14.6122
 20
-26.548767
 30
0.0
  0
SEQEND
  5
121
100
AcDbEntity
  8
LIVELLO_1
 62
     7
  0
SPLINE
  5
11B
100
AcDbEntity
  8
LIVELLO_1
 62
     7
100
AcDbSpline
210
0.0
220
0.0
230
1.0
 70
     8
 71
     3
 72
    20
 73
    16
 74
     0
 42
0.00000001
 43
0.00000001
 40
0.0
 40
0.0
 40
0.0
 40
0.0
 40
1.0
 40
1.0
 40
1.0
 40
2.0
 40
2.0
 40
2.0
 40
3.0
 40
3.0
 40
3.0
 40
4.0
 40
4.0
 40
4.0
 40
5.0
 40
5.0
 40
5.0
 40
5.0
 10
17.352773708767359
 20
-85.438195800781244
 30
0.0
 10
17.352773708767359
 20
-85.438195800781244
 30
0.0
 10
7.9338826497395827
 20
-85.438195800781244
 30
0.0
 10
7.9338826497395827
 20
-85.438195800781244
 30
0.0
 10
7.9338826497395827
 20
-85.438195800781244
 30
0.0
 10
7.9338826497395827
 20
-77.772858344184016
 30
0.0
 10
7.9338826497395827
 20
-77.772858344184016
 30
0.0
 10
7.9338826497395827
 20
-78.60037027994791
 30
0.0
 10
8.6025756835937486
 20
-79.270441351996524
 30
0.0
 10
9.4302598741319432
 20
-79.270441351996524
 30
0.0
 10
9.4302598741319432
 20
-79.270441351996524
 30
0.0
 10
17.208079698350694
 20
-79.270441351996524
 30
0.0
 10
17.208079698350694
 20
-79.270441351996524
 30
0.0
 10
17.208079698350694
 20
-79.270441351996524
 30
0.0
 10
17.352773708767359
 20
-85.438195800781244
 30
0.0
 10
17.352773708767359
 20
-85.438195800781244
 30
0.0
  0
SPLINE
  5
11A
100
AcDbEntity
  8
LIVELLO_1
 62
     7
100
AcDbSpline
210
0.0
220
0.0
230
1.0
 70
     8
 71
     3
 72
    20
 73
    16
 74
     0
 42
0.00000001
 43
0.00000001
 40
0.0
 40
0.0
 40
0.0
 40
0.0
 40
1.0
 40
1.0
 40
1.0
 40
2.0
 40
2.0
 40
2.0
 40
3.0
 40
3.0
 40
3.0
 40
4.0
 40
4.0
 40
4.0
 40
5.0
 40
5.0
 40
5.0
 40
5.0
 10
-21.064691840277774
 20
-85.438195800781244
 30
0.0
 10
-21.064691840277774
 20
-85.438195800781244
 30
0.0
 10
-11.643216959635415
 20
-85.438195800781244
 30
0.0
 10
-11.643216959635415
 20
-85.438195800781244
 30
0.0
 10
-11.643216959635415
 20
-85.438195800781244
 30
0.0
 10
-11.643216959635415
 20
-77.772858344184016
 30
0.0
 10
-11.643216959635415
 20
-77.772858344184016
 30
0.0
 10
-11.643216959635415
 20
-78.60037027994791
 30
0.0
 10
-12.31432156032986
 20
-79.270441351996524
 30
0.0
 10
-13.139766438802083
 20
-79.270441351996524
 30
0.0
 10
-13.139766438802083
 20
-79.270441351996524
 30
0.0
 10
-20.921031358506944
 20
-79.270441351996524
 30
0.0
 10
-20.921031358506944
 20
-79.270441351996524
 30
0.0
 10
-20.921031358506944
 20
-79.270441351996524
 30
0.0
 10
-21.064691840277774
 20
-85.438195800781244
 30
0.0
 10
-21.064691840277774
 20
-85.438195800781244
 30
0.0
  0
SPLINE
  5
119
100
AcDbEntity
  8
LIVELLO_1
 62
     7
100
AcDbSpline
210
0.0
220
0.0
230
1.0
 70
     8
 71
     3
 72
    23
 73
    19
 74
     0
 42
0.00000001
 43
0.00000001
 40
0.0
 40
0.0
 40
0.0
 40
0.0
 40
1.0
 40
1.0
 40
1.0
 40
2.0
 40
2.0
 40
2.0
 40
3.0
 40
3.0
 40
3.0
 40
4.0
 40
4.0
 40
4.0
 40
5.0
 40
5.0
 40
5.0
 40
6.0
 40
6.0
 40
6.0
 40
6.0
 10
1.0293945312499999
 20
-85.438195800781244
 30
0.0
 10
1.0293945312499999
 20
-85.438195800781244
 30
0.0
 10
1.0293945312499999
 20
-80.765612792968739
 30
0.0
 10
1.0293945312499999
 20
-80.765612792968739
 30
0.0
 10
1.0293945312499999
 20
-79.940167914496527
 30
0.0
 10
0.3607014973958333
 20
-79.270441351996524
 30
0.0
 10
-0.4671549479166666
 20
-79.270441351996524
 30
0.0
 10
-0.4671549479166666
 20
-79.270441351996524
 30
0.0
 10
-3.2518256293402774
 20
-79.270441351996524
 30
0.0
 10
-3.2518256293402774
 20
-79.270441351996524
 30
0.0
 10
-4.0808878580729164
 20
-79.270441351996524
 30
0.0
 10
-4.7495808919270832
 20
-79.940167914496527
 30
0.0
 10
-4.7495808919270832
 20
-80.765612792968739
 30
0.0
 10
-4.7495808919270832
 20
-80.765612792968739
 30
0.0
 10
-4.7495808919270832
 20
-85.438195800781244
 30
0.0
 10
-4.7495808919270832
 20
-85.438195800781244
 30
0.0
 10
-4.7495808919270832
 20
-85.438195800781244
 30
0.0
 10
1.0293945312499999
 20
-85.438195800781244
 30
0.0
 10
1.0293945312499999
 20
-85.438195800781244
 30
0.0
  0
POLYLINE
  5
113
100
AcDbEntity
  8
LIVELLO_1
 62
     7
100
AcDb2dPolyline
 66
     1
 10
0.0
 20
0.0
 30
0.0
 70
     1
  0
VERTEX
  5
114
100
AcDbEntity
  8
LIVELLO_1
 62
     7
100
AcDbVertex
100
AcDb2dVertex
 10
23.867277
 20
-85.438196
 30
0.0
  0
VERTEX
  5
115
100
AcDbEntity
  8
LIVELLO_1
 62
     7
100
AcDbVertex
100
AcDb2dVertex
 10
17.352774
 20
-85.438196
 30
0.0
  0
VERTEX
  5
116
100
AcDbEntity
  8
LIVELLO_1
 62
     7
100
AcDbVertex
100
AcDb2dVertex
 10
17.20808
 20
-79.26803
 30
0.0
  0
VERTEX
  5
117
100
AcDbEntity
  8
LIVELLO_1
 62
     7
100
AcDbVertex
100
AcDb2dVertex
 10
23.867277
 20
-79.26803
 30
0.0
  0
SEQEND
  5
118
100
AcDbEntity
  8
LIVELLO_1
 62
     7
  0
POLYLINE
  5
10D
100
AcDbEntity
  8
LIVELLO_1
 62
     7
100
AcDb2dPolyline
 66
     1
 10
0.0
 20
0.0
 30
0.0
 70
     1
  0
VERTEX
  5
10E
100
AcDbEntity
  8
LIVELLO_1
 62
     7
100
AcDbVertex
100
AcDb2dVertex
 10
-27.581607
 20
-85.438196
 30
0.0
  0
VERTEX
  5
10F
100
AcDbEntity
  8
LIVELLO_1
 62
     7
100
AcDbVertex
100
AcDb2dVertex
 10
-21.064692
 20
-85.438196
 30
0.0
  0
VERTEX
  5
110
100
AcDbEntity
  8
LIVELLO_1
 62
     7
100
AcDbVertex
100
AcDb2dVertex
 10
-20.921031
 20
-79.26803
 30
0.0
  0
VERTEX
  5
111
100
AcDbEntity
  8
LIVELLO_1
 62
     7
100
AcDbVertex
100
AcDb2dVertex
 10
-27.581607
 20
-79.26803
 30
0.0
  0
SEQEND
  5
112
100
AcDbEntity
  8
LIVELLO_1
 62
     7
  0
SPLINE
  5
10C
100
AcDbEntity
  8
LIVELLO_1
 62
     7
100
AcDbSpline
210
0.0
220
0.0
230
1.0
 70
     8
 71
     3
 72
    41
 73
    37
 74
     0
 42
0.00000001
 43
0.00000001
 40
0.0
 40
0.0
 40
0.0
 40
0.0
 40
1.0
 40
1.0
 40
1.0
 40
2.0
 40
2.0
 40
2.0
 40
3.0
 40
3.0
 40
3.0
 40
4.0
 40
4.0
 40
4.0
 40
5.0
 40
5.0
 40
5.0
 40
6.0
 40
6.0
 40
6.0
 40
7.0
 40
7.0
 40
7.0
 40
8.0
 40
8.0
 40
8.0
 40
9.0
 40
9.0
 40
9.0
 40
10.0
 40
10.0
 40
10.0
 40
11.0
 40
11.0
 40
11.0
 40
12.0
 40
12.0
 40
12.0
 40
12.0
 10
3.3618964301215275
 20
-81.081528049045133
 30
0.0
 10
3.3618964301215275
 20
-81.081528049045133
 30
0.0
 10
1.8655192057291665
 20
-28.048761664496524
 30
0.0
 10
1.8655192057291665
 20
-28.048761664496524
 30
0.0
 10
1.8655192057291665
 20
-27.223316786024302
 30
0.0
 10
1.196826171875
 20
-26.548767089843746
 30
0.0
 10
0.3689697265625
 20
-26.548767089843746
 30
0.0
 10
0.3689697265625
 20
-26.548767089843746
 30
0.0
 10
-4.0881225585937493
 20
-26.548767089843746
 30
0.0
 10
-4.0881225585937493
 20
-26.548767089843746
 30
0.0
 10
-4.9158067491319439
 20
-26.548767089843746
 30
0.0
 10
-5.5844997829861107
 20
-27.223316786024302
 30
0.0
 10
-5.5844997829861107
 20
-28.048761664496524
 30
0.0
 10
-5.5844997829861107
 20
-28.048761664496524
 30
0.0
 10
-7.0869059244791659
 20
-81.081528049045133
 30
0.0
 10
-7.0869059244791659
 20
-81.081528049045133
 30
0.0
 10
-7.0869059244791659
 20
-81.081528049045133
 30
0.0
 10
-4.7495808919270832
 20
-81.25137125651041
 30
0.0
 10
-4.7495808919270832
 20
-81.25137125651041
 30
0.0
 10
-4.7495808919270832
 20
-81.25137125651041
 30
0.0
 10
-4.7495808919270832
 20
-80.765612792968739
 30
0.0
 10
-4.7495808919270832
 20
-80.765612792968739
 30
0.0
 10
-4.7495808919270832
 20
-79.940167914496527
 30
0.0
 10
-4.0808878580729164
 20
-79.270441351996524
 30
0.0
 10
-3.2518256293402774
 20
-79.270441351996524
 30
0.0
 10
-3.2518256293402774
 20
-79.270441351996524
 30
0.0
 10
-0.4671549479166666
 20
-79.270441351996524
 30
0.0
 10
-0.4671549479166666
 20
-79.270441351996524
 30
0.0
 10
0.3607014973958333
 20
-79.270441351996524
 30
0.0
 10
1.0293945312499999
 20
-79.940167914496527
 30
0.0
 10
1.0293945312499999
 20
-80.765612792968739
 30
0.0
 10
1.0293945312499999
 20
-80.765612792968739
 30
0.0
 10
1.0293945312499999
 20
-81.25137125651041
 30
0.0
 10
1.0293945312499999
 20
-81.25137125651041
 30
0.0
 10
1.0293945312499999
 20
-81.25137125651041
 30
0.0
 10
3.3618964301215275
 20
-81.081528049045133
 30
0.0
 10
3.3618964301215275
 20
-81.081528049045133
 30
0.0
  0
LINE
  5
10B
100
AcDbEntity
  8
LIVELLO_1
 62
     7
100
AcDbLine
 10
11.169516
 20
-30.756951
 30
0.0
 11
10.273619
 21
-30.756951
 31
0.0
  0
POLYLINE
  5
106
100
AcDbEntity
  8
LIVELLO_1
 62
     7
100
AcDb2dPolyline
 66
     1
 10
0.0
 20
0.0
 30
0.0
  0
VERTEX
  5
107
100
AcDbEntity
  8
LIVELLO_1
 62
     7
100
AcDbVertex
100
AcDb2dVertex
 10
10.711491
 20
-79.26803
 30
0.0
  0
VERTEX
  5
108
100
AcDbEntity
  8
LIVELLO_1
 62
     7
100
AcDbVertex
100
AcDb2dVertex
 10
10.273619
 20
-30.756951
 30
0.0
  0
VERTEX
  5
109
100
AcDbEntity
  8
LIVELLO_1
 62
     7
100
AcDbVertex
100
AcDb2dVertex
 10
9.339309
 20
-29.460217
 30
0.0
  0
SEQEND
  5
10A
100
AcDbEntity
  8
LIVELLO_1
 62
     7
  0
POLYLINE
  5
FF
100
AcDbEntity
  8
LIVELLO_1
 62
     7
100
AcDb2dPolyline
 66
     1
 10
0.0
 20
0.0
 30
0.0
  0
VERTEX
  5
100
100
AcDbEntity
  8
LIVELLO_1
 62
     7
100
AcDbVertex
100
AcDb2dVertex
 10
12.377711
 20
-79.26803
 30
0.0
  0
VERTEX
  5
101
100
AcDbEntity
  8
LIVELLO_1
 62
     7
100
AcDbVertex
100
AcDb2dVertex
 10
11.169516
 20
-30.756951
 30
0.0
  0
VERTEX
  5
102
100
AcDbEntity
  8
LIVELLO_1
 62
     7
100
AcDbVertex
100
AcDb2dVertex
 10
10.265179
 20
-29.460217
 30
0.0
  0
VERTEX
  5
103
100
AcDbEntity
  8
LIVELLO_1
 62
     7
100
AcDbVertex
100
AcDb2dVertex
 10
9.339309
 20
-29.460217
 30
0.0
  0
VERTEX
  5
104
100
AcDbEntity
  8
LIVELLO_1
 62
     7
100
AcDbVertex
100
AcDb2dVertex
 10
9.736529
 20
-79.26803
 30
0.0
  0
SEQEND
  5
105
100
AcDbEntity
  8
LIVELLO_1
 62
     7
  0
LINE
  5
FE
100
AcDbEntity
  8
LIVELLO_1
 62
     7
100
AcDbLine
 10
-14.881434
 20
-30.756951
 30
0.0
 11
-13.985537
 21
-30.756951
 31
0.0
  0
POLYLINE
  5
F9
100
AcDbEntity
  8
LIVELLO_1
 62
     7
100
AcDb2dPolyline
 66
     1
 10
0.0
 20
0.0
 30
0.0
  0
VERTEX
  5
FA
100
AcDbEntity
  8
LIVELLO_1
 62
     7
100
AcDbVertex
100
AcDb2dVertex
 10
-14.423237
 20
-79.26803
 30
0.0
  0
VERTEX
  5
FB
100
AcDbEntity
  8
LIVELLO_1
 62
     7
100
AcDbVertex
100
AcDb2dVertex
 10
-13.985537
 20
-30.756951
 30
0.0
  0
VERTEX
  5
FC
100
AcDbEntity
  8
LIVELLO_1
 62
     7
100
AcDbVertex
100
AcDb2dVertex
 10
-13.053639
 20
-29.460217
 30
0.0
  0
SEQEND
  5
FD
100
AcDbEntity
  8
LIVELLO_1
 62
     7
  0
POLYLINE
  5
F2
100
AcDbEntity
  8
LIVELLO_1
 62
     7
100
AcDb2dPolyline
 66
     1
 10
0.0
 20
0.0
 30
0.0
  0
VERTEX
  5
F3
100
AcDbEntity
  8
LIVELLO_1
 62
     7
100
AcDbVertex
100
AcDb2dVertex
 10
-16.089629
 20
-79.26803
 30
0.0
  0
VERTEX
  5
F4
100
AcDbEntity
  8
LIVELLO_1
 62
     7
100
AcDbVertex
100
AcDb2dVertex
 10
-14.881434
 20
-30.756951
 30
0.0
  0
VERTEX
  5
F5
100
AcDbEntity
  8
LIVELLO_1
 62
     7
100
AcDbVertex
100
AcDb2dVertex
 10
-13.975891
 20
-29.460217
 30
0.0
  0
VERTEX
  5
F6
100
AcDbEntity
  8
LIVELLO_1
 62
     7
100
AcDbVertex
100
AcDb2dVertex
 10
-13.053639
 20
-29.460217
 30
0.0
  0
VERTEX
  5
F7
100
AcDbEntity
  8
LIVELLO_1
 62
     7
100
AcDbVertex
100
AcDb2dVertex
 10
-13.446035
 20
-79.26803
 30
0.0
  0
SEQEND
  5
F8
100
AcDbEntity
  8
LIVELLO_1
 62
     7
  0
POLYLINE
  5
ED
100
AcDbEntity
  8
LIVELLO_1
 62
     7
100
AcDb2dPolyline
 66
     1
 10
0.0
 20
0.0
 30
0.0
  0
VERTEX
  5
EE
100
AcDbEntity
  8
LIVELLO_1
 62
     7
100
AcDbVertex
100
AcDb2dVertex
 10
21.758534
 20
-85.438196
 30
0.0
  0
VERTEX
  5
EF
100
AcDbEntity
  8
LIVELLO_1
 62
     7
100
AcDbVertex
100
AcDb2dVertex
 10
15.809715
 20
-79.26803
 30
0.0
  0
VERTEX
  5
F0
100
AcDbEntity
  8
LIVELLO_1
 62
     7
100
AcDbVertex
100
AcDb2dVertex
 10
14.680413
 20
-28.048762
 30
0.0
  0
SEQEND
  5
F1
100
AcDbEntity
  8
LIVELLO_1
 62
     7
  0
POLYLINE
  5
E8
100
AcDbEntity
  8
LIVELLO_1
 62
     7
100
AcDb2dPolyline
 66
     1
 10
0.0
 20
0.0
 30
0.0
  0
VERTEX
  5
E9
100
AcDbEntity
  8
LIVELLO_1
 62
     7
100
AcDbVertex
100
AcDb2dVertex
 10
-25.467868
 20
-85.438196
 30
0.0
  0
VERTEX
  5
EA
100
AcDbEntity
  8
LIVELLO_1
 62
     7
100
AcDbVertex
100
AcDb2dVertex
 10
-19.526284
 20
-79.26803
 30
0.0
  0
VERTEX
  5
EB
100
AcDbEntity
  8
LIVELLO_1
 62
     7
100
AcDbVertex
100
AcDb2dVertex
 10
-18.392331
 20
-28.048762
 30
0.0
  0
SEQEND
  5
EC
100
AcDbEntity
  8
LIVELLO_1
 62
     7
  0
POLYLINE
  5
E3
100
AcDbEntity
  8
LIVELLO_1
 62
     7
100
AcDb2dPolyline
 66
     1
 10
0.0
 20
0.0
 30
0.0
 70
     1
  0
VERTEX
  5
E4
100
AcDbEntity
  8
LIVELLO_1
 62
     7
100
AcDbVertex
100
AcDb2dVertex
 10
17.352774
 20
-85.438196
 30
0.0
  0
VERTEX
  5
E5
100
AcDbEntity
  8
LIVELLO_1
 62
     7
100
AcDbVertex
100
AcDb2dVertex
 10
16.074127
 20
-30.910258
 30
0.0
  0
VERTEX
  5
E6
100
AcDbEntity
  8
LIVELLO_1
 62
     7
100
AcDbVertex
100
AcDb2dVertex
 10
14.755861
 20
-29.654176
 30
0.0
  0
SEQEND
  5
E7
100
AcDbEntity
  8
LIVELLO_1
 62
     7
  0
POLYLINE
  5
DE
100
AcDbEntity
  8
LIVELLO_1
 62
     7
100
AcDb2dPolyline
 66
     1
 10
0.0
 20
0.0
 30
0.0
 70
     1
  0
VERTEX
  5
DF
100
AcDbEntity
  8
LIVELLO_1
 62
     7
100
AcDbVertex
100
AcDb2dVertex
 10
-21.064692
 20
-85.438196
 30
0.0
  0
VERTEX
  5
E0
100
AcDbEntity
  8
LIVELLO_1
 62
     7
100
AcDbVertex
100
AcDb2dVertex
 10
-18.471224
 20
-29.654176
 30
0.0
  0
VERTEX
  5
E1
100
AcDbEntity
  8
LIVELLO_1
 62
     7
100
AcDbVertex
100
AcDb2dVertex
 10
-19.785872
 20
-30.910258
 30
0.0
  0
SEQEND
  5
E2
100
AcDbEntity
  8
LIVELLO_1
 62
     7
  0
SPLINE
  5
DD
100
AcDbEntity
  8
LIVELLO_1
 62
     7
100
AcDbSpline
210
0.0
220
0.0
230
1.0
 70
     8
 71
     3
 72
    23
 73
    19
 74
     0
 42
0.00000001
 43
0.00000001
 40
0.0
 40
0.0
 40
0.0
 40
0.0
 40
1.0
 40
1.0
 40
1.0
 40
2.0
 40
2.0
 40
2.0
 40
3.0
 40
3.0
 40
3.0
 40
4.0
 40
4.0
 40
4.0
 40
5.0
 40
5.0
 40
5.0
 40
6.0
 40
6.0
 40
6.0
 40
6.0
 10
-16.89578179253472
 20
-26.548767089843746
 30
0.0
 10
-17.723638237847222
 20
-26.548767089843746
 30
0.0
 10
-18.392331271701387
 20
-27.223316786024302
 30
0.0
 10
-18.392331271701387
 20
-28.048761664496524
 30
0.0
 10
-18.392331271701387
 20
-28.048761664496524
 30
0.0
 10
-21.064691840277774
 20
-85.438195800781244
 30
0.0
 10
-21.064691840277774
 20
-85.438195800781244
 30
0.0
 10
-21.064691840277774
 20
-85.438195800781244
 30
0.0
 10
17.352773708767359
 20
-85.438195800781244
 30
0.0
 10
17.352773708767359
 20
-85.438195800781244
 30
0.0
 10
17.352773708767359
 20
-85.438195800781244
 30
0.0
 10
14.680413140190971
 20
-28.048761664496524
 30
0.0
 10
14.680413140190971
 20
-28.048761664496524
 30
0.0
 10
14.680413140190971
 20
-27.223316786024302
 30
0.0
 10
14.011720106336805
 20
-26.548767089843746
 30
0.0
 10
13.18403591579861
 20
-26.548767089843746
 30
0.0
 10
13.18403591579861
 20
-26.548767089843746
 30
0.0
 10
-16.89578179253472
 20
-26.548767089843746
 30
0.0
 10
-16.89578179253472
 20
-26.548767089843746
 30
0.0
  0
SPLINE
  5
DC
100
AcDbEntity
  8
LIVELLO_1
 62
     7
100
AcDbSpline
210
0.0
220
0.0
230
1.0
 70
     8
 71
     3
 72
    29
 73
    25
 74
     0
 42
0.00000001
 43
0.00000001
 40
0.0
 40
0.0
 40
0.0
 40
0.0
 40
1.0
 40
1.0
 40
1.0
 40
2.0
 40
2.0
 40
2.0
 40
3.0
 40
3.0
 40
3.0
 40
4.0
 40
4.0
 40
4.0
 40
5.0
 40
5.0
 40
5.0
 40
6.0
 40
6.0
 40
6.0
 40
7.0
 40
7.0
 40
7.0
 40
8.0
 40
8.0
 40
8.0
 40
8.0
 10
-29.007531738281248
 20
-93.134539116753459
 30
0.0
 10
-29.007531738281248
 20
-93.134539116753459
 30
0.0
 10
25.298025173611109
 20
-93.134539116753459
 30
0.0
 10
25.298025173611109
 20
-93.134539116753459
 30
0.0
 10
25.709369574652776
 20
-93.134539116753459
 30
0.0
 10
26.045610894097219
 20
-92.797264268663184
 30
0.0
 10
26.045610894097219
 20
-92.383163791232633
 30
0.0
 10
26.045610894097219
 20
-92.383163791232633
 30
0.0
 10
26.045610894097219
 20
-86.186815049913193
 30
0.0
 10
26.045610894097219
 20
-86.186815049913193
 30
0.0
 10
26.045610894097219
 20
-85.773059082031239
 30
0.0
 10
25.709369574652776
 20
-85.438195800781244
 30
0.0
 10
25.298025173611109
 20
-85.438195800781244
 30
0.0
 10
25.298025173611109
 20
-85.438195800781244
 30
0.0
 10
-29.007531738281248
 20
-85.438195800781244
 30
0.0
 10
-29.007531738281248
 20
-85.438195800781244
 30
0.0
 10
-29.421287706163191
 20
-85.438195800781244
 30
0.0
 10
-29.757529025607635
 20
-85.773059082031239
 30
0.0
 10
-29.757529025607635
 20
-86.186815049913193
 30
0.0
 10
-29.757529025607635
 20
-86.186815049913193
 30
0.0
 10
-29.757529025607635
 20
-92.383163791232633
 30
0.0
 10
-29.757529025607635
 20
-92.383163791232633
 30
0.0
 10
-29.757529025607635
 20
-92.797264268663184
 30
0.0
 10
-29.421287706163191
 20
-93.134539116753459
 30
0.0
 10
-29.007531738281248
 20
-93.134539116753459
 30
0.0
  0
LINE
  5
DB
100
AcDbEntity
  8
LIVELLO_1
 62
     7
100
AcDbLine
 10
-73.443062
 20
5.354195
 30
0.0
 11
-73.443062
 21
-4.969033
 31
0.0
  0
SPLINE
  5
DA
100
AcDbEntity
  8
LIVELLO_1
 62
     7
100
AcDbSpline
210
0.0
220
0.0
230
1.0
 70
     8
 71
     3
 72
    11
 73
     7
 74
     0
 42
0.00000001
 43
0.00000001
 40
0.0
 40
0.0
 40
0.0
 40
0.0
 40
1.0
 40
1.0
 40
1.0
 40
2.0
 40
2.0
 40
2.0
 40
2.0
 10
-76.288711208767353
 20
-3.1172946506076387
 30
0.0
 10
-80.432472059461801
 20
-3.1172946506076387
 30
0.0
 10
-83.77352566189235
 20
-1.5576999240451388
 30
0.0
 10
-83.77352566189235
 20
0.3684529622395833
 30
0.0
 10
-83.77352566189235
 20
2.2942613389756943
 30
0.0
 10
-80.432472059461801
 20
3.8590237087673609
 30
0.0
 10
-76.309037272135413
 20
3.8590237087673609
 30
0.0
  0
SPLINE
  5
D9
100
AcDbEntity
  8
LIVELLO_1
 62
     7
100
AcDbSpline
210
0.0
220
0.0
230
1.0
 70
     8
 71
     3
 72
    17
 73
    13
 74
     0
 42
0.00000001
 43
0.00000001
 40
0.0
 40
0.0
 40
0.0
 40
0.0
 40
1.0
 40
1.0
 40
1.0
 40
2.0
 40
2.0
 40
2.0
 40
3.0
 40
3.0
 40
3.0
 40
4.0
 40
4.0
 40
4.0
 40
4.0
 10
-53.690090603298607
 20
-54.054409450954857
 30
0.0
 10
-53.690090603298607
 20
-54.054409450954857
 30
0.0
 10
-76.288711208767353
 20
-54.944277615017356
 30
0.0
 10
-76.288711208767353
 20
-54.944277615017356
 30
0.0
 10
-76.288711208767353
 20
-54.944277615017356
 30
0.0
 10
-78.148890516493054
 20
-56.815308973524303
 30
0.0
 10
-78.148890516493054
 20
-56.815308973524303
 30
0.0
 10
-78.148890516493054
 20
-56.815308973524303
 30
0.0
 10
-55.553715006510409
 20
-55.453807237413187
 30
0.0
 10
-55.553715006510409
 20
-55.453807237413187
 30
0.0
 10
-54.522597927517353
 20
-55.453807237413187
 30
0.0
 10
-53.690090603298607
 20
-55.087938096788193
 30
0.0
 10
-53.690090603298607
 20
-54.054409450954857
 30
0.0
  0
SPLINE
  5
D8
100
AcDbEntity
  8
LIVELLO_1
 62
     7
100
AcDbSpline
210
0.0
220
0.0
230
1.0
 70
     8
 71
     3
 72
    17
 73
    13
 74
     0
 42
0.00000001
 43
0.00000001
 40
0.0
 40
0.0
 40
0.0
 40
0.0
 40
1.0
 40
1.0
 40
1.0
 40
2.0
 40
2.0
 40
2.0
 40
3.0
 40
3.0
 40
3.0
 40
4.0
 40
4.0
 40
4.0
 40
4.0
 10
-53.690090603298607
 20
54.781496853298606
 30
0.0
 10
-53.690090603298607
 20
54.781496853298606
 30
0.0
 10
-76.288711208767353
 20
55.669125705295137
 30
0.0
 10
-76.288711208767353
 20
55.669125705295137
 30
0.0
 10
-76.288711208767353
 20
55.669125705295137
 30
0.0
 10
-78.148890516493054
 20
57.539984809027771
 30
0.0
 10
-78.148890516493054
 20
57.539984809027771
 30
0.0
 10
-78.148890516493054
 20
57.539984809027771
 30
0.0
 10
-55.553715006510409
 20
56.178655327690969
 30
0.0
 10
-55.553715006510409
 20
56.178655327690969
 30
0.0
 10
-54.522597927517353
 20
56.178655327690969
 30
0.0
 10
-53.690090603298607
 20
55.812613932291661
 30
0.0
 10
-53.690090603298607
 20
54.781496853298606
 30
0.0
  0
SPLINE
  5
D7
100
AcDbEntity
  8
LIVELLO_1
 62
     7
100
AcDbSpline
210
0.0
220
0.0
230
1.0
 70
     8
 71
     3
 72
    20
 73
    16
 74
     0
 42
0.00000001
 43
0.00000001
 40
0.0
 40
0.0
 40
0.0
 40
0.0
 40
1.0
 40
1.0
 40
1.0
 40
2.0
 40
2.0
 40
2.0
 40
3.0
 40
3.0
 40
3.0
 40
4.0
 40
4.0
 40
4.0
 40
5.0
 40
5.0
 40
5.0
 40
5.0
 10
-53.685267469618047
 20
-30.563336859809024
 30
0.0
 10
-53.685267469618047
 20
-31.216182454427081
 30
0.0
 10
-54.747390407986103
 20
-31.749827745225691
 30
0.0
 10
-56.058593749999993
 20
-31.749827745225691
 30
0.0
 10
-56.058593749999993
 20
-31.749827745225691
 30
0.0
 10
-76.288711208767353
 20
-31.749827745225691
 30
0.0
 10
-76.288711208767353
 20
-31.749827745225691
 30
0.0
 10
-76.288711208767353
 20
-31.749827745225691
 30
0.0
 10
-76.288711208767353
 20
-29.376501464843749
 30
0.0
 10
-76.288711208767353
 20
-29.376501464843749
 30
0.0
 10
-76.288711208767353
 20
-29.376501464843749
 30
0.0
 10
-56.058593749999993
 20
-29.376501464843749
 30
0.0
 10
-56.058593749999993
 20
-29.376501464843749
 30
0.0
 10
-54.747390407986103
 20
-29.376501464843749
 30
0.0
 10
-53.685267469618047
 20
-29.905323621961802
 30
0.0
 10
-53.685267469618047
 20
-30.563336859809024
 30
0.0
  0
SPLINE
  5
D6
100
AcDbEntity
  8
LIVELLO_1
 62
     7
100
AcDbSpline
210
0.0
220
0.0
230
1.0
 70
     8
 71
     3
 72
    20
 73
    16
 74
     0
 42
0.00000001
 43
0.00000001
 40
0.0
 40
0.0
 40
0.0
 40
0.0
 40
1.0
 40
1.0
 40
1.0
 40
2.0
 40
2.0
 40
2.0
 40
3.0
 40
3.0
 40
3.0
 40
4.0
 40
4.0
 40
4.0
 40
5.0
 40
5.0
 40
5.0
 40
5.0
 10
-53.685267469618047
 20
-10.17491726345486
 30
0.0
 10
-53.685267469618047
 20
-10.825695800781249
 30
0.0
 10
-54.747390407986103
 20
-11.354517957899304
 30
0.0
 10
-56.058593749999993
 20
-11.354517957899304
 30
0.0
 10
-56.058593749999993
 20
-11.354517957899304
 30
0.0
 10
-76.288711208767353
 20
-11.354517957899304
 30
0.0
 10
-76.288711208767353
 20
-11.354517957899304
 30
0.0
 10
-76.288711208767353
 20
-11.354517957899304
 30
0.0
 10
-76.288711208767353
 20
-8.986014811197915
 30
0.0
 10
-76.288711208767353
 20
-8.986014811197915
 30
0.0
 10
-76.288711208767353
 20
-8.986014811197915
 30
0.0
 10
-56.058593749999993
 20
-8.986014811197915
 30
0.0
 10
-56.058593749999993
 20
-8.986014811197915
 30
0.0
 10
-54.747390407986103
 20
-8.986014811197915
 30
0.0
 10
-53.685267469618047
 20
-9.5148369683159721
 30
0.0
 10
-53.685267469618047
 20
-10.17491726345486
 30
0.0
  0
SPLINE
  5
D5
100
AcDbEntity
  8
LIVELLO_1
 62
     7
100
AcDbSpline
210
0.0
220
0.0
230
1.0
 70
     8
 71
     3
 72
    20
 73
    16
 74
     0
 42
0.00000001
 43
0.00000001
 40
0.0
 40
0.0
 40
0.0
 40
0.0
 40
1.0
 40
1.0
 40
1.0
 40
2.0
 40
2.0
 40
2.0
 40
3.0
 40
3.0
 40
3.0
 40
4.0
 40
4.0
 40
4.0
 40
5.0
 40
5.0
 40
5.0
 40
5.0
 10
-53.685267469618047
 20
10.899765353732638
 30
0.0
 10
-53.685267469618047
 20
10.239340549045139
 30
0.0
 10
-54.747390407986103
 20
9.7108629014756929
 30
0.0
 10
-56.058593749999993
 20
9.7108629014756929
 30
0.0
 10
-56.058593749999993
 20
9.7108629014756929
 30
0.0
 10
-76.288711208767353
 20
9.7108629014756929
 30
0.0
 10
-76.288711208767353
 20
9.7108629014756929
 30
0.0
 10
-76.288711208767353
 20
9.7108629014756929
 30
0.0
 10
-76.288711208767353
 20
12.084189181857639
 30
0.0
 10
-76.288711208767353
 20
12.084189181857639
 30
0.0
 10
-76.288711208767353
 20
12.084189181857639
 30
0.0
 10
-56.058593749999993
 20
12.084189181857639
 30
0.0
 10
-56.058593749999993
 20
12.084189181857639
 30
0.0
 10
-54.747390407986103
 20
12.084189181857639
 30
0.0
 10
-53.685267469618047
 20
11.550543891059027
 30
0.0
 10
-53.685267469618047
 20
10.899765353732638
 30
0.0
  0
SPLINE
  5
D4
100
AcDbEntity
  8
LIVELLO_1
 62
     7
100
AcDbSpline
210
0.0
220
0.0
230
1.0
 70
     8
 71
     3
 72
    20
 73
    16
 74
     0
 42
0.00000001
 43
0.00000001
 40
0.0
 40
0.0
 40
0.0
 40
0.0
 40
1.0
 40
1.0
 40
1.0
 40
2.0
 40
2.0
 40
2.0
 40
3.0
 40
3.0
 40
3.0
 40
4.0
 40
4.0
 40
4.0
 40
5.0
 40
5.0
 40
5.0
 40
5.0
 10
-53.685267469618047
 20
31.285601128472219
 30
0.0
 10
-53.685267469618047
 20
30.634822591145831
 30
0.0
 10
-54.747390407986103
 20
30.101349555121526
 30
0.0
 10
-56.058593749999993
 20
30.101349555121526
 30
0.0
 10
-56.058593749999993
 20
30.101349555121526
 30
0.0
 10
-76.288711208767353
 20
30.101349555121526
 30
0.0
 10
-76.288711208767353
 20
30.101349555121526
 30
0.0
 10
-76.288711208767353
 20
30.101349555121526
 30
0.0
 10
-76.288711208767353
 20
32.474675835503469
 30
0.0
 10
-76.288711208767353
 20
32.474675835503469
 30
0.0
 10
-76.288711208767353
 20
32.474675835503469
 30
0.0
 10
-56.058593749999993
 20
32.474675835503469
 30
0.0
 10
-56.058593749999993
 20
32.474675835503469
 30
0.0
 10
-54.747390407986103
 20
32.474675835503469
 30
0.0
 10
-53.685267469618047
 20
31.941030544704859
 30
0.0
 10
-53.685267469618047
 20
31.285601128472219
 30
0.0
  0
SPLINE
  5
D3
100
AcDbEntity
  8
LIVELLO_1
 62
     7
100
AcDbSpline
210
0.0
220
0.0
230
1.0
 70
     8
 71
     3
 72
    17
 73
    13
 74
     0
 42
0.00000001
 43
0.00000001
 40
0.0
 40
0.0
 40
0.0
 40
0.0
 40
1.0
 40
1.0
 40
1.0
 40
2.0
 40
2.0
 40
2.0
 40
3.0
 40
3.0
 40
3.0
 40
4.0
 40
4.0
 40
4.0
 40
4.0
 10
-45.174159071180554
 20
42.606529405381941
 30
0.0
 10
-45.174159071180554
 20
42.606529405381941
 30
0.0
 10
-45.174159071180554
 20
-41.881853569878466
 30
0.0
 10
-45.174159071180554
 20
-41.881853569878466
 30
0.0
 10
-45.174159071180554
 20
-42.917793782552081
 30
0.0
 10
-46.009250217013886
 20
-43.750128851996521
 30
0.0
 10
-47.037955729166661
 20
-43.750128851996521
 30
0.0
 10
-47.037955729166661
 20
-43.750128851996521
 30
0.0
 10
-47.037955729166661
 20
44.477388509114576
 30
0.0
 10
-47.037955729166661
 20
44.477388509114576
 30
0.0
 10
-46.009250217013886
 20
44.477388509114576
 30
0.0
 10
-45.174159071180554
 20
43.635234917534717
 30
0.0
 10
-45.174159071180554
 20
42.606529405381941
 30
0.0
  0
SPLINE
  5
D2
100
AcDbEntity
  8
LIVELLO_1
 62
     7
100
AcDbSpline
210
0.0
220
0.0
230
1.0
 70
     8
 71
     3
 72
    17
 73
    13
 74
     0
 42
0.00000001
 43
0.00000001
 40
0.0
 40
0.0
 40
0.0
 40
0.0
 40
1.0
 40
1.0
 40
1.0
 40
2.0
 40
2.0
 40
2.0
 40
3.0
 40
3.0
 40
3.0
 40
4.0
 40
4.0
 40
4.0
 40
4.0
 10
-47.037955729166661
 20
46.341012912326384
 30
0.0
 10
-47.037955729166661
 20
46.341012912326384
 30
0.0
 10
-47.037955729166661
 20
-45.613925509982636
 30
0.0
 10
-47.037955729166661
 20
-45.613925509982636
 30
0.0
 10
-47.037955729166661
 20
-46.645042588975691
 30
0.0
 10
-47.874080403645827
 20
-47.482200792100691
 30
0.0
 10
-48.907609049479163
 20
-47.482200792100691
 30
0.0
 10
-48.907609049479163
 20
-47.482200792100691
 30
0.0
 10
-48.907609049479163
 20
48.204637315538193
 30
0.0
 10
-48.907609049479163
 20
48.204637315538193
 30
0.0
 10
-47.874080403645827
 20
48.204637315538193
 30
0.0
 10
-47.037955729166661
 20
47.36971842447916
 30
0.0
 10
-47.037955729166661
 20
46.341012912326384
 30
0.0
  0
SPLINE
  5
D1
100
AcDbEntity
  8
LIVELLO_1
 62
     7
100
AcDbSpline
210
0.0
220
0.0
230
1.0
 70
     8
 71
     3
 72
    17
 73
    13
 74
     0
 42
0.00000001
 43
0.00000001
 40
0.0
 40
0.0
 40
0.0
 40
0.0
 40
1.0
 40
1.0
 40
1.0
 40
2.0
 40
2.0
 40
2.0
 40
3.0
 40
3.0
 40
3.0
 40
4.0
 40
4.0
 40
4.0
 40
4.0
 10
-48.907609049479163
 20
50.07084554036458
 30
0.0
 10
-48.907609049479163
 20
50.07084554036458
 30
0.0
 10
-48.907609049479163
 20
-49.348409016927079
 30
0.0
 10
-48.907609049479163
 20
-49.348409016927079
 30
0.0
 10
-48.907609049479163
 20
-50.377114529079854
 30
0.0
 10
-49.742527940538189
 20
-51.212205674913193
 30
0.0
 10
-50.771233452690964
 20
-51.212205674913193
 30
0.0
 10
-50.771233452690964
 20
-51.212205674913193
 30
0.0
 10
-50.771233452690964
 20
51.936881510416661
 30
0.0
 10
-50.771233452690964
 20
51.936881510416661
 30
0.0
 10
-49.742527940538189
 20
51.936881510416661
 30
0.0
 10
-48.907609049479163
 20
51.101962619357636
 30
0.0
 10
-48.907609049479163
 20
50.07084554036458
 30
0.0
  0
SPLINE
  5
D0
100
AcDbEntity
  8
LIVELLO_1
 62
     7
100
AcDbSpline
210
0.0
220
0.0
230
1.0
 70
     8
 71
     3
 72
    23
 73
    19
 74
     0
 42
0.00000001
 43
0.00000001
 40
0.0
 40
0.0
 40
0.0
 40
0.0
 40
1.0
 40
1.0
 40
1.0
 40
2.0
 40
2.0
 40
2.0
 40
3.0
 40
3.0
 40
3.0
 40
4.0
 40
4.0
 40
4.0
 40
5.0
 40
5.0
 40
5.0
 40
6.0
 40
6.0
 40
6.0
 40
6.0
 10
-50.771233452690964
 20
-4.9883260091145827
 30
0.0
 10
-50.771233452690964
 20
-4.9883260091145827
 30
0.0
 10
-50.771233452690964
 20
-52.147549099392357
 30
0.0
 10
-50.771233452690964
 20
-52.147549099392357
 30
0.0
 10
-50.771233452690964
 20
-53.176254611545133
 30
0.0
 10
-51.607358127170137
 20
-54.013757324218744
 30
0.0
 10
-52.638475206163193
 20
-54.013757324218744
 30
0.0
 10
-52.638475206163193
 20
-54.013757324218744
 30
0.0
 10
-76.288711208767353
 20
-54.944277615017356
 30
0.0
 10
-76.288711208767353
 20
-54.944277615017356
 30
0.0
 10
-76.288711208767353
 20
-54.944277615017356
 30
0.0
 10
-76.288711208767353
 20
-3.124529351128472
 30
0.0
 10
-76.288711208767353
 20
-3.124529351128472
 30
0.0
 10
-76.288711208767353
 20
-3.124529351128472
 30
0.0
 10
-52.638475206163193
 20
-3.124529351128472
 30
0.0
 10
-52.638475206163193
 20
-3.124529351128472
 30
0.0
 10
-51.607358127170137
 20
-3.124529351128472
 30
0.0
 10
-50.771233452690964
 20
-3.9596204969618052
 30
0.0
 10
-50.771233452690964
 20
-4.9883260091145827
 30
0.0
  0
POLYLINE
  5
CA
100
AcDbEntity
  8
LIVELLO_1
 62
     7
100
AcDb2dPolyline
 66
     1
 10
0.0
 20
0.0
 30
0.0
 70
     1
  0
VERTEX
  5
CB
100
AcDbEntity
  8
LIVELLO_1
 62
     7
100
AcDbVertex
100
AcDb2dVertex
 10
-76.288711
 20
55.669126
 30
0.0
  0
VERTEX
  5
CC
100
AcDbEntity
  8
LIVELLO_1
 62
     7
100
AcDbVertex
100
AcDb2dVertex
 10
-76.288711
 20
-54.944278
 30
0.0
  0
VERTEX
  5
CD
100
AcDbEntity
  8
LIVELLO_1
 62
     7
100
AcDbVertex
100
AcDb2dVertex
 10
-78.148891
 20
-56.815309
 30
0.0
  0
VERTEX
  5
CE
100
AcDbEntity
  8
LIVELLO_1
 62
     7
100
AcDbVertex
100
AcDb2dVertex
 10
-78.148891
 20
57.539985
 30
0.0
  0
SEQEND
  5
CF
100
AcDbEntity
  8
LIVELLO_1
 62
     7
  0
POLYLINE
  5
C4
100
AcDbEntity
  8
LIVELLO_1
 62
     7
100
AcDb2dPolyline
 66
     1
 10
0.0
 20
0.0
 30
0.0
 70
     1
  0
VERTEX
  5
C5
100
AcDbEntity
  8
LIVELLO_1
 62
     7
100
AcDbVertex
100
AcDb2dVertex
 10
-78.148891
 20
57.539985
 30
0.0
  0
VERTEX
  5
C6
100
AcDbEntity
  8
LIVELLO_1
 62
     7
100
AcDbVertex
100
AcDb2dVertex
 10
-78.148891
 20
-56.815309
 30
0.0
  0
VERTEX
  5
C7
100
AcDbEntity
  8
LIVELLO_1
 62
     7
100
AcDbVertex
100
AcDb2dVertex
 10
-83.773526
 20
-56.815309
 30
0.0
  0
VERTEX
  5
C8
100
AcDbEntity
  8
LIVELLO_1
 62
     7
100
AcDbVertex
100
AcDb2dVertex
 10
-83.773526
 20
57.539985
 30
0.0
  0
SEQEND
  5
C9
100
AcDbEntity
  8
LIVELLO_1
 62
     7
  0
SPLINE
  5
C3
100
AcDbEntity
  8
LIVELLO_1
 62
     7
100
AcDbSpline
210
0.0
220
0.0
230
1.0
 70
     8
 71
     3
 72
    23
 73
    19
 74
     0
 42
0.00000001
 43
0.00000001
 40
0.0
 40
0.0
 40
0.0
 40
0.0
 40
1.0
 40
1.0
 40
1.0
 40
2.0
 40
2.0
 40
2.0
 40
3.0
 40
3.0
 40
3.0
 40
4.0
 40
4.0
 40
4.0
 40
5.0
 40
5.0
 40
5.0
 40
6.0
 40
6.0
 40
6.0
 40
6.0
 10
-50.771233452690964
 20
52.872397189670131
 30
0.0
 10
-50.771233452690964
 20
52.872397189670131
 30
0.0
 10
-50.771233452690964
 20
5.7152411566840273
 30
0.0
 10
-50.771233452690964
 20
5.7152411566840273
 30
0.0
 10
-50.771233452690964
 20
4.6841240776909716
 30
0.0
 10
-51.607358127170137
 20
3.8517890082465276
 30
0.0
 10
-52.638475206163193
 20
3.8517890082465276
 30
0.0
 10
-52.638475206163193
 20
3.8517890082465276
 30
0.0
 10
-76.288711208767353
 20
3.8517890082465276
 30
0.0
 10
-76.288711208767353
 20
3.8517890082465276
 30
0.0
 10
-76.288711208767353
 20
3.8517890082465276
 30
0.0
 10
-76.288711208767353
 20
55.669125705295137
 30
0.0
 10
-76.288711208767353
 20
55.669125705295137
 30
0.0
 10
-76.288711208767353
 20
55.669125705295137
 30
0.0
 10
-52.638475206163193
 20
54.740844726562493
 30
0.0
 10
-52.638475206163193
 20
54.740844726562493
 30
0.0
 10
-51.607358127170137
 20
54.740844726562493
 30
0.0
 10
-50.771233452690964
 20
53.901102701822914
 30
0.0
 10
-50.771233452690964
 20
52.872397189670131
 30
0.0
  0
LINE
  5
C2
100
AcDbEntity
  8
LIVELLO_1
 62
     7
100
AcDbLine
 10
-7.194565
 20
30.718538
 30
0.0
 11
-39.547285
 21
30.718538
 31
0.0
  0
POLYLINE
  5
BC
100
AcDbEntity
  8
LIVELLO_1
 62
     7
100
AcDb2dPolyline
 66
     1
 10
0.0
 20
0.0
 30
0.0
 70
     1
  0
VERTEX
  5
BD
100
AcDbEntity
  8
LIVELLO_1
 62
     7
100
AcDbVertex
100
AcDb2dVertex
 10
-34.194295
 20
39.443759
 30
0.0
  0
VERTEX
  5
BE
100
AcDbEntity
  8
LIVELLO_1
 62
     7
100
AcDbVertex
100
AcDb2dVertex
 10
-34.194295
 20
22.158337
 30
0.0
  0
VERTEX
  5
BF
100
AcDbEntity
  8
LIVELLO_1
 62
     7
100
AcDbVertex
100
AcDb2dVertex
 10
-45.174159
 20
22.158337
 30
0.0
  0
VERTEX
  5
C0
100
AcDbEntity
  8
LIVELLO_1
 62
     7
100
AcDbVertex
100
AcDb2dVertex
 10
-45.174159
 20
39.443759
 30
0.0
  0
SEQEND
  5
C1
100
AcDbEntity
  8
LIVELLO_1
 62
     7
  0
CIRCLE
  5
BB
100
AcDbEntity
  8
LIVELLO_1
 62
     7
100
AcDbCircle
 10
-2.416907
 20
30.80234
 30
0.0
 40
1.239287
  0
CIRCLE
  5
BA
100
AcDbEntity
  8
LIVELLO_1
 62
     7
100
AcDbCircle
 10
-2.416907
 20
30.801135
 30
0.0
 40
2.618531
  0
SPLINE
  5
B9
100
AcDbEntity
  8
LIVELLO_1
 62
     7
100
AcDbSpline
210
0.0
220
0.0
230
1.0
 70
     8
 71
     3
 72
    23
 73
    19
 74
     0
 42
0.00000001
 43
0.00000001
 40
0.0
 40
0.0
 40
0.0
 40
0.0
 40
1.0
 40
1.0
 40
1.0
 40
2.0
 40
2.0
 40
2.0
 40
3.0
 40
3.0
 40
3.0
 40
4.0
 40
4.0
 40
4.0
 40
5.0
 40
5.0
 40
5.0
 40
6.0
 40
6.0
 40
6.0
 40
6.0
 10
1.294839138454861
 20
32.469852701822916
 30
0.0
 10
1.294839138454861
 20
32.469852701822916
 30
0.0
 10
1.294839138454861
 20
29.137239583333329
 30
0.0
 10
1.294839138454861
 20
29.137239583333329
 30
0.0
 10
1.294839138454861
 20
28.103710937499997
 30
0.0
 10
0.4587144639756944
 20
27.268792046440971
 30
0.0
 10
-0.5699910481770832
 20
27.268792046440971
 30
0.0
 10
-0.5699910481770832
 20
27.268792046440971
 30
0.0
 10
-34.194295247395829
 20
27.268792046440971
 30
0.0
 10
-34.194295247395829
 20
27.268792046440971
 30
0.0
 10
-34.194295247395829
 20
27.268792046440971
 30
0.0
 10
-34.194295247395829
 20
34.333477105034717
 30
0.0
 10
-34.194295247395829
 20
34.333477105034717
 30
0.0
 10
-34.194295247395829
 20
34.333477105034717
 30
0.0
 10
-0.5699910481770832
 20
34.333477105034717
 30
0.0
 10
-0.5699910481770832
 20
34.333477105034717
 30
0.0
 10
0.4587144639756944
 20
34.333477105034717
 30
0.0
 10
1.294839138454861
 20
33.498558213975691
 30
0.0
 10
1.294839138454861
 20
32.469852701822916
 30
0.0
  0
POLYLINE
  5
B3
100
AcDbEntity
  8
LIVELLO_1
 62
     7
100
AcDb2dPolyline
 66
     1
 10
0.0
 20
0.0
 30
0.0
 70
     1
  0
VERTEX
  5
B4
100
AcDbEntity
  8
LIVELLO_1
 62
     7
100
AcDbVertex
100
AcDb2dVertex
 10
11.758111
 20
24.345284
 30
0.0
  0
VERTEX
  5
B5
100
AcDbEntity
  8
LIVELLO_1
 62
     7
100
AcDbVertex
100
AcDb2dVertex
 10
6.539136
 20
24.345284
 30
0.0
  0
VERTEX
  5
B6
100
AcDbEntity
  8
LIVELLO_1
 62
     7
100
AcDbVertex
100
AcDb2dVertex
 10
6.539136
 20
25.519717
 30
0.0
  0
VERTEX
  5
B7
100
AcDbEntity
  8
LIVELLO_1
 62
     7
100
AcDbVertex
100
AcDb2dVertex
 10
11.758111
 20
25.519717
 30
0.0
  0
SEQEND
  5
B8
100
AcDbEntity
  8
LIVELLO_1
 62
     7
  0
LINE
  5
B2
100
AcDbEntity
  8
LIVELLO_1
 62
     7
100
AcDbLine
 10
7.933883
 20
79.990294
 30
0.0
 11
3.337953
 21
79.990294
 31
0.0
  0
LINE
  5
B1
100
AcDbEntity
  8
LIVELLO_1
 62
     7
100
AcDbLine
 10
-11.643217
 20
79.990294
 30
0.0
 11
-7.049871
 21
79.990294
 31
0.0
  0
SPLINE
  5
B0
100
AcDbEntity
  8
LIVELLO_1
 62
     7
100
AcDbSpline
210
0.0
220
0.0
230
1.0
 70
     8
 71
     3
 72
    20
 73
    16
 74
     0
 42
0.00000001
 43
0.00000001
 40
0.0
 40
0.0
 40
0.0
 40
0.0
 40
1.0
 40
1.0
 40
1.0
 40
2.0
 40
2.0
 40
2.0
 40
3.0
 40
3.0
 40
3.0
 40
4.0
 40
4.0
 40
4.0
 40
5.0
 40
5.0
 40
5.0
 40
5.0
 10
2.2889214409722221
 20
43.788369411892354
 30
0.0
 10
2.2889214409722221
 20
43.788369411892354
 30
0.0
 10
2.2794474283854163
 20
43.48451199001736
 30
0.0
 10
2.2794474283854163
 20
43.48451199001736
 30
0.0
 10
2.2794474283854163
 20
42.656655544704854
 30
0.0
 10
1.6477891710069443
 20
41.986756727430553
 30
0.0
 10
0.8187269422743055
 20
41.986756727430553
 30
0.0
 10
0.8187269422743055
 20
41.986756727430553
 30
0.0
 10
-4.5485595703124995
 20
41.986756727430553
 30
0.0
 10
-4.5485595703124995
 20
41.986756727430553
 30
0.0
 10
-5.3740044487847216
 20
41.986756727430553
 30
0.0
 10
-6.0079020182291663
 20
42.656655544704854
 30
0.0
 10
-6.0079020182291663
 20
43.48451199001736
 30
0.0
 10
-6.0079020182291663
 20
43.48451199001736
 30
0.0
 10
-6.0079020182291663
 20
43.85055338541666
 30
0.0
 10
-6.0079020182291663
 20
43.85055338541666
 30
0.0
  0
SPLINE
  5
AF
100
AcDbEntity
  8
LIVELLO_1
 62
     7
100
AcDbSpline
210
0.0
220
0.0
230
1.0
 70
     8
 71
     3
 72
    20
 73
    16
 74
     0
 42
0.00000001
 43
0.00000001
 40
0.0
 40
0.0
 40
0.0
 40
0.0
 40
1.0
 40
1.0
 40
1.0
 40
2.0
 40
2.0
 40
2.0
 40
3.0
 40
3.0
 40
3.0
 40
4.0
 40
4.0
 40
4.0
 40
5.0
 40
5.0
 40
5.0
 40
5.0
 10
2.3259562174479163
 20
44.929557291666661
 30
0.0
 10
2.3259562174479163
 20
44.929557291666661
 30
0.0
 10
2.3164822048611109
 20
44.623288302951387
 30
0.0
 10
2.3164822048611109
 20
44.623288302951387
 30
0.0
 10
2.3164822048611109
 20
43.797843424479161
 30
0.0
 10
1.6477891710069443
 20
43.12553304036458
 30
0.0
 10
0.8187269422743055
 20
43.12553304036458
 30
0.0
 10
0.8187269422743055
 20
43.12553304036458
 30
0.0
 10
-4.5485595703124995
 20
43.12553304036458
 30
0.0
 10
-4.5485595703124995
 20
43.12553304036458
 30
0.0
 10
-5.3740044487847216
 20
43.12553304036458
 30
0.0
 10
-6.0451090494791657
 20
43.797843424479161
 30
0.0
 10
-6.0451090494791657
 20
44.623288302951387
 30
0.0
 10
-6.0451090494791657
 20
44.623288302951387
 30
0.0
 10
-6.0451090494791657
 20
44.991741265190967
 30
0.0
 10
-6.0451090494791657
 20
44.991741265190967
 30
0.0
  0
LINE
  5
AE
100
AcDbEntity
  8
LIVELLO_1
 62
     7
100
AcDbLine
 10
-12.3753
 20
20.208758
 30
0.0
 11
-7.213685
 21
17.395148
 31
0.0
  0
LINE
  5
AD
100
AcDbEntity
  8
LIVELLO_1
 62
     7
100
AcDbLine
 10
-7.213685
 20
20.208758
 30
0.0
 11
-12.3753
 21
17.395148
 31
0.0
  0
LINE
  5
AC
100
AcDbEntity
  8
LIVELLO_1
 62
     7
100
AcDbLine
 10
-12.3753
 20
20.208758
 30
0.0
 11
-17.541737
 21
17.395148
 31
0.0
  0
LINE
  5
AB
100
AcDbEntity
  8
LIVELLO_1
 62
     7
100
AcDbLine
 10
-17.541737
 20
20.208758
 30
0.0
 11
-12.3753
 21
17.395148
 31
0.0
  0
POLYLINE
  5
A5
100
AcDbEntity
  8
LIVELLO_1
 62
     7
100
AcDb2dPolyline
 66
     1
 10
0.0
 20
0.0
 30
0.0
 70
     1
  0
VERTEX
  5
A6
100
AcDbEntity
  8
LIVELLO_1
 62
     7
100
AcDbVertex
100
AcDb2dVertex
 10
-17.541737
 20
20.208758
 30
0.0
  0
VERTEX
  5
A7
100
AcDbEntity
  8
LIVELLO_1
 62
     7
100
AcDbVertex
100
AcDb2dVertex
 10
-12.3753
 20
20.208758
 30
0.0
  0
VERTEX
  5
A8
100
AcDbEntity
  8
LIVELLO_1
 62
     7
100
AcDbVertex
100
AcDb2dVertex
 10
-12.3753
 20
17.395148
 30
0.0
  0
VERTEX
  5
A9
100
AcDbEntity
  8
LIVELLO_1
 62
     7
100
AcDbVertex
100
AcDb2dVertex
 10
-17.541737
 20
17.395148
 30
0.0
  0
SEQEND
  5
AA
100
AcDbEntity
  8
LIVELLO_1
 62
     7
  0
POLYLINE
  5
9F
100
AcDbEntity
  8
LIVELLO_1
 62
     7
100
AcDb2dPolyline
 66
     1
 10
0.0
 20
0.0
 30
0.0
 70
     1
  0
VERTEX
  5
A0
100
AcDbEntity
  8
LIVELLO_1
 62
     7
100
AcDbVertex
100
AcDb2dVertex
 10
-12.3753
 20
20.208758
 30
0.0
  0
VERTEX
  5
A1
100
AcDbEntity
  8
LIVELLO_1
 62
     7
100
AcDbVertex
100
AcDb2dVertex
 10
-7.213685
 20
20.208758
 30
0.0
  0
VERTEX
  5
A2
100
AcDbEntity
  8
LIVELLO_1
 62
     7
100
AcDbVertex
100
AcDb2dVertex
 10
-7.213685
 20
17.395148
 30
0.0
  0
VERTEX
  5
A3
100
AcDbEntity
  8
LIVELLO_1
 62
     7
100
AcDbVertex
100
AcDb2dVertex
 10
-12.3753
 20
17.395148
 30
0.0
  0
SEQEND
  5
A4
100
AcDbEntity
  8
LIVELLO_1
 62
     7
  0
SPLINE
  5
9E
100
AcDbEntity
  8
LIVELLO_1
 62
     7
100
AcDbSpline
210
0.0
220
0.0
230
1.0
 70
     8
 71
     3
 72
    23
 73
    19
 74
     0
 42
0.00000001
 43
0.00000001
 40
0.0
 40
0.0
 40
0.0
 40
0.0
 40
1.0
 40
1.0
 40
1.0
 40
2.0
 40
2.0
 40
2.0
 40
3.0
 40
3.0
 40
3.0
 40
4.0
 40
4.0
 40
4.0
 40
5.0
 40
5.0
 40
5.0
 40
6.0
 40
6.0
 40
6.0
 40
6.0
 10
-7.2136854383680546
 20
17.395148383246525
 30
0.0
 10
-7.2136854383680546
 20
17.395148383246525
 30
0.0
 10
-7.2136854383680546
 20
16.780198838975693
 30
0.0
 10
-7.2136854383680546
 20
16.780198838975693
 30
0.0
 10
-7.2136854383680546
 20
15.952686903211804
 30
0.0
 10
-7.8847900390624996
 20
15.285027398003471
 30
0.0
 10
-8.712646484375
 20
15.285027398003471
 30
0.0
 10
-8.712646484375
 20
15.285027398003471
 30
0.0
 10
-16.042948404947914
 20
15.285027398003471
 30
0.0
 10
-16.042948404947914
 20
15.285027398003471
 30
0.0
 10
-16.870804850260416
 20
15.285027398003471
 30
0.0
 10
-17.541737196180556
 20
15.952686903211804
 30
0.0
 10
-17.541737196180556
 20
16.780198838975693
 30
0.0
 10
-17.541737196180556
 20
16.780198838975693
 30
0.0
 10
-17.541737196180556
 20
17.395148383246525
 30
0.0
 10
-17.541737196180556
 20
17.395148383246525
 30
0.0
 10
-17.541737196180556
 20
17.395148383246525
 30
0.0
 10
-7.2136854383680546
 20
17.395148383246525
 30
0.0
 10
-7.2136854383680546
 20
17.395148383246525
 30
0.0
  0
POLYLINE
  5
98
100
AcDbEntity
  8
LIVELLO_1
 62
     7
100
AcDb2dPolyline
 66
     1
 10
0.0
 20
0.0
 30
0.0
 70
     1
  0
VERTEX
  5
99
100
AcDbEntity
  8
LIVELLO_1
 62
     7
100
AcDbVertex
100
AcDb2dVertex
 10
-7.213685
 20
20.208758
 30
0.0
  0
VERTEX
  5
9A
100
AcDbEntity
  8
LIVELLO_1
 62
     7
100
AcDbVertex
100
AcDb2dVertex
 10
-17.541737
 20
20.208758
 30
0.0
  0
VERTEX
  5
9B
100
AcDbEntity
  8
LIVELLO_1
 62
     7
100
AcDbVertex
100
AcDb2dVertex
 10
-17.541737
 20
21.627448
 30
0.0
  0
VERTEX
  5
9C
100
AcDbEntity
  8
LIVELLO_1
 62
     7
100
AcDbVertex
100
AcDb2dVertex
 10
-7.213685
 20
21.627448
 30
0.0
  0
SEQEND
  5
9D
100
AcDbEntity
  8
LIVELLO_1
 62
     7
  0
LINE
  5
97
100
AcDbEntity
  8
LIVELLO_1
 62
     7
100
AcDbLine
 10
-9.014092
 20
25.519717
 30
0.0
 11
-9.014092
 21
23.172918
 31
0.0
  0
LINE
  5
96
100
AcDbEntity
  8
LIVELLO_1
 62
     7
100
AcDbLine
 10
-9.808359
 20
25.519717
 30
0.0
 11
-9.808359
 21
23.172918
 31
0.0
  0
LINE
  5
95
100
AcDbEntity
  8
LIVELLO_1
 62
     7
100
AcDbLine
 10
-14.948442
 20
25.519717
 30
0.0
 11
-14.948442
 21
23.172918
 31
0.0
  0
LINE
  5
94
100
AcDbEntity
  8
LIVELLO_1
 62
     7
100
AcDbLine
 10
-15.739091
 20
25.519717
 30
0.0
 11
-15.739091
 21
23.172918
 31
0.0
  0
POLYLINE
  5
8E
100
AcDbEntity
  8
LIVELLO_1
 62
     7
100
AcDb2dPolyline
 66
     1
 10
0.0
 20
0.0
 30
0.0
 70
     1
  0
VERTEX
  5
8F
100
AcDbEntity
  8
LIVELLO_1
 62
     7
100
AcDbVertex
100
AcDb2dVertex
 10
-7.669472
 20
21.627448
 30
0.0
  0
VERTEX
  5
90
100
AcDbEntity
  8
LIVELLO_1
 62
     7
100
AcDbVertex
100
AcDb2dVertex
 10
-17.086123
 20
21.627448
 30
0.0
  0
VERTEX
  5
91
100
AcDbEntity
  8
LIVELLO_1
 62
     7
100
AcDbVertex
100
AcDb2dVertex
 10
-17.086123
 20
23.172918
 30
0.0
  0
VERTEX
  5
92
100
AcDbEntity
  8
LIVELLO_1
 62
     7
100
AcDbVertex
100
AcDb2dVertex
 10
-7.669472
 20
23.172918
 30
0.0
  0
SEQEND
  5
93
100
AcDbEntity
  8
LIVELLO_1
 62
     7
  0
POLYLINE
  5
88
100
AcDbEntity
  8
LIVELLO_1
 62
     7
100
AcDb2dPolyline
 66
     1
 10
0.0
 20
0.0
 30
0.0
 70
     1
  0
VERTEX
  5
89
100
AcDbEntity
  8
LIVELLO_1
 62
     7
100
AcDbVertex
100
AcDb2dVertex
 10
-6.888296
 20
23.172918
 30
0.0
  0
VERTEX
  5
8A
100
AcDbEntity
  8
LIVELLO_1
 62
     7
100
AcDbVertex
100
AcDb2dVertex
 10
-17.868332
 20
23.172918
 30
0.0
  0
VERTEX
  5
8B
100
AcDbEntity
  8
LIVELLO_1
 62
     7
100
AcDbVertex
100
AcDb2dVertex
 10
-17.868332
 20
25.519717
 30
0.0
  0
VERTEX
  5
8C
100
AcDbEntity
  8
LIVELLO_1
 62
     7
100
AcDbVertex
100
AcDb2dVertex
 10
-6.888296
 20
25.519717
 30
0.0
  0
SEQEND
  5
8D
100
AcDbEntity
  8
LIVELLO_1
 62
     7
  0
LINE
  5
87
100
AcDbEntity
  8
LIVELLO_1
 62
     7
100
AcDbLine
 10
-1.049721
 20
27.273615
 30
0.0
 11
-1.049721
 21
25.519717
 31
0.0
  0
LINE
  5
86
100
AcDbEntity
  8
LIVELLO_1
 62
     7
100
AcDbLine
 10
-2.62034
 20
27.273615
 30
0.0
 11
-2.62034
 21
25.519717
 31
0.0
  0
LINE
  5
85
100
AcDbEntity
  8
LIVELLO_1
 62
     7
100
AcDbLine
 10
-6.540342
 20
27.273615
 30
0.0
 11
-6.540342
 21
25.519717
 31
0.0
  0
POLYLINE
  5
7F
100
AcDbEntity
  8
LIVELLO_1
 62
     7
100
AcDb2dPolyline
 66
     1
 10
0.0
 20
0.0
 30
0.0
 70
     1
  0
VERTEX
  5
80
100
AcDbEntity
  8
LIVELLO_1
 62
     7
100
AcDbVertex
100
AcDb2dVertex
 10
14.6122
 20
25.519717
 30
0.0
  0
VERTEX
  5
81
100
AcDbEntity
  8
LIVELLO_1
 62
     7
100
AcDbVertex
100
AcDb2dVertex
 10
-18.28226
 20
25.519717
 30
0.0
  0
VERTEX
  5
82
100
AcDbEntity
  8
LIVELLO_1
 62
     7
100
AcDbVertex
100
AcDb2dVertex
 10
-18.28226
 20
27.273615
 30
0.0
  0
VERTEX
  5
83
100
AcDbEntity
  8
LIVELLO_1
 62
     7
100
AcDbVertex
100
AcDb2dVertex
 10
14.6122
 20
27.273615
 30
0.0
  0
SEQEND
  5
84
100
AcDbEntity
  8
LIVELLO_1
 62
     7
  0
SPLINE
  5
7E
100
AcDbEntity
  8
LIVELLO_1
 62
     7
100
AcDbSpline
210
0.0
220
0.0
230
1.0
 70
     8
 71
     3
 72
    20
 73
    16
 74
     0
 42
0.00000001
 43
0.00000001
 40
0.0
 40
0.0
 40
0.0
 40
0.0
 40
1.0
 40
1.0
 40
1.0
 40
2.0
 40
2.0
 40
2.0
 40
3.0
 40
3.0
 40
3.0
 40
4.0
 40
4.0
 40
4.0
 40
5.0
 40
5.0
 40
5.0
 40
5.0
 10
17.352773708767359
 20
86.16046006944444
 30
0.0
 10
17.352773708767359
 20
86.16046006944444
 30
0.0
 10
7.9338826497395827
 20
86.16046006944444
 30
0.0
 10
7.9338826497395827
 20
86.16046006944444
 30
0.0
 10
7.9338826497395827
 20
86.16046006944444
 30
0.0
 10
7.9338826497395827
 20
78.499945746527771
 30
0.0
 10
7.9338826497395827
 20
78.499945746527771
 30
0.0
 10
7.9338826497395827
 20
79.325218370225684
 30
0.0
 10
8.6025756835937486
 20
79.997528754340266
 30
0.0
 10
9.4302598741319432
 20
79.997528754340266
 30
0.0
 10
9.4302598741319432
 20
79.997528754340266
 30
0.0
 10
17.208079698350694
 20
79.997528754340266
 30
0.0
 10
17.208079698350694
 20
79.997528754340266
 30
0.0
 10
17.208079698350694
 20
79.997528754340266
 30
0.0
 10
17.352773708767359
 20
86.16046006944444
 30
0.0
 10
17.352773708767359
 20
86.16046006944444
 30
0.0
  0
SPLINE
  5
7D
100
AcDbEntity
  8
LIVELLO_1
 62
     7
100
AcDbSpline
210
0.0
220
0.0
230
1.0
 70
     8
 71
     3
 72
    20
 73
    16
 74
     0
 42
0.00000001
 43
0.00000001
 40
0.0
 40
0.0
 40
0.0
 40
0.0
 40
1.0
 40
1.0
 40
1.0
 40
2.0
 40
2.0
 40
2.0
 40
3.0
 40
3.0
 40
3.0
 40
4.0
 40
4.0
 40
4.0
 40
5.0
 40
5.0
 40
5.0
 40
5.0
 10
-21.064691840277774
 20
86.16046006944444
 30
0.0
 10
-21.064691840277774
 20
86.16046006944444
 30
0.0
 10
-11.643216959635415
 20
86.16046006944444
 30
0.0
 10
-11.643216959635415
 20
86.16046006944444
 30
0.0
 10
-11.643216959635415
 20
86.16046006944444
 30
0.0
 10
-11.643216959635415
 20
78.499945746527771
 30
0.0
 10
-11.643216959635415
 20
78.499945746527771
 30
0.0
 10
-11.643216959635415
 20
79.325218370225684
 30
0.0
 10
-12.31432156032986
 20
79.997528754340266
 30
0.0
 10
-13.139766438802083
 20
79.997528754340266
 30
0.0
 10
-13.139766438802083
 20
79.997528754340266
 30
0.0
 10
-20.921031358506944
 20
79.997528754340266
 30
0.0
 10
-20.921031358506944
 20
79.997528754340266
 30
0.0
 10
-20.921031358506944
 20
79.997528754340266
 30
0.0
 10
-21.064691840277774
 20
86.16046006944444
 30
0.0
 10
-21.064691840277774
 20
86.16046006944444
 30
0.0
  0
SPLINE
  5
7C
100
AcDbEntity
  8
LIVELLO_1
 62
     7
100
AcDbSpline
210
0.0
220
0.0
230
1.0
 70
     8
 71
     3
 72
    23
 73
    19
 74
     0
 42
0.00000001
 43
0.00000001
 40
0.0
 40
0.0
 40
0.0
 40
0.0
 40
1.0
 40
1.0
 40
1.0
 40
2.0
 40
2.0
 40
2.0
 40
3.0
 40
3.0
 40
3.0
 40
4.0
 40
4.0
 40
4.0
 40
5.0
 40
5.0
 40
5.0
 40
6.0
 40
6.0
 40
6.0
 40
6.0
 10
1.0293945312499999
 20
86.16046006944444
 30
0.0
 10
1.0293945312499999
 20
86.16046006944444
 30
0.0
 10
1.0293945312499999
 20
81.488049316406247
 30
0.0
 10
1.0293945312499999
 20
81.488049316406247
 30
0.0
 10
1.0293945312499999
 20
80.660192871093741
 30
0.0
 10
0.3607014973958333
 20
79.99029405381944
 30
0.0
 10
-0.4671549479166666
 20
79.99029405381944
 30
0.0
 10
-0.4671549479166666
 20
79.99029405381944
 30
0.0
 10
-3.2518256293402774
 20
79.99029405381944
 30
0.0
 10
-3.2518256293402774
 20
79.99029405381944
 30
0.0
 10
-4.0808878580729164
 20
79.99029405381944
 30
0.0
 10
-4.7495808919270832
 20
80.660192871093741
 30
0.0
 10
-4.7495808919270832
 20
81.488049316406247
 30
0.0
 10
-4.7495808919270832
 20
81.488049316406247
 30
0.0
 10
-4.7495808919270832
 20
86.16046006944444
 30
0.0
 10
-4.7495808919270832
 20
86.16046006944444
 30
0.0
 10
-4.7495808919270832
 20
86.16046006944444
 30
0.0
 10
1.0293945312499999
 20
86.16046006944444
 30
0.0
 10
1.0293945312499999
 20
86.16046006944444
 30
0.0
  0
POLYLINE
  5
76
100
AcDbEntity
  8
LIVELLO_1
 62
     7
100
AcDb2dPolyline
 66
     1
 10
0.0
 20
0.0
 30
0.0
 70
     1
  0
VERTEX
  5
77
100
AcDbEntity
  8
LIVELLO_1
 62
     7
100
AcDbVertex
100
AcDb2dVertex
 10
23.867277
 20
86.16046
 30
0.0
  0
VERTEX
  5
78
100
AcDbEntity
  8
LIVELLO_1
 62
     7
100
AcDbVertex
100
AcDb2dVertex
 10
17.352774
 20
86.16046
 30
0.0
  0
VERTEX
  5
79
100
AcDbEntity
  8
LIVELLO_1
 62
     7
100
AcDbVertex
100
AcDb2dVertex
 10
17.20808
 20
79.990294
 30
0.0
  0
VERTEX
  5
7A
100
AcDbEntity
  8
LIVELLO_1
 62
     7
100
AcDbVertex
100
AcDb2dVertex
 10
23.867277
 20
79.990294
 30
0.0
  0
SEQEND
  5
7B
100
AcDbEntity
  8
LIVELLO_1
 62
     7
  0
POLYLINE
  5
70
100
AcDbEntity
  8
LIVELLO_1
 62
     7
100
AcDb2dPolyline
 66
     1
 10
0.0
 20
0.0
 30
0.0
 70
     1
  0
VERTEX
  5
71
100
AcDbEntity
  8
LIVELLO_1
 62
     7
100
AcDbVertex
100
AcDb2dVertex
 10
-27.581607
 20
86.16046
 30
0.0
  0
VERTEX
  5
72
100
AcDbEntity
  8
LIVELLO_1
 62
     7
100
AcDbVertex
100
AcDb2dVertex
 10
-21.064692
 20
86.16046
 30
0.0
  0
VERTEX
  5
73
100
AcDbEntity
  8
LIVELLO_1
 62
     7
100
AcDbVertex
100
AcDb2dVertex
 10
-20.921031
 20
79.990294
 30
0.0
  0
VERTEX
  5
74
100
AcDbEntity
  8
LIVELLO_1
 62
     7
100
AcDbVertex
100
AcDb2dVertex
 10
-27.581607
 20
79.990294
 30
0.0
  0
SEQEND
  5
75
100
AcDbEntity
  8
LIVELLO_1
 62
     7
  0
SPLINE
  5
6F
100
AcDbEntity
  8
LIVELLO_1
 62
     7
100
AcDbSpline
210
0.0
220
0.0
230
1.0
 70
     8
 71
     3
 72
    41
 73
    37
 74
     0
 42
0.00000001
 43
0.00000001
 40
0.0
 40
0.0
 40
0.0
 40
0.0
 40
1.0
 40
1.0
 40
1.0
 40
2.0
 40
2.0
 40
2.0
 40
3.0
 40
3.0
 40
3.0
 40
4.0
 40
4.0
 40
4.0
 40
5.0
 40
5.0
 40
5.0
 40
6.0
 40
6.0
 40
6.0
 40
7.0
 40
7.0
 40
7.0
 40
8.0
 40
8.0
 40
8.0
 40
9.0
 40
9.0
 40
9.0
 40
10.0
 40
10.0
 40
10.0
 40
11.0
 40
11.0
 40
11.0
 40
12.0
 40
12.0
 40
12.0
 40
12.0
 10
3.3618964301215275
 20
81.806203884548609
 30
0.0
 10
3.3618964301215275
 20
81.806203884548609
 30
0.0
 10
1.8655192057291665
 20
28.771198187934026
 30
0.0
 10
1.8655192057291665
 20
28.771198187934026
 30
0.0
 10
1.8655192057291665
 20
27.943341742621524
 30
0.0
 10
1.196826171875
 20
27.273615180121524
 30
0.0
 10
0.3689697265625
 20
27.273615180121524
 30
0.0
 10
0.3689697265625
 20
27.273615180121524
 30
0.0
 10
-4.0881225585937493
 20
27.273615180121524
 30
0.0
 10
-4.0881225585937493
 20
27.273615180121524
 30
0.0
 10
-4.9158067491319439
 20
27.273615180121524
 30
0.0
 10
-5.5844997829861107
 20
27.943341742621524
 30
0.0
 10
-5.5844997829861107
 20
28.771198187934026
 30
0.0
 10
-5.5844997829861107
 20
28.771198187934026
 30
0.0
 10
-7.0869059244791659
 20
81.806203884548609
 30
0.0
 10
-7.0869059244791659
 20
81.806203884548609
 30
0.0
 10
-7.0869059244791659
 20
81.806203884548609
 30
0.0
 10
-4.7495808919270832
 20
81.976047092013886
 30
0.0
 10
-4.7495808919270832
 20
81.976047092013886
 30
0.0
 10
-4.7495808919270832
 20
81.976047092013886
 30
0.0
 10
-4.7495808919270832
 20
81.488049316406247
 30
0.0
 10
-4.7495808919270832
 20
81.488049316406247
 30
0.0
 10
-4.7495808919270832
 20
80.660192871093741
 30
0.0
 10
-4.0808878580729164
 20
79.99029405381944
 30
0.0
 10
-3.2518256293402774
 20
79.99029405381944
 30
0.0
 10
-3.2518256293402774
 20
79.99029405381944
 30
0.0
 10
-0.4671549479166666
 20
79.99029405381944
 30
0.0
 10
-0.4671549479166666
 20
79.99029405381944
 30
0.0
 10
0.3607014973958333
 20
79.99029405381944
 30
0.0
 10
1.0293945312499999
 20
80.660192871093741
 30
0.0
 10
1.0293945312499999
 20
81.488049316406247
 30
0.0
 10
1.0293945312499999
 20
81.488049316406247
 30
0.0
 10
1.0293945312499999
 20
81.976047092013886
 30
0.0
 10
1.0293945312499999
 20
81.976047092013886
 30
0.0
 10
1.0293945312499999
 20
81.976047092013886
 30
0.0
 10
3.3618964301215275
 20
81.806203884548609
 30
0.0
 10
3.3618964301215275
 20
81.806203884548609
 30
0.0
  0
LINE
  5
6E
100
AcDbEntity
  8
LIVELLO_1
 62
     7
100
AcDbLine
 10
11.169516
 20
31.476976
 30
0.0
 11
10.273619
 21
31.476976
 31
0.0
  0
POLYLINE
  5
69
100
AcDbEntity
  8
LIVELLO_1
 62
     7
100
AcDb2dPolyline
 66
     1
 10
0.0
 20
0.0
 30
0.0
  0
VERTEX
  5
6A
100
AcDbEntity
  8
LIVELLO_1
 62
     7
100
AcDbVertex
100
AcDb2dVertex
 10
10.711491
 20
79.990294
 30
0.0
  0
VERTEX
  5
6B
100
AcDbEntity
  8
LIVELLO_1
 62
     7
100
AcDbVertex
100
AcDb2dVertex
 10
10.273619
 20
31.476976
 30
0.0
  0
VERTEX
  5
6C
100
AcDbEntity
  8
LIVELLO_1
 62
     7
100
AcDbVertex
100
AcDb2dVertex
 10
9.339309
 20
30.185065
 30
0.0
  0
SEQEND
  5
6D
100
AcDbEntity
  8
LIVELLO_1
 62
     7
  0
POLYLINE
  5
62
100
AcDbEntity
  8
LIVELLO_1
 62
     7
100
AcDb2dPolyline
 66
     1
 10
0.0
 20
0.0
 30
0.0
  0
VERTEX
  5
63
100
AcDbEntity
  8
LIVELLO_1
 62
     7
100
AcDbVertex
100
AcDb2dVertex
 10
12.377711
 20
79.990294
 30
0.0
  0
VERTEX
  5
64
100
AcDbEntity
  8
LIVELLO_1
 62
     7
100
AcDbVertex
100
AcDb2dVertex
 10
11.169516
 20
31.476976
 30
0.0
  0
VERTEX
  5
65
100
AcDbEntity
  8
LIVELLO_1
 62
     7
100
AcDbVertex
100
AcDb2dVertex
 10
10.265179
 20
30.185065
 30
0.0
  0
VERTEX
  5
66
100
AcDbEntity
  8
LIVELLO_1
 62
     7
100
AcDbVertex
100
AcDb2dVertex
 10
9.339309
 20
30.185065
 30
0.0
  0
VERTEX
  5
67
100
AcDbEntity
  8
LIVELLO_1
 62
     7
100
AcDbVertex
100
AcDb2dVertex
 10
9.736529
 20
79.990294
 30
0.0
  0
SEQEND
  5
68
100
AcDbEntity
  8
LIVELLO_1
 62
     7
  0
LINE
  5
61
100
AcDbEntity
  8
LIVELLO_1
 62
     7
100
AcDbLine
 10
-14.881434
 20
31.476976
 30
0.0
 11
-13.985537
 21
31.476976
 31
0.0
  0
POLYLINE
  5
5C
100
AcDbEntity
  8
LIVELLO_1
 62
     7
100
AcDb2dPolyline
 66
     1
 10
0.0
 20
0.0
 30
0.0
  0
VERTEX
  5
5D
100
AcDbEntity
  8
LIVELLO_1
 62
     7
100
AcDbVertex
100
AcDb2dVertex
 10
-14.423237
 20
79.990294
 30
0.0
  0
VERTEX
  5
5E
100
AcDbEntity
  8
LIVELLO_1
 62
     7
100
AcDbVertex
100
AcDb2dVertex
 10
-13.985537
 20
31.476976
 30
0.0
  0
VERTEX
  5
5F
100
AcDbEntity
  8
LIVELLO_1
 62
     7
100
AcDbVertex
100
AcDb2dVertex
 10
-13.053639
 20
30.185065
 30
0.0
  0
SEQEND
  5
60
100
AcDbEntity
  8
LIVELLO_1
 62
     7
  0
POLYLINE
  5
55
100
AcDbEntity
  8
LIVELLO_1
 62
     7
100
AcDb2dPolyline
 66
     1
 10
0.0
 20
0.0
 30
0.0
  0
VERTEX
  5
56
100
AcDbEntity
  8
LIVELLO_1
 62
     7
100
AcDbVertex
100
AcDb2dVertex
 10
-16.089629
 20
79.990294
 30
0.0
  0
VERTEX
  5
57
100
AcDbEntity
  8
LIVELLO_1
 62
     7
100
AcDbVertex
100
AcDb2dVertex
 10
-14.881434
 20
31.476976
 30
0.0
  0
VERTEX
  5
58
100
AcDbEntity
  8
LIVELLO_1
 62
     7
100
AcDbVertex
100
AcDb2dVertex
 10
-13.975891
 20
30.185065
 30
0.0
  0
VERTEX
  5
59
100
AcDbEntity
  8
LIVELLO_1
 62
     7
100
AcDbVertex
100
AcDb2dVertex
 10
-13.053639
 20
30.185065
 30
0.0
  0
VERTEX
  5
5A
100
AcDbEntity
  8
LIVELLO_1
 62
     7
100
AcDbVertex
100
AcDb2dVertex
 10
-13.446035
 20
79.990294
 30
0.0
  0
SEQEND
  5
5B
100
AcDbEntity
  8
LIVELLO_1
 62
     7
  0
POLYLINE
  5
50
100
AcDbEntity
  8
LIVELLO_1
 62
     7
100
AcDb2dPolyline
 66
     1
 10
0.0
 20
0.0
 30
0.0
  0
VERTEX
  5
51
100
AcDbEntity
  8
LIVELLO_1
 62
     7
100
AcDbVertex
100
AcDb2dVertex
 10
21.758534
 20
86.16046
 30
0.0
  0
VERTEX
  5
52
100
AcDbEntity
  8
LIVELLO_1
 62
     7
100
AcDbVertex
100
AcDb2dVertex
 10
15.809715
 20
79.990294
 30
0.0
  0
VERTEX
  5
53
100
AcDbEntity
  8
LIVELLO_1
 62
     7
100
AcDbVertex
100
AcDb2dVertex
 10
14.680413
 20
28.771198
 30
0.0
  0
SEQEND
  5
54
100
AcDbEntity
  8
LIVELLO_1
 62
     7
  0
POLYLINE
  5
4B
100
AcDbEntity
  8
LIVELLO_1
 62
     7
100
AcDb2dPolyline
 66
     1
 10
0.0
 20
0.0
 30
0.0
  0
VERTEX
  5
4C
100
AcDbEntity
  8
LIVELLO_1
 62
     7
100
AcDbVertex
100
AcDb2dVertex
 10
-25.467868
 20
86.16046
 30
0.0
  0
VERTEX
  5
4D
100
AcDbEntity
  8
LIVELLO_1
 62
     7
100
AcDbVertex
100
AcDb2dVertex
 10
-19.526284
 20
79.990294
 30
0.0
  0
VERTEX
  5
4E
100
AcDbEntity
  8
LIVELLO_1
 62
     7
100
AcDbVertex
100
AcDb2dVertex
 10
-18.392331
 20
28.771198
 30
0.0
  0
SEQEND
  5
4F
100
AcDbEntity
  8
LIVELLO_1
 62
     7
  0
POLYLINE
  5
46
100
AcDbEntity
  8
LIVELLO_1
 62
     7
100
AcDb2dPolyline
 66
     1
 10
0.0
 20
0.0
 30
0.0
 70
     1
  0
VERTEX
  5
47
100
AcDbEntity
  8
LIVELLO_1
 62
     7
100
AcDbVertex
100
AcDb2dVertex
 10
17.352774
 20
86.16046
 30
0.0
  0
VERTEX
  5
48
100
AcDbEntity
  8
LIVELLO_1
 62
     7
100
AcDbVertex
100
AcDb2dVertex
 10
16.074127
 20
31.634762
 30
0.0
  0
VERTEX
  5
49
100
AcDbEntity
  8
LIVELLO_1
 62
     7
100
AcDbVertex
100
AcDb2dVertex
 10
14.755861
 20
30.37644
 30
0.0
  0
SEQEND
  5
4A
100
AcDbEntity
  8
LIVELLO_1
 62
     7
  0
POLYLINE
  5
41
100
AcDbEntity
  8
LIVELLO_1
 62
     7
100
AcDb2dPolyline
 66
     1
 10
0.0
 20
0.0
 30
0.0
 70
     1
  0
VERTEX
  5
42
100
AcDbEntity
  8
LIVELLO_1
 62
     7
100
AcDbVertex
100
AcDb2dVertex
 10
-21.064692
 20
86.16046
 30
0.0
  0
VERTEX
  5
43
100
AcDbEntity
  8
LIVELLO_1
 62
     7
100
AcDbVertex
100
AcDb2dVertex
 10
-18.471224
 20
30.37644
 30
0.0
  0
VERTEX
  5
44
100
AcDbEntity
  8
LIVELLO_1
 62
     7
100
AcDbVertex
100
AcDb2dVertex
 10
-19.785872
 20
31.634762
 30
0.0
  0
SEQEND
  5
45
100
AcDbEntity
  8
LIVELLO_1
 62
     7
  0
SPLINE
  5
40
100
AcDbEntity
  8
LIVELLO_1
 62
     7
100
AcDbSpline
210
0.0
220
0.0
230
1.0
 70
     8
 71
     3
 72
    23
 73
    19
 74
     0
 42
0.00000001
 43
0.00000001
 40
0.0
 40
0.0
 40
0.0
 40
0.0
 40
1.0
 40
1.0
 40
1.0
 40
2.0
 40
2.0
 40
2.0
 40
3.0
 40
3.0
 40
3.0
 40
4.0
 40
4.0
 40
4.0
 40
5.0
 40
5.0
 40
5.0
 40
6.0
 40
6.0
 40
6.0
 40
6.0
 10
-16.89578179253472
 20
27.273615180121524
 30
0.0
 10
-17.723638237847222
 20
27.273615180121524
 30
0.0
 10
-18.392331271701387
 20
27.943341742621524
 30
0.0
 10
-18.392331271701387
 20
28.771198187934026
 30
0.0
 10
-18.392331271701387
 20
28.771198187934026
 30
0.0
 10
-21.064691840277774
 20
86.16046006944444
 30
0.0
 10
-21.064691840277774
 20
86.16046006944444
 30
0.0
 10
-21.064691840277774
 20
86.16046006944444
 30
0.0
 10
17.352773708767359
 20
86.16046006944444
 30
0.0
 10
17.352773708767359
 20
86.16046006944444
 30
0.0
 10
17.352773708767359
 20
86.16046006944444
 30
0.0
 10
14.680413140190971
 20
28.771198187934026
 30
0.0
 10
14.680413140190971
 20
28.771198187934026
 30
0.0
 10
14.680413140190971
 20
27.943341742621524
 30
0.0
 10
14.011720106336805
 20
27.273615180121524
 30
0.0
 10
13.18403591579861
 20
27.273615180121524
 30
0.0
 10
13.18403591579861
 20
27.273615180121524
 30
0.0
 10
-16.89578179253472
 20
27.273615180121524
 30
0.0
 10
-16.89578179253472
 20
27.273615180121524
 30
0.0
  0
SPLINE
  5
3F
100
AcDbEntity
  8
LIVELLO_1
 62
     7
100
AcDbSpline
210
0.0
220
0.0
230
1.0
 70
     8
 71
     3
 72
    29
 73
    25
 74
     0
 42
0.00000001
 43
0.00000001
 40
0.0
 40
0.0
 40
0.0
 40
0.0
 40
1.0
 40
1.0
 40
1.0
 40
2.0
 40
2.0
 40
2.0
 40
3.0
 40
3.0
 40
3.0
 40
4.0
 40
4.0
 40
4.0
 40
5.0
 40
5.0
 40
5.0
 40
6.0
 40
6.0
 40
6.0
 40
7.0
 40
7.0
 40
7.0
 40
8.0
 40
8.0
 40
8.0
 40
8.0
 10
-29.007531738281248
 20
93.856803385416654
 30
0.0
 10
-29.007531738281248
 20
93.856803385416654
 30
0.0
 10
25.298025173611109
 20
93.856803385416654
 30
0.0
 10
25.298025173611109
 20
93.856803385416654
 30
0.0
 10
25.709369574652776
 20
93.856803385416654
 30
0.0
 10
26.045610894097219
 20
93.52194010416666
 30
0.0
 10
26.045610894097219
 20
93.108011881510407
 30
0.0
 10
26.045610894097219
 20
93.108011881510407
 30
0.0
 10
26.045610894097219
 20
86.906840006510407
 30
0.0
 10
26.045610894097219
 20
86.906840006510407
 30
0.0
 10
26.045610894097219
 20
86.492911783854154
 30
0.0
 10
25.709369574652776
 20
86.16046006944444
 30
0.0
 10
25.298025173611109
 20
86.16046006944444
 30
0.0
 10
25.298025173611109
 20
86.16046006944444
 30
0.0
 10
-29.007531738281248
 20
86.16046006944444
 30
0.0
 10
-29.007531738281248
 20
86.16046006944444
 30
0.0
 10
-29.421287706163191
 20
86.16046006944444
 30
0.0
 10
-29.757529025607635
 20
86.492911783854154
 30
0.0
 10
-29.757529025607635
 20
86.906840006510407
 30
0.0
 10
-29.757529025607635
 20
86.906840006510407
 30
0.0
 10
-29.757529025607635
 20
93.108011881510407
 30
0.0
 10
-29.757529025607635
 20
93.108011881510407
 30
0.0
 10
-29.757529025607635
 20
93.52194010416666
 30
0.0
 10
-29.421287706163191
 20
93.856803385416654
 30
0.0
 10
-29.007531738281248
 20
93.856803385416654
 30
0.0
  0
MTEXT
  5
3E
100
AcDbEntity
  8
LIVELLO_1
 62
     7
100
AcDbMText
 10
-36.44222
 20
116.500746
 30
0.0
 40
11.811701
 41
0.0
 71
     1
 72
     2
  1
\fCourier|b0|i0;\H11.8117;\C7;\U+0033\U+0030
  7
STD
210
0.0
220
0.0
230
1.0
 73
     1
 44
1.0
  0
MTEXT
  5
3D
100
AcDbEntity
  8
LIVELLO_1
 62
     7
100
AcDbMText
 10
-18.074349
 20
115.047395
 30
0.0
 40
9.449361
 41
0.0
 71
     1
 72
     2
  1
\fSymbol|b0|i0;\H9.4494;\C7;\U+00B0
  7
STD
210
0.0
220
0.0
230
1.0
 73
     1
 44
1.0
  0
SPLINE
  5
3C
100
AcDbEntity
  8
LIVELLO_1
 62
     7
100
AcDbSpline
210
0.0
220
0.0
230
1.0
 70
     8
 71
     3
 72
    11
 73
     7
 74
     0
 42
0.00000001
 43
0.00000001
 40
0.0
 40
0.0
 40
0.0
 40
0.0
 40
1.0
 40
1.0
 40
1.0
 40
2.0
 40
2.0
 40
2.0
 40
2.0
 10
-12.253343370225693
 20
110.4554456922743
 30
0.0
 10
-9.0140923394097214
 20
110.86455078124999
 30
0.0
 10
-5.7507256401909714
 20
111.07504611545139
 30
0.0
 10
-2.4001980251736108
 20
111.07504611545139
 30
0.0
 10
15.327574327256944
 20
111.07504611545139
 30
0.0
 10
31.712103949652775
 20
105.29262559678818
 30
0.0
 10
44.997081163194437
 20
95.502870008680546
 30
0.0
  0
SPLINE
  5
3B
100
AcDbEntity
  8
LIVELLO_1
 62
     7
100
AcDbSpline
210
0.0
220
0.0
230
1.0
 70
     8
 71
     3
 72
     8
 73
     4
 74
     0
 42
0.00000001
 43
0.00000001
 40
0.0
 40
0.0
 40
0.0
 40
0.0
 40
1.0
 40
1.0
 40
1.0
 40
1.0
 10
-42.021035427517354
 20
100.46708034939235
 30
0.0
 10
-40.012544759114583
 20
101.61774224175346
 30
0.0
 10
-37.976665581597217
 20
102.68968370225693
 30
0.0
 10
-35.864133029513887
 20
103.66809082031249
 30
0.0
  0
MTEXT
  5
3A
100
AcDbEntity
  8
LIVELLO_1
 62
     7
100
AcDbMText
 10
44.043479
 20
92.688935
 30
0.0
 40
11.811701
 41
0.0
 71
     1
 72
     2
  1
\fCourier|b0|i0;\H11.8117;\C7;\U+0039\U+0033
  7
STD
210
0.0
220
0.0
230
1.0
 73
     1
 44
1.0
  0
MTEXT
  5
39
100
AcDbEntity
  8
LIVELLO_1
 62
     7
100
AcDbMText
 10
62.420996
 20
91.233344
 30
0.0
 40
9.449361
 41
0.0
 71
     1
 72
     2
  1
\fSymbol|b0|i0;\H9.4494;\C7;\U+00B0
  7
STD
210
0.0
220
0.0
230
1.0
 73
     1
 44
1.0
  0
SPLINE
  5
38
100
AcDbEntity
  8
LIVELLO_1
 62
     7
100
AcDbSpline
210
0.0
220
0.0
230
1.0
 70
     8
 71
     3
 72
    11
 73
     7
 74
     0
 42
0.00000001
 43
0.00000001
 40
0.0
 40
0.0
 40
0.0
 40
0.0
 40
1.0
 40
1.0
 40
1.0
 40
2.0
 40
2.0
 40
2.0
 40
2.0
 10
-8.5858669704861104
 20
-110.10611300998264
 30
0.0
 10
-6.5355183919270825
 20
-110.2666544596354
 30
0.0
 10
-4.4924045138888884
 20
-110.35037027994791
 30
0.0
 10
-2.4001980251736108
 20
-110.35037027994791
 30
0.0
 10
15.327574327256944
 20
-110.35037027994791
 30
0.0
 10
31.714515516493051
 20
-104.57018907335069
 30
0.0
 10
44.999492730034717
 20
-94.78060574001735
 30
0.0
  0
SPLINE
  5
37
100
AcDbEntity
  8
LIVELLO_1
 62
     7
100
AcDbSpline
210
0.0
220
0.0
230
1.0
 70
     8
 71
     3
 72
     8
 73
     4
 74
     0
 42
0.00000001
 43
0.00000001
 40
0.0
 40
0.0
 40
0.0
 40
0.0
 40
1.0
 40
1.0
 40
1.0
 40
1.0
 10
-42.021035427517354
 20
-99.742232259114573
 30
0.0
 10
-39.830815972222219
 20
-101.00072564019096
 30
0.0
 10
-37.603389485677077
 20
-102.15621066623262
 30
0.0
 10
-35.293452962239577
 20
-103.20903184678818
 30
0.0
  0
MTEXT
  5
36
100
AcDbEntity
  8
LIVELLO_1
 62
     7
100
AcDbMText
 10
-32.737537
 20
-101.515232
 30
0.0
 40
11.811701
 41
0.0
 71
     1
 72
     2
  1
\fCourier|b0|i0;\H11.8117;\C7;\U+0033\U+0030
  7
STD
210
0.0
220
0.0
230
1.0
 73
     1
 44
1.0
  0
MTEXT
  5
35
100
AcDbEntity
  8
LIVELLO_1
 62
     7
100
AcDbMText
 10
-15.064714
 20
-102.968411
 30
0.0
 40
9.449361
 41
0.0
 71
     1
 72
     2
  1
\fSymbol|b0|i0;\H9.4494;\C7;\U+00B0
  7
STD
210
0.0
220
0.0
230
1.0
 73
     1
 44
1.0
  0
MTEXT
  5
34
100
AcDbEntity
  8
LIVELLO_1
 62
     7
100
AcDbMText
 10
44.043479
 20
-78.138881
 30
0.0
 40
11.811701
 41
0.0
 71
     1
 72
     2
  1
\fCourier|b0|i0;\H11.8117;\C7;\U+0039\U+0033
  7
STD
210
0.0
220
0.0
230
1.0
 73
     1
 44
1.0
  0
MTEXT
  5
33
100
AcDbEntity
  8
LIVELLO_1
 62
     7
100
AcDbMText
 10
62.420996
 20
-79.594471
 30
0.0
 40
9.449361
 41
0.0
 71
     1
 72
     2
  1
\fSymbol|b0|i0;\H9.4494;\C7;\U+00B0
  7
STD
210
0.0
220
0.0
230
1.0
 73
     1
 44
1.0
  0
MTEXT
  5
32
100
AcDbEntity
  8
LIVELLO_1
 62
     7
100
AcDbMText
 10
20.601326
 20
8.500842
 30
0.0
 40
12.034993
 41
0.0
 71
     1
 72
     2
  1
\fCourier|b0|i0;\H12.0350;\C7;\U+0032\U+0035\U+0032
  7
STD
210
0.0
220
0.0
230
1.0
 73
     1
 44
1.0
  0
LINE
  5
31
100
AcDbEntity
  8
LIVELLO_1
 62
     7
100
AcDbLine
 10
30.008504
 20
-93.182426
 30
0.0
 11
38.407303
 21
-93.182426
 31
0.0
  0
LINE
  5
30
100
AcDbEntity
  8
LIVELLO_1
 62
     7
100
AcDbLine
 10
34.204975
 20
-8.395181
 30
0.0
 11
34.204975
 21
-93.182426
 31
0.0
  0
LINE
  5
2F
100
AcDbEntity
  8
LIVELLO_1
 62
     7
100
AcDbLine
 10
34.204975
 20
93.907102
 30
0.0
 11
34.204975
 21
11.263567
 31
0.0
  0
LINE
  5
2E
100
AcDbEntity
  8
LIVELLO_1
 62
     7
100
AcDbLine
 10
30.008504
 20
93.907102
 30
0.0
 11
38.407303
 21
93.907102
 31
0.0
  0
SPLINE
  5
2D
100
AcDbEntity
  8
LIVELLO_1
 62
     7
100
AcDbSpline
210
0.0
220
0.0
230
1.0
 70
     8
 71
     3
 72
    38
 73
    34
 74
     0
 42
0.00000001
 43
0.00000001
 40
0.0
 40
0.0
 40
0.0
 40
0.0
 40
1.0
 40
1.0
 40
1.0
 40
2.0
 40
2.0
 40
2.0
 40
3.0
 40
3.0
 40
3.0
 40
4.0
 40
4.0
 40
4.0
 40
5.0
 40
5.0
 40
5.0
 40
6.0
 40
6.0
 40
6.0
 40
7.0
 40
7.0
 40
7.0
 40
8.0
 40
8.0
 40
8.0
 40
9.0
 40
9.0
 40
9.0
 40
10.0
 40
10.0
 40
10.0
 40
11.0
 40
11.0
 40
11.0
 40
11.0
 10
-16.844449869791664
 20
6.6988159179687496
 30
0.0
 10
-10.937489149305554
 20
8.2752916124131932
 30
0.0
 10
-9.9997341579861097
 20
11.816160753038194
 30
0.0
 10
-11.079943847656249
 20
14.849567328559026
 30
0.0
 10
-11.079943847656249
 20
14.849567328559026
 30
0.0
 10
-13.191270616319443
 20
14.921569824218748
 30
0.0
 10
-13.191270616319443
 20
14.921569824218748
 30
0.0
 10
-12.363414171006943
 20
12.591307237413194
 30
0.0
 10
-13.941267903645832
 20
9.4500691731770825
 30
0.0
 10
-17.326418728298609
 20
8.5123141818576382
 30
0.0
 10
-22.760884602864582
 20
7.000261773003472
 30
0.0
 10
-23.441463216145831
 20
10.158036295572916
 30
0.0
 10
-24.193872070312498
 20
14.567414008246526
 30
0.0
 10
-25.171245659722221
 20
19.84013264973958
 30
0.0
 10
-25.465456814236109
 20
20.335537380642361
 30
0.0
 10
-28.025335015190969
 20
23.254222276475691
 30
0.0
 10
-29.664166937934024
 20
25.115607367621525
 30
0.0
 10
-31.675069173177082
 20
25.861815049913194
 30
0.0
 10
-33.733685980902777
 20
26.725500488281249
 30
0.0
 10
-33.733685980902777
 20
26.725500488281249
 30
0.0
 10
-33.73609754774305
 20
24.366643608940969
 30
0.0
 10
-33.73609754774305
 20
24.366643608940969
 30
0.0
 10
-31.368800184461804
 20
23.493311903211804
 30
0.0
 10
-30.994318305121524
 20
23.172918023003469
 30
0.0
 10
-29.205969238281249
 20
21.141689724392361
 30
0.0
 10
-26.574433051215276
 20
18.144112141927081
 30
0.0
 10
-26.912913682725691
 20
15.952686903211804
 30
0.0
 10
-25.465456814236109
 20
11.272869194878471
 30
0.0
 10
-24.622097439236107
 20
7.0167982313368054
 30
0.0
 10
-22.099426269531246
 20
4.3637301974826386
 30
0.0
 10
-16.751087782118056
 20
6.7249986436631941
 30
0.0
 10
-16.751087782118056
 20
6.7249986436631941
 30
0.0
 10
-16.844449869791664
 20
6.6988159179687496
 30
0.0
 10
-16.844449869791664
 20
6.6988159179687496
 30
0.0
  0
SPLINE
  5
2C
100
AcDbEntity
  8
LIVELLO_1
 62
     7
100
AcDbSpline
210
0.0
220
0.0
230
1.0
 70
     8
 71
     3
 72
    38
 73
    34
 74
     0
 42
0.00000001
 43
0.00000001
 40
0.0
 40
0.0
 40
0.0
 40
0.0
 40
1.0
 40
1.0
 40
1.0
 40
2.0
 40
2.0
 40
2.0
 40
3.0
 40
3.0
 40
3.0
 40
4.0
 40
4.0
 40
4.0
 40
5.0
 40
5.0
 40
5.0
 40
6.0
 40
6.0
 40
6.0
 40
7.0
 40
7.0
 40
7.0
 40
8.0
 40
8.0
 40
8.0
 40
9.0
 40
9.0
 40
9.0
 40
10.0
 40
10.0
 40
10.0
 40
11.0
 40
11.0
 40
11.0
 40
11.0
 10
-14.759478081597221
 20
-4.9235582139756939
 30
0.0
 10
-9.3573961046006939
 20
-6.7752970377604163
 30
0.0
 10
-9.0165039062499996
 20
-10.660675726996526
 30
0.0
 10
-10.528384060329859
 20
-13.952808973524304
 30
0.0
 10
-10.528384060329859
 20
-13.952808973524304
 30
0.0
 10
-12.559612358940971
 20
-13.983814832899304
 30
0.0
 10
-12.559612358940971
 20
-13.983814832899304
 30
0.0
 10
-11.400509982638887
 20
-11.455114746093749
 30
0.0
 10
-12.417157660590277
 20
-7.9907267252604157
 30
0.0
 10
-15.507063802083332
 20
-6.8951863606770827
 30
0.0
 10
-20.465417480468748
 20
-5.1247517903645825
 30
0.0
 10
-21.613667805989582
 20
-8.5602010091145821
 30
0.0
 10
-23.029946560329858
 20
-13.356807454427083
 30
0.0
 10
-24.794352213541664
 20
-19.098748101128471
 30
0.0
 10
-25.152125379774304
 20
-19.632393391927081
 30
0.0
 10
-28.062369791666665
 20
-22.763985188802081
 30
0.0
 10
-29.921343315972219
 20
-24.763863118489581
 30
0.0
 10
-31.964457194010414
 20
-25.534186469184025
 30
0.0
 10
-34.068549262152771
 20
-26.431633843315971
 30
0.0
 10
-34.068549262152771
 20
-26.431633843315971
 30
0.0
 10
-33.699062771267357
 20
-23.857113986545137
 30
0.0
 10
-33.699062771267357
 20
-23.857113986545137
 30
0.0
 10
-31.298175726996526
 20
-22.955187988281249
 30
0.0
 10
-30.889070638020829
 20
-22.613090006510415
 30
0.0
 10
-28.858014594184024
 20
-20.431311035156249
 30
0.0
 10
-25.872150336371526
 20
-17.21600341796875
 30
0.0
 10
-25.849412706163193
 20
-14.814082845052083
 30
0.0
 10
-23.726200358072916
 20
-9.7370456271701382
 30
0.0
 10
-22.251354980468747
 20
-5.103047688802083
 30
0.0
 10
-19.418625217013886
 20
-2.2584323459201388
 30
0.0
 10
-14.673350694444443
 20
-4.9549085828993054
 30
0.0
 10
-14.673350694444443
 20
-4.9549085828993054
 30
0.0
 10
-14.759478081597221
 20
-4.9235582139756939
 30
0.0
 10
-14.759478081597221
 20
-4.9235582139756939
 30
0.0
  0
ENDBLK
  5
168
100
AcDbEntity
  8
LIVELLO_1
100
AcDbBlockEnd
  0
ENDSEC
  0
SECTION
  2
ENTITIES
  0
INSERT
  5
2A
100
AcDbEntity
  8
LIVELLO_1
 62
     7
100
AcDbBlockReference
  2
AI9-BLK1
 10
84.023467
 20
120.629502
 30
0.0
  0
ENDSEC
  0
SECTION
  2
OBJECTS
  0
DICTIONARY
  5
19
100
AcDbDictionary
280
     0
281
     1
  3
ACAD_GROUP
350
1A
  3
ACAD_MLINESTYLE
350
1B
  3
ACAD_LAYOUT
350
1E
  3
ACAD_PLOTSETTINGS
350
22
  3
ACAD_PLOTSTYLENAME
350
1F
  3
ACAD_WIPEOUT_VARS
350
23
  0
DICTIONARY
  5
1A
102
{ACAD_REACTORS
330
19
102
}
100
AcDbDictionary
280
     0
281
     1
  0
DICTIONARY
  5
1B
102
{ACAD_REACTORS
330
19
102
}
100
AcDbDictionary
280
     0
281
     1
  3
Standard
350
1C
  0
MLINESTYLE
  5
1C
102
{ACAD_REACTORS
330
1B
102
}
100
AcDbMlineStyle
  2
Standard
 70
     0
  3

 62
     0
 51
90.0
 52
90.0
 71
     2
 49
0.5
 62
   256
  6
ByLayer
 49
-0.5
 62
   256
  6
ByLayer
  0
ACDBDICTIONARYWDFLT
  5
1F
102
{ACAD_REACTORS
330
19
102
}
100
AcDbDictionary
281
     1
  3
Normal
350
1D
100
AcDbDictionaryWithDefault
340
1D
  0
ACDBPLACEHOLDER
  5
1D
102
{ACAD_REACTORS
330
1F
102
}
  0
LAYOUT
  5
20
102
{ACAD_REACTORS
330
1E
102
}
100
AcDbPlotSettings
  1

  2

  4

  6

 40
0.0
 41
0.0
 42
0.0
 43
0.0
 44
0.0
 45
0.0
 46
0.0
 47
0.0
 48
0.0
 49
0.0
140
0.0
141
0.0
142
1.0
143
1.0
 70
  1024
 72
     0
 73
     0
 74
     0
  7

 75
     0
147
1.0
148
0.0
149
0.0
100
AcDbLayout
  1
Model
 70
     0
 71
     0
 10
0.0
 20
0.0
 11
0.0
 21
0.0
 12
0.0
 22
0.0
 32
0.0
 14
0.0
 24
0.0
 34
0.0
 15
0.0
 25
0.0
 35
0.0
146
0.0
 13
0.0
 23
0.0
 33
0.0
 16
0.0
 26
0.0
 36
0.0
 17
0.0
 27
0.0
 37
0.0
 76
     0
330
A
331
0
345
0
346
0
  0
LAYOUT
  5
21
102
{ACAD_REACTORS
330
1E
102
}
100
AcDbPlotSettings
  1

  2

  4

  6

 40
0.0
 41
0.0
 42
0.0
 43
0.0
 44
0.0
 45
0.0
 46
0.0
 47
0.0
 48
0.0
 49
0.0
140
0.0
141
0.0
142
1.0
143
1.0
 70
     0
 72
     0
 73
     0
 74
     0
  7

 75
     0
147
1.0
148
0.0
149
0.0
100
AcDbLayout
  1
Layout1
 70
     0
 71
     0
 10
0.0
 20
0.0
 11
0.0
 21
0.0
 12
0.0
 22
0.0
 32
0.0
 14
0.0
 24
0.0
 34
0.0
 15
0.0
 25
0.0
 35
0.0
146
0.0
 13
0.0
 23
0.0
 33
0.0
 16
0.0
 26
0.0
 36
0.0
 17
0.0
 27
0.0
 37
0.0
 76
     0
330
B
331
0
345
0
346
0
  0
DICTIONARY
  5
1E
102
{ACAD_REACTORS
330
19
102
}
100
AcDbDictionary
280
     0
281
     1
  3
Layout1
350
21
  3
Model
350
20
  0
DICTIONARY
  5
22
102
{ACAD_REACTORS
330
19
102
}
100
AcDbDictionary
280
     0
281
     1
  0
WIPEOUTVARIABLES
  5
23
100
AcDbWipeoutVariables
 70
     1
  0
ENDSEC
  0
EOF
