  0
SECTION
  2
HEADER
  9
$ACADVER
  1
AC1015
  9
$ACADMAINTVER
 70
     6
  9
$DWGCODEPAGE
  3
ANSI_932
  9
$INSBASE
 10
0.0
 20
0.0
 30
0.0
  9
$EXTMIN
 10
36.140085
 20
46.600773
 30
1.000000E+20
  9
$EXTMAX
 10
162.661217
 20
276.91867
 30
-1.000000E+20
  9
$LIMMIN
 10
36.140085
 20
46.600773
  9
$LIMMAX
 10
162.661217
 20
276.91867
  9
$ORTHOMODE
 70
     0
  9
$REGENMODE
 70
     1
  9
$FILLMODE
 70
     1
  9
$QTEXTMODE
 70
     0
  9
$MIRRTEXT
 70
     1
  9
$LTSCALE
 40
1.0
  9
$ATTMODE
 70
     1
  9
$TEXTSIZE
 40
0.2
  9
$TRACEWID
 40
0.05
  9
$TEXTSTYLE
  7
Standard
  9
$CLAYER
  8
0
  9
$CELTYPE
  6
Continuous
  9
$CECOLOR
 62
   256
  9
$CELTSCALE
 40
1.0
  9
$DISPSILH
 70
     0
  9
$DIMSCALE
 40
1.0
  9
$DIMASZ
 40
0.18
  9
$DIMEXO
 40
0.0625
  9
$DIMDLI
 40
0.38
  9
$DIMRND
 40
0.0
  9
$DIMDLE
 40
0.0
  9
$DIMEXE
 40
0.18
  9
$DIMTP
 40
0.0
  9
$DIMTM
 40
0.0
  9
$DIMTXT
 40
0.18
  9
$DIMCEN
 40
0.09
  9
$DIMTSZ
 40
0.0
  9
$DIMTOL
 70
     0
  9
$DIMLIM
 70
     0
  9
$DIMTIH
 70
     1
  9
$DIMTOH
 70
     1
  9
$DIMSE1
 70
     0
  9
$DIMSE2
 70
     0
  9
$DIMTAD
 70
     0
  9
$DIMZIN
 70
     0
  9
$DIMBLK
  1

  9
$DIMASO
 70
     1
  9
$DIMSHO
 70
     1
  9
$DIMPOST
  1

  9
$DIMAPOST
  1

  9
$DIMALT
 70
     0
  9
$DIMALTD
 70
     2
  9
$DIMALTF
 40
25.4
  9
$DIMLFAC
 40
1.0
  9
$DIMTOFL
 70
     0
  9
$DIMTVP
 40
0.0
  9
$DIMTIX
 70
     0
  9
$DIMSOXD
 70
     0
  9
$DIMSAH
 70
     0
  9
$DIMBLK1
  1

  9
$DIMBLK2
  1

  9
$DIMSTYLE
  2
Standard
  9
$DIMCLRD
 70
     0
  9
$DIMCLRE
 70
     0
  9
$DIMCLRT
 70
     0
  9
$DIMTFAC
 40
1.0
  9
$DIMGAP
 40
0.09
  9
$DIMJUST
 70
     0
  9
$DIMSD1
 70
     0
  9
$DIMSD2
 70
     0
  9
$DIMTOLJ
 70
     1
  9
$DIMTZIN
 70
     0
  9
$DIMALTZ
 70
     0
  9
$DIMALTTZ
 70
     0
  9
$DIMUPT
 70
     0
  9
$DIMDEC
 70
     4
  9
$DIMTDEC
 70
     4
  9
$DIMALTU
 70
     2
  9
$DIMALTTD
 70
     2
  9
$DIMTXSTY
  7
Standard
  9
$DIMAUNIT
 70
     0
  9
$DIMADEC
 70
     0
  9
$DIMALTRND
 40
0.0
  9
$DIMAZIN
 70
     0
  9
$DIMDSEP
 70
     0
  9
$DIMATFIT
 70
     3
  9
$DIMFRAC
 70
     0
  9
$DIMLDRBLK
  1

  9
$DIMLUNIT
 70
     2
  9
$DIMLWD
 70
     0
  9
$DIMLWE
 70
     0
  9
$DIMTMOVE
 70
     0
  9
$LUNITS
 70
     2
  9
$LUPREC
 70
     4
  9
$SKETCHINC
 40
0.1
  9
$FILLETRAD
 40
0.0
  9
$AUNITS
 70
     0
  9
$AUPREC
 70
     0
  9
$MENU
  1
acad
  9
$ELEVATION
 40
0.0
  9
$PELEVATION
 40
0.0
  9
$THICKNESS
 40
0.0
  9
$LIMCHECK
 70
     0
  9
$CHAMFERA
 40
0.0
  9
$CHAMFERB
 40
0.0
  9
$CHAMFERC
 40
0.0
  9
$CHAMFERD
 40
0.0
  9
$SKPOLY
 70
     0
  9
$TDCREATE
 40
0.000000000
  9
$TDUCREATE
 40
0.000000000
  9
$TDUPDATE
 40
0.000000000
  9
$TDUUPDATE
 40
0.000000000
  9
$TDINDWG
 40
0.0000000000
  9
$TDUSRTIMER
 40
0.0000000000
  9
$USRTIMER
 70
     1
  9
$ANGBASE
 50
0.0
  9
$ANGDIR
 70
     0
  9
$PDMODE
 70
     0
  9
$PDSIZE
 40
0.0
  9
$PLINEWID
 40
0.0
  9
$SPLFRAME
 70
     0
  9
$SPLINETYPE
 70
     6
  9
$SPLINESEGS
 70
     8
  9
$HANDSEED
  5
C9
  9
$SURFTAB1
 70
     6
  9
$SURFTAB2
 70
     6
  9
$SURFTYPE
 70
     6
  9
$SURFU
 70
     6
  9
$SURFV
 70
     6
  9
$UCSBASE
  2

  9
$UCSNAME
  2

  9
$UCSORG
 10
0.0
 20
0.0
 30
0.0
  9
$UCSXDIR
 10
1.0
 20
0.0
 30
0.0
  9
$UCSYDIR
 10
0.0
 20
1.0
 30
0.0
  9
$UCSORTHOREF
  2

  9
$UCSORTHOVIEW
 70
     0
  9
$UCSORGTOP
 10
0.0
 20
0.0
 30
0.0
  9
$UCSORGBOTTOM
 10
0.0
 20
0.0
 30
0.0
  9
$UCSORGLEFT
 10
0.0
 20
0.0
 30
0.0
  9
$UCSORGRIGHT
 10
0.0
 20
0.0
 30
0.0
  9
$UCSORGFRONT
 10
0.0
 20
0.0
 30
0.0
  9
$UCSORGBACK
 10
0.0
 20
0.0
 30
0.0
  9
$PUCSBASE
  2

  9
$PUCSNAME
  2

  9
$PUCSORG
 10
0.0
 20
0.0
 30
0.0
  9
$PUCSXDIR
 10
1.0
 20
0.0
 30
0.0
  9
$PUCSYDIR
 10
0.0
 20
1.0
 30
0.0
  9
$PUCSORTHOREF
  2

  9
$PUCSORTHOVIEW
 70
     0
  9
$PUCSORGTOP
 10
0.0
 20
0.0
 30
0.0
  9
$PUCSORGBOTTOM
 10
0.0
 20
0.0
 30
0.0
  9
$PUCSORGLEFT
 10
0.0
 20
0.0
 30
0.0
  9
$PUCSORGRIGHT
 10
0.0
 20
0.0
 30
0.0
  9
$PUCSORGFRONT
 10
0.0
 20
0.0
 30
0.0
  9
$PUCSORGBACK
 10
0.0
 20
0.0
 30
0.0
  9
$USERI1
 70
     0
  9
$USERI2
 70
     0
  9
$USERI3
 70
     0
  9
$USERI4
 70
     0
  9
$USERI5
 70
     0
  9
$USERR1
 40
0.0
  9
$USERR2
 40
0.0
  9
$USERR3
 40
0.0
  9
$USERR4
 40
0.0
  9
$USERR5
 40
0.0
  9
$WORLDVIEW
 70
     1
  9
$SHADEDGE
 70
     3
  9
$SHADEDIF
 70
    70
  9
$TILEMODE
 70
     1
  9
$MAXACTVP
 70
    16
  9
$PINSBASE
 10
0.0
 20
0.0
 30
0.0
  9
$PLIMCHECK
 70
     0
  9
$PEXTMIN
 10
1.000000E+20
 20
1.000000E+20
 30
1.000000E+20
  9
$PEXTMAX
 10
-1.000000E+20
 20
-1.000000E+20
 30
-1.000000E+20
  9
$PLIMMIN
 10
0.0
 20
0.0
  9
$PLIMMAX
 10
12.0
 20
9.0
  9
$UNITMODE
 70
     0
  9
$VISRETAIN
 70
     0
  9
$PLINEGEN
 70
     1
  9
$PSLTSCALE
 70
     0
  9
$TREEDEPTH
 70
  3020
  9
$CMLSTYLE
  2
Standard
  9
$CMLJUST
 70
     0
  9
$CMLSCALE
 40
1.0
  9
$PROXYGRAPHICS
 70
     0
  9
$MEASUREMENT
 70
     1
  9
$CELWEIGHT
370
     0
  9
$ENDCAPS
280
     0
  9
$JOINSTYLE
280
     0
  9
$LWDISPLAY
290
     0
  9
$INSUNITS
 70
     0
  9
$HYPERLINKBASE
  1

  9
$STYLESHEET
  1

  9
$XEDIT
290
     1
  9
$CEPSNTYPE
380
     0
  9
$PSTYLEMODE
290
     1
  9
$FINGERPRINTGUID
  2

  9
$VERSIONGUID
  2

  9
$EXTNAMES
290
     1
  9
$PSVPSCALE
 40
0.0
  0
ENDSEC
  0
SECTION
  2
CLASSES
  0
CLASS
  1
LWPOLYLINE
  2
AcDbPolyline
  3
AutoCAD 2000
 90
    32768
280
     0
281
     1
  0
CLASS
  1
IMAGE
  2
AcDbRasterImage
  3
ISM
 90
    32895
280
     0
281
     1
  0
CLASS
  1
OLE2FRAME
  2
AcDbOle2Frame
  3
AutoCAD 2000
 90
    32768
280
     0
281
     1
  0
CLASS
  1
HATCH
  2
AcDbHatch
  3
AutoCAD 2000
 90
    32768
280
     0
281
     1
  0
CLASS
  1
DICTIONARYVAR
  2
AcDbDictionaryVar
  3
AutoCAD 2000
 90
    32768
280
     0
281
     0
  0
CLASS
  1
RASTERVARIABLES
  2
AcDbRasterVariables
  3
ISM
 90
    32768
280
     0
281
     0
  0
CLASS
  1
IMAGEDEF
  2
AcDbRasterImageDef
  3
ISM
 90
    32768
280
     0
281
     0
  0
CLASS
  1
IMAGEDEF_REACTOR
  2
AcDbRasterImageDefReactor
  3
ISM
 90
    32769
280
     0
281
     0
  0
CLASS
  1
IDBUFFER
  2
AcDbIdBuffer
  3
AutoCAD 2000
 90
    32768
280
     0
281
     0
  0
CLASS
  1
SPATIAL_FILTER
  2
AcDbSpatialFilter
  3
AutoCAD 2000
 90
    32768
280
     0
281
     0
  0
CLASS
  1
XRECORD
  2
AcDbXrecord
  3
AutoCAD 2000
 90
    32768
280
     0
281
     0
  0
CLASS
  1
SORTENTSTABLE
  2
AcDbSortentsTable
  3
AutoCAD 2000
 90
    32768
280
     0
281
     0
  0
CLASS
  1
LAYER_INDEX
  2
AcDbLayerIndex
  3
AutoCAD 2000
 90
    32768
280
     0
281
     0
  0
CLASS
  1
SPATIAL_INDEX
  2
AcDbSpatialIndex
  3
AutoCAD 2000
 90
    32768
280
     0
281
     0
  0
CLASS
  1
OBJECT_PTR
  2
CAseDLPNTableRecord
  3
"ASE-LPNTableRecord"
 90
    32769
280
     0
281
     0
  0
CLASS
  1
LAYOUT
  2
AcDbLayout
  3
AutoCAD 2000
 90
        0
280
     0
281
     0
  0
CLASS
  1
PLOTSETTINGS
  2
AcDbPlotSettings
  3
AutoCAD 2000
 90
    32768
280
     0
281
     0
  0
CLASS
  1
ACDBDICTIONARYWDFLT
  2
AcDbDictionaryWithDefault
  3
AutoCAD 2000
 90
        0
280
     0
281
     0
  0
CLASS
  1
ACDBPLACEHOLDER
  2
AcDbPlaceHolder
  3
AutoCAD 2000
 90
        0
280
     0
281
     0
  0
CLASS
  1
VBA_PROJECT
  2
AcDbVbaProject
  3
acadvba
 90
    32768
280
     0
281
     0
  0
CLASS
  1
WIPEOUT
  2
AcDbWipeout
  3
WipeOut|AutoCAD Express Tool|expresstools@autodesk.com
 90
    32895
280
     0
281
     1
  0
CLASS
  1
WIPEOUTVARIABLES
  2
AcDbWipeoutVariables
  3
WipeOut|AutoCAD Express Tool|expresstools@autodesk.com
 90
        0
280
     0
281
     0
  0
CLASS
  1
RTEXT
  2
RText
  3
RText|AutoCAD Express Tool|expresstools@autodesk.com
 90
    32768
280
     0
281
     1
  0
CLASS
  1
ARCALIGNEDTEXT
  2
AcDbArcAlignedText
  3
ATEXT|AutoCAD Express Tool|expresstools@autodesk.com
 90
    32768
280
     0
281
     1
  0
ENDSEC
  0
SECTION
  2
TABLES
  0
TABLE
  2
VPORT
  5
7
100
AcDbSymbolTable
 70
     1
  0
VPORT
  5
15
100
AcDbSymbolTableRecord
100
AcDbViewportTableRecord
  2
*ACTIVE
 70
     0
 10
0.0
 20
0.0
 11
1.0
 21
1.0
 12
6.591288
 22
4.579184
 13
0.0
 23
0.0
 14
1.0
 24
1.0
 15
0.0
 25
0.0
 16
0.0
 26
0.0
 36
1.0
 17
0.0
 27
0.0
 37
0.0
 40
9.158369
 41
0.688564
 42
50.0
 43
0.0
 44
0.0
 50
0.0
 51
0.0
 71
     0
 72
   100
 73
     1
 74
     1
 75
     0
 76
     0
 77
     0
 78
     0
281
     0
 65
     0
110
0.0
120
0.0
130
0.0
111
1.0
121
0.0
131
0.0
112
0.0
122
1.0
132
0.0
345
0
346
0
 79
     0
146
0.0
  0
ENDTAB
  0
TABLE
  2
LTYPE
  5
4
100
AcDbSymbolTable
 70
     3
  0
LTYPE
  5
11
100
AcDbSymbolTableRecord
100
AcDbLinetypeTableRecord
  2
ByBlock
 70
    64
  3

 72
    65
 73
     0
 40
0.0
  0
LTYPE
  5
12
100
AcDbSymbolTableRecord
100
AcDbLinetypeTableRecord
  2
ByLayer
 70
    64
  3

 72
    65
 73
     0
 40
0.0
  0
LTYPE
  5
13
100
AcDbSymbolTableRecord
100
AcDbLinetypeTableRecord
  2
Continuous
 70
    64
  3
Solid line
 72
    65
 73
     0
 40
0.0
  0
ENDTAB
  0
TABLE
  2
LAYER
  5
2
100
AcDbSymbolTable
 70
     2
  0
LAYER
  5
14
100
AcDbSymbolTableRecord
100
AcDbLayerTableRecord
  2
0
 70
     0
 62
     7
  6
Continuous
290
     1
370
    -3
390
1D
  0
LAYER
  5
28
100
AcDbSymbolTableRecord
100
AcDbLayerTableRecord
  2
LIVELLO_1
 70
     0
 62
   160
  6
Continuous
290
     1
370
    -3
390
1D
  0
ENDTAB
  0
TABLE
  2
STYLE
  5
3
100
AcDbSymbolTable
 70
     5
  0
STYLE
  5
17
100
AcDbSymbolTableRecord
100
AcDbTextStyleTableRecord
  2
Standard
 70
     0
 40
0.0
 41
1.0
 50
0.0
 71
     0
 42
0.0
  3
txt
  4

  0
STYLE
  5
24
100
AcDbSymbolTableRecord
100
AcDbTextStyleTableRecord
  2
STD
 70
     0
 40
0.0
 41
1.0
 50
0.0
 71
     0
 42
0.0
  3
txt
  4

  0
STYLE
  5
25
100
AcDbSymbolTableRecord
100
AcDbTextStyleTableRecord
  2
TATESTD
 70
     4
 40
0.0
 41
1.0
 50
0.0
 71
     0
 42
0.0
  3
txt
  4

  0
STYLE
  5
26
100
AcDbSymbolTableRecord
100
AcDbTextStyleTableRecord
  2
KANJISTD
 70
     0
 40
0.0
 41
1.0
 50
0.0
 71
     0
 42
0.0
  3
txt
  4
extfont
  0
STYLE
  5
27
100
AcDbSymbolTableRecord
100
AcDbTextStyleTableRecord
  2
KANJITATE
 70
     4
 40
0.0
 41
1.0
 50
0.0
 71
     0
 42
0.0
  3
txt
  4
extfont
  0
ENDTAB
  0
TABLE
  2
VIEW
  5
5
100
AcDbSymbolTable
 70
     0
  0
ENDTAB
  0
TABLE
  2
UCS
  5
6
100
AcDbSymbolTable
 70
     0
  0
ENDTAB
  0
TABLE
  2
APPID
  5
8
100
AcDbSymbolTable
 70
     1
  0
APPID
  5
16
100
AcDbSymbolTableRecord
100
AcDbRegAppTableRecord
  2
ACAD
 70
     0
  0
ENDTAB
  0
TABLE
  2
DIMSTYLE
  5
9
100
AcDbSymbolTable
 70
     1
100
AcDbDimStyleTable
 71
     0
  0
DIMSTYLE
105
18
100
AcDbSymbolTableRecord
100
AcDbDimStyleTableRecord
  2
Standard
 70
     0
  3

  4

 40
1.0
 41
0.18
 42
0.0625
 43
0.38
 44
0.18
 45
0.0
 46
0.0
 47
0.0
 48
0.0
 71
     0
 72
     0
 73
     1
 74
     1
 75
     0
 76
     0
 77
     0
 78
     0
 79
     0
140
0.18
141
0.09
142
0.0
143
25.4
144
1.0
145
0.0
146
1.0
147
0.09
148
0.0
170
     0
171
     2
172
     0
173
     0
174
     0
175
     0
176
     0
177
     0
178
     0
179
     0
271
     4
272
     4
273
     2
274
     2
275
     0
276
     0
277
     2
278
    46
279
     0
280
     0
281
     0
282
     0
283
     1
284
     0
285
     0
286
     0
288
     0
340
17
341
0
342
0
343
0
344
0
371
    -2
372
    -2
  0
ENDTAB
  0
TABLE
  2
BLOCK_RECORD
  5
1
100
AcDbSymbolTable
 70
     5
  0
BLOCK_RECORD
  5
A
100
AcDbSymbolTableRecord
100
AcDbBlockTableRecord
  2
*MODEL_SPACE
340
20
  0
BLOCK_RECORD
  5
B
100
AcDbSymbolTableRecord
100
AcDbBlockTableRecord
  2
*PAPER_SPACE
340
21
  0
BLOCK_RECORD
  5
29
100
AcDbSymbolTableRecord
100
AcDbBlockTableRecord
  2
AI9-BLK1
340
0
102
{BLKREFS
331
2A
102
}
  0
BLOCK_RECORD
  5
76
100
AcDbSymbolTableRecord
100
AcDbBlockTableRecord
  2
AI9-BLK2
340
0
102
{BLKREFS
331
77
102
}
  0
BLOCK_RECORD
  5
7B
100
AcDbSymbolTableRecord
100
AcDbBlockTableRecord
  2
AI9-BLK3
340
0
102
{BLKREFS
331
7C
102
}
  0
BLOCK_RECORD
  5
7E
100
AcDbSymbolTableRecord
100
AcDbBlockTableRecord
  2
AI9-BLK4
340
0
102
{BLKREFS
331
7F
102
}
  0
BLOCK_RECORD
  5
84
100
AcDbSymbolTableRecord
100
AcDbBlockTableRecord
  2
AI9-BLK5
340
0
102
{BLKREFS
331
85
102
}
  0
ENDTAB
  0
ENDSEC
  0
SECTION
  2
BLOCKS
  0
BLOCK
  5
D
100
AcDbEntity
  8
0
100
AcDbBlockBegin
  2
*MODEL_SPACE
 70
     0
 10
0.0
 20
0.0
 30
0.0
  3
*MODEL_SPACE
  1

  0
ENDBLK
  5
E
100
AcDbEntity
  8
0
100
AcDbBlockEnd
  0
BLOCK
  5
F
100
AcDbEntity
 67
     1
  8
0
100
AcDbBlockBegin
  2
*PAPER_SPACE
 70
     0
 10
0.0
 20
0.0
 30
0.0
  3
*PAPER_SPACE
  1

  0
ENDBLK
  5
10
100
AcDbEntity
 67
     1
  8
0
100
AcDbBlockEnd
  0
BLOCK
  5
2B
100
AcDbEntity
  8
LIVELLO_1
 62
     7
100
AcDbBlockBegin
  2
AI9-BLK1
 70
     0
 10
0.0
 20
0.0
 30
0.0
  3
AI9-BLK1
  1

  0
SPLINE
  5
C7
100
AcDbEntity
  8
LIVELLO_1
 62
     7
100
AcDbSpline
210
0.0
220
0.0
230
1.0
 70
     8
 71
     3
 72
     8
 73
     4
 74
     0
 42
0.00000001
 43
0.00000001
 40
0.0
 40
0.0
 40
0.0
 40
0.0
 40
1.0
 40
1.0
 40
1.0
 40
1.0
 10
-12.173244900173611
 20
24.199298095703124
 30
0.0
 10
-21.615562608506941
 20
28.236260986328123
 30
0.0
 10
-29.624376085069443
 20
34.756276448567704
 30
0.0
 10
-35.173563639322914
 20
42.864653184678815
 30
0.0
  0
SPLINE
  5
C6
100
AcDbEntity
  8
LIVELLO_1
 62
     7
100
AcDbSpline
210
0.0
220
0.0
230
1.0
 70
     8
 71
     3
 72
     8
 73
     4
 74
     0
 42
0.00000001
 43
0.00000001
 40
0.0
 40
0.0
 40
0.0
 40
0.0
 40
1.0
 40
1.0
 40
1.0
 40
1.0
 10
55.545274522569443
 20
42.875505235460068
 30
0.0
 10
49.997637261284716
 20
34.767128499348956
 30
0.0
 10
41.952994791666661
 20
28.249007839626735
 30
0.0
 10
32.496207682291661
 20
24.206532796223957
 30
0.0
  0
LINE
  5
C5
100
AcDbEntity
  8
LIVELLO_1
 62
     7
100
AcDbLine
 10
46.6273
 20
102.529917
 30
0.0
 11
46.6273
 21
113.726305
 31
0.0
  0
LINE
  5
C4
100
AcDbEntity
  8
LIVELLO_1
 62
     7
100
AcDbLine
 10
-26.361526
 20
102.524578
 30
0.0
 11
-26.361526
 21
113.722516
 31
0.0
  0
MTEXT
  5
C3
100
AcDbEntity
  8
LIVELLO_1
 62
     7
100
AcDbMText
 10
-6.649551
 20
114.082156
 30
0.0
 40
8.238229
 41
0.0
 71
     1
 72
     2
  1
\fCourier|b0|i0;\H8.2382;\W1.07;\C7;\U+00F8\U+0020\U+0031\U+0035\U+0032
  7
STD
210
0.0
220
0.0
230
1.0
 73
     1
 44
1.0
  0
LINE
  5
C2
100
AcDbEntity
  8
LIVELLO_1
 62
     7
100
AcDbLine
 10
41.794176
 20
50.192371
 30
0.0
 11
58.3234
 21
41.728977
 31
0.0
  0
LINE
  5
C1
100
AcDbEntity
  8
LIVELLO_1
 62
     7
100
AcDbLine
 10
-21.528574
 20
50.192371
 30
0.0
 11
-37.820431
 21
41.728977
 31
0.0
  0
ELLIPSE
  5
C0
100
AcDbEntity
  8
LIVELLO_1
 62
     7
100
AcDbEllipse
 10
10.132973
 20
69.196379
 30
0.0
 11
-33.665559217664928
 21
0.0
 31
0.0
210
0.0
220
0.0
230
1.0
 40
0.934243
 41
0.0
 42
6.2831853071795862
  0
ELLIPSE
  5
BF
100
AcDbEntity
  8
LIVELLO_1
 62
     7
100
AcDbEllipse
 10
10.133834
 20
69.196379
 30
0.0
 11
-24.928624810112844
 21
0.0
 31
0.0
210
0.0
220
0.0
230
1.0
 40
0.934304
 41
0.0
 42
6.2831853071795862
  0
SPLINE
  5
BE
100
AcDbEntity
  8
LIVELLO_1
 62
     7
100
AcDbSpline
210
0.0
220
0.0
230
1.0
 70
     8
 71
     3
 72
    17
 73
    13
 74
     0
 42
0.00000001
 43
0.00000001
 40
0.0
 40
0.0
 40
0.0
 40
0.0
 40
1.0
 40
1.0
 40
1.0
 40
2.0
 40
2.0
 40
2.0
 40
3.0
 40
3.0
 40
3.0
 40
4.0
 40
4.0
 40
4.0
 40
4.0
 10
30.409857855902775
 20
58.979948594835065
 30
0.0
 10
30.769181315104163
 20
58.786161973741315
 30
0.0
 10
30.889415147569441
 20
58.356903076171868
 30
0.0
 10
30.684087456597219
 20
58.023590087890618
 30
0.0
 10
30.476692708333331
 20
57.686659749348955
 30
0.0
 10
30.018495008680553
 20
57.574349636501729
 30
0.0
 10
29.658827039930554
 20
57.766585964626728
 30
0.0
 10
29.301226128472219
 20
57.960200330946172
 30
0.0
 10
29.179269748263888
 20
58.387736680772562
 30
0.0
 10
29.383563910590276
 20
58.722772216796869
 30
0.0
 10
29.593025716145831
 20
59.057807752821176
 30
0.0
 10
30.051912434895829
 20
59.171840413411452
 30
0.0
 10
30.409857855902775
 20
58.979948594835065
 30
0.0
  0
SPLINE
  5
BD
100
AcDbEntity
  8
LIVELLO_1
 62
     7
100
AcDbSpline
210
0.0
220
0.0
230
1.0
 70
     8
 71
     3
 72
    17
 73
    13
 74
     0
 42
0.00000001
 43
0.00000001
 40
0.0
 40
0.0
 40
0.0
 40
0.0
 40
1.0
 40
1.0
 40
1.0
 40
2.0
 40
2.0
 40
2.0
 40
3.0
 40
3.0
 40
3.0
 40
4.0
 40
4.0
 40
4.0
 40
4.0
 10
-9.536368815104165
 20
57.804482014973956
 30
0.0
 10
-9.8939697265624993
 20
57.610695393880206
 30
0.0
 10
-10.350444878472221
 20
57.724900309244788
 30
0.0
 10
-10.55783962673611
 20
58.059763590494789
 30
0.0
 10
-10.765062120225693
 20
58.394799126519089
 30
0.0
 10
-10.642761230468748
 20
58.822335476345479
 30
0.0
 10
-10.283265516493055
 20
59.016122097439229
 30
0.0
 10
-9.9256646050347221
 20
59.209908718532979
 30
0.0
 10
-9.466605631510415
 20
59.093981255425341
 30
0.0
 10
-9.2619669596354157
 20
58.758945719401034
 30
0.0
 10
-9.0545722113715268
 20
58.423910183376734
 30
0.0
 10
-9.177734375
 20
57.996373833550344
 30
0.0
 10
-9.536368815104165
 20
57.804482014973956
 30
0.0
  0
ELLIPSE
  5
BC
100
AcDbEntity
  8
LIVELLO_1
 62
     7
100
AcDbEllipse
 10
10.135299
 20
90.783003
 30
0.0
 11
-0.7498250325520832
 21
0.0
 31
0.0
210
0.0
220
0.0
230
1.0
 40
0.934759
 41
0.0
 42
6.2831853071795862
  0
SPLINE
  5
BB
100
AcDbEntity
  8
LIVELLO_1
 62
     7
100
AcDbSpline
210
0.0
220
0.0
230
1.0
 70
     8
 71
     3
 72
    53
 73
    49
 74
     0
 42
0.00000001
 43
0.00000001
 40
0.0
 40
0.0
 40
0.0
 40
0.0
 40
1.0
 40
1.0
 40
1.0
 40
2.0
 40
2.0
 40
2.0
 40
3.0
 40
3.0
 40
3.0
 40
4.0
 40
4.0
 40
4.0
 40
5.0
 40
5.0
 40
5.0
 40
6.0
 40
6.0
 40
6.0
 40
7.0
 40
7.0
 40
7.0
 40
8.0
 40
8.0
 40
8.0
 40
9.0
 40
9.0
 40
9.0
 40
10.0
 40
10.0
 40
10.0
 40
11.0
 40
11.0
 40
11.0
 40
12.0
 40
12.0
 40
12.0
 40
13.0
 40
13.0
 40
13.0
 40
14.0
 40
14.0
 40
14.0
 40
15.0
 40
15.0
 40
15.0
 40
16.0
 40
16.0
 40
16.0
 40
16.0
 10
-4.6398546006944441
 20
69.196379258897565
 30
0.0
 10
-4.6398546006944441
 20
75.861260986328119
 30
0.0
 10
0.4130669487847222
 20
81.421472846137149
 30
0.0
 10
7.1361707899305546
 20
82.716311984592011
 30
0.0
 10
7.1361707899305546
 20
82.716311984592011
 30
0.0
 10
7.1361707899305546
 20
92.318826633029502
 30
0.0
 10
7.1361707899305546
 20
92.318826633029502
 30
0.0
 10
8.1166449652777768
 20
92.436648898654511
 30
0.0
 10
9.1191677517361107
 20
92.494526502821174
 30
0.0
 10
10.134092881944444
 20
92.494526502821174
 30
0.0
 10
11.146606445312498
 20
92.494526502821174
 30
0.0
 10
12.149129231770832
 20
92.436648898654511
 30
0.0
 10
13.129603407118054
 20
92.318826633029502
 30
0.0
 10
13.129603407118054
 20
92.318826633029502
 30
0.0
 10
13.129603407118054
 20
82.716311984592011
 30
0.0
 10
13.129603407118054
 20
82.716311984592011
 30
0.0
 10
19.852707248263886
 20
81.421472846137149
 30
0.0
 10
24.908384874131944
 20
75.861260986328119
 30
0.0
 10
24.908384874131944
 20
69.196379258897565
 30
0.0
 10
24.908384874131944
 20
67.682259792751736
 30
0.0
 10
24.645868598090274
 20
66.226190185546869
 30
0.0
 10
24.165622287326386
 20
64.860554334852424
 30
0.0
 10
24.165622287326386
 20
64.860554334852424
 30
0.0
 10
33.022273763020827
 20
60.077556016710062
 30
0.0
 10
33.022273763020827
 20
60.077556016710062
 30
0.0
 10
32.240581597222217
 20
58.336921522352426
 30
0.0
 10
31.230135091145829
 20
56.710491943359372
 30
0.0
 10
30.021940104166664
 20
55.230823432074651
 30
0.0
 10
30.021940104166664
 20
55.230823432074651
 30
0.0
 10
21.163910590277776
 20
60.014166259765616
 30
0.0
 10
21.163910590277776
 20
60.014166259765616
 30
0.0
 10
18.458132595486109
 20
57.179541693793396
 30
0.0
 10
14.519010416666665
 20
55.393948703342012
 30
0.0
 10
10.134092881944444
 20
55.393948703342012
 30
0.0
 10
5.7515869140624991
 20
55.393948703342012
 30
0.0
 10
1.8165988498263888
 20
57.175924343532984
 30
0.0
 10
-0.891762966579861
 20
60.006931559244784
 30
0.0
 10
-0.891762966579861
 20
60.006931559244784
 30
0.0
 10
-9.8097371419270818
 20
55.205501980251732
 30
0.0
 10
-9.8097371419270818
 20
55.205501980251732
 30
0.0
 10
-11.016898600260415
 20
56.686893039279511
 30
0.0
 10
-12.02751736111111
 20
58.313322618272565
 30
0.0
 10
-12.811793348524304
 20
60.053957112630201
 30
0.0
 10
-12.811793348524304
 20
60.053957112630201
 30
0.0
 10
-3.8936469184027773
 20
64.851424831814228
 30
0.0
 10
-3.8936469184027773
 20
64.851424831814228
 30
0.0
 10
-4.3781995985243052
 20
66.218955485026029
 30
0.0
 10
-4.6398546006944441
 20
67.678814697265622
 30
0.0
 10
-4.6398546006944441
 20
69.196379258897565
 30
0.0
  0
ELLIPSE
  5
BA
100
AcDbEntity
  8
LIVELLO_1
 62
     7
100
AcDbEllipse
 10
10.132715
 20
69.196379
 30
0.0
 11
-27.176980251736108
 21
0.0
 31
0.0
210
0.0
220
0.0
230
1.0
 40
0.93431
 41
0.0
 42
6.2831853071795862
  0
LINE
  5
B9
100
AcDbEntity
  8
LIVELLO_1
 62
     7
100
AcDbLine
 10
46.204587
 20
108.282021
 30
0.0
 11
30.899406
 21
108.282021
 31
0.0
  0
LINE
  5
B8
100
AcDbEntity
  8
LIVELLO_1
 62
     7
100
AcDbLine
 10
-10.883746
 20
108.282021
 30
0.0
 11
-26.131566
 21
108.282021
 31
0.0
  0
MTEXT
  5
B7
100
AcDbEntity
  8
LIVELLO_1
 62
     7
100
AcDbMText
 10
-6.164137
 20
26.909526
 30
0.0
 40
8.238229
 41
0.0
 71
     1
 72
     2
  1
\fCourier|b0|i0;\H8.2382;\W1.07;\C7;\U+0039\U+0035
  7
STD
210
0.0
220
0.0
230
1.0
 73
     1
 44
1.0
  0
MTEXT
  5
B6
100
AcDbEntity
  8
LIVELLO_1
 62
     7
100
AcDbMText
 10
6.847816
 20
26.909526
 30
0.0
 40
8.238229
 41
0.0
 71
     1
 72
     2
  1
\fSymbol|b0|i0;\H8.2382;\W1.07;\C7;\U+00B0
  7
STD
210
0.0
220
0.0
230
1.0
 73
     1
 44
1.0
  0
MTEXT
  5
B5
100
AcDbEntity
  8
LIVELLO_1
 62
     7
100
AcDbMText
 10
11.920719
 20
26.909526
 30
0.0
 40
8.238229
 41
0.0
 71
     1
 72
     2
  1
\fCourier|b0|i0;\H8.2382;\W1.07;\C7;\U+0078\U+0033
  7
STD
210
0.0
220
0.0
230
1.0
 73
     1
 44
1.0
  0
LINE
  5
B4
100
AcDbEntity
  8
LIVELLO_1
 62
     7
100
AcDbLine
 10
-17.229956
 20
-10.588759
 30
0.0
 11
44.472049
 21
-10.588759
 31
0.0
  0
LINE
  5
B3
100
AcDbEntity
  8
LIVELLO_1
 62
     7
100
AcDbLine
 10
-38.908047
 20
-10.588759
 30
0.0
 11
63.260566
 21
-10.588759
 31
0.0
  0
INSERT
  5
85
100
AcDbEntity
  8
LIVELLO_1
 62
     7
100
AcDbBlockReference
  2
AI9-BLK5
 10
11.190273
 20
-82.621916
 30
0.0
  0
INSERT
  5
77
100
AcDbEntity
  8
LIVELLO_1
 62
     7
100
AcDbBlockReference
  2
AI9-BLK2
 10
10.227541
 20
-64.697601
 30
0.0
  0
LINE
  5
75
100
AcDbEntity
  8
LIVELLO_1
 62
     7
100
AcDbLine
 10
38.175792
 20
-111.746926
 30
0.0
 11
38.175792
 21
-99.840331
 31
0.0
  0
LINE
  5
74
100
AcDbEntity
  8
LIVELLO_1
 62
     7
100
AcDbLine
 10
-17.684536
 20
-111.753816
 30
0.0
 11
-17.684536
 21
-99.845844
 31
0.0
  0
MTEXT
  5
73
100
AcDbEntity
  8
LIVELLO_1
 62
     7
100
AcDbMText
 10
-2.850817
 20
-100.169593
 30
0.0
 40
9.37695
 41
0.0
 71
     1
 72
     2
  1
\fMyriad Roman|b0|i0;\H9.3770;\C7;\U+00F8\U+0031\U+0033\U+0032
  7
STD
210
0.0
220
0.0
230
1.0
 73
     1
 44
1.0
  0
SPLINE
  5
72
100
AcDbEntity
  8
LIVELLO_1
 62
     7
100
AcDbSpline
210
0.0
220
0.0
230
1.0
 70
     8
 71
     3
 72
    20
 73
    16
 74
     0
 42
0.00000001
 43
0.00000001
 40
0.0
 40
0.0
 40
0.0
 40
0.0
 40
1.0
 40
1.0
 40
1.0
 40
2.0
 40
2.0
 40
2.0
 40
3.0
 40
3.0
 40
3.0
 40
4.0
 40
4.0
 40
4.0
 40
5.0
 40
5.0
 40
5.0
 40
5.0
 10
40.625254991319444
 20
-24.251491292317706
 30
0.0
 10
40.625254991319444
 20
-24.251491292317706
 30
0.0
 10
40.625254991319444
 20
-70.534626600477424
 30
0.0
 10
40.625254991319444
 20
-70.534626600477424
 30
0.0
 10
40.625254991319444
 20
-70.706881374782981
 30
0.0
 10
40.306239149305554
 20
-70.849852837456595
 30
0.0
 10
39.913498263888883
 20
-70.849852837456595
 30
0.0
 10
39.913498263888883
 20
-70.849852837456595
 30
0.0
 10
-15.744775390624998
 20
-70.849852837456595
 30
0.0
 10
-15.744775390624998
 20
-70.849852837456595
 30
0.0
 10
-16.135965983072914
 20
-70.849852837456595
 30
0.0
 10
-16.454637315538193
 20
-70.706881374782981
 30
0.0
 10
-16.454637315538193
 20
-70.534626600477424
 30
0.0
 10
-16.454637315538193
 20
-70.534626600477424
 30
0.0
 10
-16.454637315538193
 20
-24.251491292317706
 30
0.0
 10
-16.454637315538193
 20
-24.251491292317706
 30
0.0
  0
LINE
  5
71
100
AcDbEntity
  8
LIVELLO_1
 62
     7
100
AcDbLine
 10
-9.549805
 20
-52.984966
 30
0.0
 11
35.006304
 21
-53.003225
 31
0.0
  0
SPLINE
  5
70
100
AcDbEntity
  8
LIVELLO_1
 62
     7
100
AcDbSpline
210
0.0
220
0.0
230
1.0
 70
     8
 71
     3
 72
    20
 73
    16
 74
     0
 42
0.00000001
 43
0.00000001
 40
0.0
 40
0.0
 40
0.0
 40
0.0
 40
1.0
 40
1.0
 40
1.0
 40
2.0
 40
2.0
 40
2.0
 40
3.0
 40
3.0
 40
3.0
 40
4.0
 40
4.0
 40
4.0
 40
5.0
 40
5.0
 40
5.0
 40
5.0
 10
35.476904296874999
 20
-26.461175537109373
 30
0.0
 10
35.476904296874999
 20
-26.461175537109373
 30
0.0
 10
34.58875868055555
 20
-56.476569959852426
 30
0.0
 10
34.58875868055555
 20
-56.476569959852426
 30
0.0
 10
34.58875868055555
 20
-56.628843180338535
 30
0.0
 10
34.19050564236111
 20
-56.755622694227426
 30
0.0
 10
33.69854600694444
 20
-56.755622694227426
 30
0.0
 10
33.69854600694444
 20
-56.755622694227426
 30
0.0
 10
-8.6967990451388886
 20
-56.755622694227426
 30
0.0
 10
-8.6967990451388886
 20
-56.755622694227426
 30
0.0
 10
-9.1903089735243046
 20
-56.755622694227426
 30
0.0
 10
-9.5870117187499986
 20
-56.628843180338535
 30
0.0
 10
-9.5870117187499986
 20
-56.476569959852426
 30
0.0
 10
-9.5870117187499986
 20
-56.476569959852426
 30
0.0
 10
-10.475329589843749
 20
-26.461175537109373
 30
0.0
 10
-10.475329589843749
 20
-26.461175537109373
 30
0.0
  0
POLYLINE
  5
6A
100
AcDbEntity
  8
LIVELLO_1
 62
     7
100
AcDb2dPolyline
 66
     1
 10
0.0
 20
0.0
 30
0.0
 70
     1
  0
VERTEX
  5
6B
100
AcDbEntity
  8
LIVELLO_1
 62
     7
100
AcDbVertex
100
AcDb2dVertex
 10
-5.312682
 20
-56.610929
 30
0.0
  0
VERTEX
  5
6C
100
AcDbEntity
  8
LIVELLO_1
 62
     7
100
AcDbVertex
100
AcDb2dVertex
 10
9.134326
 20
-56.610929
 30
0.0
  0
VERTEX
  5
6D
100
AcDbEntity
  8
LIVELLO_1
 62
     7
100
AcDbVertex
100
AcDb2dVertex
 10
9.134326
 20
-61.14054
 30
0.0
  0
VERTEX
  5
6E
100
AcDbEntity
  8
LIVELLO_1
 62
     7
100
AcDbVertex
100
AcDb2dVertex
 10
-5.312682
 20
-61.14054
 30
0.0
  0
SEQEND
  5
6F
100
AcDbEntity
  8
LIVELLO_1
 62
     7
  0
SPLINE
  5
69
100
AcDbEntity
  8
LIVELLO_1
 62
     7
100
AcDbSpline
210
0.0
220
0.0
230
1.0
 70
     8
 71
     3
 72
    23
 73
    19
 74
     0
 42
0.00000001
 43
0.00000001
 40
0.0
 40
0.0
 40
0.0
 40
0.0
 40
1.0
 40
1.0
 40
1.0
 40
2.0
 40
2.0
 40
2.0
 40
3.0
 40
3.0
 40
3.0
 40
4.0
 40
4.0
 40
4.0
 40
5.0
 40
5.0
 40
5.0
 40
6.0
 40
6.0
 40
6.0
 40
6.0
 10
-4.4562310112847214
 20
-61.140540228949646
 30
0.0
 10
-4.4562310112847214
 20
-61.140540228949646
 30
0.0
 10
-4.4562310112847214
 20
-61.272831895616314
 30
0.0
 10
-4.4562310112847214
 20
-61.272831895616314
 30
0.0
 10
-4.4562310112847214
 20
-62.192672390407978
 30
0.0
 10
-3.7117458767361109
 20
-62.937157524956589
 30
0.0
 10
-2.7906995985243053
 20
-62.937157524956589
 30
0.0
 10
-2.7906995985243053
 20
-62.937157524956589
 30
0.0
 10
6.6142388237847216
 20
-62.937157524956589
 30
0.0
 10
6.6142388237847216
 20
-62.937157524956589
 30
0.0
 10
7.5361463758680545
 20
-62.937157524956589
 30
0.0
 10
8.2816650390624993
 20
-62.192672390407978
 30
0.0
 10
8.2816650390624993
 20
-61.272831895616314
 30
0.0
 10
8.2816650390624993
 20
-61.272831895616314
 30
0.0
 10
8.2816650390624993
 20
-61.140540228949646
 30
0.0
 10
8.2816650390624993
 20
-61.140540228949646
 30
0.0
 10
8.2816650390624993
 20
-61.140540228949646
 30
0.0
 10
-4.4562310112847214
 20
-61.140540228949646
 30
0.0
 10
-4.4562310112847214
 20
-61.140540228949646
 30
0.0
  0
POLYLINE
  5
63
100
AcDbEntity
  8
LIVELLO_1
 62
     7
100
AcDb2dPolyline
 66
     1
 10
0.0
 20
0.0
 30
0.0
 70
     1
  0
VERTEX
  5
64
100
AcDbEntity
  8
LIVELLO_1
 62
     7
100
AcDbVertex
100
AcDb2dVertex
 10
37.147776
 20
-26.394341
 30
0.0
  0
VERTEX
  5
65
100
AcDbEntity
  8
LIVELLO_1
 62
     7
100
AcDbVertex
100
AcDb2dVertex
 10
38.926478
 20
-26.394341
 30
0.0
  0
VERTEX
  5
66
100
AcDbEntity
  8
LIVELLO_1
 62
     7
100
AcDbVertex
100
AcDb2dVertex
 10
38.926478
 20
-27.285242
 30
0.0
  0
VERTEX
  5
67
100
AcDbEntity
  8
LIVELLO_1
 62
     7
100
AcDbVertex
100
AcDb2dVertex
 10
37.147776
 20
-27.285242
 30
0.0
  0
SEQEND
  5
68
100
AcDbEntity
  8
LIVELLO_1
 62
     7
  0
POLYLINE
  5
5D
100
AcDbEntity
  8
LIVELLO_1
 62
     7
100
AcDb2dPolyline
 66
     1
 10
0.0
 20
0.0
 30
0.0
 70
     1
  0
VERTEX
  5
5E
100
AcDbEntity
  8
LIVELLO_1
 62
     7
100
AcDbVertex
100
AcDb2dVertex
 10
-14.14005
 20
-26.394341
 30
0.0
  0
VERTEX
  5
5F
100
AcDbEntity
  8
LIVELLO_1
 62
     7
100
AcDbVertex
100
AcDb2dVertex
 10
-12.361519
 20
-26.394341
 30
0.0
  0
VERTEX
  5
60
100
AcDbEntity
  8
LIVELLO_1
 62
     7
100
AcDbVertex
100
AcDb2dVertex
 10
-12.361519
 20
-27.285242
 30
0.0
  0
VERTEX
  5
61
100
AcDbEntity
  8
LIVELLO_1
 62
     7
100
AcDbVertex
100
AcDb2dVertex
 10
-14.14005
 20
-27.285242
 30
0.0
  0
SEQEND
  5
62
100
AcDbEntity
  8
LIVELLO_1
 62
     7
  0
POLYLINE
  5
57
100
AcDbEntity
  8
LIVELLO_1
 62
     7
100
AcDb2dPolyline
 66
     1
 10
0.0
 20
0.0
 30
0.0
 70
     1
  0
VERTEX
  5
58
100
AcDbEntity
  8
LIVELLO_1
 62
     7
100
AcDbVertex
100
AcDb2dVertex
 10
7.832425
 20
-24.489203
 30
0.0
  0
VERTEX
  5
59
100
AcDbEntity
  8
LIVELLO_1
 62
     7
100
AcDbVertex
100
AcDb2dVertex
 10
16.719393
 20
-24.489203
 30
0.0
  0
VERTEX
  5
5A
100
AcDbEntity
  8
LIVELLO_1
 62
     7
100
AcDbVertex
100
AcDb2dVertex
 10
15.831247
 20
-28.274329
 30
0.0
  0
VERTEX
  5
5B
100
AcDbEntity
  8
LIVELLO_1
 62
     7
100
AcDbVertex
100
AcDb2dVertex
 10
8.72057
 20
-28.274329
 30
0.0
  0
SEQEND
  5
5C
100
AcDbEntity
  8
LIVELLO_1
 62
     7
  0
SPLINE
  5
56
100
AcDbEntity
  8
LIVELLO_1
 62
     7
100
AcDbSpline
210
0.0
220
0.0
230
1.0
 70
     8
 71
     3
 72
    29
 73
    25
 74
     0
 42
0.00000001
 43
0.00000001
 40
0.0
 40
0.0
 40
0.0
 40
0.0
 40
1.0
 40
1.0
 40
1.0
 40
2.0
 40
2.0
 40
2.0
 40
3.0
 40
3.0
 40
3.0
 40
4.0
 40
4.0
 40
4.0
 40
5.0
 40
5.0
 40
5.0
 40
6.0
 40
6.0
 40
6.0
 40
7.0
 40
7.0
 40
7.0
 40
8.0
 40
8.0
 40
8.0
 40
8.0
 10
-17.853001573350692
 20
-11.068661159939236
 30
0.0
 10
-17.853001573350692
 20
-11.068661159939236
 30
0.0
 10
42.428417968749997
 20
-11.068661159939236
 30
0.0
 10
42.428417968749997
 20
-11.068661159939236
 30
0.0
 10
42.821158854166661
 20
-11.068661159939236
 30
0.0
 10
43.13983018663194
 20
-11.389055040147568
 30
0.0
 10
43.13983018663194
 20
-11.782312689887151
 30
0.0
 10
43.13983018663194
 20
-11.782312689887151
 30
0.0
 10
43.13983018663194
 20
-23.773312038845486
 30
0.0
 10
43.13983018663194
 20
-23.773312038845486
 30
0.0
 10
43.13983018663194
 20
-24.166397433810761
 30
0.0
 10
42.821158854166661
 20
-24.489202880859374
 30
0.0
 10
42.428417968749997
 20
-24.489202880859374
 30
0.0
 10
42.428417968749997
 20
-24.489202880859374
 30
0.0
 10
-17.853001573350692
 20
-24.489202880859374
 30
0.0
 10
-17.853001573350692
 20
-24.489202880859374
 30
0.0
 10
-18.244019911024303
 20
-24.489202880859374
 30
0.0
 10
-18.562002224392359
 20
-24.166397433810761
 30
0.0
 10
-18.562002224392359
 20
-23.773312038845486
 30
0.0
 10
-18.562002224392359
 20
-23.773312038845486
 30
0.0
 10
-18.562002224392359
 20
-11.782312689887151
 30
0.0
 10
-18.562002224392359
 20
-11.782312689887151
 30
0.0
 10
-18.562002224392359
 20
-11.389055040147568
 30
0.0
 10
-18.244019911024303
 20
-11.068661159939236
 30
0.0
 10
-17.853001573350692
 20
-11.068661159939236
 30
0.0
  0
LINE
  5
55
100
AcDbEntity
  8
LIVELLO_1
 62
     7
100
AcDbLine
 10
-0.913639
 20
-26.394341
 30
0.0
 11
0.075275
 21
-26.394341
 31
0.0
  0
LINE
  5
54
100
AcDbEntity
  8
LIVELLO_1
 62
     7
100
AcDbLine
 10
3.340881
 20
-26.394341
 30
0.0
 11
4.331519
 21
-26.394341
 31
0.0
  0
POLYLINE
  5
4F
100
AcDbEntity
  8
LIVELLO_1
 62
     7
100
AcDb2dPolyline
 66
     1
 10
0.0
 20
0.0
 30
0.0
  0
VERTEX
  5
50
100
AcDbEntity
  8
LIVELLO_1
 62
     7
100
AcDbVertex
100
AcDb2dVertex
 10
7.59678
 20
-26.394341
 30
0.0
  0
VERTEX
  5
51
100
AcDbEntity
  8
LIVELLO_1
 62
     7
100
AcDbVertex
100
AcDb2dVertex
 10
8.251693
 20
-26.394341
 30
0.0
  0
VERTEX
  5
52
100
AcDbEntity
  8
LIVELLO_1
 62
     7
100
AcDbVertex
100
AcDb2dVertex
 10
8.58759
 20
-27.741718
 30
0.0
  0
SEQEND
  5
53
100
AcDbEntity
  8
LIVELLO_1
 62
     7
  0
LINE
  5
4E
100
AcDbEntity
  8
LIVELLO_1
 62
     7
100
AcDbLine
 10
11.851473
 20
-28.274329
 30
0.0
 11
12.841938
 21
-28.274329
 31
0.0
  0
POLYLINE
  5
49
100
AcDbEntity
  8
LIVELLO_1
 62
     7
100
AcDb2dPolyline
 66
     1
 10
0.0
 20
0.0
 30
0.0
  0
VERTEX
  5
4A
100
AcDbEntity
  8
LIVELLO_1
 62
     7
100
AcDbVertex
100
AcDb2dVertex
 10
16.108233
 20
-27.174655
 30
0.0
  0
VERTEX
  5
4B
100
AcDbEntity
  8
LIVELLO_1
 62
     7
100
AcDbVertex
100
AcDb2dVertex
 10
16.302881
 20
-26.394341
 30
0.0
  0
VERTEX
  5
4C
100
AcDbEntity
  8
LIVELLO_1
 62
     7
100
AcDbVertex
100
AcDb2dVertex
 10
17.098009
 20
-26.394341
 30
0.0
  0
SEQEND
  5
4D
100
AcDbEntity
  8
LIVELLO_1
 62
     7
  0
LINE
  5
48
100
AcDbEntity
  8
LIVELLO_1
 62
     7
100
AcDbLine
 10
20.362581
 20
-26.394341
 30
0.0
 11
21.35408
 21
-26.394341
 31
0.0
  0
LINE
  5
47
100
AcDbEntity
  8
LIVELLO_1
 62
     7
100
AcDbLine
 10
24.616585
 20
-26.394341
 30
0.0
 11
25.609462
 21
-26.394341
 31
0.0
  0
POLYLINE
  5
3D
100
AcDbEntity
  8
LIVELLO_1
 62
     7
100
AcDb2dPolyline
 66
     1
 10
0.0
 20
0.0
 30
0.0
  0
VERTEX
  5
3E
100
AcDbEntity
  8
LIVELLO_1
 62
     7
100
AcDbVertex
100
AcDb2dVertex
 10
-10.583161
 20
-26.394341
 30
0.0
  0
VERTEX
  5
3F
100
AcDbEntity
  8
LIVELLO_1
 62
     7
100
AcDbVertex
100
AcDb2dVertex
 10
-0.913639
 20
-26.394341
 30
0.0
  0
VERTEX
  5
40
100
AcDbEntity
  8
LIVELLO_1
 62
     7
100
AcDbVertex
100
AcDb2dVertex
 10
8.279598
 20
-26.394341
 30
0.0
  0
VERTEX
  5
41
100
AcDbEntity
  8
LIVELLO_1
 62
     7
100
AcDbVertex
100
AcDb2dVertex
 10
8.72057
 20
-28.274329
 30
0.0
  0
VERTEX
  5
42
100
AcDbEntity
  8
LIVELLO_1
 62
     7
100
AcDbVertex
100
AcDb2dVertex
 10
15.831247
 20
-28.274329
 30
0.0
  0
VERTEX
  5
43
100
AcDbEntity
  8
LIVELLO_1
 62
     7
100
AcDbVertex
100
AcDb2dVertex
 10
16.273253
 20
-26.394341
 30
0.0
  0
VERTEX
  5
44
100
AcDbEntity
  8
LIVELLO_1
 62
     7
100
AcDbVertex
100
AcDb2dVertex
 10
25.609462
 20
-26.394341
 30
0.0
  0
VERTEX
  5
45
100
AcDbEntity
  8
LIVELLO_1
 62
     7
100
AcDbVertex
100
AcDb2dVertex
 10
35.369417
 20
-26.394341
 30
0.0
  0
SEQEND
  5
46
100
AcDbEntity
  8
LIVELLO_1
 62
     7
  0
SPLINE
  5
3C
100
AcDbEntity
  8
LIVELLO_1
 62
     7
100
AcDbSpline
210
0.0
220
0.0
230
1.0
 70
     8
 71
     3
 72
    20
 73
    16
 74
     0
 42
0.00000001
 43
0.00000001
 40
0.0
 40
0.0
 40
0.0
 40
0.0
 40
1.0
 40
1.0
 40
1.0
 40
2.0
 40
2.0
 40
2.0
 40
3.0
 40
3.0
 40
3.0
 40
4.0
 40
4.0
 40
4.0
 40
5.0
 40
5.0
 40
5.0
 40
5.0
 10
-15.028540039062499
 20
-26.394340684678816
 30
0.0
 10
-15.419730631510415
 20
-26.394340684678816
 30
0.0
 10
-15.739435492621526
 20
-26.079114447699652
 30
0.0
 10
-15.739435492621526
 20
-25.686373562282984
 30
0.0
 10
-15.739435492621526
 20
-25.686373562282984
 30
0.0
 10
-15.739435492621526
 20
-24.489202880859374
 30
0.0
 10
-15.739435492621526
 20
-24.489202880859374
 30
0.0
 10
-15.739435492621526
 20
-24.489202880859374
 30
0.0
 10
7.8324245876736107
 20
-24.489202880859374
 30
0.0
 10
7.8324245876736107
 20
-24.489202880859374
 30
0.0
 10
7.8324245876736107
 20
-24.489202880859374
 30
0.0
 10
8.2795979817708325
 20
-26.394340684678816
 30
0.0
 10
8.2795979817708325
 20
-26.394340684678816
 30
0.0
 10
8.2795979817708325
 20
-26.394340684678816
 30
0.0
 10
-15.028540039062499
 20
-26.394340684678816
 30
0.0
 10
-15.028540039062499
 20
-26.394340684678816
 30
0.0
  0
SPLINE
  5
3B
100
AcDbEntity
  8
LIVELLO_1
 62
     7
100
AcDbSpline
210
0.0
220
0.0
230
1.0
 70
     8
 71
     3
 72
    20
 73
    16
 74
     0
 42
0.00000001
 43
0.00000001
 40
0.0
 40
0.0
 40
0.0
 40
0.0
 40
1.0
 40
1.0
 40
1.0
 40
2.0
 40
2.0
 40
2.0
 40
3.0
 40
3.0
 40
3.0
 40
4.0
 40
4.0
 40
4.0
 40
5.0
 40
5.0
 40
5.0
 40
5.0
 10
16.719392903645833
 20
-24.489202880859374
 30
0.0
 10
16.719392903645833
 20
-24.489202880859374
 30
0.0
 10
40.527414279513884
 20
-24.489202880859374
 30
0.0
 10
40.527414279513884
 20
-24.489202880859374
 30
0.0
 10
40.527414279513884
 20
-24.489202880859374
 30
0.0
 10
40.527414279513884
 20
-25.686373562282984
 30
0.0
 10
40.527414279513884
 20
-25.686373562282984
 30
0.0
 10
40.527414279513884
 20
-26.079114447699652
 30
0.0
 10
40.207709418402771
 20
-26.394340684678816
 30
0.0
 10
39.814968532986107
 20
-26.394340684678816
 30
0.0
 10
39.814968532986107
 20
-26.394340684678816
 30
0.0
 10
16.273253038194444
 20
-26.394340684678816
 30
0.0
 10
16.273253038194444
 20
-26.394340684678816
 30
0.0
 10
16.273253038194444
 20
-26.394340684678816
 30
0.0
 10
16.719392903645833
 20
-24.489202880859374
 30
0.0
 10
16.719392903645833
 20
-24.489202880859374
 30
0.0
  0
LINE
  5
3A
100
AcDbEntity
  8
LIVELLO_1
 62
     7
100
AcDbLine
 10
37.756524
 20
-105.634293
 30
0.0
 11
27.296525
 21
-105.634293
 31
0.0
  0
LINE
  5
39
100
AcDbEntity
  8
LIVELLO_1
 62
     7
100
AcDbLine
 10
-6.774264
 20
-105.634293
 30
0.0
 11
-17.456299
 21
-105.634293
 31
0.0
  0
LINE
  5
38
100
AcDbEntity
  8
LIVELLO_1
 62
     7
100
AcDbLine
 10
-58.828451
 20
-10.503493
 30
0.0
 11
-45.37742
 21
-10.503493
 31
0.0
  0
LINE
  5
37
100
AcDbEntity
  8
LIVELLO_1
 62
     7
100
AcDbLine
 10
-52.102074
 20
-10.503493
 30
0.0
 11
-51.75877
 21
-33.339998
 31
0.0
  0
LINE
  5
36
100
AcDbEntity
  8
LIVELLO_1
 62
     7
100
AcDbLine
 10
-51.937226
 20
-49.935367
 30
0.0
 11
-51.937226
 21
-70.09641
 31
0.0
  0
LINE
  5
35
100
AcDbEntity
  8
LIVELLO_1
 62
     7
100
AcDbLine
 10
-58.828451
 20
-70.145331
 30
0.0
 11
-45.37742
 21
-70.145331
 31
0.0
  0
LINE
  5
34
100
AcDbEntity
  8
LIVELLO_1
 62
     7
100
AcDbLine
 10
-58.980551
 20
2.900512
 30
0.0
 11
-45.531243
 21
2.900512
 31
0.0
  0
MTEXT
  5
33
100
AcDbEntity
  8
LIVELLO_1
 62
     7
100
AcDbMText
 10
-63.260566
 20
-35.478298
 30
0.0
 40
9.208466
 41
0.0
 71
     1
 72
     2
  1
\fCourier|b0|i0;\H9.2085;\C7;\U+0031\U+0031\U+0030
  7
STD
210
0.0
220
0.0
230
1.0
 73
     1
 44
1.0
  0
SPLINE
  5
32
100
AcDbEntity
  8
LIVELLO_1
 62
     7
100
AcDbSpline
210
0.0
220
0.0
230
1.0
 70
     8
 71
     3
 72
    11
 73
     7
 74
     0
 42
0.00000001
 43
0.00000001
 40
0.0
 40
0.0
 40
0.0
 40
0.0
 40
1.0
 40
1.0
 40
1.0
 40
2.0
 40
2.0
 40
2.0
 40
2.0
 10
-19.450320095486109
 20
-10.41116468641493
 30
0.0
 10
-19.450320095486109
 20
-10.41116468641493
 30
0.0
 10
-20.812338595920139
 20
-7.5911817762586802
 30
0.0
 10
-13.683747016059026
 20
-7.5911817762586802
 30
0.0
 10
-13.683747016059026
 20
-7.5911817762586802
 30
0.0
 10
-13.604854329427083
 20
-10.41116468641493
 30
0.0
 10
-13.604854329427083
 20
-10.41116468641493
 30
0.0
  0
SPLINE
  5
31
100
AcDbEntity
  8
LIVELLO_1
 62
     7
100
AcDbSpline
210
0.0
220
0.0
230
1.0
 70
     8
 71
     3
 72
    11
 73
     7
 74
     0
 42
0.00000001
 43
0.00000001
 40
0.0
 40
0.0
 40
0.0
 40
0.0
 40
1.0
 40
1.0
 40
1.0
 40
2.0
 40
2.0
 40
2.0
 40
2.0
 10
44.33596733940972
 20
-10.41116468641493
 30
0.0
 10
44.33596733940972
 20
-10.41116468641493
 30
0.0
 10
45.622365993923609
 20
-7.5911817762586802
 30
0.0
 10
38.491707356770831
 20
-7.5911817762586802
 30
0.0
 10
38.491707356770831
 20
-7.5911817762586802
 30
0.0
 10
38.575767686631941
 20
-10.41116468641493
 30
0.0
 10
38.575767686631941
 20
-10.41116468641493
 30
0.0
  0
SPLINE
  5
30
100
AcDbEntity
  8
LIVELLO_1
 62
     7
100
AcDbSpline
210
0.0
220
0.0
230
1.0
 70
     8
 71
     3
 72
    14
 73
    10
 74
     0
 42
0.00000001
 43
0.00000001
 40
0.0
 40
0.0
 40
0.0
 40
0.0
 40
1.0
 40
1.0
 40
1.0
 40
2.0
 40
2.0
 40
2.0
 40
3.0
 40
3.0
 40
3.0
 40
3.0
 10
-12.776308865017359
 20
-7.5911817762586802
 30
0.0
 10
-10.862902832031249
 20
0.0045647515190972
 30
0.0
 10
0.4819688585069444
 20
2.2738491482204859
 30
0.0
 10
12.440928819444443
 20
2.2738491482204859
 30
0.0
 10
24.400233289930554
 20
2.2738491482204859
 30
0.0
 10
35.746999782986109
 20
0.0045647515190972
 30
0.0
 10
37.65833875868055
 20
-7.5911817762586802
 30
0.0
 10
37.65833875868055
 20
-7.5911817762586802
 30
0.0
 10
-12.776308865017359
 20
-7.5911817762586802
 30
0.0
 10
-12.776308865017359
 20
-7.5911817762586802
 30
0.0
  0
SPLINE
  5
2F
100
AcDbEntity
  8
LIVELLO_1
 62
     7
100
AcDbSpline
210
0.0
220
0.0
230
1.0
 70
     8
 71
     3
 72
    14
 73
    10
 74
     0
 42
0.00000001
 43
0.00000001
 40
0.0
 40
0.0
 40
0.0
 40
0.0
 40
1.0
 40
1.0
 40
1.0
 40
2.0
 40
2.0
 40
2.0
 40
3.0
 40
3.0
 40
3.0
 40
3.0
 10
-13.604854329427083
 20
-8.1852884928385414
 30
0.0
 10
-13.604854329427083
 20
-7.8592102050781243
 30
0.0
 10
-13.336825900607638
 20
-7.5911817762586802
 30
0.0
 10
-13.004718695746526
 20
-7.5911817762586802
 30
0.0
 10
-13.004718695746526
 20
-7.5911817762586802
 30
0.0
 10
37.887093098958331
 20
-7.5911817762586802
 30
0.0
 10
37.887093098958331
 20
-7.5911817762586802
 30
0.0
 10
38.219200303819441
 20
-7.5911817762586802
 30
0.0
 10
38.487228732638883
 20
-7.8592102050781243
 30
0.0
 10
38.487228732638883
 20
-8.1852884928385414
 30
0.0
  0
SPLINE
  5
2E
100
AcDbEntity
  8
LIVELLO_1
 62
     7
100
AcDbSpline
210
0.0
220
0.0
230
1.0
 70
     8
 71
     3
 72
    17
 73
    13
 74
     0
 42
0.00000001
 43
0.00000001
 40
0.0
 40
0.0
 40
0.0
 40
0.0
 40
1.0
 40
1.0
 40
1.0
 40
2.0
 40
2.0
 40
2.0
 40
3.0
 40
3.0
 40
3.0
 40
4.0
 40
4.0
 40
4.0
 40
4.0
 10
-5.5472927517361104
 20
-7.5911817762586802
 30
0.0
 10
-5.5472927517361104
 20
-7.5911817762586802
 30
0.0
 10
3.2294325086805551
 20
-0.5461337619357638
 30
0.0
 10
3.2294325086805551
 20
-0.5461337619357638
 30
0.0
 10
3.2294325086805551
 20
-0.5461337619357638
 30
0.0
 10
8.5831108940972207
 20
-1.3882873535156248
 30
0.0
 10
11.746397569444444
 20
-1.3882873535156248
 30
0.0
 10
14.908306206597221
 20
-1.3882873535156248
 30
0.0
 10
20.262673611111108
 20
-0.5461337619357638
 30
0.0
 10
20.262673611111108
 20
-0.5461337619357638
 30
0.0
 10
20.262673611111108
 20
-0.5461337619357638
 30
0.0
 10
30.429494900173609
 20
-7.5911817762586802
 30
0.0
 10
30.429494900173609
 20
-7.5911817762586802
 30
0.0
  0
MTEXT
  5
2D
100
AcDbEntity
  8
LIVELLO_1
 62
     7
100
AcDbMText
 10
-44.683922
 20
2.343052
 30
0.0
 40
8.279382
 41
0.0
 71
     1
 72
     2
  1
\fArial Narrow|b0|i0;\H8.2794;\C7;\U+0033\U+0036
  7
STD
210
0.0
220
0.0
230
1.0
 73
     1
 44
1.0
  0
LINE
  5
2C
100
AcDbEntity
  8
LIVELLO_1
 62
     7
100
AcDbLine
 10
-52.185273
 20
-10.277323
 30
0.0
 11
-52.185273
 21
3.172158
 31
0.0
  0
ENDBLK
  5
C8
100
AcDbEntity
  8
LIVELLO_1
100
AcDbBlockEnd
  0
BLOCK
  5
78
100
AcDbEntity
  8
LIVELLO_1
 62
     7
100
AcDbBlockBegin
  2
AI9-BLK2
 70
     0
 10
0.0
 20
0.0
 30
0.0
  3
AI9-BLK2
  1

  0
INSERT
  5
7C
100
AcDbEntity
  8
LIVELLO_1
 62
     7
100
AcDbBlockReference
  2
AI9-BLK3
 10
0.0
 20
10.071737
 30
0.0
  0
SPLINE
  5
7A
100
AcDbEntity
  8
LIVELLO_1
 62
     7
100
AcDbSpline
210
0.0
220
0.0
230
1.0
 70
     8
 71
     3
 72
    29
 73
    25
 74
     0
 42
0.00000001
 43
0.00000001
 40
0.0
 40
0.0
 40
0.0
 40
0.0
 40
1.0
 40
1.0
 40
1.0
 40
2.0
 40
2.0
 40
2.0
 40
3.0
 40
3.0
 40
3.0
 40
4.0
 40
4.0
 40
4.0
 40
5.0
 40
5.0
 40
5.0
 40
6.0
 40
6.0
 40
6.0
 40
7.0
 40
7.0
 40
7.0
 40
8.0
 40
8.0
 40
8.0
 40
8.0
 10
51.373177761501729
 20
48.548630099826383
 30
0.0
 10
51.373177761501729
 20
48.548630099826383
 30
0.0
 10
30.489008924696179
 20
48.548630099826383
 30
0.0
 10
30.489008924696179
 20
48.548630099826383
 30
0.0
 10
30.880371771918401
 20
48.548630099826383
 30
0.0
 10
31.199043104383676
 20
48.324009874131939
 30
0.0
 10
31.199043104383676
 20
48.041856553819443
 30
0.0
 10
31.199043104383676
 20
48.041856553819443
 30
0.0
 10
31.199043104383676
 20
39.474937608506941
 30
0.0
 10
31.199043104383676
 20
39.474937608506941
 30
0.0
 10
31.199043104383676
 20
39.196229383680553
 30
0.0
 10
30.880371771918401
 20
38.966097005208333
 30
0.0
 10
30.489008924696179
 20
38.966097005208333
 30
0.0
 10
30.489008924696179
 20
38.966097005208333
 30
0.0
 10
28.927347140842013
 20
38.966097005208333
 30
0.0
 10
28.927347140842013
 20
38.966097005208333
 30
0.0
 10
28.927347140842013
 20
38.966097005208333
 30
0.0
 10
28.927347140842013
 20
-50.46134711371527
 30
0.0
 10
28.927347140842013
 20
-50.46134711371527
 30
0.0
 10
28.927347140842013
 20
-50.46134711371527
 30
0.0
 10
51.373177761501729
 20
-50.46134711371527
 30
0.0
 10
51.373177761501729
 20
-50.46134711371527
 30
0.0
 10
51.373177761501729
 20
-50.46134711371527
 30
0.0
 10
51.373177761501729
 20
48.548630099826383
 30
0.0
 10
51.373177761501729
 20
48.548630099826383
 30
0.0
  0
SPLINE
  5
79
100
AcDbEntity
  8
LIVELLO_1
 62
     7
100
AcDbSpline
210
0.0
220
0.0
230
1.0
 70
     8
 71
     3
 72
    29
 73
    25
 74
     0
 42
0.00000001
 43
0.00000001
 40
0.0
 40
0.0
 40
0.0
 40
0.0
 40
1.0
 40
1.0
 40
1.0
 40
2.0
 40
2.0
 40
2.0
 40
3.0
 40
3.0
 40
3.0
 40
4.0
 40
4.0
 40
4.0
 40
5.0
 40
5.0
 40
5.0
 40
6.0
 40
6.0
 40
6.0
 40
7.0
 40
7.0
 40
7.0
 40
8.0
 40
8.0
 40
8.0
 40
8.0
 10
-50.795435248480899
 20
48.548630099826383
 30
0.0
 10
-50.795435248480899
 20
48.548630099826383
 30
0.0
 10
-29.909716118706594
 20
48.548630099826383
 30
0.0
 10
-29.909716118706594
 20
48.548630099826383
 30
0.0
 10
-30.300906711154511
 20
48.548630099826383
 30
0.0
 10
-30.619578043619789
 20
48.324009874131939
 30
0.0
 10
-30.619578043619789
 20
48.041856553819443
 30
0.0
 10
-30.619578043619789
 20
48.041856553819443
 30
0.0
 10
-30.619578043619789
 20
39.474937608506941
 30
0.0
 10
-30.619578043619789
 20
39.474937608506941
 30
0.0
 10
-30.619578043619789
 20
39.196229383680553
 30
0.0
 10
-30.300906711154511
 20
38.966097005208333
 30
0.0
 10
-29.909716118706594
 20
38.966097005208333
 30
0.0
 10
-29.909716118706594
 20
38.966097005208333
 30
0.0
 10
-28.345815022786457
 20
38.966097005208333
 30
0.0
 10
-28.345815022786457
 20
38.966097005208333
 30
0.0
 10
-28.345815022786457
 20
38.966097005208333
 30
0.0
 10
-28.345815022786457
 20
-50.46134711371527
 30
0.0
 10
-28.345815022786457
 20
-50.46134711371527
 30
0.0
 10
-28.345815022786457
 20
-50.46134711371527
 30
0.0
 10
-50.795435248480899
 20
-50.46134711371527
 30
0.0
 10
-50.795435248480899
 20
-50.46134711371527
 30
0.0
 10
-50.795435248480899
 20
-50.46134711371527
 30
0.0
 10
-50.795435248480899
 20
48.548630099826383
 30
0.0
 10
-50.795435248480899
 20
48.548630099826383
 30
0.0
  0
ENDBLK
  5
83
100
AcDbEntity
  8
LIVELLO_1
100
AcDbBlockEnd
  0
BLOCK
  5
7D
100
AcDbEntity
  8
LIVELLO_1
 62
     7
100
AcDbBlockBegin
  2
AI9-BLK3
 70
     0
 10
0.0
 20
0.0
 30
0.0
  3
AI9-BLK3
  1

  0
INSERT
  5
7F
100
AcDbEntity
  8
LIVELLO_1
 62
     7
100
AcDbBlockReference
  2
AI9-BLK4
 10
0.016709
 20
-0.027216
 30
0.0
  0
ENDBLK
  5
82
100
AcDbEntity
  8
LIVELLO_1
100
AcDbBlockEnd
  0
BLOCK
  5
80
100
AcDbEntity
  8
LIVELLO_1
 62
     7
100
AcDbBlockBegin
  2
AI9-BLK4
 70
     0
 10
0.0
 20
0.0
 30
0.0
  3
AI9-BLK4
  1

  0
ENDBLK
  5
81
100
AcDbEntity
  8
LIVELLO_1
100
AcDbBlockEnd
  0
BLOCK
  5
86
100
AcDbEntity
  8
LIVELLO_1
 62
     7
100
AcDbBlockBegin
  2
AI9-BLK5
 70
     0
 10
0.0
 20
0.0
 30
0.0
  3
AI9-BLK5
  1

  0
SPLINE
  5
B1
100
AcDbEntity
  8
LIVELLO_1
 62
     7
100
AcDbSpline
210
0.0
220
0.0
230
1.0
 70
     8
 71
     3
 72
    17
 73
    13
 74
     0
 42
0.00000001
 43
0.00000001
 40
0.0
 40
0.0
 40
0.0
 40
0.0
 40
1.0
 40
1.0
 40
1.0
 40
2.0
 40
2.0
 40
2.0
 40
3.0
 40
3.0
 40
3.0
 40
4.0
 40
4.0
 40
4.0
 40
4.0
 10
26.712667507595484
 20
-8.731422254774305
 30
0.0
 10
27.953590901692706
 20
-9.1045260959201375
 30
0.0
 10
28.760432264539929
 20
-9.4776299370659718
 30
0.0
 10
30.061644829644095
 20
-9.4776299370659718
 30
0.0
 10
31.797628445095484
 20
-9.4776299370659718
 30
0.0
 10
33.287287733289929
 20
-8.1736612955729164
 30
0.0
 10
33.287287733289929
 20
-6.436988661024305
 30
0.0
 10
33.287287733289929
 20
-5.878883192274305
 30
0.0
 10
33.225620524088541
 20
-5.5674465603298602
 30
0.0
 10
33.287287733289929
 20
-5.0096856011284716
 30
0.0
 10
30.371358913845484
 20
-5.0096856011284716
 30
0.0
 10
26.961058892144095
 20
-5.8172159830729164
 30
0.0
 10
26.712667507595484
 20
-8.731422254774305
 30
0.0
  0
SPLINE
  5
B0
100
AcDbEntity
  8
LIVELLO_1
 62
     7
100
AcDbSpline
210
0.0
220
0.0
230
1.0
 70
     8
 71
     3
 72
    20
 73
    16
 74
     0
 42
0.00000001
 43
0.00000001
 40
0.0
 40
0.0
 40
0.0
 40
0.0
 40
1.0
 40
1.0
 40
1.0
 40
2.0
 40
2.0
 40
2.0
 40
3.0
 40
3.0
 40
3.0
 40
4.0
 40
4.0
 40
4.0
 40
5.0
 40
5.0
 40
5.0
 40
5.0
 10
34.221942138671871
 20
10.980380588107638
 30
0.0
 10
34.221942138671871
 20
10.980380588107638
 30
0.0
 10
28.691530354817704
 20
10.607276746961805
 30
0.0
 10
28.691530354817704
 20
10.607276746961805
 30
0.0
 10
28.804529486762149
 20
9.3325914171006943
 30
0.0
 10
28.859651014539928
 20
8.6969712999131943
 30
0.0
 10
28.971272108289927
 20
7.4198744032118045
 30
0.0
 10
29.426024712456595
 20
2.2184692382812496
 30
0.0
 10
36.143271891276036
 20
2.4847751193576388
 30
0.0
 10
41.381884087456591
 20
2.5192260742187496
 30
0.0
 10
41.066657850477426
 20
6.1265855577256936
 30
0.0
 10
39.097441270616315
 20
9.0573282877604164
 30
0.0
 10
35.607559543185758
 20
9.8197279188368043
 30
0.0
 10
35.607559543185758
 20
9.8197279188368043
 30
0.0
 10
34.221942138671871
 20
10.980380588107638
 30
0.0
 10
34.221942138671871
 20
10.980380588107638
 30
0.0
  0
POLYLINE
  5
A9
100
AcDbEntity
  8
LIVELLO_1
 62
     7
100
AcDb2dPolyline
 66
     1
 10
0.0
 20
0.0
 30
0.0
 70
     1
  0
VERTEX
  5
AA
100
AcDbEntity
  8
LIVELLO_1
 62
     7
100
AcDbVertex
100
AcDb2dVertex
 10
-6.244838
 20
-8.664587
 30
0.0
  0
VERTEX
  5
AB
100
AcDbEntity
  8
LIVELLO_1
 62
     7
100
AcDbVertex
100
AcDb2dVertex
 10
-7.953606
 20
-9.517593
 30
0.0
  0
VERTEX
  5
AC
100
AcDbEntity
  8
LIVELLO_1
 62
     7
100
AcDbVertex
100
AcDb2dVertex
 10
-8.37563
 20
-11.225671
 30
0.0
  0
VERTEX
  5
AD
100
AcDbEntity
  8
LIVELLO_1
 62
     7
100
AcDbVertex
100
AcDb2dVertex
 10
-6.244838
 20
-12.078333
 30
0.0
  0
VERTEX
  5
AE
100
AcDbEntity
  8
LIVELLO_1
 62
     7
100
AcDbVertex
100
AcDb2dVertex
 10
-5.392005
 20
-9.945129
 30
0.0
  0
SEQEND
  5
AF
100
AcDbEntity
  8
LIVELLO_1
 62
     7
  0
SPLINE
  5
A8
100
AcDbEntity
  8
LIVELLO_1
 62
     7
100
AcDbSpline
210
0.0
220
0.0
230
1.0
 70
     8
 71
     3
 72
    17
 73
    13
 74
     0
 42
0.00000001
 43
0.00000001
 40
0.0
 40
0.0
 40
0.0
 40
0.0
 40
1.0
 40
1.0
 40
1.0
 40
2.0
 40
2.0
 40
2.0
 40
3.0
 40
3.0
 40
3.0
 40
4.0
 40
4.0
 40
4.0
 40
4.0
 10
-14.142375352647568
 20
5.7827650282118048
 30
0.0
 10
-14.142375352647568
 20
5.7827650282118048
 30
0.0
 10
-12.760375298394097
 20
5.6594306098090277
 30
0.0
 10
-12.760375298394097
 20
5.6594306098090277
 30
0.0
 10
-12.760375298394097
 20
5.6594306098090277
 30
0.0
 10
-13.481950547960068
 20
2.3001180013020832
 30
0.0
 10
-13.481950547960068
 20
2.3001180013020832
 30
0.0
 10
-14.383015272352429
 20
3.0225545247395829
 30
0.0
 10
-15.627383761935763
 20
3.4535359700520831
 30
0.0
 10
-15.527648247612845
 20
4.617978244357638
 30
0.0
 10
-15.47166544596354
 20
5.253598361545138
 30
0.0
 10
-14.401274278428819
 20
5.2701348198784714
 30
0.0
 10
-14.142375352647568
 20
5.7827650282118048
 30
0.0
  0
SPLINE
  5
A7
100
AcDbEntity
  8
LIVELLO_1
 62
     7
100
AcDbSpline
210
0.0
220
0.0
230
1.0
 70
     8
 71
     3
 72
    23
 73
    19
 74
     0
 42
0.00000001
 43
0.00000001
 40
0.0
 40
0.0
 40
0.0
 40
0.0
 40
1.0
 40
1.0
 40
1.0
 40
2.0
 40
2.0
 40
2.0
 40
3.0
 40
3.0
 40
3.0
 40
4.0
 40
4.0
 40
4.0
 40
5.0
 40
5.0
 40
5.0
 40
6.0
 40
6.0
 40
6.0
 40
6.0
 10
24.194302707248262
 20
-0.32091064453125
 30
0.0
 10
24.194302707248262
 20
-0.32091064453125
 30
0.0
 10
24.433736843532984
 20
-2.4796074761284719
 30
0.0
 10
24.433736843532984
 20
-2.4796074761284719
 30
0.0
 10
23.114954291449649
 20
-2.8999091254340277
 30
0.0
 10
22.237832980685763
 20
-3.1445109049479165
 30
0.0
 10
20.926629638671873
 20
-3.4593926323784721
 30
0.0
 10
20.926629638671873
 20
-3.4593926323784721
 30
0.0
 10
19.264715576171874
 20
-2.8833726671006943
 30
0.0
 10
19.264715576171874
 20
-2.8833726671006943
 30
0.0
 10
19.264715576171874
 20
-2.8833726671006943
 30
0.0
 10
18.563638644748263
 20
-1.1122490776909721
 30
0.0
 10
18.563638644748263
 20
-1.1122490776909721
 30
0.0
 10
18.563638644748263
 20
-1.1122490776909721
 30
0.0
 10
20.797094048394094
 20
-0.0218763563368056
 30
0.0
 10
20.797094048394094
 20
-0.0218763563368056
 30
0.0
 10
20.797094048394094
 20
-0.0218763563368056
 30
0.0
 10
22.204415554470483
 20
0.1700154622395833
 30
0.0
 10
24.194302707248262
 20
-0.32091064453125
 30
0.0
  0
SPLINE
  5
A6
100
AcDbEntity
  8
LIVELLO_1
 62
     7
100
AcDbSpline
210
0.0
220
0.0
230
1.0
 70
     8
 71
     3
 72
    17
 73
    13
 74
     0
 42
0.00000001
 43
0.00000001
 40
0.0
 40
0.0
 40
0.0
 40
0.0
 40
1.0
 40
1.0
 40
1.0
 40
2.0
 40
2.0
 40
2.0
 40
3.0
 40
3.0
 40
3.0
 40
4.0
 40
4.0
 40
4.0
 40
4.0
 10
23.578664143880207
 20
11.140233018663194
 30
0.0
 10
24.835779486762149
 20
9.8507337782118043
 30
0.0
 10
25.850015597873263
 20
9.894141981336805
 30
0.0
 10
26.837035454644095
 20
8.3762329101562489
 30
0.0
 10
25.475878228081594
 20
7.0633070203993045
 30
0.0
 10
24.531233045789929
 20
8.08477783203125
 30
0.0
 10
22.616104465060761
 20
8.2528984917534718
 30
0.0
 10
21.073046196831594
 20
8.3886352539062496
 30
0.0
 10
17.671703423394096
 20
9.5933851453993046
 30
0.0
 10
17.804684109157986
 20
11.140233018663194
 30
0.0
 10
17.966259087456596
 20
12.990938313802083
 30
0.0
 10
21.725891791449651
 20
11.301118977864583
 30
0.0
 10
23.578664143880207
 20
11.140233018663194
 30
0.0
  0
SPLINE
  5
A5
100
AcDbEntity
  8
LIVELLO_1
 62
     7
100
AcDbSpline
210
0.0
220
0.0
230
1.0
 70
     8
 71
     3
 72
    17
 73
    13
 74
     0
 42
0.00000001
 43
0.00000001
 40
0.0
 40
0.0
 40
0.0
 40
0.0
 40
1.0
 40
1.0
 40
1.0
 40
2.0
 40
2.0
 40
2.0
 40
3.0
 40
3.0
 40
3.0
 40
4.0
 40
4.0
 40
4.0
 40
4.0
 10
31.354933675130205
 20
1.6769002278645833
 30
0.0
 10
32.611359998914928
 20
0.3801662868923611
 30
0.0
 10
33.203916422526042
 20
-0.6667982313368055
 30
0.0
 10
34.191625298394094
 20
-2.1826402452256941
 30
0.0
 10
32.830812581380208
 20
-3.4955661349826386
 30
0.0
 10
31.384561496310759
 20
-3.6819458007812496
 30
0.0
 10
29.470466444227426
 20
-3.512102593315972
 30
0.0
 10
27.923618570963541
 20
-3.3777438693576385
 30
0.0
 10
26.117010498046874
 20
-2.6587524414062496
 30
0.0
 10
26.252747260199651
 20
-1.1156941731770833
 30
0.0
 10
26.417767333984372
 20
0.7388007269965277
 30
0.0
 10
29.500094265407984
 20
1.837786187065972
 30
0.0
 10
31.354933675130205
 20
1.6769002278645833
 30
0.0
  0
SPLINE
  5
A4
100
AcDbEntity
  8
LIVELLO_1
 62
     7
100
AcDbSpline
210
0.0
220
0.0
230
1.0
 70
     8
 71
     3
 72
    20
 73
    16
 74
     0
 42
0.00000001
 43
0.00000001
 40
0.0
 40
0.0
 40
0.0
 40
0.0
 40
1.0
 40
1.0
 40
1.0
 40
2.0
 40
2.0
 40
2.0
 40
3.0
 40
3.0
 40
3.0
 40
4.0
 40
4.0
 40
4.0
 40
5.0
 40
5.0
 40
5.0
 40
5.0
 10
26.985519070095485
 20
6.8204277886284714
 30
0.0
 10
26.502516682942705
 20
3.7615275065104163
 30
0.0
 10
25.215773518880205
 20
1.245574273003472
 30
0.0
 10
22.136891682942707
 20
1.5173923068576387
 30
0.0
 10
20.013334825303819
 20
1.7020494249131943
 30
0.0
 10
19.216828748914928
 20
2.3669528537326388
 30
0.0
 10
18.196046956380208
 20
4.1673597547743055
 30
0.0
 10
18.196046956380208
 20
4.1673597547743055
 30
0.0
 10
18.808240424262152
 20
6.251642523871527
 30
0.0
 10
18.808240424262152
 20
6.251642523871527
 30
0.0
 10
21.063055419921874
 20
6.374976942274305
 30
0.0
 10
22.259537082248261
 20
6.5902954101562496
 30
0.0
 10
24.438904486762151
 20
7.0429809570312489
 30
0.0
 10
24.438904486762151
 20
7.0429809570312489
 30
0.0
 10
26.985519070095485
 20
6.8204277886284714
 30
0.0
 10
26.985519070095485
 20
6.8204277886284714
 30
0.0
  0
SPLINE
  5
A3
100
AcDbEntity
  8
LIVELLO_1
 62
     7
100
AcDbSpline
210
0.0
220
0.0
230
1.0
 70
     8
 71
     3
 72
    17
 73
    13
 74
     0
 42
0.00000001
 43
0.00000001
 40
0.0
 40
0.0
 40
0.0
 40
0.0
 40
1.0
 40
1.0
 40
1.0
 40
2.0
 40
2.0
 40
2.0
 40
3.0
 40
3.0
 40
3.0
 40
4.0
 40
4.0
 40
4.0
 40
4.0
 10
-19.253346761067707
 20
11.156080457899305
 30
0.0
 10
-19.386327446831597
 20
9.6095770941840275
 30
0.0
 10
-20.675826687282985
 20
8.4179185655381943
 30
0.0
 10
-22.220779758029511
 20
8.5536553276909721
 30
0.0
 10
-23.022108968098955
 20
8.6225572374131936
 30
0.0
 10
-24.058049180772567
 20
8.9012654622395821
 30
0.0
 10
-23.985702175564235
 20
9.7019056532118046
 30
0.0
 10
-23.78743693033854
 20
11.989104546440972
 30
0.0
 10
-23.514757622612844
 20
13.318911404079859
 30
0.0
 10
-21.297149658203121
 20
13.746103244357638
 30
0.0
 10
-21.394818115234372
 20
12.636093478732638
 30
0.0
 10
-19.156195068359374
 20
12.269879828559027
 30
0.0
 10
-19.253346761067707
 20
11.156080457899305
 30
0.0
  0
SPLINE
  5
A2
100
AcDbEntity
  8
LIVELLO_1
 62
     7
100
AcDbSpline
210
0.0
220
0.0
230
1.0
 70
     8
 71
     3
 72
    17
 73
    13
 74
     0
 42
0.00000001
 43
0.00000001
 40
0.0
 40
0.0
 40
0.0
 40
0.0
 40
1.0
 40
1.0
 40
1.0
 40
2.0
 40
2.0
 40
2.0
 40
3.0
 40
3.0
 40
3.0
 40
4.0
 40
4.0
 40
4.0
 40
4.0
 10
-26.074808078342013
 20
10.402982584635415
 30
0.0
 10
-26.209855821397568
 20
8.8561347113715279
 30
0.0
 10
-27.498321533203121
 20
7.6627536349826384
 30
0.0
 10
-29.043274603949651
 20
7.7984903971354163
 30
0.0
 10
-29.844603814019095
 20
7.8670477973090271
 30
0.0
 10
-30.881405300564232
 20
8.1461005316840271
 30
0.0
 10
-30.8090582953559
 20
8.9501858181423604
 30
0.0
 10
-30.610793050130205
 20
11.233939615885415
 30
0.0
 10
-29.043274603949651
 20
12.777342393663194
 30
0.0
 10
-26.825494384765623
 20
13.207979329427083
 30
0.0
 10
-26.924196370442704
 20
12.097969563802081
 30
0.0
 10
-25.978000895182291
 20
11.51471489800347
 30
0.0
 10
-26.074808078342013
 20
10.402982584635415
 30
0.0
  0
SPLINE
  5
A1
100
AcDbEntity
  8
LIVELLO_1
 62
     7
100
AcDbSpline
210
0.0
220
0.0
230
1.0
 70
     8
 71
     3
 72
    17
 73
    13
 74
     0
 42
0.00000001
 43
0.00000001
 40
0.0
 40
0.0
 40
0.0
 40
0.0
 40
1.0
 40
1.0
 40
1.0
 40
2.0
 40
2.0
 40
2.0
 40
3.0
 40
3.0
 40
3.0
 40
4.0
 40
4.0
 40
4.0
 40
4.0
 10
-34.098952229817705
 20
-2.0303670247395833
 30
0.0
 10
-31.998133002387149
 20
-2.2136461046006941
 30
0.0
 10
-30.081970893012151
 20
-3.8107923719618051
 30
0.0
 10
-30.267489284939234
 20
-5.9116115993923604
 30
0.0
 10
-30.44594523111979
 20
-7.951108127170138
 30
0.0
 10
-33.090228271484371
 20
-8.2787367078993039
 30
0.0
 10
-35.126796468098952
 20
-8.1033813476562493
 30
0.0
 10
-37.969344753689235
 20
-7.8532674153645825
 30
0.0
 10
-41.623213026258675
 20
-6.9131008572048609
 30
0.0
 10
-41.374993896484369
 20
-4.0715861002604159
 30
0.0
 10
-41.136937798394094
 20
-1.3496161566840277
 30
0.0
 10
-36.832807752821175
 20
-1.9797241210937497
 30
0.0
 10
-34.098952229817705
 20
-2.0303670247395833
 30
0.0
  0
SPLINE
  5
A0
100
AcDbEntity
  8
LIVELLO_1
 62
     7
100
AcDbSpline
210
0.0
220
0.0
230
1.0
 70
     8
 71
     3
 72
    20
 73
    16
 74
     0
 42
0.00000001
 43
0.00000001
 40
0.0
 40
0.0
 40
0.0
 40
0.0
 40
1.0
 40
1.0
 40
1.0
 40
2.0
 40
2.0
 40
2.0
 40
3.0
 40
3.0
 40
3.0
 40
4.0
 40
4.0
 40
4.0
 40
5.0
 40
5.0
 40
5.0
 40
5.0
 10
-29.600174289279511
 20
5.9801689995659713
 30
0.0
 10
-31.020931667751732
 20
6.1031589084201388
 30
0.0
 10
-32.189163547092008
 20
4.840875922309027
 30
0.0
 10
-32.314909532335065
 20
3.4156399197048608
 30
0.0
 10
-32.417401123046872
 20
2.2439629448784721
 30
0.0
 10
-32.476140001085064
 20
1.5608005099826388
 30
0.0
 10
-32.578459337022565
 20
0.38912353515625
 30
0.0
 10
-31.529083251953121
 20
0.2985175238715278
 30
0.0
 10
-30.972011311848956
 20
0.24959716796875
 30
0.0
 10
-29.922462972005206
 20
0.1593356662326389
 30
0.0
 10
-27.945667182074651
 20
-0.0167087131076389
 30
0.0
 10
-25.289670817057289
 20
-0.24649658203125
 30
0.0
 10
-25.117588297526041
 20
1.7296101888020832
 30
0.0
 10
-24.905714925130205
 20
4.1380764431423609
 30
0.0
 10
-27.190502251519096
 20
5.7720852322048604
 30
0.0
 10
-29.600174289279511
 20
5.9801689995659713
 30
0.0
  0
SPLINE
  5
9F
100
AcDbEntity
  8
LIVELLO_1
 62
     7
100
AcDbSpline
210
0.0
220
0.0
230
1.0
 70
     8
 71
     3
 72
    17
 73
    13
 74
     0
 42
0.00000001
 43
0.00000001
 40
0.0
 40
0.0
 40
0.0
 40
0.0
 40
1.0
 40
1.0
 40
1.0
 40
2.0
 40
2.0
 40
2.0
 40
3.0
 40
3.0
 40
3.0
 40
4.0
 40
4.0
 40
4.0
 40
4.0
 10
-19.603712972005205
 20
7.8436211480034714
 30
0.0
 10
-18.348492431640622
 20
6.550676812065972
 30
0.0
 10
-17.754557969835069
 20
5.5002671983506941
 30
0.0
 10
-16.766504584418403
 20
3.9823581271701385
 30
0.0
 10
-18.125767008463541
 20
2.6711547851562498
 30
0.0
 10
-19.573740641276039
 20
2.4847751193576388
 30
0.0
 10
-21.489902750651041
 20
2.6528957790798611
 30
0.0
 10
-23.034683566623261
 20
2.7889770507812499
 30
0.0
 10
-24.839741346571177
 20
3.506245930989583
 30
0.0
 10
-24.703832329644094
 20
5.0530938042534714
 30
0.0
 10
-24.542601860894095
 20
6.9017320421006936
 30
0.0
 10
-21.458207872178818
 20
8.0031290690104164
 30
0.0
 10
-19.603712972005205
 20
7.8436211480034714
 30
0.0
  0
SPLINE
  5
9E
100
AcDbEntity
  8
LIVELLO_1
 62
     7
100
AcDbSpline
210
0.0
220
0.0
230
1.0
 70
     8
 71
     3
 72
    14
 73
    10
 74
     0
 42
0.00000001
 43
0.00000001
 40
0.0
 40
0.0
 40
0.0
 40
0.0
 40
1.0
 40
1.0
 40
1.0
 40
2.0
 40
2.0
 40
2.0
 40
3.0
 40
3.0
 40
3.0
 40
3.0
 10
-9.85805460611979
 20
9.475562879774305
 30
0.0
 10
-10.035477023654513
 20
7.4360663519965273
 30
0.0
 10
-12.178154161241318
 20
6.4380221896701384
 30
0.0
 10
-14.216444905598957
 20
6.6213012695312496
 30
0.0
 10
-16.255941433376734
 20
6.7966566297743052
 30
0.0
 10
-17.508233642578123
 20
8.8344306098090275
 30
0.0
 10
-17.329777696397567
 20
10.875305175781248
 30
0.0
 10
-17.072601318359375
 20
13.840498860677082
 30
0.0
 10
-9.5981221516927082
 20
12.442134602864583
 30
0.0
 10
-9.85805460611979
 20
9.475562879774305
 30
0.0
  0
SPLINE
  5
9D
100
AcDbEntity
  8
LIVELLO_1
 62
     7
100
AcDbSpline
210
0.0
220
0.0
230
1.0
 70
     8
 71
     3
 72
    20
 73
    16
 74
     0
 42
0.00000001
 43
0.00000001
 40
0.0
 40
0.0
 40
0.0
 40
0.0
 40
1.0
 40
1.0
 40
1.0
 40
2.0
 40
2.0
 40
2.0
 40
3.0
 40
3.0
 40
3.0
 40
4.0
 40
4.0
 40
4.0
 40
5.0
 40
5.0
 40
5.0
 40
5.0
 10
-2.1227817111545138
 20
9.35601806640625
 30
0.0
 10
-2.2430155436197916
 20
7.9741902669270823
 30
0.0
 10
-3.3516472710503469
 20
7.5397637261284718
 30
0.0
 10
-4.0923428005642357
 20
6.4238972981770823
 30
0.0
 10
-4.0923428005642357
 20
6.4238972981770823
 30
0.0
 10
-9.7855353461371521
 20
4.1635701497395834
 30
0.0
 10
-9.7855353461371521
 20
4.1635701497395834
 30
0.0
 10
-9.7114657931857629
 20
5.0127861870659718
 30
0.0
 10
-8.3241258409288186
 20
8.1877861870659707
 30
0.0
 10
-8.2479892306857625
 20
9.0373467339409714
 30
0.0
 10
-8.0993333604600686
 20
10.734056260850693
 30
0.0
 10
-6.608812798394097
 20
11.887818739149305
 30
0.0
 10
-4.9102084689670136
 20
11.739335123697916
 30
0.0
 10
-3.5301032172309026
 20
11.616345214843749
 30
0.0
 10
-2.0015143500434025
 20
10.734056260850693
 30
0.0
 10
-2.1227817111545138
 20
9.35601806640625
 30
0.0
  0
SPLINE
  5
9C
100
AcDbEntity
  8
LIVELLO_1
 62
     7
100
AcDbSpline
210
0.0
220
0.0
230
1.0
 70
     8
 71
     3
 72
    20
 73
    16
 74
     0
 42
0.00000001
 43
0.00000001
 40
0.0
 40
0.0
 40
0.0
 40
0.0
 40
1.0
 40
1.0
 40
1.0
 40
2.0
 40
2.0
 40
2.0
 40
3.0
 40
3.0
 40
3.0
 40
4.0
 40
4.0
 40
4.0
 40
5.0
 40
5.0
 40
5.0
 40
5.0
 10
-25.963359239366316
 20
-1.4581366644965277
 30
0.0
 10
-22.969743516710068
 20
-2.6842461480034721
 30
0.0
 10
-19.683294677734374
 20
-4.2545206705729166
 30
0.0
 10
-19.973199462890623
 20
-7.5452758789062493
 30
0.0
 10
-20.054675971137151
 20
-8.5016343858506929
 30
0.0
 10
-21.124033610026039
 20
-8.5123141818576382
 30
0.0
 10
-21.817703586154511
 20
-9.0972913953993046
 30
0.0
 10
-21.817703586154511
 20
-9.0972913953993046
 30
0.0
 10
-27.869702826605899
 20
-8.5667466905381939
 30
0.0
 10
-27.869702826605899
 20
-8.5667466905381939
 30
0.0
 10
-27.865913221571176
 20
-7.2827596028645827
 30
0.0
 10
-28.117749701605899
 20
-6.5114027235243048
 30
0.0
 10
-28.007162136501734
 20
-5.2360283745659721
 30
0.0
 10
-27.85695597330729
 20
-3.537251790364583
 30
0.0
 10
-26.827216932508676
 20
-2.7748521592881943
 30
0.0
 10
-25.963359239366316
 20
-1.4581366644965277
 30
0.0
  0
SPLINE
  5
9B
100
AcDbEntity
  8
LIVELLO_1
 62
     7
100
AcDbSpline
210
0.0
220
0.0
230
1.0
 70
     8
 71
     3
 72
    23
 73
    19
 74
     0
 42
0.00000001
 43
0.00000001
 40
0.0
 40
0.0
 40
0.0
 40
0.0
 40
1.0
 40
1.0
 40
1.0
 40
2.0
 40
2.0
 40
2.0
 40
3.0
 40
3.0
 40
3.0
 40
4.0
 40
4.0
 40
4.0
 40
5.0
 40
5.0
 40
5.0
 40
6.0
 40
6.0
 40
6.0
 40
6.0
 10
14.763009304470485
 20
-7.4419230143229163
 30
0.0
 10
16.473843722873262
 20
-8.6645874023437486
 30
0.0
 10
17.09671698676215
 20
-10.109804958767361
 30
0.0
 10
17.776778835720485
 20
-12.094868977864582
 30
0.0
 10
17.776778835720485
 20
-12.094868977864582
 30
0.0
 10
17.204548475477431
 20
-13.755749511718749
 30
0.0
 10
17.204548475477431
 20
-13.755749511718749
 30
0.0
 10
16.460063340928819
 20
-13.690292697482638
 30
0.0
 10
15.932274712456596
 20
-13.646884494357638
 30
0.0
 10
15.18606703016493
 20
-13.580049641927083
 30
0.0
 10
12.85167032877604
 20
-13.375410970052082
 30
0.0
 10
11.011300320095485
 20
-11.180196126302082
 30
0.0
 10
11.216283501519095
 20
-8.8457994249131939
 30
0.0
 10
11.308612060546874
 20
-7.7843655056423602
 30
0.0
 10
12.389683024088541
 20
-7.6648206922743052
 30
0.0
 10
13.101439751519097
 20
-6.8731377495659718
 30
0.0
 10
13.101439751519097
 20
-6.8731377495659718
 30
0.0
 10
14.763009304470485
 20
-7.4419230143229163
 30
0.0
 10
14.763009304470485
 20
-7.4419230143229163
 30
0.0
  0
SPLINE
  5
9A
100
AcDbEntity
  8
LIVELLO_1
 62
     7
100
AcDbSpline
210
0.0
220
0.0
230
1.0
 70
     8
 71
     3
 72
    17
 73
    13
 74
     0
 42
0.00000001
 43
0.00000001
 40
0.0
 40
0.0
 40
0.0
 40
0.0
 40
1.0
 40
1.0
 40
1.0
 40
2.0
 40
2.0
 40
2.0
 40
3.0
 40
3.0
 40
3.0
 40
4.0
 40
4.0
 40
4.0
 40
4.0
 10
23.578664143880207
 20
-10.716830783420138
 30
0.0
 10
21.455107286241319
 20
-10.531829155815972
 30
0.0
 10
19.54617987738715
 20
-10.830863444010415
 30
0.0
 10
18.526431613498261
 20
-9.03045654296875
 30
0.0
 10
18.526431613498261
 20
-9.03045654296875
 30
0.0
 10
19.300200059678819
 20
-5.6039645724826386
 30
0.0
 10
19.300200059678819
 20
-5.6039645724826386
 30
0.0
 10
21.556393093532986
 20
-5.4823527018229159
 30
0.0
 10
22.604391140407984
 20
-6.1128051757812498
 30
0.0
 10
24.782380506727428
 20
-5.661842176649305
 30
0.0
 10
24.782380506727428
 20
-5.661842176649305
 30
0.0
 10
26.658579508463539
 20
-10.986237250434026
 30
0.0
 10
23.578664143880207
 20
-10.716830783420138
 30
0.0
  0
SPLINE
  5
99
100
AcDbEntity
  8
LIVELLO_1
 62
     7
100
AcDbSpline
210
0.0
220
0.0
230
1.0
 70
     8
 71
     3
 72
    14
 73
    10
 74
     0
 42
0.00000001
 43
0.00000001
 40
0.0
 40
0.0
 40
0.0
 40
0.0
 40
1.0
 40
1.0
 40
1.0
 40
2.0
 40
2.0
 40
2.0
 40
3.0
 40
3.0
 40
3.0
 40
3.0
 10
17.011623128255206
 20
2.2580878363715278
 30
0.0
 10
16.247156439887153
 20
2.1116712782118054
 30
0.0
 10
15.661490207248262
 20
1.5211819118923611
 30
0.0
 10
14.811929660373263
 20
1.5990410698784721
 30
0.0
 10
12.582608371310762
 20
1.791277398003472
 30
0.0
 10
11.688950602213541
 20
3.7977010091145829
 30
0.0
 10
10.910014512803819
 20
5.8967976888020832
 30
0.0
 10
13.610624864366319
 20
6.1937649197048605
 30
0.0
 10
15.833400472005208
 20
4.716163465711805
 30
0.0
 10
17.011623128255206
 20
2.2580878363715278
 30
0.0
  0
SPLINE
  5
98
100
AcDbEntity
  8
LIVELLO_1
 62
     7
100
AcDbSpline
210
0.0
220
0.0
230
1.0
 70
     8
 71
     3
 72
    23
 73
    19
 74
     0
 42
0.00000001
 43
0.00000001
 40
0.0
 40
0.0
 40
0.0
 40
0.0
 40
1.0
 40
1.0
 40
1.0
 40
2.0
 40
2.0
 40
2.0
 40
3.0
 40
3.0
 40
3.0
 40
4.0
 40
4.0
 40
4.0
 40
5.0
 40
5.0
 40
5.0
 40
6.0
 40
6.0
 40
6.0
 40
6.0
 10
15.829610866970485
 20
10.76712917751736
 30
0.0
 10
15.753818766276041
 20
9.9175686306423607
 30
0.0
 10
17.027815077039929
 20
9.8069810655381939
 30
0.0
 10
16.953745524088539
 20
8.9591430664062486
 30
0.0
 10
16.748073323567706
 20
6.6247463650173604
 30
0.0
 10
13.214783393012151
 20
7.7895331488715271
 30
0.0
 10
10.896234130859375
 20
8.2039781358506936
 30
0.0
 10
10.750851101345486
 20
8.9667222764756929
 30
0.0
 10
10.16036173502604
 20
9.5534220377604164
 30
0.0
 10
10.232364230685763
 20
10.402982584635415
 30
0.0
 10
10.306778293185763
 20
11.252198621961805
 30
0.0
 10
10.991663275824651
 20
11.728655327690971
 30
0.0
 10
11.267615424262152
 20
12.452814398871526
 30
0.0
 10
11.267615424262152
 20
12.452814398871526
 30
0.0
 10
15.089948866102429
 20
12.117951117621526
 30
0.0
 10
15.089948866102429
 20
12.117951117621526
 30
0.0
 10
15.089948866102429
 20
12.117951117621526
 30
0.0
 10
15.829610866970485
 20
10.76712917751736
 30
0.0
 10
15.829610866970485
 20
10.76712917751736
 30
0.0
  0
SPLINE
  5
97
100
AcDbEntity
  8
LIVELLO_1
 62
     7
100
AcDbSpline
210
0.0
220
0.0
230
1.0
 70
     8
 71
     3
 72
    17
 73
    13
 74
     0
 42
0.00000001
 43
0.00000001
 40
0.0
 40
0.0
 40
0.0
 40
0.0
 40
1.0
 40
1.0
 40
1.0
 40
2.0
 40
2.0
 40
2.0
 40
3.0
 40
3.0
 40
3.0
 40
4.0
 40
4.0
 40
4.0
 40
4.0
 10
13.819742160373263
 20
-0.2103230794270833
 30
0.0
 10
12.412420654296874
 20
-0.4056599934895833
 30
0.0
 10
10.753951687282985
 20
-1.0144083658854166
 30
0.0
 10
10.624071587456596
 20
-2.4995890299479164
 30
0.0
 10
10.512450493706597
 20
-3.7711737738715274
 30
0.0
 10
10.788058132595484
 20
-5.5095689561631938
 30
0.0
 10
12.063776991102429
 20
-5.6218790690104159
 30
0.0
 10
14.504282633463541
 20
-5.8337524414062498
 30
0.0
 10
17.309623887803816
 20
-5.5440199110243054
 30
0.0
 10
17.843958197699653
 20
-3.1300415039062499
 30
0.0
 10
18.222229682074651
 20
-1.2390285915798609
 30
0.0
 10
15.463052707248263
 20
-0.9978719075520832
 30
0.0
 10
13.819742160373263
 20
-0.2103230794270833
 30
0.0
  0
SPLINE
  5
96
100
AcDbEntity
  8
LIVELLO_1
 62
     7
100
AcDbSpline
210
0.0
220
0.0
230
1.0
 70
     8
 71
     3
 72
    23
 73
    19
 74
     0
 42
0.00000001
 43
0.00000001
 40
0.0
 40
0.0
 40
0.0
 40
0.0
 40
1.0
 40
1.0
 40
1.0
 40
2.0
 40
2.0
 40
2.0
 40
3.0
 40
3.0
 40
3.0
 40
4.0
 40
4.0
 40
4.0
 40
5.0
 40
5.0
 40
5.0
 40
6.0
 40
6.0
 40
6.0
 40
6.0
 10
8.0912373860677071
 20
10.328568522135416
 30
0.0
 10
8.0912373860677071
 20
10.328568522135416
 30
0.0
 10
8.7916252983940968
 20
8.5574449327256943
 30
0.0
 10
8.7916252983940968
 20
8.5574449327256943
 30
0.0
 10
6.7869242350260413
 20
7.6627536349826384
 30
0.0
 10
5.3144904242621527
 20
6.7187974717881938
 30
0.0
 10
3.0851691351996524
 20
6.9165459526909716
 30
0.0
 10
2.0227016872829857
 20
7.010597059461805
 30
0.0
 10
0.4872226291232639
 20
5.6849243164062493
 30
0.0
 10
-0.4405415852864583
 20
6.0869669596354159
 30
0.0
 10
-0.4405415852864583
 20
6.0869669596354159
 30
0.0
 10
0.7986592610677082
 20
10.111182996961805
 30
0.0
 10
0.7986592610677082
 20
10.111182996961805
 30
0.0
 10
2.6069898817274302
 20
11.233939615885415
 30
0.0
 10
4.3429734971788188
 20
11.51126980251736
 30
0.0
 10
6.5051154242621525
 20
11.752081976996527
 30
0.0
 10
6.5051154242621525
 20
11.752081976996527
 30
0.0
 10
8.0912373860677071
 20
10.328568522135416
 30
0.0
 10
8.0912373860677071
 20
10.328568522135416
 30
0.0
  0
SPLINE
  5
95
100
AcDbEntity
  8
LIVELLO_1
 62
     7
100
AcDbSpline
210
0.0
220
0.0
230
1.0
 70
     8
 71
     3
 72
    23
 73
    19
 74
     0
 42
0.00000001
 43
0.00000001
 40
0.0
 40
0.0
 40
0.0
 40
0.0
 40
1.0
 40
1.0
 40
1.0
 40
2.0
 40
2.0
 40
2.0
 40
3.0
 40
3.0
 40
3.0
 40
4.0
 40
4.0
 40
4.0
 40
5.0
 40
5.0
 40
5.0
 40
6.0
 40
6.0
 40
6.0
 40
6.0
 10
-15.371929931640624
 20
0.1789727105034722
 30
0.0
 10
-15.371929931640624
 20
0.1789727105034722
 30
0.0
 10
-15.13025648328993
 20
-1.9797241210937497
 30
0.0
 10
-15.13025648328993
 20
-1.9797241210937497
 30
0.0
 10
-16.452311876085069
 20
-2.3962361653645829
 30
0.0
 10
-17.329777696397567
 20
-2.6425604926215276
 30
0.0
 10
-18.640981038411457
 20
-2.953997124565972
 30
0.0
 10
-18.640981038411457
 20
-2.953997124565972
 30
0.0
 10
-20.302722846137151
 20
-2.380044216579861
 30
0.0
 10
-20.302722846137151
 20
-2.380044216579861
 30
0.0
 10
-20.302722846137151
 20
-2.380044216579861
 30
0.0
 10
-21.001732720269096
 20
-0.6089206271701388
 30
0.0
 10
-21.001732720269096
 20
-0.6089206271701388
 30
0.0
 10
-21.001732720269096
 20
-0.6089206271701388
 30
0.0
 10
-18.768794080946179
 20
0.4780069986979166
 30
0.0
 10
-18.768794080946179
 20
0.4780069986979166
 30
0.0
 10
-18.768794080946179
 20
0.4780069986979166
 30
0.0
 10
-17.36147257486979
 20
0.6771335177951389
 30
0.0
 10
-15.371929931640624
 20
0.1789727105034722
 30
0.0
  0
SPLINE
  5
94
100
AcDbEntity
  8
LIVELLO_1
 62
     7
100
AcDbSpline
210
0.0
220
0.0
230
1.0
 70
     8
 71
     3
 72
    20
 73
    16
 74
     0
 42
0.00000001
 43
0.00000001
 40
0.0
 40
0.0
 40
0.0
 40
0.0
 40
1.0
 40
1.0
 40
1.0
 40
2.0
 40
2.0
 40
2.0
 40
3.0
 40
3.0
 40
3.0
 40
4.0
 40
4.0
 40
4.0
 40
5.0
 40
5.0
 40
5.0
 40
5.0
 10
-7.5579366048177077
 20
2.2384507921006942
 30
0.0
 10
-7.575162082248263
 20
0.8528333875868055
 30
0.0
 10
-7.329699028862847
 20
-0.0256659613715278
 30
0.0
 10
-7.0163675944010411
 20
-1.338591851128472
 30
0.0
 10
-8.6744920518663182
 20
-1.9418280707465276
 30
0.0
 10
-9.3943447536892357
 20
-2.839964463975694
 30
0.0
 10
-11.095016140407985
 20
-2.6932033962673607
 30
0.0
 10
-11.836745198567707
 20
-2.6263685438368052
 30
0.0
 10
-12.367289903428818
 20
-2.5808932834201386
 30
0.0
 10
-13.110741509331596
 20
-2.514058430989583
 30
0.0
 10
-13.151565890842013
 20
-1.7661282009548609
 30
0.0
 10
-14.310668267144097
 20
-1.5559773763020832
 30
0.0
 10
-14.236426459418402
 20
-0.7064168294270833
 30
0.0
 10
-13.984762234157985
 20
2.1605916341145832
 30
0.0
 10
-10.388771565755208
 20
2.9157565646701387
 30
0.0
 10
-7.5579366048177077
 20
2.2384507921006942
 30
0.0
  0
SPLINE
  5
93
100
AcDbEntity
  8
LIVELLO_1
 62
     7
100
AcDbSpline
210
0.0
220
0.0
230
1.0
 70
     8
 71
     3
 72
    20
 73
    16
 74
     0
 42
0.00000001
 43
0.00000001
 40
0.0
 40
0.0
 40
0.0
 40
0.0
 40
1.0
 40
1.0
 40
1.0
 40
2.0
 40
2.0
 40
2.0
 40
3.0
 40
3.0
 40
3.0
 40
4.0
 40
4.0
 40
4.0
 40
5.0
 40
5.0
 40
5.0
 40
5.0
 10
-13.693134901258679
 20
-5.1002916124131943
 30
0.0
 10
-13.693134901258679
 20
-5.1002916124131943
 30
0.0
 10
-8.1627231174045125
 20
-5.4733954535590277
 30
0.0
 10
-8.1627231174045125
 20
-5.4733954535590277
 30
0.0
 10
-8.2741719563802079
 20
-6.7484252929687498
 30
0.0
 10
-8.3294657389322904
 20
-7.3857679578993052
 30
0.0
 10
-8.4426371256510411
 20
-8.6611423068576379
 30
0.0
 10
-8.8972174750434014
 20
-13.862547471788194
 30
0.0
 10
-15.612742106119791
 20
-13.596241590711804
 30
0.0
 10
-20.851526557074649
 20
-13.562135145399305
 30
0.0
 10
-20.536472574869791
 20
-9.9578762478298604
 30
0.0
 10
-18.568461778428819
 20
-7.0240329318576382
 30
0.0
 10
-15.078580050998262
 20
-6.261288791232638
 30
0.0
 10
-15.078580050998262
 20
-6.261288791232638
 30
0.0
 10
-13.693134901258679
 20
-5.1002916124131943
 30
0.0
 10
-13.693134901258679
 20
-5.1002916124131943
 30
0.0
  0
POLYLINE
  5
8C
100
AcDbEntity
  8
LIVELLO_1
 62
     7
100
AcDb2dPolyline
 66
     1
 10
0.0
 20
0.0
 30
0.0
 70
     1
  0
VERTEX
  5
8D
100
AcDbEntity
  8
LIVELLO_1
 62
     7
100
AcDbVertex
100
AcDb2dVertex
 10
-4.716939
 20
-0.320911
 30
0.0
  0
VERTEX
  5
8E
100
AcDbEntity
  8
LIVELLO_1
 62
     7
100
AcDbVertex
100
AcDb2dVertex
 10
-3.092576
 20
-1.31861
 30
0.0
  0
VERTEX
  5
8F
100
AcDbEntity
  8
LIVELLO_1
 62
     7
100
AcDbVertex
100
AcDb2dVertex
 10
-2.816279
 20
-3.051838
 30
0.0
  0
VERTEX
  5
90
100
AcDbEntity
  8
LIVELLO_1
 62
     7
100
AcDbVertex
100
AcDb2dVertex
 10
-5.015284
 20
-3.718464
 30
0.0
  0
VERTEX
  5
91
100
AcDbEntity
  8
LIVELLO_1
 62
     7
100
AcDbVertex
100
AcDb2dVertex
 10
-5.679671
 20
-1.523249
 30
0.0
  0
SEQEND
  5
92
100
AcDbEntity
  8
LIVELLO_1
 62
     7
  0
SPLINE
  5
8B
100
AcDbEntity
  8
LIVELLO_1
 62
     7
100
AcDbSpline
210
0.0
220
0.0
230
1.0
 70
     8
 71
     3
 72
    23
 73
    19
 74
     0
 42
0.00000001
 43
0.00000001
 40
0.0
 40
0.0
 40
0.0
 40
0.0
 40
1.0
 40
1.0
 40
1.0
 40
2.0
 40
2.0
 40
2.0
 40
3.0
 40
3.0
 40
3.0
 40
4.0
 40
4.0
 40
4.0
 40
5.0
 40
5.0
 40
5.0
 40
6.0
 40
6.0
 40
6.0
 40
6.0
 10
9.0310594346788182
 20
3.0552829318576387
 30
0.0
 10
9.0310594346788182
 20
3.0552829318576387
 30
0.0
 10
10.154849582248263
 20
1.245574273003472
 30
0.0
 10
10.154849582248263
 20
1.245574273003472
 30
0.0
 10
8.7303025987413179
 20
0.8366414388020833
 30
0.0
 10
7.92139417860243
 20
0.1593356662326389
 30
0.0
 10
6.4344909667968748
 20
0.2916273328993055
 30
0.0
 10
4.9486212836371521
 20
0.4163397894965277
 30
0.0
 10
4.2068922254774304
 20
0.4831746419270833
 30
0.0
 10
2.7199890136718747
 20
0.6137437608506944
 30
0.0
 10
2.6975958930121524
 20
1.5773369683159721
 30
0.0
 10
2.4250888400607638
 20
2.1371649848090275
 30
0.0
 10
2.5081156412760413
 20
3.0914564344618052
 30
0.0
 10
2.7220560709635415
 20
5.5343736436631943
 30
0.0
 10
5.9539001464843748
 20
5.7879326714409718
 30
0.0
 10
8.3761467827690961
 20
5.3607408311631941
 30
0.0
 10
8.3761467827690961
 20
5.3607408311631941
 30
0.0
 10
9.0310594346788182
 20
3.0552829318576387
 30
0.0
 10
9.0310594346788182
 20
3.0552829318576387
 30
0.0
  0
SPLINE
  5
8A
100
AcDbEntity
  8
LIVELLO_1
 62
     7
100
AcDbSpline
210
0.0
220
0.0
230
1.0
 70
     8
 71
     3
 72
    26
 73
    22
 74
     0
 42
0.00000001
 43
0.00000001
 40
0.0
 40
0.0
 40
0.0
 40
0.0
 40
1.0
 40
1.0
 40
1.0
 40
2.0
 40
2.0
 40
2.0
 40
3.0
 40
3.0
 40
3.0
 40
4.0
 40
4.0
 40
4.0
 40
5.0
 40
5.0
 40
5.0
 40
6.0
 40
6.0
 40
6.0
 40
7.0
 40
7.0
 40
7.0
 40
7.0
 10
-1.8609544542100693
 20
2.7435017903645833
 30
0.0
 10
-1.8609544542100693
 20
2.7435017903645833
 30
0.0
 10
0.2253953721788194
 20
2.1371649848090275
 30
0.0
 10
0.2253953721788194
 20
2.1371649848090275
 30
0.0
 10
0.2253953721788194
 20
2.1371649848090275
 30
0.0
 10
0.5013475206163194
 20
0.3967027452256944
 30
0.0
 10
0.5013475206163194
 20
0.3967027452256944
 30
0.0
 10
-0.5680101182725694
 20
0.3839558919270833
 30
0.0
 10
-1.2342915852864582
 20
0.1228176540798611
 30
0.0
 10
-2.2946919759114581
 20
0.2172132703993056
 30
0.0
 10
-3.4646464029947914
 20
0.3184990776909722
 30
0.0
 10
-3.6803093804253471
 20
1.5136027018229166
 30
0.0
 10
-4.4819831000434025
 20
2.1185614691840278
 30
0.0
 10
-4.4819831000434025
 20
2.1185614691840278
 30
0.0
 10
-4.3259202745225691
 20
3.9265475802951384
 30
0.0
 10
-4.3259202745225691
 20
3.9265475802951384
 30
0.0
 10
-4.3259202745225691
 20
3.9265475802951384
 30
0.0
 10
-2.5510070800781248
 20
4.623834906684027
 30
0.0
 10
-2.5510070800781248
 20
4.623834906684027
 30
0.0
 10
-2.5510070800781248
 20
4.623834906684027
 30
0.0
 10
-1.8609544542100693
 20
2.7435017903645833
 30
0.0
 10
-1.8609544542100693
 20
2.7435017903645833
 30
0.0
  0
SPLINE
  5
89
100
AcDbEntity
  8
LIVELLO_1
 62
     7
100
AcDbSpline
210
0.0
220
0.0
230
1.0
 70
     8
 71
     3
 72
    17
 73
    13
 74
     0
 42
0.00000001
 43
0.00000001
 40
0.0
 40
0.0
 40
0.0
 40
0.0
 40
1.0
 40
1.0
 40
1.0
 40
2.0
 40
2.0
 40
2.0
 40
3.0
 40
3.0
 40
3.0
 40
4.0
 40
4.0
 40
4.0
 40
4.0
 10
4.7963480631510409
 20
-10.995539008246526
 30
0.0
 10
3.0958489312065969
 20
-12.131042480468748
 30
0.0
 10
1.9596564398871525
 20
-12.886207411024305
 30
0.0
 10
-0.0598585340711806
 20
-12.708784993489582
 30
0.0
 10
-2.6064731174045135
 20
-12.489676920572915
 30
0.0
 10
-4.5422722710503471
 20
-10.180429416232638
 30
0.0
 10
-4.322130669487847
 20
-7.6320922851562489
 30
0.0
 10
-4.1088792588975691
 20
-5.1853854709201386
 30
0.0
 10
-0.576278347439236
 20
-2.7166300455729164
 30
0.0
 10
1.1100958930121527
 20
-4.2545206705729166
 30
0.0
 10
3.1819763183593746
 20
-6.2540540907118052
 30
0.0
 10
3.4193433973524301
 20
-8.4148179796006932
 30
0.0
 10
4.7963480631510409
 20
-10.995539008246526
 30
0.0
  0
LINE
  5
88
100
AcDbEntity
  8
LIVELLO_1
 62
     7
100
AcDbLine
 10
-0.588681
 20
-4.108104
 30
0.0
 11
1.110096
 21
-4.254521
 31
0.0
  0
SPLINE
  5
87
100
AcDbEntity
  8
LIVELLO_1
 62
     7
100
AcDbSpline
210
0.0
220
0.0
230
1.0
 70
     8
 71
     3
 72
    14
 73
    10
 74
     0
 42
0.00000001
 43
0.00000001
 40
0.0
 40
0.0
 40
0.0
 40
0.0
 40
1.0
 40
1.0
 40
1.0
 40
2.0
 40
2.0
 40
2.0
 40
3.0
 40
3.0
 40
3.0
 40
3.0
 10
10.093871392144097
 20
-7.5418307834201386
 30
0.0
 10
9.4575622558593739
 20
-7.4873982747395829
 30
0.0
 10
9.1016838921440968
 20
-7.8822062174479157
 30
0.0
 10
8.4650302463107625
 20
-7.82777370876736
 30
0.0
 10
4.9624016655815968
 20
-7.5201266818576382
 30
0.0
 10
3.0989495171440971
 20
-4.3613186306423604
 30
0.0
 10
2.5453226725260416
 20
-0.8896959092881943
 30
0.0
 10
6.5109720865885414
 20
-0.8080471462673611
 30
0.0
 10
9.1550828721788182
 20
-3.6082207573784717
 30
0.0
 10
10.093871392144097
 20
-7.5418307834201386
 30
0.0
  0
ENDBLK
  5
B2
100
AcDbEntity
  8
LIVELLO_1
100
AcDbBlockEnd
  0
ENDSEC
  0
SECTION
  2
ENTITIES
  0
INSERT
  5
2A
100
AcDbEntity
  8
LIVELLO_1
 62
     7
100
AcDbBlockReference
  2
AI9-BLK1
 10
99.400651
 20
161.759722
 30
0.0
  0
ENDSEC
  0
SECTION
  2
OBJECTS
  0
DICTIONARY
  5
19
100
AcDbDictionary
280
     0
281
     1
  3
ACAD_GROUP
350
1A
  3
ACAD_MLINESTYLE
350
1B
  3
ACAD_LAYOUT
350
1E
  3
ACAD_PLOTSETTINGS
350
22
  3
ACAD_PLOTSTYLENAME
350
1F
  3
ACAD_WIPEOUT_VARS
350
23
  0
DICTIONARY
  5
1A
102
{ACAD_REACTORS
330
19
102
}
100
AcDbDictionary
280
     0
281
     1
  0
DICTIONARY
  5
1B
102
{ACAD_REACTORS
330
19
102
}
100
AcDbDictionary
280
     0
281
     1
  3
Standard
350
1C
  0
MLINESTYLE
  5
1C
102
{ACAD_REACTORS
330
1B
102
}
100
AcDbMlineStyle
  2
Standard
 70
     0
  3

 62
     0
 51
90.0
 52
90.0
 71
     2
 49
0.5
 62
   256
  6
ByLayer
 49
-0.5
 62
   256
  6
ByLayer
  0
ACDBDICTIONARYWDFLT
  5
1F
102
{ACAD_REACTORS
330
19
102
}
100
AcDbDictionary
281
     1
  3
Normal
350
1D
100
AcDbDictionaryWithDefault
340
1D
  0
ACDBPLACEHOLDER
  5
1D
102
{ACAD_REACTORS
330
1F
102
}
  0
LAYOUT
  5
20
102
{ACAD_REACTORS
330
1E
102
}
100
AcDbPlotSettings
  1

  2

  4

  6

 40
0.0
 41
0.0
 42
0.0
 43
0.0
 44
0.0
 45
0.0
 46
0.0
 47
0.0
 48
0.0
 49
0.0
140
0.0
141
0.0
142
1.0
143
1.0
 70
  1024
 72
     0
 73
     0
 74
     0
  7

 75
     0
147
1.0
148
0.0
149
0.0
100
AcDbLayout
  1
Model
 70
     0
 71
     0
 10
0.0
 20
0.0
 11
0.0
 21
0.0
 12
0.0
 22
0.0
 32
0.0
 14
0.0
 24
0.0
 34
0.0
 15
0.0
 25
0.0
 35
0.0
146
0.0
 13
0.0
 23
0.0
 33
0.0
 16
0.0
 26
0.0
 36
0.0
 17
0.0
 27
0.0
 37
0.0
 76
     0
330
A
331
0
345
0
346
0
  0
LAYOUT
  5
21
102
{ACAD_REACTORS
330
1E
102
}
100
AcDbPlotSettings
  1

  2

  4

  6

 40
0.0
 41
0.0
 42
0.0
 43
0.0
 44
0.0
 45
0.0
 46
0.0
 47
0.0
 48
0.0
 49
0.0
140
0.0
141
0.0
142
1.0
143
1.0
 70
     0
 72
     0
 73
     0
 74
     0
  7

 75
     0
147
1.0
148
0.0
149
0.0
100
AcDbLayout
  1
Layout1
 70
     0
 71
     0
 10
0.0
 20
0.0
 11
0.0
 21
0.0
 12
0.0
 22
0.0
 32
0.0
 14
0.0
 24
0.0
 34
0.0
 15
0.0
 25
0.0
 35
0.0
146
0.0
 13
0.0
 23
0.0
 33
0.0
 16
0.0
 26
0.0
 36
0.0
 17
0.0
 27
0.0
 37
0.0
 76
     0
330
B
331
0
345
0
346
0
  0
DICTIONARY
  5
1E
102
{ACAD_REACTORS
330
19
102
}
100
AcDbDictionary
280
     0
281
     1
  3
Layout1
350
21
  3
Model
350
20
  0
DICTIONARY
  5
22
102
{ACAD_REACTORS
330
19
102
}
100
AcDbDictionary
280
     0
281
     1
  0
WIPEOUTVARIABLES
  5
23
100
AcDbWipeoutVariables
 70
     1
  0
ENDSEC
  0
EOF
