  0
SECTION
  2
HEADER
  9
$ACADVER
  1
AC1015
  9
$ACADMAINTVER
 70
     6
  9
$DWGCODEPAGE
  3
ANSI_932
  9
$INSBASE
 10
0.0
 20
0.0
 30
0.0
  9
$EXTMIN
 10
0.0
 20
2.308903
 30
1.000000E+20
  9
$EXTMAX
 10
52.893585
 20
231.224646
 30
-1.000000E+20
  9
$LIMMIN
 10
0.0
 20
2.308903
  9
$LIMMAX
 10
52.893585
 20
231.224646
  9
$ORTHOMODE
 70
     0
  9
$REGENMODE
 70
     1
  9
$FILLMODE
 70
     1
  9
$QTEXTMODE
 70
     0
  9
$MIRRTEXT
 70
     1
  9
$LTSCALE
 40
1.0
  9
$ATTMODE
 70
     1
  9
$TEXTSIZE
 40
0.2
  9
$TRACEWID
 40
0.05
  9
$TEXTSTYLE
  7
Standard
  9
$CLAYER
  8
0
  9
$CELTYPE
  6
Continuous
  9
$CECOLOR
 62
   256
  9
$CELTSCALE
 40
1.0
  9
$DISPSILH
 70
     0
  9
$DIMSCALE
 40
1.0
  9
$DIMASZ
 40
0.18
  9
$DIMEXO
 40
0.0625
  9
$DIMDLI
 40
0.38
  9
$DIMRND
 40
0.0
  9
$DIMDLE
 40
0.0
  9
$DIMEXE
 40
0.18
  9
$DIMTP
 40
0.0
  9
$DIMTM
 40
0.0
  9
$DIMTXT
 40
0.18
  9
$DIMCEN
 40
0.09
  9
$DIMTSZ
 40
0.0
  9
$DIMTOL
 70
     0
  9
$DIMLIM
 70
     0
  9
$DIMTIH
 70
     1
  9
$DIMTOH
 70
     1
  9
$DIMSE1
 70
     0
  9
$DIMSE2
 70
     0
  9
$DIMTAD
 70
     0
  9
$DIMZIN
 70
     0
  9
$DIMBLK
  1

  9
$DIMASO
 70
     1
  9
$DIMSHO
 70
     1
  9
$DIMPOST
  1

  9
$DIMAPOST
  1

  9
$DIMALT
 70
     0
  9
$DIMALTD
 70
     2
  9
$DIMALTF
 40
25.4
  9
$DIMLFAC
 40
1.0
  9
$DIMTOFL
 70
     0
  9
$DIMTVP
 40
0.0
  9
$DIMTIX
 70
     0
  9
$DIMSOXD
 70
     0
  9
$DIMSAH
 70
     0
  9
$DIMBLK1
  1

  9
$DIMBLK2
  1

  9
$DIMSTYLE
  2
Standard
  9
$DIMCLRD
 70
     0
  9
$DIMCLRE
 70
     0
  9
$DIMCLRT
 70
     0
  9
$DIMTFAC
 40
1.0
  9
$DIMGAP
 40
0.09
  9
$DIMJUST
 70
     0
  9
$DIMSD1
 70
     0
  9
$DIMSD2
 70
     0
  9
$DIMTOLJ
 70
     1
  9
$DIMTZIN
 70
     0
  9
$DIMALTZ
 70
     0
  9
$DIMALTTZ
 70
     0
  9
$DIMUPT
 70
     0
  9
$DIMDEC
 70
     4
  9
$DIMTDEC
 70
     4
  9
$DIMALTU
 70
     2
  9
$DIMALTTD
 70
     2
  9
$DIMTXSTY
  7
Standard
  9
$DIMAUNIT
 70
     0
  9
$DIMADEC
 70
     0
  9
$DIMALTRND
 40
0.0
  9
$DIMAZIN
 70
     0
  9
$DIMDSEP
 70
     0
  9
$DIMATFIT
 70
     3
  9
$DIMFRAC
 70
     0
  9
$DIMLDRBLK
  1

  9
$DIMLUNIT
 70
     2
  9
$DIMLWD
 70
     0
  9
$DIMLWE
 70
     0
  9
$DIMTMOVE
 70
     0
  9
$LUNITS
 70
     2
  9
$LUPREC
 70
     4
  9
$SKETCHINC
 40
0.1
  9
$FILLETRAD
 40
0.0
  9
$AUNITS
 70
     0
  9
$AUPREC
 70
     0
  9
$MENU
  1
acad
  9
$ELEVATION
 40
0.0
  9
$PELEVATION
 40
0.0
  9
$THICKNESS
 40
0.0
  9
$LIMCHECK
 70
     0
  9
$CHAMFERA
 40
0.0
  9
$CHAMFERB
 40
0.0
  9
$CHAMFERC
 40
0.0
  9
$CHAMFERD
 40
0.0
  9
$SKPOLY
 70
     0
  9
$TDCREATE
 40
0.000000000
  9
$TDUCREATE
 40
0.000000000
  9
$TDUPDATE
 40
0.000000000
  9
$TDUUPDATE
 40
0.000000000
  9
$TDINDWG
 40
0.0000000000
  9
$TDUSRTIMER
 40
0.0000000000
  9
$USRTIMER
 70
     1
  9
$ANGBASE
 50
0.0
  9
$ANGDIR
 70
     0
  9
$PDMODE
 70
     0
  9
$PDSIZE
 40
0.0
  9
$PLINEWID
 40
0.0
  9
$SPLFRAME
 70
     0
  9
$SPLINETYPE
 70
     6
  9
$SPLINESEGS
 70
     8
  9
$HANDSEED
  5
8D
  9
$SURFTAB1
 70
     6
  9
$SURFTAB2
 70
     6
  9
$SURFTYPE
 70
     6
  9
$SURFU
 70
     6
  9
$SURFV
 70
     6
  9
$UCSBASE
  2

  9
$UCSNAME
  2

  9
$UCSORG
 10
0.0
 20
0.0
 30
0.0
  9
$UCSXDIR
 10
1.0
 20
0.0
 30
0.0
  9
$UCSYDIR
 10
0.0
 20
1.0
 30
0.0
  9
$UCSORTHOREF
  2

  9
$UCSORTHOVIEW
 70
     0
  9
$UCSORGTOP
 10
0.0
 20
0.0
 30
0.0
  9
$UCSORGBOTTOM
 10
0.0
 20
0.0
 30
0.0
  9
$UCSORGLEFT
 10
0.0
 20
0.0
 30
0.0
  9
$UCSORGRIGHT
 10
0.0
 20
0.0
 30
0.0
  9
$UCSORGFRONT
 10
0.0
 20
0.0
 30
0.0
  9
$UCSORGBACK
 10
0.0
 20
0.0
 30
0.0
  9
$PUCSBASE
  2

  9
$PUCSNAME
  2

  9
$PUCSORG
 10
0.0
 20
0.0
 30
0.0
  9
$PUCSXDIR
 10
1.0
 20
0.0
 30
0.0
  9
$PUCSYDIR
 10
0.0
 20
1.0
 30
0.0
  9
$PUCSORTHOREF
  2

  9
$PUCSORTHOVIEW
 70
     0
  9
$PUCSORGTOP
 10
0.0
 20
0.0
 30
0.0
  9
$PUCSORGBOTTOM
 10
0.0
 20
0.0
 30
0.0
  9
$PUCSORGLEFT
 10
0.0
 20
0.0
 30
0.0
  9
$PUCSORGRIGHT
 10
0.0
 20
0.0
 30
0.0
  9
$PUCSORGFRONT
 10
0.0
 20
0.0
 30
0.0
  9
$PUCSORGBACK
 10
0.0
 20
0.0
 30
0.0
  9
$USERI1
 70
     0
  9
$USERI2
 70
     0
  9
$USERI3
 70
     0
  9
$USERI4
 70
     0
  9
$USERI5
 70
     0
  9
$USERR1
 40
0.0
  9
$USERR2
 40
0.0
  9
$USERR3
 40
0.0
  9
$USERR4
 40
0.0
  9
$USERR5
 40
0.0
  9
$WORLDVIEW
 70
     1
  9
$SHADEDGE
 70
     3
  9
$SHADEDIF
 70
    70
  9
$TILEMODE
 70
     1
  9
$MAXACTVP
 70
    16
  9
$PINSBASE
 10
0.0
 20
0.0
 30
0.0
  9
$PLIMCHECK
 70
     0
  9
$PEXTMIN
 10
1.000000E+20
 20
1.000000E+20
 30
1.000000E+20
  9
$PEXTMAX
 10
-1.000000E+20
 20
-1.000000E+20
 30
-1.000000E+20
  9
$PLIMMIN
 10
0.0
 20
0.0
  9
$PLIMMAX
 10
12.0
 20
9.0
  9
$UNITMODE
 70
     0
  9
$VISRETAIN
 70
     0
  9
$PLINEGEN
 70
     1
  9
$PSLTSCALE
 70
     0
  9
$TREEDEPTH
 70
  3020
  9
$CMLSTYLE
  2
Standard
  9
$CMLJUST
 70
     0
  9
$CMLSCALE
 40
1.0
  9
$PROXYGRAPHICS
 70
     0
  9
$MEASUREMENT
 70
     1
  9
$CELWEIGHT
370
     0
  9
$ENDCAPS
280
     0
  9
$JOINSTYLE
280
     0
  9
$LWDISPLAY
290
     0
  9
$INSUNITS
 70
     0
  9
$HYPERLINKBASE
  1

  9
$STYLESHEET
  1

  9
$XEDIT
290
     1
  9
$CEPSNTYPE
380
     0
  9
$PSTYLEMODE
290
     1
  9
$FINGERPRINTGUID
  2

  9
$VERSIONGUID
  2

  9
$EXTNAMES
290
     1
  9
$PSVPSCALE
 40
0.0
  0
ENDSEC
  0
SECTION
  2
CLASSES
  0
CLASS
  1
LWPOLYLINE
  2
AcDbPolyline
  3
AutoCAD 2000
 90
    32768
280
     0
281
     1
  0
CLASS
  1
IMAGE
  2
AcDbRasterImage
  3
ISM
 90
    32895
280
     0
281
     1
  0
CLASS
  1
OLE2FRAME
  2
AcDbOle2Frame
  3
AutoCAD 2000
 90
    32768
280
     0
281
     1
  0
CLASS
  1
HATCH
  2
AcDbHatch
  3
AutoCAD 2000
 90
    32768
280
     0
281
     1
  0
CLASS
  1
DICTIONARYVAR
  2
AcDbDictionaryVar
  3
AutoCAD 2000
 90
    32768
280
     0
281
     0
  0
CLASS
  1
RASTERVARIABLES
  2
AcDbRasterVariables
  3
ISM
 90
    32768
280
     0
281
     0
  0
CLASS
  1
IMAGEDEF
  2
AcDbRasterImageDef
  3
ISM
 90
    32768
280
     0
281
     0
  0
CLASS
  1
IMAGEDEF_REACTOR
  2
AcDbRasterImageDefReactor
  3
ISM
 90
    32769
280
     0
281
     0
  0
CLASS
  1
IDBUFFER
  2
AcDbIdBuffer
  3
AutoCAD 2000
 90
    32768
280
     0
281
     0
  0
CLASS
  1
SPATIAL_FILTER
  2
AcDbSpatialFilter
  3
AutoCAD 2000
 90
    32768
280
     0
281
     0
  0
CLASS
  1
XRECORD
  2
AcDbXrecord
  3
AutoCAD 2000
 90
    32768
280
     0
281
     0
  0
CLASS
  1
SORTENTSTABLE
  2
AcDbSortentsTable
  3
AutoCAD 2000
 90
    32768
280
     0
281
     0
  0
CLASS
  1
LAYER_INDEX
  2
AcDbLayerIndex
  3
AutoCAD 2000
 90
    32768
280
     0
281
     0
  0
CLASS
  1
SPATIAL_INDEX
  2
AcDbSpatialIndex
  3
AutoCAD 2000
 90
    32768
280
     0
281
     0
  0
CLASS
  1
OBJECT_PTR
  2
CAseDLPNTableRecord
  3
"ASE-LPNTableRecord"
 90
    32769
280
     0
281
     0
  0
CLASS
  1
LAYOUT
  2
AcDbLayout
  3
AutoCAD 2000
 90
        0
280
     0
281
     0
  0
CLASS
  1
PLOTSETTINGS
  2
AcDbPlotSettings
  3
AutoCAD 2000
 90
    32768
280
     0
281
     0
  0
CLASS
  1
ACDBDICTIONARYWDFLT
  2
AcDbDictionaryWithDefault
  3
AutoCAD 2000
 90
        0
280
     0
281
     0
  0
CLASS
  1
ACDBPLACEHOLDER
  2
AcDbPlaceHolder
  3
AutoCAD 2000
 90
        0
280
     0
281
     0
  0
CLASS
  1
VBA_PROJECT
  2
AcDbVbaProject
  3
acadvba
 90
    32768
280
     0
281
     0
  0
CLASS
  1
WIPEOUT
  2
AcDbWipeout
  3
WipeOut|AutoCAD Express Tool|expresstools@autodesk.com
 90
    32895
280
     0
281
     1
  0
CLASS
  1
WIPEOUTVARIABLES
  2
AcDbWipeoutVariables
  3
WipeOut|AutoCAD Express Tool|expresstools@autodesk.com
 90
        0
280
     0
281
     0
  0
CLASS
  1
RTEXT
  2
RText
  3
RText|AutoCAD Express Tool|expresstools@autodesk.com
 90
    32768
280
     0
281
     1
  0
CLASS
  1
ARCALIGNEDTEXT
  2
AcDbArcAlignedText
  3
ATEXT|AutoCAD Express Tool|expresstools@autodesk.com
 90
    32768
280
     0
281
     1
  0
ENDSEC
  0
SECTION
  2
TABLES
  0
TABLE
  2
VPORT
  5
7
100
AcDbSymbolTable
 70
     1
  0
VPORT
  5
15
100
AcDbSymbolTableRecord
100
AcDbViewportTableRecord
  2
*ACTIVE
 70
     0
 10
0.0
 20
0.0
 11
1.0
 21
1.0
 12
6.591288
 22
4.579184
 13
0.0
 23
0.0
 14
1.0
 24
1.0
 15
0.0
 25
0.0
 16
0.0
 26
0.0
 36
1.0
 17
0.0
 27
0.0
 37
0.0
 40
9.158369
 41
0.688564
 42
50.0
 43
0.0
 44
0.0
 50
0.0
 51
0.0
 71
     0
 72
   100
 73
     1
 74
     1
 75
     0
 76
     0
 77
     0
 78
     0
281
     0
 65
     0
110
0.0
120
0.0
130
0.0
111
1.0
121
0.0
131
0.0
112
0.0
122
1.0
132
0.0
345
0
346
0
 79
     0
146
0.0
  0
ENDTAB
  0
TABLE
  2
LTYPE
  5
4
100
AcDbSymbolTable
 70
     3
  0
LTYPE
  5
11
100
AcDbSymbolTableRecord
100
AcDbLinetypeTableRecord
  2
ByBlock
 70
    64
  3

 72
    65
 73
     0
 40
0.0
  0
LTYPE
  5
12
100
AcDbSymbolTableRecord
100
AcDbLinetypeTableRecord
  2
ByLayer
 70
    64
  3

 72
    65
 73
     0
 40
0.0
  0
LTYPE
  5
13
100
AcDbSymbolTableRecord
100
AcDbLinetypeTableRecord
  2
Continuous
 70
    64
  3
Solid line
 72
    65
 73
     0
 40
0.0
  0
ENDTAB
  0
TABLE
  2
LAYER
  5
2
100
AcDbSymbolTable
 70
     2
  0
LAYER
  5
14
100
AcDbSymbolTableRecord
100
AcDbLayerTableRecord
  2
0
 70
     0
 62
     7
  6
Continuous
290
     1
370
    -3
390
1D
  0
LAYER
  5
28
100
AcDbSymbolTableRecord
100
AcDbLayerTableRecord
  2
LIVELLO_1
 70
     0
 62
   160
  6
Continuous
290
     1
370
    -3
390
1D
  0
ENDTAB
  0
TABLE
  2
STYLE
  5
3
100
AcDbSymbolTable
 70
     5
  0
STYLE
  5
17
100
AcDbSymbolTableRecord
100
AcDbTextStyleTableRecord
  2
Standard
 70
     0
 40
0.0
 41
1.0
 50
0.0
 71
     0
 42
0.0
  3
txt
  4

  0
STYLE
  5
24
100
AcDbSymbolTableRecord
100
AcDbTextStyleTableRecord
  2
STD
 70
     0
 40
0.0
 41
1.0
 50
0.0
 71
     0
 42
0.0
  3
txt
  4

  0
STYLE
  5
25
100
AcDbSymbolTableRecord
100
AcDbTextStyleTableRecord
  2
TATESTD
 70
     4
 40
0.0
 41
1.0
 50
0.0
 71
     0
 42
0.0
  3
txt
  4

  0
STYLE
  5
26
100
AcDbSymbolTableRecord
100
AcDbTextStyleTableRecord
  2
KANJISTD
 70
     0
 40
0.0
 41
1.0
 50
0.0
 71
     0
 42
0.0
  3
txt
  4
extfont
  0
STYLE
  5
27
100
AcDbSymbolTableRecord
100
AcDbTextStyleTableRecord
  2
KANJITATE
 70
     4
 40
0.0
 41
1.0
 50
0.0
 71
     0
 42
0.0
  3
txt
  4
extfont
  0
ENDTAB
  0
TABLE
  2
VIEW
  5
5
100
AcDbSymbolTable
 70
     0
  0
ENDTAB
  0
TABLE
  2
UCS
  5
6
100
AcDbSymbolTable
 70
     0
  0
ENDTAB
  0
TABLE
  2
APPID
  5
8
100
AcDbSymbolTable
 70
     1
  0
APPID
  5
16
100
AcDbSymbolTableRecord
100
AcDbRegAppTableRecord
  2
ACAD
 70
     0
  0
ENDTAB
  0
TABLE
  2
DIMSTYLE
  5
9
100
AcDbSymbolTable
 70
     1
100
AcDbDimStyleTable
 71
     0
  0
DIMSTYLE
105
18
100
AcDbSymbolTableRecord
100
AcDbDimStyleTableRecord
  2
Standard
 70
     0
  3

  4

 40
1.0
 41
0.18
 42
0.0625
 43
0.38
 44
0.18
 45
0.0
 46
0.0
 47
0.0
 48
0.0
 71
     0
 72
     0
 73
     1
 74
     1
 75
     0
 76
     0
 77
     0
 78
     0
 79
     0
140
0.18
141
0.09
142
0.0
143
25.4
144
1.0
145
0.0
146
1.0
147
0.09
148
0.0
170
     0
171
     2
172
     0
173
     0
174
     0
175
     0
176
     0
177
     0
178
     0
179
     0
271
     4
272
     4
273
     2
274
     2
275
     0
276
     0
277
     2
278
    46
279
     0
280
     0
281
     0
282
     0
283
     1
284
     0
285
     0
286
     0
288
     0
340
17
341
0
342
0
343
0
344
0
371
    -2
372
    -2
  0
ENDTAB
  0
TABLE
  2
BLOCK_RECORD
  5
1
100
AcDbSymbolTable
 70
     1
  0
BLOCK_RECORD
  5
A
100
AcDbSymbolTableRecord
100
AcDbBlockTableRecord
  2
*MODEL_SPACE
340
20
  0
BLOCK_RECORD
  5
B
100
AcDbSymbolTableRecord
100
AcDbBlockTableRecord
  2
*PAPER_SPACE
340
21
  0
BLOCK_RECORD
  5
29
100
AcDbSymbolTableRecord
100
AcDbBlockTableRecord
  2
AI9-BLK1
340
0
102
{BLKREFS
331
2A
102
}
  0
ENDTAB
  0
ENDSEC
  0
SECTION
  2
BLOCKS
  0
BLOCK
  5
D
100
AcDbEntity
  8
0
100
AcDbBlockBegin
  2
*MODEL_SPACE
 70
     0
 10
0.0
 20
0.0
 30
0.0
  3
*MODEL_SPACE
  1

  0
ENDBLK
  5
E
100
AcDbEntity
  8
0
100
AcDbBlockEnd
  0
BLOCK
  5
F
100
AcDbEntity
 67
     1
  8
0
100
AcDbBlockBegin
  2
*PAPER_SPACE
 70
     0
 10
0.0
 20
0.0
 30
0.0
  3
*PAPER_SPACE
  1

  0
ENDBLK
  5
10
100
AcDbEntity
 67
     1
  8
0
100
AcDbBlockEnd
  0
BLOCK
  5
2B
100
AcDbEntity
  8
LIVELLO_1
 62
     7
100
AcDbBlockBegin
  2
AI9-BLK1
 70
     0
 10
0.0
 20
0.0
 30
0.0
  3
AI9-BLK1
  1

  0
LINE
  5
8B
100
AcDbEntity
  8
LIVELLO_1
 62
     7
100
AcDbLine
 10
8.39208
 20
26.499244
 30
0.0
 11
4.679129
 21
-71.50511
 31
0.0
  0
SPLINE
  5
8A
100
AcDbEntity
  8
LIVELLO_1
 62
     7
100
AcDbSpline
210
0.0
220
0.0
230
1.0
 70
     8
 71
     3
 72
     8
 73
     4
 74
     0
 42
0.00000001
 43
0.00000001
 40
0.0
 40
0.0
 40
0.0
 40
0.0
 40
1.0
 40
1.0
 40
1.0
 40
1.0
 10
-23.692093912760413
 20
61.564114718967005
 30
0.0
 10
-23.77253689236111
 20
61.564114718967005
 30
0.0
 10
-23.837821451822915
 20
61.498830159505204
 30
0.0
 10
-23.841611056857637
 20
61.418387179904506
 30
0.0
  0
LINE
  5
89
100
AcDbEntity
  8
LIVELLO_1
 62
     7
100
AcDbLine
 10
-22.206741
 20
26.499244
 30
0.0
 11
-22.303031
 21
29.004173
 31
0.0
  0
LINE
  5
88
100
AcDbEntity
  8
LIVELLO_1
 62
     7
100
AcDbLine
 10
8.440656
 20
26.499244
 30
0.0
 11
-22.231718
 21
26.499244
 31
0.0
  0
LINE
  5
87
100
AcDbEntity
  8
LIVELLO_1
 62
     7
100
AcDbLine
 10
8.563474
 20
29.004173
 30
0.0
 11
-22.349368
 21
29.004173
 31
0.0
  0
LINE
  5
86
100
AcDbEntity
  8
LIVELLO_1
 62
     7
100
AcDbLine
 10
8.396559
 20
29.254631
 30
0.0
 11
-22.158854
 21
29.254631
 31
0.0
  0
LINE
  5
85
100
AcDbEntity
  8
LIVELLO_1
 62
     7
100
AcDbLine
 10
-20.602877
 20
29.577781
 30
0.0
 11
6.902077
 21
29.577781
 31
0.0
  0
LINE
  5
84
100
AcDbEntity
  8
LIVELLO_1
 62
     7
100
AcDbLine
 10
-23.831793
 20
59.055913
 30
0.0
 11
9.7038
 21
59.055913
 31
0.0
  0
LINE
  5
83
100
AcDbEntity
  8
LIVELLO_1
 62
     7
100
AcDbLine
 10
9.773564
 20
59.306371
 30
0.0
 11
-23.41063
 21
59.306371
 31
0.0
  0
LINE
  5
82
100
AcDbEntity
  8
LIVELLO_1
 62
     7
100
AcDbLine
 10
-23.488833
 20
61.392549
 30
0.0
 11
9.877433
 21
61.392549
 31
0.0
  0
LINE
  5
81
100
AcDbEntity
  8
LIVELLO_1
 62
     7
100
AcDbLine
 10
4.154957
 20
29.004173
 30
0.0
 11
4.4409
 21
29.004173
 31
0.0
  0
POLYLINE
  5
7C
100
AcDbEntity
  8
LIVELLO_1
 62
     7
100
AcDb2dPolyline
 66
     1
 10
0.0
 20
0.0
 30
0.0
  0
VERTEX
  5
7D
100
AcDbEntity
  8
LIVELLO_1
 62
     7
100
AcDbVertex
100
AcDb2dVertex
 10
4.663281
 20
-71.497531
 30
0.0
  0
VERTEX
  5
7E
100
AcDbEntity
  8
LIVELLO_1
 62
     7
100
AcDbVertex
100
AcDb2dVertex
 10
-18.476392
 20
-71.497531
 30
0.0
  0
VERTEX
  5
7F
100
AcDbEntity
  8
LIVELLO_1
 62
     7
100
AcDbVertex
100
AcDb2dVertex
 10
-22.192961
 20
26.484085
 30
0.0
  0
SEQEND
  5
80
100
AcDbEntity
  8
LIVELLO_1
 62
     7
  0
SPLINE
  5
7B
100
AcDbEntity
  8
LIVELLO_1
 62
     7
100
AcDbSpline
210
0.0
220
0.0
230
1.0
 70
     8
 71
     3
 72
    11
 73
     7
 74
     0
 42
0.00000001
 43
0.00000001
 40
0.0
 40
0.0
 40
0.0
 40
0.0
 40
1.0
 40
1.0
 40
1.0
 40
2.0
 40
2.0
 40
2.0
 40
2.0
 10
-18.277609592013889
 20
-89.700726318359372
 30
0.0
 10
-19.745564778645832
 20
-92.823360866970475
 30
0.0
 10
-18.406628417968747
 20
-96.546820068359366
 30
0.0
 10
-15.28468288845486
 20
-98.015464274088529
 30
0.0
 10
-14.613406032986109
 20
-98.332413058810758
 30
0.0
 10
-13.891141764322915
 20
-98.526716444227418
 30
0.0
 10
-13.149929470486111
 20
-98.587350124782972
 30
0.0
  0
SPLINE
  5
7A
100
AcDbEntity
  8
LIVELLO_1
 62
     7
100
AcDbSpline
210
0.0
220
0.0
230
1.0
 70
     8
 71
     3
 72
     8
 73
     4
 74
     0
 42
0.00000001
 43
0.00000001
 40
0.0
 40
0.0
 40
0.0
 40
0.0
 40
1.0
 40
1.0
 40
1.0
 40
1.0
 10
-13.149929470486111
 20
-98.587350124782972
 30
0.0
 10
-9.2268269856770821
 20
-98.918079291449644
 30
0.0
 10
-5.2833984374999998
 20
-98.918079291449644
 30
0.0
 10
-1.3604682074652776
 20
-98.587350124782972
 30
0.0
  0
SPLINE
  5
79
100
AcDbEntity
  8
LIVELLO_1
 62
     7
100
AcDbSpline
210
0.0
220
0.0
230
1.0
 70
     8
 71
     3
 72
    11
 73
     7
 74
     0
 42
0.00000001
 43
0.00000001
 40
0.0
 40
0.0
 40
0.0
 40
0.0
 40
1.0
 40
1.0
 40
1.0
 40
2.0
 40
2.0
 40
2.0
 40
2.0
 10
-1.3604682074652776
 20
-98.587350124782972
 30
0.0
 10
2.0761867947048609
 20
-98.300718180338535
 30
0.0
 10
4.62762451171875
 20
-95.278335910373258
 30
0.0
 10
4.3385810004340275
 20
-91.837030029296869
 30
0.0
 10
4.2763970269097218
 20
-91.096679009331595
 30
0.0
 10
4.0836439344618052
 20
-90.372864447699641
 30
0.0
 10
3.7665228949652776
 20
-89.700726318359372
 30
0.0
  0
SPLINE
  5
78
100
AcDbEntity
  8
LIVELLO_1
 62
     7
100
AcDbSpline
210
0.0
220
0.0
230
1.0
 70
     8
 71
     3
 72
     8
 73
     4
 74
     0
 42
0.00000001
 43
0.00000001
 40
0.0
 40
0.0
 40
0.0
 40
0.0
 40
1.0
 40
1.0
 40
1.0
 40
1.0
 10
3.7665228949652776
 20
-89.700726318359372
 30
0.0
 10
2.0906561957465275
 20
-86.135052490234372
 30
0.0
 10
0.1190280490451389
 20
-82.716484239366309
 30
0.0
 10
-2.1282077365451388
 20
-79.481539577907981
 30
0.0
  0
SPLINE
  5
77
100
AcDbEntity
  8
LIVELLO_1
 62
     7
100
AcDbSpline
210
0.0
220
0.0
230
1.0
 70
     8
 71
     3
 72
    11
 73
     7
 74
     0
 42
0.00000001
 43
0.00000001
 40
0.0
 40
0.0
 40
0.0
 40
0.0
 40
1.0
 40
1.0
 40
1.0
 40
2.0
 40
2.0
 40
2.0
 40
2.0
 10
-2.1282077365451388
 20
-79.481539577907981
 30
0.0
 10
-4.0969075520833327
 20
-76.647259521484372
 30
0.0
 10
-7.987281629774305
 20
-75.946182590060758
 30
0.0
 10
-10.819322374131943
 20
-77.917121717664926
 30
0.0
 10
-11.428587510850694
 20
-78.339145914713541
 30
0.0
 10
-11.958098687065972
 20
-78.870035129123252
 30
0.0
 10
-12.38287896050347
 20
-79.481539577907981
 30
0.0
  0
SPLINE
  5
76
100
AcDbEntity
  8
LIVELLO_1
 62
     7
100
AcDbSpline
210
0.0
220
0.0
230
1.0
 70
     8
 71
     3
 72
     8
 73
     4
 74
     0
 42
0.00000001
 43
0.00000001
 40
0.0
 40
0.0
 40
0.0
 40
0.0
 40
1.0
 40
1.0
 40
1.0
 40
1.0
 10
-12.38287896050347
 20
-79.481539577907981
 30
0.0
 10
-14.629253472222221
 20
-82.716484239366309
 30
0.0
 10
-16.601053873697914
 20
-86.135052490234372
 30
0.0
 10
-18.277609592013889
 20
-89.700726318359372
 30
0.0
  0
LINE
  5
75
100
AcDbEntity
  8
LIVELLO_1
 62
     7
100
AcDbLine
 10
8.541425
 20
29.004173
 30
0.0
 11
8.417057
 21
26.499244
 31
0.0
  0
LINE
  5
74
100
AcDbEntity
  8
LIVELLO_1
 62
     7
100
AcDbLine
 10
-22.135428
 20
29.254631
 30
0.0
 11
-22.144557
 21
29.004173
 31
0.0
  0
LINE
  5
73
100
AcDbEntity
  8
LIVELLO_1
 62
     7
100
AcDbLine
 10
8.381401
 20
29.004173
 30
0.0
 11
8.373821
 21
29.254631
 31
0.0
  0
LINE
  5
72
100
AcDbEntity
  8
LIVELLO_1
 62
     7
100
AcDbLine
 10
-23.609412
 20
59.055913
 30
0.0
 11
-23.62078
 21
59.306371
 31
0.0
  0
LINE
  5
71
100
AcDbEntity
  8
LIVELLO_1
 62
     7
100
AcDbLine
 10
9.608888
 20
59.306371
 30
0.0
 11
9.598381
 21
59.055913
 31
0.0
  0
POLYLINE
  5
6C
100
AcDbEntity
  8
LIVELLO_1
 62
     7
100
AcDb2dPolyline
 66
     1
 10
0.0
 20
0.0
 30
0.0
  0
VERTEX
  5
6D
100
AcDbEntity
  8
LIVELLO_1
 62
     7
100
AcDbVertex
100
AcDb2dVertex
 10
9.854007
 20
61.392549
 30
0.0
  0
VERTEX
  5
6E
100
AcDbEntity
  8
LIVELLO_1
 62
     7
100
AcDbVertex
100
AcDb2dVertex
 10
9.852456
 20
61.418387
 30
0.0
  0
VERTEX
  5
6F
100
AcDbEntity
  8
LIVELLO_1
 62
     7
100
AcDbVertex
100
AcDb2dVertex
 10
9.705351
 20
61.562564
 30
0.0
  0
SEQEND
  5
70
100
AcDbEntity
  8
LIVELLO_1
 62
     7
  0
LINE
  5
6B
100
AcDbEntity
  8
LIVELLO_1
 62
     7
100
AcDbLine
 10
-8.847522
 20
61.750667
 30
0.0
 11
9.705351
 21
61.562564
 31
0.0
  0
SPLINE
  5
6A
100
AcDbEntity
  8
LIVELLO_1
 62
     7
100
AcDbSpline
210
0.0
220
0.0
230
1.0
 70
     8
 71
     3
 72
    26
 73
    22
 74
     0
 42
0.00000001
 43
0.00000001
 40
0.0
 40
0.0
 40
0.0
 40
0.0
 40
1.0
 40
1.0
 40
1.0
 40
2.0
 40
2.0
 40
2.0
 40
3.0
 40
3.0
 40
3.0
 40
4.0
 40
4.0
 40
4.0
 40
5.0
 40
5.0
 40
5.0
 40
6.0
 40
6.0
 40
6.0
 40
7.0
 40
7.0
 40
7.0
 40
7.0
 10
-23.609411621093749
 20
61.564114718967005
 30
0.0
 10
-23.536547851562499
 20
61.564114718967005
 30
0.0
 10
-23.45472683376736
 20
61.567043050130202
 30
0.0
 10
-23.389442274305555
 20
61.568593343098954
 30
0.0
 10
-23.318817816840276
 20
61.570143636067705
 30
0.0
 10
-23.268002658420137
 20
61.570143636067705
 30
0.0
 10
-23.157242838541663
 20
61.573244222005201
 30
0.0
 10
-23.05940212673611
 20
61.574622260199646
 30
0.0
 10
-22.918325466579859
 20
61.577722846137149
 30
0.0
 10
-22.953982204861109
 20
61.576172553168398
 30
0.0
 10
-22.964662000868053
 20
61.576172553168398
 30
0.0
 10
-22.988088650173609
 20
61.576172553168398
 30
0.0
 10
-23.010137261284719
 20
61.574622260199646
 30
0.0
 10
-23.091958279079858
 20
61.574622260199646
 30
0.0
 10
-23.152764214409721
 20
61.573244222005201
 30
0.0
 10
-23.218048773871526
 20
61.571693929036449
 30
0.0
 10
-23.291601562499999
 20
61.570143636067705
 30
0.0
 10
-23.370494249131941
 20
61.570143636067705
 30
0.0
 10
-23.447836642795135
 20
61.568593343098954
 30
0.0
 10
-23.52449001736111
 20
61.567043050130202
 30
0.0
 10
-23.595803493923608
 20
61.565665011935756
 30
0.0
 10
-23.670045301649303
 20
61.564114718967005
 30
0.0
  0
POLYLINE
  5
65
100
AcDbEntity
  8
LIVELLO_1
 62
     7
100
AcDb2dPolyline
 66
     1
 10
0.0
 20
0.0
 30
0.0
  0
VERTEX
  5
66
100
AcDbEntity
  8
LIVELLO_1
 62
     7
100
AcDbVertex
100
AcDb2dVertex
 10
-23.763407
 20
59.306371
 30
0.0
  0
VERTEX
  5
67
100
AcDbEntity
  8
LIVELLO_1
 62
     7
100
AcDbVertex
100
AcDb2dVertex
 10
-23.843161
 20
61.392549
 30
0.0
  0
VERTEX
  5
68
100
AcDbEntity
  8
LIVELLO_1
 62
     7
100
AcDbVertex
100
AcDb2dVertex
 10
-23.841611
 20
61.419937
 30
0.0
  0
SEQEND
  5
69
100
AcDbEntity
  8
LIVELLO_1
 62
     7
  0
LINE
  5
64
100
AcDbEntity
  8
LIVELLO_1
 62
     7
100
AcDbLine
 10
9.751515
 20
59.306371
 30
0.0
 11
9.854007
 21
61.392549
 31
0.0
  0
LINE
  5
63
100
AcDbEntity
  8
LIVELLO_1
 62
     7
100
AcDbLine
 10
-23.668667
 20
61.564115
 30
0.0
 11
-9.194271
 21
61.753767
 31
0.0
  0
LINE
  5
62
100
AcDbEntity
  8
LIVELLO_1
 62
     7
100
AcDbLine
 10
9.681752
 20
59.055913
 30
0.0
 11
9.681752
 21
58.958934
 31
0.0
  0
LINE
  5
61
100
AcDbEntity
  8
LIVELLO_1
 62
     7
100
AcDbLine
 10
-23.810433
 20
59.055913
 30
0.0
 11
-23.810433
 21
58.594787
 31
0.0
  0
SPLINE
  5
60
100
AcDbEntity
  8
LIVELLO_1
 62
     7
100
AcDbSpline
210
0.0
220
0.0
230
1.0
 70
     8
 71
     3
 72
    35
 73
    31
 74
     0
 42
0.00000001
 43
0.00000001
 40
0.0
 40
0.0
 40
0.0
 40
0.0
 40
1.0
 40
1.0
 40
1.0
 40
2.0
 40
2.0
 40
2.0
 40
3.0
 40
3.0
 40
3.0
 40
4.0
 40
4.0
 40
4.0
 40
5.0
 40
5.0
 40
5.0
 40
6.0
 40
6.0
 40
6.0
 40
7.0
 40
7.0
 40
7.0
 40
8.0
 40
8.0
 40
8.0
 40
9.0
 40
9.0
 40
9.0
 40
10.0
 40
10.0
 40
10.0
 40
10.0
 10
-23.306759982638887
 20
59.055912950303814
 30
0.0
 10
-23.306759982638887
 20
59.055912950303814
 30
0.0
 10
-23.327258300781249
 20
59.055912950303814
 30
0.0
 10
-23.327258300781249
 20
59.055912950303814
 30
0.0
 10
-23.370494249131941
 20
59.055912950303814
 30
0.0
 10
-23.253705512152777
 20
59.055912950303814
 30
0.0
 10
-23.171712239583332
 20
59.055912950303814
 30
0.0
 10
-23.171712239583332
 20
59.055912950303814
 30
0.0
 10
-22.930383300781248
 20
59.055912950303814
 30
0.0
 10
-22.930383300781248
 20
59.055912950303814
 30
0.0
 10
-22.930383300781248
 20
59.055912950303814
 30
0.0
 10
-22.693016221788191
 20
59.055912950303814
 30
0.0
 10
-22.693016221788191
 20
59.055912950303814
 30
0.0
 10
-22.693016221788191
 20
59.055912950303814
 30
0.0
 10
-22.032935926649305
 20
59.055912950303814
 30
0.0
 10
-22.032935926649305
 20
59.055912950303814
 30
0.0
 10
-22.032935926649305
 20
59.055912950303814
 30
0.0
 10
-21.614873589409719
 20
59.055912950303814
 30
0.0
 10
-21.614873589409719
 20
59.055912950303814
 30
0.0
 10
-21.614873589409719
 20
59.055912950303814
 30
0.0
 10
-21.161326768663194
 20
59.055912950303814
 30
0.0
 10
-21.161326768663194
 20
59.055912950303814
 30
0.0
 10
-21.161326768663194
 20
59.055912950303814
 30
0.0
 10
-20.611317274305552
 20
59.055912950303814
 30
0.0
 10
-20.611317274305552
 20
59.055912950303814
 30
0.0
 10
-20.611317274305552
 20
59.055912950303814
 30
0.0
 10
-20.020311143663193
 20
59.055912950303814
 30
0.0
 10
-20.020311143663193
 20
59.055912950303814
 30
0.0
 10
-20.020311143663193
 20
59.055912950303814
 30
0.0
 10
-19.442913140190971
 20
59.055912950303814
 30
0.0
 10
-19.442913140190971
 20
59.055912950303814
 30
0.0
  0
LINE
  5
5F
100
AcDbEntity
  8
LIVELLO_1
 62
     7
100
AcDbLine
 10
8.541425
 20
29.004173
 30
0.0
 11
9.681752
 21
59.055913
 31
0.0
  0
LINE
  5
5E
100
AcDbEntity
  8
LIVELLO_1
 62
     7
100
AcDbLine
 10
-22.32663
 20
29.004173
 30
0.0
 11
-23.810433
 21
59.055913
 31
0.0
  0
LINE
  5
5D
100
AcDbEntity
  8
LIVELLO_1
 62
     7
100
AcDbLine
 10
-20.225811
 20
29.353161
 30
0.0
 11
-17.785994
 21
29.353161
 31
0.0
  0
LINE
  5
5C
100
AcDbEntity
  8
LIVELLO_1
 62
     7
100
AcDbLine
 10
-17.783066
 20
29.36074
 30
0.0
 11
6.870898
 21
29.36074
 31
0.0
  0
LINE
  5
5B
100
AcDbEntity
  8
LIVELLO_1
 62
     7
100
AcDbLine
 10
-20.57256
 20
29.36074
 30
0.0
 11
-20.227361
 21
29.36074
 31
0.0
  0
LINE
  5
5A
100
AcDbEntity
  8
LIVELLO_1
 62
     7
100
AcDbLine
 10
-18.212325
 20
29.353161
 30
0.0
 11
-18.119135
 21
29.004173
 31
0.0
  0
LINE
  5
59
100
AcDbEntity
  8
LIVELLO_1
 62
     7
100
AcDbLine
 10
-17.783066
 20
29.36074
 30
0.0
 11
-17.879357
 21
29.004173
 31
0.0
  0
LINE
  5
58
100
AcDbEntity
  8
LIVELLO_1
 62
     7
100
AcDbLine
 10
-20.287995
 20
29.577781
 30
0.0
 11
-20.225811
 21
29.353161
 31
0.0
  0
LINE
  5
57
100
AcDbEntity
  8
LIVELLO_1
 62
     7
100
AcDbLine
 10
4.082094
 20
29.36074
 30
0.0
 11
4.179934
 21
29.004173
 31
0.0
  0
LINE
  5
56
100
AcDbEntity
  8
LIVELLO_1
 62
     7
100
AcDbLine
 10
4.513764
 20
29.36074
 30
0.0
 11
4.418163
 21
29.004173
 31
0.0
  0
LINE
  5
55
100
AcDbEntity
  8
LIVELLO_1
 62
     7
100
AcDbLine
 10
6.587195
 20
29.577781
 30
0.0
 11
6.528111
 21
29.36074
 31
0.0
  0
LINE
  5
54
100
AcDbEntity
  8
LIVELLO_1
 62
     7
100
AcDbLine
 10
-20.57256
 20
29.36074
 30
0.0
 11
-20.580139
 21
29.577781
 31
0.0
  0
LINE
  5
53
100
AcDbEntity
  8
LIVELLO_1
 62
     7
100
AcDbLine
 10
6.870898
 20
29.36074
 30
0.0
 11
6.879339
 21
29.577781
 31
0.0
  0
LINE
  5
52
100
AcDbEntity
  8
LIVELLO_1
 62
     7
100
AcDbLine
 10
-20.061136
 20
29.577781
 30
0.0
 11
-20.051317
 21
29.353161
 31
0.0
  0
LINE
  5
51
100
AcDbEntity
  8
LIVELLO_1
 62
     7
100
AcDbLine
 10
6.361886
 20
29.577781
 30
0.0
 11
6.352067
 21
29.36074
 31
0.0
  0
SPLINE
  5
50
100
AcDbEntity
  8
LIVELLO_1
 62
     7
100
AcDbSpline
210
0.0
220
0.0
230
1.0
 70
     8
 71
     3
 72
     8
 73
     4
 74
     0
 42
0.00000001
 43
0.00000001
 40
0.0
 40
0.0
 40
0.0
 40
0.0
 40
1.0
 40
1.0
 40
1.0
 40
1.0
 10
-19.248782009548609
 20
29.57778116861979
 30
0.0
 10
-19.259289550781247
 20
29.503367106119789
 30
0.0
 10
-19.268419053819443
 20
29.427575005425343
 30
0.0
 10
-19.278237575954858
 20
29.353160942925346
 30
0.0
  0
SPLINE
  5
4F
100
AcDbEntity
  8
LIVELLO_1
 62
     7
100
AcDbSpline
210
0.0
220
0.0
230
1.0
 70
     8
 71
     3
 72
     8
 73
     4
 74
     0
 42
0.00000001
 43
0.00000001
 40
0.0
 40
0.0
 40
0.0
 40
0.0
 40
1.0
 40
1.0
 40
1.0
 40
1.0
 10
5.5751980251736102
 20
29.36074015299479
 30
0.0
 10
5.5676188151041659
 20
29.433776177300345
 30
0.0
 10
5.558489312065972
 20
29.505089653862843
 30
0.0
 10
5.5471204969618046
 20
29.57778116861979
 30
0.0
  0
SPLINE
  5
4E
100
AcDbEntity
  8
LIVELLO_1
 62
     7
100
AcDbSpline
210
0.0
220
0.0
230
1.0
 70
     8
 71
     3
 72
    11
 73
     7
 74
     0
 42
0.00000001
 43
0.00000001
 40
0.0
 40
0.0
 40
0.0
 40
0.0
 40
1.0
 40
1.0
 40
1.0
 40
2.0
 40
2.0
 40
2.0
 40
2.0
 10
-23.634388563368052
 20
85.692185465494788
 30
0.0
 10
-25.881624348958329
 20
80.920383707682291
 30
0.0
 10
-23.833170572916664
 20
75.228913709852421
 30
0.0
 10
-19.060507541232639
 20
72.983228217230902
 30
0.0
 10
-18.031802029079859
 20
72.497814263237842
 30
0.0
 10
-16.924203830295138
 20
72.201880560980896
 30
0.0
 10
-15.79007839626736
 20
72.106279161241318
 30
0.0
  0
SPLINE
  5
4D
100
AcDbEntity
  8
LIVELLO_1
 62
     7
100
AcDbSpline
210
0.0
220
0.0
230
1.0
 70
     8
 71
     3
 72
    11
 73
     7
 74
     0
 42
0.00000001
 43
0.00000001
 40
0.0
 40
0.0
 40
0.0
 40
0.0
 40
1.0
 40
1.0
 40
1.0
 40
2.0
 40
2.0
 40
2.0
 40
2.0
 10
2.2257039388020829
 20
72.106279161241318
 30
0.0
 10
7.4817138671874996
 20
72.546390109592011
 30
0.0
 10
11.386385091145833
 20
77.165057373046864
 30
0.0
 10
10.944896104600694
 20
82.420895046657975
 30
0.0
 10
10.850155978732637
 20
83.555881754557291
 30
0.0
 10
10.553533257378472
 20
84.661929660373261
 30
0.0
 10
10.068636067708333
 20
85.692185465494788
 30
0.0
  0
SPLINE
  5
4C
100
AcDbEntity
  8
LIVELLO_1
 62
     7
100
AcDbSpline
210
0.0
220
0.0
230
1.0
 70
     8
 71
     3
 72
    11
 73
     7
 74
     0
 42
0.00000001
 43
0.00000001
 40
0.0
 40
0.0
 40
0.0
 40
0.0
 40
1.0
 40
1.0
 40
1.0
 40
2.0
 40
2.0
 40
2.0
 40
2.0
 10
1.06195068359375
 20
101.29312811957465
 30
0.0
 10
-1.9490627712673609
 20
105.6236131456163
 30
0.0
 10
-7.8999484592013882
 20
106.69624362521701
 30
0.0
 10
-12.231983778211804
 20
103.68746948242186
 30
0.0
 10
-13.167327202690972
 20
103.03651869032117
 30
0.0
 10
-13.976752387152777
 20
102.22623223198784
 30
0.0
 10
-14.626152886284721
 20
101.29312811957465
 30
0.0
  0
SPLINE
  5
4B
100
AcDbEntity
  8
LIVELLO_1
 62
     7
100
AcDbSpline
210
0.0
220
0.0
230
1.0
 70
     8
 71
     3
 72
     8
 73
     4
 74
     0
 42
0.00000001
 43
0.00000001
 40
0.0
 40
0.0
 40
0.0
 40
0.0
 40
1.0
 40
1.0
 40
1.0
 40
1.0
 10
-14.627703179253471
 20
101.2855489095052
 30
0.0
 10
-18.059879557291666
 20
96.346832275390611
 30
0.0
 10
-21.071065266927082
 20
91.131818983289918
 30
0.0
 10
-23.63301052517361
 20
85.690807427300342
 30
0.0
  0
SPLINE
  5
4A
100
AcDbEntity
  8
LIVELLO_1
 62
     7
100
AcDbSpline
210
0.0
220
0.0
230
1.0
 70
     8
 71
     3
 72
     8
 73
     4
 74
     0
 42
0.00000001
 43
0.00000001
 40
0.0
 40
0.0
 40
0.0
 40
0.0
 40
1.0
 40
1.0
 40
1.0
 40
1.0
 10
-15.79007839626736
 20
72.106279161241318
 30
0.0
 10
-9.7959567599826372
 20
71.604156494140625
 30
0.0
 10
-3.7699679904513888
 20
71.604156494140625
 30
0.0
 10
2.2241536458333333
 20
72.106279161241318
 30
0.0
  0
SPLINE
  5
49
100
AcDbEntity
  8
LIVELLO_1
 62
     7
100
AcDbSpline
210
0.0
220
0.0
230
1.0
 70
     8
 71
     3
 72
     8
 73
     4
 74
     0
 42
0.00000001
 43
0.00000001
 40
0.0
 40
0.0
 40
0.0
 40
0.0
 40
1.0
 40
1.0
 40
1.0
 40
1.0
 10
10.065707736545138
 20
85.693735758463532
 30
0.0
 10
7.5051405164930545
 20
91.133369276258676
 30
0.0
 10
4.4925767686631941
 20
96.349760606553815
 30
0.0
 10
1.0604003906249999
 20
101.28709920247395
 30
0.0
  0
LINE
  5
48
100
AcDbEntity
  8
LIVELLO_1
 62
     7
100
AcDbLine
 10
12.618523
 20
112.237507
 30
0.0
 11
12.618523
 21
107.747859
 31
0.0
  0
LINE
  5
47
100
AcDbEntity
  8
LIVELLO_1
 62
     7
100
AcDbLine
 10
-26.387537
 20
112.237507
 30
0.0
 11
-26.387537
 21
107.747859
 31
0.0
  0
LINE
  5
46
100
AcDbEntity
  8
LIVELLO_1
 62
     7
100
AcDbLine
 10
3.555683
 20
109.735507
 30
0.0
 11
12.618523
 21
109.735507
 31
0.0
  0
LINE
  5
45
100
AcDbEntity
  8
LIVELLO_1
 62
     7
100
AcDbLine
 10
-26.387537
 20
109.735507
 30
0.0
 11
-19.750216
 21
109.735507
 31
0.0
  0
MTEXT
  5
44
100
AcDbEntity
  8
LIVELLO_1
 62
     7
100
AcDbMText
 10
-18.563036
 20
114.114103
 30
0.0
 40
6.1039
 41
0.0
 71
     1
 72
     2
  1
\fCourier|b0|i0;\H6.1039;\W0.88;\C7;\U+00D8\U+0020\U+0032\U+0032\U+0038
  7
STD
210
0.0
220
0.0
230
1.0
 73
     1
 44
1.0
  0
LINE
  5
43
100
AcDbEntity
  8
LIVELLO_1
 62
     7
100
AcDbLine
 10
6.024266
 20
-107.985571
 30
0.0
 11
6.024266
 21
-112.475219
 31
0.0
  0
LINE
  5
42
100
AcDbEntity
  8
LIVELLO_1
 62
     7
100
AcDbLine
 10
-19.815328
 20
-107.985571
 30
0.0
 11
-19.815328
 21
-112.475219
 31
0.0
  0
LINE
  5
41
100
AcDbEntity
  8
LIVELLO_1
 62
     7
100
AcDbLine
 10
3.939467
 20
-110.486021
 30
0.0
 11
6.024266
 21
-110.486021
 31
0.0
  0
LINE
  5
40
100
AcDbEntity
  8
LIVELLO_1
 62
     7
100
AcDbLine
 10
-19.815328
 20
-110.486021
 30
0.0
 11
-17.18672
 21
-110.486021
 31
0.0
  0
MTEXT
  5
3F
100
AcDbEntity
  8
LIVELLO_1
 62
     7
100
AcDbMText
 10
-16.502524
 20
-106.311029
 30
0.0
 40
6.103901
 41
0.0
 71
     1
 72
     2
  1
\fCourier|b0|i0;\H6.1039;\W0.81;\C7;\U+00D8\U+0020\U+0031\U+0035\U+0030
  7
STD
210
0.0
220
0.0
230
1.0
 73
     1
 44
1.0
  0
LINE
  5
3E
100
AcDbEntity
  8
LIVELLO_1
 62
     7
100
AcDbLine
 10
21.656387
 20
-72.014984
 30
0.0
 11
17.167428
 21
-72.014984
 31
0.0
  0
LINE
  5
3D
100
AcDbEntity
  8
LIVELLO_1
 62
     7
100
AcDbLine
 10
21.567504
 20
61.468513
 30
0.0
 11
17.079405
 21
61.468513
 31
0.0
  0
LINE
  5
3C
100
AcDbEntity
  8
LIVELLO_1
 62
     7
100
AcDbLine
 10
19.391064
 20
-0.48929
 30
0.0
 11
19.336287
 21
-71.750745
 31
0.0
  0
LINE
  5
3B
100
AcDbEntity
  8
LIVELLO_1
 62
     7
100
AcDbLine
 10
19.328708
 20
61.471442
 30
0.0
 11
19.248437
 21
6.681677
 31
0.0
  0
MTEXT
  5
3A
100
AcDbEntity
  8
LIVELLO_1
 62
     7
100
AcDbMText
 10
14.634077
 20
6.561772
 30
0.0
 40
5.549
 41
0.0
 71
     1
 72
     2
  1
\fCourier|b0|i0;\H5.5490;\W0.88;\C7;\U+0038\U+0030\U+0030
  7
STD
210
0.0
220
0.0
230
1.0
 73
     1
 44
1.0
  0
POLYLINE
  5
34
100
AcDbEntity
  8
LIVELLO_1
 62
     7
100
AcDb2dPolyline
 66
     1
 10
0.0
 20
0.0
 30
0.0
 70
     1
  0
VERTEX
  5
35
100
AcDbEntity
  8
LIVELLO_1
 62
     7
100
AcDbVertex
100
AcDb2dVertex
 10
-11.081839
 20
44.269908
 30
0.0
  0
VERTEX
  5
36
100
AcDbEntity
  8
LIVELLO_1
 62
     7
100
AcDbVertex
100
AcDb2dVertex
 10
-18.081928
 20
29.642893
 30
0.0
  0
VERTEX
  5
37
100
AcDbEntity
  8
LIVELLO_1
 62
     7
100
AcDbVertex
100
AcDb2dVertex
 10
3.918968
 20
29.642893
 30
0.0
  0
VERTEX
  5
38
100
AcDbEntity
  8
LIVELLO_1
 62
     7
100
AcDbVertex
100
AcDb2dVertex
 10
-3.08026
 20
44.269908
 30
0.0
  0
SEQEND
  5
39
100
AcDbEntity
  8
LIVELLO_1
 62
     7
  0
SPLINE
  5
33
100
AcDbEntity
  8
LIVELLO_1
 62
     7
100
AcDbSpline
210
0.0
220
0.0
230
1.0
 70
     8
 71
     3
 72
    14
 73
    10
 74
     0
 42
0.00000001
 43
0.00000001
 40
0.0
 40
0.0
 40
0.0
 40
0.0
 40
1.0
 40
1.0
 40
1.0
 40
2.0
 40
2.0
 40
2.0
 40
3.0
 40
3.0
 40
3.0
 40
3.0
 10
-20.160526529947916
 20
46.292350938585066
 30
0.0
 10
-20.160526529947916
 20
46.292350938585066
 30
0.0
 10
6.2556043836805548
 20
46.292350938585066
 30
0.0
 10
6.2556043836805548
 20
46.292350938585066
 30
0.0
 10
6.2556043836805548
 20
46.292350938585066
 30
0.0
 10
-0.0926730685763889
 20
58.713125949435756
 30
0.0
 10
-6.9115505642361104
 20
58.688838026258672
 30
0.0
 10
-13.729566786024304
 20
58.666100396050339
 30
0.0
 10
-20.160526529947916
 20
46.292350938585066
 30
0.0
 10
-20.160526529947916
 20
46.292350938585066
 30
0.0
  0
POLYLINE
  5
2D
100
AcDbEntity
  8
LIVELLO_1
 62
     7
100
AcDb2dPolyline
 66
     1
 10
0.0
 20
0.0
 30
0.0
 70
     1
  0
VERTEX
  5
2E
100
AcDbEntity
  8
LIVELLO_1
 62
     7
100
AcDbVertex
100
AcDb2dVertex
 10
-20.107472
 20
59.285012
 30
0.0
  0
VERTEX
  5
2F
100
AcDbEntity
  8
LIVELLO_1
 62
     7
100
AcDbVertex
100
AcDb2dVertex
 10
-20.107472
 20
29.784142
 30
0.0
  0
VERTEX
  5
30
100
AcDbEntity
  8
LIVELLO_1
 62
     7
100
AcDbVertex
100
AcDb2dVertex
 10
6.361886
 20
29.784142
 30
0.0
  0
VERTEX
  5
31
100
AcDbEntity
  8
LIVELLO_1
 62
     7
100
AcDbVertex
100
AcDb2dVertex
 10
6.361886
 20
59.285012
 30
0.0
  0
SEQEND
  5
32
100
AcDbEntity
  8
LIVELLO_1
 62
     7
  0
LINE
  5
2C
100
AcDbEntity
  8
LIVELLO_1
 62
     7
100
AcDbLine
 10
-6.91
 20
59.496024
 30
0.0
 11
-6.91
 21
29.37142
 31
0.0
  0
ENDBLK
  5
8C
100
AcDbEntity
  8
LIVELLO_1
100
AcDbBlockEnd
  0
ENDSEC
  0
SECTION
  2
ENTITIES
  0
INSERT
  5
2A
100
AcDbEntity
  8
LIVELLO_1
 62
     7
100
AcDbBlockReference
  2
AI9-BLK1
 10
26.446792
 20
116.766774
 30
0.0
  0
ENDSEC
  0
SECTION
  2
OBJECTS
  0
DICTIONARY
  5
19
100
AcDbDictionary
280
     0
281
     1
  3
ACAD_GROUP
350
1A
  3
ACAD_MLINESTYLE
350
1B
  3
ACAD_LAYOUT
350
1E
  3
ACAD_PLOTSETTINGS
350
22
  3
ACAD_PLOTSTYLENAME
350
1F
  3
ACAD_WIPEOUT_VARS
350
23
  0
DICTIONARY
  5
1A
102
{ACAD_REACTORS
330
19
102
}
100
AcDbDictionary
280
     0
281
     1
  0
DICTIONARY
  5
1B
102
{ACAD_REACTORS
330
19
102
}
100
AcDbDictionary
280
     0
281
     1
  3
Standard
350
1C
  0
MLINESTYLE
  5
1C
102
{ACAD_REACTORS
330
1B
102
}
100
AcDbMlineStyle
  2
Standard
 70
     0
  3

 62
     0
 51
90.0
 52
90.0
 71
     2
 49
0.5
 62
   256
  6
ByLayer
 49
-0.5
 62
   256
  6
ByLayer
  0
ACDBDICTIONARYWDFLT
  5
1F
102
{ACAD_REACTORS
330
19
102
}
100
AcDbDictionary
281
     1
  3
Normal
350
1D
100
AcDbDictionaryWithDefault
340
1D
  0
ACDBPLACEHOLDER
  5
1D
102
{ACAD_REACTORS
330
1F
102
}
  0
LAYOUT
  5
20
102
{ACAD_REACTORS
330
1E
102
}
100
AcDbPlotSettings
  1

  2

  4

  6

 40
0.0
 41
0.0
 42
0.0
 43
0.0
 44
0.0
 45
0.0
 46
0.0
 47
0.0
 48
0.0
 49
0.0
140
0.0
141
0.0
142
1.0
143
1.0
 70
  1024
 72
     0
 73
     0
 74
     0
  7

 75
     0
147
1.0
148
0.0
149
0.0
100
AcDbLayout
  1
Model
 70
     0
 71
     0
 10
0.0
 20
0.0
 11
0.0
 21
0.0
 12
0.0
 22
0.0
 32
0.0
 14
0.0
 24
0.0
 34
0.0
 15
0.0
 25
0.0
 35
0.0
146
0.0
 13
0.0
 23
0.0
 33
0.0
 16
0.0
 26
0.0
 36
0.0
 17
0.0
 27
0.0
 37
0.0
 76
     0
330
A
331
0
345
0
346
0
  0
LAYOUT
  5
21
102
{ACAD_REACTORS
330
1E
102
}
100
AcDbPlotSettings
  1

  2

  4

  6

 40
0.0
 41
0.0
 42
0.0
 43
0.0
 44
0.0
 45
0.0
 46
0.0
 47
0.0
 48
0.0
 49
0.0
140
0.0
141
0.0
142
1.0
143
1.0
 70
     0
 72
     0
 73
     0
 74
     0
  7

 75
     0
147
1.0
148
0.0
149
0.0
100
AcDbLayout
  1
Layout1
 70
     0
 71
     0
 10
0.0
 20
0.0
 11
0.0
 21
0.0
 12
0.0
 22
0.0
 32
0.0
 14
0.0
 24
0.0
 34
0.0
 15
0.0
 25
0.0
 35
0.0
146
0.0
 13
0.0
 23
0.0
 33
0.0
 16
0.0
 26
0.0
 36
0.0
 17
0.0
 27
0.0
 37
0.0
 76
     0
330
B
331
0
345
0
346
0
  0
DICTIONARY
  5
1E
102
{ACAD_REACTORS
330
19
102
}
100
AcDbDictionary
280
     0
281
     1
  3
Layout1
350
21
  3
Model
350
20
  0
DICTIONARY
  5
22
102
{ACAD_REACTORS
330
19
102
}
100
AcDbDictionary
280
     0
281
     1
  0
WIPEOUTVARIABLES
  5
23
100
AcDbWipeoutVariables
 70
     1
  0
ENDSEC
  0
EOF
